999
"DXF R12 Output" (www.mydxf.blogspot.com)
 0 
SECTION
 2 
HEADER
 9 
$ACADVER
 1 
AC1009
 9 
$EXTMIN
 10 
 0 
 20 
 0 
 9 
$EXTMAX
 10 
 8.5 
 20 
 11 
 0 
ENDSEC
 0 
SECTION
 2 
ENTITIES
0
POLYLINE
8
Layer 1
62
90
70
0
10
0.000000
20
0.000000
66
1
0
VERTEX
8
Layer 1
10
76.918117
20
158.043538
70
0
0
VERTEX
8
Layer 1
10
76.918117
20
161.565138
70
0
0
SEQEND
8
Layer 1
0
POLYLINE
8
Layer 1
62
90
70
0
10
0.000000
20
0.000000
66
1
0
VERTEX
8
Layer 1
10
76.918117
20
161.565138
70
0
0
VERTEX
8
Layer 1
10
113.580590
20
161.565138
70
0
0
SEQEND
8
Layer 1
0
POLYLINE
8
Layer 1
62
90
70
0
10
0.000000
20
0.000000
66
1
0
VERTEX
8
Layer 1
10
113.580590
20
161.565138
70
0
0
VERTEX
8
Layer 1
10
113.580590
20
158.040892
70
0
0
SEQEND
8
Layer 1
0
POLYLINE
8
Layer 1
62
90
70
0
10
0.000000
20
0.000000
66
1
0
VERTEX
8
Layer 1
10
79.195015
20
158.043538
70
0
0
VERTEX
8
Layer 1
10
76.918117
20
158.043538
70
0
0
SEQEND
8
Layer 1
0
POLYLINE
8
Layer 1
62
90
70
0
10
0.000000
20
0.000000
66
1
0
VERTEX
8
Layer 1
10
113.580590
20
158.040892
70
0
0
VERTEX
8
Layer 1
10
103.772498
20
157.998559
70
0
0
SEQEND
8
Layer 1
0
POLYLINE
8
Layer 1
62
90
70
0
10
0.000000
20
0.000000
66
1
0
VERTEX
8
Layer 1
10
103.772498
20
157.998559
70
0
0
VERTEX
8
Layer 1
10
96.589546
20
157.998559
70
0
0
SEQEND
8
Layer 1
0
POLYLINE
8
Layer 1
62
90
70
0
10
0.000000
20
0.000000
66
1
0
VERTEX
8
Layer 1
10
96.589546
20
157.998559
70
0
0
VERTEX
8
Layer 1
10
95.069014
20
158.001205
70
0
0
SEQEND
8
Layer 1
0
POLYLINE
8
Layer 1
62
90
70
0
10
0.000000
20
0.000000
66
1
0
VERTEX
8
Layer 1
10
95.069014
20
158.001205
70
0
0
VERTEX
8
Layer 1
10
91.929022
20
158.009142
70
0
0
SEQEND
8
Layer 1
0
POLYLINE
8
Layer 1
62
90
70
0
10
0.000000
20
0.000000
66
1
0
VERTEX
8
Layer 1
10
91.929022
20
158.009142
70
0
0
VERTEX
8
Layer 1
10
91.910713
20
158.009142
70
0
0
SEQEND
8
Layer 1
0
POLYLINE
8
Layer 1
62
90
70
0
10
0.000000
20
0.000000
66
1
0
VERTEX
8
Layer 1
10
91.910713
20
158.009142
70
0
0
VERTEX
8
Layer 1
10
89.441095
20
158.017080
70
0
0
SEQEND
8
Layer 1
0
POLYLINE
8
Layer 1
62
90
70
0
10
0.000000
20
0.000000
66
1
0
VERTEX
8
Layer 1
10
89.441095
20
158.017080
70
0
0
VERTEX
8
Layer 1
10
87.577981
20
158.025017
70
0
0
SEQEND
8
Layer 1
0
POLYLINE
8
Layer 1
62
90
70
0
10
0.000000
20
0.000000
66
1
0
VERTEX
8
Layer 1
10
87.577981
20
158.025017
70
0
0
VERTEX
8
Layer 1
10
86.891573
20
158.025017
70
0
0
SEQEND
8
Layer 1
0
POLYLINE
8
Layer 1
62
90
70
0
10
0.000000
20
0.000000
66
1
0
VERTEX
8
Layer 1
10
86.891573
20
158.025017
70
0
0
VERTEX
8
Layer 1
10
79.195015
20
158.043538
70
0
0
SEQEND
8
Layer 1
0
POLYLINE
8
Layer 1
62
90
70
0
10
0.000000
20
0.000000
66
1
0
VERTEX
8
Layer 1
10
138.078330
20
158.212871
70
0
0
VERTEX
8
Layer 1
10
138.116165
20
158.204933
70
0
0
SEQEND
8
Layer 1
0
POLYLINE
8
Layer 1
62
90
70
0
10
0.000000
20
0.000000
66
1
0
VERTEX
8
Layer 1
10
65.296256
20
159.300307
70
0
0
VERTEX
8
Layer 1
10
65.129066
20
158.937828
70
0
0
SEQEND
8
Layer 1
0
POLYLINE
8
Layer 1
62
90
70
0
10
0.000000
20
0.000000
66
1
0
VERTEX
8
Layer 1
10
138.116165
20
158.204933
70
0
0
VERTEX
8
Layer 1
10
138.118282
20
158.660016
70
0
0
SEQEND
8
Layer 1
0
POLYLINE
8
Layer 1
62
90
70
0
10
0.000000
20
0.000000
66
1
0
VERTEX
8
Layer 1
10
138.118282
20
158.660016
70
0
0
VERTEX
8
Layer 1
10
138.103730
20
158.665308
70
0
0
SEQEND
8
Layer 1
0
POLYLINE
8
Layer 1
62
90
70
0
10
0.000000
20
0.000000
66
1
0
VERTEX
8
Layer 1
10
138.103730
20
158.665308
70
0
0
VERTEX
8
Layer 1
10
137.789405
20
158.734099
70
0
0
SEQEND
8
Layer 1
0
POLYLINE
8
Layer 1
62
90
70
0
10
0.000000
20
0.000000
66
1
0
VERTEX
8
Layer 1
10
137.789405
20
158.734099
70
0
0
VERTEX
8
Layer 1
10
137.664257
20
158.757912
70
0
0
SEQEND
8
Layer 1
0
POLYLINE
8
Layer 1
62
90
70
0
10
0.000000
20
0.000000
66
1
0
VERTEX
8
Layer 1
10
137.664257
20
158.757912
70
0
0
VERTEX
8
Layer 1
10
137.380624
20
158.808183
70
0
0
SEQEND
8
Layer 1
0
POLYLINE
8
Layer 1
62
90
70
0
10
0.000000
20
0.000000
66
1
0
VERTEX
8
Layer 1
10
137.380624
20
158.808183
70
0
0
VERTEX
8
Layer 1
10
137.255212
20
158.831995
70
0
0
SEQEND
8
Layer 1
0
POLYLINE
8
Layer 1
62
90
70
0
10
0.000000
20
0.000000
66
1
0
VERTEX
8
Layer 1
10
137.255212
20
158.831995
70
0
0
VERTEX
8
Layer 1
10
136.829763
20
158.908724
70
0
0
SEQEND
8
Layer 1
0
POLYLINE
8
Layer 1
62
90
70
0
10
0.000000
20
0.000000
66
1
0
VERTEX
8
Layer 1
10
136.829763
20
158.908724
70
0
0
VERTEX
8
Layer 1
10
136.619948
20
158.945766
70
0
0
SEQEND
8
Layer 1
0
POLYLINE
8
Layer 1
62
90
70
0
10
0.000000
20
0.000000
66
1
0
VERTEX
8
Layer 1
10
136.619948
20
158.945766
70
0
0
VERTEX
8
Layer 1
10
136.302449
20
159.001328
70
0
0
SEQEND
8
Layer 1
0
POLYLINE
8
Layer 1
62
90
70
0
10
0.000000
20
0.000000
66
1
0
VERTEX
8
Layer 1
10
136.302449
20
159.001328
70
0
0
VERTEX
8
Layer 1
10
135.883614
20
159.075412
70
0
0
SEQEND
8
Layer 1
0
POLYLINE
8
Layer 1
62
90
70
0
10
0.000000
20
0.000000
66
1
0
VERTEX
8
Layer 1
10
135.883614
20
159.075412
70
0
0
VERTEX
8
Layer 1
10
135.748412
20
159.099224
70
0
0
SEQEND
8
Layer 1
0
POLYLINE
8
Layer 1
62
90
70
0
10
0.000000
20
0.000000
66
1
0
VERTEX
8
Layer 1
10
135.748412
20
159.099224
70
0
0
VERTEX
8
Layer 1
10
133.946337
20
159.424661
70
0
0
SEQEND
8
Layer 1
0
POLYLINE
8
Layer 1
62
90
70
0
10
0.000000
20
0.000000
66
1
0
VERTEX
8
Layer 1
10
133.946337
20
159.424661
70
0
0
VERTEX
8
Layer 1
10
132.730843
20
159.649557
70
0
0
SEQEND
8
Layer 1
0
POLYLINE
8
Layer 1
62
90
70
0
10
0.000000
20
0.000000
66
1
0
VERTEX
8
Layer 1
10
132.730843
20
159.649557
70
0
0
VERTEX
8
Layer 1
10
130.782189
20
160.019973
70
0
0
SEQEND
8
Layer 1
0
POLYLINE
8
Layer 1
62
90
70
0
10
0.000000
20
0.000000
66
1
0
VERTEX
8
Layer 1
10
130.782189
20
160.019973
70
0
0
VERTEX
8
Layer 1
10
126.716077
20
160.819013
70
0
0
SEQEND
8
Layer 1
0
POLYLINE
8
Layer 1
62
90
70
0
10
0.000000
20
0.000000
66
1
0
VERTEX
8
Layer 1
10
126.716077
20
160.819013
70
0
0
VERTEX
8
Layer 1
10
115.182640
20
163.060031
70
0
0
SEQEND
8
Layer 1
0
POLYLINE
8
Layer 1
62
90
70
0
10
0.000000
20
0.000000
66
1
0
VERTEX
8
Layer 1
10
115.182640
20
163.060031
70
0
0
VERTEX
8
Layer 1
10
114.942398
20
163.105011
70
0
0
SEQEND
8
Layer 1
0
POLYLINE
8
Layer 1
62
90
70
0
10
0.000000
20
0.000000
66
1
0
VERTEX
8
Layer 1
10
114.942380
20
163.104413
70
0
0
VERTEX
8
Layer 1
10
108.096533
20
164.192922
70
0
0
VERTEX
8
Layer 1
10
101.213999
20
165.018271
70
0
0
SEQEND
8
Layer 1
0
POLYLINE
8
Layer 1
62
90
70
0
10
0.000000
20
0.000000
66
1
0
VERTEX
8
Layer 1
10
101.214007
20
165.017946
70
0
0
VERTEX
8
Layer 1
10
94.045818
20
165.462445
70
0
0
SEQEND
8
Layer 1
0
POLYLINE
8
Layer 1
62
90
70
0
10
0.000000
20
0.000000
66
1
0
VERTEX
8
Layer 1
10
94.045810
20
165.462181
70
0
0
VERTEX
8
Layer 1
10
89.545313
20
165.449886
70
0
0
VERTEX
8
Layer 1
10
85.051661
20
165.201466
70
0
0
SEQEND
8
Layer 1
0
POLYLINE
8
Layer 1
62
90
70
0
10
0.000000
20
0.000000
66
1
0
VERTEX
8
Layer 1
10
85.051661
20
165.201466
70
0
0
VERTEX
8
Layer 1
10
81.231849
20
164.788442
70
0
0
VERTEX
8
Layer 1
10
77.438949
20
164.175693
70
0
0
SEQEND
8
Layer 1
0
POLYLINE
8
Layer 1
62
90
70
0
10
0.000000
20
0.000000
66
1
0
VERTEX
8
Layer 1
10
77.438951
20
164.176572
70
0
0
VERTEX
8
Layer 1
10
73.167680
20
163.202906
70
0
0
SEQEND
8
Layer 1
0
POLYLINE
8
Layer 1
62
90
70
0
10
0.000000
20
0.000000
66
1
0
VERTEX
8
Layer 1
10
73.167680
20
163.202906
70
0
0
VERTEX
8
Layer 1
10
70.555134
20
162.398574
70
0
0
SEQEND
8
Layer 1
0
POLYLINE
8
Layer 1
62
90
70
0
10
0.000000
20
0.000000
66
1
0
VERTEX
8
Layer 1
10
70.555134
20
162.398574
70
0
0
VERTEX
8
Layer 1
10
68.832725
20
161.726533
70
0
0
SEQEND
8
Layer 1
0
POLYLINE
8
Layer 1
62
90
70
0
10
0.000000
20
0.000000
66
1
0
VERTEX
8
Layer 1
10
68.832725
20
161.726533
70
0
0
VERTEX
8
Layer 1
10
67.765054
20
161.223825
70
0
0
SEQEND
8
Layer 1
0
POLYLINE
8
Layer 1
62
90
70
0
10
0.000000
20
0.000000
66
1
0
VERTEX
8
Layer 1
10
67.765054
20
161.223825
70
0
0
VERTEX
8
Layer 1
10
66.993477
20
160.797847
70
0
0
SEQEND
8
Layer 1
0
POLYLINE
8
Layer 1
62
90
70
0
10
0.000000
20
0.000000
66
1
0
VERTEX
8
Layer 1
10
66.993477
20
160.797847
70
0
0
VERTEX
8
Layer 1
10
66.513338
20
160.493576
70
0
0
SEQEND
8
Layer 1
0
POLYLINE
8
Layer 1
62
90
70
0
10
0.000000
20
0.000000
66
1
0
VERTEX
8
Layer 1
10
66.513338
20
160.493576
70
0
0
VERTEX
8
Layer 1
10
65.296256
20
159.300307
70
0
0
SEQEND
8
Layer 1
0
POLYLINE
8
Layer 1
62
90
70
0
10
0.000000
20
0.000000
66
1
0
VERTEX
8
Layer 1
10
65.129066
20
158.937828
70
0
0
VERTEX
8
Layer 1
10
65.108296
20
158.686475
70
0
0
SEQEND
8
Layer 1
0
POLYLINE
8
Layer 1
62
90
70
0
10
0.000000
20
0.000000
66
1
0
VERTEX
8
Layer 1
10
65.108296
20
158.686475
70
0
0
VERTEX
8
Layer 1
10
65.236831
20
158.194350
70
0
0
SEQEND
8
Layer 1
0
POLYLINE
8
Layer 1
62
90
70
0
10
0.000000
20
0.000000
66
1
0
VERTEX
8
Layer 1
10
65.236831
20
158.194350
70
0
0
VERTEX
8
Layer 1
10
65.446275
20
157.879496
70
0
0
SEQEND
8
Layer 1
0
POLYLINE
8
Layer 1
62
90
70
0
10
0.000000
20
0.000000
66
1
0
VERTEX
8
Layer 1
10
65.446275
20
157.879496
70
0
0
VERTEX
8
Layer 1
10
66.244495
20
157.260372
70
0
0
SEQEND
8
Layer 1
0
POLYLINE
8
Layer 1
62
90
70
0
10
0.000000
20
0.000000
66
1
0
VERTEX
8
Layer 1
10
66.244495
20
157.260372
70
0
0
VERTEX
8
Layer 1
10
66.675712
20
157.053997
70
0
0
SEQEND
8
Layer 1
0
POLYLINE
8
Layer 1
62
90
70
0
10
0.000000
20
0.000000
66
1
0
VERTEX
8
Layer 1
10
66.675712
20
157.053997
70
0
0
VERTEX
8
Layer 1
10
67.952855
20
156.580394
70
0
0
SEQEND
8
Layer 1
0
POLYLINE
8
Layer 1
62
90
70
0
10
0.000000
20
0.000000
66
1
0
VERTEX
8
Layer 1
10
67.952855
20
156.580394
70
0
0
VERTEX
8
Layer 1
10
70.082589
20
156.032707
70
0
0
SEQEND
8
Layer 1
0
POLYLINE
8
Layer 1
62
90
70
0
10
0.000000
20
0.000000
66
1
0
VERTEX
8
Layer 1
10
70.082594
20
156.033257
70
0
0
VERTEX
8
Layer 1
10
74.254221
20
155.325213
70
0
0
VERTEX
8
Layer 1
10
78.458787
20
154.850431
70
0
0
SEQEND
8
Layer 1
0
POLYLINE
8
Layer 1
62
90
70
0
10
0.000000
20
0.000000
66
1
0
VERTEX
8
Layer 1
10
78.458787
20
154.850021
70
0
0
VERTEX
8
Layer 1
10
87.595444
20
154.458438
70
0
0
SEQEND
8
Layer 1
0
POLYLINE
8
Layer 1
62
90
70
0
10
0.000000
20
0.000000
66
1
0
VERTEX
8
Layer 1
10
87.595441
20
154.459626
70
0
0
VERTEX
8
Layer 1
10
93.213673
20
154.572208
70
0
0
VERTEX
8
Layer 1
10
98.822274
20
154.919776
70
0
0
SEQEND
8
Layer 1
0
POLYLINE
8
Layer 1
62
90
70
0
10
0.000000
20
0.000000
66
1
0
VERTEX
8
Layer 1
10
98.822282
20
154.918813
70
0
0
VERTEX
8
Layer 1
10
102.391772
20
155.254833
70
0
0
SEQEND
8
Layer 1
0
POLYLINE
8
Layer 1
62
90
70
0
10
0.000000
20
0.000000
66
1
0
VERTEX
8
Layer 1
10
102.391772
20
155.254833
70
0
0
VERTEX
8
Layer 1
10
110.040205
20
156.135894
70
0
0
SEQEND
8
Layer 1
0
POLYLINE
8
Layer 1
62
90
70
0
10
0.000000
20
0.000000
66
1
0
VERTEX
8
Layer 1
10
110.040205
20
156.135894
70
0
0
VERTEX
8
Layer 1
10
111.045620
20
156.262894
70
0
0
SEQEND
8
Layer 1
0
POLYLINE
8
Layer 1
62
90
70
0
10
0.000000
20
0.000000
66
1
0
VERTEX
8
Layer 1
10
111.045620
20
156.262894
70
0
0
VERTEX
8
Layer 1
10
112.890293
20
156.498373
70
0
0
SEQEND
8
Layer 1
0
POLYLINE
8
Layer 1
62
90
70
0
10
0.000000
20
0.000000
66
1
0
VERTEX
8
Layer 1
10
112.890293
20
156.498373
70
0
0
VERTEX
8
Layer 1
10
113.237690
20
156.545998
70
0
0
SEQEND
8
Layer 1
0
POLYLINE
8
Layer 1
62
90
70
0
10
0.000000
20
0.000000
66
1
0
VERTEX
8
Layer 1
10
113.237690
20
156.545998
70
0
0
VERTEX
8
Layer 1
10
114.293906
20
156.680935
70
0
0
SEQEND
8
Layer 1
0
POLYLINE
8
Layer 1
62
90
70
0
10
0.000000
20
0.000000
66
1
0
VERTEX
8
Layer 1
10
114.293906
20
156.680935
70
0
0
VERTEX
8
Layer 1
10
115.632166
20
156.855560
70
0
0
SEQEND
8
Layer 1
0
POLYLINE
8
Layer 1
62
90
70
0
10
0.000000
20
0.000000
66
1
0
VERTEX
8
Layer 1
10
115.632166
20
156.855560
70
0
0
VERTEX
8
Layer 1
10
115.682702
20
156.863498
70
0
0
SEQEND
8
Layer 1
0
POLYLINE
8
Layer 1
62
90
70
0
10
0.000000
20
0.000000
66
1
0
VERTEX
8
Layer 1
10
115.682702
20
156.863498
70
0
0
VERTEX
8
Layer 1
10
119.742199
20
157.379434
70
0
0
SEQEND
8
Layer 1
0
POLYLINE
8
Layer 1
62
90
70
0
10
0.000000
20
0.000000
66
1
0
VERTEX
8
Layer 1
10
119.742199
20
157.379434
70
0
0
VERTEX
8
Layer 1
10
121.078078
20
157.540830
70
0
0
SEQEND
8
Layer 1
0
POLYLINE
8
Layer 1
62
90
70
0
10
0.000000
20
0.000000
66
1
0
VERTEX
8
Layer 1
10
121.078078
20
157.540830
70
0
0
VERTEX
8
Layer 1
10
128.813162
20
158.292246
70
0
0
SEQEND
8
Layer 1
0
POLYLINE
8
Layer 1
62
90
70
0
10
0.000000
20
0.000000
66
1
0
VERTEX
8
Layer 1
10
128.813162
20
158.292246
70
0
0
VERTEX
8
Layer 1
10
131.891321
20
158.458933
70
0
0
SEQEND
8
Layer 1
0
POLYLINE
8
Layer 1
62
90
70
0
10
0.000000
20
0.000000
66
1
0
VERTEX
8
Layer 1
10
131.891321
20
158.458933
70
0
0
VERTEX
8
Layer 1
10
134.780832
20
158.482746
70
0
0
SEQEND
8
Layer 1
0
POLYLINE
8
Layer 1
62
90
70
0
10
0.000000
20
0.000000
66
1
0
VERTEX
8
Layer 1
10
134.780832
20
158.482746
70
0
0
VERTEX
8
Layer 1
10
136.342401
20
158.416600
70
0
0
SEQEND
8
Layer 1
0
POLYLINE
8
Layer 1
62
90
70
0
10
0.000000
20
0.000000
66
1
0
VERTEX
8
Layer 1
10
136.342401
20
158.416600
70
0
0
VERTEX
8
Layer 1
10
138.078330
20
158.212871
70
0
0
SEQEND
8
Layer 1
 0 
ENDSEC
 0 
EOF