  0
SECTION
  2
HEADER
  9
$ACADVER
  1
AC1032
  9
$ACADMAINTVER
 90
4
  9
$DWGCODEPAGE
  3
ANSI_1252
  9
$LASTSAVEDBY
  1
ezdxf
  9
$REQUIREDVERSIONS
160
0
  9
$INSBASE
 10
0.0
 20
0.0
 30
0.0
  9
$EXTMIN
 10
1e+20
 20
1e+20
 30
1e+20
  9
$EXTMAX
 10
-1e+20
 20
-1e+20
 30
-1e+20
  9
$LIMMIN
 10
0.0
 20
0.0
  9
$LIMMAX
 10
420.0
 20
297.0
  9
$ORTHOMODE
 70
0
  9
$REGENMODE
 70
1
  9
$FILLMODE
 70
1
  9
$QTEXTMODE
 70
0
  9
$MIRRTEXT
 70
1
  9
$LTSCALE
 40
1.0
  9
$ATTMODE
 70
1
  9
$TEXTSIZE
 40
2.5
  9
$TRACEWID
 40
1.0
  9
$TEXTSTYLE
  7
Standard
  9
$CLAYER
  8
0
  9
$CELTYPE
  6
ByLayer
  9
$CECOLOR
 62
256
  9
$CELTSCALE
 40
1.0
  9
$DISPSILH
 70
0
  9
$DIMSCALE
 40
1.0
  9
$DIMASZ
 40
2.5
  9
$DIMEXO
 40
0.625
  9
$DIMDLI
 40
3.75
  9
$DIMRND
 40
0.0
  9
$DIMDLE
 40
0.0
  9
$DIMEXE
 40
1.25
  9
$DIMTP
 40
0.0
  9
$DIMTM
 40
0.0
  9
$DIMTXT
 40
2.5
  9
$DIMCEN
 40
2.5
  9
$DIMTSZ
 40
0.0
  9
$DIMTOL
 70
0
  9
$DIMLIM
 70
0
  9
$DIMTIH
 70
0
  9
$DIMTOH
 70
0
  9
$DIMSE1
 70
0
  9
$DIMSE2
 70
0
  9
$DIMTAD
 70
1
  9
$DIMZIN
 70
8
  9
$DIMBLK
  1

  9
$DIMASO
 70
1
  9
$DIMSHO
 70
1
  9
$DIMPOST
  1

  9
$DIMAPOST
  1

  9
$DIMALT
 70
0
  9
$DIMALTD
 70
3
  9
$DIMALTF
 40
0.03937007874
  9
$DIMLFAC
 40
1.0
  9
$DIMTOFL
 70
1
  9
$DIMTVP
 40
0.0
  9
$DIMTIX
 70
0
  9
$DIMSOXD
 70
0
  9
$DIMSAH
 70
0
  9
$DIMBLK1
  1

  9
$DIMBLK2
  1

  9
$DIMSTYLE
  2
ISO-25
  9
$DIMCLRD
 70
0
  9
$DIMCLRE
 70
0
  9
$DIMCLRT
 70
0
  9
$DIMTFAC
 40
1.0
  9
$DIMGAP
 40
0.625
  9
$DIMJUST
 70
0
  9
$DIMSD1
 70
0
  9
$DIMSD2
 70
0
  9
$DIMTOLJ
 70
0
  9
$DIMTZIN
 70
8
  9
$DIMALTZ
 70
0
  9
$DIMALTTZ
 70
0
  9
$DIMUPT
 70
0
  9
$DIMDEC
 70
2
  9
$DIMTDEC
 70
2
  9
$DIMALTU
 70
2
  9
$DIMALTTD
 70
3
  9
$DIMTXSTY
  7
Standard
  9
$DIMAUNIT
 70
0
  9
$DIMADEC
 70
0
  9
$DIMALTRND
 40
0.0
  9
$DIMAZIN
 70
0
  9
$DIMDSEP
 70
44
  9
$DIMATFIT
 70
3
  9
$DIMFRAC
 70
0
  9
$DIMLDRBLK
  1

  9
$DIMLUNIT
 70
2
  9
$DIMLWD
 70
-2
  9
$DIMLWE
 70
-2
  9
$DIMTMOVE
 70
0
  9
$DIMFXL
 40
1.0
  9
$DIMFXLON
 70
0
  9
$DIMJOGANG
 40
0.785398163397
  9
$DIMTFILL
 70
0
  9
$DIMTFILLCLR
 70
0
  9
$DIMARCSYM
 70
0
  9
$DIMLTYPE
  6

  9
$DIMLTEX1
  6

  9
$DIMLTEX2
  6

  9
$DIMTXTDIRECTION
 70
0
  9
$LUNITS
 70
2
  9
$LUPREC
 70
4
  9
$SKETCHINC
 40
1.0
  9
$FILLETRAD
 40
10.0
  9
$AUNITS
 70
0
  9
$AUPREC
 70
2
  9
$MENU
  1
.
  9
$ELEVATION
 40
0.0
  9
$PELEVATION
 40
0.0
  9
$THICKNESS
 40
0.0
  9
$LIMCHECK
 70
0
  9
$CHAMFERA
 40
0.0
  9
$CHAMFERB
 40
0.0
  9
$CHAMFERC
 40
0.0
  9
$CHAMFERD
 40
0.0
  9
$SKPOLY
 70
0
  9
$TDCREATE
 40
2460908.0869675926
  9
$TDUCREATE
 40
2458532.153996898
  9
$TDUPDATE
 40
2460908.0869675926
  9
$TDUUPDATE
 40
2458532.1544311
  9
$TDINDWG
 40
0.0
  9
$TDUSRTIMER
 40
0.0
  9
$USRTIMER
 70
1
  9
$ANGBASE
 50
0.0
  9
$ANGDIR
 70
0
  9
$PDMODE
 70
0
  9
$PDSIZE
 40
0.0
  9
$PLINEWID
 40
0.0
  9
$SPLFRAME
 70
0
  9
$SPLINETYPE
 70
6
  9
$SPLINESEGS
 70
8
  9
$HANDSEED
  5
33
  9
$SURFTAB1
 70
6
  9
$SURFTAB2
 70
6
  9
$SURFTYPE
 70
6
  9
$SURFU
 70
6
  9
$SURFV
 70
6
  9
$UCSBASE
  2

  9
$UCSNAME
  2

  9
$UCSORG
 10
0.0
 20
0.0
 30
0.0
  9
$UCSXDIR
 10
1.0
 20
0.0
 30
0.0
  9
$UCSYDIR
 10
0.0
 20
1.0
 30
0.0
  9
$UCSORTHOREF
  2

  9
$UCSORTHOVIEW
 70
0
  9
$UCSORGTOP
 10
0.0
 20
0.0
 30
0.0
  9
$UCSORGBOTTOM
 10
0.0
 20
0.0
 30
0.0
  9
$UCSORGLEFT
 10
0.0
 20
0.0
 30
0.0
  9
$UCSORGRIGHT
 10
0.0
 20
0.0
 30
0.0
  9
$UCSORGFRONT
 10
0.0
 20
0.0
 30
0.0
  9
$UCSORGBACK
 10
0.0
 20
0.0
 30
0.0
  9
$PUCSBASE
  2

  9
$PUCSNAME
  2

  9
$PUCSORG
 10
0.0
 20
0.0
 30
0.0
  9
$PUCSXDIR
 10
1.0
 20
0.0
 30
0.0
  9
$PUCSYDIR
 10
0.0
 20
1.0
 30
0.0
  9
$PUCSORTHOREF
  2

  9
$PUCSORTHOVIEW
 70
0
  9
$PUCSORGTOP
 10
0.0
 20
0.0
 30
0.0
  9
$PUCSORGBOTTOM
 10
0.0
 20
0.0
 30
0.0
  9
$PUCSORGLEFT
 10
0.0
 20
0.0
 30
0.0
  9
$PUCSORGRIGHT
 10
0.0
 20
0.0
 30
0.0
  9
$PUCSORGFRONT
 10
0.0
 20
0.0
 30
0.0
  9
$PUCSORGBACK
 10
0.0
 20
0.0
 30
0.0
  9
$USERI1
 70
0
  9
$USERI2
 70
0
  9
$USERI3
 70
0
  9
$USERI4
 70
0
  9
$USERI5
 70
0
  9
$USERR1
 40
0.0
  9
$USERR2
 40
0.0
  9
$USERR3
 40
0.0
  9
$USERR4
 40
0.0
  9
$USERR5
 40
0.0
  9
$WORLDVIEW
 70
1
  9
$SHADEDGE
 70
3
  9
$SHADEDIF
 70
70
  9
$TILEMODE
 70
1
  9
$MAXACTVP
 70
64
  9
$PINSBASE
 10
0.0
 20
0.0
 30
0.0
  9
$PLIMCHECK
 70
0
  9
$PEXTMIN
 10
1e+20
 20
1e+20
 30
1e+20
  9
$PEXTMAX
 10
-1e+20
 20
-1e+20
 30
-1e+20
  9
$PLIMMIN
 10
0.0
 20
0.0
  9
$PLIMMAX
 10
420.0
 20
297.0
  9
$UNITMODE
 70
0
  9
$VISRETAIN
 70
1
  9
$PLINEGEN
 70
0
  9
$PSLTSCALE
 70
1
  9
$TREEDEPTH
 70
3020
  9
$CMLSTYLE
  2
Standard
  9
$CMLJUST
 70
0
  9
$CMLSCALE
 40
20.0
  9
$PROXYGRAPHICS
 70
1
  9
$MEASUREMENT
 70
1
  9
$CELWEIGHT
370
-1
  9
$ENDCAPS
280
0
  9
$JOINSTYLE
280
0
  9
$LWDISPLAY
290
0
  9
$INSUNITS
 70
6
  9
$HYPERLINKBASE
  1

  9
$STYLESHEET
  1

  9
$XEDIT
290
1
  9
$CEPSNTYPE
380
0
  9
$PSTYLEMODE
290
1
  9
$FINGERPRINTGUID
  2
{08A2ED6C-63DA-41D0-AA6C-FA11882E2163}
  9
$VERSIONGUID
  2
{1BCA3502-ABAA-4ADA-BF67-B6517DF3A919}
  9
$EXTNAMES
290
1
  9
$PSVPSCALE
 40
0.0
  9
$OLESTARTUP
290
0
  9
$SORTENTS
280
127
  9
$INDEXCTL
280
0
  9
$HIDETEXT
280
1
  9
$XCLIPFRAME
280
1
  9
$HALOGAP
280
0
  9
$OBSCOLOR
 70
257
  9
$OBSLTYPE
280
0
  9
$INTERSECTIONDISPLAY
280
0
  9
$INTERSECTIONCOLOR
 70
257
  9
$DIMASSOC
280
2
  9
$PROJECTNAME
  1

  9
$CAMERADISPLAY
290
0
  9
$LENSLENGTH
 40
50.0
  9
$CAMERAHEIGHT
 40
0.0
  9
$STEPSPERSEC
 40
24.0
  9
$STEPSIZE
 40
100.0
  9
$3DDWFPREC
 40
2.0
  9
$PSOLWIDTH
 40
0.005
  9
$PSOLHEIGHT
 40
0.08
  9
$LOFTANG1
 40
1.570796326795
  9
$LOFTANG2
 40
1.570796326795
  9
$LOFTMAG1
 40
0.0
  9
$LOFTMAG2
 40
0.0
  9
$LOFTPARAM
 70
7
  9
$LOFTNORMALS
280
1
  9
$LATITUDE
 40
37.795
  9
$LONGITUDE
 40
-122.394
  9
$NORTHDIRECTION
 40
0.0
  9
$TIMEZONE
 70
-8000
  9
$LIGHTGLYPHDISPLAY
280
1
  9
$TILEMODELIGHTSYNCH
280
1
  9
$CMATERIAL
347
20
  9
$SOLIDHIST
280
0
  9
$SHOWHIST
280
1
  9
$DWFFRAME
280
2
  9
$DGNFRAME
280
2
  9
$REALWORLDSCALE
290
1
  9
$INTERFERECOLOR
 62
256
  9
$CSHADOW
280
0
  9
$SHADOWPLANELOCATION
 40
0.0
  0
ENDSEC
  0
SECTION
  2
CLASSES
  0
CLASS
  1
ACDBDICTIONARYWDFLT
  2
AcDbDictionaryWithDefault
  3
ObjectDBX Classes
 90
0
 91
0
280
0
281
0
  0
CLASS
  1
SUN
  2
AcDbSun
  3
SCENEOE
 90
1153
 91
0
280
0
281
0
  0
CLASS
  1
VISUALSTYLE
  2
AcDbVisualStyle
  3
ObjectDBX Classes
 90
4095
 91
0
280
0
281
0
  0
CLASS
  1
MATERIAL
  2
AcDbMaterial
  3
ObjectDBX Classes
 90
1153
 91
0
280
0
281
0
  0
CLASS
  1
SCALE
  2
AcDbScale
  3
ObjectDBX Classes
 90
1153
 91
0
280
0
281
0
  0
CLASS
  1
TABLESTYLE
  2
AcDbTableStyle
  3
ObjectDBX Classes
 90
4095
 91
0
280
0
281
0
  0
CLASS
  1
MLEADERSTYLE
  2
AcDbMLeaderStyle
  3
ACDB_MLEADERSTYLE_CLASS
 90
4095
 91
0
280
0
281
0
  0
CLASS
  1
DICTIONARYVAR
  2
AcDbDictionaryVar
  3
ObjectDBX Classes
 90
0
 91
0
280
0
281
0
  0
CLASS
  1
CELLSTYLEMAP
  2
AcDbCellStyleMap
  3
ObjectDBX Classes
 90
1152
 91
0
280
0
281
0
  0
CLASS
  1
MENTALRAYRENDERSETTINGS
  2
AcDbMentalRayRenderSettings
  3
SCENEOE
 90
1024
 91
0
280
0
281
0
  0
CLASS
  1
ACDBDETAILVIEWSTYLE
  2
AcDbDetailViewStyle
  3
ObjectDBX Classes
 90
1025
 91
0
280
0
281
0
  0
CLASS
  1
ACDBSECTIONVIEWSTYLE
  2
AcDbSectionViewStyle
  3
ObjectDBX Classes
 90
1025
 91
0
280
0
281
0
  0
CLASS
  1
RASTERVARIABLES
  2
AcDbRasterVariables
  3
ISM
 90
0
 91
0
280
0
281
0
  0
CLASS
  1
LAYOUT
  2
AcDbLayout
  3
ObjectDBX Classes
 90
0
 91
0
280
0
281
0
  0
CLASS
  1
ACDBPLACEHOLDER
  2
AcDbPlaceHolder
  3
ObjectDBX Classes
 90
0
 91
0
280
0
281
0
  0
ENDSEC
  0
SECTION
  2
TABLES
  0
TABLE
  2
VPORT
  5
8
330
0
100
AcDbSymbolTable
 70
1
  0
VPORT
  5
23
330
8
100
AcDbSymbolTableRecord
100
AcDbViewportTableRecord
  2
*Active
 70
0
 10
0.0
 20
0.0
 11
1.0
 21
1.0
 12
0.0
 22
0.0
 13
0.0
 23
0.0
 14
0.5
 24
0.5
 15
0.5
 25
0.5
 16
0.0
 26
0.0
 36
1.0
 17
0.0
 27
0.0
 37
0.0
 40
1000.0
 41
1.34
 42
50.0
 43
0.0
 44
0.0
 50
0.0
 51
0.0
 71
0
 72
1000
 73
1
 74
3
 75
0
 76
0
 77
0
 78
0
281
0
 65
0
146
0.0
  0
ENDTAB
  0
TABLE
  2
LTYPE
  5
2
330
0
100
AcDbSymbolTable
 70
3
  0
LTYPE
  5
24
330
2
100
AcDbSymbolTableRecord
100
AcDbLinetypeTableRecord
  2
ByBlock
 70
0
  3

 72
65
 73
0
 40
0.0
  0
LTYPE
  5
25
330
2
100
AcDbSymbolTableRecord
100
AcDbLinetypeTableRecord
  2
ByLayer
 70
0
  3

 72
65
 73
0
 40
0.0
  0
LTYPE
  5
26
330
2
100
AcDbSymbolTableRecord
100
AcDbLinetypeTableRecord
  2
Continuous
 70
0
  3

 72
65
 73
0
 40
0.0
  0
ENDTAB
  0
TABLE
  2
LAYER
  5
1
330
0
100
AcDbSymbolTable
 70
2
  0
LAYER
  5
27
330
1
100
AcDbSymbolTableRecord
100
AcDbLayerTableRecord
  2
0
 70
0
 62
7
  6
Continuous
370
-3
390
13
347
21
  0
LAYER
  5
28
330
1
100
AcDbSymbolTableRecord
100
AcDbLayerTableRecord
  2
Defpoints
 70
0
 62
7
  6
Continuous
290
0
370
-3
390
13
347
21
  0
ENDTAB
  0
TABLE
  2
STYLE
  5
5
330
0
100
AcDbSymbolTable
 70
1
  0
STYLE
  5
29
330
5
100
AcDbSymbolTableRecord
100
AcDbTextStyleTableRecord
  2
Standard
 70
0
 40
0.0
 41
1.0
 50
0.0
 71
0
 42
2.5
  3
txt
  4

  0
ENDTAB
  0
TABLE
  2
VIEW
  5
7
330
0
100
AcDbSymbolTable
 70
0
  0
ENDTAB
  0
TABLE
  2
UCS
  5
6
330
0
100
AcDbSymbolTable
 70
0
  0
ENDTAB
  0
TABLE
  2
APPID
  5
3
330
0
100
AcDbSymbolTable
 70
3
  0
APPID
  5
2A
330
3
100
AcDbSymbolTableRecord
100
AcDbRegAppTableRecord
  2
ACAD
 70
0
  0
APPID
  5
30
330
3
100
AcDbSymbolTableRecord
100
AcDbRegAppTableRecord
  2
HATCHBACKGROUNDCOLOR
 70
0
  0
APPID
  5
31
330
3
100
AcDbSymbolTableRecord
100
AcDbRegAppTableRecord
  2
EZDXF
 70
0
  0
ENDTAB
  0
TABLE
  2
DIMSTYLE
  5
4
330
0
100
AcDbSymbolTable
 70
1
100
AcDbDimStyleTable
  0
DIMSTYLE
105
2B
330
4
100
AcDbSymbolTableRecord
100
AcDbDimStyleTableRecord
  2
Standard
 70
0
 40
1.0
 41
2.5
 42
0.625
 43
3.75
 44
1.25
 45
0.0
 46
0.0
 47
0.0
 48
0.0
 49
2.5
140
2.5
141
2.5
142
0.0
143
0.03937007874
144
1.0
145
0.0
146
1.0
147
0.625
148
0.0
 69
0
 70
0
 71
0
 72
0
 73
0
 74
0
 75
0
 76
0
 77
1
 78
8
 79
3
170
0
171
3
172
1
173
0
174
0
175
0
176
0
177
0
178
0
179
2
271
2
272
2
273
2
274
3
275
0
276
0
277
2
278
44
279
0
280
0
281
0
282
0
283
0
284
8
285
0
286
0
288
0
289
3
290
0
371
-2
372
-2
  0
ENDTAB
  0
TABLE
  2
BLOCK_RECORD
  5
9
330
0
100
AcDbSymbolTable
 70
2
  0
BLOCK_RECORD
  5
17
330
9
100
AcDbSymbolTableRecord
100
AcDbBlockTableRecord
  2
*Model_Space
340
1A
 70
0
280
1
281
0
  0
BLOCK_RECORD
  5
1B
330
9
100
AcDbSymbolTableRecord
100
AcDbBlockTableRecord
  2
*Paper_Space
340
1E
 70
0
280
1
281
0
  0
ENDTAB
  0
ENDSEC
  0
SECTION
  2
BLOCKS
  0
BLOCK
  5
18
330
17
100
AcDbEntity
  8
0
100
AcDbBlockBegin
  2
*Model_Space
 70
0
 10
0.0
 20
0.0
 30
0.0
  3
*Model_Space
  1

  0
ENDBLK
  5
19
330
17
100
AcDbEntity
  8
0
100
AcDbBlockEnd
  0
BLOCK
  5
1C
330
1B
100
AcDbEntity
  8
0
100
AcDbBlockBegin
  2
*Paper_Space
 70
0
 10
0.0
 20
0.0
 30
0.0
  3
*Paper_Space
  1

  0
ENDBLK
  5
1D
330
1B
100
AcDbEntity
  8
0
100
AcDbBlockEnd
  0
ENDSEC
  0
SECTION
  2
ENTITIES
  0
LWPOLYLINE
  5
2F
330
17
100
AcDbEntity
  8
0
100
AcDbPolyline
 90
721
 70
1
 10
43.9597509291039
 20
2.5487244760353254
 10
43.95847768083676
 20
2.5491114797539214
 10
43.95466554416809
 20
2.550141267772606
 10
43.94832973536343
 20
2.551551393817177
 10
43.93939703472148
 20
2.5534692769583534
 10
43.928010077578456
 20
2.5557056906232463
 10
43.914099448299446
 20
2.5583224423140254
 10
43.89760333938228
 20
2.5612501163957573
 10
43.878652973964044
 20
2.564496321001206
 10
43.8571865445426
 20
2.5679916404954395
 10
43.8331308314166
 20
2.5718634939491762
 10
43.80662466585593
 20
2.5759882663580793
 10
43.77760243629202
 20
2.580362153655766
 10
43.74606033865852
 20
2.5850507674107877
 10
43.71200598108816
 20
2.589922884486042
 10
43.67543175544819
 20
2.5951097280186315
 10
43.63640707737355
 20
2.600549490506387
 10
43.594866335295684
 20
2.606238367882927
 10
43.55080572514821
 20
2.612241971716802
 10
43.504298466632434
 20
2.618432882937292
 10
43.45527134004705
 20
2.6249385206151166
 10
43.40373195352483
 20
2.6316276616131744
 10
43.349803922070095
 20
2.6386391372013316
 10
43.293294215043595
 20
2.645895923611891
 10
43.23439966715096
 20
2.653409433043999
 10
43.172989055255094
 20
2.6611720573648894
 10
43.10912799092454
 20
2.6691876006409467
 10
43.042816474159345
 20
2.6774560628721704
 10
42.97405070089306
 20
2.686043055627111
 10
42.902830671125734
 20
2.6949485789057688
 10
42.829163992990104
 20
2.7040414095710417
 10
42.75304305835341
 20
2.713452770760031
 10
42.6745372828506
 20
2.7231208549705697
 10
42.59357725084675
 20
2.733107469704825
 10
42.51017057047457
 20
2.7432813918256955
 10
42.424375245169905
 20
2.753777648536665
 10
42.336187470866335
 20
2.764661851406285
 10
42.24561865976304
 20
2.7757371657289025
 10
42.15259559215869
 20
2.7871310105752363
 10
42.05725329525675
 20
2.798785382509501
 10
41.95945674185375
 20
2.810758284967483
 10
41.8593371550868
 20
2.823057326081946
 10
41.756828923387346
 20
2.8356787017865077
 10
41.651997658323936
 20
2.8486262161475517
 10
41.54478155239439
 20
2.8618304535301435
 10
41.43524621716728
 20
2.8752952180006655
 10
41.32331843294128
 20
2.889147928629838
 10
41.20913322691987
 20
2.9033305819818738
 10
41.092624987534506
 20
2.9178393739903914
 10
40.973793714785174
 20
2.93267430465539
 10
40.8526394086719
 20
2.947835373976869
 10
40.729223876696835
 20
2.9633919975897633
 10
40.603485311357815
 20
2.9792747598591394
 10
40.475485520157
 20
2.9955530764199287
 10
40.345228307160795
 20
3.0121613357035826
 10
40.21272128050194
 20
3.028968314572998
 10
40.07802244361622
 20
3.046109040231658
 10
39.941058576802334
 20
3.063710931750284
 10
39.80182968006027
 20
3.081773989128875
 10
39.66041277715775
 20
3.100105181728161
 10
39.516804064028385
 20
3.118770121116693
 10
39.37100354067214
 20
3.1377688072944694
 10
39.22299979488991
 20
3.1572980749671458
 10
39.072811847013575
 20
3.177029866291964
 10
38.920497700478954
 20
3.197099208472412
 10
38.766053551219635
 20
3.217571713077037
 10
38.609409983600706
 20
3.23850918760801
 10
38.450702024825624
 20
3.259853628629544
 10
38.28986786739226
 20
3.2815356205067063
 10
38.12690751130057
 20
3.303555163239495
 10
37.961878959986386
 20
3.326047284031396
 10
37.7947974297152
 20
3.348749536608206
 10
37.62558970078571
 20
3.371789340040643
 10
37.454383192268644
 20
3.3952399140300225
 10
37.281177904163975
 20
3.4191012585763447
 10
37.10591583303596
 20
3.443238346476127
 10
36.92859317481818
 20
3.4677167892979193
 10
36.749341152647744
 20
3.4925441951744847
 10
36.56808654682335
 20
3.517847983176545
 10
36.38484076954415
 20
3.543431318598446
 10
36.19966943237865
 20
3.5692980055065697
 10
36.0125725353269
 20
3.595448043900917
 10
35.823542470256115
 20
3.6220126569185904
 10
35.63257923716629
 20
3.6489918445595877
 10
35.43968664012381
 20
3.676319995255359
 10
35.24499970633218
 20
3.7039391055701194
 10
35.04838340858788
 20
3.731907178939652
 10
34.849903358459486
 20
3.760228019430342
 10
34.649636579714695
 20
3.7887085964029175
 10
34.44751365671857
 20
3.8174107173595484
 10
34.24358878884051
 20
3.8465350210722677
 10
34.037927587649065
 20
3.8760853116074587
 10
33.8304064381399
 20
3.9059227576952553
 10
33.62116797564927
 20
3.9358581327627684
 10
33.410196983911646
 20
3.966153883084203
 10
33.197497266993395
 20
3.996744397091006
 10
32.98306502082815
 20
4.027695286351731
 10
32.76697346511724
 20
4.058879131795656
 10
32.54922259986062
 20
4.090295933422783
 10
32.329746813489784
 20
4.121941887166728
 10
32.10867352507542
 20
4.1538902127288075
 10
31.885937123048997
 20
4.186137106042637
 10
31.661610827111815
 20
4.218555148037502
 10
31.4356946372639
 20
4.251144338713397
 10
31.208254165073768
 20
4.283908482136706
 10
30.979219994906522
 20
4.316909385809598
 10
30.748650130197916
 20
4.350282076935559
 10
30.516490371578566
 20
4.383825916742551
 10
30.282933749687732
 20
4.417617928998272
 10
30.047864257653853
 20
4.4513880592957555
 10
29.811278091410536
 20
4.4852019192035515
 10
29.57329506189573
 20
4.5192639515600765
 10
29.333911365043072
 20
4.553639767933881
 10
29.09300718991459
 20
4.588124925486551
 10
28.850852590917267
 20
4.62260341734651
 10
28.607254537411823
 20
4.656998219746063
 10
28.362332840336208
 20
4.691513775523625
 10
28.116018084055497
 20
4.726211892181365
 10
27.86844529577318
 20
4.761034566283499
 10
27.619560276119838
 20
4.795781159057987
 10
27.36942102853127
 20
4.830586697708319
 10
27.1180199448747
 20
4.865582405371591
 10
26.865376045482048
 20
4.900440224205053
 10
26.61149313441969
 20
4.935094542640154
 10
26.356483414492825
 20
4.96988102665241
 10
26.100219466630726
 20
5.0047264565405065
 10
25.842828709904108
 20
5.03970405200576
 10
25.584333968711288
 20
5.074420143636864
 10
25.324731438985854
 20
5.10894034300237
 10
25.06401351259506
 20
5.143395873239379
 10
24.80216877733976
 20
5.177983569053546
 10
24.53934367262256
 20
5.212448592303428
 10
24.275422191571927
 20
5.246520888582061
 10
24.010589756694326
 20
5.280408704794239
 10
23.744696124520782
 20
5.314432490649959
 10
23.47782212288535
 20
5.348333603941396
 10
23.209982968053556
 20
5.381849598394344
 10
22.941302275029756
 20
5.415119305278672
 10
22.671645016610455
 20
5.448200728030167
 10
22.40113861186638
 20
5.481167086350141
 10
22.129721253295344
 20
5.513948964603666
 10
21.857466160598683
 20
5.546418943720018
 10
21.584438945344942
 20
5.57858082776558
 10
21.310573995965562
 20
5.610430812673972
 10
21.036002535597653
 20
5.641976506577957
 10
20.760593341104112
 20
5.673210301344769
 10
20.484470027489277
 20
5.704271028244278
 10
20.207636398819528
 20
5.73509307570793
 10
19.930111475426767
 20
5.7653483858929695
 10
19.651887649178253
 20
5.795168181936501
 10
19.37309233914468
 20
5.824625683539838
 10
19.093590518122582
 20
5.853778894138769
 10
18.813521017381813
 20
5.882504198728955
 10
18.53288764098877
 20
5.910735985741845
 10
18.25169419300982
 20
5.9384086436088905
 10
17.96993306531221
 20
5.965653395467188
 10
17.687666065398094
 20
5.992539656951677
 10
17.404893193267483
 20
6.0190674280623515
 10
17.121691472688077
 20
6.045043678159945
 10
16.83799909615771
 20
6.070398991609525
 10
16.553885479311298
 20
6.095071560908919
 10
16.26940482151826
 20
6.119262024830165
 10
15.984480099010884
 20
6.14316341401253
 10
15.699250143059059
 20
6.16665211345168
 10
15.413679774625267
 20
6.1891994265328245
 10
15.127746169311235
 20
6.21119902266727
 10
14.84157674618768
 20
6.2327241215563305
 10
14.55511350181881
 20
6.253639695996522
 10
14.268360240270995
 20
6.273880134419294
 10
13.981436772482207
 20
6.293649879663062
 10
13.694281290950272
 20
6.312879516092895
 10
13.406970819442886
 20
6.331376013069522
 10
13.119439746391505
 20
6.34913556652656
 10
12.831815490866843
 20
6.366231396165326
 10
12.54409424880252
 20
6.382729113554368
 10
12.256287432397675
 20
6.398431883988035
 10
11.968391237585932
 20
6.413405319034878
 10
11.680467471869465
 20
6.42771883432983
 10
11.39243911148057
 20
6.441565460512162
 10
11.104460203954638
 20
6.454559136303331
 10
10.81653074929168
 20
6.466699861703341
 10
10.528646943425308
 20
6.478053248280737
 10
10.24080498228913
 20
6.488684907604074
 10
9.953074281518102
 20
6.498533032171183
 10
9.665385425477268
 20
6.507659429484232
 10
9.37787344137012
 20
6.516006096107434
 10
9.090545937329427
 20
6.523441808903687
 10
8.803399109288808
 20
6.530032179441545
 10
8.516429153181871
 20
6.535842819289554
 10
8.229639873075007
 20
6.540808116879165
 10
7.943170100238076
 20
6.544804457206045
 10
7.656946614969767
 20
6.547959259340907
 10
7.371027420705866
 20
6.550407550487237
 10
7.085365926209732
 20
6.5518174687359005
 10
6.800085746485699
 20
6.552327845356761
 10
6.515175469334628
 20
6.552135515055472
 10
6.23058089538711
 20
6.55103983906
 10
5.9464408559130115
 20
6.548917202366007
 10
5.662747742779571
 20
6.545898828110593
 10
5.379443552550992
 20
6.541849689090275
 10
5.096651900231623
 20
6.53690861657492
 10
4.814314782385677
 20
6.530940583361043
 10
4.532559618083866
 20
6.524018809149961
 10
4.251243771989947
 20
6.516332520514561
 10
3.9705060753737884
 20
6.507758102450504
 10
3.6903617445009136
 20
6.49803310868359
 10
3.410806975304938
 20
6.4872231507823646
 10
3.131895967155275
 20
6.475528867518867
 10
2.8536325241183036
 20
6.462884647324546
 10
2.576020450260398
 20
6.44922487863085
 10
2.2991253571501233
 20
6.4345533655041605
 10
2.022874025086154
 20
6.418997527015199
 10
1.7473244575042763
 20
6.402692390367446
 10
1.4725574822385752
 20
6.385379313353084
 10
1.1985807074218184
 20
6.366927072835007
 10
0.925386524921228
 20
6.347466891950321
 10
0.6530367422389854
 20
6.327068186333957
 10
0.381465747806527
 20
6.305727151919533
 10
0.1107353491260378
 20
6.283513204341982
 10
-0.15909264630032843
 20
6.260495759236237
 10
-0.4280686337755824
 20
6.236408566261712
 10
-0.6961270017311779
 20
6.211255429484791
 10
-0.9632211589304791
 20
6.185368210814607
 10
-1.229409108809265
 20
6.158611883047679
 10
-1.4945558241640564
 20
6.13092844274822
 10
-1.7587925281319536
 20
6.102310281783466
 10
-2.0219879975758537
 20
6.07276500828618
 10
-2.2840842290599777
 20
6.042427649459847
 10
-2.5452162497877966
 20
6.011356208740252
 10
-2.805299427858861
 20
5.979226432351025
 10
-3.064225364534353
 20
5.946439597836232
 10
-3.3220672795155903
 20
5.9131231242665985
 10
-3.5788679599728344
 20
5.878879538164432
 10
-3.8344305712004276
 20
5.843720251728881
 10
-4.088832136966073
 20
5.807838295599216
 10
-4.34207646133615
 20
5.771299281343986
 10
-4.594155936177892
 20
5.733971985826091
 10
-4.844943142420579
 20
5.695929628746846
 10
-5.094569303201317
 20
5.657164601973488
 10
-5.34291460758215
 20
5.617881348344431
 10
-5.58997144743031
 20
5.577948644722576
 10
-5.835736018679416
 20
5.53730087953937
 10
-6.080212125395853
 20
5.496003664363366
 10
-6.323341764143837
 20
5.4541920263980455
 10
-6.565190546491908
 20
5.4118621615770275
 10
-6.80561964117021
 20
5.3688904548959755
 10
-7.04462904817874
 20
5.325276906354889
 10
-7.282280575019664
 20
5.280952100318832
 10
-7.518512414190819
 20
5.235985452422742
 10
-7.753335977891345
 20
5.190573797372269
 10
-7.986689458619075
 20
5.144786550802348
 10
-8.218557640108482
 20
5.098361266438773
 10
-8.449006133928117
 20
5.051294140215163
 10
-8.67783430130595
 20
5.003530972762115
 10
-8.905184777578217
 20
4.955260990652515
 10
-9.131061366811307
 20
4.906549805454914
 10
-9.355332845868121
 20
4.8574050253020795
 10
-9.577995410682275
 20
4.807761038625457
 10
-9.79910326062317
 20
4.757417206653013
 10
-10.018606000387786
 20
4.706639779725334
 10
-10.236515042175274
 20
4.655625592548071
 10
-10.452745754085168
 20
4.6040503913448525
 10
-10.66736374768601
 20
4.551910372049296
 10
-10.88024540797348
 20
4.499344365931269
 10
-11.09145634651612
 20
4.446348568924389
 10
-11.301000367380311
 20
4.392988592597204
 10
-11.508800446798354
 20
4.339071406310447
 10
-11.71486419290302
 20
4.284728233201218
 10
-11.919191605694301
 20
4.2299590732695185
 10
-12.121797901437732
 20
4.17502637278955
 10
-12.322548052929832
 20
4.119872128325528
 10
-12.521561871108547
 20
4.064291897039033
 10
-12.718766136272567
 20
4.008158259859349
 10
-12.91411045311887
 20
3.951737467127059
 10
-13.10766804134877
 20
3.895156937912881
 10
-13.299358073128184
 20
3.838158030008998
 10
-13.489122545021333
 20
3.780875770618891
 10
-13.677096484231694
 20
3.723368163178347
 10
-13.86314866762217
 20
3.665642815820132
 10
-14.047267682993613
 20
3.6075028938385896
 10
-14.229464942545167
 20
3.549145231939377
 10
-14.409744250343218
 20
3.4906354416910412
 10
-14.588101802321383
 20
3.431907911525034
 10
-14.76447198691111
 20
3.3729664455077373
 10
-14.938851000046014
 20
3.313745432070598
 10
-15.111308257361035
 20
3.2543066787157873
 10
-15.281712535719066
 20
3.1946577935760683
 10
-15.450071443252872
 20
3.134929999788542
 10
-15.616508594966792
 20
3.074984466083345
 10
-15.780827156155173
 20
3.0148326046596208
 10
-15.943088934320182
 20
2.954404999882438
 10
-16.10330914572735
 20
2.8939640980259997
 10
-16.261487790376677
 20
2.833509899090306
 10
-16.417551648566842
 20
2.772914984004638
 10
-16.57149691623147
 20
2.712113741200443
 10
-16.72338540087273
 20
2.6510367550427896
 10
-16.87310489968542
 20
2.5900196915071954
 10
-17.020717220171722
 20
2.528993134958729
 10
-17.166214754198865
 20
2.4678258622602867
 10
-17.309531890198304
 20
2.4065216774782514
 10
-17.450676236302797
 20
2.3452118037497254
 10
-17.589640184379583
 20
2.2837650179376063
 10
-17.726427538495038
 20
2.222246931610446
 10
-17.86104210271555
 20
2.1607231563367932
 10
-17.993410657339805
 20
2.09906627304593
 10
-18.123544614566953
 20
2.0374731164435094
 10
-18.2514943697
 20
1.9756774361889446
 10
-18.37720952743594
 20
1.9139454826228217
 10
-18.500686283708387
 20
1.8522116441765897
 10
-18.62192083445095
 20
1.7904103092816983
 10
-18.74084756809509
 20
1.7285452820045286
 10
-18.857535900275735
 20
1.6666783698472503
 10
-18.971931631623477
 20
1.6050102115818983
 10
-19.084027154005557
 20
1.5434095840713695
 10
-19.19382246742197
 20
1.4818764873156653
 10
-19.30138698750766
 20
1.4204727288169536
 10
-19.406585687059128
 20
1.3591403051394482
 10
-19.509491785777705
 20
1.2980066353538693
 10
-19.61004728022759
 20
1.2372067466636993
 10
-19.70831778197734
 20
1.1767368350025578
 10
-19.80423007132564
 20
1.1164694812997242
 10
-19.897853563907425
 20
1.0564664930573664
 10
-19.989057036585585
 20
0.996735478408251
 10
-20.07797932063
 20
0.9374000523567133
 10
-20.164492996969937
 20
0.8785334346040695
 10
-20.248656069041193
 20
0.8200005979468358
 10
-20.33046853684376
 20
0.761801542385012
 10
-20.409930400377643
 20
0.7039362679185973
 10
-20.486983656207048
 20
0.6465398017510772
 10
-20.561628304331986
 20
0.5896121438824506
 10
-20.63391854412185
 20
0.5329526555406827
 10
-20.70380017620725
 20
0.4767619754978091
 10
-20.77125798432264
 20
0.42077765747962503
 10
-20.83630718473356
 20
0.36526214776033533
 10
-20.898932561174476
 20
0.3099530000657354
 10
-20.959141721778167
 20
0.2549814375329275
 10
-21.016934666544607
 20
0.20034746016191152
 10
-21.072241979838886
 20
0.14598926045051877
 10
-21.125202492930857
 20
0.09203045340308694
 10
-21.175607958915723
 20
0.03828561651310937
 10
-21.223662820631912
 20
-0.015125439281458463
 10
-21.269232050875925
 20
-0.06826071741640263
 10
-21.31232706184691
 20
-0.12092338318607118
 10
-21.353005856980662
 20
-0.17324846379394776
 10
-21.39120662877501
 20
-0.22516654360509922
 10
-21.426944593495477
 20
-0.27641517634532264
 10
-21.46027395051148
 20
-0.3271950007866516
 10
-21.491136696387212
 20
-0.37737098972560307
 10
-21.519540439255458
 20
-0.42681192002507506
 10
-21.545500395381733
 20
-0.4752553454108638
 10
-21.56901656476604
 20
-0.5227012658829695
 10
-21.5901621671097
 20
-0.5690222623706724
 10
-21.608824999607524
 20
-0.6138826688984539
 10
-21.625085890093576
 20
-0.6570238432584922
 10
-21.639048490800235
 20
-0.6977934738316606
 10
-21.650608207055082
 20
-0.7357246715053384
 10
-21.659891515488773
 20
-0.7697714552490935
 10
-21.66702489273198
 20
-0.7988878440324935
 10
-21.671968413240773
 20
-0.8214915520775525
 10
-21.67488279024325
 20
-0.8359460942368804
 10
-21.651817621797445
 20
-1.2553419061069515
 10
-21.650376994609488
 20
-1.2586158188417866
 10
-21.646058917112
 20
-1.2683719454777416
 10
-21.638878605570515
 20
-1.2843478397406125
 10
-21.628705779287973
 20
-1.3076550942293828
 10
-21.615591776007463
 20
-1.3396791600163853
 10
-21.5996687956123
 20
-1.3770044314705914
 10
-21.58098915259178
 20
-1.4175931459005406
 10
-21.559733522945976
 20
-1.460599961047836
 10
-21.535916180500354
 20
-1.5046432299065255
 10
-21.509505750283807
 20
-1.5491286442932701
 10
-21.480652475765353
 20
-1.593735754498079
 10
-21.449305961641965
 20
-1.6381983101803665
 10
-21.415481424179166
 20
-1.6822538650659289
 10
-21.379186471509733
 20
-1.7257711960176647
 10
-21.340421103633656
 20
-1.7687503030355736
 10
-21.299254736185866
 20
-1.8111293786174867
 10
-21.255629365730588
 20
-1.8527733955599204
 10
-21.209541188201424
 20
-1.8937479654314255
 10
-21.161059619233324
 20
-1.9339912807298332
 10
-21.110111439124964
 20
-1.9736307605258634
 10
-21.05670045194272
 20
-2.012600793250965
 10
-21.00096548895647
 20
-2.0507777639008
 10
-20.942698303261412
 20
-2.0883470949818754
 10
-20.882099533629574
 20
-2.1252545871247865
 10
-20.81903415285748
 20
-2.1615582437653202
 10
-20.753571576580057
 20
-2.197196257401307
 10
-20.685715608863696
 20
-2.232103016464196
 10
-20.61545483750924
 20
-2.266475355659641
 10
-20.542796870649457
 20
-2.300182051850539
 10
-20.46772649201882
 20
-2.3334855513110955
 10
-20.390255113816472
 20
-2.3661890193356547
 10
-20.310440739478206
 20
-2.398427483127703
 10
-20.228217757435473
 20
-2.4301971386208576
 10
-20.14357855955549
 20
-2.46162920895222
 10
-20.056592561473213
 20
-2.492661886619622
 10
-19.967255959122244
 20
-2.523360783191614
 10
-19.875568752502595
 20
-2.5537258986681963
 10
-19.781453917846555
 20
-2.583950263688639
 10
-19.685046482357624
 20
-2.6139758748171564
 10
-19.58621902696507
 20
-2.643729512352432
 10
-19.485102774805995
 20
-2.6732187844272315
 10
-19.38162450617909
 20
-2.7025711101122734
 10
-19.275849832652906
 20
-2.7317902934739404
 10
-19.167716946725267
 20
-2.7608069188772997
 10
-19.0572990680975
 20
-2.7894935672516312
 10
-18.94452678113466
 20
-2.8179120460991034
 10
-18.829527504907475
 20
-2.8461355751210324
 10
-18.712235627847384
 20
-2.874160350251035
 10
-18.592651149954403
 20
-2.9019863714891123
 10
-18.47078548342766
 20
-2.9294168041296103
 10
-18.34670423983572
 20
-2.956455452238912
 10
-18.22034180761003
 20
-2.9830985117506357
 10
-18.091756190186366
 20
-3.009481009868264
 10
-17.96094738756474
 20
-3.0356029465917986
 10
-17.827930616010676
 20
-3.061201875647034
 10
-17.692763878959955
 20
-3.0864128242374558
 10
-17.555385368910418
 20
-3.1111663767281295
 10
-17.41579128179568
 20
-3.1355281446876075
 10
-17.274047229184294
 20
-3.159501932182271
 10
-17.130157015142636
 20
-3.1830221276435697
 10
-16.984116835604326
 20
-3.2061543426400534
 10
-16.835926690569362
 20
-3.2288985771717225
 10
-16.685590384104135
 20
-3.251189219670027
 10
-16.533169723710802
 20
-3.2730956857698996
 10
-16.378664709389376
 20
-3.2946179754713394
 10
-16.22201353363768
 20
-3.3156866731394143
 10
-16.063339811460043
 20
-3.3364406100439896
 10
-15.902581735354314
 20
-3.3568103705501335
 10
-15.739735501254103
 20
-3.3768615662263963
 10
-15.574870524794338
 20
-3.3965323895706088
 10
-15.407998218174175
 20
-3.4156260058771184
 10
-15.239107169194456
 20
-3.4343392498515777
 10
-15.068124158153877
 20
-3.452799540564707
 10
-14.895249823824468
 20
-3.470952678647101
 10
-14.72036055120189
 20
-3.488659832828895
 10
-14.54346014435253
 20
-3.5058553915415365
 10
-14.36467221828072
 20
-3.5226781860548924
 10
-14.183927357351529
 20
-3.5391900238711314
 10
-14.001233169697725
 20
-3.555259681853152
 10
-13.816655266887853
 20
-3.5708909640673356
 10
-13.630197452988298
 20
-3.5860182589451313
 10
-13.441848315799911
 20
-3.6008384011921932
 10
-13.251615463455463
 20
-3.615220167671417
 10
-13.059491287822183
 20
-3.6292947815199073
 10
-12.865618424236322
 20
-3.6428730161647733
 10
-12.669861845494395
 20
-3.6560128750418035
 10
-12.472287163164955
 20
-3.668718162217379
 10
-12.272956184750166
 20
-3.681058293326433
 10
-12.071810906814248
 20
-3.6928982411654814
 10
-11.868909332792983
 20
-3.7043730329380082
 10
-11.664320878321302
 20
-3.715420861141845
 10
-11.457921928394876
 20
-3.725902894507126
 10
-11.249843706150802
 20
-3.7358267411666146
 10
-11.040074799389927
 20
-3.7453892358259635
 10
-10.828615208112264
 20
-3.7545903784851733
 10
-10.615464932317803
 20
-3.763430169144244
 10
-10.400700995774242
 20
-3.7717155771639055
 10
-10.184331006614348
 20
-3.7793153794070546
 10
-9.966274137004048
 20
-3.786488218081513
 10
-9.746661610080428
 20
-3.7932417013200466
 10
-9.525435422407716
 20
-3.7994408019191694
 10
-9.30266879368722
 20
-3.8049581008081628
 10
-9.078350311719799
 20
-3.80999043269268
 10
-8.85253797994123
 20
-3.8146728247762036
 10
-8.625173794915735
 20
-3.8188702498552507
 10
-8.396269168842458
 20
-3.8223858732241687
 10
-8.165947716725737
 20
-3.8253585261528227
 10
-7.934205634499184
 20
-3.8278538202097643
 10
-7.700911699025708
 20
-3.8298641472622292
 10
-7.466266549077337
 20
-3.8313353079408126
 10
-7.230212181218284
 20
-3.8321322750420306
 10
-6.992748595448552
 20
-3.832255048565884
 10
-6.753937599270305
 20
-3.8317730441473046
 10
-6.513760172351638
 20
-3.8310143196290474
 10
-6.272293338460245
 20
-3.8297858443718424
 10
-6.029486702293104
 20
-3.827821368035103
 10
-5.785336459783837
 20
-3.825186502187381
 10
-5.539973834069536
 20
-3.82188885496144
 10
-5.29331799731613
 20
-3.8181870685651016
 10
-5.045442169224936
 20
-3.813953723927646
 10
-4.7963463497959475
 20
-3.809188821049073
 10
-4.54603814716193
 20
-3.8037611367922826
 10
-4.294513757256502
 20
-3.797736282725823
 10
-4.041896795084004
 20
-3.7912530901195627
 10
-3.788063645640096
 20
-3.784172727703633
 10
-3.5331531401946403
 20
-3.7763715804736986
 10
-3.2771614746812587
 20
-3.76791525999831
 10
-3.0200848450335727
 20
-3.7588693778460174
 10
-2.7618614437494085
 20
-3.7491645183818885
 10
-2.502695713667185
 20
-3.738680870667967
 10
-2.2425258472847323
 20
-3.7273490190693206
 10
-1.9812634086352043
 20
-3.7155588289308725
 10
-1.7190434249220923
 20
-3.703252296816836
 10
-1.4559543321122292
 20
-3.6900395573822875
 10
-1.1918534948693793
 20
-3.676109837200116
 10
-0.9268027206957037
 20
-3.661532551905254
 10
-0.6609408408610693
 20
-3.646184086493365
 10
-0.39414043629475876
 20
-3.6299912212631322
 10
-0.1265327301338683
 20
-3.612961564347321
 10
0.14196310545567353
 20
-3.5953537579537524
 10
0.41127385077255607
 20
-3.577040383011707
 10
0.6813148739163223
 20
-3.557697185744813
 10
0.9521631986546578
 20
-3.5375171967923396
 10
1.2237684296845557
 20
-3.516766666494873
 10
1.4960535432383015
 20
-3.495252564213144
 10
1.7690803468180778
 20
-3.4729054743122174
 10
2.0427908369880847
 20
-3.449860423995579
 10
2.317169797482807
 20
-3.425854966989024
 10
2.5922172283022427
 20
-3.4008891032925526
 10
2.8678827341433615
 20
-3.375229083246751
 10
3.144104507503997
 20
-3.3489443224865525
 10
3.4209443558863275
 20
-3.321965405377023
 10
3.6983252555226422
 20
-3.2940993012788935
 10
3.976254814545712
 20
-3.2654772333292637
 10
4.254733032955542
 20
-3.236099201528135
 10
4.533694299183571
 20
-3.205969009941889
 10
4.813127201030654
 20
-3.1748898238648735
 10
5.0930393466295625
 20
-3.1429928664341897
 10
5.373314729108719
 20
-3.1105481920568065
 10
5.654080767538842
 20
-3.0774825810314077
 10
5.935194826583686
 20
-3.043606806785106
 10
6.216726321878186
 20
-3.0089826768200676
 10
6.498544030285231
 20
-2.97361779926906
 10
6.780717367439762
 20
-2.9375739816342503
 10
7.063242529275394
 20
-2.900785612347088
 10
7.3459920967214085
 20
-2.8633259111088876
 10
7.629039289479126
 20
-2.825322296990369
 10
7.912380303482153
 20
-2.7867091584229824
 10
8.19588011152701
 20
-2.74742849197094
 10
8.479608129248632
 20
-2.7075421051364112
 10
8.763506353211238
 20
-2.667185025122879
 10
9.047625178717835
 20
-2.6260910015897583
 10
9.331840990764103
 20
-2.5843988658069157
 10
9.616161397482792
 20
-2.5422398409114533
 10
9.900582594807526
 20
-2.499548315334818
 10
10.185096974605546
 20
-2.45619306593991
 10
10.46971214500961
 20
-2.41230531586383
 10
10.754304491015372
 20
-2.368023896376445
 10
11.038932016058636
 20
-2.323213780274271
 10
11.323540520769985
 20
-2.2780756063293417
 10
11.608118592950275
 20
-2.232412539836006
 10
11.892662428533134
 20
-2.186158969225712
 10
12.17717963565131
 20
-2.1394461176355613
 10
12.461550403366857
 20
-2.0924784279039716
 10
12.74584034324833
 20
-2.04525209596456
 10
13.029972431528023
 20
-1.997574091178057
 10
13.31395047227232
 20
-1.9495100251130126
 10
13.597774465481221
 20
-1.9010598977694273
 10
13.88144821522111
 20
-1.8522893207158515
 10
14.164836694288507
 20
-1.8031402905164986
 10
14.44800931831834
 20
-1.7536746146735382
 10
14.730904279808438
 20
-1.7039617088219026
 10
15.013594798460124
 20
-1.6541289920323108
 10
15.295934434870754
 20
-1.6039216261633256
 10
15.577926993106717
 20
-1.5534052227834967
 10
15.85965710506848
 20
-1.5029040356691954
 10
16.140970723220654
 20
-1.4520320035418814
 10
16.42186404349684
 20
-1.4007235148330048
 10
16.702425501863896
 20
-1.3493684348874873
 10
16.98253148331747
 20
-1.2981055949751958
 10
17.262224775027832
 20
-1.246537521618443
 10
17.5414435694928
 20
-1.1947336304521619
 10
17.82012225514384
 20
-1.1426977255427335
 10
18.098334051682265
 20
-1.0905572259608785
 10
18.376017151605893
 20
-1.0383815473415297
 10
18.653175358981116
 20
-0.986236301253238
 10
18.929735454106613
 20
-0.9339940686252846
 10
19.205689828849625
 20
-0.881523626320566
 10
19.481049895409303
 20
-0.8290218090447357
 10
19.75581565378563
 20
-0.7764886167977949
 10
20.02985968490791
 20
-0.7239972692810566
 10
20.30331321191322
 20
-0.6715401583617581
 10
20.57603359946533
 20
-0.6189280574670097
 10
20.848024651630613
 20
-0.5662265781653637
 10
21.119305388740983
 20
-0.5137637782995743
 10
21.38987200673006
 20
-0.4614740463010898
 10
21.65958567432797
 20
-0.40923376716557286
 10
21.928581418738208
 20
-0.35710094432881095
 10
22.196724212757278
 20
-0.3050175743550165
 10
22.464079667953744
 20
-0.25297985317780824
 10
22.73058978089181
 20
-0.20112280800066917
 10
22.996188940002927
 20
-0.149450242889982
 10
23.260950364988407
 20
-0.09808957691646626
 10
23.52473142051201
 20
-0.04685158350723395
 10
23.787663329710835
 20
0.004271345470480436
 10
24.049611065381395
 20
0.05533721345246192
 10
24.31059745192198
 20
0.10595235102740587
 10
24.57055687776405
 20
0.15611295412893073
 10
24.8295977416464
 20
0.20622030030110491
 10
25.087519404797014
 20
0.25632858891333443
 10
25.34448352288403
 20
0.3059205355499748
 10
25.600355068703973
 20
0.3550541436468133
 10
25.855118825991322
 20
0.4039918594780542
 10
26.108774794746058
 20
0.452733683043696
 10
26.36132677903459
 20
0.5012140027751896
 10
26.612793799188807
 20
0.549104760829779
 10
26.863037023938848
 20
0.5965295722118024
 10
27.112176264222672
 20
0.643692879759677
 10
27.360080296903174
 20
0.6905870753406375
 10
27.606756730113126
 20
0.7370809358175836
 10
27.852213171985277
 20
0.783043238053412
 10
28.09644201438688
 20
0.8286052051852256
 10
28.339377645749366
 20
0.8737630331466416
 10
28.581093285774063
 20
0.9183893028669408
 10
28.821457711323873
 20
0.9624764062133587
 10
29.060525121768187
 20
1.0062249819579299
 10
29.298164293969904
 20
1.0496274219678903
 10
29.534579670767457
 20
1.092563915305285
 10
29.769516414019396
 20
1.1348880225674831
 10
30.003105746862822
 20
1.1766073518872493
 10
30.235343865231357
 20
1.2177875148331336
 10
30.466091937855122
 20
1.2585521264094743
 10
30.695353768800516
 20
1.2988355750477205
 10
30.92326438527101
 20
1.338579857312085
 10
31.14963075662735
 20
1.3777079494348714
 10
31.374526102570826
 20
1.416092432345359
 10
31.59787339933377
 20
1.4539263366828197
 10
31.819734454418324
 20
1.4912790780821847
 10
32.04004746032234
 20
1.5280812409085227
 10
32.25881241704581
 20
1.564332825161833
 10
32.475975125219335
 20
1.5998331920700803
 10
32.69158978421229
 20
1.6347829804053
 10
32.90552897495401
 20
1.669108970466177
 10
33.11785070088022
 20
1.7029461894561944
 10
33.328566374190096
 20
1.7360978026697003
 10
33.53761418738151
 20
1.7684943944717626
 10
33.74498272825524
 20
1.8003327995680316
 10
33.95067199681133
 20
1.831613017958509
 10
34.15468199304977
 20
1.8623350496431945
 10
34.356889101966246
 20
1.8923600633522222
 10
34.55743215483057
 20
1.9215644440812538
 10
34.75622651974233
 20
1.9502724456066618
 10
34.95321038919933
 20
1.9784146522935138
 10
35.14844937477014
 20
2.0059948682081923
 10
35.34188547301896
 20
2.032878066147213
 10
35.533449268310854
 20
2.0591260536127427
 10
35.72326817971656
 20
2.0848120503060996
 10
35.911222396298115
 20
2.109731613388865
 10
36.097304309922734
 20
2.134015965998141
 10
36.28151772465682
 20
2.1575994965653766
 10
36.46385122830124
 20
2.180679039796225
 10
36.64431242898872
 20
2.2031233725535837
 10
36.82283571515074
 20
2.224928690771071
 10
36.999424890853675
 20
2.246029382880136
 10
37.17414176359968
 20
2.2664948645157117
 10
37.346851306185286
 20
2.2863831391135845
 10
37.5175535186105
 20
2.305694206673755
 10
37.68631781651023
 20
2.3243662596940537
 10
37.853148003950885
 20
2.3423336866059303
 10
38.017901445596195
 20
2.3597857139822724
 10
38.180643753014714
 20
2.376726145889463
 10
38.34138633840561
 20
2.3929581476218496
 10
38.500059786133924
 20
2.408543526681599
 10
38.65665648806691
 20
2.4236135062058155
 10
38.81124966390587
 20
2.4380406671237784
 10
38.963711894580086
 20
2.4517517897341725
 10
39.11410118352535
 20
2.464881901240481
 10
39.26241372667528
 20
2.4774966132112564
 10
39.408583912461324
 20
2.489592121580115
 10
39.552619349016254
 20
2.5010372032099566
 10
39.694516232273656
 20
2.5118974696693304
 10
39.834266954100805
 20
2.522304144095339
 10
39.97187531856407
 20
2.5321916149194323
 10
40.10728332222765
 20
2.5414248549381253
 10
40.24049096509158
 20
2.550003864151418
 10
40.371548642458826
 20
2.5581948928998965
 10
40.500394546827266
 20
2.565928525548627
 10
40.62702867819689
 20
2.5732047620976113
 10
40.751454840634075
 20
2.5799579909782957
 10
40.87360742257026
 20
2.5861844081243013
 10
40.99355203557403
 20
2.591887817602008
 10
41.111215459944034
 20
2.5971956384821366
 10
41.22660530381305
 20
2.6019766476275836
 10
41.339713959048304
 20
2.606362068175453
 10
41.45061464535114
 20
2.6102244810550244
 10
41.559168531451654
 20
2.6136875012706344
 10
41.665437424852044
 20
2.6168205444572172
 10
41.76935951805012
 20
2.619554194979839
 10
41.87100422668083
 20
2.6218266453363315
 10
41.970298331042855
 20
2.623765314597414
 10
42.067315050837514
 20
2.625242783692367
 10
42.16191175072856
 20
2.6264482791940793
 10
42.25422345791945
 20
2.6273237976667634
 10
42.3441189492731
 20
2.627861730977655
 10
42.43166383635809
 20
2.628065883193138
 10
42.51685811917438
 20
2.627936254313211
 10
42.59969799365561
 20
2.627538455906425
 10
42.68012165229959
 20
2.626803072337846
 10
42.75812148697357
 20
2.6258613267445776
 10
42.83376691331249
 20
2.624651411624451
 10
42.90698851568141
 20
2.623235134479634
 10
42.9777900981467
 20
2.621546883741575
 10
43.04616785664201
 20
2.6196522709788264
 10
43.11212559523367
 20
2.6174856846228365
 10
43.17565950985536
 20
2.615112736242157
 10
43.23676199237426
 20
2.6126646489738894
 10
43.295375039354624
 20
2.6100063956145485
 10
43.351626069867145
 20
2.60721119586545
 10
43.4053144451398
 20
2.6043332490959994
 10
43.45664080394462
 20
2.6013183559367916
 10
43.505473923144514
 20
2.5981589082550633
 10
43.55180619460671
 20
2.594986129187915
 10
43.59570703396614
 20
2.591738211233178
 10
43.63711082965425
 20
2.58841135032447
 10
43.67600997353827
 20
2.5851367695988947
 10
43.71247768531954
 20
2.58178704998573
 10
43.74644074529673
 20
2.5784896105556974
 10
43.77790295753621
 20
2.575178839740244
 10
43.80685671390524
 20
2.571985960676474
 10
43.83330581847018
 20
2.5688453617958342
 10
43.85731207873321
 20
2.5658264587332598
 10
43.87874427155722
 20
2.5629216433559847
 10
43.897664204444396
 20
2.560200331298943
 10
43.91413748896326
 20
2.5576663266285165
 10
43.92803290197674
 20
2.555312021211941
 10
43.93940844692062
 20
2.553272442252701
 10
43.94833353942981
 20
2.551485782248626
 10
43.95466934823447
 20
2.5500756562040547
 10
43.95847768083676
 20
2.5491114797539214
 10
43.9597509291039
 20
2.5487244760353254
  0
ENDSEC
  0
SECTION
  2
OBJECTS
  0
DICTIONARY
  5
A
330
0
100
AcDbDictionary
280
0
281
1
  3
ACAD_COLOR
350
B
  3
ACAD_GROUP
350
C
  3
ACAD_LAYOUT
350
D
  3
ACAD_MATERIAL
350
E
  3
ACAD_MLEADERSTYLE
350
F
  3
ACAD_MLINESTYLE
350
10
  3
ACAD_PLOTSETTINGS
350
11
  3
ACAD_PLOTSTYLENAME
350
12
  3
ACAD_SCALELIST
350
14
  3
ACAD_TABLESTYLE
350
15
  3
ACAD_VISUALSTYLE
350
16
  3
EZDXF_META
350
2D
  0
DICTIONARY
  5
B
330
A
100
AcDbDictionary
280
0
281
1
  0
DICTIONARY
  5
C
330
A
100
AcDbDictionary
280
0
281
1
  0
DICTIONARY
  5
D
330
A
100
AcDbDictionary
280
0
281
1
  3
Model
350
1A
  3
Layout1
350
1E
  0
DICTIONARY
  5
E
330
A
100
AcDbDictionary
280
0
281
1
  3
ByBlock
350
1F
  3
ByLayer
350
20
  3
Global
350
21
  0
DICTIONARY
  5
F
330
A
100
AcDbDictionary
280
0
281
1
  3
Standard
350
2C
  0
DICTIONARY
  5
10
330
A
100
AcDbDictionary
280
0
281
1
  3
Standard
350
22
  0
DICTIONARY
  5
11
330
A
100
AcDbDictionary
280
0
281
1
  0
ACDBDICTIONARYWDFLT
  5
12
330
A
100
AcDbDictionary
280
0
281
1
  3
Normal
350
13
100
AcDbDictionaryWithDefault
340
13
  0
ACDBPLACEHOLDER
  5
13
330
12
  0
DICTIONARY
  5
14
330
A
100
AcDbDictionary
280
0
281
1
  0
DICTIONARY
  5
15
330
A
100
AcDbDictionary
280
0
281
1
  0
DICTIONARY
  5
16
330
A
100
AcDbDictionary
280
0
281
1
  0
LAYOUT
  5
1A
330
D
100
AcDbPlotSettings
  1

  4
A3
  6

 40
7.5
 41
20.0
 42
7.5
 43
20.0
 44
420.0
 45
297.0
 46
0.0
 47
0.0
 48
0.0
 49
0.0
140
0.0
141
0.0
142
1.0
143
1.0
 70
1024
 72
1
 73
0
 74
5
  7

 75
16
 76
0
 77
2
 78
300
147
1.0
148
0.0
149
0.0
100
AcDbLayout
  1
Model
 70
1
 71
0
 10
0.0
 20
0.0
 11
420.0
 21
297.0
 12
0.0
 22
0.0
 32
0.0
 14
1e+20
 24
1e+20
 34
1e+20
 15
-1e+20
 25
-1e+20
 35
-1e+20
146
0.0
 13
0.0
 23
0.0
 33
0.0
 16
1.0
 26
0.0
 36
0.0
 17
0.0
 27
1.0
 37
0.0
 76
1
330
17
  0
LAYOUT
  5
1E
330
D
100
AcDbPlotSettings
  1

  4
A3
  6

 40
7.5
 41
20.0
 42
7.5
 43
20.0
 44
420.0
 45
297.0
 46
0.0
 47
0.0
 48
0.0
 49
0.0
140
0.0
141
0.0
142
1.0
143
1.0
 70
0
 72
1
 73
0
 74
5
  7

 75
16
 76
0
 77
2
 78
300
147
1.0
148
0.0
149
0.0
100
AcDbLayout
  1
Layout1
 70
1
 71
1
 10
0.0
 20
0.0
 11
420.0
 21
297.0
 12
0.0
 22
0.0
 32
0.0
 14
1e+20
 24
1e+20
 34
1e+20
 15
-1e+20
 25
-1e+20
 35
-1e+20
146
0.0
 13
0.0
 23
0.0
 33
0.0
 16
1.0
 26
0.0
 36
0.0
 17
0.0
 27
1.0
 37
0.0
 76
1
330
1B
  0
MATERIAL
  5
1F
102
{ACAD_REACTORS
330
E
102
}
330
E
100
AcDbMaterial
  1
ByBlock
  2

 70
0
 40
1.0
 71
1
 41
1.0
 91
-1023410177
 42
1.0
 72
1
  3

 73
1
 74
1
 75
1
 44
0.5
 73
0
 45
1.0
 46
1.0
 77
1
  4

 78
1
 79
1
170
1
 48
1.0
171
1
  6

172
1
173
1
174
1
140
1.0
141
1.0
175
1
  7

176
1
177
1
178
1
143
1.0
179
1
  8

270
1
271
1
272
1
145
1.0
146
1.0
273
1
  9

274
1
275
1
276
1
 42
1.0
 72
1
  3

 73
1
 74
1
 75
1
 94
63
  0
MATERIAL
  5
20
102
{ACAD_REACTORS
330
E
102
}
330
E
100
AcDbMaterial
  1
ByLayer
  2

 70
0
 40
1.0
 71
1
 41
1.0
 91
-1023410177
 42
1.0
 72
1
  3

 73
1
 74
1
 75
1
 44
0.5
 73
0
 45
1.0
 46
1.0
 77
1
  4

 78
1
 79
1
170
1
 48
1.0
171
1
  6

172
1
173
1
174
1
140
1.0
141
1.0
175
1
  7

176
1
177
1
178
1
143
1.0
179
1
  8

270
1
271
1
272
1
145
1.0
146
1.0
273
1
  9

274
1
275
1
276
1
 42
1.0
 72
1
  3

 73
1
 74
1
 75
1
 94
63
  0
MATERIAL
  5
21
102
{ACAD_REACTORS
330
E
102
}
330
E
100
AcDbMaterial
  1
Global
  2

 70
0
 40
1.0
 71
1
 41
1.0
 91
-1023410177
 42
1.0
 72
1
  3

 73
1
 74
1
 75
1
 44
0.5
 73
0
 45
1.0
 46
1.0
 77
1
  4

 78
1
 79
1
170
1
 48
1.0
171
1
  6

172
1
173
1
174
1
140
1.0
141
1.0
175
1
  7

176
1
177
1
178
1
143
1.0
179
1
  8

270
1
271
1
272
1
145
1.0
146
1.0
273
1
  9

274
1
275
1
276
1
 42
1.0
 72
1
  3

 73
1
 74
1
 75
1
 94
63
  0
MLINESTYLE
  5
22
102
{ACAD_REACTORS
330
10
102
}
330
10
100
AcDbMlineStyle
  2
Standard
 70
0
  3

 62
256
 51
90.0
 52
90.0
 71
2
 49
0.5
 62
256
  6
BYLAYER
 49
-0.5
 62
256
  6
BYLAYER
  0
MLEADERSTYLE
  5
2C
102
{ACAD_REACTORS
330
F
102
}
330
F
100
AcDbMLeaderStyle
179
2
170
2
171
1
172
0
 90
2
 40
0.0
 41
0.0
173
1
 91
-1056964608
 92
-2
290
1
 42
2.0
291
1
 43
8.0
  3
Standard
 44
4.0
300

342
29
174
1
175
1
176
0
178
1
 93
-1056964608
 45
4.0
292
0
297
0
 46
4.0
 94
-1056964608
 47
1.0
 49
1.0
140
1.0
294
1
141
0.0
177
0
142
1.0
295
0
296
0
143
3.75
271
0
272
9
273
9
  0
DICTIONARY
  5
2D
330
A
100
AcDbDictionary
280
1
281
1
  3
CREATED_BY_EZDXF
350
2E
  3
WRITTEN_BY_EZDXF
350
32
  0
DICTIONARYVAR
  5
2E
330
2D
100
DictionaryVariables
280
0
  1
1.3.5 @ 2025-08-20T01:05:14.353373+00:00
  0
DICTIONARYVAR
  5
32
330
2D
100
DictionaryVariables
280
0
  1
1.3.5 @ 2025-08-20T01:05:14.359357+00:00
  0
ENDSEC
  0
EOF
