  0
SECTION
  2
HEADER
  9
$ACADVER
  1
AC1032
  9
$ACADMAINTVER
 90
4
  9
$DWGCODEPAGE
  3
ANSI_1252
  9
$LASTSAVEDBY
  1
ezdxf
  9
$REQUIREDVERSIONS
160
0
  9
$INSBASE
 10
0.0
 20
0.0
 30
0.0
  9
$EXTMIN
 10
1e+20
 20
1e+20
 30
1e+20
  9
$EXTMAX
 10
-1e+20
 20
-1e+20
 30
-1e+20
  9
$LIMMIN
 10
0.0
 20
0.0
  9
$LIMMAX
 10
420.0
 20
297.0
  9
$ORTHOMODE
 70
0
  9
$REGENMODE
 70
1
  9
$FILLMODE
 70
1
  9
$QTEXTMODE
 70
0
  9
$MIRRTEXT
 70
1
  9
$LTSCALE
 40
1.0
  9
$ATTMODE
 70
1
  9
$TEXTSIZE
 40
2.5
  9
$TRACEWID
 40
1.0
  9
$TEXTSTYLE
  7
Standard
  9
$CLAYER
  8
0
  9
$CELTYPE
  6
ByLayer
  9
$CECOLOR
 62
256
  9
$CELTSCALE
 40
1.0
  9
$DISPSILH
 70
0
  9
$DIMSCALE
 40
1.0
  9
$DIMASZ
 40
2.5
  9
$DIMEXO
 40
0.625
  9
$DIMDLI
 40
3.75
  9
$DIMRND
 40
0.0
  9
$DIMDLE
 40
0.0
  9
$DIMEXE
 40
1.25
  9
$DIMTP
 40
0.0
  9
$DIMTM
 40
0.0
  9
$DIMTXT
 40
2.5
  9
$DIMCEN
 40
2.5
  9
$DIMTSZ
 40
0.0
  9
$DIMTOL
 70
0
  9
$DIMLIM
 70
0
  9
$DIMTIH
 70
0
  9
$DIMTOH
 70
0
  9
$DIMSE1
 70
0
  9
$DIMSE2
 70
0
  9
$DIMTAD
 70
1
  9
$DIMZIN
 70
8
  9
$DIMBLK
  1

  9
$DIMASO
 70
1
  9
$DIMSHO
 70
1
  9
$DIMPOST
  1

  9
$DIMAPOST
  1

  9
$DIMALT
 70
0
  9
$DIMALTD
 70
3
  9
$DIMALTF
 40
0.03937007874
  9
$DIMLFAC
 40
1.0
  9
$DIMTOFL
 70
1
  9
$DIMTVP
 40
0.0
  9
$DIMTIX
 70
0
  9
$DIMSOXD
 70
0
  9
$DIMSAH
 70
0
  9
$DIMBLK1
  1

  9
$DIMBLK2
  1

  9
$DIMSTYLE
  2
ISO-25
  9
$DIMCLRD
 70
0
  9
$DIMCLRE
 70
0
  9
$DIMCLRT
 70
0
  9
$DIMTFAC
 40
1.0
  9
$DIMGAP
 40
0.625
  9
$DIMJUST
 70
0
  9
$DIMSD1
 70
0
  9
$DIMSD2
 70
0
  9
$DIMTOLJ
 70
0
  9
$DIMTZIN
 70
8
  9
$DIMALTZ
 70
0
  9
$DIMALTTZ
 70
0
  9
$DIMUPT
 70
0
  9
$DIMDEC
 70
2
  9
$DIMTDEC
 70
2
  9
$DIMALTU
 70
2
  9
$DIMALTTD
 70
3
  9
$DIMTXSTY
  7
Standard
  9
$DIMAUNIT
 70
0
  9
$DIMADEC
 70
0
  9
$DIMALTRND
 40
0.0
  9
$DIMAZIN
 70
0
  9
$DIMDSEP
 70
44
  9
$DIMATFIT
 70
3
  9
$DIMFRAC
 70
0
  9
$DIMLDRBLK
  1

  9
$DIMLUNIT
 70
2
  9
$DIMLWD
 70
-2
  9
$DIMLWE
 70
-2
  9
$DIMTMOVE
 70
0
  9
$DIMFXL
 40
1.0
  9
$DIMFXLON
 70
0
  9
$DIMJOGANG
 40
0.785398163397
  9
$DIMTFILL
 70
0
  9
$DIMTFILLCLR
 70
0
  9
$DIMARCSYM
 70
0
  9
$DIMLTYPE
  6

  9
$DIMLTEX1
  6

  9
$DIMLTEX2
  6

  9
$DIMTXTDIRECTION
 70
0
  9
$LUNITS
 70
2
  9
$LUPREC
 70
4
  9
$SKETCHINC
 40
1.0
  9
$FILLETRAD
 40
10.0
  9
$AUNITS
 70
0
  9
$AUPREC
 70
2
  9
$MENU
  1
.
  9
$ELEVATION
 40
0.0
  9
$PELEVATION
 40
0.0
  9
$THICKNESS
 40
0.0
  9
$LIMCHECK
 70
0
  9
$CHAMFERA
 40
0.0
  9
$CHAMFERB
 40
0.0
  9
$CHAMFERC
 40
0.0
  9
$CHAMFERD
 40
0.0
  9
$SKPOLY
 70
0
  9
$TDCREATE
 40
2460908.0869560186
  9
$TDUCREATE
 40
2458532.153996898
  9
$TDUPDATE
 40
2460908.0869560186
  9
$TDUUPDATE
 40
2458532.1544311
  9
$TDINDWG
 40
0.0
  9
$TDUSRTIMER
 40
0.0
  9
$USRTIMER
 70
1
  9
$ANGBASE
 50
0.0
  9
$ANGDIR
 70
0
  9
$PDMODE
 70
0
  9
$PDSIZE
 40
0.0
  9
$PLINEWID
 40
0.0
  9
$SPLFRAME
 70
0
  9
$SPLINETYPE
 70
6
  9
$SPLINESEGS
 70
8
  9
$HANDSEED
  5
33
  9
$SURFTAB1
 70
6
  9
$SURFTAB2
 70
6
  9
$SURFTYPE
 70
6
  9
$SURFU
 70
6
  9
$SURFV
 70
6
  9
$UCSBASE
  2

  9
$UCSNAME
  2

  9
$UCSORG
 10
0.0
 20
0.0
 30
0.0
  9
$UCSXDIR
 10
1.0
 20
0.0
 30
0.0
  9
$UCSYDIR
 10
0.0
 20
1.0
 30
0.0
  9
$UCSORTHOREF
  2

  9
$UCSORTHOVIEW
 70
0
  9
$UCSORGTOP
 10
0.0
 20
0.0
 30
0.0
  9
$UCSORGBOTTOM
 10
0.0
 20
0.0
 30
0.0
  9
$UCSORGLEFT
 10
0.0
 20
0.0
 30
0.0
  9
$UCSORGRIGHT
 10
0.0
 20
0.0
 30
0.0
  9
$UCSORGFRONT
 10
0.0
 20
0.0
 30
0.0
  9
$UCSORGBACK
 10
0.0
 20
0.0
 30
0.0
  9
$PUCSBASE
  2

  9
$PUCSNAME
  2

  9
$PUCSORG
 10
0.0
 20
0.0
 30
0.0
  9
$PUCSXDIR
 10
1.0
 20
0.0
 30
0.0
  9
$PUCSYDIR
 10
0.0
 20
1.0
 30
0.0
  9
$PUCSORTHOREF
  2

  9
$PUCSORTHOVIEW
 70
0
  9
$PUCSORGTOP
 10
0.0
 20
0.0
 30
0.0
  9
$PUCSORGBOTTOM
 10
0.0
 20
0.0
 30
0.0
  9
$PUCSORGLEFT
 10
0.0
 20
0.0
 30
0.0
  9
$PUCSORGRIGHT
 10
0.0
 20
0.0
 30
0.0
  9
$PUCSORGFRONT
 10
0.0
 20
0.0
 30
0.0
  9
$PUCSORGBACK
 10
0.0
 20
0.0
 30
0.0
  9
$USERI1
 70
0
  9
$USERI2
 70
0
  9
$USERI3
 70
0
  9
$USERI4
 70
0
  9
$USERI5
 70
0
  9
$USERR1
 40
0.0
  9
$USERR2
 40
0.0
  9
$USERR3
 40
0.0
  9
$USERR4
 40
0.0
  9
$USERR5
 40
0.0
  9
$WORLDVIEW
 70
1
  9
$SHADEDGE
 70
3
  9
$SHADEDIF
 70
70
  9
$TILEMODE
 70
1
  9
$MAXACTVP
 70
64
  9
$PINSBASE
 10
0.0
 20
0.0
 30
0.0
  9
$PLIMCHECK
 70
0
  9
$PEXTMIN
 10
1e+20
 20
1e+20
 30
1e+20
  9
$PEXTMAX
 10
-1e+20
 20
-1e+20
 30
-1e+20
  9
$PLIMMIN
 10
0.0
 20
0.0
  9
$PLIMMAX
 10
420.0
 20
297.0
  9
$UNITMODE
 70
0
  9
$VISRETAIN
 70
1
  9
$PLINEGEN
 70
0
  9
$PSLTSCALE
 70
1
  9
$TREEDEPTH
 70
3020
  9
$CMLSTYLE
  2
Standard
  9
$CMLJUST
 70
0
  9
$CMLSCALE
 40
20.0
  9
$PROXYGRAPHICS
 70
1
  9
$MEASUREMENT
 70
1
  9
$CELWEIGHT
370
-1
  9
$ENDCAPS
280
0
  9
$JOINSTYLE
280
0
  9
$LWDISPLAY
290
0
  9
$INSUNITS
 70
6
  9
$HYPERLINKBASE
  1

  9
$STYLESHEET
  1

  9
$XEDIT
290
1
  9
$CEPSNTYPE
380
0
  9
$PSTYLEMODE
290
1
  9
$FINGERPRINTGUID
  2
{3DF1826E-A6AF-4F66-9AB1-CCC4A26E76ED}
  9
$VERSIONGUID
  2
{5B6B64B5-A506-40B9-A285-069D90E87281}
  9
$EXTNAMES
290
1
  9
$PSVPSCALE
 40
0.0
  9
$OLESTARTUP
290
0
  9
$SORTENTS
280
127
  9
$INDEXCTL
280
0
  9
$HIDETEXT
280
1
  9
$XCLIPFRAME
280
1
  9
$HALOGAP
280
0
  9
$OBSCOLOR
 70
257
  9
$OBSLTYPE
280
0
  9
$INTERSECTIONDISPLAY
280
0
  9
$INTERSECTIONCOLOR
 70
257
  9
$DIMASSOC
280
2
  9
$PROJECTNAME
  1

  9
$CAMERADISPLAY
290
0
  9
$LENSLENGTH
 40
50.0
  9
$CAMERAHEIGHT
 40
0.0
  9
$STEPSPERSEC
 40
24.0
  9
$STEPSIZE
 40
100.0
  9
$3DDWFPREC
 40
2.0
  9
$PSOLWIDTH
 40
0.005
  9
$PSOLHEIGHT
 40
0.08
  9
$LOFTANG1
 40
1.570796326795
  9
$LOFTANG2
 40
1.570796326795
  9
$LOFTMAG1
 40
0.0
  9
$LOFTMAG2
 40
0.0
  9
$LOFTPARAM
 70
7
  9
$LOFTNORMALS
280
1
  9
$LATITUDE
 40
37.795
  9
$LONGITUDE
 40
-122.394
  9
$NORTHDIRECTION
 40
0.0
  9
$TIMEZONE
 70
-8000
  9
$LIGHTGLYPHDISPLAY
280
1
  9
$TILEMODELIGHTSYNCH
280
1
  9
$CMATERIAL
347
20
  9
$SOLIDHIST
280
0
  9
$SHOWHIST
280
1
  9
$DWFFRAME
280
2
  9
$DGNFRAME
280
2
  9
$REALWORLDSCALE
290
1
  9
$INTERFERECOLOR
 62
256
  9
$CSHADOW
280
0
  9
$SHADOWPLANELOCATION
 40
0.0
  0
ENDSEC
  0
SECTION
  2
CLASSES
  0
CLASS
  1
ACDBDICTIONARYWDFLT
  2
AcDbDictionaryWithDefault
  3
ObjectDBX Classes
 90
0
 91
0
280
0
281
0
  0
CLASS
  1
SUN
  2
AcDbSun
  3
SCENEOE
 90
1153
 91
0
280
0
281
0
  0
CLASS
  1
VISUALSTYLE
  2
AcDbVisualStyle
  3
ObjectDBX Classes
 90
4095
 91
0
280
0
281
0
  0
CLASS
  1
MATERIAL
  2
AcDbMaterial
  3
ObjectDBX Classes
 90
1153
 91
0
280
0
281
0
  0
CLASS
  1
SCALE
  2
AcDbScale
  3
ObjectDBX Classes
 90
1153
 91
0
280
0
281
0
  0
CLASS
  1
TABLESTYLE
  2
AcDbTableStyle
  3
ObjectDBX Classes
 90
4095
 91
0
280
0
281
0
  0
CLASS
  1
MLEADERSTYLE
  2
AcDbMLeaderStyle
  3
ACDB_MLEADERSTYLE_CLASS
 90
4095
 91
0
280
0
281
0
  0
CLASS
  1
DICTIONARYVAR
  2
AcDbDictionaryVar
  3
ObjectDBX Classes
 90
0
 91
0
280
0
281
0
  0
CLASS
  1
CELLSTYLEMAP
  2
AcDbCellStyleMap
  3
ObjectDBX Classes
 90
1152
 91
0
280
0
281
0
  0
CLASS
  1
MENTALRAYRENDERSETTINGS
  2
AcDbMentalRayRenderSettings
  3
SCENEOE
 90
1024
 91
0
280
0
281
0
  0
CLASS
  1
ACDBDETAILVIEWSTYLE
  2
AcDbDetailViewStyle
  3
ObjectDBX Classes
 90
1025
 91
0
280
0
281
0
  0
CLASS
  1
ACDBSECTIONVIEWSTYLE
  2
AcDbSectionViewStyle
  3
ObjectDBX Classes
 90
1025
 91
0
280
0
281
0
  0
CLASS
  1
RASTERVARIABLES
  2
AcDbRasterVariables
  3
ISM
 90
0
 91
0
280
0
281
0
  0
CLASS
  1
LAYOUT
  2
AcDbLayout
  3
ObjectDBX Classes
 90
0
 91
0
280
0
281
0
  0
CLASS
  1
ACDBPLACEHOLDER
  2
AcDbPlaceHolder
  3
ObjectDBX Classes
 90
0
 91
0
280
0
281
0
  0
ENDSEC
  0
SECTION
  2
TABLES
  0
TABLE
  2
VPORT
  5
8
330
0
100
AcDbSymbolTable
 70
1
  0
VPORT
  5
23
330
8
100
AcDbSymbolTableRecord
100
AcDbViewportTableRecord
  2
*Active
 70
0
 10
0.0
 20
0.0
 11
1.0
 21
1.0
 12
0.0
 22
0.0
 13
0.0
 23
0.0
 14
0.5
 24
0.5
 15
0.5
 25
0.5
 16
0.0
 26
0.0
 36
1.0
 17
0.0
 27
0.0
 37
0.0
 40
1000.0
 41
1.34
 42
50.0
 43
0.0
 44
0.0
 50
0.0
 51
0.0
 71
0
 72
1000
 73
1
 74
3
 75
0
 76
0
 77
0
 78
0
281
0
 65
0
146
0.0
  0
ENDTAB
  0
TABLE
  2
LTYPE
  5
2
330
0
100
AcDbSymbolTable
 70
3
  0
LTYPE
  5
24
330
2
100
AcDbSymbolTableRecord
100
AcDbLinetypeTableRecord
  2
ByBlock
 70
0
  3

 72
65
 73
0
 40
0.0
  0
LTYPE
  5
25
330
2
100
AcDbSymbolTableRecord
100
AcDbLinetypeTableRecord
  2
ByLayer
 70
0
  3

 72
65
 73
0
 40
0.0
  0
LTYPE
  5
26
330
2
100
AcDbSymbolTableRecord
100
AcDbLinetypeTableRecord
  2
Continuous
 70
0
  3

 72
65
 73
0
 40
0.0
  0
ENDTAB
  0
TABLE
  2
LAYER
  5
1
330
0
100
AcDbSymbolTable
 70
2
  0
LAYER
  5
27
330
1
100
AcDbSymbolTableRecord
100
AcDbLayerTableRecord
  2
0
 70
0
 62
7
  6
Continuous
370
-3
390
13
347
21
  0
LAYER
  5
28
330
1
100
AcDbSymbolTableRecord
100
AcDbLayerTableRecord
  2
Defpoints
 70
0
 62
7
  6
Continuous
290
0
370
-3
390
13
347
21
  0
ENDTAB
  0
TABLE
  2
STYLE
  5
5
330
0
100
AcDbSymbolTable
 70
1
  0
STYLE
  5
29
330
5
100
AcDbSymbolTableRecord
100
AcDbTextStyleTableRecord
  2
Standard
 70
0
 40
0.0
 41
1.0
 50
0.0
 71
0
 42
2.5
  3
txt
  4

  0
ENDTAB
  0
TABLE
  2
VIEW
  5
7
330
0
100
AcDbSymbolTable
 70
0
  0
ENDTAB
  0
TABLE
  2
UCS
  5
6
330
0
100
AcDbSymbolTable
 70
0
  0
ENDTAB
  0
TABLE
  2
APPID
  5
3
330
0
100
AcDbSymbolTable
 70
3
  0
APPID
  5
2A
330
3
100
AcDbSymbolTableRecord
100
AcDbRegAppTableRecord
  2
ACAD
 70
0
  0
APPID
  5
30
330
3
100
AcDbSymbolTableRecord
100
AcDbRegAppTableRecord
  2
HATCHBACKGROUNDCOLOR
 70
0
  0
APPID
  5
31
330
3
100
AcDbSymbolTableRecord
100
AcDbRegAppTableRecord
  2
EZDXF
 70
0
  0
ENDTAB
  0
TABLE
  2
DIMSTYLE
  5
4
330
0
100
AcDbSymbolTable
 70
1
100
AcDbDimStyleTable
  0
DIMSTYLE
105
2B
330
4
100
AcDbSymbolTableRecord
100
AcDbDimStyleTableRecord
  2
Standard
 70
0
 40
1.0
 41
2.5
 42
0.625
 43
3.75
 44
1.25
 45
0.0
 46
0.0
 47
0.0
 48
0.0
 49
2.5
140
2.5
141
2.5
142
0.0
143
0.03937007874
144
1.0
145
0.0
146
1.0
147
0.625
148
0.0
 69
0
 70
0
 71
0
 72
0
 73
0
 74
0
 75
0
 76
0
 77
1
 78
8
 79
3
170
0
171
3
172
1
173
0
174
0
175
0
176
0
177
0
178
0
179
2
271
2
272
2
273
2
274
3
275
0
276
0
277
2
278
44
279
0
280
0
281
0
282
0
283
0
284
8
285
0
286
0
288
0
289
3
290
0
371
-2
372
-2
  0
ENDTAB
  0
TABLE
  2
BLOCK_RECORD
  5
9
330
0
100
AcDbSymbolTable
 70
2
  0
BLOCK_RECORD
  5
17
330
9
100
AcDbSymbolTableRecord
100
AcDbBlockTableRecord
  2
*Model_Space
340
1A
 70
0
280
1
281
0
  0
BLOCK_RECORD
  5
1B
330
9
100
AcDbSymbolTableRecord
100
AcDbBlockTableRecord
  2
*Paper_Space
340
1E
 70
0
280
1
281
0
  0
ENDTAB
  0
ENDSEC
  0
SECTION
  2
BLOCKS
  0
BLOCK
  5
18
330
17
100
AcDbEntity
  8
0
100
AcDbBlockBegin
  2
*Model_Space
 70
0
 10
0.0
 20
0.0
 30
0.0
  3
*Model_Space
  1

  0
ENDBLK
  5
19
330
17
100
AcDbEntity
  8
0
100
AcDbBlockEnd
  0
BLOCK
  5
1C
330
1B
100
AcDbEntity
  8
0
100
AcDbBlockBegin
  2
*Paper_Space
 70
0
 10
0.0
 20
0.0
 30
0.0
  3
*Paper_Space
  1

  0
ENDBLK
  5
1D
330
1B
100
AcDbEntity
  8
0
100
AcDbBlockEnd
  0
ENDSEC
  0
SECTION
  2
ENTITIES
  0
LWPOLYLINE
  5
2F
330
17
100
AcDbEntity
  8
0
100
AcDbPolyline
 90
721
 70
1
 10
69.30637273222432
 20
10.998409562536487
 10
69.30429241886785
 20
10.99882176377147
 10
69.29808430987168
 20
10.999851482781692
 10
69.2878140673825
 20
11.001084950177702
 10
69.27334541797963
 20
11.002712635117573
 10
69.2549344929677
 20
11.00445704163253
 10
69.23246143446282
 20
11.006405196533288
 10
69.2058392156542
 20
11.00843724193581
 10
69.17527472123656
 20
11.01058600891343
 10
69.14068092439922
 20
11.012731639582118
 10
69.10192155172155
 20
11.01506460309994
 10
69.05923631897146
 20
11.01741084584549
 10
69.0125217838017
 20
11.01975395228211
 10
68.96176153067559
 20
11.022197364757165
 10
68.90698839066644
 20
11.024534198575926
 10
68.84816953270092
 20
11.026971338433118
 10
68.78542481466306
 20
11.02942175751804
 10
68.71865079420549
 20
11.031869040294032
 10
68.64783105579157
 20
11.03441662910846
 10
68.57310187284199
 20
11.036874054803258
 10
68.49432697193602
 20
11.039431786536479
 10
68.41153918414703
 20
11.041882939613416
 10
68.3249125630964
 20
11.044467229802105
 10
68.23415319727867
 20
11.0470319681452
 10
68.139571413736
 20
11.049626401252688
 10
68.04096032777362
 20
11.052217698051244
 10
67.9384233817389
 20
11.054822274077534
 10
67.83196057563183
 20
11.057440129331555
 10
67.72155549391579
 20
11.060174706160666
 10
67.6072081365907
 20
11.063026004564867
 10
67.48895133472998
 20
11.06578713984944
 10
67.36675225726022
 20
11.068664996709101
 10
67.24073076206552
 20
11.071572548333162
 10
67.1107669912618
 20
11.074596821532309
 10
66.97689377592242
 20
11.077530931611827
 10
66.83918172732135
 20
11.080598178803092
 10
66.697614429922
 20
11.083902005453476
 10
66.55224113033438
 20
11.087132084520892
 10
66.40292555513774
 20
11.090478885163398
 10
66.24989100456345
 20
11.093871796106953
 10
66.09291417838017
 20
11.097381428625601
 10
65.93220196128263
 20
11.101040613792664
 10
65.76765091092345
 20
11.104832936071478
 10
65.59936446964998
 20
11.108774810998703
 10
65.42725561065153
 20
11.112746380690325
 10
65.2514277762755
 20
11.116764060682998
 10
65.07174469310114
 20
11.121018320134782
 10
64.88842966135987
 20
11.125438547771637
 10
64.7013792387043
 20
11.13000832805691
 10
64.51059342513449
 20
11.134727660990594
 10
64.31607222065037
 20
11.139596546572692
 10
64.1179026520627
 20
11.144734842687225
 10
63.91599769256076
 20
11.150022691450173
 10
63.710444368955216
 20
11.155579950745553
 10
63.50125909678278
 20
11.161303178226008
 10
63.288474707116734
 20
11.166985489196813
 10
63.072161811231126
 20
11.172850183889352
 10
62.8521841357053
 20
11.179087731461687
 10
62.62854168053924
 20
11.18569813191382
 10
62.401387134690275
 20
11.192387473740327
 10
62.17070408262176
 20
11.199259199288566
 10
61.93649252433369
 20
11.20631330855854
 10
61.69870321321606
 20
11.213860128592328
 10
61.45741822695224
 20
11.221382447653136
 10
61.212708176816214
 20
11.229103565972332
 10
60.96455664727132
 20
11.237126925897286
 10
60.712843780433566
 20
11.245539554238698
 10
60.457792876534306
 20
11.254270839722524
 10
60.19931690876288
 20
11.263200924464751
 10
59.93741587711924
 20
11.272329808465365
 10
59.67216039287745
 20
11.281880791955762
 10
59.40361611818415
 20
11.29144010554649
 10
59.13164677961866
 20
11.30119821839561
 10
58.85644284633905
 20
11.31129140392381
 10
58.57800431834529
 20
11.321719662131086
 10
58.296260584363374
 20
11.332259692786057
 10
58.01119522885664
 20
11.343014938236085
 10
57.72301513651977
 20
11.354018229554486
 10
57.43158403393211
 20
11.365460035899325
 10
57.13695116770367
 20
11.37703003022852
 10
56.83921998018176
 20
11.388744628078728
 10
56.5383904713664
 20
11.40060382944995
 10
56.23442981018428
 20
11.41281451903691
 10
55.9273379966354
 20
11.425376696839612
 10
55.617131446256415
 20
11.438186920510688
 10
55.304033459278685
 20
11.451174578776095
 10
54.98782073547085
 20
11.464410282909885
 10
54.66859671718027
 20
11.477910448448705
 10
54.346514093364306
 20
11.491381163887143
 10
54.02145300613889
 20
11.504909456035891
 10
53.693467651241455
 20
11.518822067473701
 10
53.36266147101932
 20
11.533135413737229
 10
53.0288604118511
 20
11.547609779058432
 10
52.69232060504149
 20
11.561967667468542
 10
52.35297638844389
 20
11.576622848357017
 10
52.01084417759488
 20
11.591471879376481
 10
51.66590755695788
 20
11.606618202874309
 10
51.31830279995352
 20
11.621871349692428
 10
50.96802990658185
 20
11.637231319830848
 10
50.614985434495445
 20
11.652681697752893
 10
50.25935985285241
 20
11.66835875687926
 10
49.90104971930537
 20
11.684246081673285
 10
49.54019130727503
 20
11.700153202976903
 10
49.17678461676137
 20
11.716080120790116
 10
48.81093309011173
 20
11.732043250649584
 10
48.44251686944212
 20
11.748129619366004
 10
48.07160656602657
 20
11.764562527170765
 10
47.69814798412771
 20
11.781015231485119
 10
47.32243503525095
 20
11.797640421266411
 10
46.94432649684822
 20
11.813991496051877
 10
46.563805953382854
 20
11.83017189818887
 10
46.18103104293958
 20
11.846524785792802
 10
45.795985349981756
 20
11.86315360121103
 10
45.40851123642463
 20
11.879715186328152
 10
45.019055302731
 20
11.896068318596088
 10
44.6273236373954
 20
11.912060309057491
 10
44.23347387850258
 20
11.92803431582777
 10
43.83738616816852
 20
11.944077365717622
 10
43.43928380662463
 20
11.96011884745301
 10
43.039112598133514
 20
11.975832018455192
 10
42.636943153969185
 20
11.991440178955543
 10
42.23274264305835
 20
12.00715021364879
 10
41.82659314308432
 20
12.022444910798129
 10
41.41851106958372
 20
12.037220828056192
 10
41.008621229568014
 20
12.052028008233115
 10
40.59673315387913
 20
12.066730177908212
 10
40.18303731167507
 20
12.08146361050216
 10
39.767632196175896
 20
12.0956076519308
 10
39.35050139184487
 20
12.109265744541485
 10
38.931612067608704
 20
12.122644773028942
 10
38.51091497685741
 20
12.136055064435256
 10
38.08868266643235
 20
12.149115680444298
 10
37.664773913785446
 20
12.161380020593308
 10
37.23944979934881
 20
12.173207658534347
 10
36.8124213607444
 20
12.185082974930902
 10
36.38385770246624
 20
12.196608615930188
 10
35.95382448666095
 20
12.207370812142758
 10
35.52249576694995
 20
12.217609279336658
 10
35.089648243101834
 20
12.227394628785927
 10
34.65547238427468
 20
12.236863133911248
 10
34.219881163657796
 20
12.245894936828599
 10
33.78301085467184
 20
12.254299568379915
 10
33.344964899664205
 20
12.262093444101863
 10
32.90563985628749
 20
12.269260148457775
 10
32.465242609236455
 20
12.275832512520976
 10
32.02356627381637
 20
12.281777705218145
 10
31.58078490364862
 20
12.287335442317325
 10
31.13691491426988
 20
12.292402281471157
 10
30.69203838336344
 20
12.296461010942828
 10
30.246122479855995
 20
12.299718515427067
 10
29.79935767290559
 20
12.302311068344554
 10
29.351520662280855
 20
12.304309280969328
 10
28.902851163749812
 20
12.305539099679985
 10
28.453365592849163
 20
12.30589708212917
 10
28.00308036511553
 20
12.30527978596952
 10
27.551962649475612
 20
12.303894095895755
 10
27.100099472740098
 20
12.301859869791896
 10
26.64749083490901
 20
12.29917710765795
 10
26.194289424939655
 20
12.295551897988481
 10
25.740408216021372
 20
12.290864382899484
 10
25.28596706603815
 20
12.285027535580243
 10
24.831020170727385
 20
12.278368098609505
 10
24.375414841131732
 20
12.2711799834927
 10
23.91939079301923
 20
12.263289136608426
 10
23.46297590833581
 20
12.253851603641124
 10
23.006071693861504
 20
12.24348803867497
 10
22.548868618754376
 20
12.232334715130639
 10
22.091296071740395
 20
12.220168332776758
 10
21.633370468356194
 20
12.206885449265954
 10
21.175249446686546
 20
12.19282922271364
 10
20.71684597992072
 20
12.17787979523579
 10
20.258312757016085
 20
12.16174325532698
 10
19.79954633562527
 20
12.144403187450555
 10
19.340737184906338
 20
12.125995865027196
 10
18.88186888932262
 20
12.106624730404258
 10
18.422990695484117
 20
12.085979456539661
 10
17.964086187854143
 20
12.064163485780766
 10
17.505242393243428
 20
12.041296676011596
 10
17.046306622694605
 20
12.017672938737576
 10
16.587584254122362
 20
11.992704450947851
 10
16.129075287526714
 20
11.966391212642431
 10
15.67076330737099
 20
11.938836666168672
 10
15.212631898118527
 20
11.910144253873934
 10
14.75480091765336
 20
11.88022694894752
 10
14.29715050809145
 20
11.84917177820013
 10
13.839903969664196
 20
11.816908130357719
 10
13.383094133444907
 20
11.783229120725569
 10
12.926704583896933
 20
11.748238191651044
 10
12.470718905483603
 20
11.712038785481498
 10
12.015153513741591
 20
11.674527459869573
 10
11.560248124438925
 20
11.635530161193868
 10
11.105866464154929
 20
11.595237358612446
 10
10.652079144163649
 20
11.553872352356684
 10
10.198864799801019
 20
11.510901515153126
 10
9.746397484688442
 20
11.466564562769804
 10
9.29462795221594
 20
11.42117182224881
 10
8.843502006646137
 20
11.374396551011397
 10
8.393259363747065
 20
11.326064695436163
 10
7.943867192445409
 20
11.276383140217828
 10
7.495254881467129
 20
11.225128585125011
 10
7.047596484433623
 20
11.172540745925758
 10
6.600821390070867
 20
11.118396322388683
 10
6.155120067536902
 20
11.06283158793447
 10
5.710236385527031
 20
11.006124038531881
 10
5.266410059809301
 20
10.948099620559514
 10
4.823706752530353
 20
10.888344564627923
 10
4.382110048153521
 20
10.826962313084472
 10
3.941674142416197
 20
10.764279608507904
 10
3.5024154508550303
 20
10.700193008550855
 10
3.064350389006686
 20
10.634599070865969
 10
2.627582399218526
 20
10.5675142109899
 10
2.191975208069867
 20
10.499128898080718
 10
1.757599426834744
 20
10.4296664323698
 10
1.3246241600071718
 20
10.358729460004366
 10
0.893082238660466
 20
10.286111096289687
 10
0.4629408317212981
 20
10.212018225920488
 10
0.03428696600038904
 20
10.136570706780796
 10
-0.3929828008496495
 20
10.059752123333945
 10
-0.8187814420180894
 20
9.98168233346396
 10
-1.2430219306942583
 20
9.90248119505486
 10
-1.6657420470788469
 20
9.82171852318054
 10
-2.0868383488245152
 20
9.73941073337766
 10
-2.5062894712671917
 20
9.65609145291969
 10
-2.9241660256809214
 20
9.571537381575244
 10
-3.3402447118343246
 20
9.485677908070281
 10
-3.754732414422121
 20
9.398480201331486
 10
-4.167422248749583
 20
9.309977092432174
 10
-4.578243603542677
 20
9.220391881603728
 10
-4.987419779032778
 20
9.129795180120192
 10
-5.394765255189235
 20
9.037686191781418
 10
-5.800171640537275
 20
8.944718401744895
 10
-6.203775208497585
 20
8.851082279168686
 10
-6.605580908197569
 20
8.756140754431962
 10
-7.005278412595136
 20
8.659943074144707
 10
-7.403020410647631
 20
8.562783149812338
 10
-7.798823317891718
 20
8.464764423782222
 10
-8.192654303254068
 20
8.365680011359636
 10
-8.584322897576623
 20
8.265666185965259
 10
-8.974035985554105
 20
8.164690116525776
 10
-9.361635929101773
 20
8.063094961156585
 10
-9.747089897146312
 20
7.960673835162968
 10
-10.130381474151054
 20
7.857323296197561
 10
-10.51152707565266
 20
7.753146786607729
 10
-10.890456090377093
 20
7.64836760662485
 10
-11.26727196067171
 20
7.54296934071227
 10
-11.641734970768468
 20
7.436777935248584
 10
-12.013845120667375
 20
7.32979339023379
 10
-12.383689437179116
 20
7.221895847783866
 10
-12.751180893493002
 20
7.113205165782838
 10
-13.116368736219016
 20
7.00403167127279
 10
-13.47916593854645
 20
6.894495222137739
 10
-13.839506838328665
 20
6.784182048988245
 10
-14.197494877913023
 20
6.673075736287641
 10
-14.55280331472078
 20
6.561122088298555
 10
-14.905688280056635
 20
6.448598600989743
 10
-15.256166189457257
 20
6.33560871670857
 10
-15.604030158227914
 20
6.22218526652836
 10
-15.949263770831951
 20
6.108224808101746
 10
-16.29192122300675
 20
5.993400598849986
 10
-16.631964734551584
 20
5.878142823699185
 10
-16.96944355207644
 20
5.76276180969143
 10
-17.304172155550656
 20
5.64675676062657
 10
-17.636253987321584
 20
5.5301112609679475
 10
-17.965514993767833
 20
5.413065026483605
 10
-18.29205861723676
 20
5.295601641636885
 10
-18.615901273265028
 20
5.177824548775146
 10
-18.936890272895283
 20
5.059439836392964
 10
-19.25505844720086
 20
4.940654389185062
 10
-19.57040579618175
 20
4.821468207151444
 10
-19.882997981984598
 20
4.702295059681551
 10
-20.192611704378024
 20
4.583064335501345
 10
-20.499404601446763
 20
4.463432876495419
 10
-20.803240399770143
 20
4.343210213505712
 10
-21.104081319147426
 20
4.222826531458329
 10
-21.40206363299931
 20
4.1024722995113345
 10
-21.69701823683179
 20
3.981750163811941
 10
-21.988874519370817
 20
3.860883424591533
 10
-22.277855780847787
 20
3.739942693124151
 10
-22.56375513656797
 20
3.6189608004831175
 10
-22.84652333992138
 20
3.497627419626344
 10
-23.126209637518006
 20
3.376252877595918
 10
-23.402830444894505
 20
3.2549406167392005
 10
-23.676369346514218
 20
3.13358719470883
 10
-23.946722900029776
 20
3.012209027041468
 10
-24.213874689904532
 20
2.8907026713897506
 10
-24.4779445740225
 20
2.7691551545643813
 10
-24.738725667688964
 20
2.6475993076386786
 10
-24.996250801977226
 20
2.5262420153073677
 10
-25.25069403050871
 20
2.4048435618024033
 10
-25.501745026241323
 20
2.283453193733767
 10
-25.749490815985762
 20
2.1619510532174386
 10
-25.993997061888678
 20
2.040750909642861
 10
-26.23526376395006
 20
1.9198527630100364
 10
-26.47315464874923
 20
1.7990661441609015
 10
-26.70765330074953
 20
1.6782876107480966
 10
-26.938846746761662
 20
1.5573973048875962
 10
-27.1666101797742
 20
1.4369452693895324
 10
-27.391030626597857
 20
1.31681164636988
 10
-27.61207525615929
 20
1.1967895511339182
 10
-27.829640626111157
 20
1.0768953992183068
 10
-28.04375956752677
 20
0.957336075317769
 10
-28.254399249332817
 20
0.8379046947375821
 10
-28.46157608706595
 20
0.7187046998251081
 10
-28.66530649626283
 20
0.5998395329277058
 10
-28.86545420350277
 20
0.4811187248873138
 10
-29.06206845539577
 20
0.36285260274601977
 10
-29.255187032142523
 20
0.2446109815777132
 10
-29.444772153542328
 20
0.12682404630850294
 10
-29.63080740405853
 20
0.0093883545910255
 10
-29.813276368154444
 20
-0.10779953592207744
 10
-29.992075603482732
 20
-0.22472320969414933
 10
-30.167324967927406
 20
-0.3412956399144867
 10
-30.338970265751087
 20
-0.4571900840043451
 10
-30.506978665880453
 20
-0.5726134266584464
 10
-30.671350168315502
 20
-0.687565667876793
 10
-30.83220463094026
 20
-0.8019597808486815
 10
-30.989318753523346
 20
-0.9158663768481538
 10
-31.142828809485437
 20
-1.0290949867171468
 10
-31.292664187552493
 20
-1.1414223102242775
 10
-31.438928330071885
 20
-1.2528647629062062
 10
-31.581484963622916
 20
-1.363612813920995
 10
-31.720453946089613
 20
-1.4735794364579435
 10
-31.855628392777252
 20
-1.5827317994437287
 10
-31.987248019453887
 20
-1.6908958492569528
 10
-32.11512235696144
 20
-1.797935312476929
 10
-32.23932201657397
 20
-1.904073489335044
 10
-32.35984699829146
 20
-2.009310379831295
 10
-32.47669730211392
 20
-2.113645983965683
 10
-32.5898023167673
 20
-2.216857001506826
 10
-32.69916204225161
 20
-2.318943432454722
 10
-32.80483067430422
 20
-2.4202320193881164
 10
-32.90675401718776
 20
-2.5203960197282655
 10
-33.00486640875559
 20
-2.619849202864614
 10
-33.09923351115434
 20
-2.718177799407717
 10
-33.18978966223737
 20
-2.8157955787470184
 10
-33.27656769307802
 20
-2.912495656187799
 10
-33.359567603676254
 20
-3.0082780317300544
 10
-33.43866953614809
 20
-3.1032297321844893
 10
-33.514113206261534
 20
-3.197176703929697
 10
-33.58553904036456
 20
-3.2903800273977857
 10
-33.65329019657254
 20
-3.3826820645040128
 10
-33.71714337465411
 20
-3.4741534265224168
 10
-33.77714782121923
 20
-3.5644837864109133
 10
-33.83337414754196
 20
-3.6538964444008863
 10
-33.8857353268116
 20
-3.7422715426083157
 10
-33.934297021174785
 20
-3.829195311643754
 10
-33.9791134263689
 20
-3.914994494085944
 10
-34.020113931119894
 20
-3.999445789703506
 10
-34.05733136650109
 20
-4.082342313801714
 10
-34.09083139465914
 20
-4.163270296991123
 10
-34.12061401559404
 20
-4.2422297392717345
 10
-34.14681550272647
 20
-4.319030171485482
 10
-34.169311049045014
 20
-4.393121550822242
 10
-34.18826975904366
 20
-4.464106523429225
 10
-34.20395923043639
 20
-4.530967081369478
 10
-34.21628748728511
 20
-4.592946297138147
 10
-34.225620620523735
 20
-4.648405508714111
 10
-34.2323247210862
 20
-4.695706054076245
 10
-34.236586877157634
 20
-4.732332485814553
 10
-34.23892091950191
 20
-4.7557151607816515
 10
-34.13597462930452
 20
-5.417127097965732
 10
-34.133172032334954
 20
-5.422090762484621
 10
-34.12478065696296
 20
-5.436878313693925
 10
-34.110866165335146
 20
-5.461075982204196
 10
-34.09104605098094
 20
-5.4964258723839245
 10
-34.06518247232518
 20
-5.54513310460102
 10
-34.034025594926874
 20
-5.601802261256023
 10
-33.997980858075124
 20
-5.663210214044067
 10
-33.95746854844123
 20
-5.728045043522772
 10
-33.9127299499477
 20
-5.794118044860884
 10
-33.86380936007714
 20
-5.860481821395491
 10
-33.81099574120756
 20
-5.926651992463105
 10
-33.754251313138234
 20
-5.9921983731376205
 10
-33.69364173801583
 20
-6.056707194029591
 10
-33.62919984691363
 20
-6.119971570444292
 10
-33.560925639831666
 20
-6.1819915023817265
 10
-33.48893897465394
 20
-6.242679963031191
 10
-33.41316924010642
 20
-6.301813652161302
 10
-33.333600020652455
 20
-6.359496012119423
 10
-33.25035117417606
 20
-6.415640016094851
 10
-33.163286427256544
 20
-6.470436133245649
 10
-33.072422195430576
 20
-6.523780921224454
 10
-32.977998194466196
 20
-6.575500326409868
 10
-32.87965485071134
 20
-6.625855429233992
 10
-32.77771890674475
 20
-6.674792033959443
 10
-32.671967062335064
 20
-6.722380751860268
 10
-32.562519175366255
 20
-6.768534556125759
 10
-32.44939166137503
 20
-6.813150004408559
 10
-32.3325352737514
 20
-6.856537423750751
 10
-32.21198284356867
 20
-6.898489929457612
 10
-32.087668708680205
 20
-6.939421290918588
 10
-31.959642115695985
 20
-6.979021181091596
 10
-31.827973675890053
 20
-7.017512900208017
 10
-31.69255994691504
 20
-7.054880032731193
 10
-31.553368097697646
 20
-7.091329463355844
 10
-31.41051798612187
 20
-7.126774165271273
 10
-31.26399319665106
 20
-7.161317580824838
 10
-31.113793729285224
 20
-7.1949597100165406
 10
-30.959766895067006
 20
-7.227994464351804
 10
-30.802135994227797
 20
-7.260351232556589
 10
-30.640710557609534
 20
-7.291893741210212
 10
-30.475697469906937
 20
-7.322654821385996
 10
-30.30696045769932
 20
-7.352824942241999
 10
-30.13460296333405
 20
-7.382420519314887
 10
-29.95853796000043
 20
-7.411321694720634
 10
-29.778901721119137
 20
-7.43933799930118
 10
-29.59557438880615
 20
-7.466556459867224
 10
-29.40874643221953
 20
-7.493113349839449
 10
-29.218314409011924
 20
-7.518992253681195
 10
-29.024278319183317
 20
-7.544193171392463
 10
-28.826687409343698
 20
-7.568405775931166
 10
-28.62564512184043
 20
-7.591646482833966
 10
-28.421048014326157
 20
-7.613898876564204
 10
-28.2129666980749
 20
-7.635386257353259
 10
-28.001401173086688
 20
-7.656108625201137
 10
-27.78641710150814
 20
-7.675652210718386
 10
-27.5680850946133
 20
-7.694240314136395
 10
-27.346318125591473
 20
-7.711753077571136
 10
-27.121099778905997
 20
-7.728293943369976
 10
-26.892533496904232
 20
-7.743879327069572
 10
-26.660635695122835
 20
-7.758405786322566
 10
-26.425389958025157
 20
-7.7719767634763155
 10
-26.186796285611187
 20
-7.784592258530823
 10
-25.94487109341759
 20
-7.796148829138725
 10
-25.699701408255063
 20
-7.806766333184047
 10
-25.451287230123615
 20
-7.816444770666784
 10
-25.199541532212532
 20
-7.82506428370292
 10
-24.944638368143227
 20
-7.832864588060494
 10
-24.686490711104994
 20
-7.839725825855485
 10
-24.425082145561174
 20
-7.845751439435257
 10
-24.16053252939579
 20
-7.850854401989108
 10
-23.892891109218823
 20
-7.854724386474952
 10
-23.622108638420286
 20
-7.8576717199348725
 10
-23.3480488435795
 20
-7.859886871526935
 10
-23.07103846727522
 20
-7.861315645513759
 10
-22.790903455886028
 20
-7.861718326127299
 10
-22.507660224948594
 20
-7.860991471020195
 10
-22.221482828084312
 20
-7.859374795960489
 10
-21.93225140740918
 20
-7.856955327758885
 10
-21.63999879399649
 20
-7.8535261817206585
 10
-21.344828430193626
 20
-7.849103773382467
 10
-21.046756731537236
 20
-7.843584660396955
 10
-20.74573445141735
 20
-7.8372791698062025
 10
-20.44179442090728
 20
-7.829980416915487
 10
-20.1349038089337
 20
-7.821895286419535
 10
-19.825318746801326
 20
-7.812746282349576
 10
-19.512815934278773
 20
-7.802604015979658
 10
-19.197498813713395
 20
-7.791484902846437
 10
-18.879454411915905
 20
-7.779508800833938
 10
-18.558612117612245
 20
-7.766452409710773
 10
-18.235042542076474
 20
-7.7525390297083305
 10
-17.908865543192597
 20
-7.737681634015908
 10
-17.57990706733923
 20
-7.721640506865458
 10
-17.248373999211086
 20
-7.704448479330306
 10
-16.914217092198182
 20
-7.686415878452534
 10
-16.57743634630052
 20
-7.667542704232144
 10
-16.238031761518098
 20
-7.647828956669134
 10
-15.896156026808262
 20
-7.626980724258082
 10
-15.551841973244334
 20
-7.604791122304261
 10
-15.20492049633231
 20
-7.581657504660462
 10
-14.855598480766911
 20
-7.557612702400002
 10
-14.503805315274095
 20
-7.532433415291498
 10
-14.14967727327455
 20
-7.50592917417689
 10
-13.79316510815829
 20
-7.478410306098258
 10
-13.434339431199353
 20
-7.450100111286991
 10
-13.07312963112371
 20
-7.420775289511702
 10
-12.709584954541329
 20
-7.3901255137303075
 10
-12.343879455073619
 20
-7.358390499710851
 10
-11.97599671718392
 20
-7.325673689800693
 10
-11.605729856177504
 20
-7.291942252926516
 10
-11.233405614633122
 20
-7.2571419933509365
 10
-10.858953381276732
 20
-7.221049610842572
 10
-10.48237315610833
 20
-7.183665105401423
 10
-10.103751965938622
 20
-7.145108334911511
 10
-9.723007733084307
 20
-7.105896511109645
 10
-9.340293146502717
 20
-7.065735722490399
 10
-8.955570425993145
 20
-7.0241957841276665
 10
-8.568823156018924
 20
-6.981380138368812
 10
-8.180258221274777
 20
-6.937321616287151
 10
-7.789706517266703
 20
-6.892417571735475
 10
-7.397304317415383
 20
-6.846477535555716
 10
-7.0030516217208145
 20
-6.799501507747879
 10
-6.606981261256328
 20
-6.751282603617238
 10
-6.209076820485254
 20
-6.701924265511155
 10
-5.809512353028997
 20
-6.651666209197676
 10
-5.408113805266157
 20
-6.600268718908753
 10
-5.005120892964769
 20
-6.547557741022986
 10
-4.600517200588184
 20
-6.493636717887738
 10
-4.194286312599738
 20
-6.438609091850369
 10
-3.786341202188726
 20
-6.382355005026857
 10
-3.377025027470562
 20
-6.324716819332461
 10
-2.966250761634536
 20
-6.265574676883158
 10
-2.553816469113324
 20
-6.205532816226458
 10
-2.139945450138319
 20
-6.14452062608832
 10
-1.7248396402768338
 20
-6.081933867921235
 10
-1.3082429082241729
 20
-6.018050037693965
 10
-0.8902422807910286
 20
-5.952988993290535
 10
-0.4710774737454518
 20
-5.886576681089541
 10
-0.05055801792938038
 20
-5.818676827670302
 10
0.37110920196246344
 20
-5.749322264106138
 10
0.7940932904240898
 20
-5.678910344249834
 10
1.2182579740348025
 20
-5.607250598943329
 10
1.6434177327639594
 20
-5.533842231986474
 10
2.0697252555688754
 20
-5.4589791548846955
 10
2.4971427622488576
 20
-5.383091552564097
 10
2.9255175638465385
 20
-5.305885513519259
 10
3.354936687172644
 20
-5.227241179866153
 10
3.7853295209531153
 20
-5.147381851836171
 10
4.216630403041316
 20
-5.065893760039859
 10
4.648839333437253
 20
-4.982776904477219
 10
5.081918531940195
 20
-4.898461470074359
 10
5.515780971739446
 20
-4.813067314715303
 10
5.950513679645708
 20
-4.726474580516024
 10
6.385963966701639
 20
-4.638389355971103
 10
6.822164663980552
 20
-4.549018525775259
 10
7.259115771482462
 20
-4.458362089928495
 10
7.696713846859994
 20
-4.366436463967469
 10
8.134909643503171
 20
-4.272931320850098
 10
8.573735992485318
 20
-4.178053545271103
 10
9.013051671258347
 20
-4.082249737693256
 10
9.453047148980318
 20
-3.98538362469587
 10
9.89346629434654
 20
-3.887177710310182
 10
10.334428965241026
 20
-3.7877190213468936
 10
10.775728276969055
 20
-3.687040388879326
 10
11.217484087414647
 20
-3.5852288397181806
 10
11.659679981041137
 20
-3.482180931516096
 10
12.102125488690474
 20
-3.378032937693753
 10
12.544956883783335
 20
-3.272975327409214
 10
12.98815775078306
 20
-3.166904658315121
 10
13.431504789458259
 20
-3.0597503191374305
 10
13.875117857692967
 20
-2.9515993366868436
 10
14.318926344213132
 20
-2.842675011194744
 10
14.76296802921947
 20
-2.732547157735029
 10
15.207068859090597
 20
-2.6214554920757354
 10
15.651261664899819
 20
-2.509606898911592
 10
16.09553003111048
 20
-2.396897935895235
 10
16.539841126649264
 20
-2.283121718331941
 10
16.984227782589493
 20
-2.168485130916434
 10
17.428515945309737
 20
-2.0532278894167595
 10
17.872776226084078
 20
-1.9371266936015297
 10
18.31695442917511
 20
-1.820508286049493
 10
18.761001307972855
 20
-1.7030623397185651
 10
19.204900446940666
 20
-1.5846854122613823
 10
19.648684677151845
 20
-1.4655843883726696
 10
20.09219636052165
 20
-1.3461024261678325
 10
20.53553893939747
 20
-1.2262231101102075
 10
20.978559724821928
 20
-1.105652528694376
 10
21.421275132331708
 20
-0.9844941242676934
 10
21.8636851619268
 20
-0.8627478968301637
 10
22.305806229143865
 20
-0.7405172887291483
 10
22.747415033751523
 20
-0.6177316886906041
 10
23.188631433633805
 20
-0.49447812352523357
 10
23.629368401979978
 20
-0.37087645111706147
 10
24.069762212210765
 20
-0.24711714062414475
 10
24.50954031748476
 20
-0.12281925373036401
 10
24.948719133338653
 20
0.001913767216922414
 10
25.387484179803113
 20
0.1265811260175683
 10
25.825530078963425
 20
0.2517706456824194
 10
26.262840415282955
 20
0.3775857685588384
 10
26.699617124329013
 20
0.5034222560993173
 10
27.1356861524802
 20
0.62904039253581
 10
27.571052448863917
 20
0.755077247489148
 10
28.00562898666945
 20
0.8814129630753066
 10
28.43931232354947
 20
1.0080311237576305
 10
28.872238732924618
 20
1.1347412603780513
 10
29.304321187984222
 20
1.2614235150525506
 10
29.735576104264936
 20
1.3879744454337661
 10
30.165867208346075
 20
1.5145845206797603
 10
30.595161669154308
 20
1.641460625485254
 10
31.02350873329965
 20
1.7682924328081686
 10
31.45090840078206
 20
1.8950799426484974
 10
31.877170202443494
 20
2.021686881585561
 10
32.302501022978674
 20
2.14814608069268
 10
32.72664473108289
 20
2.274735035938619
 10
33.14961774229282
 20
2.4013503049760145
 10
33.57150213429175
 20
2.52747467606806
 10
33.99228149154301
 20
2.653211591562117
 10
34.41171609827859
 20
2.778735105079588
 10
34.83002925472986
 20
2.9039746053464333
 10
35.246997660665414
 20
3.029000703636689
 10
35.662724758432645
 20
3.1538298154870206
 10
36.07713993675747
 20
3.2782386406660415
 10
36.49013975329258
 20
3.4022107636370933
 10
36.901860481458634
 20
3.5255557152421133
 10
37.31204598995091
 20
3.6485509914498624
 10
37.72090316346414
 20
3.7712294233336627
 10
38.12820870176696
 20
3.8936616221675577
 10
38.53406109807932
 20
4.015226933867375
 10
38.938356910053855
 20
4.135908942896455
 10
39.341204529165324
 20
4.256361134412287
 10
39.742277212835
 20
4.376637704152254
 10
40.14191317005087
 20
4.495943944410783
 10
40.53988910058156
 20
4.6143504664619135
 10
40.93613934228042
 20
4.732271039695092
 10
41.330663895147445
 20
4.849705664110317
 10
41.72347917471934
 20
4.966550897360234
 10
42.11466725867933
 20
5.082289527708025
 10
42.50398843125943
 20
5.1970956087751
 10
42.89160033054438
 20
5.311312298676859
 10
43.27729607183943
 20
5.424906766339987
 10
43.66110848621792
 20
5.537672127069757
 10
44.043070404753166
 20
5.64940149617145
 10
44.42314899637183
 20
5.76030175833978
 10
44.80124081872657
 20
5.8703564980380945
 10
45.17748214523807
 20
5.979375246108331
 10
45.551666091211615
 20
6.087325171477164
 10
45.92384685238456
 20
6.194533016723342
 10
46.29381754406217
 20
6.30096595077354
 10
46.66192132435991
 20
6.406466335543023
 10
47.0277772549616
 20
6.51076162419042
 10
47.391592220561996
 20
6.613884647789057
 10
47.75334980562441
 20
6.715938848686289
 10
48.1128102943808
 20
6.817098280503522
 10
48.46999010236786
 20
6.917259500893397
 10
48.825112529816934
 20
7.016351898581868
 10
49.17788366522264
 20
7.114222784611597
 10
49.52843978200563
 20
7.2106816898245185
 10
49.87662819120855
 20
7.306022525726058
 10
50.22253591964213
 20
7.400365150200236
 10
50.56607594049564
 20
7.4935897053630285
 10
50.907248253769104
 20
7.585696191214439
 10
51.24599866372515
 20
7.676357865175725
 10
51.582381366101146
 20
7.7659014698256295
 10
51.916205891739
 20
7.854190731743463
 10
52.2475428519128
 20
7.941448951160617
 10
52.57644149323249
 20
8.027365801035005
 10
52.90281478888741
 20
8.111821423482608
 10
53.22661349226752
 20
8.195126145545501
 10
53.547837603372884
 20
8.277279967223695
 10
53.86648712220345
 20
8.358282888517184
 10
54.18238799513785
 20
8.437895193657928
 10
54.49577993794411
 20
8.515942829024517
 10
54.80647743059158
 20
8.592926590817104
 10
55.11439344626953
 20
8.668726621151668
 10
55.419631427325356
 20
8.743359335564866
 10
55.72212076248502
 20
8.816601433825317
 10
56.02174159386447
 20
8.888539942743725
 10
56.31868439062177
 20
8.959311135740764
 10
56.612791514672196
 20
9.028571854701033
 10
56.904030134942424
 20
9.096528984319258
 10
57.19241666696912
 20
9.163079082248073
 10
57.4779018641423
 20
9.228532475529567
 10
57.760518557535256
 20
9.292682279469009
 10
58.04016330480067
 20
9.355512078529749
 10
58.31685252147519
 20
9.416918430364417
 10
58.59067323436948
 20
9.477021192857038
 10
58.8614021432522
 20
9.535890977281651
 10
59.12903924812335
 20
9.593527783638264
 10
59.393704406866924
 20
9.649844585116165
 10
59.655414035019604
 20
9.704737939367998
 10
59.91391200127667
 20
9.758485342362526
 10
60.16930174798549
 20
9.811103209636409
 10
60.42163252175606
 20
9.862281214147565
 10
60.67078446470432
 20
9.912106382706687
 10
60.91672474575701
 20
9.96078560000851
 10
61.159589638334744
 20
10.00812839689496
 10
61.39918867327952
 20
10.053998499945367
 10
61.635592461865336
 20
10.098619209391101
 10
61.86878458855553
 20
10.142093967579529
 10
62.09866161100279
 20
10.184406358973996
 10
62.32525636028039
 20
10.225349498879773
 10
62.54855242085168
 20
10.26502682964422
 10
62.76851696164334
 20
10.303645235962065
 10
62.98516639819203
 20
10.341101275485942
 10
63.198430119223715
 20
10.377171647984472
 10
63.4083081247384
 20
10.411856353457653
 10
63.614838194936794
 20
10.44558557683159
 10
63.81793330300818
 20
10.478239460222262
 10
64.01759344895261
 20
10.509818003629672
 10
64.21383504830668
 20
10.540217764706451
 10
64.40655465872307
 20
10.569422327915944
 10
64.59585572254913
 20
10.597448108794815
 10
64.78160196636418
 20
10.624485576501117
 10
64.96382622124155
 20
10.650327846340137
 10
65.1424956561079
 20
10.675181803006593
 10
65.31774654438392
 20
10.69885697734242
 10
65.48933917030155
 20
10.721527422969022
 10
65.65736056067153
 20
10.743312997770424
 10
65.82172368868314
 20
10.764093843862602
 10
65.98254841222038
 20
10.783782934434855
 10
66.13969845786261
 20
10.802570738645246
 10
66.29331009903049
 20
10.82026678733571
 10
66.44312720441931
 20
10.837148576475014
 10
66.58937307426044
 20
10.853145494789114
 10
66.73184082385914
 20
10.868224711204688
 10
66.87063389556288
 20
10.882402641258402
 10
67.00575228937159
 20
10.89567928495026
 10
67.13717958974854
 20
10.908158084627608
 10
67.26482876988314
 20
10.919719182406437
 10
67.38866699870198
 20
10.930569462981461
 10
67.50881413408918
 20
10.940621899541991
 10
67.62515031816062
 20
10.949963518898715
 10
67.73769196645306
 20
10.958490878704282
 10
67.84642266342973
 20
10.966307421306047
 10
67.95135882462736
 20
10.97330970435665
 10
68.05248403450928
 20
10.97960117020345
 10
68.14976546200218
 20
10.98538870354118
 10
68.24313249583197
 20
10.990449004138442
 10
68.33277560515678
 20
10.994918345415932
 10
68.41836804739779
 20
10.998850923111021
 10
68.50023656513379
 20
11.002192541486329
 10
68.57817427367009
 20
11.004910369468545
 10
68.65214834193328
 20
11.007211291752379
 10
68.72227862780746
 20
11.009008281527134
 10
68.78846168894525
 20
11.010284923256158
 10
68.8506646942733
 20
11.011248101634166
 10
68.90902391721235
 20
11.011707347503096
 10
68.96340308434164
 20
11.011853130021011
 10
69.01381861119788
 20
11.01158200684055
 10
69.06023766670775
 20
11.011100862656438
 10
69.10267666640792
 20
11.010306255121312
 10
69.14122263710902
 20
11.009318042119187
 10
69.17566869411642
 20
11.008103392576754
 10
69.20610186424075
 20
11.006782164378029
 10
69.23262558982942
 20
11.005370773059672
 10
69.25503298618769
 20
11.003836387548363
 10
69.2733946645896
 20
11.002402308075489
 10
69.28783048291916
 20
11.00098150783034
 10
69.29810072540835
 20
10.999748040434328
 10
69.30429241886785
 20
10.99882176377147
 10
69.30637273222432
 20
10.998409562536487
  0
ENDSEC
  0
SECTION
  2
OBJECTS
  0
DICTIONARY
  5
A
330
0
100
AcDbDictionary
280
0
281
1
  3
ACAD_COLOR
350
B
  3
ACAD_GROUP
350
C
  3
ACAD_LAYOUT
350
D
  3
ACAD_MATERIAL
350
E
  3
ACAD_MLEADERSTYLE
350
F
  3
ACAD_MLINESTYLE
350
10
  3
ACAD_PLOTSETTINGS
350
11
  3
ACAD_PLOTSTYLENAME
350
12
  3
ACAD_SCALELIST
350
14
  3
ACAD_TABLESTYLE
350
15
  3
ACAD_VISUALSTYLE
350
16
  3
EZDXF_META
350
2D
  0
DICTIONARY
  5
B
330
A
100
AcDbDictionary
280
0
281
1
  0
DICTIONARY
  5
C
330
A
100
AcDbDictionary
280
0
281
1
  0
DICTIONARY
  5
D
330
A
100
AcDbDictionary
280
0
281
1
  3
Model
350
1A
  3
Layout1
350
1E
  0
DICTIONARY
  5
E
330
A
100
AcDbDictionary
280
0
281
1
  3
ByBlock
350
1F
  3
ByLayer
350
20
  3
Global
350
21
  0
DICTIONARY
  5
F
330
A
100
AcDbDictionary
280
0
281
1
  3
Standard
350
2C
  0
DICTIONARY
  5
10
330
A
100
AcDbDictionary
280
0
281
1
  3
Standard
350
22
  0
DICTIONARY
  5
11
330
A
100
AcDbDictionary
280
0
281
1
  0
ACDBDICTIONARYWDFLT
  5
12
330
A
100
AcDbDictionary
280
0
281
1
  3
Normal
350
13
100
AcDbDictionaryWithDefault
340
13
  0
ACDBPLACEHOLDER
  5
13
330
12
  0
DICTIONARY
  5
14
330
A
100
AcDbDictionary
280
0
281
1
  0
DICTIONARY
  5
15
330
A
100
AcDbDictionary
280
0
281
1
  0
DICTIONARY
  5
16
330
A
100
AcDbDictionary
280
0
281
1
  0
LAYOUT
  5
1A
330
D
100
AcDbPlotSettings
  1

  4
A3
  6

 40
7.5
 41
20.0
 42
7.5
 43
20.0
 44
420.0
 45
297.0
 46
0.0
 47
0.0
 48
0.0
 49
0.0
140
0.0
141
0.0
142
1.0
143
1.0
 70
1024
 72
1
 73
0
 74
5
  7

 75
16
 76
0
 77
2
 78
300
147
1.0
148
0.0
149
0.0
100
AcDbLayout
  1
Model
 70
1
 71
0
 10
0.0
 20
0.0
 11
420.0
 21
297.0
 12
0.0
 22
0.0
 32
0.0
 14
1e+20
 24
1e+20
 34
1e+20
 15
-1e+20
 25
-1e+20
 35
-1e+20
146
0.0
 13
0.0
 23
0.0
 33
0.0
 16
1.0
 26
0.0
 36
0.0
 17
0.0
 27
1.0
 37
0.0
 76
1
330
17
  0
LAYOUT
  5
1E
330
D
100
AcDbPlotSettings
  1

  4
A3
  6

 40
7.5
 41
20.0
 42
7.5
 43
20.0
 44
420.0
 45
297.0
 46
0.0
 47
0.0
 48
0.0
 49
0.0
140
0.0
141
0.0
142
1.0
143
1.0
 70
0
 72
1
 73
0
 74
5
  7

 75
16
 76
0
 77
2
 78
300
147
1.0
148
0.0
149
0.0
100
AcDbLayout
  1
Layout1
 70
1
 71
1
 10
0.0
 20
0.0
 11
420.0
 21
297.0
 12
0.0
 22
0.0
 32
0.0
 14
1e+20
 24
1e+20
 34
1e+20
 15
-1e+20
 25
-1e+20
 35
-1e+20
146
0.0
 13
0.0
 23
0.0
 33
0.0
 16
1.0
 26
0.0
 36
0.0
 17
0.0
 27
1.0
 37
0.0
 76
1
330
1B
  0
MATERIAL
  5
1F
102
{ACAD_REACTORS
330
E
102
}
330
E
100
AcDbMaterial
  1
ByBlock
  2

 70
0
 40
1.0
 71
1
 41
1.0
 91
-1023410177
 42
1.0
 72
1
  3

 73
1
 74
1
 75
1
 44
0.5
 73
0
 45
1.0
 46
1.0
 77
1
  4

 78
1
 79
1
170
1
 48
1.0
171
1
  6

172
1
173
1
174
1
140
1.0
141
1.0
175
1
  7

176
1
177
1
178
1
143
1.0
179
1
  8

270
1
271
1
272
1
145
1.0
146
1.0
273
1
  9

274
1
275
1
276
1
 42
1.0
 72
1
  3

 73
1
 74
1
 75
1
 94
63
  0
MATERIAL
  5
20
102
{ACAD_REACTORS
330
E
102
}
330
E
100
AcDbMaterial
  1
ByLayer
  2

 70
0
 40
1.0
 71
1
 41
1.0
 91
-1023410177
 42
1.0
 72
1
  3

 73
1
 74
1
 75
1
 44
0.5
 73
0
 45
1.0
 46
1.0
 77
1
  4

 78
1
 79
1
170
1
 48
1.0
171
1
  6

172
1
173
1
174
1
140
1.0
141
1.0
175
1
  7

176
1
177
1
178
1
143
1.0
179
1
  8

270
1
271
1
272
1
145
1.0
146
1.0
273
1
  9

274
1
275
1
276
1
 42
1.0
 72
1
  3

 73
1
 74
1
 75
1
 94
63
  0
MATERIAL
  5
21
102
{ACAD_REACTORS
330
E
102
}
330
E
100
AcDbMaterial
  1
Global
  2

 70
0
 40
1.0
 71
1
 41
1.0
 91
-1023410177
 42
1.0
 72
1
  3

 73
1
 74
1
 75
1
 44
0.5
 73
0
 45
1.0
 46
1.0
 77
1
  4

 78
1
 79
1
170
1
 48
1.0
171
1
  6

172
1
173
1
174
1
140
1.0
141
1.0
175
1
  7

176
1
177
1
178
1
143
1.0
179
1
  8

270
1
271
1
272
1
145
1.0
146
1.0
273
1
  9

274
1
275
1
276
1
 42
1.0
 72
1
  3

 73
1
 74
1
 75
1
 94
63
  0
MLINESTYLE
  5
22
102
{ACAD_REACTORS
330
10
102
}
330
10
100
AcDbMlineStyle
  2
Standard
 70
0
  3

 62
256
 51
90.0
 52
90.0
 71
2
 49
0.5
 62
256
  6
BYLAYER
 49
-0.5
 62
256
  6
BYLAYER
  0
MLEADERSTYLE
  5
2C
102
{ACAD_REACTORS
330
F
102
}
330
F
100
AcDbMLeaderStyle
179
2
170
2
171
1
172
0
 90
2
 40
0.0
 41
0.0
173
1
 91
-1056964608
 92
-2
290
1
 42
2.0
291
1
 43
8.0
  3
Standard
 44
4.0
300

342
29
174
1
175
1
176
0
178
1
 93
-1056964608
 45
4.0
292
0
297
0
 46
4.0
 94
-1056964608
 47
1.0
 49
1.0
140
1.0
294
1
141
0.0
177
0
142
1.0
295
0
296
0
143
3.75
271
0
272
9
273
9
  0
DICTIONARY
  5
2D
330
A
100
AcDbDictionary
280
1
281
1
  3
CREATED_BY_EZDXF
350
2E
  3
WRITTEN_BY_EZDXF
350
32
  0
DICTIONARYVAR
  5
2E
330
2D
100
DictionaryVariables
280
0
  1
1.3.5 @ 2025-08-20T01:05:13.800196+00:00
  0
DICTIONARYVAR
  5
32
330
2D
100
DictionaryVariables
280
0
  1
1.3.5 @ 2025-08-20T01:05:13.806180+00:00
  0
ENDSEC
  0
EOF
