  0
SECTION
  2
HEADER
  9
$ACADVER
  1
AC1032
  9
$ACADMAINTVER
 90
4
  9
$DWGCODEPAGE
  3
ANSI_1252
  9
$LASTSAVEDBY
  1
ezdxf
  9
$REQUIREDVERSIONS
160
0
  9
$INSBASE
 10
0.0
 20
0.0
 30
0.0
  9
$EXTMIN
 10
1e+20
 20
1e+20
 30
1e+20
  9
$EXTMAX
 10
-1e+20
 20
-1e+20
 30
-1e+20
  9
$LIMMIN
 10
0.0
 20
0.0
  9
$LIMMAX
 10
420.0
 20
297.0
  9
$ORTHOMODE
 70
0
  9
$REGENMODE
 70
1
  9
$FILLMODE
 70
1
  9
$QTEXTMODE
 70
0
  9
$MIRRTEXT
 70
1
  9
$LTSCALE
 40
1.0
  9
$ATTMODE
 70
1
  9
$TEXTSIZE
 40
2.5
  9
$TRACEWID
 40
1.0
  9
$TEXTSTYLE
  7
Standard
  9
$CLAYER
  8
0
  9
$CELTYPE
  6
ByLayer
  9
$CECOLOR
 62
256
  9
$CELTSCALE
 40
1.0
  9
$DISPSILH
 70
0
  9
$DIMSCALE
 40
1.0
  9
$DIMASZ
 40
2.5
  9
$DIMEXO
 40
0.625
  9
$DIMDLI
 40
3.75
  9
$DIMRND
 40
0.0
  9
$DIMDLE
 40
0.0
  9
$DIMEXE
 40
1.25
  9
$DIMTP
 40
0.0
  9
$DIMTM
 40
0.0
  9
$DIMTXT
 40
2.5
  9
$DIMCEN
 40
2.5
  9
$DIMTSZ
 40
0.0
  9
$DIMTOL
 70
0
  9
$DIMLIM
 70
0
  9
$DIMTIH
 70
0
  9
$DIMTOH
 70
0
  9
$DIMSE1
 70
0
  9
$DIMSE2
 70
0
  9
$DIMTAD
 70
1
  9
$DIMZIN
 70
8
  9
$DIMBLK
  1

  9
$DIMASO
 70
1
  9
$DIMSHO
 70
1
  9
$DIMPOST
  1

  9
$DIMAPOST
  1

  9
$DIMALT
 70
0
  9
$DIMALTD
 70
3
  9
$DIMALTF
 40
0.03937007874
  9
$DIMLFAC
 40
1.0
  9
$DIMTOFL
 70
1
  9
$DIMTVP
 40
0.0
  9
$DIMTIX
 70
0
  9
$DIMSOXD
 70
0
  9
$DIMSAH
 70
0
  9
$DIMBLK1
  1

  9
$DIMBLK2
  1

  9
$DIMSTYLE
  2
ISO-25
  9
$DIMCLRD
 70
0
  9
$DIMCLRE
 70
0
  9
$DIMCLRT
 70
0
  9
$DIMTFAC
 40
1.0
  9
$DIMGAP
 40
0.625
  9
$DIMJUST
 70
0
  9
$DIMSD1
 70
0
  9
$DIMSD2
 70
0
  9
$DIMTOLJ
 70
0
  9
$DIMTZIN
 70
8
  9
$DIMALTZ
 70
0
  9
$DIMALTTZ
 70
0
  9
$DIMUPT
 70
0
  9
$DIMDEC
 70
2
  9
$DIMTDEC
 70
2
  9
$DIMALTU
 70
2
  9
$DIMALTTD
 70
3
  9
$DIMTXSTY
  7
Standard
  9
$DIMAUNIT
 70
0
  9
$DIMADEC
 70
0
  9
$DIMALTRND
 40
0.0
  9
$DIMAZIN
 70
0
  9
$DIMDSEP
 70
44
  9
$DIMATFIT
 70
3
  9
$DIMFRAC
 70
0
  9
$DIMLDRBLK
  1

  9
$DIMLUNIT
 70
2
  9
$DIMLWD
 70
-2
  9
$DIMLWE
 70
-2
  9
$DIMTMOVE
 70
0
  9
$DIMFXL
 40
1.0
  9
$DIMFXLON
 70
0
  9
$DIMJOGANG
 40
0.785398163397
  9
$DIMTFILL
 70
0
  9
$DIMTFILLCLR
 70
0
  9
$DIMARCSYM
 70
0
  9
$DIMLTYPE
  6

  9
$DIMLTEX1
  6

  9
$DIMLTEX2
  6

  9
$DIMTXTDIRECTION
 70
0
  9
$LUNITS
 70
2
  9
$LUPREC
 70
4
  9
$SKETCHINC
 40
1.0
  9
$FILLETRAD
 40
10.0
  9
$AUNITS
 70
0
  9
$AUPREC
 70
2
  9
$MENU
  1
.
  9
$ELEVATION
 40
0.0
  9
$PELEVATION
 40
0.0
  9
$THICKNESS
 40
0.0
  9
$LIMCHECK
 70
0
  9
$CHAMFERA
 40
0.0
  9
$CHAMFERB
 40
0.0
  9
$CHAMFERC
 40
0.0
  9
$CHAMFERD
 40
0.0
  9
$SKPOLY
 70
0
  9
$TDCREATE
 40
2460908.0869675926
  9
$TDUCREATE
 40
2458532.153996898
  9
$TDUPDATE
 40
2460908.0869675926
  9
$TDUUPDATE
 40
2458532.1544311
  9
$TDINDWG
 40
0.0
  9
$TDUSRTIMER
 40
0.0
  9
$USRTIMER
 70
1
  9
$ANGBASE
 50
0.0
  9
$ANGDIR
 70
0
  9
$PDMODE
 70
0
  9
$PDSIZE
 40
0.0
  9
$PLINEWID
 40
0.0
  9
$SPLFRAME
 70
0
  9
$SPLINETYPE
 70
6
  9
$SPLINESEGS
 70
8
  9
$HANDSEED
  5
33
  9
$SURFTAB1
 70
6
  9
$SURFTAB2
 70
6
  9
$SURFTYPE
 70
6
  9
$SURFU
 70
6
  9
$SURFV
 70
6
  9
$UCSBASE
  2

  9
$UCSNAME
  2

  9
$UCSORG
 10
0.0
 20
0.0
 30
0.0
  9
$UCSXDIR
 10
1.0
 20
0.0
 30
0.0
  9
$UCSYDIR
 10
0.0
 20
1.0
 30
0.0
  9
$UCSORTHOREF
  2

  9
$UCSORTHOVIEW
 70
0
  9
$UCSORGTOP
 10
0.0
 20
0.0
 30
0.0
  9
$UCSORGBOTTOM
 10
0.0
 20
0.0
 30
0.0
  9
$UCSORGLEFT
 10
0.0
 20
0.0
 30
0.0
  9
$UCSORGRIGHT
 10
0.0
 20
0.0
 30
0.0
  9
$UCSORGFRONT
 10
0.0
 20
0.0
 30
0.0
  9
$UCSORGBACK
 10
0.0
 20
0.0
 30
0.0
  9
$PUCSBASE
  2

  9
$PUCSNAME
  2

  9
$PUCSORG
 10
0.0
 20
0.0
 30
0.0
  9
$PUCSXDIR
 10
1.0
 20
0.0
 30
0.0
  9
$PUCSYDIR
 10
0.0
 20
1.0
 30
0.0
  9
$PUCSORTHOREF
  2

  9
$PUCSORTHOVIEW
 70
0
  9
$PUCSORGTOP
 10
0.0
 20
0.0
 30
0.0
  9
$PUCSORGBOTTOM
 10
0.0
 20
0.0
 30
0.0
  9
$PUCSORGLEFT
 10
0.0
 20
0.0
 30
0.0
  9
$PUCSORGRIGHT
 10
0.0
 20
0.0
 30
0.0
  9
$PUCSORGFRONT
 10
0.0
 20
0.0
 30
0.0
  9
$PUCSORGBACK
 10
0.0
 20
0.0
 30
0.0
  9
$USERI1
 70
0
  9
$USERI2
 70
0
  9
$USERI3
 70
0
  9
$USERI4
 70
0
  9
$USERI5
 70
0
  9
$USERR1
 40
0.0
  9
$USERR2
 40
0.0
  9
$USERR3
 40
0.0
  9
$USERR4
 40
0.0
  9
$USERR5
 40
0.0
  9
$WORLDVIEW
 70
1
  9
$SHADEDGE
 70
3
  9
$SHADEDIF
 70
70
  9
$TILEMODE
 70
1
  9
$MAXACTVP
 70
64
  9
$PINSBASE
 10
0.0
 20
0.0
 30
0.0
  9
$PLIMCHECK
 70
0
  9
$PEXTMIN
 10
1e+20
 20
1e+20
 30
1e+20
  9
$PEXTMAX
 10
-1e+20
 20
-1e+20
 30
-1e+20
  9
$PLIMMIN
 10
0.0
 20
0.0
  9
$PLIMMAX
 10
420.0
 20
297.0
  9
$UNITMODE
 70
0
  9
$VISRETAIN
 70
1
  9
$PLINEGEN
 70
0
  9
$PSLTSCALE
 70
1
  9
$TREEDEPTH
 70
3020
  9
$CMLSTYLE
  2
Standard
  9
$CMLJUST
 70
0
  9
$CMLSCALE
 40
20.0
  9
$PROXYGRAPHICS
 70
1
  9
$MEASUREMENT
 70
1
  9
$CELWEIGHT
370
-1
  9
$ENDCAPS
280
0
  9
$JOINSTYLE
280
0
  9
$LWDISPLAY
290
0
  9
$INSUNITS
 70
6
  9
$HYPERLINKBASE
  1

  9
$STYLESHEET
  1

  9
$XEDIT
290
1
  9
$CEPSNTYPE
380
0
  9
$PSTYLEMODE
290
1
  9
$FINGERPRINTGUID
  2
{07FF2568-0A72-4214-AD84-34BF8B90AEA9}
  9
$VERSIONGUID
  2
{DC70D103-D1B1-45CC-98CE-B85B635F79FE}
  9
$EXTNAMES
290
1
  9
$PSVPSCALE
 40
0.0
  9
$OLESTARTUP
290
0
  9
$SORTENTS
280
127
  9
$INDEXCTL
280
0
  9
$HIDETEXT
280
1
  9
$XCLIPFRAME
280
1
  9
$HALOGAP
280
0
  9
$OBSCOLOR
 70
257
  9
$OBSLTYPE
280
0
  9
$INTERSECTIONDISPLAY
280
0
  9
$INTERSECTIONCOLOR
 70
257
  9
$DIMASSOC
280
2
  9
$PROJECTNAME
  1

  9
$CAMERADISPLAY
290
0
  9
$LENSLENGTH
 40
50.0
  9
$CAMERAHEIGHT
 40
0.0
  9
$STEPSPERSEC
 40
24.0
  9
$STEPSIZE
 40
100.0
  9
$3DDWFPREC
 40
2.0
  9
$PSOLWIDTH
 40
0.005
  9
$PSOLHEIGHT
 40
0.08
  9
$LOFTANG1
 40
1.570796326795
  9
$LOFTANG2
 40
1.570796326795
  9
$LOFTMAG1
 40
0.0
  9
$LOFTMAG2
 40
0.0
  9
$LOFTPARAM
 70
7
  9
$LOFTNORMALS
280
1
  9
$LATITUDE
 40
37.795
  9
$LONGITUDE
 40
-122.394
  9
$NORTHDIRECTION
 40
0.0
  9
$TIMEZONE
 70
-8000
  9
$LIGHTGLYPHDISPLAY
280
1
  9
$TILEMODELIGHTSYNCH
280
1
  9
$CMATERIAL
347
20
  9
$SOLIDHIST
280
0
  9
$SHOWHIST
280
1
  9
$DWFFRAME
280
2
  9
$DGNFRAME
280
2
  9
$REALWORLDSCALE
290
1
  9
$INTERFERECOLOR
 62
256
  9
$CSHADOW
280
0
  9
$SHADOWPLANELOCATION
 40
0.0
  0
ENDSEC
  0
SECTION
  2
CLASSES
  0
CLASS
  1
ACDBDICTIONARYWDFLT
  2
AcDbDictionaryWithDefault
  3
ObjectDBX Classes
 90
0
 91
0
280
0
281
0
  0
CLASS
  1
SUN
  2
AcDbSun
  3
SCENEOE
 90
1153
 91
0
280
0
281
0
  0
CLASS
  1
VISUALSTYLE
  2
AcDbVisualStyle
  3
ObjectDBX Classes
 90
4095
 91
0
280
0
281
0
  0
CLASS
  1
MATERIAL
  2
AcDbMaterial
  3
ObjectDBX Classes
 90
1153
 91
0
280
0
281
0
  0
CLASS
  1
SCALE
  2
AcDbScale
  3
ObjectDBX Classes
 90
1153
 91
0
280
0
281
0
  0
CLASS
  1
TABLESTYLE
  2
AcDbTableStyle
  3
ObjectDBX Classes
 90
4095
 91
0
280
0
281
0
  0
CLASS
  1
MLEADERSTYLE
  2
AcDbMLeaderStyle
  3
ACDB_MLEADERSTYLE_CLASS
 90
4095
 91
0
280
0
281
0
  0
CLASS
  1
DICTIONARYVAR
  2
AcDbDictionaryVar
  3
ObjectDBX Classes
 90
0
 91
0
280
0
281
0
  0
CLASS
  1
CELLSTYLEMAP
  2
AcDbCellStyleMap
  3
ObjectDBX Classes
 90
1152
 91
0
280
0
281
0
  0
CLASS
  1
MENTALRAYRENDERSETTINGS
  2
AcDbMentalRayRenderSettings
  3
SCENEOE
 90
1024
 91
0
280
0
281
0
  0
CLASS
  1
ACDBDETAILVIEWSTYLE
  2
AcDbDetailViewStyle
  3
ObjectDBX Classes
 90
1025
 91
0
280
0
281
0
  0
CLASS
  1
ACDBSECTIONVIEWSTYLE
  2
AcDbSectionViewStyle
  3
ObjectDBX Classes
 90
1025
 91
0
280
0
281
0
  0
CLASS
  1
RASTERVARIABLES
  2
AcDbRasterVariables
  3
ISM
 90
0
 91
0
280
0
281
0
  0
CLASS
  1
LAYOUT
  2
AcDbLayout
  3
ObjectDBX Classes
 90
0
 91
0
280
0
281
0
  0
CLASS
  1
ACDBPLACEHOLDER
  2
AcDbPlaceHolder
  3
ObjectDBX Classes
 90
0
 91
0
280
0
281
0
  0
ENDSEC
  0
SECTION
  2
TABLES
  0
TABLE
  2
VPORT
  5
8
330
0
100
AcDbSymbolTable
 70
1
  0
VPORT
  5
23
330
8
100
AcDbSymbolTableRecord
100
AcDbViewportTableRecord
  2
*Active
 70
0
 10
0.0
 20
0.0
 11
1.0
 21
1.0
 12
0.0
 22
0.0
 13
0.0
 23
0.0
 14
0.5
 24
0.5
 15
0.5
 25
0.5
 16
0.0
 26
0.0
 36
1.0
 17
0.0
 27
0.0
 37
0.0
 40
1000.0
 41
1.34
 42
50.0
 43
0.0
 44
0.0
 50
0.0
 51
0.0
 71
0
 72
1000
 73
1
 74
3
 75
0
 76
0
 77
0
 78
0
281
0
 65
0
146
0.0
  0
ENDTAB
  0
TABLE
  2
LTYPE
  5
2
330
0
100
AcDbSymbolTable
 70
3
  0
LTYPE
  5
24
330
2
100
AcDbSymbolTableRecord
100
AcDbLinetypeTableRecord
  2
ByBlock
 70
0
  3

 72
65
 73
0
 40
0.0
  0
LTYPE
  5
25
330
2
100
AcDbSymbolTableRecord
100
AcDbLinetypeTableRecord
  2
ByLayer
 70
0
  3

 72
65
 73
0
 40
0.0
  0
LTYPE
  5
26
330
2
100
AcDbSymbolTableRecord
100
AcDbLinetypeTableRecord
  2
Continuous
 70
0
  3

 72
65
 73
0
 40
0.0
  0
ENDTAB
  0
TABLE
  2
LAYER
  5
1
330
0
100
AcDbSymbolTable
 70
2
  0
LAYER
  5
27
330
1
100
AcDbSymbolTableRecord
100
AcDbLayerTableRecord
  2
0
 70
0
 62
7
  6
Continuous
370
-3
390
13
347
21
  0
LAYER
  5
28
330
1
100
AcDbSymbolTableRecord
100
AcDbLayerTableRecord
  2
Defpoints
 70
0
 62
7
  6
Continuous
290
0
370
-3
390
13
347
21
  0
ENDTAB
  0
TABLE
  2
STYLE
  5
5
330
0
100
AcDbSymbolTable
 70
1
  0
STYLE
  5
29
330
5
100
AcDbSymbolTableRecord
100
AcDbTextStyleTableRecord
  2
Standard
 70
0
 40
0.0
 41
1.0
 50
0.0
 71
0
 42
2.5
  3
txt
  4

  0
ENDTAB
  0
TABLE
  2
VIEW
  5
7
330
0
100
AcDbSymbolTable
 70
0
  0
ENDTAB
  0
TABLE
  2
UCS
  5
6
330
0
100
AcDbSymbolTable
 70
0
  0
ENDTAB
  0
TABLE
  2
APPID
  5
3
330
0
100
AcDbSymbolTable
 70
3
  0
APPID
  5
2A
330
3
100
AcDbSymbolTableRecord
100
AcDbRegAppTableRecord
  2
ACAD
 70
0
  0
APPID
  5
30
330
3
100
AcDbSymbolTableRecord
100
AcDbRegAppTableRecord
  2
HATCHBACKGROUNDCOLOR
 70
0
  0
APPID
  5
31
330
3
100
AcDbSymbolTableRecord
100
AcDbRegAppTableRecord
  2
EZDXF
 70
0
  0
ENDTAB
  0
TABLE
  2
DIMSTYLE
  5
4
330
0
100
AcDbSymbolTable
 70
1
100
AcDbDimStyleTable
  0
DIMSTYLE
105
2B
330
4
100
AcDbSymbolTableRecord
100
AcDbDimStyleTableRecord
  2
Standard
 70
0
 40
1.0
 41
2.5
 42
0.625
 43
3.75
 44
1.25
 45
0.0
 46
0.0
 47
0.0
 48
0.0
 49
2.5
140
2.5
141
2.5
142
0.0
143
0.03937007874
144
1.0
145
0.0
146
1.0
147
0.625
148
0.0
 69
0
 70
0
 71
0
 72
0
 73
0
 74
0
 75
0
 76
0
 77
1
 78
8
 79
3
170
0
171
3
172
1
173
0
174
0
175
0
176
0
177
0
178
0
179
2
271
2
272
2
273
2
274
3
275
0
276
0
277
2
278
44
279
0
280
0
281
0
282
0
283
0
284
8
285
0
286
0
288
0
289
3
290
0
371
-2
372
-2
  0
ENDTAB
  0
TABLE
  2
BLOCK_RECORD
  5
9
330
0
100
AcDbSymbolTable
 70
2
  0
BLOCK_RECORD
  5
17
330
9
100
AcDbSymbolTableRecord
100
AcDbBlockTableRecord
  2
*Model_Space
340
1A
 70
0
280
1
281
0
  0
BLOCK_RECORD
  5
1B
330
9
100
AcDbSymbolTableRecord
100
AcDbBlockTableRecord
  2
*Paper_Space
340
1E
 70
0
280
1
281
0
  0
ENDTAB
  0
ENDSEC
  0
SECTION
  2
BLOCKS
  0
BLOCK
  5
18
330
17
100
AcDbEntity
  8
0
100
AcDbBlockBegin
  2
*Model_Space
 70
0
 10
0.0
 20
0.0
 30
0.0
  3
*Model_Space
  1

  0
ENDBLK
  5
19
330
17
100
AcDbEntity
  8
0
100
AcDbBlockEnd
  0
BLOCK
  5
1C
330
1B
100
AcDbEntity
  8
0
100
AcDbBlockBegin
  2
*Paper_Space
 70
0
 10
0.0
 20
0.0
 30
0.0
  3
*Paper_Space
  1

  0
ENDBLK
  5
1D
330
1B
100
AcDbEntity
  8
0
100
AcDbBlockEnd
  0
ENDSEC
  0
SECTION
  2
ENTITIES
  0
LWPOLYLINE
  5
2F
330
17
100
AcDbEntity
  8
0
100
AcDbPolyline
 90
721
 70
1
 10
47.43520797140521
 20
3.372542435571696
 10
47.43382755834775
 20
3.3729423880336724
 10
47.429696386466176
 20
3.3740006477838644
 10
47.422834590342234
 20
3.3754340195508026
 10
47.413161303867184
 20
3.3773790673247968
 10
47.40083322561304
 20
3.379633461943093
 10
47.38577452311652
 20
3.3822629685781362
 10
47.36791943120517
 20
3.385191754766631
 10
47.34740954751471
 20
3.3884298877994277
 10
47.324179106872734
 20
3.3919015352132367
 10
47.29814724317051
 20
3.395743260998365
 10
47.269465621334604
 20
3.3998235348099275
 10
47.23806344254718
 20
3.4041373230025016
 10
47.20393567316278
 20
3.408755424393953
 10
47.16709238047229
 20
3.4135362413485466
 10
47.127523497184846
 20
3.4186213715020184
 10
47.08530485576374
 20
3.423945049681927
 10
47.040365657391085
 20
3.4295022422428443
 10
46.992700868421466
 20
3.4353637480026396
 10
46.942391354963625
 20
3.4413930029710036
 10
46.88935625090882
 20
3.4477265711382454
 10
46.833605623547925
 20
3.4542228548686307
 10
46.775271003225775
 20
3.461033519088744
 10
46.71414502713424
 20
3.4680726640444433
 10
46.65044009172692
 20
3.475355390672004
 10
46.58401459936805
 20
3.4828716316805743
 10
46.514939348875515
 20
3.490626420715581
 10
46.44321434024933
 20
3.498619757777024
 10
46.368834539844045
 20
3.506922441682771
 10
46.29179994765967
 20
3.5155344724328224
 10
46.21212063098704
 20
3.5243142523914415
 10
46.12978652253534
 20
3.533403379194365
 10
46.04487345476783
 20
3.542736087669151
 10
45.957305595221236
 20
3.5523781429882413
 10
45.867093011186405
 20
3.5621879475158997
 10
45.77429643419035
 20
3.5723121325332885
 10
45.67891083058763
 20
3.582821496858274
 10
45.58095130131457
 20
3.5935036440372565
 10
45.4803369802624
 20
3.604495138060542
 10
45.3772144987123
 20
3.615735247401116
 10
45.27143722538312
 20
3.6272847035859948
 10
45.16314675791056
 20
3.639153573906029
 10
45.05227229747681
 20
3.6513368247157945
 10
44.93888464289968
 20
3.663839489660715
 10
44.822918029006765
 20
3.676585736277499
 10
44.704443254615924
 20
3.6895805982115717
 10
44.58337945361842
 20
3.7029606394532415
 10
44.459873257295435
 20
3.7166651284754946
 10
44.33385386682909
 20
3.730689031632904
 10
44.205321282219394
 20
3.7450323489254704
 10
44.07427550346634
 20
3.7596950803531923
 10
43.94078229574238
 20
3.774753058379366
 10
43.80477589387506
 20
3.7901304505406954
 10
43.66632206303681
 20
3.805903089300474
 10
43.5254258368731
 20
3.822000175840838
 10
43.382097282674735
 20
3.838280112526047
 10
43.23639713196876
 20
3.8548895306372657
 10
43.088244518646434
 20
3.871964994164802
 10
42.93763944270778
 20
3.8895065031086578
 10
42.78466780390693
 20
3.9073066946606536
 10
42.62932456859845
 20
3.925436367638659
 10
42.471609736782355
 20
3.943895522042672
 10
42.31150820752237
 20
3.962896554326299
 10
42.14904514904561
 20
3.9820854704001984
 10
41.9842812928791
 20
4.0016089015455325
 10
41.817211605377416
 20
4.021537646580171
 10
41.64776025407724
 20
4.041937470676553
 10
41.47607387025977
 20
4.062747642307664
 10
41.30208668875256
 20
4.083892329010211
 10
41.125798709555575
 20
4.105371530784192
 10
40.94727066419587
 20
4.127331878910771
 10
40.76652268725511
 20
4.149490178118476
 10
40.583473912624626
 20
4.171982992397614
 10
40.39826090429467
 20
4.194891187856909
 10
40.21088366226529
 20
4.218214764496359
 10
40.021281455009444
 20
4.2418070910348025
 10
39.82944924888172
 20
4.265738966290107
 10
39.63552864151786
 20
4.290020457553128
 10
39.439438766809104
 20
4.314788128814168
 10
39.24119472569178
 20
4.339829583619631
 10
39.040867316983714
 20
4.365149855614939
 10
38.83845654068494
 20
4.390748944800092
 10
38.633952329504574
 20
4.416768448810828
 10
38.427354683442644
 20
4.443208367647144
 10
38.218668636144564
 20
4.469997902491175
 10
38.00804081889151
 20
4.497076321815905
 10
37.79532460040229
 20
4.5245043571483485
 10
37.58059077949479
 20
4.5522870421339325
 10
37.36392525592316
 20
4.580217013964477
 10
37.1452521972241
 20
4.608360037812428
 10
36.92462730127919
 20
4.636933543776813
 10
36.70212136690632
 20
4.665942565503058
 10
36.4776028637606
 20
4.695235438064576
 10
36.251228490414036
 20
4.724609832298615
 10
36.02297811228494
 20
4.754348943476646
 10
35.79285676301869
 20
4.7843819727808015
 10
35.56085940896992
 20
4.81477971902895
 10
35.327066916247304
 20
4.845405618230781
 10
35.091479284850884
 20
4.876259670386296
 10
34.85402571596277
 20
4.907336841850068
 10
34.61484277357325
 20
4.938717998730817
 10
34.37385965886451
 20
4.970398107383117
 10
34.131157237945224
 20
5.0022406038166585
 10
33.8867355108154
 20
5.034245488031441
 10
33.640665276292914
 20
5.066417793672892
 10
33.39287070191448
 20
5.098823285913453
 10
33.14341251920709
 20
5.131608596034285
 10
32.89223503028918
 20
5.164556293936359
 10
32.63954559796891
 20
5.197752279373819
 10
32.38522275919225
 20
5.2309032897843455
 10
32.129261480313794
 20
5.264080123985804
 10
31.871788258032968
 20
5.2975052457226495
 10
31.612798058704378
 20
5.3312494538127515
 10
31.352164385628537
 20
5.365090284511654
 10
31.090180501367797
 20
5.398906274765327
 10
30.826639043113957
 20
5.432611524819621
 10
30.561666507566468
 20
5.466428498418995
 10
30.29518706226207
 20
5.500422960735888
 10
30.02734733848191
 20
5.534534180243288
 10
29.75809163834438
 20
5.568544726842162
 10
29.48748069337651
 20
5.602601231813673
 10
29.215504436287457
 20
5.636845292793558
 10
28.942188035304333
 20
5.670922915692476
 10
28.667536524072585
 20
5.7047633016925605
 10
28.391666332000796
 20
5.738730512174003
 10
28.114440895098674
 20
5.772743681028081
 10
27.835996777356513
 20
5.806883674363518
 10
27.55636418064689
 20
5.840725699273106
 10
27.27553807132436
 20
5.8743405545747125
 10
26.993508382098078
 20
5.907869837904072
 10
26.710260012031764
 20
5.9415259457147895
 10
26.42595469334286
 20
5.975035750026246
 10
26.140470962977343
 20
6.008105988276117
 10
25.854006116452524
 20
6.040964157854287
 10
25.56639338790555
 20
6.0739541855592405
 10
25.277723710735973
 20
6.106797909764932
 10
24.988017219525513
 20
6.139212135199891
 10
24.697405444619058
 20
6.171348526790707
 10
24.405741754735427
 20
6.203267816064392
 10
24.113162713864952
 20
6.235050869129671
 10
23.819602556835175
 20
6.266621853523245
 10
23.525142149754824
 20
6.297844205254808
 10
23.229852291441773
 20
6.328722957969784
 10
22.933662183078134
 20
6.35925307802275
 10
22.63671342229966
 20
6.3894446327045555
 10
22.338864411470595
 20
6.419287554724348
 10
22.04024668093586
 20
6.448933509008718
 10
21.74086526434085
 20
6.478311696739796
 10
21.440745329912698
 20
6.507068123828242
 10
21.139876810360565
 20
6.535344387909794
 10
20.83839626967475
 20
6.563221355093172
 10
20.536157076574092
 20
6.590759756905389
 10
20.233310895985188
 20
6.617828063001563
 10
19.929862761553448
 20
6.644355474563827
 10
19.62581770692432
 20
6.670271192774314
 10
19.32116566480693
 20
6.695716815268757
 10
19.01597240037373
 20
6.720768174510452
 10
18.710237913624727
 20
6.745425270499398
 10
18.404048104314047
 20
6.769480740427418
 10
18.097337207269273
 20
6.792858751831219
 10
17.79018105495368
 20
6.815493539538359
 10
17.482635345248866
 20
6.837602533647866
 10
17.174614178400684
 20
6.859393096967919
 10
16.866269219335717
 20
6.880733699153635
 10
16.557569938399514
 20
6.901052916016643
 10
16.248486133719506
 20
6.920775540464153
 10
15.939154369286012
 20
6.939982438604883
 10
15.629513913572028
 20
6.958526979157673
 10
15.319569800222956
 20
6.976338363304653
 10
15.009448525938273
 20
6.99363905479028
 10
14.699084325545524
 20
7.010353221151262
 10
14.388563098798858
 20
7.026273499579417
 10
14.077814046880405
 20
7.041394856429322
 10
13.76697373378049
 20
7.055798157809699
 10
13.456037125853666
 20
7.069554202538412
 10
13.145019324036227
 20
7.08245059416186
 10
12.833915294682742
 20
7.094558131497909
 10
12.52279080296565
 20
7.105952647009854
 10
12.211559949130802
 20
7.116841503505874
 10
11.9003945326865
 20
7.1268099753696115
 10
11.589294553632735
 20
7.135858062601068
 10
11.278254978324087
 20
7.144056564018113
 10
10.967270773115127
 20
7.1514762784386114
 10
10.656417770469151
 20
7.158051440690122
 10
10.345620137922861
 20
7.163847815945089
 10
10.035024506757424
 20
7.168804672676494
 10
9.724640944263683
 20
7.172780413248602
 10
9.414464416796225
 20
7.175845836479283
 10
9.104489890709615
 20
7.178071741186401
 10
8.794722399649283
 20
7.1793873285520915
 10
8.485313608541814
 20
7.179661068231472
 10
8.176182651278488
 20
7.179029524214848
 10
7.8673902593863305
 20
7.177639327783385
 10
7.558890802274584
 20
7.175131451202317
 10
7.250815810288147
 20
7.171657559398229
 10
6.943150182490741
 20
7.167430048824728
 10
6.6358382210007685
 20
7.162231489382782
 10
6.329031590744828
 20
7.155930350727511
 10
6.022720224432059
 20
7.148668230494647
 10
5.7168433905354465
 20
7.140298497403031
 10
5.411532619399875
 20
7.1309728163792485
 10
5.106727179498333
 20
7.120544556142139
 10
4.802563634821124
 20
7.109094582800425
 10
4.498885286796239
 20
7.096825225516854
 10
4.19584380035026
 20
7.083604953946543
 10
3.893459310064896
 20
7.069150572818023
 10
3.591726782294721
 20
7.0535328809491595
 10
3.290701914921321
 20
7.036969308438984
 10
2.990389741590131
 20
7.019389056469628
 10
2.6907952959465606
 20
7.000721326223225
 10
2.3919893768084957
 20
6.980971151345199
 10
2.093891118067204
 20
6.96027509582586
 10
1.796561251249702
 20
6.93877979094637
 10
1.5000907097555685
 20
6.916207075080686
 10
1.204489560875656
 20
6.892415350593067
 10
0.909747737319105
 20
6.867546215119255
 10
0.6159310042583638
 20
6.84167550112254
 10
0.32296856287555425
 20
6.814798174957499
 10
0.03092617834313189
 20
6.786990069087422
 10
-0.26013038416647616
 20
6.758327015975604
 10
-0.5502517888894152
 20
6.72852078670515
 10
-0.8393672370078313
 20
6.697576414921485
 10
-1.1274310979309885
 20
6.6658529283593735
 10
-1.4145041031858914
 20
6.633203695737655
 10
-1.7004396214913888
 20
6.599567985529313
 10
-1.9853792504832095
 20
6.564935730443495
 10
-2.2691813925256215
 20
6.529316997771055
 10
-2.551785316091606
 20
6.492858418793152
 10
-2.833337652462328
 20
6.455620725036803
 10
-3.1137424345927895
 20
6.4172549560580965
 10
-3.392888266719812
 20
6.37819597205509
 10
-3.6708560149521055
 20
6.338580337018092
 10
-3.947686276234997
 20
6.297978224394472
 10
-4.223166654114874
 20
6.256404735120508
 10
-4.497383048345884
 20
6.214067232004376
 10
-4.770340492573454
 20
6.171036513863945
 10
-5.042028919506726
 20
6.127170983063478
 10
-5.312311765155399
 20
6.082551505711696
 10
-5.581330627155207
 20
6.037168014517747
 10
-5.84895900880669
 20
5.991242973226086
 10
-6.115186842818996
 20
5.9446347842009795
 10
-6.3800090955467
 20
5.897272648624555
 10
-6.64343080063523
 20
5.849227365314686
 10
-6.905391226557567
 20
5.80064556555253
 10
-7.16596117213158
 20
5.751522215692663
 10
-7.424988972430682
 20
5.701725785390202
 10
-7.682474627454871
 20
5.651256274645147
 10
-7.93848390237659
 20
5.600037850994201
 10
-8.1929510320234
 20
5.54814634690066
 10
-8.445891117331575
 20
5.49579415881813
 10
-8.697238393128673
 20
5.443057119209902
 10
-8.946972724832998
 20
5.389652032804504
 10
-9.195164911262404
 20
5.335573865956513
 10
-9.441597522317876
 20
5.2807669207843375
 10
-9.686427256571418
 20
5.225433526450728
 10
-9.92965914766846
 20
5.169644481773555
 10
-10.171151597973262
 20
5.113409854043669
 10
-10.410899573840405
 20
5.056658844443202
 10
-10.648958773151474
 20
4.999174022873126
 10
-10.885278531670307
 20
4.941243618250336
 10
-11.119873950333183
 20
4.883080027028438
 10
-11.3526490620951
 20
4.824334288763517
 10
-11.583674665773927
 20
4.765001369810148
 10
-11.812819231024786
 20
4.705232935094918
 10
-12.040153556665542
 20
4.645023950972402
 10
-12.265682676341617
 20
4.584445216260467
 10
-12.489320690298868
 20
4.5232893681509365
 10
-12.71107766582815
 20
4.461698004279546
 10
-12.930953602929458
 20
4.399671124646295
 10
-13.148968636184497
 20
4.337491924522654
 10
-13.36497613431211
 20
4.27509967238161
 10
-13.579102594011752
 20
4.212271904478705
 10
-13.791267149174702
 20
4.14887205682363
 10
-14.001419135564795
 20
4.085188358333284
 10
-14.209639419290752
 20
4.021357372997974
 10
-14.415837066953006
 20
3.9571009391916556
 10
-14.619951347024536
 20
3.8925656881954924
 10
-14.822128890786503
 20
3.8278123515364983
 10
-15.022228100603176
 20
3.7628509965055255
 10
-15.22023387553827
 20
3.6974692266489706
 10
-15.416161316528072
 20
3.6318794384204387
 10
-15.610015457218003
 20
3.5661524306377954
 10
-15.801791263962636
 20
3.500217404483174
 10
-15.991417937944105
 20
3.4340793936020018
 10
-16.17889044551698
 20
3.3676675991764076
 10
-16.36428461914457
 20
3.301047786378837
 10
-16.547458861191117
 20
3.2342300225001392
 10
-16.72842323894749
 20
3.1673559051760516
 10
-16.907309282758565
 20
3.1002737694799856
 10
-17.08390459617074
 20
3.03299871634822
 10
-17.25827494435645
 20
2.965454913317461
 10
-17.43044046189742
 20
2.89792555565918
 10
-17.600401148793633
 20
2.8304106433733747
 10
-17.768076138936365
 20
2.76277361246974
 10
-17.9334603986802
 20
2.694943664130404
 10
-18.09661969319758
 20
2.626844965892075
 10
-18.257437593079896
 20
2.5588415791349437
 10
-18.415979863499597
 20
2.490857671395716
 10
-18.572236437165817
 20
2.422751645038656
 10
-18.726136515260695
 20
2.354528533709191
 10
-18.877690165075087
 20
2.2863299350430553
 10
-19.02688731931814
 20
2.2180142514045147
 10
-19.173733011635274
 20
2.149652281611436
 10
-19.31823227567192
 20
2.0813148244816877
 10
-19.460304245319357
 20
2.0128653160249597
 10
-19.599964021513866
 20
1.9445161526948556
 10
-19.7372622684916
 20
1.8759791055744777
 10
-19.87214832201641
 20
1.8075424035807244
 10
-20.004617148442865
 20
1.739135247895727
 10
-20.134663714125537
 20
1.6706868397016172
 10
-20.262217220246555
 20
1.6022022126438231
 10
-20.387353499269214
 20
1.5337471318947848
 10
-20.51001685331193
 20
1.4655390275535325
 10
-20.63019721508385
 20
1.39743630198433
 10
-20.74789458458497
 20
1.3294389551871775
 10
-20.863184794278588
 20
1.261612752334517
 10
-20.975921212883534
 20
1.193896961899333
 10
-21.08618470650854
 20
1.126428147871935
 10
-21.193914543626587
 20
1.059352941533483
 10
-21.299181523055537
 20
0.9926663092385535
 10
-21.401904778686674
 20
0.9262316869968358
 10
-21.50216014298329
 20
0.8601148399807712
 10
-21.59980601830965
 20
0.7943258354812129
 10
-21.694994069592347
 20
0.7289962038430432
 10
-21.787587732841065
 20
0.6642068111749829
 10
-21.877647739582827
 20
0.5998110261958698
 10
-21.965174089817626
 20
0.5358088489057045
 10
-22.05016678354546
 20
0.4722002793044864
 10
-22.13256508923932
 20
0.4091319486733777
 10
-22.212369006899205
 20
0.34660385701237834
 10
-22.289634234406698
 20
0.28439857422245873
 10
-22.364305073880217
 20
0.22273353040264798
 10
-22.436361390738057
 20
0.16132553028147564
 10
-22.50582331956192
 20
0.10045776913041254
 10
-22.572670725770102
 20
0.03984705167798742
 10
-22.636913676653453
 20
-0.020365024440063786
 10
-22.698552172211983
 20
-0.0801784592237417
 10
-22.757510379982378
 20
-0.1396590178454871
 10
-22.813939964891244
 20
-0.19867516996041756
 10
-22.86761342954869
 20
-0.25742421108585695
 10
-22.918753237699182
 20
-0.3157796445223497
 10
-22.96721275806155
 20
-0.3738022017969097
 10
-23.01300709157207
 20
-0.4312794864559344
 10
-23.05619696975776
 20
-0.48835812978058496
 10
-23.096716627446185
 20
-0.5449622993075687
 10
-23.134586199219044
 20
-0.6008087997654132
 10
-23.169861382957922
 20
-0.6561150612531483
 10
-23.202481447135813
 20
-0.7107344524896129
 10
-23.23245645904356
 20
-0.7645253758390707
 10
-23.259806553262877
 20
-0.8172046360300508
 10
-23.28453172979376
 20
-0.8687722330625535
 10
-23.306712854744923
 20
-0.9190916029462691
 10
-23.326233498707776
 20
-0.9677986843010068
 10
-23.343184595081876
 20
-1.014615315500721
 10
-23.357687279139366
 20
-1.0588385420121609
 10
-23.369635188762484
 20
-1.0999627048193996
 10
-23.379179661095925
 20
-1.1368600564819786
 10
-23.386472033284367
 20
-1.1684028495594403
 10
-23.391491515182317
 20
-1.1928818451321055
 10
-23.394434746743286
 20
-1.2085321063987062
 10
-23.363609896363766
 20
-1.6611029906547161
 10
-23.36200800290754
 20
-1.664618091102874
 10
-23.35720735618429
 20
-1.67509259362948
 10
-23.34922809077572
 20
-1.692243302963063
 10
-23.33791383589172
 20
-1.7172687653619485
 10
-23.323300482614073
 20
-1.7516658232922129
 10
-23.30557898168707
 20
-1.7917479045793054
 10
-23.28483457730106
 20
-1.8353152122238992
 10
-23.261274304482324
 20
-1.8814574288845651
 10
-23.234933070966935
 20
-1.9286827457406548
 10
-23.205785380745873
 20
-1.976348939785931
 10
-23.173997999681994
 20
-2.0241120842219082
 10
-23.139520263539143
 20
-2.0716839501316895
 10
-23.102372306899024
 20
-2.1187813422438024
 10
-23.062564197052478
 20
-2.165262662922512
 10
-23.02009593399952
 20
-2.2111279121678185
 10
-22.97504335020344
 20
-2.2563113248072804
 10
-22.92734571413722
 20
-2.300666269559735
 10
-22.876997992155435
 20
-2.3442635452430522
 10
-22.824076016721374
 20
-2.387037386684788
 10
-22.768498921726327
 20
-2.4291243578752533
 10
-22.710271740815706
 20
-2.4704536599965796
 10
-22.64954613891612
 20
-2.5108937627038848
 10
-22.586094618637663
 20
-2.5506419615144913
 10
-22.520134610079385
 20
-2.5896425585468132
 10
-22.451519481960112
 20
-2.627956285327863
 10
-22.38032506674314
 20
-2.6655173766852003
 10
-22.306556398073894
 20
-2.702255033800958
 10
-22.2301983750161
 20
-2.738381653128738
 10
-22.151261064860613
 20
-2.773755637032806
 10
-22.06972433302572
 20
-2.8086601807846323
 10
-21.985603280447705
 20
-2.8428828879306143
 10
-21.89895863865358
 20
-2.876570389751912
 10
-21.809719608825475
 20
-2.909717652603102
 10
-21.71787612367255
 20
-2.942466274119917
 10
-21.62350401565808
 20
-2.9747504891299177
 10
-21.526598251136654
 20
-3.006641096450971
 10
-21.427158830108265
 20
-3.038138096083076
 10
-21.32509985281877
 20
-3.0694488508344113
 10
-21.22056795054933
 20
-3.1005126291779606
 10
-21.113426559309637
 20
-3.1312485650050044
 10
-21.003817276735425
 20
-3.1616667256063944
 10
-20.891659236717967
 20
-3.19190367497244
 10
-20.77702323807514
 20
-3.221964446748568
 10
-20.659843515634503
 20
-3.251773208471484
 10
-20.540200935504767
 20
-3.281193396150879
 10
-20.418019665222648
 20
-3.3102907749591943
 10
-20.293436268778454
 20
-3.3391462110051497
 10
-20.166379947354304
 20
-3.3677546706433197
 10
-20.036850700950218
 20
-3.396116153873704
 10
-19.904863630502465
 20
-3.4240182642426995
 10
-19.770489534828904
 20
-3.4514660353957316
 10
-19.633657615111684
 20
-3.478454433687375
 10
-19.494428602877804
 20
-3.505130090398792
 10
-19.352802498127282
 20
-3.5314930055299807
 10
-19.20879943544181
 20
-3.5572599838094714
 10
-19.062480146348406
 20
-3.582577656518426
 10
-18.91377886567463
 20
-3.60737019119355
 10
-18.762690559775052
 20
-3.6317083866527105
 10
-18.60928602746754
 20
-3.655597276541334
 10
-18.45357030239753
 20
-3.6789660620415545
 10
-18.295538350919585
 20
-3.701885541971238
 10
-18.135190173033706
 20
-3.7243557163303853
 10
-17.97253080238533
 20
-3.7463057863011278
 10
-17.807626004146876
 20
-3.76781158434676
 10
-17.64047577831837
 20
-3.7888731104672817
 10
-17.471014359727352
 20
-3.809414532199399
 10
-17.29937327871872
 20
-3.8295875144697002
 10
-17.125486770120023
 20
-3.849316224814891
 10
-16.94934980028583
 20
-3.86867146205284
 10
-16.771038201679442
 20
-3.8875874610111043
 10
-16.59056707523714
 20
-3.9058518252360814
 10
-16.40792132002264
 20
-3.923676951181373
 10
-16.223020069927227
 20
-3.9411994028372925
 10
-16.036080755049923
 20
-3.958363482322247
 10
-15.846971845045854
 20
-3.975017524709649
 10
-15.655698373560435
 20
-3.991090731181632
 10
-15.462391870938564
 20
-4.006734766664782
 10
-15.266976504716933
 20
-4.022015396331543
 10
-15.0694623421864
 20
-4.036791022546179
 10
-14.869920182164835
 20
-4.051066678954115
 10
-14.66835505829766
 20
-4.064771566737483
 10
-14.464751869648602
 20
-4.078118082349889
 10
-14.259120683508504
 20
-4.090964628155594
 10
-14.051451432586525
 20
-4.103452801790335
 10
-13.841900815454672
 20
-4.115380274091363
 10
-13.630322200831783
 20
-4.126807776585689
 10
-13.41678638753573
 20
-4.137740342918744
 10
-13.20135914073895
 20
-4.148253805553819
 10
-12.983979728914429
 20
-4.158201533209753
 10
-12.764708883589186
 20
-4.167730157167707
 10
-12.54362243722651
 20
-4.176773912255242
 10
-12.320588859481521
 20
-4.185181133545767
 10
-12.095749747989954
 20
-4.192961888330136
 10
-11.869090001815529
 20
-4.200328573061952
 10
-11.64060962095825
 20
-4.207281187741216
 10
-11.410308605418109
 20
-4.213819732367926
 10
-11.178272854949258
 20
-4.219736844133907
 10
-10.944512436842551
 20
-4.224890925403422
 10
-10.708936417698414
 20
-4.229560137802515
 10
-10.471686395152581
 20
-4.233754548622041
 10
-10.232701637678035
 20
-4.237327526580836
 10
-9.9920630113835
 20
-4.240142507688593
 10
-9.749755415332698
 20
-4.242411888398913
 10
-9.505839581052639
 20
-4.244282299992959
 10
-9.260254777016312
 20
-4.245607111189569
 10
-9.013016104159995
 20
-4.246173925535139
 10
-8.764255092828572
 20
-4.2461344079562595
 10
-8.51396670937661
 20
-4.245559357270794
 10
-8.262009356168388
 20
-4.2444387061878945
 10
-8.008600463302917
 20
-4.242716756825968
 10
-7.753679299253197
 20
-4.240246877903856
 10
-7.497245864019221
 20
-4.237029069421556
 10
-7.2393659227734295
 20
-4.233139163842363
 10
-6.980014307288696
 20
-4.2289311552556175
 10
-6.719276917319164
 20
-4.22419768085314
 10
-6.4571030886286715
 20
-4.218650511718034
 10
-6.193487787571792
 20
-4.212360446668168
 10
-5.92857261178426
 20
-4.205337552994393
 10
-5.662266627866502
 20
-4.197859992322754
 10
-5.394650701927244
 20
-4.189791200662943
 10
-5.12572483396648
 20
-4.18113117801496
 10
-4.855499091275063
 20
-4.171738326743068
 10
-4.583968440207569
 20
-4.161683445665136
 10
-4.311264411108881
 20
-4.151118199707751
 10
-4.037255473634118
 20
-4.139890923944326
 10
-3.762093292709861
 20
-4.127870088029977
 10
-3.485772834690689
 20
-4.115126490782573
 10
-3.2082890659311736
 20
-4.10173093101998
 10
-2.9295762212588734
 20
-4.087607576278905
 10
-2.649856764418253
 20
-4.072629929859891
 10
-2.369064930236854
 20
-4.056722159299646
 10
-2.0870997180242625
 20
-4.040304023859947
 10
-1.8041077590616397
 20
-4.023314792013781
 10
-1.52019005403941
 20
-4.005334704499366
 10
-1.235189904385556
 20
-3.986566090479454
 10
-0.9491730752725233
 20
-3.967084782417339
 10
-0.6622912316268951
 20
-3.9467592499681365
 10
-0.37440780945836977
 20
-3.925508627023129
 10
-0.08566440640267199
 20
-3.903342980873166
 10
0.2040299109397603
 20
-3.8805404731442947
 10
0.49459427646020715
 20
-3.8569645398462042
 10
0.7859327231136839
 20
-3.8322662205349824
 10
1.0781311506543192
 20
-3.8066528780188067
 10
1.3711388948459646
 20
-3.7804127412145734
 10
1.66487005593446
 20
-3.753338447314108
 10
1.9593903990922572
 20
-3.7253541638541128
 10
2.2546391927923337
 20
-3.6966065221157525
 10
2.550596302452992
 20
-3.666812326827555
 10
2.8472617280742325
 20
-3.6359715779895185
 10
3.144584805419885
 20
-3.6043725045185435
 10
3.4424997693175086
 20
-3.5720909388779223
 10
3.7410723849395544
 20
-3.539051048604361
 10
4.04021675253186
 20
-3.5050454708896837
 10
4.339942939385294
 20
-3.470215803369623
 10
4.640250945499846
 20
-3.4345620460441824
 10
4.941069972057654
 20
-3.398089232558786
 10
5.242384918122437
 20
-3.36058496645983
 10
5.544205850985045
 20
-3.3221908453830524
 10
5.846411307591452
 20
-3.283200131890775
 10
6.149137851931961
 20
-3.2435319598742782
 10
6.452228785434568
 20
-3.20298400017081
 10
6.75575994056256
 20
-3.1616220179528125
 10
7.059589719680198
 20
-3.1194560805111395
 10
7.36379395525078
 20
-3.076551953018231
 10
7.668367613628885
 20
-3.03283883665622
 10
7.973174130824194
 20
-2.9883975975338255
 10
8.278294372945437
 20
-2.9433647996413583
 10
8.583723306347185
 20
-2.89766964416095
 10
8.889314299748264
 20
-2.8512513995655855
 10
9.195143185611984
 20
-2.8041758310277056
 10
9.501149232411324
 20
-2.7565895698284733
 10
9.807383104382446
 20
-2.70820438705099
 10
10.113713271180467
 20
-2.6591719476218447
 10
10.420149800096238
 20
-2.6096338491767734
 10
10.726687657484343
 20
-2.5595192928979063
 10
11.033316776053912
 20
-2.5086866811495097
 10
11.340047223095814
 20
-2.4572776115673176
 10
11.646747468265152
 20
-2.4054437490779197
 10
11.95347824308895
 20
-2.3530384624001535
 10
12.260183849685617
 20
-2.3002791816330475
 10
12.566849187118876
 20
-2.2469535103230003
 10
12.873469221743298
 20
-2.1929906496521427
 10
13.180054020849736
 20
-2.1385321972562106
 10
13.486477087738734
 20
-2.0838006168796603
 10
13.792809221228158
 20
-2.0287908748770653
 10
14.09896452156386
 20
-1.9732956084402486
 10
14.40494802239128
 20
-1.9173856163870766
 10
14.710759723710392
 20
-1.8610608987175519
 10
15.016404659166652
 20
-1.8043922542495394
 10
15.321736197478877
 20
-1.7473189514560254
 10
15.62683017111037
 20
-1.6899067555094518
 10
15.931620814888678
 20
-1.6322314988731121
 10
16.23618899492254
 20
-1.5744297455373155
 10
16.540372978994498
 20
-1.5162283675214432
 10
16.844177800749993
 20
-1.457698163643363
 10
17.147699427234016
 20
-1.399188094346988
 10
17.450766058938274
 20
-1.340283434015963
 10
17.753372662217345
 20
-1.2809133838324218
 10
18.055620237761648
 20
-1.2214977030581438
 10
18.3573772552263
 20
-1.1621880566197171
 10
18.658684311556616
 20
-1.1025546179645096
 10
18.959475641580145
 20
-1.042673219555814
 10
19.25968044647904
 20
-0.9825488950390565
 10
19.559379592362003
 20
-0.9223182084045478
 10
19.8585073140566
 20
-0.8620569921155811
 10
20.157068645208255
 20
-0.8018360449900237
 10
20.45498271970824
 20
-0.7415188030375676
 10
20.752239470265717
 20
-0.6809636686224757
 10
21.04885399781696
 20
-0.6203830381983523
 10
21.344826302361962
 20
-0.5597769117651976
 10
21.64001981991042
 20
-0.49922615543173104
 10
21.93457614809807
 20
-0.4387207019071005
 10
22.228338588352894
 20
-0.3780582220285551
 10
22.521312174320318
 20
-0.3173095146139629
 10
22.81352207422747
 20
-0.2568285737526627
 10
23.104963254428945
 20
-0.19654460062678558
 10
23.395484049998128
 20
-0.13632606489144983
 10
23.6852310922162
 20
-0.07623369807367042
 10
23.974057749801975
 20
-0.01620676864643257
 10
24.26203482157334
 20
0.04375975703569103
 10
24.549101576003295
 20
0.10351924769153836
 10
24.835187214273937
 20
0.1630666696756825
 10
25.12037260249401
 20
0.2222654589978155
 10
25.404501042091486
 20
0.2813179448206861
 10
25.687714130702112
 20
0.34023419443514913
 10
25.969865237044726
 20
0.3990749393682185
 10
26.25098456299187
 20
0.45741538671268733
 10
26.531001309725692
 20
0.51525050282313
 10
26.810026873009363
 20
0.5730151478976055
 10
27.08784382274386
 20
0.6307650198177036
 10
27.364634025728325
 20
0.6879437953313332
 10
27.640250850681593
 20
0.7446122059655109
 10
27.914674163021967
 20
0.8010534469917072
 10
28.18790396274943
 20
0.8572675184099214
 10
28.459945283509427
 20
0.9131836214022868
 10
28.730823293529074
 20
0.9684477618794646
 10
29.00038632788181
 20
1.0231914701863372
 10
29.268760883267053
 20
1.0776372100673606
 10
29.535805362049096
 20
1.1317749142316826
 10
29.80152983151878
 20
1.1854629850435672
 10
30.06594435896696
 20
1.2385598248672796
 10
30.32903887710279
 20
1.2912070313385546
 10
30.59074258710838
 20
1.343399570811965
 10
30.85113635509247
 20
1.3950008792972042
 10
31.11007858341934
 20
1.4460008895034182
 10
31.367624969970546
 20
1.4966170315296365
 10
31.623633917110357
 20
1.5468392380850056
 10
31.878327888583247
 20
1.596541012470071
 10
32.13143375640858
 20
1.6455606224673904
 10
32.383093118222114
 20
1.6939081353678176
 10
32.6333009403784
 20
1.741654349989219
 10
32.88190555795086
 20
1.7889307966764783
 10
33.12891200458492
 20
1.835666676611729
 10
33.37446691156173
 20
1.881801258267953
 10
33.618362916073146
 20
1.9272486418910069
 10
33.86068088422784
 20
1.9718722634905788
 10
34.10133491627171
 20
2.0158794858748466
 10
34.34039077737717
 20
2.059346141507106
 10
34.57778270237179
 20
2.1021963979240605
 10
34.81351069125556
 20
2.1444302551257106
 10
35.04751904614692
 20
2.185830283013029
 10
35.27986346492741
 20
2.226613911685042
 10
35.510407383606754
 20
2.2667002750330316
 10
35.73921153371197
 20
2.3062360043381593
 10
35.96629101617932
 20
2.3450087031468207
 10
36.19158006583639
 20
2.3829425389957244
 10
36.41506358174686
 20
2.42024990833847
 10
36.63674156391075
 20
2.4569308111750594
 10
36.85661401232806
 20
2.492985247505492
 10
37.07454939665392
 20
2.528261552403182
 10
37.29069938181492
 20
2.562628195523244
 10
37.50496800076602
 20
2.5964341373095907
 10
37.71728948833483
 20
2.6296035452989295
 10
37.92773464333917
 20
2.662141453136685
 10
38.13624273425207
 20
2.6939012295416975
 10
38.3427379286102
 20
2.724948639686406
 10
38.54735679040388
 20
2.7553645496795323
 10
38.74997282293367
 20
2.7849264957766207
 10
38.9505759589087
 20
2.8137760756134056
 10
39.1491712319744
 20
2.8418424903720214
 10
39.3457435411945
 20
2.86933813650607
 10
39.54030295385983
 20
2.8961214163798137
 10
39.732778671152545
 20
2.9221872963478304
 10
39.92317572671806
 20
2.9474649775922495
 10
40.111559885728816
 20
2.972030292576366
 10
40.29778451690366
 20
2.9959439728271953
 10
40.481849620242585
 20
3.019206018344737
 10
40.6638310282089
 20
3.0417506639565506
 10
40.843733774448005
 20
3.063507110844767
 10
41.02140116038791
 20
3.0846776881721376
 10
41.19690398484645
 20
3.1052674295840874
 10
41.370257348759935
 20
3.125063938627016
 10
41.541385419665055
 20
3.144132980473362
 10
41.71027813027097
 20
3.1626161527588623
 10
41.87701634668641
 20
3.180376891493208
 10
42.04146350492103
 20
3.197334330567678
 10
42.20368033650187
 20
3.213635101263434
 10
42.3636618077835
 20
3.229350002398345
 10
42.52133711994805
 20
3.244474000326983
 10
42.67671634028637
 20
3.258865497413614
 10
42.82979443515304
 20
3.272595292476105
 10
42.98056133725721
 20
3.285804983150191
 10
43.12902208024429
 20
3.298423770618006
 10
43.2751159325873
 20
3.310305023598387
 10
43.418842894286186
 20
3.3214487420913335
 10
43.56025362957716
 20
3.3321431550137444
 10
43.69928237328774
 20
3.342312429902323
 10
43.83592912541798
 20
3.3519565667570737
 10
43.97019891961324
 20
3.361004766760124
 10
44.1020209570557
 20
3.36945199626605
 10
44.23146603656321
 20
3.3773032889202783
 10
44.35845329202706
 20
3.3846952087131172
 10
44.482992790738095
 20
3.3914861580088322
 10
44.60507446540545
 20
3.3978177344431573
 10
44.72477918213787
 20
3.403553374025785
 10
44.84195527600876
 20
3.4088246071015966
 10
44.95666851219055
 20
3.4137072661338874
 10
45.0688531255108
 20
3.4181255186593633
 10
45.1785849484328
 20
3.4220135995055814
 10
45.28578311484787
 20
3.425508072662853
 10
45.39052849086467
 20
3.428472374140867
 10
45.49266437791123
 20
3.431108833102376
 10
45.592337407268694
 20
3.433356718020363
 10
45.68940598130131
 20
3.435205961603976
 10
45.783940898827
 20
3.436661597498643
 10
45.875942159845714
 20
3.4377236257043617
 10
45.96540473071203
 20
3.438462845039001
 10
46.052262846253534
 20
3.438803423039267
 10
46.13650643917936
 20
3.438886957340894
 10
46.218211341952774
 20
3.4386476827714407
 10
46.29730172211053
 20
3.438151364503351
 10
46.37378261329802
 20
3.4373272037187546
 10
46.44764898186983
 20
3.4362459992355197
 10
46.51890586147139
 20
3.434836952235779
 10
46.58754821845726
 20
3.4331708615374006
 10
46.6535659855366
 20
3.4313893247761196
 10
46.716898431182386
 20
3.4293457106707734
 10
46.77768211938494
 20
3.427120885330083
 10
46.83569962004523
 20
3.4247705466356386
 10
46.89116836326227
 20
3.4222389967058486
 10
46.94394675140033
 20
3.419516168249863
 10
46.994024717168564
 20
3.4167436589034166
 10
47.041478093030285
 20
3.4138557034940678
 10
47.086236080167595
 20
3.4108472683763895
 10
47.12828861128963
 20
3.4078599511861176
 10
47.16771655250514
 20
3.4047571879329435
 10
47.204439037705406
 20
3.401675542607176
 10
47.23846110053585
 20
3.398544216390948
 10
47.26977267370561
 20
3.3955048069199933
 10
47.29837879086012
 20
3.392486515376447
 10
47.324345217171796
 20
3.3895651742236
 10
47.34753035500494
 20
3.3867307161706015
 10
47.36799996953199
 20
3.3840589736807463
 10
47.385824859570775
 20
3.3815549803994585
 10
47.400863427485596
 20
3.379208669035887
 10
47.413176404803465
 20
3.377166670871193
 10
47.422839623987656
 20
3.3753632207329347
 10
47.429701420111606
 20
3.373929848965997
 10
47.43382755834775
 20
3.3729423880336724
 10
47.43520797140521
 20
3.372542435571696
  0
ENDSEC
  0
SECTION
  2
OBJECTS
  0
DICTIONARY
  5
A
330
0
100
AcDbDictionary
280
0
281
1
  3
ACAD_COLOR
350
B
  3
ACAD_GROUP
350
C
  3
ACAD_LAYOUT
350
D
  3
ACAD_MATERIAL
350
E
  3
ACAD_MLEADERSTYLE
350
F
  3
ACAD_MLINESTYLE
350
10
  3
ACAD_PLOTSETTINGS
350
11
  3
ACAD_PLOTSTYLENAME
350
12
  3
ACAD_SCALELIST
350
14
  3
ACAD_TABLESTYLE
350
15
  3
ACAD_VISUALSTYLE
350
16
  3
EZDXF_META
350
2D
  0
DICTIONARY
  5
B
330
A
100
AcDbDictionary
280
0
281
1
  0
DICTIONARY
  5
C
330
A
100
AcDbDictionary
280
0
281
1
  0
DICTIONARY
  5
D
330
A
100
AcDbDictionary
280
0
281
1
  3
Model
350
1A
  3
Layout1
350
1E
  0
DICTIONARY
  5
E
330
A
100
AcDbDictionary
280
0
281
1
  3
ByBlock
350
1F
  3
ByLayer
350
20
  3
Global
350
21
  0
DICTIONARY
  5
F
330
A
100
AcDbDictionary
280
0
281
1
  3
Standard
350
2C
  0
DICTIONARY
  5
10
330
A
100
AcDbDictionary
280
0
281
1
  3
Standard
350
22
  0
DICTIONARY
  5
11
330
A
100
AcDbDictionary
280
0
281
1
  0
ACDBDICTIONARYWDFLT
  5
12
330
A
100
AcDbDictionary
280
0
281
1
  3
Normal
350
13
100
AcDbDictionaryWithDefault
340
13
  0
ACDBPLACEHOLDER
  5
13
330
12
  0
DICTIONARY
  5
14
330
A
100
AcDbDictionary
280
0
281
1
  0
DICTIONARY
  5
15
330
A
100
AcDbDictionary
280
0
281
1
  0
DICTIONARY
  5
16
330
A
100
AcDbDictionary
280
0
281
1
  0
LAYOUT
  5
1A
330
D
100
AcDbPlotSettings
  1

  4
A3
  6

 40
7.5
 41
20.0
 42
7.5
 43
20.0
 44
420.0
 45
297.0
 46
0.0
 47
0.0
 48
0.0
 49
0.0
140
0.0
141
0.0
142
1.0
143
1.0
 70
1024
 72
1
 73
0
 74
5
  7

 75
16
 76
0
 77
2
 78
300
147
1.0
148
0.0
149
0.0
100
AcDbLayout
  1
Model
 70
1
 71
0
 10
0.0
 20
0.0
 11
420.0
 21
297.0
 12
0.0
 22
0.0
 32
0.0
 14
1e+20
 24
1e+20
 34
1e+20
 15
-1e+20
 25
-1e+20
 35
-1e+20
146
0.0
 13
0.0
 23
0.0
 33
0.0
 16
1.0
 26
0.0
 36
0.0
 17
0.0
 27
1.0
 37
0.0
 76
1
330
17
  0
LAYOUT
  5
1E
330
D
100
AcDbPlotSettings
  1

  4
A3
  6

 40
7.5
 41
20.0
 42
7.5
 43
20.0
 44
420.0
 45
297.0
 46
0.0
 47
0.0
 48
0.0
 49
0.0
140
0.0
141
0.0
142
1.0
143
1.0
 70
0
 72
1
 73
0
 74
5
  7

 75
16
 76
0
 77
2
 78
300
147
1.0
148
0.0
149
0.0
100
AcDbLayout
  1
Layout1
 70
1
 71
1
 10
0.0
 20
0.0
 11
420.0
 21
297.0
 12
0.0
 22
0.0
 32
0.0
 14
1e+20
 24
1e+20
 34
1e+20
 15
-1e+20
 25
-1e+20
 35
-1e+20
146
0.0
 13
0.0
 23
0.0
 33
0.0
 16
1.0
 26
0.0
 36
0.0
 17
0.0
 27
1.0
 37
0.0
 76
1
330
1B
  0
MATERIAL
  5
1F
102
{ACAD_REACTORS
330
E
102
}
330
E
100
AcDbMaterial
  1
ByBlock
  2

 70
0
 40
1.0
 71
1
 41
1.0
 91
-1023410177
 42
1.0
 72
1
  3

 73
1
 74
1
 75
1
 44
0.5
 73
0
 45
1.0
 46
1.0
 77
1
  4

 78
1
 79
1
170
1
 48
1.0
171
1
  6

172
1
173
1
174
1
140
1.0
141
1.0
175
1
  7

176
1
177
1
178
1
143
1.0
179
1
  8

270
1
271
1
272
1
145
1.0
146
1.0
273
1
  9

274
1
275
1
276
1
 42
1.0
 72
1
  3

 73
1
 74
1
 75
1
 94
63
  0
MATERIAL
  5
20
102
{ACAD_REACTORS
330
E
102
}
330
E
100
AcDbMaterial
  1
ByLayer
  2

 70
0
 40
1.0
 71
1
 41
1.0
 91
-1023410177
 42
1.0
 72
1
  3

 73
1
 74
1
 75
1
 44
0.5
 73
0
 45
1.0
 46
1.0
 77
1
  4

 78
1
 79
1
170
1
 48
1.0
171
1
  6

172
1
173
1
174
1
140
1.0
141
1.0
175
1
  7

176
1
177
1
178
1
143
1.0
179
1
  8

270
1
271
1
272
1
145
1.0
146
1.0
273
1
  9

274
1
275
1
276
1
 42
1.0
 72
1
  3

 73
1
 74
1
 75
1
 94
63
  0
MATERIAL
  5
21
102
{ACAD_REACTORS
330
E
102
}
330
E
100
AcDbMaterial
  1
Global
  2

 70
0
 40
1.0
 71
1
 41
1.0
 91
-1023410177
 42
1.0
 72
1
  3

 73
1
 74
1
 75
1
 44
0.5
 73
0
 45
1.0
 46
1.0
 77
1
  4

 78
1
 79
1
170
1
 48
1.0
171
1
  6

172
1
173
1
174
1
140
1.0
141
1.0
175
1
  7

176
1
177
1
178
1
143
1.0
179
1
  8

270
1
271
1
272
1
145
1.0
146
1.0
273
1
  9

274
1
275
1
276
1
 42
1.0
 72
1
  3

 73
1
 74
1
 75
1
 94
63
  0
MLINESTYLE
  5
22
102
{ACAD_REACTORS
330
10
102
}
330
10
100
AcDbMlineStyle
  2
Standard
 70
0
  3

 62
256
 51
90.0
 52
90.0
 71
2
 49
0.5
 62
256
  6
BYLAYER
 49
-0.5
 62
256
  6
BYLAYER
  0
MLEADERSTYLE
  5
2C
102
{ACAD_REACTORS
330
F
102
}
330
F
100
AcDbMLeaderStyle
179
2
170
2
171
1
172
0
 90
2
 40
0.0
 41
0.0
173
1
 91
-1056964608
 92
-2
290
1
 42
2.0
291
1
 43
8.0
  3
Standard
 44
4.0
300

342
29
174
1
175
1
176
0
178
1
 93
-1056964608
 45
4.0
292
0
297
0
 46
4.0
 94
-1056964608
 47
1.0
 49
1.0
140
1.0
294
1
141
0.0
177
0
142
1.0
295
0
296
0
143
3.75
271
0
272
9
273
9
  0
DICTIONARY
  5
2D
330
A
100
AcDbDictionary
280
1
281
1
  3
CREATED_BY_EZDXF
350
2E
  3
WRITTEN_BY_EZDXF
350
32
  0
DICTIONARYVAR
  5
2E
330
2D
100
DictionaryVariables
280
0
  1
1.3.5 @ 2025-08-20T01:05:14.233682+00:00
  0
DICTIONARYVAR
  5
32
330
2D
100
DictionaryVariables
280
0
  1
1.3.5 @ 2025-08-20T01:05:14.239666+00:00
  0
ENDSEC
  0
EOF
