  0
SECTION
  2
HEADER
  9
$ACADVER
  1
AC1032
  9
$ACADMAINTVER
 90
4
  9
$DWGCODEPAGE
  3
ANSI_1252
  9
$LASTSAVEDBY
  1
ezdxf
  9
$REQUIREDVERSIONS
160
0
  9
$INSBASE
 10
0.0
 20
0.0
 30
0.0
  9
$EXTMIN
 10
1e+20
 20
1e+20
 30
1e+20
  9
$EXTMAX
 10
-1e+20
 20
-1e+20
 30
-1e+20
  9
$LIMMIN
 10
0.0
 20
0.0
  9
$LIMMAX
 10
420.0
 20
297.0
  9
$ORTHOMODE
 70
0
  9
$REGENMODE
 70
1
  9
$FILLMODE
 70
1
  9
$QTEXTMODE
 70
0
  9
$MIRRTEXT
 70
1
  9
$LTSCALE
 40
1.0
  9
$ATTMODE
 70
1
  9
$TEXTSIZE
 40
2.5
  9
$TRACEWID
 40
1.0
  9
$TEXTSTYLE
  7
Standard
  9
$CLAYER
  8
0
  9
$CELTYPE
  6
ByLayer
  9
$CECOLOR
 62
256
  9
$CELTSCALE
 40
1.0
  9
$DISPSILH
 70
0
  9
$DIMSCALE
 40
1.0
  9
$DIMASZ
 40
2.5
  9
$DIMEXO
 40
0.625
  9
$DIMDLI
 40
3.75
  9
$DIMRND
 40
0.0
  9
$DIMDLE
 40
0.0
  9
$DIMEXE
 40
1.25
  9
$DIMTP
 40
0.0
  9
$DIMTM
 40
0.0
  9
$DIMTXT
 40
2.5
  9
$DIMCEN
 40
2.5
  9
$DIMTSZ
 40
0.0
  9
$DIMTOL
 70
0
  9
$DIMLIM
 70
0
  9
$DIMTIH
 70
0
  9
$DIMTOH
 70
0
  9
$DIMSE1
 70
0
  9
$DIMSE2
 70
0
  9
$DIMTAD
 70
1
  9
$DIMZIN
 70
8
  9
$DIMBLK
  1

  9
$DIMASO
 70
1
  9
$DIMSHO
 70
1
  9
$DIMPOST
  1

  9
$DIMAPOST
  1

  9
$DIMALT
 70
0
  9
$DIMALTD
 70
3
  9
$DIMALTF
 40
0.03937007874
  9
$DIMLFAC
 40
1.0
  9
$DIMTOFL
 70
1
  9
$DIMTVP
 40
0.0
  9
$DIMTIX
 70
0
  9
$DIMSOXD
 70
0
  9
$DIMSAH
 70
0
  9
$DIMBLK1
  1

  9
$DIMBLK2
  1

  9
$DIMSTYLE
  2
ISO-25
  9
$DIMCLRD
 70
0
  9
$DIMCLRE
 70
0
  9
$DIMCLRT
 70
0
  9
$DIMTFAC
 40
1.0
  9
$DIMGAP
 40
0.625
  9
$DIMJUST
 70
0
  9
$DIMSD1
 70
0
  9
$DIMSD2
 70
0
  9
$DIMTOLJ
 70
0
  9
$DIMTZIN
 70
8
  9
$DIMALTZ
 70
0
  9
$DIMALTTZ
 70
0
  9
$DIMUPT
 70
0
  9
$DIMDEC
 70
2
  9
$DIMTDEC
 70
2
  9
$DIMALTU
 70
2
  9
$DIMALTTD
 70
3
  9
$DIMTXSTY
  7
Standard
  9
$DIMAUNIT
 70
0
  9
$DIMADEC
 70
0
  9
$DIMALTRND
 40
0.0
  9
$DIMAZIN
 70
0
  9
$DIMDSEP
 70
44
  9
$DIMATFIT
 70
3
  9
$DIMFRAC
 70
0
  9
$DIMLDRBLK
  1

  9
$DIMLUNIT
 70
2
  9
$DIMLWD
 70
-2
  9
$DIMLWE
 70
-2
  9
$DIMTMOVE
 70
0
  9
$DIMFXL
 40
1.0
  9
$DIMFXLON
 70
0
  9
$DIMJOGANG
 40
0.785398163397
  9
$DIMTFILL
 70
0
  9
$DIMTFILLCLR
 70
0
  9
$DIMARCSYM
 70
0
  9
$DIMLTYPE
  6

  9
$DIMLTEX1
  6

  9
$DIMLTEX2
  6

  9
$DIMTXTDIRECTION
 70
0
  9
$LUNITS
 70
2
  9
$LUPREC
 70
4
  9
$SKETCHINC
 40
1.0
  9
$FILLETRAD
 40
10.0
  9
$AUNITS
 70
0
  9
$AUPREC
 70
2
  9
$MENU
  1
.
  9
$ELEVATION
 40
0.0
  9
$PELEVATION
 40
0.0
  9
$THICKNESS
 40
0.0
  9
$LIMCHECK
 70
0
  9
$CHAMFERA
 40
0.0
  9
$CHAMFERB
 40
0.0
  9
$CHAMFERC
 40
0.0
  9
$CHAMFERD
 40
0.0
  9
$SKPOLY
 70
0
  9
$TDCREATE
 40
2460908.0869675926
  9
$TDUCREATE
 40
2458532.153996898
  9
$TDUPDATE
 40
2460908.0869675926
  9
$TDUUPDATE
 40
2458532.1544311
  9
$TDINDWG
 40
0.0
  9
$TDUSRTIMER
 40
0.0
  9
$USRTIMER
 70
1
  9
$ANGBASE
 50
0.0
  9
$ANGDIR
 70
0
  9
$PDMODE
 70
0
  9
$PDSIZE
 40
0.0
  9
$PLINEWID
 40
0.0
  9
$SPLFRAME
 70
0
  9
$SPLINETYPE
 70
6
  9
$SPLINESEGS
 70
8
  9
$HANDSEED
  5
33
  9
$SURFTAB1
 70
6
  9
$SURFTAB2
 70
6
  9
$SURFTYPE
 70
6
  9
$SURFU
 70
6
  9
$SURFV
 70
6
  9
$UCSBASE
  2

  9
$UCSNAME
  2

  9
$UCSORG
 10
0.0
 20
0.0
 30
0.0
  9
$UCSXDIR
 10
1.0
 20
0.0
 30
0.0
  9
$UCSYDIR
 10
0.0
 20
1.0
 30
0.0
  9
$UCSORTHOREF
  2

  9
$UCSORTHOVIEW
 70
0
  9
$UCSORGTOP
 10
0.0
 20
0.0
 30
0.0
  9
$UCSORGBOTTOM
 10
0.0
 20
0.0
 30
0.0
  9
$UCSORGLEFT
 10
0.0
 20
0.0
 30
0.0
  9
$UCSORGRIGHT
 10
0.0
 20
0.0
 30
0.0
  9
$UCSORGFRONT
 10
0.0
 20
0.0
 30
0.0
  9
$UCSORGBACK
 10
0.0
 20
0.0
 30
0.0
  9
$PUCSBASE
  2

  9
$PUCSNAME
  2

  9
$PUCSORG
 10
0.0
 20
0.0
 30
0.0
  9
$PUCSXDIR
 10
1.0
 20
0.0
 30
0.0
  9
$PUCSYDIR
 10
0.0
 20
1.0
 30
0.0
  9
$PUCSORTHOREF
  2

  9
$PUCSORTHOVIEW
 70
0
  9
$PUCSORGTOP
 10
0.0
 20
0.0
 30
0.0
  9
$PUCSORGBOTTOM
 10
0.0
 20
0.0
 30
0.0
  9
$PUCSORGLEFT
 10
0.0
 20
0.0
 30
0.0
  9
$PUCSORGRIGHT
 10
0.0
 20
0.0
 30
0.0
  9
$PUCSORGFRONT
 10
0.0
 20
0.0
 30
0.0
  9
$PUCSORGBACK
 10
0.0
 20
0.0
 30
0.0
  9
$USERI1
 70
0
  9
$USERI2
 70
0
  9
$USERI3
 70
0
  9
$USERI4
 70
0
  9
$USERI5
 70
0
  9
$USERR1
 40
0.0
  9
$USERR2
 40
0.0
  9
$USERR3
 40
0.0
  9
$USERR4
 40
0.0
  9
$USERR5
 40
0.0
  9
$WORLDVIEW
 70
1
  9
$SHADEDGE
 70
3
  9
$SHADEDIF
 70
70
  9
$TILEMODE
 70
1
  9
$MAXACTVP
 70
64
  9
$PINSBASE
 10
0.0
 20
0.0
 30
0.0
  9
$PLIMCHECK
 70
0
  9
$PEXTMIN
 10
1e+20
 20
1e+20
 30
1e+20
  9
$PEXTMAX
 10
-1e+20
 20
-1e+20
 30
-1e+20
  9
$PLIMMIN
 10
0.0
 20
0.0
  9
$PLIMMAX
 10
420.0
 20
297.0
  9
$UNITMODE
 70
0
  9
$VISRETAIN
 70
1
  9
$PLINEGEN
 70
0
  9
$PSLTSCALE
 70
1
  9
$TREEDEPTH
 70
3020
  9
$CMLSTYLE
  2
Standard
  9
$CMLJUST
 70
0
  9
$CMLSCALE
 40
20.0
  9
$PROXYGRAPHICS
 70
1
  9
$MEASUREMENT
 70
1
  9
$CELWEIGHT
370
-1
  9
$ENDCAPS
280
0
  9
$JOINSTYLE
280
0
  9
$LWDISPLAY
290
0
  9
$INSUNITS
 70
6
  9
$HYPERLINKBASE
  1

  9
$STYLESHEET
  1

  9
$XEDIT
290
1
  9
$CEPSNTYPE
380
0
  9
$PSTYLEMODE
290
1
  9
$FINGERPRINTGUID
  2
{9BA40F81-DD8F-46D6-AD99-EF84E72B811C}
  9
$VERSIONGUID
  2
{C33EFC29-87EE-4B5E-B93C-0C625D0A0D99}
  9
$EXTNAMES
290
1
  9
$PSVPSCALE
 40
0.0
  9
$OLESTARTUP
290
0
  9
$SORTENTS
280
127
  9
$INDEXCTL
280
0
  9
$HIDETEXT
280
1
  9
$XCLIPFRAME
280
1
  9
$HALOGAP
280
0
  9
$OBSCOLOR
 70
257
  9
$OBSLTYPE
280
0
  9
$INTERSECTIONDISPLAY
280
0
  9
$INTERSECTIONCOLOR
 70
257
  9
$DIMASSOC
280
2
  9
$PROJECTNAME
  1

  9
$CAMERADISPLAY
290
0
  9
$LENSLENGTH
 40
50.0
  9
$CAMERAHEIGHT
 40
0.0
  9
$STEPSPERSEC
 40
24.0
  9
$STEPSIZE
 40
100.0
  9
$3DDWFPREC
 40
2.0
  9
$PSOLWIDTH
 40
0.005
  9
$PSOLHEIGHT
 40
0.08
  9
$LOFTANG1
 40
1.570796326795
  9
$LOFTANG2
 40
1.570796326795
  9
$LOFTMAG1
 40
0.0
  9
$LOFTMAG2
 40
0.0
  9
$LOFTPARAM
 70
7
  9
$LOFTNORMALS
280
1
  9
$LATITUDE
 40
37.795
  9
$LONGITUDE
 40
-122.394
  9
$NORTHDIRECTION
 40
0.0
  9
$TIMEZONE
 70
-8000
  9
$LIGHTGLYPHDISPLAY
280
1
  9
$TILEMODELIGHTSYNCH
280
1
  9
$CMATERIAL
347
20
  9
$SOLIDHIST
280
0
  9
$SHOWHIST
280
1
  9
$DWFFRAME
280
2
  9
$DGNFRAME
280
2
  9
$REALWORLDSCALE
290
1
  9
$INTERFERECOLOR
 62
256
  9
$CSHADOW
280
0
  9
$SHADOWPLANELOCATION
 40
0.0
  0
ENDSEC
  0
SECTION
  2
CLASSES
  0
CLASS
  1
ACDBDICTIONARYWDFLT
  2
AcDbDictionaryWithDefault
  3
ObjectDBX Classes
 90
0
 91
0
280
0
281
0
  0
CLASS
  1
SUN
  2
AcDbSun
  3
SCENEOE
 90
1153
 91
0
280
0
281
0
  0
CLASS
  1
VISUALSTYLE
  2
AcDbVisualStyle
  3
ObjectDBX Classes
 90
4095
 91
0
280
0
281
0
  0
CLASS
  1
MATERIAL
  2
AcDbMaterial
  3
ObjectDBX Classes
 90
1153
 91
0
280
0
281
0
  0
CLASS
  1
SCALE
  2
AcDbScale
  3
ObjectDBX Classes
 90
1153
 91
0
280
0
281
0
  0
CLASS
  1
TABLESTYLE
  2
AcDbTableStyle
  3
ObjectDBX Classes
 90
4095
 91
0
280
0
281
0
  0
CLASS
  1
MLEADERSTYLE
  2
AcDbMLeaderStyle
  3
ACDB_MLEADERSTYLE_CLASS
 90
4095
 91
0
280
0
281
0
  0
CLASS
  1
DICTIONARYVAR
  2
AcDbDictionaryVar
  3
ObjectDBX Classes
 90
0
 91
0
280
0
281
0
  0
CLASS
  1
CELLSTYLEMAP
  2
AcDbCellStyleMap
  3
ObjectDBX Classes
 90
1152
 91
0
280
0
281
0
  0
CLASS
  1
MENTALRAYRENDERSETTINGS
  2
AcDbMentalRayRenderSettings
  3
SCENEOE
 90
1024
 91
0
280
0
281
0
  0
CLASS
  1
ACDBDETAILVIEWSTYLE
  2
AcDbDetailViewStyle
  3
ObjectDBX Classes
 90
1025
 91
0
280
0
281
0
  0
CLASS
  1
ACDBSECTIONVIEWSTYLE
  2
AcDbSectionViewStyle
  3
ObjectDBX Classes
 90
1025
 91
0
280
0
281
0
  0
CLASS
  1
RASTERVARIABLES
  2
AcDbRasterVariables
  3
ISM
 90
0
 91
0
280
0
281
0
  0
CLASS
  1
LAYOUT
  2
AcDbLayout
  3
ObjectDBX Classes
 90
0
 91
0
280
0
281
0
  0
CLASS
  1
ACDBPLACEHOLDER
  2
AcDbPlaceHolder
  3
ObjectDBX Classes
 90
0
 91
0
280
0
281
0
  0
ENDSEC
  0
SECTION
  2
TABLES
  0
TABLE
  2
VPORT
  5
8
330
0
100
AcDbSymbolTable
 70
1
  0
VPORT
  5
23
330
8
100
AcDbSymbolTableRecord
100
AcDbViewportTableRecord
  2
*Active
 70
0
 10
0.0
 20
0.0
 11
1.0
 21
1.0
 12
0.0
 22
0.0
 13
0.0
 23
0.0
 14
0.5
 24
0.5
 15
0.5
 25
0.5
 16
0.0
 26
0.0
 36
1.0
 17
0.0
 27
0.0
 37
0.0
 40
1000.0
 41
1.34
 42
50.0
 43
0.0
 44
0.0
 50
0.0
 51
0.0
 71
0
 72
1000
 73
1
 74
3
 75
0
 76
0
 77
0
 78
0
281
0
 65
0
146
0.0
  0
ENDTAB
  0
TABLE
  2
LTYPE
  5
2
330
0
100
AcDbSymbolTable
 70
3
  0
LTYPE
  5
24
330
2
100
AcDbSymbolTableRecord
100
AcDbLinetypeTableRecord
  2
ByBlock
 70
0
  3

 72
65
 73
0
 40
0.0
  0
LTYPE
  5
25
330
2
100
AcDbSymbolTableRecord
100
AcDbLinetypeTableRecord
  2
ByLayer
 70
0
  3

 72
65
 73
0
 40
0.0
  0
LTYPE
  5
26
330
2
100
AcDbSymbolTableRecord
100
AcDbLinetypeTableRecord
  2
Continuous
 70
0
  3

 72
65
 73
0
 40
0.0
  0
ENDTAB
  0
TABLE
  2
LAYER
  5
1
330
0
100
AcDbSymbolTable
 70
2
  0
LAYER
  5
27
330
1
100
AcDbSymbolTableRecord
100
AcDbLayerTableRecord
  2
0
 70
0
 62
7
  6
Continuous
370
-3
390
13
347
21
  0
LAYER
  5
28
330
1
100
AcDbSymbolTableRecord
100
AcDbLayerTableRecord
  2
Defpoints
 70
0
 62
7
  6
Continuous
290
0
370
-3
390
13
347
21
  0
ENDTAB
  0
TABLE
  2
STYLE
  5
5
330
0
100
AcDbSymbolTable
 70
1
  0
STYLE
  5
29
330
5
100
AcDbSymbolTableRecord
100
AcDbTextStyleTableRecord
  2
Standard
 70
0
 40
0.0
 41
1.0
 50
0.0
 71
0
 42
2.5
  3
txt
  4

  0
ENDTAB
  0
TABLE
  2
VIEW
  5
7
330
0
100
AcDbSymbolTable
 70
0
  0
ENDTAB
  0
TABLE
  2
UCS
  5
6
330
0
100
AcDbSymbolTable
 70
0
  0
ENDTAB
  0
TABLE
  2
APPID
  5
3
330
0
100
AcDbSymbolTable
 70
3
  0
APPID
  5
2A
330
3
100
AcDbSymbolTableRecord
100
AcDbRegAppTableRecord
  2
ACAD
 70
0
  0
APPID
  5
30
330
3
100
AcDbSymbolTableRecord
100
AcDbRegAppTableRecord
  2
HATCHBACKGROUNDCOLOR
 70
0
  0
APPID
  5
31
330
3
100
AcDbSymbolTableRecord
100
AcDbRegAppTableRecord
  2
EZDXF
 70
0
  0
ENDTAB
  0
TABLE
  2
DIMSTYLE
  5
4
330
0
100
AcDbSymbolTable
 70
1
100
AcDbDimStyleTable
  0
DIMSTYLE
105
2B
330
4
100
AcDbSymbolTableRecord
100
AcDbDimStyleTableRecord
  2
Standard
 70
0
 40
1.0
 41
2.5
 42
0.625
 43
3.75
 44
1.25
 45
0.0
 46
0.0
 47
0.0
 48
0.0
 49
2.5
140
2.5
141
2.5
142
0.0
143
0.03937007874
144
1.0
145
0.0
146
1.0
147
0.625
148
0.0
 69
0
 70
0
 71
0
 72
0
 73
0
 74
0
 75
0
 76
0
 77
1
 78
8
 79
3
170
0
171
3
172
1
173
0
174
0
175
0
176
0
177
0
178
0
179
2
271
2
272
2
273
2
274
3
275
0
276
0
277
2
278
44
279
0
280
0
281
0
282
0
283
0
284
8
285
0
286
0
288
0
289
3
290
0
371
-2
372
-2
  0
ENDTAB
  0
TABLE
  2
BLOCK_RECORD
  5
9
330
0
100
AcDbSymbolTable
 70
2
  0
BLOCK_RECORD
  5
17
330
9
100
AcDbSymbolTableRecord
100
AcDbBlockTableRecord
  2
*Model_Space
340
1A
 70
0
280
1
281
0
  0
BLOCK_RECORD
  5
1B
330
9
100
AcDbSymbolTableRecord
100
AcDbBlockTableRecord
  2
*Paper_Space
340
1E
 70
0
280
1
281
0
  0
ENDTAB
  0
ENDSEC
  0
SECTION
  2
BLOCKS
  0
BLOCK
  5
18
330
17
100
AcDbEntity
  8
0
100
AcDbBlockBegin
  2
*Model_Space
 70
0
 10
0.0
 20
0.0
 30
0.0
  3
*Model_Space
  1

  0
ENDBLK
  5
19
330
17
100
AcDbEntity
  8
0
100
AcDbBlockEnd
  0
BLOCK
  5
1C
330
1B
100
AcDbEntity
  8
0
100
AcDbBlockBegin
  2
*Paper_Space
 70
0
 10
0.0
 20
0.0
 30
0.0
  3
*Paper_Space
  1

  0
ENDBLK
  5
1D
330
1B
100
AcDbEntity
  8
0
100
AcDbBlockEnd
  0
ENDSEC
  0
SECTION
  2
ENTITIES
  0
LWPOLYLINE
  5
2F
330
17
100
AcDbEntity
  8
0
100
AcDbPolyline
 90
721
 70
1
 10
54.4482806423809
 20
5.347340701829984
 10
54.446680718922515
 20
5.347757923458585
 10
54.441896910758416
 20
5.348847056163363
 10
54.43396114231067
 20
5.350283035582272
 10
54.42277618527777
 20
5.352220412790815
 10
54.40852851515729
 20
5.354431351728505
 10
54.39112888475318
 20
5.356989137380327
 10
54.37050400908047
 20
5.359804522550248
 10
54.34681642032016
 20
5.362893469449315
 10
54.319992833487305
 20
5.3661667308814955
 10
54.28993602028031
 20
5.369778857922284
 10
54.25682447509124
 20
5.373583280601708
 10
54.220576931829626
 20
5.377572017814245
 10
54.18118540938991
 20
5.381826335650404
 10
54.13866586998314
 20
5.386183701929164
 10
54.09300235139828
 20
5.3908066488315445
 10
54.04428410083137
 20
5.3956218913725635
 10
53.99242985219188
 20
5.400621448446694
 10
53.937431624374305
 20
5.4058865861444465
 10
53.87938664568019
 20
5.411262753390326
 10
53.81819768780798
 20
5.416904501259826
 10
53.753880712968744
 20
5.422649297571929
 10
53.68658229113241
 20
5.428675636718703
 10
53.61606660513301
 20
5.434878309293064
 10
53.54257745324205
 20
5.441281258611586
 10
53.465952303278534
 20
5.447868522463221
 10
53.38627242133295
 20
5.45464808195349
 10
53.303537807405306
 20
5.461619937082399
 10
53.2177404803901
 20
5.468865353940455
 10
53.12888044028728
 20
5.476384332527657
 10
53.03697364930794
 20
5.484014340662986
 10
52.942004145241015
 20
5.491917910527462
 10
52.84406117528255
 20
5.5000217571361
 10
52.7430554922365
 20
5.508399165473886
 10
52.63900305831391
 20
5.516887603359796
 10
52.53196917739425
 20
5.525657584080382
 10
52.421945868372
 20
5.53479037372615
 10
52.30895707456373
 20
5.544042174025569
 10
52.19290556766786
 20
5.5535675360541354
 10
52.07396186097096
 20
5.56330115593239
 10
51.951955441186485
 20
5.573308337539791
 10
51.827048840495436
 20
5.58360504308739
 10
51.69916079280733
 20
5.594183291469663
 10
51.56837256421265
 20
5.605051063792132
 10
51.43461086972642
 20
5.616119112858764
 10
51.29795697543916
 20
5.627395419775083
 10
51.15831365304931
 20
5.639034535616585
 10
51.0158514158434
 20
5.650971156503811
 10
50.87048899773093
 20
5.663197301331234
 10
50.7222263987119
 20
5.675712970098855
 10
50.571063618786305
 20
5.688518162806674
 10
50.41707394293913
 20
5.701702126650727
 10
50.26018408618542
 20
5.71517561443498
 10
50.1004673335101
 20
5.729027873355465
 10
49.93793166601875
 20
5.743177637321673
 10
49.77259304592239
 20
5.757462374152583
 10
49.6045167771005
 20
5.77205259713474
 10
49.43360563125151
 20
5.787102857343644
 10
49.25985960837541
 20
5.802613154779291
 10
49.0833839178793
 20
5.818347672275676
 10
48.90417057865765
 20
5.834387675923309
 10
48.722219590710466
 20
5.850733165722191
 10
48.537507010721164
 20
5.867627939943854
 10
48.35007274421738
 20
5.884665668135743
 10
48.15998209507854
 20
5.902016863584403
 10
47.96722708219917
 20
5.919762792380351
 10
47.77171845838321
 20
5.937976739508568
 10
47.5736267369172
 20
5.956593401089593
 10
47.372878632816175
 20
5.9755235299273926
 10
47.169474146080105
 20
5.994767126021964
 10
46.96347858058848
 20
6.014494702659858
 10
46.754923860763384
 20
6.034381195479028
 10
46.54371275830326
 20
6.0545811555549705
 10
46.3299998242836
 20
6.075191811189248
 10
46.113785058704394
 20
6.096213162381859
 10
45.89500315768622
 20
6.117474695846258
 10
45.67364614012352
 20
6.139057677672956
 10
45.44987653819733
 20
6.160978070073003
 10
45.223597123606076
 20
6.183390424121893
 10
44.994831839666354
 20
6.206050941548099
 10
44.763661952468645
 20
6.22896760345714
 10
44.530087462012965
 20
6.25214040984902
 10
44.29409240608829
 20
6.27573189290476
 10
44.05567678469457
 20
6.2997420526243575
 10
43.814848578937365
 20
6.324089622917307
 10
43.57177830210321
 20
6.348709299904142
 10
43.32629544090556
 20
6.3736663874643265
 10
43.078481261434916
 20
6.398968866703383
 10
42.82844097309839
 20
6.424380920455308
 10
42.57608532869991
 20
6.449975833705082
 10
42.321471651013454
 20
6.476005385829768
 10
42.06468120612949
 20
6.502477557934888
 10
41.80556742407808
 20
6.529213855628371
 10
41.5443167803568
 20
6.5559864428497345
 10
41.280897350543576
 20
6.583120383961022
 10
41.01531711574389
 20
6.610534412871721
 10
40.747568094852255
 20
6.638309795672346
 10
40.47774751617022
 20
6.666291981287397
 10
40.2058553796978
 20
6.694480969716877
 10
39.93181041934443
 20
6.722868779855255
 10
39.65576718618567
 20
6.7515526400041
 10
39.37764441413097
 20
6.780524569057881
 10
39.097539331481926
 20
6.809630015941104
 10
38.81545193823851
 20
6.838868980653769
 10
38.53146350049123
 20
6.868249444301399
 10
38.24548477104406
 20
6.897844691868981
 10
37.95758105377646
 20
6.927825236643062
 10
37.667695025914504
 20
6.957939299246586
 10
37.37606250462419
 20
6.988292089086635
 10
37.0825528821466
 20
7.018542579590121
 10
36.787158177376206
 20
7.0487720368475495
 10
36.49001697917744
 20
7.079240221341505
 10
36.191121306444806
 20
7.1100283991625
 10
35.89033257031384
 20
7.140876809827949
 10
35.58799179735763
 20
7.1716548455789315
 10
35.28386317041021
 20
7.202257297008364
 10
34.97808527833596
 20
7.232943924598825
 10
34.67056887393889
 20
7.263788013335303
 10
34.361484470505545
 20
7.294724259338337
 10
34.05077474526196
 20
7.325500883230868
 10
33.73850500208763
 20
7.356288398299444
 10
33.42465927877148
 20
7.3872493367250875
 10
33.10927748084114
 20
7.417977368055242
 10
32.79236758940216
 20
7.448391226199397
 10
32.474052231107905
 20
7.4789132038211585
 10
32.154176854882905
 20
7.509446072618966
 10
31.832896011802628
 20
7.540087060894377
 10
31.510257588500256
 20
7.570348572104331
 10
31.186253603870227
 20
7.600311872339333
 10
30.860868095701523
 20
7.630139493780409
 10
30.53407712067754
 20
7.66007523469909
 10
30.206075135401427
 20
7.689809992944385
 10
29.876731532114263
 20
7.719002741943198
 10
29.54626616577098
 20
7.747921223283636
 10
29.214476598662955
 20
7.776955805207206
 10
28.881476021302785
 20
7.805789404457388
 10
28.547296358112575
 20
7.834096956672138
 10
28.212084179062302
 20
7.862056956243528
 10
27.87566897086541
 20
7.889734707051021
 10
27.538205284597396
 20
7.917227437396174
 10
27.199619835273282
 20
7.944445900082954
 10
26.86000985119463
 20
7.9712355440358635
 10
26.519456598451942
 20
7.997604350360427
 10
26.177878810954713
 20
8.023544337951122
 10
25.835439020883964
 20
8.049071469018996
 10
25.49197469605866
 20
8.074169781352998
 10
25.147632406448803
 20
8.099017769345203
 10
24.80242013315989
 20
8.123534166905097
 10
24.456377781719556
 20
8.147312643580127
 10
24.10948938991676
 20
8.170515731551314
 10
23.761909508826985
 20
8.193240659120223
 10
23.413467625163687
 20
8.215552730166307
 10
23.064342233318936
 20
8.2373053747196
 10
22.71454131439827
 20
8.258417326689592
 10
22.36407284950721
 20
8.27880731998577
 10
22.01292087643469
 20
8.298637886789153
 10
21.66115868016572
 20
8.317998274295784
 10
21.308786260700273
 20
8.336888482505655
 10
20.95590882744546
 20
8.355072694252765
 10
20.602453095416283
 20
8.372461662341072
 10
20.24850831180878
 20
8.388982101785595
 10
19.894131799396888
 20
8.40488579196339
 10
19.53921834877351
 20
8.420408550040465
 10
19.18394645433074
 20
8.435403806046848
 10
18.82829869882225
 20
8.449213450152925
 10
18.47222719561489
 20
8.462325078901765
 10
18.115886495784167
 20
8.474835920594927
 10
17.759211295450626
 20
8.486575461945865
 10
17.40220957571977
 20
8.497462436864067
 10
17.04501992545606
 20
8.507756605832116
 10
16.6875690596745
 20
8.517368721653975
 10
16.329962187782186
 20
8.526062967163638
 10
15.972118043688601
 20
8.53383136125558
 10
15.614191178469254
 20
8.540771132231361
 10
15.256173611018605
 20
8.546963546181493
 10
14.898089284653242
 20
8.552164804834444
 10
14.53993021826762
 20
8.55645617428072
 10
14.181769696846755
 20
8.559926901716365
 10
13.823502510983532
 20
8.56281280430738
 10
13.465339079492145
 20
8.564642247721753
 10
13.107279402372574
 20
8.565415231959483
 10
12.749315498519307
 20
8.56521302311108
 10
12.391439386826821
 20
8.564116887267055
 10
12.033740314491144
 20
8.562053539442424
 10
11.676129034316245
 20
8.559096264622172
 10
11.318776059588666
 20
8.555179758926837
 10
10.961697352519463
 20
8.550141490175399
 10
10.604884932003111
 20
8.544062724458367
 10
10.248330816934079
 20
8.537024727866253
 10
9.892042988417902
 20
8.528946234308547
 10
9.536199940846636
 20
8.519680673815278
 10
9.180704445918739
 20
8.509382597461938
 10
8.825621807513654
 20
8.49822251853508
 10
8.470910665068507
 20
8.485786125476618
 10
8.11671758855327
 20
8.472251912678631
 10
7.763018634651358
 20
8.457863678412645
 10
7.4097564805888485
 20
8.442369643301607
 10
7.057109620757803
 20
8.425623237375543
 10
6.705062092947182
 20
8.407786992815476
 10
6.353548593277506
 20
8.388690396334857
 10
6.002715691718768
 20
8.36851194232576
 10
5.652498084391496
 20
8.347081117501638
 10
5.3030503223711865
 20
8.324495150164053
 10
4.954185930160248
 20
8.300981876373484
 10
4.606083402150749
 20
8.276394726159964
 10
4.258774662764787
 20
8.250408635161445
 10
3.912251730896837
 20
8.22310486946844
 10
3.566571929320847
 20
8.194735208458006
 10
3.2217432391423304
 20
8.165218386039635
 10
2.8777736414668107
 20
8.134473136122814
 10
2.5347444023848085
 20
8.102507439813065
 10
2.192558293594754
 20
8.069475848185888
 10
1.8512806189761077
 20
8.035548874527832
 10
1.5110245690414883
 20
8.000409435582377
 10
1.171806106001946
 20
7.963894999168499
 10
0.8336092676464203
 20
7.926168097467219
 10
0.4965073389599068
 20
7.887317977674578
 10
0.16041905385188793
 20
7.847336658685047
 10
-0.17458230269264025
 20
7.806313387694664
 10
-0.5084234456887057
 20
7.764337411899462
 10
-0.8411537168047087
 20
7.7210756858318765
 10
-1.172691849950142
 20
7.67653619059743
 10
-1.50299648456212
 20
7.6311332377542005
 10
-1.8321329245201001
 20
7.5846963140156465
 10
-2.1599306565375427
 20
7.537160115502302
 10
-2.486552212795466
 20
7.488508680003118
 10
-2.811835061112841
 20
7.438757969729149
 10
-3.1357138976102177
 20
7.388078497966937
 10
-3.458359235574136
 20
7.336535568595944
 10
-3.7796499033864666
 20
7.283730832269141
 10
-4.099471255499331
 20
7.230167847740643
 10
-4.417920520214288
 20
7.176001166085948
 10
-4.7350310769887125
 20
7.120735209656465
 10
-5.050559127551054
 20
7.06439392176877
 10
-5.364609881308413
 20
7.007213119588869
 10
-5.677191319366306
 20
6.949274069207272
 10
-5.988287479513685
 20
6.890414238442961
 10
-6.29774381067505
 20
6.830730855597494
 10
-6.605722845031429
 20
6.770207958459823
 10
-6.9120859937183745
 20
6.709105307512529
 10
-7.216817294524833
 20
6.647260370574592
 10
-7.51990876634528
 20
6.5845918815554985
 10
-7.821368390285242
 20
6.521181106545763
 10
-8.121130862465257
 20
6.457198558831928
 10
-8.419277448975837
 20
6.3926362573084745
 10
-8.715629655424909
 20
6.327347632005426
 10
-9.010187481812476
 20
6.2613326829227836
 10
-9.303024213123518
 20
6.194502162864511
 10
-9.594066564373051
 20
6.126945319026645
 10
-9.883338478877656
 20
6.058905949680719
 10
-10.170766671652341
 20
5.990473302022767
 10
-10.456319218275008
 20
5.921322311690748
 10
-10.740077384836168
 20
5.851444997579136
 10
-11.021789391958759
 20
5.7807840369139925
 10
-11.301641715140384
 20
5.709567265755803
 10
-11.579642335486563
 20
5.637875950195078
 10
-11.855628720816279
 20
5.565726052442869
 10
-12.129592890024005
 20
5.493036306408663
 10
-12.401592165883674
 20
5.4195549327154025
 10
-12.671577206726878
 20
5.345614976830657
 10
-12.939571955870196
 20
5.271460237025958
 10
-13.205455241695484
 20
5.196692363954278
 10
-13.469308330293256
 20
5.121303376510091
 10
-13.730984651693541
 20
5.045471769085469
 10
-13.99056547198685
 20
4.969189560574886
 10
-14.24805877227871
 20
4.892538017068854
 10
-14.503359343162028
 20
4.815281321401366
 10
-14.756483146847863
 20
4.737582005753442
 10
-15.007430183336208
 20
4.659440070125083
 10
-15.256232377049162
 20
4.581180578878333
 10
-15.502719214700189
 20
4.502738228133731
 10
-15.747029285153726
 20
4.423853257408695
 10
-15.989065360108214
 20
4.344371115627726
 10
-16.228778097895244
 20
4.264624848258395
 10
-16.466264726816377
 20
4.184769006376197
 10
-16.701412056359
 20
4.104486506724615
 10
-16.934154782643656
 20
4.023947862590195
 10
-17.16466341895688
 20
3.9432183778523986
 10
-17.392775433117663
 20
3.862314014722277
 10
-17.61846688180942
 20
3.7809909749282933
 10
-17.841761708348745
 20
3.6994930567419844
 10
-18.062667893841144
 20
3.6179015262538585
 10
-18.281177457181094
 20
3.5361351173734077
 10
-18.497209132278094
 20
3.4542018112061545
 10
-18.710754938026604
 20
3.3720203416615893
 10
-18.921904121622678
 20
3.2896639937246976
 10
-19.130494150885283
 20
3.207148729606528
 10
-19.33654098802547
 20
3.1246370814881055
 10
-19.54019120301321
 20
3.0419505549773564
 10
-19.741200997576975
 20
2.959113093390855
 10
-19.939643656701747
 20
2.876035449532567
 10
-20.135551104809625
 20
2.7930426877645353
 10
-20.32892334190062
 20
2.71013480808676
 10
-20.51966313967315
 20
2.627157259423745
 10
-20.707762517021706
 20
2.5440287756849793
 10
-20.89329475893127
 20
2.4606601096744254
 10
-21.076137238748448
 20
2.3774735540556895
 10
-21.25636324145822
 20
2.294379861632735
 10
-21.43395680484954
 20
2.211216500224541
 10
-21.608836662831898
 20
2.1279914509366313
 10
-21.78101877761634
 20
2.044867245950029
 10
-21.95048718699182
 20
1.9616813530837105
 10
-22.117249872063862
 20
1.8785150384281895
 10
-22.281314813937986
 20
1.7954495680739737
 10
-22.44258478431263
 20
1.7123303909455698
 10
-22.601083726504385
 20
1.629401305314508
 10
-22.75686098218165
 20
1.54632926571322
 10
-22.90986720967601
 20
1.4634473176092753
 10
-23.06009442788195
 20
1.3806741949121624
 10
-23.20753465569393
 20
1.29792863153137
 10
-23.35210662702146
 20
1.2152186085724246
 10
-23.49389958906056
 20
1.1326174110203104
 10
-23.632856219037308
 20
1.050376818252087
 10
-23.768960554740637
 20
0.9683342980867317
 10
-23.902212596170553
 20
0.8864898505242449
 10
-24.0327015905231
 20
0.8049167605496114
 10
-24.16025702451172
 20
0.7235497242833715
 10
-24.28497612643799
 20
0.642543292801022
 10
-24.40679359242243
 20
0.5620679793891095
 10
-24.525790688555563
 20
0.4821158029421096
 10
-24.641870186535822
 20
0.40253221238452463
 10
-24.75512133355925
 20
0.3233904927013406
 10
-24.865381597444816
 20
0.24470660610360917
 10
-24.9728294725846
 20
0.16662712256130013
 10
-25.0773104079031
 20
0.08924927037597538
 10
-25.178889707279776
 20
0.01240253626108875
 10
-25.277567370714632
 20
-0.06391307978336062
 10
-25.37334339820767
 20
-0.13969757775737363
 10
-25.466152485879427
 20
-0.2147804443744014
 10
-25.5559946337299
 20
-0.2891616796344445
 10
-25.642927164533024
 20
-0.36309306291456195
 10
-25.72689275551487
 20
-0.4363228148376942
 10
-25.807859482253335
 20
-0.5091759997658868
 10
-25.88585926917051
 20
-0.5813275533370938
 10
-25.960860191844308
 20
-0.653102539913361
 10
-26.032878212485777
 20
-0.7243384273136658
 10
-26.10191333109491
 20
-0.795035215538008
 10
-26.167876300475672
 20
-0.8652661895713736
 10
-26.23094561502014
 20
-0.9348847794437909
 10
-26.290853533140204
 20
-1.0041108401102175
 10
-26.34785981531845
 20
-1.0728057827062067
 10
-26.40179394826832
 20
-1.1410349111112195
 10
-26.452679875306405
 20
-1.2085544270537227
 10
-26.500582900312153
 20
-1.2755348438202632
 10
-26.545429738300584
 20
-1.3418869142148053
 10
-26.587252313693796
 20
-1.4072855738753043
 10
-26.626107949265727
 20
-1.4719826021788192
 10
-26.661931341136917
 20
-1.5358074858388027
 10
-26.69473845151841
 20
-1.5985976926742322
 10
-26.72456120483232
 20
-1.660028158323064
 10
-26.751399601078635
 20
-1.7200988827852979
 10
-26.775350868558913
 20
-1.7786553149854376
 10
-26.796292380619764
 20
-1.8352751622598769
 10
-26.814337327773803
 20
-1.889641341352097
 10
-26.829646787166787
 20
-1.9409491724625136
 10
-26.84211409435637
 20
-1.9886138307464987
 10
-26.851948213121467
 20
-2.0313430398614014
 10
-26.859358107240993
 20
-2.0678445234645704
 10
-26.86437279106653
 20
-2.0961519331726914
 10
-26.867273058326703
 20
-2.114241597828514
 10
-26.817809868635372
 20
-2.633764823289396
 10
-26.815858776533883
 20
-2.6377577529004808
 10
-26.81001348133494
 20
-2.6496552756432235
 10
-26.800305907460636
 20
-2.66913232715558
 10
-26.78651911002654
 20
-2.6975624498707127
 10
-26.76864801799765
 20
-2.736668193900403
 10
-26.747026382770756
 20
-2.782215741432554
 10
-26.721820352526617
 20
-2.8316778625557975
 10
-26.693296213818098
 20
-2.8840140603045414
 10
-26.661540303770707
 20
-2.9375097656725297
 10
-26.626543186243666
 20
-2.991425602739637
 10
-26.588507298945608
 20
-3.045371203264359
 10
-26.547383300208132
 20
-3.0990135217791255
 10
-26.503203114453342
 20
-3.1520274939218944
 10
-26.455982703892285
 20
-3.204250587511642
 10
-26.405722068524955
 20
-3.2556828025483697
 10
-26.352510455547396
 20
-3.3062508540470907
 10
-26.296282561080147
 20
-3.355784228721258
 10
-26.237030404017677
 20
-3.4043641926613826
 10
-26.17484323155603
 20
-3.4519174608824783
 10
-26.109623815393633
 20
-3.498598584460043
 10
-26.041380136636025
 20
-3.5443262973035643
 10
-25.970290689675267
 20
-3.5889540294430713
 10
-25.896087732923256
 20
-3.6327016358335222
 10
-25.819023045757053
 20
-3.6755117937009802
 10
-25.738926114890102
 20
-3.7174498069249067
 10
-25.655886187518444
 20
-3.758442390520315
 10
-25.56991124474761
 20
-3.7984082783966953
 10
-25.480977343261017
 20
-3.8375912688255798
 10
-25.38910044526972
 20
-3.875828829625947
 10
-25.29424862635161
 20
-3.9134460251598413
 10
-25.196445829823272
 20
-3.9501990571557277
 10
-25.095757359564164
 20
-3.986258438900156
 10
-24.992101949483768
 20
-4.021616189287599
 10
-24.885463637371046
 20
-4.0564348404990795
 10
-24.775931670422022
 20
-4.0906411075496125
 10
-24.663498067531183
 20
-4.124316256529707
 10
-24.548162828698523
 20
-4.157460287439365
 10
-24.42982074451695
 20
-4.190309017444593
 10
-24.308642328273017
 20
-4.222797142665931
 10
-24.184473028891226
 20
-4.254827434801818
 10
-24.057475378552606
 20
-4.286415856063304
 10
-23.927552148955584
 20
-4.317716957525885
 10
-23.79478460619068
 20
-4.348738720295087
 10
-23.6590994652729
 20
-4.379391897174873
 10
-23.520593954503813
 20
-4.409521937089748
 10
-23.37917882668738
 20
-4.439202125024696
 10
-23.2350086328991
 20
-4.468529689281279
 10
-23.088002107048457
 20
-4.497496648753971
 10
-22.938159249135452
 20
-4.526103003442775
 10
-22.78550400247666
 20
-4.554104955076154
 10
-22.630117633162595
 20
-4.581510484759635
 10
-22.471918875102748
 20
-4.608311611387694
 10
-22.310973032176577
 20
-4.6346788482468755
 10
-22.14728010438408
 20
-4.660612195337181
 10
-21.980872016147355
 20
-4.685786588296566
 10
-21.811814071345868
 20
-4.710372540411579
 10
-21.64003298499464
 20
-4.7342808044861835
 10
-21.465520775988136
 20
-4.757592646610889
 10
-21.288358710416865
 20
-4.780316047891221
 10
-21.108554769386355
 20
-4.80236974223667
 10
-20.926100971791083
 20
-4.823834995737745
 10
-20.740997317631052
 20
-4.844711808394448
 10
-20.553251788011778
 20
-4.864918914116266
 10
-20.362937667918253
 20
-4.8845455600992365
 10
-20.170054957350477
 20
-4.903591746343359
 10
-19.974530371323464
 20
-4.921968225652597
 10
-19.776510479807182
 20
-4.939853492419024
 10
-19.575921997816657
 20
-4.957158299446603
 10
-19.37275694424634
 20
-4.973963912825845
 10
-19.16710456629229
 20
-4.990197047571765
 10
-18.958988807271076
 20
-5.005613905412828
 10
-18.748385723866118
 20
-5.0204582846205685
 10
-18.535198087775857
 20
-5.034884736270484
 10
-18.319677678377353
 20
-5.048835937588637
 10
-18.101677925700635
 20
-5.062133394182957
 10
-17.88120681085122
 20
-5.074695839962931
 10
-17.658410903799098
 20
-5.086701769320634
 10
-17.43320095734821
 20
-5.0982244672410495
 10
-17.205592933709625
 20
-5.109101401543157
 10
-16.97566809897384
 20
-5.11934055333248
 10
-16.743434434246385
 20
-5.128860656518508
 10
-16.50886799621069
 20
-5.137905509372777
 10
-16.271984747077802
 20
-5.146312579714261
 10
-16.032768724636668
 20
-5.154244399723983
 10
-15.791406404384887
 20
-5.1614731333414605
 10
-15.54772727303591
 20
-5.168064084446155
 10
-15.301812596680254
 20
-5.17402523414359
 10
-15.0537356603029
 20
-5.179445829629804
 10
-14.803431160024388
 20
-5.184155357618248
 10
-14.55096439972418
 20
-5.18832433139547
 10
-14.296424626598306
 20
-5.191879465976484
 10
-14.039665270676807
 20
-5.194642266969217
 10
-13.780848864140694
 20
-5.196628696584721
 10
-13.519951463673396
 20
-5.198082553094526
 10
-13.25697306927491
 20
-5.199003836498636
 10
-12.991913680945238
 20
-5.199392546797047
 10
-12.724878508091466
 20
-5.199012866823754
 10
-12.455883512924647
 20
-5.1977022643977335
 10
-12.184815504932168
 20
-5.195777822775505
 10
-11.911837016295049
 20
-5.1932555041681185
 10
-11.636882743133826
 20
-5.1899647952890255
 10
-11.360049913750071
 20
-5.185751145062732
 10
-11.0813145848272
 20
-5.18085835176077
 10
-10.800742060244675
 20
-5.175456928669685
 10
-10.518267036123037
 20
-5.169376362502931
 10
-10.233913455778861
 20
-5.162372854988976
 10
-9.94782788918212
 20
-5.154624900519891
 10
-9.660002355227286
 20
-5.146213765186186
 10
-9.370274321733337
 20
-5.137123486776813
 10
-9.078895568077334
 20
-5.127296742517836
 10
-8.785800790379815
 20
-5.116563019122707
 10
-8.490989988640777
 20
-5.104922316591425
 10
-8.194536447845213
 20
-5.092463882120028
 10
-7.896400262465492
 20
-5.079594046161072
 10
-7.596686641908697
 20
-5.066076991548545
 10
-7.295346244506425
 20
-5.051579672814881
 10
-6.992371089153149
 20
-5.036183356050591
 10
-6.687923708029889
 20
-5.019904003466726
 10
-6.3818909106240325
 20
-5.003058698319801
 10
-6.074369925237145
 20
-4.9854928895343225
 10
-5.765360751869221
 20
-4.967206577110289
 10
-5.454879352731314
 20
-4.94803722886668
 10
-5.1429177467179015
 20
-4.928066110894006
 10
-4.829622503798953
 20
-4.907471717584339
 10
-4.514847054004495
 20
-4.886075554545605
 10
-4.1987698917266
 20
-4.863731051807836
 10
-3.8813830358597405
 20
-4.840519475461538
 10
-3.562678505298401
 20
-4.816522091597227
 10
-3.2425830150575825
 20
-4.7916496530188635
 10
-2.9213563256198842
 20
-4.765763570862002
 10
-2.598925152000305
 20
-4.7387745979306075
 10
-2.2751603414751878
 20
-4.711162349662218
 10
-1.9502324073310853
 20
-4.682861522177378
 10
-1.6242705022916522
 20
-4.6533925000385405
 10
-1.2970881508592986
 20
-4.62298311930619
 10
-0.9687586380190003
 20
-4.591722627176366
 10
-0.6394604581628353
 20
-4.559464453679093
 10
-0.30903906021531075
 20
-4.526111370512812
 10
0.02234302364255842
 20
-4.491679339888571
 10
0.3547989839233803
 20
-4.456485445062891
 10
0.6882315923255937
 20
-4.420375134960274
 10
1.022519677231066
 20
-4.38295006023369
 10
1.3577684480468728
 20
-4.344446038049148
 10
1.6939285631046175
 20
-4.305196113874215
 10
2.030894812997204
 20
-4.264964470542887
 10
2.3687404827096246
 20
-4.223661860859123
 10
2.7074002683624085
 20
-4.181458798109475
 10
3.046842245533466
 20
-4.1380302179318935
 10
3.387066414222796
 20
-4.093376120326383
 10
3.7280234327619826
 20
-4.047829550760511
 10
4.069640016166039
 20
-4.001479756430314
 10
4.411989449419959
 20
-3.9542374901397555
 10
4.754966523116648
 20
-3.905866934722827
 10
5.098587199467158
 20
-3.856530622360552
 10
5.442851478471498
 20
-3.8062285530529305
 10
5.787678094039148
 20
-3.754968707905486
 10
6.133043102853532
 20
-3.7025072886466854
 10
6.478962467125701
 20
-3.649006827457553
 10
6.825305579096739
 20
-3.594808350911181
 10
7.1722269898421365
 20
-3.53981463070601
 10
7.519540223864298
 20
-3.483797830781555
 10
7.867334528359268
 20
-3.426831236122802
 10
8.215447371146006
 20
-3.3689308089408048
 10
8.563967999420562
 20
-3.3101698342205457
 10
8.912888432077407
 20
-3.2504670458715146
 10
9.262054118041052
 20
-3.189919672195272
 10
9.611562285613044
 20
-3.1286822642673164
 10
9.961404953687868
 20
-3.066673555997137
 10
10.311411608978975
 20
-3.00382824350527
 10
10.661671498682395
 20
-2.9402196117767057
 10
11.01211931891868
 20
-2.876018174097987
 10
11.362804411356224
 20
-2.8108908850015473
 10
11.713580206025071
 20
-2.745016238879458
 10
12.064462665136258
 20
-2.678556767912742
 10
12.41544380758427
 20
-2.611431206010887
 10
12.766507671158054
 20
-2.543477020992872
 10
13.117670218068659
 20
-2.4748567450397183
 10
13.468784878346112
 20
-2.4057488725434992
 10
13.81991695586987
 20
-2.3359828902176667
 10
14.171009127866009
 20
-2.265810577439278
 10
14.522037451017951
 20
-2.1949881359368013
 10
14.872993944220156
 20
-2.123434299619727
 10
15.223894569683694
 20
-2.0513116006690737
 10
15.574600738544099
 20
-1.978879799567429
 10
15.925193716891904
 20
-1.9061309152092627
 10
16.275568295320003
 20
-1.8328291304285718
 10
16.625732454933935
 20
-1.7590557113158634
 10
16.975686195733687
 20
-1.68481065787114
 10
17.3254374988248
 20
-1.6101752361849113
 10
17.67481585092072
 20
-1.5350841423777164
 10
18.02391049921748
 20
-1.4596106614345428
 10
18.372648158730083
 20
-1.3838440405514258
 10
18.721126057760113
 20
-1.3079388308038613
 10
19.069149739704425
 20
-1.2315859300408574
 10
19.416727185668574
 20
-1.154866604352923
 10
19.763979567270667
 20
-1.0781792030870898
 10
20.110696465696552
 20
-1.00105209191134
 10
20.456869899840687
 20
-0.9234040047351648
 10
20.80262902242675
 20
-0.8457145569961035
 10
21.147827263484757
 20
-0.768162243086229
 10
21.492498002472068
 20
-0.6902514853569517
 10
21.836567954403705
 20
-0.6120715310043049
 10
22.179955853189156
 20
-0.5336303611338152
 10
22.52275892712998
 20
-0.45508252682097866
 10
22.864903891241184
 20
-0.37651727526183304
 10
23.206398726628308
 20
-0.29801587254688744
 10
23.547146204989776
 20
-0.21942376760064738
 10
23.88713036411454
 20
-0.14057842824208827
 10
24.226375147319196
 20
-0.0617236527427441
 10
24.56488055460372
 20
0.01714055889738474
 10
24.90249203489262
 20
0.09591697837673721
 10
25.239372120366916
 20
0.17462156790636357
 10
25.57533433552903
 20
0.2534821635467471
 10
25.910386661484466
 20
0.332417499207376
 10
26.24456900376084
 20
0.4110212444356947
 10
26.577873381252665
 20
0.48937466532221646
 10
26.910121299567837
 20
0.5676243318369114
 10
27.24148327199292
 20
0.6457049401003184
 10
27.571788785241353
 20
0.7236817939918991
 10
27.901119105403648
 20
0.8015628746171781
 10
28.229408928600364
 20
0.879177668689609
 10
28.55657698874097
 20
0.9565181951036659
 10
28.882720514127033
 20
1.0334299027838525
 10
29.20765302926095
 20
1.1101406277906507
 10
29.531537066323757
 20
1.186666332335112
 10
29.8542021120289
 20
1.2630723202966965
 10
30.17569605300952
 20
1.3388709951323379
 10
30.495937623175127
 20
1.4140543757365114
 10
30.815041468073563
 20
1.4891260208633321
 10
31.132755808327794
 20
1.564143253286738
 10
31.449307024963048
 20
1.6384719064936908
 10
31.76452460469275
 20
1.7121772843636487
 10
32.078376623094826
 20
1.7855844512586592
 10
32.390863080169254
 20
1.8586934071787187
 10
32.701991957021576
 20
1.93142288603332
 10
33.01180315917941
 20
2.0033665573699047
 10
33.32011819225068
 20
2.0746709911584467
 10
33.62707564509984
 20
2.1455959478815285
 10
33.93251298554588
 20
2.2161254653281
 10
34.23644617579983
 20
2.28609701131714
 10
34.53889117807274
 20
2.3553480536676243
 10
34.839832030153566
 20
2.424041124560577
 10
35.1391874659518
 20
2.4921682428904712
 10
35.437054713769
 20
2.559574857581812
 10
35.73327124142415
 20
2.6262450064235483
 10
36.02789437169116
 20
2.692430468792737
 10
36.32076157238905
 20
2.7581152824783306
 10
36.61213260400039
 20
2.8231608586158803
 10
36.901698364374155
 20
2.887372740602263
 10
37.1896213856914
 20
2.950766890648532
 10
37.47589368684658
 20
3.0134245748451947
 10
37.760336773447634
 20
3.0754923631622244
 10
38.0429586266001
 20
3.1368889895091123
 10
38.323929759590484
 20
3.1975491500063926
 10
38.60301435525284
 20
3.257367635246985
 10
38.88030964188867
 20
3.3161898941553885
 10
39.155710410090926
 20
3.374251743897612
 10
39.42928994484456
 20
3.4316424316696907
 10
39.700974961164604
 20
3.488272710275589
 10
39.97076545905109
 20
3.5441425797153094
 10
40.23860411573002
 20
3.59900026061179
 10
40.50454825397539
 20
3.6530975323420924
 10
40.76844332271164
 20
3.7063371666046514
 10
41.03035462581828
 20
3.758889676686017
 10
41.29030610661188
 20
3.810511264314656
 10
41.54822448010745
 20
3.861112682294532
 10
41.80408580298839
 20
3.910937728897177
 10
42.05789007525473
 20
3.9599864041225916
 10
42.30963729690645
 20
4.008258707970777
 10
42.559180897973604
 20
4.055576146049659
 10
42.806699372848236
 20
4.101792148389267
 10
43.052071549912235
 20
4.147305064336632
 10
43.29522414418059
 20
4.192025646695714
 10
43.536238421743825
 20
4.235961876572043
 10
43.77504907872247
 20
4.278943240679068
 10
44.01156686792051
 20
4.321043024001777
 10
44.24594634041341
 20
4.362358454841731
 10
44.47804890733677
 20
4.402629772716345
 10
44.707858606479476
 20
4.442019509806643
 10
44.93538341894711
 20
4.480446400022115
 10
45.160599401423084
 20
4.518154241634291
 10
45.38352251611842
 20
4.55498050246215
 10
45.60407149694263
 20
4.590917201400167
 10
45.82225432500124
 20
4.6258830723578335
 10
46.03814428527924
 20
4.659967362531181
 10
46.251570864490056
 20
4.693235375799673
 10
46.46253406263373
 20
4.725687112163312
 10
46.67112312690626
 20
4.757249286637107
 10
46.87734603841319
 20
4.78784063313055
 10
47.08101632165691
 20
4.817688987704122
 10
47.282215242727936
 20
4.846802331463349
 10
47.48096674494286
 20
4.874936866136699
 10
47.67718158110562
 20
4.902165876709157
 10
47.8708437890052
 20
4.928651895361747
 10
48.062050596943116
 20
4.954240371018966
 10
48.2506474538439
 20
4.978834075379258
 10
48.43669966358702
 20
5.0026035217291716
 10
48.62019924506692
 20
5.025629976159213
 10
48.80106493219312
 20
5.047905457563861
 10
48.979312687176645
 20
5.06926743376209
 10
49.154934528912
 20
5.089797170844415
 10
49.327914495188104
 20
5.1096572009918555
 10
49.4982605671105
 20
5.128766258113901
 10
49.66590744079972
 20
5.146953828924003
 10
49.83085511625577
 20
5.164219913422164
 10
49.99315293514706
 20
5.1808975570759515
 10
50.15272761248858
 20
5.19689751268933
 10
50.30957914828038
 20
5.2122197802623
 10
50.46371552362794
 20
5.2267830937043485
 10
50.615055472440766
 20
5.240579471909952
 10
50.76368026080938
 20
5.253616895984637
 10
50.909492660432186
 20
5.2660499170038975
 10
51.052508633520276
 20
5.277716002786713
 10
51.19271221786258
 20
5.2887776855141055
 10
51.33020064176064
 20
5.299080414110577
 10
51.464795410822425
 20
5.3087707585461
 10
51.596569810032896
 20
5.317937966016711
 10
51.72545055440707
 20
5.326492789326376
 10
51.851526891140985
 20
5.334361943490102
 10
51.974701591933076
 20
5.341699979583394
 10
52.0950718850849
 20
5.348352346530752
 10
52.21245129509887
 20
5.3545468803926575
 10
52.32701033526154
 20
5.3602182772896505
 10
52.43858647339187
 20
5.36535057501068
 10
52.54726097558038
 20
5.369951754661275
 10
52.65303384182707
 20
5.37402181624143
 10
52.75589709102642
 20
5.377642025841661
 10
52.85577743819343
 20
5.380723136265929
 10
52.95265892111705
 20
5.383427679695256
 10
53.04663078699333
 20
5.3856823711446555
 10
53.13760378862624
 20
5.387560495599116
 10
53.225585907121285
 20
5.388980786968126
 10
53.31056916137294
 20
5.390024511342194
 10
53.39256153248674
 20
5.390610402630809
 10
53.47155503935717
 20
5.390819726924488
 10
53.54753371977315
 20
5.390815016404245
 10
53.62043226985524
 20
5.390425757783538
 10
53.69040524067894
 20
5.389749179363926
 10
53.75720085286719
 20
5.388842603919346
 10
53.82107088579703
 20
5.3876487086758615
 10
53.88185280728745
 20
5.3861515314224215
 10
53.93953065512741
 20
5.38451360434005
 10
53.99419367651293
 20
5.38266164244376
 10
54.045760605353514
 20
5.380587664628026
 10
54.0942154794381
 20
5.378454203073869
 10
54.13965552706826
 20
5.376106706705797
 10
54.18198351994242
 20
5.373699726599302
 10
54.221207439166115
 20
5.371151996663874
 10
54.257311322528274
 20
5.368626049080536
 10
54.29030315113447
 20
5.366040617758777
 10
54.320256209969635
 20
5.363484949894632
 10
54.347007966852765
 20
5.360943083277051
 10
54.37063170676887
 20
5.358504265102072
 10
54.39120869580843
 20
5.356176476475217
 10
54.40857640179045
 20
5.353943755185439
 10
54.42280012859435
 20
5.351976614519282
 10
54.4339691234162
 20
5.350201769491762
 10
54.44190489186394
 20
5.348765790072853
 10
54.446680718922515
 20
5.347757923458585
 10
54.4482806423809
 20
5.347340701829984
  0
ENDSEC
  0
SECTION
  2
OBJECTS
  0
DICTIONARY
  5
A
330
0
100
AcDbDictionary
280
0
281
1
  3
ACAD_COLOR
350
B
  3
ACAD_GROUP
350
C
  3
ACAD_LAYOUT
350
D
  3
ACAD_MATERIAL
350
E
  3
ACAD_MLEADERSTYLE
350
F
  3
ACAD_MLINESTYLE
350
10
  3
ACAD_PLOTSETTINGS
350
11
  3
ACAD_PLOTSTYLENAME
350
12
  3
ACAD_SCALELIST
350
14
  3
ACAD_TABLESTYLE
350
15
  3
ACAD_VISUALSTYLE
350
16
  3
EZDXF_META
350
2D
  0
DICTIONARY
  5
B
330
A
100
AcDbDictionary
280
0
281
1
  0
DICTIONARY
  5
C
330
A
100
AcDbDictionary
280
0
281
1
  0
DICTIONARY
  5
D
330
A
100
AcDbDictionary
280
0
281
1
  3
Model
350
1A
  3
Layout1
350
1E
  0
DICTIONARY
  5
E
330
A
100
AcDbDictionary
280
0
281
1
  3
ByBlock
350
1F
  3
ByLayer
350
20
  3
Global
350
21
  0
DICTIONARY
  5
F
330
A
100
AcDbDictionary
280
0
281
1
  3
Standard
350
2C
  0
DICTIONARY
  5
10
330
A
100
AcDbDictionary
280
0
281
1
  3
Standard
350
22
  0
DICTIONARY
  5
11
330
A
100
AcDbDictionary
280
0
281
1
  0
ACDBDICTIONARYWDFLT
  5
12
330
A
100
AcDbDictionary
280
0
281
1
  3
Normal
350
13
100
AcDbDictionaryWithDefault
340
13
  0
ACDBPLACEHOLDER
  5
13
330
12
  0
DICTIONARY
  5
14
330
A
100
AcDbDictionary
280
0
281
1
  0
DICTIONARY
  5
15
330
A
100
AcDbDictionary
280
0
281
1
  0
DICTIONARY
  5
16
330
A
100
AcDbDictionary
280
0
281
1
  0
LAYOUT
  5
1A
330
D
100
AcDbPlotSettings
  1

  4
A3
  6

 40
7.5
 41
20.0
 42
7.5
 43
20.0
 44
420.0
 45
297.0
 46
0.0
 47
0.0
 48
0.0
 49
0.0
140
0.0
141
0.0
142
1.0
143
1.0
 70
1024
 72
1
 73
0
 74
5
  7

 75
16
 76
0
 77
2
 78
300
147
1.0
148
0.0
149
0.0
100
AcDbLayout
  1
Model
 70
1
 71
0
 10
0.0
 20
0.0
 11
420.0
 21
297.0
 12
0.0
 22
0.0
 32
0.0
 14
1e+20
 24
1e+20
 34
1e+20
 15
-1e+20
 25
-1e+20
 35
-1e+20
146
0.0
 13
0.0
 23
0.0
 33
0.0
 16
1.0
 26
0.0
 36
0.0
 17
0.0
 27
1.0
 37
0.0
 76
1
330
17
  0
LAYOUT
  5
1E
330
D
100
AcDbPlotSettings
  1

  4
A3
  6

 40
7.5
 41
20.0
 42
7.5
 43
20.0
 44
420.0
 45
297.0
 46
0.0
 47
0.0
 48
0.0
 49
0.0
140
0.0
141
0.0
142
1.0
143
1.0
 70
0
 72
1
 73
0
 74
5
  7

 75
16
 76
0
 77
2
 78
300
147
1.0
148
0.0
149
0.0
100
AcDbLayout
  1
Layout1
 70
1
 71
1
 10
0.0
 20
0.0
 11
420.0
 21
297.0
 12
0.0
 22
0.0
 32
0.0
 14
1e+20
 24
1e+20
 34
1e+20
 15
-1e+20
 25
-1e+20
 35
-1e+20
146
0.0
 13
0.0
 23
0.0
 33
0.0
 16
1.0
 26
0.0
 36
0.0
 17
0.0
 27
1.0
 37
0.0
 76
1
330
1B
  0
MATERIAL
  5
1F
102
{ACAD_REACTORS
330
E
102
}
330
E
100
AcDbMaterial
  1
ByBlock
  2

 70
0
 40
1.0
 71
1
 41
1.0
 91
-1023410177
 42
1.0
 72
1
  3

 73
1
 74
1
 75
1
 44
0.5
 73
0
 45
1.0
 46
1.0
 77
1
  4

 78
1
 79
1
170
1
 48
1.0
171
1
  6

172
1
173
1
174
1
140
1.0
141
1.0
175
1
  7

176
1
177
1
178
1
143
1.0
179
1
  8

270
1
271
1
272
1
145
1.0
146
1.0
273
1
  9

274
1
275
1
276
1
 42
1.0
 72
1
  3

 73
1
 74
1
 75
1
 94
63
  0
MATERIAL
  5
20
102
{ACAD_REACTORS
330
E
102
}
330
E
100
AcDbMaterial
  1
ByLayer
  2

 70
0
 40
1.0
 71
1
 41
1.0
 91
-1023410177
 42
1.0
 72
1
  3

 73
1
 74
1
 75
1
 44
0.5
 73
0
 45
1.0
 46
1.0
 77
1
  4

 78
1
 79
1
170
1
 48
1.0
171
1
  6

172
1
173
1
174
1
140
1.0
141
1.0
175
1
  7

176
1
177
1
178
1
143
1.0
179
1
  8

270
1
271
1
272
1
145
1.0
146
1.0
273
1
  9

274
1
275
1
276
1
 42
1.0
 72
1
  3

 73
1
 74
1
 75
1
 94
63
  0
MATERIAL
  5
21
102
{ACAD_REACTORS
330
E
102
}
330
E
100
AcDbMaterial
  1
Global
  2

 70
0
 40
1.0
 71
1
 41
1.0
 91
-1023410177
 42
1.0
 72
1
  3

 73
1
 74
1
 75
1
 44
0.5
 73
0
 45
1.0
 46
1.0
 77
1
  4

 78
1
 79
1
170
1
 48
1.0
171
1
  6

172
1
173
1
174
1
140
1.0
141
1.0
175
1
  7

176
1
177
1
178
1
143
1.0
179
1
  8

270
1
271
1
272
1
145
1.0
146
1.0
273
1
  9

274
1
275
1
276
1
 42
1.0
 72
1
  3

 73
1
 74
1
 75
1
 94
63
  0
MLINESTYLE
  5
22
102
{ACAD_REACTORS
330
10
102
}
330
10
100
AcDbMlineStyle
  2
Standard
 70
0
  3

 62
256
 51
90.0
 52
90.0
 71
2
 49
0.5
 62
256
  6
BYLAYER
 49
-0.5
 62
256
  6
BYLAYER
  0
MLEADERSTYLE
  5
2C
102
{ACAD_REACTORS
330
F
102
}
330
F
100
AcDbMLeaderStyle
179
2
170
2
171
1
172
0
 90
2
 40
0.0
 41
0.0
173
1
 91
-1056964608
 92
-2
290
1
 42
2.0
291
1
 43
8.0
  3
Standard
 44
4.0
300

342
29
174
1
175
1
176
0
178
1
 93
-1056964608
 45
4.0
292
0
297
0
 46
4.0
 94
-1056964608
 47
1.0
 49
1.0
140
1.0
294
1
141
0.0
177
0
142
1.0
295
0
296
0
143
3.75
271
0
272
9
273
9
  0
DICTIONARY
  5
2D
330
A
100
AcDbDictionary
280
1
281
1
  3
CREATED_BY_EZDXF
350
2E
  3
WRITTEN_BY_EZDXF
350
32
  0
DICTIONARYVAR
  5
2E
330
2D
100
DictionaryVariables
280
0
  1
1.3.5 @ 2025-08-20T01:05:14.039833+00:00
  0
DICTIONARYVAR
  5
32
330
2D
100
DictionaryVariables
280
0
  1
1.3.5 @ 2025-08-20T01:05:14.046192+00:00
  0
ENDSEC
  0
EOF
