  0
SECTION
  2
HEADER
  9
$ACADVER
  1
AC1032
  9
$ACADMAINTVER
 90
4
  9
$DWGCODEPAGE
  3
ANSI_1252
  9
$LASTSAVEDBY
  1
ezdxf
  9
$REQUIREDVERSIONS
160
0
  9
$INSBASE
 10
0.0
 20
0.0
 30
0.0
  9
$EXTMIN
 10
1e+20
 20
1e+20
 30
1e+20
  9
$EXTMAX
 10
-1e+20
 20
-1e+20
 30
-1e+20
  9
$LIMMIN
 10
0.0
 20
0.0
  9
$LIMMAX
 10
420.0
 20
297.0
  9
$ORTHOMODE
 70
0
  9
$REGENMODE
 70
1
  9
$FILLMODE
 70
1
  9
$QTEXTMODE
 70
0
  9
$MIRRTEXT
 70
1
  9
$LTSCALE
 40
1.0
  9
$ATTMODE
 70
1
  9
$TEXTSIZE
 40
2.5
  9
$TRACEWID
 40
1.0
  9
$TEXTSTYLE
  7
Standard
  9
$CLAYER
  8
0
  9
$CELTYPE
  6
ByLayer
  9
$CECOLOR
 62
256
  9
$CELTSCALE
 40
1.0
  9
$DISPSILH
 70
0
  9
$DIMSCALE
 40
1.0
  9
$DIMASZ
 40
2.5
  9
$DIMEXO
 40
0.625
  9
$DIMDLI
 40
3.75
  9
$DIMRND
 40
0.0
  9
$DIMDLE
 40
0.0
  9
$DIMEXE
 40
1.25
  9
$DIMTP
 40
0.0
  9
$DIMTM
 40
0.0
  9
$DIMTXT
 40
2.5
  9
$DIMCEN
 40
2.5
  9
$DIMTSZ
 40
0.0
  9
$DIMTOL
 70
0
  9
$DIMLIM
 70
0
  9
$DIMTIH
 70
0
  9
$DIMTOH
 70
0
  9
$DIMSE1
 70
0
  9
$DIMSE2
 70
0
  9
$DIMTAD
 70
1
  9
$DIMZIN
 70
8
  9
$DIMBLK
  1

  9
$DIMASO
 70
1
  9
$DIMSHO
 70
1
  9
$DIMPOST
  1

  9
$DIMAPOST
  1

  9
$DIMALT
 70
0
  9
$DIMALTD
 70
3
  9
$DIMALTF
 40
0.03937007874
  9
$DIMLFAC
 40
1.0
  9
$DIMTOFL
 70
1
  9
$DIMTVP
 40
0.0
  9
$DIMTIX
 70
0
  9
$DIMSOXD
 70
0
  9
$DIMSAH
 70
0
  9
$DIMBLK1
  1

  9
$DIMBLK2
  1

  9
$DIMSTYLE
  2
ISO-25
  9
$DIMCLRD
 70
0
  9
$DIMCLRE
 70
0
  9
$DIMCLRT
 70
0
  9
$DIMTFAC
 40
1.0
  9
$DIMGAP
 40
0.625
  9
$DIMJUST
 70
0
  9
$DIMSD1
 70
0
  9
$DIMSD2
 70
0
  9
$DIMTOLJ
 70
0
  9
$DIMTZIN
 70
8
  9
$DIMALTZ
 70
0
  9
$DIMALTTZ
 70
0
  9
$DIMUPT
 70
0
  9
$DIMDEC
 70
2
  9
$DIMTDEC
 70
2
  9
$DIMALTU
 70
2
  9
$DIMALTTD
 70
3
  9
$DIMTXSTY
  7
Standard
  9
$DIMAUNIT
 70
0
  9
$DIMADEC
 70
0
  9
$DIMALTRND
 40
0.0
  9
$DIMAZIN
 70
0
  9
$DIMDSEP
 70
44
  9
$DIMATFIT
 70
3
  9
$DIMFRAC
 70
0
  9
$DIMLDRBLK
  1

  9
$DIMLUNIT
 70
2
  9
$DIMLWD
 70
-2
  9
$DIMLWE
 70
-2
  9
$DIMTMOVE
 70
0
  9
$DIMFXL
 40
1.0
  9
$DIMFXLON
 70
0
  9
$DIMJOGANG
 40
0.785398163397
  9
$DIMTFILL
 70
0
  9
$DIMTFILLCLR
 70
0
  9
$DIMARCSYM
 70
0
  9
$DIMLTYPE
  6

  9
$DIMLTEX1
  6

  9
$DIMLTEX2
  6

  9
$DIMTXTDIRECTION
 70
0
  9
$LUNITS
 70
2
  9
$LUPREC
 70
4
  9
$SKETCHINC
 40
1.0
  9
$FILLETRAD
 40
10.0
  9
$AUNITS
 70
0
  9
$AUPREC
 70
2
  9
$MENU
  1
.
  9
$ELEVATION
 40
0.0
  9
$PELEVATION
 40
0.0
  9
$THICKNESS
 40
0.0
  9
$LIMCHECK
 70
0
  9
$CHAMFERA
 40
0.0
  9
$CHAMFERB
 40
0.0
  9
$CHAMFERC
 40
0.0
  9
$CHAMFERD
 40
0.0
  9
$SKPOLY
 70
0
  9
$TDCREATE
 40
2460908.0869560186
  9
$TDUCREATE
 40
2458532.153996898
  9
$TDUPDATE
 40
2460908.0869560186
  9
$TDUUPDATE
 40
2458532.1544311
  9
$TDINDWG
 40
0.0
  9
$TDUSRTIMER
 40
0.0
  9
$USRTIMER
 70
1
  9
$ANGBASE
 50
0.0
  9
$ANGDIR
 70
0
  9
$PDMODE
 70
0
  9
$PDSIZE
 40
0.0
  9
$PLINEWID
 40
0.0
  9
$SPLFRAME
 70
0
  9
$SPLINETYPE
 70
6
  9
$SPLINESEGS
 70
8
  9
$HANDSEED
  5
33
  9
$SURFTAB1
 70
6
  9
$SURFTAB2
 70
6
  9
$SURFTYPE
 70
6
  9
$SURFU
 70
6
  9
$SURFV
 70
6
  9
$UCSBASE
  2

  9
$UCSNAME
  2

  9
$UCSORG
 10
0.0
 20
0.0
 30
0.0
  9
$UCSXDIR
 10
1.0
 20
0.0
 30
0.0
  9
$UCSYDIR
 10
0.0
 20
1.0
 30
0.0
  9
$UCSORTHOREF
  2

  9
$UCSORTHOVIEW
 70
0
  9
$UCSORGTOP
 10
0.0
 20
0.0
 30
0.0
  9
$UCSORGBOTTOM
 10
0.0
 20
0.0
 30
0.0
  9
$UCSORGLEFT
 10
0.0
 20
0.0
 30
0.0
  9
$UCSORGRIGHT
 10
0.0
 20
0.0
 30
0.0
  9
$UCSORGFRONT
 10
0.0
 20
0.0
 30
0.0
  9
$UCSORGBACK
 10
0.0
 20
0.0
 30
0.0
  9
$PUCSBASE
  2

  9
$PUCSNAME
  2

  9
$PUCSORG
 10
0.0
 20
0.0
 30
0.0
  9
$PUCSXDIR
 10
1.0
 20
0.0
 30
0.0
  9
$PUCSYDIR
 10
0.0
 20
1.0
 30
0.0
  9
$PUCSORTHOREF
  2

  9
$PUCSORTHOVIEW
 70
0
  9
$PUCSORGTOP
 10
0.0
 20
0.0
 30
0.0
  9
$PUCSORGBOTTOM
 10
0.0
 20
0.0
 30
0.0
  9
$PUCSORGLEFT
 10
0.0
 20
0.0
 30
0.0
  9
$PUCSORGRIGHT
 10
0.0
 20
0.0
 30
0.0
  9
$PUCSORGFRONT
 10
0.0
 20
0.0
 30
0.0
  9
$PUCSORGBACK
 10
0.0
 20
0.0
 30
0.0
  9
$USERI1
 70
0
  9
$USERI2
 70
0
  9
$USERI3
 70
0
  9
$USERI4
 70
0
  9
$USERI5
 70
0
  9
$USERR1
 40
0.0
  9
$USERR2
 40
0.0
  9
$USERR3
 40
0.0
  9
$USERR4
 40
0.0
  9
$USERR5
 40
0.0
  9
$WORLDVIEW
 70
1
  9
$SHADEDGE
 70
3
  9
$SHADEDIF
 70
70
  9
$TILEMODE
 70
1
  9
$MAXACTVP
 70
64
  9
$PINSBASE
 10
0.0
 20
0.0
 30
0.0
  9
$PLIMCHECK
 70
0
  9
$PEXTMIN
 10
1e+20
 20
1e+20
 30
1e+20
  9
$PEXTMAX
 10
-1e+20
 20
-1e+20
 30
-1e+20
  9
$PLIMMIN
 10
0.0
 20
0.0
  9
$PLIMMAX
 10
420.0
 20
297.0
  9
$UNITMODE
 70
0
  9
$VISRETAIN
 70
1
  9
$PLINEGEN
 70
0
  9
$PSLTSCALE
 70
1
  9
$TREEDEPTH
 70
3020
  9
$CMLSTYLE
  2
Standard
  9
$CMLJUST
 70
0
  9
$CMLSCALE
 40
20.0
  9
$PROXYGRAPHICS
 70
1
  9
$MEASUREMENT
 70
1
  9
$CELWEIGHT
370
-1
  9
$ENDCAPS
280
0
  9
$JOINSTYLE
280
0
  9
$LWDISPLAY
290
0
  9
$INSUNITS
 70
6
  9
$HYPERLINKBASE
  1

  9
$STYLESHEET
  1

  9
$XEDIT
290
1
  9
$CEPSNTYPE
380
0
  9
$PSTYLEMODE
290
1
  9
$FINGERPRINTGUID
  2
{24D61045-272E-4721-8F70-22F8CCFAFD92}
  9
$VERSIONGUID
  2
{51E09815-4565-4872-A1D1-1798A890C5A2}
  9
$EXTNAMES
290
1
  9
$PSVPSCALE
 40
0.0
  9
$OLESTARTUP
290
0
  9
$SORTENTS
280
127
  9
$INDEXCTL
280
0
  9
$HIDETEXT
280
1
  9
$XCLIPFRAME
280
1
  9
$HALOGAP
280
0
  9
$OBSCOLOR
 70
257
  9
$OBSLTYPE
280
0
  9
$INTERSECTIONDISPLAY
280
0
  9
$INTERSECTIONCOLOR
 70
257
  9
$DIMASSOC
280
2
  9
$PROJECTNAME
  1

  9
$CAMERADISPLAY
290
0
  9
$LENSLENGTH
 40
50.0
  9
$CAMERAHEIGHT
 40
0.0
  9
$STEPSPERSEC
 40
24.0
  9
$STEPSIZE
 40
100.0
  9
$3DDWFPREC
 40
2.0
  9
$PSOLWIDTH
 40
0.005
  9
$PSOLHEIGHT
 40
0.08
  9
$LOFTANG1
 40
1.570796326795
  9
$LOFTANG2
 40
1.570796326795
  9
$LOFTMAG1
 40
0.0
  9
$LOFTMAG2
 40
0.0
  9
$LOFTPARAM
 70
7
  9
$LOFTNORMALS
280
1
  9
$LATITUDE
 40
37.795
  9
$LONGITUDE
 40
-122.394
  9
$NORTHDIRECTION
 40
0.0
  9
$TIMEZONE
 70
-8000
  9
$LIGHTGLYPHDISPLAY
280
1
  9
$TILEMODELIGHTSYNCH
280
1
  9
$CMATERIAL
347
20
  9
$SOLIDHIST
280
0
  9
$SHOWHIST
280
1
  9
$DWFFRAME
280
2
  9
$DGNFRAME
280
2
  9
$REALWORLDSCALE
290
1
  9
$INTERFERECOLOR
 62
256
  9
$CSHADOW
280
0
  9
$SHADOWPLANELOCATION
 40
0.0
  0
ENDSEC
  0
SECTION
  2
CLASSES
  0
CLASS
  1
ACDBDICTIONARYWDFLT
  2
AcDbDictionaryWithDefault
  3
ObjectDBX Classes
 90
0
 91
0
280
0
281
0
  0
CLASS
  1
SUN
  2
AcDbSun
  3
SCENEOE
 90
1153
 91
0
280
0
281
0
  0
CLASS
  1
VISUALSTYLE
  2
AcDbVisualStyle
  3
ObjectDBX Classes
 90
4095
 91
0
280
0
281
0
  0
CLASS
  1
MATERIAL
  2
AcDbMaterial
  3
ObjectDBX Classes
 90
1153
 91
0
280
0
281
0
  0
CLASS
  1
SCALE
  2
AcDbScale
  3
ObjectDBX Classes
 90
1153
 91
0
280
0
281
0
  0
CLASS
  1
TABLESTYLE
  2
AcDbTableStyle
  3
ObjectDBX Classes
 90
4095
 91
0
280
0
281
0
  0
CLASS
  1
MLEADERSTYLE
  2
AcDbMLeaderStyle
  3
ACDB_MLEADERSTYLE_CLASS
 90
4095
 91
0
280
0
281
0
  0
CLASS
  1
DICTIONARYVAR
  2
AcDbDictionaryVar
  3
ObjectDBX Classes
 90
0
 91
0
280
0
281
0
  0
CLASS
  1
CELLSTYLEMAP
  2
AcDbCellStyleMap
  3
ObjectDBX Classes
 90
1152
 91
0
280
0
281
0
  0
CLASS
  1
MENTALRAYRENDERSETTINGS
  2
AcDbMentalRayRenderSettings
  3
SCENEOE
 90
1024
 91
0
280
0
281
0
  0
CLASS
  1
ACDBDETAILVIEWSTYLE
  2
AcDbDetailViewStyle
  3
ObjectDBX Classes
 90
1025
 91
0
280
0
281
0
  0
CLASS
  1
ACDBSECTIONVIEWSTYLE
  2
AcDbSectionViewStyle
  3
ObjectDBX Classes
 90
1025
 91
0
280
0
281
0
  0
CLASS
  1
RASTERVARIABLES
  2
AcDbRasterVariables
  3
ISM
 90
0
 91
0
280
0
281
0
  0
CLASS
  1
LAYOUT
  2
AcDbLayout
  3
ObjectDBX Classes
 90
0
 91
0
280
0
281
0
  0
CLASS
  1
ACDBPLACEHOLDER
  2
AcDbPlaceHolder
  3
ObjectDBX Classes
 90
0
 91
0
280
0
281
0
  0
ENDSEC
  0
SECTION
  2
TABLES
  0
TABLE
  2
VPORT
  5
8
330
0
100
AcDbSymbolTable
 70
1
  0
VPORT
  5
23
330
8
100
AcDbSymbolTableRecord
100
AcDbViewportTableRecord
  2
*Active
 70
0
 10
0.0
 20
0.0
 11
1.0
 21
1.0
 12
0.0
 22
0.0
 13
0.0
 23
0.0
 14
0.5
 24
0.5
 15
0.5
 25
0.5
 16
0.0
 26
0.0
 36
1.0
 17
0.0
 27
0.0
 37
0.0
 40
1000.0
 41
1.34
 42
50.0
 43
0.0
 44
0.0
 50
0.0
 51
0.0
 71
0
 72
1000
 73
1
 74
3
 75
0
 76
0
 77
0
 78
0
281
0
 65
0
146
0.0
  0
ENDTAB
  0
TABLE
  2
LTYPE
  5
2
330
0
100
AcDbSymbolTable
 70
3
  0
LTYPE
  5
24
330
2
100
AcDbSymbolTableRecord
100
AcDbLinetypeTableRecord
  2
ByBlock
 70
0
  3

 72
65
 73
0
 40
0.0
  0
LTYPE
  5
25
330
2
100
AcDbSymbolTableRecord
100
AcDbLinetypeTableRecord
  2
ByLayer
 70
0
  3

 72
65
 73
0
 40
0.0
  0
LTYPE
  5
26
330
2
100
AcDbSymbolTableRecord
100
AcDbLinetypeTableRecord
  2
Continuous
 70
0
  3

 72
65
 73
0
 40
0.0
  0
ENDTAB
  0
TABLE
  2
LAYER
  5
1
330
0
100
AcDbSymbolTable
 70
2
  0
LAYER
  5
27
330
1
100
AcDbSymbolTableRecord
100
AcDbLayerTableRecord
  2
0
 70
0
 62
7
  6
Continuous
370
-3
390
13
347
21
  0
LAYER
  5
28
330
1
100
AcDbSymbolTableRecord
100
AcDbLayerTableRecord
  2
Defpoints
 70
0
 62
7
  6
Continuous
290
0
370
-3
390
13
347
21
  0
ENDTAB
  0
TABLE
  2
STYLE
  5
5
330
0
100
AcDbSymbolTable
 70
1
  0
STYLE
  5
29
330
5
100
AcDbSymbolTableRecord
100
AcDbTextStyleTableRecord
  2
Standard
 70
0
 40
0.0
 41
1.0
 50
0.0
 71
0
 42
2.5
  3
txt
  4

  0
ENDTAB
  0
TABLE
  2
VIEW
  5
7
330
0
100
AcDbSymbolTable
 70
0
  0
ENDTAB
  0
TABLE
  2
UCS
  5
6
330
0
100
AcDbSymbolTable
 70
0
  0
ENDTAB
  0
TABLE
  2
APPID
  5
3
330
0
100
AcDbSymbolTable
 70
3
  0
APPID
  5
2A
330
3
100
AcDbSymbolTableRecord
100
AcDbRegAppTableRecord
  2
ACAD
 70
0
  0
APPID
  5
30
330
3
100
AcDbSymbolTableRecord
100
AcDbRegAppTableRecord
  2
HATCHBACKGROUNDCOLOR
 70
0
  0
APPID
  5
31
330
3
100
AcDbSymbolTableRecord
100
AcDbRegAppTableRecord
  2
EZDXF
 70
0
  0
ENDTAB
  0
TABLE
  2
DIMSTYLE
  5
4
330
0
100
AcDbSymbolTable
 70
1
100
AcDbDimStyleTable
  0
DIMSTYLE
105
2B
330
4
100
AcDbSymbolTableRecord
100
AcDbDimStyleTableRecord
  2
Standard
 70
0
 40
1.0
 41
2.5
 42
0.625
 43
3.75
 44
1.25
 45
0.0
 46
0.0
 47
0.0
 48
0.0
 49
2.5
140
2.5
141
2.5
142
0.0
143
0.03937007874
144
1.0
145
0.0
146
1.0
147
0.625
148
0.0
 69
0
 70
0
 71
0
 72
0
 73
0
 74
0
 75
0
 76
0
 77
1
 78
8
 79
3
170
0
171
3
172
1
173
0
174
0
175
0
176
0
177
0
178
0
179
2
271
2
272
2
273
2
274
3
275
0
276
0
277
2
278
44
279
0
280
0
281
0
282
0
283
0
284
8
285
0
286
0
288
0
289
3
290
0
371
-2
372
-2
  0
ENDTAB
  0
TABLE
  2
BLOCK_RECORD
  5
9
330
0
100
AcDbSymbolTable
 70
2
  0
BLOCK_RECORD
  5
17
330
9
100
AcDbSymbolTableRecord
100
AcDbBlockTableRecord
  2
*Model_Space
340
1A
 70
0
280
1
281
0
  0
BLOCK_RECORD
  5
1B
330
9
100
AcDbSymbolTableRecord
100
AcDbBlockTableRecord
  2
*Paper_Space
340
1E
 70
0
280
1
281
0
  0
ENDTAB
  0
ENDSEC
  0
SECTION
  2
BLOCKS
  0
BLOCK
  5
18
330
17
100
AcDbEntity
  8
0
100
AcDbBlockBegin
  2
*Model_Space
 70
0
 10
0.0
 20
0.0
 30
0.0
  3
*Model_Space
  1

  0
ENDBLK
  5
19
330
17
100
AcDbEntity
  8
0
100
AcDbBlockEnd
  0
BLOCK
  5
1C
330
1B
100
AcDbEntity
  8
0
100
AcDbBlockBegin
  2
*Paper_Space
 70
0
 10
0.0
 20
0.0
 30
0.0
  3
*Paper_Space
  1

  0
ENDBLK
  5
1D
330
1B
100
AcDbEntity
  8
0
100
AcDbBlockEnd
  0
ENDSEC
  0
SECTION
  2
ENTITIES
  0
LWPOLYLINE
  5
2F
330
17
100
AcDbEntity
  8
0
100
AcDbPolyline
 90
721
 70
1
 10
64.7238745816462
 20
9.025817065894467
 10
64.72194482890514
 20
9.026237329473302
 10
64.71618251341945
 20
9.027304914614042
 10
64.70664152066418
 20
9.028633410125154
 10
64.69319830510392
 20
9.030402550233648
 10
64.67608648644067
 20
9.032349469283385
 10
64.65519599050785
 20
9.034557298703495
 10
64.63044368587632
 20
9.03691596432734
 10
64.6020227781418
 20
9.039452408892425
 10
64.56985013587523
 20
9.042056558232122
 10
64.53380221354115
 20
9.04490814657343
 10
64.49409915947288
 20
9.047840911058103
 10
64.4506443708725
 20
9.050841380317378
 10
64.4034243763713
 20
9.054006157149145
 10
64.35246611870677
 20
9.057142035957634
 10
64.2977426551414
 20
9.060442222338612
 10
64.23936405984182
 20
9.063823584862947
 10
64.17723373001014
 20
9.067272652161892
 10
64.11133819427765
 20
9.070886027033325
 10
64.0418009981797
 20
9.074483975250235
 10
63.96849859618091
 20
9.078246231039635
 10
63.89145793101878
 20
9.081979588805758
 10
63.81084526555157
 20
9.085904196881879
 10
63.7263842627544
 20
9.089883038363851
 10
63.6383647310209
 20
9.093956527357939
 10
63.54659346475533
 20
9.098097721126633
 10
63.45116706675554
 20
9.102320091038688
 10
63.35208553702155
 20
9.106623637094104
 10
63.249335404184606
 20
9.111104962090764
 10
63.142916668244716
 20
9.115764066028667
 10
63.03285627193936
 20
9.120407743312049
 10
62.91912727253104
 20
9.125229199536673
 10
62.80183974418642
 20
9.130145303273416
 10
62.680883612738825
 20
9.1352391859514
 10
62.55628582092579
 20
9.140317641974862
 10
62.42811602880768
 20
9.145587348308325
 10
62.296360765015734
 20
9.151144907749668
 10
62.16106044365623
 20
9.156700511905246
 10
62.02209151919377
 20
9.162433895002067
 10
61.879660668592855
 20
9.168275396979759
 10
61.733561214888994
 20
9.174294677898692
 10
61.583986363677944
 20
9.180518680496382
 10
61.43083951216182
 20
9.186933933404072
 10
61.27421726313848
 20
9.193553907990513
 10
61.11403648517884
 20
9.20026853008907
 10
60.95039378108076
 20
9.207091271068501
 10
60.78316560530885
 20
9.214201865155813
 10
60.61255863482762
 20
9.221530652290634
 10
60.43847626683922
 20
9.229064161104208
 10
60.26091850134362
 20
9.23680239159654
 10
60.07988533834082
 20
9.24474534376762
 10
59.89545990925997
 20
9.253003091784096
 10
59.70755908267191
 20
9.261465561479325
 10
59.516265990005785
 20
9.270242827019946
 10
59.321594102630364
 20
9.279238285608077
 10
59.123570363283136
 20
9.288258731647952
 10
58.922264432024484
 20
9.297510842104087
 10
58.71755276331902
 20
9.307174351203502
 10
58.509435357166716
 20
9.31724925894619
 10
58.29804923047175
 20
9.327459228307259
 10
58.08338091186536
 20
9.337900862084592
 10
57.86543040134754
 20
9.348574160278188
 10
57.64415728481204
 20
9.359768931281698
 10
57.41962891910263
 20
9.37100216110571
 10
57.191914964279654
 20
9.382480526714739
 10
56.961001948974385
 20
9.394300630906669
 10
56.726779799020186
 20
9.406545605110631
 10
56.48945519138157
 20
9.419145789266247
 10
56.24894499462941
 20
9.431991109206884
 10
56.0052492087637
 20
9.445081564932542
 10
55.75843749384484
 20
9.45862383340774
 10
55.50856373534781
 20
9.472231503440947
 10
55.25550438773723
 20
9.48608430925917
 10
54.99943918524014
 20
9.500305796397805
 10
54.74036812785651
 20
9.514895964856855
 10
54.478221555525984
 20
9.529648137671797
 10
54.21298599687979
 20
9.544658917640513
 10
53.9448546575137
 20
9.559955247500513
 10
53.673703991892324
 20
9.575716861478808
 10
53.39957441412192
 20
9.591653951181748
 10
53.122562527000376
 20
9.607779987978091
 10
52.842668330527715
 20
9.624094971867835
 10
52.559864881966384
 20
9.640792108446748
 10
52.2741521813164
 20
9.657871397714827
 10
51.98554369994654
 20
9.675236236874191
 10
51.694246114821304
 20
9.692816965864466
 10
51.40005274897616
 20
9.710683244746026
 10
51.10306020520902
 20
9.728848544887624
 10
50.80340550042401
 20
9.74703652926437
 10
50.5009785604545
 20
9.765330329305387
 10
50.1958355739921
 20
9.784033224773083
 10
49.8880731438347
 20
9.803158687036213
 10
49.57752500712405
 20
9.822486567761496
 10
49.264424783562184
 20
9.841754001292799
 10
48.94871858767408
 20
9.861347398821652
 10
48.63041989082846
 20
9.88117015755017
 10
48.30951522165661
 20
9.901318880276236
 10
47.9861281256939
 20
9.921613832772845
 10
47.66025860294035
 20
9.942055015039992
 10
47.331810050598065
 20
9.96262895570892
 10
47.00096220289404
 20
9.983459200315023
 10
46.66761845703042
 20
10.004532277489552
 10
46.331902358542585
 20
10.02566845300549
 10
45.99381390743053
 20
10.046867726862839
 10
45.653449706492154
 20
10.068143570430355
 10
45.310699681560806
 20
10.089579115137159
 10
44.96563349269686
 20
10.111381037947785
 10
44.61819495120871
 20
10.13324605909982
 10
44.26866039412122
 20
10.15531119549741
 10
43.916890501313695
 20
10.17716309321152
 10
43.56287180141732
 20
10.198898355040027
 10
43.206757085921645
 20
10.220833732114095
 10
42.84853288345789
 20
10.243065827231606
 10
42.48804640253655
 20
10.265277889261395
 10
42.12571099708668
 20
10.287330598082725
 10
41.761250330083406
 20
10.309086936791443
 10
41.39481719301617
 20
10.330863656518707
 10
41.02630151171839
 20
10.352743888693647
 10
40.65590996315457
 20
10.374657973255893
 10
40.283586358633094
 20
10.396302630443035
 10
39.90940035821431
 20
10.417884537219598
 10
39.53332501916073
 20
10.439596899181344
 10
39.15542769831613
 20
10.460956702338862
 10
38.77572186704926
 20
10.481867343894269
 10
38.394333374112136
 20
10.50283878057449
 10
38.011082485277704
 20
10.52374746684413
 10
37.62614893477298
 20
10.54471694823858
 10
37.23961355081054
 20
10.56516760797055
 10
36.851462862021584
 20
10.585196048837915
 10
36.461669925668616
 20
10.604995476436443
 10
36.07019432764537
 20
10.624855699159784
 10
35.677283159022636
 20
10.644417248553918
 10
35.282797099679655
 20
10.6632667706898
 10
34.88698554390384
 20
10.681734488067343
 10
34.48958792925563
 20
10.700276471938457
 10
34.09075474400791
 20
10.718519782480358
 10
33.69053987363572
 20
10.73607800850152
 10
33.28910958099735
 20
10.75317129833522
 10
32.88625718912821
 20
10.769869312041823
 10
32.48216243225536
 20
10.78629559515673
 10
32.076742178949644
 20
10.802340073513298
 10
31.670119974746473
 20
10.817823012884519
 10
31.262392422443746
 20
10.832757884639149
 10
30.85346291924353
 20
10.847131217408428
 10
30.443524670741645
 20
10.860969953929871
 10
30.032384471342287
 20
10.874247151465964
 10
29.62020858390372
 20
10.887182958349987
 10
29.207010479794718
 20
10.899680771784054
 10
28.792857515859044
 20
10.91125757777875
 10
28.377722749359176
 20
10.922106581929842
 10
27.961785914522146
 20
10.932351329772727
 10
27.54484033438342
 20
10.94206148136777
 10
27.127106157276266
 20
10.95107077385672
 10
26.708596854569453
 20
10.959282604441691
 10
26.289325897631745
 20
10.966600370324805
 10
25.869266343725606
 20
10.973217277101824
 10
25.448501324280194
 20
10.97924339893939
 10
25.027030839295477
 20
10.984678735837496
 10
24.60499190567563
 20
10.989246950771253
 10
24.18230139199151
 20
10.992837969574026
 10
23.75906937240976
 20
10.995368660816679
 10
23.335352035622
 20
10.99714230426162
 10
22.91101236472407
 20
10.998435236933744
 10
22.486270508049266
 20
10.999081195974794
 10
22.061137633749723
 20
10.99829388763295
 10
21.63553291361293
 20
10.996652928695514
 10
21.209636081865884
 20
10.994281864697875
 10
20.783377478448234
 20
10.990974018675514
 10
20.356770574728703
 20
10.986632787830548
 10
19.92996816219682
 20
10.981574923294133
 10
19.502887109423437
 20
10.975690350899635
 10
19.075664433312703
 20
10.968702733622155
 10
18.648203531066752
 20
10.960598600092943
 10
18.22068413691259
 20
10.951501495847394
 10
17.793092779481448
 20
10.941508023683381
 10
17.365469872879615
 20
10.930328375207266
 10
16.937801945738308
 20
10.918059153216925
 10
16.510172129486676
 20
10.904810431879
 10
16.082443407220566
 20
10.890858548218382
 10
15.654889812748255
 20
10.875650828185284
 10
15.227511346069774
 20
10.859187271779707
 10
14.800294535816356
 20
10.841564481799534
 10
14.373225910619233
 20
10.822879061042645
 10
13.946415544645067
 20
10.80304787807992
 10
13.519753363727192
 20
10.782154064340475
 10
13.093446044830152
 20
10.760127959763947
 10
12.66752053069145
 20
10.736776358754565
 10
12.24196334994233
 20
10.712195864110216
 10
11.816761031214032
 20
10.686483078628775
 10
11.391927045875324
 20
10.659541399512369
 10
10.967681542259463
 20
10.631204563902736
 10
10.543900974831079
 20
10.60165230602689
 10
10.120655003650525
 20
10.57109130284935
 10
9.697914382763702
 20
10.539025069011945
 10
9.275845375028867
 20
10.505673752847953
 10
8.854407566339749
 20
10.471327162751022
 10
8.433544768004744
 20
10.435682018958751
 10
8.013477128357108
 20
10.39857205861288
 10
7.5941777046593515
 20
10.360190487309177
 10
7.175576836851083
 20
10.320330628083122
 10
6.757840787790568
 20
10.279212629267986
 10
6.340899897417433
 20
10.236629813899253
 10
5.924933899958688
 20
10.192705727512315
 10
5.509709175712306
 20
10.147703235763315
 10
5.095445873011555
 20
10.101456075793985
 10
4.682197877331466
 20
10.053577836412806
 10
4.269951717303266
 20
10.004165120417653
 10
3.8587635816185943
 20
9.953521207570933
 10
3.448646941646189
 20
9.901549495074764
 10
3.039615268754815
 20
9.848153380131262
 10
2.6317651657423573
 20
9.79334633410918
 10
2.2249730870734123
 20
9.737308091235533
 10
1.8193086928083577
 20
9.680245328474838
 10
1.4149224712201065
 20
9.621785106004323
 10
1.011841365046156
 20
9.561734218228215
 10
0.6100384315489955
 20
9.500285870742287
 10
0.20959680215776427
 20
9.437550137713172
 10
-0.1895801259254389
 20
9.373513547772118
 10
-0.5874092212714609
 20
9.30828617508576
 10
-0.9838073524511978
 20
9.24197809382074
 10
-1.3788172367874956
 20
9.174189421416767
 10
-1.7723422714824737
 20
9.104933629242602
 10
-2.1643532105820347
 20
9.034707202656408
 10
-2.554919714146545
 20
8.963303464693668
 10
-2.9438351052114826
 20
8.890652755294006
 10
-3.3312925893726177
 20
8.816728131719918
 10
-3.7170989610341727
 20
8.74155653670891
 10
-4.101184560135792
 20
8.6653446472255
 10
-4.483756063641984
 20
8.588162123330065
 10
-4.864649511911092
 20
8.509539422401945
 10
-5.243752527559887
 20
8.430083103965947
 10
-5.621188656123749
 20
8.349972902249084
 10
-5.996973672188045
 20
8.2686157290953
 10
-6.370817767359123
 20
8.18605199861086
 10
-6.742857958541126
 20
8.102558047820661
 10
-7.113107717102811
 20
8.018230479522586
 10
-7.481540100306667
 20
7.932876088120866
 10
-7.847975373925682
 20
7.846618419150894
 10
-8.212606743555627
 20
7.759430529875165
 10
-8.575281417707002
 20
7.671629171424833
 10
-8.93597245364229
 20
7.583021138204132
 10
-9.294666379992739
 20
7.493509827415183
 10
-9.651376668127103
 20
7.403191841855867
 10
-10.00603365798501
 20
7.312273858490703
 10
-10.358733952364345
 20
7.220742405950938
 10
-10.709257402931833
 20
7.128431221378316
 10
-11.057604009687466
 20
7.035340304772838
 10
-11.403856904060383
 20
6.941359581967863
 10
-11.747932954621445
 20
6.846599127130032
 10
-12.089872575476923
 20
6.751348748652993
 10
-12.429592635197686
 20
6.655718520703383
 10
-12.767039248308723
 20
6.559322032089671
 10
-13.102309017607906
 20
6.4621458114431025
 10
-13.435098663332834
 20
6.364133670072059
 10
-13.765641805185542
 20
6.265548473632678
 10
-14.093951914534781
 20
6.1664868249228455
 10
-14.419835785784786
 20
6.066975666680071
 10
-14.743279947566805
 20
5.966918396106468
 10
-15.064340588572446
 20
5.866011733439637
 10
-15.382974991478857
 20
5.764655561239862
 10
-15.6992235703923
 20
5.663139687900794
 10
-16.012922365671116
 20
5.560994570801773
 10
-16.324167980113188
 20
5.4582067385740425
 10
-16.63279415086026
 20
5.354996339550877
 10
-16.938897480710214
 20
5.251349902363526
 10
-17.242491441031806
 20
5.147364029809871
 10
-17.54343901492089
 20
5.042762384865016
 10
-17.841767145114975
 20
4.937738173124727
 10
-18.13747583161405
 20
4.832291394589007
 10
-18.430618959893156
 20
4.726808460449386
 10
-18.720989852987763
 20
4.621219710645492
 10
-19.008741302387364
 20
4.515208394046164
 10
-19.293749762556573
 20
4.408594776424394
 10
-19.575972516172527
 20
4.301778740340467
 10
-19.85553310877062
 20
4.194940020021393
 10
-20.132281052077946
 20
4.087705675644399
 10
-20.406146686034134
 20
3.9802823841740023
 10
-20.6773366876037
 20
3.872739805670577
 10
-20.945657851190877
 20
3.7651048828716345
 10
-21.21106976268942
 20
3.657087807383522
 10
-21.473612836205564
 20
3.5489783875998944
 10
-21.733300543108086
 20
3.4408732263186286
 10
-21.990119412028225
 20
3.332675720741846
 10
-22.243972840168095
 20
3.2243993422383004
 10
-22.49484735615895
 20
3.115947488010107
 10
-22.742853034167414
 20
3.0074032894863967
 10
-22.987796668597728
 20
2.8987936894046773
 10
-23.229705202187404
 20
2.790311893360715
 10
-23.468744897794693
 20
2.681737753021237
 10
-23.704625947025956
 20
2.5731116824925033
 10
-23.93743148131031
 20
2.46432360760788
 10
-24.167215386122777
 20
2.355759939558897
 10
-24.39397766146336
 20
2.2474206783455544
 10
-24.61759476179667
 20
2.1391260897408415
 10
-24.83805321575394
 20
2.030779570946877
 10
-25.05543615476431
 20
1.9222710477970197
 10
-25.269617730075783
 20
1.814110477018198
 10
-25.480681073117484
 20
1.7061877844437718
 10
-25.688599241151913
 20
1.5983097644779742
 10
-25.893275631381176
 20
1.4904898884895632
 10
-26.094737186542787
 20
1.382921362074303
 10
-26.292956963899243
 20
1.2754109796364272
 10
-26.487948434819288
 20
1.1680553439738204
 10
-26.67972507067169
 20
1.0609510578843635
 10
-26.868163325921042
 20
0.9539183871410463
 10
-27.053303614673613
 20
0.8472471401375207
 10
-27.23518865425227
 20
0.7405374343134945
 10
-27.413775727334144
 20
0.6341891522292584
 10
-27.58905136255049
 20
0.5281056910869287
 10
-27.761002088532546
 20
0.42219044808862183
 10
-27.929531302482427
 20
0.31645689460309356
 10
-28.09474907856678
 20
0.2109881620594707
 10
-28.256599228093975
 20
0.10608753022015914
 10
-28.415054808326513
 20
0.0015617934893915595
 10
-28.570115819264387
 20
-0.10258904813283286
 10
-28.721892335074234
 20
-0.2062818632173837
 10
-28.870177678791542
 20
-0.30958631182463603
 10
-29.015095395951693
 20
-0.41232265972757765
 10
-29.15657582649432
 20
-0.5142842299616881
 10
-29.29471557321731
 20
-0.615484493895722
 10
-29.42939109058526
 20
-0.7161031857566897
 10
-29.560712452764815
 20
-0.8160571741154644
 10
-29.688486454160206
 20
-0.9153195162345349
 10
-29.81293324310471
 20
-1.0137239492556462
 10
-29.933873085371317
 20
-1.1111469276434052
 10
-30.051375641020403
 20
-1.2077951283623334
 10
-30.16544091005196
 20
-1.303668551412429
 10
-30.276068892465993
 20
-1.3987671967936928
 10
-30.38318992820213
 20
-1.4928843875416042
 10
-30.48680401726036
 20
-1.5860201236561633
 10
-30.586967348332326
 20
-1.6784776848997736
 10
-30.68362373272638
 20
-1.7699537915100307
 10
-30.776719284967527
 20
-1.8608348546784679
 10
-30.866307890530774
 20
-1.9507344632135524
 10
-30.952335663941096
 20
-2.0400390283068157
 10
-31.034829547936017
 20
-2.128555344362493
 10
-31.11378954251553
 20
-2.2162834113805836
 10
-31.189105573512997
 20
-2.3033063607902156
 10
-31.26099778926169
 20
-2.3894579297331324
 10
-31.329135967261703
 20
-2.4749875124967193
 10
-31.393836858644185
 20
-2.559742317591475
 10
-31.45489378644463
 20
-2.643792005077772
 10
-31.51234716476929
 20
-2.7268467665619607
 10
-31.566266653678543
 20
-2.8091132790085616
 10
-31.616569121743257
 20
-2.8904814682509388
 10
-31.663308454438468
 20
-2.97056492309756
 10
-31.70654084045576
 20
-3.049666923310827
 10
-31.746196619734796
 20
-3.127580791926221
 10
-31.78230273501307
 20
-3.204113323347974
 10
-31.814913071765602
 20
-3.278878106384556
 10
-31.84402762999239
 20
-3.3518751410359657
 10
-31.86976995522884
 20
-3.422924693075192
 10
-31.89201419872295
 20
-3.49151680577531
 10
-31.910910848747623
 20
-3.557278539313541
 10
-31.92669122178829
 20
-3.6192573370798113
 10
-31.939256411830478
 20
-3.6767500367514283
 10
-31.948918563572153
 20
-3.728224464931019
 10
-31.955989821711274
 20
-3.77214844822121
 10
-31.9606002935022
 20
-3.8061765767352957
 10
-31.963183365961683
 20
-3.827907251894958
 10
-31.878923301407834
 20
-4.445551689171903
 10
-31.87640080844154
 20
-4.450222475857593
 10
-31.86884680091145
 20
-4.464138233116777
 10
-31.856315164292536
 20
-4.4869125497579265
 10
-31.838480282518123
 20
-4.520174201976296
 10
-31.815252462440096
 20
-4.565978791264941
 10
-31.787235612435843
 20
-4.619289500765187
 10
-31.75475074213889
 20
-4.677098172373904
 10
-31.71816618493882
 20
-4.738175912456121
 10
-31.677668236781592
 20
-4.800480590887542
 10
-31.633281537188132
 20
-4.863129311118462
 10
-31.585266648597983
 20
-4.925666001896978
 10
-31.533580853688278
 20
-4.987690780662801
 10
-31.478278037934036
 20
-5.0488172362244
 10
-31.419385144072763
 20
-5.108852162986007
 10
-31.356902172104483
 20
-5.167795560947623
 10
-31.290939196195794
 20
-5.225564298680121
 10
-31.221426556286353
 20
-5.281951699218979
 10
-31.148350781007398
 20
-5.337054365362081
 10
-31.071821944525563
 20
-5.390789165680296
 10
-30.991716501305454
 20
-5.443335834400638
 10
-30.908047922715834
 20
-5.494597768725223
 10
-30.821036357089977
 20
-5.544408705795794
 10
-30.730351581927962
 20
-5.593018039899737
 10
-30.6362968769922
 20
-5.640369582345433
 10
-30.538665565318166
 20
-5.686532993193256
 10
-30.437567721072497
 20
-5.731425141014077
 10
-30.33301681562396
 20
-5.774949423010012
 10
-30.224972434866274
 20
-5.8173956475747115
 10
-30.113461521536955
 20
-5.85857060911241
 10
-29.998430190160985
 20
-5.898860718814639
 10
-29.879918854844625
 20
-5.937976168287747
 10
-29.75799717564825
 20
-5.9761236344962585
 10
-29.632568549773982
 20
-6.013289646071417
 10
-29.503606034484303
 20
-6.0496674086089905
 10
-29.371219703945858
 20
-6.085173790679848
 10
-29.23539608678988
 20
-6.119905395081874
 10
-29.096135183016386
 20
-6.153862221815069
 10
-28.953299975721215
 20
-6.187320607904327
 10
-28.80709714186889
 20
-6.220210893289273
 10
-28.65734694723241
 20
-6.252409532434516
 10
-28.504242597407526
 20
-6.283943468077567
 10
-28.34766054685885
 20
-6.314992434445433
 10
-28.18769739838427
 20
-6.345569902906873
 10
-28.024270020554656
 20
-6.375565799295248
 10
-27.8575019589054
 20
-6.404800389383546
 10
-27.68728313926987
 20
-6.433356804600896
 10
-27.51379329587506
 20
-6.461358590482689
 10
-27.336935825923103
 20
-6.488792275660174
 10
-27.156710729413998
 20
-6.515657860133348
 10
-26.973158420454002
 20
-6.541665535508561
 10
-26.786375501841004
 20
-6.566828773154571
 10
-26.596265370777118
 20
-6.591134101702622
 10
-26.40289768732272
 20
-6.614788198117233
 10
-26.206272451477812
 20
-6.6377910623984056
 10
-26.006443548717407
 20
-6.659756283354608
 10
-25.803480639101878
 20
-6.680890537950362
 10
-25.597300591202103
 20
-6.701083752019028
 10
-25.387889933649326
 20
-6.720432528358489
 10
-25.17534526924143
 20
-6.738950338337501
 10
-24.95968006934716
 20
-6.75654057915818
 10
-24.740880862597777
 20
-6.773299853618411
 10
-24.518947648993276
 20
-6.789228161718191
 10
-24.293893899902404
 20
-6.8042289006596395
 10
-24.065802746754294
 20
-6.818412144609393
 10
-23.83467418954895
 20
-6.831777893567454
 10
-23.60042509685724
 20
-6.844216073367179
 10
-23.363221731537422
 20
-6.855946832341851
 10
-23.12298096216036
 20
-6.866860096324826
 10
-22.879689317357307
 20
-6.877052468113992
 10
-22.633456871294904
 20
-6.886440816280219
 10
-22.384324038079413
 20
-6.894735332429856
 10
-22.13225040360456
 20
-6.902225824956553
 10
-21.877112422334967
 20
-6.909092028087324
 10
-21.619213374033023
 20
-6.915277753130549
 10
-21.358386995840487
 20
-6.92056285175295
 10
-21.094646759126103
 20
-6.924850721156647
 10
-20.82815892674813
 20
-6.928361509674913
 10
-20.558813424539938
 20
-6.9311783487368785
 10
-20.28663719523902
 20
-6.933108032746777
 10
-20.011726841643274
 20
-6.934164033073363
 10
-19.73409583512145
 20
-6.934249746918754
 10
-19.453703761567276
 20
-6.933654982676599
 10
-19.170577563718282
 20
-6.932186534751133
 10
-18.884690298836933
 20
-6.93003760873812
 10
-18.59627558662528
 20
-6.926945338981422
 10
-18.305126750118788
 20
-6.922979385541411
 10
-18.011340392115343
 20
-6.918153219786843
 10
-17.714999644044077
 20
-6.912576915884356
 10
-17.41603484584462
 20
-6.9060437968694295
 10
-17.114515657577343
 20
-6.898760539706584
 10
-16.810552153408874
 20
-6.890644012966691
 10
-16.503978070480972
 20
-6.881474068316475
 10
-16.194986614389396
 20
-6.871277648493446
 10
-15.883537371027876
 20
-6.860344561891252
 10
-15.569630340396422
 20
-6.848674808509895
 10
-15.253265522495026
 20
-6.8362683883493744
 10
-14.934579934227838
 20
-6.8228489643847965
 10
-14.61360051833237
 20
-6.808223331020393
 10
-14.290176786535719
 20
-6.792764428078943
 10
-13.96450194443365
 20
-6.776499198297956
 10
-13.636506331965787
 20
-6.7592209647129105
 10
-13.30631349466753
 20
-6.740749993096797
 10
-12.97388301843261
 20
-6.721376091843263
 10
-12.639284563321397
 20
-6.701305937916829
 10
-12.302448469273525
 20
-6.680332854352978
 10
-11.963415150395253
 20
-6.6581670327580555
 10
-11.622350869544839
 20
-6.635028621465341
 10
-11.27924215535353
 20
-6.611014223272717
 10
-10.933895802225557
 20
-6.586096895442672
 10
-10.58661508992332
 20
-6.560220449283589
 10
-10.237330358386462
 20
-6.533178207830948
 10
-9.886041607614967
 20
-6.504970171084748
 10
-9.532831969037968
 20
-6.475706413211628
 10
-9.17763408581169
 20
-6.445869948201001
 10
-8.820584974840283
 20
-6.415184439027976
 10
-8.46164191880088
 20
-6.383250003132262
 10
-8.100791446324731
 20
-6.350163243311745
 10
-7.738226763007598
 20
-6.315951102303934
 10
-7.37379738057658
 20
-6.2809865199316075
 10
-7.007626844567069
 20
-6.245089761967752
 10
-6.639715154979066
 20
-6.20826082841237
 10
-6.270089254550077
 20
-6.170306513669694
 10
-5.898735671911354
 20
-6.1313234205376075
 10
-5.525820669921151
 20
-6.091531697349385
 10
-5.151177985721211
 20
-6.050711195771754
 10
-4.775027767644806
 20
-6.0086956529464555
 10
-4.397356544323184
 20
-5.965581671671372
 10
-4.018150844387592
 20
-5.9214658547443895
 10
-3.6373275364089004
 20
-5.876238127998867
 10
-3.2552033715182755
 20
-5.829745699945306
 10
-2.8716952182865727
 20
-5.781878496417068
 10
-2.4866256457033935
 20
-5.733202662832696
 10
-2.100201330733253
 20
-5.6836485391318154
 10
-1.712599704386562
 20
-5.6326499798958825
 10
-1.323587146961301
 20
-5.58046985078104
 10
-0.9332467898865818
 20
-5.527218225953923
 10
-0.5417987814956918
 20
-5.472728842556278
 10
-0.149063387561616
 20
-5.416878155052709
 10
0.244766186319879
 20
-5.359693106180728
 10
0.63984042842169
 20
-5.301546635763113
 10
1.0360357932084332
 20
-5.242259009572849
 10
1.433188321038454
 20
-5.18136068498928
 10
1.8314350288158832
 20
-5.119127999037298
 10
2.2307331992178816
 20
-5.05596083427719
 10
2.630945815340277
 20
-4.991582853684064
 10
3.0321560086122146
 20
-4.92588398309128
 10
3.4342941189733103
 20
-4.85907089946336
 10
3.837306260948545
 20
-4.790757191608773
 10
4.24119243453793
 20
-4.720942859527514
 10
4.645909922418595
 20
-4.6500277857798755
 10
5.051375593161406
 20
-4.5781220445324955
 10
5.457672578195502
 20
-4.505115561618732
 10
5.864663860616732
 20
-4.430732000013695
 10
6.272376383162597
 20
-4.355164565313146
 10
6.680810145833112
 20
-4.278413257517089
 10
7.0898685458303765
 20
-4.20049154799428
 10
7.499511169048139
 20
-4.121109628351066
 10
7.909764958223903
 20
-4.040460704183214
 10
8.320490593236926
 20
-3.9589581294197695
 10
8.731867808314218
 20
-3.876478358525336
 10
9.14366298375375
 20
-3.792758525843774
 10
9.555986193722157
 20
-3.7078817628042144
 10
9.968644232623666
 20
-3.6218750121441663
 10
10.38174717462493
 20
-3.534821405292756
 10
10.795281548357181
 20
-3.4466243394521032
 10
11.209067619593421
 20
-3.357407360157598
 10
11.623228933869033
 20
-3.267350201636254
 10
12.037752019815267
 20
-3.176356261090187
 10
12.452430200467596
 20
-3.0843558784590233
 10
12.867373549992656
 20
-2.991432185171894
 10
13.282512408330094
 20
-2.8977918581933153
 10
13.697889492802744
 20
-2.8030350149630054
 10
14.113338540552375
 20
-2.7073818038142363
 10
14.52888649431648
 20
-2.6110254303427767
 10
14.944519882726311
 20
-2.513869291750742
 10
15.36021176304436
 20
-2.4157201824423664
 10
15.775989078008143
 20
-2.316771308013416
 10
16.191685564759375
 20
-2.217242816797168
 10
16.607370883358467
 20
-2.1169280318291
 10
17.022988845113776
 20
-2.016130232871617
 10
17.43849903591904
 20
-1.9145596115310695
 10
17.853887984405524
 20
-1.8121195650095738
 10
18.269182633310713
 20
-1.709003298902898
 10
18.684230191145108
 20
-1.6055275643422
 10
19.099127260706616
 20
-1.5016788899587235
 10
19.513736825091055
 20
-1.3971809387275778
 10
19.92807235566721
 20
-1.2921303134466429
 10
20.34213385243506
 20
-1.1865270141159197
 10
20.755934786763376
 20
-1.080467643533291
 10
21.169268481687634
 20
-0.9738825416383835
 10
21.582245011374464
 20
-0.8668548398603272
 10
21.99478124439473
 20
-0.7594946123657593
 10
22.407000726283854
 20
-0.6519815933816892
 10
22.818656365971012
 20
-0.5439563144540982
 10
23.229761634824992
 20
-0.43551537838086557
 10
23.640480492487438
 20
-0.3271283277826537
 10
24.050538905150063
 20
-0.21824248860967274
 10
24.45992340144409
 20
-0.10876125806404241
 10
24.868811412379962
 20
0.0007492184356970614
 10
25.277036675099396
 20
0.11006879255626699
 10
25.684614964187755
 20
0.21979055245372164
 10
26.09146314821592
 20
0.329804423961423
 10
26.497484624385994
 20
0.440096935710617
 10
26.902802938233386
 20
0.5504883534742917
 10
27.307334958328944
 20
0.6608686030858066
 10
27.71109415604145
 20
0.7711410817472839
 10
28.11395698583549
 20
0.8814855236857299
 10
28.51589650497357
 20
0.992095134496914
 10
28.916953127561946
 20
1.1026801057871847
 10
29.31712685360062
 20
1.2132404375565424
 10
29.71623794886257
 20
1.3236525842695948
 10
30.114479618943587
 20
1.4339434886638525
 10
30.511618244141616
 20
1.544376016395452
 10
30.907667295825416
 20
1.6548535646665121
 10
31.302694130838777
 20
1.7648931194876183
 10
31.696685277812943
 20
1.8745912836566527
 10
32.089420588414605
 20
1.9841143200318698
 10
32.481106739608336
 20
2.0933925685529
 10
32.87153705442957
 20
2.2024956892801124
 10
33.2608081356762
 20
2.3114371535822644
 10
33.64885032328788
 20
2.420010284494836
 10
34.03556701446669
 20
2.5282016106490692
 10
34.42108175474806
 20
2.635831397817955
 10
34.80516092442991
 20
2.743162511657631
 10
35.18799772910806
 20
2.8502218949056077
 10
35.56938549181797
 20
2.9570792076222605
 10
35.949405040772156
 20
3.0631548330202865
 10
36.32795977317273
 20
3.168435299730935
 10
36.70516206640295
 20
3.2735271672790116
 10
37.080708640700415
 20
3.3784866243561362
 10
37.4549004726109
 20
3.4825677913167525
 10
37.82753088516992
 20
3.5858403282212343
 10
38.198545992902424
 20
3.688690646261114
 10
38.56794579580843
 20
3.79111874543639
 10
38.93574376525671
 20
3.8930280229491845
 10
39.302007258090995
 20
3.9939354648100753
 10
39.66651612597803
 20
4.094007333877322
 10
40.029423160407326
 20
4.193560381282084
 10
40.39053515578311
 20
4.29256766428685
 10
40.74987905484291
 20
4.390835977295856
 10
41.107481800324194
 20
4.4881721147133335
 10
41.46331644948948
 20
4.584769282135049
 10
41.81728639954086
 20
4.680614008192246
 10
42.16951519601377
 20
4.775526558657918
 10
42.519809633312434
 20
4.869479990794554
 10
42.86822590012844
 20
4.962777584364551
 10
43.214570790866034
 20
5.055392396630408
 10
43.55916105665639
 20
5.147171636102621
 10
43.90163722904548
 20
5.237868211710403
 10
44.24219251362906
 20
5.327509066191262
 10
44.58081343903839
 20
5.416190802343086
 10
44.91727985694016
 20
5.504079683024124
 10
45.25160523870318
 20
5.591079105436501
 10
45.583996261291915
 20
5.677119409519838
 10
45.91417658768151
 20
5.76206357836999
 10
46.24226976340735
 20
5.8457318777599445
 10
46.56813877156527
 20
5.928400644714596
 10
46.89186674358444
 20
6.010179953400584
 10
47.21337054803567
 20
6.090959729651267
 10
47.53265018491899
 20
6.170739973466648
 10
47.84964946554281
 20
6.249217405084323
 10
48.16442457859871
 20
6.3266953042666945
 10
48.47679578985968
 20
6.403050125478368
 10
48.786832759386115
 20
6.4784885456838675
 10
49.09457590128427
 20
6.552720756489543
 10
49.39994208412502
 20
6.625636683728756
 10
49.70289089380208
 20
6.697526135795155
 10
50.00342233031548
 20
6.768389112688744
 10
50.3015363936652
 20
6.8382256144095175
 10
50.59706682099299
 20
6.906815492624202
 10
50.89023376063214
 20
6.973992484474542
 10
51.18087325294097
 20
7.040226132581197
 10
51.46890216649036
 20
7.105406362777527
 10
51.75441710407818
 20
7.1695466464322894
 10
52.03734840564409
 20
7.232440306580965
 10
52.31758599702142
 20
7.294170474652676
 10
52.595309612437184
 20
7.3548606961828185
 10
52.87036646040191
 20
7.414194220040236
 10
53.14272959817806
 20
7.47236425182069
 10
53.41241249713439
 20
7.529274188726301
 10
53.67937474316465
 20
7.5852138391507165
 10
53.943643279006345
 20
7.639989997498171
 10
54.20512150186159
 20
7.69358919239991
 10
54.46382288309913
 20
7.745914821058046
 10
54.719830554148096
 20
7.797076957639223
 10
54.97293783804398
 20
7.847145262203811
 10
55.22314473478677
 20
7.89611973475181
 10
55.47056131854312
 20
7.943917243854095
 10
55.71520106068178
 20
7.99044118671278
 10
55.956830341500705
 20
8.035954428984004
 10
56.19554576379777
 20
8.08047044203652
 10
56.43138774167927
 20
8.123699417476683
 10
56.66424620097855
 20
8.165724486733623
 10
56.894094198958115
 20
8.206738855403099
 10
57.121055281153325
 20
8.246562789258101
 10
57.34494971333721
 20
8.285072742763244
 10
57.56584715557012
 20
8.32247539288304
 10
57.78373413648328
 20
8.358867342415376
 10
57.99851405327884
 20
8.394235119991498
 10
58.210213848694316
 20
8.428385520015638
 10
58.41882005136092
 20
8.46141514528568
 10
58.624305718541166
 20
8.493517201397387
 10
58.82668432160381
 20
8.524595085552882
 10
59.02588620048844
 20
8.554442120787636
 10
59.22191135519511
 20
8.583058307101657
 10
59.414802503046666
 20
8.610843527055225
 10
59.60447651261396
 20
8.637687706481708
 10
59.790933383897006
 20
8.663590845381105
 10
59.97418658826458
 20
8.68845634095553
 10
60.15413952291875
 20
8.712270721836225
 10
60.330888790657426
 20
8.735047459391955
 10
60.50431084594522
 20
8.756966287849725
 10
60.67443263151965
 20
8.777834001613767
 10
60.84122720464319
 20
8.79784380627985
 10
61.00481811085123
 20
8.816815967620963
 10
61.1649852018105
 20
8.834916748495361
 10
61.321811608950135
 20
8.852256223069682
 10
61.475214200841
 20
8.868724317177293
 10
61.62530305164973
 20
8.884237899389056
 10
61.77195461584093
 20
8.898976703931988
 10
61.91529243895001
 20
8.91276099657908
 10
62.05508290127493
 20
8.925853642986468
 10
62.19153267978019
 20
8.938184983093777
 10
62.32444856887005
 20
8.949728074163499
 10
62.453927171342386
 20
8.960496387564394
 10
62.5799684871972
 20
8.970489923296453
 10
62.70255904506573
 20
8.979805284157566
 10
62.82161571351887
 20
8.988332395981093
 10
62.93711154981906
 20
8.996264464362795
 10
63.049156628133
 20
9.003518357873554
 10
63.157640874293996
 20
9.010177207942489
 10
63.26257775967084
 20
9.016144411771721
 10
63.36395381289476
 20
9.021516572159134
 10
63.46178250533453
 20
9.026197086306842
 10
63.556050365621395
 20
9.03028255701273
 10
63.64673045101779
 20
9.033966189872563
 10
63.73375310146343
 20
9.037041307921822
 10
63.81729805118525
 20
9.039631456695895
 10
63.89706202042089
 20
9.041792824886407
 10
63.973348288932726
 20
9.043469223801736
 10
64.045963651125
 20
9.044633710704371
 10
64.11488116426023
 20
9.045479491190083
 10
64.18021090250501
 20
9.045923433829737
 10
64.24185626306152
 20
9.045952067254582
 10
64.29979030319218
 20
9.045758597060388
 10
64.35413656843241
 20
9.045163289020135
 10
64.40477151324681
 20
9.04434587736084
 10
64.45170860900414
 20
9.043209759284617
 10
64.49492091296693
 20
9.041948140387236
 10
64.53442189650389
 20
9.040464417870808
 10
64.57029469104414
 20
9.03886866590198
 10
64.60234609099192
 20
9.037133941743233
 10
64.6306592277764
 20
9.03537031956121
 10
64.6553307041954
 20
9.033591270724664
 10
64.6761673146532
 20
9.031769852496087
 10
64.69323871921019
 20
9.030112741839996
 10
64.70665499203292
 20
9.02853680732727
 10
64.71619598478821
 20
9.02720831181616
 10
64.72194482890514
 20
9.026237329473302
 10
64.7238745816462
 20
9.025817065894467
  0
ENDSEC
  0
SECTION
  2
OBJECTS
  0
DICTIONARY
  5
A
330
0
100
AcDbDictionary
280
0
281
1
  3
ACAD_COLOR
350
B
  3
ACAD_GROUP
350
C
  3
ACAD_LAYOUT
350
D
  3
ACAD_MATERIAL
350
E
  3
ACAD_MLEADERSTYLE
350
F
  3
ACAD_MLINESTYLE
350
10
  3
ACAD_PLOTSETTINGS
350
11
  3
ACAD_PLOTSTYLENAME
350
12
  3
ACAD_SCALELIST
350
14
  3
ACAD_TABLESTYLE
350
15
  3
ACAD_VISUALSTYLE
350
16
  3
EZDXF_META
350
2D
  0
DICTIONARY
  5
B
330
A
100
AcDbDictionary
280
0
281
1
  0
DICTIONARY
  5
C
330
A
100
AcDbDictionary
280
0
281
1
  0
DICTIONARY
  5
D
330
A
100
AcDbDictionary
280
0
281
1
  3
Model
350
1A
  3
Layout1
350
1E
  0
DICTIONARY
  5
E
330
A
100
AcDbDictionary
280
0
281
1
  3
ByBlock
350
1F
  3
ByLayer
350
20
  3
Global
350
21
  0
DICTIONARY
  5
F
330
A
100
AcDbDictionary
280
0
281
1
  3
Standard
350
2C
  0
DICTIONARY
  5
10
330
A
100
AcDbDictionary
280
0
281
1
  3
Standard
350
22
  0
DICTIONARY
  5
11
330
A
100
AcDbDictionary
280
0
281
1
  0
ACDBDICTIONARYWDFLT
  5
12
330
A
100
AcDbDictionary
280
0
281
1
  3
Normal
350
13
100
AcDbDictionaryWithDefault
340
13
  0
ACDBPLACEHOLDER
  5
13
330
12
  0
DICTIONARY
  5
14
330
A
100
AcDbDictionary
280
0
281
1
  0
DICTIONARY
  5
15
330
A
100
AcDbDictionary
280
0
281
1
  0
DICTIONARY
  5
16
330
A
100
AcDbDictionary
280
0
281
1
  0
LAYOUT
  5
1A
330
D
100
AcDbPlotSettings
  1

  4
A3
  6

 40
7.5
 41
20.0
 42
7.5
 43
20.0
 44
420.0
 45
297.0
 46
0.0
 47
0.0
 48
0.0
 49
0.0
140
0.0
141
0.0
142
1.0
143
1.0
 70
1024
 72
1
 73
0
 74
5
  7

 75
16
 76
0
 77
2
 78
300
147
1.0
148
0.0
149
0.0
100
AcDbLayout
  1
Model
 70
1
 71
0
 10
0.0
 20
0.0
 11
420.0
 21
297.0
 12
0.0
 22
0.0
 32
0.0
 14
1e+20
 24
1e+20
 34
1e+20
 15
-1e+20
 25
-1e+20
 35
-1e+20
146
0.0
 13
0.0
 23
0.0
 33
0.0
 16
1.0
 26
0.0
 36
0.0
 17
0.0
 27
1.0
 37
0.0
 76
1
330
17
  0
LAYOUT
  5
1E
330
D
100
AcDbPlotSettings
  1

  4
A3
  6

 40
7.5
 41
20.0
 42
7.5
 43
20.0
 44
420.0
 45
297.0
 46
0.0
 47
0.0
 48
0.0
 49
0.0
140
0.0
141
0.0
142
1.0
143
1.0
 70
0
 72
1
 73
0
 74
5
  7

 75
16
 76
0
 77
2
 78
300
147
1.0
148
0.0
149
0.0
100
AcDbLayout
  1
Layout1
 70
1
 71
1
 10
0.0
 20
0.0
 11
420.0
 21
297.0
 12
0.0
 22
0.0
 32
0.0
 14
1e+20
 24
1e+20
 34
1e+20
 15
-1e+20
 25
-1e+20
 35
-1e+20
146
0.0
 13
0.0
 23
0.0
 33
0.0
 16
1.0
 26
0.0
 36
0.0
 17
0.0
 27
1.0
 37
0.0
 76
1
330
1B
  0
MATERIAL
  5
1F
102
{ACAD_REACTORS
330
E
102
}
330
E
100
AcDbMaterial
  1
ByBlock
  2

 70
0
 40
1.0
 71
1
 41
1.0
 91
-1023410177
 42
1.0
 72
1
  3

 73
1
 74
1
 75
1
 44
0.5
 73
0
 45
1.0
 46
1.0
 77
1
  4

 78
1
 79
1
170
1
 48
1.0
171
1
  6

172
1
173
1
174
1
140
1.0
141
1.0
175
1
  7

176
1
177
1
178
1
143
1.0
179
1
  8

270
1
271
1
272
1
145
1.0
146
1.0
273
1
  9

274
1
275
1
276
1
 42
1.0
 72
1
  3

 73
1
 74
1
 75
1
 94
63
  0
MATERIAL
  5
20
102
{ACAD_REACTORS
330
E
102
}
330
E
100
AcDbMaterial
  1
ByLayer
  2

 70
0
 40
1.0
 71
1
 41
1.0
 91
-1023410177
 42
1.0
 72
1
  3

 73
1
 74
1
 75
1
 44
0.5
 73
0
 45
1.0
 46
1.0
 77
1
  4

 78
1
 79
1
170
1
 48
1.0
171
1
  6

172
1
173
1
174
1
140
1.0
141
1.0
175
1
  7

176
1
177
1
178
1
143
1.0
179
1
  8

270
1
271
1
272
1
145
1.0
146
1.0
273
1
  9

274
1
275
1
276
1
 42
1.0
 72
1
  3

 73
1
 74
1
 75
1
 94
63
  0
MATERIAL
  5
21
102
{ACAD_REACTORS
330
E
102
}
330
E
100
AcDbMaterial
  1
Global
  2

 70
0
 40
1.0
 71
1
 41
1.0
 91
-1023410177
 42
1.0
 72
1
  3

 73
1
 74
1
 75
1
 44
0.5
 73
0
 45
1.0
 46
1.0
 77
1
  4

 78
1
 79
1
170
1
 48
1.0
171
1
  6

172
1
173
1
174
1
140
1.0
141
1.0
175
1
  7

176
1
177
1
178
1
143
1.0
179
1
  8

270
1
271
1
272
1
145
1.0
146
1.0
273
1
  9

274
1
275
1
276
1
 42
1.0
 72
1
  3

 73
1
 74
1
 75
1
 94
63
  0
MLINESTYLE
  5
22
102
{ACAD_REACTORS
330
10
102
}
330
10
100
AcDbMlineStyle
  2
Standard
 70
0
  3

 62
256
 51
90.0
 52
90.0
 71
2
 49
0.5
 62
256
  6
BYLAYER
 49
-0.5
 62
256
  6
BYLAYER
  0
MLEADERSTYLE
  5
2C
102
{ACAD_REACTORS
330
F
102
}
330
F
100
AcDbMLeaderStyle
179
2
170
2
171
1
172
0
 90
2
 40
0.0
 41
0.0
173
1
 91
-1056964608
 92
-2
290
1
 42
2.0
291
1
 43
8.0
  3
Standard
 44
4.0
300

342
29
174
1
175
1
176
0
178
1
 93
-1056964608
 45
4.0
292
0
297
0
 46
4.0
 94
-1056964608
 47
1.0
 49
1.0
140
1.0
294
1
141
0.0
177
0
142
1.0
295
0
296
0
143
3.75
271
0
272
9
273
9
  0
DICTIONARY
  5
2D
330
A
100
AcDbDictionary
280
1
281
1
  3
CREATED_BY_EZDXF
350
2E
  3
WRITTEN_BY_EZDXF
350
32
  0
DICTIONARYVAR
  5
2E
330
2D
100
DictionaryVariables
280
0
  1
1.3.5 @ 2025-08-20T01:05:13.864025+00:00
  0
DICTIONARYVAR
  5
32
330
2D
100
DictionaryVariables
280
0
  1
1.3.5 @ 2025-08-20T01:05:13.870010+00:00
  0
ENDSEC
  0
EOF
