  0
SECTION
  2
HEADER
  9
$ACADVER
  1
AC1032
  9
$ACADMAINTVER
 90
4
  9
$DWGCODEPAGE
  3
ANSI_1252
  9
$LASTSAVEDBY
  1
ezdxf
  9
$REQUIREDVERSIONS
160
0
  9
$INSBASE
 10
0.0
 20
0.0
 30
0.0
  9
$EXTMIN
 10
1e+20
 20
1e+20
 30
1e+20
  9
$EXTMAX
 10
-1e+20
 20
-1e+20
 30
-1e+20
  9
$LIMMIN
 10
0.0
 20
0.0
  9
$LIMMAX
 10
420.0
 20
297.0
  9
$ORTHOMODE
 70
0
  9
$REGENMODE
 70
1
  9
$FILLMODE
 70
1
  9
$QTEXTMODE
 70
0
  9
$MIRRTEXT
 70
1
  9
$LTSCALE
 40
1.0
  9
$ATTMODE
 70
1
  9
$TEXTSIZE
 40
2.5
  9
$TRACEWID
 40
1.0
  9
$TEXTSTYLE
  7
Standard
  9
$CLAYER
  8
0
  9
$CELTYPE
  6
ByLayer
  9
$CECOLOR
 62
256
  9
$CELTSCALE
 40
1.0
  9
$DISPSILH
 70
0
  9
$DIMSCALE
 40
1.0
  9
$DIMASZ
 40
2.5
  9
$DIMEXO
 40
0.625
  9
$DIMDLI
 40
3.75
  9
$DIMRND
 40
0.0
  9
$DIMDLE
 40
0.0
  9
$DIMEXE
 40
1.25
  9
$DIMTP
 40
0.0
  9
$DIMTM
 40
0.0
  9
$DIMTXT
 40
2.5
  9
$DIMCEN
 40
2.5
  9
$DIMTSZ
 40
0.0
  9
$DIMTOL
 70
0
  9
$DIMLIM
 70
0
  9
$DIMTIH
 70
0
  9
$DIMTOH
 70
0
  9
$DIMSE1
 70
0
  9
$DIMSE2
 70
0
  9
$DIMTAD
 70
1
  9
$DIMZIN
 70
8
  9
$DIMBLK
  1

  9
$DIMASO
 70
1
  9
$DIMSHO
 70
1
  9
$DIMPOST
  1

  9
$DIMAPOST
  1

  9
$DIMALT
 70
0
  9
$DIMALTD
 70
3
  9
$DIMALTF
 40
0.03937007874
  9
$DIMLFAC
 40
1.0
  9
$DIMTOFL
 70
1
  9
$DIMTVP
 40
0.0
  9
$DIMTIX
 70
0
  9
$DIMSOXD
 70
0
  9
$DIMSAH
 70
0
  9
$DIMBLK1
  1

  9
$DIMBLK2
  1

  9
$DIMSTYLE
  2
ISO-25
  9
$DIMCLRD
 70
0
  9
$DIMCLRE
 70
0
  9
$DIMCLRT
 70
0
  9
$DIMTFAC
 40
1.0
  9
$DIMGAP
 40
0.625
  9
$DIMJUST
 70
0
  9
$DIMSD1
 70
0
  9
$DIMSD2
 70
0
  9
$DIMTOLJ
 70
0
  9
$DIMTZIN
 70
8
  9
$DIMALTZ
 70
0
  9
$DIMALTTZ
 70
0
  9
$DIMUPT
 70
0
  9
$DIMDEC
 70
2
  9
$DIMTDEC
 70
2
  9
$DIMALTU
 70
2
  9
$DIMALTTD
 70
3
  9
$DIMTXSTY
  7
Standard
  9
$DIMAUNIT
 70
0
  9
$DIMADEC
 70
0
  9
$DIMALTRND
 40
0.0
  9
$DIMAZIN
 70
0
  9
$DIMDSEP
 70
44
  9
$DIMATFIT
 70
3
  9
$DIMFRAC
 70
0
  9
$DIMLDRBLK
  1

  9
$DIMLUNIT
 70
2
  9
$DIMLWD
 70
-2
  9
$DIMLWE
 70
-2
  9
$DIMTMOVE
 70
0
  9
$DIMFXL
 40
1.0
  9
$DIMFXLON
 70
0
  9
$DIMJOGANG
 40
0.785398163397
  9
$DIMTFILL
 70
0
  9
$DIMTFILLCLR
 70
0
  9
$DIMARCSYM
 70
0
  9
$DIMLTYPE
  6

  9
$DIMLTEX1
  6

  9
$DIMLTEX2
  6

  9
$DIMTXTDIRECTION
 70
0
  9
$LUNITS
 70
2
  9
$LUPREC
 70
4
  9
$SKETCHINC
 40
1.0
  9
$FILLETRAD
 40
10.0
  9
$AUNITS
 70
0
  9
$AUPREC
 70
2
  9
$MENU
  1
.
  9
$ELEVATION
 40
0.0
  9
$PELEVATION
 40
0.0
  9
$THICKNESS
 40
0.0
  9
$LIMCHECK
 70
0
  9
$CHAMFERA
 40
0.0
  9
$CHAMFERB
 40
0.0
  9
$CHAMFERC
 40
0.0
  9
$CHAMFERD
 40
0.0
  9
$SKPOLY
 70
0
  9
$TDCREATE
 40
2460908.0869675926
  9
$TDUCREATE
 40
2458532.153996898
  9
$TDUPDATE
 40
2460908.0869675926
  9
$TDUUPDATE
 40
2458532.1544311
  9
$TDINDWG
 40
0.0
  9
$TDUSRTIMER
 40
0.0
  9
$USRTIMER
 70
1
  9
$ANGBASE
 50
0.0
  9
$ANGDIR
 70
0
  9
$PDMODE
 70
0
  9
$PDSIZE
 40
0.0
  9
$PLINEWID
 40
0.0
  9
$SPLFRAME
 70
0
  9
$SPLINETYPE
 70
6
  9
$SPLINESEGS
 70
8
  9
$HANDSEED
  5
33
  9
$SURFTAB1
 70
6
  9
$SURFTAB2
 70
6
  9
$SURFTYPE
 70
6
  9
$SURFU
 70
6
  9
$SURFV
 70
6
  9
$UCSBASE
  2

  9
$UCSNAME
  2

  9
$UCSORG
 10
0.0
 20
0.0
 30
0.0
  9
$UCSXDIR
 10
1.0
 20
0.0
 30
0.0
  9
$UCSYDIR
 10
0.0
 20
1.0
 30
0.0
  9
$UCSORTHOREF
  2

  9
$UCSORTHOVIEW
 70
0
  9
$UCSORGTOP
 10
0.0
 20
0.0
 30
0.0
  9
$UCSORGBOTTOM
 10
0.0
 20
0.0
 30
0.0
  9
$UCSORGLEFT
 10
0.0
 20
0.0
 30
0.0
  9
$UCSORGRIGHT
 10
0.0
 20
0.0
 30
0.0
  9
$UCSORGFRONT
 10
0.0
 20
0.0
 30
0.0
  9
$UCSORGBACK
 10
0.0
 20
0.0
 30
0.0
  9
$PUCSBASE
  2

  9
$PUCSNAME
  2

  9
$PUCSORG
 10
0.0
 20
0.0
 30
0.0
  9
$PUCSXDIR
 10
1.0
 20
0.0
 30
0.0
  9
$PUCSYDIR
 10
0.0
 20
1.0
 30
0.0
  9
$PUCSORTHOREF
  2

  9
$PUCSORTHOVIEW
 70
0
  9
$PUCSORGTOP
 10
0.0
 20
0.0
 30
0.0
  9
$PUCSORGBOTTOM
 10
0.0
 20
0.0
 30
0.0
  9
$PUCSORGLEFT
 10
0.0
 20
0.0
 30
0.0
  9
$PUCSORGRIGHT
 10
0.0
 20
0.0
 30
0.0
  9
$PUCSORGFRONT
 10
0.0
 20
0.0
 30
0.0
  9
$PUCSORGBACK
 10
0.0
 20
0.0
 30
0.0
  9
$USERI1
 70
0
  9
$USERI2
 70
0
  9
$USERI3
 70
0
  9
$USERI4
 70
0
  9
$USERI5
 70
0
  9
$USERR1
 40
0.0
  9
$USERR2
 40
0.0
  9
$USERR3
 40
0.0
  9
$USERR4
 40
0.0
  9
$USERR5
 40
0.0
  9
$WORLDVIEW
 70
1
  9
$SHADEDGE
 70
3
  9
$SHADEDIF
 70
70
  9
$TILEMODE
 70
1
  9
$MAXACTVP
 70
64
  9
$PINSBASE
 10
0.0
 20
0.0
 30
0.0
  9
$PLIMCHECK
 70
0
  9
$PEXTMIN
 10
1e+20
 20
1e+20
 30
1e+20
  9
$PEXTMAX
 10
-1e+20
 20
-1e+20
 30
-1e+20
  9
$PLIMMIN
 10
0.0
 20
0.0
  9
$PLIMMAX
 10
420.0
 20
297.0
  9
$UNITMODE
 70
0
  9
$VISRETAIN
 70
1
  9
$PLINEGEN
 70
0
  9
$PSLTSCALE
 70
1
  9
$TREEDEPTH
 70
3020
  9
$CMLSTYLE
  2
Standard
  9
$CMLJUST
 70
0
  9
$CMLSCALE
 40
20.0
  9
$PROXYGRAPHICS
 70
1
  9
$MEASUREMENT
 70
1
  9
$CELWEIGHT
370
-1
  9
$ENDCAPS
280
0
  9
$JOINSTYLE
280
0
  9
$LWDISPLAY
290
0
  9
$INSUNITS
 70
6
  9
$HYPERLINKBASE
  1

  9
$STYLESHEET
  1

  9
$XEDIT
290
1
  9
$CEPSNTYPE
380
0
  9
$PSTYLEMODE
290
1
  9
$FINGERPRINTGUID
  2
{026D0B61-D394-460C-94A9-B0F85B26F27A}
  9
$VERSIONGUID
  2
{D9000523-C77D-46E4-B9FC-61F532529887}
  9
$EXTNAMES
290
1
  9
$PSVPSCALE
 40
0.0
  9
$OLESTARTUP
290
0
  9
$SORTENTS
280
127
  9
$INDEXCTL
280
0
  9
$HIDETEXT
280
1
  9
$XCLIPFRAME
280
1
  9
$HALOGAP
280
0
  9
$OBSCOLOR
 70
257
  9
$OBSLTYPE
280
0
  9
$INTERSECTIONDISPLAY
280
0
  9
$INTERSECTIONCOLOR
 70
257
  9
$DIMASSOC
280
2
  9
$PROJECTNAME
  1

  9
$CAMERADISPLAY
290
0
  9
$LENSLENGTH
 40
50.0
  9
$CAMERAHEIGHT
 40
0.0
  9
$STEPSPERSEC
 40
24.0
  9
$STEPSIZE
 40
100.0
  9
$3DDWFPREC
 40
2.0
  9
$PSOLWIDTH
 40
0.005
  9
$PSOLHEIGHT
 40
0.08
  9
$LOFTANG1
 40
1.570796326795
  9
$LOFTANG2
 40
1.570796326795
  9
$LOFTMAG1
 40
0.0
  9
$LOFTMAG2
 40
0.0
  9
$LOFTPARAM
 70
7
  9
$LOFTNORMALS
280
1
  9
$LATITUDE
 40
37.795
  9
$LONGITUDE
 40
-122.394
  9
$NORTHDIRECTION
 40
0.0
  9
$TIMEZONE
 70
-8000
  9
$LIGHTGLYPHDISPLAY
280
1
  9
$TILEMODELIGHTSYNCH
280
1
  9
$CMATERIAL
347
20
  9
$SOLIDHIST
280
0
  9
$SHOWHIST
280
1
  9
$DWFFRAME
280
2
  9
$DGNFRAME
280
2
  9
$REALWORLDSCALE
290
1
  9
$INTERFERECOLOR
 62
256
  9
$CSHADOW
280
0
  9
$SHADOWPLANELOCATION
 40
0.0
  0
ENDSEC
  0
SECTION
  2
CLASSES
  0
CLASS
  1
ACDBDICTIONARYWDFLT
  2
AcDbDictionaryWithDefault
  3
ObjectDBX Classes
 90
0
 91
0
280
0
281
0
  0
CLASS
  1
SUN
  2
AcDbSun
  3
SCENEOE
 90
1153
 91
0
280
0
281
0
  0
CLASS
  1
VISUALSTYLE
  2
AcDbVisualStyle
  3
ObjectDBX Classes
 90
4095
 91
0
280
0
281
0
  0
CLASS
  1
MATERIAL
  2
AcDbMaterial
  3
ObjectDBX Classes
 90
1153
 91
0
280
0
281
0
  0
CLASS
  1
SCALE
  2
AcDbScale
  3
ObjectDBX Classes
 90
1153
 91
0
280
0
281
0
  0
CLASS
  1
TABLESTYLE
  2
AcDbTableStyle
  3
ObjectDBX Classes
 90
4095
 91
0
280
0
281
0
  0
CLASS
  1
MLEADERSTYLE
  2
AcDbMLeaderStyle
  3
ACDB_MLEADERSTYLE_CLASS
 90
4095
 91
0
280
0
281
0
  0
CLASS
  1
DICTIONARYVAR
  2
AcDbDictionaryVar
  3
ObjectDBX Classes
 90
0
 91
0
280
0
281
0
  0
CLASS
  1
CELLSTYLEMAP
  2
AcDbCellStyleMap
  3
ObjectDBX Classes
 90
1152
 91
0
280
0
281
0
  0
CLASS
  1
MENTALRAYRENDERSETTINGS
  2
AcDbMentalRayRenderSettings
  3
SCENEOE
 90
1024
 91
0
280
0
281
0
  0
CLASS
  1
ACDBDETAILVIEWSTYLE
  2
AcDbDetailViewStyle
  3
ObjectDBX Classes
 90
1025
 91
0
280
0
281
0
  0
CLASS
  1
ACDBSECTIONVIEWSTYLE
  2
AcDbSectionViewStyle
  3
ObjectDBX Classes
 90
1025
 91
0
280
0
281
0
  0
CLASS
  1
RASTERVARIABLES
  2
AcDbRasterVariables
  3
ISM
 90
0
 91
0
280
0
281
0
  0
CLASS
  1
LAYOUT
  2
AcDbLayout
  3
ObjectDBX Classes
 90
0
 91
0
280
0
281
0
  0
CLASS
  1
ACDBPLACEHOLDER
  2
AcDbPlaceHolder
  3
ObjectDBX Classes
 90
0
 91
0
280
0
281
0
  0
ENDSEC
  0
SECTION
  2
TABLES
  0
TABLE
  2
VPORT
  5
8
330
0
100
AcDbSymbolTable
 70
1
  0
VPORT
  5
23
330
8
100
AcDbSymbolTableRecord
100
AcDbViewportTableRecord
  2
*Active
 70
0
 10
0.0
 20
0.0
 11
1.0
 21
1.0
 12
0.0
 22
0.0
 13
0.0
 23
0.0
 14
0.5
 24
0.5
 15
0.5
 25
0.5
 16
0.0
 26
0.0
 36
1.0
 17
0.0
 27
0.0
 37
0.0
 40
1000.0
 41
1.34
 42
50.0
 43
0.0
 44
0.0
 50
0.0
 51
0.0
 71
0
 72
1000
 73
1
 74
3
 75
0
 76
0
 77
0
 78
0
281
0
 65
0
146
0.0
  0
ENDTAB
  0
TABLE
  2
LTYPE
  5
2
330
0
100
AcDbSymbolTable
 70
3
  0
LTYPE
  5
24
330
2
100
AcDbSymbolTableRecord
100
AcDbLinetypeTableRecord
  2
ByBlock
 70
0
  3

 72
65
 73
0
 40
0.0
  0
LTYPE
  5
25
330
2
100
AcDbSymbolTableRecord
100
AcDbLinetypeTableRecord
  2
ByLayer
 70
0
  3

 72
65
 73
0
 40
0.0
  0
LTYPE
  5
26
330
2
100
AcDbSymbolTableRecord
100
AcDbLinetypeTableRecord
  2
Continuous
 70
0
  3

 72
65
 73
0
 40
0.0
  0
ENDTAB
  0
TABLE
  2
LAYER
  5
1
330
0
100
AcDbSymbolTable
 70
2
  0
LAYER
  5
27
330
1
100
AcDbSymbolTableRecord
100
AcDbLayerTableRecord
  2
0
 70
0
 62
7
  6
Continuous
370
-3
390
13
347
21
  0
LAYER
  5
28
330
1
100
AcDbSymbolTableRecord
100
AcDbLayerTableRecord
  2
Defpoints
 70
0
 62
7
  6
Continuous
290
0
370
-3
390
13
347
21
  0
ENDTAB
  0
TABLE
  2
STYLE
  5
5
330
0
100
AcDbSymbolTable
 70
1
  0
STYLE
  5
29
330
5
100
AcDbSymbolTableRecord
100
AcDbTextStyleTableRecord
  2
Standard
 70
0
 40
0.0
 41
1.0
 50
0.0
 71
0
 42
2.5
  3
txt
  4

  0
ENDTAB
  0
TABLE
  2
VIEW
  5
7
330
0
100
AcDbSymbolTable
 70
0
  0
ENDTAB
  0
TABLE
  2
UCS
  5
6
330
0
100
AcDbSymbolTable
 70
0
  0
ENDTAB
  0
TABLE
  2
APPID
  5
3
330
0
100
AcDbSymbolTable
 70
3
  0
APPID
  5
2A
330
3
100
AcDbSymbolTableRecord
100
AcDbRegAppTableRecord
  2
ACAD
 70
0
  0
APPID
  5
30
330
3
100
AcDbSymbolTableRecord
100
AcDbRegAppTableRecord
  2
HATCHBACKGROUNDCOLOR
 70
0
  0
APPID
  5
31
330
3
100
AcDbSymbolTableRecord
100
AcDbRegAppTableRecord
  2
EZDXF
 70
0
  0
ENDTAB
  0
TABLE
  2
DIMSTYLE
  5
4
330
0
100
AcDbSymbolTable
 70
1
100
AcDbDimStyleTable
  0
DIMSTYLE
105
2B
330
4
100
AcDbSymbolTableRecord
100
AcDbDimStyleTableRecord
  2
Standard
 70
0
 40
1.0
 41
2.5
 42
0.625
 43
3.75
 44
1.25
 45
0.0
 46
0.0
 47
0.0
 48
0.0
 49
2.5
140
2.5
141
2.5
142
0.0
143
0.03937007874
144
1.0
145
0.0
146
1.0
147
0.625
148
0.0
 69
0
 70
0
 71
0
 72
0
 73
0
 74
0
 75
0
 76
0
 77
1
 78
8
 79
3
170
0
171
3
172
1
173
0
174
0
175
0
176
0
177
0
178
0
179
2
271
2
272
2
273
2
274
3
275
0
276
0
277
2
278
44
279
0
280
0
281
0
282
0
283
0
284
8
285
0
286
0
288
0
289
3
290
0
371
-2
372
-2
  0
ENDTAB
  0
TABLE
  2
BLOCK_RECORD
  5
9
330
0
100
AcDbSymbolTable
 70
2
  0
BLOCK_RECORD
  5
17
330
9
100
AcDbSymbolTableRecord
100
AcDbBlockTableRecord
  2
*Model_Space
340
1A
 70
0
280
1
281
0
  0
BLOCK_RECORD
  5
1B
330
9
100
AcDbSymbolTableRecord
100
AcDbBlockTableRecord
  2
*Paper_Space
340
1E
 70
0
280
1
281
0
  0
ENDTAB
  0
ENDSEC
  0
SECTION
  2
BLOCKS
  0
BLOCK
  5
18
330
17
100
AcDbEntity
  8
0
100
AcDbBlockBegin
  2
*Model_Space
 70
0
 10
0.0
 20
0.0
 30
0.0
  3
*Model_Space
  1

  0
ENDBLK
  5
19
330
17
100
AcDbEntity
  8
0
100
AcDbBlockEnd
  0
BLOCK
  5
1C
330
1B
100
AcDbEntity
  8
0
100
AcDbBlockBegin
  2
*Paper_Space
 70
0
 10
0.0
 20
0.0
 30
0.0
  3
*Paper_Space
  1

  0
ENDBLK
  5
1D
330
1B
100
AcDbEntity
  8
0
100
AcDbBlockEnd
  0
ENDSEC
  0
SECTION
  2
ENTITIES
  0
LWPOLYLINE
  5
2F
330
17
100
AcDbEntity
  8
0
100
AcDbPolyline
 90
721
 70
1
 10
38.160882370230524
 20
1.3939864837130034
 10
38.15978563191647
 20
1.3943456485389754
 10
38.15649957812796
 20
1.3953092299351881
 10
38.151032531172405
 20
1.3966494017382383
 10
38.143323373355216
 20
1.3984779964529859
 10
38.13349225948867
 20
1.400628305610561
 10
38.12148015245503
 20
1.4031552051749725
 10
38.107232176290324
 20
1.4059996580285292
 10
38.090862244076234
 20
1.4091658253249129
 10
38.072315479848754
 20
1.4125946699464307
 10
38.05153076591335
 20
1.4163980243979448
 10
38.02862617650541
 20
1.420466136751435
 10
38.00354475508408
 20
1.4247969264300597
 10
37.976284421072506
 20
1.4294473499746703
 10
37.9468493356244
 20
1.4343034943035649
 10
37.91523533758607
 20
1.4394792724984453
 10
37.88150146407518
 20
1.4449198085953014
 10
37.845590758550905
 20
1.4506230220172924
 10
37.8075011404364
 20
1.4566458693052688
 10
37.76729372742621
 20
1.462876517954371
 10
37.72490740182578
 20
1.4694268004694593
 10
37.68034632478881
 20
1.476182803768831
 10
37.6337202482433
 20
1.4832626020878705
 10
37.58486038314356
 20
1.4906029971552042
 10
37.53393759911211
 20
1.4982102307013547
 10
37.480837983067296
 20
1.5060801415726406
 10
37.42561849154993
 20
1.5142148103459023
 10
37.36827912456003
 20
1.5226142370211406
 10
37.308817801520746
 20
1.5313353781392054
 10
37.247234522432095
 20
1.540378233700098
 10
37.18353344844773
 20
1.549628890622115
 10
37.117710418414
 20
1.5592012619869597
 10
37.049824469448566
 20
1.569040471830622
 10
36.97981656443376
 20
1.5792013961171112
 10
36.90769086452327
 20
1.589570121764726
 10
36.833500165104226
 20
1.6002626424320086
 10
36.75724238559983
 20
1.6113359146598112
 10
36.67892376774057
 20
1.62261906882558
 10
36.598483193831946
 20
1.634223937434176
 10
36.51603665753249
 20
1.6460977250984312
 10
36.43146816518364
 20
1.6582932272055133
 10
36.34489162986712
 20
1.6708146049091055
 10
36.25625009504207
 20
1.6836597776323663
 10
36.165600517249345
 20
1.696830825952137
 10
36.07288802052493
 20
1.710268712750725
 10
35.97816956140968
 20
1.7239755186049726
 10
35.88138402220905
 20
1.7380630760197389
 10
35.78264739658161
 20
1.752478589607857
 10
35.68190272798648
 20
1.767219978792485
 10
35.57915001642368
 20
1.7822872435736226
 10
35.474389261893194
 20
1.7976803839512705
 10
35.367675340359064
 20
1.813458437043121
 10
35.25895337585722
 20
1.8295623657314808
 10
35.14827824435172
 20
1.8460512071340431
 10
35.0356520264194
 20
1.8628680047099573
 10
34.92107888321394
 20
1.87989884537752
 10
34.80461161012249
 20
1.8972597227952757
 10
34.68618908945055
 20
1.915062469468085
 10
34.56581132119809
 20
1.9333070853959475
 10
34.443541503636496
 20
1.9518247815331518
 10
34.31937755618892
 20
1.9706725144205484
 10
34.19331947885538
 20
1.9898502840581382
 10
34.06536102990533
 20
2.0095289600684736
 10
33.93551261222299
 20
2.0294237597472993
 10
33.80382702119553
 20
2.049650676753159
 10
33.67030217624611
 20
2.070266667626904
 10
33.534879040257024
 20
2.0913266083325444
 10
33.39767360688682
 20
2.1127777034829105
 10
33.2586310001715
 20
2.1345609159603107
 10
33.11775122011104
 20
2.156676245764745
 10
32.97508706209265
 20
2.1792396865547574
 10
32.830646848423655
 20
2.2020234121669424
 10
32.684369461409524
 20
2.2251392551061615
 10
32.53636673355514
 20
2.248648333066949
 10
32.3866386648605
 20
2.2725506460493032
 10
32.235132459938406
 20
2.2967302003946823
 10
32.08184603821206
 20
2.3212439526439375
 10
31.92689331276314
 20
2.34609606395075
 10
31.770213165897115
 20
2.3713983668199816
 10
31.6118118393445
 20
2.3969799916290793
 10
31.451746289646163
 20
2.4228430189548833
 10
31.290016516802083
 20
2.448987448797394
 10
31.126618359658615
 20
2.4755271942383152
 10
30.961551818215714
 20
2.5024622552776448
 10
30.794818973050255
 20
2.5297356753745333
 10
30.62653581782076
 20
2.5572946591418106
 10
30.456586358868698
 20
2.5851920019666466
 10
30.285027552734906
 20
2.6134297844258816
 10
30.111922597690782
 20
2.641839217473805
 10
29.937212456618614
 20
2.670475177074424
 10
29.760947844328737
 20
2.6995106134271363
 10
29.583185717361996
 20
2.7289476071087813
 10
29.403816323790387
 20
2.7586680838839754
 10
29.222959818426116
 20
2.7885053352838467
 10
29.040607878961833
 20
2.8186871874718005
 10
28.856762585974366
 20
2.849156683906985
 10
28.671421858886887
 20
2.8799707811302526
 10
28.484646815393926
 20
2.911017646636741
 10
28.296437455495482
 20
2.9422972804264513
 10
28.106736822650696
 20
2.97380760192254
 10
27.915656749364437
 20
3.005609728819544
 10
27.72314027909585
 20
3.0377015805406202
 10
27.52924852953948
 20
3.069971324580908
 10
27.333981500695312
 20
3.102418960940407
 10
27.1373961491042
 20
3.1350465701959602
 10
26.93943343764846
 20
3.167909028311575
 10
26.740146161715266
 20
3.201122328945797
 10
26.53948360649427
 20
3.2345135218992302
 10
26.33761456103119
 20
3.26814580544325
 10
26.134433434551703
 20
3.3017871922607704
 10
25.92993814647895
 20
3.3354946388926403
 10
25.72423636816412
 20
3.369443176115098
 10
25.517326019030367
 20
3.4036897604689935
 10
25.309099427726522
 20
3.43805936117809
 10
25.099788581569655
 20
3.4724463874680525
 10
24.88922469151407
 20
3.506787641067506
 10
24.677515428910937
 20
3.5412581527526834
 10
24.464601756642566
 20
3.575912798487598
 10
24.250599668367506
 20
3.6106987828850796
 10
24.03545844927542
 20
3.6454431557457343
 10
23.81923089475348
 20
3.680261910728105
 10
23.601912843647998
 20
3.715268960913894
 10
23.383514698843193
 20
3.7501795235988458
 10
23.1640385409159
 20
3.78493664224211
 10
22.94358788006361
 20
3.819829260701624
 10
22.722050883781478
 20
3.8547962612828552
 10
22.49953938457434
 20
3.8898987616803358
 10
22.27606586590327
 20
3.92479502264896
 10
22.051628247191402
 20
3.9595420007295785
 10
21.826222367285073
 20
3.994253609003894
 10
21.599841984453747
 20
4.02910071709446
 10
21.372609334086494
 20
4.063859659991554
 10
21.14441882540899
 20
4.09829845037809
 10
20.915435086313245
 20
4.132594199607144
 10
20.685533800833362
 20
4.16702752922929
 10
20.45478024781755
 20
4.201372693657964
 10
20.223182749573184
 20
4.235401866729763
 10
19.990851058028273
 20
4.26923312268007
 10
19.75766917952428
 20
4.302919256896056
 10
19.523748946566066
 20
4.336521387072251
 10
19.289035483189615
 20
4.369980476090966
 10
19.05358990708947
 20
4.403184691447339
 10
18.817469174806483
 20
4.436136113718209
 10
18.580616329799785
 20
4.46883266232674
 10
18.3431452851511
 20
4.501278498426611
 10
18.104942127778703
 20
4.533469460864138
 10
17.86611660961064
 20
4.565523623874711
 10
17.626670811223732
 20
4.597384030917474
 10
17.386615135502193
 20
4.628765899288173
 10
17.145945421292346
 20
4.65978314206851
 10
16.904773501099044
 20
4.69049687695302
 10
16.662983381263743
 20
4.7209598993288715
 10
16.42069313602183
 20
4.751062457268043
 10
16.177904845950145
 20
4.780747594229685
 10
15.934620591625533
 20
4.809958353672946
 10
15.690836211894318
 20
4.838808648679527
 10
15.446606582720493
 20
4.867357516367124
 10
15.201931704104066
 20
4.895604956735734
 10
14.956874774316404
 20
4.923382180739644
 10
14.711380917393521
 20
4.950630151261165
 10
14.465509170453089
 20
4.977293992336285
 10
14.219310248305435
 20
5.003546654164399
 10
13.972720952679191
 20
5.02955692579122
 10
13.725859357809746
 20
5.055215055288727
 10
13.478685151770962
 20
5.08006330975327
 10
13.231185851101811
 20
5.104443428429956
 10
12.98347328830714
 20
5.128416529013321
 10
12.735494667999795
 20
5.151866617844817
 10
12.487252070756597
 20
5.174736738383596
 10
12.238853167928747
 20
5.1972019214058935
 10
11.990243083552212
 20
5.219203129794018
 10
11.74148501589838
 20
5.240571574502254
 10
11.492522008426402
 20
5.2613051749537645
 10
11.243465893641138
 20
5.281465048843081
 10
10.994314590965741
 20
5.301108152711055
 10
10.74507434213074
 20
5.320063616935133
 10
10.495743066559289
 20
5.338388398056166
 10
10.246375640215405
 20
5.356141533191846
 10
9.996908864827704
 20
5.373491811387888
 10
9.747469136938944
 20
5.390101654552863
 10
9.49805645654912
 20
5.405971062686775
 10
9.24866874308139
 20
5.4211569923304745
 10
8.99930391595892
 20
5.435716400024811
 10
8.750021012299394
 20
5.449594409805776
 10
8.500760994985121
 20
5.46284589763738
 10
8.251639857674654
 20
5.475418068132453
 10
8.002661761521662
 20
5.487197008209294
 10
7.753824625949313
 20
5.498239674408753
 10
7.505126370380759
 20
5.508603023271681
 10
7.256569075392849
 20
5.518230098257229
 10
7.008270815220961
 20
5.527011147437375
 10
6.760170472170564
 20
5.535058003316981
 10
6.51232084162883
 20
5.542486659554591
 10
6.2646753699391065
 20
5.549010252869108
 10
6.017343809029418
 20
5.554746857495915
 10
5.770319917169239
 20
5.559867343057567
 10
5.523552979548246
 20
5.564198759354671
 10
5.2771610704018235
 20
5.567631354459204
 10
5.031140028576282
 20
5.570279041452871
 10
4.78543705868446
 20
5.572025826677126
 10
4.540161912654373
 20
5.572989784367357
 10
4.29526179509886
 20
5.573054920865017
 10
4.0508485385227715
 20
5.572282353864643
 10
3.8068019881138855
 20
5.570838791835103
 10
3.563240218107588
 20
5.56861448284838
 10
3.3201715508112435
 20
5.565381600741067
 10
3.077593905648008
 20
5.561197102054016
 10
2.835557997428215
 20
5.556233936986622
 10
2.594065906728705
 20
5.5504351489980355
 10
2.353119714126311
 20
5.543743781547405
 10
2.112776376161892
 20
5.536161915211568
 10
1.872974775140913
 20
5.527801382495388
 10
1.633767706450541
 20
5.518778177057409
 10
1.3952204489389894
 20
5.508866553311068
 10
1.1573371637599517
 20
5.4979525981746615
 10
0.9201136897597307
 20
5.486150224729893
 10
0.683604902902347
 20
5.473518470094455
 10
0.44775384664694223
 20
5.460055253691507
 10
0.21261539695753337
 20
5.445819612638736
 10
-0.021755570201876982
 20
5.430870584053842
 10
-0.25540768906476746
 20
5.414978261196576
 10
-0.48828400309029046
 20
5.398144724643777
 10
-0.720337958621805
 20
5.380656837676544
 10
-0.9516223510464762
 20
5.362398606636335
 10
-1.1820211867057604
 20
5.34331723613598
 10
-1.4116483786813598
 20
5.323408565021795
 10
-1.640390013891569
 20
5.302676754447465
 10
-1.868193296949226
 20
5.281237798071532
 10
-2.0951742215128712
 20
5.259144491281166
 10
-2.321265428157447
 20
5.236114131948952
 10
-2.5463654872622987
 20
5.212492620473679
 10
-2.770535516521961
 20
5.188391789360207
 10
-2.9938199890162362
 20
5.16346781878659
 10
-3.2160480351225704
 20
5.137726950483351
 10
-3.437282853112342
 20
5.111337973496202
 10
-3.6575265235623915
 20
5.084357844365994
 10
-3.876774885319031
 20
5.056672650011026
 10
-4.094916105877403
 20
5.028343508125829
 10
-4.312064098319212
 20
4.999366257556723
 10
-4.528111191293278
 20
4.969915929079943
 10
-4.743053223645918
 20
4.939878609613786
 10
-4.95688811480029
 20
4.909197342617404
 10
-5.169617945333239
 20
4.877929084631644
 10
-5.381189919857593
 20
4.846189829315052
 10
-5.591660994914204
 20
4.813977496090787
 10
-5.800913096267684
 20
4.781182333030828
 10
-6.0089462239180405
 20
4.7478043401351755
 10
-6.215815253829277
 20
4.713784480286137
 10
-6.4214653100373855
 20
4.679181790601405
 10
-6.62590263427289
 20
4.644167140703534
 10
-6.8290723505717805
 20
4.608799567710213
 10
-7.030966136626692
 20
4.5728512454580414
 10
-7.231640948978476
 20
4.536320093370177
 10
-7.430923837427739
 20
4.499155396636292
 10
-7.628934956786704
 20
4.461523863725256
 10
-7.825676387632215
 20
4.4234824511779225
 10
-8.021034216882567
 20
4.385035320147973
 10
-8.215006363960923
 20
4.346125514094556
 10
-8.407643543677608
 20
4.306580082818277
 10
-8.598897121799133
 20
4.2666289330593825
 10
-8.788773340056029
 20
4.226442934440425
 10
-8.97720483902323
 20
4.185739384833991
 10
-9.164248575241592
 20
4.144516203663239
 10
-9.349794796783096
 20
4.102891465163553
 10
-9.533900460188594
 20
4.060863088758093
 10
-9.716567646034923
 20
4.018488030987709
 10
-9.897733156050707
 20
3.9755975028066888
 10
-10.077401151389637
 20
3.932305417296735
 10
-10.255571632051705
 20
3.8886117744578494
 10
-10.432252920344277
 20
3.8447444004534344
 10
-10.607329022608816
 20
3.8006504998963218
 10
-10.780907610196493
 20
3.756155042010276
 10
-10.952927565412777
 20
3.7111461942904365
 10
-11.123340254024184
 20
3.6658538634770483
 10
-11.292206793725247
 20
3.620389882074972
 10
-11.459461905667744
 20
3.5745285044976463
 10
-11.625052794464517
 20
3.5283857244036128
 10
-11.789095453774099
 20
3.482014337180041
 10
-11.951475970514794
 20
3.4354185039806135
 10
-12.112188102956079
 20
3.3884273551827757
 10
-12.271238092828472
 20
3.3412117604090836
 10
-12.428628020708821
 20
3.293828676200385
 10
-12.584355806020278
 20
3.2462211460158312
 10
-12.738364492221995
 20
3.198391250432264
 10
-12.890651998737136
 20
3.150282032908829
 10
-13.041277362683383
 20
3.1019483694095396
 10
-13.190126670979044
 20
3.053394421088076
 10
-13.337204084777797
 20
3.0047341010261417
 10
-13.482619356007659
 20
2.9558493349883523
 10
-13.626201615046083
 20
2.90674636470523
 10
-13.76800573785707
 20
2.857366153059084
 10
-13.908040046747992
 20
2.807936526213317
 10
-14.04630454171885
 20
2.758457484167931
 10
-14.182738105075105
 20
2.708817194418064
 10
-14.31733865623992
 20
2.6589587004228656
 10
-14.450161071177304
 20
2.608822965064642
 10
-14.581101839689758
 20
2.558698932201333
 10
-14.710215837741295
 20
2.508527564715246
 10
-14.837498904178231
 20
2.4581949495246773
 10
-14.96289408245972
 20
2.4077031672064693
 10
-15.086405533739434
 20
2.357166130842324
 10
-15.208029096863699
 20
2.3064699273505394
 10
-15.327766852409354
 20
2.255671513271967
 10
-15.445620880953241
 20
2.2048278451474568
 10
-15.561530064800827
 20
2.1538270904721486
 10
-15.67550064568263
 20
2.1028401188685963
 10
-15.787581257832143
 20
2.051637023596553
 10
-15.897723267015877
 20
2.0004477113962644
 10
-16.005924592656992
 20
1.949215225726881
 10
-16.11218315417865
 20
1.8978826100475499
 10
-16.216441995039986
 20
1.8464519449351138
 10
-16.31876015235871
 20
1.7949781063535812
 10
-16.419086911324484
 20
1.743634044502348
 10
-16.517418110783627
 20
1.6923058462997111
 10
-16.613753750736144
 20
1.6409935117456707
 10
-16.708152868299724
 20
1.5897519168042369
 10
-16.800499469815822
 20
1.5385282660882407
 10
-16.89085467297897
 20
1.4874343921025435
 10
-16.979165682402012
 20
1.4365862885056888
 10
-17.065489454625784
 20
1.3859818747208348
 10
-17.149764871955753
 20
1.3355093182431215
 10
-17.232050971509622
 20
1.285223495036557
 10
-17.312233840205682
 20
1.2351285662548264
 10
-17.390431552279324
 20
1.1853342838259469
 10
-17.466532275225674
 20
1.1359017654444534
 10
-17.540588804431916
 20
1.0867150174518023
 10
-17.61260113989804
 20
1.0377740398479938
 10
-17.68256928162405
 20
0.9890788326330272
 10
-17.750440434222774
 20
0.940745389465447
 10
-17.81621459769422
 20
0.8927737103452523
 10
-17.879942486848705
 20
0.844990845073049
 10
-17.94157338687591
 20
0.7975697438482313
 10
-18.001098975468455
 20
0.7502825805073954
 10
-18.05852757493373
 20
0.7033571812139454
 10
-18.11385086296435
 20
0.6565657198044768
 10
-18.167073000714005
 20
0.6100221093606918
 10
-18.218193988182698
 20
0.5637263498825905
 10
-18.26715478825272
 20
0.5176235654061634
 10
-18.314073475159475
 20
0.4718235078594295
 10
-18.358772937549883
 20
0.4261615493503598
 10
-18.401428206200173
 20
0.3807453612301325
 10
-18.4419232874518
 20
0.33552214811157915
 10
-18.4802644230353
 20
0.29066277961725306
 10
-18.516504408337823
 20
0.24605126208861092
 10
-18.550588367395378
 20
0.20174663264334447
 10
-18.582524622515322
 20
0.15797671744485875
 10
-18.612363888507982
 20
0.11456856629375889
 10
-18.640053369986187
 20
0.07163817284858845
 10
-18.665597228103632
 20
0.029299450191049525
 10
-18.689003785167664
 20
-0.012219775515453269
 10
-18.710273041178297
 20
-0.052919504270920355
 10
-18.729466113830057
 20
-0.09268790357049045
 10
-18.74647949292545
 20
-0.13123602955622565
 10
-18.7613784573127
 20
-0.1683381366415629
 10
-18.774240769301063
 20
-0.20342673999483268
 10
-18.78496707984673
 20
-0.2360989826763948
 10
-18.793647634720013
 20
-0.2654456406094726
 10
-18.800372679691225
 20
-0.29055748971729073
 10
-18.805078235522856
 20
-0.3100634118657397
 10
-18.807873273176792
 20
-0.32254157411038403
 10
-18.795658480859814
 20
-0.6865903576496883
 10
-18.794470197164735
 20
-0.6894556102731081
 10
-18.79090742665634
 20
-0.6979944116025161
 10
-18.784978491641983
 20
-0.7119789354745081
 10
-18.77659106577452
 20
-0.7323753625067113
 10
-18.765815370021986
 20
-0.7603839412106813
 10
-18.752702637839274
 20
-0.79304085088532
 10
-18.737260410567625
 20
-0.8285783581874022
 10
-18.719629648787663
 20
-0.8662601892395465
 10
-18.699797088072224
 20
-0.9048881761070388
 10
-18.67772449707202
 20
-0.9439476293453777
 10
-18.653536191752952
 20
-0.9831579274039903
 10
-18.627183537881553
 20
-1.0222891635426314
 10
-18.598674857765168
 20
-1.0611135115978962
 10
-18.568014312557494
 20
-1.099517058488083
 10
-18.535201902258528
 20
-1.137499804213191
 10
-18.50029666398596
 20
-1.1750068728092113
 10
-18.463245802352624
 20
-1.2119222706175998
 10
-18.42404723678168
 20
-1.2483029541792081
 10
-18.382760004390807
 20
-1.2840940475300258
 10
-18.339322987485495
 20
-1.3194073831749142
 10
-18.29373826664257
 20
-1.354186004573022
 10
-18.24612391609741
 20
-1.38832015979633
 10
-18.196302824496954
 20
-1.4219744767368672
 10
-18.144447942040596
 20
-1.4550982405843065
 10
-18.090443275069774
 20
-1.4877442467258164
 10
-18.0343478607022
 20
-1.5198576191973874
 10
-17.976163779514707
 20
-1.551381401458168
 10
-17.915884789776765
 20
-1.5824864631307116
 10
-17.85351505264207
 20
-1.6130588911333161
 10
-17.789046245803252
 20
-1.643326511629386
 10
-17.722484610990833
 20
-1.6731184549963678
 10
-17.653882943591974
 20
-1.7025507148928045
 10
-17.583184287065837
 20
-1.731621210741856
 10
-17.510384480258733
 20
-1.7604438556252238
 10
-17.435542560288354
 20
-1.7889637735788977
 10
-17.35865644657786
 20
-1.81723792114373
 10
-17.279726139127256
 20
-1.845266298319719
 10
-17.198688439665155
 20
-1.8732176941525784
 10
-17.115659341850108
 20
-1.9010393132551386
 10
-17.03052701317726
 20
-1.9286700379328663
 10
-16.943405366728303
 20
-1.9561140293394441
 10
-16.854233284808704
 20
-1.9834831199797331
 10
-16.76306772395932
 20
-2.010779390430574
 10
-16.669853808216136
 20
-2.037943803574275
 10
-16.574652655273688
 20
-2.064864526905975
 10
-16.47740522801428
 20
-2.091596436389684
 10
-16.378223358942783
 20
-2.118200649719935
 10
-16.277050091518337
 20
-2.1446750863198876
 10
-16.173885425740945
 20
-2.1710197461895415
 10
-16.068735603341125
 20
-2.197063759706343
 10
-15.96165758085974
 20
-2.2228092074471344
 10
-15.852594401755924
 20
-2.2482540088350733
 10
-15.741598861416865
 20
-2.273514157528703
 10
-15.628670959842543
 20
-2.2985896535280252
 10
-15.513819019340337
 20
-2.3232526706696346
 10
-15.397095835297408
 20
-2.347619202612074
 10
-15.278446531749747
 20
-2.371630212237652
 10
-15.157869028120519
 20
-2.395342656087219
 10
-15.035420280950568
 20
-2.418758614737617
 10
-14.911102370816735
 20
-2.4418211316479947
 10
-14.784913217142188
 20
-2.4645871633592034
 10
-14.656852819926916
 20
-2.487056709871242
 10
-14.526923259747766
 20
-2.50917281464326
 10
-14.395179412568746
 20
-2.5309945147929507
 10
-14.261621278389857
 20
-2.5525218103203127
 10
-14.12619398124709
 20
-2.573695664107655
 10
-13.98900727306846
 20
-2.5946341503903616
 10
-13.850006277889962
 20
-2.61527823205074
 10
-13.709188915134753
 20
-2.6356848656296417
 10
-13.566614221920528
 20
-2.6557991751630574
 10
-13.422288439977807
 20
-2.6754502910284326
 10
-13.276205327576067
 20
-2.694809082848321
 10
-13.128303767020777
 20
-2.7139873831275843
 10
-12.978756708511327
 20
-2.732934477055894
 10
-12.8274544001197
 20
-2.7515322903978663
 10
-12.67439892242274
 20
-2.7697238666126496
 10
-12.51970002734846
 20
-2.7876272799356294
 10
-12.363298677779175
 20
-2.8052974063308147
 10
-12.205199034868564
 20
-2.8226203327165047
 10
-12.045458055157477
 20
-2.8395981396695387
 10
-11.884077819222755
 20
-2.8561738706490667
 10
-11.721052085333877
 20
-2.872518395277642
 10
-11.556385014644524
 20
-2.8885178004735623
 10
-11.390072446001016
 20
-2.90428599931853
 10
-11.22223453421557
 20
-2.9196562833436746
 10
-11.052755285629656
 20
-2.9346814479361636
 10
-10.881691656784115
 20
-2.9493635736728394
 10
-10.70909852364296
 20
-2.963761697671394
 10
-10.534923090819024
 20
-2.977759826273284
 10
-10.359218153699473
 20
-2.991473953137052
 10
-10.182042749402001
 20
-3.00484920229869
 10
-10.003287125998588
 20
-3.017767499522812
 10
-9.823065196570937
 20
-3.0302330059631015
 10
-9.64137071938852
 20
-3.04241659124211
 10
-9.458203694451344
 20
-3.05431825535984
 10
-9.273564121759405
 20
-3.0659379983162895
 10
-9.087515199584073
 20
-3.0771070310657476
 10
-8.90006108907904
 20
-3.0877114405265114
 10
-8.711136511396086
 20
-3.0979769722851445
 10
-8.520855379616913
 20
-3.1079077874953294
 10
-8.32916489835435
 20
-3.1173878924985226
 10
-8.136126185302935
 20
-3.1263054547898634
 10
-7.941732998732141
 20
-3.134831343991905
 10
-7.746038134029137
 20
-3.1430815537631904
 10
-7.548988795806756
 20
-3.1509400904451774
 10
-7.350591225795521
 20
-3.1582360844153112
 10
-7.150955175923451
 20
-3.1650876099089778
 10
-6.950078565613705
 20
-3.171551623467028
 10
-6.74784748178458
 20
-3.1776239639357784
 10
-6.544434874635474
 20
-3.1832539165049027
 10
-6.339787948779216
 20
-3.1883254875158578
 10
-6.133906704215807
 20
-3.1928386769686425
 10
-5.926846016909254
 20
-3.19685252198095
 10
-5.718595483975353
 20
-3.2006518052570354
 10
-5.5092183036854765
 20
-3.204067737751187
 10
-5.298665841806144
 20
-3.2068704127231595
 10
-5.086936017760508
 20
-3.2091167867138037
 10
-4.874142744630276
 20
-3.2108110208768017
 10
-4.660220743567225
 20
-3.212178860798717
 10
-4.4452311322658975
 20
-3.213108473974689
 10
-4.229173910726286
 20
-3.213599860404717
 10
-4.012053240102077
 20
-3.2135391070071
 10
-3.793867039816428
 20
-3.2129831703226883
 10
-3.574725061797361
 20
-3.2120501245868667
 10
-3.3545175541168533
 20
-3.2106218955642505
 10
-3.133362591010287
 20
-3.2085887313268198
 10
-2.9112580919008257
 20
-3.2060075884154267
 10
-2.6882019762116287
 20
-3.202935423370921
 10
-2.4641393679786843
 20
-3.199313199075612
 10
-2.239245297978228
 20
-3.19503324417832
 10
-2.013464890246251
 20
-3.190036521561353
 10
-1.7867287047808524
 20
-3.1846626898929764
 10
-1.5591527352405774
 20
-3.178858953786022
 10
-1.3308064216273245
 20
-3.172285654572224
 10
-1.1015696091288711
 20
-3.1651095007204537
 10
-0.87149717370922
 20
-3.1573895293484027
 10
-0.6407071896037597
 20
-3.149015988528052
 10
-0.40908782430762913
 20
-3.139927760564868
 10
-0.1767529909025305
 20
-3.1301290066125333
 10
0.05636258945974919
 20
-3.1198454722576106
 10
0.2901977990846796
 20
-3.1089653249952396
 10
0.5246852785472063
 20
-3.0972058626980057
 10
0.7598882261186973
 20
-3.0847358744116202
 10
0.9957580075656742
 20
-3.0717852668763306
 10
1.2322314246167547
 20
-3.058185251046424
 10
1.4693633532359556
 20
-3.043876789804208
 10
1.7071009980360985
 20
-3.0289758768082256
 10
1.945436036709831
 20
-3.0132546858950735
 10
2.184368469257143
 20
-2.99671321706475
 10
2.4238496614445526
 20
-2.979581377057503
 10
2.6638247373080497
 20
-2.961918202991024
 10
2.904348572811647
 20
-2.94366465774762
 10
3.145357969683961
 20
-2.9246519522815797
 10
3.3868570890786827
 20
-2.9049939996746055
 10
3.6288459309958125
 20
-2.8846907999266964
 10
3.871267538894493
 20
-2.863744433614695
 10
4.114115671044202
 20
-2.8419840311160467
 10
4.357394488598627
 20
-2.819523505512455
 10
4.600998400783425
 20
-2.7965948441210067
 10
4.845039240103455
 20
-2.773136929247167
 10
5.089396851746501
 20
-2.748983052422066
 10
5.334130272830249
 20
-2.724188089609714
 10
5.579125590272998
 20
-2.6987562019637936
 10
5.824441841192436
 20
-2.672742265448313
 10
6.070076945011729
 20
-2.6460893235224225
 10
6.3159190692260125
 20
-2.618858493880656
 10
6.56202933152982
 20
-2.591161609027874
 10
6.8084056513463125
 20
-2.562941712423225
 10
7.05493203501694
 20
-2.5341460086795413
 10
7.3016675196594045
 20
-2.504829373760832
 10
7.548559309886532
 20
-2.475107801325641
 10
7.795656039931804
 20
-2.444751384633723
 10
8.042847957867211
 20
-2.413878197920462
 10
8.290139224846428
 20
-2.3826021542675617
 10
8.537527760292617
 20
-2.3508662971341687
 10
8.785009403052094
 20
-2.318556713438583
 10
9.032588314278543
 20
-2.2857873162625055
 10
9.280154742043946
 20
-2.252676179841321
 10
9.527761481735466
 20
-2.219107310516487
 10
9.77535781854278
 20
-2.1852536584873965
 10
10.022937510735364
 20
-2.1509443541314983
 10
10.270498477736375
 20
-2.11612244090794
 10
10.518044880699499
 20
-2.080901831898424
 10
10.765469048273548
 20
-2.0454575578791867
 10
11.012827936999388
 20
-2.009787538273386
 10
11.260058348605632
 20
-1.973722984035311
 10
11.50716236366913
 20
-1.9373208517058116
 10
11.754139982189871
 20
-1.9005811412848888
 10
12.000993284744709
 20
-1.8635608093133929
 10
12.247606277675095
 20
-1.8262070604041554
 10
12.49403799809872
 20
-1.7885747705211874
 10
12.74023357005157
 20
-1.7507229767821801
 10
12.98625411122819
 20
-1.7127635116919948
 10
13.2319773862395
 20
-1.67447271024091
 10
13.477405475662357
 20
-1.6359075289697766
 10
13.722605738921802
 20
-1.5973506700060083
 10
13.967451779475098
 20
-1.5584645552581817
 10
14.21194151674539
 20
-1.5191922281854457
 10
14.456144390734591
 20
-1.4798733474560655
 10
14.69995064951468
 20
-1.4406259873054257
 10
14.943404766165447
 20
-1.401106327911579
 10
15.186451864722887
 20
-1.3613734063922174
 10
15.429034988646167
 20
-1.3214293033241817
 10
15.671215255629804
 20
-1.2813858512123337
 10
15.912937789709785
 20
-1.2413020871743659
 10
16.154204671462953
 20
-1.2012349677511291
 10
16.394954783194784
 20
-1.161072660437762
 10
16.635183963751594
 20
-1.1207012521525628
 10
16.8748984548639
 20
-1.0802916125180846
 10
17.114098256531705
 20
-1.0398437415343278
 10
17.352671536250146
 20
-0.9994187568958259
 10
17.59073220710092
 20
-0.9590124974488967
 10
17.82816011427182
 20
-0.9184582547246689
 10
18.06495733833967
 20
-0.8778129852639939
 10
18.30113428218868
 20
-0.8373614717711271
 10
18.53668886524202
 20
-0.7970467577052175
 10
18.771503013264287
 20
-0.7567590911382456
 10
19.005692719914038
 20
-0.7165512674573796
 10
19.239141991532723
 20
-0.6763704912754517
 10
19.47190778466119
 20
-0.6362146820156201
 10
19.703937303912284
 20
-0.5961998333364281
 10
19.93517359274514
 20
-0.5563280258147179
 10
20.165677768854298
 20
-0.5167110919553493
 10
20.395329677427533
 20
-0.4771823232894522
 10
20.624243231546544
 20
-0.4377375586633442
 10
20.85230243755279
 20
-0.39832400268985657
 10
21.07951977890731
 20
-0.3592833946140959
 10
21.305838299069272
 20
-0.32061781501290326
 10
21.53135942765931
 20
-0.2819813634874901
 10
21.755910214478043
 20
-0.24332332522752886
 10
21.9796212172219
 20
-0.20509519140614568
 10
22.202376442232335
 20
-0.1672441666361724
 10
22.42416756720199
 20
-0.12954242475420402
 10
22.644994592130846
 20
-0.09198996576024149
 10
22.864859597595775
 20
-0.05464374619513492
 10
23.083772986480948
 20
-0.01778854876314071
 10
23.301616684551007
 20
0.018685378463761306
 10
23.51849836315712
 20
0.0549530662618068
 10
23.734304109217586
 20
0.0910103534773132
 10
23.949038083886098
 20
0.1267433270285785
 10
24.162704448316322
 20
0.16203807383389998
 10
24.37529904135458
 20
0.19700850697498012
 10
24.58676490646002
 20
0.2316525458749774
 10
24.79716316132718
 20
0.2658583580290314
 10
25.006379892874364
 20
0.2996217822834592
 10
25.214465815911886
 20
0.3331157688376552
 10
25.421307017358053
 20
0.3663361565379372
 10
25.62707852798909
 20
0.39917527403312636
 10
25.83155668279529
 20
0.4315108859341559
 10
26.034855394858347
 20
0.4633471533947077
 10
26.23697258360142
 20
0.4947410329556334
 10
26.437790174789125
 20
0.5258022765449523
 10
26.6373102489983
 20
0.5564739276218132
 10
26.835648799887494
 20
0.586703190799048
 10
27.03263703841099
 20
0.6164268678052811
 10
27.228336082263322
 20
0.6455331261356522
 10
27.422682733173126
 20
0.6741907548358729
 10
27.615731867104408
 20
0.702458791023636
 10
27.807428608093137
 20
0.7302781975812482
 10
27.997772956139343
 20
0.7576489745087106
 10
28.18671419643268
 20
0.7843981716066276
 10
28.37430304378348
 20
0.8106987390743948
 10
28.560427665686877
 20
0.8364895592174771
 10
28.74514085753005
 20
0.8618866256944194
 10
28.928448861043517
 20
0.8867190688826674
 10
29.110296800263278
 20
0.9109278516645295
 10
29.29067843345879
 20
0.9346838436625584
 10
29.46959376063007
 20
0.9579870448767541
 10
29.647042781777103
 20
0.9808374553071169
 10
29.822915744971883
 20
1.0031170007182615
 10
29.99733072444979
 20
1.0247159291821688
 10
30.170220360785766
 20
1.0459169428262531
 10
30.341529778015794
 20
1.0666610045328209
 10
30.511315932680745
 20
1.086950194878715
 10
30.679526029393426
 20
1.1066685202053903
 10
30.846101031036163
 20
1.1258708564768583
 10
31.0111527701138
 20
1.144618321387651
 10
31.174573575275183
 20
1.1627358841615338
 10
31.336359285366594
 20
1.1803374578802082
 10
31.496511980964925
 20
1.1973660860028237
 10
31.655025420339605
 20
1.2139926381519326
 10
31.811903764644338
 20
1.2301032012458335
 10
31.96709005733826
 20
1.245695694707685
 10
32.12058637899824
 20
1.2607131619966352
 10
32.27244760558825
 20
1.2752146402303772
 10
32.42255774344978
 20
1.2892529247960798
 10
32.570916792582814
 20
1.3028280156937426
 10
32.71758379010504
 20
1.315885036959355
 10
32.862560816593316
 20
1.3283670320520677
 10
33.005727717235395
 20
1.3404407094407498
 10
33.14714144857213
 20
1.352108149702243
 10
33.28680825233407
 20
1.363198483213994
 10
33.42466909140351
 20
1.373766585940013
 10
33.56071980462675
 20
1.383926370962002
 10
33.695021509698336
 20
1.3935660057750998
 10
33.827462374113416
 20
1.402624372684773
 10
33.95809519325915
 20
1.4112174653495646
 10
34.08691788655869
 20
1.4194022403103264
 10
34.213873497471205
 20
1.4271766169902165
 10
34.33896618715035
 20
1.4344266823075327
 10
34.46219387501932
 20
1.4412093928031269
 10
34.583552399924386
 20
1.4476386615587002
 10
34.70304384244243
 20
1.453657532033402
 10
34.82061540718625
 20
1.4591500105686888
 10
34.93626709415589
 20
1.4641160971645606
 10
35.05004753758479
 20
1.468785698561263
 10
35.161901861508966
 20
1.4730997776411037
 10
35.27183006592841
 20
1.4770583344040826
 10
35.37983423141998
 20
1.4806044123093491
 10
35.48585740144279
 20
1.4837359307800606
 10
35.58995653253771
 20
1.4864549703930594
 10
35.69207050701022
 20
1.4888733636532065
 10
35.79220348601399
 20
1.4908771974787989
 10
35.890351308395324
 20
1.4925803849515396
 10
35.986575091848785
 20
1.4938710935665676
 10
36.08075676213896
 20
1.4948590752519013
 10
36.17295119522988
 20
1.495603367125235
 10
36.26310351515752
 20
1.4960449320688747
 10
36.35127275903958
 20
1.4961288941188116
 10
36.437397809181526
 20
1.4959670857799057
 10
36.521539783277895
 20
1.4954476745472973
 10
36.60357852651644
 20
1.4947373688898558
 10
36.68363003255573
 20
1.4937833734204136
 10
36.76158038831407
 20
1.4925815269852878
 10
36.83748655033227
 20
1.4911339101613192
 10
36.91134851861038
 20
1.489440522948509
 10
36.983164212571516
 20
1.4875583218877069
 10
37.05287875625169
 20
1.4854282698612213
 10
37.12048798849722
 20
1.4831642799507543
 10
37.18605094642578
 20
1.480711476192296
 10
37.2495085929197
 20
1.4781247345498563
 10
37.310863008555806
 20
1.4753470984825836
 10
37.370112112757276
 20
1.47243552453133
 10
37.427257986100926
 20
1.4693330561552431
 10
37.482298548009936
 20
1.4660966498951753
 10
37.5352296373306
 20
1.4628402188328276
 10
37.58599845867578
 20
1.459447769309658
 10
37.63471684455032
 20
1.4559804190201984
 10
37.68121184475482
 20
1.4524888827747773
 10
37.72565640948867
 20
1.4489224457630665
 10
37.76793662567019
 20
1.4452769468313842
 10
37.808048332145674
 20
1.4416662990614322
 10
37.84605056603285
 20
1.4380356264892016
 10
37.88188637079083
 20
1.4343828485378496
 10
37.91555158526595
 20
1.4308218782890796
 10
37.947107327152736
 20
1.4272408832380297
 10
37.97649247875664
 20
1.423751695889561
 10
38.00370912065455
 20
1.4202973597028237
 10
38.028753091692735
 20
1.4169917877595184
 10
38.05162647244805
 20
1.4137780235187947
 10
38.072384138884516
 20
1.4107151040983448
 10
38.09091217792043
 20
1.4077988683444866
 10
38.10726546551979
 20
1.4050883533749117
 10
38.12150095822344
 20
1.4025856397664613
 10
38.13350474294972
 20
1.4002865663654545
 10
38.14332961508573
 20
1.3983071268304326
 10
38.15103461174924
 20
1.396592445197387
 10
38.156501658704805
 20
1.3952522733943369
 10
38.15978563191647
 20
1.3943456485389754
 10
38.160882370230524
 20
1.3939864837130034
  0
ENDSEC
  0
SECTION
  2
OBJECTS
  0
DICTIONARY
  5
A
330
0
100
AcDbDictionary
280
0
281
1
  3
ACAD_COLOR
350
B
  3
ACAD_GROUP
350
C
  3
ACAD_LAYOUT
350
D
  3
ACAD_MATERIAL
350
E
  3
ACAD_MLEADERSTYLE
350
F
  3
ACAD_MLINESTYLE
350
10
  3
ACAD_PLOTSETTINGS
350
11
  3
ACAD_PLOTSTYLENAME
350
12
  3
ACAD_SCALELIST
350
14
  3
ACAD_TABLESTYLE
350
15
  3
ACAD_VISUALSTYLE
350
16
  3
EZDXF_META
350
2D
  0
DICTIONARY
  5
B
330
A
100
AcDbDictionary
280
0
281
1
  0
DICTIONARY
  5
C
330
A
100
AcDbDictionary
280
0
281
1
  0
DICTIONARY
  5
D
330
A
100
AcDbDictionary
280
0
281
1
  3
Model
350
1A
  3
Layout1
350
1E
  0
DICTIONARY
  5
E
330
A
100
AcDbDictionary
280
0
281
1
  3
ByBlock
350
1F
  3
ByLayer
350
20
  3
Global
350
21
  0
DICTIONARY
  5
F
330
A
100
AcDbDictionary
280
0
281
1
  3
Standard
350
2C
  0
DICTIONARY
  5
10
330
A
100
AcDbDictionary
280
0
281
1
  3
Standard
350
22
  0
DICTIONARY
  5
11
330
A
100
AcDbDictionary
280
0
281
1
  0
ACDBDICTIONARYWDFLT
  5
12
330
A
100
AcDbDictionary
280
0
281
1
  3
Normal
350
13
100
AcDbDictionaryWithDefault
340
13
  0
ACDBPLACEHOLDER
  5
13
330
12
  0
DICTIONARY
  5
14
330
A
100
AcDbDictionary
280
0
281
1
  0
DICTIONARY
  5
15
330
A
100
AcDbDictionary
280
0
281
1
  0
DICTIONARY
  5
16
330
A
100
AcDbDictionary
280
0
281
1
  0
LAYOUT
  5
1A
330
D
100
AcDbPlotSettings
  1

  4
A3
  6

 40
7.5
 41
20.0
 42
7.5
 43
20.0
 44
420.0
 45
297.0
 46
0.0
 47
0.0
 48
0.0
 49
0.0
140
0.0
141
0.0
142
1.0
143
1.0
 70
1024
 72
1
 73
0
 74
5
  7

 75
16
 76
0
 77
2
 78
300
147
1.0
148
0.0
149
0.0
100
AcDbLayout
  1
Model
 70
1
 71
0
 10
0.0
 20
0.0
 11
420.0
 21
297.0
 12
0.0
 22
0.0
 32
0.0
 14
1e+20
 24
1e+20
 34
1e+20
 15
-1e+20
 25
-1e+20
 35
-1e+20
146
0.0
 13
0.0
 23
0.0
 33
0.0
 16
1.0
 26
0.0
 36
0.0
 17
0.0
 27
1.0
 37
0.0
 76
1
330
17
  0
LAYOUT
  5
1E
330
D
100
AcDbPlotSettings
  1

  4
A3
  6

 40
7.5
 41
20.0
 42
7.5
 43
20.0
 44
420.0
 45
297.0
 46
0.0
 47
0.0
 48
0.0
 49
0.0
140
0.0
141
0.0
142
1.0
143
1.0
 70
0
 72
1
 73
0
 74
5
  7

 75
16
 76
0
 77
2
 78
300
147
1.0
148
0.0
149
0.0
100
AcDbLayout
  1
Layout1
 70
1
 71
1
 10
0.0
 20
0.0
 11
420.0
 21
297.0
 12
0.0
 22
0.0
 32
0.0
 14
1e+20
 24
1e+20
 34
1e+20
 15
-1e+20
 25
-1e+20
 35
-1e+20
146
0.0
 13
0.0
 23
0.0
 33
0.0
 16
1.0
 26
0.0
 36
0.0
 17
0.0
 27
1.0
 37
0.0
 76
1
330
1B
  0
MATERIAL
  5
1F
102
{ACAD_REACTORS
330
E
102
}
330
E
100
AcDbMaterial
  1
ByBlock
  2

 70
0
 40
1.0
 71
1
 41
1.0
 91
-1023410177
 42
1.0
 72
1
  3

 73
1
 74
1
 75
1
 44
0.5
 73
0
 45
1.0
 46
1.0
 77
1
  4

 78
1
 79
1
170
1
 48
1.0
171
1
  6

172
1
173
1
174
1
140
1.0
141
1.0
175
1
  7

176
1
177
1
178
1
143
1.0
179
1
  8

270
1
271
1
272
1
145
1.0
146
1.0
273
1
  9

274
1
275
1
276
1
 42
1.0
 72
1
  3

 73
1
 74
1
 75
1
 94
63
  0
MATERIAL
  5
20
102
{ACAD_REACTORS
330
E
102
}
330
E
100
AcDbMaterial
  1
ByLayer
  2

 70
0
 40
1.0
 71
1
 41
1.0
 91
-1023410177
 42
1.0
 72
1
  3

 73
1
 74
1
 75
1
 44
0.5
 73
0
 45
1.0
 46
1.0
 77
1
  4

 78
1
 79
1
170
1
 48
1.0
171
1
  6

172
1
173
1
174
1
140
1.0
141
1.0
175
1
  7

176
1
177
1
178
1
143
1.0
179
1
  8

270
1
271
1
272
1
145
1.0
146
1.0
273
1
  9

274
1
275
1
276
1
 42
1.0
 72
1
  3

 73
1
 74
1
 75
1
 94
63
  0
MATERIAL
  5
21
102
{ACAD_REACTORS
330
E
102
}
330
E
100
AcDbMaterial
  1
Global
  2

 70
0
 40
1.0
 71
1
 41
1.0
 91
-1023410177
 42
1.0
 72
1
  3

 73
1
 74
1
 75
1
 44
0.5
 73
0
 45
1.0
 46
1.0
 77
1
  4

 78
1
 79
1
170
1
 48
1.0
171
1
  6

172
1
173
1
174
1
140
1.0
141
1.0
175
1
  7

176
1
177
1
178
1
143
1.0
179
1
  8

270
1
271
1
272
1
145
1.0
146
1.0
273
1
  9

274
1
275
1
276
1
 42
1.0
 72
1
  3

 73
1
 74
1
 75
1
 94
63
  0
MLINESTYLE
  5
22
102
{ACAD_REACTORS
330
10
102
}
330
10
100
AcDbMlineStyle
  2
Standard
 70
0
  3

 62
256
 51
90.0
 52
90.0
 71
2
 49
0.5
 62
256
  6
BYLAYER
 49
-0.5
 62
256
  6
BYLAYER
  0
MLEADERSTYLE
  5
2C
102
{ACAD_REACTORS
330
F
102
}
330
F
100
AcDbMLeaderStyle
179
2
170
2
171
1
172
0
 90
2
 40
0.0
 41
0.0
173
1
 91
-1056964608
 92
-2
290
1
 42
2.0
291
1
 43
8.0
  3
Standard
 44
4.0
300

342
29
174
1
175
1
176
0
178
1
 93
-1056964608
 45
4.0
292
0
297
0
 46
4.0
 94
-1056964608
 47
1.0
 49
1.0
140
1.0
294
1
141
0.0
177
0
142
1.0
295
0
296
0
143
3.75
271
0
272
9
273
9
  0
DICTIONARY
  5
2D
330
A
100
AcDbDictionary
280
1
281
1
  3
CREATED_BY_EZDXF
350
2E
  3
WRITTEN_BY_EZDXF
350
32
  0
DICTIONARYVAR
  5
2E
330
2D
100
DictionaryVariables
280
0
  1
1.3.5 @ 2025-08-20T01:05:14.552132+00:00
  0
DICTIONARYVAR
  5
32
330
2D
100
DictionaryVariables
280
0
  1
1.3.5 @ 2025-08-20T01:05:14.557117+00:00
  0
ENDSEC
  0
EOF
