  0
SECTION
  2
HEADER
  9
$ACADVER
  1
AC1032
  9
$ACADMAINTVER
 90
4
  9
$DWGCODEPAGE
  3
ANSI_1252
  9
$LASTSAVEDBY
  1
ezdxf
  9
$REQUIREDVERSIONS
160
0
  9
$INSBASE
 10
0.0
 20
0.0
 30
0.0
  9
$EXTMIN
 10
1e+20
 20
1e+20
 30
1e+20
  9
$EXTMAX
 10
-1e+20
 20
-1e+20
 30
-1e+20
  9
$LIMMIN
 10
0.0
 20
0.0
  9
$LIMMAX
 10
420.0
 20
297.0
  9
$ORTHOMODE
 70
0
  9
$REGENMODE
 70
1
  9
$FILLMODE
 70
1
  9
$QTEXTMODE
 70
0
  9
$MIRRTEXT
 70
1
  9
$LTSCALE
 40
1.0
  9
$ATTMODE
 70
1
  9
$TEXTSIZE
 40
2.5
  9
$TRACEWID
 40
1.0
  9
$TEXTSTYLE
  7
Standard
  9
$CLAYER
  8
0
  9
$CELTYPE
  6
ByLayer
  9
$CECOLOR
 62
256
  9
$CELTSCALE
 40
1.0
  9
$DISPSILH
 70
0
  9
$DIMSCALE
 40
1.0
  9
$DIMASZ
 40
2.5
  9
$DIMEXO
 40
0.625
  9
$DIMDLI
 40
3.75
  9
$DIMRND
 40
0.0
  9
$DIMDLE
 40
0.0
  9
$DIMEXE
 40
1.25
  9
$DIMTP
 40
0.0
  9
$DIMTM
 40
0.0
  9
$DIMTXT
 40
2.5
  9
$DIMCEN
 40
2.5
  9
$DIMTSZ
 40
0.0
  9
$DIMTOL
 70
0
  9
$DIMLIM
 70
0
  9
$DIMTIH
 70
0
  9
$DIMTOH
 70
0
  9
$DIMSE1
 70
0
  9
$DIMSE2
 70
0
  9
$DIMTAD
 70
1
  9
$DIMZIN
 70
8
  9
$DIMBLK
  1

  9
$DIMASO
 70
1
  9
$DIMSHO
 70
1
  9
$DIMPOST
  1

  9
$DIMAPOST
  1

  9
$DIMALT
 70
0
  9
$DIMALTD
 70
3
  9
$DIMALTF
 40
0.03937007874
  9
$DIMLFAC
 40
1.0
  9
$DIMTOFL
 70
1
  9
$DIMTVP
 40
0.0
  9
$DIMTIX
 70
0
  9
$DIMSOXD
 70
0
  9
$DIMSAH
 70
0
  9
$DIMBLK1
  1

  9
$DIMBLK2
  1

  9
$DIMSTYLE
  2
ISO-25
  9
$DIMCLRD
 70
0
  9
$DIMCLRE
 70
0
  9
$DIMCLRT
 70
0
  9
$DIMTFAC
 40
1.0
  9
$DIMGAP
 40
0.625
  9
$DIMJUST
 70
0
  9
$DIMSD1
 70
0
  9
$DIMSD2
 70
0
  9
$DIMTOLJ
 70
0
  9
$DIMTZIN
 70
8
  9
$DIMALTZ
 70
0
  9
$DIMALTTZ
 70
0
  9
$DIMUPT
 70
0
  9
$DIMDEC
 70
2
  9
$DIMTDEC
 70
2
  9
$DIMALTU
 70
2
  9
$DIMALTTD
 70
3
  9
$DIMTXSTY
  7
Standard
  9
$DIMAUNIT
 70
0
  9
$DIMADEC
 70
0
  9
$DIMALTRND
 40
0.0
  9
$DIMAZIN
 70
0
  9
$DIMDSEP
 70
44
  9
$DIMATFIT
 70
3
  9
$DIMFRAC
 70
0
  9
$DIMLDRBLK
  1

  9
$DIMLUNIT
 70
2
  9
$DIMLWD
 70
-2
  9
$DIMLWE
 70
-2
  9
$DIMTMOVE
 70
0
  9
$DIMFXL
 40
1.0
  9
$DIMFXLON
 70
0
  9
$DIMJOGANG
 40
0.785398163397
  9
$DIMTFILL
 70
0
  9
$DIMTFILLCLR
 70
0
  9
$DIMARCSYM
 70
0
  9
$DIMLTYPE
  6

  9
$DIMLTEX1
  6

  9
$DIMLTEX2
  6

  9
$DIMTXTDIRECTION
 70
0
  9
$LUNITS
 70
2
  9
$LUPREC
 70
4
  9
$SKETCHINC
 40
1.0
  9
$FILLETRAD
 40
10.0
  9
$AUNITS
 70
0
  9
$AUPREC
 70
2
  9
$MENU
  1
.
  9
$ELEVATION
 40
0.0
  9
$PELEVATION
 40
0.0
  9
$THICKNESS
 40
0.0
  9
$LIMCHECK
 70
0
  9
$CHAMFERA
 40
0.0
  9
$CHAMFERB
 40
0.0
  9
$CHAMFERC
 40
0.0
  9
$CHAMFERD
 40
0.0
  9
$SKPOLY
 70
0
  9
$TDCREATE
 40
2460908.0869675926
  9
$TDUCREATE
 40
2458532.153996898
  9
$TDUPDATE
 40
2460908.0869675926
  9
$TDUUPDATE
 40
2458532.1544311
  9
$TDINDWG
 40
0.0
  9
$TDUSRTIMER
 40
0.0
  9
$USRTIMER
 70
1
  9
$ANGBASE
 50
0.0
  9
$ANGDIR
 70
0
  9
$PDMODE
 70
0
  9
$PDSIZE
 40
0.0
  9
$PLINEWID
 40
0.0
  9
$SPLFRAME
 70
0
  9
$SPLINETYPE
 70
6
  9
$SPLINESEGS
 70
8
  9
$HANDSEED
  5
33
  9
$SURFTAB1
 70
6
  9
$SURFTAB2
 70
6
  9
$SURFTYPE
 70
6
  9
$SURFU
 70
6
  9
$SURFV
 70
6
  9
$UCSBASE
  2

  9
$UCSNAME
  2

  9
$UCSORG
 10
0.0
 20
0.0
 30
0.0
  9
$UCSXDIR
 10
1.0
 20
0.0
 30
0.0
  9
$UCSYDIR
 10
0.0
 20
1.0
 30
0.0
  9
$UCSORTHOREF
  2

  9
$UCSORTHOVIEW
 70
0
  9
$UCSORGTOP
 10
0.0
 20
0.0
 30
0.0
  9
$UCSORGBOTTOM
 10
0.0
 20
0.0
 30
0.0
  9
$UCSORGLEFT
 10
0.0
 20
0.0
 30
0.0
  9
$UCSORGRIGHT
 10
0.0
 20
0.0
 30
0.0
  9
$UCSORGFRONT
 10
0.0
 20
0.0
 30
0.0
  9
$UCSORGBACK
 10
0.0
 20
0.0
 30
0.0
  9
$PUCSBASE
  2

  9
$PUCSNAME
  2

  9
$PUCSORG
 10
0.0
 20
0.0
 30
0.0
  9
$PUCSXDIR
 10
1.0
 20
0.0
 30
0.0
  9
$PUCSYDIR
 10
0.0
 20
1.0
 30
0.0
  9
$PUCSORTHOREF
  2

  9
$PUCSORTHOVIEW
 70
0
  9
$PUCSORGTOP
 10
0.0
 20
0.0
 30
0.0
  9
$PUCSORGBOTTOM
 10
0.0
 20
0.0
 30
0.0
  9
$PUCSORGLEFT
 10
0.0
 20
0.0
 30
0.0
  9
$PUCSORGRIGHT
 10
0.0
 20
0.0
 30
0.0
  9
$PUCSORGFRONT
 10
0.0
 20
0.0
 30
0.0
  9
$PUCSORGBACK
 10
0.0
 20
0.0
 30
0.0
  9
$USERI1
 70
0
  9
$USERI2
 70
0
  9
$USERI3
 70
0
  9
$USERI4
 70
0
  9
$USERI5
 70
0
  9
$USERR1
 40
0.0
  9
$USERR2
 40
0.0
  9
$USERR3
 40
0.0
  9
$USERR4
 40
0.0
  9
$USERR5
 40
0.0
  9
$WORLDVIEW
 70
1
  9
$SHADEDGE
 70
3
  9
$SHADEDIF
 70
70
  9
$TILEMODE
 70
1
  9
$MAXACTVP
 70
64
  9
$PINSBASE
 10
0.0
 20
0.0
 30
0.0
  9
$PLIMCHECK
 70
0
  9
$PEXTMIN
 10
1e+20
 20
1e+20
 30
1e+20
  9
$PEXTMAX
 10
-1e+20
 20
-1e+20
 30
-1e+20
  9
$PLIMMIN
 10
0.0
 20
0.0
  9
$PLIMMAX
 10
420.0
 20
297.0
  9
$UNITMODE
 70
0
  9
$VISRETAIN
 70
1
  9
$PLINEGEN
 70
0
  9
$PSLTSCALE
 70
1
  9
$TREEDEPTH
 70
3020
  9
$CMLSTYLE
  2
Standard
  9
$CMLJUST
 70
0
  9
$CMLSCALE
 40
20.0
  9
$PROXYGRAPHICS
 70
1
  9
$MEASUREMENT
 70
1
  9
$CELWEIGHT
370
-1
  9
$ENDCAPS
280
0
  9
$JOINSTYLE
280
0
  9
$LWDISPLAY
290
0
  9
$INSUNITS
 70
6
  9
$HYPERLINKBASE
  1

  9
$STYLESHEET
  1

  9
$XEDIT
290
1
  9
$CEPSNTYPE
380
0
  9
$PSTYLEMODE
290
1
  9
$FINGERPRINTGUID
  2
{1206AAAC-6D7D-44A5-A8EE-6CBFE1B68EF3}
  9
$VERSIONGUID
  2
{17E349A3-C3F8-4548-A61A-05EA86BC7D9B}
  9
$EXTNAMES
290
1
  9
$PSVPSCALE
 40
0.0
  9
$OLESTARTUP
290
0
  9
$SORTENTS
280
127
  9
$INDEXCTL
280
0
  9
$HIDETEXT
280
1
  9
$XCLIPFRAME
280
1
  9
$HALOGAP
280
0
  9
$OBSCOLOR
 70
257
  9
$OBSLTYPE
280
0
  9
$INTERSECTIONDISPLAY
280
0
  9
$INTERSECTIONCOLOR
 70
257
  9
$DIMASSOC
280
2
  9
$PROJECTNAME
  1

  9
$CAMERADISPLAY
290
0
  9
$LENSLENGTH
 40
50.0
  9
$CAMERAHEIGHT
 40
0.0
  9
$STEPSPERSEC
 40
24.0
  9
$STEPSIZE
 40
100.0
  9
$3DDWFPREC
 40
2.0
  9
$PSOLWIDTH
 40
0.005
  9
$PSOLHEIGHT
 40
0.08
  9
$LOFTANG1
 40
1.570796326795
  9
$LOFTANG2
 40
1.570796326795
  9
$LOFTMAG1
 40
0.0
  9
$LOFTMAG2
 40
0.0
  9
$LOFTPARAM
 70
7
  9
$LOFTNORMALS
280
1
  9
$LATITUDE
 40
37.795
  9
$LONGITUDE
 40
-122.394
  9
$NORTHDIRECTION
 40
0.0
  9
$TIMEZONE
 70
-8000
  9
$LIGHTGLYPHDISPLAY
280
1
  9
$TILEMODELIGHTSYNCH
280
1
  9
$CMATERIAL
347
20
  9
$SOLIDHIST
280
0
  9
$SHOWHIST
280
1
  9
$DWFFRAME
280
2
  9
$DGNFRAME
280
2
  9
$REALWORLDSCALE
290
1
  9
$INTERFERECOLOR
 62
256
  9
$CSHADOW
280
0
  9
$SHADOWPLANELOCATION
 40
0.0
  0
ENDSEC
  0
SECTION
  2
CLASSES
  0
CLASS
  1
ACDBDICTIONARYWDFLT
  2
AcDbDictionaryWithDefault
  3
ObjectDBX Classes
 90
0
 91
0
280
0
281
0
  0
CLASS
  1
SUN
  2
AcDbSun
  3
SCENEOE
 90
1153
 91
0
280
0
281
0
  0
CLASS
  1
VISUALSTYLE
  2
AcDbVisualStyle
  3
ObjectDBX Classes
 90
4095
 91
0
280
0
281
0
  0
CLASS
  1
MATERIAL
  2
AcDbMaterial
  3
ObjectDBX Classes
 90
1153
 91
0
280
0
281
0
  0
CLASS
  1
SCALE
  2
AcDbScale
  3
ObjectDBX Classes
 90
1153
 91
0
280
0
281
0
  0
CLASS
  1
TABLESTYLE
  2
AcDbTableStyle
  3
ObjectDBX Classes
 90
4095
 91
0
280
0
281
0
  0
CLASS
  1
MLEADERSTYLE
  2
AcDbMLeaderStyle
  3
ACDB_MLEADERSTYLE_CLASS
 90
4095
 91
0
280
0
281
0
  0
CLASS
  1
DICTIONARYVAR
  2
AcDbDictionaryVar
  3
ObjectDBX Classes
 90
0
 91
0
280
0
281
0
  0
CLASS
  1
CELLSTYLEMAP
  2
AcDbCellStyleMap
  3
ObjectDBX Classes
 90
1152
 91
0
280
0
281
0
  0
CLASS
  1
MENTALRAYRENDERSETTINGS
  2
AcDbMentalRayRenderSettings
  3
SCENEOE
 90
1024
 91
0
280
0
281
0
  0
CLASS
  1
ACDBDETAILVIEWSTYLE
  2
AcDbDetailViewStyle
  3
ObjectDBX Classes
 90
1025
 91
0
280
0
281
0
  0
CLASS
  1
ACDBSECTIONVIEWSTYLE
  2
AcDbSectionViewStyle
  3
ObjectDBX Classes
 90
1025
 91
0
280
0
281
0
  0
CLASS
  1
RASTERVARIABLES
  2
AcDbRasterVariables
  3
ISM
 90
0
 91
0
280
0
281
0
  0
CLASS
  1
LAYOUT
  2
AcDbLayout
  3
ObjectDBX Classes
 90
0
 91
0
280
0
281
0
  0
CLASS
  1
ACDBPLACEHOLDER
  2
AcDbPlaceHolder
  3
ObjectDBX Classes
 90
0
 91
0
280
0
281
0
  0
ENDSEC
  0
SECTION
  2
TABLES
  0
TABLE
  2
VPORT
  5
8
330
0
100
AcDbSymbolTable
 70
1
  0
VPORT
  5
23
330
8
100
AcDbSymbolTableRecord
100
AcDbViewportTableRecord
  2
*Active
 70
0
 10
0.0
 20
0.0
 11
1.0
 21
1.0
 12
0.0
 22
0.0
 13
0.0
 23
0.0
 14
0.5
 24
0.5
 15
0.5
 25
0.5
 16
0.0
 26
0.0
 36
1.0
 17
0.0
 27
0.0
 37
0.0
 40
1000.0
 41
1.34
 42
50.0
 43
0.0
 44
0.0
 50
0.0
 51
0.0
 71
0
 72
1000
 73
1
 74
3
 75
0
 76
0
 77
0
 78
0
281
0
 65
0
146
0.0
  0
ENDTAB
  0
TABLE
  2
LTYPE
  5
2
330
0
100
AcDbSymbolTable
 70
3
  0
LTYPE
  5
24
330
2
100
AcDbSymbolTableRecord
100
AcDbLinetypeTableRecord
  2
ByBlock
 70
0
  3

 72
65
 73
0
 40
0.0
  0
LTYPE
  5
25
330
2
100
AcDbSymbolTableRecord
100
AcDbLinetypeTableRecord
  2
ByLayer
 70
0
  3

 72
65
 73
0
 40
0.0
  0
LTYPE
  5
26
330
2
100
AcDbSymbolTableRecord
100
AcDbLinetypeTableRecord
  2
Continuous
 70
0
  3

 72
65
 73
0
 40
0.0
  0
ENDTAB
  0
TABLE
  2
LAYER
  5
1
330
0
100
AcDbSymbolTable
 70
2
  0
LAYER
  5
27
330
1
100
AcDbSymbolTableRecord
100
AcDbLayerTableRecord
  2
0
 70
0
 62
7
  6
Continuous
370
-3
390
13
347
21
  0
LAYER
  5
28
330
1
100
AcDbSymbolTableRecord
100
AcDbLayerTableRecord
  2
Defpoints
 70
0
 62
7
  6
Continuous
290
0
370
-3
390
13
347
21
  0
ENDTAB
  0
TABLE
  2
STYLE
  5
5
330
0
100
AcDbSymbolTable
 70
1
  0
STYLE
  5
29
330
5
100
AcDbSymbolTableRecord
100
AcDbTextStyleTableRecord
  2
Standard
 70
0
 40
0.0
 41
1.0
 50
0.0
 71
0
 42
2.5
  3
txt
  4

  0
ENDTAB
  0
TABLE
  2
VIEW
  5
7
330
0
100
AcDbSymbolTable
 70
0
  0
ENDTAB
  0
TABLE
  2
UCS
  5
6
330
0
100
AcDbSymbolTable
 70
0
  0
ENDTAB
  0
TABLE
  2
APPID
  5
3
330
0
100
AcDbSymbolTable
 70
3
  0
APPID
  5
2A
330
3
100
AcDbSymbolTableRecord
100
AcDbRegAppTableRecord
  2
ACAD
 70
0
  0
APPID
  5
30
330
3
100
AcDbSymbolTableRecord
100
AcDbRegAppTableRecord
  2
HATCHBACKGROUNDCOLOR
 70
0
  0
APPID
  5
31
330
3
100
AcDbSymbolTableRecord
100
AcDbRegAppTableRecord
  2
EZDXF
 70
0
  0
ENDTAB
  0
TABLE
  2
DIMSTYLE
  5
4
330
0
100
AcDbSymbolTable
 70
1
100
AcDbDimStyleTable
  0
DIMSTYLE
105
2B
330
4
100
AcDbSymbolTableRecord
100
AcDbDimStyleTableRecord
  2
Standard
 70
0
 40
1.0
 41
2.5
 42
0.625
 43
3.75
 44
1.25
 45
0.0
 46
0.0
 47
0.0
 48
0.0
 49
2.5
140
2.5
141
2.5
142
0.0
143
0.03937007874
144
1.0
145
0.0
146
1.0
147
0.625
148
0.0
 69
0
 70
0
 71
0
 72
0
 73
0
 74
0
 75
0
 76
0
 77
1
 78
8
 79
3
170
0
171
3
172
1
173
0
174
0
175
0
176
0
177
0
178
0
179
2
271
2
272
2
273
2
274
3
275
0
276
0
277
2
278
44
279
0
280
0
281
0
282
0
283
0
284
8
285
0
286
0
288
0
289
3
290
0
371
-2
372
-2
  0
ENDTAB
  0
TABLE
  2
BLOCK_RECORD
  5
9
330
0
100
AcDbSymbolTable
 70
2
  0
BLOCK_RECORD
  5
17
330
9
100
AcDbSymbolTableRecord
100
AcDbBlockTableRecord
  2
*Model_Space
340
1A
 70
0
280
1
281
0
  0
BLOCK_RECORD
  5
1B
330
9
100
AcDbSymbolTableRecord
100
AcDbBlockTableRecord
  2
*Paper_Space
340
1E
 70
0
280
1
281
0
  0
ENDTAB
  0
ENDSEC
  0
SECTION
  2
BLOCKS
  0
BLOCK
  5
18
330
17
100
AcDbEntity
  8
0
100
AcDbBlockBegin
  2
*Model_Space
 70
0
 10
0.0
 20
0.0
 30
0.0
  3
*Model_Space
  1

  0
ENDBLK
  5
19
330
17
100
AcDbEntity
  8
0
100
AcDbBlockEnd
  0
BLOCK
  5
1C
330
1B
100
AcDbEntity
  8
0
100
AcDbBlockBegin
  2
*Paper_Space
 70
0
 10
0.0
 20
0.0
 30
0.0
  3
*Paper_Space
  1

  0
ENDBLK
  5
1D
330
1B
100
AcDbEntity
  8
0
100
AcDbBlockEnd
  0
ENDSEC
  0
SECTION
  2
ENTITIES
  0
LWPOLYLINE
  5
2F
330
17
100
AcDbEntity
  8
0
100
AcDbPolyline
 90
721
 70
1
 10
37.3131842570374
 20
1.2483000570299432
 10
37.31211308002056
 20
1.2486544967145936
 10
37.30890327523886
 20
1.249606433128971
 10
37.30356229522998
 20
1.2509331009939297
 10
37.29603072240528
 20
1.2527440198146287
 10
37.286425528807555
 20
1.2548758419005352
 10
37.27468915998266
 20
1.257382395437023
 10
37.26076778774519
 20
1.2602061259698918
 10
37.2447727947347
 20
1.2633507597679672
 10
37.22665035276585
 20
1.266758742377051
 10
37.206341044250024
 20
1.270539593302302
 10
37.183959978095594
 20
1.2745856561729738
 10
37.1594514629828
 20
1.2788950678546536
 10
37.13281363577722
 20
1.2835235196671275
 10
37.10405022274768
 20
1.2883596289708226
 10
37.07315749762535
 20
1.2935147784053116
 10
37.04019301486444
 20
1.2989351397852211
 10
37.005101083145156
 20
1.3046188499761389
 10
36.967879839333094
 20
1.310621600297851
 10
36.92858870101686
 20
1.3168338712451975
 10
36.887168250607814
 20
1.3233651823233379
 10
36.84362221437483
 20
1.3301041508926994
 10
36.79805824868864
 20
1.3371658858616824
 10
36.75031114272427
 20
1.3444891065072588
 10
36.70054797044112
 20
1.3520794022326705
 10
36.64865734919958
 20
1.3599330467690893
 10
36.59469497031946
 20
1.3680519032509293
 10
36.53866083380077
 20
1.3764359716781904
 10
36.48055307650907
 20
1.3851409433706594
 10
36.42037169844436
 20
1.3941668183283358
 10
36.35812042587549
 20
1.4034022139116469
 10
36.293795532533615
 20
1.4129585127601654
 10
36.227454572872944
 20
1.4227818866885185
 10
36.15903999243928
 20
1.4329261638820798
 10
36.088555517501426
 20
1.4432799617012748
 10
36.01605311311037
 20
1.4539565259200913
 10
35.94153091613169
 20
1.4650115478583157
 10
35.86499451596861
 20
1.4762779535565875
 10
35.78638449503255
 20
1.4878652625200677
 10
35.705814099097466
 20
1.4997215096977956
 10
35.623170082389386
 20
1.511898660140731
 10
35.53856382754789
 20
1.5244004401177016
 10
35.451939643253155
 20
1.5372249864942926
 10
35.36335322082501
 20
1.5503741624049188
 10
35.272750732078066
 20
1.5637904133953795
 10
35.180187868332105
 20
1.577475602600088
 10
35.08560521199851
 20
1.5915392495242044
 10
34.989116008851305
 20
1.605929389116769
 10
34.890664567570646
 20
1.6206441582433682
 10
34.79025088815657
 20
1.635683556904002
 10
34.68787497060907
 20
1.6510475850986708
 10
34.58359064311352
 20
1.6667937972815738
 10
34.47734407748454
 20
1.682864638998512
 10
34.3691891019075
 20
1.6993176647036845
 10
34.25912757951682
 20
1.716097183077305
 10
34.147163236581356
 20
1.733091811479801
 10
34.033348038152
 20
1.750414795685158
 10
33.9176225666402
 20
1.7681756551985368
 10
33.79998682204593
 20
1.786374390019937
 10
33.68050208509221
 20
1.8048457893244116
 10
33.55916649264465
 20
1.8236455444317485
 10
33.43598004470322
 20
1.8427736553419463
 10
33.310937151864714
 20
1.862397196014366
 10
33.184047129801186
 20
1.8822377098500742
 10
33.05536194356358
 20
1.9024084426230572
 10
32.924879730017494
 20
1.9229650856531022
 10
32.792542934708734
 20
1.9439614671255816
 10
32.65846480341127
 20
1.9653456219895364
 10
32.52259150793976
 20
1.9870599957907664
 10
32.38492304829416
 20
2.0091045885292713
 10
32.24551138952548
 20
2.0315926459790385
 10
32.10436398417133
 20
2.0543014028609203
 10
31.9614214146431
 20
2.0773403786800775
 10
31.816793200445982
 20
2.100768991025123
 10
31.670479341579973
 20
2.1245872398960577
 10
31.522427872994072
 20
2.1486818795188944
 10
31.3726369315539
 20
2.1731086012134195
 10
31.22121789989902
 20
2.19787113124846
 10
31.06811136044082
 20
2.2230789891291756
 10
30.913322902582546
 20
2.2485651008962066
 10
30.756908217643968
 20
2.274331329683967
 10
30.598867305625102
 20
2.3003776754924554
 10
30.439196440257117
 20
2.326815520961247
 10
30.277895621540015
 20
2.35364486609034
 10
30.114966712608208
 20
2.3808100195599486
 10
29.95052295923568
 20
2.4082590163191133
 10
29.78445111564844
 20
2.436043821418793
 10
29.616806873166283
 20
2.464166297993403
 10
29.447651512512234
 20
2.4924612352179945
 10
29.27692747923209
 20
2.5209824612779417
 10
29.1046848752424
 20
2.5498989132670182
 10
28.930979391862948
 20
2.5792124543196375
 10
28.755703372722994
 20
2.608807975527399
 10
28.578973789865344
 20
2.6385221291997696
 10
28.400783190752357
 20
2.6685776806158965
 10
28.22113343851843
 20
2.698918938455993
 10
28.040022670029153
 20
2.729601594039845
 10
27.85751030287315
 20
2.7605161278622936
 10
27.673596337050412
 20
2.791662539923338
 10
27.48822508124115
 20
2.823038967088565
 10
27.301506054950526
 20
2.854704826946588
 10
27.113383566858758
 20
2.886658256362995
 10
26.923917034554467
 20
2.9187897358326236
 10
26.733106458037636
 20
2.9510992653554764
 10
26.541007528628054
 20
2.9835887080659655
 10
26.347562691871534
 20
3.016311892149464
 10
26.15282391281902
 20
3.0493820633799587
 10
25.956741089553976
 20
3.0826302846636766
 10
25.759479432901347
 20
3.116117836723644
 10
25.560935012759213
 20
3.149618228011889
 10
25.361105965993158
 20
3.1831871498481967
 10
25.160098085839515
 20
3.216995402460755
 10
24.957909509163873
 20
3.2510986771693497
 10
24.7544344427299
 20
3.285326173745794
 10
24.54989937808557
 20
3.3195739620881697
 10
24.344139104405926
 20
3.3537807614734483
 10
24.13725941492731
 20
3.388117372129817
 10
23.929202755195533
 20
3.4226376222426493
 10
23.720082370984564
 20
3.4572895467609857
 10
23.509848160377853
 20
3.491904208591052
 10
23.29855208842637
 20
3.5265948535068357
 10
23.086190428861297
 20
3.56147286414791
 10
22.872772497354692
 20
3.5962597839153414
 10
22.65830015704096
 20
3.6308999214893434
 10
22.442875474887618
 20
3.665675459737677
 10
22.22638893138951
 20
3.700526981071727
 10
22.00895004605178
 20
3.7355139030801077
 10
21.790569997680922
 20
3.7703020778440997
 10
21.571246923142517
 20
3.8049471966834894
 10
21.350977096167743
 20
3.83956064223785
 10
21.129754927353346
 20
3.8743094884665408
 10
20.907699251876576
 20
3.9089746963592438
 10
20.684706139635495
 20
3.9433297743679834
 10
20.46093707518623
 20
3.9775473858553623
 10
20.23627136021714
 20
4.0119022611514845
 10
20.010772138585654
 20
4.046173498111618
 10
19.784446862829444
 20
4.080138331456616
 10
19.557403189319253
 20
4.1139118700948805
 10
19.32952787228108
 20
4.147546079077368
 10
19.1009304312201
 20
4.181100375992695
 10
18.87155703795093
 20
4.214517206386658
 10
18.641467110062194
 20
4.2476870507541005
 10
18.410716338873666
 20
4.280611772229435
 10
18.179249033065567
 20
4.313289507678247
 10
17.947176575277474
 20
4.345723983369365
 10
17.7143875828698
 20
4.3779114730339606
 10
17.480989712213315
 20
4.409967085580436
 10
17.246984826442407
 20
4.441835129689003
 10
17.01238224122915
 20
4.473237148760727
 10
16.77717823030473
 20
4.5042845254351835
 10
16.541482313174296
 20
4.535036677300988
 10
16.305181244063856
 20
4.565545569409096
 10
16.068390131881824
 20
4.595703545388762
 10
15.831110839762605
 20
4.625454913920202
 10
15.593345230840617
 20
4.654743983683627
 10
15.355089578847025
 20
4.68368213731861
 10
15.116397711967213
 20
4.712326929279354
 10
14.877269630201168
 20
4.740678359565856
 10
14.637766614271923
 20
4.768571217353172
 10
14.397834835994118
 20
4.795947948187099
 10
14.157531849821938
 20
4.822754723882266
 10
13.916907757671927
 20
4.8491604815324445
 10
13.675901278821062
 20
4.875330431962584
 10
13.434627522177758
 20
4.901156918801935
 10
13.193045701497507
 20
4.926192548357792
 10
12.951144637973849
 20
4.9507714685488775
 10
12.709033851111945
 20
4.974953096963802
 10
12.466661375860829
 20
4.998624187828578
 10
12.224029075354908
 20
5.021729049823422
 10
11.98124274283053
 20
5.044438483176519
 10
11.738248550102304
 20
5.066694933433668
 10
11.495107777893269
 20
5.088333189769924
 10
11.251764734883634
 20
5.109351389050874
 10
11.008328940578565
 20
5.129808948865131
 10
10.764798531843645
 20
5.14976156053248
 10
10.52117909808211
 20
5.1690421500935635
 10
10.277468776159548
 20
5.187706408868167
 10
10.033721394261342
 20
5.205811891310492
 10
9.78987567166445
 20
5.223523808245482
 10
9.546054169814937
 20
5.240511738023247
 10
9.302256888712796
 20
5.256775680643785
 10
9.058481965223619
 20
5.272371327426884
 10
8.81472753621299
 20
5.287354369692331
 10
8.571051156135109
 20
5.30167097925475
 10
8.327395270535774
 20
5.315374984299517
 10
8.08387312518898
 20
5.3284144197756715
 10
7.840488446363543
 20
5.340677903043641
 10
7.597239370925057
 20
5.3522211254232115
 10
7.354124035739103
 20
5.363099778234169
 10
7.1111443039401
 20
5.373258170156726
 10
6.868415284436443
 20
5.382588644820139
 10
6.625877559639523
 20
5.391200721729566
 10
6.383583094600299
 20
5.399207646658994
 10
6.141485513671049
 20
5.4063290998750775
 10
5.899692473222518
 20
5.412680190286214
 10
5.658198383851472
 20
5.4184279918517655
 10
5.416953143641362
 20
5.423403567477959
 10
5.176071861500588
 20
5.427499260794047
 10
4.935550811160321
 20
5.430826454439603
 10
4.6953380275695995
 20
5.433271902640639
 10
4.455541167099176
 20
5.434950714305559
 10
4.216108264698087
 20
5.4357496436603725
 10
3.977148839871495
 20
5.435728108293696
 10
3.7385459205765814
 20
5.43504945589606
 10
3.50041461572175
 20
5.433606030096718
 10
3.262762377844659
 20
5.431175065616526
 10
3.0255873438108836
 20
5.427812253775268
 10
2.788939615536979
 20
5.423686531666719
 10
2.552821056157359
 20
5.418742207971093
 10
2.31723352880643
 20
5.412923591368601
 10
2.0822327248039842
 20
5.406232544993658
 10
1.8477592265614085
 20
5.3987785883514245
 10
1.6138649991296554
 20
5.390674967215886
 10
1.380613186366177
 20
5.38170077944231
 10
1.1480075145397934
 20
5.371744642391122
 10
0.9160442573816742
 20
5.360917938701896
 10
0.6847772430772011
 20
5.3492782228288345
 10
0.4541507803065791
 20
5.336823631637521
 10
0.22421869725518995
 20
5.323611719582156
 10
-0.0049651778916018465
 20
5.30970004111694
 10
-0.23344908391592387
 20
5.294863967828314
 10
-0.46117732949799106
 20
5.279105362850689
 10
-0.6881035389900824
 20
5.2627045459174155
 10
-0.9142796774431594
 20
5.245548271254503
 10
-1.1395924990832353
 20
5.227584573810993
 10
-1.3641533865498867
 20
5.208809727318059
 10
-1.5878509572035295
 20
5.189227458044528
 10
-1.810633245993217
 20
5.1689510117643875
 10
-2.032613498692925
 20
5.1480323535285955
 10
-2.2537267083108086
 20
5.126194889872633
 10
-2.473872671013771
 20
5.1037764949840465
 10
-2.6931108043904244
 20
5.080886688367997
 10
-2.9114856209540765
 20
5.057189458971349
 10
-3.128830046745367
 20
5.032690396197345
 10
-3.345205362487326
 20
5.007554710870931
 10
-3.560613431314361
 20
4.981838094311892
 10
-3.7750505269576493
 20
4.955429163880658
 10
-3.98840712991203
 20
4.928387337165839
 10
-4.200794622817076
 20
4.9007088878986105
 10
-4.412107212436454
 20
4.872564616307158
 10
-4.62234117250134
 20
4.843843139751908
 10
-4.8314946398773175
 20
4.814488766913075
 10
-5.039569477698802
 20
4.784557189110446
 10
-5.246513720914832
 20
4.754161652118007
 10
-5.452383060845194
 20
4.723300292801343
 10
-5.6570623885814895
 20
4.691865454789711
 10
-5.860551704123717
 20
4.659857138083109
 10
-6.06290483565725
 20
4.627217788227336
 10
-6.264067954996719
 20
4.594004959676594
 10
-6.464046651545356
 20
4.560385726390241
 10
-6.662787097117795
 20
4.526417642822479
 10
-6.860281839176382
 20
4.491877943694161
 10
-7.056586569040899
 20
4.456764765870872
 10
-7.251532349617577
 20
4.4210280074360675
 10
-7.445236152949228
 20
4.38483101608028
 10
-7.637699842170265
 20
4.348229483123296
 10
-7.828812034641114
 20
4.311227134833944
 10
-8.018570867227364
 20
4.273768279892433
 10
-8.207026441845562
 20
4.2356839812049945
 10
-8.394130519713569
 20
4.197198867185186
 10
-8.579888690234634
 20
4.158480011792367
 10
-8.764235946416896
 20
4.11925082156202
 10
-8.947227979580143
 20
4.079509433359729
 10
-9.12875713335363
 20
4.0393709560938955
 10
-9.308879099057147
 20
3.998833526630108
 10
-9.487595739825101
 20
3.9579528362881486
 10
-9.66484577493447
 20
3.916563674243075
 10
-9.84063293065408
 20
3.874777423134458
 10
-10.014957206983928
 20
3.8325940829622986
 10
-10.187826056461669
 20
3.7902364190057423
 10
-10.35912623331332
 20
3.7476524662138315
 10
-10.528963530775208
 20
3.704671424358378
 10
-10.697278531258723
 20
3.6611837739342223
 10
-10.864022995981733
 20
3.617414143354924
 10
-11.029256342532848
 20
3.5734720521256427
 10
-11.192915427054633
 20
3.529136598101646
 10
-11.354948284496123
 20
3.4845210270569207
 10
-11.51546816063131
 20
3.4396773040424256
 10
-11.674363672820613
 20
3.3946091553269895
 10
-11.8316292316608
 20
3.3491495069512487
 10
-11.987270426555103
 20
3.303465432874568
 10
-12.141289120637943
 20
3.2576126244167307
 10
-12.293683450774903
 20
3.2115353902579513
 10
-12.444397725646198
 20
3.165235593532644
 10
-12.593430082117413
 20
3.11865754292102
 10
-12.740838074642745
 20
3.0718550666084545
 10
-12.88651032058263
 20
3.024831890863773
 10
-13.030450546205884
 20
2.9776993983265494
 10
-13.17276640788326
 20
2.9303424800883846
 10
-13.3132908316554
 20
2.8827667255525165
 10
-13.452077645707673
 20
2.8349145802647477
 10
-13.589134302577733
 20
2.787008809504223
 10
-13.724460802265579
 20
2.7390494132709424
 10
-13.8579977271826
 20
2.6909268720597477
 10
-13.989743214194382
 20
2.64258549455085
 10
-14.119751091486297
 20
2.593967726290051
 10
-14.24791929209084
 20
2.5453557501451107
 10
-14.374301644193388
 20
2.4966920116618274
 10
-14.498894421525105
 20
2.4478651282006294
 10
-14.621641932766211
 20
2.3988769628959297
 10
-14.742547904185532
 20
2.349838898387301
 10
-14.86160860951424
 20
2.3006395520351712
 10
-14.978825911886751
 20
2.2513346151593256
 10
-15.094201674437473
 20
2.201979779079552
 10
-15.207676479577799
 20
2.15246552429069
 10
-15.319255916710965
 20
2.1029589247521
 10
-15.428988224619106
 20
2.053235352050221
 10
-15.536825164520085
 20
2.0035194345986143
 10
-15.642764873279498
 20
1.9537554810774922
 10
-15.746805487762924
 20
1.9038878001670685
 10
-15.848891316650574
 20
1.8539182550017566
 10
-15.94907991439665
 20
1.8039006737669296
 10
-16.047321179084616
 20
1.754003993556361
 10
-16.143611384445627
 20
1.704116831730478
 10
-16.2379505304797
 20
1.6542391882892789
 10
-16.33039617164102
 20
1.6044248914181392
 10
-16.420835062155614
 20
1.5546219760660978
 10
-16.509326619612093
 20
1.5049399617383143
 10
-16.59581887895949
 20
1.4554920942087761
 10
-16.6803675315176
 20
1.4062765103430697
 10
-16.7629131596978
 20
1.3571836906360348
 10
-16.843513317954294
 20
1.3082674632730449
 10
-16.92205662364751
 20
1.2595315545229273
 10
-16.998658185685855
 20
1.2110836207564273
 10
-17.073208484564155
 20
1.1629830795621594
 10
-17.14575948533338
 20
1.1151166851661367
 10
-17.216311187993526
 20
1.0674844375683588
 10
-17.28486359254459
 20
1.020086336768826
 10
-17.351364733935622
 20
0.9730356285415251
 10
-17.415814612166614
 20
0.926332312886456
 10
-17.478263329154117
 20
0.8798074527098453
 10
-17.538660782981584
 20
0.8336299851054662
 10
-17.596999521111357
 20
0.7875771447941725
 10
-17.65328699608109
 20
0.7418716970551108
 10
-17.707515755353132
 20
0.6962908766091342
 10
-17.75968952519631
 20
0.6509460660958162
 10
-17.809808305610627
 20
0.6058372655151566
 10
-17.857814542141877
 20
0.5609106466817825
 10
-17.90382334369846
 20
0.5162738659664402
 10
-17.947662046917777
 20
0.47176543881301014
 10
-17.98950145202802
 20
0.42749115845782487
 10
-18.029228313255192
 20
0.3833990598499251
 10
-18.06684822000255
 20
0.33965621694867065
 10
-18.102413137321037
 20
0.2961493839800749
 10
-18.135869237025286
 20
0.2529361153983376
 10
-18.16722397165295
 20
0.21023917648260526
 10
-18.196527443120583
 20
0.16788963013910496
 10
-18.223727686377217
 20
0.1260007221418231
 10
-18.248828427691677
 20
0.08468383513033283
 10
-18.27183711960162
 20
0.0441617343837813
 10
-18.29275376210705
 20
0.004434419902167424
 10
-18.31163777279658
 20
-0.034388588809348156
 10
-18.328387084702694
 20
-0.07202510888300578
 10
-18.34306484168284
 20
-0.10825423817407202
 10
-18.355745366400942
 20
-0.14252092661909463
 10
-18.36633031815832
 20
-0.1744316087107401
 10
-18.37490519842537
 20
-0.20309708646683583
 10
-18.381555508672502
 20
-0.22762816190520946
 10
-18.386214581486062
 20
-0.24668451708215497
 10
-18.388984686546177
 20
-0.2588757321374204
 10
-18.378135529585588
 20
-0.614834356447584
 10
-18.376982374654553
 20
-0.6176392142028457
 10
-18.373524772995868
 20
-0.6259980961488442
 10
-18.367770177147182
 20
-0.639688237006433
 10
-18.35963122250368
 20
-0.6596545260775711
 10
-18.34918016588226
 20
-0.6870702073466046
 10
-18.33645819895262
 20
-0.7190374690502158
 10
-18.321467387561807
 20
-0.7538280171406058
 10
-18.304343335096767
 20
-0.7907215907293753
 10
-18.285069476060386
 20
-0.8285468089665919
 10
-18.263606887342608
 20
-0.8668005868397626
 10
-18.24007626725507
 20
-0.9052081940187808
 10
-18.214429377015644
 20
-0.9435450020900874
 10
-18.186673669161976
 20
-0.9815882457745349
 10
-18.1568128699629
 20
-1.0192265424325506
 10
-18.124846979418407
 20
-1.0564598920641346
 10
-18.090833551982712
 20
-1.0932344664839133
 10
-18.05472062260484
 20
-1.1294370199179005
 10
-18.016506328150392
 20
-1.1651232436858823
 10
-17.97624822307355
 20
-1.2002393096024861
 10
-17.933886889785718
 20
-1.2348947371728711
 10
-17.889424191421295
 20
-1.2690338350772514
 10
-17.842975236888698
 20
-1.30254894694488
 10
-17.794367362825312
 20
-1.3356015573318767
 10
-17.743769506324917
 20
-1.368141564321695
 10
-17.69106842161352
 20
-1.400220932965295
 10
-17.636321663145328
 20
-1.4317858350773034
 10
-17.579531094054754
 20
-1.4627805793379334
 10
-17.52069112493856
 20
-1.493372239706545
 10
-17.45980548206556
 20
-1.523449433543565
 10
-17.39686671289811
 20
-1.5532349261281397
 10
-17.331880406839453
 20
-1.5825616435009098
 10
-17.26489852894054
 20
-1.6115428314358613
 10
-17.1958653878816
 20
-1.640176626798581
 10
-17.124777257393788
 20
-1.668574412228642
 10
-17.05169169193131
 20
-1.6966823595406715
 10
-16.976606828359756
 20
-1.7245561600544557
 10
-16.89952266667913
 20
-1.7521958137699951
 10
-16.820377926166387
 20
-1.7797665315122357
 10
-16.739285852595533
 20
-1.8072163482302184
 10
-16.6561369264614
 20
-1.8344858463353286
 10
-16.571042530403563
 20
-1.8615787520963942
 10
-16.483943246833405
 20
-1.8886045850185744
 10
-16.394894767070717
 20
-1.915565208236283
 10
-16.303843262930123
 20
-1.9424030672953196
 10
-16.21084815200024
 20
-1.969008642690525
 10
-16.11585187982686
 20
-1.9954357626072718
 10
-16.018963965915155
 20
-2.0217438446341736
 10
-15.920128718945328
 20
-2.0479310256368173
 10
-15.819346138917382
 20
-2.0739973056152023
 10
-15.716621815234564
 20
-2.099775610609969
 10
-15.61201143921665
 20
-2.1252678037555315
 10
-15.505459319543856
 20
-2.1504720219174756
 10
-15.397017421267147
 20
-2.175501510869788
 10
-15.286685744386519
 20
-2.2003562706124695
 10
-15.174471741439627
 20
-2.2248135358663723
 10
-15.06042737747743
 20
-2.248986552405485
 10
-14.944498824314554
 20
-2.2728177657756046
 10
-14.82668421881659
 20
-2.2963628672965206
 10
-14.707039252303318
 20
-2.3196237201026455
 10
-14.585565787909156
 20
-2.342544632874192
 10
-14.46226196249969
 20
-2.3651812969309476
 10
-14.337127776074917
 20
-2.3875337122729117
 10
-14.210165091769257
 20
-2.4095461875802977
 10
-14.081427737768076
 20
-2.4312762773073064
 10
-13.950915714071376
 20
-2.452723981453937
 10
-13.818575192493787
 20
-2.4738317455659895
 10
-13.684513829406054
 20
-2.494714678551865
 10
-13.548677796622801
 20
-2.515315225957363
 10
-13.41106523100962
 20
-2.5356890791022693
 10
-13.271733687020701
 20
-2.555782409801211
 10
-13.130688754059296
 20
-2.575428144094829
 10
-12.987924842722155
 20
-2.5947933559424823
 10
-12.843382535420673
 20
-2.613987564849331
 10
-12.69723076924862
 20
-2.6329606688988303
 10
-12.549361887835246
 20
-2.6515975591825773
 10
-12.39977775431497
 20
-2.669842544380787
 10
-12.248586025058536
 20
-2.6878107334018595
 10
-12.095729145611744
 20
-2.7055559544311674
 10
-11.941210842243418
 20
-2.7229668248291383
 10
-11.78508680627335
 20
-2.7400452077301853
 10
-11.62735890083595
 20
-2.756735411814522
 10
-11.468021536527978
 20
-2.7732045110415076
 10
-11.307078439618262
 20
-2.7893411227715688
 10
-11.144525883837971
 20
-2.80525662964428
 10
-10.980480841229925
 20
-2.820787683969107
 10
-10.814830066020134
 20
-2.8359862507970104
 10
-10.647629249528386
 20
-2.8508541932624034
 10
-10.478932219940052
 20
-2.865449065819486
 10
-10.308687012204174
 20
-2.879657622694271
 10
-10.13694559137171
 20
-2.8935931096607455
 10
-9.963765511896861
 20
-2.9072016985335374
 10
-9.789039117408882
 20
-2.9203682804042455
 10
-9.612877790547348
 20
-2.9330965815416965
 10
-9.435275941909008
 20
-2.94555367590525
 10
-9.256233571493876
 20
-2.957739563494907
 10
-9.075750679301944
 20
-2.9696542443106675
 10
-8.89388854605624
 20
-2.981132507527584
 10
-8.710650898025593
 20
-2.992062970506085
 10
-8.525974591352563
 20
-3.0026665353909014
 10
-8.339971008676718
 20
-3.0129469284508614
 10
-8.152588184947101
 20
-3.0227909039119787
 10
-7.963885537752329
 20
-3.032088942269093
 10
-7.773857477689159
 20
-3.0410081174815633
 10
-7.582555969808549
 20
-3.0496616753233776
 10
-7.389929049059542
 20
-3.057936370020548
 10
-7.195982304845377
 20
-3.0656651276137166
 10
-7.0008233935368
 20
-3.072963057011281
 10
-6.804450451999399
 20
-3.0798858495330306
 10
-6.6067520975936
 20
-3.086429778910136
 10
-6.407897267413175
 20
-3.0925447432260524
 10
-6.207833996407167
 20
-3.098117496706792
 10
-6.006562284575576
 20
-3.103148039352356
 10
-5.804135960103769
 20
-3.1076939256169442
 10
-5.600545707319688
 20
-3.112033612099489
 10
-5.395852806946353
 20
-3.1160018879750453
 10
-5.190009020201635
 20
-3.1193741248300517
 10
-4.983012483951118
 20
-3.1222060139842958
 10
-4.774974580834376
 20
-3.124501281706604
 10
-4.565832166993969
 20
-3.1264808301417095
 10
-4.3556446600185135
 20
-3.128035139784452
 10
-4.144412059908003
 20
-3.1291642106348325
 10
-3.9321380929312704
 20
-3.1297566600532782
 10
-3.718820895953899
 20
-3.129868179359574
 10
-3.5045681253466356
 20
-3.1296138774621216
 10
-3.289272124738735
 20
-3.1288786454525193
 10
-3.073048003038596
 20
-3.127554826960022
 10
-2.855893897111804
 20
-3.1256981133044164
 10
-2.637807943823949
 20
-3.1233641958054883
 10
-2.418736314989656
 20
-3.1204955200090376
 10
-2.1988498108371126
 20
-3.1169862926787317
 10
-1.9780946031809432
 20
-3.1127789593603716
 10
-1.7564038218948816
 20
-3.1082058048382626
 10
-1.5338907127529189
 20
-3.103214864061445
 10
-1.3106221458813139
 20
-3.0974738522456122
 10
-1.0864811492372632
 20
-3.0911461170812977
 10
-0.8615215510061277
 20
-3.084289213022701
 10
-0.6358584600963182
 20
-3.0767954836990765
 10
-0.40938235700267134
 20
-3.068605511521811
 10
-0.18220462436476045
 20
-3.05972302275973
 10
0.04573788167485667
 20
-3.0503689195575685
 10
0.2743857435275647
 20
-3.040433682410164
 10
0.5036739542015113
 20
-3.0296407178529994
 10
0.7336637944197182
 20
-3.01815523671102
 10
0.9643070254000615
 20
-3.006201867397786
 10
1.1955423664195053
 20
-2.9936153990883505
 10
1.4274236456634317
 20
-2.9803382773285136
 10
1.6598988980808718
 20
-2.966483747892263
 10
1.8929606711341755
 20
-2.951829045500451
 10
2.1266089648233497
 20
-2.936374170153078
 10
2.3607955403662495
 20
-2.9203437502637044
 10
2.5954665695775105
 20
-2.9037953402865293
 10
2.830675880642503
 20
-2.886671385767353
 10
3.0663621928381968
 20
-2.8688066758812303
 10
3.3025292324334234
 20
-2.8503125932677325
 10
3.539176999428185
 20
-2.8311891379268608
 10
3.7762498025026847
 20
-2.8114381729930287
 10
4.013742052253693
 20
-2.790892624506876
 10
4.251657474950034
 20
-2.769663875107976
 10
4.489892140489783
 20
-2.7479784163443024
 10
4.728555568378105
 20
-2.7257768306272405
 10
4.967530786572185
 20
-2.7028957702662586
 10
5.206875349526227
 20
-2.6793890634467297
 10
5.446477874600649
 20
-2.6552604364374806
 10
5.686395916249655
 20
-2.6305637174238843
 10
5.926627611338833
 20
-2.605243215086155
 10
6.167063440363025
 20
-2.5793583470129047
 10
6.407762820910843
 20
-2.553018632709294
 10
6.648723889847872
 20
-2.5261683808555366
 10
6.889833401400126
 20
-2.4987556264006723
 10
7.131148910021803
 20
-2.4708341975300745
 10
7.37261845066195
 20
-2.4425173400177305
 10
7.61429026210269
 20
-2.4135804254500792
 10
7.856056687973288
 20
-2.384138562735521
 10
8.09792145454256
 20
-2.3543031345136307
 10
8.339882698676098
 20
-2.3240184494646194
 10
8.581936694105075
 20
-2.293173124948915
 10
8.824087167098321
 20
-2.2618785436060906
 10
9.066226461285082
 20
-2.2302498143445475
 10
9.308406541716321
 20
-2.1981736913902967
 10
9.550577306475496
 20
-2.1658191118371137
 10
9.792733166159362
 20
-2.133019001725637
 10
10.034872257633506
 20
-2.099717669736081
 10
10.276998307166757
 20
-2.0660264985080183
 10
10.519005521522777
 20
-2.0321162882696364
 10
10.760949592021362
 20
-1.9979851758865212
 10
11.002769237939475
 20
-1.9634679505337271
 10
11.244466322411533
 20
-1.9286203035310399
 10
11.48604084543754
 20
-1.8934422348784603
 10
11.727494670151906
 20
-1.857989435895774
 10
11.968714550780646
 20
-1.8222099415320219
 10
12.209758041777961
 20
-1.7861575799725775
 10
12.450571314958468
 20
-1.7498899056716406
 10
12.691213787910796
 20
-1.7135164381343706
 10
12.9315666254577
 20
-1.6768181383504481
 10
13.171631690733605
 20
-1.6398506976396603
 10
13.411473990730371
 20
-1.602890709466526
 10
13.650970964001939
 20
-1.5656077521811527
 10
13.890120747413881
 20
-1.5279461344637544
 10
14.128990211092487
 20
-1.4902381410986365
 10
14.367471698666998
 20
-1.4525988809941992
 10
14.605609722650717
 20
-1.4146923430973106
 10
14.843350454858275
 20
-1.3765760818621695
 10
15.080638203969894
 20
-1.3382519604231895
 10
15.317532387574179
 20
-1.2998294982855305
 10
15.55397917748575
 20
-1.261366249903393
 10
15.789980436839036
 20
-1.2229179065965632
 10
16.025476748045406
 20
-1.1843749488598816
 10
16.260464384836048
 20
-1.1456259940537747
 10
16.494948936614197
 20
-1.1068381161376024
 10
16.728930403379856
 20
-1.068011315111365
 10
16.962299265627856
 20
-1.029205008563676
 10
17.195166905997773
 20
-0.9904154702257076
 10
17.427416352446812
 20
-0.9514793524069279
 10
17.65904946810936
 20
-0.9124523464271235
 10
17.89007556865749
 20
-0.8736129088852272
 10
18.120492790956806
 20
-0.8349053484614523
 10
18.35018602609889
 20
-0.7962220087850523
 10
18.579268519857738
 20
-0.7576148549069873
 10
18.807627026459365
 20
-0.7190319217762974
 10
19.035317237223534
 20
-0.6804713462585699
 10
19.26228718709932
 20
-0.6420463741277901
 10
19.488481184766915
 20
-0.6037588685183728
 10
19.713958647814945
 20
-0.5657183489354767
 10
19.938602604200575
 20
-0.52776146768857
 10
20.162524436563398
 20
-0.4898844985088245
 10
20.38561089912943
 20
-0.4520354763452815
 10
20.607873170705137
 20
-0.41454854911666017
 10
20.829255559970733
 20
-0.3774255799573743
 10
21.049858270759326
 20
-0.3403286946798774
 10
21.269512365977125
 20
-0.3032077913676225
 10
21.488344133339027
 20
-0.26650467431007635
 10
21.70624032707103
 20
-0.23016737845627944
 10
21.923193494635495
 20
-0.19397313852708417
 10
22.139203636032406
 20
-0.15792195452249183
 10
22.354272614396194
 20
-0.12206951776228825
 10
22.568409745398906
 20
-0.08669428484540691
 10
22.781499920132163
 20
-0.051688599401101216
 10
22.993648931832286
 20
-0.0168816612011845
 10
23.2047453978597
 20
0.017722803485516116
 10
23.414793044483233
 20
0.0520134120194275
 10
23.623795597971725
 20
0.08587878176097676
 10
23.831749332056336
 20
0.1194302953497369
 10
24.038598555417277
 20
0.1526660896512939
 10
24.244402685643163
 20
0.18547664516048856
 10
24.44905034009443
 20
0.21785823560849407
 10
24.652591620687623
 20
0.24997979808908358
 10
24.854915144783156
 20
0.2818376063334299
 10
25.056191712609223
 20
0.3133258671052004
 10
25.256202285155513
 20
0.34432574522716797
 10
25.45505824506159
 20
0.37484096696815955
 10
25.65275772919304
 20
0.40492722364796185
 10
25.849185628641465
 20
0.4346921716373208
 10
26.044343806541274
 20
0.46408011961645024
 10
26.238345508666466
 20
0.4930391025343901
 10
26.431025524192087
 20
0.5215078396681138
 10
26.62244327070674
 20
0.549376811512461
 10
26.812537467487424
 20
0.5768112288923787
 10
27.001361942719488
 20
0.6038686462620664
 10
27.188862868217562
 20
0.6304915091673242
 10
27.37504024398166
 20
0.6566798176081523
 10
27.55984396809523
 20
0.6822646344907775
 10
27.74332414247481
 20
0.7074148969089726
 10
27.92537124761524
 20
0.7320711872741243
 10
28.106037248567485
 20
0.7563467513602192
 10
28.285327734734796
 20
0.7800745152078977
 10
28.46318887793179
 20
0.8031969243629598
 10
28.63961508875521
 20
0.8258810527847646
 10
28.814606367205084
 20
0.8481269004733132
 10
28.9881627132814
 20
0.8699344674286046
 10
29.16017647061341
 20
0.8911886447422391
 10
29.33076274810952
 20
0.9117817760434704
 10
29.499856538777873
 20
0.9319904547968183
 10
29.667404014433092
 20
0.9517571265480821
 10
29.83346086639497
 20
0.9710836544316759
 10
29.997975129612538
 20
0.9898567926736128
 10
30.1608892496316
 20
1.0081303694592654
 10
30.32231274595732
 20
1.025963802377248
 10
30.482139825353364
 20
1.0431862911993734
 10
30.6403667615509
 20
1.059909218565215
 10
30.796995417684354
 20
1.0760768931549867
 10
30.952020204350475
 20
1.0918563889280473
 10
31.10544484781808
 20
1.107136323244824
 10
31.257213656767405
 20
1.1219148329709034
 10
31.40732849433285
 20
1.1361362267864992
 10
31.555843188699793
 20
1.149858059145811
 10
31.702644494094248
 20
1.1631322950997987
 10
31.847732410516194
 20
1.1759589346484616
 10
31.99116449241986
 20
1.1882841496064278
 10
32.13294260293967
 20
1.2000522486539107
 10
32.27294977003277
 20
1.2114265794814416
 10
32.41124168501894
 20
1.2224090052234349
 10
32.54782393730148
 20
1.2328324519205314
 10
32.68263897242615
 20
1.242750747758103
 10
32.81568306412412
 20
1.252275275375724
 10
32.94701562998402
 20
1.2612965152682345
 10
33.07652715050068
 20
1.26975504984702
 10
33.204269590725076
 20
1.2777641248860685
 10
33.33024108752276
 20
1.2853794317051652
 10
33.45438594957396
 20
1.2925991071698977
 10
33.57670790314754
 20
1.299311768640693
 10
33.69720508510903
 20
1.3055731074373365
 10
33.81587376918964
 20
1.3114945061994026
 10
33.93271581852378
 20
1.317020273607104
 10
34.04767926806047
 20
1.3220371638864539
 10
34.16076411779974
 20
1.3265451770374532
 10
34.27201860652367
 20
1.3307689414736608
 10
34.38138890604695
 20
1.3346509027408775
 10
34.488875016369555
 20
1.3381910608391023
 10
34.594478800625886
 20
1.3413337244485493
 10
34.698144567496165
 20
1.3440770304348049
 10
34.79992800830017
 20
1.3464228419322823
 10
34.89976970544931
 20
1.3484806784461414
 10
34.9976733852124
 20
1.3501391573368098
 10
35.0936353213206
 20
1.3515096612438593
 10
35.18771493136255
 20
1.3524826706621311
 10
35.27979710642984
 20
1.3531658419623716
 10
35.36993567470783
 20
1.3536167295987798
 10
35.45807680801115
 20
1.3537777791171566
 10
35.54427806079402
 20
1.3535951623321287
 10
35.628480015467794
 20
1.3531783987488555
 10
35.710742089621114
 20
1.3524179688621776
 10
35.790947311211156
 20
1.351477220362628
 10
35.8692089260119
 20
1.3503041881992461
 10
35.945415551383796
 20
1.3488951461032066
 10
36.019622878646594
 20
1.3472519572089217
 10
36.09183090780032
 20
1.3453746215163915
 10
36.162037775710566
 20
1.3433188303454033
 10
36.230189654191925
 20
1.3410270292417559
 10
36.29628281697561
 20
1.3386106008450238
 10
36.3603748185158
 20
1.3360157169698332
 10
36.4224081043583
 20
1.333296205801557
 10
36.482384537637515
 20
1.330396376020409
 10
36.540302255219046
 20
1.3273719189461757
 10
36.596163120237286
 20
1.3241671432590703
 10
36.64996526955784
 20
1.32083774027888
 10
36.701704976911884
 20
1.3174950926451776
 10
36.75133027724844
 20
1.314025954583976
 10
36.7989506900727
 20
1.31048974368389
 10
36.844397278290835
 20
1.3069365618614641
 10
36.88783897899667
 20
1.3033163072001535
 10
36.929164409550616
 20
1.299625253431131
 10
36.96836984368384
 20
1.2959747831939692
 10
37.00551283585054
 20
1.2923110683032952
 10
37.04053769473093
 20
1.2886322456246957
 10
37.07344069405621
 20
1.2850496977977446
 10
37.10428125141495
 20
1.281453905317281
 10
37.132999949218565
 20
1.2779543876884651
 10
37.15959865060147
 20
1.2744954535915103
 10
37.18407362929481
 20
1.2711884856659899
 10
37.20642674843304
 20
1.2679777925921174
 10
37.2267118362015
 20
1.2649209288240923
 10
37.244817509960626
 20
1.2620141680930883
 10
37.2607975978958
 20
1.2593150648533056
 10
37.27470779132679
 20
1.256825482239157
 10
37.286436707614044
 20
1.2545416939818155
 10
37.296036311808514
 20
1.252576945855269
 10
37.303564158364395
 20
1.250877409674143
 10
37.308905138373284
 20
1.2495507418091842
 10
37.31211308002056
 20
1.2486544967145936
 10
37.3131842570374
 20
1.2483000570299432
  0
ENDSEC
  0
SECTION
  2
OBJECTS
  0
DICTIONARY
  5
A
330
0
100
AcDbDictionary
280
0
281
1
  3
ACAD_COLOR
350
B
  3
ACAD_GROUP
350
C
  3
ACAD_LAYOUT
350
D
  3
ACAD_MATERIAL
350
E
  3
ACAD_MLEADERSTYLE
350
F
  3
ACAD_MLINESTYLE
350
10
  3
ACAD_PLOTSETTINGS
350
11
  3
ACAD_PLOTSTYLENAME
350
12
  3
ACAD_SCALELIST
350
14
  3
ACAD_TABLESTYLE
350
15
  3
ACAD_VISUALSTYLE
350
16
  3
EZDXF_META
350
2D
  0
DICTIONARY
  5
B
330
A
100
AcDbDictionary
280
0
281
1
  0
DICTIONARY
  5
C
330
A
100
AcDbDictionary
280
0
281
1
  0
DICTIONARY
  5
D
330
A
100
AcDbDictionary
280
0
281
1
  3
Model
350
1A
  3
Layout1
350
1E
  0
DICTIONARY
  5
E
330
A
100
AcDbDictionary
280
0
281
1
  3
ByBlock
350
1F
  3
ByLayer
350
20
  3
Global
350
21
  0
DICTIONARY
  5
F
330
A
100
AcDbDictionary
280
0
281
1
  3
Standard
350
2C
  0
DICTIONARY
  5
10
330
A
100
AcDbDictionary
280
0
281
1
  3
Standard
350
22
  0
DICTIONARY
  5
11
330
A
100
AcDbDictionary
280
0
281
1
  0
ACDBDICTIONARYWDFLT
  5
12
330
A
100
AcDbDictionary
280
0
281
1
  3
Normal
350
13
100
AcDbDictionaryWithDefault
340
13
  0
ACDBPLACEHOLDER
  5
13
330
12
  0
DICTIONARY
  5
14
330
A
100
AcDbDictionary
280
0
281
1
  0
DICTIONARY
  5
15
330
A
100
AcDbDictionary
280
0
281
1
  0
DICTIONARY
  5
16
330
A
100
AcDbDictionary
280
0
281
1
  0
LAYOUT
  5
1A
330
D
100
AcDbPlotSettings
  1

  4
A3
  6

 40
7.5
 41
20.0
 42
7.5
 43
20.0
 44
420.0
 45
297.0
 46
0.0
 47
0.0
 48
0.0
 49
0.0
140
0.0
141
0.0
142
1.0
143
1.0
 70
1024
 72
1
 73
0
 74
5
  7

 75
16
 76
0
 77
2
 78
300
147
1.0
148
0.0
149
0.0
100
AcDbLayout
  1
Model
 70
1
 71
0
 10
0.0
 20
0.0
 11
420.0
 21
297.0
 12
0.0
 22
0.0
 32
0.0
 14
1e+20
 24
1e+20
 34
1e+20
 15
-1e+20
 25
-1e+20
 35
-1e+20
146
0.0
 13
0.0
 23
0.0
 33
0.0
 16
1.0
 26
0.0
 36
0.0
 17
0.0
 27
1.0
 37
0.0
 76
1
330
17
  0
LAYOUT
  5
1E
330
D
100
AcDbPlotSettings
  1

  4
A3
  6

 40
7.5
 41
20.0
 42
7.5
 43
20.0
 44
420.0
 45
297.0
 46
0.0
 47
0.0
 48
0.0
 49
0.0
140
0.0
141
0.0
142
1.0
143
1.0
 70
0
 72
1
 73
0
 74
5
  7

 75
16
 76
0
 77
2
 78
300
147
1.0
148
0.0
149
0.0
100
AcDbLayout
  1
Layout1
 70
1
 71
1
 10
0.0
 20
0.0
 11
420.0
 21
297.0
 12
0.0
 22
0.0
 32
0.0
 14
1e+20
 24
1e+20
 34
1e+20
 15
-1e+20
 25
-1e+20
 35
-1e+20
146
0.0
 13
0.0
 23
0.0
 33
0.0
 16
1.0
 26
0.0
 36
0.0
 17
0.0
 27
1.0
 37
0.0
 76
1
330
1B
  0
MATERIAL
  5
1F
102
{ACAD_REACTORS
330
E
102
}
330
E
100
AcDbMaterial
  1
ByBlock
  2

 70
0
 40
1.0
 71
1
 41
1.0
 91
-1023410177
 42
1.0
 72
1
  3

 73
1
 74
1
 75
1
 44
0.5
 73
0
 45
1.0
 46
1.0
 77
1
  4

 78
1
 79
1
170
1
 48
1.0
171
1
  6

172
1
173
1
174
1
140
1.0
141
1.0
175
1
  7

176
1
177
1
178
1
143
1.0
179
1
  8

270
1
271
1
272
1
145
1.0
146
1.0
273
1
  9

274
1
275
1
276
1
 42
1.0
 72
1
  3

 73
1
 74
1
 75
1
 94
63
  0
MATERIAL
  5
20
102
{ACAD_REACTORS
330
E
102
}
330
E
100
AcDbMaterial
  1
ByLayer
  2

 70
0
 40
1.0
 71
1
 41
1.0
 91
-1023410177
 42
1.0
 72
1
  3

 73
1
 74
1
 75
1
 44
0.5
 73
0
 45
1.0
 46
1.0
 77
1
  4

 78
1
 79
1
170
1
 48
1.0
171
1
  6

172
1
173
1
174
1
140
1.0
141
1.0
175
1
  7

176
1
177
1
178
1
143
1.0
179
1
  8

270
1
271
1
272
1
145
1.0
146
1.0
273
1
  9

274
1
275
1
276
1
 42
1.0
 72
1
  3

 73
1
 74
1
 75
1
 94
63
  0
MATERIAL
  5
21
102
{ACAD_REACTORS
330
E
102
}
330
E
100
AcDbMaterial
  1
Global
  2

 70
0
 40
1.0
 71
1
 41
1.0
 91
-1023410177
 42
1.0
 72
1
  3

 73
1
 74
1
 75
1
 44
0.5
 73
0
 45
1.0
 46
1.0
 77
1
  4

 78
1
 79
1
170
1
 48
1.0
171
1
  6

172
1
173
1
174
1
140
1.0
141
1.0
175
1
  7

176
1
177
1
178
1
143
1.0
179
1
  8

270
1
271
1
272
1
145
1.0
146
1.0
273
1
  9

274
1
275
1
276
1
 42
1.0
 72
1
  3

 73
1
 74
1
 75
1
 94
63
  0
MLINESTYLE
  5
22
102
{ACAD_REACTORS
330
10
102
}
330
10
100
AcDbMlineStyle
  2
Standard
 70
0
  3

 62
256
 51
90.0
 52
90.0
 71
2
 49
0.5
 62
256
  6
BYLAYER
 49
-0.5
 62
256
  6
BYLAYER
  0
MLEADERSTYLE
  5
2C
102
{ACAD_REACTORS
330
F
102
}
330
F
100
AcDbMLeaderStyle
179
2
170
2
171
1
172
0
 90
2
 40
0.0
 41
0.0
173
1
 91
-1056964608
 92
-2
290
1
 42
2.0
291
1
 43
8.0
  3
Standard
 44
4.0
300

342
29
174
1
175
1
176
0
178
1
 93
-1056964608
 45
4.0
292
0
297
0
 46
4.0
 94
-1056964608
 47
1.0
 49
1.0
140
1.0
294
1
141
0.0
177
0
142
1.0
295
0
296
0
143
3.75
271
0
272
9
273
9
  0
DICTIONARY
  5
2D
330
A
100
AcDbDictionary
280
1
281
1
  3
CREATED_BY_EZDXF
350
2E
  3
WRITTEN_BY_EZDXF
350
32
  0
DICTIONARYVAR
  5
2E
330
2D
100
DictionaryVariables
280
0
  1
1.3.5 @ 2025-08-20T01:05:14.584435+00:00
  0
DICTIONARYVAR
  5
32
330
2D
100
DictionaryVariables
280
0
  1
1.3.5 @ 2025-08-20T01:05:14.590420+00:00
  0
ENDSEC
  0
EOF
