  0
SECTION
  2
HEADER
  9
$ACADVER
  1
AC1032
  9
$ACADMAINTVER
 90
4
  9
$DWGCODEPAGE
  3
ANSI_1252
  9
$LASTSAVEDBY
  1
ezdxf
  9
$REQUIREDVERSIONS
160
0
  9
$INSBASE
 10
0.0
 20
0.0
 30
0.0
  9
$EXTMIN
 10
1e+20
 20
1e+20
 30
1e+20
  9
$EXTMAX
 10
-1e+20
 20
-1e+20
 30
-1e+20
  9
$LIMMIN
 10
0.0
 20
0.0
  9
$LIMMAX
 10
420.0
 20
297.0
  9
$ORTHOMODE
 70
0
  9
$REGENMODE
 70
1
  9
$FILLMODE
 70
1
  9
$QTEXTMODE
 70
0
  9
$MIRRTEXT
 70
1
  9
$LTSCALE
 40
1.0
  9
$ATTMODE
 70
1
  9
$TEXTSIZE
 40
2.5
  9
$TRACEWID
 40
1.0
  9
$TEXTSTYLE
  7
Standard
  9
$CLAYER
  8
0
  9
$CELTYPE
  6
ByLayer
  9
$CECOLOR
 62
256
  9
$CELTSCALE
 40
1.0
  9
$DISPSILH
 70
0
  9
$DIMSCALE
 40
1.0
  9
$DIMASZ
 40
2.5
  9
$DIMEXO
 40
0.625
  9
$DIMDLI
 40
3.75
  9
$DIMRND
 40
0.0
  9
$DIMDLE
 40
0.0
  9
$DIMEXE
 40
1.25
  9
$DIMTP
 40
0.0
  9
$DIMTM
 40
0.0
  9
$DIMTXT
 40
2.5
  9
$DIMCEN
 40
2.5
  9
$DIMTSZ
 40
0.0
  9
$DIMTOL
 70
0
  9
$DIMLIM
 70
0
  9
$DIMTIH
 70
0
  9
$DIMTOH
 70
0
  9
$DIMSE1
 70
0
  9
$DIMSE2
 70
0
  9
$DIMTAD
 70
1
  9
$DIMZIN
 70
8
  9
$DIMBLK
  1

  9
$DIMASO
 70
1
  9
$DIMSHO
 70
1
  9
$DIMPOST
  1

  9
$DIMAPOST
  1

  9
$DIMALT
 70
0
  9
$DIMALTD
 70
3
  9
$DIMALTF
 40
0.03937007874
  9
$DIMLFAC
 40
1.0
  9
$DIMTOFL
 70
1
  9
$DIMTVP
 40
0.0
  9
$DIMTIX
 70
0
  9
$DIMSOXD
 70
0
  9
$DIMSAH
 70
0
  9
$DIMBLK1
  1

  9
$DIMBLK2
  1

  9
$DIMSTYLE
  2
ISO-25
  9
$DIMCLRD
 70
0
  9
$DIMCLRE
 70
0
  9
$DIMCLRT
 70
0
  9
$DIMTFAC
 40
1.0
  9
$DIMGAP
 40
0.625
  9
$DIMJUST
 70
0
  9
$DIMSD1
 70
0
  9
$DIMSD2
 70
0
  9
$DIMTOLJ
 70
0
  9
$DIMTZIN
 70
8
  9
$DIMALTZ
 70
0
  9
$DIMALTTZ
 70
0
  9
$DIMUPT
 70
0
  9
$DIMDEC
 70
2
  9
$DIMTDEC
 70
2
  9
$DIMALTU
 70
2
  9
$DIMALTTD
 70
3
  9
$DIMTXSTY
  7
Standard
  9
$DIMAUNIT
 70
0
  9
$DIMADEC
 70
0
  9
$DIMALTRND
 40
0.0
  9
$DIMAZIN
 70
0
  9
$DIMDSEP
 70
44
  9
$DIMATFIT
 70
3
  9
$DIMFRAC
 70
0
  9
$DIMLDRBLK
  1

  9
$DIMLUNIT
 70
2
  9
$DIMLWD
 70
-2
  9
$DIMLWE
 70
-2
  9
$DIMTMOVE
 70
0
  9
$DIMFXL
 40
1.0
  9
$DIMFXLON
 70
0
  9
$DIMJOGANG
 40
0.785398163397
  9
$DIMTFILL
 70
0
  9
$DIMTFILLCLR
 70
0
  9
$DIMARCSYM
 70
0
  9
$DIMLTYPE
  6

  9
$DIMLTEX1
  6

  9
$DIMLTEX2
  6

  9
$DIMTXTDIRECTION
 70
0
  9
$LUNITS
 70
2
  9
$LUPREC
 70
4
  9
$SKETCHINC
 40
1.0
  9
$FILLETRAD
 40
10.0
  9
$AUNITS
 70
0
  9
$AUPREC
 70
2
  9
$MENU
  1
.
  9
$ELEVATION
 40
0.0
  9
$PELEVATION
 40
0.0
  9
$THICKNESS
 40
0.0
  9
$LIMCHECK
 70
0
  9
$CHAMFERA
 40
0.0
  9
$CHAMFERB
 40
0.0
  9
$CHAMFERC
 40
0.0
  9
$CHAMFERD
 40
0.0
  9
$SKPOLY
 70
0
  9
$TDCREATE
 40
2460908.0869675926
  9
$TDUCREATE
 40
2458532.153996898
  9
$TDUPDATE
 40
2460908.0869675926
  9
$TDUUPDATE
 40
2458532.1544311
  9
$TDINDWG
 40
0.0
  9
$TDUSRTIMER
 40
0.0
  9
$USRTIMER
 70
1
  9
$ANGBASE
 50
0.0
  9
$ANGDIR
 70
0
  9
$PDMODE
 70
0
  9
$PDSIZE
 40
0.0
  9
$PLINEWID
 40
0.0
  9
$SPLFRAME
 70
0
  9
$SPLINETYPE
 70
6
  9
$SPLINESEGS
 70
8
  9
$HANDSEED
  5
33
  9
$SURFTAB1
 70
6
  9
$SURFTAB2
 70
6
  9
$SURFTYPE
 70
6
  9
$SURFU
 70
6
  9
$SURFV
 70
6
  9
$UCSBASE
  2

  9
$UCSNAME
  2

  9
$UCSORG
 10
0.0
 20
0.0
 30
0.0
  9
$UCSXDIR
 10
1.0
 20
0.0
 30
0.0
  9
$UCSYDIR
 10
0.0
 20
1.0
 30
0.0
  9
$UCSORTHOREF
  2

  9
$UCSORTHOVIEW
 70
0
  9
$UCSORGTOP
 10
0.0
 20
0.0
 30
0.0
  9
$UCSORGBOTTOM
 10
0.0
 20
0.0
 30
0.0
  9
$UCSORGLEFT
 10
0.0
 20
0.0
 30
0.0
  9
$UCSORGRIGHT
 10
0.0
 20
0.0
 30
0.0
  9
$UCSORGFRONT
 10
0.0
 20
0.0
 30
0.0
  9
$UCSORGBACK
 10
0.0
 20
0.0
 30
0.0
  9
$PUCSBASE
  2

  9
$PUCSNAME
  2

  9
$PUCSORG
 10
0.0
 20
0.0
 30
0.0
  9
$PUCSXDIR
 10
1.0
 20
0.0
 30
0.0
  9
$PUCSYDIR
 10
0.0
 20
1.0
 30
0.0
  9
$PUCSORTHOREF
  2

  9
$PUCSORTHOVIEW
 70
0
  9
$PUCSORGTOP
 10
0.0
 20
0.0
 30
0.0
  9
$PUCSORGBOTTOM
 10
0.0
 20
0.0
 30
0.0
  9
$PUCSORGLEFT
 10
0.0
 20
0.0
 30
0.0
  9
$PUCSORGRIGHT
 10
0.0
 20
0.0
 30
0.0
  9
$PUCSORGFRONT
 10
0.0
 20
0.0
 30
0.0
  9
$PUCSORGBACK
 10
0.0
 20
0.0
 30
0.0
  9
$USERI1
 70
0
  9
$USERI2
 70
0
  9
$USERI3
 70
0
  9
$USERI4
 70
0
  9
$USERI5
 70
0
  9
$USERR1
 40
0.0
  9
$USERR2
 40
0.0
  9
$USERR3
 40
0.0
  9
$USERR4
 40
0.0
  9
$USERR5
 40
0.0
  9
$WORLDVIEW
 70
1
  9
$SHADEDGE
 70
3
  9
$SHADEDIF
 70
70
  9
$TILEMODE
 70
1
  9
$MAXACTVP
 70
64
  9
$PINSBASE
 10
0.0
 20
0.0
 30
0.0
  9
$PLIMCHECK
 70
0
  9
$PEXTMIN
 10
1e+20
 20
1e+20
 30
1e+20
  9
$PEXTMAX
 10
-1e+20
 20
-1e+20
 30
-1e+20
  9
$PLIMMIN
 10
0.0
 20
0.0
  9
$PLIMMAX
 10
420.0
 20
297.0
  9
$UNITMODE
 70
0
  9
$VISRETAIN
 70
1
  9
$PLINEGEN
 70
0
  9
$PSLTSCALE
 70
1
  9
$TREEDEPTH
 70
3020
  9
$CMLSTYLE
  2
Standard
  9
$CMLJUST
 70
0
  9
$CMLSCALE
 40
20.0
  9
$PROXYGRAPHICS
 70
1
  9
$MEASUREMENT
 70
1
  9
$CELWEIGHT
370
-1
  9
$ENDCAPS
280
0
  9
$JOINSTYLE
280
0
  9
$LWDISPLAY
290
0
  9
$INSUNITS
 70
6
  9
$HYPERLINKBASE
  1

  9
$STYLESHEET
  1

  9
$XEDIT
290
1
  9
$CEPSNTYPE
380
0
  9
$PSTYLEMODE
290
1
  9
$FINGERPRINTGUID
  2
{421C5679-6CAF-4FE4-A7D7-E6FD3F455210}
  9
$VERSIONGUID
  2
{6BC63F00-8244-41DF-9DBD-98336B116DE5}
  9
$EXTNAMES
290
1
  9
$PSVPSCALE
 40
0.0
  9
$OLESTARTUP
290
0
  9
$SORTENTS
280
127
  9
$INDEXCTL
280
0
  9
$HIDETEXT
280
1
  9
$XCLIPFRAME
280
1
  9
$HALOGAP
280
0
  9
$OBSCOLOR
 70
257
  9
$OBSLTYPE
280
0
  9
$INTERSECTIONDISPLAY
280
0
  9
$INTERSECTIONCOLOR
 70
257
  9
$DIMASSOC
280
2
  9
$PROJECTNAME
  1

  9
$CAMERADISPLAY
290
0
  9
$LENSLENGTH
 40
50.0
  9
$CAMERAHEIGHT
 40
0.0
  9
$STEPSPERSEC
 40
24.0
  9
$STEPSIZE
 40
100.0
  9
$3DDWFPREC
 40
2.0
  9
$PSOLWIDTH
 40
0.005
  9
$PSOLHEIGHT
 40
0.08
  9
$LOFTANG1
 40
1.570796326795
  9
$LOFTANG2
 40
1.570796326795
  9
$LOFTMAG1
 40
0.0
  9
$LOFTMAG2
 40
0.0
  9
$LOFTPARAM
 70
7
  9
$LOFTNORMALS
280
1
  9
$LATITUDE
 40
37.795
  9
$LONGITUDE
 40
-122.394
  9
$NORTHDIRECTION
 40
0.0
  9
$TIMEZONE
 70
-8000
  9
$LIGHTGLYPHDISPLAY
280
1
  9
$TILEMODELIGHTSYNCH
280
1
  9
$CMATERIAL
347
20
  9
$SOLIDHIST
280
0
  9
$SHOWHIST
280
1
  9
$DWFFRAME
280
2
  9
$DGNFRAME
280
2
  9
$REALWORLDSCALE
290
1
  9
$INTERFERECOLOR
 62
256
  9
$CSHADOW
280
0
  9
$SHADOWPLANELOCATION
 40
0.0
  0
ENDSEC
  0
SECTION
  2
CLASSES
  0
CLASS
  1
ACDBDICTIONARYWDFLT
  2
AcDbDictionaryWithDefault
  3
ObjectDBX Classes
 90
0
 91
0
280
0
281
0
  0
CLASS
  1
SUN
  2
AcDbSun
  3
SCENEOE
 90
1153
 91
0
280
0
281
0
  0
CLASS
  1
VISUALSTYLE
  2
AcDbVisualStyle
  3
ObjectDBX Classes
 90
4095
 91
0
280
0
281
0
  0
CLASS
  1
MATERIAL
  2
AcDbMaterial
  3
ObjectDBX Classes
 90
1153
 91
0
280
0
281
0
  0
CLASS
  1
SCALE
  2
AcDbScale
  3
ObjectDBX Classes
 90
1153
 91
0
280
0
281
0
  0
CLASS
  1
TABLESTYLE
  2
AcDbTableStyle
  3
ObjectDBX Classes
 90
4095
 91
0
280
0
281
0
  0
CLASS
  1
MLEADERSTYLE
  2
AcDbMLeaderStyle
  3
ACDB_MLEADERSTYLE_CLASS
 90
4095
 91
0
280
0
281
0
  0
CLASS
  1
DICTIONARYVAR
  2
AcDbDictionaryVar
  3
ObjectDBX Classes
 90
0
 91
0
280
0
281
0
  0
CLASS
  1
CELLSTYLEMAP
  2
AcDbCellStyleMap
  3
ObjectDBX Classes
 90
1152
 91
0
280
0
281
0
  0
CLASS
  1
MENTALRAYRENDERSETTINGS
  2
AcDbMentalRayRenderSettings
  3
SCENEOE
 90
1024
 91
0
280
0
281
0
  0
CLASS
  1
ACDBDETAILVIEWSTYLE
  2
AcDbDetailViewStyle
  3
ObjectDBX Classes
 90
1025
 91
0
280
0
281
0
  0
CLASS
  1
ACDBSECTIONVIEWSTYLE
  2
AcDbSectionViewStyle
  3
ObjectDBX Classes
 90
1025
 91
0
280
0
281
0
  0
CLASS
  1
RASTERVARIABLES
  2
AcDbRasterVariables
  3
ISM
 90
0
 91
0
280
0
281
0
  0
CLASS
  1
LAYOUT
  2
AcDbLayout
  3
ObjectDBX Classes
 90
0
 91
0
280
0
281
0
  0
CLASS
  1
ACDBPLACEHOLDER
  2
AcDbPlaceHolder
  3
ObjectDBX Classes
 90
0
 91
0
280
0
281
0
  0
ENDSEC
  0
SECTION
  2
TABLES
  0
TABLE
  2
VPORT
  5
8
330
0
100
AcDbSymbolTable
 70
1
  0
VPORT
  5
23
330
8
100
AcDbSymbolTableRecord
100
AcDbViewportTableRecord
  2
*Active
 70
0
 10
0.0
 20
0.0
 11
1.0
 21
1.0
 12
0.0
 22
0.0
 13
0.0
 23
0.0
 14
0.5
 24
0.5
 15
0.5
 25
0.5
 16
0.0
 26
0.0
 36
1.0
 17
0.0
 27
0.0
 37
0.0
 40
1000.0
 41
1.34
 42
50.0
 43
0.0
 44
0.0
 50
0.0
 51
0.0
 71
0
 72
1000
 73
1
 74
3
 75
0
 76
0
 77
0
 78
0
281
0
 65
0
146
0.0
  0
ENDTAB
  0
TABLE
  2
LTYPE
  5
2
330
0
100
AcDbSymbolTable
 70
3
  0
LTYPE
  5
24
330
2
100
AcDbSymbolTableRecord
100
AcDbLinetypeTableRecord
  2
ByBlock
 70
0
  3

 72
65
 73
0
 40
0.0
  0
LTYPE
  5
25
330
2
100
AcDbSymbolTableRecord
100
AcDbLinetypeTableRecord
  2
ByLayer
 70
0
  3

 72
65
 73
0
 40
0.0
  0
LTYPE
  5
26
330
2
100
AcDbSymbolTableRecord
100
AcDbLinetypeTableRecord
  2
Continuous
 70
0
  3

 72
65
 73
0
 40
0.0
  0
ENDTAB
  0
TABLE
  2
LAYER
  5
1
330
0
100
AcDbSymbolTable
 70
2
  0
LAYER
  5
27
330
1
100
AcDbSymbolTableRecord
100
AcDbLayerTableRecord
  2
0
 70
0
 62
7
  6
Continuous
370
-3
390
13
347
21
  0
LAYER
  5
28
330
1
100
AcDbSymbolTableRecord
100
AcDbLayerTableRecord
  2
Defpoints
 70
0
 62
7
  6
Continuous
290
0
370
-3
390
13
347
21
  0
ENDTAB
  0
TABLE
  2
STYLE
  5
5
330
0
100
AcDbSymbolTable
 70
1
  0
STYLE
  5
29
330
5
100
AcDbSymbolTableRecord
100
AcDbTextStyleTableRecord
  2
Standard
 70
0
 40
0.0
 41
1.0
 50
0.0
 71
0
 42
2.5
  3
txt
  4

  0
ENDTAB
  0
TABLE
  2
VIEW
  5
7
330
0
100
AcDbSymbolTable
 70
0
  0
ENDTAB
  0
TABLE
  2
UCS
  5
6
330
0
100
AcDbSymbolTable
 70
0
  0
ENDTAB
  0
TABLE
  2
APPID
  5
3
330
0
100
AcDbSymbolTable
 70
3
  0
APPID
  5
2A
330
3
100
AcDbSymbolTableRecord
100
AcDbRegAppTableRecord
  2
ACAD
 70
0
  0
APPID
  5
30
330
3
100
AcDbSymbolTableRecord
100
AcDbRegAppTableRecord
  2
HATCHBACKGROUNDCOLOR
 70
0
  0
APPID
  5
31
330
3
100
AcDbSymbolTableRecord
100
AcDbRegAppTableRecord
  2
EZDXF
 70
0
  0
ENDTAB
  0
TABLE
  2
DIMSTYLE
  5
4
330
0
100
AcDbSymbolTable
 70
1
100
AcDbDimStyleTable
  0
DIMSTYLE
105
2B
330
4
100
AcDbSymbolTableRecord
100
AcDbDimStyleTableRecord
  2
Standard
 70
0
 40
1.0
 41
2.5
 42
0.625
 43
3.75
 44
1.25
 45
0.0
 46
0.0
 47
0.0
 48
0.0
 49
2.5
140
2.5
141
2.5
142
0.0
143
0.03937007874
144
1.0
145
0.0
146
1.0
147
0.625
148
0.0
 69
0
 70
0
 71
0
 72
0
 73
0
 74
0
 75
0
 76
0
 77
1
 78
8
 79
3
170
0
171
3
172
1
173
0
174
0
175
0
176
0
177
0
178
0
179
2
271
2
272
2
273
2
274
3
275
0
276
0
277
2
278
44
279
0
280
0
281
0
282
0
283
0
284
8
285
0
286
0
288
0
289
3
290
0
371
-2
372
-2
  0
ENDTAB
  0
TABLE
  2
BLOCK_RECORD
  5
9
330
0
100
AcDbSymbolTable
 70
2
  0
BLOCK_RECORD
  5
17
330
9
100
AcDbSymbolTableRecord
100
AcDbBlockTableRecord
  2
*Model_Space
340
1A
 70
0
280
1
281
0
  0
BLOCK_RECORD
  5
1B
330
9
100
AcDbSymbolTableRecord
100
AcDbBlockTableRecord
  2
*Paper_Space
340
1E
 70
0
280
1
281
0
  0
ENDTAB
  0
ENDSEC
  0
SECTION
  2
BLOCKS
  0
BLOCK
  5
18
330
17
100
AcDbEntity
  8
0
100
AcDbBlockBegin
  2
*Model_Space
 70
0
 10
0.0
 20
0.0
 30
0.0
  3
*Model_Space
  1

  0
ENDBLK
  5
19
330
17
100
AcDbEntity
  8
0
100
AcDbBlockEnd
  0
BLOCK
  5
1C
330
1B
100
AcDbEntity
  8
0
100
AcDbBlockBegin
  2
*Paper_Space
 70
0
 10
0.0
 20
0.0
 30
0.0
  3
*Paper_Space
  1

  0
ENDBLK
  5
1D
330
1B
100
AcDbEntity
  8
0
100
AcDbBlockEnd
  0
ENDSEC
  0
SECTION
  2
ENTITIES
  0
LWPOLYLINE
  5
2F
330
17
100
AcDbEntity
  8
0
100
AcDbPolyline
 90
721
 70
1
 10
48.702766624649925
 20
3.6986986354596625
 10
48.701346858297214
 20
3.699102581866079
 10
48.69709860013053
 20
3.700169039692418
 10
48.69004393193277
 20
3.7016072461528613
 10
48.680099122116026
 20
3.7035570621945926
 10
48.66742611341039
 20
3.705811456619699
 10
48.651946694673676
 20
3.7084375996789083
 10
48.63359369565517
 20
3.711357280230044
 10
48.61251249774776
 20
3.7145815391645525
 10
48.58863593070072
 20
3.718032165340256
 10
48.56188026292616
 20
3.7218490197043392
 10
48.53240191670841
 20
3.7258977617553404
 10
48.500128201351046
 20
3.730172871047538
 10
48.46505359640833
 20
3.734747038277384
 10
48.42718914277172
 20
3.739474882051971
 10
48.38652379954975
 20
3.744501783764206
 10
48.34313577788461
 20
3.7497605731633614
 10
48.29695238707984
 20
3.7552457298037107
 10
48.24796810668972
 20
3.761029944381709
 10
48.19626666830217
 20
3.7669733559501735
 10
48.141764340329246
 20
3.773215825456285
 10
48.08447216366245
 20
3.7796119715071392
 10
48.02452447880318
 20
3.7863182163870897
 10
47.96170873410785
 20
3.7932453080625113
 10
47.896243001665795
 20
3.8004098078705777
 10
47.827981900084126
 20
3.807800674919837
 10
47.75699812005926
 20
3.8154234296560148
 10
47.68329166159125
 20
3.823278072079115
 10
47.60685700423433
 20
3.8314372928855875
 10
47.52769414798852
 20
3.839901092075433
 10
47.44581413374526
 20
3.8485240882557443
 10
47.3612059206131
 20
3.857451662819429
 10
47.27394771973422
 20
3.866616645515757
 10
47.18396131996645
 20
3.876086206595459
 10
47.091257762201245
 20
3.8857149646656266
 10
46.995898696243586
 20
3.8956538215648924
 10
46.897878601647754
 20
3.9059754679897103
 10
46.79721403975094
 20
3.916461831850718
 10
46.69382127896524
 20
3.9272527740951007
 10
46.58785122112927
 20
3.938286644917851
 10
46.4791529644044
 20
3.949625094123975
 10
46.367871890183544
 20
3.9612791626049226
 10
46.25393530777024
 20
3.9732433299149683
 10
46.13741590786096
 20
3.985523116499837
 10
46.01824652020497
 20
3.9980403112173493
 10
45.8964998354987
 20
4.01080043451323
 10
45.77209212215428
 20
4.023943347334664
 10
45.64517428201031
 20
4.037407399876646
 10
45.515673624370365
 20
4.051187071693451
 10
45.383590149234436
 20
4.065282362785079
 10
45.24892385660251
 20
4.07969327315153
 10
45.11174191672535
 20
4.0944980139349845
 10
44.971977159352186
 20
4.109618373993261
 10
44.82969675473377
 20
4.125132564468539
 10
44.684906223315814
 20
4.140967894664365
 10
44.53761660598978
 20
4.156978983187831
 10
44.38788955256069
 20
4.173316731877568
 10
44.23564133144059
 20
4.190121001680762
 10
44.08087194262951
 20
4.207391792597413
 10
43.92367063816109
 20
4.224916552983881
 10
43.76403189758959
 20
4.242767973536622
 10
43.60195572091501
 20
4.260946054255634
 10
43.437425546800185
 20
4.279668867230283
 10
43.270468977473726
 20
4.298572958978296
 10
43.10114766274064
 20
4.3178092313383045
 10
42.92945608215522
 20
4.337450375006765
 10
42.755316024575265
 20
4.357563560234406
 10
42.57887839183942
 20
4.378087137216225
 10
42.40007601369695
 20
4.398942894810039
 10
42.21890889014786
 20
4.42013083301585
 10
42.035438670997166
 20
4.441801853672294
 10
41.849687438027736
 20
4.463665193993547
 10
41.6615714596517
 20
4.485860714926799
 10
41.4712305968162
 20
4.50847214805995
 10
41.27866484952127
 20
4.531499493393002
 10
41.08381256796191
 20
4.55479184908732
 10
40.88666823169238
 20
4.578421905839362
 10
40.687377222105596
 20
4.602400704540572
 10
40.48585580761363
 20
4.626868106138137
 10
40.28212054955369
 20
4.651606038542695
 10
40.076244138622215
 20
4.676620022199968
 10
39.868226574819204
 20
4.701910057109957
 10
39.65805681725321
 20
4.727621524665571
 10
39.445734865924244
 20
4.75375442486681
 10
39.231266241278014
 20
4.78023606701722
 10
39.01480184515316
 20
4.807004801311795
 10
38.79619077571103
 20
4.83412227755554
 10
38.575505723648114
 20
4.8615940161941795
 10
38.35283594099803
 20
4.889207465584075
 10
38.12810321661857
 20
4.917029795975956
 10
37.901363679869036
 20
4.945284599904911
 10
37.6726900214459
 20
4.973977397816666
 10
37.44194790084769
 20
5.00295176742686
 10
37.20929926080446
 20
5.03200067753758
 10
36.97472201953336
 20
5.061414890934646
 10
36.73822169748007
 20
5.091121716921598
 10
36.49979277419889
 20
5.121193846194896
 10
36.25951898127772
 20
5.151491417807353
 10
36.017400318716575
 20
5.1820144317589705
 10
35.77336409581898
 20
5.212757367604021
 10
35.52755017353212
 20
5.243803956930411
 10
35.279885861159535
 20
5.275148679292415
 10
35.03045489028916
 20
5.306651673742849
 10
34.77925726092096
 20
5.33831294028171
 10
34.5263656637514
 20
5.370137999354727
 10
34.27170188763832
 20
5.402194021212627
 10
34.015327582386675
 20
5.434631907694045
 10
33.75718661863726
 20
5.467228066263893
 10
33.49749154803364
 20
5.500071748955796
 10
33.23611907096587
 20
5.532861152092492
 10
32.97306366698817
 20
5.56566896637043
 10
32.7084541561563
 20
5.5987243047704265
 10
32.44228501802454
 20
5.632099857988935
 10
32.174427432537165
 20
5.665566513045143
 10
31.905183203371394
 20
5.699000970329038
 10
31.634339778883643
 20
5.732313977806994
 10
31.362025979129605
 20
5.765734648459822
 10
31.08816359296713
 20
5.799330152538253
 10
30.81290352223486
 20
5.833038840237282
 10
30.53618963757347
 20
5.866637119021819
 10
30.258083588788
 20
5.900275890730498
 10
29.978574334986995
 20
5.93410053675623
 10
29.69768947839907
 20
5.96774760361674
 10
29.415434539469963
 20
6.001144400615574
 10
29.131927297363944
 20
6.034665422126454
 10
28.847027891133838
 20
6.068226936561478
 10
28.560876181726822
 20
6.101912675508546
 10
28.273505291817273
 20
6.135286494788935
 10
27.98490970095942
 20
6.168421085099095
 10
27.69507836826185
 20
6.201461827831939
 10
27.403994732387368
 20
6.234626795076828
 10
27.11182625651179
 20
6.267636264939394
 10
26.81844964102511
 20
6.30018843374237
 10
26.524066396679512
 20
6.332517934912293
 10
26.228503539853463
 20
6.364977181039985
 10
25.931855843026323
 20
6.397280929785356
 10
25.634145387980983
 20
6.429138418362584
 10
25.335506515218903
 20
6.460706069056028
 10
25.035788322901457
 20
6.492045531670693
 10
24.735130671975824
 20
6.523240537794487
 10
24.43346639219126
 20
6.5542128762852245
 10
24.1308792151357
 20
6.584822686195725
 10
23.827441831505578
 20
6.615075487971713
 10
23.523081550604438
 20
6.6449657611674615
 10
23.217943753825196
 20
6.674504546674421
 10
22.91188305977494
 20
6.703680803601142
 10
22.605033808955138
 20
6.732650954231986
 10
22.2974015218115
 20
6.761342307870494
 10
21.989013800572664
 20
6.789391411034393
 10
21.67985960434717
 20
6.816943645116594
 10
21.37007879408221
 20
6.8440827417050025
 10
21.05952046793914
 20
6.87087035060462
 10
20.748341048202327
 20
6.897172131313989
 10
20.436546055317503
 20
6.922915393136654
 10
20.12414100973037
 20
6.94802744537616
 10
19.8111148705495
 20
6.972653669425416
 10
19.497534808025616
 20
6.996872276426603
 10
19.18340082215871
 20
7.020683266379719
 10
18.868802164982416
 20
7.043874087641125
 10
18.55367166624602
 20
7.066366529068645
 10
18.238087537091676
 20
7.088093420411544
 10
17.922105906878684
 20
7.109278354204912
 10
17.605637523573392
 20
7.13013388209239
 10
17.28883880946019
 20
7.150525663572518
 10
16.971681237408394
 20
7.16986665262793
 10
16.65413168474367
 20
7.188592993437359
 10
16.3363300124132
 20
7.206788417588707
 10
16.018214570611974
 20
7.2243020232433395
 10
15.699790879785725
 20
7.241061119704803
 10
15.381187759990183
 20
7.257294819953908
 10
15.062338040974614
 20
7.272924912848479
 10
14.743330974772647
 20
7.2877388467448725
 10
14.424093870687837
 20
7.301731101197367
 10
14.104766589667369
 20
7.314985407793867
 10
13.785343611265505
 20
7.327574457230822
 10
13.465841496819433
 20
7.339280177418875
 10
13.146254725883418
 20
7.350175259054476
 10
12.826650468708197
 20
7.360337913279805
 10
12.506939473260136
 20
7.369980691738502
 10
12.187300243606492
 20
7.378678491143288
 10
11.867732779747271
 20
7.386431311494163
 10
11.548231561236742
 20
7.393311843487582
 10
11.228791067629185
 20
7.399392777819998
 10
10.909489510066777
 20
7.404606944240682
 10
10.59024867740734
 20
7.409021513000366
 10
10.271219471489507
 20
7.412574834294042
 10
9.952412933204723
 20
7.415121526728801
 10
9.633823542107276
 20
7.416734281001099
 10
9.315445777751426
 20
7.417485787807387
 10
8.997285160582914
 20
7.4173033564512165
 10
8.679498112886078
 20
7.4160526464311225
 10
8.362000903073033
 20
7.41387351869429
 10
8.044855180948772
 20
7.410916875079354
 10
7.728015858045471
 20
7.406813741658319
 10
7.411617274864589
 20
7.401720540715539
 10
7.095642870068948
 20
7.395855344340379
 10
6.780036514299272
 20
7.388994559997753
 10
6.464954629839916
 20
7.3810038471862
 10
6.150386175799432
 20
7.372028587298628
 10
5.836269502372815
 20
7.361917878496403
 10
5.5227389500615205
 20
7.350828143063884
 10
5.209732869060555
 20
7.3386084791624375
 10
4.897391120317093
 20
7.325342618379968
 10
4.58555176110105
 20
7.311237591914388
 10
4.274371213696794
 20
7.296159059264238
 10
3.9638715598872136
 20
7.279816257643703
 10
3.6540472792265883
 20
7.262281877749232
 10
3.3449545010742026
 20
7.243779512115917
 10
3.036598745875777
 20
7.224236470047303
 10
2.728985534077033
 20
7.203580060846935
 10
2.4221875563744364
 20
7.181815804960537
 10
2.11612108118007
 20
7.159083563335295
 10
1.8108477582989437
 20
7.135534237809839
 10
1.5064623602104152
 20
7.110882586044082
 10
1.2029759278059369
 20
7.084983226645109
 10
0.9003774201940455
 20
7.057981541005831
 10
0.5987340076254823
 20
7.029955740268427
 10
0.2979729994037849
 20
7.000900303987174
 10
-0.001838434220305274
 20
6.970893443304249
 10
-0.30063312299607164
 20
6.940013369361832
 10
-0.5984616758370607
 20
6.907963798928381
 10
-0.8952514020468207
 20
6.874750252449619
 10
-1.1909572131575228
 20
6.840741703853543
 10
-1.485640758974166
 20
6.805787251301522
 10
-1.779151137658122
 20
6.7698252449885485
 10
-2.0716337306022985
 20
6.732844644023174
 10
-2.362943156413784
 20
6.694856489296849
 10
-2.6530177652875806
 20
6.656011682648203
 10
-2.9420084590623117
 20
6.616371873882247
 10
-3.2298149448129063
 20
6.575579129962429
 10
-3.5163249638208023
 20
6.534080635958926
 10
-3.801622247673896
 20
6.492016252818924
 10
-4.0857463643943035
 20
6.44894431591797
 10
-4.368479241892661
 20
6.404881386593239
 10
-4.649910132202592
 20
6.360040016488368
 10
-4.930044555769823
 20
6.314492896299812
 10
-5.208871471702902
 20
6.268094644634664
 10
-5.4862510190546505
 20
6.2209289930808245
 10
-5.7623285792179715
 20
6.172984900746849
 10
-6.036975332137132
 20
6.124491480613547
 10
-6.310180236920687
 20
6.075303351288009
 10
-6.581937773122903
 20
6.0253478220737815
 10
-6.852253461189513
 20
5.9746975836673215
 10
-7.121065651315509
 20
5.923503537907257
 10
-7.388447034197341
 20
5.871760164347869
 10
-7.654241187550656
 20
5.819333122487695
 10
-7.918448111375452
 20
5.7662224123267345
 10
-8.181134975922456
 20
5.7123498227228096
 10
-8.442234610940945
 20
5.657793564818098
 10
-8.701763577768084
 20
5.6027717107019654
 10
-8.959654706153152
 20
5.54736247151659
 10
-9.215885914313246
 20
5.491275084476154
 10
-9.47052989294482
 20
5.434504029134931
 10
-9.723363049512788
 20
5.3769931761336425
 10
-9.974547326747226
 20
5.318949556670202
 10
-10.224088245093872
 20
5.260445861441063
 10
-10.4718404231598
 20
5.201493131337679
 10
-10.717798340499302
 20
5.142018675663589
 10
-10.962018126471648
 20
5.081798901883709
 10
-11.204449172163283
 20
5.021130093229581
 10
-11.445108038911386
 20
4.9602303217905686
 10
-11.683894433790874
 20
4.898741654530125
 10
-11.920881047498199
 20
4.836658571002522
 10
-12.155933539531912
 20
4.77413749349212
 10
-12.38912460058846
 20
4.711172901553196
 10
-12.620459751113566
 20
4.647837485882203
 10
-12.849849739073603
 20
4.583918694835501
 10
-13.077305605360024
 20
4.519561909806
 10
-13.302827349972826
 20
4.454767130793701
 10
-13.526437054694904
 20
4.389825120584421
 10
-13.747983817687633
 20
4.324674229373157
 10
-13.967596459006739
 20
4.259085344179091
 10
-14.185191247064322
 20
4.192918604055044
 10
-14.400717572946832
 20
4.126470292232557
 10
-14.61425916824216
 20
4.059880269658812
 10
-14.825721260470962
 20
3.9928632939937194
 10
-15.035042199828235
 20
3.9255702670759107
 10
-15.2423728881526
 20
3.8580628387103912
 10
-15.44756794405116
 20
3.790352049788612
 10
-15.650610806186737
 20
3.7222198282212045
 10
-15.851518035896506
 20
3.6538842460975394
 10
-16.050295153626188
 20
3.5854179941140654
 10
-16.246936638930062
 20
3.5167483815743315
 10
-16.441369801111673
 20
3.4478809289240617
 10
-16.633589119725297
 20
3.3787429454667985
 10
-16.823672805913105
 20
3.309401601453277
 10
-17.0114754782822
 20
3.239867937774942
 10
-17.197008177724022
 20
3.1702873358247046
 10
-17.38040524474004
 20
3.100503373318206
 10
-17.561448607240884
 20
3.03053261159262
 10
-17.740205435477282
 20
2.9602968395057676
 10
-17.916697811232137
 20
2.8900868198434675
 10
-18.090925734505444
 20
2.819902552605719
 10
-18.2628054737093
 20
2.7496041768453385
 10
-18.432331508397994
 20
2.6791190018658706
 10
-18.599571008822238
 20
2.608368816525136
 10
-18.76440619581775
 20
2.5377281151968574
 10
-18.926904239635267
 20
2.467118686738855
 10
-19.087054099383334
 20
2.39639514975822
 10
-19.24478308436549
 20
2.3255630247006773
 10
-19.400102235473202
 20
2.2547676929591356
 10
-19.553000511815004
 20
2.183863773140686
 10
-19.703483433836634
 20
2.1129239559417834
 10
-19.851556521983806
 20
2.042020932058881
 10
-19.99713604466862
 20
1.9710148405447958
 10
-20.140238563228248
 20
1.9001237534888915
 10
-20.280914686576253
 20
1.829051387659624
 10
-20.41911380579906
 20
1.7580940262885374
 10
-20.554830400450975
 20
1.687178978679176
 10
-20.688058950086248
 20
1.6162335541350854
 10
-20.81872676400844
 20
1.5452632731019917
 10
-20.946912053359707
 20
1.4743353058306234
 10
-21.0725586887808
 20
1.4036732448560698
 10
-21.195655629380248
 20
1.3331317087854213
 10
-21.31620287515805
 20
1.2627106976186775
 10
-21.434278637256405
 20
1.1924773816065692
 10
-21.549732013836664
 20
1.1223701109440904
 10
-21.662646736486728
 20
1.0525287465784265
 10
-21.772961155401596
 20
0.9831041903482107
 10
-21.880747961277724
 20
0.9140909218077196
 10
-21.985923422527204
 20
0.845349080009767
 10
-22.08856575029223
 20
0.7769458352050834
 10
-22.188529563179873
 20
0.708892228285119
 10
-22.2859712834745
 20
0.6413225997513325
 10
-22.380751050228923
 20
0.5743206811916287
 10
-22.472930513248155
 20
0.5077355707673733
 10
-22.562509672532194
 20
0.44156726847856637
 10
-22.64948852808103
 20
0.3758157743252085
 10
-22.733805430089667
 20
0.3106319901459326
 10
-22.815460378558104
 20
0.24601591594073904
 10
-22.894509502845626
 20
0.1817439591745395
 10
-22.970896673592943
 20
0.11803971238242257
 10
-23.044599809017157
 20
0.05461241277856932
 10
-23.115640990901177
 20
-0.008247176851201582
 10
-23.18399813746209
 20
-0.07082981929270879
 10
-23.249682289591355
 20
-0.13299013315304287
 10
-23.312693447288975
 20
-0.194728118432204
 10
-23.37295339941276
 20
-0.2561109453809224
 10
-23.430618568247073
 20
-0.3170042734977371
 10
-23.48545432036538
 20
-0.37760961353483913
 10
-23.53768976874849
 20
-0.43779814543649315
 10
-23.587174011557774
 20
-0.4976315190077038
 10
-23.633923610130402
 20
-0.5568916621591075
 10
-23.678000214271375
 20
-0.615729476729338
 10
-23.719336653729975
 20
-0.6740667515762163
 10
-23.757955010289084
 20
-0.7316127239139234
 10
-23.793911413307995
 20
-0.7885909862775482
 10
-23.8271442129817
 20
-0.8448506368284563
 10
-23.85766445020165
 20
-0.9002462941737389
 10
-23.88549420675074
 20
-0.9544871955275762
 10
-23.91063348262897
 20
-1.0075733408899694
 10
-23.93316600942424
 20
-1.0593648693137332
 10
-23.952974007972273
 20
-1.1094872864251444
 10
-23.970152250752413
 20
-1.1576553498841093
 10
-23.98482863291837
 20
-1.2031476731718058
 10
-23.9968964161973
 20
-1.2454443805216013
 10
-24.006516618417248
 20
-1.2833879412359448
 10
-24.01385025740627
 20
-1.3158208246172869
 10
-24.01888444246884
 20
-1.3409874130592645
 10
-24.02182987544452
 20
-1.357075959596235
 10
-23.987929830051456
 20
-1.821747089106998
 10
-23.98626716408686
 20
-1.8253494261574212
 10
-23.981284686638812
 20
-1.8360837466122355
 10
-23.9730044794902
 20
-1.8536592876856224
 10
-23.96126000436725
 20
-1.8793062707715869
 10
-23.946080713302663
 20
-1.9145622413871273
 10
-23.927680978777655
 20
-1.9556417628708742
 10
-23.906159243913237
 20
-2.0002859031870077
 10
-23.881732655896737
 20
-2.047560724173066
 10
-23.85444445339192
 20
-2.0959342007577746
 10
-23.82427162971385
 20
-2.144746596227318
 10
-23.79138716848405
 20
-2.1936454979908704
 10
-23.755740460788978
 20
-2.2423346228168906
 10
-23.717353588411516
 20
-2.290523207919557
 10
-23.676237592243137
 20
-2.338065871905963
 10
-23.632392472283815
 20
-2.384962614776106
 10
-23.585896439675746
 20
-2.4311462662792582
 10
-23.53668784461392
 20
-2.4764659245767837
 10
-23.48476116665261
 20
-2.5209942803651386
 10
-23.430194616933996
 20
-2.564664163393592
 10
-23.372904463870174
 20
-2.607615434609329
 10
-23.312896227906876
 20
-2.6497754033158945
 10
-23.250326331328452
 20
-2.6910097290118293
 10
-23.184960140708366
 20
-2.731519922449323
 10
-23.117021248581707
 20
-2.771249854269094
 10
-23.046358753109843
 20
-2.810261174276149
 10
-22.97305086543495
 20
-2.8484867122197577
 10
-22.897103106002753
 20
-2.8858537774034647
 10
-22.818498913476084
 20
-2.922580441916635
 10
-22.737249328746387
 20
-2.9585213243663584
 10
-22.65333227003076
 20
-2.993967187538454
 10
-22.566764298666378
 20
-3.028699959343558
 10
-22.477607064458255
 20
-3.0628705416203035
 10
-22.385787876709927
 20
-3.0964734139229666
 10
-22.291295694529957
 20
-3.1296539576444573
 10
-22.194208729060506
 20
-3.1623450025340443
 10
-22.09452145985587
 20
-3.1946192392881825
 10
-21.99223388691603
 20
-3.226476667906873
 10
-21.88725675820737
 20
-3.258129840033754
 10
-21.779740975568522
 20
-3.289517105863821
 10
-21.66954667805229
 20
-3.3205547338091685
 10
-21.5568192470516
 20
-3.351253764761248
 10
-21.44147495097854
 20
-3.381754059667242
 10
-21.323586480529567
 20
-3.412061138972877
 10
-21.20308666545395
 20
-3.4420967915359726
 10
-21.080059237339587
 20
-3.4717211564093446
 10
-20.954425985044303
 20
-3.5010014038437225
 10
-20.826326769515287
 20
-3.5300212654270102
 10
-20.695688900056084
 20
-3.5587752207134837
 10
-20.56251237666668
 20
-3.5872632697031426
 10
-20.42681376068428
 20
-3.6152673403066227
 10
-20.2886657428053
 20
-3.642792952969649
 10
-20.14799563233331
 20
-3.6698345872464966
 10
-20.004865079073305
 20
-3.696543144975799
 10
-19.859274083025298
 20
-3.7229186261575578
 10
-19.711244725972172
 20
-3.7486702680059523
 10
-19.560838657718943
 20
-3.773948972359618
 10
-19.407988708014873
 20
-3.7986765280763737
 10
-19.252689356414244
 20
-3.822925625852676
 10
-19.095013293613505
 20
-3.8467017861342487
 10
-18.934966040058388
 20
-3.869932318224638
 10
-18.772542075303164
 20
-3.892689912820297
 10
-18.607741399347834
 20
-3.9149745699212275
 10
-18.44056953263812
 20
-3.9367135988309725
 10
-18.27109364542475
 20
-3.957985210691712
 10
-18.09931373770773
 20
-3.9787894055034476
 10
-17.925162639236333
 20
-3.9990479721239995
 10
-17.748774690512004
 20
-4.018917332837725
 10
-17.570082721284027
 20
-4.038319276502445
 10
-17.389081211106678
 20
-4.057326493814616
 10
-17.20584837112213
 20
-4.075871814523507
 10
-17.020400762667553
 20
-4.093737166539752
 10
-16.83272182440578
 20
-4.111140621952717
 10
-16.642727824748906
 20
-4.128222041709586
 10
-16.450642356232024
 20
-4.14492529645108
 10
-16.256331078353668
 20
-4.1610939638928395
 10
-16.05979951155956
 20
-4.176655353338407
 10
-15.861181996351167
 20
-4.191765887072144
 10
-15.660400321586303
 20
-4.20649273534478
 10
-15.457465528156423
 20
-4.220690516763406
 10
-15.252450306757979
 20
-4.234364751773745
 10
-15.045360177836697
 20
-4.247442749679344
 10
-14.836178580055403
 20
-4.260142582569566
 10
-14.624916554305544
 20
-4.272318869051502
 10
-14.411563059695673
 20
-4.284116990518062
 10
-14.196280038955871
 20
-4.2953299157713305
 10
-13.978916590247508
 20
-4.306019294616314
 10
-13.759545404267037
 20
-4.316190647498734
 10
-13.53823365126518
 20
-4.325922185560773
 10
-13.314919681436946
 20
-4.335063006963796
 10
-13.089665144587334
 20
-4.343764013546436
 10
-12.862548251858517
 20
-4.351958035057965
 10
-12.633434662749046
 20
-4.359488649214024
 10
-12.40246975865182
 20
-4.36636689690606
 10
-12.169636978229672
 20
-4.372810850223438
 10
-11.934936321482603
 20
-4.378820509166159
 10
-11.698367788410605
 20
-4.384395873734223
 10
-11.460020631047312
 20
-4.3893243922839895
 10
-11.219905890284174
 20
-4.39346068342255
 10
-10.977928793641839
 20
-4.397089989489997
 10
-10.734234722513213
 20
-4.4002233513777815
 10
-10.488762027093289
 20
-4.402709867247269
 10
-10.241594438969974
 20
-4.404409676151276
 10
-9.992715396806094
 20
-4.405540850179163
 10
-9.742186550406652
 20
-4.406254291169567
 10
-9.48994624996665
 20
-4.4063990972838525
 10
-9.23601105682325
 20
-4.405757196432657
 10
-8.980515311477925
 20
-4.404485010900339
 10
-8.723453493484937
 20
-4.402655231383351
 10
-8.464680221451387
 20
-4.400256816990245
 10
-8.204419087912362
 20
-4.39723363836174
 10
-7.942608443062852
 20
-4.393434793659203
 10
-7.679248286902862
 20
-4.388860282882634
 10
-7.414405789683117
 20
-4.383588317174209
 10
-7.148053349175
 20
-4.377982350016206
 10
-6.8802802174121345
 20
-4.371829829764984
 10
-6.611035785480966
 20
-4.364834473188997
 10
-6.3403145329357695
 20
-4.357068970984703
 10
-6.068261841169455
 20
-4.3485443640435495
 10
-5.794782937702668
 20
-4.339545894705632
 10
-5.519961554123317
 20
-4.329933702023764
 10
-5.243797690431394
 20
-4.319707785997946
 10
-4.9663023875183585
 20
-4.30872276523527
 10
-4.687470124938478
 20
-4.29705133043219
 10
-4.407435243193213
 20
-4.284849903873063
 10
-4.126063401781108
 20
-4.271962063273532
 10
-3.8435110229865166
 20
-4.258253468132136
 10
-3.5597725863637173
 20
-4.243796809145331
 10
-3.2748425714669818
 20
-4.228664777009569
 10
-2.988653808045587
 20
-4.212779160582674
 10
-2.7014354090803443
 20
-4.196011139808908
 10
-2.413120204320515
 20
-4.178282503546093
 10
-2.1236023803953037
 20
-4.160023875527232
 10
-1.8330328391433466
 20
-4.14117360594732
 10
-1.5415173939354387
 20
-4.121301071073352
 10
-1.248894102041506
 20
-4.100613302103245
 10
-0.9552301337122725
 20
-4.079188510179176
 10
-0.6606819112320977
 20
-4.056892354799687
 10
-0.3651095736537994
 20
-4.033641104376873
 10
-0.06865850237028093
 20
-4.009445799802183
 10
0.22876607509780422
 20
-3.984591683415711
 10
0.5270804271625552
 20
-3.958938894270273
 10
0.8261842608988973
 20
-3.9321294993293194
 10
1.1261668283404491
 20
-3.9043760502364906
 10
1.4269775205736677
 20
-3.875974830223329
 10
1.728527085564913
 20
-3.8467132876461956
 10
2.030882693564924
 20
-3.81651321136291
 10
2.3339826947686824
 20
-3.785525503212109
 10
2.6378050073933053
 20
-3.753459400407971
 10
2.9423496314387885
 20
-3.7203149029504967
 10
3.247565957991571
 20
-3.686388294071229
 10
3.5533868168009204
 20
-3.6517577849123497
 10
3.859879378117576
 20
-3.616345164331677
 10
4.166954389907903
 20
-3.579937880685572
 10
4.47462289306335
 20
-3.542681315366944
 10
4.782884887583924
 20
-3.5045754683757933
 10
5.0916676827731635
 20
-3.4656258601578447
 10
5.400954717293894
 20
-3.425614418623733
 10
5.710757032037571
 20
-3.3846865251663685
 10
6.020951327394177
 20
-3.3431439834630194
 10
6.331677464310896
 20
-3.3009030619257818
 10
6.642773500057657
 20
-3.257756729356739
 10
6.954317645776626
 20
-3.2137721560066237
 10
7.266164520074898
 20
-3.168960382766884
 10
7.578392334094652
 20
-3.1233885798882493
 10
7.890995567390165
 20
-3.076984056674266
 10
8.203834359014252
 20
-3.029830544712837
 10
8.516992440554814
 20
-2.9820679049511476
 10
8.83046429156613
 20
-2.9336234466927436
 10
9.144099010209565
 20
-2.8844355201326177
 10
9.457974807627297
 20
-2.8345712955215023
 10
9.772030034014323
 20
-2.7841816746980284
 10
10.086315298284191
 20
-2.732970374430657
 10
10.400696259935454
 20
-2.6810938170037426
 10
10.715183959859548
 20
-2.6286973838101977
 10
11.029772877610764
 20
-2.575708384153564
 10
11.34445197229764
 20
-2.5219814366409357
 10
11.659232284811624
 20
-2.4676619226652203
 10
11.973979474651266
 20
-2.4129062645107764
 10
12.288755191621563
 20
-2.3575635603389706
 10
12.60350330636324
 20
-2.301857402684891
 10
12.918207257539118
 20
-2.2455697194591737
 10
13.232861524703477
 20
-2.188627819965364
 10
13.547477148747763
 20
-2.1311770855963723
 10
13.861925309616241
 20
-2.0734466293330103
 10
14.176278698005365
 20
-2.015430930729554
 10
14.490448061881507
 20
-1.9569174381423646
 10
14.804438921690398
 20
-1.8979788422678951
 10
15.118251277432023
 20
-1.8386151431061477
 10
15.431890649552122
 20
-1.778899031353575
 10
15.74520613621206
 20
-1.718768857205172
 10
16.05827594855401
 20
-1.6582917909116697
 10
16.371032916327234
 20
-1.597546043615247
 10
16.683560771119648
 20
-1.5366714762630884
 10
16.99569204975544
 20
-1.475388366960825
 10
17.307432272680337
 20
-1.4137694064049104
 10
17.618881732819414
 20
-1.3521725276318945
 10
17.92986192610542
 20
-1.290172627354497
 10
18.240367332092617
 20
-1.227697014876265
 10
18.55050376415183
 20
-1.1651763139301996
 10
18.86013688178157
 20
-1.102766946800662
 10
19.16930625300397
 20
-1.040027248863198
 10
19.47794470756828
 20
-0.9770354312599883
 10
19.78597955477806
 20
-0.9137970144367547
 10
20.09349452622121
 20
-0.8504518593406839
 10
20.40042245164699
 20
-0.7870781771139561
 10
20.70676885150114
 20
-0.7237486584530236
 10
21.012449994195748
 20
-0.6603234424107031
 10
21.317454838839353
 20
-0.5966571475940851
 10
21.62179994676915
 20
-0.5329678460925334
 10
21.92548531798514
 20
-0.46925553790604807
 10
22.22837109154011
 20
-0.4056039546225333
 10
22.530602648827003
 20
-0.3420020553505391
 10
22.832018047115714
 20
-0.2782428088921514
 10
23.132622806851977
 20
-0.21439890594382435
 10
23.4324445302644
 20
-0.1508337999878322
 10
23.731477696907284
 20
-0.08747480032771882
 10
24.029565884496254
 20
-0.02418756646202499
 10
24.32685999486995
 20
0.03896625180424382
 10
24.623209126189725
 20
0.10204830427609286
 10
24.918685969152047
 20
0.16506411139924723
 10
25.21322887395192
 20
0.2278627713350737
 10
25.50676514989286
 20
0.2904387636378456
 10
25.79937852856279
 20
0.35265222736038
 10
26.090907067231626
 20
0.41471019370059126
 10
26.381496147292278
 20
0.47662370354992817
 10
26.670994866906106
 20
0.5384544067133966
 10
26.95943634874746
 20
0.5997661590122683
 10
27.246747902119893
 20
0.6605534400008186
 10
27.533041785741947
 20
0.7212634347492248
 10
27.81809440707856
 20
0.7819522726167689
 10
28.102095311088426
 20
0.8420494689232616
 10
28.384893595932898
 20
0.9016166734737076
 10
28.6664671798291
 20
0.9609446490539271
 10
28.946816062777003
 20
1.020033395663919
 10
29.22594576522237
 20
1.0788102226072298
 10
29.503883889393798
 20
1.136911676401585
 10
29.78047401300693
 20
1.1944720975484455
 10
30.055844956117507
 20
1.251720599028624
 10
30.32985133733262
 20
1.3086461399506721
 10
30.602504197543713
 20
1.3651033389216796
 10
30.873814577642246
 20
1.4209468145487374
 10
31.143771436736763
 20
1.4763219482247552
 10
31.41230208413079
 20
1.5312232195040065
 10
31.679490251412265
 20
1.5855107674393099
 10
31.945190557188266
 20
1.6391735511392147
 10
32.20945913081806
 20
1.6924351631388084
 10
32.47215059090877
 20
1.7452845625466438
 10
32.73349405044116
 20
1.797592929306983
 10
32.9932097875209
 20
1.84919280024402
 10
33.2514431835409
 20
1.9000952162492042
 10
33.50818871805541
 20
1.9503728680189891
 10
33.76328996878008
 20
2.000160096054835
 10
34.01675245616065
 20
2.049384209660288
 10
34.26872708203574
 20
2.097983559030342
 10
34.51900129476173
 20
2.1458688921313707
 10
34.76765882592649
 20
2.192900348016185
 10
35.01461042349641
 20
2.2392904783284275
 10
35.259923257722214
 20
2.2851174942102768
 10
35.503530158353186
 20
2.330303184519553
 10
35.74543112538931
 20
2.3748475492562573
 10
35.98557002947132
 20
2.4185269958853004
 10
36.22400299995848
 20
2.461565116941771
 10
36.46059017590362
 20
2.503878180837765
 10
36.695393207111735
 20
2.5456170894119166
 10
36.92842865492001
 20
2.586563770574862
 10
37.159629349077726
 20
2.626640013184423
 10
37.38897872824764
 20
2.6660638893299597
 10
37.61647679242986
 20
2.7048353990114764
 10
37.842123541624304
 20
2.742954542228971
 10
38.06578463532953
 20
2.7802648966980854
 10
38.28761649582992
 20
2.81663212191736
 10
38.50751883020038
 20
2.8524141509233427
 10
38.72542446819018
 20
2.887532772573854
 10
38.94140610049576
 20
2.9219935073146197
 10
39.15540207731214
 20
2.9556454533070053
 10
39.367334187497136
 20
2.988555780801741
 10
39.577342291997915
 20
3.0208082213867296
 10
39.78529757075875
 20
3.052173662081159
 10
39.9911889828882
 20
3.082797484277938
 10
40.195022048831994
 20
3.1126069972806136
 10
40.396780207252945
 20
3.141820273178548
 10
40.59647449904249
 20
3.1702919305788315
 10
40.79403223350422
 20
3.198016449035742
 10
40.98945893108382
 20
3.224921137852822
 10
41.182821762032006
 20
3.2510842081722515
 10
41.37396982451019
 20
3.2765673097990375
 10
41.56290311851835
 20
3.3013704427331794
 10
41.74969985519868
 20
3.325426436723946
 10
41.93436555499686
 20
3.3486626010748832
 10
42.116738275182854
 20
3.371285966983907
 10
42.296890706453084
 20
3.393302054896739
 10
42.47483941014476
 20
3.414492792724019
 10
42.65050617511567
 20
3.4349253507164743
 10
42.823879960474386
 20
3.4547451102670155
 10
42.9950444978088
 20
3.473812210428458
 10
43.16385992617172
 20
3.4920429196128966
 10
43.330387895368176
 20
3.5095881396589674
 10
43.49462288495241
 20
3.5265205612631227
 10
43.656492204228
 20
3.5428346639796393
 10
43.816006894086385
 20
3.558385066415608
 10
43.97316143408183
 20
3.573244459267483
 10
44.12794478332289
 20
3.5875582239281734
 10
44.280362462255304
 20
3.601253669701226
 10
44.430352821074045
 20
3.6141798947480046
 10
44.57791585977912
 20
3.6263368990685105
 10
44.72310218728409
 20
3.6380209658942864
 10
44.86584463333823
 20
3.649153884083154
 10
45.00614319794153
 20
3.6597356536351136
 10
45.14400340153972
 20
3.6696935838537095
 10
45.27935255343632
 20
3.6790221542932153
 10
45.41226334432783
 20
3.6877268853993597
 10
45.54265204262632
 20
3.6959476381193257
 10
45.670529689223244
 20
3.7035390310602025
 10
45.795885243227154
 20
3.7106464456149015
 10
45.918802436225945
 20
3.717130020836237
 10
46.039124845935284
 20
3.7231240972256687
 10
46.15691964260586
 20
3.7287068859253774
 10
46.27211965598697
 20
3.7338001757931814
 10
46.38480309722078
 20
3.7383367965783534
 10
46.49488623471941
 20
3.7424566092280758
 10
46.60245280007074
 20
3.7460197527951657
 10
46.707340850544696
 20
3.749233258477537
 10
46.80970128797991
 20
3.7520354764701835
 10
46.90938873098347
 20
3.754415365881658
 10
47.006475870251855
 20
3.7563784471576844
 10
47.10096270578503
 20
3.7579247202982615
 10
47.19284371713728
 20
3.7591268759998444
 10
47.28205173405788
 20
3.759906703120255
 10
47.368575715655396
 20
3.7604095830524025
 10
47.45249387307199
 20
3.7605683455455554
 10
47.53372799516547
 20
3.7604501608504446
 10
47.61228360238158
 20
3.759982338270616
 10
47.68815517427459
 20
3.7592375685025226
 10
47.761348231290214
 20
3.7581431608497105
 10
47.831857252982765
 20
3.7567718060086364
 10
47.89967119846076
 20
3.7552688853722076
 10
47.96472841791919
 20
3.75348349710179
 10
48.02716877230525
 20
3.7514993727852874
 10
48.08676866908387
 20
3.749372641781983
 10
48.14375170079009
 20
3.747047174732593
 10
48.19797248603106
 20
3.7445119307456705
 10
48.249419983915274
 20
3.7419122912141227
 10
48.29817240558498
 20
3.7391810858872216
 10
48.34415706034366
 20
3.736312794319242
 10
48.38736290729988
 20
3.733452797903092
 10
48.427873678041564
 20
3.7304612356915876
 10
48.46560564098079
 20
3.727477968631914
 10
48.500564316563285
 20
3.724430306027617
 10
48.532738663897604
 20
3.721463629271604
 10
48.56213420342949
 20
3.718505247667423
 10
48.58881810540963
 20
3.715633372357251
 10
48.61264498844515
 20
3.71283696244964
 10
48.633682022786765
 20
3.710194229086769
 10
48.65200189913092
 20
3.7077106927143615
 10
48.66745923608474
 20
3.7053753124409705
 10
48.680115683453195
 20
3.7033389901052285
 10
48.69004945237849
 20
3.7015345554564063
 10
48.697104120576256
 20
3.700096348995963
 10
48.701346858297214
 20
3.699102581866079
 10
48.702766624649925
 20
3.6986986354596625
  0
ENDSEC
  0
SECTION
  2
OBJECTS
  0
DICTIONARY
  5
A
330
0
100
AcDbDictionary
280
0
281
1
  3
ACAD_COLOR
350
B
  3
ACAD_GROUP
350
C
  3
ACAD_LAYOUT
350
D
  3
ACAD_MATERIAL
350
E
  3
ACAD_MLEADERSTYLE
350
F
  3
ACAD_MLINESTYLE
350
10
  3
ACAD_PLOTSETTINGS
350
11
  3
ACAD_PLOTSTYLENAME
350
12
  3
ACAD_SCALELIST
350
14
  3
ACAD_TABLESTYLE
350
15
  3
ACAD_VISUALSTYLE
350
16
  3
EZDXF_META
350
2D
  0
DICTIONARY
  5
B
330
A
100
AcDbDictionary
280
0
281
1
  0
DICTIONARY
  5
C
330
A
100
AcDbDictionary
280
0
281
1
  0
DICTIONARY
  5
D
330
A
100
AcDbDictionary
280
0
281
1
  3
Model
350
1A
  3
Layout1
350
1E
  0
DICTIONARY
  5
E
330
A
100
AcDbDictionary
280
0
281
1
  3
ByBlock
350
1F
  3
ByLayer
350
20
  3
Global
350
21
  0
DICTIONARY
  5
F
330
A
100
AcDbDictionary
280
0
281
1
  3
Standard
350
2C
  0
DICTIONARY
  5
10
330
A
100
AcDbDictionary
280
0
281
1
  3
Standard
350
22
  0
DICTIONARY
  5
11
330
A
100
AcDbDictionary
280
0
281
1
  0
ACDBDICTIONARYWDFLT
  5
12
330
A
100
AcDbDictionary
280
0
281
1
  3
Normal
350
13
100
AcDbDictionaryWithDefault
340
13
  0
ACDBPLACEHOLDER
  5
13
330
12
  0
DICTIONARY
  5
14
330
A
100
AcDbDictionary
280
0
281
1
  0
DICTIONARY
  5
15
330
A
100
AcDbDictionary
280
0
281
1
  0
DICTIONARY
  5
16
330
A
100
AcDbDictionary
280
0
281
1
  0
LAYOUT
  5
1A
330
D
100
AcDbPlotSettings
  1

  4
A3
  6

 40
7.5
 41
20.0
 42
7.5
 43
20.0
 44
420.0
 45
297.0
 46
0.0
 47
0.0
 48
0.0
 49
0.0
140
0.0
141
0.0
142
1.0
143
1.0
 70
1024
 72
1
 73
0
 74
5
  7

 75
16
 76
0
 77
2
 78
300
147
1.0
148
0.0
149
0.0
100
AcDbLayout
  1
Model
 70
1
 71
0
 10
0.0
 20
0.0
 11
420.0
 21
297.0
 12
0.0
 22
0.0
 32
0.0
 14
1e+20
 24
1e+20
 34
1e+20
 15
-1e+20
 25
-1e+20
 35
-1e+20
146
0.0
 13
0.0
 23
0.0
 33
0.0
 16
1.0
 26
0.0
 36
0.0
 17
0.0
 27
1.0
 37
0.0
 76
1
330
17
  0
LAYOUT
  5
1E
330
D
100
AcDbPlotSettings
  1

  4
A3
  6

 40
7.5
 41
20.0
 42
7.5
 43
20.0
 44
420.0
 45
297.0
 46
0.0
 47
0.0
 48
0.0
 49
0.0
140
0.0
141
0.0
142
1.0
143
1.0
 70
0
 72
1
 73
0
 74
5
  7

 75
16
 76
0
 77
2
 78
300
147
1.0
148
0.0
149
0.0
100
AcDbLayout
  1
Layout1
 70
1
 71
1
 10
0.0
 20
0.0
 11
420.0
 21
297.0
 12
0.0
 22
0.0
 32
0.0
 14
1e+20
 24
1e+20
 34
1e+20
 15
-1e+20
 25
-1e+20
 35
-1e+20
146
0.0
 13
0.0
 23
0.0
 33
0.0
 16
1.0
 26
0.0
 36
0.0
 17
0.0
 27
1.0
 37
0.0
 76
1
330
1B
  0
MATERIAL
  5
1F
102
{ACAD_REACTORS
330
E
102
}
330
E
100
AcDbMaterial
  1
ByBlock
  2

 70
0
 40
1.0
 71
1
 41
1.0
 91
-1023410177
 42
1.0
 72
1
  3

 73
1
 74
1
 75
1
 44
0.5
 73
0
 45
1.0
 46
1.0
 77
1
  4

 78
1
 79
1
170
1
 48
1.0
171
1
  6

172
1
173
1
174
1
140
1.0
141
1.0
175
1
  7

176
1
177
1
178
1
143
1.0
179
1
  8

270
1
271
1
272
1
145
1.0
146
1.0
273
1
  9

274
1
275
1
276
1
 42
1.0
 72
1
  3

 73
1
 74
1
 75
1
 94
63
  0
MATERIAL
  5
20
102
{ACAD_REACTORS
330
E
102
}
330
E
100
AcDbMaterial
  1
ByLayer
  2

 70
0
 40
1.0
 71
1
 41
1.0
 91
-1023410177
 42
1.0
 72
1
  3

 73
1
 74
1
 75
1
 44
0.5
 73
0
 45
1.0
 46
1.0
 77
1
  4

 78
1
 79
1
170
1
 48
1.0
171
1
  6

172
1
173
1
174
1
140
1.0
141
1.0
175
1
  7

176
1
177
1
178
1
143
1.0
179
1
  8

270
1
271
1
272
1
145
1.0
146
1.0
273
1
  9

274
1
275
1
276
1
 42
1.0
 72
1
  3

 73
1
 74
1
 75
1
 94
63
  0
MATERIAL
  5
21
102
{ACAD_REACTORS
330
E
102
}
330
E
100
AcDbMaterial
  1
Global
  2

 70
0
 40
1.0
 71
1
 41
1.0
 91
-1023410177
 42
1.0
 72
1
  3

 73
1
 74
1
 75
1
 44
0.5
 73
0
 45
1.0
 46
1.0
 77
1
  4

 78
1
 79
1
170
1
 48
1.0
171
1
  6

172
1
173
1
174
1
140
1.0
141
1.0
175
1
  7

176
1
177
1
178
1
143
1.0
179
1
  8

270
1
271
1
272
1
145
1.0
146
1.0
273
1
  9

274
1
275
1
276
1
 42
1.0
 72
1
  3

 73
1
 74
1
 75
1
 94
63
  0
MLINESTYLE
  5
22
102
{ACAD_REACTORS
330
10
102
}
330
10
100
AcDbMlineStyle
  2
Standard
 70
0
  3

 62
256
 51
90.0
 52
90.0
 71
2
 49
0.5
 62
256
  6
BYLAYER
 49
-0.5
 62
256
  6
BYLAYER
  0
MLEADERSTYLE
  5
2C
102
{ACAD_REACTORS
330
F
102
}
330
F
100
AcDbMLeaderStyle
179
2
170
2
171
1
172
0
 90
2
 40
0.0
 41
0.0
173
1
 91
-1056964608
 92
-2
290
1
 42
2.0
291
1
 43
8.0
  3
Standard
 44
4.0
300

342
29
174
1
175
1
176
0
178
1
 93
-1056964608
 45
4.0
292
0
297
0
 46
4.0
 94
-1056964608
 47
1.0
 49
1.0
140
1.0
294
1
141
0.0
177
0
142
1.0
295
0
296
0
143
3.75
271
0
272
9
273
9
  0
DICTIONARY
  5
2D
330
A
100
AcDbDictionary
280
1
281
1
  3
CREATED_BY_EZDXF
350
2E
  3
WRITTEN_BY_EZDXF
350
32
  0
DICTIONARYVAR
  5
2E
330
2D
100
DictionaryVariables
280
0
  1
1.3.5 @ 2025-08-20T01:05:14.200526+00:00
  0
DICTIONARYVAR
  5
32
330
2D
100
DictionaryVariables
280
0
  1
1.3.5 @ 2025-08-20T01:05:14.205507+00:00
  0
ENDSEC
  0
EOF
