  0
SECTION
  2
HEADER
  9
$ACADVER
  1
AC1032
  9
$ACADMAINTVER
 90
4
  9
$DWGCODEPAGE
  3
ANSI_1252
  9
$LASTSAVEDBY
  1
ezdxf
  9
$REQUIREDVERSIONS
160
0
  9
$INSBASE
 10
0.0
 20
0.0
 30
0.0
  9
$EXTMIN
 10
1e+20
 20
1e+20
 30
1e+20
  9
$EXTMAX
 10
-1e+20
 20
-1e+20
 30
-1e+20
  9
$LIMMIN
 10
0.0
 20
0.0
  9
$LIMMAX
 10
420.0
 20
297.0
  9
$ORTHOMODE
 70
0
  9
$REGENMODE
 70
1
  9
$FILLMODE
 70
1
  9
$QTEXTMODE
 70
0
  9
$MIRRTEXT
 70
1
  9
$LTSCALE
 40
1.0
  9
$ATTMODE
 70
1
  9
$TEXTSIZE
 40
2.5
  9
$TRACEWID
 40
1.0
  9
$TEXTSTYLE
  7
Standard
  9
$CLAYER
  8
0
  9
$CELTYPE
  6
ByLayer
  9
$CECOLOR
 62
256
  9
$CELTSCALE
 40
1.0
  9
$DISPSILH
 70
0
  9
$DIMSCALE
 40
1.0
  9
$DIMASZ
 40
2.5
  9
$DIMEXO
 40
0.625
  9
$DIMDLI
 40
3.75
  9
$DIMRND
 40
0.0
  9
$DIMDLE
 40
0.0
  9
$DIMEXE
 40
1.25
  9
$DIMTP
 40
0.0
  9
$DIMTM
 40
0.0
  9
$DIMTXT
 40
2.5
  9
$DIMCEN
 40
2.5
  9
$DIMTSZ
 40
0.0
  9
$DIMTOL
 70
0
  9
$DIMLIM
 70
0
  9
$DIMTIH
 70
0
  9
$DIMTOH
 70
0
  9
$DIMSE1
 70
0
  9
$DIMSE2
 70
0
  9
$DIMTAD
 70
1
  9
$DIMZIN
 70
8
  9
$DIMBLK
  1

  9
$DIMASO
 70
1
  9
$DIMSHO
 70
1
  9
$DIMPOST
  1

  9
$DIMAPOST
  1

  9
$DIMALT
 70
0
  9
$DIMALTD
 70
3
  9
$DIMALTF
 40
0.03937007874
  9
$DIMLFAC
 40
1.0
  9
$DIMTOFL
 70
1
  9
$DIMTVP
 40
0.0
  9
$DIMTIX
 70
0
  9
$DIMSOXD
 70
0
  9
$DIMSAH
 70
0
  9
$DIMBLK1
  1

  9
$DIMBLK2
  1

  9
$DIMSTYLE
  2
ISO-25
  9
$DIMCLRD
 70
0
  9
$DIMCLRE
 70
0
  9
$DIMCLRT
 70
0
  9
$DIMTFAC
 40
1.0
  9
$DIMGAP
 40
0.625
  9
$DIMJUST
 70
0
  9
$DIMSD1
 70
0
  9
$DIMSD2
 70
0
  9
$DIMTOLJ
 70
0
  9
$DIMTZIN
 70
8
  9
$DIMALTZ
 70
0
  9
$DIMALTTZ
 70
0
  9
$DIMUPT
 70
0
  9
$DIMDEC
 70
2
  9
$DIMTDEC
 70
2
  9
$DIMALTU
 70
2
  9
$DIMALTTD
 70
3
  9
$DIMTXSTY
  7
Standard
  9
$DIMAUNIT
 70
0
  9
$DIMADEC
 70
0
  9
$DIMALTRND
 40
0.0
  9
$DIMAZIN
 70
0
  9
$DIMDSEP
 70
44
  9
$DIMATFIT
 70
3
  9
$DIMFRAC
 70
0
  9
$DIMLDRBLK
  1

  9
$DIMLUNIT
 70
2
  9
$DIMLWD
 70
-2
  9
$DIMLWE
 70
-2
  9
$DIMTMOVE
 70
0
  9
$DIMFXL
 40
1.0
  9
$DIMFXLON
 70
0
  9
$DIMJOGANG
 40
0.785398163397
  9
$DIMTFILL
 70
0
  9
$DIMTFILLCLR
 70
0
  9
$DIMARCSYM
 70
0
  9
$DIMLTYPE
  6

  9
$DIMLTEX1
  6

  9
$DIMLTEX2
  6

  9
$DIMTXTDIRECTION
 70
0
  9
$LUNITS
 70
2
  9
$LUPREC
 70
4
  9
$SKETCHINC
 40
1.0
  9
$FILLETRAD
 40
10.0
  9
$AUNITS
 70
0
  9
$AUPREC
 70
2
  9
$MENU
  1
.
  9
$ELEVATION
 40
0.0
  9
$PELEVATION
 40
0.0
  9
$THICKNESS
 40
0.0
  9
$LIMCHECK
 70
0
  9
$CHAMFERA
 40
0.0
  9
$CHAMFERB
 40
0.0
  9
$CHAMFERC
 40
0.0
  9
$CHAMFERD
 40
0.0
  9
$SKPOLY
 70
0
  9
$TDCREATE
 40
2460908.0869675926
  9
$TDUCREATE
 40
2458532.153996898
  9
$TDUPDATE
 40
2460908.0869675926
  9
$TDUUPDATE
 40
2458532.1544311
  9
$TDINDWG
 40
0.0
  9
$TDUSRTIMER
 40
0.0
  9
$USRTIMER
 70
1
  9
$ANGBASE
 50
0.0
  9
$ANGDIR
 70
0
  9
$PDMODE
 70
0
  9
$PDSIZE
 40
0.0
  9
$PLINEWID
 40
0.0
  9
$SPLFRAME
 70
0
  9
$SPLINETYPE
 70
6
  9
$SPLINESEGS
 70
8
  9
$HANDSEED
  5
33
  9
$SURFTAB1
 70
6
  9
$SURFTAB2
 70
6
  9
$SURFTYPE
 70
6
  9
$SURFU
 70
6
  9
$SURFV
 70
6
  9
$UCSBASE
  2

  9
$UCSNAME
  2

  9
$UCSORG
 10
0.0
 20
0.0
 30
0.0
  9
$UCSXDIR
 10
1.0
 20
0.0
 30
0.0
  9
$UCSYDIR
 10
0.0
 20
1.0
 30
0.0
  9
$UCSORTHOREF
  2

  9
$UCSORTHOVIEW
 70
0
  9
$UCSORGTOP
 10
0.0
 20
0.0
 30
0.0
  9
$UCSORGBOTTOM
 10
0.0
 20
0.0
 30
0.0
  9
$UCSORGLEFT
 10
0.0
 20
0.0
 30
0.0
  9
$UCSORGRIGHT
 10
0.0
 20
0.0
 30
0.0
  9
$UCSORGFRONT
 10
0.0
 20
0.0
 30
0.0
  9
$UCSORGBACK
 10
0.0
 20
0.0
 30
0.0
  9
$PUCSBASE
  2

  9
$PUCSNAME
  2

  9
$PUCSORG
 10
0.0
 20
0.0
 30
0.0
  9
$PUCSXDIR
 10
1.0
 20
0.0
 30
0.0
  9
$PUCSYDIR
 10
0.0
 20
1.0
 30
0.0
  9
$PUCSORTHOREF
  2

  9
$PUCSORTHOVIEW
 70
0
  9
$PUCSORGTOP
 10
0.0
 20
0.0
 30
0.0
  9
$PUCSORGBOTTOM
 10
0.0
 20
0.0
 30
0.0
  9
$PUCSORGLEFT
 10
0.0
 20
0.0
 30
0.0
  9
$PUCSORGRIGHT
 10
0.0
 20
0.0
 30
0.0
  9
$PUCSORGFRONT
 10
0.0
 20
0.0
 30
0.0
  9
$PUCSORGBACK
 10
0.0
 20
0.0
 30
0.0
  9
$USERI1
 70
0
  9
$USERI2
 70
0
  9
$USERI3
 70
0
  9
$USERI4
 70
0
  9
$USERI5
 70
0
  9
$USERR1
 40
0.0
  9
$USERR2
 40
0.0
  9
$USERR3
 40
0.0
  9
$USERR4
 40
0.0
  9
$USERR5
 40
0.0
  9
$WORLDVIEW
 70
1
  9
$SHADEDGE
 70
3
  9
$SHADEDIF
 70
70
  9
$TILEMODE
 70
1
  9
$MAXACTVP
 70
64
  9
$PINSBASE
 10
0.0
 20
0.0
 30
0.0
  9
$PLIMCHECK
 70
0
  9
$PEXTMIN
 10
1e+20
 20
1e+20
 30
1e+20
  9
$PEXTMAX
 10
-1e+20
 20
-1e+20
 30
-1e+20
  9
$PLIMMIN
 10
0.0
 20
0.0
  9
$PLIMMAX
 10
420.0
 20
297.0
  9
$UNITMODE
 70
0
  9
$VISRETAIN
 70
1
  9
$PLINEGEN
 70
0
  9
$PSLTSCALE
 70
1
  9
$TREEDEPTH
 70
3020
  9
$CMLSTYLE
  2
Standard
  9
$CMLJUST
 70
0
  9
$CMLSCALE
 40
20.0
  9
$PROXYGRAPHICS
 70
1
  9
$MEASUREMENT
 70
1
  9
$CELWEIGHT
370
-1
  9
$ENDCAPS
280
0
  9
$JOINSTYLE
280
0
  9
$LWDISPLAY
290
0
  9
$INSUNITS
 70
6
  9
$HYPERLINKBASE
  1

  9
$STYLESHEET
  1

  9
$XEDIT
290
1
  9
$CEPSNTYPE
380
0
  9
$PSTYLEMODE
290
1
  9
$FINGERPRINTGUID
  2
{04FB0DAD-0952-45A2-B9CB-555B1DC235CD}
  9
$VERSIONGUID
  2
{C14F51CD-AD4E-4211-95E8-87C3FDC2E5D3}
  9
$EXTNAMES
290
1
  9
$PSVPSCALE
 40
0.0
  9
$OLESTARTUP
290
0
  9
$SORTENTS
280
127
  9
$INDEXCTL
280
0
  9
$HIDETEXT
280
1
  9
$XCLIPFRAME
280
1
  9
$HALOGAP
280
0
  9
$OBSCOLOR
 70
257
  9
$OBSLTYPE
280
0
  9
$INTERSECTIONDISPLAY
280
0
  9
$INTERSECTIONCOLOR
 70
257
  9
$DIMASSOC
280
2
  9
$PROJECTNAME
  1

  9
$CAMERADISPLAY
290
0
  9
$LENSLENGTH
 40
50.0
  9
$CAMERAHEIGHT
 40
0.0
  9
$STEPSPERSEC
 40
24.0
  9
$STEPSIZE
 40
100.0
  9
$3DDWFPREC
 40
2.0
  9
$PSOLWIDTH
 40
0.005
  9
$PSOLHEIGHT
 40
0.08
  9
$LOFTANG1
 40
1.570796326795
  9
$LOFTANG2
 40
1.570796326795
  9
$LOFTMAG1
 40
0.0
  9
$LOFTMAG2
 40
0.0
  9
$LOFTPARAM
 70
7
  9
$LOFTNORMALS
280
1
  9
$LATITUDE
 40
37.795
  9
$LONGITUDE
 40
-122.394
  9
$NORTHDIRECTION
 40
0.0
  9
$TIMEZONE
 70
-8000
  9
$LIGHTGLYPHDISPLAY
280
1
  9
$TILEMODELIGHTSYNCH
280
1
  9
$CMATERIAL
347
20
  9
$SOLIDHIST
280
0
  9
$SHOWHIST
280
1
  9
$DWFFRAME
280
2
  9
$DGNFRAME
280
2
  9
$REALWORLDSCALE
290
1
  9
$INTERFERECOLOR
 62
256
  9
$CSHADOW
280
0
  9
$SHADOWPLANELOCATION
 40
0.0
  0
ENDSEC
  0
SECTION
  2
CLASSES
  0
CLASS
  1
ACDBDICTIONARYWDFLT
  2
AcDbDictionaryWithDefault
  3
ObjectDBX Classes
 90
0
 91
0
280
0
281
0
  0
CLASS
  1
SUN
  2
AcDbSun
  3
SCENEOE
 90
1153
 91
0
280
0
281
0
  0
CLASS
  1
VISUALSTYLE
  2
AcDbVisualStyle
  3
ObjectDBX Classes
 90
4095
 91
0
280
0
281
0
  0
CLASS
  1
MATERIAL
  2
AcDbMaterial
  3
ObjectDBX Classes
 90
1153
 91
0
280
0
281
0
  0
CLASS
  1
SCALE
  2
AcDbScale
  3
ObjectDBX Classes
 90
1153
 91
0
280
0
281
0
  0
CLASS
  1
TABLESTYLE
  2
AcDbTableStyle
  3
ObjectDBX Classes
 90
4095
 91
0
280
0
281
0
  0
CLASS
  1
MLEADERSTYLE
  2
AcDbMLeaderStyle
  3
ACDB_MLEADERSTYLE_CLASS
 90
4095
 91
0
280
0
281
0
  0
CLASS
  1
DICTIONARYVAR
  2
AcDbDictionaryVar
  3
ObjectDBX Classes
 90
0
 91
0
280
0
281
0
  0
CLASS
  1
CELLSTYLEMAP
  2
AcDbCellStyleMap
  3
ObjectDBX Classes
 90
1152
 91
0
280
0
281
0
  0
CLASS
  1
MENTALRAYRENDERSETTINGS
  2
AcDbMentalRayRenderSettings
  3
SCENEOE
 90
1024
 91
0
280
0
281
0
  0
CLASS
  1
ACDBDETAILVIEWSTYLE
  2
AcDbDetailViewStyle
  3
ObjectDBX Classes
 90
1025
 91
0
280
0
281
0
  0
CLASS
  1
ACDBSECTIONVIEWSTYLE
  2
AcDbSectionViewStyle
  3
ObjectDBX Classes
 90
1025
 91
0
280
0
281
0
  0
CLASS
  1
RASTERVARIABLES
  2
AcDbRasterVariables
  3
ISM
 90
0
 91
0
280
0
281
0
  0
CLASS
  1
LAYOUT
  2
AcDbLayout
  3
ObjectDBX Classes
 90
0
 91
0
280
0
281
0
  0
CLASS
  1
ACDBPLACEHOLDER
  2
AcDbPlaceHolder
  3
ObjectDBX Classes
 90
0
 91
0
280
0
281
0
  0
ENDSEC
  0
SECTION
  2
TABLES
  0
TABLE
  2
VPORT
  5
8
330
0
100
AcDbSymbolTable
 70
1
  0
VPORT
  5
23
330
8
100
AcDbSymbolTableRecord
100
AcDbViewportTableRecord
  2
*Active
 70
0
 10
0.0
 20
0.0
 11
1.0
 21
1.0
 12
0.0
 22
0.0
 13
0.0
 23
0.0
 14
0.5
 24
0.5
 15
0.5
 25
0.5
 16
0.0
 26
0.0
 36
1.0
 17
0.0
 27
0.0
 37
0.0
 40
1000.0
 41
1.34
 42
50.0
 43
0.0
 44
0.0
 50
0.0
 51
0.0
 71
0
 72
1000
 73
1
 74
3
 75
0
 76
0
 77
0
 78
0
281
0
 65
0
146
0.0
  0
ENDTAB
  0
TABLE
  2
LTYPE
  5
2
330
0
100
AcDbSymbolTable
 70
3
  0
LTYPE
  5
24
330
2
100
AcDbSymbolTableRecord
100
AcDbLinetypeTableRecord
  2
ByBlock
 70
0
  3

 72
65
 73
0
 40
0.0
  0
LTYPE
  5
25
330
2
100
AcDbSymbolTableRecord
100
AcDbLinetypeTableRecord
  2
ByLayer
 70
0
  3

 72
65
 73
0
 40
0.0
  0
LTYPE
  5
26
330
2
100
AcDbSymbolTableRecord
100
AcDbLinetypeTableRecord
  2
Continuous
 70
0
  3

 72
65
 73
0
 40
0.0
  0
ENDTAB
  0
TABLE
  2
LAYER
  5
1
330
0
100
AcDbSymbolTable
 70
2
  0
LAYER
  5
27
330
1
100
AcDbSymbolTableRecord
100
AcDbLayerTableRecord
  2
0
 70
0
 62
7
  6
Continuous
370
-3
390
13
347
21
  0
LAYER
  5
28
330
1
100
AcDbSymbolTableRecord
100
AcDbLayerTableRecord
  2
Defpoints
 70
0
 62
7
  6
Continuous
290
0
370
-3
390
13
347
21
  0
ENDTAB
  0
TABLE
  2
STYLE
  5
5
330
0
100
AcDbSymbolTable
 70
1
  0
STYLE
  5
29
330
5
100
AcDbSymbolTableRecord
100
AcDbTextStyleTableRecord
  2
Standard
 70
0
 40
0.0
 41
1.0
 50
0.0
 71
0
 42
2.5
  3
txt
  4

  0
ENDTAB
  0
TABLE
  2
VIEW
  5
7
330
0
100
AcDbSymbolTable
 70
0
  0
ENDTAB
  0
TABLE
  2
UCS
  5
6
330
0
100
AcDbSymbolTable
 70
0
  0
ENDTAB
  0
TABLE
  2
APPID
  5
3
330
0
100
AcDbSymbolTable
 70
3
  0
APPID
  5
2A
330
3
100
AcDbSymbolTableRecord
100
AcDbRegAppTableRecord
  2
ACAD
 70
0
  0
APPID
  5
30
330
3
100
AcDbSymbolTableRecord
100
AcDbRegAppTableRecord
  2
HATCHBACKGROUNDCOLOR
 70
0
  0
APPID
  5
31
330
3
100
AcDbSymbolTableRecord
100
AcDbRegAppTableRecord
  2
EZDXF
 70
0
  0
ENDTAB
  0
TABLE
  2
DIMSTYLE
  5
4
330
0
100
AcDbSymbolTable
 70
1
100
AcDbDimStyleTable
  0
DIMSTYLE
105
2B
330
4
100
AcDbSymbolTableRecord
100
AcDbDimStyleTableRecord
  2
Standard
 70
0
 40
1.0
 41
2.5
 42
0.625
 43
3.75
 44
1.25
 45
0.0
 46
0.0
 47
0.0
 48
0.0
 49
2.5
140
2.5
141
2.5
142
0.0
143
0.03937007874
144
1.0
145
0.0
146
1.0
147
0.625
148
0.0
 69
0
 70
0
 71
0
 72
0
 73
0
 74
0
 75
0
 76
0
 77
1
 78
8
 79
3
170
0
171
3
172
1
173
0
174
0
175
0
176
0
177
0
178
0
179
2
271
2
272
2
273
2
274
3
275
0
276
0
277
2
278
44
279
0
280
0
281
0
282
0
283
0
284
8
285
0
286
0
288
0
289
3
290
0
371
-2
372
-2
  0
ENDTAB
  0
TABLE
  2
BLOCK_RECORD
  5
9
330
0
100
AcDbSymbolTable
 70
2
  0
BLOCK_RECORD
  5
17
330
9
100
AcDbSymbolTableRecord
100
AcDbBlockTableRecord
  2
*Model_Space
340
1A
 70
0
280
1
281
0
  0
BLOCK_RECORD
  5
1B
330
9
100
AcDbSymbolTableRecord
100
AcDbBlockTableRecord
  2
*Paper_Space
340
1E
 70
0
280
1
281
0
  0
ENDTAB
  0
ENDSEC
  0
SECTION
  2
BLOCKS
  0
BLOCK
  5
18
330
17
100
AcDbEntity
  8
0
100
AcDbBlockBegin
  2
*Model_Space
 70
0
 10
0.0
 20
0.0
 30
0.0
  3
*Model_Space
  1

  0
ENDBLK
  5
19
330
17
100
AcDbEntity
  8
0
100
AcDbBlockEnd
  0
BLOCK
  5
1C
330
1B
100
AcDbEntity
  8
0
100
AcDbBlockBegin
  2
*Paper_Space
 70
0
 10
0.0
 20
0.0
 30
0.0
  3
*Paper_Space
  1

  0
ENDBLK
  5
1D
330
1B
100
AcDbEntity
  8
0
100
AcDbBlockEnd
  0
ENDSEC
  0
SECTION
  2
ENTITIES
  0
LWPOLYLINE
  5
2F
330
17
100
AcDbEntity
  8
0
100
AcDbPolyline
 90
721
 70
1
 10
29.799985871335434
 20
0.24871144196869877
 10
29.79913819863148
 20
0.2490157320936271
 10
29.79659592294183
 20
0.24983964728670635
 10
29.792360529110923
 20
0.2510052771845258
 10
29.786386797125676
 20
0.2526012057576834
 10
29.778764795801138
 20
0.2544947426558358
 10
29.76944967633532
 20
0.25672999425872833
 10
29.75839733234851
 20
0.2592621117644008
 10
29.745696719022387
 20
0.26209183759506804
 10
29.731303729977217
 20
0.26517432294876997
 10
29.715173145199937
 20
0.2685981517961046
 10
29.69739466229445
 20
0.27227511137758115
 10
29.67792380366992
 20
0.2762048304820924
 10
29.656760198115236
 20
0.280431786700491
 10
29.633904588052612
 20
0.2848670248510715
 10
29.609356231059827
 20
0.2895995001155394
 10
29.583159975938848
 20
0.29458510611414934
 10
29.555271345098824
 20
0.29982347163579387
 10
29.525689967328642
 20
0.30535907427132586
 10
29.49446106264137
 20
0.3111033300501471
 10
29.46153941102394
 20
0.3171448229428557
 10
29.426925754898576
 20
0.32339459776774615
 10
29.390708307024752
 20
0.32994235212873885
 10
29.352754005841035
 20
0.33674249480165874
 10
29.31319628411997
 20
0.3437961394198281
 10
29.271946186679862
 20
0.35110254356103215
 10
29.22904819111155
 20
0.35866207843637815
 10
29.184502297415037
 20
0.3664747440458662
 10
29.138308134379233
 20
0.3745850179803491
 10
29.090465702004128
 20
0.3829929002398268
 10
29.04097574271193
 20
0.39160943564259376
 10
28.98983751408042
 20
0.4005235793703555
 10
28.937095864911583
 20
0.40969122504336675
 10
28.882705946403437
 20
0.4191564790413727
 10
28.826668500978197
 20
0.42883038618266806
 10
28.76902726380451
 20
0.43880227286006557
 10
28.709781863671257
 20
0.449116616664418
 10
28.648933414211783
 20
0.45963998482316715
 10
28.586436695413
 20
0.4704609613069111
 10
28.522381033667724
 20
0.481535810947012
 10
28.456677102583143
 20
0.49290826891210754
 10
28.389413857340966
 20
0.5045790776244128
 10
28.32054682035034
 20
0.5165478658728203
 10
28.25012046920212
 20
0.5288150048684374
 10
28.178090697516552
 20
0.5413356458093038
 10
28.104501982884493
 20
0.5541101599065272
 10
28.029309105292874
 20
0.5672271311307056
 10
27.952601391134515
 20
0.5806428243132008
 10
27.87433436281855
 20
0.5943568682429058
 10
27.794508020345003
 20
0.6083692629198205
 10
27.713122363713847
 20
0.6226800083439447
 10
27.63022149930484
 20
0.6373339533172386
 10
27.545761320738237
 20
0.6522862490377423
 10
27.45978593439378
 20
0.6675817443074157
 10
27.372295711482572
 20
0.683175961535406
 10
27.283291394426847
 20
0.6989799455400081
 10
27.192816718395225
 20
0.7150830227140346
 10
27.100826463374638
 20
0.7315737770280836
 10
27.00732062936509
 20
0.7484522084821549
 10
26.912344807590756
 20
0.765585255514798
 10
26.815898626840543
 20
0.7830173957168657
 10
26.71798208711442
 20
0.8007486290883576
 10
26.6185940747791
 20
0.8189123884018324
 10
26.517736445890097
 20
0.837286285703026
 10
26.415452935616045
 20
0.8559596473847516
 10
26.31174317274585
 20
0.8749769510378619
 10
26.206562308477555
 20
0.894382303042102
 10
26.09999966920396
 20
0.9141319682288341
 10
25.99201114854533
 20
0.934181097796098
 10
25.88259674650165
 20
0.9545296917438938
 10
25.771800198241582
 20
0.9752670764650345
 10
25.659622988609534
 20
0.996215341596109
 10
25.54601989759245
 20
1.017463071107715
 10
25.431079509160917
 20
1.0390554850129208
 10
25.31480182331495
 20
1.060992583311726
 10
25.197143104885903
 20
1.0831850396113176
 10
25.07810298266267
 20
1.1056773315025488
 10
24.957770411826953
 20
1.1284702014076338
 10
24.836100172365683
 20
1.1516522332971708
 10
24.71309337791219
 20
1.1750899943986022
 10
24.588794506057322
 20
1.1987838559230348
 10
24.463203556801083
 20
1.2227338178704688
 10
24.33631978772126
 20
1.2470288354226096
 10
24.20814319881784
 20
1.271668908579457
 10
24.07867416130194
 20
1.2966095597501592
 10
23.948002001566373
 20
1.321807053766077
 10
23.816037393218323
 20
1.347305125795849
 10
23.682824813848644
 20
1.3731041470505827
 10
23.548409854681516
 20
1.399071055968827
 10
23.41274766691496
 20
1.4252499589303276
 10
23.27588161450654
 20
1.4517746599187495
 10
23.137856175047077
 20
1.4786455301452006
 10
22.9985831357771
 20
1.5057728720057606
 10
22.85815256551163
 20
1.5330239951500861
 10
22.716562979406234
 20
1.5605768099415878
 10
22.573814748672017
 20
1.5883868387894131
 10
22.42990750209788
 20
1.6164985592844148
 10
22.284886459696892
 20
1.644823387455995
 10
22.138751621469048
 20
1.673361323304153
 10
21.991458509823488
 20
1.7021119956177824
 10
21.843095708730825
 20
1.7311206244099497
 10
21.693618740600197
 20
1.760386838469549
 10
21.54307282544467
 20
1.7898220538259804
 10
21.39145796326425
 20
1.819426270479245
 10
21.238818631649796
 20
1.8491998596404504
 10
21.085109981799327
 20
1.879186927689341
 10
20.930375748881495
 20
1.9094768010187302
 10
20.77457256893877
 20
1.9399356756449524
 10
20.617833503532598
 20
1.9706091427921826
 10
20.460071082325715
 20
2.0013185496747954
 10
20.301284934106995
 20
2.0321083738836427
 10
20.141562900424834
 20
2.063112790613498
 10
19.98090461006812
 20
2.094376277455214
 10
19.819222221488467
 20
2.125764659214018
 10
19.656694387471507
 20
2.1571904655526333
 10
19.493188046455796
 20
2.1886081052468858
 10
19.32879103998969
 20
2.220151753491548
 10
19.163458519271263
 20
2.2518655166663653
 10
18.997279810693307
 20
2.2837056596027003
 10
18.830211550298294
 20
2.315538378316887
 10
18.66229747325486
 20
2.3474529992017374
 10
18.493536837140798
 20
2.379538477438959
 10
18.32393149801164
 20
2.411572425074286
 10
18.153481827078494
 20
2.4435103645168677
 10
17.982274923467532
 20
2.4755754261431804
 10
17.810222203208163
 20
2.507722389940158
 10
17.63741225027096
 20
2.5399964759208684
 10
17.46384729192259
 20
2.5721308185401943
 10
17.289526956951935
 20
2.604169895388988
 10
17.11445050293679
 20
2.6362026616489564
 10
16.938616816243815
 20
2.6683625500926564
 10
16.762116336899165
 20
2.700472392778893
 10
16.584861594565552
 20
2.7323535369220386
 10
16.406984908382213
 20
2.764140528927976
 10
16.22839546711192
 20
2.796055014328753
 10
16.04913923318993
 20
2.827919453972066
 10
15.869217691460692
 20
2.8595559374945037
 10
15.688719054683684
 20
2.891054162499987
 10
15.50755399646611
 20
2.9224578641571526
 10
15.325811100778552
 20
2.9538122624790706
 10
15.14344626124127
 20
2.985072508663779
 10
14.960504697867334
 20
3.0161500187406793
 10
14.777030888247593
 20
3.0470451639208793
 10
14.592980354791196
 20
3.077757572993273
 10
14.408442052679849
 20
3.1082879883800736
 10
14.223327026731845
 20
3.1386356676590674
 10
14.037723489706682
 20
3.1688903084341744
 10
13.851631812815453
 20
3.1990074331145406
 10
13.665053852113708
 20
3.228764653745903
 10
13.47798886517923
 20
3.258250925509968
 10
13.290525435982605
 20
3.2875114684198032
 10
13.102574238131037
 20
3.316590017644045
 10
12.914224969228435
 20
3.345398360423204
 10
12.725478000485912
 20
3.373892019166427
 10
12.536333703114577
 20
3.4020265162828616
 10
12.346791334692206
 20
3.4298908069542122
 10
12.156895001598555
 20
3.4575297399824407
 10
11.966644703833614
 20
3.4849433153675458
 10
11.776086032621567
 20
3.5119984715480768
 10
11.585174881582663
 20
3.538650359722074
 10
11.393956099518865
 20
3.564854873509793
 10
11.202473050387708
 20
3.5907458168948967
 10
11.010680142965
 20
3.616456251438838
 10
10.818667074854678
 20
3.641897964382126
 10
10.626392338154742
 20
3.6667147637868314
 10
10.433853705598553
 20
3.6911735151980696
 10
10.241139761156703
 20
3.7153194386289092
 10
10.048206769660558
 20
3.7390632076865375
 10
9.85505510232122
 20
3.7623603447801015
 10
9.661772600687078
 20
3.785345025104373
 10
9.468315158378383
 20
3.807972399857394
 10
9.274728366619309
 20
3.8301094074777127
 10
9.08096774781901
 20
3.8517556767542205
 10
8.887121885948078
 20
3.8729564276999873
 10
8.693190409795408
 20
3.8937561379058634
 10
8.499174432994318
 20
3.914021374599293
 10
8.305073584333707
 20
3.933796615371126
 10
8.11093197019332
 20
3.9531267090233255
 10
7.916703999348976
 20
3.9721447171173416
 10
7.72248085424903
 20
3.990584516530271
 10
7.5282625348934795
 20
4.008446107262115
 10
7.334048670071217
 20
4.025773966903725
 10
7.139838888571138
 20
4.0426125730459574
 10
6.9456780391952
 20
4.0589178193090625
 10
6.751521273141441
 20
4.074733812072788
 10
6.557457916802682
 20
4.090016816168495
 10
6.363488712601128
 20
4.104677876414479
 10
6.169613289325678
 20
4.1187614704015925
 10
5.975831275765222
 20
4.132312075720687
 10
5.782143043130868
 20
4.145285214780912
 10
5.588638289026535
 20
4.157592674822775
 10
5.395271793439156
 20
4.169323039816874
 10
5.20208729153737
 20
4.180565636156023
 10
5.009042161785863
 20
4.19109770467485
 10
4.8162246169441225
 20
4.201008942977277
 10
4.623633543378824
 20
4.210432783835859
 10
4.431225577132445
 20
4.219235423266934
 10
4.2390904158089
 20
4.227328648511009
 10
4.0472273169859765
 20
4.23480141474979
 10
3.8555925454950315
 20
4.241564395590465
 10
3.664274314095562
 20
4.247707288636953
 10
3.473228887618927
 20
4.253140767496441
 10
3.282544850035727
 20
4.257910052181997
 10
3.092132132530928
 20
4.262147833043967
 10
2.9020804327084577
 20
4.265765897322855
 10
2.712391235412744
 20
4.2685863346552555
 10
2.5230641694326734
 20
4.270653622632018
 10
2.3341425987257876
 20
4.272101565236809
 10
2.1456268945031836
 20
4.272885684878775
 10
1.957517427975973
 20
4.272961503967064
 10
1.7698586767350124
 20
4.272329393712784
 10
1.5826054207672262
 20
4.271077938086531
 10
1.3958013952412571
 20
4.269296463481121
 10
1.2094925625923885
 20
4.266807430744248
 10
1.023679665242832
 20
4.263521884694207
 10
0.8383619607703738
 20
4.259528780512704
 10
0.6535835555547612
 20
4.254872967001699
 10
0.46929997200513823
 20
4.249554072950085
 10
0.28555531650125476
 20
4.24361694715982
 10
0.1023936954228503
 20
4.237106438432868
 10
-0.08022788397649408
 20
4.229844265194706
 10
-0.2622649441059263
 20
4.221830798656446
 10
-0.44367486343013135
 20
4.213288797983457
 10
-0.6245013771177464
 20
4.204128936782923
 10
-0.80465515877596
 20
4.194307479886212
 10
-0.9842251635864779
 20
4.183823684871106
 10
-1.1631224363675912
 20
4.172678294159819
 10
-1.3413032419506652
 20
4.160960634145165
 10
-1.518856906728512
 20
4.148714439995783
 10
-1.6957370970547423
 20
4.135717694968515
 10
-1.871857085014295
 20
4.122238007030694
 10
-2.047262090620234
 20
4.108363960152916
 10
-2.2219943641967723
 20
4.093828317578958
 10
-2.3959204729713512
 20
4.078632192942144
 10
-2.5690860081681426
 20
4.062908647803921
 10
-2.741491340998259
 20
4.046702159755146
 10
-2.9131357290394786
 20
4.02992377361411
 10
-3.0839305883212087
 20
4.012618709393882
 10
-3.2539648740251534
 20
3.994786224672248
 10
-3.4231507446029297
 20
3.97656049464398
 10
-3.5914874576323212
 20
3.957852564127372
 10
-3.7589746419022223
 20
3.9386179555315732
 10
-3.92561266862374
 20
3.9189011464474346
 10
-4.091357802628238
 20
3.89879146326777
 10
-4.256254521506563
 20
3.878288534781471
 10
-4.420213127654802
 20
3.857304148229048
 10
-4.583233621072952
 20
3.835838303610501
 10
-4.745360108140756
 20
3.813846152123869
 10
-4.906548482478472
 20
3.7913725425711124
 10
-5.066799857719423
 20
3.76855090772479
 10
-5.226070127483857
 20
3.7454260963868613
 10
-5.384357806927353
 20
3.7218201981939156
 10
-5.541707373640759
 20
3.6977328419348456
 10
-5.6979850236404115
 20
3.6731206636521208
 10
-5.8532808257413365
 20
3.6481163536960843
 10
-6.007595151154641
 20
3.6227643896575894
 10
-6.160839044698621
 20
3.5970655139588503
 10
-6.313012135162168
 20
3.5709752490090145
 10
-6.464157786502813
 20
3.544359790824416
 10
-6.614233005974134
 20
3.5173974209795746
 10
-6.76323890720945
 20
3.490221572247047
 10
-6.911129156562376
 20
3.4626102278836774
 10
-7.057948231623759
 20
3.434563016678358
 10
-7.2036079196341145
 20
3.40616963623501
 10
-7.348152698184291
 20
3.3774297153425255
 10
-7.491582938485397
 20
3.348387731591757
 10
-7.633853049313257
 20
3.3189106234212544
 10
-7.774963773090088
 20
3.289087346012722
 10
-7.914915109815887
 20
3.25891789936616
 10
-8.053708544335086
 20
3.228580193844981
 10
-8.19125475025487
 20
3.198030494280546
 10
-8.327641569123623
 20
3.167134625478081
 10
-8.462823780928282
 20
3.1358040034669896
 10
-8.596758392922414
 20
3.104216909821789
 10
-8.729490625119096
 20
3.0724619285130776
 10
-8.860974515083042
 20
3.0403615203885517
 10
-8.991166327645615
 20
3.0080050118410253
 10
-9.120155389199624
 20
2.975436138039135
 10
-9.247852744563367
 20
2.9426556414050964
 10
-9.374257280103523
 20
2.9095300891663496
 10
-9.499370109453412
 20
2.876192914095456
 10
-9.623191603824141
 20
2.842688593783265
 10
-9.745721392004604
 20
2.808972650638926
 10
-9.866914996403946
 20
2.7750454558735465
 10
-9.986772045811064
 20
2.7408625318962714
 10
-10.105337389027916
 20
2.7064679850868494
 10
-10.222522070872794
 20
2.6718625578674926
 10
-10.338326833767916
 20
2.6371352054199075
 10
-10.452839890472768
 20
2.602196230140174
 10
-10.5659278082148
 20
2.567046745661614
 10
-10.67763469337375
 20
2.531641903182268
 10
-10.78796203079405
 20
2.496159613065546
 10
-10.8969098204757
 20
2.460599875311448
 10
-11.004432842405635
 20
2.424874105949377
 10
-11.110530725372744
 20
2.3889378273884794
 10
-11.215247575756774
 20
2.3527461908267946
 10
-11.318496294431554
 20
2.316522326640803
 10
-11.420320987776835
 20
2.280221386028542
 10
-11.520720913370397
 20
2.243754413808308
 10
-11.61965159362139
 20
2.2071217811912076
 10
-11.717113770952023
 20
2.1704124433589462
 10
-11.81310670294009
 20
2.1335374451298192
 10
-11.907630760796696
 20
2.096541264094679
 10
-12.000686315732944
 20
2.0594683778443774
 10
-12.09222814773577
 20
2.0222302024083167
 10
-12.182257370438496
 20
1.984960170559056
 10
-12.270816976587543
 20
1.947480000722076
 10
-12.35786397343649
 20
1.9099679744718954
 10
-12.44339798977423
 20
1.8723796142176619
 10
-12.527418654389656
 20
1.8346704423685216
 10
-12.609881489691908
 20
1.7968408301355834
 10
-12.690831344482957
 20
1.7589348838985912
 10
-12.770224854805267
 20
1.7210864076412118
 10
-12.848061278236624
 20
1.683206446181739
 10
-12.924340614777025
 20
1.645294999520173
 10
-12.999107713228435
 20
1.6073961740362592
 10
-13.072273247198039
 20
1.5694662345613597
 10
-13.143882436698906
 20
1.5315937650660725
 10
-13.213891546562392
 20
1.4938680919432104
 10
-13.282345054379359
 20
1.4562888439816661
 10
-13.34919774013673
 20
1.4187674372108414
 10
-13.414494452636474
 20
1.3813479780104818
 10
-13.478146236696881
 20
1.3440312088028021
 10
-13.540242789921871
 20
1.306905342347293
 10
-13.600695528340848
 20
1.2700155986570218
 10
-13.659548187122446
 20
1.233272651339176
 10
-13.716800766266669
 20
1.1966765003937554
 10
-13.772453265773514
 20
1.1602271458207598
 10
-13.826461950474348
 20
1.1240139140130025
 10
-13.878826820369166
 20
1.0880368049704832
 10
-13.929591239415501
 20
1.0521620147095363
 10
-13.978711843655821
 20
1.0165233472138275
 10
-14.026187148245699
 20
0.9809428921199457
 10
-14.072018638029558
 20
0.9455985597913021
 10
-14.116204828162978
 20
0.9103124398644858
 10
-14.158746461068166
 20
0.875173487521202
 10
-14.199643536745125
 20
0.8401817027614508
 10
-14.238851206391898
 20
0.8052929792054866
 10
-14.276459167612398
 20
0.7705955296128008
 10
-14.312332874000749
 20
0.7359570348441569
 10
-14.346606500751726
 20
0.7014653364479378
 10
-14.379190721472511
 20
0.6670766992555063
 10
-14.410086649796432
 20
0.6329245560394202
 10
-14.439338020892121
 20
0.5989195804068669
 10
-14.466900728379835
 20
0.5651066211598063
 10
-14.492776257104008
 20
0.5316635886616492
 10
-14.517007971022164
 20
0.4984566789287303
 10
-14.53955213496567
 20
0.4655752183538624
 10
-14.560409491356737
 20
0.433108162118751
 10
-14.579581525039796
 20
0.40123342058680705
 10
-14.597068236014849
 20
0.3699509937580304
 10
-14.61291484429496
 20
0.3393494656030193
 10
-14.627034250753963
 20
0.30965196649825216
 10
-14.63947241782714
 20
0.2810360355960327
 10
-14.650277535216418
 20
0.2539460775937807
 10
-14.659363246217843
 20
0.22869417804968017
 10
-14.666779967799986
 20
0.20599160720626766
 10
-14.67257811693142
 20
0.18654963530607954
 10
-14.676677647497018
 20
0.17143646695179635
 10
-14.679132317365314
 20
0.16176367070362918
 10
-14.677604981404022
 20
-0.12249966544726956
 10
-14.676740975411342
 20
-0.12476096956971837
 10
-14.674149328644406
 20
-0.13150040434621205
 10
-14.669831525947652
 20
-0.14254005941333964
 10
-14.66373677914139
 20
-0.15863568260449035
 10
-14.655946247974079
 20
-0.18072204574978648
 10
-14.646434757832449
 20
-0.20648594291377814
 10
-14.635169338669973
 20
-0.23454819756892303
 10
-14.62224377141276
 20
-0.2643313434563504
 10
-14.607621373903209
 20
-0.2949009799570453
 10
-14.591261009450434
 20
-0.32585643754222554
 10
-14.573253489291677
 20
-0.3569760706798424
 10
-14.553555820680517
 20
-0.3880815977953775
 10
-14.53216948846138
 20
-0.41899510852541977
 10
-14.509095235056487
 20
-0.44962764768826385
 10
-14.484333060465833
 20
-0.47997921528390963
 10
-14.457927813491377
 20
-0.5100057049326119
 10
-14.429835758964487
 20
-0.5396177902415576
 10
-14.400056525674053
 20
-0.5688599488015997
 10
-14.36863496242203
 20
-0.5976880742329927
 10
-14.33552584919536
 20
-0.6261907505063348
 10
-14.300729557205141
 20
-0.6543235000307729
 10
-14.2643357840553
 20
-0.681998110046817
 10
-14.226209983339952
 20
-0.7093468996937026
 10
-14.186485959042768
 20
-0.7363265050138991
 10
-14.145074384770929
 20
-0.7629806611760448
 10
-14.102020109326398
 20
-0.7892652618003941
 10
-14.057323503920282
 20
-0.8151358292960944
 10
-14.010983454919261
 20
-0.8407257964357039
 10
-13.963000704745548
 20
-0.8659462080375171
 10
-13.913373768554713
 20
-0.890974974464945
 10
-13.862103759980078
 20
-0.9156786629454292
 10
-13.80923441419028
 20
-0.9401465998717826
 10
-13.75472125359447
 20
-0.9643784140328983
 10
-13.69856353577043
 20
-0.9884630606104813
 10
-13.64080610952012
 20
-1.012356433224786
 10
-13.581448603632436
 20
-1.0361030094666657
 10
-13.520491018107375
 20
-1.0597027893361206
 10
-13.45788776172076
 20
-1.0832888343946008
 10
-13.39372816086541
 20
-1.1068174094734686
 10
-13.327923631570723
 20
-1.1302432945596566
 10
-13.260563129018404
 20
-1.1535672320753796
 10
-13.191601433195386
 20
-1.1768778059912353
 10
-13.121083021692524
 20
-1.200175387518332
 10
-13.048963788130067
 20
-1.2234151278547087
 10
-12.97528895252109
 20
-1.2465084430297677
 10
-12.900013666063627
 20
-1.2694994394232542
 10
-12.823226512728281
 20
-1.292433337048236
 10
-12.744883014924195
 20
-1.3153097646936052
 10
-12.66498317265137
 20
-1.3381287223593619
 10
-12.583528099543125
 20
-1.3607567772729485
 10
-12.500562273190324
 20
-1.3831943006454717
 10
-12.416041216002103
 20
-1.405440921265825
 10
-12.330008663147105
 20
-1.4275859655268202
 10
-12.242464614625328
 20
-1.4496294334284578
 10
-12.153410555281202
 20
-1.4713934146073266
 10
-12.062890220283364
 20
-1.4929672354562404
 10
-11.97085950325207
 20
-1.5143060471732377
 10
-11.877318032976214
 20
-1.5354543273491719
 10
-11.782310287046647
 20
-1.5564124471951508
 10
-11.685836636674477
 20
-1.577135929120321
 10
-11.587896710648598
 20
-1.597669250715536
 10
-11.488490508969006
 20
-1.6180124119807948
 10
-11.387618402846812
 20
-1.6381209353252453
 10
-11.285324498661756
 20
-1.6580396695508475
 10
-11.181608796413846
 20
-1.6777686146576016
 10
-11.076427189723331
 20
-1.697262921843547
 10
-10.969867891349704
 20
-1.7166122887126043
 10
-10.86188679491322
 20
-1.7357718664628137
 10
-10.752483529202769
 20
-1.7547861326850276
 10
-10.641702943020315
 20
-1.7736109809995002
 10
-10.529546149999176
 20
-1.792112978633674
 10
-10.41601203650603
 20
-1.8104255583601068
 10
-10.301055382527815
 20
-1.8286373041493968
 10
-10.184809992048189
 20
-1.846704852044014
 10
-10.06718765230767
 20
-1.864538504440037
 10
-9.948188734517355
 20
-1.8820937837466138
 10
-9.827901451436743
 20
-1.8994603875676648
 10
-9.706280954263873
 20
-1.9166824222829348
 10
-9.583327985420956
 20
-1.9336709327107189
 10
-9.459087022498844
 20
-1.950426290062124
 10
-9.333558436708651
 20
-1.9669040167462977
 10
-9.206741114417047
 20
-1.983237545535798
 10
-9.078635798046253
 20
-1.99933792124892
 10
-8.949241745174055
 20
-2.0152940990673684
 10
-8.818649024615473
 20
-2.0309733886408003
 10
-8.6867683099777
 20
-2.046419525137853
 10
-8.553644078851587
 20
-2.061632879769635
 10
-8.41932043761688
 20
-2.076658301338105
 10
-8.283753651104941
 20
-2.0914064634504514
 10
-8.14698745448441
 20
-2.1059666924994866
 10
-8.00906669655724
 20
-2.120294882105465
 10
-7.869903164563948
 20
-2.1343013346644675
 10
-7.729585813686238
 20
-2.147986792598707
 10
-7.588113530290784
 20
-2.1614846886807424
 10
-7.44548631437759
 20
-2.1747950229105752
 10
-7.301704165946653
 20
-2.187917795288204
 10
-7.15681267622215
 20
-2.200719944252178
 10
-7.010812587626294
 20
-2.213112514620792
 10
-6.863657937723807
 20
-2.225273045546349
 10
-6.715437681696389
 20
-2.237202279451065
 10
-6.566108084375404
 20
-2.248810889942126
 10
-6.415714365773922
 20
-2.2600102930489347
 10
-6.264255412258619
 20
-2.2709339215440485
 10
-6.11177495899813
 20
-2.281671101820281
 10
-5.958229270823821
 20
-2.2921325074848196
 10
-5.8036194613690135
 20
-2.3021847057651046
 10
-5.648033743393197
 20
-2.3119173942650577
 10
-5.491471745685263
 20
-2.3213750505755315
 10
-5.333844513063511
 20
-2.3305569322743107
 10
-5.175285849511601
 20
-2.3394196754038648
 10
-5.015752019860901
 20
-2.3478739535713813
 10
-4.855243024111403
 20
-2.35591976677686
 10
-4.693802968642859
 20
-2.3636019638222607
 10
-4.531429997399731
 20
-2.371142932661848
 10
-4.368169701606191
 20
-2.3784096117341704
 10
-4.203979088515817
 20
-2.3852237194647095
 10
-4.038857786917504
 20
-2.3916297334443186
 10
-3.8728947519929537
 20
-2.3976283960952114
 10
-3.7060440213068873
 20
-2.4033972465696922
 10
-3.53835081487237
 20
-2.408847700897163
 10
-3.369815132689403
 20
-2.4139797590776246
 10
-3.2004377171802
 20
-2.4187044659293697
 10
-3.030218197133655
 20
-2.423066299043253
 10
-2.8592447853092575
 20
-2.427154956023193
 10
-2.6874292689475197
 20
-2.43088073926527
 10
-2.514861345652355
 20
-2.4341554360099935
 10
-2.3415406442126634
 20
-2.4370235238482167
 10
-2.167466793417333
 20
-2.439529480370792
 10
-1.9925956868866213
 20
-2.4416284567757587
 10
-1.8170614998153019
 20
-2.443232611514735
 10
-1.6408201258236241
 20
-2.444297095785759
 10
-1.4638248600540946
 20
-2.44508840392284
 10
-1.2861650288995268
 20
-2.4455628007573416
 10
-1.1078873372174172
 20
-2.4454537919552535
 10
-0.9289017161927392
 20
-2.444894067866919
 10
-0.7492522722052342
 20
-2.443928477294299
 10
-0.5690287028588265
 20
-2.442468807477902
 10
-0.38814242418291733
 20
-2.440469838404661
 10
-0.20668239135921113
 20
-2.437932312496791
 10
-0.02460264195242607
 20
-2.435033768906595
 10
0.15805160402437093
 20
-2.4316856236634754
 10
0.34123401292479066
 20
-2.4276658600242755
 10
0.5249901759730041
 20
-2.4231075395504464
 10
0.7092771004225938
 20
-2.418188943816506
 10
0.8940491950493803
 20
-2.4127770112610047
 10
1.079350566233112
 20
-2.406826893081981
 10
1.2651374788051495
 20
-2.400427915672249
 10
1.451408447921062
 20
-2.3934021686683966
 10
1.6381634735808521
 20
-2.3857496520704236
 10
1.825359563038096
 20
-2.3776486474528498
 10
2.0129526099130444
 20
-2.3691440036176346
 10
2.2009867205854494
 20
-2.360190871762818
 10
2.3894163038311325
 20
-2.3506561903269487
 10
2.578242102072305
 20
-2.3406289144917323
 10
2.767464115308977
 20
-2.330109044257169
 10
2.957037865950284
 20
-2.319096950834367
 10
3.146962240362911
 20
-2.3074592014507664
 10
3.337237980969073
 20
-2.2952847512880745
 10
3.5277776174314885
 20
-2.2827522531319158
 10
3.718669733720761
 20
-2.269816486969223
 10
3.9098242610218605
 20
-2.2563447624496527
 10
4.101286048136748
 20
-2.2423811859529508
 10
4.292966139883717
 20
-2.227926499901331
 10
4.484909385064728
 20
-2.2130248106745403
 10
4.677115412468672
 20
-2.1976316406817245
 10
4.869495638124959
 20
-2.1817922099359515
 10
5.062095282046646
 20
-2.1655951024078193
 10
5.25491397302263
 20
-2.1489958405064753
 10
5.447862384660098
 20
-2.1319506890632827
 10
5.640985365761012
 20
-2.114503754457985
 10
5.8342391811567325
 20
-2.0967443630833955
 10
6.0276668235936794
 20
-2.078494233364997
 10
6.221180080312368
 20
-2.0598430629067086
 10
6.414779693735007
 20
-2.0408798068902363
 10
6.608465292650496
 20
-2.0215599877247272
 10
6.802236134636611
 20
-2.001794650228476
 10
6.996092962115578
 20
-1.9816727495831878
 10
7.189947562327897
 20
-1.9612839833927833
 10
7.383843670442211
 20
-1.9405390252644494
 10
7.5777379225009875
 20
-1.919571679181852
 10
7.771629204870903
 20
-1.8982485123724324
 10
7.965517146340854
 20
-1.8765250472453383
 10
8.159402489333052
 20
-1.8544902389822748
 10
8.353197392299114
 20
-1.8322782627780156
 10
8.546946332829894
 20
-1.809888747421453
 10
8.740603719701218
 20
-1.7871886313511356
 10
8.934169924124193
 20
-1.7642223921579165
 10
9.127644946098817
 20
-1.740990029841796
 10
9.321029156836195
 20
-1.7175360219936266
 10
9.514233229943523
 20
-1.6938166334447704
 10
9.707302014222753
 20
-1.6698759705749733
 10
9.900191403294142
 20
-1.6457588821861941
 10
10.092946617170758
 20
-1.621553952249032
 10
10.285477215826468
 20
-1.5970840128222907
 10
10.477783570472374
 20
-1.5723935414968224
 10
10.669912014754868
 20
-1.5477045550157842
 10
10.861771366225607
 20
-1.5227509302562734
 10
11.053361253673474
 20
-1.4974881896274388
 10
11.244728381955973
 20
-1.472182827463288
 10
11.435784538313603
 20
-1.4469245413677416
 10
11.626571973070584
 20
-1.4214460945845766
 10
11.817046579847167
 20
-1.3957923359157522
 10
12.007163881052497
 20
-1.3699636365723762
 10
12.196969096699645
 20
-1.3440485805250468
 10
12.386418120408859
 20
-1.3180920165757237
 10
12.575511323391257
 20
-1.2921384223152603
 10
12.764203485633761
 20
-1.2660992137730582
 10
12.952493864714162
 20
-1.2398854357674114
 10
13.140383574265785
 20
-1.2136305210708789
 10
13.32787261428862
 20
-1.1873344696834605
 10
13.51487240081208
 20
-1.1610425016182235
 10
13.70147188901786
 20
-1.1347538744529533
 10
13.88758101009094
 20
-1.1083358978373066
 10
14.073200135242425
 20
-1.0818330493621358
 10
14.25833112052785
 20
-1.0554677169817048
 10
14.442973594736113
 20
-1.0291954231051608
 10
14.627037860263288
 20
-1.0029279549730132
 10
14.810613243502194
 20
-0.9767090477539001
 10
14.993610418060014
 20
-0.9504949662791833
 10
15.176073861527597
 20
-0.9242853393377556
 10
15.357959838736312
 20
-0.8981694933224299
 10
15.539223872095304
 20
-0.8721477994443133
 10
15.719911181617634
 20
-0.8463088416740041
 10
15.89993169848829
 20
-0.8205199296611587
 10
16.07937437788896
 20
-0.7947803209835627
 10
16.258149893426847
 20
-0.7690462804725778
 10
16.436260472368577
 20
-0.7435846736733206
 10
16.613661637123315
 20
-0.7183958717968985
 10
16.79044011560611
 20
-0.6932122668759804
 10
16.9664621038333
 20
-0.6679904949530353
 10
17.141819526675462
 20
-0.6430856343326707
 10
17.316423057739758
 20
-0.6184539498462489
 10
17.490271212181785
 20
-0.5939175311303583
 10
17.663363990001518
 20
-0.5694763781849993
 10
17.83570176241009
 20
-0.5451749686010248
 10
18.007286385463004
 20
-0.5212356903326982
 10
18.178028161556377
 20
-0.4975703306205289
 10
18.348014932238573
 20
-0.47404471426974387
 10
18.517157742327893
 20
-0.450659583702558
 10
18.685457334246543
 20
-0.42750389410067674
 10
18.852914450416748
 20
-0.4046666006458055
 10
19.019528348416284
 20
-0.3820587481562389
 10
19.1852545506543
 20
-0.35968070784308437
 10
19.35013827714386
 20
-0.3376210636769399
 10
19.51409057270328
 20
-0.3158805580800202
 10
19.677154801290065
 20
-0.29432538706865996
 10
19.839242007722522
 20
-0.2729562930650737
 10
20.000486367195418
 20
-0.25186111761764485
 10
20.160710711767564
 20
-0.2311303007525084
 10
20.32000399662066
 20
-0.2107631000474497
 10
20.478365850543604
 20
-0.1907150379116159
 10
20.635706575932463
 20
-0.17089790158551638
 10
20.79202654399836
 20
-0.15135616866000384
 10
20.947415081134103
 20
-0.13213357430371617
 10
21.10173912577824
 20
-0.11327570974082839
 10
21.25504389794384
 20
-0.09487115894193862
 10
21.407283806406717
 20
-0.07678686034559604
 10
21.55850295754663
 20
-0.05897796514984042
 10
21.708657244983833
 20
-0.04148932215663194
 10
21.857746668718317
 20
-0.02432093136597066
 10
22.005727864792558
 20
-0.0076065967615221415
 10
22.15264419716409
 20
0.008787485640379226
 10
22.298407081862305
 20
0.02481609582666585
 10
22.443060254055844
 20
0.04056856019015057
 10
22.586604827378032
 20
0.0559114459582753
 10
22.72899669544913
 20
0.07079990432907983
 10
22.870234744635805
 20
0.08536736807512234
 10
23.010318974938055
 20
0.09961383719640288
 10
23.149249386355887
 20
0.11353931169292138
 10
23.28693776612982
 20
0.1270540939607577
 10
23.423473811863747
 20
0.14006997124042092
 10
23.55881118991131
 20
0.1528089602750676
 10
23.692905793892738
 20
0.16522621226273732
 10
23.8258021013989
 20
0.17732209841453778
 10
23.95745637726115
 20
0.18900729233765584
 10
24.08782377267753
 20
0.20032590041183698
 10
24.216992871618636
 20
0.21132314265014862
 10
24.34487583253609
 20
0.22186484385781793
 10
24.47147191300767
 20
0.23203995921655016
 10
24.596781484244488
 20
0.2418040111354927
 10
24.72080343261322
 20
0.2512904323872038
 10
24.843538500536084
 20
0.26041026778997783
 10
24.96494221042223
 20
0.26916314613270753
 10
25.08501493348276
 20
0.27750458982454007
 10
25.20380077609741
 20
0.2854794476674356
 10
25.32121041187338
 20
0.2931314548300321
 10
25.437243840810666
 20
0.3004606113123295
 10
25.551945911711236
 20
0.30742281073458255
 10
25.66531699578619
 20
0.3139735755059384
 10
25.777267024220492
 20
0.32024559597674057
 10
25.887840474605007
 20
0.32623924335809634
 10
25.997038460573062
 20
0.33182108487744766
 10
26.104816133322686
 20
0.3370352269145397
 10
26.21117275043166
 20
0.3419706246510779
 10
26.316153531913056
 20
0.3465386941164644
 10
26.41966989379629
 20
0.35069421529763145
 10
26.521765571249986
 20
0.35452651458739215
 10
26.622440193063035
 20
0.358080069576599
 10
26.721649281644584
 20
0.3613545090541446
 10
26.81939357941686
 20
0.3642608778383238
 10
26.91567271516874
 20
0.3668436535199889
 10
27.010485946478024
 20
0.36919179128084556
 10
27.103833644555817
 20
0.37126081353004126
 10
27.195672074233467
 20
0.37296139387476274
 10
27.286001235510984
 20
0.37429353231501017
 10
27.37486412113478
 20
0.3754355104253018
 10
27.462216624725137
 20
0.3763424794036778
 10
27.548058746282035
 20
0.3770144392501379
 10
27.632390857016578
 20
0.3774069123738294
 10
27.715168479337922
 20
0.3775195275636449
 10
27.796436090836924
 20
0.3773526560306918
 10
27.876148471500493
 20
0.37699488174556817
 10
27.954306363750874
 20
0.3763572495265686
 10
28.030909025165837
 20
0.3755287145553985
 10
28.106001675758456
 20
0.37442069286145985
 10
28.179494617924796
 20
0.37312139720424325
 10
28.25143195804462
 20
0.3716756763857088
 10
28.32176958973817
 20
0.3700386816038965
 10
28.39055236180741
 20
0.3681663064790609
 10
28.457735054239283
 20
0.3661471349818001
 10
28.52336288704684
 20
0.3638925831415161
 10
28.587345791415057
 20
0.36153534130855225
 10
28.64977309373676
 20
0.3590316743142705
 10
28.71055583883022
 20
0.3563808397364562
 10
28.769738504286316
 20
0.35358320878621674
 10
28.827321090105034
 20
0.3506387814635521
 10
28.883303225075267
 20
0.34759203535931493
 10
28.937640802817267
 20
0.3443981216715452
 10
28.990333080908822
 20
0.3411459955819483
 10
29.041424908151903
 20
0.33779155071077904
 10
29.090871435744532
 20
0.33437889343778254
 10
29.138673034897824
 20
0.3308635461721062
 10
29.18482933440067
 20
0.3272899865046028
 10
29.22934070546419
 20
0.32361373684441946
 10
29.272206776877265
 20
0.3198792747824091
 10
29.313426806217677
 20
0.31617555550027693
 10
29.35295705831679
 20
0.3124132526052103
 10
29.390886117145204
 20
0.30863758611027664
 10
29.42708017871926
 20
0.3048919199730066
 10
29.461673047022607
 20
0.3011328902358695
 10
29.49457576687356
 20
0.29735975447665064
 10
29.52578759584989
 20
0.2936614678770554
 10
29.555353382753562
 20
0.2899939240573385
 10
29.58322864999372
 20
0.28635675180639253
 10
29.609412655148155
 20
0.28283890630592307
 10
29.63395061822993
 20
0.27935180358533185
 10
29.656797319225976
 20
0.27598402761521706
 10
29.677953129347404
 20
0.27269110080472597
 10
29.697417306172
 20
0.269561978335564
 10
29.71519022091088
 20
0.2665521826168786
 10
29.731315979943762
 20
0.2637065624506295
 10
29.745705628088967
 20
0.26102437541460227
 10
29.758403271726227
 20
0.258550470310757
 10
29.769453388446394
 20
0.2562852183502009
 10
29.77876702306778
 20
0.25422787711071937
 10
29.786387910758997
 20
0.2524677729851253
 10
29.79236090032203
 20
0.2509607995936731
 10
29.796596294152938
 20
0.24979516969585358
 10
29.79913819863148
 20
0.2490157320936271
 10
29.799985871335434
 20
0.24871144196869877
  0
ENDSEC
  0
SECTION
  2
OBJECTS
  0
DICTIONARY
  5
A
330
0
100
AcDbDictionary
280
0
281
1
  3
ACAD_COLOR
350
B
  3
ACAD_GROUP
350
C
  3
ACAD_LAYOUT
350
D
  3
ACAD_MATERIAL
350
E
  3
ACAD_MLEADERSTYLE
350
F
  3
ACAD_MLINESTYLE
350
10
  3
ACAD_PLOTSETTINGS
350
11
  3
ACAD_PLOTSTYLENAME
350
12
  3
ACAD_SCALELIST
350
14
  3
ACAD_TABLESTYLE
350
15
  3
ACAD_VISUALSTYLE
350
16
  3
EZDXF_META
350
2D
  0
DICTIONARY
  5
B
330
A
100
AcDbDictionary
280
0
281
1
  0
DICTIONARY
  5
C
330
A
100
AcDbDictionary
280
0
281
1
  0
DICTIONARY
  5
D
330
A
100
AcDbDictionary
280
0
281
1
  3
Model
350
1A
  3
Layout1
350
1E
  0
DICTIONARY
  5
E
330
A
100
AcDbDictionary
280
0
281
1
  3
ByBlock
350
1F
  3
ByLayer
350
20
  3
Global
350
21
  0
DICTIONARY
  5
F
330
A
100
AcDbDictionary
280
0
281
1
  3
Standard
350
2C
  0
DICTIONARY
  5
10
330
A
100
AcDbDictionary
280
0
281
1
  3
Standard
350
22
  0
DICTIONARY
  5
11
330
A
100
AcDbDictionary
280
0
281
1
  0
ACDBDICTIONARYWDFLT
  5
12
330
A
100
AcDbDictionary
280
0
281
1
  3
Normal
350
13
100
AcDbDictionaryWithDefault
340
13
  0
ACDBPLACEHOLDER
  5
13
330
12
  0
DICTIONARY
  5
14
330
A
100
AcDbDictionary
280
0
281
1
  0
DICTIONARY
  5
15
330
A
100
AcDbDictionary
280
0
281
1
  0
DICTIONARY
  5
16
330
A
100
AcDbDictionary
280
0
281
1
  0
LAYOUT
  5
1A
330
D
100
AcDbPlotSettings
  1

  4
A3
  6

 40
7.5
 41
20.0
 42
7.5
 43
20.0
 44
420.0
 45
297.0
 46
0.0
 47
0.0
 48
0.0
 49
0.0
140
0.0
141
0.0
142
1.0
143
1.0
 70
1024
 72
1
 73
0
 74
5
  7

 75
16
 76
0
 77
2
 78
300
147
1.0
148
0.0
149
0.0
100
AcDbLayout
  1
Model
 70
1
 71
0
 10
0.0
 20
0.0
 11
420.0
 21
297.0
 12
0.0
 22
0.0
 32
0.0
 14
1e+20
 24
1e+20
 34
1e+20
 15
-1e+20
 25
-1e+20
 35
-1e+20
146
0.0
 13
0.0
 23
0.0
 33
0.0
 16
1.0
 26
0.0
 36
0.0
 17
0.0
 27
1.0
 37
0.0
 76
1
330
17
  0
LAYOUT
  5
1E
330
D
100
AcDbPlotSettings
  1

  4
A3
  6

 40
7.5
 41
20.0
 42
7.5
 43
20.0
 44
420.0
 45
297.0
 46
0.0
 47
0.0
 48
0.0
 49
0.0
140
0.0
141
0.0
142
1.0
143
1.0
 70
0
 72
1
 73
0
 74
5
  7

 75
16
 76
0
 77
2
 78
300
147
1.0
148
0.0
149
0.0
100
AcDbLayout
  1
Layout1
 70
1
 71
1
 10
0.0
 20
0.0
 11
420.0
 21
297.0
 12
0.0
 22
0.0
 32
0.0
 14
1e+20
 24
1e+20
 34
1e+20
 15
-1e+20
 25
-1e+20
 35
-1e+20
146
0.0
 13
0.0
 23
0.0
 33
0.0
 16
1.0
 26
0.0
 36
0.0
 17
0.0
 27
1.0
 37
0.0
 76
1
330
1B
  0
MATERIAL
  5
1F
102
{ACAD_REACTORS
330
E
102
}
330
E
100
AcDbMaterial
  1
ByBlock
  2

 70
0
 40
1.0
 71
1
 41
1.0
 91
-1023410177
 42
1.0
 72
1
  3

 73
1
 74
1
 75
1
 44
0.5
 73
0
 45
1.0
 46
1.0
 77
1
  4

 78
1
 79
1
170
1
 48
1.0
171
1
  6

172
1
173
1
174
1
140
1.0
141
1.0
175
1
  7

176
1
177
1
178
1
143
1.0
179
1
  8

270
1
271
1
272
1
145
1.0
146
1.0
273
1
  9

274
1
275
1
276
1
 42
1.0
 72
1
  3

 73
1
 74
1
 75
1
 94
63
  0
MATERIAL
  5
20
102
{ACAD_REACTORS
330
E
102
}
330
E
100
AcDbMaterial
  1
ByLayer
  2

 70
0
 40
1.0
 71
1
 41
1.0
 91
-1023410177
 42
1.0
 72
1
  3

 73
1
 74
1
 75
1
 44
0.5
 73
0
 45
1.0
 46
1.0
 77
1
  4

 78
1
 79
1
170
1
 48
1.0
171
1
  6

172
1
173
1
174
1
140
1.0
141
1.0
175
1
  7

176
1
177
1
178
1
143
1.0
179
1
  8

270
1
271
1
272
1
145
1.0
146
1.0
273
1
  9

274
1
275
1
276
1
 42
1.0
 72
1
  3

 73
1
 74
1
 75
1
 94
63
  0
MATERIAL
  5
21
102
{ACAD_REACTORS
330
E
102
}
330
E
100
AcDbMaterial
  1
Global
  2

 70
0
 40
1.0
 71
1
 41
1.0
 91
-1023410177
 42
1.0
 72
1
  3

 73
1
 74
1
 75
1
 44
0.5
 73
0
 45
1.0
 46
1.0
 77
1
  4

 78
1
 79
1
170
1
 48
1.0
171
1
  6

172
1
173
1
174
1
140
1.0
141
1.0
175
1
  7

176
1
177
1
178
1
143
1.0
179
1
  8

270
1
271
1
272
1
145
1.0
146
1.0
273
1
  9

274
1
275
1
276
1
 42
1.0
 72
1
  3

 73
1
 74
1
 75
1
 94
63
  0
MLINESTYLE
  5
22
102
{ACAD_REACTORS
330
10
102
}
330
10
100
AcDbMlineStyle
  2
Standard
 70
0
  3

 62
256
 51
90.0
 52
90.0
 71
2
 49
0.5
 62
256
  6
BYLAYER
 49
-0.5
 62
256
  6
BYLAYER
  0
MLEADERSTYLE
  5
2C
102
{ACAD_REACTORS
330
F
102
}
330
F
100
AcDbMLeaderStyle
179
2
170
2
171
1
172
0
 90
2
 40
0.0
 41
0.0
173
1
 91
-1056964608
 92
-2
290
1
 42
2.0
291
1
 43
8.0
  3
Standard
 44
4.0
300

342
29
174
1
175
1
176
0
178
1
 93
-1056964608
 45
4.0
292
0
297
0
 46
4.0
 94
-1056964608
 47
1.0
 49
1.0
140
1.0
294
1
141
0.0
177
0
142
1.0
295
0
296
0
143
3.75
271
0
272
9
273
9
  0
DICTIONARY
  5
2D
330
A
100
AcDbDictionary
280
1
281
1
  3
CREATED_BY_EZDXF
350
2E
  3
WRITTEN_BY_EZDXF
350
32
  0
DICTIONARYVAR
  5
2E
330
2D
100
DictionaryVariables
280
0
  1
1.3.5 @ 2025-08-20T01:05:14.908134+00:00
  0
DICTIONARYVAR
  5
32
330
2D
100
DictionaryVariables
280
0
  1
1.3.5 @ 2025-08-20T01:05:14.914844+00:00
  0
ENDSEC
  0
EOF
