  0
SECTION
  2
HEADER
  9
$ACADVER
  1
AC1032
  9
$ACADMAINTVER
 90
4
  9
$DWGCODEPAGE
  3
ANSI_1252
  9
$LASTSAVEDBY
  1
ezdxf
  9
$REQUIREDVERSIONS
160
0
  9
$INSBASE
 10
0.0
 20
0.0
 30
0.0
  9
$EXTMIN
 10
1e+20
 20
1e+20
 30
1e+20
  9
$EXTMAX
 10
-1e+20
 20
-1e+20
 30
-1e+20
  9
$LIMMIN
 10
0.0
 20
0.0
  9
$LIMMAX
 10
420.0
 20
297.0
  9
$ORTHOMODE
 70
0
  9
$REGENMODE
 70
1
  9
$FILLMODE
 70
1
  9
$QTEXTMODE
 70
0
  9
$MIRRTEXT
 70
1
  9
$LTSCALE
 40
1.0
  9
$ATTMODE
 70
1
  9
$TEXTSIZE
 40
2.5
  9
$TRACEWID
 40
1.0
  9
$TEXTSTYLE
  7
Standard
  9
$CLAYER
  8
0
  9
$CELTYPE
  6
ByLayer
  9
$CECOLOR
 62
256
  9
$CELTSCALE
 40
1.0
  9
$DISPSILH
 70
0
  9
$DIMSCALE
 40
1.0
  9
$DIMASZ
 40
2.5
  9
$DIMEXO
 40
0.625
  9
$DIMDLI
 40
3.75
  9
$DIMRND
 40
0.0
  9
$DIMDLE
 40
0.0
  9
$DIMEXE
 40
1.25
  9
$DIMTP
 40
0.0
  9
$DIMTM
 40
0.0
  9
$DIMTXT
 40
2.5
  9
$DIMCEN
 40
2.5
  9
$DIMTSZ
 40
0.0
  9
$DIMTOL
 70
0
  9
$DIMLIM
 70
0
  9
$DIMTIH
 70
0
  9
$DIMTOH
 70
0
  9
$DIMSE1
 70
0
  9
$DIMSE2
 70
0
  9
$DIMTAD
 70
1
  9
$DIMZIN
 70
8
  9
$DIMBLK
  1

  9
$DIMASO
 70
1
  9
$DIMSHO
 70
1
  9
$DIMPOST
  1

  9
$DIMAPOST
  1

  9
$DIMALT
 70
0
  9
$DIMALTD
 70
3
  9
$DIMALTF
 40
0.03937007874
  9
$DIMLFAC
 40
1.0
  9
$DIMTOFL
 70
1
  9
$DIMTVP
 40
0.0
  9
$DIMTIX
 70
0
  9
$DIMSOXD
 70
0
  9
$DIMSAH
 70
0
  9
$DIMBLK1
  1

  9
$DIMBLK2
  1

  9
$DIMSTYLE
  2
ISO-25
  9
$DIMCLRD
 70
0
  9
$DIMCLRE
 70
0
  9
$DIMCLRT
 70
0
  9
$DIMTFAC
 40
1.0
  9
$DIMGAP
 40
0.625
  9
$DIMJUST
 70
0
  9
$DIMSD1
 70
0
  9
$DIMSD2
 70
0
  9
$DIMTOLJ
 70
0
  9
$DIMTZIN
 70
8
  9
$DIMALTZ
 70
0
  9
$DIMALTTZ
 70
0
  9
$DIMUPT
 70
0
  9
$DIMDEC
 70
2
  9
$DIMTDEC
 70
2
  9
$DIMALTU
 70
2
  9
$DIMALTTD
 70
3
  9
$DIMTXSTY
  7
Standard
  9
$DIMAUNIT
 70
0
  9
$DIMADEC
 70
0
  9
$DIMALTRND
 40
0.0
  9
$DIMAZIN
 70
0
  9
$DIMDSEP
 70
44
  9
$DIMATFIT
 70
3
  9
$DIMFRAC
 70
0
  9
$DIMLDRBLK
  1

  9
$DIMLUNIT
 70
2
  9
$DIMLWD
 70
-2
  9
$DIMLWE
 70
-2
  9
$DIMTMOVE
 70
0
  9
$DIMFXL
 40
1.0
  9
$DIMFXLON
 70
0
  9
$DIMJOGANG
 40
0.785398163397
  9
$DIMTFILL
 70
0
  9
$DIMTFILLCLR
 70
0
  9
$DIMARCSYM
 70
0
  9
$DIMLTYPE
  6

  9
$DIMLTEX1
  6

  9
$DIMLTEX2
  6

  9
$DIMTXTDIRECTION
 70
0
  9
$LUNITS
 70
2
  9
$LUPREC
 70
4
  9
$SKETCHINC
 40
1.0
  9
$FILLETRAD
 40
10.0
  9
$AUNITS
 70
0
  9
$AUPREC
 70
2
  9
$MENU
  1
.
  9
$ELEVATION
 40
0.0
  9
$PELEVATION
 40
0.0
  9
$THICKNESS
 40
0.0
  9
$LIMCHECK
 70
0
  9
$CHAMFERA
 40
0.0
  9
$CHAMFERB
 40
0.0
  9
$CHAMFERC
 40
0.0
  9
$CHAMFERD
 40
0.0
  9
$SKPOLY
 70
0
  9
$TDCREATE
 40
2460908.0869675926
  9
$TDUCREATE
 40
2458532.153996898
  9
$TDUPDATE
 40
2460908.0869675926
  9
$TDUUPDATE
 40
2458532.1544311
  9
$TDINDWG
 40
0.0
  9
$TDUSRTIMER
 40
0.0
  9
$USRTIMER
 70
1
  9
$ANGBASE
 50
0.0
  9
$ANGDIR
 70
0
  9
$PDMODE
 70
0
  9
$PDSIZE
 40
0.0
  9
$PLINEWID
 40
0.0
  9
$SPLFRAME
 70
0
  9
$SPLINETYPE
 70
6
  9
$SPLINESEGS
 70
8
  9
$HANDSEED
  5
33
  9
$SURFTAB1
 70
6
  9
$SURFTAB2
 70
6
  9
$SURFTYPE
 70
6
  9
$SURFU
 70
6
  9
$SURFV
 70
6
  9
$UCSBASE
  2

  9
$UCSNAME
  2

  9
$UCSORG
 10
0.0
 20
0.0
 30
0.0
  9
$UCSXDIR
 10
1.0
 20
0.0
 30
0.0
  9
$UCSYDIR
 10
0.0
 20
1.0
 30
0.0
  9
$UCSORTHOREF
  2

  9
$UCSORTHOVIEW
 70
0
  9
$UCSORGTOP
 10
0.0
 20
0.0
 30
0.0
  9
$UCSORGBOTTOM
 10
0.0
 20
0.0
 30
0.0
  9
$UCSORGLEFT
 10
0.0
 20
0.0
 30
0.0
  9
$UCSORGRIGHT
 10
0.0
 20
0.0
 30
0.0
  9
$UCSORGFRONT
 10
0.0
 20
0.0
 30
0.0
  9
$UCSORGBACK
 10
0.0
 20
0.0
 30
0.0
  9
$PUCSBASE
  2

  9
$PUCSNAME
  2

  9
$PUCSORG
 10
0.0
 20
0.0
 30
0.0
  9
$PUCSXDIR
 10
1.0
 20
0.0
 30
0.0
  9
$PUCSYDIR
 10
0.0
 20
1.0
 30
0.0
  9
$PUCSORTHOREF
  2

  9
$PUCSORTHOVIEW
 70
0
  9
$PUCSORGTOP
 10
0.0
 20
0.0
 30
0.0
  9
$PUCSORGBOTTOM
 10
0.0
 20
0.0
 30
0.0
  9
$PUCSORGLEFT
 10
0.0
 20
0.0
 30
0.0
  9
$PUCSORGRIGHT
 10
0.0
 20
0.0
 30
0.0
  9
$PUCSORGFRONT
 10
0.0
 20
0.0
 30
0.0
  9
$PUCSORGBACK
 10
0.0
 20
0.0
 30
0.0
  9
$USERI1
 70
0
  9
$USERI2
 70
0
  9
$USERI3
 70
0
  9
$USERI4
 70
0
  9
$USERI5
 70
0
  9
$USERR1
 40
0.0
  9
$USERR2
 40
0.0
  9
$USERR3
 40
0.0
  9
$USERR4
 40
0.0
  9
$USERR5
 40
0.0
  9
$WORLDVIEW
 70
1
  9
$SHADEDGE
 70
3
  9
$SHADEDIF
 70
70
  9
$TILEMODE
 70
1
  9
$MAXACTVP
 70
64
  9
$PINSBASE
 10
0.0
 20
0.0
 30
0.0
  9
$PLIMCHECK
 70
0
  9
$PEXTMIN
 10
1e+20
 20
1e+20
 30
1e+20
  9
$PEXTMAX
 10
-1e+20
 20
-1e+20
 30
-1e+20
  9
$PLIMMIN
 10
0.0
 20
0.0
  9
$PLIMMAX
 10
420.0
 20
297.0
  9
$UNITMODE
 70
0
  9
$VISRETAIN
 70
1
  9
$PLINEGEN
 70
0
  9
$PSLTSCALE
 70
1
  9
$TREEDEPTH
 70
3020
  9
$CMLSTYLE
  2
Standard
  9
$CMLJUST
 70
0
  9
$CMLSCALE
 40
20.0
  9
$PROXYGRAPHICS
 70
1
  9
$MEASUREMENT
 70
1
  9
$CELWEIGHT
370
-1
  9
$ENDCAPS
280
0
  9
$JOINSTYLE
280
0
  9
$LWDISPLAY
290
0
  9
$INSUNITS
 70
6
  9
$HYPERLINKBASE
  1

  9
$STYLESHEET
  1

  9
$XEDIT
290
1
  9
$CEPSNTYPE
380
0
  9
$PSTYLEMODE
290
1
  9
$FINGERPRINTGUID
  2
{0E0E30B4-2415-4C50-9F68-956FD2014BAB}
  9
$VERSIONGUID
  2
{DCEF5FDF-EDC2-4E43-825D-BF7C96752CAF}
  9
$EXTNAMES
290
1
  9
$PSVPSCALE
 40
0.0
  9
$OLESTARTUP
290
0
  9
$SORTENTS
280
127
  9
$INDEXCTL
280
0
  9
$HIDETEXT
280
1
  9
$XCLIPFRAME
280
1
  9
$HALOGAP
280
0
  9
$OBSCOLOR
 70
257
  9
$OBSLTYPE
280
0
  9
$INTERSECTIONDISPLAY
280
0
  9
$INTERSECTIONCOLOR
 70
257
  9
$DIMASSOC
280
2
  9
$PROJECTNAME
  1

  9
$CAMERADISPLAY
290
0
  9
$LENSLENGTH
 40
50.0
  9
$CAMERAHEIGHT
 40
0.0
  9
$STEPSPERSEC
 40
24.0
  9
$STEPSIZE
 40
100.0
  9
$3DDWFPREC
 40
2.0
  9
$PSOLWIDTH
 40
0.005
  9
$PSOLHEIGHT
 40
0.08
  9
$LOFTANG1
 40
1.570796326795
  9
$LOFTANG2
 40
1.570796326795
  9
$LOFTMAG1
 40
0.0
  9
$LOFTMAG2
 40
0.0
  9
$LOFTPARAM
 70
7
  9
$LOFTNORMALS
280
1
  9
$LATITUDE
 40
37.795
  9
$LONGITUDE
 40
-122.394
  9
$NORTHDIRECTION
 40
0.0
  9
$TIMEZONE
 70
-8000
  9
$LIGHTGLYPHDISPLAY
280
1
  9
$TILEMODELIGHTSYNCH
280
1
  9
$CMATERIAL
347
20
  9
$SOLIDHIST
280
0
  9
$SHOWHIST
280
1
  9
$DWFFRAME
280
2
  9
$DGNFRAME
280
2
  9
$REALWORLDSCALE
290
1
  9
$INTERFERECOLOR
 62
256
  9
$CSHADOW
280
0
  9
$SHADOWPLANELOCATION
 40
0.0
  0
ENDSEC
  0
SECTION
  2
CLASSES
  0
CLASS
  1
ACDBDICTIONARYWDFLT
  2
AcDbDictionaryWithDefault
  3
ObjectDBX Classes
 90
0
 91
0
280
0
281
0
  0
CLASS
  1
SUN
  2
AcDbSun
  3
SCENEOE
 90
1153
 91
0
280
0
281
0
  0
CLASS
  1
VISUALSTYLE
  2
AcDbVisualStyle
  3
ObjectDBX Classes
 90
4095
 91
0
280
0
281
0
  0
CLASS
  1
MATERIAL
  2
AcDbMaterial
  3
ObjectDBX Classes
 90
1153
 91
0
280
0
281
0
  0
CLASS
  1
SCALE
  2
AcDbScale
  3
ObjectDBX Classes
 90
1153
 91
0
280
0
281
0
  0
CLASS
  1
TABLESTYLE
  2
AcDbTableStyle
  3
ObjectDBX Classes
 90
4095
 91
0
280
0
281
0
  0
CLASS
  1
MLEADERSTYLE
  2
AcDbMLeaderStyle
  3
ACDB_MLEADERSTYLE_CLASS
 90
4095
 91
0
280
0
281
0
  0
CLASS
  1
DICTIONARYVAR
  2
AcDbDictionaryVar
  3
ObjectDBX Classes
 90
0
 91
0
280
0
281
0
  0
CLASS
  1
CELLSTYLEMAP
  2
AcDbCellStyleMap
  3
ObjectDBX Classes
 90
1152
 91
0
280
0
281
0
  0
CLASS
  1
MENTALRAYRENDERSETTINGS
  2
AcDbMentalRayRenderSettings
  3
SCENEOE
 90
1024
 91
0
280
0
281
0
  0
CLASS
  1
ACDBDETAILVIEWSTYLE
  2
AcDbDetailViewStyle
  3
ObjectDBX Classes
 90
1025
 91
0
280
0
281
0
  0
CLASS
  1
ACDBSECTIONVIEWSTYLE
  2
AcDbSectionViewStyle
  3
ObjectDBX Classes
 90
1025
 91
0
280
0
281
0
  0
CLASS
  1
RASTERVARIABLES
  2
AcDbRasterVariables
  3
ISM
 90
0
 91
0
280
0
281
0
  0
CLASS
  1
LAYOUT
  2
AcDbLayout
  3
ObjectDBX Classes
 90
0
 91
0
280
0
281
0
  0
CLASS
  1
ACDBPLACEHOLDER
  2
AcDbPlaceHolder
  3
ObjectDBX Classes
 90
0
 91
0
280
0
281
0
  0
ENDSEC
  0
SECTION
  2
TABLES
  0
TABLE
  2
VPORT
  5
8
330
0
100
AcDbSymbolTable
 70
1
  0
VPORT
  5
23
330
8
100
AcDbSymbolTableRecord
100
AcDbViewportTableRecord
  2
*Active
 70
0
 10
0.0
 20
0.0
 11
1.0
 21
1.0
 12
0.0
 22
0.0
 13
0.0
 23
0.0
 14
0.5
 24
0.5
 15
0.5
 25
0.5
 16
0.0
 26
0.0
 36
1.0
 17
0.0
 27
0.0
 37
0.0
 40
1000.0
 41
1.34
 42
50.0
 43
0.0
 44
0.0
 50
0.0
 51
0.0
 71
0
 72
1000
 73
1
 74
3
 75
0
 76
0
 77
0
 78
0
281
0
 65
0
146
0.0
  0
ENDTAB
  0
TABLE
  2
LTYPE
  5
2
330
0
100
AcDbSymbolTable
 70
3
  0
LTYPE
  5
24
330
2
100
AcDbSymbolTableRecord
100
AcDbLinetypeTableRecord
  2
ByBlock
 70
0
  3

 72
65
 73
0
 40
0.0
  0
LTYPE
  5
25
330
2
100
AcDbSymbolTableRecord
100
AcDbLinetypeTableRecord
  2
ByLayer
 70
0
  3

 72
65
 73
0
 40
0.0
  0
LTYPE
  5
26
330
2
100
AcDbSymbolTableRecord
100
AcDbLinetypeTableRecord
  2
Continuous
 70
0
  3

 72
65
 73
0
 40
0.0
  0
ENDTAB
  0
TABLE
  2
LAYER
  5
1
330
0
100
AcDbSymbolTable
 70
2
  0
LAYER
  5
27
330
1
100
AcDbSymbolTableRecord
100
AcDbLayerTableRecord
  2
0
 70
0
 62
7
  6
Continuous
370
-3
390
13
347
21
  0
LAYER
  5
28
330
1
100
AcDbSymbolTableRecord
100
AcDbLayerTableRecord
  2
Defpoints
 70
0
 62
7
  6
Continuous
290
0
370
-3
390
13
347
21
  0
ENDTAB
  0
TABLE
  2
STYLE
  5
5
330
0
100
AcDbSymbolTable
 70
1
  0
STYLE
  5
29
330
5
100
AcDbSymbolTableRecord
100
AcDbTextStyleTableRecord
  2
Standard
 70
0
 40
0.0
 41
1.0
 50
0.0
 71
0
 42
2.5
  3
txt
  4

  0
ENDTAB
  0
TABLE
  2
VIEW
  5
7
330
0
100
AcDbSymbolTable
 70
0
  0
ENDTAB
  0
TABLE
  2
UCS
  5
6
330
0
100
AcDbSymbolTable
 70
0
  0
ENDTAB
  0
TABLE
  2
APPID
  5
3
330
0
100
AcDbSymbolTable
 70
3
  0
APPID
  5
2A
330
3
100
AcDbSymbolTableRecord
100
AcDbRegAppTableRecord
  2
ACAD
 70
0
  0
APPID
  5
30
330
3
100
AcDbSymbolTableRecord
100
AcDbRegAppTableRecord
  2
HATCHBACKGROUNDCOLOR
 70
0
  0
APPID
  5
31
330
3
100
AcDbSymbolTableRecord
100
AcDbRegAppTableRecord
  2
EZDXF
 70
0
  0
ENDTAB
  0
TABLE
  2
DIMSTYLE
  5
4
330
0
100
AcDbSymbolTable
 70
1
100
AcDbDimStyleTable
  0
DIMSTYLE
105
2B
330
4
100
AcDbSymbolTableRecord
100
AcDbDimStyleTableRecord
  2
Standard
 70
0
 40
1.0
 41
2.5
 42
0.625
 43
3.75
 44
1.25
 45
0.0
 46
0.0
 47
0.0
 48
0.0
 49
2.5
140
2.5
141
2.5
142
0.0
143
0.03937007874
144
1.0
145
0.0
146
1.0
147
0.625
148
0.0
 69
0
 70
0
 71
0
 72
0
 73
0
 74
0
 75
0
 76
0
 77
1
 78
8
 79
3
170
0
171
3
172
1
173
0
174
0
175
0
176
0
177
0
178
0
179
2
271
2
272
2
273
2
274
3
275
0
276
0
277
2
278
44
279
0
280
0
281
0
282
0
283
0
284
8
285
0
286
0
288
0
289
3
290
0
371
-2
372
-2
  0
ENDTAB
  0
TABLE
  2
BLOCK_RECORD
  5
9
330
0
100
AcDbSymbolTable
 70
2
  0
BLOCK_RECORD
  5
17
330
9
100
AcDbSymbolTableRecord
100
AcDbBlockTableRecord
  2
*Model_Space
340
1A
 70
0
280
1
281
0
  0
BLOCK_RECORD
  5
1B
330
9
100
AcDbSymbolTableRecord
100
AcDbBlockTableRecord
  2
*Paper_Space
340
1E
 70
0
280
1
281
0
  0
ENDTAB
  0
ENDSEC
  0
SECTION
  2
BLOCKS
  0
BLOCK
  5
18
330
17
100
AcDbEntity
  8
0
100
AcDbBlockBegin
  2
*Model_Space
 70
0
 10
0.0
 20
0.0
 30
0.0
  3
*Model_Space
  1

  0
ENDBLK
  5
19
330
17
100
AcDbEntity
  8
0
100
AcDbBlockEnd
  0
BLOCK
  5
1C
330
1B
100
AcDbEntity
  8
0
100
AcDbBlockBegin
  2
*Paper_Space
 70
0
 10
0.0
 20
0.0
 30
0.0
  3
*Paper_Space
  1

  0
ENDBLK
  5
1D
330
1B
100
AcDbEntity
  8
0
100
AcDbBlockEnd
  0
ENDSEC
  0
SECTION
  2
ENTITIES
  0
LWPOLYLINE
  5
2F
330
17
100
AcDbEntity
  8
0
100
AcDbPolyline
 90
721
 70
1
 10
36.89758988295626
 20
1.1790836732011587
 10
36.896531214607755
 20
1.1794357337077104
 10
36.89335872921505
 20
1.1803817731680146
 10
36.888079466083624
 20
1.1817015074633666
 10
36.880634834531044
 20
1.1835033188267403
 10
36.871140256095806
 20
1.1856255138218634
 10
36.85953889992186
 20
1.1881214036520347
 10
36.845777454805905
 20
1.1909341574611998
 10
36.829966062807294
 20
1.1940672949021147
 10
36.81205141272272
 20
1.1974639851187245
 10
36.79197491386976
 20
1.201232610344005
 10
36.769850227960504
 20
1.2052665481713583
 10
36.7456222839653
 20
1.2095640387744078
 10
36.719289322057755
 20
1.2141801531828287
 10
36.69085486189065
 20
1.2190047493372698
 10
36.66031538381119
 20
1.224147969297082
 10
36.62772771867545
 20
1.2295565018589683
 10
36.59303679545376
 20
1.2352285871965496
 10
36.556240854319725
 20
1.2412192963395028
 10
36.517398485955795
 20
1.2474202470548534
 10
36.47645109967952
 20
1.2539398215755764
 10
36.433402215143694
 20
1.2606678778423186
 10
36.38835845475485
 20
1.2677180775671884
 10
36.341156365250384
 20
1.2750300702413757
 10
36.29196115971933
 20
1.282609135344015
 10
36.2406626961023
 20
1.2904517532223494
 10
36.18731604542899
 20
1.2985596837027578
 10
36.131921207699406
 20
1.3069329267852394
 10
36.07447642308714
 20
1.3156265534994707
 10
36.01498169159223
 20
1.3246405638454517
 10
35.953440532867425
 20
1.3338648157638304
 10
35.88984942725995
 20
1.3434094513139585
 10
35.82426520562587
 20
1.3532211592925383
 10
35.75663103710915
 20
1.3633532509028679
 10
35.68695044136251
 20
1.3736955840855944
 10
35.615274969762886
 20
1.3843600607264488
 10
35.54160286248389
 20
1.3954017518551067
 10
35.46593939900468
 20
1.40665544438254
 10
35.388225988642816
 20
1.4182295205417232
 10
35.308574533284016
 20
1.4300724289557356
 10
35.226873131042545
 20
1.4422357210014976
 10
35.14323192397778
 20
1.4547229163317652
 10
35.05759584106003
 20
1.4675322551201602
 10
34.97001995331896
 20
1.4806654971930604
 10
34.8804509495513
 20
1.4940658116944123
 10
34.78894390078672
 20
1.507734958450594
 10
34.69544021634277
 20
1.521781319694579
 10
34.60005179810518
 20
1.5361533440494473
 10
34.502723575044286
 20
1.5508492716888211
 10
34.403455547160085
 20
1.5658691026127003
 10
34.30224771445258
 20
1.5812128368210847
 10
34.19915338812506
 20
1.596937305170029
 10
34.09411925697424
 20
1.6129856768034787
 10
33.987198632203395
 20
1.6294147825774872
 10
33.87839327363894
 20
1.64616955146238
 10
33.7677067009336
 20
1.6631398413988039
 10
33.65519046546431
 20
1.6804375542724885
 10
33.540785976548634
 20
1.698171072316409
 10
33.424493234186556
 20
1.7163403955305647
 10
33.306372588886916
 20
1.7347820706523056
 10
33.186422280823315
 20
1.7535511687113083
 10
33.06464230999574
 20
1.7726476897075714
 10
32.94102739692511
 20
1.7922368467301248
 10
32.81558634074327
 20
1.812043284630587
 10
32.68837069282713
 20
1.832178905294688
 10
32.55937869335034
 20
1.8526987797521046
 10
32.42855351145687
 20
1.873656219206135
 10
32.29600704903239
 20
1.894999672279858
 10
32.16168599487364
 20
1.9166723081172206
 10
32.0255903489806
 20
1.9386741267182217
 10
31.887771662730227
 20
1.9611170299685927
 10
31.748236975427986
 20
1.9837807337496285
 10
31.606927696391466
 20
2.006773620294304
 10
31.463952207853648
 20
2.03015428028505
 10
31.31931050981452
 20
2.0539227137218665
 10
31.172951050897165
 20
2.0779670187190247
 10
31.024872071275215
 20
2.1023422663062
 10
30.875183713008013
 20
2.127051976136148
 10
30.723827385413117
 20
2.152204530441843
 10
30.570808367969686
 20
2.1776347161342575
 10
30.416181731707372
 20
2.2033442930397684
 10
30.259947476626188
 20
2.2293332611583767
 10
30.102102083073376
 20
2.2557117625494336
 10
29.942645551048937
 20
2.282479797212939
 10
29.78157964037925
 20
2.3095822941192186
 10
29.619016252950033
 20
2.3369677018913504
 10
29.454843486875568
 20
2.3646875719062543
 10
29.28911641318553
 20
2.39274366399031
 10
29.121895382388733
 20
2.4209725248808662
 10
28.953123563629102
 20
2.4494274657812207
 10
28.782850748457207
 20
2.47827545960678
 10
28.6111320079027
 20
2.507518266183922
 10
28.437860719559005
 20
2.537042223800539
 10
28.2631523049646
 20
2.566685639020359
 10
28.086999724813968
 20
2.5966687959620844
 10
27.90940473893349
 20
2.6269366235960416
 10
27.73036558749679
 20
2.6575441929519044
 10
27.549940861186297
 20
2.6883831217967002
 10
27.36813056000203
 20
2.719453410130429
 10
27.184879612914276
 20
2.7507532981267113
 10
27.00029640215603
 20
2.78234137646798
 10
26.814325856697625
 20
2.8142158853278585
 10
26.627026567221478
 20
2.84626844247337
 10
26.438398533727597
 20
2.878499047904517
 10
26.24849682724565
 20
2.910909461447676
 10
26.05726461691959
 20
2.943552994306144
 10
25.864753454126333
 20
2.9765415483656543
 10
25.67091354731535
 20
3.009708150710798
 10
25.475908349749265
 20
3.0431131518503856
 10
25.27963475867427
 20
3.076532748012958
 10
25.082091014263963
 20
3.1100220102281897
 10
24.88338197909856
 20
3.1437496712378654
 10
24.6835058933517
 20
3.1777708020716626
 10
24.482357894443155
 20
3.211916669987795
 10
24.28016178614439
 20
3.2460841722324236
 10
24.076754115192752
 20
3.2802129582967376
 10
23.872239744168457
 20
3.3144717609225216
 10
23.666561842215447
 20
3.3489138913130736
 10
23.459832311219472
 20
3.3834877980914735
 10
23.25200135962996
 20
3.418026508342315
 10
23.04312053882386
 20
3.452641923951329
 10
22.8331863291484
 20
3.4874441869778665
 10
22.622207529735476
 20
3.522157942273547
 10
22.410185900411456
 20
3.556728118808696
 10
22.197222784103808
 20
3.591433591384448
 10
21.983209798579566
 20
3.626215769318372
 10
21.768255326071692
 20
3.6611332432928996
 10
21.552369925538468
 20
3.6958555871299748
 10
21.335551837153492
 20
3.730437871859273
 10
21.117797541264036
 20
3.764990239540147
 10
20.899101758390948
 20
3.7996779032616246
 10
20.679581669899097
 20
3.8342840985577578
 10
20.459134173034645
 20
3.868585021657086
 10
20.23791920140748
 20
3.902751165127771
 10
20.015817813826374
 20
3.9370543644654377
 10
19.79289212062649
 20
3.9712760953777595
 10
19.569149161113362
 20
4.005196073746033
 10
19.344695557693587
 20
4.038927961282365
 10
19.119419408481424
 20
4.072523309363676
 10
18.89342909570984
 20
4.106040708672398
 10
18.66667130817555
 20
4.1394233283524775
 10
18.43920463656099
 20
4.17256278617094
 10
18.211084151895825
 20
4.205460841954163
 10
17.982254783150385
 20
4.238115735875769
 10
17.752826672384018
 20
4.270530987588514
 10
17.522689677537368
 20
4.3027030774396415
 10
17.29195042101705
 20
4.33474566714126
 10
17.060610662649417
 20
4.366603685663694
 10
16.82867920156638
 20
4.398001777858561
 10
16.596152518115172
 20
4.429050085785216
 10
16.363138994528764
 20
4.45980720012609
 10
16.12952672892143
 20
4.490324672258101
 10
15.895429383005283
 20
4.520495879774656
 10
15.660848716606699
 20
4.5502657516460765
 10
15.425786489552056
 20
4.5795792168426885
 10
15.190239182188584
 20
4.608546417423841
 10
14.95426010571961
 20
4.637224184245592
 10
14.717849260145101
 20
4.665612517307937
 10
14.481066995973894
 20
4.69354796334823
 10
14.243860002002679
 20
4.720973691510416
 10
14.006285109087507
 20
4.7478363905911944
 10
13.768392108778922
 20
4.774303033505974
 10
13.530120650568115
 20
4.800537073517403
 10
13.291584396167204
 20
4.826431888218886
 10
13.052742353157518
 20
4.851545149546638
 10
12.813583962580804
 20
4.876207283678713
 10
12.574217606670032
 20
4.9004768812975446
 10
12.334591734048281
 20
4.924242040517401
 10
12.094708104541924
 20
4.94744769030861
 10
11.85467158073119
 20
4.970262563412951
 10
11.614428851412772
 20
4.992629828974371
 10
11.374040267095483
 20
5.014386033730222
 10
11.133450756749651
 20
5.035529417854125
 10
10.89276870260824
 20
5.056118572028511
 10
10.651992344844878
 20
5.076208567283057
 10
10.411126962938704
 20
5.0956341905287355
 10
10.170170797063333
 20
5.114450512795219
 10
9.929177158422062
 20
5.132714364938566
 10
9.688085696506088
 20
5.150589200221424
 10
9.447017112333027
 20
5.167748112118494
 10
9.205971405902877
 20
5.184191100629774
 10
8.964946817389261
 20
5.199973236784943
 10
8.723941586965806
 20
5.215149591613675
 10
8.483012545488556
 20
5.229666853912671
 10
8.242102862101467
 20
5.243578334885232
 10
8.001324438690265
 20
5.256832483154435
 10
7.760680794907706
 20
5.269319156660929
 10
7.520170170927411
 20
5.281093426434392
 10
7.279790806923002
 20
5.292210363504496
 10
7.039544462720862
 20
5.302614896841567
 10
6.799544800033092
 20
5.312200404039011
 10
6.559733228177263
 20
5.321075267329799
 10
6.320161298530296
 20
5.329351388599661
 10
6.080782739194403
 20
5.336751652873842
 10
5.841704172576179
 20
5.343389721864446
 10
5.602920319196495
 20
5.349430808660503
 10
5.364381387504806
 20
5.354707940346607
 10
5.1262010392132185
 20
5.359114494516163
 10
4.8883757546689806
 20
5.362760613228521
 10
4.650853982495167
 20
5.36553439459795
 10
4.4137423450983775
 20
5.367549500336562
 10
4.176989291101692
 20
5.3686940285586235
 10
3.9407032027380846
 20
5.369026569946568
 10
3.704768658469064
 20
5.368708817936667
 10
3.4692993200067437
 20
5.367634150122324
 10
3.234302226656636
 20
5.365582282384836
 10
2.9997756185923596
 20
5.362608285753877
 10
2.765769287364459
 20
5.358879133144857
 10
2.532284992799316
 20
5.354339753528095
 10
2.299324494723298
 20
5.348935075873919
 10
2.0669428641660903
 20
5.3426668600087055
 10
1.835081510445259
 20
5.335643488165427
 10
1.6037919849377196
 20
5.327976862229816
 10
1.3731363979786662
 20
5.319448457909545
 10
1.1431182692208512
 20
5.3099481331452605
 10
0.9137340790115156
 20
5.299586029996318
 10
0.685037138553967
 20
5.288418979318769
 10
0.4569723768185195
 20
5.276445221286237
 10
0.22959310500848118
 20
5.263721586754774
 10
0.0029526343271354762
 20
5.2503049065804355
 10
-0.2229970669496639
 20
5.2359731368181395
 10
-0.4482009277922555
 20
5.220728037294263
 10
-0.6726126763028466
 20
5.204846722983564
 10
-0.8962838638583566
 20
5.1882172920003145
 10
-1.1191025885730606
 20
5.170788192967593
 10
-1.3411789925063053
 20
5.152555906232642
 10
-1.5624029335987373
 20
5.13352395144822
 10
-1.7827228604734433
 20
5.1138042305000555
 10
-2.002250675016149
 20
5.093448294765069
 10
-2.2209225070652887
 20
5.072182548921259
 10
-2.4386387735197808
 20
5.050340938799435
 10
-2.6554580650620507
 20
5.028031846632575
 10
-2.871424893763513
 20
5.004923086416242
 10
-3.0863740465351386
 20
4.981019937629573
 10
-3.300365873885737
 20
4.956485853535212
 10
-3.5134021356416842
 20
4.931375905162842
 10
-3.725479312150224
 20
4.905579950453106
 10
-3.936489021178385
 20
4.879156580088437
 10
-4.146541404785517
 20
4.852102274416082
 10
-4.355531600391406
 20
4.824585766177821
 10
-4.56345608834329
 20
4.796496913314305
 10
-4.770313108814796
 20
4.767780644795857
 10
-4.9761044216323
 20
4.738492031652152
 10
-5.18077847541888
 20
4.70874297576892
 10
-5.384390341204214
 20
4.6785317173197845
 10
-5.586826357276195
 20
4.6477516338981495
 10
-5.788086523634821
 20
4.616402725504013
 10
-5.988224151483392
 20
4.5844281612813225
 10
-6.187185929618609
 20
4.551884772086132
 10
-6.384977137519603
 20
4.518937771007468
 10
-6.58154446398308
 20
4.485643988901386
 10
-6.776880869703528
 20
4.451783141649182
 10
-6.971041425710619
 20
4.417353469424477
 10
-7.163859159088953
 20
4.38230518067673
 10
-7.35544949137701
 20
4.3467999688422125
 10
-7.545814182401172
 20
4.3108929049506
 10
-7.734843090102085
 20
4.274587508654649
 10
-7.922534454653371
 20
4.237828708924684
 10
-8.108938067605573
 20
4.2004495328452975
 10
-8.294005897234527
 20
4.162672024361574
 10
-8.477743223019367
 20
4.124661396562538
 10
-8.660086174798526
 20
4.0861440541261915
 10
-8.841089823601676
 20
4.047118237226154
 10
-9.02064754702223
 20
4.007697607574531
 10
-9.19881441608986
 20
3.96788040534495
 10
-9.375592190630941
 20
3.9277217015670844
 10
-9.550920520136666
 20
3.8870580429782833
 10
-9.72480292425979
 20
3.845999571637899
 10
-9.897239403000317
 20
3.8045462875459326
 10
-10.06823699566375
 20
3.7629184748210873
 10
-10.237683800364366
 20
3.7210645820864436
 10
-10.405684679682382
 20
3.6788158766002175
 10
-10.572181042935362
 20
3.636063976129434
 10
-10.737124858399149
 20
3.593030924619177
 10
-10.900574716756168
 20
3.549825104302417
 10
-11.062468507671236
 20
3.5062279908868317
 10
-11.222754679767434
 20
3.4623514862581493
 10
-11.381545134930482
 20
3.4182471417932905
 10
-11.53872973110104
 20
3.373918477145011
 10
-11.694303188799966
 20
3.3292002792242807
 10
-11.848270787506397
 20
3.284257761120132
 10
-12.000634287046712
 20
3.239145993862237
 10
-12.151391927594533
 20
3.1938099064209218
 10
-12.300488638120182
 20
3.1482512586225644
 10
-12.44792265879728
 20
3.1024149794374862
 10
-12.593750820481887
 20
3.056354380068989
 10
-12.737862981114644
 20
3.010072980169826
 10
-12.88026266034831
 20
2.96368092179935
 10
-13.021056480589479
 20
2.9170645432454534
 10
-13.160079228749128
 20
2.8702291239872695
 10
-13.29738421603055
 20
2.8231178331687445
 10
-13.43297848173926
 20
2.7759509549085832
 10
-13.566862025875254
 20
2.7287284892067842
 10
-13.698976257756103
 20
2.6813420538303747
 10
-13.82931941755543
 20
2.6337365777496786
 10
-13.957944816476534
 20
2.585855230108641
 10
-14.084751111591945
 20
2.5379768857083986
 10
-14.20979161410497
 20
2.4900447136928974
 10
-14.33306280436285
 20
2.4419485720027843
 10
-14.454509611335908
 20
2.3936902204644386
 10
-14.5741355546769
 20
2.345379801137212
 10
-14.691937114733069
 20
2.296907171961752
 10
-14.807916051330796
 20
2.2483274039677354
 10
-14.922074124296456
 20
2.1996955681848376
 10
-15.034352742947622
 20
2.150903282380084
 10
-15.144757186763423
 20
2.1021157596425044
 10
-15.253335487468023
 20
2.053110956027015
 10
-15.360039613337257
 20
2.004110915478699
 10
-15.464867804544753
 20
1.95506056696788
 10
-15.56781830126413
 20
1.9059048394648812
 10
-15.668836032465709
 20
1.8566454927960814
 10
-15.767977829005547
 20
1.8073358381647784
 10
-15.865193899333104
 20
1.7581428484863788
 10
-15.960480723795616
 20
1.7089563817015299
 10
-16.05383830239309
 20
1.6597764378102313
 10
-16.14532346598158
 20
1.6106563280157828
 10
-16.23482431267535
 20
1.5615445009412623
 10
-16.322399433156846
 20
1.512549338819645
 10
-16.40799727604913
 20
1.4637827435366604
 10
-16.491672912381883
 20
1.4152429552659311
 10
-16.57336775147268
 20
1.366821591774483
 10
-16.65313862417757
 20
1.3185719642656137
 10
-16.730875388437205
 20
1.2704975923920794
 10
-16.806691705963686
 20
1.2227050985604757
 10
-16.880479194524042
 20
1.1752530734532354
 10
-16.9522894054952
 20
1.128029615184628
 10
-17.022122338877146
 20
1.0810347237546538
 10
-17.089977994669894
 20
1.0342683991633126
 10
-17.155804821496513
 20
0.9878425432963344
 10
-17.219602819357007
 20
0.9417571561537189
 10
-17.281421779801924
 20
0.8958452648200608
 10
-17.341211911280713
 20
0.8502738422107653
 10
-17.398966174487867
 20
0.8048226042071288
 10
-17.454691608728893
 20
0.7597118349278555
 10
-17.508381174698286
 20
0.7147212502542409
 10
-17.5600383920488
 20
0.6699609922456371
 10
-17.609663260780433
 20
0.6254310609020444
 10
-17.65719895003713
 20
0.5810781450201642
 10
-17.702759121531003
 20
0.5370088670065932
 10
-17.74617328269389
 20
0.4930632932514369
 10
-17.78761016626757
 20
0.4493462863349134
 10
-17.82695787036631
 20
0.40580629488010284
 10
-17.864221674469256
 20
0.3626085319760332
 10
-17.899453129953322
 20
0.3196410957369745
 10
-17.932598925615206
 20
0.2769608170189806
 10
-17.963666100760427
 20
0.23478797994075576
 10
-17.992704446939527
 20
0.192955611586894
 10
-18.019662412775574
 20
0.15157561384312532
 10
-18.044543517921333
 20
0.11075812876880173
 10
-18.067354801682313
 20
0.07072344048262755
 10
-18.088096264058528
 20
0.03147154898460267
 10
-18.106826495732385
 20
-0.00688916349229859
 10
-18.123444153776443
 20
-0.044079822146940256
 10
-18.138011348525875
 20
-0.07988190268699585
 10
-18.150600749274144
 20
-0.11374645464208288
 10
-18.16111453274654
 20
-0.14528446115171323
 10
-18.16963592719479
 20
-0.1736165455674477
 10
-18.176248160870607
 20
-0.19786333124084754
 10
-18.180883327547722
 20
-0.2166995938069316
 10
-18.18364049391525
 20
-0.2287503173501763
 10
-18.17343979309786
 20
-0.5807427047110185
 10
-18.17230369238874
 20
-0.5835178905233169
 10
-18.168897150087766
 20
-0.5917883769305361
 10
-18.163227205500437
 20
-0.605333879813972
 10
-18.155208870548663
 20
-0.6250888468517394
 10
-18.14491533093786
 20
-0.6522132893197914
 10
-18.132383026609997
 20
-0.6838417538485951
 10
-18.117611441153116
 20
-0.7182652786918152
 10
-18.100733594369483
 20
-0.7547714601164186
 10
-18.08173137158336
 20
-0.7922020466728302
 10
-18.06056554020247
 20
-0.830059639267588
 10
-18.03735504141805
 20
-0.868072402405067
 10
-18.01205184350594
 20
-0.9060182921401854
 10
-17.984662985771656
 20
-0.943677024354239
 10
-17.95519198786795
 20
-0.9809384569878755
 10
-17.923638849794816
 20
-1.0178025900410952
 10
-17.890060402408313
 20
-1.0542161123105995
 10
-17.854405094331526
 20
-1.0900671219106588
 10
-17.816671165738068
 20
-1.125410689870949
 10
-17.776915447484
 20
-1.160193504988172
 10
-17.735079348886888
 20
-1.194523949495302
 10
-17.691164629773112
 20
-1.2283469523626627
 10
-17.64528495185477
 20
-1.2615558911836582
 10
-17.59726982256371
 20
-1.2943106995681826
 10
-17.547286214815333
 20
-1.3265615859656936
 10
-17.495222226723918
 20
-1.358360101753112
 10
-17.441134689145507
 20
-1.389652935727139
 10
-17.385025361906486
 20
-1.420385016858099
 10
-17.32688896552772
 20
-1.4507215582350192
 10
-17.26672901966196
 20
-1.4805524177985487
 10
-17.204538485003695
 20
-1.5100978796673914
 10
-17.140322641032064
 20
-1.5391927307525188
 10
-17.074133039123986
 20
-1.5679488729396611
 10
-17.005914608249785
 20
-1.5963645464024403
 10
-16.9356638287567
 20
-1.6245498932002087
 10
-16.86343753150079
 20
-1.652451602129668
 10
-16.789233956655675
 20
-1.6801247442204943
 10
-16.713053104221355
 20
-1.7075693194726878
 10
-16.634834623689024
 20
-1.7349487811488982
 10
-16.554690416944407
 20
-1.7622115778722058
 10
-16.472512101754532
 20
-1.7892991189601786
 10
-16.388409820178754
 20
-1.816214924065572
 10
-16.30232498153464
 20
-1.8430673754213611
 10
-16.214312656851856
 20
-1.869858232853923
 10
-16.12431953492711
 20
-1.8965306655072038
 10
-16.032404206442845
 20
-1.92297629114823
 10
-15.938509840542993
 20
-1.9492484209802987
 10
-15.842744819460536
 20
-1.9754056456858424
 10
-15.745054072165795
 20
-2.0014462054384836
 10
-15.645437598658766
 20
-2.0273701002382216
 10
-15.543900678418591
 20
-2.0530121169960283
 10
-15.440498382474939
 20
-2.078374015538282
 10
-15.335175639798138
 20
-2.1034540360386047
 10
-15.227984001765105
 20
-2.1283640803827257
 10
-15.118923468375845
 20
-2.153104148570646
 10
-15.008001078935866
 20
-2.1774539564836606
 10
-14.895268384822087
 20
-2.2015254060075002
 10
-14.780672074831212
 20
-2.2252616662861104
 10
-14.664210389136866
 20
-2.2487178083491672
 10
-14.545938398768719
 20
-2.271895592023049
 10
-14.425857863553153
 20
-2.2947399462780798
 10
-14.30396702366379
 20
-2.317305942143935
 10
-14.180265879100626
 20
-2.339593579620614
 10
-14.054756189690043
 20
-2.3615477876784428
 10
-13.927491266635336
 20
-2.3832253971734736
 10
-13.79847110993651
 20
-2.4046264081057074
 10
-13.667642408390261
 20
-2.425693989619089
 10
-13.535111784403188
 20
-2.446541803425728
 10
-13.400825926771997
 20
-2.467113018669569
 10
-13.264783075670302
 20
-2.487462706380289
 10
-13.127040061954162
 20
-2.50753755535459
 10
-12.987602165102711
 20
-2.5271723525034426
 10
-12.846464105636812
 20
-2.5465323109158753
 10
-12.703567292874036
 20
-2.5657258128248634
 10
-12.55907869972979
 20
-2.584703066679864
 10
-12.412891703797474
 20
-2.6033504107687686
 10
-12.265008064903467
 20
-2.6216127740619024
 10
-12.115534405454367
 20
-2.6396038182713717
 10
-11.96441389459412
 20
-2.657376854600476
 10
-11.81165005197548
 20
-2.674821740989862
 10
-11.657297948628125
 20
-2.6919402372659085
 10
-11.501359344378429
 20
-2.708677272398939
 10
-11.343828959747265
 20
-2.725198059477983
 10
-11.184710314387383
 20
-2.7413924564436862
 10
-11.023999888646031
 20
-2.7573706053554026
 10
-10.861813104061689
 20
-2.7729708127768586
 10
-10.698038058748635
 20
-2.788244630084974
 10
-10.532729823736538
 20
-2.8031938171061292
 10
-10.3659417102287
 20
-2.8178752046963753
 10
-10.197622166848202
 20
-2.8321768909699845
 10
-10.027822744971962
 20
-2.8462107778126855
 10
-9.85660027545603
 20
-2.8599235540211803
 10
-9.683848135893818
 20
-2.873201557883361
 10
-9.509676468344672
 20
-2.886048309051984
 10
-9.33407999332946
 20
-2.8986290206160774
 10
-9.157058710848185
 20
-2.9109436925756396
 10
-8.978612620900844
 20
-2.9229923249306733
 10
-8.798802073996242
 20
-2.9346114644185257
 10
-8.617630589787144
 20
-2.945690968979847
 10
-8.43503605793836
 20
-2.9564493629069615
 10
-8.251128620509238
 20
-2.966890165852626
 10
-8.065856726122858
 20
-2.9769014759311103
 10
-7.879278965461657
 20
-2.9863749109094404
 10
-7.691390059046496
 20
-2.9954756838766436
 10
-7.5022415582542985
 20
-3.004315696718451
 10
-7.3117819117081435
 20
-3.0127830475491324
 10
-7.120016398887164
 20
-3.0207125232796592
 10
-6.927051642197957
 20
-3.02821778562214
 10
-6.732885881814142
 20
-3.0353539056062497
 10
-6.537408975676373
 20
-3.0421173635792336
 10
-6.340787896700048
 20
-3.0484583679905493
 10
-6.142971093508255
 20
-3.054265016954466
 10
-5.9439585661009895
 20
-3.059537310470984
 10
-5.743803625681547
 20
-3.0643320793961575
 10
-5.542497473118043
 20
-3.0689246788783664
 10
-5.340100458919286
 20
-3.0731516556549616
 10
-5.1365645513611105
 20
-3.076790965780859
 10
-4.931887990617139
 20
-3.0798976802857374
 10
-4.726180918746723
 20
-3.0824753188223495
 10
-4.519381225414676
 20
-3.084742405683024
 10
-4.31154750130343
 20
-3.086590558634785
 10
-4.102679746412984
 20
-3.088019777677633
 10
-3.892781480396093
 20
-3.088919920752217
 10
-3.681850943426382
 20
-3.0893460588882125
 10
-3.4699947579104458
 20
-3.089411853797727
 10
-3.2571063014416883
 20
-3.089003643768652
 10
-3.0432992357322153
 20
-3.088014806394393
 10
-2.8285718009556495
 20
-3.086500412704624
 10
-2.612922237285616
 20
-3.0845155337290224
 10
-2.396297233518814
 20
-3.0820033386115337
 10
-2.1788655223970306
 20
-3.07885896477194
 10
-1.9605737927169613
 20
-3.075025581354187
 10
-1.7413564144906686
 20
-3.0708318547099536
 10
-1.5213252896038802
 20
-3.066226233462319
 10
-1.300546048044539
 20
-3.060880051259604
 10
-1.0789032682741642
 20
-3.0549550015380826
 10
-0.856450261496046
 20
-3.048507915153808
 10
-0.6333006894222946
 20
-3.041432169700184
 10
-0.40934616981994065
 20
-3.0336691744947784
 10
-0.1846968447483315
 20
-3.0252224491903474
 10
0.040709396127720024
 20
-3.016310518079218
 10
0.2668139621257757
 20
-3.006824998928414
 10
0.4935529830842844
 20
-2.996492296415935
 10
0.720986809512038
 20
-2.98547586380443
 10
0.9490674096848868
 20
-2.973997745038982
 10
1.177734433094011
 20
-2.96189448685694
 10
1.4070411909427183
 20
-2.9491092584022507
 10
1.6369361318540794
 20
-2.9357539615606436
 10
1.8674122165225857
 20
-2.9216083122134147
 10
2.098469444948241
 20
-2.9066723103605643
 10
2.330059785406874
 20
-2.891167999947174
 10
2.5621299266951905
 20
-2.875152211829298
 10
2.7947331800164923
 20
-2.858568115150883
 10
3.0278091948619603
 20
-2.8412522566492773
 10
3.26136149088436
 20
-2.8233147783838337
 10
3.4953900680836867
 20
-2.8047556803545524
 10
3.7298398554302636
 20
-2.7855767223878116
 10
3.96470557344496
 20
-2.765612691394583
 10
4.199990741780531
 20
-2.7449737294342174
 10
4.435592257683131
 20
-2.7238836402781765
 10
4.671618503385739
 20
-2.7022838332440284
 10
4.907954057349868
 20
-2.6800126148954995
 10
5.144655750431575
 20
-2.657123296435888
 10
5.381613440571502
 20
-2.6336193975179514
 10
5.618883958625709
 20
-2.6095542293449867
 10
5.856465544767814
 20
-2.584872720887318
 10
6.094249816764845
 20
-2.5596334628273762
 10
6.332295365299233
 20
-2.533944837398137
 10
6.570600430544601
 20
-2.5077517735699235
 10
6.809053110615214
 20
-2.481002719965816
 10
7.0477102363671325
 20
-2.453750987789113
 10
7.286520256423435
 20
-2.4261084789255425
 10
7.525531202508281
 20
-2.397853149430025
 10
7.764636452215082
 20
-2.3690986610146663
 10
8.003839525196586
 20
-2.3399551557388203
 10
8.243138661626423
 20
-2.310367562572809
 10
8.482530341851827
 20
-2.280225739457282
 10
8.722018085525566
 20
-2.2496398284515906
 10
8.961495270241038
 20
-2.218723491267843
 10
9.201013447375157
 20
-2.1873648260203087
 10
9.44052282537739
 20
-2.1557308056243945
 10
9.6800181247686
 20
-2.1236562169910713
 10
9.919497585722405
 20
-2.091085989090664
 10
10.158964727891568
 20
-2.058130263982524
 10
10.398314688695866
 20
-2.0249577744084366
 10
10.637602539164977
 20
-1.991566760542022
 10
10.87676792879009
 20
-1.9577937691206315
 10
11.115812617397584
 20
-1.9236938711739398
 10
11.35473660498746
 20
-1.8892670667019478
 10
11.59354165138609
 20
-1.8545684267343314
 10
11.832115854707752
 20
-1.8195463998941703
 10
12.0705160458085
 20
-1.7842542973847628
 10
12.308688913485021
 20
-1.748748950062163
 10
12.546693048419769
 20
-1.713138740159344
 10
12.784411269247862
 20
-1.677206903210359
 10
13.021845335795687
 20
-1.6410085102448833
 10
13.259059118224807
 20
-1.6048171565849187
 10
13.49593191551761
 20
-1.5683059357051654
 10
13.732461967847701
 20
-1.5314197765759476
 10
13.968714905203043
 20
-1.494487345548943
 10
14.204584105177029
 20
-1.4576223043362593
 10
14.440114079841067
 20
-1.4204924669334638
 10
14.675251517991857
 20
-1.3831546641966088
 10
14.909941348599727
 20
-1.3456106559520729
 10
15.144242162347119
 20
-1.3079688244328305
 10
15.378100648030712
 20
-1.2702860004949357
 10
15.611518565476906
 20
-1.2326172551680636
 10
15.844437324003254
 20
-1.194854206219241
 10
16.076853403957003
 20
-1.1568867115891153
 10
16.3087720848173
 20
-1.1188799843667143
 10
16.54019336658413
 20
-1.0808340245520391
 10
16.771008867024527
 20
-1.0428074228275206
 10
17.00132872819783
 20
-1.0047966595404032
 10
17.23103752856557
 20
-0.9666400412544147
 10
17.460137027954115
 20
-0.9283926389992314
 10
17.688636025495352
 20
-0.8903298079232334
 10
17.91653276136292
 20
-0.852396476996744
 10
18.143713573844693
 20
-0.8144860238131678
 10
18.370290364826406
 20
-0.7766499997494245
 10
18.596151232422333
 20
-0.7388368534285944
 10
18.82135124766214
 20
-0.7010448250242991
 10
19.045838859168924
 20
-0.6633858164222686
 10
19.269558995913002
 20
-0.6258615874488811
 10
19.492570248576794
 20
-0.5885805203371105
 10
19.714757195621818
 20
-0.5513809216506853
 10
19.936229979107438
 20
-0.5142592717368483
 10
20.156876697147922
 20
-0.4771640192186802
 10
20.376707908701523
 20
-0.4404255902742373
 10
20.595668542738583
 20
-0.40404574472989707
 10
20.813858182360175
 20
-0.3676905367548478
 10
21.031109854650893
 20
-0.33131017479854646
 10
21.24754778028112
 20
-0.29534170744564675
 10
21.46306005736512
 20
-0.2597335833192278
 10
21.677639646597388
 20
-0.2242655183005853
 10
21.89128654797791
 20
-0.18893751238971956
 10
22.104002521333083
 20
-0.1538046366163064
 10
22.315796365794775
 20
-0.11914224612872615
 10
22.5265544196509
 20
-0.08484371852038264
 10
22.73638154548166
 20
-0.05074032104949161
 10
22.94516760122771
 20
-0.016835573368809264
 10
23.152916106541802
 20
0.016760382462312463
 10
23.359630581076694
 20
0.04993740438452153
 10
23.565307505179636
 20
0.08280563445717008
 10
23.76989180782094
 20
0.11536331285387988
 10
23.97344207968305
 20
0.14750205734167735
 10
24.17584817870661
 20
0.17921834826780614
 10
24.37715989644215
 20
0.2106791585476722
 10
24.577267090830336
 20
0.24188096852852017
 10
24.776338494612947
 20
0.27271891563013156
 10
24.974157343324027
 20
0.3030758184876425
 10
25.17083377902294
 20
0.33295519675380897
 10
25.366366041883293
 20
0.36241212145830665
 10
25.560640470192983
 20
0.3915532150077321
 10
25.7536588237784
 20
0.42032340637240934
 10
25.94553300452526
 20
0.448671144175418
 10
26.13609955917092
 20
0.4765360779079482
 10
26.325417078397813
 20
0.5038098253370262
 10
26.513425211697125
 20
0.5306558397253018
 10
26.70017727027215
 20
0.5571309519288291
 10
26.885619942919604
 20
0.583178331091554
 10
27.069753229639467
 20
0.6087979772134766
 10
27.252527338881222
 20
0.6338229173791913
 10
27.433992062195394
 20
0.6584201245041034
 10
27.614039017348993
 20
0.6825310079057811
 10
27.792719755718974
 20
0.7062674694699551
 10
27.970039556784453
 20
0.7294642961075966
 10
28.145945109342133
 20
0.752064656962652
 10
28.320431133912884
 20
0.7742337651241491
 10
28.493497630496694
 20
0.795971620592088
 10
28.66514459909358
 20
0.817278223366469
 10
28.83526541729694
 20
0.8380399117351841
 10
29.003973746818875
 20
0.8581500632916367
 10
29.17120571749783
 20
0.8778822733578298
 10
29.33690801813049
 20
0.8971797110777082
 10
29.50113571974655
 20
0.916044136277651
 10
29.66383727096908
 20
0.9343636470719279
 10
29.824955840942028
 20
0.9521915546638366
 10
29.984599811898363
 20
0.9695864497358095
 10
30.142664321257875
 20
0.9863795995460622
 10
30.299145849367804
 20
1.0026811461539473
 10
30.45404615605453
 20
1.0184360185297883
 10
30.60735996183892
 20
1.033809429762614
 10
30.75909078637372
 20
1.0486912377930708
 10
30.909183558629273
 20
1.0630796827947828
 10
31.057640038431938
 20
1.076919693738072
 10
31.204513536985022
 20
1.090268101478994
 10
31.349692152402792
 20
1.1031764573944682
 10
31.493175884685254
 20
1.1156447614844949
 10
31.635021564688454
 20
1.1276197025457757
 10
31.775230952238783
 20
1.1390462095486347
 10
31.913688625797736
 20
1.1500859759293438
 10
32.05044965639499
 20
1.1607407615142813
 10
32.18551932350971
 20
1.1708453532144198
 10
32.318840796285805
 20
1.1804530622330558
 10
32.45041055507054
 20
1.1896740306295428
 10
32.58028719054632
 20
1.1983998761709056
 10
32.70836232048022
 20
1.2065720081747133
 10
32.83468749624913
 20
1.2143023285266956
 10
32.959260958026654
 20
1.221645908256528
 10
33.08202763478314
 20
1.2286009875378328
 10
33.20299104617136
 20
1.2350574243112589
 10
33.322149432364895
 20
1.2410702896064807
 10
33.43949927371101
 20
1.2467497254828512
 10
33.555042330036095
 20
1.2520406609106944
 10
33.66872704996321
 20
1.2568311940042802
 10
33.780553433492365
 20
1.2611213247636088
 10
33.89056951234772
 20
1.2651330971337615
 10
33.998721975325964
 20
1.268809680258685
 10
34.10501082242714
 20
1.2721510741383797
 10
34.20943781347758
 20
1.2751022077431688
 10
34.31194787744763
 20
1.2776613212466745
 10
34.412596085366964
 20
1.2798301744752751
 10
34.51132384655315
 20
1.2817171496619446
 10
34.60813468065892
 20
1.2832121047473308
 10
34.703025068031565
 20
1.284425181790786
 10
34.796053599353485
 20
1.2852479985593355
 10
34.88710661291257
 20
1.2857871774595757
 10
34.976237419912124
 20
1.286099549347561
 10
35.06339270914888
 20
1.286128283367238
 10
35.148629311478835
 20
1.2858200683153072
 10
35.231888636219594
 20
1.2852832864247432
 10
35.3132292740536
 20
1.2844095554625725
 10
35.39253580344232
 20
1.2833605688650667
 10
35.469920126271525
 20
1.2820847752553057
 10
35.54527210048184
 20
1.2805786549805338
 10
35.61864679710296
 20
1.2788439678671293
 10
35.69004421613488
 20
1.2768807139150913
 10
35.75946259775121
 20
1.2747439641540967
 10
35.82684863074865
 20
1.272376887728091
 10
35.892198795474464
 20
1.2698896266964264
 10
35.955569922784704
 20
1.267228869855805
 10
36.0169051818233
 20
1.2644479284095245
 10
36.07620633241663
 20
1.2614917313279097
 10
36.13347161473834
 20
1.2584153496406358
 10
36.18870278861478
 20
1.255163712318027
 10
36.24189809421959
 20
1.2517918903897594
 10
36.29305401190001
 20
1.2484100259151854
 10
36.34211899027911
 20
1.244906217008574
 10
36.389201411589866
 20
1.2413390543523584
 10
36.4341343029169
 20
1.23775832949708
 10
36.47708463717557
 20
1.234114250892197
 10
36.51794227230657
 20
1.230403298884953
 10
36.556703688657116
 20
1.2267356155347005
 10
36.59342571708328
 20
1.2230578896381417
 10
36.628053286555364
 20
1.2193683613688981
 10
36.66058287742063
 20
1.2157771727863218
 10
36.69107308036151
 20
1.2121759416574391
 10
36.71946530469555
 20
1.2086730502152232
 10
36.74576131024915
 20
1.2052134274299995
 10
36.76995757736955
 20
1.201907215361119
 10
36.79205586588314
 20
1.1986993429789066
 10
36.81210948699319
 20
1.1956466411394147
 10
36.830008298640365
 20
1.1927455901898893
 10
36.84580561202795
 20
1.1900530209863829
 10
36.85955649818564
 20
1.1875706933552743
 10
36.87115081505407
 20
1.185295087643807
 10
36.88064011401018
 20
1.1833381057377121
 10
36.88808122591
 20
1.1816464364336905
 10
36.89336048904143
 20
1.1803267021383386
 10
36.896531214607755
 20
1.1794357337077104
 10
36.89758988295626
 20
1.1790836732011587
  0
ENDSEC
  0
SECTION
  2
OBJECTS
  0
DICTIONARY
  5
A
330
0
100
AcDbDictionary
280
0
281
1
  3
ACAD_COLOR
350
B
  3
ACAD_GROUP
350
C
  3
ACAD_LAYOUT
350
D
  3
ACAD_MATERIAL
350
E
  3
ACAD_MLEADERSTYLE
350
F
  3
ACAD_MLINESTYLE
350
10
  3
ACAD_PLOTSETTINGS
350
11
  3
ACAD_PLOTSTYLENAME
350
12
  3
ACAD_SCALELIST
350
14
  3
ACAD_TABLESTYLE
350
15
  3
ACAD_VISUALSTYLE
350
16
  3
EZDXF_META
350
2D
  0
DICTIONARY
  5
B
330
A
100
AcDbDictionary
280
0
281
1
  0
DICTIONARY
  5
C
330
A
100
AcDbDictionary
280
0
281
1
  0
DICTIONARY
  5
D
330
A
100
AcDbDictionary
280
0
281
1
  3
Model
350
1A
  3
Layout1
350
1E
  0
DICTIONARY
  5
E
330
A
100
AcDbDictionary
280
0
281
1
  3
ByBlock
350
1F
  3
ByLayer
350
20
  3
Global
350
21
  0
DICTIONARY
  5
F
330
A
100
AcDbDictionary
280
0
281
1
  3
Standard
350
2C
  0
DICTIONARY
  5
10
330
A
100
AcDbDictionary
280
0
281
1
  3
Standard
350
22
  0
DICTIONARY
  5
11
330
A
100
AcDbDictionary
280
0
281
1
  0
ACDBDICTIONARYWDFLT
  5
12
330
A
100
AcDbDictionary
280
0
281
1
  3
Normal
350
13
100
AcDbDictionaryWithDefault
340
13
  0
ACDBPLACEHOLDER
  5
13
330
12
  0
DICTIONARY
  5
14
330
A
100
AcDbDictionary
280
0
281
1
  0
DICTIONARY
  5
15
330
A
100
AcDbDictionary
280
0
281
1
  0
DICTIONARY
  5
16
330
A
100
AcDbDictionary
280
0
281
1
  0
LAYOUT
  5
1A
330
D
100
AcDbPlotSettings
  1

  4
A3
  6

 40
7.5
 41
20.0
 42
7.5
 43
20.0
 44
420.0
 45
297.0
 46
0.0
 47
0.0
 48
0.0
 49
0.0
140
0.0
141
0.0
142
1.0
143
1.0
 70
1024
 72
1
 73
0
 74
5
  7

 75
16
 76
0
 77
2
 78
300
147
1.0
148
0.0
149
0.0
100
AcDbLayout
  1
Model
 70
1
 71
0
 10
0.0
 20
0.0
 11
420.0
 21
297.0
 12
0.0
 22
0.0
 32
0.0
 14
1e+20
 24
1e+20
 34
1e+20
 15
-1e+20
 25
-1e+20
 35
-1e+20
146
0.0
 13
0.0
 23
0.0
 33
0.0
 16
1.0
 26
0.0
 36
0.0
 17
0.0
 27
1.0
 37
0.0
 76
1
330
17
  0
LAYOUT
  5
1E
330
D
100
AcDbPlotSettings
  1

  4
A3
  6

 40
7.5
 41
20.0
 42
7.5
 43
20.0
 44
420.0
 45
297.0
 46
0.0
 47
0.0
 48
0.0
 49
0.0
140
0.0
141
0.0
142
1.0
143
1.0
 70
0
 72
1
 73
0
 74
5
  7

 75
16
 76
0
 77
2
 78
300
147
1.0
148
0.0
149
0.0
100
AcDbLayout
  1
Layout1
 70
1
 71
1
 10
0.0
 20
0.0
 11
420.0
 21
297.0
 12
0.0
 22
0.0
 32
0.0
 14
1e+20
 24
1e+20
 34
1e+20
 15
-1e+20
 25
-1e+20
 35
-1e+20
146
0.0
 13
0.0
 23
0.0
 33
0.0
 16
1.0
 26
0.0
 36
0.0
 17
0.0
 27
1.0
 37
0.0
 76
1
330
1B
  0
MATERIAL
  5
1F
102
{ACAD_REACTORS
330
E
102
}
330
E
100
AcDbMaterial
  1
ByBlock
  2

 70
0
 40
1.0
 71
1
 41
1.0
 91
-1023410177
 42
1.0
 72
1
  3

 73
1
 74
1
 75
1
 44
0.5
 73
0
 45
1.0
 46
1.0
 77
1
  4

 78
1
 79
1
170
1
 48
1.0
171
1
  6

172
1
173
1
174
1
140
1.0
141
1.0
175
1
  7

176
1
177
1
178
1
143
1.0
179
1
  8

270
1
271
1
272
1
145
1.0
146
1.0
273
1
  9

274
1
275
1
276
1
 42
1.0
 72
1
  3

 73
1
 74
1
 75
1
 94
63
  0
MATERIAL
  5
20
102
{ACAD_REACTORS
330
E
102
}
330
E
100
AcDbMaterial
  1
ByLayer
  2

 70
0
 40
1.0
 71
1
 41
1.0
 91
-1023410177
 42
1.0
 72
1
  3

 73
1
 74
1
 75
1
 44
0.5
 73
0
 45
1.0
 46
1.0
 77
1
  4

 78
1
 79
1
170
1
 48
1.0
171
1
  6

172
1
173
1
174
1
140
1.0
141
1.0
175
1
  7

176
1
177
1
178
1
143
1.0
179
1
  8

270
1
271
1
272
1
145
1.0
146
1.0
273
1
  9

274
1
275
1
276
1
 42
1.0
 72
1
  3

 73
1
 74
1
 75
1
 94
63
  0
MATERIAL
  5
21
102
{ACAD_REACTORS
330
E
102
}
330
E
100
AcDbMaterial
  1
Global
  2

 70
0
 40
1.0
 71
1
 41
1.0
 91
-1023410177
 42
1.0
 72
1
  3

 73
1
 74
1
 75
1
 44
0.5
 73
0
 45
1.0
 46
1.0
 77
1
  4

 78
1
 79
1
170
1
 48
1.0
171
1
  6

172
1
173
1
174
1
140
1.0
141
1.0
175
1
  7

176
1
177
1
178
1
143
1.0
179
1
  8

270
1
271
1
272
1
145
1.0
146
1.0
273
1
  9

274
1
275
1
276
1
 42
1.0
 72
1
  3

 73
1
 74
1
 75
1
 94
63
  0
MLINESTYLE
  5
22
102
{ACAD_REACTORS
330
10
102
}
330
10
100
AcDbMlineStyle
  2
Standard
 70
0
  3

 62
256
 51
90.0
 52
90.0
 71
2
 49
0.5
 62
256
  6
BYLAYER
 49
-0.5
 62
256
  6
BYLAYER
  0
MLEADERSTYLE
  5
2C
102
{ACAD_REACTORS
330
F
102
}
330
F
100
AcDbMLeaderStyle
179
2
170
2
171
1
172
0
 90
2
 40
0.0
 41
0.0
173
1
 91
-1056964608
 92
-2
290
1
 42
2.0
291
1
 43
8.0
  3
Standard
 44
4.0
300

342
29
174
1
175
1
176
0
178
1
 93
-1056964608
 45
4.0
292
0
297
0
 46
4.0
 94
-1056964608
 47
1.0
 49
1.0
140
1.0
294
1
141
0.0
177
0
142
1.0
295
0
296
0
143
3.75
271
0
272
9
273
9
  0
DICTIONARY
  5
2D
330
A
100
AcDbDictionary
280
1
281
1
  3
CREATED_BY_EZDXF
350
2E
  3
WRITTEN_BY_EZDXF
350
32
  0
DICTIONARYVAR
  5
2E
330
2D
100
DictionaryVariables
280
0
  1
1.3.5 @ 2025-08-20T01:05:14.601394+00:00
  0
DICTIONARYVAR
  5
32
330
2D
100
DictionaryVariables
280
0
  1
1.3.5 @ 2025-08-20T01:05:14.606375+00:00
  0
ENDSEC
  0
EOF
