  0
SECTION
  2
HEADER
  9
$ACADVER
  1
AC1032
  9
$ACADMAINTVER
 90
4
  9
$DWGCODEPAGE
  3
ANSI_1252
  9
$LASTSAVEDBY
  1
ezdxf
  9
$REQUIREDVERSIONS
160
0
  9
$INSBASE
 10
0.0
 20
0.0
 30
0.0
  9
$EXTMIN
 10
1e+20
 20
1e+20
 30
1e+20
  9
$EXTMAX
 10
-1e+20
 20
-1e+20
 30
-1e+20
  9
$LIMMIN
 10
0.0
 20
0.0
  9
$LIMMAX
 10
420.0
 20
297.0
  9
$ORTHOMODE
 70
0
  9
$REGENMODE
 70
1
  9
$FILLMODE
 70
1
  9
$QTEXTMODE
 70
0
  9
$MIRRTEXT
 70
1
  9
$LTSCALE
 40
1.0
  9
$ATTMODE
 70
1
  9
$TEXTSIZE
 40
2.5
  9
$TRACEWID
 40
1.0
  9
$TEXTSTYLE
  7
Standard
  9
$CLAYER
  8
0
  9
$CELTYPE
  6
ByLayer
  9
$CECOLOR
 62
256
  9
$CELTSCALE
 40
1.0
  9
$DISPSILH
 70
0
  9
$DIMSCALE
 40
1.0
  9
$DIMASZ
 40
2.5
  9
$DIMEXO
 40
0.625
  9
$DIMDLI
 40
3.75
  9
$DIMRND
 40
0.0
  9
$DIMDLE
 40
0.0
  9
$DIMEXE
 40
1.25
  9
$DIMTP
 40
0.0
  9
$DIMTM
 40
0.0
  9
$DIMTXT
 40
2.5
  9
$DIMCEN
 40
2.5
  9
$DIMTSZ
 40
0.0
  9
$DIMTOL
 70
0
  9
$DIMLIM
 70
0
  9
$DIMTIH
 70
0
  9
$DIMTOH
 70
0
  9
$DIMSE1
 70
0
  9
$DIMSE2
 70
0
  9
$DIMTAD
 70
1
  9
$DIMZIN
 70
8
  9
$DIMBLK
  1

  9
$DIMASO
 70
1
  9
$DIMSHO
 70
1
  9
$DIMPOST
  1

  9
$DIMAPOST
  1

  9
$DIMALT
 70
0
  9
$DIMALTD
 70
3
  9
$DIMALTF
 40
0.03937007874
  9
$DIMLFAC
 40
1.0
  9
$DIMTOFL
 70
1
  9
$DIMTVP
 40
0.0
  9
$DIMTIX
 70
0
  9
$DIMSOXD
 70
0
  9
$DIMSAH
 70
0
  9
$DIMBLK1
  1

  9
$DIMBLK2
  1

  9
$DIMSTYLE
  2
ISO-25
  9
$DIMCLRD
 70
0
  9
$DIMCLRE
 70
0
  9
$DIMCLRT
 70
0
  9
$DIMTFAC
 40
1.0
  9
$DIMGAP
 40
0.625
  9
$DIMJUST
 70
0
  9
$DIMSD1
 70
0
  9
$DIMSD2
 70
0
  9
$DIMTOLJ
 70
0
  9
$DIMTZIN
 70
8
  9
$DIMALTZ
 70
0
  9
$DIMALTTZ
 70
0
  9
$DIMUPT
 70
0
  9
$DIMDEC
 70
2
  9
$DIMTDEC
 70
2
  9
$DIMALTU
 70
2
  9
$DIMALTTD
 70
3
  9
$DIMTXSTY
  7
Standard
  9
$DIMAUNIT
 70
0
  9
$DIMADEC
 70
0
  9
$DIMALTRND
 40
0.0
  9
$DIMAZIN
 70
0
  9
$DIMDSEP
 70
44
  9
$DIMATFIT
 70
3
  9
$DIMFRAC
 70
0
  9
$DIMLDRBLK
  1

  9
$DIMLUNIT
 70
2
  9
$DIMLWD
 70
-2
  9
$DIMLWE
 70
-2
  9
$DIMTMOVE
 70
0
  9
$DIMFXL
 40
1.0
  9
$DIMFXLON
 70
0
  9
$DIMJOGANG
 40
0.785398163397
  9
$DIMTFILL
 70
0
  9
$DIMTFILLCLR
 70
0
  9
$DIMARCSYM
 70
0
  9
$DIMLTYPE
  6

  9
$DIMLTEX1
  6

  9
$DIMLTEX2
  6

  9
$DIMTXTDIRECTION
 70
0
  9
$LUNITS
 70
2
  9
$LUPREC
 70
4
  9
$SKETCHINC
 40
1.0
  9
$FILLETRAD
 40
10.0
  9
$AUNITS
 70
0
  9
$AUPREC
 70
2
  9
$MENU
  1
.
  9
$ELEVATION
 40
0.0
  9
$PELEVATION
 40
0.0
  9
$THICKNESS
 40
0.0
  9
$LIMCHECK
 70
0
  9
$CHAMFERA
 40
0.0
  9
$CHAMFERB
 40
0.0
  9
$CHAMFERC
 40
0.0
  9
$CHAMFERD
 40
0.0
  9
$SKPOLY
 70
0
  9
$TDCREATE
 40
2460908.0869675926
  9
$TDUCREATE
 40
2458532.153996898
  9
$TDUPDATE
 40
2460908.0869675926
  9
$TDUUPDATE
 40
2458532.1544311
  9
$TDINDWG
 40
0.0
  9
$TDUSRTIMER
 40
0.0
  9
$USRTIMER
 70
1
  9
$ANGBASE
 50
0.0
  9
$ANGDIR
 70
0
  9
$PDMODE
 70
0
  9
$PDSIZE
 40
0.0
  9
$PLINEWID
 40
0.0
  9
$SPLFRAME
 70
0
  9
$SPLINETYPE
 70
6
  9
$SPLINESEGS
 70
8
  9
$HANDSEED
  5
33
  9
$SURFTAB1
 70
6
  9
$SURFTAB2
 70
6
  9
$SURFTYPE
 70
6
  9
$SURFU
 70
6
  9
$SURFV
 70
6
  9
$UCSBASE
  2

  9
$UCSNAME
  2

  9
$UCSORG
 10
0.0
 20
0.0
 30
0.0
  9
$UCSXDIR
 10
1.0
 20
0.0
 30
0.0
  9
$UCSYDIR
 10
0.0
 20
1.0
 30
0.0
  9
$UCSORTHOREF
  2

  9
$UCSORTHOVIEW
 70
0
  9
$UCSORGTOP
 10
0.0
 20
0.0
 30
0.0
  9
$UCSORGBOTTOM
 10
0.0
 20
0.0
 30
0.0
  9
$UCSORGLEFT
 10
0.0
 20
0.0
 30
0.0
  9
$UCSORGRIGHT
 10
0.0
 20
0.0
 30
0.0
  9
$UCSORGFRONT
 10
0.0
 20
0.0
 30
0.0
  9
$UCSORGBACK
 10
0.0
 20
0.0
 30
0.0
  9
$PUCSBASE
  2

  9
$PUCSNAME
  2

  9
$PUCSORG
 10
0.0
 20
0.0
 30
0.0
  9
$PUCSXDIR
 10
1.0
 20
0.0
 30
0.0
  9
$PUCSYDIR
 10
0.0
 20
1.0
 30
0.0
  9
$PUCSORTHOREF
  2

  9
$PUCSORTHOVIEW
 70
0
  9
$PUCSORGTOP
 10
0.0
 20
0.0
 30
0.0
  9
$PUCSORGBOTTOM
 10
0.0
 20
0.0
 30
0.0
  9
$PUCSORGLEFT
 10
0.0
 20
0.0
 30
0.0
  9
$PUCSORGRIGHT
 10
0.0
 20
0.0
 30
0.0
  9
$PUCSORGFRONT
 10
0.0
 20
0.0
 30
0.0
  9
$PUCSORGBACK
 10
0.0
 20
0.0
 30
0.0
  9
$USERI1
 70
0
  9
$USERI2
 70
0
  9
$USERI3
 70
0
  9
$USERI4
 70
0
  9
$USERI5
 70
0
  9
$USERR1
 40
0.0
  9
$USERR2
 40
0.0
  9
$USERR3
 40
0.0
  9
$USERR4
 40
0.0
  9
$USERR5
 40
0.0
  9
$WORLDVIEW
 70
1
  9
$SHADEDGE
 70
3
  9
$SHADEDIF
 70
70
  9
$TILEMODE
 70
1
  9
$MAXACTVP
 70
64
  9
$PINSBASE
 10
0.0
 20
0.0
 30
0.0
  9
$PLIMCHECK
 70
0
  9
$PEXTMIN
 10
1e+20
 20
1e+20
 30
1e+20
  9
$PEXTMAX
 10
-1e+20
 20
-1e+20
 30
-1e+20
  9
$PLIMMIN
 10
0.0
 20
0.0
  9
$PLIMMAX
 10
420.0
 20
297.0
  9
$UNITMODE
 70
0
  9
$VISRETAIN
 70
1
  9
$PLINEGEN
 70
0
  9
$PSLTSCALE
 70
1
  9
$TREEDEPTH
 70
3020
  9
$CMLSTYLE
  2
Standard
  9
$CMLJUST
 70
0
  9
$CMLSCALE
 40
20.0
  9
$PROXYGRAPHICS
 70
1
  9
$MEASUREMENT
 70
1
  9
$CELWEIGHT
370
-1
  9
$ENDCAPS
280
0
  9
$JOINSTYLE
280
0
  9
$LWDISPLAY
290
0
  9
$INSUNITS
 70
6
  9
$HYPERLINKBASE
  1

  9
$STYLESHEET
  1

  9
$XEDIT
290
1
  9
$CEPSNTYPE
380
0
  9
$PSTYLEMODE
290
1
  9
$FINGERPRINTGUID
  2
{D23939C3-E05F-4051-8A7C-61856EE73839}
  9
$VERSIONGUID
  2
{8640A74F-6BA7-4554-A323-CDBDF1E3106D}
  9
$EXTNAMES
290
1
  9
$PSVPSCALE
 40
0.0
  9
$OLESTARTUP
290
0
  9
$SORTENTS
280
127
  9
$INDEXCTL
280
0
  9
$HIDETEXT
280
1
  9
$XCLIPFRAME
280
1
  9
$HALOGAP
280
0
  9
$OBSCOLOR
 70
257
  9
$OBSLTYPE
280
0
  9
$INTERSECTIONDISPLAY
280
0
  9
$INTERSECTIONCOLOR
 70
257
  9
$DIMASSOC
280
2
  9
$PROJECTNAME
  1

  9
$CAMERADISPLAY
290
0
  9
$LENSLENGTH
 40
50.0
  9
$CAMERAHEIGHT
 40
0.0
  9
$STEPSPERSEC
 40
24.0
  9
$STEPSIZE
 40
100.0
  9
$3DDWFPREC
 40
2.0
  9
$PSOLWIDTH
 40
0.005
  9
$PSOLHEIGHT
 40
0.08
  9
$LOFTANG1
 40
1.570796326795
  9
$LOFTANG2
 40
1.570796326795
  9
$LOFTMAG1
 40
0.0
  9
$LOFTMAG2
 40
0.0
  9
$LOFTPARAM
 70
7
  9
$LOFTNORMALS
280
1
  9
$LATITUDE
 40
37.795
  9
$LONGITUDE
 40
-122.394
  9
$NORTHDIRECTION
 40
0.0
  9
$TIMEZONE
 70
-8000
  9
$LIGHTGLYPHDISPLAY
280
1
  9
$TILEMODELIGHTSYNCH
280
1
  9
$CMATERIAL
347
20
  9
$SOLIDHIST
280
0
  9
$SHOWHIST
280
1
  9
$DWFFRAME
280
2
  9
$DGNFRAME
280
2
  9
$REALWORLDSCALE
290
1
  9
$INTERFERECOLOR
 62
256
  9
$CSHADOW
280
0
  9
$SHADOWPLANELOCATION
 40
0.0
  0
ENDSEC
  0
SECTION
  2
CLASSES
  0
CLASS
  1
ACDBDICTIONARYWDFLT
  2
AcDbDictionaryWithDefault
  3
ObjectDBX Classes
 90
0
 91
0
280
0
281
0
  0
CLASS
  1
SUN
  2
AcDbSun
  3
SCENEOE
 90
1153
 91
0
280
0
281
0
  0
CLASS
  1
VISUALSTYLE
  2
AcDbVisualStyle
  3
ObjectDBX Classes
 90
4095
 91
0
280
0
281
0
  0
CLASS
  1
MATERIAL
  2
AcDbMaterial
  3
ObjectDBX Classes
 90
1153
 91
0
280
0
281
0
  0
CLASS
  1
SCALE
  2
AcDbScale
  3
ObjectDBX Classes
 90
1153
 91
0
280
0
281
0
  0
CLASS
  1
TABLESTYLE
  2
AcDbTableStyle
  3
ObjectDBX Classes
 90
4095
 91
0
280
0
281
0
  0
CLASS
  1
MLEADERSTYLE
  2
AcDbMLeaderStyle
  3
ACDB_MLEADERSTYLE_CLASS
 90
4095
 91
0
280
0
281
0
  0
CLASS
  1
DICTIONARYVAR
  2
AcDbDictionaryVar
  3
ObjectDBX Classes
 90
0
 91
0
280
0
281
0
  0
CLASS
  1
CELLSTYLEMAP
  2
AcDbCellStyleMap
  3
ObjectDBX Classes
 90
1152
 91
0
280
0
281
0
  0
CLASS
  1
MENTALRAYRENDERSETTINGS
  2
AcDbMentalRayRenderSettings
  3
SCENEOE
 90
1024
 91
0
280
0
281
0
  0
CLASS
  1
ACDBDETAILVIEWSTYLE
  2
AcDbDetailViewStyle
  3
ObjectDBX Classes
 90
1025
 91
0
280
0
281
0
  0
CLASS
  1
ACDBSECTIONVIEWSTYLE
  2
AcDbSectionViewStyle
  3
ObjectDBX Classes
 90
1025
 91
0
280
0
281
0
  0
CLASS
  1
RASTERVARIABLES
  2
AcDbRasterVariables
  3
ISM
 90
0
 91
0
280
0
281
0
  0
CLASS
  1
LAYOUT
  2
AcDbLayout
  3
ObjectDBX Classes
 90
0
 91
0
280
0
281
0
  0
CLASS
  1
ACDBPLACEHOLDER
  2
AcDbPlaceHolder
  3
ObjectDBX Classes
 90
0
 91
0
280
0
281
0
  0
ENDSEC
  0
SECTION
  2
TABLES
  0
TABLE
  2
VPORT
  5
8
330
0
100
AcDbSymbolTable
 70
1
  0
VPORT
  5
23
330
8
100
AcDbSymbolTableRecord
100
AcDbViewportTableRecord
  2
*Active
 70
0
 10
0.0
 20
0.0
 11
1.0
 21
1.0
 12
0.0
 22
0.0
 13
0.0
 23
0.0
 14
0.5
 24
0.5
 15
0.5
 25
0.5
 16
0.0
 26
0.0
 36
1.0
 17
0.0
 27
0.0
 37
0.0
 40
1000.0
 41
1.34
 42
50.0
 43
0.0
 44
0.0
 50
0.0
 51
0.0
 71
0
 72
1000
 73
1
 74
3
 75
0
 76
0
 77
0
 78
0
281
0
 65
0
146
0.0
  0
ENDTAB
  0
TABLE
  2
LTYPE
  5
2
330
0
100
AcDbSymbolTable
 70
3
  0
LTYPE
  5
24
330
2
100
AcDbSymbolTableRecord
100
AcDbLinetypeTableRecord
  2
ByBlock
 70
0
  3

 72
65
 73
0
 40
0.0
  0
LTYPE
  5
25
330
2
100
AcDbSymbolTableRecord
100
AcDbLinetypeTableRecord
  2
ByLayer
 70
0
  3

 72
65
 73
0
 40
0.0
  0
LTYPE
  5
26
330
2
100
AcDbSymbolTableRecord
100
AcDbLinetypeTableRecord
  2
Continuous
 70
0
  3

 72
65
 73
0
 40
0.0
  0
ENDTAB
  0
TABLE
  2
LAYER
  5
1
330
0
100
AcDbSymbolTable
 70
2
  0
LAYER
  5
27
330
1
100
AcDbSymbolTableRecord
100
AcDbLayerTableRecord
  2
0
 70
0
 62
7
  6
Continuous
370
-3
390
13
347
21
  0
LAYER
  5
28
330
1
100
AcDbSymbolTableRecord
100
AcDbLayerTableRecord
  2
Defpoints
 70
0
 62
7
  6
Continuous
290
0
370
-3
390
13
347
21
  0
ENDTAB
  0
TABLE
  2
STYLE
  5
5
330
0
100
AcDbSymbolTable
 70
1
  0
STYLE
  5
29
330
5
100
AcDbSymbolTableRecord
100
AcDbTextStyleTableRecord
  2
Standard
 70
0
 40
0.0
 41
1.0
 50
0.0
 71
0
 42
2.5
  3
txt
  4

  0
ENDTAB
  0
TABLE
  2
VIEW
  5
7
330
0
100
AcDbSymbolTable
 70
0
  0
ENDTAB
  0
TABLE
  2
UCS
  5
6
330
0
100
AcDbSymbolTable
 70
0
  0
ENDTAB
  0
TABLE
  2
APPID
  5
3
330
0
100
AcDbSymbolTable
 70
3
  0
APPID
  5
2A
330
3
100
AcDbSymbolTableRecord
100
AcDbRegAppTableRecord
  2
ACAD
 70
0
  0
APPID
  5
30
330
3
100
AcDbSymbolTableRecord
100
AcDbRegAppTableRecord
  2
HATCHBACKGROUNDCOLOR
 70
0
  0
APPID
  5
31
330
3
100
AcDbSymbolTableRecord
100
AcDbRegAppTableRecord
  2
EZDXF
 70
0
  0
ENDTAB
  0
TABLE
  2
DIMSTYLE
  5
4
330
0
100
AcDbSymbolTable
 70
1
100
AcDbDimStyleTable
  0
DIMSTYLE
105
2B
330
4
100
AcDbSymbolTableRecord
100
AcDbDimStyleTableRecord
  2
Standard
 70
0
 40
1.0
 41
2.5
 42
0.625
 43
3.75
 44
1.25
 45
0.0
 46
0.0
 47
0.0
 48
0.0
 49
2.5
140
2.5
141
2.5
142
0.0
143
0.03937007874
144
1.0
145
0.0
146
1.0
147
0.625
148
0.0
 69
0
 70
0
 71
0
 72
0
 73
0
 74
0
 75
0
 76
0
 77
1
 78
8
 79
3
170
0
171
3
172
1
173
0
174
0
175
0
176
0
177
0
178
0
179
2
271
2
272
2
273
2
274
3
275
0
276
0
277
2
278
44
279
0
280
0
281
0
282
0
283
0
284
8
285
0
286
0
288
0
289
3
290
0
371
-2
372
-2
  0
ENDTAB
  0
TABLE
  2
BLOCK_RECORD
  5
9
330
0
100
AcDbSymbolTable
 70
2
  0
BLOCK_RECORD
  5
17
330
9
100
AcDbSymbolTableRecord
100
AcDbBlockTableRecord
  2
*Model_Space
340
1A
 70
0
280
1
281
0
  0
BLOCK_RECORD
  5
1B
330
9
100
AcDbSymbolTableRecord
100
AcDbBlockTableRecord
  2
*Paper_Space
340
1E
 70
0
280
1
281
0
  0
ENDTAB
  0
ENDSEC
  0
SECTION
  2
BLOCKS
  0
BLOCK
  5
18
330
17
100
AcDbEntity
  8
0
100
AcDbBlockBegin
  2
*Model_Space
 70
0
 10
0.0
 20
0.0
 30
0.0
  3
*Model_Space
  1

  0
ENDBLK
  5
19
330
17
100
AcDbEntity
  8
0
100
AcDbBlockEnd
  0
BLOCK
  5
1C
330
1B
100
AcDbEntity
  8
0
100
AcDbBlockBegin
  2
*Paper_Space
 70
0
 10
0.0
 20
0.0
 30
0.0
  3
*Paper_Space
  1

  0
ENDBLK
  5
1D
330
1B
100
AcDbEntity
  8
0
100
AcDbBlockEnd
  0
ENDSEC
  0
SECTION
  2
ENTITIES
  0
LWPOLYLINE
  5
2F
330
17
100
AcDbEntity
  8
0
100
AcDbPolyline
 90
721
 70
1
 10
45.06542049293407
 20
2.800000939953197
 10
45.064113264581906
 20
2.800392369692886
 10
45.060199937737195
 20
2.8014321352686893
 10
45.05369722882346
 20
2.8028511893940826
 10
45.0445295178073
 20
2.8047798766064487
 10
45.032843865649596
 20
2.807024769652653
 10
45.01856883142287
 20
2.8096489512484473
 10
45.00164133241139
 20
2.8125809804663198
 10
44.98219589225836
 20
2.815829215518032
 10
44.96016942824808
 20
2.8193222154760713
 10
44.935486320347124
 20
2.8231903248778205
 10
44.90828945041052
 20
2.8273073782917764
 10
44.87851155661667
 20
2.831669196612061
 10
44.84614845985965
 20
2.836343041660303
 10
44.81120851835126
 20
2.841194389793243
 10
44.7736833738797
 20
2.846357764654141
 10
44.7336444673725
 20
2.851770083527246
 10
44.69102453700804
 20
2.857427167306679
 10
44.64581940368043
 20
2.863396277814071
 10
44.59810468742304
 20
2.8695470705120396
 10
44.54780476820252
 20
2.8760098899379667
 10
44.49492800423061
 20
2.8826502124485907
 10
44.439600560938814
 20
2.8896109198989337
 10
44.381624831968104
 20
2.896812213149724
 10
44.321202602783394
 20
2.9042666295186024
 10
44.258199349741396
 20
2.911965810793808
 10
44.19268233466378
 20
2.9199139360812216
 10
44.12465155755052
 20
2.9281110053808437
 10
44.054102839295744
 20
2.9366242805143052
 10
43.98103617989944
 20
2.945453761481606
 10
43.90545993757338
 20
2.9544649246394825
 10
43.827365754105806
 20
2.9637922936311987
 10
43.74682507042421
 20
2.9733727857410037
 10
43.663766445601105
 20
2.9832694836846474
 10
43.57819823784824
 20
2.993347863818868
 10
43.490179350775485
 20
3.003746628892808
 10
43.39970560527694
 20
3.0145330407280997
 10
43.3067895386703
 20
3.0255053138598482
 10
43.211355530922134
 20
3.0367937928254363
 10
43.11354228478159
 20
3.048339574014993
 10
43.013211097499514
 20
3.060201561038389
 10
42.91049649271919
 20
3.0723881121073853
 10
42.80533120861898
 20
3.0848950481161013
 10
42.697782507020506
 20
3.097726548170418
 10
42.58778730520803
 20
3.1108111713428226
 10
42.475412865003186
 20
3.1241530967391973
 10
42.36058356637255
 20
3.137882668896921
 10
42.2434381120653
 20
3.1519409842061266
 10
42.12390924025979
 20
3.1663238635609328
 10
42.00199695095603
 20
3.1810313069613385
 10
41.877701244154004
 20
3.196063314407345
 10
41.751085202569485
 20
3.2114913268264638
 10
41.62208574348669
 20
3.2272439032911824
 10
41.490765949621405
 20
3.2433924847290134
 10
41.35713000007948
 20
3.2598698093183245
 10
41.2211862530727
 20
3.2765413534158547
 10
41.08299361221093
 20
3.293545819770746
 10
40.94247645746076
 20
3.31101355292038
 10
40.79963478882221
 20
3.3289445528647583
 10
40.65454840543453
 20
3.347141213244865
 10
40.50721312819187
 20
3.365670795882335
 10
40.35762895709421
 20
3.3845333007771647
 10
40.20578335482392
 20
3.40393051339425
 10
40.05169721691041
 20
3.4235261246254356
 10
39.89542944696351
 20
3.443458837219861
 10
39.736975865877376
 20
3.4637959129991605
 10
39.57626503272449
 20
3.484600434679084
 10
39.41343565025399
 20
3.50581349864976
 10
39.24842463575012
 20
3.5273636639836785
 10
39.081231989212895
 20
3.5492509306808393
 10
38.91191661425217
 20
3.571614001490384
 10
38.74049522729147
 20
3.594183829125789
 10
38.56689220829742
 20
3.6170907581244363
 10
38.391237901807365
 20
3.640410408519717
 10
38.213532307821346
 20
3.6641427803116318
 10
38.03371652272949
 20
3.688149170751039
 10
37.851786367425895
 20
3.7124968416595685
 10
37.66787636555381
 20
3.7371941512489806
 10
37.481910897079864
 20
3.7623714440566567
 10
37.29390249932172
 20
3.7878269346177067
 10
37.10391843410096
 20
3.813564802038008
 10
36.911958701417625
 20
3.839585046317561
 10
36.71801494305995
 20
3.86602219109963
 10
36.52208715902792
 20
3.8928762363842124
 10
36.32417952842741
 20
3.920079920349679
 10
36.12443075400758
 20
3.9475743393861586
 10
35.92270213301928
 20
3.9754183971035215
 10
35.71906092728412
 20
4.003616272607648
 10
35.513586935941426
 20
4.031970359539526
 10
35.30620871806364
 20
4.060543740614905
 10
35.09698099815476
 20
4.08954238040456
 10
34.885971038036445
 20
4.118970458014371
 10
34.673052672277144
 20
4.148685091589315
 10
34.4583729618378
 20
4.178492853876259
 10
34.2419151902949
 20
4.208662792161728
 10
34.023683536754284
 20
4.239127644624091
 10
33.80367382211008
 20
4.269954673084978
 10
33.58196166639571
 20
4.3010135330070085
 10
33.35854706961116
 20
4.332304224390183
 10
33.13336276993479
 20
4.363822568128619
 10
32.90653911190398
 20
4.395644184255709
 10
32.67800883369712
 20
4.427764893665575
 10
32.44784755534758
 20
4.460054351820833
 10
32.216055276855364
 20
4.492512558721483
 10
31.982699260042118
 20
4.525143693473406
 10
31.747708063980305
 20
4.5580108387923515
 10
31.511140592279823
 20
4.591252697427465
 10
31.272942120436667
 20
4.624663304807971
 10
31.03331025480984
 20
4.6583224600731405
 10
30.79212718817963
 20
4.691952757724692
 10
30.549388741440133
 20
4.725621459584251
 10
30.305216900916967
 20
4.759538709328476
 10
30.059607487504277
 20
4.793771768778997
 10
29.812438514876423
 20
4.82811049425916
 10
29.563987388531693
 20
4.862437078549225
 10
29.314056502111075
 20
4.896671722509918
 10
29.06276784194019
 20
4.931024569817894
 10
28.810049967091526
 20
4.965558703188904
 10
28.556041580314233
 20
5.000215219013078
 10
28.300687957104312
 20
5.03478815271964
 10
28.044048001071637
 20
5.069416207057736
 10
27.786113354004435
 20
5.104233905670626
 10
27.526904911432137
 20
5.138904939450155
 10
27.266426852460594
 20
5.173362046574693
 10
27.004792805203685
 20
5.207949894364154
 10
26.741872425124022
 20
5.242592862785148
 10
26.47779605675898
 20
5.277366571871067
 10
26.21258877474385
 20
5.311867450692123
 10
25.946246399972758
 20
5.346162761069947
 10
25.678760574233927
 20
5.380387026647803
 10
25.41011876020972
 20
5.414742032890584
 10
25.140472197966933
 20
5.448967090723525
 10
24.86970308028582
 20
5.4827847946483415
 10
24.598000655313623
 20
5.516409467447566
 10
24.325209503877687
 20
5.550169060017599
 10
24.05141360422316
 20
5.5837987041777914
 10
23.77662967277357
 20
5.6170293526416195
 10
23.50098387496041
 20
5.650003887264107
 10
23.22433750803455
 20
5.682781211655125
 10
22.94682091653336
 20
5.715436945848064
 10
22.668371017741094
 20
5.747899648915412
 10
22.389063431691145
 20
5.780038976319791
 10
22.10896542020515
 20
5.811859107167075
 10
21.82800972146146
 20
5.84335586235139
 10
21.54633085910335
 20
5.874537600084493
 10
21.263794309487555
 20
5.905395962154626
 10
20.980526238045584
 20
5.93607383041681
 10
20.696530823883315
 20
5.966503943049413
 10
20.411828962530134
 20
5.996349990944282
 10
20.1264122957743
 20
6.025746497744676
 10
19.84041116815318
 20
6.054769083483991
 10
19.553686876917645
 20
6.083476651772093
 10
19.26638230392271
 20
6.111743037177485
 10
18.978501628274262
 20
6.139500977878532
 10
18.690049029078168
 20
6.166683212053604
 10
18.401016148122682
 20
6.193424263345965
 10
18.111466068123548
 20
6.219795572683125
 10
17.82139878908076
 20
6.2457971400650845
 10
17.530894110133605
 20
6.271231359132829
 10
17.23988894856633
 20
6.2960267889588515
 10
16.94845474530643
 20
6.320120346827395
 10
16.65664622485792
 20
6.343717997309239
 10
16.364383588081495
 20
6.367017346763392
 10
16.071809716832206
 20
6.389892229758356
 10
15.778890782135454
 20
6.411800372615198
 10
15.485601709355965
 20
6.433145346263708
 10
15.192072843031111
 20
6.454002770737278
 10
14.898245279551032
 20
6.474233943286763
 10
14.604123198021595
 20
6.4937716020905345
 10
14.309828584768438
 20
6.512825890825244
 10
14.015298357075785
 20
6.531325368563382
 10
13.720612314082931
 20
6.5490724289459346
 10
13.425703193968232
 20
6.56606289286702
 10
13.130701341269083
 20
6.582372380360035
 10
12.835602576879598
 20
6.598068153246606
 10
12.540419438117413
 20
6.612948426061841
 10
12.245147745876649
 20
6.627080460627371
 10
11.949850582873069
 20
6.640535697870709
 10
11.654448149967381
 20
6.653511744150867
 10
11.359100045438142
 20
6.6656133867498175
 10
11.063806269285347
 20
6.676840625667563
 10
10.768562642403118
 20
6.687260722725733
 10
10.47336498568558
 20
6.69694093974596
 10
10.178284740060244
 20
6.705818194012491
 10
9.883250464599579
 20
6.71395556824108
 10
9.588400862052755
 20
6.721294158821854
 10
9.293744290631517
 20
6.727699442111554
 10
8.999276571229991
 20
6.733238679931807
 10
8.704993524742283
 20
6.737979134104246
 10
8.4108993302743
 20
6.74185354280724
 10
8.117136869681039
 20
6.744735740609288
 10
7.823630522929122
 20
6.74675607204777
 10
7.530439193628415
 20
6.748053239871831
 10
7.237516515486693
 20
6.7482867558674355
 10
6.944988653935448
 20
6.747599501889604
 10
6.652843071657051
 20
6.746193263403231
 10
6.361025044147504
 20
6.743862075837542
 10
6.0696774532618365
 20
6.740479773761038
 10
5.77879194078828
 20
6.736180880816978
 10
5.48830960311697
 20
6.730826694256221
 10
5.198356605679403
 20
6.724560095933791
 10
4.908874044865715
 20
6.717242383100544
 10
4.619992265213284
 20
6.708949175789874
 10
4.331564205761207
 20
6.69987390125491
 10
4.043732748364509
 20
6.689890394064153
 10
3.7565146094467075
 20
6.678729606931078
 10
3.469905609901923
 20
6.666458801677318
 10
3.183960474234152
 20
6.653283942873643
 10
2.898683381549271
 20
6.639137768698424
 10
2.6140785109531532
 20
6.623953017330032
 10
2.3302131242674426
 20
6.607733867874344
 10
2.0470116014587383
 20
6.590610664868744
 10
1.7645328461369083
 20
6.572722111062372
 10
1.4828608365471176
 20
6.553803338274588
 10
1.202003930901118
 20
6.5337198228621265
 10
0.9219537709871473
 20
6.512606088468252
 10
0.6427734395209656
 20
6.490533576020474
 10
0.36439567468092904
 20
6.467498106412914
 10
0.08688355918279726
 20
6.443571120573084
 10
-0.18969982425768436
 20
6.418824059428492
 10
-0.46540502103861625
 20
6.392983696586737
 10
-0.7401647693383725
 20
6.366054211153697
 10
-1.0139327028647331
 20
6.3383760913434095
 10
-1.286767725227553
 20
6.309810634406731
 10
-1.5585311336776988
 20
6.280298936733792
 10
-1.8293574518584304
 20
6.249832640112831
 10
-2.099112156126485
 20
6.21842010275561
 10
-2.367736342871994
 20
6.186200027411271
 10
-2.635368714844098
 20
6.153231317689685
 10
-2.9019211146917665
 20
6.119181843588574
 10
-3.167284093407018
 20
6.0844635342494895
 10
-3.4315332710232394
 20
6.049206734209812
 10
-3.6947108347267874
 20
6.013003693433873
 10
-3.9566149990527673
 20
5.975866949239316
 10
-4.21732556314045
 20
5.937994107985152
 10
-4.476846706095713
 20
5.899452431493015
 10
-4.735170069706796
 20
5.8601073961196395
 10
-4.992165309436323
 20
5.820034621898419
 10
-5.247966948927552
 20
5.779225750617593
 10
-5.502453001854861
 20
5.737890925953815
 10
-5.755615110006493
 20
5.695895624263824
 10
-6.007449094276563
 20
5.653172583725988
 10
-6.257959133770955
 20
5.609789066161938
 10
-6.507086324879795
 20
5.5658837743208185
 10
-6.754897929424721
 20
5.521452529096747
 10
-7.0012510655507
 20
5.476369165058222
 10
-7.246145733257739
 20
5.430633682205246
 10
-7.489645015261586
 20
5.384174639610304
 10
-7.731685828846493
 20
5.33706347820091
 10
-7.972280711330101
 20
5.289501983441958
 10
-8.211366579996653
 20
5.241561596260958
 10
-8.448926718422635
 20
5.192973269371385
 10
-8.685028388429675
 20
5.143732823667361
 10
-8.919465625446998
 20
5.093785534644894
 10
-9.15238549043551
 20
5.043324829557117
 10
-9.38379216250109
 20
4.992417970225663
 10
-9.613551118000474
 20
4.941073314862291
 10
-9.841658177827785
 20
4.889223601645369
 10
-10.06816806648701
 20
4.836662866004127
 10
-10.29303023858004
 20
4.783664334330966
 10
-10.516257231424522
 20
4.730429792090781
 10
-10.737760887669415
 20
4.6766271092812985
 10
-10.95760846913635
 20
4.622252106796634
 10
-11.17567381039383
 20
4.567447666491814
 10
-11.39202417326349
 20
4.5122096092609585
 10
-11.6066637368512
 20
4.456605196925696
 10
-11.819512702017693
 20
4.4004368231270155
 10
-12.030579426974729
 20
4.343839011508178
 10
-12.239863911722308
 20
4.286811762069186
 10
-12.447382872683955
 20
4.229624122096561
 10
-12.652997607110525
 20
4.172217187980434
 10
-12.856830101327635
 20
4.114380816044152
 10
-13.058804735301898
 20
4.055984661750332
 10
-13.258870963635204
 20
3.997301951491379
 10
-13.457104406360942
 20
3.9384630298046748
 10
-13.653421085233962
 20
3.8792030285095747
 10
-13.847762096644393
 20
3.8196606503552237
 10
-14.040266143341379
 20
3.7598947989514913
 10
-14.230798701681653
 20
3.6999138325101373
 10
-14.419347234347576
 20
3.639515965566267
 10
-14.605924278656795
 20
3.578902983584778
 10
-14.790534013715183
 20
3.518142148387298
 10
-14.973172260416861
 20
3.4571661981521977
 10
-15.153771756940202
 20
3.3959793119853576
 10
-15.33232832417932
 20
3.3345142280651436
 10
-15.508913403061733
 20
3.2728340291073112
 10
-15.683392469944172
 20
3.210947073323618
 10
-15.855773883038395
 20
3.1489878843573265
 10
-16.02618380777592
 20
3.0868135803534154
 10
-16.194420458691834
 20
3.024436698629524
 10
-16.360546918501903
 20
2.9617857982581417
 10
-16.524579903629636
 20
2.8991299265257933
 10
-16.68651941407505
 20
2.8364690834324793
 10
-16.846289829804732
 20
2.7736729244408167
 10
-17.003886971712813
 20
2.710674187729175
 10
-17.159373922515044
 20
2.6474014323700414
 10
-17.31263705409756
 20
2.584199325683335
 10
-17.46373944917612
 20
2.5209964267415423
 10
-17.61267274953896
 20
2.4576582119014017
 10
-17.759369693364444
 20
2.394188860268793
 10
-17.903838638864332
 20
2.33072289548698
 10
-18.046071227826868
 20
2.267125793912699
 10
-18.186071639357937
 20
2.203464817367582
 10
-18.323844052563405
 20
2.1398072276732596
 10
-18.459312847409894
 20
2.07602268029235
 10
-18.592490561215044
 20
2.0123129606897474
 10
-18.723427739376948
 20
1.948404842473046
 10
-18.85207383649752
 20
1.884571552034651
 10
-18.978424673470865
 20
1.820745827552932
 10
-19.10247607119111
 20
1.7568604072062561
 10
-19.22416076783662
 20
1.692919470100506
 10
-19.343550204334896
 20
1.6289860989514309
 10
-19.460589656181966
 20
1.5652662583298058
 10
-19.57527076516606
 20
1.5016254245923677
 10
-19.687593531287188
 20
1.438063597739116
 10
-19.797629395472846
 20
1.3746438604858031
 10
-19.9052396549739
 20
1.3113073092225582
 10
-20.01049992982374
 20
1.2481842884867622
 10
-20.113351316412498
 20
1.185413501027559
 10
-20.213861076561805
 20
1.1229907677390687
 10
-20.311953590238268
 20
1.0607857440839084
 10
-20.407700298369395
 20
0.9988615127778286
 10
-20.500966677311933
 20
0.9372264320325914
 10
-20.591895608920897
 20
0.8760066672796968
 10
-20.6803567486589
 20
0.8152778385525383
 10
-20.76640900013583
 20
0.7549012431019727
 10
-20.850052363351672
 20
0.6948768809279998
 10
-20.93128683830643
 20
0.6352047520306195
 10
-21.010053521390237
 20
0.576023559158975
 10
-21.086352412603095
 20
0.517333302313066
 10
-21.16023823644898
 20
0.4589280169221189
 10
-21.23165626842391
 20
0.401013667556907
 10
-21.300589792104372
 20
0.3433212069309062
 10
-21.36705552391388
 20
0.28611968233064117
 10
-21.431036747428916
 20
0.22914004646958674
 10
-21.492541820861227
 20
0.17251682299100576
 10
-21.551570744210835
 20
0.11625001189489756
 10
-21.608052076550205
 20
0.0602765304655122
 10
-21.66212869973438
 20
0.004722544134350816
 10
-21.713586290980817
 20
-0.050601195245838726
 10
-21.76263499396617
 20
-0.10557270134943565
 10
-21.809136105941295
 20
-0.16025087778631017
 10
-21.853102164223834
 20
-0.21443393909156816
 10
-21.89459207242366
 20
-0.268260588014353
 10
-21.933542747825022
 20
-0.3216593836271531
 10
-21.96997090685144
 20
-0.3743612786434427
 10
-22.003931274006906
 20
-0.42657223763399704
 10
-22.035364945681547
 20
-0.4781535578496724
 10
-22.064280280087125
 20
-0.5289707156472067
 10
-22.09069399364716
 20
-0.5787546637400744
 10
-22.114606086361658
 20
-0.6275054021282763
 10
-22.13609217826401
 20
-0.6750925862744299
 10
-22.155038641240353
 20
-0.721171548858618
 10
-22.17152945353584
 20
-0.7654774217001962
 10
-22.185673668030905
 20
-0.8073417656887325
 10
-22.19736601482346
 20
-0.8462853898610474
 10
-22.20674062142921
 20
-0.8812362841769212
 10
-22.213931615363887
 20
-0.9111224385961345
 10
-22.218904771525363
 20
-0.9343212111877767
 10
-22.221831829382268
 20
-0.9491552355169468
 10
-22.19640113831081
 20
-1.3791049405739628
 10
-22.194910029299912
 20
-1.3824558904654263
 10
-22.190440881373092
 20
-1.3924414783181855
 10
-22.183010410953866
 20
-1.4087926568457154
 10
-22.172480311420646
 20
-1.4326486979098667
 10
-22.158897345193203
 20
-1.4654304579766564
 10
-22.142411563955687
 20
-1.5036361432153795
 10
-22.123085258168768
 20
-1.5451764580495868
 10
-22.10110727985215
 20
-1.5891853570098333
 10
-22.076498128407692
 20
-1.6342461627359819
 10
-22.04922815396669
 20
-1.6797493397274714
 10
-22.01945277570182
 20
-1.725366937087906
 10
-21.98712144821495
 20
-1.770825728424881
 10
-21.952250887929623
 20
-1.8158566664518705
 10
-21.914849453057588
 20
-1.8603252275256128
 10
-21.87491714359885
 20
-1.9042314116461077
 10
-21.832525400480918
 20
-1.9475121360976042
 10
-21.787615320093924
 20
-1.9900286981309594
 10
-21.74018272333199
 20
-2.031848359567805
 10
-21.690299051122622
 20
-2.0729080376923896
 10
-21.637888683432433
 20
-2.113338077042095
 10
-21.582955799367298
 20
-2.153071215795291
 10
-21.525643280782244
 20
-2.1919812885204757
 10
-21.465736804894732
 20
-2.2302575433649006
 10
-21.403442336275546
 20
-2.267845255824577
 10
-21.33862117217553
 20
-2.3048033295093746
 10
-21.27134475352221
 20
-2.3410686817035424
 10
-21.201617259421454
 20
-2.3765740505854502
 10
-21.12942615255562
 20
-2.41152122161999
 10
-21.054779791136482
 20
-2.445775671163901
 10
-20.97766145874051
 20
-2.4796064465037073
 10
-20.898083692685343
 20
-2.5128117621745156
 10
-20.816105396580852
 20
-2.5455303209254687
 10
-20.73165930860541
 20
-2.5777579436506857
 10
-20.64473707054725
 20
-2.60962915399343
 10
-20.555410123333896
 20
-2.6410808692379497
 10
-20.46367428785945
 20
-2.6721803512058773
 10
-20.369529564123926
 20
-2.702927599897212
 10
-20.27289615298804
 20
-2.733520221670967
 10
-20.173912757200945
 20
-2.7638993129172724
 10
-20.072449032225258
 20
-2.793989253602736
 10
-19.968639501704235
 20
-2.8237984019391185
 10
-19.862408545604488
 20
-2.853457102463802
 10
-19.753823425747644
 20
-2.8829695342826667
 10
-19.642821059417958
 20
-2.9122642564682018
 10
-19.52947706664882
 20
-2.9412109244830247
 10
-19.41372000651272
 20
-2.9698726210428856
 10
-19.295680223547034
 20
-2.9983249661811775
 10
-19.17529045593014
 20
-3.02656378079202
 10
-19.05255070366203
 20
-3.0545890648754126
 10
-18.92747350406035
 20
-3.0821990329664617
 10
-18.800126118946732
 20
-3.109397864171048
 10
-18.67044128649954
 20
-3.1361813793832907
 10
-18.538477910328645
 20
-3.162688281352333
 10
-18.40423599043405
 20
-3.1889185700781755
 10
-18.267732243239276
 20
-3.2146031982742924
 10
-18.12902557235419
 20
-3.239880868689826
 10
-17.98805289506305
 20
-3.2646801403972665
 10
-17.844810032259968
 20
-3.2890682752182436
 10
-17.69936424576657
 20
-3.313049452258638
 10
-17.551719714688755
 20
-3.33655640969682
 10
-17.401872259920626
 20
-3.3596564093544186
 10
-17.249821881462186
 20
-3.3823494512314354
 10
-17.09557275841932
 20
-3.404568273506238
 10
-16.93918797350777
 20
-3.426384317106339
 10
-16.78066752672755
 20
-3.447797582031738
 10
-16.619948335362903
 20
-3.468736627354924
 10
-16.457156564845324
 20
-3.4893443349309186
 10
-16.29222913245907
 20
-3.509549263832212
 10
-16.125161859098252
 20
-3.529418675880436
 10
-15.956026185690396
 20
-3.5488894883598374
 10
-15.784834649553131
 20
-3.5677599158055235
 10
-15.611574713368821
 20
-3.5862317436823887
 10
-15.436170757104067
 20
-3.6044353165278147
 10
-15.258828745329655
 20
-3.622315909837812
 10
-15.079422512614077
 20
-3.6397306417573563
 10
-14.897956238063207
 20
-3.6566122504648173
 10
-14.714556087108559
 20
-3.673103617815217
 10
-14.529150618822612
 20
-3.689267826524308
 10
-14.341748191417134
 20
-3.704970352948827
 10
-14.152416066713748
 20
-3.7202153761946537
 10
-13.96115842381834
 20
-3.7349356344401583
 10
-13.76796272541327
 20
-3.7493329131502335
 10
-13.572837329710294
 20
-3.7632726886816172
 10
-13.375773878497657
 20
-3.776889484677572
 10
-13.176919432736254
 20
-3.7899898738849656
 10
-12.97613528967695
 20
-3.802632759913667
 10
-12.773488711141377
 20
-3.8148223218695576
 10
-12.569042779845278
 20
-3.826630000680149
 10
-12.36273859217879
 20
-3.837917093596298
 10
-12.15463505175178
 20
-3.848822303367148
 10
-11.944803599491758
 20
-3.859282547276948
 10
-11.733118069967228
 20
-3.869154943470675
 10
-11.51971298682145
 20
-3.8784478501600894
 10
-11.304575812736777
 20
-3.8873630528100844
 10
-11.087706547713218
 20
-3.8959005514206617
 10
-10.869105191750768
 20
-3.9040603459918195
 10
-10.648851543988696
 20
-3.9116448301645463
 10
-10.426953962638773
 20
-3.9185194802955783
 10
-10.20332846945584
 20
-3.9249491645655596
 10
-9.978109588083159
 20
-3.930942241186253
 10
-9.751238414910858
 20
-3.936360007408514
 10
-9.522790569972335
 20
-3.941072118694961
 10
-9.292753515949945
 20
-3.9452803605104885
 10
-9.061186156453557
 20
-3.949123435604238
 10
-8.828029587873305
 20
-3.9524626412270685
 10
-8.593296347526826
 20
-3.9550961919140843
 10
-8.357112600845621
 20
-3.957166969520311
 10
-8.119474168723814
 20
-3.958742235867377
 10
-7.880246527518141
 20
-3.959813632743524
 10
-7.639635641799373
 20
-3.960326435644761
 10
-7.397582607957647
 20
-3.9601419418219446
 10
-7.154087425992954
 20
-3.959260151275076
 10
-6.90921317862105
 20
-3.957752504931666
 10
-6.662938970312532
 20
-3.955955311899871
 10
-6.415344600206672
 20
-3.953670965820679
 10
-6.1663795229053635
 20
-3.9506262403016827
 10
-5.916039559302719
 20
-3.946888397164514
 10
-5.66445923304201
 20
-3.9424657946209343
 10
-5.411554565878076
 20
-3.937623300851588
 10
-5.157401177844313
 20
-3.932230571319093
 10
-4.901999068940719
 20
-3.926287606023449
 10
-4.645356597379058
 20
-3.9196598813213934
 10
-4.387469584053445
 20
-3.912414659034558
 10
-4.128464194395385
 20
-3.904694821017967
 10
-3.868214262973379
 20
-3.8963574854165954
 10
-3.606862671642444
 20
-3.8872764867989424
 10
-3.344405241296702
 20
-3.87751908698664
 10
-3.080837792830273
 20
-3.867152547801317
 10
-2.816097243527407
 20
-3.856105428315465
 10
-2.5503937370647622
 20
-3.8442557422034604
 10
-2.2836641907265784
 20
-3.831532048537793
 10
-2.0158162680559464
 20
-3.818333739142369
 10
-1.7469886718020122
 20
-3.8046019104073183
 10
-1.4772737384216852
 20
-3.789937170508734
 10
-1.206524406954065
 20
-3.7745329466997486
 10
-0.9348037601149007
 20
-3.758460679907875
 10
-0.6622546797592155
 20
-3.7415942047016095
 10
-0.38874682134963107
 20
-3.723857901047562
 10
-0.11441470852939921
 20
-3.7052601271574925
 10
0.1608256369466176
 20
-3.686065751212046
 10
0.43689859504503586
 20
-3.6661444286738396
 10
0.7137160084148271
 20
-3.6451640295405987
 10
0.9913576761952552
 20
-3.6233221601713352
 10
1.2697730529882163
 20
-3.600892046958456
 10
1.5488823396544293
 20
-3.5776760835429484
 10
1.8287486189096567
 20
-3.5536028289972976
 10
2.1093129871440195
 20
-3.5288109860706505
 10
2.390558727933996
 20
-3.503031507476479
 10
2.6724858412795967
 20
-3.4762643932147834
 10
2.9550437817826998
 20
-3.448782869677971
 10
3.238169466727557
 20
-3.4206583777935533
 10
3.521925978829928
 20
-3.3918194766340175
 10
3.8062335189505268
 20
-3.3620685598403504
 10
4.091100445301122
 20
-3.331540151055815
 10
4.376526757881717
 20
-3.300234250280411
 10
4.662445194870675
 20
-3.2681550366200196
 10
4.948843218950351
 20
-3.235100724609746
 10
5.235729188332514
 20
-3.201205837892853
 10
5.522985295797421
 20
-3.166747781967628
 10
5.81074188588245
 20
-3.1316509368006766
 10
6.098851897626704
 20
-3.0957218751388678
 10
6.38738677195769
 20
-3.0590236796979506
 10
6.676211985232146
 20
-3.021564708689688
 10
6.965398978377581
 20
-2.98340804482983
 10
7.25494357228812
 20
-2.9444864262967445
 10
7.544715422426379
 20
-2.904875473123824
 10
7.834790148825755
 20
-2.864705529848452
 10
8.125163572380355
 20
-2.8239093346489956
 10
8.415696990341047
 20
-2.782427983915585
 10
8.706461843635337
 20
-2.7403245603639714
 10
8.997399228653359
 20
-2.6977377667432973
 10
9.288559690793216
 20
-2.654394376661158
 10
9.57981706462342
 20
-2.6104372719725752
 10
9.871179708355715
 20
-2.566000976320814
 10
10.16264344288423
 20
-2.521018227884241
 10
10.454199909997199
 20
-2.475354503019595
 10
10.745857467906397
 20
-2.4291443253701375
 10
11.037489951180298
 20
-2.3825305767908933
 10
11.329156263428795
 20
-2.335374554532718
 10
11.620801680147888
 20
-2.2878822231663856
 10
11.912413664019937
 20
-2.2398517972270042
 10
12.203988035939062
 20
-2.191216014892942
 10
12.495533154117023
 20
-2.1421093998074596
 10
12.786927032228188
 20
-2.092742095647215
 10
13.078236932094214
 20
-2.0431099233063246
 10
13.36938305457581
 20
-1.993015276425778
 10
13.660369578778855
 20
-1.9425254168272044
 10
13.95119650470336
 20
-1.8916403445106038
 10
14.241868011455205
 20
-1.8404273212976083
 10
14.532245396285234
 20
-1.788827443578347
 10
14.822400100120973
 20
-1.7369037940685716
 10
15.112269040246654
 20
-1.6847278136957937
 10
15.401927836695688
 20
-1.6324298469973944
 10
15.691225249401274
 20
-1.5797492048986106
 10
15.98016545746931
 20
-1.5267531492210733
 10
16.268836618250816
 20
-1.4737738099670579
 10
16.557079133467262
 20
-1.4204159744185374
 10
16.844888824012745
 20
-1.366612380753882
 10
17.132358026344203
 20
-1.3127624207969977
 10
17.41936057503011
 20
-1.2590089764029087
 10
17.705938657256837
 20
-1.204944297535947
 10
17.992029190308614
 20
-1.1506398251236236
 10
18.27756491236382
 20
-1.0960997382718192
 10
18.562621443455857
 20
-1.0414543815179163
 10
18.847135700868957
 20
-0.9867751957894262
 10
19.131111863709005
 20
-0.9321294429079803
 10
19.414474311942616
 20
-0.8773867783361969
 10
19.697214687358017
 20
-0.8224126784308128
 10
19.979345527272855
 20
-0.7674089286567227
 10
20.26086683168714
 20
-0.7123755290139259
 10
20.54164825606348
 20
-0.6573880995358147
 10
20.82182432404513
 20
-0.6024382820106285
 10
21.101247974671203
 20
-0.5473326491852343
 10
21.379923387047565
 20
-0.49213846288126395
 10
21.657871456703624
 20
-0.4371920322068726
 10
21.935088004533508
 20
-0.3824260953404294
 10
22.211430148682187
 20
-0.3277144868504334
 10
22.4870365918988
 20
-0.2731161103467538
 10
22.761768631434197
 20
-0.21857206221952177
 10
23.035693529110027
 20
-0.16407816336285605
 10
23.308752381316413
 20
-0.1097731165258993
 10
23.580877926231725
 20
-0.05566110081453256
 10
23.852145783889352
 20
-0.0018724607661375452
 10
24.122408893328384
 20
0.05178623087241805
 10
24.3918017781921
 20
0.10532333231289581
 10
24.660185735731343
 20
0.1587977471651655
 10
24.927585840581393
 20
0.2118059044994398
 10
25.193934830920636
 20
0.26434362520983856
 10
25.459342155757035
 20
0.3168228384379092
 10
25.723601850519824
 20
0.36929826868764304
 10
25.98688187169931
 20
0.42124017959774945
 10
26.249043516546354
 20
0.4727074747781
 10
26.510070068637415
 20
0.5239692015152188
 10
26.769961527972516
 20
0.5750253598091062
 10
27.028722073657526
 20
0.625808687838131
 10
27.286372601221842
 20
0.6759828764941367
 10
27.542770228810454
 20
0.7256740912086251
 10
27.79803694274898
 20
0.7750924756582506
 10
28.052038219394138
 20
0.8242296716312523
 10
28.304782416957725
 20
0.8729511554843683
 10
28.556277893651473
 20
0.921122403574335
 10
28.806516291263627
 20
0.9688779395444158
 10
29.05543034797256
 20
1.0162135842887294
 10
29.30309568381167
 20
1.0629989932698949
 10
29.54937777513768
 20
1.1092258082761501
 10
29.79433134645459
 20
1.15509999387827
 10
30.037821874119135
 20
1.2006131918644933
 10
30.280059501807962
 20
1.2456434159091987
 10
30.52078354044632
 20
1.2900394259456025
 10
30.760128513677476
 20
1.3338095801854657
 10
30.99809024239553
 20
1.3770211404504185
 10
31.234525844745463
 20
1.4198002721719627
 10
31.469439499833175
 20
1.462079713528468
 10
31.702969910407774
 20
1.5038005609100629
 10
31.934919470110284
 20
1.544883015177475
 10
32.16536379897408
 20
1.5851967317933235
 10
32.39422309785988
 20
1.6249393171166198
 10
32.62156044948346
 20
1.6641822120748775
 10
32.84731277112903
 20
1.7028539757405825
 10
33.07148006279663
 20
1.7409546081137368
 10
33.29400759998226
 20
1.7782781446235656
 10
33.5149501071899
 20
1.8150305498408434
 10
33.73417723988216
 20
1.8511362037321764
 10
33.951747901668924
 20
1.8867338090467092
 10
34.16767462986785
 20
1.9216215803195482
 10
34.38189434176316
 20
1.9557280766231808
 10
34.594394500037204
 20
1.9892550834225005
 10
34.805175104690015
 20
2.0222026007175082
 10
35.014236155721576
 20
2.0545706285082033
 10
35.22145148770038
 20
2.0862162849395625
 10
35.42696398248147
 20
2.117013404580084
 10
35.6306854827138
 20
2.147294117432045
 10
35.8325529056816
 20
2.176986982567931
 10
36.03263351320654
 20
2.2060961790936253
 10
36.23086840167872
 20
2.2344830042599826
 10
36.42718613017064
 20
2.262210540782755
 10
36.62171704321968
 20
2.289354408695335
 10
36.81433915450022
 20
2.3157044643210662
 10
37.005044105800486
 20
2.3413952313032125
 10
37.19383607622639
 20
2.3663594478201433
 10
37.38070252846026
 20
2.390798899336751
 10
37.56565182071386
 20
2.4145790622097723
 10
37.748616691165594
 20
2.4376957573333295
 10
37.929601318921314
 20
2.4600817228857887
 10
38.10866878669675
 20
2.4818083997946623
 10
38.28568039174277
 20
2.5029346916698203
 10
38.4606361340594
 20
2.523460598511264
 10
38.63360745457415
 20
2.543323037603243
 10
38.80459853239287
 20
2.5624547471241237
 10
38.973462306554694
 20
2.5810491543270406
 10
39.140266038881215
 20
2.5991104383178736
 10
39.305022266690095
 20
2.616436813631729
 10
39.46765954905383
 20
2.6330913629843575
 10
39.62816952776064
 20
2.649208610019022
 10
39.786627822843926
 20
2.6646582101983403
 10
39.9429040897663
 20
2.6793645434889193
 10
40.09705723213766
 20
2.6934663126399037
 10
40.249083070852066
 20
2.707030779472922
 10
40.39891434408794
 20
2.720053764882097
 10
40.54655941005704
 20
2.7324007452241643
 10
40.692014089653455
 20
2.744138982320755
 10
40.83527002466546
 20
2.7554029998151326
 10
40.97633139419891
 20
2.766125535885666
 10
41.115139294643946
 20
2.77616788778321
 10
41.25169372600055
 20
2.7855300555077673
 10
41.38604523366685
 20
2.794485265451741
 10
41.5181307349271
 20
2.802962076687622
 10
41.64795022978127
 20
2.810960489215408
 10
41.77550789733528
 20
2.818413241213469
 10
41.900736475767474
 20
2.825316153575924
 10
42.023703226899485
 20
2.8316734054086528
 10
42.14433253069793
 20
2.837615341249039
 10
42.26263274537455
 20
2.8430074374538186
 10
42.37859551271762
 20
2.8479842176662555
 10
42.492296452760506
 20
2.852415337348968
 10
42.60359268364819
 20
2.856426961933454
 10
42.71254728809641
 20
2.86009053234723
 10
42.81909718338944
 20
2.8633346076627806
 10
42.92331381045477
 20
2.866096105164357
 10
43.02512154925902
 20
2.868505369389341
 10
43.12459601983558
 20
2.87043205580035
 10
43.221590161223546
 20
2.8720695916505177
 10
43.31624267617205
 20
2.873359073329972
 10
43.408419041037845
 20
2.874292142626954
 10
43.498186517642566
 20
2.874872978647343
 10
43.5855451059862
 20
2.875101581391139
 10
43.67049062696287
 20
2.8750452126799746
 10
43.75295999785683
 20
2.874632431586336
 10
43.83294486045631
 20
2.8739977617534866
 10
43.91051665568881
 20
2.873078120465676
 10
43.98560394262686
 20
2.871936590438655
 10
44.0582109003763
 20
2.8705059098507917
 10
44.12833334983126
 20
2.8688533405237164
 10
44.19597547009764
 20
2.8669116206358014
 10
44.26113308206953
 20
2.8647480120086737
 10
44.3237978275352
 20
2.8624970382855994
 10
44.383910802884756
 20
2.860019996717433
 10
44.44160235265558
 20
2.857392507337567
 10
44.49666651227691
 20
2.8546692946499928
 10
44.54930924631951
 20
2.8517956341507182
 10
44.599396031140124
 20
2.8487631676279848
 10
44.646918508527
 20
2.8457064187250536
 10
44.691948119407634
 20
2.8425623047261737
 10
44.734417601960395
 20
2.839326646525466
 10
44.77431859797354
 20
2.836133967766192
 10
44.81172672748044
 20
2.8328539239109687
 10
44.8465663704477
 20
2.829616859497179
 10
44.87884170598124
 20
2.8263555127031927
 10
44.90854437586923
 20
2.8232044071722706
 10
44.93567855921762
 20
2.820096281082783
 10
44.96030733874213
 20
2.8171025753622407
 10
44.982296190799495
 20
2.814214931798882
 10
45.00170819810547
 20
2.8115047913202202
 10
45.01861062248168
 20
2.8089763330321347
 10
45.03286894028488
 20
2.806621198722865
 10
45.044542055124936
 20
2.8045780911415545
 10
45.05370140792934
 20
2.8027839275724515
 10
45.060204116843074
 20
2.801364873447058
 10
45.064113264581906
 20
2.800392369692886
 10
45.06542049293407
 20
2.800000939953197
  0
ENDSEC
  0
SECTION
  2
OBJECTS
  0
DICTIONARY
  5
A
330
0
100
AcDbDictionary
280
0
281
1
  3
ACAD_COLOR
350
B
  3
ACAD_GROUP
350
C
  3
ACAD_LAYOUT
350
D
  3
ACAD_MATERIAL
350
E
  3
ACAD_MLEADERSTYLE
350
F
  3
ACAD_MLINESTYLE
350
10
  3
ACAD_PLOTSETTINGS
350
11
  3
ACAD_PLOTSTYLENAME
350
12
  3
ACAD_SCALELIST
350
14
  3
ACAD_TABLESTYLE
350
15
  3
ACAD_VISUALSTYLE
350
16
  3
EZDXF_META
350
2D
  0
DICTIONARY
  5
B
330
A
100
AcDbDictionary
280
0
281
1
  0
DICTIONARY
  5
C
330
A
100
AcDbDictionary
280
0
281
1
  0
DICTIONARY
  5
D
330
A
100
AcDbDictionary
280
0
281
1
  3
Model
350
1A
  3
Layout1
350
1E
  0
DICTIONARY
  5
E
330
A
100
AcDbDictionary
280
0
281
1
  3
ByBlock
350
1F
  3
ByLayer
350
20
  3
Global
350
21
  0
DICTIONARY
  5
F
330
A
100
AcDbDictionary
280
0
281
1
  3
Standard
350
2C
  0
DICTIONARY
  5
10
330
A
100
AcDbDictionary
280
0
281
1
  3
Standard
350
22
  0
DICTIONARY
  5
11
330
A
100
AcDbDictionary
280
0
281
1
  0
ACDBDICTIONARYWDFLT
  5
12
330
A
100
AcDbDictionary
280
0
281
1
  3
Normal
350
13
100
AcDbDictionaryWithDefault
340
13
  0
ACDBPLACEHOLDER
  5
13
330
12
  0
DICTIONARY
  5
14
330
A
100
AcDbDictionary
280
0
281
1
  0
DICTIONARY
  5
15
330
A
100
AcDbDictionary
280
0
281
1
  0
DICTIONARY
  5
16
330
A
100
AcDbDictionary
280
0
281
1
  0
LAYOUT
  5
1A
330
D
100
AcDbPlotSettings
  1

  4
A3
  6

 40
7.5
 41
20.0
 42
7.5
 43
20.0
 44
420.0
 45
297.0
 46
0.0
 47
0.0
 48
0.0
 49
0.0
140
0.0
141
0.0
142
1.0
143
1.0
 70
1024
 72
1
 73
0
 74
5
  7

 75
16
 76
0
 77
2
 78
300
147
1.0
148
0.0
149
0.0
100
AcDbLayout
  1
Model
 70
1
 71
0
 10
0.0
 20
0.0
 11
420.0
 21
297.0
 12
0.0
 22
0.0
 32
0.0
 14
1e+20
 24
1e+20
 34
1e+20
 15
-1e+20
 25
-1e+20
 35
-1e+20
146
0.0
 13
0.0
 23
0.0
 33
0.0
 16
1.0
 26
0.0
 36
0.0
 17
0.0
 27
1.0
 37
0.0
 76
1
330
17
  0
LAYOUT
  5
1E
330
D
100
AcDbPlotSettings
  1

  4
A3
  6

 40
7.5
 41
20.0
 42
7.5
 43
20.0
 44
420.0
 45
297.0
 46
0.0
 47
0.0
 48
0.0
 49
0.0
140
0.0
141
0.0
142
1.0
143
1.0
 70
0
 72
1
 73
0
 74
5
  7

 75
16
 76
0
 77
2
 78
300
147
1.0
148
0.0
149
0.0
100
AcDbLayout
  1
Layout1
 70
1
 71
1
 10
0.0
 20
0.0
 11
420.0
 21
297.0
 12
0.0
 22
0.0
 32
0.0
 14
1e+20
 24
1e+20
 34
1e+20
 15
-1e+20
 25
-1e+20
 35
-1e+20
146
0.0
 13
0.0
 23
0.0
 33
0.0
 16
1.0
 26
0.0
 36
0.0
 17
0.0
 27
1.0
 37
0.0
 76
1
330
1B
  0
MATERIAL
  5
1F
102
{ACAD_REACTORS
330
E
102
}
330
E
100
AcDbMaterial
  1
ByBlock
  2

 70
0
 40
1.0
 71
1
 41
1.0
 91
-1023410177
 42
1.0
 72
1
  3

 73
1
 74
1
 75
1
 44
0.5
 73
0
 45
1.0
 46
1.0
 77
1
  4

 78
1
 79
1
170
1
 48
1.0
171
1
  6

172
1
173
1
174
1
140
1.0
141
1.0
175
1
  7

176
1
177
1
178
1
143
1.0
179
1
  8

270
1
271
1
272
1
145
1.0
146
1.0
273
1
  9

274
1
275
1
276
1
 42
1.0
 72
1
  3

 73
1
 74
1
 75
1
 94
63
  0
MATERIAL
  5
20
102
{ACAD_REACTORS
330
E
102
}
330
E
100
AcDbMaterial
  1
ByLayer
  2

 70
0
 40
1.0
 71
1
 41
1.0
 91
-1023410177
 42
1.0
 72
1
  3

 73
1
 74
1
 75
1
 44
0.5
 73
0
 45
1.0
 46
1.0
 77
1
  4

 78
1
 79
1
170
1
 48
1.0
171
1
  6

172
1
173
1
174
1
140
1.0
141
1.0
175
1
  7

176
1
177
1
178
1
143
1.0
179
1
  8

270
1
271
1
272
1
145
1.0
146
1.0
273
1
  9

274
1
275
1
276
1
 42
1.0
 72
1
  3

 73
1
 74
1
 75
1
 94
63
  0
MATERIAL
  5
21
102
{ACAD_REACTORS
330
E
102
}
330
E
100
AcDbMaterial
  1
Global
  2

 70
0
 40
1.0
 71
1
 41
1.0
 91
-1023410177
 42
1.0
 72
1
  3

 73
1
 74
1
 75
1
 44
0.5
 73
0
 45
1.0
 46
1.0
 77
1
  4

 78
1
 79
1
170
1
 48
1.0
171
1
  6

172
1
173
1
174
1
140
1.0
141
1.0
175
1
  7

176
1
177
1
178
1
143
1.0
179
1
  8

270
1
271
1
272
1
145
1.0
146
1.0
273
1
  9

274
1
275
1
276
1
 42
1.0
 72
1
  3

 73
1
 74
1
 75
1
 94
63
  0
MLINESTYLE
  5
22
102
{ACAD_REACTORS
330
10
102
}
330
10
100
AcDbMlineStyle
  2
Standard
 70
0
  3

 62
256
 51
90.0
 52
90.0
 71
2
 49
0.5
 62
256
  6
BYLAYER
 49
-0.5
 62
256
  6
BYLAYER
  0
MLEADERSTYLE
  5
2C
102
{ACAD_REACTORS
330
F
102
}
330
F
100
AcDbMLeaderStyle
179
2
170
2
171
1
172
0
 90
2
 40
0.0
 41
0.0
173
1
 91
-1056964608
 92
-2
290
1
 42
2.0
291
1
 43
8.0
  3
Standard
 44
4.0
300

342
29
174
1
175
1
176
0
178
1
 93
-1056964608
 45
4.0
292
0
297
0
 46
4.0
 94
-1056964608
 47
1.0
 49
1.0
140
1.0
294
1
141
0.0
177
0
142
1.0
295
0
296
0
143
3.75
271
0
272
9
273
9
  0
DICTIONARY
  5
2D
330
A
100
AcDbDictionary
280
1
281
1
  3
CREATED_BY_EZDXF
350
2E
  3
WRITTEN_BY_EZDXF
350
32
  0
DICTIONARYVAR
  5
2E
330
2D
100
DictionaryVariables
280
0
  1
1.3.5 @ 2025-08-20T01:05:14.314477+00:00
  0
DICTIONARYVAR
  5
32
330
2D
100
DictionaryVariables
280
0
  1
1.3.5 @ 2025-08-20T01:05:14.322456+00:00
  0
ENDSEC
  0
EOF
