  0
SECTION
  2
HEADER
  9
$ACADVER
  1
AC1032
  9
$ACADMAINTVER
 90
4
  9
$DWGCODEPAGE
  3
ANSI_1252
  9
$LASTSAVEDBY
  1
ezdxf
  9
$REQUIREDVERSIONS
160
0
  9
$INSBASE
 10
0.0
 20
0.0
 30
0.0
  9
$EXTMIN
 10
1e+20
 20
1e+20
 30
1e+20
  9
$EXTMAX
 10
-1e+20
 20
-1e+20
 30
-1e+20
  9
$LIMMIN
 10
0.0
 20
0.0
  9
$LIMMAX
 10
420.0
 20
297.0
  9
$ORTHOMODE
 70
0
  9
$REGENMODE
 70
1
  9
$FILLMODE
 70
1
  9
$QTEXTMODE
 70
0
  9
$MIRRTEXT
 70
1
  9
$LTSCALE
 40
1.0
  9
$ATTMODE
 70
1
  9
$TEXTSIZE
 40
2.5
  9
$TRACEWID
 40
1.0
  9
$TEXTSTYLE
  7
Standard
  9
$CLAYER
  8
0
  9
$CELTYPE
  6
ByLayer
  9
$CECOLOR
 62
256
  9
$CELTSCALE
 40
1.0
  9
$DISPSILH
 70
0
  9
$DIMSCALE
 40
1.0
  9
$DIMASZ
 40
2.5
  9
$DIMEXO
 40
0.625
  9
$DIMDLI
 40
3.75
  9
$DIMRND
 40
0.0
  9
$DIMDLE
 40
0.0
  9
$DIMEXE
 40
1.25
  9
$DIMTP
 40
0.0
  9
$DIMTM
 40
0.0
  9
$DIMTXT
 40
2.5
  9
$DIMCEN
 40
2.5
  9
$DIMTSZ
 40
0.0
  9
$DIMTOL
 70
0
  9
$DIMLIM
 70
0
  9
$DIMTIH
 70
0
  9
$DIMTOH
 70
0
  9
$DIMSE1
 70
0
  9
$DIMSE2
 70
0
  9
$DIMTAD
 70
1
  9
$DIMZIN
 70
8
  9
$DIMBLK
  1

  9
$DIMASO
 70
1
  9
$DIMSHO
 70
1
  9
$DIMPOST
  1

  9
$DIMAPOST
  1

  9
$DIMALT
 70
0
  9
$DIMALTD
 70
3
  9
$DIMALTF
 40
0.03937007874
  9
$DIMLFAC
 40
1.0
  9
$DIMTOFL
 70
1
  9
$DIMTVP
 40
0.0
  9
$DIMTIX
 70
0
  9
$DIMSOXD
 70
0
  9
$DIMSAH
 70
0
  9
$DIMBLK1
  1

  9
$DIMBLK2
  1

  9
$DIMSTYLE
  2
ISO-25
  9
$DIMCLRD
 70
0
  9
$DIMCLRE
 70
0
  9
$DIMCLRT
 70
0
  9
$DIMTFAC
 40
1.0
  9
$DIMGAP
 40
0.625
  9
$DIMJUST
 70
0
  9
$DIMSD1
 70
0
  9
$DIMSD2
 70
0
  9
$DIMTOLJ
 70
0
  9
$DIMTZIN
 70
8
  9
$DIMALTZ
 70
0
  9
$DIMALTTZ
 70
0
  9
$DIMUPT
 70
0
  9
$DIMDEC
 70
2
  9
$DIMTDEC
 70
2
  9
$DIMALTU
 70
2
  9
$DIMALTTD
 70
3
  9
$DIMTXSTY
  7
Standard
  9
$DIMAUNIT
 70
0
  9
$DIMADEC
 70
0
  9
$DIMALTRND
 40
0.0
  9
$DIMAZIN
 70
0
  9
$DIMDSEP
 70
44
  9
$DIMATFIT
 70
3
  9
$DIMFRAC
 70
0
  9
$DIMLDRBLK
  1

  9
$DIMLUNIT
 70
2
  9
$DIMLWD
 70
-2
  9
$DIMLWE
 70
-2
  9
$DIMTMOVE
 70
0
  9
$DIMFXL
 40
1.0
  9
$DIMFXLON
 70
0
  9
$DIMJOGANG
 40
0.785398163397
  9
$DIMTFILL
 70
0
  9
$DIMTFILLCLR
 70
0
  9
$DIMARCSYM
 70
0
  9
$DIMLTYPE
  6

  9
$DIMLTEX1
  6

  9
$DIMLTEX2
  6

  9
$DIMTXTDIRECTION
 70
0
  9
$LUNITS
 70
2
  9
$LUPREC
 70
4
  9
$SKETCHINC
 40
1.0
  9
$FILLETRAD
 40
10.0
  9
$AUNITS
 70
0
  9
$AUPREC
 70
2
  9
$MENU
  1
.
  9
$ELEVATION
 40
0.0
  9
$PELEVATION
 40
0.0
  9
$THICKNESS
 40
0.0
  9
$LIMCHECK
 70
0
  9
$CHAMFERA
 40
0.0
  9
$CHAMFERB
 40
0.0
  9
$CHAMFERC
 40
0.0
  9
$CHAMFERD
 40
0.0
  9
$SKPOLY
 70
0
  9
$TDCREATE
 40
2460908.0869560186
  9
$TDUCREATE
 40
2458532.153996898
  9
$TDUPDATE
 40
2460908.0869560186
  9
$TDUUPDATE
 40
2458532.1544311
  9
$TDINDWG
 40
0.0
  9
$TDUSRTIMER
 40
0.0
  9
$USRTIMER
 70
1
  9
$ANGBASE
 50
0.0
  9
$ANGDIR
 70
0
  9
$PDMODE
 70
0
  9
$PDSIZE
 40
0.0
  9
$PLINEWID
 40
0.0
  9
$SPLFRAME
 70
0
  9
$SPLINETYPE
 70
6
  9
$SPLINESEGS
 70
8
  9
$HANDSEED
  5
33
  9
$SURFTAB1
 70
6
  9
$SURFTAB2
 70
6
  9
$SURFTYPE
 70
6
  9
$SURFU
 70
6
  9
$SURFV
 70
6
  9
$UCSBASE
  2

  9
$UCSNAME
  2

  9
$UCSORG
 10
0.0
 20
0.0
 30
0.0
  9
$UCSXDIR
 10
1.0
 20
0.0
 30
0.0
  9
$UCSYDIR
 10
0.0
 20
1.0
 30
0.0
  9
$UCSORTHOREF
  2

  9
$UCSORTHOVIEW
 70
0
  9
$UCSORGTOP
 10
0.0
 20
0.0
 30
0.0
  9
$UCSORGBOTTOM
 10
0.0
 20
0.0
 30
0.0
  9
$UCSORGLEFT
 10
0.0
 20
0.0
 30
0.0
  9
$UCSORGRIGHT
 10
0.0
 20
0.0
 30
0.0
  9
$UCSORGFRONT
 10
0.0
 20
0.0
 30
0.0
  9
$UCSORGBACK
 10
0.0
 20
0.0
 30
0.0
  9
$PUCSBASE
  2

  9
$PUCSNAME
  2

  9
$PUCSORG
 10
0.0
 20
0.0
 30
0.0
  9
$PUCSXDIR
 10
1.0
 20
0.0
 30
0.0
  9
$PUCSYDIR
 10
0.0
 20
1.0
 30
0.0
  9
$PUCSORTHOREF
  2

  9
$PUCSORTHOVIEW
 70
0
  9
$PUCSORGTOP
 10
0.0
 20
0.0
 30
0.0
  9
$PUCSORGBOTTOM
 10
0.0
 20
0.0
 30
0.0
  9
$PUCSORGLEFT
 10
0.0
 20
0.0
 30
0.0
  9
$PUCSORGRIGHT
 10
0.0
 20
0.0
 30
0.0
  9
$PUCSORGFRONT
 10
0.0
 20
0.0
 30
0.0
  9
$PUCSORGBACK
 10
0.0
 20
0.0
 30
0.0
  9
$USERI1
 70
0
  9
$USERI2
 70
0
  9
$USERI3
 70
0
  9
$USERI4
 70
0
  9
$USERI5
 70
0
  9
$USERR1
 40
0.0
  9
$USERR2
 40
0.0
  9
$USERR3
 40
0.0
  9
$USERR4
 40
0.0
  9
$USERR5
 40
0.0
  9
$WORLDVIEW
 70
1
  9
$SHADEDGE
 70
3
  9
$SHADEDIF
 70
70
  9
$TILEMODE
 70
1
  9
$MAXACTVP
 70
64
  9
$PINSBASE
 10
0.0
 20
0.0
 30
0.0
  9
$PLIMCHECK
 70
0
  9
$PEXTMIN
 10
1e+20
 20
1e+20
 30
1e+20
  9
$PEXTMAX
 10
-1e+20
 20
-1e+20
 30
-1e+20
  9
$PLIMMIN
 10
0.0
 20
0.0
  9
$PLIMMAX
 10
420.0
 20
297.0
  9
$UNITMODE
 70
0
  9
$VISRETAIN
 70
1
  9
$PLINEGEN
 70
0
  9
$PSLTSCALE
 70
1
  9
$TREEDEPTH
 70
3020
  9
$CMLSTYLE
  2
Standard
  9
$CMLJUST
 70
0
  9
$CMLSCALE
 40
20.0
  9
$PROXYGRAPHICS
 70
1
  9
$MEASUREMENT
 70
1
  9
$CELWEIGHT
370
-1
  9
$ENDCAPS
280
0
  9
$JOINSTYLE
280
0
  9
$LWDISPLAY
290
0
  9
$INSUNITS
 70
6
  9
$HYPERLINKBASE
  1

  9
$STYLESHEET
  1

  9
$XEDIT
290
1
  9
$CEPSNTYPE
380
0
  9
$PSTYLEMODE
290
1
  9
$FINGERPRINTGUID
  2
{2353CDA0-4ECF-42EB-AF60-C6C23486BB8D}
  9
$VERSIONGUID
  2
{BBBC40EA-0AF6-42E5-A63E-8896C03EF574}
  9
$EXTNAMES
290
1
  9
$PSVPSCALE
 40
0.0
  9
$OLESTARTUP
290
0
  9
$SORTENTS
280
127
  9
$INDEXCTL
280
0
  9
$HIDETEXT
280
1
  9
$XCLIPFRAME
280
1
  9
$HALOGAP
280
0
  9
$OBSCOLOR
 70
257
  9
$OBSLTYPE
280
0
  9
$INTERSECTIONDISPLAY
280
0
  9
$INTERSECTIONCOLOR
 70
257
  9
$DIMASSOC
280
2
  9
$PROJECTNAME
  1

  9
$CAMERADISPLAY
290
0
  9
$LENSLENGTH
 40
50.0
  9
$CAMERAHEIGHT
 40
0.0
  9
$STEPSPERSEC
 40
24.0
  9
$STEPSIZE
 40
100.0
  9
$3DDWFPREC
 40
2.0
  9
$PSOLWIDTH
 40
0.005
  9
$PSOLHEIGHT
 40
0.08
  9
$LOFTANG1
 40
1.570796326795
  9
$LOFTANG2
 40
1.570796326795
  9
$LOFTMAG1
 40
0.0
  9
$LOFTMAG2
 40
0.0
  9
$LOFTPARAM
 70
7
  9
$LOFTNORMALS
280
1
  9
$LATITUDE
 40
37.795
  9
$LONGITUDE
 40
-122.394
  9
$NORTHDIRECTION
 40
0.0
  9
$TIMEZONE
 70
-8000
  9
$LIGHTGLYPHDISPLAY
280
1
  9
$TILEMODELIGHTSYNCH
280
1
  9
$CMATERIAL
347
20
  9
$SOLIDHIST
280
0
  9
$SHOWHIST
280
1
  9
$DWFFRAME
280
2
  9
$DGNFRAME
280
2
  9
$REALWORLDSCALE
290
1
  9
$INTERFERECOLOR
 62
256
  9
$CSHADOW
280
0
  9
$SHADOWPLANELOCATION
 40
0.0
  0
ENDSEC
  0
SECTION
  2
CLASSES
  0
CLASS
  1
ACDBDICTIONARYWDFLT
  2
AcDbDictionaryWithDefault
  3
ObjectDBX Classes
 90
0
 91
0
280
0
281
0
  0
CLASS
  1
SUN
  2
AcDbSun
  3
SCENEOE
 90
1153
 91
0
280
0
281
0
  0
CLASS
  1
VISUALSTYLE
  2
AcDbVisualStyle
  3
ObjectDBX Classes
 90
4095
 91
0
280
0
281
0
  0
CLASS
  1
MATERIAL
  2
AcDbMaterial
  3
ObjectDBX Classes
 90
1153
 91
0
280
0
281
0
  0
CLASS
  1
SCALE
  2
AcDbScale
  3
ObjectDBX Classes
 90
1153
 91
0
280
0
281
0
  0
CLASS
  1
TABLESTYLE
  2
AcDbTableStyle
  3
ObjectDBX Classes
 90
4095
 91
0
280
0
281
0
  0
CLASS
  1
MLEADERSTYLE
  2
AcDbMLeaderStyle
  3
ACDB_MLEADERSTYLE_CLASS
 90
4095
 91
0
280
0
281
0
  0
CLASS
  1
DICTIONARYVAR
  2
AcDbDictionaryVar
  3
ObjectDBX Classes
 90
0
 91
0
280
0
281
0
  0
CLASS
  1
CELLSTYLEMAP
  2
AcDbCellStyleMap
  3
ObjectDBX Classes
 90
1152
 91
0
280
0
281
0
  0
CLASS
  1
MENTALRAYRENDERSETTINGS
  2
AcDbMentalRayRenderSettings
  3
SCENEOE
 90
1024
 91
0
280
0
281
0
  0
CLASS
  1
ACDBDETAILVIEWSTYLE
  2
AcDbDetailViewStyle
  3
ObjectDBX Classes
 90
1025
 91
0
280
0
281
0
  0
CLASS
  1
ACDBSECTIONVIEWSTYLE
  2
AcDbSectionViewStyle
  3
ObjectDBX Classes
 90
1025
 91
0
280
0
281
0
  0
CLASS
  1
RASTERVARIABLES
  2
AcDbRasterVariables
  3
ISM
 90
0
 91
0
280
0
281
0
  0
CLASS
  1
LAYOUT
  2
AcDbLayout
  3
ObjectDBX Classes
 90
0
 91
0
280
0
281
0
  0
CLASS
  1
ACDBPLACEHOLDER
  2
AcDbPlaceHolder
  3
ObjectDBX Classes
 90
0
 91
0
280
0
281
0
  0
ENDSEC
  0
SECTION
  2
TABLES
  0
TABLE
  2
VPORT
  5
8
330
0
100
AcDbSymbolTable
 70
1
  0
VPORT
  5
23
330
8
100
AcDbSymbolTableRecord
100
AcDbViewportTableRecord
  2
*Active
 70
0
 10
0.0
 20
0.0
 11
1.0
 21
1.0
 12
0.0
 22
0.0
 13
0.0
 23
0.0
 14
0.5
 24
0.5
 15
0.5
 25
0.5
 16
0.0
 26
0.0
 36
1.0
 17
0.0
 27
0.0
 37
0.0
 40
1000.0
 41
1.34
 42
50.0
 43
0.0
 44
0.0
 50
0.0
 51
0.0
 71
0
 72
1000
 73
1
 74
3
 75
0
 76
0
 77
0
 78
0
281
0
 65
0
146
0.0
  0
ENDTAB
  0
TABLE
  2
LTYPE
  5
2
330
0
100
AcDbSymbolTable
 70
3
  0
LTYPE
  5
24
330
2
100
AcDbSymbolTableRecord
100
AcDbLinetypeTableRecord
  2
ByBlock
 70
0
  3

 72
65
 73
0
 40
0.0
  0
LTYPE
  5
25
330
2
100
AcDbSymbolTableRecord
100
AcDbLinetypeTableRecord
  2
ByLayer
 70
0
  3

 72
65
 73
0
 40
0.0
  0
LTYPE
  5
26
330
2
100
AcDbSymbolTableRecord
100
AcDbLinetypeTableRecord
  2
Continuous
 70
0
  3

 72
65
 73
0
 40
0.0
  0
ENDTAB
  0
TABLE
  2
LAYER
  5
1
330
0
100
AcDbSymbolTable
 70
2
  0
LAYER
  5
27
330
1
100
AcDbSymbolTableRecord
100
AcDbLayerTableRecord
  2
0
 70
0
 62
7
  6
Continuous
370
-3
390
13
347
21
  0
LAYER
  5
28
330
1
100
AcDbSymbolTableRecord
100
AcDbLayerTableRecord
  2
Defpoints
 70
0
 62
7
  6
Continuous
290
0
370
-3
390
13
347
21
  0
ENDTAB
  0
TABLE
  2
STYLE
  5
5
330
0
100
AcDbSymbolTable
 70
1
  0
STYLE
  5
29
330
5
100
AcDbSymbolTableRecord
100
AcDbTextStyleTableRecord
  2
Standard
 70
0
 40
0.0
 41
1.0
 50
0.0
 71
0
 42
2.5
  3
txt
  4

  0
ENDTAB
  0
TABLE
  2
VIEW
  5
7
330
0
100
AcDbSymbolTable
 70
0
  0
ENDTAB
  0
TABLE
  2
UCS
  5
6
330
0
100
AcDbSymbolTable
 70
0
  0
ENDTAB
  0
TABLE
  2
APPID
  5
3
330
0
100
AcDbSymbolTable
 70
3
  0
APPID
  5
2A
330
3
100
AcDbSymbolTableRecord
100
AcDbRegAppTableRecord
  2
ACAD
 70
0
  0
APPID
  5
30
330
3
100
AcDbSymbolTableRecord
100
AcDbRegAppTableRecord
  2
HATCHBACKGROUNDCOLOR
 70
0
  0
APPID
  5
31
330
3
100
AcDbSymbolTableRecord
100
AcDbRegAppTableRecord
  2
EZDXF
 70
0
  0
ENDTAB
  0
TABLE
  2
DIMSTYLE
  5
4
330
0
100
AcDbSymbolTable
 70
1
100
AcDbDimStyleTable
  0
DIMSTYLE
105
2B
330
4
100
AcDbSymbolTableRecord
100
AcDbDimStyleTableRecord
  2
Standard
 70
0
 40
1.0
 41
2.5
 42
0.625
 43
3.75
 44
1.25
 45
0.0
 46
0.0
 47
0.0
 48
0.0
 49
2.5
140
2.5
141
2.5
142
0.0
143
0.03937007874
144
1.0
145
0.0
146
1.0
147
0.625
148
0.0
 69
0
 70
0
 71
0
 72
0
 73
0
 74
0
 75
0
 76
0
 77
1
 78
8
 79
3
170
0
171
3
172
1
173
0
174
0
175
0
176
0
177
0
178
0
179
2
271
2
272
2
273
2
274
3
275
0
276
0
277
2
278
44
279
0
280
0
281
0
282
0
283
0
284
8
285
0
286
0
288
0
289
3
290
0
371
-2
372
-2
  0
ENDTAB
  0
TABLE
  2
BLOCK_RECORD
  5
9
330
0
100
AcDbSymbolTable
 70
2
  0
BLOCK_RECORD
  5
17
330
9
100
AcDbSymbolTableRecord
100
AcDbBlockTableRecord
  2
*Model_Space
340
1A
 70
0
280
1
281
0
  0
BLOCK_RECORD
  5
1B
330
9
100
AcDbSymbolTableRecord
100
AcDbBlockTableRecord
  2
*Paper_Space
340
1E
 70
0
280
1
281
0
  0
ENDTAB
  0
ENDSEC
  0
SECTION
  2
BLOCKS
  0
BLOCK
  5
18
330
17
100
AcDbEntity
  8
0
100
AcDbBlockBegin
  2
*Model_Space
 70
0
 10
0.0
 20
0.0
 30
0.0
  3
*Model_Space
  1

  0
ENDBLK
  5
19
330
17
100
AcDbEntity
  8
0
100
AcDbBlockEnd
  0
BLOCK
  5
1C
330
1B
100
AcDbEntity
  8
0
100
AcDbBlockBegin
  2
*Paper_Space
 70
0
 10
0.0
 20
0.0
 30
0.0
  3
*Paper_Space
  1

  0
ENDBLK
  5
1D
330
1B
100
AcDbEntity
  8
0
100
AcDbBlockEnd
  0
ENDSEC
  0
SECTION
  2
ENTITIES
  0
LWPOLYLINE
  5
2F
330
17
100
AcDbEntity
  8
0
100
AcDbPolyline
 90
721
 70
1
 10
58.72271777972137
 20
6.75920273323714
 10
58.72098189008414
 20
6.759624575285687
 10
58.715794397897
 20
6.760714809736464
 10
58.70719565660914
 20
6.762122853199739
 10
58.695077843648534
 20
6.764013909008093
 10
58.6796465157969
 20
6.7661452163438
 10
58.66080393884452
 20
6.768594332692007
 10
58.63847255530627
 20
6.771263523842994
 10
58.61282765687698
 20
6.774172966521335
 10
58.58379168607154
 20
6.777224926517312
 10
58.55125682031793
 20
6.7805846071635
 10
58.51541852803559
 20
6.784096893489609
 10
58.47618916337709
 20
6.7877516971333565
 10
58.43355863798014
 20
6.791636663942169
 10
58.38754712856932
 20
6.795576502221186
 10
58.33813445842005
 20
6.7997465036652684
 10
58.28541836174203
 20
6.804069110789273
 10
58.22931119268786
 20
6.808534235230915
 10
58.16980286289524
 20
6.813229522837622
 10
58.107001194936174
 20
6.817989770276821
 10
58.04079836623866
 20
6.822980180881086
 10
57.97121455352729
 20
6.828025462955557
 10
57.8984048717723
 20
6.8333210849196675
 10
57.82211647179375
 20
6.8387491358391275
 10
57.74261229113388
 20
6.844339880800797
 10
57.659717038097845
 20
6.8500731430801025
 10
57.573518358533086
 20
6.85595901103933
 10
57.484016252439595
 20
6.861997484678482
 10
57.39120063145509
 20
6.868276209844989
 10
57.29507149557956
 20
6.874795186538852
 10
57.19564902153761
 20
6.881379123065208
 10
57.09291303260461
 20
6.888203311118916
 10
56.986961262990334
 20
6.8951901932148365
 10
56.87769597848503
 20
6.902417326838112
 10
56.76513735581329
 20
6.909709420293879
 10
56.649352864097956
 20
6.917251853639291
 10
56.53033241497675
 20
6.92513227272178
 10
56.408106273536546
 20
6.9330877399990465
 10
56.28256661720531
 20
6.941283458803669
 10
56.15389882604022
 20
6.949651960012792
 10
56.02191751998411
 20
6.958260712749271
 10
55.88679799073184
 20
6.967129893737682
 10
55.74845259243599
 20
6.976249414615738
 10
55.606968970943974
 20
6.985629363745724
 10
55.46226956877068
 20
6.995172006917923
 10
55.3144420317635
 20
7.004887432494622
 10
55.16337853735046
 20
7.014940843808398
 10
55.009264465588686
 20
7.025264771736395
 10
54.85201217063077
 20
7.0358491279163236
 10
54.6916216524767
 20
7.046693912348185
 10
54.52809291112647
 20
7.057799125031978
 10
54.36150350406524
 20
7.069262500177425
 10
54.19177587380785
 20
7.0809863035748055
 10
54.01898757783945
 20
7.0930682694338385
 10
53.843148704522314
 20
7.105420751907091
 10
53.664279430581075
 20
7.117868459299702
 10
53.482447225138515
 20
7.130596771668821
 10
53.29754426562266
 20
7.143770892347026
 10
53.10957055203351
 20
7.157390821334316
 10
52.918643995305345
 20
7.1712037094506815
 10
52.72475450707592
 20
7.18529720254356
 10
52.52790208734518
 20
7.199671300612944
 10
52.32805647102631
 20
7.2145889412011375
 10
52.12526809993072
 20
7.229611895070974
 10
51.91960444318126
 20
7.244925542279608
 10
51.71105541241566
 20
7.260617528674473
 10
51.4995232734242
 20
7.276765411740713
 10
51.285193406264035
 20
7.293301722355471
 10
51.067988253450004
 20
7.310128726309025
 10
50.84790781498212
 20
7.327246423601378
 10
50.625019559983244
 20
7.344840194289683
 10
50.3993638419025
 20
7.362559454984207
 10
50.17083283816791
 20
7.38056940901753
 10
49.939591752112044
 20
7.398977878961659
 10
49.70564058373489
 20
7.417784864816595
 10
49.468911863913604
 20
7.436804986525186
 10
49.2293955042859
 20
7.456125889934863
 10
48.98726679654663
 20
7.475767751770202
 10
48.7424179181238
 20
7.495895775363781
 10
48.49487913410426
 20
7.516247023173302
 10
48.24473809033545
 20
7.536831583561055
 10
47.99199478681736
 20
7.557649456527035
 10
47.73662904682544
 20
7.5788759337661125
 10
47.478640870359676
 20
7.600511015278286
 10
47.218040345782335
 20
7.622467055216122
 10
46.9550128531506
 20
7.644676584456764
 10
46.68937301240729
 20
7.66720707212307
 10
46.42120846939987
 20
7.690068606577328
 10
46.15063713506262
 20
7.713008338639527
 10
45.877561275185805
 20
7.736103825794812
 10
45.602038270530024
 20
7.759628093947773
 10
45.32415576694268
 20
7.78359123146069
 10
45.04375864945351
 20
7.80779776991413
 10
44.76105247484421
 20
7.832004948490364
 10
44.47599688966569
 20
7.856563350579131
 10
44.18860198228016
 20
7.881385330332991
 10
43.89885766432538
 20
7.906558533599379
 10
43.606871758373345
 20
7.93191775704572
 10
43.31264426442406
 20
7.957463000672012
 10
43.01608753663008
 20
7.9831841761159685
 10
42.717366778324
 20
8.009189105949595
 10
42.41639434365838
 20
8.035467701810608
 10
42.113278055205235
 20
8.061854760366428
 10
41.808017912964544
 20
8.088350281617055
 10
41.500701562783775
 20
8.11496435392478
 10
41.191231270453166
 20
8.141774534774745
 10
40.87967450509559
 20
8.168966204224102
 10
40.56597388595049
 20
8.196266336368268
 10
40.25038226219786
 20
8.223792842141536
 10
39.93276469559203
 20
8.25117496142961
 10
39.61311109777065
 20
8.27850034007991
 10
39.29156649534174
 20
8.306052092359316
 10
38.968120799943016
 20
8.33391786411526
 10
38.642628984966485
 20
8.361814541080866
 10
38.315461810526465
 20
8.389607185010428
 10
37.98636642744293
 20
8.417177884969645
 10
37.65548786232387
 20
8.444809755225387
 10
37.32272838095957
 20
8.472580353262805
 10
36.98827336340722
 20
8.50042220995904
 10
36.65206542890619
 20
8.528062299409507
 10
36.31417204657938
 20
8.55568600167136
 10
35.97457303970219
 20
8.58346860843946
 10
35.633318850086084
 20
8.61097189047665
 10
35.290419566093334
 20
8.638108201935493
 10
34.94600003760737
 20
8.66533594877773
 10
34.59989506129562
 20
8.692547308431354
 10
34.25226984049063
 20
8.719850103468373
 10
33.90318490536618
 20
8.74671845880419
 10
33.55263016755994
 20
8.77324002028624
 10
33.200585450347354
 20
8.799590079609386
 10
32.84702048864155
 20
8.826031574315929
 10
32.49215092758654
 20
8.85223409774071
 10
32.13584182893664
 20
8.877826889769427
 10
31.77832586514725
 20
8.90310315303124
 10
31.41937730271209
 20
8.928480940038739
 10
31.059124140927718
 20
8.953619755764477
 10
30.697606733243305
 20
8.978169016818727
 10
30.334980194629143
 20
9.002324191620932
 10
29.97105914502806
 20
9.026152749293944
 10
29.606008787772648
 20
9.049762512409776
 10
29.23975156537776
 20
9.073055746758703
 10
28.872395300415402
 20
9.095867249008151
 10
28.504027638733014
 20
9.118207107520409
 10
28.134560934483158
 20
9.14006523393319
 10
27.76417047936069
 20
9.161461804971065
 10
27.392680981670757
 20
9.182376643909462
 10
27.02024755638365
 20
9.203005219167824
 10
26.64688029186165
 20
9.223259884898717
 10
26.272629629916203
 20
9.242702411864975
 10
25.897475393822724
 20
9.261508091761465
 10
25.5215827869138
 20
9.279784747160202
 10
25.14476642913227
 20
9.297599847184031
 10
24.767221788897583
 20
9.314798276862675
 10
24.388958954572015
 20
9.331292390348692
 10
24.00998801451787
 20
9.346994541794658
 10
23.63028879201055
 20
9.362080022895428
 10
23.249938844535233
 20
9.376646567860734
 10
22.868938172091887
 20
9.390694176690568
 10
22.48740468561482
 20
9.403970000204923
 10
22.105260827618896
 20
9.416376304194081
 10
21.722604332313825
 20
9.427835531172896
 10
21.33949258046018
 20
9.438620707045953
 10
20.95580766112366
 20
9.448984680993261
 10
20.571745042723713
 20
9.458772338044533
 10
20.187297786311195
 20
9.46727242305802
 10
19.802405361712406
 20
9.475010811118317
 10
19.417232972259903
 20
9.482095324797434
 10
19.03171314883084
 20
9.488340584038218
 10
18.645855979787484
 20
9.493658942993234
 10
18.25980649173786
 20
9.49833351592936
 10
17.87348712719681
 20
9.502266568636871
 10
17.487015797098632
 20
9.50520525193576
 10
17.100304855595898
 20
9.50713947746374
 10
16.713519506021186
 20
9.50817706779282
 10
16.326649660012205
 20
9.508405668770427
 10
15.939725582655822
 20
9.507562342854271
 10
15.552737185589741
 20
9.505734735891783
 10
15.16576202629912
 20
9.503020582092681
 10
14.778682193849644
 20
9.499672730636975
 10
14.391733510109924
 20
9.495185483164649
 10
14.004915975079946
 20
9.489558839675698
 10
13.618219500397432
 20
9.48288044601756
 10
13.231633997700094
 20
9.475237948037666
 10
12.84525720119765
 20
9.466553788250872
 10
12.458991376680375
 20
9.45690552414232
 10
12.073021904205424
 20
9.446225686589154
 10
11.687368960497379
 20
9.434338983896515
 10
11.30202245719395
 20
9.42133306191183
 10
10.91697230593284
 20
9.40729556648253
 10
10.532228595076353
 20
9.392138851761189
 10
10.147986793043916
 20
9.375707802777516
 10
9.76413907726353
 20
9.358167622864082
 10
9.380752916858043
 20
9.339703692078048
 10
8.99779110779147
 20
9.31986769281996
 10
8.615408765034093
 20
9.29885509350926
 10
8.233575623499048
 20
9.276928831688247
 10
7.852234302425779
 20
9.253815881452333
 10
7.4715802702337175
 20
9.229361127831233
 10
7.091593350198286
 20
9.203739862519804
 10
6.7122060731966275
 20
9.176766705460903
 10
6.33357355419904
 20
9.148637125073964
 10
5.955628324082659
 20
9.119165741301838
 10
5.578535586180062
 20
9.088460376716533
 10
5.202089783709526
 20
9.056763792135769
 10
4.826486385090485
 20
9.02392087258926
 10
4.451765743772095
 20
8.989581034687276
 10
4.077917771392059
 20
8.953831924277244
 10
3.704999848710959
 20
8.916946567263754
 10
3.3330220640910775
 20
8.878837317799375
 10
2.9619945058947015
 20
8.839416530036676
 10
2.592004819969266
 20
8.798694292337938
 10
2.222945183742759
 20
8.756835808035746
 10
1.854883066338038
 20
8.714026457187247
 10
1.4879464670516893
 20
8.669925744764999
 10
1.1221555626082869
 20
8.624358379074142
 10
0.7574901762832534
 20
8.57749965180954
 10
0.39402786556174046
 20
8.529447297180912
 10
0.031680984596305174
 20
8.480191226825971
 10
-0.32947290912789806
 20
8.429829174954437
 10
-0.6893562581257379
 20
8.378458875776028
 10
-1.04801635479548
 20
8.325719657538732
 10
-1.4053655532896985
 20
8.271621608604836
 10
-1.7613666495724019
 20
8.216613046573784
 10
-2.1160871127664462
 20
8.160508591388428
 10
-2.469341562814678
 20
8.103240773925915
 10
-2.821305291411966
 20
8.044789417461661
 10
-3.1718030068634335
 20
7.985174698720251
 10
-3.520767240046238
 20
7.924581997758834
 10
-3.8683833710175284
 20
7.863078783700262
 10
-4.214513312118432
 20
7.800236915669669
 10
-4.559042301827809
 20
7.736602445476219
 10
-4.9020781627176655
 20
7.672340576452494
 10
-5.243648010461716
 20
7.606915345151608
 10
-5.583488907517656
 20
7.54035701666043
 10
-5.921718764819782
 20
7.472918440158963
 10
-6.258347670730391
 20
7.404687261494643
 10
-6.593355448524888
 20
7.3354881889726045
 10
-6.926576894870717
 20
7.265429045164855
 10
-7.25818730146273
 20
7.194489653346822
 10
-7.58804164169293
 20
7.122953127785377
 10
-7.916119738836747
 20
7.050644176785656
 10
-8.242411504531882
 20
6.9774751545002225
 10
-8.566927027140633
 20
6.903533706776516
 10
-8.889598837540134
 20
6.829005213671683
 10
-9.210514581577828
 20
6.75387958682344
 10
-9.529478790834267
 20
6.678001711261496
 10
-9.846491465309454
 20
6.601371586985854
 10
-10.161630162488532
 20
6.523891479786788
 10
-10.474817324886354
 20
6.445659123874023
 10
-10.78608321758979
 20
6.366937456789858
 10
-11.09535028311369
 20
6.287824212744008
 10
-11.402578168008908
 20
6.207968808346749
 10
-11.707854518122874
 20
6.127361155235788
 10
-12.010906307550997
 20
6.045943872650561
 10
-12.311939093075013
 20
5.963959721408786
 10
-12.610962963057206
 20
5.881496347357898
 10
-12.907802625802715
 20
5.798573927222474
 10
-13.202447992949255
 20
5.715104815155078
 10
-13.494956445257381
 20
5.630815985251127
 10
-13.785280690328825
 20
5.546068109262638
 10
-14.073450993250452
 20
5.461124124731909
 10
-14.359329266363382
 20
5.375555890784068
 10
-14.643003155515046
 20
5.289353319056823
 10
-14.924317545735162
 20
5.202711877969618
 10
-15.203360082871162
 20
5.115621479160164
 10
-15.480140855285335
 20
5.028169768475892
 10
-15.754541952043375
 20
4.9401038967367965
 10
-16.02658354986987
 20
4.8515991556377385
 10
-16.29626564876481
 20
4.762655545178721
 10
-16.563628602177353
 20
4.673623648749473
 10
-16.828487030050354
 20
4.584435997227137
 10
-17.090985958991794
 20
4.494809476344842
 10
-17.35101756642968
 20
4.404578882770009
 10
-17.608534559965733
 20
4.314104888254659
 10
-17.863644762171944
 20
4.223552696131363
 10
-18.116220173751756
 20
4.132581811372685
 10
-18.366193325582284
 20
4.041377614035777
 10
-18.613749597720698
 20
3.950007573243494
 10
-18.858713698472133
 20
3.858491865720413
 10
-19.101055362749715
 20
3.766567553924235
 10
-19.34080485564032
 20
3.6744975753972606
 10
-19.57797226550623
 20
3.5823695759869194
 10
-19.812547503985158
 20
3.49009590984578
 10
-20.044442925229674
 20
3.397686665336133
 10
-20.27364844087748
 20
3.305054196610542
 10
-20.50026178513831
 20
3.2122760611541543
 10
-20.72410766631729
 20
3.119372435691543
 10
-20.945206261138996
 20
3.0265186119175773
 10
-21.163712684573724
 20
2.9335191214128127
 10
-21.379363999079175
 20
2.840404229264115
 10
-21.592237762140492
 20
2.7470762012617644
 10
-21.802374327206824
 20
2.653885620795489
 10
-22.00977369427817
 20
2.56083248786529
 10
-22.21432804078253
 20
2.4677515991385905
 10
-22.41602727835761
 20
2.374555308767958
 10
-22.614948964488548
 20
2.2811458825436723
 10
-22.810968249291932
 20
2.1879817264274712
 10
-23.004162690252908
 20
2.094965106209635
 10
-23.194512110646883
 20
2.001920730195298
 10
-23.38192886462644
 20
1.908858686746749
 10
-23.566433128916145
 20
1.815954267558853
 10
-23.748004726791436
 20
1.723032180936745
 10
-23.926653746614587
 20
1.6301800727278575
 10
-24.10239027674789
 20
1.537485588779622
 10
-24.275106494619337
 20
1.4447835257594637
 10
-24.444832665315793
 20
1.3523368212096791
 10
-24.611616081235542
 20
1.2597848033782493
 10
-24.775409449980298
 20
1.167488144017194
 10
-24.936202683187773
 20
1.0753591972790795
 10
-25.09398569249568
 20
0.9833103173164734
 10
-25.248670832056586
 20
0.8913515924916651
 10
-25.400355836080216
 20
0.7995605802897979
 10
-25.548983323805995
 20
0.7082103066154579
 10
-25.69453311850936
 20
0.6171254797737802
 10
-25.837005220190296
 20
0.5263060997647633
 10
-25.976497363058527
 20
0.43582972407355286
 10
-26.11282416705691
 20
0.3456288835772931
 10
-26.24609345475744
 20
0.25586878160856125
 10
-26.376237757037273
 20
0.16673479822450776
 10
-26.503344719743833
 20
0.07821684506284718
 10
-26.627306520305115
 20
-0.009850281208998002
 10
-26.748220892930835
 20
-0.0973890231058847
 10
-26.86591254592614
 20
-0.18437920390323448
 10
-26.98057694771046
 20
-0.2706657086307611
 10
-27.092048894951223
 20
-0.35614071471645314
 10
-27.200395856771284
 20
-0.44098960221746597
 10
-27.305617833170647
 20
-0.5252123711337984
 10
-27.407714824149302
 20
-0.6088090214654502
 10
-27.506619360584402
 20
-0.6915941731552689
 10
-27.602331442475947
 20
-0.773567826203254
 10
-27.6949084505845
 20
-0.8550030065139915
 10
-27.784293004149493
 20
-0.9356266881828961
 10
-27.870444749721777
 20
-1.015789454599696
 10
-27.953404040750506
 20
-1.0951407223746632
 10
-28.033130523786518
 20
-1.174031074897527
 10
-28.109644375554396
 20
-1.252285220473421
 10
-28.182945596054147
 20
-1.3299031591023476
 10
-28.252936451076035
 20
-1.406962448269449
 10
-28.319812409039518
 20
-1.483307973004438
 10
-28.383280267315417
 20
-1.5591724057627463
 10
-28.443623140170615
 20
-1.6344107199363749
 10
-28.500655647547962
 20
-1.7090903846481789
 10
-28.55440805453432
 20
-1.7829484623558607
 10
-28.604947830252538
 20
-1.8561703331165742
 10
-28.652197417217483
 20
-1.9286582627205981
 10
-28.696197168878303
 20
-2.0000616677782035
 10
-28.73700446599556
 20
-2.0706535741939747
 10
-28.774551839446406
 20
-2.1402486019107596
 10
-28.80885946595542
 20
-2.2086714592336927
 10
-28.83996769897175
 20
-2.275571562773045
 10
-28.86787653849539
 20
-2.3409489125288157
 10
-28.892693807098368
 20
-2.4046383051684295
 10
-28.914294654897244
 20
-2.4661813347301464
 10
-28.93280708118861
 20
-2.525237506186525
 10
-28.948419615442784
 20
-2.5809404494255306
 10
-28.96102758450092
 20
-2.632656466790559
 10
-28.970880048007057
 20
-2.6789933130849795
 10
-28.978226065605252
 20
-2.7185587431121623
 10
-28.983132466295558
 20
-2.7492290798091514
 10
-28.985939104982627
 20
-2.7688232653524265
 10
-28.923129652698588
 20
-3.3291595551765023
 10
-28.920949875120666
 20
-3.3334378145120755
 10
-28.914420630749174
 20
-3.346184946671364
 10
-28.90358227303328
 20
-3.3670503682646373
 10
-28.88817565396664
 20
-3.3975139703359583
 10
-28.86816420963607
 20
-3.439436492405985
 10
-28.843984889033123
 20
-3.488250262045942
 10
-28.81586278554132
 20
-3.5412281696231376
 10
-28.784104339565268
 20
-3.597250995845526
 10
-28.748833760865587
 20
-3.654468089554738
 10
-28.71005419885545
 20
-3.712080549761594
 10
-28.667991387041162
 20
-3.7696703239535077
 10
-28.62259803302444
 20
-3.8268767403784625
 10
-28.573914490254438
 20
-3.883349215646728
 10
-28.521960935455738
 20
-3.938912458063438
 10
-28.466737368628333
 20
-3.9935664676285954
 10
-28.40834152398195
 20
-4.047233686857054
 10
-28.34670593239373
 20
-4.09972873569166
 10
-28.281820505501383
 20
-4.151139259979848
 10
-28.213782977514633
 20
-4.201387702236473
 10
-28.14248552586147
 20
-4.25063926579411
 10
-28.067938238904187
 20
-4.29880630480533
 10
-27.990336585062217
 20
-4.345733704299842
 10
-27.909387361706397
 20
-4.391654136733078
 10
-27.82536359474133
 20
-4.436510221344473
 10
-27.738079904109835
 20
-4.48036942725688
 10
-27.647634024021656
 20
-4.523154196985158
 10
-27.554036042839076
 20
-4.564776884681873
 10
-27.45725569547522
 20
-4.60550042788932
 10
-27.357313158654673
 20
-4.645149534912638
 10
-27.254168078928288
 20
-4.684074789141555
 10
-27.14785072138291
 20
-4.722013253033773
 10
-27.038428555141415
 20
-4.759150306646446
 10
-26.92581393435636
 20
-4.795475861617287
 10
-26.809986682303173
 20
-4.831165209641158
 10
-26.69104453319157
 20
-4.866140793232916
 10
-26.568977398659264
 20
-4.900490258239996
 10
-26.44378527870626
 20
-4.934213604662395
 10
-26.315350262398255
 20
-4.967563681680121
 10
-26.1838577297924
 20
-5.000473020170322
 10
-26.049142477556128
 20
-5.032833797560985
 10
-25.911379797384296
 20
-5.06466619057669
 10
-25.770461866704895
 20
-5.096135402550013
 10
-25.62647633136536
 20
-5.127251521843241
 10
-25.479345633880552
 20
-5.157916814246653
 10
-25.32917759682247
 20
-5.187966076427673
 10
-25.175874485981396
 20
-5.217476865871446
 10
-25.019601504689906
 20
-5.24655700514998
 10
-24.860271007100575
 20
-5.275196405900989
 10
-24.697882993213394
 20
-5.303395068124469
 10
-24.532467728115236
 20
-5.330890054278125
 10
-24.364112857653527
 20
-5.357691452724245
 10
-24.192730735980838
 20
-5.383789175100541
 10
-24.018388832220023
 20
-5.409368601464167
 10
-23.841087146371084
 20
-5.434429731815122
 10
-23.660866031883174
 20
-5.458621982763677
 10
-23.477792957879142
 20
-5.482130734366983
 10
-23.29179036687385
 20
-5.504858252415321
 10
-23.102848170505016
 20
-5.526892182756124
 10
-22.911054014620063
 20
-5.548242613751679
 10
-22.716417987581277
 20
-5.568821899554555
 10
-22.518930001026384
 20
-5.588717686012184
 10
-22.31859005495537
 20
-5.607929973124564
 10
-22.11540823773053
 20
-5.6263711150442655
 10
-21.909462106837
 20
-5.644138845981009
 10
-21.70075166227479
 20
-5.6612331659347905
 10
-21.48919934655876
 20
-5.6775563406958955
 10
-21.274960274659183
 20
-5.693303838683761
 10
-21.057956889090917
 20
-5.7083779256886675
 10
-20.83817910149169
 20
-5.722866247558048
 10
-20.615724646071204
 20
-5.736691246806758
 10
-20.390623787916333
 20
-5.7495899858924995
 10
-20.162846261940206
 20
-5.761825402357571
 10
-19.932284245570827
 20
-5.773562699534549
 10
-19.699210764712774
 20
-5.784744496662865
 10
-19.463470704395753
 20
-5.795175325323078
 10
-19.225074152982053
 20
-5.804767539667756
 10
-18.984176225441978
 20
-5.813716608116341
 10
-18.74067918756579
 20
-5.822100088153975
 10
-18.494603216078065
 20
-5.829742688085795
 10
-18.24603595682625
 20
-5.836654496274088
 10
-17.994987498172623
 20
-5.842747866871424
 10
-17.741427575030322
 20
-5.848285737420098
 10
-17.485376364123923
 20
-5.853092816225245
 10
-17.22681368872885
 20
-5.857344394981733
 10
-16.96594510562683
 20
-5.860797712871839
 10
-16.70258523476071
 20
-5.863520239018417
 10
-16.43682172197793
 20
-5.865522061783758
 10
-16.16873212476362
 20
-5.866900915377583
 10
-15.89824897399494
 20
-5.867471419742737
 10
-15.62543973879474
 20
-5.867418954936375
 10
-15.350402153372729
 20
-5.866665963473351
 10
-15.072981102758638
 20
-5.865016976934225
 10
-14.79335187864732
 20
-5.8624921720435745
 10
-14.511484215951908
 20
-5.859354486343693
 10
-14.227378114672414
 20
-5.855603919834585
 10
-13.941033574808829
 20
-5.851240472516249
 10
-13.65256850729545
 20
-5.846011295208675
 10
-13.36200308885686
 20
-5.839741096216999
 10
-13.06920932019647
 20
-5.832770370568662
 10
-12.774362493009138
 20
-5.825119294988242
 10
-12.477395138172016
 20
-5.816602489418582
 10
-12.178415078257112
 20
-5.80705475052711
 10
-11.877392048177565
 20
-5.796739015856121
 10
-11.574393517056217
 20
-5.78584066546277
 10
-11.269352015770231
 20
-5.774174319289901
 10
-10.962297809406461
 20
-5.761477039795219
 10
-10.653386012935192
 20
-5.747944295398167
 10
-10.342606537994143
 20
-5.733663731946172
 10
-10.029784092888445
 20
-5.718615172714662
 10
-9.715191703522686
 20
-5.702741236943068
 10
-9.39876190077401
 20
-5.6858565445742375
 10
-9.080494684642417
 20
-5.66796109560817
 10
-8.760467612613049
 20
-5.649152624254587
 10
-8.438630242874464
 20
-5.629869359750649
 10
-8.115100486360964
 20
-5.609858452916349
 10
-7.789831050674265
 20
-5.588759231999668
 10
-7.462811847452082
 20
-5.566659342848038
 10
-7.134218168389279
 20
-5.543578962186037
 10
-6.803922014189269
 20
-5.5198585850411055
 10
-6.472031207424065
 20
-5.495333008080668
 10
-6.138545748093659
 20
-5.470002231304723
 10
-5.803485812922636
 20
-5.443690963018406
 10
-5.466841313548705
 20
-5.41648684906915
 10
-5.128767364942149
 20
-5.388585357876396
 10
-4.789108852132693
 20
-5.359791021020705
 10
-4.448061243539759
 20
-5.329948723531783
 10
-4.105614450801076
 20
-5.299146111257069
 10
-3.761758385554348
 20
-5.267470830043992
 10
-3.416415490314431
 20
-5.234825145682831
 10
-3.0698688793482054
 20
-5.201064031565588
 10
-2.7220409951705165
 20
-5.166089753482541
 10
-2.3727836617602054
 20
-5.130418098155996
 10
-2.0222822591744296
 20
-5.093981596463099
 10
-1.6706849634343488
 20
-5.0562644616815415
 10
-1.3177862177582387
 20
-5.017509454629046
 10
-0.9636635796312304
 20
-4.977814309515332
 10
-0.608512517472777
 20
-4.937023911370113
 10
-0.25216782795029763
 20
-4.895030437621378
 10
0.1051951972413416
 20
-4.851854064993705
 10
0.46370455739872757
 20
-4.807835288514534
 10
0.8232524299498502
 20
-4.76280890485129
 10
1.1837007272358413
 20
-4.716346773129098
 10
1.5451673601909852
 20
-4.668701742527968
 10
1.907605036417016
 20
-4.620234484799918
 10
2.270895844979626
 20
-4.57069215076494
 10
2.6351173433639694
 20
-4.519977006213311
 10
3.000202062447183
 20
-4.468274431202184
 10
3.3661096487801134
 20
-4.4152338423418325
 10
3.7328401023627635
 20
-4.360855239632253
 10
4.100346130796854
 20
-4.305499294825466
 10
4.468550176597241
 20
-4.249263742131192
 10
4.837529797249069
 20
-4.192050847339709
 10
5.207167081818039
 20
-4.1336077612710085
 10
5.577482207028728
 20
-4.074109775619957
 10
5.948475172881143
 20
-4.013556890386551
 10
6.320058333527836
 20
-3.951959193933082
 10
6.692201423881952
 20
-3.889053748717252
 10
7.064924620668063
 20
-3.8250158464339252
 10
7.438092985640467
 20
-3.76021624719741
 10
7.811871722131733
 20
-3.6945471284356945
 10
8.18605527336013
 20
-3.6277657293310597
 10
8.56074137353539
 20
-3.559949607368649
 10
8.935754730962632
 20
-3.4911189392730395
 10
9.311193079851583
 20
-3.4213512825293764
 10
9.687046331839955
 20
-3.3505589912902263
 10
10.06314928359518
 20
-3.2788498881275965
 10
10.43960975768926
 20
-3.2063891763740666
 10
10.8164176657599
 20
-3.133089210182203
 10
11.193387627749956
 20
-3.058882520429149
 10
11.570617377869144
 20
-2.983846664600051
 10
11.94803944699461
 20
-2.90816702275206
 10
12.325701127524631
 20
-2.831482923133159
 10
12.70344730448893
 20
-2.753989834162789
 10
13.081298154612067
 20
-2.675863047535816
 10
13.459243589531766
 20
-2.597014917404806
 10
13.837263432523446
 20
-2.5172701520748944
 10
14.215377860311683
 20
-2.4368040432409477
 10
14.593431757926187
 20
-2.3558120593224063
 10
14.971492594489813
 20
-2.2741088202621174
 10
15.349502989242005
 20
-2.1919673519646654
 10
15.727432677095889
 20
-2.109124716887754
 10
16.105271569689172
 20
-2.025493269183952
 10
16.483039843746443
 20
-1.941248300548122
 10
16.860592472659686
 20
-1.8566729252471403
 10
17.23801710227635
 20
-1.7717570549187163
 10
17.615195821662123
 20
-1.6862478403828438
 10
17.99213871917931
 20
-1.6002329274869516
 10
18.36884579482789
 20
-1.5137123162310424
 10
18.74532713697018
 20
-1.4267736524625485
 10
19.121397365549
 20
-1.3393494670586126
 10
19.49715421477408
 20
-1.2515173175043803
 10
19.87252012716027
 20
-1.1633749380095733
 10
20.247602925279605
 20
-1.075087531906765
 10
20.622186963988028
 20
-0.986324692530805
 10
20.996282331647855
 20
-0.8971740657291247
 10
21.370027115917946
 20
-0.8080637923765991
 10
21.743185494929726
 20
-0.7184881741132074
 10
22.115747380320883
 20
-0.6283595650915208
 10
22.487860948112594
 20
-0.5381937520338429
 10
22.859371083334562
 20
-0.4481862033596168
 10
23.230304901660496
 20
-0.3578009556219596
 10
23.600584845605248
 20
-0.2671357430305913
 10
23.970123269321387
 20
-0.1762006539478
 10
24.339027995380928
 20
-0.08516089170616253
 10
24.707221466298705
 20
0.005885809484598262
 10
25.074713770437043
 20
0.09685180377705403
 10
25.4413970852239
 20
0.1879022945037771
 10
25.807251233934718
 20
0.2792125733596351
 10
26.172306481656353
 20
0.3705197028023295
 10
26.53656282838881
 20
0.4618236828318606
 10
26.899855070799504
 20
0.553016690876219
 10
27.26235850058331
 20
0.6441189036599818
 10
27.62386756095849
 20
0.7353730820008689
 10
27.984392340287343
 20
0.8266915800514493
 10
28.343983280381302
 20
0.9176361685745588
 10
28.70263029287808
 20
1.0082944934176317
 10
29.06013790935824
 20
1.0988216695509554
 10
29.41669150987893
 20
1.1891502278516735
 10
29.772105714383
 20
1.2793476374426422
 10
30.126468168717878
 20
1.3694239866861502
 10
30.47971140376071
 20
1.4591938955250439
 10
30.83174777366407
 20
1.5486472755970344
 10
31.182685100999965
 20
1.637618923569547
 10
31.53231782898665
 20
1.7263516002602997
 10
31.880821249319006
 20
1.8148654823938712
 10
32.228009981939884
 20
1.9032280390931169
 10
32.57394455702299
 20
1.990913395273441
 10
32.91853732872092
 20
2.0779114625725565
 10
33.26190305855479
 20
2.1647682927996343
 10
33.60376872062003
 20
2.251541266715242
 10
33.9443903135098
 20
2.337549394264495
 10
34.28358245716694
 20
2.422860144570251
 10
34.621304798142326
 20
2.5078241010222415
 10
34.95755733643591
 20
2.5924412636204606
 10
35.292350160410045
 20
2.6766239865174826
 10
35.6257337118761
 20
2.7599340404761388
 10
35.95751252241468
 20
2.842526540466723
 10
36.28783161863378
 20
2.924684600756107
 10
36.616515708838534
 20
3.0063880446197135
 10
36.9435849697535
 20
3.0874615803626773
 10
37.26905957810329
 20
3.167729916290135
 10
37.59291935716329
 20
3.247368344096951
 10
37.91507666108607
 20
3.326366775420834
 10
38.235639312443666
 20
3.4045600069292123
 10
38.55443201954122
 20
3.4819278618975082
 10
38.87151216313925
 20
3.5587433662303045
 10
39.18670445154292
 20
3.634986343203026
 10
39.500291999019126
 20
3.710511766207674
 10
39.81194439890269
 20
3.7851039901002297
 10
40.12183694288848
 20
3.858783191605269
 10
40.4299595426142
 20
3.9316370165702237
 10
40.736116729660395
 20
4.003820579965382
 10
41.04031859238941
 20
4.075246235943313
 10
41.34275051085836
 20
4.1458465153811614
 10
41.64315963588723
 20
4.2155035073446285
 10
41.94165379004804
 20
4.2840520085011375
 10
42.23811506240649
 20
4.351744868030696
 10
42.53262101044773
 20
4.418679820143028
 10
42.8250940766866
 20
4.484759130628411
 10
43.115534261123116
 20
4.549982799486844
 10
43.403884182996705
 20
4.614077800813745
 10
43.69020122306794
 20
4.677317160513695
 10
43.97432017800423
 20
4.739593056014688
 10
44.25630851692845
 20
4.801090867373876
 10
44.536196504927446
 20
4.861547657048961
 10
44.8139065845161
 20
4.920865690830224
 10
45.089408490607504
 20
4.979307906259961
 10
45.36270222320171
 20
5.036874303338172
 10
45.633787782298675
 20
5.093564882064857
 10
45.90251005292814
 20
5.149184174020577
 10
46.16906450350952
 20
5.203577064235039
 10
46.43331304638397
 20
5.25717169358312
 10
46.69517812406632
 20
5.309870327855099
 10
46.95474738240401
 20
5.361683055413263
 10
47.2119533522742
 20
5.412424496200461
 10
47.466698299467154
 20
5.462172207701834
 10
47.719147427315455
 20
5.511034012489395
 10
47.969155709211094
 20
5.558726796296265
 10
48.21670296842948
 20
5.605425850817313
 10
48.46179929333295
 20
5.651043530205106
 10
48.70441441883462
 20
5.69584277200194
 10
48.94456852165902
 20
5.73964828451295
 10
49.18217395595878
 20
5.782449979375848
 10
49.41724081009617
 20
5.824160210743203
 10
49.64984664155631
 20
5.864876712824735
 10
49.879806070282065
 20
5.9046669547432975
 10
50.107119096273436
 20
5.9435309364988935
 10
50.33188345374014
 20
5.981391100606378
 10
50.554109231044485
 20
6.018159801218317
 10
50.77359087140471
 20
6.054079799152434
 10
50.990416020668256
 20
6.089161182771013
 10
51.20461494392199
 20
6.123141014531762
 10
51.4160899069562
 20
6.156096851919822
 10
51.6248207330463
 20
6.188203986630057
 10
51.830915244764306
 20
6.219297215329892
 10
52.03420823877764
 20
6.249268715447317
 10
52.234767184209154
 20
6.2783038670394875
 10
52.432581992696555
 20
6.306490315953833
 10
52.627565018392424
 20
6.333817973828067
 10
52.81973643802133
 20
6.3601115489673266
 10
53.00908616322098
 20
6.385458687219037
 10
53.195594017266814
 20
6.41003468027807
 10
53.379270088521096
 20
6.433751882296992
 10
53.560046907860986
 20
6.456424913218647
 10
53.73792447528649
 20
6.478053773043036
 10
53.91295008319585
 20
6.498999133522177
 10
54.08504617410398
 20
6.519163260446351
 10
54.25421274801084
 20
6.538546153815559
 10
54.420459893278725
 20
6.557060167782364
 10
54.58369996406021
 20
6.574695213984479
 10
54.74402060620272
 20
6.591461380784195
 10
54.90131399713425
 20
6.607523871514087
 10
55.055600313579376
 20
6.622707394479289
 10
55.206859378813526
 20
6.637187241374668
 10
55.35519901540869
 20
6.650798208867646
 10
55.50042375494546
 20
6.6636954119285114
 10
55.64261115490894
 20
6.6759765847669845
 10
55.78168365781402
 20
6.687543993173346
 10
55.91773899787041
 20
6.69832007966245
 10
56.050669352506084
 20
6.708470047566874
 10
56.180582544293074
 20
6.717828693554041
 10
56.307273016449635
 20
6.726638778441672
 10
56.430926149032935
 20
6.734832833106913
 10
56.55136665034809
 20
6.742390680825183
 10
56.66868216624256
 20
6.749322409958775
 10
56.782872696716325
 20
6.755628020507685
 10
56.89392815340709
 20
6.761395158319349
 10
57.001770978829725
 20
6.766526089184044
 10
57.10638099625965
 20
6.771196104796635
 10
57.207855939906594
 20
6.775327647671979
 10
57.3060980755608
 20
6.7789982752952165
 10
57.4011174915846
 20
6.782120341818921
 10
57.492904099615686
 20
6.78478149309052
 10
57.58146798801636
 20
6.786894083262584
 10
57.66679906842431
 20
6.7885457581825435
 10
57.74887716411498
 20
6.789911809545265
 10
57.82763480596551
 20
6.790806857293593
 10
57.90323719730845
 20
6.791338723999538
 10
57.97541131223927
 20
6.79156479042367
 10
58.044430176662495
 20
6.791427675805415
 10
58.110118498883296
 20
6.790907203420202
 10
58.172456102177094
 20
6.7901786649628955
 10
58.2315407207536
 20
6.789164502948349
 10
58.28728470876539
 20
6.787854629014276
 10
58.33966788948789
 20
6.78642433485554
 10
58.388798085493086
 20
6.784708417139566
 10
58.43456747420898
 20
6.782872079198928
 10
58.47698614399788
 20
6.7808276751861944
 10
58.51603391813518
 20
6.778750496796232
 10
58.5517208849832
 20
6.776552898181609
 10
58.58412460202706
 20
6.774332613552041
 10
58.61306977757191
 20
6.772069466182957
 10
58.638633969102884
 20
6.769861190284075
 10
58.6609048224674
 20
6.767717874217683
 10
58.67970704597063
 20
6.765619341259206
 10
58.69510810873539
 20
6.763750971465796
 10
58.707205744971425
 20
6.762035207352307
 10
58.715804486259294
 20
6.760627163889031
 10
58.72098189008414
 20
6.759624575285687
 10
58.72271777972137
 20
6.75920273323714
  0
ENDSEC
  0
SECTION
  2
OBJECTS
  0
DICTIONARY
  5
A
330
0
100
AcDbDictionary
280
0
281
1
  3
ACAD_COLOR
350
B
  3
ACAD_GROUP
350
C
  3
ACAD_LAYOUT
350
D
  3
ACAD_MATERIAL
350
E
  3
ACAD_MLEADERSTYLE
350
F
  3
ACAD_MLINESTYLE
350
10
  3
ACAD_PLOTSETTINGS
350
11
  3
ACAD_PLOTSTYLENAME
350
12
  3
ACAD_SCALELIST
350
14
  3
ACAD_TABLESTYLE
350
15
  3
ACAD_VISUALSTYLE
350
16
  3
EZDXF_META
350
2D
  0
DICTIONARY
  5
B
330
A
100
AcDbDictionary
280
0
281
1
  0
DICTIONARY
  5
C
330
A
100
AcDbDictionary
280
0
281
1
  0
DICTIONARY
  5
D
330
A
100
AcDbDictionary
280
0
281
1
  3
Model
350
1A
  3
Layout1
350
1E
  0
DICTIONARY
  5
E
330
A
100
AcDbDictionary
280
0
281
1
  3
ByBlock
350
1F
  3
ByLayer
350
20
  3
Global
350
21
  0
DICTIONARY
  5
F
330
A
100
AcDbDictionary
280
0
281
1
  3
Standard
350
2C
  0
DICTIONARY
  5
10
330
A
100
AcDbDictionary
280
0
281
1
  3
Standard
350
22
  0
DICTIONARY
  5
11
330
A
100
AcDbDictionary
280
0
281
1
  0
ACDBDICTIONARYWDFLT
  5
12
330
A
100
AcDbDictionary
280
0
281
1
  3
Normal
350
13
100
AcDbDictionaryWithDefault
340
13
  0
ACDBPLACEHOLDER
  5
13
330
12
  0
DICTIONARY
  5
14
330
A
100
AcDbDictionary
280
0
281
1
  0
DICTIONARY
  5
15
330
A
100
AcDbDictionary
280
0
281
1
  0
DICTIONARY
  5
16
330
A
100
AcDbDictionary
280
0
281
1
  0
LAYOUT
  5
1A
330
D
100
AcDbPlotSettings
  1

  4
A3
  6

 40
7.5
 41
20.0
 42
7.5
 43
20.0
 44
420.0
 45
297.0
 46
0.0
 47
0.0
 48
0.0
 49
0.0
140
0.0
141
0.0
142
1.0
143
1.0
 70
1024
 72
1
 73
0
 74
5
  7

 75
16
 76
0
 77
2
 78
300
147
1.0
148
0.0
149
0.0
100
AcDbLayout
  1
Model
 70
1
 71
0
 10
0.0
 20
0.0
 11
420.0
 21
297.0
 12
0.0
 22
0.0
 32
0.0
 14
1e+20
 24
1e+20
 34
1e+20
 15
-1e+20
 25
-1e+20
 35
-1e+20
146
0.0
 13
0.0
 23
0.0
 33
0.0
 16
1.0
 26
0.0
 36
0.0
 17
0.0
 27
1.0
 37
0.0
 76
1
330
17
  0
LAYOUT
  5
1E
330
D
100
AcDbPlotSettings
  1

  4
A3
  6

 40
7.5
 41
20.0
 42
7.5
 43
20.0
 44
420.0
 45
297.0
 46
0.0
 47
0.0
 48
0.0
 49
0.0
140
0.0
141
0.0
142
1.0
143
1.0
 70
0
 72
1
 73
0
 74
5
  7

 75
16
 76
0
 77
2
 78
300
147
1.0
148
0.0
149
0.0
100
AcDbLayout
  1
Layout1
 70
1
 71
1
 10
0.0
 20
0.0
 11
420.0
 21
297.0
 12
0.0
 22
0.0
 32
0.0
 14
1e+20
 24
1e+20
 34
1e+20
 15
-1e+20
 25
-1e+20
 35
-1e+20
146
0.0
 13
0.0
 23
0.0
 33
0.0
 16
1.0
 26
0.0
 36
0.0
 17
0.0
 27
1.0
 37
0.0
 76
1
330
1B
  0
MATERIAL
  5
1F
102
{ACAD_REACTORS
330
E
102
}
330
E
100
AcDbMaterial
  1
ByBlock
  2

 70
0
 40
1.0
 71
1
 41
1.0
 91
-1023410177
 42
1.0
 72
1
  3

 73
1
 74
1
 75
1
 44
0.5
 73
0
 45
1.0
 46
1.0
 77
1
  4

 78
1
 79
1
170
1
 48
1.0
171
1
  6

172
1
173
1
174
1
140
1.0
141
1.0
175
1
  7

176
1
177
1
178
1
143
1.0
179
1
  8

270
1
271
1
272
1
145
1.0
146
1.0
273
1
  9

274
1
275
1
276
1
 42
1.0
 72
1
  3

 73
1
 74
1
 75
1
 94
63
  0
MATERIAL
  5
20
102
{ACAD_REACTORS
330
E
102
}
330
E
100
AcDbMaterial
  1
ByLayer
  2

 70
0
 40
1.0
 71
1
 41
1.0
 91
-1023410177
 42
1.0
 72
1
  3

 73
1
 74
1
 75
1
 44
0.5
 73
0
 45
1.0
 46
1.0
 77
1
  4

 78
1
 79
1
170
1
 48
1.0
171
1
  6

172
1
173
1
174
1
140
1.0
141
1.0
175
1
  7

176
1
177
1
178
1
143
1.0
179
1
  8

270
1
271
1
272
1
145
1.0
146
1.0
273
1
  9

274
1
275
1
276
1
 42
1.0
 72
1
  3

 73
1
 74
1
 75
1
 94
63
  0
MATERIAL
  5
21
102
{ACAD_REACTORS
330
E
102
}
330
E
100
AcDbMaterial
  1
Global
  2

 70
0
 40
1.0
 71
1
 41
1.0
 91
-1023410177
 42
1.0
 72
1
  3

 73
1
 74
1
 75
1
 44
0.5
 73
0
 45
1.0
 46
1.0
 77
1
  4

 78
1
 79
1
170
1
 48
1.0
171
1
  6

172
1
173
1
174
1
140
1.0
141
1.0
175
1
  7

176
1
177
1
178
1
143
1.0
179
1
  8

270
1
271
1
272
1
145
1.0
146
1.0
273
1
  9

274
1
275
1
276
1
 42
1.0
 72
1
  3

 73
1
 74
1
 75
1
 94
63
  0
MLINESTYLE
  5
22
102
{ACAD_REACTORS
330
10
102
}
330
10
100
AcDbMlineStyle
  2
Standard
 70
0
  3

 62
256
 51
90.0
 52
90.0
 71
2
 49
0.5
 62
256
  6
BYLAYER
 49
-0.5
 62
256
  6
BYLAYER
  0
MLEADERSTYLE
  5
2C
102
{ACAD_REACTORS
330
F
102
}
330
F
100
AcDbMLeaderStyle
179
2
170
2
171
1
172
0
 90
2
 40
0.0
 41
0.0
173
1
 91
-1056964608
 92
-2
290
1
 42
2.0
291
1
 43
8.0
  3
Standard
 44
4.0
300

342
29
174
1
175
1
176
0
178
1
 93
-1056964608
 45
4.0
292
0
297
0
 46
4.0
 94
-1056964608
 47
1.0
 49
1.0
140
1.0
294
1
141
0.0
177
0
142
1.0
295
0
296
0
143
3.75
271
0
272
9
273
9
  0
DICTIONARY
  5
2D
330
A
100
AcDbDictionary
280
1
281
1
  3
CREATED_BY_EZDXF
350
2E
  3
WRITTEN_BY_EZDXF
350
32
  0
DICTIONARYVAR
  5
2E
330
2D
100
DictionaryVariables
280
0
  1
1.3.5 @ 2025-08-20T01:05:13.960294+00:00
  0
DICTIONARYVAR
  5
32
330
2D
100
DictionaryVariables
280
0
  1
1.3.5 @ 2025-08-20T01:05:13.965261+00:00
  0
ENDSEC
  0
EOF
