  0
SECTION
  2
HEADER
  9
$ACADVER
  1
AC1032
  9
$ACADMAINTVER
 90
4
  9
$DWGCODEPAGE
  3
ANSI_1252
  9
$LASTSAVEDBY
  1
ezdxf
  9
$REQUIREDVERSIONS
160
0
  9
$INSBASE
 10
0.0
 20
0.0
 30
0.0
  9
$EXTMIN
 10
1e+20
 20
1e+20
 30
1e+20
  9
$EXTMAX
 10
-1e+20
 20
-1e+20
 30
-1e+20
  9
$LIMMIN
 10
0.0
 20
0.0
  9
$LIMMAX
 10
420.0
 20
297.0
  9
$ORTHOMODE
 70
0
  9
$REGENMODE
 70
1
  9
$FILLMODE
 70
1
  9
$QTEXTMODE
 70
0
  9
$MIRRTEXT
 70
1
  9
$LTSCALE
 40
1.0
  9
$ATTMODE
 70
1
  9
$TEXTSIZE
 40
2.5
  9
$TRACEWID
 40
1.0
  9
$TEXTSTYLE
  7
Standard
  9
$CLAYER
  8
0
  9
$CELTYPE
  6
ByLayer
  9
$CECOLOR
 62
256
  9
$CELTSCALE
 40
1.0
  9
$DISPSILH
 70
0
  9
$DIMSCALE
 40
1.0
  9
$DIMASZ
 40
2.5
  9
$DIMEXO
 40
0.625
  9
$DIMDLI
 40
3.75
  9
$DIMRND
 40
0.0
  9
$DIMDLE
 40
0.0
  9
$DIMEXE
 40
1.25
  9
$DIMTP
 40
0.0
  9
$DIMTM
 40
0.0
  9
$DIMTXT
 40
2.5
  9
$DIMCEN
 40
2.5
  9
$DIMTSZ
 40
0.0
  9
$DIMTOL
 70
0
  9
$DIMLIM
 70
0
  9
$DIMTIH
 70
0
  9
$DIMTOH
 70
0
  9
$DIMSE1
 70
0
  9
$DIMSE2
 70
0
  9
$DIMTAD
 70
1
  9
$DIMZIN
 70
8
  9
$DIMBLK
  1

  9
$DIMASO
 70
1
  9
$DIMSHO
 70
1
  9
$DIMPOST
  1

  9
$DIMAPOST
  1

  9
$DIMALT
 70
0
  9
$DIMALTD
 70
3
  9
$DIMALTF
 40
0.03937007874
  9
$DIMLFAC
 40
1.0
  9
$DIMTOFL
 70
1
  9
$DIMTVP
 40
0.0
  9
$DIMTIX
 70
0
  9
$DIMSOXD
 70
0
  9
$DIMSAH
 70
0
  9
$DIMBLK1
  1

  9
$DIMBLK2
  1

  9
$DIMSTYLE
  2
ISO-25
  9
$DIMCLRD
 70
0
  9
$DIMCLRE
 70
0
  9
$DIMCLRT
 70
0
  9
$DIMTFAC
 40
1.0
  9
$DIMGAP
 40
0.625
  9
$DIMJUST
 70
0
  9
$DIMSD1
 70
0
  9
$DIMSD2
 70
0
  9
$DIMTOLJ
 70
0
  9
$DIMTZIN
 70
8
  9
$DIMALTZ
 70
0
  9
$DIMALTTZ
 70
0
  9
$DIMUPT
 70
0
  9
$DIMDEC
 70
2
  9
$DIMTDEC
 70
2
  9
$DIMALTU
 70
2
  9
$DIMALTTD
 70
3
  9
$DIMTXSTY
  7
Standard
  9
$DIMAUNIT
 70
0
  9
$DIMADEC
 70
0
  9
$DIMALTRND
 40
0.0
  9
$DIMAZIN
 70
0
  9
$DIMDSEP
 70
44
  9
$DIMATFIT
 70
3
  9
$DIMFRAC
 70
0
  9
$DIMLDRBLK
  1

  9
$DIMLUNIT
 70
2
  9
$DIMLWD
 70
-2
  9
$DIMLWE
 70
-2
  9
$DIMTMOVE
 70
0
  9
$DIMFXL
 40
1.0
  9
$DIMFXLON
 70
0
  9
$DIMJOGANG
 40
0.785398163397
  9
$DIMTFILL
 70
0
  9
$DIMTFILLCLR
 70
0
  9
$DIMARCSYM
 70
0
  9
$DIMLTYPE
  6

  9
$DIMLTEX1
  6

  9
$DIMLTEX2
  6

  9
$DIMTXTDIRECTION
 70
0
  9
$LUNITS
 70
2
  9
$LUPREC
 70
4
  9
$SKETCHINC
 40
1.0
  9
$FILLETRAD
 40
10.0
  9
$AUNITS
 70
0
  9
$AUPREC
 70
2
  9
$MENU
  1
.
  9
$ELEVATION
 40
0.0
  9
$PELEVATION
 40
0.0
  9
$THICKNESS
 40
0.0
  9
$LIMCHECK
 70
0
  9
$CHAMFERA
 40
0.0
  9
$CHAMFERB
 40
0.0
  9
$CHAMFERC
 40
0.0
  9
$CHAMFERD
 40
0.0
  9
$SKPOLY
 70
0
  9
$TDCREATE
 40
2460908.0869560186
  9
$TDUCREATE
 40
2458532.153996898
  9
$TDUPDATE
 40
2460908.0869560186
  9
$TDUUPDATE
 40
2458532.1544311
  9
$TDINDWG
 40
0.0
  9
$TDUSRTIMER
 40
0.0
  9
$USRTIMER
 70
1
  9
$ANGBASE
 50
0.0
  9
$ANGDIR
 70
0
  9
$PDMODE
 70
0
  9
$PDSIZE
 40
0.0
  9
$PLINEWID
 40
0.0
  9
$SPLFRAME
 70
0
  9
$SPLINETYPE
 70
6
  9
$SPLINESEGS
 70
8
  9
$HANDSEED
  5
33
  9
$SURFTAB1
 70
6
  9
$SURFTAB2
 70
6
  9
$SURFTYPE
 70
6
  9
$SURFU
 70
6
  9
$SURFV
 70
6
  9
$UCSBASE
  2

  9
$UCSNAME
  2

  9
$UCSORG
 10
0.0
 20
0.0
 30
0.0
  9
$UCSXDIR
 10
1.0
 20
0.0
 30
0.0
  9
$UCSYDIR
 10
0.0
 20
1.0
 30
0.0
  9
$UCSORTHOREF
  2

  9
$UCSORTHOVIEW
 70
0
  9
$UCSORGTOP
 10
0.0
 20
0.0
 30
0.0
  9
$UCSORGBOTTOM
 10
0.0
 20
0.0
 30
0.0
  9
$UCSORGLEFT
 10
0.0
 20
0.0
 30
0.0
  9
$UCSORGRIGHT
 10
0.0
 20
0.0
 30
0.0
  9
$UCSORGFRONT
 10
0.0
 20
0.0
 30
0.0
  9
$UCSORGBACK
 10
0.0
 20
0.0
 30
0.0
  9
$PUCSBASE
  2

  9
$PUCSNAME
  2

  9
$PUCSORG
 10
0.0
 20
0.0
 30
0.0
  9
$PUCSXDIR
 10
1.0
 20
0.0
 30
0.0
  9
$PUCSYDIR
 10
0.0
 20
1.0
 30
0.0
  9
$PUCSORTHOREF
  2

  9
$PUCSORTHOVIEW
 70
0
  9
$PUCSORGTOP
 10
0.0
 20
0.0
 30
0.0
  9
$PUCSORGBOTTOM
 10
0.0
 20
0.0
 30
0.0
  9
$PUCSORGLEFT
 10
0.0
 20
0.0
 30
0.0
  9
$PUCSORGRIGHT
 10
0.0
 20
0.0
 30
0.0
  9
$PUCSORGFRONT
 10
0.0
 20
0.0
 30
0.0
  9
$PUCSORGBACK
 10
0.0
 20
0.0
 30
0.0
  9
$USERI1
 70
0
  9
$USERI2
 70
0
  9
$USERI3
 70
0
  9
$USERI4
 70
0
  9
$USERI5
 70
0
  9
$USERR1
 40
0.0
  9
$USERR2
 40
0.0
  9
$USERR3
 40
0.0
  9
$USERR4
 40
0.0
  9
$USERR5
 40
0.0
  9
$WORLDVIEW
 70
1
  9
$SHADEDGE
 70
3
  9
$SHADEDIF
 70
70
  9
$TILEMODE
 70
1
  9
$MAXACTVP
 70
64
  9
$PINSBASE
 10
0.0
 20
0.0
 30
0.0
  9
$PLIMCHECK
 70
0
  9
$PEXTMIN
 10
1e+20
 20
1e+20
 30
1e+20
  9
$PEXTMAX
 10
-1e+20
 20
-1e+20
 30
-1e+20
  9
$PLIMMIN
 10
0.0
 20
0.0
  9
$PLIMMAX
 10
420.0
 20
297.0
  9
$UNITMODE
 70
0
  9
$VISRETAIN
 70
1
  9
$PLINEGEN
 70
0
  9
$PSLTSCALE
 70
1
  9
$TREEDEPTH
 70
3020
  9
$CMLSTYLE
  2
Standard
  9
$CMLJUST
 70
0
  9
$CMLSCALE
 40
20.0
  9
$PROXYGRAPHICS
 70
1
  9
$MEASUREMENT
 70
1
  9
$CELWEIGHT
370
-1
  9
$ENDCAPS
280
0
  9
$JOINSTYLE
280
0
  9
$LWDISPLAY
290
0
  9
$INSUNITS
 70
6
  9
$HYPERLINKBASE
  1

  9
$STYLESHEET
  1

  9
$XEDIT
290
1
  9
$CEPSNTYPE
380
0
  9
$PSTYLEMODE
290
1
  9
$FINGERPRINTGUID
  2
{055ABC24-D710-4B2D-B6AB-4BCE58A4E338}
  9
$VERSIONGUID
  2
{601898DC-DEEF-4792-8DD1-5B0C75D12F97}
  9
$EXTNAMES
290
1
  9
$PSVPSCALE
 40
0.0
  9
$OLESTARTUP
290
0
  9
$SORTENTS
280
127
  9
$INDEXCTL
280
0
  9
$HIDETEXT
280
1
  9
$XCLIPFRAME
280
1
  9
$HALOGAP
280
0
  9
$OBSCOLOR
 70
257
  9
$OBSLTYPE
280
0
  9
$INTERSECTIONDISPLAY
280
0
  9
$INTERSECTIONCOLOR
 70
257
  9
$DIMASSOC
280
2
  9
$PROJECTNAME
  1

  9
$CAMERADISPLAY
290
0
  9
$LENSLENGTH
 40
50.0
  9
$CAMERAHEIGHT
 40
0.0
  9
$STEPSPERSEC
 40
24.0
  9
$STEPSIZE
 40
100.0
  9
$3DDWFPREC
 40
2.0
  9
$PSOLWIDTH
 40
0.005
  9
$PSOLHEIGHT
 40
0.08
  9
$LOFTANG1
 40
1.570796326795
  9
$LOFTANG2
 40
1.570796326795
  9
$LOFTMAG1
 40
0.0
  9
$LOFTMAG2
 40
0.0
  9
$LOFTPARAM
 70
7
  9
$LOFTNORMALS
280
1
  9
$LATITUDE
 40
37.795
  9
$LONGITUDE
 40
-122.394
  9
$NORTHDIRECTION
 40
0.0
  9
$TIMEZONE
 70
-8000
  9
$LIGHTGLYPHDISPLAY
280
1
  9
$TILEMODELIGHTSYNCH
280
1
  9
$CMATERIAL
347
20
  9
$SOLIDHIST
280
0
  9
$SHOWHIST
280
1
  9
$DWFFRAME
280
2
  9
$DGNFRAME
280
2
  9
$REALWORLDSCALE
290
1
  9
$INTERFERECOLOR
 62
256
  9
$CSHADOW
280
0
  9
$SHADOWPLANELOCATION
 40
0.0
  0
ENDSEC
  0
SECTION
  2
CLASSES
  0
CLASS
  1
ACDBDICTIONARYWDFLT
  2
AcDbDictionaryWithDefault
  3
ObjectDBX Classes
 90
0
 91
0
280
0
281
0
  0
CLASS
  1
SUN
  2
AcDbSun
  3
SCENEOE
 90
1153
 91
0
280
0
281
0
  0
CLASS
  1
VISUALSTYLE
  2
AcDbVisualStyle
  3
ObjectDBX Classes
 90
4095
 91
0
280
0
281
0
  0
CLASS
  1
MATERIAL
  2
AcDbMaterial
  3
ObjectDBX Classes
 90
1153
 91
0
280
0
281
0
  0
CLASS
  1
SCALE
  2
AcDbScale
  3
ObjectDBX Classes
 90
1153
 91
0
280
0
281
0
  0
CLASS
  1
TABLESTYLE
  2
AcDbTableStyle
  3
ObjectDBX Classes
 90
4095
 91
0
280
0
281
0
  0
CLASS
  1
MLEADERSTYLE
  2
AcDbMLeaderStyle
  3
ACDB_MLEADERSTYLE_CLASS
 90
4095
 91
0
280
0
281
0
  0
CLASS
  1
DICTIONARYVAR
  2
AcDbDictionaryVar
  3
ObjectDBX Classes
 90
0
 91
0
280
0
281
0
  0
CLASS
  1
CELLSTYLEMAP
  2
AcDbCellStyleMap
  3
ObjectDBX Classes
 90
1152
 91
0
280
0
281
0
  0
CLASS
  1
MENTALRAYRENDERSETTINGS
  2
AcDbMentalRayRenderSettings
  3
SCENEOE
 90
1024
 91
0
280
0
281
0
  0
CLASS
  1
ACDBDETAILVIEWSTYLE
  2
AcDbDetailViewStyle
  3
ObjectDBX Classes
 90
1025
 91
0
280
0
281
0
  0
CLASS
  1
ACDBSECTIONVIEWSTYLE
  2
AcDbSectionViewStyle
  3
ObjectDBX Classes
 90
1025
 91
0
280
0
281
0
  0
CLASS
  1
RASTERVARIABLES
  2
AcDbRasterVariables
  3
ISM
 90
0
 91
0
280
0
281
0
  0
CLASS
  1
LAYOUT
  2
AcDbLayout
  3
ObjectDBX Classes
 90
0
 91
0
280
0
281
0
  0
CLASS
  1
ACDBPLACEHOLDER
  2
AcDbPlaceHolder
  3
ObjectDBX Classes
 90
0
 91
0
280
0
281
0
  0
ENDSEC
  0
SECTION
  2
TABLES
  0
TABLE
  2
VPORT
  5
8
330
0
100
AcDbSymbolTable
 70
1
  0
VPORT
  5
23
330
8
100
AcDbSymbolTableRecord
100
AcDbViewportTableRecord
  2
*Active
 70
0
 10
0.0
 20
0.0
 11
1.0
 21
1.0
 12
0.0
 22
0.0
 13
0.0
 23
0.0
 14
0.5
 24
0.5
 15
0.5
 25
0.5
 16
0.0
 26
0.0
 36
1.0
 17
0.0
 27
0.0
 37
0.0
 40
1000.0
 41
1.34
 42
50.0
 43
0.0
 44
0.0
 50
0.0
 51
0.0
 71
0
 72
1000
 73
1
 74
3
 75
0
 76
0
 77
0
 78
0
281
0
 65
0
146
0.0
  0
ENDTAB
  0
TABLE
  2
LTYPE
  5
2
330
0
100
AcDbSymbolTable
 70
3
  0
LTYPE
  5
24
330
2
100
AcDbSymbolTableRecord
100
AcDbLinetypeTableRecord
  2
ByBlock
 70
0
  3

 72
65
 73
0
 40
0.0
  0
LTYPE
  5
25
330
2
100
AcDbSymbolTableRecord
100
AcDbLinetypeTableRecord
  2
ByLayer
 70
0
  3

 72
65
 73
0
 40
0.0
  0
LTYPE
  5
26
330
2
100
AcDbSymbolTableRecord
100
AcDbLinetypeTableRecord
  2
Continuous
 70
0
  3

 72
65
 73
0
 40
0.0
  0
ENDTAB
  0
TABLE
  2
LAYER
  5
1
330
0
100
AcDbSymbolTable
 70
2
  0
LAYER
  5
27
330
1
100
AcDbSymbolTableRecord
100
AcDbLayerTableRecord
  2
0
 70
0
 62
7
  6
Continuous
370
-3
390
13
347
21
  0
LAYER
  5
28
330
1
100
AcDbSymbolTableRecord
100
AcDbLayerTableRecord
  2
Defpoints
 70
0
 62
7
  6
Continuous
290
0
370
-3
390
13
347
21
  0
ENDTAB
  0
TABLE
  2
STYLE
  5
5
330
0
100
AcDbSymbolTable
 70
1
  0
STYLE
  5
29
330
5
100
AcDbSymbolTableRecord
100
AcDbTextStyleTableRecord
  2
Standard
 70
0
 40
0.0
 41
1.0
 50
0.0
 71
0
 42
2.5
  3
txt
  4

  0
ENDTAB
  0
TABLE
  2
VIEW
  5
7
330
0
100
AcDbSymbolTable
 70
0
  0
ENDTAB
  0
TABLE
  2
UCS
  5
6
330
0
100
AcDbSymbolTable
 70
0
  0
ENDTAB
  0
TABLE
  2
APPID
  5
3
330
0
100
AcDbSymbolTable
 70
3
  0
APPID
  5
2A
330
3
100
AcDbSymbolTableRecord
100
AcDbRegAppTableRecord
  2
ACAD
 70
0
  0
APPID
  5
30
330
3
100
AcDbSymbolTableRecord
100
AcDbRegAppTableRecord
  2
HATCHBACKGROUNDCOLOR
 70
0
  0
APPID
  5
31
330
3
100
AcDbSymbolTableRecord
100
AcDbRegAppTableRecord
  2
EZDXF
 70
0
  0
ENDTAB
  0
TABLE
  2
DIMSTYLE
  5
4
330
0
100
AcDbSymbolTable
 70
1
100
AcDbDimStyleTable
  0
DIMSTYLE
105
2B
330
4
100
AcDbSymbolTableRecord
100
AcDbDimStyleTableRecord
  2
Standard
 70
0
 40
1.0
 41
2.5
 42
0.625
 43
3.75
 44
1.25
 45
0.0
 46
0.0
 47
0.0
 48
0.0
 49
2.5
140
2.5
141
2.5
142
0.0
143
0.03937007874
144
1.0
145
0.0
146
1.0
147
0.625
148
0.0
 69
0
 70
0
 71
0
 72
0
 73
0
 74
0
 75
0
 76
0
 77
1
 78
8
 79
3
170
0
171
3
172
1
173
0
174
0
175
0
176
0
177
0
178
0
179
2
271
2
272
2
273
2
274
3
275
0
276
0
277
2
278
44
279
0
280
0
281
0
282
0
283
0
284
8
285
0
286
0
288
0
289
3
290
0
371
-2
372
-2
  0
ENDTAB
  0
TABLE
  2
BLOCK_RECORD
  5
9
330
0
100
AcDbSymbolTable
 70
2
  0
BLOCK_RECORD
  5
17
330
9
100
AcDbSymbolTableRecord
100
AcDbBlockTableRecord
  2
*Model_Space
340
1A
 70
0
280
1
281
0
  0
BLOCK_RECORD
  5
1B
330
9
100
AcDbSymbolTableRecord
100
AcDbBlockTableRecord
  2
*Paper_Space
340
1E
 70
0
280
1
281
0
  0
ENDTAB
  0
ENDSEC
  0
SECTION
  2
BLOCKS
  0
BLOCK
  5
18
330
17
100
AcDbEntity
  8
0
100
AcDbBlockBegin
  2
*Model_Space
 70
0
 10
0.0
 20
0.0
 30
0.0
  3
*Model_Space
  1

  0
ENDBLK
  5
19
330
17
100
AcDbEntity
  8
0
100
AcDbBlockEnd
  0
BLOCK
  5
1C
330
1B
100
AcDbEntity
  8
0
100
AcDbBlockBegin
  2
*Paper_Space
 70
0
 10
0.0
 20
0.0
 30
0.0
  3
*Paper_Space
  1

  0
ENDBLK
  5
1D
330
1B
100
AcDbEntity
  8
0
100
AcDbBlockEnd
  0
ENDSEC
  0
SECTION
  2
ENTITIES
  0
LWPOLYLINE
  5
2F
330
17
100
AcDbEntity
  8
0
100
AcDbPolyline
 90
721
 70
1
 10
90.11378622100663
 20
26.700943626359866
 10
90.11095179034457
 20
26.701127922739936
 10
90.1025282026677
 20
26.70141181550336
 10
90.08867486659469
 20
26.701257311896583
 10
90.06917757962785
 20
26.70089355614173
 10
90.04442489460793
 20
26.69999675798295
 10
90.01424246119186
 20
26.698661563453967
 10
89.97853563334596
 20
26.69671362221174
 10
89.93757340744693
 20
26.694232638565573
 10
89.89126113746114
 20
26.691044262172436
 10
89.83938462089084
 20
26.687377637254436
 10
89.78229255842211
 20
26.683043471744124
 10
89.71985045186656
 20
26.678001913486828
 10
89.65201844906957
 20
26.672387460670944
 10
89.57887625434044
 20
26.665931116919694
 10
89.50034416336985
 20
26.658901878609853
 10
89.41659652650081
 20
26.6512050997077
 10
89.32749884554502
 20
26.642800928058573
 10
89.23301126834774
 20
26.63382386185085
 10
89.13334799740673
 20
26.62404475686243
 10
89.02829483022423
 20
26.613692757315416
 10
88.91793147110961
 20
26.602498866833038
 10
88.80244721213029
 20
26.590811786101405
 10
88.6814784108758
 20
26.578377460468126
 10
88.5554285619113
 20
26.565315446397204
 10
88.42402866885999
 20
26.5515460395793
 10
88.28741322991024
 20
26.537109092169082
 10
88.14558224506209
 20
26.522004604166547
 10
87.99849586216088
 20
26.5063670737601
 10
87.84615408120656
 20
26.49019650094972
 10
87.68863660650852
 20
26.473223889358646
 10
87.52586373375742
 20
26.45571823536365
 10
87.35800981329626
 20
26.437584892931003
 10
87.18490049478206
 20
26.418918508094436
 10
87.00661548252407
 20
26.39945008447716
 10
86.82320957040142
 20
26.37948847061063
 10
86.63464290625942
 20
26.359168164683236
 10
86.44103504656206
 20
26.33808567212981
 10
86.24217178881163
 20
26.316470137172463
 10
86.03836198153955
 20
26.294266765932125
 10
85.82929677621439
 20
26.271530352287872
 10
85.61524516921297
 20
26.248340600549025
 10
85.39607266234684
 20
26.22465765856093
 10
85.17191375380439
 20
26.20052137847823
 10
84.94267379755195
 20
26.175757409957896
 10
84.70848729177786
 20
26.150405605154578
 10
84.46914003398442
 20
26.124695108290386
 10
84.22494087270306
 20
26.098571125486274
 10
83.9757553097454
 20
26.071993804587574
 10
83.72158334511145
 20
26.044963145594284
 10
83.46242497880121
 20
26.0174791485064
 10
83.19837485684842
 20
25.989716163666994
 10
82.92933833321929
 20
25.961499840732987
 10
82.65541005394759
 20
25.93300453004744
 10
82.37662987118802
 20
25.904095733421983
 10
82.09307748924984
 20
25.874504454479812
 10
81.80480770201214
 20
25.844539541752386
 10
81.51160630697721
 20
25.814430139461816
 10
81.21347330414504
 20
25.784176247608098
 10
80.910662748168
 20
25.753414223780734
 10
80.60313478689145
 20
25.722278566168114
 10
80.29088942031538
 20
25.690769274770236
 10
79.97380709197581
 20
25.659289844152266
 10
79.65208706264605
 20
25.62716778337226
 10
79.32578412620511
 20
25.59471194096166
 10
78.99485843049843
 20
25.562056815108864
 10
78.6591356251829
 20
25.529297051847585
 10
78.31892455878993
 20
25.496377857298768
 10
77.97413058528585
 20
25.463124881119363
 10
77.62475370467064
 20
25.429538123309364
 10
77.27084871082337
 20
25.395926432400227
 10
76.91257501236267
 20
25.361751815638375
 10
76.54971840679084
 20
25.32724341724593
 10
76.18250803833
 20
25.292615439720617
 10
75.81094390698014
 20
25.257867883062435
 10
75.43497121886222
 20
25.222691898739946
 10
75.05455012182155
 20
25.187221984941523
 10
74.66994961223492
 20
25.151537845976513
 10
74.2809554876046
 20
25.115868626067012
 10
73.88768730439462
 20
25.079810830647876
 10
73.49027956079333
 20
25.043404311873743
 10
73.08873225680074
 20
25.006649069744636
 10
72.68296568810753
 20
24.969814100637326
 10
72.27297985471368
 20
24.932899404551808
 10
71.8588146087739
 20
24.8957704832997
 10
71.4407787988196
 20
24.85837254300194
 10
71.01856357631931
 20
24.82076037753759
 10
70.59230343946145
 20
24.78297383906131
 10
70.16225244289842
 20
24.744649285162602
 10
69.72823623628715
 20
24.705881361875186
 10
69.29026976135204
 20
24.6671134159189
 10
68.84848751628145
 20
24.62838529944841
 10
68.40270020900799
 20
24.589348311777606
 10
67.95329639237237
 20
24.549678662650642
 10
67.50011665775597
 20
24.50991434482109
 10
67.04320085731344
 20
24.469920860100547
 10
66.58250913889015
 20
24.42983270667742
 10
66.11825570498375
 20
24.389420740329577
 10
65.65044055559429
 20
24.348684961057035
 10
65.17892919253336
 20
24.30758551670511
 10
64.70395076002309
 20
24.266336609771532
 10
64.22537075987509
 20
24.224898388101646
 10
63.74340339458709
 20
24.183041707473325
 10
63.258048664159055
 20
24.140766567886573
 10
62.76944106677941
 20
24.098112821496056
 10
62.277406252105074
 20
24.055175114335498
 10
61.78199901401512
 20
24.012262294936342
 10
61.28320441078514
 20
23.968931016578757
 10
60.78138608482566
 20
23.92543533391513
 10
60.27643444837856
 20
23.881157549882573
 10
59.76830964928915
 20
23.836232162669468
 10
59.25716112747023
 20
23.791142371150322
 10
58.74294903076714
 20
23.746022673513522
 10
58.2255239192671
 20
23.700389870884564
 10
57.70550349003297
 20
23.654134375505347
 10
57.1825241006543
 20
23.60700213272347
 10
56.65673519104381
 20
23.559476341413433
 10
56.127962410858466
 20
23.511651647608964
 10
55.59651460862976
 20
23.463473257431012
 10
55.06237684263324
 20
23.414497824159728
 10
54.52560390674798
 20
23.365034196326565
 10
53.98611609666467
 20
23.315351370308314
 10
53.444112673156624
 20
23.264776855163003
 10
52.899633488378505
 20
23.213176152702264
 10
52.35274827793375
 20
23.16130145817736
 10
51.80322789760028
 20
23.108938569090583
 10
51.251301491600174
 20
23.056301687939648
 10
50.697208172861465
 20
23.002583825594222
 10
50.14090808922945
 20
22.947919480242682
 10
49.582321536394815
 20
22.892577648261824
 10
49.02132895789356
 20
22.836961824216807
 10
48.45835875872111
 20
22.780613719663403
 10
47.893301351119405
 20
22.722915637538733
 10
47.326440673189566
 20
22.664390628871956
 10
46.757308467781485
 20
22.60563148029569
 10
46.186198641702234
 20
22.546140051211033
 10
45.61327060357046
 20
22.48537834886444
 10
45.038713645453626
 20
22.42369507394202
 10
44.462218918820284
 20
22.361145020322823
 10
43.884015567892554
 20
22.29794239050458
 10
43.30400894663667
 20
22.233912834144224
 10
42.722413257550414
 20
22.168827207019657
 10
42.13936299882214
 20
22.102725361285533
 10
41.55472367226348
 20
22.03556744478719
 10
40.96876427425118
 20
21.967433161833963
 10
40.38121580840848
 20
21.898242808116514
 10
39.79226756680285
 20
21.82834508432096
 10
39.201959401588915
 20
21.75760549225891
 10
38.61049057354003
 20
21.685351540988414
 10
38.017781378346854
 20
21.61185222688625
 10
37.4240609602315
 20
21.537321752450143
 10
36.82902047066254
 20
21.461814911559152
 10
36.23300861032605
 20
21.385142412145825
 10
35.63606523137673
 20
21.30716975602178
 10
35.03823018596923
 20
21.227762444998614
 10
34.43942376979423
 20
21.147189475453118
 10
33.839740628885444
 20
21.06562519772835
 10
33.23918076324286
 20
20.9830696118243
 10
32.637998227518885
 20
20.899159075330466
 10
32.03609837567979
 20
20.813719237903808
 10
31.433655558068615
 20
20.72665545351058
 10
30.830684716409802
 20
20.638411068870635
 10
30.2269317960509
 20
20.549349726394464
 10
29.622745497678054
 20
20.459282134014625
 10
29.01831014034019
 20
20.367092454069333
 10
28.413386611109313
 20
20.273587675688926
 10
27.80820405420756
 20
20.178982001371136
 10
27.202707675755857
 20
20.082966582584504
 10
26.59693732790885
 20
19.985406921140644
 10
25.99104245057936
 20
19.886786215914064
 10
25.384928397733624
 20
19.7869301165617
 10
24.77884922402405
 20
19.685474980673042
 10
24.17267043126225
 20
19.58238095609345
 10
23.566621163670327
 20
19.47786224532062
 10
22.96066156909362
 20
19.372053346542952
 10
22.35491120399615
 20
19.26455076519528
 10
21.749330216223193
 20
19.155488999465987
 10
21.144013251808545
 20
19.045042399698136
 10
20.538706256099765
 20
18.933574608302226
 10
19.93391733840164
 20
18.820358340457247
 10
19.32964649871418
 20
18.705393596163205
 10
18.725853884882714
 20
18.58881487360849
 10
18.122499644752576
 20
18.47075667098149
 10
17.51975812866683
 20
18.351124342248482
 10
16.9174549862824
 20
18.23001253344319
 10
16.315899066130747
 20
18.10736645068655
 10
15.715170072521206
 20
17.982917097601792
 10
15.115228153299105
 20
17.856798972377305
 10
14.51603345630977
 20
17.72914657320147
 10
13.91762583370788
 20
17.599825401885905
 10
13.320353986179537
 20
17.468646166363165
 10
12.724003711227036
 20
17.33583801085536
 10
12.128629802729414
 20
17.20170978389393
 10
11.534297023271616
 20
17.065549142382267
 10
10.941194664921088
 20
16.927704787006476
 10
10.349203171213848
 20
16.788580212331738
 10
9.758307600425486
 20
16.647732071638206
 10
9.168856653242127
 20
16.504971072858446
 10
8.58077062535443
 20
16.36056621236922
 10
7.993994722883341
 20
16.2142086416391
 10
7.408718237896297
 20
16.066247061354183
 10
6.824886376514263
 20
15.916372622983035
 10
6.242728282959328
 20
15.764799529023373
 10
5.661855404390732
 20
15.611851569731032
 10
5.082616441494573
 20
15.457339453038568
 10
4.505170802889528
 20
15.30072518619242
 10
3.9294786364209133
 20
15.142143267380977
 10
3.355554883813144
 20
14.982037043324079
 10
2.7834393972208726
 20
14.820272015833336
 10
2.2131720287987644
 20
14.656713686720353
 10
1.644887276735213
 20
14.491401908139798
 10
1.078370938532491
 20
14.324565824313787
 10
0.5136778080696615
 20
14.156514283773761
 10
-0.048898207846228364
 20
13.98674914592083
 10
-0.6092774049058319
 20
13.81500141437822
 10
-1.1675394874184943
 20
13.641540085522701
 10
-1.7235898093504918
 20
13.466539509697334
 10
-2.277562868890215
 20
13.289959834747453
 10
-2.8293640200039243
 20
13.111975411016111
 10
-3.3788986166579225
 20
12.932760588846365
 10
-3.9261417484219088
 20
12.751737523329993
 10
-4.470958917107506
 20
12.56894606662166
 10
-5.013414885299664
 20
12.385098561817975
 10
-5.553564446877419
 20
12.1998861603875
 10
-6.091098753309347
 20
12.013254068451175
 10
-6.626286800972217
 20
11.825122581699665
 10
-7.158859593489246
 20
11.635571404442306
 10
-7.688762336981382
 20
11.444909385210543
 10
-8.216303879980067
 20
11.253191317883433
 10
-8.741150463523594
 20
11.059784563673691
 10
-9.26327220416316
 20
10.86557581602099
 10
-9.782883304396497
 20
10.67079421914744
 10
-10.299879149484001
 20
10.474592931768044
 10
-10.813856244860496
 20
10.277091510346796
 10
-11.325068645178378
 20
10.078653597294197
 10
-11.833556202592316
 20
9.879413690798637
 10
-12.339239212792963
 20
9.67910279448334
 10
-12.841888531558205
 20
9.477935110846026
 10
-13.341773155264839
 20
9.275830935577366
 10
-13.838743644000079
 20
9.073273467551854
 10
-14.332720293454585
 20
8.869993710392713
 10
-14.823663251473697
 20
8.665857165911557
 10
-15.311612370212076
 20
8.460998332296775
 10
-15.79651285579067
 20
8.25572605807981
 10
-16.278499206397864
 20
8.050000491106
 10
-16.757222721347546
 20
7.843632339307892
 10
-17.23268340063973
 20
7.636621602685492
 10
-17.70497589030812
 20
7.428793930895738
 10
-18.174005544319
 20
7.22032367428169
 10
-18.639891919136375
 20
7.011614327408515
 10
-19.10254036872651
 20
6.802840240619272
 10
-19.56179148447075
 20
6.5934634211604
 10
-20.017779764557478
 20
6.383444016877233
 10
-20.470061862266867
 20
6.17276708604538
 10
-20.919026330439685
 20
5.961756418920676
 10
-21.364713021230607
 20
5.750546513691513
 10
-21.806852938262846
 20
5.539217074667225
 10
-22.245406229381743
 20
5.327633603659417
 10
-22.680387836311684
 20
5.115352753948261
 10
-23.11182266948294
 20
4.902952370441974
 10
-23.53983028535953
 20
4.690835947705728
 10
-23.964076924979707
 20
4.478370846952243
 10
-24.384697086531872
 20
4.265517216026851
 10
-24.801501477948584
 20
4.052623755615666
 10
-25.214624597418226
 20
3.8396506135640145
 10
-25.624106297095466
 20
3.626732288060294
 10
-26.029692522327917
 20
3.413505136694001
 10
-26.4314629774249
 20
3.200238155841911
 10
-26.829417662386437
 20
2.986931345504027
 10
-27.22371598583117
 20
2.774122698433905
 10
-27.614049099227675
 20
2.561757420752489
 10
-28.000566442488715
 20
2.349352313585279
 10
-28.38305381311657
 20
2.1366782327101617
 10
-28.761536121541535
 20
1.924313023035359
 10
-29.136227570261305
 20
1.7124858287829865
 10
-29.50683425246884
 20
1.500698509354152
 10
-29.873301374285084
 20
1.2892599132802978
 10
-30.23593778424147
 20
1.0782248344404857
 10
-30.594474485961236
 20
0.8676729771440471
 10
-30.948791922980373
 20
0.6572008468258089
 10
-31.299009651762884
 20
0.4472119380509459
 10
-31.64516752446343
 20
0.2378407490078413
 10
-31.987225688927346
 20
0.028952781508110315
 10
-32.32504964696624
 20
-0.17941211229357892
 10
-32.658599546425464
 20
-0.3873884305856247
 10
-32.98804973764805
 20
-0.5948815273342953
 10
-33.313131224257226
 20
-0.801811698230261
 10
-33.633923710562335
 20
-1.007909946896745
 10
-33.95061648863081
 20
-1.2135249740198506
 10
-34.26280606389749
 20
-1.418537223135593
 10
-34.57058708239609
 20
-1.623121044587017
 10
-34.874118952745285
 20
-1.8267384456205693
 10
-35.17340167494507
 20
-2.0293894262362455
 10
-35.46822104649773
 20
-2.231303130656165
 10
-35.758537215248595
 20
-2.43261405706871
 10
-36.04444482723138
 20
-2.63349655581694
 10
-36.325874146842644
 20
-2.8331984316495755
 10
-36.602919820116114
 20
-3.031894034909671
 10
-36.87550214274245
 20
-3.2298523619740074
 10
-37.143486616533266
 20
-3.427033560687918
 10
-37.40695294579789
 20
-3.623168634674623
 10
-37.66582142622699
 20
-3.818526580310897
 10
-37.920131909975254
 20
-4.01297289940836
 10
-38.169924249197315
 20
-4.206373093778614
 10
-38.41498424139547
 20
-4.398956307643776
 10
-38.65543144303372
 20
-4.590319046438677
 10
-38.89124094368177
 20
-4.781039155071539
 10
-39.122437653769914
 20
-4.970538788634141
 10
-39.34898172114348
 20
-5.1589524453148705
 10
-39.57083329364781
 20
-5.346414623302118
 10
-39.78785787309449
 20
-5.532885470441218
 10
-40.00022980982661
 20
-5.718270340698445
 10
-40.207934162119756
 20
-5.902125887353966
 10
-40.4108912256646
 20
-6.084721106784557
 10
-40.60910100046114
 20
-6.266055998990223
 10
-40.802737836852444
 20
-6.446035917937235
 10
-40.99149288630704
 20
-6.624715657504654
 10
-41.17558035132268
 20
-6.801866073470365
 10
-41.354945438020295
 20
-6.977178317302927
 10
-41.529722644588276
 20
-7.150692241157001
 10
-41.6996977685289
 20
-7.322636989254703
 10
-41.86504516018522
 20
-7.492917915562309
 10
-42.02549582318045
 20
-7.661455315770482
 10
-42.18139845820072
 20
-7.8280598978117855
 10
-42.3325239210239
 20
-7.992517459188488
 10
-42.47892700552906
 20
-8.155136848432038
 10
-42.62060771171619
 20
-8.315918065542437
 10
-42.75756603958529
 20
-8.474861110519685
 10
-42.889747195257314
 20
-8.631657134832333
 10
-43.017151178732256
 20
-8.786306138480384
 10
-43.139792931734505
 20
-8.939251468183674
 10
-43.25765751253967
 20
-9.090049777222365
 10
-43.37058551252908
 20
-9.239239058350016
 10
-43.47873634032143
 20
-9.386281318813069
 10
-43.58195058729802
 20
-9.531714551365084
 10
-43.680307957768186
 20
-9.67526975962928
 10
-43.773808451731945
 20
-9.816946943605661
 10
-43.86227771884624
 20
-9.956840749327943
 10
-43.94606445979716
 20
-10.094761884728683
 10
-44.024645623555564
 20
-10.230994287909054
 10
-44.098504408995936
 20
-10.36538851895627
 10
-44.16733196758684
 20
-10.497999371749394
 10
-44.231247855792276
 20
-10.628423351723253
 10
-44.29030686749128
 20
-10.756969307409292
 10
-44.34441435665017
 20
-10.883462888464457
 10
-44.39372973188757
 20
-11.007366102135192
 10
-44.438267934927886
 20
-11.129122295141329
 10
-44.47797417189207
 20
-11.248422618951421
 10
-44.512928147089454
 20
-11.364998077188694
 10
-44.54328926913868
 20
-11.478310677099586
 10
-44.56905753803977
 20
-11.588360418684095
 10
-44.590447156290445
 20
-11.694918157720112
 10
-44.60738838828725
 20
-11.797231698956358
 10
-44.620175140837226
 20
-11.894802901793936
 10
-44.629340433675445
 20
-11.98632663650362
 10
-44.634894235507794
 20
-12.07078171145735
 10
-44.63760867899731
 20
-12.146056007795558
 10
-44.638255896807046
 20
-12.210037406658678
 10
-44.637523344272196
 20
-12.25941824721603
 10
-44.63654182344785
 20
-12.29087592691254
 10
-44.3844021685555
 20
-13.151211039848889
 10
-44.37981424308813
 20
-13.1573132565181
 10
-44.366090318840655
 20
-13.175485408337337
 10
-44.343389804431766
 20
-13.20518950255305
 10
-44.31090071504373
 20
-13.248672156213187
 10
-44.26805515180534
 20
-13.308837535583269
 10
-44.21679092857085
 20
-13.378651882712367
 10
-44.15820896394653
 20
-13.45390590160574
 10
-44.093096332319824
 20
-13.532930820123656
 10
-44.0221554307503
 20
-13.612862324155266
 10
-43.945610430441604
 20
-13.692450077850404
 10
-43.86392958854382
 20
-13.77110129457645
 10
-43.777137815487244
 20
-13.84823812942518
 10
-43.685394519890515
 20
-13.923322589643032
 10
-43.58877940606298
 20
-13.996085678853234
 10
-43.48729247400466
 20
-14.066527397055783
 10
-43.38110807405857
 20
-14.134553098216953
 10
-43.270171412345675
 20
-14.199853933805304
 10
-43.154442636711316
 20
-14.262564402009222
 10
-43.03409609749853
 20
-14.322589856794982
 10
-42.908917592209605
 20
-14.3801594423847
 10
-42.77894697299921
 20
-14.435138660589987
 10
-42.64453294055345
 20
-14.487338219343393
 10
-42.50515244384316
 20
-14.537042056746092
 10
-42.36124882958818
 20
-14.58423523107369
 10
-42.21251324925705
 20
-14.628972536205245
 10
-42.05912005319284
 20
-14.671159326107032
 10
-41.90110909355023
 20
-14.710661102590667
 10
-41.73836081386518
 20
-14.747881360221312
 10
-41.57095491844706
 20
-14.782551102622191
 10
-41.39873199867718
 20
-14.815208322546862
 10
-41.221811611019554
 20
-14.845449525430158
 10
-41.04024854935323
 20
-14.87358355980352
 10
-40.85390831548983
 20
-14.899570573512287
 10
-40.662711205120026
 20
-14.923679562933236
 10
-40.46683156858685
 20
-14.94581588203264
 10
-40.26622955373564
 20
-14.966114028998897
 10
-40.060905160566406
 20
-14.984574003831996
 10
-39.85060433442677
 20
-15.001559448942446
 10
-39.63563592384817
 20
-15.017015570451193
 10
-39.415770784608476
 20
-15.03072816586051
 10
-39.19127791308448
 20
-15.04277693947973
 10
-38.96194310677847
 20
-15.053391035530964
 10
-38.7279008638788
 20
-15.062610306168882
 10
-38.489056538351804
 20
-15.07026040105043
 10
-38.245624332695165
 20
-15.076112175953488
 10
-37.99742989656581
 20
-15.080260276911787
 10
-37.744702374185906
 20
-15.082918906423043
 10
-37.487307267367015
 20
-15.084048212332593
 10
-37.225244576109155
 20
-15.083648194640435
 10
-36.95863385687633
 20
-15.081315358781401
 10
-36.687609607856935
 20
-15.077089556910158
 10
-36.41203733086256
 20
-15.070930936872044
 10
-36.131971819772275
 20
-15.063148347198492
 10
-35.84741307458608
 20
-15.053741787889516
 10
-35.55852050392264
 20
-15.04217326619155
 10
-35.26534890166099
 20
-15.028751630636041
 10
-34.967803621767445
 20
-15.013302530879931
 10
-34.66584481208731
 20
-14.995960465111613
 10
-34.35960697080898
 20
-14.97676528548575
 10
-34.049129950087135
 20
-14.955582493813958
 10
-33.73437389776711
 20
-14.932546588284621
 10
-33.41533881384888
 20
-14.90765756889774
 10
-33.092064550487116
 20
-14.880780937464927
 10
-32.76464575371556
 20
-14.852091044329237
 10
-32.43308242353421
 20
-14.82158788949067
 10
-32.09727991390933
 20
-14.78909712260617
 10
-31.757427516908376
 20
-14.754967444361851
 10
-31.413430586497615
 20
-14.719024504414653
 10
-31.06524927052239
 20
-14.68140280095297
 10
-30.713057919325745
 20
-14.642007687943075
 10
-30.356976089371706
 20
-14.600435670819799
 10
-29.996884224196233
 20
-14.55709024414831
 10
-29.632568121301645
 20
-14.51220055215073
 10
-29.264471127407745
 20
-14.465751653102657
 10
-28.892403950447108
 20
-14.417394846317986
 10
-28.516406442574393
 20
-14.366995633608322
 10
-28.13666789585703
 20
-14.31490271565978
 10
-27.753013959951996
 20
-14.261210738506087
 10
-27.365524339168605
 20
-14.205650705770458
 10
-26.97433353169524
 20
-14.148262469607557
 10
-26.579481389686578
 20
-14.088911531829003
 10
-26.180848356678617
 20
-14.028001386999962
 10
-25.77851413698069
 20
-13.965263038743647
 10
-25.372399026283468
 20
-13.900965483436849
 10
-24.96289157742772
 20
-13.834784930823721
 10
-24.549682941882008
 20
-13.766776174783327
 10
-24.132907617834714
 20
-13.696979067470334
 10
-23.71266025131957
 20
-13.625567959227794
 10
-23.288886048457517
 20
-13.552234001524262
 10
-22.861639803127613
 20
-13.477286042891183
 10
-22.431095865672905
 20
-13.400629437294837
 10
-21.99706494402596
 20
-13.321915484049109
 10
-21.559816034563546
 20
-13.241223887463333
 10
-21.11922958082167
 20
-13.158958142102676
 10
-20.67530558280033
 20
-13.075118247967142
 10
-20.228044040499526
 20
-12.989704205056727
 10
-19.77769900857164
 20
-12.902352370960928
 10
-19.32435019132602
 20
-12.812793749302969
 10
-18.867703681955604
 20
-12.721526480681742
 10
-18.40802847683716
 20
-12.628630269406576
 10
-17.945269782091643
 20
-12.533796266946029
 10
-17.479641800216772
 20
-12.436795329077988
 10
-17.01102497474855
 20
-12.338030950367619
 10
-16.53947409956604
 20
-12.23781197934637
 10
-16.06493438079017
 20
-12.135829567482794
 10
-15.58752537488495
 20
-12.031680220211726
 10
-15.107436373917817
 20
-11.92571263821927
 10
-14.624627525734116
 20
-11.818061319693822
 10
-14.13882983395706
 20
-11.708646560326047
 10
-13.650486645306488
 20
-11.597453418391554
 10
-13.159543165903344
 20
-11.4841730453589
 10
-12.665999395747622
 20
-11.368805441228083
 10
-12.169949980873051
 20
-11.251524956342157
 10
-11.671195660506296
 20
-11.133004081643074
 10
-11.169990489299746
 20
-11.01287917472033
 10
-10.666359377683682
 20
-10.8905723906657
 10
-10.160262473503433
 20
-10.766218227667574
 10
-9.651968773135774
 20
-10.63989639003528
 10
-9.141184369773656
 20
-10.512105018367718
 10
-8.628123465914799
 20
-10.382614968442768
 10
-8.112786061559206
 20
-10.251426240260436
 10
-7.595251861016201
 20
-10.118269837443936
 10
-7.075481012131129
 20
-9.983280258181665
 10
-6.55366280697144
 20
-9.846806203159733
 10
-6.0296079534696725
 20
-9.708498971692025
 10
-5.503665152311935
 20
-9.568169271711092
 10
-4.9757945513435775
 20
-9.42595160140533
 10
-4.445956298409931
 20
-9.281980458963128
 10
-3.9140557474772653
 20
-9.136081494041425
 10
-3.3805760974200867
 20
-8.988105266727445
 10
-2.84542270220467
 20
-8.837877426678133
 10
-2.3082219507146196
 20
-8.686165110869155
 10
-1.769282691481398
 20
-8.53291352542146
 10
-1.228978535621382
 20
-8.37735553335937
 10
-0.6869209302937951
 20
-8.219814924938728
 10
-0.14320452153235674
 20
-8.060466050502583
 10
0.401821989976818
 20
-7.899119617983495
 10
0.9483877484558323
 20
-7.73556142488374
 10
1.4962237575279298
 20
-7.569871175512647
 10
2.045623924000141
 20
-7.402547010469114
 10
2.5963740453747532
 20
-7.233359785531023
 10
3.148140362690059
 20
-7.061676861911092
 10
3.7011769305984212
 20
-6.887861882019829
 10
4.25550865953014
 20
-6.712492690765451
 10
4.810881494832811
 20
-6.535205645737461
 10
5.367390082540161
 20
-6.3558263965928035
 10
5.92497962877313
 20
-6.1746637918629235
 10
6.483490724913067
 20
-5.991179838794257
 10
7.042923370959957
 20
-5.80537453738681
 10
7.603302477344082
 20
-5.6178257325488055
 10
8.164533398031715
 20
-5.428707774623299
 10
8.726710779056583
 20
-5.2378463132672355
 10
9.289580565766293
 20
-5.044877706070111
 10
9.853222462470182
 20
-4.850070949408708
 10
10.417636469168258
 20
-4.653426043283019
 10
10.982688087672113
 20
-4.454982839847717
 10
11.548257761517762
 20
-4.254337844537632
 10
12.114425195014526
 20
-4.051760053729543
 10
12.681080800404306
 20
-3.847867164486339
 10
13.248453721909195
 20
-3.6424449743103025
 10
13.816155406688441
 20
-3.435169692945589
 10
14.38436020508508
 20
-3.2261359664259306
 10
14.952799120722334
 20
-3.015423499060655
 10
15.521646503943265
 20
-2.8031269368834884
 10
16.090862502593207
 20
-2.5891117817060376
 10
16.66021797245004
 20
-2.3735922360260266
 10
17.229927116011506
 20
-2.1567974440655653
 10
17.799950081122915
 20
-1.9385929076362693
 10
18.36997801925283
 20
-1.71892383285908
 10
18.9401852807443
 20
-1.4978848657677197
 10
19.510517071718283
 20
-1.2757848548936321
 10
20.080948481744496
 20
-1.052045955328596
 10
20.651290218755495
 20
-0.8270168677587197
 10
21.221621987060605
 20
-0.6009665885607868
 10
21.79190393450516
 20
-0.3737606195464044
 10
22.36205635677984
 20
-0.14512996433879177
 10
22.932158958193973
 20
0.08465638068527029
 10
23.502022446680098
 20
0.315249714839666
 10
24.071701616117288
 20
0.5469588866558464
 10
24.64118152478115
 20
0.7793405494139765
 10
25.21034261620768
 20
1.012798197679222
 10
25.77914503824222
 20
1.2474663296399728
 10
26.34766849519409
 20
1.4830759489194518
 10
26.915763547150497
 20
1.7191438566431505
 10
27.483564692299886
 20
1.9557099049657511
 10
28.050817875989797
 20
2.1931377362977367
 10
28.617562950374957
 20
2.4312928524507336
 10
29.183799915455335
 20
2.6701752534247354
 10
29.749568623385603
 20
2.90965044103135
 10
30.314560225634317
 20
3.1497732091496404
 10
30.878949072544533
 20
3.390448911745878
 10
31.442640518082502
 20
3.631503198477004
 10
32.005848764746
 20
3.8727069251209185
 10
32.56814540753954
 20
4.114518380121835
 10
33.129570298617786
 20
4.3568030652913645
 10
33.6904571969425
 20
4.598928341842237
 10
34.25029799320888
 20
4.841621494595449
 10
34.80905283526225
 20
5.085017021739387
 10
35.36709533421901
 20
5.328347786298387
 10
35.92423619801169
 20
5.571265087586328
 10
36.48037081190073
 20
5.8146157668882275
 10
37.03540452985236
 20
6.0582254738610155
 10
37.58920285367821
 20
6.302054356350035
 10
38.14197998587601
 20
6.545873270133173
 10
38.69364128041202
 20
6.789507864867362
 10
39.244226589440906
 20
7.032823642364228
 10
39.793521710464965
 20
7.276049746845876
 10
40.341446939174844
 20
7.519455174689084
 10
40.888121832034564
 20
7.762636431328691
 10
41.433546389044096
 20
8.005593516764685
 10
41.97749146598136
 20
8.248112228499357
 10
42.5202260592231
 20
8.490272270842029
 10
43.06136161592857
 20
8.732397434048544
 10
43.60093798825242
 20
8.974353219930506
 10
44.139154436967964
 20
9.215467137545971
 10
44.67597110992058
 20
9.455873685083336
 10
45.211039306424134
 20
9.695762154610035
 10
45.74466787501005
 20
9.935077752247016
 10
46.276547967146904
 20
10.173875271873337
 10
46.80681408102309
 20
10.41219456564366
 10
47.335411422759556
 20
10.649726785026552
 10
47.86220549416788
 20
10.886432077867328
 10
48.38741049774582
 20
11.122081299943893
 10
48.91063788065257
 20
11.35699824151207
 10
49.43215663926493
 20
11.591262606881198
 10
49.95165792505145
 20
11.824929189930335
 10
50.46938085094012
 20
12.057191001529137
 10
50.985190918742546
 20
12.288008189522948
 10
51.499118011907505
 20
12.518267447351423
 10
52.01071878371521
 20
12.747983716738974
 10
52.52058104777972
 20
12.976160716487799
 10
53.0283959555696
 20
13.20285324047696
 10
53.53400409846621
 20
13.42859928146002
 10
54.037405476469495
 20
13.653398839436967
 10
54.53863994173418
 20
13.877117416219427
 10
55.03790675503357
 20
14.099082520865444
 10
55.534857215681555
 20
14.319483445442467
 10
56.02964076359092
 20
14.538803388824995
 10
56.52198840238486
 20
14.756962646703695
 10
57.011979836372745
 20
14.973692222701786
 10
57.49969476986391
 20
15.1887231204425
 10
57.98505349854898
 20
15.402324336302604
 10
58.46792152423958
 20
15.614456018127433
 10
58.94851304943347
 20
15.82488902169488
 10
59.42655907775385
 20
16.033543642695612
 10
59.902074550925065
 20
16.24086322784946
 10
60.374790472570396
 20
16.44676807284709
 10
60.84519004156432
 20
16.65110873777573
 10
61.312814969462615
 20
16.853456817639927
 10
61.77793425264206
 20
17.05389201674902
 10
62.240508038948
 20
17.252548833291392
 10
62.70018762769428
 20
17.449616559334494
 10
63.157012871035604
 20
17.644960696689935
 10
63.61129261750344
 20
17.838526451478664
 10
64.06266322468721
 20
18.030059769048282
 10
64.51133889508473
 20
18.219331505176683
 10
64.95706557404353
 20
18.40670530227437
 10
65.39993790759739
 20
18.592355510684396
 10
65.83986124971256
 20
18.776107780063704
 10
66.27683560038902
 20
18.957962110412296
 10
66.71084601790244
 20
19.137475155010343
 10
67.14190744397715
 20
19.31509026057767
 10
67.56979073439106
 20
19.490593224616553
 10
67.99455068302325
 20
19.664292895658452
 10
68.41630684633766
 20
19.835785779138185
 10
68.83496457830064
 20
20.004897524712707
 10
69.25040432244812
 20
20.17203162694717
 10
69.66262607878018
 20
20.337188085841596
 10
70.07162984729673
 20
20.500366901395967
 10
70.4772263359304
 20
20.661219372924183
 10
70.87976424536724
 20
20.819556208358787
 10
71.27890981664558
 20
20.976010046487072
 10
71.67456840373168
 20
21.130406536965967
 10
72.06687450481392
 20
21.282785531950157
 10
72.45577332601326
 20
21.432838182908185
 10
72.84109051698661
 20
21.580659135873773
 10
73.2230552219561
 20
21.726462593344646
 10
73.60151800100897
 20
21.869765356446308
 10
73.97639914983588
 20
22.010836421555528
 10
74.34773852059146
 20
22.149541290483928
 10
74.71541655681177
 20
22.28628345779667
 10
75.0795129628061
 20
22.420793927116968
 10
75.43989324038608
 20
22.553032846290172
 10
75.79659724170635
 20
22.68286571712788
 10
76.14971961280068
 20
22.81046688997315
 10
76.49895150513757
 20
22.935891158705036
 10
76.84429291871707
 20
23.05913852332355
 10
77.1859182038822
 20
23.18011433779496
 10
77.52386721278765
 20
23.29868410393088
 10
77.85775139259263
 20
23.415171611987144
 10
78.18770524148549
 20
23.52961671411841
 10
78.5138483159303
 20
23.641615915759523
 10
78.83600626558399
 20
23.751263862944196
 10
79.1540993861372
 20
23.858829552049222
 10
79.46834188008766
 20
23.964083838852474
 10
79.77850460321325
 20
24.06681252085623
 10
80.08464234939308
 20
24.167324446591955
 10
80.3867152664724
 20
24.26575411424801
 10
80.68458885626286
 20
24.362061671669753
 10
80.9783428230738
 20
24.455978122480385
 10
81.26793731475054
 20
24.54763796486831
 10
81.5532926269838
 20
24.6373101952103
 10
81.83444861192817
 20
24.724860315317972
 10
82.11135047570461
 20
24.809979476659873
 10
82.38399821831315
 20
24.89266767923601
 10
82.65236692932352
 20
24.9735027679546
 10
82.91636196270194
 20
25.05231039247259
 10
83.17598331844846
 20
25.129090552789986
 10
83.43127084871774
 20
25.20370875071839
 10
83.68209005532135
 20
25.276125134103136
 10
83.92857543644774
 20
25.346379555098896
 10
84.17051278959917
 20
25.414701157927784
 10
84.40798181908495
 20
25.480820946213015
 10
84.64090282059577
 20
25.54500791633137
 10
84.86948999662934
 20
25.607032924060743
 10
85.09339464649955
 20
25.66708526146857
 10
85.3127114162401
 20
25.725339278897906
 10
85.52734565981731
 20
25.78162062600571
 10
85.73747172757423
 20
25.835834656758237
 10
85.9428754170131
 20
25.888210515377622
 10
86.14377093063167
 20
25.938519057641734
 10
86.33976971558918
 20
25.98708407380642
 10
86.53118062041702
 20
26.033850769992622
 10
86.71773464873846
 20
26.078739441891
 10
86.89956629874187
 20
26.121789941656232
 10
87.07667557042727
 20
26.163002269288313
 10
87.24902261163999
 20
26.202510922975627
 10
87.41651277634627
 20
26.240141552375125
 10
87.57906636023681
 20
26.276163153863582
 10
87.73685771365464
 20
26.310481081407275
 10
87.88971248625673
 20
26.34318998103993
 10
88.03767053019776
 20
26.37415535457316
 10
88.18069199332301
 20
26.403511700195345
 10
88.3188167277872
 20
26.431124519718107
 10
88.45200488143566
 20
26.457128311329825
 10
88.58017674995901
 20
26.481792071407288
 10
88.70327753947822
 20
26.504806951419035
 10
88.8215363942154
 20
26.526387153862803
 10
88.93450996745077
 20
26.546547620462984
 10
89.04264160590407
 20
26.565273409495173
 10
89.1456623131986
 20
26.582484816650055
 10
89.24349238502495
 20
26.598450838304394
 10
89.33630617172626
 20
26.61307682842448
 10
89.42396917511407
 20
26.62632293485563
 10
89.5064016908791
 20
26.638458153974643
 10
89.58381792151904
 20
26.649253341559387
 10
89.65600366453619
 20
26.658937641831987
 10
89.72299877208519
 20
26.66737655660405
 10
89.78472353985674
 20
26.67483908225236
 10
89.84121782000548
 20
26.681190720588518
 10
89.89257625856513
 20
26.68660582195558
 10
89.93852985915893
 20
26.691004682044223
 10
89.97917326782061
 20
26.694561651197503
 10
90.01464098273853
 20
26.69731658157007
 10
90.04466400753593
 20
26.699189768852616
 10
90.06929713609185
 20
26.700490061576563
 10
90.08871471874936
 20
26.701122813708196
 10
90.10256805482236
 20
26.701277317314972
 10
90.11095179034457
 20
26.701127922739936
 10
90.11378622100663
 20
26.700943626359866
  0
ENDSEC
  0
SECTION
  2
OBJECTS
  0
DICTIONARY
  5
A
330
0
100
AcDbDictionary
280
0
281
1
  3
ACAD_COLOR
350
B
  3
ACAD_GROUP
350
C
  3
ACAD_LAYOUT
350
D
  3
ACAD_MATERIAL
350
E
  3
ACAD_MLEADERSTYLE
350
F
  3
ACAD_MLINESTYLE
350
10
  3
ACAD_PLOTSETTINGS
350
11
  3
ACAD_PLOTSTYLENAME
350
12
  3
ACAD_SCALELIST
350
14
  3
ACAD_TABLESTYLE
350
15
  3
ACAD_VISUALSTYLE
350
16
  3
EZDXF_META
350
2D
  0
DICTIONARY
  5
B
330
A
100
AcDbDictionary
280
0
281
1
  0
DICTIONARY
  5
C
330
A
100
AcDbDictionary
280
0
281
1
  0
DICTIONARY
  5
D
330
A
100
AcDbDictionary
280
0
281
1
  3
Model
350
1A
  3
Layout1
350
1E
  0
DICTIONARY
  5
E
330
A
100
AcDbDictionary
280
0
281
1
  3
ByBlock
350
1F
  3
ByLayer
350
20
  3
Global
350
21
  0
DICTIONARY
  5
F
330
A
100
AcDbDictionary
280
0
281
1
  3
Standard
350
2C
  0
DICTIONARY
  5
10
330
A
100
AcDbDictionary
280
0
281
1
  3
Standard
350
22
  0
DICTIONARY
  5
11
330
A
100
AcDbDictionary
280
0
281
1
  0
ACDBDICTIONARYWDFLT
  5
12
330
A
100
AcDbDictionary
280
0
281
1
  3
Normal
350
13
100
AcDbDictionaryWithDefault
340
13
  0
ACDBPLACEHOLDER
  5
13
330
12
  0
DICTIONARY
  5
14
330
A
100
AcDbDictionary
280
0
281
1
  0
DICTIONARY
  5
15
330
A
100
AcDbDictionary
280
0
281
1
  0
DICTIONARY
  5
16
330
A
100
AcDbDictionary
280
0
281
1
  0
LAYOUT
  5
1A
330
D
100
AcDbPlotSettings
  1

  4
A3
  6

 40
7.5
 41
20.0
 42
7.5
 43
20.0
 44
420.0
 45
297.0
 46
0.0
 47
0.0
 48
0.0
 49
0.0
140
0.0
141
0.0
142
1.0
143
1.0
 70
1024
 72
1
 73
0
 74
5
  7

 75
16
 76
0
 77
2
 78
300
147
1.0
148
0.0
149
0.0
100
AcDbLayout
  1
Model
 70
1
 71
0
 10
0.0
 20
0.0
 11
420.0
 21
297.0
 12
0.0
 22
0.0
 32
0.0
 14
1e+20
 24
1e+20
 34
1e+20
 15
-1e+20
 25
-1e+20
 35
-1e+20
146
0.0
 13
0.0
 23
0.0
 33
0.0
 16
1.0
 26
0.0
 36
0.0
 17
0.0
 27
1.0
 37
0.0
 76
1
330
17
  0
LAYOUT
  5
1E
330
D
100
AcDbPlotSettings
  1

  4
A3
  6

 40
7.5
 41
20.0
 42
7.5
 43
20.0
 44
420.0
 45
297.0
 46
0.0
 47
0.0
 48
0.0
 49
0.0
140
0.0
141
0.0
142
1.0
143
1.0
 70
0
 72
1
 73
0
 74
5
  7

 75
16
 76
0
 77
2
 78
300
147
1.0
148
0.0
149
0.0
100
AcDbLayout
  1
Layout1
 70
1
 71
1
 10
0.0
 20
0.0
 11
420.0
 21
297.0
 12
0.0
 22
0.0
 32
0.0
 14
1e+20
 24
1e+20
 34
1e+20
 15
-1e+20
 25
-1e+20
 35
-1e+20
146
0.0
 13
0.0
 23
0.0
 33
0.0
 16
1.0
 26
0.0
 36
0.0
 17
0.0
 27
1.0
 37
0.0
 76
1
330
1B
  0
MATERIAL
  5
1F
102
{ACAD_REACTORS
330
E
102
}
330
E
100
AcDbMaterial
  1
ByBlock
  2

 70
0
 40
1.0
 71
1
 41
1.0
 91
-1023410177
 42
1.0
 72
1
  3

 73
1
 74
1
 75
1
 44
0.5
 73
0
 45
1.0
 46
1.0
 77
1
  4

 78
1
 79
1
170
1
 48
1.0
171
1
  6

172
1
173
1
174
1
140
1.0
141
1.0
175
1
  7

176
1
177
1
178
1
143
1.0
179
1
  8

270
1
271
1
272
1
145
1.0
146
1.0
273
1
  9

274
1
275
1
276
1
 42
1.0
 72
1
  3

 73
1
 74
1
 75
1
 94
63
  0
MATERIAL
  5
20
102
{ACAD_REACTORS
330
E
102
}
330
E
100
AcDbMaterial
  1
ByLayer
  2

 70
0
 40
1.0
 71
1
 41
1.0
 91
-1023410177
 42
1.0
 72
1
  3

 73
1
 74
1
 75
1
 44
0.5
 73
0
 45
1.0
 46
1.0
 77
1
  4

 78
1
 79
1
170
1
 48
1.0
171
1
  6

172
1
173
1
174
1
140
1.0
141
1.0
175
1
  7

176
1
177
1
178
1
143
1.0
179
1
  8

270
1
271
1
272
1
145
1.0
146
1.0
273
1
  9

274
1
275
1
276
1
 42
1.0
 72
1
  3

 73
1
 74
1
 75
1
 94
63
  0
MATERIAL
  5
21
102
{ACAD_REACTORS
330
E
102
}
330
E
100
AcDbMaterial
  1
Global
  2

 70
0
 40
1.0
 71
1
 41
1.0
 91
-1023410177
 42
1.0
 72
1
  3

 73
1
 74
1
 75
1
 44
0.5
 73
0
 45
1.0
 46
1.0
 77
1
  4

 78
1
 79
1
170
1
 48
1.0
171
1
  6

172
1
173
1
174
1
140
1.0
141
1.0
175
1
  7

176
1
177
1
178
1
143
1.0
179
1
  8

270
1
271
1
272
1
145
1.0
146
1.0
273
1
  9

274
1
275
1
276
1
 42
1.0
 72
1
  3

 73
1
 74
1
 75
1
 94
63
  0
MLINESTYLE
  5
22
102
{ACAD_REACTORS
330
10
102
}
330
10
100
AcDbMlineStyle
  2
Standard
 70
0
  3

 62
256
 51
90.0
 52
90.0
 71
2
 49
0.5
 62
256
  6
BYLAYER
 49
-0.5
 62
256
  6
BYLAYER
  0
MLEADERSTYLE
  5
2C
102
{ACAD_REACTORS
330
F
102
}
330
F
100
AcDbMLeaderStyle
179
2
170
2
171
1
172
0
 90
2
 40
0.0
 41
0.0
173
1
 91
-1056964608
 92
-2
290
1
 42
2.0
291
1
 43
8.0
  3
Standard
 44
4.0
300

342
29
174
1
175
1
176
0
178
1
 93
-1056964608
 45
4.0
292
0
297
0
 46
4.0
 94
-1056964608
 47
1.0
 49
1.0
140
1.0
294
1
141
0.0
177
0
142
1.0
295
0
296
0
143
3.75
271
0
272
9
273
9
  0
DICTIONARY
  5
2D
330
A
100
AcDbDictionary
280
1
281
1
  3
CREATED_BY_EZDXF
350
2E
  3
WRITTEN_BY_EZDXF
350
32
  0
DICTIONARYVAR
  5
2E
330
2D
100
DictionaryVariables
280
0
  1
1.3.5 @ 2025-08-20T01:05:13.508140+00:00
  0
DICTIONARYVAR
  5
32
330
2D
100
DictionaryVariables
280
0
  1
1.3.5 @ 2025-08-20T01:05:13.515503+00:00
  0
ENDSEC
  0
EOF
