  0
SECTION
  2
HEADER
  9
$ACADVER
  1
AC1032
  9
$ACADMAINTVER
 90
4
  9
$DWGCODEPAGE
  3
ANSI_1252
  9
$LASTSAVEDBY
  1
ezdxf
  9
$REQUIREDVERSIONS
160
0
  9
$INSBASE
 10
0.0
 20
0.0
 30
0.0
  9
$EXTMIN
 10
1e+20
 20
1e+20
 30
1e+20
  9
$EXTMAX
 10
-1e+20
 20
-1e+20
 30
-1e+20
  9
$LIMMIN
 10
0.0
 20
0.0
  9
$LIMMAX
 10
420.0
 20
297.0
  9
$ORTHOMODE
 70
0
  9
$REGENMODE
 70
1
  9
$FILLMODE
 70
1
  9
$QTEXTMODE
 70
0
  9
$MIRRTEXT
 70
1
  9
$LTSCALE
 40
1.0
  9
$ATTMODE
 70
1
  9
$TEXTSIZE
 40
2.5
  9
$TRACEWID
 40
1.0
  9
$TEXTSTYLE
  7
Standard
  9
$CLAYER
  8
0
  9
$CELTYPE
  6
ByLayer
  9
$CECOLOR
 62
256
  9
$CELTSCALE
 40
1.0
  9
$DISPSILH
 70
0
  9
$DIMSCALE
 40
1.0
  9
$DIMASZ
 40
2.5
  9
$DIMEXO
 40
0.625
  9
$DIMDLI
 40
3.75
  9
$DIMRND
 40
0.0
  9
$DIMDLE
 40
0.0
  9
$DIMEXE
 40
1.25
  9
$DIMTP
 40
0.0
  9
$DIMTM
 40
0.0
  9
$DIMTXT
 40
2.5
  9
$DIMCEN
 40
2.5
  9
$DIMTSZ
 40
0.0
  9
$DIMTOL
 70
0
  9
$DIMLIM
 70
0
  9
$DIMTIH
 70
0
  9
$DIMTOH
 70
0
  9
$DIMSE1
 70
0
  9
$DIMSE2
 70
0
  9
$DIMTAD
 70
1
  9
$DIMZIN
 70
8
  9
$DIMBLK
  1

  9
$DIMASO
 70
1
  9
$DIMSHO
 70
1
  9
$DIMPOST
  1

  9
$DIMAPOST
  1

  9
$DIMALT
 70
0
  9
$DIMALTD
 70
3
  9
$DIMALTF
 40
0.03937007874
  9
$DIMLFAC
 40
1.0
  9
$DIMTOFL
 70
1
  9
$DIMTVP
 40
0.0
  9
$DIMTIX
 70
0
  9
$DIMSOXD
 70
0
  9
$DIMSAH
 70
0
  9
$DIMBLK1
  1

  9
$DIMBLK2
  1

  9
$DIMSTYLE
  2
ISO-25
  9
$DIMCLRD
 70
0
  9
$DIMCLRE
 70
0
  9
$DIMCLRT
 70
0
  9
$DIMTFAC
 40
1.0
  9
$DIMGAP
 40
0.625
  9
$DIMJUST
 70
0
  9
$DIMSD1
 70
0
  9
$DIMSD2
 70
0
  9
$DIMTOLJ
 70
0
  9
$DIMTZIN
 70
8
  9
$DIMALTZ
 70
0
  9
$DIMALTTZ
 70
0
  9
$DIMUPT
 70
0
  9
$DIMDEC
 70
2
  9
$DIMTDEC
 70
2
  9
$DIMALTU
 70
2
  9
$DIMALTTD
 70
3
  9
$DIMTXSTY
  7
Standard
  9
$DIMAUNIT
 70
0
  9
$DIMADEC
 70
0
  9
$DIMALTRND
 40
0.0
  9
$DIMAZIN
 70
0
  9
$DIMDSEP
 70
44
  9
$DIMATFIT
 70
3
  9
$DIMFRAC
 70
0
  9
$DIMLDRBLK
  1

  9
$DIMLUNIT
 70
2
  9
$DIMLWD
 70
-2
  9
$DIMLWE
 70
-2
  9
$DIMTMOVE
 70
0
  9
$DIMFXL
 40
1.0
  9
$DIMFXLON
 70
0
  9
$DIMJOGANG
 40
0.785398163397
  9
$DIMTFILL
 70
0
  9
$DIMTFILLCLR
 70
0
  9
$DIMARCSYM
 70
0
  9
$DIMLTYPE
  6

  9
$DIMLTEX1
  6

  9
$DIMLTEX2
  6

  9
$DIMTXTDIRECTION
 70
0
  9
$LUNITS
 70
2
  9
$LUPREC
 70
4
  9
$SKETCHINC
 40
1.0
  9
$FILLETRAD
 40
10.0
  9
$AUNITS
 70
0
  9
$AUPREC
 70
2
  9
$MENU
  1
.
  9
$ELEVATION
 40
0.0
  9
$PELEVATION
 40
0.0
  9
$THICKNESS
 40
0.0
  9
$LIMCHECK
 70
0
  9
$CHAMFERA
 40
0.0
  9
$CHAMFERB
 40
0.0
  9
$CHAMFERC
 40
0.0
  9
$CHAMFERD
 40
0.0
  9
$SKPOLY
 70
0
  9
$TDCREATE
 40
2460908.0869560186
  9
$TDUCREATE
 40
2458532.153996898
  9
$TDUPDATE
 40
2460908.0869560186
  9
$TDUUPDATE
 40
2458532.1544311
  9
$TDINDWG
 40
0.0
  9
$TDUSRTIMER
 40
0.0
  9
$USRTIMER
 70
1
  9
$ANGBASE
 50
0.0
  9
$ANGDIR
 70
0
  9
$PDMODE
 70
0
  9
$PDSIZE
 40
0.0
  9
$PLINEWID
 40
0.0
  9
$SPLFRAME
 70
0
  9
$SPLINETYPE
 70
6
  9
$SPLINESEGS
 70
8
  9
$HANDSEED
  5
33
  9
$SURFTAB1
 70
6
  9
$SURFTAB2
 70
6
  9
$SURFTYPE
 70
6
  9
$SURFU
 70
6
  9
$SURFV
 70
6
  9
$UCSBASE
  2

  9
$UCSNAME
  2

  9
$UCSORG
 10
0.0
 20
0.0
 30
0.0
  9
$UCSXDIR
 10
1.0
 20
0.0
 30
0.0
  9
$UCSYDIR
 10
0.0
 20
1.0
 30
0.0
  9
$UCSORTHOREF
  2

  9
$UCSORTHOVIEW
 70
0
  9
$UCSORGTOP
 10
0.0
 20
0.0
 30
0.0
  9
$UCSORGBOTTOM
 10
0.0
 20
0.0
 30
0.0
  9
$UCSORGLEFT
 10
0.0
 20
0.0
 30
0.0
  9
$UCSORGRIGHT
 10
0.0
 20
0.0
 30
0.0
  9
$UCSORGFRONT
 10
0.0
 20
0.0
 30
0.0
  9
$UCSORGBACK
 10
0.0
 20
0.0
 30
0.0
  9
$PUCSBASE
  2

  9
$PUCSNAME
  2

  9
$PUCSORG
 10
0.0
 20
0.0
 30
0.0
  9
$PUCSXDIR
 10
1.0
 20
0.0
 30
0.0
  9
$PUCSYDIR
 10
0.0
 20
1.0
 30
0.0
  9
$PUCSORTHOREF
  2

  9
$PUCSORTHOVIEW
 70
0
  9
$PUCSORGTOP
 10
0.0
 20
0.0
 30
0.0
  9
$PUCSORGBOTTOM
 10
0.0
 20
0.0
 30
0.0
  9
$PUCSORGLEFT
 10
0.0
 20
0.0
 30
0.0
  9
$PUCSORGRIGHT
 10
0.0
 20
0.0
 30
0.0
  9
$PUCSORGFRONT
 10
0.0
 20
0.0
 30
0.0
  9
$PUCSORGBACK
 10
0.0
 20
0.0
 30
0.0
  9
$USERI1
 70
0
  9
$USERI2
 70
0
  9
$USERI3
 70
0
  9
$USERI4
 70
0
  9
$USERI5
 70
0
  9
$USERR1
 40
0.0
  9
$USERR2
 40
0.0
  9
$USERR3
 40
0.0
  9
$USERR4
 40
0.0
  9
$USERR5
 40
0.0
  9
$WORLDVIEW
 70
1
  9
$SHADEDGE
 70
3
  9
$SHADEDIF
 70
70
  9
$TILEMODE
 70
1
  9
$MAXACTVP
 70
64
  9
$PINSBASE
 10
0.0
 20
0.0
 30
0.0
  9
$PLIMCHECK
 70
0
  9
$PEXTMIN
 10
1e+20
 20
1e+20
 30
1e+20
  9
$PEXTMAX
 10
-1e+20
 20
-1e+20
 30
-1e+20
  9
$PLIMMIN
 10
0.0
 20
0.0
  9
$PLIMMAX
 10
420.0
 20
297.0
  9
$UNITMODE
 70
0
  9
$VISRETAIN
 70
1
  9
$PLINEGEN
 70
0
  9
$PSLTSCALE
 70
1
  9
$TREEDEPTH
 70
3020
  9
$CMLSTYLE
  2
Standard
  9
$CMLJUST
 70
0
  9
$CMLSCALE
 40
20.0
  9
$PROXYGRAPHICS
 70
1
  9
$MEASUREMENT
 70
1
  9
$CELWEIGHT
370
-1
  9
$ENDCAPS
280
0
  9
$JOINSTYLE
280
0
  9
$LWDISPLAY
290
0
  9
$INSUNITS
 70
6
  9
$HYPERLINKBASE
  1

  9
$STYLESHEET
  1

  9
$XEDIT
290
1
  9
$CEPSNTYPE
380
0
  9
$PSTYLEMODE
290
1
  9
$FINGERPRINTGUID
  2
{2592F5E6-551A-4C73-AF91-7BF95740A605}
  9
$VERSIONGUID
  2
{18C06809-2AA8-40BC-BF0D-FFE40EA7F7A2}
  9
$EXTNAMES
290
1
  9
$PSVPSCALE
 40
0.0
  9
$OLESTARTUP
290
0
  9
$SORTENTS
280
127
  9
$INDEXCTL
280
0
  9
$HIDETEXT
280
1
  9
$XCLIPFRAME
280
1
  9
$HALOGAP
280
0
  9
$OBSCOLOR
 70
257
  9
$OBSLTYPE
280
0
  9
$INTERSECTIONDISPLAY
280
0
  9
$INTERSECTIONCOLOR
 70
257
  9
$DIMASSOC
280
2
  9
$PROJECTNAME
  1

  9
$CAMERADISPLAY
290
0
  9
$LENSLENGTH
 40
50.0
  9
$CAMERAHEIGHT
 40
0.0
  9
$STEPSPERSEC
 40
24.0
  9
$STEPSIZE
 40
100.0
  9
$3DDWFPREC
 40
2.0
  9
$PSOLWIDTH
 40
0.005
  9
$PSOLHEIGHT
 40
0.08
  9
$LOFTANG1
 40
1.570796326795
  9
$LOFTANG2
 40
1.570796326795
  9
$LOFTMAG1
 40
0.0
  9
$LOFTMAG2
 40
0.0
  9
$LOFTPARAM
 70
7
  9
$LOFTNORMALS
280
1
  9
$LATITUDE
 40
37.795
  9
$LONGITUDE
 40
-122.394
  9
$NORTHDIRECTION
 40
0.0
  9
$TIMEZONE
 70
-8000
  9
$LIGHTGLYPHDISPLAY
280
1
  9
$TILEMODELIGHTSYNCH
280
1
  9
$CMATERIAL
347
20
  9
$SOLIDHIST
280
0
  9
$SHOWHIST
280
1
  9
$DWFFRAME
280
2
  9
$DGNFRAME
280
2
  9
$REALWORLDSCALE
290
1
  9
$INTERFERECOLOR
 62
256
  9
$CSHADOW
280
0
  9
$SHADOWPLANELOCATION
 40
0.0
  0
ENDSEC
  0
SECTION
  2
CLASSES
  0
CLASS
  1
ACDBDICTIONARYWDFLT
  2
AcDbDictionaryWithDefault
  3
ObjectDBX Classes
 90
0
 91
0
280
0
281
0
  0
CLASS
  1
SUN
  2
AcDbSun
  3
SCENEOE
 90
1153
 91
0
280
0
281
0
  0
CLASS
  1
VISUALSTYLE
  2
AcDbVisualStyle
  3
ObjectDBX Classes
 90
4095
 91
0
280
0
281
0
  0
CLASS
  1
MATERIAL
  2
AcDbMaterial
  3
ObjectDBX Classes
 90
1153
 91
0
280
0
281
0
  0
CLASS
  1
SCALE
  2
AcDbScale
  3
ObjectDBX Classes
 90
1153
 91
0
280
0
281
0
  0
CLASS
  1
TABLESTYLE
  2
AcDbTableStyle
  3
ObjectDBX Classes
 90
4095
 91
0
280
0
281
0
  0
CLASS
  1
MLEADERSTYLE
  2
AcDbMLeaderStyle
  3
ACDB_MLEADERSTYLE_CLASS
 90
4095
 91
0
280
0
281
0
  0
CLASS
  1
DICTIONARYVAR
  2
AcDbDictionaryVar
  3
ObjectDBX Classes
 90
0
 91
0
280
0
281
0
  0
CLASS
  1
CELLSTYLEMAP
  2
AcDbCellStyleMap
  3
ObjectDBX Classes
 90
1152
 91
0
280
0
281
0
  0
CLASS
  1
MENTALRAYRENDERSETTINGS
  2
AcDbMentalRayRenderSettings
  3
SCENEOE
 90
1024
 91
0
280
0
281
0
  0
CLASS
  1
ACDBDETAILVIEWSTYLE
  2
AcDbDetailViewStyle
  3
ObjectDBX Classes
 90
1025
 91
0
280
0
281
0
  0
CLASS
  1
ACDBSECTIONVIEWSTYLE
  2
AcDbSectionViewStyle
  3
ObjectDBX Classes
 90
1025
 91
0
280
0
281
0
  0
CLASS
  1
RASTERVARIABLES
  2
AcDbRasterVariables
  3
ISM
 90
0
 91
0
280
0
281
0
  0
CLASS
  1
LAYOUT
  2
AcDbLayout
  3
ObjectDBX Classes
 90
0
 91
0
280
0
281
0
  0
CLASS
  1
ACDBPLACEHOLDER
  2
AcDbPlaceHolder
  3
ObjectDBX Classes
 90
0
 91
0
280
0
281
0
  0
ENDSEC
  0
SECTION
  2
TABLES
  0
TABLE
  2
VPORT
  5
8
330
0
100
AcDbSymbolTable
 70
1
  0
VPORT
  5
23
330
8
100
AcDbSymbolTableRecord
100
AcDbViewportTableRecord
  2
*Active
 70
0
 10
0.0
 20
0.0
 11
1.0
 21
1.0
 12
0.0
 22
0.0
 13
0.0
 23
0.0
 14
0.5
 24
0.5
 15
0.5
 25
0.5
 16
0.0
 26
0.0
 36
1.0
 17
0.0
 27
0.0
 37
0.0
 40
1000.0
 41
1.34
 42
50.0
 43
0.0
 44
0.0
 50
0.0
 51
0.0
 71
0
 72
1000
 73
1
 74
3
 75
0
 76
0
 77
0
 78
0
281
0
 65
0
146
0.0
  0
ENDTAB
  0
TABLE
  2
LTYPE
  5
2
330
0
100
AcDbSymbolTable
 70
3
  0
LTYPE
  5
24
330
2
100
AcDbSymbolTableRecord
100
AcDbLinetypeTableRecord
  2
ByBlock
 70
0
  3

 72
65
 73
0
 40
0.0
  0
LTYPE
  5
25
330
2
100
AcDbSymbolTableRecord
100
AcDbLinetypeTableRecord
  2
ByLayer
 70
0
  3

 72
65
 73
0
 40
0.0
  0
LTYPE
  5
26
330
2
100
AcDbSymbolTableRecord
100
AcDbLinetypeTableRecord
  2
Continuous
 70
0
  3

 72
65
 73
0
 40
0.0
  0
ENDTAB
  0
TABLE
  2
LAYER
  5
1
330
0
100
AcDbSymbolTable
 70
2
  0
LAYER
  5
27
330
1
100
AcDbSymbolTableRecord
100
AcDbLayerTableRecord
  2
0
 70
0
 62
7
  6
Continuous
370
-3
390
13
347
21
  0
LAYER
  5
28
330
1
100
AcDbSymbolTableRecord
100
AcDbLayerTableRecord
  2
Defpoints
 70
0
 62
7
  6
Continuous
290
0
370
-3
390
13
347
21
  0
ENDTAB
  0
TABLE
  2
STYLE
  5
5
330
0
100
AcDbSymbolTable
 70
1
  0
STYLE
  5
29
330
5
100
AcDbSymbolTableRecord
100
AcDbTextStyleTableRecord
  2
Standard
 70
0
 40
0.0
 41
1.0
 50
0.0
 71
0
 42
2.5
  3
txt
  4

  0
ENDTAB
  0
TABLE
  2
VIEW
  5
7
330
0
100
AcDbSymbolTable
 70
0
  0
ENDTAB
  0
TABLE
  2
UCS
  5
6
330
0
100
AcDbSymbolTable
 70
0
  0
ENDTAB
  0
TABLE
  2
APPID
  5
3
330
0
100
AcDbSymbolTable
 70
3
  0
APPID
  5
2A
330
3
100
AcDbSymbolTableRecord
100
AcDbRegAppTableRecord
  2
ACAD
 70
0
  0
APPID
  5
30
330
3
100
AcDbSymbolTableRecord
100
AcDbRegAppTableRecord
  2
HATCHBACKGROUNDCOLOR
 70
0
  0
APPID
  5
31
330
3
100
AcDbSymbolTableRecord
100
AcDbRegAppTableRecord
  2
EZDXF
 70
0
  0
ENDTAB
  0
TABLE
  2
DIMSTYLE
  5
4
330
0
100
AcDbSymbolTable
 70
1
100
AcDbDimStyleTable
  0
DIMSTYLE
105
2B
330
4
100
AcDbSymbolTableRecord
100
AcDbDimStyleTableRecord
  2
Standard
 70
0
 40
1.0
 41
2.5
 42
0.625
 43
3.75
 44
1.25
 45
0.0
 46
0.0
 47
0.0
 48
0.0
 49
2.5
140
2.5
141
2.5
142
0.0
143
0.03937007874
144
1.0
145
0.0
146
1.0
147
0.625
148
0.0
 69
0
 70
0
 71
0
 72
0
 73
0
 74
0
 75
0
 76
0
 77
1
 78
8
 79
3
170
0
171
3
172
1
173
0
174
0
175
0
176
0
177
0
178
0
179
2
271
2
272
2
273
2
274
3
275
0
276
0
277
2
278
44
279
0
280
0
281
0
282
0
283
0
284
8
285
0
286
0
288
0
289
3
290
0
371
-2
372
-2
  0
ENDTAB
  0
TABLE
  2
BLOCK_RECORD
  5
9
330
0
100
AcDbSymbolTable
 70
2
  0
BLOCK_RECORD
  5
17
330
9
100
AcDbSymbolTableRecord
100
AcDbBlockTableRecord
  2
*Model_Space
340
1A
 70
0
280
1
281
0
  0
BLOCK_RECORD
  5
1B
330
9
100
AcDbSymbolTableRecord
100
AcDbBlockTableRecord
  2
*Paper_Space
340
1E
 70
0
280
1
281
0
  0
ENDTAB
  0
ENDSEC
  0
SECTION
  2
BLOCKS
  0
BLOCK
  5
18
330
17
100
AcDbEntity
  8
0
100
AcDbBlockBegin
  2
*Model_Space
 70
0
 10
0.0
 20
0.0
 30
0.0
  3
*Model_Space
  1

  0
ENDBLK
  5
19
330
17
100
AcDbEntity
  8
0
100
AcDbBlockEnd
  0
BLOCK
  5
1C
330
1B
100
AcDbEntity
  8
0
100
AcDbBlockBegin
  2
*Paper_Space
 70
0
 10
0.0
 20
0.0
 30
0.0
  3
*Paper_Space
  1

  0
ENDBLK
  5
1D
330
1B
100
AcDbEntity
  8
0
100
AcDbBlockEnd
  0
ENDSEC
  0
SECTION
  2
ENTITIES
  0
LWPOLYLINE
  5
2F
330
17
100
AcDbEntity
  8
0
100
AcDbPolyline
 90
721
 70
1
 10
85.20710817253371
 20
20.54083043567837
 10
85.20447724586458
 20
20.541138158034983
 10
85.19664578176891
 20
20.541806975528186
 10
85.18373641207013
 20
20.542328189004696
 10
85.1655606460683
 20
20.542925490085302
 10
85.14246480720757
 20
20.543278670316777
 10
85.11429106274383
 20
20.543484246531577
 10
85.08094289584459
 20
20.543384385985505
 10
85.04267465608649
 20
20.543040404590307
 10
84.99938982663707
 20
20.542294469601796
 10
84.95089991679632
 20
20.541370272640734
 10
84.89752059205259
 20
20.540074780042232
 10
84.83912467761755
 20
20.538377333850413
 10
84.77568151553533
 20
20.536405108853597
 10
84.70725242171767
 20
20.53390375547515
 10
84.63377608025289
 20
20.531127623291706
 10
84.55541032388507
 20
20.52798019547082
 10
84.47202797782596
 20
20.524430814056622
 10
84.3835983841197
 20
20.52060665383743
 10
84.29031003346634
 20
20.516284023192476
 10
84.19197443516578
 20
20.511686613742526
 10
84.0886529051298
 20
20.506560075910944
 10
83.98053847702327
 20
20.50122007518611
 10
83.86728028443714
 20
20.49544746291209
 10
83.74925985173637
 20
20.48933421295651
 10
83.62622282934427
 20
20.482819009407613
 10
83.49829639204918
 20
20.47593251022127
 10
83.36548053985115
 20
20.468674715397494
 10
83.2277446147942
 20
20.46117279972459
 10
83.08508861687845
 20
20.453426763202568
 10
82.93757386201558
 20
20.445182256254785
 10
82.78513903429385
 20
20.436693628457878
 10
82.62794196645744
 20
20.427864362979403
 10
82.46582482576217
 20
20.418790976651806
 10
82.29884892811985
 20
20.409219119898463
 10
82.12708013240692
 20
20.399433800251856
 10
81.9504877806676
 20
20.389562192500325
 10
81.7691638467695
 20
20.37922277227891
 10
81.58291984001255
 20
20.368639231208373
 10
81.39204076792923
 20
20.35774571041214
 10
81.19624162298707
 20
20.34660806876679
 10
80.9957767547627
 20
20.33528762218406
 10
80.79051898846777
 20
20.323753712708083
 10
80.58059549889062
 20
20.31203699829473
 10
80.36590976919881
 20
20.299979646199816
 10
80.14658897418067
 20
20.28761231437921
 10
79.92244462313609
 20
20.275158694453665
 10
79.69376172359762
 20
20.262552927546626
 10
79.46041310077692
 20
20.24976435570221
 10
79.222398754674
 20
20.236792978920416
 10
78.97971868528886
 20
20.223638797201254
 10
78.73246940945397
 20
20.210459643288907
 10
78.48055441033681
 20
20.197097684439182
 10
78.2240702047699
 20
20.183710753396277
 10
77.96304745070907
 20
20.17017167537187
 10
77.69754746406609
 20
20.156226100789333
 10
77.42763610371755
 20
20.142159037181163
 10
77.15312487896333
 20
20.12819417616813
 10
76.87401378980346
 20
20.114331517750227
 10
76.59052198489387
 20
20.100220195518386
 10
76.3026188062787
 20
20.085987384260914
 10
76.01030425395793
 20
20.071633083977815
 10
75.71348635406397
 20
20.057538819034047
 10
75.41231839637618
 20
20.043068715488015
 10
75.10686623977108
 20
20.02850778087223
 10
74.79709922629289
 20
20.013983189975015
 10
74.48285952319732
 20
19.9995914596288
 10
74.16443213801693
 20
19.98526673095703
 10
73.84172055391929
 20
19.970851171215507
 10
73.51472477090437
 20
19.956344780404233
 10
73.18351064784873
 20
19.942032566055715
 10
72.84820081657594
 20
19.92740582901668
 10
72.50860678638583
 20
19.912688260907895
 10
72.16495224889921
 20
19.898068352429423
 10
71.8172372041161
 20
19.883546103581267
 10
71.46539579315989
 20
19.86883650683091
 10
71.10939735807477
 20
19.854066736966683
 10
70.74949624843728
 20
19.83929810990032
 10
70.38550397354744
 20
19.824754317252587
 10
70.01751250727285
 20
19.81005383465854
 10
69.64564902440178
 20
19.795227320074037
 10
69.26991352493428
 20
19.780274773499094
 10
68.89024469295859
 20
19.765450544510337
 10
68.50664252847471
 20
19.750754633107768
 10
68.11913768943852
 20
19.736059864503066
 10
67.72801518338251
 20
19.72130037981967
 10
67.33299000277417
 20
19.70654203793414
 10
66.93418932240183
 20
19.691815496802356
 10
66.53183229092146
 20
19.67676989001524
 10
66.12576107558878
 20
19.661501734405228
 10
65.7160108773246
 20
19.646423212293158
 10
65.30270887091714
 20
19.631564981634895
 10
64.88566202270158
 20
19.616611376942064
 10
64.46521665612215
 20
19.60124218976145
 10
64.04125013935536
 20
19.58596611924634
 10
63.61379313035703
 20
19.57065599060839
 10
63.18281497117138
 20
19.55543897863594
 10
62.7485041524984
 20
19.540091391708224
 10
62.310860674338144
 20
19.524613229825242
 10
61.86975736190226
 20
19.508973835031114
 10
61.42541790681151
 20
19.493361698025907
 10
60.977715134277595
 20
19.47774616085376
 10
60.526837535000574
 20
19.461903531893892
 10
60.072785108980426
 20
19.44583381114632
 10
59.61568503100549
 20
19.429567656566906
 10
59.15537946833158
 20
19.4132015849881
 10
58.69193427983524
 20
19.397020603942412
 10
58.2253142645958
 20
19.380612531109012
 10
57.755870289022326
 20
19.364196515143842
 10
57.2834706353617
 20
19.347202540981883
 10
56.80808464565801
 20
19.32975778341145
 10
56.32987469562028
 20
19.31230508270925
 10
55.84881012729265
 20
19.294971613663595
 10
55.364728564966114
 20
19.277314535997785
 10
54.87820002370567
 20
19.259202131958684
 10
54.388873637102265
 20
19.240415252890354
 10
53.89691178086486
 20
19.22139673906949
 10
53.402156622249315
 20
19.20224310732854
 10
52.90489316878812
 20
19.18288849879093
 10
52.40508621956057
 20
19.162920731135838
 10
51.90280163344325
 20
19.14262481189577
 10
51.39797809452441
 20
19.122255090647364
 10
50.89076889258342
 20
19.101175693449036
 10
50.381204685576144
 20
19.07925944551246
 10
49.86938653329986
 20
19.057203536690974
 10
49.355090744133804
 20
19.03481947628452
 10
48.83854100969871
 20
19.01229575499315
 10
48.319921277729875
 20
18.988869324086973
 10
47.79920089027137
 20
18.964667358354298
 10
47.2763185314115
 20
18.939944207371767
 10
46.75118222728259
 20
18.91508139550432
 10
46.224168959284796
 20
18.889631539510447
 10
45.695147009665
 20
18.863024624325128
 10
45.164405928920495
 20
18.835734148180936
 10
44.6315380776953
 20
18.80833466910771
 10
44.096793262601224
 20
18.780348145908054
 10
43.56029411546175
 20
18.7512658794287
 10
43.0222336699418
 20
18.721403535158032
 10
42.482326918508804
 20
18.690826971972616
 10
41.94079755278358
 20
18.65972468057252
 10
41.397549055933645
 20
18.627938828213548
 10
40.85276991865911
 20
18.595245723274946
 10
40.306587315748246
 20
18.561676023712582
 10
39.758874072412766
 20
18.527199071570593
 10
39.209884538229275
 20
18.49187618276071
 10
38.659364363621165
 20
18.455646041371196
 10
38.10750658225332
 20
18.41882431289044
 10
37.55434185208161
 20
18.38128382253011
 10
37.00002346288539
 20
18.34238869634863
 10
36.444490098752944
 20
18.30239328392263
 10
35.887965451305
 20
18.261486075952174
 10
35.33016451300907
 20
18.219732931313835
 10
34.77140294935352
 20
18.176940816342725
 10
34.21171141829424
 20
18.13298255625053
 10
33.65112057778712
 20
18.087730976248928
 10
33.089569111920355
 20
18.041440425914548
 10
32.52715353752645
 20
17.994268737991604
 10
31.96387385460535
 20
17.946215912480064
 10
31.399949211813034
 20
17.896931082970877
 10
30.835283092317063
 20
17.846256416719843
 10
30.270033328861594
 20
17.794095396894516
 10
29.704235122367354
 20
17.74086020581572
 10
29.137669324178376
 20
17.686901709892542
 10
28.570651599783066
 20
17.632026875460088
 10
28.00330003804009
 20
17.575187646255948
 10
27.435430691214215
 20
17.517147071010026
 10
26.86726725092618
 20
17.458093640422383
 10
26.298743858299428
 20
17.39774234696052
 10
25.729891171289832
 20
17.33596601583611
 10
25.160871565606396
 20
17.27320748732586
 10
24.591588524416693
 20
17.209308928685573
 10
24.022261196376647
 20
17.143919473506177
 10
23.45276240669794
 20
17.07700846383179
 10
22.883315847001363
 20
17.008764390362487
 10
22.313890859330996
 20
16.93931442788658
 10
21.744579417554498
 20
16.86827705203912
 10
21.175350863715973
 20
16.795779437608417
 10
20.60630171464789
 20
16.721979417338673
 10
20.037212821694276
 20
16.647227857638956
 10
19.468522482167035
 20
16.57082302569112
 10
18.900230696066142
 20
16.492764921495155
 10
18.332306805435746
 20
16.41318071983938
 10
17.764720152319974
 20
16.332197595512124
 10
17.197628569463006
 20
16.24971903168094
 10
16.630874224120642
 20
16.165841545178253
 10
16.06474212382542
 20
16.080499277127515
 10
15.499293584489056
 20
15.993437877952084
 10
14.934497948155702
 20
15.90478452244028
 10
14.370324556869457
 20
15.81466638538041
 10
13.806804068586228
 20
15.722956291984172
 10
13.244252148794363
 20
15.629461208586669
 10
12.682480306793824
 20
15.534404826808666
 10
12.121554401461172
 20
15.43807215418267
 10
11.561500547787452
 20
15.339796658811224
 10
11.002511779437551
 20
15.2398940061827
 10
10.444496122543864
 20
15.138745720662063
 10
9.887418376185673
 20
15.03593961992848
 10
9.331594205851381
 20
14.931282670317069
 10
8.776962295629225
 20
14.825029221404458
 10
8.223456786642643
 20
14.716894265658144
 10
7.671270712556518
 20
14.607193468566507
 10
7.12033821449429
 20
14.495641822597042
 10
6.570882984076701
 20
14.382427818449809
 10
6.022558697859513
 20
14.267871664578019
 10
5.475681021331095
 20
14.151780327316775
 10
4.93037258631495
 20
14.033645107512818
 10
4.386602734855204
 20
13.91359317995446
 10
3.844406667872555
 20
13.792036726962529
 10
3.3038150433228695
 20
13.668848573748706
 10
2.764858519162021
 20
13.543901545524676
 10
2.227664270178338
 20
13.417226300246313
 10
1.692043805671751
 20
13.289046529534378
 10
1.1580629845188124
 20
13.159647240921371
 10
0.6259716133313585
 20
13.02855039320991
 10
0.09583100802113674
 20
12.895501636823354
 10
-0.4324201473236207
 20
12.760755321338337
 10
-0.9586853358704552
 20
12.624469279499053
 10
-1.4830917324076929
 20
12.486612853349627
 10
-2.005542820102881
 20
12.347343875634246
 10
-2.5259420821235876
 20
12.206820179097107
 10
-3.044294061434616
 20
12.064502406629067
 10
-3.5604715832476668
 20
11.920421216185996
 10
-4.0745007625537895
 20
11.775243139665356
 10
-4.58644745822955
 20
11.62868316953464
 10
-5.096026662742435
 20
11.48067544691728
 10
-5.603492725669089
 20
11.33115865590152
 10
-6.108591297432869
 20
11.18019411239912
 10
-6.611256519157214
 20
11.02806682394258
 10
-7.111773398374625
 20
10.874842649408473
 10
-7.609861470517418
 20
10.719916372811083
 10
-8.105450333744205
 20
10.564112358792064
 10
-8.598728478755033
 20
10.40765429897218
 10
-9.089639132603008
 20
10.249748486665649
 10
-9.57780077092316
 20
10.090486895740092
 10
-10.06343254237143
 20
9.930220392604587
 10
-10.546565104903689
 20
9.769076152047457
 10
-11.027137142608186
 20
9.606799824492066
 10
-11.504924963864172
 20
9.443579900638472
 10
-11.98018291824827
 20
9.279355064574935
 10
-12.45274863005148
 20
9.114568156578152
 10
-12.922560783362048
 20
8.948964827071487
 10
-13.389588720224099
 20
8.782417901266623
 10
-13.853863098593502
 20
8.615054553951882
 10
-14.315318059593698
 20
8.447159792659765
 10
-14.774080778012996
 20
8.278702959434407
 10
-15.229835588363018
 20
8.109491020610912
 10
-15.682582490643766
 20
7.939523976189288
 10
-16.132418001687675
 20
7.768643993425338
 10
-16.579245604662315
 20
7.597008905063253
 10
-17.023157273435295
 20
7.4250002354679925
 10
-17.464056491174173
 20
7.252775817383741
 10
-17.901820626055464
 20
7.079826951657231
 10
-18.33657685286747
 20
6.90612298033259
 10
-18.76791298928938
 20
6.731628702489122
 10
-19.196175358765444
 20
6.5566643265800275
 10
-19.621394619251532
 20
6.381357027393628
 10
-20.043316421171017
 20
6.205768120841672
 10
-20.461910106568016
 20
6.02977043213584
 10
-20.877210876363232
 20
5.852951778955305
 10
-21.289214187591842
 20
5.675851518409214
 10
-21.698012014121474
 20
5.498851174862516
 10
-22.103323891384434
 20
5.321345532329498
 10
-22.50527699416903
 20
5.1433039328542876
 10
-22.90367828881039
 20
4.965042041925269
 10
-23.298654950096825
 20
4.786529201586565
 10
-23.69023763598421
 20
4.6078925866264955
 10
-24.078207197816607
 20
4.428781330635979
 10
-24.46262495150577
 20
4.249449783191655
 10
-24.843490897051684
 20
4.069897944293521
 10
-25.220927666277852
 20
3.8906345130948443
 10
-25.594650251651775
 20
3.711593630719059
 10
-25.964821028882454
 20
3.5323324568894643
 10
-26.331251507269826
 20
3.3526272999852975
 10
-26.693937143849073
 20
3.173017517115705
 10
-27.053066429320257
 20
2.993726799901445
 10
-27.408389557071565
 20
2.8142771071451236
 10
-27.75984066822643
 20
2.6349534463792477
 10
-28.10770477031736
 20
2.455821676480391
 10
-28.45172751376772
 20
2.276943113360297
 10
-28.791816924709888
 20
2.0979362326540136
 10
-29.128064977011483
 20
1.919182558726498
 10
-29.460502328628383
 20
1.7408092663660608
 10
-29.789098321604715
 20
1.5626891807843888
 10
-30.113725781152166
 20
1.3848529599373556
 10
-30.43435404931484
 20
1.2071734290366414
 10
-30.751140958836956
 20
1.0297471049146951
 10
-31.063832160141867
 20
0.8526353034832579
 10
-31.37248896914132
 20
0.6760923743189687
 10
-31.677304419500203
 20
0.4998026519334439
 10
-31.977896986853562
 20
0.32385811019430516
 10
-32.274363188033846
 20
0.1481009163573626
 10
-32.56682565486454
 20
-0.02696023042411547
 10
-32.85528438734566
 20
-0.20132533015012993
 10
-33.13955089477714
 20
-0.3752180744414418
 10
-33.41959451920308
 20
-0.548765638086365
 10
-33.69551177745595
 20
-0.7221258538290946
 10
-33.96720160973848
 20
-0.8946015318162942
 10
-34.23476053288311
 20
-1.066350504792154
 10
-34.498127230978085
 20
-1.2376271223333122
 10
-34.75717452923511
 20
-1.4084007264838914
 10
-35.01196374356591
 20
-1.578416967667258
 10
-35.262433558058746
 20
-1.7479301954600468
 10
-35.5086146306695
 20
-1.9168132350739417
 10
-35.75053761935403
 20
-2.084938911720623
 10
-35.98801403341227
 20
-2.2525309170208505
 10
-36.22113584671186
 20
-2.419207726609676
 10
-36.449907602217614
 20
-2.5855086975962402
 10
-36.6743247569647
 20
-2.7508944728714018
 10
-36.89435665299726
 20
-2.9154922272234747
 10
-37.1099726323594
 20
-3.0794291354407815
 10
-37.32104552026282
 20
-3.24267453956744
 10
-37.527733149451706
 20
-3.405131922771015
 10
-37.73000031900538
 20
-3.5663891027306787
 10
-37.927785713012064
 20
-3.7267004290230634
 10
-38.12108933147177
 20
-3.8860659016481693
 10
-38.310069007128696
 20
-4.0443890037735555
 10
-38.49443973245033
 20
-4.20173559427579
 10
-38.674389998136725
 20
-4.357881981534111
 10
-38.849853945311324
 20
-4.512543158016009
 10
-39.02095874876245
 20
-4.6657497816773645
 10
-39.18751591779003
 20
-4.817725544138931
 10
-39.349683285138255
 20
-4.968373928568268
 10
-39.50720650123049
 20
-5.117633619053627
 10
-39.66040123155512
 20
-5.265311581930125
 10
-39.80904378449138
 20
-5.41121932649769
 10
-39.95320001891585
 20
-5.555641860288834
 10
-40.092869934828514
 20
-5.6985791833035595
 10
-40.22805353222939
 20
-5.840031295541863
 10
-40.35868495224189
 20
-5.979713189471235
 10
-40.484764194866024
 20
-6.117624865091679
 10
-40.606326461022505
 20
-6.25417850472402
 10
-40.723336549790595
 20
-6.38896192604743
 10
-40.83567182934683
 20
-6.522483828215181
 10
-40.94345493151471
 20
-6.654235512074003
 10
-41.046563224470724
 20
-6.784725676777163
 10
-41.14505802412661
 20
-6.913699972748027
 10
-41.238939330482395
 20
-7.041158399986598
 10
-41.32804931079387
 20
-7.167197475325317
 10
-41.41270363054942
 20
-7.291624165099295
 10
-41.492428791516474
 20
-7.4147280198058665
 10
-41.56766763397173
 20
-7.536346663736017
 10
-41.63813515038269
 20
-7.656545955766315
 10
-41.70392331461695
 20
-7.774944371531809
 10
-41.7650979855511
 20
-7.891826918565008
 10
-41.8215626463527
 20
-8.007035764121722
 10
-41.87343992884523
 20
-8.12006220904868
 10
-41.92076503394941
 20
-8.231318435666708
 10
-41.963472102788636
 20
-8.340519436443298
 10
-42.00162245127467
 20
-8.447410861801814
 10
-42.035338711231034
 20
-8.55148401258899
 10
-42.0646208826577
 20
-8.652738888804825
 10
-42.08965745625474
 20
-8.75095179882856
 10
-42.110347372224886
 20
-8.845425552806857
 10
-42.12694043717997
 20
-8.935682109542322
 10
-42.13987040546703
 20
-9.02048037910766
 10
-42.14909753320057
 20
-9.0988688220729
 10
-42.15523952246287
 20
-9.168843299780841
 10
-42.15891407533625
 20
-9.228399673574284
 10
-42.16060263318505
 20
-9.274424432621862
 10
-42.161198819694434
 20
-9.303768865171524
 10
-41.96768014468079
 20
-10.11712543846845
 10
-41.96370026795318
 20
-10.12302885151102
 10
-41.95179129572624
 20
-10.14061191585041
 10
-41.93207585982344
 20
-10.169365932333353
 10
-41.90390560020661
 20
-10.211422214405367
 10
-41.86689104937905
 20
-10.269512748532861
 10
-41.82249924625786
 20
-10.336993787767463
 10
-41.77155341268686
 20
-10.409892255715471
 10
-41.714706451669024
 20
-10.48661619604051
 10
-41.65247500548941
 20
-10.564464280232036
 10
-41.585007820962545
 20
-10.642261277239328
 10
-41.51271253744445
 20
-10.719432629032546
 10
-41.4355846119703
 20
-10.795438978502544
 10
-41.3537466763636
 20
-10.86977162649606
 10
-41.26726004653609
 20
-10.942176223436453
 10
-41.17612472248776
 20
-11.012652769323724
 10
-41.08049853696282
 20
-11.081104747325432
 10
-40.980315631084686
 20
-11.147247149909065
 10
-40.8755453468975
 20
-11.211207151862945
 10
-40.766345517145446
 20
-11.272888236354627
 10
-40.65252765112845
 20
-11.332514095004871
 10
-40.53412240680239
 20
-11.389957553025358
 10
-40.41144544965566
 20
-11.445025576751203
 10
-40.284023281455674
 20
-11.498007716679739
 10
-40.152268084523264
 20
-11.548868771890268
 10
-40.01589485132591
 20
-11.597674601259355
 10
-39.87506141460782
 20
-11.644328687954564
 10
-39.72979843232486
 20
-11.688703857187573
 10
-39.580013930609404
 20
-11.731181633323335
 10
-39.42576922537321
 20
-11.771507666785217
 10
-39.266941684792776
 20
-11.810190656726487
 10
-39.10362328273571
 20
-11.846849078782192
 10
-38.93587987807861
 20
-11.881767940484844
 10
-38.76358429603314
 20
-11.914916583878565
 10
-38.58667522068756
 20
-11.94654935853999
 10
-38.40531048478605
 20
-11.976569747636677
 10
-38.219459430372744
 20
-12.005104925956946
 10
-38.029122057447644
 20
-12.032154893500792
 10
-37.8340792173548
 20
-12.058070516677292
 10
-37.63461591762673
 20
-12.082785936609882
 10
-37.43050846664268
 20
-12.106112662598495
 10
-37.222011213979265
 20
-12.128112010554878
 10
-37.00893566893643
 20
-12.149007672099788
 10
-36.7914090063025
 20
-12.16883030518911
 10
-36.56933470924503
 20
-12.18742207707864
 10
-36.34290126846407
 20
-12.204559296147625
 10
-36.111950851215425
 20
-12.220338479228506
 10
-35.87670714911989
 20
-12.234948117021348
 10
-35.63704298738912
 20
-12.248357551570278
 10
-35.39295836602312
 20
-12.260566782875296
 10
-35.14454525888952
 20
-12.271194286571452
 10
-34.891930840776624
 20
-12.280270720614617
 10
-34.63498793689613
 20
-12.287765427048916
 10
-34.3737824061246
 20
-12.29396341340686
 10
-34.10831424846203
 20
-12.298864679688451
 10
-33.838706095731915
 20
-12.301960526740416
 10
-33.56502380681083
 20
-12.303535962095266
 10
-33.287170864866326
 20
-12.30343315300881
 10
-33.00511661194255
 20
-12.30177927426936
 10
-32.71898822282778
 20
-12.298604983832796
 10
-32.42881635547793
 20
-12.293783106910801
 10
-32.13457035193709
 20
-12.28744081829169
 10
-31.836250212205293
 20
-12.279578117975461
 10
-31.5338865942384
 20
-12.270067831173801
 10
-31.227576014868852
 20
-12.2590677906309
 10
-30.917318474096643
 20
-12.246577996346756
 10
-30.60301745508934
 20
-12.23244061557718
 10
-30.28486599151183
 20
-12.216971313810554
 10
-29.962767566531657
 20
-12.200012258302685
 10
-29.636691522192955
 20
-12.181690623841892
 10
-29.30679569123993
 20
-12.161909893595734
 10
-28.97317204754018
 20
-12.140288543199256
 10
-28.635728617226093
 20
-12.117208097017407
 10
-28.29427690959761
 20
-12.092892246670953
 10
-27.949229106975544
 20
-12.0673057912392
 10
-27.600392175695013
 20
-12.040133065233759
 10
-27.247796773711894
 20
-12.011246893866318
 10
-26.89163593469108
 20
-11.980962942625256
 10
-26.531751825888364
 20
-11.949377728343018
 10
-26.168205763215507
 20
-11.916236901442971
 10
-25.801124921460822
 20
-11.881571119880988
 10
-25.430539958580177
 20
-11.845253208868751
 10
-25.056358900705963
 20
-11.80766469277121
 10
-24.678643063749913
 20
-11.768551222011734
 10
-24.29733113180029
 20
-11.728167146166959
 10
-23.912769428301342
 20
-11.686192256783674
 10
-23.52467294572057
 20
-11.642692412738455
 10
-23.133168858846293
 20
-11.597698271987174
 10
-22.738353684510937
 20
-11.551367667274022
 10
-22.34016156383795
 20
-11.50341559106649
 10
-21.938658355703893
 20
-11.454127050897089
 10
-21.53400189285296
 20
-11.403405529933371
 10
-21.125999141620262
 20
-11.35093536268696
 10
-20.71490445158244
 20
-11.2967778650696
 10
-20.30062584887186
 20
-11.241314561446242
 10
-19.883163333488536
 20
-11.184545451816884
 10
-19.46251690543246
 20
-11.126470536181534
 10
-19.03890571335957
 20
-11.06673894813111
 10
-18.612391073181616
 20
-11.005096338088975
 10
-18.18272317828679
 20
-10.942020747252528
 10
-17.750156378251713
 20
-10.877573491533514
 10
-17.314624814199828
 20
-10.811469563399427
 10
-16.8763169768312
 20
-10.743485271229506
 10
-16.435140892278202
 20
-10.674002139388701
 10
-15.99116241941741
 20
-10.60330517540952
 10
-15.544315699372245
 20
-10.53110937175946
 10
-15.094692706010335
 20
-10.457033204073563
 10
-14.64248647299656
 20
-10.381392337840216
 10
-14.187666342375056
 20
-10.304313947847731
 10
-13.729977964569185
 20
-10.225736718184367
 10
-13.269833521899768
 20
-10.145625447929422
 10
-12.807167155490246
 20
-10.063695129550396
 10
-12.341978865340607
 20
-9.979945763047281
 10
-11.8743651682833
 20
-9.894535181164269
 10
-11.404172774538955
 20
-9.808099257842951
 10
-10.931620832763508
 20
-9.720287126674245
 10
-10.456704799992146
 20
-9.63055943054901
 10
-9.979394018268989
 20
-9.539043344255566
 10
-9.499942837170668
 20
-9.445800183705654
 10
-9.018101450085377
 20
-9.351307990096677
 10
-8.534058347713176
 20
-9.255343071807868
 10
-8.047813530054064
 20
-9.157905428839229
 10
-7.5594283130197955
 20
-9.058740711614126
 10
-7.068872038654499
 20
-8.957976094920882
 10
-6.576337740623049
 20
-8.85592724424787
 10
-6.081632385260569
 20
-8.752278494106713
 10
-5.585071638055434
 20
-8.646836810832522
 10
-5.086624841051769
 20
-8.539729369213614
 10
-4.586261336293709
 20
-8.431083344038308
 10
-4.0838846069488035
 20
-8.320740902562413
 10
-3.579937493293771
 20
-8.208539669076922
 10
-3.0743234784961375
 20
-8.094321810837632
 10
-2.5667314400323593
 20
-7.978819718618579
 10
-2.0574463854349423
 20
-7.861967533543195
 10
-1.5467794372274453
 20
-7.743032864837447
 10
-1.0343842719656193
 20
-7.6223359209545425
 10
-0.520357406481897
 20
-7.50003453463867
 10
-0.005014506264672763
 20
-7.375935672224944
 10
0.5118681203068257
 20
-7.2498508430132995
 10
1.030036123655959
 20
-7.121841362915484
 10
1.5497393103945363
 20
-6.992385273128894
 10
2.0707891898224893
 20
-6.861258882032767
 10
2.5929052973721487
 20
-6.727856973641393
 10
3.1163067816994348
 20
-6.592530414363847
 10
3.6409890998395396
 20
-6.455818561309274
 10
4.166733103136514
 20
-6.317370548068597
 10
4.693635308422809
 20
-6.177028541897623
 10
5.22162985682184
 20
-6.035077550328862
 10
5.750594116510132
 20
-5.891008874209044
 10
6.280528087487682
 20
-5.744822513538166
 10
6.81142722678965
 20
-5.59705782542538
 10
7.34319501758361
 20
-5.44787264261487
 10
7.875927976702007
 20
-5.2971091323624435
 10
8.40940695548889
 20
-5.144416428259029
 10
8.94369326985601
 20
-4.990048879881256
 10
9.478786919803373
 20
-4.834006487229128
 10
10.014560730542657
 20
-4.676319908258516
 10
10.550922728206242
 20
-4.516607618604469
 10
11.08793422870587
 20
-4.355123967843624
 10
11.625463514288416
 20
-4.192438971040994
 10
12.16373427657462
 20
-4.028364137496521
 10
12.70240019212025
 20
-3.862579258756993
 10
13.241619093669478
 20
-3.695180851654856
 10
13.78113663164568
 20
-3.5262302321018604
 10
14.321110638793037
 20
-3.355823916930448
 10
14.861510457155692
 20
-3.1838347313523
 10
15.402112395112864
 20
-3.010451166067485
 10
15.943104943364643
 20
-2.8358969126967595
 10
16.48445744395513
 20
-2.660044796451809
 10
17.025884889351826
 20
-2.4828289584560657
 10
17.567545112298923
 20
-2.304345915541969
 10
18.109372253919865
 20
-2.124880675242028
 10
18.651370857179447
 20
-1.9438938804471055
 10
19.19334788841281
 20
-1.7617011966455745
 10
19.73536466353167
 20
-1.5785569734140785
 10
20.277390524580188
 20
-1.394334035964294
 10
20.819364155646582
 20
-1.2087780347195924
 10
21.361346872642635
 20
-1.022143319256601
 10
21.903145641903432
 20
-0.8347455550637087
 10
22.44482632230555
 20
-0.6462997346084063
 10
22.986353712928306
 20
-0.45721804021151286
 10
23.52763583990407
 20
-0.26711894750808346
 10
24.068642045276956
 20
-0.07587528170980075
 10
24.609433644958735
 20
0.11625860760670488
 10
25.149848263240365
 20
0.3088398801647256
 10
25.690013074910198
 20
0.5018991939201463
 10
26.229708931312274
 20
0.6957874152820375
 10
26.768966490402477
 20
0.8903773694620853
 10
27.30778575218078
 20
1.0856690564602847
 10
27.846197374603104
 20
1.281535301488326
 10
28.383916350136904
 20
1.478041963422773
 10
28.92110051152638
 20
1.6750925254311815
 10
29.45765334193909
 20
1.8725291547693637
 10
29.9937633320751
 20
2.070128159816558
 10
30.529053500534275
 20
2.268336923814283
 10
31.0635545052725
 20
2.467028271974225
 10
31.59754681085744
 20
2.6655969883106674
 10
32.13059211997725
 20
2.8647448056417733
 10
32.66265977467603
 20
3.0645988987558512
 10
33.194060897477364
 20
3.2644268768788787
 10
33.72460245471633
 20
3.463913074522468
 10
34.25422767344604
 20
3.6638511983723996
 10
34.782840036834024
 20
3.864083415684478
 10
35.310312370091964
 20
4.064579068502835
 10
35.83683316391998
 20
4.265114465206709
 10
36.36230590148552
 20
4.465531773051901
 10
36.886761240744576
 20
4.665703817250106
 10
37.410010690997
 20
4.865854289422076
 10
37.93199293633106
 20
5.066237539144446
 10
38.45279995061442
 20
5.266472042052269
 10
38.97243173384704
 20
5.466557798145538
 10
39.49066459440818
 20
5.666306316724194
 10
40.00775288187444
 20
5.865778913699979
 10
40.523350272801615
 20
6.0652957975261055
 10
41.037487425145535
 20
6.264729793414247
 10
41.55031762868558
 20
6.46344502742282
 10
42.061810225465905
 20
6.661568674340148
 10
42.571649549998114
 20
6.8592937678311126
 10
43.080120609814685
 20
7.05655444901914
 10
43.586938397383136
 20
7.253416576780804
 10
44.09223008749178
 20
7.4499108090719774
 10
44.595929821264065
 20
7.645752138360155
 10
45.09791042391164
 20
7.840909906689459
 10
45.5983603861346
 20
8.035160422439132
 10
46.09693338448866
 20
8.228823894062371
 10
46.59388376855048
 20
8.421961637470934
 10
47.08892653078753
 20
8.614639511541382
 10
47.582245618935076
 20
8.806094467543815
 10
48.073713858204805
 20
8.996295847522358
 10
48.563401650438074
 20
9.186068016118663
 10
49.0508968133141
 20
9.375446174253426
 10
49.53669896005647
 20
9.563474239531857
 10
50.02052308313268
 20
9.75021807083052
 10
50.50224655071927
 20
9.936186367302694
 10
50.981869362816184
 20
10.121379128948366
 10
51.45942217737936
 20
10.305669180979233
 10
51.935058284188116
 20
10.488420649453698
 10
52.4084620177541
 20
10.66982656803665
 10
52.87979575378632
 20
10.850329777004792
 10
53.34880514270812
 20
11.029868960446372
 10
53.81555150043127
 20
11.208189768784758
 10
54.28009614286752
 20
11.385037852443318
 10
54.742377754105114
 20
11.560667560998679
 10
55.20226915935572
 20
11.73504823649497
 10
55.65995884931943
 20
11.907956187311436
 10
56.115192474419594
 20
12.079330097536324
 10
56.5680052355769
 20
12.249582149490454
 10
57.01814278321473
 20
12.41865102726209
 10
57.466047957609774
 20
12.586374355142208
 10
57.91127337552052
 20
12.752375151730691
 10
58.354073386523616
 20
12.916714732939274
 10
58.79441733266316
 20
13.079520273556282
 10
59.23198954845075
 20
13.240984807246596
 10
59.66682069184232
 20
13.400981159221903
 10
60.09919577037032
 20
13.55944347060563
 10
60.52876391762574
 20
13.716152592741844
 10
60.95571362430857
 20
13.870884834009779
 10
61.37982574176293
 20
14.023991060818512
 10
61.80119678682123
 20
14.175629105912238
 10
62.21973024265103
 20
14.325641136546762
 10
62.635426109252336
 20
14.474027152722087
 10
63.048249185704464
 20
14.62037497211739
 10
63.45823467292809
 20
14.765096777053488
 10
63.865158879302456
 20
14.908004076830318
 10
64.26908766370416
 20
15.049381878980398
 10
64.67011300000077
 20
15.188848659138765
 10
65.0681383713599
 20
15.326246584561238
 10
65.46307180391388
 20
15.461957179612753
 10
65.85491329766275
 20
15.595980444293328
 10
66.24366285260646
 20
15.728316378602948
 10
66.62912743508019
 20
15.858649317053244
 10
67.01162271057225
 20
15.986786225979314
 10
67.39086821451505
 20
16.11333232136689
 10
67.76676743007603
 20
16.238129770471758
 10
68.13944753204359
 20
16.36120923124981
 10
68.50884266154114
 20
16.482285696168532
 10
68.8747949858245
 20
16.601455682060365
 10
69.23752819651438
 20
16.718907679625374
 10
69.5968799179018
 20
16.83419884858686
 10
69.95278883407504
 20
16.94758353852146
 10
70.30528560298991
 20
17.05893457464085
 10
70.65427825077887
 20
17.16863348131
 10
70.9998280933536
 20
17.276425908952245
 10
71.3418079559258
 20
17.382281199611732
 10
71.68024849645138
 20
17.48607217850015
 10
72.01524623176272
 20
17.587956678361667
 10
72.34651615432736
 20
17.688000558072876
 10
72.67405826414529
 20
17.78620381763376
 10
72.9980303939607
 20
17.882469940211884
 10
73.31846320172947
 20
17.976671751018927
 10
73.6350103640073
 20
18.069129458508097
 10
73.94779905558258
 20
18.15987372063526
 10
74.25692125032285
 20
18.24852301303547
 10
74.56221911548398
 20
18.335173852541168
 10
74.86363133515422
 20
18.420080588728997
 10
75.16134640003362
 20
18.503019529978186
 10
75.45514061850139
 20
18.583802185588674
 10
75.74507984943416
 20
18.662713563092968
 10
76.031133434876
 20
18.739880837279387
 10
76.31317420003862
 20
18.815273350192058
 10
76.59126346083379
 20
18.88863675225434
 10
76.86537055930559
 20
18.960098218254554
 10
77.13543417954229
 20
19.029912097769337
 10
77.4014849794998
 20
19.097951216010376
 10
77.66345710030149
 20
19.16393056544515
 10
77.92135054194738
 20
19.227850146073663
 10
78.1751698474023
 20
19.290249315005063
 10
78.4248184998338
 20
19.350970239495155
 10
78.67029649924191
 20
19.41001291954394
 10
78.91163450358248
 20
19.46725018036311
 10
79.14870533806716
 20
19.52265136399677
 10
79.38163617748432
 20
19.576247128400805
 10
79.61023853113387
 20
19.628261165195983
 10
79.83457371492757
 20
19.678439124805656
 10
80.05458041295367
 20
19.727035356806475
 10
80.27044711591223
 20
19.773826169577667
 10
80.48185815831482
 20
19.819004596784108
 10
80.68891005699396
 20
19.862728471170012
 10
80.89150629511721
 20
19.904839959991182
 10
81.08980470542872
 20
19.945242546415166
 10
81.2836167972284
 20
19.984159922062727
 10
81.47313106121635
 20
20.021368395313107
 10
81.65800117394834
 20
20.05718817461951
 10
81.83851214295683
 20
20.091553401105372
 10
82.0144096186652
 20
20.12440275885893
 10
82.18582077586179
 20
20.155766905836074
 10
82.3527456145466
 20
20.1856458420368
 10
82.51515347676367
 20
20.21416674224941
 10
82.67294784568068
 20
20.241171773729736
 10
82.82606740538584
 20
20.2669152860544
 10
82.97466998862329
 20
20.291300762390954
 10
83.1185977626489
 20
20.314424719571853
 10
83.2578813854185
 20
20.336159982808763
 10
83.39249019897626
 20
20.356633726890028
 10
83.522454861278
 20
20.375718777027306
 10
83.64774471436792
 20
20.39354230800893
 10
83.76829844233421
 20
20.410358669411522
 10
83.8840501863003
 20
20.42588285370258
 10
83.995223637887
 20
20.440303351582166
 10
84.10140661477345
 20
20.453655363970984
 10
84.20301129928048
 20
20.46590368994833
 10
84.29978334183144
 20
20.476987013602454
 10
84.39166142651459
 20
20.48715968451
 10
84.47880338607415
 20
20.496325185838515
 10
84.5610820457218
 20
20.50445285963214
 10
84.63843608954575
 20
20.51179705546749
 10
84.71105400824607
 20
20.518134081723815
 10
84.77874731112274
 20
20.523687630021875
 10
84.8415466561316
 20
20.528330525573352
 10
84.89939072736091
 20
20.53231711795488
 10
84.95231018276652
 20
20.535520232378143
 10
85.00040153918093
 20
20.53809770158733
 10
85.04341044702747
 20
20.539988209670696
 10
85.08143342313858
 20
20.54134958937243
 10
85.11459764230257
 20
20.542212498648407
 10
85.14264875494281
 20
20.542515621586872
 10
85.16565261993591
 20
20.542543965720352
 10
85.18376707002602
 20
20.54220101421638
 10
85.19667643972478
 20
20.541679800739868
 10
85.20447724586458
 20
20.541138158034983
 10
85.20710817253371
 20
20.54083043567837
  0
ENDSEC
  0
SECTION
  2
OBJECTS
  0
DICTIONARY
  5
A
330
0
100
AcDbDictionary
280
0
281
1
  3
ACAD_COLOR
350
B
  3
ACAD_GROUP
350
C
  3
ACAD_LAYOUT
350
D
  3
ACAD_MATERIAL
350
E
  3
ACAD_MLEADERSTYLE
350
F
  3
ACAD_MLINESTYLE
350
10
  3
ACAD_PLOTSETTINGS
350
11
  3
ACAD_PLOTSTYLENAME
350
12
  3
ACAD_SCALELIST
350
14
  3
ACAD_TABLESTYLE
350
15
  3
ACAD_VISUALSTYLE
350
16
  3
EZDXF_META
350
2D
  0
DICTIONARY
  5
B
330
A
100
AcDbDictionary
280
0
281
1
  0
DICTIONARY
  5
C
330
A
100
AcDbDictionary
280
0
281
1
  0
DICTIONARY
  5
D
330
A
100
AcDbDictionary
280
0
281
1
  3
Model
350
1A
  3
Layout1
350
1E
  0
DICTIONARY
  5
E
330
A
100
AcDbDictionary
280
0
281
1
  3
ByBlock
350
1F
  3
ByLayer
350
20
  3
Global
350
21
  0
DICTIONARY
  5
F
330
A
100
AcDbDictionary
280
0
281
1
  3
Standard
350
2C
  0
DICTIONARY
  5
10
330
A
100
AcDbDictionary
280
0
281
1
  3
Standard
350
22
  0
DICTIONARY
  5
11
330
A
100
AcDbDictionary
280
0
281
1
  0
ACDBDICTIONARYWDFLT
  5
12
330
A
100
AcDbDictionary
280
0
281
1
  3
Normal
350
13
100
AcDbDictionaryWithDefault
340
13
  0
ACDBPLACEHOLDER
  5
13
330
12
  0
DICTIONARY
  5
14
330
A
100
AcDbDictionary
280
0
281
1
  0
DICTIONARY
  5
15
330
A
100
AcDbDictionary
280
0
281
1
  0
DICTIONARY
  5
16
330
A
100
AcDbDictionary
280
0
281
1
  0
LAYOUT
  5
1A
330
D
100
AcDbPlotSettings
  1

  4
A3
  6

 40
7.5
 41
20.0
 42
7.5
 43
20.0
 44
420.0
 45
297.0
 46
0.0
 47
0.0
 48
0.0
 49
0.0
140
0.0
141
0.0
142
1.0
143
1.0
 70
1024
 72
1
 73
0
 74
5
  7

 75
16
 76
0
 77
2
 78
300
147
1.0
148
0.0
149
0.0
100
AcDbLayout
  1
Model
 70
1
 71
0
 10
0.0
 20
0.0
 11
420.0
 21
297.0
 12
0.0
 22
0.0
 32
0.0
 14
1e+20
 24
1e+20
 34
1e+20
 15
-1e+20
 25
-1e+20
 35
-1e+20
146
0.0
 13
0.0
 23
0.0
 33
0.0
 16
1.0
 26
0.0
 36
0.0
 17
0.0
 27
1.0
 37
0.0
 76
1
330
17
  0
LAYOUT
  5
1E
330
D
100
AcDbPlotSettings
  1

  4
A3
  6

 40
7.5
 41
20.0
 42
7.5
 43
20.0
 44
420.0
 45
297.0
 46
0.0
 47
0.0
 48
0.0
 49
0.0
140
0.0
141
0.0
142
1.0
143
1.0
 70
0
 72
1
 73
0
 74
5
  7

 75
16
 76
0
 77
2
 78
300
147
1.0
148
0.0
149
0.0
100
AcDbLayout
  1
Layout1
 70
1
 71
1
 10
0.0
 20
0.0
 11
420.0
 21
297.0
 12
0.0
 22
0.0
 32
0.0
 14
1e+20
 24
1e+20
 34
1e+20
 15
-1e+20
 25
-1e+20
 35
-1e+20
146
0.0
 13
0.0
 23
0.0
 33
0.0
 16
1.0
 26
0.0
 36
0.0
 17
0.0
 27
1.0
 37
0.0
 76
1
330
1B
  0
MATERIAL
  5
1F
102
{ACAD_REACTORS
330
E
102
}
330
E
100
AcDbMaterial
  1
ByBlock
  2

 70
0
 40
1.0
 71
1
 41
1.0
 91
-1023410177
 42
1.0
 72
1
  3

 73
1
 74
1
 75
1
 44
0.5
 73
0
 45
1.0
 46
1.0
 77
1
  4

 78
1
 79
1
170
1
 48
1.0
171
1
  6

172
1
173
1
174
1
140
1.0
141
1.0
175
1
  7

176
1
177
1
178
1
143
1.0
179
1
  8

270
1
271
1
272
1
145
1.0
146
1.0
273
1
  9

274
1
275
1
276
1
 42
1.0
 72
1
  3

 73
1
 74
1
 75
1
 94
63
  0
MATERIAL
  5
20
102
{ACAD_REACTORS
330
E
102
}
330
E
100
AcDbMaterial
  1
ByLayer
  2

 70
0
 40
1.0
 71
1
 41
1.0
 91
-1023410177
 42
1.0
 72
1
  3

 73
1
 74
1
 75
1
 44
0.5
 73
0
 45
1.0
 46
1.0
 77
1
  4

 78
1
 79
1
170
1
 48
1.0
171
1
  6

172
1
173
1
174
1
140
1.0
141
1.0
175
1
  7

176
1
177
1
178
1
143
1.0
179
1
  8

270
1
271
1
272
1
145
1.0
146
1.0
273
1
  9

274
1
275
1
276
1
 42
1.0
 72
1
  3

 73
1
 74
1
 75
1
 94
63
  0
MATERIAL
  5
21
102
{ACAD_REACTORS
330
E
102
}
330
E
100
AcDbMaterial
  1
Global
  2

 70
0
 40
1.0
 71
1
 41
1.0
 91
-1023410177
 42
1.0
 72
1
  3

 73
1
 74
1
 75
1
 44
0.5
 73
0
 45
1.0
 46
1.0
 77
1
  4

 78
1
 79
1
170
1
 48
1.0
171
1
  6

172
1
173
1
174
1
140
1.0
141
1.0
175
1
  7

176
1
177
1
178
1
143
1.0
179
1
  8

270
1
271
1
272
1
145
1.0
146
1.0
273
1
  9

274
1
275
1
276
1
 42
1.0
 72
1
  3

 73
1
 74
1
 75
1
 94
63
  0
MLINESTYLE
  5
22
102
{ACAD_REACTORS
330
10
102
}
330
10
100
AcDbMlineStyle
  2
Standard
 70
0
  3

 62
256
 51
90.0
 52
90.0
 71
2
 49
0.5
 62
256
  6
BYLAYER
 49
-0.5
 62
256
  6
BYLAYER
  0
MLEADERSTYLE
  5
2C
102
{ACAD_REACTORS
330
F
102
}
330
F
100
AcDbMLeaderStyle
179
2
170
2
171
1
172
0
 90
2
 40
0.0
 41
0.0
173
1
 91
-1056964608
 92
-2
290
1
 42
2.0
291
1
 43
8.0
  3
Standard
 44
4.0
300

342
29
174
1
175
1
176
0
178
1
 93
-1056964608
 45
4.0
292
0
297
0
 46
4.0
 94
-1056964608
 47
1.0
 49
1.0
140
1.0
294
1
141
0.0
177
0
142
1.0
295
0
296
0
143
3.75
271
0
272
9
273
9
  0
DICTIONARY
  5
2D
330
A
100
AcDbDictionary
280
1
281
1
  3
CREATED_BY_EZDXF
350
2E
  3
WRITTEN_BY_EZDXF
350
32
  0
DICTIONARYVAR
  5
2E
330
2D
100
DictionaryVariables
280
0
  1
1.3.5 @ 2025-08-20T01:05:13.595173+00:00
  0
DICTIONARYVAR
  5
32
330
2D
100
DictionaryVariables
280
0
  1
1.3.5 @ 2025-08-20T01:05:13.601124+00:00
  0
ENDSEC
  0
EOF
