  0
SECTION
  2
HEADER
  9
$ACADVER
  1
AC1032
  9
$ACADMAINTVER
 90
4
  9
$DWGCODEPAGE
  3
ANSI_1252
  9
$LASTSAVEDBY
  1
ezdxf
  9
$REQUIREDVERSIONS
160
0
  9
$INSBASE
 10
0.0
 20
0.0
 30
0.0
  9
$EXTMIN
 10
1e+20
 20
1e+20
 30
1e+20
  9
$EXTMAX
 10
-1e+20
 20
-1e+20
 30
-1e+20
  9
$LIMMIN
 10
0.0
 20
0.0
  9
$LIMMAX
 10
420.0
 20
297.0
  9
$ORTHOMODE
 70
0
  9
$REGENMODE
 70
1
  9
$FILLMODE
 70
1
  9
$QTEXTMODE
 70
0
  9
$MIRRTEXT
 70
1
  9
$LTSCALE
 40
1.0
  9
$ATTMODE
 70
1
  9
$TEXTSIZE
 40
2.5
  9
$TRACEWID
 40
1.0
  9
$TEXTSTYLE
  7
Standard
  9
$CLAYER
  8
0
  9
$CELTYPE
  6
ByLayer
  9
$CECOLOR
 62
256
  9
$CELTSCALE
 40
1.0
  9
$DISPSILH
 70
0
  9
$DIMSCALE
 40
1.0
  9
$DIMASZ
 40
2.5
  9
$DIMEXO
 40
0.625
  9
$DIMDLI
 40
3.75
  9
$DIMRND
 40
0.0
  9
$DIMDLE
 40
0.0
  9
$DIMEXE
 40
1.25
  9
$DIMTP
 40
0.0
  9
$DIMTM
 40
0.0
  9
$DIMTXT
 40
2.5
  9
$DIMCEN
 40
2.5
  9
$DIMTSZ
 40
0.0
  9
$DIMTOL
 70
0
  9
$DIMLIM
 70
0
  9
$DIMTIH
 70
0
  9
$DIMTOH
 70
0
  9
$DIMSE1
 70
0
  9
$DIMSE2
 70
0
  9
$DIMTAD
 70
1
  9
$DIMZIN
 70
8
  9
$DIMBLK
  1

  9
$DIMASO
 70
1
  9
$DIMSHO
 70
1
  9
$DIMPOST
  1

  9
$DIMAPOST
  1

  9
$DIMALT
 70
0
  9
$DIMALTD
 70
3
  9
$DIMALTF
 40
0.03937007874
  9
$DIMLFAC
 40
1.0
  9
$DIMTOFL
 70
1
  9
$DIMTVP
 40
0.0
  9
$DIMTIX
 70
0
  9
$DIMSOXD
 70
0
  9
$DIMSAH
 70
0
  9
$DIMBLK1
  1

  9
$DIMBLK2
  1

  9
$DIMSTYLE
  2
ISO-25
  9
$DIMCLRD
 70
0
  9
$DIMCLRE
 70
0
  9
$DIMCLRT
 70
0
  9
$DIMTFAC
 40
1.0
  9
$DIMGAP
 40
0.625
  9
$DIMJUST
 70
0
  9
$DIMSD1
 70
0
  9
$DIMSD2
 70
0
  9
$DIMTOLJ
 70
0
  9
$DIMTZIN
 70
8
  9
$DIMALTZ
 70
0
  9
$DIMALTTZ
 70
0
  9
$DIMUPT
 70
0
  9
$DIMDEC
 70
2
  9
$DIMTDEC
 70
2
  9
$DIMALTU
 70
2
  9
$DIMALTTD
 70
3
  9
$DIMTXSTY
  7
Standard
  9
$DIMAUNIT
 70
0
  9
$DIMADEC
 70
0
  9
$DIMALTRND
 40
0.0
  9
$DIMAZIN
 70
0
  9
$DIMDSEP
 70
44
  9
$DIMATFIT
 70
3
  9
$DIMFRAC
 70
0
  9
$DIMLDRBLK
  1

  9
$DIMLUNIT
 70
2
  9
$DIMLWD
 70
-2
  9
$DIMLWE
 70
-2
  9
$DIMTMOVE
 70
0
  9
$DIMFXL
 40
1.0
  9
$DIMFXLON
 70
0
  9
$DIMJOGANG
 40
0.785398163397
  9
$DIMTFILL
 70
0
  9
$DIMTFILLCLR
 70
0
  9
$DIMARCSYM
 70
0
  9
$DIMLTYPE
  6

  9
$DIMLTEX1
  6

  9
$DIMLTEX2
  6

  9
$DIMTXTDIRECTION
 70
0
  9
$LUNITS
 70
2
  9
$LUPREC
 70
4
  9
$SKETCHINC
 40
1.0
  9
$FILLETRAD
 40
10.0
  9
$AUNITS
 70
0
  9
$AUPREC
 70
2
  9
$MENU
  1
.
  9
$ELEVATION
 40
0.0
  9
$PELEVATION
 40
0.0
  9
$THICKNESS
 40
0.0
  9
$LIMCHECK
 70
0
  9
$CHAMFERA
 40
0.0
  9
$CHAMFERB
 40
0.0
  9
$CHAMFERC
 40
0.0
  9
$CHAMFERD
 40
0.0
  9
$SKPOLY
 70
0
  9
$TDCREATE
 40
2460908.0869675926
  9
$TDUCREATE
 40
2458532.153996898
  9
$TDUPDATE
 40
2460908.0869675926
  9
$TDUUPDATE
 40
2458532.1544311
  9
$TDINDWG
 40
0.0
  9
$TDUSRTIMER
 40
0.0
  9
$USRTIMER
 70
1
  9
$ANGBASE
 50
0.0
  9
$ANGDIR
 70
0
  9
$PDMODE
 70
0
  9
$PDSIZE
 40
0.0
  9
$PLINEWID
 40
0.0
  9
$SPLFRAME
 70
0
  9
$SPLINETYPE
 70
6
  9
$SPLINESEGS
 70
8
  9
$HANDSEED
  5
33
  9
$SURFTAB1
 70
6
  9
$SURFTAB2
 70
6
  9
$SURFTYPE
 70
6
  9
$SURFU
 70
6
  9
$SURFV
 70
6
  9
$UCSBASE
  2

  9
$UCSNAME
  2

  9
$UCSORG
 10
0.0
 20
0.0
 30
0.0
  9
$UCSXDIR
 10
1.0
 20
0.0
 30
0.0
  9
$UCSYDIR
 10
0.0
 20
1.0
 30
0.0
  9
$UCSORTHOREF
  2

  9
$UCSORTHOVIEW
 70
0
  9
$UCSORGTOP
 10
0.0
 20
0.0
 30
0.0
  9
$UCSORGBOTTOM
 10
0.0
 20
0.0
 30
0.0
  9
$UCSORGLEFT
 10
0.0
 20
0.0
 30
0.0
  9
$UCSORGRIGHT
 10
0.0
 20
0.0
 30
0.0
  9
$UCSORGFRONT
 10
0.0
 20
0.0
 30
0.0
  9
$UCSORGBACK
 10
0.0
 20
0.0
 30
0.0
  9
$PUCSBASE
  2

  9
$PUCSNAME
  2

  9
$PUCSORG
 10
0.0
 20
0.0
 30
0.0
  9
$PUCSXDIR
 10
1.0
 20
0.0
 30
0.0
  9
$PUCSYDIR
 10
0.0
 20
1.0
 30
0.0
  9
$PUCSORTHOREF
  2

  9
$PUCSORTHOVIEW
 70
0
  9
$PUCSORGTOP
 10
0.0
 20
0.0
 30
0.0
  9
$PUCSORGBOTTOM
 10
0.0
 20
0.0
 30
0.0
  9
$PUCSORGLEFT
 10
0.0
 20
0.0
 30
0.0
  9
$PUCSORGRIGHT
 10
0.0
 20
0.0
 30
0.0
  9
$PUCSORGFRONT
 10
0.0
 20
0.0
 30
0.0
  9
$PUCSORGBACK
 10
0.0
 20
0.0
 30
0.0
  9
$USERI1
 70
0
  9
$USERI2
 70
0
  9
$USERI3
 70
0
  9
$USERI4
 70
0
  9
$USERI5
 70
0
  9
$USERR1
 40
0.0
  9
$USERR2
 40
0.0
  9
$USERR3
 40
0.0
  9
$USERR4
 40
0.0
  9
$USERR5
 40
0.0
  9
$WORLDVIEW
 70
1
  9
$SHADEDGE
 70
3
  9
$SHADEDIF
 70
70
  9
$TILEMODE
 70
1
  9
$MAXACTVP
 70
64
  9
$PINSBASE
 10
0.0
 20
0.0
 30
0.0
  9
$PLIMCHECK
 70
0
  9
$PEXTMIN
 10
1e+20
 20
1e+20
 30
1e+20
  9
$PEXTMAX
 10
-1e+20
 20
-1e+20
 30
-1e+20
  9
$PLIMMIN
 10
0.0
 20
0.0
  9
$PLIMMAX
 10
420.0
 20
297.0
  9
$UNITMODE
 70
0
  9
$VISRETAIN
 70
1
  9
$PLINEGEN
 70
0
  9
$PSLTSCALE
 70
1
  9
$TREEDEPTH
 70
3020
  9
$CMLSTYLE
  2
Standard
  9
$CMLJUST
 70
0
  9
$CMLSCALE
 40
20.0
  9
$PROXYGRAPHICS
 70
1
  9
$MEASUREMENT
 70
1
  9
$CELWEIGHT
370
-1
  9
$ENDCAPS
280
0
  9
$JOINSTYLE
280
0
  9
$LWDISPLAY
290
0
  9
$INSUNITS
 70
6
  9
$HYPERLINKBASE
  1

  9
$STYLESHEET
  1

  9
$XEDIT
290
1
  9
$CEPSNTYPE
380
0
  9
$PSTYLEMODE
290
1
  9
$FINGERPRINTGUID
  2
{26A3A282-B029-41EC-A1D2-87B499E2B989}
  9
$VERSIONGUID
  2
{9A134C54-5E4F-41CB-B767-E27CA27EEADD}
  9
$EXTNAMES
290
1
  9
$PSVPSCALE
 40
0.0
  9
$OLESTARTUP
290
0
  9
$SORTENTS
280
127
  9
$INDEXCTL
280
0
  9
$HIDETEXT
280
1
  9
$XCLIPFRAME
280
1
  9
$HALOGAP
280
0
  9
$OBSCOLOR
 70
257
  9
$OBSLTYPE
280
0
  9
$INTERSECTIONDISPLAY
280
0
  9
$INTERSECTIONCOLOR
 70
257
  9
$DIMASSOC
280
2
  9
$PROJECTNAME
  1

  9
$CAMERADISPLAY
290
0
  9
$LENSLENGTH
 40
50.0
  9
$CAMERAHEIGHT
 40
0.0
  9
$STEPSPERSEC
 40
24.0
  9
$STEPSIZE
 40
100.0
  9
$3DDWFPREC
 40
2.0
  9
$PSOLWIDTH
 40
0.005
  9
$PSOLHEIGHT
 40
0.08
  9
$LOFTANG1
 40
1.570796326795
  9
$LOFTANG2
 40
1.570796326795
  9
$LOFTMAG1
 40
0.0
  9
$LOFTMAG2
 40
0.0
  9
$LOFTPARAM
 70
7
  9
$LOFTNORMALS
280
1
  9
$LATITUDE
 40
37.795
  9
$LONGITUDE
 40
-122.394
  9
$NORTHDIRECTION
 40
0.0
  9
$TIMEZONE
 70
-8000
  9
$LIGHTGLYPHDISPLAY
280
1
  9
$TILEMODELIGHTSYNCH
280
1
  9
$CMATERIAL
347
20
  9
$SOLIDHIST
280
0
  9
$SHOWHIST
280
1
  9
$DWFFRAME
280
2
  9
$DGNFRAME
280
2
  9
$REALWORLDSCALE
290
1
  9
$INTERFERECOLOR
 62
256
  9
$CSHADOW
280
0
  9
$SHADOWPLANELOCATION
 40
0.0
  0
ENDSEC
  0
SECTION
  2
CLASSES
  0
CLASS
  1
ACDBDICTIONARYWDFLT
  2
AcDbDictionaryWithDefault
  3
ObjectDBX Classes
 90
0
 91
0
280
0
281
0
  0
CLASS
  1
SUN
  2
AcDbSun
  3
SCENEOE
 90
1153
 91
0
280
0
281
0
  0
CLASS
  1
VISUALSTYLE
  2
AcDbVisualStyle
  3
ObjectDBX Classes
 90
4095
 91
0
280
0
281
0
  0
CLASS
  1
MATERIAL
  2
AcDbMaterial
  3
ObjectDBX Classes
 90
1153
 91
0
280
0
281
0
  0
CLASS
  1
SCALE
  2
AcDbScale
  3
ObjectDBX Classes
 90
1153
 91
0
280
0
281
0
  0
CLASS
  1
TABLESTYLE
  2
AcDbTableStyle
  3
ObjectDBX Classes
 90
4095
 91
0
280
0
281
0
  0
CLASS
  1
MLEADERSTYLE
  2
AcDbMLeaderStyle
  3
ACDB_MLEADERSTYLE_CLASS
 90
4095
 91
0
280
0
281
0
  0
CLASS
  1
DICTIONARYVAR
  2
AcDbDictionaryVar
  3
ObjectDBX Classes
 90
0
 91
0
280
0
281
0
  0
CLASS
  1
CELLSTYLEMAP
  2
AcDbCellStyleMap
  3
ObjectDBX Classes
 90
1152
 91
0
280
0
281
0
  0
CLASS
  1
MENTALRAYRENDERSETTINGS
  2
AcDbMentalRayRenderSettings
  3
SCENEOE
 90
1024
 91
0
280
0
281
0
  0
CLASS
  1
ACDBDETAILVIEWSTYLE
  2
AcDbDetailViewStyle
  3
ObjectDBX Classes
 90
1025
 91
0
280
0
281
0
  0
CLASS
  1
ACDBSECTIONVIEWSTYLE
  2
AcDbSectionViewStyle
  3
ObjectDBX Classes
 90
1025
 91
0
280
0
281
0
  0
CLASS
  1
RASTERVARIABLES
  2
AcDbRasterVariables
  3
ISM
 90
0
 91
0
280
0
281
0
  0
CLASS
  1
LAYOUT
  2
AcDbLayout
  3
ObjectDBX Classes
 90
0
 91
0
280
0
281
0
  0
CLASS
  1
ACDBPLACEHOLDER
  2
AcDbPlaceHolder
  3
ObjectDBX Classes
 90
0
 91
0
280
0
281
0
  0
ENDSEC
  0
SECTION
  2
TABLES
  0
TABLE
  2
VPORT
  5
8
330
0
100
AcDbSymbolTable
 70
1
  0
VPORT
  5
23
330
8
100
AcDbSymbolTableRecord
100
AcDbViewportTableRecord
  2
*Active
 70
0
 10
0.0
 20
0.0
 11
1.0
 21
1.0
 12
0.0
 22
0.0
 13
0.0
 23
0.0
 14
0.5
 24
0.5
 15
0.5
 25
0.5
 16
0.0
 26
0.0
 36
1.0
 17
0.0
 27
0.0
 37
0.0
 40
1000.0
 41
1.34
 42
50.0
 43
0.0
 44
0.0
 50
0.0
 51
0.0
 71
0
 72
1000
 73
1
 74
3
 75
0
 76
0
 77
0
 78
0
281
0
 65
0
146
0.0
  0
ENDTAB
  0
TABLE
  2
LTYPE
  5
2
330
0
100
AcDbSymbolTable
 70
3
  0
LTYPE
  5
24
330
2
100
AcDbSymbolTableRecord
100
AcDbLinetypeTableRecord
  2
ByBlock
 70
0
  3

 72
65
 73
0
 40
0.0
  0
LTYPE
  5
25
330
2
100
AcDbSymbolTableRecord
100
AcDbLinetypeTableRecord
  2
ByLayer
 70
0
  3

 72
65
 73
0
 40
0.0
  0
LTYPE
  5
26
330
2
100
AcDbSymbolTableRecord
100
AcDbLinetypeTableRecord
  2
Continuous
 70
0
  3

 72
65
 73
0
 40
0.0
  0
ENDTAB
  0
TABLE
  2
LAYER
  5
1
330
0
100
AcDbSymbolTable
 70
2
  0
LAYER
  5
27
330
1
100
AcDbSymbolTableRecord
100
AcDbLayerTableRecord
  2
0
 70
0
 62
7
  6
Continuous
370
-3
390
13
347
21
  0
LAYER
  5
28
330
1
100
AcDbSymbolTableRecord
100
AcDbLayerTableRecord
  2
Defpoints
 70
0
 62
7
  6
Continuous
290
0
370
-3
390
13
347
21
  0
ENDTAB
  0
TABLE
  2
STYLE
  5
5
330
0
100
AcDbSymbolTable
 70
1
  0
STYLE
  5
29
330
5
100
AcDbSymbolTableRecord
100
AcDbTextStyleTableRecord
  2
Standard
 70
0
 40
0.0
 41
1.0
 50
0.0
 71
0
 42
2.5
  3
txt
  4

  0
ENDTAB
  0
TABLE
  2
VIEW
  5
7
330
0
100
AcDbSymbolTable
 70
0
  0
ENDTAB
  0
TABLE
  2
UCS
  5
6
330
0
100
AcDbSymbolTable
 70
0
  0
ENDTAB
  0
TABLE
  2
APPID
  5
3
330
0
100
AcDbSymbolTable
 70
3
  0
APPID
  5
2A
330
3
100
AcDbSymbolTableRecord
100
AcDbRegAppTableRecord
  2
ACAD
 70
0
  0
APPID
  5
30
330
3
100
AcDbSymbolTableRecord
100
AcDbRegAppTableRecord
  2
HATCHBACKGROUNDCOLOR
 70
0
  0
APPID
  5
31
330
3
100
AcDbSymbolTableRecord
100
AcDbRegAppTableRecord
  2
EZDXF
 70
0
  0
ENDTAB
  0
TABLE
  2
DIMSTYLE
  5
4
330
0
100
AcDbSymbolTable
 70
1
100
AcDbDimStyleTable
  0
DIMSTYLE
105
2B
330
4
100
AcDbSymbolTableRecord
100
AcDbDimStyleTableRecord
  2
Standard
 70
0
 40
1.0
 41
2.5
 42
0.625
 43
3.75
 44
1.25
 45
0.0
 46
0.0
 47
0.0
 48
0.0
 49
2.5
140
2.5
141
2.5
142
0.0
143
0.03937007874
144
1.0
145
0.0
146
1.0
147
0.625
148
0.0
 69
0
 70
0
 71
0
 72
0
 73
0
 74
0
 75
0
 76
0
 77
1
 78
8
 79
3
170
0
171
3
172
1
173
0
174
0
175
0
176
0
177
0
178
0
179
2
271
2
272
2
273
2
274
3
275
0
276
0
277
2
278
44
279
0
280
0
281
0
282
0
283
0
284
8
285
0
286
0
288
0
289
3
290
0
371
-2
372
-2
  0
ENDTAB
  0
TABLE
  2
BLOCK_RECORD
  5
9
330
0
100
AcDbSymbolTable
 70
2
  0
BLOCK_RECORD
  5
17
330
9
100
AcDbSymbolTableRecord
100
AcDbBlockTableRecord
  2
*Model_Space
340
1A
 70
0
280
1
281
0
  0
BLOCK_RECORD
  5
1B
330
9
100
AcDbSymbolTableRecord
100
AcDbBlockTableRecord
  2
*Paper_Space
340
1E
 70
0
280
1
281
0
  0
ENDTAB
  0
ENDSEC
  0
SECTION
  2
BLOCKS
  0
BLOCK
  5
18
330
17
100
AcDbEntity
  8
0
100
AcDbBlockBegin
  2
*Model_Space
 70
0
 10
0.0
 20
0.0
 30
0.0
  3
*Model_Space
  1

  0
ENDBLK
  5
19
330
17
100
AcDbEntity
  8
0
100
AcDbBlockEnd
  0
BLOCK
  5
1C
330
1B
100
AcDbEntity
  8
0
100
AcDbBlockBegin
  2
*Paper_Space
 70
0
 10
0.0
 20
0.0
 30
0.0
  3
*Paper_Space
  1

  0
ENDBLK
  5
1D
330
1B
100
AcDbEntity
  8
0
100
AcDbBlockEnd
  0
ENDSEC
  0
SECTION
  2
ENTITIES
  0
LWPOLYLINE
  5
2F
330
17
100
AcDbEntity
  8
0
100
AcDbPolyline
 90
721
 70
1
 10
55.260679631143375
 20
5.6033519869062225
 10
55.25905399475994
 20
5.603770436263935
 10
55.2541938120335
 20
5.6048608270844404
 10
55.24613253581168
 20
5.606293244862477
 10
55.23477096104439
 20
5.608224283638755
 10
55.220299134619985
 20
5.610423233958172
 10
55.20262621470024
 20
5.612964211235121
 10
55.18167808587077
 20
5.615756373631368
 10
55.15761970538417
 20
5.618816447570751
 10
55.1303769578261
 20
5.622053591215037
 10
55.09985063814636
 20
5.625624398604935
 10
55.06622243002143
 20
5.629380638911656
 10
55.029409854825
 20
5.633313948923278
 10
54.989404549345146
 20
5.637506807266117
 10
54.94622324000573
 20
5.641794256687545
 10
54.89984920038289
 20
5.646341254440189
 10
54.850373272314854
 20
5.651073685109656
 10
54.79771297717532
 20
5.6559831854840255
 10
54.74185995175237
 20
5.66115223418961
 10
54.68291340109616
 20
5.666424237185706
 10
54.62077412015652
 20
5.671955788513016
 10
54.555458835357314
 20
5.677581930918915
 10
54.4871157775273
 20
5.683484348079873
 10
54.415505873999486
 20
5.6895554717338115
 10
54.3408765606528
 20
5.695820391516494
 10
54.263062880234614
 20
5.702262381004078
 10
54.18214731137123
 20
5.708889803408485
 10
54.09812985406268
 20
5.7157026587297155
 10
54.011002145097024
 20
5.722783425594085
 10
53.920764184474244
 20
5.73013210400159
 10
53.82743269861821
 20
5.737583736699603
 10
53.73099096110507
 20
5.745303280940755
 10
53.631529813773064
 20
5.753216621310651
 10
53.52895841478395
 20
5.761397873223684
 10
53.423293490561576
 20
5.769682079427226
 10
53.31460079330841
 20
5.778242560385825
 10
53.20287195981252
 20
5.787161794725799
 10
53.088132079709695
 20
5.796192346568201
 10
52.970281947949765
 20
5.805490809953742
 10
52.84949488499728
 20
5.814991432679948
 10
52.725597570387684
 20
5.824759966949291
 10
52.598754961373615
 20
5.834813139185613
 10
52.46888457932876
 20
5.845142586176994
 10
52.33606890287942
 20
5.855756671135354
 10
52.200233816611224
 20
5.866564552222459
 10
52.06146179915047
 20
5.8775745926502285
 10
51.919653645447
 20
5.888943386459371
 10
51.77498267596536
 20
5.900605181447413
 10
51.62736641207926
 20
5.912551614402436
 10
51.47680485378868
 20
5.924782685324438
 10
51.32329800109361
 20
5.9372983942134185
 10
51.16691996940849
 20
5.950189582907617
 10
51.00759664331889
 20
5.9633654095687945
 10
50.84540213823919
 20
5.976916716035185
 10
50.68034481738133
 20
5.990761023680476
 10
50.51244140716916
 20
6.004733375252039
 10
50.34175765980516
 20
6.019007091214424
 10
50.16819437023915
 20
6.033738765608338
 10
49.991751538471114
 20
6.048928398433781
 10
49.81253673276318
 20
6.064336917023732
 10
49.6305415899034
 20
6.080046800004503
 10
49.44576610989176
 20
6.096058047376094
 10
49.25818520309252
 20
6.112618095017454
 10
49.06784068556529
 20
6.129314549797004
 10
48.87479830951251
 20
6.146320732179294
 10
48.67904971172228
 20
6.163719120790643
 10
48.48050405035638
 20
6.181583831045443
 10
48.27933464587933
 20
6.19984911074122
 10
48.07546738287676
 20
6.2184241180397395
 10
47.86890226134866
 20
6.237308852941
 10
47.65970503349751
 20
6.256676635909555
 10
47.44790915217097
 20
6.276197552440141
 10
47.2334154123189
 20
6.296028196573468
 10
47.01638040798201
 20
6.316267773359694
 10
46.79680413916032
 20
6.3369162827988195
 10
46.57462085365132
 20
6.357800404426291
 10
46.34982218824312
 20
6.379002616868427
 10
46.122573100188326
 20
6.400539646549066
 10
45.89277438443677
 20
6.422568087508917
 10
45.66045113062427
 20
6.444840503869039
 10
45.42568581737709
 20
6.4673652588413475
 10
45.188478444695235
 20
6.4901423524258455
 10
44.948812286154904
 20
6.513336741875165
 10
44.70668734175604
 20
6.536948427189301
 10
44.46211197471061
 20
6.560894929741941
 10
44.21525950548314
 20
6.585110497330613
 10
43.96595661360908
 20
6.609660882157788
 10
43.71428577771476
 20
6.634554447435389
 10
43.46035456606224
 20
6.659552120496389
 10
43.2040721368133
 20
6.684728016755184
 10
42.94549587895848
 20
6.71033793530264
 10
42.6847082711241
 20
6.736390239350676
 10
42.421561082481375
 20
6.762703245222823
 10
42.156244359918695
 20
6.789046243463976
 10
41.88872465058839
 20
6.815749148579394
 10
41.61901031770233
 20
6.842729481942764
 10
41.347092998048666
 20
6.870069722180401
 10
41.07307189667749
 20
6.897613275251594
 10
40.79694701358885
 20
6.925360141156344
 10
40.518635870156416
 20
6.95330195668273
 10
40.23829506042088
 20
6.981537926880908
 10
39.95584210575594
 20
7.010059688538959
 10
39.67137621121178
 20
7.038710647616171
 10
39.384897376788345
 20
7.067490804112548
 10
39.096488081112
 20
7.096408521240007
 10
38.80605748234448
 20
7.125537914412943
 10
38.51367133268826
 20
7.155052304095908
 10
38.219272243152794
 20
7.184695891198035
 10
37.92309928640512
 20
7.214576243981402
 10
37.625020958040274
 20
7.2443467215169095
 10
37.325028894846334
 20
7.274089802430866
 10
37.02326296444016
 20
7.304069649026062
 10
36.71971480360985
 20
7.3343687399288156
 10
36.41424454473853
 20
7.364722912836336
 10
36.10719882875531
 20
7.395000663343678
 10
35.79833858299316
 20
7.425094423188764
 10
35.487803675068925
 20
7.455268354674378
 10
35.17550326314439
 20
7.4855965732149174
 10
34.86161066768413
 20
7.51601332660791
 10
34.54606849969755
 20
7.546262815762484
 10
34.228942511387146
 20
7.576518361143196
 10
33.91021597632908
 20
7.6069449200026735
 10
33.58993071058292
 20
7.637130099209341
 10
33.26809507736063
 20
7.666991420136885
 10
32.94483221785522
 20
7.696958002340723
 10
32.619985538025986
 20
7.7269306407706955
 10
32.293711631913624
 20
7.757008540476959
 10
31.96606067878968
 20
7.786696829701626
 10
31.637024315442208
 20
7.81607798707101
 10
31.30658581544738
 20
7.845316969837741
 10
30.974720089169427
 20
7.8746612138807635
 10
30.64162554670868
 20
7.90379753111866
 10
30.30717068366018
 20
7.932379280622329
 10
29.971577846267092
 20
7.9606789879064745
 10
29.63464026121722
 20
7.989092319678837
 10
29.29647385998453
 20
8.01729772464607
 10
28.95711209541672
 20
8.044965288302917
 10
28.616703198342574
 20
8.072276694325849
 10
28.275073848297538
 20
8.09929769491734
 10
27.93238063932234
 20
8.126127495127545
 10
27.588549456002557
 20
8.152675253118229
 10
27.24367950338837
 20
8.178784374848684
 10
26.89785326010608
 20
8.204463223530828
 10
26.55098824752937
 20
8.229703435952743
 10
26.20324942291089
 20
8.254521738538267
 10
25.85447182899798
 20
8.27890140486356
 10
25.504803696619458
 20
8.3030241186051
 10
25.15425338898723
 20
8.326807401136561
 10
24.802862722160896
 20
8.349838859326374
 10
24.450614969716632
 20
8.372283450427167
 10
24.097666725695124
 20
8.394240379489101
 10
23.743844669631834
 20
8.415775398714644
 10
23.389330485203228
 20
8.436740277275007
 10
23.03413253562124
 20
8.45705253654388
 10
22.678259184097783
 20
8.476629697894944
 10
22.321693704209004
 20
8.49563671858083
 10
21.964510211369316
 20
8.514164440439776
 10
21.606708705578704
 20
8.532212863471777
 10
21.248396755099254
 20
8.549542915009814
 10
20.889500244516576
 20
8.56606375321565
 10
20.530110015668892
 20
8.581701262674887
 10
20.170283457546773
 20
8.596711242478396
 10
19.80991300188812
 20
8.611332765293197
 10
19.44918033236942
 20
8.625417600290502
 10
19.08806987605971
 20
8.638297555247872
 10
18.726531453687493
 20
8.650467501923195
 10
18.36472165929345
 20
8.662026645366632
 10
18.002574740675126
 20
8.672801665113628
 10
17.64009906104442
 20
8.682710082537868
 10
17.277434488018233
 20
8.692016059942143
 10
16.914506906182137
 20
8.700628755488209
 10
16.551423883798222
 20
8.708309096509046
 10
16.18810294224018
 20
8.715048719792737
 10
15.824700675548717
 20
8.720946830389435
 10
15.461208720511907
 20
8.726085906925453
 10
15.097652166765517
 20
8.73021851352185
 10
14.734022651097629
 20
8.733427128804935
 10
14.37039428892263
 20
8.735802594612952
 10
14.006659511978446
 20
8.73758398361292
 10
13.643033456789235
 20
8.738293150470794
 10
13.279516123354991
 20
8.737930095186567
 10
12.916099148463797
 20
8.73657729638656
 10
12.552774168903731
 20
8.734317232697085
 10
12.189632026513026
 20
8.731075788703752
 10
11.82658187945345
 20
8.726927079820952
 10
11.463797048189562
 20
8.72180535384621
 10
11.101294259145185
 20
8.715545653526897
 10
10.739065149108413
 20
8.70823045748933
 10
10.377101354867314
 20
8.699942244359823
 10
10.015411239633826
 20
8.690598535512061
 10
9.654176487084397
 20
8.680051100117254
 10
9.293297892168892
 20
8.668456532216114
 10
8.932841207089778
 20
8.655988152273189
 10
8.572765769280334
 20
8.642225203944983
 10
8.213219809569354
 20
8.62734937090797
 10
7.854178238321088
 20
8.611608089041095
 10
7.495583666544968
 20
8.594745559253491
 10
7.13761777791747
 20
8.57661355071637
 10
6.780263846014758
 20
8.55737702068236
 10
6.423456118634355
 20
8.536862648686913
 10
6.067342826605041
 20
8.515252118406497
 10
5.711858217724356
 20
8.492372109376564
 10
5.357158886032996
 20
8.468321826647273
 10
5.003054784642581
 20
8.443331979673722
 10
4.6497275972295755
 20
8.417254337627122
 10
4.297210776641666
 20
8.38975898600222
 10
3.945495959666929
 20
8.360928403425326
 10
3.5946405352959223
 20
8.331018388987307
 10
3.244652866740567
 20
8.299946464061847
 10
2.895541317212769
 20
8.267630150022633
 10
2.547388365338864
 20
8.234077810081583
 10
2.200094806068681
 20
8.199446038279408
 10
1.8537263916046969
 20
8.163908155080659
 10
1.508399053420916
 20
8.127142609191997
 10
1.1641295179411735
 20
8.088984443360788
 10
0.8209010587416279
 20
8.049598614839667
 10
0.4787877912366813
 20
8.009075965466868
 10
0.13770723680000385
 20
7.967408132030472
 10
-0.20226648915399542
 20
7.924685956368711
 10
-0.5410592712109314
 20
7.881000280319822
 10
-0.8787201351494307
 20
7.836012826166628
 10
-1.2151666023431804
 20
7.7897319571210435
 10
-1.5503580102254721
 20
7.742578429526569
 10
-1.8843601109987727
 20
7.69437892291865
 10
-2.216999584198534
 20
7.645067685094819
 10
-2.548441387077391
 20
7.59462798963123
 10
-2.878520562382707
 20
7.543076562951724
 10
-3.2071713579120136
 20
7.490586725520853
 10
-3.534567094129854
 20
7.4372242295410915
 10
-3.860583476350321
 20
7.382585045092784
 10
-4.185105726592299
 20
7.327180770357663
 10
-4.508233049905945
 20
7.271167999376438
 10
-4.8299977456460566
 20
7.214043497179297
 10
-5.1501523779336855
 20
7.155832353402003
 10
-5.4688045150309055
 20
7.096773640711579
 10
-5.785962520149641
 20
7.036949837734342
 10
-6.101609666866046
 20
6.976195987217662
 10
-6.415589361139417
 20
6.914611294211691
 10
-6.728066560222382
 20
6.852179032292596
 10
-7.038901396498071
 20
6.789163363763157
 10
-7.348077143542646
 20
6.7253993313707445
 10
-7.655585438144184
 20
6.660804456489046
 10
-7.961434643514606
 20
6.595461217744376
 10
-8.26555900745144
 20
6.529542935601283
 10
-8.568041008580996
 20
6.463041246847849
 10
-8.868698963226805
 20
6.395807920655286
 10
-9.167532871388872
 20
6.327842957023591
 10
-9.464616848481583
 20
6.259055514114528
 10
-9.759876779090552
 20
6.189536433766336
 10
-10.053337752851531
 20
6.11953315185796
 10
-10.344925654350135
 20
6.0491365102276315
 10
-10.63460703073868
 20
5.978016594370095
 10
-10.922464360643477
 20
5.906165041073427
 10
-11.208241844973662
 20
5.833524461347076
 10
-11.492129530617627
 20
5.760325564646145
 10
-11.774135780787294
 20
5.686650829596949
 10
-12.054095638230026
 20
5.612516982623332
 10
-12.332000739733914
 20
5.537841545098975
 10
-12.6079084742895
 20
5.462368717933015
 10
-12.881769816118158
 20
5.386436778842632
 10
-13.153609854855656
 20
5.310293163706771
 10
-13.42330429581606
 20
5.233533842605777
 10
-13.690935617625692
 20
5.15615045232773
 10
-13.95635558945577
 20
5.0783246765491015
 10
-14.2196466899326
 20
5.000048152057971
 10
-14.480817282268108
 20
4.921403357480653
 10
-14.739759798200215
 20
4.842151220150124
 10
-14.99649096415276
 20
4.762456697319013
 10
-15.251010780125746
 20
4.6823197889873205
 10
-15.503352698966856
 20
4.602070409660307
 10
-15.753343400211541
 20
4.521642807135499
 10
-16.00112275147666
 20
4.4407728191101095
 10
-16.246591547712068
 20
4.359303851543429
 10
-16.48970076313913
 20
4.277574182152639
 10
-16.730549602807994
 20
4.195740404978449
 10
-16.969022135244668
 20
4.11348096872752
 10
-17.20505260824668
 20
4.0309691938644
 10
-17.438814342278583
 20
3.9482708325915654
 10
-17.670142380087736
 20
3.8654026113328586
 10
-17.899011632038395
 20
3.78211709420933
 10
-18.1254471877663
 20
3.69866171709993
 10
-18.349457410483385
 20
3.61511895863097
 10
-18.57103393697773
 20
3.5314063401761357
 10
-18.790094288623013
 20
3.4475322249473503
 10
-19.00663010220732
 20
3.363414134318295
 10
-19.22073221956889
 20
3.279126183703367
 10
-19.43223568345508
 20
3.194685099526406
 10
-19.64115722028974
 20
3.110255839040043
 10
-19.847645060901655
 20
3.025656718567807
 10
-20.05145176941189
 20
2.9409128277454575
 10
-20.252651461234823
 20
2.8559333247347625
 10
-20.45127758921815
 20
2.771048124040981
 10
-20.647330153361864
 20
2.6862572256641117
 10
-20.840709948615807
 20
2.601404035563446
 10
-21.031408611768068
 20
2.516406075112669
 10
-21.219500258233026
 20
2.431172502473544
 10
-21.404861746817677
 20
2.3461324372014896
 10
-21.587567192936394
 20
2.2611950374582683
 10
-21.767599870165345
 20
2.176195345991251
 10
-21.94487729987821
 20
2.0911417260123586
 10
-22.119416208498837
 20
2.00619913477422
 10
-22.29119986960338
 20
1.9212026150242065
 10
-22.460236646403764
 20
1.8362346453886322
 10
-22.626534902111903
 20
1.751377704493812
 10
-22.789995431677646
 20
1.6664751982990385
 10
-22.95064332473676
 20
1.581774562683254
 10
-23.108527607067863
 20
1.4969375199292796
 10
-23.263599252892327
 20
1.4123023477542953
 10
-23.415849898998243
 20
1.3277865675319864
 10
-23.565271182173678
 20
1.2433077006360378
 10
-23.711780623792322
 20
1.1588741102783708
 10
-23.855469065692407
 20
1.0745599118733784
 10
-23.996279118883386
 20
0.9906209045119281
 10
-24.134194056941414
 20
0.9068921309413891
 10
-24.269213879866488
 20
0.8233735911617609
 10
-24.401429429496854
 20
0.7401394005874387
 10
-24.53066738536795
 20
0.6571238070159485
 10
-24.657026952529936
 20
0.5744834044880003
 10
-24.780442378780336
 20
0.49239151346814475
 10
-24.900996142745477
 20
0.4108397707444603
 10
-25.018589039375186
 20
0.3296715822762386
 10
-25.133311910507715
 20
0.24896106347787364
 10
-25.24499979889042
 20
0.16872494077320685
 10
-25.353834388199775
 20
0.0891114449910269
 10
-25.45965908439508
 20
0.010219781181491184
 10
-25.562539639678803
 20
-0.06812337111995288
 10
-25.662476054050938
 20
-0.14591801191330314
 10
-25.75946832751149
 20
-0.22316414119856176
 10
-25.853450707857988
 20
-0.29968843851117616
 10
-25.944423195090426
 20
-0.37549090385114675
 10
-26.03244317819937
 20
-0.4508273363093403
 10
-26.117453268194247
 20
-0.5254419367948902
 10
-26.19942001222739
 20
-0.5996646198130572
 10
-26.278376863146477
 20
-0.67316547085858
 10
-26.354290368103825
 20
-0.7462744044367201
 10
-26.427177253523272
 20
-0.8188264632948464
 10
-26.497037519404824
 20
-0.8908216474329597
 10
-26.56378032391024
 20
-0.9623340722654542
 10
-26.62758735071599
 20
-1.0332155069635405
 10
-26.688186074307378
 20
-1.1036882977704021
 10
-26.745840656987184
 20
-1.173612577069172
 10
-26.800377778290848
 20
-1.243054097062322
 10
-26.851822527854146
 20
-1.3117654218709076
 10
-26.900240657879547
 20
-1.3799198719594798
 10
-26.945558052952656
 20
-1.4474266054898033
 10
-26.98780816592115
 20
-1.5139557079566168
 10
-27.02704838577559
 20
-1.5797629784507867
 10
-27.0632129603135
 20
-1.6446750965077612
 10
-27.096318615958726
 20
-1.7085271048749118
 10
-27.126398805558942
 20
-1.7709890890469764
 10
-27.153453529114152
 20
-1.832061049023955
 10
-27.177581991674515
 20
-1.8915863907651391
 10
-27.198661052047
 20
-1.949135994715111
 10
-27.216806641705613
 20
-2.00438830958053
 10
-27.23218487139587
 20
-2.0565269123101673
 10
-27.244689326348585
 20
-2.104957726095974
 10
-27.25453629658081
 20
-2.1483694561288296
 10
-27.26194207210959
 20
-2.1854508075996115
 10
-27.26694241276839
 20
-2.214205567052915
 10
-27.26982887748155
 20
-2.2325801320427834
 10
-27.21794668399599
 20
-2.759859933849334
 10
-27.21595306628804
 20
-2.7639074427649115
 10
-27.209980576376125
 20
-2.7759674908853293
 10
-27.200062667107918
 20
-2.795710163705327
 10
-27.185974685254454
 20
-2.824529234660342
 10
-27.167705960618033
 20
-2.8641734813268322
 10
-27.145608901592205
 20
-2.91034565192449
 10
-27.11986028912021
 20
-2.9604805458256256
 10
-27.09073380220965
 20
-3.013522667311984
 10
-27.05832258968454
 20
-3.0677316020190264
 10
-27.022619441825853
 20
-3.1223566790979955
 10
-26.983831131945824
 20
-3.1770022318411573
 10
-26.941908634265815
 20
-3.2313299825313297
 10
-26.896885401633515
 20
-3.2850100166632528
 10
-26.848778160472765
 20
-3.3378773769842973
 10
-26.797586910783565
 20
-3.389932063494462
 10
-26.743402494404148
 20
-3.441099960779352
 10
-26.686159159132046
 20
-3.4912077483744177
 10
-26.62584854175533
 20
-3.5403379049059738
 10
-26.56256148411224
 20
-3.588416314959625
 10
-26.49619878115263
 20
-3.6355995725760817
 10
-26.4267687960884
 20
-3.6818051991290286
 10
-26.354453212596038
 20
-3.726884963789677
 10
-26.27897950516083
 20
-3.77106121280121
 10
-26.20060347287364
 20
-3.8142765571730743
 10
-26.11915179526992
 20
-3.8565967491077444
 10
-26.034715314187913
 20
-3.897947673190825
 10
-25.947302392839525
 20
-3.9382468507960025
 10
-25.856887941589008
 20
-3.9777417178022203
 10
-25.76348868686019
 20
-4.016267316956848
 10
-25.667071175805397
 20
-4.0541535627651495
 10
-25.56766049806039
 20
-4.091153019348175
 10
-25.465322405827646
 20
-4.127439007170478
 10
-25.35997442048084
 20
-4.1630031630201385
 10
-25.25159981559614
 20
-4.1980104441497845
 10
-25.140289433011777
 20
-4.232386735145024
 10
-25.026034909515825
 20
-4.26621451463217
 10
-24.908836245108294
 20
-4.299493782611224
 10
-24.788585871527104
 20
-4.332463611749209
 10
-24.665457109236808
 20
-4.365058249843653
 10
-24.539293364196688
 20
-4.397178491844398
 10
-24.410259593659383
 20
-4.428841064175288
 10
-24.278256592574728
 20
-4.460202560877029
 10
-24.143366839569047
 20
-4.491271345161544
 10
-24.005516219227943
 20
-4.521956575190597
 10
-23.86480393660157
 20
-4.552101656923479
 10
-23.72113914985169
 20
-4.581780705774582
 10
-23.574678453019022
 20
-4.611092926794065
 10
-23.425339367477246
 20
-4.6400299567700065
 10
-23.273121893226357
 20
-4.6685917957024055
 10
-23.11805111990212
 20
-4.696531007712318
 10
-22.960209526130853
 20
-4.723855956011665
 10
-22.79951463328624
 20
-4.750558277388524
 10
-22.636032193570752
 20
-4.776811292307447
 10
-22.46976220698439
 20
-4.802615000768435
 10
-22.300738126374842
 20
-4.827639488266226
 10
-22.129025703944574
 20
-4.852058075265371
 10
-21.954550824279192
 20
-4.875779919927635
 10
-21.777305124166787
 20
-4.898887500879334
 10
-21.597371082233657
 20
-4.921389181332385
 10
-21.414757061691734
 20
-4.943202482660477
 10
-21.229454699329096
 20
-4.964409883489924
 10
-21.041463995145744
 20
-4.985011383820725
 10
-20.850793312353595
 20
-5.004924505026564
 10
-20.65751676636704
 20
-5.02424008894568
 10
-20.46163435718608
 20
-5.04295813557807
 10
-20.263071969396336
 20
-5.0609878030855
 10
-20.061977833826575
 20
-5.078510775144441
 10
-19.85827783506242
 20
-5.095436209916657
 10
-19.651963609891936
 20
-5.111846586028464
 10
-19.443126000153374
 20
-5.127667788065467
 10
-19.231790095482477
 20
-5.1426523801487205
 10
-19.0179308062435
 20
-5.157047798157169
 10
-18.80144892738628
 20
-5.171010636131524
 10
-18.582600258001683
 20
-5.184483505081232
 10
-18.36123656726092
 20
-5.1972847213298214
 10
-18.137366218375913
 20
-5.209331806250975
 10
-17.91113744217545
 20
-5.220806443521167
 10
-17.682459396821297
 20
-5.231782748554791
 10
-17.45134880873729
 20
-5.242095764099217
 10
-17.21788815654975
 20
-5.251753853366364
 10
-16.982085803470593
 20
-5.260674537729919
 10
-16.743916659864055
 20
-5.269105253068826
 10
-16.503397452153994
 20
-5.276881042130457
 10
-16.26051145391655
 20
-5.28416686216744
 10
-16.01544871204012
 20
-5.290732003724671
 10
-15.768035906060158
 20
-5.296642219004625
 10
-15.518355514602975
 20
-5.301905871219222
 10
-15.266481653082963
 20
-5.306613802206698
 10
-15.012348569297654
 20
-5.310592691502501
 10
-14.756022015449519
 20
-5.314015859571185
 10
-14.497592833376792
 20
-5.316809190998352
 10
-14.23691279225069
 20
-5.318791002107533
 10
-13.97414684932384
 20
-5.319978019322568
 10
-13.709269914960476
 20
-5.320617678522403
 10
-13.442281989160605
 20
-5.320709979707037
 10
-13.17318307192422
 20
-5.320254922876472
 10
-12.902080731513404
 20
-5.319013435363683
 10
-12.628991694351994
 20
-5.316820559916036
 10
-12.353800028965995
 20
-5.313997847826876
 10
-12.076670692608042
 20
-5.310562025520041
 10
-11.797537933075647
 20
-5.306339772530981
 10
-11.51650095541898
 20
-5.301174494818987
 10
-11.233534670002276
 20
-5.295313628263004
 10
-10.948704829028001
 20
-5.288930493327584
 10
-10.661945680293696
 20
-5.281851769548173
 10
-10.373282313435107
 20
-5.273830021045828
 10
-10.082862959281032
 20
-5.2650469314970225
 10
-9.790679254619548
 20
-5.255584979528068
 10
-9.496566242198025
 20
-5.245427438715125
 10
-9.20077972110733
 20
-5.23451692006764
 10
-8.90325393914499
 20
-5.2226801031210615
 10
-8.603988896311007
 20
-5.209916987875391
 10
-8.303058708019766
 20
-5.196318416168864
 10
-8.00042155821167
 20
-5.182296781133053
 10
-7.696185015148797
 20
-5.167613010100939
 10
-7.390300053052516
 20
-5.151928825355336
 10
-7.082758308710901
 20
-5.135326705522561
 10
-6.7737247393765845
 20
-5.117823377026457
 10
-6.46308341357557
 20
-5.099740391160362
 10
-6.150933536358012
 20
-5.080921153883565
 10
-5.8372751077239124
 20
-5.0613656651960675
 10
-5.522124854097114
 20
-5.04090896784524
 10
-5.2054744122656915
 20
-5.019633540457399
 10
-4.887472013058438
 20
-4.997721066709012
 10
-4.567969425646564
 20
-4.974989862923609
 10
-4.247148333706538
 20
-4.951291698272404
 10
-3.9250003740264416
 20
-4.9267090513817084
 10
-3.6015171833943516
 20
-4.90132440087784
 10
-3.276624646395878
 20
-4.87504690492256
 10
-2.950586925333809
 20
-4.847736695899004
 10
-2.623329904793744
 20
-4.819302931968934
 10
-2.294720926877843
 20
-4.7902321216783195
 10
-1.9649333120506656
 20
-4.7604585128246875
 10
-1.6340997182100425
 20
-4.729495596862069
 10
-1.302030098467586
 20
-4.6975740832455655
 10
-0.9687985682376881
 20
-4.664784813813415
 10
-0.6345868111968247
 20
-4.63097955773683
 10
-0.2992382333042822
 20
-4.596059109965651
 10
0.03708220818731145
 20
-4.56004019692372
 10
0.37449044475194804
 20
-4.523244369904377
 10
0.7128872713394737
 20
-4.485515034866913
 10
1.0521483932639724
 20
-4.446448161891674
 10
1.3923813787875148
 20
-4.4062828236456815
 10
1.733537202131479
 20
-4.36535729784612
 10
2.0755082950337727
 20
-4.323432511825964
 10
2.4183687729088055
 20
-4.280417623746977
 10
2.7620528835540945
 20
-4.23648595407371
 10
3.1065271741219584
 20
-4.191307588300903
 10
3.451791644612403
 20
-4.144882526428554
 10
3.7977972692467894
 20
-4.097549046173848
 10
4.144469932610722
 20
-4.049397989375019
 10
4.491883750118606
 20
-4.000338514193831
 10
4.839931153508346
 20
-3.950131547963259
 10
5.1886288692037965
 20
-3.898942047935934
 10
5.537976897204961
 20
-3.8467700141118546
 10
5.887892758885515
 20
-3.793623809702944
 10
6.2383513646097
 20
-3.739255998830254
 10
6.589369440801358
 20
-3.683831538746417
 10
6.940815483055544
 20
-3.627697070380534
 10
7.292846085412957
 20
-3.570753388682449
 10
7.645271200985217
 20
-3.512769784197058
 10
7.998181671610548
 20
-3.4538203723387557
 10
8.351412540036327
 20
-3.3939218795313826
 10
8.705054648100795
 20
-3.333148421189333
 10
9.059099632592025
 20
-3.2714175186862935
 10
9.413390899469302
 20
-3.208828377072419
 10
9.768027653782797
 20
-3.145537590388419
 10
10.12300153232058
 20
-3.08146268000798
 10
10.478139214618094
 20
-3.0165378937286262
 10
10.833531542513585
 20
-2.9508373469647537
 10
11.189112763804582
 20
-2.8845343601809117
 10
11.544931904269701
 20
-2.817290655659923
 10
11.900840733080171
 20
-2.7492879170782545
 10
12.25685597665982
 20
-2.680691101688539
 10
12.612969271796743
 20
-2.6114177308644604
 10
12.969163892067074
 20
-2.54130284735339
 10
13.325456563894681
 20
-2.470511408407956
 10
13.68169905645076
 20
-2.3992250977046314
 10
14.03795712193779
 20
-2.327270594778865
 10
14.394173371365213
 20
-2.254903698721523
 10
14.75032271509727
 20
-2.1818769736536594
 10
15.10639678992204
 20
-2.10810794094896
 10
15.462412322263367
 20
-2.0337615578600543
 10
15.818229444504377
 20
-1.9591019866897303
 10
16.17393063527139
 20
-1.884120864226066
 10
16.52940832630233
 20
-1.8085791178020374
 10
16.884670880809118
 20
-1.7325592260439593
 10
17.239718298791747
 20
-1.656061188951832
 10
17.594558943462143
 20
-1.5791674851519708
 10
17.949019494355756
 20
-1.5018123624419002
 10
18.303190793310826
 20
-1.424069936236017
 10
18.656998724912928
 20
-1.3460310483725577
 10
19.010542494212267
 20
-1.267852292892229
 10
19.363623691108494
 20
-1.1892204817136136
 10
19.716250678813545
 20
-1.1102180934630257
 10
20.06854775201333
 20
-1.0312491580601222
 10
20.420299774183714
 20
-0.9518355301708503
 10
20.77149838211275
 20
-0.8718947311688988
 10
21.122276233698297
 20
-0.791913269600235
 10
21.472485098111548
 20
-0.7120728291413323
 10
21.822157274707315
 20
-0.631870174822378
 10
22.171218648071182
 20
-0.5513961484816089
 10
22.519586739576855
 20
-0.4706591133309441
 10
22.86736075427448
 20
-0.38981566341109525
 10
23.21446657674966
 20
-0.3089566405602972
 10
23.560912570214324
 20
-0.22816452340486512
 10
23.9065995296183
 20
-0.14728271790408992
 10
24.25151072853776
 20
-0.0661462668053411
 10
24.59567125660847
 20
0.01499739401243746
 10
24.939081113830415
 20
0.09614826454924316
 10
25.281583706162902
 20
0.17720713975492078
 10
25.62334399085854
 20
0.25819074605331094
 10
25.96417192102896
 20
0.3393297928995194
 10
26.30407585988607
 20
0.42054180166722954
 10
26.643097623489467
 20
0.5014143792248646
 10
26.98122884862725
 20
0.5820300041987428
 10
27.318287851622934
 20
0.6625369074176506
 10
27.654447952941073
 20
0.7428693366791153
 10
27.989535832117113
 20
0.8230930441856099
 10
28.323633967777365
 20
0.9032163931490544
 10
28.656676607719373
 20
0.9830660631049001
 10
28.9885812733168
 20
1.0626336908412242
 10
29.319447169619824
 20
1.1417626823173186
 10
29.649084249740035
 20
1.2206837469882867
 10
29.97765747093007
 20
1.299413611277969
 10
30.304993512725382
 20
1.3780180273888403
 10
30.631142554397478
 20
1.456002123563009
 10
30.956022117320078
 20
1.533357536588556
 10
31.27974697947425
 20
1.610595864647211
 10
31.60206134176914
 20
1.6877744967295292
 10
31.923197067152763
 20
1.7642503302488304
 10
32.24298083516055
 20
1.8400891174075866
 10
32.56137919294482
 20
1.915620772711061
 10
32.87839214050557
 20
1.9908452961592504
 10
33.19402804105473
 20
2.065680209125844
 10
33.50832871065189
 20
2.139713118479262
 10
33.821112465620594
 20
2.2130922550482954
 10
34.1325191735777
 20
2.28608178113573
 10
34.442383877270586
 20
2.358664970317726
 10
34.75072330312309
 20
2.4306768653416513
 10
35.05755417755904
 20
2.501952508954876
 10
35.36285977415462
 20
2.5726568584100313
 10
35.66655761428347
 20
2.642781550495194
 10
35.96874690299581
 20
2.712169991169658
 10
36.26926268303898
 20
2.7808054540095806
 10
36.568162343403515
 20
2.848943738105826
 10
36.865280926836796
 20
2.9165681170345548
 10
37.160882595641624
 20
2.9835387231788992
 10
37.45465416173656
 20
3.049657146438544
 10
37.74676058237427
 20
3.1149401132373336
 10
38.037193494342795
 20
3.1794701022015803
 10
38.32577121396565
 20
3.243395344160073
 10
38.6125021044548
 20
3.3066333604864973
 10
38.89755948627478
 20
3.369118398978381
 10
39.18070428675856
 20
3.430742891373645
 10
39.46203571095631
 20
3.491350243631581
 10
39.74144619060592
 20
3.551179528419212
 10
40.01900984112182
 20
3.610321587574774
 10
40.2946525470896
 20
3.668685579260033
 10
40.56837430850926
 20
3.726271503474988
 10
40.840117736390255
 20
3.782823561128773
 10
41.10994021972313
 20
3.8385975513122528
 10
41.37768516446717
 20
3.8934942689752727
 10
41.64341832282487
 20
3.947687034582383
 10
41.90716478443197
 20
4.000928412254638
 10
42.16885043387409
 20
4.053127560153802
 10
42.428450181515444
 20
4.1045319141588195
 10
42.68596402735606
 20
4.1551414742696915
 10
42.94139197139593
 20
4.204956240486419
 10
43.194585782806264
 20
4.253794529132529
 10
43.44572714526353
 20
4.301508109379232
 10
43.69469176408182
 20
4.348501011146184
 10
43.94140552384672
 20
4.39468239259515
 10
44.185950903184555
 20
4.440060616938046
 10
44.428262149892866
 20
4.484462363710329
 10
44.66824842213339
 20
4.527961748326387
 10
44.90606631394685
 20
4.570657975836378
 10
45.1415759577164
 20
4.612286883937517
 10
45.37476062701815
 20
4.6530134298824315
 10
45.605628685064055
 20
4.692755135044808
 10
45.834155042218356
 20
4.731759435303593
 10
46.060356424904874
 20
4.769861373406155
 10
46.28415035449732
 20
4.807052586140574
 10
46.505545194207585
 20
4.843250594880533
 10
46.724615059450066
 20
4.878546241464266
 10
46.94118662976024
 20
4.913005278094254
 10
47.15525990513808
 20
4.946627704770489
 10
47.36692572742184
 20
4.979339406078584
 10
47.576192459823446
 20
5.011057903392219
 10
47.782870055454474
 20
5.042013906166497
 10
47.987040992941246
 20
5.072215777613342
 10
48.18873036191955
 20
5.101416081853808
 10
48.38784732055113
 20
5.129688934302287
 10
48.58437514241216
 20
5.157199292211412
 10
48.77841303255277
 20
5.183790561540472
 10
48.96980439693228
 20
5.2093635372393114
 10
49.15861498775317
 20
5.234091539772482
 10
49.34483644180347
 20
5.258057047766295
 10
49.5283862804569
 20
5.281251698008832
 10
49.709281230137314
 20
5.303510533247466
 10
49.88751292763275
 20
5.324916032108507
 10
50.06306464651941
 20
5.345633151844587
 10
50.23594475000919
 20
5.365579413829394
 10
50.40608748589961
 20
5.384581497598371
 10
50.57349285419068
 20
5.402639403151522
 10
50.73820988066104
 20
5.420091408206028
 10
50.9001644498963
 20
5.436846670923652
 10
51.05935656189645
 20
5.452905191304397
 10
51.21579457987339
 20
5.468184490721942
 10
51.36939602520082
 20
5.4826762059643706
 10
51.520243376505086
 20
5.496388700243604
 10
51.66823742873599
 20
5.5094785676003495
 10
51.8133949083174
 20
5.521780850781978
 10
51.955699088825455
 20
5.533460507041121
 10
52.09524917531032
 20
5.544360942337066
 10
52.23186348409553
 20
5.5546303874986025
 10
52.36561613059545
 20
5.564359684363967
 10
52.49643299939573
 20
5.573457991094926
 10
52.62440493233457
 20
5.58185119227708
 10
52.74943272436184
 20
5.589695881951143
 10
52.871615580527674
 20
5.596835466076404
 10
52.99076345394369
 20
5.6035006541079655
 10
53.10704966507444
 20
5.609625693843357
 10
53.22030925666729
 20
5.615193858858733
 10
53.330624707348576
 20
5.6202135123660195
 10
53.43799601711826
 20
5.624684654365211
 10
53.54241482276444
 20
5.628689763482624
 10
53.64380700887273
 20
5.632137997880027
 10
53.74215584901928
 20
5.635194314810045
 10
53.83755218504233
 20
5.637784598858284
 10
53.92990517510363
 20
5.639982965439143
 10
54.019223182415125
 20
5.641706935926303
 10
54.105497843764866
 20
5.643038988946078
 10
54.18873752236479
 20
5.643896645872155
 10
54.268933855002985
 20
5.644362385330852
 10
54.34607011525559
 20
5.644601164574792
 10
54.42008055092014
 20
5.64443966313943
 10
54.491121756037344
 20
5.643977086074921
 10
54.55893793151635
 20
5.643270822371817
 10
54.62378487644799
 20
5.642263483039566
 10
54.68549763357967
 20
5.640938341654328
 10
54.74405947648753
 20
5.639460355468729
 10
54.79956124700981
 20
5.6377554090683795
 10
54.85192046652019
 20
5.635815139241355
 10
54.90112040859484
 20
5.633804503240289
 10
54.9472602782839
 20
5.631566907024468
 10
54.99024087053722
 20
5.629258944634603
 10
55.03007054856674
 20
5.626798137444382
 10
55.0667325859486
 20
5.624349442706432
 10
55.1002353458947
 20
5.621830381794439
 10
55.130652943819484
 20
5.619331796546637
 10
55.15782042247027
 20
5.616836960539187
 10
55.181811897261504
 20
5.614436715610326
 10
55.202709846819445
 20
5.6121394249719705
 10
55.22034931389151
 20
5.609928362200281
 10
55.23479605068016
 20
5.60797684775981
 10
55.24614089902361
 20
5.6062107662361615
 10
55.25420217524542
 20
5.604778348458126
 10
55.25905399475994
 20
5.603770436263935
 10
55.260679631143375
 20
5.6033519869062225
  0
ENDSEC
  0
SECTION
  2
OBJECTS
  0
DICTIONARY
  5
A
330
0
100
AcDbDictionary
280
0
281
1
  3
ACAD_COLOR
350
B
  3
ACAD_GROUP
350
C
  3
ACAD_LAYOUT
350
D
  3
ACAD_MATERIAL
350
E
  3
ACAD_MLEADERSTYLE
350
F
  3
ACAD_MLINESTYLE
350
10
  3
ACAD_PLOTSETTINGS
350
11
  3
ACAD_PLOTSTYLENAME
350
12
  3
ACAD_SCALELIST
350
14
  3
ACAD_TABLESTYLE
350
15
  3
ACAD_VISUALSTYLE
350
16
  3
EZDXF_META
350
2D
  0
DICTIONARY
  5
B
330
A
100
AcDbDictionary
280
0
281
1
  0
DICTIONARY
  5
C
330
A
100
AcDbDictionary
280
0
281
1
  0
DICTIONARY
  5
D
330
A
100
AcDbDictionary
280
0
281
1
  3
Model
350
1A
  3
Layout1
350
1E
  0
DICTIONARY
  5
E
330
A
100
AcDbDictionary
280
0
281
1
  3
ByBlock
350
1F
  3
ByLayer
350
20
  3
Global
350
21
  0
DICTIONARY
  5
F
330
A
100
AcDbDictionary
280
0
281
1
  3
Standard
350
2C
  0
DICTIONARY
  5
10
330
A
100
AcDbDictionary
280
0
281
1
  3
Standard
350
22
  0
DICTIONARY
  5
11
330
A
100
AcDbDictionary
280
0
281
1
  0
ACDBDICTIONARYWDFLT
  5
12
330
A
100
AcDbDictionary
280
0
281
1
  3
Normal
350
13
100
AcDbDictionaryWithDefault
340
13
  0
ACDBPLACEHOLDER
  5
13
330
12
  0
DICTIONARY
  5
14
330
A
100
AcDbDictionary
280
0
281
1
  0
DICTIONARY
  5
15
330
A
100
AcDbDictionary
280
0
281
1
  0
DICTIONARY
  5
16
330
A
100
AcDbDictionary
280
0
281
1
  0
LAYOUT
  5
1A
330
D
100
AcDbPlotSettings
  1

  4
A3
  6

 40
7.5
 41
20.0
 42
7.5
 43
20.0
 44
420.0
 45
297.0
 46
0.0
 47
0.0
 48
0.0
 49
0.0
140
0.0
141
0.0
142
1.0
143
1.0
 70
1024
 72
1
 73
0
 74
5
  7

 75
16
 76
0
 77
2
 78
300
147
1.0
148
0.0
149
0.0
100
AcDbLayout
  1
Model
 70
1
 71
0
 10
0.0
 20
0.0
 11
420.0
 21
297.0
 12
0.0
 22
0.0
 32
0.0
 14
1e+20
 24
1e+20
 34
1e+20
 15
-1e+20
 25
-1e+20
 35
-1e+20
146
0.0
 13
0.0
 23
0.0
 33
0.0
 16
1.0
 26
0.0
 36
0.0
 17
0.0
 27
1.0
 37
0.0
 76
1
330
17
  0
LAYOUT
  5
1E
330
D
100
AcDbPlotSettings
  1

  4
A3
  6

 40
7.5
 41
20.0
 42
7.5
 43
20.0
 44
420.0
 45
297.0
 46
0.0
 47
0.0
 48
0.0
 49
0.0
140
0.0
141
0.0
142
1.0
143
1.0
 70
0
 72
1
 73
0
 74
5
  7

 75
16
 76
0
 77
2
 78
300
147
1.0
148
0.0
149
0.0
100
AcDbLayout
  1
Layout1
 70
1
 71
1
 10
0.0
 20
0.0
 11
420.0
 21
297.0
 12
0.0
 22
0.0
 32
0.0
 14
1e+20
 24
1e+20
 34
1e+20
 15
-1e+20
 25
-1e+20
 35
-1e+20
146
0.0
 13
0.0
 23
0.0
 33
0.0
 16
1.0
 26
0.0
 36
0.0
 17
0.0
 27
1.0
 37
0.0
 76
1
330
1B
  0
MATERIAL
  5
1F
102
{ACAD_REACTORS
330
E
102
}
330
E
100
AcDbMaterial
  1
ByBlock
  2

 70
0
 40
1.0
 71
1
 41
1.0
 91
-1023410177
 42
1.0
 72
1
  3

 73
1
 74
1
 75
1
 44
0.5
 73
0
 45
1.0
 46
1.0
 77
1
  4

 78
1
 79
1
170
1
 48
1.0
171
1
  6

172
1
173
1
174
1
140
1.0
141
1.0
175
1
  7

176
1
177
1
178
1
143
1.0
179
1
  8

270
1
271
1
272
1
145
1.0
146
1.0
273
1
  9

274
1
275
1
276
1
 42
1.0
 72
1
  3

 73
1
 74
1
 75
1
 94
63
  0
MATERIAL
  5
20
102
{ACAD_REACTORS
330
E
102
}
330
E
100
AcDbMaterial
  1
ByLayer
  2

 70
0
 40
1.0
 71
1
 41
1.0
 91
-1023410177
 42
1.0
 72
1
  3

 73
1
 74
1
 75
1
 44
0.5
 73
0
 45
1.0
 46
1.0
 77
1
  4

 78
1
 79
1
170
1
 48
1.0
171
1
  6

172
1
173
1
174
1
140
1.0
141
1.0
175
1
  7

176
1
177
1
178
1
143
1.0
179
1
  8

270
1
271
1
272
1
145
1.0
146
1.0
273
1
  9

274
1
275
1
276
1
 42
1.0
 72
1
  3

 73
1
 74
1
 75
1
 94
63
  0
MATERIAL
  5
21
102
{ACAD_REACTORS
330
E
102
}
330
E
100
AcDbMaterial
  1
Global
  2

 70
0
 40
1.0
 71
1
 41
1.0
 91
-1023410177
 42
1.0
 72
1
  3

 73
1
 74
1
 75
1
 44
0.5
 73
0
 45
1.0
 46
1.0
 77
1
  4

 78
1
 79
1
170
1
 48
1.0
171
1
  6

172
1
173
1
174
1
140
1.0
141
1.0
175
1
  7

176
1
177
1
178
1
143
1.0
179
1
  8

270
1
271
1
272
1
145
1.0
146
1.0
273
1
  9

274
1
275
1
276
1
 42
1.0
 72
1
  3

 73
1
 74
1
 75
1
 94
63
  0
MLINESTYLE
  5
22
102
{ACAD_REACTORS
330
10
102
}
330
10
100
AcDbMlineStyle
  2
Standard
 70
0
  3

 62
256
 51
90.0
 52
90.0
 71
2
 49
0.5
 62
256
  6
BYLAYER
 49
-0.5
 62
256
  6
BYLAYER
  0
MLEADERSTYLE
  5
2C
102
{ACAD_REACTORS
330
F
102
}
330
F
100
AcDbMLeaderStyle
179
2
170
2
171
1
172
0
 90
2
 40
0.0
 41
0.0
173
1
 91
-1056964608
 92
-2
290
1
 42
2.0
291
1
 43
8.0
  3
Standard
 44
4.0
300

342
29
174
1
175
1
176
0
178
1
 93
-1056964608
 45
4.0
292
0
297
0
 46
4.0
 94
-1056964608
 47
1.0
 49
1.0
140
1.0
294
1
141
0.0
177
0
142
1.0
295
0
296
0
143
3.75
271
0
272
9
273
9
  0
DICTIONARY
  5
2D
330
A
100
AcDbDictionary
280
1
281
1
  3
CREATED_BY_EZDXF
350
2E
  3
WRITTEN_BY_EZDXF
350
32
  0
DICTIONARYVAR
  5
2E
330
2D
100
DictionaryVariables
280
0
  1
1.3.5 @ 2025-08-20T01:05:14.024874+00:00
  0
DICTIONARYVAR
  5
32
330
2D
100
DictionaryVariables
280
0
  1
1.3.5 @ 2025-08-20T01:05:14.029860+00:00
  0
ENDSEC
  0
EOF
