  0
SECTION
  2
HEADER
  9
$ACADVER
  1
AC1032
  9
$ACADMAINTVER
 90
4
  9
$DWGCODEPAGE
  3
ANSI_1252
  9
$LASTSAVEDBY
  1
ezdxf
  9
$REQUIREDVERSIONS
160
0
  9
$INSBASE
 10
0.0
 20
0.0
 30
0.0
  9
$EXTMIN
 10
1e+20
 20
1e+20
 30
1e+20
  9
$EXTMAX
 10
-1e+20
 20
-1e+20
 30
-1e+20
  9
$LIMMIN
 10
0.0
 20
0.0
  9
$LIMMAX
 10
420.0
 20
297.0
  9
$ORTHOMODE
 70
0
  9
$REGENMODE
 70
1
  9
$FILLMODE
 70
1
  9
$QTEXTMODE
 70
0
  9
$MIRRTEXT
 70
1
  9
$LTSCALE
 40
1.0
  9
$ATTMODE
 70
1
  9
$TEXTSIZE
 40
2.5
  9
$TRACEWID
 40
1.0
  9
$TEXTSTYLE
  7
Standard
  9
$CLAYER
  8
0
  9
$CELTYPE
  6
ByLayer
  9
$CECOLOR
 62
256
  9
$CELTSCALE
 40
1.0
  9
$DISPSILH
 70
0
  9
$DIMSCALE
 40
1.0
  9
$DIMASZ
 40
2.5
  9
$DIMEXO
 40
0.625
  9
$DIMDLI
 40
3.75
  9
$DIMRND
 40
0.0
  9
$DIMDLE
 40
0.0
  9
$DIMEXE
 40
1.25
  9
$DIMTP
 40
0.0
  9
$DIMTM
 40
0.0
  9
$DIMTXT
 40
2.5
  9
$DIMCEN
 40
2.5
  9
$DIMTSZ
 40
0.0
  9
$DIMTOL
 70
0
  9
$DIMLIM
 70
0
  9
$DIMTIH
 70
0
  9
$DIMTOH
 70
0
  9
$DIMSE1
 70
0
  9
$DIMSE2
 70
0
  9
$DIMTAD
 70
1
  9
$DIMZIN
 70
8
  9
$DIMBLK
  1

  9
$DIMASO
 70
1
  9
$DIMSHO
 70
1
  9
$DIMPOST
  1

  9
$DIMAPOST
  1

  9
$DIMALT
 70
0
  9
$DIMALTD
 70
3
  9
$DIMALTF
 40
0.03937007874
  9
$DIMLFAC
 40
1.0
  9
$DIMTOFL
 70
1
  9
$DIMTVP
 40
0.0
  9
$DIMTIX
 70
0
  9
$DIMSOXD
 70
0
  9
$DIMSAH
 70
0
  9
$DIMBLK1
  1

  9
$DIMBLK2
  1

  9
$DIMSTYLE
  2
ISO-25
  9
$DIMCLRD
 70
0
  9
$DIMCLRE
 70
0
  9
$DIMCLRT
 70
0
  9
$DIMTFAC
 40
1.0
  9
$DIMGAP
 40
0.625
  9
$DIMJUST
 70
0
  9
$DIMSD1
 70
0
  9
$DIMSD2
 70
0
  9
$DIMTOLJ
 70
0
  9
$DIMTZIN
 70
8
  9
$DIMALTZ
 70
0
  9
$DIMALTTZ
 70
0
  9
$DIMUPT
 70
0
  9
$DIMDEC
 70
2
  9
$DIMTDEC
 70
2
  9
$DIMALTU
 70
2
  9
$DIMALTTD
 70
3
  9
$DIMTXSTY
  7
Standard
  9
$DIMAUNIT
 70
0
  9
$DIMADEC
 70
0
  9
$DIMALTRND
 40
0.0
  9
$DIMAZIN
 70
0
  9
$DIMDSEP
 70
44
  9
$DIMATFIT
 70
3
  9
$DIMFRAC
 70
0
  9
$DIMLDRBLK
  1

  9
$DIMLUNIT
 70
2
  9
$DIMLWD
 70
-2
  9
$DIMLWE
 70
-2
  9
$DIMTMOVE
 70
0
  9
$DIMFXL
 40
1.0
  9
$DIMFXLON
 70
0
  9
$DIMJOGANG
 40
0.785398163397
  9
$DIMTFILL
 70
0
  9
$DIMTFILLCLR
 70
0
  9
$DIMARCSYM
 70
0
  9
$DIMLTYPE
  6

  9
$DIMLTEX1
  6

  9
$DIMLTEX2
  6

  9
$DIMTXTDIRECTION
 70
0
  9
$LUNITS
 70
2
  9
$LUPREC
 70
4
  9
$SKETCHINC
 40
1.0
  9
$FILLETRAD
 40
10.0
  9
$AUNITS
 70
0
  9
$AUPREC
 70
2
  9
$MENU
  1
.
  9
$ELEVATION
 40
0.0
  9
$PELEVATION
 40
0.0
  9
$THICKNESS
 40
0.0
  9
$LIMCHECK
 70
0
  9
$CHAMFERA
 40
0.0
  9
$CHAMFERB
 40
0.0
  9
$CHAMFERC
 40
0.0
  9
$CHAMFERD
 40
0.0
  9
$SKPOLY
 70
0
  9
$TDCREATE
 40
2460908.0869560186
  9
$TDUCREATE
 40
2458532.153996898
  9
$TDUPDATE
 40
2460908.0869560186
  9
$TDUUPDATE
 40
2458532.1544311
  9
$TDINDWG
 40
0.0
  9
$TDUSRTIMER
 40
0.0
  9
$USRTIMER
 70
1
  9
$ANGBASE
 50
0.0
  9
$ANGDIR
 70
0
  9
$PDMODE
 70
0
  9
$PDSIZE
 40
0.0
  9
$PLINEWID
 40
0.0
  9
$SPLFRAME
 70
0
  9
$SPLINETYPE
 70
6
  9
$SPLINESEGS
 70
8
  9
$HANDSEED
  5
33
  9
$SURFTAB1
 70
6
  9
$SURFTAB2
 70
6
  9
$SURFTYPE
 70
6
  9
$SURFU
 70
6
  9
$SURFV
 70
6
  9
$UCSBASE
  2

  9
$UCSNAME
  2

  9
$UCSORG
 10
0.0
 20
0.0
 30
0.0
  9
$UCSXDIR
 10
1.0
 20
0.0
 30
0.0
  9
$UCSYDIR
 10
0.0
 20
1.0
 30
0.0
  9
$UCSORTHOREF
  2

  9
$UCSORTHOVIEW
 70
0
  9
$UCSORGTOP
 10
0.0
 20
0.0
 30
0.0
  9
$UCSORGBOTTOM
 10
0.0
 20
0.0
 30
0.0
  9
$UCSORGLEFT
 10
0.0
 20
0.0
 30
0.0
  9
$UCSORGRIGHT
 10
0.0
 20
0.0
 30
0.0
  9
$UCSORGFRONT
 10
0.0
 20
0.0
 30
0.0
  9
$UCSORGBACK
 10
0.0
 20
0.0
 30
0.0
  9
$PUCSBASE
  2

  9
$PUCSNAME
  2

  9
$PUCSORG
 10
0.0
 20
0.0
 30
0.0
  9
$PUCSXDIR
 10
1.0
 20
0.0
 30
0.0
  9
$PUCSYDIR
 10
0.0
 20
1.0
 30
0.0
  9
$PUCSORTHOREF
  2

  9
$PUCSORTHOVIEW
 70
0
  9
$PUCSORGTOP
 10
0.0
 20
0.0
 30
0.0
  9
$PUCSORGBOTTOM
 10
0.0
 20
0.0
 30
0.0
  9
$PUCSORGLEFT
 10
0.0
 20
0.0
 30
0.0
  9
$PUCSORGRIGHT
 10
0.0
 20
0.0
 30
0.0
  9
$PUCSORGFRONT
 10
0.0
 20
0.0
 30
0.0
  9
$PUCSORGBACK
 10
0.0
 20
0.0
 30
0.0
  9
$USERI1
 70
0
  9
$USERI2
 70
0
  9
$USERI3
 70
0
  9
$USERI4
 70
0
  9
$USERI5
 70
0
  9
$USERR1
 40
0.0
  9
$USERR2
 40
0.0
  9
$USERR3
 40
0.0
  9
$USERR4
 40
0.0
  9
$USERR5
 40
0.0
  9
$WORLDVIEW
 70
1
  9
$SHADEDGE
 70
3
  9
$SHADEDIF
 70
70
  9
$TILEMODE
 70
1
  9
$MAXACTVP
 70
64
  9
$PINSBASE
 10
0.0
 20
0.0
 30
0.0
  9
$PLIMCHECK
 70
0
  9
$PEXTMIN
 10
1e+20
 20
1e+20
 30
1e+20
  9
$PEXTMAX
 10
-1e+20
 20
-1e+20
 30
-1e+20
  9
$PLIMMIN
 10
0.0
 20
0.0
  9
$PLIMMAX
 10
420.0
 20
297.0
  9
$UNITMODE
 70
0
  9
$VISRETAIN
 70
1
  9
$PLINEGEN
 70
0
  9
$PSLTSCALE
 70
1
  9
$TREEDEPTH
 70
3020
  9
$CMLSTYLE
  2
Standard
  9
$CMLJUST
 70
0
  9
$CMLSCALE
 40
20.0
  9
$PROXYGRAPHICS
 70
1
  9
$MEASUREMENT
 70
1
  9
$CELWEIGHT
370
-1
  9
$ENDCAPS
280
0
  9
$JOINSTYLE
280
0
  9
$LWDISPLAY
290
0
  9
$INSUNITS
 70
6
  9
$HYPERLINKBASE
  1

  9
$STYLESHEET
  1

  9
$XEDIT
290
1
  9
$CEPSNTYPE
380
0
  9
$PSTYLEMODE
290
1
  9
$FINGERPRINTGUID
  2
{B4430186-40F9-40E5-952E-9D3EE37AABA6}
  9
$VERSIONGUID
  2
{7F786073-6C81-494B-97C9-FBF1B171394F}
  9
$EXTNAMES
290
1
  9
$PSVPSCALE
 40
0.0
  9
$OLESTARTUP
290
0
  9
$SORTENTS
280
127
  9
$INDEXCTL
280
0
  9
$HIDETEXT
280
1
  9
$XCLIPFRAME
280
1
  9
$HALOGAP
280
0
  9
$OBSCOLOR
 70
257
  9
$OBSLTYPE
280
0
  9
$INTERSECTIONDISPLAY
280
0
  9
$INTERSECTIONCOLOR
 70
257
  9
$DIMASSOC
280
2
  9
$PROJECTNAME
  1

  9
$CAMERADISPLAY
290
0
  9
$LENSLENGTH
 40
50.0
  9
$CAMERAHEIGHT
 40
0.0
  9
$STEPSPERSEC
 40
24.0
  9
$STEPSIZE
 40
100.0
  9
$3DDWFPREC
 40
2.0
  9
$PSOLWIDTH
 40
0.005
  9
$PSOLHEIGHT
 40
0.08
  9
$LOFTANG1
 40
1.570796326795
  9
$LOFTANG2
 40
1.570796326795
  9
$LOFTMAG1
 40
0.0
  9
$LOFTMAG2
 40
0.0
  9
$LOFTPARAM
 70
7
  9
$LOFTNORMALS
280
1
  9
$LATITUDE
 40
37.795
  9
$LONGITUDE
 40
-122.394
  9
$NORTHDIRECTION
 40
0.0
  9
$TIMEZONE
 70
-8000
  9
$LIGHTGLYPHDISPLAY
280
1
  9
$TILEMODELIGHTSYNCH
280
1
  9
$CMATERIAL
347
20
  9
$SOLIDHIST
280
0
  9
$SHOWHIST
280
1
  9
$DWFFRAME
280
2
  9
$DGNFRAME
280
2
  9
$REALWORLDSCALE
290
1
  9
$INTERFERECOLOR
 62
256
  9
$CSHADOW
280
0
  9
$SHADOWPLANELOCATION
 40
0.0
  0
ENDSEC
  0
SECTION
  2
CLASSES
  0
CLASS
  1
ACDBDICTIONARYWDFLT
  2
AcDbDictionaryWithDefault
  3
ObjectDBX Classes
 90
0
 91
0
280
0
281
0
  0
CLASS
  1
SUN
  2
AcDbSun
  3
SCENEOE
 90
1153
 91
0
280
0
281
0
  0
CLASS
  1
VISUALSTYLE
  2
AcDbVisualStyle
  3
ObjectDBX Classes
 90
4095
 91
0
280
0
281
0
  0
CLASS
  1
MATERIAL
  2
AcDbMaterial
  3
ObjectDBX Classes
 90
1153
 91
0
280
0
281
0
  0
CLASS
  1
SCALE
  2
AcDbScale
  3
ObjectDBX Classes
 90
1153
 91
0
280
0
281
0
  0
CLASS
  1
TABLESTYLE
  2
AcDbTableStyle
  3
ObjectDBX Classes
 90
4095
 91
0
280
0
281
0
  0
CLASS
  1
MLEADERSTYLE
  2
AcDbMLeaderStyle
  3
ACDB_MLEADERSTYLE_CLASS
 90
4095
 91
0
280
0
281
0
  0
CLASS
  1
DICTIONARYVAR
  2
AcDbDictionaryVar
  3
ObjectDBX Classes
 90
0
 91
0
280
0
281
0
  0
CLASS
  1
CELLSTYLEMAP
  2
AcDbCellStyleMap
  3
ObjectDBX Classes
 90
1152
 91
0
280
0
281
0
  0
CLASS
  1
MENTALRAYRENDERSETTINGS
  2
AcDbMentalRayRenderSettings
  3
SCENEOE
 90
1024
 91
0
280
0
281
0
  0
CLASS
  1
ACDBDETAILVIEWSTYLE
  2
AcDbDetailViewStyle
  3
ObjectDBX Classes
 90
1025
 91
0
280
0
281
0
  0
CLASS
  1
ACDBSECTIONVIEWSTYLE
  2
AcDbSectionViewStyle
  3
ObjectDBX Classes
 90
1025
 91
0
280
0
281
0
  0
CLASS
  1
RASTERVARIABLES
  2
AcDbRasterVariables
  3
ISM
 90
0
 91
0
280
0
281
0
  0
CLASS
  1
LAYOUT
  2
AcDbLayout
  3
ObjectDBX Classes
 90
0
 91
0
280
0
281
0
  0
CLASS
  1
ACDBPLACEHOLDER
  2
AcDbPlaceHolder
  3
ObjectDBX Classes
 90
0
 91
0
280
0
281
0
  0
ENDSEC
  0
SECTION
  2
TABLES
  0
TABLE
  2
VPORT
  5
8
330
0
100
AcDbSymbolTable
 70
1
  0
VPORT
  5
23
330
8
100
AcDbSymbolTableRecord
100
AcDbViewportTableRecord
  2
*Active
 70
0
 10
0.0
 20
0.0
 11
1.0
 21
1.0
 12
0.0
 22
0.0
 13
0.0
 23
0.0
 14
0.5
 24
0.5
 15
0.5
 25
0.5
 16
0.0
 26
0.0
 36
1.0
 17
0.0
 27
0.0
 37
0.0
 40
1000.0
 41
1.34
 42
50.0
 43
0.0
 44
0.0
 50
0.0
 51
0.0
 71
0
 72
1000
 73
1
 74
3
 75
0
 76
0
 77
0
 78
0
281
0
 65
0
146
0.0
  0
ENDTAB
  0
TABLE
  2
LTYPE
  5
2
330
0
100
AcDbSymbolTable
 70
3
  0
LTYPE
  5
24
330
2
100
AcDbSymbolTableRecord
100
AcDbLinetypeTableRecord
  2
ByBlock
 70
0
  3

 72
65
 73
0
 40
0.0
  0
LTYPE
  5
25
330
2
100
AcDbSymbolTableRecord
100
AcDbLinetypeTableRecord
  2
ByLayer
 70
0
  3

 72
65
 73
0
 40
0.0
  0
LTYPE
  5
26
330
2
100
AcDbSymbolTableRecord
100
AcDbLinetypeTableRecord
  2
Continuous
 70
0
  3

 72
65
 73
0
 40
0.0
  0
ENDTAB
  0
TABLE
  2
LAYER
  5
1
330
0
100
AcDbSymbolTable
 70
2
  0
LAYER
  5
27
330
1
100
AcDbSymbolTableRecord
100
AcDbLayerTableRecord
  2
0
 70
0
 62
7
  6
Continuous
370
-3
390
13
347
21
  0
LAYER
  5
28
330
1
100
AcDbSymbolTableRecord
100
AcDbLayerTableRecord
  2
Defpoints
 70
0
 62
7
  6
Continuous
290
0
370
-3
390
13
347
21
  0
ENDTAB
  0
TABLE
  2
STYLE
  5
5
330
0
100
AcDbSymbolTable
 70
1
  0
STYLE
  5
29
330
5
100
AcDbSymbolTableRecord
100
AcDbTextStyleTableRecord
  2
Standard
 70
0
 40
0.0
 41
1.0
 50
0.0
 71
0
 42
2.5
  3
txt
  4

  0
ENDTAB
  0
TABLE
  2
VIEW
  5
7
330
0
100
AcDbSymbolTable
 70
0
  0
ENDTAB
  0
TABLE
  2
UCS
  5
6
330
0
100
AcDbSymbolTable
 70
0
  0
ENDTAB
  0
TABLE
  2
APPID
  5
3
330
0
100
AcDbSymbolTable
 70
3
  0
APPID
  5
2A
330
3
100
AcDbSymbolTableRecord
100
AcDbRegAppTableRecord
  2
ACAD
 70
0
  0
APPID
  5
30
330
3
100
AcDbSymbolTableRecord
100
AcDbRegAppTableRecord
  2
HATCHBACKGROUNDCOLOR
 70
0
  0
APPID
  5
31
330
3
100
AcDbSymbolTableRecord
100
AcDbRegAppTableRecord
  2
EZDXF
 70
0
  0
ENDTAB
  0
TABLE
  2
DIMSTYLE
  5
4
330
0
100
AcDbSymbolTable
 70
1
100
AcDbDimStyleTable
  0
DIMSTYLE
105
2B
330
4
100
AcDbSymbolTableRecord
100
AcDbDimStyleTableRecord
  2
Standard
 70
0
 40
1.0
 41
2.5
 42
0.625
 43
3.75
 44
1.25
 45
0.0
 46
0.0
 47
0.0
 48
0.0
 49
2.5
140
2.5
141
2.5
142
0.0
143
0.03937007874
144
1.0
145
0.0
146
1.0
147
0.625
148
0.0
 69
0
 70
0
 71
0
 72
0
 73
0
 74
0
 75
0
 76
0
 77
1
 78
8
 79
3
170
0
171
3
172
1
173
0
174
0
175
0
176
0
177
0
178
0
179
2
271
2
272
2
273
2
274
3
275
0
276
0
277
2
278
44
279
0
280
0
281
0
282
0
283
0
284
8
285
0
286
0
288
0
289
3
290
0
371
-2
372
-2
  0
ENDTAB
  0
TABLE
  2
BLOCK_RECORD
  5
9
330
0
100
AcDbSymbolTable
 70
2
  0
BLOCK_RECORD
  5
17
330
9
100
AcDbSymbolTableRecord
100
AcDbBlockTableRecord
  2
*Model_Space
340
1A
 70
0
280
1
281
0
  0
BLOCK_RECORD
  5
1B
330
9
100
AcDbSymbolTableRecord
100
AcDbBlockTableRecord
  2
*Paper_Space
340
1E
 70
0
280
1
281
0
  0
ENDTAB
  0
ENDSEC
  0
SECTION
  2
BLOCKS
  0
BLOCK
  5
18
330
17
100
AcDbEntity
  8
0
100
AcDbBlockBegin
  2
*Model_Space
 70
0
 10
0.0
 20
0.0
 30
0.0
  3
*Model_Space
  1

  0
ENDBLK
  5
19
330
17
100
AcDbEntity
  8
0
100
AcDbBlockEnd
  0
BLOCK
  5
1C
330
1B
100
AcDbEntity
  8
0
100
AcDbBlockBegin
  2
*Paper_Space
 70
0
 10
0.0
 20
0.0
 30
0.0
  3
*Paper_Space
  1

  0
ENDBLK
  5
1D
330
1B
100
AcDbEntity
  8
0
100
AcDbBlockEnd
  0
ENDSEC
  0
SECTION
  2
ENTITIES
  0
LWPOLYLINE
  5
2F
330
17
100
AcDbEntity
  8
0
100
AcDbPolyline
 90
721
 70
1
 10
89.32747296916423
 20
25.34578047841769
 10
89.32467499535865
 20
25.3459949895844
 10
89.31635673298797
 20
25.346371873911476
 10
89.3026695001447
 20
25.34637783305284
 10
89.28340431319609
 20
25.34624168665844
 10
89.2589413098845
 20
25.345639120014916
 10
89.22910933610027
 20
25.344665628185666
 10
89.19381289677999
 20
25.343150057061095
 10
89.15331864109675
 20
25.341168065687388
 10
89.10753107398706
 20
25.338548499954925
 10
89.05624121181822
 20
25.335520179513647
 10
88.99979136280952
 20
25.331892114236727
 10
88.93804820237438
 20
25.32762647460104
 10
88.87097390098974
 20
25.32285658519313
 10
88.79864411770176
 20
25.317315796839946
 10
88.72098319346428
 20
25.31127075871452
 10
88.63816228238692
 20
25.304625975753453
 10
88.5500480598831
 20
25.297343618433622
 10
88.4566026964298
 20
25.28955701134157
 10
88.35803517565968
 20
25.28103733482734
 10
88.25413651394007
 20
25.272013408540882
 10
88.14498237031712
 20
25.262218583309142
 10
88.03076373491771
 20
25.251995167351378
 10
87.91111846350539
 20
25.241096347511764
 10
87.78644652983964
 20
25.229635612359587
 10
87.6564812847475
 20
25.217537302848665
 10
87.52135605281545
 20
25.204839248502093
 10
87.38107083404353
 20
25.191541449319864
 10
87.23558779890863
 20
25.17777722988851
 10
87.08490694741069
 20
25.163546590208025
 10
86.92910393859596
 20
25.148582881105366
 10
86.76810311341825
 20
25.133152751753574
 10
86.60207562598718
 20
25.117160707089237
 10
86.43085032219308
 20
25.100702242175768
 10
86.2545028610822
 20
25.083510707840123
 10
86.07309090819486
 20
25.065890582778458
 10
85.88657663400791
 20
25.047975191577276
 10
85.69507352709071
 20
25.029364560477028
 10
85.49837260381054
 20
25.010287509127657
 10
85.29677834286348
 20
24.99068637198883
 10
85.08998626555342
 20
24.970618814600872
 10
84.87826302105341
 20
24.950160496009993
 10
84.66147528477694
 20
24.929273586693085
 10
84.43975638131052
 20
24.90799591617325
 10
84.21301081559068
 20
24.88615633034086
 10
83.98137191220404
 20
24.863792658719028
 10
83.7446306875178
 20
24.841133720957693
 10
83.5030916202281
 20
24.818121851516523
 10
83.2566213857485
 20
24.79471922087244
 10
83.00521998407889
 20
24.77092582902542
 10
82.74888741521936
 20
24.746741675975475
 10
82.48771917423329
 20
24.722337915832238
 10
82.22161976605727
 20
24.697543394486065
 10
81.9506846857547
 20
24.672529266046592
 10
81.67495176284869
 20
24.64716220592729
 10
81.3944966563855
 20
24.621175564955138
 10
81.10937703190534
 20
24.594873821826244
 10
80.81938390577557
 20
24.56848579619058
 10
80.52451727799617
 20
24.542011488048136
 10
80.22502396172293
 20
24.515088753162438
 10
79.9208661274328
 20
24.487850916120028
 10
79.61204377512574
 20
24.46029797692089
 10
79.29844341623246
 20
24.4328299093246
 10
78.9802541983685
 20
24.40478009039854
 10
78.65753378707412
 20
24.376452998838857
 10
78.33024435282626
 20
24.347981959232083
 10
77.99821474151528
 20
24.31946246664163
 10
77.66174943183734
 20
24.290836855527175
 10
77.32075292872901
 20
24.261933971779108
 10
76.97522523219027
 20
24.232753815397416
 10
76.62522400776146
 20
24.203600865078247
 10
76.27090057353499
 20
24.173941822475523
 10
75.9120459458781
 20
24.144005507239175
 10
75.54888894444079
 20
24.11400090300193
 10
75.18142956922304
 20
24.0839280097638
 10
74.8096101546845
 20
24.053482348828624
 10
74.4333928713021
 20
24.022797244782936
 10
74.05304436824886
 20
23.99194835667293
 10
73.66835566189208
 20
23.96116450414855
 10
73.27944024080105
 20
23.930045713450237
 10
72.88643142956228
 20
23.89862981410108
 10
72.4893292281758
 20
23.8669168061011
 10
72.08805797759538
 20
23.835173338623328
 10
71.68261767782104
 20
23.80339941166776
 10
71.27304615837588
 20
23.77146170064788
 10
70.85964789795602
 20
23.739302540023367
 10
70.44211841786533
 20
23.70697959533454
 10
70.02059104269034
 20
23.674530696104505
 10
69.59531258558688
 20
23.641593698096795
 10
69.16611189244529
 20
23.608264096374832
 10
68.73300879928283
 20
23.57497969422128
 10
68.29613663068601
 20
23.541778321159246
 10
67.85530439652798
 20
23.508317668969475
 10
67.41089223455108
 20
23.474273422938612
 10
66.96274882666295
 20
23.440178881412752
 10
66.5109120023866
 20
23.40590071980535
 10
66.05534393219904
 20
23.37157226270295
 10
65.5962535997329
 20
23.3369646904556
 10
65.13364100498829
 20
23.302078003063304
 10
64.66737282337856
 20
23.266874371002956
 10
64.1976778745537
 20
23.231562777907282
 10
63.72442283392725
 20
23.196105394253188
 10
63.24781668513185
 20
23.160273400390725
 10
62.767859428167526
 20
23.124066796319894
 10
62.284684387620814
 20
23.0875234115638
 10
61.7981204093821
 20
23.050738741185864
 10
61.30822515899169
 20
23.014017263882227
 10
60.81497880043234
 20
22.976921176370222
 10
60.318743477940544
 20
22.939697291805675
 10
59.81940386043568
 20
22.901736652796306
 10
59.316922118394594
 20
22.86317258392863
 10
58.811451412421064
 20
22.82448071800841
 10
58.30295391299198
 20
22.785794379622175
 10
57.79127645950359
 20
22.746637935964152
 10
57.27702800934822
 20
22.70689605595372
 10
56.75984641828938
 20
22.66632192643504
 10
56.23988484693079
 20
22.62539118021387
 10
55.71697214116287
 20
22.584199312353647
 10
55.191412779681755
 20
22.54268865731405
 10
54.663186926470196
 20
22.500421411812408
 10
54.13235224706851
 20
22.457702054544857
 10
53.59883308243055
 20
22.414797234684467
 10
53.06281858017177
 20
22.37104032929861
 10
52.5243465698153
 20
22.326298013800766
 10
51.98349455291866
 20
22.281312570169757
 10
51.44003370983192
 20
22.235875014772844
 10
50.894192860205
 20
22.190194331242758
 10
50.34619898117655
 20
22.14347057206038
 10
49.79601424322343
 20
22.09583706181222
 10
49.24356298729946
 20
22.047560449671327
 10
48.6887317248353
 20
21.99904070939725
 10
48.13193842309644
 20
21.949820201690127
 10
47.573067751002256
 20
21.89928996915767
 10
47.01240619374295
 20
21.84796347412873
 10
46.449497954530024
 20
21.79643168048973
 10
45.88462767604236
 20
21.74419911941767
 10
45.31794667637239
 20
21.69073249256647
 10
44.74964594564696
 20
21.636374108155383
 10
44.179421005169914
 20
21.58118163172472
 10
43.6075006745912
 20
21.525364046907214
 10
43.03378945884739
 20
21.46875019959323
 10
42.45849634157121
 20
21.41111127013283
 10
41.8817546473492
 20
21.352485088049132
 10
41.303431051594806
 20
21.292833823819016
 10
40.723792203481096
 20
21.23223313648869
 10
40.142571453835
 20
21.17060736701195
 10
39.55995979278341
 20
21.108298823608056
 10
38.975995049849374
 20
21.045174181690463
 10
38.390866372648425
 20
20.980566818326583
 10
37.80449810213437
 20
20.91474338268945
 10
37.21711905795712
 20
20.8479128584118
 10
36.62842476142055
 20
20.780132911033935
 10
36.03875752074389
 20
20.71121255042902
 10
35.448155165450274
 20
20.64101845201055
 10
34.85665552506278
 20
20.569417291191986
 10
34.26418294053519
 20
20.496675717146374
 10
33.670832906930976
 20
20.422964883983344
 10
33.07660542425007
 20
20.348284791702884
 10
32.48174730564834
 20
20.27227329606854
 10
31.886163056062372
 20
20.1947592429707
 10
31.290023829601775
 20
20.115647137345928
 10
30.69334946228376
 20
20.03537478247689
 10
30.095893140952498
 20
19.954304322600056
 10
29.49799717382726
 20
19.872244767588587
 10
28.899830872506318
 20
19.78809169122721
 10
28.301167259851066
 20
19.702645041035048
 10
27.70223515551144
 20
19.61611380064483
 10
27.10297689394714
 20
19.528193491360412
 10
26.503430304681242
 20
19.43875078859527
 10
25.90374854831751
 20
19.34826132515518
 10
25.303836129792494
 20
19.256553946930506
 10
24.703939862262043
 20
19.163266509684792
 10
24.10392642113963
 20
19.06836118389494
 10
23.504024626075196
 20
18.972046953193672
 10
22.904196647545643
 20
18.87445714216751
 10
22.304555974120277
 20
18.775191777056893
 10
21.705064776275982
 20
18.674384182448335
 10
21.105818549076194
 20
18.572205512451468
 10
20.50657047936507
 20
18.469017911302743
 10
19.90781419345429
 20
18.364097090529246
 10
19.309549691343822
 20
18.257443050130973
 10
18.711739143510577
 20
18.149189114694448
 10
18.11434472043147
 20
18.03946860880619
 10
17.5175375762161
 20
17.928186037402778
 10
16.921146556754852
 20
17.815436895547638
 10
16.325476140743874
 20
17.70116351770044
 10
15.730601987229376
 20
17.58509925468816
 10
15.136486266688241
 20
17.467377431097308
 10
14.54309114959736
 20
17.3481313715144
 10
13.950454465479867
 20
17.227227751352924
 10
13.358918522554989
 20
17.104475580486046
 10
12.76827433719
 20
16.980103678563694
 10
12.178579574925212
 20
16.854416524282016
 10
11.589890058789631
 20
16.72670966518531
 10
11.002396778910077
 20
16.597325409492818
 10
10.415986246717255
 20
16.4666637309641
 10
9.830638626193949
 20
16.334286826316497
 10
9.246696225559404
 20
16.20000370542317
 10
8.664083385767412
 20
16.06408101745716
 10
8.08274244127766
 20
15.92621428372232
 10
7.502864382216982
 20
15.7867458124379
 10
6.924391543045079
 20
15.645371124907753
 10
6.347552743411867
 20
15.50229920476461
 10
5.771967845575005
 20
15.357854366721822
 10
5.197979157753747
 20
15.211845620652557
 10
4.625737998040495
 20
15.063739668210728
 10
4.055206536912141
 20
14.913669833982855
 10
3.486404610385911
 20
14.762073921251606
 10
2.9193700479849087
 20
14.608818605430459
 10
2.35414067923222
 20
14.453770561932892
 10
1.7908498287143866
 20
14.29696762028201
 10
1.2292885127986704
 20
14.13863860012775
 10
0.6695143970253868
 20
13.979087980166256
 10
0.11181212407347682
 20
13.817820291574549
 10
-0.44374264701086064
 20
13.654568885179584
 10
-0.9972255752738446
 20
13.4896004101544
 10
-1.5485411656520311
 20
13.323086020608633
 10
-2.09782274273196
 20
13.154987887019168
 10
-2.644974811450205
 20
12.98547716349563
 10
-3.1899018767433516
 20
12.814725004147647
 10
-3.7325859451054955
 20
12.642160281106031
 10
-4.272893691950138
 20
12.46782082389388
 10
-4.810880940306257
 20
12.292411084966908
 10
-5.346605355714174
 20
12.115626585628965
 10
-5.879762459477742
 20
11.937409660339737
 10
-6.410618900769999
 20
11.75768465005302
 10
-6.938908030417908
 20
11.576527213815021
 10
-7.464572182881158
 20
11.394241830321876
 10
-7.987915836855878
 20
11.21088616511391
 10
-8.50861652014005
 20
11.025831424781614
 10
-9.026634560699243
 20
10.83995321589032
 10
-9.542178942166167
 20
10.653480358089976
 10
-10.05515601198875
 20
10.465575074338343
 10
-10.565165796407415
 20
10.276350853204733
 10
-11.072455108578009
 20
10.0861698389256
 10
-11.577061778023614
 20
9.895165356087473
 10
-12.078910145698021
 20
9.70307075551731
 10
-12.577771391951307
 20
9.510095020847828
 10
-13.073912165956509
 20
9.316162493032836
 10
-13.567179307109894
 20
9.121748804878084
 10
-14.057497156365253
 20
8.926587307210546
 10
-14.544827884199487
 20
8.730544675443694
 10
-15.029209320135687
 20
8.533754234164052
 10
-15.510583798633554
 20
8.336520462067757
 10
-15.989084644279595
 20
8.138805529631716
 10
-16.464369548854574
 20
7.940418446729084
 10
-16.936438512358485
 20
7.741359213359865
 10
-17.40538702985474
 20
7.541456675414436
 10
-17.871119606279937
 20
7.340881987002415
 10
-18.33374973020337
 20
7.140035121883373
 10
-18.79318190656162
 20
6.939087234166927
 10
-19.249264817262283
 20
6.737505025506998
 10
-19.70213178689188
 20
6.535250666380478
 10
-20.15134501216775
 20
6.332304320770157
 10
-20.597284630832224
 20
6.12899030338939
 10
-21.039988472408425
 20
5.925441938824703
 10
-21.479189887723297
 20
5.721734886122298
 10
-21.914851047253745
 20
5.517735820695651
 10
-22.34699178701698
 20
5.3130069392621015
 10
-22.775630100518885
 20
5.108119369690832
 10
-23.200879476328787
 20
4.903473085741408
 10
-23.62241744224463
 20
4.698439294004325
 10
-24.04037732285294
 20
4.4929801649564824
 10
-24.454568128026892
 20
4.2874380068171245
 10
-24.865123182352992
 20
4.081774990063152
 10
-25.272080315354355
 20
3.876124439281083
 10
-25.67519271387514
 20
3.6701242102344582
 10
-26.074536036961565
 20
3.4640409520963185
 10
-26.47011028461362
 20
3.257874664866665
 10
-26.862066774923715
 20
3.052158646891583
 10
-27.250101029195715
 20
2.846835232630755
 10
-27.63436620803334
 20
2.641428789278412
 10
-28.014653327803877
 20
2.435710497184614
 10
-28.390980382013215
 20
2.2302514842185475
 10
-28.763556354294064
 20
2.0252805700301546
 10
-29.132096601967508
 20
1.8203022857964533
 10
-29.49654345949323
 20
1.6156211102135838
 10
-29.857201405567363
 20
1.4112947088218681
 10
-30.21380379101688
 20
1.2073987406675089
 10
-30.56623712727246
 20
1.003533231990939
 10
-30.91461490290342
 20
0.8000981565517267
 10
-31.258974947432858
 20
0.597226838936388
 10
-31.599279431337674
 20
0.39478595455840715
 10
-31.935395030031337
 20
0.19281333294088643
 10
-32.26728391399076
 20
-0.008824350502701783
 10
-32.59511723732555
 20
-0.21003160070892896
 10
-32.9186283508627
 20
-0.4107327586316018
 10
-33.237892913648366
 20
-0.6106611750976695
 10
-33.55310191580941
 20
-0.8101591583263814
 10
-33.86385538358627
 20
-1.0091132197484345
 10
-34.17024881204237
 20
-1.2076945134734443
 10
-34.4724335192701
 20
-1.405369741155333
 10
-34.77040950526948
 20
-1.6021389027940973
 10
-35.06396778640776
 20
-1.7982308180396802
 10
-35.353070533161855
 20
-1.9937788114786013
 10
-35.63781324059519
 20
-2.188954037220482
 10
-35.91811840715023
 20
-2.383014213286514
 10
-36.19408152789039
 20
-2.576130493786324
 10
-36.46562694376944
 20
-2.768569527892945
 10
-36.7326213302009
 20
-2.9602934860832852
 10
-36.99514034623096
 20
-3.1510357191842964
 10
-37.253108332813426
 20
-3.341062876369022
 10
-37.506563119471366
 20
-3.530241633050942
 10
-37.75554253572792
 20
-3.7184386646435352
 10
-37.99983759795033
 20
-3.9058827907967397
 10
-38.23956179470794
 20
-4.092174037750993
 10
-38.474697132494825
 20
-4.277883533375483
 10
-38.7052616048169
 20
-4.462440149801022
 10
-38.931217382151054
 20
-4.645977211614133
 10
-39.15252663497417
 20
-4.828628043401333
 10
-39.369056038699746
 20
-5.010354815639523
 10
-39.5809767474374
 20
-5.191062033265285
 10
-39.788268925169916
 20
-5.37031189299595
 10
-39.99085691285109
 20
-5.548371044004562
 10
-40.188740710480914
 20
-5.72523948629112
 10
-40.38209147216903
 20
-5.900821724792208
 10
-40.570604719219276
 20
-6.075175425048141
 10
-40.75448943526438
 20
-6.2480717674089785
 10
-40.93368795476404
 20
-6.419206273178577
 10
-41.108333602304775
 20
-6.588616771880037
 10
-41.27821739425383
 20
-6.756532083163299
 10
-41.44351048472085
 20
-6.922856711964946
 10
-41.60394622453282
 20
-7.087514999238772
 10
-41.75986692190893
 20
-7.250315954857941
 10
-41.91104375719928
 20
-7.4110505951897245
 10
-42.057534395944174
 20
-7.570023398930268
 10
-42.1993388381436
 20
-7.72723436607957
 10
-42.3364570837976
 20
-7.882683496637637
 10
-42.4688314673658
 20
-8.036066311908314
 10
-42.59646198884823
 20
-8.187382811891613
 10
-42.71936848426213
 20
-8.337070799870192
 10
-42.83753111759024
 20
-8.484692472561386
 10
-42.95079857074017
 20
-8.63078112831128
 10
-43.059322161804324
 20
-8.77480346877379
 10
-43.162950572690306
 20
-8.917292792295003
 10
-43.26175946244431
 20
-9.057982449701871
 10
-43.35574883106635
 20
-9.196872440994401
 10
-43.44474752444676
 20
-9.334058261236006
 10
-43.529097850804845
 20
-9.469348920299849
 10
-43.6082863478117
 20
-9.60303090337619
 10
-43.682788648273096
 20
-9.734951049861293
 10
-43.7523002734929
 20
-9.86516702529547
 10
-43.8169347120404
 20
-9.993278855919161
 10
-43.87674962945594
 20
-10.119591020428514
 10
-43.93164953067607
 20
-10.243932364713901
 10
-43.981785733793224
 20
-10.365769590429235
 10
-44.027178074824604
 20
-10.485540500857189
 10
-44.06776888822989
 20
-10.602940617301615
 10
-44.1036338330553
 20
-10.717703290589466
 10
-44.13492422739322
 20
-10.829295222374661
 10
-44.16164007124368
 20
-10.937716412657208
 10
-44.18399034823939
 20
-11.042738041787153
 10
-44.2018975568228
 20
-11.143617827785695
 10
-44.21564633967288
 20
-11.23986030182985
 10
-44.22574831660713
 20
-11.330170047577507
 10
-44.232201645114245
 20
-11.413538133876813
 10
-44.23574492215039
 20
-11.487869196866537
 10
-44.23711674467171
 20
-11.551067872685438
 10
-44.2369583720596
 20
-11.599858712210805
 10
-44.23634886697814
 20
-11.630946430302714
 10
-43.99711355197642
 20
-12.483742623698264
 10
-43.99265107915431
 20
-12.489823416671902
 10
-43.979301490211085
 20
-12.507932471006294
 10
-43.95721610323915
 20
-12.537536488355357
 10
-43.925618491759245
 20
-12.580864157166847
 10
-43.88398088495927
 20
-12.640790952803913
 10
-43.834137093454025
 20
-12.710346167244355
 10
-43.77712650787315
 20
-12.785358908782912
 10
-43.71370756118999
 20
-12.864171616841015
 10
-43.64454134880321
 20
-12.94394664557862
 10
-43.56983501183418
 20
-13.023446244193932
 10
-43.49004434707145
 20
-13.102079448800547
 10
-43.40518734802093
 20
-13.179275131529286
 10
-43.31541533277501
 20
-13.25449999403406
 10
-43.2208039603799
 20
-13.327487387141822
 10
-43.121353230835595
 20
-13.398237310852581
 10
-43.01723429825172
 20
-13.466654270102913
 10
-42.908389497087974
 20
-13.532433786196671
 10
-42.79478099782123
 20
-13.595709183720382
 10
-42.67657995456113
 20
-13.656384967610625
 10
-42.55357738367493
 20
-13.71468995751734
 10
-42.42581111468576
 20
-13.770490828854005
 10
-42.29362345581284
 20
-13.823596591493782
 10
-42.15650094472731
 20
-13.87429373062693
 10
-42.01488138471184
 20
-13.922562410236232
 10
-41.86846029707028
 20
-13.968460295862004
 10
-41.71740883591225
 20
-14.011891892440827
 10
-41.561764830760865
 20
-14.052723875386187
 10
-41.401414793046804
 20
-14.091356218457639
 10
-41.23643438181628
 20
-14.127522272482143
 10
-41.06667227897688
 20
-14.161755335805786
 10
-40.89224197309791
 20
-14.193655434668997
 10
-40.71320112971971
 20
-14.223527047767933
 10
-40.52941642425572
 20
-14.251332345579483
 10
-40.34081219765975
 20
-14.277337977276689
 10
-40.14755960404144
 20
-14.301448447796139
 10
-39.94962081387767
 20
-14.323797081724347
 10
-39.74699582716845
 20
-14.344383879061313
 10
-39.53943783075794
 20
-14.363570984043504
 10
-39.32725130334229
 20
-14.381300731130597
 10
-39.11020742527156
 20
-14.39736413668987
 10
-38.88857284571881
 20
-14.41183685976753
 10
-38.66213858105129
 20
-14.42494772001351
 10
-38.43103795585553
 20
-14.436734546950916
 10
-38.195175475068105
 20
-14.447026186470126
 10
-37.95476012232175
 20
-14.455593818921198
 10
-37.70962074350685
 20
-14.462532939367552
 10
-37.459986158273324
 20
-14.468052531441915
 10
-37.20572304203466
 20
-14.47211476562118
 10
-36.94683139479086
 20
-14.47471964190535
 10
-36.68342470511123
 20
-14.47546718653486
 10
-36.41563629758229
 20
-14.474395229032817
 10
-36.14333284761751
 20
-14.471465939876115
 10
-35.86657202075722
 20
-14.466983797760896
 10
-35.58535381700141
 20
-14.460948802687165
 10
-35.2998295544425
 20
-14.452827656308836
 10
-35.0100568986208
 20
-14.44292483732205
 10
-34.715940354472906
 20
-14.431069191617187
 10
-34.41744209247568
 20
-14.417394043780767
 10
-34.11469543721568
 20
-14.401937223335894
 10
-33.80773821821598
 20
-14.384565405696044
 10
-33.4965326059535
 20
-14.365411915447742
 10
-33.18107860042822
 20
-14.344476752590984
 10
-32.86141403116327
 20
-14.321626592539253
 10
-32.53763439322204
 20
-14.297032589402166
 10
-32.20973968660455
 20
-14.270694743179726
 10
-31.877634416247364
 20
-14.242441899762316
 10
-31.541509572277338
 20
-14.212616367369172
 10
-31.201269659631038
 20
-14.181046991890677
 10
-30.856876848785365
 20
-14.14786709791335
 10
-30.508502293849947
 20
-14.112981190373777
 10
-30.156259483394095
 20
-14.075989295512388
 10
-29.800034928848486
 20
-14.037291387088745
 10
-29.43961964658041
 20
-13.997116284752796
 10
-29.075451439872534
 20
-13.955444152487324
 10
-28.707339318598
 20
-13.911932682073077
 10
-28.33532111227993
 20
-13.86644854892354
 10
-27.959587811045157
 20
-13.819334061257955
 10
-27.579968260784057
 20
-13.770684714139744
 10
-27.19653812054283
 20
-13.720233858395865
 10
-26.809430714908
 20
-13.668019323549416
 10
-26.41868387340267
 20
-13.61390778501388
 10
-26.024184107457536
 20
-13.55829921654882
 10
-25.6260070761188
 20
-13.500926968981194
 10
-25.22407712034025
 20
-13.442057691484042
 10
-24.818774377864244
 20
-13.381367069344005
 10
-24.409794369994643
 20
-13.318912768101402
 10
-23.997270421317957
 20
-13.254732617279336
 10
-23.581298026897603
 20
-13.188997770987424
 10
-23.161819521193276
 20
-13.121403750529527
 10
-22.738892569745285
 20
-13.05225503460179
 10
-22.312688326663253
 20
-12.98145612814079
 10
-21.88301580182035
 20
-12.908664722927286
 10
-21.450141644389607
 20
-12.833956478007478
 10
-21.01395236580172
 20
-12.75773136714093
 10
-20.5744479660567
 20
-12.679989390327643
 10
-20.13162844515453
 20
-12.600730547567613
 10
-19.685740616251053
 20
-12.519592694624388
 10
-19.236860138392462
 20
-12.436309182324916
 10
-18.78470236889984
 20
-12.351375479492186
 10
-18.32953395694621
 20
-12.264867245172397
 10
-17.871297236991268
 20
-12.176480000669406
 10
-17.410201192667746
 20
-12.085984926333275
 10
-16.946132335406322
 20
-11.993781995923568
 10
-16.479148330747325
 20
-11.900175688136427
 10
-16.009191513150434
 20
-11.804861524275708
 10
-15.536375371184949
 20
-11.707439530581848
 10
-15.060890894977717
 20
-11.608252015274093
 10
-14.58270025500563
 20
-11.507432302938966
 10
-14.101536802095652
 20
-11.40490473453026
 10
-13.617838339530442
 20
-11.300649474030761
 10
-13.131547201769692
 20
-11.194362042744329
 10
-12.64266338881339
 20
-11.086042440670955
 10
-12.15128239572496
 20
-10.975861821920269
 10
-11.657215074888896
 20
-10.864486809424877
 10
-11.160708239461018
 20
-10.751555258948315
 10
-10.661779882947219
 20
-10.636496042621397
 10
-10.160392175824397
 20
-10.519442485030645
 10
-9.656811767265589
 20
-10.40047024522226
 10
-9.150754014591875
 20
-10.280074792019231
 10
-8.642427901435967
 20
-10.158027305771611
 10
-8.131833427797876
 20
-10.034327786479404
 10
-7.6190462527237965
 20
-9.908709584969564
 10
-7.104028546690641
 20
-9.781306025828618
 10
-6.586971299825236
 20
-9.652459417275809
 10
-6.067683522000753
 20
-9.52182745109189
 10
-5.5465075214364195
 20
-9.389219137150024
 10
-5.023405468609143
 20
-9.254767800036728
 10
-4.498339533995834
 20
-9.11860676433853
 10
-3.971214222533061
 20
-8.980564875945804
 10
-3.4425051670266016
 20
-8.840488974254814
 10
-2.9121168724130166
 20
-8.698207905155934
 10
-2.3796890369671875
 20
-8.554483786645193
 10
-1.8455261393852618
 20
-8.409258953182274
 10
-1.30998848139236
 20
-8.261771286771147
 10
-0.7726959252461485
 20
-8.112345102125177
 10
-0.23374396601003816
 20
-7.961151553353984
 10
0.30652508809672746
 20
-7.807999650330731
 10
0.8483400567240853
 20
-7.652680409422692
 10
1.3914342906989898
 20
-7.495269489676073
 10
1.936092432700376
 20
-7.336262359913856
 10
2.482105499095506
 20
-7.1754302004861
 10
3.0291510176823704
 20
-7.012144217983299
 10
3.577475801616781
 20
-6.846766556641918
 10
4.127097844404628
 20
-6.679868344331142
 10
4.67777033289008
 20
-6.511087436814513
 10
5.22958876213657
 20
-6.340252679982401
 10
5.78249546660376
 20
-6.167668552530958
 10
6.336339128199254
 20
-5.992801756114095
 10
6.891119746923058
 20
-5.81565229073181
 10
7.446855316281049
 20
-5.636791284253295
 10
8.003450341209808
 20
-5.456389890788171
 10
8.561000316772766
 20
-5.274276956226811
 10
9.119258429814078
 20
-5.090090336332761
 10
9.678300339379962
 20
-4.904096680279057
 10
10.238126045470418
 20
-4.7162959880657
 10
10.79860222349891
 20
-4.526726089215798
 10
11.359615384896143
 20
-4.3349870099697805
 10
11.921241188708324
 20
-4.1413453995006915
 10
12.483364303854813
 20
-3.9464102152008222
 10
13.046213549985545
 20
-3.749972473437447
 10
13.609408789358186
 20
-3.5517078594972036
 10
14.173121176082352
 20
-3.351711868443511
 10
14.737084060985003
 20
-3.1500601593225785
 10
15.301468598175752
 20
-2.946848227197821
 10
15.86623695813151
 20
-2.741942747482718
 10
16.431160321202327
 20
-2.5355527038099956
 10
16.996447671020942
 20
-2.327906915829592
 10
17.56206117806423
 20
-2.11887205895499
 10
18.127696363636073
 20
-1.908390467645868
 10
18.69352438184607
 20
-1.696557636965648
 10
19.25948756715392
 20
-1.4836780456104741
 10
19.82556792605373
 20
-1.2691805657111617
 10
20.39157446841868
 20
-1.0534075054869474
 10
20.957582853294937
 20
-0.8366255141108875
 10
21.523555251159422
 20
-0.618701266996453
 10
22.089416002965933
 20
-0.39936811497060104
 10
22.65524076776067
 20
-0.17889270720637632
 10
23.220838555416794
 20
0.04238264807697391
 10
23.786267031474615
 20
0.2647624295755952
 10
24.351506359916936
 20
0.4878088340068244
 10
24.916443052174444
 20
0.7119218351302238
 10
25.481039278724012
 20
0.9372347575323091
 10
26.045370698611883
 20
1.1634809520400455
 10
26.60928415123429
 20
1.3901847858476608
 10
27.172912961177783
 20
1.6173840884782595
 10
27.736010315286507
 20
1.8454410041682998
 10
28.298614043083578
 20
2.074222208331264
 10
28.860724144568994
 20
2.3037277009671513
 10
29.422378449265864
 20
2.53382415748944
 10
29.98327247847803
 20
2.764569243438449
 10
30.543577386315135
 20
2.995867463750758
 10
31.103197677713723
 20
3.227547664316736
 10
31.662342336306562
 20
3.4593810254864557
 10
32.22059339482817
 20
3.691825186559788
 10
32.77798868280167
 20
3.92474682295022
 10
33.33485067242909
 20
4.15751714124824
 10
33.89068573739876
 20
4.390860429926777
 10
34.44545604818759
 20
4.624910013572345
 10
34.99952190652072
 20
4.858903774188929
 10
35.552692322271305
 20
5.092499403557275
 10
36.10487364288725
 20
5.326534678719614
 10
36.65597037330512
 20
5.5608384455663185
 10
37.20584918893843
 20
5.795372874574298
 10
37.7547190734199
 20
6.029909146093604
 10
38.302484531686076
 20
6.264276106014607
 10
38.84918339326009
 20
6.498340429750802
 10
39.39460667450922
 20
6.732330936952113
 10
39.93867871638722
 20
6.96651427679159
 10
40.48151300746346
 20
7.200490475509675
 10
41.023109547737896
 20
7.434259533106357
 10
41.56323951756061
 20
7.667612465948919
 10
42.10216956610461
 20
7.900624933083557
 10
42.63951955562759
 20
8.13362124922364
 10
43.17532731565263
 20
8.36646808978264
 10
43.70978199379523
 20
8.59849883182795
 10
44.242845760532326
 20
8.829846799946102
 10
44.77417630764464
 20
9.060702984263925
 10
45.30407811382832
 20
9.2910097192411
 10
45.83224670038722
 20
9.520824670417948
 10
46.358815391907875
 20
9.750185667317568
 10
46.883726522849955
 20
9.978788231243824
 10
47.40684676862694
 20
10.206594532673606
 10
47.92838511287157
 20
10.433375751956977
 10
48.44796141784146
 20
10.659456203807292
 10
48.96584233270971
 20
10.884911547270763
 10
49.481723378780124
 20
11.1097994478877
 10
49.99583153319132
 20
11.333319958138972
 10
50.508033471356825
 20
11.55543524850149
 10
51.018368865311
 20
11.777020925540574
 10
51.52639991177123
 20
11.998096825273448
 10
52.03269589609537
 20
12.217672010054144
 10
52.536952339587245
 20
12.435804145422972
 10
53.03901792415447
 20
12.653026529726027
 10
53.538892649797035
 20
12.869339162963294
 10
54.03661434603806
 20
13.084608720548271
 10
54.532372160493026
 20
13.298168579548339
 10
55.025823784942716
 20
13.510209730090343
 10
55.517122379990845
 20
13.721207804980045
 10
56.0060012964644
 20
13.931087145171245
 10
56.49253619340953
 20
14.139581101490894
 10
56.9768027298725
 20
14.346423024765965
 10
57.45872524680707
 20
14.551879564169482
 10
57.938170419626715
 20
14.755912890178351
 10
58.415347231964176
 20
14.958294183142632
 10
58.889989034646426
 20
15.158947784016126
 10
59.36211566369065
 20
15.35831149608149
 10
59.83146046992381
 20
15.556309660292518
 10
60.29849908615169
 20
15.752789116045486
 10
60.76277387307441
 20
15.947331896074932
 10
61.22455147986499
 20
16.140013659427066
 10
61.68379407700036
 20
16.33096773068841
 10
62.14015935626122
 20
16.520385099985795
 10
62.59368514717073
 20
16.70813244273271
 10
63.044675928425015
 20
16.894152093388826
 10
63.4927695557876
 20
17.078197238798328
 10
63.9381750128912
 20
17.26003905931126
 10
64.38064548658004
 20
17.440039699164107
 10
64.82027647191751
 20
17.618370312466475
 10
65.25697247384016
 20
17.794859745108734
 10
65.69073349234803
 20
17.9695079970909
 10
66.12153969142389
 20
18.14187726513031
 10
66.54941090708498
 20
18.31240535250961
 10
66.97411831968128
 20
18.480883275596092
 10
67.39571959475322
 20
18.647615513085892
 10
67.81432822087002
 20
18.812202091219447
 10
68.22984870296833
 20
18.974471855887145
 10
68.64216755247877
 20
19.134824780848525
 10
69.05128476940138
 20
19.293260866103612
 10
69.45720035373614
 20
19.449780111652395
 10
69.85972331535625
 20
19.604040209275627
 10
70.25919596248093
 20
19.75585016884647
 10
70.65529582290816
 20
19.90583878377443
 10
71.04792740157451
 20
20.053834899949884
 10
71.4372240230665
 20
20.199876346895934
 10
71.82312802184381
 20
20.343658645916435
 10
72.20546824379683
 20
20.485277292074805
 10
72.58447350857548
 20
20.624941269003763
 10
72.95999065557605
 20
20.762174943897556
 10
73.33194402575232
 20
20.89724496592921
 10
73.7003714486274
 20
21.030018010512222
 10
74.06515943563201
 20
21.160894051406146
 10
74.42638364581228
 20
21.289606439437932
 10
74.78391075458174
 20
21.41611734508449
 10
75.1377785914635
 20
21.540293443759296
 10
75.48808265152095
 20
21.662305889571968
 10
75.83451845605796
 20
21.782212348062828
 10
76.17708600507453
 20
21.90001281923187
 10
76.51595645268029
 20
22.015611808015684
 10
76.85116762839834
 20
22.128875989827748
 10
77.18233939448632
 20
22.24012967938141
 10
77.50960507553076
 20
22.349410706199784
 10
77.83307816010095
 20
22.456319096523302
 10
78.15258749408729
 20
22.560950345415378
 10
78.46805741844356
 20
22.663571102049065
 10
78.77969691680251
 20
22.763952546774412
 10
79.08727716951415
 20
22.861885695958698
 10
79.39085584211887
 20
22.95767502829808
 10
79.69039510509349
 20
23.05145386837906
 10
79.98576163385152
 20
23.14318438667854
 10
80.27703108743923
 20
23.23259993402349
 10
80.5641656363334
 20
23.319833835000413
 10
80.84708962148791
 20
23.40515273878237
 10
81.1258408724258
 20
23.488423320782818
 10
81.40036172360682
 20
23.569341102305632
 10
81.67065217503094
 20
23.647906083350808
 10
81.93669423319223
 20
23.724689391787514
 10
82.19839240302736
 20
23.79951987350616
 10
82.45574668453625
 20
23.872397528506724
 10
82.70879490724207
 20
23.94318903220269
 10
82.95740374655821
 20
24.01185655507095
 10
83.2017065270713
 20
24.078437926634614
 10
83.44149426514853
 20
24.143161966543627
 10
83.67684261983611
 20
24.205762025624924
 10
83.90767593208793
 20
24.266504753051578
 10
84.13420318553658
 20
24.32516132917362
 10
84.35608207196289
 20
24.381922744117908
 10
84.57340808643028
 20
24.43696015199406
 10
84.78608573387531
 20
24.490102398692446
 10
84.99428616840761
 20
24.541253989149652
 10
85.19780040639445
 20
24.59064374301562
 10
85.39683743146857
 20
24.638042840640413
 10
85.59101710588762
 20
24.683775596737384
 10
85.78064390834771
 20
24.727784345766207
 10
85.96545118967583
 20
24.769993428680696
 10
86.14557227445852
 20
24.810440675003953
 10
86.32100716269572
 20
24.84912608473596
 10
86.49171802486438
 20
24.886182982463254
 10
86.65760936590108
 20
24.921440214076203
 10
86.81860552675957
 20
24.955164428747853
 10
86.97487766154951
 20
24.987260131414782
 10
87.1262546161613
 20
25.017822817140416
 10
87.27277422011801
 20
25.04671916133823
 10
87.41439864389648
 20
25.074082488594737
 10
87.55116571701993
 20
25.099779474323434
 10
87.68303760996518
 20
25.12394344311082
 10
87.80993866368604
 20
25.14684104412996
 10
87.93181121264224
 20
25.1681677986847
 10
88.04888407648362
 20
25.188132690407755
 10
88.1607194519276
 20
25.20675555531635
 10
88.26775514225683
 20
25.224016557393274
 10
88.36972449829824
 20
25.23984003759231
 10
88.46655186100564
 20
25.25449264508651
 10
88.55840838448866
 20
25.267878884812454
 10
88.6451607441608
 20
25.27996092724704
 10
88.7267332809758
 20
25.29100542156331
 10
88.80333497856644
 20
25.300783548111323
 10
88.87475685329994
 20
25.309524126541014
 10
88.94103673469944
 20
25.31709383226587
 10
89.00209896371875
 20
25.323759314458936
 10
89.05798136988092
 20
25.329387248533674
 10
89.10877944824942
 20
25.334148788599723
 10
89.15422654965118
 20
25.33796827561088
 10
89.19441816914963
 20
25.341016863676753
 10
89.22948763133128
 20
25.343332382320455
 10
89.25916828702312
 20
25.344839172495785
 10
89.2835178017654
 20
25.34584171289888
 10
89.3027073296678
 20
25.34624450846632
 10
89.31639456251108
 20
25.346238549324955
 10
89.32467499535865
 20
25.3459949895844
 10
89.32747296916423
 20
25.34578047841769
  0
ENDSEC
  0
SECTION
  2
OBJECTS
  0
DICTIONARY
  5
A
330
0
100
AcDbDictionary
280
0
281
1
  3
ACAD_COLOR
350
B
  3
ACAD_GROUP
350
C
  3
ACAD_LAYOUT
350
D
  3
ACAD_MATERIAL
350
E
  3
ACAD_MLEADERSTYLE
350
F
  3
ACAD_MLINESTYLE
350
10
  3
ACAD_PLOTSETTINGS
350
11
  3
ACAD_PLOTSTYLENAME
350
12
  3
ACAD_SCALELIST
350
14
  3
ACAD_TABLESTYLE
350
15
  3
ACAD_VISUALSTYLE
350
16
  3
EZDXF_META
350
2D
  0
DICTIONARY
  5
B
330
A
100
AcDbDictionary
280
0
281
1
  0
DICTIONARY
  5
C
330
A
100
AcDbDictionary
280
0
281
1
  0
DICTIONARY
  5
D
330
A
100
AcDbDictionary
280
0
281
1
  3
Model
350
1A
  3
Layout1
350
1E
  0
DICTIONARY
  5
E
330
A
100
AcDbDictionary
280
0
281
1
  3
ByBlock
350
1F
  3
ByLayer
350
20
  3
Global
350
21
  0
DICTIONARY
  5
F
330
A
100
AcDbDictionary
280
0
281
1
  3
Standard
350
2C
  0
DICTIONARY
  5
10
330
A
100
AcDbDictionary
280
0
281
1
  3
Standard
350
22
  0
DICTIONARY
  5
11
330
A
100
AcDbDictionary
280
0
281
1
  0
ACDBDICTIONARYWDFLT
  5
12
330
A
100
AcDbDictionary
280
0
281
1
  3
Normal
350
13
100
AcDbDictionaryWithDefault
340
13
  0
ACDBPLACEHOLDER
  5
13
330
12
  0
DICTIONARY
  5
14
330
A
100
AcDbDictionary
280
0
281
1
  0
DICTIONARY
  5
15
330
A
100
AcDbDictionary
280
0
281
1
  0
DICTIONARY
  5
16
330
A
100
AcDbDictionary
280
0
281
1
  0
LAYOUT
  5
1A
330
D
100
AcDbPlotSettings
  1

  4
A3
  6

 40
7.5
 41
20.0
 42
7.5
 43
20.0
 44
420.0
 45
297.0
 46
0.0
 47
0.0
 48
0.0
 49
0.0
140
0.0
141
0.0
142
1.0
143
1.0
 70
1024
 72
1
 73
0
 74
5
  7

 75
16
 76
0
 77
2
 78
300
147
1.0
148
0.0
149
0.0
100
AcDbLayout
  1
Model
 70
1
 71
0
 10
0.0
 20
0.0
 11
420.0
 21
297.0
 12
0.0
 22
0.0
 32
0.0
 14
1e+20
 24
1e+20
 34
1e+20
 15
-1e+20
 25
-1e+20
 35
-1e+20
146
0.0
 13
0.0
 23
0.0
 33
0.0
 16
1.0
 26
0.0
 36
0.0
 17
0.0
 27
1.0
 37
0.0
 76
1
330
17
  0
LAYOUT
  5
1E
330
D
100
AcDbPlotSettings
  1

  4
A3
  6

 40
7.5
 41
20.0
 42
7.5
 43
20.0
 44
420.0
 45
297.0
 46
0.0
 47
0.0
 48
0.0
 49
0.0
140
0.0
141
0.0
142
1.0
143
1.0
 70
0
 72
1
 73
0
 74
5
  7

 75
16
 76
0
 77
2
 78
300
147
1.0
148
0.0
149
0.0
100
AcDbLayout
  1
Layout1
 70
1
 71
1
 10
0.0
 20
0.0
 11
420.0
 21
297.0
 12
0.0
 22
0.0
 32
0.0
 14
1e+20
 24
1e+20
 34
1e+20
 15
-1e+20
 25
-1e+20
 35
-1e+20
146
0.0
 13
0.0
 23
0.0
 33
0.0
 16
1.0
 26
0.0
 36
0.0
 17
0.0
 27
1.0
 37
0.0
 76
1
330
1B
  0
MATERIAL
  5
1F
102
{ACAD_REACTORS
330
E
102
}
330
E
100
AcDbMaterial
  1
ByBlock
  2

 70
0
 40
1.0
 71
1
 41
1.0
 91
-1023410177
 42
1.0
 72
1
  3

 73
1
 74
1
 75
1
 44
0.5
 73
0
 45
1.0
 46
1.0
 77
1
  4

 78
1
 79
1
170
1
 48
1.0
171
1
  6

172
1
173
1
174
1
140
1.0
141
1.0
175
1
  7

176
1
177
1
178
1
143
1.0
179
1
  8

270
1
271
1
272
1
145
1.0
146
1.0
273
1
  9

274
1
275
1
276
1
 42
1.0
 72
1
  3

 73
1
 74
1
 75
1
 94
63
  0
MATERIAL
  5
20
102
{ACAD_REACTORS
330
E
102
}
330
E
100
AcDbMaterial
  1
ByLayer
  2

 70
0
 40
1.0
 71
1
 41
1.0
 91
-1023410177
 42
1.0
 72
1
  3

 73
1
 74
1
 75
1
 44
0.5
 73
0
 45
1.0
 46
1.0
 77
1
  4

 78
1
 79
1
170
1
 48
1.0
171
1
  6

172
1
173
1
174
1
140
1.0
141
1.0
175
1
  7

176
1
177
1
178
1
143
1.0
179
1
  8

270
1
271
1
272
1
145
1.0
146
1.0
273
1
  9

274
1
275
1
276
1
 42
1.0
 72
1
  3

 73
1
 74
1
 75
1
 94
63
  0
MATERIAL
  5
21
102
{ACAD_REACTORS
330
E
102
}
330
E
100
AcDbMaterial
  1
Global
  2

 70
0
 40
1.0
 71
1
 41
1.0
 91
-1023410177
 42
1.0
 72
1
  3

 73
1
 74
1
 75
1
 44
0.5
 73
0
 45
1.0
 46
1.0
 77
1
  4

 78
1
 79
1
170
1
 48
1.0
171
1
  6

172
1
173
1
174
1
140
1.0
141
1.0
175
1
  7

176
1
177
1
178
1
143
1.0
179
1
  8

270
1
271
1
272
1
145
1.0
146
1.0
273
1
  9

274
1
275
1
276
1
 42
1.0
 72
1
  3

 73
1
 74
1
 75
1
 94
63
  0
MLINESTYLE
  5
22
102
{ACAD_REACTORS
330
10
102
}
330
10
100
AcDbMlineStyle
  2
Standard
 70
0
  3

 62
256
 51
90.0
 52
90.0
 71
2
 49
0.5
 62
256
  6
BYLAYER
 49
-0.5
 62
256
  6
BYLAYER
  0
MLEADERSTYLE
  5
2C
102
{ACAD_REACTORS
330
F
102
}
330
F
100
AcDbMLeaderStyle
179
2
170
2
171
1
172
0
 90
2
 40
0.0
 41
0.0
173
1
 91
-1056964608
 92
-2
290
1
 42
2.0
291
1
 43
8.0
  3
Standard
 44
4.0
300

342
29
174
1
175
1
176
0
178
1
 93
-1056964608
 45
4.0
292
0
297
0
 46
4.0
 94
-1056964608
 47
1.0
 49
1.0
140
1.0
294
1
141
0.0
177
0
142
1.0
295
0
296
0
143
3.75
271
0
272
9
273
9
  0
DICTIONARY
  5
2D
330
A
100
AcDbDictionary
280
1
281
1
  3
CREATED_BY_EZDXF
350
2E
  3
WRITTEN_BY_EZDXF
350
32
  0
DICTIONARYVAR
  5
2E
330
2D
100
DictionaryVariables
280
0
  1
1.3.5 @ 2025-08-20T01:05:13.527485+00:00
  0
DICTIONARYVAR
  5
32
330
2D
100
DictionaryVariables
280
0
  1
1.3.5 @ 2025-08-20T01:05:13.532445+00:00
  0
ENDSEC
  0
EOF
