  0
SECTION
  2
HEADER
  9
$ACADVER
  1
AC1032
  9
$ACADMAINTVER
 90
4
  9
$DWGCODEPAGE
  3
ANSI_1252
  9
$LASTSAVEDBY
  1
ezdxf
  9
$REQUIREDVERSIONS
160
0
  9
$INSBASE
 10
0.0
 20
0.0
 30
0.0
  9
$EXTMIN
 10
1e+20
 20
1e+20
 30
1e+20
  9
$EXTMAX
 10
-1e+20
 20
-1e+20
 30
-1e+20
  9
$LIMMIN
 10
0.0
 20
0.0
  9
$LIMMAX
 10
420.0
 20
297.0
  9
$ORTHOMODE
 70
0
  9
$REGENMODE
 70
1
  9
$FILLMODE
 70
1
  9
$QTEXTMODE
 70
0
  9
$MIRRTEXT
 70
1
  9
$LTSCALE
 40
1.0
  9
$ATTMODE
 70
1
  9
$TEXTSIZE
 40
2.5
  9
$TRACEWID
 40
1.0
  9
$TEXTSTYLE
  7
Standard
  9
$CLAYER
  8
0
  9
$CELTYPE
  6
ByLayer
  9
$CECOLOR
 62
256
  9
$CELTSCALE
 40
1.0
  9
$DISPSILH
 70
0
  9
$DIMSCALE
 40
1.0
  9
$DIMASZ
 40
2.5
  9
$DIMEXO
 40
0.625
  9
$DIMDLI
 40
3.75
  9
$DIMRND
 40
0.0
  9
$DIMDLE
 40
0.0
  9
$DIMEXE
 40
1.25
  9
$DIMTP
 40
0.0
  9
$DIMTM
 40
0.0
  9
$DIMTXT
 40
2.5
  9
$DIMCEN
 40
2.5
  9
$DIMTSZ
 40
0.0
  9
$DIMTOL
 70
0
  9
$DIMLIM
 70
0
  9
$DIMTIH
 70
0
  9
$DIMTOH
 70
0
  9
$DIMSE1
 70
0
  9
$DIMSE2
 70
0
  9
$DIMTAD
 70
1
  9
$DIMZIN
 70
8
  9
$DIMBLK
  1

  9
$DIMASO
 70
1
  9
$DIMSHO
 70
1
  9
$DIMPOST
  1

  9
$DIMAPOST
  1

  9
$DIMALT
 70
0
  9
$DIMALTD
 70
3
  9
$DIMALTF
 40
0.03937007874
  9
$DIMLFAC
 40
1.0
  9
$DIMTOFL
 70
1
  9
$DIMTVP
 40
0.0
  9
$DIMTIX
 70
0
  9
$DIMSOXD
 70
0
  9
$DIMSAH
 70
0
  9
$DIMBLK1
  1

  9
$DIMBLK2
  1

  9
$DIMSTYLE
  2
ISO-25
  9
$DIMCLRD
 70
0
  9
$DIMCLRE
 70
0
  9
$DIMCLRT
 70
0
  9
$DIMTFAC
 40
1.0
  9
$DIMGAP
 40
0.625
  9
$DIMJUST
 70
0
  9
$DIMSD1
 70
0
  9
$DIMSD2
 70
0
  9
$DIMTOLJ
 70
0
  9
$DIMTZIN
 70
8
  9
$DIMALTZ
 70
0
  9
$DIMALTTZ
 70
0
  9
$DIMUPT
 70
0
  9
$DIMDEC
 70
2
  9
$DIMTDEC
 70
2
  9
$DIMALTU
 70
2
  9
$DIMALTTD
 70
3
  9
$DIMTXSTY
  7
Standard
  9
$DIMAUNIT
 70
0
  9
$DIMADEC
 70
0
  9
$DIMALTRND
 40
0.0
  9
$DIMAZIN
 70
0
  9
$DIMDSEP
 70
44
  9
$DIMATFIT
 70
3
  9
$DIMFRAC
 70
0
  9
$DIMLDRBLK
  1

  9
$DIMLUNIT
 70
2
  9
$DIMLWD
 70
-2
  9
$DIMLWE
 70
-2
  9
$DIMTMOVE
 70
0
  9
$DIMFXL
 40
1.0
  9
$DIMFXLON
 70
0
  9
$DIMJOGANG
 40
0.785398163397
  9
$DIMTFILL
 70
0
  9
$DIMTFILLCLR
 70
0
  9
$DIMARCSYM
 70
0
  9
$DIMLTYPE
  6

  9
$DIMLTEX1
  6

  9
$DIMLTEX2
  6

  9
$DIMTXTDIRECTION
 70
0
  9
$LUNITS
 70
2
  9
$LUPREC
 70
4
  9
$SKETCHINC
 40
1.0
  9
$FILLETRAD
 40
10.0
  9
$AUNITS
 70
0
  9
$AUPREC
 70
2
  9
$MENU
  1
.
  9
$ELEVATION
 40
0.0
  9
$PELEVATION
 40
0.0
  9
$THICKNESS
 40
0.0
  9
$LIMCHECK
 70
0
  9
$CHAMFERA
 40
0.0
  9
$CHAMFERB
 40
0.0
  9
$CHAMFERC
 40
0.0
  9
$CHAMFERD
 40
0.0
  9
$SKPOLY
 70
0
  9
$TDCREATE
 40
2460908.0869675926
  9
$TDUCREATE
 40
2458532.153996898
  9
$TDUPDATE
 40
2460908.0869675926
  9
$TDUUPDATE
 40
2458532.1544311
  9
$TDINDWG
 40
0.0
  9
$TDUSRTIMER
 40
0.0
  9
$USRTIMER
 70
1
  9
$ANGBASE
 50
0.0
  9
$ANGDIR
 70
0
  9
$PDMODE
 70
0
  9
$PDSIZE
 40
0.0
  9
$PLINEWID
 40
0.0
  9
$SPLFRAME
 70
0
  9
$SPLINETYPE
 70
6
  9
$SPLINESEGS
 70
8
  9
$HANDSEED
  5
33
  9
$SURFTAB1
 70
6
  9
$SURFTAB2
 70
6
  9
$SURFTYPE
 70
6
  9
$SURFU
 70
6
  9
$SURFV
 70
6
  9
$UCSBASE
  2

  9
$UCSNAME
  2

  9
$UCSORG
 10
0.0
 20
0.0
 30
0.0
  9
$UCSXDIR
 10
1.0
 20
0.0
 30
0.0
  9
$UCSYDIR
 10
0.0
 20
1.0
 30
0.0
  9
$UCSORTHOREF
  2

  9
$UCSORTHOVIEW
 70
0
  9
$UCSORGTOP
 10
0.0
 20
0.0
 30
0.0
  9
$UCSORGBOTTOM
 10
0.0
 20
0.0
 30
0.0
  9
$UCSORGLEFT
 10
0.0
 20
0.0
 30
0.0
  9
$UCSORGRIGHT
 10
0.0
 20
0.0
 30
0.0
  9
$UCSORGFRONT
 10
0.0
 20
0.0
 30
0.0
  9
$UCSORGBACK
 10
0.0
 20
0.0
 30
0.0
  9
$PUCSBASE
  2

  9
$PUCSNAME
  2

  9
$PUCSORG
 10
0.0
 20
0.0
 30
0.0
  9
$PUCSXDIR
 10
1.0
 20
0.0
 30
0.0
  9
$PUCSYDIR
 10
0.0
 20
1.0
 30
0.0
  9
$PUCSORTHOREF
  2

  9
$PUCSORTHOVIEW
 70
0
  9
$PUCSORGTOP
 10
0.0
 20
0.0
 30
0.0
  9
$PUCSORGBOTTOM
 10
0.0
 20
0.0
 30
0.0
  9
$PUCSORGLEFT
 10
0.0
 20
0.0
 30
0.0
  9
$PUCSORGRIGHT
 10
0.0
 20
0.0
 30
0.0
  9
$PUCSORGFRONT
 10
0.0
 20
0.0
 30
0.0
  9
$PUCSORGBACK
 10
0.0
 20
0.0
 30
0.0
  9
$USERI1
 70
0
  9
$USERI2
 70
0
  9
$USERI3
 70
0
  9
$USERI4
 70
0
  9
$USERI5
 70
0
  9
$USERR1
 40
0.0
  9
$USERR2
 40
0.0
  9
$USERR3
 40
0.0
  9
$USERR4
 40
0.0
  9
$USERR5
 40
0.0
  9
$WORLDVIEW
 70
1
  9
$SHADEDGE
 70
3
  9
$SHADEDIF
 70
70
  9
$TILEMODE
 70
1
  9
$MAXACTVP
 70
64
  9
$PINSBASE
 10
0.0
 20
0.0
 30
0.0
  9
$PLIMCHECK
 70
0
  9
$PEXTMIN
 10
1e+20
 20
1e+20
 30
1e+20
  9
$PEXTMAX
 10
-1e+20
 20
-1e+20
 30
-1e+20
  9
$PLIMMIN
 10
0.0
 20
0.0
  9
$PLIMMAX
 10
420.0
 20
297.0
  9
$UNITMODE
 70
0
  9
$VISRETAIN
 70
1
  9
$PLINEGEN
 70
0
  9
$PSLTSCALE
 70
1
  9
$TREEDEPTH
 70
3020
  9
$CMLSTYLE
  2
Standard
  9
$CMLJUST
 70
0
  9
$CMLSCALE
 40
20.0
  9
$PROXYGRAPHICS
 70
1
  9
$MEASUREMENT
 70
1
  9
$CELWEIGHT
370
-1
  9
$ENDCAPS
280
0
  9
$JOINSTYLE
280
0
  9
$LWDISPLAY
290
0
  9
$INSUNITS
 70
6
  9
$HYPERLINKBASE
  1

  9
$STYLESHEET
  1

  9
$XEDIT
290
1
  9
$CEPSNTYPE
380
0
  9
$PSTYLEMODE
290
1
  9
$FINGERPRINTGUID
  2
{86F3A0E0-8DF2-4B72-A490-128FD9C8AEA4}
  9
$VERSIONGUID
  2
{733913EC-718C-4556-A3DC-521F086D6014}
  9
$EXTNAMES
290
1
  9
$PSVPSCALE
 40
0.0
  9
$OLESTARTUP
290
0
  9
$SORTENTS
280
127
  9
$INDEXCTL
280
0
  9
$HIDETEXT
280
1
  9
$XCLIPFRAME
280
1
  9
$HALOGAP
280
0
  9
$OBSCOLOR
 70
257
  9
$OBSLTYPE
280
0
  9
$INTERSECTIONDISPLAY
280
0
  9
$INTERSECTIONCOLOR
 70
257
  9
$DIMASSOC
280
2
  9
$PROJECTNAME
  1

  9
$CAMERADISPLAY
290
0
  9
$LENSLENGTH
 40
50.0
  9
$CAMERAHEIGHT
 40
0.0
  9
$STEPSPERSEC
 40
24.0
  9
$STEPSIZE
 40
100.0
  9
$3DDWFPREC
 40
2.0
  9
$PSOLWIDTH
 40
0.005
  9
$PSOLHEIGHT
 40
0.08
  9
$LOFTANG1
 40
1.570796326795
  9
$LOFTANG2
 40
1.570796326795
  9
$LOFTMAG1
 40
0.0
  9
$LOFTMAG2
 40
0.0
  9
$LOFTPARAM
 70
7
  9
$LOFTNORMALS
280
1
  9
$LATITUDE
 40
37.795
  9
$LONGITUDE
 40
-122.394
  9
$NORTHDIRECTION
 40
0.0
  9
$TIMEZONE
 70
-8000
  9
$LIGHTGLYPHDISPLAY
280
1
  9
$TILEMODELIGHTSYNCH
280
1
  9
$CMATERIAL
347
20
  9
$SOLIDHIST
280
0
  9
$SHOWHIST
280
1
  9
$DWFFRAME
280
2
  9
$DGNFRAME
280
2
  9
$REALWORLDSCALE
290
1
  9
$INTERFERECOLOR
 62
256
  9
$CSHADOW
280
0
  9
$SHADOWPLANELOCATION
 40
0.0
  0
ENDSEC
  0
SECTION
  2
CLASSES
  0
CLASS
  1
ACDBDICTIONARYWDFLT
  2
AcDbDictionaryWithDefault
  3
ObjectDBX Classes
 90
0
 91
0
280
0
281
0
  0
CLASS
  1
SUN
  2
AcDbSun
  3
SCENEOE
 90
1153
 91
0
280
0
281
0
  0
CLASS
  1
VISUALSTYLE
  2
AcDbVisualStyle
  3
ObjectDBX Classes
 90
4095
 91
0
280
0
281
0
  0
CLASS
  1
MATERIAL
  2
AcDbMaterial
  3
ObjectDBX Classes
 90
1153
 91
0
280
0
281
0
  0
CLASS
  1
SCALE
  2
AcDbScale
  3
ObjectDBX Classes
 90
1153
 91
0
280
0
281
0
  0
CLASS
  1
TABLESTYLE
  2
AcDbTableStyle
  3
ObjectDBX Classes
 90
4095
 91
0
280
0
281
0
  0
CLASS
  1
MLEADERSTYLE
  2
AcDbMLeaderStyle
  3
ACDB_MLEADERSTYLE_CLASS
 90
4095
 91
0
280
0
281
0
  0
CLASS
  1
DICTIONARYVAR
  2
AcDbDictionaryVar
  3
ObjectDBX Classes
 90
0
 91
0
280
0
281
0
  0
CLASS
  1
CELLSTYLEMAP
  2
AcDbCellStyleMap
  3
ObjectDBX Classes
 90
1152
 91
0
280
0
281
0
  0
CLASS
  1
MENTALRAYRENDERSETTINGS
  2
AcDbMentalRayRenderSettings
  3
SCENEOE
 90
1024
 91
0
280
0
281
0
  0
CLASS
  1
ACDBDETAILVIEWSTYLE
  2
AcDbDetailViewStyle
  3
ObjectDBX Classes
 90
1025
 91
0
280
0
281
0
  0
CLASS
  1
ACDBSECTIONVIEWSTYLE
  2
AcDbSectionViewStyle
  3
ObjectDBX Classes
 90
1025
 91
0
280
0
281
0
  0
CLASS
  1
RASTERVARIABLES
  2
AcDbRasterVariables
  3
ISM
 90
0
 91
0
280
0
281
0
  0
CLASS
  1
LAYOUT
  2
AcDbLayout
  3
ObjectDBX Classes
 90
0
 91
0
280
0
281
0
  0
CLASS
  1
ACDBPLACEHOLDER
  2
AcDbPlaceHolder
  3
ObjectDBX Classes
 90
0
 91
0
280
0
281
0
  0
ENDSEC
  0
SECTION
  2
TABLES
  0
TABLE
  2
VPORT
  5
8
330
0
100
AcDbSymbolTable
 70
1
  0
VPORT
  5
23
330
8
100
AcDbSymbolTableRecord
100
AcDbViewportTableRecord
  2
*Active
 70
0
 10
0.0
 20
0.0
 11
1.0
 21
1.0
 12
0.0
 22
0.0
 13
0.0
 23
0.0
 14
0.5
 24
0.5
 15
0.5
 25
0.5
 16
0.0
 26
0.0
 36
1.0
 17
0.0
 27
0.0
 37
0.0
 40
1000.0
 41
1.34
 42
50.0
 43
0.0
 44
0.0
 50
0.0
 51
0.0
 71
0
 72
1000
 73
1
 74
3
 75
0
 76
0
 77
0
 78
0
281
0
 65
0
146
0.0
  0
ENDTAB
  0
TABLE
  2
LTYPE
  5
2
330
0
100
AcDbSymbolTable
 70
3
  0
LTYPE
  5
24
330
2
100
AcDbSymbolTableRecord
100
AcDbLinetypeTableRecord
  2
ByBlock
 70
0
  3

 72
65
 73
0
 40
0.0
  0
LTYPE
  5
25
330
2
100
AcDbSymbolTableRecord
100
AcDbLinetypeTableRecord
  2
ByLayer
 70
0
  3

 72
65
 73
0
 40
0.0
  0
LTYPE
  5
26
330
2
100
AcDbSymbolTableRecord
100
AcDbLinetypeTableRecord
  2
Continuous
 70
0
  3

 72
65
 73
0
 40
0.0
  0
ENDTAB
  0
TABLE
  2
LAYER
  5
1
330
0
100
AcDbSymbolTable
 70
2
  0
LAYER
  5
27
330
1
100
AcDbSymbolTableRecord
100
AcDbLayerTableRecord
  2
0
 70
0
 62
7
  6
Continuous
370
-3
390
13
347
21
  0
LAYER
  5
28
330
1
100
AcDbSymbolTableRecord
100
AcDbLayerTableRecord
  2
Defpoints
 70
0
 62
7
  6
Continuous
290
0
370
-3
390
13
347
21
  0
ENDTAB
  0
TABLE
  2
STYLE
  5
5
330
0
100
AcDbSymbolTable
 70
1
  0
STYLE
  5
29
330
5
100
AcDbSymbolTableRecord
100
AcDbTextStyleTableRecord
  2
Standard
 70
0
 40
0.0
 41
1.0
 50
0.0
 71
0
 42
2.5
  3
txt
  4

  0
ENDTAB
  0
TABLE
  2
VIEW
  5
7
330
0
100
AcDbSymbolTable
 70
0
  0
ENDTAB
  0
TABLE
  2
UCS
  5
6
330
0
100
AcDbSymbolTable
 70
0
  0
ENDTAB
  0
TABLE
  2
APPID
  5
3
330
0
100
AcDbSymbolTable
 70
3
  0
APPID
  5
2A
330
3
100
AcDbSymbolTableRecord
100
AcDbRegAppTableRecord
  2
ACAD
 70
0
  0
APPID
  5
30
330
3
100
AcDbSymbolTableRecord
100
AcDbRegAppTableRecord
  2
HATCHBACKGROUNDCOLOR
 70
0
  0
APPID
  5
31
330
3
100
AcDbSymbolTableRecord
100
AcDbRegAppTableRecord
  2
EZDXF
 70
0
  0
ENDTAB
  0
TABLE
  2
DIMSTYLE
  5
4
330
0
100
AcDbSymbolTable
 70
1
100
AcDbDimStyleTable
  0
DIMSTYLE
105
2B
330
4
100
AcDbSymbolTableRecord
100
AcDbDimStyleTableRecord
  2
Standard
 70
0
 40
1.0
 41
2.5
 42
0.625
 43
3.75
 44
1.25
 45
0.0
 46
0.0
 47
0.0
 48
0.0
 49
2.5
140
2.5
141
2.5
142
0.0
143
0.03937007874
144
1.0
145
0.0
146
1.0
147
0.625
148
0.0
 69
0
 70
0
 71
0
 72
0
 73
0
 74
0
 75
0
 76
0
 77
1
 78
8
 79
3
170
0
171
3
172
1
173
0
174
0
175
0
176
0
177
0
178
0
179
2
271
2
272
2
273
2
274
3
275
0
276
0
277
2
278
44
279
0
280
0
281
0
282
0
283
0
284
8
285
0
286
0
288
0
289
3
290
0
371
-2
372
-2
  0
ENDTAB
  0
TABLE
  2
BLOCK_RECORD
  5
9
330
0
100
AcDbSymbolTable
 70
2
  0
BLOCK_RECORD
  5
17
330
9
100
AcDbSymbolTableRecord
100
AcDbBlockTableRecord
  2
*Model_Space
340
1A
 70
0
280
1
281
0
  0
BLOCK_RECORD
  5
1B
330
9
100
AcDbSymbolTableRecord
100
AcDbBlockTableRecord
  2
*Paper_Space
340
1E
 70
0
280
1
281
0
  0
ENDTAB
  0
ENDSEC
  0
SECTION
  2
BLOCKS
  0
BLOCK
  5
18
330
17
100
AcDbEntity
  8
0
100
AcDbBlockBegin
  2
*Model_Space
 70
0
 10
0.0
 20
0.0
 30
0.0
  3
*Model_Space
  1

  0
ENDBLK
  5
19
330
17
100
AcDbEntity
  8
0
100
AcDbBlockEnd
  0
BLOCK
  5
1C
330
1B
100
AcDbEntity
  8
0
100
AcDbBlockBegin
  2
*Paper_Space
 70
0
 10
0.0
 20
0.0
 30
0.0
  3
*Paper_Space
  1

  0
ENDBLK
  5
1D
330
1B
100
AcDbEntity
  8
0
100
AcDbBlockEnd
  0
ENDSEC
  0
SECTION
  2
ENTITIES
  0
LWPOLYLINE
  5
2F
330
17
100
AcDbEntity
  8
0
100
AcDbPolyline
 90
721
 70
1
 10
38.5964735655732
 20
1.4711425825473265
 10
38.59536366856451
 20
1.4715041103173125
 10
38.59203836900883
 20
1.4724734802733437
 10
38.586506449846944
 20
1.473820265707565
 10
38.57870591293152
 20
1.4756574842387067
 10
38.56875855882205
 20
1.4778167073062731
 10
38.55660458510638
 20
1.4803533458520304
 10
38.54218858084275
 20
1.4832075974638173
 10
38.52562575938508
 20
1.4863838536120288
 10
38.50686070979162
 20
1.4898223118845044
 10
38.48583143391499
 20
1.4936359898999725
 10
38.46265753657951
 20
1.4977140657749022
 10
38.437281411108245
 20
1.5020543437740954
 10
38.409700861765984
 20
1.5067144305745162
 10
38.379920280023114
 20
1.511579112822237
 10
38.34793527440924
 20
1.5167636038711847
 10
38.31380564733653
 20
1.522212492779594
 10
38.27747379212802
 20
1.527923583812267
 10
38.238937513048505
 20
1.533954483646167
 10
38.198258808245356
 20
1.5401921746625649
 10
38.15537567957121
 20
1.5467496744801905
 10
38.11029251849645
 20
1.5535117697451157
 10
38.06312014690462
 20
1.5605980652816638
 10
38.013687940500034
 20
1.567944367207278
 10
37.962168719313574
 20
1.5755572627275511
 10
37.908447269991306
 20
1.5834323603720881
 10
37.8525811992102
 20
1.5915718558760867
 10
37.79457050697026
 20
1.5999757492395466
 10
37.734412997536275
 20
1.6087016471394313
 10
37.672108670908266
 20
1.6177495495757417
 10
37.607661918556616
 20
1.6270042431945493
 10
37.54106834901092
 20
1.636580941349782
 10
37.472387764683354
 20
1.6464242330996743
 10
37.40156036316175
 20
1.6565895293859916
 10
37.32859053591651
 20
1.666961616854807
 10
37.253531498154196
 20
1.6776579045952449
 10
37.17638105413961
 20
1.688735999284269
 10
37.09714579107834
 20
1.700023080890989
 10
37.01576371082305
 20
1.7116321670341348
 10
36.932352222462846
 20
1.7235100425071368
 10
36.8467939169086
 20
1.7357099225165642
 10
36.75920400751424
 20
1.7482361985328119
 10
36.66952488760283
 20
1.7610866748206833
 10
36.57781416385129
 20
1.7742635471153745
 10
36.48401642531788
 20
1.7877070130047255
 10
36.38818927867957
 20
1.8014192682239334
 10
36.29027072578898
 20
1.815513330391728
 10
36.19037817573524
 20
1.8299359843015406
 10
36.08845402184139
 20
1.8446850342181742
 10
35.984498264107444
 20
1.8597604801416285
 10
35.87851090253338
 20
1.8751623220719034
 10
35.77054734806098
 20
1.8909503624211605
 10
35.66055218974847
 20
1.9070647987772382
 10
35.54858083853761
 20
1.9235654335522976
 10
35.434635490163615
 20
1.940394660069376
 10
35.31872053609687
 20
1.957437264974546
 10
35.20088919154393
 20
1.9748106573569315
 10
35.08107945835746
 20
1.9926278548352636
 10
34.95929133653744
 20
2.0108888574095403
 10
34.83558901996644
 20
2.02942304078407
 10
34.70997031290927
 20
2.048288011635817
 10
34.5824352153659
 20
2.0674837699647797
 10
34.45297714013076
 20
2.0871831358018493
 10
34.321607065879846
 20
2.107098075762208
 10
34.1883782078197
 20
2.1273459989349814
 10
34.053288370215135
 20
2.1479845119971315
 10
33.91627775065401
 20
2.169069025890426
 10
33.77746375822542
 20
2.190546325408296
 10
33.636790981987616
 20
2.2123566081385797
 10
33.4942594219406
 20
2.234499874081278
 10
33.34992229329093
 20
2.2570935323255155
 10
33.203788378979404
 20
2.2799071561634374
 10
33.05579568085863
 20
2.3030537632137738
 10
32.906057216547396
 20
2.326595351623883
 10
32.75457298604567
 20
2.3505319213937668
 10
32.60128977414689
 20
2.3747460634342983
 10
32.44620538511585
 20
2.399295384422442
 10
32.289435032306486
 20
2.424184275828593
 10
32.13091671757143
 20
2.449525755271481
 10
31.97065702811628
 20
2.475147002720216
 10
31.808713570618
 20
2.5010502139099944
 10
31.645086345076596
 20
2.527235388840817
 10
31.47977096002167
 20
2.553817740866611
 10
31.312767415453212
 20
2.5807972699873765
 10
31.144077907106425
 20
2.608116369526149
 10
30.973819844070434
 20
2.6357218242763616
 10
30.80187581725612
 20
2.663666849444582
 10
30.628303433340438
 20
2.6919536407660076
 10
30.45316688620596
 20
2.7204115739449466
 10
30.276406373440498
 20
2.749096059923163
 10
30.098072914515445
 20
2.778182114466747
 10
29.918224116107762
 20
2.8076719333108953
 10
29.736749156333907
 20
2.837445911631286
 10
29.553769835753403
 20
2.8673356208674234
 10
29.369277371425472
 20
2.897571487727162
 10
29.183273959085295
 20
2.9280959055335383
 10
28.995757402997683
 20
2.958966480963516
 10
28.80678970130999
 20
2.9900701963983645
 10
28.61637085402223
 20
3.0214070518380867
 10
28.42444325445742
 20
3.0529748515474813
 10
28.231119920234296
 20
3.08483559367391
 10
28.036343244675898
 20
3.116987082482175
 10
27.840175225929592
 20
3.1493163003535445
 10
27.64261586399536
 20
3.1818232472880212
 10
27.44372276555018
 20
3.214510119020802
 10
27.243436128181884
 20
3.247432326493652
 10
27.041809167097043
 20
3.280707278795697
 10
26.838790862824283
 20
3.3141599601608482
 10
26.63455183965929
 20
3.347854564471662
 10
26.428985667188957
 20
3.38155627354989
 10
26.22209014967806
 20
3.4153226940724943
 10
26.013973913274935
 20
3.449331037540763
 10
25.804634762244394
 20
3.4836389106316576
 10
25.5939640704381
 20
3.518069101843893
 10
25.382196656034292
 20
3.5525151807643334
 10
25.169161894737293
 20
3.586912953510421
 10
24.954968412695425
 20
3.6214396315834425
 10
24.73955640749653
 20
3.6561506259251635
 10
24.52304328822974
 20
3.690992721329017
 10
24.305378035423676
 20
3.725790902028913
 10
24.086613864284907
 20
3.7606625771139783
 10
23.866746383343045
 20
3.795722959938139
 10
23.64578657127407
 20
3.8306840171165764
 10
23.42373662381318
 20
3.865488141972328
 10
23.200700775638317
 20
3.900427759360608
 10
22.976566009130764
 20
3.935440871134056
 10
22.75144534190923
 20
3.9705894754400313
 10
22.525351948384905
 20
4.0055279322167525
 10
22.2982836328226
 20
4.040313848141183
 10
22.07023600375191
 20
4.075062436567252
 10
21.841202473967247
 20
4.109946517525848
 10
21.611307039763325
 20
4.144740055779511
 10
21.38044327072702
 20
4.179208233149995
 10
21.14877739968362
 20
4.213530456873782
 10
20.91618323460321
 20
4.247990368865295
 10
20.68272716510354
 20
4.282359738151876
 10
20.448417974125412
 20
4.316408138025673
 10
20.21336648355235
 20
4.350255173311006
 10
19.977455284295225
 20
4.383954059214445
 10
19.740797393972777
 20
4.417566793883349
 10
19.503337401643233
 20
4.451033574905557
 10
19.265137305453955
 20
4.484241384662337
 10
19.026254712081908
 20
4.5171924188888894
 10
18.786632014850124
 20
4.549884481850016
 10
18.546384427112528
 20
4.5823219650161136
 10
18.305396735515203
 20
4.614500476916784
 10
18.063779761941674
 20
4.646539622376351
 10
17.821535702127136
 20
4.678381794717851
 10
17.57867553474759
 20
4.709738960556468
 10
17.335194868332625
 20
4.740726333246126
 10
17.09120672050098
 20
4.771405910934186
 10
16.84659368216352
 20
4.801830908827217
 10
16.601475358144583
 20
4.831890505041685
 10
16.355853944179355
 20
4.861527092900629
 10
16.10973163600304
 20
4.8906830657270834
 10
15.863104042145245
 20
4.919473636874975
 10
15.616026573547732
 20
4.947958608756467
 10
15.368499230210483
 20
4.97613798137156
 10
15.120586206016087
 20
5.003841130424559
 10
14.872232090022761
 20
5.031008253503304
 10
14.623496684642665
 20
5.057583939666026
 10
14.374431009347175
 20
5.083743204678819
 10
14.124970870253723
 20
5.109656672837372
 10
13.875235872186655
 20
5.135213522258153
 10
13.625185974350565
 20
5.15995070379026
 10
13.374808002334277
 20
5.184213857495472
 10
13.124214973756523
 20
5.2080649815211455
 10
12.873353673410735
 20
5.2313866667781594
 10
12.622226297032103
 20
5.254121306589549
 10
12.370941470768964
 20
5.2764461124566
 10
12.119443783679554
 20
5.2983012819671504
 10
11.867797429646432
 20
5.319516190825509
 10
11.615944801992628
 20
5.340088643296477
 10
11.36399891833688
 20
5.360080637527415
 10
11.111957582943981
 20
5.379549780195285
 10
10.859827383019537
 20
5.398323251269197
 10
10.607606122828333
 20
5.416458657426113
 10
10.355349213312149
 20
5.434015801078197
 10
10.102992460588421
 20
5.4511653065211405
 10
9.850664252422266
 20
5.467565925163558
 10
9.59836458881368
 20
5.48321765700545
 10
9.346091274027469
 20
5.498178108723778
 10
9.093842112328437
 20
5.512504886995507
 10
8.84167690612874
 20
5.526142580878872
 10
8.589535853016216
 20
5.539146601315639
 10
8.337536362079996
 20
5.551463733099237
 10
8.085682824790476
 20
5.562978762875742
 10
7.833973045412451
 20
5.573749297322118
 10
7.582404828210728
 20
5.5838329431153255
 10
7.330980368920505
 20
5.593172093578403
 10
7.079819272366101
 20
5.601655926827819
 10
6.8288595404001615
 20
5.609397460482302
 10
6.578154388229255
 20
5.616514103630978
 10
6.327657187852401
 20
5.6227156271538306
 10
6.07747876115313
 20
5.628121635875183
 10
5.827612520925859
 20
5.6329049498259245
 10
5.578007447699209
 20
5.636890553239969
 10
5.328783146297511
 20
5.639967624233783
 10
5.079935225250359
 20
5.642251376161296
 10
4.83141046935119
 20
5.643624399933379
 10
4.583319700483535
 20
5.64420630037436
 10
4.335609703440831
 20
5.643879668395107
 10
4.088393495841799
 20
5.642706502142988
 10
3.84154927712692
 20
5.6408552301784916
 10
3.5951966521205247
 20
5.638215030618089
 10
3.3493444037633955
 20
5.634555476753924
 10
3.1039903363203356
 20
5.629934175262963
 10
2.8591854692627194
 20
5.624526141911291
 10
2.614931998325747
 20
5.618273770021947
 10
2.3712321192446035
 20
5.611119452917968
 10
2.1281434386962688
 20
5.60306538633455
 10
1.8856039585333721
 20
5.594224587890423
 10
1.6436668939624823
 20
5.584714466674711
 10
1.4023986346013568
 20
5.5743067917147595
 10
1.161803571920398
 20
5.562886349656639
 10
0.9218773144491961
 20
5.550568353854279
 10
0.6826752731295291
 20
5.53741260671984
 10
0.44413984128442513
 20
5.523416912518125
 10
0.20632642985565483
 20
5.508641073661293
 10
-0.030709550215021107
 20
5.493144892561507
 10
-0.2670169226637662
 20
5.4766957467757145
 10
-0.5025380808136223
 20
5.459295832039115
 10
-0.7372263966636196
 20
5.44123537747172
 10
-0.9711350854203179
 20
5.422396973984408
 10
-1.2041467379945952
 20
5.402727406370612
 10
-1.4363765677403788
 20
5.382222283159933
 10
-1.6677093613037417
 20
5.36088599582277
 10
-1.8980919034781176
 20
5.338835953448246
 10
-2.1276416033526315
 20
5.316125371242928
 10
-2.356289875574325
 20
5.292468411557198
 10
-2.5839346812004655
 20
5.268215105923232
 10
-2.810638018378406
 20
5.243478471959759
 10
-3.0364443193739263
 20
5.217910673869801
 10
-3.2611807641561392
 20
5.19151829885895
 10
-3.4849115466075946
 20
5.164471971222901
 10
-3.707638862463496
 20
5.136829297638614
 10
-3.9293583202534417
 20
5.108475064752166
 10
-4.149956902358706
 20
5.079471270710913
 10
-4.3695498221332185
 20
5.049813524044462
 10
-4.588028453428644
 20
5.0196790362540975
 10
-4.805388404774585
 20
4.988952593985892
 10
-5.021627480435844
 20
4.957576590562884
 10
-5.2367478761476205
 20
4.925608632662035
 10
-5.4506963767033465
 20
4.893166129372472
 10
-5.663530588779983
 20
4.860246884958994
 10
-5.875130907553209
 20
4.826740077538073
 10
-6.085497333023026
 20
4.792645707109707
 10
-6.2946852761311956
 20
4.757903971261735
 10
-6.502639325935958
 20
4.722574672406318
 10
-6.7093660696429005
 20
4.686830630574348
 10
-6.91481009631026
 20
4.6507316481779855
 10
-7.118962622997248
 20
4.614047298509376
 10
-7.3218812563808235
 20
4.576775385833322
 10
-7.5233909806949
 20
4.538864890678454
 10
-7.723613596499
 20
4.500484241605266
 10
-7.922551299528321
 20
4.4616910452907215
 10
-8.120088876428929
 20
4.422489693205217
 10
-8.316224131465635
 20
4.382822578671789
 10
-8.511008084109802
 20
4.342514685924348
 10
-8.704391910625265
 20
4.301798637405947
 10
-8.896382198217612
 20
4.260847253147477
 10
-9.086910361533894
 20
4.219374695499316
 10
-9.276034007251072
 20
4.1773787687262685
 10
-9.463642313485614
 20
4.134979077652655
 10
-9.649792886914485
 20
4.0921734265432805
 10
-9.834487923272885
 20
4.049019422075106
 10
-10.017663228678252
 20
4.00534643995244
 10
-10.199323194600986
 20
3.961269693529209
 10
-10.379467821041084
 20
3.9167891828054144
 10
-10.558105890939338
 20
3.872135334488908
 10
-10.735119995206624
 20
3.8272549333731236
 10
-10.910618759991277
 20
3.7819707679567744
 10
-11.084540187145935
 20
3.736169820621132
 10
-11.256835452934428
 20
3.690084713809247
 10
-11.42756655550411
 20
3.643828465139849
 10
-11.596667105237234
 20
3.5971728436402817
 10
-11.764083886927228
 20
3.5502352583996717
 10
-11.929934309663217
 20
3.5030689246245843
 10
-12.09410316009127
 20
3.455678233785417
 10
-12.256583851005804
 20
3.4078903658512774
 10
-12.417382969612405
 20
3.359878140853059
 10
-12.576502711646269
 20
3.3116991654677217
 10
-12.7339408813722
 20
3.263295833018305
 10
-12.889639872113237
 20
3.2146703392400053
 10
-13.043597488134182
 20
3.1657650774558586
 10
-13.195873531847194
 20
3.1166354586076324
 10
-13.346352789898349
 20
3.0672858741657203
 10
-13.49503965375804
 20
3.0178315374840508
 10
-13.642044945309799
 20
2.968152843738301
 10
-13.787195844522735
 20
2.9182563801340633
 10
-13.930547762338614
 20
2.868082344259178
 10
-14.072109481698227
 20
2.8178611628214982
 10
-14.211881002601576
 20
2.767592835821023
 10
-14.349800326901299
 20
2.7171643456390253
 10
-14.485865258862201
 20
2.666518085598541
 10
-14.620131209426045
 20
2.6155942532874072
 10
-14.752493943914894
 20
2.564685273560839
 10
-14.883008873270514
 20
2.513731344006674
 10
-15.011671606022512
 20
2.4626172512709856
 10
-15.13842453549392
 20
2.4113451910889716
 10
-15.263272053155132
 20
2.3600303768145587
 10
-15.386209767535762
 20
2.3085575950938204
 10
-15.507239874370999
 20
2.2569844526037195
 10
-15.62636456939604
 20
2.2053685560212197
 10
-15.743521854463534
 20
2.1535968877275926
 10
-15.858718316779068
 20
2.101842267753728
 10
-15.972002780078821
 20
2.0498720736565748
 10
-16.083326420626605
 20
1.9979189278791836
 10
-16.19268704268724
 20
1.9459252237445919
 10
-16.300082450525522
 20
1.8938333545758352
 10
-16.405455037464485
 20
1.841645516108113
 10
-16.50886460591629
 20
1.789417119283189
 10
-16.61026013640957
 20
1.7373231798671533
 10
-16.709637237473924
 20
1.6852484845060782
 10
-16.806995909109364
 20
1.6331930331999636
 10
-16.90239595372804
 20
1.581212236890575
 10
-16.995719962240827
 20
1.5292528803713448
 10
-17.087029932795094
 20
1.477427981261003
 10
-17.176272650184263
 20
1.4258549486486727
 10
-17.263505721085306
 20
1.3745315867991579
 10
-17.348667147350852
 20
1.3233448780937285
 10
-17.431816731393077
 20
1.2723502334741497
 10
-17.51283925985804
 20
1.2215520444108188
 10
-17.591854337570076
 20
1.1710611327872653
 10
-17.668748946910448
 20
1.1209394967508497
 10
-17.743576303085728
 20
1.0710697272124465
 10
-17.816336406095914
 20
1.021451824172056
 10
-17.887029255941002
 20
0.972085787629678
 10
-17.95560163741443
 20
0.9230890266744374
 10
-18.022053550516198
 20
0.8744615413063345
 10
-18.08643601471767
 20
0.8260283157592803
 10
-18.148698010547484
 20
0.7779643657993639
 10
-18.208830755064838
 20
0.7300392647187308
 10
-18.26684303121054
 20
0.6824834392252349
 10
-18.322726056043784
 20
0.6350664626110227
 10
-18.376484221034975
 20
0.5879035482300206
 10
-18.4281175261841
 20
0.540994696082229
 10
-18.477566169079008
 20
0.4942844952258823
 10
-18.524949754544025
 20
0.4478837675445114
 10
-18.57008887534266
 20
0.40162628021281976
 10
-18.613160742976195
 20
0.3556206593791404
 10
-18.65404794835552
 20
0.3098136898369058
 10
-18.692757078686213
 20
0.26437819161700676
 10
-18.72934134917485
 20
0.21919675563031804
 10
-18.763745348879667
 20
0.174329184289001
 10
-18.79597786074145
 20
0.13000590430090989
 10
-18.82608990423157
 20
0.08605189989995636
 10
-18.854028264143455
 20
0.04258458017526532
 10
-18.879797331947515
 20
-0.0002808415192364002
 10
-18.903405890584526
 20
-0.04231393847569442
 10
-18.9248539400545
 20
-0.08351471069410883
 10
-18.944203478504786
 20
-0.12377014055575032
 10
-18.961350271257448
 20
-0.16278780320540542
 10
-18.976360707930255
 20
-0.20033946767041788
 10
-18.989314352552125
 20
-0.2358512629163503
 10
-19.000111361915536
 20
-0.2689155507340621
 10
-19.008844474460602
 20
-0.2986128200273341
 10
-19.01560642862746
 20
-0.32402355969994795
 10
-19.020334708706933
 20
-0.3437608180343828
 10
-19.023141814755927
 20
-0.3563866238417478
 10
-19.01020339796889
 20
-0.7245926152845041
 10
-19.008996888611495
 20
-0.7274888368408859
 10
-19.0053795562745
 20
-0.736119894833068
 10
-18.999360183898705
 20
-0.7502553625531958
 10
-18.990843837308773
 20
-0.7708723577744522
 10
-18.97989961941949
 20
-0.799185012183467
 10
-18.966584101784168
 20
-0.832195582842938
 10
-18.950907745516986
 20
-0.8681160670317979
 10
-18.93301430852943
 20
-0.906201969419916
 10
-18.91289229458371
 20
-0.9452413540558605
 10
-18.89050385861962
 20
-0.9847135651117613
 10
-18.86597519266709
 20
-1.0243349606731964
 10
-18.839257472989942
 20
-1.063872918297114
 10
-18.810359482528977
 20
-1.1030970112756597
 10
-18.779285612754585
 20
-1.1418920262549068
 10
-18.746035863666766
 20
-1.1802579632348549
 10
-18.710670037677676
 20
-1.2181394112737387
 10
-18.67313491958075
 20
-1.2554189612824325
 10
-18.6334283136408
 20
-1.2921542199379006
 10
-18.591610022269972
 20
-1.328289776298377
 10
-18.547618047320917
 20
-1.363938647982591
 10
-18.501454584528833
 20
-1.399043228313579
 10
-18.453239238718034
 20
-1.4334926954078095
 10
-18.402792602652045
 20
-1.4674532820905801
 10
-18.35028969209695
 20
-1.5008739688905204
 10
-18.295613097963628
 20
-1.533807971014198
 10
-18.238822622664237
 20
-1.5661998775198478
 10
-18.17992046193397
 20
-1.597992081730506
 10
-18.118900028567243
 20
-1.6293574036770626
 10
-18.05576571403445
 20
-1.6601806300055915
 10
-17.990508735394794
 20
-1.6906921874239464
 10
-17.923135679853875
 20
-1.7207192559012368
 10
-17.853699762618252
 20
-1.7503792445265876
 10
-17.78214337701097
 20
-1.7796699575648007
 10
-17.708462131561635
 20
-1.8087066083698036
 10
-17.632715828682393
 20
-1.83743378599983
 10
-17.554902272638067
 20
-1.8659090971318442
 10
-17.475021463428643
 20
-1.8941325417658457
 10
-17.393009207171566
 20
-1.9222747441975274
 10
-17.30898291295597
 20
-1.9502824892203219
 10
-17.222829563163113
 20
-1.9780937786868686
 10
-17.134664371146926
 20
-2.005713004067565
 10
-17.044425338760057
 20
-2.033253182981139
 10
-16.95217007267946
 20
-2.0607165111627888
 10
-16.857843161963373
 20
-2.0880431862003532
 10
-16.76150660475916
 20
-2.1151201904751034
 10
-16.663100598654655
 20
-2.1420029349288043
 10
-16.56273816126858
 20
-2.168753417708815
 10
-16.460361685923985
 20
-2.1953694430799375
 10
-16.355971172620865
 20
-2.2218510110421734
 10
-16.249573208564808
 20
-2.2480253015646308
 10
-16.141225400432788
 20
-2.2738945103825077
 10
-16.030870141547826
 20
-2.2994564417606065
 10
-15.9185606471165
 20
-2.3248285047880515
 10
-15.804296917138819
 20
-2.350010699464843
 10
-15.688087734555559
 20
-2.3747725990831277
 10
-15.56998631457329
 20
-2.3992316127320295
 10
-15.449937246250252
 20
-2.4233279379993866
 10
-15.32793833385125
 20
-2.4471191815621642
 10
-15.204047184053238
 20
-2.4706075391555586
 10
-15.078265992591417
 20
-2.493735404102608
 10
-14.950592563730593
 20
-2.5165603830802734
 10
-14.821026897470764
 20
-2.539082476088556
 10
-14.689571189547125
 20
-2.5612440764504933
 10
-14.556280850901445
 20
-2.583104986578246
 10
-14.421155881533725
 20
-2.6046652064718137
 10
-14.284140870502194
 20
-2.6258649337190345
 10
-14.145346639690388
 20
-2.6468237731442326
 10
-14.00471777815654
 20
-2.667481922335245
 10
-13.86225209016545
 20
-2.6878969879690375
 10
-13.718009378129285
 20
-2.7080135591038426
 10
-13.571996229253633
 20
-2.7276588157087702
 10
-13.424206056332903
 20
-2.74700557781471
 10
-13.274576861219733
 20
-2.7661668630403926
 10
-13.123283659680219
 20
-2.7850916519144477
 10
-12.97021562983082
 20
-2.8036603396125526
 10
-12.81537496740674
 20
-2.821815319457743
 10
-12.658872494291506
 20
-2.839676196274342
 10
-12.500648408072964
 20
-2.8572983810041155
 10
-12.340707100221502
 20
-2.8745666602931363
 10
-12.17910617741409
 20
-2.8914832298766022
 10
-12.015847835385916
 20
-2.90799048307755
 10
-11.850925486931397
 20
-2.92426123992687
 10
-11.684343523520925
 20
-2.9401802870706346
 10
-11.516097553684101
 20
-2.9558628378627723
 10
-11.346309377980448
 20
-2.971140463742787
 10
-11.174861587320844
 20
-2.9860663799172467
 10
-11.001811788382248
 20
-3.0006427821213495
 10
-10.827215392106428
 20
-3.0149294727672564
 10
-10.651019183286817
 20
-3.028809042765843
 10
-10.47327637712998
 20
-3.0423989012062336
 10
-10.294046776048082
 20
-3.0556436371466633
 10
-10.113219558157589
 20
-3.0684236457628096
 10
-9.93090993681243
 20
-3.0807433185250663
 10
-9.747111324807006
 20
-3.0927754754643253
 10
-9.561823722141327
 20
-3.1045201165805874
 10
-9.375047128815384
 20
-3.1159772418738507
 10
-9.186845738711735
 20
-3.1269762270484245
 10
-8.997223943300781
 20
-3.1374018587503794
 10
-8.806115352964763
 20
-3.1474823679523736
 10
-8.61363518105761
 20
-3.1572221461248025
 10
-8.419730212372754
 20
-3.16650378417854
 10
-8.22446244505755
 20
-3.1752142644948584
 10
-8.027825291906414
 20
-3.183526407104647
 10
-7.829871968125903
 20
-3.191557621097031
 10
-7.630549258509457
 20
-3.1991904973828866
 10
-7.429863750262662
 20
-3.206252215931322
 10
-7.227926265269056
 20
-3.212862381566661
 10
-7.02473460779344
 20
-3.219078600965865
 10
-6.820173564481886
 20
-3.2248964826585413
 10
-6.614418151100481
 20
-3.230265007173317
 10
-6.407415152442661
 20
-3.2350667654210694
 10
-6.199164568508423
 20
-3.2393017574017975
 10
-5.989721810239531
 20
-3.243029785527662
 10
-5.779075898960001
 20
-3.2465388831834825
 10
-5.567291028552384
 20
-3.2496584260735646
 10
-5.3543183752805135
 20
-3.252155791754857
 10
-5.140155743409188
 20
-3.254088586904323
 10
-4.924918346292335
 20
-3.255461202992358
 10
-4.708539794312201
 20
-3.2565018709916194
 10
-4.491082085616146
 20
-3.2570975732833767
 10
-4.272545220204168
 20
-3.2572483098676304
 10
-4.05293358954666
 20
-3.256838867390453
 10
-3.83224499790843
 20
-3.2559268525288094
 10
-3.6105902671730075
 20
-3.254631870107021
 10
-3.3878585754568618
 20
-3.252834315300765
 10
-3.16416952758431
 20
-3.250423366226511
 10
-2.939520927820161
 20
-3.247456629561222
 10
-2.7139105804292107
 20
-3.243991711981861
 10
-2.4872830744697016
 20
-3.239968811076267
 10
-2.2598156214429155
 20
-3.235279300696107
 10
-2.031452810407084
 20
-3.2298633784292194
 10
-1.8021238602740624
 20
-3.2240644886021874
 10
-1.5719461801329686
 20
-3.217829416008443
 10
-1.3409905510719589
 20
-3.2108147163214027
 10
-1.1091351725315122
 20
-3.203188818101562
 10
-0.8764354554533923
 20
-3.1950115237610817
 10
-0.6430110046619226
 20
-3.1861720114164305
 10
-0.4087488025383734
 20
-3.1766082829202493
 10
-0.17376406243666867
 20
-3.166324729742934
 10
0.06200960526093789
 20
-3.1555495828571405
 10
0.29851020240709225
 20
-3.14416982464414
 10
0.5356691436488468
 20
-3.131899617454313
 10
0.7735506228687499
 20
-3.1189095855833506
 10
1.0121058163306345
 20
-3.105432351474306
 10
1.251270530151938
 20
-3.091297290831487
 10
1.4911001752744353
 20
-3.0764446012427307
 10
1.731541536491546
 20
-3.060991691797163
 10
1.9725858308624928
 20
-3.0447081357869306
 10
2.2142330583872685
 20
-3.0275939332120307
 10
2.4564343953296994
 20
-3.009881706515518
 10
2.6991344307480176
 20
-2.991631258109554
 10
2.942388575584001
 20
-2.9727827855819746
 10
3.1861326359550772
 20
-2.9531656646370896
 10
3.4303710033316523
 20
-2.932895108628825
 10
3.6751036777137256
 20
-2.9119711175571803
 10
3.9202730524243297
 20
-2.8903958871573545
 10
4.165872540257868
 20
-2.8679965973984567
 10
4.411906532684747
 20
-2.844888461634413
 10
4.658268599291822
 20
-2.821306298043474
 10
4.905071757697822
 20
-2.7971881084782817
 10
5.152194207343234
 20
-2.772365464378339
 10
5.399695750640213
 20
-2.7468937766854125
 10
5.6474611742348335
 20
-2.7207774368698976
 10
5.895550280539252
 20
-2.6940718558735615
 10
6.143960873818282
 20
-2.666719427019438
 10
6.392579936453185
 20
-2.638782148454889
 10
6.641469466591328
 20
-2.6103730377986416
 10
6.8906272684975045
 20
-2.5814344883737332
 10
7.139935933082591
 20
-2.551913284973596
 10
7.389455262758752
 20
-2.5218648385399955
 10
7.639132042319422
 20
-2.491406558162057
 10
7.889015095500766
 20
-2.460305821396729
 10
8.13899360041926
 20
-2.4286822330683315
 10
8.389071948545295
 20
-2.396651006530795
 10
8.639247944143673
 20
-2.3641545351071547
 10
8.889517195744
 20
-2.3310776054434825
 10
9.139884094816676
 20
-2.2975354308937064
 10
9.39023781947816
 20
-2.263647616282149
 10
9.640631584935026
 20
-2.229296752519686
 10
9.891014371715903
 20
-2.1946578553724043
 10
10.1413795926152
 20
-2.159558104809415
 10
10.391725051897712
 20
-2.1239398941537537
 10
10.642055141033843
 20
-2.0879184367593475
 10
10.892261233875251
 20
-2.051670944127483
 10
11.14240093709891
 20
-2.015195220522962
 10
11.39241005682225
 20
-1.9783206416500925
 10
11.642290788780482
 20
-1.9411048141858365
 10
11.892043132973598
 20
-1.9035477381301957
 10
12.141669285136798
 20
-1.865707020160132
 10
12.391051836180957
 20
-1.8275294450690787
 10
12.640250588518237
 20
-1.7890704237988013
 10
12.889210131206871
 20
-1.7503897587614612
 10
13.13799246239422
 20
-1.7116004675757872
 10
13.386473585785556
 20
-1.6724765150043215
 10
13.634655697116091
 20
-1.633075507724027
 10
13.882607381738776
 20
-1.593683283384524
 10
14.130200251888493
 20
-1.553958593394426
 10
14.37743211183003
 20
-1.5138438310767712
 10
14.624373742651573
 20
-1.4736824407581415
 10
14.870914322469554
 20
-1.4335940272628598
 10
15.117098283549767
 20
-1.393230754793948
 10
15.362870214950446
 20
-1.3526524257635668
 10
15.608172509994619
 20
-1.311861235906914
 10
15.853067166829666
 20
-1.2709702028427186
 10
16.09749877451379
 20
-1.2300391289831425
 10
16.341469528782213
 20
-1.1891256210051495
 10
16.58491743148757
 20
-1.1481166612900096
 10
16.827838091159464
 20
-1.1068970364837958
 10
17.070238095003482
 20
-1.065639566617399
 10
17.31211744301964
 20
-1.0243442516908194
 10
17.553363117589196
 20
-0.9830730898514157
 10
17.794090332066077
 20
-0.9418216896287926
 10
18.034177285890763
 20
-0.9004216224624552
 10
18.273626174798466
 20
-0.8589304950293665
 10
18.512447977465147
 20
-0.8176363407143449
 10
18.750640498155636
 20
-0.7764815528404264
 10
18.9880841320456
 20
-0.7353553095240797
 10
19.22489628822416
 20
-0.6943108259718725
 10
19.46095955760219
 20
-0.6532948869772377
 10
19.696331546856662
 20
-0.6123052968049764
 10
19.930959040781
 20
-0.571459464544214
 10
20.164784432698248
 20
-0.5307595859301487
 10
20.397869720755764
 20
-0.490318678581509
 10
20.630093104394017
 20
-0.44996831393780035
 10
20.861569796966943
 20
-0.4097041005286273
 10
21.09218238938542
 20
-0.3694728231474216
 10
21.321944056060627
 20
-0.3296201218559644
 10
21.550797190315603
 20
-0.2901481923894544
 10
21.77884383109309
 20
-0.2507070032157136
 10
22.005908962627007
 20
-0.21124553486337208
 10
22.232125364152854
 20
-0.17222024927774304
 10
22.457375626581502
 20
-0.1335779312522588
 10
22.681650966972168
 20
-0.0950881540790643
 10
22.90495138532485
 20
-0.05675091775816036
 10
23.12727907737474
 20
-0.018623828966510117
 10
23.348645021797832
 20
0.019005078911068684
 10
23.56892961376981
 20
0.05624662775810753
 10
23.788241479439005
 20
0.09327802907589257
 10
24.00646540545148
 20
0.13009489139402822
 10
24.223605783277637
 20
0.16658200135858706
 10
24.439667004387875
 20
0.2026241456156426
 10
24.654644677311794
 20
0.23833653751912176
 10
24.86848119537242
 20
0.2737169813338261
 10
25.08123855671714
 20
0.3086524594410272
 10
25.292801547992006
 20
0.3431385803703291
 10
25.503221188668387
 20
0.37735035988782
 10
25.712382265392367
 20
0.41128340652310447
 10
25.92046198966522
 20
0.44482909412784866
 10
26.127234326249496
 20
0.4778634264073347
 10
26.33281448849912
 20
0.5103907948319578
 10
26.537200280678903
 20
0.5424688060786818
 10
26.7402720979645
 20
0.5742082820310375
 10
26.94203213609114
 20
0.6055516160120624
 10
27.142597804147915
 20
0.6364455928151878
 10
27.34179847783916
 20
0.666826018557857
 10
27.53969615531221
 20
0.6965798756213402
 10
27.736226642684528
 20
0.7258777883013312
 10
27.931445350897867
 20
0.7547795590099906
 10
28.125296869010462
 20
0.7832253853351572
 10
28.317781197022324
 20
0.8112152672768309
 10
28.508847315462074
 20
0.8385741890689236
 10
28.698546243801086
 20
0.8654771664775236
 10
28.886764964420617
 20
0.8918622013552712
 10
29.073556692527262
 20
0.9178467027912924
 10
29.25892801532659
 20
0.9432578507546953
 10
29.44282352187685
 20
0.9680358428333196
 10
29.625236624972434
 20
0.9923534990580551
 10
29.80616732461336
 20
1.0162108194289026
 10
29.985615620799617
 20
1.0396078039458616
 10
30.16347069164767
 20
1.0624248477846092
 10
30.33985214198185
 20
1.0845511290616143
 10
30.514691386449208
 20
1.106272485426497
 10
30.687933014107955
 20
1.127529114467095
 10
30.859634631635085
 20
1.148323211918607
 10
31.029743023824015
 20
1.1685373686919083
 10
31.198198388262583
 20
1.1882269957287637
 10
31.36511374256952
 20
1.2074540911765328
 10
31.530380460596493
 20
1.2260414435339293
 10
31.693994150873102
 20
1.2441042661548805
 10
31.855957009134553
 20
1.2615849523624227
 10
32.01626244817525
 20
1.2786563221874465
 10
32.17491485946559
 20
1.2952031622760247
 10
32.3318566363286
 20
1.31122327689296
 10
32.48708997449948
 20
1.3266590593612881
 10
32.64067028492
 20
1.3415703120931708
 10
32.792480158501036
 20
1.356010250295176
 10
32.94251959524259
 20
1.3699788739673033
 10
33.09084839755682
 20
1.3834207721677876
 10
33.23746876117894
 20
1.3962783382196655
 10
33.3822588855494
 20
1.4087200006834313
 10
33.52527637734517
 20
1.4207479552942825
 10
33.66652782377185
 20
1.4321893820213294
 10
33.80595342241729
 20
1.4430996918063375
 10
33.94354878181109
 20
1.4535940980032334
 10
34.07937590010058
 20
1.4635595829932881
 10
34.21332175966707
 20
1.472934148629143
 10
34.34543957571711
 20
1.4818352039999223
 10
34.475727152515496
 20
1.4903203557825895
 10
34.604126883385284
 20
1.4983874082419473
 10
34.730643159796855
 20
1.5059211480240682
 10
34.855273786015005
 20
1.5129791818059153
 10
34.978014370569355
 20
1.519676722941417
 10
35.0988671091951
 20
1.5259561647536088
 10
35.21777878668565
 20
1.5317000981533662
 10
35.33474940304104
 20
1.5369085231406885
 10
35.44982778199741
 20
1.5418140621586283
 10
35.562958512613015
 20
1.5463569127950239
 10
35.67414159488786
 20
1.5505370750498761
 10
35.783379224557116
 20
1.5542969422462205
 10
35.890613794943825
 20
1.5576343186488593
 10
35.99590291272498
 20
1.5605513999929908
 10
36.09918457975321
 20
1.5631612038973441
 10
36.20046318749888
 20
1.5653485170079917
 10
36.29973434449163
 20
1.5672285526788614
 10
36.39706004887881
 20
1.5686882932912232
 10
36.492320695836085
 20
1.5698385607286092
 10
36.58557169630523
 20
1.5707391574031804
 10
36.676757639344494
 20
1.5713302809027758
 10
36.765938327365994
 20
1.5715565202856283
 10
36.85305176222242
 20
1.5715308931704692
 10
36.93815994206111
 20
1.5711403819385679
 10
37.02114106632254
 20
1.5705534151504204
 10
37.10211254409584
 20
1.569716777599457
 10
37.18095916202709
 20
1.5686260778152838
 10
37.25773852679324
 20
1.5672835115330983
 10
37.3324506383943
 20
1.5656890787528999
 10
37.40509330109506
 20
1.5639003861516523
 10
37.47561110395377
 20
1.5618576313171946
 10
37.54399965550002
 20
1.5596760276034534
 10
37.610318758145986
 20
1.5573001640686637
 10
37.67450860947949
 20
1.55478545165459
 10
37.73657140523574
 20
1.5520742836842696
 10
37.796504949679544
 20
1.5492242668346659
 10
37.85431143854609
 20
1.5461777944288155
 10
37.909988676100184
 20
1.5429924731436815
 10
37.96353227087143
 20
1.5397835163331917
 10
38.01488900765326
 20
1.5364335149082204
 10
38.064171904064395
 20
1.5330044670161271
 10
38.11120594433876
 20
1.5295473921282823
 10
38.15616614424243
 20
1.5260112707733153
 10
38.19893729042149
 20
1.5223917114808303
 10
38.239514991405535
 20
1.5188039276047554
 10
38.27795904960674
 20
1.5151925082033242
 10
38.31421185834813
 20
1.5115552575413385
 10
38.34826902615931
 20
1.5080073889727263
 10
38.38019255118765
 20
1.5044358848787576
 10
38.40992043528576
 20
1.500953762878162
 10
38.43745487418888
 20
1.4975034162939758
 10
38.46279147642658
 20
1.494200058480126
 10
38.485932437734085
 20
1.4909860827596495
 10
38.50693316905315
 20
1.4879212915447075
 10
38.52567845702983
 20
1.485001293364904
 10
38.54222371260591
 20
1.4822858906324006
 10
38.55662654245835
 20
1.479777279082395
 10
38.568771733233234
 20
1.4774710672444917
 10
38.578712500137115
 20
1.4754846642078159
 10
38.58650864558214
 20
1.4737626590306014
 10
38.59204056474403
 20
1.4724158735963802
 10
38.59536366856451
 20
1.4715041103173125
 10
38.5964735655732
 20
1.4711425825473265
  0
ENDSEC
  0
SECTION
  2
OBJECTS
  0
DICTIONARY
  5
A
330
0
100
AcDbDictionary
280
0
281
1
  3
ACAD_COLOR
350
B
  3
ACAD_GROUP
350
C
  3
ACAD_LAYOUT
350
D
  3
ACAD_MATERIAL
350
E
  3
ACAD_MLEADERSTYLE
350
F
  3
ACAD_MLINESTYLE
350
10
  3
ACAD_PLOTSETTINGS
350
11
  3
ACAD_PLOTSTYLENAME
350
12
  3
ACAD_SCALELIST
350
14
  3
ACAD_TABLESTYLE
350
15
  3
ACAD_VISUALSTYLE
350
16
  3
EZDXF_META
350
2D
  0
DICTIONARY
  5
B
330
A
100
AcDbDictionary
280
0
281
1
  0
DICTIONARY
  5
C
330
A
100
AcDbDictionary
280
0
281
1
  0
DICTIONARY
  5
D
330
A
100
AcDbDictionary
280
0
281
1
  3
Model
350
1A
  3
Layout1
350
1E
  0
DICTIONARY
  5
E
330
A
100
AcDbDictionary
280
0
281
1
  3
ByBlock
350
1F
  3
ByLayer
350
20
  3
Global
350
21
  0
DICTIONARY
  5
F
330
A
100
AcDbDictionary
280
0
281
1
  3
Standard
350
2C
  0
DICTIONARY
  5
10
330
A
100
AcDbDictionary
280
0
281
1
  3
Standard
350
22
  0
DICTIONARY
  5
11
330
A
100
AcDbDictionary
280
0
281
1
  0
ACDBDICTIONARYWDFLT
  5
12
330
A
100
AcDbDictionary
280
0
281
1
  3
Normal
350
13
100
AcDbDictionaryWithDefault
340
13
  0
ACDBPLACEHOLDER
  5
13
330
12
  0
DICTIONARY
  5
14
330
A
100
AcDbDictionary
280
0
281
1
  0
DICTIONARY
  5
15
330
A
100
AcDbDictionary
280
0
281
1
  0
DICTIONARY
  5
16
330
A
100
AcDbDictionary
280
0
281
1
  0
LAYOUT
  5
1A
330
D
100
AcDbPlotSettings
  1

  4
A3
  6

 40
7.5
 41
20.0
 42
7.5
 43
20.0
 44
420.0
 45
297.0
 46
0.0
 47
0.0
 48
0.0
 49
0.0
140
0.0
141
0.0
142
1.0
143
1.0
 70
1024
 72
1
 73
0
 74
5
  7

 75
16
 76
0
 77
2
 78
300
147
1.0
148
0.0
149
0.0
100
AcDbLayout
  1
Model
 70
1
 71
0
 10
0.0
 20
0.0
 11
420.0
 21
297.0
 12
0.0
 22
0.0
 32
0.0
 14
1e+20
 24
1e+20
 34
1e+20
 15
-1e+20
 25
-1e+20
 35
-1e+20
146
0.0
 13
0.0
 23
0.0
 33
0.0
 16
1.0
 26
0.0
 36
0.0
 17
0.0
 27
1.0
 37
0.0
 76
1
330
17
  0
LAYOUT
  5
1E
330
D
100
AcDbPlotSettings
  1

  4
A3
  6

 40
7.5
 41
20.0
 42
7.5
 43
20.0
 44
420.0
 45
297.0
 46
0.0
 47
0.0
 48
0.0
 49
0.0
140
0.0
141
0.0
142
1.0
143
1.0
 70
0
 72
1
 73
0
 74
5
  7

 75
16
 76
0
 77
2
 78
300
147
1.0
148
0.0
149
0.0
100
AcDbLayout
  1
Layout1
 70
1
 71
1
 10
0.0
 20
0.0
 11
420.0
 21
297.0
 12
0.0
 22
0.0
 32
0.0
 14
1e+20
 24
1e+20
 34
1e+20
 15
-1e+20
 25
-1e+20
 35
-1e+20
146
0.0
 13
0.0
 23
0.0
 33
0.0
 16
1.0
 26
0.0
 36
0.0
 17
0.0
 27
1.0
 37
0.0
 76
1
330
1B
  0
MATERIAL
  5
1F
102
{ACAD_REACTORS
330
E
102
}
330
E
100
AcDbMaterial
  1
ByBlock
  2

 70
0
 40
1.0
 71
1
 41
1.0
 91
-1023410177
 42
1.0
 72
1
  3

 73
1
 74
1
 75
1
 44
0.5
 73
0
 45
1.0
 46
1.0
 77
1
  4

 78
1
 79
1
170
1
 48
1.0
171
1
  6

172
1
173
1
174
1
140
1.0
141
1.0
175
1
  7

176
1
177
1
178
1
143
1.0
179
1
  8

270
1
271
1
272
1
145
1.0
146
1.0
273
1
  9

274
1
275
1
276
1
 42
1.0
 72
1
  3

 73
1
 74
1
 75
1
 94
63
  0
MATERIAL
  5
20
102
{ACAD_REACTORS
330
E
102
}
330
E
100
AcDbMaterial
  1
ByLayer
  2

 70
0
 40
1.0
 71
1
 41
1.0
 91
-1023410177
 42
1.0
 72
1
  3

 73
1
 74
1
 75
1
 44
0.5
 73
0
 45
1.0
 46
1.0
 77
1
  4

 78
1
 79
1
170
1
 48
1.0
171
1
  6

172
1
173
1
174
1
140
1.0
141
1.0
175
1
  7

176
1
177
1
178
1
143
1.0
179
1
  8

270
1
271
1
272
1
145
1.0
146
1.0
273
1
  9

274
1
275
1
276
1
 42
1.0
 72
1
  3

 73
1
 74
1
 75
1
 94
63
  0
MATERIAL
  5
21
102
{ACAD_REACTORS
330
E
102
}
330
E
100
AcDbMaterial
  1
Global
  2

 70
0
 40
1.0
 71
1
 41
1.0
 91
-1023410177
 42
1.0
 72
1
  3

 73
1
 74
1
 75
1
 44
0.5
 73
0
 45
1.0
 46
1.0
 77
1
  4

 78
1
 79
1
170
1
 48
1.0
171
1
  6

172
1
173
1
174
1
140
1.0
141
1.0
175
1
  7

176
1
177
1
178
1
143
1.0
179
1
  8

270
1
271
1
272
1
145
1.0
146
1.0
273
1
  9

274
1
275
1
276
1
 42
1.0
 72
1
  3

 73
1
 74
1
 75
1
 94
63
  0
MLINESTYLE
  5
22
102
{ACAD_REACTORS
330
10
102
}
330
10
100
AcDbMlineStyle
  2
Standard
 70
0
  3

 62
256
 51
90.0
 52
90.0
 71
2
 49
0.5
 62
256
  6
BYLAYER
 49
-0.5
 62
256
  6
BYLAYER
  0
MLEADERSTYLE
  5
2C
102
{ACAD_REACTORS
330
F
102
}
330
F
100
AcDbMLeaderStyle
179
2
170
2
171
1
172
0
 90
2
 40
0.0
 41
0.0
173
1
 91
-1056964608
 92
-2
290
1
 42
2.0
291
1
 43
8.0
  3
Standard
 44
4.0
300

342
29
174
1
175
1
176
0
178
1
 93
-1056964608
 45
4.0
292
0
297
0
 46
4.0
 94
-1056964608
 47
1.0
 49
1.0
140
1.0
294
1
141
0.0
177
0
142
1.0
295
0
296
0
143
3.75
271
0
272
9
273
9
  0
DICTIONARY
  5
2D
330
A
100
AcDbDictionary
280
1
281
1
  3
CREATED_BY_EZDXF
350
2E
  3
WRITTEN_BY_EZDXF
350
32
  0
DICTIONARYVAR
  5
2E
330
2D
100
DictionaryVariables
280
0
  1
1.3.5 @ 2025-08-20T01:05:14.534815+00:00
  0
DICTIONARYVAR
  5
32
330
2D
100
DictionaryVariables
280
0
  1
1.3.5 @ 2025-08-20T01:05:14.540803+00:00
  0
ENDSEC
  0
EOF
