  0
SECTION
  2
HEADER
  9
$ACADVER
  1
AC1032
  9
$ACADMAINTVER
 90
4
  9
$DWGCODEPAGE
  3
ANSI_1252
  9
$LASTSAVEDBY
  1
ezdxf
  9
$REQUIREDVERSIONS
160
0
  9
$INSBASE
 10
0.0
 20
0.0
 30
0.0
  9
$EXTMIN
 10
1e+20
 20
1e+20
 30
1e+20
  9
$EXTMAX
 10
-1e+20
 20
-1e+20
 30
-1e+20
  9
$LIMMIN
 10
0.0
 20
0.0
  9
$LIMMAX
 10
420.0
 20
297.0
  9
$ORTHOMODE
 70
0
  9
$REGENMODE
 70
1
  9
$FILLMODE
 70
1
  9
$QTEXTMODE
 70
0
  9
$MIRRTEXT
 70
1
  9
$LTSCALE
 40
1.0
  9
$ATTMODE
 70
1
  9
$TEXTSIZE
 40
2.5
  9
$TRACEWID
 40
1.0
  9
$TEXTSTYLE
  7
Standard
  9
$CLAYER
  8
0
  9
$CELTYPE
  6
ByLayer
  9
$CECOLOR
 62
256
  9
$CELTSCALE
 40
1.0
  9
$DISPSILH
 70
0
  9
$DIMSCALE
 40
1.0
  9
$DIMASZ
 40
2.5
  9
$DIMEXO
 40
0.625
  9
$DIMDLI
 40
3.75
  9
$DIMRND
 40
0.0
  9
$DIMDLE
 40
0.0
  9
$DIMEXE
 40
1.25
  9
$DIMTP
 40
0.0
  9
$DIMTM
 40
0.0
  9
$DIMTXT
 40
2.5
  9
$DIMCEN
 40
2.5
  9
$DIMTSZ
 40
0.0
  9
$DIMTOL
 70
0
  9
$DIMLIM
 70
0
  9
$DIMTIH
 70
0
  9
$DIMTOH
 70
0
  9
$DIMSE1
 70
0
  9
$DIMSE2
 70
0
  9
$DIMTAD
 70
1
  9
$DIMZIN
 70
8
  9
$DIMBLK
  1

  9
$DIMASO
 70
1
  9
$DIMSHO
 70
1
  9
$DIMPOST
  1

  9
$DIMAPOST
  1

  9
$DIMALT
 70
0
  9
$DIMALTD
 70
3
  9
$DIMALTF
 40
0.03937007874
  9
$DIMLFAC
 40
1.0
  9
$DIMTOFL
 70
1
  9
$DIMTVP
 40
0.0
  9
$DIMTIX
 70
0
  9
$DIMSOXD
 70
0
  9
$DIMSAH
 70
0
  9
$DIMBLK1
  1

  9
$DIMBLK2
  1

  9
$DIMSTYLE
  2
ISO-25
  9
$DIMCLRD
 70
0
  9
$DIMCLRE
 70
0
  9
$DIMCLRT
 70
0
  9
$DIMTFAC
 40
1.0
  9
$DIMGAP
 40
0.625
  9
$DIMJUST
 70
0
  9
$DIMSD1
 70
0
  9
$DIMSD2
 70
0
  9
$DIMTOLJ
 70
0
  9
$DIMTZIN
 70
8
  9
$DIMALTZ
 70
0
  9
$DIMALTTZ
 70
0
  9
$DIMUPT
 70
0
  9
$DIMDEC
 70
2
  9
$DIMTDEC
 70
2
  9
$DIMALTU
 70
2
  9
$DIMALTTD
 70
3
  9
$DIMTXSTY
  7
Standard
  9
$DIMAUNIT
 70
0
  9
$DIMADEC
 70
0
  9
$DIMALTRND
 40
0.0
  9
$DIMAZIN
 70
0
  9
$DIMDSEP
 70
44
  9
$DIMATFIT
 70
3
  9
$DIMFRAC
 70
0
  9
$DIMLDRBLK
  1

  9
$DIMLUNIT
 70
2
  9
$DIMLWD
 70
-2
  9
$DIMLWE
 70
-2
  9
$DIMTMOVE
 70
0
  9
$DIMFXL
 40
1.0
  9
$DIMFXLON
 70
0
  9
$DIMJOGANG
 40
0.785398163397
  9
$DIMTFILL
 70
0
  9
$DIMTFILLCLR
 70
0
  9
$DIMARCSYM
 70
0
  9
$DIMLTYPE
  6

  9
$DIMLTEX1
  6

  9
$DIMLTEX2
  6

  9
$DIMTXTDIRECTION
 70
0
  9
$LUNITS
 70
2
  9
$LUPREC
 70
4
  9
$SKETCHINC
 40
1.0
  9
$FILLETRAD
 40
10.0
  9
$AUNITS
 70
0
  9
$AUPREC
 70
2
  9
$MENU
  1
.
  9
$ELEVATION
 40
0.0
  9
$PELEVATION
 40
0.0
  9
$THICKNESS
 40
0.0
  9
$LIMCHECK
 70
0
  9
$CHAMFERA
 40
0.0
  9
$CHAMFERB
 40
0.0
  9
$CHAMFERC
 40
0.0
  9
$CHAMFERD
 40
0.0
  9
$SKPOLY
 70
0
  9
$TDCREATE
 40
2460908.0869675926
  9
$TDUCREATE
 40
2458532.153996898
  9
$TDUPDATE
 40
2460908.0869675926
  9
$TDUUPDATE
 40
2458532.1544311
  9
$TDINDWG
 40
0.0
  9
$TDUSRTIMER
 40
0.0
  9
$USRTIMER
 70
1
  9
$ANGBASE
 50
0.0
  9
$ANGDIR
 70
0
  9
$PDMODE
 70
0
  9
$PDSIZE
 40
0.0
  9
$PLINEWID
 40
0.0
  9
$SPLFRAME
 70
0
  9
$SPLINETYPE
 70
6
  9
$SPLINESEGS
 70
8
  9
$HANDSEED
  5
33
  9
$SURFTAB1
 70
6
  9
$SURFTAB2
 70
6
  9
$SURFTYPE
 70
6
  9
$SURFU
 70
6
  9
$SURFV
 70
6
  9
$UCSBASE
  2

  9
$UCSNAME
  2

  9
$UCSORG
 10
0.0
 20
0.0
 30
0.0
  9
$UCSXDIR
 10
1.0
 20
0.0
 30
0.0
  9
$UCSYDIR
 10
0.0
 20
1.0
 30
0.0
  9
$UCSORTHOREF
  2

  9
$UCSORTHOVIEW
 70
0
  9
$UCSORGTOP
 10
0.0
 20
0.0
 30
0.0
  9
$UCSORGBOTTOM
 10
0.0
 20
0.0
 30
0.0
  9
$UCSORGLEFT
 10
0.0
 20
0.0
 30
0.0
  9
$UCSORGRIGHT
 10
0.0
 20
0.0
 30
0.0
  9
$UCSORGFRONT
 10
0.0
 20
0.0
 30
0.0
  9
$UCSORGBACK
 10
0.0
 20
0.0
 30
0.0
  9
$PUCSBASE
  2

  9
$PUCSNAME
  2

  9
$PUCSORG
 10
0.0
 20
0.0
 30
0.0
  9
$PUCSXDIR
 10
1.0
 20
0.0
 30
0.0
  9
$PUCSYDIR
 10
0.0
 20
1.0
 30
0.0
  9
$PUCSORTHOREF
  2

  9
$PUCSORTHOVIEW
 70
0
  9
$PUCSORGTOP
 10
0.0
 20
0.0
 30
0.0
  9
$PUCSORGBOTTOM
 10
0.0
 20
0.0
 30
0.0
  9
$PUCSORGLEFT
 10
0.0
 20
0.0
 30
0.0
  9
$PUCSORGRIGHT
 10
0.0
 20
0.0
 30
0.0
  9
$PUCSORGFRONT
 10
0.0
 20
0.0
 30
0.0
  9
$PUCSORGBACK
 10
0.0
 20
0.0
 30
0.0
  9
$USERI1
 70
0
  9
$USERI2
 70
0
  9
$USERI3
 70
0
  9
$USERI4
 70
0
  9
$USERI5
 70
0
  9
$USERR1
 40
0.0
  9
$USERR2
 40
0.0
  9
$USERR3
 40
0.0
  9
$USERR4
 40
0.0
  9
$USERR5
 40
0.0
  9
$WORLDVIEW
 70
1
  9
$SHADEDGE
 70
3
  9
$SHADEDIF
 70
70
  9
$TILEMODE
 70
1
  9
$MAXACTVP
 70
64
  9
$PINSBASE
 10
0.0
 20
0.0
 30
0.0
  9
$PLIMCHECK
 70
0
  9
$PEXTMIN
 10
1e+20
 20
1e+20
 30
1e+20
  9
$PEXTMAX
 10
-1e+20
 20
-1e+20
 30
-1e+20
  9
$PLIMMIN
 10
0.0
 20
0.0
  9
$PLIMMAX
 10
420.0
 20
297.0
  9
$UNITMODE
 70
0
  9
$VISRETAIN
 70
1
  9
$PLINEGEN
 70
0
  9
$PSLTSCALE
 70
1
  9
$TREEDEPTH
 70
3020
  9
$CMLSTYLE
  2
Standard
  9
$CMLJUST
 70
0
  9
$CMLSCALE
 40
20.0
  9
$PROXYGRAPHICS
 70
1
  9
$MEASUREMENT
 70
1
  9
$CELWEIGHT
370
-1
  9
$ENDCAPS
280
0
  9
$JOINSTYLE
280
0
  9
$LWDISPLAY
290
0
  9
$INSUNITS
 70
6
  9
$HYPERLINKBASE
  1

  9
$STYLESHEET
  1

  9
$XEDIT
290
1
  9
$CEPSNTYPE
380
0
  9
$PSTYLEMODE
290
1
  9
$FINGERPRINTGUID
  2
{035DA343-59C5-4728-B3CC-70C72CCA3794}
  9
$VERSIONGUID
  2
{2609F9B2-74D2-4D5E-A1D1-78BD3503F3DF}
  9
$EXTNAMES
290
1
  9
$PSVPSCALE
 40
0.0
  9
$OLESTARTUP
290
0
  9
$SORTENTS
280
127
  9
$INDEXCTL
280
0
  9
$HIDETEXT
280
1
  9
$XCLIPFRAME
280
1
  9
$HALOGAP
280
0
  9
$OBSCOLOR
 70
257
  9
$OBSLTYPE
280
0
  9
$INTERSECTIONDISPLAY
280
0
  9
$INTERSECTIONCOLOR
 70
257
  9
$DIMASSOC
280
2
  9
$PROJECTNAME
  1

  9
$CAMERADISPLAY
290
0
  9
$LENSLENGTH
 40
50.0
  9
$CAMERAHEIGHT
 40
0.0
  9
$STEPSPERSEC
 40
24.0
  9
$STEPSIZE
 40
100.0
  9
$3DDWFPREC
 40
2.0
  9
$PSOLWIDTH
 40
0.005
  9
$PSOLHEIGHT
 40
0.08
  9
$LOFTANG1
 40
1.570796326795
  9
$LOFTANG2
 40
1.570796326795
  9
$LOFTMAG1
 40
0.0
  9
$LOFTMAG2
 40
0.0
  9
$LOFTPARAM
 70
7
  9
$LOFTNORMALS
280
1
  9
$LATITUDE
 40
37.795
  9
$LONGITUDE
 40
-122.394
  9
$NORTHDIRECTION
 40
0.0
  9
$TIMEZONE
 70
-8000
  9
$LIGHTGLYPHDISPLAY
280
1
  9
$TILEMODELIGHTSYNCH
280
1
  9
$CMATERIAL
347
20
  9
$SOLIDHIST
280
0
  9
$SHOWHIST
280
1
  9
$DWFFRAME
280
2
  9
$DGNFRAME
280
2
  9
$REALWORLDSCALE
290
1
  9
$INTERFERECOLOR
 62
256
  9
$CSHADOW
280
0
  9
$SHADOWPLANELOCATION
 40
0.0
  0
ENDSEC
  0
SECTION
  2
CLASSES
  0
CLASS
  1
ACDBDICTIONARYWDFLT
  2
AcDbDictionaryWithDefault
  3
ObjectDBX Classes
 90
0
 91
0
280
0
281
0
  0
CLASS
  1
SUN
  2
AcDbSun
  3
SCENEOE
 90
1153
 91
0
280
0
281
0
  0
CLASS
  1
VISUALSTYLE
  2
AcDbVisualStyle
  3
ObjectDBX Classes
 90
4095
 91
0
280
0
281
0
  0
CLASS
  1
MATERIAL
  2
AcDbMaterial
  3
ObjectDBX Classes
 90
1153
 91
0
280
0
281
0
  0
CLASS
  1
SCALE
  2
AcDbScale
  3
ObjectDBX Classes
 90
1153
 91
0
280
0
281
0
  0
CLASS
  1
TABLESTYLE
  2
AcDbTableStyle
  3
ObjectDBX Classes
 90
4095
 91
0
280
0
281
0
  0
CLASS
  1
MLEADERSTYLE
  2
AcDbMLeaderStyle
  3
ACDB_MLEADERSTYLE_CLASS
 90
4095
 91
0
280
0
281
0
  0
CLASS
  1
DICTIONARYVAR
  2
AcDbDictionaryVar
  3
ObjectDBX Classes
 90
0
 91
0
280
0
281
0
  0
CLASS
  1
CELLSTYLEMAP
  2
AcDbCellStyleMap
  3
ObjectDBX Classes
 90
1152
 91
0
280
0
281
0
  0
CLASS
  1
MENTALRAYRENDERSETTINGS
  2
AcDbMentalRayRenderSettings
  3
SCENEOE
 90
1024
 91
0
280
0
281
0
  0
CLASS
  1
ACDBDETAILVIEWSTYLE
  2
AcDbDetailViewStyle
  3
ObjectDBX Classes
 90
1025
 91
0
280
0
281
0
  0
CLASS
  1
ACDBSECTIONVIEWSTYLE
  2
AcDbSectionViewStyle
  3
ObjectDBX Classes
 90
1025
 91
0
280
0
281
0
  0
CLASS
  1
RASTERVARIABLES
  2
AcDbRasterVariables
  3
ISM
 90
0
 91
0
280
0
281
0
  0
CLASS
  1
LAYOUT
  2
AcDbLayout
  3
ObjectDBX Classes
 90
0
 91
0
280
0
281
0
  0
CLASS
  1
ACDBPLACEHOLDER
  2
AcDbPlaceHolder
  3
ObjectDBX Classes
 90
0
 91
0
280
0
281
0
  0
ENDSEC
  0
SECTION
  2
TABLES
  0
TABLE
  2
VPORT
  5
8
330
0
100
AcDbSymbolTable
 70
1
  0
VPORT
  5
23
330
8
100
AcDbSymbolTableRecord
100
AcDbViewportTableRecord
  2
*Active
 70
0
 10
0.0
 20
0.0
 11
1.0
 21
1.0
 12
0.0
 22
0.0
 13
0.0
 23
0.0
 14
0.5
 24
0.5
 15
0.5
 25
0.5
 16
0.0
 26
0.0
 36
1.0
 17
0.0
 27
0.0
 37
0.0
 40
1000.0
 41
1.34
 42
50.0
 43
0.0
 44
0.0
 50
0.0
 51
0.0
 71
0
 72
1000
 73
1
 74
3
 75
0
 76
0
 77
0
 78
0
281
0
 65
0
146
0.0
  0
ENDTAB
  0
TABLE
  2
LTYPE
  5
2
330
0
100
AcDbSymbolTable
 70
3
  0
LTYPE
  5
24
330
2
100
AcDbSymbolTableRecord
100
AcDbLinetypeTableRecord
  2
ByBlock
 70
0
  3

 72
65
 73
0
 40
0.0
  0
LTYPE
  5
25
330
2
100
AcDbSymbolTableRecord
100
AcDbLinetypeTableRecord
  2
ByLayer
 70
0
  3

 72
65
 73
0
 40
0.0
  0
LTYPE
  5
26
330
2
100
AcDbSymbolTableRecord
100
AcDbLinetypeTableRecord
  2
Continuous
 70
0
  3

 72
65
 73
0
 40
0.0
  0
ENDTAB
  0
TABLE
  2
LAYER
  5
1
330
0
100
AcDbSymbolTable
 70
2
  0
LAYER
  5
27
330
1
100
AcDbSymbolTableRecord
100
AcDbLayerTableRecord
  2
0
 70
0
 62
7
  6
Continuous
370
-3
390
13
347
21
  0
LAYER
  5
28
330
1
100
AcDbSymbolTableRecord
100
AcDbLayerTableRecord
  2
Defpoints
 70
0
 62
7
  6
Continuous
290
0
370
-3
390
13
347
21
  0
ENDTAB
  0
TABLE
  2
STYLE
  5
5
330
0
100
AcDbSymbolTable
 70
1
  0
STYLE
  5
29
330
5
100
AcDbSymbolTableRecord
100
AcDbTextStyleTableRecord
  2
Standard
 70
0
 40
0.0
 41
1.0
 50
0.0
 71
0
 42
2.5
  3
txt
  4

  0
ENDTAB
  0
TABLE
  2
VIEW
  5
7
330
0
100
AcDbSymbolTable
 70
0
  0
ENDTAB
  0
TABLE
  2
UCS
  5
6
330
0
100
AcDbSymbolTable
 70
0
  0
ENDTAB
  0
TABLE
  2
APPID
  5
3
330
0
100
AcDbSymbolTable
 70
3
  0
APPID
  5
2A
330
3
100
AcDbSymbolTableRecord
100
AcDbRegAppTableRecord
  2
ACAD
 70
0
  0
APPID
  5
30
330
3
100
AcDbSymbolTableRecord
100
AcDbRegAppTableRecord
  2
HATCHBACKGROUNDCOLOR
 70
0
  0
APPID
  5
31
330
3
100
AcDbSymbolTableRecord
100
AcDbRegAppTableRecord
  2
EZDXF
 70
0
  0
ENDTAB
  0
TABLE
  2
DIMSTYLE
  5
4
330
0
100
AcDbSymbolTable
 70
1
100
AcDbDimStyleTable
  0
DIMSTYLE
105
2B
330
4
100
AcDbSymbolTableRecord
100
AcDbDimStyleTableRecord
  2
Standard
 70
0
 40
1.0
 41
2.5
 42
0.625
 43
3.75
 44
1.25
 45
0.0
 46
0.0
 47
0.0
 48
0.0
 49
2.5
140
2.5
141
2.5
142
0.0
143
0.03937007874
144
1.0
145
0.0
146
1.0
147
0.625
148
0.0
 69
0
 70
0
 71
0
 72
0
 73
0
 74
0
 75
0
 76
0
 77
1
 78
8
 79
3
170
0
171
3
172
1
173
0
174
0
175
0
176
0
177
0
178
0
179
2
271
2
272
2
273
2
274
3
275
0
276
0
277
2
278
44
279
0
280
0
281
0
282
0
283
0
284
8
285
0
286
0
288
0
289
3
290
0
371
-2
372
-2
  0
ENDTAB
  0
TABLE
  2
BLOCK_RECORD
  5
9
330
0
100
AcDbSymbolTable
 70
2
  0
BLOCK_RECORD
  5
17
330
9
100
AcDbSymbolTableRecord
100
AcDbBlockTableRecord
  2
*Model_Space
340
1A
 70
0
280
1
281
0
  0
BLOCK_RECORD
  5
1B
330
9
100
AcDbSymbolTableRecord
100
AcDbBlockTableRecord
  2
*Paper_Space
340
1E
 70
0
280
1
281
0
  0
ENDTAB
  0
ENDSEC
  0
SECTION
  2
BLOCKS
  0
BLOCK
  5
18
330
17
100
AcDbEntity
  8
0
100
AcDbBlockBegin
  2
*Model_Space
 70
0
 10
0.0
 20
0.0
 30
0.0
  3
*Model_Space
  1

  0
ENDBLK
  5
19
330
17
100
AcDbEntity
  8
0
100
AcDbBlockEnd
  0
BLOCK
  5
1C
330
1B
100
AcDbEntity
  8
0
100
AcDbBlockBegin
  2
*Paper_Space
 70
0
 10
0.0
 20
0.0
 30
0.0
  3
*Paper_Space
  1

  0
ENDBLK
  5
1D
330
1B
100
AcDbEntity
  8
0
100
AcDbBlockEnd
  0
ENDSEC
  0
SECTION
  2
ENTITIES
  0
LWPOLYLINE
  5
2F
330
17
100
AcDbEntity
  8
0
100
AcDbPolyline
 90
721
 70
1
 10
45.63972740038257
 20
2.9345003242264016
 10
45.638402480497675
 20
2.934893940025868
 10
45.63443648054547
 20
2.9359385494320267
 10
45.627846919930846
 20
2.9373616764603976
 10
45.61855691995526
 20
2.939295179251992
 10
45.606715858164605
 20
2.941543460520908
 10
45.592251235711565
 20
2.9441702594120374
 10
45.57509931345123
 20
2.947103077078029
 10
45.55539632937585
 20
2.950350673221344
 10
45.53307854434052
 20
2.9538405489946307
 10
45.508069079646674
 20
2.9577045625389005
 10
45.48051293298901
 20
2.9618152355643725
 10
45.4503419853714
 20
2.966168188219818
 10
45.41755185694263
 20
2.970831539501356
 10
45.38215130740513
 20
2.9756690514167463
 10
45.34413157705649
 20
2.98081696195823
 10
45.303565164744015
 20
2.9862115319809157
 10
45.26038395147158
 20
2.991848381633574
 10
45.214583557387996
 20
2.997795629912325
 10
45.16624086119183
 20
3.00392141867616
 10
45.11527898418447
 20
3.0103576060660866
 10
45.061706686068426
 20
3.0169679540898664
 10
45.00565144513344
 20
3.0238974604421993
 10
44.94691328424239
 20
3.0310648665732747
 10
44.88569656038364
 20
3.038483312036783
 10
44.82186503556495
 20
3.0461440371302633
 10
44.755486828782445
 20
3.054051421704947
 10
44.68656194003612
 20
3.0622054657608335
 10
44.615085989474736
 20
3.0706742882940428
 10
44.54105897709831
 20
3.0794578893045754
 10
44.46448966260928
 20
3.08842003080019
 10
44.385369286305206
 20
3.097696950773128
 10
44.30377034703345
 20
3.1072249100784997
 10
44.21962034594662
 20
3.1170676478611927
 10
44.13292804274722
 20
3.1270889261289696
 10
44.043752796728874
 20
3.1374293627252996
 10
43.95209022804037
 20
3.148157076646302
 10
43.857953476235394
 20
3.159067710903618
 10
43.76126566261538
 20
3.170293123638257
 10
43.662167405023766
 20
3.1817739555565585
 10
43.560518085617126
 20
3.1935695659521834
 10
43.456453942387654
 20
3.205688714527591
 10
43.34990685633927
 20
3.2181270214315525
 10
43.24094494646807
 20
3.2308888665152966
 10
43.12950447362916
 20
3.2439017509314736
 10
43.015653556818684
 20
3.2571700545313145
 10
42.89931531733803
 20
3.270825635455827
 10
42.780630373030704
 20
3.2848091344113555
 10
42.659530604900546
 20
3.2991161715466646
 10
42.5360160129476
 20
3.3137467468617583
 10
42.410086597171826
 20
3.3287008603566344
 10
42.28180609671814
 20
3.3440510108786445
 10
42.15111077244166
 20
3.359724699580438
 10
42.018064363487234
 20
3.375794425309364
 10
41.882671249706114
 20
3.3921920690693037
 10
41.744940190800776
 20
3.408781392868017
 10
41.60493054606487
 20
3.4257030145489744
 10
41.46256543679983
 20
3.443088792253185
 10
41.317844863005604
 20
3.460938725980648
 10
41.17085008323205
 20
3.479052838594235
 10
41.02157671762793
 20
3.497499249090067
 10
40.87002476619324
 20
3.5162779574681413
 10
40.716181089374295
 20
3.5355933207168193
 10
40.56006758642722
 20
3.555104743855501
 10
40.401743616645724
 20
3.5749528447276564
 10
40.241204800178515
 20
3.595205742329405
 10
40.07837863817831
 20
3.6159271758056386
 10
39.91340574848851
 20
3.637057785862695
 10
39.74622239196428
 20
3.6585250736532253
 10
39.57682856860559
 20
3.68032903917723
 10
39.40528363770611
 20
3.702610300278178
 10
39.231605118670764
 20
3.72509638097159
 10
39.05571613280097
 20
3.7479191393984754
 10
38.877748538237725
 20
3.7711554542574155
 10
38.697702334981045
 20
3.7948053255484093
 10
38.51551816373726
 20
3.818728135427988
 10
38.33119164465517
 20
3.842992002892271
 10
38.14485901572696
 20
3.867605687643717
 10
37.95644339825409
 20
3.8927010478233375
 10
37.76595793179025
 20
3.9180737264427723
 10
37.573470735331526
 20
3.943728103353251
 10
37.37898180887795
 20
3.969664178554775
 10
37.18248239272705
 20
3.9960181900395826
 10
36.98397248687884
 20
4.022790137807674
 10
36.783456471184536
 20
4.049911902862932
 10
36.58107496348763
 20
4.0773241259116935
 10
36.37668734594461
 20
4.105086166247619
 10
36.170361737551616
 20
4.133202403721938
 10
35.96217939685847
 20
4.161472861197523
 10
35.752067825017804
 20
4.189961277819263
 10
35.54008200147207
 20
4.218876390426748
 10
35.32629004521737
 20
4.248222578871206
 10
35.11056447796394
 20
4.277854845457941
 10
34.89305467725769
 20
4.307577592901049
 10
34.67374312369372
 20
4.337663297185013
 10
34.45263419712323
 20
4.368043839313712
 10
34.22972351769502
 20
4.398787338283265
 10
34.00508796410766
 20
4.429761935952663
 10
33.77872753636115
 20
4.460967632321908
 10
33.55057411545937
 20
4.492400047539766
 10
33.32075955954331
 20
4.524136060304819
 10
33.089215749616905
 20
4.55617129076584
 10
32.856019564378684
 20
4.5883738807818135
 10
32.621171003828664
 20
4.620743830352743
 10
32.384738186962956
 20
4.6532855193298595
 10
32.14664861493423
 20
4.686062686858051
 10
31.906961647036116
 20
4.719215950780786
 10
31.66562230382621
 20
4.752536574258477
 10
31.42283056244164
 20
4.786105815840935
 10
31.17846770429508
 20
4.8196424398412185
 10
30.932529349535297
 20
4.853214565255447
 10
30.68513859660084
 20
4.8870353087744425
 10
30.43629106564049
 20
4.921172789394323
 10
30.18586365821568
 20
4.9554138904242695
 10
29.934137610013366
 20
4.989639893276962
 10
29.68091294389642
 20
5.023769539402591
 10
29.42631275830337
 20
5.058015945491975
 10
29.170264554386886
 20
5.092442850690006
 10
28.912908949990438
 20
5.126990895703023
 10
28.65419096567158
 20
5.161451343691436
 10
28.394169960723985
 20
5.195964812498715
 10
28.13283717544519
 20
5.230667540117101
 10
27.870214509091348
 20
5.265218931565992
 10
27.60630634151369
 20
5.2995508678492715
 10
27.341227011448296
 20
5.3340127036499965
 10
27.074844660754167
 20
5.368527560269589
 10
26.8072911475723
 20
5.403172316406627
 10
26.53859275101009
 20
5.437538258084393
 10
26.2687450912163
 20
5.4716935042990045
 10
25.99773940848847
 20
5.505774293042704
 10
25.725562563272913
 20
5.539984981303849
 10
25.452368312966776
 20
5.574061852800423
 10
25.178037938982765
 20
5.607723671845482
 10
24.902762658755524
 20
5.641187934981079
 10
24.62638433503668
 20
5.674786477485354
 10
24.348988606227262
 20
5.708251203225055
 10
24.070592991732195
 20
5.7413096362157034
 10
23.791324969841266
 20
5.774106774152
 10
23.51104392271099
 20
5.806701976327603
 10
23.229881708482388
 20
5.839172121441094
 10
22.94777458801056
 20
5.871444710645123
 10
22.664799439994102
 20
5.903387885798678
 10
22.381024383429125
 20
5.935006026752992
 10
22.0963812993195
 20
5.966294753656834
 10
21.81100642565749
 20
5.997262826212665
 10
21.524763524450826
 20
6.02790148471802
 10
21.237780073989317
 20
6.058355726867607
 10
20.95006045412417
 20
6.088557433665301
 10
20.66162656411154
 20
6.118166010130501
 10
20.37246964424898
 20
6.147317694255451
 10
20.082721552677484
 20
6.176089364738729
 10
19.7922416715536
 20
6.204540380873994
 10
19.501174998572004
 20
6.232543264371468
 10
19.209525913583953
 20
6.260029896235031
 10
18.917298796440658
 20
6.286932157468564
 10
18.62448488743966
 20
6.313386286064303
 10
18.331147925725862
 20
6.339464780869602
 10
18.03728791129924
 20
6.365167641884458
 10
17.742986102709636
 20
6.3902948919717435
 10
17.448178760812137
 20
6.414774032284109
 10
17.1529383844541
 20
6.438541323676662
 10
16.85731995307796
 20
6.461805502988995
 10
16.561242208133894
 20
6.484766547358237
 10
16.264850147316608
 20
6.507296978494607
 10
15.968110690439827
 20
6.528847464577917
 10
15.670997558396168
 20
6.549826719584886
 10
15.37364260932664
 20
6.570311622214094
 10
15.075986483937594
 20
6.590161554622073
 10
14.778033562080235
 20
6.609308397812699
 10
14.479906942193137
 20
6.627965268476796
 10
14.181542885131401
 20
6.6460596677670125
 10
13.883022649444833
 20
6.663391618546218
 10
13.584278116137309
 20
6.679956740963183
 10
13.285441143349862
 20
6.695831913716489
 10
12.98650735123124
 20
6.711085255802254
 10
12.68748987933514
 20
6.7255124102321195
 10
12.388384347810334
 20
6.739181496002203
 10
12.089254495801711
 20
6.752165011959859
 10
11.790019064759454
 20
6.764662935242214
 10
11.490840571783195
 20
6.776275311575008
 10
11.191719016872922
 20
6.787002140958244
 10
10.892650020177411
 20
6.79691154238804
 10
10.59362920184544
 20
6.806071634860516
 10
10.294729060724347
 20
6.814418679230783
 10
9.995877097966787
 20
6.82201641464373
 10
9.69721393141623
 20
6.828805481805697
 10
9.398748320775132
 20
6.834649642724446
 10
9.10047588619227
 20
6.839617016396095
 10
8.802392247816407
 20
6.8437757218167645
 10
8.504501785498778
 20
6.847057639990334
 10
8.206949496934087
 20
6.849335292627027
 10
7.90965850342374
 20
6.850740537867848
 10
7.612688164261413
 20
6.851413993556272
 10
7.315992259707122
 20
6.8510106848604675
 10
7.019698268050653
 20
6.849675609475131
 10
6.723793049738322
 20
6.847613124388629
 10
6.428221625327689
 20
6.844614492761367
 10
6.133128992513458
 20
6.840552236303568
 10
5.8385063915931745
 20
6.835562593007468
 10
5.544294463273171
 20
6.8295049450296
 10
5.250620685843228
 20
6.822524290064665
 10
4.957425700009692
 20
6.8144800102691905
 10
4.664841363913568
 20
6.8054489843417585
 10
4.3727183000089225
 20
6.795626809568268
 10
4.081201505990464
 20
6.784886007658939
 10
3.7903085012631035
 20
6.772954102629292
 10
3.5000349059756166
 20
6.759899213475446
 10
3.2104356995704357
 20
6.745930077036993
 10
2.921515261898787
 20
6.730978574317811
 10
2.633277972811897
 20
6.714976586321784
 10
2.345791951305897
 20
6.697928492900137
 10
2.0589803186821953
 20
6.679966152193884
 10
1.7729024342344522
 20
6.6612301820464905
 10
1.4876439363637153
 20
6.641452486324711
 10
1.2032135847724446
 20
6.620496827036304
 10
0.919602619758173
 20
6.598499442173509
 10
0.6368747804657934
 20
6.575532830583676
 10
0.3549619478991864
 20
6.551592612415577
 10
0.0739278612032449
 20
6.526751286516561
 10
-0.20616374047714814
 20
6.501081351733976
 10
-0.48536345673318504
 20
6.474305952232115
 10
-0.7636031685687529
 20
6.446429467862206
 10
-1.0408366562438789
 20
6.41779687345608
 10
-1.3171232790522196
 20
6.388267551170268
 10
-1.592322419150308
 20
6.357782141711108
 10
-1.8665703145303842
 20
6.326331885376141
 10
-2.139730727200208
 20
6.293925541867828
 10
-2.4117442978661208
 20
6.260703729029638
 10
-2.6827516443715913
 20
6.226725806155231
 10
-2.9526627484643497
 20
6.191655558115237
 10
-3.2213676512595364
 20
6.155910458588836
 10
-3.4889432314557287
 20
6.119622365717039
 10
-3.7554313289416728
 20
6.082378185671895
 10
-4.020627586729001
 20
6.044191058007095
 10
-4.284613263367532
 20
6.005260959859768
 10
-4.54739273870849
 20
5.965656010226035
 10
-4.80895725304941
 20
5.925239971113656
 10
-5.069174948249293
 20
5.88408972122121
 10
-5.328182062300374
 20
5.842196500846238
 10
-5.585855496764102
 20
5.799773426679558
 10
-5.842186491938023
 20
5.756684260728934
 10
-6.097170667970899
 20
5.7128608839982435
 10
-6.350812404713962
 20
5.668371415483607
 10
-6.603052342873558
 20
5.623356473028494
 10
-6.8539586014457985
 20
5.577811676781675
 10
-7.1033861827359885
 20
5.531609548453371
 10
-7.35133508674413
 20
5.48475008804358
 10
-7.597869052615107
 20
5.437160796704955
 10
-7.842924341204033
 20
5.388914173284842
 10
-8.086514092064599
 20
5.340214574771604
 10
-8.32857456605191
 20
5.291134500012591
 10
-8.569088243761055
 20
5.241401473023322
 10
-8.808123244188145
 20
5.191011113952566
 10
-9.045470830493596
 20
5.139908443357895
 10
-9.281280380223334
 20
5.08828905852521
 10
-9.515556273228592
 20
5.0362210784506285
 10
-9.748162271517128
 20
4.983713262836614
 10
-9.979093995237715
 20
4.930697492687041
 10
-10.208406423832777
 20
4.876965031162324
 10
-10.436048957711119
 20
4.822792734098171
 10
-10.662034736426433
 20
4.768384958482943
 10
-10.886273741726447
 20
4.713405489187271
 10
-11.108834092607275
 20
4.6578499463599226
 10
-11.329588310779146
 20
4.601863327695599
 10
-11.548604515238171
 20
4.545441253343072
 10
-11.76588708583559
 20
4.4886518422984585
 10
-11.981354764021589
 20
4.431295117424631
 10
-12.195016309498625
 20
4.373507316713828
 10
-12.406871722266697
 20
4.315288440166051
 10
-12.616938521730733
 20
4.256910963765777
 10
-12.82507609004726
 20
4.19831552821935
 10
-13.031407525654823
 20
4.1392890168359475
 10
-13.235855949854843
 20
4.079699571474562
 10
-13.438370763056128
 20
4.019824047970901
 10
-13.63902884395725
 20
3.9597943044659734
 10
-13.83774455415717
 20
3.8993422448265322
 10
-14.034458534362232
 20
3.8386084868960477
 10
-14.2293114024159
 20
3.7776523899681784
 10
-14.422166920325942
 20
3.7164827137453846
 10
-14.613011948538663
 20
3.654895101239305
 10
-14.801859626607753
 20
3.5930939094383034
 10
-14.988714334384442
 20
3.5311472573384948
 10
-15.1735716920175
 20
3.468987025943763
 10
-15.356363580510811
 20
3.406617595105338
 10
-15.53708562001314
 20
3.3439708458270965
 10
-15.715810309371838
 20
3.2811105172539334
 10
-15.892401410594667
 20
3.218045369088305
 10
-16.06686768338409
 20
3.1549116393224512
 10
-16.239336606029877
 20
3.091564330261675
 10
-16.409603821543676
 20
3.028016581459663
 10
-16.577733069070373
 20
2.9641958940690687
 10
-16.743741868014897
 20
2.900374744074369
 10
-16.90763021837723
 20
2.8365531314755663
 10
-17.06932124145881
 20
2.77259919813165
 10
-17.228810557408398
 20
2.708444825046499
 10
-17.386161905370887
 20
2.6440175133727637
 10
-17.541260946610187
 20
2.579666617793506
 10
-17.69417142027119
 20
2.5153196394613735
 10
-17.844884566651427
 20
2.450840340384127
 10
-17.993332266754784
 20
2.3862331004129973
 10
-18.13952328028373
 20
2.321634157540223
 10
-18.283448847535787
 20
2.2569072737735656
 10
-18.425113348362196
 20
2.192120568109145
 10
-18.56452116261419
 20
2.1273421595430797
 10
-18.701595411593182
 20
2.0624401899343616
 10
-18.836349234852864
 20
1.9976190162713505
 10
-18.968833231984437
 20
1.9326017827183348
 10
-19.098996803396698
 20
1.8676653451110257
 10
-19.22683556923842
 20
1.8027415844533032
 10
-19.352345149658376
 20
1.737762381749047
 10
-19.47545742566044
 20
1.6727321168494882
 10
-19.596244896091967
 20
1.6077145288995145
 10
-19.714652581510524
 20
1.5429183547387186
 10
-19.830671722213644
 20
1.4782073563748592
 10
-19.944302318201345
 20
1.4135815338079354
 10
-20.05561686832096
 20
1.3491046261828394
 10
-20.164474754729028
 20
1.2847172742059092
 10
-20.27095285612413
 20
1.2205513360181561
 10
-20.374991813212603
 20
1.156747429463049
 10
-20.476659744990563
 20
1.0933011746893597
 10
-20.575879772759443
 20
1.0300807135560763
 10
-20.672724395366576
 20
0.9671497852080895
 10
-20.76705737481973
 20
0.90451714934786
 10
-20.85902370881361
 20
0.8423102842651663
 10
-20.9484915392072
 20
0.7806060686585901
 10
-21.03552022529416
 20
0.7192638846846604
 10
-21.120109767074496
 20
0.6582837323433772
 10
-21.2022601645482
 20
0.5976656116347406
 10
-21.281912058421614
 20
0.5375501404022215
 10
-21.359065448694743
 20
0.4779373186458189
 10
-21.43377531481001
 20
0.41861840952594304
 10
-21.505986677324994
 20
0.3598021498821841
 10
-21.57568201683477
 20
0.3012160637300617
 10
-21.64287885274425
 20
0.243132627054057
 10
-21.707559665648528
 20
0.18527936386968855
 10
-21.769733215250056
 20
0.12779251216919738
 10
-21.82939950154883
 20
0.07067207195258284
 10
-21.886486025697515
 20
0.013854304074955599
 10
-21.941137785390797
 20
-0.042533313173905234
 10
-21.99313728408663
 20
-0.09868199722866833
 10
-22.042697638475833
 20
-0.15446864965078497
 10
-22.089678230714938
 20
-0.20995262973391451
 10
-22.13409220035764
 20
-0.2649295804896967
 10
-22.175998906697586
 20
-0.31954011976160246
 10
-22.2153346105899
 20
-0.37371174870228063
 10
-22.252116831439498
 20
-0.42717199132725236
 10
-22.2864005486888
 20
-0.48012958447610693
 10
-22.318126403044154
 20
-0.5324439103053745
 10
-22.347303154208028
 20
-0.5839787308228154
 10
-22.37394832158533
 20
-0.634461570043949
 10
-22.398061905176075
 20
-0.6838924279687763
 10
-22.41972078367882
 20
-0.7321394464562868
 10
-22.438810618357497
 20
-0.7788532708234204
 10
-22.45541704761314
 20
-0.8237658049369274
 10
-22.46965198895417
 20
-0.8662002386868384
 10
-22.481409863346954
 20
-0.905670979397853
 10
-22.490828867407302
 20
-0.9410925029832822
 10
-22.49804719775102
 20
-0.9713792853564361
 10
-22.503033732815382
 20
-0.9948877109079753
 10
-22.50596608787727
 20
-1.0099191845861304
 10
-22.479268719591413
 20
-1.4453509059622576
 10
-22.477751086252393
 20
-1.4487417575910027
 10
-22.473202566086567
 20
-1.458846193481118
 10
-22.465640678498854
 20
-1.4753917376481238
 10
-22.454922847022218
 20
-1.4995320331748287
 10
-22.441093332773068
 20
-1.5327063386822135
 10
-22.424311769019255
 20
-1.571368086520809
 10
-22.40464581215279
 20
-1.6134012079596658
 10
-22.382288638231913
 20
-1.6579289157516846
 10
-22.35726410513633
 20
-1.7035163311271158
 10
-22.329543512531
 20
-1.7495460032696493
 10
-22.299284997664305
 20
-1.7956860969011454
 10
-22.266437960945055
 20
-1.8416597561858947
 10
-22.231019921778163
 20
-1.887194505139417
 10
-22.1930396398661
 20
-1.9321541057694724
 10
-22.152497115208853
 20
-1.9765385580760606
 10
-22.109464846653776
 20
-2.020284122914292
 10
-22.06388347490722
 20
-2.0632501824406964
 10
-22.01574862011794
 20
-2.1055048556513936
 10
-21.965132781133295
 20
-2.1469844034014947
 10
-21.9119590792547
 20
-2.1878206838320082
 10
-21.85623189433339
 20
-2.2279455779468154
 10
-21.798096224064064
 20
-2.2672316074561354
 10
-21.737334571904668
 20
-2.3058699897946386
 10
-21.6741556746948
 20
-2.343805745519895
 10
-21.608418914590978
 20
-2.381098233925564
 10
-21.540196790440557
 20
-2.4176837158667572
 10
-21.46949368209477
 20
-2.453494072347353
 10
-21.39629644999993
 20
-2.488733660355712
 10
-21.32061385385849
 20
-2.5232662418995946
 10
-21.24242837426553
 20
-2.5573642929634803
 10
-21.161753150774747
 20
-2.5908234565590087
 10
-21.07864754267979
 20
-2.623784350529651
 10
-20.993043430984546
 20
-2.6562425950241764
 10
-20.904932055986556
 20
-2.6883344280348243
 10
-20.814385916533165
 20
-2.719996110416706
 10
-20.721400632773147
 20
-2.751295761165941
 10
-20.625976204706504
 20
-2.7822333802825288
 10
-20.528031373783413
 20
-2.8130089449036
 10
-20.42770675784736
 20
-2.8435630957354956
 10
-20.324870498757328
 20
-2.8738189540796326
 10
-20.21965883450555
 20
-2.9037852796384738
 10
-20.111994886393465
 20
-2.933593930553028
 10
-20.00194677341717
 20
-2.963249286674526
 10
-19.889450756431792
 20
-2.9926788491556167
 10
-19.774583714135904
 20
-3.021750759855291
 10
-19.65727314768216
 20
-3.050528757918439
 10
-19.537650915211564
 20
-3.07908972204364
 10
-19.415648897728005
 20
-3.107429272379665
 10
-19.29126709523147
 20
-3.1355474089265134
 10
-19.164518647275656
 20
-3.163239774695825
 10
-19.035471672856687
 20
-3.1905107495388303
 10
-18.904058052978435
 20
-3.2173559536042995
 10
-18.77033714693457
 20
-3.2439160047357016
 10
-18.634308954725086
 20
-3.270190902933038
 10
-18.4959909957549
 20
-3.2959081722118277
 10
-18.355442629317682
 20
-3.3212084304155423
 10
-18.212600116268533
 20
-3.3460191786968294
 10
-18.067459076756222
 20
-3.370408536051811
 10
-17.920087629776877
 20
-3.394380882331715
 10
-17.770490155181722
 20
-3.4178680985404246
 10
-17.618662273119526
 20
-3.4409383036740575
 10
-17.464603983590294
 20
-3.4635914977326134
 10
-17.308319666445257
 20
-3.4857595617199744
 10
-17.149873060829297
 20
-3.5075149944834894
 10
-16.98926416674242
 20
-3.5288577960231584
 10
-16.826429245039737
 20
-3.5497154674916307
 10
-16.661495774011023
 20
-3.570233006583608
 10
-16.49440001451139
 20
-3.590337914451738
 10
-16.325137586689614
 20
-3.6100983100921438
 10
-16.15378098939303
 20
-3.6294504543599326
 10
-15.980343362175343
 20
-3.6481899902667463
 10
-15.804811565482858
 20
-3.666521274800944
 10
-15.627108720616997
 20
-3.684576166103536
 10
-15.447443564417341
 20
-3.7022996847320924
 10
-15.265688618594119
 20
-3.7195468329919135
 10
-15.08184826299856
 20
-3.7362494918868787
 10
-14.896049975920443
 20
-3.752552659111688
 10
-14.708221258512417
 20
-3.768520073811232
 10
-14.518370870476941
 20
-3.7840154979932707
 10
-14.32656693081014
 20
-3.7990433115090334
 10
-14.132813819363237
 20
-3.8135353953624014
 10
-13.937098396582549
 20
-3.8276961065417345
 10
-13.73942942217053
 20
-3.841389207054791
 10
-13.539798136424725
 20
-3.854750934893813
 10
-13.33835391689106
 20
-3.8675856927729
 10
-13.134956145726068
 20
-3.8799528399857115
 10
-12.929672941925865
 20
-3.891856756383478
 10
-12.722568044635343
 20
-3.90336994081355
 10
-12.513582094560848
 20
-3.914351775432455
 10
-12.302774450996031
 20
-3.9249428780836664
 10
-12.090217612788244
 20
-3.9350795096222924
 10
-11.875784101647712
 20
-3.9446166723536353
 10
-11.659610155566671
 20
-3.953563125980151
 10
-11.441682634991432
 20
-3.9621232274902027
 10
-11.222001539921994
 20
-3.9702969768837897
 10
-11.000566870358357
 20
-3.978084374160912
 10
-10.777459884850332
 20
-3.985285442184441
 10
-10.55268934310038
 20
-3.9917639429621334
 10
-10.32616960670746
 20
-3.9977879726272416
 10
-10.098036913663808
 20
-4.003366290882226
 10
-9.86823190467577
 20
-4.008358279883615
 10
-9.636831458441929
 20
-4.012632081490401
 10
-9.403822435408586
 20
-4.016392052690942
 10
-9.169264194869402
 20
-4.019778811328708
 10
-8.933097377530723
 20
-4.022651739560231
 10
-8.695335122946236
 20
-4.024806480397148
 10
-8.45610490940572
 20
-4.026388031534163
 10
-8.215402357057943
 20
-4.027464511967393
 10
-7.973091227910673
 20
-4.028027161994378
 10
-7.72938025880349
 20
-4.02802100217269
 10
-7.484210090442745
 20
-4.027305414658858
 10
-7.237580722828428
 20
-4.025880399452882
 10
-6.9895558951054335
 20
-4.023818455402112
 10
-6.740113708017612
 20
-4.021460177487149
 10
-6.489335420114768
 20
-4.018605588570861
 10
-6.237170431805711
 20
-4.01497783281754
 10
-5.983614363239206
 20
-4.010645029223307
 10
-5.728803452407489
 20
-4.005615937490618
 10
-5.472652060909529
 20
-4.0001586537527265
 10
-5.215237067443897
 20
-3.994141319868621
 10
-4.956558472010596
 20
-3.987563935838302
 10
-4.69662503431209
 20
-3.9802902636695308
 10
-4.435432374497145
 20
-3.9723884223584256
 10
-4.173107970855542
 20
-3.9640034095996874
 10
-3.9095243450975046
 20
-3.9549902276986155
 10
-3.6448264949177225
 20
-3.9452213983654314
 10
-3.379010040464973
 20
-3.9347650405962535
 10
-3.11207060188803
 20
-3.9236892733872026
 10
-2.8439444400419958
 20
-3.911921597890929
 10
-2.574844671617698
 20
-3.8993389156688827
 10
-2.3047075574702394
 20
-3.885868727873714
 10
-2.0334386994961227
 20
-3.871915368630912
 10
-1.7611787155388179
 20
-3.857419478646818
 10
-1.4880220037018264
 20
-3.841976723795941
 10
-1.2138191864392174
 20
-3.8257827013641803
 10
-0.9386340028958807
 20
-3.8089099101988886
 10
-0.662611450766517
 20
-3.791230872010284
 10
-0.38561967191011587
 20
-3.7726687080997876
 10
-0.10779490431891425
 20
-3.753232178169858
 10
0.1709484904081252
 20
-3.7331893783537464
 10
0.4505336335724187
 20
-3.712408450510442
 10
0.7308705069217023
 20
-3.6905531795105766
 10
1.0120403690057795
 20
-3.6678235424912793
 10
1.2939926202334582
 20
-3.6444963952882587
 10
1.5766460020549247
 20
-3.6203717607643875
 10
1.8600642536150678
 20
-3.595377140072314
 10
2.1441880156202258
 20
-3.569653151055509
 10
2.428999768665483
 20
-3.542927317729492
 10
2.7144995127508413
 20
-3.5151996400942624
 10
3.0006366482850937
 20
-3.4867469739855323
 10
3.2873474361233503
 20
-3.457641818250651
 10
3.574695615410512
 20
-3.427811674042267
 10
3.862599927596757
 20
-3.397056564223252
 10
4.151069132384549
 20
-3.3655127267858456
 10
4.440103229773893
 20
-3.3331801617300485
 10
4.729634100768665
 20
-3.3000632489070894
 10
5.019648605815169
 20
-3.265957631328609
 10
5.3101555046158735
 20
-3.2309995469868475
 10
5.601036078583455
 20
-3.1954702315687458
 10
5.892422185858924
 20
-3.1592928063757224
 10
6.184164448896352
 20
-3.122271674121878
 10
6.476335366543089
 20
-3.084470573952103
 10
6.768798700806889
 20
-3.045898265568857
 10
7.061626950535112
 20
-3.0066184881170295
 10
7.354815735876523
 20
-2.966563122600502
 10
7.6482331986901055
 20
-2.925809047717854
 10
7.9419562176744565
 20
-2.8844881216100946
 10
8.23598041297833
 20
-2.8425322252811056
 10
8.530165166758259
 20
-2.799881999437226
 10
8.8245829778616
 20
-2.756601183223345
 10
9.119174486994686
 20
-2.712830394482934
 10
9.413990293748721
 20
-2.6682927773802825
 10
9.708902919833927
 20
-2.623133329610091
 10
10.003921124952761
 20
-2.5774882891646
 10
10.299040529253991
 20
-2.5312895370476878
 10
10.594252373035163
 20
-2.484400835267116
 10
10.889565415998728
 20
-2.436958421815124
 10
11.184852179854918
 20
-2.3891072943864122
 10
11.48017202389738
 20
-2.3407068351375107
 10
11.775469968683698
 20
-2.291965780908008
 10
12.070732874660173
 20
-2.2426797747095466
 10
12.365956361975572
 20
-2.192780697546005
 10
12.661149190332365
 20
-2.1424047874096233
 10
12.95618826129199
 20
-2.091765160991223
 10
13.25114169385058
 20
-2.0408574384395726
 10
13.545928229458317
 20
-1.989481642617543
 10
13.840552247966432
 20
-1.9377058925212536
 10
14.135013749374922
 20
-1.8855301881507054
 10
14.429317113535035
 20
-1.8330226485020162
 10
14.723321722603277
 20
-1.780123914281529
 10
15.017100075427004
 20
-1.7268977246341328
 10
15.310588432861335
 20
-1.673416578407177
 10
15.603863673604852
 20
-1.6198123337416714
 10
15.896772040260375
 20
-1.565821274355598
 10
16.189317912679154
 20
-1.511511519245075
 10
16.481591309113455
 20
-1.4572192835394726
 10
16.773429712463653
 20
-1.4025446129645314
 10
17.06482874287852
 20
-1.3474193885241317
 10
17.35588279846157
 20
-1.2922479443437627
 10
17.64646440092299
 20
-1.2371752781181256
 10
17.936615390151545
 20
-1.1817882960192694
 10
18.22627202700234
 20
-1.126159496894545
 10
18.515366192479252
 20
-1.0702932605951816
 10
18.80397476528088
 20
-1.0143214452621894
 10
19.0920340062623
 20
-0.9583165497429196
 10
19.37954829527477
 20
-0.9023466930334909
 10
19.666440753619693
 20
-0.846280016992894
 10
19.952702621594614
 20
-0.7899802836288891
 10
20.238347038753236
 20
-0.7336518499298351
 10
20.523374005095537
 20
-0.6772947158957341
 10
20.807651662480527
 20
-0.6209857602251638
 10
21.09131624890043
 20
-0.5647162232156663
 10
21.37421838680933
 20
-0.5082905075813403
 10
21.656362456058442
 20
-0.4517767323183065
 10
21.937770355903925
 20
-0.39551549240716555
 10
22.21843770649456
 20
-0.3394386688517953
 10
22.49821951013562
 20
-0.2834187833624185
 10
22.777256384670604
 20
-0.22751519523269337
 10
23.05540771225602
 20
-0.17166854516896055
 10
23.332741611887997
 20
-0.11587445331999051
 10
23.60919872427288
 20
-0.060273537529252234
 10
23.88471093041454
 20
-0.004870177647977008
 10
24.159355109011557
 20
0.05020376818282632
 10
24.432981882518003
 20
0.10514389724905594
 10
24.70572748892613
 20
0.15995896925317396
 10
24.977451310392453
 20
0.21470834348883888
 10
25.248179626024353
 20
0.26898330597933123
 10
25.51784431682572
 20
0.32277947687342073
 10
25.786555341681403
 20
0.37651432985028715
 10
26.05410396375182
 20
0.43024284435236093
 10
26.32066145983905
 20
0.4834288281131422
 10
26.586087212099617
 20
0.5361316404262896
 10
26.85036370112861
 20
0.5886237572762849
 10
27.11349092692602
 20
0.640905178663126
 10
27.375473269343086
 20
0.6929077855906949
 10
27.636332627635948
 20
0.7442909830783901
 10
27.89592400410991
 20
0.7951822494159919
 10
28.154370497203526
 20
0.8457947012943208
 10
28.411535868924553
 20
0.8961195790109162
 10
28.667428878975457
 20
0.9460206445735382
 10
28.92205828705869
 20
0.9953616599899467
 10
29.175415333471793
 20
1.0442788632523823
 10
29.42743189921864
 20
1.092767874509613
 10
29.678184862997828
 20
1.140696835620631
 10
29.927537986817114
 20
1.188056986882976
 10
30.175546250118906
 20
1.235057065136236
 10
30.422073414910987
 20
1.2816883106779526
 10
30.667332597884172
 20
1.3278276250695757
 10
30.91106008275643
 20
1.3733212509139445
 10
31.15339210752002
 20
1.41817794791352
 10
31.394324292323702
 20
1.4624658350644215
 10
31.63371163947276
 20
1.5063123906564282
 10
31.871558528818447
 20
1.549649495693421
 10
32.108005578204235
 20
1.5924177908817405
 10
32.34285281049299
 20
1.6345360176715762
 10
32.57617710438327
 20
1.6758723179219168
 10
32.80789720132529
 20
1.716626668769893
 10
33.03807684046394
 20
1.7568715690628554
 10
33.266652282654306
 20
1.7965345199534537
 10
33.4936235278964
 20
1.8356155214416863
 10
33.718935596747826
 20
1.8739058366879662
 10
33.942643468650964
 20
1.9116142025318814
 10
34.16461528546482
 20
1.948663740274851
 10
34.384910406483066
 20
1.9851950677603467
 10
34.60354197125938
 20
2.021003828000008
 10
34.820446240648884
 20
2.056017522146485
 10
35.035610075097864
 20
2.090440507188136
 10
35.24903347460636
 20
2.124272783124964
 10
35.46071643917432
 20
2.157514349956965
 10
35.67053149051202
 20
2.1900202099894424
 10
35.87862362631411
 20
2.221662884932615
 10
36.08490282832835
 20
2.252778589915853
 10
36.289305357409845
 20
2.2832948260918053
 10
36.49189933255472
 20
2.3132159733117033
 10
36.6926253944693
 20
2.3424014137320763
 10
36.89141104430623
 20
2.370914886497813
 10
37.08838814020654
 20
2.3988332703074953
 10
37.28343358373167
 20
2.425943448470303
 10
37.47653861517917
 20
2.4523816589784744
 10
37.667707614400264
 20
2.478079782835891
 10
37.856927441841265
 20
2.5032421770309137
 10
38.04420685720461
 20
2.527732603571299
 10
38.22947774149421
 20
2.5515466826058195
 10
38.412744474561286
 20
2.5746162951383558
 10
38.5940707955507
 20
2.597013940016255
 10
38.77331608661902
 20
2.6187989765331787
 10
38.95048034776624
 20
2.639971404689127
 10
39.12563607783971
 20
2.6604674853392107
 10
39.29878765669063
 20
2.6802190994873087
 10
39.4697857067731
 20
2.6994218444193208
 10
39.63869834708324
 20
2.7180800999864774
 10
39.80553871717473
 20
2.7359895092004174
 10
39.97023431820021
 20
2.7532138112060323
 10
40.132776390457245
 20
2.769889243995562
 10
40.29324181264438
 20
2.785883949427994
 10
40.45149872662066
 20
2.801121048804752
 10
40.6076064916797
 20
2.8157411599693036
 10
40.76156072797028
 20
2.8298124019177693
 10
40.91329331649627
 20
2.8433303947989184
 10
41.062813016960156
 20
2.8561589006205117
 10
41.21011544951069
 20
2.8683660383786687
 10
41.35519185444542
 20
2.8800880460656297
 10
41.49804661161558
 20
2.891256804685276
 10
41.63862036172748
 20
2.9017316963941346
 10
41.77691310478116
 20
2.9115127211922074
 10
41.91297544036779
 20
2.920876734915204
 10
42.04674362934251
 20
2.9297512387157747
 10
42.1782176717053
 20
2.9381362325939193
 10
42.30740194730737
 20
2.9459635975535163
 10
42.43422833715263
 20
2.9532289537433383
 10
42.55876496023719
 20
2.9599366810146135
 10
42.68093493786248
 20
2.966218637508352
 10
42.800747029730964
 20
2.971938585232315
 10
42.91819247614014
 20
2.977232762178739
 10
43.033348155788644
 20
2.98196931020662
 10
43.14606907098174
 20
2.9862757076057322
 10
43.25641896086432
 20
2.9902244532234286
 10
43.36433408629151
 20
2.9937430482123584
 10
43.46988694611064
 20
2.9967677534276307
 10
43.57300066162316
 20
2.9994304270102576
 10
43.67375211152762
 20
3.001599210819227
 10
43.77199191827811
 20
3.003469702140441
 10
43.867860699718086
 20
3.0049825416802367
 10
43.96122221785531
 20
3.006128969736156
 10
44.05214459168592
 20
3.0069133661594294
 10
44.14062782120989
 20
3.0073357309500555
 10
44.226667526575994
 20
3.0074641831041546
 10
44.31019996863937
 20
3.0072262237743774
 10
44.39121638769751
 20
3.0067580909529625
 10
44.469789282597816
 20
3.0059960454950216
 10
44.54584615449291
 20
3.0050038265454435
 10
44.61939138323402
 20
3.003713315108109
 10
44.690420588969914
 20
3.0021926301791364
 10
44.75893815155183
 20
3.0003736527624074
 10
44.82493969112854
 20
2.998324501854042
 10
44.88841644799759
 20
2.996181415446279
 10
44.949309062865304
 20
2.9938037756956484
 10
45.0077493938727
 20
2.9912684613007317
 10
45.06352870418018
 20
2.988630451703957
 10
45.11685573062734
 20
2.985834767462896
 10
45.167594235221955
 20
2.982872648875088
 10
45.21573545826154
 20
2.9798803339327717
 10
45.26135189859345
 20
2.97679408349106
 10
45.3043754372216
 20
2.9736095176987205
 10
45.344797314443475
 20
2.970462874547994
 10
45.382694408957676
 20
2.9672222958978693
 10
45.417989842065644
 20
2.9640196398893583
 10
45.45068799361859
 20
2.9607867875263403
 10
45.48078010391405
 20
2.9576599768010547
 10
45.50827055280327
 20
2.9545710887173815
 10
45.53322307943112
 20
2.951592622122672
 10
45.55550144580537
 20
2.948715817314464
 10
45.575169391070915
 20
2.9460131731401096
 10
45.592295034223866
 20
2.9434890694508375
 10
45.60674213727199
 20
2.941134746544188
 10
45.61857005950895
 20
2.939090822263632
 10
45.62785129978207
 20
2.9372935574642773
 10
45.63444086039669
 20
2.935870430435907
 10
45.638402480497675
 20
2.934893940025868
 10
45.63972740038257
 20
2.9345003242264016
  0
ENDSEC
  0
SECTION
  2
OBJECTS
  0
DICTIONARY
  5
A
330
0
100
AcDbDictionary
280
0
281
1
  3
ACAD_COLOR
350
B
  3
ACAD_GROUP
350
C
  3
ACAD_LAYOUT
350
D
  3
ACAD_MATERIAL
350
E
  3
ACAD_MLEADERSTYLE
350
F
  3
ACAD_MLINESTYLE
350
10
  3
ACAD_PLOTSETTINGS
350
11
  3
ACAD_PLOTSTYLENAME
350
12
  3
ACAD_SCALELIST
350
14
  3
ACAD_TABLESTYLE
350
15
  3
ACAD_VISUALSTYLE
350
16
  3
EZDXF_META
350
2D
  0
DICTIONARY
  5
B
330
A
100
AcDbDictionary
280
0
281
1
  0
DICTIONARY
  5
C
330
A
100
AcDbDictionary
280
0
281
1
  0
DICTIONARY
  5
D
330
A
100
AcDbDictionary
280
0
281
1
  3
Model
350
1A
  3
Layout1
350
1E
  0
DICTIONARY
  5
E
330
A
100
AcDbDictionary
280
0
281
1
  3
ByBlock
350
1F
  3
ByLayer
350
20
  3
Global
350
21
  0
DICTIONARY
  5
F
330
A
100
AcDbDictionary
280
0
281
1
  3
Standard
350
2C
  0
DICTIONARY
  5
10
330
A
100
AcDbDictionary
280
0
281
1
  3
Standard
350
22
  0
DICTIONARY
  5
11
330
A
100
AcDbDictionary
280
0
281
1
  0
ACDBDICTIONARYWDFLT
  5
12
330
A
100
AcDbDictionary
280
0
281
1
  3
Normal
350
13
100
AcDbDictionaryWithDefault
340
13
  0
ACDBPLACEHOLDER
  5
13
330
12
  0
DICTIONARY
  5
14
330
A
100
AcDbDictionary
280
0
281
1
  0
DICTIONARY
  5
15
330
A
100
AcDbDictionary
280
0
281
1
  0
DICTIONARY
  5
16
330
A
100
AcDbDictionary
280
0
281
1
  0
LAYOUT
  5
1A
330
D
100
AcDbPlotSettings
  1

  4
A3
  6

 40
7.5
 41
20.0
 42
7.5
 43
20.0
 44
420.0
 45
297.0
 46
0.0
 47
0.0
 48
0.0
 49
0.0
140
0.0
141
0.0
142
1.0
143
1.0
 70
1024
 72
1
 73
0
 74
5
  7

 75
16
 76
0
 77
2
 78
300
147
1.0
148
0.0
149
0.0
100
AcDbLayout
  1
Model
 70
1
 71
0
 10
0.0
 20
0.0
 11
420.0
 21
297.0
 12
0.0
 22
0.0
 32
0.0
 14
1e+20
 24
1e+20
 34
1e+20
 15
-1e+20
 25
-1e+20
 35
-1e+20
146
0.0
 13
0.0
 23
0.0
 33
0.0
 16
1.0
 26
0.0
 36
0.0
 17
0.0
 27
1.0
 37
0.0
 76
1
330
17
  0
LAYOUT
  5
1E
330
D
100
AcDbPlotSettings
  1

  4
A3
  6

 40
7.5
 41
20.0
 42
7.5
 43
20.0
 44
420.0
 45
297.0
 46
0.0
 47
0.0
 48
0.0
 49
0.0
140
0.0
141
0.0
142
1.0
143
1.0
 70
0
 72
1
 73
0
 74
5
  7

 75
16
 76
0
 77
2
 78
300
147
1.0
148
0.0
149
0.0
100
AcDbLayout
  1
Layout1
 70
1
 71
1
 10
0.0
 20
0.0
 11
420.0
 21
297.0
 12
0.0
 22
0.0
 32
0.0
 14
1e+20
 24
1e+20
 34
1e+20
 15
-1e+20
 25
-1e+20
 35
-1e+20
146
0.0
 13
0.0
 23
0.0
 33
0.0
 16
1.0
 26
0.0
 36
0.0
 17
0.0
 27
1.0
 37
0.0
 76
1
330
1B
  0
MATERIAL
  5
1F
102
{ACAD_REACTORS
330
E
102
}
330
E
100
AcDbMaterial
  1
ByBlock
  2

 70
0
 40
1.0
 71
1
 41
1.0
 91
-1023410177
 42
1.0
 72
1
  3

 73
1
 74
1
 75
1
 44
0.5
 73
0
 45
1.0
 46
1.0
 77
1
  4

 78
1
 79
1
170
1
 48
1.0
171
1
  6

172
1
173
1
174
1
140
1.0
141
1.0
175
1
  7

176
1
177
1
178
1
143
1.0
179
1
  8

270
1
271
1
272
1
145
1.0
146
1.0
273
1
  9

274
1
275
1
276
1
 42
1.0
 72
1
  3

 73
1
 74
1
 75
1
 94
63
  0
MATERIAL
  5
20
102
{ACAD_REACTORS
330
E
102
}
330
E
100
AcDbMaterial
  1
ByLayer
  2

 70
0
 40
1.0
 71
1
 41
1.0
 91
-1023410177
 42
1.0
 72
1
  3

 73
1
 74
1
 75
1
 44
0.5
 73
0
 45
1.0
 46
1.0
 77
1
  4

 78
1
 79
1
170
1
 48
1.0
171
1
  6

172
1
173
1
174
1
140
1.0
141
1.0
175
1
  7

176
1
177
1
178
1
143
1.0
179
1
  8

270
1
271
1
272
1
145
1.0
146
1.0
273
1
  9

274
1
275
1
276
1
 42
1.0
 72
1
  3

 73
1
 74
1
 75
1
 94
63
  0
MATERIAL
  5
21
102
{ACAD_REACTORS
330
E
102
}
330
E
100
AcDbMaterial
  1
Global
  2

 70
0
 40
1.0
 71
1
 41
1.0
 91
-1023410177
 42
1.0
 72
1
  3

 73
1
 74
1
 75
1
 44
0.5
 73
0
 45
1.0
 46
1.0
 77
1
  4

 78
1
 79
1
170
1
 48
1.0
171
1
  6

172
1
173
1
174
1
140
1.0
141
1.0
175
1
  7

176
1
177
1
178
1
143
1.0
179
1
  8

270
1
271
1
272
1
145
1.0
146
1.0
273
1
  9

274
1
275
1
276
1
 42
1.0
 72
1
  3

 73
1
 74
1
 75
1
 94
63
  0
MLINESTYLE
  5
22
102
{ACAD_REACTORS
330
10
102
}
330
10
100
AcDbMlineStyle
  2
Standard
 70
0
  3

 62
256
 51
90.0
 52
90.0
 71
2
 49
0.5
 62
256
  6
BYLAYER
 49
-0.5
 62
256
  6
BYLAYER
  0
MLEADERSTYLE
  5
2C
102
{ACAD_REACTORS
330
F
102
}
330
F
100
AcDbMLeaderStyle
179
2
170
2
171
1
172
0
 90
2
 40
0.0
 41
0.0
173
1
 91
-1056964608
 92
-2
290
1
 42
2.0
291
1
 43
8.0
  3
Standard
 44
4.0
300

342
29
174
1
175
1
176
0
178
1
 93
-1056964608
 45
4.0
292
0
297
0
 46
4.0
 94
-1056964608
 47
1.0
 49
1.0
140
1.0
294
1
141
0.0
177
0
142
1.0
295
0
296
0
143
3.75
271
0
272
9
273
9
  0
DICTIONARY
  5
2D
330
A
100
AcDbDictionary
280
1
281
1
  3
CREATED_BY_EZDXF
350
2E
  3
WRITTEN_BY_EZDXF
350
32
  0
DICTIONARYVAR
  5
2E
330
2D
100
DictionaryVariables
280
0
  1
1.3.5 @ 2025-08-20T01:05:14.293080+00:00
  0
DICTIONARYVAR
  5
32
330
2D
100
DictionaryVariables
280
0
  1
1.3.5 @ 2025-08-20T01:05:14.299065+00:00
  0
ENDSEC
  0
EOF
