  0
SECTION
  2
HEADER
  9
$ACADVER
  1
AC1032
  9
$ACADMAINTVER
 90
4
  9
$DWGCODEPAGE
  3
ANSI_1252
  9
$LASTSAVEDBY
  1
ezdxf
  9
$REQUIREDVERSIONS
160
0
  9
$INSBASE
 10
0.0
 20
0.0
 30
0.0
  9
$EXTMIN
 10
1e+20
 20
1e+20
 30
1e+20
  9
$EXTMAX
 10
-1e+20
 20
-1e+20
 30
-1e+20
  9
$LIMMIN
 10
0.0
 20
0.0
  9
$LIMMAX
 10
420.0
 20
297.0
  9
$ORTHOMODE
 70
0
  9
$REGENMODE
 70
1
  9
$FILLMODE
 70
1
  9
$QTEXTMODE
 70
0
  9
$MIRRTEXT
 70
1
  9
$LTSCALE
 40
1.0
  9
$ATTMODE
 70
1
  9
$TEXTSIZE
 40
2.5
  9
$TRACEWID
 40
1.0
  9
$TEXTSTYLE
  7
Standard
  9
$CLAYER
  8
0
  9
$CELTYPE
  6
ByLayer
  9
$CECOLOR
 62
256
  9
$CELTSCALE
 40
1.0
  9
$DISPSILH
 70
0
  9
$DIMSCALE
 40
1.0
  9
$DIMASZ
 40
2.5
  9
$DIMEXO
 40
0.625
  9
$DIMDLI
 40
3.75
  9
$DIMRND
 40
0.0
  9
$DIMDLE
 40
0.0
  9
$DIMEXE
 40
1.25
  9
$DIMTP
 40
0.0
  9
$DIMTM
 40
0.0
  9
$DIMTXT
 40
2.5
  9
$DIMCEN
 40
2.5
  9
$DIMTSZ
 40
0.0
  9
$DIMTOL
 70
0
  9
$DIMLIM
 70
0
  9
$DIMTIH
 70
0
  9
$DIMTOH
 70
0
  9
$DIMSE1
 70
0
  9
$DIMSE2
 70
0
  9
$DIMTAD
 70
1
  9
$DIMZIN
 70
8
  9
$DIMBLK
  1

  9
$DIMASO
 70
1
  9
$DIMSHO
 70
1
  9
$DIMPOST
  1

  9
$DIMAPOST
  1

  9
$DIMALT
 70
0
  9
$DIMALTD
 70
3
  9
$DIMALTF
 40
0.03937007874
  9
$DIMLFAC
 40
1.0
  9
$DIMTOFL
 70
1
  9
$DIMTVP
 40
0.0
  9
$DIMTIX
 70
0
  9
$DIMSOXD
 70
0
  9
$DIMSAH
 70
0
  9
$DIMBLK1
  1

  9
$DIMBLK2
  1

  9
$DIMSTYLE
  2
ISO-25
  9
$DIMCLRD
 70
0
  9
$DIMCLRE
 70
0
  9
$DIMCLRT
 70
0
  9
$DIMTFAC
 40
1.0
  9
$DIMGAP
 40
0.625
  9
$DIMJUST
 70
0
  9
$DIMSD1
 70
0
  9
$DIMSD2
 70
0
  9
$DIMTOLJ
 70
0
  9
$DIMTZIN
 70
8
  9
$DIMALTZ
 70
0
  9
$DIMALTTZ
 70
0
  9
$DIMUPT
 70
0
  9
$DIMDEC
 70
2
  9
$DIMTDEC
 70
2
  9
$DIMALTU
 70
2
  9
$DIMALTTD
 70
3
  9
$DIMTXSTY
  7
Standard
  9
$DIMAUNIT
 70
0
  9
$DIMADEC
 70
0
  9
$DIMALTRND
 40
0.0
  9
$DIMAZIN
 70
0
  9
$DIMDSEP
 70
44
  9
$DIMATFIT
 70
3
  9
$DIMFRAC
 70
0
  9
$DIMLDRBLK
  1

  9
$DIMLUNIT
 70
2
  9
$DIMLWD
 70
-2
  9
$DIMLWE
 70
-2
  9
$DIMTMOVE
 70
0
  9
$DIMFXL
 40
1.0
  9
$DIMFXLON
 70
0
  9
$DIMJOGANG
 40
0.785398163397
  9
$DIMTFILL
 70
0
  9
$DIMTFILLCLR
 70
0
  9
$DIMARCSYM
 70
0
  9
$DIMLTYPE
  6

  9
$DIMLTEX1
  6

  9
$DIMLTEX2
  6

  9
$DIMTXTDIRECTION
 70
0
  9
$LUNITS
 70
2
  9
$LUPREC
 70
4
  9
$SKETCHINC
 40
1.0
  9
$FILLETRAD
 40
10.0
  9
$AUNITS
 70
0
  9
$AUPREC
 70
2
  9
$MENU
  1
.
  9
$ELEVATION
 40
0.0
  9
$PELEVATION
 40
0.0
  9
$THICKNESS
 40
0.0
  9
$LIMCHECK
 70
0
  9
$CHAMFERA
 40
0.0
  9
$CHAMFERB
 40
0.0
  9
$CHAMFERC
 40
0.0
  9
$CHAMFERD
 40
0.0
  9
$SKPOLY
 70
0
  9
$TDCREATE
 40
2460908.0869675926
  9
$TDUCREATE
 40
2458532.153996898
  9
$TDUPDATE
 40
2460908.0869675926
  9
$TDUUPDATE
 40
2458532.1544311
  9
$TDINDWG
 40
0.0
  9
$TDUSRTIMER
 40
0.0
  9
$USRTIMER
 70
1
  9
$ANGBASE
 50
0.0
  9
$ANGDIR
 70
0
  9
$PDMODE
 70
0
  9
$PDSIZE
 40
0.0
  9
$PLINEWID
 40
0.0
  9
$SPLFRAME
 70
0
  9
$SPLINETYPE
 70
6
  9
$SPLINESEGS
 70
8
  9
$HANDSEED
  5
33
  9
$SURFTAB1
 70
6
  9
$SURFTAB2
 70
6
  9
$SURFTYPE
 70
6
  9
$SURFU
 70
6
  9
$SURFV
 70
6
  9
$UCSBASE
  2

  9
$UCSNAME
  2

  9
$UCSORG
 10
0.0
 20
0.0
 30
0.0
  9
$UCSXDIR
 10
1.0
 20
0.0
 30
0.0
  9
$UCSYDIR
 10
0.0
 20
1.0
 30
0.0
  9
$UCSORTHOREF
  2

  9
$UCSORTHOVIEW
 70
0
  9
$UCSORGTOP
 10
0.0
 20
0.0
 30
0.0
  9
$UCSORGBOTTOM
 10
0.0
 20
0.0
 30
0.0
  9
$UCSORGLEFT
 10
0.0
 20
0.0
 30
0.0
  9
$UCSORGRIGHT
 10
0.0
 20
0.0
 30
0.0
  9
$UCSORGFRONT
 10
0.0
 20
0.0
 30
0.0
  9
$UCSORGBACK
 10
0.0
 20
0.0
 30
0.0
  9
$PUCSBASE
  2

  9
$PUCSNAME
  2

  9
$PUCSORG
 10
0.0
 20
0.0
 30
0.0
  9
$PUCSXDIR
 10
1.0
 20
0.0
 30
0.0
  9
$PUCSYDIR
 10
0.0
 20
1.0
 30
0.0
  9
$PUCSORTHOREF
  2

  9
$PUCSORTHOVIEW
 70
0
  9
$PUCSORGTOP
 10
0.0
 20
0.0
 30
0.0
  9
$PUCSORGBOTTOM
 10
0.0
 20
0.0
 30
0.0
  9
$PUCSORGLEFT
 10
0.0
 20
0.0
 30
0.0
  9
$PUCSORGRIGHT
 10
0.0
 20
0.0
 30
0.0
  9
$PUCSORGFRONT
 10
0.0
 20
0.0
 30
0.0
  9
$PUCSORGBACK
 10
0.0
 20
0.0
 30
0.0
  9
$USERI1
 70
0
  9
$USERI2
 70
0
  9
$USERI3
 70
0
  9
$USERI4
 70
0
  9
$USERI5
 70
0
  9
$USERR1
 40
0.0
  9
$USERR2
 40
0.0
  9
$USERR3
 40
0.0
  9
$USERR4
 40
0.0
  9
$USERR5
 40
0.0
  9
$WORLDVIEW
 70
1
  9
$SHADEDGE
 70
3
  9
$SHADEDIF
 70
70
  9
$TILEMODE
 70
1
  9
$MAXACTVP
 70
64
  9
$PINSBASE
 10
0.0
 20
0.0
 30
0.0
  9
$PLIMCHECK
 70
0
  9
$PEXTMIN
 10
1e+20
 20
1e+20
 30
1e+20
  9
$PEXTMAX
 10
-1e+20
 20
-1e+20
 30
-1e+20
  9
$PLIMMIN
 10
0.0
 20
0.0
  9
$PLIMMAX
 10
420.0
 20
297.0
  9
$UNITMODE
 70
0
  9
$VISRETAIN
 70
1
  9
$PLINEGEN
 70
0
  9
$PSLTSCALE
 70
1
  9
$TREEDEPTH
 70
3020
  9
$CMLSTYLE
  2
Standard
  9
$CMLJUST
 70
0
  9
$CMLSCALE
 40
20.0
  9
$PROXYGRAPHICS
 70
1
  9
$MEASUREMENT
 70
1
  9
$CELWEIGHT
370
-1
  9
$ENDCAPS
280
0
  9
$JOINSTYLE
280
0
  9
$LWDISPLAY
290
0
  9
$INSUNITS
 70
6
  9
$HYPERLINKBASE
  1

  9
$STYLESHEET
  1

  9
$XEDIT
290
1
  9
$CEPSNTYPE
380
0
  9
$PSTYLEMODE
290
1
  9
$FINGERPRINTGUID
  2
{D80BBF20-7BC7-41B5-B442-CD85CC829E13}
  9
$VERSIONGUID
  2
{ECC0380A-0EE4-4377-BF6E-10EC46083D62}
  9
$EXTNAMES
290
1
  9
$PSVPSCALE
 40
0.0
  9
$OLESTARTUP
290
0
  9
$SORTENTS
280
127
  9
$INDEXCTL
280
0
  9
$HIDETEXT
280
1
  9
$XCLIPFRAME
280
1
  9
$HALOGAP
280
0
  9
$OBSCOLOR
 70
257
  9
$OBSLTYPE
280
0
  9
$INTERSECTIONDISPLAY
280
0
  9
$INTERSECTIONCOLOR
 70
257
  9
$DIMASSOC
280
2
  9
$PROJECTNAME
  1

  9
$CAMERADISPLAY
290
0
  9
$LENSLENGTH
 40
50.0
  9
$CAMERAHEIGHT
 40
0.0
  9
$STEPSPERSEC
 40
24.0
  9
$STEPSIZE
 40
100.0
  9
$3DDWFPREC
 40
2.0
  9
$PSOLWIDTH
 40
0.005
  9
$PSOLHEIGHT
 40
0.08
  9
$LOFTANG1
 40
1.570796326795
  9
$LOFTANG2
 40
1.570796326795
  9
$LOFTMAG1
 40
0.0
  9
$LOFTMAG2
 40
0.0
  9
$LOFTPARAM
 70
7
  9
$LOFTNORMALS
280
1
  9
$LATITUDE
 40
37.795
  9
$LONGITUDE
 40
-122.394
  9
$NORTHDIRECTION
 40
0.0
  9
$TIMEZONE
 70
-8000
  9
$LIGHTGLYPHDISPLAY
280
1
  9
$TILEMODELIGHTSYNCH
280
1
  9
$CMATERIAL
347
20
  9
$SOLIDHIST
280
0
  9
$SHOWHIST
280
1
  9
$DWFFRAME
280
2
  9
$DGNFRAME
280
2
  9
$REALWORLDSCALE
290
1
  9
$INTERFERECOLOR
 62
256
  9
$CSHADOW
280
0
  9
$SHADOWPLANELOCATION
 40
0.0
  0
ENDSEC
  0
SECTION
  2
CLASSES
  0
CLASS
  1
ACDBDICTIONARYWDFLT
  2
AcDbDictionaryWithDefault
  3
ObjectDBX Classes
 90
0
 91
0
280
0
281
0
  0
CLASS
  1
SUN
  2
AcDbSun
  3
SCENEOE
 90
1153
 91
0
280
0
281
0
  0
CLASS
  1
VISUALSTYLE
  2
AcDbVisualStyle
  3
ObjectDBX Classes
 90
4095
 91
0
280
0
281
0
  0
CLASS
  1
MATERIAL
  2
AcDbMaterial
  3
ObjectDBX Classes
 90
1153
 91
0
280
0
281
0
  0
CLASS
  1
SCALE
  2
AcDbScale
  3
ObjectDBX Classes
 90
1153
 91
0
280
0
281
0
  0
CLASS
  1
TABLESTYLE
  2
AcDbTableStyle
  3
ObjectDBX Classes
 90
4095
 91
0
280
0
281
0
  0
CLASS
  1
MLEADERSTYLE
  2
AcDbMLeaderStyle
  3
ACDB_MLEADERSTYLE_CLASS
 90
4095
 91
0
280
0
281
0
  0
CLASS
  1
DICTIONARYVAR
  2
AcDbDictionaryVar
  3
ObjectDBX Classes
 90
0
 91
0
280
0
281
0
  0
CLASS
  1
CELLSTYLEMAP
  2
AcDbCellStyleMap
  3
ObjectDBX Classes
 90
1152
 91
0
280
0
281
0
  0
CLASS
  1
MENTALRAYRENDERSETTINGS
  2
AcDbMentalRayRenderSettings
  3
SCENEOE
 90
1024
 91
0
280
0
281
0
  0
CLASS
  1
ACDBDETAILVIEWSTYLE
  2
AcDbDetailViewStyle
  3
ObjectDBX Classes
 90
1025
 91
0
280
0
281
0
  0
CLASS
  1
ACDBSECTIONVIEWSTYLE
  2
AcDbSectionViewStyle
  3
ObjectDBX Classes
 90
1025
 91
0
280
0
281
0
  0
CLASS
  1
RASTERVARIABLES
  2
AcDbRasterVariables
  3
ISM
 90
0
 91
0
280
0
281
0
  0
CLASS
  1
LAYOUT
  2
AcDbLayout
  3
ObjectDBX Classes
 90
0
 91
0
280
0
281
0
  0
CLASS
  1
ACDBPLACEHOLDER
  2
AcDbPlaceHolder
  3
ObjectDBX Classes
 90
0
 91
0
280
0
281
0
  0
ENDSEC
  0
SECTION
  2
TABLES
  0
TABLE
  2
VPORT
  5
8
330
0
100
AcDbSymbolTable
 70
1
  0
VPORT
  5
23
330
8
100
AcDbSymbolTableRecord
100
AcDbViewportTableRecord
  2
*Active
 70
0
 10
0.0
 20
0.0
 11
1.0
 21
1.0
 12
0.0
 22
0.0
 13
0.0
 23
0.0
 14
0.5
 24
0.5
 15
0.5
 25
0.5
 16
0.0
 26
0.0
 36
1.0
 17
0.0
 27
0.0
 37
0.0
 40
1000.0
 41
1.34
 42
50.0
 43
0.0
 44
0.0
 50
0.0
 51
0.0
 71
0
 72
1000
 73
1
 74
3
 75
0
 76
0
 77
0
 78
0
281
0
 65
0
146
0.0
  0
ENDTAB
  0
TABLE
  2
LTYPE
  5
2
330
0
100
AcDbSymbolTable
 70
3
  0
LTYPE
  5
24
330
2
100
AcDbSymbolTableRecord
100
AcDbLinetypeTableRecord
  2
ByBlock
 70
0
  3

 72
65
 73
0
 40
0.0
  0
LTYPE
  5
25
330
2
100
AcDbSymbolTableRecord
100
AcDbLinetypeTableRecord
  2
ByLayer
 70
0
  3

 72
65
 73
0
 40
0.0
  0
LTYPE
  5
26
330
2
100
AcDbSymbolTableRecord
100
AcDbLinetypeTableRecord
  2
Continuous
 70
0
  3

 72
65
 73
0
 40
0.0
  0
ENDTAB
  0
TABLE
  2
LAYER
  5
1
330
0
100
AcDbSymbolTable
 70
2
  0
LAYER
  5
27
330
1
100
AcDbSymbolTableRecord
100
AcDbLayerTableRecord
  2
0
 70
0
 62
7
  6
Continuous
370
-3
390
13
347
21
  0
LAYER
  5
28
330
1
100
AcDbSymbolTableRecord
100
AcDbLayerTableRecord
  2
Defpoints
 70
0
 62
7
  6
Continuous
290
0
370
-3
390
13
347
21
  0
ENDTAB
  0
TABLE
  2
STYLE
  5
5
330
0
100
AcDbSymbolTable
 70
1
  0
STYLE
  5
29
330
5
100
AcDbSymbolTableRecord
100
AcDbTextStyleTableRecord
  2
Standard
 70
0
 40
0.0
 41
1.0
 50
0.0
 71
0
 42
2.5
  3
txt
  4

  0
ENDTAB
  0
TABLE
  2
VIEW
  5
7
330
0
100
AcDbSymbolTable
 70
0
  0
ENDTAB
  0
TABLE
  2
UCS
  5
6
330
0
100
AcDbSymbolTable
 70
0
  0
ENDTAB
  0
TABLE
  2
APPID
  5
3
330
0
100
AcDbSymbolTable
 70
3
  0
APPID
  5
2A
330
3
100
AcDbSymbolTableRecord
100
AcDbRegAppTableRecord
  2
ACAD
 70
0
  0
APPID
  5
30
330
3
100
AcDbSymbolTableRecord
100
AcDbRegAppTableRecord
  2
HATCHBACKGROUNDCOLOR
 70
0
  0
APPID
  5
31
330
3
100
AcDbSymbolTableRecord
100
AcDbRegAppTableRecord
  2
EZDXF
 70
0
  0
ENDTAB
  0
TABLE
  2
DIMSTYLE
  5
4
330
0
100
AcDbSymbolTable
 70
1
100
AcDbDimStyleTable
  0
DIMSTYLE
105
2B
330
4
100
AcDbSymbolTableRecord
100
AcDbDimStyleTableRecord
  2
Standard
 70
0
 40
1.0
 41
2.5
 42
0.625
 43
3.75
 44
1.25
 45
0.0
 46
0.0
 47
0.0
 48
0.0
 49
2.5
140
2.5
141
2.5
142
0.0
143
0.03937007874
144
1.0
145
0.0
146
1.0
147
0.625
148
0.0
 69
0
 70
0
 71
0
 72
0
 73
0
 74
0
 75
0
 76
0
 77
1
 78
8
 79
3
170
0
171
3
172
1
173
0
174
0
175
0
176
0
177
0
178
0
179
2
271
2
272
2
273
2
274
3
275
0
276
0
277
2
278
44
279
0
280
0
281
0
282
0
283
0
284
8
285
0
286
0
288
0
289
3
290
0
371
-2
372
-2
  0
ENDTAB
  0
TABLE
  2
BLOCK_RECORD
  5
9
330
0
100
AcDbSymbolTable
 70
2
  0
BLOCK_RECORD
  5
17
330
9
100
AcDbSymbolTableRecord
100
AcDbBlockTableRecord
  2
*Model_Space
340
1A
 70
0
280
1
281
0
  0
BLOCK_RECORD
  5
1B
330
9
100
AcDbSymbolTableRecord
100
AcDbBlockTableRecord
  2
*Paper_Space
340
1E
 70
0
280
1
281
0
  0
ENDTAB
  0
ENDSEC
  0
SECTION
  2
BLOCKS
  0
BLOCK
  5
18
330
17
100
AcDbEntity
  8
0
100
AcDbBlockBegin
  2
*Model_Space
 70
0
 10
0.0
 20
0.0
 30
0.0
  3
*Model_Space
  1

  0
ENDBLK
  5
19
330
17
100
AcDbEntity
  8
0
100
AcDbBlockEnd
  0
BLOCK
  5
1C
330
1B
100
AcDbEntity
  8
0
100
AcDbBlockBegin
  2
*Paper_Space
 70
0
 10
0.0
 20
0.0
 30
0.0
  3
*Paper_Space
  1

  0
ENDBLK
  5
1D
330
1B
100
AcDbEntity
  8
0
100
AcDbBlockEnd
  0
ENDSEC
  0
SECTION
  2
ENTITIES
  0
LWPOLYLINE
  5
2F
330
17
100
AcDbEntity
  8
0
100
AcDbPolyline
 90
721
 70
1
 10
49.3548745720354
 20
3.871711453581104
 10
49.35343450547265
 20
3.8721173067219787
 10
49.349125863132016
 20
3.8731875381608067
 10
49.34197175970875
 20
3.874627491929993
 10
49.33188697386331
 20
3.8765787173395228
 10
49.31903616960096
 20
3.8788317797613248
 10
49.303339904255985
 20
3.8814545645134855
 10
49.284730292510275
 20
3.8843676289302946
 10
49.26335466234762
 20
3.8875825303593743
 10
49.239145128449984
 20
3.8910198261350164
 10
49.21201646947781
 20
3.894821065567205
 10
49.182127570762496
 20
3.898850478019766
 10
49.14940476831218
 20
3.9031022848188885
 10
49.11384228345305
 20
3.907650149956471
 10
49.07545167353271
 20
3.912346745448718
 10
49.03422138120355
 20
3.9173393992794225
 10
48.99023084913128
 20
3.9225602261305017
 10
48.943406413323984
 20
3.928003447328141
 10
48.89374229510787
 20
3.9337427268642413
 10
48.841323715822455
 20
3.939636515428815
 10
48.786065454128206
 20
3.945826362331848
 10
48.72797906737276
 20
3.952164939589544
 10
48.66720032619229
 20
3.958811132533324
 10
48.60351401728491
 20
3.965673941149853
 10
48.5371411326263
 20
3.972770701460566
 10
48.467934344232695
 20
3.9800898561178406
 10
48.39596731609596
 20
3.987637183795488
 10
48.321240048216126
 20
3.995412684493508
 10
48.24374676191937
 20
4.0034900222038
 10
48.163487457205676
 20
4.011869196926362
 10
48.080473691422675
 20
4.020402880677399
 10
47.99469390722275
 20
4.029238401440707
 10
47.90622754727161
 20
4.038307873898199
 10
47.814995168903536
 20
4.047679183367961
 10
47.721008329466166
 20
4.0572050018661985
 10
47.62432913560377
 20
4.0670384360505185
 10
47.52495180864254
 20
4.077253149912821
 10
47.4228936846039
 20
4.087628151477406
 10
47.318069542148336
 20
4.098304990054266
 10
47.210632487933445
 20
4.109221558999118
 10
47.10042941530164
 20
4.120439964956241
 10
46.987607652236704
 20
4.131971765273261
 10
46.87209353474674
 20
4.143811181276361
 10
46.75396072682364
 20
4.155963991639355
 10
46.63314134314934
 20
4.168350753696536
 10
46.5097090477157
 20
4.180977246121709
 10
46.38357861918324
 20
4.193985018224864
 10
46.254903164209544
 20
4.207311963361724
 10
46.12360901880271
 20
4.220952302858479
 10
45.98969618296277
 20
4.2349060367151266
 10
45.853164656689685
 20
4.24917316493167
 10
45.714082325301575
 20
4.263833130173817
 10
45.57238130348031
 20
4.278806489775857
 10
45.42812947654401
 20
4.294172686403499
 10
45.281332623166485
 20
4.309858056064849
 10
45.132002300695355
 20
4.325715270776104
 10
44.9802006157749
 20
4.341897437194879
 10
44.825842347065574
 20
4.358546104631154
 10
44.668927494567406
 20
4.3756612730849325
 10
44.50954705829371
 20
4.393027729254328
 10
44.34769525957069
 20
4.410719137131241
 10
44.18337209839834
 20
4.42873549671567
 10
44.01656023875521
 20
4.4472977999833105
 10
43.8472885740104
 20
4.4660377269746725
 10
43.67561921080813
 20
4.485108384347361
 10
43.50154637047462
 20
4.504583436093275
 10
43.32499061034416
 20
4.524530767530504
 10
43.146105037074356
 20
4.54488827201477
 10
42.964821765347104
 20
4.565576506880364
 10
42.781140795162436
 20
4.586595472127287
 10
42.59512423316461
 20
4.608098274413145
 10
42.406795194048875
 20
4.629790257770346
 10
42.216068456475696
 20
4.651812971508872
 10
42.02308556975506
 20
4.67425163696825
 10
41.827846533887
 20
4.697106254148476
 10
41.6302892422272
 20
4.720223716391942
 10
41.430407916101885
 20
4.74367768769055
 10
41.22834988349481
 20
4.767479725391916
 10
41.02402992306648
 20
4.791771378806031
 10
40.81746537083834
 20
4.8163316559572
 10
40.608729890802266
 20
4.8411663355192305
 10
40.397823482958266
 20
4.8662754174921234
 10
40.184734589958715
 20
4.891806229859678
 10
39.96946321180361
 20
4.917758772621891
 10
39.752015127166786
 20
4.944059381786867
 10
39.53254344270583
 20
4.97064595071033
 10
39.31089505176311
 20
4.997580586036554
 10
39.08714361833058
 20
5.024869066439351
 10
38.86138014242153
 20
5.052296178616837
 10
38.63352518137025
 20
5.079929807887097
 10
38.403635063147256
 20
5.107996724899643
 10
38.171783451744375
 20
5.136502708328281
 10
37.937834576525475
 20
5.165288872841595
 10
37.70195310149579
 20
5.19414578381151
 10
37.46411591196007
 20
5.22336809720562
 10
37.224328786592096
 20
5.252882149032028
 10
36.98258594671809
 20
5.282761603282632
 10
36.73897261367756
 20
5.312864910647445
 10
36.493488787470525
 20
5.343192071126469
 10
36.24606080410505
 20
5.37373730604589
 10
35.99683021289114
 20
5.404585836745232
 10
35.74572334983691
 20
5.435731884550683
 10
35.49282543628187
 20
5.467033900152256
 10
35.23813647222602
 20
5.498491883549951
 10
34.98173012166125
 20
5.530111613417581
 10
34.72352694192187
 20
5.561960975073232
 10
34.463589039652135
 20
5.594193075174513
 10
34.20186008688159
 20
5.626581143071915
 10
33.93855529691212
 20
5.659216178778774
 10
33.673550456455175
 20
5.691791968979871
 10
33.40683978683693
 20
5.724382177667104
 10
33.138553280019764
 20
5.757219354163793
 10
32.868685157329864
 20
5.790377162461835
 10
32.597105426804866
 20
5.823623053237914
 10
32.324120301759976
 20
5.856832813203475
 10
32.04951456889333
 20
5.889915442345188
 10
31.773418220167258
 20
5.92310348998637
 10
31.495751812916076
 20
5.956464841445108
 10
31.216668453797404
 20
5.989937390077127
 10
30.93611181484075
 20
6.02329436523292
 10
30.654144002690398
 20
6.056688873570096
 10
30.370753459998735
 20
6.09026824307245
 10
30.0859690801348
 20
6.12366415378049
 10
29.799796641772424
 20
6.156802941702319
 10
29.512354579526335
 20
6.190064484145052
 10
29.223501344086557
 20
6.223363559769166
 10
28.933378484763054
 20
6.2567853899141825
 10
28.64202067359873
 20
6.289887990628713
 10
28.349422131919738
 20
6.322745025904652
 10
28.05557130237848
 20
6.3555038237258
 10
27.760450848953504
 20
6.38838537606785
 10
27.464231214323867
 20
6.4211065843108335
 10
27.166788185201007
 20
6.453361235139531
 10
26.868325417539193
 20
6.485387656551072
 10
26.568666689985573
 20
6.517542611157331
 10
26.267908781227277
 20
6.549537221664519
 10
25.96607480595956
 20
6.581076832105045
 10
25.6633005348186
 20
6.612320327810328
 10
25.35943286114678
 20
6.643329815424644
 10
25.0546133342541
 20
6.674190516287514
 10
24.74877406882245
 20
6.7048229877332295
 10
24.44200028619137
 20
6.735085680451803
 10
24.13436565035275
 20
6.764984373117046
 10
23.825796497314695
 20
6.794513287055148
 10
23.516440155061
 20
6.823683979613732
 10
23.206149295607865
 20
6.852484893445173
 10
22.89505968959148
 20
6.881074913880895
 10
22.58317711568564
 20
6.909380376928996
 10
22.27053046725941
 20
6.937032962629984
 10
21.957108186965154
 20
6.964179998967654
 10
21.64305182411287
 20
6.990906707281533
 10
21.328208272044954
 20
7.017275194215892
 10
21.012736416092807
 20
7.043149689134555
 10
20.696642034930264
 20
7.06845652804563
 10
20.379930907231117
 20
7.093122046957212
 10
20.062591475647753
 20
7.117293573853101
 10
19.744691625498266
 20
7.141050551399009
 10
19.426231356782633
 20
7.164392979594932
 10
19.107301669514204
 20
7.187105645138987
 10
18.787834678374896
 20
7.209109105365466
 10
18.467909826030404
 20
7.230335474956279
 10
18.147583440451204
 20
7.251011524560935
 10
17.82676452162395
 20
7.271352467481317
 10
17.50561195488008
 20
7.291222533081251
 10
17.184098305618175
 20
7.310026630751736
 10
16.86218890179537
 20
7.3282067444441665
 10
16.540025292721655
 20
7.345848095498061
 10
16.21754537175275
 20
7.3627975772558125
 10
15.89475491756245
 20
7.378981525725522
 10
15.571783922113145
 20
7.3946324902305065
 10
15.248564500086731
 20
7.409671028105059
 10
14.925187651496545
 20
7.42388192604729
 10
14.601579712350693
 20
7.4372594053833945
 10
14.277882231959163
 20
7.449888687452892
 10
13.954089431648129
 20
7.461843436247676
 10
13.630218647439039
 20
7.472902659792057
 10
13.306264100658069
 20
7.48314002207793
 10
12.982293676623323
 20
7.492634965771007
 10
12.658216375321452
 20
7.501602704173172
 10
12.334214196779133
 20
7.509612810680655
 10
12.010287140996356
 20
7.516665285293457
 10
11.686429429299315
 20
7.522833792003476
 10
11.362635283014205
 20
7.52819199480261
 10
11.038984144806726
 20
7.532672008372774
 10
10.715396572011164
 20
7.5363417180320535
 10
10.392025671285143
 20
7.539139017136172
 10
10.068882999976271
 20
7.540916577701334
 10
9.745962779410753
 20
7.541748063719438
 10
9.423259230914763
 20
7.54170713918238
 10
9.100778133162123
 20
7.540720140098266
 10
8.778678371484235
 20
7.538651295830917
 10
8.456874724541596
 20
7.53564215569032
 10
8.135429298978478
 20
7.531845826334085
 10
7.814297324172034
 20
7.526888209128908
 10
7.493614570758441
 20
7.520928189406207
 10
7.173363702716265
 20
7.514186759141677
 10
6.853488392075043
 20
7.506437147685815
 10
6.5341475241661975
 20
7.497543584402443
 10
6.215329541642096
 20
7.487653397275358
 10
5.89697233785847
 20
7.476613479646954
 10
5.579211683451488
 20
7.464582716848648
 10
5.261985471776884
 20
7.451408002222833
 10
4.9454352521446365
 20
7.4371745571090315
 10
4.629396360549516
 20
7.422091816135315
 10
4.314027682322943
 20
7.406024008665507
 10
3.9993523321601634
 20
7.388676478732018
 10
3.6853645313873584
 20
7.370122890326742
 10
3.372120607975004
 20
7.35059001409919
 10
3.059626340596907
 20
7.33000418605746
 10
2.747887507926876
 20
7.308291742209655
 10
2.4369777739568135
 20
7.285458461229586
 10
2.1268119173471947
 20
7.26164589242724
 10
1.817452044742295
 20
7.237007142460223
 10
1.5089949348292635
 20
7.2112533340347555
 10
1.2014521449557258
 20
7.1842371391670365
 10
0.894812117774045
 20
7.156105885840867
 10
0.5891427386023196
 20
7.126939016721953
 10
0.2843703434486471
 20
7.0967307531364865
 10
-0.019437182368884753
 20
7.065560537750175
 10
-0.3222119535321883
 20
7.033507813228729
 10
-0.6240045193379138
 20
7.000272144930744
 10
-0.9247412157941656
 20
6.965859311530029
 10
-1.2243772722781083
 20
6.930643411659891
 10
-1.522974795434004
 20
6.89447133866272
 10
-1.8203806786042542
 20
6.85728098589424
 10
-2.116742249772657
 20
6.81906079600683
 10
-2.4119121809554036
 20
6.7798223263481106
 10
-2.7058283655082347
 20
6.739718683575692
 10
-2.998643910088743
 20
6.698811974333847
 10
-3.2902562573359866
 20
6.656739657336898
 10
-3.5805527513090274
 20
6.613955273883856
 10
-3.869618613347388
 20
6.570600373284707
 10
-4.157492835400103
 20
6.526227192914251
 10
-4.443954425491472
 20
6.480853068793922
 10
-4.7290943836348305
 20
6.4346932142256
 10
-5.012918488503994
 20
6.387821293201187
 10
-5.2954151827513245
 20
6.340089977736884
 10
-5.576442917066852
 20
6.291584489172213
 10
-5.856149019434369
 20
6.2422932701595535
 10
-6.134403497891512
 20
6.192448870022221
 10
-6.411194795090657
 20
6.14190396077642
 10
-6.686517132357996
 20
6.09058487843025
 10
-6.960376288367334
 20
6.038565286975612
 10
-7.2327101564744005
 20
5.9859982930701126
 10
-7.50359240067109
 20
5.932878118039942
 10
-7.772864135625988
 20
5.879068991248924
 10
-8.04052536133909
 20
5.824570912697061
 10
-8.306643963128487
 20
5.769304439718639
 10
-8.571152055676091
 20
5.713349014979372
 10
-8.834066975003331
 20
5.656925630454954
 10
-9.095320835792126
 20
5.600113728811095
 10
-9.35489052334723
 20
5.5426186540802
 10
-9.612849701660535
 20
5.48443462758846
 10
-9.868971600082542
 20
5.425505321365408
 10
-10.123420882618479
 20
5.366040170039117
 10
-10.376203327942155
 20
5.306112837601487
 10
-10.627171608069775
 20
5.24573488140014
 10
-10.87631994432753
 20
5.184832637443178
 10
-11.123704664685881
 20
5.123179335081094
 10
-11.369275219848173
 20
5.0610754089552925
 10
-11.613048945835848
 20
4.99874185104147
 10
-11.854923285287946
 20
4.935816120053945
 10
-12.094971902196361
 20
4.872292437318905
 10
-12.333059025924927
 20
4.808329688167771
 10
-12.569258320465538
 20
4.743922093926732
 10
-12.803575564492002
 20
4.679143318587685
 10
-13.035919757990992
 20
4.6137781488487475
 10
-13.266302458310133
 20
4.547973912693715
 10
-13.494723665449417
 20
4.481730610122589
 10
-13.721206494104093
 20
4.4153428971029625
 10
-13.945597837616553
 20
4.348748666990559
 10
-14.168027687949161
 20
4.281715370462063
 10
-14.388410823762394
 20
4.214101458207486
 10
-14.6066966957596
 20
4.146207364868236
 10
-14.822970525280299
 20
4.078174639754295
 10
-15.037135533637349
 20
4.0097144055718825
 10
-15.24912961418647
 20
3.940979768978608
 10
-15.459105873585276
 20
3.8720328366187453
 10
-15.666916983849966
 20
3.8028851658399194
 10
-15.872545608959108
 20
3.733315764666431
 10
-16.076009084934135
 20
3.6635456250739793
 10
-16.277313190448858
 20
3.593648411054461
 10
-16.476452146829466
 20
3.5235504586159783
 10
-16.673352290084065
 20
3.4532575464323423
 10
-16.86800784153883
 20
3.3826960105116544
 10
-17.060498243859485
 20
3.311933736172002
 10
-17.25067616906223
 20
3.240982280761007
 10
-17.438553174494686
 20
3.169988972262467
 10
-17.624265030793023
 20
3.098794925344963
 10
-17.807590745981557
 20
3.0274174760299277
 10
-17.98859820537836
 20
2.9557771816516527
 10
-18.167310523678687
 20
2.8841686981777306
 10
-18.343727700882535
 20
2.812592025608162
 10
-18.517764515650384
 20
2.7409056146329616
 10
-18.689415189308427
 20
2.6690358012602307
 10
-18.85874760717474
 20
2.596903142824259
 10
-19.025643334634598
 20
2.5248875166321625
 10
-19.190170257006077
 20
2.452909480018229
 10
-19.35231681694155
 20
2.3808217049986657
 10
-19.51200935044913
 20
2.3086299702472806
 10
-19.669259414876432
 20
2.2364816037478716
 10
-19.82405545287584
 20
2.1642292775166423
 10
-19.97640324312116
 20
2.0919466555454904
 10
-20.12630856428621
 20
2.019707401826315
 10
-20.273686195031452
 20
1.9473699670491298
 10
-20.41855347137834
 20
1.875155343189631
 10
-20.560960942623517
 20
1.8027630956064125
 10
-20.70085805947033
 20
1.7304936589408804
 10
-20.838239043244972
 20
1.6582733692011362
 10
-20.97309811527363
 20
1.5860285623952803
 10
-21.1053616115644
 20
1.513765017197125
 10
-21.235108974783
 20
1.4415506189247573
 10
-21.36228387695896
 20
1.3696121382276847
 10
-21.486874760744666
 20
1.297802247122109
 10
-21.6088816261401
 20
1.2261209456080304
 10
-21.72838391581099
 20
1.154636119003537
 10
-21.845228523099717
 20
1.0832856606643528
 10
-21.959500669345804
 20
1.0122111199004629
 10
-22.071138247904983
 20
0.9415656033694757
 10
-22.180214922769142
 20
0.8713433323975806
 10
-22.286645472598764
 20
0.8014027576747913
 10
-22.390509340059563
 20
0.7318117645191945
 10
-22.491659197167735
 20
0.6625819102784145
 10
-22.5902539292547
 20
0.5938489655886239
 10
-22.68615198701048
 20
0.5256981517893456
 10
-22.779415477079347
 20
0.4579763622229696
 10
-22.87004439946129
 20
0.39068359688949716
 10
-22.958038754156323
 20
0.3238198557889277
 10
-23.04333643452017
 20
0.25753824557886906
 10
-23.125937440552825
 20
0.19183876625932245
 10
-23.205898100224754
 20
0.12649464718078027
 10
-23.283162085565493
 20
0.06173265899274946
 10
-23.357706281879796
 20
-0.002741854272364395
 10
-23.42955380386291
 20
-0.06663423664696622
 10
-23.498681536819586
 20
-0.1302391440986511
 10
-23.565101038097453
 20
-0.1934092486436217
 10
-23.628812307696503
 20
-0.256144550281878
 10
-23.689735902951035
 20
-0.3185129343315073
 10
-23.748030709192463
 20
-0.38037863015633466
 10
-23.803458398423654
 20
-0.4419452937106223
 10
-23.856251519967937
 20
-0.5030829330320075
 10
-23.906256967167696
 20
-0.5638536547647648
 10
-23.953492076044366
 20
-0.6240364669331997
 10
-23.99801895324222
 20
-0.68378447619492
 10
-24.039769713443174
 20
-0.7430182398842161
 10
-24.07876747134248
 20
-0.8014431020334941
 10
-24.115068554910586
 20
-0.8592858332922605
 10
-24.148610857503233
 20
-0.9163933270029071
 10
-24.179405936468033
 20
-0.9726182551816365
 10
-24.207476906500233
 20
-1.0276659618608546
 10
-24.232823767599843
 20
-1.0815364470405615
 10
-24.255531741106367
 20
-1.1340881614107714
 10
-24.27548239240508
 20
-1.184941227664369
 10
-24.29277250018312
 20
-1.2338067685075709
 10
-24.30753351517049
 20
-1.279953922695203
 10
-24.31965856010008
 20
-1.322855484936353
 10
-24.32931375774478
 20
-1.361338610034455
 10
-24.336665230877454
 20
-1.3942304527929434
 10
-24.341704339685784
 20
-1.4197515200586304
 10
-24.344649215006946
 20
-1.436065990707863
 10
-24.309117326524902
 20
-1.906962357733977
 10
-24.307422998314454
 20
-1.9106094265183884
 10
-24.302345792356917
 20
-1.9214769688797246
 10
-24.293908823347532
 20
-1.9392703288503912
 10
-24.28194018983962
 20
-1.9652360156188526
 10
-24.26646586766693
 20
-2.0009325303626007
 10
-24.247712683875754
 20
-2.0425235668290993
 10
-24.225786113362354
 20
-2.087719762595682
 10
-24.20090860687006
 20
-2.13557504311529
 10
-24.173127852557013
 20
-2.1845366858842414
 10
-24.142422194495627
 20
-2.233935936301639
 10
-24.10896785403875
 20
-2.283416031755612
 10
-24.072714281889724
 20
-2.332676537604755
 10
-24.033684592743796
 20
-2.3814227978814744
 10
-23.991890343948594
 20
-2.429507484601972
 10
-23.947331535504116
 20
-2.4769305977662484
 10
-23.900087610076067
 20
-2.523624252056216
 10
-23.85009646102018
 20
-2.5694353408142665
 10
-23.79735230966263
 20
-2.6144375280322993
 10
-23.74193459866914
 20
-2.6585629283922256
 10
-23.683758106700182
 20
-2.701953091204033
 10
-23.62282861242957
 20
-2.74453435247582
 10
-23.559305001188722
 20
-2.7861709415714158
 10
-23.492948944980515
 20
-2.8270665144450797
 10
-23.423987214454442
 20
-2.867164743126348
 10
-23.352266702952907
 20
-2.9065277342594964
 10
-23.277866853141614
 20
-2.945087602526437
 10
-23.200793443694376
 20
-2.9827706839352732
 10
-23.121029138589765
 20
-3.019797970461698
 10
-23.038585495175393
 20
-3.0560221341219167
 10
-22.95343939875602
 20
-3.091737830883522
 10
-22.86560818535308
 20
-3.126724068770819
 10
-22.77515396161085
 20
-3.161133954441416
 10
-22.682003063537426
 20
-3.194961709221501
 10
-22.58614393378519
 20
-3.2283546610948717
 10
-22.487656015019855
 20
-3.2612449247434414
 10
-22.386533528567604
 20
-3.2937061641591074
 10
-22.282776474428438
 20
-3.3257383793418707
 10
-22.176293852589026
 20
-3.3575567835936155
 10
-22.067238769706975
 20
-3.3890992702700653
 10
-21.955469676472298
 20
-3.4202806180317
 10
-21.841133900868794
 20
-3.4511123842261413
 10
-21.724146221556946
 20
-3.481736118163375
 10
-21.604580302528642
 20
-3.5121575985172124
 10
-21.482368258465808
 20
-3.5422973826219444
 10
-21.357595310707957
 20
-3.5720139211675845
 10
-21.230182016589378
 20
-3.6013750994722202
 10
-21.10026992542006
 20
-3.6304661388753727
 10
-20.967785373208102
 20
-3.65928126070323
 10
-20.83272835995351
 20
-3.6878204649557933
 10
-20.69511622167771
 20
-3.7158627596573663
 10
-20.555022622372608
 20
-3.7434139234817603
 10
-20.412373898046294
 20
-3.770468177755164
 10
-20.26723215534306
 20
-3.797178629135186
 10
-20.119597394262893
 20
-3.823545277621826
 10
-19.969492729501045
 20
-3.84927346724749
 10
-19.81698026770179
 20
-3.8745163046697866
 10
-19.66199212354704
 20
-3.8991943472230055
 10
-19.504522518362982
 20
-3.9233812588990453
 10
-19.34464511614152
 20
-3.947082818371718
 10
-19.18236569555646
 20
-3.9702253616491228
 10
-19.01767847793399
 20
-3.992882552723162
 10
-18.850583463274116
 20
-4.015054391593832
 10
-18.68108643025065
 20
-4.036667214269237
 10
-18.509255264181668
 20
-4.057800463415085
 10
-18.33508996506718
 20
-4.078454139031377
 10
-18.158522647589102
 20
-4.098548798452403
 10
-17.979689082383594
 20
-4.118243327009582
 10
-17.79852138413258
 20
-4.137458282037206
 10
-17.615013774162247
 20
-4.15626732752717
 10
-17.429245695138302
 20
-4.174602578161391
 10
-17.241234483082188
 20
-4.19224304196417
 10
-17.050962801972453
 20
-4.209409710911204
 10
-16.858345430469598
 20
-4.22624413431248
 10
-16.663609139223112
 20
-4.242689984197532
 10
-16.466618157596823
 20
-4.25858837523494
 10
-16.26737826426455
 20
-4.2738656434328055
 10
-16.066025229862472
 20
-4.288680674122548
 10
-15.86247961172486
 20
-4.303101352622257
 10
-15.65675296719935
 20
-4.316980350948132
 10
-15.448918960277846
 20
-4.330323447773988
 10
-15.238983369634145
 20
-4.3430569791079225
 10
-15.026928859246821
 20
-4.3554019369256345
 10
-14.812766986463496
 20
-4.367210993243325
 10
-14.596486193936546
 20
-4.378631476044792
 10
-14.378251145671202
 20
-4.389453950701963
 10
-14.157908735009856
 20
-4.399740523859111
 10
-13.93553262594441
 20
-4.409496974190051
 10
-13.711190703792946
 20
-4.418802744360491
 10
-13.484820861911192
 20
-4.427504727712823
 10
-13.256485206943417
 20
-4.435756030904654
 10
-13.02626318155534
 20
-4.443488768617899
 10
-12.794019015110782
 20
-4.450544055521137
 10
-12.559900035593543
 20
-4.456933448961991
 10
-12.323888906982182
 20
-4.462877940916157
 10
-12.085985629276708
 20
-4.468377531383634
 10
-11.846190202477114
 20
-4.4734322203644235
 10
-11.604593626596735
 20
-4.4778267945566395
 10
-11.361207458983195
 20
-4.481413925976485
 10
-11.11593492094935
 20
-4.484482491917744
 10
-10.868923340478995
 20
-4.487044049728039
 10
-10.620110610927854
 20
-4.48894549274976
 10
-10.369581953635453
 20
-4.490045271672924
 10
-10.11732003258035
 20
-4.490564378473224
 10
-9.863386954406826
 20
-4.49065591980827
 10
-9.60772061247061
 20
-4.490166789020453
 10
-9.350338342793124
 20
-4.488875994134077
 10
-9.091375916010549
 20
-4.486942420480562
 10
-8.830827553449076
 20
-4.484439732051807
 10
-8.568545927124907
 20
-4.48135637150019
 10
-8.304757807687544
 20
-4.477636010855244
 10
-8.039401088492715
 20
-4.473125543459363
 10
-7.7724757695404225
 20
-4.467824969312547
 10
-7.5040497361487475
 20
-4.461813731080502
 10
-7.234094094948637
 20
-4.455460148722725
 10
-6.962699845953425
 20
-4.448549008937332
 10
-6.689816439866455
 20
-4.440779877082914
 10
-6.41543809801392
 20
-4.432226417151371
 10
-6.13971214837961
 20
-4.4229001864903275
 10
-5.86254181227639
 20
-4.413090062393564
 10
-5.584012311043772
 20
-4.402654495551095
 10
-5.304123644681761
 20
-4.391593485962922
 10
-5.022887370537979
 20
-4.379759705645247
 10
-4.740297709938616
 20
-4.36722681858997
 10
-4.456490433519846
 20
-4.354153710128506
 10
-4.1713297706454995
 20
-4.340381494929441
 10
-3.88497460664698
 20
-4.325774402356596
 10
-3.597419162850492
 20
-4.3104060964018736
 10
-3.3086576605822198
 20
-4.2943502410571694
 10
-3.018622214524073
 20
-4.277527393656775
 10
-2.7275453739993747
 20
-4.2598075622383265
 10
-2.435359253690033
 20
-4.241111304136114
 10
-2.1419555175612826
 20
-4.221874824627717
 10
-1.8474872722707378
 20
-4.202036017068862
 10
-1.5520628538531533
 20
-4.181158676181966
 10
-1.255517598303314
 20
-4.159452236595103
 10
-0.9579193909392898
 20
-4.136996140973985
 10
-0.6594271170925124
 20
-4.1136546186824345
 10
-0.35989922745299474
 20
-4.089342448380933
 10
-0.0594830500045246
 20
-4.0640711874171
 10
0.24191819394002853
 20
-4.038129713084722
 10
0.5442192830411496
 20
-4.011376476073808
 10
0.8473176599378869
 20
-3.983448935098682
 10
1.1513043246435695
 20
-3.9545623034612265
 10
1.4561287278615438
 20
-3.925017015802846
 10
1.7616998695784767
 20
-3.894597858821657
 10
2.0680856351124595
 20
-3.8632253898519493
 10
2.3752239178192056
 20
-3.831052715551333
 10
2.683091603003483
 20
-3.7977851799522107
 10
2.9916886906652884
 20
-3.763422783054584
 10
3.300964631507965
 20
-3.7282659594998595
 10
3.610851540213425
 20
-3.6923941519537458
 10
3.9214173020997585
 20
-3.655727917750533
 10
4.23257091715363
 20
-3.6180520435883383
 10
4.544323942722666
 20
-3.579513857450957
 10
4.856676378806869
 20
-3.540113359338388
 10
5.169554561414331
 20
-3.4998563279244466
 10
5.482941154523621
 20
-3.4585217712334333
 10
5.796847715482367
 20
-3.4162570172491478
 10
6.111150031002013
 20
-3.373368279286806
 10
6.425989650392543
 20
-3.329770336006886
 10
6.741201909648735
 20
-3.2852537527813155
 10
7.056866251436289
 20
-3.2398864149281814
 10
7.372835347771411
 20
-3.1936798797951065
 10
7.689188641319807
 20
-3.1467020327001793
 10
8.005920353407674
 20
-3.098879209651499
 10
8.322888934725023
 20
-3.050296631988588
 10
8.640179606611376
 20
-3.0010958490214317
 10
8.957786590392915
 20
-2.9512031967581325
 10
9.275556779412037
 20
-2.9005565685544137
 10
9.593569616334454
 20
-2.8492238497283617
 10
9.911762994515893
 20
-2.7973581469375857
 10
10.23018746325299
 20
-2.7446590255406815
 10
10.548707251909589
 20
-2.6912853708690667
 10
10.8673339178333
 20
-2.6373845109065406
 10
11.186061682350326
 20
-2.5828827816612017
 10
11.504878988113031
 20
-2.527632855149256
 10
11.823797392469048
 20
-2.471782059354498
 10
12.142681124782193
 20
-2.4154892796083494
 10
12.461592291696743
 20
-2.3586014092532013
 10
12.780474565242242
 20
-2.301345218938559
 10
13.099310609397248
 20
-2.2434997166887287
 10
13.41809464548795
 20
-2.184991238511812
 10
13.736838230861979
 20
-2.1259671123916046
 10
14.055411373556957
 20
-2.066659887651427
 10
14.373887737564798
 20
-2.007063785617465
 10
14.69217632287216
 20
-1.946963592987837
 10
15.010282908152858
 20
-1.8864329737544392
 10
15.328207493406886
 20
-1.8254719279172733
 10
15.645955857308065
 20
-1.7641541194682375
 10
15.963374893198784
 20
-1.702417441763054
 10
16.28054404374475
 20
-1.6403297801198131
 10
16.597395423627873
 20
-1.5779705772042232
 10
16.914014254187688
 20
-1.5154813823262687
 10
17.230230092745128
 20
-1.452579096865981
 10
17.546048717974017
 20
-1.3893373848152573
 10
17.86157268723532
 20
-1.326118787459778
 10
18.176620000502368
 20
-1.2624928781957747
 10
18.491184879101336
 20
-1.1983859930313503
 10
18.80537565906701
 20
-1.134234337244083
 10
19.1190565697632
 20
-1.070196796165394
 10
19.432266603138945
 20
-1.0058256071700806
 10
19.744937873876147
 20
-0.9412002129238517
 10
20.05699671798292
 20
-0.8763263921005191
 10
20.368528356798784
 20
-0.8113456940100681
 10
20.67946490500564
 20
-0.74633756131821
 10
20.98981214127731
 20
-0.6813756580168421
 10
21.299484844274275
 20
-0.6163184347959787
 10
21.6084714566489
 20
-0.5510185636718232
 10
21.91678931442264
 20
-0.4856970366200703
 10
22.224438417595472
 20
-0.4203538536407211
 10
22.53127721685742
 20
-0.3550742360732967
 10
22.837453040192283
 20
-0.2898466265701732
 10
23.142801223594827
 20
-0.22446159050327935
 10
23.44732754573886
 20
-0.1589927918645127
 10
23.751060899993444
 20
-0.0938085506133666
 10
24.05399550768478
 20
-0.028835202757941054
 10
24.35597248348142
 20
0.03606302233793675
 10
24.657144934040993
 20
0.10082401802999155
 10
24.957359752705887
 20
0.1655098909624997
 10
25.256690603467987
 20
0.2301264198092713
 10
25.555075379683043
 20
0.29452049791269935
 10
25.852440417359126
 20
0.3586863465989709
 10
26.148870937835785
 20
0.42248241655810276
 10
26.44420227710777
 20
0.4861181424181649
 10
26.738581763158887
 20
0.5496050815267819
 10
27.031856289331536
 20
0.6130053405282291
 10
27.324060527668557
 20
0.6758769354711152
 10
27.615120814178077
 20
0.7382140876816288
 10
27.905149804801017
 20
0.800470338458784
 10
28.19392072888787
 20
0.8627020157730455
 10
28.481627143812926
 20
0.9243313650368479
 10
28.768115942918573
 20
0.9854204928944658
 10
29.05336401150957
 20
1.0462640553134948
 10
29.337371349585908
 20
1.1068620522939334
 10
29.62014373582141
 20
1.1671408198438853
 10
29.90171006358512
 20
1.2267320380038553
 10
30.181911447545634
 20
1.2857714774100193
 10
30.4608778796653
 20
1.3444916873856951
 10
30.738462031960335
 20
1.4028811105832608
 10
31.014675461778342
 20
1.4607924190189183
 10
31.289529726466974
 20
1.5180782847088712
 10
31.563013268678574
 20
1.5748860356369156
 10
31.83505242442125
 20
1.631209893129241
 10
32.10573241503455
 20
1.6869083078758622
 10
32.37490591253467
 20
1.741969722529156
 10
32.642629244892035
 20
1.7966209077386284
 10
32.908755084122895
 20
1.850850306156658
 10
33.173515979550544
 20
1.904527925820881
 10
33.43662883255502
 20
1.9574833240522553
 10
33.69824097112012
 20
2.0097280581984043
 10
33.95834661657203
 20
2.0613357922512248
 10
34.21678688357932
 20
2.112442296846892
 10
34.47356755081581
 20
2.1629739079935084
 10
34.72884172493911
 20
2.212868519046797
 10
34.98239419264735
 20
2.2620351299934263
 10
35.23431017528002
 20
2.3103321915234085
 10
35.48449867282381
 20
2.35797491693863
 10
35.7330275705968
 20
2.4050427489048
 10
35.9798289832809
 20
2.451456244756207
 10
36.224902910876125
 20
2.497215404492854
 10
36.468193025412
 20
2.5420934574652323
 10
36.70975565485899
 20
2.5863171743228492
 10
36.94944924990709
 20
2.629801333726183
 10
37.187335917200606
 20
2.672699042332843
 10
37.42343299276096
 20
2.714789308167133
 10
37.657672591270064
 20
2.7559926885633432
 10
37.89003737670647
 20
2.7965301754971685
 10
38.1205273490702
 20
2.8364017689686105
 10
38.34914250836126
 20
2.875607468977668
 10
38.57574708394346
 20
2.9139883901929227
 10
38.800499961148205
 20
2.9514087619781972
 10
39.02329858261458
 20
2.9882311256191776
 10
39.24407506302446
 20
3.024376038450149
 10
39.462903066369755
 20
3.0598492791449248
 10
39.67972048600621
 20
3.094497741045898
 10
39.89444787926807
 20
3.1283893094711535
 10
40.107226795465365
 20
3.1616092057602136
 10
40.31792724263571
 20
3.193924880589761
 10
40.52653766343149
 20
3.2254836619435907
 10
40.733063836526526
 20
3.256211885829807
 10
40.93748842589936
 20
3.286330544224102
 10
41.139822988897606
 20
3.31569230914268
 10
41.339993861529415
 20
3.3442914019117316
 10
41.53800682246857
 20
3.372054158539356
 10
41.73392975703313
 20
3.399060021691263
 10
41.927609558565536
 20
3.425371098011731
 10
42.11904622706576
 20
3.4509873875007577
 10
42.308319205199524
 20
3.475841004840256
 10
42.49543427164064
 20
3.499858286038329
 10
42.680226762383846
 20
3.523248665723047
 10
42.86277034142108
 20
3.5460179225682236
 10
43.043082344773744
 20
3.567945064598162
 10
43.221083329776164
 20
3.58909797713095
 10
43.39676173908069
 20
3.6096239881503847
 10
43.57020279402685
 20
3.6293815483464797
 10
43.74126494530467
 20
3.6482854363797155
 10
43.910010299558415
 20
3.666488758907699
 10
44.07643307811425
 20
3.684065179922327
 10
44.24045961698032
 20
3.7010089207497923
 10
44.402101473504224
 20
3.717172653406295
 10
44.561352869012154
 20
3.732630041883735
 10
44.71820224615649
 20
3.747528414165909
 10
44.87265538361104
 20
3.7617941062609175
 10
45.02465017473153
 20
3.775274011511153
 10
45.174186619517954
 20
3.7879681299166146
 10
45.321315267266975
 20
3.80017689611871
 10
45.46596823266051
 20
3.8118208674517264
 10
45.608145515698546
 20
3.822900043915667
 10
45.7478528950549
 20
3.83334076151863
 10
45.88501670673765
 20
3.8431372415868053
 10
46.019710614738734
 20
3.852295262794005
 10
46.15184939771861
 20
3.8609563744502142
 10
46.28144461302492
 20
3.868973248571637
 10
46.40848470331001
 20
3.8764932131420693
 10
46.533054889913416
 20
3.8833747188515253
 10
46.654996287503735
 20
3.88975353633618
 10
46.77437678139901
 20
3.895709108261742
 10
46.891128486281204
 20
3.9011619919625042
 10
47.00533084481601
 20
3.906044302120376
 10
47.11689863566389
 20
3.9104975880453448
 10
47.22591708016437
 20
3.9143803004274256
 10
47.33222151431225
 20
3.9179018738946914
 10
47.4359650447651
 20
3.9210002018028636
 10
47.537000343539134
 20
3.9236637268043224
 10
47.63540107462625
 20
3.925898227572877
 10
47.73116723802646
 20
3.9277037041085294
 10
47.824293055065944
 20
3.929153820403178
 10
47.91471064042663
 20
3.9301691337911127
 10
48.00240843676085
 20
3.9308969722561287
 10
48.087465886734364
 20
3.931269450480141
 10
48.16980354768144
 20
3.9313544537812364
 10
48.24942719827589
 20
3.9310783181675153
 10
48.326331059843895
 20
3.930514707630876
 10
48.400520911059274
 20
3.929589958179422
 10
48.47199097324824
 20
3.9283777338050516
 10
48.54072968906313
 20
3.92702536249156
 10
48.6066749518597
 20
3.9253797375813404
 10
48.66996831094791
 20
3.9235260804139136
 10
48.73038299567826
 20
3.921520718959744
 10
48.788145776700276
 20
3.919307325248366
 10
48.84310932603015
 20
3.9168743419321594
 10
48.895262086320244
 20
3.914369096994919
 10
48.94468350023628
 20
3.911723705118559
 10
48.99129990378638
 20
3.9089323876292674
 10
49.03509973962287
 20
3.9061424725108416
 10
49.07616822908532
 20
3.9032124104532966
 10
49.114420150834185
 20
3.900283750766615
 10
49.149861283543274
 20
3.8972828294589017
 10
49.18248006986499
 20
3.8943569745139537
 10
49.21228228847313
 20
3.8914325219398713
 10
49.23933582468576
 20
3.8885889144023635
 10
49.2634933505191
 20
3.8858145945538087
 10
49.28482275129125
 20
3.8831890050599176
 10
49.303397690994096
 20
3.8807179245944994
 10
49.31907084164383
 20
3.8783897958099334
 10
49.33190430988475
 20
3.8763577253638273
 10
49.34197753838256
 20
3.8745538279380947
 10
49.349131641805826
 20
3.8731138741689084
 10
49.35343450547265
 20
3.8721173067219787
 10
49.3548745720354
 20
3.871711453581104
  0
ENDSEC
  0
SECTION
  2
OBJECTS
  0
DICTIONARY
  5
A
330
0
100
AcDbDictionary
280
0
281
1
  3
ACAD_COLOR
350
B
  3
ACAD_GROUP
350
C
  3
ACAD_LAYOUT
350
D
  3
ACAD_MATERIAL
350
E
  3
ACAD_MLEADERSTYLE
350
F
  3
ACAD_MLINESTYLE
350
10
  3
ACAD_PLOTSETTINGS
350
11
  3
ACAD_PLOTSTYLENAME
350
12
  3
ACAD_SCALELIST
350
14
  3
ACAD_TABLESTYLE
350
15
  3
ACAD_VISUALSTYLE
350
16
  3
EZDXF_META
350
2D
  0
DICTIONARY
  5
B
330
A
100
AcDbDictionary
280
0
281
1
  0
DICTIONARY
  5
C
330
A
100
AcDbDictionary
280
0
281
1
  0
DICTIONARY
  5
D
330
A
100
AcDbDictionary
280
0
281
1
  3
Model
350
1A
  3
Layout1
350
1E
  0
DICTIONARY
  5
E
330
A
100
AcDbDictionary
280
0
281
1
  3
ByBlock
350
1F
  3
ByLayer
350
20
  3
Global
350
21
  0
DICTIONARY
  5
F
330
A
100
AcDbDictionary
280
0
281
1
  3
Standard
350
2C
  0
DICTIONARY
  5
10
330
A
100
AcDbDictionary
280
0
281
1
  3
Standard
350
22
  0
DICTIONARY
  5
11
330
A
100
AcDbDictionary
280
0
281
1
  0
ACDBDICTIONARYWDFLT
  5
12
330
A
100
AcDbDictionary
280
0
281
1
  3
Normal
350
13
100
AcDbDictionaryWithDefault
340
13
  0
ACDBPLACEHOLDER
  5
13
330
12
  0
DICTIONARY
  5
14
330
A
100
AcDbDictionary
280
0
281
1
  0
DICTIONARY
  5
15
330
A
100
AcDbDictionary
280
0
281
1
  0
DICTIONARY
  5
16
330
A
100
AcDbDictionary
280
0
281
1
  0
LAYOUT
  5
1A
330
D
100
AcDbPlotSettings
  1

  4
A3
  6

 40
7.5
 41
20.0
 42
7.5
 43
20.0
 44
420.0
 45
297.0
 46
0.0
 47
0.0
 48
0.0
 49
0.0
140
0.0
141
0.0
142
1.0
143
1.0
 70
1024
 72
1
 73
0
 74
5
  7

 75
16
 76
0
 77
2
 78
300
147
1.0
148
0.0
149
0.0
100
AcDbLayout
  1
Model
 70
1
 71
0
 10
0.0
 20
0.0
 11
420.0
 21
297.0
 12
0.0
 22
0.0
 32
0.0
 14
1e+20
 24
1e+20
 34
1e+20
 15
-1e+20
 25
-1e+20
 35
-1e+20
146
0.0
 13
0.0
 23
0.0
 33
0.0
 16
1.0
 26
0.0
 36
0.0
 17
0.0
 27
1.0
 37
0.0
 76
1
330
17
  0
LAYOUT
  5
1E
330
D
100
AcDbPlotSettings
  1

  4
A3
  6

 40
7.5
 41
20.0
 42
7.5
 43
20.0
 44
420.0
 45
297.0
 46
0.0
 47
0.0
 48
0.0
 49
0.0
140
0.0
141
0.0
142
1.0
143
1.0
 70
0
 72
1
 73
0
 74
5
  7

 75
16
 76
0
 77
2
 78
300
147
1.0
148
0.0
149
0.0
100
AcDbLayout
  1
Layout1
 70
1
 71
1
 10
0.0
 20
0.0
 11
420.0
 21
297.0
 12
0.0
 22
0.0
 32
0.0
 14
1e+20
 24
1e+20
 34
1e+20
 15
-1e+20
 25
-1e+20
 35
-1e+20
146
0.0
 13
0.0
 23
0.0
 33
0.0
 16
1.0
 26
0.0
 36
0.0
 17
0.0
 27
1.0
 37
0.0
 76
1
330
1B
  0
MATERIAL
  5
1F
102
{ACAD_REACTORS
330
E
102
}
330
E
100
AcDbMaterial
  1
ByBlock
  2

 70
0
 40
1.0
 71
1
 41
1.0
 91
-1023410177
 42
1.0
 72
1
  3

 73
1
 74
1
 75
1
 44
0.5
 73
0
 45
1.0
 46
1.0
 77
1
  4

 78
1
 79
1
170
1
 48
1.0
171
1
  6

172
1
173
1
174
1
140
1.0
141
1.0
175
1
  7

176
1
177
1
178
1
143
1.0
179
1
  8

270
1
271
1
272
1
145
1.0
146
1.0
273
1
  9

274
1
275
1
276
1
 42
1.0
 72
1
  3

 73
1
 74
1
 75
1
 94
63
  0
MATERIAL
  5
20
102
{ACAD_REACTORS
330
E
102
}
330
E
100
AcDbMaterial
  1
ByLayer
  2

 70
0
 40
1.0
 71
1
 41
1.0
 91
-1023410177
 42
1.0
 72
1
  3

 73
1
 74
1
 75
1
 44
0.5
 73
0
 45
1.0
 46
1.0
 77
1
  4

 78
1
 79
1
170
1
 48
1.0
171
1
  6

172
1
173
1
174
1
140
1.0
141
1.0
175
1
  7

176
1
177
1
178
1
143
1.0
179
1
  8

270
1
271
1
272
1
145
1.0
146
1.0
273
1
  9

274
1
275
1
276
1
 42
1.0
 72
1
  3

 73
1
 74
1
 75
1
 94
63
  0
MATERIAL
  5
21
102
{ACAD_REACTORS
330
E
102
}
330
E
100
AcDbMaterial
  1
Global
  2

 70
0
 40
1.0
 71
1
 41
1.0
 91
-1023410177
 42
1.0
 72
1
  3

 73
1
 74
1
 75
1
 44
0.5
 73
0
 45
1.0
 46
1.0
 77
1
  4

 78
1
 79
1
170
1
 48
1.0
171
1
  6

172
1
173
1
174
1
140
1.0
141
1.0
175
1
  7

176
1
177
1
178
1
143
1.0
179
1
  8

270
1
271
1
272
1
145
1.0
146
1.0
273
1
  9

274
1
275
1
276
1
 42
1.0
 72
1
  3

 73
1
 74
1
 75
1
 94
63
  0
MLINESTYLE
  5
22
102
{ACAD_REACTORS
330
10
102
}
330
10
100
AcDbMlineStyle
  2
Standard
 70
0
  3

 62
256
 51
90.0
 52
90.0
 71
2
 49
0.5
 62
256
  6
BYLAYER
 49
-0.5
 62
256
  6
BYLAYER
  0
MLEADERSTYLE
  5
2C
102
{ACAD_REACTORS
330
F
102
}
330
F
100
AcDbMLeaderStyle
179
2
170
2
171
1
172
0
 90
2
 40
0.0
 41
0.0
173
1
 91
-1056964608
 92
-2
290
1
 42
2.0
291
1
 43
8.0
  3
Standard
 44
4.0
300

342
29
174
1
175
1
176
0
178
1
 93
-1056964608
 45
4.0
292
0
297
0
 46
4.0
 94
-1056964608
 47
1.0
 49
1.0
140
1.0
294
1
141
0.0
177
0
142
1.0
295
0
296
0
143
3.75
271
0
272
9
273
9
  0
DICTIONARY
  5
2D
330
A
100
AcDbDictionary
280
1
281
1
  3
CREATED_BY_EZDXF
350
2E
  3
WRITTEN_BY_EZDXF
350
32
  0
DICTIONARYVAR
  5
2E
330
2D
100
DictionaryVariables
280
0
  1
1.3.5 @ 2025-08-20T01:05:14.183539+00:00
  0
DICTIONARYVAR
  5
32
330
2D
100
DictionaryVariables
280
0
  1
1.3.5 @ 2025-08-20T01:05:14.189530+00:00
  0
ENDSEC
  0
EOF
