  0
SECTION
  2
HEADER
  9
$ACADVER
  1
AC1032
  9
$ACADMAINTVER
 90
4
  9
$DWGCODEPAGE
  3
ANSI_1252
  9
$LASTSAVEDBY
  1
ezdxf
  9
$REQUIREDVERSIONS
160
0
  9
$INSBASE
 10
0.0
 20
0.0
 30
0.0
  9
$EXTMIN
 10
1e+20
 20
1e+20
 30
1e+20
  9
$EXTMAX
 10
-1e+20
 20
-1e+20
 30
-1e+20
  9
$LIMMIN
 10
0.0
 20
0.0
  9
$LIMMAX
 10
420.0
 20
297.0
  9
$ORTHOMODE
 70
0
  9
$REGENMODE
 70
1
  9
$FILLMODE
 70
1
  9
$QTEXTMODE
 70
0
  9
$MIRRTEXT
 70
1
  9
$LTSCALE
 40
1.0
  9
$ATTMODE
 70
1
  9
$TEXTSIZE
 40
2.5
  9
$TRACEWID
 40
1.0
  9
$TEXTSTYLE
  7
Standard
  9
$CLAYER
  8
0
  9
$CELTYPE
  6
ByLayer
  9
$CECOLOR
 62
256
  9
$CELTSCALE
 40
1.0
  9
$DISPSILH
 70
0
  9
$DIMSCALE
 40
1.0
  9
$DIMASZ
 40
2.5
  9
$DIMEXO
 40
0.625
  9
$DIMDLI
 40
3.75
  9
$DIMRND
 40
0.0
  9
$DIMDLE
 40
0.0
  9
$DIMEXE
 40
1.25
  9
$DIMTP
 40
0.0
  9
$DIMTM
 40
0.0
  9
$DIMTXT
 40
2.5
  9
$DIMCEN
 40
2.5
  9
$DIMTSZ
 40
0.0
  9
$DIMTOL
 70
0
  9
$DIMLIM
 70
0
  9
$DIMTIH
 70
0
  9
$DIMTOH
 70
0
  9
$DIMSE1
 70
0
  9
$DIMSE2
 70
0
  9
$DIMTAD
 70
1
  9
$DIMZIN
 70
8
  9
$DIMBLK
  1

  9
$DIMASO
 70
1
  9
$DIMSHO
 70
1
  9
$DIMPOST
  1

  9
$DIMAPOST
  1

  9
$DIMALT
 70
0
  9
$DIMALTD
 70
3
  9
$DIMALTF
 40
0.03937007874
  9
$DIMLFAC
 40
1.0
  9
$DIMTOFL
 70
1
  9
$DIMTVP
 40
0.0
  9
$DIMTIX
 70
0
  9
$DIMSOXD
 70
0
  9
$DIMSAH
 70
0
  9
$DIMBLK1
  1

  9
$DIMBLK2
  1

  9
$DIMSTYLE
  2
ISO-25
  9
$DIMCLRD
 70
0
  9
$DIMCLRE
 70
0
  9
$DIMCLRT
 70
0
  9
$DIMTFAC
 40
1.0
  9
$DIMGAP
 40
0.625
  9
$DIMJUST
 70
0
  9
$DIMSD1
 70
0
  9
$DIMSD2
 70
0
  9
$DIMTOLJ
 70
0
  9
$DIMTZIN
 70
8
  9
$DIMALTZ
 70
0
  9
$DIMALTTZ
 70
0
  9
$DIMUPT
 70
0
  9
$DIMDEC
 70
2
  9
$DIMTDEC
 70
2
  9
$DIMALTU
 70
2
  9
$DIMALTTD
 70
3
  9
$DIMTXSTY
  7
Standard
  9
$DIMAUNIT
 70
0
  9
$DIMADEC
 70
0
  9
$DIMALTRND
 40
0.0
  9
$DIMAZIN
 70
0
  9
$DIMDSEP
 70
44
  9
$DIMATFIT
 70
3
  9
$DIMFRAC
 70
0
  9
$DIMLDRBLK
  1

  9
$DIMLUNIT
 70
2
  9
$DIMLWD
 70
-2
  9
$DIMLWE
 70
-2
  9
$DIMTMOVE
 70
0
  9
$DIMFXL
 40
1.0
  9
$DIMFXLON
 70
0
  9
$DIMJOGANG
 40
0.785398163397
  9
$DIMTFILL
 70
0
  9
$DIMTFILLCLR
 70
0
  9
$DIMARCSYM
 70
0
  9
$DIMLTYPE
  6

  9
$DIMLTEX1
  6

  9
$DIMLTEX2
  6

  9
$DIMTXTDIRECTION
 70
0
  9
$LUNITS
 70
2
  9
$LUPREC
 70
4
  9
$SKETCHINC
 40
1.0
  9
$FILLETRAD
 40
10.0
  9
$AUNITS
 70
0
  9
$AUPREC
 70
2
  9
$MENU
  1
.
  9
$ELEVATION
 40
0.0
  9
$PELEVATION
 40
0.0
  9
$THICKNESS
 40
0.0
  9
$LIMCHECK
 70
0
  9
$CHAMFERA
 40
0.0
  9
$CHAMFERB
 40
0.0
  9
$CHAMFERC
 40
0.0
  9
$CHAMFERD
 40
0.0
  9
$SKPOLY
 70
0
  9
$TDCREATE
 40
2460908.0869675926
  9
$TDUCREATE
 40
2458532.153996898
  9
$TDUPDATE
 40
2460908.0869675926
  9
$TDUUPDATE
 40
2458532.1544311
  9
$TDINDWG
 40
0.0
  9
$TDUSRTIMER
 40
0.0
  9
$USRTIMER
 70
1
  9
$ANGBASE
 50
0.0
  9
$ANGDIR
 70
0
  9
$PDMODE
 70
0
  9
$PDSIZE
 40
0.0
  9
$PLINEWID
 40
0.0
  9
$SPLFRAME
 70
0
  9
$SPLINETYPE
 70
6
  9
$SPLINESEGS
 70
8
  9
$HANDSEED
  5
33
  9
$SURFTAB1
 70
6
  9
$SURFTAB2
 70
6
  9
$SURFTYPE
 70
6
  9
$SURFU
 70
6
  9
$SURFV
 70
6
  9
$UCSBASE
  2

  9
$UCSNAME
  2

  9
$UCSORG
 10
0.0
 20
0.0
 30
0.0
  9
$UCSXDIR
 10
1.0
 20
0.0
 30
0.0
  9
$UCSYDIR
 10
0.0
 20
1.0
 30
0.0
  9
$UCSORTHOREF
  2

  9
$UCSORTHOVIEW
 70
0
  9
$UCSORGTOP
 10
0.0
 20
0.0
 30
0.0
  9
$UCSORGBOTTOM
 10
0.0
 20
0.0
 30
0.0
  9
$UCSORGLEFT
 10
0.0
 20
0.0
 30
0.0
  9
$UCSORGRIGHT
 10
0.0
 20
0.0
 30
0.0
  9
$UCSORGFRONT
 10
0.0
 20
0.0
 30
0.0
  9
$UCSORGBACK
 10
0.0
 20
0.0
 30
0.0
  9
$PUCSBASE
  2

  9
$PUCSNAME
  2

  9
$PUCSORG
 10
0.0
 20
0.0
 30
0.0
  9
$PUCSXDIR
 10
1.0
 20
0.0
 30
0.0
  9
$PUCSYDIR
 10
0.0
 20
1.0
 30
0.0
  9
$PUCSORTHOREF
  2

  9
$PUCSORTHOVIEW
 70
0
  9
$PUCSORGTOP
 10
0.0
 20
0.0
 30
0.0
  9
$PUCSORGBOTTOM
 10
0.0
 20
0.0
 30
0.0
  9
$PUCSORGLEFT
 10
0.0
 20
0.0
 30
0.0
  9
$PUCSORGRIGHT
 10
0.0
 20
0.0
 30
0.0
  9
$PUCSORGFRONT
 10
0.0
 20
0.0
 30
0.0
  9
$PUCSORGBACK
 10
0.0
 20
0.0
 30
0.0
  9
$USERI1
 70
0
  9
$USERI2
 70
0
  9
$USERI3
 70
0
  9
$USERI4
 70
0
  9
$USERI5
 70
0
  9
$USERR1
 40
0.0
  9
$USERR2
 40
0.0
  9
$USERR3
 40
0.0
  9
$USERR4
 40
0.0
  9
$USERR5
 40
0.0
  9
$WORLDVIEW
 70
1
  9
$SHADEDGE
 70
3
  9
$SHADEDIF
 70
70
  9
$TILEMODE
 70
1
  9
$MAXACTVP
 70
64
  9
$PINSBASE
 10
0.0
 20
0.0
 30
0.0
  9
$PLIMCHECK
 70
0
  9
$PEXTMIN
 10
1e+20
 20
1e+20
 30
1e+20
  9
$PEXTMAX
 10
-1e+20
 20
-1e+20
 30
-1e+20
  9
$PLIMMIN
 10
0.0
 20
0.0
  9
$PLIMMAX
 10
420.0
 20
297.0
  9
$UNITMODE
 70
0
  9
$VISRETAIN
 70
1
  9
$PLINEGEN
 70
0
  9
$PSLTSCALE
 70
1
  9
$TREEDEPTH
 70
3020
  9
$CMLSTYLE
  2
Standard
  9
$CMLJUST
 70
0
  9
$CMLSCALE
 40
20.0
  9
$PROXYGRAPHICS
 70
1
  9
$MEASUREMENT
 70
1
  9
$CELWEIGHT
370
-1
  9
$ENDCAPS
280
0
  9
$JOINSTYLE
280
0
  9
$LWDISPLAY
290
0
  9
$INSUNITS
 70
6
  9
$HYPERLINKBASE
  1

  9
$STYLESHEET
  1

  9
$XEDIT
290
1
  9
$CEPSNTYPE
380
0
  9
$PSTYLEMODE
290
1
  9
$FINGERPRINTGUID
  2
{E145F92D-83DA-4058-B2FF-A05E749171FE}
  9
$VERSIONGUID
  2
{AD48406C-0AE7-446B-BAD1-D3AB117AFD63}
  9
$EXTNAMES
290
1
  9
$PSVPSCALE
 40
0.0
  9
$OLESTARTUP
290
0
  9
$SORTENTS
280
127
  9
$INDEXCTL
280
0
  9
$HIDETEXT
280
1
  9
$XCLIPFRAME
280
1
  9
$HALOGAP
280
0
  9
$OBSCOLOR
 70
257
  9
$OBSLTYPE
280
0
  9
$INTERSECTIONDISPLAY
280
0
  9
$INTERSECTIONCOLOR
 70
257
  9
$DIMASSOC
280
2
  9
$PROJECTNAME
  1

  9
$CAMERADISPLAY
290
0
  9
$LENSLENGTH
 40
50.0
  9
$CAMERAHEIGHT
 40
0.0
  9
$STEPSPERSEC
 40
24.0
  9
$STEPSIZE
 40
100.0
  9
$3DDWFPREC
 40
2.0
  9
$PSOLWIDTH
 40
0.005
  9
$PSOLHEIGHT
 40
0.08
  9
$LOFTANG1
 40
1.570796326795
  9
$LOFTANG2
 40
1.570796326795
  9
$LOFTMAG1
 40
0.0
  9
$LOFTMAG2
 40
0.0
  9
$LOFTPARAM
 70
7
  9
$LOFTNORMALS
280
1
  9
$LATITUDE
 40
37.795
  9
$LONGITUDE
 40
-122.394
  9
$NORTHDIRECTION
 40
0.0
  9
$TIMEZONE
 70
-8000
  9
$LIGHTGLYPHDISPLAY
280
1
  9
$TILEMODELIGHTSYNCH
280
1
  9
$CMATERIAL
347
20
  9
$SOLIDHIST
280
0
  9
$SHOWHIST
280
1
  9
$DWFFRAME
280
2
  9
$DGNFRAME
280
2
  9
$REALWORLDSCALE
290
1
  9
$INTERFERECOLOR
 62
256
  9
$CSHADOW
280
0
  9
$SHADOWPLANELOCATION
 40
0.0
  0
ENDSEC
  0
SECTION
  2
CLASSES
  0
CLASS
  1
ACDBDICTIONARYWDFLT
  2
AcDbDictionaryWithDefault
  3
ObjectDBX Classes
 90
0
 91
0
280
0
281
0
  0
CLASS
  1
SUN
  2
AcDbSun
  3
SCENEOE
 90
1153
 91
0
280
0
281
0
  0
CLASS
  1
VISUALSTYLE
  2
AcDbVisualStyle
  3
ObjectDBX Classes
 90
4095
 91
0
280
0
281
0
  0
CLASS
  1
MATERIAL
  2
AcDbMaterial
  3
ObjectDBX Classes
 90
1153
 91
0
280
0
281
0
  0
CLASS
  1
SCALE
  2
AcDbScale
  3
ObjectDBX Classes
 90
1153
 91
0
280
0
281
0
  0
CLASS
  1
TABLESTYLE
  2
AcDbTableStyle
  3
ObjectDBX Classes
 90
4095
 91
0
280
0
281
0
  0
CLASS
  1
MLEADERSTYLE
  2
AcDbMLeaderStyle
  3
ACDB_MLEADERSTYLE_CLASS
 90
4095
 91
0
280
0
281
0
  0
CLASS
  1
DICTIONARYVAR
  2
AcDbDictionaryVar
  3
ObjectDBX Classes
 90
0
 91
0
280
0
281
0
  0
CLASS
  1
CELLSTYLEMAP
  2
AcDbCellStyleMap
  3
ObjectDBX Classes
 90
1152
 91
0
280
0
281
0
  0
CLASS
  1
MENTALRAYRENDERSETTINGS
  2
AcDbMentalRayRenderSettings
  3
SCENEOE
 90
1024
 91
0
280
0
281
0
  0
CLASS
  1
ACDBDETAILVIEWSTYLE
  2
AcDbDetailViewStyle
  3
ObjectDBX Classes
 90
1025
 91
0
280
0
281
0
  0
CLASS
  1
ACDBSECTIONVIEWSTYLE
  2
AcDbSectionViewStyle
  3
ObjectDBX Classes
 90
1025
 91
0
280
0
281
0
  0
CLASS
  1
RASTERVARIABLES
  2
AcDbRasterVariables
  3
ISM
 90
0
 91
0
280
0
281
0
  0
CLASS
  1
LAYOUT
  2
AcDbLayout
  3
ObjectDBX Classes
 90
0
 91
0
280
0
281
0
  0
CLASS
  1
ACDBPLACEHOLDER
  2
AcDbPlaceHolder
  3
ObjectDBX Classes
 90
0
 91
0
280
0
281
0
  0
ENDSEC
  0
SECTION
  2
TABLES
  0
TABLE
  2
VPORT
  5
8
330
0
100
AcDbSymbolTable
 70
1
  0
VPORT
  5
23
330
8
100
AcDbSymbolTableRecord
100
AcDbViewportTableRecord
  2
*Active
 70
0
 10
0.0
 20
0.0
 11
1.0
 21
1.0
 12
0.0
 22
0.0
 13
0.0
 23
0.0
 14
0.5
 24
0.5
 15
0.5
 25
0.5
 16
0.0
 26
0.0
 36
1.0
 17
0.0
 27
0.0
 37
0.0
 40
1000.0
 41
1.34
 42
50.0
 43
0.0
 44
0.0
 50
0.0
 51
0.0
 71
0
 72
1000
 73
1
 74
3
 75
0
 76
0
 77
0
 78
0
281
0
 65
0
146
0.0
  0
ENDTAB
  0
TABLE
  2
LTYPE
  5
2
330
0
100
AcDbSymbolTable
 70
3
  0
LTYPE
  5
24
330
2
100
AcDbSymbolTableRecord
100
AcDbLinetypeTableRecord
  2
ByBlock
 70
0
  3

 72
65
 73
0
 40
0.0
  0
LTYPE
  5
25
330
2
100
AcDbSymbolTableRecord
100
AcDbLinetypeTableRecord
  2
ByLayer
 70
0
  3

 72
65
 73
0
 40
0.0
  0
LTYPE
  5
26
330
2
100
AcDbSymbolTableRecord
100
AcDbLinetypeTableRecord
  2
Continuous
 70
0
  3

 72
65
 73
0
 40
0.0
  0
ENDTAB
  0
TABLE
  2
LAYER
  5
1
330
0
100
AcDbSymbolTable
 70
2
  0
LAYER
  5
27
330
1
100
AcDbSymbolTableRecord
100
AcDbLayerTableRecord
  2
0
 70
0
 62
7
  6
Continuous
370
-3
390
13
347
21
  0
LAYER
  5
28
330
1
100
AcDbSymbolTableRecord
100
AcDbLayerTableRecord
  2
Defpoints
 70
0
 62
7
  6
Continuous
290
0
370
-3
390
13
347
21
  0
ENDTAB
  0
TABLE
  2
STYLE
  5
5
330
0
100
AcDbSymbolTable
 70
1
  0
STYLE
  5
29
330
5
100
AcDbSymbolTableRecord
100
AcDbTextStyleTableRecord
  2
Standard
 70
0
 40
0.0
 41
1.0
 50
0.0
 71
0
 42
2.5
  3
txt
  4

  0
ENDTAB
  0
TABLE
  2
VIEW
  5
7
330
0
100
AcDbSymbolTable
 70
0
  0
ENDTAB
  0
TABLE
  2
UCS
  5
6
330
0
100
AcDbSymbolTable
 70
0
  0
ENDTAB
  0
TABLE
  2
APPID
  5
3
330
0
100
AcDbSymbolTable
 70
3
  0
APPID
  5
2A
330
3
100
AcDbSymbolTableRecord
100
AcDbRegAppTableRecord
  2
ACAD
 70
0
  0
APPID
  5
30
330
3
100
AcDbSymbolTableRecord
100
AcDbRegAppTableRecord
  2
HATCHBACKGROUNDCOLOR
 70
0
  0
APPID
  5
31
330
3
100
AcDbSymbolTableRecord
100
AcDbRegAppTableRecord
  2
EZDXF
 70
0
  0
ENDTAB
  0
TABLE
  2
DIMSTYLE
  5
4
330
0
100
AcDbSymbolTable
 70
1
100
AcDbDimStyleTable
  0
DIMSTYLE
105
2B
330
4
100
AcDbSymbolTableRecord
100
AcDbDimStyleTableRecord
  2
Standard
 70
0
 40
1.0
 41
2.5
 42
0.625
 43
3.75
 44
1.25
 45
0.0
 46
0.0
 47
0.0
 48
0.0
 49
2.5
140
2.5
141
2.5
142
0.0
143
0.03937007874
144
1.0
145
0.0
146
1.0
147
0.625
148
0.0
 69
0
 70
0
 71
0
 72
0
 73
0
 74
0
 75
0
 76
0
 77
1
 78
8
 79
3
170
0
171
3
172
1
173
0
174
0
175
0
176
0
177
0
178
0
179
2
271
2
272
2
273
2
274
3
275
0
276
0
277
2
278
44
279
0
280
0
281
0
282
0
283
0
284
8
285
0
286
0
288
0
289
3
290
0
371
-2
372
-2
  0
ENDTAB
  0
TABLE
  2
BLOCK_RECORD
  5
9
330
0
100
AcDbSymbolTable
 70
2
  0
BLOCK_RECORD
  5
17
330
9
100
AcDbSymbolTableRecord
100
AcDbBlockTableRecord
  2
*Model_Space
340
1A
 70
0
280
1
281
0
  0
BLOCK_RECORD
  5
1B
330
9
100
AcDbSymbolTableRecord
100
AcDbBlockTableRecord
  2
*Paper_Space
340
1E
 70
0
280
1
281
0
  0
ENDTAB
  0
ENDSEC
  0
SECTION
  2
BLOCKS
  0
BLOCK
  5
18
330
17
100
AcDbEntity
  8
0
100
AcDbBlockBegin
  2
*Model_Space
 70
0
 10
0.0
 20
0.0
 30
0.0
  3
*Model_Space
  1

  0
ENDBLK
  5
19
330
17
100
AcDbEntity
  8
0
100
AcDbBlockEnd
  0
BLOCK
  5
1C
330
1B
100
AcDbEntity
  8
0
100
AcDbBlockBegin
  2
*Paper_Space
 70
0
 10
0.0
 20
0.0
 30
0.0
  3
*Paper_Space
  1

  0
ENDBLK
  5
1D
330
1B
100
AcDbEntity
  8
0
100
AcDbBlockEnd
  0
ENDSEC
  0
SECTION
  2
ENTITIES
  0
LWPOLYLINE
  5
2F
330
17
100
AcDbEntity
  8
0
100
AcDbPolyline
 90
721
 70
1
 10
33.318037073352194
 20
0.6464533991025689
 10
33.31708547950415
 20
0.6467831657367935
 10
33.31423262767168
 20
0.647673008812383
 10
33.309482377278016
 20
0.6489240146751676
 10
33.30278307019803
 20
0.650634675296413
 10
33.29423705782623
 20
0.6526577351471307
 10
33.283793646893265
 20
0.6550419577850439
 10
33.271404073841424
 20
0.6577366499407907
 10
33.25716779549777
 20
0.6607437413260101
 10
33.24103604830459
 20
0.6640125386713404
 10
33.22295717413671
 20
0.6676415339480464
 10
33.20303255953284
 20
0.6715332000406827
 10
33.18121247607945
 20
0.6756865720934299
 10
33.157495958920705
 20
0.68015137851983
 10
33.13188493776827
 20
0.6848281624927987
 10
33.10437748291048
 20
0.6898163808394204
 10
33.07502428761671
 20
0.6950672700019727
 10
33.043775623473415
 20
0.7005798651246353
 10
33.010630525624784
 20
0.7064038946209514
 10
32.97564065219597
 20
0.7124408665196553
 10
32.938754345061824
 20
0.7187892727920123
 10
32.89997353393397
 20
0.7253496566109379
 10
32.85939574592786
 20
0.7322234045151554
 10
32.81687276065867
 20
0.7393578935236645
 10
32.77255376336705
 20
0.7467560182039233
 10
32.726339297225906
 20
0.7544158488442928
 10
32.67827909064877
 20
0.7623383503005928
 10
32.62837314363565
 20
0.7705235225728229
 10
32.576620491330736
 20
0.7790210940745256
 10
32.52302113373402
 20
0.7878310648057011
 10
32.467577000557135
 20
0.7968539779392646
 10
32.41028616208845
 20
0.8061892903023009
 10
32.35119931159732
 20
0.8157882383370868
 10
32.29026575581439
 20
0.8256995856013455
 10
32.22748742445129
 20
0.8358238752679922
 10
32.16291211620994
 20
0.846261529019931
 10
32.0965388662345
 20
0.8570622752707042
 10
32.02837056909245
 20
0.8680769287796852
 10
31.958355566658597
 20
0.8794039815181389
 10
31.88659428061584
 20
0.890995634784162
 10
31.81298628928128
 20
0.9028996872796576
 10
31.737631049482005
 20
0.9151180687162649
 10
31.660478832804476
 20
0.9276498142381647
 10
31.58157936766222
 20
0.9404958887011761
 10
31.500883890497523
 20
0.9536055988359373
 10
31.418442129723925
 20
0.9669799094982681
 10
31.334202427216255
 20
0.9807173126594332
 10
31.248265204657407
 20
0.9947700096175297
 10
31.16058073363384
 20
1.009137035516738
 10
31.07114901414555
 20
1.023818390357058
 10
30.97997004619255
 20
1.0388140741384897
 10
30.887092593332554
 20
1.0541747801303951
 10
30.792467892007835
 20
1.0698498150634126
 10
30.696144705776117
 20
1.085889872206903
 10
30.59812399949324
 20
1.1022452231473252
 10
30.498407702870814
 20
1.1188164110575942
 10
30.397043614610755
 20
1.1357038576206138
 10
30.29398007658789
 20
1.1530060548076495
 10
30.1892170888022
 20
1.1707230026187008
 10
30.082807274234693
 20
1.188706480668961
 10
29.974749668029563
 20
1.2070062173719718
 10
29.865044270186793
 20
1.2256222127277336
 10
29.753688186138934
 20
1.2447036519768733
 10
29.64068624016509
 20
1.2640018930516794
 10
29.526086230967138
 20
1.2836173576350556
 10
29.409887193689283
 20
1.3035997741405445
 10
29.29203843506216
 20
1.323997906125869
 10
29.172640376768662
 20
1.344763954889126
 10
29.05164425525108
 20
1.3658472271609532
 10
28.929050070509398
 20
1.3872477229413507
 10
28.80490562124554
 20
1.4090658639132232
 10
28.679214766882758
 20
1.4311027364224007
 10
28.551925849295888
 20
1.4534568324401487
 10
28.4231373604562
 20
1.4761798100916488
 10
28.292849300363677
 20
1.4992716693769002
 10
28.161013870316435
 20
1.5226319886129995
 10
28.027630105458645
 20
1.5463104962134893
 10
27.892797462617377
 20
1.5703091218900076
 10
27.756464283667466
 20
1.5947263576138204
 10
27.618633463176383
 20
1.6194130181443003
 10
27.47935472955765
 20
1.6443700683372668
 10
27.33862808281126
 20
1.6695975081927201
 10
27.1964515932256
 20
1.6951947945377452
 10
27.05282526080065
 20
1.7211619273723413
 10
26.907750050392238
 20
1.7474491782829666
 10
26.761326383683272
 20
1.774008748567718
 10
26.613453838990832
 20
1.8008884369284983
 10
26.46418214472847
 20
1.828089208221127
 10
26.313563923877194
 20
1.8554628420607975
 10
26.16154848316763
 20
1.8830581020052315
 10
26.00818265644587
 20
1.9110251381508763
 10
25.853516172125452
 20
1.939364915353551
 10
25.69745150309093
 20
1.9679760470745324
 10
25.540091000736844
 20
1.996711277784832
 10
25.381430805639937
 20
2.025769521138619
 10
25.221471882655997
 20
2.055101048722352
 10
25.060213266929235
 20
2.084755588949573
 10
24.897706616584806
 20
2.114634649849016
 10
24.73395193162273
 20
2.1447382314206824
 10
24.568899483629448
 20
2.1750653688087507
 10
24.402647764576233
 20
2.2056677201384045
 10
24.235147046049537
 20
2.2365443205538234
 10
24.066448986174567
 20
2.267596678083742
 10
23.896553584951285
 20
2.29882479272816
 10
23.72551057079326
 20
2.330229629342899
 10
23.553269250431118
 20
2.3618599514856786
 10
23.379877422566764
 20
2.393816180839405
 10
23.20528825335412
 20
2.425948167307632
 10
23.02964996317799
 20
2.458308533871359
 10
22.85286695463457
 20
2.4906964371647793
 10
22.674938262868036
 20
2.5231616056014334
 10
22.49596045013801
 20
2.5558551541335897
 10
22.31593255158868
 20
2.5888268111747887
 10
22.13475800496042
 20
2.621925461772765
 10
21.952637653619043
 20
2.6550555085237115
 10
21.769423277179726
 20
2.6881643284466286
 10
21.585211437902103
 20
2.721403036493781
 10
21.399951442516816
 20
2.7548203962228914
 10
21.213743712706766
 20
2.788368608932058
 10
21.02654141462587
 20
2.8218975245248337
 10
20.83839234697603
 20
2.8555075646841215
 10
20.649294580045606
 20
2.8892981862370077
 10
20.4592529381137
 20
2.92302074711578
 10
20.268268386036137
 20
2.9566255189068964
 10
20.07643555636088
 20
2.9903630733897066
 10
19.88365595711669
 20
3.0241817524390298
 10
19.690028080274818
 20
3.058133214180048
 10
19.49555771497019
 20
3.091919088131507
 10
19.300243896346977
 20
3.125589102706948
 10
19.10408469469355
 20
3.159242714733457
 10
18.907077215442435
 20
3.193029109451661
 10
18.709324774844013
 20
3.2267513029190287
 10
18.51073177549447
 20
3.2602084517697527
 10
18.311444508066973
 20
3.2935526358119183
 10
18.111358691455344
 20
3.327030567401598
 10
17.91052791349639
 20
3.360444297740442
 10
17.7089560336134
 20
3.3935949131742813
 10
17.506740578921832
 20
3.4265838002418385
 10
17.303781127738752
 20
3.4594587576450184
 10
17.10017617203545
 20
3.4922714435090016
 10
16.895876948254188
 20
3.524971164564427
 10
16.690935114520165
 20
3.5574594288400285
 10
16.485400399246902
 20
3.589737201191625
 10
16.279223074020877
 20
3.621803516763399
 10
16.072502595669153
 20
3.653660305266989
 10
15.865139507364658
 20
3.685305636990755
 10
15.657231336222848
 20
3.716840898473421
 10
15.448779047099526
 20
3.748216361301446
 10
15.239787464273794
 20
3.779183383407116
 10
15.030254658034012
 20
3.8098414216175174
 10
14.820279120351449
 20
3.840242134057832
 10
14.609760429543199
 20
3.870433319429961
 10
14.398799972147982
 20
3.900317450618461
 10
14.187398713021626
 20
3.9298447992097887
 10
13.975557617019941
 20
3.958965636790401
 10
13.763274754431297
 20
3.987779420187384
 10
13.550598888813415
 20
4.016336842670099
 10
13.33753002016628
 20
4.044637904238546
 10
13.124120771470913
 20
4.072534384507918
 10
12.910322379169587
 20
4.099975590208852
 10
12.696185536531654
 20
4.126912757783626
 10
12.48175707740321
 20
4.153496037328686
 10
12.26698437880324
 20
4.179873649228841
 10
12.051968827270482
 20
4.205948066368644
 10
11.836668413237938
 20
4.231320496583937
 10
11.621077347570703
 20
4.2562893103559745
 10
11.405294122240035
 20
4.280906165809936
 10
11.18927093854403
 20
4.30507064126292
 10
10.973008761338509
 20
4.328733008301383
 10
10.7566041528831
 20
4.352044381877592
 10
10.54000834962007
 20
4.374954068722183
 10
10.323273974530435
 20
4.39731384845035
 10
10.106351299200645
 20
4.419122756206274
 10
9.889338815601965
 20
4.440432450115137
 10
9.672235558878576
 20
4.461292658590477
 10
9.45504442359794
 20
4.481554196391672
 10
9.237764444904235
 20
4.501266791932261
 10
9.020444386355182
 20
4.520481138481608
 10
8.803031624969778
 20
4.5393454564245195
 10
8.585631406710032
 20
4.5575633049913815
 10
8.368243731575937
 20
4.575134684182194
 10
8.150867634711679
 20
4.592109322410497
 10
7.933502151261436
 20
4.608536948089836
 10
7.716197974494571
 20
4.624368797662485
 10
7.498904411141715
 20
4.63965363468617
 10
7.281721882885786
 20
4.654343660458985
 10
7.0646523194384105
 20
4.668339418153849
 10
6.8476947559437775
 20
4.6816906361843005
 10
6.6308482275460605
 20
4.6944470429638825
 10
6.414113699101087
 20
4.706558910079054
 10
6.197592557147572
 20
4.717928710414371
 10
5.981233143560339
 20
4.728654935941094
 10
5.765083257041289
 20
4.73883800834213
 10
5.549097993455983
 20
4.748228320693949
 10
5.333374879919855
 20
4.7569272595352725
 10
5.117911021865458
 20
4.765084010106728
 10
4.902659585446706
 20
4.7725484223118695
 10
4.68772195720232
 20
4.779222969035253
 10
4.473096207420662
 20
4.785207107103959
 10
4.258734537399826
 20
4.790400414835085
 10
4.044734474255262
 20
4.794904278767358
 10
3.831048219285066
 20
4.79861827721787
 10
3.6177742644604973
 20
4.801594068311804
 10
3.4048102583870214
 20
4.803978907578148
 10
3.1922575876033554
 20
4.805675267901455
 10
2.9801201115327807
 20
4.806484235627558
 10
2.768396865319478
 20
4.806455539169996
 10
2.5571346828095285
 20
4.805739328625219
 10
2.3463345288587556
 20
4.804285875579684
 10
2.135997368322972
 20
4.802045451619847
 10
1.9261729296157282
 20
4.799019021601529
 10
1.7168095546118376
 20
4.795305077495994
 10
1.5079550420132055
 20
4.791004040986147
 10
1.2996629796566495
 20
4.785917963273637
 10
1.0919352972538163
 20
4.779947387531382
 10
0.8847700650930564
 20
4.773191770586465
 10
0.6782160467321008
 20
4.765701805708248
 10
0.472223513757402
 20
4.757476528040909
 10
0.26684122972668795
 20
4.748566630853815
 10
0.06211795819767232
 20
4.7390228074163225
 10
-0.14199216981989998
 20
4.728645179218447
 10
-0.3454394259124887
 20
4.717434711116008
 10
-0.5481789059456513
 20
4.705641010032532
 10
-0.750258408621289
 20
4.69316365428512
 10
-0.9515775122564982
 20
4.679954845171864
 10
-1.1522356736783665
 20
4.66601265298113
 10
-1.3521334360598045
 20
4.651339007424554
 10
-1.5512230006989127
 20
4.636034330185041
 10
-1.7496047892785918
 20
4.620146419964493
 10
-1.9472242491062064
 20
4.603427599551019
 10
-2.143987712489585
 20
4.586178169137512
 10
-2.3399468375539088
 20
4.568496620695237
 10
-2.5351455635778075
 20
4.550083618887121
 10
-2.729434705320649
 20
4.530942058280623
 10
-2.9228668857634377
 20
4.5112201592605485
 10
-3.1154430697619944
 20
4.490967650240441
 10
-3.3071613276046716
 20
4.470085074393217
 10
-3.4979231673202134
 20
4.448624089844055
 10
-3.6878280457357016
 20
4.426582766881319
 10
-3.876779400591509
 20
4.404112220457273
 10
-4.064775302175997
 20
4.381112993744833
 10
-4.251814785633346
 20
4.357535358330457
 10
-4.437898815819377
 20
4.333429042627689
 10
-4.622979594032185
 20
4.308894468319429
 10
-4.807106848685314
 20
4.28393067054986
 10
-4.990179193240039
 20
4.258440122203536
 10
-5.172196627696359
 20
4.232422823280458
 10
-5.353207915611998
 20
4.205828080511264
 10
-5.533164293429236
 20
4.178706587165313
 10
-5.712068655715526
 20
4.151207528483235
 10
-5.889872238913148
 20
4.123381597734391
 10
-6.066571183598825
 20
4.095029881264612
 10
-6.242215218186098
 20
4.066151414218079
 10
-6.4166541925785205
 20
4.036699362748706
 10
-6.5899904581706386
 20
4.0068209823854835
 10
-6.7622249798182645
 20
3.9765660015419533
 10
-6.933258300694321
 20
3.9459363499297524
 10
-7.103089455942987
 20
3.9148822991353405
 10
-7.271765279410342
 20
3.88325369906227
 10
-7.439239902106128
 20
3.851250428220532
 10
-7.6055162185978
 20
3.819021671850751
 10
-7.770539676192718
 20
3.786319752741035
 10
-7.934360003304424
 20
3.7531437060355652
 10
-8.096879672817472
 20
3.7195949182730663
 10
-8.25814841314541
 20
3.6856724245977173
 10
-8.418167189144052
 20
3.6514259534230606
 10
-8.576883377832393
 20
3.61670728436429
 10
-8.734298908922085
 20
3.5816158742484885
 10
-8.890413782413114
 20
3.546151723075657
 10
-9.04523185772877
 20
3.510513744499965
 10
-9.19865271318614
 20
3.474654139819509
 10
-9.350772911044855
 20
3.4384217940820228
 10
-9.501540793179728
 20
3.4017182153162415
 10
-9.650910490600504
 20
3.3647432820321543
 10
-9.798933661432354
 20
3.3275954862010253
 10
-9.945556717838466
 20
3.2900768790245047
 10
-10.090731861116936
 20
3.2522878821854984
 10
-10.234559512950662
 20
3.214276294385909
 10
-10.376940216512562
 20
3.1760440453373744
 10
-10.51787107723518
 20
3.1374419497992676
 10
-10.657354989685972
 20
3.0986191930122176
 10
-10.79539291872076
 20
3.0596255033897646
 10
-10.931983899483726
 20
3.020411152518367
 10
-11.067078203561318
 20
2.980977105253846
 10
-11.200674866097728
 20
2.941273633182656
 10
-11.33282458036231
 20
2.901349499862523
 10
-11.463427889527987
 20
2.8612066350050833
 10
-11.592486723306388
 20
2.820944495437424
 10
-11.720098608812968
 20
2.7804616946208203
 10
-11.846114360807094
 20
2.73976112712273
 10
-11.970582742846492
 20
2.698792099673792
 10
-12.093507614354438
 20
2.657753525928176
 10
-12.214888975330934
 20
2.6166454058858815
 10
-12.334675167650795
 20
2.575369247575644
 10
-12.452865226458208
 20
2.5338753225839206
 10
-12.56950791531089
 20
2.492112937641349
 10
-12.684508601660857
 20
2.4503326645272803
 10
-12.79791604906583
 20
2.4084838099723536
 10
-12.90972832781417
 20
2.366466917149483
 10
-13.019895709492339
 20
2.3242829509144878
 10
-13.128420123811967
 20
2.282031368094454
 10
-13.235299641061424
 20
2.2396127118622964
 10
-13.340535226096524
 20
2.1970767106315576
 10
-13.44412784377309
 20
2.154473092815778
 10
-13.546025835965937
 20
2.1117033664436957
 10
-13.646232097242528
 20
2.0689167167559357
 10
-13.74479249659312
 20
2.025913265242509
 10
-13.841661165027459
 20
1.9828928904134044
 10
-13.93683713768972
 20
1.939805863855081
 10
-14.03031944972408
 20
1.896602457153995
 10
-14.122058372717001
 20
1.8532836351659665
 10
-14.212104599937845
 20
1.8098981614487186
 10
-14.300411297540528
 20
1.7665961860986974
 10
-14.386976535813412
 20
1.7232782522888186
 10
-14.471800314756491
 20
1.6799443600190813
 10
-14.554933327639135
 20
1.6366432728472093
 10
-14.636275152778435
 20
1.593327192071299
 10
-14.71587744829957
 20
1.5500946096626154
 10
-14.793692415500646
 20
1.5070459473040627
 10
-14.869769782795196
 20
1.4641802401398214
 10
-14.944057892058044
 20
1.4213989961986269
 10
-15.016607436558548
 20
1.3787509790382009
 10
-15.087318959469627
 20
1.3362381183701835
 10
-15.156293847330005
 20
1.2939579413100195
 10
-15.223433608168413
 20
1.251962105982891
 10
-15.288786040686755
 20
1.2101501907058934
 10
-15.352351144885032
 20
1.1685221954790264
 10
-15.414128920763247
 20
1.1270781203022906
 10
-15.474071569619491
 20
1.08591838685859
 10
-15.532179091453768
 20
1.0450429951479248
 10
-15.588498320112164
 20
1.0043017950738482
 10
-15.64298242174859
 20
0.9638449367328062
 10
-15.695627536939764
 20
0.9234735064706304
 10
-15.746437525108975
 20
0.88338641794149
 10
-15.795408526832945
 20
0.8433847574912151
 10
-15.8425424718233
 20
0.8035679819468913
 10
-15.887839360080054
 20
0.7639360913085175
 10
-15.931248498333835
 20
0.7244403220183717
 10
-15.972871273123374
 20
0.685178201191899
 10
-16.01255560464058
 20
0.6460034381559316
 10
-16.05045260783772
 20
0.6070125951700948
 10
-16.086461861031893
 20
0.5681578735324859
 10
-16.120586258790553
 20
0.5295884584837319
 10
-16.15287359981561
 20
0.4912039283409283
 10
-16.183275120549336
 20
0.4530549763734371
 10
-16.21179468041501
 20
0.41534051623542745
 10
-16.238479113258713
 20
0.37791039783045305
 10
-16.26328062037855
 20
0.3408650428414181
 10
-16.286201131486152
 20
0.30430390809540686
 10
-16.307244506004803
 20
0.2684259072465892
 10
-16.326410743934495
 20
0.23323104029496466
 10
-16.34375150340042
 20
0.19881779921179835
 10
-16.359172151854583
 20
0.1654367557764411
 10
-16.37272627713381
 20
0.13328585878724267
 10
-16.38447325620983
 20
0.10286142752380649
 10
-16.39432038624631
 20
0.07451349059256801
 10
-16.402332833349888
 20
0.04903673775438473
 10
-16.408575763627233
 20
0.027225858770114107
 10
-16.412972876790924
 20
0.010276265276410953
 10
-16.41559802264999
 20
-0.0005697972439865199
 10
-16.410376468964515
 20
-0.31840242045350414
 10
-16.40938242146041
 20
-0.3209202372835907
 10
-16.406401243803927
 20
-0.32842395936030816
 10
-16.401436795418338
 20
-0.34071467302948716
 10
-16.39442294534117
 20
-0.3586367964655276
 10
-16.385438888427295
 20
-0.3832365560644572
 10
-16.374485068765786
 20
-0.4119271094662561
 10
-16.361541668473514
 20
-0.4431659109952926
 10
-16.34672068750321
 20
-0.476308420987156
 10
-16.32999265941355
 20
-0.5103093779016379
 10
-16.31131653949336
 20
-0.544720261161038
 10
-16.29079660884883
 20
-0.5792943584092838
 10
-16.26838699848969
 20
-0.6138317911363863
 10
-16.24409156783922
 20
-0.6481336456881766
 10
-16.217912246609053
 20
-0.6821004652375698
 10
-16.18984903479921
 20
-0.7157322497845661
 10
-16.159952625679026
 20
-0.7489802357714425
 10
-16.12817522054661
 20
-0.7817440015152949
 10
-16.09451585454615
 20
-0.8140732754296657
 10
-16.059025220946996
 20
-0.8459192939568319
 10
-16.021651661623974
 20
-0.8773805490680588
 10
-15.982396141432895
 20
-0.9084073123498041
 10
-15.941360046912493
 20
-0.9389020566866222
 10
-15.898391298254673
 20
-0.9690110727516815
 10
-15.853640045555888
 20
-0.998687526698898
 10
-15.807005867133233
 20
-1.0279792172301754
 10
-15.75853945625607
 20
-1.0568373807877907
 10
-15.70824177778021
 20
-1.0852122889582014
 10
-15.65610993713821
 20
-1.1132531269820347
 10
-15.602145864041697
 20
-1.1408604380322058
 10
-15.546345699067396
 20
-1.1682331357628843
 10
-15.488712336782768
 20
-1.195222034933443
 10
-15.429293575889714
 20
-1.2219275572267858
 10
-15.368039687974692
 20
-1.2483487377870937
 10
-15.304948743326063
 20
-1.274585033441451
 10
-15.240071435213187
 20
-1.3005876806321348
 10
-15.173406798780249
 20
-1.326406407772688
 10
-15.104954834027245
 20
-1.3520412148631102
 10
-15.034662917973176
 20
-1.3776403222882085
 10
-14.962631472300941
 20
-1.4031559313460802
 10
-14.888762005039286
 20
-1.4285363839115437
 10
-14.813153973015284
 20
-1.453783609696238
 10
-14.735755718103762
 20
-1.4789961006714287
 10
-14.656616968718257
 20
-1.5041748216929345
 10
-14.575688961301049
 20
-1.529269079491394
 10
-14.493023353977321
 20
-1.5541803820955424
 10
-14.408569453477705
 20
-1.5789574930631018
 10
-14.322425751773471
 20
-1.603652070519254
 10
-14.234542520451074
 20
-1.6282631496081794
 10
-14.144919759510518
 20
-1.652790730329878
 10
-14.053560363519257
 20
-1.6770856274437234
 10
-13.960514060890837
 20
-1.701148805805534
 10
-13.865731123211715
 20
-1.7249793005594913
 10
-13.76925934918379
 20
-1.748677533388499
 10
-13.67109873880707
 20
-1.7722435042925568
 10
-13.571253151504825
 20
-1.795478299617496
 10
-13.469770385978961
 20
-1.8184823410462208
 10
-13.366601678671758
 20
-1.8412049353093687
 10
-13.261746064727395
 20
-1.8636958108204826
 10
-13.155253272559412
 20
-1.8859559324353818
 10
-13.04712426702363
 20
-1.9079355717405244
 10
-12.937358083264234
 20
-1.9296844571494522
 10
-12.825954721281214
 20
-1.9512025886621653
 10
-12.712915145930397
 20
-1.9724402378651216
 10
-12.598288120769507
 20
-1.9934480980276827
 10
-12.48207364579854
 20
-2.0142261691498486
 10
-12.364222957459772
 20
-2.0347237579622575
 10
-12.244833582868651
 20
-2.0550422510036337
 10
-12.123856758467458
 20
-2.0751309550046146
 10
-12.001291519400365
 20
-2.095039598378743
 10
-11.877188558936743
 20
-2.1147194175682955
 10
-11.751550771644043
 20
-2.134021227332646
 10
-11.624375262954812
 20
-2.1530942129124204
 10
-11.49561037474386
 20
-2.1720368662788845
 10
-11.365406257107644
 20
-2.1908023535859553
 10
-11.233665382930713
 20
-2.209289288294907
 10
-11.10038871706889
 20
-2.2274479419921995
 10
-10.965673786637614
 20
-2.2453797012165553
 10
-10.829469898367531
 20
-2.2631333295256977
 10
-10.691778981970273
 20
-2.2806093700925416
 10
-10.552650765859388
 20
-2.2978087877729068
 10
-10.41208621489069
 20
-2.314681854153251
 10
-10.270082434496727
 20
-2.331377754474201
 10
-10.126641354389134
 20
-2.347797031908673
 10
-9.981761044856274
 20
-2.3640391432837498
 10
-9.835543857292683
 20
-2.379956833070446
 10
-9.687889370015466
 20
-2.395597899970662
 10
-9.538847311438163
 20
-2.41096330884022
 10
-9.388466445118494
 20
-2.4261037529484804
 10
-9.23669897235456
 20
-2.440918810612539
 10
-9.083592691848258
 20
-2.4555089035153004
 10
-8.929198296868956
 20
-2.469825268099042
 10
-8.773418260301206
 20
-2.4837665178250394
 10
-8.616352038972092
 20
-2.4973345824049327
 10
-8.457996738314154
 20
-2.510678647079348
 10
-8.298352358327397
 20
-2.5237987118482854
 10
-8.137418899011816
 20
-2.536694776711746
 10
-7.975248983348414
 20
-2.54921862128492
 10
-7.811844541048832
 20
-2.561270788740725
 10
-7.647151984276248
 20
-2.5730492278775103
 10
-7.481270769857745
 20
-2.5845558684069148
 10
-7.3141530990914205
 20
-2.595690288646033
 10
-7.145850630102455
 20
-2.606353996623602
 10
-6.976360468323395
 20
-2.6166961775802475
 10
-6.805730412456137
 20
-2.626817253198874
 10
-6.633912663798781
 20
-2.636616801796577
 10
-6.460910116918788
 20
-2.6459456381327295
 10
-6.286820298931596
 20
-2.6549051487460567
 10
-6.111642244981394
 20
-2.663545062050099
 10
-5.935276498241093
 20
-2.6718634483332178
 10
-5.757873208807141
 20
-2.6798134737493298
 10
-5.579384577977633
 20
-2.687294716615531
 10
-5.399810605752571
 20
-2.6943071769318214
 10
-5.219200055689674
 20
-2.700901547967562
 10
-5.0375481035098515
 20
-2.707326471790465
 10
-4.854907372194097
 20
-2.7134337280157235
 10
-4.6712319927521495
 20
-2.719023438133348
 10
-4.48652100032819
 20
-2.7241453305568806
 10
-4.300873851749302
 20
-2.728801334997961
 10
-4.114236959178665
 20
-2.733189400254939
 10
-3.9266619807414624
 20
-2.7372110343565486
 10
-3.7381489164376918
 20
-2.7408662373027908
 10
-3.5486996959789945
 20
-2.7440555522665804
 10
-3.3583133545095474
 20
-2.7468287076614604
 10
-3.167087419144799
 20
-2.7492870900261535
 10
-2.9749243627693063
 20
-2.751329312821937
 10
-2.781925571921784
 20
-2.752857848933364
 10
-2.588090081746421
 20
-2.7539224267739786
 10
-2.393416927387397
 20
-2.754572774757322
 10
-2.197857345286984
 20
-2.7547581996140322
 10
-2.0015624503974547
 20
-2.7543821390844836
 10
-1.804483479161081
 20
-2.753393899899315
 10
-1.6065649140294038
 20
-2.752090887683959
 10
-1.407907176685332
 20
-2.750425303736514
 10
-1.2085657846773195
 20
-2.7480997424315454
 10
-1.008438386610827
 20
-2.74526145929804
 10
-0.8075737460435739
 20
-2.7419611476053607
 10
-0.6060732495142882
 20
-2.738101280238062
 10
-0.40383840505170193
 20
-2.733630199070962
 10
-0.2009686694828992
 20
-2.7285498338157
 10
0.002589545028938449
 20
-2.723058133270626
 10
0.20678458035863168
 20
-2.7170566054644736
 10
0.4115618838135425
 20
-2.7102975731853527
 10
0.6169740783746628
 20
-2.7029292568180696
 10
0.8229752950517375
 20
-2.695151534872613
 10
1.0295129108637608
 20
-2.686816186964176
 10
1.2366356893684602
 20
-2.6778725198233966
 10
1.4442958318639245
 20
-2.668420955133179
 10
1.6524894789268856
 20
-2.658262579239354
 10
1.8612166305573363
 20
-2.6473973921419205
 10
2.0704314177650156
 20
-2.6360252723508686
 10
2.2800850769921976
 20
-2.624196913135561
 10
2.4902263717966115
 20
-2.611861621226633
 10
2.700802679197247
 20
-2.5988711762392795
 10
2.9118159289057512
 20
-2.5853250350005847
 10
3.1232661209221195
 20
-2.5712231975105486
 10
3.335103526832812
 20
-2.556566628624991
 10
3.5473252520703706
 20
-2.5412061431032833
 10
3.75993322634643
 20
-2.525241197772512
 10
3.972831852257192
 20
-2.5088726359984848
 10
4.186119621773911
 20
-2.492048799656021
 10
4.39969418350205
 20
-2.4746224332161306
 10
4.613606230710974
 20
-2.4566423002365387
 10
4.827756306573591
 20
-2.4381103304288834
 10
5.042195104359267
 20
-2.4190752873508874
 10
5.25692165921218
 20
-2.3994874425890087
 10
5.471837479161069
 20
-2.3793984542684288
 10
5.686994222331117
 20
-2.3589068143604126
 10
5.902390923866494
 20
-2.337962794451417
 10
6.117927162084307
 20
-2.3165185958395407
 10
6.33365363025391
 20
-2.2946229820825046
 10
6.549522529673406
 20
-2.2723763748632138
 10
6.765579729333051
 20
-2.2495788956716796
 10
6.98172770211741
 20
-2.226331931046625
 10
7.197968377738112
 20
-2.2027349378151353
 10
7.414300791339347
 20
-2.1787381875636678
 10
7.630723013209465
 20
-2.154242223465138
 10
7.847236973060119
 20
-2.129346502346631
 10
8.06374514377585
 20
-2.10415241074687
 10
8.280295324058569
 20
-2.0785595269829504
 10
8.49684068006219
 20
-2.0527180011513195
 10
8.713378317219258
 20
-2.02647864801135
 10
8.929907270673942
 20
-1.9997917391494997
 10
9.146429470137894
 20
-1.972756731392853
 10
9.362848353351483
 20
-1.9455247396936766
 10
9.57921364872825
 20
-1.9180947991961497
 10
9.795472733287196
 20
-1.8903186895154669
 10
10.011626571884142
 20
-1.8622461390651683
 10
10.227675164519084
 20
-1.8338771478452554
 10
10.443619476047843
 20
-1.8052614442692698
 10
10.659359084787518
 20
-1.7763512296353081
 10
10.874944684007472
 20
-1.7471952675010944
 10
11.09032751014997
 20
-1.7178442511359895
 10
11.305559221340207
 20
-1.6883966725112582
 10
11.520536501327811
 20
-1.658655547684371
 10
11.735260314968608
 20
-1.6286706050688697
 10
11.949785214955233
 20
-1.598689521876647
 10
12.164005955325694
 20
-1.5684158573380873
 10
12.377921571224158
 20
-1.5377998830396493
 10
12.591587580199095
 20
-1.5071390046067665
 10
12.804906455135052
 20
-1.4765346085781628
 10
13.01792213531066
 20
-1.445687359616765
 10
13.230585857168188
 20
-1.414647950991935
 10
13.442847892294104
 20
-1.3834173475594918
 10
13.654759898813591
 20
-1.352094041290701
 10
13.866273113168909
 20
-1.3207287254549245
 10
14.07738850021589
 20
-1.2893711284657041
 10
14.288054401829354
 20
-1.2579227583517754
 10
14.498268888297657
 20
-1.226284158286053
 10
14.708034854188261
 20
-1.1946045135091647
 10
14.917352299501166
 20
-1.16288382402111
 10
15.126122732265102
 20
-1.1311737479470705
 10
15.334445609307162
 20
-1.0994723555754067
 10
15.542218579232795
 20
-1.0676323913771313
 10
15.749442606897823
 20
-1.0357035837657864
 10
15.95612251658134
 20
-1.0039345748090838
 10
16.162257343427537
 20
-0.9722756360934804
 10
16.367745700897686
 20
-0.9406292405035315
 10
16.572688010674682
 20
-0.9090431867411402
 10
16.776983851075634
 20
-0.8774696761044027
 10
16.980682950514066
 20
-0.8459077437375004
 10
17.183737510288104
 20
-0.8144578113233365
 10
17.386097801984178
 20
-0.7831208437177314
 10
17.58781548372749
 20
-0.7519953328919494
 10
17.78878820412347
 20
-0.7209340233170035
 10
17.989115419999234
 20
-0.6899349852812539
 10
18.18869670967186
 20
-0.6589504200827976
 10
18.387537862276265
 20
-0.6282786982028887
 10
18.58558914939891
 20
-0.5979207844973464
 10
18.782944238731965
 20
-0.5675763787732782
 10
18.979452980178976
 20
-0.5371986471845996
 10
19.1752225494136
 20
-0.507183487328011
 10
19.370152524752914
 20
-0.4774831005016088
 10
19.56423904677365
 20
-0.4478985730512232
 10
19.757482115475803
 20
-0.4184299049768551
 10
19.9498826957152
 20
-0.3891268246920463
 10
20.14144561177093
 20
-0.36023797426450854
 10
20.33206947710428
 20
-0.3316658265787962
 10
20.521850853974858
 20
-0.3032592666826433
 10
20.710690285555597
 20
-0.2750202242876889
 10
20.898589701558134
 20
-0.24704815622101756
 10
21.085551031694102
 20
-0.21944251930971406
 10
21.271572346251858
 20
-0.19210385672669372
 10
21.45660391681787
 20
-0.16503313332777614
 10
21.64069740151731
 20
-0.13832884108422625
 10
21.823753343523112
 20
-0.11199290970768316
 10
22.00581857668133
 20
-0.08587518910170068
 10
22.1867936441649
 20
-0.05997760897791762
 10
22.366829660926086
 20
-0.034396731595959996
 10
22.545729643022348
 20
-0.009235873206190733
 10
22.72359304728079
 20
0.015506895903029444
 10
22.900418908845573
 20
0.03988130414524254
 10
23.076105841177977
 20
0.06398487863589433
 10
23.250654809133827
 20
0.0877678909614424
 10
23.424166234396026
 20
0.11118254241998354
 10
23.596491896579774
 20
0.13417621003051705
 10
23.767683453810236
 20
0.1566504018217774
 10
23.93768828310642
 20
0.1787533381785722
 10
24.106555148026054
 20
0.2005357123702634
 10
24.274235285011393
 20
0.22194683112748884
 10
24.440728694062468
 20
0.24298669445024892
 10
24.605988541333183
 20
0.2635051522420969
 10
24.770061660669615
 20
0.28365235459947935
 10
24.932849560100497
 20
0.3033766433972146
 10
25.09440003832775
 20
0.32277844031820724
 10
25.254715989918804
 20
0.34170856012182993
 10
25.413748651315966
 20
0.3601163095387212
 10
25.571495127951756
 20
0.3781508738095076
 10
25.7279554198262
 20
0.3958122529341897
 10
25.883129526939268
 20
0.41310044691276676
 10
26.036919922175528
 20
0.42991406920651554
 10
26.1894279920737
 20
0.44615559269999033
 10
26.34059918394116
 20
0.4620726946050833
 10
26.490384734220154
 20
0.4776146816524323
 10
26.638834371324258
 20
0.49278251869785733
 10
26.785900296551542
 20
0.5074757840584538
 10
26.931531816632656
 20
0.5217432412919445
 10
27.075827423538865
 20
0.5356365485235111
 10
27.218690555010546
 20
0.5490045908008875
 10
27.36011928133605
 20
0.5619468249511579
 10
27.500114567371217
 20
0.5744135225607806
 10
27.63867351854856
 20
0.5865538688703823
 10
27.77579806457973
 20
0.5982684070528782
 10
27.911438477051206
 20
0.6095561722524488
 10
28.045595720818774
 20
0.6203674360555522
 10
28.17831855944017
 20
0.6307528917315497
 10
28.309506571232493
 20
0.6407603379823447
 10
28.439159756195746
 20
0.6503897748079375
 10
28.567328807599278
 20
0.6595924386506048
 10
28.694014690298925
 20
0.6683186010968049
 10
28.81911505290014
 20
0.6767155176755251
 10
28.942679623816446
 20
0.684784153242585
 10
29.064711297615325
 20
0.692375322557358
 10
29.1851593810274
 20
0.6995377891775666
 10
29.304021944341045
 20
0.7063710099302956
 10
29.421350645681432
 20
0.7127764928442798
 10
29.537046993077293
 20
0.7187025797943377
 10
29.651158785230546
 20
0.7242496924633738
 10
29.763685057285354
 20
0.7294675592649299
 10
29.874576080828188
 20
0.7343552153431869
 10
29.983833785570685
 20
0.7388132038710601
 10
30.09145720665701
 20
0.7428912532620917
 10
30.197444414375553
 20
0.7466888203433663
 10
30.301796373582114
 20
0.7501561767013418
 10
30.40446528557478
 20
0.7531929006531137
 10
30.505451150353576
 20
0.7557989921986822
 10
30.604799836908747
 20
0.758174329848036
 10
30.70246258168257
 20
0.7602682203318134
 10
30.79843938467507
 20
0.7620806636500144
 10
30.892731210742042
 20
0.7635619313890964
 10
30.985288331469942
 20
0.7647110586932401
 10
31.076160475272324
 20
0.765529010418265
 10
31.165295984024006
 20
0.7661142785354361
 10
31.252696787436626
 20
0.7663674062176691
 10
31.33836095579854
 20
0.7663878502920483
 10
31.422340147234934
 20
0.7660771187873086
 10
31.504532975207084
 20
0.7655327388188956
 10
31.584988203272705
 20
0.7648054036561711
 10
31.663657067874095
 20
0.7638444200297736
 10
31.740590262280584
 20
0.7626010243819796
 10
31.815736128367014
 20
0.761173708684055
 10
31.889146324258565
 20
0.7594639809647343
 10
31.96071849856069
 20
0.7576190967530053
 10
32.03055307295629
 20
0.755591257346965
 10
32.09855059061828
 20
0.7533785330349739
 10
32.16476077996022
 20
0.7509818886728523
 10
32.22918364098207
 20
0.7484013242605995
 10
32.291818208828055
 20
0.7456865682117578
 10
32.35261571994043
 20
0.7427869272569659
 10
32.41157424460756
 20
0.739801858223308
 10
32.46874447609879
 20
0.7366825975530615
 10
32.52407572114479
 20
0.7334779088039489
 10
32.57756894460136
 20
0.7301380635624283
 10
32.62922318161268
 20
0.7267127902420418
 10
32.679039397034586
 20
0.7231523604292472
 10
32.727016626011235
 20
0.7195065025375865
 10
32.773152938831
 20
0.7158746733941446
 10
32.81740053679197
 20
0.7121564513160172
 10
32.859857911865426
 20
0.7084034944283858
 10
32.9003749139549
 20
0.7046626365773342
 10
32.939101693156864
 20
0.7008870439167784
 10
32.97593879264421
 20
0.6970747867350795
 10
33.01088428270533
 20
0.6933253218593222
 10
33.04398885660954
 20
0.6895898857317834
 10
33.07520278594333
 20
0.685867513496644
 10
33.10452414099505
 20
0.6822576619809883
 10
33.132004579889895
 20
0.6786618392135514
 10
33.15759244450266
 20
0.6751785371655984
 10
33.18128869968919
 20
0.6717580274235868
 10
33.20309141573784
 20
0.6684997668146014
 10
33.2230015575044
 20
0.6653540269250998
 10
33.24106788854664
 20
0.6623715010244439
 10
33.25719095203743
 20
0.6595502594009945
 10
33.27141951153454
 20
0.6569409953241137
 10
33.28380329545146
 20
0.6545446736496208
 10
33.29424284696115
 20
0.6523593646658767
 10
33.30278596476549
 20
0.650485490055786
 10
33.30948334213384
 20
0.6488742862616252
 10
33.31423359252749
 20
0.6476232803988407
 10
33.31708547950415
 20
0.6467831657367935
 10
33.318037073352194
 20
0.6464533991025689
  0
ENDSEC
  0
SECTION
  2
OBJECTS
  0
DICTIONARY
  5
A
330
0
100
AcDbDictionary
280
0
281
1
  3
ACAD_COLOR
350
B
  3
ACAD_GROUP
350
C
  3
ACAD_LAYOUT
350
D
  3
ACAD_MATERIAL
350
E
  3
ACAD_MLEADERSTYLE
350
F
  3
ACAD_MLINESTYLE
350
10
  3
ACAD_PLOTSETTINGS
350
11
  3
ACAD_PLOTSTYLENAME
350
12
  3
ACAD_SCALELIST
350
14
  3
ACAD_TABLESTYLE
350
15
  3
ACAD_VISUALSTYLE
350
16
  3
EZDXF_META
350
2D
  0
DICTIONARY
  5
B
330
A
100
AcDbDictionary
280
0
281
1
  0
DICTIONARY
  5
C
330
A
100
AcDbDictionary
280
0
281
1
  0
DICTIONARY
  5
D
330
A
100
AcDbDictionary
280
0
281
1
  3
Model
350
1A
  3
Layout1
350
1E
  0
DICTIONARY
  5
E
330
A
100
AcDbDictionary
280
0
281
1
  3
ByBlock
350
1F
  3
ByLayer
350
20
  3
Global
350
21
  0
DICTIONARY
  5
F
330
A
100
AcDbDictionary
280
0
281
1
  3
Standard
350
2C
  0
DICTIONARY
  5
10
330
A
100
AcDbDictionary
280
0
281
1
  3
Standard
350
22
  0
DICTIONARY
  5
11
330
A
100
AcDbDictionary
280
0
281
1
  0
ACDBDICTIONARYWDFLT
  5
12
330
A
100
AcDbDictionary
280
0
281
1
  3
Normal
350
13
100
AcDbDictionaryWithDefault
340
13
  0
ACDBPLACEHOLDER
  5
13
330
12
  0
DICTIONARY
  5
14
330
A
100
AcDbDictionary
280
0
281
1
  0
DICTIONARY
  5
15
330
A
100
AcDbDictionary
280
0
281
1
  0
DICTIONARY
  5
16
330
A
100
AcDbDictionary
280
0
281
1
  0
LAYOUT
  5
1A
330
D
100
AcDbPlotSettings
  1

  4
A3
  6

 40
7.5
 41
20.0
 42
7.5
 43
20.0
 44
420.0
 45
297.0
 46
0.0
 47
0.0
 48
0.0
 49
0.0
140
0.0
141
0.0
142
1.0
143
1.0
 70
1024
 72
1
 73
0
 74
5
  7

 75
16
 76
0
 77
2
 78
300
147
1.0
148
0.0
149
0.0
100
AcDbLayout
  1
Model
 70
1
 71
0
 10
0.0
 20
0.0
 11
420.0
 21
297.0
 12
0.0
 22
0.0
 32
0.0
 14
1e+20
 24
1e+20
 34
1e+20
 15
-1e+20
 25
-1e+20
 35
-1e+20
146
0.0
 13
0.0
 23
0.0
 33
0.0
 16
1.0
 26
0.0
 36
0.0
 17
0.0
 27
1.0
 37
0.0
 76
1
330
17
  0
LAYOUT
  5
1E
330
D
100
AcDbPlotSettings
  1

  4
A3
  6

 40
7.5
 41
20.0
 42
7.5
 43
20.0
 44
420.0
 45
297.0
 46
0.0
 47
0.0
 48
0.0
 49
0.0
140
0.0
141
0.0
142
1.0
143
1.0
 70
0
 72
1
 73
0
 74
5
  7

 75
16
 76
0
 77
2
 78
300
147
1.0
148
0.0
149
0.0
100
AcDbLayout
  1
Layout1
 70
1
 71
1
 10
0.0
 20
0.0
 11
420.0
 21
297.0
 12
0.0
 22
0.0
 32
0.0
 14
1e+20
 24
1e+20
 34
1e+20
 15
-1e+20
 25
-1e+20
 35
-1e+20
146
0.0
 13
0.0
 23
0.0
 33
0.0
 16
1.0
 26
0.0
 36
0.0
 17
0.0
 27
1.0
 37
0.0
 76
1
330
1B
  0
MATERIAL
  5
1F
102
{ACAD_REACTORS
330
E
102
}
330
E
100
AcDbMaterial
  1
ByBlock
  2

 70
0
 40
1.0
 71
1
 41
1.0
 91
-1023410177
 42
1.0
 72
1
  3

 73
1
 74
1
 75
1
 44
0.5
 73
0
 45
1.0
 46
1.0
 77
1
  4

 78
1
 79
1
170
1
 48
1.0
171
1
  6

172
1
173
1
174
1
140
1.0
141
1.0
175
1
  7

176
1
177
1
178
1
143
1.0
179
1
  8

270
1
271
1
272
1
145
1.0
146
1.0
273
1
  9

274
1
275
1
276
1
 42
1.0
 72
1
  3

 73
1
 74
1
 75
1
 94
63
  0
MATERIAL
  5
20
102
{ACAD_REACTORS
330
E
102
}
330
E
100
AcDbMaterial
  1
ByLayer
  2

 70
0
 40
1.0
 71
1
 41
1.0
 91
-1023410177
 42
1.0
 72
1
  3

 73
1
 74
1
 75
1
 44
0.5
 73
0
 45
1.0
 46
1.0
 77
1
  4

 78
1
 79
1
170
1
 48
1.0
171
1
  6

172
1
173
1
174
1
140
1.0
141
1.0
175
1
  7

176
1
177
1
178
1
143
1.0
179
1
  8

270
1
271
1
272
1
145
1.0
146
1.0
273
1
  9

274
1
275
1
276
1
 42
1.0
 72
1
  3

 73
1
 74
1
 75
1
 94
63
  0
MATERIAL
  5
21
102
{ACAD_REACTORS
330
E
102
}
330
E
100
AcDbMaterial
  1
Global
  2

 70
0
 40
1.0
 71
1
 41
1.0
 91
-1023410177
 42
1.0
 72
1
  3

 73
1
 74
1
 75
1
 44
0.5
 73
0
 45
1.0
 46
1.0
 77
1
  4

 78
1
 79
1
170
1
 48
1.0
171
1
  6

172
1
173
1
174
1
140
1.0
141
1.0
175
1
  7

176
1
177
1
178
1
143
1.0
179
1
  8

270
1
271
1
272
1
145
1.0
146
1.0
273
1
  9

274
1
275
1
276
1
 42
1.0
 72
1
  3

 73
1
 74
1
 75
1
 94
63
  0
MLINESTYLE
  5
22
102
{ACAD_REACTORS
330
10
102
}
330
10
100
AcDbMlineStyle
  2
Standard
 70
0
  3

 62
256
 51
90.0
 52
90.0
 71
2
 49
0.5
 62
256
  6
BYLAYER
 49
-0.5
 62
256
  6
BYLAYER
  0
MLEADERSTYLE
  5
2C
102
{ACAD_REACTORS
330
F
102
}
330
F
100
AcDbMLeaderStyle
179
2
170
2
171
1
172
0
 90
2
 40
0.0
 41
0.0
173
1
 91
-1056964608
 92
-2
290
1
 42
2.0
291
1
 43
8.0
  3
Standard
 44
4.0
300

342
29
174
1
175
1
176
0
178
1
 93
-1056964608
 45
4.0
292
0
297
0
 46
4.0
 94
-1056964608
 47
1.0
 49
1.0
140
1.0
294
1
141
0.0
177
0
142
1.0
295
0
296
0
143
3.75
271
0
272
9
273
9
  0
DICTIONARY
  5
2D
330
A
100
AcDbDictionary
280
1
281
1
  3
CREATED_BY_EZDXF
350
2E
  3
WRITTEN_BY_EZDXF
350
32
  0
DICTIONARYVAR
  5
2E
330
2D
100
DictionaryVariables
280
0
  1
1.3.5 @ 2025-08-20T01:05:14.745866+00:00
  0
DICTIONARYVAR
  5
32
330
2D
100
DictionaryVariables
280
0
  1
1.3.5 @ 2025-08-20T01:05:14.751224+00:00
  0
ENDSEC
  0
EOF
