  0
SECTION
  2
HEADER
  9
$ACADVER
  1
AC1032
  9
$ACADMAINTVER
 90
4
  9
$DWGCODEPAGE
  3
ANSI_1252
  9
$LASTSAVEDBY
  1
ezdxf
  9
$REQUIREDVERSIONS
160
0
  9
$INSBASE
 10
0.0
 20
0.0
 30
0.0
  9
$EXTMIN
 10
1e+20
 20
1e+20
 30
1e+20
  9
$EXTMAX
 10
-1e+20
 20
-1e+20
 30
-1e+20
  9
$LIMMIN
 10
0.0
 20
0.0
  9
$LIMMAX
 10
420.0
 20
297.0
  9
$ORTHOMODE
 70
0
  9
$REGENMODE
 70
1
  9
$FILLMODE
 70
1
  9
$QTEXTMODE
 70
0
  9
$MIRRTEXT
 70
1
  9
$LTSCALE
 40
1.0
  9
$ATTMODE
 70
1
  9
$TEXTSIZE
 40
2.5
  9
$TRACEWID
 40
1.0
  9
$TEXTSTYLE
  7
Standard
  9
$CLAYER
  8
0
  9
$CELTYPE
  6
ByLayer
  9
$CECOLOR
 62
256
  9
$CELTSCALE
 40
1.0
  9
$DISPSILH
 70
0
  9
$DIMSCALE
 40
1.0
  9
$DIMASZ
 40
2.5
  9
$DIMEXO
 40
0.625
  9
$DIMDLI
 40
3.75
  9
$DIMRND
 40
0.0
  9
$DIMDLE
 40
0.0
  9
$DIMEXE
 40
1.25
  9
$DIMTP
 40
0.0
  9
$DIMTM
 40
0.0
  9
$DIMTXT
 40
2.5
  9
$DIMCEN
 40
2.5
  9
$DIMTSZ
 40
0.0
  9
$DIMTOL
 70
0
  9
$DIMLIM
 70
0
  9
$DIMTIH
 70
0
  9
$DIMTOH
 70
0
  9
$DIMSE1
 70
0
  9
$DIMSE2
 70
0
  9
$DIMTAD
 70
1
  9
$DIMZIN
 70
8
  9
$DIMBLK
  1

  9
$DIMASO
 70
1
  9
$DIMSHO
 70
1
  9
$DIMPOST
  1

  9
$DIMAPOST
  1

  9
$DIMALT
 70
0
  9
$DIMALTD
 70
3
  9
$DIMALTF
 40
0.03937007874
  9
$DIMLFAC
 40
1.0
  9
$DIMTOFL
 70
1
  9
$DIMTVP
 40
0.0
  9
$DIMTIX
 70
0
  9
$DIMSOXD
 70
0
  9
$DIMSAH
 70
0
  9
$DIMBLK1
  1

  9
$DIMBLK2
  1

  9
$DIMSTYLE
  2
ISO-25
  9
$DIMCLRD
 70
0
  9
$DIMCLRE
 70
0
  9
$DIMCLRT
 70
0
  9
$DIMTFAC
 40
1.0
  9
$DIMGAP
 40
0.625
  9
$DIMJUST
 70
0
  9
$DIMSD1
 70
0
  9
$DIMSD2
 70
0
  9
$DIMTOLJ
 70
0
  9
$DIMTZIN
 70
8
  9
$DIMALTZ
 70
0
  9
$DIMALTTZ
 70
0
  9
$DIMUPT
 70
0
  9
$DIMDEC
 70
2
  9
$DIMTDEC
 70
2
  9
$DIMALTU
 70
2
  9
$DIMALTTD
 70
3
  9
$DIMTXSTY
  7
Standard
  9
$DIMAUNIT
 70
0
  9
$DIMADEC
 70
0
  9
$DIMALTRND
 40
0.0
  9
$DIMAZIN
 70
0
  9
$DIMDSEP
 70
44
  9
$DIMATFIT
 70
3
  9
$DIMFRAC
 70
0
  9
$DIMLDRBLK
  1

  9
$DIMLUNIT
 70
2
  9
$DIMLWD
 70
-2
  9
$DIMLWE
 70
-2
  9
$DIMTMOVE
 70
0
  9
$DIMFXL
 40
1.0
  9
$DIMFXLON
 70
0
  9
$DIMJOGANG
 40
0.785398163397
  9
$DIMTFILL
 70
0
  9
$DIMTFILLCLR
 70
0
  9
$DIMARCSYM
 70
0
  9
$DIMLTYPE
  6

  9
$DIMLTEX1
  6

  9
$DIMLTEX2
  6

  9
$DIMTXTDIRECTION
 70
0
  9
$LUNITS
 70
2
  9
$LUPREC
 70
4
  9
$SKETCHINC
 40
1.0
  9
$FILLETRAD
 40
10.0
  9
$AUNITS
 70
0
  9
$AUPREC
 70
2
  9
$MENU
  1
.
  9
$ELEVATION
 40
0.0
  9
$PELEVATION
 40
0.0
  9
$THICKNESS
 40
0.0
  9
$LIMCHECK
 70
0
  9
$CHAMFERA
 40
0.0
  9
$CHAMFERB
 40
0.0
  9
$CHAMFERC
 40
0.0
  9
$CHAMFERD
 40
0.0
  9
$SKPOLY
 70
0
  9
$TDCREATE
 40
2460908.0869675926
  9
$TDUCREATE
 40
2458532.153996898
  9
$TDUPDATE
 40
2460908.0869675926
  9
$TDUUPDATE
 40
2458532.1544311
  9
$TDINDWG
 40
0.0
  9
$TDUSRTIMER
 40
0.0
  9
$USRTIMER
 70
1
  9
$ANGBASE
 50
0.0
  9
$ANGDIR
 70
0
  9
$PDMODE
 70
0
  9
$PDSIZE
 40
0.0
  9
$PLINEWID
 40
0.0
  9
$SPLFRAME
 70
0
  9
$SPLINETYPE
 70
6
  9
$SPLINESEGS
 70
8
  9
$HANDSEED
  5
33
  9
$SURFTAB1
 70
6
  9
$SURFTAB2
 70
6
  9
$SURFTYPE
 70
6
  9
$SURFU
 70
6
  9
$SURFV
 70
6
  9
$UCSBASE
  2

  9
$UCSNAME
  2

  9
$UCSORG
 10
0.0
 20
0.0
 30
0.0
  9
$UCSXDIR
 10
1.0
 20
0.0
 30
0.0
  9
$UCSYDIR
 10
0.0
 20
1.0
 30
0.0
  9
$UCSORTHOREF
  2

  9
$UCSORTHOVIEW
 70
0
  9
$UCSORGTOP
 10
0.0
 20
0.0
 30
0.0
  9
$UCSORGBOTTOM
 10
0.0
 20
0.0
 30
0.0
  9
$UCSORGLEFT
 10
0.0
 20
0.0
 30
0.0
  9
$UCSORGRIGHT
 10
0.0
 20
0.0
 30
0.0
  9
$UCSORGFRONT
 10
0.0
 20
0.0
 30
0.0
  9
$UCSORGBACK
 10
0.0
 20
0.0
 30
0.0
  9
$PUCSBASE
  2

  9
$PUCSNAME
  2

  9
$PUCSORG
 10
0.0
 20
0.0
 30
0.0
  9
$PUCSXDIR
 10
1.0
 20
0.0
 30
0.0
  9
$PUCSYDIR
 10
0.0
 20
1.0
 30
0.0
  9
$PUCSORTHOREF
  2

  9
$PUCSORTHOVIEW
 70
0
  9
$PUCSORGTOP
 10
0.0
 20
0.0
 30
0.0
  9
$PUCSORGBOTTOM
 10
0.0
 20
0.0
 30
0.0
  9
$PUCSORGLEFT
 10
0.0
 20
0.0
 30
0.0
  9
$PUCSORGRIGHT
 10
0.0
 20
0.0
 30
0.0
  9
$PUCSORGFRONT
 10
0.0
 20
0.0
 30
0.0
  9
$PUCSORGBACK
 10
0.0
 20
0.0
 30
0.0
  9
$USERI1
 70
0
  9
$USERI2
 70
0
  9
$USERI3
 70
0
  9
$USERI4
 70
0
  9
$USERI5
 70
0
  9
$USERR1
 40
0.0
  9
$USERR2
 40
0.0
  9
$USERR3
 40
0.0
  9
$USERR4
 40
0.0
  9
$USERR5
 40
0.0
  9
$WORLDVIEW
 70
1
  9
$SHADEDGE
 70
3
  9
$SHADEDIF
 70
70
  9
$TILEMODE
 70
1
  9
$MAXACTVP
 70
64
  9
$PINSBASE
 10
0.0
 20
0.0
 30
0.0
  9
$PLIMCHECK
 70
0
  9
$PEXTMIN
 10
1e+20
 20
1e+20
 30
1e+20
  9
$PEXTMAX
 10
-1e+20
 20
-1e+20
 30
-1e+20
  9
$PLIMMIN
 10
0.0
 20
0.0
  9
$PLIMMAX
 10
420.0
 20
297.0
  9
$UNITMODE
 70
0
  9
$VISRETAIN
 70
1
  9
$PLINEGEN
 70
0
  9
$PSLTSCALE
 70
1
  9
$TREEDEPTH
 70
3020
  9
$CMLSTYLE
  2
Standard
  9
$CMLJUST
 70
0
  9
$CMLSCALE
 40
20.0
  9
$PROXYGRAPHICS
 70
1
  9
$MEASUREMENT
 70
1
  9
$CELWEIGHT
370
-1
  9
$ENDCAPS
280
0
  9
$JOINSTYLE
280
0
  9
$LWDISPLAY
290
0
  9
$INSUNITS
 70
6
  9
$HYPERLINKBASE
  1

  9
$STYLESHEET
  1

  9
$XEDIT
290
1
  9
$CEPSNTYPE
380
0
  9
$PSTYLEMODE
290
1
  9
$FINGERPRINTGUID
  2
{7981EA19-EAC3-48AB-B9BF-94DA84D02349}
  9
$VERSIONGUID
  2
{820314D4-4F7C-4463-B26B-91126DF47CA5}
  9
$EXTNAMES
290
1
  9
$PSVPSCALE
 40
0.0
  9
$OLESTARTUP
290
0
  9
$SORTENTS
280
127
  9
$INDEXCTL
280
0
  9
$HIDETEXT
280
1
  9
$XCLIPFRAME
280
1
  9
$HALOGAP
280
0
  9
$OBSCOLOR
 70
257
  9
$OBSLTYPE
280
0
  9
$INTERSECTIONDISPLAY
280
0
  9
$INTERSECTIONCOLOR
 70
257
  9
$DIMASSOC
280
2
  9
$PROJECTNAME
  1

  9
$CAMERADISPLAY
290
0
  9
$LENSLENGTH
 40
50.0
  9
$CAMERAHEIGHT
 40
0.0
  9
$STEPSPERSEC
 40
24.0
  9
$STEPSIZE
 40
100.0
  9
$3DDWFPREC
 40
2.0
  9
$PSOLWIDTH
 40
0.005
  9
$PSOLHEIGHT
 40
0.08
  9
$LOFTANG1
 40
1.570796326795
  9
$LOFTANG2
 40
1.570796326795
  9
$LOFTMAG1
 40
0.0
  9
$LOFTMAG2
 40
0.0
  9
$LOFTPARAM
 70
7
  9
$LOFTNORMALS
280
1
  9
$LATITUDE
 40
37.795
  9
$LONGITUDE
 40
-122.394
  9
$NORTHDIRECTION
 40
0.0
  9
$TIMEZONE
 70
-8000
  9
$LIGHTGLYPHDISPLAY
280
1
  9
$TILEMODELIGHTSYNCH
280
1
  9
$CMATERIAL
347
20
  9
$SOLIDHIST
280
0
  9
$SHOWHIST
280
1
  9
$DWFFRAME
280
2
  9
$DGNFRAME
280
2
  9
$REALWORLDSCALE
290
1
  9
$INTERFERECOLOR
 62
256
  9
$CSHADOW
280
0
  9
$SHADOWPLANELOCATION
 40
0.0
  0
ENDSEC
  0
SECTION
  2
CLASSES
  0
CLASS
  1
ACDBDICTIONARYWDFLT
  2
AcDbDictionaryWithDefault
  3
ObjectDBX Classes
 90
0
 91
0
280
0
281
0
  0
CLASS
  1
SUN
  2
AcDbSun
  3
SCENEOE
 90
1153
 91
0
280
0
281
0
  0
CLASS
  1
VISUALSTYLE
  2
AcDbVisualStyle
  3
ObjectDBX Classes
 90
4095
 91
0
280
0
281
0
  0
CLASS
  1
MATERIAL
  2
AcDbMaterial
  3
ObjectDBX Classes
 90
1153
 91
0
280
0
281
0
  0
CLASS
  1
SCALE
  2
AcDbScale
  3
ObjectDBX Classes
 90
1153
 91
0
280
0
281
0
  0
CLASS
  1
TABLESTYLE
  2
AcDbTableStyle
  3
ObjectDBX Classes
 90
4095
 91
0
280
0
281
0
  0
CLASS
  1
MLEADERSTYLE
  2
AcDbMLeaderStyle
  3
ACDB_MLEADERSTYLE_CLASS
 90
4095
 91
0
280
0
281
0
  0
CLASS
  1
DICTIONARYVAR
  2
AcDbDictionaryVar
  3
ObjectDBX Classes
 90
0
 91
0
280
0
281
0
  0
CLASS
  1
CELLSTYLEMAP
  2
AcDbCellStyleMap
  3
ObjectDBX Classes
 90
1152
 91
0
280
0
281
0
  0
CLASS
  1
MENTALRAYRENDERSETTINGS
  2
AcDbMentalRayRenderSettings
  3
SCENEOE
 90
1024
 91
0
280
0
281
0
  0
CLASS
  1
ACDBDETAILVIEWSTYLE
  2
AcDbDetailViewStyle
  3
ObjectDBX Classes
 90
1025
 91
0
280
0
281
0
  0
CLASS
  1
ACDBSECTIONVIEWSTYLE
  2
AcDbSectionViewStyle
  3
ObjectDBX Classes
 90
1025
 91
0
280
0
281
0
  0
CLASS
  1
RASTERVARIABLES
  2
AcDbRasterVariables
  3
ISM
 90
0
 91
0
280
0
281
0
  0
CLASS
  1
LAYOUT
  2
AcDbLayout
  3
ObjectDBX Classes
 90
0
 91
0
280
0
281
0
  0
CLASS
  1
ACDBPLACEHOLDER
  2
AcDbPlaceHolder
  3
ObjectDBX Classes
 90
0
 91
0
280
0
281
0
  0
ENDSEC
  0
SECTION
  2
TABLES
  0
TABLE
  2
VPORT
  5
8
330
0
100
AcDbSymbolTable
 70
1
  0
VPORT
  5
23
330
8
100
AcDbSymbolTableRecord
100
AcDbViewportTableRecord
  2
*Active
 70
0
 10
0.0
 20
0.0
 11
1.0
 21
1.0
 12
0.0
 22
0.0
 13
0.0
 23
0.0
 14
0.5
 24
0.5
 15
0.5
 25
0.5
 16
0.0
 26
0.0
 36
1.0
 17
0.0
 27
0.0
 37
0.0
 40
1000.0
 41
1.34
 42
50.0
 43
0.0
 44
0.0
 50
0.0
 51
0.0
 71
0
 72
1000
 73
1
 74
3
 75
0
 76
0
 77
0
 78
0
281
0
 65
0
146
0.0
  0
ENDTAB
  0
TABLE
  2
LTYPE
  5
2
330
0
100
AcDbSymbolTable
 70
3
  0
LTYPE
  5
24
330
2
100
AcDbSymbolTableRecord
100
AcDbLinetypeTableRecord
  2
ByBlock
 70
0
  3

 72
65
 73
0
 40
0.0
  0
LTYPE
  5
25
330
2
100
AcDbSymbolTableRecord
100
AcDbLinetypeTableRecord
  2
ByLayer
 70
0
  3

 72
65
 73
0
 40
0.0
  0
LTYPE
  5
26
330
2
100
AcDbSymbolTableRecord
100
AcDbLinetypeTableRecord
  2
Continuous
 70
0
  3

 72
65
 73
0
 40
0.0
  0
ENDTAB
  0
TABLE
  2
LAYER
  5
1
330
0
100
AcDbSymbolTable
 70
2
  0
LAYER
  5
27
330
1
100
AcDbSymbolTableRecord
100
AcDbLayerTableRecord
  2
0
 70
0
 62
7
  6
Continuous
370
-3
390
13
347
21
  0
LAYER
  5
28
330
1
100
AcDbSymbolTableRecord
100
AcDbLayerTableRecord
  2
Defpoints
 70
0
 62
7
  6
Continuous
290
0
370
-3
390
13
347
21
  0
ENDTAB
  0
TABLE
  2
STYLE
  5
5
330
0
100
AcDbSymbolTable
 70
1
  0
STYLE
  5
29
330
5
100
AcDbSymbolTableRecord
100
AcDbTextStyleTableRecord
  2
Standard
 70
0
 40
0.0
 41
1.0
 50
0.0
 71
0
 42
2.5
  3
txt
  4

  0
ENDTAB
  0
TABLE
  2
VIEW
  5
7
330
0
100
AcDbSymbolTable
 70
0
  0
ENDTAB
  0
TABLE
  2
UCS
  5
6
330
0
100
AcDbSymbolTable
 70
0
  0
ENDTAB
  0
TABLE
  2
APPID
  5
3
330
0
100
AcDbSymbolTable
 70
3
  0
APPID
  5
2A
330
3
100
AcDbSymbolTableRecord
100
AcDbRegAppTableRecord
  2
ACAD
 70
0
  0
APPID
  5
30
330
3
100
AcDbSymbolTableRecord
100
AcDbRegAppTableRecord
  2
HATCHBACKGROUNDCOLOR
 70
0
  0
APPID
  5
31
330
3
100
AcDbSymbolTableRecord
100
AcDbRegAppTableRecord
  2
EZDXF
 70
0
  0
ENDTAB
  0
TABLE
  2
DIMSTYLE
  5
4
330
0
100
AcDbSymbolTable
 70
1
100
AcDbDimStyleTable
  0
DIMSTYLE
105
2B
330
4
100
AcDbSymbolTableRecord
100
AcDbDimStyleTableRecord
  2
Standard
 70
0
 40
1.0
 41
2.5
 42
0.625
 43
3.75
 44
1.25
 45
0.0
 46
0.0
 47
0.0
 48
0.0
 49
2.5
140
2.5
141
2.5
142
0.0
143
0.03937007874
144
1.0
145
0.0
146
1.0
147
0.625
148
0.0
 69
0
 70
0
 71
0
 72
0
 73
0
 74
0
 75
0
 76
0
 77
1
 78
8
 79
3
170
0
171
3
172
1
173
0
174
0
175
0
176
0
177
0
178
0
179
2
271
2
272
2
273
2
274
3
275
0
276
0
277
2
278
44
279
0
280
0
281
0
282
0
283
0
284
8
285
0
286
0
288
0
289
3
290
0
371
-2
372
-2
  0
ENDTAB
  0
TABLE
  2
BLOCK_RECORD
  5
9
330
0
100
AcDbSymbolTable
 70
2
  0
BLOCK_RECORD
  5
17
330
9
100
AcDbSymbolTableRecord
100
AcDbBlockTableRecord
  2
*Model_Space
340
1A
 70
0
280
1
281
0
  0
BLOCK_RECORD
  5
1B
330
9
100
AcDbSymbolTableRecord
100
AcDbBlockTableRecord
  2
*Paper_Space
340
1E
 70
0
280
1
281
0
  0
ENDTAB
  0
ENDSEC
  0
SECTION
  2
BLOCKS
  0
BLOCK
  5
18
330
17
100
AcDbEntity
  8
0
100
AcDbBlockBegin
  2
*Model_Space
 70
0
 10
0.0
 20
0.0
 30
0.0
  3
*Model_Space
  1

  0
ENDBLK
  5
19
330
17
100
AcDbEntity
  8
0
100
AcDbBlockEnd
  0
BLOCK
  5
1C
330
1B
100
AcDbEntity
  8
0
100
AcDbBlockBegin
  2
*Paper_Space
 70
0
 10
0.0
 20
0.0
 30
0.0
  3
*Paper_Space
  1

  0
ENDBLK
  5
1D
330
1B
100
AcDbEntity
  8
0
100
AcDbBlockEnd
  0
ENDSEC
  0
SECTION
  2
ENTITIES
  0
LWPOLYLINE
  5
2F
330
17
100
AcDbEntity
  8
0
100
AcDbPolyline
 90
721
 70
1
 10
50.718866094772885
 20
4.245270584113225
 10
50.71738344499693
 20
4.2456800944439195
 10
50.71294816811857
 20
4.2467572258357205
 10
50.70558560903681
 20
4.2481991790880596
 10
50.695207395502024
 20
4.2501510175764725
 10
50.68198393578873
 20
4.2523983143500335
 10
50.665833193872054
 20
4.255010432984136
 10
50.64668580617656
 20
4.257905337453884
 10
50.624693172302585
 20
4.2610957002087835
 10
50.59978592867473
 20
4.264499485223941
 10
50.57187570304333
 20
4.268261755874885
 10
50.5411265674582
 20
4.272243785010841
 10
50.507462822119145
 20
4.276439236407051
 10
50.47087813080148
 20
4.28092380986366
 10
50.43138516595465
 20
4.285546105780385
 10
50.388971255129206
 20
4.290457523757511
 10
50.34371843434999
 20
4.2955887002196445
 10
50.2955510038169
 20
4.300933298942036
 10
50.24446262730516
 20
4.3065670197248265
 10
50.19054167706444
 20
4.312344799192485
 10
50.133699780845056
 20
4.318411700720541
 10
50.073949611096545
 20
4.324616324708714
 10
50.011429894969666
 20
4.33112274320679
 10
49.94591986928877
 20
4.337836247740372
 10
49.87764663345427
 20
4.3447758469837146
 10
49.806458787865864
 20
4.351928868487315
 10
49.732432032323715
 20
4.359301648475923
 10
49.65556636682782
 20
4.366894186949543
 10
49.57585545515342
 20
4.374782183708314
 10
49.49329929730054
 20
4.3829656387522355
 10
49.40791056571864
 20
4.391293152481024
 10
49.319676587958234
 20
4.399916124494966
 10
49.22867940004425
 20
4.408765191218669
 10
49.13483696595174
 20
4.417909716227522
 10
49.03816195813026
 20
4.427198299921245
 10
48.938717403930404
 20
4.43678867812487
 10
48.836496967127424
 20
4.446756550638541
 10
48.731519656395605
 20
4.456874818061832
 10
48.62369709948529
 20
4.467288543770273
 10
48.513187032221495
 20
4.47793470041323
 10
48.399831718779204
 20
4.488876315341338
 10
48.28378255875871
 20
4.500126061004101
 10
48.164963852359854
 20
4.511677601176769
 10
48.04345129938275
 20
4.5235372720840905
 10
47.91917553625206
 20
4.535623037701177
 10
47.792212262767926
 20
4.547941234252777
 10
47.662473106680665
 20
4.56063692511442
 10
47.53011580381532
 20
4.573647082935473
 10
47.39506465437176
 20
4.586965371491182
 10
47.25731965834998
 20
4.600591790781547
 10
47.11688081574997
 20
4.614526340806565
 10
46.97381749014717
 20
4.628851057591136
 10
46.82806031796612
 20
4.643483905110362
 10
46.67967866278226
 20
4.658506919389137
 10
46.52867886082031
 20
4.673844400627322
 10
46.375073584529794
 20
4.689344949224631
 10
46.21892586126133
 20
4.705166301006101
 10
46.06014731876531
 20
4.721453519347263
 10
45.89873795704169
 20
4.7382066042481155
 10
45.73479248456489
 20
4.755204792532986
 10
45.56830456511017
 20
4.772523784002019
 10
45.399274198677496
 20
4.790163578655212
 10
45.22768237659265
 20
4.808351275892991
 10
45.05356077997935
 20
4.826708376714646
 10
44.87697243618827
 20
4.845392616945216
 10
44.69791100899465
 20
4.86447969638484
 10
44.51629446237359
 20
4.884038978608908
 10
44.3322805321501
 20
4.904007436266781
 10
44.14579985474884
 20
4.924303033333568
 10
43.95685243016978
 20
4.944925769809268
 10
43.76550128576358
 20
4.966033381518919
 10
43.571771766429215
 20
4.98732306926195
 10
43.37557549991707
 20
5.008939896413895
 10
43.177057549602644
 20
5.030972235224398
 10
42.97621791548596
 20
5.053420085693461
 10
42.77299357021638
 20
5.076125711996049
 10
42.567378177569154
 20
5.099164813932303
 10
42.359523137144556
 20
5.122550063951727
 10
42.14934007669293
 20
5.146426525429849
 10
41.93684800488856
 20
5.170567098966251
 10
41.722122621531575
 20
5.19497812078568
 10
41.50516392662196
 20
5.219659590888139
 10
41.28595924771024
 20
5.244762908873909
 10
41.064508584796386
 20
5.270288074742991
 10
40.84081827410517
 20
5.296159388695243
 10
40.61504605146162
 20
5.32231382338003
 10
40.387034181040704
 20
5.348814406147986
 10
40.15685836264255
 20
5.375667473223866
 10
39.92461330474158
 20
5.402652261431996
 10
39.69021697131287
 20
5.429838134347765
 10
39.45372605348233
 20
5.457458527596351
 10
39.215216251050094
 20
5.485519777402507
 10
38.97454883686538
 20
5.513857811716444
 10
38.73189421920274
 20
5.542258203587242
 10
38.48722705316315
 20
5.571023752215468
 10
38.24055367497136
 20
5.60007875780098
 10
37.99186774840265
 20
5.62949892014392
 10
37.74125764570662
 20
5.659139175868757
 10
37.48872336688329
 20
5.6889995249754906
 10
37.23418921213253
 20
5.719073631239369
 10
36.97780024482986
 20
5.749449866910038
 10
36.719480765175135
 20
5.780121895762747
 10
36.459319145418014
 20
5.810944654421963
 10
36.197315385558475
 20
5.841918142887686
 10
35.93354518539668
 20
5.873048697384672
 10
35.66792650890773
 20
5.904405681488305
 10
35.40052238344225
 20
5.936146831023624
 10
35.13127611787437
 20
5.968038710365451
 10
34.860408475379764
 20
6.000176027988183
 10
34.58779340125716
 20
6.032243312241754
 10
34.31342455928179
 20
6.064316262926301
 10
34.037434340379676
 20
6.096634651891754
 10
33.75981640832609
 20
6.129274178938256
 10
33.480438372194975
 20
6.161995072215876
 10
33.19961570363643
 20
6.194671277023343
 10
32.91712763947479
 20
6.227208084886257
 10
32.633106570636045
 20
6.259845267654547
 10
32.34747046109533
 20
6.2926521889036025
 10
32.060377046677665
 20
6.325565821282786
 10
31.77176963625717
 20
6.358352729166921
 10
31.481711257184486
 20
6.391170648381042
 10
31.1901892370101
 20
6.424170978525436
 10
30.897235256857776
 20
6.45697522059939
 10
30.602855652952275
 20
6.489507674802768
 10
30.307170143770104
 20
6.5221595125857785
 10
30.010033665935758
 20
6.554842361698776
 10
29.711591282824735
 20
6.587644594391406
 10
29.41188101178558
 20
6.6201120118628225
 10
29.11089651659351
 20
6.652320313913164
 10
28.808625124799043
 20
6.684420900142714
 10
28.505047827727903
 20
6.716640869951898
 10
28.200341369879403
 20
6.748690096589654
 10
27.89437969655226
 20
6.780253108405914
 10
27.587370898472642
 20
6.811576013475356
 10
27.279131894916503
 20
6.843024638349183
 10
26.969763730582997
 20
6.874302520051584
 10
26.65929175037113
 20
6.90510685938199
 10
26.347854681431674
 20
6.935601728390192
 10
26.03529478793961
 20
6.965850154426823
 10
25.721757133270454
 20
6.995940509741533
 10
25.40717235384883
 20
7.025790758309427
 10
25.09162882192437
 20
7.055255836754971
 10
24.775202237297226
 20
7.084342081302921
 10
24.45781690016725
 20
7.113043155728525
 10
24.139624210134723
 20
7.141371732481287
 10
23.82047276759937
 20
7.169315139111699
 10
23.500501299711967
 20
7.1970374476695556
 10
23.17971614269727
 20
7.224462958354711
 10
22.858148977679033
 20
7.251213172166456
 10
22.53578713220775
 20
7.277439488705077
 10
22.21277566965896
 20
7.303230280220219
 10
21.888956854207628
 20
7.328648574062518
 10
21.564494757903525
 20
7.353555643081197
 10
21.23939571697143
 20
7.377875787476115
 10
20.91366606763607
 20
7.401533307447129
 10
20.587293137447958
 20
7.424679602594522
 10
20.260346289982483
 20
7.447396708943191
 10
19.93282552523962
 20
7.46968462649313
 10
19.60482555169379
 20
7.491322592068671
 10
19.276277005769618
 20
7.512228569644923
 10
18.94726192349197
 20
7.532333195646491
 10
18.617836995986735
 20
7.551869905698554
 10
18.287907514779516
 20
7.571059462976786
 10
17.95763755192011
 20
7.589763140330406
 10
17.62700209740639
 20
7.607369003133531
 10
17.29596313388984
 20
7.624331250187011
 10
16.964665724745988
 20
7.64073825374049
 10
16.633046842624214
 20
7.656432277968936
 10
16.301112823749243
 20
7.671337623072204
 10
15.968996059047123
 20
7.685694060900225
 10
15.636627184942444
 20
7.699419555428104
 10
15.304100909909629
 20
7.7122933434801695
 10
14.971341534148513
 20
7.72430908883167
 10
14.638494121034652
 20
7.735555163732253
 10
14.30555233434327
 20
7.7461072679820555
 10
13.972535182748642
 20
7.755738302180657
 10
13.639436330026003
 20
7.764523966128198
 10
13.306325139750747
 20
7.772546295849572
 10
12.973106903448477
 20
7.780026054520451
 10
12.63997103806798
 20
7.786521715789489
 10
12.306917543609272
 20
7.792033279656691
 10
11.97394008384759
 20
7.796636445922193
 10
11.64103232255818
 20
7.80040691438614
 10
11.308276295765952
 20
7.803275321473143
 10
10.975589967445993
 20
7.80531103075859
 10
10.643131073423344
 20
7.8064510148918425
 10
10.310912286147516
 20
7.806543874272621
 10
9.978927269393749
 20
7.805665308701066
 10
9.647169686937296
 20
7.803891017977317
 10
9.315645875002907
 20
7.801145302301235
 10
8.984519905640374
 20
7.797289434522041
 10
8.653703406600041
 20
7.792468478015264
 10
8.323259405232553
 20
7.7868401686059405
 10
7.993143882861526
 20
7.780019671068613
 10
7.663495566637736
 20
7.772171057453066
 10
7.334295447886937
 20
7.763521427159725
 10
7.005486835483238
 20
7.753837344563413
 10
6.67723380147642
 20
7.742980082513353
 10
6.349523673416993
 20
7.731101040609827
 10
6.022293423954303
 20
7.7180424830278
 10
5.695681780239136
 20
7.703968481817059
 10
5.369625714920865
 20
7.688721301152569
 10
5.044270291375007
 20
7.672389313283976
 10
4.719445101327025
 20
7.655186945162201
 10
4.39531421682671
 20
7.636975469636466
 10
4.07190298277307
 20
7.617452087506202
 10
3.749205062941351
 20
7.596692498571553
 10
3.427277148457441
 20
7.574930138457696
 10
3.1061255755460904
 20
7.552089307364488
 10
2.7857566804320495
 20
7.52809430549179
 10
2.466246162915465
 20
7.502951469064352
 10
2.147505650746683
 20
7.476805861457706
 10
1.8295981712763443
 20
7.449815218496885
 10
1.512624769203603
 20
7.42168307720608
 10
1.1965981169779645
 20
7.392258037985002
 10
0.8815055421499132
 20
7.361691500433939
 10
0.5674164082948489
 20
7.330065500577782
 10
0.2542550156126265
 20
7.297373702191782
 10
-0.057909272321364634
 20
7.26369814130083
 10
-0.3690070919317387
 20
7.229120853929818
 10
-0.6790887981196209
 20
7.193332704653433
 10
-0.9880786910848728
 20
7.156340029696424
 10
-1.2959327521511181
 20
7.11852766428425
 10
-1.6027140086689873
 20
7.079737872591878
 10
-1.9082647248134508
 20
7.03990762726867
 10
-2.2127363001847926
 20
6.9990242558651214
 10
-2.515977335182719
 20
6.957100430830737
 10
-2.8179248024566057
 20
6.914293887990553
 10
-3.118736437831483
 20
6.870667654695206
 10
-3.41830486038345
 20
6.825849568168738
 10
-3.716516687860734
 20
6.7803064996615054
 10
-4.0134602925129785
 20
6.7341835125490395
 10
-4.309173356791818
 20
6.687020071805738
 10
-4.603428781296826
 20
6.638835186105858
 10
-4.8963212745024025
 20
6.58984961862507
 10
-5.187857172633297
 20
6.540139069163519
 10
-5.478023803240005
 20
6.489552138120919
 10
-5.766676102946992
 20
6.438177197746917
 10
-6.053965471354548
 20
6.38600157559201
 10
-6.3397595175366455
 20
6.333265043506123
 10
-6.624045569043782
 20
6.279816201888978
 10
-6.906817289651198
 20
6.22557935094043
 10
-7.188081015583652
 20
6.170630190460623
 10
-7.4677737194905065
 20
6.1151264562745915
 10
-7.745971101171897
 20
6.059061812157582
 10
-8.022509088578044
 20
6.002297530958817
 10
-8.297387681708944
 20
5.944833612678297
 10
-8.570676244139984
 20
5.886588021291127
 10
-8.842305412295783
 20
5.8276427928222
 10
-9.112294194850586
 20
5.768225026671944
 10
-9.380573228229009
 20
5.708416758865251
 10
-9.647117167532047
 20
5.647915190201554
 10
-9.912001712559835
 20
5.586713984456103
 10
-10.174993427687207
 20
5.524756450503011
 10
-10.436262721188688
 20
5.462257015293199
 10
-10.695815929289038
 20
5.399291378626809
 10
-10.953501652387976
 20
5.335872212953345
 10
-11.20931355426075
 20
5.271923818472665
 10
-11.46330832603324
 20
5.207212759559594
 10
-11.71543561280431
 20
5.142048171639449
 10
-11.96571442324823
 20
5.076657154112655
 10
-12.21403737644109
 20
5.0106675442032556
 10
-12.460480172183026
 20
4.9440730056865
 10
-12.704904083323267
 20
4.8770376106121756
 10
-12.947384809661953
 20
4.809555022755529
 10
-13.187928687423838
 20
4.741700941916703
 10
-13.426441008134518
 20
4.673254604920024
 10
-13.662934444243502
 20
4.604367411365777
 10
-13.897408995750787
 20
4.535039361253961
 10
-14.129890007555387
 20
4.465573253785141
 10
-14.360219743832266
 20
4.395906061608683
 10
-14.588530595507446
 20
4.325798012874654
 10
-14.814734190331281
 20
4.255104044207527
 10
-15.038780173402644
 20
4.184133291032618
 10
-15.260756916971177
 20
4.113030816725458
 10
-15.480563376337727
 20
4.041500158310233
 10
-15.698136524151664
 20
3.9696990516119803
 10
-15.91363409623802
 20
3.897690523981336
 10
-16.12690469299651
 20
3.825487247867804
 10
-16.337929305752883
 20
3.7528621238709583
 10
-16.546726943181383
 20
3.680042251391227
 10
-16.75330394150678
 20
3.607103330228749
 10
-16.95765396450431
 20
3.533969660583384
 10
-17.15970131237383
 20
3.4606475786798843
 10
-17.3594396488906
 20
3.3870613847181064
 10
-17.5569510100795
 20
3.3132804422734434
 10
-17.752083996340254
 20
3.2393174237953968
 10
-17.944851280122368
 20
3.16532372888425
 10
-18.135391588576613
 20
3.0911352854902163
 10
-18.323477822302575
 20
3.016771102287551
 10
-18.509179344875637
 20
2.942149143251364
 10
-18.692521501194808
 20
2.867572207582217
 10
-18.873504291260083
 20
2.7930402952801123
 10
-19.052039342821832
 20
2.718408342969519
 10
-19.228120319655286
 20
2.6436006508502956
 10
-19.40181658533584
 20
2.5685351828975476
 10
-19.573008421386977
 20
2.4936031105614878
 10
-19.741765191384083
 20
2.4187223978172225
 10
-19.908074222877655
 20
2.3437416450644677
 10
-20.071859816067548
 20
2.268667188527977
 10
-20.233134643403265
 20
2.1936504278080324
 10
-20.391886032435306
 20
2.118539963304352
 10
-20.54812031938842
 20
2.043411494817077
 10
-20.701843840487363
 20
1.9683407221463478
 10
-20.85296822348249
 20
1.8931825819166352
 10
-21.00151247704805
 20
1.8181641735283633
 10
-21.14752695608518
 20
1.742976361556213
 10
-21.290961305692754
 20
1.6679282814255032
 10
-21.431809189646007
 20
1.5929442333360926
 10
-21.570064271720202
 20
1.5179485174878384
 10
-21.70565085211518
 20
1.4429474701054956
 10
-21.83865096685585
 20
1.3680104547644505
 10
-21.969007924816317
 20
1.2933709070898824
 10
-22.096709053547087
 20
1.2188774274815064
 10
-22.221754353048144
 20
1.1445300159393235
 10
-22.344225859344398
 20
1.0703980360387224
 10
-22.463965836610807
 20
0.9964184604290665
 10
-22.581062657097018
 20
0.9227363524858861
 10
-22.695453293452392
 20
0.8495094480342168
 10
-22.807213445477075
 20
0.776731410849306
 10
-22.916254740921417
 20
0.7042571775556239
 10
-23.02265921581031
 20
0.6321561117285583
 10
-23.12627547054348
 20
0.5604408858176156
 10
-23.227267577170707
 20
0.489250226973572
 10
-23.32549047231646
 20
0.41867250744607537
 10
-23.42100718333138
 20
0.3485499914100897
 10
-23.513817710215463
 20
0.27888267886561446
 10
-23.60392205296871
 20
0.2096705698126509
 10
-23.691257184240488
 20
0.14107140007623364
 10
-23.775823104030795
 20
0.07308516965636232
 10
-23.85767650346551
 20
0.005478442927861052
 10
-23.93676069141876
 20
-0.06151534448409408
 10
-24.01305032299152
 20
-0.12819899178006855
 10
-24.086570743082817
 20
-0.19426969975949687
 10
-24.15729660679363
 20
-0.26003026762294434
 10
-24.225240586573463
 20
-0.32532929577012853
 10
-24.29040268242232
 20
-0.39016678420104967
 10
-24.35270085831531
 20
-0.4546120964910958
 10
-24.412299186302214
 20
-0.5185265054894896
 10
-24.46895155830836
 20
-0.5821181019223982
 10
-24.522897746183666
 20
-0.645254494863796
 10
-24.573980014103103
 20
-0.7079987116643192
 10
-24.622217370740927
 20
-0.7701236529235435
 10
-24.66767284344777
 20
-0.8317870544665042
 10
-24.710277068648253
 20
-0.892906880268308
 10
-24.750055391241375
 20
-0.9531803311283882
 10
-24.78706450235303
 20
-1.0128408426719224
 10
-24.821241374632574
 20
-1.071730679073875
 10
-24.852598680529518
 20
-1.1296984407339627
 10
-24.881161764942867
 20
-1.1864413284516204
 10
-24.90693062787262
 20
-1.2419593422268476
 10
-24.929993641568426
 20
-1.296107418684114
 10
-24.950231087553764
 20
-1.348494386373207
 10
-24.967744010527788
 20
-1.3988237823183143
 10
-24.98267147253815
 20
-1.4463449447427728
 10
-24.994906427557854
 20
-1.490515302596088
 10
-25.004625954983062
 20
-1.5301299953007483
 10
-25.012007134209973
 20
-1.5639841622792443
 10
-25.01705063503234
 20
-1.5902483358786752
 10
-25.019990562869133
 20
-1.607036357320258
 10
-24.98093404667918
 20
-2.0909541682945734
 10
-24.97917260301412
 20
-2.094694469831492
 10
-24.973894608243693
 20
-2.1058396746421053
 10
-24.96512540726691
 20
-2.1240869835258485
 10
-24.952681584462827
 20
-2.1507169568603723
 10
-24.93658147871194
 20
-2.1873319628981545
 10
-24.91707887390123
 20
-2.2299892758070845
 10
-24.894294493197876
 20
-2.2763358655580266
 10
-24.86846210712394
 20
-2.3254003071986458
 10
-24.83963907659909
 20
-2.3755865687012205
 10
-24.807806727845954
 20
-2.4262070156397235
 10
-24.77314814158857
 20
-2.476895821462954
 10
-24.735612962925813
 20
-2.527343850745592
 10
-24.69522653675669
 20
-2.5772483042870737
 10
-24.652001535530705
 20
-2.6264577824871145
 10
-24.605937959247864
 20
-2.6749722853457154
 10
-24.557117843933053
 20
-2.7227224492874873
 10
-24.50547816223564
 20
-2.7695505384873944
 10
-24.451012577930868
 20
-2.8155322527455784
 10
-24.393803127043636
 20
-2.86059822848665
 10
-24.333761437324295
 20
-2.90489352908614
 10
-24.270893844997595
 20
-2.948342454743907
 10
-24.20536442211333
 20
-2.990806278309173
 10
-24.136927060596815
 20
-3.0324930905081042
 10
-24.065815196073228
 20
-3.073346200214818
 10
-23.991871092717535
 20
-3.11342863477995
 10
-23.91517678655462
 20
-3.152671030628111
 10
-23.835738613809248
 20
-3.1909976879591597
 10
-23.753537565807154
 20
-3.2286357061735207
 10
-23.66858631499785
 20
-3.265433685670911
 10
-23.580859516482317
 20
-3.3016944256518967
 10
-23.490376178934824
 20
-3.3371908267160535
 10
-23.39719932970599
 20
-3.372080624688415
 10
-23.301253268995694
 20
-3.4063574833442316
 10
-23.20252532435442
 20
-3.440172802283784
 10
-23.10109753180706
 20
-3.4734572179316836
 10
-22.99696355512887
 20
-3.5062864300880734
 10
-22.89012339431984
 20
-3.5386604387529514
 10
-22.780482340905575
 20
-3.57080000710199
 10
-22.66819813071111
 20
-3.602642107784553
 10
-22.553125700360926
 20
-3.634098368550994
 10
-22.435416449455293
 20
-3.6651814618508185
 10
-22.31498200574456
 20
-3.6960364510595554
 10
-22.191898069028884
 20
-3.7266696724019583
 10
-22.066095275732863
 20
-3.7569990898531334
 10
-21.93766199810615
 20
-3.7868796400375495
 10
-21.80651620012385
 20
-3.816380686530596
 10
-21.6728029451615
 20
-3.84559060158192
 10
-21.536446533418943
 20
-3.874503048966767
 10
-21.39744696489619
 20
-3.9031180286851392
 10
-21.255823248267497
 20
-3.9312084413366106
 10
-21.111651083333
 20
-3.9587806231459353
 10
-20.964854770292565
 20
-3.9858282378883594
 10
-20.815497336496826
 20
-4.012509021388919
 10
-20.663578781945777
 20
-4.038822973647613
 10
-20.509124451538444
 20
-4.064467295463877
 10
-20.352197372625444
 20
-4.089599722662745
 10
-20.1927281816314
 20
-4.114138219219326
 10
-20.03071054233155
 20
-4.138158484933758
 10
-19.86622015452605
 20
-4.161666856030793
 10
-19.699263354439644
 20
-4.1845876327102935
 10
-19.529833805847577
 20
-4.206996514772399
 10
-19.357931508749846
 20
-4.228893502217108
 10
-19.183562799371213
 20
-4.25020289524428
 10
-19.006797041287065
 20
-4.27100672987881
 10
-18.8276342344974
 20
-4.291305006120697
 10
-18.64600501542683
 20
-4.311015687945048
 10
-18.46204811122613
 20
-4.330302847401648
 10
-18.275694158319915
 20
-4.349084448465607
 10
-18.086936820483434
 20
-4.367436190937065
 10
-17.89585813374157
 20
-4.385288711240631
 10
-17.70247710676859
 20
-4.4024149099758825
 10
-17.506774730890236
 20
-4.419041886543243
 10
-17.308662633856862
 20
-4.435314704318245
 10
-17.10837425129364
 20
-4.451176672175002
 10
-16.9057708560498
 20
-4.466463718063728
 10
-16.700858784350086
 20
-4.48110014218428
 10
-16.493776763345277
 20
-4.495250016586445
 10
-16.28444275701049
 20
-4.508982704845615
 10
-16.07286943779521
 20
-4.522146807361505
 10
-15.859132505499595
 20
-4.5347486603588685
 10
-15.643238296348393
 20
-4.546712564037563
 10
-15.425167801667348
 20
-4.558265617798014
 10
-15.20493369390596
 20
-4.5692564220399365
 10
-14.982523300614728
 20
-4.579836376363616
 10
-14.75810703006819
 20
-4.58979105381813
 10
-14.531527146441316
 20
-4.599183481754119
 10
-14.302859349534241
 20
-4.608019996396333
 10
-14.072173002922355
 20
-4.616382633769666
 10
-13.839405079255023
 20
-4.624113658049082
 10
-13.604618605882882
 20
-4.631370805059617
 10
-13.367895618830826
 20
-4.6380847112258845
 10
-13.129097390948075
 20
-4.644091304498092
 10
-12.888375321834918
 20
-4.649403257325749
 10
-12.645710402817086
 20
-4.654247669109275
 10
-12.40110263389459
 20
-4.658624539848674
 10
-12.154552015067422
 20
-4.662533869543944
 10
-11.906153254809988
 20
-4.665754895019415
 10
-11.655919025571789
 20
-4.668136216674801
 10
-11.403748282653675
 20
-4.669974297485918
 10
-11.149792425655926
 20
-4.67128180990227
 10
-10.893988427227908
 20
-4.671901018098821
 10
-10.636424659619268
 20
-4.671686858700042
 10
-10.377082114155746
 20
-4.670866431106356
 10
-10.11602381818798
 20
-4.669597471142798
 10
-9.853186744365336
 20
-4.667722242984336
 10
-9.588589901362068
 20
-4.665013647230541
 10
-9.322372016328956
 20
-4.661635755931204
 10
-9.054526753041241
 20
-4.657664268886464
 10
-8.784902711898651
 20
-4.6530865136468185
 10
-8.513733328526355
 20
-4.647845799086382
 10
-8.240955575573722
 20
-4.64178438938012
 10
-7.966569453040747
 20
-4.634902284528032
 10
-7.690644324502818
 20
-4.62728152055501
 10
-7.413148508836178
 20
-4.619300596461764
 10
-7.134176714515223
 20
-4.610738749072623
 10
-6.853678586638821
 20
-4.601286842962264
 10
-6.571647788982225
 20
-4.591020577930834
 10
-6.288235721145706
 20
-4.579952626427834
 10
-6.003341338430123
 20
-4.568379451429077
 10
-5.71705301308512
 20
-4.556155989559036
 10
-5.429370745110694
 20
-4.5432822408177085
 10
-5.140307206956353
 20
-4.529606805604813
 10
-4.849856062397346
 20
-4.51520538372049
 10
-4.55815603858445
 20
-4.500242047214527
 10
-4.265068408366882
 20
-4.484552724037137
 10
-3.9707572437944343
 20
-4.46799868703754
 10
-3.6752162086423508
 20
-4.45065563601588
 10
-3.378438966685884
 20
-4.432599270772298
 10
-3.0803561543496443
 20
-4.413747555281898
 10
-2.7812075434835615
 20
-4.393968098618658
 10
-2.4809237705122404
 20
-4.373178864757681
 10
-2.179391118287027
 20
-4.351827716275064
 10
-1.8767673226329609
 20
-4.3298516258201705
 10
-1.5731661006986954
 20
-4.306802730816906
 10
-1.2684170442096965
 20
-4.282895458216188
 10
-0.9625895167413393
 20
-4.2582118440429095
 10
-0.6558475903434231
 20
-4.232613161146295
 10
-0.34804620164041633
 20
-4.206011037276697
 10
-0.03933675023259581
 20
-4.1784181448836195
 10
0.270381808579183
 20
-4.150130946942877
 10
0.581021102545277
 20
-4.121004380078938
 10
0.8924737507417859
 20
-4.090666281515849
 10
1.2048344616431017
 20
-4.059337414429281
 10
1.5180528803480957
 20
-4.0273269142445525
 10
1.8320342983823692
 20
-3.994414017785992
 10
2.1468480793213147
 20
-3.9605166890287054
 10
2.4624311958142844
 20
-3.925792663797727
 10
2.7787583029622804
 20
-3.8899391428924934
 10
3.095829400765301
 20
-3.8529561263130008
 10
3.4135941343222123
 20
-3.81515274948457
 10
3.7319831400576207
 20
-3.776611048432096
 10
4.051065781546922
 20
-3.7372489871306818
 10
4.370747350315714
 20
-3.696845802404658
 10
4.691040518813503
 20
-3.6555528938543054
 10
5.011945287040291
 20
-3.6133702614796266
 10
5.333385955195932
 20
-3.570304241505372
 10
5.655343514606171
 20
-3.526127734531118
 10
5.977830637720515
 20
-3.4809921401571464
 10
6.300721269837686
 20
-3.4352129300335292
 10
6.6241604743332125
 20
-3.3887017319106203
 10
6.947977842932568
 20
-3.3412441188374986
 10
7.272255411660636
 20
-3.2929094543895543
 10
7.596841780917125
 20
-3.243710411016293
 10
7.921818986726947
 20
-3.1937163522931016
 10
8.247180692865339
 20
-3.1428515784198403
 10
8.57278183595677
 20
-3.091204461646155
 10
8.898710788250895
 20
-3.0389200653475754
 10
9.224961213522956
 20
-2.985922689723961
 10
9.551375375947911
 20
-2.932149307424675
 10
9.878035311550663
 20
-2.877669282025106
 10
10.204877992980572
 20
-2.82264034935029
 10
10.531953775138769
 20
-2.766753373974908
 10
10.859123930874478
 20
-2.7101724279487485
 10
11.186401132637206
 20
-2.653048910872094
 10
11.513779044202195
 20
-2.595307122944803
 10
11.841244993119947
 20
-2.5367956645665926
 10
12.168811651839958
 20
-2.477665935337745
 10
12.496340293211452
 20
-2.4180820073080502
 10
12.823893944585077
 20
-2.3578861446524697
 10
13.151415914834935
 20
-2.2973117829961827
 10
13.478887195286772
 20
-2.236131822938765
 10
13.806301449715844
 20
-2.1742705646800724
 10
14.133671350571642
 20
-2.111879407820391
 10
14.460864506928148
 20
-2.049198124209648
 10
14.787956618585506
 20
-1.986220377623092
 10
15.114852977069308
 20
-1.9227254048850515
 10
15.441559918604321
 20
-1.8587889057956655
 10
15.768077443190528
 20
-1.7944108803549368
 10
16.0944118870527
 20
-1.7296670283630047
 10
16.420405514365786
 20
-1.6644943224692337
 10
16.746140361154694
 20
-1.5989621262490128
 10
17.071547063844008
 20
-1.5331524757272361
 10
17.396713994683413
 20
-1.467210434279433
 10
17.721464409173578
 20
-1.4008458751545443
 10
18.04580464353928
 20
-1.33413449815271
 10
18.369842078704426
 20
-1.2674484660498846
 10
18.6933872977202
 20
-1.200346252494725
 10
19.01643396436186
 20
-1.132752157687091
 10
19.339095795778068
 20
-1.0651140442030758
 10
19.66123406481803
 20
-0.9975959840924699
 10
19.982886453933386
 20
-0.9297374423296708
 10
20.303983599548726
 20
-0.861620454939574
 10
20.624449801863936
 20
-0.7932513581469295
 10
20.944373433128664
 20
-0.7247752153272679
 10
21.263685129767488
 20
-0.656274062505486
 10
21.582391228005186
 20
-0.5878235994817226
 10
21.900403355592122
 20
-0.5192787628804477
 10
22.21770884007875
 20
-0.45048815310137935
 10
22.534326690139373
 20
-0.3816788695449407
 10
22.850256905773954
 20
-0.31285091221113287
 10
23.16535442360699
 20
-0.244092653349601
 10
23.47977064323875
 20
-0.1753914205108405
 10
23.7933351563947
 20
-0.10653278674393228
 10
24.106054299299583
 20
-0.03759245184901873
 10
24.417959753077167
 20
0.03105108517319466
 10
24.729045181502705
 20
0.0994735241228492
 10
25.039146512526404
 20
0.1678135921507224
 10
25.3484214819733
 20
0.23600826190617782
 10
25.656712354018353
 20
0.30412056073985083
 10
25.964094828461707
 20
0.3721568248764955
 10
26.27050587795273
 20
0.439959318491076
 10
26.57586980269128
 20
0.50752170535884
 10
26.880274974926998
 20
0.5746989221042568
 10
27.18355098638535
 20
0.6417053956782461
 10
27.485849236666613
 20
0.7085537985303126
 10
27.78701198994575
 20
0.7753071580110926
 10
28.087077263571285
 20
0.841511275319738
 10
28.385969357743065
 20
0.9071598142314964
 10
28.68380165471287
 20
0.9727196459967203
 10
28.980340718855516
 20
1.0382474617412958
 10
29.275788639569317
 20
1.1031503355135952
 10
29.569987681029215
 20
1.1674912946642542
 10
29.862912498336225
 20
1.2315731383938402
 10
30.154563091490314
 20
1.2953958667023506
 10
30.444945796716276
 20
1.3588837797896476
 10
30.734092295137838
 20
1.4216583786550205
 10
31.02183851470524
 20
1.4838583904492497
 10
31.30831684634449
 20
1.5457235870222639
 10
31.593375890455313
 20
1.6072412959245579
 10
31.877028319487202
 20
1.6682601175558485
 10
32.15928680588968
 20
1.7286286523158538
 10
32.44013867721322
 20
1.7884982998048558
 10
32.7195082336577
 20
1.8478627237981018
 10
32.99748384747276
 20
1.9065768609200626
 10
33.27391411905812
 20
1.9646280387212323
 10
33.548855739539654
 20
2.0222496928267883
 10
33.822157309317085
 20
2.079429150787225
 10
34.094058600240345
 20
2.1360340216765175
 10
34.364269485558374
 20
2.1918875609953736
 10
34.632941364871456
 20
2.247002441193297
 10
34.90006790195482
 20
2.30145436207043
 10
35.165485024758695
 20
2.3553820507775494
 10
35.42919906950784
 20
2.4087098075145157
 10
35.69136777202727
 20
2.4613746049306906
 10
35.95177036914134
 20
2.513281734551677
 10
36.21049523309967
 20
2.5642861330019424
 10
36.467447655427875
 20
2.6146085634571605
 10
36.72269699970135
 20
2.6643310619422254
 10
36.97617390234468
 20
2.7133715924322406
 10
37.22787836335788
 20
2.7617301549272084
 10
37.477753691615085
 20
2.8091733138019515
 10
37.72585657824215
 20
2.855934504681647
 10
37.97204195986357
 20
2.901925355316648
 10
38.21637286382996
 20
2.947303601531991
 10
38.458868298815574
 20
2.9918421439272493
 10
38.69945890124505
 20
3.0354589464775312
 10
38.9381256624441
 20
3.07838110858326
 10
39.17486858241275
 20
3.1206086302444365
 10
39.409687661151004
 20
3.16214151146106
 10
39.642444171508046
 20
3.2028156801833427
 10
39.873302185533696
 20
3.242492409260508
 10
40.102154322304045
 20
3.281543861468509
 10
40.32893121824369
 20
3.3198880007824516
 10
40.55370857315279
 20
3.35753116342709
 10
40.77642335968069
 20
3.3943156135773873
 10
40.99699354180252
 20
3.4303107148087326
 10
41.215564182893786
 20
3.4656048393707732
 10
41.432002892028486
 20
3.4999582154135807
 10
41.646296996757094
 20
3.533522242537436
 10
41.85845283330438
 20
3.566221220942198
 10
42.068451392996074
 20
3.5982822500282916
 10
42.276305348281674
 20
3.6295539301954327
 10
42.48193899936107
 20
3.6600299252188724
 10
42.68535868245898
 20
3.6896345352984654
 10
42.88663376115081
 20
3.7184497964591054
 10
43.08560649961153
 20
3.7465387360514333
 10
43.28227689784113
 20
3.7739013540754454
 10
43.4767269918645
 20
3.800468286955754
 10
43.6689631179064
 20
3.8261638348922165
 10
43.85881486769229
 20
3.851202424835754
 10
44.046357941022286
 20
3.875590393011117
 10
44.2316113465707
 20
3.899100640017883
 10
44.414493048312586
 20
3.92180252943144
 10
44.594990373798495
 20
3.943847460852073
 10
44.773191695278015
 20
3.9650903709042473
 10
44.94895194937562
 20
3.9854428873383205
 10
45.12233416344199
 20
4.005062745979325
 10
45.293332001252345
 20
4.024025646627406
 10
45.461869763006526
 20
4.042325253057807
 10
45.62796012115409
 20
4.059810165670248
 10
45.79159673947022
 20
4.076556084264869
 10
45.95276694550547
 20
4.092714408441953
 10
46.111477075484565
 20
4.10820943840136
 10
46.267664102056855
 20
4.122883438318052
 10
46.42132802522237
 20
4.136736408192031
 10
46.57251919988222
 20
4.150077483448615
 10
46.72116826246102
 20
4.16282462806291
 10
46.867275212958766
 20
4.174977842034915
 10
47.01084638760024
 20
4.186461425564491
 10
47.15180608658525
 20
4.197269042426881
 10
47.29023000971399
 20
4.207407028846844
 10
47.42602978473678
 20
4.217020448199905
 10
47.55921808410313
 20
4.225957900885783
 10
47.68978223536354
 20
4.234370786504763
 10
47.81781061076765
 20
4.24211404168131
 10
47.94313913826567
 20
4.2493263935662045
 10
48.06583718143302
 20
4.256089878184341
 10
48.185835376694286
 20
4.262322459510826
 10
48.303215760074345
 20
4.267954773970268
 10
48.417889959323574
 20
4.273131884938199
 10
48.52994634669162
 20
4.27770872903909
 10
48.63921451390393
 20
4.281899733223858
 10
48.74585219678555
 20
4.285641870141866
 10
48.849707995736196
 20
4.288922467343612
 10
48.950857610556014
 20
4.291747861053849
 10
49.049301041244995
 20
4.294118051272573
 10
49.14503195157836
 20
4.296108737799926
 10
49.23798097798079
 20
4.297637884611017
 10
49.3281354480027
 20
4.298856891306127
 10
49.415577397669054
 20
4.299696394309868
 10
49.500224790954924
 20
4.300225757197628
 10
49.58208396408504
 20
4.300369280169266
 10
49.6611485808347
 20
4.300202663024924
 10
49.7374249774286
 20
4.2996502059644595
 10
49.810906817642056
 20
4.298787608788015
 10
49.88158142902551
 20
4.297766271095873
 10
49.94938578422834
 20
4.296428457062998
 10
50.01446494662607
 20
4.294862538939034
 10
50.07658548059354
 20
4.2931252078498705
 10
50.13598082175592
 20
4.2911597726696185
 10
50.19249957051293
 20
4.288953560948776
 10
50.24612905441504
 20
4.286657972287625
 10
50.296951309487184
 20
4.284203643110775
 10
50.34489063592919
 20
4.281584237193476
 10
50.38993436129157
 20
4.278951154136011
 10
50.43217085782395
 20
4.276159330562846
 10
50.471511753276715
 20
4.2733538298495155
 10
50.50796338387459
 20
4.2704589521958765
 10
50.5415130771681
 20
4.2676260972022115
 10
50.57216716938194
 20
4.264779565068378
 10
50.59999502409156
 20
4.262001391819273
 10
50.62484524169664
 20
4.259278905005388
 10
50.64678718577261
 20
4.2566941406516206
 10
50.66589655611957
 20
4.254253434982722
 10
50.682021953137244
 20
4.251944115549184
 10
50.69522640417629
 20
4.249923918176047
 10
50.70559194526157
 20
4.2481234792879174
 10
50.71295450434333
 20
4.246681526035578
 10
50.71738344499693
 20
4.2456800944439195
 10
50.718866094772885
 20
4.245270584113225
  0
ENDSEC
  0
SECTION
  2
OBJECTS
  0
DICTIONARY
  5
A
330
0
100
AcDbDictionary
280
0
281
1
  3
ACAD_COLOR
350
B
  3
ACAD_GROUP
350
C
  3
ACAD_LAYOUT
350
D
  3
ACAD_MATERIAL
350
E
  3
ACAD_MLEADERSTYLE
350
F
  3
ACAD_MLINESTYLE
350
10
  3
ACAD_PLOTSETTINGS
350
11
  3
ACAD_PLOTSTYLENAME
350
12
  3
ACAD_SCALELIST
350
14
  3
ACAD_TABLESTYLE
350
15
  3
ACAD_VISUALSTYLE
350
16
  3
EZDXF_META
350
2D
  0
DICTIONARY
  5
B
330
A
100
AcDbDictionary
280
0
281
1
  0
DICTIONARY
  5
C
330
A
100
AcDbDictionary
280
0
281
1
  0
DICTIONARY
  5
D
330
A
100
AcDbDictionary
280
0
281
1
  3
Model
350
1A
  3
Layout1
350
1E
  0
DICTIONARY
  5
E
330
A
100
AcDbDictionary
280
0
281
1
  3
ByBlock
350
1F
  3
ByLayer
350
20
  3
Global
350
21
  0
DICTIONARY
  5
F
330
A
100
AcDbDictionary
280
0
281
1
  3
Standard
350
2C
  0
DICTIONARY
  5
10
330
A
100
AcDbDictionary
280
0
281
1
  3
Standard
350
22
  0
DICTIONARY
  5
11
330
A
100
AcDbDictionary
280
0
281
1
  0
ACDBDICTIONARYWDFLT
  5
12
330
A
100
AcDbDictionary
280
0
281
1
  3
Normal
350
13
100
AcDbDictionaryWithDefault
340
13
  0
ACDBPLACEHOLDER
  5
13
330
12
  0
DICTIONARY
  5
14
330
A
100
AcDbDictionary
280
0
281
1
  0
DICTIONARY
  5
15
330
A
100
AcDbDictionary
280
0
281
1
  0
DICTIONARY
  5
16
330
A
100
AcDbDictionary
280
0
281
1
  0
LAYOUT
  5
1A
330
D
100
AcDbPlotSettings
  1

  4
A3
  6

 40
7.5
 41
20.0
 42
7.5
 43
20.0
 44
420.0
 45
297.0
 46
0.0
 47
0.0
 48
0.0
 49
0.0
140
0.0
141
0.0
142
1.0
143
1.0
 70
1024
 72
1
 73
0
 74
5
  7

 75
16
 76
0
 77
2
 78
300
147
1.0
148
0.0
149
0.0
100
AcDbLayout
  1
Model
 70
1
 71
0
 10
0.0
 20
0.0
 11
420.0
 21
297.0
 12
0.0
 22
0.0
 32
0.0
 14
1e+20
 24
1e+20
 34
1e+20
 15
-1e+20
 25
-1e+20
 35
-1e+20
146
0.0
 13
0.0
 23
0.0
 33
0.0
 16
1.0
 26
0.0
 36
0.0
 17
0.0
 27
1.0
 37
0.0
 76
1
330
17
  0
LAYOUT
  5
1E
330
D
100
AcDbPlotSettings
  1

  4
A3
  6

 40
7.5
 41
20.0
 42
7.5
 43
20.0
 44
420.0
 45
297.0
 46
0.0
 47
0.0
 48
0.0
 49
0.0
140
0.0
141
0.0
142
1.0
143
1.0
 70
0
 72
1
 73
0
 74
5
  7

 75
16
 76
0
 77
2
 78
300
147
1.0
148
0.0
149
0.0
100
AcDbLayout
  1
Layout1
 70
1
 71
1
 10
0.0
 20
0.0
 11
420.0
 21
297.0
 12
0.0
 22
0.0
 32
0.0
 14
1e+20
 24
1e+20
 34
1e+20
 15
-1e+20
 25
-1e+20
 35
-1e+20
146
0.0
 13
0.0
 23
0.0
 33
0.0
 16
1.0
 26
0.0
 36
0.0
 17
0.0
 27
1.0
 37
0.0
 76
1
330
1B
  0
MATERIAL
  5
1F
102
{ACAD_REACTORS
330
E
102
}
330
E
100
AcDbMaterial
  1
ByBlock
  2

 70
0
 40
1.0
 71
1
 41
1.0
 91
-1023410177
 42
1.0
 72
1
  3

 73
1
 74
1
 75
1
 44
0.5
 73
0
 45
1.0
 46
1.0
 77
1
  4

 78
1
 79
1
170
1
 48
1.0
171
1
  6

172
1
173
1
174
1
140
1.0
141
1.0
175
1
  7

176
1
177
1
178
1
143
1.0
179
1
  8

270
1
271
1
272
1
145
1.0
146
1.0
273
1
  9

274
1
275
1
276
1
 42
1.0
 72
1
  3

 73
1
 74
1
 75
1
 94
63
  0
MATERIAL
  5
20
102
{ACAD_REACTORS
330
E
102
}
330
E
100
AcDbMaterial
  1
ByLayer
  2

 70
0
 40
1.0
 71
1
 41
1.0
 91
-1023410177
 42
1.0
 72
1
  3

 73
1
 74
1
 75
1
 44
0.5
 73
0
 45
1.0
 46
1.0
 77
1
  4

 78
1
 79
1
170
1
 48
1.0
171
1
  6

172
1
173
1
174
1
140
1.0
141
1.0
175
1
  7

176
1
177
1
178
1
143
1.0
179
1
  8

270
1
271
1
272
1
145
1.0
146
1.0
273
1
  9

274
1
275
1
276
1
 42
1.0
 72
1
  3

 73
1
 74
1
 75
1
 94
63
  0
MATERIAL
  5
21
102
{ACAD_REACTORS
330
E
102
}
330
E
100
AcDbMaterial
  1
Global
  2

 70
0
 40
1.0
 71
1
 41
1.0
 91
-1023410177
 42
1.0
 72
1
  3

 73
1
 74
1
 75
1
 44
0.5
 73
0
 45
1.0
 46
1.0
 77
1
  4

 78
1
 79
1
170
1
 48
1.0
171
1
  6

172
1
173
1
174
1
140
1.0
141
1.0
175
1
  7

176
1
177
1
178
1
143
1.0
179
1
  8

270
1
271
1
272
1
145
1.0
146
1.0
273
1
  9

274
1
275
1
276
1
 42
1.0
 72
1
  3

 73
1
 74
1
 75
1
 94
63
  0
MLINESTYLE
  5
22
102
{ACAD_REACTORS
330
10
102
}
330
10
100
AcDbMlineStyle
  2
Standard
 70
0
  3

 62
256
 51
90.0
 52
90.0
 71
2
 49
0.5
 62
256
  6
BYLAYER
 49
-0.5
 62
256
  6
BYLAYER
  0
MLEADERSTYLE
  5
2C
102
{ACAD_REACTORS
330
F
102
}
330
F
100
AcDbMLeaderStyle
179
2
170
2
171
1
172
0
 90
2
 40
0.0
 41
0.0
173
1
 91
-1056964608
 92
-2
290
1
 42
2.0
291
1
 43
8.0
  3
Standard
 44
4.0
300

342
29
174
1
175
1
176
0
178
1
 93
-1056964608
 45
4.0
292
0
297
0
 46
4.0
 94
-1056964608
 47
1.0
 49
1.0
140
1.0
294
1
141
0.0
177
0
142
1.0
295
0
296
0
143
3.75
271
0
272
9
273
9
  0
DICTIONARY
  5
2D
330
A
100
AcDbDictionary
280
1
281
1
  3
CREATED_BY_EZDXF
350
2E
  3
WRITTEN_BY_EZDXF
350
32
  0
DICTIONARYVAR
  5
2E
330
2D
100
DictionaryVariables
280
0
  1
1.3.5 @ 2025-08-20T01:05:14.151265+00:00
  0
DICTIONARYVAR
  5
32
330
2D
100
DictionaryVariables
280
0
  1
1.3.5 @ 2025-08-20T01:05:14.157228+00:00
  0
ENDSEC
  0
EOF
