  0
SECTION
  2
HEADER
  9
$ACADVER
  1
AC1032
  9
$ACADMAINTVER
 90
4
  9
$DWGCODEPAGE
  3
ANSI_1252
  9
$LASTSAVEDBY
  1
ezdxf
  9
$REQUIREDVERSIONS
160
0
  9
$INSBASE
 10
0.0
 20
0.0
 30
0.0
  9
$EXTMIN
 10
1e+20
 20
1e+20
 30
1e+20
  9
$EXTMAX
 10
-1e+20
 20
-1e+20
 30
-1e+20
  9
$LIMMIN
 10
0.0
 20
0.0
  9
$LIMMAX
 10
420.0
 20
297.0
  9
$ORTHOMODE
 70
0
  9
$REGENMODE
 70
1
  9
$FILLMODE
 70
1
  9
$QTEXTMODE
 70
0
  9
$MIRRTEXT
 70
1
  9
$LTSCALE
 40
1.0
  9
$ATTMODE
 70
1
  9
$TEXTSIZE
 40
2.5
  9
$TRACEWID
 40
1.0
  9
$TEXTSTYLE
  7
Standard
  9
$CLAYER
  8
0
  9
$CELTYPE
  6
ByLayer
  9
$CECOLOR
 62
256
  9
$CELTSCALE
 40
1.0
  9
$DISPSILH
 70
0
  9
$DIMSCALE
 40
1.0
  9
$DIMASZ
 40
2.5
  9
$DIMEXO
 40
0.625
  9
$DIMDLI
 40
3.75
  9
$DIMRND
 40
0.0
  9
$DIMDLE
 40
0.0
  9
$DIMEXE
 40
1.25
  9
$DIMTP
 40
0.0
  9
$DIMTM
 40
0.0
  9
$DIMTXT
 40
2.5
  9
$DIMCEN
 40
2.5
  9
$DIMTSZ
 40
0.0
  9
$DIMTOL
 70
0
  9
$DIMLIM
 70
0
  9
$DIMTIH
 70
0
  9
$DIMTOH
 70
0
  9
$DIMSE1
 70
0
  9
$DIMSE2
 70
0
  9
$DIMTAD
 70
1
  9
$DIMZIN
 70
8
  9
$DIMBLK
  1

  9
$DIMASO
 70
1
  9
$DIMSHO
 70
1
  9
$DIMPOST
  1

  9
$DIMAPOST
  1

  9
$DIMALT
 70
0
  9
$DIMALTD
 70
3
  9
$DIMALTF
 40
0.03937007874
  9
$DIMLFAC
 40
1.0
  9
$DIMTOFL
 70
1
  9
$DIMTVP
 40
0.0
  9
$DIMTIX
 70
0
  9
$DIMSOXD
 70
0
  9
$DIMSAH
 70
0
  9
$DIMBLK1
  1

  9
$DIMBLK2
  1

  9
$DIMSTYLE
  2
ISO-25
  9
$DIMCLRD
 70
0
  9
$DIMCLRE
 70
0
  9
$DIMCLRT
 70
0
  9
$DIMTFAC
 40
1.0
  9
$DIMGAP
 40
0.625
  9
$DIMJUST
 70
0
  9
$DIMSD1
 70
0
  9
$DIMSD2
 70
0
  9
$DIMTOLJ
 70
0
  9
$DIMTZIN
 70
8
  9
$DIMALTZ
 70
0
  9
$DIMALTTZ
 70
0
  9
$DIMUPT
 70
0
  9
$DIMDEC
 70
2
  9
$DIMTDEC
 70
2
  9
$DIMALTU
 70
2
  9
$DIMALTTD
 70
3
  9
$DIMTXSTY
  7
Standard
  9
$DIMAUNIT
 70
0
  9
$DIMADEC
 70
0
  9
$DIMALTRND
 40
0.0
  9
$DIMAZIN
 70
0
  9
$DIMDSEP
 70
44
  9
$DIMATFIT
 70
3
  9
$DIMFRAC
 70
0
  9
$DIMLDRBLK
  1

  9
$DIMLUNIT
 70
2
  9
$DIMLWD
 70
-2
  9
$DIMLWE
 70
-2
  9
$DIMTMOVE
 70
0
  9
$DIMFXL
 40
1.0
  9
$DIMFXLON
 70
0
  9
$DIMJOGANG
 40
0.785398163397
  9
$DIMTFILL
 70
0
  9
$DIMTFILLCLR
 70
0
  9
$DIMARCSYM
 70
0
  9
$DIMLTYPE
  6

  9
$DIMLTEX1
  6

  9
$DIMLTEX2
  6

  9
$DIMTXTDIRECTION
 70
0
  9
$LUNITS
 70
2
  9
$LUPREC
 70
4
  9
$SKETCHINC
 40
1.0
  9
$FILLETRAD
 40
10.0
  9
$AUNITS
 70
0
  9
$AUPREC
 70
2
  9
$MENU
  1
.
  9
$ELEVATION
 40
0.0
  9
$PELEVATION
 40
0.0
  9
$THICKNESS
 40
0.0
  9
$LIMCHECK
 70
0
  9
$CHAMFERA
 40
0.0
  9
$CHAMFERB
 40
0.0
  9
$CHAMFERC
 40
0.0
  9
$CHAMFERD
 40
0.0
  9
$SKPOLY
 70
0
  9
$TDCREATE
 40
2460908.0869560186
  9
$TDUCREATE
 40
2458532.153996898
  9
$TDUPDATE
 40
2460908.0869560186
  9
$TDUUPDATE
 40
2458532.1544311
  9
$TDINDWG
 40
0.0
  9
$TDUSRTIMER
 40
0.0
  9
$USRTIMER
 70
1
  9
$ANGBASE
 50
0.0
  9
$ANGDIR
 70
0
  9
$PDMODE
 70
0
  9
$PDSIZE
 40
0.0
  9
$PLINEWID
 40
0.0
  9
$SPLFRAME
 70
0
  9
$SPLINETYPE
 70
6
  9
$SPLINESEGS
 70
8
  9
$HANDSEED
  5
33
  9
$SURFTAB1
 70
6
  9
$SURFTAB2
 70
6
  9
$SURFTYPE
 70
6
  9
$SURFU
 70
6
  9
$SURFV
 70
6
  9
$UCSBASE
  2

  9
$UCSNAME
  2

  9
$UCSORG
 10
0.0
 20
0.0
 30
0.0
  9
$UCSXDIR
 10
1.0
 20
0.0
 30
0.0
  9
$UCSYDIR
 10
0.0
 20
1.0
 30
0.0
  9
$UCSORTHOREF
  2

  9
$UCSORTHOVIEW
 70
0
  9
$UCSORGTOP
 10
0.0
 20
0.0
 30
0.0
  9
$UCSORGBOTTOM
 10
0.0
 20
0.0
 30
0.0
  9
$UCSORGLEFT
 10
0.0
 20
0.0
 30
0.0
  9
$UCSORGRIGHT
 10
0.0
 20
0.0
 30
0.0
  9
$UCSORGFRONT
 10
0.0
 20
0.0
 30
0.0
  9
$UCSORGBACK
 10
0.0
 20
0.0
 30
0.0
  9
$PUCSBASE
  2

  9
$PUCSNAME
  2

  9
$PUCSORG
 10
0.0
 20
0.0
 30
0.0
  9
$PUCSXDIR
 10
1.0
 20
0.0
 30
0.0
  9
$PUCSYDIR
 10
0.0
 20
1.0
 30
0.0
  9
$PUCSORTHOREF
  2

  9
$PUCSORTHOVIEW
 70
0
  9
$PUCSORGTOP
 10
0.0
 20
0.0
 30
0.0
  9
$PUCSORGBOTTOM
 10
0.0
 20
0.0
 30
0.0
  9
$PUCSORGLEFT
 10
0.0
 20
0.0
 30
0.0
  9
$PUCSORGRIGHT
 10
0.0
 20
0.0
 30
0.0
  9
$PUCSORGFRONT
 10
0.0
 20
0.0
 30
0.0
  9
$PUCSORGBACK
 10
0.0
 20
0.0
 30
0.0
  9
$USERI1
 70
0
  9
$USERI2
 70
0
  9
$USERI3
 70
0
  9
$USERI4
 70
0
  9
$USERI5
 70
0
  9
$USERR1
 40
0.0
  9
$USERR2
 40
0.0
  9
$USERR3
 40
0.0
  9
$USERR4
 40
0.0
  9
$USERR5
 40
0.0
  9
$WORLDVIEW
 70
1
  9
$SHADEDGE
 70
3
  9
$SHADEDIF
 70
70
  9
$TILEMODE
 70
1
  9
$MAXACTVP
 70
64
  9
$PINSBASE
 10
0.0
 20
0.0
 30
0.0
  9
$PLIMCHECK
 70
0
  9
$PEXTMIN
 10
1e+20
 20
1e+20
 30
1e+20
  9
$PEXTMAX
 10
-1e+20
 20
-1e+20
 30
-1e+20
  9
$PLIMMIN
 10
0.0
 20
0.0
  9
$PLIMMAX
 10
420.0
 20
297.0
  9
$UNITMODE
 70
0
  9
$VISRETAIN
 70
1
  9
$PLINEGEN
 70
0
  9
$PSLTSCALE
 70
1
  9
$TREEDEPTH
 70
3020
  9
$CMLSTYLE
  2
Standard
  9
$CMLJUST
 70
0
  9
$CMLSCALE
 40
20.0
  9
$PROXYGRAPHICS
 70
1
  9
$MEASUREMENT
 70
1
  9
$CELWEIGHT
370
-1
  9
$ENDCAPS
280
0
  9
$JOINSTYLE
280
0
  9
$LWDISPLAY
290
0
  9
$INSUNITS
 70
6
  9
$HYPERLINKBASE
  1

  9
$STYLESHEET
  1

  9
$XEDIT
290
1
  9
$CEPSNTYPE
380
0
  9
$PSTYLEMODE
290
1
  9
$FINGERPRINTGUID
  2
{61488579-F4DA-4B47-A1FA-C717C898BF81}
  9
$VERSIONGUID
  2
{5F5D1AC4-80AC-4DA0-9D3F-1038EC300457}
  9
$EXTNAMES
290
1
  9
$PSVPSCALE
 40
0.0
  9
$OLESTARTUP
290
0
  9
$SORTENTS
280
127
  9
$INDEXCTL
280
0
  9
$HIDETEXT
280
1
  9
$XCLIPFRAME
280
1
  9
$HALOGAP
280
0
  9
$OBSCOLOR
 70
257
  9
$OBSLTYPE
280
0
  9
$INTERSECTIONDISPLAY
280
0
  9
$INTERSECTIONCOLOR
 70
257
  9
$DIMASSOC
280
2
  9
$PROJECTNAME
  1

  9
$CAMERADISPLAY
290
0
  9
$LENSLENGTH
 40
50.0
  9
$CAMERAHEIGHT
 40
0.0
  9
$STEPSPERSEC
 40
24.0
  9
$STEPSIZE
 40
100.0
  9
$3DDWFPREC
 40
2.0
  9
$PSOLWIDTH
 40
0.005
  9
$PSOLHEIGHT
 40
0.08
  9
$LOFTANG1
 40
1.570796326795
  9
$LOFTANG2
 40
1.570796326795
  9
$LOFTMAG1
 40
0.0
  9
$LOFTMAG2
 40
0.0
  9
$LOFTPARAM
 70
7
  9
$LOFTNORMALS
280
1
  9
$LATITUDE
 40
37.795
  9
$LONGITUDE
 40
-122.394
  9
$NORTHDIRECTION
 40
0.0
  9
$TIMEZONE
 70
-8000
  9
$LIGHTGLYPHDISPLAY
280
1
  9
$TILEMODELIGHTSYNCH
280
1
  9
$CMATERIAL
347
20
  9
$SOLIDHIST
280
0
  9
$SHOWHIST
280
1
  9
$DWFFRAME
280
2
  9
$DGNFRAME
280
2
  9
$REALWORLDSCALE
290
1
  9
$INTERFERECOLOR
 62
256
  9
$CSHADOW
280
0
  9
$SHADOWPLANELOCATION
 40
0.0
  0
ENDSEC
  0
SECTION
  2
CLASSES
  0
CLASS
  1
ACDBDICTIONARYWDFLT
  2
AcDbDictionaryWithDefault
  3
ObjectDBX Classes
 90
0
 91
0
280
0
281
0
  0
CLASS
  1
SUN
  2
AcDbSun
  3
SCENEOE
 90
1153
 91
0
280
0
281
0
  0
CLASS
  1
VISUALSTYLE
  2
AcDbVisualStyle
  3
ObjectDBX Classes
 90
4095
 91
0
280
0
281
0
  0
CLASS
  1
MATERIAL
  2
AcDbMaterial
  3
ObjectDBX Classes
 90
1153
 91
0
280
0
281
0
  0
CLASS
  1
SCALE
  2
AcDbScale
  3
ObjectDBX Classes
 90
1153
 91
0
280
0
281
0
  0
CLASS
  1
TABLESTYLE
  2
AcDbTableStyle
  3
ObjectDBX Classes
 90
4095
 91
0
280
0
281
0
  0
CLASS
  1
MLEADERSTYLE
  2
AcDbMLeaderStyle
  3
ACDB_MLEADERSTYLE_CLASS
 90
4095
 91
0
280
0
281
0
  0
CLASS
  1
DICTIONARYVAR
  2
AcDbDictionaryVar
  3
ObjectDBX Classes
 90
0
 91
0
280
0
281
0
  0
CLASS
  1
CELLSTYLEMAP
  2
AcDbCellStyleMap
  3
ObjectDBX Classes
 90
1152
 91
0
280
0
281
0
  0
CLASS
  1
MENTALRAYRENDERSETTINGS
  2
AcDbMentalRayRenderSettings
  3
SCENEOE
 90
1024
 91
0
280
0
281
0
  0
CLASS
  1
ACDBDETAILVIEWSTYLE
  2
AcDbDetailViewStyle
  3
ObjectDBX Classes
 90
1025
 91
0
280
0
281
0
  0
CLASS
  1
ACDBSECTIONVIEWSTYLE
  2
AcDbSectionViewStyle
  3
ObjectDBX Classes
 90
1025
 91
0
280
0
281
0
  0
CLASS
  1
RASTERVARIABLES
  2
AcDbRasterVariables
  3
ISM
 90
0
 91
0
280
0
281
0
  0
CLASS
  1
LAYOUT
  2
AcDbLayout
  3
ObjectDBX Classes
 90
0
 91
0
280
0
281
0
  0
CLASS
  1
ACDBPLACEHOLDER
  2
AcDbPlaceHolder
  3
ObjectDBX Classes
 90
0
 91
0
280
0
281
0
  0
ENDSEC
  0
SECTION
  2
TABLES
  0
TABLE
  2
VPORT
  5
8
330
0
100
AcDbSymbolTable
 70
1
  0
VPORT
  5
23
330
8
100
AcDbSymbolTableRecord
100
AcDbViewportTableRecord
  2
*Active
 70
0
 10
0.0
 20
0.0
 11
1.0
 21
1.0
 12
0.0
 22
0.0
 13
0.0
 23
0.0
 14
0.5
 24
0.5
 15
0.5
 25
0.5
 16
0.0
 26
0.0
 36
1.0
 17
0.0
 27
0.0
 37
0.0
 40
1000.0
 41
1.34
 42
50.0
 43
0.0
 44
0.0
 50
0.0
 51
0.0
 71
0
 72
1000
 73
1
 74
3
 75
0
 76
0
 77
0
 78
0
281
0
 65
0
146
0.0
  0
ENDTAB
  0
TABLE
  2
LTYPE
  5
2
330
0
100
AcDbSymbolTable
 70
3
  0
LTYPE
  5
24
330
2
100
AcDbSymbolTableRecord
100
AcDbLinetypeTableRecord
  2
ByBlock
 70
0
  3

 72
65
 73
0
 40
0.0
  0
LTYPE
  5
25
330
2
100
AcDbSymbolTableRecord
100
AcDbLinetypeTableRecord
  2
ByLayer
 70
0
  3

 72
65
 73
0
 40
0.0
  0
LTYPE
  5
26
330
2
100
AcDbSymbolTableRecord
100
AcDbLinetypeTableRecord
  2
Continuous
 70
0
  3

 72
65
 73
0
 40
0.0
  0
ENDTAB
  0
TABLE
  2
LAYER
  5
1
330
0
100
AcDbSymbolTable
 70
2
  0
LAYER
  5
27
330
1
100
AcDbSymbolTableRecord
100
AcDbLayerTableRecord
  2
0
 70
0
 62
7
  6
Continuous
370
-3
390
13
347
21
  0
LAYER
  5
28
330
1
100
AcDbSymbolTableRecord
100
AcDbLayerTableRecord
  2
Defpoints
 70
0
 62
7
  6
Continuous
290
0
370
-3
390
13
347
21
  0
ENDTAB
  0
TABLE
  2
STYLE
  5
5
330
0
100
AcDbSymbolTable
 70
1
  0
STYLE
  5
29
330
5
100
AcDbSymbolTableRecord
100
AcDbTextStyleTableRecord
  2
Standard
 70
0
 40
0.0
 41
1.0
 50
0.0
 71
0
 42
2.5
  3
txt
  4

  0
ENDTAB
  0
TABLE
  2
VIEW
  5
7
330
0
100
AcDbSymbolTable
 70
0
  0
ENDTAB
  0
TABLE
  2
UCS
  5
6
330
0
100
AcDbSymbolTable
 70
0
  0
ENDTAB
  0
TABLE
  2
APPID
  5
3
330
0
100
AcDbSymbolTable
 70
3
  0
APPID
  5
2A
330
3
100
AcDbSymbolTableRecord
100
AcDbRegAppTableRecord
  2
ACAD
 70
0
  0
APPID
  5
30
330
3
100
AcDbSymbolTableRecord
100
AcDbRegAppTableRecord
  2
HATCHBACKGROUNDCOLOR
 70
0
  0
APPID
  5
31
330
3
100
AcDbSymbolTableRecord
100
AcDbRegAppTableRecord
  2
EZDXF
 70
0
  0
ENDTAB
  0
TABLE
  2
DIMSTYLE
  5
4
330
0
100
AcDbSymbolTable
 70
1
100
AcDbDimStyleTable
  0
DIMSTYLE
105
2B
330
4
100
AcDbSymbolTableRecord
100
AcDbDimStyleTableRecord
  2
Standard
 70
0
 40
1.0
 41
2.5
 42
0.625
 43
3.75
 44
1.25
 45
0.0
 46
0.0
 47
0.0
 48
0.0
 49
2.5
140
2.5
141
2.5
142
0.0
143
0.03937007874
144
1.0
145
0.0
146
1.0
147
0.625
148
0.0
 69
0
 70
0
 71
0
 72
0
 73
0
 74
0
 75
0
 76
0
 77
1
 78
8
 79
3
170
0
171
3
172
1
173
0
174
0
175
0
176
0
177
0
178
0
179
2
271
2
272
2
273
2
274
3
275
0
276
0
277
2
278
44
279
0
280
0
281
0
282
0
283
0
284
8
285
0
286
0
288
0
289
3
290
0
371
-2
372
-2
  0
ENDTAB
  0
TABLE
  2
BLOCK_RECORD
  5
9
330
0
100
AcDbSymbolTable
 70
2
  0
BLOCK_RECORD
  5
17
330
9
100
AcDbSymbolTableRecord
100
AcDbBlockTableRecord
  2
*Model_Space
340
1A
 70
0
280
1
281
0
  0
BLOCK_RECORD
  5
1B
330
9
100
AcDbSymbolTableRecord
100
AcDbBlockTableRecord
  2
*Paper_Space
340
1E
 70
0
280
1
281
0
  0
ENDTAB
  0
ENDSEC
  0
SECTION
  2
BLOCKS
  0
BLOCK
  5
18
330
17
100
AcDbEntity
  8
0
100
AcDbBlockBegin
  2
*Model_Space
 70
0
 10
0.0
 20
0.0
 30
0.0
  3
*Model_Space
  1

  0
ENDBLK
  5
19
330
17
100
AcDbEntity
  8
0
100
AcDbBlockEnd
  0
BLOCK
  5
1C
330
1B
100
AcDbEntity
  8
0
100
AcDbBlockBegin
  2
*Paper_Space
 70
0
 10
0.0
 20
0.0
 30
0.0
  3
*Paper_Space
  1

  0
ENDBLK
  5
1D
330
1B
100
AcDbEntity
  8
0
100
AcDbBlockEnd
  0
ENDSEC
  0
SECTION
  2
ENTITIES
  0
LWPOLYLINE
  5
2F
330
17
100
AcDbEntity
  8
0
100
AcDbPolyline
 90
721
 70
1
 10
81.40781976883851
 20
17.52742236374321
 10
81.40532806655172
 20
17.527775846897644
 10
81.39790528035509
 20
17.528593287943725
 10
81.3856560515762
 20
17.529388670047016
 10
81.36840655534264
 20
17.530378841292844
 10
81.34647828106728
 20
17.531251609719153
 10
81.3197235642097
 20
17.53210231920267
 10
81.28804706089309
 20
17.5327833052029
 10
81.25169177953468
 20
17.533346888383612
 10
81.21056237625777
 20
17.53364540420431
 10
81.16448502619
 20
17.53389570075033
 10
81.11375505841231
 20
17.53390709026822
 10
81.05825096871611
 20
17.533653412426094
 10
80.99794659676954
 20
17.53325617143257
 10
80.93289426323632
 20
17.532472358870418
 10
80.86304164745275
 20
17.531544983156863
 10
80.78853641395924
 20
17.530378700415177
 10
80.70925705854725
 20
17.52894735031348
 10
80.62517742088488
 20
17.527372437060382
 10
80.53647132584449
 20
17.525437112570543
 10
80.44296494855372
 20
17.523358224929307
 10
80.34471060967634
 20
17.520892765719445
 10
80.24189899696574
 20
17.518336064021945
 10
80.13419175812808
 20
17.515488134632555
 10
80.0219534057891
 20
17.512427458546913
 10
79.90494093153161
 20
17.509101715101263
 10
79.78327583956424
 20
17.505537064627482
 10
79.65695812988699
 20
17.50173350712558
 10
79.52596164216794
 20
17.49781254680416
 10
79.3902863764071
 20
17.493774183663216
 10
79.24998465326827
 20
17.489375409285536
 10
79.10500415208766
 20
17.48485923208834
 10
78.95549253740577
 20
17.480130308194912
 10
78.80130214468208
 20
17.47528398148195
 10
78.64248529458038
 20
17.47007724353226
 10
78.47911117064551
 20
17.464779263094933
 10
78.31115361254562
 20
17.459511544378593
 10
78.13869110127628
 20
17.453909574757393
 10
77.96154981196521
 20
17.44819020231668
 10
77.77999891336142
 20
17.442284243511615
 10
77.59376923671586
 20
17.436260881887026
 10
77.40310379044575
 20
17.430172438106695
 10
77.2078810703425
 20
17.42399275183874
 10
77.00822258061464
 20
17.417747983415026
 10
76.8040329773855
 20
17.41129046829508
 10
76.59543376486369
 20
17.404646366810777
 10
76.38225111817684
 20
17.39803252704745
 10
76.16475420607402
 20
17.391379765460268
 10
75.94282152434667
 20
17.384661921717345
 10
75.71645307299471
 20
17.377878995818666
 10
75.48564885201822
 20
17.371030987764247
 10
75.25050420529392
 20
17.364265562094584
 10
75.01092378894504
 20
17.357435054269175
 10
74.7670029468483
 20
17.350687128828508
 10
74.51876783933564
 20
17.343900281563993
 10
74.26627078707078
 20
17.33683150405839
 10
74.00958097359859
 20
17.32974996506082
 10
73.74852457404667
 20
17.322872512656616
 10
73.48310158841501
 20
17.31619914684576
 10
73.21351200190794
 20
17.30939151533433
 10
72.93972965419348
 20
17.302571122330924
 10
72.66175454527169
 20
17.29573796783555
 10
72.37950819414695
 20
17.289256564474037
 10
72.0931214024786
 20
17.282519391203323
 10
71.80266335381152
 20
17.275795616772523
 10
71.50810788781384
 20
17.26920674539025
 10
71.20930733994506
 20
17.262848120933224
 10
70.90653087895426
 20
17.256650559856606
 10
70.59968316096472
 20
17.25046639761991
 10
70.28876418597646
 20
17.24429563422312
 10
69.9738431375343
 20
17.23840743841535
 10
69.65502465696578
 20
17.232315793362158
 10
69.33213491939856
 20
17.226237547148887
 10
69.00539077291793
 20
17.220346524647905
 10
68.6747922175239
 20
17.214642725859218
 10
68.34027006967165
 20
17.20885698203373
 10
68.00179816902927
 20
17.203110797380035
 10
67.65961952401399
 20
17.19745649256191
 10
67.31356030975346
 20
17.192110915664696
 10
66.96369900724326
 20
17.186709554062553
 10
66.61015712069205
 20
17.18127856808738
 10
66.25293465009985
 20
17.17581795773916
 10
65.89197927480286
 20
17.17057073143513
 10
65.52729099480108
 20
17.16553688917528
 10
65.15889597042641
 20
17.160594926751
 10
64.78706337042794
 20
17.155675660617455
 10
64.41152402605655
 20
17.150848274319475
 10
64.0323994415209
 20
17.14613892818896
 10
63.649889602025226
 20
17.141209269931963
 10
63.26384684302901
 20
17.1361546434252
 10
62.87431418774525
 20
17.13136572162639
 10
62.48141314038256
 20
17.126868664867423
 10
62.08495301318742
 20
17.122368144067302
 10
61.68525529557277
 20
17.11755196726397
 10
61.282215346211075
 20
17.112906151291874
 10
60.87585932543418
 20
17.108309191942396
 10
60.46616107291023
 20
17.103882593424153
 10
60.05329441351157
 20
17.0994095076518
 10
59.63725934723824
 20
17.094889934625346
 10
59.21793436988161
 20
17.090297714012898
 10
58.795536329527
 20
17.085806670686846
 10
58.36994372196583
 20
17.081390644315306
 10
57.94133037207049
 20
17.076832786812933
 10
57.50969627984094
 20
17.072133098179727
 10
57.07516294948581
 20
17.067317738747587
 10
56.637582716464614
 20
17.06248205239323
 10
56.19702476432218
 20
17.05789520786576
 10
55.753446069845545
 20
17.05316653220746
 10
55.307184985328675
 20
17.048496010622607
 10
54.85810314368189
 20
17.043345305612977
 10
54.40617438457328
 20
17.037835921387188
 10
53.95156323542442
 20
17.032384691234835
 10
53.49424353590345
 20
17.02711311936454
 10
53.03405075858878
 20
17.02160437248669
 10
52.57152324097864
 20
17.015720083511617
 10
52.10632263077906
 20
17.009260267235046
 10
51.63861345541161
 20
17.002641756946577
 10
51.168248050335805
 20
16.99595989652294
 10
50.695495584300765
 20
16.9891455024193
 10
50.22031303409352
 20
16.981807901677936
 10
49.742769583258884
 20
16.974216263047953
 10
49.26281291113314
 20
16.966613594946576
 10
48.78057381937567
 20
16.958392376330746
 10
48.29607846831837
 20
16.949431102991863
 10
47.809439064719044
 20
16.940389616636743
 10
47.32043876049237
 20
16.931094092393007
 10
46.82929440372364
 20
16.921718355133034
 10
46.33616295640422
 20
16.91153337960517
 10
45.84101825820217
 20
16.900660670018016
 10
45.34380798845376
 20
16.8893432347888
 10
44.84445366616332
 20
16.877945586543348
 10
44.34330294107562
 20
16.866034029110995
 10
43.84021744610098
 20
16.853070224993527
 10
43.33548321286954
 20
16.839497167812425
 10
42.8287264313047
 20
16.82587005794698
 10
42.320173246942595
 20
16.811729038894633
 10
41.80992830111077
 20
16.79658809382094
 10
41.29818228156267
 20
16.780742551806895
 10
40.784666019549164
 20
16.76426159639734
 10
40.26959636315565
 20
16.747319052464654
 10
39.752877968505345
 20
16.72976725546834
 10
39.23468466047065
 20
16.711389357323064
 10
38.715137943260174
 20
16.69221151836071
 10
38.19411631266531
 20
16.6722075782494
 10
37.671862777103286
 20
16.6514298576529
 10
37.14813432815687
 20
16.629826035907435
 10
36.62312165357954
 20
16.60769144209401
 10
36.09685091370312
 20
16.584904572003996
 10
35.569452910187096
 20
16.56085790459436
 10
35.040875322367675
 20
16.535794448282314
 10
34.511334998330184
 20
16.50988802794024
 10
33.98056276932552
 20
16.48320782711297
 10
33.44885396443469
 20
16.45556315804707
 10
32.91623474398959
 20
16.426832516533924
 10
32.38273126832207
 20
16.39689439836492
 10
31.848291216768374
 20
16.365991811957276
 10
31.313009933205223
 20
16.334272421851495
 10
30.77688741763263
 20
16.30173622804757
 10
30.240123655254852
 20
16.268044878251562
 10
29.702623302195168
 20
16.233050707922974
 10
29.164534022994076
 20
16.19665837318508
 10
28.62589884086453
 20
16.1592585469956
 10
28.086517770602246
 20
16.12118958164847
 10
27.54668614128823
 20
16.082260789390247
 10
27.006491731368968
 20
16.04147397622017
 10
26.46577757885313
 20
15.999558167389894
 10
25.924760531826045
 20
15.956687187771795
 10
25.38337140674292
 20
15.912591868616783
 10
24.841636363935564
 20
15.867150705716233
 10
24.299719930825606
 20
15.820780532359754
 10
23.757526763536283
 20
15.773333684006849
 10
23.215256847271878
 20
15.724471808363568
 10
22.672788677823778
 20
15.674168745098031
 10
22.130339103277326
 20
15.622598319082627
 10
21.58788196330063
 20
15.569882034525952
 10
21.04549573888935
 20
15.515655378802185
 10
20.50315426971159
 20
15.46003985611993
 10
19.9609528996441
 20
15.403183131019693
 10
19.418691643482575
 20
15.34542355579541
 10
18.87677047163557
 20
15.28608442585919
 10
18.33518938410309
 20
15.225165741211041
 10
17.793922220553245
 20
15.162789006059569
 10
17.252942820654145
 20
15.099075724613384
 10
16.712398848946297
 20
15.033930552995765
 10
16.17214264088918
 20
14.96744883508343
 10
15.632443365231934
 20
14.899561387331545
 10
15.093353342638308
 20
14.830025201322892
 10
14.554846412776426
 20
14.75896178126608
 10
14.016896415314395
 20
14.686492631369713
 10
13.479529510584115
 20
14.61249624742519
 10
12.943041027666556
 20
14.536781941679058
 10
12.407257141689355
 20
14.459566562216652
 10
11.872247036197344
 20
14.381119277787077
 10
11.338020008641335
 20
14.300806407015399
 10
10.804766746774783
 20
14.218923278982604
 10
10.272408769602038
 20
14.135834406314533
 10
9.740903053910138
 20
14.05114911605346
 10
9.210544928780076
 20
13.964676720445945
 10
8.681282073548084
 20
13.876660227909202
 10
8.15304530466932
 20
13.786830469694127
 10
7.626025309897231
 20
13.695482774881713
 10
7.100152905686992
 20
13.60234797472285
 10
6.575644940123917
 20
13.507599894089926
 10
6.052179923795145
 20
13.411550724944998
 10
5.530053185781656
 20
13.314009779534613
 10
5.009369367411007
 20
13.214491041024337
 10
4.490102308351294
 20
13.113116013622774
 10
3.9722950318154875
 20
13.010275370287646
 10
3.455973698135467
 20
12.90584760681034
 10
2.9411644676431106
 20
12.799711218982246
 10
2.4279888445470394
 20
12.69189236713525
 10
1.9162730039748674
 20
12.582607899354688
 10
1.4060861294714213
 20
12.472126984389662
 10
0.8976543665728811
 20
12.359989765737625
 10
0.3910300359430043
 20
12.24595323498135
 10
-0.11383918308199455
 20
12.13026040053806
 10
-0.6168579466253684
 20
12.01305892694825
 10
-1.1181477588957438
 20
11.894322653880037
 10
-1.6176132760163802
 20
11.774199245873916
 10
-2.1151591541105703
 20
11.652836367470382
 10
-2.6108022560593698
 20
11.529721841503106
 10
-3.1044210776541723
 20
11.404881828303983
 10
-3.5960249163458005
 20
11.278950009247938
 10
-4.085682955679091
 20
11.151657215585871
 10
-4.573126026904929
 20
11.022934263772946
 10
-5.0585971384405495
 20
10.892728833145387
 10
-5.541853281868711
 20
10.76109324436697
 10
-6.0228252736446
 20
10.628296666186797
 10
-6.501782282517311
 20
10.494408282149708
 10
-6.978472002618803
 20
10.358846731544538
 10
-7.452808387523175
 20
10.22239336028672
 10
-7.9249652621028
 20
10.085265016461593
 10
-8.394907168574985
 20
9.946706514485602
 10
-8.862269594313894
 20
9.806796335354413
 10
-9.327252524523798
 20
9.665872831361963
 10
-9.78988211953658
 20
9.524057506716865
 10
-10.250106058688456
 20
9.381107353001903
 10
-10.707707493894114
 20
9.237196195089455
 10
-11.162929433570767
 20
9.092271712315748
 10
-11.615607350296841
 20
8.94675073797039
 10
-12.065688923408583
 20
8.800390263636155
 10
-12.513147992574089
 20
8.653068785104434
 10
-12.958010718125259
 20
8.504907806583839
 10
-13.400207916517248
 20
8.356176496823474
 10
-13.839861091958666
 20
8.206848695491457
 10
-14.276674915368522
 20
8.056733714834337
 10
-14.710649386746816
 20
7.905831554852118
 10
-15.141879849970268
 20
7.753994551004296
 10
-15.570270961162162
 20
7.601370367831373
 10
-15.995901201318153
 20
7.448323517959177
 10
-16.41867522656151
 20
7.295001665928206
 10
-16.838488395564703
 20
7.14091879490402
 10
-17.255462212536326
 20
6.986048744554731
 10
-17.669206004518678
 20
6.830348491667388
 10
-18.08004126092462
 20
6.674130228204047
 10
-18.487994142086052
 20
6.517515458373322
 10
-18.89282163958575
 20
6.3605565028389845
 10
-19.29449759309183
 20
6.203131857392425
 10
-19.69306502581724
 20
6.044850849075923
 10
-20.08850707488091
 20
5.886225655055809
 10
-20.480902221278512
 20
5.72762078795791
 10
-20.869998159141996
 20
5.568454887071065
 10
-21.255916392679964
 20
5.408701792063386
 10
-21.638466234138985
 20
5.248656832015867
 10
-22.01776918772766
 20
5.088293846596621
 10
-22.39385141377788
 20
4.927734340014258
 10
-22.76651292708537
 20
4.766639959974832
 10
-23.135806048313903
 20
4.605253714895566
 10
-23.501730777463482
 20
4.443575604776461
 10
-23.864391755861654
 20
4.282091646451954
 10
-24.223519814759303
 20
4.120732656377209
 10
-24.579279481578
 20
3.9590818012626245
 10
-24.931496931445363
 20
3.7969222330228645
 10
-25.280155301480324
 20
3.6347661288242565
 10
-25.625428416555263
 20
3.4728303367521325
 10
-25.967090131134018
 20
3.310655000303942
 10
-26.30507126167177
 20
3.148509288228788
 10
-26.639640976917615
 20
2.986462384071512
 10
-26.970556268454327
 20
2.8245666084958847
 10
-27.297738655286256
 20
2.662457448876072
 10
-27.621266618409063
 20
2.500499417837912
 10
-27.941166318154625
 20
2.3388140195900076
 10
-28.257411594191062
 20
2.177279749923751
 10
-28.56988094230976
 20
2.01592276917103
 10
-28.878548202178838
 20
1.8546215731232323
 10
-29.183561038338784
 20
1.6934715056570853
 10
-29.484676442372383
 20
1.5325248874363568
 10
-29.781946734943403
 20
1.37202472687827
 10
-30.07556260380531
 20
1.2116756949018312
 10
-30.36515953633225
 20
1.0515562725026992
 10
-30.650832876400955
 20
0.8915187951403788
 10
-30.932687265338974
 20
0.7320492796493084
 10
-31.21072270314631
 20
0.5731477260294897
 10
-31.48476536495057
 20
0.41459728619558806
 10
-31.754789090419866
 20
0.2562764559389934
 10
-32.020889223430935
 20
0.09803757071920906
 10
-32.28295355722598
 20
-0.05945952775694088
 10
-32.54107743568173
 20
-0.2163625040299549
 10
-32.7952085381344
 20
-0.37291436651705107
 10
-33.04522536037539
 20
-0.5290889548863426
 10
-33.29118022306848
 20
-0.6846432607206129
 10
-33.53302080554989
 20
-0.8398202924370787
 10
-33.7707732681515
 20
-0.9944985458271308
 10
-34.00446377120519
 20
-1.1485565166821592
 10
-34.233918489838594
 20
-1.3022110530874995
 10
-34.45921590504737
 20
-1.4550976424173176
 10
-34.68037287971257
 20
-1.6077284618379446
 10
-34.89737255095314
 20
-1.7595913341830502
 10
-35.1101887584372
 20
-1.9108077636612462
 10
-35.31879534183284
 20
-2.0614992544811432
 10
-35.52307079693148
 20
-2.2116396463108545
 10
-35.72316278827359
 20
-2.361133595273656
 10
-35.91902829264623
 20
-2.509590428411829
 10
-36.11061498938563
 20
-2.657253154142597
 10
-36.297922878491775
 20
-2.8041217724659595
 10
-36.481099624505184
 20
-2.950100939505192
 10
-36.65987605867674
 20
-3.0952598388051302
 10
-36.834426005878825
 20
-3.239381622280443
 10
-37.00468028256659
 20
-3.3821971211820214
 10
-37.17076039294867
 20
-3.5237324958417537
 10
-37.332492512152655
 20
-3.6642045943449744
 10
-37.49002430471907
 20
-3.803518072814956
 10
-37.64311276223067
 20
-3.941620610587929
 10
-37.79205321376847
 20
-4.078321519910446
 10
-37.93662881124711
 20
-4.213446975910124
 10
-38.07690873821144
 20
-4.347266147336066
 10
-38.212892994661466
 20
-4.479779034188276
 10
-38.34458158059719
 20
-4.6109856364667525
 10
-38.471905312473766
 20
-4.740616785422389
 10
-38.594864190291176
 20
-4.868672481055185
 10
-38.713501237262406
 20
-4.995543396322859
 10
-38.82777343017448
 20
-5.120838858267693
 10
-38.93757612769988
 20
-5.245044883724129
 10
-39.043013971166125
 20
-5.367675455857724
 10
-39.14398231924568
 20
-5.489216591502919
 10
-39.24053349260232
 20
-5.609425282242496
 10
-39.33266749123602
 20
-5.728301528076455
 10
-39.42023665060633
 20
-5.8459406728815155
 10
-39.5035362997942
 20
-5.962152028904235
 10
-39.58212344517817
 20
-6.07722162777478
 10
-39.656414920047816
 20
-6.190984942071594
 10
-39.72614155565406
 20
-6.303511155339513
 10
-39.79138183299254
 20
-6.414435754952707
 10
-39.852204935608114
 20
-6.52402790966028
 10
-39.90851551962403
 20
-6.632139954921738
 10
-39.96041822636784
 20
-6.738285873902637
 10
-40.007956079052526
 20
-6.842856339560698
 10
-40.05105989413322
 20
-6.945582183146813
 10
-40.08978199227369
 20
-7.04622039624376
 10
-40.124227014801505
 20
-7.1442849620171
 10
-40.154394961716655
 20
-7.239775880466832
 10
-40.1804596578915
 20
-7.3324763035076215
 10
-40.20230889656829
 20
-7.4217263894326475
 10
-40.22016882328316
 20
-7.507066281739351
 10
-40.23442254556358
 20
-7.58730709867352
 10
-40.24501017731553
 20
-7.661545990111112
 10
-40.252471788057804
 20
-7.727865049046241
 10
-40.25734744730919
 20
-7.784346368473042
 10
-40.26002199461775
 20
-7.8280215267210895
 10
-40.26127094248923
 20
-7.855879078907016
 10
-40.096388841368224
 20
-8.632909522440686
 10
-40.092746084478435
 20
-8.638609190773968
 10
-40.081843974140945
 20
-8.655586691565208
 10
-40.06378715168332
 20
-8.68335600797996
 10
-40.03800938725487
 20
-8.723956551232718
 10
-40.00420432230321
 20
-8.779992230368066
 10
-39.9636107898778
 20
-8.84511866620638
 10
-39.91691825605851
 20
-8.915543067948867
 10
-39.864709813577086
 20
-8.989738201547366
 10
-39.807413325194524
 20
-9.065126318289169
 10
-39.74514272968919
 20
-9.140587719964905
 10
-39.67827183713773
 20
-9.215567206195294
 10
-39.60678378465908
 20
-9.289552599814007
 10
-39.53078321358079
 20
-9.362057883986605
 10
-39.45032244456663
 20
-9.432840050295864
 10
-39.365401477616594
 20
-9.50189909874179
 10
-39.27616797727119
 20
-9.569139685447654
 10
-39.182552759985576
 20
-9.634292641664352
 10
-39.08452966542785
 20
-9.697479471600493
 10
-38.98224635813853
 20
-9.758604831379353
 10
-38.87552901324523
 20
-9.817885569086267
 10
-38.76440379107983
 20
-9.875200180512623
 10
-38.64916602072332
 20
-9.930357977904977
 10
-38.52937270855422
 20
-9.983644992893497
 10
-38.40541452753024
 20
-10.035018202265231
 10
-38.277022308902275
 20
-10.084546789565021
 10
-38.144343717210816
 20
-10.132135410916138
 10
-38.00740491278776
 20
-10.17766256210998
 10
-37.86612741463745
 20
-10.221492755772365
 10
-37.72056354342364
 20
-10.263382983486082
 10
-37.5706086578188
 20
-10.30381926208557
 10
-37.416341238818596
 20
-10.342437078945
 10
-37.25783046996786
 20
-10.379505602813474
 10
-37.094954847057956
 20
-10.414998673359108
 10
-36.927662049425145
 20
-10.449159298999122
 10
-36.75609974160991
 20
-10.481892135856794
 10
-36.58024176328036
 20
-10.513318688140732
 10
-36.40008811443651
 20
-10.543438955850936
 10
-36.21543880987407
 20
-10.572591291281352
 10
-36.02656301834217
 20
-10.600706510887141
 10
-35.83324389175546
 20
-10.627610789795922
 10
-35.63572443853117
 20
-10.653356448671465
 10
-35.433830833796904
 20
-10.678160335599104
 10
-35.227684581761295
 20
-10.70204861091073
 10
-35.01719033854759
 20
-10.72487361006584
 10
-34.802521929028195
 20
-10.746418484979106
 10
-34.5835316886626
 20
-10.766778579527248
 10
-34.360436465536154
 20
-10.78612771858265
 10
-34.13311475544023
 20
-10.804439741813422
 10
-33.901566558374824
 20
-10.821714649219572
 10
-33.66587035533562
 20
-10.837587928175262
 10
-33.426147650531206
 20
-10.85208573901238
 10
-33.18227693975299
 20
-10.865181921399042
 10
-32.93432740654579
 20
-10.877145644084353
 10
-32.68229905090962
 20
-10.887976907068316
 10
-32.42629651417202
 20
-10.897189693516484
 10
-32.16638897987783
 20
-10.90505317217797
 10
-31.90248110415031
 20
-10.911419678512269
 10
-31.6345467266576
 20
-10.916410716728002
 10
-31.362707351608293
 20
-10.920052447157051
 10
-31.08698913933428
 20
-10.922223365590803
 10
-30.807365929503675
 20
-10.923044976237868
 10
-30.523837722116482
 20
-10.922517279098251
 10
-30.23643067750459
 20
-10.920518769963339
 10
-29.945240139544698
 20
-10.917197113373627
 10
-29.65026610823684
 20
-10.912552309329115
 10
-29.351413239704268
 20
-10.90643669328931
 10
-29.04887222170044
 20
-10.899145594335202
 10
-28.74254771034863
 20
-10.890531347926295
 10
-28.432413545316948
 20
-10.880715458271201
 10
-28.1186173911459
 20
-10.869602581493194
 10
-27.801237728831136
 20
-10.856828204966442
 10
-27.480196077377006
 20
-10.84275684131678
 10
-27.15531861191111
 20
-10.827605338629537
 10
-26.826996005391187
 20
-10.811330673691767
 10
-26.495037570063776
 20
-10.793637517422473
 10
-26.159469466260767
 20
-10.774404365613046
 10
-25.8204823817356
 20
-10.753926547344477
 10
-25.477928651947796
 20
-10.732299406493494
 10
-25.13186059756111
 20
-10.709279934642876
 10
-24.782399722784156
 20
-10.684894292124504
 10
-24.429572187948832
 20
-10.659020974729772
 10
-24.073299512059464
 20
-10.632024495084512
 10
-23.71363401577983
 20
-10.6036618447715
 10
-23.350523378446162
 20
-10.57417603220796
 10
-22.984289089471332
 20
-10.54325486543183
 10
-22.614661980106245
 20
-10.51096752798795
 10
-22.241763554559498
 20
-10.477340180208206
 10
-21.86568915670781
 20
-10.442520486633095
 10
-21.486369603006366
 20
-10.406239278513508
 10
-21.103874076999986
 20
-10.368765724598553
 10
-20.718350243229175
 20
-10.330004481011509
 10
-20.32960741394048
 20
-10.28966021867138
 10
-19.937888597551122
 20
-10.247785258241935
 10
-19.54311531306545
 20
-10.20474411234901
 10
-19.14528756048345
 20
-10.160536780992604
 10
-18.744405339805127
 20
-10.115163264172718
 10
-18.340668636234756
 20
-10.068285209595405
 10
-17.93412977043611
 20
-10.019659608843444
 10
-17.524562596873025
 20
-9.969746318419393
 10
-17.112210123962726
 20
-9.918597658987023
 10
-16.69700316816037
 20
-9.865944461797223
 10
-16.279115554338354
 20
-9.811569878764669
 10
-15.858468801501008
 20
-9.75583842251518
 10
-15.435132093193168
 20
-9.69901926179787
 10
-15.009036245870002
 20
-9.64084322786363
 10
-14.580259740527168
 20
-9.580945808086629
 10
-14.148993264918111
 20
-9.519622331547863
 10
-13.715210658710944
 20
-9.456994302455938
 10
-13.278668913488456
 20
-9.393009400147083
 10
-12.839758702208352
 20
-9.327624601408347
 10
-12.398410841325802
 20
-9.260570737490623
 10
-11.9546253308408
 20
-9.191847808393913
 10
-11.508497514630074
 20
-9.121603478658708
 10
-11.059896591034196
 20
-9.050445269328064
 10
-10.609022545257424
 20
-8.978034828108036
 10
-10.155858514418703
 20
-8.903859977832296
 10
-9.700378338186146
 20
-8.828042222709454
 10
-9.242825024976966
 20
-8.750633883403282
 10
-8.782972429255013
 20
-8.672094816416335
 10
-8.320994375892676
 20
-8.592208173663279
 10
-7.856890864889941
 20
-8.510973955144115
 10
-7.390714216910593
 20
-8.428149152441621
 10
-6.9224382716227355
 20
-8.34385526976441
 10
-6.452253716779823
 20
-8.25838763619347
 10
-5.9799698646284165
 20
-8.171450922647812
 10
-5.505882044249486
 20
-8.082854441373987
 10
-5.029964095311157
 20
-7.992719696580605
 10
-4.552189857481548
 20
-7.901168192476274
 10
-4.072463986883929
 20
-7.808052264520502
 10
-3.5912033168079116
 20
-7.713207385291726
 10
-3.108312503376758
 20
-7.6164858902494466
 10
-2.623513080390548
 20
-7.518590644313441
 10
-2.1370742165983896
 20
-7.419452463938873
 10
-1.649274378200206
 20
-7.318368484205962
 10
-1.1597920757831328
 20
-7.215650897076775
 10
-0.6687226532238691
 20
-7.111447367091799
 10
-0.17636143960342787
 20
-7.005567206497593
 10
0.3175084131635377
 20
-6.897836590421771
 10
0.8126438966598014
 20
-6.7883078395281045
 10
1.3092711564215147
 20
-6.677440810319153
 10
1.8072163675762982
 20
-6.565018654709577
 10
2.306227224256115
 20
-6.450460011988214
 10
2.8065037116652225
 20
-6.334103234449008
 10
3.3080289669225733
 20
-6.216460499258286
 10
3.810603004823882
 20
-6.097193454122104
 10
4.314321169245889
 20
-5.976154434499964
 10
4.819114276643734
 20
-5.853612609140977
 10
5.3248776856898825
 20
-5.7290819612106985
 10
5.8316113963843526
 20
-5.602562490709126
 10
6.339298545846051
 20
-5.47456637480259
 10
6.847843790198269
 20
-5.3452412780315885
 10
7.35734247331773
 20
-5.214439535855623
 10
7.867594610000157
 20
-5.081822795980749
 10
8.378652520909327
 20
-4.947634066824187
 10
8.89051620604525
 20
-4.811873348385935
 10
9.403064161199296
 20
-4.674566800997885
 10
9.916217905375822
 20
-4.535349912034199
 10
10.430029759238593
 20
-4.394465689912104
 10
10.944361355697943
 20
-4.252452472129808
 10
11.459429542839187
 20
-4.109136433814933
 10
11.97491283124947
 20
-3.9642053830054156
 10
12.490958885469272
 20
-3.817754663577984
 10
13.007324697081375
 20
-3.66983659619641
 10
13.524157930626279
 20
-3.520546524737416
 10
14.041432425772095
 20
-3.369762944992394
 10
14.558931334433488
 20
-3.2176596818337235
 10
15.076828481482853
 20
-3.0644535833467392
 10
15.595097706588287
 20
-2.9100231453228336
 10
16.113469841000683
 20
-2.7542991842171682
 10
16.632092549260552
 20
-2.5973770439064667
 10
17.15089664782305
 20
-2.439525893139832
 10
17.669898999569227
 20
-2.2802335547509447
 10
18.188908916745664
 20
-2.1197953578207898
 10
18.707978720016104
 20
-1.958454310766593
 10
19.227082249048692
 20
-1.796088909379741
 10
19.746167183179626
 20
-1.6324561452430164
 10
20.265285843072704
 20
-1.467799026773634
 10
20.784247540974448
 20
-1.3024128830525936
 10
21.303121460429725
 20
-1.136028545330784
 10
21.821864578225565
 20
-0.9690366865659238
 10
22.34039841336632
 20
-0.8010727941321816
 10
22.8586968055201
 20
-0.6320153638209469
 10
23.376812075350678
 20
-0.4621074040494402
 10
23.89457969543647
 20
-0.2917657481072702
 10
24.41212116998613
 20
-0.12096423566254129
 10
24.929236513795352
 20
0.05063548557868499
 10
25.445951887196046
 20
0.22291191140780137
 10
25.9622672901882
 20
0.3958650418248061
 10
26.478208883103708
 20
0.569373372621091
 10
26.99350749719346
 20
0.7435060873414931
 10
27.508310796997943
 20
0.9181678421092859
 10
28.022523438640434
 20
1.093210972383973
 10
28.536319246993344
 20
1.2684186300802276
 10
29.04935057231185
 20
1.4442245113687042
 10
29.561643574927906
 20
1.6205071120408074
 10
30.07345056070951
 20
1.796685071385364
 10
30.584371559248133
 20
1.973435093990263
 10
31.094380410211897
 20
2.1508786840641183
 10
31.603755579800733
 20
2.3283129766871546
 10
32.11230638026116
 20
2.505442642778374
 10
32.61999735381051
 20
2.683022867921329
 10
33.12673315657204
 20
2.86090598757552
 10
33.63239228433715
 20
3.039065841409065
 10
34.13714856197821
 20
3.2172855813366255
 10
34.64090664561851
 20
3.395417542817708
 10
35.14369269558992
 20
3.5733402216437007
 10
35.64533288702006
 20
3.7512704658999367
 10
36.14577489924516
 20
3.929451284003636
 10
36.645097213260904
 20
4.107518163328975
 10
37.14329982906727
 20
4.285471103875947
 10
37.64016589857891
 20
4.46313628077217
 10
38.13593843021305
 20
4.640566014681416
 10
38.63029593455682
 20
4.818072497565746
 10
39.12326457194213
 20
4.9955342252165496
 10
39.61497514402836
 20
5.172343676590768
 10
40.10540149048366
 20
5.348622355897026
 10
40.59424828222703
 20
5.524560950888761
 10
41.08178468800757
 20
5.700090278021137
 10
41.56774153907619
 20
5.875279520838996
 10
42.05224033964148
 20
6.050154839674217
 10
42.53521190615861
 20
6.2244470657776985
 10
43.01653473441895
 20
6.398130038817551
 10
43.49638264929493
 20
6.570986910708445
 10
43.97443416137363
 20
6.743329873412435
 10
44.45093227907227
 20
6.915211247593293
 10
44.92560783364177
 20
7.08670021679586
 10
45.398617787073434
 20
7.257067755768472
 10
45.86984063515867
 20
7.426287704179246
 10
46.33936242432333
 20
7.595141407943611
 10
46.80679248160975
 20
7.763671890274519
 10
47.272583098090216
 20
7.930959438166867
 10
47.736465105015625
 20
8.097073235165487
 10
48.198333861058444
 20
8.262499298104824
 10
48.65818936621864
 20
8.427237626984871
 10
49.11605778082814
 20
8.591166717597027
 10
49.572069906546346
 20
8.753679048898231
 10
50.02593041429228
 20
8.914965308641943
 10
50.477803831487506
 20
9.075442330117754
 10
50.927447149714794
 20
9.235057792661902
 10
51.374912689637895
 20
9.393568687857153
 10
51.82025277192064
 20
9.550732007286303
 10
52.263415075899196
 20
9.70679075936656
 10
52.70427809736498
 20
9.861718783766042
 10
53.14301566119039
 20
10.015299232399418
 10
53.5793847589582
 20
10.167479784602913
 10
54.01342841388132
 20
10.318651113334239
 10
54.44490361754257
 20
10.46876089792963
 10
54.874227203231534
 20
10.617644610967522
 10
55.30096547477756
 20
10.76495460270315
 10
55.72536144059788
 20
10.910743193800291
 10
56.14738894036057
 20
11.05513188846755
 10
56.56675264498465
 20
11.19831137445837
 10
56.98347871480202
 20
11.340160147564148
 10
57.397836318561794
 20
11.48060902424005
 10
57.80948710397
 20
11.619458019281797
 10
58.21860489589902
 20
11.75649028460406
 10
58.62498970914462
 20
11.892044172500785
 10
59.02873688758349
 20
12.026267347512468
 10
59.429751087338914
 20
12.159012145098608
 10
59.82803230841091
 20
12.290278565259207
 10
60.223537527586515
 20
12.419675935036553
 10
60.61630976807868
 20
12.54759492738836
 10
61.00613218180205
 20
12.67386171744224
 10
61.3930739523015
 20
12.798745473947307
 10
61.77721356057264
 20
12.921881684277725
 10
62.1584556627388
 20
13.043122683893001
 10
62.53672177780428
 20
13.162832985418964
 10
62.91201190576912
 20
13.281012588855615
 10
63.28432604663331
 20
13.39766149420296
 10
63.65347351264336
 20
13.51248437237999
 10
64.01974963288029
 20
13.625290535633274
 10
64.38290210147609
 20
13.736661344673971
 10
64.742835574554
 20
13.846449134961578
 10
65.09967155632262
 20
13.95468006682799
 10
65.45334086323716
 20
14.0610849715241
 10
65.80369583075706
 20
14.165759192926622
 10
66.1509533069677
 20
14.268876555907948
 10
66.49494876444751
 20
14.370020227178475
 10
66.8356298825327
 20
14.469433215155414
 10
67.17302282155518
 20
14.566994015630168
 10
67.5070491005193
 20
14.663067141228561
 10
67.83776104008881
 20
14.757409583533375
 10
68.16503713605505
 20
14.849995182212714
 10
68.48890354875
 20
14.940702433057984
 10
68.80945562205036
 20
15.02967900060967
 10
69.12642418720698
 20
15.11699406841261
 10
69.43980924421992
 20
15.202647636466812
 10
69.7497584576296
 20
15.286544360895546
 10
70.05629798776795
 20
15.368562737490198
 10
70.35910634522212
 20
15.449014958212834
 10
70.65830503420071
 20
15.527927183395342
 10
70.95397253569931
 20
15.604934900411877
 10
71.24596118517748
 20
15.680133453139177
 10
71.53421866197147
 20
15.75376584999446
 10
71.81891879095359
 20
15.825615242892384
 10
72.09984472403858
 20
15.895507806960575
 10
72.37706564477124
 20
15.963712710948139
 10
72.6505553928197
 20
16.030351459063684
 10
72.92019246397531
 20
16.09539789097532
 10
73.1860291789019
 20
16.15860899826583
 10
73.44803937726758
 20
16.22010628514383
 10
73.7061707384085
 20
16.28013276002653
 10
73.96044942265664
 20
16.33856691870533
 10
74.2108062464671
 20
16.39513959243111
 10
74.45724120983994
 20
16.449850781203885
 10
74.69977117565614
 20
16.503212662189974
 10
74.93830080003902
 20
16.555077570848873
 10
75.17283008298863
 20
16.605445507180608
 10
75.40338518483678
 20
16.654194966976537
 10
75.62984460137487
 20
16.701299789904787
 10
75.85232983681156
 20
16.74678613629725
 10
76.07066706627444
 20
16.790870854239262
 10
76.28490861042727
 20
16.833310935313587
 10
76.49500214860629
 20
16.874349387937464
 10
76.70112150568389
 20
16.91376936402554
 10
76.90297135257904
 20
16.951761551331273
 10
77.10064703316851
 20
16.98847361439517
 10
77.29405320357557
 20
17.02375788867672
 10
77.48333752834067
 20
17.05751903029919
 10
77.6683261825915
 20
17.089973887347934
 10
77.8491929912004
 20
17.12090561173762
 10
78.02561646475446
 20
17.150626395430283
 10
78.19786577200283
 20
17.179067054881106
 10
78.36569790452832
 20
17.20617526942631
 10
78.52923436653944
 20
17.231977199397775
 10
78.6884751580363
 20
17.256472844795518
 10
78.84339411868696
 20
17.27978370982813
 10
78.9938959046147
 20
17.301762129955126
 10
79.1399281951557
 20
17.32265111359371
 10
79.28163865485055
 20
17.342355316867188
 10
79.4188796191587
 20
17.36097008365226
 10
79.55167724841206
 20
17.378373909740326
 10
79.68000538227872
 20
17.39468829933999
 10
79.80389018109055
 20
17.40979174824264
 10
79.92330548451571
 20
17.423805760656897
 10
80.03819897189042
 20
17.436973344999974
 10
80.14850145966983
 20
17.449025332522773
 10
80.25442979593922
 20
17.46013554809766
 10
80.35559330774099
 20
17.4703470149376
 10
80.45238266803274
 20
17.47961670982963
 10
80.54455486839731
 20
17.48789231210999
 10
80.63205758817095
 20
17.4954168301959
 10
80.7150384918941
 20
17.502094920210627
 10
80.79337607535818
 20
17.50790042182229
 10
80.86701801789943
 20
17.51307634344811
 10
80.93613814439021
 20
17.51740583700275
 10
81.00056262995817
 20
17.521105750571547
 10
81.06031763493512
 20
17.524054579945886
 10
81.11535083865736
 20
17.526495333542996
 10
81.16568840145676
 20
17.52830650715426
 10
81.21142566721002
 20
17.529635765320172
 10
81.25231962749996
 20
17.530430787376964
 10
81.28846562620328
 20
17.53083923786514
 10
81.31998516752854
 20
17.53088727711657
 10
81.3466352430586
 20
17.530522584467487
 10
81.36848503633831
 20
17.530014328667015
 10
81.38568221190808
 20
17.5292671658384
 10
81.39793144068697
 20
17.528471783735114
 10
81.40532806655172
 20
17.527775846897644
 10
81.40781976883851
 20
17.52742236374321
  0
ENDSEC
  0
SECTION
  2
OBJECTS
  0
DICTIONARY
  5
A
330
0
100
AcDbDictionary
280
0
281
1
  3
ACAD_COLOR
350
B
  3
ACAD_GROUP
350
C
  3
ACAD_LAYOUT
350
D
  3
ACAD_MATERIAL
350
E
  3
ACAD_MLEADERSTYLE
350
F
  3
ACAD_MLINESTYLE
350
10
  3
ACAD_PLOTSETTINGS
350
11
  3
ACAD_PLOTSTYLENAME
350
12
  3
ACAD_SCALELIST
350
14
  3
ACAD_TABLESTYLE
350
15
  3
ACAD_VISUALSTYLE
350
16
  3
EZDXF_META
350
2D
  0
DICTIONARY
  5
B
330
A
100
AcDbDictionary
280
0
281
1
  0
DICTIONARY
  5
C
330
A
100
AcDbDictionary
280
0
281
1
  0
DICTIONARY
  5
D
330
A
100
AcDbDictionary
280
0
281
1
  3
Model
350
1A
  3
Layout1
350
1E
  0
DICTIONARY
  5
E
330
A
100
AcDbDictionary
280
0
281
1
  3
ByBlock
350
1F
  3
ByLayer
350
20
  3
Global
350
21
  0
DICTIONARY
  5
F
330
A
100
AcDbDictionary
280
0
281
1
  3
Standard
350
2C
  0
DICTIONARY
  5
10
330
A
100
AcDbDictionary
280
0
281
1
  3
Standard
350
22
  0
DICTIONARY
  5
11
330
A
100
AcDbDictionary
280
0
281
1
  0
ACDBDICTIONARYWDFLT
  5
12
330
A
100
AcDbDictionary
280
0
281
1
  3
Normal
350
13
100
AcDbDictionaryWithDefault
340
13
  0
ACDBPLACEHOLDER
  5
13
330
12
  0
DICTIONARY
  5
14
330
A
100
AcDbDictionary
280
0
281
1
  0
DICTIONARY
  5
15
330
A
100
AcDbDictionary
280
0
281
1
  0
DICTIONARY
  5
16
330
A
100
AcDbDictionary
280
0
281
1
  0
LAYOUT
  5
1A
330
D
100
AcDbPlotSettings
  1

  4
A3
  6

 40
7.5
 41
20.0
 42
7.5
 43
20.0
 44
420.0
 45
297.0
 46
0.0
 47
0.0
 48
0.0
 49
0.0
140
0.0
141
0.0
142
1.0
143
1.0
 70
1024
 72
1
 73
0
 74
5
  7

 75
16
 76
0
 77
2
 78
300
147
1.0
148
0.0
149
0.0
100
AcDbLayout
  1
Model
 70
1
 71
0
 10
0.0
 20
0.0
 11
420.0
 21
297.0
 12
0.0
 22
0.0
 32
0.0
 14
1e+20
 24
1e+20
 34
1e+20
 15
-1e+20
 25
-1e+20
 35
-1e+20
146
0.0
 13
0.0
 23
0.0
 33
0.0
 16
1.0
 26
0.0
 36
0.0
 17
0.0
 27
1.0
 37
0.0
 76
1
330
17
  0
LAYOUT
  5
1E
330
D
100
AcDbPlotSettings
  1

  4
A3
  6

 40
7.5
 41
20.0
 42
7.5
 43
20.0
 44
420.0
 45
297.0
 46
0.0
 47
0.0
 48
0.0
 49
0.0
140
0.0
141
0.0
142
1.0
143
1.0
 70
0
 72
1
 73
0
 74
5
  7

 75
16
 76
0
 77
2
 78
300
147
1.0
148
0.0
149
0.0
100
AcDbLayout
  1
Layout1
 70
1
 71
1
 10
0.0
 20
0.0
 11
420.0
 21
297.0
 12
0.0
 22
0.0
 32
0.0
 14
1e+20
 24
1e+20
 34
1e+20
 15
-1e+20
 25
-1e+20
 35
-1e+20
146
0.0
 13
0.0
 23
0.0
 33
0.0
 16
1.0
 26
0.0
 36
0.0
 17
0.0
 27
1.0
 37
0.0
 76
1
330
1B
  0
MATERIAL
  5
1F
102
{ACAD_REACTORS
330
E
102
}
330
E
100
AcDbMaterial
  1
ByBlock
  2

 70
0
 40
1.0
 71
1
 41
1.0
 91
-1023410177
 42
1.0
 72
1
  3

 73
1
 74
1
 75
1
 44
0.5
 73
0
 45
1.0
 46
1.0
 77
1
  4

 78
1
 79
1
170
1
 48
1.0
171
1
  6

172
1
173
1
174
1
140
1.0
141
1.0
175
1
  7

176
1
177
1
178
1
143
1.0
179
1
  8

270
1
271
1
272
1
145
1.0
146
1.0
273
1
  9

274
1
275
1
276
1
 42
1.0
 72
1
  3

 73
1
 74
1
 75
1
 94
63
  0
MATERIAL
  5
20
102
{ACAD_REACTORS
330
E
102
}
330
E
100
AcDbMaterial
  1
ByLayer
  2

 70
0
 40
1.0
 71
1
 41
1.0
 91
-1023410177
 42
1.0
 72
1
  3

 73
1
 74
1
 75
1
 44
0.5
 73
0
 45
1.0
 46
1.0
 77
1
  4

 78
1
 79
1
170
1
 48
1.0
171
1
  6

172
1
173
1
174
1
140
1.0
141
1.0
175
1
  7

176
1
177
1
178
1
143
1.0
179
1
  8

270
1
271
1
272
1
145
1.0
146
1.0
273
1
  9

274
1
275
1
276
1
 42
1.0
 72
1
  3

 73
1
 74
1
 75
1
 94
63
  0
MATERIAL
  5
21
102
{ACAD_REACTORS
330
E
102
}
330
E
100
AcDbMaterial
  1
Global
  2

 70
0
 40
1.0
 71
1
 41
1.0
 91
-1023410177
 42
1.0
 72
1
  3

 73
1
 74
1
 75
1
 44
0.5
 73
0
 45
1.0
 46
1.0
 77
1
  4

 78
1
 79
1
170
1
 48
1.0
171
1
  6

172
1
173
1
174
1
140
1.0
141
1.0
175
1
  7

176
1
177
1
178
1
143
1.0
179
1
  8

270
1
271
1
272
1
145
1.0
146
1.0
273
1
  9

274
1
275
1
276
1
 42
1.0
 72
1
  3

 73
1
 74
1
 75
1
 94
63
  0
MLINESTYLE
  5
22
102
{ACAD_REACTORS
330
10
102
}
330
10
100
AcDbMlineStyle
  2
Standard
 70
0
  3

 62
256
 51
90.0
 52
90.0
 71
2
 49
0.5
 62
256
  6
BYLAYER
 49
-0.5
 62
256
  6
BYLAYER
  0
MLEADERSTYLE
  5
2C
102
{ACAD_REACTORS
330
F
102
}
330
F
100
AcDbMLeaderStyle
179
2
170
2
171
1
172
0
 90
2
 40
0.0
 41
0.0
173
1
 91
-1056964608
 92
-2
290
1
 42
2.0
291
1
 43
8.0
  3
Standard
 44
4.0
300

342
29
174
1
175
1
176
0
178
1
 93
-1056964608
 45
4.0
292
0
297
0
 46
4.0
 94
-1056964608
 47
1.0
 49
1.0
140
1.0
294
1
141
0.0
177
0
142
1.0
295
0
296
0
143
3.75
271
0
272
9
273
9
  0
DICTIONARY
  5
2D
330
A
100
AcDbDictionary
280
1
281
1
  3
CREATED_BY_EZDXF
350
2E
  3
WRITTEN_BY_EZDXF
350
32
  0
DICTIONARYVAR
  5
2E
330
2D
100
DictionaryVariables
280
0
  1
1.3.5 @ 2025-08-20T01:05:13.642920+00:00
  0
DICTIONARYVAR
  5
32
330
2D
100
DictionaryVariables
280
0
  1
1.3.5 @ 2025-08-20T01:05:13.650184+00:00
  0
ENDSEC
  0
EOF
