  0
SECTION
  2
HEADER
  9
$ACADVER
  1
AC1032
  9
$ACADMAINTVER
 90
4
  9
$DWGCODEPAGE
  3
ANSI_1252
  9
$LASTSAVEDBY
  1
ezdxf
  9
$REQUIREDVERSIONS
160
0
  9
$INSBASE
 10
0.0
 20
0.0
 30
0.0
  9
$EXTMIN
 10
1e+20
 20
1e+20
 30
1e+20
  9
$EXTMAX
 10
-1e+20
 20
-1e+20
 30
-1e+20
  9
$LIMMIN
 10
0.0
 20
0.0
  9
$LIMMAX
 10
420.0
 20
297.0
  9
$ORTHOMODE
 70
0
  9
$REGENMODE
 70
1
  9
$FILLMODE
 70
1
  9
$QTEXTMODE
 70
0
  9
$MIRRTEXT
 70
1
  9
$LTSCALE
 40
1.0
  9
$ATTMODE
 70
1
  9
$TEXTSIZE
 40
2.5
  9
$TRACEWID
 40
1.0
  9
$TEXTSTYLE
  7
Standard
  9
$CLAYER
  8
0
  9
$CELTYPE
  6
ByLayer
  9
$CECOLOR
 62
256
  9
$CELTSCALE
 40
1.0
  9
$DISPSILH
 70
0
  9
$DIMSCALE
 40
1.0
  9
$DIMASZ
 40
2.5
  9
$DIMEXO
 40
0.625
  9
$DIMDLI
 40
3.75
  9
$DIMRND
 40
0.0
  9
$DIMDLE
 40
0.0
  9
$DIMEXE
 40
1.25
  9
$DIMTP
 40
0.0
  9
$DIMTM
 40
0.0
  9
$DIMTXT
 40
2.5
  9
$DIMCEN
 40
2.5
  9
$DIMTSZ
 40
0.0
  9
$DIMTOL
 70
0
  9
$DIMLIM
 70
0
  9
$DIMTIH
 70
0
  9
$DIMTOH
 70
0
  9
$DIMSE1
 70
0
  9
$DIMSE2
 70
0
  9
$DIMTAD
 70
1
  9
$DIMZIN
 70
8
  9
$DIMBLK
  1

  9
$DIMASO
 70
1
  9
$DIMSHO
 70
1
  9
$DIMPOST
  1

  9
$DIMAPOST
  1

  9
$DIMALT
 70
0
  9
$DIMALTD
 70
3
  9
$DIMALTF
 40
0.03937007874
  9
$DIMLFAC
 40
1.0
  9
$DIMTOFL
 70
1
  9
$DIMTVP
 40
0.0
  9
$DIMTIX
 70
0
  9
$DIMSOXD
 70
0
  9
$DIMSAH
 70
0
  9
$DIMBLK1
  1

  9
$DIMBLK2
  1

  9
$DIMSTYLE
  2
ISO-25
  9
$DIMCLRD
 70
0
  9
$DIMCLRE
 70
0
  9
$DIMCLRT
 70
0
  9
$DIMTFAC
 40
1.0
  9
$DIMGAP
 40
0.625
  9
$DIMJUST
 70
0
  9
$DIMSD1
 70
0
  9
$DIMSD2
 70
0
  9
$DIMTOLJ
 70
0
  9
$DIMTZIN
 70
8
  9
$DIMALTZ
 70
0
  9
$DIMALTTZ
 70
0
  9
$DIMUPT
 70
0
  9
$DIMDEC
 70
2
  9
$DIMTDEC
 70
2
  9
$DIMALTU
 70
2
  9
$DIMALTTD
 70
3
  9
$DIMTXSTY
  7
Standard
  9
$DIMAUNIT
 70
0
  9
$DIMADEC
 70
0
  9
$DIMALTRND
 40
0.0
  9
$DIMAZIN
 70
0
  9
$DIMDSEP
 70
44
  9
$DIMATFIT
 70
3
  9
$DIMFRAC
 70
0
  9
$DIMLDRBLK
  1

  9
$DIMLUNIT
 70
2
  9
$DIMLWD
 70
-2
  9
$DIMLWE
 70
-2
  9
$DIMTMOVE
 70
0
  9
$DIMFXL
 40
1.0
  9
$DIMFXLON
 70
0
  9
$DIMJOGANG
 40
0.785398163397
  9
$DIMTFILL
 70
0
  9
$DIMTFILLCLR
 70
0
  9
$DIMARCSYM
 70
0
  9
$DIMLTYPE
  6

  9
$DIMLTEX1
  6

  9
$DIMLTEX2
  6

  9
$DIMTXTDIRECTION
 70
0
  9
$LUNITS
 70
2
  9
$LUPREC
 70
4
  9
$SKETCHINC
 40
1.0
  9
$FILLETRAD
 40
10.0
  9
$AUNITS
 70
0
  9
$AUPREC
 70
2
  9
$MENU
  1
.
  9
$ELEVATION
 40
0.0
  9
$PELEVATION
 40
0.0
  9
$THICKNESS
 40
0.0
  9
$LIMCHECK
 70
0
  9
$CHAMFERA
 40
0.0
  9
$CHAMFERB
 40
0.0
  9
$CHAMFERC
 40
0.0
  9
$CHAMFERD
 40
0.0
  9
$SKPOLY
 70
0
  9
$TDCREATE
 40
2460908.0869560186
  9
$TDUCREATE
 40
2458532.153996898
  9
$TDUPDATE
 40
2460908.0869560186
  9
$TDUUPDATE
 40
2458532.1544311
  9
$TDINDWG
 40
0.0
  9
$TDUSRTIMER
 40
0.0
  9
$USRTIMER
 70
1
  9
$ANGBASE
 50
0.0
  9
$ANGDIR
 70
0
  9
$PDMODE
 70
0
  9
$PDSIZE
 40
0.0
  9
$PLINEWID
 40
0.0
  9
$SPLFRAME
 70
0
  9
$SPLINETYPE
 70
6
  9
$SPLINESEGS
 70
8
  9
$HANDSEED
  5
33
  9
$SURFTAB1
 70
6
  9
$SURFTAB2
 70
6
  9
$SURFTYPE
 70
6
  9
$SURFU
 70
6
  9
$SURFV
 70
6
  9
$UCSBASE
  2

  9
$UCSNAME
  2

  9
$UCSORG
 10
0.0
 20
0.0
 30
0.0
  9
$UCSXDIR
 10
1.0
 20
0.0
 30
0.0
  9
$UCSYDIR
 10
0.0
 20
1.0
 30
0.0
  9
$UCSORTHOREF
  2

  9
$UCSORTHOVIEW
 70
0
  9
$UCSORGTOP
 10
0.0
 20
0.0
 30
0.0
  9
$UCSORGBOTTOM
 10
0.0
 20
0.0
 30
0.0
  9
$UCSORGLEFT
 10
0.0
 20
0.0
 30
0.0
  9
$UCSORGRIGHT
 10
0.0
 20
0.0
 30
0.0
  9
$UCSORGFRONT
 10
0.0
 20
0.0
 30
0.0
  9
$UCSORGBACK
 10
0.0
 20
0.0
 30
0.0
  9
$PUCSBASE
  2

  9
$PUCSNAME
  2

  9
$PUCSORG
 10
0.0
 20
0.0
 30
0.0
  9
$PUCSXDIR
 10
1.0
 20
0.0
 30
0.0
  9
$PUCSYDIR
 10
0.0
 20
1.0
 30
0.0
  9
$PUCSORTHOREF
  2

  9
$PUCSORTHOVIEW
 70
0
  9
$PUCSORGTOP
 10
0.0
 20
0.0
 30
0.0
  9
$PUCSORGBOTTOM
 10
0.0
 20
0.0
 30
0.0
  9
$PUCSORGLEFT
 10
0.0
 20
0.0
 30
0.0
  9
$PUCSORGRIGHT
 10
0.0
 20
0.0
 30
0.0
  9
$PUCSORGFRONT
 10
0.0
 20
0.0
 30
0.0
  9
$PUCSORGBACK
 10
0.0
 20
0.0
 30
0.0
  9
$USERI1
 70
0
  9
$USERI2
 70
0
  9
$USERI3
 70
0
  9
$USERI4
 70
0
  9
$USERI5
 70
0
  9
$USERR1
 40
0.0
  9
$USERR2
 40
0.0
  9
$USERR3
 40
0.0
  9
$USERR4
 40
0.0
  9
$USERR5
 40
0.0
  9
$WORLDVIEW
 70
1
  9
$SHADEDGE
 70
3
  9
$SHADEDIF
 70
70
  9
$TILEMODE
 70
1
  9
$MAXACTVP
 70
64
  9
$PINSBASE
 10
0.0
 20
0.0
 30
0.0
  9
$PLIMCHECK
 70
0
  9
$PEXTMIN
 10
1e+20
 20
1e+20
 30
1e+20
  9
$PEXTMAX
 10
-1e+20
 20
-1e+20
 30
-1e+20
  9
$PLIMMIN
 10
0.0
 20
0.0
  9
$PLIMMAX
 10
420.0
 20
297.0
  9
$UNITMODE
 70
0
  9
$VISRETAIN
 70
1
  9
$PLINEGEN
 70
0
  9
$PSLTSCALE
 70
1
  9
$TREEDEPTH
 70
3020
  9
$CMLSTYLE
  2
Standard
  9
$CMLJUST
 70
0
  9
$CMLSCALE
 40
20.0
  9
$PROXYGRAPHICS
 70
1
  9
$MEASUREMENT
 70
1
  9
$CELWEIGHT
370
-1
  9
$ENDCAPS
280
0
  9
$JOINSTYLE
280
0
  9
$LWDISPLAY
290
0
  9
$INSUNITS
 70
6
  9
$HYPERLINKBASE
  1

  9
$STYLESHEET
  1

  9
$XEDIT
290
1
  9
$CEPSNTYPE
380
0
  9
$PSTYLEMODE
290
1
  9
$FINGERPRINTGUID
  2
{AF0BC7B3-B8C2-4D34-B676-15A9B2F91C24}
  9
$VERSIONGUID
  2
{02EC22D9-58EA-4259-869A-D3D751FB3268}
  9
$EXTNAMES
290
1
  9
$PSVPSCALE
 40
0.0
  9
$OLESTARTUP
290
0
  9
$SORTENTS
280
127
  9
$INDEXCTL
280
0
  9
$HIDETEXT
280
1
  9
$XCLIPFRAME
280
1
  9
$HALOGAP
280
0
  9
$OBSCOLOR
 70
257
  9
$OBSLTYPE
280
0
  9
$INTERSECTIONDISPLAY
280
0
  9
$INTERSECTIONCOLOR
 70
257
  9
$DIMASSOC
280
2
  9
$PROJECTNAME
  1

  9
$CAMERADISPLAY
290
0
  9
$LENSLENGTH
 40
50.0
  9
$CAMERAHEIGHT
 40
0.0
  9
$STEPSPERSEC
 40
24.0
  9
$STEPSIZE
 40
100.0
  9
$3DDWFPREC
 40
2.0
  9
$PSOLWIDTH
 40
0.005
  9
$PSOLHEIGHT
 40
0.08
  9
$LOFTANG1
 40
1.570796326795
  9
$LOFTANG2
 40
1.570796326795
  9
$LOFTMAG1
 40
0.0
  9
$LOFTMAG2
 40
0.0
  9
$LOFTPARAM
 70
7
  9
$LOFTNORMALS
280
1
  9
$LATITUDE
 40
37.795
  9
$LONGITUDE
 40
-122.394
  9
$NORTHDIRECTION
 40
0.0
  9
$TIMEZONE
 70
-8000
  9
$LIGHTGLYPHDISPLAY
280
1
  9
$TILEMODELIGHTSYNCH
280
1
  9
$CMATERIAL
347
20
  9
$SOLIDHIST
280
0
  9
$SHOWHIST
280
1
  9
$DWFFRAME
280
2
  9
$DGNFRAME
280
2
  9
$REALWORLDSCALE
290
1
  9
$INTERFERECOLOR
 62
256
  9
$CSHADOW
280
0
  9
$SHADOWPLANELOCATION
 40
0.0
  0
ENDSEC
  0
SECTION
  2
CLASSES
  0
CLASS
  1
ACDBDICTIONARYWDFLT
  2
AcDbDictionaryWithDefault
  3
ObjectDBX Classes
 90
0
 91
0
280
0
281
0
  0
CLASS
  1
SUN
  2
AcDbSun
  3
SCENEOE
 90
1153
 91
0
280
0
281
0
  0
CLASS
  1
VISUALSTYLE
  2
AcDbVisualStyle
  3
ObjectDBX Classes
 90
4095
 91
0
280
0
281
0
  0
CLASS
  1
MATERIAL
  2
AcDbMaterial
  3
ObjectDBX Classes
 90
1153
 91
0
280
0
281
0
  0
CLASS
  1
SCALE
  2
AcDbScale
  3
ObjectDBX Classes
 90
1153
 91
0
280
0
281
0
  0
CLASS
  1
TABLESTYLE
  2
AcDbTableStyle
  3
ObjectDBX Classes
 90
4095
 91
0
280
0
281
0
  0
CLASS
  1
MLEADERSTYLE
  2
AcDbMLeaderStyle
  3
ACDB_MLEADERSTYLE_CLASS
 90
4095
 91
0
280
0
281
0
  0
CLASS
  1
DICTIONARYVAR
  2
AcDbDictionaryVar
  3
ObjectDBX Classes
 90
0
 91
0
280
0
281
0
  0
CLASS
  1
CELLSTYLEMAP
  2
AcDbCellStyleMap
  3
ObjectDBX Classes
 90
1152
 91
0
280
0
281
0
  0
CLASS
  1
MENTALRAYRENDERSETTINGS
  2
AcDbMentalRayRenderSettings
  3
SCENEOE
 90
1024
 91
0
280
0
281
0
  0
CLASS
  1
ACDBDETAILVIEWSTYLE
  2
AcDbDetailViewStyle
  3
ObjectDBX Classes
 90
1025
 91
0
280
0
281
0
  0
CLASS
  1
ACDBSECTIONVIEWSTYLE
  2
AcDbSectionViewStyle
  3
ObjectDBX Classes
 90
1025
 91
0
280
0
281
0
  0
CLASS
  1
RASTERVARIABLES
  2
AcDbRasterVariables
  3
ISM
 90
0
 91
0
280
0
281
0
  0
CLASS
  1
LAYOUT
  2
AcDbLayout
  3
ObjectDBX Classes
 90
0
 91
0
280
0
281
0
  0
CLASS
  1
ACDBPLACEHOLDER
  2
AcDbPlaceHolder
  3
ObjectDBX Classes
 90
0
 91
0
280
0
281
0
  0
ENDSEC
  0
SECTION
  2
TABLES
  0
TABLE
  2
VPORT
  5
8
330
0
100
AcDbSymbolTable
 70
1
  0
VPORT
  5
23
330
8
100
AcDbSymbolTableRecord
100
AcDbViewportTableRecord
  2
*Active
 70
0
 10
0.0
 20
0.0
 11
1.0
 21
1.0
 12
0.0
 22
0.0
 13
0.0
 23
0.0
 14
0.5
 24
0.5
 15
0.5
 25
0.5
 16
0.0
 26
0.0
 36
1.0
 17
0.0
 27
0.0
 37
0.0
 40
1000.0
 41
1.34
 42
50.0
 43
0.0
 44
0.0
 50
0.0
 51
0.0
 71
0
 72
1000
 73
1
 74
3
 75
0
 76
0
 77
0
 78
0
281
0
 65
0
146
0.0
  0
ENDTAB
  0
TABLE
  2
LTYPE
  5
2
330
0
100
AcDbSymbolTable
 70
3
  0
LTYPE
  5
24
330
2
100
AcDbSymbolTableRecord
100
AcDbLinetypeTableRecord
  2
ByBlock
 70
0
  3

 72
65
 73
0
 40
0.0
  0
LTYPE
  5
25
330
2
100
AcDbSymbolTableRecord
100
AcDbLinetypeTableRecord
  2
ByLayer
 70
0
  3

 72
65
 73
0
 40
0.0
  0
LTYPE
  5
26
330
2
100
AcDbSymbolTableRecord
100
AcDbLinetypeTableRecord
  2
Continuous
 70
0
  3

 72
65
 73
0
 40
0.0
  0
ENDTAB
  0
TABLE
  2
LAYER
  5
1
330
0
100
AcDbSymbolTable
 70
2
  0
LAYER
  5
27
330
1
100
AcDbSymbolTableRecord
100
AcDbLayerTableRecord
  2
0
 70
0
 62
7
  6
Continuous
370
-3
390
13
347
21
  0
LAYER
  5
28
330
1
100
AcDbSymbolTableRecord
100
AcDbLayerTableRecord
  2
Defpoints
 70
0
 62
7
  6
Continuous
290
0
370
-3
390
13
347
21
  0
ENDTAB
  0
TABLE
  2
STYLE
  5
5
330
0
100
AcDbSymbolTable
 70
1
  0
STYLE
  5
29
330
5
100
AcDbSymbolTableRecord
100
AcDbTextStyleTableRecord
  2
Standard
 70
0
 40
0.0
 41
1.0
 50
0.0
 71
0
 42
2.5
  3
txt
  4

  0
ENDTAB
  0
TABLE
  2
VIEW
  5
7
330
0
100
AcDbSymbolTable
 70
0
  0
ENDTAB
  0
TABLE
  2
UCS
  5
6
330
0
100
AcDbSymbolTable
 70
0
  0
ENDTAB
  0
TABLE
  2
APPID
  5
3
330
0
100
AcDbSymbolTable
 70
3
  0
APPID
  5
2A
330
3
100
AcDbSymbolTableRecord
100
AcDbRegAppTableRecord
  2
ACAD
 70
0
  0
APPID
  5
30
330
3
100
AcDbSymbolTableRecord
100
AcDbRegAppTableRecord
  2
HATCHBACKGROUNDCOLOR
 70
0
  0
APPID
  5
31
330
3
100
AcDbSymbolTableRecord
100
AcDbRegAppTableRecord
  2
EZDXF
 70
0
  0
ENDTAB
  0
TABLE
  2
DIMSTYLE
  5
4
330
0
100
AcDbSymbolTable
 70
1
100
AcDbDimStyleTable
  0
DIMSTYLE
105
2B
330
4
100
AcDbSymbolTableRecord
100
AcDbDimStyleTableRecord
  2
Standard
 70
0
 40
1.0
 41
2.5
 42
0.625
 43
3.75
 44
1.25
 45
0.0
 46
0.0
 47
0.0
 48
0.0
 49
2.5
140
2.5
141
2.5
142
0.0
143
0.03937007874
144
1.0
145
0.0
146
1.0
147
0.625
148
0.0
 69
0
 70
0
 71
0
 72
0
 73
0
 74
0
 75
0
 76
0
 77
1
 78
8
 79
3
170
0
171
3
172
1
173
0
174
0
175
0
176
0
177
0
178
0
179
2
271
2
272
2
273
2
274
3
275
0
276
0
277
2
278
44
279
0
280
0
281
0
282
0
283
0
284
8
285
0
286
0
288
0
289
3
290
0
371
-2
372
-2
  0
ENDTAB
  0
TABLE
  2
BLOCK_RECORD
  5
9
330
0
100
AcDbSymbolTable
 70
2
  0
BLOCK_RECORD
  5
17
330
9
100
AcDbSymbolTableRecord
100
AcDbBlockTableRecord
  2
*Model_Space
340
1A
 70
0
280
1
281
0
  0
BLOCK_RECORD
  5
1B
330
9
100
AcDbSymbolTableRecord
100
AcDbBlockTableRecord
  2
*Paper_Space
340
1E
 70
0
280
1
281
0
  0
ENDTAB
  0
ENDSEC
  0
SECTION
  2
BLOCKS
  0
BLOCK
  5
18
330
17
100
AcDbEntity
  8
0
100
AcDbBlockBegin
  2
*Model_Space
 70
0
 10
0.0
 20
0.0
 30
0.0
  3
*Model_Space
  1

  0
ENDBLK
  5
19
330
17
100
AcDbEntity
  8
0
100
AcDbBlockEnd
  0
BLOCK
  5
1C
330
1B
100
AcDbEntity
  8
0
100
AcDbBlockBegin
  2
*Paper_Space
 70
0
 10
0.0
 20
0.0
 30
0.0
  3
*Paper_Space
  1

  0
ENDBLK
  5
1D
330
1B
100
AcDbEntity
  8
0
100
AcDbBlockEnd
  0
ENDSEC
  0
SECTION
  2
ENTITIES
  0
LWPOLYLINE
  5
2F
330
17
100
AcDbEntity
  8
0
100
AcDbPolyline
 90
721
 70
1
 10
91.5965303560682
 20
36.22071823280113
 10
91.59355441710642
 20
36.220648056780334
 10
91.58473472176803
 20
36.220164106239295
 10
91.57028751314695
 20
36.218719536220625
 10
91.54996795845693
 20
36.21653370842956
 10
91.52421166249702
 20
36.21330461069501
 10
91.49282785325445
 20
36.20911489348286
 10
91.45573388026337
 20
36.20377378478029
 10
91.41320316600239
 20
36.19738940613425
 10
91.3651530600057
 20
36.189770985531915
 10
91.31133872948702
 20
36.1811378846785
 10
91.25214171847198
 20
36.17132480264229
 10
91.18742531572119
 20
36.160277678649784
 10
91.11713546046121
 20
36.14813322394033
 10
91.041380274239
 20
36.13461801603527
 10
90.96005163550763
 20
36.12000547741326
 10
90.87334031627985
 20
36.10421295760843
 10
90.78110960531635
 20
36.08718639584733
 10
90.68330544184367
 20
36.06906250336928
 10
90.58017265864811
 20
36.0496219184691
 10
90.47146642294334
 20
36.02908400285197
 10
90.35729485627635
 20
36.007175334039225
 10
90.23782325957885
 20
35.98427745605649
 10
90.11269555990629
 20
35.96009147534398
 10
89.98232189097669
 20
35.93477957422217
 10
89.84642883031137
 20
35.908233631144064
 10
89.70515308914968
 20
35.88050770688316
 10
89.5584946674916
 20
35.851601801439436
 10
89.4063995045637
 20
35.82165262605228
 10
89.24886760036591
 20
35.79066018072163
 10
89.08600707644524
 20
35.75835104296886
 10
88.9177098112547
 20
35.72499863527261
 10
88.74416657680713
 20
35.690520307167056
 10
88.56518660108972
 20
35.65499870911803
 10
88.38087800564941
 20
35.61816041864687
 10
88.19126938017855
 20
35.58033291900572
 10
87.99630666390371
 20
35.541652921433915
 10
87.79615203914533
 20
35.501710292213474
 10
87.59056067311707
 20
35.46072439304957
 10
87.37986004907111
 20
35.41866663424981
 10
87.16372268375532
 20
35.375565605506594
 10
86.94242199964832
 20
35.33152942836687
 10
86.71582128551081
 20
35.286504042057175
 10
86.48405725258212
 20
35.24054350735097
 10
86.24704725039642
 20
35.19345705223546
 10
86.004927990193
 20
35.14529873748409
 10
85.75745463918555
 20
35.09628792480209
 10
85.50495468062627
 20
35.046396024497064
 10
85.24729140327581
 20
34.995568975795535
 10
84.98446480713417
 20
34.943806778697514
 10
84.71647489220135
 20
34.891109433202985
 10
84.44340430894322
 20
34.837667711324784
 10
84.16517040689388
 20
34.783290841050075
 10
83.8818558365192
 20
34.72816959439167
 10
83.59351465859268
 20
34.672167260110264
 10
83.30025499466134
 20
34.61501041572717
 10
83.00210543441744
 20
34.557026544494526
 10
82.69882114507475
 20
34.498435008117546
 10
82.39040212663322
 20
34.43923580659621
 10
82.07714727265271
 20
34.37907286698601
 10
81.75900252235965
 20
34.318082900526264
 10
81.43596787575412
 20
34.25626590721699
 10
81.10788115051561
 20
34.19403202077618
 10
80.77501265051158
 20
34.13069768500718
 10
80.43739096543436
 20
34.066590383162094
 10
80.0949620345105
 20
34.0018468264803
 10
79.74753508572716
 20
33.93654966542766
 10
79.3954376023365
 20
33.870670310311766
 10
79.0385869338727
 20
33.80401798911983
 10
78.67698308033569
 20
33.73659270185182
 10
78.31065463141792
 20
33.66872193175994
 10
77.93981783021327
 20
33.59985883388679
 10
77.56422784393546
 20
33.53022276993759
 10
77.18410403428963
 20
33.46005857269863
 10
76.79944640127586
 20
33.38936624216991
 10
76.41022635520174
 20
33.3178182950993
 10
76.01638983529378
 20
33.245551442726104
 10
75.61821026403067
 20
33.172673806597295
 10
75.21544280862607
 20
33.09940474841807
 10
74.8082496514005
 20
33.02533413447043
 10
74.39676750359324
 20
32.950516025527826
 10
73.98099636520429
 20
32.87495042159028
 10
73.56082811468671
 20
32.79891074513646
 10
73.1362627520405
 20
32.72239699616637
 10
72.7073543380391
 20
32.64527246344066
 10
72.27443035593474
 20
32.56750855726698
 10
71.8371633224752
 20
32.48913386733769
 10
71.39568994889983
 20
32.41020245442626
 10
70.95030912876845
 20
32.33035824558818
 10
70.50083009006818
 20
32.24968389128929
 10
70.04722736171799
 20
32.168643586021105
 10
69.58963765495714
 20
32.08729139055707
 10
69.12789566885395
 20
32.00524576087158
 10
68.66243700820756
 20
31.922204684793584
 10
68.19304542992403
 20
31.838715007280417
 10
67.71977499477681
 20
31.754640017092743
 10
67.24257164199247
 20
31.67011642546992
 10
66.76168020435726
 20
31.584924870706722
 10
66.27710068187123
 20
31.499065352803175
 10
65.78869636329502
 20
31.41248381098579
 10
65.2966866103338
 20
31.325425078040855
 10
64.80093471174825
 20
31.237835093194906
 10
64.3016855003247
 20
31.14949449474275
 10
63.798938976063106
 20
31.060403282684376
 10
63.292831850202816
 20
30.970615517793263
 10
62.78317335073104
 20
30.880213850535284
 10
62.26999206734011
 20
30.789525764162583
 10
61.75331347111119
 20
30.698087064183667
 10
61.23349363498873
 20
30.60619664415832
 10
60.710475379588075
 20
30.51319953758224
 10
60.184204644135676
 20
30.419232455694743
 10
59.654792668789774
 20
30.324813653760813
 10
59.12218539277689
 20
30.230079843019798
 10
58.58627157593881
 20
30.134512768206704
 10
58.04770618477985
 20
30.0380552499368
 10
57.50613314635547
 20
29.940408394650305
 10
56.961663700823856
 20
29.842090457612166
 10
56.41410707617226
 20
29.74318408928827
 10
55.86379075565281
 20
29.64366069998624
 10
55.3107402103466
 20
29.543056095214556
 10
54.75498402994601
 20
29.44169775822541
 10
54.19641409290409
 20
29.33985911149745
 10
53.63530070308825
 20
29.236856598834002
 10
53.071697921271955
 20
29.132553508995727
 10
52.50560886606647
 20
29.027741519726263
 10
51.93681417576663
 20
28.922175798239333
 10
51.36553321207759
 20
28.816101177321215
 10
50.79209033964027
 20
28.708697389535903
 10
50.21643149768118
 20
28.600101146122725
 10
49.638448564653345
 20
28.490585869560352
 10
49.057979358236324
 20
28.380561693566804
 10
48.47551354400273
 20
28.269589894731684
 10
47.89099394256782
 20
28.157015506550696
 10
47.304668505329126
 20
28.043410845062283
 10
46.71599350594062
 20
27.929351344916178
 10
46.12532189873551
 20
27.8143442219285
 10
45.532869926807756
 20
27.697842631141917
 10
44.93880289108907
 20
27.58022811658206
 10
44.34279330832726
 20
27.461529267941284
 10
43.74506054022757
 20
27.34199091800593
 10
43.1455219363241
 20
27.22142229476314
 10
42.54442232940319
 20
27.09960403650775
 10
41.94189843070416
 20
26.976590204013217
 10
41.33781352898765
 20
26.852326736506075
 10
40.73244104673237
 20
26.726921755533287
 10
40.12550756145961
 20
26.600267139547874
 10
39.51717837410114
 20
26.472744432575503
 10
38.90750754543038
 20
26.344216923376813
 10
38.296765379314756
 20
26.21400105575512
 10
37.68484375420733
 20
26.08237025218911
 10
37.07196203181325
 20
25.949569345465072
 10
36.45779272888041
 20
25.815626925275385
 10
35.84271738943441
 20
25.680377690688342
 10
35.22679007424877
 20
25.543684930464593
 10
34.610064844096925
 20
25.40541193336481
 10
33.992433577431925
 20
25.265832121867668
 10
33.373978924719665
 20
25.125136267985994
 10
32.75470088596009
 20
24.983324371719764
 10
32.134898354713
 20
24.840040360124462
 10
31.514488680512578
 20
24.695093461187284
 10
30.8936626353716
 20
24.54840102444235
 10
30.272394748208967
 20
24.400427244381163
 10
29.65038612546489
 20
24.251528193948253
 10
29.02801831116503
 20
24.101538572211908
 10
28.405587080257877
 20
23.94931062848395
 10
27.782768068102566
 20
23.795664630200402
 10
27.159780636404278
 20
23.64084541014757
 10
26.536596195470644
 20
23.48452548507329
 10
25.91326880607513
 20
23.32656814373823
 10
25.28990970837599
 20
23.167491641407363
 10
24.66643625190733
 20
23.007105206067855
 10
24.04314733022897
 20
22.8450527647752
 10
23.41990623210156
 20
22.681280256755905
 10
22.7969323192303
 20
22.516032514796276
 10
22.174171530841697
 20
22.349446250135646
 10
21.551786049256194
 20
22.181111329056
 10
20.929721813700326
 20
22.01116446279668
 10
20.308061474639935
 20
21.839796423370508
 10
19.68650613851524
 20
21.667363283722008
 10
19.065653592445805
 20
21.493152897962116
 10
18.445503836431637
 20
21.317165266090843
 10
17.826002809699254
 20
21.13953709934752
 10
17.207096451475163
 20
20.960405108971486
 10
16.58897553377221
 20
20.779686644496884
 10
15.971449284577535
 20
20.597464356389573
 10
15.354845187143324
 20
20.413709654957174
 10
14.739271363016524
 20
20.228149117721014
 10
14.124673751423673
 20
20.04091945592043
 10
13.51099829159127
 20
19.85215738079476
 10
12.898299044292822
 20
19.661726181104676
 10
12.286957553553934
 20
19.469460555918452
 10
11.67672898658833
 20
19.275579866941285
 10
11.067641933088368
 20
19.080411597425336
 10
10.459829985682132
 20
18.883218130400433
 10
9.853458445301323
 20
18.684381009892217
 10
9.248365129625508
 20
18.484310369618697
 10
8.644575509735786
 20
18.28254201508838
 10
8.042471129657804
 20
18.07891064536956
 10
7.441943867844581
 20
17.8736896829409
 10
6.842965134603755
 20
17.666551644550253
 10
6.245700230867038
 20
17.457878074223256
 10
5.650120566942058
 20
17.247341488707747
 10
5.056445504533995
 20
17.035186720790033
 10
4.464239438843742
 20
16.82171578264116
 10
3.873883913896936
 20
16.606763373329418
 10
3.2855951727875
 20
16.38978264789746
 10
2.6993191547419513
 20
16.170910317584617
 10
2.1150303886791844
 20
15.950610576882386
 10
1.5327829353726932
 20
15.728746714551438
 10
0.9526308555959289
 20
15.505182019352416
 10
0.3747108605882634
 20
15.27997055205882
 10
-0.20122188243662786
 20
15.053331674375837
 10
-0.7751387837863649
 20
14.825592869555617
 10
-1.3466868891276844
 20
14.5962613534143
 10
-1.9157580769136067
 20
14.365063703473215
 10
-2.4824604686911225
 20
14.132273342211024
 10
-3.046711413994353
 20
13.898081041640557
 10
-3.6086476240626544
 20
13.66243274098833
 10
-4.168186448430151
 20
13.425519212267158
 10
-4.725245236631013
 20
13.187531227489858
 10
-5.27974445681062
 20
12.947867880925612
 10
-5.831547397729652
 20
12.706583233347892
 10
-6.38078765201619
 20
12.464414901726864
 10
-6.927493809362584
 20
12.22103540281038
 10
-7.4713383865167
 20
11.976416146906056
 10
-8.012594805957196
 20
11.730449012466936
 10
-8.5509896452054
 20
11.483242121039984
 10
-9.086494314568954
 20
11.235122955877355
 10
-9.619436297299996
 20
10.986120106671418
 10
-10.149408578291789
 20
10.735604077998975
 10
-10.676462099706546
 20
10.48450325884301
 10
-11.200841694330554
 20
10.233037010908719
 10
-11.722359708762292
 20
9.98033100598659
 10
-12.240606009283722
 20
9.726547426397076
 10
-12.755879489454644
 20
9.472042345084697
 10
-13.268234210048519
 20
9.216952473288805
 10
-13.777562049518398
 20
8.96100438853071
 10
-14.283643646159081
 20
8.704442923596723
 10
-14.78675242244925
 20
8.447159956939881
 10
-15.286777138230676
 20
8.18967374382515
 10
-15.783609671956388
 20
7.931710861773864
 10
-16.277195962852904
 20
7.673134599546687
 10
-16.76759007169371
 20
7.4140816683829485
 10
-17.254763408786438
 20
7.154879551534809
 10
-17.738852685370414
 20
6.895474188228789
 10
-18.21947635742001
 20
6.635700277533173
 10
-18.696634424935212
 20
6.375557819447964
 10
-19.17040953838189
 20
6.11485604196034
 10
-19.64071904729418
 20
5.853785717083124
 10
-20.10772513399253
 20
5.592756978534325
 10
-20.571345148011087
 20
5.331960598326765
 10
-21.031362846255913
 20
5.070849731503093
 10
-21.487914939966362
 20
4.809370317289828
 10
-21.94053723465093
 20
4.547547826768075
 10
-22.389665335108738
 20
4.285684272108884
 10
-22.835353302113273
 20
4.023916364551594
 10
-23.277327713185848
 20
3.76235222564317
 10
-23.715534507552995
 20
3.5008551441442695
 10
-24.149948214133598
 20
3.238960925563401
 10
-24.580648364782245
 20
2.9772704756313986
 10
-25.00779714181939
 20
2.7161939280662706
 10
-25.43098753013828
 20
2.4551017874448147
 10
-25.850356240978254
 20
2.1939399929935446
 10
-26.2657379734076
 20
1.933090088738106
 10
-26.677269438665657
 20
1.6724980139050103
 10
-27.085004697525907
 20
1.412300479733596
 10
-27.48864485642856
 20
1.1521414132793377
 10
-27.888298036920595
 20
0.8922942370209034
 10
-28.283964239002
 20
0.6327589509582977
 10
-28.6758597057667
 20
0.37408240004887067
 10
-29.06365695396255
 20
0.11623599460024384
 10
-29.44746722374777
 20
-0.1412985206525541
 10
-29.82704568233606
 20
-0.39874050741471645
 10
-30.20247186158202
 20
-0.6554890599554155
 10
-30.573990594271933
 20
-0.9113248165694549
 10
-30.941248926072547
 20
-1.1667405614407034
 10
-31.30421826729149
 20
-1.4214088113170038
 10
-31.663226101180907
 20
-1.6753009765059836
 10
-32.017999005262126
 20
-1.9283089354606768
 10
-32.36837479721471
 20
-2.1808428218991014
 10
-32.71451565935911
 20
-2.4324925021032398
 10
-33.05647565246879
 20
-2.6831212648337543
 10
-33.394200715770275
 20
-2.932865821329984
 10
-33.72755413802423
 20
-3.1816721108184463
 10
-34.05648185845717
 20
-3.4296768445384798
 10
-34.38117464908192
 20
-3.676797372024228
 10
-34.701359087419796
 20
-3.9229255717287304
 10
-35.01714329501777
 20
-4.167788021173307
 10
-35.32869257280755
 20
-4.4117662643835995
 10
-35.635596787071115
 20
-4.654698119039161
 10
-35.93793858827434
 20
-4.896774357152811
 10
-36.23593421951114
 20
-5.137448133767201
 10
-36.52958368078152
 20
-5.376719448882333
 10
-36.818642139299165
 20
-5.614807664203392
 10
-37.103055534290604
 20
-5.851849490969725
 10
-37.3829065162217
 20
-6.088035701194147
 10
-37.65819196648119
 20
-6.322574617133004
 10
-37.928994535534905
 20
-6.555657010799119
 10
-38.195206101835886
 20
-6.787556304671168
 10
-38.45668995414482
 20
-7.0182184379756665
 10
-38.713554214008646
 20
-7.247369988233941
 10
-38.965690759880424
 20
-7.475284377924667
 10
-39.21315365253362
 20
-7.701824895808504
 10
-39.45599695274171
 20
-7.926854830646119
 10
-39.69397582771839
 20
-8.150593544142701
 10
-39.927252459784135
 20
-8.372630902580239
 10
-40.155747317084334
 20
-8.593567811689567
 10
-40.37953993147357
 20
-8.812803365739851
 10
-40.59857624217838
 20
-9.030474275970427
 10
-40.812802188425266
 20
-9.246717253620634
 10
-41.0220810589749
 20
-9.461478237916992
 10
-41.2266036258401
 20
-9.674674578393647
 10
-41.42639536010196
 20
-9.885842080559094
 10
-41.621348140213534
 20
-10.095254166892023
 10
-41.811461966174825
 20
-10.302910837392426
 10
-41.996927609998636
 20
-10.508729441594443
 10
-42.17741758843283
 20
-10.712738569190458
 10
-42.353176734263684
 20
-10.914718858475272
 10
-42.524176457798845
 20
-11.114342826196726
 10
-42.690553470277635
 20
-11.311664533128306
 10
-42.852062938913754
 20
-11.506903340975203
 10
-43.008895635720044
 20
-11.69997659927157
 10
-43.16077813821781
 20
-11.890776186470427
 10
-43.30809199043268
 20
-12.079136801640075
 10
-43.45061783065949
 20
-12.264813611994212
 10
-43.588384248590586
 20
-12.44813410078499
 10
-43.721391244225984
 20
-12.629098268012408
 10
-43.849638817565676
 20
-12.807706113676472
 10
-43.9730983789173
 20
-12.983630154525025
 10
-44.091769928280854
 20
-13.156870390558062
 10
-44.20562799457522
 20
-13.327891016267081
 10
-44.31469804888151
 20
-13.496227837160585
 10
-44.41876384810579
 20
-13.662427698195925
 10
-44.518041635342
 20
-13.825943754415754
 10
-44.61231516749621
 20
-13.987322850777415
 10
-44.70169256611537
 20
-14.146291564802238
 10
-44.78617383119951
 20
-14.302849896490228
 10
-44.865568190735786
 20
-14.457080496307231
 10
-44.94025718874983
 20
-14.608818063321543
 10
-45.00966850920321
 20
-14.758310548930725
 10
-45.07432040736087
 20
-14.905446712976548
 10
-45.133885399970694
 20
-15.05025514515139
 10
-45.18852566935309
 20
-15.192325711737238
 10
-45.23826980520047
 20
-15.331985895986247
 10
-45.283035157046925
 20
-15.469044925885596
 10
-45.32303796798643
 20
-15.602955956477938
 10
-45.35825276693785
 20
-15.73418318225477
 10
-45.38865096420883
 20
-15.86239911996393
 10
-45.414340681346324
 20
-15.987330347126749
 10
-45.43553816144425
 20
-16.108430018785864
 10
-45.45224340450264
 20
-16.22569813494129
 10
-45.464701243307736
 20
-16.33891533388783
 10
-45.47290855924833
 20
-16.447289937881827
 10
-45.477218306657676
 20
-16.550329162739427
 10
-45.478307804509896
 20
-16.64671995684072
 10
-45.476282055740725
 20
-16.73539721996339
 10
-45.47214274396519
 20
-16.814227633051527
 10
-45.466891552798344
 20
-16.881077877049194
 10
-45.46155251832507
 20
-16.93255876066535
 10
-45.45761387112175
 20
-16.965306563690028
 10
-45.11470898134703
 20
-17.840055248991607
 10
-45.109354368352044
 20
-17.84600036750166
 10
-45.093344590140575
 20
-17.863699011792484
 10
-45.06689588980657
 20
-17.892604336906732
 10
-45.028952522961454
 20
-17.934986373139655
 10
-44.978652635840824
 20
-17.993824178064298
 10
-44.91867067742638
 20
-18.06195470646164
 10
-44.85054582045674
 20
-18.13508584913874
 10
-44.77525427746579
 20
-18.21154848153117
 10
-44.69379461345738
 20
-18.288417606839367
 10
-44.60651666415347
 20
-18.364408763135817
 10
-44.513964155900126
 20
-18.43894651577078
 10
-44.41621662055198
 20
-18.511429959013444
 10
-44.31349030120293
 20
-18.581312247906443
 10
-44.20589331939996
 20
-18.64831995997111
 10
-44.09342567514305
 20
-18.71245309520745
 10
-43.97627814044503
 20
-18.773629003149598
 10
-43.85442212561353
 20
-18.831520200545402
 10
-43.72780356987506
 20
-18.8862633986342
 10
-43.59661324524244
 20
-18.93777594695013
 10
-43.460606318929365
 20
-18.986277207198395
 10
-43.319836851709326
 20
-19.03163046813965
 10
-43.17468638760796
 20
-19.073670428842185
 10
-43.02458261058682
 20
-19.11264504070357
 10
-42.869989715137365
 20
-19.14857977480491
 10
-42.710580218007465
 20
-19.18150322083858
 10
-42.54654489120995
 20
-19.211332728338725
 10
-42.37793779551827
 20
-19.237931586066008
 10
-42.204596748612005
 20
-19.26170992773844
 10
-42.026629872038114
 20
-19.28239433087735
 10
-41.843820922702655
 20
-19.300531640440077
 10
-41.656332082926085
 20
-19.315711722708617
 10
-41.46419194240079
 20
-19.328262060935128
 10
-41.2672637898874
 20
-19.338128594346124
 10
-41.06543950383899
 20
-19.34558474542028
 10
-40.858909856268355
 20
-19.350547863691748
 10
-40.647620786402015
 20
-19.353154660399852
 10
-40.43157229423997
 20
-19.3534051355446
 10
-40.21046548622245
 20
-19.351655362070527
 10
-39.9846278456016
 20
-19.347876750285256
 10
-39.753840010672214
 20
-19.34182446740247
 10
-39.518375403913005
 20
-19.333606634969158
 10
-39.27798919253763
 20
-19.3234426146905
 10
-39.03281808778546
 20
-19.31138646733998
 10
-38.78277943919062
 20
-19.297247420904775
 10
-38.528118079539404
 20
-19.28080611367969
 10
-38.268643236819024
 20
-19.262145196130597
 10
-38.004574272734644
 20
-19.241509501043776
 10
-37.73577447604693
 20
-19.218844967645758
 10
-37.462243846755904
 20
-19.194151595936543
 10
-37.18414456718198
 20
-19.16701925219811
 10
-36.901613348564524
 20
-19.137501997203948
 10
-36.61451347966418
 20
-19.10554577018058
 10
-36.32287355017332
 20
-19.07147805438015
 10
-36.026693560091964
 20
-19.03529884980267
 10
-35.726189752514024
 20
-18.996461311490776
 10
-35.42139071713187
 20
-18.955292922696636
 10
-35.11221380347966
 20
-18.91160291140743
 10
-34.798604950783904
 20
-18.865527988862496
 10
-34.48070087028394
 20
-18.817122215835308
 10
-34.15855562275324
 20
-18.766248881086536
 10
-33.83211514741834
 20
-18.713044695855515
 10
-33.50137944427924
 20
-18.657509660142246
 10
-33.166402574109405
 20
-18.59950706270739
 10
-32.82726718737471
 20
-18.539227675563765
 10
-32.483973284075134
 20
-18.47667149871138
 10
-32.13643821374483
 20
-18.411647760137402
 10
-31.784827277315518
 20
-18.344538003867473
 10
-31.429057824321337
 20
-18.275151457888782
 10
-31.069075793988794
 20
-18.20362483344066
 10
-30.70507195833073
 20
-18.129875480057255
 10
-30.337208499667575
 20
-18.053493264020553
 10
-29.965323235678888
 20
-17.974888319048564
 10
-29.589171333578367
 20
-17.89428000684648
 10
-29.209216987857502
 20
-17.81169379849542
 10
-28.825294897584595
 20
-17.72674814996973
 10
-28.437459123533113
 20
-17.639306350030083
 10
-28.045874966634774
 20
-17.54974994270211
 10
-27.650351654876758
 20
-17.458161578451676
 10
-27.25099730980603
 20
-17.3642678348001
 10
-26.847948642661926
 20
-17.268122772520865
 10
-26.441259714217924
 20
-17.16958968037463
 10
-26.030768342153582
 20
-17.069078692079415
 10
-25.616582648015868
 20
-16.96631638515654
 10
-25.198594510257813
 20
-16.86157618208468
 10
-24.77723953367854
 20
-16.754556070692786
 10
-24.352190235025887
 20
-16.645284640673236
 10
-23.9235833255392
 20
-16.533815952799507
 10
-23.491501455684322
 20
-16.420340779084416
 10
-23.0559160357689
 20
-16.30453163627582
 10
-22.616855655485285
 20
-16.186716007625858
 10
-22.174511086846305
 20
-16.066811242668685
 10
-21.728717028920258
 20
-15.94443579737866
 10
-21.279746904185806
 20
-15.819697793302748
 10
-20.827438530322503
 20
-15.693007364158952
 10
-20.37179190733037
 20
-15.564364509947287
 10
-19.912807035209376
 20
-15.433769230667746
 10
-19.450782807519325
 20
-15.300865453375794
 10
-18.98582734580717
 20
-15.165379755592765
 10
-18.517587695739664
 20
-15.027804921502518
 10
-18.046337279795456
 20
-14.888249072652027
 10
-17.572047508282193
 20
-14.746384725789122
 10
-17.094963213986162
 20
-14.601992519208622
 10
-16.61492221458693
 20
-14.455482586628532
 10
-16.131953099776855
 20
-14.307182411301012
 10
-15.646027279863583
 20
-14.156764509973906
 10
-15.157306937167544
 20
-14.003818748929199
 10
-14.665957372620454
 20
-13.848726672192532
 10
-14.171924525448834
 20
-13.691624991003238
 10
-13.674934973174004
 20
-13.532405583814358
 10
-13.175452910287468
 20
-13.371093921706997
 10
-12.673449747096841
 20
-13.207362521429005
 10
-12.168925483602122
 20
-13.04121138298037
 10
-11.661962770269179
 20
-12.872831278373923
 10
-11.15229130323059
 20
-12.702905763806342
 10
-10.640209976046146
 20
-12.531078766333104
 10
-10.125798320570434
 20
-12.356749380223372
 10
-9.609002276029972
 20
-12.18005431671649
 10
-9.090095264903436
 20
-12.001101697359411
 10
-8.568724332857558
 20
-11.820384306336013
 10
-8.045134312678648
 20
-11.637682781941098
 10
-7.5193252043666945
 20
-11.452997124174669
 10
-6.9914051294686645
 20
-11.266053910558044
 10
-6.461320027211082
 20
-11.076989852330572
 10
-5.929235198525656
 20
-10.886186493517881
 10
-5.39498534248067
 20
-10.693262290094337
 10
-4.858952003101769
 20
-10.49805194112823
 10
-4.3210811196154575
 20
-10.300692157858894
 10
-3.7813186312482747
 20
-10.10131965152567
 10
-3.2395818875343476
 20
-9.899743650115733
 10
-2.6963891437386747
 20
-9.695852913470862
 10
-2.1516577493953695
 20
-9.489456669578233
 10
-1.6049266286242223
 20
-9.281321125100387
 10
-1.0565232646773886
 20
-9.071417690344955
 10
-0.5069087334350867
 20
-8.858980158649386
 10
0.044352569901784406
 20
-8.64431054218474
 10
0.597177994867385
 20
-8.42759961296383
 10
1.1511859974360772
 20
-8.208682070054941
 10
1.7065959393130408
 20
-7.987313080671781
 10
2.26313439801962
 20
-7.763600766361302
 10
2.821154327889058
 20
-7.538037911307384
 10
3.3804108961350634
 20
-7.3104051538048305
 10
3.940497087650906
 20
-7.080072998430428
 10
4.5017117959963375
 20
-6.847397518128716
 10
5.0641345530259745
 20
-6.612979618630522
 10
5.6274664651800155
 20
-6.37646322699132
 10
6.191790182924332
 20
-6.137657571198282
 10
6.7570771165665295
 20
-5.89689013450358
 10
7.3231110230127054
 20
-5.653614071949845
 10
7.889891902262845
 20
-5.407829383537089
 10
8.457499286171542
 20
-5.16013697499614
 10
9.025850524272931
 20
-4.910727618339824
 10
9.59502826703289
 20
-4.659410541555307
 10
10.164733620891605
 20
-4.405829671698076
 10
10.73507470739607
 20
-4.150258431246792
 10
11.306051526546272
 20
-3.892696820201461
 10
11.87752736710287
 20
-3.633198899335565
 10
12.44934004674542
 20
-3.3713545349310916
 10
13.021597687020892
 20
-3.107437149466713
 10
13.594243108544537
 20
-2.8421017094467427
 10
14.167495673021536
 20
-2.5751033820848863
 10
14.740919775652783
 20
-2.306140155210088
 10
15.314706188451094
 20
-2.035294679288204
 10
15.888581488937792
 20
-1.7626750758662
 10
16.46273644912569
 20
-1.4883639954099344
 10
17.037117008241314
 20
-1.2122247266800654
 10
17.611503804579474
 20
-0.934502102462894
 10
18.186141670926467
 20
-0.6554154844636115
 10
18.76097654650881
 20
-0.37482816144288605
 10
19.33568094807435
 20
-0.09271154370834002
 10
19.910445647635903
 20
0.19085171827416963
 10
20.485242055501093
 20
0.4755341412524878
 10
21.059990639815325
 20
0.7619366309574385
 10
21.63452609964691
 20
1.0496776433633968
 10
22.208956556542795
 20
1.3384837559916765
 10
22.7832279497295
 20
1.6284916800816234
 10
23.357232157660057
 20
1.9199748381119053
 10
23.93107730188144
 20
2.212659807603851
 10
24.50459808146192
 20
2.506165044531817
 10
25.077823086093893
 20
2.800818032147967
 10
25.650777786858455
 20
3.096154575960805
 10
26.223300001435167
 20
3.392584809688341
 10
26.79533566905054
 20
3.6902454445699164
 10
27.36699291125154
 20
3.988863058126852
 10
27.938160487879934
 20
4.287919395094171
 10
28.50897511017506
 20
4.587468516245359
 10
29.079137884577158
 20
4.887866494524948
 10
29.648702871859673
 20
5.188976618693597
 10
30.21767007202262
 20
5.490798888751304
 10
30.786093545839496
 20
5.793196593458738
 10
31.353645810058133
 20
6.096198322508269
 10
31.920517636691354
 20
6.399721425434047
 10
32.486626375273275
 20
6.703575130223236
 10
33.05221685859023
 20
7.007540075170661
 10
33.6167994210696
 20
7.3120549836866955
 10
34.18042812348488
 20
7.616983144532012
 10
34.74350998094281
 20
7.921695062283402
 10
35.305447206323834
 20
8.22690288282993
 10
35.86618573885446
 20
8.532743317410924
 10
36.42618665441492
 20
8.838450159363852
 10
36.98528465207349
 20
9.143641864663064
 10
37.54329207842862
 20
9.449192761518074
 10
38.10012628301446
 20
9.754912077916057
 10
38.655650554591695
 20
10.060745753083543
 10
39.2101097259466
 20
10.366474425315332
 10
39.7634211466133
 20
10.671907322598592
 10
40.31563887736533
 20
10.976907733694011
 10
40.866518085416345
 20
11.281695020306763
 10
41.4159506492194
 20
11.586542604915527
 10
41.96409875109493
 20
11.891040353802294
 10
42.51096239104294
 20
12.195188266967062
 10
43.05632220735826
 20
12.498741511623534
 10
43.60045162251952
 20
12.801808209318663
 10
44.14291503172763
 20
13.104690372223509
 10
44.68376649575607
 20
13.40725128909873
 10
45.223276318472216
 20
13.708807403747631
 10
45.761390439102655
 20
14.009495427409572
 10
46.29772731362169
 20
14.309480661016241
 10
46.8326144252815
 20
14.608734514875275
 10
47.36572429082992
 20
14.907285578679044
 10
47.89719362150627
 20
15.205187913201028
 10
48.426993827618226
 20
15.502114035189082
 10
48.95498819792641
 20
15.798009883869709
 10
49.48142156521715
 20
16.09265609753773
 10
50.00585832469128
 20
16.38635468836418
 10
50.52857189882753
 20
16.67921377789603
 10
51.04923480437371
 20
16.97126195582566
 10
51.56817140597071
 20
17.26167895471703
 10
52.085244992379224
 20
17.550410713796673
 10
52.600404621437
 20
17.838385622047568
 10
53.113186098652555
 20
18.12557820838861
 10
53.62429533269245
 20
18.411002904452065
 10
54.133404840304465
 20
18.694688299930302
 10
54.640298378394725
 20
18.977181239780677
 10
55.1449759469632
 20
19.258481724003182
 10
55.6474916067834
 20
19.53845304135849
 10
56.1481156617227
 20
19.8164116356499
 10
56.6464665677555
 20
20.092522807809143
 10
57.14265556504
 20
20.36730481310118
 10
57.636409231097524
 20
20.640649529979044
 10
58.127835687475056
 20
20.91228353596407
 10
58.617043055719556
 20
21.18193340857758
 10
59.10392321428406
 20
21.449872570298258
 10
59.588339451929194
 20
21.7160469603526
 10
60.070536601441304
 20
21.980237217035427
 10
60.550241240341734
 20
22.242335218799788
 10
61.0274278975493
 20
22.50280516013715
 10
61.50182315058537
 20
22.761538919500563
 10
61.97394525471495
 20
23.018425256731806
 10
62.4433554865276
 20
23.272974506258258
 10
62.910327268502044
 20
23.52529478962691
 10
63.37480653986476
 20
23.775522818077064
 10
63.83641175659009
 20
24.023823892540452
 10
64.2951969794516
 20
24.27006130177774
 10
64.75148969170135
 20
24.514206456096545
 10
65.20493382039491
 20
24.755960461937093
 10
65.6557741983185
 20
24.995103957594182
 10
66.10371193191237
 20
25.231993016012353
 10
66.54882967164237
 20
25.46681840920441
 10
66.99104476704264
 20
25.69938936515754
 10
67.43035721811319
 20
25.929705883871755
 10
67.86679249593512
 20
26.15730377085555
 10
68.30032512942732
 20
26.38264722060041
 10
68.7307357568846
 20
26.605491400320048
 10
69.15805296799934
 20
26.826163793266623
 10
69.582438945092
 20
27.044254265722103
 10
70.00381103769666
 20
27.259572045673696
 10
70.42200706349296
 20
27.47252726683939
 10
70.83702702248084
 20
27.683119929219203
 10
71.24887091466033
 20
27.891350032813126
 10
71.65737343909971
 20
28.096836033595526
 10
72.0629161398246
 20
28.299412630634674
 10
72.46509200172828
 20
28.499709319353805
 10
72.86381837434489
 20
28.697535327740074
 10
73.25923196891377
 20
28.89294471656698
 10
73.65130419574253
 20
29.08561000258236
 10
74.03984428281834
 20
29.275613836252056
 10
74.42507159184643
 20
29.46320105036239
 10
74.80687488266854
 20
29.64785338964838
 10
75.18514603373774
 20
29.829844276588695
 10
75.5599391058275
 20
30.009036999944
 10
75.93109191661733
 20
30.185841693432312
 10
76.29871258765424
 20
30.359984934574946
 10
76.6626644076989
 20
30.531412662598434
 10
77.02300143752475
 20
30.699988166263434
 10
77.37980632759769
 20
30.865902217582754
 10
77.73275159466553
 20
31.02918340624878
 10
78.08183723872828
 20
31.18983173226151
 10
78.42725403179878
 20
31.347764545155087
 10
78.76905603465049
 20
31.50284513369018
 10
79.10680764248428
 20
31.655375510037825
 10
79.4406455665395
 20
31.805409734971494
 10
79.7707319891366
 20
31.95253767477321
 10
80.09687613826276
 20
32.0968419799088
 10
80.41896989237104
 20
32.238596072856964
 10
80.73725808424767
 20
32.377580591912476
 10
81.05152135218752
 20
32.51355070428906
 10
81.36178828588297
 20
32.64683389323887
 10
81.66800482456047
 20
32.77756687000122
 10
81.97003425698075
 20
32.90569557380267
 10
82.26798470469072
 20
33.030946582164496
 10
82.56180210691699
 20
33.153456606326074
 10
82.85137834211247
 20
33.273499068766064
 10
83.13676747105076
 20
33.39093725824515
 10
83.41794090403938
 20
33.50544369151113
 10
83.69489864107842
 20
33.61701836856404
 10
83.96756115031322
 20
33.72626219513469
 10
84.23584578127796
 20
33.83298439921028
 10
84.4997525339727
 20
33.93718498079082
 10
84.75933546917082
 20
34.03872722863693
 10
85.01445787563298
 20
34.13755708197515
 10
85.26525646459861
 20
34.23372860157898
 10
85.51148640328134
 20
34.32746114915359
 10
85.75325581322814
 20
34.41848130222032
 10
85.99045657289207
 20
34.507062483257826
 10
86.22333351505942
 20
34.59298533056094
 10
86.45150509570455
 20
34.676415145061355
 10
86.6750539652933
 20
34.75754269877189
 10
86.89389747335983
 20
34.836177219679726
 10
87.10822639191697
 20
34.912236057319014
 10
87.31779588817844
 20
34.98593857339497
 10
87.52285079493045
 20
35.05706540620234
 10
87.722955507374
 20
35.12591856791224
 10
87.91843750876114
 20
35.19246946883224
 10
88.10902337661325
 20
35.25660998741541
 10
88.29484982216968
 20
35.31839418443523
 10
88.4759168454304
 20
35.37782205989169
 10
88.65217038562193
 20
35.43503032502413
 10
88.82352779227841
 20
35.48982820781973
 10
88.9898809438529
 20
35.54248913075717
 10
89.15142061235821
 20
35.592930443370584
 10
89.30795602578151
 20
35.641234796125836
 10
89.4595412448963
 20
35.68726547778359
 10
89.60612220892907
 20
35.731159199583175
 10
89.74775297865332
 20
35.77277925028527
 10
89.88437949329558
 20
35.8122623411292
 10
90.01589363130888
 20
35.84988189459363
 10
90.14226680300082
 20
35.88531042742642
 10
90.26371837007662
 20
35.918792772413866
 10
90.37978413804478
 20
35.950303458474856
 10
90.49092830139678
 20
35.9798679566905
 10
90.59687743765399
 20
36.00737814551384
 10
90.6975234252694
 20
36.033107447423546
 10
90.79305703625583
 20
36.05697321195377
 10
90.88334155937397
 20
36.07892137833101
 10
90.96826887307685
 20
36.099225369033974
 10
91.04808381015074
 20
36.117665822357424
 10
91.12254153780938
 20
36.134462100006594
 10
91.19169611682625
 20
36.149477490742136
 10
91.25543942565436
 20
36.162985417042705
 10
91.31382552506717
 20
36.17484916766898
 10
91.36693706553059
 20
36.18525951463378
 10
91.41450062456595
 20
36.194108336390144
 10
91.45659885263908
 20
36.201586404950895
 10
91.49336846098926
 20
36.20774778108949
 10
91.52453602713791
 20
36.212484343258986
 10
91.55013014077737
 20
36.216123574711546
 10
91.57034157392044
 20
36.21858282498129
 10
91.58478878254152
 20
36.22002739499996
 10
91.59355441710642
 20
36.220648056780334
 10
91.5965303560682
 20
36.22071823280113
  0
ENDSEC
  0
SECTION
  2
OBJECTS
  0
DICTIONARY
  5
A
330
0
100
AcDbDictionary
280
0
281
1
  3
ACAD_COLOR
350
B
  3
ACAD_GROUP
350
C
  3
ACAD_LAYOUT
350
D
  3
ACAD_MATERIAL
350
E
  3
ACAD_MLEADERSTYLE
350
F
  3
ACAD_MLINESTYLE
350
10
  3
ACAD_PLOTSETTINGS
350
11
  3
ACAD_PLOTSTYLENAME
350
12
  3
ACAD_SCALELIST
350
14
  3
ACAD_TABLESTYLE
350
15
  3
ACAD_VISUALSTYLE
350
16
  3
EZDXF_META
350
2D
  0
DICTIONARY
  5
B
330
A
100
AcDbDictionary
280
0
281
1
  0
DICTIONARY
  5
C
330
A
100
AcDbDictionary
280
0
281
1
  0
DICTIONARY
  5
D
330
A
100
AcDbDictionary
280
0
281
1
  3
Model
350
1A
  3
Layout1
350
1E
  0
DICTIONARY
  5
E
330
A
100
AcDbDictionary
280
0
281
1
  3
ByBlock
350
1F
  3
ByLayer
350
20
  3
Global
350
21
  0
DICTIONARY
  5
F
330
A
100
AcDbDictionary
280
0
281
1
  3
Standard
350
2C
  0
DICTIONARY
  5
10
330
A
100
AcDbDictionary
280
0
281
1
  3
Standard
350
22
  0
DICTIONARY
  5
11
330
A
100
AcDbDictionary
280
0
281
1
  0
ACDBDICTIONARYWDFLT
  5
12
330
A
100
AcDbDictionary
280
0
281
1
  3
Normal
350
13
100
AcDbDictionaryWithDefault
340
13
  0
ACDBPLACEHOLDER
  5
13
330
12
  0
DICTIONARY
  5
14
330
A
100
AcDbDictionary
280
0
281
1
  0
DICTIONARY
  5
15
330
A
100
AcDbDictionary
280
0
281
1
  0
DICTIONARY
  5
16
330
A
100
AcDbDictionary
280
0
281
1
  0
LAYOUT
  5
1A
330
D
100
AcDbPlotSettings
  1

  4
A3
  6

 40
7.5
 41
20.0
 42
7.5
 43
20.0
 44
420.0
 45
297.0
 46
0.0
 47
0.0
 48
0.0
 49
0.0
140
0.0
141
0.0
142
1.0
143
1.0
 70
1024
 72
1
 73
0
 74
5
  7

 75
16
 76
0
 77
2
 78
300
147
1.0
148
0.0
149
0.0
100
AcDbLayout
  1
Model
 70
1
 71
0
 10
0.0
 20
0.0
 11
420.0
 21
297.0
 12
0.0
 22
0.0
 32
0.0
 14
1e+20
 24
1e+20
 34
1e+20
 15
-1e+20
 25
-1e+20
 35
-1e+20
146
0.0
 13
0.0
 23
0.0
 33
0.0
 16
1.0
 26
0.0
 36
0.0
 17
0.0
 27
1.0
 37
0.0
 76
1
330
17
  0
LAYOUT
  5
1E
330
D
100
AcDbPlotSettings
  1

  4
A3
  6

 40
7.5
 41
20.0
 42
7.5
 43
20.0
 44
420.0
 45
297.0
 46
0.0
 47
0.0
 48
0.0
 49
0.0
140
0.0
141
0.0
142
1.0
143
1.0
 70
0
 72
1
 73
0
 74
5
  7

 75
16
 76
0
 77
2
 78
300
147
1.0
148
0.0
149
0.0
100
AcDbLayout
  1
Layout1
 70
1
 71
1
 10
0.0
 20
0.0
 11
420.0
 21
297.0
 12
0.0
 22
0.0
 32
0.0
 14
1e+20
 24
1e+20
 34
1e+20
 15
-1e+20
 25
-1e+20
 35
-1e+20
146
0.0
 13
0.0
 23
0.0
 33
0.0
 16
1.0
 26
0.0
 36
0.0
 17
0.0
 27
1.0
 37
0.0
 76
1
330
1B
  0
MATERIAL
  5
1F
102
{ACAD_REACTORS
330
E
102
}
330
E
100
AcDbMaterial
  1
ByBlock
  2

 70
0
 40
1.0
 71
1
 41
1.0
 91
-1023410177
 42
1.0
 72
1
  3

 73
1
 74
1
 75
1
 44
0.5
 73
0
 45
1.0
 46
1.0
 77
1
  4

 78
1
 79
1
170
1
 48
1.0
171
1
  6

172
1
173
1
174
1
140
1.0
141
1.0
175
1
  7

176
1
177
1
178
1
143
1.0
179
1
  8

270
1
271
1
272
1
145
1.0
146
1.0
273
1
  9

274
1
275
1
276
1
 42
1.0
 72
1
  3

 73
1
 74
1
 75
1
 94
63
  0
MATERIAL
  5
20
102
{ACAD_REACTORS
330
E
102
}
330
E
100
AcDbMaterial
  1
ByLayer
  2

 70
0
 40
1.0
 71
1
 41
1.0
 91
-1023410177
 42
1.0
 72
1
  3

 73
1
 74
1
 75
1
 44
0.5
 73
0
 45
1.0
 46
1.0
 77
1
  4

 78
1
 79
1
170
1
 48
1.0
171
1
  6

172
1
173
1
174
1
140
1.0
141
1.0
175
1
  7

176
1
177
1
178
1
143
1.0
179
1
  8

270
1
271
1
272
1
145
1.0
146
1.0
273
1
  9

274
1
275
1
276
1
 42
1.0
 72
1
  3

 73
1
 74
1
 75
1
 94
63
  0
MATERIAL
  5
21
102
{ACAD_REACTORS
330
E
102
}
330
E
100
AcDbMaterial
  1
Global
  2

 70
0
 40
1.0
 71
1
 41
1.0
 91
-1023410177
 42
1.0
 72
1
  3

 73
1
 74
1
 75
1
 44
0.5
 73
0
 45
1.0
 46
1.0
 77
1
  4

 78
1
 79
1
170
1
 48
1.0
171
1
  6

172
1
173
1
174
1
140
1.0
141
1.0
175
1
  7

176
1
177
1
178
1
143
1.0
179
1
  8

270
1
271
1
272
1
145
1.0
146
1.0
273
1
  9

274
1
275
1
276
1
 42
1.0
 72
1
  3

 73
1
 74
1
 75
1
 94
63
  0
MLINESTYLE
  5
22
102
{ACAD_REACTORS
330
10
102
}
330
10
100
AcDbMlineStyle
  2
Standard
 70
0
  3

 62
256
 51
90.0
 52
90.0
 71
2
 49
0.5
 62
256
  6
BYLAYER
 49
-0.5
 62
256
  6
BYLAYER
  0
MLEADERSTYLE
  5
2C
102
{ACAD_REACTORS
330
F
102
}
330
F
100
AcDbMLeaderStyle
179
2
170
2
171
1
172
0
 90
2
 40
0.0
 41
0.0
173
1
 91
-1056964608
 92
-2
290
1
 42
2.0
291
1
 43
8.0
  3
Standard
 44
4.0
300

342
29
174
1
175
1
176
0
178
1
 93
-1056964608
 45
4.0
292
0
297
0
 46
4.0
 94
-1056964608
 47
1.0
 49
1.0
140
1.0
294
1
141
0.0
177
0
142
1.0
295
0
296
0
143
3.75
271
0
272
9
273
9
  0
DICTIONARY
  5
2D
330
A
100
AcDbDictionary
280
1
281
1
  3
CREATED_BY_EZDXF
350
2E
  3
WRITTEN_BY_EZDXF
350
32
  0
DICTIONARYVAR
  5
2E
330
2D
100
DictionaryVariables
280
0
  1
1.3.5 @ 2025-08-20T01:05:13.403417+00:00
  0
DICTIONARYVAR
  5
32
330
2D
100
DictionaryVariables
280
0
  1
1.3.5 @ 2025-08-20T01:05:13.409393+00:00
  0
ENDSEC
  0
EOF
