  0
SECTION
  2
HEADER
  9
$ACADVER
  1
AC1032
  9
$ACADMAINTVER
 90
4
  9
$DWGCODEPAGE
  3
ANSI_1252
  9
$LASTSAVEDBY
  1
ezdxf
  9
$REQUIREDVERSIONS
160
0
  9
$INSBASE
 10
0.0
 20
0.0
 30
0.0
  9
$EXTMIN
 10
1e+20
 20
1e+20
 30
1e+20
  9
$EXTMAX
 10
-1e+20
 20
-1e+20
 30
-1e+20
  9
$LIMMIN
 10
0.0
 20
0.0
  9
$LIMMAX
 10
420.0
 20
297.0
  9
$ORTHOMODE
 70
0
  9
$REGENMODE
 70
1
  9
$FILLMODE
 70
1
  9
$QTEXTMODE
 70
0
  9
$MIRRTEXT
 70
1
  9
$LTSCALE
 40
1.0
  9
$ATTMODE
 70
1
  9
$TEXTSIZE
 40
2.5
  9
$TRACEWID
 40
1.0
  9
$TEXTSTYLE
  7
Standard
  9
$CLAYER
  8
0
  9
$CELTYPE
  6
ByLayer
  9
$CECOLOR
 62
256
  9
$CELTSCALE
 40
1.0
  9
$DISPSILH
 70
0
  9
$DIMSCALE
 40
1.0
  9
$DIMASZ
 40
2.5
  9
$DIMEXO
 40
0.625
  9
$DIMDLI
 40
3.75
  9
$DIMRND
 40
0.0
  9
$DIMDLE
 40
0.0
  9
$DIMEXE
 40
1.25
  9
$DIMTP
 40
0.0
  9
$DIMTM
 40
0.0
  9
$DIMTXT
 40
2.5
  9
$DIMCEN
 40
2.5
  9
$DIMTSZ
 40
0.0
  9
$DIMTOL
 70
0
  9
$DIMLIM
 70
0
  9
$DIMTIH
 70
0
  9
$DIMTOH
 70
0
  9
$DIMSE1
 70
0
  9
$DIMSE2
 70
0
  9
$DIMTAD
 70
1
  9
$DIMZIN
 70
8
  9
$DIMBLK
  1

  9
$DIMASO
 70
1
  9
$DIMSHO
 70
1
  9
$DIMPOST
  1

  9
$DIMAPOST
  1

  9
$DIMALT
 70
0
  9
$DIMALTD
 70
3
  9
$DIMALTF
 40
0.03937007874
  9
$DIMLFAC
 40
1.0
  9
$DIMTOFL
 70
1
  9
$DIMTVP
 40
0.0
  9
$DIMTIX
 70
0
  9
$DIMSOXD
 70
0
  9
$DIMSAH
 70
0
  9
$DIMBLK1
  1

  9
$DIMBLK2
  1

  9
$DIMSTYLE
  2
ISO-25
  9
$DIMCLRD
 70
0
  9
$DIMCLRE
 70
0
  9
$DIMCLRT
 70
0
  9
$DIMTFAC
 40
1.0
  9
$DIMGAP
 40
0.625
  9
$DIMJUST
 70
0
  9
$DIMSD1
 70
0
  9
$DIMSD2
 70
0
  9
$DIMTOLJ
 70
0
  9
$DIMTZIN
 70
8
  9
$DIMALTZ
 70
0
  9
$DIMALTTZ
 70
0
  9
$DIMUPT
 70
0
  9
$DIMDEC
 70
2
  9
$DIMTDEC
 70
2
  9
$DIMALTU
 70
2
  9
$DIMALTTD
 70
3
  9
$DIMTXSTY
  7
Standard
  9
$DIMAUNIT
 70
0
  9
$DIMADEC
 70
0
  9
$DIMALTRND
 40
0.0
  9
$DIMAZIN
 70
0
  9
$DIMDSEP
 70
44
  9
$DIMATFIT
 70
3
  9
$DIMFRAC
 70
0
  9
$DIMLDRBLK
  1

  9
$DIMLUNIT
 70
2
  9
$DIMLWD
 70
-2
  9
$DIMLWE
 70
-2
  9
$DIMTMOVE
 70
0
  9
$DIMFXL
 40
1.0
  9
$DIMFXLON
 70
0
  9
$DIMJOGANG
 40
0.785398163397
  9
$DIMTFILL
 70
0
  9
$DIMTFILLCLR
 70
0
  9
$DIMARCSYM
 70
0
  9
$DIMLTYPE
  6

  9
$DIMLTEX1
  6

  9
$DIMLTEX2
  6

  9
$DIMTXTDIRECTION
 70
0
  9
$LUNITS
 70
2
  9
$LUPREC
 70
4
  9
$SKETCHINC
 40
1.0
  9
$FILLETRAD
 40
10.0
  9
$AUNITS
 70
0
  9
$AUPREC
 70
2
  9
$MENU
  1
.
  9
$ELEVATION
 40
0.0
  9
$PELEVATION
 40
0.0
  9
$THICKNESS
 40
0.0
  9
$LIMCHECK
 70
0
  9
$CHAMFERA
 40
0.0
  9
$CHAMFERB
 40
0.0
  9
$CHAMFERC
 40
0.0
  9
$CHAMFERD
 40
0.0
  9
$SKPOLY
 70
0
  9
$TDCREATE
 40
2460908.0869675926
  9
$TDUCREATE
 40
2458532.153996898
  9
$TDUPDATE
 40
2460908.0869675926
  9
$TDUUPDATE
 40
2458532.1544311
  9
$TDINDWG
 40
0.0
  9
$TDUSRTIMER
 40
0.0
  9
$USRTIMER
 70
1
  9
$ANGBASE
 50
0.0
  9
$ANGDIR
 70
0
  9
$PDMODE
 70
0
  9
$PDSIZE
 40
0.0
  9
$PLINEWID
 40
0.0
  9
$SPLFRAME
 70
0
  9
$SPLINETYPE
 70
6
  9
$SPLINESEGS
 70
8
  9
$HANDSEED
  5
33
  9
$SURFTAB1
 70
6
  9
$SURFTAB2
 70
6
  9
$SURFTYPE
 70
6
  9
$SURFU
 70
6
  9
$SURFV
 70
6
  9
$UCSBASE
  2

  9
$UCSNAME
  2

  9
$UCSORG
 10
0.0
 20
0.0
 30
0.0
  9
$UCSXDIR
 10
1.0
 20
0.0
 30
0.0
  9
$UCSYDIR
 10
0.0
 20
1.0
 30
0.0
  9
$UCSORTHOREF
  2

  9
$UCSORTHOVIEW
 70
0
  9
$UCSORGTOP
 10
0.0
 20
0.0
 30
0.0
  9
$UCSORGBOTTOM
 10
0.0
 20
0.0
 30
0.0
  9
$UCSORGLEFT
 10
0.0
 20
0.0
 30
0.0
  9
$UCSORGRIGHT
 10
0.0
 20
0.0
 30
0.0
  9
$UCSORGFRONT
 10
0.0
 20
0.0
 30
0.0
  9
$UCSORGBACK
 10
0.0
 20
0.0
 30
0.0
  9
$PUCSBASE
  2

  9
$PUCSNAME
  2

  9
$PUCSORG
 10
0.0
 20
0.0
 30
0.0
  9
$PUCSXDIR
 10
1.0
 20
0.0
 30
0.0
  9
$PUCSYDIR
 10
0.0
 20
1.0
 30
0.0
  9
$PUCSORTHOREF
  2

  9
$PUCSORTHOVIEW
 70
0
  9
$PUCSORGTOP
 10
0.0
 20
0.0
 30
0.0
  9
$PUCSORGBOTTOM
 10
0.0
 20
0.0
 30
0.0
  9
$PUCSORGLEFT
 10
0.0
 20
0.0
 30
0.0
  9
$PUCSORGRIGHT
 10
0.0
 20
0.0
 30
0.0
  9
$PUCSORGFRONT
 10
0.0
 20
0.0
 30
0.0
  9
$PUCSORGBACK
 10
0.0
 20
0.0
 30
0.0
  9
$USERI1
 70
0
  9
$USERI2
 70
0
  9
$USERI3
 70
0
  9
$USERI4
 70
0
  9
$USERI5
 70
0
  9
$USERR1
 40
0.0
  9
$USERR2
 40
0.0
  9
$USERR3
 40
0.0
  9
$USERR4
 40
0.0
  9
$USERR5
 40
0.0
  9
$WORLDVIEW
 70
1
  9
$SHADEDGE
 70
3
  9
$SHADEDIF
 70
70
  9
$TILEMODE
 70
1
  9
$MAXACTVP
 70
64
  9
$PINSBASE
 10
0.0
 20
0.0
 30
0.0
  9
$PLIMCHECK
 70
0
  9
$PEXTMIN
 10
1e+20
 20
1e+20
 30
1e+20
  9
$PEXTMAX
 10
-1e+20
 20
-1e+20
 30
-1e+20
  9
$PLIMMIN
 10
0.0
 20
0.0
  9
$PLIMMAX
 10
420.0
 20
297.0
  9
$UNITMODE
 70
0
  9
$VISRETAIN
 70
1
  9
$PLINEGEN
 70
0
  9
$PSLTSCALE
 70
1
  9
$TREEDEPTH
 70
3020
  9
$CMLSTYLE
  2
Standard
  9
$CMLJUST
 70
0
  9
$CMLSCALE
 40
20.0
  9
$PROXYGRAPHICS
 70
1
  9
$MEASUREMENT
 70
1
  9
$CELWEIGHT
370
-1
  9
$ENDCAPS
280
0
  9
$JOINSTYLE
280
0
  9
$LWDISPLAY
290
0
  9
$INSUNITS
 70
6
  9
$HYPERLINKBASE
  1

  9
$STYLESHEET
  1

  9
$XEDIT
290
1
  9
$CEPSNTYPE
380
0
  9
$PSTYLEMODE
290
1
  9
$FINGERPRINTGUID
  2
{62722703-EEA7-4E34-8E6E-C6A4650C3070}
  9
$VERSIONGUID
  2
{9C430654-09AC-4F28-8C56-C92C4245071B}
  9
$EXTNAMES
290
1
  9
$PSVPSCALE
 40
0.0
  9
$OLESTARTUP
290
0
  9
$SORTENTS
280
127
  9
$INDEXCTL
280
0
  9
$HIDETEXT
280
1
  9
$XCLIPFRAME
280
1
  9
$HALOGAP
280
0
  9
$OBSCOLOR
 70
257
  9
$OBSLTYPE
280
0
  9
$INTERSECTIONDISPLAY
280
0
  9
$INTERSECTIONCOLOR
 70
257
  9
$DIMASSOC
280
2
  9
$PROJECTNAME
  1

  9
$CAMERADISPLAY
290
0
  9
$LENSLENGTH
 40
50.0
  9
$CAMERAHEIGHT
 40
0.0
  9
$STEPSPERSEC
 40
24.0
  9
$STEPSIZE
 40
100.0
  9
$3DDWFPREC
 40
2.0
  9
$PSOLWIDTH
 40
0.005
  9
$PSOLHEIGHT
 40
0.08
  9
$LOFTANG1
 40
1.570796326795
  9
$LOFTANG2
 40
1.570796326795
  9
$LOFTMAG1
 40
0.0
  9
$LOFTMAG2
 40
0.0
  9
$LOFTPARAM
 70
7
  9
$LOFTNORMALS
280
1
  9
$LATITUDE
 40
37.795
  9
$LONGITUDE
 40
-122.394
  9
$NORTHDIRECTION
 40
0.0
  9
$TIMEZONE
 70
-8000
  9
$LIGHTGLYPHDISPLAY
280
1
  9
$TILEMODELIGHTSYNCH
280
1
  9
$CMATERIAL
347
20
  9
$SOLIDHIST
280
0
  9
$SHOWHIST
280
1
  9
$DWFFRAME
280
2
  9
$DGNFRAME
280
2
  9
$REALWORLDSCALE
290
1
  9
$INTERFERECOLOR
 62
256
  9
$CSHADOW
280
0
  9
$SHADOWPLANELOCATION
 40
0.0
  0
ENDSEC
  0
SECTION
  2
CLASSES
  0
CLASS
  1
ACDBDICTIONARYWDFLT
  2
AcDbDictionaryWithDefault
  3
ObjectDBX Classes
 90
0
 91
0
280
0
281
0
  0
CLASS
  1
SUN
  2
AcDbSun
  3
SCENEOE
 90
1153
 91
0
280
0
281
0
  0
CLASS
  1
VISUALSTYLE
  2
AcDbVisualStyle
  3
ObjectDBX Classes
 90
4095
 91
0
280
0
281
0
  0
CLASS
  1
MATERIAL
  2
AcDbMaterial
  3
ObjectDBX Classes
 90
1153
 91
0
280
0
281
0
  0
CLASS
  1
SCALE
  2
AcDbScale
  3
ObjectDBX Classes
 90
1153
 91
0
280
0
281
0
  0
CLASS
  1
TABLESTYLE
  2
AcDbTableStyle
  3
ObjectDBX Classes
 90
4095
 91
0
280
0
281
0
  0
CLASS
  1
MLEADERSTYLE
  2
AcDbMLeaderStyle
  3
ACDB_MLEADERSTYLE_CLASS
 90
4095
 91
0
280
0
281
0
  0
CLASS
  1
DICTIONARYVAR
  2
AcDbDictionaryVar
  3
ObjectDBX Classes
 90
0
 91
0
280
0
281
0
  0
CLASS
  1
CELLSTYLEMAP
  2
AcDbCellStyleMap
  3
ObjectDBX Classes
 90
1152
 91
0
280
0
281
0
  0
CLASS
  1
MENTALRAYRENDERSETTINGS
  2
AcDbMentalRayRenderSettings
  3
SCENEOE
 90
1024
 91
0
280
0
281
0
  0
CLASS
  1
ACDBDETAILVIEWSTYLE
  2
AcDbDetailViewStyle
  3
ObjectDBX Classes
 90
1025
 91
0
280
0
281
0
  0
CLASS
  1
ACDBSECTIONVIEWSTYLE
  2
AcDbSectionViewStyle
  3
ObjectDBX Classes
 90
1025
 91
0
280
0
281
0
  0
CLASS
  1
RASTERVARIABLES
  2
AcDbRasterVariables
  3
ISM
 90
0
 91
0
280
0
281
0
  0
CLASS
  1
LAYOUT
  2
AcDbLayout
  3
ObjectDBX Classes
 90
0
 91
0
280
0
281
0
  0
CLASS
  1
ACDBPLACEHOLDER
  2
AcDbPlaceHolder
  3
ObjectDBX Classes
 90
0
 91
0
280
0
281
0
  0
ENDSEC
  0
SECTION
  2
TABLES
  0
TABLE
  2
VPORT
  5
8
330
0
100
AcDbSymbolTable
 70
1
  0
VPORT
  5
23
330
8
100
AcDbSymbolTableRecord
100
AcDbViewportTableRecord
  2
*Active
 70
0
 10
0.0
 20
0.0
 11
1.0
 21
1.0
 12
0.0
 22
0.0
 13
0.0
 23
0.0
 14
0.5
 24
0.5
 15
0.5
 25
0.5
 16
0.0
 26
0.0
 36
1.0
 17
0.0
 27
0.0
 37
0.0
 40
1000.0
 41
1.34
 42
50.0
 43
0.0
 44
0.0
 50
0.0
 51
0.0
 71
0
 72
1000
 73
1
 74
3
 75
0
 76
0
 77
0
 78
0
281
0
 65
0
146
0.0
  0
ENDTAB
  0
TABLE
  2
LTYPE
  5
2
330
0
100
AcDbSymbolTable
 70
3
  0
LTYPE
  5
24
330
2
100
AcDbSymbolTableRecord
100
AcDbLinetypeTableRecord
  2
ByBlock
 70
0
  3

 72
65
 73
0
 40
0.0
  0
LTYPE
  5
25
330
2
100
AcDbSymbolTableRecord
100
AcDbLinetypeTableRecord
  2
ByLayer
 70
0
  3

 72
65
 73
0
 40
0.0
  0
LTYPE
  5
26
330
2
100
AcDbSymbolTableRecord
100
AcDbLinetypeTableRecord
  2
Continuous
 70
0
  3

 72
65
 73
0
 40
0.0
  0
ENDTAB
  0
TABLE
  2
LAYER
  5
1
330
0
100
AcDbSymbolTable
 70
2
  0
LAYER
  5
27
330
1
100
AcDbSymbolTableRecord
100
AcDbLayerTableRecord
  2
0
 70
0
 62
7
  6
Continuous
370
-3
390
13
347
21
  0
LAYER
  5
28
330
1
100
AcDbSymbolTableRecord
100
AcDbLayerTableRecord
  2
Defpoints
 70
0
 62
7
  6
Continuous
290
0
370
-3
390
13
347
21
  0
ENDTAB
  0
TABLE
  2
STYLE
  5
5
330
0
100
AcDbSymbolTable
 70
1
  0
STYLE
  5
29
330
5
100
AcDbSymbolTableRecord
100
AcDbTextStyleTableRecord
  2
Standard
 70
0
 40
0.0
 41
1.0
 50
0.0
 71
0
 42
2.5
  3
txt
  4

  0
ENDTAB
  0
TABLE
  2
VIEW
  5
7
330
0
100
AcDbSymbolTable
 70
0
  0
ENDTAB
  0
TABLE
  2
UCS
  5
6
330
0
100
AcDbSymbolTable
 70
0
  0
ENDTAB
  0
TABLE
  2
APPID
  5
3
330
0
100
AcDbSymbolTable
 70
3
  0
APPID
  5
2A
330
3
100
AcDbSymbolTableRecord
100
AcDbRegAppTableRecord
  2
ACAD
 70
0
  0
APPID
  5
30
330
3
100
AcDbSymbolTableRecord
100
AcDbRegAppTableRecord
  2
HATCHBACKGROUNDCOLOR
 70
0
  0
APPID
  5
31
330
3
100
AcDbSymbolTableRecord
100
AcDbRegAppTableRecord
  2
EZDXF
 70
0
  0
ENDTAB
  0
TABLE
  2
DIMSTYLE
  5
4
330
0
100
AcDbSymbolTable
 70
1
100
AcDbDimStyleTable
  0
DIMSTYLE
105
2B
330
4
100
AcDbSymbolTableRecord
100
AcDbDimStyleTableRecord
  2
Standard
 70
0
 40
1.0
 41
2.5
 42
0.625
 43
3.75
 44
1.25
 45
0.0
 46
0.0
 47
0.0
 48
0.0
 49
2.5
140
2.5
141
2.5
142
0.0
143
0.03937007874
144
1.0
145
0.0
146
1.0
147
0.625
148
0.0
 69
0
 70
0
 71
0
 72
0
 73
0
 74
0
 75
0
 76
0
 77
1
 78
8
 79
3
170
0
171
3
172
1
173
0
174
0
175
0
176
0
177
0
178
0
179
2
271
2
272
2
273
2
274
3
275
0
276
0
277
2
278
44
279
0
280
0
281
0
282
0
283
0
284
8
285
0
286
0
288
0
289
3
290
0
371
-2
372
-2
  0
ENDTAB
  0
TABLE
  2
BLOCK_RECORD
  5
9
330
0
100
AcDbSymbolTable
 70
2
  0
BLOCK_RECORD
  5
17
330
9
100
AcDbSymbolTableRecord
100
AcDbBlockTableRecord
  2
*Model_Space
340
1A
 70
0
280
1
281
0
  0
BLOCK_RECORD
  5
1B
330
9
100
AcDbSymbolTableRecord
100
AcDbBlockTableRecord
  2
*Paper_Space
340
1E
 70
0
280
1
281
0
  0
ENDTAB
  0
ENDSEC
  0
SECTION
  2
BLOCKS
  0
BLOCK
  5
18
330
17
100
AcDbEntity
  8
0
100
AcDbBlockBegin
  2
*Model_Space
 70
0
 10
0.0
 20
0.0
 30
0.0
  3
*Model_Space
  1

  0
ENDBLK
  5
19
330
17
100
AcDbEntity
  8
0
100
AcDbBlockEnd
  0
BLOCK
  5
1C
330
1B
100
AcDbEntity
  8
0
100
AcDbBlockBegin
  2
*Paper_Space
 70
0
 10
0.0
 20
0.0
 30
0.0
  3
*Paper_Space
  1

  0
ENDBLK
  5
1D
330
1B
100
AcDbEntity
  8
0
100
AcDbBlockEnd
  0
ENDSEC
  0
SECTION
  2
ENTITIES
  0
LWPOLYLINE
  5
2F
330
17
100
AcDbEntity
  8
0
100
AcDbPolyline
 90
721
 70
1
 10
37.734081716216714
 20
1.3198923229824735
 10
37.73299785532288
 20
1.3202491298748267
 10
37.72975021261846
 20
1.3212069115019884
 10
37.72434666805761
 20
1.322540389764159
 10
37.71672696213834
 20
1.3243602337226972
 10
37.70700964387612
 20
1.3265014247798366
 10
37.69513642375748
 20
1.3290183124719857
 10
37.68105295224603
 20
1.3318526072856534
 10
37.664871868391636
 20
1.3350082491979223
 10
37.64653882265792
 20
1.3384269486953018
 10
37.62599355554283
 20
1.342219374839149
 10
37.603352646073354
 20
1.3462768285566484
 10
37.578559774724546
 20
1.3505973398592581
 10
37.55161297150786
 20
1.355237228271928
 10
37.52251617640039
 20
1.3600838547447587
 10
37.491265449425036
 20
1.3652498583276493
 10
37.4579190800953
 20
1.3706808894841922
 10
37.42242074888623
 20
1.3763749782258452
 10
37.384768485809275
 20
1.3823884440775585
 10
37.34502255036649
 20
1.388610617977974
 10
37.30312268305581
 20
1.3951521689884498
 10
37.25907282385436
 20
1.4019004580590866
 10
37.21298167183491
 20
1.4089720642168666
 10
37.164682238411196
 20
1.4163047579712154
 10
37.11434348215804
 20
1.4239044492877577
 10
37.06185276402555
 20
1.4317671981894107
 10
37.00726640353867
 20
1.4398949746647158
 10
36.95058440069741
 20
1.4482877787136732
 10
36.89180478551322
 20
1.4570019298612324
 10
36.83092755798611
 20
1.4660374281073931
 10
36.76795665809314
 20
1.4752816344022566
 10
36.70288814585726
 20
1.4848471877957214
 10
36.63578031079195
 20
1.4946797387513806
 10
36.56657486338369
 20
1.5048336368056416
 10
36.495275743609604
 20
1.5151962429086048
 10
36.421935331017536
 20
1.5258821660987116
 10
36.34655165561894
 20
1.5369477259009114
 10
36.26913062737947
 20
1.5482239637403559
 10
36.18961198679706
 20
1.5598215486784022
 10
36.10811034291017
 20
1.5716881011671837
 10
36.02451108668035
 20
1.5838760007545671
 10
35.9389268571575
 20
1.596389187417636
 10
35.85130133481668
 20
1.6092256911678484
 10
35.761690839182826
 20
1.6223874819937456
 10
35.670041020719545
 20
1.6358162703818373
 10
35.57640819895176
 20
1.6495140263206642
 10
35.48073211437747
 20
1.6635914188715843
 10
35.383127376035105
 20
1.6779960684867319
 10
35.2835376643997
 20
1.692726005177564
 10
35.18196297947128
 20
1.7077812289440821
 10
35.07840332124982
 20
1.723161739786285
 10
34.97291303927176
 20
1.7389258272176649
 10
34.86543778400066
 20
1.75501520172473
 10
34.756031904972936
 20
1.771488152820971
 10
34.64469737217714
 20
1.78828836098144
 10
34.531438125590356
 20
1.8053031871562366
 10
34.41630654476043
 20
1.8226472403838017
 10
34.29924237018535
 20
1.8404311897254932
 10
34.1802456018651
 20
1.858655035181311
 10
34.05937846929027
 20
1.8771517881649478
 10
33.93663900247232
 20
1.8959777682013532
 10
33.812027201411226
 20
1.9151329752905275
 10
33.685537156141386
 20
1.9347863680073196
 10
33.55717871660551
 20
1.9546563487269812
 10
33.42700426235144
 20
1.9748575264879535
 10
33.29501182339065
 20
1.9954462208151857
 10
33.16114311020966
 20
2.0164767812450863
 10
33.025512731846895
 20
2.0378968282297887
 10
32.888066338765945
 20
2.0596480722558015
 10
32.74880393096682
 20
2.0817305133231243
 10
32.60777788799738
 20
2.1042587604701994
 10
32.464996089811805
 20
2.1270075355972278
 10
32.32039827690803
 20
2.1500875077655657
 10
32.17409511834745
 20
2.173558936477248
 10
32.026086614130044
 20
2.197421821732274
 10
31.876320384707952
 20
2.2215615544922027
 10
31.72479446009264
 20
2.2460344542819835
 10
31.571621479333977
 20
2.2708444610787004
 10
31.416741182929968
 20
2.2961022439437104
 10
31.260159480846212
 20
2.321638844302165
 10
31.101932692607672
 20
2.3474562321426062
 10
30.942060818214337
 20
2.373554407465033
 10
30.780539917689136
 20
2.400046009319346
 10
30.617369991032064
 20
2.4269310377055437
 10
30.452553008231664
 20
2.454153173098678
 10
30.286203578326372
 20
2.4816600359508816
 10
30.11820709227775
 20
2.5095040058100215
 10
29.948619869610745
 20
2.5376870526646385
 10
29.777504139815935
 20
2.5660421879284265
 10
29.604801613379827
 20
2.5946237611377923
 10
29.43056269986175
 20
2.6236027008561273
 10
29.25484371878665
 20
2.652980977071974
 10
29.077535971081705
 20
2.682642010758348
 10
28.898758005762446
 20
2.7124207833174845
 10
28.718501942874713
 20
2.7425425728491826
 10
28.536769752407032
 20
2.7729510598284923
 10
28.353559464370875
 20
2.8037025637803636
 10
28.168931338268276
 20
2.8346864156434375
 10
27.982885374099226
 20
2.865902615417716
 10
27.79536525233877
 20
2.8973491931146564
 10
27.60648164204827
 20
2.9290864082362913
 10
27.416178223702794
 20
2.961112290794081
 10
27.224515256804363
 20
2.993316171726666
 10
27.031492741352963
 20
3.0256980510340457
 10
26.837166996873556
 20
3.058259898704764
 10
26.641479733852652
 20
3.091056064275228
 10
26.444483331838118
 20
3.124201156783878
 10
26.24612738127063
 20
3.157524247667325
 10
26.046578870736482
 20
3.1910875664161416
 10
25.84573304113997
 20
3.2246618949534485
 10
25.643587922492518
 20
3.2583035528041924
 10
25.440250243878417
 20
3.2921854385203084
 10
25.235718035309134
 20
3.326363871626744
 10
25.029884567700375
 20
3.360665953571568
 10
24.822979059129036
 20
3.3949869252590488
 10
24.614834521008813
 20
3.4292645571986102
 10
24.405557682423957
 20
3.463671747942184
 10
24.195090253861007
 20
3.4982628470261803
 10
23.98354684435839
 20
3.5329854749027314
 10
23.770877044356777
 20
3.567668703008447
 10
23.557133233404038
 20
3.6024271403817685
 10
23.34231147152309
 20
3.6373734260725947
 10
23.126421608656635
 20
3.6722259624561775
 10
22.909465614793238
 20
3.706928430007568
 10
22.691546279040054
 20
3.7417663663285974
 10
22.472552932335763
 20
3.7766795119172323
 10
22.252596243741685
 20
3.811728126275506
 10
22.03168803318911
 20
3.8465742922537207
 10
21.809826330689464
 20
3.881274329376826
 10
21.587007196265677
 20
3.9159408766947217
 10
21.36322471995212
 20
3.950742892782256
 10
21.13859942075286
 20
3.985459039516714
 10
20.913026539572172
 20
4.019860098821216
 10
20.686669125019268
 20
4.054120939236231
 10
20.459404688101554
 20
4.088519218409429
 10
20.23129742829813
 20
4.12283162822955
 10
20.00235522556317
 20
4.156832890596796
 10
19.7726867789695
 20
4.190639584538151
 10
19.54217747947866
 20
4.224304089601481
 10
19.31093799615202
 20
4.257886665288818
 10
19.07891397945317
 20
4.29132902208667
 10
18.846165688884142
 20
4.324520490933682
 10
18.61274944396989
 20
4.357463041818394
 10
18.37860892518546
 20
4.390154704752264
 10
18.143856771580747
 20
4.422599419712378
 10
17.908380344105854
 20
4.45479324672165
 10
17.672288341833607
 20
4.486852764807064
 10
17.435582734752536
 20
4.518721654443669
 10
17.198273372805353
 20
4.550118318006718
 10
16.960356316014984
 20
4.581155394546109
 10
16.721942233442764
 20
4.611893143563879
 10
16.482916516050278
 20
4.64238394460789
 10
16.243395742864486
 20
4.672519098605327
 10
16.00338188387395
 20
4.702242286031241
 10
15.762876909067192
 20
4.7314971873606835
 10
15.52187687846714
 20
4.760396441643553
 10
15.280436141610213
 20
4.78899833839334
 10
15.038554698496386
 20
4.817302877610045
 10
14.796294778616241
 20
4.845143070707359
 10
14.553602032433389
 20
4.872460628171797
 10
14.3105347494613
 20
4.899201200466942
 10
14.06714333925931
 20
4.925535716156192
 10
13.823365572336836
 20
4.951631163825852
 10
13.579318027720868
 20
4.977378844403104
 10
13.334960145794783
 20
5.002326231699812
 10
13.090280106627336
 20
5.026811242865674
 10
12.845388579279879
 20
5.05089413740272
 10
12.600233184204564
 20
5.074460306272511
 10
12.354815891389904
 20
5.097453429950099
 10
12.109243429920197
 20
5.120046406987414
 10
11.86346145025902
 20
5.142180947870965
 10
11.617532181896953
 20
5.163690064014445
 10
11.371399305309051
 20
5.184571785429314
 10
11.12517348955667
 20
5.204886371617603
 10
10.878852764651262
 20
5.224690142104261
 10
10.632443040558455
 20
5.243814138314442
 10
10.385942347289708
 20
5.262314679773094
 10
10.139405034381436
 20
5.280250055993707
 10
9.892768872343051
 20
5.297787255562592
 10
9.646158320155706
 20
5.314592301307131
 10
9.39957337781941
 20
5.330665193227325
 10
9.153012075345613
 20
5.346062250848124
 10
8.906472442745773
 20
5.360839793694479
 10
8.660012769533386
 20
5.37494347222998
 10
8.413574766194959
 20
5.388427635991036
 10
8.167273041768933
 20
5.40123990542978
 10
7.921111536232386
 20
5.413267641496314
 10
7.675088279596787
 20
5.4245671637155874
 10
7.429201301873586
 20
5.435194791612549
 10
7.18345257305133
 20
5.445094205662249
 10
6.937958672156995
 20
5.454156706791873
 10
6.692659339688551
 20
5.462492964062778
 10
6.4476069551938675
 20
5.470217586513404
 10
6.2027550490907
 20
5.477047006530462
 10
5.958212320451864
 20
5.483097803140936
 10
5.7139728593117365
 20
5.488538934919673
 10
5.469986256110992
 20
5.4931994733032825
 10
5.226369089876614
 20
5.49697071921895
 10
4.983117420631518
 20
5.499965311716574
 10
4.7401788688278375
 20
5.502068641757711
 10
4.497662133538387
 20
5.503397288369349
 10
4.255514835215304
 20
5.503836642513044
 10
4.013847642919943
 20
5.50344696369083
 10
3.7725420076367837
 20
5.5023932705004714
 10
3.5317145083928025
 20
5.500566863869151
 10
3.291373025142171
 20
5.497742465697074
 10
3.051515587896342
 20
5.493976395509188
 10
2.81219260621465
 20
5.489439581868884
 10
2.5734060500856293
 20
5.484075705251211
 10
2.335157889497821
 20
5.477828446131223
 10
2.097504443976178
 20
5.470699774497458
 10
1.8603854540186677
 20
5.4628003594112755
 10
1.6238532991731478
 20
5.454244809911114
 10
1.3879721789187471
 20
5.44480981788572
 10
1.1527460332325459
 20
5.434382744285192
 10
0.9181709221374533
 20
5.423076228159431
 10
0.6843011951698863
 20
5.410948559021928
 10
0.45108053280488647
 20
5.397997766884141
 10
0.2185632845788701
 20
5.38428214125956
 10
-0.013196199971763417
 20
5.369859971661677
 10
-0.244246360417788
 20
5.354504010002154
 10
-0.4745308772342593
 20
5.33821622626953
 10
-0.7040032808389382
 20
5.321280188077096
 10
-0.932715950779682
 20
5.30358128638641
 10
-1.1605542780180604
 20
5.285067141649609
 10
-1.3876309016039652
 20
5.2657338138896055
 10
-1.6138331824875014
 20
5.245585243083485
 10
-1.8391087411208005
 20
5.224736038269691
 10
-2.063572186542304
 20
5.203238578996083
 10
-2.287157349284354
 20
5.18081323762646
 10
-2.5097634102283037
 20
5.157801871287601
 10
-2.73145062887618
 20
5.134315149040864
 10
-2.952263504821691
 20
5.110013183748012
 10
-3.1720330794899816
 20
5.084901885374666
 10
-3.390821582371628
 20
5.059148242507137
 10
-3.608630983455173
 20
5.03280857467037
 10
-3.8254573427635297
 20
5.005770242814471
 10
-4.041189991235345
 20
4.978093506441469
 10
-4.255941567920515
 20
4.949774425574283
 10
-4.469605343734769
 20
4.920985898764843
 10
-4.682177378701021
 20
4.891615286963253
 10
-4.8936557028307295
 20
4.86160627064456
 10
-5.1040422861124375
 20
4.831015169333716
 10
-5.313284748998277
 20
4.799956592069161
 10
-5.521439411013199
 20
4.768428568862354
 10
-5.72838969313022
 20
4.736322400640478
 10
-5.934135595349342
 20
4.703638087403534
 10
-6.13873146720697
 20
4.670317339638029
 10
-6.342122959166698
 20
4.636418446857457
 10
-6.544315981194149
 20
4.602110367636666
 10
-6.745256183752919
 20
4.567451391489145
 10
-6.944935686888838
 20
4.532216240315098
 10
-7.1434108101268565
 20
4.496402944125984
 10
-7.340510624903585
 20
4.459961093362477
 10
-7.536353680234547
 20
4.423055706622342
 10
-7.730941946108284
 20
4.385743103430529
 10
-7.924162783474895
 20
4.348027223764123
 10
-8.116014222345841
 20
4.309851748098172
 10
-8.306546672280446
 20
4.271045747869287
 10
-8.495711693707927
 20
4.231836471165809
 10
-8.68351519659391
 20
4.192392876562583
 10
-8.869891011470736
 20
4.152435336423408
 10
-9.054895457863353
 20
4.111961880759737
 10
-9.238419836698949
 20
4.071089088598558
 10
-9.42052046750247
 20
4.0298149899513245
 10
-9.601199320262461
 20
3.9881959043429887
 10
-9.78039416548834
 20
3.946064843187243
 10
-9.958108943157203
 20
3.903534445533986
 10
-10.134343653269038
 20
3.8606047113832185
 10
-10.30910617577802
 20
3.817500918834739
 10
-10.482281901645703
 20
3.7741706883406807
 10
-10.653977559956363
 20
3.730441121349112
 10
-10.824132891207967
 20
3.686201548798675
 10
-10.992699455829733
 20
3.6416792187777096
 10
-11.159737513323694
 20
3.596984800347574
 10
-11.32518286421073
 20
3.5518949853970114
 10
-11.48898312894298
 20
3.5065243829644617
 10
-11.65125291655888
 20
3.460925372597793
 10
-11.811879588008537
 20
3.415101894274087
 10
-11.97085723332632
 20
3.368884989418495
 10
-12.128191762477856
 20
3.3224436166058666
 10
-12.283885145451688
 20
3.275834095361151
 10
-12.437935412259273
 20
3.229000106159399
 10
-12.590286243375663
 20
3.1819436189891523
 10
-12.740935668812313
 20
3.1346083143254604
 10
-12.889941978082717
 20
3.0870485417047333
 10
-13.037192532136977
 20
3.0392682411040512
 10
-13.182691270952173
 20
2.9913800515733158
 10
-13.326546893601128
 20
2.9432673940855434
 10
-13.46859044150898
 20
2.89493617860636
 10
-13.608876264212148
 20
2.8463281156222737
 10
-13.747412241664795
 20
2.797668483233083
 10
-13.884198373866923
 20
2.7489572814387873
 10
-14.019174401316496
 20
2.700083841178031
 10
-14.152338354024971
 20
2.6509918429258628
 10
-14.283744581528762
 20
2.601622997168791
 10
-14.413290294720676
 20
2.552262841508649
 10
-14.54102984313712
 20
2.5028530864319434
 10
-14.666959286801006
 20
2.4532810928887763
 10
-14.791022306187392
 20
2.4035488308676896
 10
-14.913222841273358
 20
2.3537689394185812
 10
-15.033556952081824
 20
2.3038287794915533
 10
-15.152026608601325
 20
2.253784670611555
 10
-15.268633780820409
 20
2.203692932303535
 10
-15.383318209237038
 20
2.1534428955061373
 10
-15.49608580381684
 20
2.10320351879421
 10
-15.606985004130596
 20
2.0527475540794136
 10
-15.715967370607528
 20
2.0023022494500866
 10
-15.82303093325909
 20
1.9518112853812812
 10
-15.928173722096737
 20
1.9012183423480462
 10
-16.031339417595525
 20
1.8505253903389254
 10
-16.132586309268948
 20
1.7997867788903248
 10
-16.231863987557674
 20
1.749173436565635
 10
-16.329168512484625
 20
1.6985727243149584
 10
-16.424499884049794
 20
1.6479846421382933
 10
-16.517916391766686
 20
1.5974635395720485
 10
-16.609303426596842
 20
1.5469570370683579
 10
-16.698721248042315
 20
1.4965758036885786
 10
-16.78611747655522
 20
1.446434448471151
 10
-16.871548431660518
 20
1.3965310014275347
 10
-16.954953853856175
 20
1.3467547934963708
 10
-17.036392032655677
 20
1.297160174214068
 10
-17.115750329009128
 20
1.2477510835577101
 10
-17.193145321943515
 20
1.1986362206001115
 10
-17.26846634239747
 20
1.1498758448433066
 10
-17.34176576991887
 20
1.1013553472488538
 10
-17.41304360450771
 20
1.0530747278167534
 10
-17.48229984616399
 20
1.0050339865470053
 10
-17.549482115339845
 20
0.9573477324780504
 10
-17.614590412035277
 20
0.9100159656098887
 10
-17.677675145809605
 20
0.8628677573791296
 10
-17.738685907103505
 20
0.8160740363491635
 10
-17.797614815962813
 20
0.7694095244201926
 10
-17.8544697523417
 20
0.7230994996920148
 10
-17.90924283628599
 20
0.6769186840648318
 10
-17.961938007772776
 20
0.6309797165885428
 10
-18.01255526680205
 20
0.5852825972631479
 10
-18.06103632386032
 20
0.5397729765522392
 10
-18.107497757974574
 20
0.4945595535286324
 10
-18.151764700604343
 20
0.4494792795831039
 10
-18.194010050301543
 20
0.4046388837999277
 10
-18.234119198027752
 20
0.3599859866312378
 10
-18.272098053748575
 20
0.31568954665188287
 10
-18.307998997011897
 20
0.27163495482342204
 10
-18.3417676782813
 20
0.22788050065934626
 10
-18.37341197751095
 20
0.18465146225945434
 10
-18.40298230426018
 20
0.14177691106035556
 10
-18.430426278981116
 20
0.09937145610049104
 10
-18.455747841650847
 20
0.05754773642975958
 10
-18.478954872223532
 20
0.016531030147959872
 10
-18.50004737069918
 20
-0.0236786627449083
 10
-18.519085596579817
 20
-0.06297067318748757
 10
-18.535966760758257
 20
-0.1010594635779464
 10
-18.550755062713613
 20
-0.13772172580502842
 10
-18.563526521856257
 20
-0.17239623460777945
 10
-18.57418228905608
 20
-0.20468481333446903
 10
-18.582810203654695
 20
-0.23368831957444552
 10
-18.589498104993737
 20
-0.25850761091705776
 10
-18.59418063374828
 20
-0.2777870787864321
 10
-18.59696335915685
 20
-0.290120705047371
 10
-18.58544323336047
 20
-0.6500962187824122
 10
-18.5842726929708
 20
-0.6529310847725472
 10
-18.58076304179032
 20
-0.6613793632180024
 10
-18.574922159773216
 20
-0.6752157760189794
 10
-18.566660237589307
 20
-0.6953957851110792
 10
-18.556048544529133
 20
-0.723106040495327
 10
-18.543133200471907
 20
-0.7554159568858024
 10
-18.527918955537473
 20
-0.790577659020527
 10
-18.51054405862678
 20
-0.8278629330522399
 10
-18.49099355997425
 20
-0.8660870989684581
 10
-18.46922886995181
 20
-0.9047413110560938
 10
-18.445372477552066
 20
-0.9435479116674824
 10
-18.41937594320424
 20
-0.9822796527142839
 10
-18.391247146862497
 20
-1.0207112560967
 10
-18.360990028503924
 20
-1.0587300827648316
 10
-18.32860458812851
 20
-1.0963361327186785
 10
-18.29414911524976
 20
-1.1334750564218334
 10
-18.257571230319797
 20
-1.1700322448358549
 10
-18.21886896335009
 20
-1.2060640174856925
 10
-18.178100603854126
 20
-1.241516024834939
 10
-18.135205892329864
 20
-1.2764989359449512
 10
-18.090186798765856
 20
-1.3109564312907795
 10
-18.043159902189075
 20
-1.3447798117996088
 10
-17.99395033405906
 20
-1.378132126080662
 10
-17.942729022939194
 20
-1.4109629645746153
 10
-17.889381359791034
 20
-1.4433247068293344
 10
-17.83396563412807
 20
-1.4751630033084115
 10
-17.776483815938853
 20
-1.5064215344868972
 10
-17.71692999525775
 20
-1.53726925893964
 10
-17.655308112061846
 20
-1.567593537616741
 10
-17.59161028639698
 20
-1.5976196486179985
 10
-17.525842428228767
 20
-1.6271786333685634
 10
-17.458056917105083
 20
-1.6563851009068769
 10
-17.388197433500967
 20
-1.6852370812443973
 10
-17.316260037439342
 20
-1.7138472134310239
 10
-17.242303018433702
 20
-1.7421611479303485
 10
-17.166324406495505
 20
-1.7702352042673204
 10
-17.088324201624747
 20
-1.7980693824419405
 10
-17.008240174330854
 20
-1.8258306710405154
 10
-16.926186933652264
 20
-1.8534666905151789
 10
-16.84205381052763
 20
-1.8809171813638976
 10
-16.75595344400684
 20
-1.9081860835637554
 10
-16.667825574587866
 20
-1.93538406617611
 10
-16.577726521795658
 20
-1.9625130991895026
 10
-16.4856019360938
 20
-1.9895148930904423
 10
-16.39151207698434
 20
-2.016278778817571
 10
-16.295398654953775
 20
-2.0428591059072976
 10
-16.19737233906347
 20
-2.069316133861655
 10
-16.097376809788468
 20
-2.0956478926921
 10
-15.995412067128775
 20
-2.121854382398634
 10
-15.89148402105001
 20
-2.1477666444064076
 10
-15.78564899107713
 20
-2.1733866487039637
 10
-15.677850657685184
 20
-2.198712425302759
 10
-15.56814140042203
 20
-2.223858583241235
 10
-15.456521219287678
 20
-2.248825122519393
 10
-15.342997994236292
 20
-2.273386765037433
 10
-15.227624104815733
 20
-2.297658119833796
 10
-15.110345201489599
 20
-2.321580897394991
 10
-14.991159314269346
 20
-2.3452114172459684
 10
-14.870122762679923
 20
-2.3685516493752683
 10
-14.747237516709875
 20
-2.3915452742579433
 10
-14.622501606370658
 20
-2.4142486114189414
 10
-14.495915031662271
 20
-2.4366616608582623
 10
-14.367479762573259
 20
-2.458728103050958
 10
-14.237250148640022
 20
-2.4805062275105176
 10
-14.10522618986257
 20
-2.5019960342369436
 10
-13.971353536704491
 20
-2.523139233716743
 10
-13.8357408882386
 20
-2.544052404976899
 10
-13.698333894928489
 20
-2.56467725850392
 10
-13.559130586785615
 20
-2.5850701138227565
 10
-13.418189253323474
 20
-2.6051766213969993
 10
-13.275515804507688
 20
-2.6248278226518007
 10
-13.131104330372633
 20
-2.6441926761620085
 10
-12.98489457141627
 20
-2.663381850988981
 10
-12.837057456202
 20
-2.682344937573394
 10
-12.687484285656998
 20
-2.7009653568882643
 10
-12.536177029769812
 20
-2.7191867894086426
 10
-12.383244387613258
 20
-2.7371258141615105
 10
-12.228628069673837
 20
-2.7548367806832768
 10
-12.072332015928641
 20
-2.772207049924043
 10
-11.914412545902614
 20
-2.7892385918723495
 10
-11.754871629584299
 20
-2.805875087003248
 10
-11.593703357008076
 20
-2.8222854938915862
 10
-11.430911668151019
 20
-2.8383571734874655
 10
-11.266492623036054
 20
-2.8542027648407844
 10
-11.100564770678698
 20
-2.869657249353779
 10
-10.933013502040515
 20
-2.884773006574314
 10
-10.763895136646452
 20
-2.899552006490932
 10
-10.593264024032914
 20
-2.9140525386171237
 10
-10.421067784652042
 20
-2.9281599939144485
 10
-10.247358798051698
 20
-2.941988981421348
 10
-10.072195353745373
 20
-2.9554851516014127
 10
-9.895468752660255
 20
-2.9685319254276616
 10
-9.717291633846239
 20
-2.9811332428771777
 10
-9.537658087337698
 20
-2.9934580625248093
 10
-9.35656811313464
 20
-3.0055063843705563
 10
-9.174021711237057
 20
-3.01727820841442
 10
-8.990081111135527
 20
-3.0286065460700926
 10
-8.804750252807134
 20
-3.039378758287674
 10
-8.61796493677276
 20
-3.049818153178422
 10
-8.429837802082304
 20
-3.05992867071942
 10
-8.240316469187903
 20
-3.0695957018722266
 10
-8.049461197591587
 20
-3.0787085775754846
 10
-7.857266077327733
 20
-3.0874362564040423
 10
-7.663783487944204
 20
-3.0958933473963417
 10
-7.468961049893139
 20
-3.1039652415139414
 10
-7.272804673140157
 20
-3.1114829801819925
 10
-7.075423056758076
 20
-3.1185631424274782
 10
-6.876814230758356
 20
-3.1252620477753466
 10
-6.676865556091098
 20
-3.1315757562485156
 10
-6.47574796131969
 20
-3.1374538582876603
 10
-6.273409066896268
 20
-3.1427817448543403
 10
-6.069848872820831
 20
-3.147559415948555
 10
-5.865121728629786
 20
-3.151845161083796
 10
-5.659217784380427
 20
-3.155920577884811
 10
-5.452199269563325
 20
-3.159618677765294
 10
-5.2440177446077
 20
-3.162712212636904
 10
-5.034671239525011
 20
-3.1652575020245908
 10
-4.824272393365155
 20
-3.1672584859054376
 10
-4.612757006649016
 20
-3.168938472390701
 10
-4.400185338878629
 20
-3.170186792419024
 10
-4.1865573900539905
 20
-3.1710034459904066
 10
-3.971877100152186
 20
-3.171275794054949
 10
-3.756142499184674
 20
-3.1710601561376017
 10
-3.539462286224271
 20
-3.1704731112653466
 10
-3.3217277621981607
 20
-3.1693980804112014
 10
-3.1030555061333223
 20
-3.167726364502351
 10
-2.8834435480412184
 20
-3.165514283063744
 10
-2.662889917933305
 20
-3.16281815562033
 10
-2.4413402662731745
 20
-3.1595796926586184
 10
-2.218967491612764
 20
-3.1556921650943353
 10
-1.9957172444156572
 20
-3.1510972834139883
 10
-1.7715213852256597
 20
-3.146130994778735
 10
-1.5464945230812115
 20
-3.1407409196407072
 10
-1.3207047974385118
 20
-3.1345911108387505
 10
-1.0940336592820354
 20
-3.12784658697063
 10
-0.866535458148193
 20
-3.1205656375498365
 10
-0.6383267730639628
 20
-3.1126395635035546
 10
-0.4092969349679948
 20
-3.1040081053297515
 10
-0.17955858291017768
 20
-3.0946752030055102
 10
0.050952482588596595
 20
-3.0848641646420885
 10
0.2821760020262965
 20
-3.074464321178127
 10
0.5140458059352688
 20
-3.063196044977421
 10
0.7466241238060799
 20
-3.051226324626277
 10
0.9798625160679557
 20
-3.0387824082130352
 10
1.2136987532303127
 20
-3.0256973071513893
 10
1.4481871848295675
 20
-3.0119127319278474
 10
1.6832754313178453
 20
-2.9975432915808495
 10
1.918955612740986
 20
-2.9823637080105985
 10
2.155227729098993
 20
-2.9663739812170933
 10
2.3920433408210715
 20
-2.949801359288675
 10
2.629348098370822
 20
-2.9327041317388356
 10
2.867196351284652
 20
-2.9150240090540818
 10
3.1055258700719834
 20
-2.896594002648108
 10
3.3443405947099003
 20
-2.877526751570813
 10
3.5836405251984096
 20
-2.857822255822197
 10
3.8233693420125525
 20
-2.837482485390801
 10
4.063521135186708
 20
-2.8163384817017767
 10
4.304099844697956
 20
-2.7945028838050234
 10
4.54500071145057
 20
-2.7722049097774235
 10
4.786334404505904
 20
-2.7493843001169433
 10
5.0279823748484365
 20
-2.7258760362258165
 10
5.2700029119916545
 20
-2.701734467640452
 10
5.5122833768856605
 20
-2.676963534337935
 10
5.754882059043946
 20
-2.6516175858546704
 10
5.997796988477971
 20
-2.62564030266571
 10
6.240917496126375
 20
-2.5990919442730873
 10
6.484303841491196
 20
-2.5720831797381587
 10
6.727954054583887
 20
-2.5445576895359756
 10
6.971753526366008
 20
-2.5164630941186705
 10
7.215760546351055
 20
-2.487853743022652
 10
7.459922734991156
 20
-2.458844245286362
 10
7.7042885318570935
 20
-2.4292073528214595
 10
7.948749237876057
 20
-2.3990596446549275
 10
8.193308793025125
 20
-2.3685137598366643
 10
8.437965227315765
 20
-2.337513378841721
 10
8.682714600770877
 20
-2.3059458626201987
 10
8.92756085336756
 20
-2.2739238502219963
 10
9.17239528603299
 20
-2.2415639206740967
 10
9.417270278315037
 20
-2.2087514649380577
 10
9.662135420654375
 20
-2.1756574115772715
 10
9.906984803085377
 20
-2.1421128020168885
 10
10.151816455619509
 20
-2.108061316731959
 10
10.396634318233843
 20
-2.073615594772383
 10
10.641331661844108
 20
-2.0389485346900926
 10
10.88596480597526
 20
-2.0040581664965447
 10
11.130471521136723
 20
-1.9687775016054343
 10
11.374853777317036
 20
-1.933162859541709
 10
11.619111574516195
 20
-1.8972142403053707
 10
11.863246882722747
 20
-1.8609879634213673
 10
12.107145092898252
 20
-1.8244316493418336
 10
12.350864494556202
 20
-1.7875996476031775
 10
12.59435073816018
 20
-1.7505502477188901
 10
12.837664083212234
 20
-1.7133941187503285
 10
13.080684010708277
 20
-1.6759099225747789
 10
13.323412490636876
 20
-1.6381539787171897
 10
13.565915692465671
 20
-1.600405914813768
 10
13.80806915721352
 20
-1.562331753691899
 10
14.04987091489188
 20
-1.5238751758266338
 10
14.291389104956949
 20
-1.4853721283791281
 10
14.53251502833591
 20
-1.4469391903763638
 10
14.773293184622467
 20
-1.4082364746801026
 10
15.013669224280203
 20
-1.3693222708038353
 10
15.253586827784188
 20
-1.3301985487361032
 10
15.49310625463644
 20
-1.2909759775382652
 10
15.732173155300542
 20
-1.2517128467238117
 10
15.970789499765058
 20
-1.2124654758176918
 10
16.208895028527948
 20
-1.1731231957585488
 10
16.44648580161211
 20
-1.1335733674964836
 10
16.6835677289832
 20
-1.0939849496063443
 10
16.920140810641186
 20
-1.054357942088132
 10
17.156094377524745
 20
-1.0147526044438784
 10
17.39154106868374
 20
-0.9751649966965011
 10
17.62636233510267
 20
-0.9354301002482343
 10
17.86056014677008
 20
-0.8956042346240277
 10
18.094144353628653
 20
-0.8559689974486296
 10
18.327112985689883
 20
-0.8164680691970896
 10
18.55934946392676
 20
-0.7769927507965928
 10
18.790968397377732
 20
-0.7375954217950048
 10
19.02185517700436
 20
-0.6982237026444601
 10
19.252066122331595
 20
-0.6588756233564165
 10
19.481548853811567
 20
-0.6196657929693148
 10
19.710247051919332
 20
-0.580596181471697
 10
19.93822097615692
 20
-0.5417774579249204
 10
20.1653520775088
 20
-0.5030446037312201
 10
20.391752995024884
 20
-0.46439367891351213
 10
20.61730911966672
 20
-0.42577230392393056
 10
20.842032271365554
 20
-0.38751839591217324
 10
21.06586613059646
 20
-0.3496339248667814
 10
21.288911516478066
 20
-0.3117770336609743
 10
21.51099750044699
 20
-0.2738973127354274
 10
21.732252481461458
 20
-0.23644137831265435
 10
21.952561850483036
 20
-0.19935685084478877
 10
22.17191772755756
 20
-0.1624184522320321
 10
22.39032011268501
 20
-0.1256261824743848
 10
22.607770975853967
 20
-0.08903636109679591
 10
22.82428016700709
 20
-0.052930585724014115
 10
23.03973110711744
 20
-0.017200157283222845
 10
23.25423052526926
 20
0.018327822777509307
 10
23.46766578241267
 20
0.05364941448109936
 10
23.680040818524752
 20
0.08865197877764809
 10
23.891359573582573
 20
0.12322287661725623
 10
24.10161810760907
 20
0.1574747470498228
 10
24.31076010107928
 20
0.19140562008680617
 10
24.51884581349523
 20
0.22490482666684897
 10
24.725762605807052
 20
0.25796842681286813
 10
24.931560887574033
 20
0.2907673490882531
 10
25.136128019746295
 20
0.32329765351592105
 10
25.33963690087577
 20
0.3554526110115981
 10
25.541866192839738
 20
0.387111702571218
 10
25.742928534688097
 20
0.4182788681718642
 10
25.942821956432308
 20
0.4490104273384863
 10
26.14142987904538
 20
0.4794150791438996
 10
26.33875427251587
 20
0.5094365040631552
 10
26.53490974588221
 20
0.5390223225483864
 10
26.729729310558096
 20
0.568110305109019
 10
26.923273226045556
 20
0.5965897826836951
 10
27.115479262854024
 20
0.624627743858722
 10
27.3064017705199
 20
0.6522824781475907
 10
27.495986399506776
 20
0.6794956960368097
 10
27.68423314981465
 20
0.7062673975263792
 10
27.871091611884214
 20
0.7324266540529095
 10
28.056612195274777
 20
0.7581443941797901
 10
28.240684230924977
 20
0.783360358404988
 10
28.423360098382688
 20
0.8081891557669443
 10
28.604645707613543
 20
0.8324618276908103
 10
28.78448670908113
 20
0.856120084663095
 10
28.962877192819807
 20
0.8793328852586464
 10
29.139817158829604
 20
0.9021002294774652
 10
29.315306607110497
 20
0.9244221173195509
 10
29.489236838589672
 20
0.9461819697579208
 10
29.661724432294125
 20
0.9672710877197599
 10
29.83270321875619
 20
0.9879690988412737
 10
30.00211884843945
 20
1.0082177136089707
 10
30.170027640868874
 20
1.0280189020113935
 10
30.33637721649658
 20
1.0472580550101003
 10
30.501109285809086
 20
1.0659895221414997
 10
30.66433451786774
 20
1.084273562907624
 10
30.825946183588275
 20
1.1019372787565413
 10
30.985940342993604
 20
1.1190933087381507
 10
31.144318966072284
 20
1.1356853333275034
 10
31.301076142858665
 20
1.1518823110994472
 10
31.45621581332985
 20
1.167571603004083
 10
31.60968165796088
 20
1.1827512390528694
 10
31.761475646740305
 20
1.1973648997208566
 10
31.91165212920451
 20
1.2114708745215357
 10
32.06009649631507
 20
1.2251215430027735
 10
32.206808748072
 20
1.2383169051645693
 10
32.35184717398877
 20
1.2510026114705157
 10
32.49521374405394
 20
1.263122342395663
 10
32.63678990925196
 20
1.2748411165377762
 10
32.77663198910779
 20
1.2861609038853972
 10
32.91474589358707
 20
1.2969127458636776
 10
33.05107333317629
 20
1.3071509920090245
 10
33.185610367898384
 20
1.3169882813713378
 10
33.31841725725537
 20
1.3263139448892594
 10
33.44938333218589
 20
1.335067723060757
 10
33.578560972237824
 20
1.3433642249242708
 10
33.705948207422615
 20
1.3512597700047506
 10
33.83148871821532
 20
1.3587523883136545
 10
33.95518644459303
 20
1.365729440801084
 10
34.0770394165672
 20
1.3722472469919884
 10
34.19704369416074
 20
1.3784184459362663
 10
34.31520124736219
 20
1.3841867181089684
 10
34.43145969662368
 20
1.389437454471654
 10
34.54581904194524
 20
1.3941706550243231
 10
34.65832772289761
 20
1.3986135678553155
 10
34.76893138994441
 20
1.4027079034511396
 10
34.877630043085645
 20
1.4064536618117969
 10
34.98442565230984
 20
1.409794523412336
 10
35.08926189809203
 20
1.4127285182642157
 10
35.1921950999572
 20
1.415257616355978
 10
35.29316499840331
 20
1.4174924867489807
 10
35.39217553340743
 20
1.4193204903933239
 10
35.48922276499248
 20
1.420854266338907
 10
35.58436695266049
 20
1.4219831455243725
 10
35.677491517384496
 20
1.4228158270225364
 10
35.76865080870088
 20
1.4234106003468896
 10
35.85779047707326
 20
1.423709175983941
 10
35.9449688120151
 20
1.4236572043972828
 10
36.03012555402438
 20
1.423365354648272
 10
36.11332096260314
 20
1.422722957675552
 10
36.194436488735846
 20
1.4218950320768877
 10
36.27358674146094
 20
1.4208291983044123
 10
36.35065908172852
 20
1.419521516381043
 10
36.42570982906356
 20
1.417973956295322
 10
36.498738983466026
 20
1.416186518047248
 10
36.5697445749474
 20
1.414215521161772
 10
36.63867225397126
 20
1.4120026761254014
 10
36.705518080560516
 20
1.409660621988036
 10
36.77034034422868
 20
1.4071350092132682
 10
36.83308075546226
 20
1.4044801873375055
 10
36.89374128424978
 20
1.401639836835798
 10
36.95231996060271
 20
1.3986702772330954
 10
37.008818754509576
 20
1.3955151890044493
 10
37.06323569598187
 20
1.3922308916748074
 10
37.11556684504247
 20
1.3889300242940705
 10
37.16575982214354
 20
1.3854979778237964
 10
37.213925296346424
 20
1.381995011766019
 10
37.25989233908773
 20
1.3784715356800623
 10
37.30383187893085
 20
1.374877140006602
 10
37.34563127682589
 20
1.3712078847685547
 10
37.38528659279576
 20
1.3675764090158196
 10
37.422856116353955
 20
1.3639283632119885
 10
37.458283527975524
 20
1.3602617773685204
 10
37.49156488768338
 20
1.3566892905353136
 10
37.52276045497956
 20
1.3531002336510112
 10
37.55180997036204
 20
1.3496052757769703
 10
37.57871540381935
 20
1.3461480973882418
 10
37.6034728153744
 20
1.3428413375347243
 10
37.62608417501575
 20
1.3396286766914682
 10
37.646603832279794
 20
1.3365684043719657
 10
37.664919148116645
 20
1.3336565805991325
 10
37.68108447206269
 20
1.33095149488646
 10
37.6951561236429
 20
1.32845511722249
 10
37.707021463807365
 20
1.326163507630139
 10
37.71673287210396
 20
1.3241912751478484
 10
37.72434863804615
 20
1.3224840702392096
 10
37.729752182607
 20
1.321150591977039
 10
37.73299785532288
 20
1.3202491298748267
 10
37.734081716216714
 20
1.3198923229824735
  0
ENDSEC
  0
SECTION
  2
OBJECTS
  0
DICTIONARY
  5
A
330
0
100
AcDbDictionary
280
0
281
1
  3
ACAD_COLOR
350
B
  3
ACAD_GROUP
350
C
  3
ACAD_LAYOUT
350
D
  3
ACAD_MATERIAL
350
E
  3
ACAD_MLEADERSTYLE
350
F
  3
ACAD_MLINESTYLE
350
10
  3
ACAD_PLOTSETTINGS
350
11
  3
ACAD_PLOTSTYLENAME
350
12
  3
ACAD_SCALELIST
350
14
  3
ACAD_TABLESTYLE
350
15
  3
ACAD_VISUALSTYLE
350
16
  3
EZDXF_META
350
2D
  0
DICTIONARY
  5
B
330
A
100
AcDbDictionary
280
0
281
1
  0
DICTIONARY
  5
C
330
A
100
AcDbDictionary
280
0
281
1
  0
DICTIONARY
  5
D
330
A
100
AcDbDictionary
280
0
281
1
  3
Model
350
1A
  3
Layout1
350
1E
  0
DICTIONARY
  5
E
330
A
100
AcDbDictionary
280
0
281
1
  3
ByBlock
350
1F
  3
ByLayer
350
20
  3
Global
350
21
  0
DICTIONARY
  5
F
330
A
100
AcDbDictionary
280
0
281
1
  3
Standard
350
2C
  0
DICTIONARY
  5
10
330
A
100
AcDbDictionary
280
0
281
1
  3
Standard
350
22
  0
DICTIONARY
  5
11
330
A
100
AcDbDictionary
280
0
281
1
  0
ACDBDICTIONARYWDFLT
  5
12
330
A
100
AcDbDictionary
280
0
281
1
  3
Normal
350
13
100
AcDbDictionaryWithDefault
340
13
  0
ACDBPLACEHOLDER
  5
13
330
12
  0
DICTIONARY
  5
14
330
A
100
AcDbDictionary
280
0
281
1
  0
DICTIONARY
  5
15
330
A
100
AcDbDictionary
280
0
281
1
  0
DICTIONARY
  5
16
330
A
100
AcDbDictionary
280
0
281
1
  0
LAYOUT
  5
1A
330
D
100
AcDbPlotSettings
  1

  4
A3
  6

 40
7.5
 41
20.0
 42
7.5
 43
20.0
 44
420.0
 45
297.0
 46
0.0
 47
0.0
 48
0.0
 49
0.0
140
0.0
141
0.0
142
1.0
143
1.0
 70
1024
 72
1
 73
0
 74
5
  7

 75
16
 76
0
 77
2
 78
300
147
1.0
148
0.0
149
0.0
100
AcDbLayout
  1
Model
 70
1
 71
0
 10
0.0
 20
0.0
 11
420.0
 21
297.0
 12
0.0
 22
0.0
 32
0.0
 14
1e+20
 24
1e+20
 34
1e+20
 15
-1e+20
 25
-1e+20
 35
-1e+20
146
0.0
 13
0.0
 23
0.0
 33
0.0
 16
1.0
 26
0.0
 36
0.0
 17
0.0
 27
1.0
 37
0.0
 76
1
330
17
  0
LAYOUT
  5
1E
330
D
100
AcDbPlotSettings
  1

  4
A3
  6

 40
7.5
 41
20.0
 42
7.5
 43
20.0
 44
420.0
 45
297.0
 46
0.0
 47
0.0
 48
0.0
 49
0.0
140
0.0
141
0.0
142
1.0
143
1.0
 70
0
 72
1
 73
0
 74
5
  7

 75
16
 76
0
 77
2
 78
300
147
1.0
148
0.0
149
0.0
100
AcDbLayout
  1
Layout1
 70
1
 71
1
 10
0.0
 20
0.0
 11
420.0
 21
297.0
 12
0.0
 22
0.0
 32
0.0
 14
1e+20
 24
1e+20
 34
1e+20
 15
-1e+20
 25
-1e+20
 35
-1e+20
146
0.0
 13
0.0
 23
0.0
 33
0.0
 16
1.0
 26
0.0
 36
0.0
 17
0.0
 27
1.0
 37
0.0
 76
1
330
1B
  0
MATERIAL
  5
1F
102
{ACAD_REACTORS
330
E
102
}
330
E
100
AcDbMaterial
  1
ByBlock
  2

 70
0
 40
1.0
 71
1
 41
1.0
 91
-1023410177
 42
1.0
 72
1
  3

 73
1
 74
1
 75
1
 44
0.5
 73
0
 45
1.0
 46
1.0
 77
1
  4

 78
1
 79
1
170
1
 48
1.0
171
1
  6

172
1
173
1
174
1
140
1.0
141
1.0
175
1
  7

176
1
177
1
178
1
143
1.0
179
1
  8

270
1
271
1
272
1
145
1.0
146
1.0
273
1
  9

274
1
275
1
276
1
 42
1.0
 72
1
  3

 73
1
 74
1
 75
1
 94
63
  0
MATERIAL
  5
20
102
{ACAD_REACTORS
330
E
102
}
330
E
100
AcDbMaterial
  1
ByLayer
  2

 70
0
 40
1.0
 71
1
 41
1.0
 91
-1023410177
 42
1.0
 72
1
  3

 73
1
 74
1
 75
1
 44
0.5
 73
0
 45
1.0
 46
1.0
 77
1
  4

 78
1
 79
1
170
1
 48
1.0
171
1
  6

172
1
173
1
174
1
140
1.0
141
1.0
175
1
  7

176
1
177
1
178
1
143
1.0
179
1
  8

270
1
271
1
272
1
145
1.0
146
1.0
273
1
  9

274
1
275
1
276
1
 42
1.0
 72
1
  3

 73
1
 74
1
 75
1
 94
63
  0
MATERIAL
  5
21
102
{ACAD_REACTORS
330
E
102
}
330
E
100
AcDbMaterial
  1
Global
  2

 70
0
 40
1.0
 71
1
 41
1.0
 91
-1023410177
 42
1.0
 72
1
  3

 73
1
 74
1
 75
1
 44
0.5
 73
0
 45
1.0
 46
1.0
 77
1
  4

 78
1
 79
1
170
1
 48
1.0
171
1
  6

172
1
173
1
174
1
140
1.0
141
1.0
175
1
  7

176
1
177
1
178
1
143
1.0
179
1
  8

270
1
271
1
272
1
145
1.0
146
1.0
273
1
  9

274
1
275
1
276
1
 42
1.0
 72
1
  3

 73
1
 74
1
 75
1
 94
63
  0
MLINESTYLE
  5
22
102
{ACAD_REACTORS
330
10
102
}
330
10
100
AcDbMlineStyle
  2
Standard
 70
0
  3

 62
256
 51
90.0
 52
90.0
 71
2
 49
0.5
 62
256
  6
BYLAYER
 49
-0.5
 62
256
  6
BYLAYER
  0
MLEADERSTYLE
  5
2C
102
{ACAD_REACTORS
330
F
102
}
330
F
100
AcDbMLeaderStyle
179
2
170
2
171
1
172
0
 90
2
 40
0.0
 41
0.0
173
1
 91
-1056964608
 92
-2
290
1
 42
2.0
291
1
 43
8.0
  3
Standard
 44
4.0
300

342
29
174
1
175
1
176
0
178
1
 93
-1056964608
 45
4.0
292
0
297
0
 46
4.0
 94
-1056964608
 47
1.0
 49
1.0
140
1.0
294
1
141
0.0
177
0
142
1.0
295
0
296
0
143
3.75
271
0
272
9
273
9
  0
DICTIONARY
  5
2D
330
A
100
AcDbDictionary
280
1
281
1
  3
CREATED_BY_EZDXF
350
2E
  3
WRITTEN_BY_EZDXF
350
32
  0
DICTIONARYVAR
  5
2E
330
2D
100
DictionaryVariables
280
0
  1
1.3.5 @ 2025-08-20T01:05:14.568089+00:00
  0
DICTIONARYVAR
  5
32
330
2D
100
DictionaryVariables
280
0
  1
1.3.5 @ 2025-08-20T01:05:14.573077+00:00
  0
ENDSEC
  0
EOF
