  0
SECTION
  2
HEADER
  9
$ACADVER
  1
AC1032
  9
$ACADMAINTVER
 90
4
  9
$DWGCODEPAGE
  3
ANSI_1252
  9
$LASTSAVEDBY
  1
ezdxf
  9
$REQUIREDVERSIONS
160
0
  9
$INSBASE
 10
0.0
 20
0.0
 30
0.0
  9
$EXTMIN
 10
1e+20
 20
1e+20
 30
1e+20
  9
$EXTMAX
 10
-1e+20
 20
-1e+20
 30
-1e+20
  9
$LIMMIN
 10
0.0
 20
0.0
  9
$LIMMAX
 10
420.0
 20
297.0
  9
$ORTHOMODE
 70
0
  9
$REGENMODE
 70
1
  9
$FILLMODE
 70
1
  9
$QTEXTMODE
 70
0
  9
$MIRRTEXT
 70
1
  9
$LTSCALE
 40
1.0
  9
$ATTMODE
 70
1
  9
$TEXTSIZE
 40
2.5
  9
$TRACEWID
 40
1.0
  9
$TEXTSTYLE
  7
Standard
  9
$CLAYER
  8
0
  9
$CELTYPE
  6
ByLayer
  9
$CECOLOR
 62
256
  9
$CELTSCALE
 40
1.0
  9
$DISPSILH
 70
0
  9
$DIMSCALE
 40
1.0
  9
$DIMASZ
 40
2.5
  9
$DIMEXO
 40
0.625
  9
$DIMDLI
 40
3.75
  9
$DIMRND
 40
0.0
  9
$DIMDLE
 40
0.0
  9
$DIMEXE
 40
1.25
  9
$DIMTP
 40
0.0
  9
$DIMTM
 40
0.0
  9
$DIMTXT
 40
2.5
  9
$DIMCEN
 40
2.5
  9
$DIMTSZ
 40
0.0
  9
$DIMTOL
 70
0
  9
$DIMLIM
 70
0
  9
$DIMTIH
 70
0
  9
$DIMTOH
 70
0
  9
$DIMSE1
 70
0
  9
$DIMSE2
 70
0
  9
$DIMTAD
 70
1
  9
$DIMZIN
 70
8
  9
$DIMBLK
  1

  9
$DIMASO
 70
1
  9
$DIMSHO
 70
1
  9
$DIMPOST
  1

  9
$DIMAPOST
  1

  9
$DIMALT
 70
0
  9
$DIMALTD
 70
3
  9
$DIMALTF
 40
0.03937007874
  9
$DIMLFAC
 40
1.0
  9
$DIMTOFL
 70
1
  9
$DIMTVP
 40
0.0
  9
$DIMTIX
 70
0
  9
$DIMSOXD
 70
0
  9
$DIMSAH
 70
0
  9
$DIMBLK1
  1

  9
$DIMBLK2
  1

  9
$DIMSTYLE
  2
ISO-25
  9
$DIMCLRD
 70
0
  9
$DIMCLRE
 70
0
  9
$DIMCLRT
 70
0
  9
$DIMTFAC
 40
1.0
  9
$DIMGAP
 40
0.625
  9
$DIMJUST
 70
0
  9
$DIMSD1
 70
0
  9
$DIMSD2
 70
0
  9
$DIMTOLJ
 70
0
  9
$DIMTZIN
 70
8
  9
$DIMALTZ
 70
0
  9
$DIMALTTZ
 70
0
  9
$DIMUPT
 70
0
  9
$DIMDEC
 70
2
  9
$DIMTDEC
 70
2
  9
$DIMALTU
 70
2
  9
$DIMALTTD
 70
3
  9
$DIMTXSTY
  7
Standard
  9
$DIMAUNIT
 70
0
  9
$DIMADEC
 70
0
  9
$DIMALTRND
 40
0.0
  9
$DIMAZIN
 70
0
  9
$DIMDSEP
 70
44
  9
$DIMATFIT
 70
3
  9
$DIMFRAC
 70
0
  9
$DIMLDRBLK
  1

  9
$DIMLUNIT
 70
2
  9
$DIMLWD
 70
-2
  9
$DIMLWE
 70
-2
  9
$DIMTMOVE
 70
0
  9
$DIMFXL
 40
1.0
  9
$DIMFXLON
 70
0
  9
$DIMJOGANG
 40
0.785398163397
  9
$DIMTFILL
 70
0
  9
$DIMTFILLCLR
 70
0
  9
$DIMARCSYM
 70
0
  9
$DIMLTYPE
  6

  9
$DIMLTEX1
  6

  9
$DIMLTEX2
  6

  9
$DIMTXTDIRECTION
 70
0
  9
$LUNITS
 70
2
  9
$LUPREC
 70
4
  9
$SKETCHINC
 40
1.0
  9
$FILLETRAD
 40
10.0
  9
$AUNITS
 70
0
  9
$AUPREC
 70
2
  9
$MENU
  1
.
  9
$ELEVATION
 40
0.0
  9
$PELEVATION
 40
0.0
  9
$THICKNESS
 40
0.0
  9
$LIMCHECK
 70
0
  9
$CHAMFERA
 40
0.0
  9
$CHAMFERB
 40
0.0
  9
$CHAMFERC
 40
0.0
  9
$CHAMFERD
 40
0.0
  9
$SKPOLY
 70
0
  9
$TDCREATE
 40
2460908.0869560186
  9
$TDUCREATE
 40
2458532.153996898
  9
$TDUPDATE
 40
2460908.0869560186
  9
$TDUUPDATE
 40
2458532.1544311
  9
$TDINDWG
 40
0.0
  9
$TDUSRTIMER
 40
0.0
  9
$USRTIMER
 70
1
  9
$ANGBASE
 50
0.0
  9
$ANGDIR
 70
0
  9
$PDMODE
 70
0
  9
$PDSIZE
 40
0.0
  9
$PLINEWID
 40
0.0
  9
$SPLFRAME
 70
0
  9
$SPLINETYPE
 70
6
  9
$SPLINESEGS
 70
8
  9
$HANDSEED
  5
33
  9
$SURFTAB1
 70
6
  9
$SURFTAB2
 70
6
  9
$SURFTYPE
 70
6
  9
$SURFU
 70
6
  9
$SURFV
 70
6
  9
$UCSBASE
  2

  9
$UCSNAME
  2

  9
$UCSORG
 10
0.0
 20
0.0
 30
0.0
  9
$UCSXDIR
 10
1.0
 20
0.0
 30
0.0
  9
$UCSYDIR
 10
0.0
 20
1.0
 30
0.0
  9
$UCSORTHOREF
  2

  9
$UCSORTHOVIEW
 70
0
  9
$UCSORGTOP
 10
0.0
 20
0.0
 30
0.0
  9
$UCSORGBOTTOM
 10
0.0
 20
0.0
 30
0.0
  9
$UCSORGLEFT
 10
0.0
 20
0.0
 30
0.0
  9
$UCSORGRIGHT
 10
0.0
 20
0.0
 30
0.0
  9
$UCSORGFRONT
 10
0.0
 20
0.0
 30
0.0
  9
$UCSORGBACK
 10
0.0
 20
0.0
 30
0.0
  9
$PUCSBASE
  2

  9
$PUCSNAME
  2

  9
$PUCSORG
 10
0.0
 20
0.0
 30
0.0
  9
$PUCSXDIR
 10
1.0
 20
0.0
 30
0.0
  9
$PUCSYDIR
 10
0.0
 20
1.0
 30
0.0
  9
$PUCSORTHOREF
  2

  9
$PUCSORTHOVIEW
 70
0
  9
$PUCSORGTOP
 10
0.0
 20
0.0
 30
0.0
  9
$PUCSORGBOTTOM
 10
0.0
 20
0.0
 30
0.0
  9
$PUCSORGLEFT
 10
0.0
 20
0.0
 30
0.0
  9
$PUCSORGRIGHT
 10
0.0
 20
0.0
 30
0.0
  9
$PUCSORGFRONT
 10
0.0
 20
0.0
 30
0.0
  9
$PUCSORGBACK
 10
0.0
 20
0.0
 30
0.0
  9
$USERI1
 70
0
  9
$USERI2
 70
0
  9
$USERI3
 70
0
  9
$USERI4
 70
0
  9
$USERI5
 70
0
  9
$USERR1
 40
0.0
  9
$USERR2
 40
0.0
  9
$USERR3
 40
0.0
  9
$USERR4
 40
0.0
  9
$USERR5
 40
0.0
  9
$WORLDVIEW
 70
1
  9
$SHADEDGE
 70
3
  9
$SHADEDIF
 70
70
  9
$TILEMODE
 70
1
  9
$MAXACTVP
 70
64
  9
$PINSBASE
 10
0.0
 20
0.0
 30
0.0
  9
$PLIMCHECK
 70
0
  9
$PEXTMIN
 10
1e+20
 20
1e+20
 30
1e+20
  9
$PEXTMAX
 10
-1e+20
 20
-1e+20
 30
-1e+20
  9
$PLIMMIN
 10
0.0
 20
0.0
  9
$PLIMMAX
 10
420.0
 20
297.0
  9
$UNITMODE
 70
0
  9
$VISRETAIN
 70
1
  9
$PLINEGEN
 70
0
  9
$PSLTSCALE
 70
1
  9
$TREEDEPTH
 70
3020
  9
$CMLSTYLE
  2
Standard
  9
$CMLJUST
 70
0
  9
$CMLSCALE
 40
20.0
  9
$PROXYGRAPHICS
 70
1
  9
$MEASUREMENT
 70
1
  9
$CELWEIGHT
370
-1
  9
$ENDCAPS
280
0
  9
$JOINSTYLE
280
0
  9
$LWDISPLAY
290
0
  9
$INSUNITS
 70
6
  9
$HYPERLINKBASE
  1

  9
$STYLESHEET
  1

  9
$XEDIT
290
1
  9
$CEPSNTYPE
380
0
  9
$PSTYLEMODE
290
1
  9
$FINGERPRINTGUID
  2
{15CBAC37-655C-4707-956D-E4510C62FF3D}
  9
$VERSIONGUID
  2
{173DDFAF-AE10-419E-8DF5-370AE93A1F3A}
  9
$EXTNAMES
290
1
  9
$PSVPSCALE
 40
0.0
  9
$OLESTARTUP
290
0
  9
$SORTENTS
280
127
  9
$INDEXCTL
280
0
  9
$HIDETEXT
280
1
  9
$XCLIPFRAME
280
1
  9
$HALOGAP
280
0
  9
$OBSCOLOR
 70
257
  9
$OBSLTYPE
280
0
  9
$INTERSECTIONDISPLAY
280
0
  9
$INTERSECTIONCOLOR
 70
257
  9
$DIMASSOC
280
2
  9
$PROJECTNAME
  1

  9
$CAMERADISPLAY
290
0
  9
$LENSLENGTH
 40
50.0
  9
$CAMERAHEIGHT
 40
0.0
  9
$STEPSPERSEC
 40
24.0
  9
$STEPSIZE
 40
100.0
  9
$3DDWFPREC
 40
2.0
  9
$PSOLWIDTH
 40
0.005
  9
$PSOLHEIGHT
 40
0.08
  9
$LOFTANG1
 40
1.570796326795
  9
$LOFTANG2
 40
1.570796326795
  9
$LOFTMAG1
 40
0.0
  9
$LOFTMAG2
 40
0.0
  9
$LOFTPARAM
 70
7
  9
$LOFTNORMALS
280
1
  9
$LATITUDE
 40
37.795
  9
$LONGITUDE
 40
-122.394
  9
$NORTHDIRECTION
 40
0.0
  9
$TIMEZONE
 70
-8000
  9
$LIGHTGLYPHDISPLAY
280
1
  9
$TILEMODELIGHTSYNCH
280
1
  9
$CMATERIAL
347
20
  9
$SOLIDHIST
280
0
  9
$SHOWHIST
280
1
  9
$DWFFRAME
280
2
  9
$DGNFRAME
280
2
  9
$REALWORLDSCALE
290
1
  9
$INTERFERECOLOR
 62
256
  9
$CSHADOW
280
0
  9
$SHADOWPLANELOCATION
 40
0.0
  0
ENDSEC
  0
SECTION
  2
CLASSES
  0
CLASS
  1
ACDBDICTIONARYWDFLT
  2
AcDbDictionaryWithDefault
  3
ObjectDBX Classes
 90
0
 91
0
280
0
281
0
  0
CLASS
  1
SUN
  2
AcDbSun
  3
SCENEOE
 90
1153
 91
0
280
0
281
0
  0
CLASS
  1
VISUALSTYLE
  2
AcDbVisualStyle
  3
ObjectDBX Classes
 90
4095
 91
0
280
0
281
0
  0
CLASS
  1
MATERIAL
  2
AcDbMaterial
  3
ObjectDBX Classes
 90
1153
 91
0
280
0
281
0
  0
CLASS
  1
SCALE
  2
AcDbScale
  3
ObjectDBX Classes
 90
1153
 91
0
280
0
281
0
  0
CLASS
  1
TABLESTYLE
  2
AcDbTableStyle
  3
ObjectDBX Classes
 90
4095
 91
0
280
0
281
0
  0
CLASS
  1
MLEADERSTYLE
  2
AcDbMLeaderStyle
  3
ACDB_MLEADERSTYLE_CLASS
 90
4095
 91
0
280
0
281
0
  0
CLASS
  1
DICTIONARYVAR
  2
AcDbDictionaryVar
  3
ObjectDBX Classes
 90
0
 91
0
280
0
281
0
  0
CLASS
  1
CELLSTYLEMAP
  2
AcDbCellStyleMap
  3
ObjectDBX Classes
 90
1152
 91
0
280
0
281
0
  0
CLASS
  1
MENTALRAYRENDERSETTINGS
  2
AcDbMentalRayRenderSettings
  3
SCENEOE
 90
1024
 91
0
280
0
281
0
  0
CLASS
  1
ACDBDETAILVIEWSTYLE
  2
AcDbDetailViewStyle
  3
ObjectDBX Classes
 90
1025
 91
0
280
0
281
0
  0
CLASS
  1
ACDBSECTIONVIEWSTYLE
  2
AcDbSectionViewStyle
  3
ObjectDBX Classes
 90
1025
 91
0
280
0
281
0
  0
CLASS
  1
RASTERVARIABLES
  2
AcDbRasterVariables
  3
ISM
 90
0
 91
0
280
0
281
0
  0
CLASS
  1
LAYOUT
  2
AcDbLayout
  3
ObjectDBX Classes
 90
0
 91
0
280
0
281
0
  0
CLASS
  1
ACDBPLACEHOLDER
  2
AcDbPlaceHolder
  3
ObjectDBX Classes
 90
0
 91
0
280
0
281
0
  0
ENDSEC
  0
SECTION
  2
TABLES
  0
TABLE
  2
VPORT
  5
8
330
0
100
AcDbSymbolTable
 70
1
  0
VPORT
  5
23
330
8
100
AcDbSymbolTableRecord
100
AcDbViewportTableRecord
  2
*Active
 70
0
 10
0.0
 20
0.0
 11
1.0
 21
1.0
 12
0.0
 22
0.0
 13
0.0
 23
0.0
 14
0.5
 24
0.5
 15
0.5
 25
0.5
 16
0.0
 26
0.0
 36
1.0
 17
0.0
 27
0.0
 37
0.0
 40
1000.0
 41
1.34
 42
50.0
 43
0.0
 44
0.0
 50
0.0
 51
0.0
 71
0
 72
1000
 73
1
 74
3
 75
0
 76
0
 77
0
 78
0
281
0
 65
0
146
0.0
  0
ENDTAB
  0
TABLE
  2
LTYPE
  5
2
330
0
100
AcDbSymbolTable
 70
3
  0
LTYPE
  5
24
330
2
100
AcDbSymbolTableRecord
100
AcDbLinetypeTableRecord
  2
ByBlock
 70
0
  3

 72
65
 73
0
 40
0.0
  0
LTYPE
  5
25
330
2
100
AcDbSymbolTableRecord
100
AcDbLinetypeTableRecord
  2
ByLayer
 70
0
  3

 72
65
 73
0
 40
0.0
  0
LTYPE
  5
26
330
2
100
AcDbSymbolTableRecord
100
AcDbLinetypeTableRecord
  2
Continuous
 70
0
  3

 72
65
 73
0
 40
0.0
  0
ENDTAB
  0
TABLE
  2
LAYER
  5
1
330
0
100
AcDbSymbolTable
 70
2
  0
LAYER
  5
27
330
1
100
AcDbSymbolTableRecord
100
AcDbLayerTableRecord
  2
0
 70
0
 62
7
  6
Continuous
370
-3
390
13
347
21
  0
LAYER
  5
28
330
1
100
AcDbSymbolTableRecord
100
AcDbLayerTableRecord
  2
Defpoints
 70
0
 62
7
  6
Continuous
290
0
370
-3
390
13
347
21
  0
ENDTAB
  0
TABLE
  2
STYLE
  5
5
330
0
100
AcDbSymbolTable
 70
1
  0
STYLE
  5
29
330
5
100
AcDbSymbolTableRecord
100
AcDbTextStyleTableRecord
  2
Standard
 70
0
 40
0.0
 41
1.0
 50
0.0
 71
0
 42
2.5
  3
txt
  4

  0
ENDTAB
  0
TABLE
  2
VIEW
  5
7
330
0
100
AcDbSymbolTable
 70
0
  0
ENDTAB
  0
TABLE
  2
UCS
  5
6
330
0
100
AcDbSymbolTable
 70
0
  0
ENDTAB
  0
TABLE
  2
APPID
  5
3
330
0
100
AcDbSymbolTable
 70
3
  0
APPID
  5
2A
330
3
100
AcDbSymbolTableRecord
100
AcDbRegAppTableRecord
  2
ACAD
 70
0
  0
APPID
  5
30
330
3
100
AcDbSymbolTableRecord
100
AcDbRegAppTableRecord
  2
HATCHBACKGROUNDCOLOR
 70
0
  0
APPID
  5
31
330
3
100
AcDbSymbolTableRecord
100
AcDbRegAppTableRecord
  2
EZDXF
 70
0
  0
ENDTAB
  0
TABLE
  2
DIMSTYLE
  5
4
330
0
100
AcDbSymbolTable
 70
1
100
AcDbDimStyleTable
  0
DIMSTYLE
105
2B
330
4
100
AcDbSymbolTableRecord
100
AcDbDimStyleTableRecord
  2
Standard
 70
0
 40
1.0
 41
2.5
 42
0.625
 43
3.75
 44
1.25
 45
0.0
 46
0.0
 47
0.0
 48
0.0
 49
2.5
140
2.5
141
2.5
142
0.0
143
0.03937007874
144
1.0
145
0.0
146
1.0
147
0.625
148
0.0
 69
0
 70
0
 71
0
 72
0
 73
0
 74
0
 75
0
 76
0
 77
1
 78
8
 79
3
170
0
171
3
172
1
173
0
174
0
175
0
176
0
177
0
178
0
179
2
271
2
272
2
273
2
274
3
275
0
276
0
277
2
278
44
279
0
280
0
281
0
282
0
283
0
284
8
285
0
286
0
288
0
289
3
290
0
371
-2
372
-2
  0
ENDTAB
  0
TABLE
  2
BLOCK_RECORD
  5
9
330
0
100
AcDbSymbolTable
 70
2
  0
BLOCK_RECORD
  5
17
330
9
100
AcDbSymbolTableRecord
100
AcDbBlockTableRecord
  2
*Model_Space
340
1A
 70
0
280
1
281
0
  0
BLOCK_RECORD
  5
1B
330
9
100
AcDbSymbolTableRecord
100
AcDbBlockTableRecord
  2
*Paper_Space
340
1E
 70
0
280
1
281
0
  0
ENDTAB
  0
ENDSEC
  0
SECTION
  2
BLOCKS
  0
BLOCK
  5
18
330
17
100
AcDbEntity
  8
0
100
AcDbBlockBegin
  2
*Model_Space
 70
0
 10
0.0
 20
0.0
 30
0.0
  3
*Model_Space
  1

  0
ENDBLK
  5
19
330
17
100
AcDbEntity
  8
0
100
AcDbBlockEnd
  0
BLOCK
  5
1C
330
1B
100
AcDbEntity
  8
0
100
AcDbBlockBegin
  2
*Paper_Space
 70
0
 10
0.0
 20
0.0
 30
0.0
  3
*Paper_Space
  1

  0
ENDBLK
  5
1D
330
1B
100
AcDbEntity
  8
0
100
AcDbBlockEnd
  0
ENDSEC
  0
SECTION
  2
ENTITIES
  0
LWPOLYLINE
  5
2F
330
17
100
AcDbEntity
  8
0
100
AcDbPolyline
 90
721
 70
1
 10
90.47029272103826
 20
39.70858838675707
 10
90.46731227972425
 20
39.7084075343238
 10
90.45848948888177
 20
39.70759491644864
 10
90.4440614147102
 20
39.70561041198106
 10
90.42377449382228
 20
39.702664814946516
 10
90.39807658644268
 20
39.69847156758173
 10
90.36677339573401
 20
39.6931064336245
 10
90.32978915795844
 20
39.68637511623739
 10
90.28739393369125
 20
39.67839614852001
 10
90.23951195919462
 20
39.66897523363493
 10
90.18588967108126
 20
39.658323165607584
 10
90.1269156630261
 20
39.64628841696235
 10
90.0624549047415
 20
39.632811721149395
 10
89.99244812967764
 20
39.61802810845637
 10
89.91701387093418
 20
39.601667518307984
 10
89.83603359541148
 20
39.58400001127953
 10
89.74970159994696
 20
39.56494982363317
 10
89.65788285425299
 20
39.54445768881911
 10
89.56051809177983
 20
39.52265863712498
 10
89.45786087591465
 20
39.499341874525314
 10
89.3496576432702
 20
39.47471819504556
 10
89.2360269269462
 20
39.44851753811047
 10
89.11712025441817
 20
39.42112849739495
 10
88.99259180137311
 20
39.392238242961895
 10
88.86284665867387
 20
39.36202457446078
 10
88.72761476574522
 20
39.330368958791944
 10
88.58703115287476
 20
39.297330662505225
 10
88.44109582006251
 20
39.262909685600626
 10
88.28974950075867
 20
39.22724105836578
 10
88.13299219496318
 20
39.19032478080068
 10
87.97094243577573
 20
39.15189079233006
 10
87.80348169009666
 20
39.11220915352919
 10
87.63080425476345
 20
39.071204100660275
 10
87.45271583293864
 20
39.028951397461114
 10
87.26933495772185
 20
38.98518098335642
 10
87.08067812630108
 20
38.94022218547131
 10
86.88668607212651
 20
38.89421003409344
 10
86.68753659484761
 20
38.84673943835987
 10
86.48297613107712
 20
38.79802119229606
 10
86.27333400794012
 20
38.74803879871402
 10
86.05828089831148
 20
38.69680875480174
 10
85.83808686276652
 20
38.644449593658884
 10
85.61261687101756
 20
38.5909020487356
 10
85.3820059533523
 20
38.536225386581755
 10
85.14617834603288
 20
38.48022531035984
 10
84.90526907934697
 20
38.42296108661971
 10
84.65902458990722
 20
38.36464350938681
 10
84.40777420483882
 20
38.30525608147315
 10
84.15138289385405
 20
38.244739536328915
 10
83.88985065695296
 20
38.1830938739541
 10
83.62317749413552
 20
38.120319094348694
 10
83.35143916913958
 20
38.0566094943502
 10
83.07455991822731
 20
37.99177077712112
 10
82.7926155051365
 20
37.92599723949892
 10
82.50566519641701
 20
37.85915385119599
 10
82.21382752516853
 20
37.790970551637024
 10
81.91711898857895
 20
37.721776667947125
 10
81.61528602326102
 20
37.651782994151766
 10
81.30832862921474
 20
37.58098953025094
 10
80.99655963637724
 20
37.50905045193154
 10
80.67991977819872
 20
37.436100789481245
 10
80.35840905467913
 20
37.362140542900015
 10
80.03184966616902
 20
37.28757480305081
 10
79.70053794541752
 20
37.211728418495404
 10
79.3644903896126
 20
37.134930716358895
 10
79.02364773220444
 20
37.05731672692893
 10
78.67781567635559
 20
36.978962213943355
 10
78.32732354919114
 20
36.89985068021416
 10
77.9720955869733
 20
36.819787828903884
 10
77.61213178970205
 20
36.73877366001251
 10
77.24744865456539
 20
36.657137500665165
 10
76.87828324776258
 20
36.574339229711285
 10
76.50438200590641
 20
36.490589641176314
 10
76.12595572302229
 20
36.40614229844755
 10
75.74300439911022
 20
36.320997201525
 10
75.3555115369822
 20
36.23482502328356
 10
74.96341787008845
 20
36.14776079401087
 10
74.56699345900421
 20
36.05992304680659
 10
74.16598474034218
 20
35.97152257569614
 10
73.7605695137519
 20
35.88215428981665
 10
73.35088280952093
 20
35.79187745571791
 10
72.93692462764936
 20
35.700692073399935
 10
72.51857643503746
 20
35.60886820343801
 10
72.09583823168526
 20
35.516405845832125
 10
71.66876928414258
 20
35.42316997029464
 10
71.23769891953457
 20
35.3291440796376
 10
70.80229781073606
 20
35.234344671048945
 10
70.36270098803472
 20
35.13883101107854
 10
69.91922128136773
 20
35.04225727541327
 10
69.4716643938975
 20
34.944699227790935
 10
69.0199875562623
 20
34.84662122562432
 10
68.5643257987497
 20
34.74808253546324
 10
68.10452759388411
 20
34.648694563632766
 10
67.64104080189031
 20
34.548170752369614
 10
67.17362835656898
 20
34.447051222824356
 10
66.7023495244699
 20
34.34520094470935
 10
66.2271450390433
 20
34.242754948312246
 10
65.74826846367645
 20
34.13950243960758
 10
65.26571979836937
 20
34.03544341859536
 10
64.7793640128344
 20
33.93051861872575
 10
64.28941190109701
 20
33.82498160338605
 10
63.79572843286955
 20
33.71877310602645
 10
63.298567171539325
 20
33.61168233262147
 10
62.79792811710633
 20
33.50370928317112
 10
62.29394629985823
 20
33.394913224225235
 10
61.78642742295753
 20
33.285369919521614
 10
61.27538798359219
 20
33.175408696185386
 10
60.760870751124116
 20
33.0645651968038
 10
60.24322154986637
 20
32.953152251313966
 10
59.722407385443006
 20
32.840511205465674
 10
59.198368991304164
 20
32.72677708954655
 10
58.67119862837566
 20
32.61247352751919
 10
58.14083703010767
 20
32.49773554967125
 10
57.60719193557439
 20
32.38203953204012
 10
57.07092199902604
 20
32.26535248024984
 10
56.53168139614956
 20
32.14736156436329
 10
55.98956238787069
 20
32.028590408343035
 10
55.444370677352005
 20
31.90911477592691
 10
54.896435591718614
 20
31.788918169926927
 10
54.34579990033234
 20
31.667536232930324
 10
53.79248010038118
 20
31.54529829206222
 10
53.23635765876548
 20
31.4224744078979
 10
52.67772890823438
 20
31.29838942899915
 10
52.11665311533772
 20
31.17290832507832
 10
51.55310400790163
 20
31.046824780673298
 10
50.98687079190067
 20
30.91988523239678
 10
50.41816426136026
 20
30.79234324363605
 10
49.84734001557943
 20
30.663388632665274
 10
49.2743387880083
 20
30.533156429772085
 10
48.699042045547245
 20
30.401916695531764
 10
48.121271988546745
 20
30.270074520807242
 10
47.54153574378144
 20
30.137208317547618
 10
46.95980031687535
 20
30.00265943150266
 10
46.37629299904192
 20
29.867010753184775
 10
45.79044739695671
 20
29.73081890093252
 10
45.20263560710668
 20
29.593603020145164
 10
44.61309469569113
 20
29.454822989672113
 10
44.02197619018573
 20
29.314867403188344
 10
43.42895076346533
 20
29.173752757881815
 10
42.83422920955542
 20
29.03173261713985
 10
42.23773576471814
 20
28.88861268412495
 10
41.63972399234083
 20
28.744182164811683
 10
41.04032892271113
 20
28.598500325749868
 10
40.43941552554139
 20
28.451507900389675
 10
39.83725386140688
 20
28.30332342183077
 10
39.23357386973234
 20
28.153828356973488
 10
38.628527077993404
 20
28.003411299492786
 10
38.02217275273986
 20
27.851937219101004
 10
37.41480722672091
 20
27.69873096435994
 10
36.80631196683685
 20
27.544062595844874
 10
36.19689776711315
 20
27.38818567694311
 10
35.58623530042472
 20
27.231116704842638
 10
34.974713160446456
 20
27.072704152067814
 10
34.36239061372825
 20
26.912812988331023
 10
33.749326926819876
 20
26.751308183344594
 10
33.135403566621704
 20
26.58845979768383
 10
32.52069629687155
 20
26.424462128186207
 10
31.9052051175694
 20
26.25931517485171
 10
31.289242858652393
 20
26.09267311336726
 10
30.672733756382716
 20
25.924341646895368
 10
30.05587210759785
 20
25.75424501169822
 10
29.43861514293594
 20
25.582847565188594
 10
28.82065003245985
 20
25.410495131679564
 10
28.202365369844525
 20
25.237036183695533
 10
27.584100257200976
 20
25.061331212385493
 10
26.965499095230207
 20
24.884190399475333
 10
26.346772677957695
 20
24.705867308352342
 10
25.727904508195454
 20
24.526032611891413
 10
25.108953852493286
 20
24.34455127980489
 10
24.49001297177703
 20
24.161946936055372
 10
23.87100610230882
 20
23.97802528380538
 10
23.25224607402582
 20
23.792440498741815
 10
22.6335978566404
 20
23.605133314314852
 10
22.015272244178007
 20
23.416357293911805
 10
21.397209970088795
 20
23.22624746782029
 10
20.779588834022274
 20
23.034398745177402
 10
20.162349569428606
 20
22.84094615627077
 10
19.54556794004561
 20
22.64608399793788
 10
18.928931115936138
 20
22.450158094491822
 10
18.31306475697447
 20
22.252476797306397
 10
17.697968863160607
 20
22.053040106381616
 10
17.083584167944714
 20
21.851983052005107
 10
16.46985140477696
 20
21.649440664464525
 10
15.85696487049483
 20
21.445337180022054
 10
15.244730268260826
 20
21.239748362415508
 10
14.633476925200087
 20
21.0326577144569
 10
14.02332337441227
 20
20.82379517557095
 10
13.414210349347536
 20
20.61329577604529
 10
12.806078583456074
 20
20.401294546167584
 10
12.198987343287692
 20
20.18765645565017
 10
11.593325222517343
 20
19.97222997701743
 10
10.988838657757737
 20
19.755225904294825
 10
10.38554414619684
 20
19.53697356460746
 10
9.783602990296169
 20
19.3167385399673
 10
9.183166717531348
 20
19.094909424049284
 10
8.58405752825289
 20
18.871891307716346
 10
7.98631819182263
 20
18.647219833555727
 10
7.390337301915537
 20
18.420743474091804
 10
6.795996325431934
 20
18.19273228989986
 10
6.20327876518384
 20
17.96285695385477
 10
5.612336148646882
 20
17.731506059631496
 10
5.023151978633091
 20
17.498350280104916
 10
4.435937049167899
 20
17.263643178662328
 10
3.8502435000265423
 20
17.027671313067007
 10
3.266459924883967
 20
16.790283155843326
 10
2.6848233899394973
 20
16.55093858584072
 10
2.1052746286432873
 20
16.309772633346814
 10
1.5277708716335177
 20
16.06724965577439
 10
0.9523713854599989
 20
15.823234622835788
 10
0.3791354366725614
 20
15.577592504243375
 10
-0.1918019444411423
 20
15.330382566546978
 10
-0.7606943212684198
 20
15.081815603772055
 10
-1.327525196621301
 20
14.832220943043717
 10
-1.8919224740128036
 20
14.581117729761228
 10
-2.453767620343265
 20
14.328235903349304
 10
-3.013179168712368
 20
14.073845524383218
 10
-3.570081355382279
 20
13.818140889700462
 10
-4.124609210640649
 20
13.561062732751195
 10
-4.676686970749664
 20
13.302805350372893
 10
-5.226238871971522
 20
13.043563039403027
 10
-5.773162878394521
 20
12.782736412141201
 10
-6.3173239597310324
 20
12.52038473513724
 10
-6.858883418442572
 20
12.257242426379188
 10
-7.397857751717105
 20
11.992980158741934
 10
-7.933917632429533
 20
11.727581435037497
 10
-8.467333121155127
 20
11.46092772216621
 10
-8.997834157318607
 20
11.19313755322774
 10
-9.525404243731991
 20
10.924540255347202
 10
-10.050372707520395
 20
10.655152325712574
 10
-10.572308185647024
 20
10.384357879435479
 10
-11.091296216835577
 20
10.113085631341427
 10
-11.607590364473351
 20
9.841546375455886
 10
-12.120970059549018
 20
9.568870663503159
 10
-12.631030211199636
 20
9.29523629513274
 10
-13.138083649362345
 20
9.020989094657729
 10
-13.642189640586981
 20
8.746264092365765
 10
-14.143229651773874
 20
8.470791227681563
 10
-14.640992888897571
 20
8.194824063992431
 10
-15.13574941253336
 20
7.91824406819871
 10
-15.62740696175545
 20
7.6415748642629815
 10
-16.11584700346417
 20
7.3645463916099665
 10
-16.601010271109704
 20
7.087023619952021
 10
-17.082956031241864
 20
6.809141579576789
 10
-17.561667786672686
 20
6.53122959760938
 10
-18.0372805676898
 20
6.253228407499976
 10
-18.509405780618263
 20
5.974986481772943
 10
-18.97804342545808
 20
5.696503820428285
 10
-19.44326926594705
 20
5.417586126628529
 10
-19.905007538347377
 20
5.1384276972111405
 10
-20.363436042308546
 20
4.8594336230390605
 10
-20.818479014092738
 20
4.580798200949758
 10
-21.269899387500637
 20
4.30198130979266
 10
-21.71783219281989
 20
4.022923683017937
 10
-22.16181307263773
 20
3.7436680899874366
 10
-22.602289887178937
 20
3.4645010884644263
 10
-23.03932190299334
 20
3.18555770873655
 10
-23.472639059505653
 20
2.9069564839034765
 10
-23.90218209016606
 20
2.6285623836775494
 10
-24.327908225612685
 20
2.3499110506460195
 10
-24.749919501757226
 20
2.071601872509284
 10
-25.168393718249177
 20
1.7940399401302767
 10
-25.582899512051725
 20
1.5166093686206095
 10
-25.993571913452527
 20
1.2392508914304534
 10
-26.400259394975958
 20
0.9623531022347552
 10
-26.803096986909658
 20
0.685856734483686
 10
-27.20214395580345
 20
0.4098968184648856
 10
-27.59708747172021
 20
0.13412752986525991
 10
-27.988046067759594
 20
-0.14118107073990938
 10
-28.375019743921605
 20
-0.41602898335061717
 10
-28.758245566405563
 20
-0.6898760868162963
 10
-29.13739420808636
 20
-0.9627388783249219
 10
-29.51255792988977
 20
-1.2351409818390893
 10
-29.88348316842851
 20
-1.5072931913842542
 10
-30.250271959614246
 20
-1.7785961192600108
 10
-30.613177866834295
 20
-2.048838971440906
 10
-30.971828793601667
 20
-2.3185026025276776
 10
-31.326208242728416
 20
-2.587257685395215
 10
-31.67664554133962
 20
-2.855087722855529
 10
-32.022870628860026
 20
-3.1218741818089604
 10
-32.36470570564013
 20
-3.3880221531184453
 10
-32.70232857132941
 20
-3.6531265459210442
 10
-33.03579849247772
 20
-3.9170523299291196
 10
-33.3650562025352
 20
-4.179934535430312
 10
-33.68996667121424
 20
-4.441713895874792
 10
-34.01047063196499
 20
-4.702525441550202
 10
-34.326762381624945
 20
-4.962293408718733
 10
-34.63857185961878
 20
-5.220899264280718
 10
-34.94601759904618
 20
-5.4780729476608725
 10
-35.24925112738277
 20
-5.734203052534144
 10
-35.547867353765625
 20
-5.989111779251046
 10
-35.84194204193255
 20
-6.242993424649046
 10
-36.131712258082864
 20
-6.495307867577568
 10
-36.41717800221658
 20
-6.7460551080366224
 10
-36.69808571094638
 20
-6.995445940051654
 10
-36.974376117722436
 20
-7.243615393910311
 10
-37.24612498628256
 20
-7.490757766450069
 10
-37.51335858880063
 20
-7.736079373133049
 10
-37.77615268901446
 20
-7.979774510796721
 10
-38.03438875382436
 20
-8.222113240016379
 10
-38.287931752942704
 20
-8.463036294242185
 10
-38.53690021946917
 20
-8.702273612898855
 10
-38.781175620304076
 20
-8.940095256561678
 10
-39.02081722199726
 20
-9.176366194943007
 10
-39.25588429109856
 20
-9.410951397755204
 10
-39.48612326422065
 20
-9.64406165902372
 10
-39.711711941013036
 20
-9.875291887885622
 10
-39.93254828556404
 20
-10.10524147204132
 10
-40.14873433378534
 20
-10.333311023790413
 10
-40.360210819127104
 20
-10.559635573420532
 10
-40.5669184750395
 20
-10.78435015121933
 10
-40.76872227123489
 20
-11.007395490636979
 10
-40.965816504550745
 20
-11.228695827935654
 10
-41.15824394434891
 20
-11.447786805702604
 10
-41.34588605752973
 20
-11.664938484513115
 10
-41.5287428440932
 20
-11.880150864367181
 10
-41.7070086008768
 20
-12.093348181526999
 10
-41.88035400075541
 20
-12.304546933180541
 10
-42.049032607116324
 20
-12.513536325302354
 10
-42.21302792277157
 20
-12.719987030767323
 10
-42.3724749780088
 20
-12.923958316125281
 10
-42.52712020944072
 20
-13.12566097540168
 10
-42.67715791390475
 20
-13.325019244858707
 10
-42.822318030825656
 20
-13.521914591396696
 10
-42.96298915387837
 20
-13.716195487540032
 10
-43.098960489037424
 20
-13.907608369901405
 10
-43.23024853349082
 20
-14.096482565605932
 10
-43.35685328723854
 20
-14.282818074653614
 10
-43.478774750280614
 20
-14.46661489704445
 10
-43.59599642542901
 20
-14.647543705653323
 10
-43.70851831268378
 20
-14.825604500480235
 10
-43.81629764268304
 20
-15.001261638937942
 10
-43.91937718478866
 20
-15.174050763613689
 10
-44.0175198728013
 20
-15.344511995658047
 10
-44.11096277292029
 20
-15.512105213920437
 10
-44.199468818946315
 20
-15.677370539551438
 10
-44.283156543979025
 20
-15.840037911975767
 10
-44.36202594801843
 20
-16.00010733119342
 10
-44.435882734227036
 20
-16.157654560942206
 10
-44.505115496279814
 20
-16.312528073746503
 10
-44.569141343664334
 20
-16.464955160819745
 10
-44.628483900343184
 20
-16.61484356123615
 10
-44.682813839191255
 20
-16.762209772183684
 10
-44.732308959858024
 20
-16.906648702799426
 10
-44.77698575953149
 20
-17.048489680208494
 10
-44.81676847447383
 20
-17.187538407573413
 10
-44.851894170884364
 20
-17.323254763743602
 10
-44.88232007940127
 20
-17.456103106131835
 10
-44.90802970283654
 20
-17.585754107612985
 10
-44.92914157428982
 20
-17.711937707611764
 10
-44.94589275996048
 20
-17.834113784977603
 10
-44.95828325984848
 20
-17.952282339710504
 10
-44.96656663734115
 20
-18.066232577785005
 10
-44.97076916461234
 20
-18.175170814663236
 10
-44.97126293814904
 20
-18.278616195744448
 10
-44.968775653737175
 20
-18.375277684702038
 10
-44.9634521166503
 20
-18.464091536422842
 10
-44.95637562197335
 20
-18.542956532854397
 10
-44.94862946479125
 20
-18.609771455944248
 10
-44.941365981724665
 20
-18.661177045689286
 10
-44.93620186680701
 20
-18.693856811448256
 10
-44.55999492230244
 20
-19.557961444223636
 10
-44.554406752795835
 20
-19.563721924446657
 10
-44.537701510825855
 20
-19.58086833482808
 10
-44.51011626259182
 20
-19.608860554217326
 10
-44.470508446458965
 20
-19.649934830954507
 10
-44.417903525456126
 20
-19.707045334179792
 10
-44.35524832988687
 20
-19.7731112223859
 10
-44.28424509250831
 20
-19.84388729010605
 10
-44.20593433904354
 20
-19.91773667670055
 10
-44.12142563675137
 20
-19.991764479579047
 10
-44.03111735429262
 20
-20.064696159602924
 10
-43.93557588499174
 20
-20.135975098433633
 10
-43.83490326476043
 20
-20.205001908370765
 10
-43.729336559797986
 20
-20.27123646826374
 10
-43.61899430320408
 20
-20.334408717537286
 10
-43.50387649497871
 20
-20.394518656191387
 10
-43.384177431959365
 20
-20.451490520488246
 10
-43.25988061695805
 20
-20.50499498330273
 10
-43.13092678342493
 20
-20.555167074922494
 10
-42.99751022819749
 20
-20.601931031609723
 10
-42.859377387888415
 20
-20.64549764738987
 10
-42.71658752904754
 20
-20.68573189197529
 10
-42.56952924534981
 20
-20.722482237890365
 10
-42.41761964628282
 20
-20.75597597634853
 10
-42.26132308925932
 20
-20.786255876711632
 10
-42.10031024715418
 20
-20.81333843616765
 10
-41.934775416804875
 20
-20.837147890978773
 10
-41.76477786476126
 20
-20.857549210857364
 10
-41.59013979137382
 20
-20.87494748666635
 10
-41.41097972974223
 20
-20.88907265783044
 10
-41.22706061366716
 20
-20.900464845500213
 10
-41.0385602427981
 20
-20.908718958812734
 10
-40.845495114323036
 20
-20.91416432489312
 10
-40.647730197954324
 20
-20.91674167719155
 10
-40.4451469605923
 20
-20.9167210762833
 10
-40.23793969907444
 20
-20.91402675843056
 10
-40.02604914685091
 20
-20.908793753920975
 10
-39.809475303921715
 20
-20.90102206275455
 10
-39.587905340349714
 20
-20.891057509244373
 10
-39.36166858326003
 20
-20.878883596202474
 10
-39.130554238627205
 20
-20.864246760241535
 10
-38.894832367026524
 20
-20.847265534461226
 10
-38.65424940507068
 20
-20.828150712887002
 10
-38.408940383047316
 20
-20.806961562068697
 10
-38.15882953721864
 20
-20.783503785168836
 10
-37.90417043097192
 20
-20.757566588161954
 10
-37.644768767469714
 20
-20.72922573478587
 10
-37.38083534073746
 20
-20.698734788427895
 10
-37.11223512048752
 20
-20.666034482538187
 10
-36.838968106719896
 20
-20.631124817116753
 10
-36.561212099084074
 20
-20.593600701300662
 10
-36.27910212786771
 20
-20.553521401639745
 10
-35.99250316278316
 20
-20.510827651584172
 10
-35.70143170101838
 20
-20.465848778259055
 10
-35.4058877425734
 20
-20.418584781664396
 10
-35.10610835364753
 20
-20.36849554064963
 10
-34.802110031428754
 20
-20.315910382339865
 10
-34.493817012179264
 20
-20.26063500989763
 10
-34.18117002934921
 20
-20.202804453610568
 10
-33.864304113226254
 20
-20.14247798002851
 10
-33.54327853036023
 20
-20.079520558863813
 10
-33.218034014201294
 20
-20.014067220404122
 10
-32.888570564749465
 20
-19.946117964649435
 10
-32.55494744855455
 20
-19.87553776131211
 10
-32.21724042935436
 20
-19.802520907229617
 10
-31.87544950714892
 20
-19.72706740240196
 10
-31.5294989182004
 20
-19.648982949991662
 10
-31.17954018998444
 20
-19.56865614367368
 10
-30.825497558763214
 20
-19.48589268661053
 10
-30.467311757986884
 20
-19.40082760908986
 10
-30.10517708449294
 20
-19.31338514737385
 10
-29.739271337930873
 20
-19.223160210599584
 10
-29.36941671865118
 20
-19.130557889629973
 10
-28.995359663266562
 20
-19.035788978490494
 10
-28.61756452918979
 20
-18.93889624654299
 10
-28.235879788945223
 20
-18.8394911001125
 10
-27.85036470908269
 20
-18.737438508911392
 10
-27.461170817077836
 20
-18.633127066614612
 10
-27.068103816093164
 20
-18.526632536959973
 10
-26.671282239228358
 20
-18.41768485937219
 10
-26.270841116771045
 20
-18.306343300401092
 10
-25.86683971527106
 20
-18.192472829759033
 10
-25.459100235078914
 20
-18.076478538308947
 10
-25.047741209294266
 20
-17.958090365475545
 10
-24.63264410481745
 20
-17.837578371834116
 10
-24.21425678187325
 20
-17.714655999621385
 10
-23.792249913336555
 20
-17.589339746025345
 10
-23.36675852949499
 20
-17.46168887759582
 10
-22.937858394086387
 20
-17.33189769117028
 10
-22.505533009922754
 20
-17.199636859623617
 10
-22.069798874192077
 20
-17.065235710080945
 10
-21.630850283731824
 20
-16.928618478804445
 10
-21.18853571106638
 20
-16.78939657211918
 10
-20.743125216771023
 20
-16.64768852312481
 10
-20.29444100119626
 20
-16.503899422684253
 10
-19.8424830643421
 20
-16.35802927079752
 10
-19.387251406208534
 20
-16.210078067464607
 10
-18.9290588567327
 20
-16.05969998837242
 10
-18.46802394901426
 20
-15.906624972945663
 10
-18.00377458656625
 20
-15.751333875785086
 10
-17.53658082996396
 20
-15.593945229990352
 10
-17.066426182019395
 20
-15.434129708436336
 10
-16.59356420611987
 20
-15.271676517097587
 10
-16.1178171026159
 20
-15.106990746837036
 10
-15.63920136869544
 20
-14.940401724779795
 10
-15.157700507170542
 20
-14.771580123800755
 10
-14.673492317690673
 20
-14.60012085303698
 10
-14.186728327731473
 20
-14.42641250616342
 10
-13.697349270743102
 20
-14.250590113467718
 10
-13.205085086150278
 20
-14.072535141850214
 10
-12.710400131365763
 20
-13.892290360672753
 10
-12.213277909201572
 20
-13.709526442810224
 10
-11.713718419657702
 20
-13.524243388262622
 10
-11.21179742647197
 20
-13.33663549386742
 10
-10.70721859689523
 20
-13.14737791106284
 10
-10.200294760864601
 20
-12.95612481553578
 10
-9.69112795429177
 20
-12.762276819585836
 10
-9.179658910626914
 20
-12.565968953500652
 10
-8.666157690445306
 20
-12.367319750379886
 10
-8.150252197259993
 20
-12.166810064824288
 10
-7.632195994458271
 20
-11.964229102808396
 10
-7.111989082040141
 20
-11.75957686433221
 10
-6.589749993105264
 20
-11.552583288820447
 10
-6.0654194611038195
 20
-11.34338340656075
 10
-5.5391490135114205
 20
-11.132365811228068
 10
-5.010787122852444
 20
-10.919141909147447
 10
-4.480722382801838
 20
-10.703560172843266
 10
-3.9488955268097783
 20
-10.48575563260317
 10
-3.4152472883264315
 20
-10.2658633187148
 10
-2.8797019036139795
 20
-10.04368893434068
 10
-2.342782996635024
 20
-9.819140218555024
 10
-1.8044148036517385
 20
-9.592022874520348
 10
-1.2641066950775053
 20
-9.363087817412685
 10
-0.7221879980374397
 20
-9.132318550044056
 10
-0.17914934211817135
 20
-8.89896415723843
 10
0.3654571329050825
 20
-8.663311196759073
 10
0.9115556632945074
 20
-8.425553965443461
 10
1.4587576553751578
 20
-8.18554093581597
 10
2.00727390317248
 20
-7.943018544489297
 10
2.5568343461112026
 20
-7.6981053245630955
 10
3.107811080678277
 20
-7.451282130638118
 10
3.6599505434864
 20
-7.202338168688906
 10
4.212821371498793
 20
-6.950657553827066
 10
4.766736394652569
 20
-6.696586110365707
 10
5.321797648859418
 20
-6.44072322600523
 10
5.877692304182203
 20
-6.182723076432536
 10
6.434496124358741
 20
-5.922391364810146
 10
6.992192612201036
 20
-5.660057418263187
 10
7.550544701509779
 20
-5.395181115641079
 10
8.10955239228497
 20
-5.127762456943819
 10
8.669317720438276
 20
-4.8584008298718215
 10
9.229764922231896
 20
-4.587290531262553
 10
9.790969761403643
 20
-4.31423726427854
 10
10.352619408016375
 20
-4.038895204606686
 10
10.914832395169752
 20
-3.761534412822278
 10
11.477608722863796
 20
-3.4821548889253084
 10
12.04081336081083
 20
-3.2008158994656193
 10
12.604268509361379
 20
-2.9171123535802748
 10
13.168092701615102
 20
-2.631314311844562
 10
13.732252943196045
 20
-2.344080428508715
 10
14.29696002812964
 20
-2.055157140185437
 10
14.861766096191134
 20
-1.7642578891114458
 10
15.426865444217992
 20
-1.4714584390245624
 10
15.991988011634922
 20
-1.1768773230244496
 10
16.557328095279395
 20
-0.8805903048489183
 10
17.122826428601602
 20
-0.5824623542103204
 10
17.688272217576067
 20
-0.2827470344959675
 10
18.2539190255901
 20
0.018344860268687892
 10
18.819707586093873
 20
0.3209483603712885
 10
19.385308571962266
 20
0.6250799629998156
 10
19.95091628003275
 20
0.9306639044164543
 10
20.516514213117357
 20
1.2373708574960942
 10
21.08200033530439
 20
1.545800209939131
 10
21.64722311911822
 20
1.8555633680706174
 10
22.212301097658536
 20
2.166390271315276
 10
22.777175004375483
 20
2.47841594996074
 10
23.34172630616941
 20
2.7919104645822976
 10
23.906073536139978
 20
3.1066037546046683
 10
24.47006516681155
 20
3.422107226352892
 10
25.033717695372125
 20
3.7387502069520964
 10
25.597073891183545
 20
4.05606833898952
 10
26.159955954596313
 20
4.374466713328089
 10
26.72230461906061
 20
4.694080360255446
 10
27.284238417676082
 20
5.014639219196311
 10
27.845665089516945
 20
5.335619666188082
 10
28.40671966487084
 20
5.657080967780599
 10
28.967089313800635
 20
5.979368948286956
 10
29.52683330285616
 20
6.302348577419515
 10
30.085951632037407
 20
6.6260198551782645
 10
30.644503567894215
 20
6.950247751275573
 10
31.202159783301468
 20
7.275048762899421
 10
31.759114575096643
 20
7.600347126311992
 10
32.3152921795419
 20
7.925948544675805
 10
32.87094616002457
 20
8.251642223965417
 10
33.42556938977003
 20
8.577849752231728
 10
33.979221135328125
 20
8.904436099187107
 10
34.53233275973566
 20
9.230785379943162
 10
35.08427860311834
 20
9.557589243126095
 10
35.634999398926354
 20
9.884982719023537
 10
36.18498577674631
 20
10.212214892459476
 10
36.73408620910258
 20
10.538897169758947
 10
37.28208012698385
 20
10.865898999197652
 10
37.82889176665229
 20
11.193026083938115
 10
38.37438609782027
 20
11.520219157430502
 10
38.91881668387508
 20
11.847267425649362
 10
39.46210776107889
 20
12.173976591757208
 10
40.00431859598158
 20
12.500211625466415
 10
40.54519562519582
 20
12.826183320802432
 10
41.08462031562191
 20
13.152161738340531
 10
41.62277046690942
 20
13.477741787217811
 10
42.15964607905829
 20
13.802923467434242
 10
42.6950363580431
 20
14.127453215602545
 10
43.2292113644391
 20
14.45144956482236
 10
43.76172323802153
 20
14.775199072856962
 10
44.292631245340225
 20
15.098566709418716
 10
44.822231719144334
 20
15.42087732306939
 10
45.35046539288403
 20
15.742265944096646
 10
45.87694367288438
 20
16.062884099976095
 10
46.40199588627046
 20
16.382715293519762
 10
46.92529270591719
 20
16.701776021915627
 10
47.44696916211219
 20
17.02012555171352
 10
47.9670087576675
 20
17.337434555788324
 10
48.48527646229545
 20
17.6536437675902
 10
49.00202583938338
 20
17.96854239309371
 10
49.516809028706476
 20
18.282416990062103
 10
50.029896090840055
 20
18.595386091595064
 10
50.54095769865897
 20
18.90746619488055
 10
51.05034945146222
 20
19.217847118192708
 10
51.55793631896216
 20
19.526469594981716
 10
52.06363276243509
 20
19.834262340073078
 10
52.56697442446827
 20
20.14118258410497
 10
53.06870549803562
 20
20.4462686178759
 10
53.568496656012
 20
20.749536938573833
 10
54.06611083219812
 20
21.051527667349355
 10
54.561548026593954
 20
21.35224080420246
 10
55.05486750574936
 20
21.651541318845517
 10
55.546365602413445
 20
21.94875405984029
 10
56.03565372291132
 20
22.24403055466242
 10
56.52282412816874
 20
22.537894427274495
 10
57.00760675761044
 20
22.830227144576845
 10
57.49012014433607
 20
23.120758645994194
 10
57.97048282144528
 20
23.409218870951253
 10
58.44857625583843
 20
23.6958778800233
 10
58.92426541722787
 20
23.980676406660514
 10
59.3978038690009
 20
24.263403656837436
 10
59.86892155058224
 20
24.543941097454407
 10
60.33757569261004
 20
24.822753085924184
 10
60.803496234509005
 20
25.09972108914711
 10
61.26720680024173
 20
25.374752846197378
 10
61.72828580175731
 20
25.64734123030039
 10
62.18700329963103
 20
25.917604774555812
 10
62.64330002731305
 20
26.185678509251275
 10
63.09678739112842
 20
26.451713961862396
 10
63.547524657627
 20
26.71557610210156
 10
63.99584115393387
 20
26.977248432780762
 10
64.44139105573598
 20
27.236418123962885
 10
64.88442792642056
 20
27.49287438162245
 10
65.32463893605053
 20
27.746963030072575
 10
65.7620998483637
 20
27.99887836615073
 10
66.19673489962224
 20
28.248426093019425
 10
66.62854408982615
 20
28.49560621067868
 10
67.05757018833731
 20
28.739954361715736
 10
67.48377042579384
 20
28.981934903543333
 10
67.90693400817025
 20
29.221294272774184
 10
68.3270774326546
 20
29.458361796533396
 10
68.74437849889634
 20
29.69273238395804
 10
69.15876144315767
 20
29.924211738210662
 10
69.57004846578909
 20
30.15320495015416
 10
69.97823956679058
 20
30.379712019788553
 10
70.38333474616215
 20
30.603732947113834
 10
70.78518247642822
 20
30.82487913845506
 10
71.18417135126369
 20
31.04299906633661
 10
71.5798700076318
 20
31.258708615646864
 10
71.97220268179467
 20
31.471813489548335
 10
72.36130440404001
 20
31.68237295459087
 10
72.74715867717981
 20
31.890057683649353
 10
73.12957120437659
 20
32.09494344046158
 10
73.50875277965585
 20
32.29728378841489
 10
73.88461114209173
 20
32.49655510354665
 10
74.25702775858463
 20
32.69302744643217
 10
74.62606189568432
 20
32.886565786783784
 10
74.99153575374136
 20
33.077575215464464
 10
75.35356786585537
 20
33.26578567189888
 10
75.71202320173877
 20
33.45113788953724
 10
76.06696102794132
 20
33.633496838091865
 10
76.41845710820084
 20
33.81305681440025
 10
76.76618211539227
 20
33.98983431565037
 10
77.11013604951556
 20
34.16382934184223
 10
77.45051320740819
 20
34.33496612923802
 10
77.78737285561999
 20
34.50310964755008
 10
78.12026713392623
 20
34.66854645454169
 10
78.44933107261448
 20
34.831335816762675
 10
78.77474247133428
 20
34.991072643350115
 10
79.09630703324812
 20
35.14783269804182
 10
79.41390622525637
 20
35.30188604141306
 10
79.72779361074632
 20
35.453021879438396
 10
80.03775839569253
 20
35.60098664873054
 10
80.34381707728298
 20
35.746109676414584
 10
80.6459103889678
 20
35.888525992778156
 10
80.94390330045938
 20
36.02817633127145
 10
81.2379143448574
 20
36.16479063131919
 10
81.52788425561198
 20
36.29850392320899
 10
81.81369449962351
 20
36.42958626751617
 10
82.0954043434418
 20
36.55790263395306
 10
82.37299728987885
 20
36.68312369539454
 10
82.64647333893468
 20
36.80524945184063
 10
82.91573045469757
 20
36.92487929099172
 10
83.18069287342976
 20
37.04181891601032
 10
83.44136059513126
 20
37.15606832689648
 10
83.69779288635183
 20
37.26749249336252
 10
83.94985471680388
 20
37.3760321488586
 10
84.19768111677507
 20
37.481746559934585
 10
84.44101852287804
 20
37.58484652061591
 10
84.67998546821251
 20
37.68506197032729
 10
84.91446341967875
 20
37.78266296964401
 10
85.14470594066412
 20
37.87743872454061
 10
85.37032443749365
 20
37.96954076249273
 10
85.59139467390516
 20
38.05916338033783
 10
85.80784088616082
 20
38.14611228123844
 10
86.01985737109813
 20
38.230311701456756
 10
86.22719056532978
 20
38.31197243501821
 10
86.43009403224306
 20
38.39088368789739
 10
86.62811991161321
 20
38.46733201785752
 10
86.8215975305653
 20
38.54130092771063
 10
87.0102568285241
 20
38.612671884357084
 10
87.19423283577724
 20
38.681504154346676
 10
87.37352555232472
 20
38.74779773767943
 10
87.54807571161669
 20
38.811687664642974
 10
87.71780754991535
 20
38.872979638399855
 10
87.88260253412103
 20
38.93194371952533
 10
88.04265496107121
 20
38.98850414428161
 10
88.19777053392843
 20
39.042736676406506
 10
88.34800851924253
 20
39.094506285612376
 10
88.49330965046362
 20
39.14394800218684
 10
88.63373319414157
 20
39.19092679584227
 10
88.76921988372656
 20
39.23557769686632
 10
88.8996511861189
 20
39.27817076583427
 10
89.02501060413066
 20
39.31837667562099
 10
89.14550893178722
 20
39.356448989613796
 10
89.2606818116759
 20
39.39234493845085
 10
89.37099360120935
 20
39.42610729149396
 10
89.47617423981241
 20
39.45761751564352
 10
89.57610519438538
 20
39.487145671474785
 10
89.67098076176565
 20
39.51461599524993
 10
89.76066591166568
 20
39.53996922041916
 10
89.84504211098579
 20
39.563475407557746
 10
89.92436292311324
 20
39.584923762640216
 10
89.99837478466074
 20
39.60452507969203
 10
90.06713696217815
 20
39.62214432842557
 10
90.13053092256577
 20
39.638051569416106
 10
90.18861593237347
 20
39.652111772375996
 10
90.24146775533904
 20
39.6645192341427
 10
90.28881633088719
 20
39.67515542161657
 10
90.33073742275575
 20
39.68421463163509
 10
90.36736606123232
 20
39.691756130748075
 10
90.39843218574165
 20
39.69766138585587
 10
90.42395229347176
 20
39.70225972408359
 10
90.44412068126003
 20
39.70547538169342
 10
90.4585487554316
 20
39.707459886161
 10
90.46731227972425
 20
39.7084075343238
 10
90.47029272103826
 20
39.70858838675707
  0
ENDSEC
  0
SECTION
  2
OBJECTS
  0
DICTIONARY
  5
A
330
0
100
AcDbDictionary
280
0
281
1
  3
ACAD_COLOR
350
B
  3
ACAD_GROUP
350
C
  3
ACAD_LAYOUT
350
D
  3
ACAD_MATERIAL
350
E
  3
ACAD_MLEADERSTYLE
350
F
  3
ACAD_MLINESTYLE
350
10
  3
ACAD_PLOTSETTINGS
350
11
  3
ACAD_PLOTSTYLENAME
350
12
  3
ACAD_SCALELIST
350
14
  3
ACAD_TABLESTYLE
350
15
  3
ACAD_VISUALSTYLE
350
16
  3
EZDXF_META
350
2D
  0
DICTIONARY
  5
B
330
A
100
AcDbDictionary
280
0
281
1
  0
DICTIONARY
  5
C
330
A
100
AcDbDictionary
280
0
281
1
  0
DICTIONARY
  5
D
330
A
100
AcDbDictionary
280
0
281
1
  3
Model
350
1A
  3
Layout1
350
1E
  0
DICTIONARY
  5
E
330
A
100
AcDbDictionary
280
0
281
1
  3
ByBlock
350
1F
  3
ByLayer
350
20
  3
Global
350
21
  0
DICTIONARY
  5
F
330
A
100
AcDbDictionary
280
0
281
1
  3
Standard
350
2C
  0
DICTIONARY
  5
10
330
A
100
AcDbDictionary
280
0
281
1
  3
Standard
350
22
  0
DICTIONARY
  5
11
330
A
100
AcDbDictionary
280
0
281
1
  0
ACDBDICTIONARYWDFLT
  5
12
330
A
100
AcDbDictionary
280
0
281
1
  3
Normal
350
13
100
AcDbDictionaryWithDefault
340
13
  0
ACDBPLACEHOLDER
  5
13
330
12
  0
DICTIONARY
  5
14
330
A
100
AcDbDictionary
280
0
281
1
  0
DICTIONARY
  5
15
330
A
100
AcDbDictionary
280
0
281
1
  0
DICTIONARY
  5
16
330
A
100
AcDbDictionary
280
0
281
1
  0
LAYOUT
  5
1A
330
D
100
AcDbPlotSettings
  1

  4
A3
  6

 40
7.5
 41
20.0
 42
7.5
 43
20.0
 44
420.0
 45
297.0
 46
0.0
 47
0.0
 48
0.0
 49
0.0
140
0.0
141
0.0
142
1.0
143
1.0
 70
1024
 72
1
 73
0
 74
5
  7

 75
16
 76
0
 77
2
 78
300
147
1.0
148
0.0
149
0.0
100
AcDbLayout
  1
Model
 70
1
 71
0
 10
0.0
 20
0.0
 11
420.0
 21
297.0
 12
0.0
 22
0.0
 32
0.0
 14
1e+20
 24
1e+20
 34
1e+20
 15
-1e+20
 25
-1e+20
 35
-1e+20
146
0.0
 13
0.0
 23
0.0
 33
0.0
 16
1.0
 26
0.0
 36
0.0
 17
0.0
 27
1.0
 37
0.0
 76
1
330
17
  0
LAYOUT
  5
1E
330
D
100
AcDbPlotSettings
  1

  4
A3
  6

 40
7.5
 41
20.0
 42
7.5
 43
20.0
 44
420.0
 45
297.0
 46
0.0
 47
0.0
 48
0.0
 49
0.0
140
0.0
141
0.0
142
1.0
143
1.0
 70
0
 72
1
 73
0
 74
5
  7

 75
16
 76
0
 77
2
 78
300
147
1.0
148
0.0
149
0.0
100
AcDbLayout
  1
Layout1
 70
1
 71
1
 10
0.0
 20
0.0
 11
420.0
 21
297.0
 12
0.0
 22
0.0
 32
0.0
 14
1e+20
 24
1e+20
 34
1e+20
 15
-1e+20
 25
-1e+20
 35
-1e+20
146
0.0
 13
0.0
 23
0.0
 33
0.0
 16
1.0
 26
0.0
 36
0.0
 17
0.0
 27
1.0
 37
0.0
 76
1
330
1B
  0
MATERIAL
  5
1F
102
{ACAD_REACTORS
330
E
102
}
330
E
100
AcDbMaterial
  1
ByBlock
  2

 70
0
 40
1.0
 71
1
 41
1.0
 91
-1023410177
 42
1.0
 72
1
  3

 73
1
 74
1
 75
1
 44
0.5
 73
0
 45
1.0
 46
1.0
 77
1
  4

 78
1
 79
1
170
1
 48
1.0
171
1
  6

172
1
173
1
174
1
140
1.0
141
1.0
175
1
  7

176
1
177
1
178
1
143
1.0
179
1
  8

270
1
271
1
272
1
145
1.0
146
1.0
273
1
  9

274
1
275
1
276
1
 42
1.0
 72
1
  3

 73
1
 74
1
 75
1
 94
63
  0
MATERIAL
  5
20
102
{ACAD_REACTORS
330
E
102
}
330
E
100
AcDbMaterial
  1
ByLayer
  2

 70
0
 40
1.0
 71
1
 41
1.0
 91
-1023410177
 42
1.0
 72
1
  3

 73
1
 74
1
 75
1
 44
0.5
 73
0
 45
1.0
 46
1.0
 77
1
  4

 78
1
 79
1
170
1
 48
1.0
171
1
  6

172
1
173
1
174
1
140
1.0
141
1.0
175
1
  7

176
1
177
1
178
1
143
1.0
179
1
  8

270
1
271
1
272
1
145
1.0
146
1.0
273
1
  9

274
1
275
1
276
1
 42
1.0
 72
1
  3

 73
1
 74
1
 75
1
 94
63
  0
MATERIAL
  5
21
102
{ACAD_REACTORS
330
E
102
}
330
E
100
AcDbMaterial
  1
Global
  2

 70
0
 40
1.0
 71
1
 41
1.0
 91
-1023410177
 42
1.0
 72
1
  3

 73
1
 74
1
 75
1
 44
0.5
 73
0
 45
1.0
 46
1.0
 77
1
  4

 78
1
 79
1
170
1
 48
1.0
171
1
  6

172
1
173
1
174
1
140
1.0
141
1.0
175
1
  7

176
1
177
1
178
1
143
1.0
179
1
  8

270
1
271
1
272
1
145
1.0
146
1.0
273
1
  9

274
1
275
1
276
1
 42
1.0
 72
1
  3

 73
1
 74
1
 75
1
 94
63
  0
MLINESTYLE
  5
22
102
{ACAD_REACTORS
330
10
102
}
330
10
100
AcDbMlineStyle
  2
Standard
 70
0
  3

 62
256
 51
90.0
 52
90.0
 71
2
 49
0.5
 62
256
  6
BYLAYER
 49
-0.5
 62
256
  6
BYLAYER
  0
MLEADERSTYLE
  5
2C
102
{ACAD_REACTORS
330
F
102
}
330
F
100
AcDbMLeaderStyle
179
2
170
2
171
1
172
0
 90
2
 40
0.0
 41
0.0
173
1
 91
-1056964608
 92
-2
290
1
 42
2.0
291
1
 43
8.0
  3
Standard
 44
4.0
300

342
29
174
1
175
1
176
0
178
1
 93
-1056964608
 45
4.0
292
0
297
0
 46
4.0
 94
-1056964608
 47
1.0
 49
1.0
140
1.0
294
1
141
0.0
177
0
142
1.0
295
0
296
0
143
3.75
271
0
272
9
273
9
  0
DICTIONARY
  5
2D
330
A
100
AcDbDictionary
280
1
281
1
  3
CREATED_BY_EZDXF
350
2E
  3
WRITTEN_BY_EZDXF
350
32
  0
DICTIONARYVAR
  5
2E
330
2D
100
DictionaryVariables
280
0
  1
1.3.5 @ 2025-08-20T01:05:13.370057+00:00
  0
DICTIONARYVAR
  5
32
330
2D
100
DictionaryVariables
280
0
  1
1.3.5 @ 2025-08-20T01:05:13.376041+00:00
  0
ENDSEC
  0
EOF
