  0
SECTION
  2
HEADER
  9
$ACADVER
  1
AC1032
  9
$ACADMAINTVER
 90
4
  9
$DWGCODEPAGE
  3
ANSI_1252
  9
$LASTSAVEDBY
  1
ezdxf
  9
$REQUIREDVERSIONS
160
0
  9
$INSBASE
 10
0.0
 20
0.0
 30
0.0
  9
$EXTMIN
 10
1e+20
 20
1e+20
 30
1e+20
  9
$EXTMAX
 10
-1e+20
 20
-1e+20
 30
-1e+20
  9
$LIMMIN
 10
0.0
 20
0.0
  9
$LIMMAX
 10
420.0
 20
297.0
  9
$ORTHOMODE
 70
0
  9
$REGENMODE
 70
1
  9
$FILLMODE
 70
1
  9
$QTEXTMODE
 70
0
  9
$MIRRTEXT
 70
1
  9
$LTSCALE
 40
1.0
  9
$ATTMODE
 70
1
  9
$TEXTSIZE
 40
2.5
  9
$TRACEWID
 40
1.0
  9
$TEXTSTYLE
  7
Standard
  9
$CLAYER
  8
0
  9
$CELTYPE
  6
ByLayer
  9
$CECOLOR
 62
256
  9
$CELTSCALE
 40
1.0
  9
$DISPSILH
 70
0
  9
$DIMSCALE
 40
1.0
  9
$DIMASZ
 40
2.5
  9
$DIMEXO
 40
0.625
  9
$DIMDLI
 40
3.75
  9
$DIMRND
 40
0.0
  9
$DIMDLE
 40
0.0
  9
$DIMEXE
 40
1.25
  9
$DIMTP
 40
0.0
  9
$DIMTM
 40
0.0
  9
$DIMTXT
 40
2.5
  9
$DIMCEN
 40
2.5
  9
$DIMTSZ
 40
0.0
  9
$DIMTOL
 70
0
  9
$DIMLIM
 70
0
  9
$DIMTIH
 70
0
  9
$DIMTOH
 70
0
  9
$DIMSE1
 70
0
  9
$DIMSE2
 70
0
  9
$DIMTAD
 70
1
  9
$DIMZIN
 70
8
  9
$DIMBLK
  1

  9
$DIMASO
 70
1
  9
$DIMSHO
 70
1
  9
$DIMPOST
  1

  9
$DIMAPOST
  1

  9
$DIMALT
 70
0
  9
$DIMALTD
 70
3
  9
$DIMALTF
 40
0.03937007874
  9
$DIMLFAC
 40
1.0
  9
$DIMTOFL
 70
1
  9
$DIMTVP
 40
0.0
  9
$DIMTIX
 70
0
  9
$DIMSOXD
 70
0
  9
$DIMSAH
 70
0
  9
$DIMBLK1
  1

  9
$DIMBLK2
  1

  9
$DIMSTYLE
  2
ISO-25
  9
$DIMCLRD
 70
0
  9
$DIMCLRE
 70
0
  9
$DIMCLRT
 70
0
  9
$DIMTFAC
 40
1.0
  9
$DIMGAP
 40
0.625
  9
$DIMJUST
 70
0
  9
$DIMSD1
 70
0
  9
$DIMSD2
 70
0
  9
$DIMTOLJ
 70
0
  9
$DIMTZIN
 70
8
  9
$DIMALTZ
 70
0
  9
$DIMALTTZ
 70
0
  9
$DIMUPT
 70
0
  9
$DIMDEC
 70
2
  9
$DIMTDEC
 70
2
  9
$DIMALTU
 70
2
  9
$DIMALTTD
 70
3
  9
$DIMTXSTY
  7
Standard
  9
$DIMAUNIT
 70
0
  9
$DIMADEC
 70
0
  9
$DIMALTRND
 40
0.0
  9
$DIMAZIN
 70
0
  9
$DIMDSEP
 70
44
  9
$DIMATFIT
 70
3
  9
$DIMFRAC
 70
0
  9
$DIMLDRBLK
  1

  9
$DIMLUNIT
 70
2
  9
$DIMLWD
 70
-2
  9
$DIMLWE
 70
-2
  9
$DIMTMOVE
 70
0
  9
$DIMFXL
 40
1.0
  9
$DIMFXLON
 70
0
  9
$DIMJOGANG
 40
0.785398163397
  9
$DIMTFILL
 70
0
  9
$DIMTFILLCLR
 70
0
  9
$DIMARCSYM
 70
0
  9
$DIMLTYPE
  6

  9
$DIMLTEX1
  6

  9
$DIMLTEX2
  6

  9
$DIMTXTDIRECTION
 70
0
  9
$LUNITS
 70
2
  9
$LUPREC
 70
4
  9
$SKETCHINC
 40
1.0
  9
$FILLETRAD
 40
10.0
  9
$AUNITS
 70
0
  9
$AUPREC
 70
2
  9
$MENU
  1
.
  9
$ELEVATION
 40
0.0
  9
$PELEVATION
 40
0.0
  9
$THICKNESS
 40
0.0
  9
$LIMCHECK
 70
0
  9
$CHAMFERA
 40
0.0
  9
$CHAMFERB
 40
0.0
  9
$CHAMFERC
 40
0.0
  9
$CHAMFERD
 40
0.0
  9
$SKPOLY
 70
0
  9
$TDCREATE
 40
2460908.0869560186
  9
$TDUCREATE
 40
2458532.153996898
  9
$TDUPDATE
 40
2460908.0869560186
  9
$TDUUPDATE
 40
2458532.1544311
  9
$TDINDWG
 40
0.0
  9
$TDUSRTIMER
 40
0.0
  9
$USRTIMER
 70
1
  9
$ANGBASE
 50
0.0
  9
$ANGDIR
 70
0
  9
$PDMODE
 70
0
  9
$PDSIZE
 40
0.0
  9
$PLINEWID
 40
0.0
  9
$SPLFRAME
 70
0
  9
$SPLINETYPE
 70
6
  9
$SPLINESEGS
 70
8
  9
$HANDSEED
  5
33
  9
$SURFTAB1
 70
6
  9
$SURFTAB2
 70
6
  9
$SURFTYPE
 70
6
  9
$SURFU
 70
6
  9
$SURFV
 70
6
  9
$UCSBASE
  2

  9
$UCSNAME
  2

  9
$UCSORG
 10
0.0
 20
0.0
 30
0.0
  9
$UCSXDIR
 10
1.0
 20
0.0
 30
0.0
  9
$UCSYDIR
 10
0.0
 20
1.0
 30
0.0
  9
$UCSORTHOREF
  2

  9
$UCSORTHOVIEW
 70
0
  9
$UCSORGTOP
 10
0.0
 20
0.0
 30
0.0
  9
$UCSORGBOTTOM
 10
0.0
 20
0.0
 30
0.0
  9
$UCSORGLEFT
 10
0.0
 20
0.0
 30
0.0
  9
$UCSORGRIGHT
 10
0.0
 20
0.0
 30
0.0
  9
$UCSORGFRONT
 10
0.0
 20
0.0
 30
0.0
  9
$UCSORGBACK
 10
0.0
 20
0.0
 30
0.0
  9
$PUCSBASE
  2

  9
$PUCSNAME
  2

  9
$PUCSORG
 10
0.0
 20
0.0
 30
0.0
  9
$PUCSXDIR
 10
1.0
 20
0.0
 30
0.0
  9
$PUCSYDIR
 10
0.0
 20
1.0
 30
0.0
  9
$PUCSORTHOREF
  2

  9
$PUCSORTHOVIEW
 70
0
  9
$PUCSORGTOP
 10
0.0
 20
0.0
 30
0.0
  9
$PUCSORGBOTTOM
 10
0.0
 20
0.0
 30
0.0
  9
$PUCSORGLEFT
 10
0.0
 20
0.0
 30
0.0
  9
$PUCSORGRIGHT
 10
0.0
 20
0.0
 30
0.0
  9
$PUCSORGFRONT
 10
0.0
 20
0.0
 30
0.0
  9
$PUCSORGBACK
 10
0.0
 20
0.0
 30
0.0
  9
$USERI1
 70
0
  9
$USERI2
 70
0
  9
$USERI3
 70
0
  9
$USERI4
 70
0
  9
$USERI5
 70
0
  9
$USERR1
 40
0.0
  9
$USERR2
 40
0.0
  9
$USERR3
 40
0.0
  9
$USERR4
 40
0.0
  9
$USERR5
 40
0.0
  9
$WORLDVIEW
 70
1
  9
$SHADEDGE
 70
3
  9
$SHADEDIF
 70
70
  9
$TILEMODE
 70
1
  9
$MAXACTVP
 70
64
  9
$PINSBASE
 10
0.0
 20
0.0
 30
0.0
  9
$PLIMCHECK
 70
0
  9
$PEXTMIN
 10
1e+20
 20
1e+20
 30
1e+20
  9
$PEXTMAX
 10
-1e+20
 20
-1e+20
 30
-1e+20
  9
$PLIMMIN
 10
0.0
 20
0.0
  9
$PLIMMAX
 10
420.0
 20
297.0
  9
$UNITMODE
 70
0
  9
$VISRETAIN
 70
1
  9
$PLINEGEN
 70
0
  9
$PSLTSCALE
 70
1
  9
$TREEDEPTH
 70
3020
  9
$CMLSTYLE
  2
Standard
  9
$CMLJUST
 70
0
  9
$CMLSCALE
 40
20.0
  9
$PROXYGRAPHICS
 70
1
  9
$MEASUREMENT
 70
1
  9
$CELWEIGHT
370
-1
  9
$ENDCAPS
280
0
  9
$JOINSTYLE
280
0
  9
$LWDISPLAY
290
0
  9
$INSUNITS
 70
6
  9
$HYPERLINKBASE
  1

  9
$STYLESHEET
  1

  9
$XEDIT
290
1
  9
$CEPSNTYPE
380
0
  9
$PSTYLEMODE
290
1
  9
$FINGERPRINTGUID
  2
{6484623B-A962-47B7-83B3-23DE108DAF35}
  9
$VERSIONGUID
  2
{19E72294-1455-4500-AC0F-FFE046BABC1D}
  9
$EXTNAMES
290
1
  9
$PSVPSCALE
 40
0.0
  9
$OLESTARTUP
290
0
  9
$SORTENTS
280
127
  9
$INDEXCTL
280
0
  9
$HIDETEXT
280
1
  9
$XCLIPFRAME
280
1
  9
$HALOGAP
280
0
  9
$OBSCOLOR
 70
257
  9
$OBSLTYPE
280
0
  9
$INTERSECTIONDISPLAY
280
0
  9
$INTERSECTIONCOLOR
 70
257
  9
$DIMASSOC
280
2
  9
$PROJECTNAME
  1

  9
$CAMERADISPLAY
290
0
  9
$LENSLENGTH
 40
50.0
  9
$CAMERAHEIGHT
 40
0.0
  9
$STEPSPERSEC
 40
24.0
  9
$STEPSIZE
 40
100.0
  9
$3DDWFPREC
 40
2.0
  9
$PSOLWIDTH
 40
0.005
  9
$PSOLHEIGHT
 40
0.08
  9
$LOFTANG1
 40
1.570796326795
  9
$LOFTANG2
 40
1.570796326795
  9
$LOFTMAG1
 40
0.0
  9
$LOFTMAG2
 40
0.0
  9
$LOFTPARAM
 70
7
  9
$LOFTNORMALS
280
1
  9
$LATITUDE
 40
37.795
  9
$LONGITUDE
 40
-122.394
  9
$NORTHDIRECTION
 40
0.0
  9
$TIMEZONE
 70
-8000
  9
$LIGHTGLYPHDISPLAY
280
1
  9
$TILEMODELIGHTSYNCH
280
1
  9
$CMATERIAL
347
20
  9
$SOLIDHIST
280
0
  9
$SHOWHIST
280
1
  9
$DWFFRAME
280
2
  9
$DGNFRAME
280
2
  9
$REALWORLDSCALE
290
1
  9
$INTERFERECOLOR
 62
256
  9
$CSHADOW
280
0
  9
$SHADOWPLANELOCATION
 40
0.0
  0
ENDSEC
  0
SECTION
  2
CLASSES
  0
CLASS
  1
ACDBDICTIONARYWDFLT
  2
AcDbDictionaryWithDefault
  3
ObjectDBX Classes
 90
0
 91
0
280
0
281
0
  0
CLASS
  1
SUN
  2
AcDbSun
  3
SCENEOE
 90
1153
 91
0
280
0
281
0
  0
CLASS
  1
VISUALSTYLE
  2
AcDbVisualStyle
  3
ObjectDBX Classes
 90
4095
 91
0
280
0
281
0
  0
CLASS
  1
MATERIAL
  2
AcDbMaterial
  3
ObjectDBX Classes
 90
1153
 91
0
280
0
281
0
  0
CLASS
  1
SCALE
  2
AcDbScale
  3
ObjectDBX Classes
 90
1153
 91
0
280
0
281
0
  0
CLASS
  1
TABLESTYLE
  2
AcDbTableStyle
  3
ObjectDBX Classes
 90
4095
 91
0
280
0
281
0
  0
CLASS
  1
MLEADERSTYLE
  2
AcDbMLeaderStyle
  3
ACDB_MLEADERSTYLE_CLASS
 90
4095
 91
0
280
0
281
0
  0
CLASS
  1
DICTIONARYVAR
  2
AcDbDictionaryVar
  3
ObjectDBX Classes
 90
0
 91
0
280
0
281
0
  0
CLASS
  1
CELLSTYLEMAP
  2
AcDbCellStyleMap
  3
ObjectDBX Classes
 90
1152
 91
0
280
0
281
0
  0
CLASS
  1
MENTALRAYRENDERSETTINGS
  2
AcDbMentalRayRenderSettings
  3
SCENEOE
 90
1024
 91
0
280
0
281
0
  0
CLASS
  1
ACDBDETAILVIEWSTYLE
  2
AcDbDetailViewStyle
  3
ObjectDBX Classes
 90
1025
 91
0
280
0
281
0
  0
CLASS
  1
ACDBSECTIONVIEWSTYLE
  2
AcDbSectionViewStyle
  3
ObjectDBX Classes
 90
1025
 91
0
280
0
281
0
  0
CLASS
  1
RASTERVARIABLES
  2
AcDbRasterVariables
  3
ISM
 90
0
 91
0
280
0
281
0
  0
CLASS
  1
LAYOUT
  2
AcDbLayout
  3
ObjectDBX Classes
 90
0
 91
0
280
0
281
0
  0
CLASS
  1
ACDBPLACEHOLDER
  2
AcDbPlaceHolder
  3
ObjectDBX Classes
 90
0
 91
0
280
0
281
0
  0
ENDSEC
  0
SECTION
  2
TABLES
  0
TABLE
  2
VPORT
  5
8
330
0
100
AcDbSymbolTable
 70
1
  0
VPORT
  5
23
330
8
100
AcDbSymbolTableRecord
100
AcDbViewportTableRecord
  2
*Active
 70
0
 10
0.0
 20
0.0
 11
1.0
 21
1.0
 12
0.0
 22
0.0
 13
0.0
 23
0.0
 14
0.5
 24
0.5
 15
0.5
 25
0.5
 16
0.0
 26
0.0
 36
1.0
 17
0.0
 27
0.0
 37
0.0
 40
1000.0
 41
1.34
 42
50.0
 43
0.0
 44
0.0
 50
0.0
 51
0.0
 71
0
 72
1000
 73
1
 74
3
 75
0
 76
0
 77
0
 78
0
281
0
 65
0
146
0.0
  0
ENDTAB
  0
TABLE
  2
LTYPE
  5
2
330
0
100
AcDbSymbolTable
 70
3
  0
LTYPE
  5
24
330
2
100
AcDbSymbolTableRecord
100
AcDbLinetypeTableRecord
  2
ByBlock
 70
0
  3

 72
65
 73
0
 40
0.0
  0
LTYPE
  5
25
330
2
100
AcDbSymbolTableRecord
100
AcDbLinetypeTableRecord
  2
ByLayer
 70
0
  3

 72
65
 73
0
 40
0.0
  0
LTYPE
  5
26
330
2
100
AcDbSymbolTableRecord
100
AcDbLinetypeTableRecord
  2
Continuous
 70
0
  3

 72
65
 73
0
 40
0.0
  0
ENDTAB
  0
TABLE
  2
LAYER
  5
1
330
0
100
AcDbSymbolTable
 70
2
  0
LAYER
  5
27
330
1
100
AcDbSymbolTableRecord
100
AcDbLayerTableRecord
  2
0
 70
0
 62
7
  6
Continuous
370
-3
390
13
347
21
  0
LAYER
  5
28
330
1
100
AcDbSymbolTableRecord
100
AcDbLayerTableRecord
  2
Defpoints
 70
0
 62
7
  6
Continuous
290
0
370
-3
390
13
347
21
  0
ENDTAB
  0
TABLE
  2
STYLE
  5
5
330
0
100
AcDbSymbolTable
 70
1
  0
STYLE
  5
29
330
5
100
AcDbSymbolTableRecord
100
AcDbTextStyleTableRecord
  2
Standard
 70
0
 40
0.0
 41
1.0
 50
0.0
 71
0
 42
2.5
  3
txt
  4

  0
ENDTAB
  0
TABLE
  2
VIEW
  5
7
330
0
100
AcDbSymbolTable
 70
0
  0
ENDTAB
  0
TABLE
  2
UCS
  5
6
330
0
100
AcDbSymbolTable
 70
0
  0
ENDTAB
  0
TABLE
  2
APPID
  5
3
330
0
100
AcDbSymbolTable
 70
3
  0
APPID
  5
2A
330
3
100
AcDbSymbolTableRecord
100
AcDbRegAppTableRecord
  2
ACAD
 70
0
  0
APPID
  5
30
330
3
100
AcDbSymbolTableRecord
100
AcDbRegAppTableRecord
  2
HATCHBACKGROUNDCOLOR
 70
0
  0
APPID
  5
31
330
3
100
AcDbSymbolTableRecord
100
AcDbRegAppTableRecord
  2
EZDXF
 70
0
  0
ENDTAB
  0
TABLE
  2
DIMSTYLE
  5
4
330
0
100
AcDbSymbolTable
 70
1
100
AcDbDimStyleTable
  0
DIMSTYLE
105
2B
330
4
100
AcDbSymbolTableRecord
100
AcDbDimStyleTableRecord
  2
Standard
 70
0
 40
1.0
 41
2.5
 42
0.625
 43
3.75
 44
1.25
 45
0.0
 46
0.0
 47
0.0
 48
0.0
 49
2.5
140
2.5
141
2.5
142
0.0
143
0.03937007874
144
1.0
145
0.0
146
1.0
147
0.625
148
0.0
 69
0
 70
0
 71
0
 72
0
 73
0
 74
0
 75
0
 76
0
 77
1
 78
8
 79
3
170
0
171
3
172
1
173
0
174
0
175
0
176
0
177
0
178
0
179
2
271
2
272
2
273
2
274
3
275
0
276
0
277
2
278
44
279
0
280
0
281
0
282
0
283
0
284
8
285
0
286
0
288
0
289
3
290
0
371
-2
372
-2
  0
ENDTAB
  0
TABLE
  2
BLOCK_RECORD
  5
9
330
0
100
AcDbSymbolTable
 70
2
  0
BLOCK_RECORD
  5
17
330
9
100
AcDbSymbolTableRecord
100
AcDbBlockTableRecord
  2
*Model_Space
340
1A
 70
0
280
1
281
0
  0
BLOCK_RECORD
  5
1B
330
9
100
AcDbSymbolTableRecord
100
AcDbBlockTableRecord
  2
*Paper_Space
340
1E
 70
0
280
1
281
0
  0
ENDTAB
  0
ENDSEC
  0
SECTION
  2
BLOCKS
  0
BLOCK
  5
18
330
17
100
AcDbEntity
  8
0
100
AcDbBlockBegin
  2
*Model_Space
 70
0
 10
0.0
 20
0.0
 30
0.0
  3
*Model_Space
  1

  0
ENDBLK
  5
19
330
17
100
AcDbEntity
  8
0
100
AcDbBlockEnd
  0
BLOCK
  5
1C
330
1B
100
AcDbEntity
  8
0
100
AcDbBlockBegin
  2
*Paper_Space
 70
0
 10
0.0
 20
0.0
 30
0.0
  3
*Paper_Space
  1

  0
ENDBLK
  5
1D
330
1B
100
AcDbEntity
  8
0
100
AcDbBlockEnd
  0
ENDSEC
  0
SECTION
  2
ENTITIES
  0
LWPOLYLINE
  5
2F
330
17
100
AcDbEntity
  8
0
100
AcDbPolyline
 90
721
 70
1
 10
88.03344290909922
 20
42.85932597182861
 10
88.03049865432746
 20
42.859030310495626
 10
88.02179382829867
 20
42.85788054009991
 10
88.00758430758583
 20
42.855351087848014
 10
87.98761076070406
 20
42.85164077099339
 10
87.96232788147988
 20
42.84648334822745
 10
87.93154030757162
 20
42.839946243605304
 10
87.89518061492417
 20
42.83183409478534
 10
87.85351158993424
 20
42.822274840054035
 10
87.80646580854678
 20
42.81107311706979
 10
87.75378393927687
 20
42.79842774308611
 10
87.69585670680775
 20
42.7842038699927
 10
87.63255271794105
 20
42.768337528646356
 10
87.56380800353352
 20
42.75096011224543
 10
87.4897505018717
 20
42.7318088343932
 10
87.41025227466903
 20
42.711146481486374
 10
87.32550868426713
 20
42.68890562946985
 10
87.2353883374677
 20
42.665022309200374
 10
87.13982726512742
 20
42.639627913876325
 10
87.03908479873121
 20
42.612523626244226
 10
86.93290160679415
 20
42.5839082635575
 10
86.8214056276028
 20
42.5535190394195
 10
86.7047317092673
 20
42.521746678513374
 10
86.5825496413359
 20
42.48826788021108
 10
86.45525360340366
 20
42.45327455194231
 10
86.32258080907384
 20
42.4166387554206
 10
86.1846626515448
 20
42.37842445978918
 10
86.04149913081656
 20
42.33863166504805
 10
85.89302627774589
 20
42.29739176439559
 10
85.73924409233277
 20
42.254704757831796
 10
85.5802805128637
 20
42.21030785895993
 10
85.41600760105214
 20
42.164463854176724
 10
85.24662071923974
 20
42.11710531942704
 10
85.07192450508495
 20
42.06829967876604
 10
84.89204689687416
 20
42.01778414579695
 10
84.70699134951933
 20
41.96588547605978
 10
84.51669389387713
 20
41.91273506275288
 10
84.32134643737737
 20
41.857938726281155
 10
84.12068964853518
 20
41.80169528389809
 10
83.91505028289048
 20
41.74400128069179
 10
83.70410158490338
 20
41.68486017157417
 10
83.48810634097053
 20
41.6243998948317
 10
83.26693315789363
 20
41.562556481321124
 10
83.04071342887104
 20
41.49939390018571
 10
82.8093797298476
 20
41.43471678908382
 10
82.5730634540217
 20
41.36858911715872
 10
82.33150526990849
 20
41.301209701663886
 10
82.08503193304793
 20
41.232575087687444
 10
81.83351205024168
 20
41.16262130608615
 10
81.57694562148971
 20
41.09134835686001
 10
81.31533264679207
 20
41.018756240009026
 10
81.04874055020386
 20
40.945040317874806
 10
80.77710190766992
 20
40.870005228115716
 10
80.5004841432454
 20
40.7938463330734
 10
80.21895122607356
 20
40.716432239549476
 10
79.9326310944409
 20
40.63750016114719
 10
79.64152720325924
 20
40.557376853406545
 10
79.34538022104377
 20
40.476261133581026
 10
79.04419014779448
 20
40.39415300167063
 10
78.73828028413948
 20
40.3107222472235
 10
78.42758666093555
 20
40.22610026343803
 10
78.11210927818263
 20
40.14028705031417
 10
77.79165622845103
 20
40.05367678744705
 10
77.46654735745695
 20
39.965612508844835
 10
77.13678612011228
 20
39.876420970047484
 10
76.8023085472738
 20
39.786233564253386
 10
76.46291927659986
 20
39.69511771551765
 10
76.11894506363046
 20
39.60306996892841
 10
75.77031848431048
 20
39.509894962144045
 10
75.41703953863991
 20
39.41559269516455
 10
75.05911168153067
 20
39.32048992352992
 10
74.69679078955564
 20
39.224061074446645
 10
74.32981753123005
 20
39.12650496516826
 10
73.95839072380736
 20
39.02808092717959
 10
73.58251036728761
 20
38.92878896048066
 10
73.20217300675887
 20
38.82830230953146
 10
72.81731467307793
 20
38.72675236753039
 10
72.4281981526415
 20
38.62426707276391
 10
72.03456411396473
 20
38.52104524248553
 10
71.6366044644774
 20
38.416692697100146
 10
71.2344505973778
 20
38.31127340575097
 10
70.82810251266598
 20
38.204787368438026
 10
70.41743227205545
 20
38.09749737155805
 10
70.00243987554619
 20
37.98940341511105
 10
69.58318929228147
 20
37.880374105898646
 10
69.16000727780128
 20
37.77040598900895
 10
68.73256707656562
 20
37.65950251935386
 10
68.30100008177281
 20
37.5477276660766
 10
67.86562959405104
 20
37.43475121872531
 10
67.42626025105864
 20
37.320640601355116
 10
66.98283153856426
 20
37.20585396270437
 10
66.53547484976629
 20
37.09045527191632
 10
66.08405533655446
 20
36.97405380430774
 10
65.62902769275522
 20
36.85638331856998
 10
65.17013604179564
 20
36.73796938749656
 10
64.70744435281894
 20
36.6186806178891
 10
64.24088865668192
 20
36.498648402945946
 10
63.77072828486935
 20
36.37767392541362
 10
63.29696323738129
 20
36.25575718529211
 10
62.819462121019356
 20
36.13283421343818
 10
62.33842375303704
 20
36.009164341336685
 10
61.853716740235996
 20
35.88468359984439
 10
61.36560041410107
 20
35.75919317170777
 10
60.87407477463224
 20
35.632693056926854
 10
60.3792712150279
 20
35.505247224644854
 10
59.88099437294642
 20
35.376923098916926
 10
59.3792477032997
 20
35.24804743528305
 10
58.8740917203191
 20
35.11816208500486
 10
58.36585663445647
 20
34.98759034871045
 10
57.854535535888076
 20
34.855678715319875
 10
57.34006445547063
 20
34.72255857803147
 10
56.82251427217115
 20
34.58875205472685
 10
56.30182101684643
 20
34.4543905386044
 10
55.77791381052944
 20
34.318951911782506
 10
55.25144616430015
 20
34.182429264437395
 10
54.722087867706676
 20
34.04449929594098
 10
54.18990979971603
 20
33.905684124174826
 10
53.6547165979866
 20
33.7660511731941
 10
53.11683501805841
 20
33.62559698808691
 10
52.57632557416277
 20
33.48386342011488
 10
52.03319172121158
 20
33.341177224818004
 10
51.487305520918355
 20
33.19780118859302
 10
50.938986818999325
 20
33.053078345448085
 10
50.3882995845977
 20
32.90687730218481
 10
49.83518675839402
 20
32.75998296308155
 10
49.27944952313483
 20
32.61213599665344
 10
48.721286696073555
 20
32.463595734385336
 10
48.16108209206973
 20
32.313573817087025
 10
47.59877174198003
 20
32.162201637956855
 10
47.03422770751801
 20
32.00974198339158
 10
46.46725808125396
 20
31.856589032986314
 10
45.898381526157564
 20
31.702345152234045
 10
45.327591132405075
 20
31.54635683005483
 10
44.755089172161846
 20
31.38921015347347
 10
44.18029301331496
 20
31.231434150195376
 10
43.60358992563571
 20
31.072567216570274
 10
43.0252357856971
 20
30.912083779804696
 10
42.445365441609404
 20
30.750374564581865
 10
41.863652137832595
 20
30.58744302581367
 10
41.2802946916202
 20
30.42354849498496
 10
40.695225678917076
 20
30.258495609754124
 10
40.10870443120809
 20
30.092085552867655
 10
39.52086234169162
 20
29.92438229346881
 10
38.93156801716927
 20
29.755321862414334
 10
38.34108424403779
 20
29.585032197990714
 10
37.74914823590044
 20
29.413385361911462
 10
37.155894840867504
 20
29.24077207885982
 10
36.56138802808219
 20
29.0670609556374
 10
35.96594764326072
 20
28.891595026252347
 10
35.369445748116625
 20
28.714637077101415
 10
34.772081159903365
 20
28.53644643966944
 10
34.173527123081
 20
28.357026568868324
 10
33.57417436233272
 20
28.1762426165878
 10
32.974086846801804
 20
27.993963189629504
 10
32.37332854563147
 20
27.810056894795064
 10
31.771771520535225
 20
27.62478651848121
 10
31.169483195568237
 20
27.438347423029576
 10
30.56646357073047
 20
27.250739608440142
 10
29.96303594665002
 20
27.06163286426104
 10
29.359132899271785
 20
26.87083182815067
 10
28.754949790937363
 20
26.678269076053883
 10
28.150426107415395
 20
26.48440275670905
 10
27.545238548077787
 20
26.289563080568033
 10
26.939777837607785
 20
26.093615199520585
 10
26.334424335952917
 20
25.895443998836477
 10
25.728794228253758
 20
25.695837837705945
 10
25.12308633176381
 20
25.49505604761385
 10
24.51729719157117
 20
25.2927718730202
 10
23.911490776819086
 20
25.08885392072662
 10
23.305737966474577
 20
24.883824308614717
 10
22.69997133648251
 20
24.67748767434287
 10
22.09451418747098
 20
24.469513807459208
 10
21.48923512624163
 20
24.259838738820495
 10
20.884332970047957
 20
24.048721799911583
 10
20.279743749746704
 20
23.83629438393083
 10
19.675659372767612
 20
23.622162311283148
 10
19.07201586996742
 20
23.406456975166876
 10
18.468880665401294
 20
23.189373737923663
 10
17.865930458441092
 20
22.97124281000535
 10
17.263811850343043
 20
22.751403770508208
 10
16.66252484110713
 20
22.529856619432234
 10
16.06200546159012
 20
22.306732749975804
 10
15.462189742648766
 20
22.082163555337278
 10
14.863273046624677
 20
21.85608161146153
 10
14.265060011176248
 20
21.628554342403692
 10
13.66787739184346
 20
21.39957829325188
 10
13.0718531269128
 20
21.168890677609348
 10
12.476923247241016
 20
20.93662288867446
 10
11.883023783684875
 20
20.702906319645596
 10
11.290218705387637
 20
20.46760957732439
 10
10.69889873703249
 20
20.230597813600557
 10
10.108804547134595
 20
19.99206984572762
 10
9.519939590605855
 20
19.752352429245565
 10
8.932492319964089
 20
19.510724629019286
 10
8.34659758331957
 20
19.267577169732007
 10
7.762063473242566
 20
19.023304230978848
 10
7.178950503964425
 20
18.777447664021448
 10
6.597649400168377
 20
18.529872620749547
 10
6.018032223567953
 20
18.28084188755989
 10
5.44009551925124
 20
18.030028708912496
 10
4.863974135328519
 20
17.777823809490588
 10
4.289664616887896
 20
17.52390043375418
 10
3.7173657811828575
 20
17.268517913188123
 10
3.1466229343869587
 20
17.01194248910106
 10
2.577826801183411
 20
16.754039313382716
 10
2.0112332581451864
 20
16.494282813239618
 10
1.4467783361290425
 20
16.23280438187013
 10
0.8844015209036231
 20
15.97006216801261
 10
0.3241667816121824
 20
15.705924778468692
 10
-0.23386191260205963
 20
15.440260820039994
 10
-0.7895531685407071
 20
15.173134261869766
 10
-1.3431663176886313
 20
14.904743921211509
 10
-1.8946979051339463
 20
14.635416553605197
 10
-2.443760661105302
 20
14.364690555400598
 10
-2.9902266473162133
 20
14.092303140200967
 10
-3.5342238020531846
 20
13.818517094403038
 10
-4.075684701261056
 20
13.543527780348438
 10
-4.614740738138229
 20
13.267271228893911
 10
-5.151324488629552
 20
12.989942802381083
 10
-5.685368528679909
 20
12.711737863151555
 10
-6.216748374914686
 20
12.43206686926861
 10
-6.745332634135526
 20
12.150993789875487
 10
-7.27130975886027
 20
11.869239560107276
 10
-7.794683204000797
 20
11.586477424424004
 10
-8.315126214017123
 20
11.302703927913779
 10
-8.83290157530599
 20
11.017791132290117
 10
-9.347746501470658
 20
10.731866975839502
 10
-9.85965753759924
 20
10.445258214101917
 10
-10.368961439231715
 20
10.157968301989253
 10
-10.875206967453511
 20
9.86940424265289
 10
-11.378515150727335
 20
9.580482333569542
 10
-11.879145320538022
 20
9.291401391992718
 10
-12.376845055224518
 20
9.001309089588933
 10
-12.871220175191699
 20
8.710397333787926
 10
-13.36259398106766
 20
8.418996335041559
 10
-13.851030441995642
 20
8.12723748654821
 10
-14.336401619689164
 20
7.834858001911133
 10
-14.818508696894725
 20
7.542117212615183
 10
-15.297614460009063
 20
7.248887180373882
 10
-15.773648030065166
 20
6.955690023068819
 10
-16.24648146877655
 20
6.662262954303256
 10
-16.716050806999974
 20
6.368474580878823
 10
-17.182420013878673
 20
6.074456295993889
 10
-17.645585634500765
 20
5.780534855188436
 10
-18.105679062064613
 20
5.486646289319229
 10
-18.562309571887003
 20
5.192655750276007
 10
-19.01547716396793
 20
4.898563238058765
 10
-19.465249262362516
 20
4.604173390325893
 10
-19.91155844301564
 20
4.309681569419001
 10
-20.354596613357025
 20
4.015481954933211
 10
-20.794296349331535
 20
3.721769909210128
 10
-21.230401774366218
 20
3.4280198594562723
 10
-21.663044281659428
 20
3.1341678365283974
 10
-22.091765722472825
 20
2.840274354657858
 10
-22.51702079063286
 20
2.546605655153289
 10
-22.93887345528279
 20
2.253293131213055
 10
-23.35706093002586
 20
1.9604647211236481
 10
-23.771519245718835
 20
1.6679890316866892
 10
-24.182187888130358
 20
1.375407914163826
 10
-24.589191340635026
 20
1.0833109104917835
 10
-24.992721510662577
 20
0.7920922002656761
 10
-25.392327159298407
 20
0.5011587866368938
 10
-25.788139679740894
 20
0.21044670046219058
 10
-26.180024223879787
 20
-0.07965333357520954
 10
-26.568112184913453
 20
-0.3692052846185441
 10
-26.95246753198514
 20
-0.6580777594694446
 10
-27.33276696446673
 20
-0.9466009685797804
 10
-27.70913842064473
 20
-1.2345121255528146
 10
-28.081581900519133
 20
-1.521811230388539
 10
-28.4503532806629
 20
-1.8079727102934717
 10
-28.81512580553605
 20
-2.093000020179502
 10
-29.1759703541056
 20
-2.3774152779282254
 10
-29.532627594886698
 20
-2.6614173007931443
 10
-29.885222011253937
 20
-2.944416546837533
 10
-30.23401293469217
 20
-3.226214198807887
 10
-30.57861309543006
 20
-3.5072718603544524
 10
-30.919019038555724
 20
-3.787262775937242
 10
-31.255557519609138
 20
-4.066183490644372
 10
-31.58796575219356
 20
-4.343906066189355
 10
-31.916051828879272
 20
-4.620824682167309
 10
-32.24000765709599
 20
-4.8965451589831135
 10
-32.55989720598697
 20
-5.170936103438408
 10
-32.875656506408944
 20
-5.44412890873155
 10
-33.18715416516358
 20
-5.7160596057193045
 10
-33.49432621310759
 20
-5.986859587600049
 10
-33.79736801258262
 20
-6.256461430318644
 10
-34.09601677719192
 20
-6.52473719558861
 10
-34.39040044522196
 20
-6.791424097013207
 10
-34.68065386478302
 20
-7.0569128592756565
 10
-34.96638285627997
 20
-7.321011574946236
 10
-35.247654843767954
 20
-7.583915606366561
 10
-35.52472570381992
 20
-7.845099380743138
 10
-35.79759543643588
 20
-8.104562898075972
 10
-36.066004710130976
 20
-8.362504975618567
 10
-36.32988955576197
 20
-8.619057006569292
 10
-36.58931739738399
 20
-8.874414353269755
 10
-36.8443452943165
 20
-9.12779211144162
 10
-37.095040670614615
 20
-9.379385643426504
 10
-37.34127558799188
 20
-9.629457735621143
 10
-37.582918653249905
 20
-9.8779444188823
 10
-37.820097804675186
 20
-10.12458290681323
 10
-38.052685103981226
 20
-10.369635985810673
 10
-38.28074452031127
 20
-10.612972262676264
 10
-38.50434002280856
 20
-10.854460344211626
 10
-38.723212279988246
 20
-11.094299047670267
 10
-38.93755319928006
 20
-11.33209419345706
 10
-39.147238297309386
 20
-11.568435323508748
 10
-39.35239205745083
 20
-11.802732895888594
 10
-39.552950510561146
 20
-12.035118303794968
 10
-39.7488496874971
 20
-12.265722940426249
 10
-39.93995819506033
 20
-12.49448283663919
 10
-40.12647139559242
 20
-12.721330568378667
 10
-40.30844980332474
 20
-12.94580798690631
 10
-40.485765479970816
 20
-13.168177878618877
 10
-40.65841842553063
 20
-13.388440243516362
 10
-40.826604002345796
 20
-13.60652765754363
 10
-40.98999545487635
 20
-13.82244357561258
 10
-41.14885211460713
 20
-14.035989180469702
 10
-41.303170526626246
 20
-14.246837716575016
 10
-41.45308208413207
 20
-14.455053153071757
 10
-41.59832745563977
 20
-14.660834307213431
 10
-41.73910200349092
 20
-14.864113754944912
 10
-41.8751429412888
 20
-15.064763557979706
 10
-42.006840993716644
 20
-15.262648868207565
 10
-42.13399734352093
 20
-15.457510354143627
 10
-42.25661544561356
 20
-15.649674771327875
 10
-42.374695299994535
 20
-15.839142119760316
 10
-42.48823690666384
 20
-16.025912399440944
 10
-42.597236810709596
 20
-16.209658854829783
 10
-42.701695012131815
 20
-16.39038148592682
 10
-42.80155099669912
 20
-16.568538441470416
 10
-42.89686527864289
 20
-16.74367157272222
 10
-42.987381981390136
 20
-16.916306452475716
 10
-43.073356981513825
 20
-17.085917507937413
 10
-43.15453440244103
 20
-17.253030311900805
 10
-43.231042182458175
 20
-17.417382077969144
 10
-43.3028803215653
 20
-17.578972806142428
 10
-43.36985345742077
 20
-17.73786992047579
 10
-43.43235231470783
 20
-17.893938572858975
 10
-43.489790806401636
 20
-18.047381035457366
 10
-43.54269105038377
 20
-18.198126429303944
 10
-43.590726291114265
 20
-18.3461782093106
 10
-43.634088436022836
 20
-18.491142195882222
 10
-43.67278094002139
 20
-18.63334514455879
 10
-43.70673637905476
 20
-18.77259169299869
 10
-43.736210629695954
 20
-18.908356268408443
 10
-43.76114317771359
 20
-19.041097019526394
 10
-43.78153056819579
 20
-19.17048719081257
 10
-43.79750073942903
 20
-19.296263995870213
 10
-43.80930956798629
 20
-19.417901861905854
 10
-43.81695705386756
 20
-19.53540078891948
 10
-43.820702528557696
 20
-19.64856195965759
 10
-43.82060305137616
 20
-19.75660046984185
 10
-43.8170458920943
 20
-19.859054715822005
 10
-43.81080213534289
 20
-19.954674734757578
 10
-43.80205677872789
 20
-20.042412835973494
 10
-43.79196472173952
 20
-20.120230697439037
 10
-43.781680863868026
 20
-20.186089997123503
 10
-43.772477678154466
 20
-20.236709359979486
 10
-43.76608578637825
 20
-20.26886792519093
 10
-43.359755462690664
 20
-21.109817269706628
 10
-43.35399656561628
 20
-21.115302909102002
 10
-43.33678384353637
 20
-21.131628434089745
 10
-43.30837317302391
 20
-21.158268271876377
 10
-43.26754568544541
 20
-21.19739213769097
 10
-43.21322081518955
 20
-21.25188722698582
 10
-43.14859356450652
 20
-21.314857124302346
 10
-43.07551558363842
 20
-21.38216467134779
 10
-42.995081257844156
 20
-21.452229694829793
 10
-42.9085025459334
 20
-21.522228968439315
 10
-42.816223776996985
 20
-21.59091598424776
 10
-42.718827583147835
 20
-21.657761714549753
 10
-42.61643844776057
 20
-21.72217661740857
 10
-42.50931224740813
 20
-21.783635120030727
 10
-42.39757692037703
 20
-21.841874436019467
 10
-42.281232466667234
 20
-21.8968945653748
 10
-42.16047424862037
 20
-21.948628084041594
 10
-42.035298811324566
 20
-21.996748236479867
 10
-41.90564218563655
 20
-22.041386415887985
 10
-41.771699733897975
 20
-22.08247519821082
 10
-41.633212124623945
 20
-22.120213400701875
 10
-41.490243326957724
 20
-22.154469630162776
 10
-41.343184065582534
 20
-22.185109038483258
 10
-41.191448253473524
 20
-22.212333897828724
 10
-41.035494039369084
 20
-22.23620472243052
 10
-40.8749946677292
 20
-22.256724967200537
 10
-40.71014550089548
 20
-22.27382720808364
 10
-40.541010508011176
 20
-22.28738005188146
 10
-40.36739778164658
 20
-22.29777767818911
 10
-40.18943526008815
 20
-22.304757300609854
 10
-40.00686706676293
 20
-22.308844491937172
 10
-39.81988510910065
 20
-22.30964507257595
 10
-39.62849284201319
 20
-22.30748579806618
 10
-39.43255887230218
 20
-22.302302699264605
 10
-39.23195526168115
 20
-22.294358562567982
 10
-39.02687737249169
 20
-22.283585963921173
 10
-38.81726123559057
 20
-22.27011629652256
 10
-38.603106850977795
 20
-22.25394956037213
 10
-38.38409091802526
 20
-22.235415965921767
 10
-38.160540192272954
 20
-22.21451205825958
 10
-37.93225585646738
 20
-22.190978505900706
 10
-37.69950069700527
 20
-22.164943247131646
 10
-37.46201538240179
 20
-22.13660509920588
 10
-37.219931305855276
 20
-22.106028031266668
 10
-36.97318104331063
 20
-22.073016680972383
 10
-36.72202392625269
 20
-22.03737223106953
 10
-36.466264592339854
 20
-21.99916210561324
 10
-36.20610185882562
 20
-21.958645636088367
 10
-35.94140433251162
 20
-21.91575885335166
 10
-35.672172013397834
 20
-21.870501757403137
 10
-35.39859680891401
 20
-21.82248016864767
 10
-35.12081011225851
 20
-21.771758056228503
 10
-34.83868053023296
 20
-21.718271451002394
 10
-34.552211517749264
 20
-21.662347108509337
 10
-34.261403074807404
 20
-21.603985028749314
 10
-33.96651107798036
 20
-21.542659638928853
 10
-33.66753898217999
 20
-21.478697694587936
 10
-33.36441936335121
 20
-21.411903833384944
 10
-33.057088252350745
 20
-21.342409448518254
 10
-32.745677042376975
 20
-21.270278509131103
 10
-32.43024970257315
 20
-21.19537962202513
 10
-32.11074226379602
 20
-21.11784418039869
 10
-31.787154726045582
 20
-21.037672184251797
 10
-31.459551058465088
 20
-20.954732240386075
 10
-31.12799868510966
 20
-20.869219711143135
 10
-30.792497605979303
 20
-20.78113459652298
 10
-30.452980397018887
 20
-20.690281534184
 10
-30.109581906338665
 20
-20.597051248809407
 10
-29.762234709883508
 20
-20.501248378057603
 10
-29.41087483851019
 20
-20.403004315126953
 10
-29.055697654560312
 20
-20.30225163596233
 10
-28.696895065463586
 20
-20.198596160968616
 10
-28.334275163790306
 20
-20.09243206974093
 10
-27.96757861805562
 20
-19.983958179532767
 10
-27.59726357699787
 20
-19.873235004575488
 10
-27.223195192506804
 20
-19.75987182018586
 10
-26.84543743372566
 20
-19.643737233165517
 10
-26.4641251487647
 20
-19.525221968197677
 10
-26.079062975282312
 20
-19.40439344933748
 10
-25.690378851564986
 20
-19.28098889018818
 10
-25.298204170811072
 20
-19.155072259893007
 10
-24.90260290216383
 20
-19.026512165253603
 10
-24.503383138193538
 20
-18.895702785865087
 10
-24.100672817186666
 20
-18.762381335330694
 10
-23.694344000856734
 20
-18.62681060004719
 10
-23.284851383030215
 20
-18.488724338705932
 10
-22.871868208167122
 20
-18.34812600621881
 10
-22.45552586946583
 20
-18.20507957172907
 10
-22.03589179098146
 20
-18.059780397578315
 10
-21.61296251780213
 20
-17.91190172822657
 10
-21.18674150483973
 20
-17.761770319213813
 10
-20.757424114435874
 20
-17.60931874648492
 10
-20.324875498480296
 20
-17.454156285356664
 10
-19.88935844336974
 20
-17.296410874115523
 10
-19.450681041674486
 20
-17.136476692356613
 10
-19.00884329339453
 20
-16.97435374007994
 10
-18.563845198529872
 20
-16.810042017285497
 10
-18.11601005770861
 20
-16.643211313521412
 10
-17.66546580921723
 20
-16.473598842390945
 10
-17.211825183284397
 20
-16.30166620754434
 10
-16.755350966306843
 20
-16.127541347268078
 10
-16.296039703372678
 20
-15.950897506022171
 10
-15.83415072596677
 20
-15.771535866553124
 10
-15.369492126659392
 20
-15.589850608456052
 10
-14.902067360362423
 20
-15.406168487270936
 10
-14.431872972163985
 20
-15.220162747457792
 10
-13.959100869493795
 20
-15.031439209421503
 10
-13.483885900462118
 20
-14.840388597845303
 10
-13.006164095925707
 20
-14.647142305927552
 10
-12.525672669487825
 20
-14.45157239538178
 10
-12.042869769886826
 20
-14.25373938043933
 10
-11.557751942210821
 20
-14.053316505560218
 10
-11.070319186459812
 20
-13.850303770744448
 10
-10.580638926688929
 20
-13.644896538333631
 10
-10.08839131718196
 20
-13.437751774319628
 10
-9.593899658567002
 20
-13.228539268250561
 10
-9.097288434218658
 20
-13.016669478189707
 10
-8.59849367499368
 20
-12.802273797335433
 10
-8.097778167288807
 20
-12.585480163974223
 10
-7.594754641332706
 20
-12.366750181756325
 10
-7.0896824286102325
 20
-12.145885033428232
 10
-6.582561529121385
 20
-11.922884718989948
 10
-6.073519881152649
 20
-11.697486452044732
 10
-5.562493515560784
 20
-11.469821625790951
 10
-5.049617280456045
 20
-11.240280964911834
 10
-4.534756327728174
 20
-11.008473744724151
 10
-4.018301382060401
 20
-10.774265117117649
 10
-3.5001884743094767
 20
-10.53778647529069
 10
-2.980353635332168
 20
-10.299169212441651
 10
-2.458729441073335
 20
-10.058217966228918
 10
-1.9358380094145944
 20
-9.814861857685477
 10
-1.4116119163007899
 20
-9.568905524469702
 10
-0.8855359536741161
 20
-9.321073356628595
 10
-0.3579368770745618
 20
-9.071361899250265
 10
0.17067010544006095
 20
-8.819046762287714
 10
0.700739687696214
 20
-8.564394187049587
 10
1.2322044456387686
 20
-8.307599535877488
 10
1.7646736545845039
 20
-8.048527960661158
 10
2.2983461317869183
 20
-7.786920129915745
 10
2.8329590908492692
 20
-7.522903981927727
 10
3.3688998015428866
 20
-7.256941120347359
 10
3.9059089323829173
 20
-6.988832727921132
 10
4.443535244454802
 20
-6.717985807800425
 10
4.9821020383866115
 20
-6.444730570437121
 10
5.521733797552957
 20
-6.169656557767939
 10
6.062107221325723
 20
-5.892433559341018
 10
6.603289733760066
 20
-5.612866212814732
 10
7.145277879944071
 20
-5.331281273729076
 10
7.6878157833047895
 20
-5.047153169290553
 10
8.230903443842223
 20
-4.760481899499166
 10
8.77466534493095
 20
-4.4718570062916525
 10
9.319034062515845
 20
-4.181473852009619
 10
9.864077020652056
 20
-3.8891370743114475
 10
10.409470918711461
 20
-3.594516462745273
 10
10.955343694980563
 20
-3.297874803707831
 10
11.501695349459354
 20
-2.999212097199127
 10
12.04839448894946
 20
-2.698592312362401
 10
12.595249206021164
 20
-2.395621269602537
 10
13.142387438960935
 20
-2.0905617553162816
 10
13.689802277945015
 20
-1.7840672805835989
 10
14.237692540226885
 20
-1.4758785139196422
 10
14.785603531980088
 20
-1.1657292140157731
 10
15.333730615546246
 20
-0.8536868049271212
 10
15.881811004528595
 20
-0.5398792249401769
 10
16.430040061268766
 20
-0.22437389811006025
 10
16.978353816623514
 20
0.0929605687615935
 10
17.526553453339325
 20
0.41186484418992847
 10
18.074898302901065
 20
0.7321401109214472
 10
18.623324396165494
 20
1.0539177621545206
 10
19.171504977592615
 20
1.3772012528010351
 10
19.719635409524063
 20
1.7019231588058656
 10
20.267712237047935
 20
2.027756724629024
 10
20.815610976789614
 20
2.3552914922072277
 10
21.363196780638884
 20
2.684136736857268
 10
21.910597586882208
 20
3.0140296721823967
 10
22.45774942637633
 20
3.345101691380977
 10
23.00452436083479
 20
3.677615580849761
 10
23.55105032854406
 20
4.011308554192003
 10
24.097192481393883
 20
4.345789886724478
 10
24.642954274296144
 20
4.681386333987164
 10
25.18839622148219
 20
5.017639747241711
 10
25.73332641552231
 20
5.3549443060832305
 10
26.277680887273252
 20
5.693431403710097
 10
26.821587575021518
 20
6.032838253725573
 10
27.364975599800047
 20
6.372642738248038
 10
27.907976354807264
 20
6.712908826420764
 10
28.450266539415036
 20
7.053966728695601
 10
28.99191012276662
 20
7.395685051874191
 10
29.532907104861994
 20
7.738063795956519
 10
30.07332145484443
 20
8.080971567744228
 10
30.612826417173935
 20
8.424411822149207
 10
31.151617354192112
 20
8.768317135116316
 10
31.689626841843836
 20
9.112492144303948
 10
32.227114211613966
 20
9.456738032458595
 10
32.76356080053277
 20
9.801452434087267
 10
33.29903057774352
 20
10.146503955991589
 10
33.83397478216078
 20
10.491299601322947
 10
34.367746812528374
 20
10.836499790985087
 10
34.90028269970302
 20
11.182235918176378
 10
35.432097651742595
 20
11.527783592849836
 10
35.96305682053679
 20
11.872752090322228
 10
36.49290778442455
 20
12.217993738927033
 10
37.021583119350744
 20
12.563313176322632
 10
37.54895143211701
 20
12.908646433365789
 10
38.07527205420817
 20
13.253794692802998
 10
38.600477561569114
 20
13.59856259229264
 10
39.124631923343095
 20
13.94281873863636
 10
39.64747580804524
 20
14.286761949087639
 10
40.168881277389076
 20
14.630655010043236
 10
40.689040238804324
 20
14.974103741908039
 10
41.20795269229098
 20
15.317108144682031
 10
41.72541982059556
 20
15.659408886880371
 10
42.24170441011477
 20
16.00113390678953
 10
42.75635176702219
 20
16.342549445718156
 10
43.26942586046102
 20
16.683524110467857
 10
43.78124653614749
 20
17.023400935046794
 10
44.29174982493836
 20
17.362311312653333
 10
44.80054500215039
 20
17.70039009139773
 10
45.30795882332359
 20
18.0376338163681
 10
45.813664532917926
 20
18.37404594247632
 10
46.317793524131815
 20
18.709690438865653
 10
46.820342342053365
 20
19.044240549996097
 10
47.32117959348417
 20
19.377632306724415
 10
47.82056460990912
 20
19.709666891797106
 10
48.31804269750173
 20
20.040610546522803
 10
48.813876642658755
 20
20.37059120918799
 10
49.30773968984021
 20
20.699612334704558
 10
49.800015653905525
 20
21.026885563882267
 10
50.290573141656346
 20
21.35234692757788
 10
50.77929112462994
 20
21.676912723268103
 10
51.265711454088
 20
22.00052243672161
 10
51.75060866957316
 20
22.32225286063788
 10
52.23365601554546
 20
22.64210744992882
 10
52.71459761543193
 20
22.96061177738791
 10
53.193433469232524
 20
23.277765843015136
 10
53.670227546090565
 20
23.593438253612156
 10
54.14529969172219
 20
23.90697204318709
 10
54.618259181444216
 20
24.218502059850206
 10
55.08917689422365
 20
24.5285504214831
 10
55.55779004366373
 20
24.836989189799286
 10
56.02422656805097
 20
25.143555578402033
 10
56.488614405671825
 20
25.447986800894583
 10
56.950825618239826
 20
25.750545643673682
 10
57.410728812556584
 20
26.051168137596086
 10
57.86858332010699
 20
26.349655465408308
 10
58.324126354494275
 20
26.64587968882386
 10
58.777297401487075
 20
26.940298956581085
 10
59.227833674688675
 20
27.232785330393508
 10
59.67625729198066
 20
27.52326793129411
 10
60.122170618856025
 20
27.811228096313187
 10
60.565836441711525
 20
28.096793763737224
 10
61.00719079140389
 20
28.380096326764576
 10
61.4458429432499
 20
28.66127063350551
 10
61.881856866392845
 20
28.940185290761672
 10
62.31555931637265
 20
29.21683684362115
 10
62.74662008273747
 20
29.490901991455857
 10
63.17529849697216
 20
29.762181917012292
 10
63.60127125844861
 20
30.03100683074233
 10
64.02460579122196
 20
30.297572094987583
 10
64.44523467123707
 20
30.56168234740643
 10
64.86315789849395
 20
30.823337587998882
 10
65.27843598722397
 20
31.08207966802658
 10
65.69100842319575
 20
31.338366736227876
 10
66.1006763891558
 20
31.591939461117914
 10
66.50744334001598
 20
31.843124598236688
 10
66.91150118320603
 20
32.09152796798907
 10
67.31278249467086
 20
32.33695420803347
 10
67.71109536698071
 20
32.57979749796497
 10
68.10643980013559
 20
32.8200578377836
 10
68.49881579413548
 20
33.05773522748934
 10
68.88808850087014
 20
33.29243894239898
 10
69.2746486450228
 20
33.52403413440225
 10
69.65804498767886
 20
33.75311380034776
 10
70.03821010478319
 20
33.9794825778939
 10
70.4152753895342
 20
34.203204436183924
 10
70.78923738701995
 20
34.42395261967783
 10
71.15990073489884
 20
34.64179455243077
 10
71.52746425042439
 20
34.85698956592757
 10
71.8918570546296
 20
35.069015542286664
 10
72.25295120922793
 20
35.27813526790478
 10
72.61081068336267
 20
35.48421734958353
 10
72.96524356960408
 20
35.687655966918065
 10
73.31637780623862
 20
35.8881883335116
 10
73.66408200006795
 20
36.08575048022092
 10
74.00842012023531
 20
36.28021101384766
 10
74.3494595907958
 20
36.4717652967334
 10
74.68687365620947
 20
36.660416783790076
 10
75.0206623164763
 20
36.84616547501764
 10
75.35102093393792
 20
37.028943946361
 10
75.67801347773755
 20
37.20862080462176
 10
76.00118525404875
 20
37.38546229110857
 10
76.32066765606983
 20
37.55953237496464
 10
76.63665259123059
 20
37.730436876594894
 10
76.94894469718939
 20
37.89824322005444
 10
77.25741603565972
 20
38.063214191740016
 10
77.56232593812648
 20
38.22515097439815
 10
77.86347558733613
 20
38.38379423654395
 10
78.16086843820057
 20
38.53947073371743
 10
78.45444052157657
 20
38.692311859116934
 10
78.74406044426576
 20
38.84225364359926
 10
79.02985614455461
 20
38.98903330076763
 10
79.31176365329985
 20
39.13278222382041
 10
79.58965503221506
 20
39.27376319915438
 10
79.86359425044346
 20
39.41184483357116
 10
80.13357785307313
 20
39.54670037153074
 10
80.3996058401041
 20
39.67832981303312
 10
80.66155372816175
 20
39.80732270001506
 10
80.91935409319096
 20
39.93348367013492
 10
81.17300693519178
 20
40.05681272339271
 10
81.42257622330739
 20
40.177178466590064
 10
81.66793056433941
 20
40.29451693058372
 10
81.90920135148625
 20
40.40889208451693
 10
82.14612925326306
 20
40.52050274564322
 10
82.3788422079563
 20
40.62908612756581
 10
82.6072122772795
 20
40.73490501668147
 10
82.83149879271751
 20
40.83776059573669
 10
83.05131102958708
 20
40.93778771284171
 10
83.26671641194338
 20
41.03518173033817
 10
83.47764751573125
 20
41.12974728588444
 10
83.68429970329233
 20
41.22141695542542
 10
83.88641364314175
 20
41.310389556214574
 10
84.08424866676434
 20
41.3964662709984
 10
84.2773500803337
 20
41.47991334108558
 10
84.46604463938974
 20
41.56072731156417
 10
84.65006955753573
 20
41.6387802441477
 10
84.8295562279701
 20
41.714136107979435
 10
85.00450465069277
 20
41.78679490305935
 10
85.17485085656058
 20
41.85688802258583
 10
85.34052742151833
 20
41.92422010421725
 10
85.5014064072796
 20
41.98905393435038
 10
85.65768317618594
 20
42.05132208893006
 10
85.80916236589577
 20
42.11109199201143
 10
85.95590794555233
 20
42.16823225039613
 10
86.09785594601236
 20
42.22287425728249
 10
86.23507033641913
 20
42.274886619472205
 10
86.3674871476294
 20
42.32440073016361
 10
86.49497844135666
 20
42.37167937575343
 10
86.61754076268902
 20
42.41639580070171
 10
86.73537292888001
 20
42.45880933649329
 10
86.84801679119127
 20
42.49885946889683
 10
86.95593049836108
 20
42.53660671214366
 10
87.05885126399285
 20
42.571923127947336
 10
87.15665114979996
 20
42.605071502704554
 10
87.24952551812407
 20
42.635984412360216
 10
87.33734297576683
 20
42.66459788777107
 10
87.41997558444174
 20
42.691174715333865
 10
87.49768267563365
 20
42.7155160777951
 10
87.57020491785768
 20
42.73782079240825
 10
87.63760628025713
 20
42.75795746597498
 10
87.69975882454547
 20
42.77618888489203
 10
87.75672651986598
 20
42.792383655961004
 10
87.80857679027375
 20
42.80673714152353
 10
87.85504684937204
 20
42.81912140329312
 10
87.89620412121604
 20
42.8297318036114
 10
87.93217999900403
 20
42.83863231162159
 10
87.96271169633931
 20
42.84569498903723
 10
87.98780266813378
 20
42.85124659139828
 10
88.00764827672907
 20
42.855219694649634
 10
88.02185779744191
 20
42.85774914690154
 10
88.03049865432746
 20
42.859030310495626
 10
88.03344290909922
 20
42.85932597182861
  0
ENDSEC
  0
SECTION
  2
OBJECTS
  0
DICTIONARY
  5
A
330
0
100
AcDbDictionary
280
0
281
1
  3
ACAD_COLOR
350
B
  3
ACAD_GROUP
350
C
  3
ACAD_LAYOUT
350
D
  3
ACAD_MATERIAL
350
E
  3
ACAD_MLEADERSTYLE
350
F
  3
ACAD_MLINESTYLE
350
10
  3
ACAD_PLOTSETTINGS
350
11
  3
ACAD_PLOTSTYLENAME
350
12
  3
ACAD_SCALELIST
350
14
  3
ACAD_TABLESTYLE
350
15
  3
ACAD_VISUALSTYLE
350
16
  3
EZDXF_META
350
2D
  0
DICTIONARY
  5
B
330
A
100
AcDbDictionary
280
0
281
1
  0
DICTIONARY
  5
C
330
A
100
AcDbDictionary
280
0
281
1
  0
DICTIONARY
  5
D
330
A
100
AcDbDictionary
280
0
281
1
  3
Model
350
1A
  3
Layout1
350
1E
  0
DICTIONARY
  5
E
330
A
100
AcDbDictionary
280
0
281
1
  3
ByBlock
350
1F
  3
ByLayer
350
20
  3
Global
350
21
  0
DICTIONARY
  5
F
330
A
100
AcDbDictionary
280
0
281
1
  3
Standard
350
2C
  0
DICTIONARY
  5
10
330
A
100
AcDbDictionary
280
0
281
1
  3
Standard
350
22
  0
DICTIONARY
  5
11
330
A
100
AcDbDictionary
280
0
281
1
  0
ACDBDICTIONARYWDFLT
  5
12
330
A
100
AcDbDictionary
280
0
281
1
  3
Normal
350
13
100
AcDbDictionaryWithDefault
340
13
  0
ACDBPLACEHOLDER
  5
13
330
12
  0
DICTIONARY
  5
14
330
A
100
AcDbDictionary
280
0
281
1
  0
DICTIONARY
  5
15
330
A
100
AcDbDictionary
280
0
281
1
  0
DICTIONARY
  5
16
330
A
100
AcDbDictionary
280
0
281
1
  0
LAYOUT
  5
1A
330
D
100
AcDbPlotSettings
  1

  4
A3
  6

 40
7.5
 41
20.0
 42
7.5
 43
20.0
 44
420.0
 45
297.0
 46
0.0
 47
0.0
 48
0.0
 49
0.0
140
0.0
141
0.0
142
1.0
143
1.0
 70
1024
 72
1
 73
0
 74
5
  7

 75
16
 76
0
 77
2
 78
300
147
1.0
148
0.0
149
0.0
100
AcDbLayout
  1
Model
 70
1
 71
0
 10
0.0
 20
0.0
 11
420.0
 21
297.0
 12
0.0
 22
0.0
 32
0.0
 14
1e+20
 24
1e+20
 34
1e+20
 15
-1e+20
 25
-1e+20
 35
-1e+20
146
0.0
 13
0.0
 23
0.0
 33
0.0
 16
1.0
 26
0.0
 36
0.0
 17
0.0
 27
1.0
 37
0.0
 76
1
330
17
  0
LAYOUT
  5
1E
330
D
100
AcDbPlotSettings
  1

  4
A3
  6

 40
7.5
 41
20.0
 42
7.5
 43
20.0
 44
420.0
 45
297.0
 46
0.0
 47
0.0
 48
0.0
 49
0.0
140
0.0
141
0.0
142
1.0
143
1.0
 70
0
 72
1
 73
0
 74
5
  7

 75
16
 76
0
 77
2
 78
300
147
1.0
148
0.0
149
0.0
100
AcDbLayout
  1
Layout1
 70
1
 71
1
 10
0.0
 20
0.0
 11
420.0
 21
297.0
 12
0.0
 22
0.0
 32
0.0
 14
1e+20
 24
1e+20
 34
1e+20
 15
-1e+20
 25
-1e+20
 35
-1e+20
146
0.0
 13
0.0
 23
0.0
 33
0.0
 16
1.0
 26
0.0
 36
0.0
 17
0.0
 27
1.0
 37
0.0
 76
1
330
1B
  0
MATERIAL
  5
1F
102
{ACAD_REACTORS
330
E
102
}
330
E
100
AcDbMaterial
  1
ByBlock
  2

 70
0
 40
1.0
 71
1
 41
1.0
 91
-1023410177
 42
1.0
 72
1
  3

 73
1
 74
1
 75
1
 44
0.5
 73
0
 45
1.0
 46
1.0
 77
1
  4

 78
1
 79
1
170
1
 48
1.0
171
1
  6

172
1
173
1
174
1
140
1.0
141
1.0
175
1
  7

176
1
177
1
178
1
143
1.0
179
1
  8

270
1
271
1
272
1
145
1.0
146
1.0
273
1
  9

274
1
275
1
276
1
 42
1.0
 72
1
  3

 73
1
 74
1
 75
1
 94
63
  0
MATERIAL
  5
20
102
{ACAD_REACTORS
330
E
102
}
330
E
100
AcDbMaterial
  1
ByLayer
  2

 70
0
 40
1.0
 71
1
 41
1.0
 91
-1023410177
 42
1.0
 72
1
  3

 73
1
 74
1
 75
1
 44
0.5
 73
0
 45
1.0
 46
1.0
 77
1
  4

 78
1
 79
1
170
1
 48
1.0
171
1
  6

172
1
173
1
174
1
140
1.0
141
1.0
175
1
  7

176
1
177
1
178
1
143
1.0
179
1
  8

270
1
271
1
272
1
145
1.0
146
1.0
273
1
  9

274
1
275
1
276
1
 42
1.0
 72
1
  3

 73
1
 74
1
 75
1
 94
63
  0
MATERIAL
  5
21
102
{ACAD_REACTORS
330
E
102
}
330
E
100
AcDbMaterial
  1
Global
  2

 70
0
 40
1.0
 71
1
 41
1.0
 91
-1023410177
 42
1.0
 72
1
  3

 73
1
 74
1
 75
1
 44
0.5
 73
0
 45
1.0
 46
1.0
 77
1
  4

 78
1
 79
1
170
1
 48
1.0
171
1
  6

172
1
173
1
174
1
140
1.0
141
1.0
175
1
  7

176
1
177
1
178
1
143
1.0
179
1
  8

270
1
271
1
272
1
145
1.0
146
1.0
273
1
  9

274
1
275
1
276
1
 42
1.0
 72
1
  3

 73
1
 74
1
 75
1
 94
63
  0
MLINESTYLE
  5
22
102
{ACAD_REACTORS
330
10
102
}
330
10
100
AcDbMlineStyle
  2
Standard
 70
0
  3

 62
256
 51
90.0
 52
90.0
 71
2
 49
0.5
 62
256
  6
BYLAYER
 49
-0.5
 62
256
  6
BYLAYER
  0
MLEADERSTYLE
  5
2C
102
{ACAD_REACTORS
330
F
102
}
330
F
100
AcDbMLeaderStyle
179
2
170
2
171
1
172
0
 90
2
 40
0.0
 41
0.0
173
1
 91
-1056964608
 92
-2
290
1
 42
2.0
291
1
 43
8.0
  3
Standard
 44
4.0
300

342
29
174
1
175
1
176
0
178
1
 93
-1056964608
 45
4.0
292
0
297
0
 46
4.0
 94
-1056964608
 47
1.0
 49
1.0
140
1.0
294
1
141
0.0
177
0
142
1.0
295
0
296
0
143
3.75
271
0
272
9
273
9
  0
DICTIONARY
  5
2D
330
A
100
AcDbDictionary
280
1
281
1
  3
CREATED_BY_EZDXF
350
2E
  3
WRITTEN_BY_EZDXF
350
32
  0
DICTIONARYVAR
  5
2E
330
2D
100
DictionaryVariables
280
0
  1
1.3.5 @ 2025-08-20T01:05:13.337758+00:00
  0
DICTIONARYVAR
  5
32
330
2D
100
DictionaryVariables
280
0
  1
1.3.5 @ 2025-08-20T01:05:13.343741+00:00
  0
ENDSEC
  0
EOF
