  0
SECTION
  2
HEADER
  9
$ACADVER
  1
AC1032
  9
$ACADMAINTVER
 90
4
  9
$DWGCODEPAGE
  3
ANSI_1252
  9
$LASTSAVEDBY
  1
ezdxf
  9
$REQUIREDVERSIONS
160
0
  9
$INSBASE
 10
0.0
 20
0.0
 30
0.0
  9
$EXTMIN
 10
1e+20
 20
1e+20
 30
1e+20
  9
$EXTMAX
 10
-1e+20
 20
-1e+20
 30
-1e+20
  9
$LIMMIN
 10
0.0
 20
0.0
  9
$LIMMAX
 10
420.0
 20
297.0
  9
$ORTHOMODE
 70
0
  9
$REGENMODE
 70
1
  9
$FILLMODE
 70
1
  9
$QTEXTMODE
 70
0
  9
$MIRRTEXT
 70
1
  9
$LTSCALE
 40
1.0
  9
$ATTMODE
 70
1
  9
$TEXTSIZE
 40
2.5
  9
$TRACEWID
 40
1.0
  9
$TEXTSTYLE
  7
Standard
  9
$CLAYER
  8
0
  9
$CELTYPE
  6
ByLayer
  9
$CECOLOR
 62
256
  9
$CELTSCALE
 40
1.0
  9
$DISPSILH
 70
0
  9
$DIMSCALE
 40
1.0
  9
$DIMASZ
 40
2.5
  9
$DIMEXO
 40
0.625
  9
$DIMDLI
 40
3.75
  9
$DIMRND
 40
0.0
  9
$DIMDLE
 40
0.0
  9
$DIMEXE
 40
1.25
  9
$DIMTP
 40
0.0
  9
$DIMTM
 40
0.0
  9
$DIMTXT
 40
2.5
  9
$DIMCEN
 40
2.5
  9
$DIMTSZ
 40
0.0
  9
$DIMTOL
 70
0
  9
$DIMLIM
 70
0
  9
$DIMTIH
 70
0
  9
$DIMTOH
 70
0
  9
$DIMSE1
 70
0
  9
$DIMSE2
 70
0
  9
$DIMTAD
 70
1
  9
$DIMZIN
 70
8
  9
$DIMBLK
  1

  9
$DIMASO
 70
1
  9
$DIMSHO
 70
1
  9
$DIMPOST
  1

  9
$DIMAPOST
  1

  9
$DIMALT
 70
0
  9
$DIMALTD
 70
3
  9
$DIMALTF
 40
0.03937007874
  9
$DIMLFAC
 40
1.0
  9
$DIMTOFL
 70
1
  9
$DIMTVP
 40
0.0
  9
$DIMTIX
 70
0
  9
$DIMSOXD
 70
0
  9
$DIMSAH
 70
0
  9
$DIMBLK1
  1

  9
$DIMBLK2
  1

  9
$DIMSTYLE
  2
ISO-25
  9
$DIMCLRD
 70
0
  9
$DIMCLRE
 70
0
  9
$DIMCLRT
 70
0
  9
$DIMTFAC
 40
1.0
  9
$DIMGAP
 40
0.625
  9
$DIMJUST
 70
0
  9
$DIMSD1
 70
0
  9
$DIMSD2
 70
0
  9
$DIMTOLJ
 70
0
  9
$DIMTZIN
 70
8
  9
$DIMALTZ
 70
0
  9
$DIMALTTZ
 70
0
  9
$DIMUPT
 70
0
  9
$DIMDEC
 70
2
  9
$DIMTDEC
 70
2
  9
$DIMALTU
 70
2
  9
$DIMALTTD
 70
3
  9
$DIMTXSTY
  7
Standard
  9
$DIMAUNIT
 70
0
  9
$DIMADEC
 70
0
  9
$DIMALTRND
 40
0.0
  9
$DIMAZIN
 70
0
  9
$DIMDSEP
 70
44
  9
$DIMATFIT
 70
3
  9
$DIMFRAC
 70
0
  9
$DIMLDRBLK
  1

  9
$DIMLUNIT
 70
2
  9
$DIMLWD
 70
-2
  9
$DIMLWE
 70
-2
  9
$DIMTMOVE
 70
0
  9
$DIMFXL
 40
1.0
  9
$DIMFXLON
 70
0
  9
$DIMJOGANG
 40
0.785398163397
  9
$DIMTFILL
 70
0
  9
$DIMTFILLCLR
 70
0
  9
$DIMARCSYM
 70
0
  9
$DIMLTYPE
  6

  9
$DIMLTEX1
  6

  9
$DIMLTEX2
  6

  9
$DIMTXTDIRECTION
 70
0
  9
$LUNITS
 70
2
  9
$LUPREC
 70
4
  9
$SKETCHINC
 40
1.0
  9
$FILLETRAD
 40
10.0
  9
$AUNITS
 70
0
  9
$AUPREC
 70
2
  9
$MENU
  1
.
  9
$ELEVATION
 40
0.0
  9
$PELEVATION
 40
0.0
  9
$THICKNESS
 40
0.0
  9
$LIMCHECK
 70
0
  9
$CHAMFERA
 40
0.0
  9
$CHAMFERB
 40
0.0
  9
$CHAMFERC
 40
0.0
  9
$CHAMFERD
 40
0.0
  9
$SKPOLY
 70
0
  9
$TDCREATE
 40
2460908.0869675926
  9
$TDUCREATE
 40
2458532.153996898
  9
$TDUPDATE
 40
2460908.0869675926
  9
$TDUUPDATE
 40
2458532.1544311
  9
$TDINDWG
 40
0.0
  9
$TDUSRTIMER
 40
0.0
  9
$USRTIMER
 70
1
  9
$ANGBASE
 50
0.0
  9
$ANGDIR
 70
0
  9
$PDMODE
 70
0
  9
$PDSIZE
 40
0.0
  9
$PLINEWID
 40
0.0
  9
$SPLFRAME
 70
0
  9
$SPLINETYPE
 70
6
  9
$SPLINESEGS
 70
8
  9
$HANDSEED
  5
33
  9
$SURFTAB1
 70
6
  9
$SURFTAB2
 70
6
  9
$SURFTYPE
 70
6
  9
$SURFU
 70
6
  9
$SURFV
 70
6
  9
$UCSBASE
  2

  9
$UCSNAME
  2

  9
$UCSORG
 10
0.0
 20
0.0
 30
0.0
  9
$UCSXDIR
 10
1.0
 20
0.0
 30
0.0
  9
$UCSYDIR
 10
0.0
 20
1.0
 30
0.0
  9
$UCSORTHOREF
  2

  9
$UCSORTHOVIEW
 70
0
  9
$UCSORGTOP
 10
0.0
 20
0.0
 30
0.0
  9
$UCSORGBOTTOM
 10
0.0
 20
0.0
 30
0.0
  9
$UCSORGLEFT
 10
0.0
 20
0.0
 30
0.0
  9
$UCSORGRIGHT
 10
0.0
 20
0.0
 30
0.0
  9
$UCSORGFRONT
 10
0.0
 20
0.0
 30
0.0
  9
$UCSORGBACK
 10
0.0
 20
0.0
 30
0.0
  9
$PUCSBASE
  2

  9
$PUCSNAME
  2

  9
$PUCSORG
 10
0.0
 20
0.0
 30
0.0
  9
$PUCSXDIR
 10
1.0
 20
0.0
 30
0.0
  9
$PUCSYDIR
 10
0.0
 20
1.0
 30
0.0
  9
$PUCSORTHOREF
  2

  9
$PUCSORTHOVIEW
 70
0
  9
$PUCSORGTOP
 10
0.0
 20
0.0
 30
0.0
  9
$PUCSORGBOTTOM
 10
0.0
 20
0.0
 30
0.0
  9
$PUCSORGLEFT
 10
0.0
 20
0.0
 30
0.0
  9
$PUCSORGRIGHT
 10
0.0
 20
0.0
 30
0.0
  9
$PUCSORGFRONT
 10
0.0
 20
0.0
 30
0.0
  9
$PUCSORGBACK
 10
0.0
 20
0.0
 30
0.0
  9
$USERI1
 70
0
  9
$USERI2
 70
0
  9
$USERI3
 70
0
  9
$USERI4
 70
0
  9
$USERI5
 70
0
  9
$USERR1
 40
0.0
  9
$USERR2
 40
0.0
  9
$USERR3
 40
0.0
  9
$USERR4
 40
0.0
  9
$USERR5
 40
0.0
  9
$WORLDVIEW
 70
1
  9
$SHADEDGE
 70
3
  9
$SHADEDIF
 70
70
  9
$TILEMODE
 70
1
  9
$MAXACTVP
 70
64
  9
$PINSBASE
 10
0.0
 20
0.0
 30
0.0
  9
$PLIMCHECK
 70
0
  9
$PEXTMIN
 10
1e+20
 20
1e+20
 30
1e+20
  9
$PEXTMAX
 10
-1e+20
 20
-1e+20
 30
-1e+20
  9
$PLIMMIN
 10
0.0
 20
0.0
  9
$PLIMMAX
 10
420.0
 20
297.0
  9
$UNITMODE
 70
0
  9
$VISRETAIN
 70
1
  9
$PLINEGEN
 70
0
  9
$PSLTSCALE
 70
1
  9
$TREEDEPTH
 70
3020
  9
$CMLSTYLE
  2
Standard
  9
$CMLJUST
 70
0
  9
$CMLSCALE
 40
20.0
  9
$PROXYGRAPHICS
 70
1
  9
$MEASUREMENT
 70
1
  9
$CELWEIGHT
370
-1
  9
$ENDCAPS
280
0
  9
$JOINSTYLE
280
0
  9
$LWDISPLAY
290
0
  9
$INSUNITS
 70
6
  9
$HYPERLINKBASE
  1

  9
$STYLESHEET
  1

  9
$XEDIT
290
1
  9
$CEPSNTYPE
380
0
  9
$PSTYLEMODE
290
1
  9
$FINGERPRINTGUID
  2
{77C2D8D3-BA26-4F4E-9DF8-15B8365AE5B4}
  9
$VERSIONGUID
  2
{A6E4D06F-95F6-40A2-A946-EEBBF23277DF}
  9
$EXTNAMES
290
1
  9
$PSVPSCALE
 40
0.0
  9
$OLESTARTUP
290
0
  9
$SORTENTS
280
127
  9
$INDEXCTL
280
0
  9
$HIDETEXT
280
1
  9
$XCLIPFRAME
280
1
  9
$HALOGAP
280
0
  9
$OBSCOLOR
 70
257
  9
$OBSLTYPE
280
0
  9
$INTERSECTIONDISPLAY
280
0
  9
$INTERSECTIONCOLOR
 70
257
  9
$DIMASSOC
280
2
  9
$PROJECTNAME
  1

  9
$CAMERADISPLAY
290
0
  9
$LENSLENGTH
 40
50.0
  9
$CAMERAHEIGHT
 40
0.0
  9
$STEPSPERSEC
 40
24.0
  9
$STEPSIZE
 40
100.0
  9
$3DDWFPREC
 40
2.0
  9
$PSOLWIDTH
 40
0.005
  9
$PSOLHEIGHT
 40
0.08
  9
$LOFTANG1
 40
1.570796326795
  9
$LOFTANG2
 40
1.570796326795
  9
$LOFTMAG1
 40
0.0
  9
$LOFTMAG2
 40
0.0
  9
$LOFTPARAM
 70
7
  9
$LOFTNORMALS
280
1
  9
$LATITUDE
 40
37.795
  9
$LONGITUDE
 40
-122.394
  9
$NORTHDIRECTION
 40
0.0
  9
$TIMEZONE
 70
-8000
  9
$LIGHTGLYPHDISPLAY
280
1
  9
$TILEMODELIGHTSYNCH
280
1
  9
$CMATERIAL
347
20
  9
$SOLIDHIST
280
0
  9
$SHOWHIST
280
1
  9
$DWFFRAME
280
2
  9
$DGNFRAME
280
2
  9
$REALWORLDSCALE
290
1
  9
$INTERFERECOLOR
 62
256
  9
$CSHADOW
280
0
  9
$SHADOWPLANELOCATION
 40
0.0
  0
ENDSEC
  0
SECTION
  2
CLASSES
  0
CLASS
  1
ACDBDICTIONARYWDFLT
  2
AcDbDictionaryWithDefault
  3
ObjectDBX Classes
 90
0
 91
0
280
0
281
0
  0
CLASS
  1
SUN
  2
AcDbSun
  3
SCENEOE
 90
1153
 91
0
280
0
281
0
  0
CLASS
  1
VISUALSTYLE
  2
AcDbVisualStyle
  3
ObjectDBX Classes
 90
4095
 91
0
280
0
281
0
  0
CLASS
  1
MATERIAL
  2
AcDbMaterial
  3
ObjectDBX Classes
 90
1153
 91
0
280
0
281
0
  0
CLASS
  1
SCALE
  2
AcDbScale
  3
ObjectDBX Classes
 90
1153
 91
0
280
0
281
0
  0
CLASS
  1
TABLESTYLE
  2
AcDbTableStyle
  3
ObjectDBX Classes
 90
4095
 91
0
280
0
281
0
  0
CLASS
  1
MLEADERSTYLE
  2
AcDbMLeaderStyle
  3
ACDB_MLEADERSTYLE_CLASS
 90
4095
 91
0
280
0
281
0
  0
CLASS
  1
DICTIONARYVAR
  2
AcDbDictionaryVar
  3
ObjectDBX Classes
 90
0
 91
0
280
0
281
0
  0
CLASS
  1
CELLSTYLEMAP
  2
AcDbCellStyleMap
  3
ObjectDBX Classes
 90
1152
 91
0
280
0
281
0
  0
CLASS
  1
MENTALRAYRENDERSETTINGS
  2
AcDbMentalRayRenderSettings
  3
SCENEOE
 90
1024
 91
0
280
0
281
0
  0
CLASS
  1
ACDBDETAILVIEWSTYLE
  2
AcDbDetailViewStyle
  3
ObjectDBX Classes
 90
1025
 91
0
280
0
281
0
  0
CLASS
  1
ACDBSECTIONVIEWSTYLE
  2
AcDbSectionViewStyle
  3
ObjectDBX Classes
 90
1025
 91
0
280
0
281
0
  0
CLASS
  1
RASTERVARIABLES
  2
AcDbRasterVariables
  3
ISM
 90
0
 91
0
280
0
281
0
  0
CLASS
  1
LAYOUT
  2
AcDbLayout
  3
ObjectDBX Classes
 90
0
 91
0
280
0
281
0
  0
CLASS
  1
ACDBPLACEHOLDER
  2
AcDbPlaceHolder
  3
ObjectDBX Classes
 90
0
 91
0
280
0
281
0
  0
ENDSEC
  0
SECTION
  2
TABLES
  0
TABLE
  2
VPORT
  5
8
330
0
100
AcDbSymbolTable
 70
1
  0
VPORT
  5
23
330
8
100
AcDbSymbolTableRecord
100
AcDbViewportTableRecord
  2
*Active
 70
0
 10
0.0
 20
0.0
 11
1.0
 21
1.0
 12
0.0
 22
0.0
 13
0.0
 23
0.0
 14
0.5
 24
0.5
 15
0.5
 25
0.5
 16
0.0
 26
0.0
 36
1.0
 17
0.0
 27
0.0
 37
0.0
 40
1000.0
 41
1.34
 42
50.0
 43
0.0
 44
0.0
 50
0.0
 51
0.0
 71
0
 72
1000
 73
1
 74
3
 75
0
 76
0
 77
0
 78
0
281
0
 65
0
146
0.0
  0
ENDTAB
  0
TABLE
  2
LTYPE
  5
2
330
0
100
AcDbSymbolTable
 70
3
  0
LTYPE
  5
24
330
2
100
AcDbSymbolTableRecord
100
AcDbLinetypeTableRecord
  2
ByBlock
 70
0
  3

 72
65
 73
0
 40
0.0
  0
LTYPE
  5
25
330
2
100
AcDbSymbolTableRecord
100
AcDbLinetypeTableRecord
  2
ByLayer
 70
0
  3

 72
65
 73
0
 40
0.0
  0
LTYPE
  5
26
330
2
100
AcDbSymbolTableRecord
100
AcDbLinetypeTableRecord
  2
Continuous
 70
0
  3

 72
65
 73
0
 40
0.0
  0
ENDTAB
  0
TABLE
  2
LAYER
  5
1
330
0
100
AcDbSymbolTable
 70
2
  0
LAYER
  5
27
330
1
100
AcDbSymbolTableRecord
100
AcDbLayerTableRecord
  2
0
 70
0
 62
7
  6
Continuous
370
-3
390
13
347
21
  0
LAYER
  5
28
330
1
100
AcDbSymbolTableRecord
100
AcDbLayerTableRecord
  2
Defpoints
 70
0
 62
7
  6
Continuous
290
0
370
-3
390
13
347
21
  0
ENDTAB
  0
TABLE
  2
STYLE
  5
5
330
0
100
AcDbSymbolTable
 70
1
  0
STYLE
  5
29
330
5
100
AcDbSymbolTableRecord
100
AcDbTextStyleTableRecord
  2
Standard
 70
0
 40
0.0
 41
1.0
 50
0.0
 71
0
 42
2.5
  3
txt
  4

  0
ENDTAB
  0
TABLE
  2
VIEW
  5
7
330
0
100
AcDbSymbolTable
 70
0
  0
ENDTAB
  0
TABLE
  2
UCS
  5
6
330
0
100
AcDbSymbolTable
 70
0
  0
ENDTAB
  0
TABLE
  2
APPID
  5
3
330
0
100
AcDbSymbolTable
 70
3
  0
APPID
  5
2A
330
3
100
AcDbSymbolTableRecord
100
AcDbRegAppTableRecord
  2
ACAD
 70
0
  0
APPID
  5
30
330
3
100
AcDbSymbolTableRecord
100
AcDbRegAppTableRecord
  2
HATCHBACKGROUNDCOLOR
 70
0
  0
APPID
  5
31
330
3
100
AcDbSymbolTableRecord
100
AcDbRegAppTableRecord
  2
EZDXF
 70
0
  0
ENDTAB
  0
TABLE
  2
DIMSTYLE
  5
4
330
0
100
AcDbSymbolTable
 70
1
100
AcDbDimStyleTable
  0
DIMSTYLE
105
2B
330
4
100
AcDbSymbolTableRecord
100
AcDbDimStyleTableRecord
  2
Standard
 70
0
 40
1.0
 41
2.5
 42
0.625
 43
3.75
 44
1.25
 45
0.0
 46
0.0
 47
0.0
 48
0.0
 49
2.5
140
2.5
141
2.5
142
0.0
143
0.03937007874
144
1.0
145
0.0
146
1.0
147
0.625
148
0.0
 69
0
 70
0
 71
0
 72
0
 73
0
 74
0
 75
0
 76
0
 77
1
 78
8
 79
3
170
0
171
3
172
1
173
0
174
0
175
0
176
0
177
0
178
0
179
2
271
2
272
2
273
2
274
3
275
0
276
0
277
2
278
44
279
0
280
0
281
0
282
0
283
0
284
8
285
0
286
0
288
0
289
3
290
0
371
-2
372
-2
  0
ENDTAB
  0
TABLE
  2
BLOCK_RECORD
  5
9
330
0
100
AcDbSymbolTable
 70
2
  0
BLOCK_RECORD
  5
17
330
9
100
AcDbSymbolTableRecord
100
AcDbBlockTableRecord
  2
*Model_Space
340
1A
 70
0
280
1
281
0
  0
BLOCK_RECORD
  5
1B
330
9
100
AcDbSymbolTableRecord
100
AcDbBlockTableRecord
  2
*Paper_Space
340
1E
 70
0
280
1
281
0
  0
ENDTAB
  0
ENDSEC
  0
SECTION
  2
BLOCKS
  0
BLOCK
  5
18
330
17
100
AcDbEntity
  8
0
100
AcDbBlockBegin
  2
*Model_Space
 70
0
 10
0.0
 20
0.0
 30
0.0
  3
*Model_Space
  1

  0
ENDBLK
  5
19
330
17
100
AcDbEntity
  8
0
100
AcDbBlockEnd
  0
BLOCK
  5
1C
330
1B
100
AcDbEntity
  8
0
100
AcDbBlockBegin
  2
*Paper_Space
 70
0
 10
0.0
 20
0.0
 30
0.0
  3
*Paper_Space
  1

  0
ENDBLK
  5
1D
330
1B
100
AcDbEntity
  8
0
100
AcDbBlockEnd
  0
ENDSEC
  0
SECTION
  2
ENTITIES
  0
LWPOLYLINE
  5
2F
330
17
100
AcDbEntity
  8
0
100
AcDbPolyline
 90
721
 70
1
 10
39.03832804285859
 20
1.551051540367059
 10
39.037204780778595
 20
1.5514154184521831
 10
39.033839624543205
 20
1.5523905203850388
 10
39.02824183416162
 20
1.5537437815205943
 10
39.02034851346799
 20
1.555589419179067
 10
39.0102831397917
 20
1.5577572648812805
 10
38.99798513196923
 20
1.5603032697861936
 10
38.98339853884162
 20
1.56316685273025
 10
38.96663989273134
 20
1.5663526437180468
 10
38.94765324247949
 20
1.5698000615860284
 10
38.926375691920164
 20
1.57362332365441
 10
38.9029284033805
 20
1.5777105276052745
 10
38.87725311069924
 20
1.5820593584363232
 10
38.84934749887409
 20
1.5867280823088137
 10
38.81921619790963
 20
1.59160016690023
 10
38.78685457780127
 20
1.5967921445330886
 10
38.75232321971258
 20
1.6022480640484293
 10
38.71556385748229
 20
1.6079656104439548
 10
38.6765741761081
 20
1.6140030498809215
 10
38.63541707175587
 20
1.6202461650391136
 10
38.592029648259754
 20
1.6268091732387475
 10
38.54641653562434
 20
1.6335755421573077
 10
38.49868963616751
 20
1.6406664341219066
 10
38.44867646640786
 20
1.6480166379643915
 10
38.39655182482911
 20
1.6556330986916579
 10
38.34219917910877
 20
1.6635111862991083
 10
38.28567679540809
 20
1.671653215789042
 10
38.22698467372706
 20
1.6800591871614585
 10
38.166120499063396
 20
1.6887873665776156
 10
38.103084271417096
 20
1.6978377540375134
 10
38.037880620792755
 20
1.7070938172186367
 10
37.97050491718577
 20
1.716672088443501
 10
37.901017741759695
 20
1.726516616553147
 10
37.82935851335101
 20
1.7366833527065337
 10
37.75553186196424
 20
1.7470557645811458
 10
37.67959142375612
 20
1.7577526995017974
 10
37.601534883724305
 20
1.768832423629747
 10
37.521369186875724
 20
1.7801201384812217
 10
37.4390314370445
 20
1.7917300613764364
 10
37.35464048155544
 20
1.8036085561587325
 10
37.26807747308376
 20
1.8158092589847692
 10
37.17945894395192
 20
1.8283367998591449
 10
37.08872662799873
 20
1.8411888637795608
 10
36.99593879138541
 20
1.8543677657483162
 10
36.90103948295301
 20
1.8678129246018529
 10
36.80408696886278
 20
1.8815266553424708
 10
36.70501835294886
 20
1.8956231752903867
 10
36.60395248253609
 20
1.9100488482889408
 10
36.5008310914632
 20
1.924801359335834
 10
36.39565417973018
 20
1.9398807084310663
 10
36.288421747337026
 20
1.9552868955746376
 10
36.17918974544273
 20
1.9710805019301048
 10
36.0679022228883
 20
1.9872009463339115
 10
35.954615130832686
 20
2.003708809949613
 10
35.83933078427823
 20
2.0205458266159546
 10
35.72205381322951
 20
2.037595464010417
 10
35.60283785384317
 20
2.054976569457817
 10
35.48162000995337
 20
2.0728033602783706
 10
35.358400281560115
 20
2.0910758364720787
 10
35.233243879831534
 20
2.109621514557466
 10
35.10614848976537
 20
2.1284986606957905
 10
34.97711411136158
 20
2.147707274887052
 10
34.84613379961329
 20
2.1674221556150246
 10
34.713219129532
 20
2.1873519720734187
 10
34.578423737274335
 20
2.2076155715870485
 10
34.44174530783803
 20
2.2282712203171724
 10
34.303123260059536
 20
2.2493748694227507
 10
34.16267644126364
 20
2.270872882747121
 10
34.02034890029141
 20
2.2927046791267283
 10
33.87614063714281
 20
2.3148702585615712
 10
33.73010528797454
 20
2.3374884683764656
 10
33.582252112795764
 20
2.3603262439263792
 10
33.43251821544063
 20
2.383497802531529
 10
33.281017813229376
 20
2.4070660403577713
 10
33.12775090616199
 20
2.4310309574051057
 10
32.972663858081816
 20
2.4552737063487178
 10
32.81575435398654
 20
2.4798525533498648
 10
32.6571389261987
 20
2.504772128413146
 10
32.49675467855242
 20
2.5301466488587767
 10
32.334608556054604
 20
2.5558013162029836
 10
32.17075882486652
 20
2.5817384454480656
 10
32.005205484988146
 20
2.607958036594024
 10
31.837943906414903
 20
2.634576621963373
 10
31.66897408914679
 20
2.6615942015561136
 10
31.49829834818611
 20
2.688952509210988
 10
31.326035530857666
 20
2.7165979087713352
 10
31.152066789836635
 20
2.7445840363938165
 10
30.976450391284285
 20
2.7729132070807294
 10
30.799251546368787
 20
2.8014129373506
 10
30.620409673926556
 20
2.8301391783623875
 10
30.439976095111977
 20
2.8592690436021644
 10
30.258009076086296
 20
2.8888048480722297
 10
30.074396714531602
 20
2.91862542944547
 10
29.889262487777287
 20
2.948560619242708
 10
29.70259713581419
 20
2.978843482108977
 10
29.51440297364457
 20
3.009415751883018
 10
29.324677686266167
 20
3.04033569472609
 10
29.133484169844806
 20
3.0714890933179753
 10
28.940822424380507
 20
3.1028759476586747
 10
28.746634183712
 20
3.134493942745888
 10
28.551033665159515
 20
3.166405974745473
 10
28.353962602561776
 20
3.1986097286551285
 10
28.15548389208466
 20
3.2309909871546396
 10
27.95559753372815
 20
3.2635497502440045
 10
27.754361793653498
 20
3.296288332925524
 10
27.551716090697173
 20
3.3292626863581556
 10
27.34771406101581
 20
3.362591657866715
 10
27.142304383455073
 20
3.396098133965129
 10
26.935659541496413
 20
3.4298473258215525
 10
26.727672262826527
 20
3.4636015387863566
 10
26.5183402324431
 20
3.4974190390207975
 10
26.307773037661768
 20
3.531479255013249
 10
26.095968363480214
 20
3.565840452924968
 10
25.882816622582844
 20
3.600323204267583
 10
25.66855550961926
 20
3.6348202367277733
 10
25.453012541108002
 20
3.6692663391373848
 10
25.236297304364683
 20
3.703840939984789
 10
25.018349218225758
 20
3.7385999904289453
 10
24.79928713001604
 20
3.7734898543131936
 10
24.579059718581153
 20
3.8083334181514608
 10
24.357720620077767
 20
3.8432495292685616
 10
24.13526520450128
 20
3.878354719987013
 10
23.911705046863194
 20
3.913357659500523
 10
23.6870424621658
 20
3.948200081647836
 10
23.461382407720127
 20
3.9831779472398385
 10
23.23461066620595
 20
4.018228360110676
 10
23.00684145494349
 20
4.053414216426202
 10
22.77808866394655
 20
4.088385919218872
 10
22.54834997821281
 20
4.12320173464994
 10
22.317620767737697
 20
4.157978195041926
 10
22.085894087514287
 20
4.1928900988786
 10
21.853295729874308
 20
4.227709011519531
 10
21.619718422504448
 20
4.26219723831509
 10
21.38533001888157
 20
4.296536522755944
 10
21.150002411671675
 20
4.331013565643787
 10
20.91380312704519
 20
4.365397617335887
 10
20.676741425011343
 20
4.399455613187212
 10
20.438929207888034
 20
4.433308715524874
 10
20.20024762835046
 20
4.467010560505535
 10
19.960810903718826
 20
4.50062404429505
 10
19.720563082834175
 20
4.534088585729862
 10
19.479567061862372
 20
4.567289967489754
 10
19.237881106964668
 20
4.600230504577024
 10
18.995446951979805
 20
4.632907881989377
 10
18.7523811292303
 20
4.665326729731407
 10
18.50856710639363
 20
4.6974824177985175
 10
18.264116785787735
 20
4.729496108517823
 10
18.019032482414893
 20
4.761309535728064
 10
17.773325771286608
 20
4.792631368622952
 10
17.52699202239828
 20
4.823578139525002
 10
17.280145453070116
 20
4.854212744600072
 10
17.032667215977316
 20
4.884588820004818
 10
16.784678473446988
 20
4.914594463421325
 10
16.536181540481433
 20
4.9441714086883355
 10
16.28717873208295
 20
4.973261389644591
 10
16.037665418246934
 20
5.001980938612606
 10
15.787697550132354
 20
5.030390636755939
 10
15.537275127739202
 20
5.058490484074589
 10
15.28646336223563
 20
5.0861079970870815
 10
15.035206302462699
 20
5.113182594629861
 10
14.783564529583943
 20
5.139658325543966
 10
14.531589364753735
 20
5.165712303315471
 10
14.27921559680392
 20
5.19151701142585
 10
14.026564388061603
 20
5.216960547557186
 10
13.77359599238393
 20
5.241574467417115
 10
13.520296519757103
 20
5.265708367973188
 10
13.266780187501332
 20
5.289425145391257
 10
13.012993359459967
 20
5.312605952346509
 10
12.758938350635301
 20
5.335192522677686
 10
12.504724748342957
 20
5.357364284873159
 10
12.250296601423972
 20
5.379060657769373
 10
11.995719121046502
 20
5.4001091578848515
 10
11.740934041049286
 20
5.420507470217295
 10
11.48605557875255
 20
5.440318490932563
 10
11.231081419153986
 20
5.459600486191908
 10
10.976018507260498
 20
5.47817865751156
 10
10.720864528069777
 20
5.496111271052776
 10
10.465675432740795
 20
5.513458907979112
 10
10.21038601010539
 20
5.530394051772045
 10
9.95512668249987
 20
5.546571735468624
 10
9.69989744992424
 20
5.561991959068849
 10
9.444695997376199
 20
5.576712988733978
 10
9.189520009853442
 20
5.590793090625268
 10
8.93443006851954
 20
5.604176313583762
 10
8.679365592210923
 20
5.616918608768418
 10
8.42444542825241
 20
5.6289663400225765
 10
8.169674206648597
 20
5.64020297502372
 10
7.915049612397196
 20
5.650686779933109
 10
7.660569330495895
 20
5.660476020911999
 10
7.406235675946997
 20
5.6695124317991334
 10
7.152169811077619
 20
5.677684110276595
 10
6.898308839721903
 20
5.685105273664598
 10
6.644706398036507
 20
5.691894769287961
 10
6.391315794871669
 20
5.697758951338093
 10
6.138248932545308
 20
5.702818982142107
 10
5.885498866050526
 20
5.70724966018378
 10
5.633014274232965
 20
5.710873871977035
 10
5.380916319419736
 20
5.7135797152039585
 10
5.129200371606242
 20
5.715483722187063
 10
4.877812794635823
 20
5.716467045601536
 10
4.626865490826395
 20
5.716650847774489
 10
4.376304824021306
 20
5.7159162813811095
 10
4.12624501154076
 20
5.714326242587252
 10
3.8765625760553517
 20
5.712050899872093
 10
3.6273786798921943
 20
5.7089783509177146
 10
3.3787025830604853
 20
5.704875531079084
 10
3.1305319705579238
 20
5.699800706517461
 10
2.8829181635388705
 20
5.693930990718917
 10
2.635863477005628
 20
5.687208117522195
 10
2.389370225960485
 20
5.679573820766036
 10
2.1434966765647143
 20
5.671030415452739
 10
1.898179932652452
 20
5.661692118902523
 10
1.6534736303803519
 20
5.6516777784402
 10
1.409445295918879
 20
5.640756644423039
 10
1.1660995592726284
 20
5.628812184528524
 10
0.9234317904369983
 20
5.6159609310791705
 10
0.6814979405709554
 20
5.6022634652385355
 10
0.44023974351322687
 20
5.5877174720043215
 10
0.19971315042279003
 20
5.5723835325400835
 10
-0.04002588754141302
 20
5.556322228009378
 10
-0.2790263765314308
 20
5.539298178764876
 10
-0.5172300503860116
 20
5.521313699808877
 10
-0.7545902179553917
 20
5.502662436949967
 10
-0.9911605153962323
 20
5.483225542863333
 10
-1.2268220953837163
 20
5.462949381392316
 10
-1.4616914902403613
 20
5.441829322532316
 10
-1.6956521676436465
 20
5.4198699962879315
 10
-1.928650491436922
 20
5.397190249983979
 10
-2.160805308944993
 20
5.373843719777115
 10
-2.3920467789951134
 20
5.3495413898633535
 10
-2.6222722592785557
 20
5.3246374872148365
 10
-2.8515446459611775
 20
5.299246229151783
 10
-3.0799083151904467
 20
5.273015703704345
 10
-3.307188468482583
 20
5.245952855879421
 10
-3.533450317005746
 20
5.218230169158483
 10
-3.7586961757622346
 20
5.189905909702793
 10
-3.9829214147474485
 20
5.160863545189832
 10
-4.206011816641172
 20
5.131165971785456
 10
-4.428083913765918
 20
5.1008085594850705
 10
-4.649028118806075
 20
5.0699707367770435
 10
-4.868839801757038
 20
5.03853597133886
 10
-5.087516647616511
 20
5.006445997009263
 10
-5.3050609713867924
 20
4.973759079949512
 10
-5.5214191369112235
 20
4.940594067484418
 10
-5.73664941035106
 20
4.906948644611685
 10
-5.950630629379189
 20
4.872710909013393
 10
-6.16336279399561
 20
4.837880860689545
 10
-6.374901855359281
 20
4.80239791847658
 10
-6.585191862311247
 20
4.76632266353806
 10
-6.794239759858401
 20
4.729829894357754
 10
-7.001989596841786
 20
4.692980192099221
 10
-7.208432113252207
 20
4.65554049211743
 10
-7.413625575250918
 20
4.617508479410081
 10
-7.6173928693518524
 20
4.578832832822814
 10
-7.819857472884413
 20
4.5396837208348035
 10
-8.021021700850913
 20
4.500119409607309
 10
-8.220769020928822
 20
4.460144529144927
 10
-8.41909711811585
 20
4.419700813286401
 10
-8.616057313566357
 20
4.378611148545656
 10
-8.811600601128276
 20
4.337110914570027
 10
-9.005733925808512
 20
4.295374909843282
 10
-9.198387446434303
 20
4.253114118561436
 10
-9.389619429166913
 20
4.210326225722186
 10
-9.579317971688425
 20
4.167132393652647
 10
-9.767541340160092
 20
4.123530307350522
 10
-9.954291849584218
 20
4.079578232977067
 10
-10.139504288792644
 20
4.035103687050807
 10
-10.323183287789968
 20
3.9902232018942585
 10
-10.505328846576193
 20
3.944936777507421
 10
-10.685950225160513
 20
3.8994774785353283
 10
-10.864928576218118
 20
3.8537916688213176
 10
-11.042373487064618
 20
3.8076999198770185
 10
-11.218222061534163
 20
3.761088014382215
 10
-11.392425293474691
 20
3.714191331984238
 10
-11.565046079052054
 20
3.6671240900033006
 10
-11.736016892095803
 20
3.6196555387966742
 10
-11.905284096449273
 20
3.5719045256891726
 10
-12.072966539437285
 20
3.5239246868374563
 10
-12.23894768873732
 20
3.475720652246122
 10
-12.403220599342477
 20
3.4271176234313945
 10
-12.565792216259661
 20
3.378290398877052
 10
-12.726664854491165
 20
3.3292972447443487
 10
-12.88583619903469
 20
3.2800798948720287
 10
-13.043247983728984
 20
3.2306406642623906
 10
-13.198897893571738
 20
3.1809212867541747
 10
-13.352846509726518
 20
3.1309777135063435
 10
-13.504977299870806
 20
3.080814574523492
 10
-13.655294894009195
 20
3.030548402128137
 10
-13.80391119445961
 20
2.980058033993165
 10
-13.950651402738275
 20
2.9293504151254726
 10
-14.095571470004145
 20
2.878364964361503
 10
-14.238680656266418
 20
2.827334746346288
 10
-14.379978961525099
 20
2.776259761079827
 10
-14.519403489614323
 20
2.725025791241905
 10
-14.6569519255318
 20
2.673574570671262
 10
-14.792680220436484
 20
2.6218455182043425
 10
-14.926483417017353
 20
2.5701345946520338
 10
-15.05841746643337
 20
2.518381218850778
 10
-15.188477738679934
 20
2.4664688584780605
 10
-15.31660596759579
 20
2.4143998285361796
 10
-15.442806783185528
 20
2.362290661347652
 10
-15.56707555544456
 20
2.310024824589961
 10
-15.68941459937518
 20
2.2576605844243645
 10
-15.809826229979693
 20
2.205256207012121
 10
-15.92824755109223
 20
2.1526974750330137
 10
-16.0446855077197
 20
2.1001591869708163
 10
-16.159189106014157
 20
2.0474059631781976
 10
-16.271709339823545
 20
1.9946731833024884
 10
-16.382243894145567
 20
1.9419025811824318
 10
-16.49079045397792
 20
1.8890358906567681
 10
-16.597290753159342
 20
1.8360754267277986
 10
-16.701805372853393
 20
1.7830771405544799
 10
-16.804282991905716
 20
1.7302181456228867
 10
-16.90471898031171
 20
1.6773819096105025
 10
-17.003113338071376
 20
1.6245684325173262
 10
-17.099526646348266
 20
1.5718336655023193
 10
-17.193840057817567
 20
1.5191239724088195
 10
-17.286116468645144
 20
1.466553570557045
 10
-17.376302242674324
 20
1.41424130727181
 10
-17.46445564606638
 20
1.3621848675508164
 10
-17.55051378265544
 20
1.3102700340738467
 10
-17.634537233605073
 20
1.2585527579998594
 10
-17.716409466592758
 20
1.2070376693334541
 10
-17.796251643945602
 20
1.155836670392547
 10
-17.873949548343397
 20
1.105012657342995
 10
-17.949556815942806
 20
1.0544467828599833
 10
-18.023073446743823
 20
1.0041390469435116
 10
-18.09449944074645
 20
0.9540894495935796
 10
-18.163781161794024
 20
0.9044168381350026
 10
-18.230918609886547
 20
0.855121212567781
 10
-18.295963106178384
 20
0.8060254594058412
 10
-18.358863329515163
 20
0.7573066921352563
 10
-18.4196100198877
 20
0.7087318461109946
 10
-18.47821243730519
 20
0.660533985978088
 10
-18.534661321758428
 20
0.6124800470915042
 10
-18.588961303252017
 20
0.5646865617737596
 10
-18.641112381785963
 20
0.517153530024854
 10
-18.6910539761967
 20
0.46982500068582833
 10
-18.73890724881134
 20
0.4228128760746009
 10
-18.784490456139224
 20
0.3759493027142948
 10
-18.827983026668715
 20
0.3293438679205281
 10
-18.869266113075
 20
0.28294293553664196
 10
-18.908346660364973
 20
0.23692130404641004
 10
-18.945278304695304
 20
0.19116012612501682
 10
-18.980005094907025
 20
0.14571998293601973
 10
-19.012536291009333
 20
0.10083393912445077
 10
-19.042923214156588
 20
0.056324881204236864
 10
-19.071112228192135
 20
0.012311656500193016
 10
-19.09710796312057
 20
-0.03108920266516485
 10
-19.12091967895109
 20
-0.0736446316468044
 10
-19.14254737568369
 20
-0.11535463044472598
 10
-19.162053949484235
 20
-0.15610498173871273
 10
-19.179334443041697
 20
-0.19559972471787607
 10
-19.19445638252653
 20
-0.23360810973948337
 10
-19.20750118412299
 20
-0.269549790193254
 10
-19.218368520524646
 20
-0.30301227294578337
 10
-19.22715369792954
 20
-0.3330656144192426
 10
-19.23395202253573
 20
-0.3587798710358032
 10
-19.238702522075858
 20
-0.37875202492067467
 10
-19.241521337768667
 20
-0.39152773704470645
 10
-19.22783321513931
 20
-0.763950758688253
 10
-19.226608092958156
 20
-0.7668783478687289
 10
-19.222935041416992
 20
-0.7756028492488983
 10
-19.216823320525016
 20
-0.7898911981837297
 10
-19.208175309081884
 20
-0.8107316044123093
 10
-19.197058924361844
 20
-0.8393522873256539
 10
-19.183536280323167
 20
-0.8727210915360483
 10
-19.167620875875883
 20
-0.909029451042195
 10
-19.149459338372385
 20
-0.9475245357523389
 10
-19.12904201669971
 20
-0.9869804412777627
 10
-19.10633147971727
 20
-1.026870457164845
 10
-19.081455834759094
 20
-1.0669078826118945
 10
-19.054366075673112
 20
-1.10685733797158
 10
-19.025071462468524
 20
-1.1464857585988693
 10
-18.993576625149924
 20
-1.1856766121712463
 10
-18.95988156371732
 20
-1.2244298986887114
 10
-18.92404685933426
 20
-1.2626896669923056
 10
-18.886018875844087
 20
-1.3003370697572134
 10
-18.8457952982445
 20
-1.3374303731446933
 10
-18.803436707699067
 20
-1.3739136259957863
 10
-18.758880208041912
 20
-1.409901045630709
 10
-18.71212811427535
 20
-1.4453343658882036
 10
-18.663301588726494
 20
-1.4801016844503525
 10
-18.61221888790467
 20
-1.514370854794032
 10
-18.559057125295944
 20
-1.5480905557648814
 10
-18.503697453575512
 20
-1.5813144235195609
 10
-18.446200453906926
 20
-1.6139865068991117
 10
-18.386568441292486
 20
-1.6460485397422748
 10
-18.32479447072529
 20
-1.6776753205328252
 10
-18.26088317220995
 20
-1.7087503169482465
 10
-18.194825285737256
 20
-1.7395065936335712
 10
-18.126627756314104
 20
-1.7697693521050244
 10
-18.056344220097166
 20
-1.7996574396874216
 10
-17.983916410925175
 20
-1.829168541378464
 10
-17.909339698793534
 20
-1.8584191895006672
 10
-17.832674664865802
 20
-1.8873534328950725
 10
-17.75391899413968
 20
-1.916029537722938
 10
-17.673072686615168
 20
-1.9444475039842632
 10
-17.59007053112411
 20
-1.9727798151605238
 10
-17.50503137499132
 20
-2.000972835095059
 10
-17.41784100089658
 20
-2.0289636676220133
 10
-17.328615941162415
 20
-2.0567569427459844
 10
-17.23729329962295
 20
-2.08446687778719
 10
-17.143931342439465
 20
-2.1120957877479283
 10
-17.048474118452987
 20
-2.139583091464642
 10
-16.95098452382938
 20
-2.166814571617116
 10
-16.851401977405086
 20
-2.193846179364308
 10
-16.74984069650031
 20
-2.220740810872073
 10
-16.646242414953807
 20
-2.2474961511381135
 10
-16.540607132765572
 20
-2.2741122001624294
 10
-16.432941794942508
 20
-2.3004141594612464
 10
-16.323304667645864
 20
-2.3264043440368636
 10
-16.211637484714387
 20
-2.352080438886982
 10
-16.09799388230474
 20
-2.377561291336416
 10
-15.982373860416912
 20
-2.402846901385166
 10
-15.864786679060112
 20
-2.4277042043882004
 10
-15.74528597439099
 20
-2.452252047670334
 10
-15.623815795250598
 20
-2.4764298500680098
 10
-15.500373826636624
 20
-2.5002958777424857
 10
-15.375018334710333
 20
-2.5238524456960603
 10
-15.247751634474026
 20
-2.5470412877674766
 10
-15.1185714109254
 20
-2.5699206701179924
 10
-14.987477664064457
 20
-2.5924905927476067
 10
-14.854472708893494
 20
-2.614692789495063
 10
-14.719612496571472
 20
-2.636587841523917
 10
-14.58289702709839
 20
-2.6581757488341693
 10
-14.444270349315289
 20
-2.6793959302622627
 10
-14.303844365540087
 20
-2.7003695481353107
 10
-14.161563124613828
 20
-2.7210360212897577
 10
-14.017424311534207
 20
-2.7414536158868614
 10
-13.871488507464786
 20
-2.7615663807676616
 10
-13.723762657412461
 20
-2.781199517448386
 10
-13.574239816370332
 20
-2.8005278244128062
 10
-13.422857088172547
 20
-2.8196655189811417
 10
-13.26979158630518
 20
-2.838561279999031
 10
-13.114931408450305
 20
-2.8570939451393595
 10
-12.958278869610227
 20
-2.8752052482408685
 10
-12.799945872102867
 20
-2.8930163516306733
 10
-12.639871834764662
 20
-2.910583206467732
 10
-12.478061387600214
 20
-2.92778928042953
 10
-12.314572796770776
 20
-2.944636888518364
 10
-12.149408377278654
 20
-2.961067764572978
 10
-11.982561184116943
 20
-2.9772567070771463
 10
-11.814035847290247
 20
-2.9930871837083513
 10
-11.643827736793966
 20
-3.0086757267891096
 10
-11.472060329957516
 20
-3.0238521678402455
 10
-11.298614779456077
 20
-3.038670143018419
 10
-11.123549351450912
 20
-3.0531319673259287
 10
-10.946919997100974
 20
-3.0672982219263325
 10
-10.768673080249608
 20
-3.0810500594948143
 10
-10.588862237053473
 20
-3.094506327356189
 10
-10.407548048676121
 20
-3.107611074351499
 10
-10.224618612799642
 20
-3.1202431381536297
 10
-10.04019046174655
 20
-3.1324071487671787
 10
-9.854256650509946
 20
-3.14427790467592
 10
-9.66681717908983
 20
-3.1558554058798545
 10
-9.4778720474862
 20
-3.1671396523789808
 10
-9.287486466867213
 20
-3.1779581606918255
 10
-9.09566506723747
 20
-3.188194398495871
 10
-8.902340322426513
 20
-3.1980791154338517
 10
-8.707628764756858
 20
-3.207616941510365
 10
-8.511476758071849
 20
-3.216689029400596
 10
-8.31394719853734
 20
-3.225181161784328
 10
-8.115033141146432
 20
-3.2332681371453336
 10
-7.914788222055784
 20
-3.2410688028084293
 10
-7.713158805108742
 20
-3.2484643114488003
 10
-7.510151835312197
 20
-3.255279864582671
 10
-7.305879214984072
 20
-3.2616366245371577
 10
-7.100338629122061
 20
-3.2675928574735162
 10
-6.893413545403657
 20
-3.2731439333871504
 10
-6.685281077314926
 20
-3.2782385311236975
 10
-6.475887588699211
 20
-3.2827578033583436
 10
-6.265233079556514
 20
-3.286701750091089
 10
-6.053373501045788
 20
-3.2901309524854896
 10
-5.8402972781555444
 20
-3.293336741347836
 10
-5.626069622053933
 20
-3.296146633196654
 10
-5.410641526588895
 20
-3.2983252483846117
 10
-5.19401067675813
 20
-3.2999308530729667
 10
-4.9762936048841535
 20
-3.300968077266318
 10
-4.757422784796512
 20
-3.301667670607399
 10
-4.537461112661065
 20
-3.3019154157759907
 10
-4.316408588477807
 20
-3.3017113127720945
 10
-4.094269842251339
 20
-3.3009388292731945
 10
-3.871042558979363
 20
-3.299656231440549
 10
-3.6468386409797944
 20
-3.297984681601271
 10
-3.4215461859347163
 20
-3.295803017428247
 10
-3.1952863561712412
 20
-3.2929993366035597
 10
-2.968056836687073
 20
-3.289631905288466
 10
-2.739855312479913
 20
-3.2857589896442243
 10
-2.5106258323907973
 20
-3.281320008507277
 10
-2.280547824908104
 20
-3.2762053745620068
 10
-2.0495653388728705
 20
-3.270354506644856
 10
-1.8176062181100432
 20
-3.2641146867210726
 10
-1.5847893099444421
 20
-3.2574322786339978
 10
-1.3511867705511134
 20
-3.2499600004183815
 10
-1.1166751226006528
 20
-3.2418680205534014
 10
-0.8813103172520101
 20
-3.2332169202026124
 10
-0.6452135168323035
 20
-3.2238947970480987
 10
-0.4082705040213152
 20
-3.2138387549240033
 10
-0.17059781114156253
 20
-3.203053423834923
 10
0.06787208797740961
 20
-3.191769553423593
 10
0.3070762971697443
 20
-3.179872926369795
 10
0.5469449752626945
 20
-3.167074526869538
 10
0.7875433334244021
 20
-3.1535468384042975
 10
1.028822365502822
 20
-3.1395252406214045
 10
1.270716860329781
 20
-3.1248372500393837
 10
1.5132827690642527
 20
-3.1094222854946785
 10
1.7564664555495693
 20
-3.093399194312104
 10
2.0002586597765384
 20
-3.0765349118466276
 10
2.244659381745164
 20
-3.0588294380982495
 10
2.4896196153033716
 20
-3.040518152714301
 10
2.7350834092922094
 20
-3.021661636858339
 10
2.981106714870644
 20
-3.002199309366806
 10
3.2276243208705053
 20
-2.981958686758228
 10
3.4746408572964023
 20
-2.9610563013551205
 10
3.7221563241483313
 20
-2.939492153157484
 10
3.9701124552650344
 20
-2.9172685571676165
 10
4.218502305639616
 20
-2.8942107149017446
 10
4.467330505276673
 20
-2.8704351586823837
 10
4.716489781862885
 20
-2.846179583159165
 10
4.966094352718465
 20
-2.8213810921662326
 10
5.21602074051401
 20
-2.7958695172244092
 10
5.46632952641307
 20
-2.7697008094926545
 10
5.716904178093129
 20
-2.742879598975567
 10
5.967805276717747
 20
-2.715461836832105
 10
6.219030507284621
 20
-2.6873892569010107
 10
6.470465652473538
 20
-2.65872475534814
 10
6.722173608450355
 20
-2.6295825494937097
 10
6.97415206021277
 20
-2.5999043731764626
 10
7.226282160435966
 20
-2.569636590239738
 10
7.478624490283503
 20
-2.5388351518424948
 10
7.731125413598718
 20
-2.5076189053095495
 10
7.98383393653368
 20
-2.4757524709935694
 10
8.236638156770466
 20
-2.4433570112216696
 10
8.489542704313667
 20
-2.4105490583163656
 10
8.742545264161
 20
-2.3772703461163993
 10
8.995641206307859
 20
-2.343404342299255
 10
9.24883516075884
 20
-2.3090675791874484
 10
9.502015225196022
 20
-2.2743812191080943
 10
9.755235035776076
 20
-2.239226414736377
 10
10.00844327134463
 20
-2.2037802795583694
 10
10.261632986894792
 20
-2.167868015090298
 10
10.514801867424266
 20
-2.1314313551709043
 10
10.767954542937645
 20
-2.0945868321227046
 10
11.02098142611931
 20
-2.057513874434072
 10
11.273940783130524
 20
-2.0202101671027055
 10
11.526767402803124
 20
-1.9825032266471316
 10
11.779463600139417
 20
-1.944451319228608
 10
12.032029375139398
 20
-1.9060544448471342
 10
12.284467042805371
 20
-1.8673708696639684
 10
12.536657755812517
 20
-1.8283469575224505
 10
12.78866209532439
 20
-1.7890386595815406
 10
13.040424110182034
 20
-1.7495065570047945
 10
13.29200669655131
 20
-1.7098648671124297
 10
13.543284062100499
 20
-1.669885155264012
 10
13.794258521831907
 20
-1.6296256876207997
 10
14.044999916918277
 20
-1.589375479986784
 10
14.295377825023309
 20
-1.548789565399014
 10
14.545389931144701
 20
-1.5078096776962329
 10
14.7951083914575
 20
-1.4667830988436887
 10
15.044421303643796
 20
-1.4258309911684954
 10
15.29337304385105
 20
-1.384601442700807
 10
15.54190766092029
 20
-1.3431550346041803
 10
15.789966888690284
 20
-1.3014940818809135
 10
16.03761362332687
 20
-1.2597328018512244
 10
16.284791913671086
 20
-1.2179317756786698
 10
16.531504074725245
 20
-1.1761492695245073
 10
16.77768721032348
 20
-1.134271066068521
 10
17.0233366904612
 20
-1.0921806329881938
 10
17.2684594601453
 20
-1.0500527687673
 10
17.513055519375772
 20
-1.0078874734058396
 10
17.757010650832413
 20
-0.9657476430696688
 10
18.00044138683773
 20
-0.9236286477541897
 10
18.243224250062305
 20
-0.8813603189802264
 10
18.48536155550845
 20
-0.8390009229090363
 10
18.72686487818765
 20
-0.7968417903469103
 10
18.967731903097622
 20
-0.7548246551325893
 10
19.20784146791123
 20
-0.7128376149481563
 10
19.447312419953306
 20
-0.6709343059502708
 10
19.686025911899023
 20
-0.6290610919822732
 10
19.924040209909645
 20
-0.5872156580418644
 10
20.16130167782851
 20
-0.5455168514538592
 10
20.39775204949436
 20
-0.5039669872205566
 10
20.633454221073055
 20
-0.4626802826621737
 10
20.86828471523518
 20
-0.4214865692995349
 10
21.102360064303245
 20
-0.38038121712804157
 10
21.33556142095245
 20
-0.3393105899910339
 10
21.567902675196564
 20
-0.2986242848560605
 10
21.799325560874355
 20
-0.2583246167254199
 10
22.02993272029453
 20
-0.218057358626966
 10
22.25954703997102
 20
-0.1777711894063377
 10
22.488303572244746
 20
-0.13792760834900136
 10
22.71608346979086
 20
-0.0984729792982974
 10
22.942877472600205
 20
-0.05917423760919266
 10
23.168685580672744
 20
-0.020031383281688648
 10
23.393510109010805
 20
0.018897317522957955
 10
23.617362632625873
 20
0.05732053399845653
 10
23.840121989190834
 20
0.095350168462725
 10
24.061897766021303
 20
0.1331656494041356
 10
24.282573430794766
 20
0.17076234681809024
 10
24.502153613515826
 20
0.20802372838207264
 10
24.720642944189073
 20
0.24483326177356726
 10
24.938036792809918
 20
0.28130747931508954
 10
25.154276893217094
 20
0.3174440660043408
 10
25.369426141576458
 20
0.3531288045211039
 10
25.583368005565507
 20
0.3883570648607812
 10
25.79615380633859
 20
0.4233059605094452
 10
26.007667011573197
 20
0.4579708614624981
 10
26.21808704975768
 20
0.4922421804043208
 10
26.42718548625164
 20
0.5259941250032018
 10
26.635078853377568
 20
0.5592313252637379
 10
26.84176483613317
 20
0.5920120473471882
 10
27.047122272191327
 20
0.6244481935714699
 10
27.251153476554354
 20
0.6564814977753259
 10
27.45397729654705
 20
0.6880583238020953
 10
27.655421248687954
 20
0.7191134604836238
 10
27.855548229142908
 20
0.7495326904996935
 10
28.05429302674377
 20
0.7794884973317804
 10
28.251711592649492
 20
0.8090414621434412
 10
28.447747975701105
 20
0.8381310037711179
 10
28.64240217589863
 20
0.8667571222148117
 10
28.83562287208769
 20
0.8947427039884491
 10
29.027461385422654
 20
0.9222648625781035
 10
29.217803498583297
 20
0.9492607018179181
 10
29.406702847726294
 20
0.9758490690327086
 10
29.594166377858524
 20
1.0018551657387003
 10
29.78013813782105
 20
1.0272184107723372
 10
29.96461118260694
 20
1.052113602617392
 10
30.147585512216235
 20
1.0765407412738661
 10
30.329061126648902
 20
1.100499826741758
 10
30.50892612358704
 20
1.123869696693955
 10
30.687301665357758
 20
1.146538448812538
 10
30.864117910788316
 20
1.1687950989014992
 10
31.039318908719732
 20
1.1905790657972806
 10
31.212962925313285
 20
1.2118926645021815
 10
31.384996324412302
 20
1.232617047691387
 10
31.55535852485323
 20
1.2528081665238557
 10
31.72416374395627
 20
1.2725289171654437
 10
31.89130239440583
 20
1.2915998711277794
 10
32.056769846197305
 20
1.3101375607333787
 10
32.22056841433299
 20
1.3280837198209832
 10
32.382691153805986
 20
1.345613146874367
 10
32.54314269462089
 20
1.3626093095710146
 10
32.70186477061645
 20
1.3790698929086262
 10
32.85885969679495
 20
1.394936630725944
 10
33.01418342431537
 20
1.4102701041865258
 10
33.16771710585288
 20
1.42512394944703
 10
33.31946074140749
 20
1.439498166507458
 10
33.46947491214275
 20
1.4533368042088506
 10
33.61776193306097
 20
1.4665815963899496
 10
33.76419832683272
 20
1.4794027115299309
 10
33.908842359619264
 20
1.4918024646310928
 10
34.05170097642752
 20
1.5036060572096628
 10
34.19271359609388
 20
1.5148694404245981
 10
34.3318755886138
 20
1.5257091465984165
 10
34.469249850153105
 20
1.5360109584108994
 10
34.60472216339161
 20
1.5457119796961922
 10
34.73834616448594
 20
1.55493105777911
 10
34.870119538433805
 20
1.5637264588209085
 10
34.99998401907394
 20
1.5720958678192907
 10
35.12794423641097
 20
1.5799227524517403
 10
35.25399787544256
 20
1.5872653788795146
 10
35.378140306164156
 20
1.594240279425131
 10
35.500373843578025
 20
1.6007891879273297
 10
35.62064485152751
 20
1.606793257061297
 10
35.73895333001261
 20
1.6122524868270325
 10
35.8553482851854
 20
1.617402256871867
 10
35.969773765886906
 20
1.622181986032243
 10
36.082229772117145
 20
1.6265916743081623
 10
36.1927186188784
 20
1.6305730555383653
 10
36.30118204000942
 20
1.6341238147205528
 10
36.40767830167148
 20
1.6372462668570251
 10
36.51214450769868
 20
1.6400546292679983
 10
36.61458528809565
 20
1.6424323696309564
 10
36.71499601285779
 20
1.6444960202684158
 10
36.81343957815096
 20
1.6461313638601591
 10
36.909794821648035
 20
1.6474503027241048
 10
37.004117694507976
 20
1.6485134180238095
 10
37.09635224557182
 20
1.6492601285957158
 10
37.18655905600313
 20
1.6496344832808654
 10
37.27467522963606
 20
1.649750699399475
 10
37.360763662636444
 20
1.6494945596313282
 10
37.44470087767488
 20
1.6490362324555994
 10
37.52660572207619
 20
1.6483220817156303
 10
37.60636166351784
 20
1.6473474774068215
 10
37.684026968161106
 20
1.6461147345314733
 10
37.75960163600599
 20
1.6446238530895856
 10
37.83308335205018
 20
1.6429330992424154
 10
37.904416165134705
 20
1.640981891826406
 10
37.973595445255015
 20
1.6388867631640738
 10
38.040681773574605
 20
1.6365917620964592
 10
38.10561456892995
 20
1.6341528397825218
 10
38.16839614632337
 20
1.6315117300610038
 10
38.22902419075253
 20
1.6287266990931621
 10
38.28750101721974
 20
1.6257394807177397
 10
38.3438243107227
 20
1.622608341095994
 10
38.397989441256826
 20
1.6194498125504413
 10
38.44994277266544
 20
1.6161450477562667
 10
38.499798522268755
 20
1.6127569428793258
 10
38.54737957658074
 20
1.6093368190739805
 10
38.592863049087406
 20
1.6058333551858681
 10
38.63613240746628
 20
1.6022419212103922
 10
38.67718302171275
 20
1.5986790494700682
 10
38.716075472990376
 20
1.595088788805937
 10
38.75275149513791
 20
1.5914688242157
 10
38.78720645815073
 20
1.5879356880218727
 10
38.81950325819471
 20
1.5843751629042384
 10
38.84957899910399
 20
1.5809014661830139
 10
38.877435995880866
 20
1.5774563316969414
 10
38.90306961852074
 20
1.5741562917685368
 10
38.92648218202592
 20
1.5709430802365423
 10
38.94772963755535
 20
1.5678772782645143
 10
38.96669545278651
 20
1.5649542558478549
 10
38.9834355788784
 20
1.5622345941501221
 10
38.99800828199223
 20
1.5597206081736137
 10
39.0102970298055
 20
1.5574076679137323
 10
39.02035545847488
 20
1.5554146206952928
 10
39.02824414916391
 20
1.5536855153593363
 10
39.0338419395455
 20
1.5523322542237807
 10
39.037204780778595
 20
1.5514154184521831
 10
39.03832804285859
 20
1.551051540367059
  0
ENDSEC
  0
SECTION
  2
OBJECTS
  0
DICTIONARY
  5
A
330
0
100
AcDbDictionary
280
0
281
1
  3
ACAD_COLOR
350
B
  3
ACAD_GROUP
350
C
  3
ACAD_LAYOUT
350
D
  3
ACAD_MATERIAL
350
E
  3
ACAD_MLEADERSTYLE
350
F
  3
ACAD_MLINESTYLE
350
10
  3
ACAD_PLOTSETTINGS
350
11
  3
ACAD_PLOTSTYLENAME
350
12
  3
ACAD_SCALELIST
350
14
  3
ACAD_TABLESTYLE
350
15
  3
ACAD_VISUALSTYLE
350
16
  3
EZDXF_META
350
2D
  0
DICTIONARY
  5
B
330
A
100
AcDbDictionary
280
0
281
1
  0
DICTIONARY
  5
C
330
A
100
AcDbDictionary
280
0
281
1
  0
DICTIONARY
  5
D
330
A
100
AcDbDictionary
280
0
281
1
  3
Model
350
1A
  3
Layout1
350
1E
  0
DICTIONARY
  5
E
330
A
100
AcDbDictionary
280
0
281
1
  3
ByBlock
350
1F
  3
ByLayer
350
20
  3
Global
350
21
  0
DICTIONARY
  5
F
330
A
100
AcDbDictionary
280
0
281
1
  3
Standard
350
2C
  0
DICTIONARY
  5
10
330
A
100
AcDbDictionary
280
0
281
1
  3
Standard
350
22
  0
DICTIONARY
  5
11
330
A
100
AcDbDictionary
280
0
281
1
  0
ACDBDICTIONARYWDFLT
  5
12
330
A
100
AcDbDictionary
280
0
281
1
  3
Normal
350
13
100
AcDbDictionaryWithDefault
340
13
  0
ACDBPLACEHOLDER
  5
13
330
12
  0
DICTIONARY
  5
14
330
A
100
AcDbDictionary
280
0
281
1
  0
DICTIONARY
  5
15
330
A
100
AcDbDictionary
280
0
281
1
  0
DICTIONARY
  5
16
330
A
100
AcDbDictionary
280
0
281
1
  0
LAYOUT
  5
1A
330
D
100
AcDbPlotSettings
  1

  4
A3
  6

 40
7.5
 41
20.0
 42
7.5
 43
20.0
 44
420.0
 45
297.0
 46
0.0
 47
0.0
 48
0.0
 49
0.0
140
0.0
141
0.0
142
1.0
143
1.0
 70
1024
 72
1
 73
0
 74
5
  7

 75
16
 76
0
 77
2
 78
300
147
1.0
148
0.0
149
0.0
100
AcDbLayout
  1
Model
 70
1
 71
0
 10
0.0
 20
0.0
 11
420.0
 21
297.0
 12
0.0
 22
0.0
 32
0.0
 14
1e+20
 24
1e+20
 34
1e+20
 15
-1e+20
 25
-1e+20
 35
-1e+20
146
0.0
 13
0.0
 23
0.0
 33
0.0
 16
1.0
 26
0.0
 36
0.0
 17
0.0
 27
1.0
 37
0.0
 76
1
330
17
  0
LAYOUT
  5
1E
330
D
100
AcDbPlotSettings
  1

  4
A3
  6

 40
7.5
 41
20.0
 42
7.5
 43
20.0
 44
420.0
 45
297.0
 46
0.0
 47
0.0
 48
0.0
 49
0.0
140
0.0
141
0.0
142
1.0
143
1.0
 70
0
 72
1
 73
0
 74
5
  7

 75
16
 76
0
 77
2
 78
300
147
1.0
148
0.0
149
0.0
100
AcDbLayout
  1
Layout1
 70
1
 71
1
 10
0.0
 20
0.0
 11
420.0
 21
297.0
 12
0.0
 22
0.0
 32
0.0
 14
1e+20
 24
1e+20
 34
1e+20
 15
-1e+20
 25
-1e+20
 35
-1e+20
146
0.0
 13
0.0
 23
0.0
 33
0.0
 16
1.0
 26
0.0
 36
0.0
 17
0.0
 27
1.0
 37
0.0
 76
1
330
1B
  0
MATERIAL
  5
1F
102
{ACAD_REACTORS
330
E
102
}
330
E
100
AcDbMaterial
  1
ByBlock
  2

 70
0
 40
1.0
 71
1
 41
1.0
 91
-1023410177
 42
1.0
 72
1
  3

 73
1
 74
1
 75
1
 44
0.5
 73
0
 45
1.0
 46
1.0
 77
1
  4

 78
1
 79
1
170
1
 48
1.0
171
1
  6

172
1
173
1
174
1
140
1.0
141
1.0
175
1
  7

176
1
177
1
178
1
143
1.0
179
1
  8

270
1
271
1
272
1
145
1.0
146
1.0
273
1
  9

274
1
275
1
276
1
 42
1.0
 72
1
  3

 73
1
 74
1
 75
1
 94
63
  0
MATERIAL
  5
20
102
{ACAD_REACTORS
330
E
102
}
330
E
100
AcDbMaterial
  1
ByLayer
  2

 70
0
 40
1.0
 71
1
 41
1.0
 91
-1023410177
 42
1.0
 72
1
  3

 73
1
 74
1
 75
1
 44
0.5
 73
0
 45
1.0
 46
1.0
 77
1
  4

 78
1
 79
1
170
1
 48
1.0
171
1
  6

172
1
173
1
174
1
140
1.0
141
1.0
175
1
  7

176
1
177
1
178
1
143
1.0
179
1
  8

270
1
271
1
272
1
145
1.0
146
1.0
273
1
  9

274
1
275
1
276
1
 42
1.0
 72
1
  3

 73
1
 74
1
 75
1
 94
63
  0
MATERIAL
  5
21
102
{ACAD_REACTORS
330
E
102
}
330
E
100
AcDbMaterial
  1
Global
  2

 70
0
 40
1.0
 71
1
 41
1.0
 91
-1023410177
 42
1.0
 72
1
  3

 73
1
 74
1
 75
1
 44
0.5
 73
0
 45
1.0
 46
1.0
 77
1
  4

 78
1
 79
1
170
1
 48
1.0
171
1
  6

172
1
173
1
174
1
140
1.0
141
1.0
175
1
  7

176
1
177
1
178
1
143
1.0
179
1
  8

270
1
271
1
272
1
145
1.0
146
1.0
273
1
  9

274
1
275
1
276
1
 42
1.0
 72
1
  3

 73
1
 74
1
 75
1
 94
63
  0
MLINESTYLE
  5
22
102
{ACAD_REACTORS
330
10
102
}
330
10
100
AcDbMlineStyle
  2
Standard
 70
0
  3

 62
256
 51
90.0
 52
90.0
 71
2
 49
0.5
 62
256
  6
BYLAYER
 49
-0.5
 62
256
  6
BYLAYER
  0
MLEADERSTYLE
  5
2C
102
{ACAD_REACTORS
330
F
102
}
330
F
100
AcDbMLeaderStyle
179
2
170
2
171
1
172
0
 90
2
 40
0.0
 41
0.0
173
1
 91
-1056964608
 92
-2
290
1
 42
2.0
291
1
 43
8.0
  3
Standard
 44
4.0
300

342
29
174
1
175
1
176
0
178
1
 93
-1056964608
 45
4.0
292
0
297
0
 46
4.0
 94
-1056964608
 47
1.0
 49
1.0
140
1.0
294
1
141
0.0
177
0
142
1.0
295
0
296
0
143
3.75
271
0
272
9
273
9
  0
DICTIONARY
  5
2D
330
A
100
AcDbDictionary
280
1
281
1
  3
CREATED_BY_EZDXF
350
2E
  3
WRITTEN_BY_EZDXF
350
32
  0
DICTIONARYVAR
  5
2E
330
2D
100
DictionaryVariables
280
0
  1
1.3.5 @ 2025-08-20T01:05:14.517869+00:00
  0
DICTIONARYVAR
  5
32
330
2D
100
DictionaryVariables
280
0
  1
1.3.5 @ 2025-08-20T01:05:14.523821+00:00
  0
ENDSEC
  0
EOF
