  0
SECTION
  2
HEADER
  9
$ACADVER
  1
AC1032
  9
$ACADMAINTVER
 90
4
  9
$DWGCODEPAGE
  3
ANSI_1252
  9
$LASTSAVEDBY
  1
ezdxf
  9
$REQUIREDVERSIONS
160
0
  9
$INSBASE
 10
0.0
 20
0.0
 30
0.0
  9
$EXTMIN
 10
1e+20
 20
1e+20
 30
1e+20
  9
$EXTMAX
 10
-1e+20
 20
-1e+20
 30
-1e+20
  9
$LIMMIN
 10
0.0
 20
0.0
  9
$LIMMAX
 10
420.0
 20
297.0
  9
$ORTHOMODE
 70
0
  9
$REGENMODE
 70
1
  9
$FILLMODE
 70
1
  9
$QTEXTMODE
 70
0
  9
$MIRRTEXT
 70
1
  9
$LTSCALE
 40
1.0
  9
$ATTMODE
 70
1
  9
$TEXTSIZE
 40
2.5
  9
$TRACEWID
 40
1.0
  9
$TEXTSTYLE
  7
Standard
  9
$CLAYER
  8
0
  9
$CELTYPE
  6
ByLayer
  9
$CECOLOR
 62
256
  9
$CELTSCALE
 40
1.0
  9
$DISPSILH
 70
0
  9
$DIMSCALE
 40
1.0
  9
$DIMASZ
 40
2.5
  9
$DIMEXO
 40
0.625
  9
$DIMDLI
 40
3.75
  9
$DIMRND
 40
0.0
  9
$DIMDLE
 40
0.0
  9
$DIMEXE
 40
1.25
  9
$DIMTP
 40
0.0
  9
$DIMTM
 40
0.0
  9
$DIMTXT
 40
2.5
  9
$DIMCEN
 40
2.5
  9
$DIMTSZ
 40
0.0
  9
$DIMTOL
 70
0
  9
$DIMLIM
 70
0
  9
$DIMTIH
 70
0
  9
$DIMTOH
 70
0
  9
$DIMSE1
 70
0
  9
$DIMSE2
 70
0
  9
$DIMTAD
 70
1
  9
$DIMZIN
 70
8
  9
$DIMBLK
  1

  9
$DIMASO
 70
1
  9
$DIMSHO
 70
1
  9
$DIMPOST
  1

  9
$DIMAPOST
  1

  9
$DIMALT
 70
0
  9
$DIMALTD
 70
3
  9
$DIMALTF
 40
0.03937007874
  9
$DIMLFAC
 40
1.0
  9
$DIMTOFL
 70
1
  9
$DIMTVP
 40
0.0
  9
$DIMTIX
 70
0
  9
$DIMSOXD
 70
0
  9
$DIMSAH
 70
0
  9
$DIMBLK1
  1

  9
$DIMBLK2
  1

  9
$DIMSTYLE
  2
ISO-25
  9
$DIMCLRD
 70
0
  9
$DIMCLRE
 70
0
  9
$DIMCLRT
 70
0
  9
$DIMTFAC
 40
1.0
  9
$DIMGAP
 40
0.625
  9
$DIMJUST
 70
0
  9
$DIMSD1
 70
0
  9
$DIMSD2
 70
0
  9
$DIMTOLJ
 70
0
  9
$DIMTZIN
 70
8
  9
$DIMALTZ
 70
0
  9
$DIMALTTZ
 70
0
  9
$DIMUPT
 70
0
  9
$DIMDEC
 70
2
  9
$DIMTDEC
 70
2
  9
$DIMALTU
 70
2
  9
$DIMALTTD
 70
3
  9
$DIMTXSTY
  7
Standard
  9
$DIMAUNIT
 70
0
  9
$DIMADEC
 70
0
  9
$DIMALTRND
 40
0.0
  9
$DIMAZIN
 70
0
  9
$DIMDSEP
 70
44
  9
$DIMATFIT
 70
3
  9
$DIMFRAC
 70
0
  9
$DIMLDRBLK
  1

  9
$DIMLUNIT
 70
2
  9
$DIMLWD
 70
-2
  9
$DIMLWE
 70
-2
  9
$DIMTMOVE
 70
0
  9
$DIMFXL
 40
1.0
  9
$DIMFXLON
 70
0
  9
$DIMJOGANG
 40
0.785398163397
  9
$DIMTFILL
 70
0
  9
$DIMTFILLCLR
 70
0
  9
$DIMARCSYM
 70
0
  9
$DIMLTYPE
  6

  9
$DIMLTEX1
  6

  9
$DIMLTEX2
  6

  9
$DIMTXTDIRECTION
 70
0
  9
$LUNITS
 70
2
  9
$LUPREC
 70
4
  9
$SKETCHINC
 40
1.0
  9
$FILLETRAD
 40
10.0
  9
$AUNITS
 70
0
  9
$AUPREC
 70
2
  9
$MENU
  1
.
  9
$ELEVATION
 40
0.0
  9
$PELEVATION
 40
0.0
  9
$THICKNESS
 40
0.0
  9
$LIMCHECK
 70
0
  9
$CHAMFERA
 40
0.0
  9
$CHAMFERB
 40
0.0
  9
$CHAMFERC
 40
0.0
  9
$CHAMFERD
 40
0.0
  9
$SKPOLY
 70
0
  9
$TDCREATE
 40
2460906.8720833333
  9
$TDUCREATE
 40
2458532.153996898
  9
$TDUPDATE
 40
2460906.8720833333
  9
$TDUUPDATE
 40
2458532.1544311
  9
$TDINDWG
 40
0.0
  9
$TDUSRTIMER
 40
0.0
  9
$USRTIMER
 70
1
  9
$ANGBASE
 50
0.0
  9
$ANGDIR
 70
0
  9
$PDMODE
 70
0
  9
$PDSIZE
 40
0.0
  9
$PLINEWID
 40
0.0
  9
$SPLFRAME
 70
0
  9
$SPLINETYPE
 70
6
  9
$SPLINESEGS
 70
8
  9
$HANDSEED
  5
33
  9
$SURFTAB1
 70
6
  9
$SURFTAB2
 70
6
  9
$SURFTYPE
 70
6
  9
$SURFU
 70
6
  9
$SURFV
 70
6
  9
$UCSBASE
  2

  9
$UCSNAME
  2

  9
$UCSORG
 10
0.0
 20
0.0
 30
0.0
  9
$UCSXDIR
 10
1.0
 20
0.0
 30
0.0
  9
$UCSYDIR
 10
0.0
 20
1.0
 30
0.0
  9
$UCSORTHOREF
  2

  9
$UCSORTHOVIEW
 70
0
  9
$UCSORGTOP
 10
0.0
 20
0.0
 30
0.0
  9
$UCSORGBOTTOM
 10
0.0
 20
0.0
 30
0.0
  9
$UCSORGLEFT
 10
0.0
 20
0.0
 30
0.0
  9
$UCSORGRIGHT
 10
0.0
 20
0.0
 30
0.0
  9
$UCSORGFRONT
 10
0.0
 20
0.0
 30
0.0
  9
$UCSORGBACK
 10
0.0
 20
0.0
 30
0.0
  9
$PUCSBASE
  2

  9
$PUCSNAME
  2

  9
$PUCSORG
 10
0.0
 20
0.0
 30
0.0
  9
$PUCSXDIR
 10
1.0
 20
0.0
 30
0.0
  9
$PUCSYDIR
 10
0.0
 20
1.0
 30
0.0
  9
$PUCSORTHOREF
  2

  9
$PUCSORTHOVIEW
 70
0
  9
$PUCSORGTOP
 10
0.0
 20
0.0
 30
0.0
  9
$PUCSORGBOTTOM
 10
0.0
 20
0.0
 30
0.0
  9
$PUCSORGLEFT
 10
0.0
 20
0.0
 30
0.0
  9
$PUCSORGRIGHT
 10
0.0
 20
0.0
 30
0.0
  9
$PUCSORGFRONT
 10
0.0
 20
0.0
 30
0.0
  9
$PUCSORGBACK
 10
0.0
 20
0.0
 30
0.0
  9
$USERI1
 70
0
  9
$USERI2
 70
0
  9
$USERI3
 70
0
  9
$USERI4
 70
0
  9
$USERI5
 70
0
  9
$USERR1
 40
0.0
  9
$USERR2
 40
0.0
  9
$USERR3
 40
0.0
  9
$USERR4
 40
0.0
  9
$USERR5
 40
0.0
  9
$WORLDVIEW
 70
1
  9
$SHADEDGE
 70
3
  9
$SHADEDIF
 70
70
  9
$TILEMODE
 70
1
  9
$MAXACTVP
 70
64
  9
$PINSBASE
 10
0.0
 20
0.0
 30
0.0
  9
$PLIMCHECK
 70
0
  9
$PEXTMIN
 10
1e+20
 20
1e+20
 30
1e+20
  9
$PEXTMAX
 10
-1e+20
 20
-1e+20
 30
-1e+20
  9
$PLIMMIN
 10
0.0
 20
0.0
  9
$PLIMMAX
 10
420.0
 20
297.0
  9
$UNITMODE
 70
0
  9
$VISRETAIN
 70
1
  9
$PLINEGEN
 70
0
  9
$PSLTSCALE
 70
1
  9
$TREEDEPTH
 70
3020
  9
$CMLSTYLE
  2
Standard
  9
$CMLJUST
 70
0
  9
$CMLSCALE
 40
20.0
  9
$PROXYGRAPHICS
 70
1
  9
$MEASUREMENT
 70
1
  9
$CELWEIGHT
370
-1
  9
$ENDCAPS
280
0
  9
$JOINSTYLE
280
0
  9
$LWDISPLAY
290
0
  9
$INSUNITS
 70
6
  9
$HYPERLINKBASE
  1

  9
$STYLESHEET
  1

  9
$XEDIT
290
1
  9
$CEPSNTYPE
380
0
  9
$PSTYLEMODE
290
1
  9
$FINGERPRINTGUID
  2
{BEC6D9EC-4F30-4F4F-8876-D61FCF66F377}
  9
$VERSIONGUID
  2
{3CC2D1BE-519C-44EC-AD6A-0F0E3CE40953}
  9
$EXTNAMES
290
1
  9
$PSVPSCALE
 40
0.0
  9
$OLESTARTUP
290
0
  9
$SORTENTS
280
127
  9
$INDEXCTL
280
0
  9
$HIDETEXT
280
1
  9
$XCLIPFRAME
280
1
  9
$HALOGAP
280
0
  9
$OBSCOLOR
 70
257
  9
$OBSLTYPE
280
0
  9
$INTERSECTIONDISPLAY
280
0
  9
$INTERSECTIONCOLOR
 70
257
  9
$DIMASSOC
280
2
  9
$PROJECTNAME
  1

  9
$CAMERADISPLAY
290
0
  9
$LENSLENGTH
 40
50.0
  9
$CAMERAHEIGHT
 40
0.0
  9
$STEPSPERSEC
 40
24.0
  9
$STEPSIZE
 40
100.0
  9
$3DDWFPREC
 40
2.0
  9
$PSOLWIDTH
 40
0.005
  9
$PSOLHEIGHT
 40
0.08
  9
$LOFTANG1
 40
1.570796326795
  9
$LOFTANG2
 40
1.570796326795
  9
$LOFTMAG1
 40
0.0
  9
$LOFTMAG2
 40
0.0
  9
$LOFTPARAM
 70
7
  9
$LOFTNORMALS
280
1
  9
$LATITUDE
 40
37.795
  9
$LONGITUDE
 40
-122.394
  9
$NORTHDIRECTION
 40
0.0
  9
$TIMEZONE
 70
-8000
  9
$LIGHTGLYPHDISPLAY
280
1
  9
$TILEMODELIGHTSYNCH
280
1
  9
$CMATERIAL
347
20
  9
$SOLIDHIST
280
0
  9
$SHOWHIST
280
1
  9
$DWFFRAME
280
2
  9
$DGNFRAME
280
2
  9
$REALWORLDSCALE
290
1
  9
$INTERFERECOLOR
 62
256
  9
$CSHADOW
280
0
  9
$SHADOWPLANELOCATION
 40
0.0
  0
ENDSEC
  0
SECTION
  2
CLASSES
  0
CLASS
  1
ACDBDICTIONARYWDFLT
  2
AcDbDictionaryWithDefault
  3
ObjectDBX Classes
 90
0
 91
0
280
0
281
0
  0
CLASS
  1
SUN
  2
AcDbSun
  3
SCENEOE
 90
1153
 91
0
280
0
281
0
  0
CLASS
  1
VISUALSTYLE
  2
AcDbVisualStyle
  3
ObjectDBX Classes
 90
4095
 91
0
280
0
281
0
  0
CLASS
  1
MATERIAL
  2
AcDbMaterial
  3
ObjectDBX Classes
 90
1153
 91
0
280
0
281
0
  0
CLASS
  1
SCALE
  2
AcDbScale
  3
ObjectDBX Classes
 90
1153
 91
0
280
0
281
0
  0
CLASS
  1
TABLESTYLE
  2
AcDbTableStyle
  3
ObjectDBX Classes
 90
4095
 91
0
280
0
281
0
  0
CLASS
  1
MLEADERSTYLE
  2
AcDbMLeaderStyle
  3
ACDB_MLEADERSTYLE_CLASS
 90
4095
 91
0
280
0
281
0
  0
CLASS
  1
DICTIONARYVAR
  2
AcDbDictionaryVar
  3
ObjectDBX Classes
 90
0
 91
0
280
0
281
0
  0
CLASS
  1
CELLSTYLEMAP
  2
AcDbCellStyleMap
  3
ObjectDBX Classes
 90
1152
 91
0
280
0
281
0
  0
CLASS
  1
MENTALRAYRENDERSETTINGS
  2
AcDbMentalRayRenderSettings
  3
SCENEOE
 90
1024
 91
0
280
0
281
0
  0
CLASS
  1
ACDBDETAILVIEWSTYLE
  2
AcDbDetailViewStyle
  3
ObjectDBX Classes
 90
1025
 91
0
280
0
281
0
  0
CLASS
  1
ACDBSECTIONVIEWSTYLE
  2
AcDbSectionViewStyle
  3
ObjectDBX Classes
 90
1025
 91
0
280
0
281
0
  0
CLASS
  1
RASTERVARIABLES
  2
AcDbRasterVariables
  3
ISM
 90
0
 91
0
280
0
281
0
  0
CLASS
  1
LAYOUT
  2
AcDbLayout
  3
ObjectDBX Classes
 90
0
 91
0
280
0
281
0
  0
CLASS
  1
ACDBPLACEHOLDER
  2
AcDbPlaceHolder
  3
ObjectDBX Classes
 90
0
 91
0
280
0
281
0
  0
ENDSEC
  0
SECTION
  2
TABLES
  0
TABLE
  2
VPORT
  5
8
330
0
100
AcDbSymbolTable
 70
1
  0
VPORT
  5
23
330
8
100
AcDbSymbolTableRecord
100
AcDbViewportTableRecord
  2
*Active
 70
0
 10
0.0
 20
0.0
 11
1.0
 21
1.0
 12
0.0
 22
0.0
 13
0.0
 23
0.0
 14
0.5
 24
0.5
 15
0.5
 25
0.5
 16
0.0
 26
0.0
 36
1.0
 17
0.0
 27
0.0
 37
0.0
 40
1000.0
 41
1.34
 42
50.0
 43
0.0
 44
0.0
 50
0.0
 51
0.0
 71
0
 72
1000
 73
1
 74
3
 75
0
 76
0
 77
0
 78
0
281
0
 65
0
146
0.0
  0
ENDTAB
  0
TABLE
  2
LTYPE
  5
2
330
0
100
AcDbSymbolTable
 70
3
  0
LTYPE
  5
24
330
2
100
AcDbSymbolTableRecord
100
AcDbLinetypeTableRecord
  2
ByBlock
 70
0
  3

 72
65
 73
0
 40
0.0
  0
LTYPE
  5
25
330
2
100
AcDbSymbolTableRecord
100
AcDbLinetypeTableRecord
  2
ByLayer
 70
0
  3

 72
65
 73
0
 40
0.0
  0
LTYPE
  5
26
330
2
100
AcDbSymbolTableRecord
100
AcDbLinetypeTableRecord
  2
Continuous
 70
0
  3

 72
65
 73
0
 40
0.0
  0
ENDTAB
  0
TABLE
  2
LAYER
  5
1
330
0
100
AcDbSymbolTable
 70
2
  0
LAYER
  5
27
330
1
100
AcDbSymbolTableRecord
100
AcDbLayerTableRecord
  2
0
 70
0
 62
7
  6
Continuous
370
-3
390
13
347
21
  0
LAYER
  5
28
330
1
100
AcDbSymbolTableRecord
100
AcDbLayerTableRecord
  2
Defpoints
 70
0
 62
7
  6
Continuous
290
0
370
-3
390
13
347
21
  0
ENDTAB
  0
TABLE
  2
STYLE
  5
5
330
0
100
AcDbSymbolTable
 70
1
  0
STYLE
  5
29
330
5
100
AcDbSymbolTableRecord
100
AcDbTextStyleTableRecord
  2
Standard
 70
0
 40
0.0
 41
1.0
 50
0.0
 71
0
 42
2.5
  3
txt
  4

  0
ENDTAB
  0
TABLE
  2
VIEW
  5
7
330
0
100
AcDbSymbolTable
 70
0
  0
ENDTAB
  0
TABLE
  2
UCS
  5
6
330
0
100
AcDbSymbolTable
 70
0
  0
ENDTAB
  0
TABLE
  2
APPID
  5
3
330
0
100
AcDbSymbolTable
 70
3
  0
APPID
  5
2A
330
3
100
AcDbSymbolTableRecord
100
AcDbRegAppTableRecord
  2
ACAD
 70
0
  0
APPID
  5
30
330
3
100
AcDbSymbolTableRecord
100
AcDbRegAppTableRecord
  2
HATCHBACKGROUNDCOLOR
 70
0
  0
APPID
  5
31
330
3
100
AcDbSymbolTableRecord
100
AcDbRegAppTableRecord
  2
EZDXF
 70
0
  0
ENDTAB
  0
TABLE
  2
DIMSTYLE
  5
4
330
0
100
AcDbSymbolTable
 70
1
100
AcDbDimStyleTable
  0
DIMSTYLE
105
2B
330
4
100
AcDbSymbolTableRecord
100
AcDbDimStyleTableRecord
  2
Standard
 70
0
 40
1.0
 41
2.5
 42
0.625
 43
3.75
 44
1.25
 45
0.0
 46
0.0
 47
0.0
 48
0.0
 49
2.5
140
2.5
141
2.5
142
0.0
143
0.03937007874
144
1.0
145
0.0
146
1.0
147
0.625
148
0.0
 69
0
 70
0
 71
0
 72
0
 73
0
 74
0
 75
0
 76
0
 77
1
 78
8
 79
3
170
0
171
3
172
1
173
0
174
0
175
0
176
0
177
0
178
0
179
2
271
2
272
2
273
2
274
3
275
0
276
0
277
2
278
44
279
0
280
0
281
0
282
0
283
0
284
8
285
0
286
0
288
0
289
3
290
0
371
-2
372
-2
  0
ENDTAB
  0
TABLE
  2
BLOCK_RECORD
  5
9
330
0
100
AcDbSymbolTable
 70
2
  0
BLOCK_RECORD
  5
17
330
9
100
AcDbSymbolTableRecord
100
AcDbBlockTableRecord
  2
*Model_Space
340
1A
 70
0
280
1
281
0
  0
BLOCK_RECORD
  5
1B
330
9
100
AcDbSymbolTableRecord
100
AcDbBlockTableRecord
  2
*Paper_Space
340
1E
 70
0
280
1
281
0
  0
ENDTAB
  0
ENDSEC
  0
SECTION
  2
BLOCKS
  0
BLOCK
  5
18
330
17
100
AcDbEntity
  8
0
100
AcDbBlockBegin
  2
*Model_Space
 70
0
 10
0.0
 20
0.0
 30
0.0
  3
*Model_Space
  1

  0
ENDBLK
  5
19
330
17
100
AcDbEntity
  8
0
100
AcDbBlockEnd
  0
BLOCK
  5
1C
330
1B
100
AcDbEntity
  8
0
100
AcDbBlockBegin
  2
*Paper_Space
 70
0
 10
0.0
 20
0.0
 30
0.0
  3
*Paper_Space
  1

  0
ENDBLK
  5
1D
330
1B
100
AcDbEntity
  8
0
100
AcDbBlockEnd
  0
ENDSEC
  0
SECTION
  2
ENTITIES
  0
LWPOLYLINE
  5
2F
330
17
100
AcDbEntity
  8
0
100
AcDbPolyline
 90
721
 70
1
 10
67.56897610632372
 20
45.75508559732281
 10
67.56658193297265
 20
45.75449400957115
 10
67.5595359952646
 20
45.75251754788008
 10
67.5481114578896
 20
45.748752815377266
 10
67.53207088928461
 20
45.74333321932637
 10
67.51182086140332
 20
45.73609279441821
 10
67.48719223385513
 20
45.72706409869834
 10
67.45815244859455
 20
45.716077991776174
 10
67.42490320405763
 20
45.70327105599673
 10
67.3874119421989
 20
45.68847415096945
 10
67.34544123145523
 20
45.67182068395792
 10
67.29932935260774
 20
45.65324553887106
 10
67.24897545643846
 20
45.63268042453636
 10
67.19431125177483
 20
45.61022619017188
 10
67.1354733209619
 20
45.585681137341496
 10
67.0723250816546
 20
45.5592469644813
 10
67.00503567424356
 20
45.53089111354579
 10
66.93350424951066
 20
45.50054529336245
 10
66.85766251628344
 20
45.46831035314932
 10
66.77774790612497
 20
45.43405288564279
 10
66.69352298747214
 20
45.397906298106484
 10
66.60512434267004
 20
45.35966889210428
 10
66.51261708780969
 20
45.31967894841733
 10
66.41576696640944
 20
45.277630744309995
 10
66.31487652612353
 20
45.23372915329989
 10
66.20974406851576
 20
45.187837593041934
 10
66.10047044280427
 20
45.14002435470865
 10
65.98705564898896
 20
45.09028943830005
 10
65.86943139589742
 20
45.03873369303422
 10
65.74759768352958
 20
44.985357118911125
 10
65.62169109423048
 20
44.929958017494634
 10
65.49157504565511
 20
44.87273808722091
 10
65.35741867819407
 20
44.813664770044404
 10
65.2190528514567
 20
44.75277062401062
 10
65.07661414778813
 20
44.689853950683485
 10
64.93006683406134
 20
44.625184739671624
 10
64.77934261910377
 20
44.5588638401931
 10
64.62464637643308
 20
44.49058870459374
 10
64.46574067448607
 20
44.42049274013712
 10
64.30289550287146
 20
44.34861167995027
 10
64.13584087198055
 20
44.27490979090615
 10
63.96477848024949
 20
44.19952365534986
 10
63.7896074784602
 20
44.12238498210885
 10
63.61042871583075
 20
44.04356206235564
 10
63.42720963431562
 20
43.96288575569966
 10
63.2400510831329
 20
43.88042435331345
 10
63.048715630719386
 20
43.79631126246056
 10
62.85347326668381
 20
43.71058221626804
 10
62.65422314180806
 20
43.62316892356333
 10
62.45096525609217
 20
43.53407138434644
 10
62.24369960953611
 20
43.44328959861737
 10
62.03245876018546
 20
43.35099270676672
 10
61.817210149994644
 20
43.25701156840389
 10
61.597986337009196
 20
43.161515323919474
 10
61.374855612401674
 20
43.064403124095406
 10
61.14795455851714
 20
42.96547327049556
 10
60.91724744222861
 20
42.8649957527286
 10
60.682496831972905
 20
42.76310397805813
 10
60.44370272775003
 20
42.65979794648413
 10
60.2011708522957
 20
42.55484340152496
 10
59.954832914437354
 20
42.44834119239868
 10
59.704688914174994
 20
42.340291319105276
 10
59.45053397799103
 20
42.23099632929897
 10
59.1927095617481
 20
42.11995197688941
 10
58.931179932319225
 20
42.00742825148527
 10
58.66587679853187
 20
41.89352600230461
 10
58.396631019995446
 20
41.77827778739297
 10
58.12371258631859
 20
41.66171933987736
 10
57.84708893945581
 20
41.54368151936717
 10
57.56676007940709
 20
41.424164325862385
 10
57.28269027304542
 20
41.3034377489717
 10
56.995152685060916
 20
41.181098391822815
 10
56.70390988389049
 20
41.05727966167936
 10
56.409095276797714
 20
40.93221899010446
 10
56.110708863782605
 20
40.8059163770981
 10
55.80878637797213
 20
40.67810183305162
 10
55.50325952819381
 20
40.548876207183106
 10
55.19433001288374
 20
40.418376081837614
 10
54.88176040047879
 20
40.28673486427873
 10
54.56575556449657
 20
40.15365000685227
 10
54.246416354155144
 20
40.01918980073075
 10
53.92374276945452
 20
39.88335424591419
 10
53.59759822804963
 20
39.74634504083871
 10
53.26798272994045
 20
39.60816218550432
 10
52.93496456629952
 20
39.468704830692936
 10
52.59881372673557
 20
39.32800870953159
 10
52.25926022163985
 20
39.18603808889325
 10
51.916404900230454
 20
39.042861259950456
 10
51.57055348524306
 20
38.898243966221536
 10
51.22153683628707
 20
38.75221876575203
 10
50.86925092906296
 20
38.60515649736869
 10
50.51379661278876
 20
38.45712545224402
 10
50.155108771373456
 20
38.307787349596865
 10
49.79359397677072
 20
38.15697622411801
 10
49.42897906429049
 20
38.005095472679805
 10
49.06133232510523
 20
37.85204424606413
 10
48.69058546804246
 20
37.69792339348908
 10
48.31697592466529
 20
37.54259950769104
 10
47.94050369497373
 20
37.38607258867002
 10
47.56106792974969
 20
37.22827434525346
 10
47.17880203625678
 20
37.06944220900452
 10
46.793605165276965
 20
36.90950788875068
 10
46.40571474837337
 20
36.7483379772283
 10
46.01513078554595
 20
36.585932474437406
 10
45.62195412601282
 20
36.422359671550524
 10
45.226015629383376
 20
36.25765212661319
 10
44.82727956253059
 20
36.09207982923405
 10
44.425849949754024
 20
35.92527194058641
 10
44.02196104753532
 20
35.75753418340591
 10
43.61568432212853
 20
35.588326578475225
 10
43.20695148236105
 20
35.41774997501239
 10
42.79575935315146
 20
35.246243503016714
 10
42.38203964332722
 20
35.07390801170625
 10
41.965795527969796
 20
34.90030437108173
 10
41.547566986296516
 20
34.72550404739714
 10
41.12711976182572
 20
34.54920131791682
 10
40.70445067947593
 20
34.371835312640044
 10
40.27939059885656
 20
34.193438589612335
 10
39.8522095095763
 20
34.01404688196071
 10
39.423011435934626
 20
33.83328935085842
 10
38.991760644804586
 20
33.651435985914134
 10
38.558320553841085
 20
33.46868848556398
 10
38.12303261890682
 20
33.28454260371763
 10
37.68596513117429
 20
33.09889749115701
 10
37.246978333217
 20
32.91239397631753
 10
36.80593881777134
 20
32.72479462763607
 10
36.36297999210088
 20
32.53633687667573
 10
35.91851160324087
 20
32.346415628128135
 10
35.47246536001873
 20
32.15513173121133
 10
35.02470468008943
 20
31.96268688436145
 10
34.57502468993534
 20
31.76938363523271
 10
34.123900252682745
 20
31.574955169297905
 10
33.67140283458566
 20
31.378861507339693
 10
33.217630109780664
 20
31.18161007052987
 10
32.76203892396896
 20
30.98356852261373
 10
32.30500329105875
 20
30.784401757891512
 10
31.846796375740173
 20
30.583706379490952
 10
31.387483294104303
 20
30.38182066819325
 10
30.926794056542448
 20
30.17870889087141
 10
30.46486207031824
 20
29.97460847908857
 10
30.001654777386115
 20
29.76935029245412
 10
29.53740960930925
 20
29.562800923704472
 10
29.07222741530568
 20
29.355028664012135
 10
28.606007346157327
 20
29.14596522220459
 10
28.138951100300364
 20
28.935747180626908
 10
27.67085697929863
 20
28.724237956934015
 10
27.20179009924321
 20
28.51177583190712
 10
26.731818751306605
 20
28.29825995632814
 10
26.261284391351523
 20
28.083186084106742
 10
25.790050437032892
 20
27.866755913679075
 10
25.318250295614288
 20
27.64920687660825
 10
24.845613977487066
 20
27.430503239767287
 10
24.372479763432406
 20
27.21057988706511
 10
23.89891594462288
 20
26.989335969283655
 10
23.424990812230984
 20
26.766670637204836
 10
22.950567783911666
 20
26.542785589264803
 10
22.475679417710463
 20
26.317849965854165
 10
22.00032571362737
 20
26.09186376697291
 10
21.52481239439807
 20
25.86459273613937
 10
21.04910690197701
 20
25.63586773296294
 10
20.5733783767548
 20
25.40565619939809
 10
20.097522794431917
 20
25.174328974271557
 10
19.62123443227267
 20
24.942120314065004
 10
19.144851571058275
 20
24.708965102687372
 10
18.668819690950933
 20
24.47398825522157
 10
18.192729044915456
 20
24.237794866976028
 10
17.716713040215424
 20
24.00062236951386
 10
17.240807409977855
 20
23.762200773226407
 10
16.765080445375265
 20
23.522429228895593
 10
16.28952897132621
 20
23.2817468665207
 10
15.814120429785136
 20
23.03998454571111
 10
15.339160543487724
 20
22.796908009985167
 10
14.8645484632159
 20
22.552448968170328
 10
14.39041759623327
 20
22.30684485182973
 10
13.916699651367312
 20
22.06019651018145
 10
13.443599502135612
 20
21.81220139557127
 10
12.971048857365627
 20
21.562960357217253
 10
12.499080275102923
 20
21.31264253551003
 10
12.0273880326118
 20
21.06148218693124
 10
11.55658357536362
 20
20.80901079851756
 10
11.086666903358367
 20
20.555228370268978
 10
10.617569725423518
 20
20.300235751403566
 10
10.149223750386533
 20
20.044133791139394
 10
9.68179811863802
 20
19.786889931430927
 10
9.215123689787369
 20
19.528536730323694
 10
8.74947045344326
 20
19.269109920944704
 10
8.284974991950753
 20
19.00840780485781
 10
7.821569014137316
 20
18.74653123128109
 10
7.35918422883042
 20
18.483581049432594
 10
6.897888927202599
 20
18.219456410094278
 10
6.4380213900350505
 20
17.954092197175054
 10
5.979344185764641
 20
17.68762181793853
 10
5.521821581264377
 20
17.42031526199338
 10
5.065694183178856
 20
17.151599992076726
 10
4.61102710759914
 20
16.881814288969768
 10
4.157615481007641
 20
16.611260700326717
 10
3.7055633277038806
 20
16.339568387320828
 10
3.2552089284690746
 20
16.066672233861034
 10
2.806415700958149
 20
15.792773938383478
 10
2.3592193782981012
 20
15.517603511279477
 10
1.9136850765799969
 20
15.241499233330238
 10
1.4698485289308518
 20
14.964191114927099
 10
1.0278431426142485
 20
14.685916587633182
 10
0.5872623456764643
 20
14.406841616757642
 10
0.14844441889870208
 20
14.126901086209397
 10
-0.28833747302890766
 20
13.845691599116178
 10
-0.7231516212789029
 20
13.563314004696045
 10
-1.156102050150807
 20
13.280139141775743
 10
-1.5871204684720819
 20
12.996066161137211
 10
-2.016138585070212
 20
12.710994213562367
 10
-2.443055550727109
 20
12.424991590223753
 10
-2.8681087970059216
 20
12.13819169838497
 10
-3.291334057033645
 20
11.850864527654688
 10
-3.7123573169020734
 20
11.562674972333172
 10
-4.131041994266136
 20
11.273421333984272
 10
-4.547524671470909
 20
10.983305311044138
 10
-4.961772790470849
 20
10.692496043903366
 10
-5.373887200484036
 20
10.40092524138942
 10
-5.783835343464923
 20
10.108762043892908
 10
-6.191584661367985
 20
9.816175591804424
 10
-6.596962838721139
 20
9.52269419707917
 10
-6.999869026306331
 20
9.228386150889676
 10
-7.40054383076816
 20
8.933823990498814
 10
-7.798951518979618
 20
8.63873772629792
 10
-8.194822101332045
 20
8.343163091413988
 10
-8.588357276261574
 20
8.04696350350195
 10
-8.97935534533206
 20
7.750275544906876
 10
-9.36785204167051
 20
7.453369205237438
 10
-9.754117354885588
 20
7.156208751366638
 10
-10.137708979896573
 20
6.858358228376655
 10
-10.518834965302505
 20
6.560559313920985
 10
-10.89773274266653
 20
6.262945415263227
 10
-11.274093414171526
 20
5.964843145922427
 10
-11.647614432163278
 20
5.666457379416189
 10
-12.018601519377453
 20
5.36802237222619
 10
-12.38712296698659
 20
5.069638973570494
 10
-12.753042192645609
 20
4.771105485012971
 10
-13.116225789090917
 20
4.472659338116749
 10
-13.476875454758652
 20
4.174163950536762
 10
-13.834994364730273
 20
3.8760584522722876
 10
-14.190445936660716
 20
3.578141144887185
 10
-14.543161879377443
 20
3.280311179163385
 10
-14.893210484052991
 20
2.9826694043189597
 10
-15.240627483814356
 20
2.6854858099625756
 10
-15.585513727879606
 20
2.3886921049217054
 10
-15.927530935467539
 20
2.0922231731052716
 10
-16.266679106578156
 20
1.796079014513278
 10
-16.60299079925699
 20
1.5000904887551207
 10
-16.936433455458506
 20
1.2044267362214023
 10
-17.267211948700297
 20
0.9093903045663316
 10
-17.595293720936837
 20
0.6151503341805106
 10
-17.92040560747799
 20
0.3213034281916617
 10
-18.242648457541826
 20
0.027781295427249768
 10
-18.5616514323016
 20
-0.2653120398131899
 10
-18.877821103711053
 20
-0.5578106122205209
 10
-19.19122576294272
 20
-0.8496135725766736
 10
-19.50166371156046
 20
-1.1405843385365755
 10
-19.809066658391743
 20
-1.4308237593183013
 10
-20.113330579137035
 20
-1.720702673748591
 10
-20.4146277892684
 20
-2.0097493937826334
 10
-20.71316316230344
 20
-2.2976613717662246
 10
-21.008494393161424
 20
-2.5848745626171703
 10
-21.300722331060406
 20
-2.871457257508008
 10
-21.589781859909326
 20
-3.1570711756575345
 10
-21.875773828926256
 20
-3.4417846082382835
 10
-22.15876652928372
 20
-3.7254967060321804
 10
-22.438454238246052
 20
-4.0084417255209015
 10
-22.714973538158326
 20
-4.290417968268314
 10
-22.98832442902053
 20
-4.571425434274409
 10
-23.258780075522804
 20
-4.8510607266669155
 10
-23.52607048805648
 20
-5.129288112318834
 10
-23.790192491540083
 20
-5.40654672122944
 10
-24.05090865441049
 20
-5.682969960662338
 10
-24.30839129213977
 20
-5.95808614257272
 10
-24.56287783629104
 20
-6.231761859696978
 10
-24.81399427295611
 20
-6.504332217734852
 10
-25.06177633526197
 20
-6.775527227077681
 10
-25.306494012817303
 20
-7.045382620852451
 10
-25.547945607185966
 20
-7.313761816714103
 10
-25.78592624485035
 20
-7.580967362316843
 10
-26.02064079932807
 20
-7.846696710006459
 10
-26.252157561791645
 20
-8.110849010564888
 10
-26.480408241068556
 20
-8.373525113210194
 10
-26.705291987940722
 20
-8.634656726769848
 10
-26.92674051123561
 20
-8.894344700461918
 10
-27.144922951343837
 20
-9.152556476240868
 10
-27.359637609829246
 20
-9.409155471761629
 10
-27.57102106903691
 20
-9.663939988588064
 10
-27.779138445057903
 20
-9.91724830750138
 10
-27.98368719023802
 20
-10.168875554983977
 10
-28.184699862622793
 20
-10.418990871426454
 10
-28.382449626902357
 20
-10.667190859956534
 10
-28.57693648307671
 20
-10.913475520574224
 10
-28.767922999582716
 20
-11.157978260543123
 10
-28.955340885247846
 20
-11.400799929081302
 10
-29.13922269811763
 20
-11.642109666579358
 10
-29.319708195618603
 20
-11.88126664460189
 10
-29.496829935796292
 20
-12.118440003539492
 10
-29.67045133630564
 20
-12.353831441828303
 10
-29.84047154792857
 20
-12.587372668295792
 10
-30.00702715301015
 20
-12.81886198450582
 10
-30.169981569205316
 20
-13.048501088894527
 10
-30.329403087686604
 20
-13.276189132243836
 10
-30.485359999626542
 20
-13.501825265335693
 10
-30.63761487346199
 20
-13.725542895433684
 10
-30.786372582710563
 20
-13.947039474883619
 10
-30.93146081190018
 20
-14.166786691730294
 10
-31.073051876502916
 20
-14.384312857928906
 10
-31.211077485346237
 20
-14.599718822697527
 10
-31.345469347257605
 20
-14.813105435254224
 10
-31.476126613018955
 20
-15.02440440442646
 10
-31.60321842302089
 20
-15.233583172168705
 10
-31.726848801562937
 20
-15.440270899654209
 10
-31.846881166300022
 20
-15.644669285319116
 10
-31.963315517232164
 20
-15.846778329163431
 10
-32.076320994749956
 20
-16.046565473141612
 10
-32.18562760924472
 20
-16.243994984126658
 10
-32.2914727922796
 20
-16.43893345485497
 10
-32.39389227698158
 20
-16.631110895717875
 10
-32.49298691256876
 20
-16.82059559788791
 10
-32.58851926747796
 20
-17.007520968628675
 10
-32.68065848209984
 20
-17.191854449894635
 10
-32.7692028579982
 20
-17.37345945934073
 10
-32.85449067595429
 20
-17.552270880875874
 10
-32.93638852870448
 20
-17.728051282936942
 10
-33.014860683121775
 20
-17.901070655132603
 10
-33.08990713920619
 20
-18.071328997462857
 10
-33.161527896957715
 20
-18.238826309927703
 10
-33.22975868950335
 20
-18.403292602918476
 10
-33.29459951684309
 20
-18.564727876435168
 10
-33.35594635467741
 20
-18.723502969304516
 10
-33.41390322730583
 20
-18.87924704269979
 10
-33.468196970038235
 20
-19.032363493493268
 10
-33.51910074756474
 20
-19.18244892481266
 10
-33.56634139519524
 20
-19.329906733530255
 10
-33.61005549527476
 20
-19.474535221209905
 10
-33.65024304780333
 20
-19.616334387851616
 10
-33.686734912390335
 20
-19.755336791500923
 10
-33.719869369817
 20
-19.89147731606676
 10
-33.74913899891147
 20
-20.02485363568572
 10
-33.77498292967308
 20
-20.155468925439273
 10
-33.79713117249312
 20
-20.283287452200426
 10
-33.8157886008892
 20
-20.408006668314965
 10
-33.83091948173431
 20
-20.529896563391567
 10
-33.842491256982946
 20
-20.648787997039626
 10
-33.85077709132521
 20
-20.764277572386863
 10
-33.85567296046159
 20
-20.876736128260024
 10
-33.85721459751907
 20
-20.985893675050434
 10
-33.85553858484272
 20
-21.091548514321957
 10
-33.85091808712268
 20
-21.19329724920231
 10
-33.84335310435894
 20
-21.2911398796915
 10
-33.833081068114645
 20
-21.384942998525922
 10
-33.82024173581632
 20
-21.474065777270162
 10
-33.80520912137217
 20
-21.55817311022448
 10
-33.788766985725594
 20
-21.63632479638071
 10
-33.77119166864819
 20
-21.707678308867305
 10
-33.75367667811856
 20
-21.770688351367696
 10
-33.737415522115285
 20
-21.8238096275653
 10
-33.723845490343066
 20
-21.86448517388141
 10
-33.71477471133328
 20
-21.89026205103681
 10
-33.280241962816156
 20
-22.536086935994817
 10
-33.27484297787364
 20
-22.53993271383821
 10
-33.258714314218636
 20
-22.551369198150322
 10
-33.23212913654127
 20
-22.569992992058868
 10
-33.193825645690424
 20
-22.597450241098503
 10
-33.142571425479005
 20
-22.635995361193736
 10
-33.08181676766069
 20
-22.680315901832444
 10
-33.013577849365944
 20
-22.72721724608195
 10
-32.938944154273855
 20
-22.775524936452413
 10
-32.85924894778954
 20
-22.823052848191857
 10
-32.77500600124772
 20
-22.868825047165124
 10
-32.68675846894721
 20
-22.91247386962694
 10
-32.59467866636008
 20
-22.953527627532484
 10
-32.499039758176444
 20
-22.99158292400949
 10
-32.39997832674139
 20
-23.02643806062181
 10
-32.297494372054906
 20
-23.058093037369453
 10
-32.191757034507596
 20
-23.086515296206873
 10
-32.08280204722645
 20
-23.111434847525413
 10
-31.970561119038955
 20
-23.132952540543126
 10
-31.8552033903357
 20
-23.15103581721449
 10
-31.736491429553546
 20
-23.1658180848031
 10
-31.61449352786503
 20
-23.177198494090888
 10
-31.489547966051372
 20
-23.1851119289868
 10
-31.361147322940734
 20
-23.18965606362741
 10
-31.229662437359885
 20
-23.19093492231228
 10
-31.09482331970014
 20
-23.188912771914396
 10
-30.956799110352105
 20
-23.183557054388228
 10
-30.8156581004883
 20
-23.1747669205157
 10
-30.67119541659115
 20
-23.162844917951027
 10
-30.523547641005695
 20
-23.14758934825807
 10
-30.37244160904183
 20
-23.129403608309097
 10
-30.21808219421713
 20
-23.107985150449917
 10
-30.06043366340461
 20
-23.08360396428919
 10
-29.899395167386196
 20
-23.056191758654375
 10
-29.734830123816828
 20
-23.02595023198163
 10
-29.5669076730871
 20
-22.992846826225406
 10
-29.395559524024492
 20
-22.956982390603777
 10
-29.22078567662899
 20
-22.918356925116733
 10
-29.042280408164928
 20
-22.877204686245967
 10
-28.860313708240977
 20
-22.83356140711846
 10
-28.67475216959354
 20
-22.787189656171083
 10
-28.485797490658747
 20
-22.7382260157489
 10
-28.293212239873462
 20
-22.686803893115517
 10
-28.097097266455762
 20
-22.63299157944347
 10
-27.897420012360108
 20
-22.57661993434216
 10
-27.694417909149628
 20
-22.51755555054797
 10
-27.487921816433726
 20
-22.45583098610644
 10
-27.27806514147601
 20
-22.391683672580708
 10
-27.06474703505841
 20
-22.32504531879825
 10
-26.847967497180917
 20
-22.25591592475905
 10
-26.62793140136114
 20
-22.183992942808906
 10
-26.404739596817144
 20
-22.109344664120357
 10
-26.178291234330864
 20
-22.03190279752086
 10
-25.948550580775297
 20
-21.951937332619092
 10
-25.715517636150445
 20
-21.86944826941506
 10
-25.47946556514645
 20
-21.784032211036475
 10
-25.240358634636298
 20
-21.695959147092015
 10
-24.998164286574468
 20
-21.605059937191083
 10
-24.75281422978842
 20
-21.511435430551728
 10
-24.504409313496218
 20
-21.41515391834651
 10
-24.253017828870405
 20
-21.316114551357334
 10
-23.99857148473845
 20
-21.214418178802294
 10
-23.74107028110034
 20
-21.110064800681375
 10
-23.48058250912861
 20
-21.002953567776505
 10
-23.217140726868806
 20
-20.893253620478298
 10
-22.950744934320923
 20
-20.780964958786743
 10
-22.681362573439426
 20
-20.66591844231125
 10
-22.40905876031538
 20
-20.548452351833014
 10
-22.13380093690326
 20
-20.42839754696143
 10
-21.855520812030527
 20
-20.305854876914577
 10
-21.57438752608778
 20
-20.180791783646914
 10
-21.290605952592628
 20
-20.05290571950424
 10
-21.003971218027463
 20
-19.922499232140748
 10
-20.714245890829154
 20
-19.78970572882005
 10
-20.42180080982444
 20
-19.654629233841685
 10
-20.12657085892225
 20
-19.51693146642444
 10
-19.82862432929511
 20
-19.376511577350247
 10
-19.528026337034106
 20
-19.23370784740031
 10
-19.224607741748624
 20
-19.088552834620167
 10
-18.91850512578373
 20
-18.94084484057368
 10
-18.609819338357507
 20
-18.790652156433378
 10
-18.29861867064248
 20
-18.637873932981197
 10
-17.984698249121042
 20
-18.482812717871344
 10
-17.66819465613826
 20
-18.325266812667675
 10
-17.348971309349082
 20
-18.165437915806336
 10
-17.02743478070723
 20
-18.003160061978182
 10
-16.703315080604046
 20
-17.838397518056215
 10
-16.37671305825759
 20
-17.67121857521297
 10
-16.047661271713398
 20
-17.501792373839045
 10
-15.716195454098473
 20
-17.329848924325777
 10
-15.38227987228582
 20
-17.155658216281832
 10
-15.046083666666028
 20
-16.979187691661675
 10
-14.707541721148033
 20
-16.8000990696841
 10
-14.36685573416798
 20
-16.618528932694176
 10
-14.023820832208253
 20
-16.434779828346105
 10
-13.678437015268873
 20
-16.248851756639898
 10
-13.330704283349819
 20
-16.060744717575545
 10
-12.980928359186773
 20
-15.870224454671376
 10
-12.629245825124801
 20
-15.677089269491251
 10
-12.275282667255698
 20
-15.481674267734915
 10
-11.919240584015599
 20
-15.284116031747434
 10
-11.561155308531504
 20
-15.084144571920133
 10
-11.201264272366554
 20
-14.881626480989413
 10
-10.839362602003142
 20
-14.676864306609477
 10
-10.475414564314272
 20
-14.470128038389
 10
-10.109455892426945
 20
-14.261147686719307
 10
-9.741691459858755
 20
-14.049620703946188
 10
-9.37218638270078
 20
-13.835885370850859
 10
-9.000872369780485
 20
-13.620042536651379
 10
-8.627547722661726
 20
-13.401955619002683
 10
-8.25258328017125
 20
-13.181728642204305
 10
-7.876014775436056
 20
-12.959091616647575
 10
-7.497842208456141
 20
-12.734044542332487
 10
-7.118098137277037
 20
-12.506756559649645
 10
-6.736441106036082
 20
-12.277731914689397
 10
-6.353176837468943
 20
-12.046736350970068
 10
-5.968477647047685
 20
-11.813298180446846
 10
-5.582275243599778
 20
-11.577518252337805
 10
-5.194771325561355
 20
-11.339533148988007
 10
-4.805591879024217
 20
-11.099677976097198
 10
-4.4149743355514985
 20
-10.85781932640177
 10
-4.022918695143197
 20
-10.613957199901726
 10
-3.6295615401443846
 20
-10.367889898160927
 10
-3.2348345793825235
 20
-10.119718270397442
 10
-2.83880292894869
 20
-9.869780597392479
 10
-2.441401472751811
 20
-9.617738598364829
 10
-2.0429684915730815
 20
-9.363527157223414
 10
-1.6434356942399801
 20
-9.107247123186315
 10
-1.2427347895799674
 20
-8.848999345471595
 10
-0.8408332195475126
 20
-8.588614683688654
 10
-0.43817011414189155
 20
-8.326096312918956
 10
-0.03471291531756287
 20
-8.061275092771893
 10
0.37004897317874974
 20
-7.7946878273833455
 10
0.7758455617383558
 20
-7.526370249880322
 10
1.1821662541080018
 20
-7.255785556126926
 10
1.5894176222414171
 20
-6.983099711432311
 10
1.9975671080930761
 20
-6.708481856187068
 10
2.406276430881767
 20
-6.431866874300132
 10
2.81567899787109
 20
-6.1530173342083705
 10
3.2255731106249166
 20
-5.8720698182568425
 10
3.6363327830514396
 20
-5.589359432145299
 10
4.047720583587527
 20
-5.304752768610132
 10
4.459294207152454
 20
-5.017813872733521
 10
4.871359376481874
 20
-4.728777000997151
 10
5.284088407047861
 20
-4.438113841445825
 10
5.697175576114733
 20
-4.145590137597879
 10
6.11065344172804
 20
-3.8510367490627
 10
6.5245577370147725
 20
-3.554723665448965
 10
6.938615297284802
 20
-3.256247489884393
 10
7.3528261225381275
 20
-2.955608222368984
 10
7.767362528246808
 20
-2.653277550947553
 10
8.182191956365308
 20
-2.3494246160107033
 10
8.597346964939174
 20
-2.043880277167823
 10
9.012521831232721
 20
-1.7364102779372506
 10
9.427853137591029
 20
-1.4272163167551124
 10
9.843340884014095
 20
-1.1162983936214128
 10
10.258884221283843
 20
-0.8037247997086906
 10
10.674278275882678
 20
-0.4891929873627321
 10
11.089659630155667
 20
-0.17290465501967653
 10
11.505099750356809
 20
0.14460021810313414
 10
11.920732043749696
 20
0.4635590635688271
 10
12.336149938380608
 20
0.7841378466865571
 10
12.751522574640129
 20
1.1063040094107768
 10
13.166648254092129
 20
1.4299209693964212
 10
13.581696117127208
 20
1.7549561685979584
 10
13.996597872572844
 20
2.0815104562334583
 10
14.411220113165419
 20
2.409346400739781
 10
14.825800270468077
 20
2.738330594853327
 10
15.240270053308274
 20
3.068563887792156
 10
15.65435947207735
 20
3.400010546429279
 10
16.068237667165903
 20
3.7326380127191596
 10
16.481940371700926
 20
4.066176297053121
 10
16.895295270210358
 20
4.401097087475976
 10
17.308237246603134
 20
4.737062103206522
 10
17.720902883224316
 20
5.073869645808618
 10
18.13322388890137
 20
5.411620564500337
 10
18.54506368128922
 20
5.750516557717807
 10
18.956558842732953
 20
6.090355927024905
 10
19.367644257141478
 20
6.430800391640411
 10
19.77828419138781
 20
6.772119941173006
 10
20.188582669771474
 20
7.113943736795949
 10
20.598334818774873
 20
7.456574326163441
 10
21.00747234722547
 20
7.800112558493556
 10
21.41613183746834
 20
8.14435673535016
 10
21.82431646458492
 20
8.488867726733965
 10
22.232127077793322
 20
8.833713823817522
 10
22.639257954357838
 20
9.17912928308249
 10
23.04577738545101
 20
9.525013255310807
 10
23.451685371072855
 20
9.871365740502476
 10
23.8570502023959
 20
10.218085889439422
 10
24.26160188981146
 20
10.565137968994648
 10
24.665509573710146
 20
10.912489421122624
 10
25.068740696046426
 20
11.25997110543274
 10
25.471532688383427
 20
11.607449614661395
 10
25.87341068759488
 20
11.955191763335794
 10
26.274442984853327
 20
12.303096702237879
 10
26.675071885239486
 20
12.650728476449821
 10
27.07468594328205
 20
12.99855559893499
 10
27.47321686780846
 20
13.346678918911442
 10
27.871175255071993
 20
13.694561632243296
 10
28.26849598898156
 20
14.04186545814934
 10
28.664870171720057
 20
14.389263783110533
 10
29.060265245241936
 20
14.736587466736271
 10
29.45458036032912
 20
15.083768217854017
 10
29.848052948544765
 20
15.430672629200169
 10
30.240650451843322
 20
15.777131560384124
 10
30.632441161397328
 20
16.123044162187814
 10
31.023187645643638
 20
16.468543841874844
 10
31.412753322237183
 20
16.81383229788134
 10
31.801343064695597
 20
17.158606982553117
 10
32.188956873018846
 20
17.50286789589016
 10
32.57546133994333
 20
17.84637760632934
 10
32.961058163905186
 20
18.18927269621571
 10
33.345340772950685
 20
18.531719130858423
 10
33.72837745825237
 20
18.873616061039424
 10
34.11050967567288
 20
19.214459240668333
 10
34.4916691340397
 20
19.554349518963242
 10
34.87151755257162
 20
19.893352012015217
 10
35.250324920877325
 20
20.23150245295126
 10
35.627821249348116
 20
20.56876510864437
 10
36.00410738720207
 20
20.90520827026707
 10
36.37921906756621
 20
21.24056194821071
 10
36.75305544122244
 20
21.57475785130274
 10
37.125853939733915
 20
21.907662572279566
 10
37.49720799114687
 20
22.239442076450317
 10
37.867319293897474
 20
22.570232946160072
 10
38.23591785837703
 20
22.89999944828182
 10
38.60341343162076
 20
23.228136487507157
 10
38.96970516441058
 20
23.554575772663547
 10
39.33458500814742
 20
23.88005898140446
 10
39.69768212400456
 20
24.20448208943039
 10
40.0597445397984
 20
24.52717488534184
 10
40.42050226592026
 20
24.8481016360118
 10
40.77968213768003
 20
25.167665738312557
 10
41.13728415507765
 20
25.485867192244093
 10
41.493376609285725
 20
25.80260514858838
 10
41.848300956166874
 20
26.11737536125503
 10
42.201718914939924
 20
26.43024294633514
 10
42.5536273105234
 20
26.741647033827977
 10
42.90382444448115
 20
27.05145104138847
 10
43.25244689915827
 20
27.3594532705805
 10
43.5996312568998
 20
27.665452022967898
 10
43.94524093536069
 20
27.969648996986816
 10
44.28917508532284
 20
28.271975901464717
 10
44.631671138349425
 20
28.572299329138016
 10
44.972527396004295
 20
28.870482697661622
 10
45.31163983398792
 20
29.16689684586229
 10
45.64880675386414
 20
29.461405191394945
 10
45.984467285632256
 20
29.754010909341055
 10
46.31835461476505
 20
30.044239136574344
 10
46.65067043969866
 20
30.332226455439873
 10
46.98134646926056
 20
30.61807371515573
 10
47.3100444226695
 20
30.901846031812962
 10
47.636832591098084
 20
31.183442556193526
 10
47.96198096415493
 20
31.4628990214244
 10
48.2852552853584
 20
31.739909704769925
 10
48.606892986271596
 20
32.01434119896649
 10
48.92658834415888
 20
32.28642776049577
 10
49.244373917065786
 20
32.556338529748366
 10
49.56021714694673
 20
32.823904366333686
 10
49.874118033801764
 20
33.08912527025171
 10
50.18618060193042
 20
33.35163040267573
 10
50.49630082703314
 20
33.61179060243246
 10
50.80434530184632
 20
33.869368437958755
 10
51.11027829324296
 20
34.12463389886331
 10
51.41430467474069
 20
34.37728443749191
 10
51.71639188829396
 20
34.62715091345397
 10
52.016335060385146
 20
34.87453587440365
 10
52.31413419101429
 20
35.11943932034101
 10
52.609789280181346
 20
35.361861251265985
 10
52.90323521179529
 20
35.60146338639743
 10
53.19481026663729
 20
35.83818060964424
 10
53.48407213962662
 20
36.07244887592424
 10
53.77098827271776
 20
36.30409904484683
 10
54.05565951512877
 20
36.533199407584526
 10
54.33812159998664
 20
36.75947997452867
 10
54.61820538690073
 20
36.98297330372478
 10
54.896044283134735
 20
37.203916826736034
 10
55.171641463770065
 20
37.42187141356311
 10
55.44486034646164
 20
37.63703876264217
 10
55.715769222382
 20
37.849318024755135
 10
55.98416321801358
 20
38.059011747556234
 10
56.25017891570141
 20
38.2659182326093
 10
56.51371546622744
 20
38.469969188741835
 10
56.77484116076418
 20
38.67106376673572
 10
57.033588557357184
 20
38.869371106981596
 10
57.2896876663978
 20
39.06485547635248
 10
57.54313848788598
 20
39.25751687484832
 10
57.79411016221238
 20
39.447322744423616
 10
58.042670980549474
 20
39.63417223586028
 10
58.288414370943585
 20
39.81823131446748
 10
58.531441182612724
 20
39.999568271417715
 10
58.77195628907454
 20
40.1778805590568
 10
59.00979054993839
 20
40.35320073543026
 10
59.24480738285925
 20
40.52573049897426
 10
59.47724421940022
 20
40.69533644242516
 10
59.706967652297706
 20
40.86178113421985
 10
59.93394194842473
 20
41.025334563966965
 10
60.158098816608735
 20
41.18609758088461
 10
60.37933740763164
 20
41.34400189380024
 10
60.59779430383854
 20
41.49884580427773
 10
60.81340121405689
 20
41.65073016153512
 10
61.02602155594163
 20
41.79985666400857
 10
61.23572362066531
 20
41.94612446248003
 10
61.44254314135489
 20
42.08926356734078
 10
61.64648011801035
 20
42.22927397859084
 10
61.8473622351597
 20
42.366627384275034
 10
62.04515693475736
 20
42.501154644002746
 10
62.239864216803355
 20
42.63285575777399
 10
62.43155237247017
 20
42.76162987637066
 10
62.62012055253975
 20
42.88740870862027
 10
62.80566960623021
 20
43.01026054569533
 10
62.987962101978376
 20
43.13031879485944
 10
63.16713462212933
 20
43.24738175767648
 10
63.343050584337995
 20
43.36165113258257
 10
63.5159474201675
 20
43.472993512314126
 10
63.68548684883664
 20
43.581474012962175
 10
63.85170142839096
 20
43.687261774917374
 10
64.01455860078495
 20
43.790187657789104
 10
64.17422750640918
 20
43.890219103531805
 10
64.3304707137005
 20
43.987489519409095
 10
64.48352565422209
 20
44.0818654981574
 10
64.63298575602016
 20
44.1735130050858
 10
64.77912100870344
 20
44.262467773321355
 10
64.92172971383573
 20
44.34859322051894
 10
65.06091272063517
 20
44.431957637851156
 10
65.19667002910172
 20
44.512561025317936
 10
65.3289333480628
 20
44.59050423213738
 10
65.45767011947298
 20
44.66561811791891
 10
65.58274376098709
 20
44.7381043810986
 10
65.7043234129958
 20
44.807930463630974
 10
65.82223993510848
 20
44.875128923561554
 10
65.93656161849768
 20
44.93959891167225
 10
66.04722017199082
 20
45.00144127718114
 10
66.15428388676051
 20
45.060555170870174
 10
66.25768447163416
 20
45.117041441957404
 10
66.35728534426671
 20
45.17110178887896
 10
66.45312223778517
 20
45.22246622202618
 10
66.54532855945314
 20
45.27137217296221
 10
66.6335334704439
 20
45.31771561738751
 10
66.71810780958413
 20
45.3616005796016
 10
66.79884987843776
 20
45.402890477259426
 10
66.8756230946597
 20
45.441787008797135
 10
66.94859659864052
 20
45.47825761616917
 10
67.01766954116222
 20
45.51223400820301
 10
67.08270533987967
 20
45.54391788333479
 10
67.14394142635604
 20
45.57317583430092
 10
67.20114036902817
 20
45.60014126836497
 10
67.2543704590686
 20
45.62471333630889
 10
67.30349511413226
 20
45.64709373656885
 10
67.34858262539176
 20
45.667181619926744
 10
67.3896655508925
 20
45.68514612677316
 10
67.42654219219843
 20
45.700850674763075
 10
67.45924510735507
 20
45.714464404287064
 10
67.48787514558046
 20
45.72605560651764
 10
67.51223060843853
 20
45.7354876991098
 10
67.53227576280221
 20
45.74303067167216
 10
67.54817974906213
 20
45.748651966159194
 10
67.55960428643714
 20
45.75241669866201
 10
67.56658193297265
 20
45.75449400957115
 10
67.56897610632372
 20
45.75508559732281
  0
ENDSEC
  0
SECTION
  2
OBJECTS
  0
DICTIONARY
  5
A
330
0
100
AcDbDictionary
280
0
281
1
  3
ACAD_COLOR
350
B
  3
ACAD_GROUP
350
C
  3
ACAD_LAYOUT
350
D
  3
ACAD_MATERIAL
350
E
  3
ACAD_MLEADERSTYLE
350
F
  3
ACAD_MLINESTYLE
350
10
  3
ACAD_PLOTSETTINGS
350
11
  3
ACAD_PLOTSTYLENAME
350
12
  3
ACAD_SCALELIST
350
14
  3
ACAD_TABLESTYLE
350
15
  3
ACAD_VISUALSTYLE
350
16
  3
EZDXF_META
350
2D
  0
DICTIONARY
  5
B
330
A
100
AcDbDictionary
280
0
281
1
  0
DICTIONARY
  5
C
330
A
100
AcDbDictionary
280
0
281
1
  0
DICTIONARY
  5
D
330
A
100
AcDbDictionary
280
0
281
1
  3
Model
350
1A
  3
Layout1
350
1E
  0
DICTIONARY
  5
E
330
A
100
AcDbDictionary
280
0
281
1
  3
ByBlock
350
1F
  3
ByLayer
350
20
  3
Global
350
21
  0
DICTIONARY
  5
F
330
A
100
AcDbDictionary
280
0
281
1
  3
Standard
350
2C
  0
DICTIONARY
  5
10
330
A
100
AcDbDictionary
280
0
281
1
  3
Standard
350
22
  0
DICTIONARY
  5
11
330
A
100
AcDbDictionary
280
0
281
1
  0
ACDBDICTIONARYWDFLT
  5
12
330
A
100
AcDbDictionary
280
0
281
1
  3
Normal
350
13
100
AcDbDictionaryWithDefault
340
13
  0
ACDBPLACEHOLDER
  5
13
330
12
  0
DICTIONARY
  5
14
330
A
100
AcDbDictionary
280
0
281
1
  0
DICTIONARY
  5
15
330
A
100
AcDbDictionary
280
0
281
1
  0
DICTIONARY
  5
16
330
A
100
AcDbDictionary
280
0
281
1
  0
LAYOUT
  5
1A
330
D
100
AcDbPlotSettings
  1

  4
A3
  6

 40
7.5
 41
20.0
 42
7.5
 43
20.0
 44
420.0
 45
297.0
 46
0.0
 47
0.0
 48
0.0
 49
0.0
140
0.0
141
0.0
142
1.0
143
1.0
 70
1024
 72
1
 73
0
 74
5
  7

 75
16
 76
0
 77
2
 78
300
147
1.0
148
0.0
149
0.0
100
AcDbLayout
  1
Model
 70
1
 71
0
 10
0.0
 20
0.0
 11
420.0
 21
297.0
 12
0.0
 22
0.0
 32
0.0
 14
1e+20
 24
1e+20
 34
1e+20
 15
-1e+20
 25
-1e+20
 35
-1e+20
146
0.0
 13
0.0
 23
0.0
 33
0.0
 16
1.0
 26
0.0
 36
0.0
 17
0.0
 27
1.0
 37
0.0
 76
1
330
17
  0
LAYOUT
  5
1E
330
D
100
AcDbPlotSettings
  1

  4
A3
  6

 40
7.5
 41
20.0
 42
7.5
 43
20.0
 44
420.0
 45
297.0
 46
0.0
 47
0.0
 48
0.0
 49
0.0
140
0.0
141
0.0
142
1.0
143
1.0
 70
0
 72
1
 73
0
 74
5
  7

 75
16
 76
0
 77
2
 78
300
147
1.0
148
0.0
149
0.0
100
AcDbLayout
  1
Layout1
 70
1
 71
1
 10
0.0
 20
0.0
 11
420.0
 21
297.0
 12
0.0
 22
0.0
 32
0.0
 14
1e+20
 24
1e+20
 34
1e+20
 15
-1e+20
 25
-1e+20
 35
-1e+20
146
0.0
 13
0.0
 23
0.0
 33
0.0
 16
1.0
 26
0.0
 36
0.0
 17
0.0
 27
1.0
 37
0.0
 76
1
330
1B
  0
MATERIAL
  5
1F
102
{ACAD_REACTORS
330
E
102
}
330
E
100
AcDbMaterial
  1
ByBlock
  2

 70
0
 40
1.0
 71
1
 41
1.0
 91
-1023410177
 42
1.0
 72
1
  3

 73
1
 74
1
 75
1
 44
0.5
 73
0
 45
1.0
 46
1.0
 77
1
  4

 78
1
 79
1
170
1
 48
1.0
171
1
  6

172
1
173
1
174
1
140
1.0
141
1.0
175
1
  7

176
1
177
1
178
1
143
1.0
179
1
  8

270
1
271
1
272
1
145
1.0
146
1.0
273
1
  9

274
1
275
1
276
1
 42
1.0
 72
1
  3

 73
1
 74
1
 75
1
 94
63
  0
MATERIAL
  5
20
102
{ACAD_REACTORS
330
E
102
}
330
E
100
AcDbMaterial
  1
ByLayer
  2

 70
0
 40
1.0
 71
1
 41
1.0
 91
-1023410177
 42
1.0
 72
1
  3

 73
1
 74
1
 75
1
 44
0.5
 73
0
 45
1.0
 46
1.0
 77
1
  4

 78
1
 79
1
170
1
 48
1.0
171
1
  6

172
1
173
1
174
1
140
1.0
141
1.0
175
1
  7

176
1
177
1
178
1
143
1.0
179
1
  8

270
1
271
1
272
1
145
1.0
146
1.0
273
1
  9

274
1
275
1
276
1
 42
1.0
 72
1
  3

 73
1
 74
1
 75
1
 94
63
  0
MATERIAL
  5
21
102
{ACAD_REACTORS
330
E
102
}
330
E
100
AcDbMaterial
  1
Global
  2

 70
0
 40
1.0
 71
1
 41
1.0
 91
-1023410177
 42
1.0
 72
1
  3

 73
1
 74
1
 75
1
 44
0.5
 73
0
 45
1.0
 46
1.0
 77
1
  4

 78
1
 79
1
170
1
 48
1.0
171
1
  6

172
1
173
1
174
1
140
1.0
141
1.0
175
1
  7

176
1
177
1
178
1
143
1.0
179
1
  8

270
1
271
1
272
1
145
1.0
146
1.0
273
1
  9

274
1
275
1
276
1
 42
1.0
 72
1
  3

 73
1
 74
1
 75
1
 94
63
  0
MLINESTYLE
  5
22
102
{ACAD_REACTORS
330
10
102
}
330
10
100
AcDbMlineStyle
  2
Standard
 70
0
  3

 62
256
 51
90.0
 52
90.0
 71
2
 49
0.5
 62
256
  6
BYLAYER
 49
-0.5
 62
256
  6
BYLAYER
  0
MLEADERSTYLE
  5
2C
102
{ACAD_REACTORS
330
F
102
}
330
F
100
AcDbMLeaderStyle
179
2
170
2
171
1
172
0
 90
2
 40
0.0
 41
0.0
173
1
 91
-1056964608
 92
-2
290
1
 42
2.0
291
1
 43
8.0
  3
Standard
 44
4.0
300

342
29
174
1
175
1
176
0
178
1
 93
-1056964608
 45
4.0
292
0
297
0
 46
4.0
 94
-1056964608
 47
1.0
 49
1.0
140
1.0
294
1
141
0.0
177
0
142
1.0
295
0
296
0
143
3.75
271
0
272
9
273
9
  0
DICTIONARY
  5
2D
330
A
100
AcDbDictionary
280
1
281
1
  3
CREATED_BY_EZDXF
350
2E
  3
WRITTEN_BY_EZDXF
350
32
  0
DICTIONARYVAR
  5
2E
330
2D
100
DictionaryVariables
280
0
  1
1.3.5 @ 2025-08-18T19:55:48.780448+00:00
  0
DICTIONARYVAR
  5
32
330
2D
100
DictionaryVariables
280
0
  1
1.3.5 @ 2025-08-18T19:55:48.788483+00:00
  0
ENDSEC
  0
EOF
