  0
SECTION
  2
HEADER
  9
$ACADVER
  1
AC1032
  9
$ACADMAINTVER
 90
4
  9
$DWGCODEPAGE
  3
ANSI_1252
  9
$LASTSAVEDBY
  1
ezdxf
  9
$REQUIREDVERSIONS
160
0
  9
$INSBASE
 10
0.0
 20
0.0
 30
0.0
  9
$EXTMIN
 10
1e+20
 20
1e+20
 30
1e+20
  9
$EXTMAX
 10
-1e+20
 20
-1e+20
 30
-1e+20
  9
$LIMMIN
 10
0.0
 20
0.0
  9
$LIMMAX
 10
420.0
 20
297.0
  9
$ORTHOMODE
 70
0
  9
$REGENMODE
 70
1
  9
$FILLMODE
 70
1
  9
$QTEXTMODE
 70
0
  9
$MIRRTEXT
 70
1
  9
$LTSCALE
 40
1.0
  9
$ATTMODE
 70
1
  9
$TEXTSIZE
 40
2.5
  9
$TRACEWID
 40
1.0
  9
$TEXTSTYLE
  7
Standard
  9
$CLAYER
  8
0
  9
$CELTYPE
  6
ByLayer
  9
$CECOLOR
 62
256
  9
$CELTSCALE
 40
1.0
  9
$DISPSILH
 70
0
  9
$DIMSCALE
 40
1.0
  9
$DIMASZ
 40
2.5
  9
$DIMEXO
 40
0.625
  9
$DIMDLI
 40
3.75
  9
$DIMRND
 40
0.0
  9
$DIMDLE
 40
0.0
  9
$DIMEXE
 40
1.25
  9
$DIMTP
 40
0.0
  9
$DIMTM
 40
0.0
  9
$DIMTXT
 40
2.5
  9
$DIMCEN
 40
2.5
  9
$DIMTSZ
 40
0.0
  9
$DIMTOL
 70
0
  9
$DIMLIM
 70
0
  9
$DIMTIH
 70
0
  9
$DIMTOH
 70
0
  9
$DIMSE1
 70
0
  9
$DIMSE2
 70
0
  9
$DIMTAD
 70
1
  9
$DIMZIN
 70
8
  9
$DIMBLK
  1

  9
$DIMASO
 70
1
  9
$DIMSHO
 70
1
  9
$DIMPOST
  1

  9
$DIMAPOST
  1

  9
$DIMALT
 70
0
  9
$DIMALTD
 70
3
  9
$DIMALTF
 40
0.03937007874
  9
$DIMLFAC
 40
1.0
  9
$DIMTOFL
 70
1
  9
$DIMTVP
 40
0.0
  9
$DIMTIX
 70
0
  9
$DIMSOXD
 70
0
  9
$DIMSAH
 70
0
  9
$DIMBLK1
  1

  9
$DIMBLK2
  1

  9
$DIMSTYLE
  2
ISO-25
  9
$DIMCLRD
 70
0
  9
$DIMCLRE
 70
0
  9
$DIMCLRT
 70
0
  9
$DIMTFAC
 40
1.0
  9
$DIMGAP
 40
0.625
  9
$DIMJUST
 70
0
  9
$DIMSD1
 70
0
  9
$DIMSD2
 70
0
  9
$DIMTOLJ
 70
0
  9
$DIMTZIN
 70
8
  9
$DIMALTZ
 70
0
  9
$DIMALTTZ
 70
0
  9
$DIMUPT
 70
0
  9
$DIMDEC
 70
2
  9
$DIMTDEC
 70
2
  9
$DIMALTU
 70
2
  9
$DIMALTTD
 70
3
  9
$DIMTXSTY
  7
Standard
  9
$DIMAUNIT
 70
0
  9
$DIMADEC
 70
0
  9
$DIMALTRND
 40
0.0
  9
$DIMAZIN
 70
0
  9
$DIMDSEP
 70
44
  9
$DIMATFIT
 70
3
  9
$DIMFRAC
 70
0
  9
$DIMLDRBLK
  1

  9
$DIMLUNIT
 70
2
  9
$DIMLWD
 70
-2
  9
$DIMLWE
 70
-2
  9
$DIMTMOVE
 70
0
  9
$DIMFXL
 40
1.0
  9
$DIMFXLON
 70
0
  9
$DIMJOGANG
 40
0.785398163397
  9
$DIMTFILL
 70
0
  9
$DIMTFILLCLR
 70
0
  9
$DIMARCSYM
 70
0
  9
$DIMLTYPE
  6

  9
$DIMLTEX1
  6

  9
$DIMLTEX2
  6

  9
$DIMTXTDIRECTION
 70
0
  9
$LUNITS
 70
2
  9
$LUPREC
 70
4
  9
$SKETCHINC
 40
1.0
  9
$FILLETRAD
 40
10.0
  9
$AUNITS
 70
0
  9
$AUPREC
 70
2
  9
$MENU
  1
.
  9
$ELEVATION
 40
0.0
  9
$PELEVATION
 40
0.0
  9
$THICKNESS
 40
0.0
  9
$LIMCHECK
 70
0
  9
$CHAMFERA
 40
0.0
  9
$CHAMFERB
 40
0.0
  9
$CHAMFERC
 40
0.0
  9
$CHAMFERD
 40
0.0
  9
$SKPOLY
 70
0
  9
$TDCREATE
 40
2460906.8720949073
  9
$TDUCREATE
 40
2458532.153996898
  9
$TDUPDATE
 40
2460906.8720949073
  9
$TDUUPDATE
 40
2458532.1544311
  9
$TDINDWG
 40
0.0
  9
$TDUSRTIMER
 40
0.0
  9
$USRTIMER
 70
1
  9
$ANGBASE
 50
0.0
  9
$ANGDIR
 70
0
  9
$PDMODE
 70
0
  9
$PDSIZE
 40
0.0
  9
$PLINEWID
 40
0.0
  9
$SPLFRAME
 70
0
  9
$SPLINETYPE
 70
6
  9
$SPLINESEGS
 70
8
  9
$HANDSEED
  5
33
  9
$SURFTAB1
 70
6
  9
$SURFTAB2
 70
6
  9
$SURFTYPE
 70
6
  9
$SURFU
 70
6
  9
$SURFV
 70
6
  9
$UCSBASE
  2

  9
$UCSNAME
  2

  9
$UCSORG
 10
0.0
 20
0.0
 30
0.0
  9
$UCSXDIR
 10
1.0
 20
0.0
 30
0.0
  9
$UCSYDIR
 10
0.0
 20
1.0
 30
0.0
  9
$UCSORTHOREF
  2

  9
$UCSORTHOVIEW
 70
0
  9
$UCSORGTOP
 10
0.0
 20
0.0
 30
0.0
  9
$UCSORGBOTTOM
 10
0.0
 20
0.0
 30
0.0
  9
$UCSORGLEFT
 10
0.0
 20
0.0
 30
0.0
  9
$UCSORGRIGHT
 10
0.0
 20
0.0
 30
0.0
  9
$UCSORGFRONT
 10
0.0
 20
0.0
 30
0.0
  9
$UCSORGBACK
 10
0.0
 20
0.0
 30
0.0
  9
$PUCSBASE
  2

  9
$PUCSNAME
  2

  9
$PUCSORG
 10
0.0
 20
0.0
 30
0.0
  9
$PUCSXDIR
 10
1.0
 20
0.0
 30
0.0
  9
$PUCSYDIR
 10
0.0
 20
1.0
 30
0.0
  9
$PUCSORTHOREF
  2

  9
$PUCSORTHOVIEW
 70
0
  9
$PUCSORGTOP
 10
0.0
 20
0.0
 30
0.0
  9
$PUCSORGBOTTOM
 10
0.0
 20
0.0
 30
0.0
  9
$PUCSORGLEFT
 10
0.0
 20
0.0
 30
0.0
  9
$PUCSORGRIGHT
 10
0.0
 20
0.0
 30
0.0
  9
$PUCSORGFRONT
 10
0.0
 20
0.0
 30
0.0
  9
$PUCSORGBACK
 10
0.0
 20
0.0
 30
0.0
  9
$USERI1
 70
0
  9
$USERI2
 70
0
  9
$USERI3
 70
0
  9
$USERI4
 70
0
  9
$USERI5
 70
0
  9
$USERR1
 40
0.0
  9
$USERR2
 40
0.0
  9
$USERR3
 40
0.0
  9
$USERR4
 40
0.0
  9
$USERR5
 40
0.0
  9
$WORLDVIEW
 70
1
  9
$SHADEDGE
 70
3
  9
$SHADEDIF
 70
70
  9
$TILEMODE
 70
1
  9
$MAXACTVP
 70
64
  9
$PINSBASE
 10
0.0
 20
0.0
 30
0.0
  9
$PLIMCHECK
 70
0
  9
$PEXTMIN
 10
1e+20
 20
1e+20
 30
1e+20
  9
$PEXTMAX
 10
-1e+20
 20
-1e+20
 30
-1e+20
  9
$PLIMMIN
 10
0.0
 20
0.0
  9
$PLIMMAX
 10
420.0
 20
297.0
  9
$UNITMODE
 70
0
  9
$VISRETAIN
 70
1
  9
$PLINEGEN
 70
0
  9
$PSLTSCALE
 70
1
  9
$TREEDEPTH
 70
3020
  9
$CMLSTYLE
  2
Standard
  9
$CMLJUST
 70
0
  9
$CMLSCALE
 40
20.0
  9
$PROXYGRAPHICS
 70
1
  9
$MEASUREMENT
 70
1
  9
$CELWEIGHT
370
-1
  9
$ENDCAPS
280
0
  9
$JOINSTYLE
280
0
  9
$LWDISPLAY
290
0
  9
$INSUNITS
 70
6
  9
$HYPERLINKBASE
  1

  9
$STYLESHEET
  1

  9
$XEDIT
290
1
  9
$CEPSNTYPE
380
0
  9
$PSTYLEMODE
290
1
  9
$FINGERPRINTGUID
  2
{DFB999BB-5170-4B30-A8DB-09DAA6422ACC}
  9
$VERSIONGUID
  2
{1112E9AB-A242-48A7-BC04-AAF5033B879F}
  9
$EXTNAMES
290
1
  9
$PSVPSCALE
 40
0.0
  9
$OLESTARTUP
290
0
  9
$SORTENTS
280
127
  9
$INDEXCTL
280
0
  9
$HIDETEXT
280
1
  9
$XCLIPFRAME
280
1
  9
$HALOGAP
280
0
  9
$OBSCOLOR
 70
257
  9
$OBSLTYPE
280
0
  9
$INTERSECTIONDISPLAY
280
0
  9
$INTERSECTIONCOLOR
 70
257
  9
$DIMASSOC
280
2
  9
$PROJECTNAME
  1

  9
$CAMERADISPLAY
290
0
  9
$LENSLENGTH
 40
50.0
  9
$CAMERAHEIGHT
 40
0.0
  9
$STEPSPERSEC
 40
24.0
  9
$STEPSIZE
 40
100.0
  9
$3DDWFPREC
 40
2.0
  9
$PSOLWIDTH
 40
0.005
  9
$PSOLHEIGHT
 40
0.08
  9
$LOFTANG1
 40
1.570796326795
  9
$LOFTANG2
 40
1.570796326795
  9
$LOFTMAG1
 40
0.0
  9
$LOFTMAG2
 40
0.0
  9
$LOFTPARAM
 70
7
  9
$LOFTNORMALS
280
1
  9
$LATITUDE
 40
37.795
  9
$LONGITUDE
 40
-122.394
  9
$NORTHDIRECTION
 40
0.0
  9
$TIMEZONE
 70
-8000
  9
$LIGHTGLYPHDISPLAY
280
1
  9
$TILEMODELIGHTSYNCH
280
1
  9
$CMATERIAL
347
20
  9
$SOLIDHIST
280
0
  9
$SHOWHIST
280
1
  9
$DWFFRAME
280
2
  9
$DGNFRAME
280
2
  9
$REALWORLDSCALE
290
1
  9
$INTERFERECOLOR
 62
256
  9
$CSHADOW
280
0
  9
$SHADOWPLANELOCATION
 40
0.0
  0
ENDSEC
  0
SECTION
  2
CLASSES
  0
CLASS
  1
ACDBDICTIONARYWDFLT
  2
AcDbDictionaryWithDefault
  3
ObjectDBX Classes
 90
0
 91
0
280
0
281
0
  0
CLASS
  1
SUN
  2
AcDbSun
  3
SCENEOE
 90
1153
 91
0
280
0
281
0
  0
CLASS
  1
VISUALSTYLE
  2
AcDbVisualStyle
  3
ObjectDBX Classes
 90
4095
 91
0
280
0
281
0
  0
CLASS
  1
MATERIAL
  2
AcDbMaterial
  3
ObjectDBX Classes
 90
1153
 91
0
280
0
281
0
  0
CLASS
  1
SCALE
  2
AcDbScale
  3
ObjectDBX Classes
 90
1153
 91
0
280
0
281
0
  0
CLASS
  1
TABLESTYLE
  2
AcDbTableStyle
  3
ObjectDBX Classes
 90
4095
 91
0
280
0
281
0
  0
CLASS
  1
MLEADERSTYLE
  2
AcDbMLeaderStyle
  3
ACDB_MLEADERSTYLE_CLASS
 90
4095
 91
0
280
0
281
0
  0
CLASS
  1
DICTIONARYVAR
  2
AcDbDictionaryVar
  3
ObjectDBX Classes
 90
0
 91
0
280
0
281
0
  0
CLASS
  1
CELLSTYLEMAP
  2
AcDbCellStyleMap
  3
ObjectDBX Classes
 90
1152
 91
0
280
0
281
0
  0
CLASS
  1
MENTALRAYRENDERSETTINGS
  2
AcDbMentalRayRenderSettings
  3
SCENEOE
 90
1024
 91
0
280
0
281
0
  0
CLASS
  1
ACDBDETAILVIEWSTYLE
  2
AcDbDetailViewStyle
  3
ObjectDBX Classes
 90
1025
 91
0
280
0
281
0
  0
CLASS
  1
ACDBSECTIONVIEWSTYLE
  2
AcDbSectionViewStyle
  3
ObjectDBX Classes
 90
1025
 91
0
280
0
281
0
  0
CLASS
  1
RASTERVARIABLES
  2
AcDbRasterVariables
  3
ISM
 90
0
 91
0
280
0
281
0
  0
CLASS
  1
LAYOUT
  2
AcDbLayout
  3
ObjectDBX Classes
 90
0
 91
0
280
0
281
0
  0
CLASS
  1
ACDBPLACEHOLDER
  2
AcDbPlaceHolder
  3
ObjectDBX Classes
 90
0
 91
0
280
0
281
0
  0
ENDSEC
  0
SECTION
  2
TABLES
  0
TABLE
  2
VPORT
  5
8
330
0
100
AcDbSymbolTable
 70
1
  0
VPORT
  5
23
330
8
100
AcDbSymbolTableRecord
100
AcDbViewportTableRecord
  2
*Active
 70
0
 10
0.0
 20
0.0
 11
1.0
 21
1.0
 12
0.0
 22
0.0
 13
0.0
 23
0.0
 14
0.5
 24
0.5
 15
0.5
 25
0.5
 16
0.0
 26
0.0
 36
1.0
 17
0.0
 27
0.0
 37
0.0
 40
1000.0
 41
1.34
 42
50.0
 43
0.0
 44
0.0
 50
0.0
 51
0.0
 71
0
 72
1000
 73
1
 74
3
 75
0
 76
0
 77
0
 78
0
281
0
 65
0
146
0.0
  0
ENDTAB
  0
TABLE
  2
LTYPE
  5
2
330
0
100
AcDbSymbolTable
 70
3
  0
LTYPE
  5
24
330
2
100
AcDbSymbolTableRecord
100
AcDbLinetypeTableRecord
  2
ByBlock
 70
0
  3

 72
65
 73
0
 40
0.0
  0
LTYPE
  5
25
330
2
100
AcDbSymbolTableRecord
100
AcDbLinetypeTableRecord
  2
ByLayer
 70
0
  3

 72
65
 73
0
 40
0.0
  0
LTYPE
  5
26
330
2
100
AcDbSymbolTableRecord
100
AcDbLinetypeTableRecord
  2
Continuous
 70
0
  3

 72
65
 73
0
 40
0.0
  0
ENDTAB
  0
TABLE
  2
LAYER
  5
1
330
0
100
AcDbSymbolTable
 70
2
  0
LAYER
  5
27
330
1
100
AcDbSymbolTableRecord
100
AcDbLayerTableRecord
  2
0
 70
0
 62
7
  6
Continuous
370
-3
390
13
347
21
  0
LAYER
  5
28
330
1
100
AcDbSymbolTableRecord
100
AcDbLayerTableRecord
  2
Defpoints
 70
0
 62
7
  6
Continuous
290
0
370
-3
390
13
347
21
  0
ENDTAB
  0
TABLE
  2
STYLE
  5
5
330
0
100
AcDbSymbolTable
 70
1
  0
STYLE
  5
29
330
5
100
AcDbSymbolTableRecord
100
AcDbTextStyleTableRecord
  2
Standard
 70
0
 40
0.0
 41
1.0
 50
0.0
 71
0
 42
2.5
  3
txt
  4

  0
ENDTAB
  0
TABLE
  2
VIEW
  5
7
330
0
100
AcDbSymbolTable
 70
0
  0
ENDTAB
  0
TABLE
  2
UCS
  5
6
330
0
100
AcDbSymbolTable
 70
0
  0
ENDTAB
  0
TABLE
  2
APPID
  5
3
330
0
100
AcDbSymbolTable
 70
3
  0
APPID
  5
2A
330
3
100
AcDbSymbolTableRecord
100
AcDbRegAppTableRecord
  2
ACAD
 70
0
  0
APPID
  5
30
330
3
100
AcDbSymbolTableRecord
100
AcDbRegAppTableRecord
  2
HATCHBACKGROUNDCOLOR
 70
0
  0
APPID
  5
31
330
3
100
AcDbSymbolTableRecord
100
AcDbRegAppTableRecord
  2
EZDXF
 70
0
  0
ENDTAB
  0
TABLE
  2
DIMSTYLE
  5
4
330
0
100
AcDbSymbolTable
 70
1
100
AcDbDimStyleTable
  0
DIMSTYLE
105
2B
330
4
100
AcDbSymbolTableRecord
100
AcDbDimStyleTableRecord
  2
Standard
 70
0
 40
1.0
 41
2.5
 42
0.625
 43
3.75
 44
1.25
 45
0.0
 46
0.0
 47
0.0
 48
0.0
 49
2.5
140
2.5
141
2.5
142
0.0
143
0.03937007874
144
1.0
145
0.0
146
1.0
147
0.625
148
0.0
 69
0
 70
0
 71
0
 72
0
 73
0
 74
0
 75
0
 76
0
 77
1
 78
8
 79
3
170
0
171
3
172
1
173
0
174
0
175
0
176
0
177
0
178
0
179
2
271
2
272
2
273
2
274
3
275
0
276
0
277
2
278
44
279
0
280
0
281
0
282
0
283
0
284
8
285
0
286
0
288
0
289
3
290
0
371
-2
372
-2
  0
ENDTAB
  0
TABLE
  2
BLOCK_RECORD
  5
9
330
0
100
AcDbSymbolTable
 70
2
  0
BLOCK_RECORD
  5
17
330
9
100
AcDbSymbolTableRecord
100
AcDbBlockTableRecord
  2
*Model_Space
340
1A
 70
0
280
1
281
0
  0
BLOCK_RECORD
  5
1B
330
9
100
AcDbSymbolTableRecord
100
AcDbBlockTableRecord
  2
*Paper_Space
340
1E
 70
0
280
1
281
0
  0
ENDTAB
  0
ENDSEC
  0
SECTION
  2
BLOCKS
  0
BLOCK
  5
18
330
17
100
AcDbEntity
  8
0
100
AcDbBlockBegin
  2
*Model_Space
 70
0
 10
0.0
 20
0.0
 30
0.0
  3
*Model_Space
  1

  0
ENDBLK
  5
19
330
17
100
AcDbEntity
  8
0
100
AcDbBlockEnd
  0
BLOCK
  5
1C
330
1B
100
AcDbEntity
  8
0
100
AcDbBlockBegin
  2
*Paper_Space
 70
0
 10
0.0
 20
0.0
 30
0.0
  3
*Paper_Space
  1

  0
ENDBLK
  5
1D
330
1B
100
AcDbEntity
  8
0
100
AcDbBlockEnd
  0
ENDSEC
  0
SECTION
  2
ENTITIES
  0
LWPOLYLINE
  5
2F
330
17
100
AcDbEntity
  8
0
100
AcDbPolyline
 90
721
 70
1
 10
63.14741728865089
 20
8.396780278292216
 10
63.1455388134413
 20
8.397201909778387
 10
63.139928452828244
 20
8.398278304483789
 10
63.13063633684327
 20
8.39963246290223
 10
63.11754315059405
 20
8.401440352278929
 10
63.10087499135733
 20
8.403444287999996
 10
63.08052507674868
 20
8.405725987434094
 10
63.056411689399404
 20
8.408178668196804
 10
63.028723329062636
 20
8.41082739530387
 10
62.99737827836971
 20
8.41356538637088
 10
62.96225722242829
 20
8.416568608643045
 10
62.923573726007234
 20
8.419673627383023
 10
62.88123353923
 20
8.422867910082937
 10
62.83522412958871
 20
8.426245706619335
 10
62.78557056209913
 20
8.42961851723912
 10
62.73224777174548
 20
8.43317484169539
 10
62.67536254091223
 20
8.436832962619473
 10
62.6148206197228
 20
8.440580347503495
 10
62.550609475669305
 20
8.444511246224
 10
62.48284842364404
 20
8.44844969153577
 10
62.41141814875475
 20
8.452571650684021
 10
62.336343716017154
 20
8.456688623915664
 10
62.25778856016859
 20
8.461014175999543
 10
62.17548246408732
 20
8.465416459535483
 10
62.08970817740297
 20
8.469933072047116
 10
62.00027720036243
 20
8.474538948518681
 10
61.90728378284226
 20
8.47924662145806
 10
61.81072792484248
 20
8.484056090865252
 10
61.7105970938552
 20
8.489061606616811
 10
61.606891289880394
 20
8.494263168712731
 10
61.49963557793386
 20
8.499472277399917
 10
61.3888048929998
 20
8.504877432431465
 10
61.274506017462684
 20
8.510396916438705
 10
61.15663216893805
 20
8.516112446790308
 10
61.03520841244167
 20
8.521835523733175
 10
60.910303932834346
 20
8.527767179528283
 10
60.78190619760818
 20
8.534001664052182
 10
60.650052804286815
 20
8.540256227675226
 10
60.51462443797796
 20
8.546706837642633
 10
60.375822130942545
 20
8.553284309093605
 10
60.23344485091966
 20
8.560057826888949
 10
60.08768109766235
 20
8.567052456044408
 10
59.9384366212941
 20
8.574255664052108
 10
59.78580567169141
 20
8.581679983419928
 10
59.6297065314857
 20
8.589218631763442
 10
59.47023345055342
 20
8.596884141590525
 10
59.30726711400232
 20
8.604852480146398
 10
59.14100855409338
 20
8.61305446257027
 10
58.97136352095002
 20
8.621477556354261
 10
58.79833201457226
 20
8.630121761498375
 10
58.621914034960085
 20
8.638987078002605
 10
58.44219129948221
 20
8.648180288251389
 10
58.25908209076991
 20
8.657594609860288
 10
58.07266812619187
 20
8.667336825213736
 10
57.882961938255974
 20
8.677312684435181
 10
57.68998859197801
 20
8.687333687771526
 10
57.493817272218706
 20
8.697600867483745
 10
57.29432866408582
 20
8.708290190817063
 10
57.091522767579306
 20
8.71940165777148
 10
56.88553143009938
 20
8.73066505122522
 10
56.676342119138134
 20
8.74217462105484
 10
56.463954834695585
 20
8.753930367260333
 10
56.248331979248114
 20
8.766215039471355
 10
56.029536215335085
 20
8.77855738830515
 10
55.807636727817304
 20
8.791158446022703
 10
55.5826209841869
 20
8.804112462500559
 10
55.354382202059426
 20
8.817501155107387
 10
55.12312141369587
 20
8.8312553389824
 10
54.88875690172757
 20
8.84526823174117
 10
54.6512886661545
 20
8.859539833383689
 10
54.41078589183749
 20
8.874271176170945
 10
54.16729870880802
 20
8.88908526059673
 10
53.9207078021738
 20
8.904158053906269
 10
53.67118913918005
 20
8.919608870991869
 10
53.41874271982676
 20
8.93543771185353
 10
53.163299359253145
 20
8.951443544230273
 10
52.90484652495135
 20
8.96772061799865
 10
52.64357271667444
 20
8.98429399817441
 10
52.3793586195301
 20
9.001339652002782
 10
52.11224183104201
 20
9.018574829854117
 10
51.84231660108669
 20
9.036012064236289
 10
51.56958292966414
 20
9.053651355149297
 10
51.29401575175862
 20
9.071681202346246
 10
51.0156150673701
 20
9.09010160582713
 10
50.73439340900649
 20
9.108818315715403
 10
50.45055180892876
 20
9.127762147150273
 10
50.16388923487592
 20
9.14700228499253
 10
49.874499936724504
 20
9.166551261750051
 10
49.58251576187477
 20
9.186138860301067
 10
49.28782992794219
 20
9.205846798014248
 10
48.99049908727976
 20
9.225970357027125
 10
48.690617489763994
 20
9.246522069847574
 10
48.388021700657546
 20
9.267288371706739
 10
48.082937817237166
 20
9.288011577990725
 10
47.77531570947135
 20
9.309068688205736
 10
47.46516790986793
 20
9.330365452475213
 10
47.15248188591907
 20
9.35199612067572
 10
46.83737695251707
 20
9.373784725562022
 10
46.51985310966191
 20
9.395731267134124
 10
46.19981610747706
 20
9.41782321288415
 10
45.87744191320773
 20
9.4401798777044
 10
45.55263627697739
 20
9.462788729087006
 10
45.22551851367833
 20
9.485473799786737
 10
44.89608862331054
 20
9.508235089803595
 10
44.56444085575058
 20
9.531085131645458
 10
44.23046842861405
 20
9.554105642681002
 10
43.8942405267617
 20
9.577497655171202
 10
43.55570049784064
 20
9.600965886978527
 10
43.21511855897263
 20
9.624642185503166
 10
42.87235634043609
 20
9.648124486223162
 10
42.52740130972314
 20
9.67150703901506
 10
42.180404369063226
 20
9.69509765852427
 10
41.831352985948506
 20
9.718990594627343
 10
41.4800962581495
 20
9.742878032678872
 10
41.12703625018816
 20
9.76662160295727
 10
40.77190274494271
 20
9.79008945806235
 10
40.41484664464262
 20
9.813589412639518
 10
40.05576116690347
 20
9.837203184057449
 10
39.69484734398623
 20
9.86086158745535
 10
39.332048523537985
 20
9.884269340695687
 10
38.96743389041953
 20
9.907627476039442
 10
38.6009783796151
 20
9.931124493239714
 10
38.232744653664106
 20
9.954289142913755
 10
37.8627452450744
 20
9.977027175185011
 10
37.49110599105971
 20
9.999834904451992
 10
37.11765092437482
 20
10.022593015822391
 10
36.742556012264934
 20
10.045420824188515
 10
36.36589644977735
 20
10.067752830291061
 10
35.98765970440413
 20
10.089683284006576
 10
35.607820711129584
 20
10.111400685088165
 10
35.22634187243004
 20
10.133187783165482
 10
34.843461818090105
 20
10.154692643748074
 10
34.45904217838824
 20
10.17551320231399
 10
34.07332810543039
 20
10.195969806016512
 10
33.68606843692414
 20
10.216508639222635
 10
33.2974075527775
 20
10.23676523493404
 10
32.907395583021994
 20
10.256362593644523
 10
32.516195962394974
 20
10.27551428012294
 10
32.12360765863544
 20
10.294289479230082
 10
31.729806638988652
 20
10.312807505858263
 10
31.33471118608591
 20
10.330961577623052
 10
30.93844061481952
 20
10.348575727279222
 10
30.541089175066045
 20
10.365662487334657
 10
30.142562616948936
 20
10.382209325281476
 10
29.74304944022128
 20
10.398241306135436
 10
29.342361145129974
 20
10.413733364880779
 10
28.94066116641239
 20
10.428899066286364
 10
28.537962036576378
 20
10.44364416047564
 10
28.134326418161336
 20
10.457497398065854
 10
27.729729246151518
 20
10.470647278810109
 10
27.324346487792134
 20
10.483213117600712
 10
26.917977110822203
 20
10.495264099298454
 10
26.51083468001059
 20
10.506636789165992
 10
26.102931727865176
 20
10.517236937326777
 10
25.694280786893835
 20
10.526970293904256
 10
25.28485679208081
 20
10.536025358651534
 10
24.874741460794777
 20
10.544508913953035
 10
24.46393479303572
 20
10.55242095980876
 10
24.052568636203844
 20
10.559491279096935
 10
23.64056127293047
 20
10.565613089433137
 10
23.228019485600022
 20
10.57070467344869
 10
22.814999926565424
 20
10.575061313281124
 10
22.401370748426473
 20
10.578953226052207
 10
21.98734551595205
 20
10.5822169770246
 10
21.572930239328613
 20
10.584086034678021
 10
21.158049723508903
 20
10.585125898271773
 10
20.74287993573814
 20
10.585455882698161
 10
20.327351691155535
 20
10.58487495569621
 10
19.91147752226894
 20
10.583288867389363
 10
19.49540833130786
 20
10.58100543242303
 10
19.07906240090359
 20
10.577917868412785
 10
18.66257157845634
 20
10.57375595823685
 10
18.245841614089535
 20
10.568507169387352
 10
17.82904847504842
 20
10.5622908167566
 10
17.412179628825097
 20
10.555201150221132
 10
16.99527267294322
 20
10.546955420151312
 10
16.578315074894896
 20
10.537647876423678
 10
16.161388552048805
 20
10.527385301422669
 10
15.744361257004764
 20
10.51643791227005
 10
15.327496884563121
 20
10.504265274722277
 10
14.910795434723907
 20
10.490867388779352
 10
14.494244374979226
 20
10.476338504317825
 10
14.0778311728212
 20
10.460772871214242
 10
13.661662610634268
 20
10.444088772099938
 10
13.24563190603399
 20
10.426367924343582
 10
12.82994009128135
 20
10.407541143084377
 10
12.414612231392102
 20
10.387419928569225
 10
11.999635793858369
 20
10.366098530674678
 10
11.584998246172274
 20
10.343671199277283
 10
11.170712120841696
 20
10.320043684500492
 10
10.756990982635488
 20
10.295052551606961
 10
10.343715516661344
 20
10.268873767841908
 10
9.930954907780066
 20
10.241708365466318
 10
9.518677568654477
 20
10.213072562589558
 10
9.10704693402194
 20
10.18317992398048
 10
8.696025406358805
 20
10.152313199268745
 10
8.285556333312167
 20
10.120177106316817
 10
7.875853279650881
 20
10.086608210387357
 10
7.466891180359191
 20
10.051795011233459
 10
7.058600850576297
 20
10.015536476594146
 10
6.651145725039545
 20
9.97804617123828
 10
6.244456618888153
 20
9.939123062904875
 10
5.838709499367326
 20
9.898886466486246
 10
5.433678269200332
 20
9.857594066596278
 10
5.029576493156042
 20
9.815082428497634
 10
4.6264543012659525
 20
9.770974552684109
 10
4.224299161022194
 20
9.725364689032252
 10
3.823167724777678
 20
9.678548119679599
 10
3.42307252504029
 20
9.630430594749594
 10
3.024026094317895
 20
9.580917864365686
 10
2.6261226824870594
 20
9.530022461035758
 10
2.229242974655467
 20
9.477920352005025
 10
1.8334561556839082
 20
9.424812569534472
 10
1.43890660548045
 20
9.370334646625775
 10
1.0456193890608618
 20
9.31429808352583
 10
0.6535694414093598
 20
9.25689137998774
 10
0.2628384798946403
 20
9.198221318395937
 10
-0.12666774535985698
 20
9.138275366242535
 10
-0.5148675169854635
 20
9.07716030591197
 10
-0.9016791176135028
 20
9.014982919788663
 10
-1.287146667089004
 20
8.951353675858543
 10
-1.6711759155354324
 20
8.88628510662948
 10
-2.053735275615622
 20
8.820260993992108
 10
-2.434893932190363
 20
8.753080305685447
 10
-2.8144508529986805
 20
8.684673856848706
 10
-3.192594537793675
 20
8.615016582466124
 10
-3.569136486822243
 20
8.544133547553459
 10
-3.944007515223595
 20
8.472225784371691
 10
-4.3174086552587045
 20
8.399362477781612
 10
-4.689182994511639
 20
8.325084910908348
 10
-5.059217228276561
 20
8.24998364802696
 10
-5.427630671445769
 20
8.174234656382673
 10
-5.794442378848561
 20
8.097259904208299
 10
-6.159369600855274
 20
8.019096989027478
 10
-6.522544184866101
 20
7.940016127961979
 10
-6.8839786633889135
 20
7.860111570888357
 10
-7.2436479714079525
 20
7.779194818053506
 10
-7.601376141678006
 20
7.697385184349736
 10
-7.957351673952166
 20
7.614657604761294
 10
-8.311423666000973
 20
7.531319893933579
 10
-8.663567052808666
 20
7.447183552113494
 10
-9.013769301867368
 20
7.362154329424491
 10
-9.362042945684955
 20
7.276326475743117
 10
-9.70831879940064
 20
7.189901023330354
 10
-10.052691112890965
 20
7.102865439678321
 10
-10.394946321387074
 20
7.0150562900496745
 10
-10.735084424888973
 20
6.926473574444414
 10
-11.073187140765327
 20
6.837010510478112
 10
-11.409172751647475
 20
6.746773880535196
 10
-11.743078855059043
 20
6.656046434245316
 10
-12.074823733631353
 20
6.564934953992905
 10
-12.404357257332906
 20
6.473062440271757
 10
-12.731773676040243
 20
6.380416360573995
 10
-13.056777707615836
 20
6.286940062546703
 10
-13.379595449336424
 20
6.192891230803778
 10
-13.700239433709884
 20
6.098364115221766
 10
-14.018521160983113
 20
6.003383780816427
 10
-14.334428098648232
 20
5.9078559777112085
 10
-14.648016899058161
 20
5.811485423768583
 10
-14.95924344236786
 20
5.714661651002629
 10
-15.268145326100964
 20
5.617667409042996
 10
-15.574565637841532
 20
5.520043981014814
 10
-15.878598627466111
 20
5.4217788344102
 10
-16.180080860237364
 20
5.3230855339980145
 10
-16.479106586031836
 20
5.223951547270379
 10
-16.775688337357405
 20
5.124471124103842
 10
-17.069694266813887
 20
5.024374047376634
 10
-17.361149439417044
 20
4.92384881684185
 10
-17.650053855166867
 20
4.822895432499496
 10
-17.93645764409487
 20
4.72189089385577
 10
-18.22015977394008
 20
4.620766016049878
 10
-18.50131114693195
 20
4.519212984436415
 10
-18.779792448178192
 20
4.417055831770155
 10
-19.05555955783376
 20
4.31468409006518
 10
-19.32873179079096
 20
4.21227372656671
 10
-19.599164767141723
 20
4.109460274276425
 10
-19.86678930202527
 20
4.006444765455302
 10
-20.13180642770257
 20
3.903296384964134
 10
-20.39402764442051
 20
3.80004019781868
 10
-20.653415354655483
 20
3.696393454389286
 10
-20.910007155931105
 20
3.592638904305605
 10
-21.16381558075526
 20
3.4888707974441866
 10
-21.414828096620067
 20
3.38499488392848
 10
-21.66295045364897
 20
3.281023696266365
 10
-21.90817011933411
 20
3.1768629845812875
 10
-22.150593876059897
 20
3.072594466241926
 10
-22.39003322407324
 20
2.96824320626403
 10
-22.62651322838989
 20
2.863997704400703
 10
-22.86019732374719
 20
2.7596443958830896
 10
-23.090802760515494
 20
2.655220878234821
 10
-23.318411256063477
 20
2.5506203690714715
 10
-23.543072940422643
 20
2.446219867899241
 10
-23.764787813593
 20
2.3420193747181295
 10
-23.983436560682225
 20
2.237842922282915
 10
-24.199006649182472
 20
2.133596260717046
 10
-24.411579796462377
 20
2.0291726076360956
 10
-24.621030165308255
 20
1.925068277438571
 10
-24.82743947308877
 20
1.8211764877400425
 10
-25.03078265478816
 20
1.7173087387874113
 10
-25.230965460529887
 20
1.6134775630885552
 10
-25.4280129553297
 20
1.5098714603965733
 10
-25.621900074171833
 20
1.4063019309583673
 10
-25.81263934956419
 20
1.3028632246504848
 10
-26.00024331401462
 20
1.199649591349478
 10
-26.184592652630837
 20
1.096485063810124
 10
-26.36572496293647
 20
0.9936523916620743
 10
-26.543684364776546
 20
0.8907620428912478
 10
-26.718426738306043
 20
0.7882035495117247
 10
-26.889939551017076
 20
0.6858826616469562
 10
-27.05821027040177
 20
0.5837051294203887
 10
-27.223144646583567
 20
0.4816834853399041
 10
-27.384849461946903
 20
0.37989944677417087
 10
-27.543268064138857
 20
0.27864829586072065
 10
-27.698375388143678
 20
0.17774153284645164
 10
-27.850171433961364
 20
0.0771791577313635
 10
-27.998762983976338
 20
-0.02295711211587034
 10
-28.143949005927624
 20
-0.1227364615560442
 10
-28.285848814707535
 20
-0.22198292334393638
 10
-28.424393225455272
 20
-0.320495465218569
 10
-28.559676488047387
 20
-0.4182866196878186
 10
-28.691579287591566
 20
-0.5155323539969078
 10
-28.82020840647225
 20
-0.6121509507771666
 10
-28.945375344936323
 20
-0.7081173450128351
 10
-29.067293667752658
 20
-0.8032681019665723
 10
-29.18578740767602
 20
-0.8974839067460698
 10
-29.300925749567213
 20
-0.9909657916123075
 10
-29.41270869342623
 20
-1.0837137565652848
 10
-29.52113623925307
 20
-1.1757278016050017
 10
-29.62613920218695
 20
-1.2668068944704796
 10
-29.72771758222785
 20
-1.3569510351617178
 10
-29.825928031728708
 20
-1.4464555058162463
 10
-29.920713898336594
 20
-1.5350250242965364
 10
-30.01202505202
 20
-1.6230365901087886
 10
-30.099911622810435
 20
-1.7101132037468014
 10
-30.184323480676394
 20
-1.7966318647167765
 10
-30.265285690633625
 20
-1.8824040732656127
 10
-30.342798252682133
 20
-1.9674298293933103
 10
-30.416754384437493
 20
-2.0517908504685423
 10
-30.487367650668556
 20
-2.1353237017539644
 10
-30.554317704222033
 20
-2.2182735353555905
 10
-30.61791235974334
 20
-2.3004894490439574
 10
-30.67795058497149
 20
-2.3820406276798565
 10
-30.73446997743013
 20
-2.46264432163364
 10
-30.78753972198004
 20
-2.542501563166285
 10
-30.83707810125255
 20
-2.6215055698933636
 10
-30.88313524527918
 20
-2.6992793423086736
 10
-30.925767806412846
 20
-2.776118162549746
 10
-30.964906599792748
 20
-2.851820998355599
 10
-31.00057669043464
 20
-2.926199349973136
 10
-31.032828208370038
 20
-2.9988762178961537
 10
-31.06166115359895
 20
-3.069851602124653
 10
-31.087194841013666
 20
-3.13894953541341
 10
-31.109303433400488
 20
-3.2056737033639195
 10
-31.12813131066747
 20
-3.2696596389778576
 10
-31.143898047769955
 20
-3.3299773759976006
 10
-31.15650287250997
 20
-3.3859421002715395
 10
-31.166240554890138
 20
-3.4360583462827505
 10
-31.17340586491304
 20
-3.478830648514308
 10
-31.178111083014652
 20
-3.5119719449132476
 10
-31.180763771768476
 20
-3.5331385210736954
 10
-31.102459261574328
 20
-4.135727599755868
 10
-31.100029356018087
 20
-4.140296225810246
 10
-31.092752171857267
 20
-4.153907854096832
 10
-31.08067783912336
 20
-4.176185485109424
 10
-31.063499055305904
 20
-4.208718834241497
 10
-31.041141137492538
 20
-4.253512213916363
 10
-31.014161526216398
 20
-4.305652098045532
 10
-30.982854479345136
 20
-4.362204207948068
 10
-30.947571419234276
 20
-4.421968360244576
 10
-30.908481278672703
 20
-4.482952775019622
 10
-30.865602600354766
 20
-4.544296670876377
 10
-30.819186546572954
 20
-4.605553863447843
 10
-30.76918899748224
 20
-4.666334820719944
 10
-30.715660083114127
 20
-4.726262543186478
 10
-30.658624868484374
 20
-4.785148531094347
 10
-30.59808335359298
 20
-4.842992784443546
 10
-30.534142320824373
 20
-4.899713585865407
 10
-30.466732585317764
 20
-4.95510990309895
 10
-30.39584161456527
 20
-5.009275986020726
 10
-30.321576190951316
 20
-5.062130117262061
 10
-30.243816999583604
 20
-5.11384826406818
 10
-30.162576572970003
 20
-5.16433617656253
 10
-30.078068475879384
 20
-5.21343042000777
 10
-29.989972361158443
 20
-5.261376146509912
 10
-29.89858351094472
 20
-5.308116703716044
 10
-29.80370089297724
 20
-5.353721276486958
 10
-29.70543128964042
 20
-5.398108147453983
 10
-29.603787233442148
 20
-5.441183066740567
 10
-29.498731126858782
 20
-5.4832287839763625
 10
-29.390288034906085
 20
-5.524056799408268
 10
-29.27840782755254
 20
-5.5640441125424855
 10
-29.163128102321785
 20
-5.602907973749364
 10
-29.044518044074614
 20
-5.640849415289881
 10
-28.92248340293447
 20
-5.67785590465616
 10
-28.796999113885605
 20
-5.7141159416013
 10
-28.668171959312442
 20
-5.7495478087566285
 10
-28.535989406707106
 20
-5.784245755998697
 10
-28.400451456069597
 20
-5.8182097833275055
 10
-28.26142625999973
 20
-5.851710107864827
 10
-28.119114850758486
 20
-5.884677544749866
 10
-27.97334126110063
 20
-5.916992779090315
 10
-27.82429399077928
 20
-5.948680875901934
 10
-27.67185372490212
 20
-5.979917802429943
 10
-27.516114713345704
 20
-6.010716091182219
 10
-27.35699523874135
 20
-6.040968959774336
 10
-27.194614615981383
 20
-6.070500440961071
 10
-27.02886606268136
 20
-6.099392252111096
 10
-26.859925546086505
 20
-6.127763708116716
 10
-26.68769881632027
 20
-6.155602276470055
 10
-26.51218587338266
 20
-6.182907957171111
 10
-26.3334243147973
 20
-6.209398000590235
 10
-26.151508390440746
 20
-6.235084939235305
 10
-25.96634385043644
 20
-6.259956240598442
 10
-25.777999879645197
 20
-6.284212936940625
 10
-25.58647647806699
 20
-6.307855028261854
 10
-25.39182377573335
 20
-6.330505515055928
 10
-25.194110957505064
 20
-6.352365429583825
 10
-24.99325630601346
 20
-6.373327989461118
 10
-24.78924728875066
 20
-6.393487444564356
 10
-24.58217815559321
 20
-6.412856327401418
 10
-24.372061439049
 20
-6.431340388095753
 10
-24.15888460661014
 20
-6.449033876523911
 10
-23.942647658276634
 20
-6.465936792685893
 10
-23.723363126556368
 20
-6.481954886705148
 10
-23.501112728818
 20
-6.497194940966105
 10
-23.27589646506154
 20
-6.511656955468763
 10
-23.04763261791831
 20
-6.525234147828695
 10
-22.816484622125657
 20
-6.538140082814756
 10
-22.582370760314916
 20
-6.550267978042519
 10
-22.345278499978196
 20
-6.561712083388534
 10
-22.105314623499936
 20
-6.57239068148413
 10
-21.862516728403758
 20
-6.582021022699652
 10
-21.61684721716604
 20
-6.590885856664755
 10
-21.368186774894472
 20
-6.59916115062466
 10
-21.11683068372658
 20
-6.606790252226451
 10
-20.862615508925018
 20
-6.613559596701272
 10
-20.605553782997667
 20
-6.619374934172571
 10
-20.345808940681877
 20
-6.624449829409206
 10
-20.083274199593212
 20
-6.6288659997798485
 10
-19.817974624747432
 20
-6.6324349455314
 10
-19.550004466021086
 20
-6.635169199171735
 10
-19.27937625592205
 20
-6.636974510824306
 10
-19.006052396926687
 20
-6.638133630118763
 10
-18.73005795405077
 20
-6.638458057302007
 10
-18.451367862278524
 20
-6.638136292127135
 10
-18.170208218886682
 20
-6.636910649980255
 10
-17.886377991614285
 20
-6.6348503157221606
 10
-17.599971430337867
 20
-6.631967821860728
 10
-17.311070252426106
 20
-6.628369950780389
 10
-17.019605273018204
 20
-6.623855670220164
 10
-16.725645676974967
 20
-6.6186260124410285
 10
-16.429298246680805
 20
-6.6125992600743135
 10
-16.13039954739839
 20
-6.605561848351164
 10
-15.829138078880812
 20
-6.597538842287331
 10
-15.525476243604437
 20
-6.588812991512468
 10
-15.219414041569273
 20
-6.579384296026576
 10
-14.910951472775313
 20
-6.569252755829653
 10
-14.600220384622746
 20
-6.558148153799928
 10
-14.287245842127321
 20
-6.545881990184299
 10
-13.971883465380989
 20
-6.532818731981089
 10
-13.654321754136834
 20
-6.518983444206056
 10
-13.334491523534073
 20
-6.50417509459822
 10
-13.012512088465009
 20
-6.488217715912358
 10
-12.688345851406007
 20
-6.471394057778122
 10
-12.362061997217863
 20
-6.453905152456491
 10
-12.03359134103978
 20
-6.435549967686485
 10
-11.702971480395394
 20
-6.4160457538384525
 10
-11.370365850022052
 20
-6.395606075681252
 10
-11.035761917411874
 20
-6.374325183091433
 10
-10.698971182811757
 20
-6.35217801105324
 10
-10.360288928359228
 20
-6.329107907213757
 10
-10.019645969193505
 20
-6.304913839312004
 10
-9.677042305314572
 20
-6.279595807347982
 10
-9.332559654091108
 20
-6.253260593706118
 10
-8.986135352983728
 20
-6.226379447769166
 10
-8.63790124939261
 20
-6.198682152415352
 10
-8.287813223472721
 20
-6.1697791756305955
 10
-7.935858742716177
 20
-6.1397647672914495
 10
-7.58222630687608
 20
-6.108663992413667
 10
-7.226771536044369
 20
-6.076841317995573
 10
-6.869613745113351
 20
-6.044120776791943
 10
-6.5107529340830235
 20
-6.010502368802781
 10
-6.150214167969144
 20
-5.975797594274982
 10
-5.7879849142638395
 20
-5.9401007030851005
 10
-5.4242286077044435
 20
-5.90362526000199
 10
-5.058781813553625
 20
-5.866157700256795
 10
-4.691858096580226
 20
-5.827534589112171
 10
-4.323444924276376
 20
-5.787850176444666
 10
-3.9535297641341995
 20
-5.747198712130834
 10
-3.5820308987850176
 20
-5.705473413786244
 10
-3.2092561428742488
 20
-5.662523379181433
 10
-2.835123779033206
 20
-5.618241825931969
 10
-2.459464362338077
 20
-5.573181720789277
 10
-2.0824789250498448
 20
-5.527273878892564
 10
-1.704336912092322
 20
-5.479965333490402
 10
-1.3248122261887787
 20
-5.431513769196692
 10
-0.9439865847078821
 20
-5.382025968395858
 10
-0.5620735524184916
 20
-5.331338496350559
 10
-0.17889716207538459
 20
-5.279332038168485
 10
0.2053540865683413
 20
-5.226031658865392
 10
0.5908245734207456
 20
-5.171801825439608
 10
0.9773949835895145
 20
-5.116466570645905
 10
1.3649084046587248
 20
-5.059567177609413
 10
1.7534966840285506
 20
-5.001373863451902
 10
2.1431157018539504
 20
-4.942276160187453
 10
2.5336336107347432
 20
-4.882003850694295
 10
2.925132128039611
 20
-4.820450152587996
 10
3.317542068907736
 20
-4.757816098129537
 10
3.710813303307633
 20
-4.693724687812716
 10
4.10494583123929
 20
-4.628175921637532
 10
4.499895532857662
 20
-4.561559331618067
 10
4.895580690794083
 20
-4.493981700138748
 10
5.292083022417235
 20
-4.425336244815144
 10
5.689270680326916
 20
-4.355352748525486
 10
6.087168729538895
 20
-4.284219711022873
 10
6.485777170053166
 20
-4.2119371323073045
 10
6.885001751993183
 20
-4.1385175448866605
 10
7.2848048778353025
 20
-4.063678199131287
 10
7.685211612595296
 20
-3.9876075947942873
 10
8.086083586551561
 20
-3.9107077963976185
 10
8.487596766949322
 20
-3.8328594890489733
 10
8.889525056511854
 20
-3.753804988134456
 10
9.291975237623577
 20
-3.6736260110227397
 10
9.69475881053139
 20
-3.5923476227295814
 10
10.097982557619725
 20
-3.510051540623653
 10
10.501633946380705
 20
-3.4266435148284033
 10
10.905537009569105
 20
-3.342242860236139
 10
11.309811062077232
 20
-3.2570255440920826
 10
11.71444357139721
 20
-3.170897316519684
 10
12.119233505268049
 20
-3.0837889926581497
 10
12.524287646074194
 20
-2.995782289876151
 10
12.929536808954841
 20
-2.9070782404346653
 10
13.33502511375503
 20
-2.8172873123196163
 10
13.740589125737419
 20
-2.7266230702998584
 10
14.146253909917762
 20
-2.635274014128494
 10
14.55200693378818
 20
-2.5431458939289704
 10
14.95782313233292
 20
-2.4500502099481882
 10
15.363727570567736
 20
-2.3561754619392494
 10
15.769556813755276
 20
-2.2617352146710097
 10
16.175380046756352
 20
-2.1665284358824874
 10
16.581140617218036
 20
-2.0708504077112164
 10
16.986800927616688
 20
-1.9744183805275426
 10
17.39234844544445
 20
-1.8771381044549158
 10
17.797808235717056
 20
-1.7791980792464388
 10
18.203029396205046
 20
-1.6809061195475177
 10
18.608106176784986
 20
-1.5822496928502723
 10
19.012906730056663
 20
-1.4829585820329332
 10
19.417443588527995
 20
-1.3831270369720465
 10
19.821716752198935
 20
-1.2827550576676165
 10
20.2257387535774
 20
-1.1819368939961903
 10
20.629308560402386
 20
-1.080603361096975
 10
21.032532955058336
 20
-0.9788361763386432
 10
21.435330220176564
 20
-0.8767421221056234
 10
21.837819670649406
 20
-0.7744971656431349
 10
22.239762676692205
 20
-0.6717493724607376
 10
22.64117177081287
 20
-0.5685929924349796
 10
23.042203865427336
 20
-0.46548674244073285
 10
23.44259526573524
 20
-0.3618901882344517
 10
23.84233343922869
 20
-0.25770907993958886
 10
24.241587830831516
 20
-0.1534963843075647
 10
24.64019500580636
 20
-0.04946566610723838
 10
25.038174018982513
 20
0.05496110642857056
 10
25.4354431529913
 20
0.15967715091543427
 10
25.831908157956182
 20
0.26466993484547535
 10
26.22768834876946
 20
0.36976349097347044
 10
26.62270200806244
 20
0.47485103691499025
 10
27.01696166834303
 20
0.5798383227934861
 10
27.41034801471891
 20
0.6849013158541802
 10
27.802835982174322
 20
0.7902285158501727
 10
28.194463168232915
 20
0.8955371731518139
 10
28.585229572894672
 20
1.000827287759102
 10
28.974959228914376
 20
1.1059795447797316
 10
29.363840636045122
 20
1.2110190092294582
 10
29.75164769701019
 20
1.3162033657221786
 10
30.138392944317445
 20
1.4214383643813389
 10
30.524139040506274
 20
1.5262527558241905
 10
30.908873453068825
 20
1.6307407899272843
 10
31.292382617236214
 20
1.7350659014279626
 10
31.674867565269423
 20
1.839158905465432
 10
32.05612726490748
 20
1.9430889869004861
 10
32.43625596602695
 20
2.046868678241006
 10
32.815184483767005
 20
2.1502969472260083
 10
33.19281856825111
 20
2.2533612613476186
 10
33.569277534371594
 20
2.355885653360616
 10
33.9443352848517
 20
2.458127807878888
 10
34.318180319444515
 20
2.560112789918197
 10
34.69061160588908
 20
2.661909784339334
 10
35.061704339232655
 20
2.762953291883
 10
35.43136426959872
 20
2.8632307800413166
 10
35.79970470169305
 20
2.9633328130893393
 10
36.16643035337818
 20
3.0633160433799875
 10
36.531829984470185
 20
3.162451536916612
 10
36.8957025627081
 20
3.2608084785600067
 10
37.25799795806044
 20
3.3587638678163785
 10
37.61871617052716
 20
3.4563177046857185
 10
37.97786973261616
 20
3.5533757392914826
 10
38.33552130686684
 20
3.6494667222509176
 10
38.69145732851033
 20
3.7447540883013697
 10
39.04582869977611
 20
3.839545652088244
 10
39.398446920911056
 20
3.933816348595783
 10
39.74933705693095
 20
4.0273776780708905
 10
40.098524172851526
 20
4.120041140760462
 10
40.44598320365705
 20
4.2119952364176
 10
40.791619899470945
 20
4.303227432534426
 10
41.13555357518553
 20
4.3935617618657155
 10
41.47759573104772
 20
4.482973159395717
 10
41.81780301941042
 20
4.571756907261956
 10
42.15598694052051
 20
4.659887940448676
 10
42.49245530902342
 20
4.747215356726413
 10
42.82685619042871
 20
4.833500526310552
 10
43.15937808448946
 20
4.918768514216852
 10
43.490008458697815
 20
5.003113570321861
 10
43.818533748284885
 20
5.086699129362922
 10
44.14496648575858
 20
5.169430941463488
 10
44.46950770337987
 20
5.251239821762762
 10
44.791887184026976
 20
5.331993922860564
 10
45.11222424259219
 20
5.411517277511664
 10
45.430387031675366
 20
5.490080102837843
 10
45.74645726864515
 20
5.5677891812235245
 10
46.060353236132876
 20
5.644537730284281
 10
46.37207493413853
 20
5.720325750020112
 10
46.68156571030923
 20
5.794857958293492
 10
46.98888221699786
 20
5.868429637241945
 10
47.293848486959206
 20
5.940921471973168
 10
47.596533705054064
 20
6.012534494748138
 10
47.89697546880607
 20
6.082985955937204
 10
48.19509206084657
 20
6.152169073155942
 10
48.49084588365188
 20
6.220366596033995
 10
48.78423693722204
 20
6.287578524571368
 10
49.07526522155705
 20
6.353804858768061
 10
49.36376730191954
 20
6.4188320338552165
 10
49.64995674307839
 20
6.48249661509549
 10
49.93367663261767
 20
6.545257319363757
 10
50.21484525316866
 20
6.607007364275583
 10
50.493556854607974
 20
6.667759282338855
 10
50.769742252074764
 20
6.727312041292587
 10
51.04329466318462
 20
6.785747358505452
 10
51.31439005518276
 20
6.84318454886976
 10
51.58287752583975
 20
6.899315797740104
 10
51.84873201013978
 20
6.95432960486958
 10
52.11196604059077
 20
7.008131720381642
 10
52.372542019669076
 20
7.061004893905939
 10
52.63048501239042
 20
7.112760625689369
 10
52.88570076887833
 20
7.16338638322406
 10
53.13820182164061
 20
7.212787916633455
 10
53.38806988804594
 20
7.261072008301983
 10
53.63510393583338
 20
7.308307843090442
 10
53.87930396500291
 20
7.3544954209988305
 10
54.120776757938955
 20
7.3995530246584735
 10
54.3595348471494
 20
7.443386404192825
 10
54.5953521353575
 20
7.486253244215779
 10
54.828322872439806
 20
7.528166077235208
 10
55.058484655919976
 20
7.568842153621469
 10
55.28573070341354
 20
7.608363190743228
 10
55.510035949904776
 20
7.64691768835359
 10
55.73151971028599
 20
7.684329679207331
 10
55.950006017311935
 20
7.720479848412143
 10
56.16556405584342
 20
7.755569228229008
 10
56.37818129337257
 20
7.789692068534471
 10
56.58776348002283
 20
7.8228358368206585
 10
56.79433568080995
 20
7.85481203333447
 10
56.997885363226075
 20
7.885714907952451
 10
57.19838746225542
 20
7.915732960427709
 10
57.39585451040589
 20
7.9447719408836885
 10
57.590217322816656
 20
7.972630817059413
 10
57.78147589948775
 20
7.999309588954881
 10
57.96967436026419
 20
8.025197788584173
 10
58.15473098777733
 20
8.05018863356286
 10
58.33664578202714
 20
8.074282123890944
 10
58.51543127552153
 20
8.097384009691872
 10
58.690993218383895
 20
8.119481758457763
 10
58.86342586049084
 20
8.140587902696504
 10
59.03260988695004
 20
8.16087840965331
 10
59.19857036277726
 20
8.180164779575087
 10
59.36128222295671
 20
8.198635512214926
 10
59.520864782380734
 20
8.216114640327614
 10
59.677104476280476
 20
8.23276559865049
 10
59.83008302202456
 20
8.24869516956798
 10
59.97971870224439
 20
8.263796570695666
 10
60.12611829932432
 20
8.277988084664866
 10
60.2691624983721
 20
8.291445678720807
 10
60.40897061427998
 20
8.303993385618261
 10
60.54531654977129
 20
8.315888889971133
 10
60.67840133710696
 20
8.327063006918616
 10
60.80803647653391
 20
8.337490671444963
 10
60.93431621792868
 20
8.34718441605805
 10
61.05724056129128
 20
8.356144240757878
 10
61.176796974113834
 20
8.364464395420995
 10
61.292903739027665
 20
8.372038097662973
 10
61.405535791017
 20
8.379053847236914
 10
61.514799912466295
 20
8.385429926774144
 10
61.6205893209911
 20
8.391248053643334
 10
61.72291654909932
 20
8.396413977967939
 10
61.821769064283046
 20
8.401021949624504
 10
61.91715939905016
 20
8.404977718736482
 10
62.00907502089282
 20
8.408375535180422
 10
62.09749086479523
 20
8.411403898709423
 10
62.182337745896604
 20
8.41386177706251
 10
62.263791631442174
 20
8.415868485131984
 10
62.341557239294424
 20
8.41748067527077
 10
62.41592985159084
 20
8.41864169512594
 10
62.48672096857836
 20
8.419326479681748
 10
62.55390552524122
 20
8.419723528691291
 10
62.617590303963844
 20
8.419751124785895
 10
62.677681054869666
 20
8.419396735457681
 10
62.734152712942944
 20
8.418848860459757
 10
62.787124593076
 20
8.417931532546891
 10
62.83647738037652
 20
8.416820718964312
 10
62.882223607352365
 20
8.41542216983547
 10
62.9243382089878
 20
8.413924384913459
 10
62.96283371779067
 20
8.412233114321735
 10
62.997791851129676
 20
8.410455140444725
 10
63.02902410925171
 20
8.408565398266665
 10
63.05661220952546
 20
8.406670670172
 10
63.08065040182745
 20
8.404783488668592
 10
63.1009501864046
 20
8.402878788740693
 10
63.11758074811769
 20
8.40115760264928
 10
63.13064886935114
 20
8.399538213025682
 10
63.139940985336125
 20
8.398184054607238
 10
63.1455388134413
 20
8.397201909778387
 10
63.14741728865089
 20
8.396780278292216
  0
ENDSEC
  0
SECTION
  2
OBJECTS
  0
DICTIONARY
  5
A
330
0
100
AcDbDictionary
280
0
281
1
  3
ACAD_COLOR
350
B
  3
ACAD_GROUP
350
C
  3
ACAD_LAYOUT
350
D
  3
ACAD_MATERIAL
350
E
  3
ACAD_MLEADERSTYLE
350
F
  3
ACAD_MLINESTYLE
350
10
  3
ACAD_PLOTSETTINGS
350
11
  3
ACAD_PLOTSTYLENAME
350
12
  3
ACAD_SCALELIST
350
14
  3
ACAD_TABLESTYLE
350
15
  3
ACAD_VISUALSTYLE
350
16
  3
EZDXF_META
350
2D
  0
DICTIONARY
  5
B
330
A
100
AcDbDictionary
280
0
281
1
  0
DICTIONARY
  5
C
330
A
100
AcDbDictionary
280
0
281
1
  0
DICTIONARY
  5
D
330
A
100
AcDbDictionary
280
0
281
1
  3
Model
350
1A
  3
Layout1
350
1E
  0
DICTIONARY
  5
E
330
A
100
AcDbDictionary
280
0
281
1
  3
ByBlock
350
1F
  3
ByLayer
350
20
  3
Global
350
21
  0
DICTIONARY
  5
F
330
A
100
AcDbDictionary
280
0
281
1
  3
Standard
350
2C
  0
DICTIONARY
  5
10
330
A
100
AcDbDictionary
280
0
281
1
  3
Standard
350
22
  0
DICTIONARY
  5
11
330
A
100
AcDbDictionary
280
0
281
1
  0
ACDBDICTIONARYWDFLT
  5
12
330
A
100
AcDbDictionary
280
0
281
1
  3
Normal
350
13
100
AcDbDictionaryWithDefault
340
13
  0
ACDBPLACEHOLDER
  5
13
330
12
  0
DICTIONARY
  5
14
330
A
100
AcDbDictionary
280
0
281
1
  0
DICTIONARY
  5
15
330
A
100
AcDbDictionary
280
0
281
1
  0
DICTIONARY
  5
16
330
A
100
AcDbDictionary
280
0
281
1
  0
LAYOUT
  5
1A
330
D
100
AcDbPlotSettings
  1

  4
A3
  6

 40
7.5
 41
20.0
 42
7.5
 43
20.0
 44
420.0
 45
297.0
 46
0.0
 47
0.0
 48
0.0
 49
0.0
140
0.0
141
0.0
142
1.0
143
1.0
 70
1024
 72
1
 73
0
 74
5
  7

 75
16
 76
0
 77
2
 78
300
147
1.0
148
0.0
149
0.0
100
AcDbLayout
  1
Model
 70
1
 71
0
 10
0.0
 20
0.0
 11
420.0
 21
297.0
 12
0.0
 22
0.0
 32
0.0
 14
1e+20
 24
1e+20
 34
1e+20
 15
-1e+20
 25
-1e+20
 35
-1e+20
146
0.0
 13
0.0
 23
0.0
 33
0.0
 16
1.0
 26
0.0
 36
0.0
 17
0.0
 27
1.0
 37
0.0
 76
1
330
17
  0
LAYOUT
  5
1E
330
D
100
AcDbPlotSettings
  1

  4
A3
  6

 40
7.5
 41
20.0
 42
7.5
 43
20.0
 44
420.0
 45
297.0
 46
0.0
 47
0.0
 48
0.0
 49
0.0
140
0.0
141
0.0
142
1.0
143
1.0
 70
0
 72
1
 73
0
 74
5
  7

 75
16
 76
0
 77
2
 78
300
147
1.0
148
0.0
149
0.0
100
AcDbLayout
  1
Layout1
 70
1
 71
1
 10
0.0
 20
0.0
 11
420.0
 21
297.0
 12
0.0
 22
0.0
 32
0.0
 14
1e+20
 24
1e+20
 34
1e+20
 15
-1e+20
 25
-1e+20
 35
-1e+20
146
0.0
 13
0.0
 23
0.0
 33
0.0
 16
1.0
 26
0.0
 36
0.0
 17
0.0
 27
1.0
 37
0.0
 76
1
330
1B
  0
MATERIAL
  5
1F
102
{ACAD_REACTORS
330
E
102
}
330
E
100
AcDbMaterial
  1
ByBlock
  2

 70
0
 40
1.0
 71
1
 41
1.0
 91
-1023410177
 42
1.0
 72
1
  3

 73
1
 74
1
 75
1
 44
0.5
 73
0
 45
1.0
 46
1.0
 77
1
  4

 78
1
 79
1
170
1
 48
1.0
171
1
  6

172
1
173
1
174
1
140
1.0
141
1.0
175
1
  7

176
1
177
1
178
1
143
1.0
179
1
  8

270
1
271
1
272
1
145
1.0
146
1.0
273
1
  9

274
1
275
1
276
1
 42
1.0
 72
1
  3

 73
1
 74
1
 75
1
 94
63
  0
MATERIAL
  5
20
102
{ACAD_REACTORS
330
E
102
}
330
E
100
AcDbMaterial
  1
ByLayer
  2

 70
0
 40
1.0
 71
1
 41
1.0
 91
-1023410177
 42
1.0
 72
1
  3

 73
1
 74
1
 75
1
 44
0.5
 73
0
 45
1.0
 46
1.0
 77
1
  4

 78
1
 79
1
170
1
 48
1.0
171
1
  6

172
1
173
1
174
1
140
1.0
141
1.0
175
1
  7

176
1
177
1
178
1
143
1.0
179
1
  8

270
1
271
1
272
1
145
1.0
146
1.0
273
1
  9

274
1
275
1
276
1
 42
1.0
 72
1
  3

 73
1
 74
1
 75
1
 94
63
  0
MATERIAL
  5
21
102
{ACAD_REACTORS
330
E
102
}
330
E
100
AcDbMaterial
  1
Global
  2

 70
0
 40
1.0
 71
1
 41
1.0
 91
-1023410177
 42
1.0
 72
1
  3

 73
1
 74
1
 75
1
 44
0.5
 73
0
 45
1.0
 46
1.0
 77
1
  4

 78
1
 79
1
170
1
 48
1.0
171
1
  6

172
1
173
1
174
1
140
1.0
141
1.0
175
1
  7

176
1
177
1
178
1
143
1.0
179
1
  8

270
1
271
1
272
1
145
1.0
146
1.0
273
1
  9

274
1
275
1
276
1
 42
1.0
 72
1
  3

 73
1
 74
1
 75
1
 94
63
  0
MLINESTYLE
  5
22
102
{ACAD_REACTORS
330
10
102
}
330
10
100
AcDbMlineStyle
  2
Standard
 70
0
  3

 62
256
 51
90.0
 52
90.0
 71
2
 49
0.5
 62
256
  6
BYLAYER
 49
-0.5
 62
256
  6
BYLAYER
  0
MLEADERSTYLE
  5
2C
102
{ACAD_REACTORS
330
F
102
}
330
F
100
AcDbMLeaderStyle
179
2
170
2
171
1
172
0
 90
2
 40
0.0
 41
0.0
173
1
 91
-1056964608
 92
-2
290
1
 42
2.0
291
1
 43
8.0
  3
Standard
 44
4.0
300

342
29
174
1
175
1
176
0
178
1
 93
-1056964608
 45
4.0
292
0
297
0
 46
4.0
 94
-1056964608
 47
1.0
 49
1.0
140
1.0
294
1
141
0.0
177
0
142
1.0
295
0
296
0
143
3.75
271
0
272
9
273
9
  0
DICTIONARY
  5
2D
330
A
100
AcDbDictionary
280
1
281
1
  3
CREATED_BY_EZDXF
350
2E
  3
WRITTEN_BY_EZDXF
350
32
  0
DICTIONARYVAR
  5
2E
330
2D
100
DictionaryVariables
280
0
  1
1.3.5 @ 2025-08-18T19:55:49.298397+00:00
  0
DICTIONARYVAR
  5
32
330
2D
100
DictionaryVariables
280
0
  1
1.3.5 @ 2025-08-18T19:55:49.307402+00:00
  0
ENDSEC
  0
EOF
