  0
SECTION
  2
HEADER
  9
$ACADVER
  1
AC1032
  9
$ACADMAINTVER
 90
4
  9
$DWGCODEPAGE
  3
ANSI_1252
  9
$LASTSAVEDBY
  1
ezdxf
  9
$REQUIREDVERSIONS
160
0
  9
$INSBASE
 10
0.0
 20
0.0
 30
0.0
  9
$EXTMIN
 10
1e+20
 20
1e+20
 30
1e+20
  9
$EXTMAX
 10
-1e+20
 20
-1e+20
 30
-1e+20
  9
$LIMMIN
 10
0.0
 20
0.0
  9
$LIMMAX
 10
420.0
 20
297.0
  9
$ORTHOMODE
 70
0
  9
$REGENMODE
 70
1
  9
$FILLMODE
 70
1
  9
$QTEXTMODE
 70
0
  9
$MIRRTEXT
 70
1
  9
$LTSCALE
 40
1.0
  9
$ATTMODE
 70
1
  9
$TEXTSIZE
 40
2.5
  9
$TRACEWID
 40
1.0
  9
$TEXTSTYLE
  7
Standard
  9
$CLAYER
  8
0
  9
$CELTYPE
  6
ByLayer
  9
$CECOLOR
 62
256
  9
$CELTSCALE
 40
1.0
  9
$DISPSILH
 70
0
  9
$DIMSCALE
 40
1.0
  9
$DIMASZ
 40
2.5
  9
$DIMEXO
 40
0.625
  9
$DIMDLI
 40
3.75
  9
$DIMRND
 40
0.0
  9
$DIMDLE
 40
0.0
  9
$DIMEXE
 40
1.25
  9
$DIMTP
 40
0.0
  9
$DIMTM
 40
0.0
  9
$DIMTXT
 40
2.5
  9
$DIMCEN
 40
2.5
  9
$DIMTSZ
 40
0.0
  9
$DIMTOL
 70
0
  9
$DIMLIM
 70
0
  9
$DIMTIH
 70
0
  9
$DIMTOH
 70
0
  9
$DIMSE1
 70
0
  9
$DIMSE2
 70
0
  9
$DIMTAD
 70
1
  9
$DIMZIN
 70
8
  9
$DIMBLK
  1

  9
$DIMASO
 70
1
  9
$DIMSHO
 70
1
  9
$DIMPOST
  1

  9
$DIMAPOST
  1

  9
$DIMALT
 70
0
  9
$DIMALTD
 70
3
  9
$DIMALTF
 40
0.03937007874
  9
$DIMLFAC
 40
1.0
  9
$DIMTOFL
 70
1
  9
$DIMTVP
 40
0.0
  9
$DIMTIX
 70
0
  9
$DIMSOXD
 70
0
  9
$DIMSAH
 70
0
  9
$DIMBLK1
  1

  9
$DIMBLK2
  1

  9
$DIMSTYLE
  2
ISO-25
  9
$DIMCLRD
 70
0
  9
$DIMCLRE
 70
0
  9
$DIMCLRT
 70
0
  9
$DIMTFAC
 40
1.0
  9
$DIMGAP
 40
0.625
  9
$DIMJUST
 70
0
  9
$DIMSD1
 70
0
  9
$DIMSD2
 70
0
  9
$DIMTOLJ
 70
0
  9
$DIMTZIN
 70
8
  9
$DIMALTZ
 70
0
  9
$DIMALTTZ
 70
0
  9
$DIMUPT
 70
0
  9
$DIMDEC
 70
2
  9
$DIMTDEC
 70
2
  9
$DIMALTU
 70
2
  9
$DIMALTTD
 70
3
  9
$DIMTXSTY
  7
Standard
  9
$DIMAUNIT
 70
0
  9
$DIMADEC
 70
0
  9
$DIMALTRND
 40
0.0
  9
$DIMAZIN
 70
0
  9
$DIMDSEP
 70
44
  9
$DIMATFIT
 70
3
  9
$DIMFRAC
 70
0
  9
$DIMLDRBLK
  1

  9
$DIMLUNIT
 70
2
  9
$DIMLWD
 70
-2
  9
$DIMLWE
 70
-2
  9
$DIMTMOVE
 70
0
  9
$DIMFXL
 40
1.0
  9
$DIMFXLON
 70
0
  9
$DIMJOGANG
 40
0.785398163397
  9
$DIMTFILL
 70
0
  9
$DIMTFILLCLR
 70
0
  9
$DIMARCSYM
 70
0
  9
$DIMLTYPE
  6

  9
$DIMLTEX1
  6

  9
$DIMLTEX2
  6

  9
$DIMTXTDIRECTION
 70
0
  9
$LUNITS
 70
2
  9
$LUPREC
 70
4
  9
$SKETCHINC
 40
1.0
  9
$FILLETRAD
 40
10.0
  9
$AUNITS
 70
0
  9
$AUPREC
 70
2
  9
$MENU
  1
.
  9
$ELEVATION
 40
0.0
  9
$PELEVATION
 40
0.0
  9
$THICKNESS
 40
0.0
  9
$LIMCHECK
 70
0
  9
$CHAMFERA
 40
0.0
  9
$CHAMFERB
 40
0.0
  9
$CHAMFERC
 40
0.0
  9
$CHAMFERD
 40
0.0
  9
$SKPOLY
 70
0
  9
$TDCREATE
 40
2460906.8720833333
  9
$TDUCREATE
 40
2458532.153996898
  9
$TDUPDATE
 40
2460906.8720833333
  9
$TDUUPDATE
 40
2458532.1544311
  9
$TDINDWG
 40
0.0
  9
$TDUSRTIMER
 40
0.0
  9
$USRTIMER
 70
1
  9
$ANGBASE
 50
0.0
  9
$ANGDIR
 70
0
  9
$PDMODE
 70
0
  9
$PDSIZE
 40
0.0
  9
$PLINEWID
 40
0.0
  9
$SPLFRAME
 70
0
  9
$SPLINETYPE
 70
6
  9
$SPLINESEGS
 70
8
  9
$HANDSEED
  5
33
  9
$SURFTAB1
 70
6
  9
$SURFTAB2
 70
6
  9
$SURFTYPE
 70
6
  9
$SURFU
 70
6
  9
$SURFV
 70
6
  9
$UCSBASE
  2

  9
$UCSNAME
  2

  9
$UCSORG
 10
0.0
 20
0.0
 30
0.0
  9
$UCSXDIR
 10
1.0
 20
0.0
 30
0.0
  9
$UCSYDIR
 10
0.0
 20
1.0
 30
0.0
  9
$UCSORTHOREF
  2

  9
$UCSORTHOVIEW
 70
0
  9
$UCSORGTOP
 10
0.0
 20
0.0
 30
0.0
  9
$UCSORGBOTTOM
 10
0.0
 20
0.0
 30
0.0
  9
$UCSORGLEFT
 10
0.0
 20
0.0
 30
0.0
  9
$UCSORGRIGHT
 10
0.0
 20
0.0
 30
0.0
  9
$UCSORGFRONT
 10
0.0
 20
0.0
 30
0.0
  9
$UCSORGBACK
 10
0.0
 20
0.0
 30
0.0
  9
$PUCSBASE
  2

  9
$PUCSNAME
  2

  9
$PUCSORG
 10
0.0
 20
0.0
 30
0.0
  9
$PUCSXDIR
 10
1.0
 20
0.0
 30
0.0
  9
$PUCSYDIR
 10
0.0
 20
1.0
 30
0.0
  9
$PUCSORTHOREF
  2

  9
$PUCSORTHOVIEW
 70
0
  9
$PUCSORGTOP
 10
0.0
 20
0.0
 30
0.0
  9
$PUCSORGBOTTOM
 10
0.0
 20
0.0
 30
0.0
  9
$PUCSORGLEFT
 10
0.0
 20
0.0
 30
0.0
  9
$PUCSORGRIGHT
 10
0.0
 20
0.0
 30
0.0
  9
$PUCSORGFRONT
 10
0.0
 20
0.0
 30
0.0
  9
$PUCSORGBACK
 10
0.0
 20
0.0
 30
0.0
  9
$USERI1
 70
0
  9
$USERI2
 70
0
  9
$USERI3
 70
0
  9
$USERI4
 70
0
  9
$USERI5
 70
0
  9
$USERR1
 40
0.0
  9
$USERR2
 40
0.0
  9
$USERR3
 40
0.0
  9
$USERR4
 40
0.0
  9
$USERR5
 40
0.0
  9
$WORLDVIEW
 70
1
  9
$SHADEDGE
 70
3
  9
$SHADEDIF
 70
70
  9
$TILEMODE
 70
1
  9
$MAXACTVP
 70
64
  9
$PINSBASE
 10
0.0
 20
0.0
 30
0.0
  9
$PLIMCHECK
 70
0
  9
$PEXTMIN
 10
1e+20
 20
1e+20
 30
1e+20
  9
$PEXTMAX
 10
-1e+20
 20
-1e+20
 30
-1e+20
  9
$PLIMMIN
 10
0.0
 20
0.0
  9
$PLIMMAX
 10
420.0
 20
297.0
  9
$UNITMODE
 70
0
  9
$VISRETAIN
 70
1
  9
$PLINEGEN
 70
0
  9
$PSLTSCALE
 70
1
  9
$TREEDEPTH
 70
3020
  9
$CMLSTYLE
  2
Standard
  9
$CMLJUST
 70
0
  9
$CMLSCALE
 40
20.0
  9
$PROXYGRAPHICS
 70
1
  9
$MEASUREMENT
 70
1
  9
$CELWEIGHT
370
-1
  9
$ENDCAPS
280
0
  9
$JOINSTYLE
280
0
  9
$LWDISPLAY
290
0
  9
$INSUNITS
 70
6
  9
$HYPERLINKBASE
  1

  9
$STYLESHEET
  1

  9
$XEDIT
290
1
  9
$CEPSNTYPE
380
0
  9
$PSTYLEMODE
290
1
  9
$FINGERPRINTGUID
  2
{053CCE0B-E489-49A9-B5C6-427473FBACFD}
  9
$VERSIONGUID
  2
{F17D0D43-9230-4D25-8FDA-E244032AF47B}
  9
$EXTNAMES
290
1
  9
$PSVPSCALE
 40
0.0
  9
$OLESTARTUP
290
0
  9
$SORTENTS
280
127
  9
$INDEXCTL
280
0
  9
$HIDETEXT
280
1
  9
$XCLIPFRAME
280
1
  9
$HALOGAP
280
0
  9
$OBSCOLOR
 70
257
  9
$OBSLTYPE
280
0
  9
$INTERSECTIONDISPLAY
280
0
  9
$INTERSECTIONCOLOR
 70
257
  9
$DIMASSOC
280
2
  9
$PROJECTNAME
  1

  9
$CAMERADISPLAY
290
0
  9
$LENSLENGTH
 40
50.0
  9
$CAMERAHEIGHT
 40
0.0
  9
$STEPSPERSEC
 40
24.0
  9
$STEPSIZE
 40
100.0
  9
$3DDWFPREC
 40
2.0
  9
$PSOLWIDTH
 40
0.005
  9
$PSOLHEIGHT
 40
0.08
  9
$LOFTANG1
 40
1.570796326795
  9
$LOFTANG2
 40
1.570796326795
  9
$LOFTMAG1
 40
0.0
  9
$LOFTMAG2
 40
0.0
  9
$LOFTPARAM
 70
7
  9
$LOFTNORMALS
280
1
  9
$LATITUDE
 40
37.795
  9
$LONGITUDE
 40
-122.394
  9
$NORTHDIRECTION
 40
0.0
  9
$TIMEZONE
 70
-8000
  9
$LIGHTGLYPHDISPLAY
280
1
  9
$TILEMODELIGHTSYNCH
280
1
  9
$CMATERIAL
347
20
  9
$SOLIDHIST
280
0
  9
$SHOWHIST
280
1
  9
$DWFFRAME
280
2
  9
$DGNFRAME
280
2
  9
$REALWORLDSCALE
290
1
  9
$INTERFERECOLOR
 62
256
  9
$CSHADOW
280
0
  9
$SHADOWPLANELOCATION
 40
0.0
  0
ENDSEC
  0
SECTION
  2
CLASSES
  0
CLASS
  1
ACDBDICTIONARYWDFLT
  2
AcDbDictionaryWithDefault
  3
ObjectDBX Classes
 90
0
 91
0
280
0
281
0
  0
CLASS
  1
SUN
  2
AcDbSun
  3
SCENEOE
 90
1153
 91
0
280
0
281
0
  0
CLASS
  1
VISUALSTYLE
  2
AcDbVisualStyle
  3
ObjectDBX Classes
 90
4095
 91
0
280
0
281
0
  0
CLASS
  1
MATERIAL
  2
AcDbMaterial
  3
ObjectDBX Classes
 90
1153
 91
0
280
0
281
0
  0
CLASS
  1
SCALE
  2
AcDbScale
  3
ObjectDBX Classes
 90
1153
 91
0
280
0
281
0
  0
CLASS
  1
TABLESTYLE
  2
AcDbTableStyle
  3
ObjectDBX Classes
 90
4095
 91
0
280
0
281
0
  0
CLASS
  1
MLEADERSTYLE
  2
AcDbMLeaderStyle
  3
ACDB_MLEADERSTYLE_CLASS
 90
4095
 91
0
280
0
281
0
  0
CLASS
  1
DICTIONARYVAR
  2
AcDbDictionaryVar
  3
ObjectDBX Classes
 90
0
 91
0
280
0
281
0
  0
CLASS
  1
CELLSTYLEMAP
  2
AcDbCellStyleMap
  3
ObjectDBX Classes
 90
1152
 91
0
280
0
281
0
  0
CLASS
  1
MENTALRAYRENDERSETTINGS
  2
AcDbMentalRayRenderSettings
  3
SCENEOE
 90
1024
 91
0
280
0
281
0
  0
CLASS
  1
ACDBDETAILVIEWSTYLE
  2
AcDbDetailViewStyle
  3
ObjectDBX Classes
 90
1025
 91
0
280
0
281
0
  0
CLASS
  1
ACDBSECTIONVIEWSTYLE
  2
AcDbSectionViewStyle
  3
ObjectDBX Classes
 90
1025
 91
0
280
0
281
0
  0
CLASS
  1
RASTERVARIABLES
  2
AcDbRasterVariables
  3
ISM
 90
0
 91
0
280
0
281
0
  0
CLASS
  1
LAYOUT
  2
AcDbLayout
  3
ObjectDBX Classes
 90
0
 91
0
280
0
281
0
  0
CLASS
  1
ACDBPLACEHOLDER
  2
AcDbPlaceHolder
  3
ObjectDBX Classes
 90
0
 91
0
280
0
281
0
  0
ENDSEC
  0
SECTION
  2
TABLES
  0
TABLE
  2
VPORT
  5
8
330
0
100
AcDbSymbolTable
 70
1
  0
VPORT
  5
23
330
8
100
AcDbSymbolTableRecord
100
AcDbViewportTableRecord
  2
*Active
 70
0
 10
0.0
 20
0.0
 11
1.0
 21
1.0
 12
0.0
 22
0.0
 13
0.0
 23
0.0
 14
0.5
 24
0.5
 15
0.5
 25
0.5
 16
0.0
 26
0.0
 36
1.0
 17
0.0
 27
0.0
 37
0.0
 40
1000.0
 41
1.34
 42
50.0
 43
0.0
 44
0.0
 50
0.0
 51
0.0
 71
0
 72
1000
 73
1
 74
3
 75
0
 76
0
 77
0
 78
0
281
0
 65
0
146
0.0
  0
ENDTAB
  0
TABLE
  2
LTYPE
  5
2
330
0
100
AcDbSymbolTable
 70
3
  0
LTYPE
  5
24
330
2
100
AcDbSymbolTableRecord
100
AcDbLinetypeTableRecord
  2
ByBlock
 70
0
  3

 72
65
 73
0
 40
0.0
  0
LTYPE
  5
25
330
2
100
AcDbSymbolTableRecord
100
AcDbLinetypeTableRecord
  2
ByLayer
 70
0
  3

 72
65
 73
0
 40
0.0
  0
LTYPE
  5
26
330
2
100
AcDbSymbolTableRecord
100
AcDbLinetypeTableRecord
  2
Continuous
 70
0
  3

 72
65
 73
0
 40
0.0
  0
ENDTAB
  0
TABLE
  2
LAYER
  5
1
330
0
100
AcDbSymbolTable
 70
2
  0
LAYER
  5
27
330
1
100
AcDbSymbolTableRecord
100
AcDbLayerTableRecord
  2
0
 70
0
 62
7
  6
Continuous
370
-3
390
13
347
21
  0
LAYER
  5
28
330
1
100
AcDbSymbolTableRecord
100
AcDbLayerTableRecord
  2
Defpoints
 70
0
 62
7
  6
Continuous
290
0
370
-3
390
13
347
21
  0
ENDTAB
  0
TABLE
  2
STYLE
  5
5
330
0
100
AcDbSymbolTable
 70
1
  0
STYLE
  5
29
330
5
100
AcDbSymbolTableRecord
100
AcDbTextStyleTableRecord
  2
Standard
 70
0
 40
0.0
 41
1.0
 50
0.0
 71
0
 42
2.5
  3
txt
  4

  0
ENDTAB
  0
TABLE
  2
VIEW
  5
7
330
0
100
AcDbSymbolTable
 70
0
  0
ENDTAB
  0
TABLE
  2
UCS
  5
6
330
0
100
AcDbSymbolTable
 70
0
  0
ENDTAB
  0
TABLE
  2
APPID
  5
3
330
0
100
AcDbSymbolTable
 70
3
  0
APPID
  5
2A
330
3
100
AcDbSymbolTableRecord
100
AcDbRegAppTableRecord
  2
ACAD
 70
0
  0
APPID
  5
30
330
3
100
AcDbSymbolTableRecord
100
AcDbRegAppTableRecord
  2
HATCHBACKGROUNDCOLOR
 70
0
  0
APPID
  5
31
330
3
100
AcDbSymbolTableRecord
100
AcDbRegAppTableRecord
  2
EZDXF
 70
0
  0
ENDTAB
  0
TABLE
  2
DIMSTYLE
  5
4
330
0
100
AcDbSymbolTable
 70
1
100
AcDbDimStyleTable
  0
DIMSTYLE
105
2B
330
4
100
AcDbSymbolTableRecord
100
AcDbDimStyleTableRecord
  2
Standard
 70
0
 40
1.0
 41
2.5
 42
0.625
 43
3.75
 44
1.25
 45
0.0
 46
0.0
 47
0.0
 48
0.0
 49
2.5
140
2.5
141
2.5
142
0.0
143
0.03937007874
144
1.0
145
0.0
146
1.0
147
0.625
148
0.0
 69
0
 70
0
 71
0
 72
0
 73
0
 74
0
 75
0
 76
0
 77
1
 78
8
 79
3
170
0
171
3
172
1
173
0
174
0
175
0
176
0
177
0
178
0
179
2
271
2
272
2
273
2
274
3
275
0
276
0
277
2
278
44
279
0
280
0
281
0
282
0
283
0
284
8
285
0
286
0
288
0
289
3
290
0
371
-2
372
-2
  0
ENDTAB
  0
TABLE
  2
BLOCK_RECORD
  5
9
330
0
100
AcDbSymbolTable
 70
2
  0
BLOCK_RECORD
  5
17
330
9
100
AcDbSymbolTableRecord
100
AcDbBlockTableRecord
  2
*Model_Space
340
1A
 70
0
280
1
281
0
  0
BLOCK_RECORD
  5
1B
330
9
100
AcDbSymbolTableRecord
100
AcDbBlockTableRecord
  2
*Paper_Space
340
1E
 70
0
280
1
281
0
  0
ENDTAB
  0
ENDSEC
  0
SECTION
  2
BLOCKS
  0
BLOCK
  5
18
330
17
100
AcDbEntity
  8
0
100
AcDbBlockBegin
  2
*Model_Space
 70
0
 10
0.0
 20
0.0
 30
0.0
  3
*Model_Space
  1

  0
ENDBLK
  5
19
330
17
100
AcDbEntity
  8
0
100
AcDbBlockEnd
  0
BLOCK
  5
1C
330
1B
100
AcDbEntity
  8
0
100
AcDbBlockBegin
  2
*Paper_Space
 70
0
 10
0.0
 20
0.0
 30
0.0
  3
*Paper_Space
  1

  0
ENDBLK
  5
1D
330
1B
100
AcDbEntity
  8
0
100
AcDbBlockEnd
  0
ENDSEC
  0
SECTION
  2
ENTITIES
  0
LWPOLYLINE
  5
2F
330
17
100
AcDbEntity
  8
0
100
AcDbPolyline
 90
721
 70
1
 10
80.41366021368246
 20
47.82341395290731
 10
80.41088017869478
 20
47.822897909260135
 10
80.4026828301914
 20
47.82110973754184
 10
80.38935368109135
 20
47.81756935619892
 10
80.37062995454673
 20
47.81244542777835
 10
80.34696582602365
 20
47.80552064757455
 10
80.31816989690391
 20
47.796843657746116
 10
80.28419352502898
 20
47.78622305967491
 10
80.24527675117555
 20
47.77380160982046
 10
80.20137093318506
 20
47.75938790956463
 10
80.15221329420957
 20
47.743150621454404
 10
80.09818663148536
 20
47.72499246117257
 10
80.0391709246241
 20
47.70484205048933
 10
79.97509479539598
 20
47.6828194097931
 10
79.9061010002606
 20
47.6586844983071
 10
79.83204678275835
 20
47.6326773568081
 10
79.75312354150739
 20
47.60474934313749
 10
79.66921125611937
 20
47.5748290790655
 10
79.58023854836449
 20
47.54303658498049
 10
79.48646819509071
 20
47.509203198335506
 10
79.38763741945009
 20
47.47349758167751
 10
79.28388897790217
 20
47.435679694229755
 10
79.17532015476414
 20
47.39613233322856
 10
79.06164226710068
 20
47.35452134359618
 10
78.94321537607689
 20
47.311060860021996
 10
78.81979944091604
 20
47.265608126046416
 10
78.6915144820065
 20
47.21823451989922
 10
78.55836049934825
 20
47.168940041580434
 10
78.42026611471157
 20
47.11784471147842
 10
78.27723132809638
 20
47.064948529593174
 10
78.12939889596231
 20
47.01001145514795
 10
77.97662606184971
 20
46.95327352891949
 10
77.81910422437686
 20
46.89468610874921
 10
77.65664198492549
 20
46.834297836795706
 10
77.48938209995524
 20
46.77186867228222
 10
77.31730183339488
 20
46.707710034215275
 10
77.14032980701464
 20
46.64194194298327
 10
76.95868015550388
 20
46.57420433742107
 10
76.77209010201466
 20
46.50466588007564
 10
76.58087106555348
 20
46.43334930701816
 10
76.38471162711383
 20
46.36023188217746
 10
76.18385182747248
 20
46.28545636201309
 10
75.97817164624102
 20
46.20895136829528
 10
75.76779110380785
 20
46.130788279253785
 10
75.55266155801438
 20
46.050775696270485
 10
75.33290302924897
 20
45.96898499757514
 10
75.10825274066369
 20
45.88558484571472
 10
74.87902211126504
 20
45.800597976760415
 10
74.64509112066469
 20
45.71395301248244
 10
74.40645976886263
 20
45.62564995288081
 10
74.16312805585886
 20
45.535688797955515
 10
73.91514462381198
 20
45.44426094632471
 10
73.66246083056336
 20
45.351174999370244
 10
73.40512531827166
 20
45.256622355710256
 10
73.1432094651666
 20
45.160482994956396
 10
72.87685602770776
 20
45.06251687633189
 10
72.60604226982397
 20
44.96303541884328
 10
72.33050541466727
 20
44.862207285037535
 10
72.0502454622377
 20
44.76003247491468
 10
71.76559656761293
 20
44.65622230553932
 10
71.47648735256321
 20
44.55089679729987
 10
71.18291781708851
 20
44.444055950196315
 10
70.88467382649955
 20
44.33605982539378
 10
70.58211227194516
 20
44.22630832095039
 10
70.27521041735422
 20
44.11511285587268
 10
69.96389688449688
 20
44.00259345054901
 10
69.64798027475507
 20
43.888798747138026
 10
69.32777200713524
 20
43.77375148171083
 10
69.00322343947883
 20
43.65726025564934
 10
68.67433457178586
 20
43.53932506895352
 10
68.34108266798513
 20
43.42025734062992
 10
68.00375324099575
 20
43.29957698912501
 10
67.66208351396979
 20
43.17745267698577
 10
67.31624214945423
 20
43.05414718106015
 10
66.96622914744907
 20
42.929660501348145
 10
66.61206724402548
 20
42.803681218843224
 10
66.25368506095371
 20
42.67632935393377
 10
65.8913226390105
 20
42.54774766307931
 10
65.52471720134785
 20
42.41810480882684
 10
65.15408288265523
 20
42.287040730011256
 10
64.77953970332089
 20
42.15462680486228
 10
64.40108766334492
 20
42.02086303337997
 10
64.01858400626773
 20
41.88598945634104
 10
63.632028732089296
 20
41.7500060737455
 10
63.241493219039434
 20
41.612792865205
 10
62.84728888612467
 20
41.474372566790684
 10
62.44910431433844
 20
41.334722442431385
 10
62.04705952406916
 20
41.19391387035688
 10
61.641488670394544
 20
41.051658167631835
 10
61.2322003546964
 20
40.90800397641481
 10
60.8191004626738
 20
40.763382736100745
 10
60.40230901471512
 20
40.61786582491942
 10
59.98172872650315
 20
40.47107044563452
 10
59.55781377350399
 20
40.32277929354045
 10
59.13027864279854
 20
40.173472450190765
 10
58.69919471261653
 20
40.02302989519703
 10
58.264490604728245
 20
39.87157164894767
 10
57.82642909598157
 20
39.71892904889569
 10
57.38501018637654
 20
39.56510209504109
 10
56.94011385552475
 20
39.41001940915408
 10
56.49190876597319
 20
39.25394376808263
 10
56.040274897333504
 20
39.09680379359693
 10
55.58547502645359
 20
38.93843082315001
 10
55.12750915333348
 20
38.778824856741885
 10
54.66649729836152
 20
38.618057272602314
 10
54.20224806291959
 20
38.456176712889906
 10
53.73473871093647
 20
38.293494596611204
 10
53.264063356713145
 20
38.12957948437128
 10
52.79051068318497
 20
37.964765531247856
 10
52.31412616249434
 20
37.798429899227884
 10
51.83483841641141
 20
37.6306926086997
 10
51.3526733510236
 20
37.46205647728801
 10
50.86755958810118
 20
37.292641525381214
 10
50.37947122155673
 20
37.121944935354605
 10
49.88903108940328
 20
36.95001217935054
 10
49.395950508705525
 20
36.776509102291314
 10
48.90025538555082
 20
36.60193852180159
 10
48.401754321321064
 20
36.42634908004002
 10
47.900758735022784
 20
36.24976351307775
 10
47.39736274095691
 20
36.071750381519855
 10
46.891543603052284
 20
35.89262110437291
 10
46.38315856484934
 20
35.71261572241364
 10
45.87256451749699
 20
35.531134133700164
 10
45.35983283922501
 20
35.3480563178441
 10
44.844846679661245
 20
35.164125133246905
 10
44.327437376258736
 20
34.97907780306064
 10
43.807773591564434
 20
34.79317710413324
 10
43.286283594957055
 20
34.605702914134454
 10
42.76289600820677
 20
34.41677525345262
 10
42.23746807485408
 20
34.22663416286453
 10
41.7097856602096
 20
34.035639703535296
 10
41.1803743179692
 20
33.843454550370986
 10
40.64927952027529
 20
33.64945586535852
 10
40.11664719360364
 20
33.45421784435236
 10
39.5818804060286
 20
33.25819783283486
 10
39.04538469085764
 20
33.060987127482264
 10
38.5074455610099
 20
32.862105646741064
 10
37.9681603008026
 20
32.661936187847594
 10
37.427217491229165
 20
32.46045601473066
 10
36.884785794836596
 20
32.25792790423819
 10
36.34081656946627
 20
32.05416045775204
 10
35.79557259196618
 20
31.84898501272524
 10
35.24917388272464
 20
31.64247294738755
 10
34.701500421353295
 20
31.434552883509202
 10
34.15279224862893
 20
31.22536757754975
 10
33.602809323774736
 20
31.014774273049635
 10
33.05164893110796
 20
30.803155767245194
 10
32.49938244885836
 20
30.59039203974802
 10
31.94636676817484
 20
30.375882988616237
 10
31.392459132597832
 20
30.159868654626596
 10
30.837828204674313
 20
29.942611814627032
 10
30.282162565397755
 20
29.72408973254637
 10
29.725845012004466
 20
29.50420512406742
 10
29.16894692272425
 20
29.28283796880179
 10
28.611539675786865
 20
29.059868246361113
 10
28.053480514732737
 20
28.835535997522125
 10
27.494818081720503
 20
28.610032620903013
 10
26.93555237675013
 20
28.38335811650376
 10
26.37601755489934
 20
28.155223801389006
 10
25.816164974009585
 20
27.925438276940625
 10
25.256186032698945
 20
27.69395290099997
 10
24.695986616666517
 20
27.461199112961996
 10
24.135232570834546
 20
27.22746559576204
 10
23.57430669243937
 20
26.992655065082904
 10
23.013659986930854
 20
26.755735979587794
 10
22.4528641849303
 20
26.517428461606965
 10
21.8920879489847
 20
26.277995287988364
 10
21.331354015165246
 20
26.037125039725463
 10
20.770733761701685
 20
25.794697696429868
 10
20.21025309468147
 20
25.551216075726284
 10
19.649863371945955
 20
25.306488778996535
 10
19.089898748572907
 20
25.06022712330529
 10
18.53023920417392
 20
24.812359730422756
 10
17.971053401295993
 20
24.56314937719688
 10
17.41226996170933
 20
24.31271608401603
 10
16.854103020103267
 20
24.06069978971508
 10
16.29648119824804
 20
23.8072205146824
 10
15.739453138302242
 20
23.552469657536157
 10
15.182684685188145
 20
23.2967359012117
 10
14.626844149061185
 20
23.039441879838318
 10
14.07193152992138
 20
22.78058759341602
 10
13.517875449538947
 20
22.520293062333177
 10
12.964604529684081
 20
22.258678306978158
 10
12.412310168974976
 20
21.99569468519239
 10
11.86080096879344
 20
21.73139083913445
 10
11.310388348146047
 20
21.465789504875534
 10
10.761215063492324
 20
21.198650641638874
 10
10.21320973660251
 20
20.93009426981285
 10
9.666300989246807
 20
20.660240409785843
 10
9.120560199655028
 20
20.388969041169485
 10
8.576370165063459
 20
20.116182879646562
 10
8.033468108624167
 20
19.842050587764057
 10
7.491831294265982
 20
19.566883584528508
 10
6.951696592749417
 20
19.29001038976825
 10
6.413161288391669
 20
19.01181380071958
 10
5.8760112465034
 20
18.732653878547655
 10
5.340340581385578
 20
18.452099183857555
 10
4.806532090274512
 20
18.170052432332074
 10
4.274443016710644
 20
17.88675366474798
 10
3.7440960967651575
 20
17.601891462098724
 10
3.215588614755239
 20
17.31584862162063
 10
2.688943306752096
 20
17.028313724307168
 10
2.164328835302679
 20
16.739549547006266
 10
1.6412910249408994
 20
16.449773394423506
 10
1.120212672903072
 20
16.158887982241684
 10
0.601379292108328
 20
15.866413228907291
 10
0.08471950432687532
 20
15.572469154808706
 10
-0.42986080474224087
 20
15.277487199340845
 10
-0.9422902568692341
 20
14.981347342115331
 10
-1.4524974738243435
 20
14.68392956274378
 10
-1.9603624352191746
 20
14.385305239455976
 10
-2.466147917901671
 20
14.085643034798897
 10
-2.9698766579430225
 20
13.785254367779073
 10
-3.4711431220357163
 20
13.48373053507278
 10
-3.9698045537201927
 20
13.18083149590326
 10
-4.466003709456023
 20
12.876797291047263
 10
-4.959691947084596
 20
12.571819319122955
 10
-5.450989286994305
 20
12.26582620190055
 10
-5.939847087026542
 20
11.959009337998209
 10
-6.426216705022715
 20
11.651560126034092
 10
-6.909932648452063
 20
11.342927106224908
 10
-7.390874896926232
 20
11.03318165680043
 10
-7.869280321205729
 20
10.722995257932334
 10
-8.345126185219383
 20
10.412056490614084
 10
-8.818101069960653
 20
10.10038809091686
 10
-9.288445016206287
 20
9.787847302381103
 10
-9.755917983179533
 20
9.47457688146638
 10
-10.220542706951584
 20
9.160888247179214
 10
-10.682630606528958
 20
8.846758663448435
 10
-11.14170477037439
 20
8.531659406561921
 10
-11.597953427089807
 20
8.216453355309511
 10
-12.051639353523129
 20
7.901309172238188
 10
-12.50245430068407
 20
7.585435356787888
 10
-12.950038207407491
 20
7.269046043647957
 10
-13.394725228771112
 20
6.952429915753746
 10
-13.836586743004709
 20
6.63570699349364
 10
-14.275479993648716
 20
6.3186372360908845
 10
-14.71123631815617
 20
6.001483420393411
 10
-15.144095757303822
 20
5.684102789941661
 10
-15.574032405004251
 20
5.366998162360333
 10
-16.00090350479791
 20
5.049929496872667
 10
-16.424637678455003
 20
4.732776773090288
 10
-16.845306304205323
 20
4.415660011401571
 10
-17.262932118120037
 20
4.098890630813058
 10
-17.677635140587544
 20
3.7823972530949623
 10
-18.089032574371505
 20
3.4660825939300945
 10
-18.497124419471934
 20
3.1499466533184535
 10
-18.90195931804742
 20
2.833798032641872
 10
-19.303488627939377
 20
2.517828130518519
 10
-19.701926483837134
 20
2.202397008113524
 10
-20.0972242435821
 20
1.887696064045052
 10
-20.48909639425515
 20
1.5732452167595834
 10
-20.877662956244667
 20
1.2589730880273404
 10
-21.26249249015573
 20
0.9449737921492859
 10
-21.644039171454438
 20
0.6314646338309909
 10
-22.022374378370568
 20
0.31856563346083794
 10
-22.39725807012737
 20
0.006419547498387896
 10
-22.768618868495064
 20
-0.3050936444447407
 10
-23.136362659172683
 20
-0.6164053817634594
 10
-23.50065493469097
 20
-0.9269642046744765
 10
-23.861709829739272
 20
-1.2364100520126593
 10
-24.219050432780296
 20
-1.5452716474901131
 10
-24.57279676420243
 20
-1.8536203693366224
 10
-24.92285153968848
 20
-2.1610734203158706
 10
-25.26933477962682
 20
-2.4677021786576376
 10
-25.61231786224723
 20
-2.7733866239735425
 10
-25.95146663247199
 20
-3.0784154391989405
 10
-26.286923846760665
 20
-3.3825485835570763
 10
-26.618689505113245
 20
-3.6857860570479484
 10
-26.947049120448863
 20
-3.9876477781180437
 10
-27.27169127376098
 20
-4.288111010696181
 10
-27.592641871137005
 20
-4.587678572407054
 10
-27.909638135729
 20
-4.886519125797641
 10
-28.22284556006772
 20
-5.184081211084647
 10
-28.532526921001086
 20
-5.480196165721093
 10
-28.83827668522161
 20
-5.775272693030718
 10
-29.140117588800475
 20
-6.068999374006981
 10
-29.438361050744206
 20
-6.3613989447210635
 10
-29.732767030276058
 20
-6.652328648713405
 10
-30.023121392706685
 20
-6.942148547149148
 10
-30.309638272725437
 20
-7.230498578863143
 10
-30.59238904856208
 20
-7.517258723467026
 10
-30.871302341986844
 20
-7.802549001349166
 10
-31.146258132611344
 20
-8.086298034279782
 10
-31.4171850422058
 20
-8.368625842647262
 10
-31.68427446938838
 20
-8.649483784292999
 10
-31.947286373382315
 20
-8.928729102757435
 10
-32.20636351064717
 20
-9.206121757263812
 10
-32.461603165500144
 20
-9.48204454504845
 10
-32.71264527677611
 20
-9.75628333142201
 10
-32.95953848663364
 20
-10.029029515002637
 10
-33.202568307991875
 20
-10.299803014236835
 10
-33.44173474085081
 20
-10.568603829124594
 10
-33.67677500836252
 20
-10.835600622212894
 10
-33.907617732297204
 20
-11.100913413890112
 10
-34.134311554813465
 20
-11.364733602774413
 10
-34.35697332628345
 20
-11.626318330464326
 10
-34.57565168886576
 20
-11.885858995578031
 10
-34.79020388610084
 20
-12.143595638892274
 10
-35.00050989760028
 20
-12.399456882177274
 10
-35.206712479823686
 20
-12.653202684656275
 10
-35.40866887631147
 20
-12.905073087106036
 10
-35.60645046529342
 20
-13.154948069138182
 10
-35.80012862499932
 20
-13.402707610364327
 10
-35.98944057858121
 20
-13.64852037333145
 10
-36.17460046072845
 20
-13.89202629687442
 10
-36.355442778910295
 20
-14.133776840776521
 10
-36.53213302565749
 20
-14.37322054525447
 10
-36.70459982274024
 20
-14.610477430696644
 10
-36.87277179192878
 20
-14.845667517491412
 10
-37.03652891283473
 20
-15.078719427409
 10
-37.19606258407624
 20
-15.309584518290812
 10
-37.351466919954284
 20
-15.53783135074193
 10
-37.50259916400929
 20
-15.763699965539105
 10
-37.64945931624128
 20
-15.987190362682352
 10
-37.79223877526838
 20
-16.208253900013062
 10
-37.93062612208407
 20
-16.426867841460048
 10
-38.06488413353629
 20
-16.64286352447634
 10
-38.19503554569623
 20
-16.855929530055406
 10
-38.32120037895224
 20
-17.06613723642701
 10
-38.443115856456416
 20
-17.27365530613815
 10
-38.560973376826894
 20
-17.47843509703021
 10
-38.67453289928693
 20
-17.680333852643635
 10
-38.78417722107283
 20
-17.879254288661233
 10
-38.889737679637626
 20
-18.07493362823506
 10
-38.99119153891013
 20
-18.26768329037165
 10
-39.08853879889034
 20
-18.457503275071016
 10
-39.18177945957827
 20
-18.644393582333144
 10
-39.27093625704509
 20
-18.828042793151507
 10
-39.3560091912908
 20
-19.008450907526093
 10
-39.43690414801444
 20
-19.186049364851826
 10
-39.51371524151698
 20
-19.360406725733792
 10
-39.586156958879286
 20
-19.5320030717255
 10
-39.654514813020484
 20
-19.700358321273445
 10
-39.71850329102145
 20
-19.865952555931123
 10
-39.77826514934176
 20
-20.028545734921796
 10
-39.83380038798139
 20
-20.188137858245454
 10
-39.8849176083222
 20
-20.344777568060696
 10
-39.9319996076005
 20
-20.498367580050328
 10
-39.974472189961816
 20
-20.649053820690145
 10
-40.012838173030836
 20
-20.796810383892726
 10
-40.046786137801035
 20
-20.941614533586897
 10
-40.07653021896174
 20
-21.083106208607514
 10
-40.10204768044178
 20
-21.221596827961122
 10
-40.12328988008256
 20
-21.356894993029552
 10
-40.14054233080319
 20
-21.488520622259298
 10
-40.15371091830272
 20
-21.616905155045274
 10
-40.16281837865232
 20
-21.741737172380944
 10
-40.16800746831155
 20
-21.86277663348955
 10
-40.16956370019954
 20
-21.97954345681757
 10
-40.167487074316305
 20
-22.092037642365018
 10
-40.16204036750975
 20
-22.200090527584905
 10
-40.15334043015205
 20
-22.302959254075784
 10
-40.14179279555068
 20
-22.400235118513915
 10
-40.12823126639184
 20
-22.490789295245296
 10
-40.112915449507234
 20
-22.573638885091718
 10
-40.097107416961734
 20
-22.646934940068903
 10
-40.08206924082019
 20
-22.708828512192568
 10
-40.069273957820585
 20
-22.756296355682064
 10
-40.060626044095805
 20
-22.786409339057712
 10
-39.60672816494808
 20
-23.554815827551366
 10
-39.60080748785009
 20
-23.559580680992852
 10
-39.58311683478588
 20
-23.573755220928916
 10
-39.55394171867457
 20
-23.596859365806054
 10
-39.51194868922153
 20
-23.630862083996913
 10
-39.455878844378105
 20
-23.678426560117014
 10
-39.38932383170454
 20
-23.73324035574088
 10
-39.3143763559356
 20
-23.791511460599
 10
-39.23220437483523
 20
-23.851822366102013
 10
-39.14418681084042
 20
-23.911581265864175
 10
-39.050846047630806
 20
-23.969636598160314
 10
-38.952779017132066
 20
-24.025531017508083
 10
-38.85015121187494
 20
-24.078713064124205
 10
-38.743248144778555
 20
-24.12870265645515
 10
-38.632212572302464
 20
-24.175259753724163
 10
-38.51704449444666
 20
-24.21838435593125
 10
-38.397935309829315
 20
-24.25802782091781
 10
-38.2749077545216
 20
-24.293878729677306
 10
-38.147890450293744
 20
-24.326057102598114
 10
-38.01707479576391
 20
-24.354514297521632
 10
-37.88219801408414
 20
-24.379418976994845
 10
-37.74333148348423
 20
-24.400651120629377
 10
-37.6008580012005
 20
-24.418113444108023
 10
-37.45420337137846
 20
-24.431951873906584
 10
-37.303799033413036
 20
-24.442260524326013
 10
-37.149333568297685
 20
-24.449016659295136
 10
-36.99099837465057
 20
-24.45217163665535
 10
-36.82886483070147
 20
-24.451605436018287
 10
-36.66271880176104
 20
-24.447678118549074
 10
-36.492703044288845
 20
-24.440149643470953
 10
-36.318532045365764
 20
-24.429500092337438
 10
-36.14041993968114
 20
-24.415369403983398
 10
-35.95834399116379
 20
-24.398068997415372
 10
-35.772184179425324
 20
-24.37752749440357
 10
-35.58179774800618
 20
-24.353984935724753
 10
-35.387376095524544
 20
-24.327392679220328
 10
-35.18884784375062
 20
-24.297870745278672
 10
-34.9862129926844
 20
-24.265419133899783
 10
-34.77913738724818
 20
-24.230326528019017
 10
-34.56793244644848
 20
-24.19261566370756
 10
-34.35242950773833
 20
-24.152023764117462
 10
-34.13286861189449
 20
-24.108693585708295
 10
-33.908986982069024
 20
-24.06279379102703
 10
-33.6809046386503
 20
-24.01439575830345
 10
-33.44857293947973
 20
-23.963308088919394
 10
-33.212254661405254
 20
-23.90936212032789
 10
-32.97175840580869
 20
-23.852606494687524
 10
-32.727252835237046
 20
-23.793303988846247
 10
-32.47861792930193
 20
-23.73138322457428
 10
-32.22585368800335
 20
-23.666844201871616
 10
-31.969174246030622
 20
-23.599326859573118
 10
-31.70869962377215
 20
-23.528902575908575
 10
-31.44430980083956
 20
-23.455499972648198
 10
-31.17598204116165
 20
-23.379430468798528
 10
-30.903716344738424
 20
-23.300694064359565
 10
-30.627798224489005
 20
-23.2188106777778
 10
-30.348204944342214
 20
-23.134091728059758
 10
-30.064887862139457
 20
-23.046345816587294
 10
-29.777775599650944
 20
-22.955692963748774
 10
-29.486988177265054
 20
-22.86220454777398
 10
-29.192596973211582
 20
-22.765760548274546
 10
-28.89453060926073
 20
-22.666480985638845
 10
-28.59278908541251
 20
-22.56436585986687
 10
-28.28744377989669
 20
-22.459295150570245
 10
-27.978543334871883
 20
-22.351460256367133
 10
-27.666087750338082
 20
-22.240861177257532
 10
-27.350028384136678
 20
-22.127306514623278
 10
-27.030462520584887
 20
-22.0111790657007
 10
-26.7073415175241
 20
-21.89228743187163
 10
-26.380593996724542
 20
-21.77075163352445
 10
-26.05041135680436
 20
-21.64652302850056
 10
-25.71700773245291
 20
-21.51924155563483
 10
-25.38016898898084
 20
-21.389267276092387
 10
-25.03963234954022
 20
-21.25676885242021
 10
-24.695829253525957
 20
-21.121840398919268
 10
-24.348662416620858
 20
-20.98409911835324
 10
-23.99820321705471
 20
-20.84342499033374
 10
-23.6445489391447
 20
-20.700200812097098
 10
-23.287508184272667
 20
-20.554475225801905
 10
-22.927223708898183
 20
-20.4060081906714
 10
-22.56381553340962
 20
-20.25487108493537
 10
-22.197355036036758
 20
-20.100943888205443
 10
-21.82762808209026
 20
-19.94458666164674
 10
-21.454777428029686
 20
-19.785559364482513
 10
-21.07866031739547
 20
-19.624102037489514
 10
-20.699730925653714
 20
-19.459997375962175
 10
-20.317677833797877
 20
-19.293222643829303
 10
-19.93262106221635
 20
-19.123849219320693
 10
-19.544609253067705
 20
-18.952068501054487
 10
-19.153665142423154
 20
-18.777569070024164
 10
-18.7597659942115
 20
-18.600662345236252
 10
-18.3631032070509
 20
-18.42129968453215
 10
-17.963579496624167
 20
-18.239098290675553
 10
-17.561434903708054
 20
-18.05420092012601
 10
-17.156455293613213
 20
-17.866967634048663
 10
-16.748640666339654
 20
-17.677398432443503
 10
-16.337991021887365
 20
-17.485493315310542
 10
-15.924840515334077
 20
-17.290963599714416
 10
-15.50933190313935
 20
-17.09356924487837
 10
-15.09105965199568
 20
-16.893718954126143
 10
-14.670263802679829
 20
-16.691555483917295
 10
-14.246967091262965
 20
-16.486767415245275
 10
-13.821432294593045
 20
-16.279186085563122
 10
-13.393445277980721
 20
-16.06917155603597
 10
-12.962983305354808
 20
-15.857035245670348
 10
-12.530069112786492
 20
-15.642465735459723
 10
-12.094916834965115
 20
-15.42510296423896
 10
-11.657623756207865
 20
-15.205329729244376
 10
-11.218118498284971
 20
-14.983266050864351
 10
-10.776161020419673
 20
-14.758769172639324
 10
-10.33218276200689
 20
-14.531933208870257
 10
-9.8862064591178
 20
-14.302446740550613
 10
-9.438232111752402
 20
-14.070309767680387
 10
-8.988308362069297
 20
-13.835713688877744
 10
-8.53607831891958
 20
-13.599258606084575
 10
-8.081876137380979
 20
-13.36065583636553
 10
-7.625867309984227
 20
-13.119353919937305
 10
-7.167980458499545
 20
-12.875472877188281
 10
-6.708455623703701
 20
-12.629155464578025
 10
-6.24688727228918
 20
-12.380810385430262
 10
-5.783538181103933
 20
-12.130268977198023
 10
-5.318408350147949
 20
-11.877531239881302
 10
-4.851640535880802
 20
-11.622357132703348
 10
-4.3831633600726985
 20
-11.364866676052536
 10
-3.913074107040845
 20
-11.105442667165182
 10
-3.4412754924680478
 20
-10.843702308804977
 10
-2.9681503135906095
 20
-10.57954831665471
 10
-2.4936271921787565
 20
-10.313100711102768
 10
-2.0176347500027125
 20
-10.044479512537531
 10
-1.540124344903881
 20
-9.773493322340837
 10
-1.0615987945069612
 20
-9.50011623442528
 10
-0.582009456653334
 20
-9.224156850172681
 10
-0.10080804157595756
 20
-8.946263913683545
 10
0.38169403171862815
 20
-8.666460161029054
 10
0.8649484734633792
 20
-8.38409684810871
 10
1.3494094591243722
 20
-8.0993912796281
 10
1.8350283465430266
 20
-7.812534854205369
 10
2.3214223384830204
 20
-7.523430287523328
 10
2.808760097491328
 20
-7.2318148027340365
 10
3.296801582791188
 20
-6.937831156297058
 10
3.7859523276901093
 20
-6.641888051536122
 10
4.275949555340139
 20
-6.343816825904258
 10
4.766316354204017
 20
-6.043088755689344
 10
5.25738687935945
 20
-5.73999252382674
 10
5.749326623337181
 20
-5.4350795900997415
 10
6.2418014310594865
 20
-5.1280612715729985
 10
6.734859944684977
 20
-4.818746169628341
 10
7.228524900284821
 20
-4.5074457032723165
 10
7.722510784939908
 20
-4.193679790951403
 10
8.21681759865024
 20
-3.877448432665601
 10
8.711610833946544
 20
-3.559303088198212
 10
9.206841848670235
 20
-3.2394351561673913
 10
9.70255928497991
 20
-2.9176532379549767
 10
10.198428987797838
 20
-2.5936686506256224
 10
10.694593713583595
 20
-2.2677214349560737
 10
11.191053462337178
 20
-1.9398115909463345
 10
11.6876882136702
 20
-1.6100104968261904
 10
12.18428383289333
 20
-1.2779580914304969
 10
12.68098307646612
 20
-0.9438944155360197
 10
13.177831416530939
 20
-0.6084423071558299
 10
13.674997515634754
 20
-0.2713389894419954
 10
14.17202719831149
 20
0.06763284231107496
 10
14.669111863179282
 20
0.4084245459447702
 10
15.166011469461383
 20
0.7508933649995325
 10
15.66291741577595
 20
1.094990657316762
 10
16.159758323893204
 20
1.4408364432848384
 10
16.65636553126617
 20
1.7881679460558264
 10
17.15300181474279
 20
2.136816503082748
 10
17.649595796093276
 20
2.4869021347539744
 10
18.14583605631109
 20
2.838402104998331
 10
18.641913994014402
 20
3.1912677716572198
 10
19.13785234527438
 20
3.545187715724095
 10
19.633485617560275
 20
3.900713396982253
 10
20.12871652655493
 20
4.25746201819539
 10
20.623687828717863
 20
4.615193538586732
 10
21.118328145819312
 20
4.974027978544668
 10
21.612494721399706
 20
5.334205378845943
 10
22.10633031191863
 20
5.695485698713819
 10
22.599737633058858
 20
6.0574861409119585
 10
23.092693948749233
 20
6.420518124446917
 10
23.585293373290693
 20
6.784150209923761
 10
24.077321771993915
 20
7.148742458507634
 10
24.56870776662912
 20
7.514414890586922
 10
25.05959411365585
 20
7.880927465384851
 10
25.549954906986702
 20
8.247777365276734
 10
26.039910167010056
 20
8.615035968492355
 10
26.529125738648194
 20
8.982991957967066
 10
27.017673000130888
 20
9.351525313312486
 10
27.505551951458138
 20
9.720636034528615
 10
27.99283397085974
 20
10.09020410122708
 10
28.479207639329132
 20
10.460206777336694
 10
28.964864355484508
 20
10.830595420698868
 10
29.449755477167216
 20
11.20117863269542
 10
29.93414378122525
 20
11.571787750779395
 10
30.41750371396268
 20
11.942760100044731
 10
30.899906653609342
 20
12.313975660103067
 10
31.38182951170249
 20
12.684905707242281
 10
31.86260397808668
 20
13.056127607333083
 10
32.34215867453213
 20
13.427761380763856
 10
32.82104189080591
 20
13.799158283434103
 10
33.29915634259081
 20
14.169935518107502
 10
33.776193780896556
 20
14.540884585344122
 10
34.2521055635645
 20
14.91181408652578
 10
34.72677167020632
 20
15.282652643422722
 10
35.20045487766992
 20
15.65323159348795
 10
35.6731065437967
 20
16.023359538103318
 10
36.144798046816476
 20
16.392916456880442
 10
36.61526660988126
 20
16.762071012366295
 10
37.08436947653151
 20
17.13106324533764
 10
37.552320781456594
 20
17.499533094629335
 10
38.01912052465648
 20
17.867480560241393
 10
38.48460004358421
 20
18.234642865325867
 10
38.94899937901652
 20
18.60116276634231
 10
39.41186435548732
 20
18.967257567996302
 10
39.8732663512264
 20
19.332807249899474
 10
40.333562257382646
 20
19.697211710109915
 10
40.79268069572631
 20
20.060590969016022
 10
41.25023886902105
 20
20.423042310934985
 10
41.706548196273395
 20
20.78458847193798
 10
42.16129725847682
 20
21.14520671595383
 10
42.61460607601969
 20
21.504968421212308
 10
43.066497384973225
 20
21.863562168706896
 10
43.516851164949
 20
22.220916580207792
 10
43.96593019279498
 20
22.576862993168028
 10
44.413280293045055
 20
22.931618712293172
 10
44.85914150647599
 20
23.285326494042803
 10
45.30320241408126
 20
23.637963602345728
 10
45.74589128523951
 20
23.98880991487166
 10
46.1870880995624
 20
24.337794053390844
 10
46.626604628447986
 20
24.685778896693094
 10
47.06400943250136
 20
25.032670330477465
 10
47.50011357833752
 20
25.377650948096477
 10
47.93460564694991
 20
25.720698013478938
 10
48.367200125419444
 20
26.062291608178395
 10
48.79789701374607
 20
26.402431732194806
 10
49.22676769015963
 20
26.740998365139824
 10
49.654169045808985
 20
27.077391405071538
 10
50.07971828345784
 20
27.41170813630715
 10
50.50344130919359
 20
27.744451376471368
 10
50.92509808223949
 20
28.075478369104616
 10
51.3448313590551
 20
28.404549073430147
 10
51.762783896099975
 20
28.731423448671194
 10
52.178812936914575
 20
29.056341535604528
 10
52.592798461110476
 20
29.379231956000346
 10
53.00500324553566
 20
29.699926047311692
 10
53.41518724941337
 20
30.018281053079004
 10
53.8232563584426
 20
30.334728412697178
 10
54.22897053184664
 20
30.649125369706677
 10
54.63283258725016
 20
30.96144601802007
 10
55.03450519955922
 20
31.27116480394149
 10
55.4342284095506
 20
31.578424483930494
 10
55.83193083899447
 20
31.883345078375452
 10
56.227229690654504
 20
32.18602387159355
 10
56.620196342760536
 20
32.486340843196444
 10
57.01114221431908
 20
32.784318729255304
 10
57.39977862239479
 20
33.079623374692396
 10
57.78636834383559
 20
33.37208611696075
 10
58.17057722356377
 20
33.66199563899573
 10
58.55245390373791
 20
33.94954333941547
 10
58.93194974219944
 20
34.23453781960185
 10
59.30906473894834
 20
34.51697907955483
 10
59.68389300828558
 20
34.79643567987952
 10
60.0563404359102
 20
35.07333905997084
 10
60.42623835927522
 20
35.347426442980826
 10
60.793564042309455
 20
35.61900924791603
 10
61.15853161970224
 20
35.88772741361132
 10
61.521092449295004
 20
36.15338954144854
 10
61.88103239639835
 20
36.41635569259279
 10
62.23835146101235
 20
36.676625867044116
 10
62.59304964313696
 20
36.934200064802496
 10
62.945029658454985
 20
37.188695488631616
 10
63.29467430420276
 20
37.440014854214276
 10
63.64150666884299
 20
37.688686885262605
 10
63.98547811021708
 20
37.93452018315842
 10
64.32670864871339
 20
38.17758612613151
 10
64.66522102040318
 20
38.417573295175345
 10
65.0008238266682
 20
38.654530332448516
 10
65.33368573005544
 20
38.888720014798956
 10
65.66378082447751
 20
39.11963952460199
 10
65.99096635347487
 20
39.34752890263435
 10
66.31531369527725
 20
39.572268128507666
 10
66.63660871519535
 20
39.794217263387104
 10
66.95499416968869
 20
40.013136266495835
 10
67.27035003836896
 20
40.22895375960417
 10
67.58274769946586
 20
40.44154972232366
 10
67.892235795138
 20
40.65111555327248
 10
68.1985029063789
 20
40.857628516379464
 10
68.50154903318852
 20
41.061088611644614
 10
68.80156557418505
 20
41.261447196909316
 10
69.09862390759821
 20
41.4585842517852
 10
69.39226985796196
 20
41.65271708097783
 10
69.68262344566462
 20
41.843917062716976
 10
69.96989880539559
 20
42.031824135837546
 10
70.25390453853667
 20
42.2164869424981
 10
70.53449788862837
 20
42.39814552347543
 10
70.8119416325185
 20
42.5766312162225
 10
71.08606710766021
 20
42.75168124389144
 10
71.35685157798225
 20
42.923607025488735
 10
71.62422366525487
 20
43.092528581402796
 10
71.88806334908966
 20
43.25837453340382
 10
72.14851338594623
 20
43.42090484071506
 10
72.40550239759474
 20
43.580239523724906
 10
72.65888762757567
 20
43.73661862321009
 10
72.90874045411877
 20
43.88992211878225
 10
73.15508361329526
 20
44.039838591434865
 10
73.39791710510511
 20
44.18636804116789
 10
73.6370754370176
 20
44.330061927764646
 10
73.87250996687409
 20
44.47072885260699
 10
74.10422069467464
 20
44.608368815694895
 10
74.33227899864899
 20
44.74286179664
 10
74.55656485840875
 20
44.8741364172125
 10
74.77719829434234
 20
45.00226405564221
 10
74.99391652960179
 20
45.12741337447607
 10
75.20686232064669
 20
45.24934433293737
 10
75.41589291101745
 20
45.36829697180282
 10
75.62127107756201
 20
45.48410262852548
 10
75.82261402304408
 20
45.5968585874225
 10
76.01997038962222
 20
45.70675624711209
 10
76.21329153513787
 20
45.813604208976066
 10
76.40276885820916
 20
45.91735383085584
 10
76.58813958198813
 20
46.01817377529836
 10
76.76966648332278
 20
46.11589537975668
 10
76.94689538674702
 20
46.21073594893638
 10
77.12013771126729
 20
46.30271821890861
 10
77.2891534161069
 20
46.39169943321383
 10
77.45406252165422
 20
46.47775097008182
 10
77.61486502790927
 20
46.56087282951259
 10
77.77148955664225
 20
46.64118503189449
 10
77.92388746569458
 20
46.71849617860939
 10
78.07191599860661
 20
46.793046310434015
 10
78.21576655399666
 20
46.86478678520981
 10
78.35524773324642
 20
46.933766245095335
 10
78.49043091458576
 20
46.99986466970223
 10
78.62124471978484
 20
47.06320207941886
 10
78.7477605270735
 20
47.123658453856855
 10
78.86990695822193
 20
47.18135381340462
 10
78.98754125677056
 20
47.23652819883886
 10
79.10068615879058
 20
47.288870191153066
 10
79.20951032682898
 20
47.338642567195194
 10
79.31358232149084
 20
47.38575121266425
 10
79.41333358217105
 20
47.430290241861215
 10
79.50852406809288
 20
47.47211689832651
 10
79.59901102279674
 20
47.51147122283691
 10
79.68498584490084
 20
47.54830457323382
 10
79.76632851401678
 20
47.58254557128745
 10
79.84289627368497
 20
47.61443425777455
 10
79.91495190075338
 20
47.643801970148154
 10
79.98223261837403
 20
47.670817370955234
 10
80.04480980477676
 20
47.695360439807416
 10
80.10254070350197
 20
47.71767121748147
 10
80.15549669277947
 20
47.73762968358899
 10
80.20372641476781
 20
47.75542723674814
 10
80.24698982869029
 20
47.770921120499374
 10
80.28533557670546
 20
47.784302733460855
 10
80.31888367920172
 20
47.795643453862326
 10
80.34739409540232
 20
47.80480052524428
 10
80.37084408923607
 20
47.81208536661322
 10
80.38942505932111
 20
47.81744933581054
 10
80.40275420842116
 20
47.820989717153466
 10
80.41088017869478
 20
47.822897909260135
 10
80.41366021368246
 20
47.82341395290731
  0
ENDSEC
  0
SECTION
  2
OBJECTS
  0
DICTIONARY
  5
A
330
0
100
AcDbDictionary
280
0
281
1
  3
ACAD_COLOR
350
B
  3
ACAD_GROUP
350
C
  3
ACAD_LAYOUT
350
D
  3
ACAD_MATERIAL
350
E
  3
ACAD_MLEADERSTYLE
350
F
  3
ACAD_MLINESTYLE
350
10
  3
ACAD_PLOTSETTINGS
350
11
  3
ACAD_PLOTSTYLENAME
350
12
  3
ACAD_SCALELIST
350
14
  3
ACAD_TABLESTYLE
350
15
  3
ACAD_VISUALSTYLE
350
16
  3
EZDXF_META
350
2D
  0
DICTIONARY
  5
B
330
A
100
AcDbDictionary
280
0
281
1
  0
DICTIONARY
  5
C
330
A
100
AcDbDictionary
280
0
281
1
  0
DICTIONARY
  5
D
330
A
100
AcDbDictionary
280
0
281
1
  3
Model
350
1A
  3
Layout1
350
1E
  0
DICTIONARY
  5
E
330
A
100
AcDbDictionary
280
0
281
1
  3
ByBlock
350
1F
  3
ByLayer
350
20
  3
Global
350
21
  0
DICTIONARY
  5
F
330
A
100
AcDbDictionary
280
0
281
1
  3
Standard
350
2C
  0
DICTIONARY
  5
10
330
A
100
AcDbDictionary
280
0
281
1
  3
Standard
350
22
  0
DICTIONARY
  5
11
330
A
100
AcDbDictionary
280
0
281
1
  0
ACDBDICTIONARYWDFLT
  5
12
330
A
100
AcDbDictionary
280
0
281
1
  3
Normal
350
13
100
AcDbDictionaryWithDefault
340
13
  0
ACDBPLACEHOLDER
  5
13
330
12
  0
DICTIONARY
  5
14
330
A
100
AcDbDictionary
280
0
281
1
  0
DICTIONARY
  5
15
330
A
100
AcDbDictionary
280
0
281
1
  0
DICTIONARY
  5
16
330
A
100
AcDbDictionary
280
0
281
1
  0
LAYOUT
  5
1A
330
D
100
AcDbPlotSettings
  1

  4
A3
  6

 40
7.5
 41
20.0
 42
7.5
 43
20.0
 44
420.0
 45
297.0
 46
0.0
 47
0.0
 48
0.0
 49
0.0
140
0.0
141
0.0
142
1.0
143
1.0
 70
1024
 72
1
 73
0
 74
5
  7

 75
16
 76
0
 77
2
 78
300
147
1.0
148
0.0
149
0.0
100
AcDbLayout
  1
Model
 70
1
 71
0
 10
0.0
 20
0.0
 11
420.0
 21
297.0
 12
0.0
 22
0.0
 32
0.0
 14
1e+20
 24
1e+20
 34
1e+20
 15
-1e+20
 25
-1e+20
 35
-1e+20
146
0.0
 13
0.0
 23
0.0
 33
0.0
 16
1.0
 26
0.0
 36
0.0
 17
0.0
 27
1.0
 37
0.0
 76
1
330
17
  0
LAYOUT
  5
1E
330
D
100
AcDbPlotSettings
  1

  4
A3
  6

 40
7.5
 41
20.0
 42
7.5
 43
20.0
 44
420.0
 45
297.0
 46
0.0
 47
0.0
 48
0.0
 49
0.0
140
0.0
141
0.0
142
1.0
143
1.0
 70
0
 72
1
 73
0
 74
5
  7

 75
16
 76
0
 77
2
 78
300
147
1.0
148
0.0
149
0.0
100
AcDbLayout
  1
Layout1
 70
1
 71
1
 10
0.0
 20
0.0
 11
420.0
 21
297.0
 12
0.0
 22
0.0
 32
0.0
 14
1e+20
 24
1e+20
 34
1e+20
 15
-1e+20
 25
-1e+20
 35
-1e+20
146
0.0
 13
0.0
 23
0.0
 33
0.0
 16
1.0
 26
0.0
 36
0.0
 17
0.0
 27
1.0
 37
0.0
 76
1
330
1B
  0
MATERIAL
  5
1F
102
{ACAD_REACTORS
330
E
102
}
330
E
100
AcDbMaterial
  1
ByBlock
  2

 70
0
 40
1.0
 71
1
 41
1.0
 91
-1023410177
 42
1.0
 72
1
  3

 73
1
 74
1
 75
1
 44
0.5
 73
0
 45
1.0
 46
1.0
 77
1
  4

 78
1
 79
1
170
1
 48
1.0
171
1
  6

172
1
173
1
174
1
140
1.0
141
1.0
175
1
  7

176
1
177
1
178
1
143
1.0
179
1
  8

270
1
271
1
272
1
145
1.0
146
1.0
273
1
  9

274
1
275
1
276
1
 42
1.0
 72
1
  3

 73
1
 74
1
 75
1
 94
63
  0
MATERIAL
  5
20
102
{ACAD_REACTORS
330
E
102
}
330
E
100
AcDbMaterial
  1
ByLayer
  2

 70
0
 40
1.0
 71
1
 41
1.0
 91
-1023410177
 42
1.0
 72
1
  3

 73
1
 74
1
 75
1
 44
0.5
 73
0
 45
1.0
 46
1.0
 77
1
  4

 78
1
 79
1
170
1
 48
1.0
171
1
  6

172
1
173
1
174
1
140
1.0
141
1.0
175
1
  7

176
1
177
1
178
1
143
1.0
179
1
  8

270
1
271
1
272
1
145
1.0
146
1.0
273
1
  9

274
1
275
1
276
1
 42
1.0
 72
1
  3

 73
1
 74
1
 75
1
 94
63
  0
MATERIAL
  5
21
102
{ACAD_REACTORS
330
E
102
}
330
E
100
AcDbMaterial
  1
Global
  2

 70
0
 40
1.0
 71
1
 41
1.0
 91
-1023410177
 42
1.0
 72
1
  3

 73
1
 74
1
 75
1
 44
0.5
 73
0
 45
1.0
 46
1.0
 77
1
  4

 78
1
 79
1
170
1
 48
1.0
171
1
  6

172
1
173
1
174
1
140
1.0
141
1.0
175
1
  7

176
1
177
1
178
1
143
1.0
179
1
  8

270
1
271
1
272
1
145
1.0
146
1.0
273
1
  9

274
1
275
1
276
1
 42
1.0
 72
1
  3

 73
1
 74
1
 75
1
 94
63
  0
MLINESTYLE
  5
22
102
{ACAD_REACTORS
330
10
102
}
330
10
100
AcDbMlineStyle
  2
Standard
 70
0
  3

 62
256
 51
90.0
 52
90.0
 71
2
 49
0.5
 62
256
  6
BYLAYER
 49
-0.5
 62
256
  6
BYLAYER
  0
MLEADERSTYLE
  5
2C
102
{ACAD_REACTORS
330
F
102
}
330
F
100
AcDbMLeaderStyle
179
2
170
2
171
1
172
0
 90
2
 40
0.0
 41
0.0
173
1
 91
-1056964608
 92
-2
290
1
 42
2.0
291
1
 43
8.0
  3
Standard
 44
4.0
300

342
29
174
1
175
1
176
0
178
1
 93
-1056964608
 45
4.0
292
0
297
0
 46
4.0
 94
-1056964608
 47
1.0
 49
1.0
140
1.0
294
1
141
0.0
177
0
142
1.0
295
0
296
0
143
3.75
271
0
272
9
273
9
  0
DICTIONARY
  5
2D
330
A
100
AcDbDictionary
280
1
281
1
  3
CREATED_BY_EZDXF
350
2E
  3
WRITTEN_BY_EZDXF
350
32
  0
DICTIONARYVAR
  5
2E
330
2D
100
DictionaryVariables
280
0
  1
1.3.5 @ 2025-08-18T19:55:48.926728+00:00
  0
DICTIONARYVAR
  5
32
330
2D
100
DictionaryVariables
280
0
  1
1.3.5 @ 2025-08-18T19:55:48.935236+00:00
  0
ENDSEC
  0
EOF
