  0
SECTION
  2
HEADER
  9
$ACADVER
  1
AC1032
  9
$ACADMAINTVER
 90
4
  9
$DWGCODEPAGE
  3
ANSI_1252
  9
$LASTSAVEDBY
  1
ezdxf
  9
$REQUIREDVERSIONS
160
0
  9
$INSBASE
 10
0.0
 20
0.0
 30
0.0
  9
$EXTMIN
 10
1e+20
 20
1e+20
 30
1e+20
  9
$EXTMAX
 10
-1e+20
 20
-1e+20
 30
-1e+20
  9
$LIMMIN
 10
0.0
 20
0.0
  9
$LIMMAX
 10
420.0
 20
297.0
  9
$ORTHOMODE
 70
0
  9
$REGENMODE
 70
1
  9
$FILLMODE
 70
1
  9
$QTEXTMODE
 70
0
  9
$MIRRTEXT
 70
1
  9
$LTSCALE
 40
1.0
  9
$ATTMODE
 70
1
  9
$TEXTSIZE
 40
2.5
  9
$TRACEWID
 40
1.0
  9
$TEXTSTYLE
  7
Standard
  9
$CLAYER
  8
0
  9
$CELTYPE
  6
ByLayer
  9
$CECOLOR
 62
256
  9
$CELTSCALE
 40
1.0
  9
$DISPSILH
 70
0
  9
$DIMSCALE
 40
1.0
  9
$DIMASZ
 40
2.5
  9
$DIMEXO
 40
0.625
  9
$DIMDLI
 40
3.75
  9
$DIMRND
 40
0.0
  9
$DIMDLE
 40
0.0
  9
$DIMEXE
 40
1.25
  9
$DIMTP
 40
0.0
  9
$DIMTM
 40
0.0
  9
$DIMTXT
 40
2.5
  9
$DIMCEN
 40
2.5
  9
$DIMTSZ
 40
0.0
  9
$DIMTOL
 70
0
  9
$DIMLIM
 70
0
  9
$DIMTIH
 70
0
  9
$DIMTOH
 70
0
  9
$DIMSE1
 70
0
  9
$DIMSE2
 70
0
  9
$DIMTAD
 70
1
  9
$DIMZIN
 70
8
  9
$DIMBLK
  1

  9
$DIMASO
 70
1
  9
$DIMSHO
 70
1
  9
$DIMPOST
  1

  9
$DIMAPOST
  1

  9
$DIMALT
 70
0
  9
$DIMALTD
 70
3
  9
$DIMALTF
 40
0.03937007874
  9
$DIMLFAC
 40
1.0
  9
$DIMTOFL
 70
1
  9
$DIMTVP
 40
0.0
  9
$DIMTIX
 70
0
  9
$DIMSOXD
 70
0
  9
$DIMSAH
 70
0
  9
$DIMBLK1
  1

  9
$DIMBLK2
  1

  9
$DIMSTYLE
  2
ISO-25
  9
$DIMCLRD
 70
0
  9
$DIMCLRE
 70
0
  9
$DIMCLRT
 70
0
  9
$DIMTFAC
 40
1.0
  9
$DIMGAP
 40
0.625
  9
$DIMJUST
 70
0
  9
$DIMSD1
 70
0
  9
$DIMSD2
 70
0
  9
$DIMTOLJ
 70
0
  9
$DIMTZIN
 70
8
  9
$DIMALTZ
 70
0
  9
$DIMALTTZ
 70
0
  9
$DIMUPT
 70
0
  9
$DIMDEC
 70
2
  9
$DIMTDEC
 70
2
  9
$DIMALTU
 70
2
  9
$DIMALTTD
 70
3
  9
$DIMTXSTY
  7
Standard
  9
$DIMAUNIT
 70
0
  9
$DIMADEC
 70
0
  9
$DIMALTRND
 40
0.0
  9
$DIMAZIN
 70
0
  9
$DIMDSEP
 70
44
  9
$DIMATFIT
 70
3
  9
$DIMFRAC
 70
0
  9
$DIMLDRBLK
  1

  9
$DIMLUNIT
 70
2
  9
$DIMLWD
 70
-2
  9
$DIMLWE
 70
-2
  9
$DIMTMOVE
 70
0
  9
$DIMFXL
 40
1.0
  9
$DIMFXLON
 70
0
  9
$DIMJOGANG
 40
0.785398163397
  9
$DIMTFILL
 70
0
  9
$DIMTFILLCLR
 70
0
  9
$DIMARCSYM
 70
0
  9
$DIMLTYPE
  6

  9
$DIMLTEX1
  6

  9
$DIMLTEX2
  6

  9
$DIMTXTDIRECTION
 70
0
  9
$LUNITS
 70
2
  9
$LUPREC
 70
4
  9
$SKETCHINC
 40
1.0
  9
$FILLETRAD
 40
10.0
  9
$AUNITS
 70
0
  9
$AUPREC
 70
2
  9
$MENU
  1
.
  9
$ELEVATION
 40
0.0
  9
$PELEVATION
 40
0.0
  9
$THICKNESS
 40
0.0
  9
$LIMCHECK
 70
0
  9
$CHAMFERA
 40
0.0
  9
$CHAMFERB
 40
0.0
  9
$CHAMFERC
 40
0.0
  9
$CHAMFERD
 40
0.0
  9
$SKPOLY
 70
0
  9
$TDCREATE
 40
2460906.8720833333
  9
$TDUCREATE
 40
2458532.153996898
  9
$TDUPDATE
 40
2460906.8720833333
  9
$TDUUPDATE
 40
2458532.1544311
  9
$TDINDWG
 40
0.0
  9
$TDUSRTIMER
 40
0.0
  9
$USRTIMER
 70
1
  9
$ANGBASE
 50
0.0
  9
$ANGDIR
 70
0
  9
$PDMODE
 70
0
  9
$PDSIZE
 40
0.0
  9
$PLINEWID
 40
0.0
  9
$SPLFRAME
 70
0
  9
$SPLINETYPE
 70
6
  9
$SPLINESEGS
 70
8
  9
$HANDSEED
  5
33
  9
$SURFTAB1
 70
6
  9
$SURFTAB2
 70
6
  9
$SURFTYPE
 70
6
  9
$SURFU
 70
6
  9
$SURFV
 70
6
  9
$UCSBASE
  2

  9
$UCSNAME
  2

  9
$UCSORG
 10
0.0
 20
0.0
 30
0.0
  9
$UCSXDIR
 10
1.0
 20
0.0
 30
0.0
  9
$UCSYDIR
 10
0.0
 20
1.0
 30
0.0
  9
$UCSORTHOREF
  2

  9
$UCSORTHOVIEW
 70
0
  9
$UCSORGTOP
 10
0.0
 20
0.0
 30
0.0
  9
$UCSORGBOTTOM
 10
0.0
 20
0.0
 30
0.0
  9
$UCSORGLEFT
 10
0.0
 20
0.0
 30
0.0
  9
$UCSORGRIGHT
 10
0.0
 20
0.0
 30
0.0
  9
$UCSORGFRONT
 10
0.0
 20
0.0
 30
0.0
  9
$UCSORGBACK
 10
0.0
 20
0.0
 30
0.0
  9
$PUCSBASE
  2

  9
$PUCSNAME
  2

  9
$PUCSORG
 10
0.0
 20
0.0
 30
0.0
  9
$PUCSXDIR
 10
1.0
 20
0.0
 30
0.0
  9
$PUCSYDIR
 10
0.0
 20
1.0
 30
0.0
  9
$PUCSORTHOREF
  2

  9
$PUCSORTHOVIEW
 70
0
  9
$PUCSORGTOP
 10
0.0
 20
0.0
 30
0.0
  9
$PUCSORGBOTTOM
 10
0.0
 20
0.0
 30
0.0
  9
$PUCSORGLEFT
 10
0.0
 20
0.0
 30
0.0
  9
$PUCSORGRIGHT
 10
0.0
 20
0.0
 30
0.0
  9
$PUCSORGFRONT
 10
0.0
 20
0.0
 30
0.0
  9
$PUCSORGBACK
 10
0.0
 20
0.0
 30
0.0
  9
$USERI1
 70
0
  9
$USERI2
 70
0
  9
$USERI3
 70
0
  9
$USERI4
 70
0
  9
$USERI5
 70
0
  9
$USERR1
 40
0.0
  9
$USERR2
 40
0.0
  9
$USERR3
 40
0.0
  9
$USERR4
 40
0.0
  9
$USERR5
 40
0.0
  9
$WORLDVIEW
 70
1
  9
$SHADEDGE
 70
3
  9
$SHADEDIF
 70
70
  9
$TILEMODE
 70
1
  9
$MAXACTVP
 70
64
  9
$PINSBASE
 10
0.0
 20
0.0
 30
0.0
  9
$PLIMCHECK
 70
0
  9
$PEXTMIN
 10
1e+20
 20
1e+20
 30
1e+20
  9
$PEXTMAX
 10
-1e+20
 20
-1e+20
 30
-1e+20
  9
$PLIMMIN
 10
0.0
 20
0.0
  9
$PLIMMAX
 10
420.0
 20
297.0
  9
$UNITMODE
 70
0
  9
$VISRETAIN
 70
1
  9
$PLINEGEN
 70
0
  9
$PSLTSCALE
 70
1
  9
$TREEDEPTH
 70
3020
  9
$CMLSTYLE
  2
Standard
  9
$CMLJUST
 70
0
  9
$CMLSCALE
 40
20.0
  9
$PROXYGRAPHICS
 70
1
  9
$MEASUREMENT
 70
1
  9
$CELWEIGHT
370
-1
  9
$ENDCAPS
280
0
  9
$JOINSTYLE
280
0
  9
$LWDISPLAY
290
0
  9
$INSUNITS
 70
6
  9
$HYPERLINKBASE
  1

  9
$STYLESHEET
  1

  9
$XEDIT
290
1
  9
$CEPSNTYPE
380
0
  9
$PSTYLEMODE
290
1
  9
$FINGERPRINTGUID
  2
{234D80D0-97D6-4365-B97F-2761C9E3BDDB}
  9
$VERSIONGUID
  2
{11A09691-589B-4ACE-82C0-947C8E92E6A4}
  9
$EXTNAMES
290
1
  9
$PSVPSCALE
 40
0.0
  9
$OLESTARTUP
290
0
  9
$SORTENTS
280
127
  9
$INDEXCTL
280
0
  9
$HIDETEXT
280
1
  9
$XCLIPFRAME
280
1
  9
$HALOGAP
280
0
  9
$OBSCOLOR
 70
257
  9
$OBSLTYPE
280
0
  9
$INTERSECTIONDISPLAY
280
0
  9
$INTERSECTIONCOLOR
 70
257
  9
$DIMASSOC
280
2
  9
$PROJECTNAME
  1

  9
$CAMERADISPLAY
290
0
  9
$LENSLENGTH
 40
50.0
  9
$CAMERAHEIGHT
 40
0.0
  9
$STEPSPERSEC
 40
24.0
  9
$STEPSIZE
 40
100.0
  9
$3DDWFPREC
 40
2.0
  9
$PSOLWIDTH
 40
0.005
  9
$PSOLHEIGHT
 40
0.08
  9
$LOFTANG1
 40
1.570796326795
  9
$LOFTANG2
 40
1.570796326795
  9
$LOFTMAG1
 40
0.0
  9
$LOFTMAG2
 40
0.0
  9
$LOFTPARAM
 70
7
  9
$LOFTNORMALS
280
1
  9
$LATITUDE
 40
37.795
  9
$LONGITUDE
 40
-122.394
  9
$NORTHDIRECTION
 40
0.0
  9
$TIMEZONE
 70
-8000
  9
$LIGHTGLYPHDISPLAY
280
1
  9
$TILEMODELIGHTSYNCH
280
1
  9
$CMATERIAL
347
20
  9
$SOLIDHIST
280
0
  9
$SHOWHIST
280
1
  9
$DWFFRAME
280
2
  9
$DGNFRAME
280
2
  9
$REALWORLDSCALE
290
1
  9
$INTERFERECOLOR
 62
256
  9
$CSHADOW
280
0
  9
$SHADOWPLANELOCATION
 40
0.0
  0
ENDSEC
  0
SECTION
  2
CLASSES
  0
CLASS
  1
ACDBDICTIONARYWDFLT
  2
AcDbDictionaryWithDefault
  3
ObjectDBX Classes
 90
0
 91
0
280
0
281
0
  0
CLASS
  1
SUN
  2
AcDbSun
  3
SCENEOE
 90
1153
 91
0
280
0
281
0
  0
CLASS
  1
VISUALSTYLE
  2
AcDbVisualStyle
  3
ObjectDBX Classes
 90
4095
 91
0
280
0
281
0
  0
CLASS
  1
MATERIAL
  2
AcDbMaterial
  3
ObjectDBX Classes
 90
1153
 91
0
280
0
281
0
  0
CLASS
  1
SCALE
  2
AcDbScale
  3
ObjectDBX Classes
 90
1153
 91
0
280
0
281
0
  0
CLASS
  1
TABLESTYLE
  2
AcDbTableStyle
  3
ObjectDBX Classes
 90
4095
 91
0
280
0
281
0
  0
CLASS
  1
MLEADERSTYLE
  2
AcDbMLeaderStyle
  3
ACDB_MLEADERSTYLE_CLASS
 90
4095
 91
0
280
0
281
0
  0
CLASS
  1
DICTIONARYVAR
  2
AcDbDictionaryVar
  3
ObjectDBX Classes
 90
0
 91
0
280
0
281
0
  0
CLASS
  1
CELLSTYLEMAP
  2
AcDbCellStyleMap
  3
ObjectDBX Classes
 90
1152
 91
0
280
0
281
0
  0
CLASS
  1
MENTALRAYRENDERSETTINGS
  2
AcDbMentalRayRenderSettings
  3
SCENEOE
 90
1024
 91
0
280
0
281
0
  0
CLASS
  1
ACDBDETAILVIEWSTYLE
  2
AcDbDetailViewStyle
  3
ObjectDBX Classes
 90
1025
 91
0
280
0
281
0
  0
CLASS
  1
ACDBSECTIONVIEWSTYLE
  2
AcDbSectionViewStyle
  3
ObjectDBX Classes
 90
1025
 91
0
280
0
281
0
  0
CLASS
  1
RASTERVARIABLES
  2
AcDbRasterVariables
  3
ISM
 90
0
 91
0
280
0
281
0
  0
CLASS
  1
LAYOUT
  2
AcDbLayout
  3
ObjectDBX Classes
 90
0
 91
0
280
0
281
0
  0
CLASS
  1
ACDBPLACEHOLDER
  2
AcDbPlaceHolder
  3
ObjectDBX Classes
 90
0
 91
0
280
0
281
0
  0
ENDSEC
  0
SECTION
  2
TABLES
  0
TABLE
  2
VPORT
  5
8
330
0
100
AcDbSymbolTable
 70
1
  0
VPORT
  5
23
330
8
100
AcDbSymbolTableRecord
100
AcDbViewportTableRecord
  2
*Active
 70
0
 10
0.0
 20
0.0
 11
1.0
 21
1.0
 12
0.0
 22
0.0
 13
0.0
 23
0.0
 14
0.5
 24
0.5
 15
0.5
 25
0.5
 16
0.0
 26
0.0
 36
1.0
 17
0.0
 27
0.0
 37
0.0
 40
1000.0
 41
1.34
 42
50.0
 43
0.0
 44
0.0
 50
0.0
 51
0.0
 71
0
 72
1000
 73
1
 74
3
 75
0
 76
0
 77
0
 78
0
281
0
 65
0
146
0.0
  0
ENDTAB
  0
TABLE
  2
LTYPE
  5
2
330
0
100
AcDbSymbolTable
 70
3
  0
LTYPE
  5
24
330
2
100
AcDbSymbolTableRecord
100
AcDbLinetypeTableRecord
  2
ByBlock
 70
0
  3

 72
65
 73
0
 40
0.0
  0
LTYPE
  5
25
330
2
100
AcDbSymbolTableRecord
100
AcDbLinetypeTableRecord
  2
ByLayer
 70
0
  3

 72
65
 73
0
 40
0.0
  0
LTYPE
  5
26
330
2
100
AcDbSymbolTableRecord
100
AcDbLinetypeTableRecord
  2
Continuous
 70
0
  3

 72
65
 73
0
 40
0.0
  0
ENDTAB
  0
TABLE
  2
LAYER
  5
1
330
0
100
AcDbSymbolTable
 70
2
  0
LAYER
  5
27
330
1
100
AcDbSymbolTableRecord
100
AcDbLayerTableRecord
  2
0
 70
0
 62
7
  6
Continuous
370
-3
390
13
347
21
  0
LAYER
  5
28
330
1
100
AcDbSymbolTableRecord
100
AcDbLayerTableRecord
  2
Defpoints
 70
0
 62
7
  6
Continuous
290
0
370
-3
390
13
347
21
  0
ENDTAB
  0
TABLE
  2
STYLE
  5
5
330
0
100
AcDbSymbolTable
 70
1
  0
STYLE
  5
29
330
5
100
AcDbSymbolTableRecord
100
AcDbTextStyleTableRecord
  2
Standard
 70
0
 40
0.0
 41
1.0
 50
0.0
 71
0
 42
2.5
  3
txt
  4

  0
ENDTAB
  0
TABLE
  2
VIEW
  5
7
330
0
100
AcDbSymbolTable
 70
0
  0
ENDTAB
  0
TABLE
  2
UCS
  5
6
330
0
100
AcDbSymbolTable
 70
0
  0
ENDTAB
  0
TABLE
  2
APPID
  5
3
330
0
100
AcDbSymbolTable
 70
3
  0
APPID
  5
2A
330
3
100
AcDbSymbolTableRecord
100
AcDbRegAppTableRecord
  2
ACAD
 70
0
  0
APPID
  5
30
330
3
100
AcDbSymbolTableRecord
100
AcDbRegAppTableRecord
  2
HATCHBACKGROUNDCOLOR
 70
0
  0
APPID
  5
31
330
3
100
AcDbSymbolTableRecord
100
AcDbRegAppTableRecord
  2
EZDXF
 70
0
  0
ENDTAB
  0
TABLE
  2
DIMSTYLE
  5
4
330
0
100
AcDbSymbolTable
 70
1
100
AcDbDimStyleTable
  0
DIMSTYLE
105
2B
330
4
100
AcDbSymbolTableRecord
100
AcDbDimStyleTableRecord
  2
Standard
 70
0
 40
1.0
 41
2.5
 42
0.625
 43
3.75
 44
1.25
 45
0.0
 46
0.0
 47
0.0
 48
0.0
 49
2.5
140
2.5
141
2.5
142
0.0
143
0.03937007874
144
1.0
145
0.0
146
1.0
147
0.625
148
0.0
 69
0
 70
0
 71
0
 72
0
 73
0
 74
0
 75
0
 76
0
 77
1
 78
8
 79
3
170
0
171
3
172
1
173
0
174
0
175
0
176
0
177
0
178
0
179
2
271
2
272
2
273
2
274
3
275
0
276
0
277
2
278
44
279
0
280
0
281
0
282
0
283
0
284
8
285
0
286
0
288
0
289
3
290
0
371
-2
372
-2
  0
ENDTAB
  0
TABLE
  2
BLOCK_RECORD
  5
9
330
0
100
AcDbSymbolTable
 70
2
  0
BLOCK_RECORD
  5
17
330
9
100
AcDbSymbolTableRecord
100
AcDbBlockTableRecord
  2
*Model_Space
340
1A
 70
0
280
1
281
0
  0
BLOCK_RECORD
  5
1B
330
9
100
AcDbSymbolTableRecord
100
AcDbBlockTableRecord
  2
*Paper_Space
340
1E
 70
0
280
1
281
0
  0
ENDTAB
  0
ENDSEC
  0
SECTION
  2
BLOCKS
  0
BLOCK
  5
18
330
17
100
AcDbEntity
  8
0
100
AcDbBlockBegin
  2
*Model_Space
 70
0
 10
0.0
 20
0.0
 30
0.0
  3
*Model_Space
  1

  0
ENDBLK
  5
19
330
17
100
AcDbEntity
  8
0
100
AcDbBlockEnd
  0
BLOCK
  5
1C
330
1B
100
AcDbEntity
  8
0
100
AcDbBlockBegin
  2
*Paper_Space
 70
0
 10
0.0
 20
0.0
 30
0.0
  3
*Paper_Space
  1

  0
ENDBLK
  5
1D
330
1B
100
AcDbEntity
  8
0
100
AcDbBlockEnd
  0
ENDSEC
  0
SECTION
  2
ENTITIES
  0
LWPOLYLINE
  5
2F
330
17
100
AcDbEntity
  8
0
100
AcDbPolyline
 90
721
 70
1
 10
72.12406903711747
 20
48.45923719514515
 10
72.12151743715916
 20
48.4586165130206
 10
72.1140072917236
 20
48.4565391709185
 10
72.10182790968956
 20
48.45257457738186
 10
72.08472698875346
 20
48.44686570091952
 10
72.06313680630282
 20
48.439234252378114
 10
72.0368773872537
 20
48.429715552402214
 10
72.00591341096158
 20
48.41812962590788
 10
71.97046017315492
 20
48.40462112733449
 10
71.9304823531892
 20
48.38901008159814
 10
71.88572764876076
 20
48.37143945720757
 10
71.8365560100375
 20
48.35183861287374
 10
71.78285978915514
 20
48.33013522137692
 10
71.724566658894
 20
48.30643693058138
 10
71.66182127369353
 20
48.28052844475862
 10
71.59447897911426
 20
48.252625059637126
 10
71.52271975024011
 20
48.22269145457233
 10
71.44643593920694
 20
48.19065530234458
 10
71.36555521879497
 20
48.15662425081809
 10
71.28032989130786
 20
48.12045533148408
 10
71.19050765444199
 20
48.08229151285133
 10
71.09623316263672
 20
48.041917499191364
 10
70.99757705718116
 20
47.999693240672066
 10
70.89428872170228
 20
47.95529410777009
 10
70.78669109979282
 20
47.90893708214453
 10
70.67456889572422
 20
47.86047750935598
 10
70.55802975736084
 20
47.80998771662418
 10
70.43707368470258
 20
47.75746770394907
 10
70.3116283505298
 20
47.703025119194926
 10
70.1816937548425
 20
47.64665996236174
 10
70.04741455208004
 20
47.588156937721045
 10
69.90864608780304
 20
47.527731341001285
 10
69.76556833709542
 20
47.46534785155796
 10
69.61800132487325
 20
47.40104179003557
 10
69.46608970557598
 20
47.334597860705685
 10
69.30979647262838
 20
47.26630368651643
 10
69.14904929881078
 20
47.19626691533207
 10
68.98406516578227
 20
47.12416460355987
 10
68.81459177123926
 20
47.05013971970867
 10
68.64091673812982
 20
46.974229270353526
 10
68.46275244350588
 20
46.896396248919366
 10
68.28031418309585
 20
46.81678530984554
 10
68.09349430903553
 20
46.73532412591237
 10
67.90240046918915
 20
46.65208502433954
 10
67.70699734291215
 20
46.56688803004312
 10
67.50739257806879
 20
46.47980547024281
 10
67.30333387235542
 20
46.390980313447386
 10
67.09510884872022
 20
46.30044956623199
 10
66.88260985929897
 20
46.20814090137694
 10
66.66583690409162
 20
46.11405431888223
 10
66.44478998309822
 20
46.01818981874788
 10
66.21950441696329
 20
45.92072737605779
 10
65.9899448850423
 20
45.82148701572805
 10
65.75614670797977
 20
45.72064871284257
 10
65.51818221299543
 20
45.61810481953713
 10
65.27619605452864
 20
45.51364004008327
 10
65.03015122600424
 20
45.40754199742913
 10
64.77979542511862
 20
45.299953660083496
 10
64.52512865187178
 20
45.19087502804637
 10
64.26647553578702
 20
45.08005548494474
 10
64.0037637496447
 20
44.96760267864285
 10
63.73699329344475
 20
44.85351660914068
 10
63.46594718552813
 20
44.73812022003094
 10
63.190987061993305
 20
44.62087527199248
 10
62.9120759162651
 20
44.50206938797343
 10
62.62914142112384
 20
44.38181021583806
 10
62.34200360148561
 20
44.26013307623087
 10
62.050950080298556
 20
44.13707497572704
 10
61.75594553691813
 20
44.01245593924264
 10
61.456989971344335
 20
43.88627596677766
 10
61.15404637700204
 20
43.758822681280286
 10
60.847404062769975
 20
43.62966549129354
 10
60.53681072634456
 20
43.498947365326224
 10
60.22240933623455
 20
43.36692060568196
 10
59.90419989243996
 20
43.233585212360744
 10
59.582219401535944
 20
43.09865356241442
 10
59.25639553630279
 20
42.962233303707215
 10
58.926943592468966
 20
42.82446909067851
 10
58.593611267730864
 20
42.68550389183709
 10
58.25661554374758
 20
42.54501476359026
 10
57.9160640683833
 20
42.4030740331577
 10
57.57195684163806
 20
42.2596817005394
 10
57.22414920907249
 20
42.11505306146386
 10
56.872641170686535
 20
41.96918811593105
 10
56.517505053699935
 20
41.821979216076755
 10
56.159028481060844
 20
41.67346336847613
 10
55.79692382982108
 20
41.523603566554
 10
55.4312987478449
 20
41.372472137530075
 10
55.06247786465561
 20
41.21981846503135
 10
54.69028120516927
 20
41.06567786970235
 10
54.314599435591056
 20
40.91044562235549
 10
53.93554020378518
 20
40.75419405021045
 10
53.553032868462594
 20
40.59656320309938
 10
53.16750970701081
 20
40.43737479186896
 10
52.77868141055108
 20
40.27705940797614
 10
52.38662030630307
 20
40.115509403556665
 10
51.991254067047116
 20
39.952832426474785
 10
51.59283499508683
 20
39.78888550822173
 10
51.191363090422215
 20
39.62366864879749
 10
50.78673070518902
 20
39.45710952098236
 10
50.37908080789603
 20
39.28946042707998
 10
49.968305750679015
 20
39.12064903987065
 10
49.55465783584161
 20
38.9505323908456
 10
49.13813706338378
 20
38.77911048000483
 10
48.71885108116978
 20
38.60645563456802
 10
48.2966199141157
 20
38.43260317517973
 10
47.87140655564634
 20
38.257840724788096
 10
47.44332033955659
 20
38.08177301258076
 10
47.012611882219446
 20
37.90472466808101
 10
46.57935519678522
 20
37.72612044539253
 10
46.14347795603419
 20
37.54606799237954
 10
45.704978474035784
 20
37.36503490707415
 10
45.263784423570286
 20
37.1831288373406
 10
44.81989749056831
 20
36.999882185146774
 10
44.373892920926174
 20
36.815368963642996
 10
43.92552009827089
 20
36.629264543305936
 10
43.47477733667181
 20
36.44203652216769
 10
43.02148466104506
 20
36.25372022087281
 10
42.56592969433877
 20
36.06435264599645
 10
42.108221770347775
 20
35.8735385267262
 10
41.64832388249694
 20
35.68156548601023
 10
41.186091376346866
 20
35.488648819577
 10
40.72188588799603
 20
35.29425028810535
 10
40.25577974466414
 20
35.09826224373105
 10
39.78762660598117
 20
34.90136758021463
 10
39.31728350343836
 20
34.70331399525251
 10
38.84489340554448
 20
34.504353791148276
 10
38.370890275617704
 20
34.303841080716545
 10
37.89520178643833
 20
34.10188351182153
 10
37.41768328356696
 20
33.89869638019173
 10
36.93811778534452
 20
33.694602629419826
 10
36.45700989637825
 20
33.48931632248827
 10
35.97443362981849
 20
33.28226221350074
 10
35.49049494759882
 20
33.07398022770903
 10
35.004616917892314
 20
32.864863949994906
 10
34.51719649744199
 20
32.65455511612114
 10
34.028522995126615
 20
32.44262313463078
 10
33.538667052235276
 20
32.22942795569169
 10
33.0473410458198
 20
32.014932572728725
 10
32.55468794438898
 20
31.799389288045493
 10
32.06067242729826
 20
31.582618126558085
 10
31.565546796851272
 20
31.364476119757708
 10
31.069418700912255
 20
31.14503559486406
 10
30.57218049161695
 20
30.924224224657443
 10
30.074047464693848
 20
30.70218666357725
 10
29.57480432441447
 20
30.478778257184103
 10
29.074521712067913
 20
30.25435895564585
 10
28.573271954873853
 20
30.028821111098257
 10
28.07141668893077
 20
29.80162648422015
 10
27.56881125979928
 20
29.57299037074
 10
27.06559863598813
 20
29.343165072961426
 10
26.561491194549195
 20
29.11211358430928
 10
26.056848885650304
 20
28.879765263494473
 10
25.551744036511163
 20
28.64601246265278
 10
25.04624897435147
 20
28.410747533919963
 10
24.540219044731824
 20
28.17418577302449
 10
24.033689568296793
 20
27.936507155050293
 10
23.52666054504634
 20
27.697711679997372
 10
23.0194566045038
 20
27.457548731492707
 10
22.512042426024642
 20
27.215838334452386
 10
22.004597984692776
 20
26.972545168231857
 10
21.49701394671337
 20
26.72806450364352
 10
20.988965682563094
 20
26.482646957060386
 10
20.480813142409808
 20
26.236221887193366
 10
19.973027296146835
 20
25.987855783908905
 10
19.465174180456017
 20
25.73819453439241
 10
18.957396763846116
 20
25.487490440947486
 10
18.449732052892305
 20
25.235455880625988
 10
17.942252374814235
 20
24.981983205563658
 10
17.434956043681346
 20
24.727540013792623
 10
16.927807738849058
 20
24.471946330228924
 10
16.42113208984071
 20
24.214951538499566
 10
15.914821448792054
 20
23.95648331138485
 10
15.409018784211874
 20
23.6967939511884
 10
14.903651768880481
 20
23.435991105774452
 10
14.398937384456952
 20
23.17375183155031
 10
13.894803303721568
 20
22.91018377638018
 10
13.391284847318918
 20
22.645466915348027
 10
12.888057385725652
 20
22.379851864826843
 10
12.3857701779884
 20
22.1128373920706
 10
11.88442322410718
 20
21.84442349707932
 10
11.383944196862293
 20
21.574717827717222
 10
10.884260769034038
 20
21.30382803184854
 10
10.38555291570635
 20
21.03171878882874
 10
9.887640661795302
 20
20.758425419302363
 10
9.390811630249056
 20
20.48398492984456
 10
8.89521047550699
 20
20.20818202472686
 10
8.400764870349425
 20
19.93112435181351
 10
7.907402487556659
 20
19.65291955896872
 10
7.415195654348387
 20
19.373459998328276
 10
6.924504320892466
 20
19.092675028603093
 10
6.4350761848852756
 20
18.810707618301944
 10
5.946874239751658
 20
18.527845390372992
 10
5.46015247372585
 20
18.243477778275373
 10
4.974981528096936
 20
17.957964732176936
 10
4.491144421205827
 20
17.67162919567039
 10
4.008750486847385
 20
17.384075897943347
 10
3.528159675189452
 20
17.095234197706713
 10
3.049227331792644
 20
16.80531939068896
 10
2.571990463232119
 20
16.514043853941928
 10
2.096519710796953
 20
16.221767537633472
 10
1.6228520810623055
 20
15.928202818815427
 10
1.1511305425369436
 20
15.63360199979142
 10
0.6809228178333222
 20
15.338143369714766
 10
0.21258885711929462
 20
15.04175628729638
 10
-0.2535820307263579
 20
14.74401016107933
 10
-0.7176621729233346
 20
14.445012638927846
 10
-1.179760903266484
 20
14.145158991654325
 10
-1.6398058945361014
 20
13.844341571394539
 10
-2.0977248195125053
 20
13.54245273028425
 10
-2.5534100303314546
 20
13.239564795543147
 10
-3.0071138292965727
 20
12.935820735680014
 10
-3.4588732229830192
 20
12.631508173643002
 10
-3.9082912546477817
 20
12.326268845194877
 10
-4.3552232698514555
 20
12.019887454607172
 10
-4.79981392303345
 20
11.712579297608348
 10
-5.242027893549215
 20
11.40452434928234
 10
-5.681972829262988
 20
11.09565028240945
 10
-6.119613409530224
 20
10.78613707207361
 10
-6.554914313706392
 20
10.476164693358742
 10
-6.9876938807769395
 20
10.16523022758822
 10
-7.417844462877637
 20
9.853406001981739
 10
-7.845620048242725
 20
9.541302583080157
 10
-8.27098363029704
 20
9.228632347935322
 10
-8.693647586092421
 20
8.915432303122387
 10
-9.113827211357348
 20
8.601557794201952
 10
-9.531307210363337
 20
8.287153475613419
 10
-9.946124589685553
 20
7.972506970304943
 10
-10.358566972272147
 20
7.657581271701375
 10
-10.768165074160432
 20
7.341910467701229
 10
-11.175137562940094
 20
7.026285099929305
 10
-11.579736740914742
 20
6.710848136894389
 10
-11.981636292630473
 20
6.394881364191358
 10
-12.380513274494557
 20
6.078601763479314
 10
-12.776692316030337
 20
5.762259951131248
 10
-13.170245744457489
 20
5.445963575011411
 10
-13.561028905336622
 20
5.129497339391331
 10
-13.948898830158972
 20
4.813113546574622
 10
-14.334070814653005
 20
4.496667542121904
 10
-14.716546544749338
 20
4.1806269240652645
 10
-15.096181366008576
 20
3.864776396676236
 10
-15.472902951211028
 20
3.5490083120905878
 10
-15.846783627576386
 20
3.233430318172547
 10
-16.217860401679808
 20
2.9183300378702803
 10
-16.586240921385528
 20
2.603635143964094
 10
-16.95156523652568
 20
2.289274995164909
 10
-17.313833347100275
 20
1.9752495914727228
 10
-17.673080573753847
 20
1.661378957803609
 10
-18.029271595841863
 20
1.3478430692414929
 10
-18.382623395023398
 20
1.034964869379078
 10
-18.73310065065391
 20
0.7229243333003006
 10
-19.08041405385463
 20
0.41129086954821154
 10
-19.424671252489784
 20
0.09999215090312691
 10
-19.76547697574699
 20
-0.2108624888401134
 10
-20.103263501013775
 20
-0.521094760528191
 10
-20.438103155509854
 20
-0.8305970162968694
 10
-20.76978064350675
 20
-1.1392246017067595
 10
-21.098223637784773
 20
-1.4470851646221028
 10
-21.423322804549066
 20
-1.75457397585529
 10
-21.74525980481418
 20
-2.061188116729691
 10
-22.064251620239197
 20
-2.366604643652608
 10
-22.379828966861407
 20
-2.671289468725509
 10
-22.692099492545044
 20
-2.97531491916809
 10
-23.000992556001027
 20
-3.278321044812501
 10
-23.306615805093603
 20
-3.5803801728784332
 10
-23.60904156704245
 20
-3.8813846555016482
 10
-23.907945212324258
 20
-4.181585109055156
 10
-24.20347139537842
 20
-4.480766237810495
 10
-24.495620116204922
 20
-4.778928041767655
 10
-24.784680683682556
 20
-5.075639929469703
 10
-25.070365474863152
 20
-5.370864894341486
 10
-25.352672803816095
 20
-5.665070534415095
 10
-25.631350368237765
 20
-5.958399818199303
 10
-25.906579829142704
 20
-6.250349827017479
 10
-26.178613488834536
 20
-6.5407775923608495
 10
-26.44705439057024
 20
-6.830041378466658
 10
-26.711939540924988
 20
-7.117853562386739
 10
-26.973556562846927
 20
-7.404251150696248
 10
-27.2316901606076
 20
-7.689089488955795
 10
-27.486123352547914
 20
-7.972691520758085
 10
-27.737073120326958
 20
-8.254734302510418
 10
-27.984611791164422
 20
-8.535110186348554
 10
-28.228667037840612
 20
-8.813926820136723
 10
-28.469131212491302
 20
-9.091111876655248
 10
-28.70593198789679
 20
-9.366773003768348
 10
-28.939249339141004
 20
-9.640874880831484
 10
-29.16886797049548
 20
-9.913272853405275
 10
-29.394932536399597
 20
-10.183751625761246
 10
-29.617513678142448
 20
-10.452671148067255
 10
-29.836288452131324
 20
-10.719814438664228
 10
-30.051292179010765
 20
-10.98536147263608
 10
-30.262814167659545
 20
-11.24888165852588
 10
-30.470854418077668
 20
-11.510374996333628
 10
-30.675160627961514
 20
-11.769984454568096
 10
-30.875660470091375
 20
-12.027817681093522
 10
-31.072389265111806
 20
-12.284054650993834
 10
-31.265493353392806
 20
-12.53801247050847
 10
-31.455008055578908
 20
-12.789871114721363
 10
-31.640788717230738
 20
-13.039845879360975
 10
-31.822727690484047
 20
-13.287864437207608
 10
-32.000969629778226
 20
-13.53371149253281
 10
-32.1753698806739
 20
-13.777602341065037
 10
-32.34600077039074
 20
-14.019429334940053
 10
-32.51293462614846
 20
-14.259084826293636
 10
-32.67591914564343
 20
-14.496711783634543
 10
-32.835171310534726
 20
-14.731987263370089
 10
-32.99050945980782
 20
-14.96541418417689
 10
-33.14211525447724
 20
-15.196489627378327
 10
-33.2899163673233
 20
-15.425321240838626
 10
-33.43384047112631
 20
-15.652016672422025
 10
-33.57377991802202
 20
-15.876503594908828
 10
-33.709914683094375
 20
-16.098746687654497
 10
-33.84235410013822
 20
-16.31835067984663
 10
-33.97095351471416
 20
-16.535530867213705
 10
-34.095712926822195
 20
-16.75028724975571
 10
-34.216812311546256
 20
-16.96258450682811
 10
-34.33396404593819
 20
-17.172385631855754
 10
-34.4474204323016
 20
-17.379547656329866
 10
-34.55721847721165
 20
-17.58378295730228
 10
-34.66346582853259
 20
-17.785163861992693
 10
-34.76591018396076
 20
-17.98383333890988
 10
-34.86473151858013
 20
-18.179756067409294
 10
-34.9597145366622
 20
-18.372787393051553
 10
-35.051219188374844
 20
-18.562856674547575
 10
-35.13910250520929
 20
-18.749711609593742
 10
-35.22332748059036
 20
-18.93363982113821
 10
-35.30389411451809
 20
-19.114641309180985
 10
-35.38080240699245
 20
-19.29271607372206
 10
-35.454089364588604
 20
-19.46757649181328
 10
-35.523754987306546
 20
-19.63922256345463
 10
-35.58968994135144
 20
-19.808049559458524
 10
-35.65200356051813
 20
-19.97366220901256
 10
-35.71040653592784
 20
-20.136491103573675
 10
-35.76518817645935
 20
-20.296105651684925
 10
-35.81605917323386
 20
-20.452936444803257
 10
-35.863164180690795
 20
-20.6067681872002
 10
-35.906503198830116
 20
-20.75760087887575
 10
-35.94589625256793
 20
-20.90546984047445
 10
-35.98170329207207
 20
-21.050304430707218
 10
-36.013384392090764
 20
-21.192210611507676
 10
-36.0414071506561
 20
-21.33119006880644
 10
-36.06548394481991
 20
-21.467205796028352
 10
-36.085831756241284
 20
-21.599934849580713
 10
-36.102413578345065
 20
-21.72966485241168
 10
-36.1151940904867
 20
-21.85621582943733
 10
-36.12446260154499
 20
-21.979157189200723
 10
-36.130109777725075
 20
-22.098884202514252
 10
-36.1321726256021
 20
-22.21510924642976
 10
-36.13079579961547
 20
-22.327617025218775
 10
-36.12626860864395
 20
-22.435976947424365
 10
-36.11859105268754
 20
-22.540189013046522
 10
-36.10801543404988
 20
-22.640110253576474
 10
-36.09468809310094
 20
-22.73505777525366
 10
-36.079005986583766
 20
-22.82467331384084
 10
-36.06180003455952
 20
-22.907952717915354
 10
-36.043361231837586
 20
-22.983997797988184
 10
-36.024954461797314
 20
-23.05115851545126
 10
-36.00784460781805
 20
-23.107784831696534
 10
-35.99355222744397
 20
-23.151148543542984
 10
-35.98399314903168
 20
-23.17863078160444
 10
-35.523795197386214
 20
-23.867982499101345
 10
-35.51806119976135
 20
-23.87209832300311
 10
-35.500931534106456
 20
-23.88433814684419
 10
-35.472695509300316
 20
-23.904271379167625
 10
-35.43201591474387
 20
-23.93365570644572
 10
-35.37758917455205
 20
-23.97489638826679
 10
-35.31306865628468
 20
-24.022323408470935
 10
-35.240588855888056
 20
-24.072527356047207
 10
-35.161305322946696
 20
-24.12425346319993
 10
-35.07662928120992
 20
-24.1751687975605
 10
-34.98710402779076
 20
-24.224232201131095
 10
-34.893306494516125
 20
-24.27105008902995
 10
-34.795418342400595
 20
-24.31511954258042
 10
-34.69372888032292
 20
-24.35600997032557
 10
-34.58838276272252
 20
-24.393506076536934
 10
-34.47937998959936
 20
-24.42760786121451
 10
-34.36690053603738
 20
-24.45828000371375
 10
-34.25098140861174
 20
-24.48523488108651
 10
-34.13155028010274
 20
-24.508580141197005
 10
-34.00878712559432
 20
-24.528280463400698
 10
-33.88243964278284
 20
-24.544478816206375
 10
-33.75258015888801
 20
-24.557067551749793
 10
-33.61956862407768
 20
-24.565976028741876
 10
-33.48286511310006
 20
-24.57131020911624
 10
-33.34286489676756
 20
-24.573179426667732
 10
-33.19928035213199
 20
-24.571546674821207
 10
-33.05229145427732
 20
-24.566376632932112
 10
-32.901970530423206
 20
-24.557561653136226
 10
-32.74810059891058
 20
-24.54542467902624
 10
-32.59082631417885
 20
-24.529750414873693
 10
-32.4298583673492
 20
-24.51096945213552
 10
-32.26541374008074
 20
-24.488758847219025
 10
-32.097455425798316
 20
-24.463406223072354
 10
-31.925875776637678
 20
-24.434839252475832
 10
-31.750530138159448
 20
-24.403273231157915
 10
-31.57159848544755
 20
-24.36867283847407
 10
-31.389008491282304
 20
-24.33114572228852
 10
-31.202760155663682
 20
-24.290691882601283
 10
-31.01252884906839
 20
-24.247561935785356
 10
-30.81860219444459
 20
-24.201792888415895
 10
-30.620837223283495
 20
-24.15313243818928
 10
-30.41944923131359
 20
-24.101725239544898
 10
-30.214185916231227
 20
-24.04771426099152
 10
-30.00515492590067
 20
-23.991171829748843
 10
-29.792320939677364
 20
-23.931917970732943
 10
-29.57593625986493
 20
-23.86980971543504
 10
-29.355820911379446
 20
-23.804882384499674
 10
-29.13211786272968
 20
-23.73738828023047
 10
-28.9047194660514
 20
-23.667255075407727
 10
-28.673625721344603
 20
-23.594482770031455
 10
-28.43905361026838
 20
-23.518748420508945
 10
-28.201110780686964
 20
-23.4401243540599
 10
-27.95968958473611
 20
-23.358538243464608
 10
-27.714753015840675
 20
-23.274277711671246
 10
-27.466301074000654
 20
-23.18734275867981
 10
-27.214623068094827
 20
-23.097302793033368
 10
-26.959681991548038
 20
-23.004445437680072
 10
-26.701442523715755
 20
-22.908590717536004
 10
-26.43983233737826
 20
-22.80984628046539
 10
-26.174959080399816
 20
-22.70828445368793
 10
-25.9068950800001
 20
-22.603797589339386
 10
-25.63556800895942
 20
-22.49649333528399
 10
-25.36097786727779
 20
-22.386371691521756
 10
-25.08319698217488
 20
-22.273325010188433
 10
-24.802260674295244
 20
-22.157533266367956
 10
-24.518168943638884
 20
-22.03899646006032
 10
-24.230886469561256
 20
-21.91753461618161
 10
-23.940483893351445
 20
-21.793507684899673
 10
-23.646925894364898
 20
-21.66673569113058
 10
-23.350140145381935
 20
-21.53732628273857
 10
-23.05030662148648
 20
-21.405244139079095
 10
-22.747642304337614
 20
-21.27016631655946
 10
-22.44193021227625
 20
-21.132415758772368
 10
-22.132918042998774
 20
-20.992135434226586
 10
-21.821001067317592
 20
-20.84943467671697
 10
-21.5061086439436
 20
-20.703953536075662
 10
-21.1883131000965
 20
-20.555584364438424
 10
-20.86768507706538
 20
-20.40468711197311
 10
-20.54404459976631
 20
-20.251297099324272
 10
-20.21753632263868
 20
-20.095199030763432
 10
-19.88826789354672
 20
-19.936465233510287
 10
-19.556311639710113
 20
-19.7749880597006
 10
-19.2214505794698
 20
-19.61109045292708
 10
-18.88382936726515
 20
-19.444557117461247
 10
-18.543303348656792
 20
-19.275603349031584
 10
-18.200304801032257
 20
-19.104050858484765
 10
-17.8545461014434
 20
-18.92986263924564
 10
-17.506134897754446
 20
-18.75311101853391
 10
-17.155106510609933
 20
-18.57397597143349
 10
-16.801497946585023
 20
-18.392169874996227
 10
-16.44527219910456
 20
-18.207980352170285
 10
-16.086609243252468
 20
-18.021372082311114
 10
-15.725438437739676
 20
-17.831985115250866
 10
-15.361975078294643
 20
-17.639964105428927
 10
-14.996002183258287
 20
-17.445631996437996
 10
-14.627519752630615
 20
-17.248988788278076
 10
-14.25652778641162
 20
-17.050034480949176
 10
-13.883350914124621
 20
-16.84851845807827
 10
-13.50813379020901
 20
-16.6442254239369
 10
-13.130479457921778
 20
-16.437513642762305
 10
-12.750603212991379
 20
-16.228527768993878
 10
-12.36854206199298
 20
-16.01698017968345
 10
-11.984548307230206
 20
-15.802727906322252
 10
-11.598404967043965
 20
-15.586093892502987
 10
-11.21007503485911
 20
-15.367365761173811
 10
-10.819595517250791
 20
-15.146255889386573
 10
-10.427183395878092
 20
-14.92244133354856
 10
-10.032909312030096
 20
-14.696282043827631
 10
-9.6367009384871
 20
-14.467885668088021
 10
-9.238342979520649
 20
-14.237107551890345
 10
-8.838230705943127
 20
-14.004057029029441
 10
-8.436401124329702
 20
-13.768446476557163
 10
-8.032854234680357
 20
-13.530275894473494
 10
-7.627625357639647
 20
-13.28972525786237
 10
-7.220352857109096
 20
-13.047332806044968
 10
-6.811361362612017
 20
-12.802847922648272
 10
-6.400832535162959
 20
-12.555767688995651
 10
-5.98869404754222
 20
-12.30619975295134
 10
-5.575161195478277
 20
-12.054288768954727
 10
-5.159837022228112
 20
-11.800393001243057
 10
-4.742973830095355
 20
-11.544369481307557
 10
-4.324571619080003
 20
-11.286218209148222
 10
-3.904775043621438
 20
-11.025723889036588
 10
-3.483511776499976
 20
-10.762994168836885
 10
-3.060852459004692
 20
-10.498388998716976
 10
-2.636726449846511
 20
-10.231548428509
 10
-2.2114936991932796
 20
-9.962401816923874
 10
-1.7850818798253052
 20
-9.691056811825835
 10
-1.3574186645229096
 20
-9.417621061079121
 10
-0.9284687326415311
 20
-9.141914589599793
 10
-0.49869968221328564
 20
-8.863939083318485
 10
-0.06807619259360537
 20
-8.583514567151244
 10
0.3639433473998954
 20
-8.301214601063794
 10
0.7970713148190456
 20
-8.017076191631295
 10
1.230766098481459
 20
-7.7305257788880235
 10
1.6654599757746777
 20
-7.441741651987303
 10
2.101117626054175
 20
-7.1509037860130515
 10
2.537379099152073
 20
-6.857941539676202
 10
2.974387363577162
 20
-6.562602610673124
 10
3.411927123600974
 20
-6.2650316534432005
 10
3.8503953359665095
 20
-5.965586932223687
 10
4.2895396983701515
 20
-5.664125478505801
 10
4.728890926849197
 20
-5.360181380188067
 10
5.168773650926955
 20
-5.054005253643495
 10
5.6093695316179755
 20
-4.746100017548715
 10
6.050353939398938
 20
-4.436215055530719
 10
6.4917621949143856
 20
-4.124170392505578
 10
6.933631304739464
 20
-3.810253651421459
 10
7.375671959995413
 20
-3.4940342408214136
 10
7.817884160682218
 20
-3.1755121607054484
 10
8.260449567814423
 20
-2.8551903297502
 10
8.70333286074749
 20
-2.5332487230395917
 10
9.14656936012596
 20
-2.2095073654896966
 10
9.589834436426514
 20
-1.8837156407275062
 10
10.033272744088547
 20
-1.5560888444814827
 10
10.476884283112051
 20
-1.226626976751634
 10
10.920561405632796
 20
-0.8954023647576543
 10
11.364087129991697
 20
-0.5620920649068339
 10
11.807606110628141
 20
-0.22691137292764615
 10
12.25119236069244
 20
0.10956446528358213
 10
12.694988848693365
 20
0.4475877520304744
 10
13.138563297243365
 20
0.787336776466347
 10
13.582095681426372
 20
1.1287762179466587
 10
14.025370705513918
 20
1.4717614220320232
 10
14.468568344589926
 20
1.8162570680778949
 10
14.911616271434697
 20
2.1623708039485092
 10
15.354371517539475
 20
2.5098503273402515
 10
15.797086385207868
 20
2.8585526697443404
 10
16.239688547220183
 20
3.2085854790250092
 10
16.68189038062826
 20
3.559911748607105
 10
17.123871860516026
 20
3.912496157846088
 10
17.565669993458634
 20
4.266051083793798
 10
18.007103118441545
 20
4.621079445126861
 10
18.448100594175678
 20
4.977221291677426
 10
18.888807075100416
 20
5.3342613277170186
 10
19.329150233996078
 20
5.69230720110988
 10
19.76898541642326
 20
6.05157420758447
 10
20.208457276821356
 20
6.411847051412326
 10
20.64749517390129
 20
6.77276578242559
 10
21.086062101087908
 20
7.134618023572428
 10
21.52426739217605
 20
7.497008504040434
 10
21.961894065506634
 20
7.860260167422313
 10
22.398869793859983
 20
8.224480661582314
 10
22.83533923167546
 20
8.589454690791946
 10
23.271304064883683
 20
8.954714657019123
 10
23.70687194134892
 20
9.32033288748356
 10
24.14171823154781
 20
9.686559998558238
 10
24.575915262700065
 20
10.053288342378934
 10
25.00946303480569
 20
10.420517918945652
 10
25.44243387508438
 20
10.788141080394158
 10
25.874540160587962
 20
11.15612082014929
 10
26.305961866400374
 20
11.524421817566513
 10
26.736663671877054
 20
11.892864097561889
 10
27.16689787932167
 20
12.261304691626668
 10
27.59615988412692
 20
12.630029536778368
 10
28.024522013512538
 20
12.998930985152775
 10
28.452453551441213
 20
13.367543124648398
 10
28.87930523886632
 20
13.736367188011272
 10
29.30500474856817
 20
14.10551082310562
 10
29.73009369172914
 20
14.47440046996573
 10
30.15450142706017
 20
14.842676178423748
 10
30.577901639107317
 20
15.21105616288477
 10
31.000259007226045
 20
15.57936044826487
 10
31.421465883552123
 20
15.94751670734436
 10
31.84177457038917
 20
16.315381971614453
 10
32.26114974709264
 20
16.682776265991222
 10
32.67966374088225
 20
17.049591942610448
 10
33.09706424945435
 20
17.41597196998089
 10
33.513206618369566
 20
17.78213164383102
 10
33.92830782928698
 20
18.14774802056814
 10
34.342367882206574
 20
18.512821100192244
 10
34.75524380861961
 20
18.877098580399718
 10
35.16715090425452
 20
19.24072511562993
 10
35.57765689172377
 20
19.603878995036215
 10
35.98683409824705
 20
19.966452570754335
 10
36.39504415992283
 20
20.32790760346311
 10
36.80221474953144
 20
20.688351741026782
 10
37.20798591690498
 20
21.04785562473443
 10
37.61264528499166
 20
21.406456261161214
 10
38.015905230843266
 20
21.764116643731963
 10
38.417873402324055
 20
22.12090909966638
 10
38.81858680600921
 20
22.476546006016306
 10
39.217937794034434
 20
22.830955035562038
 10
39.61617866870342
 20
23.183993219794818
 10
40.01287715262856
 20
23.535838847867943
 10
40.40824854153836
 20
23.88663657422081
 10
40.80200521248464
 20
24.236349392278264
 10
41.194581128785565
 20
24.584331414854894
 10
41.58586864257691
 20
24.93051031473101
 10
41.97564908626896
 20
25.275676633531404
 10
42.363527189049336
 20
25.619721037461233
 10
42.75029686440406
 20
25.961926998046014
 10
43.13567048938496
 20
26.302257508710575
 10
43.51935875511325
 20
26.64114316091187
 10
43.90136166158895
 20
26.978583954649892
 10
44.28175153603175
 20
27.314472242060408
 10
44.660890014540115
 20
27.648269783822247
 10
45.03841714694619
 20
27.980047221224492
 10
45.41433124731935
 20
28.310272152299227
 10
45.78841701993116
 20
28.638799922607063
 10
46.160819119220974
 20
28.965415236419545
 10
46.53168219962819
 20
29.28990279800819
 10
46.900861606713434
 20
29.612477903101475
 10
47.268249692612436
 20
29.93306822447969
 10
47.63409875962885
 20
30.25153079363409
 10
47.99819351203421
 20
30.567720956125264
 10
48.360424616033654
 20
30.882033982765616
 10
48.720576775898714
 20
31.194325219115754
 10
49.07911758966148
 20
31.504596351106294
 10
49.435761120304406
 20
31.812342774129984
 10
49.79072266355596
 20
32.117709142626225
 10
50.14392989219647
 20
32.42080310445925
 10
50.49502285605802
 20
32.72169530091813
 10
50.84407388236038
 20
33.02027808413863
 10
51.19137059405164
 20
33.31658846069591
 10
51.53666237475886
 20
33.61030180106667
 10
51.880201526785605
 20
33.9012751367421
 10
52.2216634206086
 20
34.189759084095236
 10
52.561083376872354
 20
34.47593361820999
 10
52.89842607493233
 20
34.75961876400244
 10
53.23369151478855
 20
35.04081452147259
 10
53.56698903023585
 20
35.31912561980804
 10
53.89820928747939
 20
35.59494732982119
 10
54.227209318010374
 20
35.868027349208404
 10
54.553952115253665
 20
36.13865330091785
 10
54.878654660868335
 20
36.40650224135685
 10
55.20128163420987
 20
36.671394195441444
 10
55.52161605361914
 20
36.933652106764335
 10
55.8396579190962
 20
37.19327597532555
 10
56.155407230640996
 20
37.45026580112506
 10
56.46879334696449
 20
37.70426163399503
 10
56.78017621823452
 20
37.95519283264637
 10
57.0890865604884
 20
38.203525309180556
 10
57.39548905308155
 20
38.44907908851366
 10
57.699491343878236
 20
38.69192649786538
 10
58.00113043945361
 20
38.93177991428755
 10
58.30022636472373
 20
39.16867465842471
 10
58.59692208819737
 20
39.402863032580484
 10
58.89121929580517
 20
39.633877438722784
 10
59.18297333310772
 20
39.86193317258007
 10
59.47225652732471
 20
40.08692258628811
 10
59.758851896797076
 20
40.30916862343962
 10
60.042904095964175
 20
40.528455988306106
 10
60.32430547696181
 20
40.7447123536679
 10
60.60312836700966
 20
40.95783007166075
 10
60.87940808675226
 20
41.1679891173686
 10
61.15285701324143
 20
41.37515248421627
 10
61.42347514647721
 20
41.579320172203786
 10
61.69144246154352
 20
41.780456860686606
 10
61.95683128566002
 20
41.97845490180049
 10
62.21920934143921
 20
42.17349258469875
 10
62.478684276745255
 20
42.36564223660106
 10
62.73547307323731
 20
42.554580913914755
 10
62.9893957558314
 20
42.74034393728436
 10
63.24030767008815
 20
42.92314660243834
 10
63.48846111831119
 20
43.102845940867915
 10
63.73371313199175
 20
43.279189650269466
 10
63.976026704554656
 20
43.45246535359117
 10
64.21532950878021
 20
43.622780698697255
 10
64.45151389680422
 20
43.790063358368016
 10
64.68472452306604
 20
43.954098036874996
 10
64.91488906034596
 20
44.11499238208241
 10
65.14186285420462
 20
44.272961689718755
 10
65.36571823186172
 20
44.42789831191978
 10
65.58649219989238
 20
44.579514625737325
 10
65.80418475829663
 20
44.72781063117139
 10
66.01861424605991
 20
44.873289246898594
 10
66.2297453425377
 20
45.015770497835035
 10
66.43757804773001
 20
45.155254383980704
 10
66.64218468885647
 20
45.291633257471354
 10
66.84345761805291
 20
45.42483479108729
 10
67.04150448318353
 20
45.55493131204822
 10
67.23607298194474
 20
45.68206578886292
 10
67.42730776877589
 20
45.806022925802914
 10
67.61506418923761
 20
45.92701801859667
 10
67.79959454563354
 20
46.04490809873541
 10
67.98053888779579
 20
46.15976380750822
 10
68.15793253636893
 20
46.27176511999904
 10
68.3317401707084
 20
46.38073206112392
 10
68.50214176589812
 20
46.48662931023832
 10
68.66888501963447
 20
46.58959983585103
 10
68.8322222342211
 20
46.68950066945327
 10
68.99172113227047
 20
46.78651010019837
 10
69.14766933673066
 20
46.88066513466143
 10
69.29985155187327
 20
46.97182111840313
 10
69.44837542556255
 20
47.06005037864312
 10
69.59324095779847
 20
47.14535291538142
 10
69.7343758213613
 20
47.22783637648226
 10
69.87174469560657
 20
47.30732078686171
 10
70.00520292609484
 20
47.38402144224822
 10
70.13493048791007
 20
47.457903021997296
 10
70.2607474059683
 20
47.529000846753426
 10
70.38272600748925
 20
47.59720726865241
 10
70.50079396525322
 20
47.66262993555847
 10
70.61502360647991
 20
47.725161199607385
 10
70.7253426039496
 20
47.78490870866336
 10
70.83160630322294
 20
47.8420877584549
 10
70.93385171087503
 20
47.89641072603381
 10
71.0322217954147
 20
47.94812991370374
 10
71.12632128602951
 20
47.997135987669814
 10
71.21654545353191
 20
48.04353828172691
 10
71.30267900219337
 20
48.08719214143562
 10
71.38457727757456
 20
48.12831286252441
 10
71.46242025475937
 20
48.16686512434876
 10
71.53610028588356
 20
48.202776599688946
 10
71.60547271650778
 20
48.236262584273476
 10
71.67078984893561
 20
48.26718010959354
 10
71.73179938086344
 20
48.295672144157926
 10
71.78857363951099
 20
48.32163104010239
 10
71.84096797043883
 20
48.34527209315543
 10
71.8890547008667
 20
48.36648765545279
 10
71.9328691514391
 20
48.3854577020784
 10
71.97219602642758
 20
48.402037578592854
 10
72.00707064647669
 20
48.41640726008013
 10
72.03760065945065
 20
48.42863907375987
 10
72.06357076962098
 20
48.43858836519271
 10
72.08494397041254
 20
48.44654275732681
 10
72.10190023690927
 20
48.45246692951763
 10
72.11407961894328
 20
48.45643152305426
 10
72.12151743715916
 20
48.4586165130206
 10
72.12406903711747
 20
48.45923719514515
  0
ENDSEC
  0
SECTION
  2
OBJECTS
  0
DICTIONARY
  5
A
330
0
100
AcDbDictionary
280
0
281
1
  3
ACAD_COLOR
350
B
  3
ACAD_GROUP
350
C
  3
ACAD_LAYOUT
350
D
  3
ACAD_MATERIAL
350
E
  3
ACAD_MLEADERSTYLE
350
F
  3
ACAD_MLINESTYLE
350
10
  3
ACAD_PLOTSETTINGS
350
11
  3
ACAD_PLOTSTYLENAME
350
12
  3
ACAD_SCALELIST
350
14
  3
ACAD_TABLESTYLE
350
15
  3
ACAD_VISUALSTYLE
350
16
  3
EZDXF_META
350
2D
  0
DICTIONARY
  5
B
330
A
100
AcDbDictionary
280
0
281
1
  0
DICTIONARY
  5
C
330
A
100
AcDbDictionary
280
0
281
1
  0
DICTIONARY
  5
D
330
A
100
AcDbDictionary
280
0
281
1
  3
Model
350
1A
  3
Layout1
350
1E
  0
DICTIONARY
  5
E
330
A
100
AcDbDictionary
280
0
281
1
  3
ByBlock
350
1F
  3
ByLayer
350
20
  3
Global
350
21
  0
DICTIONARY
  5
F
330
A
100
AcDbDictionary
280
0
281
1
  3
Standard
350
2C
  0
DICTIONARY
  5
10
330
A
100
AcDbDictionary
280
0
281
1
  3
Standard
350
22
  0
DICTIONARY
  5
11
330
A
100
AcDbDictionary
280
0
281
1
  0
ACDBDICTIONARYWDFLT
  5
12
330
A
100
AcDbDictionary
280
0
281
1
  3
Normal
350
13
100
AcDbDictionaryWithDefault
340
13
  0
ACDBPLACEHOLDER
  5
13
330
12
  0
DICTIONARY
  5
14
330
A
100
AcDbDictionary
280
0
281
1
  0
DICTIONARY
  5
15
330
A
100
AcDbDictionary
280
0
281
1
  0
DICTIONARY
  5
16
330
A
100
AcDbDictionary
280
0
281
1
  0
LAYOUT
  5
1A
330
D
100
AcDbPlotSettings
  1

  4
A3
  6

 40
7.5
 41
20.0
 42
7.5
 43
20.0
 44
420.0
 45
297.0
 46
0.0
 47
0.0
 48
0.0
 49
0.0
140
0.0
141
0.0
142
1.0
143
1.0
 70
1024
 72
1
 73
0
 74
5
  7

 75
16
 76
0
 77
2
 78
300
147
1.0
148
0.0
149
0.0
100
AcDbLayout
  1
Model
 70
1
 71
0
 10
0.0
 20
0.0
 11
420.0
 21
297.0
 12
0.0
 22
0.0
 32
0.0
 14
1e+20
 24
1e+20
 34
1e+20
 15
-1e+20
 25
-1e+20
 35
-1e+20
146
0.0
 13
0.0
 23
0.0
 33
0.0
 16
1.0
 26
0.0
 36
0.0
 17
0.0
 27
1.0
 37
0.0
 76
1
330
17
  0
LAYOUT
  5
1E
330
D
100
AcDbPlotSettings
  1

  4
A3
  6

 40
7.5
 41
20.0
 42
7.5
 43
20.0
 44
420.0
 45
297.0
 46
0.0
 47
0.0
 48
0.0
 49
0.0
140
0.0
141
0.0
142
1.0
143
1.0
 70
0
 72
1
 73
0
 74
5
  7

 75
16
 76
0
 77
2
 78
300
147
1.0
148
0.0
149
0.0
100
AcDbLayout
  1
Layout1
 70
1
 71
1
 10
0.0
 20
0.0
 11
420.0
 21
297.0
 12
0.0
 22
0.0
 32
0.0
 14
1e+20
 24
1e+20
 34
1e+20
 15
-1e+20
 25
-1e+20
 35
-1e+20
146
0.0
 13
0.0
 23
0.0
 33
0.0
 16
1.0
 26
0.0
 36
0.0
 17
0.0
 27
1.0
 37
0.0
 76
1
330
1B
  0
MATERIAL
  5
1F
102
{ACAD_REACTORS
330
E
102
}
330
E
100
AcDbMaterial
  1
ByBlock
  2

 70
0
 40
1.0
 71
1
 41
1.0
 91
-1023410177
 42
1.0
 72
1
  3

 73
1
 74
1
 75
1
 44
0.5
 73
0
 45
1.0
 46
1.0
 77
1
  4

 78
1
 79
1
170
1
 48
1.0
171
1
  6

172
1
173
1
174
1
140
1.0
141
1.0
175
1
  7

176
1
177
1
178
1
143
1.0
179
1
  8

270
1
271
1
272
1
145
1.0
146
1.0
273
1
  9

274
1
275
1
276
1
 42
1.0
 72
1
  3

 73
1
 74
1
 75
1
 94
63
  0
MATERIAL
  5
20
102
{ACAD_REACTORS
330
E
102
}
330
E
100
AcDbMaterial
  1
ByLayer
  2

 70
0
 40
1.0
 71
1
 41
1.0
 91
-1023410177
 42
1.0
 72
1
  3

 73
1
 74
1
 75
1
 44
0.5
 73
0
 45
1.0
 46
1.0
 77
1
  4

 78
1
 79
1
170
1
 48
1.0
171
1
  6

172
1
173
1
174
1
140
1.0
141
1.0
175
1
  7

176
1
177
1
178
1
143
1.0
179
1
  8

270
1
271
1
272
1
145
1.0
146
1.0
273
1
  9

274
1
275
1
276
1
 42
1.0
 72
1
  3

 73
1
 74
1
 75
1
 94
63
  0
MATERIAL
  5
21
102
{ACAD_REACTORS
330
E
102
}
330
E
100
AcDbMaterial
  1
Global
  2

 70
0
 40
1.0
 71
1
 41
1.0
 91
-1023410177
 42
1.0
 72
1
  3

 73
1
 74
1
 75
1
 44
0.5
 73
0
 45
1.0
 46
1.0
 77
1
  4

 78
1
 79
1
170
1
 48
1.0
171
1
  6

172
1
173
1
174
1
140
1.0
141
1.0
175
1
  7

176
1
177
1
178
1
143
1.0
179
1
  8

270
1
271
1
272
1
145
1.0
146
1.0
273
1
  9

274
1
275
1
276
1
 42
1.0
 72
1
  3

 73
1
 74
1
 75
1
 94
63
  0
MLINESTYLE
  5
22
102
{ACAD_REACTORS
330
10
102
}
330
10
100
AcDbMlineStyle
  2
Standard
 70
0
  3

 62
256
 51
90.0
 52
90.0
 71
2
 49
0.5
 62
256
  6
BYLAYER
 49
-0.5
 62
256
  6
BYLAYER
  0
MLEADERSTYLE
  5
2C
102
{ACAD_REACTORS
330
F
102
}
330
F
100
AcDbMLeaderStyle
179
2
170
2
171
1
172
0
 90
2
 40
0.0
 41
0.0
173
1
 91
-1056964608
 92
-2
290
1
 42
2.0
291
1
 43
8.0
  3
Standard
 44
4.0
300

342
29
174
1
175
1
176
0
178
1
 93
-1056964608
 45
4.0
292
0
297
0
 46
4.0
 94
-1056964608
 47
1.0
 49
1.0
140
1.0
294
1
141
0.0
177
0
142
1.0
295
0
296
0
143
3.75
271
0
272
9
273
9
  0
DICTIONARY
  5
2D
330
A
100
AcDbDictionary
280
1
281
1
  3
CREATED_BY_EZDXF
350
2E
  3
WRITTEN_BY_EZDXF
350
32
  0
DICTIONARYVAR
  5
2E
330
2D
100
DictionaryVariables
280
0
  1
1.3.5 @ 2025-08-18T19:55:48.845602+00:00
  0
DICTIONARYVAR
  5
32
330
2D
100
DictionaryVariables
280
0
  1
1.3.5 @ 2025-08-18T19:55:48.853260+00:00
  0
ENDSEC
  0
EOF
