  0
SECTION
  2
HEADER
  9
$ACADVER
  1
AC1032
  9
$ACADMAINTVER
 90
4
  9
$DWGCODEPAGE
  3
ANSI_1252
  9
$LASTSAVEDBY
  1
ezdxf
  9
$REQUIREDVERSIONS
160
0
  9
$INSBASE
 10
0.0
 20
0.0
 30
0.0
  9
$EXTMIN
 10
1e+20
 20
1e+20
 30
1e+20
  9
$EXTMAX
 10
-1e+20
 20
-1e+20
 30
-1e+20
  9
$LIMMIN
 10
0.0
 20
0.0
  9
$LIMMAX
 10
420.0
 20
297.0
  9
$ORTHOMODE
 70
0
  9
$REGENMODE
 70
1
  9
$FILLMODE
 70
1
  9
$QTEXTMODE
 70
0
  9
$MIRRTEXT
 70
1
  9
$LTSCALE
 40
1.0
  9
$ATTMODE
 70
1
  9
$TEXTSIZE
 40
2.5
  9
$TRACEWID
 40
1.0
  9
$TEXTSTYLE
  7
Standard
  9
$CLAYER
  8
0
  9
$CELTYPE
  6
ByLayer
  9
$CECOLOR
 62
256
  9
$CELTSCALE
 40
1.0
  9
$DISPSILH
 70
0
  9
$DIMSCALE
 40
1.0
  9
$DIMASZ
 40
2.5
  9
$DIMEXO
 40
0.625
  9
$DIMDLI
 40
3.75
  9
$DIMRND
 40
0.0
  9
$DIMDLE
 40
0.0
  9
$DIMEXE
 40
1.25
  9
$DIMTP
 40
0.0
  9
$DIMTM
 40
0.0
  9
$DIMTXT
 40
2.5
  9
$DIMCEN
 40
2.5
  9
$DIMTSZ
 40
0.0
  9
$DIMTOL
 70
0
  9
$DIMLIM
 70
0
  9
$DIMTIH
 70
0
  9
$DIMTOH
 70
0
  9
$DIMSE1
 70
0
  9
$DIMSE2
 70
0
  9
$DIMTAD
 70
1
  9
$DIMZIN
 70
8
  9
$DIMBLK
  1

  9
$DIMASO
 70
1
  9
$DIMSHO
 70
1
  9
$DIMPOST
  1

  9
$DIMAPOST
  1

  9
$DIMALT
 70
0
  9
$DIMALTD
 70
3
  9
$DIMALTF
 40
0.03937007874
  9
$DIMLFAC
 40
1.0
  9
$DIMTOFL
 70
1
  9
$DIMTVP
 40
0.0
  9
$DIMTIX
 70
0
  9
$DIMSOXD
 70
0
  9
$DIMSAH
 70
0
  9
$DIMBLK1
  1

  9
$DIMBLK2
  1

  9
$DIMSTYLE
  2
ISO-25
  9
$DIMCLRD
 70
0
  9
$DIMCLRE
 70
0
  9
$DIMCLRT
 70
0
  9
$DIMTFAC
 40
1.0
  9
$DIMGAP
 40
0.625
  9
$DIMJUST
 70
0
  9
$DIMSD1
 70
0
  9
$DIMSD2
 70
0
  9
$DIMTOLJ
 70
0
  9
$DIMTZIN
 70
8
  9
$DIMALTZ
 70
0
  9
$DIMALTTZ
 70
0
  9
$DIMUPT
 70
0
  9
$DIMDEC
 70
2
  9
$DIMTDEC
 70
2
  9
$DIMALTU
 70
2
  9
$DIMALTTD
 70
3
  9
$DIMTXSTY
  7
Standard
  9
$DIMAUNIT
 70
0
  9
$DIMADEC
 70
0
  9
$DIMALTRND
 40
0.0
  9
$DIMAZIN
 70
0
  9
$DIMDSEP
 70
44
  9
$DIMATFIT
 70
3
  9
$DIMFRAC
 70
0
  9
$DIMLDRBLK
  1

  9
$DIMLUNIT
 70
2
  9
$DIMLWD
 70
-2
  9
$DIMLWE
 70
-2
  9
$DIMTMOVE
 70
0
  9
$DIMFXL
 40
1.0
  9
$DIMFXLON
 70
0
  9
$DIMJOGANG
 40
0.785398163397
  9
$DIMTFILL
 70
0
  9
$DIMTFILLCLR
 70
0
  9
$DIMARCSYM
 70
0
  9
$DIMLTYPE
  6

  9
$DIMLTEX1
  6

  9
$DIMLTEX2
  6

  9
$DIMTXTDIRECTION
 70
0
  9
$LUNITS
 70
2
  9
$LUPREC
 70
4
  9
$SKETCHINC
 40
1.0
  9
$FILLETRAD
 40
10.0
  9
$AUNITS
 70
0
  9
$AUPREC
 70
2
  9
$MENU
  1
.
  9
$ELEVATION
 40
0.0
  9
$PELEVATION
 40
0.0
  9
$THICKNESS
 40
0.0
  9
$LIMCHECK
 70
0
  9
$CHAMFERA
 40
0.0
  9
$CHAMFERB
 40
0.0
  9
$CHAMFERC
 40
0.0
  9
$CHAMFERD
 40
0.0
  9
$SKPOLY
 70
0
  9
$TDCREATE
 40
2460906.8720833333
  9
$TDUCREATE
 40
2458532.153996898
  9
$TDUPDATE
 40
2460906.8720833333
  9
$TDUUPDATE
 40
2458532.1544311
  9
$TDINDWG
 40
0.0
  9
$TDUSRTIMER
 40
0.0
  9
$USRTIMER
 70
1
  9
$ANGBASE
 50
0.0
  9
$ANGDIR
 70
0
  9
$PDMODE
 70
0
  9
$PDSIZE
 40
0.0
  9
$PLINEWID
 40
0.0
  9
$SPLFRAME
 70
0
  9
$SPLINETYPE
 70
6
  9
$SPLINESEGS
 70
8
  9
$HANDSEED
  5
33
  9
$SURFTAB1
 70
6
  9
$SURFTAB2
 70
6
  9
$SURFTYPE
 70
6
  9
$SURFU
 70
6
  9
$SURFV
 70
6
  9
$UCSBASE
  2

  9
$UCSNAME
  2

  9
$UCSORG
 10
0.0
 20
0.0
 30
0.0
  9
$UCSXDIR
 10
1.0
 20
0.0
 30
0.0
  9
$UCSYDIR
 10
0.0
 20
1.0
 30
0.0
  9
$UCSORTHOREF
  2

  9
$UCSORTHOVIEW
 70
0
  9
$UCSORGTOP
 10
0.0
 20
0.0
 30
0.0
  9
$UCSORGBOTTOM
 10
0.0
 20
0.0
 30
0.0
  9
$UCSORGLEFT
 10
0.0
 20
0.0
 30
0.0
  9
$UCSORGRIGHT
 10
0.0
 20
0.0
 30
0.0
  9
$UCSORGFRONT
 10
0.0
 20
0.0
 30
0.0
  9
$UCSORGBACK
 10
0.0
 20
0.0
 30
0.0
  9
$PUCSBASE
  2

  9
$PUCSNAME
  2

  9
$PUCSORG
 10
0.0
 20
0.0
 30
0.0
  9
$PUCSXDIR
 10
1.0
 20
0.0
 30
0.0
  9
$PUCSYDIR
 10
0.0
 20
1.0
 30
0.0
  9
$PUCSORTHOREF
  2

  9
$PUCSORTHOVIEW
 70
0
  9
$PUCSORGTOP
 10
0.0
 20
0.0
 30
0.0
  9
$PUCSORGBOTTOM
 10
0.0
 20
0.0
 30
0.0
  9
$PUCSORGLEFT
 10
0.0
 20
0.0
 30
0.0
  9
$PUCSORGRIGHT
 10
0.0
 20
0.0
 30
0.0
  9
$PUCSORGFRONT
 10
0.0
 20
0.0
 30
0.0
  9
$PUCSORGBACK
 10
0.0
 20
0.0
 30
0.0
  9
$USERI1
 70
0
  9
$USERI2
 70
0
  9
$USERI3
 70
0
  9
$USERI4
 70
0
  9
$USERI5
 70
0
  9
$USERR1
 40
0.0
  9
$USERR2
 40
0.0
  9
$USERR3
 40
0.0
  9
$USERR4
 40
0.0
  9
$USERR5
 40
0.0
  9
$WORLDVIEW
 70
1
  9
$SHADEDGE
 70
3
  9
$SHADEDIF
 70
70
  9
$TILEMODE
 70
1
  9
$MAXACTVP
 70
64
  9
$PINSBASE
 10
0.0
 20
0.0
 30
0.0
  9
$PLIMCHECK
 70
0
  9
$PEXTMIN
 10
1e+20
 20
1e+20
 30
1e+20
  9
$PEXTMAX
 10
-1e+20
 20
-1e+20
 30
-1e+20
  9
$PLIMMIN
 10
0.0
 20
0.0
  9
$PLIMMAX
 10
420.0
 20
297.0
  9
$UNITMODE
 70
0
  9
$VISRETAIN
 70
1
  9
$PLINEGEN
 70
0
  9
$PSLTSCALE
 70
1
  9
$TREEDEPTH
 70
3020
  9
$CMLSTYLE
  2
Standard
  9
$CMLJUST
 70
0
  9
$CMLSCALE
 40
20.0
  9
$PROXYGRAPHICS
 70
1
  9
$MEASUREMENT
 70
1
  9
$CELWEIGHT
370
-1
  9
$ENDCAPS
280
0
  9
$JOINSTYLE
280
0
  9
$LWDISPLAY
290
0
  9
$INSUNITS
 70
6
  9
$HYPERLINKBASE
  1

  9
$STYLESHEET
  1

  9
$XEDIT
290
1
  9
$CEPSNTYPE
380
0
  9
$PSTYLEMODE
290
1
  9
$FINGERPRINTGUID
  2
{83F977BA-7A83-4D74-B73F-82FA293E8F7B}
  9
$VERSIONGUID
  2
{8D2B387C-D1B8-4320-8D37-D23595572C78}
  9
$EXTNAMES
290
1
  9
$PSVPSCALE
 40
0.0
  9
$OLESTARTUP
290
0
  9
$SORTENTS
280
127
  9
$INDEXCTL
280
0
  9
$HIDETEXT
280
1
  9
$XCLIPFRAME
280
1
  9
$HALOGAP
280
0
  9
$OBSCOLOR
 70
257
  9
$OBSLTYPE
280
0
  9
$INTERSECTIONDISPLAY
280
0
  9
$INTERSECTIONCOLOR
 70
257
  9
$DIMASSOC
280
2
  9
$PROJECTNAME
  1

  9
$CAMERADISPLAY
290
0
  9
$LENSLENGTH
 40
50.0
  9
$CAMERAHEIGHT
 40
0.0
  9
$STEPSPERSEC
 40
24.0
  9
$STEPSIZE
 40
100.0
  9
$3DDWFPREC
 40
2.0
  9
$PSOLWIDTH
 40
0.005
  9
$PSOLHEIGHT
 40
0.08
  9
$LOFTANG1
 40
1.570796326795
  9
$LOFTANG2
 40
1.570796326795
  9
$LOFTMAG1
 40
0.0
  9
$LOFTMAG2
 40
0.0
  9
$LOFTPARAM
 70
7
  9
$LOFTNORMALS
280
1
  9
$LATITUDE
 40
37.795
  9
$LONGITUDE
 40
-122.394
  9
$NORTHDIRECTION
 40
0.0
  9
$TIMEZONE
 70
-8000
  9
$LIGHTGLYPHDISPLAY
280
1
  9
$TILEMODELIGHTSYNCH
280
1
  9
$CMATERIAL
347
20
  9
$SOLIDHIST
280
0
  9
$SHOWHIST
280
1
  9
$DWFFRAME
280
2
  9
$DGNFRAME
280
2
  9
$REALWORLDSCALE
290
1
  9
$INTERFERECOLOR
 62
256
  9
$CSHADOW
280
0
  9
$SHADOWPLANELOCATION
 40
0.0
  0
ENDSEC
  0
SECTION
  2
CLASSES
  0
CLASS
  1
ACDBDICTIONARYWDFLT
  2
AcDbDictionaryWithDefault
  3
ObjectDBX Classes
 90
0
 91
0
280
0
281
0
  0
CLASS
  1
SUN
  2
AcDbSun
  3
SCENEOE
 90
1153
 91
0
280
0
281
0
  0
CLASS
  1
VISUALSTYLE
  2
AcDbVisualStyle
  3
ObjectDBX Classes
 90
4095
 91
0
280
0
281
0
  0
CLASS
  1
MATERIAL
  2
AcDbMaterial
  3
ObjectDBX Classes
 90
1153
 91
0
280
0
281
0
  0
CLASS
  1
SCALE
  2
AcDbScale
  3
ObjectDBX Classes
 90
1153
 91
0
280
0
281
0
  0
CLASS
  1
TABLESTYLE
  2
AcDbTableStyle
  3
ObjectDBX Classes
 90
4095
 91
0
280
0
281
0
  0
CLASS
  1
MLEADERSTYLE
  2
AcDbMLeaderStyle
  3
ACDB_MLEADERSTYLE_CLASS
 90
4095
 91
0
280
0
281
0
  0
CLASS
  1
DICTIONARYVAR
  2
AcDbDictionaryVar
  3
ObjectDBX Classes
 90
0
 91
0
280
0
281
0
  0
CLASS
  1
CELLSTYLEMAP
  2
AcDbCellStyleMap
  3
ObjectDBX Classes
 90
1152
 91
0
280
0
281
0
  0
CLASS
  1
MENTALRAYRENDERSETTINGS
  2
AcDbMentalRayRenderSettings
  3
SCENEOE
 90
1024
 91
0
280
0
281
0
  0
CLASS
  1
ACDBDETAILVIEWSTYLE
  2
AcDbDetailViewStyle
  3
ObjectDBX Classes
 90
1025
 91
0
280
0
281
0
  0
CLASS
  1
ACDBSECTIONVIEWSTYLE
  2
AcDbSectionViewStyle
  3
ObjectDBX Classes
 90
1025
 91
0
280
0
281
0
  0
CLASS
  1
RASTERVARIABLES
  2
AcDbRasterVariables
  3
ISM
 90
0
 91
0
280
0
281
0
  0
CLASS
  1
LAYOUT
  2
AcDbLayout
  3
ObjectDBX Classes
 90
0
 91
0
280
0
281
0
  0
CLASS
  1
ACDBPLACEHOLDER
  2
AcDbPlaceHolder
  3
ObjectDBX Classes
 90
0
 91
0
280
0
281
0
  0
ENDSEC
  0
SECTION
  2
TABLES
  0
TABLE
  2
VPORT
  5
8
330
0
100
AcDbSymbolTable
 70
1
  0
VPORT
  5
23
330
8
100
AcDbSymbolTableRecord
100
AcDbViewportTableRecord
  2
*Active
 70
0
 10
0.0
 20
0.0
 11
1.0
 21
1.0
 12
0.0
 22
0.0
 13
0.0
 23
0.0
 14
0.5
 24
0.5
 15
0.5
 25
0.5
 16
0.0
 26
0.0
 36
1.0
 17
0.0
 27
0.0
 37
0.0
 40
1000.0
 41
1.34
 42
50.0
 43
0.0
 44
0.0
 50
0.0
 51
0.0
 71
0
 72
1000
 73
1
 74
3
 75
0
 76
0
 77
0
 78
0
281
0
 65
0
146
0.0
  0
ENDTAB
  0
TABLE
  2
LTYPE
  5
2
330
0
100
AcDbSymbolTable
 70
3
  0
LTYPE
  5
24
330
2
100
AcDbSymbolTableRecord
100
AcDbLinetypeTableRecord
  2
ByBlock
 70
0
  3

 72
65
 73
0
 40
0.0
  0
LTYPE
  5
25
330
2
100
AcDbSymbolTableRecord
100
AcDbLinetypeTableRecord
  2
ByLayer
 70
0
  3

 72
65
 73
0
 40
0.0
  0
LTYPE
  5
26
330
2
100
AcDbSymbolTableRecord
100
AcDbLinetypeTableRecord
  2
Continuous
 70
0
  3

 72
65
 73
0
 40
0.0
  0
ENDTAB
  0
TABLE
  2
LAYER
  5
1
330
0
100
AcDbSymbolTable
 70
2
  0
LAYER
  5
27
330
1
100
AcDbSymbolTableRecord
100
AcDbLayerTableRecord
  2
0
 70
0
 62
7
  6
Continuous
370
-3
390
13
347
21
  0
LAYER
  5
28
330
1
100
AcDbSymbolTableRecord
100
AcDbLayerTableRecord
  2
Defpoints
 70
0
 62
7
  6
Continuous
290
0
370
-3
390
13
347
21
  0
ENDTAB
  0
TABLE
  2
STYLE
  5
5
330
0
100
AcDbSymbolTable
 70
1
  0
STYLE
  5
29
330
5
100
AcDbSymbolTableRecord
100
AcDbTextStyleTableRecord
  2
Standard
 70
0
 40
0.0
 41
1.0
 50
0.0
 71
0
 42
2.5
  3
txt
  4

  0
ENDTAB
  0
TABLE
  2
VIEW
  5
7
330
0
100
AcDbSymbolTable
 70
0
  0
ENDTAB
  0
TABLE
  2
UCS
  5
6
330
0
100
AcDbSymbolTable
 70
0
  0
ENDTAB
  0
TABLE
  2
APPID
  5
3
330
0
100
AcDbSymbolTable
 70
3
  0
APPID
  5
2A
330
3
100
AcDbSymbolTableRecord
100
AcDbRegAppTableRecord
  2
ACAD
 70
0
  0
APPID
  5
30
330
3
100
AcDbSymbolTableRecord
100
AcDbRegAppTableRecord
  2
HATCHBACKGROUNDCOLOR
 70
0
  0
APPID
  5
31
330
3
100
AcDbSymbolTableRecord
100
AcDbRegAppTableRecord
  2
EZDXF
 70
0
  0
ENDTAB
  0
TABLE
  2
DIMSTYLE
  5
4
330
0
100
AcDbSymbolTable
 70
1
100
AcDbDimStyleTable
  0
DIMSTYLE
105
2B
330
4
100
AcDbSymbolTableRecord
100
AcDbDimStyleTableRecord
  2
Standard
 70
0
 40
1.0
 41
2.5
 42
0.625
 43
3.75
 44
1.25
 45
0.0
 46
0.0
 47
0.0
 48
0.0
 49
2.5
140
2.5
141
2.5
142
0.0
143
0.03937007874
144
1.0
145
0.0
146
1.0
147
0.625
148
0.0
 69
0
 70
0
 71
0
 72
0
 73
0
 74
0
 75
0
 76
0
 77
1
 78
8
 79
3
170
0
171
3
172
1
173
0
174
0
175
0
176
0
177
0
178
0
179
2
271
2
272
2
273
2
274
3
275
0
276
0
277
2
278
44
279
0
280
0
281
0
282
0
283
0
284
8
285
0
286
0
288
0
289
3
290
0
371
-2
372
-2
  0
ENDTAB
  0
TABLE
  2
BLOCK_RECORD
  5
9
330
0
100
AcDbSymbolTable
 70
2
  0
BLOCK_RECORD
  5
17
330
9
100
AcDbSymbolTableRecord
100
AcDbBlockTableRecord
  2
*Model_Space
340
1A
 70
0
280
1
281
0
  0
BLOCK_RECORD
  5
1B
330
9
100
AcDbSymbolTableRecord
100
AcDbBlockTableRecord
  2
*Paper_Space
340
1E
 70
0
280
1
281
0
  0
ENDTAB
  0
ENDSEC
  0
SECTION
  2
BLOCKS
  0
BLOCK
  5
18
330
17
100
AcDbEntity
  8
0
100
AcDbBlockBegin
  2
*Model_Space
 70
0
 10
0.0
 20
0.0
 30
0.0
  3
*Model_Space
  1

  0
ENDBLK
  5
19
330
17
100
AcDbEntity
  8
0
100
AcDbBlockEnd
  0
BLOCK
  5
1C
330
1B
100
AcDbEntity
  8
0
100
AcDbBlockBegin
  2
*Paper_Space
 70
0
 10
0.0
 20
0.0
 30
0.0
  3
*Paper_Space
  1

  0
ENDBLK
  5
1D
330
1B
100
AcDbEntity
  8
0
100
AcDbBlockEnd
  0
ENDSEC
  0
SECTION
  2
ENTITIES
  0
LWPOLYLINE
  5
2F
330
17
100
AcDbEntity
  8
0
100
AcDbPolyline
 90
721
 70
1
 10
82.56678298670141
 20
46.72165132489687
 10
82.56395340396105
 20
46.72118902057706
 10
82.55560412335596
 20
46.71955563960875
 10
82.54201408011788
 20
46.716258245974075
 10
82.52292057262649
 20
46.711473573874045
 10
82.49877927031454
 20
46.70497138891115
 10
82.46939720536959
 20
46.6968051912819
 10
82.43472087759514
 20
46.6867820131739
 10
82.39499675500014
 20
46.675041322203036
 10
82.35017133738805
 20
46.66139015055692
 10
82.29998192313855
 20
46.64600523243652
 10
82.2448144478764
 20
46.62877956744878
 10
82.18454567759717
 20
46.60964342178579
 10
82.11910587849292
 20
46.588720029452006
 10
82.04863451817954
 20
46.56576292243849
 10
81.97299212904112
 20
46.54101856875417
 10
81.89237167889007
 20
46.514433468202526
 10
81.80664993372197
 20
46.48593788697563
 10
81.71575715972881
 20
46.45565505907792
 10
81.61995605853102
 20
46.42340825030846
 10
81.51898392850816
 20
46.38937419486818
 10
81.41298023727619
 20
46.353306424748176
 10
81.30205198522809
 20
46.31559087557327
 10
81.18589920415846
 20
46.27589511191515
 10
81.06489159608066
 20
46.23442833519766
 10
80.9387826929858
 20
46.19105107780492
 10
80.80769572887827
 20
46.14583307354484
 10
80.67163070375817
 20
46.09877432241747
 10
80.53051788381748
 20
46.04999805842724
 10
80.38435726905621
 20
45.99950428157414
 10
80.23328832709028
 20
45.94704652384928
 10
80.07717159030375
 20
45.89287125326156
 10
79.91620002650909
 20
45.83692496961447
 10
79.75018066789384
 20
45.779261173104516
 10
79.57925298207394
 20
45.71963339572281
 10
79.40340073543787
 20
45.65835783928617
 10
79.22255419417779
 20
45.59555773779908
 10
79.03692255971747
 20
45.530863389248175
 10
78.8462431304366
 20
45.46445152783442
 10
78.65083210815202
 20
45.396338387169244
 10
78.45037329104684
 20
45.326507733641186
 10
78.24511314713004
 20
45.2550990348662
 10
78.0349284423971
 20
45.18204255703629
 10
77.81994241085253
 20
45.107408033959416
 10
77.60010155229976
 20
45.03100249782317
 10
77.37552910074334
 20
44.95289568243551
 10
77.14596235456281
 20
44.87326432199739
 10
76.9117175155751
 20
44.79212465012027
 10
76.67267134977574
 20
44.70940693299618
 10
76.42882385716469
 20
44.625111170625125
 10
76.18017503774203
 20
44.53923736300712
 10
75.9267783917042
 20
44.45197847795455
 10
75.66858041885473
 20
44.36314154765501
 10
75.40563461939011
 20
44.27291953992093
 10
75.13801072711829
 20
44.181189220747825
 10
74.86584820965517
 20
44.087704122126794
 10
74.58913083338932
 20
43.99278044587471
 10
74.30759589670036
 20
43.896594926192506
 10
74.0212433995883
 20
43.799147563080204
 10
73.73040577748145
 20
43.70013838833238
 10
73.43501329657188
 20
43.599690635953486
 10
73.13506595685956
 20
43.49780430594353
 10
72.83035455692067
 20
43.394849100315895
 10
72.52122776579493
 20
43.29020884904826
 10
72.20766934987091
 20
43.18419975395752
 10
71.88960957534066
 20
43.076945049048106
 10
71.56685547439177
 20
42.96849823451655
 10
71.23972324884109
 20
42.858875543974264
 10
70.90815939849217
 20
42.74788400960888
 10
70.57216392334495
 20
42.63552363142037
 10
70.23172058978803
 20
42.522110611225614
 10
69.88710833305315
 20
42.40715201300675
 10
69.53806445151997
 20
42.290824570964766
 10
69.18476567938953
 20
42.17339098672003
 10
68.82721201666173
 20
42.054851260272514
 10
68.46541969694808
 20
41.93488918980538
 10
68.09931898644061
 20
41.81362800932308
 10
67.7291563531482
 20
41.69120718644149
 10
67.35466909545056
 20
41.5678034553616
 10
66.9760664147715
 20
41.44304711407003
 10
66.59347154511545
 20
41.31700789637472
 10
66.2068844864825
 20
41.18968580227569
 10
65.81616577125664
 20
41.06132729978182
 10
65.42131539943793
 20
40.931932388893145
 10
65.02240310483431
 20
40.801377835605194
 10
64.61974508926268
 20
40.669679873529404
 10
64.2130251509061
 20
40.536822269054326
 10
63.80236652376908
 20
40.40287475598792
 10
63.38810164327992
 20
40.26753736612477
 10
62.9700375416262
 20
40.130863599661375
 10
62.54808825138856
 20
39.99329289241906
 10
62.122377006571405
 20
39.85489497820576
 10
61.69279680678175
 20
39.71528392139667
 10
61.25980332145236
 20
39.57422948759432
 10
60.82311761535146
 20
39.43222461281656
 10
60.382809422286925
 20
39.28914606305887
 10
59.93880900845088
 20
39.145117072325775
 10
59.491379075463634
 20
38.999960906416256
 10
59.040519623325245
 20
38.853677565330365
 10
58.586107418031176
 20
38.70619731526009
 10
58.128319193782445
 20
38.55778285782584
 10
57.667031716574606
 20
38.40836445921965
 10
57.20250768802797
 20
38.25776538524054
 10
56.73474710814255
 20
38.105985635888516
 10
56.26387321092282
 20
37.95309494497153
 10
55.78969302855637
 20
37.79914681268609
 10
55.312190327431765
 20
37.644457440849074
 10
54.83145107496837
 20
37.48858739363912
 10
54.347775239371636
 20
37.331869106484575
 10
53.86119528786442
 20
37.173670175751695
 10
53.371641486638794
 20
37.01411383544494
 10
52.8791511022798
 20
36.85370925519355
 10
52.38365440097949
 20
36.69257966900201
 10
51.885114116152835
 20
36.530215907241065
 10
51.38416265143353
 20
36.366650437133565
 10
50.88050003861616
 20
36.201550823251225
 10
50.37416354428577
 20
36.03542623522329
 10
49.86496020062999
 20
35.86833017324629
 10
49.35320620946568
 20
35.700278870931676
 10
48.838987538212194
 20
35.53083289245809
 10
48.322287953258126
 20
35.36030843964242
 10
47.80296798698757
 20
35.18895198049358
 10
47.28137630844027
 20
35.016147344989285
 10
46.75758265142417
 20
34.84177129912506
 10
46.23148481490842
 20
34.6665794805391
 10
45.7029060646921
 20
34.49030918761105
 10
45.17202313497614
 20
34.313223121961265
 10
44.63925442860827
 20
34.13458187956301
 10
44.10453021178049
 20
33.95450869442071
 10
43.56771101687693
 20
33.7732500345433
 10
43.02858764247374
 20
33.591175601944165
 10
42.487685491811646
 20
33.40793192822136
 10
41.9450370321135
 20
33.22288660974115
 10
41.40080276396884
 20
33.03661854994076
 10
40.854387550329015
 20
32.84960445122659
 10
40.306193560430266
 20
32.66142111138874
 10
39.75649972950439
 20
32.47157559440939
 10
39.20541305794442
 20
32.28045383591335
 10
38.652617343933464
 20
32.08803960228917
 10
38.09828932167251
 20
31.89459559515722
 10
37.542375490965036
 20
31.699928846705085
 10
36.98513855343141
 20
31.503862622731813
 10
36.42670174307608
 20
31.30646665704532
 10
35.86694182589458
 20
31.10767121583768
 10
35.30610526989584
 20
30.907615766724795
 10
34.74394560707094
 20
30.706160842090753
 10
34.18056983781291
 20
30.503692377560377
 10
33.61604769592968
 20
30.3000871391292
 10
33.050727850460994
 20
30.094728956774944
 10
32.484470833790965
 20
29.88786429850651
 10
31.917453380120538
 20
29.679755865944262
 10
31.349359287632875
 20
29.470387425476755
 10
30.780574491952773
 20
29.259651976710977
 10
30.21116872688819
 20
29.047426285642466
 10
29.64121172624708
 20
28.833587118266767
 10
29.07056402241351
 20
28.61838094259278
 10
28.499279115584034
 20
28.402000726432938
 10
27.927357005758633
 20
28.184446469787225
 10
27.355130128365598
 20
27.965418204450206
 10
26.782544983208442
 20
27.7447229626095
 10
26.209794538099548
 20
27.52230724406858
 10
25.636792825619548
 20
27.29861048464876
 10
25.06320741034013
 20
27.07393265255548
 10
24.4894242278861
 20
26.848166747395716
 10
23.9158779147166
 20
26.620257163325856
 10
23.34215006798393
 20
26.390943304372655
 10
22.768417421889065
 20
26.16048787215645
 10
22.194696210043457
 20
25.928574664860403
 10
21.621056166255006
 20
25.695080448480027
 10
21.04753455710884
 20
25.460514392644612
 10
20.474077882408412
 20
25.22468352954174
 10
19.901018577582036
 20
24.987287890965987
 10
19.328233408625245
 20
24.748257743109406
 10
18.755899109739023
 20
24.507855787592362
 10
18.183945947115408
 20
24.26620525841929
 10
17.612583122178254
 20
24.02293645357684
 10
17.041740901119603
 20
23.77817260706945
 10
16.471472784135987
 20
23.53210668670955
 10
15.901446335799069
 20
23.28503866070254
 10
15.332326426965482
 20
23.036368592637587
 10
14.764113057635205
 20
22.786096482514672
 10
14.196736494000296
 20
22.534345564338263
 10
13.630127002252827
 20
22.281239072112832
 10
13.064477550205172
 20
22.026723505641847
 10
12.499595170044948
 20
21.770852365121826
 10
11.935796063589017
 20
21.51364188416421
 10
11.373219698453257
 20
21.25484559476008
 10
10.81179634082973
 20
20.99458673091389
 10
10.251456256910497
 20
20.732988526630105
 10
9.692269180503494
 20
20.46992774790426
 10
9.134621047233535
 20
20.205297394343347
 10
8.578249155480272
 20
19.939274200148322
 10
8.023137271632276
 20
19.67217436713606
 10
7.4695108307248
 20
19.403311991476308
 10
6.917476833150873
 20
19.13307300879388
 10
6.366826077486665
 20
18.86182712110216
 10
5.817644531151563
 20
18.589134892579825
 10
5.270318129770358
 20
18.31488932283385
 10
4.724707405727177
 20
18.039336879873154
 10
4.180828592633441
 20
17.762161361880867
 10
3.638788690882168
 20
17.48374870448181
 10
3.0986039340848146
 20
17.203782705859105
 10
2.560451056442335
 20
16.92252606763312
 10
2.023874388521969
 20
16.640209024201333
 10
1.4892598659485325
 20
16.35672457517071
 10
0.9568864239538173
 20
16.071579784523433
 10
0.42668432872987105
 20
15.78489788626395
 10
-0.1014323871426851
 20
15.497118316213589
 10
-0.6273939898559068
 20
15.208117840367892
 10
-1.1511307456018571
 20
14.917773224722396
 10
-1.672519420376057
 20
14.626154203085054
 10
-2.1918227157988692
 20
14.333437509656838
 10
-2.709056865481745
 20
14.03993934625459
 10
-3.2238197001884146
 20
13.745236510668454
 10
-3.7359717523029885
 20
13.449082534889497
 10
-4.24565248944137
 20
13.151723886926643
 10
-4.7528084114070435
 20
12.85335353459229
 10
-5.257562752204471
 20
12.553901744078496
 10
-5.759862011637132
 20
12.253561483197666
 10
-6.259652689508532
 20
11.9525257197622
 10
-6.756779084591323
 20
11.650231783946325
 10
-7.251117962881049
 20
11.346749409557992
 10
-7.742894759413009
 20
11.042764500427424
 10
-8.23209324057574
 20
10.737960854737771
 10
-8.718397204552398
 20
10.432354706100464
 10
-9.202053119351884
 20
10.125806586899609
 10
-9.682814516965292
 20
9.818455964751104
 10
-10.160697631004059
 20
9.51061904147181
 10
-10.636018663285045
 20
9.202279583450286
 10
-11.108305710764053
 20
8.892891154472197
 10
-11.577730708279862
 20
8.583332626180178
 10
-12.044556357452803
 20
8.273780732775208
 10
-12.508487489439679
 20
7.96342633642258
 10
-12.969154402227094
 20
7.652478638546143
 10
-13.42688953124336
 20
7.341237607351324
 10
-13.881762610296423
 20
7.029826476842575
 10
-14.333634171770376
 20
6.717998779010991
 10
-14.782327481464264
 20
6.406017215476915
 10
-15.228089007386998
 20
6.093742318624455
 10
-15.670881482953504
 20
5.781683258082879
 10
-16.110565440547898
 20
5.4695935658432715
 10
-16.547071146362214
 20
5.1573500079011785
 10
-16.980468334204417
 20
4.845075818261052
 10
-17.410773237685934
 20
4.533087198739755
 10
-17.83810909081122
 20
4.221314415529348
 10
-18.262089957955475
 20
3.909650468236803
 10
-18.682715839118686
 20
3.598095356862124
 10
-19.100040234497374
 20
3.286456113592901
 10
-19.514009643895026
 20
2.9749257062415446
 10
-19.924833268735483
 20
2.6638738368214274
 10
-20.33245760882224
 20
2.3534934731449515
 10
-20.736603728923498
 20
2.043291679194286
 10
-21.137394863043717
 20
1.7331987211614877
 10
-21.53439157536159
 20
1.423300566465936
 10
-21.92804953530985
 20
1.1138274495051137
 10
-22.318438476696468
 20
0.8049026042834733
 10
-22.70531193151251
 20
0.49666549841692026
 10
-23.088600165950048
 20
0.1889928979009832
 10
-23.46821721258968
 20
-0.1185546330856485
 10
-23.844318772658742
 20
-0.4254144247171992
 10
-24.217114047581084
 20
-0.7312167749802976
 10
-24.586131134312502
 20
-1.0365081200892852
 10
-24.951493266857458
 20
-1.3413581938521046
 10
-25.313093444822936
 20
-1.6453810606439503
 10
-25.671054902213385
 20
-1.9486464542727664
 10
-26.025447372836762
 20
-2.2510311407340984
 10
-26.375938421264753
 20
-2.552835088233369
 10
-26.72266751511327
 20
-2.853811828761667
 10
-27.0656346543823
 20
-3.1539613623189857
 10
-27.405118774303634
 20
-3.452790752887498
 10
-27.74080367306042
 20
-3.7502837668557674
 10
-28.07272661723772
 20
-4.04694957385306
 10
-28.400624905215185
 20
-4.342964908080345
 10
-28.724654238220143
 20
-4.637767099711846
 10
-29.045077317872956
 20
-4.931179414546591
 10
-29.361491974937362
 20
-5.223625054794463
 10
-29.673914443024824
 20
-5.514787818638605
 10
-29.982660923952178
 20
-5.804683939690448
 10
-30.28748494971051
 20
-6.093173950334095
 10
-30.588177318876
 20
-6.380627552582932
 10
-30.88494723287247
 20
-6.666675044423569
 10
-31.177864425507877
 20
-6.951193191851564
 10
-31.466859162974274
 20
-7.234305228871363
 10
-31.75180821126719
 20
-7.515941421675021
 10
-32.0326418365787
 20
-7.796225004267002
 10
-32.30955300672119
 20
-8.075102476450786
 10
-32.58229525368575
 20
-8.352434370610487
 10
-32.85100804508827
 20
-8.627974218737185
 10
-33.11579838132179
 20
-8.90210795645569
 10
-33.37629656037292
 20
-9.174626382342163
 10
-33.63255608243817
 20
-9.445722464209
 10
-33.884855882749335
 20
-9.714903266038384
 10
-34.13319596130642
 20
-9.98216878783031
 10
-34.37731361648906
 20
-10.247695763785735
 10
-34.61713911448932
 20
-10.511607427909128
 10
-34.85272595550369
 20
-10.77409674801289
 10
-35.084176340563026
 20
-11.034408086458845
 10
-35.3115437698638
 20
-11.292734411059387
 10
-35.534688775790144
 20
-11.549322189823439
 10
-35.75348812433759
 20
-11.804101688943053
 10
-35.96808128312203
 20
-12.056826440409308
 10
-36.17832878452759
 20
-12.307742912231122
 10
-36.38430036236218
 20
-12.55672787040404
 10
-36.586065750433775
 20
-12.803658080923604
 10
-36.78336224712202
 20
-13.048710277990777
 10
-36.976399053850756
 20
-13.291514759592195
 10
-37.16502046939265
 20
-13.532634195553625
 10
-37.34938219497502
 20
-13.771505916049296
 10
-37.52941449678993
 20
-14.008253155083663
 10
-37.70504764102945
 20
-14.242999146661186
 10
-37.87615839368909
 20
-14.475674156973914
 10
-38.04293972258128
 20
-14.706224685825344
 10
-38.20547759512539
 20
-14.934211297394144
 10
-38.36363254370553
 20
-15.159880459689237
 10
-38.51740456832171
 20
-15.383232172710622
 10
-38.66698663678632
 20
-15.604212936261789
 10
-38.8120625472825
 20
-15.822806516731298
 10
-38.952895001430605
 20
-16.03883617991819
 10
-39.089500232842084
 20
-16.25198572400559
 10
-39.222001475521374
 20
-16.462324882801447
 10
-39.35013602784813
 20
-16.670030390506735
 10
-39.47409685763476
 20
-16.87504874692494
 10
-39.593637496872354
 20
-17.07724048444017
 10
-39.70914388118572
 20
-17.2764986026594
 10
-39.82043927637388
 20
-17.472560399962287
 10
-39.92750744882541
 20
-17.66574207816568
 10
-40.03034839854029
 20
-17.856043637269586
 10
-40.12896212551855
 20
-18.043465077274007
 10
-40.2233648633716
 20
-18.227690196362076
 10
-40.31355661209945
 20
-18.408718994533796
 10
-40.39945140428272
 20
-18.586990907610488
 10
-40.4811352073408
 20
-18.762066499770828
 10
-40.55832908604187
 20
-18.934438707032648
 10
-40.631311975617756
 20
-19.103614593378122
 10
-40.69980494083664
 20
-19.270087094825072
 10
-40.76394744931444
 20
-19.433609743364585
 10
-40.82373950105115
 20
-19.59418253899667
 10
-40.87898812823435
 20
-19.751858981917824
 10
-40.93007926648887
 20
-19.906532071735043
 10
-40.976434012377474
 20
-20.05836230903784
 10
-41.01856153552944
 20
-20.207312427241146
 10
-41.05614563412792
 20
-20.35336619273354
 10
-41.089395509596734
 20
-20.496153903501625
 10
-41.11829492832445
 20
-20.635991761362273
 10
-41.14279039011456
 20
-20.772686798503088
 10
-41.16316083019887
 20
-20.905746078906233
 10
-41.17932028115797
 20
-21.035609038393027
 10
-41.19128497660331
 20
-21.1619594751466
 10
-41.199194384150786
 20
-21.284550921158047
 10
-41.203327439032186
 20
-21.40289044040954
 10
-41.203684141247514
 20
-21.51697803290107
 10
-41.20052719241712
 20
-21.626636964431675
 10
-41.19395879357181
 20
-21.73111159736316
 10
-41.18438111394785
 20
-21.829978729485656
 10
-41.17261472562919
 20
-21.92207575456253
 10
-41.15890129726251
 20
-22.00640056694667
 10
-41.144479803779454
 20
-22.081051156374713
 10
-41.13058922011164
 20
-22.144125512583276
 10
-41.118656689640886
 20
-22.192526551849483
 10
-41.110548791570345
 20
-22.223243157869828
 10
-40.667221471061886
 20
-23.0121566227104
 10
-40.661323600771865
 20
-23.01711661458674
 10
-40.64369972370974
 20
-23.031873356211307
 10
-40.61462877510729
 20
-23.055933911566264
 10
-40.57280204622497
 20
-23.091323524919456
 10
-40.51700159510478
 20
-23.140769577980382
 10
-40.45073034575555
 20
-23.197794168709294
 10
-40.37602681221919
 20
-23.25850730916005
 10
-40.29404400200794
 20
-23.3214464248906
 10
-40.20612309108424
 20
-23.38395386799938
 10
-40.11276844971514
 20
-23.44485079863832
 10
-40.014575214949325
 20
-23.50366051440103
 10
-39.91169908801411
 20
-23.559820345461734
 10
-39.80441900414131
 20
-23.612837355802597
 10
-39.69287443094677
 20
-23.66246507741471
 10
-39.577065368430546
 20
-23.708703510298058
 10
-39.45718478440501
 20
-23.75149915425614
 10
-39.3332489124816
 20
-23.7905358074721
 10
-39.20518801885239
 20
-23.82593670395039
 10
-39.073195071329756
 20
-23.857648343494496
 10
-38.937007368293365
 20
-23.88584746030538
 10
-38.79669464355116
 20
-23.910410820378605
 10
-38.652642832727956
 20
-23.931231423321133
 10
-38.50427303238653
 20
-23.948469769722497
 10
-38.35202467834821
 20
-23.96221182700209
 10
-38.19558156879612
 20
-23.97244136154847
 10
-38.03513667154267
 20
-23.979104873165124
 10
-37.870759720395824
 20
-23.982079127847598
 10
-37.70224151393172
 20
-23.98173382760926
 10
-37.52972151976627
 20
-23.977822504441203
 10
-37.352920802667654
 20
-23.97083809436125
 10
-37.17204856405974
 20
-23.960410895356034
 10
-36.987088570331096
 20
-23.946857109242416
 10
-36.797917587477244
 20
-23.930107002212445
 10
-36.60439614788229
 20
-23.91040704227504
 10
-36.40671721935866
 20
-23.887703729233692
 10
-36.204811068098394
 20
-23.862120297092854
 10
-35.99867769410148
 20
-23.833656745852526
 10
-35.78798466193964
 20
-23.802613043718146
 10
-35.57304817342972
 20
-23.76900542430113
 10
-35.35369149437075
 20
-23.732571185981147
 10
-35.13016109277167
 20
-23.69344979637408
 10
-34.90219426701211
 20
-23.6518179896809
 10
-34.669914251096515
 20
-23.60774549970955
 10
-34.4332675448284
 20
-23.561039358647626
 10
-34.192516849828095
 20
-23.511522832294173
 10
-33.94746919828321
 20
-23.459249420845683
 10
-33.698301324394706
 20
-23.40448182592252
 10
-33.44488999415814
 20
-23.34715031371673
 10
-33.18723520757349
 20
-23.287254884228314
 10
-32.925546166064606
 20
-23.224425835443906
 10
-32.65994610363595
 20
-23.158732901171444
 10
-32.39031178628307
 20
-23.090106347602987
 10
-32.11662698039453
 20
-23.018862376555397
 10
-31.838891685970303
 20
-22.94500098802867
 10
-31.5573848382422
 20
-22.868029246004983
 10
-31.27209020359878
 20
-22.788263352301183
 10
-30.982954281843536
 20
-22.705510339104883
 10
-30.68990733916852
 20
-22.619893440420537
 10
-30.393072609578187
 20
-22.53148239005608
 10
-30.09251982688049
 20
-22.44015395400707
 10
-29.788179257267476
 20
-22.34603136627796
 10
-29.48005090073914
 20
-22.24911462686874
 10
-29.168204491103445
 20
-22.149280501774964
 10
-28.852693528556888
 20
-22.04672195880903
 10
-28.53351801309947
 20
-21.94143899797094
 10
-28.210624444534687
 20
-21.833238651448298
 10
-27.88411982325556
 20
-21.722506854865905
 10
-27.553950649065573
 20
-21.60905064041136
 10
-27.220047188156776
 20
-21.49299324208911
 10
-26.88260240834158
 20
-21.374281159702655
 10
-26.54182551104383
 20
-21.252544691238626
 10
-26.19750729483967
 20
-21.128153538710386
 10
-25.849385058108766
 20
-21.001284436318908
 10
-25.49789823667243
 20
-20.872023351483577
 10
-25.142939830137642
 20
-20.73998434857958
 10
-24.784579572312346
 20
-20.60504419360246
 10
-24.422924463589563
 20
-20.467588822177028
 10
-24.057781536156895
 20
-20.327671734499795
 10
-23.689290257630226
 20
-20.185046462561846
 10
-23.317573862014022
 20
-20.039782740171127
 10
-22.94270208311623
 20
-19.891757333323184
 10
-22.564465719513002
 20
-19.74133994403138
 10
-22.18300423882025
 20
-19.588284104286814
 10
-21.79817817342206
 20
-19.432836282098393
 10
-21.410443192751185
 20
-19.274766243068633
 10
-21.019483094990782
 20
-19.11405775358611
 10
-20.6254211141453
 20
-18.950780547458766
 10
-20.228310750411243
 20
-18.785127592499
 10
-19.828168237400057
 20
-18.616782686889955
 10
-19.424977341500306
 20
-18.4460620324485
 10
-19.018931030524385
 20
-18.272912128978113
 10
-18.609922304079284
 20
-18.09694704085399
 10
-18.198197630173915
 20
-17.918306235692025
 10
-17.78354780738443
 20
-17.73735941550559
 10
-17.365972835710842
 20
-17.554106580294686
 10
-16.945472715153134
 20
-17.368547730059312
 10
-16.522379881139617
 20
-17.18038289659405
 10
-16.096833801286184
 20
-16.989365611889973
 10
-15.66843230635659
 20
-16.79591907815697
 10
-15.237421864359744
 20
-16.600182763010938
 10
-14.803818708907093
 20
-16.401840464635004
 10
-14.36788554161898
 20
-16.20071544882822
 10
-13.929413161071569
 20
-15.997177417603936
 10
-13.488385333653415
 20
-15.791542572779028
 10
-13.044818292975968
 20
-15.583494712536636
 10
-12.598921240463055
 20
-15.372664134863376
 10
-12.15080117650771
 20
-15.159436775384068
 10
-11.700388367301974
 20
-14.94393586810316
 10
-11.247436344836942
 20
-14.726021945404769
 10
-10.792384544933928
 20
-14.505780974708271
 10
-10.335249201204375
 20
-14.282896754196809
 10
-9.876030313648279
 20
-14.057369283870377
 10
-9.41478138246215
 20
-13.829391531541386
 10
-8.95115373860625
 20
-13.599579667232117
 10
-8.48547981750888
 20
-13.367633722737153
 10
-8.017915320397375
 20
-13.13299102823071
 10
-7.548390513463786
 20
-12.89577481771725
 10
-7.077151864717021
 20
-12.65612455881266
 10
-6.603797204920841
 20
-12.414463453726833
 10
-6.128589235695604
 20
-12.170614768258798
 10
-5.651527957041293
 20
-11.92457850240855
 10
-5.172752836573821
 20
-11.676108188167182
 10
-4.692194140485229
 20
-11.425327059539145
 10
-4.209958869168542
 20
-11.172621052149255
 10
-3.7259400222307435
 20
-10.917604230372698
 10
-3.2405235352966266
 20
-10.66016959381645
 10
-2.7536396745582628
 20
-10.400440376484976
 10
-2.2652187062076985
 20
-10.138539812382728
 10
-1.7752071300484196
 20
-9.874274933697302
 10
-1.2841141157097105
 20
-9.607608473843637
 10
-0.791886162995034
 20
-9.338347465009306
 10
-0.29798163505226827
 20
-9.067161577413124
 10
0.19728326630173645
 20
-8.794067044666521
 10
0.6933669042148254
 20
-8.518394196550704
 10
1.1907249481197653
 20
-8.240373267463145
 10
1.6893038978200412
 20
-7.960197225216251
 10
2.188717817690849
 20
-7.677759069417003
 10
2.6891434419331444
 20
-7.392796098445051
 10
3.1903343025380293
 20
-7.105447779916282
 10
3.692692568741731
 20
-6.8161373160405905
 10
4.195955538923911
 20
-6.524687972616999
 10
4.699651310040378
 20
-6.230553313431168
 10
5.204112317519415
 20
-5.934033306688528
 10
5.70949426258837
 20
-5.635690622214852
 10
6.215464709818934
 20
-5.335225291804719
 10
6.722077159407621
 20
-5.032444347645721
 10
7.229347844965863
 20
-4.727663991554723
 10
7.736997831261877
 20
-4.420391287513893
 10
8.245027118295669
 20
-4.110626235523223
 10
8.753591407294548
 20
-3.7989315054085084
 10
9.262637198062022
 20
-3.4855000649821446
 10
9.772217990794607
 20
-3.1701389464317202
 10
10.282001350063986
 20
-2.8525481815518225
 10
10.792126743486058
 20
-2.53297423835136
 10
11.302594171060832
 20
-2.2114171168303316
 10
11.813280398783842
 20
-1.8879465507966906
 10
12.323976225231249
 20
-1.5621928382370545
 10
12.834821118018947
 20
-1.2344024471603476
 10
13.345847544369807
 20
-0.9052077812002949
 10
13.8572322384848
 20
-0.5743461387365407
 10
14.368519530931177
 20
-0.2415872853716028
 10
14.879902389521328
 20
0.09301527869799975
 10
15.39113434624634
 20
0.4293220858563722
 10
15.902408368918632
 20
0.7672796359070135
 10
16.413654723730236
 20
1.10701116285437
 10
16.924696676480202
 20
1.4482539650781006
 10
17.435796928788882
 20
1.7908313083772338
 10
17.94688574684832
 20
2.13486642675622
 10
18.457646928841637
 20
2.4803430866036207
 10
18.96827344258127
 20
2.82720778772294
 10
19.478781521678645
 20
3.1751443282973058
 10
19.989015464906426
 20
3.5247153781524965
 10
20.498868271871594
 20
3.875535001663701
 10
21.00847941019005
 20
4.227356730822008
 10
21.517779146053833
 20
4.58030379963187
 10
22.026628011847055
 20
4.934622676102201
 10
22.53516547518561
 20
5.290066892224095
 10
23.04328453567649
 20
5.646250512372736
 10
23.550968959708232
 20
6.00348973836498
 10
24.05830471470025
 20
6.361345134379523
 10
24.565082599228685
 20
6.720186402429724
 10
25.071232879485585
 20
7.080136776520039
 10
25.57689502308686
 20
7.440949788641568
 10
26.082031763447407
 20
7.802116269165019
 10
26.586766334571728
 20
8.163705951898367
 10
27.090766301031493
 20
8.526018805047018
 10
27.594101396634667
 20
8.888931594606523
 10
28.096771621381226
 20
9.252444320576878
 10
28.598846709079144
 20
9.616433748953629
 10
29.100010457911537
 20
9.980883646125333
 10
29.60045583569082
 20
10.345740511895485
 10
30.10012934222047
 20
10.71081137845167
 10
30.599293679120876
 20
11.07591951159294
 10
31.09742344315128
 20
11.441418379721204
 10
31.594588368119673
 20
11.80718474883203
 10
32.09126035707023
 20
12.17267218271106
 10
32.58677453914637
 20
12.538480617769157
 10
33.08106118054012
 20
12.904733288010773
 10
33.57466191810364
 20
13.270760523217106
 10
34.06746975144388
 20
13.636176387763351
 10
34.55918951171766
 20
14.001790019484194
 10
35.049767698728424
 20
14.367408450567233
 10
35.53908107847176
 20
14.73296194720453
 10
36.02739235256798
 20
15.098273775195102
 10
36.51464802082059
 20
15.46315096672655
 10
37.00091781703755
 20
15.827470287794426
 10
37.48593903959847
 20
16.19140847259968
 10
37.9695722208875
 20
16.55521198915124
 10
38.45202656232846
 20
16.918511135435732
 10
38.93330206392136
 20
17.281305911453153
 10
39.41322199146522
 20
17.643333615583153
 10
39.89203281296895
 20
18.004733715441617
 10
40.36927885899981
 20
18.36573644542603
 10
40.84502986336574
 20
18.726218571531938
 10
41.31963449510646
 20
19.08556392373705
 10
41.79302302041406
 20
19.44389573604582
 10
42.2648095036637
 20
19.801321008851275
 10
42.73531014667226
 20
20.15785597576485
 10
43.20420874762287
 20
20.513484403175102
 10
43.671628540519976
 20
20.868276024889976
 10
44.137585758975035
 20
21.22191463909263
 10
44.601957168983574
 20
21.574330511975095
 10
45.065005472165964
 20
21.925346909336415
 10
45.526274999089416
 20
22.275194065574052
 10
45.986012217762884
 20
22.62401144830392
 10
46.44390092636948
 20
22.971782823914577
 10
46.90035952775688
 20
23.31776878837926
 10
47.35526478792065
 20
23.661899607890046
 10
47.80844477202203
 20
24.005054154089564
 10
48.25946004423966
 20
24.347146459558427
 10
48.70911494304606
 20
24.687330119876876
 10
49.15709326662438
 20
25.025588901433473
 10
49.6031160797428
 20
25.362415740246043
 10
50.04718338240132
 20
25.69781063631457
 10
50.489364908407914
 20
26.031650355634632
 10
50.930009326802306
 20
26.36331872818392
 10
51.3687307019597
 20
26.69292275435546
 10
51.80556630046514
 20
27.020971603778513
 10
52.240269654309714
 20
27.347325808837187
 10
52.67298023110934
 20
27.67173890152257
 10
53.10383749847991
 20
27.993964413825744
 10
53.53270198880553
 20
28.31424881375563
 10
53.95945046808169
 20
28.63252236750426
 10
54.38434563792882
 20
28.948608340870692
 10
54.80714103033798
 20
29.262367266239025
 10
55.227750677889745
 20
29.57423857943057
 10
55.64592811257525
 20
29.88408281282943
 10
56.062182504023724
 20
30.19186269985054
 10
56.476160383833275
 20
30.497052837253204
 10
56.88810822001278
 20
30.799792692653305
 10
57.29795627875429
 20
31.100205500055292
 10
57.705318624433026
 20
31.39839825985219
 10
58.11026499085691
 20
31.694247738039554
 10
58.513111579842835
 20
31.987770168228817
 10
58.91355842318533
 20
32.27863311499167
 10
59.31186822250479
 20
32.56665984412715
 10
59.70770854237289
 20
32.852150323840696
 10
60.101132882986164
 20
33.1352975219447
 10
60.49208774414807
 20
33.41590847062674
 10
60.88057312585861
 20
33.693983169886835
 10
61.2666749955372
 20
33.96908218390367
 10
61.65030738576445
 20
34.241644948498575
 10
62.03129356233933
 20
34.51140876205115
 10
62.409617291650505
 20
34.778689826378304
 10
62.78548777512173
 20
35.04311843946663
 10
63.15885151255655
 20
35.304501633503776
 10
63.52949930253107
 20
35.563209110503045
 10
63.89743114504535
 20
35.81924087046449
 10
64.26264704009937
 20
36.07259691338808
 10
64.6250399873001
 20
36.32289130364904
 10
64.9849959222723
 20
36.5700170408543
 10
65.34204294197187
 20
36.814520561218245
 10
65.69612754620225
 20
37.05620889692844
 10
66.0473729689679
 20
37.29515178179287
 10
66.39579544388029
 20
37.53103301399463
 10
66.74120200312694
 20
37.76390609373025
 10
67.08376938090889
 20
37.994033722620074
 10
67.42346031064105
 20
38.220906731034844
 10
67.76013532470748
 20
38.444771586983464
 10
68.09386415691618
 20
38.665505056461484
 10
68.42443760584331
 20
38.88347684148229
 10
68.75199513910471
 20
39.098440474036934
 10
69.07641352269597
 20
39.310326220317506
 10
69.39776249042505
 20
39.51901084631953
 10
69.7160955424884
 20
39.7246873198554
 10
70.03109647706921
 20
39.927339407313696
 10
70.34276529416749
 20
40.126967108694416
 10
70.65129496159557
 20
40.32351692380103
 10
70.9567552131615
 20
40.51686561862912
 10
71.25869037943242
 20
40.70724342757613
 10
71.55722369441285
 20
40.89472008445001
 10
71.85256435952661
 20
41.078925887237396
 10
72.14451940696131
 20
41.25991433613479
 10
72.43294936910105
 20
41.43793189915113
 10
72.71811694756617
 20
41.61280184208542
 10
72.99984540815572
 20
41.784261463317335
 10
73.27811851725825
 20
41.9526269646637
 10
73.55286654106582
 20
42.11802158012901
 10
73.82396624557398
 20
42.28037557590529
 10
74.09155709839861
 20
42.43944248398365
 10
74.35556936573175
 20
42.59534553836853
 10
74.61586357995756
 20
42.74833120706886
 10
74.87250947488393
 20
42.89827625608017
 10
75.12552328412232
 20
43.04486448358559
 10
75.37490500767271
 20
43.18809588958512
 10
75.62049894430778
 20
43.328533143904565
 10
75.86225159383105
 20
43.46598327873149
 10
76.10016295624247
 20
43.60044629406592
 10
76.33430276535002
 20
43.73179895590338
 10
76.56454778714925
 20
43.85997153043593
 10
76.79102125564457
 20
43.985033751471505
 10
77.0134604692157
 20
44.10716235321109
 10
77.23200489547847
 20
44.226110867645765
 10
77.446515066817
 20
44.34212576278443
 10
77.65725368485165
 20
44.455030304426145
 10
77.86383481395761
 20
44.5649314929639
 10
78.06631195433144
 20
44.67202229621014
 10
78.26463160577653
 20
44.77610974635242
 10
78.45898673610535
 20
44.87714034319424
 10
78.64911464369753
 20
44.975290820936564
 10
78.83527803017344
 20
45.07038444537845
 10
79.0170212261003
 20
45.16265145091736
 10
79.19466043329496
 20
45.25210807116471
 10
79.36794918374854
 20
45.33861483850465
 10
79.53701071146548
 20
45.422241486745094
 10
79.70184501644583
 20
45.50298801588606
 10
79.86238236488154
 20
45.58097765993198
 10
80.01856925657617
 20
45.656017451070475
 10
80.17026622391381
 20
45.728353857310445
 10
80.31766623470689
 20
45.79793337845539
 10
80.46057632114294
 20
45.864809514701804
 10
80.59906621702997
 20
45.92885903204526
 10
80.73306618856
 20
45.990205164490185
 10
80.862645969541
 20
46.04872467803213
 10
80.98773582616502
 20
46.10454080667557
 10
81.10819629081612
 20
46.157900018429395
 10
81.2240435971058
 20
46.20848611147675
 10
81.335454479235
 20
46.256561787438
 10
81.44198950138238
 20
46.30204107889375
 10
81.5440880993693
 20
46.345009953263386
 10
81.64150380518684
 20
46.38532894293101
 10
81.73409715121903
 20
46.42324451590553
 10
81.82206110527838
 20
46.45870317199046
 10
81.9052724333604
 20
46.49163517737784
 10
81.98359166784915
 20
46.52228700007658
 10
82.05728151036506
 20
46.550481905885725
 10
82.12607925928768
 20
46.576396629006226
 10
82.19005464842503
 20
46.599907935433635
 10
82.24906821016118
 20
46.621262293176855
 10
82.30318967830414
 20
46.64033646823147
 10
82.3524725530503
 20
46.65732342840982
 10
82.39667036639086
 20
46.672083706096046
 10
82.4358366185223
 20
46.68481026910258
 10
82.47009454344905
 20
46.69557285123733
 10
82.49919767316223
 20
46.7042319848844
 10
82.52312977405033
 20
46.71110387186067
 10
82.54208381392583
 20
46.71613501196962
 10
82.55567385716392
 20
46.719432405604294
 10
82.56395340396105
 20
46.72118902057706
 10
82.56678298670141
 20
46.72165132489687
  0
ENDSEC
  0
SECTION
  2
OBJECTS
  0
DICTIONARY
  5
A
330
0
100
AcDbDictionary
280
0
281
1
  3
ACAD_COLOR
350
B
  3
ACAD_GROUP
350
C
  3
ACAD_LAYOUT
350
D
  3
ACAD_MATERIAL
350
E
  3
ACAD_MLEADERSTYLE
350
F
  3
ACAD_MLINESTYLE
350
10
  3
ACAD_PLOTSETTINGS
350
11
  3
ACAD_PLOTSTYLENAME
350
12
  3
ACAD_SCALELIST
350
14
  3
ACAD_TABLESTYLE
350
15
  3
ACAD_VISUALSTYLE
350
16
  3
EZDXF_META
350
2D
  0
DICTIONARY
  5
B
330
A
100
AcDbDictionary
280
0
281
1
  0
DICTIONARY
  5
C
330
A
100
AcDbDictionary
280
0
281
1
  0
DICTIONARY
  5
D
330
A
100
AcDbDictionary
280
0
281
1
  3
Model
350
1A
  3
Layout1
350
1E
  0
DICTIONARY
  5
E
330
A
100
AcDbDictionary
280
0
281
1
  3
ByBlock
350
1F
  3
ByLayer
350
20
  3
Global
350
21
  0
DICTIONARY
  5
F
330
A
100
AcDbDictionary
280
0
281
1
  3
Standard
350
2C
  0
DICTIONARY
  5
10
330
A
100
AcDbDictionary
280
0
281
1
  3
Standard
350
22
  0
DICTIONARY
  5
11
330
A
100
AcDbDictionary
280
0
281
1
  0
ACDBDICTIONARYWDFLT
  5
12
330
A
100
AcDbDictionary
280
0
281
1
  3
Normal
350
13
100
AcDbDictionaryWithDefault
340
13
  0
ACDBPLACEHOLDER
  5
13
330
12
  0
DICTIONARY
  5
14
330
A
100
AcDbDictionary
280
0
281
1
  0
DICTIONARY
  5
15
330
A
100
AcDbDictionary
280
0
281
1
  0
DICTIONARY
  5
16
330
A
100
AcDbDictionary
280
0
281
1
  0
LAYOUT
  5
1A
330
D
100
AcDbPlotSettings
  1

  4
A3
  6

 40
7.5
 41
20.0
 42
7.5
 43
20.0
 44
420.0
 45
297.0
 46
0.0
 47
0.0
 48
0.0
 49
0.0
140
0.0
141
0.0
142
1.0
143
1.0
 70
1024
 72
1
 73
0
 74
5
  7

 75
16
 76
0
 77
2
 78
300
147
1.0
148
0.0
149
0.0
100
AcDbLayout
  1
Model
 70
1
 71
0
 10
0.0
 20
0.0
 11
420.0
 21
297.0
 12
0.0
 22
0.0
 32
0.0
 14
1e+20
 24
1e+20
 34
1e+20
 15
-1e+20
 25
-1e+20
 35
-1e+20
146
0.0
 13
0.0
 23
0.0
 33
0.0
 16
1.0
 26
0.0
 36
0.0
 17
0.0
 27
1.0
 37
0.0
 76
1
330
17
  0
LAYOUT
  5
1E
330
D
100
AcDbPlotSettings
  1

  4
A3
  6

 40
7.5
 41
20.0
 42
7.5
 43
20.0
 44
420.0
 45
297.0
 46
0.0
 47
0.0
 48
0.0
 49
0.0
140
0.0
141
0.0
142
1.0
143
1.0
 70
0
 72
1
 73
0
 74
5
  7

 75
16
 76
0
 77
2
 78
300
147
1.0
148
0.0
149
0.0
100
AcDbLayout
  1
Layout1
 70
1
 71
1
 10
0.0
 20
0.0
 11
420.0
 21
297.0
 12
0.0
 22
0.0
 32
0.0
 14
1e+20
 24
1e+20
 34
1e+20
 15
-1e+20
 25
-1e+20
 35
-1e+20
146
0.0
 13
0.0
 23
0.0
 33
0.0
 16
1.0
 26
0.0
 36
0.0
 17
0.0
 27
1.0
 37
0.0
 76
1
330
1B
  0
MATERIAL
  5
1F
102
{ACAD_REACTORS
330
E
102
}
330
E
100
AcDbMaterial
  1
ByBlock
  2

 70
0
 40
1.0
 71
1
 41
1.0
 91
-1023410177
 42
1.0
 72
1
  3

 73
1
 74
1
 75
1
 44
0.5
 73
0
 45
1.0
 46
1.0
 77
1
  4

 78
1
 79
1
170
1
 48
1.0
171
1
  6

172
1
173
1
174
1
140
1.0
141
1.0
175
1
  7

176
1
177
1
178
1
143
1.0
179
1
  8

270
1
271
1
272
1
145
1.0
146
1.0
273
1
  9

274
1
275
1
276
1
 42
1.0
 72
1
  3

 73
1
 74
1
 75
1
 94
63
  0
MATERIAL
  5
20
102
{ACAD_REACTORS
330
E
102
}
330
E
100
AcDbMaterial
  1
ByLayer
  2

 70
0
 40
1.0
 71
1
 41
1.0
 91
-1023410177
 42
1.0
 72
1
  3

 73
1
 74
1
 75
1
 44
0.5
 73
0
 45
1.0
 46
1.0
 77
1
  4

 78
1
 79
1
170
1
 48
1.0
171
1
  6

172
1
173
1
174
1
140
1.0
141
1.0
175
1
  7

176
1
177
1
178
1
143
1.0
179
1
  8

270
1
271
1
272
1
145
1.0
146
1.0
273
1
  9

274
1
275
1
276
1
 42
1.0
 72
1
  3

 73
1
 74
1
 75
1
 94
63
  0
MATERIAL
  5
21
102
{ACAD_REACTORS
330
E
102
}
330
E
100
AcDbMaterial
  1
Global
  2

 70
0
 40
1.0
 71
1
 41
1.0
 91
-1023410177
 42
1.0
 72
1
  3

 73
1
 74
1
 75
1
 44
0.5
 73
0
 45
1.0
 46
1.0
 77
1
  4

 78
1
 79
1
170
1
 48
1.0
171
1
  6

172
1
173
1
174
1
140
1.0
141
1.0
175
1
  7

176
1
177
1
178
1
143
1.0
179
1
  8

270
1
271
1
272
1
145
1.0
146
1.0
273
1
  9

274
1
275
1
276
1
 42
1.0
 72
1
  3

 73
1
 74
1
 75
1
 94
63
  0
MLINESTYLE
  5
22
102
{ACAD_REACTORS
330
10
102
}
330
10
100
AcDbMlineStyle
  2
Standard
 70
0
  3

 62
256
 51
90.0
 52
90.0
 71
2
 49
0.5
 62
256
  6
BYLAYER
 49
-0.5
 62
256
  6
BYLAYER
  0
MLEADERSTYLE
  5
2C
102
{ACAD_REACTORS
330
F
102
}
330
F
100
AcDbMLeaderStyle
179
2
170
2
171
1
172
0
 90
2
 40
0.0
 41
0.0
173
1
 91
-1056964608
 92
-2
290
1
 42
2.0
291
1
 43
8.0
  3
Standard
 44
4.0
300

342
29
174
1
175
1
176
0
178
1
 93
-1056964608
 45
4.0
292
0
297
0
 46
4.0
 94
-1056964608
 47
1.0
 49
1.0
140
1.0
294
1
141
0.0
177
0
142
1.0
295
0
296
0
143
3.75
271
0
272
9
273
9
  0
DICTIONARY
  5
2D
330
A
100
AcDbDictionary
280
1
281
1
  3
CREATED_BY_EZDXF
350
2E
  3
WRITTEN_BY_EZDXF
350
32
  0
DICTIONARYVAR
  5
2E
330
2D
100
DictionaryVariables
280
0
  1
1.3.5 @ 2025-08-18T19:55:48.948011+00:00
  0
DICTIONARYVAR
  5
32
330
2D
100
DictionaryVariables
280
0
  1
1.3.5 @ 2025-08-18T19:55:48.956008+00:00
  0
ENDSEC
  0
EOF
