  0
SECTION
  2
HEADER
  9
$ACADVER
  1
AC1032
  9
$ACADMAINTVER
 90
4
  9
$DWGCODEPAGE
  3
ANSI_1252
  9
$LASTSAVEDBY
  1
ezdxf
  9
$REQUIREDVERSIONS
160
0
  9
$INSBASE
 10
0.0
 20
0.0
 30
0.0
  9
$EXTMIN
 10
1e+20
 20
1e+20
 30
1e+20
  9
$EXTMAX
 10
-1e+20
 20
-1e+20
 30
-1e+20
  9
$LIMMIN
 10
0.0
 20
0.0
  9
$LIMMAX
 10
420.0
 20
297.0
  9
$ORTHOMODE
 70
0
  9
$REGENMODE
 70
1
  9
$FILLMODE
 70
1
  9
$QTEXTMODE
 70
0
  9
$MIRRTEXT
 70
1
  9
$LTSCALE
 40
1.0
  9
$ATTMODE
 70
1
  9
$TEXTSIZE
 40
2.5
  9
$TRACEWID
 40
1.0
  9
$TEXTSTYLE
  7
Standard
  9
$CLAYER
  8
0
  9
$CELTYPE
  6
ByLayer
  9
$CECOLOR
 62
256
  9
$CELTSCALE
 40
1.0
  9
$DISPSILH
 70
0
  9
$DIMSCALE
 40
1.0
  9
$DIMASZ
 40
2.5
  9
$DIMEXO
 40
0.625
  9
$DIMDLI
 40
3.75
  9
$DIMRND
 40
0.0
  9
$DIMDLE
 40
0.0
  9
$DIMEXE
 40
1.25
  9
$DIMTP
 40
0.0
  9
$DIMTM
 40
0.0
  9
$DIMTXT
 40
2.5
  9
$DIMCEN
 40
2.5
  9
$DIMTSZ
 40
0.0
  9
$DIMTOL
 70
0
  9
$DIMLIM
 70
0
  9
$DIMTIH
 70
0
  9
$DIMTOH
 70
0
  9
$DIMSE1
 70
0
  9
$DIMSE2
 70
0
  9
$DIMTAD
 70
1
  9
$DIMZIN
 70
8
  9
$DIMBLK
  1

  9
$DIMASO
 70
1
  9
$DIMSHO
 70
1
  9
$DIMPOST
  1

  9
$DIMAPOST
  1

  9
$DIMALT
 70
0
  9
$DIMALTD
 70
3
  9
$DIMALTF
 40
0.03937007874
  9
$DIMLFAC
 40
1.0
  9
$DIMTOFL
 70
1
  9
$DIMTVP
 40
0.0
  9
$DIMTIX
 70
0
  9
$DIMSOXD
 70
0
  9
$DIMSAH
 70
0
  9
$DIMBLK1
  1

  9
$DIMBLK2
  1

  9
$DIMSTYLE
  2
ISO-25
  9
$DIMCLRD
 70
0
  9
$DIMCLRE
 70
0
  9
$DIMCLRT
 70
0
  9
$DIMTFAC
 40
1.0
  9
$DIMGAP
 40
0.625
  9
$DIMJUST
 70
0
  9
$DIMSD1
 70
0
  9
$DIMSD2
 70
0
  9
$DIMTOLJ
 70
0
  9
$DIMTZIN
 70
8
  9
$DIMALTZ
 70
0
  9
$DIMALTTZ
 70
0
  9
$DIMUPT
 70
0
  9
$DIMDEC
 70
2
  9
$DIMTDEC
 70
2
  9
$DIMALTU
 70
2
  9
$DIMALTTD
 70
3
  9
$DIMTXSTY
  7
Standard
  9
$DIMAUNIT
 70
0
  9
$DIMADEC
 70
0
  9
$DIMALTRND
 40
0.0
  9
$DIMAZIN
 70
0
  9
$DIMDSEP
 70
44
  9
$DIMATFIT
 70
3
  9
$DIMFRAC
 70
0
  9
$DIMLDRBLK
  1

  9
$DIMLUNIT
 70
2
  9
$DIMLWD
 70
-2
  9
$DIMLWE
 70
-2
  9
$DIMTMOVE
 70
0
  9
$DIMFXL
 40
1.0
  9
$DIMFXLON
 70
0
  9
$DIMJOGANG
 40
0.785398163397
  9
$DIMTFILL
 70
0
  9
$DIMTFILLCLR
 70
0
  9
$DIMARCSYM
 70
0
  9
$DIMLTYPE
  6

  9
$DIMLTEX1
  6

  9
$DIMLTEX2
  6

  9
$DIMTXTDIRECTION
 70
0
  9
$LUNITS
 70
2
  9
$LUPREC
 70
4
  9
$SKETCHINC
 40
1.0
  9
$FILLETRAD
 40
10.0
  9
$AUNITS
 70
0
  9
$AUPREC
 70
2
  9
$MENU
  1
.
  9
$ELEVATION
 40
0.0
  9
$PELEVATION
 40
0.0
  9
$THICKNESS
 40
0.0
  9
$LIMCHECK
 70
0
  9
$CHAMFERA
 40
0.0
  9
$CHAMFERB
 40
0.0
  9
$CHAMFERC
 40
0.0
  9
$CHAMFERD
 40
0.0
  9
$SKPOLY
 70
0
  9
$TDCREATE
 40
2460906.8720949073
  9
$TDUCREATE
 40
2458532.153996898
  9
$TDUPDATE
 40
2460906.8720949073
  9
$TDUUPDATE
 40
2458532.1544311
  9
$TDINDWG
 40
0.0
  9
$TDUSRTIMER
 40
0.0
  9
$USRTIMER
 70
1
  9
$ANGBASE
 50
0.0
  9
$ANGDIR
 70
0
  9
$PDMODE
 70
0
  9
$PDSIZE
 40
0.0
  9
$PLINEWID
 40
0.0
  9
$SPLFRAME
 70
0
  9
$SPLINETYPE
 70
6
  9
$SPLINESEGS
 70
8
  9
$HANDSEED
  5
33
  9
$SURFTAB1
 70
6
  9
$SURFTAB2
 70
6
  9
$SURFTYPE
 70
6
  9
$SURFU
 70
6
  9
$SURFV
 70
6
  9
$UCSBASE
  2

  9
$UCSNAME
  2

  9
$UCSORG
 10
0.0
 20
0.0
 30
0.0
  9
$UCSXDIR
 10
1.0
 20
0.0
 30
0.0
  9
$UCSYDIR
 10
0.0
 20
1.0
 30
0.0
  9
$UCSORTHOREF
  2

  9
$UCSORTHOVIEW
 70
0
  9
$UCSORGTOP
 10
0.0
 20
0.0
 30
0.0
  9
$UCSORGBOTTOM
 10
0.0
 20
0.0
 30
0.0
  9
$UCSORGLEFT
 10
0.0
 20
0.0
 30
0.0
  9
$UCSORGRIGHT
 10
0.0
 20
0.0
 30
0.0
  9
$UCSORGFRONT
 10
0.0
 20
0.0
 30
0.0
  9
$UCSORGBACK
 10
0.0
 20
0.0
 30
0.0
  9
$PUCSBASE
  2

  9
$PUCSNAME
  2

  9
$PUCSORG
 10
0.0
 20
0.0
 30
0.0
  9
$PUCSXDIR
 10
1.0
 20
0.0
 30
0.0
  9
$PUCSYDIR
 10
0.0
 20
1.0
 30
0.0
  9
$PUCSORTHOREF
  2

  9
$PUCSORTHOVIEW
 70
0
  9
$PUCSORGTOP
 10
0.0
 20
0.0
 30
0.0
  9
$PUCSORGBOTTOM
 10
0.0
 20
0.0
 30
0.0
  9
$PUCSORGLEFT
 10
0.0
 20
0.0
 30
0.0
  9
$PUCSORGRIGHT
 10
0.0
 20
0.0
 30
0.0
  9
$PUCSORGFRONT
 10
0.0
 20
0.0
 30
0.0
  9
$PUCSORGBACK
 10
0.0
 20
0.0
 30
0.0
  9
$USERI1
 70
0
  9
$USERI2
 70
0
  9
$USERI3
 70
0
  9
$USERI4
 70
0
  9
$USERI5
 70
0
  9
$USERR1
 40
0.0
  9
$USERR2
 40
0.0
  9
$USERR3
 40
0.0
  9
$USERR4
 40
0.0
  9
$USERR5
 40
0.0
  9
$WORLDVIEW
 70
1
  9
$SHADEDGE
 70
3
  9
$SHADEDIF
 70
70
  9
$TILEMODE
 70
1
  9
$MAXACTVP
 70
64
  9
$PINSBASE
 10
0.0
 20
0.0
 30
0.0
  9
$PLIMCHECK
 70
0
  9
$PEXTMIN
 10
1e+20
 20
1e+20
 30
1e+20
  9
$PEXTMAX
 10
-1e+20
 20
-1e+20
 30
-1e+20
  9
$PLIMMIN
 10
0.0
 20
0.0
  9
$PLIMMAX
 10
420.0
 20
297.0
  9
$UNITMODE
 70
0
  9
$VISRETAIN
 70
1
  9
$PLINEGEN
 70
0
  9
$PSLTSCALE
 70
1
  9
$TREEDEPTH
 70
3020
  9
$CMLSTYLE
  2
Standard
  9
$CMLJUST
 70
0
  9
$CMLSCALE
 40
20.0
  9
$PROXYGRAPHICS
 70
1
  9
$MEASUREMENT
 70
1
  9
$CELWEIGHT
370
-1
  9
$ENDCAPS
280
0
  9
$JOINSTYLE
280
0
  9
$LWDISPLAY
290
0
  9
$INSUNITS
 70
6
  9
$HYPERLINKBASE
  1

  9
$STYLESHEET
  1

  9
$XEDIT
290
1
  9
$CEPSNTYPE
380
0
  9
$PSTYLEMODE
290
1
  9
$FINGERPRINTGUID
  2
{76B82FEE-E03B-4AE2-8477-8911875D6FE3}
  9
$VERSIONGUID
  2
{96ED1F67-FECC-41D3-9B80-9BA19B0C8843}
  9
$EXTNAMES
290
1
  9
$PSVPSCALE
 40
0.0
  9
$OLESTARTUP
290
0
  9
$SORTENTS
280
127
  9
$INDEXCTL
280
0
  9
$HIDETEXT
280
1
  9
$XCLIPFRAME
280
1
  9
$HALOGAP
280
0
  9
$OBSCOLOR
 70
257
  9
$OBSLTYPE
280
0
  9
$INTERSECTIONDISPLAY
280
0
  9
$INTERSECTIONCOLOR
 70
257
  9
$DIMASSOC
280
2
  9
$PROJECTNAME
  1

  9
$CAMERADISPLAY
290
0
  9
$LENSLENGTH
 40
50.0
  9
$CAMERAHEIGHT
 40
0.0
  9
$STEPSPERSEC
 40
24.0
  9
$STEPSIZE
 40
100.0
  9
$3DDWFPREC
 40
2.0
  9
$PSOLWIDTH
 40
0.005
  9
$PSOLHEIGHT
 40
0.08
  9
$LOFTANG1
 40
1.570796326795
  9
$LOFTANG2
 40
1.570796326795
  9
$LOFTMAG1
 40
0.0
  9
$LOFTMAG2
 40
0.0
  9
$LOFTPARAM
 70
7
  9
$LOFTNORMALS
280
1
  9
$LATITUDE
 40
37.795
  9
$LONGITUDE
 40
-122.394
  9
$NORTHDIRECTION
 40
0.0
  9
$TIMEZONE
 70
-8000
  9
$LIGHTGLYPHDISPLAY
280
1
  9
$TILEMODELIGHTSYNCH
280
1
  9
$CMATERIAL
347
20
  9
$SOLIDHIST
280
0
  9
$SHOWHIST
280
1
  9
$DWFFRAME
280
2
  9
$DGNFRAME
280
2
  9
$REALWORLDSCALE
290
1
  9
$INTERFERECOLOR
 62
256
  9
$CSHADOW
280
0
  9
$SHADOWPLANELOCATION
 40
0.0
  0
ENDSEC
  0
SECTION
  2
CLASSES
  0
CLASS
  1
ACDBDICTIONARYWDFLT
  2
AcDbDictionaryWithDefault
  3
ObjectDBX Classes
 90
0
 91
0
280
0
281
0
  0
CLASS
  1
SUN
  2
AcDbSun
  3
SCENEOE
 90
1153
 91
0
280
0
281
0
  0
CLASS
  1
VISUALSTYLE
  2
AcDbVisualStyle
  3
ObjectDBX Classes
 90
4095
 91
0
280
0
281
0
  0
CLASS
  1
MATERIAL
  2
AcDbMaterial
  3
ObjectDBX Classes
 90
1153
 91
0
280
0
281
0
  0
CLASS
  1
SCALE
  2
AcDbScale
  3
ObjectDBX Classes
 90
1153
 91
0
280
0
281
0
  0
CLASS
  1
TABLESTYLE
  2
AcDbTableStyle
  3
ObjectDBX Classes
 90
4095
 91
0
280
0
281
0
  0
CLASS
  1
MLEADERSTYLE
  2
AcDbMLeaderStyle
  3
ACDB_MLEADERSTYLE_CLASS
 90
4095
 91
0
280
0
281
0
  0
CLASS
  1
DICTIONARYVAR
  2
AcDbDictionaryVar
  3
ObjectDBX Classes
 90
0
 91
0
280
0
281
0
  0
CLASS
  1
CELLSTYLEMAP
  2
AcDbCellStyleMap
  3
ObjectDBX Classes
 90
1152
 91
0
280
0
281
0
  0
CLASS
  1
MENTALRAYRENDERSETTINGS
  2
AcDbMentalRayRenderSettings
  3
SCENEOE
 90
1024
 91
0
280
0
281
0
  0
CLASS
  1
ACDBDETAILVIEWSTYLE
  2
AcDbDetailViewStyle
  3
ObjectDBX Classes
 90
1025
 91
0
280
0
281
0
  0
CLASS
  1
ACDBSECTIONVIEWSTYLE
  2
AcDbSectionViewStyle
  3
ObjectDBX Classes
 90
1025
 91
0
280
0
281
0
  0
CLASS
  1
RASTERVARIABLES
  2
AcDbRasterVariables
  3
ISM
 90
0
 91
0
280
0
281
0
  0
CLASS
  1
LAYOUT
  2
AcDbLayout
  3
ObjectDBX Classes
 90
0
 91
0
280
0
281
0
  0
CLASS
  1
ACDBPLACEHOLDER
  2
AcDbPlaceHolder
  3
ObjectDBX Classes
 90
0
 91
0
280
0
281
0
  0
ENDSEC
  0
SECTION
  2
TABLES
  0
TABLE
  2
VPORT
  5
8
330
0
100
AcDbSymbolTable
 70
1
  0
VPORT
  5
23
330
8
100
AcDbSymbolTableRecord
100
AcDbViewportTableRecord
  2
*Active
 70
0
 10
0.0
 20
0.0
 11
1.0
 21
1.0
 12
0.0
 22
0.0
 13
0.0
 23
0.0
 14
0.5
 24
0.5
 15
0.5
 25
0.5
 16
0.0
 26
0.0
 36
1.0
 17
0.0
 27
0.0
 37
0.0
 40
1000.0
 41
1.34
 42
50.0
 43
0.0
 44
0.0
 50
0.0
 51
0.0
 71
0
 72
1000
 73
1
 74
3
 75
0
 76
0
 77
0
 78
0
281
0
 65
0
146
0.0
  0
ENDTAB
  0
TABLE
  2
LTYPE
  5
2
330
0
100
AcDbSymbolTable
 70
3
  0
LTYPE
  5
24
330
2
100
AcDbSymbolTableRecord
100
AcDbLinetypeTableRecord
  2
ByBlock
 70
0
  3

 72
65
 73
0
 40
0.0
  0
LTYPE
  5
25
330
2
100
AcDbSymbolTableRecord
100
AcDbLinetypeTableRecord
  2
ByLayer
 70
0
  3

 72
65
 73
0
 40
0.0
  0
LTYPE
  5
26
330
2
100
AcDbSymbolTableRecord
100
AcDbLinetypeTableRecord
  2
Continuous
 70
0
  3

 72
65
 73
0
 40
0.0
  0
ENDTAB
  0
TABLE
  2
LAYER
  5
1
330
0
100
AcDbSymbolTable
 70
2
  0
LAYER
  5
27
330
1
100
AcDbSymbolTableRecord
100
AcDbLayerTableRecord
  2
0
 70
0
 62
7
  6
Continuous
370
-3
390
13
347
21
  0
LAYER
  5
28
330
1
100
AcDbSymbolTableRecord
100
AcDbLayerTableRecord
  2
Defpoints
 70
0
 62
7
  6
Continuous
290
0
370
-3
390
13
347
21
  0
ENDTAB
  0
TABLE
  2
STYLE
  5
5
330
0
100
AcDbSymbolTable
 70
1
  0
STYLE
  5
29
330
5
100
AcDbSymbolTableRecord
100
AcDbTextStyleTableRecord
  2
Standard
 70
0
 40
0.0
 41
1.0
 50
0.0
 71
0
 42
2.5
  3
txt
  4

  0
ENDTAB
  0
TABLE
  2
VIEW
  5
7
330
0
100
AcDbSymbolTable
 70
0
  0
ENDTAB
  0
TABLE
  2
UCS
  5
6
330
0
100
AcDbSymbolTable
 70
0
  0
ENDTAB
  0
TABLE
  2
APPID
  5
3
330
0
100
AcDbSymbolTable
 70
3
  0
APPID
  5
2A
330
3
100
AcDbSymbolTableRecord
100
AcDbRegAppTableRecord
  2
ACAD
 70
0
  0
APPID
  5
30
330
3
100
AcDbSymbolTableRecord
100
AcDbRegAppTableRecord
  2
HATCHBACKGROUNDCOLOR
 70
0
  0
APPID
  5
31
330
3
100
AcDbSymbolTableRecord
100
AcDbRegAppTableRecord
  2
EZDXF
 70
0
  0
ENDTAB
  0
TABLE
  2
DIMSTYLE
  5
4
330
0
100
AcDbSymbolTable
 70
1
100
AcDbDimStyleTable
  0
DIMSTYLE
105
2B
330
4
100
AcDbSymbolTableRecord
100
AcDbDimStyleTableRecord
  2
Standard
 70
0
 40
1.0
 41
2.5
 42
0.625
 43
3.75
 44
1.25
 45
0.0
 46
0.0
 47
0.0
 48
0.0
 49
2.5
140
2.5
141
2.5
142
0.0
143
0.03937007874
144
1.0
145
0.0
146
1.0
147
0.625
148
0.0
 69
0
 70
0
 71
0
 72
0
 73
0
 74
0
 75
0
 76
0
 77
1
 78
8
 79
3
170
0
171
3
172
1
173
0
174
0
175
0
176
0
177
0
178
0
179
2
271
2
272
2
273
2
274
3
275
0
276
0
277
2
278
44
279
0
280
0
281
0
282
0
283
0
284
8
285
0
286
0
288
0
289
3
290
0
371
-2
372
-2
  0
ENDTAB
  0
TABLE
  2
BLOCK_RECORD
  5
9
330
0
100
AcDbSymbolTable
 70
2
  0
BLOCK_RECORD
  5
17
330
9
100
AcDbSymbolTableRecord
100
AcDbBlockTableRecord
  2
*Model_Space
340
1A
 70
0
280
1
281
0
  0
BLOCK_RECORD
  5
1B
330
9
100
AcDbSymbolTableRecord
100
AcDbBlockTableRecord
  2
*Paper_Space
340
1E
 70
0
280
1
281
0
  0
ENDTAB
  0
ENDSEC
  0
SECTION
  2
BLOCKS
  0
BLOCK
  5
18
330
17
100
AcDbEntity
  8
0
100
AcDbBlockBegin
  2
*Model_Space
 70
0
 10
0.0
 20
0.0
 30
0.0
  3
*Model_Space
  1

  0
ENDBLK
  5
19
330
17
100
AcDbEntity
  8
0
100
AcDbBlockEnd
  0
BLOCK
  5
1C
330
1B
100
AcDbEntity
  8
0
100
AcDbBlockBegin
  2
*Paper_Space
 70
0
 10
0.0
 20
0.0
 30
0.0
  3
*Paper_Space
  1

  0
ENDBLK
  5
1D
330
1B
100
AcDbEntity
  8
0
100
AcDbBlockEnd
  0
ENDSEC
  0
SECTION
  2
ENTITIES
  0
LWPOLYLINE
  5
2F
330
17
100
AcDbEntity
  8
0
100
AcDbPolyline
 90
721
 70
1
 10
91.46986119460408
 20
36.79205792902481
 10
91.46688287853215
 20
36.79197022742438
 10
91.45805775735491
 20
36.791434078261304
 10
91.44360548514958
 20
36.78990339281204
 10
91.42327971269667
 20
36.78759630191908
 10
91.39751822491583
 20
36.78421306607834
 10
91.36612958610692
 20
36.77983529395139
 10
91.3290321876083
 20
36.77427154983809
 10
91.28649907378175
 20
36.76763166077699
 10
91.23844863596571
 20
36.75972419106794
 10
91.18463452494068
 20
36.75076727155341
 10
91.12543961210703
 20
36.74059768491021
 10
91.06072737528388
 20
36.729160517619036
 10
90.99044290095192
 20
36.7165922918608
 10
90.91469601614976
 20
36.70261996327372
 10
90.83337689383882
 20
36.68751657621955
 10
90.74667696971922
 20
36.67120052203671
 10
90.65445972161011
 20
36.65361688720592
 10
90.55667023599221
 20
36.63490219390805
 10
90.45355486208501
 20
36.61483831130062
 10
90.34486725066898
 20
36.593643370226125
 10
90.23071722878277
 20
36.57104432632278
 10
90.11126801374951
 20
36.54742405099094
 10
89.98616495254585
 20
36.52248128149185
 10
89.85581761171447
 20
36.49638075838339
 10
89.71995294689357
 20
36.46901265462696
 10
89.57870748026407
 20
36.440431883741866
 10
89.43208121182595
 20
36.41063844572811
 10
89.28001922805991
 20
36.379768862766575
 10
89.12252152896595
 20
36.347823134857265
 10
88.95969794158268
 20
36.31452821763839
 10
88.79143863887147
 20
36.28015715547175
 10
88.61793505653253
 20
36.24462833969572
 10
88.43899575886572
 20
36.20802337897194
 10
88.25473057290954
 20
36.17006922893858
 10
88.06516619380635
 20
36.13109384747675
 10
87.87024770803684
 20
36.09123375676733
 10
87.67013985615887
 20
36.05007939026764
 10
87.464596288953
 20
36.007848878820184
 10
87.2539449643003
 20
35.96451552728266
 10
87.03785792431967
 20
35.92010603079735
 10
86.81660821337289
 20
35.874730216402845
 10
86.59005930927911
 20
35.828333170579874
 10
86.3583477342192
 20
35.780969806847715
 10
86.12139187953152
 20
35.732448689506185
 10
85.87932826739699
 20
35.682824732074586
 10
85.63191054859617
 20
35.632316065395386
 10
85.37946668101007
 20
35.580895994326305
 10
85.12186014245783
 20
35.528509605348034
 10
84.85909093293945
 20
35.475156898460575
 10
84.59115905245496
 20
35.42083787366394
 10
84.3181461096659
 20
35.36574396665831
 10
84.03997049591068
 20
35.309683741743484
 10
83.75671381985093
 20
35.25284863461967
 10
83.46843099500593
 20
35.195102123105954
 10
83.17523184841427
 20
35.13617116284059
 10
82.87714307521824
 20
35.07638371170463
 10
82.57391832619835
 20
35.01595790054055
 10
82.26555760135462
 20
34.95489372934836
 10
81.95236216342585
 20
34.8928365451047
 10
81.63427709889265
 20
34.82992286999044
 10
81.31130240775512
 20
34.76615270400559
 10
80.98327334945536
 20
34.70193561369283
 10
80.65046449158982
 20
34.636588988147686
 10
80.31290252930076
 20
34.57044078525125
 10
79.97053254906895
 20
34.50362752718441
 10
79.6231631151942
 20
34.43623082260876
 10
79.27112218555752
 20
34.36822397638199
 10
78.91432815149739
 20
34.29941555280394
 10
78.55278101301376
 20
34.229805551874584
 10
78.18650746524901
 20
34.159721931475026
 10
77.81572716228021
 20
34.08861860288168
 10
77.4401937548879
 20
34.01671369693704
 10
77.06012537391464
 20
33.944253562860595
 10
76.67552201936036
 20
33.871238200652336
 10
76.2863569960828
 20
33.7973396524312
 10
75.89257539056266
 20
33.722694440378056
 10
75.49445024716167
 20
33.64741239153152
 10
75.09173521666038
 20
33.571711636734044
 10
74.68459503961671
 20
33.49518260944299
 10
74.2731662382115
 20
33.41788022317765
 10
73.85744881244479
 20
33.33980447793802
 10
73.43733293527798
 20
33.26122841808588
 10
73.01281860671102
 20
33.18215204362121
 10
72.58396074026327
 20
33.102438832363156
 10
72.15108729381573
 20
33.022062089169395
 10
71.71387030948743
 20
32.941048509182224
 10
71.27244630945917
 20
32.859453005920955
 10
70.82711655646978
 20
32.77692092636222
 10
70.37768961481903
 20
32.6935338791676
 10
69.92413726612999
 20
32.60975634439907
 10
69.46659603258347
 20
32.52564323557591
 10
69.00490269685632
 20
32.44081168129775
 10
68.5394950438682
 20
32.35496194206054
 10
68.07015341954194
 20
32.268640106587824
 10
67.59693273739678
 20
32.181709652698686
 10
67.11977808391352
 20
32.09430710257406
 10
66.63893580831157
 20
32.00621432537143
 10
66.15440591059094
 20
31.91743132109081
 10
65.66605186857076
 20
31.82790317621291
 10
65.17409181309348
 20
31.737876239957206
 10
64.67838922197825
 20
31.6472955988044
 10
64.17919044444454
 20
31.555943121912026
 10
63.676495480492314
 20
31.46381880928005
 10
63.1704408523025
 20
31.370977574427805
 10
62.660835124174916
 20
31.277501026016875
 10
62.14770499125182
 20
31.18371712192831
 10
61.63107867191024
 20
31.08916138210017
 10
61.11131081917355
 20
30.99413506927123
 10
60.588348042757154
 20
30.897982267679353
 10
60.062135429141755
 20
30.80083949950541
 10
59.532781282131204
 20
30.703226158330665
 10
59.00023068820626
 20
30.60527876633601
 10
58.464375343563006
 20
30.50647792994019
 10
57.9258711639636
 20
30.40677025885861
 10
57.38436349638466
 20
30.305854490352495
 10
56.83996064463007
 20
30.20425001800309
 10
56.29247117299967
 20
30.102038450472012
 10
55.74222303937452
 20
29.999193092616952
 10
55.18924446213162
 20
29.895249464375947
 10
54.63356213641325
 20
29.79053552363007
 10
54.075066235180834
 20
29.6853243147411
 10
53.51403132603086
 20
29.578933226804597
 10
52.95051232248261
 20
29.471225737639678
 10
52.38450770130138
 20
29.362994285189373
 10
51.81579933164472
 20
29.253992520234203
 10
51.244605344355044
 20
29.144466791993633
 10
50.67125522054821
 20
29.033597967382363
 10
50.09569404670486
 20
28.921522568581256
 10
49.51781199578643
 20
28.80851363995211
 10
48.937444327235006
 20
28.69498074803757
 10
48.35508373948958
 20
28.58048763115269
 10
47.770676842265566
 20
28.46437837353532
 10
47.1844684615477
 20
28.34722728228602
 10
46.595910985377756
 20
28.22960714127063
 10
46.005360590013794
 20
28.11102677528489
 10
45.413036929533
 20
27.99094009560526
 10
44.81910322125858
 20
27.869729973632115
 10
44.22323150730942
 20
27.74742310450773
 10
43.62563991852802
 20
27.624265837451595
 10
43.0262468462528
 20
27.500066736763532
 10
42.42529863970323
 20
27.374607671601055
 10
41.822931821060195
 20
27.247943555483463
 10
41.21900986814281
 20
27.120019474891457
 10
40.61380582531286
 20
26.990945256863636
 10
40.00704664820853
 20
26.860611074361397
 10
39.39889555415307
 20
26.729399798785128
 10
38.78940745666572
 20
26.597174907953924
 10
38.178856923343
 20
26.46325379096335
 10
37.567134127146275
 20
26.327909492175184
 10
36.954457198918064
 20
26.19138836080891
 10
36.34049818077728
 20
26.053717092006817
 10
35.725639944124275
 20
25.91473246844572
 10
35.10993740247839
 20
25.774297967944747
 10
34.493445469358875
 20
25.632277068323
 10
33.87605431772715
 20
25.48894281394225
 10
33.25784555624483
 20
25.344486640502684
 10
32.63881918491188
 20
25.19890854800431
 10
32.0192764664671
 20
25.05185388342375
 10
31.3991357922489
 20
24.903131211060835
 10
30.778588597957448
 20
24.75265892225396
 10
30.157606665215756
 20
24.60090149706509
 10
29.535888731285038
 20
24.448213588517596
 10
28.91381766756566
 20
24.294431979288287
 10
28.291696260031117
 20
24.138409578410773
 10
27.66919502756563
 20
23.980965518970375
 10
27.046532101011675
 20
23.82234615018658
 10
26.42368078522696
 20
23.662223514178315
 10
25.800695993730763
 20
23.500461088764684
 10
25.17768603032701
 20
23.337578267526958
 10
24.554569286354052
 20
23.173383614764933
 10
23.931647024550717
 20
23.007522477455257
 10
23.30878272273608
 20
22.83993994207863
 10
22.68619451175266
 20
22.670882357854545
 10
22.063827478081134
 20
22.500486246963867
 10
21.441846362279392
 20
22.328342042863945
 10
20.820196250828143
 20
22.154586267735674
 10
20.198958752388986
 20
21.979410357279228
 10
19.57783260422313
 20
21.80316896451798
 10
18.957420331808134
 20
21.62515278340519
 10
18.337721935143996
 20
21.445361813940863
 10
17.718682500711427
 20
21.263932578305887
 10
17.100247114991124
 20
21.081001598681148
 10
16.482607213683277
 20
20.89648726640506
 10
15.865571361087685
 20
20.710471190139206
 10
15.24946751508545
 20
20.5229266747413
 10
14.634405502715135
 20
20.333580675849557
 10
14.020330410457463
 20
20.142569715644875
 10
13.407187324793124
 20
19.950030316308137
 10
12.795031159241427
 20
19.755825955658455
 10
12.184244785202738
 20
19.559793416372653
 10
11.574581853457573
 20
19.362150829293206
 10
10.966069059148229
 20
19.16322615230118
 10
10.358844447690283
 20
18.962281860972848
 10
9.753071236406953
 20
18.759700826708578
 10
9.148584684740317
 20
18.55589261605103
 10
8.545413011067383
 20
18.350392748938237
 10
7.943939086788547
 20
18.143038008047043
 10
7.344053084865179
 20
17.934101437739198
 10
6.745728310155005
 20
17.723255080133637
 10
6.149127979981201
 20
17.510881806630735
 10
5.554225399201481
 20
17.296653659349413
 10
4.961238698658311
 20
17.080816987509156
 10
4.369730093432028
 20
16.86367153061403
 10
3.780082454923008
 20
16.64505407134086
 10
3.19251543720843
 20
16.42441852096609
 10
2.6069741267689994
 20
16.201901401670607
 10
2.0234303052277225
 20
15.977967193516376
 10
1.4419388861038893
 20
15.752479374322506
 10
0.8625547829167908
 20
15.525301421908111
 10
0.2854145178473251
 20
15.296488249792485
 10
-0.28972825832400184
 20
15.066257988818109
 10
-0.8628468504548893
 20
14.834938596866051
 10
-1.4335850822872545
 20
14.602038898732065
 10
-2.0018331267825085
 20
14.367285850054373
 10
-2.5677008109792587
 20
14.130952495194745
 10
-3.1311065262158904
 20
13.893230269853374
 10
-3.692186794673317
 20
13.654064260510953
 10
-4.250860007689929
 20
13.413645902867676
 10
-4.807044556604144
 20
13.172166632623721
 10
-5.360657309519656
 20
12.929025447536247
 10
-5.911561744255584
 20
12.684277261124546
 10
-6.459895906227523
 20
12.438659597812354
 10
-7.005686490577763
 20
12.191844499718599
 10
-7.548605539425239
 20
11.943805271700988
 10
-8.088926097131724
 20
11.694432086720925
 10
-8.626375119335432
 20
11.44383477181701
 10
-9.160925910894091
 20
11.192341284870306
 10
-9.692906429688755
 20
10.939978321023114
 10
-10.221905585942059
 20
10.68611818289029
 10
-10.747979816408009
 20
10.431689830595749
 10
-11.271375470306072
 20
10.176911394981982
 10
-11.791899588701384
 20
9.920908829444352
 10
-12.309142605051258
 20
9.663846874540765
 10
-12.823405782094488
 20
9.40608018329457
 10
-13.334744033350358
 20
9.147745277886665
 10
-13.843047531780277
 20
8.888569113955276
 10
-14.34809814654177
 20
8.628798040719879
 10
-14.850168921996616
 20
8.368322231141882
 10
-15.349151554340922
 20
8.107661078802542
 10
-15.844936216536102
 20
7.846541539340081
 10
-16.337467995062855
 20
7.584827090573618
 10
-16.82680180344048
 20
7.322654254684036
 10
-17.312910946526678
 20
7.060350989552408
 10
-17.795931946502343
 20
6.797862381659437
 10
-18.275481931967104
 20
6.535025213681942
 10
-18.751560902920957
 20
6.271839485619922
 10
-19.224250468025495
 20
6.0081137617731954
 10
-19.693469018619137
 20
5.744039477841941
 10
-20.159381295259763
 20
5.480026200368827
 10
-20.62190568928578
 20
5.2162653650540385
 10
-21.080822546620006
 20
4.952210883174019
 10
-21.53626838944333
 20
4.6878078412094775
 10
-21.98777873769379
 20
4.423084457537414
 10
-22.43579137629105
 20
4.158340471661899
 10
-22.880361218754416
 20
3.8937124057638197
 10
-23.3212152207221
 20
3.6293100868817727
 10
-23.758298468674813
 20
3.3649969928348638
 10
-24.191582744235546
 20
3.100308643561138
 10
-24.62115117930061
 20
2.8358460413034443
 10
-25.047168514427888
 20
2.5720187526044387
 10
-25.469223659840008
 20
2.3081990800789876
 10
-25.887453137717852
 20
2.044332110207793
 10
-26.30169373073825
 20
1.7808007143912175
 10
-26.71208196108209
 20
1.5175499791099698
 10
-27.118672742268664
 20
1.2547164265449358
 10
-27.521164811559185
 20
0.9919454036727527
 10
-27.91966799599226
 20
0.7295099548551897
 10
-28.314182295567882
 20
0.4674100800922535
 10
-28.704927364363243
 20
0.20619186810748918
 10
-29.09157524449727
 20
-0.054171376241394134
 10
-29.47423423977385
 20
-0.31419904653565556
 10
-29.852658000973488
 20
-0.5741092736177684
 10
-30.226929659992503
 20
-0.83330105524489
 10
-30.59729556605037
 20
-1.0915562605745435
 10
-30.963399542889007
 20
-1.3493660648109764
 10
-31.325214895366127
 20
-1.6064025100731203
 10
-31.683069581362794
 20
-1.8626389012186808
 10
-32.03669055651724
 20
-2.1179654112090627
 10
-32.385913080271585
 20
-2.3727916065869348
 10
-32.7309018931837
 20
-2.6267079208096265
 10
-33.0717119087729
 20
-2.8795778316962544
 10
-33.40828821351985
 20
-3.1315378614277036
 10
-33.74049428524372
 20
-3.38253309648468
 10
-34.06827521042516
 20
-3.632700059048067
 10
-34.3918224247644
 20
-3.881957140456278
 10
-34.71086288389963
 20
-4.130194513670721
 10
-35.02550641486946
 20
-4.377139134329615
 10
-35.33591623499707
 20
-4.623173873833331
 10
-35.641682777739796
 20
-4.868133991623981
 10
-35.94288765175922
 20
-5.112210923401745
 10
-36.239750511132556
 20
-5.354858580443079
 10
-36.53227135585976
 20
-5.596076962747973
 10
-36.820203836721404
 20
-5.836084201158916
 10
-37.10349304019815
 20
-6.075016817856792
 10
-37.38222057495161
 20
-6.313066248541781
 10
-37.65638796421648
 20
-6.549440055270855
 10
-37.92607681665436
 20
-6.7843296737442
 10
-38.191177305226645
 20
-7.018008148323586
 10
-38.45155290775246
 20
-7.250420565489722
 10
-38.707313451270394
 20
-7.481293880880828
 10
-38.95834910874186
 20
-7.710901138858685
 10
-39.204714793686136
 20
-7.939105817242397
 10
-39.44646541962255
 20
-8.165771393851086
 10
-39.68335463733158
 20
-8.391115999527221
 10
-39.915547187371146
 20
-8.614730067728145
 10
-40.14295993784496
 20
-8.837214600696706
 10
-40.36567602064928
 20
-9.057968596190051
 10
-40.58364052226484
 20
-9.277128576389075
 10
-40.79679852917233
 20
-9.494831063474658
 10
-41.00501351919087
 20
-9.711021143927507
 10
-41.208476928020644
 20
-9.925617209086035
 10
-41.407216974038654
 20
-10.138154778888275
 10
-41.60112383020631
 20
-10.348906897696006
 10
-41.7901974965236
 20
-10.55787356550923
 10
-41.97462940869071
 20
-10.764973173666352
 10
-42.15409160882658
 20
-10.970232417309665
 10
-42.32883044615069
 20
-11.1734331655967
 10
-42.49881922552075
 20
-11.374247460646377
 10
-42.664194469117625
 20
-11.57273021597799
 10
-42.824709827721854
 20
-11.769099562434027
 10
-42.980556737033616
 20
-11.963273891352893
 10
-43.13146215269113
 20
-12.155143375695987
 10
-43.27780894609477
 20
-12.344544798140138
 10
-43.419378986402066
 20
-12.531231809465861
 10
-43.55619896875531
 20
-12.715532367554228
 10
-43.688268893154486
 20
-12.897446472405239
 10
-43.8155887595996
 20
-13.07697412401889
 10
-43.938131872948375
 20
-13.253787364514116
 10
-44.055898233200786
 20
-13.427886193890911
 10
-44.168859621979855
 20
-13.599735092211239
 10
-44.27704425766257
 20
-13.76886957941314
 10
-44.38023248617174
 20
-13.935835744220162
 10
-44.47864396158456
 20
-14.100087497908753
 10
-44.57205902982385
 20
-14.262170929202469
 10
-44.660587517928185
 20
-14.421812993739533
 10
-44.744229425897586
 20
-14.57901369151994
 10
-44.822793318031835
 20
-14.733854631205286
 10
-44.89666206573134
 20
-14.886172595472386
 10
-44.965261361895536
 20
-15.036212410306016
 10
-45.02911060010565
 20
-15.183865771902287
 10
-45.08788182248066
 20
-15.329159375403501
 10
-45.14173976957842
 20
-15.471683654266984
 10
-45.19071113654124
 20
-15.611766566373817
 10
-45.23471431470752
 20
-15.74921667602381
 10
-45.27396895815445
 20
-15.883487894493415
 10
-45.30844684850504
 20
-16.01504470184459
 10
-45.33812129061698
 20
-16.14355914019627
 10
-45.36310211152887
 20
-16.26875816518667
 10
-45.38360896531789
 20
-16.390095688092245
 10
-45.39964185198406
 20
-16.507571708913
 10
-45.411447120746836
 20
-16.62096809680645
 10
-45.419026294840954
 20
-16.72949241382956
 10
-45.422735550524465
 20
-16.832653484778092
 10
-45.423260545171246
 20
-16.929141001362453
 10
-45.4207126290546
 20
-17.01788948127784
 10
-45.41610694066415
 20
-17.09676948314936
 10
-45.41045861848956
 20
-17.163651565602102
 10
-45.40481254263217
 20
-17.215149369256174
 10
-45.4006780732553
 20
-17.247904753108685
 10
-45.0523196928647
 20
-18.121461368027145
 10
-45.04692518194369
 20
-18.127380642385763
 10
-45.03079656269995
 20
-18.14500194328072
 10
-45.00415348921067
 20
-18.173779181988483
 10
-44.965925909466925
 20
-18.215978322064828
 10
-44.91523368392523
 20
-18.274576156346996
 10
-44.854795793408165
 20
-18.34241861790953
 10
-44.78617803483304
 20
-18.41521860562563
 10
-44.71036732831249
 20
-18.49131115818235
 10
-44.628380335570874
 20
-18.567774396261754
 10
-44.54057475610098
 20
-18.643324706716562
 10
-44.447498201861045
 20
-18.71738930568093
 10
-44.34923380474739
 20
-18.789367190912007
 10
-44.246001218837215
 20
-18.858712273686248
 10
-44.137910271169076
 20
-18.92515150964188
 10
-44.024960961743
 20
-18.98868489877889
 10
-43.907344726259176
 20
-19.049230832435704
 10
-43.785034869575306
 20
-19.10646135273124
 10
-43.65797647817208
 20
-19.16051298184639
 10
-43.52636098774969
 20
-19.211304111119563
 10
-43.38994204908865
 20
-19.25905287139323
 10
-43.24877457570828
 20
-19.303622740486514
 10
-43.10324143900892
 20
-19.34485050107623
 10
-42.952768331890034
 20
-19.38298097914715
 10
-42.79781973441357
 20
-19.41804239307627
 10
-42.63806768869847
 20
-19.450061438005896
 10
-42.4737036304449
 20
-19.47895650527443
 10
-42.30478247317217
 20
-19.504591072700983
 10
-42.13113947632238
 20
-19.527374706828223
 10
-41.95288446693414
 20
-19.54703436329437
 10
-41.76979779093025
 20
-19.564116130822978
 10
-41.5820441888686
 20
-19.57821044287138
 10
-41.38965035589149
 20
-19.589645257320658
 10
-41.19247976981803
 20
-19.5983656606515
 10
-40.990422603609616
 20
-19.60464469722569
 10
-40.78367029296645
 20
-19.60840075838164
 10
-40.57216792436922
 20
-19.60977036630023
 10
-40.35591549781793
 20
-19.608753520981463
 10
-40.13461175057381
 20
-19.60570487544871
 10
-39.90858464051794
 20
-19.60059773455967
 10
-39.677616036807805
 20
-19.59318574909486
 10
-39.44197898380521
 20
-19.583578746092883
 10
-39.20142713229067
 20
-19.571994856396216
 10
-38.956097004445056
 20
-19.558488993524143
 10
-38.7059069916068
 20
-19.542869721776494
 10
-38.451103442995375
 20
-19.524918910310788
 10
-38.191494922910586
 20
-19.50471816778861
 10
-37.92729956219494
 20
-19.482513843429444
 10
-37.65838083866751
 20
-19.45825102371399
 10
-37.384738752328325
 20
-19.43192970864226
 10
-37.10653804373526
 20
-19.40314033167158
 10
-36.823915235069215
 20
-19.371937806321252
 10
-36.5367338041493
 20
-19.338267219071977
 10
-36.245020446117806
 20
-19.30245652780482
 10
-35.94877516097472
 20
-19.264505732519797
 10
-35.64821760279724
 20
-19.223868744493345
 10
-35.343374466727674
 20
-19.18087352160654
 10
-35.03416414410442
 20
-19.1353286281592
 10
-34.72053172140817
 20
-19.087370586332213
 10
-34.402613720819836
 20
-19.03705430964487
 10
-34.08046505585869
 20
-18.984243275916285
 10
-33.75403081300544
 20
-18.92907400732735
 10
-33.423310992260106
 20
-18.871546503878065
 10
-33.08836050714197
 20
-18.811524243387538
 10
-32.74926096631262
 20
-18.749198661555955
 10
-32.40601236977206
 20
-18.684569758383315
 10
-32.05853310885869
 20
-18.617446098169438
 10
-31.706986400895705
 20
-18.548210552314686
 10
-31.35129063722151
 20
-18.476671685118877
 10
-30.991390904316816
 20
-18.402966018762907
 10
-30.62747863788178
 20
-18.327011944585173
 10
-30.259718578474327
 20
-18.248399896043022
 10
-29.887945985536547
 20
-18.16753943967911
 10
-29.51191450984896
 20
-18.08464870633592
 10
-29.132088631473525
 20
-17.99975591439045
 10
-28.748305133087072
 20
-17.912478192442336
 10
-28.360618928208883
 20
-17.822679018310684
 10
-27.96919323416215
 20
-17.730741263395874
 10
-27.57383661524668
 20
-17.636746536359485
 10
-27.174658898501075
 20
-17.54042179283975
 10
-26.771796606106218
 20
-17.441821946355965
 10
-26.3653046515814
 20
-17.340810474727235
 10
-25.955018294368738
 20
-17.237796944496232
 10
-25.54104736150683
 20
-17.132508311301176
 10
-25.123282025957078
 20
-17.025217619503845
 10
-24.702160072639142
 20
-16.91562512960017
 10
-24.277353543671957
 20
-16.803757536732437
 10
-23.848998961236408
 20
-16.689669754419953
 10
-23.41717793399408
 20
-16.5735532183629
 10
-22.981863766802697
 20
-16.4550799706802
 10
-22.543083154804528
 20
-16.334577969252933
 10
-22.101027533699774
 20
-16.211965605419508
 10
-21.655533686165253
 20
-16.08686000777955
 10
-21.20687465656274
 20
-15.959371003371658
 10
-20.754885704334335
 20
-15.829908158738489
 10
-20.29956682948005
 20
-15.698471473880048
 10
-19.84091803199987
 20
-15.565060948796337
 10
-19.379240574632586
 20
-15.429321930463985
 10
-18.91464428441679
 20
-15.290981374521218
 10
-18.44677298509441
 20
-15.150530456172294
 10
-17.97589972102721
 20
-15.008079002455805
 10
-17.501997797072903
 20
-14.863299055490671
 10
-17.02531356245097
 20
-14.715972484434426
 10
-16.545682276603525
 20
-14.566508855829724
 10
-16.063130634672852
 20
-14.41523612755764
 10
-15.577631941516664
 20
-14.261826341737102
 10
-15.08935093769285
 20
-14.105869931825449
 10
-14.598450840524588
 20
-13.947749769223048
 10
-14.104876736492585
 20
-13.787602376110785
 10
-13.608355581235068
 20
-13.625317925450071
 10
-13.10935185481399
 20
-13.460924635617904
 10
-12.607838862087068
 20
-13.294094548733218
 10
-12.103816603054288
 20
-13.124827664796006
 10
-11.597366686377246
 20
-12.953315419506458
 10
-11.088214544459467
 20
-12.78024042376901
 10
-10.576661440039716
 20
-12.605248024560296
 10
-10.062790505014299
 20
-12.427737219637468
 10
-9.546546825863917
 20
-12.247844531181414
 10
-9.028203446950348
 20
-12.065679786230731
 10
-8.507404192015514
 20
-11.88173415998967
 10
-7.984395410278898
 20
-11.69578952161575
 10
-7.459177101740498
 20
-11.507845871108975
 10
-6.931859093438913
 20
-11.317630164107568
 10
-6.402386471854836
 20
-11.125278922792418
 10
-5.8709224543114615
 20
-10.931175018563893
 10
-5.337303823485604
 20
-10.734935580021626
 10
-4.801913450777624
 20
-10.536397389842433
 10
-4.2646964226682265
 20
-10.3356969702072
 10
-3.7255978256381264
 20
-10.132970843296823
 10
-3.1845360510257175
 20
-9.928027573411107
 10
-2.642030492412279
 20
-9.720758856746178
 10
-2.097999541136192
 20
-9.510973257601846
 10
-1.551977193900802
 20
-9.299434995544134
 10
-1.0042914085871817
 20
-9.086117375430758
 10
-0.45540818849199294
 20
-8.870256177695685
 10
0.09511025130441261
 20
-8.652151141842985
 10
0.6471823021404682
 20
-8.431993703572841
 10
1.2004250926157891
 20
-8.209620645562074
 10
1.7550567535728545
 20
-7.984785618591202
 10
2.310804240649896
 20
-7.757598449698819
 10
2.868023730104985
 20
-7.528550314089177
 10
3.4264688727186363
 20
-7.297423080919797
 10
3.9857285787134886
 20
-7.063589052805543
 10
4.546104110828309
 20
-6.827402882769777
 10
5.1076786009594075
 20
-6.589465573055343
 10
5.670150786367991
 20
-6.349422470638885
 10
6.23360227571567
 20
-6.107082139820209
 10
6.79800637386013
 20
-5.862772538480393
 10
7.363143426724196
 20
-5.615947577895886
 10
7.929013434307873
 20
-5.366607258066683
 10
8.495699528507453
 20
-5.115352581235634
 10
9.063120100661342
 20
-4.862374983102927
 10
9.631356759431139
 20
-4.6074830279683745
 10
10.200108242078056
 20
-4.350322062808614
 10
10.769484375640694
 20
-4.0911651319854165
 10
11.33948516011906
 20
-3.8300122354987796
 10
11.909974073332252
 20
-3.566918286868006
 10
12.480786374722385
 20
-3.3014737195504313
 10
13.052031891328053
 20
-3.03395157790783
 10
13.623657232864671
 20
-2.765007777702349
 10
14.195880530174708
 20
-2.494395969714505
 10
14.768263998338513
 20
-2.221816414440227
 10
15.34099907305626
 20
-1.9473507205411087
 10
15.913812709966182
 20
-1.6711087150557404
 10
16.486896344768443
 20
-1.3931720066457212
 10
17.06019506394378
 20
-1.1134040731301484
 10
17.63349073664969
 20
-0.8320512637285185
 10
18.20702971210565
 20
-0.5493317092833047
 10
18.780757076792394
 20
-0.2651088876136129
 10
19.354344872828815
 20
0.020643896422839533
 10
19.927984535915115
 20
0.3078450341644685
 10
20.501649370908996
 20
0.5961665677302004
 10
21.07525624591416
 20
0.8862094993628832
 10
21.648641943607434
 20
1.1775909576621495
 10
22.221916291027398
 20
1.4700378982662212
 10
22.795024374654766
 20
1.7636868433559885
 10
23.367856367450923
 20
2.058810837293218
 10
23.940522096454497
 20
2.3551368357161486
 10
24.512858344342277
 20
2.652281967224399
 10
25.08489180625657
 20
2.950574189699048
 10
25.656650700574374
 20
3.249549023078136
 10
26.22797028673781
 20
3.549616033904322
 10
26.798795651227568
 20
3.850911744358496
 10
27.369236621082248
 20
4.153163110078881
 10
27.939184892497956
 20
4.45585073748422
 10
28.5087769876556
 20
4.759029540093815
 10
29.077711643816393
 20
5.06305417093103
 10
29.64604377449962
 20
5.367788107814972
 10
30.213773379705284
 20
5.673231350745644
 10
30.780955372952707
 20
5.979247377542166
 10
31.347261796360783
 20
6.285862883346819
 10
31.912884085629727
 20
6.5929962594980225
 10
32.477740632097905
 20
6.9004560702955775
 10
33.04207778498485
 20
7.208024184897027
 10
33.60540284585156
 20
7.51613686498731
 10
34.167770728217356
 20
7.824657588385546
 10
34.729592521859594
 20
8.132958657706594
 10
35.29026570130073
 20
8.441749378997185
 10
35.84973535302148
 20
8.751166274438209
 10
36.40846748031848
 20
9.060445124463632
 10
36.96629886586856
 20
9.369203057673092
 10
37.52303655073683
 20
9.678314120671203
 10
38.078598926261705
 20
9.987586877757781
 10
38.6328494702623
 20
10.296966415413543
 10
39.18603453195808
 20
10.606234602795993
 10
39.73807250268745
 20
10.915200004204953
 10
40.28901829596975
 20
11.223726097459542
 10
40.83862556258544
 20
11.532031013402229
 10
41.38678447549596
 20
11.840387796394788
 10
41.93365977525921
 20
12.148386879894572
 10
42.479251461875165
 20
12.456028263901564
 10
43.02334140450136
 20
12.763065599196286
 10
43.56620264749957
 20
13.069608712817336
 10
44.107397405950124
 20
13.375957344268786
 10
44.646980593372334
 20
13.681974971369737
 10
45.185226777362644
 20
13.986978983215757
 10
45.72208104440181
 20
14.291105901987741
 10
46.25716052308944
 20
14.59451894500886
 10
46.79079317130659
 20
14.897191417136822
 10
47.322651031172214
 20
15.199150013513925
 10
47.85287062486719
 20
15.500449647659462
 10
48.38142525724921
 20
15.800762361692364
 10
48.9081784061374
 20
16.100033242093332
 10
49.43337642075126
 20
16.398044158019886
 10
49.95658151617108
 20
16.695094848976094
 10
50.47806673675868
 20
16.99129514200056
 10
50.997504124632954
 20
17.286671732235572
 10
51.515223160909706
 20
17.580405486595794
 10
52.031087323408045
 20
17.872441491561947
 10
52.54504017537394
 20
18.16370870725793
 10
53.056617236745474
 20
18.45417891530676
 10
53.566530860038775
 20
18.742869765299925
 10
54.07445308737276
 20
19.029807952379706
 10
54.58016426467026
 20
19.315539565269674
 10
55.08366439193125
 20
19.600064603969802
 10
55.58500838267507
 20
19.883246546299233
 10
56.08447080449815
 20
20.164402781353502
 10
56.58166878600017
 20
20.443696526455803
 10
57.076710630985
 20
20.7216471751874
 10
57.56932329509085
 20
20.998144900509686
 10
58.059616605356325
 20
21.272916658060893
 10
58.54770038882002
 20
21.545689403479244
 10
59.033464818443335
 20
21.81673618112651
 10
59.51677337204537
 20
22.086002077483396
 10
59.99787239884563
 20
22.353268961707425
 10
60.476488854482355
 20
22.618427006760015
 10
60.9525945205785
 20
22.881940692703107
 10
61.42591635277231
 20
23.14370019249811
 10
61.896973744645045
 20
23.403597202341146
 10
62.36533043451173
 20
23.66113902379325
 10
62.831259466734195
 20
23.916435483893025
 10
63.29470592779306
 20
24.16962310482134
 10
63.75528694628802
 20
24.42086510390138
 10
64.21305743573832
 20
24.670024958952276
 10
64.6683453540251
 20
24.917075974831715
 10
65.12079604812496
 20
25.161716888800935
 10
65.57065586725734
 20
25.403729570017433
 10
66.01762354868353
 20
25.643468671504596
 10
66.4617807010651
 20
25.88112562896261
 10
66.90304571574042
 20
26.116509006691267
 10
67.34141859270953
 20
26.349618804690586
 10
67.77692755034943
 20
26.579990542898614
 10
68.20954437028311
 20
26.808088701377294
 10
68.63905092166809
 20
27.033666930907152
 10
69.06547389964666
 20
27.257053189369262
 10
69.4889780447767
 20
27.477837910220945
 10
69.90948174839669
 20
27.69582965776205
 10
70.32682026994866
 20
27.911437998535206
 10
70.7409936094326
 20
28.124662932540424
 10
71.15200176684857
 20
28.335504459777717
 10
71.55968152487338
 20
28.5435797088467
 10
71.96441575490735
 20
28.748725462424193
 10
72.36579336717318
 20
28.95156941789535
 10
72.76373275300921
 20
29.151920139559966
 10
73.15837043459639
 20
29.34983254093736
 10
73.54967971679235
 20
29.544978664146445
 10
73.93746916389699
 20
29.73744011784882
 10
74.32195690675273
 20
29.927463251263955
 10
74.70303464155573
 20
30.11452867081061
 10
75.08059254126732
 20
30.29890942085054
 10
75.45468551940688
 20
30.480468979202872
 10
75.82514883541647
 20
30.659616912410264
 10
76.19209231633471
 20
30.836080176110947
 10
76.55537943998071
 20
31.00980385678562
 10
76.91506511987376
 20
31.18065143225339
 10
77.27123096467542
 20
31.34881433821444
 10
77.62354901650465
 20
31.514319269811068
 10
77.97201927536149
 20
31.677166227043287
 10
78.31683317694605
 20
31.837273601249493
 10
78.65804563477768
 20
31.994504870248797
 10
78.99521886393669
 20
32.14915977354527
 10
79.32848938660392
 20
32.301293224658195
 10
79.65802194333736
 20
32.45049565704495
 10
79.98362509843676
 20
32.59684867936708
 10
80.3051890248636
 20
32.7406253359864
 10
80.62296007183723
 20
32.881607496060404
 10
80.93672010851527
 20
33.019548810369606
 10
81.24649583004002
 20
33.1547772367951
 10
81.55223232289212
 20
33.28742929751777
 10
81.8537930648907
 20
33.41745007901829
 10
82.15128788307439
 20
33.544566536934916
 10
82.44466186392391
 20
33.66891519344854
 10
82.7338051804006
 20
33.79076909292091
 10
83.01877274602377
 20
33.909991713171166
 10
83.29953786565119
 20
34.02625509631822
 10
83.57610053928276
 20
34.13955924236207
 10
83.84837763502223
 20
34.25050515354556
 10
84.11628754420802
 20
34.35890139416852
 10
84.37983026684013
 20
34.464747964230945
 10
84.63906071643787
 20
34.56790834155194
 10
84.89384237082031
 20
34.66832761261222
 10
85.14431175216833
 20
34.76606069093106
 10
85.39022251126254
 20
34.86132570735097
 10
85.63168447514143
 20
34.95384961751016
 10
85.86858781676645
 20
35.04390546577039
 10
86.10117888535707
 20
35.131275121289214
 10
86.32907480951296
 20
35.216121801389775
 10
86.55235719789567
 20
35.298636941772294
 10
86.77094444184361
 20
35.378629106736554
 10
86.98502797705694
 20
35.45601668762098
 10
87.19436145431628
 20
35.53101781526806
 10
87.39919122284101
 20
35.60341435883531
 10
87.5990794977115
 20
35.67350605782678
 10
87.7943542368088
 20
35.74126621710018
 10
87.98474239577118
 20
35.80658500961695
 10
88.1703804967795
 20
35.86951734889636
 10
88.35126853983375
 20
35.930063234938416
 10
88.52735161141466
 20
35.988359189924
 10
88.69854810286061
 20
36.04421377815292
 10
88.86474818713305
 20
36.097900043986975
 10
89.02614329993212
 20
36.14933637876455
 10
89.18254200555762
 20
36.198604391147256
 10
89.33399921752891
 20
36.24556755895419
 10
89.48046002232665
 20
36.290362404366256
 10
89.62197933347016
 20
36.33285240520254
 10
89.7585022374401
 20
36.37317408364395
 10
89.88991890719794
 20
36.41160048405227
 10
90.01620264760133
 20
36.4478036485464
 10
90.13757158949281
 20
36.482029926345845
 10
90.25356125281036
 20
36.5142510990736
 10
90.36463611761592
 20
36.54449538510663
 10
90.47052313954781
 20
36.5726529574064
 10
90.57111249156735
 20
36.59899686033464
 10
90.66659560937477
 20
36.62344548522979
 10
90.75683597078917
 20
36.645943918572534
 10
90.84172374877195
 20
36.66676520472465
 10
90.9215052925426
 20
36.68569121284367
 10
90.99593425288163
 20
36.702940073772055
 10
91.06506554330835
 20
36.71837526532892
 10
91.12878933678415
 20
36.732269831876074
 10
91.18716054682835
 20
36.74448725123259
 10
91.24026078210251
 20
36.755218959098656
 10
91.28781699824488
 20
36.76435512843569
 10
91.32991080391706
 20
36.772087194943886
 10
91.36667872129989
 20
36.778470072142525
 10
91.39784770603161
 20
36.78339393299301
 10
91.42344445325456
 20
36.787186735376416
 10
91.44366039866887
 20
36.789766870631155
 10
91.4581126708742
 20
36.791297556080416
 10
91.46688287853215
 20
36.79197022742438
 10
91.46986119460408
 20
36.79205792902481
  0
ENDSEC
  0
SECTION
  2
OBJECTS
  0
DICTIONARY
  5
A
330
0
100
AcDbDictionary
280
0
281
1
  3
ACAD_COLOR
350
B
  3
ACAD_GROUP
350
C
  3
ACAD_LAYOUT
350
D
  3
ACAD_MATERIAL
350
E
  3
ACAD_MLEADERSTYLE
350
F
  3
ACAD_MLINESTYLE
350
10
  3
ACAD_PLOTSETTINGS
350
11
  3
ACAD_PLOTSTYLENAME
350
12
  3
ACAD_SCALELIST
350
14
  3
ACAD_TABLESTYLE
350
15
  3
ACAD_VISUALSTYLE
350
16
  3
EZDXF_META
350
2D
  0
DICTIONARY
  5
B
330
A
100
AcDbDictionary
280
0
281
1
  0
DICTIONARY
  5
C
330
A
100
AcDbDictionary
280
0
281
1
  0
DICTIONARY
  5
D
330
A
100
AcDbDictionary
280
0
281
1
  3
Model
350
1A
  3
Layout1
350
1E
  0
DICTIONARY
  5
E
330
A
100
AcDbDictionary
280
0
281
1
  3
ByBlock
350
1F
  3
ByLayer
350
20
  3
Global
350
21
  0
DICTIONARY
  5
F
330
A
100
AcDbDictionary
280
0
281
1
  3
Standard
350
2C
  0
DICTIONARY
  5
10
330
A
100
AcDbDictionary
280
0
281
1
  3
Standard
350
22
  0
DICTIONARY
  5
11
330
A
100
AcDbDictionary
280
0
281
1
  0
ACDBDICTIONARYWDFLT
  5
12
330
A
100
AcDbDictionary
280
0
281
1
  3
Normal
350
13
100
AcDbDictionaryWithDefault
340
13
  0
ACDBPLACEHOLDER
  5
13
330
12
  0
DICTIONARY
  5
14
330
A
100
AcDbDictionary
280
0
281
1
  0
DICTIONARY
  5
15
330
A
100
AcDbDictionary
280
0
281
1
  0
DICTIONARY
  5
16
330
A
100
AcDbDictionary
280
0
281
1
  0
LAYOUT
  5
1A
330
D
100
AcDbPlotSettings
  1

  4
A3
  6

 40
7.5
 41
20.0
 42
7.5
 43
20.0
 44
420.0
 45
297.0
 46
0.0
 47
0.0
 48
0.0
 49
0.0
140
0.0
141
0.0
142
1.0
143
1.0
 70
1024
 72
1
 73
0
 74
5
  7

 75
16
 76
0
 77
2
 78
300
147
1.0
148
0.0
149
0.0
100
AcDbLayout
  1
Model
 70
1
 71
0
 10
0.0
 20
0.0
 11
420.0
 21
297.0
 12
0.0
 22
0.0
 32
0.0
 14
1e+20
 24
1e+20
 34
1e+20
 15
-1e+20
 25
-1e+20
 35
-1e+20
146
0.0
 13
0.0
 23
0.0
 33
0.0
 16
1.0
 26
0.0
 36
0.0
 17
0.0
 27
1.0
 37
0.0
 76
1
330
17
  0
LAYOUT
  5
1E
330
D
100
AcDbPlotSettings
  1

  4
A3
  6

 40
7.5
 41
20.0
 42
7.5
 43
20.0
 44
420.0
 45
297.0
 46
0.0
 47
0.0
 48
0.0
 49
0.0
140
0.0
141
0.0
142
1.0
143
1.0
 70
0
 72
1
 73
0
 74
5
  7

 75
16
 76
0
 77
2
 78
300
147
1.0
148
0.0
149
0.0
100
AcDbLayout
  1
Layout1
 70
1
 71
1
 10
0.0
 20
0.0
 11
420.0
 21
297.0
 12
0.0
 22
0.0
 32
0.0
 14
1e+20
 24
1e+20
 34
1e+20
 15
-1e+20
 25
-1e+20
 35
-1e+20
146
0.0
 13
0.0
 23
0.0
 33
0.0
 16
1.0
 26
0.0
 36
0.0
 17
0.0
 27
1.0
 37
0.0
 76
1
330
1B
  0
MATERIAL
  5
1F
102
{ACAD_REACTORS
330
E
102
}
330
E
100
AcDbMaterial
  1
ByBlock
  2

 70
0
 40
1.0
 71
1
 41
1.0
 91
-1023410177
 42
1.0
 72
1
  3

 73
1
 74
1
 75
1
 44
0.5
 73
0
 45
1.0
 46
1.0
 77
1
  4

 78
1
 79
1
170
1
 48
1.0
171
1
  6

172
1
173
1
174
1
140
1.0
141
1.0
175
1
  7

176
1
177
1
178
1
143
1.0
179
1
  8

270
1
271
1
272
1
145
1.0
146
1.0
273
1
  9

274
1
275
1
276
1
 42
1.0
 72
1
  3

 73
1
 74
1
 75
1
 94
63
  0
MATERIAL
  5
20
102
{ACAD_REACTORS
330
E
102
}
330
E
100
AcDbMaterial
  1
ByLayer
  2

 70
0
 40
1.0
 71
1
 41
1.0
 91
-1023410177
 42
1.0
 72
1
  3

 73
1
 74
1
 75
1
 44
0.5
 73
0
 45
1.0
 46
1.0
 77
1
  4

 78
1
 79
1
170
1
 48
1.0
171
1
  6

172
1
173
1
174
1
140
1.0
141
1.0
175
1
  7

176
1
177
1
178
1
143
1.0
179
1
  8

270
1
271
1
272
1
145
1.0
146
1.0
273
1
  9

274
1
275
1
276
1
 42
1.0
 72
1
  3

 73
1
 74
1
 75
1
 94
63
  0
MATERIAL
  5
21
102
{ACAD_REACTORS
330
E
102
}
330
E
100
AcDbMaterial
  1
Global
  2

 70
0
 40
1.0
 71
1
 41
1.0
 91
-1023410177
 42
1.0
 72
1
  3

 73
1
 74
1
 75
1
 44
0.5
 73
0
 45
1.0
 46
1.0
 77
1
  4

 78
1
 79
1
170
1
 48
1.0
171
1
  6

172
1
173
1
174
1
140
1.0
141
1.0
175
1
  7

176
1
177
1
178
1
143
1.0
179
1
  8

270
1
271
1
272
1
145
1.0
146
1.0
273
1
  9

274
1
275
1
276
1
 42
1.0
 72
1
  3

 73
1
 74
1
 75
1
 94
63
  0
MLINESTYLE
  5
22
102
{ACAD_REACTORS
330
10
102
}
330
10
100
AcDbMlineStyle
  2
Standard
 70
0
  3

 62
256
 51
90.0
 52
90.0
 71
2
 49
0.5
 62
256
  6
BYLAYER
 49
-0.5
 62
256
  6
BYLAYER
  0
MLEADERSTYLE
  5
2C
102
{ACAD_REACTORS
330
F
102
}
330
F
100
AcDbMLeaderStyle
179
2
170
2
171
1
172
0
 90
2
 40
0.0
 41
0.0
173
1
 91
-1056964608
 92
-2
290
1
 42
2.0
291
1
 43
8.0
  3
Standard
 44
4.0
300

342
29
174
1
175
1
176
0
178
1
 93
-1056964608
 45
4.0
292
0
297
0
 46
4.0
 94
-1056964608
 47
1.0
 49
1.0
140
1.0
294
1
141
0.0
177
0
142
1.0
295
0
296
0
143
3.75
271
0
272
9
273
9
  0
DICTIONARY
  5
2D
330
A
100
AcDbDictionary
280
1
281
1
  3
CREATED_BY_EZDXF
350
2E
  3
WRITTEN_BY_EZDXF
350
32
  0
DICTIONARYVAR
  5
2E
330
2D
100
DictionaryVariables
280
0
  1
1.3.5 @ 2025-08-18T19:55:49.060785+00:00
  0
DICTIONARYVAR
  5
32
330
2D
100
DictionaryVariables
280
0
  1
1.3.5 @ 2025-08-18T19:55:49.069536+00:00
  0
ENDSEC
  0
EOF
