  0
SECTION
  2
HEADER
  9
$ACADVER
  1
AC1032
  9
$ACADMAINTVER
 90
4
  9
$DWGCODEPAGE
  3
ANSI_1252
  9
$LASTSAVEDBY
  1
ezdxf
  9
$REQUIREDVERSIONS
160
0
  9
$INSBASE
 10
0.0
 20
0.0
 30
0.0
  9
$EXTMIN
 10
1e+20
 20
1e+20
 30
1e+20
  9
$EXTMAX
 10
-1e+20
 20
-1e+20
 30
-1e+20
  9
$LIMMIN
 10
0.0
 20
0.0
  9
$LIMMAX
 10
420.0
 20
297.0
  9
$ORTHOMODE
 70
0
  9
$REGENMODE
 70
1
  9
$FILLMODE
 70
1
  9
$QTEXTMODE
 70
0
  9
$MIRRTEXT
 70
1
  9
$LTSCALE
 40
1.0
  9
$ATTMODE
 70
1
  9
$TEXTSIZE
 40
2.5
  9
$TRACEWID
 40
1.0
  9
$TEXTSTYLE
  7
Standard
  9
$CLAYER
  8
0
  9
$CELTYPE
  6
ByLayer
  9
$CECOLOR
 62
256
  9
$CELTSCALE
 40
1.0
  9
$DISPSILH
 70
0
  9
$DIMSCALE
 40
1.0
  9
$DIMASZ
 40
2.5
  9
$DIMEXO
 40
0.625
  9
$DIMDLI
 40
3.75
  9
$DIMRND
 40
0.0
  9
$DIMDLE
 40
0.0
  9
$DIMEXE
 40
1.25
  9
$DIMTP
 40
0.0
  9
$DIMTM
 40
0.0
  9
$DIMTXT
 40
2.5
  9
$DIMCEN
 40
2.5
  9
$DIMTSZ
 40
0.0
  9
$DIMTOL
 70
0
  9
$DIMLIM
 70
0
  9
$DIMTIH
 70
0
  9
$DIMTOH
 70
0
  9
$DIMSE1
 70
0
  9
$DIMSE2
 70
0
  9
$DIMTAD
 70
1
  9
$DIMZIN
 70
8
  9
$DIMBLK
  1

  9
$DIMASO
 70
1
  9
$DIMSHO
 70
1
  9
$DIMPOST
  1

  9
$DIMAPOST
  1

  9
$DIMALT
 70
0
  9
$DIMALTD
 70
3
  9
$DIMALTF
 40
0.03937007874
  9
$DIMLFAC
 40
1.0
  9
$DIMTOFL
 70
1
  9
$DIMTVP
 40
0.0
  9
$DIMTIX
 70
0
  9
$DIMSOXD
 70
0
  9
$DIMSAH
 70
0
  9
$DIMBLK1
  1

  9
$DIMBLK2
  1

  9
$DIMSTYLE
  2
ISO-25
  9
$DIMCLRD
 70
0
  9
$DIMCLRE
 70
0
  9
$DIMCLRT
 70
0
  9
$DIMTFAC
 40
1.0
  9
$DIMGAP
 40
0.625
  9
$DIMJUST
 70
0
  9
$DIMSD1
 70
0
  9
$DIMSD2
 70
0
  9
$DIMTOLJ
 70
0
  9
$DIMTZIN
 70
8
  9
$DIMALTZ
 70
0
  9
$DIMALTTZ
 70
0
  9
$DIMUPT
 70
0
  9
$DIMDEC
 70
2
  9
$DIMTDEC
 70
2
  9
$DIMALTU
 70
2
  9
$DIMALTTD
 70
3
  9
$DIMTXSTY
  7
Standard
  9
$DIMAUNIT
 70
0
  9
$DIMADEC
 70
0
  9
$DIMALTRND
 40
0.0
  9
$DIMAZIN
 70
0
  9
$DIMDSEP
 70
44
  9
$DIMATFIT
 70
3
  9
$DIMFRAC
 70
0
  9
$DIMLDRBLK
  1

  9
$DIMLUNIT
 70
2
  9
$DIMLWD
 70
-2
  9
$DIMLWE
 70
-2
  9
$DIMTMOVE
 70
0
  9
$DIMFXL
 40
1.0
  9
$DIMFXLON
 70
0
  9
$DIMJOGANG
 40
0.785398163397
  9
$DIMTFILL
 70
0
  9
$DIMTFILLCLR
 70
0
  9
$DIMARCSYM
 70
0
  9
$DIMLTYPE
  6

  9
$DIMLTEX1
  6

  9
$DIMLTEX2
  6

  9
$DIMTXTDIRECTION
 70
0
  9
$LUNITS
 70
2
  9
$LUPREC
 70
4
  9
$SKETCHINC
 40
1.0
  9
$FILLETRAD
 40
10.0
  9
$AUNITS
 70
0
  9
$AUPREC
 70
2
  9
$MENU
  1
.
  9
$ELEVATION
 40
0.0
  9
$PELEVATION
 40
0.0
  9
$THICKNESS
 40
0.0
  9
$LIMCHECK
 70
0
  9
$CHAMFERA
 40
0.0
  9
$CHAMFERB
 40
0.0
  9
$CHAMFERC
 40
0.0
  9
$CHAMFERD
 40
0.0
  9
$SKPOLY
 70
0
  9
$TDCREATE
 40
2460906.8720949073
  9
$TDUCREATE
 40
2458532.153996898
  9
$TDUPDATE
 40
2460906.8720949073
  9
$TDUUPDATE
 40
2458532.1544311
  9
$TDINDWG
 40
0.0
  9
$TDUSRTIMER
 40
0.0
  9
$USRTIMER
 70
1
  9
$ANGBASE
 50
0.0
  9
$ANGDIR
 70
0
  9
$PDMODE
 70
0
  9
$PDSIZE
 40
0.0
  9
$PLINEWID
 40
0.0
  9
$SPLFRAME
 70
0
  9
$SPLINETYPE
 70
6
  9
$SPLINESEGS
 70
8
  9
$HANDSEED
  5
33
  9
$SURFTAB1
 70
6
  9
$SURFTAB2
 70
6
  9
$SURFTYPE
 70
6
  9
$SURFU
 70
6
  9
$SURFV
 70
6
  9
$UCSBASE
  2

  9
$UCSNAME
  2

  9
$UCSORG
 10
0.0
 20
0.0
 30
0.0
  9
$UCSXDIR
 10
1.0
 20
0.0
 30
0.0
  9
$UCSYDIR
 10
0.0
 20
1.0
 30
0.0
  9
$UCSORTHOREF
  2

  9
$UCSORTHOVIEW
 70
0
  9
$UCSORGTOP
 10
0.0
 20
0.0
 30
0.0
  9
$UCSORGBOTTOM
 10
0.0
 20
0.0
 30
0.0
  9
$UCSORGLEFT
 10
0.0
 20
0.0
 30
0.0
  9
$UCSORGRIGHT
 10
0.0
 20
0.0
 30
0.0
  9
$UCSORGFRONT
 10
0.0
 20
0.0
 30
0.0
  9
$UCSORGBACK
 10
0.0
 20
0.0
 30
0.0
  9
$PUCSBASE
  2

  9
$PUCSNAME
  2

  9
$PUCSORG
 10
0.0
 20
0.0
 30
0.0
  9
$PUCSXDIR
 10
1.0
 20
0.0
 30
0.0
  9
$PUCSYDIR
 10
0.0
 20
1.0
 30
0.0
  9
$PUCSORTHOREF
  2

  9
$PUCSORTHOVIEW
 70
0
  9
$PUCSORGTOP
 10
0.0
 20
0.0
 30
0.0
  9
$PUCSORGBOTTOM
 10
0.0
 20
0.0
 30
0.0
  9
$PUCSORGLEFT
 10
0.0
 20
0.0
 30
0.0
  9
$PUCSORGRIGHT
 10
0.0
 20
0.0
 30
0.0
  9
$PUCSORGFRONT
 10
0.0
 20
0.0
 30
0.0
  9
$PUCSORGBACK
 10
0.0
 20
0.0
 30
0.0
  9
$USERI1
 70
0
  9
$USERI2
 70
0
  9
$USERI3
 70
0
  9
$USERI4
 70
0
  9
$USERI5
 70
0
  9
$USERR1
 40
0.0
  9
$USERR2
 40
0.0
  9
$USERR3
 40
0.0
  9
$USERR4
 40
0.0
  9
$USERR5
 40
0.0
  9
$WORLDVIEW
 70
1
  9
$SHADEDGE
 70
3
  9
$SHADEDIF
 70
70
  9
$TILEMODE
 70
1
  9
$MAXACTVP
 70
64
  9
$PINSBASE
 10
0.0
 20
0.0
 30
0.0
  9
$PLIMCHECK
 70
0
  9
$PEXTMIN
 10
1e+20
 20
1e+20
 30
1e+20
  9
$PEXTMAX
 10
-1e+20
 20
-1e+20
 30
-1e+20
  9
$PLIMMIN
 10
0.0
 20
0.0
  9
$PLIMMAX
 10
420.0
 20
297.0
  9
$UNITMODE
 70
0
  9
$VISRETAIN
 70
1
  9
$PLINEGEN
 70
0
  9
$PSLTSCALE
 70
1
  9
$TREEDEPTH
 70
3020
  9
$CMLSTYLE
  2
Standard
  9
$CMLJUST
 70
0
  9
$CMLSCALE
 40
20.0
  9
$PROXYGRAPHICS
 70
1
  9
$MEASUREMENT
 70
1
  9
$CELWEIGHT
370
-1
  9
$ENDCAPS
280
0
  9
$JOINSTYLE
280
0
  9
$LWDISPLAY
290
0
  9
$INSUNITS
 70
6
  9
$HYPERLINKBASE
  1

  9
$STYLESHEET
  1

  9
$XEDIT
290
1
  9
$CEPSNTYPE
380
0
  9
$PSTYLEMODE
290
1
  9
$FINGERPRINTGUID
  2
{0E7886B4-C356-4AAA-BD0E-2926B96DF1C8}
  9
$VERSIONGUID
  2
{D787F0A7-D6B6-40CB-826D-0DF0BF32FC0E}
  9
$EXTNAMES
290
1
  9
$PSVPSCALE
 40
0.0
  9
$OLESTARTUP
290
0
  9
$SORTENTS
280
127
  9
$INDEXCTL
280
0
  9
$HIDETEXT
280
1
  9
$XCLIPFRAME
280
1
  9
$HALOGAP
280
0
  9
$OBSCOLOR
 70
257
  9
$OBSLTYPE
280
0
  9
$INTERSECTIONDISPLAY
280
0
  9
$INTERSECTIONCOLOR
 70
257
  9
$DIMASSOC
280
2
  9
$PROJECTNAME
  1

  9
$CAMERADISPLAY
290
0
  9
$LENSLENGTH
 40
50.0
  9
$CAMERAHEIGHT
 40
0.0
  9
$STEPSPERSEC
 40
24.0
  9
$STEPSIZE
 40
100.0
  9
$3DDWFPREC
 40
2.0
  9
$PSOLWIDTH
 40
0.005
  9
$PSOLHEIGHT
 40
0.08
  9
$LOFTANG1
 40
1.570796326795
  9
$LOFTANG2
 40
1.570796326795
  9
$LOFTMAG1
 40
0.0
  9
$LOFTMAG2
 40
0.0
  9
$LOFTPARAM
 70
7
  9
$LOFTNORMALS
280
1
  9
$LATITUDE
 40
37.795
  9
$LONGITUDE
 40
-122.394
  9
$NORTHDIRECTION
 40
0.0
  9
$TIMEZONE
 70
-8000
  9
$LIGHTGLYPHDISPLAY
280
1
  9
$TILEMODELIGHTSYNCH
280
1
  9
$CMATERIAL
347
20
  9
$SOLIDHIST
280
0
  9
$SHOWHIST
280
1
  9
$DWFFRAME
280
2
  9
$DGNFRAME
280
2
  9
$REALWORLDSCALE
290
1
  9
$INTERFERECOLOR
 62
256
  9
$CSHADOW
280
0
  9
$SHADOWPLANELOCATION
 40
0.0
  0
ENDSEC
  0
SECTION
  2
CLASSES
  0
CLASS
  1
ACDBDICTIONARYWDFLT
  2
AcDbDictionaryWithDefault
  3
ObjectDBX Classes
 90
0
 91
0
280
0
281
0
  0
CLASS
  1
SUN
  2
AcDbSun
  3
SCENEOE
 90
1153
 91
0
280
0
281
0
  0
CLASS
  1
VISUALSTYLE
  2
AcDbVisualStyle
  3
ObjectDBX Classes
 90
4095
 91
0
280
0
281
0
  0
CLASS
  1
MATERIAL
  2
AcDbMaterial
  3
ObjectDBX Classes
 90
1153
 91
0
280
0
281
0
  0
CLASS
  1
SCALE
  2
AcDbScale
  3
ObjectDBX Classes
 90
1153
 91
0
280
0
281
0
  0
CLASS
  1
TABLESTYLE
  2
AcDbTableStyle
  3
ObjectDBX Classes
 90
4095
 91
0
280
0
281
0
  0
CLASS
  1
MLEADERSTYLE
  2
AcDbMLeaderStyle
  3
ACDB_MLEADERSTYLE_CLASS
 90
4095
 91
0
280
0
281
0
  0
CLASS
  1
DICTIONARYVAR
  2
AcDbDictionaryVar
  3
ObjectDBX Classes
 90
0
 91
0
280
0
281
0
  0
CLASS
  1
CELLSTYLEMAP
  2
AcDbCellStyleMap
  3
ObjectDBX Classes
 90
1152
 91
0
280
0
281
0
  0
CLASS
  1
MENTALRAYRENDERSETTINGS
  2
AcDbMentalRayRenderSettings
  3
SCENEOE
 90
1024
 91
0
280
0
281
0
  0
CLASS
  1
ACDBDETAILVIEWSTYLE
  2
AcDbDetailViewStyle
  3
ObjectDBX Classes
 90
1025
 91
0
280
0
281
0
  0
CLASS
  1
ACDBSECTIONVIEWSTYLE
  2
AcDbSectionViewStyle
  3
ObjectDBX Classes
 90
1025
 91
0
280
0
281
0
  0
CLASS
  1
RASTERVARIABLES
  2
AcDbRasterVariables
  3
ISM
 90
0
 91
0
280
0
281
0
  0
CLASS
  1
LAYOUT
  2
AcDbLayout
  3
ObjectDBX Classes
 90
0
 91
0
280
0
281
0
  0
CLASS
  1
ACDBPLACEHOLDER
  2
AcDbPlaceHolder
  3
ObjectDBX Classes
 90
0
 91
0
280
0
281
0
  0
ENDSEC
  0
SECTION
  2
TABLES
  0
TABLE
  2
VPORT
  5
8
330
0
100
AcDbSymbolTable
 70
1
  0
VPORT
  5
23
330
8
100
AcDbSymbolTableRecord
100
AcDbViewportTableRecord
  2
*Active
 70
0
 10
0.0
 20
0.0
 11
1.0
 21
1.0
 12
0.0
 22
0.0
 13
0.0
 23
0.0
 14
0.5
 24
0.5
 15
0.5
 25
0.5
 16
0.0
 26
0.0
 36
1.0
 17
0.0
 27
0.0
 37
0.0
 40
1000.0
 41
1.34
 42
50.0
 43
0.0
 44
0.0
 50
0.0
 51
0.0
 71
0
 72
1000
 73
1
 74
3
 75
0
 76
0
 77
0
 78
0
281
0
 65
0
146
0.0
  0
ENDTAB
  0
TABLE
  2
LTYPE
  5
2
330
0
100
AcDbSymbolTable
 70
3
  0
LTYPE
  5
24
330
2
100
AcDbSymbolTableRecord
100
AcDbLinetypeTableRecord
  2
ByBlock
 70
0
  3

 72
65
 73
0
 40
0.0
  0
LTYPE
  5
25
330
2
100
AcDbSymbolTableRecord
100
AcDbLinetypeTableRecord
  2
ByLayer
 70
0
  3

 72
65
 73
0
 40
0.0
  0
LTYPE
  5
26
330
2
100
AcDbSymbolTableRecord
100
AcDbLinetypeTableRecord
  2
Continuous
 70
0
  3

 72
65
 73
0
 40
0.0
  0
ENDTAB
  0
TABLE
  2
LAYER
  5
1
330
0
100
AcDbSymbolTable
 70
2
  0
LAYER
  5
27
330
1
100
AcDbSymbolTableRecord
100
AcDbLayerTableRecord
  2
0
 70
0
 62
7
  6
Continuous
370
-3
390
13
347
21
  0
LAYER
  5
28
330
1
100
AcDbSymbolTableRecord
100
AcDbLayerTableRecord
  2
Defpoints
 70
0
 62
7
  6
Continuous
290
0
370
-3
390
13
347
21
  0
ENDTAB
  0
TABLE
  2
STYLE
  5
5
330
0
100
AcDbSymbolTable
 70
1
  0
STYLE
  5
29
330
5
100
AcDbSymbolTableRecord
100
AcDbTextStyleTableRecord
  2
Standard
 70
0
 40
0.0
 41
1.0
 50
0.0
 71
0
 42
2.5
  3
txt
  4

  0
ENDTAB
  0
TABLE
  2
VIEW
  5
7
330
0
100
AcDbSymbolTable
 70
0
  0
ENDTAB
  0
TABLE
  2
UCS
  5
6
330
0
100
AcDbSymbolTable
 70
0
  0
ENDTAB
  0
TABLE
  2
APPID
  5
3
330
0
100
AcDbSymbolTable
 70
3
  0
APPID
  5
2A
330
3
100
AcDbSymbolTableRecord
100
AcDbRegAppTableRecord
  2
ACAD
 70
0
  0
APPID
  5
30
330
3
100
AcDbSymbolTableRecord
100
AcDbRegAppTableRecord
  2
HATCHBACKGROUNDCOLOR
 70
0
  0
APPID
  5
31
330
3
100
AcDbSymbolTableRecord
100
AcDbRegAppTableRecord
  2
EZDXF
 70
0
  0
ENDTAB
  0
TABLE
  2
DIMSTYLE
  5
4
330
0
100
AcDbSymbolTable
 70
1
100
AcDbDimStyleTable
  0
DIMSTYLE
105
2B
330
4
100
AcDbSymbolTableRecord
100
AcDbDimStyleTableRecord
  2
Standard
 70
0
 40
1.0
 41
2.5
 42
0.625
 43
3.75
 44
1.25
 45
0.0
 46
0.0
 47
0.0
 48
0.0
 49
2.5
140
2.5
141
2.5
142
0.0
143
0.03937007874
144
1.0
145
0.0
146
1.0
147
0.625
148
0.0
 69
0
 70
0
 71
0
 72
0
 73
0
 74
0
 75
0
 76
0
 77
1
 78
8
 79
3
170
0
171
3
172
1
173
0
174
0
175
0
176
0
177
0
178
0
179
2
271
2
272
2
273
2
274
3
275
0
276
0
277
2
278
44
279
0
280
0
281
0
282
0
283
0
284
8
285
0
286
0
288
0
289
3
290
0
371
-2
372
-2
  0
ENDTAB
  0
TABLE
  2
BLOCK_RECORD
  5
9
330
0
100
AcDbSymbolTable
 70
2
  0
BLOCK_RECORD
  5
17
330
9
100
AcDbSymbolTableRecord
100
AcDbBlockTableRecord
  2
*Model_Space
340
1A
 70
0
280
1
281
0
  0
BLOCK_RECORD
  5
1B
330
9
100
AcDbSymbolTableRecord
100
AcDbBlockTableRecord
  2
*Paper_Space
340
1E
 70
0
280
1
281
0
  0
ENDTAB
  0
ENDSEC
  0
SECTION
  2
BLOCKS
  0
BLOCK
  5
18
330
17
100
AcDbEntity
  8
0
100
AcDbBlockBegin
  2
*Model_Space
 70
0
 10
0.0
 20
0.0
 30
0.0
  3
*Model_Space
  1

  0
ENDBLK
  5
19
330
17
100
AcDbEntity
  8
0
100
AcDbBlockEnd
  0
BLOCK
  5
1C
330
1B
100
AcDbEntity
  8
0
100
AcDbBlockBegin
  2
*Paper_Space
 70
0
 10
0.0
 20
0.0
 30
0.0
  3
*Paper_Space
  1

  0
ENDBLK
  5
1D
330
1B
100
AcDbEntity
  8
0
100
AcDbBlockEnd
  0
ENDSEC
  0
SECTION
  2
ENTITIES
  0
LWPOLYLINE
  5
2F
330
17
100
AcDbEntity
  8
0
100
AcDbPolyline
 90
721
 70
1
 10
90.53343472904143
 20
39.566227921325584
 10
90.53045398448128
 20
39.566051765672746
 10
90.52162985894388
 20
39.56525304965534
 10
90.50719856871531
 20
39.563291275155564
 10
90.48690688112312
 20
39.56037763716083
 10
90.46120220744072
 20
39.5562248702258
 10
90.42989036906717
 20
39.5509090448084
 10
90.39289529554453
 20
39.544235982307704
 10
90.35048723593171
 20
39.53632379086671
 10
90.3025901197708
 20
39.52697829188448
 10
90.2489507143893
 20
39.516410680348365
 10
90.1899573769891
 20
39.50446881534253
 10
90.1254749830408
 20
39.49109364279544
 10
90.0554444784729
 20
39.47642028723655
 10
89.97998397142838
 20
39.460178499606975
 10
89.89897535376427
 20
39.442638528965595
 10
89.81261280408145
 20
39.423724304854474
 10
89.72076119785055
 20
39.403376773202126
 10
89.62336148100005
 20
39.38173105853797
 10
89.52066688620238
 20
39.35857596587464
 10
89.41242418078504
 20
39.334122690199514
 10
89.2987514728912
 20
39.3081009824537
 10
89.17980090343657
 20
39.28089919983912
 10
89.0552261529044
 20
39.25220505561177
 10
88.925432594883
 20
39.22219571198623
 10
88.79014998031353
 20
39.190753060819425
 10
88.64951343372536
 20
39.157936156182906
 10
88.50352295511854
 20
39.123744998076674
 10
88.35211949042154
 20
39.08831471103015
 10
88.19530303963437
 20
39.05164529504336
 10
88.03319171090006
 20
39.01346650105739
 10
87.86566739607554
 20
38.974048578131146
 10
87.69292427376183
 20
38.93331545580671
 10
87.51476816535792
 20
38.89134320454198
 10
87.3313171790069
 20
38.8478615752781
 10
87.14258833109511
 20
38.80319987114545
 10
86.94852256755108
 20
38.75749321667351
 10
86.74929705058935
 20
38.71033623827391
 10
86.54465854753744
 20
38.66194013093405
 10
86.33493636152572
 20
38.61228787826749
 10
86.11980118942387
 20
38.561396496660656
 10
85.8995232802907
 20
38.50938409425661
 10
85.6739675095968
 20
38.45619161698381
 10
85.44326900187161
 20
38.40187811891378
 10
85.20735168665723
 20
38.34624942144554
 10
84.96635068848305
 20
38.289364578650634
 10
84.72001277467663
 20
38.23143478551642
 10
84.46866724836832
 20
38.17244302565649
 10
84.21217898502874
 20
38.11233024499935
 10
83.9505479846579
 20
38.05109644354497
 10
83.68377424725573
 20
37.98874162129337
 10
83.41193384328021
 20
37.92545995684551
 10
83.13495070227339
 20
37.86105727160042
 10
82.8529008946932
 20
37.795727744159066
 10
82.56584347461117
 20
37.72933624999202
 10
82.27389655017032
 20
37.661612540040366
 10
81.97707713775709
 20
37.592885917434536
 10
81.675132004699
 20
37.52336757716191
 10
81.36806115099594
 20
37.45305751922244
 10
81.05617686339205
 20
37.381609424099366
 10
80.73942008781576
 20
37.30915841632211
 10
80.41779082426707
 20
37.23570449589068
 10
80.0911119105314
 20
37.161653036393396
 10
79.75967861696638
 20
37.08632841518305
 10
79.4235079599584
 20
37.010059935390025
 10
79.08254088543595
 20
36.932982721543816
 10
78.73658321479807
 20
36.85517284410231
 10
78.38596425117514
 20
36.77661328667913
 10
78.03060792410925
 20
36.69710987067329
 10
77.67051423360041
 20
36.61666259608479
 10
77.30570019603503
 20
36.53560076604405
 10
76.93640202769916
 20
36.453383882433286
 10
76.56236649592036
 20
36.370223140239865
 10
76.18380479568599
 20
36.286371772136306
 10
75.800716926996
 20
36.20182977812256
 10
75.41308587346407
 20
36.11626785506825
 10
75.0208525810186
 20
36.02982112750281
 10
74.62428729871851
 20
35.94260770356928
 10
74.22313679389133
 20
35.85483877825503
 10
73.81757822875164
 20
35.76610897797175
 10
73.40774672782882
 20
35.67647735679092
 10
72.99364229112291
 20
35.585943914712566
 10
72.57514681049086
 20
35.49477890079558
 10
72.1522602859327
 20
35.40298231503996
 10
71.72504177151993
 20
35.31041903291626
 10
71.29382057038295
 20
35.217072038038076
 10
70.85826737939132
 20
35.1229583467918
 10
70.41851732307455
 20
35.02813701324897
 10
69.97488268817665
 20
34.93226171789278
 10
69.5271692960966
 20
34.83540853118112
 10
69.07533510914932
 20
34.73804188077389
 10
68.61951525186421
 20
34.640220820742584
 10
68.15955758332548
 20
34.54155699388527
 10
67.69590951480659
 20
34.441763134756684
 10
67.22833483002142
 20
34.34137974147458
 10
66.75689258304148
 20
34.240271689509505
 10
66.28152371979527
 20
34.13857410339094
 10
65.80248147295528
 20
34.03607578813149
 10
65.31976584252152
 20
33.93277674373117
 10
64.83324170396455
 20
33.828617916118446
 10
64.34312025227167
 20
33.723852537965804
 10
63.849266362913504
 20
33.61842155520173
 10
63.351933268562576
 20
33.512113772838866
 10
62.8511209692188
 20
33.404929190877205
 10
62.34696458941164
 20
33.29692686338825
 10
61.8392699505402
 20
33.18818286082997
 10
61.32805406899077
 20
33.07902648633273
 10
60.81335898244857
 20
32.96899331223671
 10
60.29553101043035
 20
32.8583956252859
 10
59.77453612016336
 20
32.74657481921947
 10
59.250315257576055
 20
32.633666018566885
 10
58.72296150951273
 20
32.52019270505951
 10
58.19241582190189
 20
32.4062900032268
 10
57.65858510789924
 20
32.29143443133738
 10
57.122127973765565
 20
32.17559195661843
 10
56.58269809998408
 20
32.05845029232596
 10
56.04038857339907
 20
31.94053292019132
 10
55.495005215409606
 20
31.821915910672466
 10
54.94687732914612
 20
31.702582247382995
 10
54.396046952293666
 20
31.582067502663026
 10
53.84253110123869
 20
31.460700979642986
 10
53.28621166783814
 20
31.338752927381773
 10
52.72738392244964
 20
31.21554772323215
 10
52.166106919144696
 20
31.090950242664672
 10
51.6023556366246
 20
30.96575421646962
 10
51.035918879901985
 20
30.839706411974497
 10
50.46700784396419
 20
30.713060061851795
 10
49.895976853240406
 20
30.58500441892485
 10
49.32276685365905
 20
30.45567460772308
 10
48.74725973707714
 20
30.325340877305415
 10
48.169278341280034
 20
30.194408601260157
 10
47.58932913161278
 20
30.062455389612598
 10
47.00737807530257
 20
29.928822636101895
 10
46.42365338372314
 20
29.794092876530954
 10
45.83758953745801
 20
29.658823625403965
 10
45.24955787732269
 20
29.52253343867466
 10
44.65979461960331
 20
29.384681818225257
 10
44.0684519052157
 20
29.245657121257707
 10
43.47520043102944
 20
29.10547636415839
 10
42.880251392031916
 20
28.964392779599812
 10
42.283528717765165
 20
28.822212188981002
 10
41.68528564090174
 20
28.67872339731459
 10
41.08565728597104
 20
28.533985458672102
 10
40.484508528443634
 20
28.387939318982006
 10
39.88210961737841
 20
28.24070308638736
 10
39.27819030371648
 20
28.092158652745102
 10
38.672902728373714
 20
27.9426943752572
 10
38.066305945421604
 20
27.792175129394188
 10
37.45869522521777
 20
27.639925292508835
 10
36.84995245961917
 20
27.48621511366003
 10
36.240288843613165
 20
27.331297825520277
 10
35.629375074069365
 20
27.175190444475973
 10
35.01759950818969
 20
27.017740829611267
 10
34.40502120004568
 20
26.858813856396726
 10
33.79169920370884
 20
26.698274400302886
 10
33.17751541103612
 20
26.536392710388654
 10
32.56254589248547
 20
26.373362965254998
 10
31.946790648056847
 20
26.209185164901907
 10
31.330561964494297
 20
26.043512989812577
 10
30.713783771339912
 20
25.87615226138604
 10
30.096650247194646
 20
25.70702690916437
 10
29.479119354373367
 20
25.536601360807424
 10
28.86087880613206
 20
25.36522193583202
 10
28.242316959672657
 20
25.19273649332232
 10
27.623771123037926
 20
25.018004982971224
 10
27.00488697179871
 20
24.841838151955415
 10
26.38587570094239
 20
24.664489232947382
 10
25.76672029408256
 20
24.485628922816716
 10
25.14747980529073
 20
24.30512209703396
 10
24.528247321411236
 20
24.123492237330503
 10
23.908946771986155
 20
23.940545165105384
 10
23.289890443759493
 20
23.755934560841776
 10
22.670943212201816
 20
23.56960137046816
 10
22.05231627230049
 20
23.381798826657036
 10
21.433950569983992
 20
23.192662053937845
 10
20.816023267466896
 20
23.00178567872225
 10
20.198475310677683
 20
22.809304825539698
 10
19.581382770074256
 20
22.61541367299116
 10
18.96443335891262
 20
22.420458540593447
 10
18.34825165068078
 20
22.223746789312926
 10
17.73283764537877
 20
22.025278419149615
 10
17.118132288935055
 20
21.825188554632938
 10
16.504076527278094
 20
21.623612320292352
 10
15.890864539008884
 20
21.420473645669937
 10
15.278302145526432
 20
21.21584860122361
 10
14.666718649961188
 20
21.00972017056698
 10
14.05623216045615
 20
20.801818104641143
 10
13.44678362293984
 20
20.59227752797556
 10
12.838313983340694
 20
20.381233565099663
 10
12.230882295730284
 20
20.168551091484023
 10
11.624876917310505
 20
19.954077966212772
 10
11.020044615408892
 20
19.738025384273303
 10
10.416402406411832
 20
19.520722648796017
 10
9.814110436147496
 20
19.301435083062163
 10
9.213320845531728
 20
19.08055104427368
 10
8.61385647234997
 20
18.858475906018914
 10
8.015759354287338
 20
18.634745240637994
 10
7.4194178485457805
 20
18.409206907215086
 10
6.82471384698223
 20
18.182131154809067
 10
6.231630333210299
 20
17.95318868028953
 10
5.640319448145834
 20
17.72276784085841
 10
5.050764175402452
 20
17.490539333385303
 10
4.4631757099674925
 20
17.256756390542694
 10
3.8771066405675
 20
17.021706277775873
 10
3.292945324404425
 20
16.785236854168996
 10
2.710927977764367
 20
16.546807621604287
 10
2.1309955465757815
 20
16.306553704611183
 10
1.5531059931535534
 20
16.064939530849546
 10
0.9773183715692212
 20
15.821829975789937
 10
0.40369173589428087
 20
15.577089914902905
 10
-0.16763878934179421
 20
15.330778402259977
 10
-0.7369264368115177
 20
15.08310663284852
 10
-1.3041541901284857
 20
14.834403909798946
 10
-1.8689507084771508
 20
14.584188789065005
 10
-2.4311978837144674
 20
14.33219102158779
 10
-2.9910138239834887
 20
14.078680856426207
 10
-3.548322458826284
 20
13.823852472181223
 10
-4.103258912772306
 20
13.56764681478131
 10
-4.655747115363633
 20
13.310258062827442
 10
-5.205710996142338
 20
13.051880394920586
 10
-5.7530494633517755
 20
12.791914258871435
 10
-6.297627392462494
 20
12.530418708751514
 10
-6.839604929302675
 20
12.268128421279577
 10
-7.37899909025871
 20
12.00471409332521
 10
-7.915480572200182
 20
11.740158708502015
 10
-8.449319624185991
 20
11.474344158666938
 10
-8.980245997157231
 20
11.207388551963037
 10
-9.508242674727525
 20
10.939621191520716
 10
-10.033638960027268
 20
10.671059093726386
 10
-10.55600445816941
 20
10.401085690004333
 10
-11.075423244524199
 20
10.130629835674279
 10
-11.592148551764108
 20
9.859902725723606
 10
-12.105961179989475
 20
9.588034558904099
 10
-12.616455755611936
 20
9.315202497430336
 10
-13.123944565375519
 20
9.041752860819134
 10
-13.628486663351751
 20
8.767820773599931
 10
-14.129963941397564
 20
8.493135986713847
 10
-14.628165204525615
 20
8.217951732833365
 10
-15.123360701794784
 20
7.9421499038154435
 10
-15.615457346360753
 20
7.666253981391468
 10
-16.104337030080476
 20
7.389993716502542
 10
-16.589940698882426
 20
7.113233984619227
 10
-17.072327406838124
 20
6.836109910270965
 10
-17.55148013756118
 20
6.558950796588173
 10
-18.027534015581033
 20
6.281697589499325
 10
-18.50010068369575
 20
6.004198148088581
 10
-18.969180141905323
 20
5.7264524723559385
 10
-19.434848460667673
 20
5.448266383700426
 10
-19.897029569524893
 20
5.1698340607230175
 10
-20.355900630691536
 20
4.8915608770120516
 10
-20.811385573709686
 20
4.613641011168497
 10
-21.263248182293257
 20
4.335533965074564
 10
-21.71162358097168
 20
4.05718068465874
 10
-22.15604734208511
 20
3.7786232076061386
 10
-22.59696687690699
 20
3.5001487993620586
 10
-23.03444123950886
 20
3.2218925844559445
 10
-23.468200180831822
 20
2.9439726710308465
 10
-23.898184646804353
 20
2.666253934557314
 10
-24.324352599741328
 20
2.388271947375487
 10
-24.746805131399395
 20
2.110626261674674
 10
-25.165719403993133
 20
1.833722251043211
 10
-25.58066502263546
 20
1.5569433469053993
 10
-25.991777111855836
 20
1.280230495189706
 10
-26.39890353073841
 20
1.0039720530980765
 10
-26.802179403812634
 20
0.7281089665589833
 10
-27.20166378515003
 20
0.45277636010187544
 10
-27.597044388006573
 20
0.17762791420993837
 10
-27.988439320525323
 20
-0.09706612205793522
 10
-28.375848582706265
 20
-0.3713057487017455
 10
-28.75950839083551
 20
-0.6445504676037067
 10
-29.139089441782637
 20
-0.916817295150221
 10
-29.514684822391963
 20
-1.1886297130726684
 10
-29.886041299990996
 20
-1.4601989163584235
 10
-30.253259966336383
 20
-1.7309253528181736
 10
-30.61659405410062
 20
-2.0005978274645515
 10
-30.97567222246817
 20
-2.269697784343818
 10
-31.33047745505263
 20
-2.537895920325556
 10
-31.681339054984416
 20
-2.8051752190233663
 10
-32.02798677320463
 20
-3.071417572294201
 10
-32.37024344749871
 20
-3.3370283537264034
 10
-32.70828624008123
 20
-3.601602189731627
 10
-33.0421742050237
 20
-3.865003955780431
 10
-33.37184828825461
 20
-4.127368776402263
 10
-33.69717336524451
 20
-4.388637597525591
 10
-34.01809038192187
 20
-4.648945543679869
 10
-34.33479351688766
 20
-4.908216544407165
 10
-34.647012521083006
 20
-5.166332491564448
 10
-34.95486550265093
 20
-5.423023136092807
 10
-35.25850460250729
 20
-5.678676835194194
 10
-35.55752444706376
 20
-5.933116426654035
 10
-35.852001106778225
 20
-6.186536089073293
 10
-36.14217079793682
 20
-6.438395324334194
 10
-36.42803352053953
 20
-6.688694132436727
 10
-36.70933604191385
 20
-6.937643708368268
 10
-36.98601930798828
 20
-7.185379176658264
 10
-37.25815938922071
 20
-7.432094715907679
 10
-37.5257813069099
 20
-7.676996595326238
 10
-37.78896113151375
 20
-7.9202789935149065
 10
-38.04758075488923
 20
-8.162212159532585
 10
-38.301505052506876
 20
-8.40273703930774
 10
-38.550852132509746
 20
-8.641583383781489
 10
-38.79550388675479
 20
-8.879021442012718
 10
-39.03551936931353
 20
-9.114916089471981
 10
-39.2709576342575
 20
-9.34913220162983
 10
-39.50156544891419
 20
-9.581880973473638
 10
-39.72751997549818
 20
-9.812757031415064
 10
-39.94872012225282
 20
-10.042359927643417
 10
-40.16526698093477
 20
-10.270090109969386
 10
-40.37710149747249
 20
-10.496082702922424
 10
-40.58416461779446
 20
-10.72047283103197
 10
-40.786321217371224
 20
-10.943201440226499
 10
-40.983765474803775
 20
-11.164192460048096
 10
-41.176539427777236
 20
-11.382981462836893
 10
-41.364524968148544
 20
-11.599838697651787
 10
-41.547722095917706
 20
-11.814764164492768
 10
-41.726324989685686
 20
-12.027681792901925
 10
-41.900004346322085
 20
-12.23860859926565
 10
-42.06901339849937
 20
-12.447333388596574
 10
-42.23333512983119
 20
-12.653526857764286
 10
-42.393104664846945
 20
-12.857248060840302
 10
-42.548068770874146
 20
-13.058708192811997
 10
-42.698421626513785
 20
-13.257831183221445
 10
-42.84389298270696
 20
-13.4544989239256
 10
-42.98487119665561
 20
-13.648559274008614
 10
-43.121145073372354
 20
-13.839759000797997
 10
-43.25273162924362
 20
-14.028427407424164
 10
-43.379630864269394
 20
-14.214564493887115
 10
-43.501842778449664
 20
-14.398170260186852
 10
-43.61935035539804
 20
-14.578915403192953
 10
-43.732153595114525
 20
-14.756799922905419
 10
-43.84021045991399
 20
-14.932288246984116
 10
-43.94356298748158
 20
-15.104915947769186
 10
-44.04197496153115
 20
-15.275223523378397
 10
-44.13568259834885
 20
-15.442670475693983
 10
-44.22444968164855
 20
-15.607797302833719
 10
-44.30839431957331
 20
-15.770333755738715
 10
-44.38751651212313
 20
-15.93027983440897
 10
-44.46162208069704
 20
-16.087711609302406
 10
-44.53109938249698
 20
-16.242476939503177
 10
-44.595365881720035
 20
-16.39480403638506
 10
-44.654945060097596
 20
-16.54459981310372
 10
-44.709507614499245
 20
-16.69188128604556
 10
-44.75923070713955
 20
-16.836243081622243
 10
-44.80413135440492
 20
-16.97801450296419
 10
-44.844133485837425
 20
-17.11700137147042
 10
-44.87947331772317
 20
-17.252663189023156
 10
-44.91010881237702
 20
-17.38546438328226
 10
-44.93602295341258
 20
-17.515075651117318
 10
-44.95733384897289
 20
-17.641226743469424
 10
-44.974277715344066
 20
-17.763377162220806
 10
-44.9868545525261
 20
-17.88152690737146
 10
-44.99531759319148
 20
-17.99546478393402
 10
-44.99969185863894
 20
-18.1043970611182
 10
-45.000348689684024
 20
-18.20784229487774
 10
-44.99801375157143
 20
-18.304508293989706
 10
-44.99283017374292
 20
-18.39333107860492
 10
-44.98587794587233
 20
-18.47220771032377
 10
-44.97823705763352
 20
-18.539035250746636
 10
-44.97105455768416
 20
-18.590452603023756
 10
-44.96594192234182
 20
-18.6231407079905
 10
-44.59109471728907
 20
-19.487843603040957
 10
-44.58551559358185
 20
-19.49361292668376
 10
-44.5688372765317
 20
-19.510785773082716
 10
-44.541295982424735
 20
-19.538821644120038
 10
-44.501752667515575
 20
-19.579958602724787
 10
-44.44923744536112
 20
-19.637152372158393
 10
-44.38668600315118
 20
-19.70331742281812
 10
-44.315793892573566
 20
-19.7742058402196
 10
-44.23759906561698
 20
-19.848179113623093
 10
-44.153206533254014
 20
-19.922340573838692
 10
-44.063012657598904
 20
-19.99541504602985
 10
-43.96758295806819
 20
-20.0668450156924
 10
-43.867018526418505
 20
-20.136030930637023
 10
-43.761555578935976
 20
-20.20243229274594
 10
-43.651312223763625
 20
-20.265778852960246
 10
-43.536288460901446
 20
-20.326070611279945
 10
-43.41667846895044
 20
-20.38323149724712
 10
-43.29246523152419
 20
-20.436932207731356
 10
-43.16358969455117
 20
-20.487307867262093
 10
-43.030246036632356
 20
-20.534282405381415
 10
-42.892181025095255
 20
-20.578067017076688
 10
-42.74945371401139
 20
-20.618526577818457
 10
-42.6024524605827
 20
-20.655508946690887
 10
-42.45059472900626
 20
-20.689242335067746
 10
-42.29434494694196
 20
-20.719768780634155
 10
-42.13337381125937
 20
-20.747105299776514
 10
-41.96787550055946
 20
-20.7711758220369
 10
-41.797909068913754
 20
-20.79184522288587
 10
-41.62329735410767
 20
-20.809518875911756
 10
-41.44415846428428
 20
-20.823926532055676
 10
-41.26025618315747
 20
-20.835608689435404
 10
-41.07176767294181
 20
-20.844159974462606
 10
-40.87870995002371
 20
-20.849909690267705
 10
-40.68094788987373
 20
-20.852798782779168
 10
-40.47836338434878
 20
-20.853097501055885
 10
-40.27115061204988
 20
-20.850729774639944
 10
-40.05925051890548
 20
-20.84583072806079
 10
-39.84266310491558
 20
-20.838400361318413
 10
-39.62107608333618
 20
-20.828784993929638
 10
-39.39481875729767
 20
-20.816967609508065
 10
-39.1636799318127
 20
-20.802694975381197
 10
-38.927929855940164
 20
-20.78608519969208
 10
-38.68731529700755
 20
-20.76734947742809
 10
-38.44197137954431
 20
-20.746546862660747
 10
-38.19182203309254
 20
-20.72348317678908
 10
-37.93712049032471
 20
-20.69794722482572
 10
-37.67767257263987
 20
-20.67001507722859
 10
-37.41368947502537
 20
-20.639939966670187
 10
-37.14503607295178
 20
-20.607662839078984
 10
-36.87171236641908
 20
-20.573183694454983
 10
-36.593895517641876
 20
-20.536097159209838
 10
-36.31172065114959
 20
-20.49646228741509
 10
-36.025052642412774
 20
-20.454220024999195
 10
-35.73390850781782
 20
-20.409699675092583
 10
-35.43828824736476
 20
-20.362901237695247
 10
-35.13842807733966
 20
-20.313284214689407
 10
-34.83434501412893
 20
-20.261177909205475
 10
-34.525962987274646
 20
-20.206388142642485
 10
-34.21322294270529
 20
-20.149050039529882
 10
-33.89626000495029
 20
-20.08922265393919
 10
-33.5751332280812
 20
-20.026770861340957
 10
-33.249783558026465
 20
-19.961829786264637
 10
-32.9202109947861
 20
-19.89439942871023
 10
-32.586474592431635
 20
-19.824344664148285
 10
-32.24865042142098
 20
-19.75185967117978
 10
-31.90673848175414
 20
-19.6769444498047
 10
-31.560662702973197
 20
-19.59940482142209
 10
-31.210575225993985
 20
-19.519629143233885
 10
-30.856399980358592
 20
-19.437423236639116
 10
-30.49807791199549
 20
-19.35292222616723
 10
-30.13580319950564
 20
-19.2660500413603
 10
-29.76975300510364
 20
-19.17640130862999
 10
-29.399750166574886
 20
-19.08438140156464
 10
-29.025541451246905
 20
-18.99020151515162
 10
-28.64759128677956
 20
-18.893903687076055
 10
-28.265747532256988
 20
-18.795099560136
 10
-27.88006924175074
 20
-18.693654009802014
 10
-27.490708556176635
 20
-18.589955393276036
 10
-27.097471296933715
 20
-18.484079781015986
 10
-26.700475572165026
 20
-18.375756923962967
 10
-26.29985650640002
 20
-18.265045876188523
 10
-25.895673153710213
 20
-18.151811513163185
 10
-25.487748351881034
 20
-18.036459208475303
 10
-25.07620020905554
 20
-17.918718713065985
 10
-24.66091061709067
 20
-17.79886027599412
 10
-24.242326987259897
 20
-17.67659663181442
 10
-23.8201200164328
 20
-17.551944796913283
 10
-23.394424829138835
 20
-17.424963825362227
 10
-22.965317495835905
 20
-17.295847895762233
 10
-22.532781000137632
 20
-17.164267704982876
 10
-22.096832358430404
 20
-17.03055255615458
 10
-21.65766574931519
 20
-16.894626378819414
 10
-21.215129031876153
 20
-16.756100815775444
 10
-20.76949245517218
 20
-16.615093975165713
 10
-20.3205788569887
 20
-16.472011230578566
 10
-19.868388237325714
 20
-16.326852582014
 10
-19.412920596183223
 20
-16.17961802947201
 10
-18.954488220305237
 20
-16.029961253435793
 10
-18.49320921783482
 20
-15.87761200484645
 10
-18.02871224795642
 20
-15.723051727750237
 10
-17.56126755972893
 20
-15.566398530290213
 10
-17.09085813676594
 20
-15.40732310933595
 10
-16.61773721173997
 20
-15.245614269900088
 10
-16.14172762243643
 20
-15.081677385570964
 10
-15.662846385241725
 20
-14.915841759478994
 10
-15.181076483769454
 20
-14.74777808849376
 10
-14.696595080234186
 20
-14.577080999026926
 10
-14.209554315551774
 20
-14.404138848280432
 10
-13.719895135650681
 20
-14.229086760783721
 10
-13.22734729147203
 20
-14.05180662839375
 10
-12.732375210675674
 20
-13.87234048879564
 10
-12.234961876875222
 20
-13.690359038858979
 10
-11.735107290070667
 20
-13.505862278583766
 10
-11.232887520719931
 20
-13.319044386570969
 10
-10.7280072984654
 20
-13.130580985467821
 10
-10.220778910051083
 20
-12.940125755757506
 10
-9.71130344723364
 20
-12.74707914525072
 10
-9.199521855941546
 20
-12.551576278476904
 10
-8.685704385233686
 20
-12.353735263579106
 10
-8.169479694294521
 20
-12.154037544603593
 10
-7.651101015796552
 20
-11.95227192656299
 10
-7.130568349739768
 20
-11.748438409457297
 10
-6.607999804267227
 20
-11.54226674422763
 10
-6.083336325307398
 20
-11.333892055403426
 10
-5.5567300537761275
 20
-11.12370270018663
 10
-5.028028848757581
 20
-10.911310321375304
 10
-4.497621067453676
 20
-10.696562778053593
 10
-3.965447655792908
 20
-10.479595194750958
 10
-3.4314495597037493
 20
-10.260542695996833
 10
-2.8955507087282695
 20
-10.039211103190251
 10
-2.35827458459788
 20
-9.815507329486904
 10
-1.8195451168546224
 20
-9.5892371962858
 10
-1.2788728565399279
 20
-9.36115239669211
 10
-0.7365871067842155
 20
-9.13123591431943
 10
-0.19317731654606213
 20
-8.898736056062603
 10
0.3518039254479764
 20
-8.663940087366926
 10
0.8982805487399993
 20
-8.427042186833365
 10
1.4458641961280525
 20
-8.18789021354608
 10
1.994766062599511
 20
-7.946230934832573
 10
2.5447158990954817
 20
-7.702182458835891
 10
3.0960850464315013
 20
-7.456226229602297
 10
3.6486202719350835
 20
-7.208151052144424
 10
4.201891180719153
 20
-6.957340357886564
 10
4.756210059527736
 20
-6.70414046634553
 10
5.311678000117476
 20
-6.449150929710634
 10
5.8679827157443585
 20
-6.192025428465063
 10
6.425200276866307
 20
-5.932569784007838
 10
6.983313667096919
 20
-5.671113299469385
 10
7.542086670150098
 20
-5.407115476731916
 10
8.10151928602585
 20
-5.140576315795428
 10
8.66171260648082
 20
-4.872095368849233
 10
9.222590561057084
 20
-4.601866814494308
 10
9.784229220212575
 20
-4.329696474129667
 10
10.346316297203256
 20
-4.055238028238511
 10
10.908969900172199
 20
-3.778761725879721
 10
11.472190029119387
 20
-3.500267567053303
 10
12.035841559515367
 20
-3.2198146058307855
 10
12.599747329145584
 20
-2.9369974686238196
 10
13.164025446153085
 20
-2.6520864044913015
 10
13.728641877765067
 20
-2.3657400196940697
 10
14.293807818968887
 20
-2.07770508155963
 10
14.859075858491106
 20
-1.7876943246426804
 10
15.424640174932682
 20
-1.4957838194011517
 10
15.99023051923472
 20
-1.2020916739780936
 10
16.556041069998177
 20
-0.9066939588314301
 10
17.122012773151557
 20
-0.6094555494317077
 10
17.687934433707476
 20
-0.310629678451425
 10
18.25405928433844
 20
-0.01042754087794517
 10
18.820328270972908
 20
0.29128598781817044
 10
19.386412090480473
 20
0.594527924023322
 10
19.9525049214621
 20
0.8992221972795857
 10
20.518589747531408
 20
1.2050395044565534
 10
21.08456547693171
 20
1.5125793977435207
 10
21.65027996874722
 20
1.8214535199385626
 10
22.21585133112092
 20
2.1313916219827664
 10
22.781220509981345
 20
2.4425288284056004
 10
23.346269397185388
 20
2.7551353882659346
 10
23.911116100876153
 20
3.0689410525048997
 10
24.475608480137762
 20
3.383557463920536
 10
25.039763551356632
 20
3.6993139256432723
 10
25.60362335221787
 20
4.0157460100132365
 10
26.16701072050691
 20
4.333259090618769
 10
26.729866602152242
 20
4.651988291989326
 10
27.292309105296894
 20
4.971663365066
 10
27.85424514309656
 20
5.291760828117414
 10
28.415809840080676
 20
5.612339735215086
 10
28.976690909505233
 20
5.933746405875835
 10
29.536947405441758
 20
6.255845715570215
 10
30.096579327890236
 20
6.578637664298226
 10
30.655645730922206
 20
6.901987127530419
 10
31.213817311407247
 20
7.225911121653193
 10
31.77128824794632
 20
7.550333576208621
 10
32.32798247008151
 20
7.875060312595739
 10
32.884153210485316
 20
8.199880135827177
 10
33.439294003812726
 20
8.525215435877668
 10
33.993463904135304
 20
8.850931088217772
 10
34.54709330634009
 20
9.176410524271777
 10
35.09955763693905
 20
9.502346383073316
 10
35.65079784186068
 20
9.828873789151835
 10
36.201303370063535
 20
10.155241049402177
 10
36.75092208063179
 20
10.481059806622403
 10
37.29943477366575
 20
10.807199862060711
 10
37.84676537870748
 20
11.13346703711613
 10
38.39277877122755
 20
11.459802277717147
 10
38.93772818389846
 20
11.785994388876391
 10
39.481537546262246
 20
12.111849191992874
 10
40.024265912390476
 20
12.437231562537166
 10
40.56566004961065
 20
12.762352695496636
 10
41.10560184977968
 20
13.087482839930162
 10
41.6442684751122
 20
13.412216622249426
 10
42.181659925608166
 20
13.73655404245441
 10
42.717565006280225
 20
14.060241867872634
 10
43.252253966187276
 20
14.383398206647136
 10
43.785279394055834
 20
14.706310324223203
 10
44.31670034395742
 20
15.028843096071396
 10
44.84681208624967
 20
15.350320899544478
 10
45.37555556686108
 20
15.67087885917191
 10
45.90254242858969
 20
15.99066911586952
 10
46.4281019745659
 20
16.309674653250923
 10
46.95190490165932
 20
16.6279124877025
 10
47.47408633439937
 20
16.945441673295782
 10
47.994629256399676
 20
17.261932906900363
 10
48.51339854313077
 20
17.5773271344447
 10
49.03064742726518
 20
17.89141316094145
 10
49.545928497529395
 20
18.204478251835873
 10
50.059512002982345
 20
18.516640515271042
 10
50.57106864049361
 20
18.827916967633346
 10
51.08095273449231
 20
19.137496861746097
 10
51.589029160449016
 20
19.44532114353779
 10
52.095213842993466
 20
19.752318668328133
 10
52.59904235446582
 20
20.058447398432016
 10
53.10125737649716
 20
20.362744445756913
 10
53.601529605957026
 20
20.665226826689207
 10
54.09962282655938
 20
20.966435039346706
 10
54.59553703830418
 20
21.26636908372938
 10
55.08933129526299
 20
21.564893835307817
 10
55.581300867793374
 20
21.86133367143476
 10
56.07105739869343
 20
22.155840733026068
 10
56.55869397480749
 20
22.44893850181312
 10
57.04394034707663
 20
22.74050886965287
 10
57.52691462364392
 20
23.03028158748643
 10
58.007734912652396
 20
23.3179864062549
 10
58.486283105959025
 20
23.603893575017178
 10
58.96242407903431
 20
23.887944039701722
 10
59.43641106455081
 20
24.16992660532119
 10
59.90797381344964
 20
24.449723163732536
 10
60.377070288045594
 20
24.72779814259559
 10
60.843430239279854
 20
25.004033433767326
 10
61.307577148883745
 20
25.278335950403417
 10
61.7690886268826
 20
25.55019922715889
 10
62.22823492233528
 20
25.81974137217678
 10
62.684956981170245
 20
26.08709750998652
 10
63.138866446185546
 20
26.35241978150398
 10
63.59002237145277
 20
26.615573062199697
 10
64.03875406010224
 20
26.876540335687267
 10
64.48471519261724
 20
27.1350093152227
 10
64.92815900167018
 20
27.390768805818592
 10
65.36877320051713
 20
27.644165126991794
 10
65.80663385961591
 20
27.89539245734325
 10
66.24166490850865
 20
28.14425661827199
 10
66.67386634719539
 20
28.390757609778024
 10
67.10328021336119
 20
28.6344310042015
 10
67.52986446932093
 20
28.875741229202244
 10
67.95340792008727
 20
29.11443505210779
 10
68.37392758204662
 20
29.350841776048558
 10
68.79160061741352
 20
29.58455602743619
 10
69.20635095573009
 20
29.815383627669743
 10
69.61800143478166
 20
30.043729950337518
 10
70.02655205456833
 20
30.269594995439537
 10
70.43200281509009
 20
30.492978762975813
 10
70.83420157543105
 20
30.71349289574438
 10
71.23353669279317
 20
30.93098525282941
 10
71.6295777722894
 20
31.1460724028066
 10
72.02224874346177
 20
31.358560167074973
 10
72.4116847308398
 20
31.568507599706074
 10
72.79786871803704
 20
31.77558539756948
 10
73.18060652645251
 20
31.979869631123098
 10
73.5601093510736
 20
32.181613533039446
 10
73.93628410505599
 20
32.38029362158711
 10
74.30901268025666
 20
32.576180145825
 10
74.67835413074708
 20
32.76913798122368
 10
75.04413129431272
 20
32.95957250137146
 10
75.40646227909659
 20
33.14721345720946
 10
75.76521196056929
 20
33.332001794666176
 10
76.12043939280231
 20
33.51380238921213
 10
76.47222064625359
 20
33.69280941944832
 10
76.82022641779265
 20
33.869039901761106
 10
77.16445670741962
 20
34.04249383615054
 10
77.50510569373535
 20
34.21309515215865
 10
77.84223243081142
 20
34.38070872525603
 10
78.17538950737438
 20
34.54562182088794
 10
78.5047120479536
 20
34.70789349312592
 10
78.83037721476376
 20
34.86711836838163
 10
79.15219082920379
 20
35.02337251711299
 10
79.4700347831307
 20
35.17692618837889
 10
79.78416230921694
 20
35.32756818719196
 10
80.09436221247519
 20
35.47504528087972
 10
80.40065150929185
 20
35.61968677257257
 10
80.70297114559536
 20
35.76162778679996
 10
81.00118599685628
 20
35.900809269490374
 10
81.29541417121767
 20
36.03696097158491
 10
81.585596614608
 20
36.17021801761302
 10
81.87161521888422
 20
36.30085065663358
 10
82.15352903811788
 20
36.42872376411718
 10
82.43132105592252
 20
36.55350803693336
 10
82.70499127229819
 20
36.67520347508215
 10
82.97443859548827
 20
36.79440963075286
 10
83.23958695503475
 20
36.910932325344504
 10
83.50043635093769
 20
37.02477155885708
 10
83.75704583726859
 20
37.13579220676115
 10
84.00928028949804
 20
37.2439352149852
 10
84.25727483215546
 20
37.34925963760073
 10
84.50077623256833
 20
37.451976669595126
 10
84.73990259887972
 20
37.55181606190949
 10
84.97453582294665
 20
37.649048063602734
 10
85.20492913744148
 20
37.743461479687454
 10
85.43069418516238
 20
37.835208451079524
 10
85.65190703656721
 20
37.924483156379885
 10
85.86849162119807
 20
38.01109141698759
 10
86.08064211765594
 20
38.09495716244471
 10
86.2881052932683
 20
38.17629158773862
 10
86.49113438070769
 20
38.25488349788194
 10
86.68928196870061
 20
38.33102015831998
 10
86.88287736037746
 20
38.40468455266631
 10
87.07165030667937
 20
38.475758572777906
 10
87.2557359321358
 20
38.54430127272628
 10
87.43513423674673
 20
38.610312652511446
 10
87.60978616644061
 20
38.67392783666284
 10
87.77961565075962
 20
38.734952646579494
 10
87.94450458156057
 20
38.79365733132029
 10
88.10464713744453
 20
38.84996582042733
 10
88.25984913981051
 20
38.90395418435852
 10
88.41016964273
 20
38.9554872985844
 10
88.55554959213151
 20
39.004700287634456
 10
88.69604804208656
 20
39.0514580269792
 10
88.83160593852362
 20
39.095895641148104
 10
88.96210517329963
 20
39.138283379200054
 10
89.08752873002823
 20
39.17829193800462
 10
89.20808780369674
 20
39.21617455023433
 10
89.32331796664533
 20
39.251889178204024
 10
89.43368364653382
 20
39.285477859598835
 10
89.5389145943034
 20
39.31682248627573
 10
89.63889270181096
 20
39.34619330729359
 10
89.73381214765743
 20
39.37351425219448
 10
89.82353780731346
 20
39.398726266906905
 10
89.90795157263598
 20
39.42209960048975
 10
89.98730667629741
 20
39.44342305795563
 10
90.06134988562533
 20
39.46290783429192
 10
90.13014025469123
 20
39.48041880496918
 10
90.19355967535208
 20
39.4962262190463
 10
90.25166720167941
 20
39.51019495199384
 10
90.3045389041311
 20
39.52251918241275
 10
90.35190453364831
 20
39.53308080215999
 10
90.39384016068892
 20
39.54207398983657
 10
90.4304809097824
 20
39.54955779951394
 10
90.46155653186986
 20
39.55541412304912
 10
90.4870840433377
 20
39.55997226357249
 10
90.50725762278682
 20
39.56315615062613
 10
90.5216889130154
 20
39.56511792512589
 10
90.53045398448128
 20
39.566051765672746
 10
90.53343472904143
 20
39.566227921325584
  0
ENDSEC
  0
SECTION
  2
OBJECTS
  0
DICTIONARY
  5
A
330
0
100
AcDbDictionary
280
0
281
1
  3
ACAD_COLOR
350
B
  3
ACAD_GROUP
350
C
  3
ACAD_LAYOUT
350
D
  3
ACAD_MATERIAL
350
E
  3
ACAD_MLEADERSTYLE
350
F
  3
ACAD_MLINESTYLE
350
10
  3
ACAD_PLOTSETTINGS
350
11
  3
ACAD_PLOTSTYLENAME
350
12
  3
ACAD_SCALELIST
350
14
  3
ACAD_TABLESTYLE
350
15
  3
ACAD_VISUALSTYLE
350
16
  3
EZDXF_META
350
2D
  0
DICTIONARY
  5
B
330
A
100
AcDbDictionary
280
0
281
1
  0
DICTIONARY
  5
C
330
A
100
AcDbDictionary
280
0
281
1
  0
DICTIONARY
  5
D
330
A
100
AcDbDictionary
280
0
281
1
  3
Model
350
1A
  3
Layout1
350
1E
  0
DICTIONARY
  5
E
330
A
100
AcDbDictionary
280
0
281
1
  3
ByBlock
350
1F
  3
ByLayer
350
20
  3
Global
350
21
  0
DICTIONARY
  5
F
330
A
100
AcDbDictionary
280
0
281
1
  3
Standard
350
2C
  0
DICTIONARY
  5
10
330
A
100
AcDbDictionary
280
0
281
1
  3
Standard
350
22
  0
DICTIONARY
  5
11
330
A
100
AcDbDictionary
280
0
281
1
  0
ACDBDICTIONARYWDFLT
  5
12
330
A
100
AcDbDictionary
280
0
281
1
  3
Normal
350
13
100
AcDbDictionaryWithDefault
340
13
  0
ACDBPLACEHOLDER
  5
13
330
12
  0
DICTIONARY
  5
14
330
A
100
AcDbDictionary
280
0
281
1
  0
DICTIONARY
  5
15
330
A
100
AcDbDictionary
280
0
281
1
  0
DICTIONARY
  5
16
330
A
100
AcDbDictionary
280
0
281
1
  0
LAYOUT
  5
1A
330
D
100
AcDbPlotSettings
  1

  4
A3
  6

 40
7.5
 41
20.0
 42
7.5
 43
20.0
 44
420.0
 45
297.0
 46
0.0
 47
0.0
 48
0.0
 49
0.0
140
0.0
141
0.0
142
1.0
143
1.0
 70
1024
 72
1
 73
0
 74
5
  7

 75
16
 76
0
 77
2
 78
300
147
1.0
148
0.0
149
0.0
100
AcDbLayout
  1
Model
 70
1
 71
0
 10
0.0
 20
0.0
 11
420.0
 21
297.0
 12
0.0
 22
0.0
 32
0.0
 14
1e+20
 24
1e+20
 34
1e+20
 15
-1e+20
 25
-1e+20
 35
-1e+20
146
0.0
 13
0.0
 23
0.0
 33
0.0
 16
1.0
 26
0.0
 36
0.0
 17
0.0
 27
1.0
 37
0.0
 76
1
330
17
  0
LAYOUT
  5
1E
330
D
100
AcDbPlotSettings
  1

  4
A3
  6

 40
7.5
 41
20.0
 42
7.5
 43
20.0
 44
420.0
 45
297.0
 46
0.0
 47
0.0
 48
0.0
 49
0.0
140
0.0
141
0.0
142
1.0
143
1.0
 70
0
 72
1
 73
0
 74
5
  7

 75
16
 76
0
 77
2
 78
300
147
1.0
148
0.0
149
0.0
100
AcDbLayout
  1
Layout1
 70
1
 71
1
 10
0.0
 20
0.0
 11
420.0
 21
297.0
 12
0.0
 22
0.0
 32
0.0
 14
1e+20
 24
1e+20
 34
1e+20
 15
-1e+20
 25
-1e+20
 35
-1e+20
146
0.0
 13
0.0
 23
0.0
 33
0.0
 16
1.0
 26
0.0
 36
0.0
 17
0.0
 27
1.0
 37
0.0
 76
1
330
1B
  0
MATERIAL
  5
1F
102
{ACAD_REACTORS
330
E
102
}
330
E
100
AcDbMaterial
  1
ByBlock
  2

 70
0
 40
1.0
 71
1
 41
1.0
 91
-1023410177
 42
1.0
 72
1
  3

 73
1
 74
1
 75
1
 44
0.5
 73
0
 45
1.0
 46
1.0
 77
1
  4

 78
1
 79
1
170
1
 48
1.0
171
1
  6

172
1
173
1
174
1
140
1.0
141
1.0
175
1
  7

176
1
177
1
178
1
143
1.0
179
1
  8

270
1
271
1
272
1
145
1.0
146
1.0
273
1
  9

274
1
275
1
276
1
 42
1.0
 72
1
  3

 73
1
 74
1
 75
1
 94
63
  0
MATERIAL
  5
20
102
{ACAD_REACTORS
330
E
102
}
330
E
100
AcDbMaterial
  1
ByLayer
  2

 70
0
 40
1.0
 71
1
 41
1.0
 91
-1023410177
 42
1.0
 72
1
  3

 73
1
 74
1
 75
1
 44
0.5
 73
0
 45
1.0
 46
1.0
 77
1
  4

 78
1
 79
1
170
1
 48
1.0
171
1
  6

172
1
173
1
174
1
140
1.0
141
1.0
175
1
  7

176
1
177
1
178
1
143
1.0
179
1
  8

270
1
271
1
272
1
145
1.0
146
1.0
273
1
  9

274
1
275
1
276
1
 42
1.0
 72
1
  3

 73
1
 74
1
 75
1
 94
63
  0
MATERIAL
  5
21
102
{ACAD_REACTORS
330
E
102
}
330
E
100
AcDbMaterial
  1
Global
  2

 70
0
 40
1.0
 71
1
 41
1.0
 91
-1023410177
 42
1.0
 72
1
  3

 73
1
 74
1
 75
1
 44
0.5
 73
0
 45
1.0
 46
1.0
 77
1
  4

 78
1
 79
1
170
1
 48
1.0
171
1
  6

172
1
173
1
174
1
140
1.0
141
1.0
175
1
  7

176
1
177
1
178
1
143
1.0
179
1
  8

270
1
271
1
272
1
145
1.0
146
1.0
273
1
  9

274
1
275
1
276
1
 42
1.0
 72
1
  3

 73
1
 74
1
 75
1
 94
63
  0
MLINESTYLE
  5
22
102
{ACAD_REACTORS
330
10
102
}
330
10
100
AcDbMlineStyle
  2
Standard
 70
0
  3

 62
256
 51
90.0
 52
90.0
 71
2
 49
0.5
 62
256
  6
BYLAYER
 49
-0.5
 62
256
  6
BYLAYER
  0
MLEADERSTYLE
  5
2C
102
{ACAD_REACTORS
330
F
102
}
330
F
100
AcDbMLeaderStyle
179
2
170
2
171
1
172
0
 90
2
 40
0.0
 41
0.0
173
1
 91
-1056964608
 92
-2
290
1
 42
2.0
291
1
 43
8.0
  3
Standard
 44
4.0
300

342
29
174
1
175
1
176
0
178
1
 93
-1056964608
 45
4.0
292
0
297
0
 46
4.0
 94
-1056964608
 47
1.0
 49
1.0
140
1.0
294
1
141
0.0
177
0
142
1.0
295
0
296
0
143
3.75
271
0
272
9
273
9
  0
DICTIONARY
  5
2D
330
A
100
AcDbDictionary
280
1
281
1
  3
CREATED_BY_EZDXF
350
2E
  3
WRITTEN_BY_EZDXF
350
32
  0
DICTIONARYVAR
  5
2E
330
2D
100
DictionaryVariables
280
0
  1
1.3.5 @ 2025-08-18T19:55:49.031487+00:00
  0
DICTIONARYVAR
  5
32
330
2D
100
DictionaryVariables
280
0
  1
1.3.5 @ 2025-08-18T19:55:49.038486+00:00
  0
ENDSEC
  0
EOF
