  0
SECTION
  2
HEADER
  9
$ACADVER
  1
AC1032
  9
$ACADMAINTVER
 90
4
  9
$DWGCODEPAGE
  3
ANSI_1252
  9
$LASTSAVEDBY
  1
ezdxf
  9
$REQUIREDVERSIONS
160
0
  9
$INSBASE
 10
0.0
 20
0.0
 30
0.0
  9
$EXTMIN
 10
1e+20
 20
1e+20
 30
1e+20
  9
$EXTMAX
 10
-1e+20
 20
-1e+20
 30
-1e+20
  9
$LIMMIN
 10
0.0
 20
0.0
  9
$LIMMAX
 10
420.0
 20
297.0
  9
$ORTHOMODE
 70
0
  9
$REGENMODE
 70
1
  9
$FILLMODE
 70
1
  9
$QTEXTMODE
 70
0
  9
$MIRRTEXT
 70
1
  9
$LTSCALE
 40
1.0
  9
$ATTMODE
 70
1
  9
$TEXTSIZE
 40
2.5
  9
$TRACEWID
 40
1.0
  9
$TEXTSTYLE
  7
Standard
  9
$CLAYER
  8
0
  9
$CELTYPE
  6
ByLayer
  9
$CECOLOR
 62
256
  9
$CELTSCALE
 40
1.0
  9
$DISPSILH
 70
0
  9
$DIMSCALE
 40
1.0
  9
$DIMASZ
 40
2.5
  9
$DIMEXO
 40
0.625
  9
$DIMDLI
 40
3.75
  9
$DIMRND
 40
0.0
  9
$DIMDLE
 40
0.0
  9
$DIMEXE
 40
1.25
  9
$DIMTP
 40
0.0
  9
$DIMTM
 40
0.0
  9
$DIMTXT
 40
2.5
  9
$DIMCEN
 40
2.5
  9
$DIMTSZ
 40
0.0
  9
$DIMTOL
 70
0
  9
$DIMLIM
 70
0
  9
$DIMTIH
 70
0
  9
$DIMTOH
 70
0
  9
$DIMSE1
 70
0
  9
$DIMSE2
 70
0
  9
$DIMTAD
 70
1
  9
$DIMZIN
 70
8
  9
$DIMBLK
  1

  9
$DIMASO
 70
1
  9
$DIMSHO
 70
1
  9
$DIMPOST
  1

  9
$DIMAPOST
  1

  9
$DIMALT
 70
0
  9
$DIMALTD
 70
3
  9
$DIMALTF
 40
0.03937007874
  9
$DIMLFAC
 40
1.0
  9
$DIMTOFL
 70
1
  9
$DIMTVP
 40
0.0
  9
$DIMTIX
 70
0
  9
$DIMSOXD
 70
0
  9
$DIMSAH
 70
0
  9
$DIMBLK1
  1

  9
$DIMBLK2
  1

  9
$DIMSTYLE
  2
ISO-25
  9
$DIMCLRD
 70
0
  9
$DIMCLRE
 70
0
  9
$DIMCLRT
 70
0
  9
$DIMTFAC
 40
1.0
  9
$DIMGAP
 40
0.625
  9
$DIMJUST
 70
0
  9
$DIMSD1
 70
0
  9
$DIMSD2
 70
0
  9
$DIMTOLJ
 70
0
  9
$DIMTZIN
 70
8
  9
$DIMALTZ
 70
0
  9
$DIMALTTZ
 70
0
  9
$DIMUPT
 70
0
  9
$DIMDEC
 70
2
  9
$DIMTDEC
 70
2
  9
$DIMALTU
 70
2
  9
$DIMALTTD
 70
3
  9
$DIMTXSTY
  7
Standard
  9
$DIMAUNIT
 70
0
  9
$DIMADEC
 70
0
  9
$DIMALTRND
 40
0.0
  9
$DIMAZIN
 70
0
  9
$DIMDSEP
 70
44
  9
$DIMATFIT
 70
3
  9
$DIMFRAC
 70
0
  9
$DIMLDRBLK
  1

  9
$DIMLUNIT
 70
2
  9
$DIMLWD
 70
-2
  9
$DIMLWE
 70
-2
  9
$DIMTMOVE
 70
0
  9
$DIMFXL
 40
1.0
  9
$DIMFXLON
 70
0
  9
$DIMJOGANG
 40
0.785398163397
  9
$DIMTFILL
 70
0
  9
$DIMTFILLCLR
 70
0
  9
$DIMARCSYM
 70
0
  9
$DIMLTYPE
  6

  9
$DIMLTEX1
  6

  9
$DIMLTEX2
  6

  9
$DIMTXTDIRECTION
 70
0
  9
$LUNITS
 70
2
  9
$LUPREC
 70
4
  9
$SKETCHINC
 40
1.0
  9
$FILLETRAD
 40
10.0
  9
$AUNITS
 70
0
  9
$AUPREC
 70
2
  9
$MENU
  1
.
  9
$ELEVATION
 40
0.0
  9
$PELEVATION
 40
0.0
  9
$THICKNESS
 40
0.0
  9
$LIMCHECK
 70
0
  9
$CHAMFERA
 40
0.0
  9
$CHAMFERB
 40
0.0
  9
$CHAMFERC
 40
0.0
  9
$CHAMFERD
 40
0.0
  9
$SKPOLY
 70
0
  9
$TDCREATE
 40
2460906.8720949073
  9
$TDUCREATE
 40
2458532.153996898
  9
$TDUPDATE
 40
2460906.8720949073
  9
$TDUUPDATE
 40
2458532.1544311
  9
$TDINDWG
 40
0.0
  9
$TDUSRTIMER
 40
0.0
  9
$USRTIMER
 70
1
  9
$ANGBASE
 50
0.0
  9
$ANGDIR
 70
0
  9
$PDMODE
 70
0
  9
$PDSIZE
 40
0.0
  9
$PLINEWID
 40
0.0
  9
$SPLFRAME
 70
0
  9
$SPLINETYPE
 70
6
  9
$SPLINESEGS
 70
8
  9
$HANDSEED
  5
33
  9
$SURFTAB1
 70
6
  9
$SURFTAB2
 70
6
  9
$SURFTYPE
 70
6
  9
$SURFU
 70
6
  9
$SURFV
 70
6
  9
$UCSBASE
  2

  9
$UCSNAME
  2

  9
$UCSORG
 10
0.0
 20
0.0
 30
0.0
  9
$UCSXDIR
 10
1.0
 20
0.0
 30
0.0
  9
$UCSYDIR
 10
0.0
 20
1.0
 30
0.0
  9
$UCSORTHOREF
  2

  9
$UCSORTHOVIEW
 70
0
  9
$UCSORGTOP
 10
0.0
 20
0.0
 30
0.0
  9
$UCSORGBOTTOM
 10
0.0
 20
0.0
 30
0.0
  9
$UCSORGLEFT
 10
0.0
 20
0.0
 30
0.0
  9
$UCSORGRIGHT
 10
0.0
 20
0.0
 30
0.0
  9
$UCSORGFRONT
 10
0.0
 20
0.0
 30
0.0
  9
$UCSORGBACK
 10
0.0
 20
0.0
 30
0.0
  9
$PUCSBASE
  2

  9
$PUCSNAME
  2

  9
$PUCSORG
 10
0.0
 20
0.0
 30
0.0
  9
$PUCSXDIR
 10
1.0
 20
0.0
 30
0.0
  9
$PUCSYDIR
 10
0.0
 20
1.0
 30
0.0
  9
$PUCSORTHOREF
  2

  9
$PUCSORTHOVIEW
 70
0
  9
$PUCSORGTOP
 10
0.0
 20
0.0
 30
0.0
  9
$PUCSORGBOTTOM
 10
0.0
 20
0.0
 30
0.0
  9
$PUCSORGLEFT
 10
0.0
 20
0.0
 30
0.0
  9
$PUCSORGRIGHT
 10
0.0
 20
0.0
 30
0.0
  9
$PUCSORGFRONT
 10
0.0
 20
0.0
 30
0.0
  9
$PUCSORGBACK
 10
0.0
 20
0.0
 30
0.0
  9
$USERI1
 70
0
  9
$USERI2
 70
0
  9
$USERI3
 70
0
  9
$USERI4
 70
0
  9
$USERI5
 70
0
  9
$USERR1
 40
0.0
  9
$USERR2
 40
0.0
  9
$USERR3
 40
0.0
  9
$USERR4
 40
0.0
  9
$USERR5
 40
0.0
  9
$WORLDVIEW
 70
1
  9
$SHADEDGE
 70
3
  9
$SHADEDIF
 70
70
  9
$TILEMODE
 70
1
  9
$MAXACTVP
 70
64
  9
$PINSBASE
 10
0.0
 20
0.0
 30
0.0
  9
$PLIMCHECK
 70
0
  9
$PEXTMIN
 10
1e+20
 20
1e+20
 30
1e+20
  9
$PEXTMAX
 10
-1e+20
 20
-1e+20
 30
-1e+20
  9
$PLIMMIN
 10
0.0
 20
0.0
  9
$PLIMMAX
 10
420.0
 20
297.0
  9
$UNITMODE
 70
0
  9
$VISRETAIN
 70
1
  9
$PLINEGEN
 70
0
  9
$PSLTSCALE
 70
1
  9
$TREEDEPTH
 70
3020
  9
$CMLSTYLE
  2
Standard
  9
$CMLJUST
 70
0
  9
$CMLSCALE
 40
20.0
  9
$PROXYGRAPHICS
 70
1
  9
$MEASUREMENT
 70
1
  9
$CELWEIGHT
370
-1
  9
$ENDCAPS
280
0
  9
$JOINSTYLE
280
0
  9
$LWDISPLAY
290
0
  9
$INSUNITS
 70
6
  9
$HYPERLINKBASE
  1

  9
$STYLESHEET
  1

  9
$XEDIT
290
1
  9
$CEPSNTYPE
380
0
  9
$PSTYLEMODE
290
1
  9
$FINGERPRINTGUID
  2
{8FE7F18E-A630-43A8-BA3C-59BFF9D52CC7}
  9
$VERSIONGUID
  2
{27CA89C4-F610-4F01-AD5A-FBAC54669565}
  9
$EXTNAMES
290
1
  9
$PSVPSCALE
 40
0.0
  9
$OLESTARTUP
290
0
  9
$SORTENTS
280
127
  9
$INDEXCTL
280
0
  9
$HIDETEXT
280
1
  9
$XCLIPFRAME
280
1
  9
$HALOGAP
280
0
  9
$OBSCOLOR
 70
257
  9
$OBSLTYPE
280
0
  9
$INTERSECTIONDISPLAY
280
0
  9
$INTERSECTIONCOLOR
 70
257
  9
$DIMASSOC
280
2
  9
$PROJECTNAME
  1

  9
$CAMERADISPLAY
290
0
  9
$LENSLENGTH
 40
50.0
  9
$CAMERAHEIGHT
 40
0.0
  9
$STEPSPERSEC
 40
24.0
  9
$STEPSIZE
 40
100.0
  9
$3DDWFPREC
 40
2.0
  9
$PSOLWIDTH
 40
0.005
  9
$PSOLHEIGHT
 40
0.08
  9
$LOFTANG1
 40
1.570796326795
  9
$LOFTANG2
 40
1.570796326795
  9
$LOFTMAG1
 40
0.0
  9
$LOFTMAG2
 40
0.0
  9
$LOFTPARAM
 70
7
  9
$LOFTNORMALS
280
1
  9
$LATITUDE
 40
37.795
  9
$LONGITUDE
 40
-122.394
  9
$NORTHDIRECTION
 40
0.0
  9
$TIMEZONE
 70
-8000
  9
$LIGHTGLYPHDISPLAY
280
1
  9
$TILEMODELIGHTSYNCH
280
1
  9
$CMATERIAL
347
20
  9
$SOLIDHIST
280
0
  9
$SHOWHIST
280
1
  9
$DWFFRAME
280
2
  9
$DGNFRAME
280
2
  9
$REALWORLDSCALE
290
1
  9
$INTERFERECOLOR
 62
256
  9
$CSHADOW
280
0
  9
$SHADOWPLANELOCATION
 40
0.0
  0
ENDSEC
  0
SECTION
  2
CLASSES
  0
CLASS
  1
ACDBDICTIONARYWDFLT
  2
AcDbDictionaryWithDefault
  3
ObjectDBX Classes
 90
0
 91
0
280
0
281
0
  0
CLASS
  1
SUN
  2
AcDbSun
  3
SCENEOE
 90
1153
 91
0
280
0
281
0
  0
CLASS
  1
VISUALSTYLE
  2
AcDbVisualStyle
  3
ObjectDBX Classes
 90
4095
 91
0
280
0
281
0
  0
CLASS
  1
MATERIAL
  2
AcDbMaterial
  3
ObjectDBX Classes
 90
1153
 91
0
280
0
281
0
  0
CLASS
  1
SCALE
  2
AcDbScale
  3
ObjectDBX Classes
 90
1153
 91
0
280
0
281
0
  0
CLASS
  1
TABLESTYLE
  2
AcDbTableStyle
  3
ObjectDBX Classes
 90
4095
 91
0
280
0
281
0
  0
CLASS
  1
MLEADERSTYLE
  2
AcDbMLeaderStyle
  3
ACDB_MLEADERSTYLE_CLASS
 90
4095
 91
0
280
0
281
0
  0
CLASS
  1
DICTIONARYVAR
  2
AcDbDictionaryVar
  3
ObjectDBX Classes
 90
0
 91
0
280
0
281
0
  0
CLASS
  1
CELLSTYLEMAP
  2
AcDbCellStyleMap
  3
ObjectDBX Classes
 90
1152
 91
0
280
0
281
0
  0
CLASS
  1
MENTALRAYRENDERSETTINGS
  2
AcDbMentalRayRenderSettings
  3
SCENEOE
 90
1024
 91
0
280
0
281
0
  0
CLASS
  1
ACDBDETAILVIEWSTYLE
  2
AcDbDetailViewStyle
  3
ObjectDBX Classes
 90
1025
 91
0
280
0
281
0
  0
CLASS
  1
ACDBSECTIONVIEWSTYLE
  2
AcDbSectionViewStyle
  3
ObjectDBX Classes
 90
1025
 91
0
280
0
281
0
  0
CLASS
  1
RASTERVARIABLES
  2
AcDbRasterVariables
  3
ISM
 90
0
 91
0
280
0
281
0
  0
CLASS
  1
LAYOUT
  2
AcDbLayout
  3
ObjectDBX Classes
 90
0
 91
0
280
0
281
0
  0
CLASS
  1
ACDBPLACEHOLDER
  2
AcDbPlaceHolder
  3
ObjectDBX Classes
 90
0
 91
0
280
0
281
0
  0
ENDSEC
  0
SECTION
  2
TABLES
  0
TABLE
  2
VPORT
  5
8
330
0
100
AcDbSymbolTable
 70
1
  0
VPORT
  5
23
330
8
100
AcDbSymbolTableRecord
100
AcDbViewportTableRecord
  2
*Active
 70
0
 10
0.0
 20
0.0
 11
1.0
 21
1.0
 12
0.0
 22
0.0
 13
0.0
 23
0.0
 14
0.5
 24
0.5
 15
0.5
 25
0.5
 16
0.0
 26
0.0
 36
1.0
 17
0.0
 27
0.0
 37
0.0
 40
1000.0
 41
1.34
 42
50.0
 43
0.0
 44
0.0
 50
0.0
 51
0.0
 71
0
 72
1000
 73
1
 74
3
 75
0
 76
0
 77
0
 78
0
281
0
 65
0
146
0.0
  0
ENDTAB
  0
TABLE
  2
LTYPE
  5
2
330
0
100
AcDbSymbolTable
 70
3
  0
LTYPE
  5
24
330
2
100
AcDbSymbolTableRecord
100
AcDbLinetypeTableRecord
  2
ByBlock
 70
0
  3

 72
65
 73
0
 40
0.0
  0
LTYPE
  5
25
330
2
100
AcDbSymbolTableRecord
100
AcDbLinetypeTableRecord
  2
ByLayer
 70
0
  3

 72
65
 73
0
 40
0.0
  0
LTYPE
  5
26
330
2
100
AcDbSymbolTableRecord
100
AcDbLinetypeTableRecord
  2
Continuous
 70
0
  3

 72
65
 73
0
 40
0.0
  0
ENDTAB
  0
TABLE
  2
LAYER
  5
1
330
0
100
AcDbSymbolTable
 70
2
  0
LAYER
  5
27
330
1
100
AcDbSymbolTableRecord
100
AcDbLayerTableRecord
  2
0
 70
0
 62
7
  6
Continuous
370
-3
390
13
347
21
  0
LAYER
  5
28
330
1
100
AcDbSymbolTableRecord
100
AcDbLayerTableRecord
  2
Defpoints
 70
0
 62
7
  6
Continuous
290
0
370
-3
390
13
347
21
  0
ENDTAB
  0
TABLE
  2
STYLE
  5
5
330
0
100
AcDbSymbolTable
 70
1
  0
STYLE
  5
29
330
5
100
AcDbSymbolTableRecord
100
AcDbTextStyleTableRecord
  2
Standard
 70
0
 40
0.0
 41
1.0
 50
0.0
 71
0
 42
2.5
  3
txt
  4

  0
ENDTAB
  0
TABLE
  2
VIEW
  5
7
330
0
100
AcDbSymbolTable
 70
0
  0
ENDTAB
  0
TABLE
  2
UCS
  5
6
330
0
100
AcDbSymbolTable
 70
0
  0
ENDTAB
  0
TABLE
  2
APPID
  5
3
330
0
100
AcDbSymbolTable
 70
3
  0
APPID
  5
2A
330
3
100
AcDbSymbolTableRecord
100
AcDbRegAppTableRecord
  2
ACAD
 70
0
  0
APPID
  5
30
330
3
100
AcDbSymbolTableRecord
100
AcDbRegAppTableRecord
  2
HATCHBACKGROUNDCOLOR
 70
0
  0
APPID
  5
31
330
3
100
AcDbSymbolTableRecord
100
AcDbRegAppTableRecord
  2
EZDXF
 70
0
  0
ENDTAB
  0
TABLE
  2
DIMSTYLE
  5
4
330
0
100
AcDbSymbolTable
 70
1
100
AcDbDimStyleTable
  0
DIMSTYLE
105
2B
330
4
100
AcDbSymbolTableRecord
100
AcDbDimStyleTableRecord
  2
Standard
 70
0
 40
1.0
 41
2.5
 42
0.625
 43
3.75
 44
1.25
 45
0.0
 46
0.0
 47
0.0
 48
0.0
 49
2.5
140
2.5
141
2.5
142
0.0
143
0.03937007874
144
1.0
145
0.0
146
1.0
147
0.625
148
0.0
 69
0
 70
0
 71
0
 72
0
 73
0
 74
0
 75
0
 76
0
 77
1
 78
8
 79
3
170
0
171
3
172
1
173
0
174
0
175
0
176
0
177
0
178
0
179
2
271
2
272
2
273
2
274
3
275
0
276
0
277
2
278
44
279
0
280
0
281
0
282
0
283
0
284
8
285
0
286
0
288
0
289
3
290
0
371
-2
372
-2
  0
ENDTAB
  0
TABLE
  2
BLOCK_RECORD
  5
9
330
0
100
AcDbSymbolTable
 70
2
  0
BLOCK_RECORD
  5
17
330
9
100
AcDbSymbolTableRecord
100
AcDbBlockTableRecord
  2
*Model_Space
340
1A
 70
0
280
1
281
0
  0
BLOCK_RECORD
  5
1B
330
9
100
AcDbSymbolTableRecord
100
AcDbBlockTableRecord
  2
*Paper_Space
340
1E
 70
0
280
1
281
0
  0
ENDTAB
  0
ENDSEC
  0
SECTION
  2
BLOCKS
  0
BLOCK
  5
18
330
17
100
AcDbEntity
  8
0
100
AcDbBlockBegin
  2
*Model_Space
 70
0
 10
0.0
 20
0.0
 30
0.0
  3
*Model_Space
  1

  0
ENDBLK
  5
19
330
17
100
AcDbEntity
  8
0
100
AcDbBlockEnd
  0
BLOCK
  5
1C
330
1B
100
AcDbEntity
  8
0
100
AcDbBlockBegin
  2
*Paper_Space
 70
0
 10
0.0
 20
0.0
 30
0.0
  3
*Paper_Space
  1

  0
ENDBLK
  5
1D
330
1B
100
AcDbEntity
  8
0
100
AcDbBlockEnd
  0
ENDSEC
  0
SECTION
  2
ENTITIES
  0
LWPOLYLINE
  5
2F
330
17
100
AcDbEntity
  8
0
100
AcDbPolyline
 90
721
 70
1
 10
52.61592400102059
 20
4.791050519829001
 10
52.614381851901705
 20
4.791464372826211
 10
52.60976970618836
 20
4.792548869358137
 10
52.60211616716725
 20
4.793989884505365
 10
52.59132840196523
 20
4.795937329905933
 10
52.57758492550694
 20
4.798169913513625
 10
52.560800055740906
 20
4.800759015736624
 10
52.54090241225894
 20
4.8036189545234045
 10
52.51804905752071
 20
4.806764031517307
 10
52.492168611118096
 20
4.810108564666814
 10
52.463168240177865
 20
4.813802465609954
 10
52.431219308803065
 20
4.817702973530366
 10
52.396243285763866
 20
4.82180293760638
 10
52.358233020238565
 20
4.826180889067846
 10
52.31720281387052
 20
4.830679765455059
 10
52.27313836501641
 20
4.835456629227728
 10
52.22612535572772
 20
4.840440099977668
 10
52.17608525477462
 20
4.845623026883209
 10
52.12301091133543
 20
4.8510839411742035
 10
52.066995158283355
 20
4.856672931212618
 10
52.00794516274519
 20
4.862539908636485
 10
51.94587522636429
 20
4.8685278109861025
 10
51.88092810995698
 20
4.874808002364514
 10
51.81287537065544
 20
4.881280499076856
 10
51.741952602149176
 20
4.887966753588142
 10
51.6680027419785
 20
4.8948524642550275
 10
51.591104321373244
 20
4.901944781899186
 10
51.511257340333444
 20
4.909243706520618
 10
51.42845464803741
 20
4.916827769349173
 10
51.34269624448513
 20
4.924696970384854
 10
51.253996431319976
 20
4.932694247167953
 10
51.16234090689858
 20
4.940976662158178
 10
51.06781535327248
 20
4.949472834947347
 10
50.97033408839012
 20
4.95825414594364
 10
50.869911413894904
 20
4.967163532687354
 10
50.76661155937328
 20
4.976365208459861
 10
50.66042737400361
 20
4.985937704491019
 10
50.55138031025091
 20
4.995645427091269
 10
50.439377535241974
 20
5.005638287898642
 10
50.32458326225817
 20
5.015852057326629
 10
50.20683327801815
 20
5.026350964961743
 10
50.08628464498158
 20
5.0371493124473234
 10
49.96285883191866
 20
5.0482399489617
 10
49.83663437005918
 20
5.059630025326543
 10
49.70753987899501
 20
5.07123385949033
 10
49.575653889955966
 20
5.0830586022747335
 10
49.440883570068884
 20
5.095254165317785
 10
49.30339313261511
 20
5.107756319032974
 10
49.16310404636482
 20
5.120557912598631
 10
49.02001631131799
 20
5.133658946014754
 10
48.874129927474634
 20
5.147059419281346
 10
48.725516275242946
 20
5.160845014449929
 10
48.57410397421471
 20
5.174930049468979
 10
48.41996440479813
 20
5.18940020639002
 10
48.26310471781486
 20
5.2041769539831995
 10
48.10353921490828
 20
5.219103229788814
 10
47.94133212566487
 20
5.234343247088238
 10
47.77639061721143
 20
5.250046917519505
 10
47.608714689547966
 20
5.266214241082615
 10
47.43840432636936
 20
5.282616774909684
 10
47.265452376853936
 20
5.299333050230563
 10
47.08985884100168
 20
5.31636306704525
 10
46.91160226634758
 20
5.333942419043306
 10
46.73071840700001
 20
5.351678450075468
 10
46.54727149254545
 20
5.369735373423111
 10
46.36125437216227
 20
5.388191720316087
 10
46.1725813637989
 20
5.407118871162578
 10
45.98141668073674
 20
5.426452596376074
 10
45.78768894256763
 20
5.446107213905053
 10
45.59139814929153
 20
5.466082723749512
 10
45.392608530494975
 20
5.486543339190829
 10
45.19134868946465
 20
5.507174935309594
 10
44.98752579332732
 20
5.528127423743841
 10
44.78128975372107
 20
5.549493637366764
 10
44.57264057064588
 20
5.571273576178363
 10
44.361514014515244
 20
5.593303026897264
 10
44.147902934507506
 20
5.615660520753319
 10
43.931964393082325
 20
5.638360359389868
 10
43.71360555736653
 20
5.661552454444943
 10
43.49284787982517
 20
5.685001212228996
 10
43.26976989168804
 20
5.708713783563689
 10
43.04437159295517
 20
5.732690168449025
 10
42.81663868198322
 20
5.75708742934471
 10
42.58657115877218
 20
5.781905566250743
 10
42.35417617414372
 20
5.807066047937271
 10
42.11961794137923
 20
5.832504644817786
 10
41.882732247197325
 20
5.858285586478797
 10
41.64359762282783
 20
5.884416023741973
 10
41.40231405196566
 20
5.910667513739431
 10
41.15879585255928
 20
5.937111436879353
 10
40.913100103373495
 20
5.963990537672965
 10
40.66530533563819
 20
5.991311966941939
 10
40.415268788537
 20
6.018904360583227
 10
40.163168976994626
 20
6.046546426550617
 10
39.9089772977244
 20
6.074552289763518
 10
39.65270090154798
 20
6.102843418992075
 10
39.39433263764372
 20
6.1314983454661425
 10
39.133965338884764
 20
6.160367157547685
 10
38.871599005271165
 20
6.189449855236706
 10
38.607155105573064
 20
6.218739287711531
 10
38.34078355142845
 20
6.248328287845357
 10
38.072405811607524
 20
6.278209704816513
 10
37.80211471898345
 20
6.308233626986964
 10
37.52991027355623
 20
6.33840005435671
 10
37.25587100655572
 20
6.368716137747423
 10
36.979911235930416
 20
6.399253257567286
 10
36.70209519126679
 20
6.430175627097671
 10
36.422365793800026
 20
6.461240501827352
 10
36.14095148639802
 20
6.492547865451196
 10
35.857723809887744
 20
6.523769291406452
 10
35.57267561344752
 20
6.554983310922968
 10
35.28594250707202
 20
6.5864398193336475
 10
34.99751733993961
 20
6.61821734786834
 10
34.707264502055594
 20
6.650066001194149
 10
34.415512419982704
 20
6.681857320138054
 10
34.122032650853065
 20
6.713491321005188
 10
33.82696080466135
 20
6.74521789912845
 10
33.53021119935606
 20
6.777108434916023
 10
33.231948048218584
 20
6.809098698781398
 10
32.93211427248404
 20
6.840945946213342
 10
32.63077410173897
 20
6.872814390493235
 10
32.327913234340016
 20
6.9048610940807835
 10
32.023567424395544
 20
6.936693400826719
 10
31.717743822727225
 20
6.968232779501197
 10
31.410563737686395
 20
6.999886187896818
 10
31.10187725763504
 20
7.031560793140388
 10
30.791834294211167
 20
7.063349428105099
 10
30.480477752344836
 20
7.094780905411841
 10
30.16780048121435
 20
7.125933756290464
 10
29.853788179176377
 20
7.156965043200674
 10
29.538419393765896
 20
7.1881103598320255
 10
29.221879790729307
 20
7.219069882908456
 10
28.90404091089359
 20
7.249515185867211
 10
28.585116895483274
 20
7.279703314862862
 10
28.264914927930327
 20
7.3100126244013275
 10
27.943542142751248
 20
7.34013614038487
 10
27.62102714323275
 20
7.369759737894082
 10
27.29751269019119
 20
7.399054781032007
 10
26.972834570345178
 20
7.4280854993851575
 10
26.647142695332768
 20
7.456944725826728
 10
26.320365684745763
 20
7.485546778305193
 10
25.99259637145736
 20
7.5137417451825215
 10
25.66391328669743
 20
7.541536777280385
 10
25.33423789923609
 20
7.568924723777111
 10
25.00372727153307
 20
7.595919886316043
 10
24.672224341128647
 20
7.622507963253836
 10
24.339871868839204
 20
7.648860318693543
 10
24.00667700548639
 20
7.674898421405305
 10
23.67267550517858
 20
7.700229615239865
 10
23.33785306627242
 20
7.725010962656925
 10
23.00235960040595
 20
7.749335296529683
 10
22.666030894297784
 20
7.773266846444645
 10
22.329038312050976
 20
7.79666285158545
 10
21.991389004487207
 20
7.819444780722249
 10
21.653090122428125
 20
7.841534102625187
 10
21.31412736423041
 20
7.863087879753967
 10
20.974572110302237
 20
7.884191794160117
 10
20.634424360643592
 20
7.9048458458436315
 10
20.29378409894936
 20
7.92482159193663
 10
19.952579944811355
 20
7.944033350387588
 10
19.610897580281087
 20
7.962409740788321
 10
19.268794084123414
 20
7.980193507650062
 10
18.926169472643455
 20
7.997613093840695
 10
18.583195109944263
 20
8.014525738543854
 10
18.239849671369356
 20
8.030296041099056
 10
17.896090251988714
 20
8.045395188885411
 10
17.552066763440358
 20
8.059916014776112
 10
17.207714976137787
 20
8.07369430548979
 10
16.86304204090267
 20
8.086651529796585
 10
16.518183567729693
 20
8.0990375830294
 10
16.17306817621067
 20
8.110766783136715
 10
15.82779585004048
 20
8.121610687250636
 10
15.482288057989265
 20
8.131562144549498
 10
15.136694711695068
 20
8.140713987906498
 10
14.791008660336201
 20
8.14914474855148
 10
14.44525135637769
 20
8.156618832794894
 10
14.099415648997851
 20
8.163214771866588
 10
13.753572918604885
 20
8.169018247818093
 10
13.407623181503913
 20
8.174257703517286
 10
13.061766405084661
 20
8.178476253228398
 10
12.716002589347145
 20
8.181673896951434
 10
12.370324583469685
 20
8.18392916591624
 10
12.024725236630601
 20
8.185320591352673
 10
11.679290230881437
 20
8.18577679285255
 10
11.333933884170651
 20
8.185369150824052
 10
10.988820409779628
 20
8.184033435680668
 10
10.643964109351712
 20
8.181612584962696
 10
10.299357832065224
 20
8.178185129899987
 10
9.9549944270985
 20
8.173829601722394
 10
9.61088104527321
 20
8.168467469200065
 10
9.267189050692398
 20
8.161955971516637
 10
8.923825610482869
 20
8.154445020310142
 10
8.580854954231137
 20
8.146098828861959
 10
8.238234304815702
 20
8.136517590201155
 10
7.896106423052929
 20
8.125872668430773
 10
7.5544498564778015
 20
8.114399657240375
 10
7.213207526325487
 20
8.10185581211873
 10
6.872550796699028
 20
8.088098372249478
 10
6.532465365955076
 20
8.073284400092323
 10
6.192887004507134
 20
8.057249682365887
 10
5.853958473171552
 20
8.04016558317322
 10
5.515615542361828
 20
8.021867889232944
 10
5.178008123715994
 20
8.002449433418256
 10
4.840957702309325
 20
7.982131507775368
 10
4.504635642244876
 20
7.960771351487921
 10
4.169070546809334
 20
7.938054839636503
 10
3.834255265181017
 20
7.914060503450967
 10
3.500246876124777
 20
7.889031087442544
 10
3.1670525304622754
 20
7.862888060381377
 10
2.834679379015184
 20
7.835552891037618
 10
2.5032059530133632
 20
7.807032730232935
 10
2.1725394195836065
 20
7.7774774896053644
 10
1.8427440083124311
 20
7.747051382436279
 10
1.5139268537163726
 20
7.715447434627944
 10
1.1861022574387783
 20
7.682508583720651
 10
0.8592559178362934
 20
7.648391892174108
 10
0.5334592153171149
 20
7.6131830420398385
 10
0.20863361865137536
 20
7.5768748824961705
 10
-0.11514949175273277
 20
7.539553095594626
 10
-0.4378187354870414
 20
7.5013033633867305
 10
-0.759424040494701
 20
7.4618044101314025
 10
-1.0798868755458684
 20
7.4210633866503155
 10
-1.3991644635190508
 20
7.379480099914399
 10
-1.7173210340007514
 20
7.33689033664228
 10
-2.0341923737095993
 20
7.2932298672474465
 10
-2.3499355451052977
 20
7.248484390086557
 10
-2.6643934857281364
 20
7.202668206802955
 10
-2.977501965991615
 20
7.155945530678017
 10
-3.2894251991771015
 20
7.108380591298249
 10
-3.6000488999463953
 20
7.059587883336065
 10
-3.909258910769814
 20
7.010052895813918
 10
-4.217148064520549
 20
6.959925540369843
 10
-4.523751987498434
 20
6.908727478803056
 10
-4.828835086013906
 20
6.856480163578569
 10
-5.132497343761835
 20
6.803412037564268
 10
-5.434745911563889
 20
6.749601631990006
 10
-5.735566487776723
 20
6.694891884396078
 10
-6.0348091607623084
 20
6.63937562765568
 10
-6.33263099298035
 20
6.583038560125467
 10
-6.628896374436157
 20
6.526130577138339
 10
-6.923591003486386
 20
6.468494616234595
 10
-7.216707729309362
 20
6.410052146184379
 10
-7.508253702726765
 20
6.3508816982175444
 10
-7.798164694152077
 20
6.2911474856154666
 10
-8.08651923481515
 20
6.230842357556475
 10
-8.373145960612945
 20
6.169823553224208
 10
-8.658044871545457
 20
6.108091072618665
 10
-8.941287348020861
 20
6.045559233688323
 10
-9.22280200963099
 20
5.982313718484703
 10
-9.502610308840845
 20
5.918590120697366
 10
-9.78064086524225
 20
5.854474122377833
 10
-10.056865075548522
 20
5.789651598606695
 10
-10.33136147098951
 20
5.724115398562282
 10
-10.603887307053993
 20
5.657808443479755
 10
-10.874621098666674
 20
5.590952025405327
 10
-11.143569996649239
 20
5.523624675568852
 10
-11.410576938541977
 20
5.4558406956136745
 10
-11.675634773523218
 20
5.387521554309937
 10
-11.938800580357803
 20
5.318424507146415
 10
-12.20002443110256
 20
5.248870829864189
 10
-12.459327778222507
 20
5.179096116152813
 10
-12.716596336379432
 20
5.1087148606847
 10
-12.971908636803185
 20
5.0377199126381775
 10
-13.225121918677415
 20
4.966282636116293
 10
-13.476314713231965
 20
4.894395880297375
 10
-13.725494171288506
 20
4.822138176411276
 10
-13.972560309152176
 20
4.749281081590109
 10
-14.217527428466315
 20
4.675981658293582
 10
-14.460395529230924
 20
4.602239906521691
 10
-14.701193214732688
 20
4.528369951193847
 10
-14.939756271690236
 20
4.4543075627235424
 10
-15.17622031009825
 20
4.379802845777874
 10
-15.410492497083538
 20
4.304705888718811
 10
-15.642522904702936
 20
4.229337967287433
 10
-15.872404365829636
 20
4.153848993121772
 10
-16.1000297459471
 20
4.0779319921240935
 10
-16.325334815468825
 20
4.0017511775757715
 10
-16.548483787676176
 20
3.9253707790633157
 10
-16.76931960010945
 20
3.848805098230069
 10
-16.987820800303652
 20
3.7718185413864727
 10
-17.204008840723777
 20
3.694646702222087
 10
-17.417890872191496
 20
3.617368111966761
 10
-17.629459743885143
 20
3.539904239390645
 10
-17.838636924574864
 20
3.4622622353154093
 10
-18.045415263438986
 20
3.3843635685112
 10
-18.24988044252904
 20
3.3062796193862023
 10
-18.451875399385315
 20
3.2280246895837537
 10
-18.65141443565116
 20
3.1497558415635623
 10
-18.848640312142926
 20
3.07130171122258
 10
-19.043317435171065
 20
2.9926837510258197
 10
-19.235517185143756
 20
2.91381627892176
 10
-19.42526816534768
 20
2.835013419829808
 10
-19.612570375782845
 20
2.7562751737499642
 10
-19.79733098357605
 20
2.6774516290441963
 10
-19.97954283790563
 20
2.598464254482651
 10
-20.159277319179758
 20
2.519227368013805
 10
-20.336413119047087
 20
2.4401479274302633
 10
-20.511021617915805
 20
2.3611402506805006
 10
-20.68308851414256
 20
2.2820472753048135
 10
-20.85253527649751
 20
2.2028761521248734
 10
-21.01937620662399
 20
2.1237839436003836
 10
-21.183597002878653
 20
2.0446135872716416
 10
-21.345204816083182
 20
1.9654436143684981
 10
-21.50420679705925
 20
1.8863525561208054
 10
-21.660510112933647
 20
1.8071905008905313
 10
-21.8141362161714
 20
1.728193042367232
 10
-21.965135034715672
 20
1.6490389048098268
 10
-22.11345664062329
 20
1.5700493639593969
 10
-22.259093883072588
 20
1.4911458885860898
 10
-22.4020396112419
 20
1.4122499474600516
 10
-22.54221529390136
 20
1.333368691402957
 10
-22.67970661310251
 20
1.254573500822984
 10
-22.814456490080495
 20
1.1761071202313618
 10
-22.946450623191986
 20
1.0978124871683863
 10
-23.07568901243697
 20
1.0196896016340564
 10
-23.202257339866982
 20
0.9418098440365542
 10
-23.32599139220064
 20
0.8641089847893692
 10
-23.446984002311133
 20
0.7867369355305356
 10
-23.565170940611964
 20
0.7098579095414281
 10
-23.68063073833298
 20
0.6334647560003762
 10
-23.79327056260098
 20
0.5574075632693466
 10
-23.9031760954675
 20
0.48175771175651977
 10
-24.01019027447283
 20
0.4065295031052393
 10
-24.114484463720007
 20
0.3318656981318655
 10
-24.215908751571018
 20
0.25785912970959524
 10
-24.31452736761236
 20
0.18434558455705125
 10
-24.410340311844024
 20
0.11132506267423446
 10
-24.50334758426603
 20
0.03879756406114404
 10
-24.59348495529186
 20
-0.033072698000843816
 10
-24.680752424921508
 20
-0.10428572351172867
 10
-24.765207071919818
 20
-0.175084256982739
 10
-24.846791817521954
 20
-0.24522555390264716
 10
-24.92547805844122
 20
-0.3150237391908617
 10
-25.00129439796432
 20
-0.38416468792797365
 10
-25.074212232804545
 20
-0.45296252503339174
 10
-25.144245864605253
 20
-0.5212601880474113
 10
-25.21139529336645
 20
-0.5890576769700338
 10
-25.275574837036594
 20
-0.6564263722094384
 10
-25.33695585971875
 20
-0.7232235129492641
 10
-25.39528131525833
 20
-0.789663240414053
 10
-25.45080109898825
 20
-0.8556099446091158
 10
-25.50335099762712
 20
-0.9211278551209611
 10
-25.55295246363997
 20
-0.9859813782600326
 10
-25.599669726613296
 20
-1.050334727307706
 10
-25.643431406138916
 20
-1.1141022202124575
 10
-25.684266105503525
 20
-1.1769697320548778
 10
-25.722230903471957
 20
-1.239180007346196
 10
-25.7572615704577
 20
-1.3005688328050355
 10
-25.7893724081041
 20
-1.3609791459716918
 10
-25.818592019697846
 20
-1.4200968219267558
 10
-25.84492040523893
 20
-1.4779218606702276
 10
-25.868450397600554
 20
-1.5343043505640745
 10
-25.889060688431368
 20
-1.588837333815692
 10
-25.906858412247903
 20
-1.6412138363273414
 10
-25.921993608496738
 20
-1.690655696622173
 10
-25.934359270469855
 20
-1.7365988944478776
 10
-25.94414834254386
 20
-1.7777940809484896
 10
-25.951553769095334
 20
-1.8129919072680447
 10
-25.9565901073847
 20
-1.840293322246746
 10
-25.95951465918359
 20
-1.8577421959599576
 10
-25.91530585124895
 20
-2.3597711515575686
 10
-25.91344906597652
 20
-2.363640378668278
 10
-25.907885860980887
 20
-2.3751695287705537
 10
-25.898644839548744
 20
-2.394044476944987
 10
-25.88552590648183
 20
-2.4215931032773956
 10
-25.86853595698474
 20
-2.4594788652380184
 10
-25.847968302554538
 20
-2.503610988052867
 10
-25.823966087433188
 20
-2.55154785277485
 10
-25.796779334762125
 20
-2.6022828550592303
 10
-25.76647968056658
 20
-2.654159688257438
 10
-25.733052951011757
 20
-2.7064644204791324
 10
-25.696691962665717
 20
-2.758818697218395
 10
-25.65734678758529
 20
-2.810901242734144
 10
-25.615046029057165
 20
-2.8623979321069726
 10
-25.56980398872468
 20
-2.913151702877174
 10
-25.521620666587836
 20
-2.9631625550447485
 10
-25.47058174469816
 20
-3.0123591082015166
 10
-25.416622993469144
 20
-3.0605771490661016
 10
-25.3597372620791
 20
-3.1078952088683556
 10
-25.30001023257957
 20
-3.1542419072000976
 10
-25.23734907209736
 20
-3.1997671556993614
 10
-25.17176093145413
 20
-3.2443924231362944
 10
-25.103417174752934
 20
-3.287974948694535
 10
-25.032060755839193
 20
-3.330728873598625
 10
-24.957934419224152
 20
-3.3725971190837276
 10
-24.880873951626413
 20
-3.4136439147363506
 10
-24.80096503509752
 20
-3.453797880148315
 10
-24.71821482045914
 20
-3.492980484089768
 10
-24.632601855246243
 20
-3.531427320250265
 10
-24.544140441102186
 20
-3.568981326170103
 10
-24.452801974740282
 20
-3.6059566267686907
 10
-24.358607908625544
 20
-3.642117628356471
 10
-24.26162247234448
 20
-3.67762854421482
 10
-24.161767134667237
 20
-3.7124822235220667
 10
-24.059027593950475
 20
-3.746835728737916
 10
-23.953489532245722
 20
-3.7806176794541853
 10
-23.845145798731295
 20
-3.8139066069007277
 10
-23.733996393407203
 20
-3.846702511077544
 10
-23.619941332578577
 20
-3.879233834852519
 10
-23.503144829526793
 20
-3.9114363486391426
 10
-23.38345697261382
 20
-3.9432172195642208
 10
-23.261034824299358
 20
-3.974590749271096
 10
-23.135785551710214
 20
-4.005706849397801
 10
-23.00778768607624
 20
-4.036572670766008
 10
-22.87696984698926
 20
-4.067102531324192
 10
-22.743424867322464
 20
-4.097146519434321
 10
-22.607067065024324
 20
-4.126776015504576
 10
-22.46804635173288
 20
-4.156083852408151
 10
-22.326284196218275
 20
-4.185062879323374
 10
-22.181780598480525
 20
-4.213713096250249
 10
-22.034557010984617
 20
-4.241798909499215
 10
-21.884691964960425
 20
-4.269327469891945
 10
-21.732106929178084
 20
-4.296291626606767
 10
-21.57686613322411
 20
-4.322855592925057
 10
-21.41896957709851
 20
-4.3490193688468155
 10
-21.258445864087946
 20
-4.374468829452634
 10
-21.095359223778953
 20
-4.399368188023887
 10
-20.929638275763338
 20
-4.423631762509052
 10
-20.76127586921943
 20
-4.4473380841379795
 10
-20.590350535377084
 20
-4.470494303732344
 10
-20.416869425057968
 20
-4.49302189006229
 10
-20.240825387440413
 20
-4.514999374357672
 10
-20.06221842252442
 20
-4.536426756618489
 10
-19.881055681131663
 20
-4.557225505614889
 10
-19.697408543670313
 20
-4.577481303398395
 10
-19.51127701014038
 20
-4.597194149969008
 10
-19.322589700133676
 20
-4.616278363275204
 10
-19.13148937446656
 20
-4.634905307420029
 10
-18.937904652730865
 20
-4.652989300351962
 10
-18.741828384104913
 20
-4.6706088733008535
 10
-18.543346250640223
 20
-4.687692645858522
 10
-18.34247970480181
 20
-4.704005024335413
 10
-18.139207294124663
 20
-4.719781602421081
 10
-17.93343618573559
 20
-4.73517229175356
 10
-17.725409124145813
 20
-4.750120013568013
 10
-17.51498334853897
 20
-4.764453403761392
 10
-17.30216600973674
 20
-4.778093931103843
 10
-17.087099868555477
 20
-4.791212959698415
 10
-16.86969924294366
 20
-4.803881869953289
 10
-16.649978434544632
 20
-4.815943599408759
 10
-16.42801597458825
 20
-4.827405298886498
 10
-16.20381901389617
 20
-4.838188437156654
 10
-15.97736610000339
 20
-4.848528607908783
 10
-15.748671534553262
 20
-4.858268748683179
 10
-15.517721015902426
 20
-4.8675659219395495
 10
-15.284693058975606
 20
-4.876198835631678
 10
-15.049423450491428
 20
-4.884231719346076
 10
-14.811990721679743
 20
-4.8916717239044125
 10
-14.572466252948733
 20
-4.898604531358213
 10
-14.330785814711886
 20
-4.904865928426101
 10
-14.087013636555717
 20
-4.910620128389453
 10
-13.84123540053174
 20
-4.915795750840087
 10
-13.593308345823603
 20
-4.920221431674956
 10
-13.343389534891006
 20
-4.923911472537403
 10
-13.091457515268935
 20
-4.927101467116986
 10
-12.837512286957395
 20
-4.929791415413703
 10
-12.581553849956377
 20
-4.931981317427556
 10
-12.323682187960753
 20
-4.933442730290658
 10
-12.063911602613862
 20
-4.934018591543304
 10
-11.802134959399174
 20
-4.934015875283233
 10
-11.538509320776386
 20
-4.933448883153789
 10
-11.272970457158989
 20
-4.932153401873592
 10
-11.005611201420184
 20
-4.929979519804613
 10
-10.73641010109495
 20
-4.927162830636405
 10
-10.4654313857698
 20
-4.923867547650348
 10
-10.192610825858225
 20
-4.919929457565063
 10
-9.917969873825237
 20
-4.9151129666909945
 10
-9.641651290487202
 20
-4.9095894391311905
 10
-9.363647925022436
 20
-4.903437406115502
 10
-9.08380271497125
 20
-4.896642566000587
 10
-8.802358404844867
 20
-4.889147840021606
 10
-8.519250765056778
 20
-4.880789014897184
 10
-8.234479795606983
 20
-4.871566090627321
 10
-7.948116876903652
 20
-4.861564749263541
 10
-7.660126254838446
 20
-4.851177646955105
 10
-7.3706079131062205
 20
-4.84017634083413
 10
-7.079511923763808
 20
-4.82823955515953
 10
-6.786831135989545
 20
-4.815445821161163
 10
-6.492722612243129
 20
-4.8018094404823675
 10
-6.197079218008023
 20
-4.787637387220883
 10
-5.8999937861574265
 20
-4.7727797497386755
 10
-5.601466316691335
 20
-4.7572365280357465
 10
-5.301511111253093
 20
-4.740850659652391
 10
-5.000121019021028
 20
-4.723700675818462
 10
-4.697438800811508
 20
-4.7059579406370045
 10
-4.393321695808163
 20
-4.6874510900049735
 10
-4.087941068114041
 20
-4.668037363106005
 10
-3.7812897669074728
 20
-4.647795291169953
 10
-3.4733606413667895
 20
-4.626803405426669
 10
-3.1640823110838063
 20
-4.60497602382463
 10
-2.8537046713914287
 20
-4.582177536369145
 10
-2.542156341881466
 20
-4.5583222610086915
 10
-2.2293158863940423
 20
-4.53387423430071
 10
-1.9153475182105393
 20
-4.508769226658692
 10
-1.6003726734908288
 20
-4.4825432015251945
 10
-1.2842128373102002
 20
-4.455417450946433
 10
-0.9669393900768251
 20
-4.42747765697393
 10
-0.6487236958937566
 20
-4.398581058791323
 10
-0.3294158431229625
 20
-4.3686348235254195
 10
-0.009172894224143064
 20
-4.3376532528195595
 10
0.31211228531923385
 20
-4.305943320771482
 10
0.6343468626339754
 20
-4.273355115743155
 10
0.9574165523818817
 20
-4.239503132406987
 10
1.2814213382578028
 20
-4.204615813630863
 10
1.606311292318585
 20
-4.169014435155865
 10
1.93198643086935
 20
-4.132470554114107
 10
2.258518134318294
 20
-4.094898488454064
 10
2.585842173078891
 20
-4.056462451457113
 10
2.913929943864468
 20
-4.016848318203846
 10
3.24278144667502
 20
-3.9760560886942606
 10
3.5723467535673836
 20
-3.934407038669439
 10
3.902554484133369
 20
-3.8919868501809063
 10
4.233476018781168
 20
-3.8487098411771354
 10
4.565011373815909
 20
-3.8043475687902437
 10
4.897174850880931
 20
-3.7590570954799336
 10
5.229966449976247
 20
-3.7128384212462056
 10
5.563307639871987
 20
-3.665698696910732
 10
5.8971769681031505
 20
-3.6174023287839554
 10
6.2315887363130775
 20
-3.5681063793255805
 10
6.566414485328742
 20
-3.5181392750983598
 10
6.901804126788184
 20
-3.4674081832290975
 10
7.237579145766683
 20
-3.415691811671578
 10
7.57382522431576
 20
-3.3630615408339857
 10
7.910385299975719
 20
-3.3095316723596615
 10
8.247345054798071
 20
-3.255173586656786
 10
8.584697337961149
 20
-3.1999087524955074
 10
8.92229223782693
 20
-3.1438300027490196
 10
9.2602225872686
 20
-3.0870872490553563
 10
9.598481235464488
 20
-3.0296019601846673
 10
9.936903969133219
 20
-2.9713099065504407
 10
10.275576470326317
 20
-2.9122824685608575
 10
10.614434509457272
 20
-2.852683859497295
 10
10.953528014469248
 20
-2.7921928036186716
 10
11.29271422454589
 20
-2.730980665028036
 10
11.632007441330538
 20
-2.669204506185091
 10
11.971400514001513
 20
-2.6067857958599845
 10
12.310879140915484
 20
-2.5435674715930134
 10
12.65045762371579
 20
-2.479706595843881
 10
12.98999320158606
 20
-2.4153745327156355
 10
13.32955010411282
 20
-2.350407068926899
 10
13.669071252531218
 20
-2.2850469489889025
 10
14.008535194376242
 20
-2.2190585792120876
 10
14.347934778826232
 20
-2.1523634283666015
 10
14.687284307524516
 20
-2.0851185589121504
 10
15.026448170476405
 20
-2.0175738661816336
 10
15.365504898911771
 20
-1.9497221993533773
 10
15.704354509135724
 20
-1.8813351155594997
 10
16.043004151969946
 20
-1.8124911460298498
 10
16.381453827414425
 20
-1.7431902907644303
 10
16.719710686290856
 20
-1.6735110809930915
 10
17.057610515317844
 20
-1.6033892871293245
 10
17.395238996546926
 20
-1.5328962895813105
 10
17.7325247495699
 20
-1.4621177704005734
 10
18.06956060725998
 20
-1.3912036412251452
 10
18.40616090387077
 20
-1.319854078778961
 10
18.74233279022394
 20
-1.248147614291872
 10
19.078190551657705
 20
-1.1764697530914692
 10
19.413534220782328
 20
-1.1043636094419798
 10
19.74835664677614
 20
-1.0317506521135533
 10
20.08277926579902
 20
-0.9590949176636312
 10
20.416659317034597
 20
-0.8865677701952619
 10
20.750032426782713
 20
-0.8136908715076591
 10
21.082827214635167
 20
-0.7405499036523474
 10
21.414965149362125
 20
-0.6671520174509971
 10
21.74653906383677
 20
-0.5936471245416421
 10
22.077477577650924
 20
-0.5201209069758064
 10
22.407787841626266
 20
-0.4466518959833413
 10
22.737377022889596
 20
-0.37309017992621396
 10
23.06623081979756
 20
-0.2992786963447211
 10
23.394370684815193
 20
-0.22545303892841712
 10
23.72179661794248
 20
-0.1516132076773039
 10
24.048358707541393
 20
-0.07785203546457635
 10
24.374214016071633
 20
-0.004155220646890869
 10
24.69918402860848
 20
0.06969852882196652
 10
25.02327589597362
 20
0.14363068171214274
 10
25.346525372275387
 20
0.2172485818743766
 10
25.668925306692135
 20
0.2906307605385217
 10
25.990304335120793
 20
0.36391997852093805
 10
26.310826670842758
 20
0.43705200623511714
 10
26.630328100576634
 20
0.5100910732675675
 10
26.948887155552285
 20
0.583044330439962
 10
27.266439606183205
 20
0.6557475644709241
 10
27.582906921239523
 20
0.7281936245387814
 10
27.89838193359446
 20
0.8002325990055026
 10
28.212686128323277
 20
0.8720857799172993
 10
28.525976567885685
 20
0.9437674689175164
 10
28.838089039000316
 20
1.0153418955926634
 10
29.14906644659718
 20
1.0863378725636248
 10
29.458830259446444
 20
1.1567482490087313
 10
29.767494635077774
 20
1.227058513950438
 10
30.074816828979944
 20
1.2973257461535832
 10
30.381011110186037
 20
1.366935997422693
 10
30.68591326541467
 20
1.4359534973442745
 10
30.989494691379143
 20
1.504692370837738
 10
31.291755388079476
 20
1.5731526179030828
 10
31.59270250633734
 20
1.6412557073104583
 10
31.892371800261074
 20
1.7086089829106013
 10
32.19059190574766
 20
1.7753552055198747
 10
32.48749843279177
 20
1.8417442704711775
 10
32.78293431893369
 20
1.9077618761211679
 10
33.07691386581678
 20
1.9732509600101393
 10
33.369451375084374
 20
2.03805445967839
 10
33.66053254509314
 20
2.102329437585622
 10
33.9500788446132
 20
2.1660687429101646
 10
34.23818310651778
 20
2.2291224640139857
 10
34.52468826834717
 20
2.2914762992537425
 10
34.80965140886619
 20
2.353372993140661
 10
35.09291546561514
 20
2.4147982440314
 10
35.37473033392693
 20
2.47561644193127
 10
35.65479619052549
 20
2.5356419210938794
 10
35.933270097870526
 20
2.5948889831625723
 10
36.21014490514036
 20
2.653436159367199
 10
36.485249248231945
 20
2.711426210524123
 10
36.758590277966945
 20
2.768780605403491
 10
37.030332207626785
 20
2.825435114418795
 10
37.30024659434352
 20
2.8812897538751674
 10
37.56842627099036
 20
2.936194612134574
 10
37.834771253872454
 20
2.9903781320649028
 10
38.09935292339797
 20
3.0439259957176756
 10
38.36209989915873
 20
3.096752521041369
 10
38.62301218115474
 20
3.1488577080359836
 10
38.88203269062116
 20
3.199998812190291
 10
39.139218506322806
 20
3.250418578015518
 10
39.39441971662168
 20
3.3000241726384716
 10
39.647700551104286
 20
3.3489798093405283
 10
39.899082462235604
 20
3.3970498944321275
 10
40.148494069607494
 20
3.4441487458617495
 10
40.395913920754914
 20
3.4905119573189483
 10
40.641342015677886
 20
3.5361395288037265
 10
40.88477835437639
 20
3.5810314603160824
 10
41.12608017603408
 20
3.625016387752969
 10
41.365418844754
 20
3.6679515502980244
 10
41.602680075197924
 20
3.710222453278839
 10
41.83779248695768
 20
3.751743414643889
 10
42.070834611263145
 20
3.7925215852148457
 10
42.30174221852778
 20
3.832392751710333
 10
42.530429626700055
 20
3.871428294538531
 10
42.75704674741804
 20
3.909721046572637
 10
42.98145797068701
 20
3.94702111247975
 10
43.20364899486364
 20
3.9834855547195733
 10
43.4236269707696
 20
4.019035842062257
 10
43.64137044593987
 20
4.053907568197358
 10
43.85689372201777
 20
4.087943670665167
 10
44.070118267773516
 20
4.121136998644021
 10
44.28105123402873
 20
4.15340902090406
 10
44.48976400119156
 20
4.18484541949681
 10
44.6960923559807
 20
4.215510424008783
 10
44.90003629839612
 20
4.245404034439976
 10
45.101681510489335
 20
4.274454870382209
 10
45.30103514308204
 20
4.302584400605632
 10
45.49791868124948
 20
4.330013917156456
 10
45.69241065622154
 20
4.356750570856353
 10
45.88453252046321
 20
4.382558768015766
 10
46.074198591922986
 20
4.407509889042877
 10
46.26139456895752
 20
4.431760996397391
 10
46.44621328444001
 20
4.455162178441273
 10
46.6285048267324
 20
4.477620602301329
 10
46.80833342542124
 20
4.499300481258935
 10
46.98569192968482
 20
4.520280346543942
 10
47.160501808293304
 20
4.540553047334679
 10
47.33277736289004
 20
4.559961521171445
 10
47.50251144265334
 20
4.5785842992840875
 10
47.66968974593988
 20
4.596578444132312
 10
47.83431942357134
 20
4.613865424486269
 10
47.996336245961174
 20
4.630281027064581
 10
48.155740213109404
 20
4.645825251867246
 10
48.31258125295919
 20
4.660819374635346
 10
48.466787985102364
 20
4.6751777133173595
 10
48.61836040953892
 20
4.688900267913283
 10
48.767305677090526
 20
4.7019085071932665
 10
48.913545256527314
 20
4.714195280335637
 10
49.05715767907917
 20
4.725767738162067
 10
49.19805011187289
 20
4.73677579231059
 10
49.33623685655179
 20
4.7470623803215
 10
49.471703611472556
 20
4.756784564654504
 10
49.60454320950837
 20
4.765792433671565
 10
49.734584286556185
 20
4.7742287481890475
 10
49.86189822302419
 20
4.782179190258475
 10
49.9864136385042
 20
4.789558077828325
 10
50.108216215047726
 20
4.7962940304904125
 10
50.2272131197816
 20
4.802536959882774
 10
50.34349718557899
 20
4.808136954367376
 10
50.456889897515204
 20
4.813315305990435
 10
50.567555468871596
 20
4.818007785165435
 10
50.67533683718845
 20
4.822200090249038
 10
50.78031253369566
 20
4.8258993720629135
 10
50.8824825583932
 20
4.829105630607064
 10
50.98183976045938
 20
4.831897397111337
 10
51.078312759486074
 20
4.834188989524216
 10
51.17188725382988
 20
4.836137470305399
 10
51.26264892554235
 20
4.837671459046708
 10
51.35051209257196
 20
4.838862336156324
 10
51.43548390574038
 20
4.839631570404392
 10
51.51755721422594
 20
4.840057693020769
 10
51.5967391688503
 20
4.840062172775598
 10
51.673022618791805
 20
4.839723540898734
 10
51.7463932624071
 20
4.8391988598498825
 10
51.81678687010969
 20
4.838323916347664
 10
51.88435335353758
 20
4.837191543265276
 10
51.94884996817957
 20
4.835858819367559
 10
52.01051945854689
 20
4.834268665889669
 10
52.069204762179815
 20
4.832406781188266
 10
52.124891577435
 20
4.830430227723057
 10
52.177665586364
 20
4.828267625085858
 10
52.227448257736924
 20
4.825911822454999
 10
52.27422528991046
 20
4.823519882290183
 10
52.31808951575777
 20
4.820941892953377
 10
52.358948102405705
 20
4.818327766082618
 10
52.3968082006759
 20
4.81559897044805
 10
52.43165550892502
 20
4.812912568509378
 10
52.46349717797475
 20
4.810190029036749
 10
52.492404588233256
 20
4.807517034081689
 10
52.518220677240826
 20
4.8048792820008535
 10
52.54101682540568
 20
4.802362454845768
 10
52.56087156395762
 20
4.799973703438101
 10
52.57762783043697
 20
4.797698726134512
 10
52.591349854430234
 20
4.795701736216377
 10
52.60212331798893
 20
4.793911353275512
 10
52.60977685701003
 20
4.792470338128284
 10
52.614381851901705
 20
4.791464372826211
 10
52.61592400102059
 20
4.791050519829001
  0
ENDSEC
  0
SECTION
  2
OBJECTS
  0
DICTIONARY
  5
A
330
0
100
AcDbDictionary
280
0
281
1
  3
ACAD_COLOR
350
B
  3
ACAD_GROUP
350
C
  3
ACAD_LAYOUT
350
D
  3
ACAD_MATERIAL
350
E
  3
ACAD_MLEADERSTYLE
350
F
  3
ACAD_MLINESTYLE
350
10
  3
ACAD_PLOTSETTINGS
350
11
  3
ACAD_PLOTSTYLENAME
350
12
  3
ACAD_SCALELIST
350
14
  3
ACAD_TABLESTYLE
350
15
  3
ACAD_VISUALSTYLE
350
16
  3
EZDXF_META
350
2D
  0
DICTIONARY
  5
B
330
A
100
AcDbDictionary
280
0
281
1
  0
DICTIONARY
  5
C
330
A
100
AcDbDictionary
280
0
281
1
  0
DICTIONARY
  5
D
330
A
100
AcDbDictionary
280
0
281
1
  3
Model
350
1A
  3
Layout1
350
1E
  0
DICTIONARY
  5
E
330
A
100
AcDbDictionary
280
0
281
1
  3
ByBlock
350
1F
  3
ByLayer
350
20
  3
Global
350
21
  0
DICTIONARY
  5
F
330
A
100
AcDbDictionary
280
0
281
1
  3
Standard
350
2C
  0
DICTIONARY
  5
10
330
A
100
AcDbDictionary
280
0
281
1
  3
Standard
350
22
  0
DICTIONARY
  5
11
330
A
100
AcDbDictionary
280
0
281
1
  0
ACDBDICTIONARYWDFLT
  5
12
330
A
100
AcDbDictionary
280
0
281
1
  3
Normal
350
13
100
AcDbDictionaryWithDefault
340
13
  0
ACDBPLACEHOLDER
  5
13
330
12
  0
DICTIONARY
  5
14
330
A
100
AcDbDictionary
280
0
281
1
  0
DICTIONARY
  5
15
330
A
100
AcDbDictionary
280
0
281
1
  0
DICTIONARY
  5
16
330
A
100
AcDbDictionary
280
0
281
1
  0
LAYOUT
  5
1A
330
D
100
AcDbPlotSettings
  1

  4
A3
  6

 40
7.5
 41
20.0
 42
7.5
 43
20.0
 44
420.0
 45
297.0
 46
0.0
 47
0.0
 48
0.0
 49
0.0
140
0.0
141
0.0
142
1.0
143
1.0
 70
1024
 72
1
 73
0
 74
5
  7

 75
16
 76
0
 77
2
 78
300
147
1.0
148
0.0
149
0.0
100
AcDbLayout
  1
Model
 70
1
 71
0
 10
0.0
 20
0.0
 11
420.0
 21
297.0
 12
0.0
 22
0.0
 32
0.0
 14
1e+20
 24
1e+20
 34
1e+20
 15
-1e+20
 25
-1e+20
 35
-1e+20
146
0.0
 13
0.0
 23
0.0
 33
0.0
 16
1.0
 26
0.0
 36
0.0
 17
0.0
 27
1.0
 37
0.0
 76
1
330
17
  0
LAYOUT
  5
1E
330
D
100
AcDbPlotSettings
  1

  4
A3
  6

 40
7.5
 41
20.0
 42
7.5
 43
20.0
 44
420.0
 45
297.0
 46
0.0
 47
0.0
 48
0.0
 49
0.0
140
0.0
141
0.0
142
1.0
143
1.0
 70
0
 72
1
 73
0
 74
5
  7

 75
16
 76
0
 77
2
 78
300
147
1.0
148
0.0
149
0.0
100
AcDbLayout
  1
Layout1
 70
1
 71
1
 10
0.0
 20
0.0
 11
420.0
 21
297.0
 12
0.0
 22
0.0
 32
0.0
 14
1e+20
 24
1e+20
 34
1e+20
 15
-1e+20
 25
-1e+20
 35
-1e+20
146
0.0
 13
0.0
 23
0.0
 33
0.0
 16
1.0
 26
0.0
 36
0.0
 17
0.0
 27
1.0
 37
0.0
 76
1
330
1B
  0
MATERIAL
  5
1F
102
{ACAD_REACTORS
330
E
102
}
330
E
100
AcDbMaterial
  1
ByBlock
  2

 70
0
 40
1.0
 71
1
 41
1.0
 91
-1023410177
 42
1.0
 72
1
  3

 73
1
 74
1
 75
1
 44
0.5
 73
0
 45
1.0
 46
1.0
 77
1
  4

 78
1
 79
1
170
1
 48
1.0
171
1
  6

172
1
173
1
174
1
140
1.0
141
1.0
175
1
  7

176
1
177
1
178
1
143
1.0
179
1
  8

270
1
271
1
272
1
145
1.0
146
1.0
273
1
  9

274
1
275
1
276
1
 42
1.0
 72
1
  3

 73
1
 74
1
 75
1
 94
63
  0
MATERIAL
  5
20
102
{ACAD_REACTORS
330
E
102
}
330
E
100
AcDbMaterial
  1
ByLayer
  2

 70
0
 40
1.0
 71
1
 41
1.0
 91
-1023410177
 42
1.0
 72
1
  3

 73
1
 74
1
 75
1
 44
0.5
 73
0
 45
1.0
 46
1.0
 77
1
  4

 78
1
 79
1
170
1
 48
1.0
171
1
  6

172
1
173
1
174
1
140
1.0
141
1.0
175
1
  7

176
1
177
1
178
1
143
1.0
179
1
  8

270
1
271
1
272
1
145
1.0
146
1.0
273
1
  9

274
1
275
1
276
1
 42
1.0
 72
1
  3

 73
1
 74
1
 75
1
 94
63
  0
MATERIAL
  5
21
102
{ACAD_REACTORS
330
E
102
}
330
E
100
AcDbMaterial
  1
Global
  2

 70
0
 40
1.0
 71
1
 41
1.0
 91
-1023410177
 42
1.0
 72
1
  3

 73
1
 74
1
 75
1
 44
0.5
 73
0
 45
1.0
 46
1.0
 77
1
  4

 78
1
 79
1
170
1
 48
1.0
171
1
  6

172
1
173
1
174
1
140
1.0
141
1.0
175
1
  7

176
1
177
1
178
1
143
1.0
179
1
  8

270
1
271
1
272
1
145
1.0
146
1.0
273
1
  9

274
1
275
1
276
1
 42
1.0
 72
1
  3

 73
1
 74
1
 75
1
 94
63
  0
MLINESTYLE
  5
22
102
{ACAD_REACTORS
330
10
102
}
330
10
100
AcDbMlineStyle
  2
Standard
 70
0
  3

 62
256
 51
90.0
 52
90.0
 71
2
 49
0.5
 62
256
  6
BYLAYER
 49
-0.5
 62
256
  6
BYLAYER
  0
MLEADERSTYLE
  5
2C
102
{ACAD_REACTORS
330
F
102
}
330
F
100
AcDbMLeaderStyle
179
2
170
2
171
1
172
0
 90
2
 40
0.0
 41
0.0
173
1
 91
-1056964608
 92
-2
290
1
 42
2.0
291
1
 43
8.0
  3
Standard
 44
4.0
300

342
29
174
1
175
1
176
0
178
1
 93
-1056964608
 45
4.0
292
0
297
0
 46
4.0
 94
-1056964608
 47
1.0
 49
1.0
140
1.0
294
1
141
0.0
177
0
142
1.0
295
0
296
0
143
3.75
271
0
272
9
273
9
  0
DICTIONARY
  5
2D
330
A
100
AcDbDictionary
280
1
281
1
  3
CREATED_BY_EZDXF
350
2E
  3
WRITTEN_BY_EZDXF
350
32
  0
DICTIONARYVAR
  5
2E
330
2D
100
DictionaryVariables
280
0
  1
1.3.5 @ 2025-08-18T19:55:49.361946+00:00
  0
DICTIONARYVAR
  5
32
330
2D
100
DictionaryVariables
280
0
  1
1.3.5 @ 2025-08-18T19:55:49.369407+00:00
  0
ENDSEC
  0
EOF
