  0
SECTION
  2
HEADER
  9
$ACADVER
  1
AC1032
  9
$ACADMAINTVER
 90
4
  9
$DWGCODEPAGE
  3
ANSI_1252
  9
$LASTSAVEDBY
  1
ezdxf
  9
$REQUIREDVERSIONS
160
0
  9
$INSBASE
 10
0.0
 20
0.0
 30
0.0
  9
$EXTMIN
 10
1e+20
 20
1e+20
 30
1e+20
  9
$EXTMAX
 10
-1e+20
 20
-1e+20
 30
-1e+20
  9
$LIMMIN
 10
0.0
 20
0.0
  9
$LIMMAX
 10
420.0
 20
297.0
  9
$ORTHOMODE
 70
0
  9
$REGENMODE
 70
1
  9
$FILLMODE
 70
1
  9
$QTEXTMODE
 70
0
  9
$MIRRTEXT
 70
1
  9
$LTSCALE
 40
1.0
  9
$ATTMODE
 70
1
  9
$TEXTSIZE
 40
2.5
  9
$TRACEWID
 40
1.0
  9
$TEXTSTYLE
  7
Standard
  9
$CLAYER
  8
0
  9
$CELTYPE
  6
ByLayer
  9
$CECOLOR
 62
256
  9
$CELTSCALE
 40
1.0
  9
$DISPSILH
 70
0
  9
$DIMSCALE
 40
1.0
  9
$DIMASZ
 40
2.5
  9
$DIMEXO
 40
0.625
  9
$DIMDLI
 40
3.75
  9
$DIMRND
 40
0.0
  9
$DIMDLE
 40
0.0
  9
$DIMEXE
 40
1.25
  9
$DIMTP
 40
0.0
  9
$DIMTM
 40
0.0
  9
$DIMTXT
 40
2.5
  9
$DIMCEN
 40
2.5
  9
$DIMTSZ
 40
0.0
  9
$DIMTOL
 70
0
  9
$DIMLIM
 70
0
  9
$DIMTIH
 70
0
  9
$DIMTOH
 70
0
  9
$DIMSE1
 70
0
  9
$DIMSE2
 70
0
  9
$DIMTAD
 70
1
  9
$DIMZIN
 70
8
  9
$DIMBLK
  1

  9
$DIMASO
 70
1
  9
$DIMSHO
 70
1
  9
$DIMPOST
  1

  9
$DIMAPOST
  1

  9
$DIMALT
 70
0
  9
$DIMALTD
 70
3
  9
$DIMALTF
 40
0.03937007874
  9
$DIMLFAC
 40
1.0
  9
$DIMTOFL
 70
1
  9
$DIMTVP
 40
0.0
  9
$DIMTIX
 70
0
  9
$DIMSOXD
 70
0
  9
$DIMSAH
 70
0
  9
$DIMBLK1
  1

  9
$DIMBLK2
  1

  9
$DIMSTYLE
  2
ISO-25
  9
$DIMCLRD
 70
0
  9
$DIMCLRE
 70
0
  9
$DIMCLRT
 70
0
  9
$DIMTFAC
 40
1.0
  9
$DIMGAP
 40
0.625
  9
$DIMJUST
 70
0
  9
$DIMSD1
 70
0
  9
$DIMSD2
 70
0
  9
$DIMTOLJ
 70
0
  9
$DIMTZIN
 70
8
  9
$DIMALTZ
 70
0
  9
$DIMALTTZ
 70
0
  9
$DIMUPT
 70
0
  9
$DIMDEC
 70
2
  9
$DIMTDEC
 70
2
  9
$DIMALTU
 70
2
  9
$DIMALTTD
 70
3
  9
$DIMTXSTY
  7
Standard
  9
$DIMAUNIT
 70
0
  9
$DIMADEC
 70
0
  9
$DIMALTRND
 40
0.0
  9
$DIMAZIN
 70
0
  9
$DIMDSEP
 70
44
  9
$DIMATFIT
 70
3
  9
$DIMFRAC
 70
0
  9
$DIMLDRBLK
  1

  9
$DIMLUNIT
 70
2
  9
$DIMLWD
 70
-2
  9
$DIMLWE
 70
-2
  9
$DIMTMOVE
 70
0
  9
$DIMFXL
 40
1.0
  9
$DIMFXLON
 70
0
  9
$DIMJOGANG
 40
0.785398163397
  9
$DIMTFILL
 70
0
  9
$DIMTFILLCLR
 70
0
  9
$DIMARCSYM
 70
0
  9
$DIMLTYPE
  6

  9
$DIMLTEX1
  6

  9
$DIMLTEX2
  6

  9
$DIMTXTDIRECTION
 70
0
  9
$LUNITS
 70
2
  9
$LUPREC
 70
4
  9
$SKETCHINC
 40
1.0
  9
$FILLETRAD
 40
10.0
  9
$AUNITS
 70
0
  9
$AUPREC
 70
2
  9
$MENU
  1
.
  9
$ELEVATION
 40
0.0
  9
$PELEVATION
 40
0.0
  9
$THICKNESS
 40
0.0
  9
$LIMCHECK
 70
0
  9
$CHAMFERA
 40
0.0
  9
$CHAMFERB
 40
0.0
  9
$CHAMFERC
 40
0.0
  9
$CHAMFERD
 40
0.0
  9
$SKPOLY
 70
0
  9
$TDCREATE
 40
2460906.8720833333
  9
$TDUCREATE
 40
2458532.153996898
  9
$TDUPDATE
 40
2460906.8720833333
  9
$TDUUPDATE
 40
2458532.1544311
  9
$TDINDWG
 40
0.0
  9
$TDUSRTIMER
 40
0.0
  9
$USRTIMER
 70
1
  9
$ANGBASE
 50
0.0
  9
$ANGDIR
 70
0
  9
$PDMODE
 70
0
  9
$PDSIZE
 40
0.0
  9
$PLINEWID
 40
0.0
  9
$SPLFRAME
 70
0
  9
$SPLINETYPE
 70
6
  9
$SPLINESEGS
 70
8
  9
$HANDSEED
  5
33
  9
$SURFTAB1
 70
6
  9
$SURFTAB2
 70
6
  9
$SURFTYPE
 70
6
  9
$SURFU
 70
6
  9
$SURFV
 70
6
  9
$UCSBASE
  2

  9
$UCSNAME
  2

  9
$UCSORG
 10
0.0
 20
0.0
 30
0.0
  9
$UCSXDIR
 10
1.0
 20
0.0
 30
0.0
  9
$UCSYDIR
 10
0.0
 20
1.0
 30
0.0
  9
$UCSORTHOREF
  2

  9
$UCSORTHOVIEW
 70
0
  9
$UCSORGTOP
 10
0.0
 20
0.0
 30
0.0
  9
$UCSORGBOTTOM
 10
0.0
 20
0.0
 30
0.0
  9
$UCSORGLEFT
 10
0.0
 20
0.0
 30
0.0
  9
$UCSORGRIGHT
 10
0.0
 20
0.0
 30
0.0
  9
$UCSORGFRONT
 10
0.0
 20
0.0
 30
0.0
  9
$UCSORGBACK
 10
0.0
 20
0.0
 30
0.0
  9
$PUCSBASE
  2

  9
$PUCSNAME
  2

  9
$PUCSORG
 10
0.0
 20
0.0
 30
0.0
  9
$PUCSXDIR
 10
1.0
 20
0.0
 30
0.0
  9
$PUCSYDIR
 10
0.0
 20
1.0
 30
0.0
  9
$PUCSORTHOREF
  2

  9
$PUCSORTHOVIEW
 70
0
  9
$PUCSORGTOP
 10
0.0
 20
0.0
 30
0.0
  9
$PUCSORGBOTTOM
 10
0.0
 20
0.0
 30
0.0
  9
$PUCSORGLEFT
 10
0.0
 20
0.0
 30
0.0
  9
$PUCSORGRIGHT
 10
0.0
 20
0.0
 30
0.0
  9
$PUCSORGFRONT
 10
0.0
 20
0.0
 30
0.0
  9
$PUCSORGBACK
 10
0.0
 20
0.0
 30
0.0
  9
$USERI1
 70
0
  9
$USERI2
 70
0
  9
$USERI3
 70
0
  9
$USERI4
 70
0
  9
$USERI5
 70
0
  9
$USERR1
 40
0.0
  9
$USERR2
 40
0.0
  9
$USERR3
 40
0.0
  9
$USERR4
 40
0.0
  9
$USERR5
 40
0.0
  9
$WORLDVIEW
 70
1
  9
$SHADEDGE
 70
3
  9
$SHADEDIF
 70
70
  9
$TILEMODE
 70
1
  9
$MAXACTVP
 70
64
  9
$PINSBASE
 10
0.0
 20
0.0
 30
0.0
  9
$PLIMCHECK
 70
0
  9
$PEXTMIN
 10
1e+20
 20
1e+20
 30
1e+20
  9
$PEXTMAX
 10
-1e+20
 20
-1e+20
 30
-1e+20
  9
$PLIMMIN
 10
0.0
 20
0.0
  9
$PLIMMAX
 10
420.0
 20
297.0
  9
$UNITMODE
 70
0
  9
$VISRETAIN
 70
1
  9
$PLINEGEN
 70
0
  9
$PSLTSCALE
 70
1
  9
$TREEDEPTH
 70
3020
  9
$CMLSTYLE
  2
Standard
  9
$CMLJUST
 70
0
  9
$CMLSCALE
 40
20.0
  9
$PROXYGRAPHICS
 70
1
  9
$MEASUREMENT
 70
1
  9
$CELWEIGHT
370
-1
  9
$ENDCAPS
280
0
  9
$JOINSTYLE
280
0
  9
$LWDISPLAY
290
0
  9
$INSUNITS
 70
6
  9
$HYPERLINKBASE
  1

  9
$STYLESHEET
  1

  9
$XEDIT
290
1
  9
$CEPSNTYPE
380
0
  9
$PSTYLEMODE
290
1
  9
$FINGERPRINTGUID
  2
{423F9791-1F44-463C-B6CF-2F621DEBE3A2}
  9
$VERSIONGUID
  2
{CF5C57EF-5136-496B-B4B3-14A13E3E80A2}
  9
$EXTNAMES
290
1
  9
$PSVPSCALE
 40
0.0
  9
$OLESTARTUP
290
0
  9
$SORTENTS
280
127
  9
$INDEXCTL
280
0
  9
$HIDETEXT
280
1
  9
$XCLIPFRAME
280
1
  9
$HALOGAP
280
0
  9
$OBSCOLOR
 70
257
  9
$OBSLTYPE
280
0
  9
$INTERSECTIONDISPLAY
280
0
  9
$INTERSECTIONCOLOR
 70
257
  9
$DIMASSOC
280
2
  9
$PROJECTNAME
  1

  9
$CAMERADISPLAY
290
0
  9
$LENSLENGTH
 40
50.0
  9
$CAMERAHEIGHT
 40
0.0
  9
$STEPSPERSEC
 40
24.0
  9
$STEPSIZE
 40
100.0
  9
$3DDWFPREC
 40
2.0
  9
$PSOLWIDTH
 40
0.005
  9
$PSOLHEIGHT
 40
0.08
  9
$LOFTANG1
 40
1.570796326795
  9
$LOFTANG2
 40
1.570796326795
  9
$LOFTMAG1
 40
0.0
  9
$LOFTMAG2
 40
0.0
  9
$LOFTPARAM
 70
7
  9
$LOFTNORMALS
280
1
  9
$LATITUDE
 40
37.795
  9
$LONGITUDE
 40
-122.394
  9
$NORTHDIRECTION
 40
0.0
  9
$TIMEZONE
 70
-8000
  9
$LIGHTGLYPHDISPLAY
280
1
  9
$TILEMODELIGHTSYNCH
280
1
  9
$CMATERIAL
347
20
  9
$SOLIDHIST
280
0
  9
$SHOWHIST
280
1
  9
$DWFFRAME
280
2
  9
$DGNFRAME
280
2
  9
$REALWORLDSCALE
290
1
  9
$INTERFERECOLOR
 62
256
  9
$CSHADOW
280
0
  9
$SHADOWPLANELOCATION
 40
0.0
  0
ENDSEC
  0
SECTION
  2
CLASSES
  0
CLASS
  1
ACDBDICTIONARYWDFLT
  2
AcDbDictionaryWithDefault
  3
ObjectDBX Classes
 90
0
 91
0
280
0
281
0
  0
CLASS
  1
SUN
  2
AcDbSun
  3
SCENEOE
 90
1153
 91
0
280
0
281
0
  0
CLASS
  1
VISUALSTYLE
  2
AcDbVisualStyle
  3
ObjectDBX Classes
 90
4095
 91
0
280
0
281
0
  0
CLASS
  1
MATERIAL
  2
AcDbMaterial
  3
ObjectDBX Classes
 90
1153
 91
0
280
0
281
0
  0
CLASS
  1
SCALE
  2
AcDbScale
  3
ObjectDBX Classes
 90
1153
 91
0
280
0
281
0
  0
CLASS
  1
TABLESTYLE
  2
AcDbTableStyle
  3
ObjectDBX Classes
 90
4095
 91
0
280
0
281
0
  0
CLASS
  1
MLEADERSTYLE
  2
AcDbMLeaderStyle
  3
ACDB_MLEADERSTYLE_CLASS
 90
4095
 91
0
280
0
281
0
  0
CLASS
  1
DICTIONARYVAR
  2
AcDbDictionaryVar
  3
ObjectDBX Classes
 90
0
 91
0
280
0
281
0
  0
CLASS
  1
CELLSTYLEMAP
  2
AcDbCellStyleMap
  3
ObjectDBX Classes
 90
1152
 91
0
280
0
281
0
  0
CLASS
  1
MENTALRAYRENDERSETTINGS
  2
AcDbMentalRayRenderSettings
  3
SCENEOE
 90
1024
 91
0
280
0
281
0
  0
CLASS
  1
ACDBDETAILVIEWSTYLE
  2
AcDbDetailViewStyle
  3
ObjectDBX Classes
 90
1025
 91
0
280
0
281
0
  0
CLASS
  1
ACDBSECTIONVIEWSTYLE
  2
AcDbSectionViewStyle
  3
ObjectDBX Classes
 90
1025
 91
0
280
0
281
0
  0
CLASS
  1
RASTERVARIABLES
  2
AcDbRasterVariables
  3
ISM
 90
0
 91
0
280
0
281
0
  0
CLASS
  1
LAYOUT
  2
AcDbLayout
  3
ObjectDBX Classes
 90
0
 91
0
280
0
281
0
  0
CLASS
  1
ACDBPLACEHOLDER
  2
AcDbPlaceHolder
  3
ObjectDBX Classes
 90
0
 91
0
280
0
281
0
  0
ENDSEC
  0
SECTION
  2
TABLES
  0
TABLE
  2
VPORT
  5
8
330
0
100
AcDbSymbolTable
 70
1
  0
VPORT
  5
23
330
8
100
AcDbSymbolTableRecord
100
AcDbViewportTableRecord
  2
*Active
 70
0
 10
0.0
 20
0.0
 11
1.0
 21
1.0
 12
0.0
 22
0.0
 13
0.0
 23
0.0
 14
0.5
 24
0.5
 15
0.5
 25
0.5
 16
0.0
 26
0.0
 36
1.0
 17
0.0
 27
0.0
 37
0.0
 40
1000.0
 41
1.34
 42
50.0
 43
0.0
 44
0.0
 50
0.0
 51
0.0
 71
0
 72
1000
 73
1
 74
3
 75
0
 76
0
 77
0
 78
0
281
0
 65
0
146
0.0
  0
ENDTAB
  0
TABLE
  2
LTYPE
  5
2
330
0
100
AcDbSymbolTable
 70
3
  0
LTYPE
  5
24
330
2
100
AcDbSymbolTableRecord
100
AcDbLinetypeTableRecord
  2
ByBlock
 70
0
  3

 72
65
 73
0
 40
0.0
  0
LTYPE
  5
25
330
2
100
AcDbSymbolTableRecord
100
AcDbLinetypeTableRecord
  2
ByLayer
 70
0
  3

 72
65
 73
0
 40
0.0
  0
LTYPE
  5
26
330
2
100
AcDbSymbolTableRecord
100
AcDbLinetypeTableRecord
  2
Continuous
 70
0
  3

 72
65
 73
0
 40
0.0
  0
ENDTAB
  0
TABLE
  2
LAYER
  5
1
330
0
100
AcDbSymbolTable
 70
2
  0
LAYER
  5
27
330
1
100
AcDbSymbolTableRecord
100
AcDbLayerTableRecord
  2
0
 70
0
 62
7
  6
Continuous
370
-3
390
13
347
21
  0
LAYER
  5
28
330
1
100
AcDbSymbolTableRecord
100
AcDbLayerTableRecord
  2
Defpoints
 70
0
 62
7
  6
Continuous
290
0
370
-3
390
13
347
21
  0
ENDTAB
  0
TABLE
  2
STYLE
  5
5
330
0
100
AcDbSymbolTable
 70
1
  0
STYLE
  5
29
330
5
100
AcDbSymbolTableRecord
100
AcDbTextStyleTableRecord
  2
Standard
 70
0
 40
0.0
 41
1.0
 50
0.0
 71
0
 42
2.5
  3
txt
  4

  0
ENDTAB
  0
TABLE
  2
VIEW
  5
7
330
0
100
AcDbSymbolTable
 70
0
  0
ENDTAB
  0
TABLE
  2
UCS
  5
6
330
0
100
AcDbSymbolTable
 70
0
  0
ENDTAB
  0
TABLE
  2
APPID
  5
3
330
0
100
AcDbSymbolTable
 70
3
  0
APPID
  5
2A
330
3
100
AcDbSymbolTableRecord
100
AcDbRegAppTableRecord
  2
ACAD
 70
0
  0
APPID
  5
30
330
3
100
AcDbSymbolTableRecord
100
AcDbRegAppTableRecord
  2
HATCHBACKGROUNDCOLOR
 70
0
  0
APPID
  5
31
330
3
100
AcDbSymbolTableRecord
100
AcDbRegAppTableRecord
  2
EZDXF
 70
0
  0
ENDTAB
  0
TABLE
  2
DIMSTYLE
  5
4
330
0
100
AcDbSymbolTable
 70
1
100
AcDbDimStyleTable
  0
DIMSTYLE
105
2B
330
4
100
AcDbSymbolTableRecord
100
AcDbDimStyleTableRecord
  2
Standard
 70
0
 40
1.0
 41
2.5
 42
0.625
 43
3.75
 44
1.25
 45
0.0
 46
0.0
 47
0.0
 48
0.0
 49
2.5
140
2.5
141
2.5
142
0.0
143
0.03937007874
144
1.0
145
0.0
146
1.0
147
0.625
148
0.0
 69
0
 70
0
 71
0
 72
0
 73
0
 74
0
 75
0
 76
0
 77
1
 78
8
 79
3
170
0
171
3
172
1
173
0
174
0
175
0
176
0
177
0
178
0
179
2
271
2
272
2
273
2
274
3
275
0
276
0
277
2
278
44
279
0
280
0
281
0
282
0
283
0
284
8
285
0
286
0
288
0
289
3
290
0
371
-2
372
-2
  0
ENDTAB
  0
TABLE
  2
BLOCK_RECORD
  5
9
330
0
100
AcDbSymbolTable
 70
2
  0
BLOCK_RECORD
  5
17
330
9
100
AcDbSymbolTableRecord
100
AcDbBlockTableRecord
  2
*Model_Space
340
1A
 70
0
280
1
281
0
  0
BLOCK_RECORD
  5
1B
330
9
100
AcDbSymbolTableRecord
100
AcDbBlockTableRecord
  2
*Paper_Space
340
1E
 70
0
280
1
281
0
  0
ENDTAB
  0
ENDSEC
  0
SECTION
  2
BLOCKS
  0
BLOCK
  5
18
330
17
100
AcDbEntity
  8
0
100
AcDbBlockBegin
  2
*Model_Space
 70
0
 10
0.0
 20
0.0
 30
0.0
  3
*Model_Space
  1

  0
ENDBLK
  5
19
330
17
100
AcDbEntity
  8
0
100
AcDbBlockEnd
  0
BLOCK
  5
1C
330
1B
100
AcDbEntity
  8
0
100
AcDbBlockBegin
  2
*Paper_Space
 70
0
 10
0.0
 20
0.0
 30
0.0
  3
*Paper_Space
  1

  0
ENDBLK
  5
1D
330
1B
100
AcDbEntity
  8
0
100
AcDbBlockEnd
  0
ENDSEC
  0
SECTION
  2
ENTITIES
  0
LWPOLYLINE
  5
2F
330
17
100
AcDbEntity
  8
0
100
AcDbPolyline
 90
721
 70
1
 10
76.28984707333343
 20
49.08110998728619
 10
76.28717084219268
 20
49.08051519301716
 10
76.2792886595465
 20
49.078503079323305
 10
76.26649354694706
 20
49.07461818443105
 10
76.24852512817489
 20
49.06901498383914
 10
76.22583090028088
 20
49.06149839199346
 10
76.19822374243364
 20
49.052109018949395
 10
76.16566304457777
 20
49.040659743875494
 10
76.12837653760005
 20
49.02729707754782
 10
76.08632361144517
 20
49.01183389913496
 10
76.03924388989365
 20
48.99442468413567
 10
75.98751161460831
 20
48.97498821243921
 10
75.9310129201458
 20
48.95345122865757
 10
75.86967455111807
 20
48.92992759823414
 10
75.80364301830123
 20
48.90418959028212
 10
75.73277181091913
 20
48.87646493568831
 10
75.65724804980327
 20
48.84671302439735
 10
75.5769578695102
 20
48.814860601021195
 10
75.49182801465196
 20
48.781021531003255
 10
75.40211886144795
 20
48.745041338844764
 10
75.30757003367869
 20
48.70707450004448
 10
75.20832804212033
 20
48.666893283715616
 10
75.1044741068835
 20
48.62487193152102
 10
74.99573988702613
 20
48.580676811853216
 10
74.88246697887836
 20
48.53452769087629
 10
74.76442765155342
 20
48.48627805781418
 10
74.64173577049463
 20
48.436001168054915
 10
74.51439133570213
 20
48.38369702159852
 10
74.38232109178777
 20
48.329479483888356
 10
74.24552503875161
 20
48.273348554924446
 10
74.10414968736968
 20
48.21507650381998
 10
73.95804852686591
 20
48.15489106146176
 10
73.80740867807175
 20
48.092751617794434
 10
73.65204302015579
 20
48.02869878287337
 10
73.49209806389406
 20
47.96250482581174
 10
73.3275411639539
 20
47.8944707328844
 10
73.15829906494727
 20
47.82471036953475
 10
72.98459153303828
 20
47.75288213943259
 10
72.80615819200747
 20
47.67914051807667
 10
72.62330002812965
 20
47.60351815079969
 10
72.43571605513002
 20
47.52598239226895
 10
72.24363400389531
 20
47.44667975326054
 10
72.04694000898222
 20
47.36553697838642
 10
71.84574793583405
 20
47.2826273230346
 10
71.6400171743955
 20
47.1977636663737
 10
71.42986159010997
 20
47.11101926379173
 10
71.21502080675795
 20
47.022548590787444
 10
70.99579581061424
 20
46.93238429269349
 10
70.77207273623554
 20
46.84045311412191
 10
70.54385158362176
 20
46.74675505507261
 10
70.31113235277297
 20
46.65129011554567
 10
70.07395565374448
 20
46.554245416372474
 10
69.83228087648095
 20
46.4554338367216
 10
69.58614863103773
 20
46.355042497424506
 10
69.33563217280286
 20
46.25295753303775
 10
69.08087801255243
 20
46.1489512126746
 10
68.82185350495375
 20
46.04332452260985
 10
68.55829827378734
 20
45.936231938342246
 10
68.29021231905318
 20
45.82767345987179
 10
68.01792927235883
 20
45.71738074625637
 10
67.74137587831619
 20
45.60546766293933
 10
67.46055213692532
 20
45.49193420992071
 10
67.17523828202206
 20
45.37712198353068
 10
66.88580059054667
 20
45.26046165655228
 10
66.59220641716637
 20
45.142254215260316
 10
66.29438250649316
 20
45.02261352509819
 10
65.99214173769565
 20
44.90158019612125
 10
65.68578509704861
 20
44.779186873662205
 10
65.37527197449671
 20
44.655246436889605
 10
65.06060237003996
 20
44.52975888580346
 10
64.74174363834564
 20
44.403025206678585
 10
64.41898880096595
 20
44.27458993774141
 10
64.09207748168137
 20
44.144607554490676
 10
63.761164155990684
 20
44.013338433145876
 10
63.4262488238939
 20
43.880782573706995
 10
63.08736413072368
 20
43.7466389898992
 10
62.744436821092
 20
43.61102154716592
 10
62.397694625885606
 20
43.47407675628319
 10
62.04687716888508
 20
43.335959092749775
 10
61.69220421625452
 20
43.1963269602355
 10
61.333789633437306
 20
43.05525361412841
 10
60.971633420433434
 20
42.91273905442848
 10
60.60558906646688
 20
42.76901101202253
 10
60.235656571537575
 20
42.62406948691054
 10
59.86190919103358
 20
42.47780061364911
 10
59.48464791122974
 20
42.33023703757095
 10
59.10357174585122
 20
42.18134611334336
 10
58.7187945603414
 20
42.031201096354366
 10
58.33064998630782
 20
41.87953364566185
 10
57.93895090291902
 20
41.72638437132117
 10
57.54359140945429
 20
41.572168125050524
 10
57.14468537135699
 20
41.41695816223797
 10
56.742151568516476
 20
41.26038024122063
 10
56.3364374979836
 20
41.102239276444415
 10
55.92725013820624
 20
40.9429907296829
 10
55.51466274457239
 20
40.78252073549266
 10
55.09860206169406
 20
40.62094315931713
 10
54.6793284657907
 20
40.45810352565755
 10
54.25684195686229
 20
40.294001834513914
 10
53.83102866946547
 20
40.12856483049818
 10
53.40204307909895
 20
39.96205288982981
 10
52.96977132031939
 20
39.794392757120804
 10
52.53447376934623
 20
39.62542995687239
 10
52.09615042617946
 20
39.45516448908457
 10
51.654915156262504
 20
39.28366960914538
 10
51.2105808387639
 20
39.11098592711018
 10
50.76311482835097
 20
38.93741442925379
 10
50.312623025744465
 20
38.76254026385801
 10
49.85937377188647
 20
38.58669706253033
 10
49.40343235744242
 20
38.4092828527211
 10
48.94472552702423
 20
38.230411499873725
 10
48.4832612453546
 20
38.05057111109446
 10
48.01896625704546
 20
37.8698755518267
 10
47.551832597374165
 20
37.68783671496418
 10
47.08246223889035
 20
37.50451989117227
 10
46.61058684065191
 20
37.31959144884348
 10
46.13621436738146
 20
37.133539495084044
 10
45.65915769824761
 20
36.94640463994933
 10
45.17971781952519
 20
36.75821952877203
 10
44.69800063193487
 20
36.568569309833904
 10
44.21397349014403
 20
36.37775496940979
 10
43.72748988337653
 20
36.186004238386474
 10
43.238916088572616
 20
35.99274778954699
 10
42.74832536112033
 20
35.79787175744795
 10
42.25557915496621
 20
35.60209198008239
 10
41.760522994611584
 20
35.40514808123087
 10
41.263311355555125
 20
35.2073004371128
 10
40.764383770125114
 20
35.007865855067884
 10
40.26366698293349
 20
34.80695820053947
 10
39.76101448320421
 20
34.60480520441438
 10
39.256206504773104
 20
34.40174846302277
 10
38.74976380007916
 20
34.19747902536715
 10
38.241751659787724
 20
33.99139491889788
 10
37.732291914064874
 20
33.78405750610926
 10
37.22079055508362
 20
33.57588960344216
 10
36.7076544698395
 20
33.36650900451105
 10
36.19317667988469
 20
33.15546024754237
 10
35.677438405329895
 20
32.943117574198986
 10
35.160138659900284
 20
32.729448339148206
 10
34.641431919094614
 20
32.514712918609504
 10
34.1212775728575
 20
32.29872419175143
 10
33.59993599740846
 20
32.08132768307527
 10
33.07752105819086
 20
31.86259664796904
 10
32.553918889761306
 20
31.642457831044712
 10
32.0293572230066
 20
31.421057743078357
 10
31.503608327039938
 20
31.198249873293904
 10
30.97675342197206
 20
30.97440846335423
 10
30.448865763190955
 20
30.749419647815916
 10
29.920311627636863
 20
30.522714099462014
 10
29.390944504533703
 20
30.29451954917931
 10
28.860918869380193
 20
30.065096373187266
 10
28.329933735901523
 20
29.83441192615321
 10
27.798363345760546
 20
29.60238498796641
 10
27.266280954345344
 20
29.368901693183513
 10
26.73375981704391
 20
29.133848176361095
 10
26.20065342308019
 20
28.89745216838595
 10
25.667002382509544
 20
28.65990079008953
 10
25.132806695331947
 20
28.421194041471807
 10
24.598399993154917
 20
28.181063581590653
 10
24.06374166592312
 20
27.939322289614648
 10
23.52901883446797
 20
27.695929555488412
 10
22.994125598068756
 20
27.451300230930187
 10
22.458728325117942
 20
27.205702656882107
 10
21.923201257278418
 20
26.95905561323346
 10
21.3880165722111
 20
26.71037492104907
 10
20.852734737587753
 20
26.46034377298929
 10
20.317510228907114
 20
26.209222545273594
 10
19.782375691501887
 20
25.956710251627168
 10
19.24740438076008
 20
25.70269302660659
 10
18.712604261404405
 20
25.447658977318156
 10
18.177934723379472
 20
25.191420982930406
 10
17.643729398292802
 20
24.93371070250121
 10
17.109874420701015
 20
24.67445488064253
 10
16.576524266102858
 20
24.41391389357384
 10
16.043605679110268
 20
24.152201606738526
 10
15.51133842588739
 20
23.88897642380642
 10
14.979649251046158
 20
23.624352210220902
 10
14.448578764641955
 20
23.358516086813417
 10
13.917793335067252
 20
23.0917363945261
 10
13.387960225537062
 20
22.82347645147467
 10
12.859079436051418
 20
22.553736257659136
 10
12.33107771122226
 20
22.282629678522884
 10
11.803881795661542
 20
22.010270579509307
 10
11.27767881020072
 20
21.736618350563056
 10
10.752281634008334
 20
21.461713601739483
 10
10.227991253359221
 20
21.185588978371264
 10
9.704954179029468
 20
20.908016749571637
 10
9.183097155631028
 20
20.629110780783975
 10
8.662346927775875
 20
20.348984937451682
 10
8.142776750852025
 20
20.06752535413136
 10
7.624760866522363
 20
19.784650810712304
 10
7.10803889856741
 20
19.500515782693263
 10
6.592578201654476
 20
19.21542125634906
 10
6.078631187280373
 20
18.92872464907469
 10
5.566279075555801
 20
18.640800202533022
 10
5.055302100316647
 20
18.351989513054235
 10
4.545806162283633
 20
18.061877728920106
 10
4.038165503119628
 20
17.770383630019936
 10
3.532233612048557
 20
17.477734947240506
 10
3.028043134403097
 20
17.183630694306988
 10
2.5256752902939565
 20
16.888445112882255
 10
2.0251627250538347
 20
16.591877216691483
 10
1.5266599141814636
 20
16.294187381954135
 10
1.0297193606259345
 20
15.995570694224318
 10
0.5347153060501302
 20
15.695945933391325
 10
0.04194077200619344
 20
15.394857637681579
 10
-0.4486774968939077
 20
15.092419672538476
 10
-0.9372454013708944
 20
14.789046889680241
 10
-1.423689686036732
 20
14.484625423663479
 10
-1.9079370955033865
 20
14.17904140904479
 10
-2.389873764327451
 20
13.872368101212226
 10
-2.8697600687284144
 20
13.564759975664522
 10
-3.347628654038964
 20
13.256518018676505
 10
-3.82307263326353
 20
12.947260023862656
 10
-4.29594549562604
 20
12.636758260336173
 10
-4.766393751902578
 20
12.325240458983853
 10
-5.234376792037781
 20
12.012893740637129
 10
-5.700008481475065
 20
11.69964484990795
 10
-6.163248210159047
 20
11.385680907627766
 10
-6.624055368034401
 20
11.071189034627992
 10
-7.08225079899234
 20
10.755640513747032
 10
-7.537720637589477
 20
10.439108600372919
 10
-7.99071729532263
 20
10.122235877110658
 10
-8.441208126859097
 20
9.804721357685422
 10
-8.888892145924057
 20
9.486597687429908
 10
-9.333997083404299
 20
9.167718355568022
 10
-9.776295208413035
 20
8.848229872875853
 10
-10.215819166282952
 20
8.528433225628229
 10
-10.65286994328888
 20
8.208295768492455
 10
-11.086967397047216
 20
7.887321429639613
 10
-11.518323328999431
 20
7.566339912506133
 10
-11.947198115364976
 20
7.245505692590777
 10
-12.373266089259028
 20
6.92406232184513
 10
-12.796185654351389
 20
6.602229566433324
 10
-13.216290442249582
 20
6.280275767297492
 10
-13.633653708341646
 20
5.958314789881027
 10
-14.048128941851495
 20
5.636118903297151
 10
-14.459561667280385
 20
5.313948483765329
 10
-14.868179615515107
 20
4.991657020509485
 10
-15.273974821832999
 20
4.669732620635873
 10
-15.676800775457977
 20
4.347947553257713
 10
-16.076584221001994
 20
4.026187952931611
 10
-16.473398413853094
 20
3.70456768510096
 10
-16.86727599934397
 20
3.3833877360405853
 10
-17.25833084291801
 20
3.0625748503624473
 10
-17.64618870291235
 20
2.742047807955841
 10
-18.03084957932699
 20
2.421806608820767
 10
-18.412354082217274
 20
2.10166413212579
 10
-18.790661601527862
 20
1.7818074987023433
 10
-19.16599190342287
 20
1.4625783048806107
 10
-19.53830437784694
 20
1.1441636714920256
 10
-19.90730600324792
 20
0.826108136763008
 10
-20.273110645069195
 20
0.508338445305525
 10
-20.63530345159256
 20
0.1909604978403011
 10
-20.994331919868902
 20
-0.1258306200785642
 10
-21.350269305286275
 20
-0.4419210430076784
 10
-21.702887876957885
 20
-0.7571642601709561
 10
-22.0521143794957
 20
-1.0716741370117964
 10
-22.39784291217898
 20
-1.3858655252484156
 10
-22.740252631116505
 20
-1.6992097077192003
 10
-23.079563302472398
 20
-2.0113650880939766
 10
-23.415294783863054
 20
-2.3228277382016618
 10
-23.747560940731866
 20
-2.6336709134303
 10
-24.07628055296814
 20
-2.943520372117024
 10
-24.40156748601526
 20
-3.252449369649877
 10
-24.723494995261273
 20
-3.560344040585461
 10
-25.041729449098654
 20
-3.8674727258659134
 10
-25.356417358303492
 20
-4.173607694604456
 10
-25.667558722875782
 20
-4.478748946801081
 10
-25.97544656436769
 20
-4.782441020682222
 10
-26.279779896504397
 20
-5.084651270915187
 10
-26.580566684008552
 20
-5.385867804606233
 10
-26.877546550660693
 20
-5.686245097254115
 10
-27.170898652569587
 20
-5.985254431697214
 10
-27.460883365954697
 20
-6.282741332436784
 10
-27.74709380382048
 20
-6.57908800585836
 10
-28.02956261149962
 20
-6.873993465687111
 10
-28.308590775266953
 20
-7.167490357255729
 10
-28.583950564235675
 20
-7.459432169788127
 10
-28.85542221224167
 20
-7.750160499614495
 10
-29.123225485449073
 20
-8.039333750404642
 10
-29.38743363924591
 20
-8.326838056715186
 10
-29.647973418244145
 20
-8.612787283989508
 10
-29.904730957000385
 20
-8.897108176839575
 10
-30.157633000126594
 20
-9.17991460070878
 10
-30.406866668454196
 20
-9.461165945541767
 10
-30.652204231096416
 20
-9.740715700562461
 10
-30.893792198829324
 20
-10.018336134884068
 10
-31.13171179176363
 20
-10.294401490169458
 10
-31.365621413569162
 20
-10.568692000254511
 10
-31.595561674301262
 20
-10.841394785970659
 10
-31.821825595512095
 20
-11.112054385544335
 10
-32.04441317720166
 20
-11.380670798975533
 10
-32.2630640431505
 20
-11.647398501762996
 10
-32.477704937970536
 20
-11.91235135935012
 10
-32.688376471717156
 20
-12.175716492568345
 10
-32.895217190443766
 20
-12.436778063424619
 10
-33.098267704205725
 20
-12.695723192750373
 10
-33.297381502226926
 20
-12.952779611432398
 10
-33.492444719064004
 20
-13.20787406408265
 10
-33.68360386549303
 20
-13.460778819814342
 10
-33.870712430737925
 20
-13.711721609514267
 10
-34.05384367018672
 20
-13.960588567739025
 10
-34.23307083922747
 20
-14.20726582904522
 10
-34.4081335616407
 20
-14.451907868931613
 10
-34.57925160359051
 20
-14.694173091068006
 10
-34.74624580896816
 20
-14.934590212616023
 10
-34.90929533388239
 20
-15.172630516414046
 10
-35.06832692294519
 20
-15.408407867905474
 10
-35.22326732076851
 20
-15.642036132533697
 10
-35.37400266190894
 20
-15.87344205491067
 10
-35.52072006719793
 20
-16.102585024981046
 10
-35.663525437356185
 20
-16.329050191026603
 10
-35.80227226160767
 20
-16.553065283934128
 10
-35.93696053995235
 20
-16.774630303703624
 10
-36.06777739322167
 20
-16.99370464027973
 10
-36.19442183514079
 20
-17.210255648329763
 10
-36.317154241929195
 20
-17.424128852354983
 10
-36.43600725891958
 20
-17.635023266080548
 10
-36.55109475155533
 20
-17.843012144894523
 10
-36.66215634361697
 20
-18.04824996429563
 10
-36.76937915593593
 20
-18.25069611422852
 10
-36.87253545762544
 20
-18.45020408391713
 10
-36.97199949034835
 20
-18.646692653250735
 10
-37.067616778605924
 20
-18.839901446009872
 10
-37.159354677065465
 20
-19.03013144846936
 10
-37.24721318572699
 20
-19.217382660629198
 10
-37.33119230459047
 20
-19.4016550824894
 10
-37.41132467898863
 20
-19.58264772777512
 10
-37.48761030892143
 20
-19.76036059648638
 10
-37.559943293668184
 20
-19.93520854034138
 10
-37.6284295339496
 20
-20.106776707621908
 10
-37.69277600821351
 20
-20.27552056010154
 10
-37.75327573801207
 20
-20.440984636006696
 10
-37.809635701793134
 20
-20.603624397110956
 10
-37.86200241033277
 20
-20.76321211252753
 10
-37.910375863631
 20
-20.919747782256415
 10
-37.954568940856376
 20
-21.07327201635297
 10
-37.994955883671764
 20
-21.223703594706482
 10
-38.03097532958285
 20
-21.371164347483013
 10
-38.06311538569592
 20
-21.5156463099599
 10
-38.09107506573615
 20
-21.65711683680446
 10
-38.11507413586763
 20
-21.795234331686498
 10
-38.1350799507577
 20
-21.930299780880855
 10
-38.15105190035098
 20
-22.06212606355609
 10
-38.16328300619966
 20
-22.19025771793863
 10
-38.17166736758301
 20
-22.315109595746705
 10
-38.1762376298337
 20
-22.436380710705475
 10
-38.17714030372782
 20
-22.553843331928167
 10
-38.17466841081754
 20
-22.667041997641196
 10
-38.168821951102856
 20
-22.775976707844567
 10
-38.15986130080324
 20
-22.88049298703954
 10
-38.147925005972105
 20
-22.979874997233065
 10
-38.133419953605014
 20
-23.073740532039604
 10
-38.117192563025775
 20
-23.16102419241328
 10
-38.099527891063865
 20
-23.24078240947425
 10
-38.08171188937134
 20
-23.311266591516272
 10
-38.065030509600255
 20
-23.370728146833088
 10
-38.05101415017679
 20
-23.416287794007193
 10
-38.041608061245356
 20
-23.445172152341804
 10
-37.575596319701546
 20
-24.174278053439465
 10
-37.569696851486995
 20
-24.17869333867974
 10
-37.5520717022314
 20
-24.191825328957158
 10
-37.523013893486926
 20
-24.213218562498152
 10
-37.48116421821348
 20
-24.24473549645237
 10
-37.42521204414899
 20
-24.288913815907136
 10
-37.35885278602818
 20
-24.339759262417974
 10
-37.284243495436925
 20
-24.393668751851667
 10
-37.20256422330654
 20
-24.44930854422018
 10
-37.11523946734249
 20
-24.50421420982422
 10
-37.02281466059374
 20
-24.55728770428521
 10
-36.92588381088729
 20
-24.608106211162262
 10
-36.8246260743319
 20
-24.65614101329377
 10
-36.71933447247975
 20
-24.700936648906158
 10
-36.6101555161069
 20
-24.74226538711264
 10
-36.49708920521336
 20
-24.780127227913212
 10
-36.38032266063056
 20
-24.81448156125253
 10
-36.2598885276912
 20
-24.845027400855763
 10
-36.13571355100722
 20
-24.871878612166302
 10
-36.007984851410065
 20
-24.8949945851288
 10
-35.87644205268026
 20
-24.914529795241997
 10
-35.74115841020585
 20
-24.9303703770625
 10
-35.60250816564971
 20
-24.94243511047961
 10
-35.459929956517506
 20
-24.950845825659382
 10
-35.313838634527485
 20
-24.955708423322537
 10
-35.16393321340481
 20
-24.9569902581364
 10
-35.01040081398092
 20
-24.954650720045613
 10
-34.85331469164387
 20
-24.948575943606773
 10
-34.6924550802295
 20
-24.93910752515007
 10
-34.52796849051392
 20
-24.92601773378872
 10
-34.35956190094497
 20
-24.909762031296292
 10
-34.18745507768674
 20
-24.889998821342605
 10
-34.01161537540659
 20
-24.867029090202482
 10
-33.83192892866109
 20
-24.84077958248789
 10
-33.648249226674174
 20
-24.811478029085613
 10
-33.46076339027727
 20
-24.7790838199403
 10
-33.26939816408234
 20
-24.74371082049534
 10
-33.07415354808938
 20
-24.70535903075073
 10
-32.87469591069088
 20
-24.66429679164862
 10
-32.671326238161654
 20
-24.620556748521686
 10
-32.463890055002985
 20
-24.573878525150462
 10
-32.25261509210163
 20
-24.524408632311026
 10
-32.03724097323813
 20
-24.47230154550212
 10
-31.81788156385587
 20
-24.417630520111796
 10
-31.5944962538995
 20
-24.36020843530861
 10
-31.367345419588506
 20
-24.29988081559382
 10
-31.136241940091434
 20
-24.236688271022775
 10
-30.90134029090704
 20
-24.170891177814955
 10
-30.662526606591932
 20
-24.102416280582315
 10
-30.419800887146117
 20
-24.03126357932486
 10
-30.173382898733703
 20
-23.957091477712403
 10
-29.92338650679809
 20
-23.87997323113299
 10
-29.669697845895875
 20
-23.79983558419858
 10
-29.412284270694386
 20
-23.716979523183998
 10
-29.151145781193616
 20
-23.63140504808925
 10
-28.88657539894572
 20
-23.542656697140753
 10
-28.61854047861803
 20
-23.451035456613347
 10
-28.347000410155164
 20
-23.35635420567558
 10
-28.071881938169113
 20
-23.25872680977087
 10
-27.79329892810324
 20
-23.158226524287237
 10
-27.51132463534561
 20
-23.05473948378129
 10
-27.22588580450817
 20
-22.948379553696434
 10
-26.936982435590924
 20
-22.83914673403266
 10
-26.644687783981915
 20
-22.726927159346577
 10
-26.349042459736484
 20
-22.611907950469618
 10
-26.05004646285464
 20
-22.49408910740178
 10
-25.747659183281034
 20
-22.373283509311637
 10
-25.441961841126364
 20
-22.249865397862056
 10
-25.13291382633528
 20
-22.123647652221596
 10
-24.82044188351974
 20
-21.99474413783365
 10
-24.504733133511177
 20
-21.863114244642873
 10
-24.18600734247372
 20
-21.728416376319082
 10
-23.86404474424324
 20
-21.590992129192458
 10
-23.538584962600268
 20
-21.450995978761746
 10
-23.210042849263015
 20
-21.30853382574767
 10
-22.87833718412078
 20
-21.163231428487364
 10
-22.543541222561608
 20
-21.01497492153744
 10
-22.2057361846962
 20
-20.864138546560767
 10
-21.864734949693126
 20
-20.71076291361269
 10
-21.520684028328464
 20
-20.554620291806426
 10
-21.173697286045606
 20
-20.395783936530012
 10
-20.823847978232592
 20
-20.23413998234006
 10
-20.470916338725306
 20
-20.07003002556675
 10
-20.115048878299827
 20
-19.903226335323296
 10
-19.75609908618007
 20
-19.73395664249648
 10
-19.39451445941694
 20
-19.562025861532206
 10
-19.02999401173562
 20
-19.387401347097786
 10
-18.662651608579505
 20
-19.21015635458126
 10
-18.292527860003933
 20
-19.03047800481406
 10
-17.919655411341598
 20
-18.848065311521363
 10
-17.544001617259823
 20
-18.663219260978
 10
-17.165753598590022
 20
-18.47589924312861
 10
-16.78483013522151
 20
-18.285731016310326
 10
-16.40145895804107
 20
-18.092861091299234
 10
-16.01542030088456
 20
-17.897631064425504
 10
-15.626714163751998
 20
-17.700040935689152
 10
-15.235340546643382
 20
-17.500090705090162
 10
-14.841633081166224
 20
-17.29751203168641
 10
-14.445738278096604
 20
-17.092077184591098
 10
-14.047249250438975
 20
-16.884168370189762
 10
-13.646393729080113
 20
-16.673932099258487
 10
-13.24320435935271
 20
-16.461067385522433
 10
-12.837941517476242
 20
-16.245419753482874
 10
-12.430385437286587
 20
-16.027330799469976
 10
-12.020503473451052
 20
-15.807101509758569
 10
-11.608328271302332
 20
-15.584430898073826
 10
-11.194079597004542
 20
-15.358977368085569
 10
-10.777838670668393
 20
-15.131115161456666
 10
-10.359532236905837
 20
-14.900958143630506
 10
-9.938932564830097
 20
-14.668359803831013
 10
-9.516454506159388
 20
-14.433426042778912
 10
-9.092130706226401
 20
-14.19585587419938
 10
-8.66596116503113
 20
-13.955649298092414
 10
-8.23798649262893
 20
-13.712993435289444
 10
-7.807840412079602
 20
-13.468457613007443
 10
-7.375856554990653
 20
-13.22177349030427
 10
-6.94221407747086
 20
-12.97241235001831
 10
-6.506839724132181
 20
-12.72048805759296
 10
-6.0699612258614
 20
-12.466147123804298
 10
-5.631171695662963
 20
-12.209771755037854
 10
-5.1907315097563425
 20
-11.951207475794886
 10
-4.748640668141536
 20
-11.690454286075392
 10
-4.30504568159463
 20
-11.427284454992586
 10
-3.8598732947275862
 20
-11.161811847989867
 10
-3.4132047276511064
 20
-10.894410706730097
 10
-2.964958760254483
 20
-10.624706789550407
 10
-2.515509634200581
 20
-10.352618876340093
 10
-2.0647840941013653
 20
-10.078260832542549
 10
-1.6127088845687954
 20
-9.801746523601171
 10
-1.159243395547514
 20
-9.522888828684518
 10
-0.7048757341437948
 20
-9.241679783069937
 10
-0.24956529030226302
 20
-8.957932265925983
 10
0.20724133374869874
 20
-8.67225621452498
 10
0.6652431517342737
 20
-8.384684274199616
 10
1.1238867658828195
 20
-8.094606507677572
 10
1.5836196732452477
 20
-7.802218000512946
 10
2.044401263766207
 20
-7.507705873537169
 10
2.505857295782822
 20
-7.210988906639544
 10
2.9681422447938464
 20
-6.9118067236005905
 10
3.4310283799124974
 20
-6.610305835196387
 10
3.8949225881343175
 20
-6.306868447812474
 10
4.359564493239839
 20
-6.0013400859501
 10
4.8244739528454765
 20
-5.693224677780339
 10
5.28998459855872
 20
-5.3827905642453375
 10
5.75627558648837
 20
-5.070566462506695
 10
6.223013285026881
 20
-4.7562840316222905
 10
6.690238304229627
 20
-4.439756150760675
 10
7.1579832894292865
 20
-4.121283806196683
 10
7.625955219073699
 20
-3.800411536156742
 10
8.094154093162873
 20
-3.477139340640844
 10
8.562759067805564
 20
-3.1519959368106125
 10
9.03172953294642
 20
-2.8251684454974804
 10
9.501106098640806
 20
-2.496469745870007
 10
9.970555133281195
 20
-2.16563149698606
 10
10.440223147643675
 20
-1.8328814297324232
 10
10.910110141728252
 20
-1.4982195441090909
 10
11.380102250091522
 20
-1.1617190955041117
 10
11.849979706569359
 20
-0.8230384875873088
 10
12.31988902193786
 20
-0.4824054512454584
 10
12.789895486862388
 20
-0.14042195902822235
 10
13.260153576841692
 20
0.20317236528387445
 10
13.73021579482487
 20
0.5485726072449376
 10
14.200269261643353
 20
0.8957381567996083
 10
14.670086246410348
 20
1.2445225031718032
 10
15.139853869957296
 20
1.5948850363061735
 10
15.609498876896154
 20
1.9469396216461126
 10
16.078866791728178
 20
2.3004258829721436
 10
16.548217990672843
 20
2.655189344785525
 10
17.017479218342103
 20
3.0113438725296464
 10
17.486349488461133
 20
3.368856820871819
 10
17.955015921861374
 20
3.727687579756691
 10
18.423511163875503
 20
4.087535162909438
 10
18.891656058394766
 20
4.448928287491673
 10
19.359369385308433
 20
4.81149271184052
 10
19.82679765539261
 20
5.175000705069206
 10
20.29386761325925
 20
5.539566132621115
 10
20.760432748132274
 20
5.905416725383042
 10
21.226639570787754
 20
6.272324752468192
 10
21.692406861114975
 20
6.639915972213693
 10
22.157701973781283
 20
7.008491370894387
 10
22.62263080950737
 20
7.377636096792041
 10
23.086973602129138
 20
7.74769174623684
 10
23.55065709625855
 20
8.118772184672181
 10
24.013827802671667
 20
8.490649681211268
 10
24.47647775664583
 20
8.862836128747848
 10
24.938720823624454
 20
9.235404782669963
 10
25.400223371999992
 20
9.608623983919742
 10
25.861058657160505
 20
9.982379867053801
 10
26.321226679105983
 20
10.356672432072132
 10
26.78080069322447
 20
10.731387813531349
 10
27.23947971324115
 20
11.106493366098764
 10
27.69745085998745
 20
11.481948479719023
 10
28.154673523408
 20
11.857566033560682
 10
28.611408079722306
 20
12.23319155212502
 10
29.067133776491385
 20
12.609133986409496
 10
29.521923869103308
 20
12.985279470970745
 10
29.976258499941657
 20
13.361131933979829
 10
30.4294704057914
 20
13.737228057321026
 10
30.881486331264497
 20
14.11368170643773
 10
31.332859674132596
 20
14.489882944057623
 10
31.78350921428498
 20
14.865457528517835
 10
32.23310928483681
 20
15.241161907866777
 10
32.68161927573271
 20
15.616808961272994
 10
33.128925321529316
 20
15.99232543334847
 10
33.575287798446084
 20
16.36755684859444
 10
34.020666096427654
 20
16.74231608617947
 10
34.46513347086209
 20
17.116489280660186
 10
34.90842954552993
 20
17.490230907535317
 10
35.35040780965503
 20
17.86376869769165
 10
35.7912880294016
 20
18.236761054799025
 10
36.23107020476956
 20
18.609207978857413
 10
36.6695998602602
 20
18.98084909364735
 10
37.10710472676029
 20
19.351830909944923
 10
37.54313730721895
 20
19.72234851330423
 10
37.97777085702421
 20
20.09228803828188
 10
38.41137165311624
 20
20.461080157660888
 10
38.843866440107064
 20
20.828838736884673
 10
39.27488097633377
 20
21.19564499606393
 10
39.704716248071186
 20
21.561531580531344
 10
40.13307126904449
 20
21.926465844954226
 10
40.56005990469709
 20
22.29052104472062
 10
40.985714800361656
 20
22.653396193555704
 10
41.40992209059479
 20
23.01501803607142
 10
41.83294215161599
 20
23.37523209676904
 10
42.25432748637432
 20
23.73423346120266
 10
42.674305825756605
 20
24.09216864014835
 10
43.092576183487985
 20
24.44900498827344
 10
43.50957809189671
 20
24.804059312917552
 10
43.92519768553938
 20
25.15725835869266
 10
44.33922316297456
 20
25.509431829035186
 10
44.75123967248402
 20
25.86047382322443
 10
45.16206098805887
 20
26.209619928489307
 10
45.571386123424276
 20
26.55683749949712
 10
45.978922057028086
 20
26.90258199802147
 10
46.3846687888703
 20
27.246853424062333
 10
46.78869957433895
 20
27.589537912176336
 10
47.19138069037423
 20
27.930066135146483
 10
47.592337895313314
 20
28.268519313083516
 10
47.99157915387882
 20
28.60538555309367
 10
48.38887673518398
 20
28.940518344400868
 10
48.7843771500049
 20
29.27368995611834
 10
49.178226909117605
 20
29.604672657359277
 10
49.57027950174608
 20
29.933694179010477
 10
49.960421062446855
 20
30.26068126568389
 10
50.34891196743947
 20
30.585479441880786
 10
50.73552448583713
 20
30.907942196825076
 10
51.120152716919065
 20
31.22848438223497
 10
51.502568929798535
 20
31.54695948733441
 10
51.883261231581784
 20
31.86335954740071
 10
52.26192067127131
 20
32.17716380999494
 10
52.638774979753904
 20
32.48851878589315
 10
53.013750901641544
 20
32.797538340538765
 10
53.38647419527133
 20
33.10430369404248
 10
53.75701811603134
 20
33.408700980960894
 10
54.12568365019636
 20
33.7107628466267
 10
54.49220245682429
 20
34.0101556594324
 10
54.85683491213458
 20
34.30672494387922
 10
55.21924738451972
 20
34.60073904090931
 10
55.579480484035074
 20
34.892385071354106
 10
55.93749360062526
 20
35.18147591438217
 10
56.29328673429031
 20
35.468011569993514
 10
56.646965785750965
 20
35.751577186469916
 10
56.99842485428645
 20
36.03258761552958
 10
57.347509464398044
 20
36.31078248095304
 10
57.69418697075305
 20
36.586462769015114
 10
58.03867713951559
 20
36.85928688338564
 10
58.38093936063035
 20
37.1290677032332
 10
58.72075386793314
 20
37.396146824887914
 10
59.05812066142402
 20
37.66052424834984
 10
59.39303974110295
 20
37.92219997361894
 10
59.72542988685925
 20
38.180799759032375
 10
60.05566534035579
 20
38.43624238447942
 10
60.383265959208956
 20
38.689023921789016
 10
60.70819113336339
 20
38.93895725012972
 10
61.030554728262516
 20
39.186115624889574
 10
61.35038938923899
 20
39.430198059793746
 10
61.66750799546139
 20
39.671245164897584
 10
61.98206502242847
 20
39.90951731642058
 10
62.29405250541756
 20
40.14452640725647
 10
62.60332393365256
 20
40.37650016829202
 10
62.909952562521546
 20
40.605324734083865
 10
63.213718625860395
 20
40.83134170096216
 10
63.51476863444513
 20
41.05432333804014
 10
63.81298872283242
 20
41.274196389929756
 10
64.10845214641031
 20
41.49084699118761
 10
64.4011995152341
 20
41.704462262645116
 10
64.69092984302898
 20
41.915009558969636
 10
64.97764312979498
 20
42.12248888016113
 10
65.26152649636352
 20
42.32685961616426
 10
65.54265319812264
 20
42.528007901535645
 10
65.82057573802142
 20
42.726128821829356
 10
66.09540798150323
 20
42.92129563243345
 10
66.36736969473226
 20
43.113166737017735
 10
66.63627375687702
 20
43.301782745637574
 10
66.90197365716145
 20
43.487371389179756
 10
67.16472977180503
 20
43.669778192145536
 10
67.42438762530901
 20
43.84874277831543
 10
67.6809145723407
 20
44.02456613396428
 10
67.93423735751203
 20
44.197362124535445
 10
68.18424211537965
 20
44.36705749464092
 10
68.43107535671962
 20
44.53342451339391
 10
68.67466382614393
 20
44.696577046237806
 10
68.91486101287644
 20
44.85674282405938
 10
69.15174017230525
 20
45.01380798141527
 10
69.38533394976301
 20
45.16747153203063
 10
69.61564234524973
 20
45.31773347590545
 10
69.84248620265664
 20
45.46512253020134
 10
70.0658249119284
 20
45.60945157408691
 10
70.285658473065
 20
45.750720607562116
 10
70.50206014145449
 20
45.88881576518357
 10
70.71491605165346
 20
46.02366379156326
 10
70.9243400691053
 20
46.1553379420892
 10
71.13007181759056
 20
46.28399269226014
 10
71.3322578078853
 20
46.40940031118929
 10
71.53075152921348
 20
46.53178852976347
 10
71.7258133577945
 20
46.65100287248387
 10
71.91706905196551
 20
46.76712455946125
 10
72.10455922178193
 20
46.88034071152702
 10
72.28824325718837
 20
46.99046420784977
 10
72.46830827901623
 20
47.0974544383741
 10
72.64449391104607
 20
47.2014658785988
 10
72.81706052949737
 20
47.30234405302511
 10
72.9855606373192
 20
47.40028404720714
 10
73.15029522078639
 20
47.49531850647755
 10
73.31103654901217
 20
47.58730092006027
 10
73.46789848743992
 20
47.67630454334334
 10
73.62088103606966
 20
47.76232937632679
 10
73.76991093951332
 20
47.845489284453976
 10
73.91494758771553
 20
47.92559714689346
 10
74.05584446990028
 20
48.00288069453206
 10
74.19278870689895
 20
48.077299317314406
 10
74.32559317788012
 20
48.14889362529586
 10
74.4543311382318
 20
48.217549753033005
 10
74.578929332566
 20
48.28338156596926
 10
74.69946101627075
 20
48.3462751986612
 10
74.815852933958
 20
48.406344516552274
 10
74.92795857485166
 20
48.46381725052922
 10
75.0358105842844
 20
48.518392414317226
 10
75.13956343775502
 20
48.57033038413575
 10
75.23880228354527
 20
48.619525259264115
 10
75.33394197337334
 20
48.66608294042298
 10
75.42475477635253
 20
48.709856916836316
 10
75.51109418170668
 20
48.75107491939088
 10
75.5931473102672
 20
48.789696338031334
 10
75.6708002965908
 20
48.825647917369636
 10
75.74390662990133
 20
48.85915738829257
 10
75.81272668641829
 20
48.89007027530138
 10
75.87700008992213
 20
48.91854105389483
 10
75.936800095801
 20
48.94445585862952
 10
75.99198019327879
 20
48.96804242039224
 10
76.04261363774351
 20
48.98918687373959
 10
76.08874103925052
 20
49.008076339503
 10
76.13013466691302
 20
49.024564306906385
 10
76.16683513078642
 20
49.03883789678121
 10
76.19895629631404
 20
49.05097036451546
 10
76.22627043260913
 20
49.060815199333106
 10
76.24874489433901
 20
49.06867338750896
 10
76.26656680233509
 20
49.074504318987664
 10
76.27936191493455
 20
49.078389213879916
 10
76.28717084219268
 20
49.08051519301716
 10
76.28984707333343
 20
49.08110998728619
  0
ENDSEC
  0
SECTION
  2
OBJECTS
  0
DICTIONARY
  5
A
330
0
100
AcDbDictionary
280
0
281
1
  3
ACAD_COLOR
350
B
  3
ACAD_GROUP
350
C
  3
ACAD_LAYOUT
350
D
  3
ACAD_MATERIAL
350
E
  3
ACAD_MLEADERSTYLE
350
F
  3
ACAD_MLINESTYLE
350
10
  3
ACAD_PLOTSETTINGS
350
11
  3
ACAD_PLOTSTYLENAME
350
12
  3
ACAD_SCALELIST
350
14
  3
ACAD_TABLESTYLE
350
15
  3
ACAD_VISUALSTYLE
350
16
  3
EZDXF_META
350
2D
  0
DICTIONARY
  5
B
330
A
100
AcDbDictionary
280
0
281
1
  0
DICTIONARY
  5
C
330
A
100
AcDbDictionary
280
0
281
1
  0
DICTIONARY
  5
D
330
A
100
AcDbDictionary
280
0
281
1
  3
Model
350
1A
  3
Layout1
350
1E
  0
DICTIONARY
  5
E
330
A
100
AcDbDictionary
280
0
281
1
  3
ByBlock
350
1F
  3
ByLayer
350
20
  3
Global
350
21
  0
DICTIONARY
  5
F
330
A
100
AcDbDictionary
280
0
281
1
  3
Standard
350
2C
  0
DICTIONARY
  5
10
330
A
100
AcDbDictionary
280
0
281
1
  3
Standard
350
22
  0
DICTIONARY
  5
11
330
A
100
AcDbDictionary
280
0
281
1
  0
ACDBDICTIONARYWDFLT
  5
12
330
A
100
AcDbDictionary
280
0
281
1
  3
Normal
350
13
100
AcDbDictionaryWithDefault
340
13
  0
ACDBPLACEHOLDER
  5
13
330
12
  0
DICTIONARY
  5
14
330
A
100
AcDbDictionary
280
0
281
1
  0
DICTIONARY
  5
15
330
A
100
AcDbDictionary
280
0
281
1
  0
DICTIONARY
  5
16
330
A
100
AcDbDictionary
280
0
281
1
  0
LAYOUT
  5
1A
330
D
100
AcDbPlotSettings
  1

  4
A3
  6

 40
7.5
 41
20.0
 42
7.5
 43
20.0
 44
420.0
 45
297.0
 46
0.0
 47
0.0
 48
0.0
 49
0.0
140
0.0
141
0.0
142
1.0
143
1.0
 70
1024
 72
1
 73
0
 74
5
  7

 75
16
 76
0
 77
2
 78
300
147
1.0
148
0.0
149
0.0
100
AcDbLayout
  1
Model
 70
1
 71
0
 10
0.0
 20
0.0
 11
420.0
 21
297.0
 12
0.0
 22
0.0
 32
0.0
 14
1e+20
 24
1e+20
 34
1e+20
 15
-1e+20
 25
-1e+20
 35
-1e+20
146
0.0
 13
0.0
 23
0.0
 33
0.0
 16
1.0
 26
0.0
 36
0.0
 17
0.0
 27
1.0
 37
0.0
 76
1
330
17
  0
LAYOUT
  5
1E
330
D
100
AcDbPlotSettings
  1

  4
A3
  6

 40
7.5
 41
20.0
 42
7.5
 43
20.0
 44
420.0
 45
297.0
 46
0.0
 47
0.0
 48
0.0
 49
0.0
140
0.0
141
0.0
142
1.0
143
1.0
 70
0
 72
1
 73
0
 74
5
  7

 75
16
 76
0
 77
2
 78
300
147
1.0
148
0.0
149
0.0
100
AcDbLayout
  1
Layout1
 70
1
 71
1
 10
0.0
 20
0.0
 11
420.0
 21
297.0
 12
0.0
 22
0.0
 32
0.0
 14
1e+20
 24
1e+20
 34
1e+20
 15
-1e+20
 25
-1e+20
 35
-1e+20
146
0.0
 13
0.0
 23
0.0
 33
0.0
 16
1.0
 26
0.0
 36
0.0
 17
0.0
 27
1.0
 37
0.0
 76
1
330
1B
  0
MATERIAL
  5
1F
102
{ACAD_REACTORS
330
E
102
}
330
E
100
AcDbMaterial
  1
ByBlock
  2

 70
0
 40
1.0
 71
1
 41
1.0
 91
-1023410177
 42
1.0
 72
1
  3

 73
1
 74
1
 75
1
 44
0.5
 73
0
 45
1.0
 46
1.0
 77
1
  4

 78
1
 79
1
170
1
 48
1.0
171
1
  6

172
1
173
1
174
1
140
1.0
141
1.0
175
1
  7

176
1
177
1
178
1
143
1.0
179
1
  8

270
1
271
1
272
1
145
1.0
146
1.0
273
1
  9

274
1
275
1
276
1
 42
1.0
 72
1
  3

 73
1
 74
1
 75
1
 94
63
  0
MATERIAL
  5
20
102
{ACAD_REACTORS
330
E
102
}
330
E
100
AcDbMaterial
  1
ByLayer
  2

 70
0
 40
1.0
 71
1
 41
1.0
 91
-1023410177
 42
1.0
 72
1
  3

 73
1
 74
1
 75
1
 44
0.5
 73
0
 45
1.0
 46
1.0
 77
1
  4

 78
1
 79
1
170
1
 48
1.0
171
1
  6

172
1
173
1
174
1
140
1.0
141
1.0
175
1
  7

176
1
177
1
178
1
143
1.0
179
1
  8

270
1
271
1
272
1
145
1.0
146
1.0
273
1
  9

274
1
275
1
276
1
 42
1.0
 72
1
  3

 73
1
 74
1
 75
1
 94
63
  0
MATERIAL
  5
21
102
{ACAD_REACTORS
330
E
102
}
330
E
100
AcDbMaterial
  1
Global
  2

 70
0
 40
1.0
 71
1
 41
1.0
 91
-1023410177
 42
1.0
 72
1
  3

 73
1
 74
1
 75
1
 44
0.5
 73
0
 45
1.0
 46
1.0
 77
1
  4

 78
1
 79
1
170
1
 48
1.0
171
1
  6

172
1
173
1
174
1
140
1.0
141
1.0
175
1
  7

176
1
177
1
178
1
143
1.0
179
1
  8

270
1
271
1
272
1
145
1.0
146
1.0
273
1
  9

274
1
275
1
276
1
 42
1.0
 72
1
  3

 73
1
 74
1
 75
1
 94
63
  0
MLINESTYLE
  5
22
102
{ACAD_REACTORS
330
10
102
}
330
10
100
AcDbMlineStyle
  2
Standard
 70
0
  3

 62
256
 51
90.0
 52
90.0
 71
2
 49
0.5
 62
256
  6
BYLAYER
 49
-0.5
 62
256
  6
BYLAYER
  0
MLEADERSTYLE
  5
2C
102
{ACAD_REACTORS
330
F
102
}
330
F
100
AcDbMLeaderStyle
179
2
170
2
171
1
172
0
 90
2
 40
0.0
 41
0.0
173
1
 91
-1056964608
 92
-2
290
1
 42
2.0
291
1
 43
8.0
  3
Standard
 44
4.0
300

342
29
174
1
175
1
176
0
178
1
 93
-1056964608
 45
4.0
292
0
297
0
 46
4.0
 94
-1056964608
 47
1.0
 49
1.0
140
1.0
294
1
141
0.0
177
0
142
1.0
295
0
296
0
143
3.75
271
0
272
9
273
9
  0
DICTIONARY
  5
2D
330
A
100
AcDbDictionary
280
1
281
1
  3
CREATED_BY_EZDXF
350
2E
  3
WRITTEN_BY_EZDXF
350
32
  0
DICTIONARYVAR
  5
2E
330
2D
100
DictionaryVariables
280
0
  1
1.3.5 @ 2025-08-18T19:55:48.886903+00:00
  0
DICTIONARYVAR
  5
32
330
2D
100
DictionaryVariables
280
0
  1
1.3.5 @ 2025-08-18T19:55:48.893906+00:00
  0
ENDSEC
  0
EOF
