  0
SECTION
  2
HEADER
  9
$ACADVER
  1
AC1032
  9
$ACADMAINTVER
 90
4
  9
$DWGCODEPAGE
  3
ANSI_1252
  9
$LASTSAVEDBY
  1
ezdxf
  9
$REQUIREDVERSIONS
160
0
  9
$INSBASE
 10
0.0
 20
0.0
 30
0.0
  9
$EXTMIN
 10
1e+20
 20
1e+20
 30
1e+20
  9
$EXTMAX
 10
-1e+20
 20
-1e+20
 30
-1e+20
  9
$LIMMIN
 10
0.0
 20
0.0
  9
$LIMMAX
 10
420.0
 20
297.0
  9
$ORTHOMODE
 70
0
  9
$REGENMODE
 70
1
  9
$FILLMODE
 70
1
  9
$QTEXTMODE
 70
0
  9
$MIRRTEXT
 70
1
  9
$LTSCALE
 40
1.0
  9
$ATTMODE
 70
1
  9
$TEXTSIZE
 40
2.5
  9
$TRACEWID
 40
1.0
  9
$TEXTSTYLE
  7
Standard
  9
$CLAYER
  8
0
  9
$CELTYPE
  6
ByLayer
  9
$CECOLOR
 62
256
  9
$CELTSCALE
 40
1.0
  9
$DISPSILH
 70
0
  9
$DIMSCALE
 40
1.0
  9
$DIMASZ
 40
2.5
  9
$DIMEXO
 40
0.625
  9
$DIMDLI
 40
3.75
  9
$DIMRND
 40
0.0
  9
$DIMDLE
 40
0.0
  9
$DIMEXE
 40
1.25
  9
$DIMTP
 40
0.0
  9
$DIMTM
 40
0.0
  9
$DIMTXT
 40
2.5
  9
$DIMCEN
 40
2.5
  9
$DIMTSZ
 40
0.0
  9
$DIMTOL
 70
0
  9
$DIMLIM
 70
0
  9
$DIMTIH
 70
0
  9
$DIMTOH
 70
0
  9
$DIMSE1
 70
0
  9
$DIMSE2
 70
0
  9
$DIMTAD
 70
1
  9
$DIMZIN
 70
8
  9
$DIMBLK
  1

  9
$DIMASO
 70
1
  9
$DIMSHO
 70
1
  9
$DIMPOST
  1

  9
$DIMAPOST
  1

  9
$DIMALT
 70
0
  9
$DIMALTD
 70
3
  9
$DIMALTF
 40
0.03937007874
  9
$DIMLFAC
 40
1.0
  9
$DIMTOFL
 70
1
  9
$DIMTVP
 40
0.0
  9
$DIMTIX
 70
0
  9
$DIMSOXD
 70
0
  9
$DIMSAH
 70
0
  9
$DIMBLK1
  1

  9
$DIMBLK2
  1

  9
$DIMSTYLE
  2
ISO-25
  9
$DIMCLRD
 70
0
  9
$DIMCLRE
 70
0
  9
$DIMCLRT
 70
0
  9
$DIMTFAC
 40
1.0
  9
$DIMGAP
 40
0.625
  9
$DIMJUST
 70
0
  9
$DIMSD1
 70
0
  9
$DIMSD2
 70
0
  9
$DIMTOLJ
 70
0
  9
$DIMTZIN
 70
8
  9
$DIMALTZ
 70
0
  9
$DIMALTTZ
 70
0
  9
$DIMUPT
 70
0
  9
$DIMDEC
 70
2
  9
$DIMTDEC
 70
2
  9
$DIMALTU
 70
2
  9
$DIMALTTD
 70
3
  9
$DIMTXSTY
  7
Standard
  9
$DIMAUNIT
 70
0
  9
$DIMADEC
 70
0
  9
$DIMALTRND
 40
0.0
  9
$DIMAZIN
 70
0
  9
$DIMDSEP
 70
44
  9
$DIMATFIT
 70
3
  9
$DIMFRAC
 70
0
  9
$DIMLDRBLK
  1

  9
$DIMLUNIT
 70
2
  9
$DIMLWD
 70
-2
  9
$DIMLWE
 70
-2
  9
$DIMTMOVE
 70
0
  9
$DIMFXL
 40
1.0
  9
$DIMFXLON
 70
0
  9
$DIMJOGANG
 40
0.785398163397
  9
$DIMTFILL
 70
0
  9
$DIMTFILLCLR
 70
0
  9
$DIMARCSYM
 70
0
  9
$DIMLTYPE
  6

  9
$DIMLTEX1
  6

  9
$DIMLTEX2
  6

  9
$DIMTXTDIRECTION
 70
0
  9
$LUNITS
 70
2
  9
$LUPREC
 70
4
  9
$SKETCHINC
 40
1.0
  9
$FILLETRAD
 40
10.0
  9
$AUNITS
 70
0
  9
$AUPREC
 70
2
  9
$MENU
  1
.
  9
$ELEVATION
 40
0.0
  9
$PELEVATION
 40
0.0
  9
$THICKNESS
 40
0.0
  9
$LIMCHECK
 70
0
  9
$CHAMFERA
 40
0.0
  9
$CHAMFERB
 40
0.0
  9
$CHAMFERC
 40
0.0
  9
$CHAMFERD
 40
0.0
  9
$SKPOLY
 70
0
  9
$TDCREATE
 40
2460906.8720949073
  9
$TDUCREATE
 40
2458532.153996898
  9
$TDUPDATE
 40
2460906.8720949073
  9
$TDUUPDATE
 40
2458532.1544311
  9
$TDINDWG
 40
0.0
  9
$TDUSRTIMER
 40
0.0
  9
$USRTIMER
 70
1
  9
$ANGBASE
 50
0.0
  9
$ANGDIR
 70
0
  9
$PDMODE
 70
0
  9
$PDSIZE
 40
0.0
  9
$PLINEWID
 40
0.0
  9
$SPLFRAME
 70
0
  9
$SPLINETYPE
 70
6
  9
$SPLINESEGS
 70
8
  9
$HANDSEED
  5
33
  9
$SURFTAB1
 70
6
  9
$SURFTAB2
 70
6
  9
$SURFTYPE
 70
6
  9
$SURFU
 70
6
  9
$SURFV
 70
6
  9
$UCSBASE
  2

  9
$UCSNAME
  2

  9
$UCSORG
 10
0.0
 20
0.0
 30
0.0
  9
$UCSXDIR
 10
1.0
 20
0.0
 30
0.0
  9
$UCSYDIR
 10
0.0
 20
1.0
 30
0.0
  9
$UCSORTHOREF
  2

  9
$UCSORTHOVIEW
 70
0
  9
$UCSORGTOP
 10
0.0
 20
0.0
 30
0.0
  9
$UCSORGBOTTOM
 10
0.0
 20
0.0
 30
0.0
  9
$UCSORGLEFT
 10
0.0
 20
0.0
 30
0.0
  9
$UCSORGRIGHT
 10
0.0
 20
0.0
 30
0.0
  9
$UCSORGFRONT
 10
0.0
 20
0.0
 30
0.0
  9
$UCSORGBACK
 10
0.0
 20
0.0
 30
0.0
  9
$PUCSBASE
  2

  9
$PUCSNAME
  2

  9
$PUCSORG
 10
0.0
 20
0.0
 30
0.0
  9
$PUCSXDIR
 10
1.0
 20
0.0
 30
0.0
  9
$PUCSYDIR
 10
0.0
 20
1.0
 30
0.0
  9
$PUCSORTHOREF
  2

  9
$PUCSORTHOVIEW
 70
0
  9
$PUCSORGTOP
 10
0.0
 20
0.0
 30
0.0
  9
$PUCSORGBOTTOM
 10
0.0
 20
0.0
 30
0.0
  9
$PUCSORGLEFT
 10
0.0
 20
0.0
 30
0.0
  9
$PUCSORGRIGHT
 10
0.0
 20
0.0
 30
0.0
  9
$PUCSORGFRONT
 10
0.0
 20
0.0
 30
0.0
  9
$PUCSORGBACK
 10
0.0
 20
0.0
 30
0.0
  9
$USERI1
 70
0
  9
$USERI2
 70
0
  9
$USERI3
 70
0
  9
$USERI4
 70
0
  9
$USERI5
 70
0
  9
$USERR1
 40
0.0
  9
$USERR2
 40
0.0
  9
$USERR3
 40
0.0
  9
$USERR4
 40
0.0
  9
$USERR5
 40
0.0
  9
$WORLDVIEW
 70
1
  9
$SHADEDGE
 70
3
  9
$SHADEDIF
 70
70
  9
$TILEMODE
 70
1
  9
$MAXACTVP
 70
64
  9
$PINSBASE
 10
0.0
 20
0.0
 30
0.0
  9
$PLIMCHECK
 70
0
  9
$PEXTMIN
 10
1e+20
 20
1e+20
 30
1e+20
  9
$PEXTMAX
 10
-1e+20
 20
-1e+20
 30
-1e+20
  9
$PLIMMIN
 10
0.0
 20
0.0
  9
$PLIMMAX
 10
420.0
 20
297.0
  9
$UNITMODE
 70
0
  9
$VISRETAIN
 70
1
  9
$PLINEGEN
 70
0
  9
$PSLTSCALE
 70
1
  9
$TREEDEPTH
 70
3020
  9
$CMLSTYLE
  2
Standard
  9
$CMLJUST
 70
0
  9
$CMLSCALE
 40
20.0
  9
$PROXYGRAPHICS
 70
1
  9
$MEASUREMENT
 70
1
  9
$CELWEIGHT
370
-1
  9
$ENDCAPS
280
0
  9
$JOINSTYLE
280
0
  9
$LWDISPLAY
290
0
  9
$INSUNITS
 70
6
  9
$HYPERLINKBASE
  1

  9
$STYLESHEET
  1

  9
$XEDIT
290
1
  9
$CEPSNTYPE
380
0
  9
$PSTYLEMODE
290
1
  9
$FINGERPRINTGUID
  2
{7954178B-E686-409A-BAA8-D69FB74FB9F3}
  9
$VERSIONGUID
  2
{AC7305FE-C3D9-4739-980A-5642C71C0CDD}
  9
$EXTNAMES
290
1
  9
$PSVPSCALE
 40
0.0
  9
$OLESTARTUP
290
0
  9
$SORTENTS
280
127
  9
$INDEXCTL
280
0
  9
$HIDETEXT
280
1
  9
$XCLIPFRAME
280
1
  9
$HALOGAP
280
0
  9
$OBSCOLOR
 70
257
  9
$OBSLTYPE
280
0
  9
$INTERSECTIONDISPLAY
280
0
  9
$INTERSECTIONCOLOR
 70
257
  9
$DIMASSOC
280
2
  9
$PROJECTNAME
  1

  9
$CAMERADISPLAY
290
0
  9
$LENSLENGTH
 40
50.0
  9
$CAMERAHEIGHT
 40
0.0
  9
$STEPSPERSEC
 40
24.0
  9
$STEPSIZE
 40
100.0
  9
$3DDWFPREC
 40
2.0
  9
$PSOLWIDTH
 40
0.005
  9
$PSOLHEIGHT
 40
0.08
  9
$LOFTANG1
 40
1.570796326795
  9
$LOFTANG2
 40
1.570796326795
  9
$LOFTMAG1
 40
0.0
  9
$LOFTMAG2
 40
0.0
  9
$LOFTPARAM
 70
7
  9
$LOFTNORMALS
280
1
  9
$LATITUDE
 40
37.795
  9
$LONGITUDE
 40
-122.394
  9
$NORTHDIRECTION
 40
0.0
  9
$TIMEZONE
 70
-8000
  9
$LIGHTGLYPHDISPLAY
280
1
  9
$TILEMODELIGHTSYNCH
280
1
  9
$CMATERIAL
347
20
  9
$SOLIDHIST
280
0
  9
$SHOWHIST
280
1
  9
$DWFFRAME
280
2
  9
$DGNFRAME
280
2
  9
$REALWORLDSCALE
290
1
  9
$INTERFERECOLOR
 62
256
  9
$CSHADOW
280
0
  9
$SHADOWPLANELOCATION
 40
0.0
  0
ENDSEC
  0
SECTION
  2
CLASSES
  0
CLASS
  1
ACDBDICTIONARYWDFLT
  2
AcDbDictionaryWithDefault
  3
ObjectDBX Classes
 90
0
 91
0
280
0
281
0
  0
CLASS
  1
SUN
  2
AcDbSun
  3
SCENEOE
 90
1153
 91
0
280
0
281
0
  0
CLASS
  1
VISUALSTYLE
  2
AcDbVisualStyle
  3
ObjectDBX Classes
 90
4095
 91
0
280
0
281
0
  0
CLASS
  1
MATERIAL
  2
AcDbMaterial
  3
ObjectDBX Classes
 90
1153
 91
0
280
0
281
0
  0
CLASS
  1
SCALE
  2
AcDbScale
  3
ObjectDBX Classes
 90
1153
 91
0
280
0
281
0
  0
CLASS
  1
TABLESTYLE
  2
AcDbTableStyle
  3
ObjectDBX Classes
 90
4095
 91
0
280
0
281
0
  0
CLASS
  1
MLEADERSTYLE
  2
AcDbMLeaderStyle
  3
ACDB_MLEADERSTYLE_CLASS
 90
4095
 91
0
280
0
281
0
  0
CLASS
  1
DICTIONARYVAR
  2
AcDbDictionaryVar
  3
ObjectDBX Classes
 90
0
 91
0
280
0
281
0
  0
CLASS
  1
CELLSTYLEMAP
  2
AcDbCellStyleMap
  3
ObjectDBX Classes
 90
1152
 91
0
280
0
281
0
  0
CLASS
  1
MENTALRAYRENDERSETTINGS
  2
AcDbMentalRayRenderSettings
  3
SCENEOE
 90
1024
 91
0
280
0
281
0
  0
CLASS
  1
ACDBDETAILVIEWSTYLE
  2
AcDbDetailViewStyle
  3
ObjectDBX Classes
 90
1025
 91
0
280
0
281
0
  0
CLASS
  1
ACDBSECTIONVIEWSTYLE
  2
AcDbSectionViewStyle
  3
ObjectDBX Classes
 90
1025
 91
0
280
0
281
0
  0
CLASS
  1
RASTERVARIABLES
  2
AcDbRasterVariables
  3
ISM
 90
0
 91
0
280
0
281
0
  0
CLASS
  1
LAYOUT
  2
AcDbLayout
  3
ObjectDBX Classes
 90
0
 91
0
280
0
281
0
  0
CLASS
  1
ACDBPLACEHOLDER
  2
AcDbPlaceHolder
  3
ObjectDBX Classes
 90
0
 91
0
280
0
281
0
  0
ENDSEC
  0
SECTION
  2
TABLES
  0
TABLE
  2
VPORT
  5
8
330
0
100
AcDbSymbolTable
 70
1
  0
VPORT
  5
23
330
8
100
AcDbSymbolTableRecord
100
AcDbViewportTableRecord
  2
*Active
 70
0
 10
0.0
 20
0.0
 11
1.0
 21
1.0
 12
0.0
 22
0.0
 13
0.0
 23
0.0
 14
0.5
 24
0.5
 15
0.5
 25
0.5
 16
0.0
 26
0.0
 36
1.0
 17
0.0
 27
0.0
 37
0.0
 40
1000.0
 41
1.34
 42
50.0
 43
0.0
 44
0.0
 50
0.0
 51
0.0
 71
0
 72
1000
 73
1
 74
3
 75
0
 76
0
 77
0
 78
0
281
0
 65
0
146
0.0
  0
ENDTAB
  0
TABLE
  2
LTYPE
  5
2
330
0
100
AcDbSymbolTable
 70
3
  0
LTYPE
  5
24
330
2
100
AcDbSymbolTableRecord
100
AcDbLinetypeTableRecord
  2
ByBlock
 70
0
  3

 72
65
 73
0
 40
0.0
  0
LTYPE
  5
25
330
2
100
AcDbSymbolTableRecord
100
AcDbLinetypeTableRecord
  2
ByLayer
 70
0
  3

 72
65
 73
0
 40
0.0
  0
LTYPE
  5
26
330
2
100
AcDbSymbolTableRecord
100
AcDbLinetypeTableRecord
  2
Continuous
 70
0
  3

 72
65
 73
0
 40
0.0
  0
ENDTAB
  0
TABLE
  2
LAYER
  5
1
330
0
100
AcDbSymbolTable
 70
2
  0
LAYER
  5
27
330
1
100
AcDbSymbolTableRecord
100
AcDbLayerTableRecord
  2
0
 70
0
 62
7
  6
Continuous
370
-3
390
13
347
21
  0
LAYER
  5
28
330
1
100
AcDbSymbolTableRecord
100
AcDbLayerTableRecord
  2
Defpoints
 70
0
 62
7
  6
Continuous
290
0
370
-3
390
13
347
21
  0
ENDTAB
  0
TABLE
  2
STYLE
  5
5
330
0
100
AcDbSymbolTable
 70
1
  0
STYLE
  5
29
330
5
100
AcDbSymbolTableRecord
100
AcDbTextStyleTableRecord
  2
Standard
 70
0
 40
0.0
 41
1.0
 50
0.0
 71
0
 42
2.5
  3
txt
  4

  0
ENDTAB
  0
TABLE
  2
VIEW
  5
7
330
0
100
AcDbSymbolTable
 70
0
  0
ENDTAB
  0
TABLE
  2
UCS
  5
6
330
0
100
AcDbSymbolTable
 70
0
  0
ENDTAB
  0
TABLE
  2
APPID
  5
3
330
0
100
AcDbSymbolTable
 70
3
  0
APPID
  5
2A
330
3
100
AcDbSymbolTableRecord
100
AcDbRegAppTableRecord
  2
ACAD
 70
0
  0
APPID
  5
30
330
3
100
AcDbSymbolTableRecord
100
AcDbRegAppTableRecord
  2
HATCHBACKGROUNDCOLOR
 70
0
  0
APPID
  5
31
330
3
100
AcDbSymbolTableRecord
100
AcDbRegAppTableRecord
  2
EZDXF
 70
0
  0
ENDTAB
  0
TABLE
  2
DIMSTYLE
  5
4
330
0
100
AcDbSymbolTable
 70
1
100
AcDbDimStyleTable
  0
DIMSTYLE
105
2B
330
4
100
AcDbSymbolTableRecord
100
AcDbDimStyleTableRecord
  2
Standard
 70
0
 40
1.0
 41
2.5
 42
0.625
 43
3.75
 44
1.25
 45
0.0
 46
0.0
 47
0.0
 48
0.0
 49
2.5
140
2.5
141
2.5
142
0.0
143
0.03937007874
144
1.0
145
0.0
146
1.0
147
0.625
148
0.0
 69
0
 70
0
 71
0
 72
0
 73
0
 74
0
 75
0
 76
0
 77
1
 78
8
 79
3
170
0
171
3
172
1
173
0
174
0
175
0
176
0
177
0
178
0
179
2
271
2
272
2
273
2
274
3
275
0
276
0
277
2
278
44
279
0
280
0
281
0
282
0
283
0
284
8
285
0
286
0
288
0
289
3
290
0
371
-2
372
-2
  0
ENDTAB
  0
TABLE
  2
BLOCK_RECORD
  5
9
330
0
100
AcDbSymbolTable
 70
2
  0
BLOCK_RECORD
  5
17
330
9
100
AcDbSymbolTableRecord
100
AcDbBlockTableRecord
  2
*Model_Space
340
1A
 70
0
280
1
281
0
  0
BLOCK_RECORD
  5
1B
330
9
100
AcDbSymbolTableRecord
100
AcDbBlockTableRecord
  2
*Paper_Space
340
1E
 70
0
280
1
281
0
  0
ENDTAB
  0
ENDSEC
  0
SECTION
  2
BLOCKS
  0
BLOCK
  5
18
330
17
100
AcDbEntity
  8
0
100
AcDbBlockBegin
  2
*Model_Space
 70
0
 10
0.0
 20
0.0
 30
0.0
  3
*Model_Space
  1

  0
ENDBLK
  5
19
330
17
100
AcDbEntity
  8
0
100
AcDbBlockEnd
  0
BLOCK
  5
1C
330
1B
100
AcDbEntity
  8
0
100
AcDbBlockBegin
  2
*Paper_Space
 70
0
 10
0.0
 20
0.0
 30
0.0
  3
*Paper_Space
  1

  0
ENDBLK
  5
1D
330
1B
100
AcDbEntity
  8
0
100
AcDbBlockEnd
  0
ENDSEC
  0
SECTION
  2
ENTITIES
  0
LWPOLYLINE
  5
2F
330
17
100
AcDbEntity
  8
0
100
AcDbPolyline
 90
721
 70
1
 10
41.24679687849514
 20
1.9744518957682498
 10
41.245606564608636
 20
1.974826840532623
 10
41.24204151683535
 20
1.97582855005894
 10
41.23611352294783
 20
1.9772107748135992
 10
41.2277551266764
 20
1.9790936926202727
 10
41.21709829361723
 20
1.9812985102150151
 10
41.20407851444383
 20
1.983883843038099
 10
41.18863717371589
 20
1.9867851817629958
 10
41.170897396200225
 20
1.990008420275961
 10
41.15080056645656
 20
1.9934890492504658
 10
41.12827922821526
 20
1.9973472465101847
 10
41.10346240012936
 20
2.0014657811745713
 10
41.076288519815456
 20
2.0058417063004983
 10
41.046754640330434
 20
2.010536584271365
 10
41.01486665556054
 20
2.015427290320371
 10
40.980618671619524
 20
2.020636949214319
 10
40.94407519783391
 20
2.026106945512934
 10
40.905174671820305
 20
2.0318343322730894
 10
40.863914146635565
 20
2.0378806718781854
 10
40.820361078549375
 20
2.0441257865045483
 10
40.77444801129205
 20
2.050689853975852
 10
40.72618083874986
 20
2.0574497495252952
 10
40.67567679180334
 20
2.064534491805935
 10
40.62275413024543
 20
2.071873677604987
 10
40.56759754122633
 20
2.0794761477518344
 10
40.51008389997923
 20
2.087336008360223
 10
40.450274768887525
 20
2.095456206373278
 10
40.388170147951236
 20
2.1038367417910018
 10
40.32376709022722
 20
2.112539176996794
 10
40.257065595715474
 20
2.1215635119906553
 10
40.18807155830226
 20
2.130786622005784
 10
40.11677908410134
 20
2.14033163180898
 10
40.04325268243921
 20
2.150139925959974
 10
39.967427843989356
 20
2.1602701198990353
 10
39.88931046263805
 20
2.1705990888593645
 10
39.80895620688241
 20
2.1812529045508904
 10
39.72636212977931
 20
2.1922931293570134
 10
39.64153707215816
 20
2.203535076127532
 10
39.55441357774928
 20
2.2150989226861193
 10
39.46511771826261
 20
2.22692900053563
 10
39.37352342198821
 20
2.23908097817321
 10
39.27975381369289
 20
2.251560749485115
 10
39.18374733099324
 20
2.264365367528216
 10
39.085565536272675
 20
2.2774977792456417
 10
38.98514981409092
 20
2.290893475310864
 10
38.882561726831376
 20
2.3045554026670105
 10
38.77773381822436
 20
2.3186037391377536
 10
38.67079215997984
 20
2.33298281622595
 10
38.56167518971439
 20
2.3476896869884714
 10
38.45038290742803
 20
2.3627243514253173
 10
38.33691531312074
 20
2.3780868095364873
 10
38.2213310222328
 20
2.393841570648512
 10
38.10357141932394
 20
2.4099241254348605
 10
37.98369511983442
 20
2.4263989832220627
 10
37.861705070707394
 20
2.4432045816267176
 10
37.737607165829104
 20
2.4602177958820244
 10
37.61145707369669
 20
2.4775646976979115
 10
37.48318733804049
 20
2.4953654648980526
 10
37.35279795886051
 20
2.5136200974824483
 10
37.22035933936955
 20
2.532146855244023
 10
37.08586853262446
 20
2.5510073005661797
 10
36.94932553862526
 20
2.570201433448917
 10
36.81072151654254
 20
2.5899139410424374
 10
36.67007120109197
 20
2.6098370114297365
 10
36.52743026077068
 20
2.6300967163207445
 10
36.38279574863554
 20
2.6507546180988624
 10
36.23610315536002
 20
2.6718693322043623
 10
36.087478552654055
 20
2.6933851901401
 10
35.93686332507737
 20
2.715237682579546
 10
35.78425747262996
 20
2.737426809522701
 10
35.62971666380898
 20
2.760078642679494
 10
35.473252686386935
 20
2.7829469325163227
 10
35.31479808409417
 20
2.80615185685686
 10
35.154473034754375
 20
2.829760871970763
 10
34.99227753836751
 20
2.853773977858031
 10
34.828155926436466
 20
2.878065102808736
 10
34.66210525201811
 20
2.9026958092062776
 10
34.494248639879224
 20
2.9276719909369113
 10
34.32451863375015
 20
2.9531138258243117
 10
34.15292407446032
 20
2.9788366267182766
 10
33.97952652439307
 20
3.004843340561933
 10
33.804325983548445
 20
3.0311339673552813
 10
33.62731655804018
 20
3.0578316318651235
 10
33.44849824786826
 20
3.0849363340914593
 10
33.26787399997583
 20
3.1123865116508878
 10
33.08556988607281
 20
3.1401264960462645
 10
32.90145983444926
 20
3.1682119557747344
 10
32.71560540748861
 20
3.1966458377794247
 10
32.52807700840363
 20
3.225246401853261
 10
32.33881012786776
 20
3.2540722634365173
 10
32.147857487435076
 20
3.283311056622523
 10
31.955280649488937
 20
3.3129657283544063
 10
31.760962383148815
 20
3.34290725997911
 10
31.565034654010887
 20
3.372956858232688
 10
31.36748567430265
 20
3.403360772648742
 10
31.16831839096721
 20
3.434057440843872
 10
30.967529857061464
 20
3.46510842520148
 10
30.76518752885505
 20
3.49639354789789
 10
30.561291406347994
 20
3.527912808933104
 10
30.355779927156867
 20
3.559663261363993
 10
30.14877326910536
 20
3.591712361460215
 10
29.940209869810058
 20
3.6240571622786404
 10
29.730157185540634
 20
3.6565774859955975
 10
29.518615216297086
 20
3.689273332611084
 10
29.305645524462793
 20
3.72214764906823
 10
29.091183600711254
 20
3.7552590508073065
 10
28.875285113539594
 20
3.788733609538245
 10
28.65789734139381
 20
3.822383691167713
 10
28.439202024480974
 20
3.856279698908497
 10
28.219087825806792
 20
3.8901694893407384
 10
27.997551798428134
 20
3.924114624847836
 10
27.77470822628241
 20
3.958305686466248
 10
27.55055416242652
 20
3.9928042365793774
 10
27.32497532292302
 20
4.027419694150765
 10
27.09822385119178
 20
4.062040722186121
 10
26.870118007025727
 20
4.096596917472661
 10
26.64077207436226
 20
4.131278861046842
 10
26.410121543874876
 20
4.166145168348938
 10
26.1782924872735
 20
4.201140170881804
 10
25.94523218300411
 20
4.23607623455211
 10
25.71099629956383
 20
4.271079431069785
 10
25.475578943066438
 20
4.306272885201631
 10
25.238994848227563
 20
4.341348785030644
 10
25.001246961990322
 20
4.376245568173422
 10
24.762443674405887
 20
4.411276940433227
 10
24.522464807650593
 20
4.4463754455404025
 10
24.281430539548083
 20
4.481608539764602
 10
24.039358551757168
 20
4.516606848805425
 10
23.79624589733468
 20
4.55143193504627
 10
23.55208668239438
 20
4.586206923253937
 10
23.30687206610688
 20
4.621116500578632
 10
23.060736961011504
 20
4.655920311373005
 10
22.81357003011396
 20
4.6903662122171985
 10
22.56554711973505
 20
4.724647731090798
 10
22.316530370392357
 20
4.759066786024551
 10
22.06659313224177
 20
4.793380074427984
 10
21.815747193055813
 20
4.827341346767492
 10
21.56410978371504
 20
4.861079621696136
 10
21.311554832509504
 20
4.8946505677110554
 10
21.058202517262888
 20
4.928121641081912
 10
20.803994222534914
 20
4.961428332482174
 10
20.54899740459525
 20
4.994450464088169
 10
20.293273625827283
 20
5.027190982843025
 10
20.036761323847617
 20
5.059646941803614
 10
19.77958362342306
 20
5.091824234856192
 10
19.521617399786805
 20
5.123716968114502
 10
19.2629798838194
 20
5.155454160231604
 10
19.00367402246397
 20
5.186974248824095
 10
18.74371455043615
 20
5.217969421974971
 10
18.4830955738497
 20
5.248562804451034
 10
18.22193727052827
 20
5.2788218525219435
 10
17.96011356876195
 20
5.3088022346848405
 10
17.697753487203794
 20
5.338386720059182
 10
17.434859972796925
 20
5.367513746261564
 10
17.17143597248448
 20
5.39612175090859
 10
16.90747559238018
 20
5.424333858767059
 10
16.64303744792433
 20
5.4522145791635
 10
16.378121539116904
 20
5.479763912097913
 10
16.112798269170703
 20
5.506800117363223
 10
15.84700902264545
 20
5.533258685632905
 10
15.580818308867672
 20
5.559081001466682
 10
15.314278849391378
 20
5.584454698957885
 10
15.047320241003797
 20
5.6095615183135905
 10
14.780071502357975
 20
5.634284228653251
 10
14.512494646615545
 20
5.658127383966532
 10
14.244571992117734
 20
5.68146035855384
 10
13.976423716688215
 20
5.70435060868483
 10
13.707994151829851
 20
5.726672062649574
 10
13.439286244485757
 20
5.748363158064671
 10
13.170414278593364
 20
5.769614475966579
 10
12.901319638712383
 20
5.790361507028768
 10
12.63207272805561
 20
5.810422511044164
 10
12.362611984239638
 20
5.829794541069641
 10
12.093057585088157
 20
5.848545053374855
 10
11.823406583658013
 20
5.866735610343206
 10
11.553667820778616
 20
5.884181524824492
 10
11.283838349506816
 20
5.900944359202113
 10
11.013976785282905
 20
5.917088622802599
 10
10.74401272489408
 20
5.932796055833025
 10
10.474086974765921
 20
5.94770317787924
 10
10.20419953489843
 20
5.961809988941247
 10
9.934347458348471
 20
5.975178051402445
 10
9.664527798172921
 20
5.9878689276462325
 10
9.39480506369831
 20
5.999824002232341
 10
9.125114745598104
 20
6.01110189060104
 10
8.855582915582238
 20
6.021646924255188
 10
8.586215467536961
 20
6.031335978427981
 10
8.317009454519157
 20
6.0402306155028205
 10
8.047961929585686
 20
6.048392397863106
 10
7.779075839679683
 20
6.0557597631254385
 10
7.5104802034541995
 20
6.062215480409273
 10
7.242107564639589
 20
6.067879727538281
 10
6.974013591732985
 20
6.072878576222393
 10
6.70615145706663
 20
6.076901267601478
 10
6.438638391521071
 20
6.080076820328592
 10
6.171465554266927
 20
6.082589921553938
 10
5.904580223750178
 20
6.084252937184186
 10
5.638111418623879
 20
6.0849486363387895
 10
5.372053245001779
 20
6.084800143784552
 10
5.10635003438673
 20
6.083681387811541
 10
4.841119017659275
 20
6.081721387072817
 10
4.57630452632228
 20
6.078794069858448
 10
4.312026738199403
 20
6.074966892438093
 10
4.048153687694472
 20
6.070418648075697
 10
3.784814393460538
 20
6.065032105890715
 10
3.522020643270115
 20
6.058561016349544
 10
3.25976949018007
 20
6.051066941835584
 10
2.9981136557444263
 20
6.042737516442166
 10
2.7370560869063127
 20
6.033511177785888
 10
2.4765997306088465
 20
6.023326363483353
 10
2.2168061492354427
 20
6.012186020477683
 10
1.9576078865164368
 20
6.0002103265925575
 10
1.6990606109489712
 20
5.987525353537902
 10
1.4412376726889633
 20
5.973887798723243
 10
1.1841449656226717
 20
5.959174537381778
 10
0.9277765958638303
 20
5.94350869428031
 10
0.6721911788527231
 20
5.926954778745367
 10
0.4173271522059378
 20
5.909509843833821
 10
0.16324313136375876
 20
5.891238398872202
 10
-0.0900022682335478
 20
5.872204953187037
 10
-0.3424588211968677
 20
5.852160310301594
 10
-0.594064965142803
 20
5.8311074171590045
 10
-0.8447738724035959
 20
5.809357032619397
 10
-1.0946412114763813
 20
5.786783084972843
 10
-1.3435409106512388
 20
5.7633299057222
 10
-1.5915960946949639
 20
5.738991600981209
 10
-1.838683638840758
 20
5.713774064636127
 10
-2.0847478745914785
 20
5.687803368396883
 10
-2.3299148736570494
 20
5.661135180760624
 10
-2.5741083389384363
 20
5.633464636753471
 10
-2.817222827327601
 20
5.6051670045620865
 10
-3.0593257950942014
 20
5.5763624620101435
 10
-3.3004611229628695
 20
5.54667868785411
 10
-3.540444123783406
 20
5.516124522923369
 10
-3.7793452007685957
 20
5.4848817074249965
 10
-4.017167300861563
 20
5.453011803742392
 10
-4.253904530176052
 20
5.420391687108753
 10
-4.48943671088839
 20
5.387088813793738
 10
-4.723886967765379
 20
5.35309728991109
 10
-4.957141016869605
 20
5.318607696497267
 10
-5.189192964314809
 20
5.2834969087854695
 10
-5.42003986315786
 20
5.247703364392295
 10
-5.649684660341892
 20
5.211288625701144
 10
-5.878071687369754
 20
5.174378764421947
 10
-6.105262506624852
 20
5.136970833611576
 10
-6.331128099454126
 20
5.098947602389484
 10
-6.5556684658575755
 20
5.0603090707556735
 10
-6.778942221275473
 20
5.020990729383613
 10
-7.0008907502675495
 20
4.981057087599833
 10
-7.221522893663186
 20
4.940692832554536
 10
-7.440780036022106
 20
4.89996247357425
 10
-7.658650389571807
 20
4.858619761125372
 10
-7.875195516695681
 20
4.816661748264774
 10
-8.090227783300406
 20
4.7740357134384395
 10
-8.303879154982157
 20
4.730920449910315
 10
-8.516152578684071
 20
4.687377520063799
 10
-8.72692492963934
 20
4.643412817785151
 10
-8.936193260904842
 20
4.598964780690969
 10
-9.14401029403459
 20
4.553845774687922
 10
-9.350326254417697
 20
4.5083049962527415
 10
-9.555149982883544
 20
4.462527132535629
 10
-9.758405182333092
 20
4.41620731856271
 10
-9.960153415149744
 20
4.3693426073908554
 10
-10.160277450452954
 20
4.322062017673123
 10
-10.35883885062612
 20
4.274362602466386
 10
-10.555840562612373
 20
4.226305924154044
 10
-10.751212183198923
 20
4.177710242529022
 10
-10.94495960627203
 20
4.128698682358122
 10
-11.137082831831695
 20
4.0792712436413465
 10
-11.327593647650428
 20
4.0296741759122945
 10
-11.516365982018304
 20
3.9798518106738245
 10
-11.703514118872732
 20
3.9296135668894765
 10
-11.888970601944063
 20
3.8788392667355773
 10
-12.072685656621404
 20
3.827778106688858
 10
-12.254726739174414
 20
3.776550264572992
 10
-12.435020499447177
 20
3.7249124377975042
 10
-12.613511268942554
 20
3.6729906980723244
 10
-12.790325119370468
 20
3.620840713894597
 10
-12.96533892596412
 20
3.56846837915058
 10
-13.138543847894129
 20
3.5156890066900672
 10
-13.309948725989875
 20
3.4626872836632643
 10
-13.47955650719449
 20
3.40952477245357
 10
-13.64736424456484
 20
3.3561399106775847
 10
-13.81331037571753
 20
3.302535645278437
 10
-13.97739195370943
 20
3.2486504138727237
 10
-14.139673487867064
 20
3.1945428319007205
 10
-14.30003185342364
 20
3.1402187932486805
 10
-14.45847294426541
 20
3.0858014226834074
 10
-14.615113991272915
 20
3.0311617015518437
 10
-14.769770307295953
 20
2.9763084706833713
 10
-14.922500507774807
 20
2.9211772207514635
 10
-15.073316380481979
 20
2.8660142012897234
 10
-15.222217925417471
 20
2.810819412298149
 10
-15.36913768631163
 20
2.7554726759530688
 10
-15.514072716221326
 20
2.6999124298710813
 10
-15.657081630586825
 20
2.6440741647256574
 10
-15.798056039356977
 20
2.5882715863200567
 10
-15.937054557972049
 20
2.5324401853277516
 10
-16.074071292545785
 20
2.4764568369819395
 10
-16.209044680694785
 20
2.420324488225749
 10
-16.3419806163053
 20
2.364166263825982
 10
-16.472873205491084
 20
2.307859039015836
 10
-16.60172539519526
 20
2.251464376178712
 10
-16.728540132360948
 20
2.1950438376980115
 10
-16.853249960718507
 20
2.1384772457500594
 10
-16.97586372109731
 20
2.08194928748506
 10
-17.096431188108248
 20
2.025210766426281
 10
-17.214902587140433
 20
1.9685108790504537
 10
-17.33127497125074
 20
1.9117880629741775
 10
-17.44554539349603
 20
1.8549807558140512
 10
-17.557652291492918
 20
1.7980919045132036
 10
-17.66766017456792
 20
1.7411801245119056
 10
-17.775516321167025
 20
1.68443304990349
 10
-17.881214837403977
 20
1.6277275559211541
 10
-17.984755723278774
 20
1.5710636425648974
 10
-18.08620348811795
 20
1.5144999252749933
 10
-18.185432060211568
 20
1.457980735554297
 10
-18.282508895829288
 20
1.401626251226482
 10
-18.377378326473966
 20
1.3455625440014771
 10
-18.470101914529003
 20
1.2897866669361555
 10
-18.56061220372474
 20
1.2341784422068427
 10
-18.64897370338771
 20
1.1787964852538118
 10
-18.735063288751107
 20
1.1236466899633193
 10
-18.819009978467992
 20
1.0688462872159095
 10
-18.900693594714685
 20
1.0144627332812401
 10
-18.980169805988336
 20
0.9603699564493816
 10
-19.057438612288948
 20
0.9065679567203334
 10
-19.132500013616518
 20
0.8530567340940961
 10
-19.205298341473892
 20
0.7999623602805992
 10
-19.275833595861087
 20
0.7472848352798417
 10
-19.34415849833211
 20
0.6948365249984949
 10
-19.410220327332947
 20
0.6428050635298876
 10
-19.474007295091084
 20
0.5909442013404178
 10
-19.535531189379032
 20
0.5395001879636883
 10
-19.59478022242428
 20
0.488226773866096
 10
-19.651760288113085
 20
0.43724708381444227
 10
-19.706471386445447
 20
0.386561117808727
 10
-19.75884900809484
 20
0.33611026040867786
 10
-19.809022171714318
 20
0.2860117424948403
 10
-19.856797349324292
 20
0.2360897177463958
 10
-19.902365121961225
 20
0.18645847010076186
 10
-19.945599417915187
 20
0.13706233106079374
 10
-19.986509078015555
 20
0.08808598777669424
 10
-20.025149770759487
 20
0.039403368538533254
 10
-20.0614628807067
 20
-0.008921017327160649
 10
-20.09546019562971
 20
-0.05664092028678386
 10
-20.12719443708253
 20
-0.10394397443366699
 10
-20.15660993656802
 20
-0.15070410805788054
 10
-20.183712587972433
 20
-0.19679819639262291
 10
-20.208514179068285
 20
-0.24197998990429115
 10
-20.23101470985557
 20
-0.28624948859288535
 10
-20.251281636603952
 20
-0.3294865146347322
 10
-20.26920656926226
 20
-0.37137736222657164
 10
-20.28486285798642
 20
-0.4116787287779287
 10
-20.298341534591096
 20
-0.4497779373979244
 10
-20.309540102911395
 20
-0.48523815751649724
 10
-20.318567276420765
 20
-0.5170773379423634
 10
-20.32553176859265
 20
-0.5443134274842394
 10
-20.33038118129532
 20
-0.565463035054251
 10
-20.333250750490386
 20
-0.5789900480105081
 10
-20.315586522243873
 20
-0.9724912322440634
 10
-20.31426654285973
 20
-0.9755749218780689
 10
-20.31030955165043
 20
-0.9847644283966844
 10
-20.303727336388487
 20
-0.9998135022663073
 10
-20.29440823665732
 20
-1.0217657570616219
 10
-20.28241349141804
 20
-1.0519198967202998
 10
-20.267834779329913
 20
-1.0870717303623745
 10
-20.2507018932465
 20
-1.1253098771592953
 10
-20.231176268195263
 20
-1.1658399200131087
 10
-20.209258227598497
 20
-1.2073661019292705
 10
-20.184912731560946
 20
-1.2493314145140466
 10
-20.15827763956506
 20
-1.2914339397366892
 10
-20.129303176999944
 20
-1.3334244811204674
 10
-20.098001131638114
 20
-1.375056789131778
 10
-20.064377397365817
 20
-1.4162077390038197
 10
-20.02843197418307
 20
-1.4568773307365928
 10
-19.990229371416387
 20
-1.497006948889824
 10
-19.949713920568627
 20
-1.536470521753584
 10
-19.90688267469666
 20
-1.575329611711274
 10
-19.861800143127027
 20
-1.6135256033226208
 10
-19.814398869590057
 20
-1.6511786744112977
 10
-19.764681801028882
 20
-1.6882272625939043
 10
-19.712777956096563
 20
-1.7245541369898951
 10
-19.658493806813507
 20
-1.7603351439200883
 10
-19.60201698727305
 20
-1.7955175618304673
 10
-19.543221425765264
 20
-1.8301570592181764
 10
-19.482171631616676
 20
-1.8641950206429432
 10
-19.418870551770407
 20
-1.8975698837213668
 10
-19.353309345397086
 20
-1.9304663356036498
 10
-19.285493906382957
 20
-1.96276125152299
 10
-19.215412446955508
 20
-1.9947008810129911
 10
-19.143073807944134
 20
-2.026100536923451
 10
-19.06853365784597
 20
-2.0570862909642975
 10
-18.991730434277624
 20
-2.0876551961924052
 10
-18.91265824335283
 20
-2.1179303773745737
 10
-18.831381594398124
 20
-2.14785321907053
 10
-18.747897540470372
 20
-2.1774852836636764
 10
-18.662206081569586
 20
-2.2068265711540125
 10
-18.574236814482962
 20
-2.2360588217486117
 10
-18.484115810920443
 20
-2.26512636695033
 10
-18.391722893058354
 20
-2.29396175048951
 10
-18.297181185663497
 20
-2.3225708662524083
 10
-18.20042323246621
 20
-2.3510738920626983
 10
-18.1015105958499
 20
-2.3794737748635075
 10
-18.00038466037429
 20
-2.4077060053283077
 10
-17.897112882309038
 20
-2.4356504056334254
 10
-17.791630752327617
 20
-2.4633655912191332
 10
-17.6840584482537
 20
-2.490919018355087
 10
-17.574334407703876
 20
-2.5183077400981606
 10
-17.462458630678167
 20
-2.545531756448353
 10
-17.34843995800594
 20
-2.5724063802554613
 10
-17.232339952070596
 20
-2.598934558462615
 10
-17.114097050488745
 20
-2.625113344126685
 10
-16.99376692175752
 20
-2.651068808957601
 10
-16.871349565876923
 20
-2.676800952955363
 10
-16.746856770619473
 20
-2.7020635265863686
 10
-16.62034420448231
 20
-2.7269826015605467
 10
-16.49175325202516
 20
-2.7514936685513685
 10
-16.3610809663049
 20
-2.775658289942235
 10
-16.22838890970493
 20
-2.799479412676274
 10
-16.093680029168368
 20
-2.822895474370085
 10
-15.956951377752098
 20
-2.845968037407069
 10
-15.818202955456117
 20
-2.8686971017872254
 10
-15.67743770922355
 20
-2.891021105127153
 10
-15.53471425449467
 20
-2.913004556753382
 10
-15.390032591269478
 20
-2.9346474566659118
 10
-15.243334104107706
 20
-2.955885295538213
 10
-15.09473602388989
 20
-2.9768470920233434
 10
-14.944179735175766
 20
-2.9974683367947748
 10
-14.791662291022202
 20
-3.0178105922359086
 10
-14.637248200755728
 20
-3.0378152429064698
 10
-14.480946305205723
 20
-3.0572976016562574
 10
-14.322747763542813
 20
-3.0764423556354736
 10
-14.162585119497333
 20
-3.0953696826677928
 10
-14.000646007162613
 20
-3.1140268611991972
 10
-13.836813195658111
 20
-3.1322848725766295
 10
-13.671089631926957
 20
-3.1500821544166886
 10
-13.50359254684969
 20
-3.167547725372432
 10
-13.334257431099788
 20
-3.184740200884134
 10
-13.163090178563504
 20
-3.201536456184991
 10
-12.990152351624234
 20
-3.2179394382181323
 10
-12.815446897225115
 20
-3.233887584600157
 10
-12.638964974536758
 20
-3.249565582481267
 10
-12.46071247744542
 20
-3.26485030709466
 10
-12.280683512064844
 20
-3.2798648832071398
 10
-12.099010043991212
 20
-3.2944305175547584
 10
-11.915566001514605
 20
-3.3086028786346606
 10
-11.730412947018415
 20
-3.3223849133899748
 10
-11.543609495942917
 20
-3.3358411311472302
 10
-11.355099979790966
 20
-3.348845460196496
 10
-11.164940067059709
 20
-3.3615239722477033
 10
-10.973194267075668
 20
-3.373818051860578
 10
-10.779745348958306
 20
-3.3855986803820644
 10
-10.584716437474421
 20
-3.396871751698416
 10
-10.388098691794628
 20
-3.4078219529598366
 10
-10.189892111918931
 20
-3.418449284166326
 10
-9.990096697847322
 20
-3.4287537453178842
 10
-9.788782852792593
 20
-3.438553596207437
 10
-9.585956470640996
 20
-3.4477257120681832
 10
-9.381544201236622
 20
-3.4565133954905964
 10
-9.175669169346271
 20
-3.4649225403609347
 10
-8.968275706472795
 20
-3.472827074969267
 10
-8.759431268885855
 20
-3.4801068214919204
 10
-8.549127015756065
 20
-3.486946467079097
 10
-8.33741861558057
 20
-3.4934720834407256
 10
-8.124250399862227
 20
-3.499557598866878
 10
-7.909631209430414
 20
-3.5050183262073524
 10
-7.693678275165685
 20
-3.5099832841152048
 10
-7.476388650124903
 20
-3.514514034973836
 10
-7.257639209541275
 20
-3.518604684896991
 10
-7.037617587508127
 20
-3.522202512330652
 10
-6.816268115528318
 20
-3.5251814455648907
 10
-6.593590793601839
 20
-3.5275414845997064
 10
-6.369644237168972
 20
-3.5293471387616275
 10
-6.144413711514073
 20
-3.530906219967658
 10
-5.917969619849928
 20
-3.5320369880107245
 10
-5.690262187565645
 20
-3.532490246414095
 10
-5.461288467718101
 20
-3.532327557561171
 10
-5.231171585074095
 20
-3.531554815338207
 10
-4.999838189477712
 20
-3.53041532233568
 10
-4.7673557371986135
 20
-3.528788900729915
 10
-4.533724228236796
 20
-3.5266755505209133
 10
-4.298949556478516
 20
-3.5239521469418724
 10
-4.063028774980649
 20
-3.5206802523761938
 10
-3.826079114623736
 20
-3.516988885476934
 10
-3.587983344527233
 20
-3.512749027591036
 10
-3.348870483344197
 20
-3.5078434478379545
 10
-3.1087375841314984
 20
-3.5023337086010904
 10
-2.867581699946013
 20
-3.496281372263844
 10
-2.625344215347468
 20
-3.489621929499687
 10
-2.38221571137232
 20
-3.482241096371201
 10
-2.1381375725802947
 20
-3.4740743635518583
 10
-1.893030554929224
 20
-3.465488158398935
 10
-1.6470207301290416
 20
-3.4564268124152866
 10
-1.40018734222191
 20
-3.446523898243636
 10
-1.1523984256116488
 20
-3.43595820914793
 10
-0.9037125957385289
 20
-3.424794254454697
 10
-0.6542588712556051
 20
-3.4129148032833916
 10
-0.4039170743392098
 20
-3.400252399364358
 10
-0.15281032975613534
 20
-3.386812936583851
 10
0.09913471264952145
 20
-3.3728397175323455
 10
0.35185059660810647
 20
-3.358212564386168
 10
0.6052610250205817
 20
-3.3426266121714447
 10
0.8594364010997291
 20
-3.326263601095247
 10
1.1143269502346662
 20
-3.3093727276343077
 10
1.3698622692125975
 20
-3.2917722515815524
 10
1.6261009734738063
 20
-3.2733976636104516
 10
1.882987394521137
 20
-3.2543750354309364
 10
2.1405097445820878
 20
-3.2344581175094014
 10
2.3986680236566555
 20
-3.2136469098458487
 10
2.6574124571339475
 20
-3.192190608917008
 10
2.916684429573693
 20
-3.1701537240494093
 10
3.176542556416173
 20
-3.147471745916522
 10
3.436916434448588
 20
-3.123962934311274
 10
3.6978119575572044
 20
-3.0997504140004652
 10
3.959229125742022
 20
-3.074834184984096
 10
4.221106376619633
 20
-3.049217194205295
 10
4.483434869360659
 20
-3.0227147545138595
 10
4.746220497851354
 20
-2.9954499906765903
 10
5.009351925097434
 20
-2.9676750461133476
 10
5.272949328922559
 20
-2.939322464554475
 10
5.536880743730561
 20
-2.9102134527360244
 10
5.801210678847957
 20
-2.88040662609827
 10
6.065816009507945
 20
-2.849907878527467
 10
6.3307612450370625
 20
-2.818775825463889
 10
6.596043438492173
 20
-2.786948904524135
 10
6.861542412049605
 20
-2.7544945719778613
 10
7.127325621979022
 20
-2.7215330056487415
 10
7.393390121337289
 20
-2.688002643153375
 10
7.659609838414477
 20
-2.653847815994617
 10
7.926049282537113
 20
-2.6191271396127402
 10
8.192652785208058
 20
-2.5839666857176744
 10
8.459470121038198
 20
-2.5481172578326885
 10
8.726384059146987
 20
-2.51170787461084
 10
8.99340049342068
 20
-2.4748616608189304
 10
9.260516476916152
 20
-2.4375170540735582
 10
9.527726115747146
 20
-2.3995509296079236
 10
9.795035303799919
 20
-2.361086412188826
 10
10.06232681019392
 20
-2.3222525204693247
 10
10.3296563034263
 20
-2.282923182739489
 10
10.596971061943037
 20
-2.2432860330926494
 10
10.864262244914752
 20
-2.2031563843786044
 10
11.131526905398315
 20
-2.162472674213953
 10
11.398770937279984
 20
-2.121358027365496
 10
11.665880056622331
 20
-2.0800030248696917
 10
11.932915825808776
 20
-2.038404719783413
 10
12.199807841626514
 20
-1.9963813718995855
 10
12.466559051018695
 20
-1.9539945436016088
 10
12.73316945398529
 20
-1.9112442348894843
 10
12.999641997469457
 20
-1.868192008146612
 10
13.26585060976125
 20
-1.8247821948758467
 10
13.531859800187203
 20
-1.7810734105174624
 10
13.797610953307029
 20
-1.737130164397987
 10
14.063171525390407
 20
-1.6930726343410942
 10
14.328406603898006
 20
-1.6486604646994372
 10
14.593319135772967
 20
-1.6039552178564163
 10
14.857985418114325
 20
-1.5592617587859077
 10
15.122264644496509
 20
-1.5142166070737622
 10
15.386153867976399
 20
-1.46875820033658
 10
15.649732332596148
 20
-1.4232529659316373
 10
15.91288280747523
 20
-1.3778299225119908
 10
16.175649173338257
 20
-1.332116748834109
 10
16.437972814744967
 20
-1.2861779542245209
 10
16.699792169311962
 20
-1.240016485626353
 10
16.961174693308898
 20
-1.1937525208632802
 10
17.222061771295497
 20
-1.147450569261831
 10
17.4824563502149
 20
-1.101172193205405
 10
17.742290973797424
 20
-1.0547972148703306
 10
18.001559748156843
 20
-1.0082025094898048
 10
18.26027151412252
 20
-0.9615727642140307
 10
18.51842627169446
 20
-0.9149079790430081
 10
18.775903843049
 20
-0.8682756102463929
 10
19.032827352952925
 20
-0.8216697639379307
 10
19.28906483581007
 20
-0.7749116468536735
 10
19.54461923856354
 20
-0.7280628213770238
 10
19.799505295928984
 20
-0.6814310994249843
 10
20.05372006096328
 20
-0.6349549186141542
 10
20.307134515013363
 20
-0.5885170480639882
 10
20.559874729789172
 20
-0.5421731562716312
 10
20.811814633580774
 20
-0.49586757473993814
 10
21.063015788771555
 20
-0.44959735652578164
 10
21.313422526864393
 20
-0.40348857333909066
 10
21.562973285475874
 20
-0.357544172122993
 10
21.811735520875658
 20
-0.31188433070116267
 10
22.059577267467553
 20
-0.26633025580965364
 10
22.306621650018375
 20
-0.2208760535622089
 10
22.552742596818184
 20
-0.1754660554616845
 10
22.79795778952574
 20
-0.13046963580848497
 10
23.042205665757667
 20
-0.08588974154573775
 10
23.285591668621976
 20
-0.041351104486783224
 10
23.527928164025344
 20
0.0031989969223964266
 10
23.769361852279598
 20
0.047273957500850616
 10
24.00976666167481
 20
0.09092944574572394
 10
24.249130804438472
 20
0.13441171119061998
 10
24.487454280570553
 20
0.17772075383553745
 10
24.72474003701423
 20
0.22079501129707718
 10
24.9610028084851
 20
0.2633266716582344
 10
25.196113576330138
 20
0.30543296579955537
 10
25.430186624486744
 20
0.3473044747574979
 10
25.663098828188122
 20
0.38893530464580583
 10
25.89485608132052
 20
0.4302023306976779
 10
26.12546427777021
 20
0.47098242814631275
 10
26.354917523650915
 20
0.5113987217585113
 10
26.58315425657925
 20
0.5514482645911457
 10
26.810241932824866
 20
0.5910108788205432
 10
27.03605742762097
 20
0.6300806705604476
 10
27.260653462521564
 20
0.6688452739041879
 10
27.483906912759853
 20
0.7072987949655095
 10
27.706008359372294
 20
0.7453269498069942
 10
27.926717446711542
 20
0.7827948258893288
 10
28.146157299544413
 20
0.8197083170987696
 10
28.36432497092775
 20
0.8561289858187163
 10
28.58109144220851
 20
0.8921740629297152
 10
28.796459660329823
 20
0.9277819860483656
 10
29.010555697001617
 20
0.9628970866775224
 10
29.22319781201682
 20
0.9974489616044013
 10
29.434453461645084
 20
1.031317433005328
 10
29.644252242673634
 20
1.0646842410873778
 10
29.852652770542722
 20
1.0976138951770786
 10
30.059596429812093
 20
1.1300418859479018
 10
30.26508322048175
 20
1.1619682133998477
 10
30.46906042099766
 20
1.193205243439586
 10
30.671580752913854
 20
1.2239406101604466
 10
30.872524038406645
 20
1.254106857292773
 10
31.071945945973194
 20
1.283830056546495
 10
31.26985531644287
 20
1.3129255207714097
 10
31.466193534375414
 20
1.341328740640989
 10
31.66095175894143
 20
1.3692244033054342
 10
31.854129990140923
 20
1.3966125087647463
 10
32.04572822797389
 20
1.4234930570189248
 10
32.235629241559785
 20
1.4497370294149126
 10
32.423962049551676
 20
1.4752271950721634
 10
32.61065035485053
 20
1.500268418964554
 10
32.795635542016036
 20
1.524796191765555
 10
32.978979173431625
 20
1.5488134604182944
 10
33.160625580600154
 20
1.5721941532128427
 10
33.34051025419508
 20
1.594996885589473
 10
33.51875337204008
 20
1.6172891138178414
 10
33.69524065019774
 20
1.6388802568614902
 10
33.869966194781796
 20
1.6598934394872207
 10
34.04293295273539
 20
1.6802670993116322
 10
34.21413208322913
 20
1.7001859234849273
 10
34.38356948014926
 20
1.7195267872403035
 10
34.55118358111242
 20
1.7382867436346339
 10
34.7169773330617
 20
1.756404230284517
 10
34.88100935143737
 20
1.7739437565164817
 10
35.04315356452951
 20
1.7909609908276731
 10
35.20340997233814
 20
1.807455933218091
 10
35.361843084189765
 20
1.8233699682474624
 10
35.518455847027525
 20
1.8386415335323871
 10
35.67311629525522
 20
1.8534494223368108
 10
35.82588599125626
 20
1.8677965816038615
 10
35.97677377586003
 20
1.8814983241833374
 10
36.12571513974002
 20
1.894613265515511
 10
36.272704189009936
 20
1.9072645303671838
 10
36.41780837993945
 20
1.919331940914682
 10
36.560907534704896
 20
1.9307480408883495
 10
36.70205732180342
 20
1.9416389019981153
 10
36.84125479429188
 20
1.95206608662738
 10
36.978438389786895
 20
1.9620266478330164
 10
37.1136140021747
 20
1.971397460848222
 10
37.24677868451218
 20
1.980240088056398
 10
37.37792654291307
 20
1.9886776542243465
 10
37.507060524320515
 20
1.9966485969686656
 10
37.63412496023736
 20
2.004026844579427
 10
37.759119850663595
 20
2.0108123970566294
 10
37.88209497021011
 20
2.0172544508770045
 10
38.00299170343665
 20
2.0232884967140237
 10
38.12181005034321
 20
2.028914534567687
 10
38.238552957872905
 20
2.0340710020545933
 10
38.35315886364234
 20
2.038754952231614
 10
38.46568933003493
 20
2.0429693320418787
 10
38.57607690078099
 20
2.0468343193090597
 10
38.6843274697668
 20
2.0502267892663557
 10
38.7904351431061
 20
2.053269866680569
 10
38.894467377068544
 20
2.055843373728025
 10
38.996295153001064
 20
2.0580645412892693
 10
39.09597708634394
 20
2.0599978786908313
 10
39.19345456165692
 20
2.0615788766061818
 10
39.288792088266504
 20
2.062748919595048
 10
39.38192220990304
 20
2.063628185481104
 10
39.4729123828362
 20
2.0640964964406754
 10
39.56163064146979
 20
2.0643326457377094
 10
39.648203057513726
 20
2.06428096487506
 10
39.73250650620121
 20
2.063935559966472
 10
39.81460254991568
 20
2.063299377955074
 10
39.89449118865709
 20
2.0623724188408654
 10
39.97216947548233
 20
2.061216245007246
 10
40.047578794951136
 20
2.0597663471276886
 10
40.12071325317723
 20
2.058145849968994
 10
40.19163735948717
 20
2.0562961380908895
 10
40.260286604554395
 20
2.0542758269336474
 10
40.326663935322046
 20
2.0520233541138677
 10
40.390766404847014
 20
2.049600282014951
 10
40.4525969600724
 20
2.0469450482534954
 10
40.51215265405509
 20
2.044119215212904
 10
40.569427592908816
 20
2.0412459076599756
 10
40.624366108136456
 20
2.0381990538847825
 10
40.67708837756165
 20
2.0350461101569812
 10
40.72740676709111
 20
2.0318397980305885
 10
40.77550891081813
 20
2.0285273959515857
 10
40.82127168397593
 20
2.0251030100337197
 10
40.864689192678235
 20
2.021689765043791
 10
40.90582594625159
 20
2.018229045541526
 10
40.9446203823126
 20
2.0147179045837977
 10
40.981066606974984
 20
2.0112794669374066
 10
41.01523207650842
 20
2.00779355477868
 10
41.04704933464323
 20
2.004380345931291
 10
41.07652132832257
 20
2.0009782780118393
 10
41.10364216366017
 20
1.997710475787126
 10
41.128414787599155
 20
1.9945153768737507
 10
41.15089781557979
 20
1.9914574905982416
 10
41.17096812283529
 20
1.988530923074343
 10
41.188684324805934
 20
1.985800183628584
 10
41.204107983875105
 20
1.9832682192040914
 10
41.217115975275995
 20
1.9809291359146104
 10
41.22776396750579
 20
1.9789090054700706
 10
41.236116469890966
 20
1.9771492124301986
 10
41.24204446377848
 20
1.9757669876755393
 10
41.245606564608636
 20
1.974826840532623
 10
41.24679687849514
 20
1.9744518957682498
  0
ENDSEC
  0
SECTION
  2
OBJECTS
  0
DICTIONARY
  5
A
330
0
100
AcDbDictionary
280
0
281
1
  3
ACAD_COLOR
350
B
  3
ACAD_GROUP
350
C
  3
ACAD_LAYOUT
350
D
  3
ACAD_MATERIAL
350
E
  3
ACAD_MLEADERSTYLE
350
F
  3
ACAD_MLINESTYLE
350
10
  3
ACAD_PLOTSETTINGS
350
11
  3
ACAD_PLOTSTYLENAME
350
12
  3
ACAD_SCALELIST
350
14
  3
ACAD_TABLESTYLE
350
15
  3
ACAD_VISUALSTYLE
350
16
  3
EZDXF_META
350
2D
  0
DICTIONARY
  5
B
330
A
100
AcDbDictionary
280
0
281
1
  0
DICTIONARY
  5
C
330
A
100
AcDbDictionary
280
0
281
1
  0
DICTIONARY
  5
D
330
A
100
AcDbDictionary
280
0
281
1
  3
Model
350
1A
  3
Layout1
350
1E
  0
DICTIONARY
  5
E
330
A
100
AcDbDictionary
280
0
281
1
  3
ByBlock
350
1F
  3
ByLayer
350
20
  3
Global
350
21
  0
DICTIONARY
  5
F
330
A
100
AcDbDictionary
280
0
281
1
  3
Standard
350
2C
  0
DICTIONARY
  5
10
330
A
100
AcDbDictionary
280
0
281
1
  3
Standard
350
22
  0
DICTIONARY
  5
11
330
A
100
AcDbDictionary
280
0
281
1
  0
ACDBDICTIONARYWDFLT
  5
12
330
A
100
AcDbDictionary
280
0
281
1
  3
Normal
350
13
100
AcDbDictionaryWithDefault
340
13
  0
ACDBPLACEHOLDER
  5
13
330
12
  0
DICTIONARY
  5
14
330
A
100
AcDbDictionary
280
0
281
1
  0
DICTIONARY
  5
15
330
A
100
AcDbDictionary
280
0
281
1
  0
DICTIONARY
  5
16
330
A
100
AcDbDictionary
280
0
281
1
  0
LAYOUT
  5
1A
330
D
100
AcDbPlotSettings
  1

  4
A3
  6

 40
7.5
 41
20.0
 42
7.5
 43
20.0
 44
420.0
 45
297.0
 46
0.0
 47
0.0
 48
0.0
 49
0.0
140
0.0
141
0.0
142
1.0
143
1.0
 70
1024
 72
1
 73
0
 74
5
  7

 75
16
 76
0
 77
2
 78
300
147
1.0
148
0.0
149
0.0
100
AcDbLayout
  1
Model
 70
1
 71
0
 10
0.0
 20
0.0
 11
420.0
 21
297.0
 12
0.0
 22
0.0
 32
0.0
 14
1e+20
 24
1e+20
 34
1e+20
 15
-1e+20
 25
-1e+20
 35
-1e+20
146
0.0
 13
0.0
 23
0.0
 33
0.0
 16
1.0
 26
0.0
 36
0.0
 17
0.0
 27
1.0
 37
0.0
 76
1
330
17
  0
LAYOUT
  5
1E
330
D
100
AcDbPlotSettings
  1

  4
A3
  6

 40
7.5
 41
20.0
 42
7.5
 43
20.0
 44
420.0
 45
297.0
 46
0.0
 47
0.0
 48
0.0
 49
0.0
140
0.0
141
0.0
142
1.0
143
1.0
 70
0
 72
1
 73
0
 74
5
  7

 75
16
 76
0
 77
2
 78
300
147
1.0
148
0.0
149
0.0
100
AcDbLayout
  1
Layout1
 70
1
 71
1
 10
0.0
 20
0.0
 11
420.0
 21
297.0
 12
0.0
 22
0.0
 32
0.0
 14
1e+20
 24
1e+20
 34
1e+20
 15
-1e+20
 25
-1e+20
 35
-1e+20
146
0.0
 13
0.0
 23
0.0
 33
0.0
 16
1.0
 26
0.0
 36
0.0
 17
0.0
 27
1.0
 37
0.0
 76
1
330
1B
  0
MATERIAL
  5
1F
102
{ACAD_REACTORS
330
E
102
}
330
E
100
AcDbMaterial
  1
ByBlock
  2

 70
0
 40
1.0
 71
1
 41
1.0
 91
-1023410177
 42
1.0
 72
1
  3

 73
1
 74
1
 75
1
 44
0.5
 73
0
 45
1.0
 46
1.0
 77
1
  4

 78
1
 79
1
170
1
 48
1.0
171
1
  6

172
1
173
1
174
1
140
1.0
141
1.0
175
1
  7

176
1
177
1
178
1
143
1.0
179
1
  8

270
1
271
1
272
1
145
1.0
146
1.0
273
1
  9

274
1
275
1
276
1
 42
1.0
 72
1
  3

 73
1
 74
1
 75
1
 94
63
  0
MATERIAL
  5
20
102
{ACAD_REACTORS
330
E
102
}
330
E
100
AcDbMaterial
  1
ByLayer
  2

 70
0
 40
1.0
 71
1
 41
1.0
 91
-1023410177
 42
1.0
 72
1
  3

 73
1
 74
1
 75
1
 44
0.5
 73
0
 45
1.0
 46
1.0
 77
1
  4

 78
1
 79
1
170
1
 48
1.0
171
1
  6

172
1
173
1
174
1
140
1.0
141
1.0
175
1
  7

176
1
177
1
178
1
143
1.0
179
1
  8

270
1
271
1
272
1
145
1.0
146
1.0
273
1
  9

274
1
275
1
276
1
 42
1.0
 72
1
  3

 73
1
 74
1
 75
1
 94
63
  0
MATERIAL
  5
21
102
{ACAD_REACTORS
330
E
102
}
330
E
100
AcDbMaterial
  1
Global
  2

 70
0
 40
1.0
 71
1
 41
1.0
 91
-1023410177
 42
1.0
 72
1
  3

 73
1
 74
1
 75
1
 44
0.5
 73
0
 45
1.0
 46
1.0
 77
1
  4

 78
1
 79
1
170
1
 48
1.0
171
1
  6

172
1
173
1
174
1
140
1.0
141
1.0
175
1
  7

176
1
177
1
178
1
143
1.0
179
1
  8

270
1
271
1
272
1
145
1.0
146
1.0
273
1
  9

274
1
275
1
276
1
 42
1.0
 72
1
  3

 73
1
 74
1
 75
1
 94
63
  0
MLINESTYLE
  5
22
102
{ACAD_REACTORS
330
10
102
}
330
10
100
AcDbMlineStyle
  2
Standard
 70
0
  3

 62
256
 51
90.0
 52
90.0
 71
2
 49
0.5
 62
256
  6
BYLAYER
 49
-0.5
 62
256
  6
BYLAYER
  0
MLEADERSTYLE
  5
2C
102
{ACAD_REACTORS
330
F
102
}
330
F
100
AcDbMLeaderStyle
179
2
170
2
171
1
172
0
 90
2
 40
0.0
 41
0.0
173
1
 91
-1056964608
 92
-2
290
1
 42
2.0
291
1
 43
8.0
  3
Standard
 44
4.0
300

342
29
174
1
175
1
176
0
178
1
 93
-1056964608
 45
4.0
292
0
297
0
 46
4.0
 94
-1056964608
 47
1.0
 49
1.0
140
1.0
294
1
141
0.0
177
0
142
1.0
295
0
296
0
143
3.75
271
0
272
9
273
9
  0
DICTIONARY
  5
2D
330
A
100
AcDbDictionary
280
1
281
1
  3
CREATED_BY_EZDXF
350
2E
  3
WRITTEN_BY_EZDXF
350
32
  0
DICTIONARYVAR
  5
2E
330
2D
100
DictionaryVariables
280
0
  1
1.3.5 @ 2025-08-18T19:55:49.442413+00:00
  0
DICTIONARYVAR
  5
32
330
2D
100
DictionaryVariables
280
0
  1
1.3.5 @ 2025-08-18T19:55:49.449691+00:00
  0
ENDSEC
  0
EOF
