  0
SECTION
  2
HEADER
  9
$ACADVER
  1
AC1032
  9
$ACADMAINTVER
 90
4
  9
$DWGCODEPAGE
  3
ANSI_1252
  9
$LASTSAVEDBY
  1
ezdxf
  9
$REQUIREDVERSIONS
160
0
  9
$INSBASE
 10
0.0
 20
0.0
 30
0.0
  9
$EXTMIN
 10
1e+20
 20
1e+20
 30
1e+20
  9
$EXTMAX
 10
-1e+20
 20
-1e+20
 30
-1e+20
  9
$LIMMIN
 10
0.0
 20
0.0
  9
$LIMMAX
 10
420.0
 20
297.0
  9
$ORTHOMODE
 70
0
  9
$REGENMODE
 70
1
  9
$FILLMODE
 70
1
  9
$QTEXTMODE
 70
0
  9
$MIRRTEXT
 70
1
  9
$LTSCALE
 40
1.0
  9
$ATTMODE
 70
1
  9
$TEXTSIZE
 40
2.5
  9
$TRACEWID
 40
1.0
  9
$TEXTSTYLE
  7
Standard
  9
$CLAYER
  8
0
  9
$CELTYPE
  6
ByLayer
  9
$CECOLOR
 62
256
  9
$CELTSCALE
 40
1.0
  9
$DISPSILH
 70
0
  9
$DIMSCALE
 40
1.0
  9
$DIMASZ
 40
2.5
  9
$DIMEXO
 40
0.625
  9
$DIMDLI
 40
3.75
  9
$DIMRND
 40
0.0
  9
$DIMDLE
 40
0.0
  9
$DIMEXE
 40
1.25
  9
$DIMTP
 40
0.0
  9
$DIMTM
 40
0.0
  9
$DIMTXT
 40
2.5
  9
$DIMCEN
 40
2.5
  9
$DIMTSZ
 40
0.0
  9
$DIMTOL
 70
0
  9
$DIMLIM
 70
0
  9
$DIMTIH
 70
0
  9
$DIMTOH
 70
0
  9
$DIMSE1
 70
0
  9
$DIMSE2
 70
0
  9
$DIMTAD
 70
1
  9
$DIMZIN
 70
8
  9
$DIMBLK
  1

  9
$DIMASO
 70
1
  9
$DIMSHO
 70
1
  9
$DIMPOST
  1

  9
$DIMAPOST
  1

  9
$DIMALT
 70
0
  9
$DIMALTD
 70
3
  9
$DIMALTF
 40
0.03937007874
  9
$DIMLFAC
 40
1.0
  9
$DIMTOFL
 70
1
  9
$DIMTVP
 40
0.0
  9
$DIMTIX
 70
0
  9
$DIMSOXD
 70
0
  9
$DIMSAH
 70
0
  9
$DIMBLK1
  1

  9
$DIMBLK2
  1

  9
$DIMSTYLE
  2
ISO-25
  9
$DIMCLRD
 70
0
  9
$DIMCLRE
 70
0
  9
$DIMCLRT
 70
0
  9
$DIMTFAC
 40
1.0
  9
$DIMGAP
 40
0.625
  9
$DIMJUST
 70
0
  9
$DIMSD1
 70
0
  9
$DIMSD2
 70
0
  9
$DIMTOLJ
 70
0
  9
$DIMTZIN
 70
8
  9
$DIMALTZ
 70
0
  9
$DIMALTTZ
 70
0
  9
$DIMUPT
 70
0
  9
$DIMDEC
 70
2
  9
$DIMTDEC
 70
2
  9
$DIMALTU
 70
2
  9
$DIMALTTD
 70
3
  9
$DIMTXSTY
  7
Standard
  9
$DIMAUNIT
 70
0
  9
$DIMADEC
 70
0
  9
$DIMALTRND
 40
0.0
  9
$DIMAZIN
 70
0
  9
$DIMDSEP
 70
44
  9
$DIMATFIT
 70
3
  9
$DIMFRAC
 70
0
  9
$DIMLDRBLK
  1

  9
$DIMLUNIT
 70
2
  9
$DIMLWD
 70
-2
  9
$DIMLWE
 70
-2
  9
$DIMTMOVE
 70
0
  9
$DIMFXL
 40
1.0
  9
$DIMFXLON
 70
0
  9
$DIMJOGANG
 40
0.785398163397
  9
$DIMTFILL
 70
0
  9
$DIMTFILLCLR
 70
0
  9
$DIMARCSYM
 70
0
  9
$DIMLTYPE
  6

  9
$DIMLTEX1
  6

  9
$DIMLTEX2
  6

  9
$DIMTXTDIRECTION
 70
0
  9
$LUNITS
 70
2
  9
$LUPREC
 70
4
  9
$SKETCHINC
 40
1.0
  9
$FILLETRAD
 40
10.0
  9
$AUNITS
 70
0
  9
$AUPREC
 70
2
  9
$MENU
  1
.
  9
$ELEVATION
 40
0.0
  9
$PELEVATION
 40
0.0
  9
$THICKNESS
 40
0.0
  9
$LIMCHECK
 70
0
  9
$CHAMFERA
 40
0.0
  9
$CHAMFERB
 40
0.0
  9
$CHAMFERC
 40
0.0
  9
$CHAMFERD
 40
0.0
  9
$SKPOLY
 70
0
  9
$TDCREATE
 40
2460906.8720833333
  9
$TDUCREATE
 40
2458532.153996898
  9
$TDUPDATE
 40
2460906.8720833333
  9
$TDUUPDATE
 40
2458532.1544311
  9
$TDINDWG
 40
0.0
  9
$TDUSRTIMER
 40
0.0
  9
$USRTIMER
 70
1
  9
$ANGBASE
 50
0.0
  9
$ANGDIR
 70
0
  9
$PDMODE
 70
0
  9
$PDSIZE
 40
0.0
  9
$PLINEWID
 40
0.0
  9
$SPLFRAME
 70
0
  9
$SPLINETYPE
 70
6
  9
$SPLINESEGS
 70
8
  9
$HANDSEED
  5
33
  9
$SURFTAB1
 70
6
  9
$SURFTAB2
 70
6
  9
$SURFTYPE
 70
6
  9
$SURFU
 70
6
  9
$SURFV
 70
6
  9
$UCSBASE
  2

  9
$UCSNAME
  2

  9
$UCSORG
 10
0.0
 20
0.0
 30
0.0
  9
$UCSXDIR
 10
1.0
 20
0.0
 30
0.0
  9
$UCSYDIR
 10
0.0
 20
1.0
 30
0.0
  9
$UCSORTHOREF
  2

  9
$UCSORTHOVIEW
 70
0
  9
$UCSORGTOP
 10
0.0
 20
0.0
 30
0.0
  9
$UCSORGBOTTOM
 10
0.0
 20
0.0
 30
0.0
  9
$UCSORGLEFT
 10
0.0
 20
0.0
 30
0.0
  9
$UCSORGRIGHT
 10
0.0
 20
0.0
 30
0.0
  9
$UCSORGFRONT
 10
0.0
 20
0.0
 30
0.0
  9
$UCSORGBACK
 10
0.0
 20
0.0
 30
0.0
  9
$PUCSBASE
  2

  9
$PUCSNAME
  2

  9
$PUCSORG
 10
0.0
 20
0.0
 30
0.0
  9
$PUCSXDIR
 10
1.0
 20
0.0
 30
0.0
  9
$PUCSYDIR
 10
0.0
 20
1.0
 30
0.0
  9
$PUCSORTHOREF
  2

  9
$PUCSORTHOVIEW
 70
0
  9
$PUCSORGTOP
 10
0.0
 20
0.0
 30
0.0
  9
$PUCSORGBOTTOM
 10
0.0
 20
0.0
 30
0.0
  9
$PUCSORGLEFT
 10
0.0
 20
0.0
 30
0.0
  9
$PUCSORGRIGHT
 10
0.0
 20
0.0
 30
0.0
  9
$PUCSORGFRONT
 10
0.0
 20
0.0
 30
0.0
  9
$PUCSORGBACK
 10
0.0
 20
0.0
 30
0.0
  9
$USERI1
 70
0
  9
$USERI2
 70
0
  9
$USERI3
 70
0
  9
$USERI4
 70
0
  9
$USERI5
 70
0
  9
$USERR1
 40
0.0
  9
$USERR2
 40
0.0
  9
$USERR3
 40
0.0
  9
$USERR4
 40
0.0
  9
$USERR5
 40
0.0
  9
$WORLDVIEW
 70
1
  9
$SHADEDGE
 70
3
  9
$SHADEDIF
 70
70
  9
$TILEMODE
 70
1
  9
$MAXACTVP
 70
64
  9
$PINSBASE
 10
0.0
 20
0.0
 30
0.0
  9
$PLIMCHECK
 70
0
  9
$PEXTMIN
 10
1e+20
 20
1e+20
 30
1e+20
  9
$PEXTMAX
 10
-1e+20
 20
-1e+20
 30
-1e+20
  9
$PLIMMIN
 10
0.0
 20
0.0
  9
$PLIMMAX
 10
420.0
 20
297.0
  9
$UNITMODE
 70
0
  9
$VISRETAIN
 70
1
  9
$PLINEGEN
 70
0
  9
$PSLTSCALE
 70
1
  9
$TREEDEPTH
 70
3020
  9
$CMLSTYLE
  2
Standard
  9
$CMLJUST
 70
0
  9
$CMLSCALE
 40
20.0
  9
$PROXYGRAPHICS
 70
1
  9
$MEASUREMENT
 70
1
  9
$CELWEIGHT
370
-1
  9
$ENDCAPS
280
0
  9
$JOINSTYLE
280
0
  9
$LWDISPLAY
290
0
  9
$INSUNITS
 70
6
  9
$HYPERLINKBASE
  1

  9
$STYLESHEET
  1

  9
$XEDIT
290
1
  9
$CEPSNTYPE
380
0
  9
$PSTYLEMODE
290
1
  9
$FINGERPRINTGUID
  2
{67EE7528-B71A-4915-8F68-C9D2529B5269}
  9
$VERSIONGUID
  2
{FAD2D05B-0E37-4769-9ADD-725E412FBA34}
  9
$EXTNAMES
290
1
  9
$PSVPSCALE
 40
0.0
  9
$OLESTARTUP
290
0
  9
$SORTENTS
280
127
  9
$INDEXCTL
280
0
  9
$HIDETEXT
280
1
  9
$XCLIPFRAME
280
1
  9
$HALOGAP
280
0
  9
$OBSCOLOR
 70
257
  9
$OBSLTYPE
280
0
  9
$INTERSECTIONDISPLAY
280
0
  9
$INTERSECTIONCOLOR
 70
257
  9
$DIMASSOC
280
2
  9
$PROJECTNAME
  1

  9
$CAMERADISPLAY
290
0
  9
$LENSLENGTH
 40
50.0
  9
$CAMERAHEIGHT
 40
0.0
  9
$STEPSPERSEC
 40
24.0
  9
$STEPSIZE
 40
100.0
  9
$3DDWFPREC
 40
2.0
  9
$PSOLWIDTH
 40
0.005
  9
$PSOLHEIGHT
 40
0.08
  9
$LOFTANG1
 40
1.570796326795
  9
$LOFTANG2
 40
1.570796326795
  9
$LOFTMAG1
 40
0.0
  9
$LOFTMAG2
 40
0.0
  9
$LOFTPARAM
 70
7
  9
$LOFTNORMALS
280
1
  9
$LATITUDE
 40
37.795
  9
$LONGITUDE
 40
-122.394
  9
$NORTHDIRECTION
 40
0.0
  9
$TIMEZONE
 70
-8000
  9
$LIGHTGLYPHDISPLAY
280
1
  9
$TILEMODELIGHTSYNCH
280
1
  9
$CMATERIAL
347
20
  9
$SOLIDHIST
280
0
  9
$SHOWHIST
280
1
  9
$DWFFRAME
280
2
  9
$DGNFRAME
280
2
  9
$REALWORLDSCALE
290
1
  9
$INTERFERECOLOR
 62
256
  9
$CSHADOW
280
0
  9
$SHADOWPLANELOCATION
 40
0.0
  0
ENDSEC
  0
SECTION
  2
CLASSES
  0
CLASS
  1
ACDBDICTIONARYWDFLT
  2
AcDbDictionaryWithDefault
  3
ObjectDBX Classes
 90
0
 91
0
280
0
281
0
  0
CLASS
  1
SUN
  2
AcDbSun
  3
SCENEOE
 90
1153
 91
0
280
0
281
0
  0
CLASS
  1
VISUALSTYLE
  2
AcDbVisualStyle
  3
ObjectDBX Classes
 90
4095
 91
0
280
0
281
0
  0
CLASS
  1
MATERIAL
  2
AcDbMaterial
  3
ObjectDBX Classes
 90
1153
 91
0
280
0
281
0
  0
CLASS
  1
SCALE
  2
AcDbScale
  3
ObjectDBX Classes
 90
1153
 91
0
280
0
281
0
  0
CLASS
  1
TABLESTYLE
  2
AcDbTableStyle
  3
ObjectDBX Classes
 90
4095
 91
0
280
0
281
0
  0
CLASS
  1
MLEADERSTYLE
  2
AcDbMLeaderStyle
  3
ACDB_MLEADERSTYLE_CLASS
 90
4095
 91
0
280
0
281
0
  0
CLASS
  1
DICTIONARYVAR
  2
AcDbDictionaryVar
  3
ObjectDBX Classes
 90
0
 91
0
280
0
281
0
  0
CLASS
  1
CELLSTYLEMAP
  2
AcDbCellStyleMap
  3
ObjectDBX Classes
 90
1152
 91
0
280
0
281
0
  0
CLASS
  1
MENTALRAYRENDERSETTINGS
  2
AcDbMentalRayRenderSettings
  3
SCENEOE
 90
1024
 91
0
280
0
281
0
  0
CLASS
  1
ACDBDETAILVIEWSTYLE
  2
AcDbDetailViewStyle
  3
ObjectDBX Classes
 90
1025
 91
0
280
0
281
0
  0
CLASS
  1
ACDBSECTIONVIEWSTYLE
  2
AcDbSectionViewStyle
  3
ObjectDBX Classes
 90
1025
 91
0
280
0
281
0
  0
CLASS
  1
RASTERVARIABLES
  2
AcDbRasterVariables
  3
ISM
 90
0
 91
0
280
0
281
0
  0
CLASS
  1
LAYOUT
  2
AcDbLayout
  3
ObjectDBX Classes
 90
0
 91
0
280
0
281
0
  0
CLASS
  1
ACDBPLACEHOLDER
  2
AcDbPlaceHolder
  3
ObjectDBX Classes
 90
0
 91
0
280
0
281
0
  0
ENDSEC
  0
SECTION
  2
TABLES
  0
TABLE
  2
VPORT
  5
8
330
0
100
AcDbSymbolTable
 70
1
  0
VPORT
  5
23
330
8
100
AcDbSymbolTableRecord
100
AcDbViewportTableRecord
  2
*Active
 70
0
 10
0.0
 20
0.0
 11
1.0
 21
1.0
 12
0.0
 22
0.0
 13
0.0
 23
0.0
 14
0.5
 24
0.5
 15
0.5
 25
0.5
 16
0.0
 26
0.0
 36
1.0
 17
0.0
 27
0.0
 37
0.0
 40
1000.0
 41
1.34
 42
50.0
 43
0.0
 44
0.0
 50
0.0
 51
0.0
 71
0
 72
1000
 73
1
 74
3
 75
0
 76
0
 77
0
 78
0
281
0
 65
0
146
0.0
  0
ENDTAB
  0
TABLE
  2
LTYPE
  5
2
330
0
100
AcDbSymbolTable
 70
3
  0
LTYPE
  5
24
330
2
100
AcDbSymbolTableRecord
100
AcDbLinetypeTableRecord
  2
ByBlock
 70
0
  3

 72
65
 73
0
 40
0.0
  0
LTYPE
  5
25
330
2
100
AcDbSymbolTableRecord
100
AcDbLinetypeTableRecord
  2
ByLayer
 70
0
  3

 72
65
 73
0
 40
0.0
  0
LTYPE
  5
26
330
2
100
AcDbSymbolTableRecord
100
AcDbLinetypeTableRecord
  2
Continuous
 70
0
  3

 72
65
 73
0
 40
0.0
  0
ENDTAB
  0
TABLE
  2
LAYER
  5
1
330
0
100
AcDbSymbolTable
 70
2
  0
LAYER
  5
27
330
1
100
AcDbSymbolTableRecord
100
AcDbLayerTableRecord
  2
0
 70
0
 62
7
  6
Continuous
370
-3
390
13
347
21
  0
LAYER
  5
28
330
1
100
AcDbSymbolTableRecord
100
AcDbLayerTableRecord
  2
Defpoints
 70
0
 62
7
  6
Continuous
290
0
370
-3
390
13
347
21
  0
ENDTAB
  0
TABLE
  2
STYLE
  5
5
330
0
100
AcDbSymbolTable
 70
1
  0
STYLE
  5
29
330
5
100
AcDbSymbolTableRecord
100
AcDbTextStyleTableRecord
  2
Standard
 70
0
 40
0.0
 41
1.0
 50
0.0
 71
0
 42
2.5
  3
txt
  4

  0
ENDTAB
  0
TABLE
  2
VIEW
  5
7
330
0
100
AcDbSymbolTable
 70
0
  0
ENDTAB
  0
TABLE
  2
UCS
  5
6
330
0
100
AcDbSymbolTable
 70
0
  0
ENDTAB
  0
TABLE
  2
APPID
  5
3
330
0
100
AcDbSymbolTable
 70
3
  0
APPID
  5
2A
330
3
100
AcDbSymbolTableRecord
100
AcDbRegAppTableRecord
  2
ACAD
 70
0
  0
APPID
  5
30
330
3
100
AcDbSymbolTableRecord
100
AcDbRegAppTableRecord
  2
HATCHBACKGROUNDCOLOR
 70
0
  0
APPID
  5
31
330
3
100
AcDbSymbolTableRecord
100
AcDbRegAppTableRecord
  2
EZDXF
 70
0
  0
ENDTAB
  0
TABLE
  2
DIMSTYLE
  5
4
330
0
100
AcDbSymbolTable
 70
1
100
AcDbDimStyleTable
  0
DIMSTYLE
105
2B
330
4
100
AcDbSymbolTableRecord
100
AcDbDimStyleTableRecord
  2
Standard
 70
0
 40
1.0
 41
2.5
 42
0.625
 43
3.75
 44
1.25
 45
0.0
 46
0.0
 47
0.0
 48
0.0
 49
2.5
140
2.5
141
2.5
142
0.0
143
0.03937007874
144
1.0
145
0.0
146
1.0
147
0.625
148
0.0
 69
0
 70
0
 71
0
 72
0
 73
0
 74
0
 75
0
 76
0
 77
1
 78
8
 79
3
170
0
171
3
172
1
173
0
174
0
175
0
176
0
177
0
178
0
179
2
271
2
272
2
273
2
274
3
275
0
276
0
277
2
278
44
279
0
280
0
281
0
282
0
283
0
284
8
285
0
286
0
288
0
289
3
290
0
371
-2
372
-2
  0
ENDTAB
  0
TABLE
  2
BLOCK_RECORD
  5
9
330
0
100
AcDbSymbolTable
 70
2
  0
BLOCK_RECORD
  5
17
330
9
100
AcDbSymbolTableRecord
100
AcDbBlockTableRecord
  2
*Model_Space
340
1A
 70
0
280
1
281
0
  0
BLOCK_RECORD
  5
1B
330
9
100
AcDbSymbolTableRecord
100
AcDbBlockTableRecord
  2
*Paper_Space
340
1E
 70
0
280
1
281
0
  0
ENDTAB
  0
ENDSEC
  0
SECTION
  2
BLOCKS
  0
BLOCK
  5
18
330
17
100
AcDbEntity
  8
0
100
AcDbBlockBegin
  2
*Model_Space
 70
0
 10
0.0
 20
0.0
 30
0.0
  3
*Model_Space
  1

  0
ENDBLK
  5
19
330
17
100
AcDbEntity
  8
0
100
AcDbBlockEnd
  0
BLOCK
  5
1C
330
1B
100
AcDbEntity
  8
0
100
AcDbBlockBegin
  2
*Paper_Space
 70
0
 10
0.0
 20
0.0
 30
0.0
  3
*Paper_Space
  1

  0
ENDBLK
  5
1D
330
1B
100
AcDbEntity
  8
0
100
AcDbBlockEnd
  0
ENDSEC
  0
SECTION
  2
ENTITIES
  0
LWPOLYLINE
  5
2F
330
17
100
AcDbEntity
  8
0
100
AcDbPolyline
 90
721
 70
1
 10
84.7582998988644
 20
45.362371323191084
 10
84.7554223700624
 20
45.36197046206295
 10
84.74692519372005
 20
45.36051486882811
 10
84.73307918996464
 20
45.35749852378568
 10
84.71362244380732
 20
45.353106731754266
 10
84.68901108019398
 20
45.34709538802184
 10
84.65905088916763
 20
45.339523292481836
 10
84.62368307083484
 20
45.33019623517719
 10
84.58316063504599
 20
45.319249626171526
 10
84.53742478190779
 20
45.30648925550784
 10
84.48621359643131
 20
45.29210042800474
 10
84.42991549853066
 20
45.2759655438754
 10
84.36840398328059
 20
45.25801689808802
 10
84.3016113456493
 20
45.23838099556784
 10
84.22967299570045
 20
45.21680482646438
 10
84.1524535233704
 20
45.19354140062811
 10
84.07014713861615
 20
45.16853191816561
 10
83.98262733651248
 20
45.14170867404507
 10
83.88982641202762
 20
45.113198173191726
 10
83.79200628015042
 20
45.08281511078694
 10
83.68890502589197
 20
45.05074479164933
 10
83.58065805931597
 20
45.01673420592845
 10
83.46738298020915
 20
44.98117177353841
 10
83.34876797882777
 20
44.9437278744585
 10
83.2251925699474
 20
44.90460562378419
 10
83.09640374371766
 20
44.863669611451854
 10
82.96252800506372
 20
44.8209875424933
 10
82.8235653539856
 20
44.77655941690851
 10
82.67944808545151
 20
44.73051173962275
 10
82.5301761994614
 20
44.68284451063598
 10
82.37588510607895
 20
44.63330472009778
 10
82.21643939524047
 20
44.58214537785857
 10
82.05203327690307
 20
44.529307684025
 10
81.88247254110965
 20
44.474850438490414
 10
81.70789259792389
 20
44.41852063140439
 10
81.52828454220736
 20
44.3606389776492
 10
81.34358066892821
 20
44.30133198215007
 10
81.15398409318196
 20
44.24022013013132
 10
80.95923289997968
 20
44.177488726411575
 10
80.7596478042037
 20
44.11314667612928
 10
80.55490809097167
 20
44.04718507414597
 10
80.34526677013412
 20
43.979739330525334
 10
80.13059733676579
 20
43.91074174023553
 10
79.91102629579191
 20
43.84026000830838
 10
79.68649484731904
 20
43.76809992478682
 10
79.45712949627249
 20
43.69432919470271
 10
79.2226683276633
 20
43.61913312287465
 10
78.9834320563738
 20
43.54252061444108
 10
78.73929417747871
 20
43.46442396437016
 10
78.49025469097809
 20
43.3848431726619
 10
78.23631359687192
 20
43.30377823931631
 10
77.97752969505358
 20
43.2214233742904
 10
77.71384418562968
 20
43.13758436762717
 10
77.44531586849361
 20
43.05245542928363
 10
77.17201244867722
 20
42.96591005433458
 10
76.89406933624417
 20
42.877695232929575
 10
76.61147762605599
 20
42.788131679950865
 10
76.32397540312381
 20
42.69740470021709
 10
76.03156266744764
 20
42.605514293728234
 10
75.73456903904822
 20
42.512148650740485
 10
75.43292681289367
 20
42.41743427617903
 10
75.126635988984
 20
42.321371170043875
 10
74.81549345222375
 20
42.2243388471107
 10
74.49983772777205
 20
42.12570478275341
 10
74.17965991049044
 20
42.025789691854236
 10
73.85489229534711
 20
41.92472007933842
 10
73.52534067238503
 20
41.82255474509935
 10
73.19132575648646
 20
41.71930259427548
 10
72.852788747758
 20
41.61476941690973
 10
72.50972964619966
 20
41.50895521300212
 10
72.162139546673
 20
41.402180697434915
 10
71.81028926930529
 20
41.29393985050721
 10
71.45391689910771
 20
41.184417977037654
 10
71.09320774089886
 20
41.07387699201511
 10
70.72816179467874
 20
40.962316895439564
 10
70.35878796558579
 20
40.84941697242875
 10
69.98501854858816
 20
40.73530372790791
 10
69.60710655353631
 20
40.62011257194069
 10
69.22479006544137
 20
40.504028809345684
 10
68.83827219939882
 20
40.38667292534724
 10
68.44767946033382
 20
40.26811262497718
 10
68.05301184824647
 20
40.14834790823552
 10
67.65413395307307
 20
40.0276317849727
 10
67.25104577481359
 20
39.9059642551887
 10
66.84381501849992
 20
39.78321881395832
 10
66.43276239901428
 20
39.65940436641997
 10
66.01756720147442
 20
39.53451200743523
 10
65.59835593080557
 20
39.40860944203593
 10
65.17545820702843
 20
39.28138486047825
 10
64.74867982018588
 20
39.152897062655526
 10
64.31794416010779
 20
39.02359326837531
 10
63.883377731719285
 20
38.893541182669395
 10
63.444862935233616
 20
38.76235238562369
 10
63.00285589559669
 20
38.6297827725262
 10
62.557085792681214
 20
38.4963383630778
 10
62.107620331519
 20
38.36189265235324
 10
61.65439180707823
 20
38.22657214527779
 10
61.19766213434779
 20
38.09019153703281
 10
60.73743131332764
 20
37.95275082761829
 10
60.273572839092616
 20
37.814182312002416
 10
59.80627201646128
 20
37.67474790517406
 10
59.335402340508445
 20
37.534379902101385
 10
58.86122572622298
 20
37.3928929979658
 10
58.38374217360487
 20
37.25028719276729
 10
57.903078187579354
 20
37.10663019153766
 10
57.41903955818938
 20
36.96198079417034
 10
56.93161738029651
 20
36.81665971554757
 10
56.440888264071
 20
36.67021973586189
 10
55.94716401925671
 20
36.52299047513398
 10
55.45046245613048
 20
36.374330503599296
 10
54.950715869660485
 20
36.224366326183066
 10
54.44797415460169
 20
36.07361286772461
 10
53.942169605922274
 20
35.92219663314915
 10
53.43325232886728
 20
35.769602697617366
 10
52.92186375320124
 20
35.615848871406115
 10
52.407692069180314
 20
35.4606055344947
 10
51.89078717155945
 20
35.30438761172243
 10
51.37095485038164
 20
35.147253902982726
 10
50.84851582052912
 20
34.98921331341399
 10
50.32354669217215
 20
34.829818623208745
 10
49.79603856017232
 20
34.669390547249265
 10
49.265856014465946
 20
34.50818209538596
 10
48.7333375802122
 20
34.34556074299277
 10
48.19855096244287
 20
34.18139998514444
 10
47.66141064584928
 20
34.01646775653074
 10
47.12173132561284
 20
33.8505021421628
 10
46.579698306552125
 20
33.68376505702948
 10
46.03571781885813
 20
33.51549747157947
 10
45.48972215749899
 20
33.34582589073798
 10
44.94157591241109
 20
33.175003324355444
 10
44.391075968498924
 20
33.003409287207546
 10
43.83874615574023
 20
32.83067316965703
 10
43.28460428441192
 20
32.656153541939375
 10
42.72882675419415
 20
32.48043303392572
 10
42.17082203007734
 20
32.304008760178526
 10
41.61098743711402
 20
32.12644240602871
 10
41.04959379543149
 20
31.947227951775403
 10
40.486758704816566
 20
31.766753817332702
 10
39.92216145038694
 20
31.585011097562163
 10
39.355987336961256
 20
31.402261707452674
 10
38.788177564646126
 20
31.21831143704718
 10
38.2189940484304
 20
31.03297498152706
 10
37.64856329323932
 20
30.846320045924145
 10
37.07675879414763
 20
30.65827892520661
 10
36.50383356100582
 20
30.468987029438104
 10
35.92953458396341
 20
30.278308948554972
 10
35.35397946280723
 20
30.08663310247132
 10
34.777235902569075
 20
29.893832986261916
 10
34.19964242840807
 20
29.699276075300652
 10
33.621063630260586
 20
29.503215379437975
 10
33.04168481294522
 20
29.30591281366275
 10
32.461185261579715
 20
29.107359472836556
 10
31.879953396078164
 20
28.907437757172602
 10
31.2980569214724
 20
28.706021161745664
 10
30.715563542794246
 20
28.502983181630515
 10
30.132337849980026
 20
28.29857682667759
 10
29.548438642923173
 20
28.09299630684397
 10
28.96386592162367
 20
27.886241622129617
 10
28.3789493061022
 20
27.678000962790705
 10
27.79362999646541
 20
27.468080118870205
 10
27.208102202670307
 20
27.256420290474694
 10
26.622289314546652
 20
27.043468697411676
 10
26.035861712073736
 20
26.829537149424983
 10
25.44920781516568
 20
26.614508046727835
 10
24.862742759151832
 20
26.397301644886618
 10
24.276060313841267
 20
26.17867697345267
 10
23.689345784052595
 20
25.958895947414867
 10
23.102608074924248
 20
25.737637851890945
 10
22.515914891488023
 20
25.51477618195565
 10
21.929316128498936
 20
25.29082586244834
 10
21.342752986063548
 20
25.065592683411946
 10
20.75655508420259
 20
24.838764835102634
 10
20.170595917990813
 20
24.610274612488563
 10
19.585060792246857
 20
24.380383930558637
 10
18.999882001938875
 20
24.149219294238044
 10
18.41526266216237
 20
23.91640118875114
 10
17.831135067885498
 20
23.68205611902314
 10
17.247558019001666
 20
23.446378295011097
 10
16.664201895490166
 20
23.209679526458846
 10
16.0817259373924
 20
22.971336193878702
 10
15.500130144708363
 20
22.731348297270674
 10
14.919346812406236
 20
22.489842341559978
 10
14.339308235454194
 20
22.24694483167184
 10
13.760208623809282
 20
22.002596967712858
 10
13.18185376751444
 20
21.75685754957643
 10
12.604564381451972
 20
21.50973548240099
 10
12.028475875685489
 20
21.260977756336093
 10
11.45352054518319
 20
21.010710876306955
 10
10.879630684913238
 20
20.759061347238802
 10
10.306873999907474
 20
20.505902664206413
 10
9.735638910079984
 20
20.251117227423
 10
9.165663500441887
 20
19.99489034170717
 10
8.596938865854773
 20
19.737542721941203
 10
8.029677026552523
 20
19.47837413846715
 10
7.463995582321945
 20
19.217773011199117
 10
6.899691418067556
 20
18.95611885491277
 10
6.336841143959623
 20
18.692964449800613
 10
5.775833179912237
 20
18.42819219607586
 10
5.216532115861737
 20
18.162055103588948
 10
4.658946856946561
 20
17.894232457457605
 10
4.103195002953496
 20
17.625112677595936
 10
3.549285459020976
 20
17.354375049121664
 10
2.9974035299676216
 20
17.082281487023664
 10
2.4470930908475044
 20
16.809076096013953
 10
1.8987425615747258
 20
16.534641276305738
 10
1.3526227622765836
 20
16.258471008198125
 10
0.808665987921258
 20
15.980691796616341
 10
0.2667956283384878
 20
15.701750861367877
 10
-0.272920611439889
 20
15.421521697527517
 10
-0.8104150263820716
 20
15.139877800170025
 10
-1.3455611115628046
 20
14.856886874327243
 10
-1.8786207819709826
 20
14.57273422481778
 10
-2.4096029427450385
 20
14.287740566523897
 10
-2.938110268832439
 20
14.00146758477655
 10
-3.4640073501695263
 20
13.713662269725283
 10
-3.987429596819963
 20
13.424577631220545
 10
-4.508318208890345
 20
13.134407879219383
 10
-5.026799691305907
 20
12.843085308689968
 10
-5.542815244173234
 20
12.550804129589354
 10
-6.056306067598945
 20
12.25775855187458
 10
-6.56712784638095
 20
11.963374850812942
 10
-7.075154075594032
 20
11.667720731436257
 10
-7.580596775472098
 20
11.371496423402464
 10
-8.083447040876711
 20
11.074381211829296
 10
-8.583384156925614
 20
10.77638400185518
 10
-9.080661133469238
 20
10.477369383416463
 10
-9.575024960657142
 20
10.177472766576802
 10
-10.066484543627762
 20
9.87701486621846
 10
-10.55536059726336
 20
9.575986777203012
 10
-11.041188091479595
 20
9.27382367993617
 10
-11.524120246616965
 20
8.971420014032919
 10
-12.004418977664347
 20
8.668961084311887
 10
-12.481804559356021
 20
8.365620156189896
 10
-12.955897476916306
 20
8.061600344762443
 10
-13.427027350365906
 20
7.757213459773354
 10
-13.895261884736646
 20
7.452586006147859
 10
-14.36046566996487
 20
7.147464974035515
 10
-14.822453401231972
 20
6.842112278425188
 10
-15.281478088388383
 20
6.536392509253236
 10
-15.737489836679146
 20
6.230820591358968
 10
-16.190353236040604
 20
5.925143514891943
 10
-16.640000581440937
 20
5.619234774926938
 10
-17.08649957791196
 20
5.313220876389178
 10
-17.52985913059211
 20
5.007422534160933
 10
-17.970205744406613
 20
4.701772043210375
 10
-18.40715099944136
 20
4.396151803750713
 10
-18.84069489569636
 20
4.090561815781946
 10
-19.270896233065006
 20
3.7848078693470257
 10
-19.69769621165391
 20
3.4790841744029977
 10
-20.121297946558542
 20
3.1737702457255312
 10
-20.541642637885502
 20
2.8690602932716764
 10
-20.9584594655075
 20
2.56444829734054
 10
-21.37187493434974
 20
2.259866552900299
 10
-21.781441824604748
 20
1.955391670121207
 10
-22.187616261218434
 20
1.651267753715282
 10
-22.59046594922263
 20
1.3476213086077393
 10
-22.989737878766878
 20
1.0445877448622412
 10
-23.38536434481937
 20
0.7420405575535547
 10
-23.777268737209837
 20
0.43953252687419464
 10
-24.165595371140377
 20
0.13763737755687222
 10
-24.550547361706453
 20
-0.16326537562274673
 10
-24.931659678823717
 20
-0.4637405522589442
 10
-25.309058827417388
 20
-0.7638558573835492
 10
-25.682627207700676
 20
-1.0632228710824634
 10
-26.05249132459881
 20
-1.3619092983875145
 10
-26.41871888314361
 20
-1.6597886343734813
 10
-26.780980263314373
 20
-1.957172688784199
 10
-27.139410875174757
 20
-2.2538084517692285
 10
-27.494010718724752
 20
-2.549695923328568
 10
-27.845050614091676
 20
-2.8443290837613304
 10
-28.192209846393247
 20
-3.1376990279290844
 10
-28.535538310384435
 20
-3.4303206806711493
 10
-28.874774091076368
 20
-3.7223793468061435
 10
-29.210061503671128
 20
-4.013301301601351
 10
-29.541662463157586
 20
-4.302901240238156
 10
-29.86917964448321
 20
-4.591617477385621
 10
-30.192621952786446
 20
-4.879129298161471
 10
-30.512310102949556
 20
-5.165445607704144
 10
-30.82799108512209
 20
-5.450430995949978
 10
-31.13946178420857
 20
-5.734464977674651
 10
-31.446925315304483
 20
-6.017168038102489
 10
-31.750449383441655
 20
-6.2984136723082695
 10
-32.04996628358825
 20
-6.5783283852172225
 10
-32.34534951081905
 20
-6.856844471797509
 10
-32.63653136010224
 20
-7.134088436974366
 10
-32.923706041394844
 20
-7.410001480854385
 10
-33.20662054484644
 20
-7.684448193373921
 10
-33.48541028052066
 20
-7.957175564682527
 10
-33.760192848204326
 20
-8.2285720146943
 10
-34.030588733121746
 20
-8.498434428313766
 10
-34.29665673516632
 20
-8.76695701549797
 10
-34.55866767446536
 20
-9.033633756546017
 10
-34.81662155101886
 20
-9.298464651457918
 10
-35.070256449837956
 20
-9.561635005052285
 10
-35.3195046658908
 20
-9.823271322254339
 10
-35.5644249990708
 20
-10.083567813021135
 10
-35.805102964686654
 20
-10.341756542662907
 10
-36.04159736263175
 20
-10.598031721136698
 10
-36.27377278284242
 20
-10.852646358292963
 10
-36.50150272039347
 20
-11.105532749099865
 10
-36.72492258534852
 20
-11.356437883706965
 10
-36.943896967643944
 20
-11.605614771964708
 10
-37.158493572311556
 20
-11.852936908947871
 10
-37.368780104383184
 20
-12.098277789731231
 10
-37.57449464886996
 20
-12.341822719133408
 10
-37.77584032086736
 20
-12.583192182378735
 10
-37.972672805173296
 20
-12.822959904199925
 10
-38.16513641698984
 20
-13.060552159864267
 10
-38.35316345128519
 20
-13.29609545429698
 10
-38.53668620302751
 20
-13.529716292423286
 10
-38.71557816729157
 20
-13.76134696921136
 10
-38.890033554034424
 20
-13.99092868476781
 10
-39.06012897342633
 20
-14.218014219285132
 10
-39.22572901540364
 20
-14.442856582613786
 10
-39.386833679966344
 20
-14.66545577475376
 10
-39.54363717707148
 20
-14.885752995811664
 10
-39.69581879183681
 20
-15.103739340649064
 10
-39.84364043925118
 20
-15.319229504447344
 10
-39.987111024453036
 20
-15.531902772324239
 10
-40.12635705236758
 20
-15.741826849311563
 10
-40.26111660800596
 20
-15.949187040227946
 10
-40.39158390132522
 20
-16.15392454517998
 10
-40.5175059224749
 20
-16.355903954104026
 10
-40.6392710913691
 20
-16.55500766721328
 10
-40.756694103189226
 20
-16.75097376951888
 10
-40.86976605279682
 20
-16.944122975903085
 10
-40.9784869401919
 20
-17.134455286365903
 10
-41.08285676537445
 20
-17.321970700907332
 10
-41.182884433482904
 20
-17.506348504645096
 10
-41.27856994451727
 20
-17.687588697579205
 10
-41.3698366883073
 20
-17.86613849951714
 10
-41.456761275023226
 20
-18.04155069065142
 10
-41.539072884537745
 20
-18.21433129068292
 10
-41.617042336978194
 20
-18.383974279910767
 10
-41.69039881221723
 20
-18.550985678035843
 10
-41.759277720318536
 20
-18.715112475207704
 10
-41.8236790612821
 20
-18.876354671426345
 10
-41.88340862515086
 20
-19.03477106658517
 10
-41.938854831838924
 20
-19.19024406089738
 10
-41.98943505147515
 20
-19.342950054043165
 10
-42.03566420889886
 20
-19.492839151267564
 10
-42.077221589227776
 20
-19.639902447432142
 10
-42.114310307557375
 20
-19.78376042776123
 10
-42.14692145874923
 20
-19.92473380713711
 10
-42.174996242909955
 20
-20.06262837560272
 10
-42.198805480166826
 20
-20.196938113457183
 10
-42.21827256034961
 20
-20.328110240507982
 10
-42.233406388596734
 20
-20.45582404187285
 10
-42.24434237497185
 20
-20.579826507701345
 10
-42.25135133960225
 20
-20.699611618292575
 10
-42.25443328248794
 20
-20.815179373646544
 10
-42.25385011861779
 20
-20.926344468944627
 10
-42.249687363300495
 20
-21.032338969497072
 10
-42.24234234158857
 20
-21.132724560634802
 10
-42.2326186087255
 20
-21.226303898137434
 10
-42.22073709008362
 20
-21.31205603746475
 10
-42.20790757109735
 20
-21.388024604845032
 10
-42.195339837201125
 20
-21.452253226506542
 10
-42.184405799308344
 20
-21.501570374180304
 10
-42.17692458813984
 20
-21.532881129767578
 10
-41.746625323321275
 20
-22.342660502467254
 10
-41.74076877311895
 20
-22.3478258580489
 10
-41.72326682754379
 20
-22.363195419868607
 10
-41.69439030672308
 20
-22.388263168225496
 10
-41.6528617201906
 20
-22.42511198181651
 10
-41.59751227212843
 20
-22.47653387413497
 10
-41.531736119266284
 20
-22.5358828840375
 10
-41.457505612665535
 20
-22.599169653810375
 10
-41.37595392759037
 20
-22.664885029489376
 10
-41.28837636478391
 20
-22.730304702612994
 10
-41.195255764607346
 20
-22.79422242382242
 10
-41.09718366207025
 20
-22.856141078555176
 10
-40.994304372374714
 20
-22.915486942078555
 10
-40.88688871564804
 20
-22.97175399469168
 10
-40.77507210195388
 20
-23.02468922654409
 10
-40.65885453129223
 20
-23.074292637635793
 10
-40.53843021362014
 20
-23.120505428073397
 10
-40.41380805407603
 20
-23.16300688297462
 10
-40.28492034762809
 20
-23.201923507264688
 10
-40.15196130423335
 20
-23.237196501050214
 10
-40.014669008902956
 20
-23.269011169149806
 10
-39.87311116666872
 20
-23.29724100663824
 10
-39.727676197444744
 20
-23.32176841372874
 10
-39.57778147135989
 20
-23.34276979010148
 10
-39.42387420822164
 20
-23.360321745926715
 10
-39.26563369314771
 20
-23.374415376066025
 10
-39.103254136095174
 20
-23.384991880626
 10
-38.936803242095856
 20
-23.391924754681433
 10
-38.76607789605426
 20
-23.39559351300798
 10
-38.59121350803406
 20
-23.395745145755207
 10
-38.41193925790794
 20
-23.39288567262399
 10
-38.22845826077136
 20
-23.386635578838668
 10
-38.040761611485934
 20
-23.37731557928151
 10
-37.84872280512641
 20
-23.364857968920695
 10
-37.65220643162913
 20
-23.349515757606664
 10
-37.45140670095116
 20
-23.33123014544602
 10
-37.24625590806067
 20
-23.310127637363983
 10
-37.03675405295765
 20
-23.286208233360558
 10
-36.822571515621426
 20
-23.25978374317959
 10
-36.604029010934234
 20
-23.23086307195949
 10
-36.38094123407749
 20
-23.199184304711405
 10
-36.15356119490161
 20
-23.164882851498977
 10
-35.921626978417734
 20
-23.128144017140823
 10
-35.68526508955107
 20
-23.08903550666877
 10
-35.44441672840824
 20
-23.04736311012577
 10
-35.19934380997812
 20
-23.002941522693206
 10
-34.949852124303646
 20
-22.95582954426448
 10
-34.696126976203445
 20
-22.906289089828455
 10
-34.43804186075229
 20
-22.854252454353304
 10
-34.17559677795018
 20
-22.79971963783904
 10
-33.90899484289261
 20
-22.74231112550999
 10
-33.63836256050478
 20
-22.682094622397976
 10
-33.36357342586148
 20
-22.619002423471173
 10
-33.08461853382427
 20
-22.55335524361186
 10
-32.801497884393164
 20
-22.485153082820023
 10
-32.51448229769545
 20
-22.413889921394784
 10
-32.2235628685927
 20
-22.339886474218407
 10
-31.928680797191543
 20
-22.26294853133385
 10
-31.62976837846012
 20
-22.183202597666334
 10
-31.32695211732368
 20
-22.100716378247675
 10
-31.020299718814023
 20
-22.015363368152663
 10
-30.709743477899345
 20
-21.927270072306516
 10
-30.395283394579636
 20
-21.836436490709236
 10
-30.07698717388672
 20
-21.74273611843559
 10
-29.754913615714003
 20
-21.64636316544264
 10
-29.42906272006147
 20
-21.547317631730376
 10
-29.09937568703574
 20
-21.445405307341762
 10
-28.765970116423603
 20
-21.34101461219088
 10
-28.428787208331652
 20
-21.23395133632069
 10
-28.08775925772807
 20
-21.124341984656414
 10
-27.7430804745699
 20
-21.012127757304654
 10
-27.394953973952624
 20
-20.896929139489743
 10
-27.04317664078076
 20
-20.779125645987342
 10
-26.687486560065437
 20
-20.65890258161608
 10
-26.32833095161416
 20
-20.53633655654621
 10
-25.965592215640108
 20
-20.41103915086363
 10
-25.59933805717513
 20
-20.28288385964312
 10
-25.229686076006008
 20
-20.15225910279878
 10
-24.856442062175706
 20
-20.019223680224005
 10
-24.479741425747854
 20
-19.883524582068343
 10
-24.099710671647692
 20
-19.745229513363636
 10
-23.716417504907042
 20
-19.604211969184643
 10
-23.329658810430427
 20
-19.46085146430704
 10
-22.939569998281495
 20
-19.31489498888039
 10
-22.546015658396595
 20
-19.166595552755123
 10
-22.14945191572165
 20
-19.01570905121923
 10
-21.74955805537439
 20
-18.86222657913428
 10
-21.34646058228004
 20
-18.706215841532106
 10
-20.94021829633199
 20
-18.54787104836975
 10
-20.530840102668673
 20
-18.38687148476494
 10
-20.118317096151664
 20
-18.223537865599948
 10
-19.702843486738004
 20
-18.057811390981378
 10
-19.2843016746409
 20
-17.889303640995138
 10
-18.862944669710803
 20
-17.718150025704873
 10
-18.43856935685223
 20
-17.544730059886252
 10
-18.011175736065184
 20
-17.369043743539276
 10
-17.58076380734966
 20
-17.19109107666394
 10
-17.14766319072636
 20
-17.010560249516413
 10
-16.712009296258945
 20
-16.827198252246244
 10
-16.273404798894877
 20
-16.641443399522494
 10
-15.832102708484602
 20
-16.45343110140882
 10
-15.388111930166552
 20
-16.262840643022944
 10
-14.9416943789296
 20
-16.06948671954626
 10
-14.492646939678275
 20
-15.873748845754422
 10
-14.040960707274138
 20
-15.675947736529707
 10
-13.586644586855627
 20
-15.475762676989845
 10
-13.129901693518207
 20
-15.27281415235916
 10
-12.670849627048684
 20
-15.067490582551764
 10
-12.209420682415224
 20
-14.859918472492867
 10
-11.74536184976739
 20
-14.649962412118821
 10
-11.279120348912663
 20
-14.437699011599879
 10
-10.810705084989486
 20
-14.222807556053777
 10
-10.340116057997848
 20
-14.005288045480508
 10
-9.867412067831147
 20
-13.785334689837121
 10
-9.39225458933026
 20
-13.563580013749732
 10
-8.914973242515886
 20
-13.339712207474497
 10
-8.435712342590103
 20
-13.1131575462787
 10
-7.954404184521079
 20
-12.884042535087564
 10
-7.471301778159267
 20
-12.652502583964742
 10
-6.986007798452139
 20
-12.418976007579294
 10
-6.49878416038857
 20
-12.183277501112604
 10
-6.009630863968557
 20
-11.94540706456467
 10
-5.518683319255753
 20
-11.705111688085049
 10
-5.0258738212183385
 20
-11.462517876598968
 10
-4.5313199696430955
 20
-11.218014050020512
 10
-4.034904164743242
 20
-10.971211788435596
 10
-3.5370148264328627
 20
-10.721993492057418
 10
-3.037584249680138
 20
-10.470485665811205
 10
-2.536544729453241
 20
-10.216814814622179
 10
-2.03383746585877
 20
-9.960786728533288
 10
-1.5299773837360617
 20
-9.702351512789573
 10
-1.0249056831917007
 20
-9.44131495743398
 10
-0.5180896291095107
 20
-9.178368386986014
 10
-0.009849936371774485
 20
-8.913520706584114
 10
0.499280659905343
 20
-8.64608059170876
 10
1.009758284667752
 20
-8.37629214707198
 10
1.5215241380220677
 20
-8.104349582630812
 10
2.0341898000541945
 20
-7.830135298598464
 10
2.5479405755827393
 20
-7.553387379986069
 10
3.0625234547572684
 20
-7.274241236857272
 10
3.5783357626303016
 20
-6.993135183881138
 10
4.095115584212964
 20
-6.70988391623905
 10
4.6123978894209126
 20
-6.42392261433672
 10
5.130512298274835
 20
-6.135563087917994
 10
5.649603125976826
 20
-5.845379061715577
 10
6.169340752506173
 20
-5.55305872598564
 10
6.68978397775628
 20
-5.258407870771124
 10
7.210941706865573
 20
-4.961747210954306
 10
7.7325431197067545
 20
-4.662570726834294
 10
8.254588216279824
 20
-4.360878418411086
 10
8.777221311786851
 20
-4.057244010417405
 10
9.300383606334444
 20
-3.7518617128102947
 10
9.824133899816015
 20
-3.444537315632699
 10
10.34814257221084
 20
-3.13495900914079
 10
10.872545033582592
 20
-2.823379803185003
 10
11.397341283931254
 20
-2.509799697765341
 10
11.922404818331618
 20
-2.19428639791363
 10
12.447532521688196
 20
-1.876460388854204
 10
12.972859804064644
 20
-1.5565746804375045
 10
13.498404475737818
 20
-1.2352707024280776
 10
14.024351841526341
 20
-0.9122865398370427
 10
14.55024577648429
 20
-0.5873780879523868
 10
15.07628049056871
 20
-0.2606041466675092
 10
15.60220297392916
 20
0.0678998739539411
 10
16.128207436522683
 20
0.39807517401856535
 10
16.654226173317454
 20
0.7300482584515882
 10
17.18007387949487
 20
1.0635572122641404
 10
17.706012470043788
 20
1.3984167306375959
 10
18.231974239932384
 20
1.73475331849718
 10
18.75763847427838
 20
2.072558070704457
 10
19.28319938303885
 20
2.411772187366043
 10
19.80866587135219
 20
2.7520749535996556
 10
20.333893624016344
 20
3.094040094138016
 10
20.85876504124452
 20
3.4372791890670333
 10
21.38341553310035
 20
3.7815392285362517
 10
21.907777394552035
 20
4.126946717470905
 10
22.43171521553588
 20
4.473754665721421
 10
22.955364406115592
 20
4.821710063437376
 10
23.478607366504335
 20
5.170424490704661
 10
24.001435191563697
 20
5.520218662405547
 10
24.52392449146393
 20
5.870645358732546
 10
25.045872151109563
 20
6.22208409446132
 10
25.56721046546876
 20
6.5746613745170945
 10
26.088074844605178
 20
6.9281241890494245
 10
26.60841539376385
 20
7.281957613218991
 10
27.128358617869992
 20
7.636229352057621
 10
27.64757489690291
 20
7.9912512153091555
 10
28.166131935894445
 20
8.346896698048377
 10
28.684029734844568
 20
8.703165800275272
 10
29.20133599878513
 20
9.059932017064636
 10
29.717730012833837
 20
9.417186443278021
 10
30.233405986947755
 20
9.774870279022046
 10
30.748305121233475
 20
10.132789314339652
 10
31.262689330679898
 20
10.490758244412236
 10
31.77603478530923
 20
10.849147678877012
 10
32.28840919015333
 20
11.207831112808773
 10
32.80027757529654
 20
11.566243726613235
 10
33.31098070069748
 20
11.92500913977808
 10
33.82045086132428
 20
12.284253857228515
 10
34.32922079229317
 20
12.643286554445057
 10
34.83717289381732
 20
13.001718811513589
 10
35.344027440631
 20
13.36037736301728
 10
35.84972563284082
 20
13.719067998999073
 10
36.35414096552158
 20
14.07772301442716
 10
36.857535353662115
 20
14.436157104482911
 10
37.359849997369054
 20
14.794176059209269
 10
37.86115260167423
 20
15.151653373681036
 10
38.36118125158873
 20
15.508774352716808
 10
38.85980053704893
 20
15.865792006167036
 10
39.35721357315032
 20
16.22232681925606
 10
39.85342035989288
 20
16.578378791983877
 10
40.348235592458
 20
16.933686009361608
 10
40.84191228069611
 20
17.288383881452905
 10
41.3339942996613
 20
17.642716512969788
 10
41.8245493543854
 20
17.996557398987036
 10
42.313915970027516
 20
18.349274014878528
 10
42.80202644155586
 20
18.700992865569503
 10
43.28849234905631
 20
19.051831550846742
 10
43.77363440741115
 20
19.401798975848678
 10
44.25713190173809
 20
19.750886235436877
 10
44.73911133696237
 20
20.09916103464317
 10
45.2195816182224
 20
20.446302658585278
 10
45.698416240592984
 20
20.792243402231392
 10
46.17587711906299
 20
21.136797960762884
 10
46.65150812868646
 20
21.48021043889176
 10
47.1255622793139
 20
21.822616246681687
 10
47.59771885606299
 20
22.164006478994228
 10
48.06838408912469
 20
22.503622106278048
 10
48.5374314735738
 20
22.841395423501325
 10
49.00470778906979
 20
23.178220870279038
 10
49.469765815805204
 20
23.514021836440953
 10
49.93340020388505
 20
23.84792169264892
 10
50.395290238427066
 20
24.179911533764514
 10
50.85516509930397
 20
24.51049737948863
 10
51.313024786515726
 20
24.839679229821257
 10
51.7689370050942
 20
25.167330579837195
 10
52.22324028019849
 20
25.492818904910308
 10
52.67554619191453
 20
25.81626180482741
 10
53.125904634997255
 20
26.138174204427806
 10
53.57406259959624
 20
26.458420693647845
 10
54.02015549577514
 20
26.776748262637096
 10
54.46431873359759
 20
27.09290390154509
 10
54.90641690299995
 20
27.407140620222293
 10
55.346323499056986
 20
27.71939071363687
 10
55.78430043675758
 20
28.0294688769702
 10
56.2200947062513
 20
28.337239700158648
 10
56.653629697367876
 20
28.643150403009685
 10
57.084652400256864
 20
28.947065575459668
 10
57.51367773975758
 20
29.24893532275363
 10
57.940335106232794
 20
29.54823581491383
 10
58.36487750953296
 20
29.84510246200391
 10
58.78723724462622
 20
30.1396617689491
 10
59.207025891598505
 20
30.432031335536184
 10
59.62431115548163
 20
30.722084656839943
 10
60.03941375115787
 20
31.00983063799881
 10
60.4520218688834
 20
31.294939658992092
 10
60.86239742364705
 20
31.577226415001153
 10
61.27021079542816
 20
31.85700271576985
 10
61.675520784120124
 20
32.134462771255215
 10
62.07826858982951
 20
32.4094123715002
 10
62.478454212556365
 20
32.68185151650483
 10
62.876154262470926
 20
32.9513329864616
 10
63.27129212940291
 20
33.218304001177984
 10
63.66368250853374
 20
33.48250264566514
 10
64.05331649472495
 20
33.74424963480531
 10
64.44039720307205
 20
34.00316545382284
 10
64.82486583368164
 20
34.259055892760685
 10
65.20651927145822
 20
34.51230046639449
 10
65.58535751640181
 20
34.762899174724296
 10
65.9613805685124
 20
35.010852017750075
 10
66.33447082800319
 20
35.25577057555773
 10
66.70501671478827
 20
35.49753724836047
 10
67.07255319878337
 20
35.736716855752604
 10
67.43702148009498
 20
35.97311518777704
 10
67.79854806364837
 20
36.20679994946564
 10
68.15714185458198
 20
36.43745042593612
 10
68.51260864293874
 20
36.66512541708188
 10
68.86513373353729
 20
36.89008683789179
 10
69.21466723162266
 20
37.11181976352654
 10
69.56107372713119
 20
37.330577203836555
 10
69.90442092509467
 20
37.54623265389663
 10
70.24450571041774
 20
37.75916562848244
 10
70.58146349316391
 20
37.96912311774352
 10
70.91516776840804
 20
38.17603741664806
 10
71.24568624118193
 20
38.37978202027082
 10
71.57307771137897
 20
38.58055113856885
 10
71.8970214641169
 20
38.778335866403744
 10
72.21751749939575
 20
38.973136203775496
 10
72.53476002717252
 20
39.16489335079068
 10
72.84881675247907
 20
39.3534808025241
 10
73.15923155036947
 20
39.539142663687784
 10
73.46613092576891
 20
39.72194663931352
 10
73.7697179937729
 20
39.90151321462567
 10
74.06979854442439
 20
40.077901189517625
 10
74.3662371676597
 20
40.25136357383981
 10
74.65929577846777
 20
40.42171506277363
 10
74.94878907202991
 20
40.588693741330204
 10
75.23470814320775
 20
40.752620324391806
 10
75.51698528696939
 20
40.91362131688364
 10
75.79549399838969
 20
41.0716290137739
 10
76.07036968753224
 20
41.22639040521215
 10
76.34154464936525
 20
41.37803199612359
 10
76.60888347382503
 20
41.526806796358656
 10
76.87245386594347
 20
41.672588300992174
 10
77.13226473085895
 20
41.81505579514182
 10
77.38831606857148
 20
41.954209278807625
 10
77.64046356387895
 20
42.09062247672228
 10
77.88864841688803
 20
42.22410117892876
 10
78.13287062759868
 20
42.35464538542707
 10
78.37319790104273
 20
42.48212859129195
 10
78.60950373229495
 20
42.60648309149162
 10
78.84191462628056
 20
42.72777659105787
 10
79.07016866801071
 20
42.846194394809345
 10
79.29440126754905
 20
42.96148349289558
 10
79.51447701483188
 20
43.07389689516703
 10
79.73065782484815
 20
43.18324929680508
 10
79.9425552776837
 20
43.28965829759651
 10
80.15022817323197
 20
43.393318107498395
 10
80.35361771159951
 20
43.49403451655365
 10
80.55291810274342
 20
43.591748724868886
 10
80.74786743167479
 20
43.68664603726274
 10
80.93872761338255
 20
43.778541148916595
 10
81.12504252292071
 20
43.86767816454245
 10
81.30713287517159
 20
43.95406598927874
 10
81.48474566028472
 20
44.03756921306181
 10
81.65800738318532
 20
44.11825554092349
 10
81.82691804387339
 20
44.19612497286379
 10
81.99140993731714
 20
44.27130401380792
 10
82.15142426362316
 20
44.34359845379883
 10
82.30682561272772
 20
44.41326130268696
 10
82.457808194588
 20
44.48023376057894
 10
82.60417779924684
 20
44.544574627368135
 10
82.74600213173612
 20
44.606157398129334
 10
82.88321348702401
 20
44.66510857778776
 10
83.01587957014235
 20
44.72130166141822
 10
83.14393267605926
 20
44.77486315394588
 10
83.26723739471113
 20
44.82604606522121
 10
83.3858026312364
 20
44.87452968036197
 10
83.49981369045366
 20
44.920575914356974
 10
83.60882335255545
 20
44.96410815703602
 10
83.7132788373492
 20
45.00520301856933
 10
83.81292713498455
 20
45.04372508889329
 10
83.90763283539776
 20
45.07992737785828
 10
83.99759014854595
 20
45.113751085570975
 10
84.0826725695039
 20
45.14512850699951
 10
84.1627446882079
 20
45.17431265199434
 10
84.23806841964685
 20
45.201118215736834
 10
84.30838184883187
 20
45.22573050304562
 10
84.37375268079482
 20
45.248023008995474
 10
84.43404550547201
 20
45.26824874343685
 10
84.48932802789528
 20
45.28628120144452
 10
84.53965904795804
 20
45.30231459297551
 10
84.5847855558098
 20
45.31621350796619
 10
84.62476635134404
 20
45.32817215637364
 10
84.65972793948588
 20
45.33825824322961
 10
84.68941731038494
 20
45.3463363584705
 10
84.71382555890281
 20
45.3527272169786
 10
84.73314689499648
 20
45.35737201886045
 10
84.74699289875187
 20
45.360388363902885
 10
84.7554223700624
 20
45.36197046206295
 10
84.7582998988644
 20
45.362371323191084
  0
ENDSEC
  0
SECTION
  2
OBJECTS
  0
DICTIONARY
  5
A
330
0
100
AcDbDictionary
280
0
281
1
  3
ACAD_COLOR
350
B
  3
ACAD_GROUP
350
C
  3
ACAD_LAYOUT
350
D
  3
ACAD_MATERIAL
350
E
  3
ACAD_MLEADERSTYLE
350
F
  3
ACAD_MLINESTYLE
350
10
  3
ACAD_PLOTSETTINGS
350
11
  3
ACAD_PLOTSTYLENAME
350
12
  3
ACAD_SCALELIST
350
14
  3
ACAD_TABLESTYLE
350
15
  3
ACAD_VISUALSTYLE
350
16
  3
EZDXF_META
350
2D
  0
DICTIONARY
  5
B
330
A
100
AcDbDictionary
280
0
281
1
  0
DICTIONARY
  5
C
330
A
100
AcDbDictionary
280
0
281
1
  0
DICTIONARY
  5
D
330
A
100
AcDbDictionary
280
0
281
1
  3
Model
350
1A
  3
Layout1
350
1E
  0
DICTIONARY
  5
E
330
A
100
AcDbDictionary
280
0
281
1
  3
ByBlock
350
1F
  3
ByLayer
350
20
  3
Global
350
21
  0
DICTIONARY
  5
F
330
A
100
AcDbDictionary
280
0
281
1
  3
Standard
350
2C
  0
DICTIONARY
  5
10
330
A
100
AcDbDictionary
280
0
281
1
  3
Standard
350
22
  0
DICTIONARY
  5
11
330
A
100
AcDbDictionary
280
0
281
1
  0
ACDBDICTIONARYWDFLT
  5
12
330
A
100
AcDbDictionary
280
0
281
1
  3
Normal
350
13
100
AcDbDictionaryWithDefault
340
13
  0
ACDBPLACEHOLDER
  5
13
330
12
  0
DICTIONARY
  5
14
330
A
100
AcDbDictionary
280
0
281
1
  0
DICTIONARY
  5
15
330
A
100
AcDbDictionary
280
0
281
1
  0
DICTIONARY
  5
16
330
A
100
AcDbDictionary
280
0
281
1
  0
LAYOUT
  5
1A
330
D
100
AcDbPlotSettings
  1

  4
A3
  6

 40
7.5
 41
20.0
 42
7.5
 43
20.0
 44
420.0
 45
297.0
 46
0.0
 47
0.0
 48
0.0
 49
0.0
140
0.0
141
0.0
142
1.0
143
1.0
 70
1024
 72
1
 73
0
 74
5
  7

 75
16
 76
0
 77
2
 78
300
147
1.0
148
0.0
149
0.0
100
AcDbLayout
  1
Model
 70
1
 71
0
 10
0.0
 20
0.0
 11
420.0
 21
297.0
 12
0.0
 22
0.0
 32
0.0
 14
1e+20
 24
1e+20
 34
1e+20
 15
-1e+20
 25
-1e+20
 35
-1e+20
146
0.0
 13
0.0
 23
0.0
 33
0.0
 16
1.0
 26
0.0
 36
0.0
 17
0.0
 27
1.0
 37
0.0
 76
1
330
17
  0
LAYOUT
  5
1E
330
D
100
AcDbPlotSettings
  1

  4
A3
  6

 40
7.5
 41
20.0
 42
7.5
 43
20.0
 44
420.0
 45
297.0
 46
0.0
 47
0.0
 48
0.0
 49
0.0
140
0.0
141
0.0
142
1.0
143
1.0
 70
0
 72
1
 73
0
 74
5
  7

 75
16
 76
0
 77
2
 78
300
147
1.0
148
0.0
149
0.0
100
AcDbLayout
  1
Layout1
 70
1
 71
1
 10
0.0
 20
0.0
 11
420.0
 21
297.0
 12
0.0
 22
0.0
 32
0.0
 14
1e+20
 24
1e+20
 34
1e+20
 15
-1e+20
 25
-1e+20
 35
-1e+20
146
0.0
 13
0.0
 23
0.0
 33
0.0
 16
1.0
 26
0.0
 36
0.0
 17
0.0
 27
1.0
 37
0.0
 76
1
330
1B
  0
MATERIAL
  5
1F
102
{ACAD_REACTORS
330
E
102
}
330
E
100
AcDbMaterial
  1
ByBlock
  2

 70
0
 40
1.0
 71
1
 41
1.0
 91
-1023410177
 42
1.0
 72
1
  3

 73
1
 74
1
 75
1
 44
0.5
 73
0
 45
1.0
 46
1.0
 77
1
  4

 78
1
 79
1
170
1
 48
1.0
171
1
  6

172
1
173
1
174
1
140
1.0
141
1.0
175
1
  7

176
1
177
1
178
1
143
1.0
179
1
  8

270
1
271
1
272
1
145
1.0
146
1.0
273
1
  9

274
1
275
1
276
1
 42
1.0
 72
1
  3

 73
1
 74
1
 75
1
 94
63
  0
MATERIAL
  5
20
102
{ACAD_REACTORS
330
E
102
}
330
E
100
AcDbMaterial
  1
ByLayer
  2

 70
0
 40
1.0
 71
1
 41
1.0
 91
-1023410177
 42
1.0
 72
1
  3

 73
1
 74
1
 75
1
 44
0.5
 73
0
 45
1.0
 46
1.0
 77
1
  4

 78
1
 79
1
170
1
 48
1.0
171
1
  6

172
1
173
1
174
1
140
1.0
141
1.0
175
1
  7

176
1
177
1
178
1
143
1.0
179
1
  8

270
1
271
1
272
1
145
1.0
146
1.0
273
1
  9

274
1
275
1
276
1
 42
1.0
 72
1
  3

 73
1
 74
1
 75
1
 94
63
  0
MATERIAL
  5
21
102
{ACAD_REACTORS
330
E
102
}
330
E
100
AcDbMaterial
  1
Global
  2

 70
0
 40
1.0
 71
1
 41
1.0
 91
-1023410177
 42
1.0
 72
1
  3

 73
1
 74
1
 75
1
 44
0.5
 73
0
 45
1.0
 46
1.0
 77
1
  4

 78
1
 79
1
170
1
 48
1.0
171
1
  6

172
1
173
1
174
1
140
1.0
141
1.0
175
1
  7

176
1
177
1
178
1
143
1.0
179
1
  8

270
1
271
1
272
1
145
1.0
146
1.0
273
1
  9

274
1
275
1
276
1
 42
1.0
 72
1
  3

 73
1
 74
1
 75
1
 94
63
  0
MLINESTYLE
  5
22
102
{ACAD_REACTORS
330
10
102
}
330
10
100
AcDbMlineStyle
  2
Standard
 70
0
  3

 62
256
 51
90.0
 52
90.0
 71
2
 49
0.5
 62
256
  6
BYLAYER
 49
-0.5
 62
256
  6
BYLAYER
  0
MLEADERSTYLE
  5
2C
102
{ACAD_REACTORS
330
F
102
}
330
F
100
AcDbMLeaderStyle
179
2
170
2
171
1
172
0
 90
2
 40
0.0
 41
0.0
173
1
 91
-1056964608
 92
-2
290
1
 42
2.0
291
1
 43
8.0
  3
Standard
 44
4.0
300

342
29
174
1
175
1
176
0
178
1
 93
-1056964608
 45
4.0
292
0
297
0
 46
4.0
 94
-1056964608
 47
1.0
 49
1.0
140
1.0
294
1
141
0.0
177
0
142
1.0
295
0
296
0
143
3.75
271
0
272
9
273
9
  0
DICTIONARY
  5
2D
330
A
100
AcDbDictionary
280
1
281
1
  3
CREATED_BY_EZDXF
350
2E
  3
WRITTEN_BY_EZDXF
350
32
  0
DICTIONARYVAR
  5
2E
330
2D
100
DictionaryVariables
280
0
  1
1.3.5 @ 2025-08-18T19:55:48.968738+00:00
  0
DICTIONARYVAR
  5
32
330
2D
100
DictionaryVariables
280
0
  1
1.3.5 @ 2025-08-18T19:55:48.977247+00:00
  0
ENDSEC
  0
EOF
