  0
SECTION
  2
HEADER
  9
$ACADVER
  1
AC1032
  9
$ACADMAINTVER
 90
4
  9
$DWGCODEPAGE
  3
ANSI_1252
  9
$LASTSAVEDBY
  1
ezdxf
  9
$REQUIREDVERSIONS
160
0
  9
$INSBASE
 10
0.0
 20
0.0
 30
0.0
  9
$EXTMIN
 10
1e+20
 20
1e+20
 30
1e+20
  9
$EXTMAX
 10
-1e+20
 20
-1e+20
 30
-1e+20
  9
$LIMMIN
 10
0.0
 20
0.0
  9
$LIMMAX
 10
420.0
 20
297.0
  9
$ORTHOMODE
 70
0
  9
$REGENMODE
 70
1
  9
$FILLMODE
 70
1
  9
$QTEXTMODE
 70
0
  9
$MIRRTEXT
 70
1
  9
$LTSCALE
 40
1.0
  9
$ATTMODE
 70
1
  9
$TEXTSIZE
 40
2.5
  9
$TRACEWID
 40
1.0
  9
$TEXTSTYLE
  7
Standard
  9
$CLAYER
  8
0
  9
$CELTYPE
  6
ByLayer
  9
$CECOLOR
 62
256
  9
$CELTSCALE
 40
1.0
  9
$DISPSILH
 70
0
  9
$DIMSCALE
 40
1.0
  9
$DIMASZ
 40
2.5
  9
$DIMEXO
 40
0.625
  9
$DIMDLI
 40
3.75
  9
$DIMRND
 40
0.0
  9
$DIMDLE
 40
0.0
  9
$DIMEXE
 40
1.25
  9
$DIMTP
 40
0.0
  9
$DIMTM
 40
0.0
  9
$DIMTXT
 40
2.5
  9
$DIMCEN
 40
2.5
  9
$DIMTSZ
 40
0.0
  9
$DIMTOL
 70
0
  9
$DIMLIM
 70
0
  9
$DIMTIH
 70
0
  9
$DIMTOH
 70
0
  9
$DIMSE1
 70
0
  9
$DIMSE2
 70
0
  9
$DIMTAD
 70
1
  9
$DIMZIN
 70
8
  9
$DIMBLK
  1

  9
$DIMASO
 70
1
  9
$DIMSHO
 70
1
  9
$DIMPOST
  1

  9
$DIMAPOST
  1

  9
$DIMALT
 70
0
  9
$DIMALTD
 70
3
  9
$DIMALTF
 40
0.03937007874
  9
$DIMLFAC
 40
1.0
  9
$DIMTOFL
 70
1
  9
$DIMTVP
 40
0.0
  9
$DIMTIX
 70
0
  9
$DIMSOXD
 70
0
  9
$DIMSAH
 70
0
  9
$DIMBLK1
  1

  9
$DIMBLK2
  1

  9
$DIMSTYLE
  2
ISO-25
  9
$DIMCLRD
 70
0
  9
$DIMCLRE
 70
0
  9
$DIMCLRT
 70
0
  9
$DIMTFAC
 40
1.0
  9
$DIMGAP
 40
0.625
  9
$DIMJUST
 70
0
  9
$DIMSD1
 70
0
  9
$DIMSD2
 70
0
  9
$DIMTOLJ
 70
0
  9
$DIMTZIN
 70
8
  9
$DIMALTZ
 70
0
  9
$DIMALTTZ
 70
0
  9
$DIMUPT
 70
0
  9
$DIMDEC
 70
2
  9
$DIMTDEC
 70
2
  9
$DIMALTU
 70
2
  9
$DIMALTTD
 70
3
  9
$DIMTXSTY
  7
Standard
  9
$DIMAUNIT
 70
0
  9
$DIMADEC
 70
0
  9
$DIMALTRND
 40
0.0
  9
$DIMAZIN
 70
0
  9
$DIMDSEP
 70
44
  9
$DIMATFIT
 70
3
  9
$DIMFRAC
 70
0
  9
$DIMLDRBLK
  1

  9
$DIMLUNIT
 70
2
  9
$DIMLWD
 70
-2
  9
$DIMLWE
 70
-2
  9
$DIMTMOVE
 70
0
  9
$DIMFXL
 40
1.0
  9
$DIMFXLON
 70
0
  9
$DIMJOGANG
 40
0.785398163397
  9
$DIMTFILL
 70
0
  9
$DIMTFILLCLR
 70
0
  9
$DIMARCSYM
 70
0
  9
$DIMLTYPE
  6

  9
$DIMLTEX1
  6

  9
$DIMLTEX2
  6

  9
$DIMTXTDIRECTION
 70
0
  9
$LUNITS
 70
2
  9
$LUPREC
 70
4
  9
$SKETCHINC
 40
1.0
  9
$FILLETRAD
 40
10.0
  9
$AUNITS
 70
0
  9
$AUPREC
 70
2
  9
$MENU
  1
.
  9
$ELEVATION
 40
0.0
  9
$PELEVATION
 40
0.0
  9
$THICKNESS
 40
0.0
  9
$LIMCHECK
 70
0
  9
$CHAMFERA
 40
0.0
  9
$CHAMFERB
 40
0.0
  9
$CHAMFERC
 40
0.0
  9
$CHAMFERD
 40
0.0
  9
$SKPOLY
 70
0
  9
$TDCREATE
 40
2460911.034675926
  9
$TDUCREATE
 40
2458532.153996898
  9
$TDUPDATE
 40
2460911.034675926
  9
$TDUUPDATE
 40
2458532.1544311
  9
$TDINDWG
 40
0.0
  9
$TDUSRTIMER
 40
0.0
  9
$USRTIMER
 70
1
  9
$ANGBASE
 50
0.0
  9
$ANGDIR
 70
0
  9
$PDMODE
 70
0
  9
$PDSIZE
 40
0.0
  9
$PLINEWID
 40
0.0
  9
$SPLFRAME
 70
0
  9
$SPLINETYPE
 70
6
  9
$SPLINESEGS
 70
8
  9
$HANDSEED
  5
33
  9
$SURFTAB1
 70
6
  9
$SURFTAB2
 70
6
  9
$SURFTYPE
 70
6
  9
$SURFU
 70
6
  9
$SURFV
 70
6
  9
$UCSBASE
  2

  9
$UCSNAME
  2

  9
$UCSORG
 10
0.0
 20
0.0
 30
0.0
  9
$UCSXDIR
 10
1.0
 20
0.0
 30
0.0
  9
$UCSYDIR
 10
0.0
 20
1.0
 30
0.0
  9
$UCSORTHOREF
  2

  9
$UCSORTHOVIEW
 70
0
  9
$UCSORGTOP
 10
0.0
 20
0.0
 30
0.0
  9
$UCSORGBOTTOM
 10
0.0
 20
0.0
 30
0.0
  9
$UCSORGLEFT
 10
0.0
 20
0.0
 30
0.0
  9
$UCSORGRIGHT
 10
0.0
 20
0.0
 30
0.0
  9
$UCSORGFRONT
 10
0.0
 20
0.0
 30
0.0
  9
$UCSORGBACK
 10
0.0
 20
0.0
 30
0.0
  9
$PUCSBASE
  2

  9
$PUCSNAME
  2

  9
$PUCSORG
 10
0.0
 20
0.0
 30
0.0
  9
$PUCSXDIR
 10
1.0
 20
0.0
 30
0.0
  9
$PUCSYDIR
 10
0.0
 20
1.0
 30
0.0
  9
$PUCSORTHOREF
  2

  9
$PUCSORTHOVIEW
 70
0
  9
$PUCSORGTOP
 10
0.0
 20
0.0
 30
0.0
  9
$PUCSORGBOTTOM
 10
0.0
 20
0.0
 30
0.0
  9
$PUCSORGLEFT
 10
0.0
 20
0.0
 30
0.0
  9
$PUCSORGRIGHT
 10
0.0
 20
0.0
 30
0.0
  9
$PUCSORGFRONT
 10
0.0
 20
0.0
 30
0.0
  9
$PUCSORGBACK
 10
0.0
 20
0.0
 30
0.0
  9
$USERI1
 70
0
  9
$USERI2
 70
0
  9
$USERI3
 70
0
  9
$USERI4
 70
0
  9
$USERI5
 70
0
  9
$USERR1
 40
0.0
  9
$USERR2
 40
0.0
  9
$USERR3
 40
0.0
  9
$USERR4
 40
0.0
  9
$USERR5
 40
0.0
  9
$WORLDVIEW
 70
1
  9
$SHADEDGE
 70
3
  9
$SHADEDIF
 70
70
  9
$TILEMODE
 70
1
  9
$MAXACTVP
 70
64
  9
$PINSBASE
 10
0.0
 20
0.0
 30
0.0
  9
$PLIMCHECK
 70
0
  9
$PEXTMIN
 10
1e+20
 20
1e+20
 30
1e+20
  9
$PEXTMAX
 10
-1e+20
 20
-1e+20
 30
-1e+20
  9
$PLIMMIN
 10
0.0
 20
0.0
  9
$PLIMMAX
 10
420.0
 20
297.0
  9
$UNITMODE
 70
0
  9
$VISRETAIN
 70
1
  9
$PLINEGEN
 70
0
  9
$PSLTSCALE
 70
1
  9
$TREEDEPTH
 70
3020
  9
$CMLSTYLE
  2
Standard
  9
$CMLJUST
 70
0
  9
$CMLSCALE
 40
20.0
  9
$PROXYGRAPHICS
 70
1
  9
$MEASUREMENT
 70
1
  9
$CELWEIGHT
370
-1
  9
$ENDCAPS
280
0
  9
$JOINSTYLE
280
0
  9
$LWDISPLAY
290
0
  9
$INSUNITS
 70
6
  9
$HYPERLINKBASE
  1

  9
$STYLESHEET
  1

  9
$XEDIT
290
1
  9
$CEPSNTYPE
380
0
  9
$PSTYLEMODE
290
1
  9
$FINGERPRINTGUID
  2
{60E4F191-2883-4F9A-B289-F7D6D1369F1F}
  9
$VERSIONGUID
  2
{A16F0062-7DA3-421D-9711-54CEBAB247F7}
  9
$EXTNAMES
290
1
  9
$PSVPSCALE
 40
0.0
  9
$OLESTARTUP
290
0
  9
$SORTENTS
280
127
  9
$INDEXCTL
280
0
  9
$HIDETEXT
280
1
  9
$XCLIPFRAME
280
1
  9
$HALOGAP
280
0
  9
$OBSCOLOR
 70
257
  9
$OBSLTYPE
280
0
  9
$INTERSECTIONDISPLAY
280
0
  9
$INTERSECTIONCOLOR
 70
257
  9
$DIMASSOC
280
2
  9
$PROJECTNAME
  1

  9
$CAMERADISPLAY
290
0
  9
$LENSLENGTH
 40
50.0
  9
$CAMERAHEIGHT
 40
0.0
  9
$STEPSPERSEC
 40
24.0
  9
$STEPSIZE
 40
100.0
  9
$3DDWFPREC
 40
2.0
  9
$PSOLWIDTH
 40
0.005
  9
$PSOLHEIGHT
 40
0.08
  9
$LOFTANG1
 40
1.570796326795
  9
$LOFTANG2
 40
1.570796326795
  9
$LOFTMAG1
 40
0.0
  9
$LOFTMAG2
 40
0.0
  9
$LOFTPARAM
 70
7
  9
$LOFTNORMALS
280
1
  9
$LATITUDE
 40
37.795
  9
$LONGITUDE
 40
-122.394
  9
$NORTHDIRECTION
 40
0.0
  9
$TIMEZONE
 70
-8000
  9
$LIGHTGLYPHDISPLAY
280
1
  9
$TILEMODELIGHTSYNCH
280
1
  9
$CMATERIAL
347
20
  9
$SOLIDHIST
280
0
  9
$SHOWHIST
280
1
  9
$DWFFRAME
280
2
  9
$DGNFRAME
280
2
  9
$REALWORLDSCALE
290
1
  9
$INTERFERECOLOR
 62
256
  9
$CSHADOW
280
0
  9
$SHADOWPLANELOCATION
 40
0.0
  0
ENDSEC
  0
SECTION
  2
CLASSES
  0
CLASS
  1
ACDBDICTIONARYWDFLT
  2
AcDbDictionaryWithDefault
  3
ObjectDBX Classes
 90
0
 91
0
280
0
281
0
  0
CLASS
  1
SUN
  2
AcDbSun
  3
SCENEOE
 90
1153
 91
0
280
0
281
0
  0
CLASS
  1
VISUALSTYLE
  2
AcDbVisualStyle
  3
ObjectDBX Classes
 90
4095
 91
0
280
0
281
0
  0
CLASS
  1
MATERIAL
  2
AcDbMaterial
  3
ObjectDBX Classes
 90
1153
 91
0
280
0
281
0
  0
CLASS
  1
SCALE
  2
AcDbScale
  3
ObjectDBX Classes
 90
1153
 91
0
280
0
281
0
  0
CLASS
  1
TABLESTYLE
  2
AcDbTableStyle
  3
ObjectDBX Classes
 90
4095
 91
0
280
0
281
0
  0
CLASS
  1
MLEADERSTYLE
  2
AcDbMLeaderStyle
  3
ACDB_MLEADERSTYLE_CLASS
 90
4095
 91
0
280
0
281
0
  0
CLASS
  1
DICTIONARYVAR
  2
AcDbDictionaryVar
  3
ObjectDBX Classes
 90
0
 91
0
280
0
281
0
  0
CLASS
  1
CELLSTYLEMAP
  2
AcDbCellStyleMap
  3
ObjectDBX Classes
 90
1152
 91
0
280
0
281
0
  0
CLASS
  1
MENTALRAYRENDERSETTINGS
  2
AcDbMentalRayRenderSettings
  3
SCENEOE
 90
1024
 91
0
280
0
281
0
  0
CLASS
  1
ACDBDETAILVIEWSTYLE
  2
AcDbDetailViewStyle
  3
ObjectDBX Classes
 90
1025
 91
0
280
0
281
0
  0
CLASS
  1
ACDBSECTIONVIEWSTYLE
  2
AcDbSectionViewStyle
  3
ObjectDBX Classes
 90
1025
 91
0
280
0
281
0
  0
CLASS
  1
RASTERVARIABLES
  2
AcDbRasterVariables
  3
ISM
 90
0
 91
0
280
0
281
0
  0
CLASS
  1
LAYOUT
  2
AcDbLayout
  3
ObjectDBX Classes
 90
0
 91
0
280
0
281
0
  0
CLASS
  1
ACDBPLACEHOLDER
  2
AcDbPlaceHolder
  3
ObjectDBX Classes
 90
0
 91
0
280
0
281
0
  0
ENDSEC
  0
SECTION
  2
TABLES
  0
TABLE
  2
VPORT
  5
8
330
0
100
AcDbSymbolTable
 70
1
  0
VPORT
  5
23
330
8
100
AcDbSymbolTableRecord
100
AcDbViewportTableRecord
  2
*Active
 70
0
 10
0.0
 20
0.0
 11
1.0
 21
1.0
 12
0.0
 22
0.0
 13
0.0
 23
0.0
 14
0.5
 24
0.5
 15
0.5
 25
0.5
 16
0.0
 26
0.0
 36
1.0
 17
0.0
 27
0.0
 37
0.0
 40
1000.0
 41
1.34
 42
50.0
 43
0.0
 44
0.0
 50
0.0
 51
0.0
 71
0
 72
1000
 73
1
 74
3
 75
0
 76
0
 77
0
 78
0
281
0
 65
0
146
0.0
  0
ENDTAB
  0
TABLE
  2
LTYPE
  5
2
330
0
100
AcDbSymbolTable
 70
3
  0
LTYPE
  5
24
330
2
100
AcDbSymbolTableRecord
100
AcDbLinetypeTableRecord
  2
ByBlock
 70
0
  3

 72
65
 73
0
 40
0.0
  0
LTYPE
  5
25
330
2
100
AcDbSymbolTableRecord
100
AcDbLinetypeTableRecord
  2
ByLayer
 70
0
  3

 72
65
 73
0
 40
0.0
  0
LTYPE
  5
26
330
2
100
AcDbSymbolTableRecord
100
AcDbLinetypeTableRecord
  2
Continuous
 70
0
  3

 72
65
 73
0
 40
0.0
  0
ENDTAB
  0
TABLE
  2
LAYER
  5
1
330
0
100
AcDbSymbolTable
 70
2
  0
LAYER
  5
27
330
1
100
AcDbSymbolTableRecord
100
AcDbLayerTableRecord
  2
0
 70
0
 62
7
  6
Continuous
370
-3
390
13
347
21
  0
LAYER
  5
28
330
1
100
AcDbSymbolTableRecord
100
AcDbLayerTableRecord
  2
Defpoints
 70
0
 62
7
  6
Continuous
290
0
370
-3
390
13
347
21
  0
ENDTAB
  0
TABLE
  2
STYLE
  5
5
330
0
100
AcDbSymbolTable
 70
1
  0
STYLE
  5
29
330
5
100
AcDbSymbolTableRecord
100
AcDbTextStyleTableRecord
  2
Standard
 70
0
 40
0.0
 41
1.0
 50
0.0
 71
0
 42
2.5
  3
txt
  4

  0
ENDTAB
  0
TABLE
  2
VIEW
  5
7
330
0
100
AcDbSymbolTable
 70
0
  0
ENDTAB
  0
TABLE
  2
UCS
  5
6
330
0
100
AcDbSymbolTable
 70
0
  0
ENDTAB
  0
TABLE
  2
APPID
  5
3
330
0
100
AcDbSymbolTable
 70
3
  0
APPID
  5
2A
330
3
100
AcDbSymbolTableRecord
100
AcDbRegAppTableRecord
  2
ACAD
 70
0
  0
APPID
  5
30
330
3
100
AcDbSymbolTableRecord
100
AcDbRegAppTableRecord
  2
HATCHBACKGROUNDCOLOR
 70
0
  0
APPID
  5
31
330
3
100
AcDbSymbolTableRecord
100
AcDbRegAppTableRecord
  2
EZDXF
 70
0
  0
ENDTAB
  0
TABLE
  2
DIMSTYLE
  5
4
330
0
100
AcDbSymbolTable
 70
1
100
AcDbDimStyleTable
  0
DIMSTYLE
105
2B
330
4
100
AcDbSymbolTableRecord
100
AcDbDimStyleTableRecord
  2
Standard
 70
0
 40
1.0
 41
2.5
 42
0.625
 43
3.75
 44
1.25
 45
0.0
 46
0.0
 47
0.0
 48
0.0
 49
2.5
140
2.5
141
2.5
142
0.0
143
0.03937007874
144
1.0
145
0.0
146
1.0
147
0.625
148
0.0
 69
0
 70
0
 71
0
 72
0
 73
0
 74
0
 75
0
 76
0
 77
1
 78
8
 79
3
170
0
171
3
172
1
173
0
174
0
175
0
176
0
177
0
178
0
179
2
271
2
272
2
273
2
274
3
275
0
276
0
277
2
278
44
279
0
280
0
281
0
282
0
283
0
284
8
285
0
286
0
288
0
289
3
290
0
371
-2
372
-2
  0
ENDTAB
  0
TABLE
  2
BLOCK_RECORD
  5
9
330
0
100
AcDbSymbolTable
 70
2
  0
BLOCK_RECORD
  5
17
330
9
100
AcDbSymbolTableRecord
100
AcDbBlockTableRecord
  2
*Model_Space
340
1A
 70
0
280
1
281
0
  0
BLOCK_RECORD
  5
1B
330
9
100
AcDbSymbolTableRecord
100
AcDbBlockTableRecord
  2
*Paper_Space
340
1E
 70
0
280
1
281
0
  0
ENDTAB
  0
ENDSEC
  0
SECTION
  2
BLOCKS
  0
BLOCK
  5
18
330
17
100
AcDbEntity
  8
0
100
AcDbBlockBegin
  2
*Model_Space
 70
0
 10
0.0
 20
0.0
 30
0.0
  3
*Model_Space
  1

  0
ENDBLK
  5
19
330
17
100
AcDbEntity
  8
0
100
AcDbBlockEnd
  0
BLOCK
  5
1C
330
1B
100
AcDbEntity
  8
0
100
AcDbBlockBegin
  2
*Paper_Space
 70
0
 10
0.0
 20
0.0
 30
0.0
  3
*Paper_Space
  1

  0
ENDBLK
  5
1D
330
1B
100
AcDbEntity
  8
0
100
AcDbBlockEnd
  0
ENDSEC
  0
SECTION
  2
ENTITIES
  0
LWPOLYLINE
  5
2F
330
17
100
AcDbEntity
  8
0
100
AcDbPolyline
 90
722
 70
1
 10
56.65748926272451
 20
6.297460005194885
 10
56.65581222493187
 20
6.297865004591203
 10
56.65079948176662
 20
6.298909887961688
 10
56.64248770942262
 20
6.300255020476473
 10
56.63077370288934
 20
6.30206006643706
 10
56.615854723785205
 20
6.3040904147599255
 10
56.597636733854166
 20
6.306420842282214
 10
56.57604400999729
 20
6.30895652085723
 10
56.55124632274548
 20
6.311717416822084
 10
56.52316794899979
 20
6.3146087020300845
 10
56.49170565622192
 20
6.317790295700041
 10
56.4570475668036
 20
6.321112219295482
 10
56.419108772539545
 20
6.324564702078939
 10
56.37788009749934
 20
6.328232716487208
 10
56.33337989354382
 20
6.331946317646699
 10
56.2855897904603
 20
6.335875620375876
 10
56.234603854032585
 20
6.339945592920279
 10
56.180337176055424
 20
6.344146464542451
 10
56.1227805805984
 20
6.348563207679179
 10
56.062037291023884
 20
6.353035988084091
 10
55.998004056441715
 20
6.357724894920871
 10
55.930699219536784
 20
6.362460068288369
 10
55.860274189803235
 20
6.367431504369724
 10
55.786483473611234
 20
6.372524408681124
 10
55.70958171299325
 20
6.377768858186899
 10
55.629399128242426
 20
6.383144971522369
 10
55.5460205816844
 20
6.388662944287183
 10
55.45944606414326
 20
6.394322861453779
 10
55.369666390512634
 20
6.400209780431389
 10
55.27668153326475
 20
6.4063239561373235
 10
55.18050983508451
 20
6.412495528670428
 10
55.08113293493512
 20
6.41889452787673
 10
54.97864486189674
 20
6.425446261891522
 10
54.872951550185526
 20
6.432225762469259
 10
54.76407131495854
 20
6.439063424626098
 10
54.652070694208426
 20
6.446139133917967
 10
54.53694048447695
 20
6.453538117698973
 10
54.418708195203514
 20
6.461005628603605
 10
54.29727055714608
 20
6.468701925740424
 10
54.172806516765945
 20
6.476562003009748
 10
54.045137090898095
 20
6.484651206401009
 10
53.91443204089747
 20
6.492989587223753
 10
53.78060644938292
 20
6.501567459712956
 10
53.643745187855956
 20
6.510394934495827
 10
53.5037725148658
 20
6.5193773533705475
 10
53.36077330191399
 20
6.528524826964324
 10
53.21464427975852
 20
6.537997614385721
 10
53.06556438568476
 20
6.547730794507495
 10
52.913448702311506
 20
6.557714681564618
 10
52.7582972112869
 20
6.567949445501965
 10
52.60010986673129
 20
6.578435511181715
 10
52.438962382567695
 20
6.589267791723009
 10
52.274778998993426
 20
6.600351798868891
 10
52.10763542075558
 20
6.611782530710934
 10
51.937540777904935
 20
6.623475439674531
 10
51.76451341312634
 20
6.63526066585852
 10
51.58861982770871
 20
6.647318434708584
 10
51.40975676158593
 20
6.659808920360846
 10
51.22792416887834
 20
6.672732547677491
 10
51.04323445805466
 20
6.685844425002908
 10
50.85567841648079
 20
6.699229864663642
 10
50.66525602580484
 20
6.712889036604563
 10
50.471939712355926
 20
6.727077282998243
 10
50.275775328258334
 20
6.741369996578017
 10
50.07682939315276
 20
6.755947232844685
 10
49.875092703581046
 20
6.770894219152354
 10
49.670471157055616
 20
6.7862863271452305
 10
49.46314368168592
 20
6.802058720668504
 10
49.25303452684527
 20
6.818116826492789
 10
49.04014367418177
 20
6.834460814562958
 10
48.82453762498432
 20
6.851270910324693
 10
48.60625304627082
 20
6.868207563920552
 10
48.38518667797515
 20
6.885430949486663
 10
48.161499087170064
 20
6.903046260714249
 10
47.93519024632774
 20
6.921053752520619
 10
47.706193589927814
 20
6.939273794267154
 10
47.47449989616021
 20
6.957791783252832
 10
47.240278926379894
 20
6.976627770787206
 10
47.003427402168924
 20
6.995942100951276
 10
46.76397282379074
 20
7.015480111351965
 10
46.522000053570935
 20
7.035251997588921
 10
46.27750906398177
 20
7.055258014579458
 10
46.03048145728273
 20
7.075668532059346
 10
45.780917205946054
 20
7.0964838049459
 10
45.52882545837436
 20
7.117619115719634
 10
45.274385151853025
 20
7.139009543253303
 10
45.01741727568921
 20
7.160720688453646
 10
44.75800670138448
 20
7.182762661947874
 10
44.496265828231635
 20
7.2048906570528155
 10
44.232100535391254
 20
7.2271802153575475
 10
43.965568166573675
 20
7.2498963647996675
 10
43.69675359328045
 20
7.27304921600639
 10
43.425505323434045
 20
7.296449537546503
 10
43.152020664532536
 20
7.319862293474298
 10
42.876262876150555
 20
7.343627713426704
 10
42.59824110669072
 20
7.367661079884236
 10
42.317946143518924
 20
7.392047705173438
 10
42.03548120082157
 20
7.416627840020366
 10
41.75084626024685
 20
7.441401654369896
 10
41.46395637688571
 20
7.466359717374306
 10
41.17497214533869
 20
7.491606967807512
 10
40.88380863904863
 20
7.51713380487692
 10
40.59056908137792
 20
7.54278039433615
 10
40.29525343562283
 20
7.568547076074951
 10
39.99794658246084
 20
7.594443875748097
 10
39.69855440105257
 20
7.620546334944669
 10
39.39714342021466
 20
7.647034424193031
 10
39.09365621365342
 20
7.673643880307514
 10
38.78833832087835
 20
7.7004890729097495
 10
38.48105659249681
 20
7.727210910667372
 10
38.17180180669873
 20
7.753894790879358
 10
37.86071623375158
 20
7.7808153422759005
 10
37.54779066102124
 20
7.808057877183541
 10
37.23288277236059
 20
7.8353481917342735
 10
36.91635053409969
 20
7.862555593949244
 10
36.5979483608494
 20
7.889566139069007
 10
36.27781850452533
 20
7.916654625768625
 10
35.95586685346399
 20
7.943896510664737
 10
35.63227238165452
 20
7.97122653274036
 10
35.30697768115504
 20
7.998380258864946
 10
34.98004928078225
 20
8.025537659566861
 10
34.65146879197159
 20
8.05286901960945
 10
34.321282076023245
 20
8.079949646753601
 10
33.989498281339856
 20
8.106694823479836
 10
33.65624132632805
 20
8.133549123391932
 10
33.32135053380398
 20
8.160408372467911
 10
32.984986525895934
 20
8.187377254564376
 10
32.64720433983448
 20
8.213946105005425
 10
32.30799477216144
 20
8.240200151145162
 10
31.967339452664127
 20
8.266309507802054
 10
31.625210807671674
 20
8.292529517148674
 10
31.28181537566812
 20
8.318539660967893
 10
30.93701997973305
 20
8.34398110284466
 10
30.591051844218853
 20
8.369137817384443
 10
30.243695208831426
 20
8.39441572010335
 10
29.895071694673604
 20
8.419484607019227
 10
29.54521795958736
 20
8.444005013247072
 10
29.194285495650266
 20
8.468166170218101
 10
28.8420952462898
 20
8.492034103701233
 10
28.488807861162076
 20
8.515713242635764
 10
28.134347571288473
 20
8.539109183737171
 10
27.778817636735113
 20
8.562061752869335
 10
27.42230296570727
 20
8.584580720769724
 10
27.064718604120007
 20
8.606656741563048
 10
26.706234395911686
 20
8.628309101806934
 10
26.34668046044022
 20
8.649518854833506
 10
25.9862082714313
 20
8.670475402018852
 10
25.624827013991254
 20
8.691093685953735
 10
25.262582531068404
 20
8.71094918434393
 10
24.899456452450075
 20
8.730212012007897
 10
24.535609455320145
 20
8.74898634296762
 10
24.170862483106134
 20
8.767338202992015
 10
23.805403731607196
 20
8.785116933765119
 10
23.439242367577837
 20
8.802237647822569
 10
23.072387557772515
 20
8.818615457700005
 10
22.70482091362669
 20
8.83442064816077
 10
22.33661820411897
 20
8.849747622489373
 10
21.967779401721554
 20
8.864596635603128
 10
21.59841696078281
 20
8.878722370984239
 10
21.228455112324163
 20
8.892030425348189
 10
20.857987949657208
 20
8.904445512023218
 10
20.487072880723808
 20
8.916232064139864
 10
20.11559742364779
 20
8.927635653133231
 10
19.74374980175613
 20
8.938505365770041
 10
19.3715184775831
 20
8.948151991708208
 10
18.998848368018432
 20
8.95708562048582
 10
18.625900196125677
 20
8.965410001262669
 10
18.25260734132886
 20
8.97294601323476
 10
17.8789789887343
 20
8.979608598992854
 10
17.505157472841006
 20
8.98567179246009
 10
17.131067043022227
 20
8.99104102040708
 10
16.756820144450415
 20
8.995471051288465
 10
16.382331832216565
 20
8.998952454256525
 10
16.0077628293842
 20
9.001588978471062
 10
15.63310394167106
 20
9.003465766313738
 10
15.258382706044285
 20
9.004327815501734
 10
14.883589928221625
 20
9.004260268416717
 10
14.508801386357597
 20
9.003357443370763
 10
14.133904607751974
 20
9.001864826826546
 10
13.759124537805208
 20
8.999291445858724
 10
13.384461176517302
 20
8.995637300467296
 10
13.009905357133782
 20
8.990987278116627
 10
12.635447885372374
 20
8.98542652118838
 10
12.261182909600294
 20
8.978879233176173
 10
11.887016299802182
 20
8.971421040641516
 10
11.513127130902395
 20
8.962985747870615
 10
11.139533763937676
 20
8.953403325017442
 10
10.766227022977619
 20
8.942758744518793
 10
10.393197741267741
 20
8.931136893839025
 10
10.020455094738466
 20
8.918452800541342
 10
9.64818736177232
 20
8.904555041557847
 10
9.276291227247638
 20
8.889604300859284
 10
8.904833311740388
 20
8.87377969924965
 10
8.533774540817683
 20
8.85664702866969
 10
8.1632664799645
 20
8.838394840771114
 10
7.7932816289174145
 20
8.819277797947008
 10
7.4237625430308505
 20
8.79903180695657
 10
7.054897519039215
 20
8.77750527478703
 10
6.686668214257619
 20
8.754868061339536
 10
6.319008017286021
 20
8.730940960837662
 10
5.95206852113719
 20
8.705912270015807
 10
5.585783123587018
 20
8.679602698125098
 10
5.220312584402738
 20
8.652115654435589
 10
4.855459467623269
 20
8.623687364507099
 10
4.491412069983021
 20
8.594166235326854
 10
4.128207095203624
 20
8.563212377147675
 10
3.765835394882452
 20
8.530910507489041
 10
3.404354404489165
 20
8.49752480456419
 10
3.0437733366578783
 20
8.462969956046578
 10
2.684101376494925
 20
8.427160904526968
 10
2.325423505613046
 20
8.390106740963336
 10
1.9676364088905507
 20
8.351968149326423
 10
1.610806743607142
 20
8.312923910530488
 10
1.2550561859212532
 20
8.272643310758754
 10
0.9004031060455575
 20
8.230956235192755
 10
0.5468291796470228
 20
8.188032373788774
 10
0.19441104741764637
 20
8.143958057449826
 10
-0.15693477657865346
 20
8.098710344710744
 10
-0.5071324683076829
 20
8.052383129021425
 10
-0.8561062312630736
 20
8.005070558749066
 10
-1.2039043341599691
 20
7.95642356821608
 10
-1.5504418045615835
 20
7.906451333352878
 10
-1.8956795496831667
 20
7.855587892273839
 10
-2.2396841901006894
 20
7.80365412417497
 10
-2.582276605010157
 20
7.750583408480289
 10
-2.9236267392851585
 20
7.696357393328979
 10
-3.2635646480521014
 20
7.64099443058186
 10
-3.6020237107350113
 20
7.584673641042927
 10
-3.9391830481378842
 20
7.527461645288162
 10
-4.274911808171884
 20
7.468942757063993
 10
-4.609095101545871
 20
7.409645162852011
 10
-4.941836252557448
 20
7.3497296315954
 10
-5.273165178060972
 20
7.288677152742978
 10
-5.602826960746054
 20
7.226515254085969
 10
-5.930934100840714
 20
7.163489677004352
 10
-6.257495774275356
 20
7.099685393934922
 10
-6.582493629189167
 20
7.034932460004088
 10
-6.905766896638961
 20
6.9693341995094595
 10
-7.227485521498335
 20
6.902872260590225
 10
-7.5475070866849165
 20
6.835819912417585
 10
-7.865813240337895
 20
6.768007210117949
 10
-8.182394806526858
 20
6.69934918125452
 10
-8.497260961182214
 20
6.629930798264094
 10
-8.810345083727984
 20
6.559931181950672
 10
-9.12173214660096
 20
6.489341156383844
 10
-9.431233853066745
 20
6.418009128550838
 10
-9.738850203125331
 20
6.34593509845165
 10
-10.044656993283104
 20
6.273024917719078
 10
-10.348578427033683
 20
6.199372734720327
 10
-10.650642032168289
 20
6.125233466765781
 10
-10.95077201218053
 20
6.050701262222647
 10
-11.24893166334878
 20
5.975436231343741
 10
-11.545205958109833
 20
5.899429198198654
 10
-11.839330803222893
 20
5.822622718141817
 10
-12.131503671352776
 20
5.745253356622798
 10
-12.421733738429891
 20
5.667406086078394
 10
-12.709851059580645
 20
5.589099258369423
 10
-12.995846458874633
 20
5.510247901059085
 10
-13.279777380957423
 20
5.430587920906589
 10
-13.561595557113852
 20
5.350468383589526
 10
-13.84132851513515
 20
5.270144206418278
 10
-14.11884540293247
 20
5.18919970313928
 10
-14.394231192942616
 20
5.1076256978221215
 10
-14.66733429215281
 20
5.0256104872012095
 10
-14.93823967299985
 20
4.943144895346139
 10
-15.206956511414147
 20
4.860313894693702
 10
-15.473372307167669
 20
4.776871743863922
 10
-15.737505412121243
 20
4.692988387730389
 10
-15.999355826274865
 20
4.608663826293104
 10
-16.258960253350168
 20
4.524237949299248
 10
-16.516139572543157
 20
4.439644136172843
 10
-16.771036200936194
 20
4.354609117742687
 10
-17.02354681423166
 20
4.268972125065595
 10
-17.273623143714413
 20
4.183082223819158
 10
-17.52136851368205
 20
4.0971001829465585
 10
-17.766661247976135
 20
4.010695288631022
 10
-18.009434726020707
 20
3.924046661676551
 10
-18.24986806861975
 20
3.837220922659122
 10
-18.487791330899682
 20
3.7502364234395515
 10
-18.723176985069276
 20
3.6628382467074525
 10
-18.956052558919755
 20
3.575281309773214
 10
-19.186427228381536
 20
3.4876505850736272
 10
-19.4142918175242
 20
3.3998611001719024
 10
-19.639561353910953
 20
3.311922030998444
 10
-19.862226661611388
 20
3.223748405116456
 10
-20.08238188899271
 20
3.1354160190323275
 10
-20.299857091181327
 20
3.0469432246068724
 10
-20.51467062003806
 20
2.958499966713685
 10
-20.726974068575675
 20
2.8698979486183576
 10
-20.93651251948379
 20
2.781164698112113
 10
-21.1433617692688
 20
2.6922060668277474
 10
-21.34755852165232
 20
2.603361944512445
 10
-21.549102776634367
 20
2.514632331166203
 10
-21.747891209917317
 20
2.4258564578458417
 10
-21.943914645570764
 20
2.3369493521145626
 10
-22.137248880101104
 20
2.247816865605164
 10
-22.32776984828678
 20
2.158902212362438
 10
-22.51555334663418
 20
2.070111244019184
 10
-22.700581023282492
 20
1.9812740157018074
 10
-22.882767905794914
 20
1.8923997033407187
 10
-23.062132346032257
 20
1.8036582518095083
 10
-23.23865599213372
 20
1.714879716234585
 10
-23.4123480200297
 20
1.626149069052745
 10
-23.58321760565061
 20
1.5375512827007831
 10
-23.75116142469884
 20
1.4489255882355152
 10
-23.916207004965607
 20
1.360526902967331
 10
-24.078402615166077
 20
1.2720061612186382
 10
-24.237699986585092
 20
1.183712428667027
 10
-24.394089943292236
 20
1.0955607328757038
 10
-24.54756330935711
 20
1.00746610140787
 10
-24.698035112342914
 20
0.9194377101939356
 10
-24.845599500616846
 20
0.8315513557402882
 10
-24.990199029533343
 20
0.7440711312877221
 10
-25.131815347231584
 20
0.6568270919626462
 10
-25.27044845371157
 20
0.5698192377650603
 10
-25.406192497340506
 20
0.48312336520135263
 10
-25.53886835731439
 20
0.39667285369554406
 10
-25.66857935793084
 20
0.31062847219081624
 10
-25.795258878613872
 20
0.22516934149116963
 10
-25.918991891800278
 20
0.14028628566619544
 10
-26.039675073192456
 20
0.05581853577271121
 10
-26.157402571157604
 20
-0.028158111682896184
 10
-26.27200444082213
 20
-0.11162530483980973
 10
-26.38366897892044
 20
-0.1944314506852552
 10
-26.49223541650936
 20
-0.27647322492162035
 10
-26.597770374164853
 20
-0.35792974835290425
 10
-26.700273851886934
 20
-0.4388010209791075
 10
-26.799745849675595
 20
-0.5190870428002295
 10
-26.89611974695486
 20
-0.5986086930122716
 10
-26.989395543724736
 20
-0.6773659716152335
 10
-27.079630684630775
 20
-0.7556229718499093
 10
-27.166767725027427
 20
-0.8331156004755057
 10
-27.250769961193043
 20
-0.9101837472392039
 10
-27.331674096849266
 20
-0.9864875223938219
 10
-27.409443428274457
 20
-1.0623668156865416
 10
-27.484096307329438
 20
-1.1376516822437726
 10
-27.555632734014203
 20
-1.2123421220655144
 10
-27.623958559961554
 20
-1.2865139316581542
 10
-27.6892620819059
 20
-1.3600155180089182
 10
-27.751260854745613
 20
-1.4330742706369675
 10
-27.81022814765192
 20
-1.5055477724599362
 10
-27.865984839820804
 20
-1.5775026440538031
 10
-27.9185584590435
 20
-1.6486839681081813
 10
-27.96801562589598
 20
-1.7192708654270707
 10
-28.014280543871863
 20
-1.7891691876432667
 10
-28.057389916692777
 20
-1.8580390450095883
 10
-28.09740118900429
 20
-1.926144530766829
 10
-28.134247740230435
 20
-1.9933065241109906
 10
-28.167947922232017
 20
-2.059355080168481
 10
-28.198538438730672
 20
-2.1239503091921175
 10
-28.2260192897264
 20
-2.187092211181901
 10
-28.25049379951681
 20
-2.248620017194648
 10
-28.271837902880357
 20
-2.308090513185565
 10
-28.29017327597547
 20
-2.365172985337877
 10
-28.305676650543024
 20
-2.4190268852140355
 10
-28.31824231322228
 20
-2.4690390538956555
 10
-28.328102051336568
 20
-2.513859108324416
 10
-28.33548765220922
 20
-2.552136665441995
 10
-28.340449393296435
 20
-2.581814034904481
 10
-28.34330164529521
 20
-2.6007760817223935
 10
-28.286272750355717
 20
-3.144009267960865
 10
-28.284190301605783
 20
-3.148168519559686
 10
-28.27795213128639
 20
-3.160561301919352
 10
-28.267594943119175
 20
-3.180847725292682
 10
-28.252877773850397
 20
-3.210463145174792
 10
-28.233777873815082
 20
-3.2512103345992065
 10
-28.21068741895765
 20
-3.2986615509221466
 10
-28.18380589068397
 20
-3.3501734726725387
 10
-28.153422520962934
 20
-3.404659810032858
 10
-28.11964503189632
 20
-3.4603269658999865
 10
-28.082471034420994
 20
-3.516401012412358
 10
-28.042116353062607
 20
-3.5724754392468085
 10
-27.99853271910598
 20
-3.6282011807257497
 10
-27.95175683627276
 20
-3.683238347101998
 10
-27.901807056423753
 20
-3.737416993501961
 10
-27.848683379558963
 20
-3.790737119925641
 10
-27.792479954045586
 20
-3.8431229298666496
 10
-27.73313015930766
 20
-3.8943953025209868
 10
-27.67062481941476
 20
-3.9446392103254486
 10
-27.605058082734097
 20
-3.9937788567736483
 10
-27.53632662496806
 20
-4.041975010808768
 10
-27.464439622047053
 20
-4.089142699994012
 10
-27.389585370705493
 20
-4.135130331316607
 10
-27.311481425841748
 20
-4.180165294295712
 10
-27.230391880696637
 20
-4.22419014428576
 10
-27.14613761446615
 20
-4.267271501862728
 10
-27.05881277551748
 20
-4.309333570520229
 10
-26.96842653978106
 20
-4.350291377821467
 10
-26.874951379465642
 20
-4.390399841076828
 10
-26.77840564643206
 20
-4.429489015412723
 10
-26.678752636958666
 20
-4.467898790576333
 10
-26.576019878836696
 20
-4.505374249257272
 10
-26.470273992642124
 20
-4.542094512259538
 10
-26.361430005938157
 20
-4.578050403652725
 10
-26.249469566863976
 20
-4.613411868310422
 10
-26.134486823786784
 20
-4.648103109726243
 10
-26.01647260077618
 20
-4.6822091003369835
 10
-25.895426897832152
 20
-4.715729840142641
 10
-25.77123721472669
 20
-4.748911070523199
 10
-25.64408267226379
 20
-4.781686170902673
 10
-25.513802501500262
 20
-4.8139518169834545
 10
-25.38056664730971
 20
-4.845726360626358
 10
-25.24427178539452
 20
-4.877170570774569
 10
-25.10500288819148
 20
-4.908293623358493
 10
-24.962684159194204
 20
-4.939001370010928
 10
-24.81741892270031
 20
-4.96913304178869
 10
-24.66911303034259
 20
-4.998764435198167
 10
-24.517927251064226
 20
-5.02799887453697
 10
-24.36377661242843
 20
-5.056827183874692
 10
-24.20666111443519
 20
-5.085249363211331
 10
-24.046608284875735
 20
-5.113010495236504
 10
-23.883703096186863
 20
-5.140119755880615
 10
-23.71786057593178
 20
-5.166567969213259
 10
-23.549147344686464
 20
-5.192534256038433
 10
-23.37756340245091
 20
-5.218018616356138
 10
-23.203145452946757
 20
-5.242681160419192
 10
-23.025960116749978
 20
-5.266701009031594
 10
-22.84593159735419
 20
-5.289984013826139
 10
-22.66305071882899
 20
-5.312615147239626
 10
-22.477402453611163
 20
-5.3346035852024585
 10
-22.28899597763112
 20
-5.355864355277847
 10
-22.09782211495846
 20
-5.3764824299025795
 10
-21.903880865593177
 20
-5.396457809076662
 10
-21.707181405465676
 20
-5.415705520363296
 10
-21.507799531082345
 20
-5.434319712129688
 10
-21.305735242443195
 20
-5.452300384375834
 10
-21.100912743041828
 20
-5.469553388734534
 10
-20.893483625891026
 20
-5.4862670219401934
 10
-20.683372094484394
 20
-5.502347135625608
 10
-20.470568972891524
 20
-5.517878702227575
 10
-20.255168409479623
 20
-5.532785925239707
 10
-20.037197932039916
 20
-5.546813887351616
 10
-19.816630012781182
 20
-5.5602175058736885
 10
-19.593361327405805
 20
-5.5731575497491095
 10
-19.367655969154573
 20
-5.585576574332308
 10
-19.139362345014725
 20
-5.597286282888873
 10
-18.90848963091666
 20
-5.6082017029820115
 10
-18.675189419873156
 20
-5.61851113134613
 10
-18.43936756351701
 20
-5.6282903644876185
 10
-18.20104241370903
 20
-5.637369457532883
 10
-17.960298942886023
 20
-5.645757586412333
 10
-17.71714632697839
 20
-5.653369778689171
 10
-17.471557038194913
 20
-5.660460951673786
 10
-17.223549428396403
 20
-5.666861160492586
 10
-16.973105145722045
 20
-5.672740350019163
 10
-16.72042166283665
 20
-5.677861954803945
 10
-16.465319858936226
 20
-5.682292595422912
 10
-16.20788470645757
 20
-5.686041447806472
 10
-15.948192001907058
 20
-5.68920266032183
 10
-15.686175124708722
 20
-5.691597112164985
 10
-15.42190069543854
 20
-5.693403924139937
 10
-15.155462862463706
 20
-5.694547299740299
 10
-14.88671003277146
 20
-5.694838942231663
 10
-14.615812151235382
 20
-5.694297203474846
 10
-14.34274169006425
 20
-5.693177000780232
 10
-14.067498649258066
 20
-5.691478334147825
 10
-13.790083028816827
 20
-5.689201203577623
 10
-13.510607328968558
 20
-5.686099867689648
 10
-13.22908990157407
 20
-5.682004381610306
 10
-12.945409070474941
 20
-5.677245459156375
 10
-12.659734780544756
 20
-5.67184145218867
 10
-12.372000411207535
 20
-5.665613239903192
 10
-12.082309286760898
 20
-5.6584000533567576
 10
-11.790633879413614
 20
-5.650456809859752
 10
-11.49704080974166
 20
-5.6419626302161765
 10
-11.201463457169066
 20
-5.632738393622032
 10
-10.903929349487049
 20
-5.622529182766931
 10
-10.604590079708382
 20
-5.6115232943852815
 10
-10.303436471902664
 20
-5.599805700913877
 10
-10.0002985811963
 20
-5.587358050491904
 10
-9.695440500830086
 20
-5.57412289847379
 10
-9.388795610228048
 20
-5.559921124055535
 10
-9.08036390939017
 20
-5.5447527272371415
 10
-8.770221194822852
 20
-5.528711856385809
 10
-8.458321586874057
 20
-5.51222337368552
 10
-8.144777585771791
 20
-5.495041537756294
 10
-7.829540922800903
 20
-5.47681728292054
 10
-7.512602422030983
 20
-5.457635581615055
 10
-7.194132028335616
 20
-5.437514785700653
 10
-6.87400806555638
 20
-5.41678560899411
 10
-6.552333857990882
 20
-5.395287282552242
 10
-6.229109405639125
 20
-5.37301980637505
 10
-5.904353060361927
 20
-5.349813235588942
 10
-5.5780556462288775
 20
-5.325752542630715
 10
-5.250368756252754
 20
-5.301026024234775
 10
-4.921140797420778
 20
-5.275445383666715
 10
-4.590560066467356
 20
-5.248859027913759
 10
-4.258617387462082
 20
-5.221351929412704
 10
-3.9253035844745483
 20
-5.193009060600346
 10
-3.590542860998369
 20
-5.163736273109481
 10
-3.2546084862047495
 20
-5.13339114985774
 10
-2.917424663587291
 20
-5.101879542477923
 10
-2.5788513651267584
 20
-5.069702109660391
 10
-2.2390677116271496
 20
-5.03679223082917
 10
-1.8982137311077072
 20
-5.00264924729389
 10
-1.55609195090362
 20
-4.967509724504124
 10
-1.2127781675212697
 20
-4.931467810827074
 10
-0.8684606776950666
 20
-4.894371913249968
 10
-0.5229787124818285
 20
-4.856118707475191
 10
-0.1765022167551423
 20
-4.816726545363561
 10
0.17109048564341128
 20
-4.776526140731851
 10
0.5196960704162259
 20
-4.735356724636879
 10
0.8691836854744742
 20
-4.692802610825074
 10
1.2196658310461568
 20
-4.649109540676417
 10
1.57109423841613
 20
-4.604626579868497
 10
1.9233564348841503
 20
-4.559108241938645
 10
2.2765297034573426
 20
-4.512474144054419
 10
2.630548267745313
 20
-4.4649112244840055
 10
2.985375451554228
 20
-4.416079848397528
 10
3.341011273235951
 20
-4.365980185739864
 10
3.697407464075315
 20
-4.314961302188602
 10
4.054488264269653
 20
-4.263117686000695
 10
4.41232947950129
 20
-4.2103552737813725
 10
4.770818618718121
 20
-4.156428409123096
 10
5.129974042956902
 20
-4.101507121871893
 10
5.4897957889213655
 20
-4.045591751917509
 10
5.850198874998766
 20
-3.988691390217916
 10
6.211155800925682
 20
-3.93055137438004
 10
6.572684918562931
 20
-3.8713416492774675
 10
6.934652986758551
 20
-3.8114204565182015
 10
7.297220811159437
 20
-3.7506848116943754
 10
7.660190909924858
 20
-3.688898064383982
 10
8.023657449773872
 20
-3.6261361810382833
 10
8.387450485832892
 20
-3.5624175135180933
 10
8.751664175645043
 20
-3.497817943302239
 10
9.116289352455853
 20
-3.432252582926361
 10
9.481165247322139
 20
-3.3658247566880704
 10
9.846395184541517
 20
-3.298695233530548
 10
10.21197001571136
 20
-3.230779295934314
 10
10.577710592499889
 20
-3.1620100684060755
 10
10.943711081626157
 20
-3.0924635173970922
 10
11.309904862514198
 20
-3.022318763711366
 10
11.67634021305509
 20
-2.951226826643743
 10
12.042865521884213
 20
-2.879375832983754
 10
12.409499140862371
 20
-2.806935727604995
 10
12.776231903235093
 20
-2.7338216230431023
 10
13.143045457141557
 20
-2.65986357442449
 10
13.509958163618517
 20
-2.585231611595181
 10
13.876818383773532
 20
-2.510113606427403
 10
14.243692756534465
 20
-2.434330608062027
 10
14.61052383725573
 20
-2.3581467097398496
 10
14.977284079794243
 20
-2.2813068242056103
 10
15.343964317395528
 20
-2.2037260639949494
 10
15.710582901920393
 20
-2.1255743739814608
 10
16.0769973612309
 20
-2.047124513501724
 10
16.443292695291632
 20
-1.9683675615426413
 10
16.809356385522715
 20
-1.889057606779362
 10
17.175197589502684
 20
-1.809279451703807
 10
17.540816316407472
 20
-1.7290331812884139
 10
17.906221723815637
 20
-1.6484035980251037
 10
18.271234645043517
 20
-1.5673236564757138
 10
18.635949255986116
 20
-1.4858694080639419
 10
19.000289705081446
 20
-1.404134491322372
 10
19.36435936250679
 20
-1.322280100056369
 10
19.72795149708353
 20
-1.239983931627639
 10
20.091075293918035
 20
-1.1573310434454103
 10
20.45386160509912
 20
-1.074737121763255
 10
20.816085384291096
 20
-0.9917102589590322
 10
21.17773742803577
 20
-0.9081652276786347
 10
21.538957791880172
 20
-0.8246029415297388
 10
21.899594809404075
 20
-0.7412110174672585
 10
22.259678415813703
 20
-0.6574706148848842
 10
22.61913277789893
 20
-0.5734755422600738
 10
22.977872868167406
 20
-0.4892344656886132
 10
23.336002038444505
 20
-0.40490840903099745
 10
23.6934444463442
 20
-0.32059109579224554
 10
24.050209240269112
 20
-0.2363672434918421
 10
24.406193068393822
 20
-0.15207582826929536
 10
24.761377542153802
 20
-0.0675465653612658
 10
25.115790180164357
 20
0.01696571289429739
 10
25.469430973249537
 20
0.10146109146982975
 10
25.82213905153094
 20
0.18583718076452396
 10
26.174084424113662
 20
0.27011173783213954
 10
26.525069526573585
 20
0.35452217784661477
 10
26.875103516489254
 20
0.4389836983160269
 10
27.224232236808984
 20
0.5230717769461456
 10
27.572446520778318
 20
0.6068713012013304
 10
27.919557952375726
 20
0.6905349687360335
 10
28.26574571663674
 20
0.773995564167219
 10
28.61083059182211
 20
0.8573206427676691
 10
28.95489756872051
 20
0.9405192105229198
 10
29.297879962524448
 20
1.0234127414360306
 10
29.639692736565593
 20
1.1059926543836478
 10
29.980439242669373
 20
1.188097925505281
 10
30.319921888883847
 20
1.2699662248921764
 10
30.658310684314156
 20
1.351615309598095
 10
30.995426407221046
 20
1.4331127348958186
 10
31.331324067307307
 20
1.5139490910267588
 10
31.665918637080576
 20
1.5941157118951292
 10
31.99932507006349
 20
1.6741401891754593
 10
32.33127910784854
 20
1.7540814970171863
 10
32.66202416698406
 20
1.8332776129797017
 10
32.99138101655492
 20
1.9117961773082268
 10
33.319312906959794
 20
1.9899775046121273
 10
33.64581981984686
 20
2.0678217648362787
 10
33.970910903618694
 20
2.1452442404611927
 10
34.29463201957551
 20
2.2218202392477675
 10
34.61679472416801
 20
2.297702713767767
 10
34.93754152623785
 20
2.3731640834680228
 10
35.256702334096566
 20
2.4481873560467133
 10
35.574295472077175
 20
2.522602841547552
 10
35.89033927368863
 20
2.5962407650418244
 10
36.20481535036641
 20
2.669271411292868
 10
36.517638637914395
 20
2.7416864540946406
 10
36.82891249733394
 20
2.813324784614217
 10
37.13846683693655
 20
2.8841694105497653
 10
37.44635913807151
 20
2.9544840852523335
 10
37.7524192906985
 20
3.0242519863649684
 10
38.05692071997952
 20
3.093329252273878
 10
38.35954161275032
 20
3.161511783556945
 10
38.66045201481972
 20
3.228816997378176
 10
38.95964271355356
 20
3.2953302060641168
 10
39.25692526540257
 20
3.3612043621865286
 10
39.552308800417514
 20
3.426354918170803
 10
39.845972531161685
 20
3.490714403716591
 10
40.137670514384624
 20
3.5541721879894816
 10
40.42750609273582
 20
3.6165673321014182
 10
40.71536667422795
 20
3.6781464271567494
 10
41.001328082895185
 20
3.739003366605367
 10
41.28531443047183
 20
3.7990448518044353
 10
41.56732568025416
 20
3.8582712226436997
 10
41.8473042866614
 20
3.916419320579174
 10
42.125307740218744
 20
3.9737528139894676
 10
42.40117509764032
 20
4.030169993053265
 10
42.674973007029934
 20
4.085849723657258
 10
42.94672897782692
 20
4.140537258435932
 10
43.216367103413745
 20
4.194139468691326
 10
43.48385981929545
 20
4.246911611623573
 10
43.74920709794426
 20
4.298853942149984
 10
44.012408902656425
 20
4.349966800160306
 10
44.27331347525245
 20
4.4000634184239935
 10
44.53210921340197
 20
4.448991269231467
 10
44.7886651640809
 20
4.497166973533102
 10
45.04290542984764
 20
4.5444973176584975
 10
45.29491501066678
 20
4.590991222620754
 10
45.54462718502708
 20
4.636470502312674
 10
45.79194770362611
 20
4.6810118879374505
 10
46.037037445518216
 20
4.724717684123456
 10
46.27975381010244
 20
4.767316321148221
 10
46.52007841799017
 20
4.808977998802648
 10
46.758020417584
 20
4.8496179995672515
 10
46.993552235213095
 20
4.889491665614603
 10
47.226692195210425
 20
4.928429306988419
 10
47.45735521502808
 20
4.966422767427536
 10
47.68555044306865
 20
5.003387329412468
 10
47.91135372171818
 20
5.039416716448234
 10
48.13458574665406
 20
5.07457924855955
 10
48.355246471996665
 20
5.108875350608601
 10
48.57343010116873
 20
5.142228716254376
 10
48.789145819276655
 20
5.174554288087644
 10
49.002196162831495
 20
5.20608854658554
 10
49.21266531514004
 20
5.236847975308032
 10
49.42058169405881
 20
5.2665694146183695
 10
49.6258507107759
 20
5.295332739699903
 10
49.82845399507866
 20
5.323308065371101
 10
50.028494917144336
 20
5.350334197826592
 10
50.2258125153352
 20
5.3763095971899375
 10
50.420473456106905
 20
5.401412959402956
 10
50.61246853600122
 20
5.425729511819749
 10
50.801712681646144
 20
5.449251013206717
 10
50.9882242173747
 20
5.471807773607578
 10
51.17199392137681
 20
5.493485190321309
 10
51.35300342343981
 20
5.514453378166379
 10
51.531261862790394
 20
5.534627704595738
 10
51.706702527093256
 20
5.553829898529754
 10
51.879325370468756
 20
5.572060384830609
 10
52.049178725863584
 20
5.58966763436884
 10
52.21618667748422
 20
5.606558603418917
 10
52.380349216154784
 20
5.622733376953284
 10
52.541675471926
 20
5.638107407397324
 10
52.70008038060176
 20
5.652672368544995
 10
52.85564895132259
 20
5.666437096436963
 10
53.008277777207525
 20
5.679563124768339
 10
53.157985164237715
 20
5.691880933527716
 10
53.30475274220048
 20
5.703560637533561
 10
53.448683890449004
 20
5.714440958008067
 10
53.58959012873029
 20
5.724675187412748
 10
53.72754730860629
 20
5.734356964280183
 10
53.86247953263541
 20
5.743393074939978
 10
53.994481004240406
 20
5.75170721305112
 10
54.12344822478102
 20
5.759461762033097
 10
54.24948452773076
 20
5.766495867970281
 10
54.37239283498983
 20
5.773042442497468
 10
54.49235168010269
 20
5.779040303274629
 10
54.60919120995506
 20
5.784470248716581
 10
54.72299645203931
 20
5.789340944919113
 10
54.833767388003565
 20
5.793652561827097
 10
54.94149481438965
 20
5.797490326794638
 10
55.04610285210777
 20
5.800760856206463
 10
55.14757311259341
 20
5.803634434825915
 10
55.24599982679717
 20
5.80603450139467
 10
55.34128872706471
 20
5.808037957060797
 10
55.43344898015053
 20
5.809559914359937
 10
55.522471400948284
 20
5.810685430701321
 10
55.608365137860595
 20
5.811329788565465
 10
55.69112100578111
 20
5.811578045361601
 10
55.77072064367311
 20
5.811600230935755
 10
55.847097320849414
 20
5.811218244153172
 10
55.92041197141998
 20
5.810533879807601
 10
55.99040022686611
 20
5.809607131717718
 10
56.05732642817867
 20
5.8083782609821535
 10
56.12102044696551
 20
5.806830615188833
 10
56.18146392218987
 20
5.8051342241837816
 10
56.23875107562639
 20
5.8032126116811185
 10
56.29279683390303
 20
5.801057536447239
 10
56.34358284515902
 20
5.7988389433557375
 10
56.391212497923426
 20
5.796395468656368
 10
56.43558238531529
 20
5.793888646044249
 10
56.47670166491317
 20
5.791233673027456
 10
56.514551984856226
 20
5.788600494479582
 10
56.549142521074884
 20
5.785904137963832
 10
56.58054913430705
 20
5.78323815704035
 10
56.60860170533642
 20
5.7805858143246205
 10
56.633376122428714
 20
5.7780404084594785
 10
56.654957431428166
 20
5.775610435595837
 10
56.67317551311851
 20
5.7732791583491805
 10
56.688097061483155
 20
5.771225017744013
 10
56.699816335000484
 20
5.769371197604705
 10
56.70814482588969
 20
5.767871245310078
 10
56.71315844994426
 20
5.766818204585661
 10
56.714838827775566
 20
5.766382275222349
 10
56.65748926272451
 20
6.297460005194885
  0
ENDSEC
  0
SECTION
  2
OBJECTS
  0
DICTIONARY
  5
A
330
0
100
AcDbDictionary
280
0
281
1
  3
ACAD_COLOR
350
B
  3
ACAD_GROUP
350
C
  3
ACAD_LAYOUT
350
D
  3
ACAD_MATERIAL
350
E
  3
ACAD_MLEADERSTYLE
350
F
  3
ACAD_MLINESTYLE
350
10
  3
ACAD_PLOTSETTINGS
350
11
  3
ACAD_PLOTSTYLENAME
350
12
  3
ACAD_SCALELIST
350
14
  3
ACAD_TABLESTYLE
350
15
  3
ACAD_VISUALSTYLE
350
16
  3
EZDXF_META
350
2D
  0
DICTIONARY
  5
B
330
A
100
AcDbDictionary
280
0
281
1
  0
DICTIONARY
  5
C
330
A
100
AcDbDictionary
280
0
281
1
  0
DICTIONARY
  5
D
330
A
100
AcDbDictionary
280
0
281
1
  3
Model
350
1A
  3
Layout1
350
1E
  0
DICTIONARY
  5
E
330
A
100
AcDbDictionary
280
0
281
1
  3
ByBlock
350
1F
  3
ByLayer
350
20
  3
Global
350
21
  0
DICTIONARY
  5
F
330
A
100
AcDbDictionary
280
0
281
1
  3
Standard
350
2C
  0
DICTIONARY
  5
10
330
A
100
AcDbDictionary
280
0
281
1
  3
Standard
350
22
  0
DICTIONARY
  5
11
330
A
100
AcDbDictionary
280
0
281
1
  0
ACDBDICTIONARYWDFLT
  5
12
330
A
100
AcDbDictionary
280
0
281
1
  3
Normal
350
13
100
AcDbDictionaryWithDefault
340
13
  0
ACDBPLACEHOLDER
  5
13
330
12
  0
DICTIONARY
  5
14
330
A
100
AcDbDictionary
280
0
281
1
  0
DICTIONARY
  5
15
330
A
100
AcDbDictionary
280
0
281
1
  0
DICTIONARY
  5
16
330
A
100
AcDbDictionary
280
0
281
1
  0
LAYOUT
  5
1A
330
D
100
AcDbPlotSettings
  1

  4
A3
  6

 40
7.5
 41
20.0
 42
7.5
 43
20.0
 44
420.0
 45
297.0
 46
0.0
 47
0.0
 48
0.0
 49
0.0
140
0.0
141
0.0
142
1.0
143
1.0
 70
1024
 72
1
 73
0
 74
5
  7

 75
16
 76
0
 77
2
 78
300
147
1.0
148
0.0
149
0.0
100
AcDbLayout
  1
Model
 70
1
 71
0
 10
0.0
 20
0.0
 11
420.0
 21
297.0
 12
0.0
 22
0.0
 32
0.0
 14
1e+20
 24
1e+20
 34
1e+20
 15
-1e+20
 25
-1e+20
 35
-1e+20
146
0.0
 13
0.0
 23
0.0
 33
0.0
 16
1.0
 26
0.0
 36
0.0
 17
0.0
 27
1.0
 37
0.0
 76
1
330
17
  0
LAYOUT
  5
1E
330
D
100
AcDbPlotSettings
  1

  4
A3
  6

 40
7.5
 41
20.0
 42
7.5
 43
20.0
 44
420.0
 45
297.0
 46
0.0
 47
0.0
 48
0.0
 49
0.0
140
0.0
141
0.0
142
1.0
143
1.0
 70
0
 72
1
 73
0
 74
5
  7

 75
16
 76
0
 77
2
 78
300
147
1.0
148
0.0
149
0.0
100
AcDbLayout
  1
Layout1
 70
1
 71
1
 10
0.0
 20
0.0
 11
420.0
 21
297.0
 12
0.0
 22
0.0
 32
0.0
 14
1e+20
 24
1e+20
 34
1e+20
 15
-1e+20
 25
-1e+20
 35
-1e+20
146
0.0
 13
0.0
 23
0.0
 33
0.0
 16
1.0
 26
0.0
 36
0.0
 17
0.0
 27
1.0
 37
0.0
 76
1
330
1B
  0
MATERIAL
  5
1F
102
{ACAD_REACTORS
330
E
102
}
330
E
100
AcDbMaterial
  1
ByBlock
  2

 70
0
 40
1.0
 71
1
 41
1.0
 91
-1023410177
 42
1.0
 72
1
  3

 73
1
 74
1
 75
1
 44
0.5
 73
0
 45
1.0
 46
1.0
 77
1
  4

 78
1
 79
1
170
1
 48
1.0
171
1
  6

172
1
173
1
174
1
140
1.0
141
1.0
175
1
  7

176
1
177
1
178
1
143
1.0
179
1
  8

270
1
271
1
272
1
145
1.0
146
1.0
273
1
  9

274
1
275
1
276
1
 42
1.0
 72
1
  3

 73
1
 74
1
 75
1
 94
63
  0
MATERIAL
  5
20
102
{ACAD_REACTORS
330
E
102
}
330
E
100
AcDbMaterial
  1
ByLayer
  2

 70
0
 40
1.0
 71
1
 41
1.0
 91
-1023410177
 42
1.0
 72
1
  3

 73
1
 74
1
 75
1
 44
0.5
 73
0
 45
1.0
 46
1.0
 77
1
  4

 78
1
 79
1
170
1
 48
1.0
171
1
  6

172
1
173
1
174
1
140
1.0
141
1.0
175
1
  7

176
1
177
1
178
1
143
1.0
179
1
  8

270
1
271
1
272
1
145
1.0
146
1.0
273
1
  9

274
1
275
1
276
1
 42
1.0
 72
1
  3

 73
1
 74
1
 75
1
 94
63
  0
MATERIAL
  5
21
102
{ACAD_REACTORS
330
E
102
}
330
E
100
AcDbMaterial
  1
Global
  2

 70
0
 40
1.0
 71
1
 41
1.0
 91
-1023410177
 42
1.0
 72
1
  3

 73
1
 74
1
 75
1
 44
0.5
 73
0
 45
1.0
 46
1.0
 77
1
  4

 78
1
 79
1
170
1
 48
1.0
171
1
  6

172
1
173
1
174
1
140
1.0
141
1.0
175
1
  7

176
1
177
1
178
1
143
1.0
179
1
  8

270
1
271
1
272
1
145
1.0
146
1.0
273
1
  9

274
1
275
1
276
1
 42
1.0
 72
1
  3

 73
1
 74
1
 75
1
 94
63
  0
MLINESTYLE
  5
22
102
{ACAD_REACTORS
330
10
102
}
330
10
100
AcDbMlineStyle
  2
Standard
 70
0
  3

 62
256
 51
90.0
 52
90.0
 71
2
 49
0.5
 62
256
  6
BYLAYER
 49
-0.5
 62
256
  6
BYLAYER
  0
MLEADERSTYLE
  5
2C
102
{ACAD_REACTORS
330
F
102
}
330
F
100
AcDbMLeaderStyle
179
2
170
2
171
1
172
0
 90
2
 40
0.0
 41
0.0
173
1
 91
-1056964608
 92
-2
290
1
 42
2.0
291
1
 43
8.0
  3
Standard
 44
4.0
300

342
29
174
1
175
1
176
0
178
1
 93
-1056964608
 45
4.0
292
0
297
0
 46
4.0
 94
-1056964608
 47
1.0
 49
1.0
140
1.0
294
1
141
0.0
177
0
142
1.0
295
0
296
0
143
3.75
271
0
272
9
273
9
  0
DICTIONARY
  5
2D
330
A
100
AcDbDictionary
280
1
281
1
  3
CREATED_BY_EZDXF
350
2E
  3
WRITTEN_BY_EZDXF
350
32
  0
DICTIONARYVAR
  5
2E
330
2D
100
DictionaryVariables
280
0
  1
1.3.5 @ 2025-08-22T23:49:56.807167+00:00
  0
DICTIONARYVAR
  5
32
330
2D
100
DictionaryVariables
280
0
  1
1.3.5 @ 2025-08-22T23:49:56.823085+00:00
  0
ENDSEC
  0
EOF
