  0
SECTION
  2
HEADER
  9
$ACADVER
  1
AC1032
  9
$ACADMAINTVER
 90
4
  9
$DWGCODEPAGE
  3
ANSI_1252
  9
$LASTSAVEDBY
  1
ezdxf
  9
$REQUIREDVERSIONS
160
0
  9
$INSBASE
 10
0.0
 20
0.0
 30
0.0
  9
$EXTMIN
 10
1e+20
 20
1e+20
 30
1e+20
  9
$EXTMAX
 10
-1e+20
 20
-1e+20
 30
-1e+20
  9
$LIMMIN
 10
0.0
 20
0.0
  9
$LIMMAX
 10
420.0
 20
297.0
  9
$ORTHOMODE
 70
0
  9
$REGENMODE
 70
1
  9
$FILLMODE
 70
1
  9
$QTEXTMODE
 70
0
  9
$MIRRTEXT
 70
1
  9
$LTSCALE
 40
1.0
  9
$ATTMODE
 70
1
  9
$TEXTSIZE
 40
2.5
  9
$TRACEWID
 40
1.0
  9
$TEXTSTYLE
  7
Standard
  9
$CLAYER
  8
0
  9
$CELTYPE
  6
ByLayer
  9
$CECOLOR
 62
256
  9
$CELTSCALE
 40
1.0
  9
$DISPSILH
 70
0
  9
$DIMSCALE
 40
1.0
  9
$DIMASZ
 40
2.5
  9
$DIMEXO
 40
0.625
  9
$DIMDLI
 40
3.75
  9
$DIMRND
 40
0.0
  9
$DIMDLE
 40
0.0
  9
$DIMEXE
 40
1.25
  9
$DIMTP
 40
0.0
  9
$DIMTM
 40
0.0
  9
$DIMTXT
 40
2.5
  9
$DIMCEN
 40
2.5
  9
$DIMTSZ
 40
0.0
  9
$DIMTOL
 70
0
  9
$DIMLIM
 70
0
  9
$DIMTIH
 70
0
  9
$DIMTOH
 70
0
  9
$DIMSE1
 70
0
  9
$DIMSE2
 70
0
  9
$DIMTAD
 70
1
  9
$DIMZIN
 70
8
  9
$DIMBLK
  1

  9
$DIMASO
 70
1
  9
$DIMSHO
 70
1
  9
$DIMPOST
  1

  9
$DIMAPOST
  1

  9
$DIMALT
 70
0
  9
$DIMALTD
 70
3
  9
$DIMALTF
 40
0.03937007874
  9
$DIMLFAC
 40
1.0
  9
$DIMTOFL
 70
1
  9
$DIMTVP
 40
0.0
  9
$DIMTIX
 70
0
  9
$DIMSOXD
 70
0
  9
$DIMSAH
 70
0
  9
$DIMBLK1
  1

  9
$DIMBLK2
  1

  9
$DIMSTYLE
  2
ISO-25
  9
$DIMCLRD
 70
0
  9
$DIMCLRE
 70
0
  9
$DIMCLRT
 70
0
  9
$DIMTFAC
 40
1.0
  9
$DIMGAP
 40
0.625
  9
$DIMJUST
 70
0
  9
$DIMSD1
 70
0
  9
$DIMSD2
 70
0
  9
$DIMTOLJ
 70
0
  9
$DIMTZIN
 70
8
  9
$DIMALTZ
 70
0
  9
$DIMALTTZ
 70
0
  9
$DIMUPT
 70
0
  9
$DIMDEC
 70
2
  9
$DIMTDEC
 70
2
  9
$DIMALTU
 70
2
  9
$DIMALTTD
 70
3
  9
$DIMTXSTY
  7
Standard
  9
$DIMAUNIT
 70
0
  9
$DIMADEC
 70
0
  9
$DIMALTRND
 40
0.0
  9
$DIMAZIN
 70
0
  9
$DIMDSEP
 70
44
  9
$DIMATFIT
 70
3
  9
$DIMFRAC
 70
0
  9
$DIMLDRBLK
  1

  9
$DIMLUNIT
 70
2
  9
$DIMLWD
 70
-2
  9
$DIMLWE
 70
-2
  9
$DIMTMOVE
 70
0
  9
$DIMFXL
 40
1.0
  9
$DIMFXLON
 70
0
  9
$DIMJOGANG
 40
0.785398163397
  9
$DIMTFILL
 70
0
  9
$DIMTFILLCLR
 70
0
  9
$DIMARCSYM
 70
0
  9
$DIMLTYPE
  6

  9
$DIMLTEX1
  6

  9
$DIMLTEX2
  6

  9
$DIMTXTDIRECTION
 70
0
  9
$LUNITS
 70
2
  9
$LUPREC
 70
4
  9
$SKETCHINC
 40
1.0
  9
$FILLETRAD
 40
10.0
  9
$AUNITS
 70
0
  9
$AUPREC
 70
2
  9
$MENU
  1
.
  9
$ELEVATION
 40
0.0
  9
$PELEVATION
 40
0.0
  9
$THICKNESS
 40
0.0
  9
$LIMCHECK
 70
0
  9
$CHAMFERA
 40
0.0
  9
$CHAMFERB
 40
0.0
  9
$CHAMFERC
 40
0.0
  9
$CHAMFERD
 40
0.0
  9
$SKPOLY
 70
0
  9
$TDCREATE
 40
2460911.034675926
  9
$TDUCREATE
 40
2458532.153996898
  9
$TDUPDATE
 40
2460911.034675926
  9
$TDUUPDATE
 40
2458532.1544311
  9
$TDINDWG
 40
0.0
  9
$TDUSRTIMER
 40
0.0
  9
$USRTIMER
 70
1
  9
$ANGBASE
 50
0.0
  9
$ANGDIR
 70
0
  9
$PDMODE
 70
0
  9
$PDSIZE
 40
0.0
  9
$PLINEWID
 40
0.0
  9
$SPLFRAME
 70
0
  9
$SPLINETYPE
 70
6
  9
$SPLINESEGS
 70
8
  9
$HANDSEED
  5
33
  9
$SURFTAB1
 70
6
  9
$SURFTAB2
 70
6
  9
$SURFTYPE
 70
6
  9
$SURFU
 70
6
  9
$SURFV
 70
6
  9
$UCSBASE
  2

  9
$UCSNAME
  2

  9
$UCSORG
 10
0.0
 20
0.0
 30
0.0
  9
$UCSXDIR
 10
1.0
 20
0.0
 30
0.0
  9
$UCSYDIR
 10
0.0
 20
1.0
 30
0.0
  9
$UCSORTHOREF
  2

  9
$UCSORTHOVIEW
 70
0
  9
$UCSORGTOP
 10
0.0
 20
0.0
 30
0.0
  9
$UCSORGBOTTOM
 10
0.0
 20
0.0
 30
0.0
  9
$UCSORGLEFT
 10
0.0
 20
0.0
 30
0.0
  9
$UCSORGRIGHT
 10
0.0
 20
0.0
 30
0.0
  9
$UCSORGFRONT
 10
0.0
 20
0.0
 30
0.0
  9
$UCSORGBACK
 10
0.0
 20
0.0
 30
0.0
  9
$PUCSBASE
  2

  9
$PUCSNAME
  2

  9
$PUCSORG
 10
0.0
 20
0.0
 30
0.0
  9
$PUCSXDIR
 10
1.0
 20
0.0
 30
0.0
  9
$PUCSYDIR
 10
0.0
 20
1.0
 30
0.0
  9
$PUCSORTHOREF
  2

  9
$PUCSORTHOVIEW
 70
0
  9
$PUCSORGTOP
 10
0.0
 20
0.0
 30
0.0
  9
$PUCSORGBOTTOM
 10
0.0
 20
0.0
 30
0.0
  9
$PUCSORGLEFT
 10
0.0
 20
0.0
 30
0.0
  9
$PUCSORGRIGHT
 10
0.0
 20
0.0
 30
0.0
  9
$PUCSORGFRONT
 10
0.0
 20
0.0
 30
0.0
  9
$PUCSORGBACK
 10
0.0
 20
0.0
 30
0.0
  9
$USERI1
 70
0
  9
$USERI2
 70
0
  9
$USERI3
 70
0
  9
$USERI4
 70
0
  9
$USERI5
 70
0
  9
$USERR1
 40
0.0
  9
$USERR2
 40
0.0
  9
$USERR3
 40
0.0
  9
$USERR4
 40
0.0
  9
$USERR5
 40
0.0
  9
$WORLDVIEW
 70
1
  9
$SHADEDGE
 70
3
  9
$SHADEDIF
 70
70
  9
$TILEMODE
 70
1
  9
$MAXACTVP
 70
64
  9
$PINSBASE
 10
0.0
 20
0.0
 30
0.0
  9
$PLIMCHECK
 70
0
  9
$PEXTMIN
 10
1e+20
 20
1e+20
 30
1e+20
  9
$PEXTMAX
 10
-1e+20
 20
-1e+20
 30
-1e+20
  9
$PLIMMIN
 10
0.0
 20
0.0
  9
$PLIMMAX
 10
420.0
 20
297.0
  9
$UNITMODE
 70
0
  9
$VISRETAIN
 70
1
  9
$PLINEGEN
 70
0
  9
$PSLTSCALE
 70
1
  9
$TREEDEPTH
 70
3020
  9
$CMLSTYLE
  2
Standard
  9
$CMLJUST
 70
0
  9
$CMLSCALE
 40
20.0
  9
$PROXYGRAPHICS
 70
1
  9
$MEASUREMENT
 70
1
  9
$CELWEIGHT
370
-1
  9
$ENDCAPS
280
0
  9
$JOINSTYLE
280
0
  9
$LWDISPLAY
290
0
  9
$INSUNITS
 70
6
  9
$HYPERLINKBASE
  1

  9
$STYLESHEET
  1

  9
$XEDIT
290
1
  9
$CEPSNTYPE
380
0
  9
$PSTYLEMODE
290
1
  9
$FINGERPRINTGUID
  2
{00258774-9BEE-4F8A-90B0-CD6DC737468F}
  9
$VERSIONGUID
  2
{AB8D4B88-3F29-4E6E-A7D4-0A0A3BDC27D7}
  9
$EXTNAMES
290
1
  9
$PSVPSCALE
 40
0.0
  9
$OLESTARTUP
290
0
  9
$SORTENTS
280
127
  9
$INDEXCTL
280
0
  9
$HIDETEXT
280
1
  9
$XCLIPFRAME
280
1
  9
$HALOGAP
280
0
  9
$OBSCOLOR
 70
257
  9
$OBSLTYPE
280
0
  9
$INTERSECTIONDISPLAY
280
0
  9
$INTERSECTIONCOLOR
 70
257
  9
$DIMASSOC
280
2
  9
$PROJECTNAME
  1

  9
$CAMERADISPLAY
290
0
  9
$LENSLENGTH
 40
50.0
  9
$CAMERAHEIGHT
 40
0.0
  9
$STEPSPERSEC
 40
24.0
  9
$STEPSIZE
 40
100.0
  9
$3DDWFPREC
 40
2.0
  9
$PSOLWIDTH
 40
0.005
  9
$PSOLHEIGHT
 40
0.08
  9
$LOFTANG1
 40
1.570796326795
  9
$LOFTANG2
 40
1.570796326795
  9
$LOFTMAG1
 40
0.0
  9
$LOFTMAG2
 40
0.0
  9
$LOFTPARAM
 70
7
  9
$LOFTNORMALS
280
1
  9
$LATITUDE
 40
37.795
  9
$LONGITUDE
 40
-122.394
  9
$NORTHDIRECTION
 40
0.0
  9
$TIMEZONE
 70
-8000
  9
$LIGHTGLYPHDISPLAY
280
1
  9
$TILEMODELIGHTSYNCH
280
1
  9
$CMATERIAL
347
20
  9
$SOLIDHIST
280
0
  9
$SHOWHIST
280
1
  9
$DWFFRAME
280
2
  9
$DGNFRAME
280
2
  9
$REALWORLDSCALE
290
1
  9
$INTERFERECOLOR
 62
256
  9
$CSHADOW
280
0
  9
$SHADOWPLANELOCATION
 40
0.0
  0
ENDSEC
  0
SECTION
  2
CLASSES
  0
CLASS
  1
ACDBDICTIONARYWDFLT
  2
AcDbDictionaryWithDefault
  3
ObjectDBX Classes
 90
0
 91
0
280
0
281
0
  0
CLASS
  1
SUN
  2
AcDbSun
  3
SCENEOE
 90
1153
 91
0
280
0
281
0
  0
CLASS
  1
VISUALSTYLE
  2
AcDbVisualStyle
  3
ObjectDBX Classes
 90
4095
 91
0
280
0
281
0
  0
CLASS
  1
MATERIAL
  2
AcDbMaterial
  3
ObjectDBX Classes
 90
1153
 91
0
280
0
281
0
  0
CLASS
  1
SCALE
  2
AcDbScale
  3
ObjectDBX Classes
 90
1153
 91
0
280
0
281
0
  0
CLASS
  1
TABLESTYLE
  2
AcDbTableStyle
  3
ObjectDBX Classes
 90
4095
 91
0
280
0
281
0
  0
CLASS
  1
MLEADERSTYLE
  2
AcDbMLeaderStyle
  3
ACDB_MLEADERSTYLE_CLASS
 90
4095
 91
0
280
0
281
0
  0
CLASS
  1
DICTIONARYVAR
  2
AcDbDictionaryVar
  3
ObjectDBX Classes
 90
0
 91
0
280
0
281
0
  0
CLASS
  1
CELLSTYLEMAP
  2
AcDbCellStyleMap
  3
ObjectDBX Classes
 90
1152
 91
0
280
0
281
0
  0
CLASS
  1
MENTALRAYRENDERSETTINGS
  2
AcDbMentalRayRenderSettings
  3
SCENEOE
 90
1024
 91
0
280
0
281
0
  0
CLASS
  1
ACDBDETAILVIEWSTYLE
  2
AcDbDetailViewStyle
  3
ObjectDBX Classes
 90
1025
 91
0
280
0
281
0
  0
CLASS
  1
ACDBSECTIONVIEWSTYLE
  2
AcDbSectionViewStyle
  3
ObjectDBX Classes
 90
1025
 91
0
280
0
281
0
  0
CLASS
  1
RASTERVARIABLES
  2
AcDbRasterVariables
  3
ISM
 90
0
 91
0
280
0
281
0
  0
CLASS
  1
LAYOUT
  2
AcDbLayout
  3
ObjectDBX Classes
 90
0
 91
0
280
0
281
0
  0
CLASS
  1
ACDBPLACEHOLDER
  2
AcDbPlaceHolder
  3
ObjectDBX Classes
 90
0
 91
0
280
0
281
0
  0
ENDSEC
  0
SECTION
  2
TABLES
  0
TABLE
  2
VPORT
  5
8
330
0
100
AcDbSymbolTable
 70
1
  0
VPORT
  5
23
330
8
100
AcDbSymbolTableRecord
100
AcDbViewportTableRecord
  2
*Active
 70
0
 10
0.0
 20
0.0
 11
1.0
 21
1.0
 12
0.0
 22
0.0
 13
0.0
 23
0.0
 14
0.5
 24
0.5
 15
0.5
 25
0.5
 16
0.0
 26
0.0
 36
1.0
 17
0.0
 27
0.0
 37
0.0
 40
1000.0
 41
1.34
 42
50.0
 43
0.0
 44
0.0
 50
0.0
 51
0.0
 71
0
 72
1000
 73
1
 74
3
 75
0
 76
0
 77
0
 78
0
281
0
 65
0
146
0.0
  0
ENDTAB
  0
TABLE
  2
LTYPE
  5
2
330
0
100
AcDbSymbolTable
 70
3
  0
LTYPE
  5
24
330
2
100
AcDbSymbolTableRecord
100
AcDbLinetypeTableRecord
  2
ByBlock
 70
0
  3

 72
65
 73
0
 40
0.0
  0
LTYPE
  5
25
330
2
100
AcDbSymbolTableRecord
100
AcDbLinetypeTableRecord
  2
ByLayer
 70
0
  3

 72
65
 73
0
 40
0.0
  0
LTYPE
  5
26
330
2
100
AcDbSymbolTableRecord
100
AcDbLinetypeTableRecord
  2
Continuous
 70
0
  3

 72
65
 73
0
 40
0.0
  0
ENDTAB
  0
TABLE
  2
LAYER
  5
1
330
0
100
AcDbSymbolTable
 70
2
  0
LAYER
  5
27
330
1
100
AcDbSymbolTableRecord
100
AcDbLayerTableRecord
  2
0
 70
0
 62
7
  6
Continuous
370
-3
390
13
347
21
  0
LAYER
  5
28
330
1
100
AcDbSymbolTableRecord
100
AcDbLayerTableRecord
  2
Defpoints
 70
0
 62
7
  6
Continuous
290
0
370
-3
390
13
347
21
  0
ENDTAB
  0
TABLE
  2
STYLE
  5
5
330
0
100
AcDbSymbolTable
 70
1
  0
STYLE
  5
29
330
5
100
AcDbSymbolTableRecord
100
AcDbTextStyleTableRecord
  2
Standard
 70
0
 40
0.0
 41
1.0
 50
0.0
 71
0
 42
2.5
  3
txt
  4

  0
ENDTAB
  0
TABLE
  2
VIEW
  5
7
330
0
100
AcDbSymbolTable
 70
0
  0
ENDTAB
  0
TABLE
  2
UCS
  5
6
330
0
100
AcDbSymbolTable
 70
0
  0
ENDTAB
  0
TABLE
  2
APPID
  5
3
330
0
100
AcDbSymbolTable
 70
3
  0
APPID
  5
2A
330
3
100
AcDbSymbolTableRecord
100
AcDbRegAppTableRecord
  2
ACAD
 70
0
  0
APPID
  5
30
330
3
100
AcDbSymbolTableRecord
100
AcDbRegAppTableRecord
  2
HATCHBACKGROUNDCOLOR
 70
0
  0
APPID
  5
31
330
3
100
AcDbSymbolTableRecord
100
AcDbRegAppTableRecord
  2
EZDXF
 70
0
  0
ENDTAB
  0
TABLE
  2
DIMSTYLE
  5
4
330
0
100
AcDbSymbolTable
 70
1
100
AcDbDimStyleTable
  0
DIMSTYLE
105
2B
330
4
100
AcDbSymbolTableRecord
100
AcDbDimStyleTableRecord
  2
Standard
 70
0
 40
1.0
 41
2.5
 42
0.625
 43
3.75
 44
1.25
 45
0.0
 46
0.0
 47
0.0
 48
0.0
 49
2.5
140
2.5
141
2.5
142
0.0
143
0.03937007874
144
1.0
145
0.0
146
1.0
147
0.625
148
0.0
 69
0
 70
0
 71
0
 72
0
 73
0
 74
0
 75
0
 76
0
 77
1
 78
8
 79
3
170
0
171
3
172
1
173
0
174
0
175
0
176
0
177
0
178
0
179
2
271
2
272
2
273
2
274
3
275
0
276
0
277
2
278
44
279
0
280
0
281
0
282
0
283
0
284
8
285
0
286
0
288
0
289
3
290
0
371
-2
372
-2
  0
ENDTAB
  0
TABLE
  2
BLOCK_RECORD
  5
9
330
0
100
AcDbSymbolTable
 70
2
  0
BLOCK_RECORD
  5
17
330
9
100
AcDbSymbolTableRecord
100
AcDbBlockTableRecord
  2
*Model_Space
340
1A
 70
0
280
1
281
0
  0
BLOCK_RECORD
  5
1B
330
9
100
AcDbSymbolTableRecord
100
AcDbBlockTableRecord
  2
*Paper_Space
340
1E
 70
0
280
1
281
0
  0
ENDTAB
  0
ENDSEC
  0
SECTION
  2
BLOCKS
  0
BLOCK
  5
18
330
17
100
AcDbEntity
  8
0
100
AcDbBlockBegin
  2
*Model_Space
 70
0
 10
0.0
 20
0.0
 30
0.0
  3
*Model_Space
  1

  0
ENDBLK
  5
19
330
17
100
AcDbEntity
  8
0
100
AcDbBlockEnd
  0
BLOCK
  5
1C
330
1B
100
AcDbEntity
  8
0
100
AcDbBlockBegin
  2
*Paper_Space
 70
0
 10
0.0
 20
0.0
 30
0.0
  3
*Paper_Space
  1

  0
ENDBLK
  5
1D
330
1B
100
AcDbEntity
  8
0
100
AcDbBlockEnd
  0
ENDSEC
  0
SECTION
  2
ENTITIES
  0
LWPOLYLINE
  5
2F
330
17
100
AcDbEntity
  8
0
100
AcDbPolyline
 90
722
 70
1
 10
72.01147652908799
 20
12.617189068214309
 10
72.00929745456561
 20
12.617572560962639
 10
72.00279742567382
 20
12.618506780581454
 10
71.99205070171193
 20
12.619559965967426
 10
71.97691234539423
 20
12.620928176668464
 10
71.95765370826955
 20
12.622326990816685
 10
71.93414841323228
 20
12.623844554689486
 10
71.90630716637965
 20
12.625353404065834
 10
71.87434565729879
 20
12.62689274886807
 10
71.83817459208689
 20
12.62833512487516
 10
71.79764897772192
 20
12.629876915698889
 10
71.75302166130888
 20
12.631341288678
 10
71.70418475160729
 20
12.632708908904553
 10
71.65111966985823
 20
12.634087797670345
 10
71.59386357357953
 20
12.635261912391776
 10
71.53237926809584
 20
12.636447511695032
 10
71.46679318624905
 20
12.637556125238842
 10
71.39699743679866
 20
12.638568418115259
 10
71.32297344098576
 20
12.63959241161608
 10
71.24486617325366
 20
12.640431830150828
 10
71.16253060342272
 20
12.641283273373851
 10
71.07600387043213
 20
12.641930806722856
 10
70.98546448777236
 20
12.642629790725072
 10
70.89060747195352
 20
12.643213551237121
 10
70.79175632948817
 20
12.643741065174458
 10
70.6886953522104
 20
12.644173230636028
 10
70.58153233846689
 20
12.64452992263624
 10
70.4702672696789
 20
12.644811249196378
 10
70.35488154850874
 20
12.64512533962954
 10
70.23537511922017
 20
12.645472517999595
 10
70.11178512075222
 20
12.645636849744243
 10
69.9840743770083
 20
12.645834485468367
 10
69.85236924651528
 20
12.64597738691587
 10
69.71654329643127
 20
12.646154024428018
 10
69.57663360995905
 20
12.646148787506384
 10
69.43271088366377
 20
12.64619726968509
 10
69.28475648305027
 20
12.646407816319812
 10
69.13282610723773
 20
12.646456579577745
 10
68.97677468888912
 20
12.646540375155821
 10
68.81683649635048
 20
12.646590391684597
 10
68.65277718696069
 20
12.646675872618687
 10
68.48481243172823
 20
12.646836135901736
 10
68.3128343208338
 20
12.647051954647088
 10
68.13695067120287
 20
12.647343095847853
 10
67.95707215177512
 20
12.647582311325587
 10
67.77330657947597
 20
12.647789368073393
 10
67.58550888696834
 20
12.648161081788219
 10
67.39391332401965
 20
12.648628749121908
 10
67.19841198081053
 20
12.649173143187806
 10
66.99900482018354
 20
12.649794480028495
 10
66.7956917492449
 20
12.650493299750439
 10
66.58856204331863
 20
12.651397174595962
 10
66.3775263341869
 20
12.652379072429195
 10
66.16267387859497
 20
12.653566673513756
 10
65.944023162408
 20
12.65485249666431
 10
65.72161132456503
 20
12.656020607318549
 10
65.49550898731616
 20
12.657307031095762
 10
65.26557110190312
 20
12.658908475671609
 10
65.0317975754321
 20
12.660825481152544
 10
64.79435197968404
 20
12.662753642634994
 10
64.55321566158497
 20
12.664801413495923
 10
64.3083885839774
 20
12.666969009777917
 10
64.05981491769083
 20
12.669581035462828
 10
63.80758750078347
 20
12.67209770815554
 10
63.551776992663
 20
12.674754837432761
 10
63.292364758834196
 20
12.677660768650169
 10
63.0292242921402
 20
12.680904404234196
 10
62.76258982376953
 20
12.684417148857982
 10
62.4923720040831
 20
12.688071862364358
 10
62.21857079592342
 20
12.691868760795918
 10
61.941256821540584
 20
12.69604386977195
 10
61.660504321655196
 20
12.700165536210426
 10
61.376168247508915
 20
12.704430467786999
 10
61.088445654193784
 20
12.70898621977969
 10
60.79733648597351
 20
12.713833116252383
 10
60.50276999054666
 20
12.718735887734818
 10
60.20472749626055
 20
12.723803095625259
 10
59.90342467412356
 20
12.729074057867342
 10
59.59871643821992
 20
12.734745698179303
 10
59.29065846909005
 20
12.740494276749628
 10
58.97935856508062
 20
12.746339668592714
 10
58.664816670455366
 20
12.752282197772441
 10
58.3469955348027
 20
12.758538446978863
 10
58.025895102386336
 20
12.765108740275853
 10
57.70153389622891
 20
12.771885380435494
 10
57.37414616609773
 20
12.778799664109627
 10
57.0434975135954
 20
12.785921158816738
 10
56.70969575564738
 20
12.793269631549943
 10
56.37290444545583
 20
12.800540785426962
 10
56.03299703870632
 20
12.807823738916811
 10
55.69002561604761
 20
12.815462322888004
 10
55.34409799440511
 20
12.823476304333642
 10
54.99503549307942
 20
12.831611294918126
 10
54.64310955651317
 20
12.839582332667112
 10
54.288245795355714
 20
12.847821934832963
 10
53.93046273262966
 20
12.856222404187749
 10
53.56974171526109
 20
12.864892194108444
 10
53.2062276991145
 20
12.873635137025854
 10
52.83992064703237
 20
12.882451448982563
 10
52.470712593459176
 20
12.891322227155785
 10
52.09880064922318
 20
12.900394702759677
 10
51.72407688592639
 20
12.909649756928872
 10
51.346686278012086
 20
12.918891114072892
 10
50.966628751165196
 20
12.928119206276898
 10
50.58401214088994
 20
12.93735369251271
 10
50.1987099028719
 20
12.946683691249355
 10
49.81079271509747
 20
12.956344904042245
 10
49.4202083297091
 20
12.965994472214502
 10
49.027261823090555
 20
12.975798529803047
 10
48.63181165348148
 20
12.985286753909971
 10
48.23383914922913
 20
12.99456770593352
 10
47.83350431938027
 20
13.004004335607572
 10
47.43078851086098
 20
13.013705096309092
 10
47.02553162173069
 20
13.023307578410666
 10
46.61820233731167
 20
13.032673295003065
 10
46.20849548832629
 20
13.041636652155821
 10
45.79657104666378
 20
13.050560815645381
 10
45.3823024865885
 20
13.059534795919483
 10
44.965924132182806
 20
13.068489457544803
 10
44.54738377274663
 20
13.077081725801868
 10
44.126752086266364
 20
13.085547302246097
 10
43.703991840909204
 20
13.094102661546259
 10
43.27919589331211
 20
13.102207913285943
 10
42.85238276649771
 20
13.109755360237223
 10
42.42367531199498
 20
13.11732399471757
 10
41.992876251766795
 20
13.124767557704459
 10
41.56018275237767
 20
13.132232956348163
 10
41.12570624922358
 20
13.139072278940478
 10
40.68942810780927
 20
13.14539387083707
 10
40.25131113345947
 20
13.15141399066413
 10
39.81129949700363
 20
13.157457242403504
 10
39.369683333115894
 20
13.16312999466131
 10
38.92632104429957
 20
13.167962248603505
 10
38.481480623735706
 20
13.172335748765443
 10
38.034853265097475
 20
13.176752687939269
 10
37.58662119323973
 20
13.180800207844442
 10
37.13685863030431
 20
13.184046763420232
 10
36.685744256990645
 20
13.186746743002244
 10
36.23304358200757
 20
13.188970254215432
 10
35.778953827655876
 20
13.190863880146196
 10
35.32338560713896
 20
13.192300696679954
 10
34.866483969215125
 20
13.193083996141054
 10
34.408356805124846
 20
13.193233113437449
 10
33.94889613073386
 20
13.192729253767645
 10
33.48831778425938
 20
13.19161076288366
 10
33.026405853169145
 20
13.189839727118645
 10
32.563338981005096
 20
13.187670750850799
 10
32.09913576510486
 20
13.184995704767028
 10
31.63388902494795
 20
13.181274914493509
 10
31.167561565859017
 20
13.176724638656419
 10
30.70035066587517
 20
13.171491136278282
 10
30.232021833705236
 20
13.16564451498405
 10
29.762828065084257
 20
13.159007077942142
 10
29.292787920192378
 20
13.151470911882049
 10
28.821919959209737
 20
13.142928103533261
 10
28.3501869503035
 20
13.133595127564547
 10
27.87767828027031
 20
13.123598908090488
 10
27.40439389337385
 20
13.112939769174949
 10
26.930497454288833
 20
13.101312765807899
 10
26.455899576218684
 20
13.088590973874766
 10
25.98072674774151
 20
13.074685598970403
 10
25.50503117955739
 20
13.059939715814272
 10
25.02864915125531
 20
13.044658593480287
 10
24.551833714306618
 20
13.028664211072988
 10
24.074625533227007
 20
13.011073495435209
 10
23.596913079726804
 20
12.992534898381617
 10
23.118893724736875
 20
12.973194138828275
 10
22.640496604483264
 20
12.952816595432685
 10
22.161740316303593
 20
12.931294138881753
 10
21.682784999295965
 20
12.908988962760308
 10
21.20354130382124
 20
12.885773926911188
 10
20.724172875975384
 20
12.861344194345655
 10
20.24457175020288
 20
12.835680862240926
 10
19.76493529743463
 20
12.808929649513068
 10
19.285244901754204
 20
12.781198793496463
 10
18.80555631801708
 20
12.752164122294419
 10
18.325850930306828
 20
12.721933873241325
 10
17.846218143998836
 20
12.690634862430459
 10
17.36649425726086
 20
12.658572250914444
 10
16.887006673757373
 20
12.625135716588039
 10
16.407755393488365
 20
12.590325259451252
 10
15.928721856273695
 20
12.554248792774583
 10
15.449887446196954
 20
12.517014553892416
 10
14.971378763308824
 20
12.478533100271854
 10
14.493069244716136
 20
12.438893658403213
 10
14.015193418867593
 20
12.398025904618958
 10
13.537788461859753
 20
12.355713688314196
 10
13.060835794933721
 20
12.312065030780731
 10
12.584316857909345
 20
12.267187845289065
 10
12.108250229545536
 20
12.220974110547402
 10
11.632889072786174
 20
12.173245157532532
 10
11.158088227400416
 20
12.124198342047862
 10
10.683918557162254
 20
12.074068285435887
 10
10.21036497173192
 20
12.02229608643613
 10
9.737606300438923
 20
11.969135269213869
 10
9.26558686274285
 20
11.914909573580623
 10
8.794254373628595
 20
11.859276356902095
 10
8.32386203319756
 20
11.802056734112494
 10
7.854372702510716
 20
11.743466639774121
 10
7.385715536372804
 20
11.683271344523192
 10
6.918069419849632
 20
11.621724048461102
 10
6.451363526324718
 20
11.55858991420277
 10
5.985795301044004
 20
11.494014228579095
 10
5.5210930394622135
 20
11.428283465862496
 10
5.05750994168075
 20
11.36121874098718
 10
4.59512032273523
 20
11.29238796878596
 10
4.133905659603022
 20
11.221898846486756
 10
3.6739182187204587
 20
11.150094124745152
 10
3.2151766531614845
 20
11.07686535018419
 10
2.757699560263747
 20
11.002104393490777
 10
2.3015949798978195
 20
10.925829725402522
 10
1.8467177518328468
 20
10.848238701722831
 10
1.3931388141578538
 20
10.769565511709033
 10
0.9410405032002629
 20
10.68939664895284
 10
0.49046001363539776
 20
10.60751585482807
 10
0.04136024368171627
 20
10.524138847854445
 10
-0.4061676548820591
 20
10.439382290123818
 10
-0.8522286935887863
 20
10.35321010342802
 10
-1.2967333741692908
 20
10.265748563753874
 10
-1.739592254090677
 20
10.177124271152078
 10
-2.180839039609133
 20
10.086886561696542
 10
-2.6203657094328596
 20
9.995054014146163
 10
-3.058157136064578
 20
9.902185313718839
 10
-3.4942841832782747
 20
9.80804583907207
 10
-3.9285122297314494
 20
9.712564726431864
 10
-4.3610573180077
 20
9.615704818280413
 10
-4.791703405523435
 20
9.517503272135524
 10
-5.220379628504654
 20
9.418194709339698
 10
-5.647320608293858
 20
9.317849993666924
 10
-6.072325429804741
 20
9.215947597417117
 10
-6.495289523007115
 20
9.11317280585887
 10
-6.916358066710578
 20
9.009723082816882
 10
-7.335527609653533
 20
8.90493172178145
 10
-7.752474087960565
 20
8.798854459029295
 10
-8.167361259200195
 20
8.6917967796769
 10
-8.580207702131315
 20
8.583866705016066
 10
-8.99097625923612
 20
8.474848192463197
 10
-9.399469466689919
 20
8.364886420827895
 10
-9.805903367076308
 20
8.253944232592358
 10
-10.210117654088405
 20
8.142382849149785
 10
-10.612075170208392
 20
8.029986227916579
 10
-11.011757336677375
 20
7.916646347600942
 10
-11.409182732254257
 20
7.802471229494672
 10
-11.804280493165036
 20
7.687695494940267
 10
-12.197158640701522
 20
7.5723005651788275
 10
-12.587563974762306
 20
7.4561075551445635
 10
-12.975496495347388
 20
7.33911646483747
 10
-13.361045644989662
 20
7.221200694206846
 10
-13.74412198115624
 20
7.102486843303395
 10
-14.124781240123825
 20
6.983298976002516
 10
-14.502933979359517
 20
6.863763692354903
 10
-14.878505883827716
 20
6.743448907193365
 10
-15.251604974820209
 20
6.622336041759003
 10
-15.621888609702705
 20
6.500372811036721
 10
-15.989628567335505
 20
6.377846121384111
 10
-16.354843426477515
 20
6.2548639940929736
 10
-16.717317144545135
 20
6.131463586681113
 10
-17.077031142779465
 20
6.007536877856729
 10
-17.434037706195593
 20
5.8827412249855255
 10
-17.78830312853733
 20
5.757527291993598
 10
-18.139883146081395
 20
5.632219142756343
 10
-18.488576843741463
 20
5.506295249573671
 10
-18.83449224280933
 20
5.379737033686679
 10
-19.177450458219216
 20
5.252797695196766
 10
-19.517559511262917
 20
5.125458655345036
 10
-19.854837980699333
 20
4.99782793542328
 10
-20.189122108959957
 20
4.869600050315014
 10
-20.520449053562594
 20
4.7409910426038255
 10
-20.848818814507247
 20
4.612000912289721
 10
-21.17430570682952
 20
4.483061744539892
 10
-21.496675109186928
 20
4.354102675580347
 10
-21.816087327886343
 20
4.224762484017884
 10
-22.13239718411817
 20
4.0948437060278104
 10
-22.445570971626218
 20
3.96479700553622
 10
-22.755753869220094
 20
3.8348198463678083
 10
-23.062763540572387
 20
3.7044987221142853
 10
-23.366529121909103
 20
3.574068254118149
 10
-23.667285234572745
 20
3.443599306153393
 10
-23.96481583597971
 20
3.3131290357378256
 10
-24.259065189853292
 20
3.1823333789960455
 10
-24.55008903247021
 20
3.051536399803454
 10
-24.837905942589348
 20
2.9208461194518445
 10
-25.122497341451815
 20
2.7901545166494226
 10
-25.403755207765812
 20
2.6594801701550908
 10
-25.681660962772433
 20
2.5287150586770464
 10
-25.95634120652238
 20
2.397948624748191
 10
-26.227579896432054
 20
2.2672180258863253
 10
-26.495414190019265
 20
2.1367393046750487
 10
-26.7600229723498
 20
2.00625926101296
 10
-27.021082179548273
 20
1.8758336311767623
 10
-27.278681254147568
 20
1.7453358151157599
 10
-27.532894511183297
 20
1.6151978979971446
 10
-27.783721950655472
 20
1.4854198798209157
 10
-28.031018393754472
 20
1.3558042967623813
 10
-28.274765261721406
 20
1.2262431275297416
 10
-28.515051997089163
 20
1.0966097720722934
 10
-28.75175545106867
 20
0.9674814943668373
 10
-28.984965066192814
 20
0.8387316943626704
 10
-29.214643684943788
 20
0.7101443294761977
 10
-29.4406832860298
 20
0.5817379784663194
 10
-29.66312102696865
 20
0.453728683916635
 10
-29.881919750242535
 20
0.3259004032435459
 10
-30.097098034610358
 20
0.19836115773885232
 10
-30.308674458831018
 20
0.07121896869434992
 10
-30.51650384409492
 20
-0.05572362771465341
 10
-30.720641926678763
 20
-0.1821425676127617
 10
-30.921122412838738
 20
-0.3084885149260748
 10
-31.11791159631866
 20
-0.434310805728492
 10
-31.31099089835962
 20
-0.5597174613118142
 10
-31.500341740202728
 20
-0.6848165029678399
 10
-31.685856100556165
 20
-0.8095893519376661
 10
-31.867660579470652
 20
-0.9339465656883958
 10
-32.045702891931086
 20
-1.0575455015857318
 10
-32.21994588041965
 20
-1.180602202213269
 10
-32.39038954493638
 20
-1.3031166675710117
 10
-32.55716048553196
 20
-1.4249994551260603
 10
-32.72002408086388
 20
-1.546321428652409
 10
-32.879125509741755
 20
-1.6668851243253646
 10
-33.03439390839158
 20
-1.7864559208024249
 10
-33.185937298105166
 20
-1.9050523968424948
 10
-33.33361050007291
 20
-2.0228720162702665
 10
-33.477540114345494
 20
-2.1398253365528457
 10
-33.617510098339345
 20
-2.255875200172427
 10
-33.75377365215585
 20
-2.370842722063219
 10
-33.88613331197033
 20
-2.4845827234156164
 10
-34.014659941556765
 20
-2.5973298255721198
 10
-34.139353540915145
 20
-2.709084028532728
 10
-34.260214110045496
 20
-2.8198453322974433
 10
-34.37717078517381
 20
-2.929379115523763
 10
-34.49022356630008
 20
-3.03768537821169
 10
-34.59942473843942
 20
-3.1451067629955203
 10
-34.70472201657672
 20
-3.2513006272409584
 10
-34.80604108567636
 20
-3.356699056115195
 10
-34.903456260773986
 20
-3.4608699644510383
 10
-34.996893226833954
 20
-3.564245437415681
 10
-35.08638914137409
 20
-3.666609432425527
 10
-35.171944004394376
 20
-3.7679619494805774
 10
-35.253431215844124
 20
-3.8683924311137257
 10
-35.33110397582474
 20
-3.9677219922591815
 10
-35.4045824841841
 20
-4.0662189605156325
 10
-35.47422796231542
 20
-4.163723029576189
 10
-35.5398057888762
 20
-4.260305063214844
 10
-35.601371700143154
 20
-4.355640997556202
 10
-35.65899655989025
 20
-4.449965453942765
 10
-35.71259092558463
 20
-4.543151832323828
 10
-35.76222911226187
 20
-4.6347680475322
 10
-35.807963404937084
 20
-4.725156742202176
 10
-35.84972293983626
 20
-4.814083294991259
 10
-35.88754487447722
 20
-4.901331663315851
 10
-35.92150352389557
 20
-4.986469762008755
 10
-35.95159888809131
 20
-5.069497591069975
 10
-35.97797614587403
 20
-5.150217686674814
 10
-36.00051214845467
 20
-5.228052784846476
 10
-36.01938923216063
 20
-5.302589379176666
 10
-36.03490120587273
 20
-5.372765835506302
 10
-36.04696207831969
 20
-5.437788847274989
 10
-36.055977130935766
 20
-5.49594865257285
 10
-36.06235164515518
 20
-5.545535489490013
 10
-36.06631546860803
 20
-5.583919689505502
 10
-36.068441091558654
 20
-5.608419299083258
 10
-35.95175664795548
 20
-6.2991363713873545
 10
-35.948756726707266
 20
-6.304292460849933
 10
-35.93977554172153
 20
-6.319652707945866
 10
-35.92488740803388
 20
-6.34478502750796
 10
-35.90366846545117
 20
-6.381507202737892
 10
-35.87594460262005
 20
-6.432124838281235
 10
-35.84257389371166
 20
-6.491002248205559
 10
-35.804024258960176
 20
-6.554772193706206
 10
-35.76075326481492
 20
-6.622067555507595
 10
-35.71304304392109
 20
-6.690601307723057
 10
-35.66095278381699
 20
-6.759382679967501
 10
-35.604791420880716
 20
-6.827908723299736
 10
-35.544525248856104
 20
-6.89572877379367
 10
-35.48022858277875
 20
-6.962410746282104
 10
-35.41193858016647
 20
-7.027738598181442
 10
-35.33965524101925
 20
-7.091712329491687
 10
-35.26350516538781
 20
-7.154242497679938
 10
-35.18341748949815
 20
-7.215094481403698
 10
-35.09937363459136
 20
-7.274376301954766
 10
-35.011500200718146
 20
-7.331998516800246
 10
-34.9196520090689
 20
-7.388158589764832
 10
-34.82384763840253
 20
-7.442748499556724
 10
-34.72434028882044
 20
-7.495589361110133
 10
-34.62075016017052
 20
-7.546949502023744
 10
-34.513419895087075
 20
-7.596776637282469
 10
-34.4021148722276
 20
-7.645141630660298
 10
-34.286961691642794
 20
-7.691955039624339
 10
-34.16797893209157
 20
-7.737108842882791
 10
-34.04511085729722
 20
-7.780927104311049
 10
-33.918394624777534
 20
-7.823193781325517
 10
-33.7877559194969
 20
-7.864340959093391
 10
-33.65325047773205
 20
-7.904044573739274
 10
-33.514949163256965
 20
-7.942539246605663
 10
-33.37274395477984
 20
-7.979806398933659
 10
-33.226597694782875
 20
-8.016062073306859
 10
-33.076636983316774
 20
-8.051216827192366
 10
-32.92284324162263
 20
-8.085378681881979
 10
-32.76521646970044
 20
-8.118547637375698
 10
-32.60359290998171
 20
-8.151029178790015
 10
-32.43820718380891
 20
-8.182752442350937
 10
-32.26886182735739
 20
-8.213572249248864
 10
-32.095772883210714
 20
-8.243525757001597
 10
-31.918795172559292
 20
-8.272810429433829
 10
-31.73803671669492
 20
-8.301444845304468
 10
-31.553408073084697
 20
-8.329302404562808
 10
-31.36505442053822
 20
-8.356185643384158
 10
-31.172849159004816
 20
-8.382184004301415
 10
-30.976989752309144
 20
-8.407442666124176
 10
-30.777368179159442
 20
-8.431943050093544
 10
-30.573984439555687
 20
-8.45568515620952
 10
-30.366894269774587
 20
-8.478344920596705
 10
-30.156205691107942
 20
-8.499940922014002
 10
-29.941810682263956
 20
-8.520454581702507
 10
-29.723780107016626
 20
-8.540120521004726
 10
-29.50211396536595
 20
-8.558938739920652
 10
-29.276886572347536
 20
-8.576477153283093
 10
-29.04816879173538
 20
-8.592970382434553
 10
-28.815871180996584
 20
-8.608291827324324
 10
-28.579975161372246
 20
-8.622549509244209
 10
-28.340588754154165
 20
-8.63576200695311
 10
-28.097730538101242
 20
-8.647821299159228
 10
-27.85138193445458
 20
-8.65883540715436
 10
-27.60154294321417
 20
-8.668804330938507
 10
-27.348232143138922
 20
-8.67762004921987
 10
-27.09153897676173
 20
-8.685409162049153
 10
-26.831463444082583
 20
-8.692171669426353
 10
-26.567916102568606
 20
-8.697780971300771
 10
-26.301075837285577
 20
-8.70249026777381
 10
-26.03085320570061
 20
-8.706172958794763
 10
-25.757229629054784
 20
-8.708937065655435
 10
-25.48033170739882
 20
-8.710693145822928
 10
-25.200215177009415
 20
-8.711117135421846
 10
-24.91682430160986
 20
-8.710533098327586
 10
-24.630013902390562
 20
-8.709138498364839
 10
-24.340126621985807
 20
-8.70688105051852
 10
-24.04698357532981
 20
-8.70350755468722
 10
-23.750603341181478
 20
-8.698909989579146
 10
-23.45116480460659
 20
-8.693341555295696
 10
-23.148541365554454
 20
-8.68689169436977
 10
-22.842770181542868
 20
-8.67934436421777
 10
-22.53395927386365
 20
-8.670718143598593
 10
-22.222127221275674
 20
-8.66090501122045
 10
-21.907218287502253
 20
-8.65022903095873
 10
-21.58926963006119
 20
-8.638474160229839
 10
-21.268244091434667
 20
-8.625856441617373
 10
-20.944413450482998
 20
-8.61208896876374
 10
-20.617543085863687
 20
-8.597242605442935
 10
-20.287741018868527
 20
-8.58133593041386
 10
-19.955096692030416
 20
-8.564495543727217
 10
-19.619539241575364
 20
-8.546486824040509
 10
-19.281139531277354
 20
-8.52754439269623
 10
-18.940024161187093
 20
-8.507578807161485
 10
-18.596014246238795
 20
-8.486336867334877
 10
-18.249325829016048
 20
-8.463855730734206
 10
-17.89990317324215
 20
-8.440459461234871
 10
-17.547746278917103
 20
-8.416148058836868
 10
-17.1928551460409
 20
-8.390921523540202
 10
-16.835393532182042
 20
-8.364474370228375
 10
-16.475398594858355
 20
-8.336590556317793
 10
-16.112687997742416
 20
-8.307683588216747
 10
-15.747477783417823
 20
-8.277790623443044
 10
-15.379697088110573
 20
-8.24667704065418
 10
-15.009491090630295
 20
-8.214145376025465
 10
-14.636804054700262
 20
-8.180519693432291
 10
-14.261706844094471
 20
-8.146034614217161
 10
-13.884128595038929
 20
-8.110455517037574
 10
-13.504125043810346
 20
-8.073458338018133
 10
-13.121875075474513
 20
-8.035296277260242
 10
-12.737360111272526
 20
-7.9960773560556975
 10
-12.35036410862079
 20
-7.955764416886698
 10
-11.961229710153598
 20
-7.914305174738149
 10
-11.569886052096967
 20
-7.871465008267554
 10
-11.176333134450887
 20
-7.827243917474913
 10
-10.780660399748259
 20
-7.781768502410921
 10
-10.38277495419457
 20
-7.73557886953458
 10
-9.982840555358324
 20
-7.688369533729392
 10
-9.580823496983333
 20
-7.639689831069259
 10
-9.176705200310696
 20
-7.589647782845982
 10
-8.770701707924012
 20
-7.538280546577366
 10
-8.362630683495865
 20
-7.4860016286717
 10
-7.952637305835869
 20
-7.432613565304294
 10
-7.5407215749440155
 20
-7.378116356475146
 10
-7.1269206483381105
 20
-7.322293959600657
 10
-6.711215947259258
 20
-7.265254395972629
 10
-6.293786356773245
 20
-7.207250865692461
 10
-5.874452991814281
 20
-7.148030168658755
 10
-5.453469052483765
 20
-7.087413419805714
 10
-5.030815960022794
 20
-7.025508640425139
 10
-4.606475135672475
 20
-6.96242385180883
 10
-4.180357136899898
 20
-6.898032453906082
 10
-3.752823185098284
 20
-6.832174140410012
 10
-3.323783837734718
 20
-6.764722311269913
 10
-2.893019600963988
 20
-6.6963065154776755
 10
-2.4607650961286036
 20
-6.626855889259307
 10
-2.027239817073772
 20
-6.555740883622918
 10
-1.5921719849391867
 20
-6.4832484049260986
 10
-1.1556510422577517
 20
-6.409505053219552
 10
-0.7179301891308638
 20
-6.334331943437484
 10
-0.27881196173382683
 20
-6.257583896770293
 10
0.1614875973497603
 20
-6.179298070735782
 10
0.603150824447301
 20
-6.099887971742244
 10
1.046032540749197
 20
-6.019156135964985
 10
1.4899318311691365
 20
-5.936581035703915
 10
1.9350124532756257
 20
-5.852468156075522
 10
2.3812407008124774
 20
-5.76726816100591
 10
2.8284528719474595
 20
-5.680675889442459
 10
3.276741418972412
 20
-5.592582240783739
 10
3.7260371873591533
 20
-5.503231774331096
 10
4.1762659178083625
 20
-5.412192728981208
 10
4.627427647477557
 20
-5.31946532077666
 10
5.0794886701105355
 20
-5.22550021364355
 10
5.532359617489443
 20
-5.130424439717748
 10
5.986129950725943
 20
-5.034111506969841
 10
6.440635930830274
 20
-4.936256038304631
 10
6.895914733899011
 20
-4.837074184327005
 10
7.351966434247185
 20
-4.73656637712213
 10
7.808682992004237
 20
-4.634751087427618
 10
8.266008726629744
 20
-4.531304575431948
 10
8.723980795641502
 20
-4.4264428837187175
 10
9.182457471491526
 20
-4.320635254972928
 10
9.641636292319552
 20
-4.213736942470137
 10
10.10124546068651
 20
-4.1054609318314705
 10
10.561411613800624
 20
-3.9958968816324005
 10
11.021918709078284
 20
-3.8850819493907376
 10
11.48289336514897
 20
-3.773105685660666
 10
11.944317021832525
 20
-3.6598601771716823
 10
12.405992215304252
 20
-3.5454906027333895
 10
12.868064124373774
 20
-3.4301944261704778
 10
13.330514226018446
 20
-3.31386395025503
 10
13.793107843159493
 20
-3.1964279871491748
 10
14.255971613005139
 20
-3.0779761954283913
 10
14.719034671781394
 20
-2.958743196435181
 10
15.182330744323194
 20
-2.838278434264738
 10
15.645680908407243
 20
-2.7168348929758794
 10
16.109122321551336
 20
-2.5946286151522044
 10
16.572636423575336
 20
-2.4715516875232066
 10
17.03618605696143
 20
-2.347388067505289
 10
17.499808397806188
 20
-2.2223539057033377
 10
17.963324468150027
 20
-2.096701862112298
 10
18.426805168924446
 20
-1.9701975314322557
 10
18.89019821511437
 20
-1.8431835562975067
 10
19.35344783328556
 20
-1.7153356567900706
 10
19.81653546325788
 20
-1.5865459196394451
 10
20.279498262549133
 20
-1.457030387429223
 10
20.742175813379866
 20
-1.327149633424858
 10
21.20467619277817
 20
-1.196885402931321
 10
21.66683560601802
 20
-1.0659319947895352
 10
22.12867259470079
 20
-0.9343972142487155
 10
22.590187177405245
 20
-0.8022811693301554
 10
23.051397895732773
 20
-0.6696916652830671
 10
23.512070035447074
 20
-0.5365572982269995
 10
23.97233025233514
 20
-0.4029678347587252
 10
24.432088992391485
 20
-0.2690492268011964
 10
24.89149152731956
 20
-0.13499947828556158
 10
25.35024733229127
 20
-0.00042268937081117784
 10
25.80837500464433
 20
0.13457301062997107
 10
26.26607545946501
 20
0.2694660940166884
 10
26.723021088722536
 20
0.40486807112879186
 10
27.179193257921707
 20
0.5408872873219505
 10
27.634811516644017
 20
0.6768938695404028
 10
28.089696831193603
 20
0.8126354818530775
 10
28.543845787466378
 20
0.9487786147270888
 10
28.997168868614384
 20
1.0851971001969007
 10
29.449557941873312
 20
1.221873007631364
 10
29.901158241789005
 20
1.3586085491419047
 10
30.351880232934768
 20
1.4952776647842796
 10
30.80174243833326
 20
1.6317726573305726
 10
31.25059962343859
 20
1.7682913146693477
 10
31.69841455641789
 20
1.90505011146937
 10
32.14524295496914
 20
2.041725091876536
 10
32.59108480051356
 20
2.178316363912139
 10
33.03574242486014
 20
2.3146799370007827
 10
33.479432000643754
 20
2.4508522125112306
 10
33.92188156321652
 20
2.5871211770139917
 10
34.36310965417983
 20
2.7233790252598498
 10
34.80320909301315
 20
2.8590860828749802
 10
35.24216131953635
 20
2.99435026312989
 10
35.67971289212416
 20
3.129351855367163
 10
36.116098562170365
 20
3.264019239663764
 10
36.551083503966154
 20
3.3984244680278954
 10
36.98477577596083
 20
3.532585903175878
 10
37.41710438432908
 20
3.6662696799142536
 10
37.8479611777278
 20
3.7994579756331603
 10
38.277491390702856
 20
3.9319530024440286
 10
38.70542300287011
 20
4.0640430709812465
 10
39.131972186864445
 20
4.195764582613571
 10
39.55690411697701
 20
4.327189589349208
 10
39.98033017286745
 20
4.457670503543826
 10
40.40214222177138
 20
4.587189394566271
 10
40.82244496377033
 20
4.716430791536098
 10
41.24089542181232
 20
4.8454489238516505
 10
41.65785839860349
 20
4.973416022547302
 10
42.073099049856225
 20
5.1004042476525475
 10
42.486542967641135
 20
5.226846224441041
 10
42.89819011480065
 20
5.35274216895536
 10
43.30805901435749
 20
5.477984383967594
 10
43.716242522948555
 20
5.6020329790613195
 10
44.12248714321236
 20
5.725068567643006
 10
44.526953367243365
 20
5.847451290892936
 10
44.92942485519783
 20
5.96914571963397
 10
45.32993870885728
 20
6.089936135346386
 10
45.72853204858202
 20
6.209606711489174
 10
46.125167642539175
 20
6.328373922731096
 10
46.51973728364938
 20
6.446220270526164
 10
46.91238622503728
 20
6.562947858964524
 10
47.30289812685915
 20
6.678521258869037
 10
47.69132534844507
 20
6.793282680788827
 10
48.0774515127938
 20
6.907196911589348
 10
48.461638157137465
 20
7.020101808601749
 10
48.84348979646388
 20
7.131710254845575
 10
49.22322267772302
 20
7.242058219604424
 10
49.600818147840926
 20
7.351254156255259
 10
49.97602270945603
 20
7.459478678204538
 10
50.348854848433504
 20
7.566624304266931
 10
50.71954937190337
 20
7.672619090455517
 10
51.08780038601649
 20
7.777301655670214
 10
51.45375310673996
 20
7.880474320043741
 10
51.817243590717695
 20
7.982443648905515
 10
52.17836133621886
 20
8.083335918242353
 10
52.537016714922956
 20
8.183025608216475
 10
52.893209652514976
 20
8.281513150913051
 10
53.24688765961348
 20
8.378457091931994
 10
53.59810311412733
 20
8.474199533801139
 10
53.946658199235415
 20
8.568597350115423
 10
54.292623834448015
 20
8.661884838153478
 10
54.63605571888433
 20
8.753738150082489
 10
54.976864187066354
 20
8.844031982107255
 10
55.31499342840231
 20
8.933090830188338
 10
55.65044338715597
 20
9.02091501838962
 10
55.98321398901226
 20
9.107504978796257
 10
56.31312601448777
 20
9.192609455690112
 10
56.64043286805019
 20
9.27604837577117
 10
56.96493343024692
 20
9.358344454973743
 10
57.28653805417868
 20
9.43937228148133
 10
57.60535481687356
 20
9.519150109988965
 10
57.92131265019122
 20
9.597444507388357
 10
58.23428474971459
 20
9.674346104446604
 10
58.54446880221349
 20
9.74999878371782
 10
58.851704129805846
 20
9.82404348423463
 10
59.15595351923758
 20
9.896696572644514
 10
59.45723549353133
 20
9.967850351719544
 10
59.75549422351658
 20
10.03782942544158
 10
60.050766810974835
 20
10.10641807529089
 10
60.34294501166924
 20
10.173599018764083
 10
60.632047348622386
 20
10.23926455863323
 10
60.918163357260966
 20
10.303540754842578
 10
61.20105804466731
 20
10.366500631591954
 10
61.48073131794763
 20
10.428144728987814
 10
61.75730988862518
 20
10.488382956369518
 10
62.03081235403761
 20
10.54710718442397
 10
62.300966953903355
 20
10.604604211487468
 10
62.56788011174098
 20
10.660901906150011
 10
62.831609365966806
 20
10.7156657264709
 10
63.0920272247497
 20
10.76899030000504
 10
63.34909649341433
 20
10.821091885378605
 10
63.60296244366409
 20
10.871772478660445
 10
63.85342722152038
 20
10.920889169488085
 10
64.10056178365093
 20
10.968676039097563
 10
64.34434749556061
 20
11.015241432844556
 10
64.58467613159127
 20
11.060567960204366
 10
64.82158479352442
 20
11.104439902657278
 10
65.05505480970739
 20
11.146965821601546
 10
65.28504898546481
 20
11.18836197566335
 10
65.5115858252406
 20
11.22852077563606
 10
65.73459427947311
 20
11.267208680390095
 10
65.95407425526864
 20
11.304426230031911
 10
66.17005958893459
 20
11.340623332338565
 10
66.38246059641429
 20
11.375674791536147
 10
66.59127725912892
 20
11.409580715645953
 10
66.79652806294361
 20
11.442233623482636
 10
66.99810480077893
 20
11.473616016500218
 10
67.1961155682418
 20
11.503746041372432
 10
67.3904150193137
 20
11.5328221341156
 10
67.58104021861872
 20
11.560628792252587
 10
67.76795397148148
 20
11.587382274409562
 10
67.95130156818416
 20
11.612884468634093
 10
68.13082943705015
 20
11.6373164204178
 10
68.30662713208493
 20
11.660804081683631
 10
68.47860500638924
 20
11.683222040615105
 10
68.64688977148634
 20
11.704480206551565
 10
68.81133589557022
 20
11.724778095722257
 10
68.97208857602926
 20
11.743918136281193
 10
69.12887683288973
 20
11.762182589670413
 10
69.28193409845359
 20
11.7795075054786
 10
69.43104451592484
 20
11.79585464597503
 10
69.57631621806783
 20
11.811241941790861
 10
69.71774916772502
 20
11.825669608968669
 10
69.85532473040126
 20
11.83924599286413
 10
69.98895329635481
 20
11.851845465618174
 10
70.11859763375281
 20
11.863684501899556
 10
70.24438450985483
 20
11.87467268698376
 10
70.36618708308627
 20
11.884900867680473
 10
70.48402391362731
 20
11.894261130719194
 10
70.59787640414024
 20
11.902861605413005
 10
70.70776307764773
 20
11.910594594533988
 10
70.81366533681211
 20
11.91756822739523
 10
70.91554600553677
 20
11.923998654601625
 10
71.01333399710268
 20
11.929652551066173
 10
71.10722710975213
 20
11.93467315121522
 10
71.19688214348812
 20
11.939115980702619
 10
71.28264224257137
 20
11.942925837938393
 10
71.36429099284317
 20
11.946067725830579
 10
71.4417912182069
 20
11.94875779498406
 10
71.51526966734336
 20
11.950905738695614
 10
71.58461811459442
 20
11.95249416644054
 10
71.64979940244224
 20
11.953739120802439
 10
71.71095883974776
 20
11.954442381807572
 10
71.76795108049252
 20
11.954802385472266
 10
71.82079466627793
 20
11.954711326547296
 10
71.8694524395862
 20
11.954385247616266
 10
71.9139429791762
 20
11.953716127387375
 10
71.95435585763212
 20
11.952829809762283
 10
71.990474679374
 20
11.951691189627727
 10
72.02238907272228
 20
11.950425786821492
 10
72.05020720759885
 20
11.949051315932143
 10
72.07371268842371
 20
11.947532671846426
 10
72.09297652760087
 20
11.9461036117365
 10
72.1081255481262
 20
11.94467339681397
 10
72.1189061225868
 20
11.94342339663434
 10
72.12540793503943
 20
11.942478806971513
 10
72.12759377223004
 20
11.942055994472968
 10
72.01147652908799
 20
12.617189068214309
  0
ENDSEC
  0
SECTION
  2
OBJECTS
  0
DICTIONARY
  5
A
330
0
100
AcDbDictionary
280
0
281
1
  3
ACAD_COLOR
350
B
  3
ACAD_GROUP
350
C
  3
ACAD_LAYOUT
350
D
  3
ACAD_MATERIAL
350
E
  3
ACAD_MLEADERSTYLE
350
F
  3
ACAD_MLINESTYLE
350
10
  3
ACAD_PLOTSETTINGS
350
11
  3
ACAD_PLOTSTYLENAME
350
12
  3
ACAD_SCALELIST
350
14
  3
ACAD_TABLESTYLE
350
15
  3
ACAD_VISUALSTYLE
350
16
  3
EZDXF_META
350
2D
  0
DICTIONARY
  5
B
330
A
100
AcDbDictionary
280
0
281
1
  0
DICTIONARY
  5
C
330
A
100
AcDbDictionary
280
0
281
1
  0
DICTIONARY
  5
D
330
A
100
AcDbDictionary
280
0
281
1
  3
Model
350
1A
  3
Layout1
350
1E
  0
DICTIONARY
  5
E
330
A
100
AcDbDictionary
280
0
281
1
  3
ByBlock
350
1F
  3
ByLayer
350
20
  3
Global
350
21
  0
DICTIONARY
  5
F
330
A
100
AcDbDictionary
280
0
281
1
  3
Standard
350
2C
  0
DICTIONARY
  5
10
330
A
100
AcDbDictionary
280
0
281
1
  3
Standard
350
22
  0
DICTIONARY
  5
11
330
A
100
AcDbDictionary
280
0
281
1
  0
ACDBDICTIONARYWDFLT
  5
12
330
A
100
AcDbDictionary
280
0
281
1
  3
Normal
350
13
100
AcDbDictionaryWithDefault
340
13
  0
ACDBPLACEHOLDER
  5
13
330
12
  0
DICTIONARY
  5
14
330
A
100
AcDbDictionary
280
0
281
1
  0
DICTIONARY
  5
15
330
A
100
AcDbDictionary
280
0
281
1
  0
DICTIONARY
  5
16
330
A
100
AcDbDictionary
280
0
281
1
  0
LAYOUT
  5
1A
330
D
100
AcDbPlotSettings
  1

  4
A3
  6

 40
7.5
 41
20.0
 42
7.5
 43
20.0
 44
420.0
 45
297.0
 46
0.0
 47
0.0
 48
0.0
 49
0.0
140
0.0
141
0.0
142
1.0
143
1.0
 70
1024
 72
1
 73
0
 74
5
  7

 75
16
 76
0
 77
2
 78
300
147
1.0
148
0.0
149
0.0
100
AcDbLayout
  1
Model
 70
1
 71
0
 10
0.0
 20
0.0
 11
420.0
 21
297.0
 12
0.0
 22
0.0
 32
0.0
 14
1e+20
 24
1e+20
 34
1e+20
 15
-1e+20
 25
-1e+20
 35
-1e+20
146
0.0
 13
0.0
 23
0.0
 33
0.0
 16
1.0
 26
0.0
 36
0.0
 17
0.0
 27
1.0
 37
0.0
 76
1
330
17
  0
LAYOUT
  5
1E
330
D
100
AcDbPlotSettings
  1

  4
A3
  6

 40
7.5
 41
20.0
 42
7.5
 43
20.0
 44
420.0
 45
297.0
 46
0.0
 47
0.0
 48
0.0
 49
0.0
140
0.0
141
0.0
142
1.0
143
1.0
 70
0
 72
1
 73
0
 74
5
  7

 75
16
 76
0
 77
2
 78
300
147
1.0
148
0.0
149
0.0
100
AcDbLayout
  1
Layout1
 70
1
 71
1
 10
0.0
 20
0.0
 11
420.0
 21
297.0
 12
0.0
 22
0.0
 32
0.0
 14
1e+20
 24
1e+20
 34
1e+20
 15
-1e+20
 25
-1e+20
 35
-1e+20
146
0.0
 13
0.0
 23
0.0
 33
0.0
 16
1.0
 26
0.0
 36
0.0
 17
0.0
 27
1.0
 37
0.0
 76
1
330
1B
  0
MATERIAL
  5
1F
102
{ACAD_REACTORS
330
E
102
}
330
E
100
AcDbMaterial
  1
ByBlock
  2

 70
0
 40
1.0
 71
1
 41
1.0
 91
-1023410177
 42
1.0
 72
1
  3

 73
1
 74
1
 75
1
 44
0.5
 73
0
 45
1.0
 46
1.0
 77
1
  4

 78
1
 79
1
170
1
 48
1.0
171
1
  6

172
1
173
1
174
1
140
1.0
141
1.0
175
1
  7

176
1
177
1
178
1
143
1.0
179
1
  8

270
1
271
1
272
1
145
1.0
146
1.0
273
1
  9

274
1
275
1
276
1
 42
1.0
 72
1
  3

 73
1
 74
1
 75
1
 94
63
  0
MATERIAL
  5
20
102
{ACAD_REACTORS
330
E
102
}
330
E
100
AcDbMaterial
  1
ByLayer
  2

 70
0
 40
1.0
 71
1
 41
1.0
 91
-1023410177
 42
1.0
 72
1
  3

 73
1
 74
1
 75
1
 44
0.5
 73
0
 45
1.0
 46
1.0
 77
1
  4

 78
1
 79
1
170
1
 48
1.0
171
1
  6

172
1
173
1
174
1
140
1.0
141
1.0
175
1
  7

176
1
177
1
178
1
143
1.0
179
1
  8

270
1
271
1
272
1
145
1.0
146
1.0
273
1
  9

274
1
275
1
276
1
 42
1.0
 72
1
  3

 73
1
 74
1
 75
1
 94
63
  0
MATERIAL
  5
21
102
{ACAD_REACTORS
330
E
102
}
330
E
100
AcDbMaterial
  1
Global
  2

 70
0
 40
1.0
 71
1
 41
1.0
 91
-1023410177
 42
1.0
 72
1
  3

 73
1
 74
1
 75
1
 44
0.5
 73
0
 45
1.0
 46
1.0
 77
1
  4

 78
1
 79
1
170
1
 48
1.0
171
1
  6

172
1
173
1
174
1
140
1.0
141
1.0
175
1
  7

176
1
177
1
178
1
143
1.0
179
1
  8

270
1
271
1
272
1
145
1.0
146
1.0
273
1
  9

274
1
275
1
276
1
 42
1.0
 72
1
  3

 73
1
 74
1
 75
1
 94
63
  0
MLINESTYLE
  5
22
102
{ACAD_REACTORS
330
10
102
}
330
10
100
AcDbMlineStyle
  2
Standard
 70
0
  3

 62
256
 51
90.0
 52
90.0
 71
2
 49
0.5
 62
256
  6
BYLAYER
 49
-0.5
 62
256
  6
BYLAYER
  0
MLEADERSTYLE
  5
2C
102
{ACAD_REACTORS
330
F
102
}
330
F
100
AcDbMLeaderStyle
179
2
170
2
171
1
172
0
 90
2
 40
0.0
 41
0.0
173
1
 91
-1056964608
 92
-2
290
1
 42
2.0
291
1
 43
8.0
  3
Standard
 44
4.0
300

342
29
174
1
175
1
176
0
178
1
 93
-1056964608
 45
4.0
292
0
297
0
 46
4.0
 94
-1056964608
 47
1.0
 49
1.0
140
1.0
294
1
141
0.0
177
0
142
1.0
295
0
296
0
143
3.75
271
0
272
9
273
9
  0
DICTIONARY
  5
2D
330
A
100
AcDbDictionary
280
1
281
1
  3
CREATED_BY_EZDXF
350
2E
  3
WRITTEN_BY_EZDXF
350
32
  0
DICTIONARYVAR
  5
2E
330
2D
100
DictionaryVariables
280
0
  1
1.3.5 @ 2025-08-22T23:49:56.775483+00:00
  0
DICTIONARYVAR
  5
32
330
2D
100
DictionaryVariables
280
0
  1
1.3.5 @ 2025-08-22T23:49:56.775483+00:00
  0
ENDSEC
  0
EOF
