  0
SECTION
  2
HEADER
  9
$ACADVER
  1
AC1032
  9
$ACADMAINTVER
 90
4
  9
$DWGCODEPAGE
  3
ANSI_1252
  9
$LASTSAVEDBY
  1
ezdxf
  9
$REQUIREDVERSIONS
160
0
  9
$INSBASE
 10
0.0
 20
0.0
 30
0.0
  9
$EXTMIN
 10
1e+20
 20
1e+20
 30
1e+20
  9
$EXTMAX
 10
-1e+20
 20
-1e+20
 30
-1e+20
  9
$LIMMIN
 10
0.0
 20
0.0
  9
$LIMMAX
 10
420.0
 20
297.0
  9
$ORTHOMODE
 70
0
  9
$REGENMODE
 70
1
  9
$FILLMODE
 70
1
  9
$QTEXTMODE
 70
0
  9
$MIRRTEXT
 70
1
  9
$LTSCALE
 40
1.0
  9
$ATTMODE
 70
1
  9
$TEXTSIZE
 40
2.5
  9
$TRACEWID
 40
1.0
  9
$TEXTSTYLE
  7
Standard
  9
$CLAYER
  8
0
  9
$CELTYPE
  6
ByLayer
  9
$CECOLOR
 62
256
  9
$CELTSCALE
 40
1.0
  9
$DISPSILH
 70
0
  9
$DIMSCALE
 40
1.0
  9
$DIMASZ
 40
2.5
  9
$DIMEXO
 40
0.625
  9
$DIMDLI
 40
3.75
  9
$DIMRND
 40
0.0
  9
$DIMDLE
 40
0.0
  9
$DIMEXE
 40
1.25
  9
$DIMTP
 40
0.0
  9
$DIMTM
 40
0.0
  9
$DIMTXT
 40
2.5
  9
$DIMCEN
 40
2.5
  9
$DIMTSZ
 40
0.0
  9
$DIMTOL
 70
0
  9
$DIMLIM
 70
0
  9
$DIMTIH
 70
0
  9
$DIMTOH
 70
0
  9
$DIMSE1
 70
0
  9
$DIMSE2
 70
0
  9
$DIMTAD
 70
1
  9
$DIMZIN
 70
8
  9
$DIMBLK
  1

  9
$DIMASO
 70
1
  9
$DIMSHO
 70
1
  9
$DIMPOST
  1

  9
$DIMAPOST
  1

  9
$DIMALT
 70
0
  9
$DIMALTD
 70
3
  9
$DIMALTF
 40
0.03937007874
  9
$DIMLFAC
 40
1.0
  9
$DIMTOFL
 70
1
  9
$DIMTVP
 40
0.0
  9
$DIMTIX
 70
0
  9
$DIMSOXD
 70
0
  9
$DIMSAH
 70
0
  9
$DIMBLK1
  1

  9
$DIMBLK2
  1

  9
$DIMSTYLE
  2
ISO-25
  9
$DIMCLRD
 70
0
  9
$DIMCLRE
 70
0
  9
$DIMCLRT
 70
0
  9
$DIMTFAC
 40
1.0
  9
$DIMGAP
 40
0.625
  9
$DIMJUST
 70
0
  9
$DIMSD1
 70
0
  9
$DIMSD2
 70
0
  9
$DIMTOLJ
 70
0
  9
$DIMTZIN
 70
8
  9
$DIMALTZ
 70
0
  9
$DIMALTTZ
 70
0
  9
$DIMUPT
 70
0
  9
$DIMDEC
 70
2
  9
$DIMTDEC
 70
2
  9
$DIMALTU
 70
2
  9
$DIMALTTD
 70
3
  9
$DIMTXSTY
  7
Standard
  9
$DIMAUNIT
 70
0
  9
$DIMADEC
 70
0
  9
$DIMALTRND
 40
0.0
  9
$DIMAZIN
 70
0
  9
$DIMDSEP
 70
44
  9
$DIMATFIT
 70
3
  9
$DIMFRAC
 70
0
  9
$DIMLDRBLK
  1

  9
$DIMLUNIT
 70
2
  9
$DIMLWD
 70
-2
  9
$DIMLWE
 70
-2
  9
$DIMTMOVE
 70
0
  9
$DIMFXL
 40
1.0
  9
$DIMFXLON
 70
0
  9
$DIMJOGANG
 40
0.785398163397
  9
$DIMTFILL
 70
0
  9
$DIMTFILLCLR
 70
0
  9
$DIMARCSYM
 70
0
  9
$DIMLTYPE
  6

  9
$DIMLTEX1
  6

  9
$DIMLTEX2
  6

  9
$DIMTXTDIRECTION
 70
0
  9
$LUNITS
 70
2
  9
$LUPREC
 70
4
  9
$SKETCHINC
 40
1.0
  9
$FILLETRAD
 40
10.0
  9
$AUNITS
 70
0
  9
$AUPREC
 70
2
  9
$MENU
  1
.
  9
$ELEVATION
 40
0.0
  9
$PELEVATION
 40
0.0
  9
$THICKNESS
 40
0.0
  9
$LIMCHECK
 70
0
  9
$CHAMFERA
 40
0.0
  9
$CHAMFERB
 40
0.0
  9
$CHAMFERC
 40
0.0
  9
$CHAMFERD
 40
0.0
  9
$SKPOLY
 70
0
  9
$TDCREATE
 40
2460911.034675926
  9
$TDUCREATE
 40
2458532.153996898
  9
$TDUPDATE
 40
2460911.034675926
  9
$TDUUPDATE
 40
2458532.1544311
  9
$TDINDWG
 40
0.0
  9
$TDUSRTIMER
 40
0.0
  9
$USRTIMER
 70
1
  9
$ANGBASE
 50
0.0
  9
$ANGDIR
 70
0
  9
$PDMODE
 70
0
  9
$PDSIZE
 40
0.0
  9
$PLINEWID
 40
0.0
  9
$SPLFRAME
 70
0
  9
$SPLINETYPE
 70
6
  9
$SPLINESEGS
 70
8
  9
$HANDSEED
  5
33
  9
$SURFTAB1
 70
6
  9
$SURFTAB2
 70
6
  9
$SURFTYPE
 70
6
  9
$SURFU
 70
6
  9
$SURFV
 70
6
  9
$UCSBASE
  2

  9
$UCSNAME
  2

  9
$UCSORG
 10
0.0
 20
0.0
 30
0.0
  9
$UCSXDIR
 10
1.0
 20
0.0
 30
0.0
  9
$UCSYDIR
 10
0.0
 20
1.0
 30
0.0
  9
$UCSORTHOREF
  2

  9
$UCSORTHOVIEW
 70
0
  9
$UCSORGTOP
 10
0.0
 20
0.0
 30
0.0
  9
$UCSORGBOTTOM
 10
0.0
 20
0.0
 30
0.0
  9
$UCSORGLEFT
 10
0.0
 20
0.0
 30
0.0
  9
$UCSORGRIGHT
 10
0.0
 20
0.0
 30
0.0
  9
$UCSORGFRONT
 10
0.0
 20
0.0
 30
0.0
  9
$UCSORGBACK
 10
0.0
 20
0.0
 30
0.0
  9
$PUCSBASE
  2

  9
$PUCSNAME
  2

  9
$PUCSORG
 10
0.0
 20
0.0
 30
0.0
  9
$PUCSXDIR
 10
1.0
 20
0.0
 30
0.0
  9
$PUCSYDIR
 10
0.0
 20
1.0
 30
0.0
  9
$PUCSORTHOREF
  2

  9
$PUCSORTHOVIEW
 70
0
  9
$PUCSORGTOP
 10
0.0
 20
0.0
 30
0.0
  9
$PUCSORGBOTTOM
 10
0.0
 20
0.0
 30
0.0
  9
$PUCSORGLEFT
 10
0.0
 20
0.0
 30
0.0
  9
$PUCSORGRIGHT
 10
0.0
 20
0.0
 30
0.0
  9
$PUCSORGFRONT
 10
0.0
 20
0.0
 30
0.0
  9
$PUCSORGBACK
 10
0.0
 20
0.0
 30
0.0
  9
$USERI1
 70
0
  9
$USERI2
 70
0
  9
$USERI3
 70
0
  9
$USERI4
 70
0
  9
$USERI5
 70
0
  9
$USERR1
 40
0.0
  9
$USERR2
 40
0.0
  9
$USERR3
 40
0.0
  9
$USERR4
 40
0.0
  9
$USERR5
 40
0.0
  9
$WORLDVIEW
 70
1
  9
$SHADEDGE
 70
3
  9
$SHADEDIF
 70
70
  9
$TILEMODE
 70
1
  9
$MAXACTVP
 70
64
  9
$PINSBASE
 10
0.0
 20
0.0
 30
0.0
  9
$PLIMCHECK
 70
0
  9
$PEXTMIN
 10
1e+20
 20
1e+20
 30
1e+20
  9
$PEXTMAX
 10
-1e+20
 20
-1e+20
 30
-1e+20
  9
$PLIMMIN
 10
0.0
 20
0.0
  9
$PLIMMAX
 10
420.0
 20
297.0
  9
$UNITMODE
 70
0
  9
$VISRETAIN
 70
1
  9
$PLINEGEN
 70
0
  9
$PSLTSCALE
 70
1
  9
$TREEDEPTH
 70
3020
  9
$CMLSTYLE
  2
Standard
  9
$CMLJUST
 70
0
  9
$CMLSCALE
 40
20.0
  9
$PROXYGRAPHICS
 70
1
  9
$MEASUREMENT
 70
1
  9
$CELWEIGHT
370
-1
  9
$ENDCAPS
280
0
  9
$JOINSTYLE
280
0
  9
$LWDISPLAY
290
0
  9
$INSUNITS
 70
6
  9
$HYPERLINKBASE
  1

  9
$STYLESHEET
  1

  9
$XEDIT
290
1
  9
$CEPSNTYPE
380
0
  9
$PSTYLEMODE
290
1
  9
$FINGERPRINTGUID
  2
{61D4C58F-37A4-416C-AF67-2EFFC768B93C}
  9
$VERSIONGUID
  2
{3473B507-B1FB-4C03-8559-3AEBC651D9A9}
  9
$EXTNAMES
290
1
  9
$PSVPSCALE
 40
0.0
  9
$OLESTARTUP
290
0
  9
$SORTENTS
280
127
  9
$INDEXCTL
280
0
  9
$HIDETEXT
280
1
  9
$XCLIPFRAME
280
1
  9
$HALOGAP
280
0
  9
$OBSCOLOR
 70
257
  9
$OBSLTYPE
280
0
  9
$INTERSECTIONDISPLAY
280
0
  9
$INTERSECTIONCOLOR
 70
257
  9
$DIMASSOC
280
2
  9
$PROJECTNAME
  1

  9
$CAMERADISPLAY
290
0
  9
$LENSLENGTH
 40
50.0
  9
$CAMERAHEIGHT
 40
0.0
  9
$STEPSPERSEC
 40
24.0
  9
$STEPSIZE
 40
100.0
  9
$3DDWFPREC
 40
2.0
  9
$PSOLWIDTH
 40
0.005
  9
$PSOLHEIGHT
 40
0.08
  9
$LOFTANG1
 40
1.570796326795
  9
$LOFTANG2
 40
1.570796326795
  9
$LOFTMAG1
 40
0.0
  9
$LOFTMAG2
 40
0.0
  9
$LOFTPARAM
 70
7
  9
$LOFTNORMALS
280
1
  9
$LATITUDE
 40
37.795
  9
$LONGITUDE
 40
-122.394
  9
$NORTHDIRECTION
 40
0.0
  9
$TIMEZONE
 70
-8000
  9
$LIGHTGLYPHDISPLAY
280
1
  9
$TILEMODELIGHTSYNCH
280
1
  9
$CMATERIAL
347
20
  9
$SOLIDHIST
280
0
  9
$SHOWHIST
280
1
  9
$DWFFRAME
280
2
  9
$DGNFRAME
280
2
  9
$REALWORLDSCALE
290
1
  9
$INTERFERECOLOR
 62
256
  9
$CSHADOW
280
0
  9
$SHADOWPLANELOCATION
 40
0.0
  0
ENDSEC
  0
SECTION
  2
CLASSES
  0
CLASS
  1
ACDBDICTIONARYWDFLT
  2
AcDbDictionaryWithDefault
  3
ObjectDBX Classes
 90
0
 91
0
280
0
281
0
  0
CLASS
  1
SUN
  2
AcDbSun
  3
SCENEOE
 90
1153
 91
0
280
0
281
0
  0
CLASS
  1
VISUALSTYLE
  2
AcDbVisualStyle
  3
ObjectDBX Classes
 90
4095
 91
0
280
0
281
0
  0
CLASS
  1
MATERIAL
  2
AcDbMaterial
  3
ObjectDBX Classes
 90
1153
 91
0
280
0
281
0
  0
CLASS
  1
SCALE
  2
AcDbScale
  3
ObjectDBX Classes
 90
1153
 91
0
280
0
281
0
  0
CLASS
  1
TABLESTYLE
  2
AcDbTableStyle
  3
ObjectDBX Classes
 90
4095
 91
0
280
0
281
0
  0
CLASS
  1
MLEADERSTYLE
  2
AcDbMLeaderStyle
  3
ACDB_MLEADERSTYLE_CLASS
 90
4095
 91
0
280
0
281
0
  0
CLASS
  1
DICTIONARYVAR
  2
AcDbDictionaryVar
  3
ObjectDBX Classes
 90
0
 91
0
280
0
281
0
  0
CLASS
  1
CELLSTYLEMAP
  2
AcDbCellStyleMap
  3
ObjectDBX Classes
 90
1152
 91
0
280
0
281
0
  0
CLASS
  1
MENTALRAYRENDERSETTINGS
  2
AcDbMentalRayRenderSettings
  3
SCENEOE
 90
1024
 91
0
280
0
281
0
  0
CLASS
  1
ACDBDETAILVIEWSTYLE
  2
AcDbDetailViewStyle
  3
ObjectDBX Classes
 90
1025
 91
0
280
0
281
0
  0
CLASS
  1
ACDBSECTIONVIEWSTYLE
  2
AcDbSectionViewStyle
  3
ObjectDBX Classes
 90
1025
 91
0
280
0
281
0
  0
CLASS
  1
RASTERVARIABLES
  2
AcDbRasterVariables
  3
ISM
 90
0
 91
0
280
0
281
0
  0
CLASS
  1
LAYOUT
  2
AcDbLayout
  3
ObjectDBX Classes
 90
0
 91
0
280
0
281
0
  0
CLASS
  1
ACDBPLACEHOLDER
  2
AcDbPlaceHolder
  3
ObjectDBX Classes
 90
0
 91
0
280
0
281
0
  0
ENDSEC
  0
SECTION
  2
TABLES
  0
TABLE
  2
VPORT
  5
8
330
0
100
AcDbSymbolTable
 70
1
  0
VPORT
  5
23
330
8
100
AcDbSymbolTableRecord
100
AcDbViewportTableRecord
  2
*Active
 70
0
 10
0.0
 20
0.0
 11
1.0
 21
1.0
 12
0.0
 22
0.0
 13
0.0
 23
0.0
 14
0.5
 24
0.5
 15
0.5
 25
0.5
 16
0.0
 26
0.0
 36
1.0
 17
0.0
 27
0.0
 37
0.0
 40
1000.0
 41
1.34
 42
50.0
 43
0.0
 44
0.0
 50
0.0
 51
0.0
 71
0
 72
1000
 73
1
 74
3
 75
0
 76
0
 77
0
 78
0
281
0
 65
0
146
0.0
  0
ENDTAB
  0
TABLE
  2
LTYPE
  5
2
330
0
100
AcDbSymbolTable
 70
3
  0
LTYPE
  5
24
330
2
100
AcDbSymbolTableRecord
100
AcDbLinetypeTableRecord
  2
ByBlock
 70
0
  3

 72
65
 73
0
 40
0.0
  0
LTYPE
  5
25
330
2
100
AcDbSymbolTableRecord
100
AcDbLinetypeTableRecord
  2
ByLayer
 70
0
  3

 72
65
 73
0
 40
0.0
  0
LTYPE
  5
26
330
2
100
AcDbSymbolTableRecord
100
AcDbLinetypeTableRecord
  2
Continuous
 70
0
  3

 72
65
 73
0
 40
0.0
  0
ENDTAB
  0
TABLE
  2
LAYER
  5
1
330
0
100
AcDbSymbolTable
 70
2
  0
LAYER
  5
27
330
1
100
AcDbSymbolTableRecord
100
AcDbLayerTableRecord
  2
0
 70
0
 62
7
  6
Continuous
370
-3
390
13
347
21
  0
LAYER
  5
28
330
1
100
AcDbSymbolTableRecord
100
AcDbLayerTableRecord
  2
Defpoints
 70
0
 62
7
  6
Continuous
290
0
370
-3
390
13
347
21
  0
ENDTAB
  0
TABLE
  2
STYLE
  5
5
330
0
100
AcDbSymbolTable
 70
1
  0
STYLE
  5
29
330
5
100
AcDbSymbolTableRecord
100
AcDbTextStyleTableRecord
  2
Standard
 70
0
 40
0.0
 41
1.0
 50
0.0
 71
0
 42
2.5
  3
txt
  4

  0
ENDTAB
  0
TABLE
  2
VIEW
  5
7
330
0
100
AcDbSymbolTable
 70
0
  0
ENDTAB
  0
TABLE
  2
UCS
  5
6
330
0
100
AcDbSymbolTable
 70
0
  0
ENDTAB
  0
TABLE
  2
APPID
  5
3
330
0
100
AcDbSymbolTable
 70
3
  0
APPID
  5
2A
330
3
100
AcDbSymbolTableRecord
100
AcDbRegAppTableRecord
  2
ACAD
 70
0
  0
APPID
  5
30
330
3
100
AcDbSymbolTableRecord
100
AcDbRegAppTableRecord
  2
HATCHBACKGROUNDCOLOR
 70
0
  0
APPID
  5
31
330
3
100
AcDbSymbolTableRecord
100
AcDbRegAppTableRecord
  2
EZDXF
 70
0
  0
ENDTAB
  0
TABLE
  2
DIMSTYLE
  5
4
330
0
100
AcDbSymbolTable
 70
1
100
AcDbDimStyleTable
  0
DIMSTYLE
105
2B
330
4
100
AcDbSymbolTableRecord
100
AcDbDimStyleTableRecord
  2
Standard
 70
0
 40
1.0
 41
2.5
 42
0.625
 43
3.75
 44
1.25
 45
0.0
 46
0.0
 47
0.0
 48
0.0
 49
2.5
140
2.5
141
2.5
142
0.0
143
0.03937007874
144
1.0
145
0.0
146
1.0
147
0.625
148
0.0
 69
0
 70
0
 71
0
 72
0
 73
0
 74
0
 75
0
 76
0
 77
1
 78
8
 79
3
170
0
171
3
172
1
173
0
174
0
175
0
176
0
177
0
178
0
179
2
271
2
272
2
273
2
274
3
275
0
276
0
277
2
278
44
279
0
280
0
281
0
282
0
283
0
284
8
285
0
286
0
288
0
289
3
290
0
371
-2
372
-2
  0
ENDTAB
  0
TABLE
  2
BLOCK_RECORD
  5
9
330
0
100
AcDbSymbolTable
 70
2
  0
BLOCK_RECORD
  5
17
330
9
100
AcDbSymbolTableRecord
100
AcDbBlockTableRecord
  2
*Model_Space
340
1A
 70
0
280
1
281
0
  0
BLOCK_RECORD
  5
1B
330
9
100
AcDbSymbolTableRecord
100
AcDbBlockTableRecord
  2
*Paper_Space
340
1E
 70
0
280
1
281
0
  0
ENDTAB
  0
ENDSEC
  0
SECTION
  2
BLOCKS
  0
BLOCK
  5
18
330
17
100
AcDbEntity
  8
0
100
AcDbBlockBegin
  2
*Model_Space
 70
0
 10
0.0
 20
0.0
 30
0.0
  3
*Model_Space
  1

  0
ENDBLK
  5
19
330
17
100
AcDbEntity
  8
0
100
AcDbBlockEnd
  0
BLOCK
  5
1C
330
1B
100
AcDbEntity
  8
0
100
AcDbBlockBegin
  2
*Paper_Space
 70
0
 10
0.0
 20
0.0
 30
0.0
  3
*Paper_Space
  1

  0
ENDBLK
  5
1D
330
1B
100
AcDbEntity
  8
0
100
AcDbBlockEnd
  0
ENDSEC
  0
SECTION
  2
ENTITIES
  0
LWPOLYLINE
  5
2F
330
17
100
AcDbEntity
  8
0
100
AcDbPolyline
 90
722
 70
1
 10
91.1900971400283
 20
31.91280058873796
 10
91.1871734126229
 20
31.91283280015539
 10
91.1784971603923
 20
31.912655430743257
 10
91.16425791138464
 20
31.91172143122753
 10
91.14422458191073
 20
31.910255334722873
 10
91.1188120640265
 20
31.907944529372255
 10
91.08783664420038
 20
31.904876820188104
 10
91.05120925438092
 20
31.90086682970821
 10
91.00920272356872
 20
31.8960119935174
 10
90.96172798371234
 20
31.89012693415346
 10
90.90855380886984
 20
31.883436595325996
 10
90.85004786319226
 20
31.875764682685347
 10
90.78607361363531
 20
31.86706282060149
 10
90.7165836426238
 20
31.8574678740417
 10
90.64167278530822
 20
31.846706113071484
 10
90.56124611170293
 20
31.83505154135527
 10
90.47548747759222
 20
31.82241594328572
 10
90.38426034993186
 20
31.808750943232862
 10
90.28751731114669
 20
31.79419340616392
 10
90.185489539761
 20
31.778518525234293
 10
90.07794571499772
 20
31.76195151788349
 10
89.96498062458976
 20
31.744218791042
 10
89.84677221496959
 20
31.725691647094088
 10
89.72295858908531
 20
31.70608727299274
 10
89.59394891931133
 20
31.68555202741264
 10
89.45947032922956
 20
31.66398861163393
 10
89.31965911479628
 20
31.641446085611424
 10
89.17451522859399
 20
31.617924586210115
 10
89.02399120562986
 20
31.5935611152622
 10
88.86808690365115
 20
31.568356083362573
 10
88.70689711039074
 20
31.54203589744173
 10
88.54032694328059
 20
31.514874424299116
 10
88.36856006843475
 20
31.486783995787285
 10
88.19141263006884
 20
31.457852827513545
 10
88.0089792736631
 20
31.427807737003302
 10
87.82130160227608
 20
31.396971103550943
 10
87.62833205607984
 20
31.365480202718615
 10
87.43021279296495
 20
31.332924713334556
 10
87.22671239731909
 20
31.29953012656818
 10
87.01815111571813
 20
31.265257013037104
 10
86.8042085119159
 20
31.23014534958359
 10
86.58515736749543
 20
31.194292708657436
 10
86.36086110199496
 20
31.157650851493628
 10
86.13145605878832
 20
31.120268701182006
 10
85.89685307498902
 20
31.081961153990324
 10
85.65718849397093
 20
31.042777133008432
 10
85.4122309001218
 20
31.00294212940578
 10
85.16230049259991
 20
30.962416850664937
 10
84.90726069094339
 20
30.921153058020856
 10
84.6471114003171
 20
30.87915102520348
 10
84.3818523836332
 20
30.836411436537645
 10
84.11157266152553
 20
30.79311980635053
 10
83.83618297627233
 20
30.749091304639776
 10
83.55577230108986
 20
30.70451158259753
 10
83.27038781646553
 20
30.659244459581398
 10
82.98012431013217
 20
30.613016342521863
 10
82.68502319547811
 20
30.566150158173205
 10
82.38485310430866
 20
30.518871260839887
 10
82.07961379953598
 20
30.471180334846768
 10
81.76958392467722
 20
30.422715571517017
 10
81.45471587248684
 20
30.373614383277747
 10
81.1350095481297
 20
30.323877043858886
 10
80.81032246179227
 20
30.27391483248699
 10
80.48089155909791
 20
30.22304383492077
 10
80.14675834827008
 20
30.171586704184552
 10
79.80787526948086
 20
30.119680715840488
 10
79.46405827727567
 20
30.06741463295575
 10
79.1156275233951
 20
30.01474929987787
 10
78.76249379753506
 20
29.961499749739545
 10
78.40465700486031
 20
29.90766625627069
 10
78.04215855875925
 20
29.853571746225604
 10
77.67518793986244
 20
29.798669307195194
 10
77.30351377997519
 20
29.74318429348393
 10
76.92736134827017
 20
29.687351416238794
 10
76.5467305024946
 20
29.631171086054678
 10
76.16157949733716
 20
29.574321334232085
 10
75.77186067813477
 20
29.516939710063085
 10
75.37784682647033
 20
29.459123785997463
 10
74.9793064793141
 20
29.401099190069633
 10
74.57638174713902
 20
29.342455737972806
 10
74.1692089259014
 20
29.283242489661784
 10
73.7577878733485
 20
29.223459855731473
 10
73.34202351724205
 20
29.163382250441202
 10
72.92191571532928
 20
29.103010084385858
 10
72.49751174293272
 20
29.04220690319311
 10
72.06913179921055
 20
28.980933414345508
 10
71.63645530566396
 20
28.919230005280237
 10
71.19961860566687
 20
28.85714559908716
 10
70.75890029531888
 20
28.794318523954423
 10
70.31411623433019
 20
28.73083781667913
 10
69.86526051334914
 20
28.667162995252877
 10
69.41246947574956
 20
28.60334298276551
 10
68.95556474834079
 20
28.539007708617483
 10
68.4949614602666
 20
28.47384387662692
 10
68.03046975155583
 20
28.408399494122662
 10
67.5621368975309
 20
28.342538106732338
 10
67.0899152909464
 20
28.276397126883097
 10
66.61403606290902
 20
28.209751884595264
 10
66.13449911858365
 20
28.142602653598775
 10
65.65116773525573
 20
28.074901605723507
 10
65.16426732435065
 20
28.006883041521537
 10
64.67366125798901
 20
27.938498859092785
 10
64.1795807146952
 20
27.86952425159265
 10
63.68202550479887
 20
27.79995976648099
 10
63.18113201909155
 20
27.729854189982706
 10
62.67671611728347
 20
27.65929655889491
 10
62.168819355015685
 20
27.58860938937697
 10
61.657447214881785
 20
27.51733439522202
 10
61.142961831021616
 20
27.445753705152246
 10
60.625279617977306
 20
27.37322365549857
 10
60.10435292108577
 20
27.299881795553063
 10
59.580312458874616
 20
27.226235745207365
 10
59.05311062409835
 20
27.152422916888593
 10
58.522616461141446
 20
27.07793637502993
 10
57.98947084249608
 20
27.00269616594682
 10
57.45331139693451
 20
26.9264208452419
 10
56.91426874814919
 20
26.849618306536748
 10
56.37215880326799
 20
26.772377449763507
 10
55.8273019511194
 20
26.69465843494487
 10
55.279703769132134
 20
26.61600270214402
 10
54.729405812947235
 20
26.536732767520327
 10
54.17631305774396
 20
26.457122908468136
 10
53.62066249656327
 20
26.3764890738812
 10
53.06250140472766
 20
26.294694809387174
 10
52.5018656656143
 20
26.212521464812156
 10
51.93852944103969
 20
26.129735971388822
 10
51.37271828468185
 20
26.046572219074303
 10
50.804716607157005
 20
25.96220929179512
 10
50.23447684863717
 20
25.876784465113396
 10
49.6619040791368
 20
25.790571742693558
 10
49.08685580884229
 20
25.703982403762144
 10
48.50979486897814
 20
25.616565465980262
 10
47.930637531833796
 20
25.527677676273736
 10
47.349651286068934
 20
25.437874345839365
 10
46.766325645795995
 20
25.347744006308123
 10
46.18098686177765
 20
25.25678743657607
 10
45.59382436722693
 20
25.164457861099102
 10
45.005016535334526
 20
25.071125350476777
 10
44.41424255051376
 20
24.976830976471106
 10
43.82172810869543
 20
24.88180821844437
 10
43.227383904740215
 20
24.785872383259182
 10
42.6314413068428
 20
24.688798116611068
 10
42.03403684804738
 20
24.590633794130024
 10
41.43503375822188
 20
24.491331724510886
 10
40.83470524570743
 20
24.39098824841874
 10
40.23277791249261
 20
24.289507572648372
 10
39.629430036932945
 20
24.187260041529278
 10
39.02470908402124
 20
24.084108653229247
 10
38.418851951963326
 20
23.979369630371966
 10
37.811763710773576
 20
23.87331697662183
 10
37.2036701986355
 20
23.766183760746202
 10
36.59425059996244
 20
23.658011054507107
 10
35.98387295824598
 20
23.54862146863515
 10
35.37258464364378
 20
23.437878275028062
 10
34.760433026313464
 20
23.325644745583563
 10
34.1473230814343
 20
23.21219515769601
 10
33.533344114145585
 20
23.097714204502754
 10
32.91849598219458
 20
22.9822022965987
 10
32.30305756618631
 20
22.865296940982194
 10
31.68693956098153
 20
22.746813444515876
 10
31.07032596461718
 20
22.62666318099753
 10
30.453211199664572
 20
22.505304710363948
 10
29.83531624326594
 20
22.383100936211708
 10
29.217009281165613
 20
22.259874058676502
 10
28.598532931250848
 20
22.134481329850313
 10
27.979602545817585
 20
22.007744350131457
 10
27.36044420013721
 20
21.879895503962462
 10
26.741015864392942
 20
21.750613643833635
 10
26.12136500357753
 20
21.61976176791275
 10
25.50162266814166
 20
21.48784653803668
 10
24.88169964778117
 20
21.35468298733814
 10
24.261874775683502
 20
21.219908759680425
 10
23.642011329134156
 20
21.08347602689341
 10
23.022335383404513
 20
20.945617173419627
 10
22.402799426084197
 20
20.806469337956244
 10
21.783545757316464
 20
20.665621788736573
 10
21.16452686469091
 20
20.523211664457783
 10
20.54583210076443
 20
20.379423521392276
 10
19.927182490096826
 20
20.234620126271647
 10
19.30913598356847
 20
20.088075945632706
 10
18.69169258117935
 20
19.93979097947545
 10
18.07480491277183
 20
19.78990195590216
 10
17.45842546593553
 20
19.63854601361
 10
16.842738523212912
 20
19.48563370520695
 10
16.227559896896654
 20
19.3312542043551
 10
15.61321049740861
 20
19.175366165562494
 10
14.999785207316771
 20
19.017695722029675
 10
14.387236609045939
 20
18.858379738723894
 10
13.77551733243843
 20
18.69755494374741
 10
13.164674795069509
 20
18.535084472132997
 10
12.555077467188914
 20
18.370789702826546
 10
11.946493696096557
 20
18.20489681132235
 10
11.338965511609235
 20
18.037726945130107
 10
10.732593231470949
 20
17.86854808810846
 10
10.127555608213013
 20
17.697729215937244
 10
9.523710531362502
 20
17.525680512923266
 10
8.921063388677839
 20
17.351943966589587
 10
8.319982745243934
 20
17.17634068215218
 10
7.720373813327924
 20
16.999144252680548
 10
7.122194610530591
 20
16.820033393800024
 10
6.52562403163596
 20
16.63937667059553
 10
5.930620141662402
 20
16.456852661827437
 10
5.337409205551583
 20
16.27269320447839
 10
4.745575430313669
 20
16.087213510839792
 10
4.155487381033587
 20
15.900234686127613
 10
3.5673347280122103
 20
15.711209270472894
 10
2.9810701959270425
 20
15.520273718247973
 10
2.3966883496020945
 20
15.327886178794754
 10
1.8142367962828836
 20
15.133909239686131
 10
1.2337630009622063
 20
14.938205899089898
 10
0.6554038760248769
 20
14.740823437716307
 10
0.07892776877078277
 20
14.541988031059647
 10
-0.4956231013129735
 20
14.34202027916975
 10
-1.0679221989582628
 20
14.140420139752882
 10
-1.6378745941794952
 20
13.936913609144634
 10
-2.2055749798743918
 20
13.731774006684574
 10
-2.770929546234007
 20
13.525173023338183
 10
-3.3340674765784106
 20
13.317041069405542
 10
-3.8948991812628355
 20
13.107562016834214
 10
-4.453335212895291
 20
12.896920148166656
 10
-5.009322766142104
 20
12.684520585958692
 10
-5.562724976036048
 20
12.470410747785547
 10
-6.113642065485996
 20
12.255322376058627
 10
-6.662116064308733
 20
12.038934323268244
 10
-7.207825824994569
 20
11.821204559597597
 10
-7.75104507747798
 20
11.602038249896239
 10
-8.291500091824478
 20
11.381530229314626
 10
-8.82914883821728
 20
11.160001645362444
 10
-9.364312464166083
 20
10.93749452785649
 10
-9.896617016827536
 20
10.713371969535798
 10
-10.426073271718494
 20
10.488549995354239
 10
-10.95291292895663
 20
10.263254917671071
 10
-11.476988348057867
 20
10.036618129107643
 10
-11.997888934120484
 20
9.808781882389614
 10
-12.515893804837374
 20
9.58010935484348
 10
-13.031050377783778
 20
9.350737411436478
 10
-13.543263817809233
 20
9.120392322234137
 10
-14.052307812554492
 20
8.889305787354132
 10
-14.558456091954035
 20
8.657382971646026
 10
-15.06157717879905
 20
8.42512930516197
 10
-15.561576237939088
 20
8.192271057967494
 10
-16.058405851798923
 20
7.9586713650953556
 10
-16.552113437953793
 20
7.724467091512797
 10
-17.042656966586883
 20
7.489979384729514
 10
-17.530173302665446
 20
7.255160827170284
 10
-18.014293881104553
 20
7.019832524051077
 10
-18.495018701904208
 20
6.783994475371891
 10
-18.97243721245643
 20
6.5474623985902625
 10
-19.446459965369197
 20
6.310420576248654
 10
-19.917229213368174
 20
6.073279603248785
 10
-20.384655509061343
 20
5.836223762133113
 10
-20.848549182147824
 20
5.59870559303268
 10
-21.30904709759485
 20
5.3606776783722685
 10
-21.765691242925485
 20
5.1221454059103015
 10
-22.218897600799878
 20
4.883424535398053
 10
-22.668713588793235
 20
4.644651931802764
 10
-23.114865476971083
 20
4.405922430274879
 10
-23.55730584775821
 20
4.167099165847154
 10
-23.996029313396182
 20
3.927724126042653
 10
-24.431088679218647
 20
3.6883921883055533
 10
-24.86262619795128
 20
3.4495139475375707
 10
-25.290267916750718
 20
3.2104524964777346
 10
-25.714150700584202
 20
2.9711604175508204
 10
-26.134095654667707
 20
2.7320062758417487
 10
-26.55023964396847
 20
2.4929426537753026
 10
-26.96263008606171
 20
2.254106416318713
 10
-27.370987863254523
 20
2.015134386145496
 10
-27.775407810697352
 20
1.7763002931901164
 10
-28.1758899283902
 20
1.5376041374525835
 10
-28.57262388663394
 20
1.2995933788018508
 10
-28.965288537918894
 20
1.0622259874211215
 10
-29.354015359453857
 20
0.8249965332582353
 10
-29.738572651121157
 20
0.5876787039539367
 10
-30.119013218254437
 20
0.35086737695240156
 10
-30.495568760971384
 20
0.11478886461288852
 10
-30.867912744003867
 20
-0.12105687535833874
 10
-31.236003137535093
 20
-0.35634869545157893
 10
-31.600161089074764
 20
-0.5910445658500392
 10
-31.960112868688384
 20
-0.8250496514032701
 10
-32.31571622365032
 20
-1.0587745470129997
 10
-32.66711340668622
 20
-1.2918086577775
 10
-33.0143518353713
 20
-1.5240151187295408
 10
-33.35738409213033
 20
-1.7555307948363503
 10
-33.6960733119961
 20
-1.9863082685227154
 10
-34.030372077393366
 20
-2.2164844047558776
 10
-34.3604646708646
 20
-2.4459697561438105
 10
-34.686077362475324
 20
-2.6746694875360797
 10
-35.00730498737597
 20
-2.902309868998201
 10
-35.32432644035059
 20
-3.1292594656150983
 10
-35.63673112649744
 20
-3.355376024661108
 10
-35.944608493208555
 20
-3.5808438286786846
 10
-36.248148210784834
 20
-3.805115417798881
 10
-36.54735027922625
 20
-4.028190792021692
 10
-36.84198299841514
 20
-4.250296263706375
 10
-37.131998950776286
 20
-4.471568697820171
 10
-37.417487583701686
 20
-4.6921923769055365
 10
-37.69841225513298
 20
-4.911388140975835
 10
-37.97486241246218
 20
-5.129340272573527
 10
-38.24674322053885
 20
-5.346322501633095
 10
-38.513917814395754
 20
-5.562287410579311
 10
-38.77648102918332
 20
-5.776961269477701
 10
-39.03433802975113
 20
-5.9906178082627415
 10
-39.28753623367439
 20
-6.203120161967194
 10
-39.53612305852831
 20
-6.41433146562382
 10
-39.77986680419523
 20
-6.624478031591875
 10
-40.0189097234008
 20
-6.833149264969643
 10
-40.25319901081138
 20
-7.0409400432013
 10
-40.48278747176061
 20
-7.2472554888426695
 10
-40.70762768867328
 20
-7.452232466860991
 10
-40.92767224397415
 20
-7.656007842223504
 10
-41.142784272696
 20
-7.858534197354985
 10
-41.35314805738128
 20
-8.059722084863417
 10
-41.55876898578842
 20
-8.259113492271862
 10
-41.759552222766985
 20
-8.456982149514799
 10
-41.955497768316945
 20
-8.65332805659223
 10
-42.1467899049808
 20
-8.848061766112131
 10
-42.333107485248824
 20
-9.0412253078913
 10
-42.5146822092387
 20
-9.232592369570485
 10
-42.691472047133644
 20
-9.421841803639987
 10
-42.86361386390089
 20
-9.609021027675022
 10
-43.03087595942275
 20
-9.794356354034846
 10
-43.1934426162417
 20
-9.977758335327449
 10
-43.35104010442324
 20
-10.159132136402382
 10
-43.50403698905231
 20
-10.338298862475613
 10
-43.652206957769636
 20
-10.515026813429456
 10
-43.79559204039203
 20
-10.689637136773616
 10
-43.934192236919486
 20
-10.862129832508087
 10
-44.068007547352
 20
-11.03250490063287
 10
-44.196995941872785
 20
-11.200441193638275
 10
-44.32115742048184
 20
-11.36593871152429
 10
-44.44048659542072
 20
-11.529455466767857
 10
-44.554988854447885
 20
-11.690533446892042
 10
-44.66447452726241
 20
-11.849720111765798
 10
-44.76913328416522
 20
-12.006468001520165
 10
-44.868775454855395
 20
-12.161324576024105
 10
-44.9634958744834
 20
-12.31401610534314
 10
-45.05329454304923
 20
-12.464542589477265
 10
-45.13798717801042
 20
-12.612993475818499
 10
-45.21794234445189
 20
-12.75918986958281
 10
-45.29260719474627
 20
-12.90340011294625
 10
-45.362487158945704
 20
-13.0454927287
 10
-45.42726108954051
 20
-13.185509746660864
 10
-45.48707123925632
 20
-13.32304057192712
 10
-45.541959637909976
 20
-13.458406352008469
 10
-45.59183683810943
 20
-13.59142280436245
 10
-45.636892510155576
 20
-13.72154246912011
 10
-45.67712126628999
 20
-13.849223358758382
 10
-45.71248107669587
 20
-13.97414432576757
 10
-45.74306677652366
 20
-14.096031640213194
 10
-45.76906803607425
 20
-14.214337842226303
 10
-45.79048485534764
 20
-14.329062931806893
 10
-45.80754893446151
 20
-14.43998059659571
 10
-45.82022363135747
 20
-14.546311676606111
 10
-45.82883548130369
 20
-14.647556129544368
 10
-45.833995525019574
 20
-14.742392723313307
 10
-45.83576195559722
 20
-14.829768567991817
 10
-45.83503031920741
 20
-14.907541241679297
 10
-45.832696162020916
 20
-14.973568322475142
 10
-45.82962377590858
 20
-15.024470216015178
 10
-45.82713546521816
 20
-15.056872715693645
 10
-45.52669017635596
 20
-15.93247765524699
 10
-45.52167144564214
 20
-15.938556834646969
 10
-45.50666267107587
 20
-15.956657507879674
 10
-45.48185352295805
 20
-15.986232215076141
 10
-45.446301037542675
 20
-16.029560243104218
 10
-45.39928317568457
 20
-16.08961059142636
 10
-45.34312878632802
 20
-16.159218864170928
 10
-45.27917094933764
 20
-16.23409482977829
 10
-45.20829982312578
 20
-16.312554078824775
 10
-45.13137431180486
 20
-16.39167502942315
 10
-45.04868430858463
 20
-16.470178479293043
 10
-44.96074063127567
 20
-16.547474938748703
 10
-44.86759608521163
 20
-16.622969530345948
 10
-44.7694403406934
 20
-16.696114794215827
 10
-44.666368232871406
 20
-16.766637000423863
 10
-44.55837976174567
 20
-16.83453614897005
 10
-44.44565920985863
 20
-16.899722792462377
 10
-44.32816454739352
 20
-16.96187578339114
 10
-44.20584835677509
 20
-17.021131986723578
 10
-44.07889492054582
 20
-17.07740195506768
 10
-43.94707253858801
 20
-17.130912000782686
 10
-43.81042862847689
 20
-17.181525258901377
 10
-43.66933175529739
 20
-17.229062834639713
 10
-43.523229071422115
 20
-17.27379307017374
 10
-43.372578589328015
 20
-17.315721353261885
 10
-43.217059161505375
 20
-17.354889713720944
 10
-43.05685507049667
 20
-17.391208704158903
 10
-42.892013733877114
 20
-17.42454145960852
 10
-42.72239289892104
 20
-17.45529857497151
 10
-42.54808740077891
 20
-17.483206320313407
 10
-42.368907569149805
 20
-17.50881215550315
 10
-42.184995656759426
 20
-17.531705485639034
 10
-41.99639369342454
 20
-17.552207458230754
 10
-41.802964814177926
 20
-17.570270655703084
 10
-41.60461418386914
 20
-17.58616880799051
 10
-41.40152608504062
 20
-17.599812467701014
 10
-41.193653100117174
 20
-17.61133849980183
 10
-40.980995229098795
 20
-17.620746904292957
 10
-40.763273354292565
 20
-17.628400858500896
 10
-40.54080862320819
 20
-17.634258332608848
 10
-40.313374723486426
 20
-17.638087626499132
 10
-40.08124538506174
 20
-17.63998357532219
 10
-39.84418890781645
 20
-17.64017249143728
 10
-39.60234215671779
 20
-17.63870179241962
 10
-39.35561568437376
 20
-17.635387195726754
 10
-39.10424119090204
 20
-17.630002388999426
 10
-38.84803439376013
 20
-17.622636819629648
 10
-38.587221605307334
 20
-17.6135221877351
 10
-38.321665960576404
 20
-17.60261107574057
 10
-38.05136745956732
 20
-17.589903483646054
 10
-37.77646835500576
 20
-17.574988816549833
 10
-37.49710551185897
 20
-17.55791449202713
 10
-37.213142065159694
 20
-17.538633092502725
 10
-36.92462004472473
 20
-17.517465765486318
 10
-36.6315394505541
 20
-17.494412510977902
 10
-36.334089952948666
 20
-17.468925869108528
 10
-36.032313581725234
 20
-17.44132698738789
 10
-35.72612088949178
 20
-17.411431583273536
 10
-35.415464458673085
 20
-17.3793765217327
 10
-35.1004811542364
 20
-17.345209220340596
 10
-34.78121839375692
 20
-17.308792814129998
 10
-34.45762875965946
 20
-17.270264168068138
 10
-34.12971225194399
 20
-17.229623282155018
 10
-33.79751628818574
 20
-17.186733291423398
 10
-33.461130315776735
 20
-17.141778478415738
 10
-33.12055433471697
 20
-17.094758843132038
 10
-32.77569889761442
 20
-17.04549010302984
 10
-32.42674289925313
 20
-16.99434082319406
 10
-32.07359689224108
 20
-16.94112672108224
 10
-31.716213459003043
 20
-16.885984661661624
 10
-31.354776882081477
 20
-16.828825197540187
 10
-30.98942941420207
 20
-16.76923773381622
 10
-30.620028802639137
 20
-16.70763286539143
 10
-30.246343347274994
 20
-16.644236904625078
 10
-29.868831060586594
 20
-16.579055239275593
 10
-29.48731304778988
 20
-16.511719304258047
 10
-29.101836726460096
 20
-16.44209223460521
 10
-28.712580991381266
 20
-16.370542595401993
 10
-28.319361560010936
 20
-16.297159834040418
 10
-27.92227326749954
 20
-16.221670220586013
 10
-27.521452978814324
 20
-16.14412117261399
 10
-27.116948111530498
 20
-16.06437582515711
 10
-26.70861641292241
 20
-15.982844773117098
 10
-26.296552718140504
 20
-15.899254286559472
 10
-25.880662192034332
 20
-15.813878095418708
 10
-25.46136081726403
 20
-15.726400439943534
 10
-25.03832744631991
 20
-15.636863349950746
 10
-24.611698944169206
 20
-15.545314243015566
 10
-24.18156475820394
 20
-15.451937401680452
 10
-23.7478828586073
 20
-15.356411678435705
 10
-23.310695275196107
 20
-15.259058220791026
 10
-22.870186290512798
 20
-15.159787581354399
 10
-22.426177009773358
 20
-15.058231195040902
 10
-21.97894116291225
 20
-14.954483897000973
 10
-21.528336497203806
 20
-14.848956282136333
 10
-21.07436301264805
 20
-14.741648350446987
 10
-20.617020709244958
 20
-14.632560101932924
 10
-20.15658870468744
 20
-14.521328359267658
 10
-19.69316183412594
 20
-14.407679392516705
 10
-19.226413562292347
 20
-14.292113243973802
 10
-18.756617619121116
 20
-14.174724748789393
 10
-18.283731974795455
 20
-14.055192759453774
 10
-17.807988329433062
 20
-13.933290963607694
 10
-17.329244430308258
 20
-13.809429956152869
 10
-16.84754230723784
 20
-13.683930884598995
 10
-16.362839930405023
 20
-13.556472601436374
 10
-15.875279552535462
 20
-13.42664451176329
 10
-15.385040068413186
 20
-13.294815180664667
 10
-14.892074060462987
 20
-13.161121473107736
 10
-14.396107798750382
 20
-13.025468553942058
 10
-13.897599295752304
 20
-12.887861810926061
 10
-13.39650652165197
 20
-12.747980096550044
 10
-12.892829476449366
 20
-12.605823410814006
 10
-12.386657607536513
 20
-12.461576036260407
 10
-11.877753827037306
 20
-12.315922297725443
 10
-11.366397252644653
 20
-12.168499017882619
 10
-10.85264068969219
 20
-12.018711319287753
 10
-10.336436720604706
 20
-11.866696066908093
 10
-9.81805907531667
 20
-11.712548095894073
 10
-9.297181218559965
 20
-11.556767448539434
 10
-8.774034850452269
 20
-11.399127812484913
 10
-8.24861997099358
 20
-11.239629187730513
 10
-7.721031415334343
 20
-11.077997844341759
 10
-7.191221765899341
 20
-10.914370647285887
 10
-6.659369917472605
 20
-10.74911616164782
 10
-6.125296975270102
 20
-10.581865822342634
 10
-5.589371504376741
 20
-10.412440734586292
 10
-5.051546087217321
 20
-10.240977763346041
 10
-4.511773306216602
 20
-10.067613773589114
 10
-3.969963713982575
 20
-9.89216448277305
 10
-3.4266227405674035
 20
-9.714498413689038
 10
-2.8816609385790604
 20
-9.534431283794618
 10
-2.334656937598985
 20
-9.352736865318002
 10
-1.7859318851368724
 20
-9.16937312844239
 10
-1.235907151611292
 20
-8.983566300939572
 10
-0.684166754362111
 20
-8.795632142560825
 10
-0.13080014078132923
 20
-8.605754935848607
 10
0.4238241240461233
 20
-8.41375578601888
 10
0.9799323524795
 20
-8.21940299295397
 10
1.5372508145843324
 20
-8.022791391804311
 10
2.096106045628734
 20
-7.824421024863644
 10
2.656266345495027
 20
-7.624065579772707
 10
3.2173577613398776
 20
-7.4210881492705285
 10
3.779659410856165
 20
-7.215851910683609
 10
4.343224099377561
 20
-7.0089517414561175
 10
4.907772851463864
 20
-6.800024874856467
 10
5.473402796154295
 20
-6.588909200466887
 10
6.04007626604897
 20
-6.3759384573740645
 10
6.607603733099734
 20
-6.1605655963039405
 10
7.175985292141738
 20
-5.942790890986453
 10
7.7452737485086285
 20
-5.723209218865779
 10
8.315379844478679
 20
-5.50200540994425
 10
8.886393074861491
 20
-5.27899531854437
 10
9.458034369381735
 20
-5.05381590420461
 10
10.030398610607431
 20
-4.826741033724417
 10
10.603485988208885
 20
-4.59777125456366
 10
11.177159589801265
 20
-4.366953847432591
 10
11.751277304911643
 20
-4.1338786280244
 10
12.325933968690467
 20
-3.8988193262735575
 10
12.901045521504141
 20
-3.662418237199468
 10
13.476838465382217
 20
-3.4244442081443167
 10
14.052896770246988
 20
-3.1845813424918608
 10
14.62940481347605
 20
-2.942919361364056
 10
15.20608886513494
 20
-2.6995530999113404
 10
15.783133255183685
 20
-2.454572142390704
 10
16.360490613464634
 20
-2.2078397606998723
 10
16.937934627618546
 20
-1.9595876549565256
 10
17.515696997763097
 20
-1.71004213751992
 10
18.09373044857579
 20
-1.4590667540177213
 10
18.671713690294183
 20
-1.2066190640382346
 10
19.249831100295914
 20
-0.9527887887034034
 10
19.82804064876418
 20
-0.697897075522932
 10
20.40628957778289
 20
-0.4413491839176121
 10
20.98439889773289
 20
-0.18351340524241963
 10
21.562463443764592
 20
0.07533653056814955
 10
22.140435845720376
 20
0.335337351616383
 10
22.718221268449774
 20
0.5967627878367487
 10
23.295914594520838
 20
0.859338972429812
 10
23.873336692061617
 20
1.1226980246354772
 10
24.450529685724085
 20
1.387160818233514
 10
25.02749896326665
 20
1.6522693407469848
 10
25.60410217712851
 20
1.9184344608075425
 10
26.18029195715201
 20
2.185792906517454
 10
26.756163138487608
 20
2.454070947942244
 10
27.331583959421017
 20
2.722763976219557
 10
27.90669142717223
 20
2.991918998329714
 10
28.48120632921316
 20
3.2618994653291367
 10
29.055175988283903
 20
3.532568785980532
 10
29.628600451802026
 20
3.8039268234189274
 10
30.201527042507603
 20
4.0758369864070225
 10
30.773634375803052
 20
4.3483419890864425
 10
31.345106876483563
 20
4.6213519734702695
 10
31.915854812651656
 20
4.894683478205848
 10
32.48611012151292
 20
5.16810950660909
 10
33.055408976073764
 20
5.442083915183202
 10
33.62379884132703
 20
5.71646970209599
 10
34.191653670116054
 20
5.990629960086478
 10
34.75841498996715
 20
6.265291728132488
 10
35.324035241052364
 20
6.540592281796166
 10
35.888935936043
 20
6.815757438254399
 10
36.452937800814404
 20
7.090419727341996
 10
37.01589328971765
 20
7.365447482707682
 10
37.57771276569041
 20
7.640656969268862
 10
38.13825907926001
 20
7.916001590640129
 10
38.697764072796865
 20
8.191254623867323
 10
39.25613806182105
 20
8.466232470732807
 10
39.81342832165507
 20
8.740798676864253
 10
40.369403009928526
 20
9.015179965215818
 10
40.923967101820665
 20
9.289650613181848
 10
41.47726280263959
 20
9.563800162725597
 10
42.029290064967725
 20
9.837628750712026
 10
42.57982205485248
 20
10.110906182538102
 10
43.129132834151356
 20
10.383726335299487
 10
43.676805946028445
 20
10.656406337397131
 10
44.22288871322385
 20
10.928809597593732
 10
44.76761803394336
 20
11.20025233851296
 10
45.31094653802933
 20
11.470871288257094
 10
45.85250504396836
 20
11.740847120854738
 10
46.39261503119318
 20
12.010136848434326
 10
46.93095483060076
 20
12.278784006327292
 10
47.46766140199349
 20
12.546835738378926
 10
48.002692383631555
 20
12.813971855134298
 10
48.53591057862467
 20
13.080145897072954
 10
49.06754782934327
 20
13.345131141240744
 10
49.5971875366987
 20
13.609245126633507
 10
50.12510376254848
 20
13.872581730346921
 10
50.65097483778962
 20
14.135184487712422
 10
51.17508503078551
 20
14.396232893251403
 10
51.697297192063495
 20
14.655680350578457
 10
52.21760087802974
 20
14.914441926592689
 10
52.73553722269097
 20
15.172514697105083
 10
53.25175962850645
 20
15.428897619473398
 10
53.76594637895556
 20
15.683634365894036
 10
54.27790756664958
 20
15.93727308056079
 10
54.78764309675332
 20
16.18981403720359
 10
55.2952002445893
 20
16.44112078145011
 10
55.80081600319844
 20
16.690509262194077
 10
56.30412104881467
 20
16.938160564059018
 10
56.80524733282252
 20
17.1845787484474
 10
57.30392036660631
 20
17.42967117004827
 10
57.80023484306378
 20
17.673164509522053
 10
58.294285502510185
 20
17.914785310664193
 10
58.78597732012482
 20
18.15480785086905
 10
59.27517295676466
 20
18.393186081211063
 10
59.76210430221772
 20
18.62969314187112
 10
60.24649686786831
 20
18.86423638753825
 10
60.728345455628286
 20
19.097273283229512
 10
61.207375482046814
 20
19.328711457363877
 10
61.68409318327487
 20
19.558417106028106
 10
62.158044512066645
 20
19.785930934935827
 10
62.62950371994998
 20
20.011346273722864
 10
63.09842319967933
 20
20.234800534816312
 10
63.56443362748856
 20
20.456474802839686
 10
64.02758218386502
 20
20.67623289715058
 10
64.48819049049419
 20
20.894031419282534
 10
64.9458943268629
 20
21.109594262571918
 10
65.40092548792398
 20
21.322694840929536
 10
65.85300438180877
 20
21.533697700331572
 10
66.30222059816204
 20
21.74278671272557
 10
66.74848421541597
 20
21.949778964218744
 10
67.19179504390031
 20
22.154675002270967
 10
67.63215794978014
 20
22.357018319919938
 10
68.06956778238494
 20
22.557266245317763
 10
68.50379732842144
 20
22.755189678781132
 10
68.93488875995924
 20
22.951109357224848
 10
69.36298423488878
 20
23.144614959477117
 10
69.78799373680727
 20
23.335523845375107
 10
70.2097748233186
 20
23.524247157280378
 10
70.62832735217013
 20
23.71078530578785
 10
71.04365113369153
 20
23.89513883835739
 10
71.45556641958244
 20
24.076941653473483
 10
71.86444229652106
 20
24.256013350837456
 10
72.26990429007077
 20
24.432992343224928
 10
72.67186243124617
 20
24.607695853608064
 10
73.07045372726725
 20
24.780170888967195
 10
73.46563562672391
 20
24.95009780730725
 10
73.85722332548032
 20
25.117567561534905
 10
74.24544370490665
 20
25.282810209388217
 10
74.63016433944264
 20
25.445323058114386
 10
75.01129025168503
 20
25.605380248242774
 10
75.38886871695638
 20
25.762845325401067
 10
75.76275724544313
 20
25.918129568815797
 10
76.13305053004298
 20
26.07095965914739
 10
76.4996111367778
 20
26.221289821200248
 10
76.86248634097012
 20
26.368983600602018
 10
77.22176582709976
 20
26.514224595570326
 10
77.57712749930558
 20
26.657057573221312
 10
77.92857112049968
 20
26.797483217879822
 10
78.27628125772999
 20
26.935411260964035
 10
78.6203053759893
 20
27.070704700641738
 10
78.96022754003502
 20
27.20367915979923
 10
79.29618053692293
 20
27.33439382639893
 10
79.62831121888351
 20
27.462424829637296
 10
79.95643302733066
 20
27.58786818642476
 10
80.28045103227879
 20
27.710997900425745
 10
80.60059717093348
 20
27.831586974956164
 10
80.91664413516641
 20
27.94940658406264
 10
81.22863419188221
 20
28.064777190930037
 10
81.53651978125292
 20
28.177836071120492
 10
81.84016351671804
 20
28.288537312573425
 10
82.13966009117523
 20
28.396607595949263
 10
82.43496184996141
 20
28.50218447054008
 10
82.72597386309099
 20
28.605541940010294
 10
83.01274335846891
 20
28.706543686852527
 10
83.2952278321026
 20
28.804869932206756
 10
83.57342704690414
 20
28.900521360397807
 10
83.84728852946297
 20
28.9940918908151
 10
84.11672221595859
 20
29.08539902016074
 10
84.38172805897342
 20
29.174442885299708
 10
84.64235323899482
 20
29.261087305589584
 10
84.89846041687971
 20
29.345286232104815
 10
85.15018664726574
 20
29.427086534960782
 10
85.39729980327702
 20
29.506715758301425
 10
85.6398944829761
 20
29.583900856517108
 10
85.87787575637735
 20
29.65891583327223
 10
86.111475608104
 20
29.73153355501776
 10
86.34032452471956
 20
29.801935653837052
 10
86.5645122381215
 20
29.87030559108277
 10
86.78394877932449
 20
29.9364605897271
 10
86.9988187153764
 20
30.00031038118821
 10
87.20888944522571
 20
30.06208387825975
 10
87.4143927164076
 20
30.121554631717487
 10
87.61491458521766
 20
30.17903251611909
 10
87.81077316444085
 20
30.23448426100569
 10
88.00169519831834
 20
30.28781366257715
 10
88.18781783632292
 20
30.339067317218912
 10
88.36914098361937
 20
30.388245498660893
 10
88.54561708037976
 20
30.435485482465236
 10
88.71715625245392
 20
30.48060421787419
 10
88.88366347502108
 20
30.523875982282107
 10
89.0453234573819
 20
30.565210096512253
 10
89.20195130056541
 20
30.60469778720122
 10
89.35359437472927
 20
30.642202326246743
 10
89.50020521488068
 20
30.677860715481014
 10
89.64183109634214
 20
30.711536500531718
 10
89.77842455412092
 20
30.743366683231056
 10
89.90989070564886
 20
30.77362513037846
 10
90.03618695209838
 20
30.801992336843846
 10
90.15754045934501
 20
30.82869753917548
 10
90.27349179238465
 20
30.85373945556397
 10
90.38450024396867
 20
30.877119778413604
 10
90.49029113581116
 20
30.898746409873297
 10
90.59076958534408
 20
30.918893216742497
 10
90.68612025445047
 20
30.937469656709435
 10
90.7762057565698
 20
30.954429817713546
 10
90.86093125655157
 20
30.97004742968929
 10
90.94052878643653
 20
30.98409522222265
 10
91.01476621934883
 20
30.996800739457594
 10
91.08369087802855
 20
31.00802739015681
 10
91.14720792732521
 20
31.01804890425478
 10
91.20536478481402
 20
31.02672841678424
 10
91.25825122981007
 20
31.034249252232915
 10
91.30559263144492
 20
31.04051917588473
 10
91.34747891128637
 20
31.04572110163246
 10
91.38404731364224
 20
31.04990135213159
 10
91.41502320764413
 20
31.052967692666076
 10
91.44044900244944
 20
31.055240175825862
 10
91.4605095496115
 20
31.056627711839322
 10
91.47483519344121
 20
31.057312343384744
 10
91.48351599775904
 20
31.05747657376002
 10
91.48645698516184
 20
31.05739454349451
 10
91.1900971400283
 20
31.91280058873796
  0
ENDSEC
  0
SECTION
  2
OBJECTS
  0
DICTIONARY
  5
A
330
0
100
AcDbDictionary
280
0
281
1
  3
ACAD_COLOR
350
B
  3
ACAD_GROUP
350
C
  3
ACAD_LAYOUT
350
D
  3
ACAD_MATERIAL
350
E
  3
ACAD_MLEADERSTYLE
350
F
  3
ACAD_MLINESTYLE
350
10
  3
ACAD_PLOTSETTINGS
350
11
  3
ACAD_PLOTSTYLENAME
350
12
  3
ACAD_SCALELIST
350
14
  3
ACAD_TABLESTYLE
350
15
  3
ACAD_VISUALSTYLE
350
16
  3
EZDXF_META
350
2D
  0
DICTIONARY
  5
B
330
A
100
AcDbDictionary
280
0
281
1
  0
DICTIONARY
  5
C
330
A
100
AcDbDictionary
280
0
281
1
  0
DICTIONARY
  5
D
330
A
100
AcDbDictionary
280
0
281
1
  3
Model
350
1A
  3
Layout1
350
1E
  0
DICTIONARY
  5
E
330
A
100
AcDbDictionary
280
0
281
1
  3
ByBlock
350
1F
  3
ByLayer
350
20
  3
Global
350
21
  0
DICTIONARY
  5
F
330
A
100
AcDbDictionary
280
0
281
1
  3
Standard
350
2C
  0
DICTIONARY
  5
10
330
A
100
AcDbDictionary
280
0
281
1
  3
Standard
350
22
  0
DICTIONARY
  5
11
330
A
100
AcDbDictionary
280
0
281
1
  0
ACDBDICTIONARYWDFLT
  5
12
330
A
100
AcDbDictionary
280
0
281
1
  3
Normal
350
13
100
AcDbDictionaryWithDefault
340
13
  0
ACDBPLACEHOLDER
  5
13
330
12
  0
DICTIONARY
  5
14
330
A
100
AcDbDictionary
280
0
281
1
  0
DICTIONARY
  5
15
330
A
100
AcDbDictionary
280
0
281
1
  0
DICTIONARY
  5
16
330
A
100
AcDbDictionary
280
0
281
1
  0
LAYOUT
  5
1A
330
D
100
AcDbPlotSettings
  1

  4
A3
  6

 40
7.5
 41
20.0
 42
7.5
 43
20.0
 44
420.0
 45
297.0
 46
0.0
 47
0.0
 48
0.0
 49
0.0
140
0.0
141
0.0
142
1.0
143
1.0
 70
1024
 72
1
 73
0
 74
5
  7

 75
16
 76
0
 77
2
 78
300
147
1.0
148
0.0
149
0.0
100
AcDbLayout
  1
Model
 70
1
 71
0
 10
0.0
 20
0.0
 11
420.0
 21
297.0
 12
0.0
 22
0.0
 32
0.0
 14
1e+20
 24
1e+20
 34
1e+20
 15
-1e+20
 25
-1e+20
 35
-1e+20
146
0.0
 13
0.0
 23
0.0
 33
0.0
 16
1.0
 26
0.0
 36
0.0
 17
0.0
 27
1.0
 37
0.0
 76
1
330
17
  0
LAYOUT
  5
1E
330
D
100
AcDbPlotSettings
  1

  4
A3
  6

 40
7.5
 41
20.0
 42
7.5
 43
20.0
 44
420.0
 45
297.0
 46
0.0
 47
0.0
 48
0.0
 49
0.0
140
0.0
141
0.0
142
1.0
143
1.0
 70
0
 72
1
 73
0
 74
5
  7

 75
16
 76
0
 77
2
 78
300
147
1.0
148
0.0
149
0.0
100
AcDbLayout
  1
Layout1
 70
1
 71
1
 10
0.0
 20
0.0
 11
420.0
 21
297.0
 12
0.0
 22
0.0
 32
0.0
 14
1e+20
 24
1e+20
 34
1e+20
 15
-1e+20
 25
-1e+20
 35
-1e+20
146
0.0
 13
0.0
 23
0.0
 33
0.0
 16
1.0
 26
0.0
 36
0.0
 17
0.0
 27
1.0
 37
0.0
 76
1
330
1B
  0
MATERIAL
  5
1F
102
{ACAD_REACTORS
330
E
102
}
330
E
100
AcDbMaterial
  1
ByBlock
  2

 70
0
 40
1.0
 71
1
 41
1.0
 91
-1023410177
 42
1.0
 72
1
  3

 73
1
 74
1
 75
1
 44
0.5
 73
0
 45
1.0
 46
1.0
 77
1
  4

 78
1
 79
1
170
1
 48
1.0
171
1
  6

172
1
173
1
174
1
140
1.0
141
1.0
175
1
  7

176
1
177
1
178
1
143
1.0
179
1
  8

270
1
271
1
272
1
145
1.0
146
1.0
273
1
  9

274
1
275
1
276
1
 42
1.0
 72
1
  3

 73
1
 74
1
 75
1
 94
63
  0
MATERIAL
  5
20
102
{ACAD_REACTORS
330
E
102
}
330
E
100
AcDbMaterial
  1
ByLayer
  2

 70
0
 40
1.0
 71
1
 41
1.0
 91
-1023410177
 42
1.0
 72
1
  3

 73
1
 74
1
 75
1
 44
0.5
 73
0
 45
1.0
 46
1.0
 77
1
  4

 78
1
 79
1
170
1
 48
1.0
171
1
  6

172
1
173
1
174
1
140
1.0
141
1.0
175
1
  7

176
1
177
1
178
1
143
1.0
179
1
  8

270
1
271
1
272
1
145
1.0
146
1.0
273
1
  9

274
1
275
1
276
1
 42
1.0
 72
1
  3

 73
1
 74
1
 75
1
 94
63
  0
MATERIAL
  5
21
102
{ACAD_REACTORS
330
E
102
}
330
E
100
AcDbMaterial
  1
Global
  2

 70
0
 40
1.0
 71
1
 41
1.0
 91
-1023410177
 42
1.0
 72
1
  3

 73
1
 74
1
 75
1
 44
0.5
 73
0
 45
1.0
 46
1.0
 77
1
  4

 78
1
 79
1
170
1
 48
1.0
171
1
  6

172
1
173
1
174
1
140
1.0
141
1.0
175
1
  7

176
1
177
1
178
1
143
1.0
179
1
  8

270
1
271
1
272
1
145
1.0
146
1.0
273
1
  9

274
1
275
1
276
1
 42
1.0
 72
1
  3

 73
1
 74
1
 75
1
 94
63
  0
MLINESTYLE
  5
22
102
{ACAD_REACTORS
330
10
102
}
330
10
100
AcDbMlineStyle
  2
Standard
 70
0
  3

 62
256
 51
90.0
 52
90.0
 71
2
 49
0.5
 62
256
  6
BYLAYER
 49
-0.5
 62
256
  6
BYLAYER
  0
MLEADERSTYLE
  5
2C
102
{ACAD_REACTORS
330
F
102
}
330
F
100
AcDbMLeaderStyle
179
2
170
2
171
1
172
0
 90
2
 40
0.0
 41
0.0
173
1
 91
-1056964608
 92
-2
290
1
 42
2.0
291
1
 43
8.0
  3
Standard
 44
4.0
300

342
29
174
1
175
1
176
0
178
1
 93
-1056964608
 45
4.0
292
0
297
0
 46
4.0
 94
-1056964608
 47
1.0
 49
1.0
140
1.0
294
1
141
0.0
177
0
142
1.0
295
0
296
0
143
3.75
271
0
272
9
273
9
  0
DICTIONARY
  5
2D
330
A
100
AcDbDictionary
280
1
281
1
  3
CREATED_BY_EZDXF
350
2E
  3
WRITTEN_BY_EZDXF
350
32
  0
DICTIONARYVAR
  5
2E
330
2D
100
DictionaryVariables
280
0
  1
1.3.5 @ 2025-08-22T23:49:56.711735+00:00
  0
DICTIONARYVAR
  5
32
330
2D
100
DictionaryVariables
280
0
  1
1.3.5 @ 2025-08-22T23:49:56.719440+00:00
  0
ENDSEC
  0
EOF
