  0
SECTION
  2
HEADER
  9
$ACADVER
  1
AC1032
  9
$ACADMAINTVER
 90
4
  9
$DWGCODEPAGE
  3
ANSI_1252
  9
$LASTSAVEDBY
  1
ezdxf
  9
$REQUIREDVERSIONS
160
0
  9
$INSBASE
 10
0.0
 20
0.0
 30
0.0
  9
$EXTMIN
 10
1e+20
 20
1e+20
 30
1e+20
  9
$EXTMAX
 10
-1e+20
 20
-1e+20
 30
-1e+20
  9
$LIMMIN
 10
0.0
 20
0.0
  9
$LIMMAX
 10
420.0
 20
297.0
  9
$ORTHOMODE
 70
0
  9
$REGENMODE
 70
1
  9
$FILLMODE
 70
1
  9
$QTEXTMODE
 70
0
  9
$MIRRTEXT
 70
1
  9
$LTSCALE
 40
1.0
  9
$ATTMODE
 70
1
  9
$TEXTSIZE
 40
2.5
  9
$TRACEWID
 40
1.0
  9
$TEXTSTYLE
  7
Standard
  9
$CLAYER
  8
0
  9
$CELTYPE
  6
ByLayer
  9
$CECOLOR
 62
256
  9
$CELTSCALE
 40
1.0
  9
$DISPSILH
 70
0
  9
$DIMSCALE
 40
1.0
  9
$DIMASZ
 40
2.5
  9
$DIMEXO
 40
0.625
  9
$DIMDLI
 40
3.75
  9
$DIMRND
 40
0.0
  9
$DIMDLE
 40
0.0
  9
$DIMEXE
 40
1.25
  9
$DIMTP
 40
0.0
  9
$DIMTM
 40
0.0
  9
$DIMTXT
 40
2.5
  9
$DIMCEN
 40
2.5
  9
$DIMTSZ
 40
0.0
  9
$DIMTOL
 70
0
  9
$DIMLIM
 70
0
  9
$DIMTIH
 70
0
  9
$DIMTOH
 70
0
  9
$DIMSE1
 70
0
  9
$DIMSE2
 70
0
  9
$DIMTAD
 70
1
  9
$DIMZIN
 70
8
  9
$DIMBLK
  1

  9
$DIMASO
 70
1
  9
$DIMSHO
 70
1
  9
$DIMPOST
  1

  9
$DIMAPOST
  1

  9
$DIMALT
 70
0
  9
$DIMALTD
 70
3
  9
$DIMALTF
 40
0.03937007874
  9
$DIMLFAC
 40
1.0
  9
$DIMTOFL
 70
1
  9
$DIMTVP
 40
0.0
  9
$DIMTIX
 70
0
  9
$DIMSOXD
 70
0
  9
$DIMSAH
 70
0
  9
$DIMBLK1
  1

  9
$DIMBLK2
  1

  9
$DIMSTYLE
  2
ISO-25
  9
$DIMCLRD
 70
0
  9
$DIMCLRE
 70
0
  9
$DIMCLRT
 70
0
  9
$DIMTFAC
 40
1.0
  9
$DIMGAP
 40
0.625
  9
$DIMJUST
 70
0
  9
$DIMSD1
 70
0
  9
$DIMSD2
 70
0
  9
$DIMTOLJ
 70
0
  9
$DIMTZIN
 70
8
  9
$DIMALTZ
 70
0
  9
$DIMALTTZ
 70
0
  9
$DIMUPT
 70
0
  9
$DIMDEC
 70
2
  9
$DIMTDEC
 70
2
  9
$DIMALTU
 70
2
  9
$DIMALTTD
 70
3
  9
$DIMTXSTY
  7
Standard
  9
$DIMAUNIT
 70
0
  9
$DIMADEC
 70
0
  9
$DIMALTRND
 40
0.0
  9
$DIMAZIN
 70
0
  9
$DIMDSEP
 70
44
  9
$DIMATFIT
 70
3
  9
$DIMFRAC
 70
0
  9
$DIMLDRBLK
  1

  9
$DIMLUNIT
 70
2
  9
$DIMLWD
 70
-2
  9
$DIMLWE
 70
-2
  9
$DIMTMOVE
 70
0
  9
$DIMFXL
 40
1.0
  9
$DIMFXLON
 70
0
  9
$DIMJOGANG
 40
0.785398163397
  9
$DIMTFILL
 70
0
  9
$DIMTFILLCLR
 70
0
  9
$DIMARCSYM
 70
0
  9
$DIMLTYPE
  6

  9
$DIMLTEX1
  6

  9
$DIMLTEX2
  6

  9
$DIMTXTDIRECTION
 70
0
  9
$LUNITS
 70
2
  9
$LUPREC
 70
4
  9
$SKETCHINC
 40
1.0
  9
$FILLETRAD
 40
10.0
  9
$AUNITS
 70
0
  9
$AUPREC
 70
2
  9
$MENU
  1
.
  9
$ELEVATION
 40
0.0
  9
$PELEVATION
 40
0.0
  9
$THICKNESS
 40
0.0
  9
$LIMCHECK
 70
0
  9
$CHAMFERA
 40
0.0
  9
$CHAMFERB
 40
0.0
  9
$CHAMFERC
 40
0.0
  9
$CHAMFERD
 40
0.0
  9
$SKPOLY
 70
0
  9
$TDCREATE
 40
2460911.034675926
  9
$TDUCREATE
 40
2458532.153996898
  9
$TDUPDATE
 40
2460911.034675926
  9
$TDUUPDATE
 40
2458532.1544311
  9
$TDINDWG
 40
0.0
  9
$TDUSRTIMER
 40
0.0
  9
$USRTIMER
 70
1
  9
$ANGBASE
 50
0.0
  9
$ANGDIR
 70
0
  9
$PDMODE
 70
0
  9
$PDSIZE
 40
0.0
  9
$PLINEWID
 40
0.0
  9
$SPLFRAME
 70
0
  9
$SPLINETYPE
 70
6
  9
$SPLINESEGS
 70
8
  9
$HANDSEED
  5
33
  9
$SURFTAB1
 70
6
  9
$SURFTAB2
 70
6
  9
$SURFTYPE
 70
6
  9
$SURFU
 70
6
  9
$SURFV
 70
6
  9
$UCSBASE
  2

  9
$UCSNAME
  2

  9
$UCSORG
 10
0.0
 20
0.0
 30
0.0
  9
$UCSXDIR
 10
1.0
 20
0.0
 30
0.0
  9
$UCSYDIR
 10
0.0
 20
1.0
 30
0.0
  9
$UCSORTHOREF
  2

  9
$UCSORTHOVIEW
 70
0
  9
$UCSORGTOP
 10
0.0
 20
0.0
 30
0.0
  9
$UCSORGBOTTOM
 10
0.0
 20
0.0
 30
0.0
  9
$UCSORGLEFT
 10
0.0
 20
0.0
 30
0.0
  9
$UCSORGRIGHT
 10
0.0
 20
0.0
 30
0.0
  9
$UCSORGFRONT
 10
0.0
 20
0.0
 30
0.0
  9
$UCSORGBACK
 10
0.0
 20
0.0
 30
0.0
  9
$PUCSBASE
  2

  9
$PUCSNAME
  2

  9
$PUCSORG
 10
0.0
 20
0.0
 30
0.0
  9
$PUCSXDIR
 10
1.0
 20
0.0
 30
0.0
  9
$PUCSYDIR
 10
0.0
 20
1.0
 30
0.0
  9
$PUCSORTHOREF
  2

  9
$PUCSORTHOVIEW
 70
0
  9
$PUCSORGTOP
 10
0.0
 20
0.0
 30
0.0
  9
$PUCSORGBOTTOM
 10
0.0
 20
0.0
 30
0.0
  9
$PUCSORGLEFT
 10
0.0
 20
0.0
 30
0.0
  9
$PUCSORGRIGHT
 10
0.0
 20
0.0
 30
0.0
  9
$PUCSORGFRONT
 10
0.0
 20
0.0
 30
0.0
  9
$PUCSORGBACK
 10
0.0
 20
0.0
 30
0.0
  9
$USERI1
 70
0
  9
$USERI2
 70
0
  9
$USERI3
 70
0
  9
$USERI4
 70
0
  9
$USERI5
 70
0
  9
$USERR1
 40
0.0
  9
$USERR2
 40
0.0
  9
$USERR3
 40
0.0
  9
$USERR4
 40
0.0
  9
$USERR5
 40
0.0
  9
$WORLDVIEW
 70
1
  9
$SHADEDGE
 70
3
  9
$SHADEDIF
 70
70
  9
$TILEMODE
 70
1
  9
$MAXACTVP
 70
64
  9
$PINSBASE
 10
0.0
 20
0.0
 30
0.0
  9
$PLIMCHECK
 70
0
  9
$PEXTMIN
 10
1e+20
 20
1e+20
 30
1e+20
  9
$PEXTMAX
 10
-1e+20
 20
-1e+20
 30
-1e+20
  9
$PLIMMIN
 10
0.0
 20
0.0
  9
$PLIMMAX
 10
420.0
 20
297.0
  9
$UNITMODE
 70
0
  9
$VISRETAIN
 70
1
  9
$PLINEGEN
 70
0
  9
$PSLTSCALE
 70
1
  9
$TREEDEPTH
 70
3020
  9
$CMLSTYLE
  2
Standard
  9
$CMLJUST
 70
0
  9
$CMLSCALE
 40
20.0
  9
$PROXYGRAPHICS
 70
1
  9
$MEASUREMENT
 70
1
  9
$CELWEIGHT
370
-1
  9
$ENDCAPS
280
0
  9
$JOINSTYLE
280
0
  9
$LWDISPLAY
290
0
  9
$INSUNITS
 70
6
  9
$HYPERLINKBASE
  1

  9
$STYLESHEET
  1

  9
$XEDIT
290
1
  9
$CEPSNTYPE
380
0
  9
$PSTYLEMODE
290
1
  9
$FINGERPRINTGUID
  2
{50A986AE-0634-4F1A-B3A1-38FD7204DF9A}
  9
$VERSIONGUID
  2
{17265253-6709-411C-A45D-42306335AC60}
  9
$EXTNAMES
290
1
  9
$PSVPSCALE
 40
0.0
  9
$OLESTARTUP
290
0
  9
$SORTENTS
280
127
  9
$INDEXCTL
280
0
  9
$HIDETEXT
280
1
  9
$XCLIPFRAME
280
1
  9
$HALOGAP
280
0
  9
$OBSCOLOR
 70
257
  9
$OBSLTYPE
280
0
  9
$INTERSECTIONDISPLAY
280
0
  9
$INTERSECTIONCOLOR
 70
257
  9
$DIMASSOC
280
2
  9
$PROJECTNAME
  1

  9
$CAMERADISPLAY
290
0
  9
$LENSLENGTH
 40
50.0
  9
$CAMERAHEIGHT
 40
0.0
  9
$STEPSPERSEC
 40
24.0
  9
$STEPSIZE
 40
100.0
  9
$3DDWFPREC
 40
2.0
  9
$PSOLWIDTH
 40
0.005
  9
$PSOLHEIGHT
 40
0.08
  9
$LOFTANG1
 40
1.570796326795
  9
$LOFTANG2
 40
1.570796326795
  9
$LOFTMAG1
 40
0.0
  9
$LOFTMAG2
 40
0.0
  9
$LOFTPARAM
 70
7
  9
$LOFTNORMALS
280
1
  9
$LATITUDE
 40
37.795
  9
$LONGITUDE
 40
-122.394
  9
$NORTHDIRECTION
 40
0.0
  9
$TIMEZONE
 70
-8000
  9
$LIGHTGLYPHDISPLAY
280
1
  9
$TILEMODELIGHTSYNCH
280
1
  9
$CMATERIAL
347
20
  9
$SOLIDHIST
280
0
  9
$SHOWHIST
280
1
  9
$DWFFRAME
280
2
  9
$DGNFRAME
280
2
  9
$REALWORLDSCALE
290
1
  9
$INTERFERECOLOR
 62
256
  9
$CSHADOW
280
0
  9
$SHADOWPLANELOCATION
 40
0.0
  0
ENDSEC
  0
SECTION
  2
CLASSES
  0
CLASS
  1
ACDBDICTIONARYWDFLT
  2
AcDbDictionaryWithDefault
  3
ObjectDBX Classes
 90
0
 91
0
280
0
281
0
  0
CLASS
  1
SUN
  2
AcDbSun
  3
SCENEOE
 90
1153
 91
0
280
0
281
0
  0
CLASS
  1
VISUALSTYLE
  2
AcDbVisualStyle
  3
ObjectDBX Classes
 90
4095
 91
0
280
0
281
0
  0
CLASS
  1
MATERIAL
  2
AcDbMaterial
  3
ObjectDBX Classes
 90
1153
 91
0
280
0
281
0
  0
CLASS
  1
SCALE
  2
AcDbScale
  3
ObjectDBX Classes
 90
1153
 91
0
280
0
281
0
  0
CLASS
  1
TABLESTYLE
  2
AcDbTableStyle
  3
ObjectDBX Classes
 90
4095
 91
0
280
0
281
0
  0
CLASS
  1
MLEADERSTYLE
  2
AcDbMLeaderStyle
  3
ACDB_MLEADERSTYLE_CLASS
 90
4095
 91
0
280
0
281
0
  0
CLASS
  1
DICTIONARYVAR
  2
AcDbDictionaryVar
  3
ObjectDBX Classes
 90
0
 91
0
280
0
281
0
  0
CLASS
  1
CELLSTYLEMAP
  2
AcDbCellStyleMap
  3
ObjectDBX Classes
 90
1152
 91
0
280
0
281
0
  0
CLASS
  1
MENTALRAYRENDERSETTINGS
  2
AcDbMentalRayRenderSettings
  3
SCENEOE
 90
1024
 91
0
280
0
281
0
  0
CLASS
  1
ACDBDETAILVIEWSTYLE
  2
AcDbDetailViewStyle
  3
ObjectDBX Classes
 90
1025
 91
0
280
0
281
0
  0
CLASS
  1
ACDBSECTIONVIEWSTYLE
  2
AcDbSectionViewStyle
  3
ObjectDBX Classes
 90
1025
 91
0
280
0
281
0
  0
CLASS
  1
RASTERVARIABLES
  2
AcDbRasterVariables
  3
ISM
 90
0
 91
0
280
0
281
0
  0
CLASS
  1
LAYOUT
  2
AcDbLayout
  3
ObjectDBX Classes
 90
0
 91
0
280
0
281
0
  0
CLASS
  1
ACDBPLACEHOLDER
  2
AcDbPlaceHolder
  3
ObjectDBX Classes
 90
0
 91
0
280
0
281
0
  0
ENDSEC
  0
SECTION
  2
TABLES
  0
TABLE
  2
VPORT
  5
8
330
0
100
AcDbSymbolTable
 70
1
  0
VPORT
  5
23
330
8
100
AcDbSymbolTableRecord
100
AcDbViewportTableRecord
  2
*Active
 70
0
 10
0.0
 20
0.0
 11
1.0
 21
1.0
 12
0.0
 22
0.0
 13
0.0
 23
0.0
 14
0.5
 24
0.5
 15
0.5
 25
0.5
 16
0.0
 26
0.0
 36
1.0
 17
0.0
 27
0.0
 37
0.0
 40
1000.0
 41
1.34
 42
50.0
 43
0.0
 44
0.0
 50
0.0
 51
0.0
 71
0
 72
1000
 73
1
 74
3
 75
0
 76
0
 77
0
 78
0
281
0
 65
0
146
0.0
  0
ENDTAB
  0
TABLE
  2
LTYPE
  5
2
330
0
100
AcDbSymbolTable
 70
3
  0
LTYPE
  5
24
330
2
100
AcDbSymbolTableRecord
100
AcDbLinetypeTableRecord
  2
ByBlock
 70
0
  3

 72
65
 73
0
 40
0.0
  0
LTYPE
  5
25
330
2
100
AcDbSymbolTableRecord
100
AcDbLinetypeTableRecord
  2
ByLayer
 70
0
  3

 72
65
 73
0
 40
0.0
  0
LTYPE
  5
26
330
2
100
AcDbSymbolTableRecord
100
AcDbLinetypeTableRecord
  2
Continuous
 70
0
  3

 72
65
 73
0
 40
0.0
  0
ENDTAB
  0
TABLE
  2
LAYER
  5
1
330
0
100
AcDbSymbolTable
 70
2
  0
LAYER
  5
27
330
1
100
AcDbSymbolTableRecord
100
AcDbLayerTableRecord
  2
0
 70
0
 62
7
  6
Continuous
370
-3
390
13
347
21
  0
LAYER
  5
28
330
1
100
AcDbSymbolTableRecord
100
AcDbLayerTableRecord
  2
Defpoints
 70
0
 62
7
  6
Continuous
290
0
370
-3
390
13
347
21
  0
ENDTAB
  0
TABLE
  2
STYLE
  5
5
330
0
100
AcDbSymbolTable
 70
1
  0
STYLE
  5
29
330
5
100
AcDbSymbolTableRecord
100
AcDbTextStyleTableRecord
  2
Standard
 70
0
 40
0.0
 41
1.0
 50
0.0
 71
0
 42
2.5
  3
txt
  4

  0
ENDTAB
  0
TABLE
  2
VIEW
  5
7
330
0
100
AcDbSymbolTable
 70
0
  0
ENDTAB
  0
TABLE
  2
UCS
  5
6
330
0
100
AcDbSymbolTable
 70
0
  0
ENDTAB
  0
TABLE
  2
APPID
  5
3
330
0
100
AcDbSymbolTable
 70
3
  0
APPID
  5
2A
330
3
100
AcDbSymbolTableRecord
100
AcDbRegAppTableRecord
  2
ACAD
 70
0
  0
APPID
  5
30
330
3
100
AcDbSymbolTableRecord
100
AcDbRegAppTableRecord
  2
HATCHBACKGROUNDCOLOR
 70
0
  0
APPID
  5
31
330
3
100
AcDbSymbolTableRecord
100
AcDbRegAppTableRecord
  2
EZDXF
 70
0
  0
ENDTAB
  0
TABLE
  2
DIMSTYLE
  5
4
330
0
100
AcDbSymbolTable
 70
1
100
AcDbDimStyleTable
  0
DIMSTYLE
105
2B
330
4
100
AcDbSymbolTableRecord
100
AcDbDimStyleTableRecord
  2
Standard
 70
0
 40
1.0
 41
2.5
 42
0.625
 43
3.75
 44
1.25
 45
0.0
 46
0.0
 47
0.0
 48
0.0
 49
2.5
140
2.5
141
2.5
142
0.0
143
0.03937007874
144
1.0
145
0.0
146
1.0
147
0.625
148
0.0
 69
0
 70
0
 71
0
 72
0
 73
0
 74
0
 75
0
 76
0
 77
1
 78
8
 79
3
170
0
171
3
172
1
173
0
174
0
175
0
176
0
177
0
178
0
179
2
271
2
272
2
273
2
274
3
275
0
276
0
277
2
278
44
279
0
280
0
281
0
282
0
283
0
284
8
285
0
286
0
288
0
289
3
290
0
371
-2
372
-2
  0
ENDTAB
  0
TABLE
  2
BLOCK_RECORD
  5
9
330
0
100
AcDbSymbolTable
 70
2
  0
BLOCK_RECORD
  5
17
330
9
100
AcDbSymbolTableRecord
100
AcDbBlockTableRecord
  2
*Model_Space
340
1A
 70
0
280
1
281
0
  0
BLOCK_RECORD
  5
1B
330
9
100
AcDbSymbolTableRecord
100
AcDbBlockTableRecord
  2
*Paper_Space
340
1E
 70
0
280
1
281
0
  0
ENDTAB
  0
ENDSEC
  0
SECTION
  2
BLOCKS
  0
BLOCK
  5
18
330
17
100
AcDbEntity
  8
0
100
AcDbBlockBegin
  2
*Model_Space
 70
0
 10
0.0
 20
0.0
 30
0.0
  3
*Model_Space
  1

  0
ENDBLK
  5
19
330
17
100
AcDbEntity
  8
0
100
AcDbBlockEnd
  0
BLOCK
  5
1C
330
1B
100
AcDbEntity
  8
0
100
AcDbBlockBegin
  2
*Paper_Space
 70
0
 10
0.0
 20
0.0
 30
0.0
  3
*Paper_Space
  1

  0
ENDBLK
  5
1D
330
1B
100
AcDbEntity
  8
0
100
AcDbBlockEnd
  0
ENDSEC
  0
SECTION
  2
ENTITIES
  0
LWPOLYLINE
  5
2F
330
17
100
AcDbEntity
  8
0
100
AcDbPolyline
 90
722
 70
1
 10
83.44309077555145
 20
45.92953917569212
 10
83.44024295399211
 20
45.929092683453185
 10
83.43183656278289
 20
45.92750232400739
 10
83.41814526958369
 20
45.924267209109054
 10
83.39890771190124
 20
45.9195678734803
 10
83.37457835186076
 20
45.91316818777721
 10
83.34496422676688
 20
45.9051234959895
 10
83.31000903658345
 20
45.89523901127416
 10
83.26996211251023
 20
45.88365405116843
 10
83.22476715451114
 20
45.8701738288293
 10
83.17416259468808
 20
45.85497925492706
 10
83.11853470077317
 20
45.83795901490203
 10
83.05775863599584
 20
45.8190437632757
 10
82.99176593208995
 20
45.798358816096545
 10
82.92069352558777
 20
45.77565354126764
 10
82.84440434302053
 20
45.75117882151799
 10
82.76309155248839
 20
45.72487893690977
 10
82.67663031722076
 20
45.69668454196442
 10
82.58495216895149
 20
45.666720952730465
 10
82.48831860711044
 20
45.63480738385364
 10
82.38646792686295
 20
45.60112499663634
 10
82.27953699627308
 20
45.565423284297665
 10
82.16763814154008
 20
45.52809232178786
 10
82.05046573142795
 20
45.48879800472663
 10
81.92839366003409
 20
45.447749497393986
 10
81.80117252769031
 20
45.40480760756865
 10
81.66892682882595
 20
45.36004230730943
 10
81.5316564949727
 20
45.31345372193233
 10
81.38929298939614
 20
45.265167292801884
 10
81.24183610669147
 20
45.21518339586622
 10
81.08942271492275
 20
45.16325152434451
 10
80.93191580908938
 20
45.109622435649655
 10
80.7695082834185
 20
45.054240911108046
 10
80.60200696980996
 20
44.99716267065753
 10
80.42954853092296
 20
44.93813758346537
 10
80.25212073005925
 20
44.87748587773908
 10
80.0696548935478
 20
44.81533324547527
 10
79.8823562892507
 20
44.75130398916071
 10
79.68996307539668
 20
44.68557952072979
 10
79.49279305145176
 20
44.618173841671336
 10
79.29052814407686
 20
44.54907345176074
 10
79.0834176160036
 20
44.47841779385132
 10
78.87133656199308
 20
44.406137647780604
 10
78.65440954494282
 20
44.3323028602913
 10
78.43258012788017
 20
44.25671889517248
 10
78.20597287370265
 20
44.17945559916688
 10
77.97432594063905
 20
44.10069438420891
 10
77.7379570596871
 20
44.02044937710344
 10
77.496741325608
 20
43.93865135768802
 10
77.25067860146514
 20
43.85530057659472
 10
76.99976854491727
 20
43.77039766040382
 10
76.74406738753224
 20
43.68413752127436
 10
76.48351855540082
 20
43.596325873627514
 10
76.21817821162264
 20
43.507157754938405
 10
75.94811448212258
 20
43.416508475738816
 10
75.67346423496464
 20
43.32412752924789
 10
75.39421495957754
 20
43.23033564493735
 10
75.11010488265829
 20
43.13531410942556
 10
74.82113366186559
 20
43.03906354929277
 10
74.52763133336374
 20
42.94127773782031
 10
74.22952915501352
 20
42.842082492320785
 10
73.92682698987839
 20
42.74147806342633
 10
73.61931909081846
 20
42.6398410258625
 10
73.30734759375989
 20
42.53654517533524
 10
72.99090012506772
 20
42.431910990684095
 10
72.66990801107112
 20
42.326064163905706
 10
72.34417780979673
 20
42.219060916202096
 10
72.014027183774
 20
42.110915499694165
 10
71.67939962756208
 20
42.00143350348708
 10
71.34029500422433
 20
41.89061517821288
 10
70.99670080318947
 20
41.77878125334334
 10
70.6488906236491
 20
41.66543096594879
 10
70.2966026923003
 20
41.55074560264766
 10
69.9400176666719
 20
41.43499017297378
 10
69.57913534135916
 20
41.31816505287533
 10
69.21396774765556
 20
41.19995039009292
 10
68.8444460749536
 20
41.08047212725526
 10
68.47081958598478
 20
40.95986970721564
 10
68.09282637050974
 20
40.83832466722456
 10
67.71067162792214
 20
40.715461435084826
 10
67.32447985265127
 20
40.591349982855164
 10
66.9342508392923
 20
40.46599068648374
 10
66.5398473089716
 20
40.339634804647694
 10
66.14126905628432
 20
40.21228271329518
 10
65.73858434409186
 20
40.083809472325875
 10
65.33211090339196
 20
39.95422920854465
 10
64.92153045544077
 20
39.82352879767503
 10
64.50696756313577
 20
39.69177808645973
 10
64.08875219417305
 20
39.55867097349607
 10
63.666690769642734
 20
39.42426393061822
 10
63.24070244764386
 20
39.28900275271421
 10
62.810911791073956
 20
39.15295728652678
 10
62.37720585751938
 20
39.015738584950114
 10
61.94003945144672
 20
38.87710989206009
 10
61.49913842591832
 20
38.73757297331472
 10
61.05457104379546
 20
38.597002888613666
 10
60.606268562938965
 20
38.4555254552696
 10
60.15449241431041
 20
38.31296001324437
 10
59.69924246097326
 20
38.169306813170074
 10
59.24039359228387
 20
38.024497010832384
 10
58.77812667117591
 20
37.87879523981701
 10
58.31231672394227
 20
37.732132405277554
 10
57.843225250012814
 20
37.584327721859815
 10
57.370851975514455
 20
37.435381690827974
 10
56.89532153181302
 20
37.28536403360871
 10
56.41644033999866
 20
37.13433122203614
 10
55.934196094904834
 20
36.982603609633834
 10
55.44866902221812
 20
36.82973652935816
 10
54.96016509551587
 20
36.67606345900915
 10
54.46870824044852
 20
36.52094494470018
 10
53.974229646408574
 20
36.364506929059935
 10
53.47677344520212
 20
36.20726430182289
 10
52.97627089468999
 20
36.0493428803017
 10
52.47267752072468
 20
35.89022840134212
 10
51.96662946998437
 20
35.72994786539339
 10
51.4578204265504
 20
35.56816842123573
 10
50.94629438529235
 20
35.405405209235695
 10
50.431857835768696
 20
35.24171457591138
 10
49.91482878285022
 20
35.07711014680346
 10
49.395287589160084
 20
34.911147004236206
 10
48.8732219495317
 20
34.74414550173316
 10
48.34849465355969
 20
34.57635677265546
 10
47.821447905638365
 20
34.407154487392916
 10
47.292149968629104
 20
34.236413705845216
 10
46.76050803780568
 20
34.064899949843756
 10
46.226340634020055
 20
33.892349713647256
 10
45.689828825610675
 20
33.71902725489327
 10
45.151383285238055
 20
33.54418092792321
 10
44.6109353392312
 20
33.36793642473363
 10
44.06834791412126
 20
33.19054462805359
 10
43.52341526276836
 20
33.01238211260863
 10
42.97666106871494
 20
32.83308605452991
 10
42.42810905220662
 20
32.65201737587891
 10
41.877928524161455
 20
32.46975968528839
 10
41.32552699042955
 20
32.286801749255936
 10
40.771303229314434
 20
32.10271152375018
 10
40.21553077153946
 20
31.91698837115757
 10
39.65832255951831
 20
31.730021238583888
 10
39.0993599721657
 20
31.54179762833289
 10
38.53882428322496
 20
31.352581422094023
 10
37.976658850318564
 20
31.16217845960449
 10
37.41312544674948
 20
30.97040745424593
 10
36.84834890928829
 20
30.777337751496837
 10
36.28220405882306
 20
30.58290063245894
 10
35.71494077429977
 20
30.38723441214111
 10
35.14630890289939
 20
30.190201276798685
 10
34.57642125009902
 20
29.992190424169532
 10
34.00534635263309
 20
29.793076412889153
 10
33.43342627795939
 20
29.592233163979472
 10
32.86052395260907
 20
29.389911560169494
 10
32.28682085573017
 20
29.186375107200508
 10
31.7119983662375
 20
28.981611307376276
 10
31.136443299609354
 20
28.77550784360877
 10
30.560224055643673
 20
28.567939525165603
 10
29.983409034138344
 20
28.358781161314344
 10
29.405861024687958
 20
28.148283885416106
 10
28.827636669670007
 20
27.93664185773366
 10
28.248735763679672
 20
27.723855454215148
 10
27.669488685222603
 20
27.509617821561626
 10
27.089838791921327
 20
27.293734799510336
 10
26.509979457280874
 20
27.076150292175278
 10
25.929830318678096
 20
26.85730921723217
 10
25.34906079220256
 20
26.63751880392811
 10
24.7680578987374
 20
26.416666359226927
 10
24.187244273768314
 20
26.193680510526672
 10
23.606208902293506
 20
25.969313530066216
 10
23.025133605802356
 20
25.743828297006594
 10
22.444030004778774
 20
25.51690571098474
 10
21.862966635957164
 20
25.288420330636132
 10
21.281988110421562
 20
25.058886168482932
 10
20.70103792273097
 20
24.828108813630244
 10
20.120446382922797
 20
24.5957815380952
 10
19.540088380353374
 20
24.361835497663463
 10
18.960145736512132
 20
24.1265335714961
 10
18.38054984619631
 20
23.890001326273627
 10
17.801506182672746
 20
23.651862688534667
 10
17.222946140738706
 20
23.41224322495975
 10
16.644926431239952
 20
23.171336970495606
 10
16.067116538734293
 20
22.92945102907327
 10
15.490177494106087
 20
22.685971192830667
 10
14.914109297355333
 20
22.440897461767797
 10
14.338843548684121
 20
22.19435502661706
 10
13.76431164288975
 20
21.94646945405901
 10
13.190707364286846
 20
21.697183896311365
 10
12.617837065497314
 20
21.446554950524316
 10
12.046019504542897
 20
21.19459486376198
 10
11.475391686424201
 20
20.94105287861142
 10
10.905885142875078
 20
20.686054311121083
 10
10.337431474097599
 20
20.429724352023367
 10
9.770099148357952
 20
20.17193768526984
 10
9.204275597348836
 20
19.912580865928014
 10
8.639698636957732
 20
19.65183593251258
 10
8.07635664670075
 20
19.39002198538663
 10
7.514466788796816
 20
19.126443725409608
 10
6.9541425534057115
 20
18.861489097158927
 10
6.395178741133714
 20
18.5955336728318
 10
5.837655440730878
 20
18.328133036016688
 10
5.2819602208264635
 20
18.059173491149032
 10
4.7279562133563875
 20
17.788905545009698
 10
4.175655107272805
 20
17.51700997191955
 10
3.625170598140278
 20
17.24387434050784
 10
3.076514443379247
 20
16.9691792997794
 10
2.5298687383521554
 20
16.69318722763107
 10
1.984777720036655
 20
16.416136634411668
 10
1.4416289570619907
 20
16.137913824556634
 10
0.9006963224928677
 20
15.858017533872168
 10
0.3619115534678928
 20
15.576572702458563
 10
-0.17480550723125068
 20
15.294023872043407
 10
-0.7093861174653294
 20
15.010245225314051
 10
-1.2417617404999126
 20
14.72511132090599
 10
-1.7718069918182693
 20
14.438690501769358
 10
-2.2997840555329354
 20
14.151164806418828
 10
-2.8257042782547503
 20
13.862852833953289
 10
-3.3491684708705507
 20
13.573321788445105
 10
-3.8700395599114734
 20
13.282320787165274
 10
-4.388454276505064
 20
12.990100086262553
 10
-4.904349473788538
 20
12.696841940975112
 10
-5.417839375951258
 20
12.402457581836927
 10
-5.928866929806122
 20
12.107140417214477
 10
-6.43737528757086
 20
11.811084231422392
 10
-6.9432158922292295
 20
11.513719292000683
 10
-7.446263427732782
 20
11.215114067215529
 10
-7.94673491936392
 20
10.91596360557536
 10
-8.44461874663876
 20
10.6159488067171
 10
-8.939595809194227
 20
10.315081291124644
 10
-9.431916739127214
 20
10.013224122265642
 10
-9.921330904340822
 20
9.710514236672445
 10
-10.407849925318946
 20
9.40727073470813
 10
-10.891792902424662
 20
9.1034819958888
 10
-11.372692178278648
 20
8.798589908238368
 10
-11.850707930381049
 20
8.49348330457989
 10
-12.326102411312643
 20
8.18834434874411
 10
-12.798590127524871
 20
7.882352676174124
 10
-13.267795130872356
 20
7.575713691668466
 10
-13.734048142202075
 20
7.2687348751063094
 10
-14.197417629780205
 20
6.961541542536109
 10
-14.657766657074394
 20
6.653883061860965
 10
-15.114913060253903
 20
6.346021685661671
 10
-15.569107471415654
 20
6.037820477405884
 10
-16.020304663261253
 20
5.7297923217713
 10
-16.468367699258355
 20
5.421686586661023
 10
-16.913228111140782
 20
5.113377956026596
 10
-17.354954367174713
 20
4.804991745916474
 10
-17.793558087844033
 20
4.496847056693732
 10
-18.229164589197204
 20
4.1888754200922005
 10
-18.661386302604978
 20
3.8809631405473146
 10
-19.090223228067337
 20
3.5731102180590817
 10
-19.51573221336658
 20
3.26512286831287
 10
-19.937856410720418
 20
2.957194875623304
 10
-20.35680122492737
 20
2.6497021881357483
 10
-20.77250980820515
 20
2.342838590164824
 10
-21.184708287489084
 20
2.0361028175167197
 10
-21.59352197882761
 20
1.7294264019252672
 10
-21.998506465809204
 20
1.4228894321405248
 10
-22.40011778532929
 20
1.1167309197755113
 10
-22.79842440565403
 20
0.8110761808786769
 10
-23.19317569468653
 20
0.5060621519823697
 10
-23.584303184160618
 20
0.20156351703813039
 10
-23.97172678532622
 20
-0.10286414036556492
 10
-24.355595055199583
 20
-0.4066510877687351
 10
-24.736113398579217
 20
-0.7094213770260237
 10
-25.11281415808582
 20
-1.0117331201135202
 10
-25.485822649767822
 20
-1.3136547852973985
 10
-25.85502517806068
 20
-1.614798803948404
 10
-26.22054705901284
 20
-1.9152336443327131
 10
-26.582456760890484
 20
-2.2148339904018752
 10
-26.94042356284663
 20
-2.513907322035069
 10
-27.29458440141363
 20
-2.8122030071353943
 10
-27.644939276591472
 20
-3.1097210457028472
 10
-27.991762061444867
 20
-3.405960173543622
 10
-28.334733655610727
 20
-3.7009087701738252
 10
-28.67389928638744
 20
-3.9950797202711557
 10
-29.0089967011942
 20
-4.288655187666348
 10
-29.340174457047254
 20
-4.5810654398994215
 10
-29.6676948065274
 20
-4.8721283131396405
 10
-29.99115856052149
 20
-5.1622766033146466
 10
-30.31057733951343
 20
-5.451191210061357
 10
-30.626270243866276
 20
-5.738883753863668
 10
-30.93798664148314
 20
-6.025217298189231
 10
-31.245521127565492
 20
-6.310567791183409
 10
-31.549079106911854
 20
-6.594559284700839
 10
-31.84872904778841
 20
-6.877066462693074
 10
-32.14440248192898
 20
-7.158214641208561
 10
-32.435974093285104
 20
-7.437935351981128
 10
-32.72337541359062
 20
-7.7163539110592305
 10
-33.006800227160134
 20
-7.993413470660581
 10
-33.28599790189677
 20
-8.26897709425285
 10
-33.561105374332854
 20
-8.54279414973912
 10
-33.83223634003295
 20
-8.81525220574864
 10
-34.099014850851695
 20
-9.086145857482899
 10
-34.36149775457139
 20
-9.355668889256519
 10
-34.6199589242567
 20
-9.623320036875688
 10
-34.87439835990763
 20
-9.88909930034041
 10
-35.1245538089434
 20
-10.153188843481418
 10
-35.37035680309781
 20
-10.415713982347157
 10
-35.61186419015317
 20
-10.676868501252265
 10
-35.84916767934342
 20
-10.935888883422116
 10
-36.082324118450835
 20
-11.192968913171352
 10
-36.31119657094308
 20
-11.44835922259687
 10
-36.5356597207717
 20
-11.701991343432496
 10
-36.755850504469045
 20
-11.953614643581332
 10
-36.97163198550275
 20
-12.203479755140275
 10
-37.183072632139016
 20
-12.45146136206088
 10
-37.390240912644
 20
-12.69743414829469
 10
-37.592874574436905
 20
-12.941580277672433
 10
-37.79117902231626
 20
-13.183523802048757
 10
-37.9850056992658
 20
-13.423834453883648
 10
-38.17450316230179
 20
-13.661942500717117
 10
-38.359602943158045
 20
-13.897973258597624
 10
-38.54023657356841
 20
-14.132052043573614
 10
-38.716278737484394
 20
-14.364110387378913
 10
-38.88792321922065
 20
-14.594091442231246
 10
-39.05525010752725
 20
-14.821550791719083
 10
-39.21812246587183
 20
-15.04673906793933
 10
-39.37654029425439
 20
-15.26965627089198
 10
-39.53069737698958
 20
-15.490245552794761
 10
-39.6802746137143
 20
-15.708495293163777
 10
-39.82553425700935
 20
-15.924223328168292
 10
-39.96648792735862
 20
-16.137110557445236
 10
-40.103260940810586
 20
-16.347225449260776
 10
-40.23559104478443
 20
-16.554750167445643
 10
-40.36367202359476
 20
-16.759627864217563
 10
-40.487253245144714
 20
-16.96172160304419
 10
-40.60672227806351
 20
-17.160917688360957
 10
-40.721896958520425
 20
-17.356953867587077
 10
-40.832765666031555
 20
-17.550149241085613
 10
-40.93932840059693
 20
-17.74050380885658
 10
-41.04158516221651
 20
-17.92801757089997
 10
-41.13954757137422
 20
-18.112371426852704
 10
-41.233215628070056
 20
-18.29356537671479
 10
-41.32250924355393
 20
-18.47204383689775
 10
-41.40750850657594
 20
-18.647362390990057
 10
-41.487939544071374
 20
-18.82002230318552
 10
-41.56407622910492
 20
-18.989522309290333
 10
-41.6356446886119
 20
-19.1563636734983
 10
-41.70278185912465
 20
-19.320295763712526
 10
-41.76548774064317
 20
-19.481318579932996
 10
-41.82356854885285
 20
-19.639488969942
 10
-41.87741185238293
 20
-19.79469323817498
 10
-41.92643629828952
 20
-19.947101927978764
 10
-41.97115477125034
 20
-20.096669812054976
 10
-42.0112481709023
 20
-20.243385269919724
 10
-42.04692190204394
 20
-20.38687235342764
 10
-42.07816434419135
 20
-20.52745016294181
 10
-42.10491864956226
 20
-20.664924914147612
 10
-42.12745869122134
 20
-20.79879534285123
 10
-42.14570438041855
 20
-20.929505865464186
 10
-42.159667337637764
 20
-21.056737381623417
 10
-42.16948449941135
 20
-21.180239259232014
 10
-42.17542973880397
 20
-21.29951023409616
 10
-42.177503055815635
 20
-21.41455030621586
 10
-42.17596670302715
 20
-21.525177311760384
 10
-42.17091238967248
 20
-21.630627733955123
 10
-42.16273930486475
 20
-21.73046877687243
 10
-42.15225744731414
 20
-21.823515748293968
 10
-42.139695462786975
 20
-21.90875449934821
 10
-42.12627415959045
 20
-21.9842484415261
 10
-42.11321434603179
 20
-22.048060986318553
 10
-42.10190862840223
 20
-22.097047612030376
 10
-42.094194029404555
 20
-22.128143885716426
 10
-41.65899434521535
 20
-22.930339648433996
 10
-41.653121458719944
 20
-22.9354298698478
 10
-41.635571267499884
 20
-22.950575218040736
 10
-41.606617644619895
 20
-22.97527442881902
 10
-41.56497131350656
 20
-23.011589406740153
 10
-41.509445072667155
 20
-23.06228872535399
 10
-41.443473955894234
 20
-23.12078748187483
 10
-41.36905516339068
 20
-23.183132410534466
 10
-41.28732941471364
 20
-23.247831339235365
 10
-41.19960922740428
 20
-23.31218416269384
 10
-41.10638549980973
 20
-23.374994568207658
 10
-41.008251205357745
 20
-23.43577291206689
 10
-40.90535490106457
 20
-23.493949461811564
 10
-40.79797045999487
 20
-23.54902295324786
 10
-40.68623481868103
 20
-23.600742754278883
 10
-40.57014797712301
 20
-23.649108864904626
 10
-40.449903719635465
 20
-23.69406443734281
 10
-40.32551366670228
 20
-23.735290371230356
 10
-40.19690935005726
 20
-23.77291198261572
 10
-40.06428455401507
 20
-23.80687242371662
 10
-39.927377025994886
 20
-23.837353858363787
 10
-39.78625523426289
 20
-23.86423097050878
 10
-39.641306747448326
 20
-23.88739006458702
 10
-39.49195021260733
 20
-23.90700168394536
 10
-39.3386300461514
 20
-23.923145917333862
 10
-39.1810271477175
 20
-23.935811144268634
 10
-39.01933530162023
 20
-23.944940516967392
 10
-38.85362297612578
 20
-23.950408719381684
 10
-38.68368476643561
 20
-23.952591699656878
 10
-38.509657609082076
 20
-23.95123882569606
 10
-38.3312676310005
 20
-23.94685136169304
 10
-38.148720236989384
 20
-23.93905335950246
 10
-37.962003806564844
 20
-23.928163919487403
 10
-37.770993023678415
 20
-23.91411457338169
 10
-37.575550951797766
 20
-23.89715595328223
 10
-37.37587137523751
 20
-23.877231211406738
 10
-37.171885825731486
 20
-23.854465663803676
 10
-36.963594303279685
 20
-23.828859310473035
 10
-36.75066608703513
 20
-23.800719631294008
 10
-36.53342027736092
 20
-23.77005824675048
 10
-36.31167471042631
 20
-23.73661290426166
 10
-36.0856800183282
 20
-23.700520540359886
 10
-35.85517394848579
 20
-23.661963318875898
 10
-35.62028181694756
 20
-23.621009708075864
 10
-35.38094677593121
 20
-23.57746592364516
 10
-35.13743107801753
 20
-23.53114980175305
 10
-34.8895409388919
 20
-23.482118190181822
 10
-34.63745852238505
 20
-23.430633341512266
 10
-34.381058512448554
 20
-23.376626787478212
 10
-34.12034090908238
 20
-23.320098528079665
 10
-33.855511117085065
 20
-23.26067261517126
 10
-33.58669445250505
 20
-23.198417517019173
 10
-33.313765599293866
 20
-23.13326476535723
 10
-33.03671293696766
 20
-23.065533460548508
 10
-32.75553646552642
 20
-22.99522360259301
 10
-32.47051005803481
 20
-22.921833927296927
 10
-32.181622094008965
 20
-22.845683535023333
 10
-31.888815725666603
 20
-22.766578641457606
 10
-31.59202248474154
 20
-22.68464456264819
 10
-31.291367687282232
 20
-22.59994976686127
 10
-30.98691980155486
 20
-22.512368938048386
 10
-30.678610359293238
 20
-22.422027392257995
 10
-30.366439360497377
 20
-22.32892512949009
 10
-30.05047527343343
 20
-22.232936833696225
 10
-29.73077494588371
 20
-22.134256289191022
 10
-29.40733837784819
 20
-22.032883495974488
 10
-29.080108721544605
 20
-21.928624669731978
 10
-28.749199672537507
 20
-21.82186737909277
 10
-28.414554383044614
 20
-21.712417839742216
 10
-28.07610438479976
 20
-21.60040136772878
 10
-27.734043462117565
 20
-21.485761115270183
 10
-27.388577019796553
 20
-21.368121134221063
 10
-27.039499653038206
 20
-21.247857372726774
 10
-26.686549109261723
 20
-21.12515199461806
 10
-26.330169804878626
 20
-21.000085088644976
 10
-25.97024804432436
 20
-20.87226908617827
 10
-25.606852295865117
 20
-20.741578671169506
 10
-25.24009625506543
 20
-20.608401412247915
 10
-24.869786137610685
 20
-20.472794157195786
 10
-24.49605888003323
 20
-20.334506273916215
 10
-24.119039798381507
 20
-20.19360623067537
 10
-23.738797360921705
 20
-20.049968711424803
 10
-23.3551261628553
 20
-19.90396966430987
 10
-22.968163140714623
 20
-19.755358457233665
 10
-22.577771357967347
 20
-19.60438572229309
 10
-22.184406851508882
 20
-19.450812447875144
 10
-21.787750520976168
 20
-19.294627013495923
 10
-21.387927682417633
 20
-19.1358978874216
 10
-20.984995183615577
 20
-18.974818853966806
 10
-20.578964645053883
 20
-18.811070812768463
 10
-20.16982444624866
 20
-18.644972864189644
 10
-19.757768371514537
 20
-18.47646816044807
 10
-19.34268272528695
 20
-18.305169132914497
 10
-18.924818139662808
 20
-18.131212718121265
 10
-18.50396920984359
 20
-17.954974864213728
 10
-18.080135935829293
 20
-17.776455571191892
 10
-17.65331831761992
 20
-17.595654839055754
 10
-17.223847076062444
 20
-17.41226518792613
 10
-16.791859147689216
 20
-17.226035985706122
 10
-16.356955343387074
 20
-17.037400028323358
 10
-15.919386295252938
 20
-16.846494252310183
 10
-15.479163623770695
 20
-16.652999557303524
 10
-15.036549581521149
 20
-16.456733779472646
 10
-14.591338763705776
 20
-16.258072866962905
 10
-14.143519549840684
 20
-16.057335920137387
 10
-13.693103560409769
 20
-15.854203838633008
 10
-13.240296200211548
 20
-15.648300674304409
 10
-12.785211164810578
 20
-15.44001399578084
 10
-12.327779985940683
 20
-15.229469119110757
 10
-11.86775203150497
 20
-15.016529107761816
 10
-11.405571717914958
 20
-14.801274050484079
 10
-10.94125066565455
 20
-14.583384846914468
 10
-10.474788874723737
 20
-14.362861497052988
 10
-10.006243192904797
 20
-14.139897785214256
 10
-9.535271278866878
 20
-13.915120291640541
 10
-9.062203853456944
 20
-13.68822153645266
 10
-8.587189473691229
 20
-13.45863178719062
 10
-8.110159671303567
 20
-13.226476359902886
 10
-7.631365078390864
 20
-12.991892191121797
 10
-7.1504065058399675
 20
-12.755312076774986
 10
-6.667546206231686
 20
-12.51655385303173
 10
-6.182784179566013
 20
-12.275617519892023
 10
-5.696257362375292
 20
-12.032252445258958
 10
-5.207897286393358
 20
-11.786583945180997
 10
-4.7178176471847735
 20
-11.538999588287384
 10
-4.225904749184964
 20
-11.289111805948867
 10
-3.732546161023187
 20
-11.036806902600889
 10
-3.237673414433273
 20
-10.782210194291899
 10
-2.7412180411490508
 20
-10.525446997070356
 10
-2.2431231933882296
 20
-10.266323526621628
 10
-1.7439017558285308
 20
-10.004794555647337
 10
-1.243496880687652
 20
-9.740666299832846
 10
-0.7413724423201262
 20
-9.474622187202709
 10
-0.2378475410890135
 20
-9.206673838240809
 10
0.2665416973601871
 20
-8.936137824922609
 10
0.7722513099228998
 20
-8.66325315886112
 10
1.2792244488168474
 20
-8.388213624370968
 10
1.7870735454127833
 20
-8.110905525887588
 10
2.29598076354143
 20
-7.831066610830193
 10
2.805695471105887
 20
-7.548833815731121
 10
3.3166168572192998
 20
-7.264639936518009
 10
3.8284826693008682
 20
-6.978302809360127
 10
4.340825249971277
 20
-6.6892643222813835
 10
4.853975320077495
 20
-6.397831955160965
 10
5.368081436635769
 20
-6.104575440458848
 10
5.882813084203906
 20
-5.809187674244008
 10
6.398238202423331
 20
-5.511495173401653
 10
6.91437471085841
 20
-5.2118285673713265
 10
7.43094894184925
 20
-4.909686967907364
 10
7.9479610323323975
 20
-4.605070625641854
 10
8.465559539324072
 20
-4.2985492730347925
 10
8.98368788891507
 20
-3.9903171956649914
 10
9.502402997355938
 20
-3.6801807345338706
 10
10.021374212267961
 20
-3.3678325350783016
 10
10.540738538651759
 20
-3.053523354711232
 10
11.060496250380403
 20
-2.737253694696856
 10
11.580521962937157
 20
-2.419091897985302
 10
12.100610476928319
 20
-2.0986623923793513
 10
12.620898728886223
 20
-1.7762158099759144
 10
13.141409959778658
 20
-1.4523903515011454
 10
13.66232660730941
 20
-1.1269242656384448
 10
14.183192566114817
 20
-0.7995784154587414
 10
14.704201757446016
 20
-0.47040989937641703
 10
15.225103549206105
 20
-0.13955565392382
 10
15.746091794177973
 20
0.192927347800724
 10
16.267098092563725
 20
0.5271642965296179
 10
16.787940280532613
 20
0.8628929396820646
 10
17.308880610665447
 20
1.199931113427333
 10
17.829850820100855
 20
1.5384037578657324
 10
18.350531603070944
 20
1.8782996284615068
 10
18.871116880826886
 20
2.219561626800286
 10
19.391618273852572
 20
2.561870652518992
 10
19.911887293600017
 20
2.905796312761551
 10
20.43181010756815
 20
3.2509512895308244
 10
20.9515236522893
 20
3.597084950729894
 10
21.470959527965576
 20
3.9443224870911755
 10
21.98998079806462
 20
4.292914530711565
 10
22.50872446758704
 20
4.642610324178108
 10
23.027076498626954
 20
4.9930229254418
 10
23.545025407637002
 20
5.344471184233625
 10
24.06265128336725
 20
5.696510684142048
 10
24.57974858408264
 20
6.049517623944525
 10
25.096248909985274
 20
6.40361719437346
 10
25.612289197607492
 20
6.758558763331946
 10
26.127823808841303
 20
7.11383019803857
 10
26.642978265139977
 20
7.469499590811366
 10
27.15742170871999
 20
7.825874672161606
 10
27.67122247091101
 20
8.18283037667295
 10
28.184380620181262
 20
8.540366579029326
 10
28.696964487860434
 20
8.898358213814404
 10
29.208654631244084
 20
9.256794287124517
 10
29.71964504005166
 20
9.615617575229251
 10
30.22987845569124
 20
9.974635045710249
 10
30.739617473085012
 20
10.333663908156563
 10
31.248336970856933
 20
10.693069618074073
 10
31.756105485741475
 20
11.052726734098297
 10
32.26339067511795
 20
11.412077144253134
 10
32.769530754951084
 20
11.771736434877202
 10
33.27445705156989
 20
12.131830297967085
 10
33.77870589602467
 20
12.491674929550113
 10
34.28216304500474
 20
12.850883763525408
 10
34.78454314189802
 20
13.210276913817768
 10
35.285789065049194
 20
13.569661097376763
 10
35.785775087600214
 20
13.928968597832512
 10
36.28476366753667
 20
14.288016875406138
 10
36.78269761473493
 20
14.646612772363246
 10
37.27964519205639
 20
15.004631348603542
 10
37.77534394151546
 20
15.3622551439059
 10
38.26965665270671
 20
15.719735291631412
 10
38.762788661960414
 20
16.076695968950787
 10
39.25473990080829
 20
16.43313730118005
 10
39.745327452268675
 20
16.788798414214952
 10
40.23480242771634
 20
17.1438153673755
 10
40.72270810557322
 20
17.49842842543518
 10
41.20911281716892
 20
17.852512522977634
 10
41.694358629961265
 20
18.205441581024807
 10
42.178377144152336
 20
18.557340790309098
 10
42.66077990102544
 20
18.908325475503702
 10
43.14188648022151
 20
19.25840637988016
 10
43.62137702822651
 20
19.607573261431117
 10
44.09937699802546
 20
19.955894337790646
 10
44.5758975308244
 20
20.303051385808025
 10
45.05081283129698
 20
20.6489768144294
 10
45.52438535742882
 20
20.993488083875903
 10
45.996158182237
 20
21.336825834869167
 10
46.46638241709634
 20
21.679126126729212
 10
46.93473820849282
 20
22.020378717448676
 10
47.4016360236821
 20
22.359832337317073
 10
47.86695013580619
 20
22.697419269964534
 10
48.3305208466428
 20
23.034027471001778
 10
48.79190250735159
 20
23.369579107367603
 10
49.25189397543676
 20
23.703207709994416
 10
49.71017532891597
 20
24.034903162190876
 10
50.16647235238325
 20
24.36516735473106
 10
50.62078490890204
 20
24.69400053824705
 10
51.07318126133374
 20
25.021277772638545
 10
51.52400361407264
 20
25.346372728295375
 10
51.97286330299728
 20
25.66940110583888
 10
52.41980624008868
 20
25.990874536786283
 10
52.86458069775769
 20
26.310658089662002
 10
53.307323407131825
 20
26.62850150831728
 10
53.748171167806944
 20
26.944154411287325
 10
54.186986769377604
 20
27.257867931933212
 10
54.623644211112705
 20
27.569574855149266
 10
55.05840601946609
 20
27.879092515840554
 10
55.49102046684864
 20
28.186285982531523
 10
55.92140773838331
 20
28.491599170369486
 10
56.34931596954441
 20
28.79489739851098
 10
56.77525920897018
 20
29.0961333092848
 10
57.19887107495117
 20
29.394786157010792
 10
57.620402952735226
 20
29.690991499744783
 10
58.03978610018307
 20
29.984875154799408
 10
58.45663185317323
 20
30.276552822796
 10
58.87100833763053
 20
30.565899814266356
 10
59.28323533860072
 20
30.852926496533886
 10
59.693003869902746
 20
31.137304905704678
 10
60.10057632105395
 20
31.418852627315903
 10
60.50562128652469
 20
31.69787839440724
 10
60.908195819502076
 20
31.97457561534517
 10
61.30824238752111
 20
32.24875175897553
 10
61.70576071670877
 20
32.52040732656253
 10
62.10083014266418
 20
32.78909928017118
 10
62.493370918978606
 20
33.05527140963275
 10
62.88319958092427
 20
33.31866384337137
 10
63.27030471342204
 20
33.57959530580199
 10
63.654891584333946
 20
33.83769009941132
 10
64.03690252425851
 20
34.09275594367733
 10
64.41613185452411
 20
34.34516928800957
 10
64.792579369726
 20
34.5949305083562
 10
65.16624479599106
 20
34.84204010598139
 10
65.53701320532598
 20
35.086112767944776
 10
65.90527291951092
 20
35.327033420205254
 10
66.27055552801566
 20
35.56536155321546
 10
66.63280342990696
 20
35.800904761137296
 10
66.9921421466381
 20
36.03373113628879
 10
67.34858254554202
 20
36.2635229567834
 10
67.70193008915318
 20
36.49033844887993
 10
68.05236776292149
 20
36.714438361366604
 10
68.39984897018329
 20
36.935312315886684
 10
68.74423656900134
 20
37.15321132048523
 10
69.08559882223712
 20
37.36801043506191
 10
69.42372998275073
 20
37.58008623434235
 10
69.75876678166972
 20
37.78918846217779
 10
70.09058308132643
 20
37.99525015409463
 10
70.41924714458227
 20
38.19814636999256
 10
70.74481616156079
 20
38.39807026760596
 10
71.06696966253367
 20
38.595012732771906
 10
71.3857073051595
 20
38.78897439207065
 10
71.70122328456259
 20
38.97989764582363
 10
72.0135861374773
 20
39.167657052666314
 10
72.3223398954765
 20
39.35249149889571
 10
72.62760398633775
 20
39.534480229958106
 10
72.92959045628142
 20
39.713235142051495
 10
73.22810223451603
 20
39.88881909812844
 10
73.5230022475728
 20
40.06148298091797
 10
73.81455309037376
 20
40.2310440000091
 10
74.10257116125469
 20
40.39724253445804
 10
74.38704518207295
 20
40.56039705804766
 10
74.66790647915758
 20
40.72063326277451
 10
74.94502898330924
 20
40.87788405884899
 10
75.21854942565544
 20
41.031899190122324
 10
75.4883989955887
 20
41.1828045992232
 10
75.7544406196401
 20
41.33085116888064
 10
76.01674249220282
 20
41.475914084310375
 10
76.27531554907803
 20
41.6176754983098
 10
76.5301594479244
 20
41.75613603745916
 10
76.7811261110036
 20
41.891864557006116
 10
77.02815780044583
 20
42.024668901744654
 10
77.27125444778288
 20
42.15454919699085
 10
77.51048417893958
 20
42.281380753276466
 10
77.74572099318478
 20
42.40509635549581
 10
77.97709048044003
 20
42.52576397065088
 10
78.20432977191012
 20
42.64356689041684
 10
78.42757546178608
 20
42.75825510927703
 10
78.64669047659905
 20
42.87007950996045
 10
78.86193747973935
 20
42.978857176740064
 10
79.07292753321248
 20
43.084704311501405
 10
79.27971789561029
 20
43.18781394666282
 10
79.48225096599958
 20
43.287993676386215
 10
79.68072093950457
 20
43.38518590099301
 10
79.87486426264738
 20
43.479575165318856
 10
80.06494325647714
 20
43.57097918021699
 10
80.25050482823379
 20
43.659631568710324
 10
80.43186369631142
 20
43.74555197150987
 10
80.60876991329577
 20
43.828602198922745
 10
80.78134920604494
 20
43.90884996731892
 10
80.9496014376223
 20
43.98629552733043
 10
81.11345793435697
 20
44.06106457095388
 10
81.27286123225221
 20
44.13296444171907
 10
81.42767412090267
 20
44.20224627298713
 10
81.57809100083732
 20
44.26885208913134
 10
81.72391719765407
 20
44.332840367042586
 10
81.86522111115089
 20
44.39408591598848
 10
82.00193420459327
 20
44.45271417733352
 10
82.13412474084264
 20
44.508600210977406
 10
82.26172418316453
 20
44.561869458284626
 10
82.38459552655834
 20
44.61277267666815
 10
82.50274956988875
 20
44.66099226955745
 10
82.6163697094153
 20
44.70678823384449
 10
82.72500947467847
 20
44.75008424026064
 10
82.829115130733
 20
44.79095699402266
 10
82.92843467611662
 20
44.82927206491916
 10
83.02283110582874
 20
44.86528021036312
 10
83.11249875193009
 20
44.89892358004384
 10
83.19731154522137
 20
44.930135084171724
 10
83.27713254917013
 20
44.95916535484363
 10
83.35222449563508
 20
44.985831351016515
 10
83.42232451582107
 20
45.01031636436554
 10
83.48750094105765
 20
45.03249532947436
 10
83.54761683481256
 20
45.05261887843987
 10
83.60274066535189
 20
45.070561695213605
 10
83.65292975973581
 20
45.086516686897866
 10
83.69793218497043
 20
45.100349297965224
 10
83.73780547352064
 20
45.11225205956983
 10
83.77267548918095
 20
45.12229243744945
 10
83.8022902989575
 20
45.13033587607668
 10
83.8266388301125
 20
45.136700473286204
 10
83.84591568857972
 20
45.141327877503144
 10
83.8597317309599
 20
45.14433466656121
 10
83.86814469512267
 20
45.14591299566634
 10
83.87101743913091
 20
45.14631387286364
 10
83.44309077555145
 20
45.92953917569212
  0
ENDSEC
  0
SECTION
  2
OBJECTS
  0
DICTIONARY
  5
A
330
0
100
AcDbDictionary
280
0
281
1
  3
ACAD_COLOR
350
B
  3
ACAD_GROUP
350
C
  3
ACAD_LAYOUT
350
D
  3
ACAD_MATERIAL
350
E
  3
ACAD_MLEADERSTYLE
350
F
  3
ACAD_MLINESTYLE
350
10
  3
ACAD_PLOTSETTINGS
350
11
  3
ACAD_PLOTSTYLENAME
350
12
  3
ACAD_SCALELIST
350
14
  3
ACAD_TABLESTYLE
350
15
  3
ACAD_VISUALSTYLE
350
16
  3
EZDXF_META
350
2D
  0
DICTIONARY
  5
B
330
A
100
AcDbDictionary
280
0
281
1
  0
DICTIONARY
  5
C
330
A
100
AcDbDictionary
280
0
281
1
  0
DICTIONARY
  5
D
330
A
100
AcDbDictionary
280
0
281
1
  3
Model
350
1A
  3
Layout1
350
1E
  0
DICTIONARY
  5
E
330
A
100
AcDbDictionary
280
0
281
1
  3
ByBlock
350
1F
  3
ByLayer
350
20
  3
Global
350
21
  0
DICTIONARY
  5
F
330
A
100
AcDbDictionary
280
0
281
1
  3
Standard
350
2C
  0
DICTIONARY
  5
10
330
A
100
AcDbDictionary
280
0
281
1
  3
Standard
350
22
  0
DICTIONARY
  5
11
330
A
100
AcDbDictionary
280
0
281
1
  0
ACDBDICTIONARYWDFLT
  5
12
330
A
100
AcDbDictionary
280
0
281
1
  3
Normal
350
13
100
AcDbDictionaryWithDefault
340
13
  0
ACDBPLACEHOLDER
  5
13
330
12
  0
DICTIONARY
  5
14
330
A
100
AcDbDictionary
280
0
281
1
  0
DICTIONARY
  5
15
330
A
100
AcDbDictionary
280
0
281
1
  0
DICTIONARY
  5
16
330
A
100
AcDbDictionary
280
0
281
1
  0
LAYOUT
  5
1A
330
D
100
AcDbPlotSettings
  1

  4
A3
  6

 40
7.5
 41
20.0
 42
7.5
 43
20.0
 44
420.0
 45
297.0
 46
0.0
 47
0.0
 48
0.0
 49
0.0
140
0.0
141
0.0
142
1.0
143
1.0
 70
1024
 72
1
 73
0
 74
5
  7

 75
16
 76
0
 77
2
 78
300
147
1.0
148
0.0
149
0.0
100
AcDbLayout
  1
Model
 70
1
 71
0
 10
0.0
 20
0.0
 11
420.0
 21
297.0
 12
0.0
 22
0.0
 32
0.0
 14
1e+20
 24
1e+20
 34
1e+20
 15
-1e+20
 25
-1e+20
 35
-1e+20
146
0.0
 13
0.0
 23
0.0
 33
0.0
 16
1.0
 26
0.0
 36
0.0
 17
0.0
 27
1.0
 37
0.0
 76
1
330
17
  0
LAYOUT
  5
1E
330
D
100
AcDbPlotSettings
  1

  4
A3
  6

 40
7.5
 41
20.0
 42
7.5
 43
20.0
 44
420.0
 45
297.0
 46
0.0
 47
0.0
 48
0.0
 49
0.0
140
0.0
141
0.0
142
1.0
143
1.0
 70
0
 72
1
 73
0
 74
5
  7

 75
16
 76
0
 77
2
 78
300
147
1.0
148
0.0
149
0.0
100
AcDbLayout
  1
Layout1
 70
1
 71
1
 10
0.0
 20
0.0
 11
420.0
 21
297.0
 12
0.0
 22
0.0
 32
0.0
 14
1e+20
 24
1e+20
 34
1e+20
 15
-1e+20
 25
-1e+20
 35
-1e+20
146
0.0
 13
0.0
 23
0.0
 33
0.0
 16
1.0
 26
0.0
 36
0.0
 17
0.0
 27
1.0
 37
0.0
 76
1
330
1B
  0
MATERIAL
  5
1F
102
{ACAD_REACTORS
330
E
102
}
330
E
100
AcDbMaterial
  1
ByBlock
  2

 70
0
 40
1.0
 71
1
 41
1.0
 91
-1023410177
 42
1.0
 72
1
  3

 73
1
 74
1
 75
1
 44
0.5
 73
0
 45
1.0
 46
1.0
 77
1
  4

 78
1
 79
1
170
1
 48
1.0
171
1
  6

172
1
173
1
174
1
140
1.0
141
1.0
175
1
  7

176
1
177
1
178
1
143
1.0
179
1
  8

270
1
271
1
272
1
145
1.0
146
1.0
273
1
  9

274
1
275
1
276
1
 42
1.0
 72
1
  3

 73
1
 74
1
 75
1
 94
63
  0
MATERIAL
  5
20
102
{ACAD_REACTORS
330
E
102
}
330
E
100
AcDbMaterial
  1
ByLayer
  2

 70
0
 40
1.0
 71
1
 41
1.0
 91
-1023410177
 42
1.0
 72
1
  3

 73
1
 74
1
 75
1
 44
0.5
 73
0
 45
1.0
 46
1.0
 77
1
  4

 78
1
 79
1
170
1
 48
1.0
171
1
  6

172
1
173
1
174
1
140
1.0
141
1.0
175
1
  7

176
1
177
1
178
1
143
1.0
179
1
  8

270
1
271
1
272
1
145
1.0
146
1.0
273
1
  9

274
1
275
1
276
1
 42
1.0
 72
1
  3

 73
1
 74
1
 75
1
 94
63
  0
MATERIAL
  5
21
102
{ACAD_REACTORS
330
E
102
}
330
E
100
AcDbMaterial
  1
Global
  2

 70
0
 40
1.0
 71
1
 41
1.0
 91
-1023410177
 42
1.0
 72
1
  3

 73
1
 74
1
 75
1
 44
0.5
 73
0
 45
1.0
 46
1.0
 77
1
  4

 78
1
 79
1
170
1
 48
1.0
171
1
  6

172
1
173
1
174
1
140
1.0
141
1.0
175
1
  7

176
1
177
1
178
1
143
1.0
179
1
  8

270
1
271
1
272
1
145
1.0
146
1.0
273
1
  9

274
1
275
1
276
1
 42
1.0
 72
1
  3

 73
1
 74
1
 75
1
 94
63
  0
MLINESTYLE
  5
22
102
{ACAD_REACTORS
330
10
102
}
330
10
100
AcDbMlineStyle
  2
Standard
 70
0
  3

 62
256
 51
90.0
 52
90.0
 71
2
 49
0.5
 62
256
  6
BYLAYER
 49
-0.5
 62
256
  6
BYLAYER
  0
MLEADERSTYLE
  5
2C
102
{ACAD_REACTORS
330
F
102
}
330
F
100
AcDbMLeaderStyle
179
2
170
2
171
1
172
0
 90
2
 40
0.0
 41
0.0
173
1
 91
-1056964608
 92
-2
290
1
 42
2.0
291
1
 43
8.0
  3
Standard
 44
4.0
300

342
29
174
1
175
1
176
0
178
1
 93
-1056964608
 45
4.0
292
0
297
0
 46
4.0
 94
-1056964608
 47
1.0
 49
1.0
140
1.0
294
1
141
0.0
177
0
142
1.0
295
0
296
0
143
3.75
271
0
272
9
273
9
  0
DICTIONARY
  5
2D
330
A
100
AcDbDictionary
280
1
281
1
  3
CREATED_BY_EZDXF
350
2E
  3
WRITTEN_BY_EZDXF
350
32
  0
DICTIONARYVAR
  5
2E
330
2D
100
DictionaryVariables
280
0
  1
1.3.5 @ 2025-08-22T23:49:56.664323+00:00
  0
DICTIONARYVAR
  5
32
330
2D
100
DictionaryVariables
280
0
  1
1.3.5 @ 2025-08-22T23:49:56.679528+00:00
  0
ENDSEC
  0
EOF
