  0
SECTION
  2
HEADER
  9
$ACADVER
  1
AC1032
  9
$ACADMAINTVER
 90
4
  9
$DWGCODEPAGE
  3
ANSI_1252
  9
$LASTSAVEDBY
  1
ezdxf
  9
$REQUIREDVERSIONS
160
0
  9
$INSBASE
 10
0.0
 20
0.0
 30
0.0
  9
$EXTMIN
 10
1e+20
 20
1e+20
 30
1e+20
  9
$EXTMAX
 10
-1e+20
 20
-1e+20
 30
-1e+20
  9
$LIMMIN
 10
0.0
 20
0.0
  9
$LIMMAX
 10
420.0
 20
297.0
  9
$ORTHOMODE
 70
0
  9
$REGENMODE
 70
1
  9
$FILLMODE
 70
1
  9
$QTEXTMODE
 70
0
  9
$MIRRTEXT
 70
1
  9
$LTSCALE
 40
1.0
  9
$ATTMODE
 70
1
  9
$TEXTSIZE
 40
2.5
  9
$TRACEWID
 40
1.0
  9
$TEXTSTYLE
  7
Standard
  9
$CLAYER
  8
0
  9
$CELTYPE
  6
ByLayer
  9
$CECOLOR
 62
256
  9
$CELTSCALE
 40
1.0
  9
$DISPSILH
 70
0
  9
$DIMSCALE
 40
1.0
  9
$DIMASZ
 40
2.5
  9
$DIMEXO
 40
0.625
  9
$DIMDLI
 40
3.75
  9
$DIMRND
 40
0.0
  9
$DIMDLE
 40
0.0
  9
$DIMEXE
 40
1.25
  9
$DIMTP
 40
0.0
  9
$DIMTM
 40
0.0
  9
$DIMTXT
 40
2.5
  9
$DIMCEN
 40
2.5
  9
$DIMTSZ
 40
0.0
  9
$DIMTOL
 70
0
  9
$DIMLIM
 70
0
  9
$DIMTIH
 70
0
  9
$DIMTOH
 70
0
  9
$DIMSE1
 70
0
  9
$DIMSE2
 70
0
  9
$DIMTAD
 70
1
  9
$DIMZIN
 70
8
  9
$DIMBLK
  1

  9
$DIMASO
 70
1
  9
$DIMSHO
 70
1
  9
$DIMPOST
  1

  9
$DIMAPOST
  1

  9
$DIMALT
 70
0
  9
$DIMALTD
 70
3
  9
$DIMALTF
 40
0.03937007874
  9
$DIMLFAC
 40
1.0
  9
$DIMTOFL
 70
1
  9
$DIMTVP
 40
0.0
  9
$DIMTIX
 70
0
  9
$DIMSOXD
 70
0
  9
$DIMSAH
 70
0
  9
$DIMBLK1
  1

  9
$DIMBLK2
  1

  9
$DIMSTYLE
  2
ISO-25
  9
$DIMCLRD
 70
0
  9
$DIMCLRE
 70
0
  9
$DIMCLRT
 70
0
  9
$DIMTFAC
 40
1.0
  9
$DIMGAP
 40
0.625
  9
$DIMJUST
 70
0
  9
$DIMSD1
 70
0
  9
$DIMSD2
 70
0
  9
$DIMTOLJ
 70
0
  9
$DIMTZIN
 70
8
  9
$DIMALTZ
 70
0
  9
$DIMALTTZ
 70
0
  9
$DIMUPT
 70
0
  9
$DIMDEC
 70
2
  9
$DIMTDEC
 70
2
  9
$DIMALTU
 70
2
  9
$DIMALTTD
 70
3
  9
$DIMTXSTY
  7
Standard
  9
$DIMAUNIT
 70
0
  9
$DIMADEC
 70
0
  9
$DIMALTRND
 40
0.0
  9
$DIMAZIN
 70
0
  9
$DIMDSEP
 70
44
  9
$DIMATFIT
 70
3
  9
$DIMFRAC
 70
0
  9
$DIMLDRBLK
  1

  9
$DIMLUNIT
 70
2
  9
$DIMLWD
 70
-2
  9
$DIMLWE
 70
-2
  9
$DIMTMOVE
 70
0
  9
$DIMFXL
 40
1.0
  9
$DIMFXLON
 70
0
  9
$DIMJOGANG
 40
0.785398163397
  9
$DIMTFILL
 70
0
  9
$DIMTFILLCLR
 70
0
  9
$DIMARCSYM
 70
0
  9
$DIMLTYPE
  6

  9
$DIMLTEX1
  6

  9
$DIMLTEX2
  6

  9
$DIMTXTDIRECTION
 70
0
  9
$LUNITS
 70
2
  9
$LUPREC
 70
4
  9
$SKETCHINC
 40
1.0
  9
$FILLETRAD
 40
10.0
  9
$AUNITS
 70
0
  9
$AUPREC
 70
2
  9
$MENU
  1
.
  9
$ELEVATION
 40
0.0
  9
$PELEVATION
 40
0.0
  9
$THICKNESS
 40
0.0
  9
$LIMCHECK
 70
0
  9
$CHAMFERA
 40
0.0
  9
$CHAMFERB
 40
0.0
  9
$CHAMFERC
 40
0.0
  9
$CHAMFERD
 40
0.0
  9
$SKPOLY
 70
0
  9
$TDCREATE
 40
2460911.034675926
  9
$TDUCREATE
 40
2458532.153996898
  9
$TDUPDATE
 40
2460911.034675926
  9
$TDUUPDATE
 40
2458532.1544311
  9
$TDINDWG
 40
0.0
  9
$TDUSRTIMER
 40
0.0
  9
$USRTIMER
 70
1
  9
$ANGBASE
 50
0.0
  9
$ANGDIR
 70
0
  9
$PDMODE
 70
0
  9
$PDSIZE
 40
0.0
  9
$PLINEWID
 40
0.0
  9
$SPLFRAME
 70
0
  9
$SPLINETYPE
 70
6
  9
$SPLINESEGS
 70
8
  9
$HANDSEED
  5
33
  9
$SURFTAB1
 70
6
  9
$SURFTAB2
 70
6
  9
$SURFTYPE
 70
6
  9
$SURFU
 70
6
  9
$SURFV
 70
6
  9
$UCSBASE
  2

  9
$UCSNAME
  2

  9
$UCSORG
 10
0.0
 20
0.0
 30
0.0
  9
$UCSXDIR
 10
1.0
 20
0.0
 30
0.0
  9
$UCSYDIR
 10
0.0
 20
1.0
 30
0.0
  9
$UCSORTHOREF
  2

  9
$UCSORTHOVIEW
 70
0
  9
$UCSORGTOP
 10
0.0
 20
0.0
 30
0.0
  9
$UCSORGBOTTOM
 10
0.0
 20
0.0
 30
0.0
  9
$UCSORGLEFT
 10
0.0
 20
0.0
 30
0.0
  9
$UCSORGRIGHT
 10
0.0
 20
0.0
 30
0.0
  9
$UCSORGFRONT
 10
0.0
 20
0.0
 30
0.0
  9
$UCSORGBACK
 10
0.0
 20
0.0
 30
0.0
  9
$PUCSBASE
  2

  9
$PUCSNAME
  2

  9
$PUCSORG
 10
0.0
 20
0.0
 30
0.0
  9
$PUCSXDIR
 10
1.0
 20
0.0
 30
0.0
  9
$PUCSYDIR
 10
0.0
 20
1.0
 30
0.0
  9
$PUCSORTHOREF
  2

  9
$PUCSORTHOVIEW
 70
0
  9
$PUCSORGTOP
 10
0.0
 20
0.0
 30
0.0
  9
$PUCSORGBOTTOM
 10
0.0
 20
0.0
 30
0.0
  9
$PUCSORGLEFT
 10
0.0
 20
0.0
 30
0.0
  9
$PUCSORGRIGHT
 10
0.0
 20
0.0
 30
0.0
  9
$PUCSORGFRONT
 10
0.0
 20
0.0
 30
0.0
  9
$PUCSORGBACK
 10
0.0
 20
0.0
 30
0.0
  9
$USERI1
 70
0
  9
$USERI2
 70
0
  9
$USERI3
 70
0
  9
$USERI4
 70
0
  9
$USERI5
 70
0
  9
$USERR1
 40
0.0
  9
$USERR2
 40
0.0
  9
$USERR3
 40
0.0
  9
$USERR4
 40
0.0
  9
$USERR5
 40
0.0
  9
$WORLDVIEW
 70
1
  9
$SHADEDGE
 70
3
  9
$SHADEDIF
 70
70
  9
$TILEMODE
 70
1
  9
$MAXACTVP
 70
64
  9
$PINSBASE
 10
0.0
 20
0.0
 30
0.0
  9
$PLIMCHECK
 70
0
  9
$PEXTMIN
 10
1e+20
 20
1e+20
 30
1e+20
  9
$PEXTMAX
 10
-1e+20
 20
-1e+20
 30
-1e+20
  9
$PLIMMIN
 10
0.0
 20
0.0
  9
$PLIMMAX
 10
420.0
 20
297.0
  9
$UNITMODE
 70
0
  9
$VISRETAIN
 70
1
  9
$PLINEGEN
 70
0
  9
$PSLTSCALE
 70
1
  9
$TREEDEPTH
 70
3020
  9
$CMLSTYLE
  2
Standard
  9
$CMLJUST
 70
0
  9
$CMLSCALE
 40
20.0
  9
$PROXYGRAPHICS
 70
1
  9
$MEASUREMENT
 70
1
  9
$CELWEIGHT
370
-1
  9
$ENDCAPS
280
0
  9
$JOINSTYLE
280
0
  9
$LWDISPLAY
290
0
  9
$INSUNITS
 70
6
  9
$HYPERLINKBASE
  1

  9
$STYLESHEET
  1

  9
$XEDIT
290
1
  9
$CEPSNTYPE
380
0
  9
$PSTYLEMODE
290
1
  9
$FINGERPRINTGUID
  2
{741C6729-8158-4466-B7A6-DF9D5723B88A}
  9
$VERSIONGUID
  2
{6A4F5D60-569B-4656-BB55-E6E1DBC7C489}
  9
$EXTNAMES
290
1
  9
$PSVPSCALE
 40
0.0
  9
$OLESTARTUP
290
0
  9
$SORTENTS
280
127
  9
$INDEXCTL
280
0
  9
$HIDETEXT
280
1
  9
$XCLIPFRAME
280
1
  9
$HALOGAP
280
0
  9
$OBSCOLOR
 70
257
  9
$OBSLTYPE
280
0
  9
$INTERSECTIONDISPLAY
280
0
  9
$INTERSECTIONCOLOR
 70
257
  9
$DIMASSOC
280
2
  9
$PROJECTNAME
  1

  9
$CAMERADISPLAY
290
0
  9
$LENSLENGTH
 40
50.0
  9
$CAMERAHEIGHT
 40
0.0
  9
$STEPSPERSEC
 40
24.0
  9
$STEPSIZE
 40
100.0
  9
$3DDWFPREC
 40
2.0
  9
$PSOLWIDTH
 40
0.005
  9
$PSOLHEIGHT
 40
0.08
  9
$LOFTANG1
 40
1.570796326795
  9
$LOFTANG2
 40
1.570796326795
  9
$LOFTMAG1
 40
0.0
  9
$LOFTMAG2
 40
0.0
  9
$LOFTPARAM
 70
7
  9
$LOFTNORMALS
280
1
  9
$LATITUDE
 40
37.795
  9
$LONGITUDE
 40
-122.394
  9
$NORTHDIRECTION
 40
0.0
  9
$TIMEZONE
 70
-8000
  9
$LIGHTGLYPHDISPLAY
280
1
  9
$TILEMODELIGHTSYNCH
280
1
  9
$CMATERIAL
347
20
  9
$SOLIDHIST
280
0
  9
$SHOWHIST
280
1
  9
$DWFFRAME
280
2
  9
$DGNFRAME
280
2
  9
$REALWORLDSCALE
290
1
  9
$INTERFERECOLOR
 62
256
  9
$CSHADOW
280
0
  9
$SHADOWPLANELOCATION
 40
0.0
  0
ENDSEC
  0
SECTION
  2
CLASSES
  0
CLASS
  1
ACDBDICTIONARYWDFLT
  2
AcDbDictionaryWithDefault
  3
ObjectDBX Classes
 90
0
 91
0
280
0
281
0
  0
CLASS
  1
SUN
  2
AcDbSun
  3
SCENEOE
 90
1153
 91
0
280
0
281
0
  0
CLASS
  1
VISUALSTYLE
  2
AcDbVisualStyle
  3
ObjectDBX Classes
 90
4095
 91
0
280
0
281
0
  0
CLASS
  1
MATERIAL
  2
AcDbMaterial
  3
ObjectDBX Classes
 90
1153
 91
0
280
0
281
0
  0
CLASS
  1
SCALE
  2
AcDbScale
  3
ObjectDBX Classes
 90
1153
 91
0
280
0
281
0
  0
CLASS
  1
TABLESTYLE
  2
AcDbTableStyle
  3
ObjectDBX Classes
 90
4095
 91
0
280
0
281
0
  0
CLASS
  1
MLEADERSTYLE
  2
AcDbMLeaderStyle
  3
ACDB_MLEADERSTYLE_CLASS
 90
4095
 91
0
280
0
281
0
  0
CLASS
  1
DICTIONARYVAR
  2
AcDbDictionaryVar
  3
ObjectDBX Classes
 90
0
 91
0
280
0
281
0
  0
CLASS
  1
CELLSTYLEMAP
  2
AcDbCellStyleMap
  3
ObjectDBX Classes
 90
1152
 91
0
280
0
281
0
  0
CLASS
  1
MENTALRAYRENDERSETTINGS
  2
AcDbMentalRayRenderSettings
  3
SCENEOE
 90
1024
 91
0
280
0
281
0
  0
CLASS
  1
ACDBDETAILVIEWSTYLE
  2
AcDbDetailViewStyle
  3
ObjectDBX Classes
 90
1025
 91
0
280
0
281
0
  0
CLASS
  1
ACDBSECTIONVIEWSTYLE
  2
AcDbSectionViewStyle
  3
ObjectDBX Classes
 90
1025
 91
0
280
0
281
0
  0
CLASS
  1
RASTERVARIABLES
  2
AcDbRasterVariables
  3
ISM
 90
0
 91
0
280
0
281
0
  0
CLASS
  1
LAYOUT
  2
AcDbLayout
  3
ObjectDBX Classes
 90
0
 91
0
280
0
281
0
  0
CLASS
  1
ACDBPLACEHOLDER
  2
AcDbPlaceHolder
  3
ObjectDBX Classes
 90
0
 91
0
280
0
281
0
  0
ENDSEC
  0
SECTION
  2
TABLES
  0
TABLE
  2
VPORT
  5
8
330
0
100
AcDbSymbolTable
 70
1
  0
VPORT
  5
23
330
8
100
AcDbSymbolTableRecord
100
AcDbViewportTableRecord
  2
*Active
 70
0
 10
0.0
 20
0.0
 11
1.0
 21
1.0
 12
0.0
 22
0.0
 13
0.0
 23
0.0
 14
0.5
 24
0.5
 15
0.5
 25
0.5
 16
0.0
 26
0.0
 36
1.0
 17
0.0
 27
0.0
 37
0.0
 40
1000.0
 41
1.34
 42
50.0
 43
0.0
 44
0.0
 50
0.0
 51
0.0
 71
0
 72
1000
 73
1
 74
3
 75
0
 76
0
 77
0
 78
0
281
0
 65
0
146
0.0
  0
ENDTAB
  0
TABLE
  2
LTYPE
  5
2
330
0
100
AcDbSymbolTable
 70
3
  0
LTYPE
  5
24
330
2
100
AcDbSymbolTableRecord
100
AcDbLinetypeTableRecord
  2
ByBlock
 70
0
  3

 72
65
 73
0
 40
0.0
  0
LTYPE
  5
25
330
2
100
AcDbSymbolTableRecord
100
AcDbLinetypeTableRecord
  2
ByLayer
 70
0
  3

 72
65
 73
0
 40
0.0
  0
LTYPE
  5
26
330
2
100
AcDbSymbolTableRecord
100
AcDbLinetypeTableRecord
  2
Continuous
 70
0
  3

 72
65
 73
0
 40
0.0
  0
ENDTAB
  0
TABLE
  2
LAYER
  5
1
330
0
100
AcDbSymbolTable
 70
2
  0
LAYER
  5
27
330
1
100
AcDbSymbolTableRecord
100
AcDbLayerTableRecord
  2
0
 70
0
 62
7
  6
Continuous
370
-3
390
13
347
21
  0
LAYER
  5
28
330
1
100
AcDbSymbolTableRecord
100
AcDbLayerTableRecord
  2
Defpoints
 70
0
 62
7
  6
Continuous
290
0
370
-3
390
13
347
21
  0
ENDTAB
  0
TABLE
  2
STYLE
  5
5
330
0
100
AcDbSymbolTable
 70
1
  0
STYLE
  5
29
330
5
100
AcDbSymbolTableRecord
100
AcDbTextStyleTableRecord
  2
Standard
 70
0
 40
0.0
 41
1.0
 50
0.0
 71
0
 42
2.5
  3
txt
  4

  0
ENDTAB
  0
TABLE
  2
VIEW
  5
7
330
0
100
AcDbSymbolTable
 70
0
  0
ENDTAB
  0
TABLE
  2
UCS
  5
6
330
0
100
AcDbSymbolTable
 70
0
  0
ENDTAB
  0
TABLE
  2
APPID
  5
3
330
0
100
AcDbSymbolTable
 70
3
  0
APPID
  5
2A
330
3
100
AcDbSymbolTableRecord
100
AcDbRegAppTableRecord
  2
ACAD
 70
0
  0
APPID
  5
30
330
3
100
AcDbSymbolTableRecord
100
AcDbRegAppTableRecord
  2
HATCHBACKGROUNDCOLOR
 70
0
  0
APPID
  5
31
330
3
100
AcDbSymbolTableRecord
100
AcDbRegAppTableRecord
  2
EZDXF
 70
0
  0
ENDTAB
  0
TABLE
  2
DIMSTYLE
  5
4
330
0
100
AcDbSymbolTable
 70
1
100
AcDbDimStyleTable
  0
DIMSTYLE
105
2B
330
4
100
AcDbSymbolTableRecord
100
AcDbDimStyleTableRecord
  2
Standard
 70
0
 40
1.0
 41
2.5
 42
0.625
 43
3.75
 44
1.25
 45
0.0
 46
0.0
 47
0.0
 48
0.0
 49
2.5
140
2.5
141
2.5
142
0.0
143
0.03937007874
144
1.0
145
0.0
146
1.0
147
0.625
148
0.0
 69
0
 70
0
 71
0
 72
0
 73
0
 74
0
 75
0
 76
0
 77
1
 78
8
 79
3
170
0
171
3
172
1
173
0
174
0
175
0
176
0
177
0
178
0
179
2
271
2
272
2
273
2
274
3
275
0
276
0
277
2
278
44
279
0
280
0
281
0
282
0
283
0
284
8
285
0
286
0
288
0
289
3
290
0
371
-2
372
-2
  0
ENDTAB
  0
TABLE
  2
BLOCK_RECORD
  5
9
330
0
100
AcDbSymbolTable
 70
2
  0
BLOCK_RECORD
  5
17
330
9
100
AcDbSymbolTableRecord
100
AcDbBlockTableRecord
  2
*Model_Space
340
1A
 70
0
280
1
281
0
  0
BLOCK_RECORD
  5
1B
330
9
100
AcDbSymbolTableRecord
100
AcDbBlockTableRecord
  2
*Paper_Space
340
1E
 70
0
280
1
281
0
  0
ENDTAB
  0
ENDSEC
  0
SECTION
  2
BLOCKS
  0
BLOCK
  5
18
330
17
100
AcDbEntity
  8
0
100
AcDbBlockBegin
  2
*Model_Space
 70
0
 10
0.0
 20
0.0
 30
0.0
  3
*Model_Space
  1

  0
ENDBLK
  5
19
330
17
100
AcDbEntity
  8
0
100
AcDbBlockEnd
  0
BLOCK
  5
1C
330
1B
100
AcDbEntity
  8
0
100
AcDbBlockBegin
  2
*Paper_Space
 70
0
 10
0.0
 20
0.0
 30
0.0
  3
*Paper_Space
  1

  0
ENDBLK
  5
1D
330
1B
100
AcDbEntity
  8
0
100
AcDbBlockEnd
  0
ENDSEC
  0
SECTION
  2
ENTITIES
  0
LWPOLYLINE
  5
2F
330
17
100
AcDbEntity
  8
0
100
AcDbPolyline
 90
722
 70
1
 10
89.82172908378928
 20
40.05835906686515
 10
89.8187603040173
 20
40.05814539936434
 10
89.80997335617063
 20
40.05723442391106
 10
89.795606605735
 20
40.055087138564964
 10
89.77540670415893
 20
40.05191185740403
 10
89.74982089135524
 20
40.04742639934124
 10
89.71865539523486
 20
40.04170436168239
 10
89.68183547736125
 20
40.03455017789216
 10
89.63962970789615
 20
40.026085682348445
 10
89.59196334840307
 20
40.01611530851594
 10
89.53858287142215
 20
40.004847775027486
 10
89.47987611931218
 20
39.99213521301338
 10
89.41570865790203
 20
39.977917042413715
 10
89.34602085109317
 20
39.96232811485229
 10
89.27093197108269
 20
39.945098727081536
 10
89.19032262640128
 20
39.92649885205228
 10
89.10438676804642
 20
39.90645448790385
 10
89.01298996184701
 20
39.88490505457637
 10
88.91607257170452
 20
39.86198540369365
 10
88.81388806544267
 20
39.83748695147445
 10
88.70618279632947
 20
39.81161868625488
 10
88.5930759769258
 20
39.784111039638944
 10
88.47471684556025
 20
39.755355684103755
 10
88.35076209363469
 20
39.72503521873613
 10
88.22161448693748
 20
39.69333259738035
 10
88.0870053956708
 20
39.66012612051011
 10
87.94706895582533
 20
39.62547704244346
 10
87.80180510776486
 20
39.58938549803197
 10
87.65115415575491
 20
39.551986473751136
 10
87.49511592088705
 20
39.51328037415577
 10
87.3338096157223
 20
39.47299763084991
 10
87.16711590842752
 20
39.431408081932794
 10
86.99522851145575
 20
39.388438264950246
 10
86.81795347380951
 20
39.344162181762925
 10
86.63540982914151
 20
39.29831066852972
 10
86.44761262015355
 20
39.251214278261386
 10
86.25450203183887
 20
39.20300826713658
 10
86.05625685322083
 20
39.153288349987164
 10
85.85262331829517
 20
39.10226378485247
 10
85.64392963332214
 20
39.049921554486566
 10
85.4298473534971
 20
38.996275215541885
 10
85.2106449893457
 20
38.941446737247944
 10
84.98618804706066
 20
38.88537567439646
 10
84.75661072226877
 20
38.82812314645382
 10
84.52183815726131
 20
38.76949385658798
 10
84.28200454766504
 20
38.7095489242653
 10
84.03685612747564
 20
38.64849760752513
 10
83.7867210433173
 20
38.586327023973176
 10
83.53146480138281
 20
38.52297672840119
 10
83.27108728239995
 20
38.4584469905124
 10
83.00558818818828
 20
38.392738484564944
 10
82.73504219754817
 20
38.32604691194577
 10
82.4593743334987
 20
38.25817724552603
 10
82.17865921520419
 20
38.18932532154428
 10
81.89295618058267
 20
38.119356962634875
 10
81.60238444219509
 20
38.0480026004018
 10
81.30695880419891
 20
37.97559332726231
 10
81.00642556022599
 20
37.90233826640411
 10
80.70078441209584
 20
37.82823809208532
 10
80.39034852336685
 20
37.75294923404931
 10
80.07505801939605
 20
37.676607083326346
 10
79.75491278091133
 20
37.59921190961971
 10
79.42973360143657
 20
37.52116894205891
 10
79.09981848255613
 20
37.44180432707981
 10
78.76518234769961
 20
37.361448887396385
 10
78.42576538186024
 20
37.280237879187304
 10
78.0813733954962
 20
37.198245843719775
 10
77.73233447559554
 20
37.11546003345109
 10
77.37857370481345
 20
37.03168528640082
 10
77.02009096387778
 20
36.946921872272235
 10
76.65690105694596
 20
36.861500883482535
 10
76.2892422898677
 20
36.77488345294302
 10
75.91686095627485
 20
36.687278703841415
 10
75.53996581132232
 20
36.59894372673428
 10
75.15855667610178
 20
36.50987892617647
 10
74.77261832900314
 20
36.41975415371216
 10
74.38209083574736
 20
36.32870493522324
 10
73.98724270686
 20
36.23685323993922
 10
73.58782011670078
 20
36.144408460751094
 10
73.18400179465698
 20
36.050966447342304
 10
72.77592187671917
 20
35.956588454030864
 10
72.36358018397908
 20
35.861274885371635
 10
71.94685714605919
 20
35.76529611887037
 10
71.52575258405116
 20
35.668652559081906
 10
71.1003259551453
 20
35.571209758937336
 10
70.67090540596566
 20
35.47295483604237
 10
70.23716231279933
 20
35.37390175160426
 10
69.79923087127305
 20
35.27411162508941
 10
69.35742418530914
 20
35.17324102109281
 10
68.91154794609348
 20
35.071364750584834
 10
68.46155744095734
 20
34.968948487903305
 10
68.0075868655273
 20
34.866053352514584
 10
67.54948644475
 20
34.76228888560618
 10
67.08770371671876
 20
34.65737223183294
 10
66.62199989849516
 20
34.55184333709658
 10
66.15243444726939
 20
34.44556775432816
 10
65.67894748839853
 20
34.33868087455798
 10
65.20179243007027
 20
34.23097424885645
 10
64.72096915301239
 20
34.12244814692681
 10
64.23634298450938
 20
34.013042528115655
 10
63.74812285862447
 20
33.9030140784247
 10
63.256174221914335
 20
33.79230248749731
 10
62.76075054220277
 20
33.680699171552256
 10
62.26185158094533
 20
33.568204669996014
 10
61.75961159340486
 20
33.45487996744337
 10
61.25383627076734
 20
33.34079987486472
 10
60.744540596098524
 20
33.226295080122426
 10
60.231768745342386
 20
33.11090112254332
 10
59.715864325277636
 20
32.99493472878249
 10
59.196796773411755
 20
32.877735871631444
 10
58.674506155465714
 20
32.759440076972105
 10
58.14908231221396
 20
32.64057332949889
 10
57.620465369013615
 20
32.521271020242125
 10
57.08856518690971
 20
32.401007838765466
 10
56.554038655511526
 20
32.27975667176413
 10
56.016541869859886
 20
32.15720146684114
 10
55.47616455145701
 20
32.03386847839416
 10
54.93271245112499
 20
31.909832382541996
 10
54.38651395403241
 20
31.78507975748386
 10
53.83761335539536
 20
31.659145872843332
 10
53.286025638279675
 20
31.532361416482768
 10
52.73163129194389
 20
31.404996631056274
 10
52.174728377608396
 20
31.276377528148075
 10
51.615376352463464
 20
31.146369660689256
 10
51.05354578508649
 20
31.01576871662185
 10
50.489027204689386
 20
30.884319223608763
 10
49.92202972424363
 20
30.752277463096828
 10
49.35291104106821
 20
30.618834595046476
 10
48.78161134015623
 20
30.484125875636373
 10
48.20801123003853
 20
30.348421277817383
 10
47.63193150423899
 20
30.212126030719027
 10
47.05387969476617
 20
30.074821618262625
 10
46.47382506021921
 20
29.935848417794563
 10
45.89199217372419
 20
29.795792319811028
 10
45.30781356899358
 20
29.655207366272634
 10
44.72166228422868
 20
29.513614595892424
 10
44.133776565643075
 20
29.370475276433314
 10
43.54430618829027
 20
29.22617986670781
 10
42.95292223027681
 20
29.080743002181315
 10
42.35983398348248
 20
28.934420559745767
 10
41.76496641129034
 20
28.787017647123985
 10
41.16857322006851
 20
28.638325141128245
 10
40.570788843988105
 20
28.48840362181843
 10
39.971478550697526
 20
28.33719318339278
 10
39.37091138744731
 20
28.184814581416198
 10
38.7688180684425
 20
28.031147599730264
 10
38.16534824946444
 20
27.876582966850755
 10
37.56056162624769
 20
27.720985696302225
 10
36.95475614074049
 20
27.563682069372163
 10
36.34781240147361
 20
27.40494205901143
 10
35.73993987923514
 20
27.245021137557092
 10
35.13080965213161
 20
27.083933940474548
 10
34.52081003961064
 20
26.921531520081107
 10
33.91000061813462
 20
26.75767915960459
 10
33.298440964165984
 20
26.5922421422728
 10
32.686011566963266
 20
26.425490710739847
 10
32.07278746314351
 20
26.25761975728294
 10
31.45876847379838
 20
26.08862968645693
 10
30.844268060666742
 20
25.918176253747056
 10
30.229211187131646
 20
25.746064566876125
 10
29.613791983098782
 20
25.572220219428598
 10
28.997966153352035
 20
25.39710794178089
 10
28.38142005724421
 20
25.221072383002657
 10
27.76454219313118
 20
25.043964190856318
 10
27.14767497708559
 20
24.86464451169805
 10
26.530460413608047
 20
24.683922859825557
 10
25.91310827166712
 20
24.502054033317794
 10
25.29560297183606
 20
24.31870869282864
 10
24.678004209849465
 20
24.13375185188265
 10
24.060402243934522
 20
23.94770855121291
 10
23.44272215674642
 20
23.760383628838966
 10
22.825277350387932
 20
23.571432975097675
 10
22.207933152143568
 20
23.380796549335646
 10
21.59089933098191
 20
23.188729149631847
 10
20.974116131532245
 20
22.995365897313324
 10
20.357762521726233
 20
22.800302102657042
 10
19.741778746193148
 20
22.603672886990054
 10
19.12623990118608
 20
22.405673007737928
 10
18.51083240569396
 20
22.20664697911869
 10
17.896183421738932
 20
22.0059057726963
 10
17.28229294932099
 20
21.803449388470757
 10
16.669101411977714
 20
21.599412543214243
 10
16.05654905433839
 20
21.393930358253808
 10
15.444830364125334
 20
21.18692761806417
 10
14.83375097288842
 20
20.97847926846736
 10
14.223639921793287
 20
20.76857040429474
 10
13.614616542673083
 20
20.556931187447088
 10
13.006621199429272
 20
20.34369646954819
 10
12.399594315599426
 20
20.129000967370228
 10
11.793595527282102
 20
19.912709829289415
 10
11.189013690649704
 20
19.694672893958415
 10
10.585594741517529
 20
19.47510009367471
 10
9.983354259312302
 20
19.254320767784403
 10
9.382455692175043
 20
19.03160075236673
 10
8.783049292248009
 20
18.8073294274212
 10
8.184956330143944
 20
18.581910943264354
 10
7.588220862534596
 20
18.35488110892626
 10
6.993231864864624
 20
18.126089493356357
 10
6.399870124573083
 20
17.89580566495063
 10
5.808120121869301
 20
17.663700149511318
 10
5.218132287803852
 20
17.430161922483077
 10
4.629891162222172
 20
17.19486137481653
 10
4.043606752637231
 20
16.958052765184142
 10
3.458830686050279
 20
16.720020836853795
 10
2.8759519379059477
 20
16.480615158774917
 10
2.295209052598326
 20
16.239296324452297
 10
1.7165425729371835
 20
15.996198780954867
 10
1.1399083826146728
 20
15.751786854104184
 10
0.5653663562737022
 20
15.505925152869942
 10
-0.007023810351115072
 20
15.25847869077672
 10
-0.5771272059998602
 20
15.00950696907142
 10
-1.1451978948572956
 20
14.759219920051493
 10
-1.71122005895227
 20
14.507946343656572
 10
-2.2748203022668765
 20
14.255206469489975
 10
-2.835879233331884
 20
14.000730324600845
 10
-3.394515945436051
 20
13.74478720768191
 10
-3.950649736533013
 20
13.487559200106109
 10
-4.504405797198633
 20
13.228964819811864
 10
-5.055708732999312
 20
12.969198149966628
 10
-5.604483328409791
 20
12.708453678292722
 10
-6.150625890659768
 20
12.446132362196419
 10
-6.694001568125447
 20
12.182293837776237
 10
-7.234773689675634
 20
11.917671999249713
 10
-7.772957834737085
 20
11.651937507270718
 10
-8.308224663963676
 20
11.385074782412492
 10
-8.840843880603014
 20
11.11696455247799
 10
-9.370545781407492
 20
10.84772608966426
 10
-9.897314786950346
 20
10.577688733317427
 10
-10.421480236577706
 20
10.306868062864249
 10
-10.942609098173165
 20
10.034649456284233
 10
-11.46078948508024
 20
9.76196129551724
 10
-11.976275521119767
 20
9.48901364771236
 10
-12.488844241324447
 20
9.214937767028243
 10
-12.998091090822852
 20
8.939912561760462
 10
-13.504329829534353
 20
8.664282950681898
 10
-14.007620093557474
 20
8.38818378541636
 10
-14.507842610695164
 20
8.11134536271624
 10
-15.004787313798342
 20
7.834021806402377
 10
-15.498723906114625
 20
7.556093844277739
 10
-15.989561592691961
 20
7.278085303410767
 10
-16.477181101333304
 20
6.999726480553862
 10
-16.961522795940137
 20
6.720882524083222
 10
-17.44264631261098
 20
6.441688285622645
 10
-17.920536071919074
 20
6.16247310451826
 10
-18.395326925488213
 20
5.883177344671546
 10
-18.86662989787377
 20
5.6036505750319385
 10
-19.334444989075724
 20
5.323892795599443
 10
-19.79884741461936
 20
5.043709518651728
 10
-20.25976195897941
 20
4.763295231911117
 10
-20.717367530451426
 20
4.483054490249025
 10
-21.17158891351013
 20
4.203181781387772
 10
-21.622187563761432
 20
3.923137698832147
 10
-22.06929833282914
 20
3.642862606483631
 10
-22.512457029743324
 20
3.3624005610139784
 10
-22.95211226604714
 20
3.0820368450975617
 10
-23.38832367783914
 20
2.8019063103581834
 10
-23.820821561871686
 20
2.5221282289928855
 10
-24.24954628204627
 20
2.24256774937786
 10
-24.67445378169113
 20
1.9627606805431839
 10
-25.095647753576554
 20
1.6833060650825868
 10
-25.513307105998102
 20
1.4046084578674778
 10
-25.926998806839357
 20
1.1260532368773621
 10
-26.33685770772413
 20
0.8475807660137191
 10
-26.742733377601855
 20
0.5695800207211988
 10
-27.14476066809634
 20
0.2919913649012784
 10
-27.542999215306097
 20
0.014949650177759627
 10
-27.937135259311766
 20
-0.2618900422222427
 10
-28.327288072310385
 20
-0.5382580090511239
 10
-28.713457654301962
 20
-0.8141542503088839
 10
-29.095882549680564
 20
-1.0890393595003112
 10
-29.47423341910009
 20
-1.3629289160521636
 10
-29.84860105751256
 20
-1.6363467470328965
 10
-30.21873134109714
 20
-1.9095029195915934
 10
-30.584727962624108
 20
-2.18179839113452
 10
-30.946845045914305
 20
-2.4530230945125946
 10
-31.304709194949847
 20
-2.723656800122504
 10
-31.658304830303983
 20
-2.9933701686181236
 10
-32.00796129132283
 20
-3.2621476205726925
 10
-32.35340887475878
 20
-3.529869883789165
 10
-32.69446867231627
 20
-3.796941513138956
 10
-33.03131959229087
 20
-4.0629579537506535
 10
-33.3640212707811
 20
-4.327784354000454
 10
-33.692514071688436
 20
-4.591555565512161
 10
-34.01666314338907
 20
-4.854211952187252
 10
-34.33640884978448
 20
-5.115888365649536
 10
-34.65194567859701
 20
-5.376509590373722
 10
-34.963003926579034
 20
-5.635956354162775
 10
-35.2697028659276
 20
-5.893958953769085
 10
-35.57219292769327
 20
-6.1509063646373034
 10
-35.87006955700464
 20
-6.406619678471867
 10
-36.163407969386995
 20
-6.661293382995096
 10
-36.4524467092344
 20
-6.914388071711777
 10
-36.73718577654687
 20
-7.165903744621917
 10
-37.017371047503566
 20
-7.416050468874596
 10
-37.29294288600595
 20
-7.664963096093622
 10
-37.563976507579326
 20
-7.912836114001315
 10
-37.830500389468675
 20
-8.158875992281617
 10
-38.09258974719928
 20
-8.403277218656854
 10
-38.3501253085741
 20
-8.646309496374633
 10
-38.602972221969345
 20
-8.887913189336425
 10
-38.85124975958203
 20
-9.127818594294636
 10
-39.094838649215156
 20
-9.366295414496868
 10
-39.3337985269672
 20
-9.603208798319312
 10
-39.5681890289367
 20
-9.838423894138172
 10
-39.79775603130282
 20
-10.072150769102532
 10
-40.022678442361105
 20
-10.303984868340976
 10
-40.2428525693413
 20
-10.53452523444725
 10
-40.458382105013655
 20
-10.763172824827608
 10
-40.669207413279665
 20
-10.99006249110586
 10
-40.87526885804081
 20
-11.215329084905807
 10
-41.07643158767329
 20
-11.438912970128927
 10
-41.27289008989941
 20
-11.660738931249943
 10
-41.46468842139096
 20
-11.880342777298917
 10
-41.65170730995088
 20
-12.097994211523467
 10
-41.83394675557916
 20
-12.31369323392358
 10
-42.01160124599815
 20
-12.527364628973977
 10
-42.18434144186169
 20
-12.739023976101425
 10
-42.35242146699066
 20
-12.948461208156836
 10
-42.51582574195828
 20
-13.15534698579408
 10
-42.67468911838836
 20
-13.359740945111684
 10
-42.82875747246004
 20
-13.561853153258722
 10
-42.97822529189566
 20
-13.761608394709926
 10
-43.1228228734476
 20
-13.95888739726824
 10
-43.26293919256053
 20
-14.153539729883116
 10
-43.398364182085345
 20
-14.345311268733695
 10
-43.52911342144881
 20
-14.534531353166111
 10
-43.655186910650926
 20
-14.721199983180359
 10
-43.77658464969171
 20
-14.905317158776446
 10
-43.893291059144374
 20
-15.086553540608238
 10
-44.00530613900893
 20
-15.264909128675738
 10
-44.11258583261362
 20
-15.44084811394888
 10
-44.2151741966302
 20
-15.613906305457727
 10
-44.31283268666459
 20
-15.784623109697495
 10
-44.40579984711086
 20
-15.952459120172971
 10
-44.49383713357496
 20
-16.117953743379367
 10
-44.5770638182539
 20
-16.280837276069075
 10
-44.65547990114767
 20
-16.4411097182421
 10
-44.72889089453399
 20
-16.59884628542372
 10
-44.797685773857474
 20
-16.753896546563375
 10
-44.861281075951155
 20
-16.906486148236905
 10
-44.9202006278835
 20
-17.05652429549227
 10
-44.974115090308366
 20
-17.20402656775623
 10
-45.02320337152132
 20
-17.348588410157383
 10
-45.06748105094913
 20
-17.490539162041845
 10
-45.10687291306649
 20
-17.629684335687298
 10
-45.14161750226752
 20
-17.765484524598534
 10
-45.17167076188042
 20
-17.89840391974547
 10
-45.19701711247847
 20
-18.02811318178199
 10
-45.21777582625869
 20
-18.154342607460485
 10
-45.234185447615154
 20
-18.27655279028574
 10
-45.24624597654789
 20
-18.394743730257765
 10
-45.25421153687772
 20
-18.508705360227463
 10
-45.25811060584965
 20
-18.617644149878778
 10
-45.25831657948157
 20
-18.721080328815027
 10
-45.25556067038249
 20
-18.81772501689669
 10
-45.24999062799445
 20
-18.906514980560114
 10
-45.242695481517586
 20
-18.985352229922963
 10
-45.23476426015204
 20
-19.05213877510291
 10
-45.22735852701472
 20
-19.103518904931644
 10
-45.22210403619244
 20
-19.136180964912608
 10
-44.843531911397044
 20
-19.99915077850989
 10
-44.83792828952023
 20
-20.00489512545195
 10
-44.82117705998825
 20
-20.021993314654313
 10
-44.793516767195236
 20
-20.049905939621787
 10
-44.75379874584251
 20
-20.090865841860484
 10
-44.70104034110873
 20
-20.147824177667324
 10
-44.6382077784932
 20
-20.213709026506017
 10
-44.56701492542625
 20
-20.28428035194015
 10
-44.48850675443627
 20
-20.357904355057325
 10
-44.40380077196839
 20
-20.431689515659162
 10
-44.313298851285516
 20
-20.504362533032904
 10
-44.21756887612783
 20
-20.57536842125658
 10
-44.116714539265644
 20
-20.644108137736467
 10
-44.010974385093014
 20
-20.710042275977337
 10
-43.900467685806994
 20
-20.77290113273159
 10
-43.78519444140759
 20
-20.83268470799923
 10
-43.665349139617106
 20
-20.88931778625497
 10
-43.54091620100881
 20
-20.94247102815269
 10
-43.41183598948416
 20
-20.992279285316183
 10
-43.278302992765475
 20
-21.038667342220172
 10
-43.14006308703193
 20
-21.081845266013744
 10
-42.99717590838204
 20
-21.121678205073092
 10
-42.850030432260446
 20
-21.158015728347657
 10
-42.698043195500176
 20
-21.191083482413276
 10
-42.54167838907117
 20
-21.22092552394172
 10
-42.38060667362729
 20
-21.24755743235974
 10
-42.21502253689087
 20
-21.270903992142063
 10
-42.04498561496042
 20
-21.29083035166488
 10
-41.87031699954038
 20
-21.307741065799604
 10
-41.6911359628278
 20
-21.321366431298628
 10
-41.50720396042859
 20
-21.33224585465716
 10
-41.31869990063831
 20
-21.33997478100379
 10
-41.12563936288373
 20
-21.344882549684655
 10
-40.927887495541036
 20
-21.346909524601227
 10
-40.72532502641319
 20
-21.34632540900111
 10
-40.51814644322253
 20
-21.343054987359032
 10
-40.30629210987051
 20
-21.337233111298783
 10
-40.08976202635715
 20
-21.32885978082037
 10
-39.86824243276307
 20
-21.318279914696678
 10
-39.64206266843441
 20
-21.305477933500956
 10
-39.41101266622208
 20
-21.290199713412346
 10
-39.175362129373674
 20
-21.2725645266279
 10
-38.93485693406837
 20
-21.252782440296688
 10
-38.68963193192995
 20
-21.23091309051725
 10
-38.43961190743314
 20
-21.206761989567248
 10
-38.18505098439879
 20
-21.180119070297607
 10
-37.925754675104585
 20
-21.151059548233604
 10
-37.66193304669957
 20
-21.11983754719608
 10
-37.39345124755998
 20
-21.086393431086524
 10
-37.120309277685806
 20
-21.050727199904927
 10
-36.842686045372616
 20
-21.01243429877988
 10
-36.560716402244196
 20
-20.971574363809914
 10
-36.274265496676755
 20
-20.928087758896496
 10
-35.98334890809705
 20
-20.88230382338576
 10
-35.68796663650509
 20
-20.834222557277702
 10
-35.388357226294936
 20
-20.783304554077112
 10
-35.08453625689338
 20
-20.729879153130124
 10
-34.77642851277512
 20
-20.673751866714397
 10
-34.46397435784164
 20
-20.615057546453748
 10
-34.14730864371674
 20
-20.5538558284467
 10
-33.82649100649894
 20
-20.490011861069434
 10
-33.50146181008974
 20
-20.42366049594577
 10
-33.17222105448911
 20
-20.3548017330757
 10
-32.838828375795586
 20
-20.28330072083542
 10
-32.501358989534445
 20
-20.20935194694726
 10
-32.159812895705684
 20
-20.13295541141121
 10
-31.814114878784036
 20
-20.053916626504954
 10
-31.46441536982006
 20
-19.97262456767314
 10
-31.110639153288467
 20
-19.88888474719344
 10
-30.752726593090735
 20
-19.80283201668966
 10
-30.3908721769492
 20
-19.714391160636524
 10
-30.02525481315941
 20
-19.623157624162605
 10
-29.655695593425808
 20
-19.529535962139327
 10
-29.28194039392755
 20
-19.43373624171577
 10
-28.90445340563457
 20
-19.335802519563696
 10
-28.523084197496303
 20
-19.235345820238457
 10
-28.13789240561126
 20
-19.132231292116252
 10
-27.749028461030008
 20
-19.026847910641717
 10
-27.356297876030236
 20
-18.91927089134015
 10
-26.959819922808975
 20
-18.80923053096394
 10
-26.55972945299003
 20
-18.696786465611602
 10
-26.156086102671917
 20
-18.581803843659333
 10
-25.748710963559084
 20
-18.464687219978554
 10
-25.337723307848567
 20
-18.345166891321643
 10
-24.923003863343318
 20
-18.22351256093622
 10
-24.505001241586516
 20
-18.099438946147913
 10
-24.083386103232034
 20
-17.97296162638348
 10
-23.65829329990367
 20
-17.84414023774144
 10
-23.2297980471267
 20
-17.71316926794412
 10
-22.79788476547438
 20
-17.5797193776454
 10
-22.362569034373454
 20
-17.4441199061914
 10
-21.924045341546254
 20
-17.306295638056838
 10
-21.48216325594222
 20
-17.165857597797068
 10
-21.037192480808947
 20
-17.02292505760913
 10
-20.588954107850885
 20
-16.877902572364434
 10
-20.137448137068024
 20
-16.73079014206298
 10
-19.682674568460367
 20
-16.581587766704768
 10
-19.224947161947274
 20
-16.429950527516908
 10
-18.7643851897258
 20
-16.2756087212518
 10
-18.300615255778055
 20
-16.119042118306126
 10
-17.833907063351635
 20
-15.960369990876934
 10
-17.364245033019788
 20
-15.799262999618094
 10
-16.891883288603356
 20
-15.635511077380526
 10
-16.41664292180678
 20
-15.469518779035639
 10
-15.938539512056812
 20
-15.30161544392955
 10
-15.457557479926699
 20
-15.131471732716143
 10
-14.973875733712
 20
-14.958683090524003
 10
-14.48764470446328
 20
-14.783638492797781
 10
-13.998804756082018
 20
-14.606472791161275
 10
-13.507086185320611
 20
-14.427066713417453
 10
-13.012953183148987
 20
-14.245464316238065
 10
-12.51639017014038
 20
-14.061336260276988
 10
-12.017397146294797
 20
-13.87468254553422
 10
-11.516049327137518
 20
-13.68569765973209
 10
-11.012048532175939
 20
-13.49505586098961
 10
-10.505708521329428
 20
-13.302412230533893
 10
-9.997132987368254
 20
-13.1071677257712
 10
-9.48626229419391
 20
-12.90945719832534
 10
-8.973366145053996
 20
-12.709399920393356
 10
-8.458071143930626
 20
-12.507475662371935
 10
-7.940631414644644
 20
-12.303474357111991
 10
-7.42104695719605
 20
-12.09739600461353
 10
-6.899437043781883
 20
-11.88897090162894
 10
-6.375742038303627
 20
-11.678333899782029
 10
-5.850112371811852
 20
-11.465873974517445
 10
-5.322397613255986
 20
-11.251202150390535
 10
-4.79298673808067
 20
-11.034167996350737
 10
-4.261820110187397
 20
-10.814906364021857
 10
-3.7288380934776373
 20
-10.593552105027694
 10
-3.1939654724261057
 20
-10.369910731645922
 10
-2.657726074101274
 20
-10.143891448924508
 10
-2.1200446829778357
 20
-9.91529976914112
 10
-1.5804286308408688
 20
-9.684885165940054
 10
-1.0392072570365058
 20
-9.452632059894553
 10
-0.496873229779674
 20
-9.217790977360318
 10
0.047022062472800344
 20
-8.980647201011715
 10
0.5924034041956295
 20
-8.741395218571073
 10
1.1388818199441675
 20
-8.499884598987821
 10
1.6866673768674987
 20
-8.25586121844112
 10
2.2354903717180177
 20
-8.009444349128009
 10
2.7857242005136116
 20
-7.761113761445181
 10
3.3371147394334355
 20
-7.510659388243546
 10
3.8892289563610905
 20
-7.257466607502613
 10
4.4423806112159205
 20
-7.001880337995273
 10
4.9966733967682275
 20
-6.744499622315253
 10
5.551793732006926
 20
-6.484979946244547
 10
6.1078264935052715
 20
-6.223148668023873
 10
6.664761588357552
 20
-5.959347533348759
 10
7.2223606510779925
 20
-5.69303754027886
 10
7.780623800938794
 20
-5.424218958517418
 10
8.33965473071022
 20
-5.153490830658175
 10
8.899378463411386
 20
-4.881048183829952
 10
9.459870274203691
 20
-4.606696665162037
 10
10.020816462803845
 20
-4.3300914907331745
 10
10.582336361044998
 20
-4.051502498642593
 10
11.144430207471554
 20
-3.7709302282967867
 10
11.706963090823592
 20
-3.488434180942654
 10
12.269756281713859
 20
-3.203610206263654
 10
12.832929052339386
 20
-2.9167280075074005
 10
13.396450243846665
 20
-2.628446263366135
 10
13.960530161929158
 20
-2.338511389425521
 10
14.52472013540761
 20
-2.046637968159561
 10
15.08921477127654
 20
-1.752901484796782
 10
15.653744366288334
 20
-1.4574212115342322
 10
16.218503467801426
 20
-1.1602724987488138
 10
16.78343249935339
 20
-0.8613206296683452
 10
17.348321393795135
 20
-0.5608197281136783
 10
17.913424274947516
 20
-0.2589798612338913
 10
18.4786816856203
 20
0.04433341803994144
 10
19.043764107559067
 20
0.34913609368945825
 10
19.608866147758324
 20
0.6553526804861202
 10
20.173972226791342
 20
0.9626538390838151
 10
20.7389787115239
 20
1.2716384772246352
 10
21.30373505163328
 20
1.581917889167198
 10
21.86836051931649
 20
1.8932223716638832
 10
22.432795538111105
 20
2.205686641486872
 10
22.996920835820116
 20
2.5195804018837777
 10
23.56085574427664
 20
2.8346338147553656
 10
24.12444953424962
 20
3.150458578915105
 10
24.687717904438017
 20
3.467383764005879
 10
25.250704911513594
 20
3.7849451790577557
 10
25.813231527908588
 20
4.1035476486453915
 10
26.375238177160576
 20
4.423325889540966
 10
26.936844131466604
 20
4.744010198496872
 10
27.497958238058036
 20
5.065077557554406
 10
28.058715527466973
 20
5.386587198257215
 10
28.618802120501837
 20
5.708884309081427
 10
29.178277533988968
 20
6.031834308106495
 10
29.737141827564464
 20
6.355437060480796
 10
30.295454518054644
 20
6.6795579842837745
 10
30.8528859679329
 20
7.004213333200309
 10
31.409630843829827
 20
7.329327487150242
 10
31.965613572403566
 20
7.6547067675209925
 10
32.52108857565546
 20
7.9801404329053645
 10
33.07554706921892
 20
8.306049831266131
 10
33.62904874882858
 20
8.632299976127875
 10
34.182026646600825
 20
8.958276245470097
 10
34.73385294451647
 20
9.2846691510967
 10
35.28446782756866
 20
9.611613949186347
 10
35.83436414288063
 20
9.938360761539878
 10
36.38339098231304
 20
10.26452169152563
 10
36.93132550017076
 20
10.5909652152817
 10
37.478092242384086
 20
10.917497384492252
 10
38.02355599951267
 20
11.244059372168513
 10
38.56797107428562
 20
11.570440706606528
 10
39.11126195299717
 20
11.89644757434208
 10
39.653488092837556
 20
12.221945528306259
 10
40.19439519107761
 20
12.547145040203002
 10
40.733863736975934
 20
12.872316352686417
 10
41.27207257919196
 20
13.19705504573672
 10
41.80902165808961
 20
13.521361254205539
 10
42.34450025052271
 20
13.844982337639882
 10
42.87877847719154
 20
14.168036624275421
 10
43.41140713019196
 20
14.490810745302777
 10
43.94244572635029
 20
14.813170118801386
 10
44.47219220761474
 20
15.134441026058719
 10
45.000586997522916
 20
15.454758183846977
 10
45.52724034536083
 20
15.77427377628781
 10
46.05248200792737
 20
16.092971279993105
 10
46.57598198987927
 20
16.41086775775748
 10
47.09787526211253
 20
16.728022575976205
 10
47.618145827747725
 20
17.044107339264528
 10
48.13665841770837
 20
17.35906335548529
 10
48.65366733472357
 20
17.67268015293454
 10
49.16872319198091
 20
17.98524476735774
 10
49.682096110180666
 20
18.296875526990576
 10
50.19345609397964
 20
18.607589494627675
 10
50.70316066178844
 20
18.916578234784332
 10
51.2110746041667
 20
19.223782920471763
 10
51.71711022522357
 20
19.530130989668468
 10
52.22080226053936
 20
19.835580813031918
 10
52.722897919602545
 20
20.139171905807366
 10
53.22306714743378
 20
20.44092146564105
 10
53.72107110145853
 20
20.74136957328631
 10
54.21690966240454
 20
21.04051649844638
 10
54.71064228746211
 20
21.338227794052344
 10
55.20256703785159
 20
21.633829471688426
 10
55.69229398395076
 20
21.927474120031164
 10
56.17991451707268
 20
22.219684217632786
 10
56.66515797979216
 20
22.51034264992223
 10
57.148143465397936
 20
22.799180118206753
 10
57.62899012681484
 20
23.085927188941998
 10
58.107578453301464
 20
23.370854104782065
 10
58.583772996872995
 20
23.65390257814467
 10
59.0578281198947
 20
23.934862002474247
 10
59.52947316494137
 20
24.213615263199724
 10
59.998664313885634
 20
24.490626011884522
 10
60.465130790030145
 20
24.765777403660852
 10
60.929397434257
 20
25.038976351099056
 10
61.39104232318509
 20
25.309718652106156
 10
61.85033581605911
 20
25.578122095511336
 10
62.307218038236115
 20
25.844322072344887
 10
62.76129906009391
 20
26.10847117128336
 10
63.212638219550506
 20
26.37043521496107
 10
63.66156545231302
 20
26.630197275435027
 10
64.10773452761443
 20
26.887446559521578
 10
64.55139968854772
 20
27.14197273036838
 10
64.99224657883256
 20
27.39412205526458
 10
65.43035059290256
 20
27.644088617377626
 10
65.86563591887138
 20
27.891679277501414
 10
66.29810231819471
 20
28.136894575042458
 10
66.72779319154719
 20
28.379271802398694
 10
67.15466478043754
 20
28.61927447628192
 10
67.57850588463081
 20
28.85665103505214
 10
67.99933226246206
 20
29.091730413500624
 10
68.41732270295465
 20
29.324108326459196
 10
68.83240127495014
 20
29.553591904425037
 10
69.24438883160853
 20
29.78058624167602
 10
69.65328519402159
 20
30.00509174276705
 10
70.05909012364484
 20
30.227108947104597
 10
70.46165211597803
 20
30.446251306573267
 10
70.86136080246281
 20
30.662366906754603
 10
71.25778249498576
 20
30.876071853036994
 10
71.65084132202445
 20
31.087173141065943
 10
72.04067231411106
 20
31.295730002385135
 10
72.42725923582167
 20
31.501414581016288
 10
72.81040694343689
 20
31.704303575852535
 10
73.19032621973898
 20
31.90464949249524
 10
73.56692507705397
 20
32.101931200908446
 10
73.94008406427648
 20
32.29641880889461
 10
74.30986263859677
 20
32.487977869384814
 10
74.67608159353874
 20
32.67701361150858
 10
75.03886002239116
 20
32.86325673657316
 10
75.39806235789706
 20
33.04664922669954
 10
75.75374805724667
 20
33.2270566348188
 10
76.1059926341457
 20
33.40467277439511
 10
76.4544655565261
 20
33.57951592188772
 10
76.79916652620742
 20
33.75158675155476
 10
77.14029038872847
 20
33.92080923876119
 10
77.477896839824
 20
34.0870483970316
 10
77.81153732758682
 20
34.25058937418872
 10
78.14134157493632
 20
34.41150340357071
 10
78.4674942748696
 20
34.56937284969867
 10
78.78979807713164
 20
34.724279400975824
 10
79.10813359025316
 20
34.87649303035302
 10
79.42275523623552
 20
35.02580299642305
 10
79.73345169557157
 20
35.17195800724918
 10
80.04023884586857
 20
35.315286727919414
 10
80.34305687211962
 20
35.4559244146124
 10
80.64177026670396
 20
35.59381291459752
 10
80.93649812291025
 20
35.728682929182014
 10
81.22718050645953
 20
35.86066998424783
 10
81.51369802588252
 20
35.99004405274578
 10
81.79611007873336
 20
36.11667082245859
 10
82.07440048922432
 20
36.24022230255636
 10
82.34856895917487
 20
36.36069916729721
 10
82.61851221326746
 20
36.47869951531351
 10
82.8841542607075
 20
36.594030611954025
 10
83.14549504185891
 20
36.70669259207042
 10
83.4025938946397
 20
36.81655127829696
 10
83.65531537106507
 20
36.9235483830514
 10
83.90379456130324
 20
37.02774300302575
 10
84.1477768048085
 20
37.129346419033716
 10
84.38738107559739
 20
37.22808960208581
 10
84.62248798220064
 20
37.324242525132895
 10
84.85335200625569
 20
37.41759431191612
 10
85.07958297959591
 20
37.50829809051853
 10
85.30125647556324
 20
37.596547539552716
 10
85.51829662263526
 20
37.68214965466422
 10
85.7308982663509
 20
37.76502841121802
 10
85.93880614980343
 20
37.84539643854402
 10
86.14227445644981
 20
37.92304353464155
 10
86.3408571390991
 20
37.99824918356514
 10
86.53487972038711
 20
38.07100643639194
 10
86.72407309342722
 20
38.14119467240868
 10
86.90857246765988
 20
38.208872718604155
 10
87.08837772381284
 20
38.274040844681586
 10
87.26342904687925
 20
38.33683430681967
 10
87.43365068460902
 20
38.397059830960664
 10
87.59892312626064
 20
38.45498765975869
 10
87.75944139628139
 20
38.51054136402387
 10
87.91501023167963
 20
38.56379791235257
 10
88.06568920891779
 20
38.614622587972626
 10
88.21141863226121
 20
38.66315037735944
 10
88.3522579589002
 20
38.70924683344411
 10
88.48814749310004
 20
38.75304694270204
 10
88.61896790302768
 20
38.79482054323249
 10
88.74470289362313
 20
38.83423991390878
 10
88.86556360548524
 20
38.87155675122255
 10
88.98108405856117
 20
38.906731044050765
 10
89.09173005399546
 20
38.93980320807131
 10
89.19723069581856
 20
38.970656668119645
 10
89.29746665219733
 20
38.99956126229498
 10
89.39263288794282
 20
39.02644069625905
 10
89.48259389543426
 20
39.051236817281215
 10
89.56723040247455
 20
39.07421932860906
 10
89.64679695033722
 20
39.09517721913215
 10
89.7210388784765
 20
39.11432176966415
 10
89.79001570371881
 20
39.13151839828455
 10
89.853608153867
 20
39.14703680824092
 10
89.91187586501967
 20
39.16074214790947
 10
89.96489447015475
 20
39.172827961051155
 10
90.0123931329388
 20
39.1831775376498
 10
90.05444766525805
 20
39.191984016911476
 10
90.09119339582512
 20
39.19930595612172
 10
90.12235948830647
 20
39.205026645264326
 10
90.14796199921774
 20
39.20947434487246
 10
90.16819613191437
 20
39.21257222120132
 10
90.18267153932149
 20
39.21447380688886
 10
90.19146421223363
 20
39.21537183658625
 10
90.19445469954549
 20
39.215536418096
 10
89.82172908378928
 20
40.05835906686515
  0
ENDSEC
  0
SECTION
  2
OBJECTS
  0
DICTIONARY
  5
A
330
0
100
AcDbDictionary
280
0
281
1
  3
ACAD_COLOR
350
B
  3
ACAD_GROUP
350
C
  3
ACAD_LAYOUT
350
D
  3
ACAD_MATERIAL
350
E
  3
ACAD_MLEADERSTYLE
350
F
  3
ACAD_MLINESTYLE
350
10
  3
ACAD_PLOTSETTINGS
350
11
  3
ACAD_PLOTSTYLENAME
350
12
  3
ACAD_SCALELIST
350
14
  3
ACAD_TABLESTYLE
350
15
  3
ACAD_VISUALSTYLE
350
16
  3
EZDXF_META
350
2D
  0
DICTIONARY
  5
B
330
A
100
AcDbDictionary
280
0
281
1
  0
DICTIONARY
  5
C
330
A
100
AcDbDictionary
280
0
281
1
  0
DICTIONARY
  5
D
330
A
100
AcDbDictionary
280
0
281
1
  3
Model
350
1A
  3
Layout1
350
1E
  0
DICTIONARY
  5
E
330
A
100
AcDbDictionary
280
0
281
1
  3
ByBlock
350
1F
  3
ByLayer
350
20
  3
Global
350
21
  0
DICTIONARY
  5
F
330
A
100
AcDbDictionary
280
0
281
1
  3
Standard
350
2C
  0
DICTIONARY
  5
10
330
A
100
AcDbDictionary
280
0
281
1
  3
Standard
350
22
  0
DICTIONARY
  5
11
330
A
100
AcDbDictionary
280
0
281
1
  0
ACDBDICTIONARYWDFLT
  5
12
330
A
100
AcDbDictionary
280
0
281
1
  3
Normal
350
13
100
AcDbDictionaryWithDefault
340
13
  0
ACDBPLACEHOLDER
  5
13
330
12
  0
DICTIONARY
  5
14
330
A
100
AcDbDictionary
280
0
281
1
  0
DICTIONARY
  5
15
330
A
100
AcDbDictionary
280
0
281
1
  0
DICTIONARY
  5
16
330
A
100
AcDbDictionary
280
0
281
1
  0
LAYOUT
  5
1A
330
D
100
AcDbPlotSettings
  1

  4
A3
  6

 40
7.5
 41
20.0
 42
7.5
 43
20.0
 44
420.0
 45
297.0
 46
0.0
 47
0.0
 48
0.0
 49
0.0
140
0.0
141
0.0
142
1.0
143
1.0
 70
1024
 72
1
 73
0
 74
5
  7

 75
16
 76
0
 77
2
 78
300
147
1.0
148
0.0
149
0.0
100
AcDbLayout
  1
Model
 70
1
 71
0
 10
0.0
 20
0.0
 11
420.0
 21
297.0
 12
0.0
 22
0.0
 32
0.0
 14
1e+20
 24
1e+20
 34
1e+20
 15
-1e+20
 25
-1e+20
 35
-1e+20
146
0.0
 13
0.0
 23
0.0
 33
0.0
 16
1.0
 26
0.0
 36
0.0
 17
0.0
 27
1.0
 37
0.0
 76
1
330
17
  0
LAYOUT
  5
1E
330
D
100
AcDbPlotSettings
  1

  4
A3
  6

 40
7.5
 41
20.0
 42
7.5
 43
20.0
 44
420.0
 45
297.0
 46
0.0
 47
0.0
 48
0.0
 49
0.0
140
0.0
141
0.0
142
1.0
143
1.0
 70
0
 72
1
 73
0
 74
5
  7

 75
16
 76
0
 77
2
 78
300
147
1.0
148
0.0
149
0.0
100
AcDbLayout
  1
Layout1
 70
1
 71
1
 10
0.0
 20
0.0
 11
420.0
 21
297.0
 12
0.0
 22
0.0
 32
0.0
 14
1e+20
 24
1e+20
 34
1e+20
 15
-1e+20
 25
-1e+20
 35
-1e+20
146
0.0
 13
0.0
 23
0.0
 33
0.0
 16
1.0
 26
0.0
 36
0.0
 17
0.0
 27
1.0
 37
0.0
 76
1
330
1B
  0
MATERIAL
  5
1F
102
{ACAD_REACTORS
330
E
102
}
330
E
100
AcDbMaterial
  1
ByBlock
  2

 70
0
 40
1.0
 71
1
 41
1.0
 91
-1023410177
 42
1.0
 72
1
  3

 73
1
 74
1
 75
1
 44
0.5
 73
0
 45
1.0
 46
1.0
 77
1
  4

 78
1
 79
1
170
1
 48
1.0
171
1
  6

172
1
173
1
174
1
140
1.0
141
1.0
175
1
  7

176
1
177
1
178
1
143
1.0
179
1
  8

270
1
271
1
272
1
145
1.0
146
1.0
273
1
  9

274
1
275
1
276
1
 42
1.0
 72
1
  3

 73
1
 74
1
 75
1
 94
63
  0
MATERIAL
  5
20
102
{ACAD_REACTORS
330
E
102
}
330
E
100
AcDbMaterial
  1
ByLayer
  2

 70
0
 40
1.0
 71
1
 41
1.0
 91
-1023410177
 42
1.0
 72
1
  3

 73
1
 74
1
 75
1
 44
0.5
 73
0
 45
1.0
 46
1.0
 77
1
  4

 78
1
 79
1
170
1
 48
1.0
171
1
  6

172
1
173
1
174
1
140
1.0
141
1.0
175
1
  7

176
1
177
1
178
1
143
1.0
179
1
  8

270
1
271
1
272
1
145
1.0
146
1.0
273
1
  9

274
1
275
1
276
1
 42
1.0
 72
1
  3

 73
1
 74
1
 75
1
 94
63
  0
MATERIAL
  5
21
102
{ACAD_REACTORS
330
E
102
}
330
E
100
AcDbMaterial
  1
Global
  2

 70
0
 40
1.0
 71
1
 41
1.0
 91
-1023410177
 42
1.0
 72
1
  3

 73
1
 74
1
 75
1
 44
0.5
 73
0
 45
1.0
 46
1.0
 77
1
  4

 78
1
 79
1
170
1
 48
1.0
171
1
  6

172
1
173
1
174
1
140
1.0
141
1.0
175
1
  7

176
1
177
1
178
1
143
1.0
179
1
  8

270
1
271
1
272
1
145
1.0
146
1.0
273
1
  9

274
1
275
1
276
1
 42
1.0
 72
1
  3

 73
1
 74
1
 75
1
 94
63
  0
MLINESTYLE
  5
22
102
{ACAD_REACTORS
330
10
102
}
330
10
100
AcDbMlineStyle
  2
Standard
 70
0
  3

 62
256
 51
90.0
 52
90.0
 71
2
 49
0.5
 62
256
  6
BYLAYER
 49
-0.5
 62
256
  6
BYLAYER
  0
MLEADERSTYLE
  5
2C
102
{ACAD_REACTORS
330
F
102
}
330
F
100
AcDbMLeaderStyle
179
2
170
2
171
1
172
0
 90
2
 40
0.0
 41
0.0
173
1
 91
-1056964608
 92
-2
290
1
 42
2.0
291
1
 43
8.0
  3
Standard
 44
4.0
300

342
29
174
1
175
1
176
0
178
1
 93
-1056964608
 45
4.0
292
0
297
0
 46
4.0
 94
-1056964608
 47
1.0
 49
1.0
140
1.0
294
1
141
0.0
177
0
142
1.0
295
0
296
0
143
3.75
271
0
272
9
273
9
  0
DICTIONARY
  5
2D
330
A
100
AcDbDictionary
280
1
281
1
  3
CREATED_BY_EZDXF
350
2E
  3
WRITTEN_BY_EZDXF
350
32
  0
DICTIONARYVAR
  5
2E
330
2D
100
DictionaryVariables
280
0
  1
1.3.5 @ 2025-08-22T23:49:56.695658+00:00
  0
DICTIONARYVAR
  5
32
330
2D
100
DictionaryVariables
280
0
  1
1.3.5 @ 2025-08-22T23:49:56.706113+00:00
  0
ENDSEC
  0
EOF
