  0
SECTION
  2
HEADER
  9
$ACADVER
  1
AC1032
  9
$ACADMAINTVER
 90
4
  9
$DWGCODEPAGE
  3
ANSI_1252
  9
$LASTSAVEDBY
  1
ezdxf
  9
$REQUIREDVERSIONS
160
0
  9
$INSBASE
 10
0.0
 20
0.0
 30
0.0
  9
$EXTMIN
 10
1e+20
 20
1e+20
 30
1e+20
  9
$EXTMAX
 10
-1e+20
 20
-1e+20
 30
-1e+20
  9
$LIMMIN
 10
0.0
 20
0.0
  9
$LIMMAX
 10
420.0
 20
297.0
  9
$ORTHOMODE
 70
0
  9
$REGENMODE
 70
1
  9
$FILLMODE
 70
1
  9
$QTEXTMODE
 70
0
  9
$MIRRTEXT
 70
1
  9
$LTSCALE
 40
1.0
  9
$ATTMODE
 70
1
  9
$TEXTSIZE
 40
2.5
  9
$TRACEWID
 40
1.0
  9
$TEXTSTYLE
  7
Standard
  9
$CLAYER
  8
0
  9
$CELTYPE
  6
ByLayer
  9
$CECOLOR
 62
256
  9
$CELTSCALE
 40
1.0
  9
$DISPSILH
 70
0
  9
$DIMSCALE
 40
1.0
  9
$DIMASZ
 40
2.5
  9
$DIMEXO
 40
0.625
  9
$DIMDLI
 40
3.75
  9
$DIMRND
 40
0.0
  9
$DIMDLE
 40
0.0
  9
$DIMEXE
 40
1.25
  9
$DIMTP
 40
0.0
  9
$DIMTM
 40
0.0
  9
$DIMTXT
 40
2.5
  9
$DIMCEN
 40
2.5
  9
$DIMTSZ
 40
0.0
  9
$DIMTOL
 70
0
  9
$DIMLIM
 70
0
  9
$DIMTIH
 70
0
  9
$DIMTOH
 70
0
  9
$DIMSE1
 70
0
  9
$DIMSE2
 70
0
  9
$DIMTAD
 70
1
  9
$DIMZIN
 70
8
  9
$DIMBLK
  1

  9
$DIMASO
 70
1
  9
$DIMSHO
 70
1
  9
$DIMPOST
  1

  9
$DIMAPOST
  1

  9
$DIMALT
 70
0
  9
$DIMALTD
 70
3
  9
$DIMALTF
 40
0.03937007874
  9
$DIMLFAC
 40
1.0
  9
$DIMTOFL
 70
1
  9
$DIMTVP
 40
0.0
  9
$DIMTIX
 70
0
  9
$DIMSOXD
 70
0
  9
$DIMSAH
 70
0
  9
$DIMBLK1
  1

  9
$DIMBLK2
  1

  9
$DIMSTYLE
  2
ISO-25
  9
$DIMCLRD
 70
0
  9
$DIMCLRE
 70
0
  9
$DIMCLRT
 70
0
  9
$DIMTFAC
 40
1.0
  9
$DIMGAP
 40
0.625
  9
$DIMJUST
 70
0
  9
$DIMSD1
 70
0
  9
$DIMSD2
 70
0
  9
$DIMTOLJ
 70
0
  9
$DIMTZIN
 70
8
  9
$DIMALTZ
 70
0
  9
$DIMALTTZ
 70
0
  9
$DIMUPT
 70
0
  9
$DIMDEC
 70
2
  9
$DIMTDEC
 70
2
  9
$DIMALTU
 70
2
  9
$DIMALTTD
 70
3
  9
$DIMTXSTY
  7
Standard
  9
$DIMAUNIT
 70
0
  9
$DIMADEC
 70
0
  9
$DIMALTRND
 40
0.0
  9
$DIMAZIN
 70
0
  9
$DIMDSEP
 70
44
  9
$DIMATFIT
 70
3
  9
$DIMFRAC
 70
0
  9
$DIMLDRBLK
  1

  9
$DIMLUNIT
 70
2
  9
$DIMLWD
 70
-2
  9
$DIMLWE
 70
-2
  9
$DIMTMOVE
 70
0
  9
$DIMFXL
 40
1.0
  9
$DIMFXLON
 70
0
  9
$DIMJOGANG
 40
0.785398163397
  9
$DIMTFILL
 70
0
  9
$DIMTFILLCLR
 70
0
  9
$DIMARCSYM
 70
0
  9
$DIMLTYPE
  6

  9
$DIMLTEX1
  6

  9
$DIMLTEX2
  6

  9
$DIMTXTDIRECTION
 70
0
  9
$LUNITS
 70
2
  9
$LUPREC
 70
4
  9
$SKETCHINC
 40
1.0
  9
$FILLETRAD
 40
10.0
  9
$AUNITS
 70
0
  9
$AUPREC
 70
2
  9
$MENU
  1
.
  9
$ELEVATION
 40
0.0
  9
$PELEVATION
 40
0.0
  9
$THICKNESS
 40
0.0
  9
$LIMCHECK
 70
0
  9
$CHAMFERA
 40
0.0
  9
$CHAMFERB
 40
0.0
  9
$CHAMFERC
 40
0.0
  9
$CHAMFERD
 40
0.0
  9
$SKPOLY
 70
0
  9
$TDCREATE
 40
2460911.034675926
  9
$TDUCREATE
 40
2458532.153996898
  9
$TDUPDATE
 40
2460911.034675926
  9
$TDUUPDATE
 40
2458532.1544311
  9
$TDINDWG
 40
0.0
  9
$TDUSRTIMER
 40
0.0
  9
$USRTIMER
 70
1
  9
$ANGBASE
 50
0.0
  9
$ANGDIR
 70
0
  9
$PDMODE
 70
0
  9
$PDSIZE
 40
0.0
  9
$PLINEWID
 40
0.0
  9
$SPLFRAME
 70
0
  9
$SPLINETYPE
 70
6
  9
$SPLINESEGS
 70
8
  9
$HANDSEED
  5
33
  9
$SURFTAB1
 70
6
  9
$SURFTAB2
 70
6
  9
$SURFTYPE
 70
6
  9
$SURFU
 70
6
  9
$SURFV
 70
6
  9
$UCSBASE
  2

  9
$UCSNAME
  2

  9
$UCSORG
 10
0.0
 20
0.0
 30
0.0
  9
$UCSXDIR
 10
1.0
 20
0.0
 30
0.0
  9
$UCSYDIR
 10
0.0
 20
1.0
 30
0.0
  9
$UCSORTHOREF
  2

  9
$UCSORTHOVIEW
 70
0
  9
$UCSORGTOP
 10
0.0
 20
0.0
 30
0.0
  9
$UCSORGBOTTOM
 10
0.0
 20
0.0
 30
0.0
  9
$UCSORGLEFT
 10
0.0
 20
0.0
 30
0.0
  9
$UCSORGRIGHT
 10
0.0
 20
0.0
 30
0.0
  9
$UCSORGFRONT
 10
0.0
 20
0.0
 30
0.0
  9
$UCSORGBACK
 10
0.0
 20
0.0
 30
0.0
  9
$PUCSBASE
  2

  9
$PUCSNAME
  2

  9
$PUCSORG
 10
0.0
 20
0.0
 30
0.0
  9
$PUCSXDIR
 10
1.0
 20
0.0
 30
0.0
  9
$PUCSYDIR
 10
0.0
 20
1.0
 30
0.0
  9
$PUCSORTHOREF
  2

  9
$PUCSORTHOVIEW
 70
0
  9
$PUCSORGTOP
 10
0.0
 20
0.0
 30
0.0
  9
$PUCSORGBOTTOM
 10
0.0
 20
0.0
 30
0.0
  9
$PUCSORGLEFT
 10
0.0
 20
0.0
 30
0.0
  9
$PUCSORGRIGHT
 10
0.0
 20
0.0
 30
0.0
  9
$PUCSORGFRONT
 10
0.0
 20
0.0
 30
0.0
  9
$PUCSORGBACK
 10
0.0
 20
0.0
 30
0.0
  9
$USERI1
 70
0
  9
$USERI2
 70
0
  9
$USERI3
 70
0
  9
$USERI4
 70
0
  9
$USERI5
 70
0
  9
$USERR1
 40
0.0
  9
$USERR2
 40
0.0
  9
$USERR3
 40
0.0
  9
$USERR4
 40
0.0
  9
$USERR5
 40
0.0
  9
$WORLDVIEW
 70
1
  9
$SHADEDGE
 70
3
  9
$SHADEDIF
 70
70
  9
$TILEMODE
 70
1
  9
$MAXACTVP
 70
64
  9
$PINSBASE
 10
0.0
 20
0.0
 30
0.0
  9
$PLIMCHECK
 70
0
  9
$PEXTMIN
 10
1e+20
 20
1e+20
 30
1e+20
  9
$PEXTMAX
 10
-1e+20
 20
-1e+20
 30
-1e+20
  9
$PLIMMIN
 10
0.0
 20
0.0
  9
$PLIMMAX
 10
420.0
 20
297.0
  9
$UNITMODE
 70
0
  9
$VISRETAIN
 70
1
  9
$PLINEGEN
 70
0
  9
$PSLTSCALE
 70
1
  9
$TREEDEPTH
 70
3020
  9
$CMLSTYLE
  2
Standard
  9
$CMLJUST
 70
0
  9
$CMLSCALE
 40
20.0
  9
$PROXYGRAPHICS
 70
1
  9
$MEASUREMENT
 70
1
  9
$CELWEIGHT
370
-1
  9
$ENDCAPS
280
0
  9
$JOINSTYLE
280
0
  9
$LWDISPLAY
290
0
  9
$INSUNITS
 70
6
  9
$HYPERLINKBASE
  1

  9
$STYLESHEET
  1

  9
$XEDIT
290
1
  9
$CEPSNTYPE
380
0
  9
$PSTYLEMODE
290
1
  9
$FINGERPRINTGUID
  2
{2EDF8005-4D15-4629-99E3-CDAB79C4347B}
  9
$VERSIONGUID
  2
{CFAEC604-F44C-4C8E-9631-B327280D970C}
  9
$EXTNAMES
290
1
  9
$PSVPSCALE
 40
0.0
  9
$OLESTARTUP
290
0
  9
$SORTENTS
280
127
  9
$INDEXCTL
280
0
  9
$HIDETEXT
280
1
  9
$XCLIPFRAME
280
1
  9
$HALOGAP
280
0
  9
$OBSCOLOR
 70
257
  9
$OBSLTYPE
280
0
  9
$INTERSECTIONDISPLAY
280
0
  9
$INTERSECTIONCOLOR
 70
257
  9
$DIMASSOC
280
2
  9
$PROJECTNAME
  1

  9
$CAMERADISPLAY
290
0
  9
$LENSLENGTH
 40
50.0
  9
$CAMERAHEIGHT
 40
0.0
  9
$STEPSPERSEC
 40
24.0
  9
$STEPSIZE
 40
100.0
  9
$3DDWFPREC
 40
2.0
  9
$PSOLWIDTH
 40
0.005
  9
$PSOLHEIGHT
 40
0.08
  9
$LOFTANG1
 40
1.570796326795
  9
$LOFTANG2
 40
1.570796326795
  9
$LOFTMAG1
 40
0.0
  9
$LOFTMAG2
 40
0.0
  9
$LOFTPARAM
 70
7
  9
$LOFTNORMALS
280
1
  9
$LATITUDE
 40
37.795
  9
$LONGITUDE
 40
-122.394
  9
$NORTHDIRECTION
 40
0.0
  9
$TIMEZONE
 70
-8000
  9
$LIGHTGLYPHDISPLAY
280
1
  9
$TILEMODELIGHTSYNCH
280
1
  9
$CMATERIAL
347
20
  9
$SOLIDHIST
280
0
  9
$SHOWHIST
280
1
  9
$DWFFRAME
280
2
  9
$DGNFRAME
280
2
  9
$REALWORLDSCALE
290
1
  9
$INTERFERECOLOR
 62
256
  9
$CSHADOW
280
0
  9
$SHADOWPLANELOCATION
 40
0.0
  0
ENDSEC
  0
SECTION
  2
CLASSES
  0
CLASS
  1
ACDBDICTIONARYWDFLT
  2
AcDbDictionaryWithDefault
  3
ObjectDBX Classes
 90
0
 91
0
280
0
281
0
  0
CLASS
  1
SUN
  2
AcDbSun
  3
SCENEOE
 90
1153
 91
0
280
0
281
0
  0
CLASS
  1
VISUALSTYLE
  2
AcDbVisualStyle
  3
ObjectDBX Classes
 90
4095
 91
0
280
0
281
0
  0
CLASS
  1
MATERIAL
  2
AcDbMaterial
  3
ObjectDBX Classes
 90
1153
 91
0
280
0
281
0
  0
CLASS
  1
SCALE
  2
AcDbScale
  3
ObjectDBX Classes
 90
1153
 91
0
280
0
281
0
  0
CLASS
  1
TABLESTYLE
  2
AcDbTableStyle
  3
ObjectDBX Classes
 90
4095
 91
0
280
0
281
0
  0
CLASS
  1
MLEADERSTYLE
  2
AcDbMLeaderStyle
  3
ACDB_MLEADERSTYLE_CLASS
 90
4095
 91
0
280
0
281
0
  0
CLASS
  1
DICTIONARYVAR
  2
AcDbDictionaryVar
  3
ObjectDBX Classes
 90
0
 91
0
280
0
281
0
  0
CLASS
  1
CELLSTYLEMAP
  2
AcDbCellStyleMap
  3
ObjectDBX Classes
 90
1152
 91
0
280
0
281
0
  0
CLASS
  1
MENTALRAYRENDERSETTINGS
  2
AcDbMentalRayRenderSettings
  3
SCENEOE
 90
1024
 91
0
280
0
281
0
  0
CLASS
  1
ACDBDETAILVIEWSTYLE
  2
AcDbDetailViewStyle
  3
ObjectDBX Classes
 90
1025
 91
0
280
0
281
0
  0
CLASS
  1
ACDBSECTIONVIEWSTYLE
  2
AcDbSectionViewStyle
  3
ObjectDBX Classes
 90
1025
 91
0
280
0
281
0
  0
CLASS
  1
RASTERVARIABLES
  2
AcDbRasterVariables
  3
ISM
 90
0
 91
0
280
0
281
0
  0
CLASS
  1
LAYOUT
  2
AcDbLayout
  3
ObjectDBX Classes
 90
0
 91
0
280
0
281
0
  0
CLASS
  1
ACDBPLACEHOLDER
  2
AcDbPlaceHolder
  3
ObjectDBX Classes
 90
0
 91
0
280
0
281
0
  0
ENDSEC
  0
SECTION
  2
TABLES
  0
TABLE
  2
VPORT
  5
8
330
0
100
AcDbSymbolTable
 70
1
  0
VPORT
  5
23
330
8
100
AcDbSymbolTableRecord
100
AcDbViewportTableRecord
  2
*Active
 70
0
 10
0.0
 20
0.0
 11
1.0
 21
1.0
 12
0.0
 22
0.0
 13
0.0
 23
0.0
 14
0.5
 24
0.5
 15
0.5
 25
0.5
 16
0.0
 26
0.0
 36
1.0
 17
0.0
 27
0.0
 37
0.0
 40
1000.0
 41
1.34
 42
50.0
 43
0.0
 44
0.0
 50
0.0
 51
0.0
 71
0
 72
1000
 73
1
 74
3
 75
0
 76
0
 77
0
 78
0
281
0
 65
0
146
0.0
  0
ENDTAB
  0
TABLE
  2
LTYPE
  5
2
330
0
100
AcDbSymbolTable
 70
3
  0
LTYPE
  5
24
330
2
100
AcDbSymbolTableRecord
100
AcDbLinetypeTableRecord
  2
ByBlock
 70
0
  3

 72
65
 73
0
 40
0.0
  0
LTYPE
  5
25
330
2
100
AcDbSymbolTableRecord
100
AcDbLinetypeTableRecord
  2
ByLayer
 70
0
  3

 72
65
 73
0
 40
0.0
  0
LTYPE
  5
26
330
2
100
AcDbSymbolTableRecord
100
AcDbLinetypeTableRecord
  2
Continuous
 70
0
  3

 72
65
 73
0
 40
0.0
  0
ENDTAB
  0
TABLE
  2
LAYER
  5
1
330
0
100
AcDbSymbolTable
 70
2
  0
LAYER
  5
27
330
1
100
AcDbSymbolTableRecord
100
AcDbLayerTableRecord
  2
0
 70
0
 62
7
  6
Continuous
370
-3
390
13
347
21
  0
LAYER
  5
28
330
1
100
AcDbSymbolTableRecord
100
AcDbLayerTableRecord
  2
Defpoints
 70
0
 62
7
  6
Continuous
290
0
370
-3
390
13
347
21
  0
ENDTAB
  0
TABLE
  2
STYLE
  5
5
330
0
100
AcDbSymbolTable
 70
1
  0
STYLE
  5
29
330
5
100
AcDbSymbolTableRecord
100
AcDbTextStyleTableRecord
  2
Standard
 70
0
 40
0.0
 41
1.0
 50
0.0
 71
0
 42
2.5
  3
txt
  4

  0
ENDTAB
  0
TABLE
  2
VIEW
  5
7
330
0
100
AcDbSymbolTable
 70
0
  0
ENDTAB
  0
TABLE
  2
UCS
  5
6
330
0
100
AcDbSymbolTable
 70
0
  0
ENDTAB
  0
TABLE
  2
APPID
  5
3
330
0
100
AcDbSymbolTable
 70
3
  0
APPID
  5
2A
330
3
100
AcDbSymbolTableRecord
100
AcDbRegAppTableRecord
  2
ACAD
 70
0
  0
APPID
  5
30
330
3
100
AcDbSymbolTableRecord
100
AcDbRegAppTableRecord
  2
HATCHBACKGROUNDCOLOR
 70
0
  0
APPID
  5
31
330
3
100
AcDbSymbolTableRecord
100
AcDbRegAppTableRecord
  2
EZDXF
 70
0
  0
ENDTAB
  0
TABLE
  2
DIMSTYLE
  5
4
330
0
100
AcDbSymbolTable
 70
1
100
AcDbDimStyleTable
  0
DIMSTYLE
105
2B
330
4
100
AcDbSymbolTableRecord
100
AcDbDimStyleTableRecord
  2
Standard
 70
0
 40
1.0
 41
2.5
 42
0.625
 43
3.75
 44
1.25
 45
0.0
 46
0.0
 47
0.0
 48
0.0
 49
2.5
140
2.5
141
2.5
142
0.0
143
0.03937007874
144
1.0
145
0.0
146
1.0
147
0.625
148
0.0
 69
0
 70
0
 71
0
 72
0
 73
0
 74
0
 75
0
 76
0
 77
1
 78
8
 79
3
170
0
171
3
172
1
173
0
174
0
175
0
176
0
177
0
178
0
179
2
271
2
272
2
273
2
274
3
275
0
276
0
277
2
278
44
279
0
280
0
281
0
282
0
283
0
284
8
285
0
286
0
288
0
289
3
290
0
371
-2
372
-2
  0
ENDTAB
  0
TABLE
  2
BLOCK_RECORD
  5
9
330
0
100
AcDbSymbolTable
 70
2
  0
BLOCK_RECORD
  5
17
330
9
100
AcDbSymbolTableRecord
100
AcDbBlockTableRecord
  2
*Model_Space
340
1A
 70
0
280
1
281
0
  0
BLOCK_RECORD
  5
1B
330
9
100
AcDbSymbolTableRecord
100
AcDbBlockTableRecord
  2
*Paper_Space
340
1E
 70
0
280
1
281
0
  0
ENDTAB
  0
ENDSEC
  0
SECTION
  2
BLOCKS
  0
BLOCK
  5
18
330
17
100
AcDbEntity
  8
0
100
AcDbBlockBegin
  2
*Model_Space
 70
0
 10
0.0
 20
0.0
 30
0.0
  3
*Model_Space
  1

  0
ENDBLK
  5
19
330
17
100
AcDbEntity
  8
0
100
AcDbBlockEnd
  0
BLOCK
  5
1C
330
1B
100
AcDbEntity
  8
0
100
AcDbBlockBegin
  2
*Paper_Space
 70
0
 10
0.0
 20
0.0
 30
0.0
  3
*Paper_Space
  1

  0
ENDBLK
  5
1D
330
1B
100
AcDbEntity
  8
0
100
AcDbBlockEnd
  0
ENDSEC
  0
SECTION
  2
ENTITIES
  0
LWPOLYLINE
  5
2F
330
17
100
AcDbEntity
  8
0
100
AcDbPolyline
 90
722
 70
1
 10
80.92792381325987
 20
17.659215683193516
 10
80.92543904692495
 20
17.659547648218116
 10
80.91803699245423
 20
17.660300474925084
 10
80.90582195624245
 20
17.660988876470157
 10
80.88862067242758
 20
17.66182800385778
 10
80.86675365485142
 20
17.662508603611403
 10
80.84007370772657
 20
17.663124535377584
 10
80.80848572322256
 20
17.663527318912703
 10
80.77223203105346
 20
17.66377145340104
 10
80.73121752338878
 20
17.663708458598972
 10
80.68526885607797
 20
17.66355384974925
 10
80.63468055117667
 20
17.663119300494873
 10
80.57933137858748
 20
17.662377864775628
 10
80.51919524213957
 20
17.66145095536216
 10
80.45432433417459
 20
17.660095746713175
 10
80.38466641015853
 20
17.658555307195513
 10
80.31036874416732
 20
17.656735412924274
 10
80.23131010610352
 20
17.654609117839257
 10
80.14746439979633
 20
17.652297834711092
 10
80.05900494330014
 20
17.649586169709803
 10
79.96575834027199
 20
17.646689880903676
 10
79.86777675695744
 20
17.64336626416421
 10
79.76525030463263
 20
17.639912765629738
 10
79.65784154575312
 20
17.636126405872346
 10
79.54591393574569
 20
17.63208911578762
 10
79.42922511880015
 20
17.62774651760404
 10
79.30789619453304
 20
17.623126164445694
 10
79.18192713684827
 20
17.618228177725328
 10
79.05129182347879
 20
17.613174091626373
 10
78.91599017613608
 20
17.60796427038713
 10
78.77607436106567
 20
17.602356009879095
 10
78.63149215982969
 20
17.596592257056315
 10
78.4823907421194
 20
17.590579273684995
 10
78.3286228338589
 20
17.584411283650013
 10
78.1702405230051
 20
17.577845947061167
 10
78.0073127951215
 20
17.57115327834551
 10
77.83981347574876
 20
17.564455054511985
 10
77.667820801207
 20
17.557387280074213
 10
77.49116132296096
 20
17.550165955926037
 10
77.3101034668955
 20
17.54272416848109
 10
77.12437870274107
 20
17.535129316976814
 10
76.93422933411553
 20
17.52743602201027
 10
76.7395341048253
 20
17.51961745893401
 10
76.5404141405831
 20
17.511701059459337
 10
76.33677428136615
 20
17.50353858616816
 10
76.12873565288723
 20
17.495157470771773
 10
75.91612480661108
 20
17.486773714164027
 10
75.69921014232635
 20
17.478320524171327
 10
75.47787040383946
 20
17.46977107614623
 10
75.25210553895805
 20
17.461125612914277
 10
75.02191541720128
 20
17.452384741539326
 10
74.78739512030343
 20
17.443697063677778
 10
74.54844943604935
 20
17.43491458473708
 10
74.30517342007715
 20
17.4261860277864
 10
74.05759303807683
 20
17.417390587118966
 10
73.80576045629387
 20
17.408285558606245
 10
73.54974455590697
 20
17.399141442326375
 10
73.28937191447712
 20
17.39017411776041
 10
73.02464240152341
 20
17.381384191972224
 10
72.75575545736727
 20
17.372434736948403
 10
72.48268488145322
 20
17.36344765111068
 10
72.20543062158886
 20
17.35442317728459
 10
71.92391425878094
 20
17.345726160845924
 10
71.63826619559498
 20
17.336749902179776
 10
71.34855536540213
 20
17.327764658538722
 10
71.0547555937431
 20
17.318892206931725
 10
70.75671950215721
 20
17.31022725689476
 10
70.45471546433703
 20
17.301703137667
 10
70.14864829416358
 20
17.293171733243135
 10
69.83851793944451
 20
17.284633286448702
 10
69.5243932813586
 20
17.276358297361835
 10
69.20637860020446
 20
17.267861600551033
 10
68.884300473543
 20
17.259359075497372
 10
68.5583750566289
 20
17.25102699839409
 10
68.2286022711737
 20
17.242865733479505
 10
67.89491305332538
 20
17.234605630564886
 10
67.55728117643233
 20
17.22636870948473
 10
67.21594894411231
 20
17.218209590836082
 10
66.87074288173396
 20
17.210344396925564
 10
66.52174119952124
 20
17.202409253679562
 10
66.16906499709071
 20
17.194431714222137
 10
65.8127141961539
 20
17.186412142791603
 10
65.45263647388826
 20
17.178593971993102
 10
65.08883175200533
 20
17.170977566064952
 10
64.72132604838735
 20
17.163441876474813
 10
64.3503877628231
 20
17.155920111049106
 10
63.97574828675444
 20
17.148480033263574
 10
63.597528745894195
 20
17.14114907482952
 10
63.21592855446756
 20
17.133590429146324
 10
62.83080028182162
 20
17.125899048575477
 10
62.44218676515661
 20
17.118466603140224
 10
62.050209130185344
 20
17.11132052455186
 10
61.65467703076605
 20
17.104164459386975
 10
61.2559111112214
 20
17.096688547105153
 10
60.85380688248345
 20
17.08937892444006
 10
60.44839036243445
 20
17.08211454285935
 10
60.03963535051895
 20
17.07501730078476
 10
59.62771513869516
 20
17.06787192579908
 10
59.21262967477075
 20
17.060678660727838
 10
58.79425762426357
 20
17.0534110451619
 10
58.37281522071687
 20
17.04624499105621
 10
57.94818118184086
 20
17.03915379517608
 10
57.52052882568993
 20
17.03192206369153
 10
57.08985804787939
 20
17.02455028225363
 10
56.65629000021819
 20
17.017065761160932
 10
56.21967725205337
 20
17.009563452774927
 10
55.78008876285224
 20
17.002313492935436
 10
55.337481460548936
 20
16.994925304334167
 10
54.89219291316883
 20
16.987601259335186
 10
54.444084940815635
 20
16.97980230038657
 10
53.99313131683767
 20
16.971650447322805
 10
53.53949616072499
 20
16.963564073401805
 10
53.08315327192212
 20
16.9556650770453
 10
52.62393840045813
 20
16.947535692059226
 10
52.162388606872106
 20
16.93904111996872
 10
51.698166192657844
 20
16.92997959547356
 10
51.23143522511308
 20
16.9207697346572
 10
50.76204829968102
 20
16.911506368468366
 10
50.29027392053509
 20
16.902122219082415
 10
49.81606906780175
 20
16.892226466365486
 10
49.33950270094829
 20
16.882089246157403
 10
48.86052252324839
 20
16.87195386965054
 10
48.37925896336386
 20
16.861213515817223
 10
47.89573803917698
 20
16.849747136125117
 10
47.410071677836164
 20
16.838215929373412
 10
46.92204341093271
 20
16.82644507632212
 10
46.43186955029829
 20
16.814610124687853
 10
45.939706620765556
 20
16.801982840672302
 10
45.445528447875134
 20
16.788685001284406
 10
44.94928278709305
 20
16.774959674891015
 10
44.45089121942598
 20
16.76117170686789
 10
43.95070064194446
 20
16.74688909542737
 10
43.44857279646369
 20
16.731573147255833
 10
42.94479316305205
 20
16.715668574607545
 10
42.438988617987356
 20
16.699729399104694
 10
41.931384802146454
 20
16.683296794312145
 10
41.42208596973185
 20
16.665885716211175
 10
40.91128246688531
 20
16.647792518225206
 10
40.398705554567854
 20
16.62908557089383
 10
39.88457162289979
 20
16.609940057695365
 10
39.368785433569776
 20
16.59020810545002
 10
38.85152040901691
 20
16.56967383467674
 10
38.33289777933866
 20
16.548364191435727
 10
37.8127961839567
 20
16.526252836730627
 10
37.29145816135445
 20
16.503393298443566
 10
36.76864106866381
 20
16.479732534343494
 10
36.24453519983421
 20
16.455567140679367
 10
35.719166677132655
 20
16.430775583267774
 10
35.19266587702855
 20
16.40475128390658
 10
34.66498055498791
 20
16.37773731096261
 10
34.136327179419524
 20
16.349908483675865
 10
33.606437011284456
 20
16.321333172585938
 10
33.07560478140774
 20
16.291822080033672
 10
32.54385655986406
 20
16.261253914661197
 10
32.01121841672806
 20
16.22950738511064
 10
31.4776380552734
 20
16.196825802574363
 10
30.94321071381141
 20
16.163357040232157
 10
30.407936314053536
 20
16.129101462322314
 10
29.872014426802075
 20
16.09372153376761
 10
29.33534981374573
 20
16.057069381388242
 10
28.798089827248905
 20
16.019050417061013
 10
28.260277487185107
 20
15.980055460919775
 10
27.72171314446355
 20
15.940422412280084
 10
27.18269160819784
 20
15.899961609244471
 10
26.643300313272384
 20
15.85767528923865
 10
26.10338260437378
 20
15.814292293124792
 10
25.56315508039159
 20
15.769986833079036
 10
25.022548520896862
 20
15.72448998738929
 10
24.481589048156543
 20
15.677680221872118
 10
23.94044096433395
 20
15.629975059896044
 10
23.399009083310105
 20
15.581226385455746
 10
22.85749294979109
 20
15.531096784886744
 10
22.315771229294775
 20
15.479559797779897
 10
21.77406052071079
 20
15.426789636311353
 10
21.232334675675933
 20
15.372907956077295
 10
20.690672008798895
 20
15.317550397353026
 10
20.14904637171645
 20
15.260838615734722
 10
19.607553028836147
 20
15.2029203629894
 10
19.065992357163324
 20
15.144133417019853
 10
18.52476360268721
 20
15.083802222020488
 10
17.983866765407793
 20
15.0219267779913
 10
17.443275775250434
 20
14.958628376290177
 10
16.902964483851967
 20
14.894028672513292
 10
16.363080400153855
 20
14.828032350060829
 10
15.823476067406965
 20
14.760734482707067
 10
15.284420276842576
 20
14.692066457086858
 10
14.745965246898477
 20
14.62178532624615
 10
14.208084881403868
 20
14.550012502955585
 10
13.670753110284087
 20
14.476869278573036
 10
13.133996029709957
 20
14.402234240327857
 10
12.598108605372072
 20
14.325916997845953
 10
12.062917258254307
 20
14.248134159085014
 10
11.528491208785672
 20
14.169154645757152
 10
10.994839577241965
 20
14.088345055012786
 10
10.462152918534322
 20
14.006000768973157
 10
9.930353022438792
 20
13.922485661711892
 10
9.399396764697194
 20
13.837409398746228
 10
8.869579163192467
 20
13.750581346876533
 10
8.340848051679128
 20
13.662244210231316
 10
7.813134235824353
 20
13.572128945685703
 10
7.286628348827788
 20
13.480530571122621
 10
6.761261222452777
 20
13.387179922004421
 10
6.237249559973603
 20
13.292250724856165
 10
5.714272351721204
 20
13.196054539997059
 10
5.1926246155785085
 20
13.098400734227454
 10
4.672410736228809
 20
12.99880365646478
 10
4.153604695789793
 20
12.897384355241368
 10
3.6362495924234755
 20
12.794533286452744
 10
3.120371626685353
 20
12.690128551677178
 10
2.6059969208424185
 20
12.584048616731264
 10
2.0932469137614915
 20
12.476319456373048
 10
1.5819480264264492
 20
12.367157678560224
 10
1.072169583650964
 20
12.256831719353823
 10
0.5641373828889912
 20
12.14488202384209
 10
0.057903668674512535
 20
12.031065523658203
 10
-0.44658367304562
 20
11.915624680105127
 10
-0.9492269248238497
 20
11.798695832149441
 10
-1.4501432718511618
 20
11.680233214751473
 10
-1.9492373192392145
 20
11.560383972614375
 10
-2.446413750388201
 20
11.439295614679617
 10
-2.941689593385451
 20
11.316456393693802
 10
-3.434943435460333
 20
11.191892405827751
 10
-3.926184344696328
 20
11.066236811105508
 10
-4.415481541522418
 20
10.939220687814963
 10
-4.902566104226498
 20
10.810774815527115
 10
-5.387680858349857
 20
10.68084700190032
 10
-5.870582978351198
 20
10.549489439276229
 10
-6.351203243801545
 20
10.416971049366946
 10
-6.82981057641299
 20
10.283361052601471
 10
-7.306153082560785
 20
10.14807848129741
 10
-7.780144513728571
 20
10.011904004420268
 10
-8.251958475028639
 20
9.875054351340514
 10
-8.721559802206707
 20
9.73677494926346
 10
-9.188584256950833
 20
9.59714408670158
 10
-9.653231540544134
 20
9.456499905795972
 10
-10.115527749157435
 20
9.314963819317288
 10
-10.575420690449075
 20
9.17229300172424
 10
-11.03269363504861
 20
9.028661058129117
 10
-11.487589408497314
 20
8.884015796190276
 10
-11.939943473766382
 20
8.738773646561285
 10
-12.389703638514158
 20
8.592691783700868
 10
-12.836843806569817
 20
8.445648794838375
 10
-13.28139007410419
 20
8.297766092744451
 10
-13.723273220688279
 20
8.149312599131207
 10
-14.162614659092716
 20
8.00026221782782
 10
-14.599119371434583
 20
7.850424315634654
 10
-15.032787357713875
 20
7.6997988925517
 10
-15.463713934530404
 20
7.548238439637497
 10
-15.891803785284358
 20
7.395890465833509
 10
-16.31713519848821
 20
7.243119209451669
 10
-16.739612857542127
 20
7.090072179433446
 10
-17.159132377762827
 20
6.936263724696263
 10
-17.57581517192095
 20
6.781667749069295
 10
-17.989270905533747
 20
6.626241128294371
 10
-18.39982069265497
 20
6.470295908341774
 10
-18.807490629455437
 20
6.3139535019821516
 10
-19.212037890393866
 20
6.1572661015571475
 10
-19.613436379299436
 20
6.000112294296115
 10
-20.011729220430322
 20
5.842101745716306
 10
-20.406899385699166
 20
5.683746203071116
 10
-20.79902516361845
 20
5.525409904672473
 10
-21.187854660563403
 20
5.366511882837985
 10
-21.573509289304663
 20
5.207026041396829
 10
-21.955798416642608
 20
5.0472473982319395
 10
-22.33484345534787
 20
4.887149857172492
 10
-22.710670501591277
 20
4.726854830989131
 10
-23.083079854089707
 20
4.566024177540747
 10
-23.45212370518482
 20
4.404900722368632
 10
-23.8178020548766
 20
4.243484465472777
 10
-24.180219287848356
 20
4.08226105793577
 10
-24.53910648238797
 20
3.921161279328605
 10
-24.894628175524257
 20
3.759768698997701
 10
-25.246610762144936
 20
3.597866587572606
 10
-25.595037214162648
 20
3.4359666923067094
 10
-25.94008113668968
 20
3.274285742570476
 10
-26.281516732272102
 20
3.1123641834521543
 10
-26.619274780480925
 20
2.950470936663861
 10
-26.953624203028237
 20
2.788675222634586
 10
-27.284322174372775
 20
2.62702923370598
 10
-27.611290406002055
 20
2.465168731566109
 10
-27.934607186428554
 20
2.303457954526906
 10
-28.254298611823085
 20
2.1420183153590138
 10
-28.57033858601483
 20
1.9807284012917938
 10
-28.882605696233156
 20
1.8196143084960639
 10
-29.191073846307223
 20
1.6585546242011797
 10
-29.495890545178508
 20
1.4976446650069661
 10
-29.796812967305726
 20
1.3369366232550648
 10
-30.093893305030512
 20
1.176673324486768
 10
-30.387322191552517
 20
1.0165597508191389
 10
-30.676735388559806
 20
0.8566741907646482
 10
-30.962228212652203
 20
0.6968691353818298
 10
-31.243905048513
 20
0.537630235753257
 10
-31.52176589614219
 20
0.37895749187893074
 10
-31.795637150427492
 20
0.2206341743883874
 10
-32.065492715198076
 20
0.06253887051098284
 10
-32.331427907053765
 20
-0.09547592869475044
 10
-32.59333038130739
 20
-0.2527509670339465
 10
-32.85129545455877
 20
-0.40943375344807287
 10
-33.10527093446627
 20
-0.5657671134784162
 10
-33.35513540825922
 20
-0.7217249509541533
 10
-33.60094106827928
 20
-0.8770644403339974
 10
-33.84263572218481
 20
-1.0320284071592347
 10
-34.080245466146636
 20
-1.1864954386592221
 10
-34.31379639633556
 20
-1.3403441220633165
 10
-34.543114907639314
 20
-1.49379118674198
 10
-34.76827928857036
 20
-1.6464723943832835
 10
-34.98930656721604
 20
-1.7988994922406227
 10
-35.20617971548903
 20
-1.950560733060604
 10
-35.41887263721846
 20
-2.1015775296138663
 10
-35.62735923623356
 20
-2.2520712946710555
 10
-35.83151809976365
 20
-2.4020159320613454
 10
-36.031496736750206
 20
-2.551316125184921
 10
-36.227252022935055
 20
-2.699581539559024
 10
-36.41873176597656
 20
-2.8470550007249416
 10
-36.605935965874714
 20
-2.9937365086826753
 10
-36.78901213157098
 20
-3.1395307468324036
 10
-36.967691341353245
 20
-3.2845069356031247
 10
-37.14214720033381
 20
-3.428448345624374
 10
-37.31231048808369
 20
-3.5710860551840398
 10
-37.478302617373494
 20
-3.7124461604529477
 10
-37.63994998309096
 20
-3.852745390801558
 10
-37.79740009417753
 20
-3.9918884296300554
 10
-37.95041012509195
 20
-4.129823084596788
 10
-38.099275093717125
 20
-4.266358722502119
 10
-38.243778270682604
 20
-4.401321738233755
 10
-38.38398887641738
 20
-4.534981053503807
 10
-38.51990691092147
 20
-4.667336668312279
 10
-38.65153237419485
 20
-4.798388582659167
 10
-38.778796045808534
 20
-4.927867874832361
 10
-38.90169792576251
 20
-5.055774544831862
 10
-39.02028113831498
 20
-5.182498927140422
 10
-39.13450255920774
 20
-5.307650687275289
 10
-39.244257803757506
 20
-5.431715476319037
 10
-39.34965125664758
 20
-5.554207643189091
 10
-39.45057853319467
 20
-5.675612838968026
 10
-39.54709182574042
 20
-5.795688238114554
 10
-39.6391911342848
 20
-5.914433840628677
 10
-39.72672894988638
 20
-6.031944963110212
 10
-39.81000029042809
 20
-6.148030972359522
 10
-39.88856262908552
 20
-6.262977818176065
 10
-39.96283239651224
 20
-6.376620963531025
 10
-40.03254067099617
 20
-6.489029628853397
 10
-40.097765741049734
 20
-6.599839575831252
 10
-40.15857682710196
 20
-6.709319726176702
 10
-40.21487861255302
 20
-6.817322570948277
 10
-40.266775482086224
 20
-6.923362459063405
 10
-40.31431055995972
 20
-7.027829725004838
 10
-40.357414625744525
 20
-7.1304554470604655
 10
-40.39613987178228
 20
-7.230996799689001
 10
-40.430590682756296
 20
-7.328968131807872
 10
-40.46076705866655
 20
-7.424369443417074
 10
-40.486842604625345
 20
-7.516984005146145
 10
-40.50870497594551
 20
-7.606152560800223
 10
-40.52657997008099
 20
-7.691415555467551
 10
-40.540849961510645
 20
-7.771584957612521
 10
-40.55145479788899
 20
-7.8457586854989785
 10
-40.558933430719804
 20
-7.912020230967447
 10
-40.56382481150693
 20
-7.968453085858453
 10
-40.566512422808856
 20
-8.0120911513349
 10
-40.567770081666815
 20
-8.039925204301523
 10
-40.40329629657502
 20
-8.816370048730796
 10
-40.39965854922078
 20
-8.822066272787973
 10
-40.38877140332889
 20
-8.83903353218886
 10
-40.370739243582655
 20
-8.866786175850883
 10
-40.34499702230742
 20
-8.907362124704163
 10
-40.31123954545716
 20
-8.963363239273859
 10
-40.27070240114409
 20
-9.028449959315676
 10
-40.22407315789309
 20
-9.098832392768845
 10
-40.171933891466146
 20
-9.17298436595664
 10
-40.114711208679914
 20
-9.24833011452472
 10
-40.05251856230117
 20
-9.323750827366473
 10
-39.985729258725314
 20
-9.398691632970325
 10
-39.914326269865
 20
-9.472640784082873
 10
-39.83841398040352
 20
-9.545112629621553
 10
-39.75804458268253
 20
-9.615864344045068
 10
-39.67321807670201
 20
-9.684895927353423
 10
-39.58408197140344
 20
-9.752112062946797
 10
-39.49056704635784
 20
-9.81724382911308
 10
-39.39264720539436
 20
-9.880412638622913
 10
-39.290469957454484
 20
-9.94152317487648
 10
-39.18386169742591
 20
-10.000792167244239
 10
-39.072848521479465
 20
-10.058098202955552
 10
-38.957725447498085
 20
-10.113250648810777
 10
-38.838049948657364
 20
-10.16653545460937
 10
-38.714212359440076
 20
-10.217909496093164
 10
-38.58594375813408
 20
-10.267441993691152
 10
-38.45339165368087
 20
-10.315037630803518
 10
-38.31658214225125
 20
-10.360574994659615
 10
-38.175436935332755
 20
-10.404418323571372
 10
-38.03000822526703
 20
-10.446324791997505
 10
-37.88019162737079
 20
-10.48678005102059
 10
-37.726065430156495
 20
-10.525419862328691
 10
-37.56769885405316
 20
-10.562513147633924
 10
-37.404970486290125
 20
-10.598033810765461
 10
-37.237828134525735
 20
-10.632224677264592
 10
-37.06641930770147
 20
-10.664990430531496
 10
-36.89071790964651
 20
-10.69645248333682
 10
-36.71072394036085
 20
-10.72661083568056
 10
-36.526237698561374
 20
-10.755803629703825
 10
-36.33752810596019
 20
-10.783961644977616
 10
-36.14437843318684
 20
-10.810911276389644
 10
-35.947031505782604
 20
-10.836704716281561
 10
-35.7453137186352
 20
-10.861558694023822
 10
-35.539346484515264
 20
-10.885499305787254
 10
-35.32903448682298
 20
-10.908379042630393
 10
-35.11455133067065
 20
-10.929981175182773
 10
-34.89574950711679
 20
-10.950401020044213
 10
-34.672845745531866
 20
-10.969812182327004
 10
-34.44571863314524
 20
-10.988188565860323
 10
-34.21436816995691
 20
-11.005530170644171
 10
-33.978872644479345
 20
-11.021472758366617
 10
-33.7393534694832
 20
-11.036042425198483
 10
-33.495689232197805
 20
-11.049213074968947
 10
-33.24794915305219
 20
-11.061253629390118
 10
-32.99613323204632
 20
-11.072164088461998
 10
-32.740345853863516
 20
-11.081458801102011
 10
-32.48065623893277
 20
-11.089406689022267
 10
-32.21696907065425
 20
-11.095860243281303
 10
-31.949258252857145
 20
-11.100940876649759
 10
-31.677645198312092
 20
-11.104674685298457
 10
-31.402156003189923
 20
-11.106940256456758
 10
-31.122764571319802
 20
-11.107859002895305
 10
-30.839470902701738
 20
-11.107430924614093
 10
-30.552301093506546
 20
-11.105534608842484
 10
-30.26135046033405
 20
-11.102317564521943
 10
-29.966619003184263
 20
-11.097779791652467
 10
-29.668011405457342
 20
-11.091773781292597
 10
-29.365718300352942
 20
-11.08459455132526
 10
-29.059644371271247
 20
-11.07609459280899
 10
-28.74976352204142
 20
-11.066395318514434
 10
-28.43622326160493
 20
-11.055401411841768
 10
-28.119101878474254
 20
-11.042748634479064
 10
-27.798321084136923
 20
-11.028801224738253
 10
-27.473707273480642
 20
-11.013775911989796
 10
-27.145650780988166
 20
-10.997629571975523
 10
-26.81396097345985
 20
-10.980067186812496
 10
-26.478663947066526
 20
-10.960967343730074
 10
-26.139950335007835
 20
-10.940625060611191
 10
-25.797672628342298
 20
-10.919135654055669
 10
-25.451883019411575
 20
-10.89625629852222
 10
-25.102702920986307
 20
-10.872013090181662
 10
-24.750158429237302
 20
-10.846284616263356
 10
-24.39417125565211
 20
-10.819435115079237
 10
-24.03479359257237
 20
-10.79122176108801
 10
-23.67197324765644
 20
-10.761887379830968
 10
-23.306031334958064
 20
-10.731119925337822
 10
-22.936698932765143
 20
-10.698988618037575
 10
-22.564097453848323
 20
-10.665519554101046
 10
-22.18832221480741
 20
-10.630860242469703
 10
-21.80930399521342
 20
-10.594741761431434
 10
-21.42711201549535
 20
-10.557433032698354
 10
-21.041893784594656
 20
-10.51883873967064
 10
-20.653458669311714
 20
-10.478663864465359
 10
-20.2620494951878
 20
-10.436960599424154
 10
-19.867587973710442
 20
-10.394093182858962
 10
-19.470074104879643
 20
-10.350061614769777
 10
-19.069507888695405
 20
-10.304865895156606
 10
-18.666089026440844
 20
-10.258167881878336
 10
-18.2598697104576
 20
-10.209724749393681
 10
-17.850624143291743
 20
-10.159996052614392
 10
-17.438595150484556
 20
-10.109033983882119
 10
-17.023713511607042
 20
-10.056569621484748
 10
-16.606152831771496
 20
-10.002386236051816
 10
-16.185834822465434
 20
-9.946848065895253
 10
-15.76282870411787
 20
-9.89022403272717
 10
-15.337065256299805
 20
-9.83224521483546
 10
-14.9086227675237
 20
-9.77254737390819
 10
-14.4776918709892
 20
-9.711425527828291
 10
-14.044246470525477
 20
-9.64900108936641
 10
-13.608043740591254
 20
-9.5852218661809
 10
-13.16947401566928
 20
-9.520044734013586
 10
-12.728468075330559
 20
-9.453200771152359
 10
-12.285025919575087
 20
-9.38468997759722
 10
-11.839242865002689
 20
-9.314659862289632
 10
-11.39098843075925
 20
-9.243717489082819
 10
-10.94046231812787
 20
-9.171524715835671
 10
-10.487647499021216
 20
-9.097569795294786
 10
-10.032517877268463
 20
-9.021974140230816
 10
-9.575316278410883
 20
-8.9447899429854
 10
-9.115816904994551
 20
-8.866476758470291
 10
-8.65419336213176
 20
-8.78681785731503
 10
-8.190445649822498
 20
-8.705813239519614
 10
-7.724625960408421
 20
-8.623220079542753
 10
-7.256708197718709
 20
-8.539159790155095
 10
-6.786882994952993
 20
-8.453927389239572
 10
-6.314959718911643
 20
-8.367227858913253
 10
-5.841233387477578
 20
-8.27887056597649
 10
-5.365677904479987
 20
-8.188976923199935
 10
-4.888267173748044
 20
-8.097668343354227
 10
-4.408905878681925
 20
-8.0047973174979
 10
-3.928010449935223
 20
-7.91019930860214
 10
-3.4454855709080974
 20
-7.813726807725477
 10
-2.961053251804969
 20
-7.716082195320949
 10
-2.474982414337956
 20
-7.6171962509595605
 10
-1.9875510483026333
 20
-7.516366594188272
 10
-1.4984380396452601
 20
-7.413905270977371
 10
-1.007738704965637
 20
-7.309959790268319
 10
-0.5157480621467082
 20
-7.204339518861481
 10
-0.022249381818008094
 20
-7.096870851644565
 10
0.4725145104791806
 20
-6.987605980959215
 10
0.968769412198784
 20
-6.877004461717186
 10
1.4663417182285163
 20
-6.764849564548014
 10
1.9649795349436283
 20
-6.650560321769301
 10
2.4648825636272145
 20
-6.5344748755221564
 10
2.9660337761919395
 20
-6.4171049730599785
 10
3.4682335496431915
 20
-6.298112836479975
 10
3.9715814281604804
 20
-6.177370625709515
 10
4.476010592162502
 20
-6.0551584324356185
 10
4.98141673525449
 20
-5.930990969814016
 10
5.487799909628792
 20
-5.804868480670248
 10
5.995143087198042
 20
-5.677302712257719
 10
6.50335105574711
 20
-5.548441659168974
 10
7.012519157971989
 20
-5.418137933875318
 10
7.522447718685735
 20
-5.286053515648414
 10
8.033188956326162
 20
-5.15243135144232
 10
8.544742975277964
 20
-5.0172719269081165
 10
9.056988336674317
 20
-4.88060121680386
 10
9.569846830291262
 20
-4.7420553470559295
 10
10.083370648470446
 20
-4.601877143205613
 10
10.597421350353885
 20
-4.460604448677133
 10
11.112215769696716
 20
-4.318064144009279
 10
11.627432766349013
 20
-4.173944061819
 10
12.14321990144459
 20
-4.028339761531654
 10
12.659334349442156
 20
-3.8813034354888893
 10
13.175923645379342
 20
-3.7329305217032984
 10
13.692961719181508
 20
-3.5830997288170066
 10
14.21023184147818
 20
-3.4319846619423053
 10
14.72790761738166
 20
-3.2798020504496552
 10
15.245963029009634
 20
-3.1264308458067287
 10
15.76412907636146
 20
-2.971801463346218
 10
16.282553320570972
 20
-2.8160094624934797
 10
16.801166541209156
 20
-2.6593237649606296
 10
17.31998579245954
 20
-2.5012327449070377
 10
17.838820388930145
 20
-2.3420311773900977
 10
18.35772252296261
 20
-2.181961887951098
 10
18.876666124482295
 20
-2.0209035852321606
 10
19.395599001147538
 20
-1.8586134436920063
 10
19.914573371396173
 20
-1.695334410284686
 10
20.433398471547687
 20
-1.5313608958292857
 10
20.952143574223427
 20
-1.3664242214392333
 10
21.47076555516523
 20
-1.200914721597284
 10
21.989186073668275
 20
-1.0344679151659641
 10
22.507379059657897
 20
-0.8669625107874046
 10
23.025396705475764
 20
-0.6986413340028906
 10
23.543074317516005
 20
-0.5299200869893782
 10
24.06053338683783
 20
-0.3607730378143479
 10
24.577574159965717
 20
-0.19086180151116325
 10
25.094222680878207
 20
-0.02030754802491487
 10
25.610478975671423
 20
0.15088960123161782
 10
26.126369088323884
 20
0.3226084763133382
 10
26.6416239666426
 20
0.49491890471309125
 10
27.156391197857566
 20
0.6677252055927485
 10
27.670575308791925
 20
0.840880598487464
 10
28.184350035038843
 20
1.0141677469629244
 10
28.697367931508165
 20
1.1880212024749848
 10
29.209655120466923
 20
1.3623194308402435
 10
29.721463495539844
 20
1.5364814643762943
 10
30.23239352367989
 20
1.7111841944292132
 10
30.742419030427666
 20
1.8865493980079475
 10
31.25181808386733
 20
2.0618743304211584
 10
31.760399842029837
 20
2.2368649450880658
 10
32.26812919285324
 20
2.4122755719778186
 10
32.774910715353016
 20
2.587959187800027
 10
33.280622840181536
 20
2.7638904248605
 10
33.7854392507396
 20
2.9398521895504595
 10
34.28926449994648
 20
3.1156975799922857
 10
34.792124605684556
 20
3.291305547653652
 10
35.29384588455298
 20
3.466893186143332
 10
35.79437603982543
 20
3.6427038066536954
 10
36.29379333391823
 20
3.8183732922855875
 10
36.79209774073517
 20
3.9939017644517696
 10
37.28907224384794
 20
4.169116953580434
 10
37.784959851471015
 20
4.344070202123832
 10
38.27943918858892
 20
4.5190747701799525
 10
38.77253629918013
 20
4.6940094878036955
 10
39.264381559714096
 20
4.868267776792923
 10
39.754948900116176
 20
5.041970928505511
 10
40.24394296325318
 20
5.2153111545071145
 10
40.73163285351045
 20
5.388218384479344
 10
41.21774936211796
 20
5.5607631743916714
 10
41.70241395403873
 20
5.732971377589382
 10
42.18555722617055
 20
5.90457492224976
 10
42.66705758306957
 20
6.0755485620913685
 10
43.147088708136636
 20
6.245675203505445
 10
43.625329148067706
 20
6.415268470828276
 10
44.102021911077316
 20
6.584379706512127
 10
44.57689778839547
 20
6.753079466526469
 10
45.05011322656621
 20
6.920639881311287
 10
45.521546656241924
 20
7.087035583172387
 10
45.99128450861212
 20
7.253046391185882
 10
46.45893597946299
 20
7.418717615039817
 10
46.92495284637558
 20
7.583129295021295
 10
47.389065874483755
 20
7.74635210851256
 10
47.85117054862335
 20
7.90887231366004
 10
48.31126681660202
 20
8.070690153289272
 10
48.76938069630211
 20
8.231684578867936
 10
49.225642616385336
 20
8.39124876936834
 10
49.67975714143009
 20
8.549575300594466
 10
50.131889069426855
 20
8.70707938907218
 10
50.58179515729562
 20
8.863710785064166
 10
51.029527519089555
 20
9.01922702726745
 10
51.47513829495794
 20
9.173385532966286
 10
51.91857518817443
 20
9.326429613353044
 10
52.359716525006654
 20
9.478334386384597
 10
52.79873601495166
 20
9.628882637039416
 10
53.23539041492937
 20
9.778024115580173
 10
53.66972295358266
 20
9.926148670838545
 10
54.10149033563914
 20
10.073206295902752
 10
54.531109435387336
 20
10.219030389726878
 10
54.95814601120118
 20
10.363277384469463
 10
55.38284317567984
 20
10.505998136931673
 10
55.80517472826779
 20
10.647314545535236
 10
56.224845233543356
 20
10.787419186084124
 10
56.64188065719654
 20
10.926191252871543
 10
57.05655018190115
 20
11.063560311340794
 10
57.46851509140031
 20
11.199329331289716
 10
57.87794904299868
 20
11.333281340522301
 10
58.28465207445141
 20
11.465755695307369
 10
58.68871958064685
 20
11.596899540348067
 10
59.09005598402343
 20
11.726566580830637
 10
59.488661180196516
 20
11.854757302406165
 10
59.884491757850036
 20
11.981082706132371
 10
60.277590971723036
 20
12.10593251942816
 10
60.66774159661777
 20
12.229135444023873
 10
61.055012931251774
 20
12.350960037393321
 10
61.43948321194517
 20
12.471042304050108
 10
61.8210568089441
 20
12.589236192006018
 10
62.19965532935138
 20
12.705906425224057
 10
62.57527869487853
 20
12.821053367942548
 10
62.94792680114084
 20
12.934677505812562
 10
63.31740854520762
 20
13.046486006381048
 10
63.68401923201968
 20
13.15628690090788
 10
64.04750668089434
 20
13.26466249261593
 10
64.40777528817395
 20
13.371466608104214
 10
64.76494654491765
 20
13.476724979305237
 10
65.11895094363857
 20
13.580170020047369
 10
65.46964068833734
 20
13.681898382470905
 10
65.8172328215385
 20
13.78208221473489
 10
66.16156228428979
 20
13.880307514441157
 10
66.50257680596108
 20
13.976817471369307
 10
66.84030240443465
 20
14.071491036987009
 10
67.17466066071721
 20
14.164693056670043
 10
67.50570368886187
 20
14.256181069115435
 10
67.83330976294397
 20
14.345930435105613
 10
68.15750490084578
 20
14.433820106108245
 10
68.47838454964796
 20
14.519996984000935
 10
68.79567926571505
 20
14.604532717468103
 10
69.10938891856613
 20
14.687427913573602
 10
69.41966117371975
 20
14.768586527240986
 10
69.72652215344286
 20
14.847887024286836
 10
70.02965076977789
 20
14.925641329268672
 10
70.32916619122479
 20
15.001885979855585
 10
70.62514923762458
 20
15.0762449606969
 10
70.91745114741963
 20
15.148819416205423
 10
71.20601967607594
 20
15.219852414747987
 10
71.49102855918665
 20
15.289126619890268
 10
71.7722605193617
 20
15.356470976188165
 10
72.04978490751094
 20
15.422153798289933
 10
72.32357554917508
 20
15.48629686320453
 10
72.59351074452553
 20
15.548875410301601
 10
72.85964260761546
 20
15.609646978278183
 10
73.12194491179318
 20
15.668733586968767
 10
73.38036541252472
 20
15.72637830474018
 10
73.63493010159623
 20
15.78246020447286
 10
73.88556949761696
 20
15.836711578582412
 10
74.1322834701061
 20
15.889133034132676
 10
74.37508922982414
 20
15.940235468487662
 10
74.61389112092108
 20
15.989872951071918
 10
74.84868911730076
 20
16.038045603298222
 10
75.07950918465316
 20
16.08463261945978
 10
75.30622964924586
 20
16.12960911751347
 10
75.52897202823422
 20
16.17300070797904
 10
75.74756248164047
 20
16.21502521294189
 10
75.96205307132533
 20
16.25544041392458
 10
76.17239155275482
 20
16.29448937929394
 10
76.37875168761828
 20
16.331954651202878
 10
76.58083793610933
 20
16.368029291106456
 10
76.77874577140487
 20
16.40286007946952
 10
76.97237958984715
 20
16.436300842891068
 10
77.16188705695467
 20
16.46825553629466
 10
77.3470940717879
 20
16.498943195893407
 10
77.52817426555531
 20
16.528146970904068
 10
77.70480764633848
 20
16.556173686547794
 10
77.87726146569457
 20
16.582961892812907
 10
78.04529315904404
 20
16.608458183230056
 10
78.20902429573452
 20
16.63268792549344
 10
78.3684548235737
 20
16.6556513624286
 10
78.52355856810225
 20
16.677470271044488
 10
78.67423997785475
 20
16.697998235114575
 10
78.82044675610493
 20
16.717478565831232
 10
78.96232664665976
 20
16.735814853879706
 10
79.0997318013276
 20
16.753103994225825
 10
79.23268829018305
 20
16.76922469551173
 10
79.36116999095914
 20
16.784298491920826
 10
79.48520292153817
 20
16.798204334920783
 10
79.60476095965316
 20
16.811063758695013
 10
79.71979188686629
 20
16.82311971019758
 10
79.8302261695945
 20
16.83410472466962
 10
79.93628100693935
 20
16.844190221793543
 10
80.03756528153293
 20
16.85342296821066
 10
80.13447003245463
 20
16.861756561517964
 10
80.22675191223975
 20
16.869141237629243
 10
80.31435870245048
 20
16.87581994349855
 10
80.3974381207976
 20
16.881696391223887
 10
80.47586846745264
 20
16.886745820174927
 10
80.54959755007394
 20
16.89121105589295
 10
80.61879915644697
 20
16.894874519118083
 10
80.68329944659394
 20
16.89795403193575
 10
80.74312446449328
 20
16.900328424400833
 10
80.79822201780338
 20
16.902240522054623
 10
80.84861820269508
 20
16.90356891212648
 10
80.89440851844135
 20
16.904460253668464
 10
80.93534964367366
 20
16.904864661181584
 10
80.97153715595356
 20
16.904928429479597
 10
81.00309267682105
 20
16.904676683431163
 10
81.02977288490762
 20
16.904059537537275
 10
81.0516472094116
 20
16.903344942207873
 10
81.06886347242853
 20
16.902436123889895
 10
81.08112605586354
 20
16.901526508276714
 10
81.08853061556667
 20
16.900762025943763
 10
81.09102488090775
 20
16.90038586667065
 10
80.92792381325987
 20
17.659215683193516
  0
ENDSEC
  0
SECTION
  2
OBJECTS
  0
DICTIONARY
  5
A
330
0
100
AcDbDictionary
280
0
281
1
  3
ACAD_COLOR
350
B
  3
ACAD_GROUP
350
C
  3
ACAD_LAYOUT
350
D
  3
ACAD_MATERIAL
350
E
  3
ACAD_MLEADERSTYLE
350
F
  3
ACAD_MLINESTYLE
350
10
  3
ACAD_PLOTSETTINGS
350
11
  3
ACAD_PLOTSTYLENAME
350
12
  3
ACAD_SCALELIST
350
14
  3
ACAD_TABLESTYLE
350
15
  3
ACAD_VISUALSTYLE
350
16
  3
EZDXF_META
350
2D
  0
DICTIONARY
  5
B
330
A
100
AcDbDictionary
280
0
281
1
  0
DICTIONARY
  5
C
330
A
100
AcDbDictionary
280
0
281
1
  0
DICTIONARY
  5
D
330
A
100
AcDbDictionary
280
0
281
1
  3
Model
350
1A
  3
Layout1
350
1E
  0
DICTIONARY
  5
E
330
A
100
AcDbDictionary
280
0
281
1
  3
ByBlock
350
1F
  3
ByLayer
350
20
  3
Global
350
21
  0
DICTIONARY
  5
F
330
A
100
AcDbDictionary
280
0
281
1
  3
Standard
350
2C
  0
DICTIONARY
  5
10
330
A
100
AcDbDictionary
280
0
281
1
  3
Standard
350
22
  0
DICTIONARY
  5
11
330
A
100
AcDbDictionary
280
0
281
1
  0
ACDBDICTIONARYWDFLT
  5
12
330
A
100
AcDbDictionary
280
0
281
1
  3
Normal
350
13
100
AcDbDictionaryWithDefault
340
13
  0
ACDBPLACEHOLDER
  5
13
330
12
  0
DICTIONARY
  5
14
330
A
100
AcDbDictionary
280
0
281
1
  0
DICTIONARY
  5
15
330
A
100
AcDbDictionary
280
0
281
1
  0
DICTIONARY
  5
16
330
A
100
AcDbDictionary
280
0
281
1
  0
LAYOUT
  5
1A
330
D
100
AcDbPlotSettings
  1

  4
A3
  6

 40
7.5
 41
20.0
 42
7.5
 43
20.0
 44
420.0
 45
297.0
 46
0.0
 47
0.0
 48
0.0
 49
0.0
140
0.0
141
0.0
142
1.0
143
1.0
 70
1024
 72
1
 73
0
 74
5
  7

 75
16
 76
0
 77
2
 78
300
147
1.0
148
0.0
149
0.0
100
AcDbLayout
  1
Model
 70
1
 71
0
 10
0.0
 20
0.0
 11
420.0
 21
297.0
 12
0.0
 22
0.0
 32
0.0
 14
1e+20
 24
1e+20
 34
1e+20
 15
-1e+20
 25
-1e+20
 35
-1e+20
146
0.0
 13
0.0
 23
0.0
 33
0.0
 16
1.0
 26
0.0
 36
0.0
 17
0.0
 27
1.0
 37
0.0
 76
1
330
17
  0
LAYOUT
  5
1E
330
D
100
AcDbPlotSettings
  1

  4
A3
  6

 40
7.5
 41
20.0
 42
7.5
 43
20.0
 44
420.0
 45
297.0
 46
0.0
 47
0.0
 48
0.0
 49
0.0
140
0.0
141
0.0
142
1.0
143
1.0
 70
0
 72
1
 73
0
 74
5
  7

 75
16
 76
0
 77
2
 78
300
147
1.0
148
0.0
149
0.0
100
AcDbLayout
  1
Layout1
 70
1
 71
1
 10
0.0
 20
0.0
 11
420.0
 21
297.0
 12
0.0
 22
0.0
 32
0.0
 14
1e+20
 24
1e+20
 34
1e+20
 15
-1e+20
 25
-1e+20
 35
-1e+20
146
0.0
 13
0.0
 23
0.0
 33
0.0
 16
1.0
 26
0.0
 36
0.0
 17
0.0
 27
1.0
 37
0.0
 76
1
330
1B
  0
MATERIAL
  5
1F
102
{ACAD_REACTORS
330
E
102
}
330
E
100
AcDbMaterial
  1
ByBlock
  2

 70
0
 40
1.0
 71
1
 41
1.0
 91
-1023410177
 42
1.0
 72
1
  3

 73
1
 74
1
 75
1
 44
0.5
 73
0
 45
1.0
 46
1.0
 77
1
  4

 78
1
 79
1
170
1
 48
1.0
171
1
  6

172
1
173
1
174
1
140
1.0
141
1.0
175
1
  7

176
1
177
1
178
1
143
1.0
179
1
  8

270
1
271
1
272
1
145
1.0
146
1.0
273
1
  9

274
1
275
1
276
1
 42
1.0
 72
1
  3

 73
1
 74
1
 75
1
 94
63
  0
MATERIAL
  5
20
102
{ACAD_REACTORS
330
E
102
}
330
E
100
AcDbMaterial
  1
ByLayer
  2

 70
0
 40
1.0
 71
1
 41
1.0
 91
-1023410177
 42
1.0
 72
1
  3

 73
1
 74
1
 75
1
 44
0.5
 73
0
 45
1.0
 46
1.0
 77
1
  4

 78
1
 79
1
170
1
 48
1.0
171
1
  6

172
1
173
1
174
1
140
1.0
141
1.0
175
1
  7

176
1
177
1
178
1
143
1.0
179
1
  8

270
1
271
1
272
1
145
1.0
146
1.0
273
1
  9

274
1
275
1
276
1
 42
1.0
 72
1
  3

 73
1
 74
1
 75
1
 94
63
  0
MATERIAL
  5
21
102
{ACAD_REACTORS
330
E
102
}
330
E
100
AcDbMaterial
  1
Global
  2

 70
0
 40
1.0
 71
1
 41
1.0
 91
-1023410177
 42
1.0
 72
1
  3

 73
1
 74
1
 75
1
 44
0.5
 73
0
 45
1.0
 46
1.0
 77
1
  4

 78
1
 79
1
170
1
 48
1.0
171
1
  6

172
1
173
1
174
1
140
1.0
141
1.0
175
1
  7

176
1
177
1
178
1
143
1.0
179
1
  8

270
1
271
1
272
1
145
1.0
146
1.0
273
1
  9

274
1
275
1
276
1
 42
1.0
 72
1
  3

 73
1
 74
1
 75
1
 94
63
  0
MLINESTYLE
  5
22
102
{ACAD_REACTORS
330
10
102
}
330
10
100
AcDbMlineStyle
  2
Standard
 70
0
  3

 62
256
 51
90.0
 52
90.0
 71
2
 49
0.5
 62
256
  6
BYLAYER
 49
-0.5
 62
256
  6
BYLAYER
  0
MLEADERSTYLE
  5
2C
102
{ACAD_REACTORS
330
F
102
}
330
F
100
AcDbMLeaderStyle
179
2
170
2
171
1
172
0
 90
2
 40
0.0
 41
0.0
173
1
 91
-1056964608
 92
-2
290
1
 42
2.0
291
1
 43
8.0
  3
Standard
 44
4.0
300

342
29
174
1
175
1
176
0
178
1
 93
-1056964608
 45
4.0
292
0
297
0
 46
4.0
 94
-1056964608
 47
1.0
 49
1.0
140
1.0
294
1
141
0.0
177
0
142
1.0
295
0
296
0
143
3.75
271
0
272
9
273
9
  0
DICTIONARY
  5
2D
330
A
100
AcDbDictionary
280
1
281
1
  3
CREATED_BY_EZDXF
350
2E
  3
WRITTEN_BY_EZDXF
350
32
  0
DICTIONARYVAR
  5
2E
330
2D
100
DictionaryVariables
280
0
  1
1.3.5 @ 2025-08-22T23:49:56.759844+00:00
  0
DICTIONARYVAR
  5
32
330
2D
100
DictionaryVariables
280
0
  1
1.3.5 @ 2025-08-22T23:49:56.759844+00:00
  0
ENDSEC
  0
EOF
