  0
SECTION
  2
HEADER
  9
$ACADVER
  1
AC1032
  9
$ACADMAINTVER
 90
4
  9
$DWGCODEPAGE
  3
ANSI_1252
  9
$LASTSAVEDBY
  1
ezdxf
  9
$REQUIREDVERSIONS
160
0
  9
$INSBASE
 10
0.0
 20
0.0
 30
0.0
  9
$EXTMIN
 10
1e+20
 20
1e+20
 30
1e+20
  9
$EXTMAX
 10
-1e+20
 20
-1e+20
 30
-1e+20
  9
$LIMMIN
 10
0.0
 20
0.0
  9
$LIMMAX
 10
420.0
 20
297.0
  9
$ORTHOMODE
 70
0
  9
$REGENMODE
 70
1
  9
$FILLMODE
 70
1
  9
$QTEXTMODE
 70
0
  9
$MIRRTEXT
 70
1
  9
$LTSCALE
 40
1.0
  9
$ATTMODE
 70
1
  9
$TEXTSIZE
 40
2.5
  9
$TRACEWID
 40
1.0
  9
$TEXTSTYLE
  7
Standard
  9
$CLAYER
  8
0
  9
$CELTYPE
  6
ByLayer
  9
$CECOLOR
 62
256
  9
$CELTSCALE
 40
1.0
  9
$DISPSILH
 70
0
  9
$DIMSCALE
 40
1.0
  9
$DIMASZ
 40
2.5
  9
$DIMEXO
 40
0.625
  9
$DIMDLI
 40
3.75
  9
$DIMRND
 40
0.0
  9
$DIMDLE
 40
0.0
  9
$DIMEXE
 40
1.25
  9
$DIMTP
 40
0.0
  9
$DIMTM
 40
0.0
  9
$DIMTXT
 40
2.5
  9
$DIMCEN
 40
2.5
  9
$DIMTSZ
 40
0.0
  9
$DIMTOL
 70
0
  9
$DIMLIM
 70
0
  9
$DIMTIH
 70
0
  9
$DIMTOH
 70
0
  9
$DIMSE1
 70
0
  9
$DIMSE2
 70
0
  9
$DIMTAD
 70
1
  9
$DIMZIN
 70
8
  9
$DIMBLK
  1

  9
$DIMASO
 70
1
  9
$DIMSHO
 70
1
  9
$DIMPOST
  1

  9
$DIMAPOST
  1

  9
$DIMALT
 70
0
  9
$DIMALTD
 70
3
  9
$DIMALTF
 40
0.03937007874
  9
$DIMLFAC
 40
1.0
  9
$DIMTOFL
 70
1
  9
$DIMTVP
 40
0.0
  9
$DIMTIX
 70
0
  9
$DIMSOXD
 70
0
  9
$DIMSAH
 70
0
  9
$DIMBLK1
  1

  9
$DIMBLK2
  1

  9
$DIMSTYLE
  2
ISO-25
  9
$DIMCLRD
 70
0
  9
$DIMCLRE
 70
0
  9
$DIMCLRT
 70
0
  9
$DIMTFAC
 40
1.0
  9
$DIMGAP
 40
0.625
  9
$DIMJUST
 70
0
  9
$DIMSD1
 70
0
  9
$DIMSD2
 70
0
  9
$DIMTOLJ
 70
0
  9
$DIMTZIN
 70
8
  9
$DIMALTZ
 70
0
  9
$DIMALTTZ
 70
0
  9
$DIMUPT
 70
0
  9
$DIMDEC
 70
2
  9
$DIMTDEC
 70
2
  9
$DIMALTU
 70
2
  9
$DIMALTTD
 70
3
  9
$DIMTXSTY
  7
Standard
  9
$DIMAUNIT
 70
0
  9
$DIMADEC
 70
0
  9
$DIMALTRND
 40
0.0
  9
$DIMAZIN
 70
0
  9
$DIMDSEP
 70
44
  9
$DIMATFIT
 70
3
  9
$DIMFRAC
 70
0
  9
$DIMLDRBLK
  1

  9
$DIMLUNIT
 70
2
  9
$DIMLWD
 70
-2
  9
$DIMLWE
 70
-2
  9
$DIMTMOVE
 70
0
  9
$DIMFXL
 40
1.0
  9
$DIMFXLON
 70
0
  9
$DIMJOGANG
 40
0.785398163397
  9
$DIMTFILL
 70
0
  9
$DIMTFILLCLR
 70
0
  9
$DIMARCSYM
 70
0
  9
$DIMLTYPE
  6

  9
$DIMLTEX1
  6

  9
$DIMLTEX2
  6

  9
$DIMTXTDIRECTION
 70
0
  9
$LUNITS
 70
2
  9
$LUPREC
 70
4
  9
$SKETCHINC
 40
1.0
  9
$FILLETRAD
 40
10.0
  9
$AUNITS
 70
0
  9
$AUPREC
 70
2
  9
$MENU
  1
.
  9
$ELEVATION
 40
0.0
  9
$PELEVATION
 40
0.0
  9
$THICKNESS
 40
0.0
  9
$LIMCHECK
 70
0
  9
$CHAMFERA
 40
0.0
  9
$CHAMFERB
 40
0.0
  9
$CHAMFERC
 40
0.0
  9
$CHAMFERD
 40
0.0
  9
$SKPOLY
 70
0
  9
$TDCREATE
 40
2460909.154166667
  9
$TDUCREATE
 40
2458532.153996898
  9
$TDUPDATE
 40
2460909.154166667
  9
$TDUUPDATE
 40
2458532.1544311
  9
$TDINDWG
 40
0.0
  9
$TDUSRTIMER
 40
0.0
  9
$USRTIMER
 70
1
  9
$ANGBASE
 50
0.0
  9
$ANGDIR
 70
0
  9
$PDMODE
 70
0
  9
$PDSIZE
 40
0.0
  9
$PLINEWID
 40
0.0
  9
$SPLFRAME
 70
0
  9
$SPLINETYPE
 70
6
  9
$SPLINESEGS
 70
8
  9
$HANDSEED
  5
33
  9
$SURFTAB1
 70
6
  9
$SURFTAB2
 70
6
  9
$SURFTYPE
 70
6
  9
$SURFU
 70
6
  9
$SURFV
 70
6
  9
$UCSBASE
  2

  9
$UCSNAME
  2

  9
$UCSORG
 10
0.0
 20
0.0
 30
0.0
  9
$UCSXDIR
 10
1.0
 20
0.0
 30
0.0
  9
$UCSYDIR
 10
0.0
 20
1.0
 30
0.0
  9
$UCSORTHOREF
  2

  9
$UCSORTHOVIEW
 70
0
  9
$UCSORGTOP
 10
0.0
 20
0.0
 30
0.0
  9
$UCSORGBOTTOM
 10
0.0
 20
0.0
 30
0.0
  9
$UCSORGLEFT
 10
0.0
 20
0.0
 30
0.0
  9
$UCSORGRIGHT
 10
0.0
 20
0.0
 30
0.0
  9
$UCSORGFRONT
 10
0.0
 20
0.0
 30
0.0
  9
$UCSORGBACK
 10
0.0
 20
0.0
 30
0.0
  9
$PUCSBASE
  2

  9
$PUCSNAME
  2

  9
$PUCSORG
 10
0.0
 20
0.0
 30
0.0
  9
$PUCSXDIR
 10
1.0
 20
0.0
 30
0.0
  9
$PUCSYDIR
 10
0.0
 20
1.0
 30
0.0
  9
$PUCSORTHOREF
  2

  9
$PUCSORTHOVIEW
 70
0
  9
$PUCSORGTOP
 10
0.0
 20
0.0
 30
0.0
  9
$PUCSORGBOTTOM
 10
0.0
 20
0.0
 30
0.0
  9
$PUCSORGLEFT
 10
0.0
 20
0.0
 30
0.0
  9
$PUCSORGRIGHT
 10
0.0
 20
0.0
 30
0.0
  9
$PUCSORGFRONT
 10
0.0
 20
0.0
 30
0.0
  9
$PUCSORGBACK
 10
0.0
 20
0.0
 30
0.0
  9
$USERI1
 70
0
  9
$USERI2
 70
0
  9
$USERI3
 70
0
  9
$USERI4
 70
0
  9
$USERI5
 70
0
  9
$USERR1
 40
0.0
  9
$USERR2
 40
0.0
  9
$USERR3
 40
0.0
  9
$USERR4
 40
0.0
  9
$USERR5
 40
0.0
  9
$WORLDVIEW
 70
1
  9
$SHADEDGE
 70
3
  9
$SHADEDIF
 70
70
  9
$TILEMODE
 70
1
  9
$MAXACTVP
 70
64
  9
$PINSBASE
 10
0.0
 20
0.0
 30
0.0
  9
$PLIMCHECK
 70
0
  9
$PEXTMIN
 10
1e+20
 20
1e+20
 30
1e+20
  9
$PEXTMAX
 10
-1e+20
 20
-1e+20
 30
-1e+20
  9
$PLIMMIN
 10
0.0
 20
0.0
  9
$PLIMMAX
 10
420.0
 20
297.0
  9
$UNITMODE
 70
0
  9
$VISRETAIN
 70
1
  9
$PLINEGEN
 70
0
  9
$PSLTSCALE
 70
1
  9
$TREEDEPTH
 70
3020
  9
$CMLSTYLE
  2
Standard
  9
$CMLJUST
 70
0
  9
$CMLSCALE
 40
20.0
  9
$PROXYGRAPHICS
 70
1
  9
$MEASUREMENT
 70
1
  9
$CELWEIGHT
370
-1
  9
$ENDCAPS
280
0
  9
$JOINSTYLE
280
0
  9
$LWDISPLAY
290
0
  9
$INSUNITS
 70
6
  9
$HYPERLINKBASE
  1

  9
$STYLESHEET
  1

  9
$XEDIT
290
1
  9
$CEPSNTYPE
380
0
  9
$PSTYLEMODE
290
1
  9
$FINGERPRINTGUID
  2
{CC274C2B-3F32-4A29-96D2-E08328D30E2F}
  9
$VERSIONGUID
  2
{EB9CA8CE-E6A3-4F15-B7EF-756E6C11042E}
  9
$EXTNAMES
290
1
  9
$PSVPSCALE
 40
0.0
  9
$OLESTARTUP
290
0
  9
$SORTENTS
280
127
  9
$INDEXCTL
280
0
  9
$HIDETEXT
280
1
  9
$XCLIPFRAME
280
1
  9
$HALOGAP
280
0
  9
$OBSCOLOR
 70
257
  9
$OBSLTYPE
280
0
  9
$INTERSECTIONDISPLAY
280
0
  9
$INTERSECTIONCOLOR
 70
257
  9
$DIMASSOC
280
2
  9
$PROJECTNAME
  1

  9
$CAMERADISPLAY
290
0
  9
$LENSLENGTH
 40
50.0
  9
$CAMERAHEIGHT
 40
0.0
  9
$STEPSPERSEC
 40
24.0
  9
$STEPSIZE
 40
100.0
  9
$3DDWFPREC
 40
2.0
  9
$PSOLWIDTH
 40
0.005
  9
$PSOLHEIGHT
 40
0.08
  9
$LOFTANG1
 40
1.570796326795
  9
$LOFTANG2
 40
1.570796326795
  9
$LOFTMAG1
 40
0.0
  9
$LOFTMAG2
 40
0.0
  9
$LOFTPARAM
 70
7
  9
$LOFTNORMALS
280
1
  9
$LATITUDE
 40
37.795
  9
$LONGITUDE
 40
-122.394
  9
$NORTHDIRECTION
 40
0.0
  9
$TIMEZONE
 70
-8000
  9
$LIGHTGLYPHDISPLAY
280
1
  9
$TILEMODELIGHTSYNCH
280
1
  9
$CMATERIAL
347
20
  9
$SOLIDHIST
280
0
  9
$SHOWHIST
280
1
  9
$DWFFRAME
280
2
  9
$DGNFRAME
280
2
  9
$REALWORLDSCALE
290
1
  9
$INTERFERECOLOR
 62
256
  9
$CSHADOW
280
0
  9
$SHADOWPLANELOCATION
 40
0.0
  0
ENDSEC
  0
SECTION
  2
CLASSES
  0
CLASS
  1
ACDBDICTIONARYWDFLT
  2
AcDbDictionaryWithDefault
  3
ObjectDBX Classes
 90
0
 91
0
280
0
281
0
  0
CLASS
  1
SUN
  2
AcDbSun
  3
SCENEOE
 90
1153
 91
0
280
0
281
0
  0
CLASS
  1
VISUALSTYLE
  2
AcDbVisualStyle
  3
ObjectDBX Classes
 90
4095
 91
0
280
0
281
0
  0
CLASS
  1
MATERIAL
  2
AcDbMaterial
  3
ObjectDBX Classes
 90
1153
 91
0
280
0
281
0
  0
CLASS
  1
SCALE
  2
AcDbScale
  3
ObjectDBX Classes
 90
1153
 91
0
280
0
281
0
  0
CLASS
  1
TABLESTYLE
  2
AcDbTableStyle
  3
ObjectDBX Classes
 90
4095
 91
0
280
0
281
0
  0
CLASS
  1
MLEADERSTYLE
  2
AcDbMLeaderStyle
  3
ACDB_MLEADERSTYLE_CLASS
 90
4095
 91
0
280
0
281
0
  0
CLASS
  1
DICTIONARYVAR
  2
AcDbDictionaryVar
  3
ObjectDBX Classes
 90
0
 91
0
280
0
281
0
  0
CLASS
  1
CELLSTYLEMAP
  2
AcDbCellStyleMap
  3
ObjectDBX Classes
 90
1152
 91
0
280
0
281
0
  0
CLASS
  1
MENTALRAYRENDERSETTINGS
  2
AcDbMentalRayRenderSettings
  3
SCENEOE
 90
1024
 91
0
280
0
281
0
  0
CLASS
  1
ACDBDETAILVIEWSTYLE
  2
AcDbDetailViewStyle
  3
ObjectDBX Classes
 90
1025
 91
0
280
0
281
0
  0
CLASS
  1
ACDBSECTIONVIEWSTYLE
  2
AcDbSectionViewStyle
  3
ObjectDBX Classes
 90
1025
 91
0
280
0
281
0
  0
CLASS
  1
RASTERVARIABLES
  2
AcDbRasterVariables
  3
ISM
 90
0
 91
0
280
0
281
0
  0
CLASS
  1
ACDBPLACEHOLDER
  2
AcDbPlaceHolder
  3
ObjectDBX Classes
 90
0
 91
0
280
0
281
0
  0
CLASS
  1
LAYOUT
  2
AcDbLayout
  3
ObjectDBX Classes
 90
0
 91
0
280
0
281
0
  0
ENDSEC
  0
SECTION
  2
TABLES
  0
TABLE
  2
VPORT
  5
8
330
0
100
AcDbSymbolTable
 70
1
  0
VPORT
  5
23
330
8
100
AcDbSymbolTableRecord
100
AcDbViewportTableRecord
  2
*Active
 70
0
 10
0.0
 20
0.0
 11
1.0
 21
1.0
 12
0.0
 22
0.0
 13
0.0
 23
0.0
 14
0.5
 24
0.5
 15
0.5
 25
0.5
 16
0.0
 26
0.0
 36
1.0
 17
0.0
 27
0.0
 37
0.0
 40
1000.0
 41
1.34
 42
50.0
 43
0.0
 44
0.0
 50
0.0
 51
0.0
 71
0
 72
1000
 73
1
 74
3
 75
0
 76
0
 77
0
 78
0
281
0
 65
0
146
0.0
  0
ENDTAB
  0
TABLE
  2
LTYPE
  5
2
330
0
100
AcDbSymbolTable
 70
3
  0
LTYPE
  5
24
330
2
100
AcDbSymbolTableRecord
100
AcDbLinetypeTableRecord
  2
ByBlock
 70
0
  3

 72
65
 73
0
 40
0.0
  0
LTYPE
  5
25
330
2
100
AcDbSymbolTableRecord
100
AcDbLinetypeTableRecord
  2
ByLayer
 70
0
  3

 72
65
 73
0
 40
0.0
  0
LTYPE
  5
26
330
2
100
AcDbSymbolTableRecord
100
AcDbLinetypeTableRecord
  2
Continuous
 70
0
  3

 72
65
 73
0
 40
0.0
  0
ENDTAB
  0
TABLE
  2
LAYER
  5
1
330
0
100
AcDbSymbolTable
 70
2
  0
LAYER
  5
27
330
1
100
AcDbSymbolTableRecord
100
AcDbLayerTableRecord
  2
0
 70
0
 62
7
  6
Continuous
370
-3
390
13
347
21
  0
LAYER
  5
28
330
1
100
AcDbSymbolTableRecord
100
AcDbLayerTableRecord
  2
Defpoints
 70
0
 62
7
  6
Continuous
290
0
370
-3
390
13
347
21
  0
ENDTAB
  0
TABLE
  2
STYLE
  5
5
330
0
100
AcDbSymbolTable
 70
1
  0
STYLE
  5
29
330
5
100
AcDbSymbolTableRecord
100
AcDbTextStyleTableRecord
  2
Standard
 70
0
 40
0.0
 41
1.0
 50
0.0
 71
0
 42
2.5
  3
txt
  4

  0
ENDTAB
  0
TABLE
  2
VIEW
  5
7
330
0
100
AcDbSymbolTable
 70
0
  0
ENDTAB
  0
TABLE
  2
UCS
  5
6
330
0
100
AcDbSymbolTable
 70
0
  0
ENDTAB
  0
TABLE
  2
APPID
  5
3
330
0
100
AcDbSymbolTable
 70
3
  0
APPID
  5
2A
330
3
100
AcDbSymbolTableRecord
100
AcDbRegAppTableRecord
  2
ACAD
 70
0
  0
APPID
  5
30
330
3
100
AcDbSymbolTableRecord
100
AcDbRegAppTableRecord
  2
HATCHBACKGROUNDCOLOR
 70
0
  0
APPID
  5
31
330
3
100
AcDbSymbolTableRecord
100
AcDbRegAppTableRecord
  2
EZDXF
 70
0
  0
ENDTAB
  0
TABLE
  2
DIMSTYLE
  5
4
330
0
100
AcDbSymbolTable
 70
1
100
AcDbDimStyleTable
  0
DIMSTYLE
105
2B
330
4
100
AcDbSymbolTableRecord
100
AcDbDimStyleTableRecord
  2
Standard
 70
0
 40
1.0
 41
2.5
 42
0.625
 43
3.75
 44
1.25
 45
0.0
 46
0.0
 47
0.0
 48
0.0
 49
2.5
140
2.5
141
2.5
142
0.0
143
0.03937007874
144
1.0
145
0.0
146
1.0
147
0.625
148
0.0
 69
0
 70
0
 71
0
 72
0
 73
0
 74
0
 75
0
 76
0
 77
1
 78
8
 79
3
170
0
171
3
172
1
173
0
174
0
175
0
176
0
177
0
178
0
179
2
271
2
272
2
273
2
274
3
275
0
276
0
277
2
278
44
279
0
280
0
281
0
282
0
283
0
284
8
285
0
286
0
288
0
289
3
290
0
371
-2
372
-2
  0
ENDTAB
  0
TABLE
  2
BLOCK_RECORD
  5
9
330
0
100
AcDbSymbolTable
 70
2
  0
BLOCK_RECORD
  5
17
330
9
100
AcDbSymbolTableRecord
100
AcDbBlockTableRecord
  2
*Model_Space
340
1A
 70
0
280
1
281
0
  0
BLOCK_RECORD
  5
1B
330
9
100
AcDbSymbolTableRecord
100
AcDbBlockTableRecord
  2
*Paper_Space
340
1E
 70
0
280
1
281
0
  0
ENDTAB
  0
ENDSEC
  0
SECTION
  2
BLOCKS
  0
BLOCK
  5
18
330
17
100
AcDbEntity
  8
0
100
AcDbBlockBegin
  2
*Model_Space
 70
0
 10
0.0
 20
0.0
 30
0.0
  3
*Model_Space
  1

  0
ENDBLK
  5
19
330
17
100
AcDbEntity
  8
0
100
AcDbBlockEnd
  0
BLOCK
  5
1C
330
1B
100
AcDbEntity
  8
0
100
AcDbBlockBegin
  2
*Paper_Space
 70
0
 10
0.0
 20
0.0
 30
0.0
  3
*Paper_Space
  1

  0
ENDBLK
  5
1D
330
1B
100
AcDbEntity
  8
0
100
AcDbBlockEnd
  0
ENDSEC
  0
SECTION
  2
ENTITIES
  0
LWPOLYLINE
  5
2F
330
17
100
AcDbEntity
  8
0
100
AcDbPolyline
 90
722
 70
1
 10
71.34440962756338
 20
12.189789194425261
 10
71.34226359262139
 20
12.190176229426465
 10
71.33586124507244
 20
12.19112404133325
 10
71.32527397444488
 20
12.192206789732024
 10
71.3103597513651
 20
12.1936183088418
 10
71.29138482738506
 20
12.195077150612937
 10
71.268225016048
 20
12.196670715796044
 10
71.24079178100943
 20
12.198273751284965
 10
71.20929786293134
 20
12.19992400289523
 10
71.17365472546932
 20
12.201496217520694
 10
71.13372028566732
 20
12.203184549000381
 10
71.08974300574273
 20
12.204813663133022
 10
71.04161647071263
 20
12.206364953360868
 10
70.9893228197993
 20
12.207944959692325
 10
70.93289777455811
 20
12.20934060211059
 10
70.87230557771218
 20
12.210765173712478
 10
70.80767046930053
 20
12.21213095412735
 10
70.73888603434028
 20
12.213419336797472
 10
70.66593441205372
 20
12.214736861731234
 10
70.58895766753601
 20
12.21588948162961
 10
70.50781368210964
 20
12.217071563411661
 10
70.42253815946924
 20
12.218070133600582
 10
70.33330810086062
 20
12.219136124568726
 10
70.23982222927731
 20
12.220106537394397
 10
70.14239962892115
 20
12.221038150610909
 10
70.0408275412694
 20
12.221893324942743
 10
69.93521229200104
 20
12.22269119964768
 10
69.82555386325535
 20
12.223431881265734
 10
69.71183437639387
 20
12.224222016345314
 10
69.59405377783419
 20
12.225061924506445
 10
69.47224777127099
 20
12.22573863227233
 10
69.34638061728808
 20
12.226465326199781
 10
69.2165764844815
 20
12.227154712078201
 10
69.08271113281205
 20
12.227894510278217
 10
68.9448202123921
 20
12.228472066943068
 10
68.80297438092761
 20
12.229119281727318
 10
68.65715572405857
 20
12.229943014259394
 10
68.50741778839654
 20
12.23062385759411
 10
68.35361841954236
 20
12.23135639173053
 10
68.19598821893572
 20
12.232071822475785
 10
68.03429651369385
 20
12.232839370182775
 10
67.86875602661799
 20
12.233696887207055
 10
67.69926032486438
 20
12.234625873530879
 10
67.52591575197289
 20
12.235645361872027
 10
67.34863373587743
 20
12.236630312204351
 10
67.16752062011794
 20
12.237599757245649
 10
66.98243425029521
 20
12.238748276994972
 10
66.79360520998824
 20
12.240007183799474
 10
66.60092706635324
 20
12.241357977641409
 10
66.40439978366871
 20
12.242800871600796
 10
66.20402327263074
 20
12.24433639837768
 10
65.99988605172304
 20
12.246089917618228
 10
65.791899513158
 20
12.247936602376308
 10
65.5801521575586
 20
12.250001918838105
 10
65.36466175639859
 20
12.252179859695252
 10
65.14546401337256
 20
12.254257451470949
 10
64.92262951474349
 20
12.256467019979803
 10
64.696016123973
 20
12.25900303868088
 10
64.46562375175718
 20
12.261866040274214
 10
64.2316123418298
 20
12.264755330912374
 10
63.99396396197
 20
12.267777876763793
 10
63.7526785764562
 20
12.27093389090848
 10
63.50770251365154
 20
12.274543526071707
 10
63.25912502386205
 20
12.278074401831468
 10
63.00701672907219
 20
12.281758630922345
 10
62.75135971492202
 20
12.285703072972785
 10
62.49202966992928
 20
12.289995874513453
 10
62.22925715981213
 20
12.294568454431493
 10
61.96295359464378
 20
12.299295879240784
 10
61.69311893870264
 20
12.30417836202133
 10
61.41982377825164
 20
12.309448228587742
 10
61.14313948495841
 20
12.314679745066435
 10
60.862923922284644
 20
12.320067384916477
 10
60.579371916532324
 20
12.325755753581825
 10
60.29248341411913
 20
12.331745170682515
 10
60.002187703756704
 20
12.337804056183991
 10
59.70846683536347
 20
12.344039482794699
 10
59.41153353174066
 20
12.35048930287019
 10
59.1112456206284
 20
12.35734820294954
 10
58.80765663077744
 20
12.364296882627562
 10
58.500872887866805
 20
12.371354481162044
 10
58.190894338314195
 20
12.378521318173009
 10
57.87768517126035
 20
12.386011006377316
 10
57.56124533312291
 20
12.393823865394982
 10
57.241592631097255
 20
12.40185367483763
 10
56.91895764876234
 20
12.410031747052408
 10
56.59310965965295
 20
12.418427622012231
 10
56.264155007308965
 20
12.427060332434886
 10
55.93225361760333
 20
12.435629291012948
 10
55.59728114333221
 20
12.444222857357094
 10
55.25929034570247
 20
12.453179684210328
 10
54.918387568253905
 20
12.462518804290427
 10
54.57439564899367
 20
12.471990244085116
 10
54.22758092877762
 20
12.48131202284471
 10
53.87787189305191
 20
12.490910726762857
 10
53.52528634901187
 20
12.50068013545118
 10
53.16980636443671
 20
12.510727215078116
 10
52.811573986560894
 20
12.520858024884651
 10
52.45058917966287
 20
12.531072777950797
 10
52.086745457316525
 20
12.541353293878839
 10
51.72023769940624
 20
12.551843858492722
 10
51.350959455227496
 20
12.562526078314713
 10
50.979052789875524
 20
12.57320590604579
 10
50.604517631907186
 20
12.58388376784598
 10
50.22746034272312
 20
12.59457858989306
 10
49.8477565751196
 20
12.60537873179772
 10
49.46547696894183
 20
12.616516199754539
 10
49.08056860223605
 20
12.6276532998806
 10
48.69333284131268
 20
12.638952498397563
 10
48.30362822787343
 20
12.649950848316342
 10
47.91143681183673
 20
12.660755422345387
 10
47.516917805113884
 20
12.671723266705426
 10
47.120053275484075
 20
12.682961347564895
 10
46.72068392173212
 20
12.694113151403103
 10
46.3192710896237
 20
12.705040237514265
 10
45.9155133235445
 20
12.715580672376754
 10
45.509569799684265
 20
12.726091715291316
 10
45.10131618870001
 20
12.736661619328633
 10
44.6909831456138
 20
12.747221270675817
 10
44.2785177841934
 20
12.75743276236993
 10
43.86399074428406
 20
12.767528100605553
 10
43.44736623288728
 20
12.777720791559528
 10
43.02873351816997
 20
12.78747834826985
 10
42.60811040732747
 20
12.79669455034814
 10
42.18562039071572
 20
12.805939524031935
 10
41.761068427703364
 20
12.815069942357367
 10
41.33464945175707
 20
12.82422977152835
 10
40.90647059182143
 20
12.83277998457448
 10
40.476513933536424
 20
12.840827441124183
 10
40.0447437196251
 20
12.848585434274286
 10
39.61110627845053
 20
12.856374116750043
 10
39.17588591881092
 20
12.863804328553318
 10
38.73894112882569
 20
12.870413442315057
 10
38.300537624692964
 20
12.876576578113688
 10
37.86037314753294
 20
12.8827899686558
 10
37.4186255733001
 20
12.88864595392551
 10
36.97536625580133
 20
12.893718906589246
 10
36.5307723570295
 20
12.898258800159288
 10
36.08461306121555
 20
12.902335707308604
 10
35.6370833554085
 20
12.906093274621083
 10
35.18809461395996
 20
12.909406781690608
 10
34.73778897340828
 20
12.912081755058118
 10
34.28627284873642
 20
12.914136801281364
 10
33.83343973565751
 20
12.915553846502634
 10
33.3795025177198
 20
12.916369784217403
 10
32.92424823993196
 20
12.916548147090232
 10
32.4678540285653
 20
12.91633912171342
 10
32.010337762258274
 20
12.915636061538555
 10
31.551788673456212
 20
12.913906692683643
 10
31.09217100488221
 20
12.911364308245517
 10
30.63167979716758
 20
12.908152235188037
 10
30.170084234543268
 20
12.904340546184173
 10
29.707632922112932
 20
12.899753054712589
 10
29.24434370279347
 20
12.894283327304885
 10
28.780234419501795
 20
12.88782493049267
 10
28.315269279239402
 20
12.880591370452786
 10
27.84953690765471
 20
12.872707367591348
 10
27.38303725116534
 20
12.864173241528382
 10
26.91593034280891
 20
12.85468776571641
 10
26.44812755693703
 20
12.844126219749308
 10
25.97975318717111
 20
12.832400563636414
 10
25.510860119743406
 20
12.819848704340666
 10
25.04128826803397
 20
12.80677218802957
 10
24.57128629072879
 20
12.792994508561756
 10
24.100890587623297
 20
12.777645165472286
 10
23.629993940469028
 20
12.761363718431605
 10
23.15879147920122
 20
12.74429296170354
 10
22.68721238536684
 20
12.726201954493593
 10
22.21527453760434
 20
12.706984050253347
 10
21.743137272850497
 20
12.686995549423477
 10
21.270712001178445
 20
12.666111518517837
 10
20.798158737765014
 20
12.644030837528963
 10
20.325370996184127
 20
12.620735326059135
 10
19.85254390637102
 20
12.596367778372185
 10
19.379659571826437
 20
12.571034947556527
 10
18.906771592744242
 20
12.544417107046943
 10
18.433862072625164
 20
12.516621009931852
 10
17.96101965497839
 20
12.487771270077365
 10
17.488084271044766
 20
12.458169327110982
 10
17.015376058342564
 20
12.427212301777706
 10
16.542895016871796
 20
12.394900194077533
 10
16.070623303715546
 20
12.361339437478865
 10
15.59854302237457
 20
12.326636785070118
 10
15.126778573634963
 20
12.29070355762058
 10
14.655205592432182
 20
12.253628221280952
 10
14.184054930256844
 20
12.215340490298242
 10
13.713362326525099
 20
12.175627178115638
 10
13.243109920459263
 20
12.134594824741548
 10
12.773279869142414
 20
12.092349863644362
 10
12.30389003335226
 20
12.048785754815677
 10
11.835189178939407
 20
12.003725352874081
 10
11.36703506220087
 20
11.957363770518686
 10
10.89949850158967
 20
11.909931948543987
 10
10.4325622967074
 20
11.860879113050254
 10
9.966403752433164
 20
11.81045438522971
 10
9.500969340016216
 20
11.758977065487528
 10
9.036206101781238
 20
11.706109673020821
 10
8.572362839300398
 20
11.651674849368147
 10
8.109403848879104
 20
11.595885568006313
 10
7.647258329925109
 20
11.538510781600811
 10
7.186103640899832
 20
11.479799291723825
 10
6.725868999071828
 20
11.419519944500847
 10
6.266749605819415
 20
11.357815108035663
 10
5.808478870235826
 20
11.294968254638071
 10
5.351305593893262
 20
11.23080202584665
 10
4.895301219902481
 20
11.164890261627775
 10
4.440447941068111
 20
11.09733918236983
 10
3.9867986972047267
 20
11.02848637541572
 10
3.534371420533125
 20
10.958224874597015
 10
3.08318398969176
 20
10.886448033365294
 10
2.6333429625498277
 20
10.813173605958246
 10
2.184706095404322
 20
10.738596705074976
 10
1.7373442781513653
 20
10.662947845349947
 10
1.291435493910139
 20
10.585818727527236
 10
0.8470154999575698
 20
10.506996058510019
 10
0.40404862832059896
 20
10.426692598695071
 10
-0.037374798578485614
 20
10.34502294718772
 10
-0.47735842730212835
 20
10.261951983728915
 10
-0.9158135250372617
 20
10.177603789484719
 10
-1.352651412553192
 20
10.092102765241227
 10
-1.787907186747539
 20
10.005004890187138
 10
-2.2214743076119188
 20
9.916328025100135
 10
-2.653335539026368
 20
9.826622730799933
 10
-3.083561699443912
 20
9.73565806649203
 10
-3.5119218480700547
 20
9.643363213723404
 10
-3.938629064921596
 20
9.549702450938675
 10
-4.363470269981735
 20
9.454711499693222
 10
-4.786374644797449
 20
9.358621300781543
 10
-5.207573130163231
 20
9.261502672656661
 10
-5.626869882182234
 20
9.162840776054248
 10
-6.044158985503779
 20
9.063310572580104
 10
-6.45958270169165
 20
8.963107281473352
 10
-6.873140406088121
 20
8.861573801905877
 10
-7.284512478667975
 20
8.758763716210742
 10
-7.693859041772685
 20
8.654978783635478
 10
-8.101197956179941
 20
8.550325544188484
 10
-8.506493500334363
 20
8.444590917852953
 10
-8.909550454996833
 20
8.337917166192664
 10
-9.310581900184156
 20
8.230268567652246
 10
-9.709428338212598
 20
8.122000463812284
 10
-10.10605404752678
 20
8.012899774655972
 10
-10.500441167349004
 20
7.902859960174906
 10
-10.892607558456968
 20
7.791987560377491
 10
-11.282482402397644
 20
7.680513516058223
 10
-11.670172239179434
 20
7.5684199664394125
 10
-12.055428267230152
 20
7.455529553059632
 10
-12.4382504865498
 20
7.34184227591888
 10
-12.818727576369087
 20
7.227233734231061
 10
-13.196770857457308
 20
7.11182832878227
 10
-13.572433912147522
 20
6.995945679597723
 10
-13.945628061209018
 20
6.879710187463509
 10
-14.316281861531037
 20
6.762695692346012
 10
-14.684501853121985
 20
6.6448843334675445
 10
-15.049950555178961
 20
6.52622315315277
 10
-15.412894630051838
 20
6.406996049871521
 10
-15.77335193851831
 20
6.287309563632201
 10
-16.13110940056156
 20
6.167199415990193
 10
-16.486149155403908
 20
6.046559066937089
 10
-16.838524160720684
 20
5.925051035669988
 10
-17.188199319614245
 20
5.803119343000195
 10
-17.53522821441766
 20
5.681083608952924
 10
-17.879415001234076
 20
5.558428994263842
 10
-18.22086622007189
 20
5.435137638155261
 10
-18.559404512469687
 20
5.311458342199368
 10
-18.895136418435857
 20
5.187373245618475
 10
-19.2280797987481
 20
5.062988888420982
 10
-19.558074531064936
 20
4.938003511359369
 10
-19.885156336941755
 20
4.812630194450445
 10
-20.209325216378538
 20
4.686868937694208
 10
-20.530652612486058
 20
4.5611459011242745
 10
-20.848907584469814
 20
4.435390266287621
 10
-21.164249630013536
 20
4.309246691603657
 10
-21.476536487553464
 20
4.182519957833259
 10
-21.785733060191934
 20
4.0556540857877375
 10
-22.091981609492727
 20
3.928844294706208
 10
-22.39510415233669
 20
3.801682285332745
 10
-22.69502987027079
 20
3.6743989984618466
 10
-22.991989704089534
 20
3.5470652525465383
 10
-23.285770573776098
 20
3.4197167691422004
 10
-23.576318896997435
 20
3.2920339282236135
 10
-23.863688256086597
 20
3.1643363498159984
 10
-24.147896511821283
 20
3.0367305739277537
 10
-24.428925803423795
 20
2.909110060550478
 10
-24.70666959088573
 20
2.781492670461861
 10
-24.981110013429404
 20
2.6537718636534966
 10
-25.25237147184091
 20
2.526036319356102
 10
-25.52024088610344
 20
2.398321759125052
 10
-25.784753977772365
 20
2.270841262977158
 10
-26.04608810530912
 20
2.1433460293402335
 10
-26.3039236486885
 20
2.015889640547343
 10
-26.558349287141205
 20
1.8883476958123977
 10
-26.809436463778002
 20
1.7611463551690116
 10
-27.057185178598885
 20
1.6342856186171841
 10
-27.30145317004008
 20
1.5075702669177968
 10
-27.54222257732389
 20
1.3808937600624478
 10
-27.779582079681038
 20
1.2541316972650396
 10
-28.013407900983143
 20
1.1278525001229749
 10
-28.243788720460948
 20
1.0019317678501591
 10
-28.47068881655905
 20
0.8761564204297829
 10
-28.694001649269055
 20
0.7505443186395374
 10
-28.91376294014634
 20
0.625308542496229
 10
-29.129936967635533
 20
0.5002360119830522
 10
-29.34254159251432
 20
0.3754332671084086
 10
-29.55159467556038
 20
0.2510068478807029
 10
-29.75695395520994
 20
0.1267615350608164
 10
-29.95867301379607
 20
0.003016948673962946
 10
-30.156786948216414
 20
-0.12067093209116728
 10
-30.351260661573317
 20
-0.24385808642326354
 10
-30.542076293089103
 20
-0.36665105433073336
 10
-30.729215981986073
 20
-0.4891563758219808
 10
-30.91257318825583
 20
-0.6113561901193141
 10
-31.092272312684457
 20
-0.7331618179920198
 10
-31.268260397596627
 20
-0.8542357786371951
 10
-31.440501721436963
 20
-0.9747911520716516
 10
-31.608996284205457
 20
-1.0948279382953854
 10
-31.773868486688215
 20
-1.2142574580776841
 10
-31.934887388090715
 20
-1.333150529871571
 10
-32.09219524997677
 20
-1.4513119344379293
 10
-32.24572125389333
 20
-1.5685107309822601
 10
-32.39557193984881
 20
-1.6847647802822519
 10
-32.54160504627943
 20
-1.8002693015770255
 10
-32.68394497397128
 20
-1.9149356156358657
 10
-32.822378642907545
 20
-2.028728000903392
 10
-32.95715485466042
 20
-2.1414690989181766
 10
-33.08807838999079
 20
-2.2530166481164366
 10
-33.215220067351666
 20
-2.363601589292669
 10
-33.33857988674307
 20
-2.4732239224468735
 10
-33.45815784816497
 20
-2.58188364757905
 10
-33.57388313316438
 20
-2.689349823894702
 10
-33.68575574174126
 20
-2.7956224513938284
 10
-33.79382863157098
 20
-2.9010390108793316
 10
-33.89804884497818
 20
-3.005262021548309
 10
-33.99834493885212
 20
-3.1087176434343795
 10
-34.094788356303546
 20
-3.2109797165039238
 10
-34.1873076542217
 20
-3.31247440079056
 10
-34.27593855416196
 20
-3.4129886162774796
 10
-34.36068105612434
 20
-3.512522362964684
 10
-34.441410759322736
 20
-3.6111643200828847
 10
-34.51837646532934
 20
-3.708737129170653
 10
-34.591204971785864
 20
-3.805506827920136
 10
-34.6602516202729
 20
-3.901313918647592
 10
-34.725285469995946
 20
-3.9962292198060445
 10
-34.78636010328808
 20
-4.089933111370283
 10
-34.84354633860233
 20
-4.1826565341348045
 10
-34.896755496707975
 20
-4.274275087313516
 10
-34.94605902071577
 20
-4.364362610872801
 10
-34.991509868301065
 20
-4.453256585615561
 10
-35.03303722101081
 20
-4.540726070747296
 10
-35.0706768004004
 20
-4.626557986251201
 10
-35.10450004958059
 20
-4.710326172093657
 10
-35.13450696855138
 20
-4.792030628274665
 10
-35.16083981887655
 20
-4.871476135555104
 10
-35.183374824427744
 20
-4.948094272337577
 10
-35.20228996832412
 20
-5.021476739366152
 10
-35.21787039835097
 20
-5.09057599733448
 10
-35.230028059935314
 20
-5.154610544628351
 10
-35.239155265528595
 20
-5.211893601890987
 10
-35.24564432758223
 20
-5.260738389765607
 10
-35.24971082474396
 20
-5.298552226495132
 10
-35.251907816464424
 20
-5.322689472647146
 10
-35.13978384641181
 20
-6.003926021134831
 10
-35.13684868658997
 20
-6.009020206787351
 10
-35.12806106790215
 20
-6.024196223736507
 10
-35.11349243345912
 20
-6.049027911948684
 10
-35.09273261003174
 20
-6.085308590789063
 10
-35.065619601305336
 20
-6.135311321989511
 10
-35.032975627711366
 20
-6.19347816433532
 10
-34.995247833349794
 20
-6.256488516788267
 10
-34.95288148834737
 20
-6.322993080794478
 10
-34.90614512902719
 20
-6.3907366553997695
 10
-34.85509296238003
 20
-6.4587425197508175
 10
-34.80002737231114
 20
-6.526513695360978
 10
-34.74091326192291
 20
-6.593606161418946
 10
-34.67782207432608
 20
-6.659593757891104
 10
-34.610789531076016
 20
-6.724263404760644
 10
-34.53981563217272
 20
-6.787615102027564
 10
-34.46502477840229
 20
-6.8495601704611495
 10
-34.38634615131171
 20
-6.909867669266904
 10
-34.30376189012328
 20
-6.968644138453233
 10
-34.217396395623105
 20
-7.025800898789417
 10
-34.12710740624739
 20
-7.0815331695145805
 10
-34.03291278277382
 20
-7.135734410620314
 10
-33.935061326774594
 20
-7.188227263645191
 10
-33.83317983589142
 20
-7.239277766281358
 10
-33.72760579092722
 20
-7.288832960853474
 10
-33.61810825108747
 20
-7.336963665814567
 10
-33.50481161715828
 20
-7.383581201933923
 10
-33.38773374991735
 20
-7.428579029203136
 10
-33.26682106703159
 20
-7.472276767647419
 10
-33.14210929005638
 20
-7.514461337249964
 10
-33.01352697588098
 20
-7.55555889804439
 10
-32.88112770683845
 20
-7.595249830005481
 10
-32.7449823013818
 20
-7.633765073927736
 10
-32.60498421950264
 20
-7.671086769033466
 10
-32.46109773964561
 20
-7.707427995339479
 10
-32.31344726259677
 20
-7.742700073615061
 10
-32.16201492757844
 20
-7.777009543868614
 10
-32.00680073459063
 20
-7.81035640610014
 10
-31.84764456129186
 20
-7.843042419557163
 10
-31.684777348476633
 20
-7.874996765786655
 10
-31.51800387690583
 20
-7.906077183224836
 10
-31.347537226596252
 20
-7.936319393427081
 10
-31.173235135984125
 20
-7.965918615632514
 10
-30.995204145077842
 20
-7.994892710618819
 10
-30.813355574646703
 20
-8.023117277599907
 10
-30.62783168625448
 20
-8.050397097336656
 10
-30.43850807911508
 20
-8.076820849059782
 10
-30.245579972467628
 20
-8.102530794333068
 10
-30.048940826303717
 20
-8.127509072378823
 10
-29.848590640623343
 20
-8.15175568319705
 10
-29.64458299775958
 20
-8.174951006762535
 10
-29.43702443772083
 20
-8.197112903852966
 10
-29.225808420498687
 20
-8.218223513690655
 10
-29.011005764546177
 20
-8.238513777070096
 10
-28.7926164698633
 20
-8.257983693991296
 10
-28.570711979560812
 20
-8.276207104420635
 10
-28.345363112091746
 20
-8.29341494915261
 10
-28.116481188225382
 20
-8.309482827401125
 10
-27.88404834718403
 20
-8.324517279174588
 10
-27.648171128976088
 20
-8.338536165250687
 10
-27.40886739437926
 20
-8.351432945621019
 10
-27.16611928261585
 20
-8.363314160293987
 10
-26.919926793685857
 20
-8.374179809269592
 10
-26.670307788366966
 20
-8.383923352539426
 10
-26.41735094588989
 20
-8.392669190889587
 10
-26.161056266254647
 20
-8.400417324320074
 10
-25.901335070230502
 20
-8.407043352044791
 10
-25.638364716278897
 20
-8.41279607563593
 10
-25.372056525169114
 20
-8.417551094307393
 10
-25.102392636123458
 20
-8.421414948067586
 10
-24.82949744992803
 20
-8.424298957685796
 10
-24.553424548915896
 20
-8.425883503136806
 10
-24.274120350753986
 20
-8.426488204445828
 10
-23.991442593878517
 20
-8.426308280851986
 10
-23.7057287590924
 20
-8.425290774679944
 10
-23.416801487934187
 20
-8.42318688435751
 10
-23.124678641181582
 20
-8.419890069876283
 10
-22.829537577296012
 20
-8.41564913280845
 10
-22.531253895491385
 20
-8.410552752384724
 10
-22.229863317323076
 20
-8.4043878485883
 10
-21.925472382799484
 20
-8.397172282196863
 10
-21.61809895269831
 20
-8.388799513202011
 10
-21.307689444686478
 20
-8.379589161628957
 10
-20.994279580319372
 20
-8.369328147460893
 10
-20.677833638041612
 20
-8.358229550714626
 10
-20.358618280203068
 20
-8.34600947292032
 10
-20.036402566009247
 20
-8.332738732531007
 10
-19.711293035468557
 20
-8.318435190324372
 10
-19.3833783678117
 20
-8.303223247086507
 10
-19.052587744585665
 20
-8.286871962022916
 10
-18.71899198424348
 20
-8.269612275928099
 10
-18.38271548757123
 20
-8.251355509571336
 10
-18.043580896107475
 20
-8.231852861380446
 10
-17.701801289869046
 20
-8.211140052910805
 10
-17.357323086522854
 20
-8.189536704187622
 10
-17.010146286068913
 20
-8.167042815210904
 10
-16.660270888507217
 20
-8.143658385980645
 10
-16.307857016179245
 20
-8.119081657249323
 10
-15.952940390640363
 20
-8.093099549000131
 10
-15.595343028771422
 20
-8.066120360488997
 10
-15.235278010589221
 20
-8.038179813271297
 10
-14.87267451764074
 20
-8.009046966552537
 10
-14.507674811489764
 20
-7.978526601093593
 10
-14.14022530980322
 20
-7.946938336919682
 10
-13.770396831034134
 20
-7.9145131148253
 10
-13.398118556729486
 20
-7.881019994015949
 10
-13.023444069222334
 20
-7.846139354466416
 10
-12.646550726974116
 20
-7.81011999774889
 10
-12.267420669207139
 20
-7.773068463871773
 10
-11.885840815904595
 20
-7.734949031279688
 10
-11.502148647869388
 20
-7.695708742297298
 10
-11.116273346648494
 20
-7.655116656130105
 10
-10.72821491224191
 20
-7.6131727727781096
 10
-10.338062023880344
 20
-7.570001493027402
 10
-9.945725377675364
 20
-7.52613551692001
 10
-9.551365095968428
 20
-7.481273085208406
 10
-9.154946081861901
 20
-7.434970177081284
 10
-8.756450474578088
 20
-7.3873333325470485
 10
-8.356091354133795
 20
-7.338398273161077
 10
-7.953690737409864
 20
-7.2885732981792986
 10
-7.549390885970079
 20
-7.2376631883625935
 10
-7.143191799814434
 20
-7.185667943710962
 10
-6.735129200498315
 20
-7.132374484207596
 10
-6.325185227244032
 20
-7.077889349860901
 10
-5.913537238513011
 20
-7.022461342243061
 10
-5.500007875843824
 20
-6.96584165978189
 10
-5.084845940808656
 20
-6.907852944015959
 10
-4.6680335726298186
 20
-6.848601734953671
 10
-4.249552910529625
 20
-6.788194572603432
 10
-3.829315275277357
 20
-6.726507056179146
 10
-3.407676008453611
 20
-6.663379687997074
 10
-2.984546430827666
 20
-6.598688067271123
 10
-2.559712837724981
 20
-6.533053573274028
 10
-2.1334061699400584
 20
-6.466405387552764
 10
-1.7058401321474395
 20
-6.398122130834594
 10
-1.2767480619972473
 20
-6.328487701589353
 10
-0.8462186387201973
 20
-6.257626500603134
 10
-0.4145006638884668
 20
-6.185361169414508
 10
0.018601081737053826
 20
-6.111549446459692
 10
0.45287351813955856
 20
-6.036227053294062
 10
0.8884946284382076
 20
-5.95980228917355
 10
1.3253221510692121
 20
-5.882079934859033
 10
1.7631602421357437
 20
-5.802545151086181
 10
2.2021690239792453
 20
-5.721499697102517
 10
2.642313399702091
 20
-5.639387593719347
 10
3.0834333005451238
 20
-5.555907401309176
 10
3.5256202991850696
 20
-5.470951978567266
 10
3.9688052203604243
 20
-5.384762067968892
 10
4.412916674542776
 20
-5.296911829100463
 10
4.857954697453689
 20
-5.207401475041991
 10
5.303884192195496
 20
-5.116675026604788
 10
5.750616550980606
 20
-5.024857310734976
 10
6.1982404709005126
 20
-4.931824033186473
 10
6.64659584747451
 20
-4.837273541251766
 10
7.0957184201187635
 20
-4.741419021487668
 10
7.545608260276388
 20
-4.644260900054212
 10
7.996158810078186
 20
-4.545816931189083
 10
8.44731654077344
 20
-4.44576781448709
 10
8.899117173917526
 20
-4.344326629965042
 10
9.35141907260438
 20
-4.241955259211937
 10
9.80441752751623
 20
-4.138511866824024
 10
10.257845858442451
 20
-4.033712447791459
 10
10.711828501890661
 20
-3.9276458944249772
 10
11.166152377844067
 20
-3.8203479282799555
 10
11.620941904949534
 20
-3.711907335127116
 10
12.07617924029015
 20
-3.6022176814980646
 10
12.531669164626805
 20
-3.4914212289565816
 10
12.987553939523272
 20
-3.3797131967417897
 10
13.443815757784199
 20
-3.266987364465309
 10
13.900223625032751
 20
-3.1531725940540873
 10
14.356901977776584
 20
-3.0383577778188555
 10
14.813779997562671
 20
-2.922773856554114
 10
15.270892799149424
 20
-2.805976915988565
 10
15.728062988353878
 20
-2.6882155446143745
 10
16.185326286731392
 20
-2.5697028224483565
 10
16.64266485136507
 20
-2.450332316022112
 10
17.100042960699525
 20
-2.3298909453188332
 10
17.557496354150924
 20
-2.208591896895335
 10
18.01484758395393
 20
-2.086683439623768
 10
18.47216750428314
 20
-1.963934845789645
 10
18.92940315746321
 20
-1.8406835961958714
 10
19.38650092543952
 20
-1.7166098577372166
 10
19.84344296529516
 20
-1.5916071969452854
 10
20.300264998585494
 20
-1.4658886938368874
 10
20.75680742046213
 20
-1.3398090507525617
 10
21.213176824515813
 20
-1.2133507265346428
 10
21.669213052683492
 20
-1.086211748855595
 10
22.124933930021324
 20
-0.9584984446438007
 10
22.580339474390065
 20
-0.8302109204392724
 10
23.03544751084587
 20
-0.7014555031703942
 10
23.490027009290348
 20
-0.5721608416840994
 10
23.944202424091916
 20
-0.4424159348311296
 10
24.39788496885518
 20
-0.31234454415752877
 10
24.851216994447853
 20
-0.18214242160245417
 10
25.30391381699533
 20
-0.05141816982759642
 10
25.75599331513609
 20
0.07972156461863554
 10
26.207651332767004
 20
0.2107619424719081
 10
26.658567535901216
 20
0.34230701492731114
 10
27.10872401017871
 20
0.47446364161327376
 10
27.558334513856366
 20
0.6066101236370333
 10
28.00722154558651
 20
0.7384985117464702
 10
28.455384516433003
 20
0.8707856936896868
 10
28.90273467572198
 20
1.0033476948406157
 10
29.349165376280396
 20
1.1361672936616225
 10
29.79481893325437
 20
1.2690489512935637
 10
30.239606578109267
 20
1.4018687996503825
 10
30.683546118040486
 20
1.5345206183437083
 10
31.12649523790187
 20
1.667199946232677
 10
31.56841814469496
 20
1.8001202894941362
 10
32.00936840289203
 20
1.932962134642879
 10
32.449345994632324
 20
2.0657255882189167
 10
32.88815550420815
 20
2.1982695605985563
 10
33.32601013666174
 20
2.330629027557114
 10
33.76264305103548
 20
2.463088952964517
 10
34.198072072385486
 20
2.5955430098923706
 10
34.63238643315708
 20
2.7274589244586886
 10
35.06556829043338
 20
2.8589431301318706
 10
35.49736861045208
 20
2.9901743703934516
 10
35.92801845903311
 20
3.1210810810103493
 10
36.357286698913406
 20
3.2517352523756777
 10
36.785279905822954
 20
3.3821545321871143
 10
37.21192713628328
 20
3.5121087254302195
 10
37.637121725260535
 20
3.6415807171073604
 10
38.061005987900835
 20
3.7703749683593952
 10
38.48331302966419
 20
3.8987767626762655
 10
38.90425605559284
 20
4.026821075833292
 10
39.32360392842376
 20
4.1545798982235915
 10
39.74146372351917
 20
4.28141452249678
 10
40.157728793706006
 20
4.407307727115222
 10
40.57250517936039
 20
4.532933727904659
 10
40.98545507818543
 20
4.658347400260581
 10
41.39693458144489
 20
4.782731399891074
 10
41.80671253401494
 20
4.906157823729265
 10
42.21471740348091
 20
5.029053364508809
 10
42.62094915412128
 20
5.151418235309726
 10
43.02542559313138
 20
5.273146215743639
 10
43.42823598867811
 20
5.393704818848537
 10
43.82913125341685
 20
5.513273107725991
 10
44.228271063639106
 20
5.632205358556505
 10
44.62544205355562
 20
5.750467554424835
 10
45.02067989113946
 20
5.867846934934199
 10
45.41402026222442
 20
5.984130633147803
 10
45.80542737381204
 20
6.099532155242492
 10
46.194794507286105
 20
6.214034705840659
 10
46.58226399565354
 20
6.327442639543152
 10
46.967622473125104
 20
6.439721939434729
 10
47.3509229688192
 20
6.551209660158253
 10
47.73195208122504
 20
6.6618719978784995
 10
48.11106545555645
 20
6.771547643731587
 10
48.48787211751184
 20
6.879955270790198
 10
48.86258534357659
 20
6.987129428669619
 10
49.23518720152989
 20
7.0931770835382935
 10
49.605428604027104
 20
7.198277298497779
 10
49.973327322542055
 20
7.302324066239717
 10
50.339114476477
 20
7.405245502910999
 10
50.702487913647325
 20
7.506883830050335
 10
51.063589931338335
 20
7.607043615338587
 10
51.42226022860082
 20
7.70602768342337
 10
51.77858753824779
 20
7.803960115470745
 10
52.13248300244078
 20
7.900717576094703
 10
52.483946549736665
 20
7.996300491455282
 10
52.83292502599156
 20
8.09037255268967
 10
53.17947147818471
 20
8.183270707900729
 10
53.52339034772217
 20
8.27485471978483
 10
53.86475250663933
 20
8.36535520951645
 10
54.20361150154772
 20
8.454452770150397
 10
54.539878438887264
 20
8.54202427938067
 10
54.87349966488179
 20
8.62838978339252
 10
55.20447512594897
 20
8.71354960180597
 10
55.53280475064569
 20
8.797504160781058
 10
55.85831085901652
 20
8.880006576465743
 10
56.1812424491022
 20
8.960878318458505
 10
56.501403480537356
 20
9.040635397963774
 10
56.818705077622646
 20
9.119154586135533
 10
57.13325383394889
 20
9.196453424131464
 10
57.44497873459447
 20
9.272302143097154
 10
57.75375518230471
 20
9.346790594203405
 10
58.05977861064811
 20
9.420059760533908
 10
58.36288916472535
 20
9.491756431308236
 10
58.66305106939872
 20
9.562094006163221
 10
58.960282131863586
 20
9.630966264710489
 10
59.254528680483
 20
9.698693359675291
 10
59.545826383229965
 20
9.76506253066084
 10
59.834068485766785
 20
9.830057195369553
 10
60.11927279528881
 20
9.893571133413053
 10
60.40152808033063
 20
9.955728212877387
 10
60.6806030428822
 20
10.01660138301575
 10
60.956497593639625
 20
10.076191176528182
 10
61.22933624055369
 20
10.134408274943924
 10
61.49913686226283
 20
10.191146031714556
 10
61.76563281427797
 20
10.246688238769911
 10
62.02892910058062
 20
10.301061919328392
 10
62.28908103599928
 20
10.353937118983978
 10
62.54596336243051
 20
10.405407630887778
 10
62.79954032259745
 20
10.455686748136635
 10
63.04995426736769
 20
10.50457871879137
 10
63.29700960242582
 20
10.551943518628388
 10
63.54077723552877
 20
10.598011555742143
 10
63.781239252316446
 20
10.642889689761056
 10
64.01828891631193
 20
10.686561231847538
 10
64.25196189548835
 20
10.72881342160481
 10
64.482240239764
 20
10.769753331741308
 10
64.70908819186197
 20
10.809594255353858
 10
64.93252354111691
 20
10.8482300785941
 10
65.15247529046796
 20
10.885430926067608
 10
65.36894335061125
 20
10.921197330474431
 10
65.58196294346986
 20
10.955972566845816
 10
65.79144515762297
 20
10.989633619415777
 10
65.99738997520979
 20
11.02218059472432
 10
66.19981516770416
 20
11.05350748546309
 10
66.39861401648986
 20
11.083597496254471
 10
66.59389313301841
 20
11.112468061716129
 10
66.78551009497905
 20
11.140315359947257
 10
66.97350053462327
 20
11.166926843631087
 10
67.1578286946741
 20
11.19251580586444
 10
67.33863694386001
 20
11.216886388168152
 10
67.51567612339325
 20
11.240218079803816
 10
67.68903501966926
 20
11.262634642317485
 10
67.85862475698869
 20
11.284012846863149
 10
68.02456984330232
 20
11.30426337497004
 10
68.1867276776916
 20
11.323583470137441
 10
68.34524053958111
 20
11.341777806586231
 10
68.49984253463441
 20
11.359125701565876
 10
68.65076346055619
 20
11.375563155183887
 10
68.79779041593744
 20
11.3910533804848
 10
68.94103004795124
 20
11.405613599006266
 10
69.08048232087604
 20
11.419244023828286
 10
69.21612932035177
 20
11.432051514579294
 10
69.3478822064008
 20
11.443912629333283
 10
69.47570518602453
 20
11.45504087426708
 10
69.59972282075616
 20
11.465346611289908
 10
69.71981047761942
 20
11.474919904652578
 10
69.83598599953126
 20
11.483654320886705
 10
69.94823150785318
 20
11.491656506540695
 10
70.05656480978054
 20
11.49882024122617
 10
70.1609680266749
 20
11.505252171491541
 10
70.26140541912005
 20
11.511165483893633
 10
70.35780595433371
 20
11.516330516118044
 10
70.45036517304895
 20
11.520887612008403
 10
70.53874505863956
 20
11.524892925440302
 10
70.62328357414938
 20
11.528290622158174
 10
70.70376728234613
 20
11.531047111406812
 10
70.78016044381361
 20
11.533375579743035
 10
70.85258760222413
 20
11.535186495616056
 10
70.92094202110073
 20
11.536463170188275
 10
70.98518797888808
 20
11.537418683476513
 10
71.04546786217534
 20
11.537857070461584
 10
71.10163924865176
 20
11.537974509242677
 10
71.15371996337348
 20
11.537664672891415
 10
71.20167428478513
 20
11.537140641424603
 10
71.24552007366435
 20
11.536295874833836
 10
71.28534613426733
 20
11.535254028125143
 10
71.32093904722251
 20
11.533981404003313
 10
71.35238767036837
 20
11.532601337854363
 10
71.3797986865995
 20
11.531130838135894
 10
71.40295867654433
 20
11.529536207552704
 10
71.42193860154212
 20
11.528047534579214
 10
71.43686307670829
 20
11.526574861504614
 10
71.4474828896728
 20
11.525297997210528
 10
71.45388695185642
 20
11.524339957462935
 10
71.45603948812148
 20
11.523914141898674
 10
71.34440962756338
 20
12.189789194425261
  0
ENDSEC
  0
SECTION
  2
OBJECTS
  0
DICTIONARY
  5
A
330
0
100
AcDbDictionary
280
0
281
1
  3
ACAD_COLOR
350
B
  3
ACAD_GROUP
350
C
  3
ACAD_LAYOUT
350
D
  3
ACAD_MATERIAL
350
E
  3
ACAD_MLEADERSTYLE
350
F
  3
ACAD_MLINESTYLE
350
10
  3
ACAD_PLOTSETTINGS
350
11
  3
ACAD_PLOTSTYLENAME
350
12
  3
ACAD_SCALELIST
350
14
  3
ACAD_TABLESTYLE
350
15
  3
ACAD_VISUALSTYLE
350
16
  3
EZDXF_META
350
2D
  0
DICTIONARY
  5
B
330
A
100
AcDbDictionary
280
0
281
1
  0
DICTIONARY
  5
C
330
A
100
AcDbDictionary
280
0
281
1
  0
DICTIONARY
  5
D
330
A
100
AcDbDictionary
280
0
281
1
  3
Model
350
1A
  3
Layout1
350
1E
  0
DICTIONARY
  5
E
330
A
100
AcDbDictionary
280
0
281
1
  3
ByBlock
350
1F
  3
ByLayer
350
20
  3
Global
350
21
  0
DICTIONARY
  5
F
330
A
100
AcDbDictionary
280
0
281
1
  3
Standard
350
2C
  0
DICTIONARY
  5
10
330
A
100
AcDbDictionary
280
0
281
1
  3
Standard
350
22
  0
DICTIONARY
  5
11
330
A
100
AcDbDictionary
280
0
281
1
  0
ACDBDICTIONARYWDFLT
  5
12
330
A
100
AcDbDictionary
280
0
281
1
  3
Normal
350
13
100
AcDbDictionaryWithDefault
340
13
  0
ACDBPLACEHOLDER
  5
13
330
12
  0
DICTIONARY
  5
14
330
A
100
AcDbDictionary
280
0
281
1
  0
DICTIONARY
  5
15
330
A
100
AcDbDictionary
280
0
281
1
  0
DICTIONARY
  5
16
330
A
100
AcDbDictionary
280
0
281
1
  0
LAYOUT
  5
1A
330
D
100
AcDbPlotSettings
  1

  4
A3
  6

 40
7.5
 41
20.0
 42
7.5
 43
20.0
 44
420.0
 45
297.0
 46
0.0
 47
0.0
 48
0.0
 49
0.0
140
0.0
141
0.0
142
1.0
143
1.0
 70
1024
 72
1
 73
0
 74
5
  7

 75
16
 76
0
 77
2
 78
300
147
1.0
148
0.0
149
0.0
100
AcDbLayout
  1
Model
 70
1
 71
0
 10
0.0
 20
0.0
 11
420.0
 21
297.0
 12
0.0
 22
0.0
 32
0.0
 14
1e+20
 24
1e+20
 34
1e+20
 15
-1e+20
 25
-1e+20
 35
-1e+20
146
0.0
 13
0.0
 23
0.0
 33
0.0
 16
1.0
 26
0.0
 36
0.0
 17
0.0
 27
1.0
 37
0.0
 76
1
330
17
  0
LAYOUT
  5
1E
330
D
100
AcDbPlotSettings
  1

  4
A3
  6

 40
7.5
 41
20.0
 42
7.5
 43
20.0
 44
420.0
 45
297.0
 46
0.0
 47
0.0
 48
0.0
 49
0.0
140
0.0
141
0.0
142
1.0
143
1.0
 70
0
 72
1
 73
0
 74
5
  7

 75
16
 76
0
 77
2
 78
300
147
1.0
148
0.0
149
0.0
100
AcDbLayout
  1
Layout1
 70
1
 71
1
 10
0.0
 20
0.0
 11
420.0
 21
297.0
 12
0.0
 22
0.0
 32
0.0
 14
1e+20
 24
1e+20
 34
1e+20
 15
-1e+20
 25
-1e+20
 35
-1e+20
146
0.0
 13
0.0
 23
0.0
 33
0.0
 16
1.0
 26
0.0
 36
0.0
 17
0.0
 27
1.0
 37
0.0
 76
1
330
1B
  0
MATERIAL
  5
1F
102
{ACAD_REACTORS
330
E
102
}
330
E
100
AcDbMaterial
  1
ByBlock
  2

 70
0
 40
1.0
 71
1
 41
1.0
 91
-1023410177
 42
1.0
 72
1
  3

 73
1
 74
1
 75
1
 44
0.5
 73
0
 45
1.0
 46
1.0
 77
1
  4

 78
1
 79
1
170
1
 48
1.0
171
1
  6

172
1
173
1
174
1
140
1.0
141
1.0
175
1
  7

176
1
177
1
178
1
143
1.0
179
1
  8

270
1
271
1
272
1
145
1.0
146
1.0
273
1
  9

274
1
275
1
276
1
 42
1.0
 72
1
  3

 73
1
 74
1
 75
1
 94
63
  0
MATERIAL
  5
20
102
{ACAD_REACTORS
330
E
102
}
330
E
100
AcDbMaterial
  1
ByLayer
  2

 70
0
 40
1.0
 71
1
 41
1.0
 91
-1023410177
 42
1.0
 72
1
  3

 73
1
 74
1
 75
1
 44
0.5
 73
0
 45
1.0
 46
1.0
 77
1
  4

 78
1
 79
1
170
1
 48
1.0
171
1
  6

172
1
173
1
174
1
140
1.0
141
1.0
175
1
  7

176
1
177
1
178
1
143
1.0
179
1
  8

270
1
271
1
272
1
145
1.0
146
1.0
273
1
  9

274
1
275
1
276
1
 42
1.0
 72
1
  3

 73
1
 74
1
 75
1
 94
63
  0
MATERIAL
  5
21
102
{ACAD_REACTORS
330
E
102
}
330
E
100
AcDbMaterial
  1
Global
  2

 70
0
 40
1.0
 71
1
 41
1.0
 91
-1023410177
 42
1.0
 72
1
  3

 73
1
 74
1
 75
1
 44
0.5
 73
0
 45
1.0
 46
1.0
 77
1
  4

 78
1
 79
1
170
1
 48
1.0
171
1
  6

172
1
173
1
174
1
140
1.0
141
1.0
175
1
  7

176
1
177
1
178
1
143
1.0
179
1
  8

270
1
271
1
272
1
145
1.0
146
1.0
273
1
  9

274
1
275
1
276
1
 42
1.0
 72
1
  3

 73
1
 74
1
 75
1
 94
63
  0
MLINESTYLE
  5
22
102
{ACAD_REACTORS
330
10
102
}
330
10
100
AcDbMlineStyle
  2
Standard
 70
0
  3

 62
256
 51
90.0
 52
90.0
 71
2
 49
0.5
 62
256
  6
BYLAYER
 49
-0.5
 62
256
  6
BYLAYER
  0
MLEADERSTYLE
  5
2C
102
{ACAD_REACTORS
330
F
102
}
330
F
100
AcDbMLeaderStyle
179
2
170
2
171
1
172
0
 90
2
 40
0.0
 41
0.0
173
1
 91
-1056964608
 92
-2
290
1
 42
2.0
291
1
 43
8.0
  3
Standard
 44
4.0
300

342
29
174
1
175
1
176
0
178
1
 93
-1056964608
 45
4.0
292
0
297
0
 46
4.0
 94
-1056964608
 47
1.0
 49
1.0
140
1.0
294
1
141
0.0
177
0
142
1.0
295
0
296
0
143
3.75
271
0
272
9
273
9
  0
DICTIONARY
  5
2D
330
A
100
AcDbDictionary
280
1
281
1
  3
CREATED_BY_EZDXF
350
2E
  3
WRITTEN_BY_EZDXF
350
32
  0
DICTIONARYVAR
  5
2E
330
2D
100
DictionaryVariables
280
0
  1
1.3.5 @ 2025-08-21T02:42:00.561398+00:00
  0
DICTIONARYVAR
  5
32
330
2D
100
DictionaryVariables
280
0
  1
1.3.5 @ 2025-08-21T02:42:00.569345+00:00
  0
ENDSEC
  0
EOF
