  0
SECTION
  2
HEADER
  9
$ACADVER
  1
AC1032
  9
$ACADMAINTVER
 90
4
  9
$DWGCODEPAGE
  3
ANSI_1252
  9
$LASTSAVEDBY
  1
ezdxf
  9
$REQUIREDVERSIONS
160
0
  9
$INSBASE
 10
0.0
 20
0.0
 30
0.0
  9
$EXTMIN
 10
1e+20
 20
1e+20
 30
1e+20
  9
$EXTMAX
 10
-1e+20
 20
-1e+20
 30
-1e+20
  9
$LIMMIN
 10
0.0
 20
0.0
  9
$LIMMAX
 10
420.0
 20
297.0
  9
$ORTHOMODE
 70
0
  9
$REGENMODE
 70
1
  9
$FILLMODE
 70
1
  9
$QTEXTMODE
 70
0
  9
$MIRRTEXT
 70
1
  9
$LTSCALE
 40
1.0
  9
$ATTMODE
 70
1
  9
$TEXTSIZE
 40
2.5
  9
$TRACEWID
 40
1.0
  9
$TEXTSTYLE
  7
Standard
  9
$CLAYER
  8
0
  9
$CELTYPE
  6
ByLayer
  9
$CECOLOR
 62
256
  9
$CELTSCALE
 40
1.0
  9
$DISPSILH
 70
0
  9
$DIMSCALE
 40
1.0
  9
$DIMASZ
 40
2.5
  9
$DIMEXO
 40
0.625
  9
$DIMDLI
 40
3.75
  9
$DIMRND
 40
0.0
  9
$DIMDLE
 40
0.0
  9
$DIMEXE
 40
1.25
  9
$DIMTP
 40
0.0
  9
$DIMTM
 40
0.0
  9
$DIMTXT
 40
2.5
  9
$DIMCEN
 40
2.5
  9
$DIMTSZ
 40
0.0
  9
$DIMTOL
 70
0
  9
$DIMLIM
 70
0
  9
$DIMTIH
 70
0
  9
$DIMTOH
 70
0
  9
$DIMSE1
 70
0
  9
$DIMSE2
 70
0
  9
$DIMTAD
 70
1
  9
$DIMZIN
 70
8
  9
$DIMBLK
  1

  9
$DIMASO
 70
1
  9
$DIMSHO
 70
1
  9
$DIMPOST
  1

  9
$DIMAPOST
  1

  9
$DIMALT
 70
0
  9
$DIMALTD
 70
3
  9
$DIMALTF
 40
0.03937007874
  9
$DIMLFAC
 40
1.0
  9
$DIMTOFL
 70
1
  9
$DIMTVP
 40
0.0
  9
$DIMTIX
 70
0
  9
$DIMSOXD
 70
0
  9
$DIMSAH
 70
0
  9
$DIMBLK1
  1

  9
$DIMBLK2
  1

  9
$DIMSTYLE
  2
ISO-25
  9
$DIMCLRD
 70
0
  9
$DIMCLRE
 70
0
  9
$DIMCLRT
 70
0
  9
$DIMTFAC
 40
1.0
  9
$DIMGAP
 40
0.625
  9
$DIMJUST
 70
0
  9
$DIMSD1
 70
0
  9
$DIMSD2
 70
0
  9
$DIMTOLJ
 70
0
  9
$DIMTZIN
 70
8
  9
$DIMALTZ
 70
0
  9
$DIMALTTZ
 70
0
  9
$DIMUPT
 70
0
  9
$DIMDEC
 70
2
  9
$DIMTDEC
 70
2
  9
$DIMALTU
 70
2
  9
$DIMALTTD
 70
3
  9
$DIMTXSTY
  7
Standard
  9
$DIMAUNIT
 70
0
  9
$DIMADEC
 70
0
  9
$DIMALTRND
 40
0.0
  9
$DIMAZIN
 70
0
  9
$DIMDSEP
 70
44
  9
$DIMATFIT
 70
3
  9
$DIMFRAC
 70
0
  9
$DIMLDRBLK
  1

  9
$DIMLUNIT
 70
2
  9
$DIMLWD
 70
-2
  9
$DIMLWE
 70
-2
  9
$DIMTMOVE
 70
0
  9
$DIMFXL
 40
1.0
  9
$DIMFXLON
 70
0
  9
$DIMJOGANG
 40
0.785398163397
  9
$DIMTFILL
 70
0
  9
$DIMTFILLCLR
 70
0
  9
$DIMARCSYM
 70
0
  9
$DIMLTYPE
  6

  9
$DIMLTEX1
  6

  9
$DIMLTEX2
  6

  9
$DIMTXTDIRECTION
 70
0
  9
$LUNITS
 70
2
  9
$LUPREC
 70
4
  9
$SKETCHINC
 40
1.0
  9
$FILLETRAD
 40
10.0
  9
$AUNITS
 70
0
  9
$AUPREC
 70
2
  9
$MENU
  1
.
  9
$ELEVATION
 40
0.0
  9
$PELEVATION
 40
0.0
  9
$THICKNESS
 40
0.0
  9
$LIMCHECK
 70
0
  9
$CHAMFERA
 40
0.0
  9
$CHAMFERB
 40
0.0
  9
$CHAMFERC
 40
0.0
  9
$CHAMFERD
 40
0.0
  9
$SKPOLY
 70
0
  9
$TDCREATE
 40
2460908.1237962963
  9
$TDUCREATE
 40
2458532.153996898
  9
$TDUPDATE
 40
2460908.1237962963
  9
$TDUUPDATE
 40
2458532.1544311
  9
$TDINDWG
 40
0.0
  9
$TDUSRTIMER
 40
0.0
  9
$USRTIMER
 70
1
  9
$ANGBASE
 50
0.0
  9
$ANGDIR
 70
0
  9
$PDMODE
 70
0
  9
$PDSIZE
 40
0.0
  9
$PLINEWID
 40
0.0
  9
$SPLFRAME
 70
0
  9
$SPLINETYPE
 70
6
  9
$SPLINESEGS
 70
8
  9
$HANDSEED
  5
33
  9
$SURFTAB1
 70
6
  9
$SURFTAB2
 70
6
  9
$SURFTYPE
 70
6
  9
$SURFU
 70
6
  9
$SURFV
 70
6
  9
$UCSBASE
  2

  9
$UCSNAME
  2

  9
$UCSORG
 10
0.0
 20
0.0
 30
0.0
  9
$UCSXDIR
 10
1.0
 20
0.0
 30
0.0
  9
$UCSYDIR
 10
0.0
 20
1.0
 30
0.0
  9
$UCSORTHOREF
  2

  9
$UCSORTHOVIEW
 70
0
  9
$UCSORGTOP
 10
0.0
 20
0.0
 30
0.0
  9
$UCSORGBOTTOM
 10
0.0
 20
0.0
 30
0.0
  9
$UCSORGLEFT
 10
0.0
 20
0.0
 30
0.0
  9
$UCSORGRIGHT
 10
0.0
 20
0.0
 30
0.0
  9
$UCSORGFRONT
 10
0.0
 20
0.0
 30
0.0
  9
$UCSORGBACK
 10
0.0
 20
0.0
 30
0.0
  9
$PUCSBASE
  2

  9
$PUCSNAME
  2

  9
$PUCSORG
 10
0.0
 20
0.0
 30
0.0
  9
$PUCSXDIR
 10
1.0
 20
0.0
 30
0.0
  9
$PUCSYDIR
 10
0.0
 20
1.0
 30
0.0
  9
$PUCSORTHOREF
  2

  9
$PUCSORTHOVIEW
 70
0
  9
$PUCSORGTOP
 10
0.0
 20
0.0
 30
0.0
  9
$PUCSORGBOTTOM
 10
0.0
 20
0.0
 30
0.0
  9
$PUCSORGLEFT
 10
0.0
 20
0.0
 30
0.0
  9
$PUCSORGRIGHT
 10
0.0
 20
0.0
 30
0.0
  9
$PUCSORGFRONT
 10
0.0
 20
0.0
 30
0.0
  9
$PUCSORGBACK
 10
0.0
 20
0.0
 30
0.0
  9
$USERI1
 70
0
  9
$USERI2
 70
0
  9
$USERI3
 70
0
  9
$USERI4
 70
0
  9
$USERI5
 70
0
  9
$USERR1
 40
0.0
  9
$USERR2
 40
0.0
  9
$USERR3
 40
0.0
  9
$USERR4
 40
0.0
  9
$USERR5
 40
0.0
  9
$WORLDVIEW
 70
1
  9
$SHADEDGE
 70
3
  9
$SHADEDIF
 70
70
  9
$TILEMODE
 70
1
  9
$MAXACTVP
 70
64
  9
$PINSBASE
 10
0.0
 20
0.0
 30
0.0
  9
$PLIMCHECK
 70
0
  9
$PEXTMIN
 10
1e+20
 20
1e+20
 30
1e+20
  9
$PEXTMAX
 10
-1e+20
 20
-1e+20
 30
-1e+20
  9
$PLIMMIN
 10
0.0
 20
0.0
  9
$PLIMMAX
 10
420.0
 20
297.0
  9
$UNITMODE
 70
0
  9
$VISRETAIN
 70
1
  9
$PLINEGEN
 70
0
  9
$PSLTSCALE
 70
1
  9
$TREEDEPTH
 70
3020
  9
$CMLSTYLE
  2
Standard
  9
$CMLJUST
 70
0
  9
$CMLSCALE
 40
20.0
  9
$PROXYGRAPHICS
 70
1
  9
$MEASUREMENT
 70
1
  9
$CELWEIGHT
370
-1
  9
$ENDCAPS
280
0
  9
$JOINSTYLE
280
0
  9
$LWDISPLAY
290
0
  9
$INSUNITS
 70
6
  9
$HYPERLINKBASE
  1

  9
$STYLESHEET
  1

  9
$XEDIT
290
1
  9
$CEPSNTYPE
380
0
  9
$PSTYLEMODE
290
1
  9
$FINGERPRINTGUID
  2
{E2B9F713-A3E4-4192-91BB-A9CE2C55AB89}
  9
$VERSIONGUID
  2
{A9F19491-6546-46C4-A3AC-36E998616767}
  9
$EXTNAMES
290
1
  9
$PSVPSCALE
 40
0.0
  9
$OLESTARTUP
290
0
  9
$SORTENTS
280
127
  9
$INDEXCTL
280
0
  9
$HIDETEXT
280
1
  9
$XCLIPFRAME
280
1
  9
$HALOGAP
280
0
  9
$OBSCOLOR
 70
257
  9
$OBSLTYPE
280
0
  9
$INTERSECTIONDISPLAY
280
0
  9
$INTERSECTIONCOLOR
 70
257
  9
$DIMASSOC
280
2
  9
$PROJECTNAME
  1

  9
$CAMERADISPLAY
290
0
  9
$LENSLENGTH
 40
50.0
  9
$CAMERAHEIGHT
 40
0.0
  9
$STEPSPERSEC
 40
24.0
  9
$STEPSIZE
 40
100.0
  9
$3DDWFPREC
 40
2.0
  9
$PSOLWIDTH
 40
0.005
  9
$PSOLHEIGHT
 40
0.08
  9
$LOFTANG1
 40
1.570796326795
  9
$LOFTANG2
 40
1.570796326795
  9
$LOFTMAG1
 40
0.0
  9
$LOFTMAG2
 40
0.0
  9
$LOFTPARAM
 70
7
  9
$LOFTNORMALS
280
1
  9
$LATITUDE
 40
37.795
  9
$LONGITUDE
 40
-122.394
  9
$NORTHDIRECTION
 40
0.0
  9
$TIMEZONE
 70
-8000
  9
$LIGHTGLYPHDISPLAY
280
1
  9
$TILEMODELIGHTSYNCH
280
1
  9
$CMATERIAL
347
20
  9
$SOLIDHIST
280
0
  9
$SHOWHIST
280
1
  9
$DWFFRAME
280
2
  9
$DGNFRAME
280
2
  9
$REALWORLDSCALE
290
1
  9
$INTERFERECOLOR
 62
256
  9
$CSHADOW
280
0
  9
$SHADOWPLANELOCATION
 40
0.0
  0
ENDSEC
  0
SECTION
  2
CLASSES
  0
CLASS
  1
ACDBDICTIONARYWDFLT
  2
AcDbDictionaryWithDefault
  3
ObjectDBX Classes
 90
0
 91
0
280
0
281
0
  0
CLASS
  1
SUN
  2
AcDbSun
  3
SCENEOE
 90
1153
 91
0
280
0
281
0
  0
CLASS
  1
VISUALSTYLE
  2
AcDbVisualStyle
  3
ObjectDBX Classes
 90
4095
 91
0
280
0
281
0
  0
CLASS
  1
MATERIAL
  2
AcDbMaterial
  3
ObjectDBX Classes
 90
1153
 91
0
280
0
281
0
  0
CLASS
  1
SCALE
  2
AcDbScale
  3
ObjectDBX Classes
 90
1153
 91
0
280
0
281
0
  0
CLASS
  1
TABLESTYLE
  2
AcDbTableStyle
  3
ObjectDBX Classes
 90
4095
 91
0
280
0
281
0
  0
CLASS
  1
MLEADERSTYLE
  2
AcDbMLeaderStyle
  3
ACDB_MLEADERSTYLE_CLASS
 90
4095
 91
0
280
0
281
0
  0
CLASS
  1
DICTIONARYVAR
  2
AcDbDictionaryVar
  3
ObjectDBX Classes
 90
0
 91
0
280
0
281
0
  0
CLASS
  1
CELLSTYLEMAP
  2
AcDbCellStyleMap
  3
ObjectDBX Classes
 90
1152
 91
0
280
0
281
0
  0
CLASS
  1
MENTALRAYRENDERSETTINGS
  2
AcDbMentalRayRenderSettings
  3
SCENEOE
 90
1024
 91
0
280
0
281
0
  0
CLASS
  1
ACDBDETAILVIEWSTYLE
  2
AcDbDetailViewStyle
  3
ObjectDBX Classes
 90
1025
 91
0
280
0
281
0
  0
CLASS
  1
ACDBSECTIONVIEWSTYLE
  2
AcDbSectionViewStyle
  3
ObjectDBX Classes
 90
1025
 91
0
280
0
281
0
  0
CLASS
  1
RASTERVARIABLES
  2
AcDbRasterVariables
  3
ISM
 90
0
 91
0
280
0
281
0
  0
CLASS
  1
LAYOUT
  2
AcDbLayout
  3
ObjectDBX Classes
 90
0
 91
0
280
0
281
0
  0
CLASS
  1
ACDBPLACEHOLDER
  2
AcDbPlaceHolder
  3
ObjectDBX Classes
 90
0
 91
0
280
0
281
0
  0
ENDSEC
  0
SECTION
  2
TABLES
  0
TABLE
  2
VPORT
  5
8
330
0
100
AcDbSymbolTable
 70
1
  0
VPORT
  5
23
330
8
100
AcDbSymbolTableRecord
100
AcDbViewportTableRecord
  2
*Active
 70
0
 10
0.0
 20
0.0
 11
1.0
 21
1.0
 12
0.0
 22
0.0
 13
0.0
 23
0.0
 14
0.5
 24
0.5
 15
0.5
 25
0.5
 16
0.0
 26
0.0
 36
1.0
 17
0.0
 27
0.0
 37
0.0
 40
1000.0
 41
1.34
 42
50.0
 43
0.0
 44
0.0
 50
0.0
 51
0.0
 71
0
 72
1000
 73
1
 74
3
 75
0
 76
0
 77
0
 78
0
281
0
 65
0
146
0.0
  0
ENDTAB
  0
TABLE
  2
LTYPE
  5
2
330
0
100
AcDbSymbolTable
 70
3
  0
LTYPE
  5
24
330
2
100
AcDbSymbolTableRecord
100
AcDbLinetypeTableRecord
  2
ByBlock
 70
0
  3

 72
65
 73
0
 40
0.0
  0
LTYPE
  5
25
330
2
100
AcDbSymbolTableRecord
100
AcDbLinetypeTableRecord
  2
ByLayer
 70
0
  3

 72
65
 73
0
 40
0.0
  0
LTYPE
  5
26
330
2
100
AcDbSymbolTableRecord
100
AcDbLinetypeTableRecord
  2
Continuous
 70
0
  3

 72
65
 73
0
 40
0.0
  0
ENDTAB
  0
TABLE
  2
LAYER
  5
1
330
0
100
AcDbSymbolTable
 70
2
  0
LAYER
  5
27
330
1
100
AcDbSymbolTableRecord
100
AcDbLayerTableRecord
  2
0
 70
0
 62
7
  6
Continuous
370
-3
390
13
347
21
  0
LAYER
  5
28
330
1
100
AcDbSymbolTableRecord
100
AcDbLayerTableRecord
  2
Defpoints
 70
0
 62
7
  6
Continuous
290
0
370
-3
390
13
347
21
  0
ENDTAB
  0
TABLE
  2
STYLE
  5
5
330
0
100
AcDbSymbolTable
 70
1
  0
STYLE
  5
29
330
5
100
AcDbSymbolTableRecord
100
AcDbTextStyleTableRecord
  2
Standard
 70
0
 40
0.0
 41
1.0
 50
0.0
 71
0
 42
2.5
  3
txt
  4

  0
ENDTAB
  0
TABLE
  2
VIEW
  5
7
330
0
100
AcDbSymbolTable
 70
0
  0
ENDTAB
  0
TABLE
  2
UCS
  5
6
330
0
100
AcDbSymbolTable
 70
0
  0
ENDTAB
  0
TABLE
  2
APPID
  5
3
330
0
100
AcDbSymbolTable
 70
3
  0
APPID
  5
2A
330
3
100
AcDbSymbolTableRecord
100
AcDbRegAppTableRecord
  2
ACAD
 70
0
  0
APPID
  5
30
330
3
100
AcDbSymbolTableRecord
100
AcDbRegAppTableRecord
  2
HATCHBACKGROUNDCOLOR
 70
0
  0
APPID
  5
31
330
3
100
AcDbSymbolTableRecord
100
AcDbRegAppTableRecord
  2
EZDXF
 70
0
  0
ENDTAB
  0
TABLE
  2
DIMSTYLE
  5
4
330
0
100
AcDbSymbolTable
 70
1
100
AcDbDimStyleTable
  0
DIMSTYLE
105
2B
330
4
100
AcDbSymbolTableRecord
100
AcDbDimStyleTableRecord
  2
Standard
 70
0
 40
1.0
 41
2.5
 42
0.625
 43
3.75
 44
1.25
 45
0.0
 46
0.0
 47
0.0
 48
0.0
 49
2.5
140
2.5
141
2.5
142
0.0
143
0.03937007874
144
1.0
145
0.0
146
1.0
147
0.625
148
0.0
 69
0
 70
0
 71
0
 72
0
 73
0
 74
0
 75
0
 76
0
 77
1
 78
8
 79
3
170
0
171
3
172
1
173
0
174
0
175
0
176
0
177
0
178
0
179
2
271
2
272
2
273
2
274
3
275
0
276
0
277
2
278
44
279
0
280
0
281
0
282
0
283
0
284
8
285
0
286
0
288
0
289
3
290
0
371
-2
372
-2
  0
ENDTAB
  0
TABLE
  2
BLOCK_RECORD
  5
9
330
0
100
AcDbSymbolTable
 70
2
  0
BLOCK_RECORD
  5
17
330
9
100
AcDbSymbolTableRecord
100
AcDbBlockTableRecord
  2
*Model_Space
340
1A
 70
0
280
1
281
0
  0
BLOCK_RECORD
  5
1B
330
9
100
AcDbSymbolTableRecord
100
AcDbBlockTableRecord
  2
*Paper_Space
340
1E
 70
0
280
1
281
0
  0
ENDTAB
  0
ENDSEC
  0
SECTION
  2
BLOCKS
  0
BLOCK
  5
18
330
17
100
AcDbEntity
  8
0
100
AcDbBlockBegin
  2
*Model_Space
 70
0
 10
0.0
 20
0.0
 30
0.0
  3
*Model_Space
  1

  0
ENDBLK
  5
19
330
17
100
AcDbEntity
  8
0
100
AcDbBlockEnd
  0
BLOCK
  5
1C
330
1B
100
AcDbEntity
  8
0
100
AcDbBlockBegin
  2
*Paper_Space
 70
0
 10
0.0
 20
0.0
 30
0.0
  3
*Paper_Space
  1

  0
ENDBLK
  5
1D
330
1B
100
AcDbEntity
  8
0
100
AcDbBlockEnd
  0
ENDSEC
  0
SECTION
  2
ENTITIES
  0
LWPOLYLINE
  5
2F
330
17
100
AcDbEntity
  8
0
100
AcDbPolyline
 90
721
 70
1
 10
66.75023932301626
 20
45.51578103893038
 10
66.74788134388746
 20
45.51517691999121
 10
66.74094278575733
 20
45.51316468641339
 10
66.72969393378423
 20
45.50934528354594
 10
66.71390058450044
 20
45.50384946856504
 10
66.69396372570138
 20
45.496515266144414
 10
66.66971670830341
 20
45.48737369475708
 10
66.64112785674705
 20
45.476256495147
 10
66.60839556329738
 20
45.46330080825864
 10
66.57148815239503
 20
45.44833837483594
 10
66.53017121770615
 20
45.431500251570675
 10
66.48477839550813
 20
45.412723902324025
 10
66.43521032061336
 20
45.39194100622012
 10
66.38139937101575
 20
45.36925140180059
 10
66.32348079072747
 20
45.34445541198217
 10
66.26131920049238
 20
45.31775291352522
 10
66.19508145226008
 20
45.28911258844106
 10
66.12466818084303
 20
45.258466115853814
 10
66.05001176423511
 20
45.22591333430512
 10
65.97134654114811
 20
45.19132328694175
 10
65.88843797000419
 20
45.15482723013256
 10
65.80142122719364
 20
45.116225586632815
 10
65.7103593933473
 20
45.07585527430881
 10
65.6150224006406
 20
45.033410892959985
 10
65.51570773603825
 20
44.98909830376092
 10
65.41221693965306
 20
44.942780465605615
 10
65.30464903856262
 20
44.89452619856272
 10
65.19300396514492
 20
44.84433560247074
 10
65.07721402977187
 20
44.79230861570989
 10
64.9572790295774
 20
44.73844553779577
 10
64.83333414095175
 20
44.682546791483645
 10
64.7052440522607
 20
44.624812153695345
 10
64.5731753449659
 20
44.56521070579638
 10
64.43696116711767
 20
44.50377376577539
 10
64.29673649224023
 20
44.44030205590329
 10
64.1524653062649
 20
44.375063773816315
 10
64.00407978431956
 20
44.308159057571736
 10
63.85178265717856
 20
44.23928859122173
 10
63.695339248020055
 20
44.16858383081222
 10
63.535015571115295
 20
44.09608207874604
 10
63.370545341705025
 20
44.02174643197454
 10
63.20212688443239
 20
43.945714131280724
 10
63.029660766487765
 20
43.867916955627265
 10
62.85324608257073
 20
43.78842362524421
 10
62.67285102187782
 20
43.707066080552565
 10
62.48857467910859
 20
43.6239130417824
 10
62.3001823774412
 20
43.53909596497964
 10
62.10794006352494
 20
43.45265225238569
 10
61.9117483045502
 20
43.364513682963185
 10
61.71160696527297
 20
43.27468045638922
 10
61.50751570758321
 20
43.183153071856495
 10
61.299506139418405
 20
43.09009988845964
 10
61.08754631473104
 20
42.99535304629672
 10
60.871667773836585
 20
42.899081004300925
 10
60.65193780063113
 20
42.80118442312332
 10
60.42849157150489
 20
42.70146372551917
 10
60.20129280190119
 20
42.600187508478875
 10
59.97010688262023
 20
42.49748712820985
 10
59.734933475551955
 20
42.39336308390477
 10
59.4960746090363
 20
42.28758448033027
 10
59.2534623905791
 20
42.18025155538213
 10
59.00709668493638
 20
42.07136450873746
 10
58.756774287979766
 20
41.961223355213875
 10
58.50283310687379
 20
41.8493292016188
 10
58.24523699230577
 20
41.73595044526558
 10
57.98391811940363
 20
41.621187224211496
 10
57.71870936572964
 20
41.505071255799336
 10
57.44987661031102
 20
41.38764004210907
 10
57.17738797472232
 20
41.26872562340026
 10
56.901243323719505
 20
41.14832819934996
 10
56.62140637274592
 20
41.02671636694863
 10
56.33814733933797
 20
40.90349117138384
 10
56.05123161429586
 20
40.778783968862996
 10
55.760789765012596
 20
40.652832038387864
 10
55.466821588622174
 20
40.525635679474064
 10
55.16936289632722
 20
40.39692699400097
 10
54.86834572801159
 20
40.26680631970292
 10
54.56396840831841
 20
40.135410897362966
 10
54.2559961928039
 20
40.00287228286557
 10
53.944631744620345
 20
39.868891260101435
 10
53.6299740908453
 20
39.73353664913918
 10
53.31202302861276
 20
39.596808749494414
 10
52.9906429758005
 20
39.45890773744315
 10
52.66583372954245
 20
39.319833912500975
 10
52.33766270897874
 20
39.17948773564191
 10
52.00639586075864
 20
39.037906609107345
 10
51.67176669725679
 20
38.8950539293642
 10
51.3338743131728
 20
38.750998416642545
 10
50.99302066922456
 20
38.605509275547554
 10
50.64903850773033
 20
38.45861842309909
 10
50.30182405737139
 20
38.31069409515218
 10
49.95147641284726
 20
38.16180501193685
 10
49.597931884929
 20
38.01161515413368
 10
49.24159179952206
 20
37.859962047223696
 10
48.88218539811401
 20
37.70724544472763
 10
48.519780099844915
 20
37.553365807619464
 10
48.15430801222067
 20
37.39842337379501
 10
47.78600340633105
 20
37.2422872862396
 10
47.41486614693202
 20
37.08495774463031
 10
47.04079659834798
 20
36.926366827445406
 10
46.66392553083798
 20
36.766751514171034
 10
46.28415344397041
 20
36.60604368360837
 10
45.90171467645708
 20
36.444112378904244
 10
45.516608957809915
 20
36.28095799941276
 10
45.12893545035054
 20
36.11664916552548
 10
44.73852689639721
 20
35.95121779426232
 10
44.34534721425927
 20
35.78493218309805
 10
43.94949956665745
 20
35.61742499472458
 10
43.5512143595264
 20
35.44900113014979
 10
43.15056308002737
 20
35.2791249928095
 10
42.74747776804416
 20
35.10789692043802
 10
42.34195415268967
 20
34.93575327008918
 10
41.93392434146977
 20
34.76279427965879
 10
41.523392267161555
 20
34.588584091285746
 10
41.11089049928363
 20
34.41319651106746
 10
40.69618829379127
 20
34.236327137188745
 10
40.279281244553324
 20
34.058412526380486
 10
39.86000216151008
 20
33.879484495824066
 10
39.438617261798846
 20
33.69958004840672
 10
39.01522984338428
 20
33.518331647143256
 10
38.58980382457578
 20
33.336007589508455
 10
38.16220369087309
 20
33.15280795193979
 10
37.73276741706276
 20
32.96823374140615
 10
37.30156242228486
 20
32.782185418881504
 10
36.86844919164002
 20
32.59529901850292
 10
36.43329634627118
 20
32.407338459331164
 10
35.99623485930335
 20
32.218540421336726
 10
35.55767032752921
 20
32.02830607294687
 10
35.11753492607661
 20
31.836735552218844
 10
34.67569327568934
 20
31.644028735913036
 10
34.23194217223902
 20
31.450485638847038
 10
33.78675096936931
 20
31.25584334892903
 10
33.3401909513754
 20
31.059566569110448
 10
32.89235755066778
 20
30.862159478128284
 10
32.442713453486654
 20
30.66398532580871
 10
31.991628580666085
 20
30.46471297902255
 10
31.539373082120445
 20
30.26394358279594
 10
31.08601064707876
 20
30.062013156448334
 10
30.63127444980566
 20
29.858885595639368
 10
30.175295666292243
 20
29.654797280823942
 10
29.718042282869
 20
29.449580451938665
 10
29.259748908735745
 20
29.243103752776182
 10
28.800514909080068
 20
29.035435504212384
 10
28.340240580604345
 20
28.826507884564066
 10
27.879124856549787
 20
28.61645723606742
 10
27.416968533187166
 20
28.40514761584043
 10
26.95383516450146
 20
28.192915242879643
 10
26.489792440120784
 20
27.979660178804867
 10
26.025178199587643
 20
27.764883630262066
 10
25.559857063645822
 20
27.548785474011616
 10
25.093960411152427
 20
27.33160179099279
 10
24.627221416372105
 20
27.113296476865198
 10
24.159974256558293
 20
26.893806196781757
 10
23.692286486095107
 20
26.673031212039373
 10
23.224225659366613
 20
26.45087178393492
 10
22.75565626187259
 20
26.22752798890587
 10
22.286610307282572
 20
26.00316758701559
 10
21.817087592730505
 20
25.777790877779697
 10
21.347390484666334
 20
25.551166466772095
 10
20.87748696942057
 20
25.323126593929413
 10
20.40754410180888
 20
25.093639641747362
 10
19.937458583866597
 20
24.863073147211153
 10
19.466927846277727
 20
24.631658804262475
 10
18.996286269161754
 20
24.399332978538638
 10
18.5259751928919
 20
24.165229040184776
 10
18.05558868256551
 20
23.929946319966355
 10
17.58525845514972
 20
23.69372039962994
 10
17.115019916115106
 20
23.45628398008614
 10
16.644940755089767
 20
23.217537122954763
 10
16.175017174540635
 20
22.977915486419842
 10
15.70521729604218
 20
22.737251110740907
 10
15.235843418422343
 20
22.49531270133039
 10
14.766795906005505
 20
22.252032336666588
 10
14.298206475758798
 20
22.007645598496033
 10
13.8300073704321
 20
21.762252525037457
 10
13.362401523665753
 20
21.515553500827412
 10
12.89532117820963
 20
21.267648564084602
 10
12.428798415355253
 20
21.01870537503388
 10
11.962530733408672
 20
20.768955527778406
 10
11.497123135757775
 20
20.517935834111825
 10
11.032575622402566
 20
20.26564629403413
 10
10.568820638958941
 20
20.01218664624843
 10
10.105790428176782
 20
19.75765692897344
 10
9.643652450603847
 20
19.50202492567363
 10
9.182239380936378
 20
19.24532265320744
 10
8.721818180153747
 20
18.98758601623817
 10
8.262524159890171
 20
18.72861523784399
 10
7.804289698139545
 20
18.468510156566538
 10
7.347047240517759
 20
18.207370511108913
 10
6.8908644090309386
 20
17.945096462929488
 10
6.436075989530547
 20
17.681623778634265
 10
5.982446967084747
 20
17.417084413461883
 10
5.529941936222957
 20
17.151745666501725
 10
5.078799303678087
 20
16.88504052336241
 10
4.629083299655181
 20
16.617304204655046
 10
4.180591261001941
 20
16.348835926488935
 10
3.7334262151950512
 20
16.07926855123305
 10
3.2879230833300035
 20
15.808537645816328
 10
2.8439466890165868
 20
15.536842787483504
 10
2.401532505347379
 20
15.26391657730665
 10
1.9607449653934461
 20
14.990093936381259
 10
1.5216196098693906
 20
14.71510736594087
 10
1.0842884262303578
 20
14.43919204837787
 10
0.6483491418627763
 20
14.162511855950797
 10
0.21413667786214868
 20
13.885002355588592
 10
-0.21807847774710928
 20
13.60626419312469
 10
-0.6483637441050795
 20
13.326396907585115
 10
-1.076822216310442
 20
13.045767736439432
 10
-1.5033860018690788
 20
12.76427644179183
 10
-1.9279874111528745
 20
12.48182308526213
 10
-2.350526537998168
 20
12.198475189017906
 10
-2.7712383973368313
 20
11.914364708297773
 10
-3.1901581241514085
 20
11.62975854283696
 10
-3.606915391875817
 20
11.34432496047502
 10
-4.021374821253842
 20
11.057864084451587
 10
-4.433671453431673
 20
10.770575292334314
 10
-4.843766850649223
 20
10.482616859525118
 10
-5.251749896683144
 20
10.193904990174147
 10
-5.65758817213187
 20
9.904606845313527
 10
-6.061249460459892
 20
9.614889885490994
 10
-6.462563112184401
 20
9.324287134533892
 10
-6.8614292887637625
 20
9.03286621444833
 10
-7.258086261686886
 20
8.741193939948605
 10
-7.652498625483177
 20
8.449003011945335
 10
-8.044399081063267
 20
8.156328835909099
 10
-8.43398730551042
 20
7.8630361678276754
 10
-8.821063621741366
 20
7.569260251713286
 10
-9.20566343522668
 20
7.275268386655313
 10
-9.588054045055749
 20
6.981025167183179
 10
-9.967797502656394
 20
6.6860990225948
 10
-10.34509986298198
 20
6.391224228152227
 10
-10.720196208586364
 20
6.096532838932631
 10
-11.092780645974544
 20
5.801358201680058
 10
-11.462553659521593
 20
5.505903182412851
 10
-11.82981795378748
 20
5.210399674749802
 10
-12.194641150778315
 20
4.914947517232554
 10
-12.556888006481874
 20
4.619347032777839
 10
-12.916426465820987
 20
4.323833303939504
 10
-13.273456205878942
 20
4.028271086705333
 10
-13.627980415590775
 20
3.733095140712464
 10
-13.979863850944279
 20
3.4381057888776105
 10
-14.329038889933338
 20
3.1432031926591413
 10
-14.675573154564063
 20
2.8484871905986937
 10
-15.01950205030703
 20
2.554225081785648
 10
-15.360925415703882
 20
2.260349244213905
 10
-15.699508329659118
 20
1.9667952448124006
 10
-16.035250792172743
 20
1.6735630835811297
 10
-16.36818501978028
 20
1.3804852999723483
 10
-16.698278795946212
 20
1.0877293545338023
 10
-17.025734986688853
 20
0.7955947628904135
 10
-17.350521375472674
 20
0.5042489855899263
 10
-17.672367474273244
 20
0.21329266846578102
 10
-17.9913731216322
 20
-0.07734181048812523
 10
-18.307171179918523
 20
-0.3675514237951108
 10
-18.620164192233805
 20
-0.6571718998424744
 10
-18.930419780584156
 20
-0.9461034000885769
 10
-19.237738267886304
 20
-1.2342106805211974
 10
-19.542052032134137
 20
-1.521593579681981
 10
-19.84325804585097
 20
-1.8086192352019497
 10
-20.1415269585196
 20
-2.094820670908441
 10
-20.437061636158347
 20
-2.379898371176537
 10
-20.729424130195028
 20
-2.664283906708325
 10
-21.018714279171288
 20
-2.9480448995099087
 10
-21.304867650016064
 20
-3.2308464284858025
 10
-21.587984081271
 20
-3.5127561156421123
 10
-21.86813119494219
 20
-3.793674122437194
 10
-22.145006286469687
 20
-4.073832342489857
 10
-22.41874459986569
 20
-4.353031098716826
 10
-22.68934613513021
 20
-4.631270391118103
 10
-22.957081380287676
 20
-4.908150865527129
 10
-23.22168303624871
 20
-5.183637116473325
 10
-23.483147914078256
 20
-5.458163903593827
 10
-23.741240931222457
 20
-5.731863281965805
 10
-23.996132737164118
 20
-6.004268275416595
 10
-24.248058414457084
 20
-6.275246828869023
 10
-24.496647636535283
 20
-6.545130674483543
 10
-24.741935808869297
 20
-6.813652513170767
 10
-24.984190230548514
 20
-7.080847750401269
 10
-25.22321122448965
 20
-7.346581142162832
 10
-25.45879592467438
 20
-7.611152204080381
 10
-25.69114719712104
 20
-7.874261420528991
 10
-25.92033266383572
 20
-8.135808952967025
 10
-26.146284702812327
 20
-8.395894639936127
 10
-26.368903475509214
 20
-8.65445085943018
 10
-26.588121359920276
 20
-8.911577449990832
 10
-26.80410581659326
 20
-9.167242195082544
 10
-27.016657168444887
 20
-9.421309850693106
 10
-27.225910659487365
 20
-9.673580739739235
 10
-27.431930722791773
 20
-9.924389783316428
 10
-27.634417842733182
 20
-10.173534115406362
 10
-27.83340423584713
 20
-10.421181196556784
 10
-28.02916039015804
 20
-10.666931672601134
 10
-28.22168630566592
 20
-10.910785543539417
 10
-28.410746899816907
 20
-11.152874864448798
 10
-28.5962745506049
 20
-11.393299473870915
 10
-28.778301474565428
 20
-11.632226832353526
 10
-28.95696610464575
 20
-11.869022503176206
 10
-29.132300657381403
 20
-12.103853946886712
 10
-29.304169888760164
 20
-12.336920840568315
 10
-29.4724739602404
 20
-12.568155562214914
 10
-29.637348115834325
 20
-12.797358434743224
 10
-29.798657111529725
 20
-13.024729135236528
 10
-29.9564685693327
 20
-13.250167825153186
 10
-30.110850111249366
 20
-13.473574665951553
 10
-30.26156665472586
 20
-13.695081712708808
 10
-30.408821065780515
 20
-13.91438944980003
 10
-30.552442694930537
 20
-14.13196485339788
 10
-30.692602191658715
 20
-14.347340947329702
 10
-30.82923193395894
 20
-14.560617570137126
 10
-30.962264299825105
 20
-14.7718945603618
 10
-31.091599450715574
 20
-14.981104295997605
 10
-31.21740484717809
 20
-15.188214560509019
 10
-31.339783516689348
 20
-15.392858216265013
 10
-31.45860021523711
 20
-15.595234940348865
 10
-31.573854942821402
 20
-15.795344732760578
 10
-31.685715159989947
 20
-15.99315537696461
 10
-31.793913567653384
 20
-16.188631467490403
 10
-31.898685248365545
 20
-16.38164094926077
 10
-32.00006560759702
 20
-16.57191652318633
 10
-32.09815448388945
 20
-16.759525811273196
 10
-32.19271679468896
 20
-16.94460086859853
 10
-32.28392000054333
 20
-17.12710947862681
 10
-32.37156442436925
 20
-17.30691639734581
 10
-32.45598498726224
 20
-17.483957191684475
 10
-32.53704963414511
 20
-17.657996779088943
 10
-32.61472295954729
 20
-17.82930245864861
 10
-32.689004963468776
 20
-17.997874230363465
 10
-32.75989564590959
 20
-18.163712094233517
 10
-32.82743041234027
 20
-18.326548751169376
 10
-32.89160926276086
 20
-18.486384201171038
 10
-32.95232916969463
 20
-18.643585581869537
 10
-33.0096931606183
 20
-18.797785755633843
 10
-33.063430747507425
 20
-18.949384076630512
 10
-33.11381241838644
 20
-19.097981190692984
 10
-33.160567685230895
 20
-19.243976451987827
 10
-33.20383179205303
 20
-19.38717018343175
 10
-33.24360473885285
 20
-19.527562385024765
 10
-33.279719065082574
 20
-19.665185273302384
 10
-33.312509691837725
 20
-19.799974415193567
 10
-33.34147423747505
 20
-19.932026460304897
 10
-33.36704746163169
 20
-20.061344597571424
 10
-33.38896206521826
 20
-20.187893421522563
 10
-33.407420914253066
 20
-20.311373416533403
 10
-33.422388603265546
 20
-20.432051881693326
 10
-33.433832915720174
 20
-20.549761356454585
 10
-33.442024339641364
 20
-20.66410248665063
 10
-33.446859847552446
 20
-20.775442409912483
 10
-33.448374844924
 20
-20.88351382715075
 10
-33.446704575768216
 20
-20.988117061282164
 10
-33.442119528109565
 20
-21.08885275814016
 10
-33.434619701948016
 20
-21.185720917724744
 10
-33.42444017983743
 20
-21.27858948495874
 10
-33.411719394725075
 20
-21.36682402312174
 10
-33.39682767317702
 20
-21.45009280005329
 10
-33.380541073795996
 20
-21.527465052343114
 10
-33.363133273541465
 20
-21.598106666187515
 10
-33.3457860630528
 20
-21.660487846926365
 10
-33.32968123296935
 20
-21.71307879989956
 10
-33.31624203435447
 20
-21.75334815609553
 10
-33.30725885590247
 20
-21.778867573979404
 10
-32.87698354715726
 20
-22.418220511711976
 10
-32.8716378925546
 20
-22.422027459219525
 10
-32.855668550752746
 20
-22.433348463200538
 10
-32.82934600977612
 20
-22.451784169488455
 10
-32.79142085697925
 20
-22.478964211285028
 10
-32.740672707317145
 20
-22.51712044197691
 10
-32.680518066565774
 20
-22.560993635392744
 10
-32.61295337837286
 20
-22.607421174735606
 10
-32.53905740590109
 20
-22.655240402976403
 10
-32.46015037273707
 20
-22.702287088734604
 10
-32.37674103839416
 20
-22.747595063129346
 10
-32.28936718998615
 20
-22.790800377464645
 10
-32.198199476995846
 20
-22.831436055567842
 10
-32.103508387447704
 20
-22.86910274327237
 10
-32.0054291653539
 20
-22.90360076349497
 10
-31.903961810714456
 20
-22.934930116235623
 10
-31.799273784077126
 20
-22.963058584958805
 10
-31.691400490912457
 20
-22.98771887057513
 10
-31.580274309214374
 20
-23.009010811626236
 10
-31.46606269953061
 20
-23.02690219157659
 10
-31.348530579307308
 20
-23.041525065503368
 10
-31.227745570550574
 20
-23.05277959486492
 10
-31.104042594355914
 20
-23.060601346590193
 10
-30.97691926908007
 20
-23.06508697028578
 10
-30.84674273235409
 20
-23.066339493428373
 10
-30.71324568508856
 20
-23.06432351054737
 10
-30.57659558783125
 20
-23.05900680510727
 10
-30.436860062588256
 20
-23.050289538566414
 10
-30.29383624334126
 20
-23.038471226549724
 10
-30.147659374102474
 20
-23.023352191973927
 10
-29.998058966847466
 20
-23.005331789005574
 10
-29.845237887594568
 20
-22.98411050201975
 10
-29.689160730873187
 20
-22.959955630105842
 10
-29.529727658141702
 20
-22.93279955125774
 10
-29.366803425387882
 20
-22.902841942558723
 10
-29.200555493159484
 20
-22.870050587473266
 10
-29.0309162394504
 20
-22.834525324542994
 10
-28.85788566426062
 20
-22.796266153767917
 10
-28.681161063030185
 20
-22.75550496876684
 10
-28.50100973484849
 20
-22.712277175010353
 10
-28.31729962463836
 20
-22.666347689944583
 10
-28.130230409483072
 20
-22.61785175758176
 10
-27.93956700682876
 20
-22.566921432999038
 10
-27.745409255217087
 20
-22.513624338202547
 10
-27.547724938112502
 20
-22.457793012644526
 10
-27.346749138068866
 20
-22.399295401247798
 10
-27.14231439453844
 20
-22.33816372054791
 10
-26.93455276259838
 20
-22.274633053098707
 10
-26.72336440370706
 20
-22.208635776894088
 10
-26.50874931786447
 20
-22.14017189193405
 10
-26.29091037108893
 20
-22.068941882593666
 10
-26.0699474019221
 20
-21.99501337087906
 10
-25.84576057182232
 20
-21.918318734784112
 10
-25.61831447531903
 20
-21.839125273398214
 10
-25.38760911241221
 20
-21.757432986721366
 10
-25.153914971126312
 20
-21.672842520587007
 10
-24.917196645990742
 20
-21.585621174084526
 10
-24.677421920469982
 20
-21.495601486666178
 10
-24.434523172557924
 20
-21.402883296873604
 10
-24.188600240796198
 20
-21.307534226712907
 10
-23.939720747190915
 20
-21.209454437642446
 10
-23.687817069735967
 20
-21.108743768203865
 10
-23.43288920843136
 20
-21.00540221839716
 10
-23.175004785283196
 20
-20.899329949680695
 10
-22.914196016827006
 20
-20.790694422602215
 10
-22.650462903062795
 20
-20.679495637161725
 10
-22.383773227455027
 20
-20.56556613281147
 10
-22.11419142307476
 20
-20.449240830646954
 10
-21.84168527338648
 20
-20.33035227012042
 10
-21.56618715638406
 20
-20.209000289773513
 10
-21.287864532615256
 20
-20.0851526730707
 10
-21.006920268098394
 20
-19.95850990438706
 10
-20.72315149681514
 20
-19.82937149934752
 10
-20.43632313621165
 20
-19.697869513029243
 10
-20.14680232391895
 20
-19.564106972908917
 10
-19.85452462686597
 20
-19.427748957891044
 10
-19.559557667058822
 20
-19.288695629433988
 10
-19.261965877568564
 20
-19.14728190863324
 10
-18.961581797847458
 20
-19.003540012024335
 10
-18.658540671907705
 20
-18.857270262523993
 10
-18.352942338290962
 20
-18.708540282138323
 10
-18.044854419003325
 20
-18.557250232325686
 10
-17.73407404802647
 20
-18.403699628710996
 10
-17.420736469372624
 20
-18.24768879421098
 10
-17.104706439029556
 20
-18.08941740590891
 10
-16.78638650009888
 20
-17.92872119219209
 10
-16.465509353491207
 20
-17.76556474758994
 10
-16.142174837748176
 20
-17.600015694108574
 10
-15.81641516940531
 20
-17.432241492295727
 10
-15.488265753933202
 20
-17.26197484306202
 10
-15.157691185861259
 20
-17.08948304549685
 10
-14.824858925737235
 20
-16.914733883064663
 10
-14.48970454049007
 20
-16.737392434669985
 10
-14.152427707203042
 20
-16.55759394432502
 10
-13.812825559857826
 20
-16.375637927654687
 10
-13.470898098454418
 20
-16.191524384658994
 10
-13.126645322992823
 20
-16.00525331533793
 10
-12.780369938032997
 20
-15.816592826072693
 10
-12.432207187587167
 20
-15.625343239780001
 10
-12.08178674508926
 20
-15.431836288620309
 10
-11.729308287622546
 20
-15.236207216605825
 10
-11.374807220657608
 20
-15.038188724647165
 10
-11.018518626748296
 20
-14.837648757667159
 10
-10.660239639876297
 20
-14.634886831290725
 10
-10.299934854571022
 20
-14.43017024460725
 10
-9.937639676303055
 20
-14.223231698527348
 10
-9.573556971090717
 20
-14.013771677426101
 10
-9.20775117200507
 20
-13.802125102399
 10
-8.840154657040008
 20
-13.588391811987687
 10
-8.470567749112254
 20
-13.372436562179947
 10
-8.099357585852829
 20
-13.154362380452463
 10
-7.726559572732315
 20
-12.93390196771585
 10
-7.3521737097507085
 20
-12.71105532397011
 10
-6.9762322134435415
 20
-12.485989909762983
 10
-6.5983969737802735
 20
-12.259204917802672
 10
-6.218970695320867
 20
-12.030468454470363
 10
-5.838124027548122
 20
-11.799313543593396
 10
-5.455789348455918
 20
-11.565840023713406
 10
-5.072166335127544
 20
-11.330183138842608
 10
-4.686884660996922
 20
-11.092674621141457
 10
-4.300179408617914
 20
-10.853182415532777
 10
-3.912050577990511
 20
-10.611706522016567
 10
-3.522633413126939
 20
-10.368047263509556
 10
-3.131860292021081
 20
-10.122304478553376
 10
-2.73979564774401
 20
-9.874813088243526
 10
-2.3463750472246554
 20
-9.62523817148451
 10
-1.9519334115585065
 20
-9.37351529520526
 10
-1.556403118739467
 20
-9.119744297947422
 10
-1.159716546761429
 20
-8.86402501825264
 10
-0.7618414790888471
 20
-8.606189995573152
 10
-0.3632126753588746
 20
-8.34624241884402
 10
0.03620208096403469
 20
-8.084014827517482
 10
0.4369083604581642
 20
-7.820038630837274
 10
0.8386388640341279
 20
-7.554349234273971
 10
1.240888021113635
 20
-7.286415228583845
 10
1.6440583747982889
 20
-7.016400885379599
 10
2.0481177085525606
 20
-6.744473665208978
 10
2.452731101280956
 20
-6.47056913500092
 10
2.8580306080606404
 20
-6.194452212201575
 10
3.2638165518083455
 20
-5.916258140823148
 10
3.6704592590901295
 20
-5.636318653026101
 10
4.077723647352144
 20
-5.354501693733254
 10
4.485171768022216
 20
-5.0703756922425205
 10
4.893106325660291
 20
-4.784172542172718
 10
5.301697969749182
 20
-4.496359219696498
 10
5.710644198594932
 20
-4.206704130710686
 10
6.119988183498065
 20
-3.915055988511277
 10
6.529771551153719
 20
-3.621691277333488
 10
6.939724016403478
 20
-3.3262109425263904
 10
7.349845714491363
 20
-3.028615183767058
 10
7.760307294900162
 20
-2.7293709772281636
 10
8.171076811582356
 20
-2.428646182811627
 10
8.582186548695505
 20
-2.126273439808228
 10
8.993333869301633
 20
-1.8220209544377073
 10
9.404654085034966
 20
-1.516088503621886
 10
9.816147466383544
 20
-1.2084764867149242
 10
10.227714107183704
 20
-0.8992524258843916
 10
10.639151344283139
 20
-0.5881171050210015
 10
11.050594421694077
 20
-0.27527020120802215
 10
11.462114150357667
 20
0.03875368737576638
 10
11.873842855839097
 20
0.3541892439300514
 10
12.285377927414773
 20
0.6712008399060879
 10
12.696886960876444
 20
0.9897560590912504
 10
13.108170279140829
 20
1.3097196574733239
 10
13.519395410377685
 20
1.6310593186782367
 10
13.930494800202911
 20
1.9538747814090875
 10
14.34133639353934
 20
2.277930963112023
 10
14.752155272940827
 20
2.603095808709874
 10
15.162884019267278
 20
2.9294688572286463
 10
15.573255130563282
 20
3.2570150027133926
 10
15.983436202620608
 20
3.5857018289514984
 10
16.39346264090983
 20
3.915262036853579
 10
16.803163863570155
 20
4.246162502753753
 10
17.21247530228653
 20
4.5780685052336185
 10
17.621532201071147
 20
4.910780367209887
 10
18.030267005539915
 20
5.244397827385663
 10
18.438544471680615
 20
5.57912056284422
 10
18.846499911127474
 20
5.914748796663742
 10
19.254068552699387
 20
6.250948106941435
 10
19.661215126169807
 20
6.587985593089613
 10
20.068042659015404
 20
6.925494117477244
 10
20.47434814997385
 20
7.263773395406331
 10
20.88006404466104
 20
7.6029231655799725
 10
21.285325587089183
 20
7.942743750914882
 10
21.690135560461297
 20
8.282800990805182
 10
22.09459400618504
 20
8.623162207741359
 10
22.498398084456433
 20
8.964059495019299
 10
22.901615282037582
 20
9.305393213774455
 10
23.30424566655048
 20
9.647163264168277
 10
23.706356724757217
 20
9.989270007336208
 10
24.107680819458395
 20
10.331678537000391
 10
24.508385614067777
 20
10.67435633710966
 10
24.908438486317774
 20
11.017136546147512
 10
25.308074856872302
 20
11.35988660984409
 10
25.706823952025562
 20
11.702871536900583
 10
26.104753461405693
 20
12.045991388936825
 10
26.502301333584867
 20
12.388814595250722
 10
26.898861821333128
 20
12.731805442272615
 10
27.29436709977835
 20
13.075064068059751
 10
27.689322942364846
 20
13.418058763852796
 10
28.083664375045476
 20
13.76045540726456
 10
28.477085639569278
 20
14.102920451873933
 10
28.86955424891267
 20
14.445286836487314
 10
29.260969958802004
 20
14.787487538129861
 10
29.65156805465713
 20
15.129390202208766
 10
30.041315981832483
 20
15.470827867368993
 10
30.43028115946818
 20
15.81170099458453
 10
30.818228302144327
 20
16.152141938448178
 10
31.205021895360677
 20
16.492350775397362
 10
31.590864737513566
 20
16.832028089645732
 10
31.97575676098099
 20
17.171173981031817
 10
32.35956516684369
 20
17.509554465225712
 10
32.74249010553899
 20
17.84730408736985
 10
33.12412835774525
 20
18.184588117462354
 10
33.504547410224546
 20
18.521306916638657
 10
33.88408510251939
 20
18.85696169154473
 10
34.2626738802457
 20
19.191652180883686
 10
34.63997794322189
 20
19.525444115627614
 10
35.016265063891396
 20
19.858372202377307
 10
35.39126719932275
 20
20.19040213388614
 10
35.76508432330161
 20
20.52160133248314
 10
36.13775136794452
 20
20.851703197948712
 10
36.50916802135578
 20
21.180640807146542
 10
36.87956956895528
 20
21.50828180548383
 10
37.24855258855532
 20
21.834791762474314
 10
37.61631723059324
 20
22.160305223260437
 10
37.98259545213757
 20
22.48478788059556
 10
38.34779264711496
 20
22.807641202422577
 10
38.71180857125169
 20
23.1287981657666
 10
39.07443764294845
 20
23.44899234701992
 10
39.435311507378124
 20
23.76812251579959
 10
39.79517129102688
 20
24.085524508914922
 10
40.15374888334125
 20
24.401164118957823
 10
40.5107734581868
 20
24.715441199287582
 10
40.86624488031947
 20
25.028355949581265
 10
41.220230568879394
 20
25.33980883081286
 10
41.57306849865307
 20
25.64930084995126
 10
41.92442266659295
 20
25.956898037484205
 10
42.274290559984
 20
26.263034154663387
 10
42.62247141979086
 20
26.567575554893267
 10
42.96910028715974
 20
26.8703228606062
 10
43.31431227085884
 20
27.171076594395988
 10
43.65797185638792
 20
27.47003683270006
 10
43.99997852898524
 20
27.767136951897733
 10
44.340567641692736
 20
28.06224449755768
 10
44.679538435475024
 20
28.355225823084353
 10
45.01678815334341
 20
28.64644766675459
 10
45.35211590101853
 20
28.93577658164994
 10
45.685957587711606
 20
29.223214059450235
 10
46.018047074608134
 20
29.508292930204018
 10
46.34858478263345
 20
29.79114733969955
 10
46.67750281929344
 20
30.071877525832633
 10
47.004465181540446
 20
30.350549519090976
 10
47.32953915327062
 20
30.62706398012568
 10
47.65299270979338
 20
30.901455316021895
 10
47.9745924698058
 20
31.173423018667574
 10
48.29457365110571
 20
31.44283483330844
 10
48.61263287291311
 20
31.709923651948753
 10
48.92880255462956
 20
31.974856635620636
 10
49.24304980349943
 20
32.237467322161706
 10
49.55537434903474
 20
32.497756110926204
 10
49.86587847487009
 20
32.75535696250701
 10
50.17445949163882
 20
33.01063651534246
 10
50.48098405944564
 20
33.263361583810976
 10
50.785416975686
 20
33.51379916748633
 10
51.08796097113421
 20
33.7616499504207
 10
51.38858301779067
 20
34.00674767012883
 10
51.687079979149026
 20
34.249392241589796
 10
51.983451652343255
 20
34.489583964319216
 10
52.27769776688534
 20
34.72732323767128
 10
52.56975267250812
 20
34.96227693764423
 10
52.859952034149124
 20
35.19437953294304
 10
53.14785715939414
 20
35.42406369249377
 10
53.43343508786555
 20
35.65116305397262
 10
53.71678586097102
 20
35.87574493987008
 10
53.99794414033906
 20
36.09754314932072
 10
54.27674172157983
 20
36.31659099708402
 10
54.55331147123461
 20
36.533122367651345
 10
54.82765522579832
 20
36.7467044981564
 10
55.09963753839268
 20
36.95753736519806
 10
55.36932582815784
 20
37.16552142975035
 10
55.63651689096542
 20
37.37095670663087
 10
55.9013457679616
 20
37.573643818271975
 10
56.16371180914071
 20
37.773516340730055
 10
56.423682433642796
 20
37.97047473497909
 10
56.68129019611344
 20
38.164685962374136
 10
56.93626644502312
 20
38.35611661421542
 10
57.188610842261845
 20
38.54476718969569
 10
57.43849125410935
 20
38.73060487324813
 10
57.68597537019378
 20
38.913529726492584
 10
57.93066071503553
 20
39.093705921203195
 10
58.1726413116837
 20
39.27120966550065
 10
58.412126585491215
 20
39.4457317594215
 10
58.648945830054046
 20
39.61730921175127
 10
58.88296366611597
 20
39.786141899250346
 10
59.11441551434084
 20
39.95209726764882
 10
59.34316789958939
 20
40.11494233100221
 10
59.56918575450106
 20
40.274943889207215
 10
59.792401254203725
 20
40.4322020803211
 10
60.01271381631367
 20
40.58665038056168
 10
60.230258481977096
 20
40.73808941236134
 10
60.4449672910779
 20
40.88661951345441
 10
60.6567048643598
 20
41.032440560601266
 10
60.86553855334091
 20
41.175453114614406
 10
61.07150308727173
 20
41.315390874789884
 10
61.27459812804224
 20
41.45225434032041
 10
61.47465349952368
 20
41.58650978850883
 10
61.671636106094454
 20
41.71799105670847
 10
61.865545880132565
 20
41.84669824475786
 10
62.05645010553407
 20
41.972532013308076
 10
62.244248267537245
 20
42.095425738738406
 10
62.42904047517181
 20
42.21544664370081
 10
62.61059103728581
 20
42.33272768181932
 10
62.78903485978146
 20
42.44706967520339
 10
62.964236563402515
 20
42.55867250061335
 10
63.13643163643487
 20
42.6674035039408
 10
63.305283805342896
 20
42.77332911502762
 10
63.47082569239418
 20
42.876616195390326
 10
63.63302433721113
 20
42.97709838270512
 10
63.79204760607352
 20
43.07474286140523
 10
63.94765913160936
 20
43.169683583500095
 10
64.10009406399453
 20
43.26178839407401
 10
64.24895276787369
 20
43.351217271682415
 10
64.39449821452783
 20
43.43801201146252
 10
64.53653140309375
 20
43.52203637101669
 10
64.67515257784511
 20
43.60335737331982
 10
64.81036160353788
 20
43.68197521804895
 10
64.94209065529995
 20
43.75799004326136
 10
65.07030690799778
 20
43.83123528695619
 10
65.19487484713105
 20
43.90191102557087
 10
65.3159625418456
 20
43.969984144023
 10
65.43340165250761
 20
44.035488156749146
 10
65.54725973350118
 20
44.09832332504623
 10
65.65746909519817
 20
44.1585895872944
 10
65.7640971567387
 20
44.21618740446768
 10
65.86707622849465
 20
44.27121671494621
 10
65.96627099883179
 20
44.323877295651855
 10
66.06171606175663
 20
44.37390304555769
 10
66.15354468954243
 20
44.42152725012384
 10
66.24138771589801
 20
44.466649877029866
 10
66.32561410424853
 20
44.50937125811181
 10
66.40602282507065
 20
44.549558146128334
 10
66.48247856673008
 20
44.587410318001226
 10
66.55514933075064
 20
44.62289475848661
 10
66.62393453474863
 20
44.65594494380237
 10
66.68869893471185
 20
44.68676055103176
 10
66.74967808654813
 20
44.715208826227816
 10
66.80663629910566
 20
44.741422723014594
 10
66.85964105914645
 20
44.76530260252755
 10
66.90855712265834
 20
44.78704814184994
 10
66.9534521116474
 20
44.80655950244013
 10
66.9943587160032
 20
44.824003445976075
 10
67.03107597382437
 20
44.83924662537786
 10
67.06363677786655
 20
44.852455502807814
 10
67.09214150764733
 20
44.8636969015637
 10
67.11638920126535
 20
44.872837474565614
 10
67.13634499422612
 20
44.88014372219459
 10
67.1521771585414
 20
44.88558222985258
 10
67.16354921780963
 20
44.88921972689717
 10
67.17049426765236
 20
44.89122237597499
 10
67.17287686119137
 20
44.891790153684994
  0
ENDSEC
  0
SECTION
  2
OBJECTS
  0
DICTIONARY
  5
A
330
0
100
AcDbDictionary
280
0
281
1
  3
ACAD_COLOR
350
B
  3
ACAD_GROUP
350
C
  3
ACAD_LAYOUT
350
D
  3
ACAD_MATERIAL
350
E
  3
ACAD_MLEADERSTYLE
350
F
  3
ACAD_MLINESTYLE
350
10
  3
ACAD_PLOTSETTINGS
350
11
  3
ACAD_PLOTSTYLENAME
350
12
  3
ACAD_SCALELIST
350
14
  3
ACAD_TABLESTYLE
350
15
  3
ACAD_VISUALSTYLE
350
16
  3
EZDXF_META
350
2D
  0
DICTIONARY
  5
B
330
A
100
AcDbDictionary
280
0
281
1
  0
DICTIONARY
  5
C
330
A
100
AcDbDictionary
280
0
281
1
  0
DICTIONARY
  5
D
330
A
100
AcDbDictionary
280
0
281
1
  3
Model
350
1A
  3
Layout1
350
1E
  0
DICTIONARY
  5
E
330
A
100
AcDbDictionary
280
0
281
1
  3
ByBlock
350
1F
  3
ByLayer
350
20
  3
Global
350
21
  0
DICTIONARY
  5
F
330
A
100
AcDbDictionary
280
0
281
1
  3
Standard
350
2C
  0
DICTIONARY
  5
10
330
A
100
AcDbDictionary
280
0
281
1
  3
Standard
350
22
  0
DICTIONARY
  5
11
330
A
100
AcDbDictionary
280
0
281
1
  0
ACDBDICTIONARYWDFLT
  5
12
330
A
100
AcDbDictionary
280
0
281
1
  3
Normal
350
13
100
AcDbDictionaryWithDefault
340
13
  0
ACDBPLACEHOLDER
  5
13
330
12
  0
DICTIONARY
  5
14
330
A
100
AcDbDictionary
280
0
281
1
  0
DICTIONARY
  5
15
330
A
100
AcDbDictionary
280
0
281
1
  0
DICTIONARY
  5
16
330
A
100
AcDbDictionary
280
0
281
1
  0
LAYOUT
  5
1A
330
D
100
AcDbPlotSettings
  1

  4
A3
  6

 40
7.5
 41
20.0
 42
7.5
 43
20.0
 44
420.0
 45
297.0
 46
0.0
 47
0.0
 48
0.0
 49
0.0
140
0.0
141
0.0
142
1.0
143
1.0
 70
1024
 72
1
 73
0
 74
5
  7

 75
16
 76
0
 77
2
 78
300
147
1.0
148
0.0
149
0.0
100
AcDbLayout
  1
Model
 70
1
 71
0
 10
0.0
 20
0.0
 11
420.0
 21
297.0
 12
0.0
 22
0.0
 32
0.0
 14
1e+20
 24
1e+20
 34
1e+20
 15
-1e+20
 25
-1e+20
 35
-1e+20
146
0.0
 13
0.0
 23
0.0
 33
0.0
 16
1.0
 26
0.0
 36
0.0
 17
0.0
 27
1.0
 37
0.0
 76
1
330
17
  0
LAYOUT
  5
1E
330
D
100
AcDbPlotSettings
  1

  4
A3
  6

 40
7.5
 41
20.0
 42
7.5
 43
20.0
 44
420.0
 45
297.0
 46
0.0
 47
0.0
 48
0.0
 49
0.0
140
0.0
141
0.0
142
1.0
143
1.0
 70
0
 72
1
 73
0
 74
5
  7

 75
16
 76
0
 77
2
 78
300
147
1.0
148
0.0
149
0.0
100
AcDbLayout
  1
Layout1
 70
1
 71
1
 10
0.0
 20
0.0
 11
420.0
 21
297.0
 12
0.0
 22
0.0
 32
0.0
 14
1e+20
 24
1e+20
 34
1e+20
 15
-1e+20
 25
-1e+20
 35
-1e+20
146
0.0
 13
0.0
 23
0.0
 33
0.0
 16
1.0
 26
0.0
 36
0.0
 17
0.0
 27
1.0
 37
0.0
 76
1
330
1B
  0
MATERIAL
  5
1F
102
{ACAD_REACTORS
330
E
102
}
330
E
100
AcDbMaterial
  1
ByBlock
  2

 70
0
 40
1.0
 71
1
 41
1.0
 91
-1023410177
 42
1.0
 72
1
  3

 73
1
 74
1
 75
1
 44
0.5
 73
0
 45
1.0
 46
1.0
 77
1
  4

 78
1
 79
1
170
1
 48
1.0
171
1
  6

172
1
173
1
174
1
140
1.0
141
1.0
175
1
  7

176
1
177
1
178
1
143
1.0
179
1
  8

270
1
271
1
272
1
145
1.0
146
1.0
273
1
  9

274
1
275
1
276
1
 42
1.0
 72
1
  3

 73
1
 74
1
 75
1
 94
63
  0
MATERIAL
  5
20
102
{ACAD_REACTORS
330
E
102
}
330
E
100
AcDbMaterial
  1
ByLayer
  2

 70
0
 40
1.0
 71
1
 41
1.0
 91
-1023410177
 42
1.0
 72
1
  3

 73
1
 74
1
 75
1
 44
0.5
 73
0
 45
1.0
 46
1.0
 77
1
  4

 78
1
 79
1
170
1
 48
1.0
171
1
  6

172
1
173
1
174
1
140
1.0
141
1.0
175
1
  7

176
1
177
1
178
1
143
1.0
179
1
  8

270
1
271
1
272
1
145
1.0
146
1.0
273
1
  9

274
1
275
1
276
1
 42
1.0
 72
1
  3

 73
1
 74
1
 75
1
 94
63
  0
MATERIAL
  5
21
102
{ACAD_REACTORS
330
E
102
}
330
E
100
AcDbMaterial
  1
Global
  2

 70
0
 40
1.0
 71
1
 41
1.0
 91
-1023410177
 42
1.0
 72
1
  3

 73
1
 74
1
 75
1
 44
0.5
 73
0
 45
1.0
 46
1.0
 77
1
  4

 78
1
 79
1
170
1
 48
1.0
171
1
  6

172
1
173
1
174
1
140
1.0
141
1.0
175
1
  7

176
1
177
1
178
1
143
1.0
179
1
  8

270
1
271
1
272
1
145
1.0
146
1.0
273
1
  9

274
1
275
1
276
1
 42
1.0
 72
1
  3

 73
1
 74
1
 75
1
 94
63
  0
MLINESTYLE
  5
22
102
{ACAD_REACTORS
330
10
102
}
330
10
100
AcDbMlineStyle
  2
Standard
 70
0
  3

 62
256
 51
90.0
 52
90.0
 71
2
 49
0.5
 62
256
  6
BYLAYER
 49
-0.5
 62
256
  6
BYLAYER
  0
MLEADERSTYLE
  5
2C
102
{ACAD_REACTORS
330
F
102
}
330
F
100
AcDbMLeaderStyle
179
2
170
2
171
1
172
0
 90
2
 40
0.0
 41
0.0
173
1
 91
-1056964608
 92
-2
290
1
 42
2.0
291
1
 43
8.0
  3
Standard
 44
4.0
300

342
29
174
1
175
1
176
0
178
1
 93
-1056964608
 45
4.0
292
0
297
0
 46
4.0
 94
-1056964608
 47
1.0
 49
1.0
140
1.0
294
1
141
0.0
177
0
142
1.0
295
0
296
0
143
3.75
271
0
272
9
273
9
  0
DICTIONARY
  5
2D
330
A
100
AcDbDictionary
280
1
281
1
  3
CREATED_BY_EZDXF
350
2E
  3
WRITTEN_BY_EZDXF
350
32
  0
DICTIONARYVAR
  5
2E
330
2D
100
DictionaryVariables
280
0
  1
1.3.5 @ 2025-08-20T01:58:16.918752+00:00
  0
DICTIONARYVAR
  5
32
330
2D
100
DictionaryVariables
280
0
  1
1.3.5 @ 2025-08-20T01:58:16.925882+00:00
  0
ENDSEC
  0
EOF
