  0
SECTION
  2
HEADER
  9
$ACADVER
  1
AC1032
  9
$ACADMAINTVER
 90
4
  9
$DWGCODEPAGE
  3
ANSI_1252
  9
$LASTSAVEDBY
  1
ezdxf
  9
$REQUIREDVERSIONS
160
0
  9
$INSBASE
 10
0.0
 20
0.0
 30
0.0
  9
$EXTMIN
 10
1e+20
 20
1e+20
 30
1e+20
  9
$EXTMAX
 10
-1e+20
 20
-1e+20
 30
-1e+20
  9
$LIMMIN
 10
0.0
 20
0.0
  9
$LIMMAX
 10
420.0
 20
297.0
  9
$ORTHOMODE
 70
0
  9
$REGENMODE
 70
1
  9
$FILLMODE
 70
1
  9
$QTEXTMODE
 70
0
  9
$MIRRTEXT
 70
1
  9
$LTSCALE
 40
1.0
  9
$ATTMODE
 70
1
  9
$TEXTSIZE
 40
2.5
  9
$TRACEWID
 40
1.0
  9
$TEXTSTYLE
  7
Standard
  9
$CLAYER
  8
0
  9
$CELTYPE
  6
ByLayer
  9
$CECOLOR
 62
256
  9
$CELTSCALE
 40
1.0
  9
$DISPSILH
 70
0
  9
$DIMSCALE
 40
1.0
  9
$DIMASZ
 40
2.5
  9
$DIMEXO
 40
0.625
  9
$DIMDLI
 40
3.75
  9
$DIMRND
 40
0.0
  9
$DIMDLE
 40
0.0
  9
$DIMEXE
 40
1.25
  9
$DIMTP
 40
0.0
  9
$DIMTM
 40
0.0
  9
$DIMTXT
 40
2.5
  9
$DIMCEN
 40
2.5
  9
$DIMTSZ
 40
0.0
  9
$DIMTOL
 70
0
  9
$DIMLIM
 70
0
  9
$DIMTIH
 70
0
  9
$DIMTOH
 70
0
  9
$DIMSE1
 70
0
  9
$DIMSE2
 70
0
  9
$DIMTAD
 70
1
  9
$DIMZIN
 70
8
  9
$DIMBLK
  1

  9
$DIMASO
 70
1
  9
$DIMSHO
 70
1
  9
$DIMPOST
  1

  9
$DIMAPOST
  1

  9
$DIMALT
 70
0
  9
$DIMALTD
 70
3
  9
$DIMALTF
 40
0.03937007874
  9
$DIMLFAC
 40
1.0
  9
$DIMTOFL
 70
1
  9
$DIMTVP
 40
0.0
  9
$DIMTIX
 70
0
  9
$DIMSOXD
 70
0
  9
$DIMSAH
 70
0
  9
$DIMBLK1
  1

  9
$DIMBLK2
  1

  9
$DIMSTYLE
  2
ISO-25
  9
$DIMCLRD
 70
0
  9
$DIMCLRE
 70
0
  9
$DIMCLRT
 70
0
  9
$DIMTFAC
 40
1.0
  9
$DIMGAP
 40
0.625
  9
$DIMJUST
 70
0
  9
$DIMSD1
 70
0
  9
$DIMSD2
 70
0
  9
$DIMTOLJ
 70
0
  9
$DIMTZIN
 70
8
  9
$DIMALTZ
 70
0
  9
$DIMALTTZ
 70
0
  9
$DIMUPT
 70
0
  9
$DIMDEC
 70
2
  9
$DIMTDEC
 70
2
  9
$DIMALTU
 70
2
  9
$DIMALTTD
 70
3
  9
$DIMTXSTY
  7
Standard
  9
$DIMAUNIT
 70
0
  9
$DIMADEC
 70
0
  9
$DIMALTRND
 40
0.0
  9
$DIMAZIN
 70
0
  9
$DIMDSEP
 70
44
  9
$DIMATFIT
 70
3
  9
$DIMFRAC
 70
0
  9
$DIMLDRBLK
  1

  9
$DIMLUNIT
 70
2
  9
$DIMLWD
 70
-2
  9
$DIMLWE
 70
-2
  9
$DIMTMOVE
 70
0
  9
$DIMFXL
 40
1.0
  9
$DIMFXLON
 70
0
  9
$DIMJOGANG
 40
0.785398163397
  9
$DIMTFILL
 70
0
  9
$DIMTFILLCLR
 70
0
  9
$DIMARCSYM
 70
0
  9
$DIMLTYPE
  6

  9
$DIMLTEX1
  6

  9
$DIMLTEX2
  6

  9
$DIMTXTDIRECTION
 70
0
  9
$LUNITS
 70
2
  9
$LUPREC
 70
4
  9
$SKETCHINC
 40
1.0
  9
$FILLETRAD
 40
10.0
  9
$AUNITS
 70
0
  9
$AUPREC
 70
2
  9
$MENU
  1
.
  9
$ELEVATION
 40
0.0
  9
$PELEVATION
 40
0.0
  9
$THICKNESS
 40
0.0
  9
$LIMCHECK
 70
0
  9
$CHAMFERA
 40
0.0
  9
$CHAMFERB
 40
0.0
  9
$CHAMFERC
 40
0.0
  9
$CHAMFERD
 40
0.0
  9
$SKPOLY
 70
0
  9
$TDCREATE
 40
2460908.1238078703
  9
$TDUCREATE
 40
2458532.153996898
  9
$TDUPDATE
 40
2460908.1238078703
  9
$TDUUPDATE
 40
2458532.1544311
  9
$TDINDWG
 40
0.0
  9
$TDUSRTIMER
 40
0.0
  9
$USRTIMER
 70
1
  9
$ANGBASE
 50
0.0
  9
$ANGDIR
 70
0
  9
$PDMODE
 70
0
  9
$PDSIZE
 40
0.0
  9
$PLINEWID
 40
0.0
  9
$SPLFRAME
 70
0
  9
$SPLINETYPE
 70
6
  9
$SPLINESEGS
 70
8
  9
$HANDSEED
  5
33
  9
$SURFTAB1
 70
6
  9
$SURFTAB2
 70
6
  9
$SURFTYPE
 70
6
  9
$SURFU
 70
6
  9
$SURFV
 70
6
  9
$UCSBASE
  2

  9
$UCSNAME
  2

  9
$UCSORG
 10
0.0
 20
0.0
 30
0.0
  9
$UCSXDIR
 10
1.0
 20
0.0
 30
0.0
  9
$UCSYDIR
 10
0.0
 20
1.0
 30
0.0
  9
$UCSORTHOREF
  2

  9
$UCSORTHOVIEW
 70
0
  9
$UCSORGTOP
 10
0.0
 20
0.0
 30
0.0
  9
$UCSORGBOTTOM
 10
0.0
 20
0.0
 30
0.0
  9
$UCSORGLEFT
 10
0.0
 20
0.0
 30
0.0
  9
$UCSORGRIGHT
 10
0.0
 20
0.0
 30
0.0
  9
$UCSORGFRONT
 10
0.0
 20
0.0
 30
0.0
  9
$UCSORGBACK
 10
0.0
 20
0.0
 30
0.0
  9
$PUCSBASE
  2

  9
$PUCSNAME
  2

  9
$PUCSORG
 10
0.0
 20
0.0
 30
0.0
  9
$PUCSXDIR
 10
1.0
 20
0.0
 30
0.0
  9
$PUCSYDIR
 10
0.0
 20
1.0
 30
0.0
  9
$PUCSORTHOREF
  2

  9
$PUCSORTHOVIEW
 70
0
  9
$PUCSORGTOP
 10
0.0
 20
0.0
 30
0.0
  9
$PUCSORGBOTTOM
 10
0.0
 20
0.0
 30
0.0
  9
$PUCSORGLEFT
 10
0.0
 20
0.0
 30
0.0
  9
$PUCSORGRIGHT
 10
0.0
 20
0.0
 30
0.0
  9
$PUCSORGFRONT
 10
0.0
 20
0.0
 30
0.0
  9
$PUCSORGBACK
 10
0.0
 20
0.0
 30
0.0
  9
$USERI1
 70
0
  9
$USERI2
 70
0
  9
$USERI3
 70
0
  9
$USERI4
 70
0
  9
$USERI5
 70
0
  9
$USERR1
 40
0.0
  9
$USERR2
 40
0.0
  9
$USERR3
 40
0.0
  9
$USERR4
 40
0.0
  9
$USERR5
 40
0.0
  9
$WORLDVIEW
 70
1
  9
$SHADEDGE
 70
3
  9
$SHADEDIF
 70
70
  9
$TILEMODE
 70
1
  9
$MAXACTVP
 70
64
  9
$PINSBASE
 10
0.0
 20
0.0
 30
0.0
  9
$PLIMCHECK
 70
0
  9
$PEXTMIN
 10
1e+20
 20
1e+20
 30
1e+20
  9
$PEXTMAX
 10
-1e+20
 20
-1e+20
 30
-1e+20
  9
$PLIMMIN
 10
0.0
 20
0.0
  9
$PLIMMAX
 10
420.0
 20
297.0
  9
$UNITMODE
 70
0
  9
$VISRETAIN
 70
1
  9
$PLINEGEN
 70
0
  9
$PSLTSCALE
 70
1
  9
$TREEDEPTH
 70
3020
  9
$CMLSTYLE
  2
Standard
  9
$CMLJUST
 70
0
  9
$CMLSCALE
 40
20.0
  9
$PROXYGRAPHICS
 70
1
  9
$MEASUREMENT
 70
1
  9
$CELWEIGHT
370
-1
  9
$ENDCAPS
280
0
  9
$JOINSTYLE
280
0
  9
$LWDISPLAY
290
0
  9
$INSUNITS
 70
6
  9
$HYPERLINKBASE
  1

  9
$STYLESHEET
  1

  9
$XEDIT
290
1
  9
$CEPSNTYPE
380
0
  9
$PSTYLEMODE
290
1
  9
$FINGERPRINTGUID
  2
{D8F4248E-70B5-4401-A725-3FECD8128CC8}
  9
$VERSIONGUID
  2
{2B1A77B6-E858-4E1A-A085-707BE474B32B}
  9
$EXTNAMES
290
1
  9
$PSVPSCALE
 40
0.0
  9
$OLESTARTUP
290
0
  9
$SORTENTS
280
127
  9
$INDEXCTL
280
0
  9
$HIDETEXT
280
1
  9
$XCLIPFRAME
280
1
  9
$HALOGAP
280
0
  9
$OBSCOLOR
 70
257
  9
$OBSLTYPE
280
0
  9
$INTERSECTIONDISPLAY
280
0
  9
$INTERSECTIONCOLOR
 70
257
  9
$DIMASSOC
280
2
  9
$PROJECTNAME
  1

  9
$CAMERADISPLAY
290
0
  9
$LENSLENGTH
 40
50.0
  9
$CAMERAHEIGHT
 40
0.0
  9
$STEPSPERSEC
 40
24.0
  9
$STEPSIZE
 40
100.0
  9
$3DDWFPREC
 40
2.0
  9
$PSOLWIDTH
 40
0.005
  9
$PSOLHEIGHT
 40
0.08
  9
$LOFTANG1
 40
1.570796326795
  9
$LOFTANG2
 40
1.570796326795
  9
$LOFTMAG1
 40
0.0
  9
$LOFTMAG2
 40
0.0
  9
$LOFTPARAM
 70
7
  9
$LOFTNORMALS
280
1
  9
$LATITUDE
 40
37.795
  9
$LONGITUDE
 40
-122.394
  9
$NORTHDIRECTION
 40
0.0
  9
$TIMEZONE
 70
-8000
  9
$LIGHTGLYPHDISPLAY
280
1
  9
$TILEMODELIGHTSYNCH
280
1
  9
$CMATERIAL
347
20
  9
$SOLIDHIST
280
0
  9
$SHOWHIST
280
1
  9
$DWFFRAME
280
2
  9
$DGNFRAME
280
2
  9
$REALWORLDSCALE
290
1
  9
$INTERFERECOLOR
 62
256
  9
$CSHADOW
280
0
  9
$SHADOWPLANELOCATION
 40
0.0
  0
ENDSEC
  0
SECTION
  2
CLASSES
  0
CLASS
  1
ACDBDICTIONARYWDFLT
  2
AcDbDictionaryWithDefault
  3
ObjectDBX Classes
 90
0
 91
0
280
0
281
0
  0
CLASS
  1
SUN
  2
AcDbSun
  3
SCENEOE
 90
1153
 91
0
280
0
281
0
  0
CLASS
  1
VISUALSTYLE
  2
AcDbVisualStyle
  3
ObjectDBX Classes
 90
4095
 91
0
280
0
281
0
  0
CLASS
  1
MATERIAL
  2
AcDbMaterial
  3
ObjectDBX Classes
 90
1153
 91
0
280
0
281
0
  0
CLASS
  1
SCALE
  2
AcDbScale
  3
ObjectDBX Classes
 90
1153
 91
0
280
0
281
0
  0
CLASS
  1
TABLESTYLE
  2
AcDbTableStyle
  3
ObjectDBX Classes
 90
4095
 91
0
280
0
281
0
  0
CLASS
  1
MLEADERSTYLE
  2
AcDbMLeaderStyle
  3
ACDB_MLEADERSTYLE_CLASS
 90
4095
 91
0
280
0
281
0
  0
CLASS
  1
DICTIONARYVAR
  2
AcDbDictionaryVar
  3
ObjectDBX Classes
 90
0
 91
0
280
0
281
0
  0
CLASS
  1
CELLSTYLEMAP
  2
AcDbCellStyleMap
  3
ObjectDBX Classes
 90
1152
 91
0
280
0
281
0
  0
CLASS
  1
MENTALRAYRENDERSETTINGS
  2
AcDbMentalRayRenderSettings
  3
SCENEOE
 90
1024
 91
0
280
0
281
0
  0
CLASS
  1
ACDBDETAILVIEWSTYLE
  2
AcDbDetailViewStyle
  3
ObjectDBX Classes
 90
1025
 91
0
280
0
281
0
  0
CLASS
  1
ACDBSECTIONVIEWSTYLE
  2
AcDbSectionViewStyle
  3
ObjectDBX Classes
 90
1025
 91
0
280
0
281
0
  0
CLASS
  1
RASTERVARIABLES
  2
AcDbRasterVariables
  3
ISM
 90
0
 91
0
280
0
281
0
  0
CLASS
  1
LAYOUT
  2
AcDbLayout
  3
ObjectDBX Classes
 90
0
 91
0
280
0
281
0
  0
CLASS
  1
ACDBPLACEHOLDER
  2
AcDbPlaceHolder
  3
ObjectDBX Classes
 90
0
 91
0
280
0
281
0
  0
ENDSEC
  0
SECTION
  2
TABLES
  0
TABLE
  2
VPORT
  5
8
330
0
100
AcDbSymbolTable
 70
1
  0
VPORT
  5
23
330
8
100
AcDbSymbolTableRecord
100
AcDbViewportTableRecord
  2
*Active
 70
0
 10
0.0
 20
0.0
 11
1.0
 21
1.0
 12
0.0
 22
0.0
 13
0.0
 23
0.0
 14
0.5
 24
0.5
 15
0.5
 25
0.5
 16
0.0
 26
0.0
 36
1.0
 17
0.0
 27
0.0
 37
0.0
 40
1000.0
 41
1.34
 42
50.0
 43
0.0
 44
0.0
 50
0.0
 51
0.0
 71
0
 72
1000
 73
1
 74
3
 75
0
 76
0
 77
0
 78
0
281
0
 65
0
146
0.0
  0
ENDTAB
  0
TABLE
  2
LTYPE
  5
2
330
0
100
AcDbSymbolTable
 70
3
  0
LTYPE
  5
24
330
2
100
AcDbSymbolTableRecord
100
AcDbLinetypeTableRecord
  2
ByBlock
 70
0
  3

 72
65
 73
0
 40
0.0
  0
LTYPE
  5
25
330
2
100
AcDbSymbolTableRecord
100
AcDbLinetypeTableRecord
  2
ByLayer
 70
0
  3

 72
65
 73
0
 40
0.0
  0
LTYPE
  5
26
330
2
100
AcDbSymbolTableRecord
100
AcDbLinetypeTableRecord
  2
Continuous
 70
0
  3

 72
65
 73
0
 40
0.0
  0
ENDTAB
  0
TABLE
  2
LAYER
  5
1
330
0
100
AcDbSymbolTable
 70
2
  0
LAYER
  5
27
330
1
100
AcDbSymbolTableRecord
100
AcDbLayerTableRecord
  2
0
 70
0
 62
7
  6
Continuous
370
-3
390
13
347
21
  0
LAYER
  5
28
330
1
100
AcDbSymbolTableRecord
100
AcDbLayerTableRecord
  2
Defpoints
 70
0
 62
7
  6
Continuous
290
0
370
-3
390
13
347
21
  0
ENDTAB
  0
TABLE
  2
STYLE
  5
5
330
0
100
AcDbSymbolTable
 70
1
  0
STYLE
  5
29
330
5
100
AcDbSymbolTableRecord
100
AcDbTextStyleTableRecord
  2
Standard
 70
0
 40
0.0
 41
1.0
 50
0.0
 71
0
 42
2.5
  3
txt
  4

  0
ENDTAB
  0
TABLE
  2
VIEW
  5
7
330
0
100
AcDbSymbolTable
 70
0
  0
ENDTAB
  0
TABLE
  2
UCS
  5
6
330
0
100
AcDbSymbolTable
 70
0
  0
ENDTAB
  0
TABLE
  2
APPID
  5
3
330
0
100
AcDbSymbolTable
 70
3
  0
APPID
  5
2A
330
3
100
AcDbSymbolTableRecord
100
AcDbRegAppTableRecord
  2
ACAD
 70
0
  0
APPID
  5
30
330
3
100
AcDbSymbolTableRecord
100
AcDbRegAppTableRecord
  2
HATCHBACKGROUNDCOLOR
 70
0
  0
APPID
  5
31
330
3
100
AcDbSymbolTableRecord
100
AcDbRegAppTableRecord
  2
EZDXF
 70
0
  0
ENDTAB
  0
TABLE
  2
DIMSTYLE
  5
4
330
0
100
AcDbSymbolTable
 70
1
100
AcDbDimStyleTable
  0
DIMSTYLE
105
2B
330
4
100
AcDbSymbolTableRecord
100
AcDbDimStyleTableRecord
  2
Standard
 70
0
 40
1.0
 41
2.5
 42
0.625
 43
3.75
 44
1.25
 45
0.0
 46
0.0
 47
0.0
 48
0.0
 49
2.5
140
2.5
141
2.5
142
0.0
143
0.03937007874
144
1.0
145
0.0
146
1.0
147
0.625
148
0.0
 69
0
 70
0
 71
0
 72
0
 73
0
 74
0
 75
0
 76
0
 77
1
 78
8
 79
3
170
0
171
3
172
1
173
0
174
0
175
0
176
0
177
0
178
0
179
2
271
2
272
2
273
2
274
3
275
0
276
0
277
2
278
44
279
0
280
0
281
0
282
0
283
0
284
8
285
0
286
0
288
0
289
3
290
0
371
-2
372
-2
  0
ENDTAB
  0
TABLE
  2
BLOCK_RECORD
  5
9
330
0
100
AcDbSymbolTable
 70
2
  0
BLOCK_RECORD
  5
17
330
9
100
AcDbSymbolTableRecord
100
AcDbBlockTableRecord
  2
*Model_Space
340
1A
 70
0
280
1
281
0
  0
BLOCK_RECORD
  5
1B
330
9
100
AcDbSymbolTableRecord
100
AcDbBlockTableRecord
  2
*Paper_Space
340
1E
 70
0
280
1
281
0
  0
ENDTAB
  0
ENDSEC
  0
SECTION
  2
BLOCKS
  0
BLOCK
  5
18
330
17
100
AcDbEntity
  8
0
100
AcDbBlockBegin
  2
*Model_Space
 70
0
 10
0.0
 20
0.0
 30
0.0
  3
*Model_Space
  1

  0
ENDBLK
  5
19
330
17
100
AcDbEntity
  8
0
100
AcDbBlockEnd
  0
BLOCK
  5
1C
330
1B
100
AcDbEntity
  8
0
100
AcDbBlockBegin
  2
*Paper_Space
 70
0
 10
0.0
 20
0.0
 30
0.0
  3
*Paper_Space
  1

  0
ENDBLK
  5
1D
330
1B
100
AcDbEntity
  8
0
100
AcDbBlockEnd
  0
ENDSEC
  0
SECTION
  2
ENTITIES
  0
LWPOLYLINE
  5
2F
330
17
100
AcDbEntity
  8
0
100
AcDbPolyline
 90
721
 70
1
 10
85.94183871257674
 20
44.74983219958581
 10
85.93894497185912
 20
44.749446771845776
 10
85.93039666108058
 20
44.748033273932705
 10
85.9164591382647
 20
44.745078175812715
 10
85.896872009009
 20
44.7407703756979
 10
85.87208987198846
 20
44.7348601705951
 10
85.84191865570918
 20
44.72740810832765
 10
85.80629680171579
 20
44.718218292899124
 10
85.76548000634683
 20
44.70742594400372
 10
85.719406711147
 20
44.694835165645046
 10
85.66781632254587
 20
44.680635241471784
 10
85.61109731547778
 20
44.66470443344291
 10
85.54912167580017
 20
44.64697545290847
 10
85.48182301421524
 20
44.62757677873612
 10
85.4093341093186
 20
44.60625145319058
 10
85.33152204973604
 20
44.58325669096486
 10
85.24858110612932
 20
44.558531558799
 10
85.16038326435589
 20
44.532008768043035
 10
85.06686213511792
 20
44.50381679756463
 10
84.96827824559644
 20
44.47376649219393
 10
84.86437086944252
 20
44.44204739253738
 10
84.75527271886259
 20
44.4084026693386
 10
84.64110664521017
 20
44.3732246285059
 10
84.52155539369134
 20
44.33618215434867
 10
84.39700240922998
 20
44.29747826912649
 10
84.26719192909829
 20
44.25697788162407
 10
84.13225163549225
 20
44.214748922885626
 10
83.99218146202257
 20
44.17079152139008
 10
83.84691495300211
 20
44.12523428448388
 10
83.69645190926298
 20
44.078077597603645
 10
83.54092504301158
 20
44.02906463149301
 10
83.3802015092629
 20
43.978452472366065
 10
83.21447531312158
 20
43.926180700878355
 10
83.04355218392574
 20
43.87231025028981
 10
82.86756463471399
 20
43.81658467678066
 10
82.6865077682545
 20
43.75932848369382
 10
82.50031499608154
 20
43.70067053533353
 10
82.30918535331008
 20
43.64022565205465
 10
82.1128579808126
 20
43.57818363142136
 10
81.91165496422549
 20
43.514551214260216
 10
81.70525395235518
 20
43.449322173660164
 10
81.49391057515086
 20
43.38263185779421
 10
81.2774967520808
 20
43.314413106491344
 10
81.05614023173025
 20
43.24473372231696
 10
80.82977932286529
 20
43.17339806623233
 10
80.5985417740713
 20
43.100473940802914
 10
80.36216672622064
 20
43.026151143592855
 10
80.12097619856051
 20
42.95043654390762
 10
79.87484211055903
 20
42.873262981576126
 10
79.62376432943769
 20
42.794630713556145
 10
79.36774252324989
 20
42.71454038224197
 10
79.10683818406179
 20
42.63318801210893
 10
78.8409894878608
 20
42.550378221076045
 10
78.57025786032368
 20
42.4663071620975
 10
78.29470935880181
 20
42.38084699869999
 10
78.01447669550164
 20
42.29374090162716
 10
77.72955470763418
 20
42.205313888137375
 10
77.43968260246118
 20
42.11575562731597
 10
77.14486004803605
 20
42.025066761557234
 10
76.84541402722718
 20
41.93292952834489
 10
76.54127788517944
 20
41.83947292046202
 10
76.23245148911421
 20
41.74469719486635
 10
75.91873533919147
 20
41.64898843055509
 10
75.6004611827326
 20
41.551704618626744
 10
75.27762398972719
 20
41.45317051938193
 10
74.95015717170955
 20
41.35351499712491
 10
74.61786619246067
 20
41.25279949903109
 10
74.28107300483833
 20
41.15103102288478
 10
73.93971585121933
 20
41.04801405812618
 10
73.59379459882507
 20
40.943748861713026
 10
73.24330408486658
 20
40.83856045090369
 10
72.8885096009781
 20
40.73193542414317
 10
72.52915035442133
 20
40.62406345051676
 10
72.16541545306914
 20
40.5152086140229
 10
71.79730469775366
 20
40.4053713000982
 10
71.42482278653874
 20
40.29422739083636
 10
71.04790299818009
 20
40.18190600749933
 10
70.66680096262687
 20
40.06854249826016
 10
70.28125575436232
 20
39.954326789161925
 10
69.89146634211214
 20
39.83887382903837
 10
69.49756040807233
 20
39.722251548933755
 10
69.09953775307503
 20
39.60446033428468
 10
68.69726526657797
 20
39.48575778522074
 10
68.29074274941333
 20
39.36614428717853
 10
67.88003639171103
 20
39.24549174672702
 10
67.46546821271826
 20
39.12380703317171
 10
67.04671566207341
 20
39.00108430503803
 10
66.62390648836191
 20
38.87739136489142
 10
66.19736760806268
 20
38.75241057869442
 10
65.76690435217809
 20
38.626203650580194
 10
65.33244530139993
 20
38.499223819717
 10
64.89411820431349
 20
38.37153888867025
 10
64.45179961206159
 20
38.24275770784143
 10
64.00594445526568
 20
38.11262993184303
 10
63.55628691117715
 20
37.981669990061
 10
63.102893169925885
 20
37.84974978906431
 10
62.6456965766569
 20
37.71699832163609
 10
62.18495759216194
 20
37.58322656108531
 10
61.72067608366244
 20
37.448434764369786
 10
61.25272377145862
 20
37.31255615675497
 10
60.78128996259126
 20
37.17585443680277
 10
60.30624651013918
 20
37.03826257282095
 10
59.82785394128348
 20
36.89959140963967
 10
59.346111990466945
 20
36.7598414611744
 10
58.86114847266421
 20
36.619080401511695
 10
58.37276871887774
 20
36.477369934784726
 10
57.88096776548638
 20
36.33503469281523
 10
57.385816434294775
 20
36.19162259274479
 10
56.887632312043266
 20
36.04746410786967
 10
56.386424662081176
 20
35.90191125933504
 10
55.88212676316404
 20
35.75509316840279
 10
55.37479534290477
 20
35.60753010593343
 10
54.86436374644833
 20
35.45935106471004
 10
54.35077491423537
 20
35.31003641626652
 10
53.83467354865311
 20
35.15959861442507
 10
53.315741731014654
 20
35.00770782828376
 10
52.79403605615426
 20
34.85488458566078
 10
52.26936192146366
 20
34.70119046221041
 10
51.7420416117472
 20
34.546631813322676
 10
51.21214608158803
 20
34.390756299181355
 10
50.67967036736504
 20
34.233888551608224
 10
50.144481424925345
 20
34.07628604225401
 10
49.60691106797965
 20
33.91730663373834
 10
49.06702548665795
 20
33.756822232630206
 10
48.52474862997737
 20
33.59561006752531
 10
47.97989059339355
 20
33.43340759617164
 10
47.432640883115035
 20
33.2704781316944
 10
46.88339770215049
 20
33.10605105784565
 10
46.332094462034114
 20
32.94025523892957
 10
45.77859825139159
 20
32.77334788963916
 10
45.22270957038283
 20
32.605715088971614
 10
44.66495013726297
 20
32.436977241798594
 10
44.105329016213325
 20
32.266486754701816
 10
43.54403128093577
 20
32.09483054479736
 10
42.980468491930864
 20
31.922517328475514
 10
42.41503428692185
 20
31.749100350436862
 10
41.847993891153735
 20
31.57406633760528
 10
41.27947075348376
 20
31.397806439579284
 10
40.70914199160385
 20
31.220315457278666
 10
40.13719731089057
 20
31.041856318392078
 10
39.56357482094203
 20
30.862233769317427
 10
38.9885353144965
 20
30.681258140969415
 10
38.41220680569651
 20
30.498996721997976
 10
37.834460948453035
 20
30.315382866147505
 10
37.25555397021905
 20
30.13055076528129
 10
36.6752293779844
 20
29.94436674145152
 10
36.09361048782771
 20
29.757222201214446
 10
35.51076375543615
 20
29.568988537223575
 10
34.92702086174186
 20
29.379023869056297
 10
34.3422488953705
 20
29.187585411405568
 10
33.75663776086648
 20
28.994935706523417
 10
33.169864575921785
 20
28.801069555329676
 10
32.582318346585076
 20
28.60586419195236
 10
31.994065395764963
 20
28.409191266002736
 10
31.405172046369987
 20
28.210922427092036
 10
30.815505254247217
 20
28.011315146870977
 10
30.225126909798565
 20
27.81056467894166
 10
29.634036813856063
 20
27.608671408740665
 10
29.04256228123448
 20
27.405316931357344
 10
28.45064142153198
 20
27.200305993189627
 10
27.858468704578225
 20
26.99357727554095
 10
27.26597317579006
 20
26.78558311822751
 10
26.672827321184833
 20
26.576642311596558
 10
26.079420345979177
 20
26.366631704339547
 10
25.486155084856264
 20
26.15445669078103
 10
24.89263300286102
 20
25.94088852956334
 10
24.29904433648432
 20
25.72618912054417
 10
23.7053933854543
 20
25.51003511669041
 10
23.111746605458073
 20
25.292297910655567
 10
22.518161188833663
 20
25.073496873948056
 10
21.92457537795774
 20
24.853436496008033
 10
21.331316421255778
 20
24.63179850040373
 10
20.738256039028045
 20
24.408516112400658
 10
20.145584467765417
 20
24.18385123185653
 10
19.55323518539144
 20
23.95793259459669
 10
18.961407426189
 20
23.730374635539413
 10
18.370034668081637
 20
23.50130609051004
 10
17.779178867860537
 20
23.270922084631824
 10
17.188512577932325
 20
23.03954127977313
 10
16.598690693483682
 20
22.806526352197178
 10
16.0097132145146
 20
22.571877301903974
 10
15.421513818116514
 20
22.33572247928228
 10
14.83402598221296
 20
22.098190620157432
 10
14.247444574969434
 20
21.859219634959697
 10
13.66157486099902
 20
21.618871356301074
 10
13.076739855388363
 20
21.377150726304023
 10
12.493072403122474
 20
21.133800658754442
 10
11.910506114903498
 20
20.888949632519942
 10
11.32897466782285
 20
20.642725997989274
 10
10.748544451178425
 20
20.395001276294835
 10
10.169605068522571
 20
20.145651545254836
 10
9.591895328781252
 20
19.89486724482779
 10
9.015410932226347
 20
19.642971722046802
 10
8.440355479258159
 20
19.38925593631817
 10
7.866852949848294
 20
19.13411000940946
 10
7.294704375271072
 20
18.87791899248695
 10
6.723980444552467
 20
18.620231059649903
 10
6.155070894023432
 20
18.36092203175881
 10
5.587843011477551
 20
18.10024873807005
 10
5.0223011630322185
 20
17.83788770307164
 10
4.458569527826946
 20
17.574228663094555
 10
3.896652538368462
 20
17.308948014147965
 10
3.3367406967048105
 20
17.042307142174078
 10
2.778378142764364
 20
16.774558191264546
 10
2.2219546128780885
 20
16.505576982279873
 10
1.667735664237449
 20
16.234849599749584
 10
1.1156551067124736
 20
15.96250413710468
 10
0.565642184887888
 20
15.68899254872477
 10
0.017763553618749966
 20
15.414185841826754
 10
-0.5279143314077879
 20
15.137955409064148
 10
-1.0712629249347942
 20
14.86036751125595
 10
-1.6125434180363236
 20
14.581612588360667
 10
-2.1517598448833097
 20
14.30201347349593
 10
-2.6885181694166627
 20
14.021122640489127
 10
-3.222685480262042
 20
13.738682874647294
 10
-3.7543943568473055
 20
13.454950748269058
 10
-4.283576601787285
 20
13.170109309464083
 10
-4.810349938883352
 20
12.884071355357952
 10
-5.334652079397847
 20
12.59703136867955
 10
-5.856420933761038
 20
12.309184217594353
 10
-6.37551942364906
 20
12.019949597334026
 10
-6.891819070194304
 20
11.729393897196436
 10
-7.405523341018481
 20
11.438225900817542
 10
-7.916627936393469
 20
11.146122261164239
 10
-8.424809509286177
 20
10.853087277964642
 10
-8.930325017431832
 20
10.55898817262302
 10
-9.432917503095203
 20
10.263957723735102
 10
-9.932591266004398
 20
9.968319278333997
 10
-10.429669653192526
 20
9.672068536691588
 10
-10.923692239302634
 20
9.374629493767646
 10
-11.414800402386685
 20
9.076905801363617
 10
-11.903255399908018
 20
8.779088027916881
 10
-12.388787374947068
 20
8.48033891092385
 10
-12.871010890900976
 20
8.180857618278125
 10
-13.35025359453096
 20
7.880963197284691
 10
-13.826581875134883
 20
7.580784126811177
 10
-14.299862954117009
 20
7.280063449122341
 10
-14.769906263039967
 20
6.979062421681536
 10
-15.236968759639003
 20
6.677648265893027
 10
-15.700992654072474
 20
6.376339196955402
 10
-16.161845167744644
 20
6.074878257133429
 10
-16.619459911357644
 20
5.773136967559486
 10
-17.073903274209357
 20
5.471243807101189
 10
-17.525179556027876
 20
5.169522122791648
 10
-17.97341723568083
 20
4.867905525332995
 10
-18.418226576837245
 20
4.566269835585727
 10
-18.859607579497126
 20
4.264615053549836
 10
-19.29762233323022
 20
3.9627463110598424
 10
-19.73220874846678
 20
3.660858476281229
 10
-20.1635659931004
 20
3.3593369858168574
 10
-20.591631977561324
 20
3.0583767078322133
 10
-21.01614114465809
 20
2.757463726856814
 10
-21.43722197325832
 20
2.456531653592801
 10
-21.854422637461294
 20
2.1556511770661464
 10
-22.26819926289584
 20
1.8550749552839787
 10
-22.678618238859826
 20
1.5549314671139172
 10
-23.085422607618018
 20
1.2553534911516986
 10
-23.488545979872548
 20
0.9562125485296943
 10
-23.887917666597428
 20
0.6570568133471892
 10
-24.283674746116517
 20
0.3584665903725253
 10
-24.67601638632341
 20
0.06082731620855256
 10
-25.064482161861154
 20
-0.2364370141849495
 10
-25.449200551597364
 20
-0.5333927901058486
 10
-25.830047376392542
 20
-0.8296502752231792
 10
-26.207151115114304
 20
-1.1252758588348022
 10
-26.58057815706052
 20
-1.420141062073104
 10
-26.95000085546996
 20
-1.714564932243067
 10
-27.31555198893837
 20
-2.008290511609463
 10
-27.677231557465745
 20
-2.3013178001722827
 10
-28.035305118243546
 20
-2.593132882461054
 10
-28.389449324238683
 20
-2.883731458747664
 10
-28.739721965292773
 20
-3.1736317442307
 10
-29.085861783942477
 20
-3.4630243073475375
 10
-29.428005858511643
 20
-3.75132884332983
 10
-29.76641544646362
 20
-4.038354783740207
 10
-30.100696511739322
 20
-4.324549654751279
 10
-30.430853354066866
 20
-4.609590109329941
 10
-30.75720932047935
 20
-4.893480447204306
 10
-31.079507453241543
 20
-5.176087889778641
 10
-31.397548584459837
 20
-5.457797873655805
 10
-31.71153188202785
 20
-5.738224962232939
 10
-32.02152373524342
 20
-6.017240676642425
 10
-32.327457754808705
 20
-6.294973495751881
 10
-32.629205461856074
 20
-6.57135703026344
 10
-32.926700467087656
 20
-6.846519759044723
 10
-33.22013763866895
 20
-7.120399592525977
 10
-33.509260018864715
 20
-7.392863752111469
 10
-33.79420038627068
 20
-7.66365528006596
 10
-34.07508292002635
 20
-7.933163912720419
 10
-34.35152218352887
 20
-8.201190482181254
 10
-34.62358026634797
 20
-8.467929856613939
 10
-34.89152272567516
 20
-8.73286812054801
 10
-35.15534956151041
 20
-8.996005273983453
 10
-35.41479951639037
 20
-9.257531885357656
 10
-35.66980620101719
 20
-9.517576433538228
 10
-35.92043170496059
 20
-9.776333786690653
 10
-36.16675101697469
 20
-10.033028771881108
 10
-36.40882622662925
 20
-10.287856257275076
 10
-36.64652455532852
 20
-10.541073200607796
 10
-36.87971752420488
 20
-10.792613212581404
 10
-37.10853791185407
 20
-11.042219335460652
 10
-37.33285293968035
 20
-11.290148526980792
 10
-37.55272899698159
 20
-11.536272308274196
 10
-37.76823247305567
 20
-11.780462200473243
 10
-37.979102110439214
 20
-12.02290877201531
 10
-38.185537077025835
 20
-12.263226586297542
 10
-38.387400294491684
 20
-12.501995948088275
 10
-38.58482884116061
 20
-12.738636552619168
 10
-38.77775632773474
 20
-12.973276878757844
 10
-38.96611636491622
 20
-13.206045405371919
 10
-39.14978047383742
 20
-13.436875743163524
 10
-39.32894352266382
 20
-13.665705802562913
 10
-39.50367620042142
 20
-13.892083757669358
 10
-39.673845728514465
 20
-14.116266566218094
 10
-39.83945210694297
 20
-14.338254228209127
 10
-40.000690203872416
 20
-14.557984654072698
 10
-40.1572366722697
 20
-14.7754535440807
 10
-40.30935276959817
 20
-14.990470329795754
 10
-40.45704279558593
 20
-15.202711664184761
 10
-40.60043522910063
 20
-15.412243936545588
 10
-40.7392688126789
 20
-15.619257715315605
 10
-40.873738414486205
 20
-15.823690910925048
 10
-41.00358707678733
 20
-16.025410744778203
 10
-41.12920453591326
 20
-16.224293037735556
 10
-41.25040022342659
 20
-16.420076532333745
 10
-41.36716983959922
 20
-16.613084575605896
 10
-41.479513384431165
 20
-16.80331716755199
 10
-41.58743085792239
 20
-16.99077430817204
 10
-41.69092655980105
 20
-17.17513265043293
 10
-41.79000049006712
 20
-17.356392194334667
 10
-41.88458195969463
 20
-17.535004765777973
 10
-41.97474165770955
 20
-17.71051853886212
 10
-42.060214026920406
 20
-17.8834474290576
 10
-42.1412646245187
 20
-18.05327752089392
 10
-42.21762789331293
 20
-18.220522729841566
 10
-42.28943661189884
 20
-18.384926098165288
 10
-42.356690780276445
 20
-18.546487625865105
 10
-42.41919553028024
 20
-18.705269402510748
 10
-42.4773405982412
 20
-18.861147248962723
 10
-42.53054137966287
 20
-19.014307433930295
 10
-42.57931608974384
 20
-19.164692167571815
 10
-42.62334138145101
 20
-19.312297150159168
 10
-42.662816422677984
 20
-19.456736945089506
 10
-42.69773691369662
 20
-19.598334899395923
 10
-42.72804076493721
 20
-19.73689614491294
 10
-42.753993533591185
 20
-19.87190676617008
 10
-42.775524530632566
 20
-20.00381858906806
 10
-42.79263805578948
 20
-20.132308266573784
 10
-42.80546688765766
 20
-20.257118840952007
 10
-42.814276583428565
 20
-20.377736396732256
 10
-42.8190671431022
 20
-20.49416093391452
 10
-42.820099824141906
 20
-20.606201884061445
 10
-42.8174496153018
 20
-20.713084074239195
 10
-42.81151055264094
 20
-20.814359978275146
 10
-42.80307500800562
 20
-20.90881119679098
 10
-42.79235074874567
 20
-20.995405599117635
 10
-42.78052848249457
 20
-21.07215391267106
 10
-42.76879891688581
 20
-21.13706686486721
 10
-42.758498437332925
 20
-21.186928184287492
 10
-42.751415255150214
 20
-21.218592288539284
 10
-42.32956235097063
 20
-22.040962128154202
 10
-42.32373539829467
 20
-22.046253153743333
 10
-42.30632092956468
 20
-22.06199775164309
 10
-42.27758450197209
 20
-22.087682006383005
 10
-42.23626901858558
 20
-22.125423669414737
 10
-42.181237261885194
 20
-22.178053575554028
 10
-42.115812996492345
 20
-22.238824434386807
 10
-42.04192581177329
 20
-22.303687011719
 10
-41.96069572633552
 20
-22.37110386086729
 10
-41.87338843656662
 20
-22.438310536313804
 10
-41.78047296727978
 20
-22.504084338952104
 10
-41.68253822269954
 20
-22.567915653039826
 10
-41.57972128114977
 20
-22.629224173808616
 10
-41.47228769982193
 20
-22.68749598578801
 10
-41.36037025731176
 20
-22.742474131242762
 10
-41.243968953619245
 20
-22.794158610172875
 10
-41.12327865690988
 20
-22.84248733300859
 10
-40.99830366691177
 20
-22.88713695271681
 10
-40.86897759432706
 20
-22.928235948165153
 10
-40.73549530732123
 20
-22.965722229783857
 10
-40.597595548430924
 20
-22.999786366010305
 10
-40.455344706954016
 20
-23.030299877976873
 10
-40.309132519221485
 20
-23.057138586544053
 10
-40.158374380736845
 20
-23.080488760421115
 10
-40.003522117400856
 20
-23.10042108863402
 10
-39.84425238218038
 20
-23.11693127145467
 10
-39.68076004324093
 20
-23.12995721931331
 10
-39.51311148988035
 20
-23.139370453342316
 10
-39.34110755420506
 20
-23.14555641014454
 10
-39.16488101481079
 20
-23.14825813198476
 10
-38.98416631450606
 20
-23.147989534333444
 10
-38.79916262118448
 20
-23.144365180587737
 10
-38.60986563511793
 20
-23.137708417780733
 10
-38.41614687743879
 20
-23.127952856614577
 10
-38.21787356955135
 20
-23.11535545482451
 10
-38.015240579621064
 20
-23.099854122840767
 10
-37.80818151835009
 20
-23.08157733953098
 10
-37.59669638573841
 20
-23.06052510489514
 10
-37.38045753502482
 20
-23.037016466238242
 10
-37.1597883132424
 20
-23.011055723288404
 10
-36.934498151953825
 20
-22.98238161858227
 10
-36.704844008894284
 20
-22.951126930715567
 10
-36.47056462660044
 20
-22.91748222812567
 10
-36.23178848393994
 20
-22.881513900110452
 10
-35.988453491342995
 20
-22.843027078504427
 10
-35.740820906272965
 20
-22.80183119487021
 10
-35.48869586056439
 20
-22.757988338777572
 10
-35.232268922654605
 20
-22.711759767689855
 10
-34.97141161367601
 20
-22.663079092309186
 10
-34.70612393362861
 20
-22.611946312635578
 10
-34.43660505040599
 20
-22.557975992066165
 10
-34.16298344287578
 20
-22.50123451989882
 10
-33.88513063217036
 20
-22.44165550683567
 10
-33.60304231856161
 20
-22.37956229990982
 10
-33.31671850204954
 20
-22.31495489912128
 10
-33.02642473982561
 20
-22.24731938899956
 10
-32.7321567321617
 20
-22.176979116577765
 10
-32.43385238948806
 20
-22.103739213690424
 10
-32.131445322506835
 20
-22.027728159205143
 10
-31.825064010085626
 20
-21.949012342419792
 10
-31.514774841522325
 20
-21.867463284466748
 10
-31.20051142751904
 20
-21.783209464213645
 10
-30.882273768075777
 20
-21.69625088166046
 10
-30.560128252490415
 20
-21.606459057939592
 10
-30.2341369703327
 20
-21.51402886121652
 10
-29.904299921602618
 20
-21.418960291491246
 10
-29.570555016730445
 20
-21.321058480598285
 10
-29.233026434855656
 20
-21.2207131648686
 10
-28.891652086408524
 20
-21.117729476136716
 10
-28.546365582091163
 20
-21.01223589327025
 10
-28.19736179006907
 20
-20.904170326699443
 10
-27.84483987823585
 20
-20.793147339821445
 10
-27.488600678697882
 20
-20.679552369239104
 10
-27.12838293399183
 20
-20.563575983389804
 10
-26.76463847001842
 20
-20.445288871299518
 10
-26.397243107638136
 20
-20.324301296637277
 10
-26.026263236148846
 20
-20.200484780535458
 10
-25.65182303469007
 20
-20.074229059325035
 10
-25.273727635096307
 20
-19.945596222575762
 10
-24.89210981596329
 20
-19.8143293125524
 10
-24.507098056158657
 20
-19.680494718552815
 10
-24.118758744980248
 20
-19.543963961709387
 10
-23.726892714534483
 20
-19.405122478624975
 10
-23.33163274341708
 20
-19.263713311564334
 10
-22.932846053032325
 20
-19.119993418262716
 10
-22.530988769009035
 20
-18.97371014071298
 10
-22.12573754431412
 20
-18.82485917918703
 10
-21.717220857815196
 20
-18.673506922982718
 10
-21.305500799082015
 20
-18.51984824026553
 10
-20.890581667842685
 20
-18.363559784002376
 10
-20.472459164369102
 20
-18.204964901226344
 10
-20.051328156826738
 20
-18.044001502367685
 10
-19.62706446607611
 20
-17.88027985109544
 10
-19.199925049852435
 20
-17.71393272600533
 10
-18.769710740262123
 20
-17.54534556370021
 10
-18.336421537305178
 20
-17.374518364180087
 10
-17.900057440981588
 20
-17.20145112744496
 10
-17.46094609805258
 20
-17.02582480618984
 10
-17.019220287113882
 20
-16.84738244267948
 10
-16.574485972106423
 20
-16.6665715630865
 10
-16.127000110765422
 20
-16.48352494600662
 10
-15.676767002819004
 20
-16.29791924440675
 10
-15.224047905730519
 20
-16.109563889849515
 10
-14.768643651606371
 20
-15.918844318937767
 10
-14.310549940718436
 20
-15.726083878704607
 10
-13.849771072794839
 20
-15.530959222116945
 10
-13.386506215729176
 20
-15.33308491257191
 10
-12.920879548660945
 20
-15.132850686400479
 10
-12.45282468229229
 20
-14.93038502247027
 10
-11.982084658887972
 20
-14.725555142185552
 10
-11.509111304348709
 20
-14.518431734572303
 10
-11.03390891840262
 20
-14.308691452597419
 10
-10.556477501049699
 20
-14.096334296260896
 10
-10.076879141859699
 20
-13.881555133728222
 10
-9.594781894343297
 20
-13.664996359337497
 10
-9.1105134052617
 20
-13.446338925783726
 10
-8.62421075293877
 20
-13.22500252829857
 10
-8.135807548076624
 20
-13.00111564574964
 10
-7.645560748410514
 20
-12.774811056732677
 10
-7.153076317881338
 20
-12.546536287420285
 10
-6.658615513952469
 20
-12.316100769375097
 10
-6.162178336623891
 20
-12.083504502597112
 10
-5.663897564491343
 20
-11.848490529351087
 10
-5.163706808256959
 20
-11.611187328504647
 10
-4.661730247060248
 20
-11.371984636388765
 10
-4.157843701761698
 20
-11.130492716672462
 10
-3.6524369086922794
 20
-10.886587390216233
 10
-3.1454434785541276
 20
-10.640397135887703
 10
-2.636797022049382
 20
-10.392050432554491
 10
-2.1264354496082865
 20
-10.141352412051106
 10
-1.6148769764294353
 20
-9.888245284535918
 10
-1.1020595129430613
 20
-9.632534181843425
 10
-0.5874562444943611
 20
-9.374923587881492
 10
-0.0713905181164328
 20
-9.115417802378225
 10
0.445610851535899
 20
-8.853312341425777
 10
0.9640039900914813
 20
-8.58885986303127
 10
1.483726807980551
 20
-8.322255235360197
 10
2.004389568872147
 20
-8.053374279273042
 10
2.5261828412036316
 20
-7.781955737306463
 10
3.048849667239776
 20
-7.508132388056183
 10
3.5727840830396587
 20
-7.232351757694822
 10
4.097724831139926
 20
-6.9544232777850015
 10
4.6232114861836395
 20
-6.67377094328649
 10
5.149571694931994
 20
-6.390713801504288
 10
5.676942535708857
 20
-6.105832157206731
 10
6.204996560920896
 20
-5.818807348525433
 10
6.733806615204118
 20
-5.529465320871463
 10
7.263383106102034
 20
-5.23814124133375
 10
7.7934606755910885
 20
-4.94432157987841
 10
8.324039456449865
 20
-4.648006593463187
 10
8.855256527002206
 20
-4.349776586856423
 10
9.38705006323556
 20
-4.049826942139073
 10
9.919482221108979
 20
-3.7479629196245154
 10
10.452225420250528
 20
-3.4438656004866353
 10
10.98541250564525
 20
-3.1377920709395326
 10
11.519043742850336
 20
-2.829742844898678
 10
12.052990586608866
 20
-2.5197841831830696
 10
12.587054068195132
 20
-2.2075310346264563
 10
13.12136696620487
 20
-1.8932403569640726
 10
13.655937880094308
 20
-1.5775588442621307
 10
14.190957643857997
 20
-1.2602257529727543
 10
14.725970065477826
 20
-0.9409882966099371
 10
15.261170145897859
 20
-0.6199088217011768
 10
15.796300927382854
 20
-0.297120106842209
 10
16.33155734448761
 20
0.027315629918353356
 10
16.866873074303538
 20
0.3535267389692541
 10
17.402057548393284
 20
0.6812519628471503
 10
17.93737202422021
 20
1.0103007331146718
 10
18.472750311654313
 20
1.3408011432028206
 10
19.0078688644946
 20
1.6727492788200917
 10
19.542922683685166
 20
2.0060827934390004
 10
20.077916068954124
 20
2.3404783400264426
 10
20.61271200836691
 20
2.6765160948718867
 10
21.14718619000545
 20
3.0138065786021127
 10
21.681471392465447
 20
3.3520928334818616
 10
22.215501292838354
 20
3.6915032098998988
 10
22.74914311252842
 20
4.032294665591456
 10
23.282529696520694
 20
4.374210114342432
 10
23.815536533729162
 20
4.716860462216186
 10
24.348159457204325
 20
5.060568799288098
 10
24.880469155972158
 20
5.404883299657437
 10
25.412266329360456
 20
5.7501896568848005
 10
25.943484654460658
 20
6.096616221358936
 10
26.474256909868497
 20
6.443906035344603
 10
27.004524907406523
 20
6.791541654516412
 10
27.534417325110297
 20
7.139589082735649
 10
28.063606383439975
 20
7.488367624265021
 10
28.59215833891482
 20
7.837749057194642
 10
29.12007325792415
 20
8.187733253045657
 10
29.647417396987226
 20
8.538191989908178
 10
30.173867077124456
 20
8.889121610448425
 10
30.699617365669226
 20
9.240459639660049
 10
31.224605774715958
 20
9.592011980250753
 10
31.74909389367455
 20
9.943587421388855
 10
32.27255861011457
 20
10.295568256258877
 10
32.79506637972322
 20
10.647825877514355
 10
33.31707762785742
 20
10.999784280115053
 10
33.83793672904827
 20
11.352082201065294
 10
34.35757709482998
 20
11.704848504669288
 10
34.876525739025304
 20
12.0573783215826
 10
35.3946579513803
 20
12.409282943305183
 10
35.91170400775403
 20
12.761399375382892
 10
36.42760155301951
 20
13.11353326356571
 10
36.942221709973374
 20
13.465618989428986
 10
37.455825935246864
 20
13.817465599098735
 10
37.968351807323685
 20
14.1688788668038
 10
38.479865516333874
 20
14.519730699113191
 10
38.99010560564616
 20
14.870212049900859
 10
39.4989390311076
 20
15.220580390817522
 10
40.00656489422252
 20
15.570450413739193
 10
40.51298312860161
 20
15.919822247144728
 10
41.01800243552523
 20
16.268436046838335
 10
41.52188023745371
 20
16.616423692063663
 10
42.02415974486521
 20
16.964039125616505
 10
42.52490721427902
 20
17.311154125587002
 10
43.02445432662727
 20
17.657126811552505
 10
43.52273475900139
 20
18.002085533901774
 10
44.01935791200956
 20
18.3461561419996
 10
44.51464759740995
 20
18.689342036222016
 10
45.00827973788717
 20
19.031640330108445
 10
45.500382945087445
 20
19.37311715599903
 10
45.9909610540138
 20
19.713450066212733
 10
46.479885121073536
 20
20.052573570803766
 10
46.96741660289793
 20
20.39029671589816
 10
47.4530985107972
 20
20.726873829728298
 10
47.93718826723172
 20
21.062436791537852
 10
48.4193617948861
 20
21.39698271486626
 10
48.90001709760103
 20
21.72974136890213
 10
49.37902529817315
 20
22.060647135220812
 10
49.85624548327553
 20
22.39060276627167
 10
50.33122463200012
 20
22.719539885648352
 10
50.80475128119018
 20
23.046562541653568
 10
51.276501287140995
 20
23.371667976305602
 10
51.74620876071464
 20
23.695370747469273
 10
52.21387356913249
 20
24.01767111210231
 10
52.67956190252456
 20
24.33844097677372
 10
53.14360557460154
 20
24.65703820410311
 10
53.60561378680373
 20
24.973589028891894
 10
54.065644992865735
 20
25.288610381549972
 10
54.523441172823546
 20
25.6019715391435
 10
54.979134906105
 20
25.913415929373834
 10
55.43285883852726
 20
26.222686851463486
 10
55.884479925937356
 20
26.530041777063143
 10
56.33386902557472
 20
26.83541560166363
 10
56.7812876604599
 20
27.138617242912108
 10
57.22647781062888
 20
27.439515977874716
 10
57.66936905261288
 20
27.738563118536707
 10
58.10970323366929
 20
28.035628198921977
 10
58.54799969761474
 20
28.330651245048113
 10
58.98387531589561
 20
28.62311359635447
 10
59.41758777652938
 20
28.913146618169225
 10
59.84907042466101
 20
29.200879303275467
 10
60.277932461730686
 20
29.48643788647456
 10
60.70423994508992
 20
29.76969453129327
 10
61.12831688566466
 20
30.05065225267099
 10
61.54984277558547
 20
30.328986230381627
 10
61.96907900509422
 20
30.60450563903004
 10
62.38569726353678
 20
30.877530810709928
 10
62.79975983965075
 20
31.148256228150153
 10
63.21120397997339
 20
31.416488307973896
 10
63.62002941894754
 20
31.682227564096646
 10
64.02630611531687
 20
31.945023583885213
 10
64.42996371200194
 20
32.20532755084601
 10
64.83081037916867
 20
32.462880648614124
 10
65.22884201625688
 20
32.718005838786105
 10
65.62425765838152
 20
32.97031794171678
 10
66.01699441930134
 20
33.21962363098712
 10
66.40685286556545
 20
33.46630885711542
 10
66.79383279800604
 20
33.7103740055383
 10
67.1779339510659
 20
33.95181959017124
 10
67.55903095059814
 20
34.19025818730287
 10
67.93751426321602
 20
34.425564204526125
 10
68.31292273328032
 20
34.65831506014882
 10
68.685193540939
 20
34.888317299272984
 10
69.05445536422755
 20
35.11563692575989
 10
69.42071177259187
 20
35.33995200584396
 10
69.78376716758413
 20
35.561326042362516
 10
70.14381291431332
 20
35.78001875103249
 10
70.50078989515183
 20
35.99551448623263
 10
70.85456513233603
 20
36.208070591134806
 10
71.2052048159959
 20
36.417558972307965
 10
71.55250944629135
 20
36.62436570874933
 10
71.8966116026502
 20
36.82823422816025
 10
72.23738200953329
 20
37.02909968298928
 10
72.5748868570706
 20
37.22683397980543
 10
72.90918856677828
 20
37.421631344379776
 10
73.23996246383737
 20
37.613490046561616
 10
73.56720821630137
 20
37.80241072874528
 10
73.89112109067152
 20
37.988330530487794
 10
74.211767542635
 20
38.17112084444268
 10
74.52869151295225
 20
38.351034200138194
 10
74.84201577101126
 20
38.52814803605481
 10
75.15194592446758
 20
38.70206445313952
 10
75.4582839184694
 20
38.87285170794773
 10
75.76089684164239
 20
39.0407670151724
 10
76.06004628339635
 20
39.205619163981815
 10
76.3555402811187
 20
39.367149594968865
 10
76.64737486702785
 20
39.52568101277231
 10
76.93548345265796
 20
39.681342281696345
 10
77.21973682885915
 20
39.834068425710676
 10
77.50026757505933
 20
39.98360287251666
 10
77.77700897001407
 20
40.130074743376255
 10
78.04982810234907
 20
40.27374125298244
 10
78.31879109580503
 20
40.41447443638307
 10
78.58390158621701
 20
40.551952231333686
 10
78.84515924163857
 20
40.68617528022866
 10
79.10242744847096
 20
40.81772298848424
 10
79.35564325408353
 20
40.94640215816023
 10
79.604806592087
 20
41.0722129177355
 10
79.84998351983273
 20
41.19502743073676
 10
80.09104489456013
 20
41.31478059265482
 10
80.32811946069403
 20
41.4315382788721
 10
80.56094536326735
 20
41.54549221413574
 10
80.7896550489294
 20
41.656386083104884
 10
81.0141156063058
 20
41.764477100472455
 10
81.23458869119568
 20
41.86957392692791
 10
81.45068323948213
 20
41.97180331118811
 10
81.66246173907074
 20
42.07135935054532
 10
81.8698613701094
 20
42.168048590101606
 10
82.07307739909942
 20
42.261808169414
 10
82.2718473071808
 20
42.35283109801838
 10
82.46643241820617
 20
42.44092667899847
 10
82.6563794612865
 20
42.52634204577014
 10
82.84200753453983
 20
42.609089720708965
 10
83.02306034412393
 20
42.68903564043059
 10
83.19966676724216
 20
42.76624542335965
 10
83.37182667111598
 20
42.84071932645389
 10
83.53947346727958
 20
42.91258621401754
 10
83.70254446865957
 20
42.9816523741949
 10
83.86090663110295
 20
43.048175278636684
 10
84.01475542027896
 20
43.11209168146335
 10
84.16389510496123
 20
43.17346534246992
 10
84.3083920080583
 20
43.232167911267624
 10
84.44817967388305
 20
43.288327995202984
 10
84.58332429256541
 20
43.341817500844954
 10
84.71375940841824
 20
43.392765035540044
 10
84.83935217645647
 20
43.44142768550233
 10
84.9601060997367
 20
43.48748364544515
 10
85.07621294170364
 20
43.53119186021222
 10
85.18721888477762
 20
43.572485495143596
 10
85.29357754737039
 20
43.61143177033583
 10
85.39503064396078
 20
43.64790047677053
 10
85.49144532956376
 20
43.68214870066183
 10
85.5830170034592
 20
43.714113324609
 10
85.6696164564972
 20
43.743729372581775
 10
85.751110910082
 20
43.77125380231532
 10
85.82776208640209
 20
43.79649514602024
 10
85.8993081304904
 20
43.8196451284437
 10
85.96581529886619
 20
43.84057552767581
 10
86.02715081293375
 20
43.859543301451836
 10
86.08338106199095
 20
43.87641997090413
 10
86.13456860033264
 20
43.891399504846106
 10
86.18045520882687
 20
43.90435156578052
 10
86.22110364093643
 20
43.91546973708421
 10
86.25664290664328
 20
43.92481938022406
 10
86.28681478681553
 20
43.932270157702824
 10
86.31161551283947
 20
43.93814438872269
 10
86.33124074955217
 20
43.94237844196749
 10
86.34529923366875
 20
43.945099451590686
 10
86.35385391781988
 20
43.94650061553246
 10
86.35677182424192
 20
43.94683927696468
  0
ENDSEC
  0
SECTION
  2
OBJECTS
  0
DICTIONARY
  5
A
330
0
100
AcDbDictionary
280
0
281
1
  3
ACAD_COLOR
350
B
  3
ACAD_GROUP
350
C
  3
ACAD_LAYOUT
350
D
  3
ACAD_MATERIAL
350
E
  3
ACAD_MLEADERSTYLE
350
F
  3
ACAD_MLINESTYLE
350
10
  3
ACAD_PLOTSETTINGS
350
11
  3
ACAD_PLOTSTYLENAME
350
12
  3
ACAD_SCALELIST
350
14
  3
ACAD_TABLESTYLE
350
15
  3
ACAD_VISUALSTYLE
350
16
  3
EZDXF_META
350
2D
  0
DICTIONARY
  5
B
330
A
100
AcDbDictionary
280
0
281
1
  0
DICTIONARY
  5
C
330
A
100
AcDbDictionary
280
0
281
1
  0
DICTIONARY
  5
D
330
A
100
AcDbDictionary
280
0
281
1
  3
Model
350
1A
  3
Layout1
350
1E
  0
DICTIONARY
  5
E
330
A
100
AcDbDictionary
280
0
281
1
  3
ByBlock
350
1F
  3
ByLayer
350
20
  3
Global
350
21
  0
DICTIONARY
  5
F
330
A
100
AcDbDictionary
280
0
281
1
  3
Standard
350
2C
  0
DICTIONARY
  5
10
330
A
100
AcDbDictionary
280
0
281
1
  3
Standard
350
22
  0
DICTIONARY
  5
11
330
A
100
AcDbDictionary
280
0
281
1
  0
ACDBDICTIONARYWDFLT
  5
12
330
A
100
AcDbDictionary
280
0
281
1
  3
Normal
350
13
100
AcDbDictionaryWithDefault
340
13
  0
ACDBPLACEHOLDER
  5
13
330
12
  0
DICTIONARY
  5
14
330
A
100
AcDbDictionary
280
0
281
1
  0
DICTIONARY
  5
15
330
A
100
AcDbDictionary
280
0
281
1
  0
DICTIONARY
  5
16
330
A
100
AcDbDictionary
280
0
281
1
  0
LAYOUT
  5
1A
330
D
100
AcDbPlotSettings
  1

  4
A3
  6

 40
7.5
 41
20.0
 42
7.5
 43
20.0
 44
420.0
 45
297.0
 46
0.0
 47
0.0
 48
0.0
 49
0.0
140
0.0
141
0.0
142
1.0
143
1.0
 70
1024
 72
1
 73
0
 74
5
  7

 75
16
 76
0
 77
2
 78
300
147
1.0
148
0.0
149
0.0
100
AcDbLayout
  1
Model
 70
1
 71
0
 10
0.0
 20
0.0
 11
420.0
 21
297.0
 12
0.0
 22
0.0
 32
0.0
 14
1e+20
 24
1e+20
 34
1e+20
 15
-1e+20
 25
-1e+20
 35
-1e+20
146
0.0
 13
0.0
 23
0.0
 33
0.0
 16
1.0
 26
0.0
 36
0.0
 17
0.0
 27
1.0
 37
0.0
 76
1
330
17
  0
LAYOUT
  5
1E
330
D
100
AcDbPlotSettings
  1

  4
A3
  6

 40
7.5
 41
20.0
 42
7.5
 43
20.0
 44
420.0
 45
297.0
 46
0.0
 47
0.0
 48
0.0
 49
0.0
140
0.0
141
0.0
142
1.0
143
1.0
 70
0
 72
1
 73
0
 74
5
  7

 75
16
 76
0
 77
2
 78
300
147
1.0
148
0.0
149
0.0
100
AcDbLayout
  1
Layout1
 70
1
 71
1
 10
0.0
 20
0.0
 11
420.0
 21
297.0
 12
0.0
 22
0.0
 32
0.0
 14
1e+20
 24
1e+20
 34
1e+20
 15
-1e+20
 25
-1e+20
 35
-1e+20
146
0.0
 13
0.0
 23
0.0
 33
0.0
 16
1.0
 26
0.0
 36
0.0
 17
0.0
 27
1.0
 37
0.0
 76
1
330
1B
  0
MATERIAL
  5
1F
102
{ACAD_REACTORS
330
E
102
}
330
E
100
AcDbMaterial
  1
ByBlock
  2

 70
0
 40
1.0
 71
1
 41
1.0
 91
-1023410177
 42
1.0
 72
1
  3

 73
1
 74
1
 75
1
 44
0.5
 73
0
 45
1.0
 46
1.0
 77
1
  4

 78
1
 79
1
170
1
 48
1.0
171
1
  6

172
1
173
1
174
1
140
1.0
141
1.0
175
1
  7

176
1
177
1
178
1
143
1.0
179
1
  8

270
1
271
1
272
1
145
1.0
146
1.0
273
1
  9

274
1
275
1
276
1
 42
1.0
 72
1
  3

 73
1
 74
1
 75
1
 94
63
  0
MATERIAL
  5
20
102
{ACAD_REACTORS
330
E
102
}
330
E
100
AcDbMaterial
  1
ByLayer
  2

 70
0
 40
1.0
 71
1
 41
1.0
 91
-1023410177
 42
1.0
 72
1
  3

 73
1
 74
1
 75
1
 44
0.5
 73
0
 45
1.0
 46
1.0
 77
1
  4

 78
1
 79
1
170
1
 48
1.0
171
1
  6

172
1
173
1
174
1
140
1.0
141
1.0
175
1
  7

176
1
177
1
178
1
143
1.0
179
1
  8

270
1
271
1
272
1
145
1.0
146
1.0
273
1
  9

274
1
275
1
276
1
 42
1.0
 72
1
  3

 73
1
 74
1
 75
1
 94
63
  0
MATERIAL
  5
21
102
{ACAD_REACTORS
330
E
102
}
330
E
100
AcDbMaterial
  1
Global
  2

 70
0
 40
1.0
 71
1
 41
1.0
 91
-1023410177
 42
1.0
 72
1
  3

 73
1
 74
1
 75
1
 44
0.5
 73
0
 45
1.0
 46
1.0
 77
1
  4

 78
1
 79
1
170
1
 48
1.0
171
1
  6

172
1
173
1
174
1
140
1.0
141
1.0
175
1
  7

176
1
177
1
178
1
143
1.0
179
1
  8

270
1
271
1
272
1
145
1.0
146
1.0
273
1
  9

274
1
275
1
276
1
 42
1.0
 72
1
  3

 73
1
 74
1
 75
1
 94
63
  0
MLINESTYLE
  5
22
102
{ACAD_REACTORS
330
10
102
}
330
10
100
AcDbMlineStyle
  2
Standard
 70
0
  3

 62
256
 51
90.0
 52
90.0
 71
2
 49
0.5
 62
256
  6
BYLAYER
 49
-0.5
 62
256
  6
BYLAYER
  0
MLEADERSTYLE
  5
2C
102
{ACAD_REACTORS
330
F
102
}
330
F
100
AcDbMLeaderStyle
179
2
170
2
171
1
172
0
 90
2
 40
0.0
 41
0.0
173
1
 91
-1056964608
 92
-2
290
1
 42
2.0
291
1
 43
8.0
  3
Standard
 44
4.0
300

342
29
174
1
175
1
176
0
178
1
 93
-1056964608
 45
4.0
292
0
297
0
 46
4.0
 94
-1056964608
 47
1.0
 49
1.0
140
1.0
294
1
141
0.0
177
0
142
1.0
295
0
296
0
143
3.75
271
0
272
9
273
9
  0
DICTIONARY
  5
2D
330
A
100
AcDbDictionary
280
1
281
1
  3
CREATED_BY_EZDXF
350
2E
  3
WRITTEN_BY_EZDXF
350
32
  0
DICTIONARYVAR
  5
2E
330
2D
100
DictionaryVariables
280
0
  1
1.3.5 @ 2025-08-20T01:58:17.130012+00:00
  0
DICTIONARYVAR
  5
32
330
2D
100
DictionaryVariables
280
0
  1
1.3.5 @ 2025-08-20T01:58:17.136060+00:00
  0
ENDSEC
  0
EOF
