  0
SECTION
  2
HEADER
  9
$ACADVER
  1
AC1032
  9
$ACADMAINTVER
 90
4
  9
$DWGCODEPAGE
  3
ANSI_1252
  9
$LASTSAVEDBY
  1
ezdxf
  9
$REQUIREDVERSIONS
160
0
  9
$INSBASE
 10
0.0
 20
0.0
 30
0.0
  9
$EXTMIN
 10
1e+20
 20
1e+20
 30
1e+20
  9
$EXTMAX
 10
-1e+20
 20
-1e+20
 30
-1e+20
  9
$LIMMIN
 10
0.0
 20
0.0
  9
$LIMMAX
 10
420.0
 20
297.0
  9
$ORTHOMODE
 70
0
  9
$REGENMODE
 70
1
  9
$FILLMODE
 70
1
  9
$QTEXTMODE
 70
0
  9
$MIRRTEXT
 70
1
  9
$LTSCALE
 40
1.0
  9
$ATTMODE
 70
1
  9
$TEXTSIZE
 40
2.5
  9
$TRACEWID
 40
1.0
  9
$TEXTSTYLE
  7
Standard
  9
$CLAYER
  8
0
  9
$CELTYPE
  6
ByLayer
  9
$CECOLOR
 62
256
  9
$CELTSCALE
 40
1.0
  9
$DISPSILH
 70
0
  9
$DIMSCALE
 40
1.0
  9
$DIMASZ
 40
2.5
  9
$DIMEXO
 40
0.625
  9
$DIMDLI
 40
3.75
  9
$DIMRND
 40
0.0
  9
$DIMDLE
 40
0.0
  9
$DIMEXE
 40
1.25
  9
$DIMTP
 40
0.0
  9
$DIMTM
 40
0.0
  9
$DIMTXT
 40
2.5
  9
$DIMCEN
 40
2.5
  9
$DIMTSZ
 40
0.0
  9
$DIMTOL
 70
0
  9
$DIMLIM
 70
0
  9
$DIMTIH
 70
0
  9
$DIMTOH
 70
0
  9
$DIMSE1
 70
0
  9
$DIMSE2
 70
0
  9
$DIMTAD
 70
1
  9
$DIMZIN
 70
8
  9
$DIMBLK
  1

  9
$DIMASO
 70
1
  9
$DIMSHO
 70
1
  9
$DIMPOST
  1

  9
$DIMAPOST
  1

  9
$DIMALT
 70
0
  9
$DIMALTD
 70
3
  9
$DIMALTF
 40
0.03937007874
  9
$DIMLFAC
 40
1.0
  9
$DIMTOFL
 70
1
  9
$DIMTVP
 40
0.0
  9
$DIMTIX
 70
0
  9
$DIMSOXD
 70
0
  9
$DIMSAH
 70
0
  9
$DIMBLK1
  1

  9
$DIMBLK2
  1

  9
$DIMSTYLE
  2
ISO-25
  9
$DIMCLRD
 70
0
  9
$DIMCLRE
 70
0
  9
$DIMCLRT
 70
0
  9
$DIMTFAC
 40
1.0
  9
$DIMGAP
 40
0.625
  9
$DIMJUST
 70
0
  9
$DIMSD1
 70
0
  9
$DIMSD2
 70
0
  9
$DIMTOLJ
 70
0
  9
$DIMTZIN
 70
8
  9
$DIMALTZ
 70
0
  9
$DIMALTTZ
 70
0
  9
$DIMUPT
 70
0
  9
$DIMDEC
 70
2
  9
$DIMTDEC
 70
2
  9
$DIMALTU
 70
2
  9
$DIMALTTD
 70
3
  9
$DIMTXSTY
  7
Standard
  9
$DIMAUNIT
 70
0
  9
$DIMADEC
 70
0
  9
$DIMALTRND
 40
0.0
  9
$DIMAZIN
 70
0
  9
$DIMDSEP
 70
44
  9
$DIMATFIT
 70
3
  9
$DIMFRAC
 70
0
  9
$DIMLDRBLK
  1

  9
$DIMLUNIT
 70
2
  9
$DIMLWD
 70
-2
  9
$DIMLWE
 70
-2
  9
$DIMTMOVE
 70
0
  9
$DIMFXL
 40
1.0
  9
$DIMFXLON
 70
0
  9
$DIMJOGANG
 40
0.785398163397
  9
$DIMTFILL
 70
0
  9
$DIMTFILLCLR
 70
0
  9
$DIMARCSYM
 70
0
  9
$DIMLTYPE
  6

  9
$DIMLTEX1
  6

  9
$DIMLTEX2
  6

  9
$DIMTXTDIRECTION
 70
0
  9
$LUNITS
 70
2
  9
$LUPREC
 70
4
  9
$SKETCHINC
 40
1.0
  9
$FILLETRAD
 40
10.0
  9
$AUNITS
 70
0
  9
$AUPREC
 70
2
  9
$MENU
  1
.
  9
$ELEVATION
 40
0.0
  9
$PELEVATION
 40
0.0
  9
$THICKNESS
 40
0.0
  9
$LIMCHECK
 70
0
  9
$CHAMFERA
 40
0.0
  9
$CHAMFERB
 40
0.0
  9
$CHAMFERC
 40
0.0
  9
$CHAMFERD
 40
0.0
  9
$SKPOLY
 70
0
  9
$TDCREATE
 40
2460908.1238078703
  9
$TDUCREATE
 40
2458532.153996898
  9
$TDUPDATE
 40
2460908.1238078703
  9
$TDUUPDATE
 40
2458532.1544311
  9
$TDINDWG
 40
0.0
  9
$TDUSRTIMER
 40
0.0
  9
$USRTIMER
 70
1
  9
$ANGBASE
 50
0.0
  9
$ANGDIR
 70
0
  9
$PDMODE
 70
0
  9
$PDSIZE
 40
0.0
  9
$PLINEWID
 40
0.0
  9
$SPLFRAME
 70
0
  9
$SPLINETYPE
 70
6
  9
$SPLINESEGS
 70
8
  9
$HANDSEED
  5
33
  9
$SURFTAB1
 70
6
  9
$SURFTAB2
 70
6
  9
$SURFTYPE
 70
6
  9
$SURFU
 70
6
  9
$SURFV
 70
6
  9
$UCSBASE
  2

  9
$UCSNAME
  2

  9
$UCSORG
 10
0.0
 20
0.0
 30
0.0
  9
$UCSXDIR
 10
1.0
 20
0.0
 30
0.0
  9
$UCSYDIR
 10
0.0
 20
1.0
 30
0.0
  9
$UCSORTHOREF
  2

  9
$UCSORTHOVIEW
 70
0
  9
$UCSORGTOP
 10
0.0
 20
0.0
 30
0.0
  9
$UCSORGBOTTOM
 10
0.0
 20
0.0
 30
0.0
  9
$UCSORGLEFT
 10
0.0
 20
0.0
 30
0.0
  9
$UCSORGRIGHT
 10
0.0
 20
0.0
 30
0.0
  9
$UCSORGFRONT
 10
0.0
 20
0.0
 30
0.0
  9
$UCSORGBACK
 10
0.0
 20
0.0
 30
0.0
  9
$PUCSBASE
  2

  9
$PUCSNAME
  2

  9
$PUCSORG
 10
0.0
 20
0.0
 30
0.0
  9
$PUCSXDIR
 10
1.0
 20
0.0
 30
0.0
  9
$PUCSYDIR
 10
0.0
 20
1.0
 30
0.0
  9
$PUCSORTHOREF
  2

  9
$PUCSORTHOVIEW
 70
0
  9
$PUCSORGTOP
 10
0.0
 20
0.0
 30
0.0
  9
$PUCSORGBOTTOM
 10
0.0
 20
0.0
 30
0.0
  9
$PUCSORGLEFT
 10
0.0
 20
0.0
 30
0.0
  9
$PUCSORGRIGHT
 10
0.0
 20
0.0
 30
0.0
  9
$PUCSORGFRONT
 10
0.0
 20
0.0
 30
0.0
  9
$PUCSORGBACK
 10
0.0
 20
0.0
 30
0.0
  9
$USERI1
 70
0
  9
$USERI2
 70
0
  9
$USERI3
 70
0
  9
$USERI4
 70
0
  9
$USERI5
 70
0
  9
$USERR1
 40
0.0
  9
$USERR2
 40
0.0
  9
$USERR3
 40
0.0
  9
$USERR4
 40
0.0
  9
$USERR5
 40
0.0
  9
$WORLDVIEW
 70
1
  9
$SHADEDGE
 70
3
  9
$SHADEDIF
 70
70
  9
$TILEMODE
 70
1
  9
$MAXACTVP
 70
64
  9
$PINSBASE
 10
0.0
 20
0.0
 30
0.0
  9
$PLIMCHECK
 70
0
  9
$PEXTMIN
 10
1e+20
 20
1e+20
 30
1e+20
  9
$PEXTMAX
 10
-1e+20
 20
-1e+20
 30
-1e+20
  9
$PLIMMIN
 10
0.0
 20
0.0
  9
$PLIMMAX
 10
420.0
 20
297.0
  9
$UNITMODE
 70
0
  9
$VISRETAIN
 70
1
  9
$PLINEGEN
 70
0
  9
$PSLTSCALE
 70
1
  9
$TREEDEPTH
 70
3020
  9
$CMLSTYLE
  2
Standard
  9
$CMLJUST
 70
0
  9
$CMLSCALE
 40
20.0
  9
$PROXYGRAPHICS
 70
1
  9
$MEASUREMENT
 70
1
  9
$CELWEIGHT
370
-1
  9
$ENDCAPS
280
0
  9
$JOINSTYLE
280
0
  9
$LWDISPLAY
290
0
  9
$INSUNITS
 70
6
  9
$HYPERLINKBASE
  1

  9
$STYLESHEET
  1

  9
$XEDIT
290
1
  9
$CEPSNTYPE
380
0
  9
$PSTYLEMODE
290
1
  9
$FINGERPRINTGUID
  2
{2C2422AE-E353-49FC-8388-64168F80EAB7}
  9
$VERSIONGUID
  2
{14AF548F-3623-4740-A531-AFF21CADBE41}
  9
$EXTNAMES
290
1
  9
$PSVPSCALE
 40
0.0
  9
$OLESTARTUP
290
0
  9
$SORTENTS
280
127
  9
$INDEXCTL
280
0
  9
$HIDETEXT
280
1
  9
$XCLIPFRAME
280
1
  9
$HALOGAP
280
0
  9
$OBSCOLOR
 70
257
  9
$OBSLTYPE
280
0
  9
$INTERSECTIONDISPLAY
280
0
  9
$INTERSECTIONCOLOR
 70
257
  9
$DIMASSOC
280
2
  9
$PROJECTNAME
  1

  9
$CAMERADISPLAY
290
0
  9
$LENSLENGTH
 40
50.0
  9
$CAMERAHEIGHT
 40
0.0
  9
$STEPSPERSEC
 40
24.0
  9
$STEPSIZE
 40
100.0
  9
$3DDWFPREC
 40
2.0
  9
$PSOLWIDTH
 40
0.005
  9
$PSOLHEIGHT
 40
0.08
  9
$LOFTANG1
 40
1.570796326795
  9
$LOFTANG2
 40
1.570796326795
  9
$LOFTMAG1
 40
0.0
  9
$LOFTMAG2
 40
0.0
  9
$LOFTPARAM
 70
7
  9
$LOFTNORMALS
280
1
  9
$LATITUDE
 40
37.795
  9
$LONGITUDE
 40
-122.394
  9
$NORTHDIRECTION
 40
0.0
  9
$TIMEZONE
 70
-8000
  9
$LIGHTGLYPHDISPLAY
280
1
  9
$TILEMODELIGHTSYNCH
280
1
  9
$CMATERIAL
347
20
  9
$SOLIDHIST
280
0
  9
$SHOWHIST
280
1
  9
$DWFFRAME
280
2
  9
$DGNFRAME
280
2
  9
$REALWORLDSCALE
290
1
  9
$INTERFERECOLOR
 62
256
  9
$CSHADOW
280
0
  9
$SHADOWPLANELOCATION
 40
0.0
  0
ENDSEC
  0
SECTION
  2
CLASSES
  0
CLASS
  1
ACDBDICTIONARYWDFLT
  2
AcDbDictionaryWithDefault
  3
ObjectDBX Classes
 90
0
 91
0
280
0
281
0
  0
CLASS
  1
SUN
  2
AcDbSun
  3
SCENEOE
 90
1153
 91
0
280
0
281
0
  0
CLASS
  1
VISUALSTYLE
  2
AcDbVisualStyle
  3
ObjectDBX Classes
 90
4095
 91
0
280
0
281
0
  0
CLASS
  1
MATERIAL
  2
AcDbMaterial
  3
ObjectDBX Classes
 90
1153
 91
0
280
0
281
0
  0
CLASS
  1
SCALE
  2
AcDbScale
  3
ObjectDBX Classes
 90
1153
 91
0
280
0
281
0
  0
CLASS
  1
TABLESTYLE
  2
AcDbTableStyle
  3
ObjectDBX Classes
 90
4095
 91
0
280
0
281
0
  0
CLASS
  1
MLEADERSTYLE
  2
AcDbMLeaderStyle
  3
ACDB_MLEADERSTYLE_CLASS
 90
4095
 91
0
280
0
281
0
  0
CLASS
  1
DICTIONARYVAR
  2
AcDbDictionaryVar
  3
ObjectDBX Classes
 90
0
 91
0
280
0
281
0
  0
CLASS
  1
CELLSTYLEMAP
  2
AcDbCellStyleMap
  3
ObjectDBX Classes
 90
1152
 91
0
280
0
281
0
  0
CLASS
  1
MENTALRAYRENDERSETTINGS
  2
AcDbMentalRayRenderSettings
  3
SCENEOE
 90
1024
 91
0
280
0
281
0
  0
CLASS
  1
ACDBDETAILVIEWSTYLE
  2
AcDbDetailViewStyle
  3
ObjectDBX Classes
 90
1025
 91
0
280
0
281
0
  0
CLASS
  1
ACDBSECTIONVIEWSTYLE
  2
AcDbSectionViewStyle
  3
ObjectDBX Classes
 90
1025
 91
0
280
0
281
0
  0
CLASS
  1
RASTERVARIABLES
  2
AcDbRasterVariables
  3
ISM
 90
0
 91
0
280
0
281
0
  0
CLASS
  1
LAYOUT
  2
AcDbLayout
  3
ObjectDBX Classes
 90
0
 91
0
280
0
281
0
  0
CLASS
  1
ACDBPLACEHOLDER
  2
AcDbPlaceHolder
  3
ObjectDBX Classes
 90
0
 91
0
280
0
281
0
  0
ENDSEC
  0
SECTION
  2
TABLES
  0
TABLE
  2
VPORT
  5
8
330
0
100
AcDbSymbolTable
 70
1
  0
VPORT
  5
23
330
8
100
AcDbSymbolTableRecord
100
AcDbViewportTableRecord
  2
*Active
 70
0
 10
0.0
 20
0.0
 11
1.0
 21
1.0
 12
0.0
 22
0.0
 13
0.0
 23
0.0
 14
0.5
 24
0.5
 15
0.5
 25
0.5
 16
0.0
 26
0.0
 36
1.0
 17
0.0
 27
0.0
 37
0.0
 40
1000.0
 41
1.34
 42
50.0
 43
0.0
 44
0.0
 50
0.0
 51
0.0
 71
0
 72
1000
 73
1
 74
3
 75
0
 76
0
 77
0
 78
0
281
0
 65
0
146
0.0
  0
ENDTAB
  0
TABLE
  2
LTYPE
  5
2
330
0
100
AcDbSymbolTable
 70
3
  0
LTYPE
  5
24
330
2
100
AcDbSymbolTableRecord
100
AcDbLinetypeTableRecord
  2
ByBlock
 70
0
  3

 72
65
 73
0
 40
0.0
  0
LTYPE
  5
25
330
2
100
AcDbSymbolTableRecord
100
AcDbLinetypeTableRecord
  2
ByLayer
 70
0
  3

 72
65
 73
0
 40
0.0
  0
LTYPE
  5
26
330
2
100
AcDbSymbolTableRecord
100
AcDbLinetypeTableRecord
  2
Continuous
 70
0
  3

 72
65
 73
0
 40
0.0
  0
ENDTAB
  0
TABLE
  2
LAYER
  5
1
330
0
100
AcDbSymbolTable
 70
2
  0
LAYER
  5
27
330
1
100
AcDbSymbolTableRecord
100
AcDbLayerTableRecord
  2
0
 70
0
 62
7
  6
Continuous
370
-3
390
13
347
21
  0
LAYER
  5
28
330
1
100
AcDbSymbolTableRecord
100
AcDbLayerTableRecord
  2
Defpoints
 70
0
 62
7
  6
Continuous
290
0
370
-3
390
13
347
21
  0
ENDTAB
  0
TABLE
  2
STYLE
  5
5
330
0
100
AcDbSymbolTable
 70
1
  0
STYLE
  5
29
330
5
100
AcDbSymbolTableRecord
100
AcDbTextStyleTableRecord
  2
Standard
 70
0
 40
0.0
 41
1.0
 50
0.0
 71
0
 42
2.5
  3
txt
  4

  0
ENDTAB
  0
TABLE
  2
VIEW
  5
7
330
0
100
AcDbSymbolTable
 70
0
  0
ENDTAB
  0
TABLE
  2
UCS
  5
6
330
0
100
AcDbSymbolTable
 70
0
  0
ENDTAB
  0
TABLE
  2
APPID
  5
3
330
0
100
AcDbSymbolTable
 70
3
  0
APPID
  5
2A
330
3
100
AcDbSymbolTableRecord
100
AcDbRegAppTableRecord
  2
ACAD
 70
0
  0
APPID
  5
30
330
3
100
AcDbSymbolTableRecord
100
AcDbRegAppTableRecord
  2
HATCHBACKGROUNDCOLOR
 70
0
  0
APPID
  5
31
330
3
100
AcDbSymbolTableRecord
100
AcDbRegAppTableRecord
  2
EZDXF
 70
0
  0
ENDTAB
  0
TABLE
  2
DIMSTYLE
  5
4
330
0
100
AcDbSymbolTable
 70
1
100
AcDbDimStyleTable
  0
DIMSTYLE
105
2B
330
4
100
AcDbSymbolTableRecord
100
AcDbDimStyleTableRecord
  2
Standard
 70
0
 40
1.0
 41
2.5
 42
0.625
 43
3.75
 44
1.25
 45
0.0
 46
0.0
 47
0.0
 48
0.0
 49
2.5
140
2.5
141
2.5
142
0.0
143
0.03937007874
144
1.0
145
0.0
146
1.0
147
0.625
148
0.0
 69
0
 70
0
 71
0
 72
0
 73
0
 74
0
 75
0
 76
0
 77
1
 78
8
 79
3
170
0
171
3
172
1
173
0
174
0
175
0
176
0
177
0
178
0
179
2
271
2
272
2
273
2
274
3
275
0
276
0
277
2
278
44
279
0
280
0
281
0
282
0
283
0
284
8
285
0
286
0
288
0
289
3
290
0
371
-2
372
-2
  0
ENDTAB
  0
TABLE
  2
BLOCK_RECORD
  5
9
330
0
100
AcDbSymbolTable
 70
2
  0
BLOCK_RECORD
  5
17
330
9
100
AcDbSymbolTableRecord
100
AcDbBlockTableRecord
  2
*Model_Space
340
1A
 70
0
280
1
281
0
  0
BLOCK_RECORD
  5
1B
330
9
100
AcDbSymbolTableRecord
100
AcDbBlockTableRecord
  2
*Paper_Space
340
1E
 70
0
280
1
281
0
  0
ENDTAB
  0
ENDSEC
  0
SECTION
  2
BLOCKS
  0
BLOCK
  5
18
330
17
100
AcDbEntity
  8
0
100
AcDbBlockBegin
  2
*Model_Space
 70
0
 10
0.0
 20
0.0
 30
0.0
  3
*Model_Space
  1

  0
ENDBLK
  5
19
330
17
100
AcDbEntity
  8
0
100
AcDbBlockEnd
  0
BLOCK
  5
1C
330
1B
100
AcDbEntity
  8
0
100
AcDbBlockBegin
  2
*Paper_Space
 70
0
 10
0.0
 20
0.0
 30
0.0
  3
*Paper_Space
  1

  0
ENDBLK
  5
1D
330
1B
100
AcDbEntity
  8
0
100
AcDbBlockEnd
  0
ENDSEC
  0
SECTION
  2
ENTITIES
  0
LWPOLYLINE
  5
2F
330
17
100
AcDbEntity
  8
0
100
AcDbPolyline
 90
721
 70
1
 10
35.36179700923274
 20
1.0471546081236836
 10
35.36078459764076
 20
1.047487922349393
 10
35.35775016160055
 20
1.0483821931198563
 10
35.35269928879792
 20
1.0496264461039346
 10
35.34557641829646
 20
1.0513241634908221
 10
35.33649127819295
 20
1.053321005722783
 10
35.32538970412294
 20
1.0556677246020185
 10
35.31222032206995
 20
1.0583097167230866
 10
35.29708867181285
 20
1.0612507809060576
 10
35.2799433793352
 20
1.0644363137454895
 10
35.260728879506686
 20
1.0679699557800864
 10
35.23955350804602
 20
1.0717499394895942
 10
35.21636449156885
 20
1.0757744974219028
 10
35.19116043210526
 20
1.0800964127471748
 10
35.16394412559506
 20
1.0846101191250854
 10
35.1347127733025
 20
1.0894212884623
 10
35.103520543785926
 20
1.094479010607106
 10
35.070314663660966
 20
1.099781518107394
 10
35.03509373495769
 20
1.1053815941333256
 10
34.99791332140843
 20
1.1111756509293673
 10
34.95871785508697
 20
1.1172674346005635
 10
34.91751013053515
 20
1.1235514315897597
 10
34.87439289019407
 20
1.1301370598405214
 10
34.82920922026834
 20
1.1369659171273356
 10
34.782117428329364
 20
1.1440437808550632
 10
34.73301197320027
 20
1.1513669049868043
 10
34.68194562127558
 20
1.158937320890519
 10
34.62891837115731
 20
1.1667550813493777
 10
34.573928823477615
 20
1.174873022316713
 10
34.51697697404255
 20
1.1832913021420355
 10
34.45806561739397
 20
1.1919044072681906
 10
34.3971919561941
 20
1.2008179568186725
 10
34.334410153409394
 20
1.2099812517744508
 10
34.26966604048149
 20
1.219445202287237
 10
34.20296240775838
 20
1.2291044531493873
 10
34.134349229888635
 20
1.2390664437196763
 10
34.06382510470843
 20
1.2493841155177774
 10
33.99139422333158
 20
1.2598992245995428
 10
33.917001015035915
 20
1.270715622636359
 10
33.840752417570236
 20
1.281784325278133
 10
33.76254148759386
 20
1.2931545280076377
 10
33.6824737634877
 20
1.3048300824281136
 10
33.60049647046943
 20
1.3168092738706216
 10
33.516662376331524
 20
1.3290940809199514
 10
33.430920104261574
 20
1.3416300057370016
 10
33.34332242205207
 20
1.3544190269065626
 10
33.25381375898083
 20
1.3675649961000191
 10
33.1625010513987
 20
1.38101898175045
 10
33.06933152452333
 20
1.394779269188915
 10
32.97430517555878
 20
1.4088459639817545
 10
32.87742199751521
 20
1.4232193300448197
 10
32.77873336301115
 20
1.437954023566723
 10
32.678187892438196
 20
1.4529956522747027
 10
32.57583695701691
 20
1.4683989251405412
 10
32.47168194772737
 20
1.4841113229099272
 10
32.36572565911145
 20
1.5000273320257065
 10
32.25801806022584
 20
1.5162546029793342
 10
32.14850358174634
 20
1.5328969346590255
 10
32.0371822166831
 20
1.5499545909806307
 10
31.924110928136358
 20
1.5672711482352835
 10
31.809288312544286
 20
1.5848996007258265
 10
31.69271436711097
 20
1.602840054018601
 10
31.574384890936788
 20
1.6212511215399439
 10
31.454306869677442
 20
1.6398690457885545
 10
31.33253027518555
 20
1.6588013716895476
 10
31.209053705297325
 20
1.6781010407625963
 10
31.083822985862515
 20
1.6978191742920932
 10
30.956945051833994
 20
1.7179068934942872
 10
30.828368525001377
 20
1.7383097533132463
 10
30.698093402568713
 20
1.7590278593153106
 10
30.566169653592738
 20
1.7801688619919362
 10
30.432602864361225
 20
1.801521839795154
 10
30.29733746554997
 20
1.8231905916131785
 10
30.160477594774047
 20
1.8452318577857534
 10
30.022023247839535
 20
1.8676457966623896
 10
29.881924445903948
 20
1.8903251272338217
 10
29.740179784007506
 20
1.9133228965860645
 10
29.596894800531125
 20
1.936642956322357
 10
29.452013923354667
 20
1.9603892108972554
 10
29.305541342193983
 20
1.984403469149783
 10
29.157529823443586
 20
2.0086877624479005
 10
29.007979362909566
 20
2.0332422491411175
 10
28.856887157662246
 20
2.058172759485611
 10
28.704253203507704
 20
2.083479451830891
 10
28.550078894221965
 20
2.1091097013563047
 10
28.394471166155856
 20
2.1350145764949318
 10
28.23732307177478
 20
2.1612434310790545
 10
28.078687378871226
 20
2.1877982436934635
 10
27.91862104914746
 20
2.2145226434124625
 10
27.757069905657293
 20
2.2414678570867848
 10
27.594082522283472
 20
2.2687942128117067
 10
27.42971166681848
 20
2.2965036891720207
 10
27.263854584239514
 20
2.324487343272691
 10
27.096621009633182
 20
2.3525905716401327
 10
26.928005345527936
 20
2.3810247180876747
 10
26.75800898569978
 20
2.409737157794665
 10
26.586630526586926
 20
2.438780885063948
 10
26.413925530523723
 20
2.4680523649231576
 10
26.23989399471424
 20
2.4975517029386363
 10
26.06448314018222
 20
2.527277342790953
 10
25.88779710873664
 20
2.557285866470342
 10
25.709783124197184
 20
2.587575612091033
 10
25.530496750296198
 20
2.6180429918974926
 10
25.349937981441784
 20
2.648688217022401
 10
25.168159586824416
 20
2.679513213267379
 10
24.985107389497916
 20
2.7105692074831587
 10
24.80083136271291
 20
2.741963691811686
 10
24.615282920004947
 20
2.7735368132062144
 10
24.428618982159236
 20
2.8053467099764067
 10
24.240739588694844
 20
2.837178925670074
 10
24.051643334651985
 20
2.869086507373229
 10
23.861431570093714
 20
2.9012314450669203
 10
23.670102891458242
 20
2.933666733053989
 10
23.477555941692668
 20
2.96623064526924
 10
23.284004607478373
 20
2.998824790747129
 10
23.08929196104029
 20
3.0313912950938433
 10
22.89351934964551
 20
3.0640922538567716
 10
22.69663259774584
 20
3.0969788411034753
 10
22.498738647284018
 20
3.130001914134354
 10
22.299788914591502
 20
3.163001514336321
 10
22.099833372918923
 20
3.1960851338513194
 10
21.898869220734554
 20
3.229358550152356
 10
21.69690344509207
 20
3.262557952954961
 10
21.49393743976746
 20
3.29563071743848
 10
21.29006975888395
 20
3.328844399924286
 10
21.085196248050828
 20
3.362142893470677
 10
20.87942105327097
 20
3.395582621718376
 10
20.672752559567975
 20
3.428846991212749
 10
20.46518936477799
 20
3.461988943473469
 10
20.256728670165245
 20
3.4951141504072014
 10
20.04736627483014
 20
3.5283812254402833
 10
19.837213320217025
 20
3.5615824652299453
 10
19.62616984165105
 20
3.594503571673509
 10
19.41438996956948
 20
3.627308038288281
 10
19.201761157568196
 20
3.6602566155030445
 10
18.988341772309205
 20
3.69313988530609
 10
18.77413739868234
 20
3.7257469789326185
 10
18.55925079171042
 20
3.7581868392776636
 10
18.34357499686897
 20
3.79050908408936
 10
18.12721416435481
 20
3.8227699786589193
 10
17.910116913161605
 20
3.8549151834967494
 10
17.692338812613563
 20
3.886840899714636
 10
17.47393263609505
 20
3.9185488947646894
 10
17.254845603231843
 20
3.9500376651106497
 10
17.035183264986603
 20
3.9813105873072274
 10
16.8148400648048
 20
4.012364495932393
 10
16.593918754913304
 20
4.043308439447521
 10
16.372420734680006
 20
4.074089581899278
 10
16.150352988362613
 20
4.104444218569535
 10
15.927712717225367
 20
4.134478021364955
 10
15.704604075658954
 20
4.16424709722724
 10
15.480920109138928
 20
4.193801063904526
 10
15.256769164567785
 20
4.2230377316111944
 10
15.032152638517472
 20
4.251904369960255
 10
14.807071927559935
 20
4.280348248564714
 10
14.58152423016346
 20
4.308475144897578
 10
14.35556092733438
 20
4.336339398448439
 10
14.129182014878777
 20
4.363941167566806
 10
13.902444462886738
 20
4.391123764627964
 10
13.67529689035192
 20
4.417832850142318
 10
13.44779347002658
 20
4.444017355608648
 10
13.219982785579248
 20
4.46983723964004
 10
12.991807862725942
 20
4.495449348210722
 10
12.763377052563074
 20
4.520751333185567
 10
12.534648759873733
 20
4.545319372883848
 10
12.3056145926445
 20
4.56947032467605
 10
12.076378712255933
 20
4.593260031588023
 10
11.846891131477705
 20
4.616581529309524
 10
11.617153249677699
 20
4.63938198188722
 10
11.387266426704766
 20
4.661823009819968
 10
11.157179284348501
 20
4.6838501680518325
 10
10.926948791301008
 20
4.705306821741272
 10
10.696522168586032
 20
4.726191414568851
 10
10.466003577584138
 20
4.746559789560427
 10
10.235391617529457
 20
4.766464835452499
 10
10.004690483729725
 20
4.785748149951409
 10
9.77389877541907
 20
4.804462621793661
 10
9.54306787500181
 20
4.822662537685676
 10
9.312140809591925
 20
4.840504690818513
 10
9.081231524961435
 20
4.857675494810054
 10
8.850340021110346
 20
4.874174949660301
 10
8.619464901466703
 20
4.890055785756246
 10
8.38860476526465
 20
4.90537089183439
 10
8.157813793644271
 20
4.920068882694492
 10
7.927037808261417
 20
4.934201037970454
 10
7.69638376643649
 20
4.947717634347803
 10
7.4658544655072925
 20
4.9605130527030425
 10
7.23544850750391
 20
4.972640076206335
 10
7.005164495854387
 20
4.984151435244673
 10
6.7750038285286465
 20
4.994994346647895
 10
6.54507486501091
 20
5.0050661455818535
 10
6.3153220275891515
 20
5.014470947633786
 10
6.085795303493689
 20
5.023315717113933
 10
5.856448902199899
 20
5.031335034635225
 10
5.6273855899143514
 20
5.038637420827335
 10
5.398601176921212
 20
5.04538106685124
 10
5.170047073960062
 20
5.0514062252265335
 10
4.941831643311075
 20
5.056610125552727
 10
4.713952090432378
 20
5.061098281386978
 10
4.486358429491611
 20
5.064763675635871
 10
4.25915343088927
 20
5.067714670579568
 10
4.032287110190968
 20
5.069844196341488
 10
3.805863634369136
 20
5.071207884814799
 10
3.579773248765573
 20
5.071961078437465
 10
3.3541243156604468
 20
5.072001006809008
 10
3.1289224269334337
 20
5.0711165372487725
 10
2.904166188808513
 20
5.069360294577414
 10
2.6799041891481328
 20
5.066892079058507
 10
2.456137831514092
 20
5.063658896389206
 10
2.232868515274268
 20
5.05960791061618
 10
2.0101490249968017
 20
5.054740466926181
 10
1.7879237829696621
 20
5.04916068090644
 10
1.5662427820150475
 20
5.042975305734523
 10
1.345164397182804
 20
5.035974606699698
 10
1.1246914272087087
 20
5.0280529118953
 10
0.9048210803468271
 20
5.019315629312144
 10
0.6856048704106397
 20
5.009812084038656
 10
0.4669902407011097
 20
4.99953232723135
 10
0.24902858061239208
 20
4.988530381680798
 10
0.031771275344724265
 20
4.976860428527079
 10
-0.18482886639237156
 20
4.964309937119626
 10
-0.4007190614287388
 20
4.95088030542836
 10
-0.6158535164438113
 20
4.936836847274007
 10
-0.8302822186679046
 20
4.922072598346328
 10
-1.043898203790787
 20
4.906537571414996
 10
-1.2568070381527747
 20
4.890228970540173
 10
-1.4689031554135443
 20
4.873149591661698
 10
-1.6801365683427734
 20
4.855406399089814
 10
-1.890614241250704
 20
4.837049380054845
 10
-2.1002764011175827
 20
4.817816016675898
 10
-2.309025869422595
 20
4.798025803913784
 10
-2.5169182252757376
 20
4.777782910138914
 10
-2.723997864027666
 20
4.756769238360387
 10
-2.930106436167891
 20
4.734988982487967
 10
-3.1353009187763305
 20
4.712599094062217
 10
-3.339582709822905
 20
4.689652356253302
 10
-3.5429490133677737
 20
4.666043202720896
 10
-3.7452956610405335
 20
4.6418272125749995
 10
-3.946728219181508
 20
4.617001589875775
 10
-4.147145315360131
 20
4.591727480073546
 10
-4.346544153636563
 20
4.56589931682799
 10
-4.544923336040883
 20
4.539464316968943
 10
-4.742284260543014
 20
4.512475263666569
 10
-4.938576939912631
 20
4.485039121231108
 10
-5.133854157319892
 20
4.457154491692646
 10
-5.32800755048464
 20
4.42871860465069
 10
-5.521037119406872
 20
4.399731460105246
 10
-5.712994249286829
 20
4.370138876916229
 10
-5.903827554924274
 20
4.339995036223721
 10
-6.0935412302289595
 20
4.30945828753821
 10
-6.282083890000641
 20
4.278582811999777
 10
-6.469449942359647
 20
4.247157476927772
 10
-6.655692170476136
 20
4.215180884352276
 10
-6.840650826869706
 20
4.182604445012884
 10
-7.0244356717904335
 20
4.1495837124802435
 10
-7.207048103208241
 20
4.116171469924518
 10
-7.388382554782802
 20
4.082370513285547
 10
-7.568437628544197
 20
4.048128059393164
 10
-7.747261913752835
 20
4.013284360766967
 10
-7.924808219118225
 20
3.978051948057524
 10
-8.101080738550127
 20
3.942589170775319
 10
-8.276019699028785
 20
3.906633511039461
 10
-8.449677883724355
 20
3.870183570880031
 10
-8.621952522236361
 20
3.833347712577192
 10
-8.792896397734953
 20
3.7961245381610245
 10
-8.96251090819006
 20
3.7585668308016906
 10
-9.130739076521754
 20
3.720517638958622
 10
-9.297583698669879
 20
3.6820825289721437
 10
-9.463044774634433
 20
3.643261500842256
 10
-9.627127896295095
 20
3.6042656872496077
 10
-9.789726099341616
 20
3.5650451009638746
 10
-9.950940756204567
 20
3.5254385965347312
 10
-10.110716287773945
 20
3.4853420055917725
 10
-10.269005502759269
 20
3.444967858785567
 10
-10.425863980270531
 20
3.404420324486519
 10
-10.581233345257901
 20
3.3634896679838984
 10
-10.735063610491052
 20
3.3222828535879505
 10
-10.887461740280225
 20
3.280849868528998
 10
-11.038322168285097
 20
3.23919350874688
 10
-11.187640700595912
 20
3.197155424731107
 10
-11.335421531122426
 20
3.1548939659921693
 10
-11.481666057834556
 20
3.112461915700226
 10
-11.626372882762386
 20
3.0698064906851177
 10
-11.769489222735752
 20
3.0269290889167615
 10
-11.911013679784736
 20
2.983776927224995
 10
-12.051000435049419
 20
2.940401390810063
 10
-12.189343922189476
 20
2.8968052756118015
 10
-12.326046937144746
 20
2.8530941479705354
 10
-12.461212250315715
 20
2.809159645606104
 10
-12.594681512191897
 20
2.7650059624282624
 10
-12.72650610797353
 20
2.7205789172969292
 10
-12.856691629540297
 20
2.6760896428927547
 10
-12.985238076892191
 20
2.631538139215738
 10
-13.11208987091922
 20
2.5868202378954743
 10
-13.237245613651462
 20
2.5418831557618002
 10
-13.360756690289158
 20
2.4966727116746346
 10
-13.482524524341578
 20
2.451455617424628
 10
-13.602600501008965
 20
2.406177691871698
 10
-13.720981824351487
 20
2.36073336867552
 10
-13.837615711198975
 20
2.3151240458060136
 10
-13.952504957491266
 20
2.2694552896035027
 10
-14.065646767288529
 20
2.223621533727663
 10
-14.177042538560677
 20
2.177675561348657
 10
-14.286693669277632
 20
2.131670155636647
 10
-14.394544580329393
 20
2.0855011482212267
 10
-14.500599465625719
 20
2.0393268886128832
 10
-14.604905516457093
 20
1.9929348461610483
 10
-14.707415541533027
 20
1.9465375515162908
 10
-14.808128142883607
 20
1.9000822215084479
 10
-14.907041922538912
 20
1.853516072967357
 10
-15.004104097328781
 20
1.8068405038629372
 10
-15.099368848393292
 20
1.760106899395432
 10
-15.19278758647204
 20
1.7134750070452471
 10
-15.284357515625189
 20
1.6668392604720583
 10
-15.374078635852742
 20
1.6201996596758643
 10
-15.462005128294772
 20
1.5736075898569104
 10
-15.54803002864104
 20
1.527013063784871
 10
-15.632208916001547
 20
1.4805202498301515
 10
-15.714491803145966
 20
1.4342361123029956
 10
-15.794931473244462
 20
1.388159253233485
 10
-15.873472347187029
 20
1.3421855042512139
 10
-15.950168606113756
 20
1.2963662505564246
 10
-16.024914683684315
 20
1.2507042880889563
 10
-16.09781894217887
 20
1.2053023872492947
 10
-16.16877721322701
 20
1.1602161271474405
 10
-16.237839484059066
 20
1.1153385434731504
 10
-16.305005754675037
 20
1.0706696362264236
 10
-16.37027602507492
 20
1.0262094054072606
 10
-16.43360030802839
 20
0.9820648153259051
 10
-16.494978603535444
 20
0.9382358659823563
 10
-16.554459500856495
 20
0.8945628098962093
 10
-16.61199441073114
 20
0.8512053945478694
 10
-16.66757774127969
 20
0.8079524872566876
 10
-16.721215084381832
 20
0.765015220703313
 10
-16.772900848157892
 20
0.7221824622070959
 10
-16.8226378285477
 20
0.6795597781083618
 10
-16.870426025551254
 20
0.6371471684071099
 10
-16.91621125802848
 20
0.5948932479030975
 10
-16.960101888259533
 20
0.5529007869968108
 10
-17.001935372824185
 20
0.5110156300875198
 10
-17.04187285717274
 20
0.4693391496057925
 10
-17.079807376994975
 20
0.4278213583213041
 10
-17.11574312620063
 20
0.38662060574454193
 10
-17.14973009202004
 20
0.3456299275652623
 10
-17.181716889252954
 20
0.30490350492354634
 10
-17.21170910977905
 20
0.26465247050004315
 10
-17.239755342858736
 20
0.22471707681434727
 10
-17.265805601261683
 20
0.18520428817670198
 10
-17.28986268092773
 20
0.1462196709274319
 10
-17.311932173736555
 20
0.10797435774718642
 10
-17.332014079688157
 20
0.07046834863596536
 10
-17.35016397789254
 20
0.03380581196417462
 10
-17.366283291858963
 20
-0.001746540477536583
 10
-17.38043039663727
 20
-0.035978973978437835
 10
-17.392672055096813
 20
-0.06836505480682481
 10
-17.4029124866867
 20
-0.09853250483172377
 10
-17.411226842095783
 20
-0.12563819130045636
 10
-17.417690272012937
 20
-0.14883898146034447
 10
-17.422230761375882
 20
-0.16686528328765474
 10
-17.424936042602752
 20
-0.17839891549824854
 10
-17.417004497084786
 20
-0.515762717434053
 10
-17.415930320385844
 20
-0.5184280976838739
 10
-17.41270918825893
 20
-0.526371455263174
 10
-17.40734669258373
 20
-0.5393816574913041
 10
-17.399766284701457
 20
-0.5583546202911047
 10
-17.390044173584137
 20
-0.584401586175822
 10
-17.37820027049739
 20
-0.614776432327097
 10
-17.364225129338532
 20
-0.6478414824999791
 10
-17.34824249005684
 20
-0.6829133514221959
 10
-17.33022892685044
 20
-0.7188821945504198
 10
-17.310144238278443
 20
-0.7552715653832714
 10
-17.288100980530764
 20
-0.7918203440097765
 10
-17.264051962316916
 20
-0.8283159997793673
 10
-17.238002775516577
 20
-0.8645474000113945
 10
-17.209956216069585
 20
-0.9004089783655332
 10
-17.17991228397593
 20
-0.9359007348417837
 10
-17.147925160375703
 20
-0.9709712842399024
 10
-17.113944858038582
 20
-1.0055136622496457
 10
-17.07796997899464
 20
-1.0395806520411763
 10
-17.040054704383966
 20
-1.0731208684142504
 10
-17.000143455096545
 20
-1.1062384797392737
 10
-16.958237629102317
 20
-1.1388807028460841
 10
-16.91444558868143
 20
-1.1709447673341948
 10
-16.868604790413645
 20
-1.202584828804336
 10
-16.82087498177937
 20
-1.2337522979961018
 10
-16.771149198468354
 20
-1.264497162139817
 10
-16.719481621620684
 20
-1.294768036035238
 10
-16.665873649206276
 20
-1.3245121365122028
 10
-16.610321087315377
 20
-1.3538878130811978
 10
-16.552826731887823
 20
-1.3827894994018988
 10
-16.493384991043943
 20
-1.411428328154955
 10
-16.432000058693482
 20
-1.4396459498298793
 10
-16.368721922066772
 20
-1.4675493287369152
 10
-16.303497797993654
 20
-1.4951370669061437
 10
-16.236324890534284
 20
-1.5225147306778901
 10
-16.167257380828747
 20
-1.54963093485191
 10
-16.096293870907125
 20
-1.5765384625983665
 10
-16.023434360769414
 20
-1.6032373139172589
 10
-15.948621873335695
 20
-1.629884440349156
 10
-15.871963372916222
 20
-1.6564298546637326
 10
-15.793354691140571
 20
-1.682817977750989
 10
-15.712901394349085
 20
-1.7090516055507627
 10
-15.63054790343175
 20
-1.7352349064334596
 10
-15.54634700155874
 20
-1.7613692783689987
 10
-15.4602473035298
 20
-1.787400540217298
 10
-15.372304388454937
 20
-1.8132245236079532
 10
-15.282464075194069
 20
-1.8388926137412065
 10
-15.190830532117598
 20
-1.8644603897270582
 10
-15.097350976055367
 20
-1.8899264535955898
 10
-15.002025407007375
 20
-1.9152908053468007
 10
-14.904858018883376
 20
-1.9403950954702047
 10
-14.805901594853534
 20
-1.9652407219357204
 10
-14.705103351747686
 20
-1.9898262867734284
 10
-14.602513276796156
 20
-2.0142587542935724
 10
-14.498131369998948
 20
-2.0385381244961533
 10
-14.39196322323573
 20
-2.0624532647005203
 10
-14.284058823736833
 20
-2.0861111392169183
 10
-14.174366786302013
 20
-2.1094575669052653
 10
-14.062885712961346
 20
-2.1325453309357236
 10
-13.949668386885001
 20
-2.155375829278212
 10
-13.834716206042891
 20
-2.1778962787625695
 10
-13.718027772465103
 20
-2.2001594625589567
 10
-13.599603086151632
 20
-2.222165380667374
 10
-13.479443545072396
 20
-2.2438612499176593
 10
-13.357600534427647
 20
-2.265301251449894
 10
-13.234074054217373
 20
-2.2864853852640774
 10
-13.108812719241339
 20
-2.307359470220129
 10
-12.98191929990003
 20
-2.328031868598211
 10
-12.853342410993204
 20
-2.348448399258242
 10
-12.72308065455094
 20
-2.368661845370385
 10
-12.591188211713316
 20
-2.388620821734395
 10
-12.457669276390096
 20
-2.4081669788397866
 10
-12.322519654671517
 20
-2.4274586661970456
 10
-12.185683767447582
 20
-2.446600052176579
 10
-12.047321362198696
 20
-2.46554254751798
 10
-11.907329668524373
 20
-2.4841777899410866
 10
-11.76571008439453
 20
-2.502452996275737
 10
-11.622565380209657
 20
-2.520476528802092
 10
-11.47784137482967
 20
-2.5382997727203964
 10
-11.331540864194409
 20
-2.5558171616903254
 10
-11.183716631474033
 20
-2.573030093681797
 10
-11.034370074638462
 20
-2.5898857855246504
 10
-10.88349699977794
 20
-2.6065425867293714
 10
-10.731100202832309
 20
-2.6228949309556353
 10
-10.577176887861722
 20
-2.6390483845437673
 10
-10.421836815116269
 20
-2.654847393923118
 10
-10.2649730202857
 20
-2.6703419463240117
 10
-10.106638286540186
 20
-2.685533439716367
 10
-9.946883999079958
 20
-2.700476055240266
 10
-9.7856601706747
 20
-2.715062828585464
 10
-9.623016788554738
 20
-2.7294007240622054
 10
-9.459008033860146
 20
-2.743438356470247
 10
-9.29353113619044
 20
-2.7570673635294254
 10
-9.12669166188595
 20
-2.770290541179579
 10
-8.958485417036913
 20
-2.783266238931194
 10
-8.78891240164333
 20
-2.795994456784272
 10
-8.617972615705202
 20
-2.808475194738812
 10
-8.44572303630245
 20
-2.820551501254245
 10
-8.272166459374905
 20
-2.832117809990247
 10
-8.09724450987274
 20
-2.8433838556575495
 10
-7.921062754136267
 20
-2.854352434195989
 10
-7.743571204935171
 20
-2.8649165812953212
 10
-7.564825441379449
 20
-2.8749721285851426
 10
-7.384821269559345
 20
-2.884677425575938
 10
-7.203608676705183
 20
-2.894139436577952
 10
-7.021137675586637
 20
-2.9032511972809414
 10
-6.837412460113464
 20
-2.911854358174418
 10
-6.652535800686153
 20
-2.920057281538546
 10
-6.466506299334781
 20
-2.927912750543485
 10
-6.279218389719031
 20
-2.9354179692494
 10
-6.0908318193193
 20
-2.942524348395884
 10
-5.901296600905271
 20
-2.949124923672693
 10
-5.710612734476938
 20
-2.955219695079828
 10
-5.518831605234546
 20
-2.960862843757369
 10
-5.325946223328505
 20
-2.966318285556129
 10
-5.132013565838727
 20
-2.971429068935539
 10
-4.936986441474729
 20
-2.9759826632450306
 10
-4.740863452266594
 20
-2.9800318516547675
 10
-4.543750164554642
 20
-2.9835794301045855
 10
-4.345588203289037
 20
-2.986835133305216
 10
-4.146433147579782
 20
-2.989694792886253
 10
-3.9462849974268743
 20
-2.9921584088476965
 10
-3.74514654877015
 20
-2.994120414849222
 10
-3.5430164036396943
 20
-2.9956335940609926
 10
-3.3399973324359915
 20
-2.996806308763169
 10
-3.135986564758556
 20
-2.99753019667559
 10
-2.9310924628875465
 20
-2.9977024873977682
 10
-2.725313628853048
 20
-2.9973759640998656
 10
-2.518648664685141
 20
-2.996603409952045
 10
-2.3110461851835815
 20
-2.9953306438142255
 10
-2.102667335798696
 20
-2.9934562932558384
 10
-1.893460731330236
 20
-2.9909261771368025
 10
-1.6833652007885291
 20
-2.9880555965081737
 10
-1.4724877084838213
 20
-2.9847945641396265
 10
-1.2608894254057856
 20
-2.9808277789801054
 10
-1.0484605913043414
 20
-2.976310794600261
 10
-0.8352525913797302
 20
-2.971297792140173
 10
-0.6213737879121135
 20
-2.965686001199356
 10
-0.40672001253109324
 20
-2.9594198426678093
 10
-0.19139683157698262
 20
-2.9525021124853694
 10
0.024654130000046674
 20
-2.945142545362769
 10
0.24137729308999695
 20
-2.9372369729296
 10
0.4587128846731176
 20
-2.928522877304971
 10
0.6767178818293181
 20
-2.91915721002945
 10
0.8953450932681172
 20
-2.909352501753605
 10
1.1145375461035045
 20
-2.898951959286378
 10
1.3343468520068515
 20
-2.887909952361255
 10
1.5547231523610618
 20
-2.876338301340133
 10
1.7756608594803767
 20
-2.864026031891874
 10
1.9971599761607353
 20
-2.8509732495828186
 10
2.2191733111116436
 20
-2.837392485063534
 10
2.4416494847247425
 20
-2.8233381306067837
 10
2.6646398835982468
 20
-2.8087560578556556
 10
2.8880875320501995
 20
-2.7934893680527506
 10
3.1119952274184195
 20
-2.777643680321565
 10
3.336362975294785
 20
-2.761219205794779
 10
3.561137991111153
 20
-2.744217289659142
 10
3.786316085151687
 20
-2.7264797407536756
 10
4.011900053356224
 20
-2.708112125418707
 10
4.237789921264111
 20
-2.689328372274721
 10
4.464089862837629
 20
-2.6700731133443996
 10
4.690690116428737
 20
-2.650190742273922
 10
4.917644865973455
 20
-2.629732749829873
 10
5.144848545131449
 20
-2.60870193195209
 10
5.372355336440778
 20
-2.587149726623987
 10
5.600163843329494
 20
-2.5650234034585715
 10
5.828169897427183
 20
-2.5423785415658435
 10
6.056429077843857
 20
-2.519319309316208
 10
6.284939990803497
 20
-2.495793081889015
 10
6.513595667801952
 20
-2.471749713704427
 10
6.742450292775242
 20
-2.44724069552903
 10
6.971453878493049
 20
-2.4223729916730665
 10
7.200653617643823
 20
-2.3969341242691384
 10
7.429946737031142
 20
-2.3710323500310673
 10
7.659336032594836
 20
-2.3447732352991792
 10
7.888820107762965
 20
-2.31810404968648
 10
8.118396166595685
 20
-2.290919226852647
 10
8.34806700643081
 20
-2.263324385921174
 10
8.577729849877995
 20
-2.235427625256373
 10
8.807434686963513
 20
-2.2071220861143397
 10
9.037132928426951
 20
-2.178567515975481
 10
9.266820377562619
 20
-2.1496054597629692
 10
9.496495637798565
 20
-2.120183187089812
 10
9.726161505074623
 20
-2.090406264296335
 10
9.955716598572408
 20
-2.06043552013384
 10
10.185213705655997
 20
-2.03026971498192
 10
10.414595846449522
 20
-1.9997517917336662
 10
10.643864416126974
 20
-1.9689344279929006
 10
10.873019416086311
 20
-1.9378176765427935
 10
11.102062241501523
 20
-1.9064542149871662
 10
11.33088592107251
 20
-1.874793792179844
 10
11.55954464013326
 20
-1.842887951670581
 10
11.787987005095713
 20
-1.8107905579004366
 10
12.016268602059727
 20
-1.7786060431556678
 10
12.244278260223558
 20
-1.746125595646932
 10
12.472017378955103
 20
-1.7134020513275603
 10
12.69954573127412
 20
-1.680697928078447
 10
12.92674935603092
 20
-1.647699058902604
 10
13.15362685106167
 20
-1.614352502280359
 10
13.380239391549965
 20
-1.5809737176122773
 10
13.60648419591155
 20
-1.5476706449131599
 10
13.832405662293015
 20
-1.5141252927584545
 10
14.057952399902236
 20
-1.4803916311555616
 10
14.283071617181234
 20
-1.4464707413753792
 10
14.50781889743393
 20
-1.4124669501378229
 10
14.73214284847021
 20
-1.3784341746671238
 10
14.956044864066092
 20
-1.344425039783933
 10
15.179469360917667
 20
-1.3103352187683355
 10
15.402413537493217
 20
-1.276058934147324
 10
15.624881586304527
 20
-1.2417544826482172
 10
15.846873505953637
 20
-1.2074218114878439
 10
16.06828511269246
 20
-1.1731159191613323
 10
16.289221982647106
 20
-1.1388343792110365
 10
16.50957434158781
 20
-1.1044211102346047
 10
16.729343584688547
 20
-1.0699287898358596
 10
16.94853669620702
 20
-1.035621122732932
 10
17.167152279571294
 20
-1.0014453785388289
 10
17.385081954327593
 20
-0.9672981006718525
 10
17.602432694571945
 20
-0.9332296458445176
 10
17.819097520616445
 20
-0.8991894462116286
 10
18.035129218427187
 20
-0.8651762093696064
 10
18.250477790988064
 20
-0.8312965301465032
 10
18.465090445343122
 20
-0.7975514370300469
 10
18.67902276479628
 20
-0.7640452567401537
 10
18.89216497092382
 20
-0.7306217495249626
 10
19.104622639851883
 20
-0.6972784889268265
 10
19.31628879189255
 20
-0.6639649071005496
 10
19.52717180787548
 20
-0.6309974391512542
 10
19.73721889624269
 20
-0.5983771663498383
 10
19.94652724530079
 20
-0.5657849632176819
 10
20.154937082405908
 20
-0.5331712903973163
 10
20.36256516744351
 20
-0.5009559867923928
 10
20.56930451932772
 20
-0.46908843177454546
 10
20.775149539189
 20
-0.437357228747274
 10
20.980100224231414
 20
-0.40576227214423816
 10
21.184157968230988
 20
-0.3743561867860893
 10
21.38732975824135
 20
-0.34340278295729937
 10
21.589507209614837
 20
-0.3127984457266581
 10
21.790791708761716
 20
-0.2823825574755429
 10
21.99107766697413
 20
-0.2521570696130688
 10
22.19036787599803
 20
-0.22222739013004966
 10
22.38866512897729
 20
-0.19269897980047007
 10
22.5859666243802
 20
-0.16346606115132487
 10
22.7822195650569
 20
-0.13452950432083105
 10
22.97747953570928
 20
-0.10599368881207498
 10
23.171640947629477
 20
-0.07786056603417169
 10
23.36475239566979
 20
-0.049970599639396415
 10
23.556708288326433
 20
-0.022325635470523207
 10
23.74766979481522
 20
0.004972056727986214
 10
23.93742853645624
 20
0.03181290223123747
 10
24.126090094967488
 20
0.058199116364196155
 10
24.313653066787168
 20
0.08418369342970532
 10
24.500009067267584
 20
0.10987024835897403
 10
24.685159487388827
 20
0.13520626189769155
 10
24.86921130544082
 20
0.16014121898383135
 10
25.05200753912768
 20
0.18461930376721813
 10
25.233603770355323
 20
0.20853624231110568
 10
25.413943008064148
 20
0.23204951398776413
 10
25.593076641648295
 20
0.2552131415877636
 10
25.770953271927826
 20
0.27797347180272475
 10
25.94757289331087
 20
0.30033071576532855
 10
26.122886901159344
 20
0.3221257066100408
 10
26.2969438917235
 20
0.3435179279014164
 10
26.469639670071512
 20
0.3644528034096886
 10
26.64102422762761
 20
0.38503713909559045
 10
26.811101755505607
 20
0.40511269101497477
 10
26.97982085172963
 20
0.4246259114258033
 10
27.147177316798032
 20
0.44373536097124294
 10
27.31317114651692
 20
0.4624411980008044
 10
27.47780233529439
 20
0.4807436336471682
 10
27.640968087566517
 20
0.49853525572723534
 10
27.80277678099112
 20
0.5157127132256467
 10
27.963168627170788
 20
0.532539104638167
 10
28.122092225527584
 20
0.5489608294395868
 10
28.27960036342561
 20
0.5649791272503146
 10
28.435643038256856
 20
0.5804876143749786
 10
28.590166053503566
 20
0.5955382566286943
 10
28.743273594311795
 20
0.6101859997234191
 10
28.89486426029157
 20
0.6242707538722323
 10
29.044935251309145
 20
0.6378982437649688
 10
29.19348796114054
 20
0.6510158445809769
 10
29.340518188886133
 20
0.6637821697465941
 10
29.486028726291853
 20
0.6760918112710063
 10
29.62996677341192
 20
0.6879440045823372
 10
29.77233372402232
 20
0.6992861248599341
 10
29.913180970313146
 20
0.7101720893280279
 10
30.05240152001477
 20
0.7206529408803463
 10
30.18999536613734
 20
0.7307289434327402
 10
30.326016698208747
 20
0.7403483950859451
 10
30.460466915596896
 20
0.7494584598866288
 10
30.593236259449654
 20
0.75821463862227
 10
30.724377392711776
 20
0.7666228686154214
 10
30.85389464489612
 20
0.774519680388091
 10
30.98173376776003
 20
0.7819589927326894
 10
31.107891962567734
 20
0.7890464775558822
 10
31.23242481541908
 20
0.7956777025714122
 10
31.355228128586294
 20
0.801798197115853
 10
31.476351896289557
 20
0.8075146615835975
 10
31.59579471636502
 20
0.812880037494318
 10
31.713503790264884
 20
0.8178935074929681
 10
31.829481909735044
 20
0.8224496635887332
 10
31.943727669815765
 20
0.8266015528676268
 10
32.05623827177123
 20
0.8304548472363135
 10
32.16701510797952
 20
0.8339569746573119
 10
32.27600817723058
 20
0.8370014986520798
 10
32.383217472534575
 20
0.8395886831364686
 10
32.48869019496777
 20
0.8419306892788545
 10
32.59237494115633
 20
0.8439740221203692
 10
32.694271709702264
 20
0.8457187344441827
 10
32.79438189158566
 20
0.8471123069959829
 10
32.892652689656636
 20
0.8481538696375531
 10
32.989136892677266
 20
0.8488446092061318
 10
33.083778908955786
 20
0.8492891691206558
 10
33.17658152744221
 20
0.8493822469566514
 10
33.267541949400744
 20
0.8492295146207833
 10
33.356715762329216
 20
0.8487264870436252
 10
33.44399457598806
 20
0.847976990289067
 10
33.52942978396534
 20
0.847034888798169
 10
33.61296998568316
 20
0.8458465820457219
 10
33.694669370669395
 20
0.8443603681324611
 10
33.774472333252625
 20
0.8426814183090257
 10
33.85243445394083
 20
0.8407055114218396
 10
33.92844603259662
 20
0.8385859313652348
 10
34.00261394406018
 20
0.8362760690317774
 10
34.074832635970864
 20
0.8337726006499282
 10
34.145154899886684
 20
0.8310766074905849
 10
34.21358073301167
 20
0.8281881951200878
 10
34.280108733182
 20
0.8251603050581097
 10
34.34468750261572
 20
0.8219392312131011
 10
34.407314239781094
 20
0.8186307510580669
 10
34.46804313839994
 20
0.8151830043442327
 10
34.52681999915856
 20
0.8116480624530537
 10
34.583646218628914
 20
0.8079731949975377
 10
34.638520397443095
 20
0.8042112379310175
 10
34.69144392937714
 20
0.800309566432841
 10
34.74241541506315
 20
0.7963210164563409
 10
34.7914320571633
 20
0.7923512071250117
 10
34.83844385167164
 20
0.7882938075266522
 10
34.88355499212204
 20
0.7842034466741994
 10
34.926605689094984
 20
0.7801302973231637
 10
34.967755727816076
 20
0.7760243450675454
 10
35.00689951398559
 20
0.7718838496309095
 10
35.04403425026571
 20
0.7678144301367511
 10
35.07921412898029
 20
0.7637642791194658
 10
35.112386351581485
 20
0.7597325792240057
 10
35.14354812212947
 20
0.7558248967906962
 10
35.172755029520026
 20
0.7519366939669399
 10
35.19995148206144
 20
0.7481726141716744
 10
35.22513887492766
 20
0.7444799798010774
 10
35.24831441217888
 20
0.7409643571954737
 10
35.269479491785
 20
0.737572963184701
 10
35.28868550873205
 20
0.7343596094266491
 10
35.30582687011828
 20
0.7313225028617136
 10
35.32095497512366
 20
0.7285152967982742
 10
35.33412261810208
 20
0.7259389669408881
 10
35.34522420615179
 20
0.723591720229951
 10
35.354309737686876
 20
0.7215800987103447
 10
35.36143341062307
 20
0.7198520837837841
 10
35.3664868305269
 20
0.7185116598636699
 10
35.36952140077221
 20
0.7176123219088709
 10
35.37053432122524
 20
0.7172597946092223
  0
ENDSEC
  0
SECTION
  2
OBJECTS
  0
DICTIONARY
  5
A
330
0
100
AcDbDictionary
280
0
281
1
  3
ACAD_COLOR
350
B
  3
ACAD_GROUP
350
C
  3
ACAD_LAYOUT
350
D
  3
ACAD_MATERIAL
350
E
  3
ACAD_MLEADERSTYLE
350
F
  3
ACAD_MLINESTYLE
350
10
  3
ACAD_PLOTSETTINGS
350
11
  3
ACAD_PLOTSTYLENAME
350
12
  3
ACAD_SCALELIST
350
14
  3
ACAD_TABLESTYLE
350
15
  3
ACAD_VISUALSTYLE
350
16
  3
EZDXF_META
350
2D
  0
DICTIONARY
  5
B
330
A
100
AcDbDictionary
280
0
281
1
  0
DICTIONARY
  5
C
330
A
100
AcDbDictionary
280
0
281
1
  0
DICTIONARY
  5
D
330
A
100
AcDbDictionary
280
0
281
1
  3
Model
350
1A
  3
Layout1
350
1E
  0
DICTIONARY
  5
E
330
A
100
AcDbDictionary
280
0
281
1
  3
ByBlock
350
1F
  3
ByLayer
350
20
  3
Global
350
21
  0
DICTIONARY
  5
F
330
A
100
AcDbDictionary
280
0
281
1
  3
Standard
350
2C
  0
DICTIONARY
  5
10
330
A
100
AcDbDictionary
280
0
281
1
  3
Standard
350
22
  0
DICTIONARY
  5
11
330
A
100
AcDbDictionary
280
0
281
1
  0
ACDBDICTIONARYWDFLT
  5
12
330
A
100
AcDbDictionary
280
0
281
1
  3
Normal
350
13
100
AcDbDictionaryWithDefault
340
13
  0
ACDBPLACEHOLDER
  5
13
330
12
  0
DICTIONARY
  5
14
330
A
100
AcDbDictionary
280
0
281
1
  0
DICTIONARY
  5
15
330
A
100
AcDbDictionary
280
0
281
1
  0
DICTIONARY
  5
16
330
A
100
AcDbDictionary
280
0
281
1
  0
LAYOUT
  5
1A
330
D
100
AcDbPlotSettings
  1

  4
A3
  6

 40
7.5
 41
20.0
 42
7.5
 43
20.0
 44
420.0
 45
297.0
 46
0.0
 47
0.0
 48
0.0
 49
0.0
140
0.0
141
0.0
142
1.0
143
1.0
 70
1024
 72
1
 73
0
 74
5
  7

 75
16
 76
0
 77
2
 78
300
147
1.0
148
0.0
149
0.0
100
AcDbLayout
  1
Model
 70
1
 71
0
 10
0.0
 20
0.0
 11
420.0
 21
297.0
 12
0.0
 22
0.0
 32
0.0
 14
1e+20
 24
1e+20
 34
1e+20
 15
-1e+20
 25
-1e+20
 35
-1e+20
146
0.0
 13
0.0
 23
0.0
 33
0.0
 16
1.0
 26
0.0
 36
0.0
 17
0.0
 27
1.0
 37
0.0
 76
1
330
17
  0
LAYOUT
  5
1E
330
D
100
AcDbPlotSettings
  1

  4
A3
  6

 40
7.5
 41
20.0
 42
7.5
 43
20.0
 44
420.0
 45
297.0
 46
0.0
 47
0.0
 48
0.0
 49
0.0
140
0.0
141
0.0
142
1.0
143
1.0
 70
0
 72
1
 73
0
 74
5
  7

 75
16
 76
0
 77
2
 78
300
147
1.0
148
0.0
149
0.0
100
AcDbLayout
  1
Layout1
 70
1
 71
1
 10
0.0
 20
0.0
 11
420.0
 21
297.0
 12
0.0
 22
0.0
 32
0.0
 14
1e+20
 24
1e+20
 34
1e+20
 15
-1e+20
 25
-1e+20
 35
-1e+20
146
0.0
 13
0.0
 23
0.0
 33
0.0
 16
1.0
 26
0.0
 36
0.0
 17
0.0
 27
1.0
 37
0.0
 76
1
330
1B
  0
MATERIAL
  5
1F
102
{ACAD_REACTORS
330
E
102
}
330
E
100
AcDbMaterial
  1
ByBlock
  2

 70
0
 40
1.0
 71
1
 41
1.0
 91
-1023410177
 42
1.0
 72
1
  3

 73
1
 74
1
 75
1
 44
0.5
 73
0
 45
1.0
 46
1.0
 77
1
  4

 78
1
 79
1
170
1
 48
1.0
171
1
  6

172
1
173
1
174
1
140
1.0
141
1.0
175
1
  7

176
1
177
1
178
1
143
1.0
179
1
  8

270
1
271
1
272
1
145
1.0
146
1.0
273
1
  9

274
1
275
1
276
1
 42
1.0
 72
1
  3

 73
1
 74
1
 75
1
 94
63
  0
MATERIAL
  5
20
102
{ACAD_REACTORS
330
E
102
}
330
E
100
AcDbMaterial
  1
ByLayer
  2

 70
0
 40
1.0
 71
1
 41
1.0
 91
-1023410177
 42
1.0
 72
1
  3

 73
1
 74
1
 75
1
 44
0.5
 73
0
 45
1.0
 46
1.0
 77
1
  4

 78
1
 79
1
170
1
 48
1.0
171
1
  6

172
1
173
1
174
1
140
1.0
141
1.0
175
1
  7

176
1
177
1
178
1
143
1.0
179
1
  8

270
1
271
1
272
1
145
1.0
146
1.0
273
1
  9

274
1
275
1
276
1
 42
1.0
 72
1
  3

 73
1
 74
1
 75
1
 94
63
  0
MATERIAL
  5
21
102
{ACAD_REACTORS
330
E
102
}
330
E
100
AcDbMaterial
  1
Global
  2

 70
0
 40
1.0
 71
1
 41
1.0
 91
-1023410177
 42
1.0
 72
1
  3

 73
1
 74
1
 75
1
 44
0.5
 73
0
 45
1.0
 46
1.0
 77
1
  4

 78
1
 79
1
170
1
 48
1.0
171
1
  6

172
1
173
1
174
1
140
1.0
141
1.0
175
1
  7

176
1
177
1
178
1
143
1.0
179
1
  8

270
1
271
1
272
1
145
1.0
146
1.0
273
1
  9

274
1
275
1
276
1
 42
1.0
 72
1
  3

 73
1
 74
1
 75
1
 94
63
  0
MLINESTYLE
  5
22
102
{ACAD_REACTORS
330
10
102
}
330
10
100
AcDbMlineStyle
  2
Standard
 70
0
  3

 62
256
 51
90.0
 52
90.0
 71
2
 49
0.5
 62
256
  6
BYLAYER
 49
-0.5
 62
256
  6
BYLAYER
  0
MLEADERSTYLE
  5
2C
102
{ACAD_REACTORS
330
F
102
}
330
F
100
AcDbMLeaderStyle
179
2
170
2
171
1
172
0
 90
2
 40
0.0
 41
0.0
173
1
 91
-1056964608
 92
-2
290
1
 42
2.0
291
1
 43
8.0
  3
Standard
 44
4.0
300

342
29
174
1
175
1
176
0
178
1
 93
-1056964608
 45
4.0
292
0
297
0
 46
4.0
 94
-1056964608
 47
1.0
 49
1.0
140
1.0
294
1
141
0.0
177
0
142
1.0
295
0
296
0
143
3.75
271
0
272
9
273
9
  0
DICTIONARY
  5
2D
330
A
100
AcDbDictionary
280
1
281
1
  3
CREATED_BY_EZDXF
350
2E
  3
WRITTEN_BY_EZDXF
350
32
  0
DICTIONARYVAR
  5
2E
330
2D
100
DictionaryVariables
280
0
  1
1.3.5 @ 2025-08-20T01:58:17.460897+00:00
  0
DICTIONARYVAR
  5
32
330
2D
100
DictionaryVariables
280
0
  1
1.3.5 @ 2025-08-20T01:58:17.463847+00:00
  0
ENDSEC
  0
EOF
