  0
SECTION
  2
HEADER
  9
$ACADVER
  1
AC1032
  9
$ACADMAINTVER
 90
4
  9
$DWGCODEPAGE
  3
ANSI_1252
  9
$LASTSAVEDBY
  1
ezdxf
  9
$REQUIREDVERSIONS
160
0
  9
$INSBASE
 10
0.0
 20
0.0
 30
0.0
  9
$EXTMIN
 10
1e+20
 20
1e+20
 30
1e+20
  9
$EXTMAX
 10
-1e+20
 20
-1e+20
 30
-1e+20
  9
$LIMMIN
 10
0.0
 20
0.0
  9
$LIMMAX
 10
420.0
 20
297.0
  9
$ORTHOMODE
 70
0
  9
$REGENMODE
 70
1
  9
$FILLMODE
 70
1
  9
$QTEXTMODE
 70
0
  9
$MIRRTEXT
 70
1
  9
$LTSCALE
 40
1.0
  9
$ATTMODE
 70
1
  9
$TEXTSIZE
 40
2.5
  9
$TRACEWID
 40
1.0
  9
$TEXTSTYLE
  7
Standard
  9
$CLAYER
  8
0
  9
$CELTYPE
  6
ByLayer
  9
$CECOLOR
 62
256
  9
$CELTSCALE
 40
1.0
  9
$DISPSILH
 70
0
  9
$DIMSCALE
 40
1.0
  9
$DIMASZ
 40
2.5
  9
$DIMEXO
 40
0.625
  9
$DIMDLI
 40
3.75
  9
$DIMRND
 40
0.0
  9
$DIMDLE
 40
0.0
  9
$DIMEXE
 40
1.25
  9
$DIMTP
 40
0.0
  9
$DIMTM
 40
0.0
  9
$DIMTXT
 40
2.5
  9
$DIMCEN
 40
2.5
  9
$DIMTSZ
 40
0.0
  9
$DIMTOL
 70
0
  9
$DIMLIM
 70
0
  9
$DIMTIH
 70
0
  9
$DIMTOH
 70
0
  9
$DIMSE1
 70
0
  9
$DIMSE2
 70
0
  9
$DIMTAD
 70
1
  9
$DIMZIN
 70
8
  9
$DIMBLK
  1

  9
$DIMASO
 70
1
  9
$DIMSHO
 70
1
  9
$DIMPOST
  1

  9
$DIMAPOST
  1

  9
$DIMALT
 70
0
  9
$DIMALTD
 70
3
  9
$DIMALTF
 40
0.03937007874
  9
$DIMLFAC
 40
1.0
  9
$DIMTOFL
 70
1
  9
$DIMTVP
 40
0.0
  9
$DIMTIX
 70
0
  9
$DIMSOXD
 70
0
  9
$DIMSAH
 70
0
  9
$DIMBLK1
  1

  9
$DIMBLK2
  1

  9
$DIMSTYLE
  2
ISO-25
  9
$DIMCLRD
 70
0
  9
$DIMCLRE
 70
0
  9
$DIMCLRT
 70
0
  9
$DIMTFAC
 40
1.0
  9
$DIMGAP
 40
0.625
  9
$DIMJUST
 70
0
  9
$DIMSD1
 70
0
  9
$DIMSD2
 70
0
  9
$DIMTOLJ
 70
0
  9
$DIMTZIN
 70
8
  9
$DIMALTZ
 70
0
  9
$DIMALTTZ
 70
0
  9
$DIMUPT
 70
0
  9
$DIMDEC
 70
2
  9
$DIMTDEC
 70
2
  9
$DIMALTU
 70
2
  9
$DIMALTTD
 70
3
  9
$DIMTXSTY
  7
Standard
  9
$DIMAUNIT
 70
0
  9
$DIMADEC
 70
0
  9
$DIMALTRND
 40
0.0
  9
$DIMAZIN
 70
0
  9
$DIMDSEP
 70
44
  9
$DIMATFIT
 70
3
  9
$DIMFRAC
 70
0
  9
$DIMLDRBLK
  1

  9
$DIMLUNIT
 70
2
  9
$DIMLWD
 70
-2
  9
$DIMLWE
 70
-2
  9
$DIMTMOVE
 70
0
  9
$DIMFXL
 40
1.0
  9
$DIMFXLON
 70
0
  9
$DIMJOGANG
 40
0.785398163397
  9
$DIMTFILL
 70
0
  9
$DIMTFILLCLR
 70
0
  9
$DIMARCSYM
 70
0
  9
$DIMLTYPE
  6

  9
$DIMLTEX1
  6

  9
$DIMLTEX2
  6

  9
$DIMTXTDIRECTION
 70
0
  9
$LUNITS
 70
2
  9
$LUPREC
 70
4
  9
$SKETCHINC
 40
1.0
  9
$FILLETRAD
 40
10.0
  9
$AUNITS
 70
0
  9
$AUPREC
 70
2
  9
$MENU
  1
.
  9
$ELEVATION
 40
0.0
  9
$PELEVATION
 40
0.0
  9
$THICKNESS
 40
0.0
  9
$LIMCHECK
 70
0
  9
$CHAMFERA
 40
0.0
  9
$CHAMFERB
 40
0.0
  9
$CHAMFERC
 40
0.0
  9
$CHAMFERD
 40
0.0
  9
$SKPOLY
 70
0
  9
$TDCREATE
 40
2460908.1238078703
  9
$TDUCREATE
 40
2458532.153996898
  9
$TDUPDATE
 40
2460908.1238078703
  9
$TDUUPDATE
 40
2458532.1544311
  9
$TDINDWG
 40
0.0
  9
$TDUSRTIMER
 40
0.0
  9
$USRTIMER
 70
1
  9
$ANGBASE
 50
0.0
  9
$ANGDIR
 70
0
  9
$PDMODE
 70
0
  9
$PDSIZE
 40
0.0
  9
$PLINEWID
 40
0.0
  9
$SPLFRAME
 70
0
  9
$SPLINETYPE
 70
6
  9
$SPLINESEGS
 70
8
  9
$HANDSEED
  5
33
  9
$SURFTAB1
 70
6
  9
$SURFTAB2
 70
6
  9
$SURFTYPE
 70
6
  9
$SURFU
 70
6
  9
$SURFV
 70
6
  9
$UCSBASE
  2

  9
$UCSNAME
  2

  9
$UCSORG
 10
0.0
 20
0.0
 30
0.0
  9
$UCSXDIR
 10
1.0
 20
0.0
 30
0.0
  9
$UCSYDIR
 10
0.0
 20
1.0
 30
0.0
  9
$UCSORTHOREF
  2

  9
$UCSORTHOVIEW
 70
0
  9
$UCSORGTOP
 10
0.0
 20
0.0
 30
0.0
  9
$UCSORGBOTTOM
 10
0.0
 20
0.0
 30
0.0
  9
$UCSORGLEFT
 10
0.0
 20
0.0
 30
0.0
  9
$UCSORGRIGHT
 10
0.0
 20
0.0
 30
0.0
  9
$UCSORGFRONT
 10
0.0
 20
0.0
 30
0.0
  9
$UCSORGBACK
 10
0.0
 20
0.0
 30
0.0
  9
$PUCSBASE
  2

  9
$PUCSNAME
  2

  9
$PUCSORG
 10
0.0
 20
0.0
 30
0.0
  9
$PUCSXDIR
 10
1.0
 20
0.0
 30
0.0
  9
$PUCSYDIR
 10
0.0
 20
1.0
 30
0.0
  9
$PUCSORTHOREF
  2

  9
$PUCSORTHOVIEW
 70
0
  9
$PUCSORGTOP
 10
0.0
 20
0.0
 30
0.0
  9
$PUCSORGBOTTOM
 10
0.0
 20
0.0
 30
0.0
  9
$PUCSORGLEFT
 10
0.0
 20
0.0
 30
0.0
  9
$PUCSORGRIGHT
 10
0.0
 20
0.0
 30
0.0
  9
$PUCSORGFRONT
 10
0.0
 20
0.0
 30
0.0
  9
$PUCSORGBACK
 10
0.0
 20
0.0
 30
0.0
  9
$USERI1
 70
0
  9
$USERI2
 70
0
  9
$USERI3
 70
0
  9
$USERI4
 70
0
  9
$USERI5
 70
0
  9
$USERR1
 40
0.0
  9
$USERR2
 40
0.0
  9
$USERR3
 40
0.0
  9
$USERR4
 40
0.0
  9
$USERR5
 40
0.0
  9
$WORLDVIEW
 70
1
  9
$SHADEDGE
 70
3
  9
$SHADEDIF
 70
70
  9
$TILEMODE
 70
1
  9
$MAXACTVP
 70
64
  9
$PINSBASE
 10
0.0
 20
0.0
 30
0.0
  9
$PLIMCHECK
 70
0
  9
$PEXTMIN
 10
1e+20
 20
1e+20
 30
1e+20
  9
$PEXTMAX
 10
-1e+20
 20
-1e+20
 30
-1e+20
  9
$PLIMMIN
 10
0.0
 20
0.0
  9
$PLIMMAX
 10
420.0
 20
297.0
  9
$UNITMODE
 70
0
  9
$VISRETAIN
 70
1
  9
$PLINEGEN
 70
0
  9
$PSLTSCALE
 70
1
  9
$TREEDEPTH
 70
3020
  9
$CMLSTYLE
  2
Standard
  9
$CMLJUST
 70
0
  9
$CMLSCALE
 40
20.0
  9
$PROXYGRAPHICS
 70
1
  9
$MEASUREMENT
 70
1
  9
$CELWEIGHT
370
-1
  9
$ENDCAPS
280
0
  9
$JOINSTYLE
280
0
  9
$LWDISPLAY
290
0
  9
$INSUNITS
 70
6
  9
$HYPERLINKBASE
  1

  9
$STYLESHEET
  1

  9
$XEDIT
290
1
  9
$CEPSNTYPE
380
0
  9
$PSTYLEMODE
290
1
  9
$FINGERPRINTGUID
  2
{B31B1F5B-4734-4F42-9B52-A1C43A5D0700}
  9
$VERSIONGUID
  2
{A2AE0907-844C-444B-BD0C-A375CC93F58C}
  9
$EXTNAMES
290
1
  9
$PSVPSCALE
 40
0.0
  9
$OLESTARTUP
290
0
  9
$SORTENTS
280
127
  9
$INDEXCTL
280
0
  9
$HIDETEXT
280
1
  9
$XCLIPFRAME
280
1
  9
$HALOGAP
280
0
  9
$OBSCOLOR
 70
257
  9
$OBSLTYPE
280
0
  9
$INTERSECTIONDISPLAY
280
0
  9
$INTERSECTIONCOLOR
 70
257
  9
$DIMASSOC
280
2
  9
$PROJECTNAME
  1

  9
$CAMERADISPLAY
290
0
  9
$LENSLENGTH
 40
50.0
  9
$CAMERAHEIGHT
 40
0.0
  9
$STEPSPERSEC
 40
24.0
  9
$STEPSIZE
 40
100.0
  9
$3DDWFPREC
 40
2.0
  9
$PSOLWIDTH
 40
0.005
  9
$PSOLHEIGHT
 40
0.08
  9
$LOFTANG1
 40
1.570796326795
  9
$LOFTANG2
 40
1.570796326795
  9
$LOFTMAG1
 40
0.0
  9
$LOFTMAG2
 40
0.0
  9
$LOFTPARAM
 70
7
  9
$LOFTNORMALS
280
1
  9
$LATITUDE
 40
37.795
  9
$LONGITUDE
 40
-122.394
  9
$NORTHDIRECTION
 40
0.0
  9
$TIMEZONE
 70
-8000
  9
$LIGHTGLYPHDISPLAY
280
1
  9
$TILEMODELIGHTSYNCH
280
1
  9
$CMATERIAL
347
20
  9
$SOLIDHIST
280
0
  9
$SHOWHIST
280
1
  9
$DWFFRAME
280
2
  9
$DGNFRAME
280
2
  9
$REALWORLDSCALE
290
1
  9
$INTERFERECOLOR
 62
256
  9
$CSHADOW
280
0
  9
$SHADOWPLANELOCATION
 40
0.0
  0
ENDSEC
  0
SECTION
  2
CLASSES
  0
CLASS
  1
ACDBDICTIONARYWDFLT
  2
AcDbDictionaryWithDefault
  3
ObjectDBX Classes
 90
0
 91
0
280
0
281
0
  0
CLASS
  1
SUN
  2
AcDbSun
  3
SCENEOE
 90
1153
 91
0
280
0
281
0
  0
CLASS
  1
VISUALSTYLE
  2
AcDbVisualStyle
  3
ObjectDBX Classes
 90
4095
 91
0
280
0
281
0
  0
CLASS
  1
MATERIAL
  2
AcDbMaterial
  3
ObjectDBX Classes
 90
1153
 91
0
280
0
281
0
  0
CLASS
  1
SCALE
  2
AcDbScale
  3
ObjectDBX Classes
 90
1153
 91
0
280
0
281
0
  0
CLASS
  1
TABLESTYLE
  2
AcDbTableStyle
  3
ObjectDBX Classes
 90
4095
 91
0
280
0
281
0
  0
CLASS
  1
MLEADERSTYLE
  2
AcDbMLeaderStyle
  3
ACDB_MLEADERSTYLE_CLASS
 90
4095
 91
0
280
0
281
0
  0
CLASS
  1
DICTIONARYVAR
  2
AcDbDictionaryVar
  3
ObjectDBX Classes
 90
0
 91
0
280
0
281
0
  0
CLASS
  1
CELLSTYLEMAP
  2
AcDbCellStyleMap
  3
ObjectDBX Classes
 90
1152
 91
0
280
0
281
0
  0
CLASS
  1
MENTALRAYRENDERSETTINGS
  2
AcDbMentalRayRenderSettings
  3
SCENEOE
 90
1024
 91
0
280
0
281
0
  0
CLASS
  1
ACDBDETAILVIEWSTYLE
  2
AcDbDetailViewStyle
  3
ObjectDBX Classes
 90
1025
 91
0
280
0
281
0
  0
CLASS
  1
ACDBSECTIONVIEWSTYLE
  2
AcDbSectionViewStyle
  3
ObjectDBX Classes
 90
1025
 91
0
280
0
281
0
  0
CLASS
  1
RASTERVARIABLES
  2
AcDbRasterVariables
  3
ISM
 90
0
 91
0
280
0
281
0
  0
CLASS
  1
LAYOUT
  2
AcDbLayout
  3
ObjectDBX Classes
 90
0
 91
0
280
0
281
0
  0
CLASS
  1
ACDBPLACEHOLDER
  2
AcDbPlaceHolder
  3
ObjectDBX Classes
 90
0
 91
0
280
0
281
0
  0
ENDSEC
  0
SECTION
  2
TABLES
  0
TABLE
  2
VPORT
  5
8
330
0
100
AcDbSymbolTable
 70
1
  0
VPORT
  5
23
330
8
100
AcDbSymbolTableRecord
100
AcDbViewportTableRecord
  2
*Active
 70
0
 10
0.0
 20
0.0
 11
1.0
 21
1.0
 12
0.0
 22
0.0
 13
0.0
 23
0.0
 14
0.5
 24
0.5
 15
0.5
 25
0.5
 16
0.0
 26
0.0
 36
1.0
 17
0.0
 27
0.0
 37
0.0
 40
1000.0
 41
1.34
 42
50.0
 43
0.0
 44
0.0
 50
0.0
 51
0.0
 71
0
 72
1000
 73
1
 74
3
 75
0
 76
0
 77
0
 78
0
281
0
 65
0
146
0.0
  0
ENDTAB
  0
TABLE
  2
LTYPE
  5
2
330
0
100
AcDbSymbolTable
 70
3
  0
LTYPE
  5
24
330
2
100
AcDbSymbolTableRecord
100
AcDbLinetypeTableRecord
  2
ByBlock
 70
0
  3

 72
65
 73
0
 40
0.0
  0
LTYPE
  5
25
330
2
100
AcDbSymbolTableRecord
100
AcDbLinetypeTableRecord
  2
ByLayer
 70
0
  3

 72
65
 73
0
 40
0.0
  0
LTYPE
  5
26
330
2
100
AcDbSymbolTableRecord
100
AcDbLinetypeTableRecord
  2
Continuous
 70
0
  3

 72
65
 73
0
 40
0.0
  0
ENDTAB
  0
TABLE
  2
LAYER
  5
1
330
0
100
AcDbSymbolTable
 70
2
  0
LAYER
  5
27
330
1
100
AcDbSymbolTableRecord
100
AcDbLayerTableRecord
  2
0
 70
0
 62
7
  6
Continuous
370
-3
390
13
347
21
  0
LAYER
  5
28
330
1
100
AcDbSymbolTableRecord
100
AcDbLayerTableRecord
  2
Defpoints
 70
0
 62
7
  6
Continuous
290
0
370
-3
390
13
347
21
  0
ENDTAB
  0
TABLE
  2
STYLE
  5
5
330
0
100
AcDbSymbolTable
 70
1
  0
STYLE
  5
29
330
5
100
AcDbSymbolTableRecord
100
AcDbTextStyleTableRecord
  2
Standard
 70
0
 40
0.0
 41
1.0
 50
0.0
 71
0
 42
2.5
  3
txt
  4

  0
ENDTAB
  0
TABLE
  2
VIEW
  5
7
330
0
100
AcDbSymbolTable
 70
0
  0
ENDTAB
  0
TABLE
  2
UCS
  5
6
330
0
100
AcDbSymbolTable
 70
0
  0
ENDTAB
  0
TABLE
  2
APPID
  5
3
330
0
100
AcDbSymbolTable
 70
3
  0
APPID
  5
2A
330
3
100
AcDbSymbolTableRecord
100
AcDbRegAppTableRecord
  2
ACAD
 70
0
  0
APPID
  5
30
330
3
100
AcDbSymbolTableRecord
100
AcDbRegAppTableRecord
  2
HATCHBACKGROUNDCOLOR
 70
0
  0
APPID
  5
31
330
3
100
AcDbSymbolTableRecord
100
AcDbRegAppTableRecord
  2
EZDXF
 70
0
  0
ENDTAB
  0
TABLE
  2
DIMSTYLE
  5
4
330
0
100
AcDbSymbolTable
 70
1
100
AcDbDimStyleTable
  0
DIMSTYLE
105
2B
330
4
100
AcDbSymbolTableRecord
100
AcDbDimStyleTableRecord
  2
Standard
 70
0
 40
1.0
 41
2.5
 42
0.625
 43
3.75
 44
1.25
 45
0.0
 46
0.0
 47
0.0
 48
0.0
 49
2.5
140
2.5
141
2.5
142
0.0
143
0.03937007874
144
1.0
145
0.0
146
1.0
147
0.625
148
0.0
 69
0
 70
0
 71
0
 72
0
 73
0
 74
0
 75
0
 76
0
 77
1
 78
8
 79
3
170
0
171
3
172
1
173
0
174
0
175
0
176
0
177
0
178
0
179
2
271
2
272
2
273
2
274
3
275
0
276
0
277
2
278
44
279
0
280
0
281
0
282
0
283
0
284
8
285
0
286
0
288
0
289
3
290
0
371
-2
372
-2
  0
ENDTAB
  0
TABLE
  2
BLOCK_RECORD
  5
9
330
0
100
AcDbSymbolTable
 70
2
  0
BLOCK_RECORD
  5
17
330
9
100
AcDbSymbolTableRecord
100
AcDbBlockTableRecord
  2
*Model_Space
340
1A
 70
0
280
1
281
0
  0
BLOCK_RECORD
  5
1B
330
9
100
AcDbSymbolTableRecord
100
AcDbBlockTableRecord
  2
*Paper_Space
340
1E
 70
0
280
1
281
0
  0
ENDTAB
  0
ENDSEC
  0
SECTION
  2
BLOCKS
  0
BLOCK
  5
18
330
17
100
AcDbEntity
  8
0
100
AcDbBlockBegin
  2
*Model_Space
 70
0
 10
0.0
 20
0.0
 30
0.0
  3
*Model_Space
  1

  0
ENDBLK
  5
19
330
17
100
AcDbEntity
  8
0
100
AcDbBlockEnd
  0
BLOCK
  5
1C
330
1B
100
AcDbEntity
  8
0
100
AcDbBlockBegin
  2
*Paper_Space
 70
0
 10
0.0
 20
0.0
 30
0.0
  3
*Paper_Space
  1

  0
ENDBLK
  5
1D
330
1B
100
AcDbEntity
  8
0
100
AcDbBlockEnd
  0
ENDSEC
  0
SECTION
  2
ENTITIES
  0
LWPOLYLINE
  5
2F
330
17
100
AcDbEntity
  8
0
100
AcDbPolyline
 90
721
 70
1
 10
51.984470757467314
 20
4.772650712254973
 10
51.982949248954235
 20
4.773049123324437
 10
51.978398498831
 20
4.77408898078248
 10
51.970846009763925
 20
4.775460076400258
 10
51.96020049928445
 20
4.7773097409469525
 10
51.946637672144966
 20
4.779420690318317
 10
51.93007311982329
 20
4.781862722628886
 10
51.91043616792834
 20
4.784550725904439
 10
51.887881906254194
 20
4.787499936394396
 10
51.86233966040976
 20
4.790625242124534
 10
51.83371812728403
 20
4.794074206694829
 10
51.80218615832546
 20
4.797706845824884
 10
51.76766619143496
 20
4.8015157354156495
 10
51.73015134578534
 20
4.8055784857320365
 10
51.68965538303095
 20
4.809739876244224
 10
51.64616452775581
 20
4.814155282702563
 10
51.59976320912452
 20
4.81875467416172
 10
51.55037386503797
 20
4.823530626522649
 10
51.49798961466898
 20
4.828560750050257
 10
51.44270175424778
 20
4.833697558754836
 10
51.38441896690163
 20
4.839088771456889
 10
51.32315500740412
 20
4.844579245236862
 10
51.25905119701413
 20
4.850339514484263
 10
51.191881771546505
 20
4.856269230975445
 10
51.121879355371064
 20
4.8623913654999384
 10
51.04888885181297
 20
4.868690759418588
 10
50.97298778856714
 20
4.875175224881764
 10
50.894176158752785
 20
4.881844839499734
 10
50.812447074661875
 20
4.888777291147671
 10
50.72780051565193
 20
4.89597281265637
 10
50.64025023649649
 20
4.903276261106276
 10
50.54978246866037
 20
4.910842934637475
 10
50.45648161378491
 20
4.9186031127456955
 10
50.36026324270544
 20
4.926626826376266
 10
50.26114108955305
 20
4.934759165440428
 10
50.15917894101082
 20
4.943162929787581
 10
50.05436989560905
 20
4.951915962513426
 10
49.9467345820677
 20
4.960785588043767
 10
49.836181669752435
 20
4.969919680419641
 10
49.722873129284515
 20
4.979255865625554
 10
49.60664696251937
 20
4.98885682811806
 10
49.48765825237026
 20
4.99873788175684
 10
49.36582942985724
 20
5.008891680053115
 10
49.24123802955612
 20
5.0193259575469895
 10
49.11381336331415
 20
5.029955757484772
 10
48.98363296570715
 20
5.0407888144065724
 10
48.85060550610076
 20
5.0519730023534235
 10
48.71489294823548
 20
5.063446024920103
 10
48.57641772313134
 20
5.075200535617829
 10
48.4351798170267
 20
5.087236689667129
 10
48.291179195517415
 20
5.099554875119328
 10
48.144486526113766
 20
5.112240281558914
 10
47.995031106901315
 20
5.125208107452724
 10
47.842883598509545
 20
5.138543619995511
 10
47.68805084736151
 20
5.152169596973691
 10
47.53054660823075
 20
5.1659308954677075
 10
47.370434640277054
 20
5.17999062576802
 10
47.20762361974688
 20
5.194496584305395
 10
47.04211351223613
 20
5.209449159131162
 10
46.87400250168301
 20
5.224623176380433
 10
46.70328367973701
 20
5.240096556759178
 10
46.529957032636474
 20
5.255869455487924
 10
46.354001883495705
 20
5.27217509141273
 10
46.1754526158082
 20
5.288625646039838
 10
45.99437300249532
 20
5.305384074439176
 10
45.81075614208744
 20
5.32252821970645
 10
45.6245175778966
 20
5.34012842322805
 10
45.4358192667824
 20
5.358122466209019
 10
45.2445905137113
 20
5.376425469505926
 10
45.05083130492164
 20
5.395037588339304
 10
44.85460539957316
 20
5.414121932999608
 10
44.65594029345134
 20
5.433368372868259
 10
44.454744662802675
 20
5.452924704376029
 10
44.2511666959516
 20
5.4728840068680435
 10
44.04520637225565
 20
5.493246513175098
 10
43.83679988438921
 20
5.5138496562785875
 10
43.62594031712102
 20
5.534771434494749
 10
43.4127827533643
 20
5.556027161683267
 10
43.19723585560391
 20
5.5777647894954425
 10
42.97932024567895
 20
5.599751719967341
 10
42.75911345128439
 20
5.621995765249336
 10
42.536615451777784
 20
5.644497158172223
 10
42.311812451100565
 20
5.667411507317145
 10
42.08470442861028
 20
5.6907390455148965
 10
41.85529824449163
 20
5.714402395331365
 10
41.6237558624851
 20
5.738339260361324
 10
41.38991526380356
 20
5.7626125578921155
 10
41.15385398302287
 20
5.78723002246385
 10
40.91567019720041
 20
5.811966557821909
 10
40.675279435886544
 20
5.836892660573208
 10
40.43273859117551
 20
5.862248896052587
 10
40.18812519764309
 20
5.888042998800152
 10
39.94129787210299
 20
5.914105132918785
 10
39.69243235371172
 20
5.940217626252912
 10
39.44150109163719
 20
5.966691230303231
 10
39.18851094606409
 20
5.993448567635627
 10
38.93345500864195
 20
6.020567558956069
 10
38.676424568720115
 20
6.047900795885112
 10
38.41741961253695
 20
6.075448433643286
 10
38.15636255047001
 20
6.1032033585726
 10
37.89340159148622
 20
6.131258417187387
 10
37.62845915972477
 20
6.159606340609127
 10
37.36162655141593
 20
6.188099642848111
 10
37.09290373903632
 20
6.216738634345397
 10
36.8223682640426
 20
6.245530972030828
 10
36.54993565598518
 20
6.274547152511327
 10
36.275669694666256
 20
6.303950053246553
 10
35.999513426064205
 20
6.333499807394057
 10
35.72169264876832
 20
6.363296375126155
 10
35.44207973436587
 20
6.393014777626176
 10
35.1606677676255
 20
6.422733013210351
 10
34.8775912165022
 20
6.452698916092035
 10
34.592843172645495
 20
6.482990406977199
 10
34.30628913369624
 20
6.5133600397038105
 10
34.01825309594365
 20
6.543682445358777
 10
33.72850922639424
 20
6.573858051821102
 10
33.43719197924135
 20
6.604134848524668
 10
33.144216890916205
 20
6.634583254466133
 10
32.84974595268257
 20
6.665140662799214
 10
32.55372222428044
 20
6.695567051460929
 10
32.25620948551205
 20
6.726025297910941
 10
31.95719394719971
 20
6.756670933120126
 10
31.656709999717744
 20
6.787116060984469
 10
31.354764503250852
 20
6.8172833040698535
 10
31.05147816409965
 20
6.847575717119456
 10
30.746702711369796
 20
6.8779011521113285
 10
30.440586374670655
 20
6.908352222729006
 10
30.133170425203772
 20
6.938463422603564
 10
29.824447961499438
 20
6.968312594830702
 10
29.51440520814163
 20
6.998055115160774
 10
29.203021488244616
 20
7.02792420243983
 10
28.89047946307708
 20
7.057624108585801
 10
28.576651483583763
 20
7.086830087612806
 10
28.26174961422292
 20
7.115797009781922
 10
27.945584278494565
 20
7.144898621491458
 10
27.6282605686874
 20
7.173831828170555
 10
27.309805973706073
 20
7.202286576810902
 10
26.990361876736934
 20
7.230432703309621
 10
26.669766224588724
 20
7.258333513005376
 10
26.34816726751334
 20
7.286081386750914
 10
26.025494296715543
 20
7.313591600623331
 10
25.701838635948846
 20
7.340716358191859
 10
25.377277847312364
 20
7.367463083555546
 10
25.051734334302836
 20
7.393824740666669
 10
24.72536324176098
 20
7.419815944892528
 10
24.398009397322777
 20
7.445422391306882
 10
24.069814170412908
 20
7.470814071027383
 10
23.74078444873938
 20
7.495913296178854
 10
23.410954608914864
 20
7.520332325877811
 10
23.08031087552332
 20
7.544226535874598
 10
22.74900151945909
 20
7.5676880741911665
 10
22.41686448753096
 20
7.5907802461661795
 10
22.084068686234033
 20
7.613362446637123
 10
21.75062098951469
 20
7.635357142949353
 10
21.416528271319276
 20
7.6566868024482195
 10
21.081776742470105
 20
7.677506956104606
 10
20.74643711176242
 20
7.697902327841412
 10
20.41050935855372
 20
7.717873150489428
 10
20.07409170118637
 20
7.737193862132447
 10
19.73711343086515
 20
7.75577973884757
 10
19.399658997397175
 20
7.77356051685867
 10
19.061785341042487
 20
7.79077621822873
 10
18.723394222816225
 20
7.8076526377047575
 10
18.384654569856
 20
7.824048937293436
 10
18.045543839156924
 20
7.839337121217503
 10
17.70602072511336
 20
7.8539830838972104
 10
17.366233533023788
 20
7.86807858530318
 10
17.026118414277697
 20
7.8814615240784
 10
16.6856822565831
 20
7.894054212347695
 10
16.345059576060795
 20
7.906103941052567
 10
16.004179677677186
 20
7.917525831049583
 10
15.66314077289382
 20
7.928094398032805
 10
15.321865272088267
 20
7.937802528344239
 10
14.980501480559008
 20
7.946741981954511
 10
14.639042503717203
 20
7.954990524349059
 10
14.297508990925262
 20
7.9623152471228895
 10
13.955894047594324
 20
7.968793915761439
 10
13.614268389400465
 20
7.974511176577344
 10
13.272533784239668
 20
7.979692746707347
 10
12.930886696319945
 20
7.983887191877962
 10
12.589327125641312
 20
7.987094512089194
 10
12.247848198257394
 20
7.989392239995684
 10
11.906443019579335
 20
7.9908581410828745
 10
11.565196080699259
 20
7.991421485913049
 10
11.224022904286702
 20
7.991152848703395
 10
10.883085557294535
 20
7.989988768894712
 10
10.542397808257988
 20
7.987773948346916
 10
10.201952776349872
 20
7.984585997324921
 10
9.861743587623796
 20
7.980502448483369
 10
9.521777122906974
 20
7.975445691557349
 10
9.182222350621947
 20
7.969274422891963
 10
8.842987905730253
 20
7.962136904579569
 10
8.504137636842408
 20
7.9541952379771805
 10
8.165628351591133
 20
7.945054335712527
 10
7.8276014882093685
 20
7.934883412800608
 10
7.490036424858024
 20
7.923915067205361
 10
7.152876193753766
 20
7.911909587304861
 10
6.816289777080805
 20
7.898725514223677
 10
6.480263420065582
 20
7.884517990881363
 10
6.144733280978395
 20
7.869124838310645
 10
5.809840818694678
 20
7.852715038695724
 10
5.475522198365569
 20
7.835126335459061
 10
5.141925752812859
 20
7.816450178130218
 10
4.808875646548456
 20
7.796905325408475
 10
4.476540861756572
 20
7.776350318418402
 10
4.144948921745981
 20
7.75447471610036
 10
3.8140929663319665
 20
7.7313558958884645
 10
3.484029956417039
 20
7.707233647014904
 10
3.1547668003516933
 20
7.682030048773708
 10
2.8263103858439487
 20
7.655667413289701
 10
2.4987383300395534
 20
7.628152543779817
 10
2.1719592679000255
 20
7.599633702336409
 10
1.846037075559195
 20
7.570272679875437
 10
1.5210768865907542
 20
7.539765916164452
 10
1.1970924764107458
 20
7.507958035453109
 10
0.8740701040072555
 20
7.475004025440431
 10
0.5520811318541096
 20
7.440981237074149
 10
0.2310490643803986
 20
7.405870216664154
 10
-0.08895534833367887
 20
7.369755222471757
 10
-0.4078613768504094
 20
7.332720745589058
 10
-0.7257191081259206
 20
7.294449464129228
 10
-1.0424509318953081
 20
7.254948258919461
 10
-1.3580136420296354
 20
7.214612062111494
 10
-1.6724710871394146
 20
7.17327877234832
 10
-1.98566116586764
 20
7.130884541019416
 10
-2.29773909874413
 20
7.087415606470391
 10
-2.6085496652390594
 20
7.0428857303556365
 10
-2.9180290167419165
 20
6.997457014032165
 10
-3.226339254609705
 20
6.951193306110496
 10
-3.533368364441553
 20
6.903713436093279
 10
-3.839002410670801
 20
6.855496827224356
 10
-4.143332765216745
 20
6.806691819206354
 10
-4.446395753381136
 20
6.756825869622621
 10
-4.7479585443692445
 20
6.7059196209547425
 10
-5.048119390927558
 20
6.654199023170248
 10
-5.346885173883277
 20
6.601741686534051
 10
-5.644242131582001
 20
6.548392390516329
 10
-5.940041924321116
 20
6.494242507036382
 10
-6.2344397726304415
 20
6.439278274439822
 10
-6.527301098461734
 20
6.383746285175766
 10
-6.818612140160613
 20
6.327491318714393
 10
-7.108366016899876
 20
6.270435764790795
 10
-7.3965696095067255
 20
6.212657233669882
 10
-7.683159069370634
 20
6.154317826708666
 10
-7.968212006756513
 20
6.095410663079953
 10
-8.251559439480156
 20
6.035794283908313
 10
-8.533201367541562
 20
5.975468689193746
 10
-8.813208520378446
 20
5.914349387844147
 10
-9.091510168553098
 20
5.85252087095162
 10
-9.36812695454709
 20
5.790215969310896
 10
-9.642988148922711
 20
5.727519174014076
 10
-9.91606622837119
 20
5.664120044001524
 10
-10.18743880315743
 20
5.6000116984460435
 10
-10.456866161659514
 20
5.53513716956431
 10
-10.724524166888836
 20
5.46971552649666
 10
-10.990419699672596
 20
5.403824379508007
 10
-11.254397539480971
 20
5.337477490252739
 10
-11.516450805486773
 20
5.270597248465943
 10
-11.776636465473324
 20
5.2029439425257
 10
-12.034904432484488
 20
5.134834894318841
 10
-12.29127534900186
 20
5.066502934640093
 10
-12.545637200624544
 20
4.997566892992105
 10
-12.798067597617456
 20
4.928019888547681
 10
-13.048425081105169
 20
4.85803090349103
 10
-13.29678726135259
 20
4.787593056994956
 10
-13.543161019186913
 20
4.716783959324371
 10
-13.787448101861644
 20
4.6453776605117385
 10
-14.029662271031173
 20
4.5735293810868765
 10
-14.2698035266955
 20
4.501239121049789
 10
-14.507899392163402
 20
4.4288173214601105
 10
-14.743787766077867
 20
4.356200133707321
 10
-14.977603226487126
 20
4.283140965342305
 10
-15.209254401471886
 20
4.2094914766624365
 10
-15.438691204076019
 20
4.135568989554547
 10
-15.66600500621881
 20
4.061521843721262
 10
-15.891090674326584
 20
3.987046478930137
 10
-16.113884359788816
 20
3.9123049965381873
 10
-16.334548163962516
 20
3.837361245155931
 10
-16.552926866317872
 20
3.7622289864377603
 10
-16.768999824373296
 20
3.686675389588942
 10
-16.982787680610368
 20
3.6109332854042084
 10
-17.194297315856293
 20
3.5350802841484668
 10
-17.403521849283862
 20
3.4590387755568095
 10
-17.610383670628178
 20
3.382815640456431
 10
-17.814875899062038
 20
3.3063332685824185
 10
-18.017083025677554
 20
3.2296623893724905
 10
-18.216849829944906
 20
3.152816764481033
 10
-18.414190073518473
 20
3.075951614437867
 10
-18.609245215273695
 20
2.998897957058786
 10
-18.801782424415837
 20
2.921676434825369
 10
-18.991872430382617
 20
2.8442025566455156
 10
-19.179542756482814
 20
2.766786763578861
 10
-19.364793402716426
 20
2.689429055625408
 10
-19.54753299716416
 20
2.6119810930825302
 10
-19.727754658998816
 20
2.5343652656853184
 10
-19.9055291176581
 20
2.4564970823416696
 10
-20.080735556748188
 20
2.378778356030518
 10
-20.253444705706777
 20
2.3011245956597617
 10
-20.42364280287948
 20
2.2233805806995814
 10
-20.591252238001395
 20
2.1455531919771698
 10
-20.756286772726906
 20
2.0677976500223463
 10
-20.918732645401615
 20
1.9899587343052945
 10
-21.07859673685274
 20
1.9121140550909212
 10
-21.235885927907457
 20
1.8343412226441362
 10
-21.39050884664647
 20
1.7564918972623154
 10
-21.54248613555136
 20
1.6787989097401876
 10
-21.691867881578272
 20
1.6009449381909198
 10
-21.838603997771063
 20
1.523247304501344
 10
-21.982687603302534
 20
1.4456283984065517
 10
-22.1241118173455
 20
1.3680106096416322
 10
-22.262799029635055
 20
1.290400819033781
 10
-22.39883373126329
 20
1.2128697560207122
 10
-22.53215895444689
 20
1.1356571322243496
 10
-22.662760937531456
 20
1.058607727114874
 10
-22.790639680517
 20
0.9817215406922845
 10
-22.91587967449561
 20
0.9050693023942982
 10
-23.038318818110287
 20
0.8285871636103913
 10
-23.15804848328032
 20
0.7524234640431918
 10
-23.275004821395196
 20
0.6767403050497102
 10
-23.389265442719818
 20
0.6015308058027545
 10
-23.50073897533489
 20
0.5266466265996983
 10
-23.60950991033252
 20
0.4521584968782575
 10
-23.715423027182876
 20
0.37808017829282103
 10
-23.818647308070176
 20
0.3045531297188186
 10
-23.919034413291797
 20
0.23166872307554878
 10
-24.016648191458252
 20
0.1592648570059978
 10
-24.111488642569554
 20
0.08734153151016642
 10
-24.203555766625684
 20
0.015898746588054232
 10
-24.29278571501614
 20
-0.05490139640332613
 10
-24.379178487740905
 20
-0.12505889746397336
 10
-24.46279105258332
 20
-0.19481346821581114
 10
-24.54356644176005
 20
-0.2639253970369166
 10
-24.62147713196232
 20
-0.3327051249869279
 10
-24.696550646498913
 20
-0.4008422110062065
 10
-24.76875946206104
 20
-0.4686470961543911
 10
-24.838117340303096
 20
-0.535964559901662
 10
-24.904624281225082
 20
-0.6027946022480197
 10
-24.968195793734893
 20
-0.66920795263118
 10
-25.02900086001674
 20
-0.7350631521757112
 10
-25.086786006794306
 20
-0.8005723891947591
 10
-25.141797826516708
 20
-0.8656010856400889
 10
-25.193874217826938
 20
-0.9302130901222203
 10
-25.243035823206576
 20
-0.9941755718464251
 10
-25.28934649126614
 20
-1.0576506321697166
 10
-25.332735492567917
 20
-1.120553779999991
 10
-25.373230350420684
 20
-1.1825745742776104
 10
-25.41088803260777
 20
-1.243952726624497
 10
-25.44564469051865
 20
-1.3045261356836375
 10
-25.47751408580772
 20
-1.3641395809252137
 10
-25.506523741783745
 20
-1.4224826212895862
 10
-25.532673658446736
 20
-1.479555256776756
 10
-25.556055207715985
 20
-1.5352091476840983
 10
-25.57654757319764
 20
-1.5890424810326755
 10
-25.594255888465394
 20
-1.6407516965900446
 10
-25.6093265720561
 20
-1.6895675725343045
 10
-25.62165256923029
 20
-1.7349330753566983
 10
-25.631421583487988
 20
-1.7756133216458692
 10
-25.638821318329207
 20
-1.8103734279904573
 10
-25.643861693076786
 20
-1.8373369863782452
 10
-25.646792338675496
 20
-1.8545706210136883
 10
-25.604291567110774
 20
-2.350708559767375
 10
-25.602466049890587
 20
-2.354535947561073
 10
-25.596996379057227
 20
-2.365940500677258
 10
-25.587910077919467
 20
-2.3846117780562914
 10
-25.575012562150103
 20
-2.4118622733744415
 10
-25.558314554907863
 20
-2.449335563849197
 10
-25.53809624894195
 20
-2.4929890348780686
 10
-25.51449333963046
 20
-2.540409887421663
 10
-25.487750498256748
 20
-2.5906029496905463
 10
-25.457934611926976
 20
-2.6419315252944227
 10
-25.425029997820985
 20
-2.6936902410219115
 10
-25.38922628060456
 20
-2.7455048072028543
 10
-25.350473373321574
 20
-2.7970579019504185
 10
-25.3087987992808
 20
-2.848039084204965
 10
-25.264216320136633
 20
-2.8982931334366757
 10
-25.216725935889063
 20
-2.94782004964555
 10
-25.166412137630193
 20
-2.9965491033938734
 10
-25.11321107674952
 20
-3.0443181933246315
 10
-25.057115872419832
 20
-3.091204929702734
 10
-24.998211015733236
 20
-3.137138583090466
 10
-24.936405134770432
 20
-3.1822674931904524
 10
-24.871705110358626
 20
-3.226514049737783
 10
-24.804279924682017
 20
-3.2697367938570285
 10
-24.73387610446429
 20
-3.3121479138613332
 10
-24.66073336132737
 20
-3.3536904419673705
 10
-24.584689593914256
 20
-3.394428226785663
 10
-24.505829293317035
 20
-3.4342905388784946
 10
-24.42415934036291
 20
-3.4731997679809545
 10
-24.33965909257029
 20
-3.511388744887773
 10
-24.252342311593576
 20
-3.54870224906913
 10
-24.162181474123983
 20
-3.5854507215846643
 10
-24.069197222643098
 20
-3.621401331639647
 10
-23.97345340576144
 20
-3.6567161805910917
 10
-23.874872413214096
 20
-3.6913883876118034
 10
-23.773440483346686
 20
-3.7255731732316026
 10
-23.6692421072513
 20
-3.759199808012772
 10
-23.562270404100758
 20
-3.792345902220223
 10
-23.452525373895057
 20
-3.8250114558539545
 10
-23.3399087638877
 20
-3.8574224188815016
 10
-23.224582675435702
 20
-3.8895149426923425
 10
-23.106398768836435
 20
-3.9211976553671803
 10
-22.985512264619725
 20
-3.952484318560402
 10
-22.861831790866272
 20
-3.983523271974634
 10
-22.735434957840983
 20
-4.014321396437069
 10
-22.606251036106144
 20
-4.044794200855604
 10
-22.474371397581052
 20
-4.074793345527613
 10
-22.339711551173608
 20
-4.104389559890814
 10
-22.202419836586426
 20
-4.133674215864503
 10
-22.06241864355461
 20
-4.162640432621486
 10
-21.919707972078154
 20
-4.191288210161763
 10
-21.774308464638636
 20
-4.219384717690606
 10
-21.62629773150097
 20
-4.246936836035208
 10
-21.47559816240025
 20
-4.273937684368375
 10
-21.32227360594699
 20
-4.300549364047122
 10
-21.166324062141193
 20
-4.326771875071448
 10
-21.007777054291637
 20
-4.352294776381713
 10
-20.84669643100884
 20
-4.377280169334933
 10
-20.683011462855095
 20
-4.401643562839002
 10
-20.516715269003196
 20
-4.4254625671588315
 10
-20.347885459718057
 20
-4.448744063121615
 10
-20.176528915826882
 20
-4.471410440462442
 10
-20.002638756502463
 20
-4.4935393094462235
 10
-19.826214981744805
 20
-4.515130670072958
 10
-19.647264472381103
 20
-4.536106912077738
 10
-19.46585795784907
 20
-4.5565525265526645
 10
-19.28199543814871
 20
-4.5764675134977395
 10
-19.095606183842303
 20
-4.59576738182086
 10
-18.906831653805284
 20
-4.614621113706231
 10
-18.71560111859994
 20
-4.63294421806175
 10
-18.521907697399065
 20
-4.650814305152327
 10
-18.325835881294772
 20
-4.668160645540246
 10
-18.127406312768642
 20
-4.684750408430778
 10
-17.9265983493391
 20
-4.700816424618653
 10
-17.72332061908683
 20
-4.716507033806494
 10
-17.517812833633773
 20
-4.731765268210976
 10
-17.30993353410448
 20
-4.746422145647892
 10
-17.099689601326165
 20
-4.760400055852329
 10
-16.88722249417425
 20
-4.773867981008497
 10
-16.67244772155663
 20
-4.7868966505541115
 10
-16.455379045127692
 20
-4.7993308439593525
 10
-16.236094075152344
 20
-4.811177442051414
 10
-16.01459969245779
 20
-4.822358834565387
 10
-15.790875254562437
 20
-4.833107852296001
 10
-15.564934523120685
 20
-4.843269274713435
 10
-15.33676373647813
 20
-4.85299832234751
 10
-15.106538757646183
 20
-4.862075926057884
 10
-14.874097485267834
 20
-4.870565934455078
 10
-14.639517529607986
 20
-4.878475228366288
 10
-14.402869620104354
 20
-4.885888298883618
 10
-14.164089908146424
 20
-4.892643044650053
 10
-13.923242242344712
 20
-4.898901567022607
 10
-13.680411113791319
 20
-4.904593136563564
 10
-13.435455063610817
 20
-4.9095487710887165
 10
-13.18852931233303
 20
-4.913782232252455
 10
-12.939613217476369
 20
-4.9175263508495055
 10
-12.688706779040839
 20
-4.92078112687987
 10
-12.43580999702643
 20
-4.923546560343547
 10
-12.181021124179647
 20
-4.925596701273002
 10
-11.92435392215487
 20
-4.926776329138418
 10
-11.66570325737842
 20
-4.927389004172237
 10
-11.40522435038011
 20
-4.927448488028847
 10
-11.142853352549412
 20
-4.926792679351236
 10
-10.878681635805641
 20
-4.9252732384367786
 10
-10.612688557667205
 20
-4.923122996080203
 10
-10.344937966744622
 20
-4.920504053638523
 10
-10.07536601442738
 20
-4.917254309754727
 10
-9.803993343197051
 20
-4.913140933634083
 10
-9.530961411929075
 20
-4.9083329074608
 10
-9.25626333979625
 20
-4.90290784149979
 10
-8.979743906268762
 20
-4.89685197409666
 10
-8.70164282296853
 20
-4.890108337468086
 10
-8.421896241285042
 20
-4.882514830257053
 10
-8.140504161218288
 20
-4.874071452463565
 10
-7.857537312205984
 20
-4.86486269517972
 10
-7.572961290112164
 20
-4.855276609730069
 10
-7.286874347683318
 20
-4.845087246147077
 10
-6.999226397963312
 20
-4.833977282543912
 10
-6.710010560124955
 20
-4.822024329185483
 10
-6.419382054698063
 20
-4.809242147726178
 10
-6.127235748108948
 20
-4.795934298398443
 10
-5.833663012276915
 20
-4.78195244149965
 10
-5.538663847201955
 20
-4.767296577029803
 10
-5.242252014538466
 20
-4.751811484459078
 10
-4.944420633459245
 20
-4.735574774052389
 10
-4.645311162839729
 20
-4.7187554279939405
 10
-4.344782143804488
 20
-4.701184464099526
 10
-4.043002558537718
 20
-4.682720423493716
 10
-3.739965526212237
 20
-4.6634409164414174
 10
-3.4356641660008456
 20
-4.643423553207542
 10
-3.1300277484658316
 20
-4.622583842699985
 10
-2.8233028660563124
 20
-4.600787206870511
 10
-2.5154187893345674
 20
-4.577949154627015
 10
-2.2062566230725245
 20
-4.55452846673176
 10
-1.8959784686271994
 20
-4.530461294574226
 10
-1.5847032212266623
 20
-4.5052888573921495
 10
-1.2722550178595178
 20
-4.47923022432587
 10
-0.9587045879634732
 20
-4.4523698864674905
 10
-0.6442209137227419
 20
-4.424566384941584
 10
-0.32865565543469955
 20
-4.395728347828849
 10
-0.012164033629158116
 20
-4.365869536783674
 10
0.30535908526756017
 20
-4.335293512038506
 10
0.623822329336159
 20
-4.303851933890717
 10
0.9431136841757638
 20
-4.271163631842954
 10
1.2633314025328608
 20
-4.237454555862753
 10
1.5844253974513192
 20
-4.203042027836943
 10
1.9062974368271275
 20
-4.167700330628789
 10
2.2290193647920113
 20
-4.1313575460091
 10
2.552527965771542
 20
-4.0941829154792595
 10
2.8767957370994326
 20
-4.055866230810427
 10
3.2018226925373363
 20
-4.016407647223129
 10
3.527558745129117
 20
-3.976124486604203
 10
3.853933192960365
 20
-3.935101550486809
 10
4.181016772349635
 20
-3.8932544253891073
 10
4.508711237431252
 20
-3.850357238953829
 10
4.837030356740432
 20
-3.8065652893210595
 10
5.165974157800494
 20
-3.7618788869318567
 10
5.495465023465686
 20
-3.716304835003151
 10
5.825482331896916
 20
-3.6696105355710085
 10
6.156039844748573
 20
-3.6219512091652475
 10
6.487009864799609
 20
-3.573651058499896
 10
6.818540759275961
 20
-3.5246190220967137
 10
7.1504566582854014
 20
-3.4746359532050968
 10
7.482842066681687
 20
-3.4237727364832904
 10
7.815541763934996
 20
-3.3720431335856826
 10
8.148640248018262
 20
-3.3195179515602544
 10
8.482130644985121
 20
-3.266119657752359
 10
8.815864615132947
 20
-3.211939624081297
 10
9.149933530381036
 20
-3.1571261902496914
 10
9.484330530544673
 20
-3.101601978823428
 10
9.818893493624369
 20
-3.0453029083611916
 10
10.153706924473875
 20
-2.9882998635212257
 10
10.488706974482676
 20
-2.9307549456605457
 10
10.823943737487728
 20
-2.8723509105025826
 10
11.159275740851953
 20
-2.8132565850110143
 10
11.494716746229717
 20
-2.7536271897156612
 10
11.830259879674685
 20
-2.6933851919618763
 10
12.165891379532454
 20
-2.6323753712198426
 10
12.501625014338234
 20
-2.5707530256296423
 10
12.837319290812461
 20
-2.5086867493241605
 10
13.173038071327321
 20
-2.4460145961669117
 10
13.508724388099472
 20
-2.3829762777798202
 10
13.844357584885685
 20
-2.319338808147626
 10
14.179930787739599
 20
-2.2550246546156854
 10
14.515457758315586
 20
-2.190189037713818
 10
14.850803877280455
 20
-2.125078084229552
 10
15.186046775541607
 20
-2.0596851461664847
 10
15.521088186590875
 20
-1.9937841183365557
 10
15.855934977493813
 20
-1.9274524557841421
 10
16.190587155131254
 20
-1.860690236119509
 10
16.525051586568722
 20
-1.7935749143870376
 10
16.859166136045076
 20
-1.7260422539248803
 10
17.193015315294907
 20
-1.6581632170015488
 10
17.526528353595516
 20
-1.590021829047557
 10
17.85979665727036
 20
-1.5217668178168546
 10
18.192637420553375
 20
-1.4531008054118073
 10
18.52505753115261
 20
-1.3841014797075886
 10
18.857169003468925
 20
-1.315150011201553
 10
19.188775297605215
 20
-1.2457941119073066
 10
19.519869512091788
 20
-1.1759559387291463
 10
19.85057056279922
 20
-1.106094505260128
 10
20.180736935805434
 20
-1.0363781728023422
 10
20.510404970173855
 20
-0.9663345541596651
 10
20.83950390894344
 20
-0.8960478299831425
 10
21.167956100564336
 20
-0.8255244154383775
 10
21.49585293759831
 20
-0.7549128830587909
 10
21.823123656203506
 20
-0.6842973358851613
 10
22.149775116564655
 20
-0.6137551513516036
 10
22.47571592611996
 20
-0.5431377569246995
 10
22.80093229569172
 20
-0.47228962163356825
 10
23.125444860880716
 20
-0.40144349866267426
 10
23.449253614806096
 20
-0.330599310401753
 10
23.772210142076148
 20
-0.259847575057188
 10
24.094469711386473
 20
-0.18917507424644606
 10
24.41585639091741
 20
-0.11836196272653668
 10
24.73637704773449
 20
-0.04748569554184017
 10
25.05606605845037
 20
0.023065986424155333
 10
25.374916549118694
 20
0.09337061582609488
 10
25.6927594481045
 20
0.16357066047285254
 10
26.00975690493059
 20
0.233601728482053
 10
26.32574674255084
 20
0.3035285221771308
 10
26.64080658499183
 20
0.373357767164751
 10
26.95487253547724
 20
0.4429279053597554
 10
27.26786693557637
 20
0.5122325992068023
 10
27.579881177851014
 20
0.5811232761724744
 10
27.890739309838985
 20
0.6498200143305531
 10
28.200596600235922
 20
0.718336032063575
 10
28.50929087199571
 20
0.7867360316949734
 10
28.816863375677354
 20
0.854554739686616
 10
29.123236459731014
 20
0.921785740872899
 10
29.42852410788911
 20
0.9889079152258127
 10
29.732486484674844
 20
1.055979627513453
 10
30.035333905401373
 20
1.122393213999077
 10
30.336904186141748
 20
1.1882134546163852
 10
30.637169769183078
 20
1.2537511784763407
 10
30.936130640763682
 20
1.3190065407994713
 10
31.2337936610683
 20
1.3839021641516658
 10
31.530193220471222
 20
1.4480501524289024
 10
31.82516022669503
 20
1.511593206270853
 10
32.11882932659622
 20
1.5747771420239847
 10
32.41104518955173
 20
1.6375894397981476
 10
32.70182155657349
 20
1.699875111894318
 10
32.991172175554226
 20
1.7614790930032065
 10
33.279083257316216
 20
1.82255691409569
 10
33.5654771227863
 20
1.883102470447225
 10
33.85044517140708
 20
1.9429671119141267
 10
34.13383207255552
 20
2.0021383186062462
 10
34.415694821538224
 20
2.060855491704444
 10
34.6958780739705
 20
2.1191062665391027
 10
34.97462853927552
 20
2.176754745687482
 10
35.25164933162324
 20
2.233620513618933
 10
35.527095747232565
 20
2.28971647827493
 10
35.80096087775297
 20
2.3451205603614413
 10
36.07307563090704
 20
2.3999754605181365
 10
36.34344685311783
 20
2.454203956531433
 10
36.61223671455062
 20
2.5077414236881572
 10
36.87921911385968
 20
2.560491316667647
 10
37.144485436725944
 20
2.6123051405467463
 10
37.40793736159469
 20
2.66340962139564
 10
37.669645638546086
 20
2.7138890174756374
 10
37.92953946933412
 20
2.7636596137972806
 10
38.18761882643554
 20
2.8127217208016337
 10
38.44382666637787
 20
2.8608364805796858
 10
38.69821999134862
 20
2.9082432167020347
 10
38.95065033090939
 20
2.954852031844416
 10
39.20118155431324
 20
3.0008247945330484
 10
39.44983429028006
 20
3.045928829193734
 10
39.696537726802234
 20
3.090080576057547
 10
39.94127119387484
 20
3.1335131763602755
 10
40.184034670855425
 20
3.176226862932715
 10
40.42482813022067
 20
3.2182219462159236
 10
40.663509989240275
 20
3.2593308410104656
 10
40.90024930578749
 20
3.2994112347279927
 10
41.134933989772385
 20
3.3388451515787736
 10
41.36749323606813
 20
3.377548954183618
 10
41.598004675582125
 20
3.415529290538927
 10
41.82640438401475
 20
3.452624913000601
 10
42.05260779458477
 20
3.4889074047192676
 10
42.27676332956478
 20
3.524467206291047
 10
42.49873627328998
 20
3.5590592774721217
 10
42.71851284346349
 20
3.592839071623103
 10
42.93609990027004
 20
3.6257292113098774
 10
43.15147676682392
 20
3.657962915378499
 10
43.364657184136995
 20
3.6893851961299418
 10
43.57556345937448
 20
3.7199901040601913
 10
43.78420245272105
 20
3.749700261735132
 10
43.99064492801856
 20
3.778599772195543
 10
44.19472864629348
 20
3.8067540362572463
 10
44.39645357314165
 20
3.8341634419715627
 10
44.59590424094014
 20
3.8607567942391894
 10
44.793087537396985
 20
3.886456405184952
 10
44.98782760638161
 20
3.911481266338927
 10
45.18020146640775
 20
3.935844933011087
 10
45.37023042739725
 20
3.9593070462110105
 10
45.55782966797832
 20
3.981942060669127
 10
45.742985412734896
 20
4.003905352135786
 10
45.92578906799041
 20
4.025048192857038
 10
46.10609214954488
 20
4.045280840729148
 10
46.28395854041296
 20
4.0647650090578065
 10
46.459381339124945
 20
4.083578540938714
 10
46.63228285972686
 20
4.101715409257593
 10
46.80267684323062
 20
4.11902062631542
 10
46.970556374404865
 20
4.135572190428427
 10
47.13590767783355
 20
4.151525477346961
 10
47.298737606820595
 20
4.166803187247178
 10
47.45898224394719
 20
4.18124399487471
 10
47.61664155480918
 20
4.194848288280881
 10
47.77176567452851
 20
4.20793284608067
 10
47.9242837842167
 20
4.220414186115417
 10
48.07419587699293
 20
4.232292385995389
 10
48.22150879928027
 20
4.243490223506997
 10
48.366144872005506
 20
4.2540015939257
 10
48.50818173295688
 20
4.26383306763763
 10
48.64752794828765
 20
4.273133682837796
 10
48.78419724524805
 20
4.281748607047704
 10
48.91817584842207
 20
4.289833216017703
 10
49.049555171013935
 20
4.297238704383579
 10
49.178166093222906
 20
4.304108083226061
 10
49.30407938577167
 20
4.3105253779756625
 10
49.427224243533416
 20
4.316406951253194
 10
49.54768519888519
 20
4.321681607959351
 10
49.665370749172
 20
4.326499162391791
 10
49.78037227319394
 20
4.330711197237625
 10
49.892514203815225
 20
4.334533444395804
 10
50.001958202019885
 20
4.337907022312755
 10
50.10854911608639
 20
4.340817393231446
 10
50.21236459756463
 20
4.343270972317481
 10
50.31340463269291
 20
4.345267914791388
 10
50.4116623200016
 20
4.346886063748873
 10
50.5070668681255
 20
4.348041626590216
 10
50.59960448788692
 20
4.348890134286294
 10
50.689359732305434
 20
4.349360158907011
 10
50.77624802083817
 20
4.349523438823524
 10
50.86027622743149
 20
4.349302441381187
 10
50.94143746437737
 20
4.348774854455176
 10
51.01973859186054
 20
4.347863300611376
 10
51.09517272217296
 20
4.346645467724962
 10
51.16772608677941
 20
4.3452766539360175
 10
51.23733475449949
 20
4.3435956892107095
 10
51.30414718889064
 20
4.3416925484835645
 10
51.36792347190618
 20
4.3396265278458594
 10
51.42890350095035
 20
4.337338564037115
 10
51.48693191787678
 20
4.334816447608238
 10
51.54199495415025
 20
4.3322154766993135
 10
51.5941771559095
 20
4.32946430099051
 10
51.64340083720052
 20
4.326556893367544
 10
51.68965223636891
 20
4.323648474360236
 10
51.733022773499734
 20
4.320590160994105
 10
51.77342101474631
 20
4.317530991464164
 10
51.81085382717413
 20
4.314393510726028
 10
51.84530744912882
 20
4.311332939309521
 10
51.87678876143758
 20
4.3082716669497305
 10
51.9053685417039
 20
4.305293641466906
 10
51.93089143866226
 20
4.302386575801694
 10
51.953428250558645
 20
4.299634184943549
 10
51.97305664270457
 20
4.297042728837543
 10
51.989621263834515
 20
4.294599920424323
 10
52.00318601760561
 20
4.292467240178786
 10
52.01383547767989
 20
4.290573027340032
 10
52.02140050361411
 20
4.289060525819588
 10
52.02595191429676
 20
4.288013217776115
 10
52.02747592743094
 20
4.287586556570224
  0
ENDSEC
  0
SECTION
  2
OBJECTS
  0
DICTIONARY
  5
A
330
0
100
AcDbDictionary
280
0
281
1
  3
ACAD_COLOR
350
B
  3
ACAD_GROUP
350
C
  3
ACAD_LAYOUT
350
D
  3
ACAD_MATERIAL
350
E
  3
ACAD_MLEADERSTYLE
350
F
  3
ACAD_MLINESTYLE
350
10
  3
ACAD_PLOTSETTINGS
350
11
  3
ACAD_PLOTSTYLENAME
350
12
  3
ACAD_SCALELIST
350
14
  3
ACAD_TABLESTYLE
350
15
  3
ACAD_VISUALSTYLE
350
16
  3
EZDXF_META
350
2D
  0
DICTIONARY
  5
B
330
A
100
AcDbDictionary
280
0
281
1
  0
DICTIONARY
  5
C
330
A
100
AcDbDictionary
280
0
281
1
  0
DICTIONARY
  5
D
330
A
100
AcDbDictionary
280
0
281
1
  3
Model
350
1A
  3
Layout1
350
1E
  0
DICTIONARY
  5
E
330
A
100
AcDbDictionary
280
0
281
1
  3
ByBlock
350
1F
  3
ByLayer
350
20
  3
Global
350
21
  0
DICTIONARY
  5
F
330
A
100
AcDbDictionary
280
0
281
1
  3
Standard
350
2C
  0
DICTIONARY
  5
10
330
A
100
AcDbDictionary
280
0
281
1
  3
Standard
350
22
  0
DICTIONARY
  5
11
330
A
100
AcDbDictionary
280
0
281
1
  0
ACDBDICTIONARYWDFLT
  5
12
330
A
100
AcDbDictionary
280
0
281
1
  3
Normal
350
13
100
AcDbDictionaryWithDefault
340
13
  0
ACDBPLACEHOLDER
  5
13
330
12
  0
DICTIONARY
  5
14
330
A
100
AcDbDictionary
280
0
281
1
  0
DICTIONARY
  5
15
330
A
100
AcDbDictionary
280
0
281
1
  0
DICTIONARY
  5
16
330
A
100
AcDbDictionary
280
0
281
1
  0
LAYOUT
  5
1A
330
D
100
AcDbPlotSettings
  1

  4
A3
  6

 40
7.5
 41
20.0
 42
7.5
 43
20.0
 44
420.0
 45
297.0
 46
0.0
 47
0.0
 48
0.0
 49
0.0
140
0.0
141
0.0
142
1.0
143
1.0
 70
1024
 72
1
 73
0
 74
5
  7

 75
16
 76
0
 77
2
 78
300
147
1.0
148
0.0
149
0.0
100
AcDbLayout
  1
Model
 70
1
 71
0
 10
0.0
 20
0.0
 11
420.0
 21
297.0
 12
0.0
 22
0.0
 32
0.0
 14
1e+20
 24
1e+20
 34
1e+20
 15
-1e+20
 25
-1e+20
 35
-1e+20
146
0.0
 13
0.0
 23
0.0
 33
0.0
 16
1.0
 26
0.0
 36
0.0
 17
0.0
 27
1.0
 37
0.0
 76
1
330
17
  0
LAYOUT
  5
1E
330
D
100
AcDbPlotSettings
  1

  4
A3
  6

 40
7.5
 41
20.0
 42
7.5
 43
20.0
 44
420.0
 45
297.0
 46
0.0
 47
0.0
 48
0.0
 49
0.0
140
0.0
141
0.0
142
1.0
143
1.0
 70
0
 72
1
 73
0
 74
5
  7

 75
16
 76
0
 77
2
 78
300
147
1.0
148
0.0
149
0.0
100
AcDbLayout
  1
Layout1
 70
1
 71
1
 10
0.0
 20
0.0
 11
420.0
 21
297.0
 12
0.0
 22
0.0
 32
0.0
 14
1e+20
 24
1e+20
 34
1e+20
 15
-1e+20
 25
-1e+20
 35
-1e+20
146
0.0
 13
0.0
 23
0.0
 33
0.0
 16
1.0
 26
0.0
 36
0.0
 17
0.0
 27
1.0
 37
0.0
 76
1
330
1B
  0
MATERIAL
  5
1F
102
{ACAD_REACTORS
330
E
102
}
330
E
100
AcDbMaterial
  1
ByBlock
  2

 70
0
 40
1.0
 71
1
 41
1.0
 91
-1023410177
 42
1.0
 72
1
  3

 73
1
 74
1
 75
1
 44
0.5
 73
0
 45
1.0
 46
1.0
 77
1
  4

 78
1
 79
1
170
1
 48
1.0
171
1
  6

172
1
173
1
174
1
140
1.0
141
1.0
175
1
  7

176
1
177
1
178
1
143
1.0
179
1
  8

270
1
271
1
272
1
145
1.0
146
1.0
273
1
  9

274
1
275
1
276
1
 42
1.0
 72
1
  3

 73
1
 74
1
 75
1
 94
63
  0
MATERIAL
  5
20
102
{ACAD_REACTORS
330
E
102
}
330
E
100
AcDbMaterial
  1
ByLayer
  2

 70
0
 40
1.0
 71
1
 41
1.0
 91
-1023410177
 42
1.0
 72
1
  3

 73
1
 74
1
 75
1
 44
0.5
 73
0
 45
1.0
 46
1.0
 77
1
  4

 78
1
 79
1
170
1
 48
1.0
171
1
  6

172
1
173
1
174
1
140
1.0
141
1.0
175
1
  7

176
1
177
1
178
1
143
1.0
179
1
  8

270
1
271
1
272
1
145
1.0
146
1.0
273
1
  9

274
1
275
1
276
1
 42
1.0
 72
1
  3

 73
1
 74
1
 75
1
 94
63
  0
MATERIAL
  5
21
102
{ACAD_REACTORS
330
E
102
}
330
E
100
AcDbMaterial
  1
Global
  2

 70
0
 40
1.0
 71
1
 41
1.0
 91
-1023410177
 42
1.0
 72
1
  3

 73
1
 74
1
 75
1
 44
0.5
 73
0
 45
1.0
 46
1.0
 77
1
  4

 78
1
 79
1
170
1
 48
1.0
171
1
  6

172
1
173
1
174
1
140
1.0
141
1.0
175
1
  7

176
1
177
1
178
1
143
1.0
179
1
  8

270
1
271
1
272
1
145
1.0
146
1.0
273
1
  9

274
1
275
1
276
1
 42
1.0
 72
1
  3

 73
1
 74
1
 75
1
 94
63
  0
MLINESTYLE
  5
22
102
{ACAD_REACTORS
330
10
102
}
330
10
100
AcDbMlineStyle
  2
Standard
 70
0
  3

 62
256
 51
90.0
 52
90.0
 71
2
 49
0.5
 62
256
  6
BYLAYER
 49
-0.5
 62
256
  6
BYLAYER
  0
MLEADERSTYLE
  5
2C
102
{ACAD_REACTORS
330
F
102
}
330
F
100
AcDbMLeaderStyle
179
2
170
2
171
1
172
0
 90
2
 40
0.0
 41
0.0
173
1
 91
-1056964608
 92
-2
290
1
 42
2.0
291
1
 43
8.0
  3
Standard
 44
4.0
300

342
29
174
1
175
1
176
0
178
1
 93
-1056964608
 45
4.0
292
0
297
0
 46
4.0
 94
-1056964608
 47
1.0
 49
1.0
140
1.0
294
1
141
0.0
177
0
142
1.0
295
0
296
0
143
3.75
271
0
272
9
273
9
  0
DICTIONARY
  5
2D
330
A
100
AcDbDictionary
280
1
281
1
  3
CREATED_BY_EZDXF
350
2E
  3
WRITTEN_BY_EZDXF
350
32
  0
DICTIONARYVAR
  5
2E
330
2D
100
DictionaryVariables
280
0
  1
1.3.5 @ 2025-08-20T01:58:17.372225+00:00
  0
DICTIONARYVAR
  5
32
330
2D
100
DictionaryVariables
280
0
  1
1.3.5 @ 2025-08-20T01:58:17.378175+00:00
  0
ENDSEC
  0
EOF
