  0
SECTION
  2
HEADER
  9
$ACADVER
  1
AC1032
  9
$ACADMAINTVER
 90
4
  9
$DWGCODEPAGE
  3
ANSI_1252
  9
$LASTSAVEDBY
  1
ezdxf
  9
$REQUIREDVERSIONS
160
0
  9
$INSBASE
 10
0.0
 20
0.0
 30
0.0
  9
$EXTMIN
 10
1e+20
 20
1e+20
 30
1e+20
  9
$EXTMAX
 10
-1e+20
 20
-1e+20
 30
-1e+20
  9
$LIMMIN
 10
0.0
 20
0.0
  9
$LIMMAX
 10
420.0
 20
297.0
  9
$ORTHOMODE
 70
0
  9
$REGENMODE
 70
1
  9
$FILLMODE
 70
1
  9
$QTEXTMODE
 70
0
  9
$MIRRTEXT
 70
1
  9
$LTSCALE
 40
1.0
  9
$ATTMODE
 70
1
  9
$TEXTSIZE
 40
2.5
  9
$TRACEWID
 40
1.0
  9
$TEXTSTYLE
  7
Standard
  9
$CLAYER
  8
0
  9
$CELTYPE
  6
ByLayer
  9
$CECOLOR
 62
256
  9
$CELTSCALE
 40
1.0
  9
$DISPSILH
 70
0
  9
$DIMSCALE
 40
1.0
  9
$DIMASZ
 40
2.5
  9
$DIMEXO
 40
0.625
  9
$DIMDLI
 40
3.75
  9
$DIMRND
 40
0.0
  9
$DIMDLE
 40
0.0
  9
$DIMEXE
 40
1.25
  9
$DIMTP
 40
0.0
  9
$DIMTM
 40
0.0
  9
$DIMTXT
 40
2.5
  9
$DIMCEN
 40
2.5
  9
$DIMTSZ
 40
0.0
  9
$DIMTOL
 70
0
  9
$DIMLIM
 70
0
  9
$DIMTIH
 70
0
  9
$DIMTOH
 70
0
  9
$DIMSE1
 70
0
  9
$DIMSE2
 70
0
  9
$DIMTAD
 70
1
  9
$DIMZIN
 70
8
  9
$DIMBLK
  1

  9
$DIMASO
 70
1
  9
$DIMSHO
 70
1
  9
$DIMPOST
  1

  9
$DIMAPOST
  1

  9
$DIMALT
 70
0
  9
$DIMALTD
 70
3
  9
$DIMALTF
 40
0.03937007874
  9
$DIMLFAC
 40
1.0
  9
$DIMTOFL
 70
1
  9
$DIMTVP
 40
0.0
  9
$DIMTIX
 70
0
  9
$DIMSOXD
 70
0
  9
$DIMSAH
 70
0
  9
$DIMBLK1
  1

  9
$DIMBLK2
  1

  9
$DIMSTYLE
  2
ISO-25
  9
$DIMCLRD
 70
0
  9
$DIMCLRE
 70
0
  9
$DIMCLRT
 70
0
  9
$DIMTFAC
 40
1.0
  9
$DIMGAP
 40
0.625
  9
$DIMJUST
 70
0
  9
$DIMSD1
 70
0
  9
$DIMSD2
 70
0
  9
$DIMTOLJ
 70
0
  9
$DIMTZIN
 70
8
  9
$DIMALTZ
 70
0
  9
$DIMALTTZ
 70
0
  9
$DIMUPT
 70
0
  9
$DIMDEC
 70
2
  9
$DIMTDEC
 70
2
  9
$DIMALTU
 70
2
  9
$DIMALTTD
 70
3
  9
$DIMTXSTY
  7
Standard
  9
$DIMAUNIT
 70
0
  9
$DIMADEC
 70
0
  9
$DIMALTRND
 40
0.0
  9
$DIMAZIN
 70
0
  9
$DIMDSEP
 70
44
  9
$DIMATFIT
 70
3
  9
$DIMFRAC
 70
0
  9
$DIMLDRBLK
  1

  9
$DIMLUNIT
 70
2
  9
$DIMLWD
 70
-2
  9
$DIMLWE
 70
-2
  9
$DIMTMOVE
 70
0
  9
$DIMFXL
 40
1.0
  9
$DIMFXLON
 70
0
  9
$DIMJOGANG
 40
0.785398163397
  9
$DIMTFILL
 70
0
  9
$DIMTFILLCLR
 70
0
  9
$DIMARCSYM
 70
0
  9
$DIMLTYPE
  6

  9
$DIMLTEX1
  6

  9
$DIMLTEX2
  6

  9
$DIMTXTDIRECTION
 70
0
  9
$LUNITS
 70
2
  9
$LUPREC
 70
4
  9
$SKETCHINC
 40
1.0
  9
$FILLETRAD
 40
10.0
  9
$AUNITS
 70
0
  9
$AUPREC
 70
2
  9
$MENU
  1
.
  9
$ELEVATION
 40
0.0
  9
$PELEVATION
 40
0.0
  9
$THICKNESS
 40
0.0
  9
$LIMCHECK
 70
0
  9
$CHAMFERA
 40
0.0
  9
$CHAMFERB
 40
0.0
  9
$CHAMFERC
 40
0.0
  9
$CHAMFERD
 40
0.0
  9
$SKPOLY
 70
0
  9
$TDCREATE
 40
2460908.1238078703
  9
$TDUCREATE
 40
2458532.153996898
  9
$TDUPDATE
 40
2460908.1238078703
  9
$TDUUPDATE
 40
2458532.1544311
  9
$TDINDWG
 40
0.0
  9
$TDUSRTIMER
 40
0.0
  9
$USRTIMER
 70
1
  9
$ANGBASE
 50
0.0
  9
$ANGDIR
 70
0
  9
$PDMODE
 70
0
  9
$PDSIZE
 40
0.0
  9
$PLINEWID
 40
0.0
  9
$SPLFRAME
 70
0
  9
$SPLINETYPE
 70
6
  9
$SPLINESEGS
 70
8
  9
$HANDSEED
  5
33
  9
$SURFTAB1
 70
6
  9
$SURFTAB2
 70
6
  9
$SURFTYPE
 70
6
  9
$SURFU
 70
6
  9
$SURFV
 70
6
  9
$UCSBASE
  2

  9
$UCSNAME
  2

  9
$UCSORG
 10
0.0
 20
0.0
 30
0.0
  9
$UCSXDIR
 10
1.0
 20
0.0
 30
0.0
  9
$UCSYDIR
 10
0.0
 20
1.0
 30
0.0
  9
$UCSORTHOREF
  2

  9
$UCSORTHOVIEW
 70
0
  9
$UCSORGTOP
 10
0.0
 20
0.0
 30
0.0
  9
$UCSORGBOTTOM
 10
0.0
 20
0.0
 30
0.0
  9
$UCSORGLEFT
 10
0.0
 20
0.0
 30
0.0
  9
$UCSORGRIGHT
 10
0.0
 20
0.0
 30
0.0
  9
$UCSORGFRONT
 10
0.0
 20
0.0
 30
0.0
  9
$UCSORGBACK
 10
0.0
 20
0.0
 30
0.0
  9
$PUCSBASE
  2

  9
$PUCSNAME
  2

  9
$PUCSORG
 10
0.0
 20
0.0
 30
0.0
  9
$PUCSXDIR
 10
1.0
 20
0.0
 30
0.0
  9
$PUCSYDIR
 10
0.0
 20
1.0
 30
0.0
  9
$PUCSORTHOREF
  2

  9
$PUCSORTHOVIEW
 70
0
  9
$PUCSORGTOP
 10
0.0
 20
0.0
 30
0.0
  9
$PUCSORGBOTTOM
 10
0.0
 20
0.0
 30
0.0
  9
$PUCSORGLEFT
 10
0.0
 20
0.0
 30
0.0
  9
$PUCSORGRIGHT
 10
0.0
 20
0.0
 30
0.0
  9
$PUCSORGFRONT
 10
0.0
 20
0.0
 30
0.0
  9
$PUCSORGBACK
 10
0.0
 20
0.0
 30
0.0
  9
$USERI1
 70
0
  9
$USERI2
 70
0
  9
$USERI3
 70
0
  9
$USERI4
 70
0
  9
$USERI5
 70
0
  9
$USERR1
 40
0.0
  9
$USERR2
 40
0.0
  9
$USERR3
 40
0.0
  9
$USERR4
 40
0.0
  9
$USERR5
 40
0.0
  9
$WORLDVIEW
 70
1
  9
$SHADEDGE
 70
3
  9
$SHADEDIF
 70
70
  9
$TILEMODE
 70
1
  9
$MAXACTVP
 70
64
  9
$PINSBASE
 10
0.0
 20
0.0
 30
0.0
  9
$PLIMCHECK
 70
0
  9
$PEXTMIN
 10
1e+20
 20
1e+20
 30
1e+20
  9
$PEXTMAX
 10
-1e+20
 20
-1e+20
 30
-1e+20
  9
$PLIMMIN
 10
0.0
 20
0.0
  9
$PLIMMAX
 10
420.0
 20
297.0
  9
$UNITMODE
 70
0
  9
$VISRETAIN
 70
1
  9
$PLINEGEN
 70
0
  9
$PSLTSCALE
 70
1
  9
$TREEDEPTH
 70
3020
  9
$CMLSTYLE
  2
Standard
  9
$CMLJUST
 70
0
  9
$CMLSCALE
 40
20.0
  9
$PROXYGRAPHICS
 70
1
  9
$MEASUREMENT
 70
1
  9
$CELWEIGHT
370
-1
  9
$ENDCAPS
280
0
  9
$JOINSTYLE
280
0
  9
$LWDISPLAY
290
0
  9
$INSUNITS
 70
6
  9
$HYPERLINKBASE
  1

  9
$STYLESHEET
  1

  9
$XEDIT
290
1
  9
$CEPSNTYPE
380
0
  9
$PSTYLEMODE
290
1
  9
$FINGERPRINTGUID
  2
{DAC1FBCA-B208-47CF-881C-9C42A88FD0FD}
  9
$VERSIONGUID
  2
{7252947B-C23F-460C-9446-BA22A1D636B9}
  9
$EXTNAMES
290
1
  9
$PSVPSCALE
 40
0.0
  9
$OLESTARTUP
290
0
  9
$SORTENTS
280
127
  9
$INDEXCTL
280
0
  9
$HIDETEXT
280
1
  9
$XCLIPFRAME
280
1
  9
$HALOGAP
280
0
  9
$OBSCOLOR
 70
257
  9
$OBSLTYPE
280
0
  9
$INTERSECTIONDISPLAY
280
0
  9
$INTERSECTIONCOLOR
 70
257
  9
$DIMASSOC
280
2
  9
$PROJECTNAME
  1

  9
$CAMERADISPLAY
290
0
  9
$LENSLENGTH
 40
50.0
  9
$CAMERAHEIGHT
 40
0.0
  9
$STEPSPERSEC
 40
24.0
  9
$STEPSIZE
 40
100.0
  9
$3DDWFPREC
 40
2.0
  9
$PSOLWIDTH
 40
0.005
  9
$PSOLHEIGHT
 40
0.08
  9
$LOFTANG1
 40
1.570796326795
  9
$LOFTANG2
 40
1.570796326795
  9
$LOFTMAG1
 40
0.0
  9
$LOFTMAG2
 40
0.0
  9
$LOFTPARAM
 70
7
  9
$LOFTNORMALS
280
1
  9
$LATITUDE
 40
37.795
  9
$LONGITUDE
 40
-122.394
  9
$NORTHDIRECTION
 40
0.0
  9
$TIMEZONE
 70
-8000
  9
$LIGHTGLYPHDISPLAY
280
1
  9
$TILEMODELIGHTSYNCH
280
1
  9
$CMATERIAL
347
20
  9
$SOLIDHIST
280
0
  9
$SHOWHIST
280
1
  9
$DWFFRAME
280
2
  9
$DGNFRAME
280
2
  9
$REALWORLDSCALE
290
1
  9
$INTERFERECOLOR
 62
256
  9
$CSHADOW
280
0
  9
$SHADOWPLANELOCATION
 40
0.0
  0
ENDSEC
  0
SECTION
  2
CLASSES
  0
CLASS
  1
ACDBDICTIONARYWDFLT
  2
AcDbDictionaryWithDefault
  3
ObjectDBX Classes
 90
0
 91
0
280
0
281
0
  0
CLASS
  1
SUN
  2
AcDbSun
  3
SCENEOE
 90
1153
 91
0
280
0
281
0
  0
CLASS
  1
VISUALSTYLE
  2
AcDbVisualStyle
  3
ObjectDBX Classes
 90
4095
 91
0
280
0
281
0
  0
CLASS
  1
MATERIAL
  2
AcDbMaterial
  3
ObjectDBX Classes
 90
1153
 91
0
280
0
281
0
  0
CLASS
  1
SCALE
  2
AcDbScale
  3
ObjectDBX Classes
 90
1153
 91
0
280
0
281
0
  0
CLASS
  1
TABLESTYLE
  2
AcDbTableStyle
  3
ObjectDBX Classes
 90
4095
 91
0
280
0
281
0
  0
CLASS
  1
MLEADERSTYLE
  2
AcDbMLeaderStyle
  3
ACDB_MLEADERSTYLE_CLASS
 90
4095
 91
0
280
0
281
0
  0
CLASS
  1
DICTIONARYVAR
  2
AcDbDictionaryVar
  3
ObjectDBX Classes
 90
0
 91
0
280
0
281
0
  0
CLASS
  1
CELLSTYLEMAP
  2
AcDbCellStyleMap
  3
ObjectDBX Classes
 90
1152
 91
0
280
0
281
0
  0
CLASS
  1
MENTALRAYRENDERSETTINGS
  2
AcDbMentalRayRenderSettings
  3
SCENEOE
 90
1024
 91
0
280
0
281
0
  0
CLASS
  1
ACDBDETAILVIEWSTYLE
  2
AcDbDetailViewStyle
  3
ObjectDBX Classes
 90
1025
 91
0
280
0
281
0
  0
CLASS
  1
ACDBSECTIONVIEWSTYLE
  2
AcDbSectionViewStyle
  3
ObjectDBX Classes
 90
1025
 91
0
280
0
281
0
  0
CLASS
  1
RASTERVARIABLES
  2
AcDbRasterVariables
  3
ISM
 90
0
 91
0
280
0
281
0
  0
CLASS
  1
LAYOUT
  2
AcDbLayout
  3
ObjectDBX Classes
 90
0
 91
0
280
0
281
0
  0
CLASS
  1
ACDBPLACEHOLDER
  2
AcDbPlaceHolder
  3
ObjectDBX Classes
 90
0
 91
0
280
0
281
0
  0
ENDSEC
  0
SECTION
  2
TABLES
  0
TABLE
  2
VPORT
  5
8
330
0
100
AcDbSymbolTable
 70
1
  0
VPORT
  5
23
330
8
100
AcDbSymbolTableRecord
100
AcDbViewportTableRecord
  2
*Active
 70
0
 10
0.0
 20
0.0
 11
1.0
 21
1.0
 12
0.0
 22
0.0
 13
0.0
 23
0.0
 14
0.5
 24
0.5
 15
0.5
 25
0.5
 16
0.0
 26
0.0
 36
1.0
 17
0.0
 27
0.0
 37
0.0
 40
1000.0
 41
1.34
 42
50.0
 43
0.0
 44
0.0
 50
0.0
 51
0.0
 71
0
 72
1000
 73
1
 74
3
 75
0
 76
0
 77
0
 78
0
281
0
 65
0
146
0.0
  0
ENDTAB
  0
TABLE
  2
LTYPE
  5
2
330
0
100
AcDbSymbolTable
 70
3
  0
LTYPE
  5
24
330
2
100
AcDbSymbolTableRecord
100
AcDbLinetypeTableRecord
  2
ByBlock
 70
0
  3

 72
65
 73
0
 40
0.0
  0
LTYPE
  5
25
330
2
100
AcDbSymbolTableRecord
100
AcDbLinetypeTableRecord
  2
ByLayer
 70
0
  3

 72
65
 73
0
 40
0.0
  0
LTYPE
  5
26
330
2
100
AcDbSymbolTableRecord
100
AcDbLinetypeTableRecord
  2
Continuous
 70
0
  3

 72
65
 73
0
 40
0.0
  0
ENDTAB
  0
TABLE
  2
LAYER
  5
1
330
0
100
AcDbSymbolTable
 70
2
  0
LAYER
  5
27
330
1
100
AcDbSymbolTableRecord
100
AcDbLayerTableRecord
  2
0
 70
0
 62
7
  6
Continuous
370
-3
390
13
347
21
  0
LAYER
  5
28
330
1
100
AcDbSymbolTableRecord
100
AcDbLayerTableRecord
  2
Defpoints
 70
0
 62
7
  6
Continuous
290
0
370
-3
390
13
347
21
  0
ENDTAB
  0
TABLE
  2
STYLE
  5
5
330
0
100
AcDbSymbolTable
 70
1
  0
STYLE
  5
29
330
5
100
AcDbSymbolTableRecord
100
AcDbTextStyleTableRecord
  2
Standard
 70
0
 40
0.0
 41
1.0
 50
0.0
 71
0
 42
2.5
  3
txt
  4

  0
ENDTAB
  0
TABLE
  2
VIEW
  5
7
330
0
100
AcDbSymbolTable
 70
0
  0
ENDTAB
  0
TABLE
  2
UCS
  5
6
330
0
100
AcDbSymbolTable
 70
0
  0
ENDTAB
  0
TABLE
  2
APPID
  5
3
330
0
100
AcDbSymbolTable
 70
3
  0
APPID
  5
2A
330
3
100
AcDbSymbolTableRecord
100
AcDbRegAppTableRecord
  2
ACAD
 70
0
  0
APPID
  5
30
330
3
100
AcDbSymbolTableRecord
100
AcDbRegAppTableRecord
  2
HATCHBACKGROUNDCOLOR
 70
0
  0
APPID
  5
31
330
3
100
AcDbSymbolTableRecord
100
AcDbRegAppTableRecord
  2
EZDXF
 70
0
  0
ENDTAB
  0
TABLE
  2
DIMSTYLE
  5
4
330
0
100
AcDbSymbolTable
 70
1
100
AcDbDimStyleTable
  0
DIMSTYLE
105
2B
330
4
100
AcDbSymbolTableRecord
100
AcDbDimStyleTableRecord
  2
Standard
 70
0
 40
1.0
 41
2.5
 42
0.625
 43
3.75
 44
1.25
 45
0.0
 46
0.0
 47
0.0
 48
0.0
 49
2.5
140
2.5
141
2.5
142
0.0
143
0.03937007874
144
1.0
145
0.0
146
1.0
147
0.625
148
0.0
 69
0
 70
0
 71
0
 72
0
 73
0
 74
0
 75
0
 76
0
 77
1
 78
8
 79
3
170
0
171
3
172
1
173
0
174
0
175
0
176
0
177
0
178
0
179
2
271
2
272
2
273
2
274
3
275
0
276
0
277
2
278
44
279
0
280
0
281
0
282
0
283
0
284
8
285
0
286
0
288
0
289
3
290
0
371
-2
372
-2
  0
ENDTAB
  0
TABLE
  2
BLOCK_RECORD
  5
9
330
0
100
AcDbSymbolTable
 70
2
  0
BLOCK_RECORD
  5
17
330
9
100
AcDbSymbolTableRecord
100
AcDbBlockTableRecord
  2
*Model_Space
340
1A
 70
0
280
1
281
0
  0
BLOCK_RECORD
  5
1B
330
9
100
AcDbSymbolTableRecord
100
AcDbBlockTableRecord
  2
*Paper_Space
340
1E
 70
0
280
1
281
0
  0
ENDTAB
  0
ENDSEC
  0
SECTION
  2
BLOCKS
  0
BLOCK
  5
18
330
17
100
AcDbEntity
  8
0
100
AcDbBlockBegin
  2
*Model_Space
 70
0
 10
0.0
 20
0.0
 30
0.0
  3
*Model_Space
  1

  0
ENDBLK
  5
19
330
17
100
AcDbEntity
  8
0
100
AcDbBlockEnd
  0
BLOCK
  5
1C
330
1B
100
AcDbEntity
  8
0
100
AcDbBlockBegin
  2
*Paper_Space
 70
0
 10
0.0
 20
0.0
 30
0.0
  3
*Paper_Space
  1

  0
ENDBLK
  5
1D
330
1B
100
AcDbEntity
  8
0
100
AcDbBlockEnd
  0
ENDSEC
  0
SECTION
  2
ENTITIES
  0
LWPOLYLINE
  5
2F
330
17
100
AcDbEntity
  8
0
100
AcDbPolyline
 90
721
 70
1
 10
38.26112343323423
 20
1.5319663001130333
 10
38.26002391852258
 20
1.5323156420366053
 10
38.25672959468277
 20
1.533249328097834
 10
38.25124888754886
 20
1.5345390786669388
 10
38.24352049570432
 20
1.5362962687227308
 10
38.23366492026684
 20
1.5383550897113647
 10
38.22162296575136
 20
1.5407698609823912
 10
38.20733964431975
 20
1.5434809048523257
 10
38.19092914140323
 20
1.5464935225423597
 10
38.172336469163696
 20
1.5497480363690095
 10
38.15150031986044
 20
1.553355992649311
 10
38.12853909500381
 20
1.5572084671204531
 10
38.10339569660806
 20
1.5613029519536943
 10
38.07606801663368
 20
1.5656965598910368
 10
38.04656027115973
 20
1.5702750654484772
 10
38.014868239891044
 20
1.5751528083355024
 10
37.981051124636835
 20
1.5802752978643366
 10
37.94505182741135
 20
1.5856400262062378
 10
37.90686824017506
 20
1.5913041061032083
 10
37.86656166856063
 20
1.5971560483509541
 10
37.82407080061126
 20
1.6033075134919943
 10
37.77939985029803
 20
1.609644333155069
 10
37.732658784865016
 20
1.6162860911581145
 10
37.683678431042885
 20
1.623167808596455
 10
37.632630063816414
 20
1.6302975229709902
 10
37.579399495646335
 20
1.6376699901732719
 10
37.52404381397814
 20
1.6452880035957493
 10
37.466563016703844
 20
1.6531516203511663
 10
37.40695499367582
 20
1.6613180102942648
 10
37.345219738569945
 20
1.6697873447632714
 10
37.28136146535731
 20
1.6784454553869252
 10
37.215375955850746
 20
1.687406624761971
 10
37.14732240342731
 20
1.6966165906516006
 10
37.07714160627779
 20
1.7061298437435906
 10
37.00483777204913
 20
1.7158323870049055
 10
36.93046377843191
 20
1.725841067973774
 10
36.8540175110624
 20
1.7362131707304223
 10
36.77550528984323
 20
1.7467774712743316
 10
36.69486579860151
 20
1.7576457443735052
 10
36.61221533080802
 20
1.768766178507133
 10
36.52743758455985
 20
1.7801908136469933
 10
36.44064674318016
 20
1.7919250081270204
 10
36.351785706575235
 20
1.8039663112312143
 10
36.260911564298596
 20
1.8163174592392841
 10
36.16796932429607
 20
1.828918888693231
 10
36.07301607612119
 20
1.841773335872762
 10
35.9759905036011
 20
1.854992575545882
 10
35.87700889809858
 20
1.8685248533045231
 10
35.776014159519846
 20
1.8823677184326866
 10
35.67300628364884
 20
1.896521285155857
 10
35.56798525994534
 20
1.9109858390377437
 10
35.46100607413947
 20
1.9258211148745736
 10
35.35201372996091
 20
1.9409676634338295
 10
35.241063211031715
 20
1.9564852766244802
 10
35.12815661485127
 20
1.9723171272682354
 10
35.0132981553906
 20
1.9883490469938327
 10
34.8965407019081
 20
2.0046981117904683
 10
34.777822940338964
 20
2.0214760393134052
 10
34.65714486014297
 20
2.038683115126352
 10
34.5345698771004
 20
2.0561506801702722
 10
34.41009587473953
 20
2.073936075638135
 10
34.28372284884428
 20
2.092039415755425
 10
34.15544446475581
 20
2.110632324311856
 10
34.025271256347736
 20
2.1294294089356463
 10
33.89325609709454
 20
2.148547631390508
 10
33.75939687263255
 20
2.1680442757566696
 10
33.62363437272042
 20
2.187974061172875
 10
33.48608488661285
 20
2.208285290343799
 10
33.34669342014762
 20
2.2289184569241827
 10
33.20545996910862
 20
2.24987367513951
 10
33.06243740275426
 20
2.271268020978978
 10
32.91763414481055
 20
2.292873271925547
 10
32.77098888121269
 20
2.31480114563448
 10
32.62261368302825
 20
2.3371142274071963
 10
32.47250854393312
 20
2.359812688581923
 10
32.32062057991265
 20
2.382779852958657
 10
32.16694767238707
 20
2.4060731188431093
 10
32.0116040046796
 20
2.429697844569215
 10
31.85452825850932
 20
2.45376586201772
 10
31.6957267516708
 20
2.4781060043008454
 10
31.535256571609523
 20
2.502721064811042
 10
31.373117712001388
 20
2.527611214886537
 10
31.20930594622711
 20
2.5528909655750427
 10
31.043821267962564
 20
2.5785604882147846
 10
30.876665778923172
 20
2.604562841401988
 10
30.707955770471706
 20
2.630846270728585
 10
30.537574934381077
 20
2.657462987504579
 10
30.365580360204856
 20
2.6844157280096796
 10
30.192035461615255
 20
2.7115358902975912
 10
30.016881024154838
 20
2.738878307732542
 10
29.840167813258542
 20
2.7666170548202453
 10
29.66195291847991
 20
2.7947548678404113
 10
29.4821263536025
 20
2.8231726769897794
 10
29.300808630284216
 20
2.851704388150796
 10
29.11799130793473
 20
2.8805786807424356
 10
28.933676488269462
 20
2.909738613360922
 10
28.74786205481671
 20
2.9392415271992247
 10
28.560609311101082
 20
2.968975990165792
 10
28.371918252906525
 20
2.9989421164861083
 10
28.181731773815134
 20
3.029137626782399
 10
27.99016195121862
 20
3.0596249350178595
 10
27.79715168291519
 20
3.0904016475892324
 10
27.602762274537493
 20
3.1213562752922237
 10
27.406993717653364
 20
3.152489046577801
 10
27.209903103924425
 20
3.1838026406129307
 10
27.011431218893232
 20
3.2153518907618426
 10
26.811630938142304
 20
3.2472537016755068
 10
26.610451477264366
 20
3.2793345128628864
 10
26.408062020068996
 20
3.3116590176649496
 10
26.204356794310783
 20
3.343993977907176
 10
25.999333681409976
 20
3.3763967918952758
 10
25.7931005490033
 20
3.40904392773822
 10
25.58565528061905
 20
3.4419927266289796
 10
25.376889998080312
 20
3.475067006022293
 10
25.16703730519299
 20
3.508162685974605
 10
24.95592800760731
 20
3.5412153587086594
 10
24.743669968743898
 20
3.5744016065589106
 10
24.53020397625338
 20
3.6077762057768457
 10
24.315646329930683
 20
3.6412871735034287
 10
24.099946249584587
 20
3.6747608350221403
 10
23.883156610797606
 20
3.7083140949839506
 10
23.6652731890585
 20
3.7420614073238303
 10
23.44630652034891
 20
3.7757173225572562
 10
23.226258706384275
 20
3.8092248992804527
 10
23.005233398722222
 20
3.842874831086393
 10
22.78311850099871
 20
3.876605218026563
 10
22.560026096929533
 20
3.9104783027259287
 10
22.335968830535915
 20
3.944151522957965
 10
22.110944587454185
 20
3.9776821628029
 10
21.884949147389165
 20
4.011184561970222
 10
21.657976175682023
 20
4.044830344249643
 10
21.430148304678468
 20
4.078395960105157
 10
21.201359755808966
 20
4.111648342700469
 10
20.97177550523618
 20
4.1447661824095805
 10
20.74127080203463
 20
4.178030427074213
 10
20.50991117845628
 20
4.211215076442357
 10
20.277705056119117
 20
4.2440919651097175
 10
20.044762421239618
 20
4.276780162879553
 10
19.810966955050496
 20
4.309332166625577
 10
19.576430747591708
 20
4.3418100476345325
 10
19.341098800484914
 20
4.374154413786644
 10
19.105032427794935
 20
4.406253547426649
 10
18.86828872750749
 20
4.43810995638329
 10
18.63081059109666
 20
4.469721418391534
 10
18.392712220858016
 20
4.501092777770637
 10
18.153879406063822
 20
4.532219418652314
 10
17.914422128714488
 20
4.563220525065305
 10
17.674342498957593
 20
4.59403892715487
 10
17.43365104855871
 20
4.624389289661965
 10
17.192343557222664
 20
4.654385952296079
 10
16.950532121313522
 20
4.684090815005729
 10
16.708100422064014
 20
4.713556374664625
 10
16.465166877848784
 20
4.742673250108026
 10
16.221733594599367
 20
4.771384385706666
 10
15.977802678247256
 20
4.799632725831289
 10
15.733369904281188
 20
4.827532724416866
 10
15.488490271079522
 20
4.85514377358317
 10
15.243163772318123
 20
4.882466044668428
 10
14.99745383431744
 20
4.909330593049893
 10
14.75130545869914
 20
4.935678026607789
 10
14.504777853596531
 20
4.9614536833161145
 10
14.257921799200815
 20
4.986831237891389
 10
14.010673862867426
 20
5.011979806294587
 10
13.763152469295152
 20
5.0367898360227334
 10
13.51531737638248
 20
5.060802145762045
 10
13.267155929568013
 20
5.0843595833027555
 10
13.018780235756008
 20
5.107523763029671
 10
12.770137398283564
 20
5.130178351419244
 10
12.521229527298251
 20
5.152266178616726
 10
12.272164505193098
 20
5.173963312941897
 10
12.022887337805821
 20
5.195210248049496
 10
11.773461449348849
 20
5.215838096429522
 10
11.523829733404286
 20
5.235844578704197
 10
11.274104296876398
 20
5.255291309258331
 10
11.02428302750955
 20
5.274235515059405
 10
10.774372251530435
 20
5.292505800768676
 10
10.524369856683418
 20
5.3101593933536275
 10
10.274330843454875
 20
5.327255627821293
 10
10.024191781308284
 20
5.343963563019904
 10
9.77407953131669
 20
5.359945081252999
 10
9.523994093480097
 20
5.375200182520572
 10
9.273933361866995
 20
5.389785922451892
 10
9.023895224221757
 20
5.403759528014437
 10
8.773938901325938
 20
5.417065994505755
 10
8.524005176614061
 20
5.429760212402817
 10
8.274210373069483
 20
5.441789570606424
 10
8.02455870887933
 20
5.453039786519833
 10
7.775048076004068
 20
5.463567972885044
 10
7.525676368512177
 20
5.473431185331317
 10
7.276445694443212
 20
5.482572311116651
 10
7.02747449114419
 20
5.49088145506162
 10
6.778701431902053
 20
5.498470677497939
 10
6.530179413379707
 20
5.505456311949157
 10
6.281861867248966
 20
5.511550572440237
 10
6.033858796590622
 20
5.516872071872502
 10
5.7861638836101505
 20
5.521591977133728
 10
5.538726339684193
 20
5.525536841958365
 10
5.291664606375849
 20
5.528596656941506
 10
5.044974469714058
 20
5.5308855904544085
 10
4.798603035143953
 20
5.532287251860783
 10
4.552660312070446
 20
5.532920082723726
 10
4.307093408046709
 20
5.532667635294202
 10
4.0620144384091565
 20
5.531591295506052
 10
3.8173028619873044
 20
5.529857957055215
 10
3.5730771203442435
 20
5.527357610536784
 10
3.3293456456381723
 20
5.523861804982752
 10
3.0861063361536534
 20
5.519427481796894
 10
2.8434099784060103
 20
5.5142281443575065
 10
2.601258688866954
 20
5.508206451471617
 10
2.3596545776840627
 20
5.501305233284483
 10
2.118654759707384
 20
5.493526540722909
 10
1.8781979082238585
 20
5.484982434118609
 10
1.6383369283285483
 20
5.475789018544168
 10
1.3991373649216499
 20
5.465719951071123
 10
1.1606034382983357
 20
5.454660891989989
 10
0.9227309387036237
 20
5.442725895446542
 10
0.6855750647796155
 20
5.429968927850067
 10
0.4490790452867103
 20
5.416378628896814
 10
0.21329789125148355
 20
5.402014048030104
 10
-0.0217133926236122
 20
5.386934406031485
 10
-0.2560034869223884
 20
5.370909143893405
 10
-0.48951527890284185
 20
5.353940369655412
 10
-0.7222021960207113
 20
5.336315755067058
 10
-0.9541171349389027
 20
5.317918966604794
 10
-1.1851437621338623
 20
5.298697107605716
 10
-1.4153963030895966
 20
5.2786459619907244
 10
-1.644760532322099
 20
5.257769745838917
 10
-1.8731835531684675
 20
5.236184792673843
 10
-2.1007816991522485
 20
5.213943999158409
 10
-2.327487317333707
 20
5.190763909622156
 10
-2.553198830466119
 20
5.1669914165961845
 10
-2.7779775673705815
 20
5.142738637524954
 10
-3.001867992551816
 20
5.117660787916907
 10
-3.2246987677838184
 20
5.091764191890683
 10
-3.446533329927228
 20
5.065218079632742
 10
-3.6673737870215954
 20
5.038079563885083
 10
-3.8872159229878207
 20
5.010234419163706
 10
-4.105947620381452
 20
4.981743974289704
 10
-4.323683104686492
 20
4.952604013183985
 10
-4.540314474537581
 20
4.922990090151645
 10
-4.755837513855622
 20
4.892787979708683
 10
-4.970250114601068
 20
4.861940569113099
 10
-5.183554384813467
 20
4.830504971106891
 10
-5.395697427829913
 20
4.798597519213611
 10
-5.606736356392403
 20
4.7662161053937115
 10
-5.816552728937843
 20
4.7332507202422835
 10
-6.025146545466234
 20
4.699701363759329
 10
-6.232572810680027
 20
4.665508815163296
 10
-6.438776519876773
 20
4.6307322952357355
 10
-6.643763997175107
 20
4.595543142202652
 10
-6.847480237872578
 20
4.560000576845592
 10
-7.049916809810997
 20
4.5238761481965515
 10
-7.251130825732365
 20
4.487167748215983
 10
-7.450948839371133
 20
4.449824588280526
 10
-7.649491400329943
 20
4.412013790537091
 10
-7.846760616648341
 20
4.373792467727679
 10
-8.042642262842325
 20
4.335164835931385
 10
-8.237134230872348
 20
4.296073782406207
 10
-8.43028730936177
 20
4.2563458608865945
 10
-8.62205281772678
 20
4.216211630380099
 10
-8.812437080086017
 20
4.175842429112725
 10
-9.001372443499744
 20
4.134954801414014
 10
-9.188916020709962
 20
4.093546639244417
 10
-9.374957802311766
 20
4.0517363841670315
 10
-9.559554901047152
 20
4.009521928142312
 10
-9.742709424955672
 20
3.9669603839122565
 10
-9.924357937176678
 20
3.923882521290411
 10
-10.10450465378927
 20
3.8804025657607775
 10
-10.283149574793443
 20
3.8365205173233563
 10
-10.460301132347386
 20
3.7924648269461527
 10
-10.635842992927556
 20
3.7481825979662595
 10
-10.809883057899304
 20
3.703498276078579
 10
-10.98235999844154
 20
3.6582997438386538
 10
-11.153225133970453
 20
3.612817560254038
 10
-11.322539793307135
 20
3.5671638427691863
 10
-11.490238431551395
 20
3.5211122484556414
 10
-11.656268152040328
 20
3.4747791108369523
 10
-11.820745288297488
 20
3.4282173265760276
 10
-11.983555614838862
 20
3.38143111175196
 10
-12.144692807545818
 20
3.334249128138745
 10
-12.304163190536991
 20
3.2868427139623897
 10
-12.461968871851933
 20
3.239268981964891
 10
-12.618107743451093
 20
3.191470819404252
 10
-12.772522692592473
 20
3.1434503343200175
 10
-12.925211611236522
 20
3.095150413970186
 10
-13.076233720164794
 20
3.046626063057213
 10
-13.225474793893282
 20
2.997881497660191
 10
-13.372939048501078
 20
2.9490309432631236
 10
-13.518736493393096
 20
2.899955958302915
 10
-13.662695790343328
 20
2.8506628668982046
 10
-13.80487194405423
 20
2.801092448267445
 10
-13.94527338668399
 20
2.751473153378642
 10
-14.08390011823261
 20
2.7018049822317955
 10
-14.220690809878986
 20
2.6519758173824495
 10
-14.35564335358358
 20
2.601928546088603
 10
-14.488812754048846
 20
2.5516039475687062
 10
-14.620095325988514
 20
2.501291801611862
 10
-14.749546074105035
 20
2.450932887436521
 10
-14.877160782319322
 20
2.400412979558681
 10
-15.002882337889368
 20
2.3497341860178884
 10
-15.12671495689427
 20
2.2990107322981466
 10
-15.248654423254928
 20
2.2481283929154525
 10
-15.3687028450109
 20
2.1971442806118078
 10
-15.486862330201722
 20
2.1461155081292134
 10
-15.603071550006304
 20
2.094929958023214
 10
-15.717336828543289
 20
2.0437589685198145
 10
-15.829706846396483
 20
1.99237198061146
 10
-15.940132922982079
 20
1.9409995533057054
 10
-16.04861295026053
 20
1.8895845738605488
 10
-16.155144820192284
 20
1.8380699295339882
 10
-16.25967142003535
 20
1.786457728365571
 10
-16.36225197057126
 20
1.7348029750577512
 10
-16.462835683176674
 20
1.6832791158760818
 10
-16.561418341772477
 20
1.6317719253365583
 10
-16.657999946358682
 20
1.580281403439181
 10
-16.752639717716832
 20
1.5288625548864052
 10
-16.845221322323383
 20
1.4774624830153225
 10
-16.935806088999428
 20
1.4261933052703895
 10
-17.024341121082053
 20
1.3751713551751565
 10
-17.110883531313267
 20
1.3243945246900757
 10
-17.195371990871973
 20
1.2737506963706922
 10
-17.277865720539722
 20
1.223294874919459
 10
-17.358250494832504
 20
1.1730312764154716
 10
-17.436644755313424
 20
1.123069910263638
 10
-17.51293638453802
 20
1.0734721052850544
 10
-17.5871782791692
 20
1.0241215279561706
 10
-17.659370439206967
 20
0.9750181782769863
 10
-17.729512864651323
 20
0.9261620562475018
 10
-17.79755265883935
 20
0.8776694953912675
 10
-17.863489821771065
 20
0.8295404957082826
 10
-17.92737514206981
 20
0.7816016109329962
 10
-17.989157831112237
 20
0.7340262873309595
 10
-18.04882945674015
 20
0.6865860739341665
 10
-18.106398451111748
 20
0.6395094217106235
 10
-18.16185638206883
 20
0.5925678796923245
 10
-18.215207465690497
 20
0.5458756733632719
 10
-18.266451701976752
 20
0.4994328027234663
 10
-18.31552987014604
 20
0.4531842630704529
 10
-18.362560411761457
 20
0.4072400638091409
 10
-18.407365664478366
 20
0.36143519083216674
 10
-18.45012118260186
 20
0.3158775455048921
 10
-18.490710632608387
 20
0.27051423116441
 10
-18.529140338616592
 20
0.2255165860367251
 10
-18.56546319728938
 20
0.1807682765982867
 10
-18.5996242039243
 20
0.13632852363064382
 10
-18.631631790679535
 20
0.09242577810180239
 10
-18.66153674617845
 20
0.048886593746211134
 10
-18.68928617375813
 20
0.005827304087419762
 10
-18.714884289497682
 20
-0.03663786539056844
 10
-18.73833952555529
 20
-0.07828046371974721
 10
-18.759651881930946
 20
-0.11910049090011657
 10
-18.778882687445755
 20
-0.1589858294872207
 10
-18.79592825681344
 20
-0.19764669969195747
 10
-18.810854134934196
 20
-0.23485675858586805
 10
-18.8237385149455
 20
-0.27004698678848377
 10
-18.834481927640173
 20
-0.3028133790266998
 10
-18.84317521439297
 20
-0.3322442394680384
 10
-18.849909216578652
 20
-0.3574278722800221
 10
-18.854620301662337
 20
-0.3769893555755193
 10
-18.857418283374706
 20
-0.3895029788440387
 10
-18.84503094472731
 20
-0.754550565727315
 10
-18.843838292612382
 20
-0.7574232628179992
 10
-18.840262444307136
 20
-0.7659842413480504
 10
-18.834311831969767
 20
-0.7800050503494623
 10
-18.825893506185963
 20
-0.800454498396714
 10
-18.815077423609253
 20
-0.8285361691509324
 10
-18.80191608955407
 20
-0.8612780919884899
 10
-18.78641774050438
 20
-0.8969076638677914
 10
-18.7687240064583
 20
-0.934686635221911
 10
-18.748822043504312
 20
-0.9734135304292693
 10
-18.726673711256343
 20
-1.0125722267723052
 10
-18.70240377539612
 20
-1.0518813766201052
 10
-18.675963555339845
 20
-1.0911104209651157
 10
-18.647361483245696
 20
-1.1300309088393308
 10
-18.616601775192773
 20
-1.1685286147587473
 10
-18.583684431181076
 20
-1.2066035387233656
 10
-18.548668671992147
 20
-1.2442006760307307
 10
-18.511501600963083
 20
-1.2812036931572925
 10
-18.47218111005434
 20
-1.3176697028450528
 10
-18.430766420047462
 20
-1.3535437003915574
 10
-18.387196202121352
 20
-1.3889378032412614
 10
-18.341472564315566
 20
-1.4237948986521638
 10
-18.293713948193194
 20
-1.458004977219356
 10
-18.24374269140959
 20
-1.4917330530502009
 10
-18.1917322402303
 20
-1.5249283375213383
 10
-18.13756626113179
 20
-1.5576437272956756
 10
-18.081303974895597
 20
-1.5898242176707582
 10
-18.022947489561275
 20
-1.6214126959045851
 10
-17.96249048101017
 20
-1.6525805002231602
 10
-17.89993716532139
 20
-1.683213405142481
 10
-17.835279110336735
 20
-1.7135398616305537
 10
-17.76852264017486
 20
-1.7433885314613733
 10
-17.69972065149866
 20
-1.7728757481584896
 10
-17.628816031566142
 20
-1.8019994036823563
 10
-17.555804564298203
 20
-1.8308737235169763
 10
-17.4807454704764
 20
-1.859443702959895
 10
-17.403636642061183
 20
-1.8877664547531139
 10
-17.32447807905255
 20
-1.915841978896633
 10
-17.24320634458986
 20
-1.9438395055769102
 10
-17.159937772196663
 20
-1.9717061381310377
 10
-17.074560244428504
 20
-1.9993805477379198
 10
-16.987187986769385
 20
-2.026866950476651
 10
-16.89775967039821
 20
-2.054277463791687
 10
-16.80633240805698
 20
-2.081614195722575
 10
-16.712851195043243
 20
-2.1088179254877666
 10
-16.617377360178093
 20
-2.1357765356428056
 10
-16.51985168267998
 20
-2.1625450308901466
 10
-16.42038627999336
 20
-2.1891847400508846
 10
-16.31892403937624
 20
-2.215693555085473
 10
-16.2154649608286
 20
-2.2420714759939124
 10
-16.110015368469107
 20
-2.268147164550197
 10
-16.00263237503974
 20
-2.293922728793875
 10
-15.893258867798513
 20
-2.3193960606853987
 10
-15.78194774340833
 20
-2.344683493748318
 10
-15.668699001869186
 20
-2.3697850279826342
 10
-15.553521075339273
 20
-2.39447221242034
 10
-15.436466860481495
 20
-2.4188613805849855
 10
-15.317481352593402
 20
-2.442893311695022
 10
-15.196562443635443
 20
-2.4666251184924515
 10
-15.07376724634962
 20
-2.4900589090168213
 10
-14.949097868775485
 20
-2.5131375705261303
 10
-14.822552202873485
 20
-2.5359182157623783
 10
-14.69413024864362
 20
-2.5584008447255666
 10
-14.563834114125443
 20
-2.5805283446736933
 10
-14.431718804021404
 20
-2.6023599363883068
 10
-14.297784318331505
 20
-2.6238956198694074
 10
-14.161975652353288
 20
-2.6450761743354465
 10
-14.024402815491666
 20
-2.666020041349521
 10
-13.885010803044185
 20
-2.6866680001300836
 10
-13.743797506971292
 20
-2.7070771634191346
 10
-13.60082214805454
 20
-2.7271925265142194
 10
-13.45609105041257
 20
-2.7468427511893334
 10
-13.30959788992674
 20
-2.7661991756704816
 10
-13.161281337775955
 20
-2.785373917402121
 10
-13.011314840225769
 20
-2.8043161877608895
 10
-12.859588387871268
 20
-2.8229075451836905
 10
-12.706104088752001
 20
-2.8410908769285235
 10
-12.55097195227288
 20
-2.8589846245584836
 10
-12.39413275765235
 20
-2.876643792776027
 10
-12.235590720969512
 20
-2.8939541560971502
 10
-12.075402954966366
 20
-2.9109178225614
 10
-11.913571567682455
 20
-2.927477679426775
 10
-11.75009023499914
 20
-2.94380506491928
 10
-11.584963172995518
 20
-2.9597857535549115
 10
-11.41818616559249
 20
-2.9755339708176733
 10
-11.249879762392704
 20
-2.9908825945606545
 10
-11.079927629872609
 20
-3.005884521446762
 10
-10.908386880774206
 20
-3.020541859515544
 10
-10.735312519799947
 20
-3.0349138295485485
 10
-10.56065165028693
 20
-3.0488840980222247
 10
-10.38445716889806
 20
-3.062568998460124
 10
-10.206788296414882
 20
-3.075913526159791
 10
-10.027535023432492
 20
-3.088799239558129
 10
-9.846811575434895
 20
-3.101230354734232
 10
-9.664611628303442
 20
-3.1133782099141043
 10
-9.48093518203814
 20
-3.1252428050977463
 10
-9.295782236638981
 20
-3.136824140285158
 10
-9.109216228966618
 20
-3.147952985289882
 10
-8.921241375100136
 20
-3.1585151146279147
 10
-8.731792130139354
 20
-3.1687368712277157
 10
-8.54098271956827
 20
-3.1786224711683784
 10
-8.348760246723971
 20
-3.188055580926353
 10
-8.155186040427564
 20
-3.1969240830571843
 10
-7.960253776560402
 20
-3.205399315786876
 10
-7.764016351785391
 20
-3.2135976126389783
 10
-7.566420869439626
 20
-3.2214026400899414
 10
-7.367473653641747
 20
-3.2286430599137605
 10
-7.167284713796666
 20
-3.235437313673533
 10
-6.9658519418648295
 20
-3.24184251411126
 10
-6.763061112362242
 20
-3.2478544451478486
 10
-6.559085671554449
 20
-3.253422318159937
 10
-6.353872722778548
 20
-3.2584297996239755
 10
-6.147422266034536
 20
-3.2628768895399642
 10
-5.939789306024867
 20
-3.2668228086894517
 10
-5.730963302551809
 20
-3.2705531207824454
 10
-5.521007692476002
 20
-3.2738985956324895
 10
-5.309873795213633
 20
-3.276628674232028
 10
-5.097559502725154
 20
-3.2788004693230643
 10
-4.884179040494571
 20
-3.280418196984692
 10
-4.669666863621692
 20
-3.28170820014537
 10
-4.454084300927613
 20
-3.282558361360643
 10
-4.237431352412335
 20
-3.28296868063051
 10
-4.01971223415495
 20
-3.282824932470969
 10
-3.8009248381159124
 20
-3.282184229624021
 10
-3.5811791737001335
 20
-3.2811650136527635
 10
-3.360365231502702
 20
-3.279648842994098
 10
-3.138601453086711
 20
-3.2775257082431177
 10
-2.91588573041262
 20
-3.274852722141822
 10
-2.6922159554408776
 20
-3.271686997432214
 10
-2.4675371234690333
 20
-3.2679693133327445
 10
-2.2420247888021847
 20
-3.2635917684780518
 10
-2.015623946737876
 20
-3.258495142086587
 10
-1.7882648362968208
 20
-3.2530200025708127
 10
-1.5600637910025734
 20
-3.2471134532678216
 10
-1.3310905718344155
 20
-3.240434925765151
 10
-1.1012246291897068
 20
-3.2331515422097112
 10
-0.8705209677708962
 20
-3.225322523383051
 10
-0.6390980291410844
 20
-3.2168378598802616
 10
-0.40684369585581215
 20
-3.2076362228802484
 10
-0.17387219339908616
 20
-3.197721828462104
 10
0.05988202312928206
 20
-3.187321019554288
 10
0.29435762490820183
 20
-3.1763216787123443
 10
0.5294869589979344
 20
-3.1644403502658127
 10
0.7653334622591207
 20
-3.15184626440115
 10
1.0018484541079498
 20
-3.1387699801259097
 10
1.2389685040078946
 20
-3.125042438591861
 10
1.4767489581638227
 20
-3.1106136712816586
 10
1.715137113852456
 20
-3.0956052660911175
 10
1.9541245452397311
 20
-3.0797889433904575
 10
2.1937112565417283
 20
-3.0631648174051613
 10
2.433848567174628
 20
-3.045963447142784
 10
2.674481480868136
 20
-3.0282442818358417
 10
2.9156650044327512
 20
-3.009948157815527
 10
3.1573357031158626
 20
-2.9909059020081252
 10
3.399497795104613
 20
-2.9712317970103803
 10
3.642151288831155
 20
-2.9509260712732615
 10
3.885239069445445
 20
-2.9299907757235735
 10
4.1287548191529675
 20
-2.9082547434735377
 10
4.372702754032809
 20
-2.885832200007157
 10
4.616977080759161
 20
-2.8629558123715317
 10
4.8616899252086325
 20
-2.8395644801965343
 10
5.106720735670545
 20
-2.815491024222512
 10
5.352128737142524
 20
-2.790790563377404
 10
5.597799704140566
 20
-2.765467313740304
 10
5.843792859554255
 20
-2.739576337126408
 10
6.090106097452091
 20
-2.713060577906457
 10
6.336627300389615
 20
-2.685981364901547
 10
6.583417797187922
 20
-2.6584508155561335
 10
6.830475486131585
 20
-2.630411988466441
 10
7.077684027372932
 20
-2.6018118156313363
 10
7.325102645909593
 20
-2.5727054159787572
 10
7.572678445078659
 20
-2.5432091230322555
 10
7.820460107571984
 20
-2.5130924348970187
 10
8.068337619768586
 20
-2.48247367891066
 10
8.316315197747546
 20
-2.4514670805571823
 10
8.56439073557737
 20
-2.4200155842073263
 10
8.812560017178953
 20
-2.3880049643770898
 10
9.060827260739435
 20
-2.3555495036632172
 10
9.309082446313706
 20
-2.3227673580650956
 10
9.557378474780759
 20
-2.2895423082846595
 10
9.805664557517225
 20
-2.256047800587459
 10
10.05393436618839
 20
-2.222112382522007
 10
10.302185794862742
 20
-2.187678998459044
 10
10.550423059619376
 20
-2.152861873882572
 10
10.798538246444695
 20
-2.1178362204212395
 10
11.046588474404818
 20
-2.082600101373723
 10
11.29451030242302
 20
-2.046984172328083
 10
11.54230583432278
 20
-2.011045431800836
 10
11.789975072212124
 20
-1.974783936904725
 10
12.037520119914529
 20
-1.938256686156266
 10
12.284824633366242
 20
-1.9014104973288426
 10
12.531947839672938
 20
-1.8643005464631353
 10
12.77883472148391
 20
-1.8269857116642407
 10
13.025546618160469
 20
-1.7895783959403246
 10
13.27196085308805
 20
-1.7518538503877972
 10
13.518079536414255
 20
-1.7138692448614017
 10
13.763970321078817
 20
-1.6759080350315987
 10
14.00950632282025
 20
-1.6376314749617635
 10
14.25468542727489
 20
-1.5989822805716687
 10
14.499577401746137
 20
-1.560301191612002
 10
14.744072219964767
 20
-1.5217061927439246
 10
14.988214350651576
 20
-1.482852613701365
 10
15.231948780671958
 20
-1.4437994468149022
 10
15.475218384635669
 20
-1.4045484574476332
 10
15.718084497687926
 20
-1.3652119343822386
 10
15.960492104586068
 20
-1.3258488128365578
 10
16.20244330704554
 20
-1.2865160342143656
 10
16.443876769921115
 20
-1.247101309732981
 10
16.68478826870154
 20
-1.207490185457432
 10
16.925184125397436
 20
-1.1678539425009817
 10
17.165064337900734
 20
-1.128192523750888
 10
17.404316765578557
 20
-1.088566629788084
 10
17.64305564867119
 20
-1.0489724443226707
 10
17.88116041649559
 20
-1.0092422740803169
 10
18.118633172875217
 20
-0.9694331175775406
 10
18.35548444957565
 20
-0.9298303100733812
 10
18.591712140665397
 20
-0.8903767959385785
 10
18.827197777176835
 20
-0.8509618233025789
 10
19.062057707389783
 20
-0.8116386886174825
 10
19.296175574592272
 20
-0.7723538669802208
 10
19.52960849574237
 20
-0.7331053645767305
 10
19.762303559420904
 20
-0.6940091151413674
 10
19.994203638129587
 20
-0.6550668269244854
 10
20.225370067013635
 20
-0.6163907887087655
 10
20.455682269065885
 20
-0.577813135881652
 10
20.68525448452663
 20
-0.5393300521532439
 10
20.913970356683873
 20
-0.5008880126204731
 10
21.141842523234704
 20
-0.46282940817163765
 10
21.36881385878888
 20
-0.4251560041698332
 10
21.594985955349408
 20
-0.3875213078731499
 10
21.82018532870602
 20
-0.3498735026288721
 10
22.044543083415363
 20
-0.31266567408311147
 10
22.267942860657424
 20
-0.2758442402200567
 10
22.49037621773381
 20
-0.2391804645079919
 10
22.711843150428443
 20
-0.20267423272143278
 10
22.932345760456755
 20
-0.16638248626415486
 10
23.15189458380039
 20
-0.13059067462068247
 10
23.370371145167645
 20
-0.0951878745822335
 10
23.587883367004256
 20
-0.05999910297112988
 10
23.804316990097593
 20
-0.025027662062593797
 10
24.019676224202627
 20
0.009612393997597703
 10
24.23396528118238
 20
0.04380695395092573
 10
24.447179936525593
 20
0.07767047173236118
 10
24.65926305640986
 20
0.1112014104297767
 10
24.870275978088465
 20
0.14428742414774925
 10
25.080104442348755
 20
0.1769252106110559
 10
25.28879924624623
 20
0.20928798763428028
 10
25.496246126352208
 20
0.24137256716768477
 10
25.702620672808436
 20
0.27307007692929297
 10
25.907698587484827
 20
0.30425957265917397
 10
26.111594119053823
 20
0.33494464219625997
 10
26.314305151043705
 20
0.3651826267335197
 10
26.51571320816275
 20
0.395084449479735
 10
26.715820387910306
 20
0.424593283256614
 10
26.914743044890322
 20
0.45365566027382903
 10
27.112311902539474
 20
0.4822094001510619
 10
27.30858829389493
 20
0.5101422712183723
 10
27.503508761015645
 20
0.5376240747896379
 10
27.69712831492821
 20
0.5647138603081812
 10
27.889391929849754
 20
0.5913529781198733
 10
28.080299597348137
 20
0.6175416566756826
 10
28.269800505611556
 20
0.6431070779502196
 10
28.45794545380357
 20
0.6682224026453255
 10
28.64462228442697
 20
0.692827387082003
 10
28.82988390046879
 20
0.7170381934455761
 10
29.013736621831576
 20
0.740683597735524
 10
29.196125418516417
 20
0.7637050645232025
 10
29.377043957972496
 20
0.7862741604855837
 10
29.556492233875716
 20
0.8083910569608943
 10
29.73447023779389
 20
0.8300559824001016
 10
29.910867922377427
 20
0.8511515232694651
 10
30.085803752377835
 20
0.8715670419239129
 10
30.259210051666965
 20
0.8915866222740688
 10
30.431031792353906
 20
0.9111516717785452
 10
30.60132609350479
 20
0.9302641271386636
 10
30.770040035268277
 20
0.948808283071036
 10
30.937114373674373
 20
0.9668397725182788
 10
31.102661251464014
 20
0.9844192389485832
 10
31.266572725111047
 20
1.0013722703116907
 10
31.428844572212252
 20
1.0178132634298307
 10
31.589478894483076
 20
1.0336852768992275
 10
31.74846935726468
 20
1.0491599345095965
 10
31.905820170311994
 20
1.0641231821151589
 10
32.06147419558661
 20
1.0785735970292727
 10
32.21543353480391
 20
1.092454237848162
 10
32.367753203206554
 20
1.1058240397896664
 10
32.518316825110205
 20
1.1187370417715319
 10
32.667124389974674
 20
1.1311935293574693
 10
32.81423513122974
 20
1.1431381551685724
 10
32.95965115902299
 20
1.154513749350097
 10
33.10325192585982
 20
1.1654873769362117
 10
33.24509436319081
 20
1.1760660576622757
 10
33.38518499961447
 20
1.1860729133663104
 10
33.52346451316332
 20
1.195565690162386
 10
33.65992868354222
 20
1.2046587277599905
 10
33.794638850112456
 20
1.213239623150957
 10
33.92748285116073
 20
1.221248246881772
 10
34.058513593890154
 20
1.2288006469122759
 10
34.187728963937055
 20
1.235954107322696
 10
34.315071825371
 20
1.2427071483136471
 10
34.440546387946966
 20
1.2489457157393529
 10
34.564150533085204
 20
1.2547272079055234
 10
34.68588004049055
 20
1.2601659645216476
 10
34.8057370097704
 20
1.265205101296691
 10
34.92366852318142
 20
1.2697288558345232
 10
35.03967457018344
 20
1.2737375136988545
 10
35.15380384611653
 20
1.2774612341080438
 10
35.26600131887374
 20
1.2808415387461891
 10
35.37626698634703
 20
1.2838784847260325
 10
35.48460294603574
 20
1.286515244869282
 10
35.59095206411747
 20
1.2887502822638102
 10
35.69537146176638
 20
1.2905854764981968
 10
35.79779979118902
 20
1.2921334590315756
 10
35.89824125792431
 20
1.293280289943654
 10
35.99669164167704
 20
1.2941403089439183
 10
36.09321228391658
 20
1.2946010559114607
 10
36.18768470091899
 20
1.2947736825060303
 10
36.28016391003501
 20
1.2947170668327233
 10
36.37059488337374
 20
1.2943726163501543
 10
36.45903685436495
 20
1.2936849836794158
 10
36.54542845413481
 20
1.2927673714070618
 10
36.62983101361243
 20
1.2915076049758945
 10
36.71212407384091
 20
1.2900703506849187
 10
36.792423833429226
 20
1.2884063670867143
 10
36.87061608797378
 20
1.2865108669747676
 10
36.94675796286484
 20
1.2843856157121745
 10
37.020849453886285
 20
1.2820307275244172
 10
37.09288844667449
 20
1.279503486491725
 10
37.16281991755461
 20
1.2767451858472258
 10
37.23063964201541
 20
1.2738702795258916
 10
37.29640685981079
 20
1.2708232488105897
 10
37.360062322754686
 20
1.2676598408694209
 10
37.42160813677861
 20
1.264323000073125
 10
37.48104219173497
 20
1.2608698962764462
 10
37.5383665893392
 20
1.2572435880756079
 10
37.593579219443725
 20
1.2535012453253556
 10
37.646675863861375
 20
1.249757150622432
 10
37.69760360063281
 20
1.2458956557961933
 10
37.746474585147155
 20
1.241977061638377
 10
37.79311530789772
 20
1.238053870154605
 10
37.837699272067084
 20
1.2340737506774824
 10
37.88011221001049
 20
1.2300336293827552
 10
37.92034990354074
 20
1.226047788867168
 10
37.95847159030378
 20
1.222060767526331
 10
37.99442013436913
 20
1.218071085560859
 10
38.02819131965769
 20
1.2141929684547546
 10
38.059846489746846
 20
1.2103138989743683
 10
38.08932429684315
 20
1.2065465085788338
 10
38.11662684477006
 20
1.2028337987516338
 10
38.141749917448486
 20
1.1992899949767715
 10
38.16469562291798
 20
1.1958579845122446
 10
38.18551898063726
 20
1.1925965883504086
 10
38.20410572506958
 20
1.189502675554267
 10
38.22051088199781
 20
1.186634895777949
 10
38.23479158102823
 20
1.1839949001590646
 10
38.246833556624104
 20
1.1815795577606178
 10
38.25668972231265
 20
1.1795047452042235
 10
38.2644193241719
 20
1.1777147724345227
 10
38.269903872153854
 20
1.176320962449491
 10
38.27319839836546
 20
1.1753817935650301
 10
38.27429868040352
 20
1.1750116626033695
  0
ENDSEC
  0
SECTION
  2
OBJECTS
  0
DICTIONARY
  5
A
330
0
100
AcDbDictionary
280
0
281
1
  3
ACAD_COLOR
350
B
  3
ACAD_GROUP
350
C
  3
ACAD_LAYOUT
350
D
  3
ACAD_MATERIAL
350
E
  3
ACAD_MLEADERSTYLE
350
F
  3
ACAD_MLINESTYLE
350
10
  3
ACAD_PLOTSETTINGS
350
11
  3
ACAD_PLOTSTYLENAME
350
12
  3
ACAD_SCALELIST
350
14
  3
ACAD_TABLESTYLE
350
15
  3
ACAD_VISUALSTYLE
350
16
  3
EZDXF_META
350
2D
  0
DICTIONARY
  5
B
330
A
100
AcDbDictionary
280
0
281
1
  0
DICTIONARY
  5
C
330
A
100
AcDbDictionary
280
0
281
1
  0
DICTIONARY
  5
D
330
A
100
AcDbDictionary
280
0
281
1
  3
Model
350
1A
  3
Layout1
350
1E
  0
DICTIONARY
  5
E
330
A
100
AcDbDictionary
280
0
281
1
  3
ByBlock
350
1F
  3
ByLayer
350
20
  3
Global
350
21
  0
DICTIONARY
  5
F
330
A
100
AcDbDictionary
280
0
281
1
  3
Standard
350
2C
  0
DICTIONARY
  5
10
330
A
100
AcDbDictionary
280
0
281
1
  3
Standard
350
22
  0
DICTIONARY
  5
11
330
A
100
AcDbDictionary
280
0
281
1
  0
ACDBDICTIONARYWDFLT
  5
12
330
A
100
AcDbDictionary
280
0
281
1
  3
Normal
350
13
100
AcDbDictionaryWithDefault
340
13
  0
ACDBPLACEHOLDER
  5
13
330
12
  0
DICTIONARY
  5
14
330
A
100
AcDbDictionary
280
0
281
1
  0
DICTIONARY
  5
15
330
A
100
AcDbDictionary
280
0
281
1
  0
DICTIONARY
  5
16
330
A
100
AcDbDictionary
280
0
281
1
  0
LAYOUT
  5
1A
330
D
100
AcDbPlotSettings
  1

  4
A3
  6

 40
7.5
 41
20.0
 42
7.5
 43
20.0
 44
420.0
 45
297.0
 46
0.0
 47
0.0
 48
0.0
 49
0.0
140
0.0
141
0.0
142
1.0
143
1.0
 70
1024
 72
1
 73
0
 74
5
  7

 75
16
 76
0
 77
2
 78
300
147
1.0
148
0.0
149
0.0
100
AcDbLayout
  1
Model
 70
1
 71
0
 10
0.0
 20
0.0
 11
420.0
 21
297.0
 12
0.0
 22
0.0
 32
0.0
 14
1e+20
 24
1e+20
 34
1e+20
 15
-1e+20
 25
-1e+20
 35
-1e+20
146
0.0
 13
0.0
 23
0.0
 33
0.0
 16
1.0
 26
0.0
 36
0.0
 17
0.0
 27
1.0
 37
0.0
 76
1
330
17
  0
LAYOUT
  5
1E
330
D
100
AcDbPlotSettings
  1

  4
A3
  6

 40
7.5
 41
20.0
 42
7.5
 43
20.0
 44
420.0
 45
297.0
 46
0.0
 47
0.0
 48
0.0
 49
0.0
140
0.0
141
0.0
142
1.0
143
1.0
 70
0
 72
1
 73
0
 74
5
  7

 75
16
 76
0
 77
2
 78
300
147
1.0
148
0.0
149
0.0
100
AcDbLayout
  1
Layout1
 70
1
 71
1
 10
0.0
 20
0.0
 11
420.0
 21
297.0
 12
0.0
 22
0.0
 32
0.0
 14
1e+20
 24
1e+20
 34
1e+20
 15
-1e+20
 25
-1e+20
 35
-1e+20
146
0.0
 13
0.0
 23
0.0
 33
0.0
 16
1.0
 26
0.0
 36
0.0
 17
0.0
 27
1.0
 37
0.0
 76
1
330
1B
  0
MATERIAL
  5
1F
102
{ACAD_REACTORS
330
E
102
}
330
E
100
AcDbMaterial
  1
ByBlock
  2

 70
0
 40
1.0
 71
1
 41
1.0
 91
-1023410177
 42
1.0
 72
1
  3

 73
1
 74
1
 75
1
 44
0.5
 73
0
 45
1.0
 46
1.0
 77
1
  4

 78
1
 79
1
170
1
 48
1.0
171
1
  6

172
1
173
1
174
1
140
1.0
141
1.0
175
1
  7

176
1
177
1
178
1
143
1.0
179
1
  8

270
1
271
1
272
1
145
1.0
146
1.0
273
1
  9

274
1
275
1
276
1
 42
1.0
 72
1
  3

 73
1
 74
1
 75
1
 94
63
  0
MATERIAL
  5
20
102
{ACAD_REACTORS
330
E
102
}
330
E
100
AcDbMaterial
  1
ByLayer
  2

 70
0
 40
1.0
 71
1
 41
1.0
 91
-1023410177
 42
1.0
 72
1
  3

 73
1
 74
1
 75
1
 44
0.5
 73
0
 45
1.0
 46
1.0
 77
1
  4

 78
1
 79
1
170
1
 48
1.0
171
1
  6

172
1
173
1
174
1
140
1.0
141
1.0
175
1
  7

176
1
177
1
178
1
143
1.0
179
1
  8

270
1
271
1
272
1
145
1.0
146
1.0
273
1
  9

274
1
275
1
276
1
 42
1.0
 72
1
  3

 73
1
 74
1
 75
1
 94
63
  0
MATERIAL
  5
21
102
{ACAD_REACTORS
330
E
102
}
330
E
100
AcDbMaterial
  1
Global
  2

 70
0
 40
1.0
 71
1
 41
1.0
 91
-1023410177
 42
1.0
 72
1
  3

 73
1
 74
1
 75
1
 44
0.5
 73
0
 45
1.0
 46
1.0
 77
1
  4

 78
1
 79
1
170
1
 48
1.0
171
1
  6

172
1
173
1
174
1
140
1.0
141
1.0
175
1
  7

176
1
177
1
178
1
143
1.0
179
1
  8

270
1
271
1
272
1
145
1.0
146
1.0
273
1
  9

274
1
275
1
276
1
 42
1.0
 72
1
  3

 73
1
 74
1
 75
1
 94
63
  0
MLINESTYLE
  5
22
102
{ACAD_REACTORS
330
10
102
}
330
10
100
AcDbMlineStyle
  2
Standard
 70
0
  3

 62
256
 51
90.0
 52
90.0
 71
2
 49
0.5
 62
256
  6
BYLAYER
 49
-0.5
 62
256
  6
BYLAYER
  0
MLEADERSTYLE
  5
2C
102
{ACAD_REACTORS
330
F
102
}
330
F
100
AcDbMLeaderStyle
179
2
170
2
171
1
172
0
 90
2
 40
0.0
 41
0.0
173
1
 91
-1056964608
 92
-2
290
1
 42
2.0
291
1
 43
8.0
  3
Standard
 44
4.0
300

342
29
174
1
175
1
176
0
178
1
 93
-1056964608
 45
4.0
292
0
297
0
 46
4.0
 94
-1056964608
 47
1.0
 49
1.0
140
1.0
294
1
141
0.0
177
0
142
1.0
295
0
296
0
143
3.75
271
0
272
9
273
9
  0
DICTIONARY
  5
2D
330
A
100
AcDbDictionary
280
1
281
1
  3
CREATED_BY_EZDXF
350
2E
  3
WRITTEN_BY_EZDXF
350
32
  0
DICTIONARYVAR
  5
2E
330
2D
100
DictionaryVariables
280
0
  1
1.3.5 @ 2025-08-20T01:58:17.442820+00:00
  0
DICTIONARYVAR
  5
32
330
2D
100
DictionaryVariables
280
0
  1
1.3.5 @ 2025-08-20T01:58:17.448844+00:00
  0
ENDSEC
  0
EOF
