  0
SECTION
  2
HEADER
  9
$ACADVER
  1
AC1032
  9
$ACADMAINTVER
 90
4
  9
$DWGCODEPAGE
  3
ANSI_1252
  9
$LASTSAVEDBY
  1
ezdxf
  9
$REQUIREDVERSIONS
160
0
  9
$INSBASE
 10
0.0
 20
0.0
 30
0.0
  9
$EXTMIN
 10
1e+20
 20
1e+20
 30
1e+20
  9
$EXTMAX
 10
-1e+20
 20
-1e+20
 30
-1e+20
  9
$LIMMIN
 10
0.0
 20
0.0
  9
$LIMMAX
 10
420.0
 20
297.0
  9
$ORTHOMODE
 70
0
  9
$REGENMODE
 70
1
  9
$FILLMODE
 70
1
  9
$QTEXTMODE
 70
0
  9
$MIRRTEXT
 70
1
  9
$LTSCALE
 40
1.0
  9
$ATTMODE
 70
1
  9
$TEXTSIZE
 40
2.5
  9
$TRACEWID
 40
1.0
  9
$TEXTSTYLE
  7
Standard
  9
$CLAYER
  8
0
  9
$CELTYPE
  6
ByLayer
  9
$CECOLOR
 62
256
  9
$CELTSCALE
 40
1.0
  9
$DISPSILH
 70
0
  9
$DIMSCALE
 40
1.0
  9
$DIMASZ
 40
2.5
  9
$DIMEXO
 40
0.625
  9
$DIMDLI
 40
3.75
  9
$DIMRND
 40
0.0
  9
$DIMDLE
 40
0.0
  9
$DIMEXE
 40
1.25
  9
$DIMTP
 40
0.0
  9
$DIMTM
 40
0.0
  9
$DIMTXT
 40
2.5
  9
$DIMCEN
 40
2.5
  9
$DIMTSZ
 40
0.0
  9
$DIMTOL
 70
0
  9
$DIMLIM
 70
0
  9
$DIMTIH
 70
0
  9
$DIMTOH
 70
0
  9
$DIMSE1
 70
0
  9
$DIMSE2
 70
0
  9
$DIMTAD
 70
1
  9
$DIMZIN
 70
8
  9
$DIMBLK
  1

  9
$DIMASO
 70
1
  9
$DIMSHO
 70
1
  9
$DIMPOST
  1

  9
$DIMAPOST
  1

  9
$DIMALT
 70
0
  9
$DIMALTD
 70
3
  9
$DIMALTF
 40
0.03937007874
  9
$DIMLFAC
 40
1.0
  9
$DIMTOFL
 70
1
  9
$DIMTVP
 40
0.0
  9
$DIMTIX
 70
0
  9
$DIMSOXD
 70
0
  9
$DIMSAH
 70
0
  9
$DIMBLK1
  1

  9
$DIMBLK2
  1

  9
$DIMSTYLE
  2
ISO-25
  9
$DIMCLRD
 70
0
  9
$DIMCLRE
 70
0
  9
$DIMCLRT
 70
0
  9
$DIMTFAC
 40
1.0
  9
$DIMGAP
 40
0.625
  9
$DIMJUST
 70
0
  9
$DIMSD1
 70
0
  9
$DIMSD2
 70
0
  9
$DIMTOLJ
 70
0
  9
$DIMTZIN
 70
8
  9
$DIMALTZ
 70
0
  9
$DIMALTTZ
 70
0
  9
$DIMUPT
 70
0
  9
$DIMDEC
 70
2
  9
$DIMTDEC
 70
2
  9
$DIMALTU
 70
2
  9
$DIMALTTD
 70
3
  9
$DIMTXSTY
  7
Standard
  9
$DIMAUNIT
 70
0
  9
$DIMADEC
 70
0
  9
$DIMALTRND
 40
0.0
  9
$DIMAZIN
 70
0
  9
$DIMDSEP
 70
44
  9
$DIMATFIT
 70
3
  9
$DIMFRAC
 70
0
  9
$DIMLDRBLK
  1

  9
$DIMLUNIT
 70
2
  9
$DIMLWD
 70
-2
  9
$DIMLWE
 70
-2
  9
$DIMTMOVE
 70
0
  9
$DIMFXL
 40
1.0
  9
$DIMFXLON
 70
0
  9
$DIMJOGANG
 40
0.785398163397
  9
$DIMTFILL
 70
0
  9
$DIMTFILLCLR
 70
0
  9
$DIMARCSYM
 70
0
  9
$DIMLTYPE
  6

  9
$DIMLTEX1
  6

  9
$DIMLTEX2
  6

  9
$DIMTXTDIRECTION
 70
0
  9
$LUNITS
 70
2
  9
$LUPREC
 70
4
  9
$SKETCHINC
 40
1.0
  9
$FILLETRAD
 40
10.0
  9
$AUNITS
 70
0
  9
$AUPREC
 70
2
  9
$MENU
  1
.
  9
$ELEVATION
 40
0.0
  9
$PELEVATION
 40
0.0
  9
$THICKNESS
 40
0.0
  9
$LIMCHECK
 70
0
  9
$CHAMFERA
 40
0.0
  9
$CHAMFERB
 40
0.0
  9
$CHAMFERC
 40
0.0
  9
$CHAMFERD
 40
0.0
  9
$SKPOLY
 70
0
  9
$TDCREATE
 40
2460908.1238078703
  9
$TDUCREATE
 40
2458532.153996898
  9
$TDUPDATE
 40
2460908.1238078703
  9
$TDUUPDATE
 40
2458532.1544311
  9
$TDINDWG
 40
0.0
  9
$TDUSRTIMER
 40
0.0
  9
$USRTIMER
 70
1
  9
$ANGBASE
 50
0.0
  9
$ANGDIR
 70
0
  9
$PDMODE
 70
0
  9
$PDSIZE
 40
0.0
  9
$PLINEWID
 40
0.0
  9
$SPLFRAME
 70
0
  9
$SPLINETYPE
 70
6
  9
$SPLINESEGS
 70
8
  9
$HANDSEED
  5
33
  9
$SURFTAB1
 70
6
  9
$SURFTAB2
 70
6
  9
$SURFTYPE
 70
6
  9
$SURFU
 70
6
  9
$SURFV
 70
6
  9
$UCSBASE
  2

  9
$UCSNAME
  2

  9
$UCSORG
 10
0.0
 20
0.0
 30
0.0
  9
$UCSXDIR
 10
1.0
 20
0.0
 30
0.0
  9
$UCSYDIR
 10
0.0
 20
1.0
 30
0.0
  9
$UCSORTHOREF
  2

  9
$UCSORTHOVIEW
 70
0
  9
$UCSORGTOP
 10
0.0
 20
0.0
 30
0.0
  9
$UCSORGBOTTOM
 10
0.0
 20
0.0
 30
0.0
  9
$UCSORGLEFT
 10
0.0
 20
0.0
 30
0.0
  9
$UCSORGRIGHT
 10
0.0
 20
0.0
 30
0.0
  9
$UCSORGFRONT
 10
0.0
 20
0.0
 30
0.0
  9
$UCSORGBACK
 10
0.0
 20
0.0
 30
0.0
  9
$PUCSBASE
  2

  9
$PUCSNAME
  2

  9
$PUCSORG
 10
0.0
 20
0.0
 30
0.0
  9
$PUCSXDIR
 10
1.0
 20
0.0
 30
0.0
  9
$PUCSYDIR
 10
0.0
 20
1.0
 30
0.0
  9
$PUCSORTHOREF
  2

  9
$PUCSORTHOVIEW
 70
0
  9
$PUCSORGTOP
 10
0.0
 20
0.0
 30
0.0
  9
$PUCSORGBOTTOM
 10
0.0
 20
0.0
 30
0.0
  9
$PUCSORGLEFT
 10
0.0
 20
0.0
 30
0.0
  9
$PUCSORGRIGHT
 10
0.0
 20
0.0
 30
0.0
  9
$PUCSORGFRONT
 10
0.0
 20
0.0
 30
0.0
  9
$PUCSORGBACK
 10
0.0
 20
0.0
 30
0.0
  9
$USERI1
 70
0
  9
$USERI2
 70
0
  9
$USERI3
 70
0
  9
$USERI4
 70
0
  9
$USERI5
 70
0
  9
$USERR1
 40
0.0
  9
$USERR2
 40
0.0
  9
$USERR3
 40
0.0
  9
$USERR4
 40
0.0
  9
$USERR5
 40
0.0
  9
$WORLDVIEW
 70
1
  9
$SHADEDGE
 70
3
  9
$SHADEDIF
 70
70
  9
$TILEMODE
 70
1
  9
$MAXACTVP
 70
64
  9
$PINSBASE
 10
0.0
 20
0.0
 30
0.0
  9
$PLIMCHECK
 70
0
  9
$PEXTMIN
 10
1e+20
 20
1e+20
 30
1e+20
  9
$PEXTMAX
 10
-1e+20
 20
-1e+20
 30
-1e+20
  9
$PLIMMIN
 10
0.0
 20
0.0
  9
$PLIMMAX
 10
420.0
 20
297.0
  9
$UNITMODE
 70
0
  9
$VISRETAIN
 70
1
  9
$PLINEGEN
 70
0
  9
$PSLTSCALE
 70
1
  9
$TREEDEPTH
 70
3020
  9
$CMLSTYLE
  2
Standard
  9
$CMLJUST
 70
0
  9
$CMLSCALE
 40
20.0
  9
$PROXYGRAPHICS
 70
1
  9
$MEASUREMENT
 70
1
  9
$CELWEIGHT
370
-1
  9
$ENDCAPS
280
0
  9
$JOINSTYLE
280
0
  9
$LWDISPLAY
290
0
  9
$INSUNITS
 70
6
  9
$HYPERLINKBASE
  1

  9
$STYLESHEET
  1

  9
$XEDIT
290
1
  9
$CEPSNTYPE
380
0
  9
$PSTYLEMODE
290
1
  9
$FINGERPRINTGUID
  2
{AE22D467-4FCF-4004-BF93-F4FDED44511B}
  9
$VERSIONGUID
  2
{7A7FF80A-264D-4C12-A2B8-BDE28B374F5A}
  9
$EXTNAMES
290
1
  9
$PSVPSCALE
 40
0.0
  9
$OLESTARTUP
290
0
  9
$SORTENTS
280
127
  9
$INDEXCTL
280
0
  9
$HIDETEXT
280
1
  9
$XCLIPFRAME
280
1
  9
$HALOGAP
280
0
  9
$OBSCOLOR
 70
257
  9
$OBSLTYPE
280
0
  9
$INTERSECTIONDISPLAY
280
0
  9
$INTERSECTIONCOLOR
 70
257
  9
$DIMASSOC
280
2
  9
$PROJECTNAME
  1

  9
$CAMERADISPLAY
290
0
  9
$LENSLENGTH
 40
50.0
  9
$CAMERAHEIGHT
 40
0.0
  9
$STEPSPERSEC
 40
24.0
  9
$STEPSIZE
 40
100.0
  9
$3DDWFPREC
 40
2.0
  9
$PSOLWIDTH
 40
0.005
  9
$PSOLHEIGHT
 40
0.08
  9
$LOFTANG1
 40
1.570796326795
  9
$LOFTANG2
 40
1.570796326795
  9
$LOFTMAG1
 40
0.0
  9
$LOFTMAG2
 40
0.0
  9
$LOFTPARAM
 70
7
  9
$LOFTNORMALS
280
1
  9
$LATITUDE
 40
37.795
  9
$LONGITUDE
 40
-122.394
  9
$NORTHDIRECTION
 40
0.0
  9
$TIMEZONE
 70
-8000
  9
$LIGHTGLYPHDISPLAY
280
1
  9
$TILEMODELIGHTSYNCH
280
1
  9
$CMATERIAL
347
20
  9
$SOLIDHIST
280
0
  9
$SHOWHIST
280
1
  9
$DWFFRAME
280
2
  9
$DGNFRAME
280
2
  9
$REALWORLDSCALE
290
1
  9
$INTERFERECOLOR
 62
256
  9
$CSHADOW
280
0
  9
$SHADOWPLANELOCATION
 40
0.0
  0
ENDSEC
  0
SECTION
  2
CLASSES
  0
CLASS
  1
ACDBDICTIONARYWDFLT
  2
AcDbDictionaryWithDefault
  3
ObjectDBX Classes
 90
0
 91
0
280
0
281
0
  0
CLASS
  1
SUN
  2
AcDbSun
  3
SCENEOE
 90
1153
 91
0
280
0
281
0
  0
CLASS
  1
VISUALSTYLE
  2
AcDbVisualStyle
  3
ObjectDBX Classes
 90
4095
 91
0
280
0
281
0
  0
CLASS
  1
MATERIAL
  2
AcDbMaterial
  3
ObjectDBX Classes
 90
1153
 91
0
280
0
281
0
  0
CLASS
  1
SCALE
  2
AcDbScale
  3
ObjectDBX Classes
 90
1153
 91
0
280
0
281
0
  0
CLASS
  1
TABLESTYLE
  2
AcDbTableStyle
  3
ObjectDBX Classes
 90
4095
 91
0
280
0
281
0
  0
CLASS
  1
MLEADERSTYLE
  2
AcDbMLeaderStyle
  3
ACDB_MLEADERSTYLE_CLASS
 90
4095
 91
0
280
0
281
0
  0
CLASS
  1
DICTIONARYVAR
  2
AcDbDictionaryVar
  3
ObjectDBX Classes
 90
0
 91
0
280
0
281
0
  0
CLASS
  1
CELLSTYLEMAP
  2
AcDbCellStyleMap
  3
ObjectDBX Classes
 90
1152
 91
0
280
0
281
0
  0
CLASS
  1
MENTALRAYRENDERSETTINGS
  2
AcDbMentalRayRenderSettings
  3
SCENEOE
 90
1024
 91
0
280
0
281
0
  0
CLASS
  1
ACDBDETAILVIEWSTYLE
  2
AcDbDetailViewStyle
  3
ObjectDBX Classes
 90
1025
 91
0
280
0
281
0
  0
CLASS
  1
ACDBSECTIONVIEWSTYLE
  2
AcDbSectionViewStyle
  3
ObjectDBX Classes
 90
1025
 91
0
280
0
281
0
  0
CLASS
  1
RASTERVARIABLES
  2
AcDbRasterVariables
  3
ISM
 90
0
 91
0
280
0
281
0
  0
CLASS
  1
LAYOUT
  2
AcDbLayout
  3
ObjectDBX Classes
 90
0
 91
0
280
0
281
0
  0
CLASS
  1
ACDBPLACEHOLDER
  2
AcDbPlaceHolder
  3
ObjectDBX Classes
 90
0
 91
0
280
0
281
0
  0
ENDSEC
  0
SECTION
  2
TABLES
  0
TABLE
  2
VPORT
  5
8
330
0
100
AcDbSymbolTable
 70
1
  0
VPORT
  5
23
330
8
100
AcDbSymbolTableRecord
100
AcDbViewportTableRecord
  2
*Active
 70
0
 10
0.0
 20
0.0
 11
1.0
 21
1.0
 12
0.0
 22
0.0
 13
0.0
 23
0.0
 14
0.5
 24
0.5
 15
0.5
 25
0.5
 16
0.0
 26
0.0
 36
1.0
 17
0.0
 27
0.0
 37
0.0
 40
1000.0
 41
1.34
 42
50.0
 43
0.0
 44
0.0
 50
0.0
 51
0.0
 71
0
 72
1000
 73
1
 74
3
 75
0
 76
0
 77
0
 78
0
281
0
 65
0
146
0.0
  0
ENDTAB
  0
TABLE
  2
LTYPE
  5
2
330
0
100
AcDbSymbolTable
 70
3
  0
LTYPE
  5
24
330
2
100
AcDbSymbolTableRecord
100
AcDbLinetypeTableRecord
  2
ByBlock
 70
0
  3

 72
65
 73
0
 40
0.0
  0
LTYPE
  5
25
330
2
100
AcDbSymbolTableRecord
100
AcDbLinetypeTableRecord
  2
ByLayer
 70
0
  3

 72
65
 73
0
 40
0.0
  0
LTYPE
  5
26
330
2
100
AcDbSymbolTableRecord
100
AcDbLinetypeTableRecord
  2
Continuous
 70
0
  3

 72
65
 73
0
 40
0.0
  0
ENDTAB
  0
TABLE
  2
LAYER
  5
1
330
0
100
AcDbSymbolTable
 70
2
  0
LAYER
  5
27
330
1
100
AcDbSymbolTableRecord
100
AcDbLayerTableRecord
  2
0
 70
0
 62
7
  6
Continuous
370
-3
390
13
347
21
  0
LAYER
  5
28
330
1
100
AcDbSymbolTableRecord
100
AcDbLayerTableRecord
  2
Defpoints
 70
0
 62
7
  6
Continuous
290
0
370
-3
390
13
347
21
  0
ENDTAB
  0
TABLE
  2
STYLE
  5
5
330
0
100
AcDbSymbolTable
 70
1
  0
STYLE
  5
29
330
5
100
AcDbSymbolTableRecord
100
AcDbTextStyleTableRecord
  2
Standard
 70
0
 40
0.0
 41
1.0
 50
0.0
 71
0
 42
2.5
  3
txt
  4

  0
ENDTAB
  0
TABLE
  2
VIEW
  5
7
330
0
100
AcDbSymbolTable
 70
0
  0
ENDTAB
  0
TABLE
  2
UCS
  5
6
330
0
100
AcDbSymbolTable
 70
0
  0
ENDTAB
  0
TABLE
  2
APPID
  5
3
330
0
100
AcDbSymbolTable
 70
3
  0
APPID
  5
2A
330
3
100
AcDbSymbolTableRecord
100
AcDbRegAppTableRecord
  2
ACAD
 70
0
  0
APPID
  5
30
330
3
100
AcDbSymbolTableRecord
100
AcDbRegAppTableRecord
  2
HATCHBACKGROUNDCOLOR
 70
0
  0
APPID
  5
31
330
3
100
AcDbSymbolTableRecord
100
AcDbRegAppTableRecord
  2
EZDXF
 70
0
  0
ENDTAB
  0
TABLE
  2
DIMSTYLE
  5
4
330
0
100
AcDbSymbolTable
 70
1
100
AcDbDimStyleTable
  0
DIMSTYLE
105
2B
330
4
100
AcDbSymbolTableRecord
100
AcDbDimStyleTableRecord
  2
Standard
 70
0
 40
1.0
 41
2.5
 42
0.625
 43
3.75
 44
1.25
 45
0.0
 46
0.0
 47
0.0
 48
0.0
 49
2.5
140
2.5
141
2.5
142
0.0
143
0.03937007874
144
1.0
145
0.0
146
1.0
147
0.625
148
0.0
 69
0
 70
0
 71
0
 72
0
 73
0
 74
0
 75
0
 76
0
 77
1
 78
8
 79
3
170
0
171
3
172
1
173
0
174
0
175
0
176
0
177
0
178
0
179
2
271
2
272
2
273
2
274
3
275
0
276
0
277
2
278
44
279
0
280
0
281
0
282
0
283
0
284
8
285
0
286
0
288
0
289
3
290
0
371
-2
372
-2
  0
ENDTAB
  0
TABLE
  2
BLOCK_RECORD
  5
9
330
0
100
AcDbSymbolTable
 70
2
  0
BLOCK_RECORD
  5
17
330
9
100
AcDbSymbolTableRecord
100
AcDbBlockTableRecord
  2
*Model_Space
340
1A
 70
0
280
1
281
0
  0
BLOCK_RECORD
  5
1B
330
9
100
AcDbSymbolTableRecord
100
AcDbBlockTableRecord
  2
*Paper_Space
340
1E
 70
0
280
1
281
0
  0
ENDTAB
  0
ENDSEC
  0
SECTION
  2
BLOCKS
  0
BLOCK
  5
18
330
17
100
AcDbEntity
  8
0
100
AcDbBlockBegin
  2
*Model_Space
 70
0
 10
0.0
 20
0.0
 30
0.0
  3
*Model_Space
  1

  0
ENDBLK
  5
19
330
17
100
AcDbEntity
  8
0
100
AcDbBlockEnd
  0
BLOCK
  5
1C
330
1B
100
AcDbEntity
  8
0
100
AcDbBlockBegin
  2
*Paper_Space
 70
0
 10
0.0
 20
0.0
 30
0.0
  3
*Paper_Space
  1

  0
ENDBLK
  5
1D
330
1B
100
AcDbEntity
  8
0
100
AcDbBlockEnd
  0
ENDSEC
  0
SECTION
  2
ENTITIES
  0
LWPOLYLINE
  5
2F
330
17
100
AcDbEntity
  8
0
100
AcDbPolyline
 90
721
 70
1
 10
91.57030834523522
 20
36.02975667880656
 10
91.56734468016752
 20
36.02967603128287
 10
91.55856048793063
 20
36.02916013740435
 10
91.54416900101988
 20
36.027662052427715
 10
91.52392737787619
 20
36.025400326943284
 10
91.49826811352716
 20
36.02207428806888
 10
91.46700166120056
 20
36.01776578441875
 10
91.43004495700147
 20
36.01228353433248
 10
91.38767066494513
 20
36.005736834017426
 10
91.33979572113671
 20
35.99793440181323
 10
91.2861771239727
 20
35.989095198826625
 10
91.2271942337383
 20
35.97905484363514
 10
91.16271058505549
 20
35.96775903023212
 10
91.09267282978938
 20
35.9553445974325
 10
91.01718766420983
 20
35.941537867606414
 10
90.93614828535067
 20
35.92661279206137
 10
90.84974440002857
 20
35.91048711166669
 10
90.75783954286555
 20
35.893106520415735
 10
90.66038036572667
 20
35.874607857123436
 10
90.55760981686726
 20
35.854772297521855
 10
90.44928478798755
 20
35.833819076395365
 10
90.33551192200933
 20
35.811474652952924
 10
90.21645713332987
 20
35.78812213787059
 10
90.09176469403897
 20
35.76346095328061
 10
89.96184352013736
 20
35.73765524875222
 10
89.8264208942616
 20
35.71059586491691
 10
89.68563301504902
 20
35.68233779197538
 10
89.53947982915145
 20
35.65288116676643
 10
89.38790793508586
 20
35.62236296494383
 10
89.23091717280784
 20
35.59078359702402
 10
89.0686141852391
 20
35.55786952221595
 10
88.90089222276166
 20
35.523894554988296
 10
88.72794077879962
 20
35.48877698356567
 10
88.5495701465363
 20
35.452599067078715
 10
88.3658868088491
 20
35.41508767525283
 10
88.17692042814981
 20
35.37657106540217
 10
87.9826174962591
 20
35.337186486858066
 10
87.78313795088552
 20
35.29652369685342
 10
87.57823857703308
 20
35.25480220385022
 10
87.36824538685195
 20
35.21199446524089
 10
87.15283215479947
 20
35.1681285709883
 10
86.9322714915427
 20
35.12331395413859
 10
86.70642687835559
 20
35.07749644552395
 10
86.4754345672235
 20
35.03073089850626
 10
86.23921138755534
 20
34.982826305102805
 10
85.99789359133652
 20
34.93383751867545
 10
85.75123796357103
 20
34.88398404768623
 10
85.49957046306098
 20
34.83323848636642
 10
85.24275457108024
 20
34.78154666554817
 10
84.98079018093257
 20
34.72890885890911
 10
84.71367702587726
 20
34.67532575064332
 10
84.44149811646109
 20
34.62098875925
 10
84.16417017539663
 20
34.56570715042401
 10
83.8817761598825
 20
34.50967247950339
 10
83.594369151313
 20
34.45274859186727
 10
83.30205579260985
 20
34.39466194672463
 10
83.00486553279235
 20
34.33574134874483
 10
82.70255521021258
 20
34.27620616955111
 10
82.39512455812995
 20
34.21605709333751
 10
82.0828699262828
 20
34.15493832018237
 10
81.76573775314371
 20
34.09298723625587
 10
81.44372793201637
 20
34.03020411523564
 10
81.11668015175529
 20
33.96700015776053
 10
80.78486099299076
 20
33.90269158027234
 10
80.44830001143832
 20
33.83760691376283
 10
80.10694369891871
 20
33.7718834075634
 10
79.76060213522267
 20
33.705603868159955
 10
79.40960122580417
 20
33.63874102662254
 10
79.05385774672386
 20
33.571104011807215
 10
78.69337159128555
 20
33.502693097391614
 10
78.32817220850853
 20
33.43383708804515
 10
77.95847277753997
 20
33.36398917586335
 10
77.584030136732
 20
33.293368732469425
 10
77.2050634419206
 20
33.222222303402106
 10
76.82157253306136
 20
33.150550299177844
 10
76.43352758769802
 20
33.07802487299896
 10
76.04087499095502
 20
33.00478354787446
 10
75.64388735349948
 20
32.9309357568505
 10
75.24232140698726
 20
32.85670114522795
 10
74.83633703577878
 20
32.78166960707845
 10
74.42607043851135
 20
32.70589613260271
 10
74.0115214551406
 20
32.629381132317214
 10
73.59258312265591
 20
32.552398968045864
 10
73.16925528101291
 20
32.4749500503051
 10
72.74159111830217
 20
32.396897950796465
 10
72.30991659332575
 20
32.318215263751185
 10
71.87390532049645
 20
32.23893048964854
 10
71.43369355179973
 20
32.15909848185042
 10
70.98957758362593
 20
32.07836357727397
 10
70.54136738906948
 20
31.996808856082705
 10
70.08903917571104
 20
31.914899688083338
 10
69.63272919553607
 20
31.832690926637763
 10
69.17227105401408
 20
31.74980069261928
 10
68.70809751291328
 20
31.665927628951636
 10
68.23999496630142
 20
31.581619638249848
 10
67.76801660226903
 20
31.496740292215392
 10
67.29210885928859
 20
31.411426977018465
 10
66.81251463226731
 20
31.325461005229933
 10
66.32923381450895
 20
31.23884265052744
 10
65.84212972724295
 20
31.151518154259577
 10
65.35142168634965
 20
31.063733651448647
 10
64.85697311975483
 20
30.97543510976563
 10
64.35902697571382
 20
30.886403704942587
 10
63.857583040834065
 20
30.79663998433477
 10
63.352777620449125
 20
30.706198664465255
 10
62.844420687653574
 20
30.615162825497606
 10
62.33254185151108
 20
30.52386086158475
 10
61.81716442430784
 20
30.43182863446936
 10
61.298644400694684
 20
30.339366037825084
 10
60.776922029062916
 20
30.245817651734196
 10
60.25194369453689
 20
30.15132099920569
 10
59.72382217677148
 20
30.05639548237527
 10
59.19250391423921
 20
29.96117848741313
 10
58.65787586054457
 20
29.865151296377643
 10
58.12059046677303
 20
29.768257729343148
 10
57.5802914715331
 20
29.670198576830042
 10
57.037091547783376
 20
29.571493514651678
 10
56.490800721966494
 20
29.47222548613276
 10
55.941745166277144
 20
29.372366538149304
 10
55.389948299697735
 20
29.271452258766306
 10
54.83543973129195
 20
29.169811042136715
 10
54.27811255139739
 20
29.067717113245656
 10
53.71823339399249
 20
28.96448655169611
 10
53.15585544716777
 20
28.859982929189588
 10
52.59098479430822
 20
28.754999325491653
 10
52.02340163940031
 20
28.649290837129367
 10
51.45332545836875
 20
28.54310318860855
 10
50.88107623332697
 20
28.43561562071728
 10
50.30660045609556
 20
28.326965382786913
 10
49.729791323708426
 20
28.217426426124955
 10
49.15048852502002
 20
28.10740995137025
 10
48.569178490022395
 20
27.996476941598754
 10
47.98580130706236
 20
27.883972387409155
 10
47.40060648791347
 20
27.770469312749736
 10
46.81305398770812
 20
27.656544257553566
 10
46.223493717712174
 20
27.54170403572875
 10
45.6321388037247
 20
27.425401976209628
 10
45.03915564027624
 20
27.308019958122937
 10
44.444217575038905
 20
27.189587166142
 10
43.84754424398186
 20
27.070348914256225
 10
43.24905231646954
 20
26.9501146049993
 10
42.64898495414979
 20
26.828664866748007
 10
42.047478622400604
 20
26.70605400550899
 10
41.44439658910331
 20
26.58222839946968
 10
40.84001194505832
 20
26.45729625012693
 10
40.234051386072665
 20
26.331149903339146
 10
39.62668119998063
 20
26.204171511910666
 10
39.01795478826525
 20
26.076224100187744
 10
38.4081386782087
 20
25.946624021450994
 10
37.79712606684481
 20
25.815645227007895
 10
37.185136750187176
 20
25.683532620331423
 10
36.57184407590792
 20
25.550315386094905
 10
35.95762783107732
 20
25.41582804816534
 10
35.34254131048217
 20
25.279933904566615
 10
34.726637808909274
 20
25.142496253322598
 10
34.109810416696206
 20
25.003789319418424
 10
33.49214246447857
 20
24.86400370032041
 10
32.87363379221195
 20
24.72313980654499
 10
32.25458101637541
 20
24.580841153976387
 10
31.63490080633339
 20
24.436917145148303
 10
31.014783028946916
 20
24.291285110413618
 10
30.394204265233597
 20
24.144409461707337
 10
29.77286773866992
 20
23.996647093661675
 10
29.151153396370567
 20
23.84783211962717
 10
28.529351344644517
 20
23.696816070432998
 10
27.90714133463775
 20
23.54442038948519
 10
27.284743429104488
 20
23.39088929606263
 10
26.662127485499678
 20
23.235895764400503
 10
26.039346905306406
 20
23.079302818845083
 10
25.416514841616515
 20
22.92162890366037
 10
24.793548070490647
 20
22.762683147702404
 10
24.170743155059768
 20
22.602109203694244
 10
23.547963416553348
 20
22.439853312984496
 10
22.92542891772565
 20
22.276159694852055
 10
22.303086203745433
 20
22.111165461789465
 10
21.68109537236568
 20
21.94445996051314
 10
21.05940296875516
 20
21.776180303515623
 10
20.4380923768976
 20
21.606516951424425
 10
19.81686687361766
 20
21.435826662032948
 10
19.196319905266026
 20
21.263395919754377
 10
18.5764514718427
 20
21.089224724588718
 10
17.957208278560874
 20
20.91344977851209
 10
17.338536870589337
 20
20.736208194017046
 10
16.720627434877954
 20
20.55741648042359
 10
16.103289891173134
 20
20.377157854734097
 10
15.486850998499014
 20
20.195402858597586
 10
14.871417506473579
 20
20.01187767754538
 10
14.256936066961918
 20
19.826719150392417
 10
13.643353385177202
 20
19.6400639791148
 10
13.030722809254387
 20
19.45177532489761
 10
12.419424606396932
 20
19.26168648005849
 10
11.809215294868167
 20
19.070017637253546
 10
11.20012501721316
 20
18.877095822247586
 10
10.592283781987913
 20
18.682183219153377
 10
9.985858410508024
 20
18.485660612387118
 10
9.380689018413067
 20
18.287938107877142
 10
8.776798811292958
 20
18.088551841043724
 10
8.174568163047411
 20
17.887334830526893
 10
7.573890430754691
 20
17.684560617117683
 10
6.974735525217873
 20
17.47990203821248
 10
6.377270427796943
 20
17.273739467711028
 10
5.7814651026431365
 20
17.0657456061709
 10
5.187539825903208
 20
16.85616412551571
 10
4.59506108893504
 20
16.64529829856512
 10
4.004409265638364
 20
16.432981143959147
 10
3.415797748552938
 20
16.21866530643807
 10
2.829173349588233
 20
16.002487214300373
 10
2.2445128098062184
 20
15.784910868964605
 10
1.6618696907343817
 20
15.565798884260571
 10
1.0812973938557853
 20
15.34501428453453
 10
0.5029328113335058
 20
15.122610281082608
 10
-0.07346753856913707
 20
14.898807066560906
 10
-0.6478732999145633
 20
14.673931119378967
 10
-1.2199342413480663
 20
14.447488432412008
 10
-1.789543559903498
 20
14.219205054352551
 10
-2.356807791806353
 20
13.989354252313994
 10
-2.921638538348194
 20
13.758113624075248
 10
-3.484163995946132
 20
13.525407653613348
 10
-4.044300513875731
 20
13.29142611736172
 10
-4.601964601457035
 20
13.056359202270228
 10
-5.157079704965194
 20
12.819606204944222
 10
-5.709508985585278
 20
12.581220473518643
 10
-6.259382345177071
 20
12.341939550203072
 10
-6.806729926285612
 20
12.101436409232711
 10
-7.351224703146111
 20
11.859680908062515
 10
-7.893140353388415
 20
11.6165663504226
 10
-8.432203199382668
 20
11.372199432582851
 10
-8.96838309858383
 20
11.126907180308065
 10
-9.502007076756696
 20
10.880719736143286
 10
-10.03267155441163
 20
10.633006254148814
 10
-10.560422942728422
 20
10.384694463484099
 10
-11.08550477679187
 20
10.136004693644068
 10
-11.607733806607277
 20
9.886062563604199
 10
-12.126699515729841
 20
9.63502811776932
 10
-12.642698787379329
 20
9.383258524449264
 10
-13.155784969690673
 20
9.13089062245897
 10
-13.665851366393976
 20
8.877650734168586
 10
-14.17267764799434
 20
8.623782394662912
 10
-14.676537492121623
 20
8.36917890767207
 10
-15.177317265550778
 20
8.114357485910729
 10
-15.67491027201193
 20
7.859044451749031
 10
-16.169263163370136
 20
7.603102966372046
 10
-16.660429287760337
 20
7.346669868594704
 10
-17.148378502637488
 20
7.090072184181802
 10
-17.633247646816507
 20
6.833256564998405
 10
-18.11465634639767
 20
6.576056029684529
 10
-18.592604601380966
 20
6.318470578240177
 10
-19.067175902446387
 20
6.060310023715477
 10
-19.538286758913955
 20
5.801764553060299
 10
-20.006097215188465
 20
5.543244682719437
 10
-20.470523780589946
 20
5.284940599642754
 10
-20.931353062578644
 20
5.026304948570534
 10
-21.388721899969468
 20
4.767284381367838
 10
-21.842166428182708
 20
4.5079021036245575
 10
-22.29212036925303
 20
4.248461935515598
 10
-22.738637071315384
 20
3.9891007158558898
 10
-23.181442856739903
 20
3.7299251409153196
 10
-23.62048437739165
 20
3.4707983718789497
 10
-24.055738427680733
 20
3.2112565441670538
 10
-24.487281561331987
 20
2.9519003611742924
 10
-24.915273822750237
 20
2.6931403393454483
 10
-25.339311632445842
 20
2.434345632740823
 10
-25.759531829233733
 20
2.175462893225471
 10
-26.17576743175393
 20
1.9168724946991307
 10
-26.588155278821375
 20
1.6585210890268645
 10
-26.996748718571
 20
1.4005455150235986
 10
-27.401250867783045
 20
1.1425886043794928
 10
-27.80176842272741
 20
0.8849240347243935
 10
-28.19830138340408
 20
0.627551806058313
 10
-28.591063142352816
 20
0.3710192736409635
 10
-28.979726673808837
 20
0.11529629492729396
 10
-29.364405610997157
 20
-0.14013434279735854
 10
-29.74485641883298
 20
-0.39549296902791725
 10
-30.12115565104114
 20
-0.6501788803697219
 10
-30.493546842706436
 20
-0.9039717473278562
 10
-30.861679762474186
 20
-1.1573655770270954
 10
-31.225524267799337
 20
-1.4100333437026413
 10
-31.585407384446686
 20
-1.6619449048094446
 10
-31.941055434786378
 20
-1.9129935640776219
 10
-32.292308374413594
 20
-2.16358983795197
 10
-32.63932624773316
 20
-2.41332320998769
 10
-32.98216240287999
 20
-2.6620568413698598
 10
-33.320763491719184
 20
-2.9099275709134056
 10
-33.65499267543578
 20
-3.1568820504833877
 10
-33.98479660589484
 20
-3.4030571188947354
 10
-34.310365470046264
 20
-3.648369285467461
 10
-34.63142559026015
 20
-3.892711853931682
 10
-34.94808366280641
 20
-4.13581114665754
 10
-35.26050666904502
 20
-4.3780475375447745
 10
-35.56828409253117
 20
-4.619260982188565
 10
-35.87149942394488
 20
-4.8596416675387815
 10
-36.17036605582588
 20
-5.0986422383357075
 10
-36.464883988174186
 20
-5.336262694579336
 10
-36.754809685905
 20
-5.572723365764594
 10
-37.04008980088336
 20
-5.808161090706408
 10
-37.32080782378925
 20
-6.042766056354646
 10
-37.59695681766755
 20
-6.2757473723647825
 10
-37.86862027319821
 20
-6.507295225686684
 10
-38.13569149411137
 20
-6.737683293950214
 10
-38.39803364159209
 20
-6.966858229020429
 10
-38.65575341191025
 20
-7.1945463532674685
 10
-38.908744108795986
 20
-7.421021344321198
 10
-39.15705908038423
 20
-7.646146363366681
 10
-39.40075167480991
 20
-7.869784571588992
 10
-39.639578356988224
 20
-8.092156298483047
 10
-39.87369917132399
 20
-8.31285102760406
 10
-40.103037564092396
 20
-8.532469462346688
 10
-40.32767008901826
 20
-8.750410899316273
 10
-40.54754339796663
 20
-8.966812177327748
 10
-40.76260414280258
 20
-9.181810135196034
 10
-40.97271548471118
 20
-9.395351424786197
 10
-41.17806761064229
 20
-9.607352555418245
 10
-41.378683726185805
 20
-9.817349662512452
 10
-41.574457135071846
 20
-10.025616423698676
 10
-41.76538783730042
 20
-10.232152838976917
 10
-41.9516660198214
 20
-10.436875417667187
 10
-42.132964656869966
 20
-10.639814302314528
 10
-42.30952728353094
 20
-10.840749163424032
 10
-42.481323757259275
 20
-11.03935297523089
 10
-42.648490916869896
 20
-11.235679085870046
 10
-42.810785227278
 20
-11.429947824836423
 10
-42.96839687543345
 20
-11.622075701450026
 10
-43.12105218370638
 20
-11.811956019440974
 10
-43.269131525996556
 20
-11.999421797449294
 10
-43.41241457280903
 20
-12.184229500390174
 10
-43.550931466688866
 20
-12.366706154028412
 10
-43.684682207636065
 20
-12.546851758364008
 10
-43.81366679565061
 20
-12.724666313396959
 10
-43.93785508818748
 20
-12.89982279336247
 10
-44.05724708524666
 20
-13.072321198260543
 10
-44.171819581238246
 20
-13.242625392670899
 10
-44.281595781752166
 20
-13.410271512013818
 10
-44.386362294248606
 20
-13.57580691154901
 10
-44.48633251126736
 20
-13.738684236016761
 10
-44.58129304026868
 20
-13.899450840676792
 10
-44.671350577522425
 20
-14.057833047899239
 10
-44.756505123028596
 20
-14.213830857684105
 10
-44.836566489837324
 20
-14.367527760711376
 10
-44.91191505184836
 20
-14.518756775621076
 10
-44.98198024821208
 20
-14.667768374453173
 10
-45.04727929164316
 20
-14.814448923982631
 10
-45.1074851563768
 20
-14.95882856675449
 10
-45.162757886817815
 20
-15.100496786323971
 10
-45.21312762551126
 20
-15.23978060845587
 10
-45.258510881777156
 20
-15.376489846200315
 10
-45.29912104815524
 20
-15.510077144297592
 10
-45.33493491905564
 20
-15.641006367327424
 10
-45.36592235193331
 20
-15.768950489525022
 10
-45.39219004305811
 20
-15.893635833260516
 10
-45.41395138496982
 20
-16.014515043274194
 10
-45.43120637766843
 20
-16.13158811956605
 10
-45.44419855623876
 20
-16.244634732641174
 10
-45.45292098372564
 20
-16.352863992155033
 10
-45.457723891483774
 20
-16.45578189098285
 10
-45.45927759967748
 20
-16.552073389110266
 10
-45.457681867621496
 20
-16.640673918562904
 10
-45.4539271042898
 20
-16.719447406436824
 10
-45.44900371865635
 20
-16.786257779828098
 10
-45.44391838832986
 20
-16.837714210908533
 10
-45.44014165549879
 20
-16.870449077439837
 10
-45.101793662578544
 20
-17.745999558218156
 10
-45.09647297021292
 20
-17.75196472321569
 10
-45.080564241251004
 20
-17.769723379393373
 10
-45.05428086823256
 20
-17.798728171491483
 10
-45.016579094048645
 20
-17.841252011228885
 10
-44.966612285495394
 20
-17.900275209988973
 10
-44.907017706774774
 20
-17.968628801260476
 10
-44.83931231125501
 20
-18.04201743364564
 10
-44.764463302320166
 20
-18.11876889882026
 10
-44.68345415198908
 20
-18.19595623353588
 10
-44.59662815466128
 20
-18.272294540323188
 10
-44.50452572864133
 20
-18.34720632137742
 10
-44.40722342765405
 20
-18.42009087330392
 10
-44.304934644239225
 20
-18.490400840842966
 10
-44.19776607466672
 20
-18.5578625463647
 10
-44.08571771893652
 20
-18.622475989869123
 10
-43.96897976399853
 20
-18.684157680676247
 10
-43.84752206730767
 20
-18.742580593021273
 10
-43.72129128072901
 20
-18.797881565719127
 10
-43.590477591212434
 20
-18.849977108089817
 10
-43.45483746367311
 20
-18.89908754962828
 10
-43.31442424624599
 20
-18.94507605151956
 10
-43.16961831283081
 20
-18.987775632403697
 10
-43.019849102577965
 20
-19.02743676432065
 10
-42.86558048006718
 20
-19.064082652860318
 10
-42.706485419533664
 20
-19.097743440567744
 10
-42.542754107927266
 20
-19.12833563676294
 10
-42.374439893382934
 20
-19.155722402630975
 10
-42.201382731495876
 20
-19.18031425461664
 10
-42.02368931853594
 20
-19.201837515090077
 10
-41.84114626196337
 20
-19.220839539311
 10
-41.65391360618299
 20
-19.23690981083463
 10
-41.46202149373985
 20
-19.25037535542575
 10
-41.26533308581902
 20
-19.26118282494943
 10
-41.06374168615063
 20
-19.269605897035536
 10
-40.85743748168452
 20
-19.27556108100406
 10
-40.64636712428578
 20
-19.279185215669944
 10
-40.43053061395441
 20
-19.280478301033188
 10
-40.20963106747063
 20
-19.27979750540364
 10
-39.983995510599264
 20
-19.27711268623625
 10
-39.75340361384539
 20
-19.27218030844621
 10
-39.51812905483886
 20
-19.26510706830339
 10
-39.27792829849488
 20
-19.256113295302725
 10
-39.03293818362835
 20
-19.245252337579142
 10
-38.78307521955931
 20
-19.232334008182775
 10
-38.528582941372555
 20
-19.21713797761871
 10
-38.269271162118216
 20
-19.199747736566927
 10
-38.00536021129122
 20
-19.180406820112246
 10
-37.736713250076626
 20
-19.159061880119726
 10
-37.463330278474444
 20
-19.13571291658936
 10
-37.18537134088949
 20
-19.10994941307636
 10
-36.90297327613669
 20
-19.081824717715676
 10
-36.61599924540113
 20
-19.051285482372357
 10
-36.32447939122783
 20
-19.018658732811204
 10
-36.02841371361682
 20
-18.983944469032224
 10
-35.72801560510785
 20
-18.946595335775694
 10
-35.42331520824596
 20
-18.906938358806414
 10
-35.11422903235118
 20
-18.864783351174513
 10
-34.80070372928856
 20
-18.820267151694917
 10
-34.48287613787301
 20
-18.77344310850258
 10
-34.16079960623949
 20
-18.724174382782554
 10
-33.83442078625308
 20
-18.672597813349785
 10
-33.50373967791374
 20
-18.618713400204264
 10
-33.16880962935644
 20
-18.562384304531058
 10
-32.82971413126114
 20
-18.50380071328005
 10
-32.48645318362786
 20
-18.442962626451223
 10
-32.13894329577662
 20
-18.379679857094725
 10
-31.787351449067387
 20
-18.314332779110284
 10
-31.43159415282016
 20
-18.246731205548027
 10
-31.071618058900018
 20
-18.177011975222904
 10
-30.707613354256825
 20
-18.105091597454898
 10
-30.339740083295393
 20
-18.03055955579924
 10
-29.967838201610917
 20
-17.95382636670071
 10
-29.591664174118563
 20
-17.875112359654228
 10
-29.211681865398084
 20
-17.794440740249694
 10
-28.827724294089496
 20
-17.711431134587357
 10
-28.43984480832773
 20
-17.62594670385229
 10
-28.048210389472775
 20
-17.538367821944234
 10
-27.65263085057475
 20
-17.448777979543177
 10
-27.25321288790354
 20
-17.356903499019268
 10
-26.850093340274082
 20
-17.262797728507437
 10
-26.44332555582131
 20
-17.166323829192756
 10
-26.032749490140397
 20
-17.067892317520016
 10
-25.61847183950124
 20
-16.967229515859362
 10
-25.200385907633947
 20
-16.864609101840646
 10
-24.77892541657319
 20
-16.75972725528896
 10
-24.35376334055419
 20
-16.652614118749362
 10
-23.92503651839186
 20
-16.543323040356782
 10
-23.4928284407662
 20
-16.432044207061097
 10
-23.05710896513215
 20
-16.3184505930975
 10
-22.617908234034772
 20
-16.2028692242308
 10
-22.175416434423916
 20
-16.085216609780996
 10
-21.72946658493963
 20
-15.965112375848364
 10
-21.28033236321176
 20
-15.842663218702771
 10
-20.827853724835474
 20
-15.71827965478901
 10
-20.37203066981079
 20
-15.591961684107083
 10
-19.912863198137696
 20
-15.463709306656988
 10
-19.450648193035946
 20
-15.333165354128877
 10
-18.98549235077543
 20
-15.20005614889289
 10
-18.51704544000144
 20
-15.064875698073807
 10
-18.04558113834385
 20
-14.92773069794151
 10
-17.571069303257598
 20
-14.788294122731193
 10
-17.09375346982751
 20
-14.646345642947942
 10
-16.61347359364875
 20
-14.502295775036547
 10
-16.130259817266378
 20
-14.356471544761805
 10
-15.64408199813534
 20
-14.20854592635892
 10
-15.155100180660448
 20
-14.058108403383095
 10
-14.663481346201696
 20
-13.90553934973408
 10
-14.169172146624135
 20
-13.750975604226795
 10
-13.671898904297912
 20
-13.594310470591369
 10
-13.172125483802748
 20
-13.435567154417685
 10
-12.669821742593603
 20
-13.27441862994095
 10
-12.164987680670473
 20
-13.11086489716116
 10
-11.657706788713336
 20
-12.945096143028186
 10
-11.14771232604751
 20
-12.777796561616675
 10
-10.635301175892735
 20
-12.608608984616785
 10
-10.120549891973841
 20
-12.436932708633845
 10
-9.603405126155899
 20
-12.2629045724828
 10
-9.08414055606875
 20
-12.086631272433513
 10
-8.562405950357718
 20
-11.908606815610776
 10
-8.038444844107604
 20
-11.728610872519665
 10
-7.512257237318415
 20
-11.54664344316018
 10
-6.983949826260029
 20
-11.362430849902461
 10
-6.453469262797499
 20
-11.176109931561442
 10
-5.9209825282908195
 20
-10.98806106203686
 10
-5.386322641380005
 20
-10.797903867428973
 10
-4.849869975964779
 20
-10.605471366377804
 10
-4.3115711839102175
 20
-10.410900397698283
 10
-3.7713729170813854
 20
-10.214327800205341
 10
-3.22919168479828
 20
-10.015563386949106
 10
-2.685544699775584
 20
-9.814493524704542
 10
-2.1403484713332888
 20
-9.610928026521778
 10
-1.5931460718468415
 20
-9.405634577155451
 10
-1.0442645270810296
 20
-9.19858303406051
 10
-0.49416076466043024
 20
-8.98900571248232
 10
0.05759893744962907
 20
-8.777206432595793
 10
0.6109310885691728
 20
-8.563375381350793
 10
1.1654553147984619
 20
-8.34734557738734
 10
1.7213919456324016
 20
-8.128873485620634
 10
2.2784673034411456
 20
-7.908065802320544
 10
2.8370316195793714
 20
-7.685416534611856
 10
3.3968413589622832
 20
-7.460705352999647
 10
3.957492942100249
 20
-7.23330141154421
 10
4.5192832522129995
 20
-7.003561878555398
 10
5.082288843025399
 20
-6.772087457427857
 10
5.646212991362065
 20
-6.538521390368202
 10
6.211147830300883
 20
-6.3026956583145655
 10
6.777068125325188
 20
-6.064949876202731
 10
7.343760643939642
 20
-5.824737099289417
 10
7.911225492840516
 20
-5.5820576012522585
 10
8.479539225752628
 20
-5.337512085485915
 10
9.048618565388535
 20
-5.091291286295513
 10
9.61854705577637
 20
-4.843205153569996
 10
10.1890278670445
 20
-4.592896655838338
 10
10.760167748810957
 20
-4.340639607569203
 10
11.331966914468275
 20
-4.08643455611786
 10
11.904288471853388
 20
-3.8303347127804273
 10
12.476972536605878
 20
-3.5719299716285664
 10
13.050125804995627
 20
-3.311494010292133
 10
13.623687991932545
 20
-3.0496808803007256
 10
14.197879640304071
 20
-2.7862475939247995
 10
14.772266974727415
 20
-2.520890194150624
 10
15.347040288848707
 20
-2.2536924453358207
 10
15.921925905038076
 20
-1.984761043750274
 10
16.497114063593536
 20
-1.7141796169127856
 10
17.072551469728282
 20
-1.4418114628472418
 10
17.64801779394741
 20
-1.167900116638446
 10
18.22375657133571
 20
-0.8926659077813244
 10
18.799714613802653
 20
-0.6159724079773894
 10
19.375564735539015
 20
-0.33778906416515564
 10
19.951497230190974
 20
-0.058199640702228876
 10
20.52748195521346
 20
0.22246883664658695
 10
21.10344241022977
 20
0.5048169344371286
 10
21.679211507183673
 20
0.7884645524472973
 10
22.254895942345033
 20
1.0731380130472226
 10
22.83044242092706
 20
1.3589740182130299
 10
23.40574424665985
 20
1.6462462455745674
 10
23.980908169161452
 20
1.9346808806631721
 10
24.555766940331196
 20
2.2238982337731747
 10
25.130350809410388
 20
2.514225056991738
 10
25.70468298198893
 20
2.805197485739142
 10
26.27860330696574
 20
3.097226310137799
 10
26.852058489554
 20
3.3904482321638287
 10
27.4251552260236
 20
3.6845895741873678
 10
27.997779563060682
 20
3.97913394452664
 10
28.570068499524595
 20
4.274134280800141
 10
29.1417250454993
 20
4.569948024995343
 10
29.71280244242349
 20
4.866438611974955
 10
30.283300743645274
 20
5.163605904900153
 10
30.85327319060335
 20
5.461313338633647
 10
31.422392490792227
 20
5.759591739914557
 10
31.990848991206175
 20
6.058357207546443
 10
32.558558881076394
 20
6.357420375612326
 10
33.12576596222839
 20
6.656560230423221
 10
33.691982684359324
 20
6.956218662518295
 10
34.25726244895225
 20
7.2562586962438
 10
34.8220088354968
 20
7.556049485660033
 10
35.385627810812835
 20
7.856306051580766
 10
35.94806586672098
 20
8.15716564333737
 10
36.50978009089022
 20
8.457860165658763
 10
37.07060307517548
 20
8.75801033935573
 10
37.63035167627835
 20
9.058490271775154
 10
38.18894219012626
 20
9.359110323322422
 10
38.74623745781552
 20
9.659817966895494
 10
39.3024811744753
 20
9.960392462482995
 10
39.85758958268494
 20
10.260644307329128
 10
40.411615870535016
 20
10.560437073135429
 10
40.964316342896275
 20
10.859991499913237
 10
41.515584090106316
 20
11.159581812647684
 10
42.06557910322181
 20
11.458797631732793
 10
42.61430132889463
 20
11.75763909400738
 10
43.16152985080038
 20
12.055864169613598
 10
43.70753872000585
 20
12.353578596949623
 10
44.25189368099502
 20
12.65108756457851
 10
44.794647975206544
 20
12.948254507362961
 10
45.3360681299226
 20
13.244395778583588
 10
45.8761008503564
 20
13.539648080216516
 10
46.41436506908242
 20
13.834180172526302
 10
46.951188185302414
 20
14.127960955096198
 10
47.486242586422094
 20
14.421022075698218
 10
48.01966521795266
 20
14.713416608789675
 10
48.551425563912126
 20
15.004818486477468
 10
49.08138641204862
 20
15.295175318498366
 10
49.60979145749134
 20
15.584266364841001
 10
50.13620628467986
 20
15.872397224584875
 10
50.66090494468101
 20
16.15967363612818
 10
51.18355982490046
 20
16.44612724724291
 10
51.7044907474072
 20
16.730937709233558
 10
52.2235605532975
 20
17.014052494998097
 10
52.74072320482852
 20
17.296398375824264
 10
53.25551387715407
 20
17.577954609220836
 10
53.768633406420534
 20
17.857732223066566
 10
54.279754126685425
 20
18.135763001972258
 10
54.78866237866838
 20
18.41259498539173
 10
55.295358055673056
 20
18.688228447002597
 10
55.79989434579005
 20
18.962526958506384
 10
56.30253788299775
 20
19.23480659950605
 10
56.80290743982629
 20
19.505236540782654
 10
57.30111718298203
 20
19.774332626662677
 10
57.79689258126497
 20
20.04199035029729
 10
58.290340170900585
 20
20.307936444573084
 10
58.781566541462475
 20
20.571897505537834
 10
59.27046478328822
 20
20.83414775817664
 10
59.756897524081545
 20
21.094635222742724
 10
60.24110851231983
 20
21.353139022385918
 10
60.72282321680301
 20
21.609554650257355
 10
61.202018645333744
 20
21.86434542358152
 10
61.67842016001577
 20
22.1174071091872
 10
62.152545880482
 20
22.368623747589496
 10
62.623953547298605
 20
22.617512373783242
 10
63.09291742492491
 20
22.864178178811358
 10
63.55938395183343
 20
23.108758548844026
 10
64.02297190055424
 20
23.351422654662258
 10
64.48373435248168
 20
23.59203434164522
 10
64.9419988668618
 20
23.83056209885969
 10
65.39740710172586
 20
24.06671205353987
 10
65.8502026988549
 20
24.300263602513187
 10
66.30008824154787
 20
24.53157528247766
 10
66.74714738052907
 20
24.76083686986669
 10
67.19129609163726
 20
24.987859546118568
 10
67.63253416147985
 20
25.21264385858857
 10
68.07088420881726
 20
25.434727447923915
 10
68.50632329480028
 20
25.654573494510252
 10
68.93863007631938
 20
25.871941063200257
 10
69.36783485596408
 20
26.0871567692423
 10
69.7940975714429
 20
26.29981036986921
 10
70.21733409189824
 20
26.509713320196894
 10
70.6373841595327
 20
26.7172766840254
 10
71.05424761430194
 20
26.922500871871193
 10
71.46792424281338
 20
27.125386431089503
 10
71.87824610344062
 20
27.32555545087927
 10
72.2855941569129
 20
27.522839444653563
 10
72.68956423691107
 20
27.717870763579047
 10
73.09007226592566
 20
27.910460725932797
 10
73.48725524281606
 20
28.10066226933335
 10
73.88108243820768
 20
28.288149873242833
 10
74.27136307832117
 20
28.47300853356821
 10
74.65831813282908
 20
28.65548014332851
 10
75.0418329015437
 20
28.83505022658538
 10
75.42180052815071
 20
29.011992871485102
 10
75.79827420074064
 20
29.1861716497292
 10
76.17109360816802
 20
29.35799776195655
 10
76.54036528665831
 20
29.527197941053714
 10
76.90595175721897
 20
29.693720480951537
 10
77.26790620794053
 20
29.857428953351548
 10
77.62631239624363
 20
30.018512861009533
 10
77.98084222940084
 20
30.177005083246836
 10
78.33149544067143
 20
30.33290630425754
 10
78.67846253709408
 20
30.486132212328762
 10
79.02179692015189
 20
30.63654583180676
 10
79.36106492115829
 20
30.78445084602761
 10
79.6963987909886
 20
30.929912371264354
 10
80.02796374881676
 20
31.072506617707155
 10
80.35556704698243
 20
31.21232364429913
 10
80.67910188251943
 20
31.34963740234774
 10
80.99881205725325
 20
31.484226878163998
 10
81.3144761213781
 20
31.615851410278214
 10
81.62612448417983
 20
31.744837340261128
 10
81.93370363747896
 20
31.871321917444092
 10
82.23707615563113
 20
31.995253298919142
 10
82.53634857486179
 20
32.116358217572845
 10
82.83146728029536
 20
32.23477419641423
 10
83.12232546896571
 20
32.350775186750774
 10
83.40897627561517
 20
32.46422489712281
 10
83.69138902421743
 20
32.57479767015369
 10
83.9695634480317
 20
32.68249419003748
 10
84.24342336677017
 20
32.787914202297124
 10
84.51288459622708
 20
32.890869298887374
 10
84.77794708305433
 20
32.99135961664703
 10
85.03866390864613
 20
33.08924900095524
 10
85.29489770070624
 20
33.18448547206522
 10
85.54678551144211
 20
33.27712183075663
 10
85.79408332563571
 20
33.36737963807374
 10
86.03689757281626
 20
33.45498590058076
 10
86.27512145001761
 20
33.540214569585174
 10
86.5089988124134
 20
33.622844494559196
 10
86.73814821914111
 20
33.70304539363908
 10
86.9626534809696
 20
33.78100663274181
 10
87.18243052038945
 20
33.85653953014449
 10
87.39766984443924
 20
33.929559774134226
 10
87.60812690441963
 20
34.000290294143426
 10
87.81404528876358
 20
34.068510623838364
 10
88.01499356940623
 20
34.134518699324914
 10
88.21129535783169
 20
34.198293135742155
 10
88.40267750989146
 20
34.259725868432064
 10
88.58927718448933
 20
34.31886942449672
 10
88.771094274929
 20
34.37572407761372
 10
88.9480752730311
 20
34.43042707711445
 10
89.12013620798248
 20
34.48278946759838
 10
89.28717017012065
 20
34.53308547405062
 10
89.44936782652876
 20
34.581230374241855
 10
89.60653829673115
 20
34.62730943775666
 10
89.75873487551462
 20
34.67118596261892
 10
89.90590416139611
 20
34.71299692448239
 10
90.0480993424662
 20
34.75260589504859
 10
90.18526701724174
 20
34.79014984997124
 10
90.31730043610473
 20
34.82590260371902
 10
90.4441688163325
 20
34.859538772592934
 10
90.56609344768644
 20
34.89129942857909
 10
90.68260886514275
 20
34.92116547125207
 10
90.79418037368079
 20
34.94915641155376
 10
90.900533228708
 20
34.97516828999056
 10
91.00156068060637
 20
34.99947492103116
 10
91.09745334311087
 20
35.02199171928504
 10
91.18807379057706
 20
35.04266684184424
 10
91.27331532673509
 20
35.06177396633861
 10
91.35342186010666
 20
35.07909180540151
 10
91.42814937547381
 20
35.09484192007722
 10
91.49755111427515
 20
35.10888774522843
 10
91.56152038024086
 20
35.121502958484996
 10
91.62011052150584
 20
35.132550721032
 10
91.67340540218703
 20
35.14222026194759
 10
91.72113033103999
 20
35.150407484899375
 10
91.76336933222612
 20
35.157301208449084
 10
91.80025967134534
 20
35.162953686021126
 10
91.83152665715332
 20
35.16726082128311
 10
91.85720085898012
 20
35.170548545289336
 10
91.87747310395326
 20
35.172731725294
 10
91.89196179116588
 20
35.173980489949834
 10
91.90075110482373
 20
35.17448324730211
 10
91.90373418861253
 20
35.174514085497165
  0
ENDSEC
  0
SECTION
  2
OBJECTS
  0
DICTIONARY
  5
A
330
0
100
AcDbDictionary
280
0
281
1
  3
ACAD_COLOR
350
B
  3
ACAD_GROUP
350
C
  3
ACAD_LAYOUT
350
D
  3
ACAD_MATERIAL
350
E
  3
ACAD_MLEADERSTYLE
350
F
  3
ACAD_MLINESTYLE
350
10
  3
ACAD_PLOTSETTINGS
350
11
  3
ACAD_PLOTSTYLENAME
350
12
  3
ACAD_SCALELIST
350
14
  3
ACAD_TABLESTYLE
350
15
  3
ACAD_VISUALSTYLE
350
16
  3
EZDXF_META
350
2D
  0
DICTIONARY
  5
B
330
A
100
AcDbDictionary
280
0
281
1
  0
DICTIONARY
  5
C
330
A
100
AcDbDictionary
280
0
281
1
  0
DICTIONARY
  5
D
330
A
100
AcDbDictionary
280
0
281
1
  3
Model
350
1A
  3
Layout1
350
1E
  0
DICTIONARY
  5
E
330
A
100
AcDbDictionary
280
0
281
1
  3
ByBlock
350
1F
  3
ByLayer
350
20
  3
Global
350
21
  0
DICTIONARY
  5
F
330
A
100
AcDbDictionary
280
0
281
1
  3
Standard
350
2C
  0
DICTIONARY
  5
10
330
A
100
AcDbDictionary
280
0
281
1
  3
Standard
350
22
  0
DICTIONARY
  5
11
330
A
100
AcDbDictionary
280
0
281
1
  0
ACDBDICTIONARYWDFLT
  5
12
330
A
100
AcDbDictionary
280
0
281
1
  3
Normal
350
13
100
AcDbDictionaryWithDefault
340
13
  0
ACDBPLACEHOLDER
  5
13
330
12
  0
DICTIONARY
  5
14
330
A
100
AcDbDictionary
280
0
281
1
  0
DICTIONARY
  5
15
330
A
100
AcDbDictionary
280
0
281
1
  0
DICTIONARY
  5
16
330
A
100
AcDbDictionary
280
0
281
1
  0
LAYOUT
  5
1A
330
D
100
AcDbPlotSettings
  1

  4
A3
  6

 40
7.5
 41
20.0
 42
7.5
 43
20.0
 44
420.0
 45
297.0
 46
0.0
 47
0.0
 48
0.0
 49
0.0
140
0.0
141
0.0
142
1.0
143
1.0
 70
1024
 72
1
 73
0
 74
5
  7

 75
16
 76
0
 77
2
 78
300
147
1.0
148
0.0
149
0.0
100
AcDbLayout
  1
Model
 70
1
 71
0
 10
0.0
 20
0.0
 11
420.0
 21
297.0
 12
0.0
 22
0.0
 32
0.0
 14
1e+20
 24
1e+20
 34
1e+20
 15
-1e+20
 25
-1e+20
 35
-1e+20
146
0.0
 13
0.0
 23
0.0
 33
0.0
 16
1.0
 26
0.0
 36
0.0
 17
0.0
 27
1.0
 37
0.0
 76
1
330
17
  0
LAYOUT
  5
1E
330
D
100
AcDbPlotSettings
  1

  4
A3
  6

 40
7.5
 41
20.0
 42
7.5
 43
20.0
 44
420.0
 45
297.0
 46
0.0
 47
0.0
 48
0.0
 49
0.0
140
0.0
141
0.0
142
1.0
143
1.0
 70
0
 72
1
 73
0
 74
5
  7

 75
16
 76
0
 77
2
 78
300
147
1.0
148
0.0
149
0.0
100
AcDbLayout
  1
Layout1
 70
1
 71
1
 10
0.0
 20
0.0
 11
420.0
 21
297.0
 12
0.0
 22
0.0
 32
0.0
 14
1e+20
 24
1e+20
 34
1e+20
 15
-1e+20
 25
-1e+20
 35
-1e+20
146
0.0
 13
0.0
 23
0.0
 33
0.0
 16
1.0
 26
0.0
 36
0.0
 17
0.0
 27
1.0
 37
0.0
 76
1
330
1B
  0
MATERIAL
  5
1F
102
{ACAD_REACTORS
330
E
102
}
330
E
100
AcDbMaterial
  1
ByBlock
  2

 70
0
 40
1.0
 71
1
 41
1.0
 91
-1023410177
 42
1.0
 72
1
  3

 73
1
 74
1
 75
1
 44
0.5
 73
0
 45
1.0
 46
1.0
 77
1
  4

 78
1
 79
1
170
1
 48
1.0
171
1
  6

172
1
173
1
174
1
140
1.0
141
1.0
175
1
  7

176
1
177
1
178
1
143
1.0
179
1
  8

270
1
271
1
272
1
145
1.0
146
1.0
273
1
  9

274
1
275
1
276
1
 42
1.0
 72
1
  3

 73
1
 74
1
 75
1
 94
63
  0
MATERIAL
  5
20
102
{ACAD_REACTORS
330
E
102
}
330
E
100
AcDbMaterial
  1
ByLayer
  2

 70
0
 40
1.0
 71
1
 41
1.0
 91
-1023410177
 42
1.0
 72
1
  3

 73
1
 74
1
 75
1
 44
0.5
 73
0
 45
1.0
 46
1.0
 77
1
  4

 78
1
 79
1
170
1
 48
1.0
171
1
  6

172
1
173
1
174
1
140
1.0
141
1.0
175
1
  7

176
1
177
1
178
1
143
1.0
179
1
  8

270
1
271
1
272
1
145
1.0
146
1.0
273
1
  9

274
1
275
1
276
1
 42
1.0
 72
1
  3

 73
1
 74
1
 75
1
 94
63
  0
MATERIAL
  5
21
102
{ACAD_REACTORS
330
E
102
}
330
E
100
AcDbMaterial
  1
Global
  2

 70
0
 40
1.0
 71
1
 41
1.0
 91
-1023410177
 42
1.0
 72
1
  3

 73
1
 74
1
 75
1
 44
0.5
 73
0
 45
1.0
 46
1.0
 77
1
  4

 78
1
 79
1
170
1
 48
1.0
171
1
  6

172
1
173
1
174
1
140
1.0
141
1.0
175
1
  7

176
1
177
1
178
1
143
1.0
179
1
  8

270
1
271
1
272
1
145
1.0
146
1.0
273
1
  9

274
1
275
1
276
1
 42
1.0
 72
1
  3

 73
1
 74
1
 75
1
 94
63
  0
MLINESTYLE
  5
22
102
{ACAD_REACTORS
330
10
102
}
330
10
100
AcDbMlineStyle
  2
Standard
 70
0
  3

 62
256
 51
90.0
 52
90.0
 71
2
 49
0.5
 62
256
  6
BYLAYER
 49
-0.5
 62
256
  6
BYLAYER
  0
MLEADERSTYLE
  5
2C
102
{ACAD_REACTORS
330
F
102
}
330
F
100
AcDbMLeaderStyle
179
2
170
2
171
1
172
0
 90
2
 40
0.0
 41
0.0
173
1
 91
-1056964608
 92
-2
290
1
 42
2.0
291
1
 43
8.0
  3
Standard
 44
4.0
300

342
29
174
1
175
1
176
0
178
1
 93
-1056964608
 45
4.0
292
0
297
0
 46
4.0
 94
-1056964608
 47
1.0
 49
1.0
140
1.0
294
1
141
0.0
177
0
142
1.0
295
0
296
0
143
3.75
271
0
272
9
273
9
  0
DICTIONARY
  5
2D
330
A
100
AcDbDictionary
280
1
281
1
  3
CREATED_BY_EZDXF
350
2E
  3
WRITTEN_BY_EZDXF
350
32
  0
DICTIONARYVAR
  5
2E
330
2D
100
DictionaryVariables
280
0
  1
1.3.5 @ 2025-08-20T01:58:17.163851+00:00
  0
DICTIONARYVAR
  5
32
330
2D
100
DictionaryVariables
280
0
  1
1.3.5 @ 2025-08-20T01:58:17.184609+00:00
  0
ENDSEC
  0
EOF
