  0
SECTION
  2
HEADER
  9
$ACADVER
  1
AC1032
  9
$ACADMAINTVER
 90
4
  9
$DWGCODEPAGE
  3
ANSI_1252
  9
$LASTSAVEDBY
  1
ezdxf
  9
$REQUIREDVERSIONS
160
0
  9
$INSBASE
 10
0.0
 20
0.0
 30
0.0
  9
$EXTMIN
 10
1e+20
 20
1e+20
 30
1e+20
  9
$EXTMAX
 10
-1e+20
 20
-1e+20
 30
-1e+20
  9
$LIMMIN
 10
0.0
 20
0.0
  9
$LIMMAX
 10
420.0
 20
297.0
  9
$ORTHOMODE
 70
0
  9
$REGENMODE
 70
1
  9
$FILLMODE
 70
1
  9
$QTEXTMODE
 70
0
  9
$MIRRTEXT
 70
1
  9
$LTSCALE
 40
1.0
  9
$ATTMODE
 70
1
  9
$TEXTSIZE
 40
2.5
  9
$TRACEWID
 40
1.0
  9
$TEXTSTYLE
  7
Standard
  9
$CLAYER
  8
0
  9
$CELTYPE
  6
ByLayer
  9
$CECOLOR
 62
256
  9
$CELTSCALE
 40
1.0
  9
$DISPSILH
 70
0
  9
$DIMSCALE
 40
1.0
  9
$DIMASZ
 40
2.5
  9
$DIMEXO
 40
0.625
  9
$DIMDLI
 40
3.75
  9
$DIMRND
 40
0.0
  9
$DIMDLE
 40
0.0
  9
$DIMEXE
 40
1.25
  9
$DIMTP
 40
0.0
  9
$DIMTM
 40
0.0
  9
$DIMTXT
 40
2.5
  9
$DIMCEN
 40
2.5
  9
$DIMTSZ
 40
0.0
  9
$DIMTOL
 70
0
  9
$DIMLIM
 70
0
  9
$DIMTIH
 70
0
  9
$DIMTOH
 70
0
  9
$DIMSE1
 70
0
  9
$DIMSE2
 70
0
  9
$DIMTAD
 70
1
  9
$DIMZIN
 70
8
  9
$DIMBLK
  1

  9
$DIMASO
 70
1
  9
$DIMSHO
 70
1
  9
$DIMPOST
  1

  9
$DIMAPOST
  1

  9
$DIMALT
 70
0
  9
$DIMALTD
 70
3
  9
$DIMALTF
 40
0.03937007874
  9
$DIMLFAC
 40
1.0
  9
$DIMTOFL
 70
1
  9
$DIMTVP
 40
0.0
  9
$DIMTIX
 70
0
  9
$DIMSOXD
 70
0
  9
$DIMSAH
 70
0
  9
$DIMBLK1
  1

  9
$DIMBLK2
  1

  9
$DIMSTYLE
  2
ISO-25
  9
$DIMCLRD
 70
0
  9
$DIMCLRE
 70
0
  9
$DIMCLRT
 70
0
  9
$DIMTFAC
 40
1.0
  9
$DIMGAP
 40
0.625
  9
$DIMJUST
 70
0
  9
$DIMSD1
 70
0
  9
$DIMSD2
 70
0
  9
$DIMTOLJ
 70
0
  9
$DIMTZIN
 70
8
  9
$DIMALTZ
 70
0
  9
$DIMALTTZ
 70
0
  9
$DIMUPT
 70
0
  9
$DIMDEC
 70
2
  9
$DIMTDEC
 70
2
  9
$DIMALTU
 70
2
  9
$DIMALTTD
 70
3
  9
$DIMTXSTY
  7
Standard
  9
$DIMAUNIT
 70
0
  9
$DIMADEC
 70
0
  9
$DIMALTRND
 40
0.0
  9
$DIMAZIN
 70
0
  9
$DIMDSEP
 70
44
  9
$DIMATFIT
 70
3
  9
$DIMFRAC
 70
0
  9
$DIMLDRBLK
  1

  9
$DIMLUNIT
 70
2
  9
$DIMLWD
 70
-2
  9
$DIMLWE
 70
-2
  9
$DIMTMOVE
 70
0
  9
$DIMFXL
 40
1.0
  9
$DIMFXLON
 70
0
  9
$DIMJOGANG
 40
0.785398163397
  9
$DIMTFILL
 70
0
  9
$DIMTFILLCLR
 70
0
  9
$DIMARCSYM
 70
0
  9
$DIMLTYPE
  6

  9
$DIMLTEX1
  6

  9
$DIMLTEX2
  6

  9
$DIMTXTDIRECTION
 70
0
  9
$LUNITS
 70
2
  9
$LUPREC
 70
4
  9
$SKETCHINC
 40
1.0
  9
$FILLETRAD
 40
10.0
  9
$AUNITS
 70
0
  9
$AUPREC
 70
2
  9
$MENU
  1
.
  9
$ELEVATION
 40
0.0
  9
$PELEVATION
 40
0.0
  9
$THICKNESS
 40
0.0
  9
$LIMCHECK
 70
0
  9
$CHAMFERA
 40
0.0
  9
$CHAMFERB
 40
0.0
  9
$CHAMFERC
 40
0.0
  9
$CHAMFERD
 40
0.0
  9
$SKPOLY
 70
0
  9
$TDCREATE
 40
2460908.1238078703
  9
$TDUCREATE
 40
2458532.153996898
  9
$TDUPDATE
 40
2460908.1238078703
  9
$TDUUPDATE
 40
2458532.1544311
  9
$TDINDWG
 40
0.0
  9
$TDUSRTIMER
 40
0.0
  9
$USRTIMER
 70
1
  9
$ANGBASE
 50
0.0
  9
$ANGDIR
 70
0
  9
$PDMODE
 70
0
  9
$PDSIZE
 40
0.0
  9
$PLINEWID
 40
0.0
  9
$SPLFRAME
 70
0
  9
$SPLINETYPE
 70
6
  9
$SPLINESEGS
 70
8
  9
$HANDSEED
  5
33
  9
$SURFTAB1
 70
6
  9
$SURFTAB2
 70
6
  9
$SURFTYPE
 70
6
  9
$SURFU
 70
6
  9
$SURFV
 70
6
  9
$UCSBASE
  2

  9
$UCSNAME
  2

  9
$UCSORG
 10
0.0
 20
0.0
 30
0.0
  9
$UCSXDIR
 10
1.0
 20
0.0
 30
0.0
  9
$UCSYDIR
 10
0.0
 20
1.0
 30
0.0
  9
$UCSORTHOREF
  2

  9
$UCSORTHOVIEW
 70
0
  9
$UCSORGTOP
 10
0.0
 20
0.0
 30
0.0
  9
$UCSORGBOTTOM
 10
0.0
 20
0.0
 30
0.0
  9
$UCSORGLEFT
 10
0.0
 20
0.0
 30
0.0
  9
$UCSORGRIGHT
 10
0.0
 20
0.0
 30
0.0
  9
$UCSORGFRONT
 10
0.0
 20
0.0
 30
0.0
  9
$UCSORGBACK
 10
0.0
 20
0.0
 30
0.0
  9
$PUCSBASE
  2

  9
$PUCSNAME
  2

  9
$PUCSORG
 10
0.0
 20
0.0
 30
0.0
  9
$PUCSXDIR
 10
1.0
 20
0.0
 30
0.0
  9
$PUCSYDIR
 10
0.0
 20
1.0
 30
0.0
  9
$PUCSORTHOREF
  2

  9
$PUCSORTHOVIEW
 70
0
  9
$PUCSORGTOP
 10
0.0
 20
0.0
 30
0.0
  9
$PUCSORGBOTTOM
 10
0.0
 20
0.0
 30
0.0
  9
$PUCSORGLEFT
 10
0.0
 20
0.0
 30
0.0
  9
$PUCSORGRIGHT
 10
0.0
 20
0.0
 30
0.0
  9
$PUCSORGFRONT
 10
0.0
 20
0.0
 30
0.0
  9
$PUCSORGBACK
 10
0.0
 20
0.0
 30
0.0
  9
$USERI1
 70
0
  9
$USERI2
 70
0
  9
$USERI3
 70
0
  9
$USERI4
 70
0
  9
$USERI5
 70
0
  9
$USERR1
 40
0.0
  9
$USERR2
 40
0.0
  9
$USERR3
 40
0.0
  9
$USERR4
 40
0.0
  9
$USERR5
 40
0.0
  9
$WORLDVIEW
 70
1
  9
$SHADEDGE
 70
3
  9
$SHADEDIF
 70
70
  9
$TILEMODE
 70
1
  9
$MAXACTVP
 70
64
  9
$PINSBASE
 10
0.0
 20
0.0
 30
0.0
  9
$PLIMCHECK
 70
0
  9
$PEXTMIN
 10
1e+20
 20
1e+20
 30
1e+20
  9
$PEXTMAX
 10
-1e+20
 20
-1e+20
 30
-1e+20
  9
$PLIMMIN
 10
0.0
 20
0.0
  9
$PLIMMAX
 10
420.0
 20
297.0
  9
$UNITMODE
 70
0
  9
$VISRETAIN
 70
1
  9
$PLINEGEN
 70
0
  9
$PSLTSCALE
 70
1
  9
$TREEDEPTH
 70
3020
  9
$CMLSTYLE
  2
Standard
  9
$CMLJUST
 70
0
  9
$CMLSCALE
 40
20.0
  9
$PROXYGRAPHICS
 70
1
  9
$MEASUREMENT
 70
1
  9
$CELWEIGHT
370
-1
  9
$ENDCAPS
280
0
  9
$JOINSTYLE
280
0
  9
$LWDISPLAY
290
0
  9
$INSUNITS
 70
6
  9
$HYPERLINKBASE
  1

  9
$STYLESHEET
  1

  9
$XEDIT
290
1
  9
$CEPSNTYPE
380
0
  9
$PSTYLEMODE
290
1
  9
$FINGERPRINTGUID
  2
{B7C655CA-3019-4160-8CC8-2CDBCFCDE864}
  9
$VERSIONGUID
  2
{0E2016F8-170B-4C05-8B25-8BC96436F44B}
  9
$EXTNAMES
290
1
  9
$PSVPSCALE
 40
0.0
  9
$OLESTARTUP
290
0
  9
$SORTENTS
280
127
  9
$INDEXCTL
280
0
  9
$HIDETEXT
280
1
  9
$XCLIPFRAME
280
1
  9
$HALOGAP
280
0
  9
$OBSCOLOR
 70
257
  9
$OBSLTYPE
280
0
  9
$INTERSECTIONDISPLAY
280
0
  9
$INTERSECTIONCOLOR
 70
257
  9
$DIMASSOC
280
2
  9
$PROJECTNAME
  1

  9
$CAMERADISPLAY
290
0
  9
$LENSLENGTH
 40
50.0
  9
$CAMERAHEIGHT
 40
0.0
  9
$STEPSPERSEC
 40
24.0
  9
$STEPSIZE
 40
100.0
  9
$3DDWFPREC
 40
2.0
  9
$PSOLWIDTH
 40
0.005
  9
$PSOLHEIGHT
 40
0.08
  9
$LOFTANG1
 40
1.570796326795
  9
$LOFTANG2
 40
1.570796326795
  9
$LOFTMAG1
 40
0.0
  9
$LOFTMAG2
 40
0.0
  9
$LOFTPARAM
 70
7
  9
$LOFTNORMALS
280
1
  9
$LATITUDE
 40
37.795
  9
$LONGITUDE
 40
-122.394
  9
$NORTHDIRECTION
 40
0.0
  9
$TIMEZONE
 70
-8000
  9
$LIGHTGLYPHDISPLAY
280
1
  9
$TILEMODELIGHTSYNCH
280
1
  9
$CMATERIAL
347
20
  9
$SOLIDHIST
280
0
  9
$SHOWHIST
280
1
  9
$DWFFRAME
280
2
  9
$DGNFRAME
280
2
  9
$REALWORLDSCALE
290
1
  9
$INTERFERECOLOR
 62
256
  9
$CSHADOW
280
0
  9
$SHADOWPLANELOCATION
 40
0.0
  0
ENDSEC
  0
SECTION
  2
CLASSES
  0
CLASS
  1
ACDBDICTIONARYWDFLT
  2
AcDbDictionaryWithDefault
  3
ObjectDBX Classes
 90
0
 91
0
280
0
281
0
  0
CLASS
  1
SUN
  2
AcDbSun
  3
SCENEOE
 90
1153
 91
0
280
0
281
0
  0
CLASS
  1
VISUALSTYLE
  2
AcDbVisualStyle
  3
ObjectDBX Classes
 90
4095
 91
0
280
0
281
0
  0
CLASS
  1
MATERIAL
  2
AcDbMaterial
  3
ObjectDBX Classes
 90
1153
 91
0
280
0
281
0
  0
CLASS
  1
SCALE
  2
AcDbScale
  3
ObjectDBX Classes
 90
1153
 91
0
280
0
281
0
  0
CLASS
  1
TABLESTYLE
  2
AcDbTableStyle
  3
ObjectDBX Classes
 90
4095
 91
0
280
0
281
0
  0
CLASS
  1
MLEADERSTYLE
  2
AcDbMLeaderStyle
  3
ACDB_MLEADERSTYLE_CLASS
 90
4095
 91
0
280
0
281
0
  0
CLASS
  1
DICTIONARYVAR
  2
AcDbDictionaryVar
  3
ObjectDBX Classes
 90
0
 91
0
280
0
281
0
  0
CLASS
  1
CELLSTYLEMAP
  2
AcDbCellStyleMap
  3
ObjectDBX Classes
 90
1152
 91
0
280
0
281
0
  0
CLASS
  1
MENTALRAYRENDERSETTINGS
  2
AcDbMentalRayRenderSettings
  3
SCENEOE
 90
1024
 91
0
280
0
281
0
  0
CLASS
  1
ACDBDETAILVIEWSTYLE
  2
AcDbDetailViewStyle
  3
ObjectDBX Classes
 90
1025
 91
0
280
0
281
0
  0
CLASS
  1
ACDBSECTIONVIEWSTYLE
  2
AcDbSectionViewStyle
  3
ObjectDBX Classes
 90
1025
 91
0
280
0
281
0
  0
CLASS
  1
RASTERVARIABLES
  2
AcDbRasterVariables
  3
ISM
 90
0
 91
0
280
0
281
0
  0
CLASS
  1
LAYOUT
  2
AcDbLayout
  3
ObjectDBX Classes
 90
0
 91
0
280
0
281
0
  0
CLASS
  1
ACDBPLACEHOLDER
  2
AcDbPlaceHolder
  3
ObjectDBX Classes
 90
0
 91
0
280
0
281
0
  0
ENDSEC
  0
SECTION
  2
TABLES
  0
TABLE
  2
VPORT
  5
8
330
0
100
AcDbSymbolTable
 70
1
  0
VPORT
  5
23
330
8
100
AcDbSymbolTableRecord
100
AcDbViewportTableRecord
  2
*Active
 70
0
 10
0.0
 20
0.0
 11
1.0
 21
1.0
 12
0.0
 22
0.0
 13
0.0
 23
0.0
 14
0.5
 24
0.5
 15
0.5
 25
0.5
 16
0.0
 26
0.0
 36
1.0
 17
0.0
 27
0.0
 37
0.0
 40
1000.0
 41
1.34
 42
50.0
 43
0.0
 44
0.0
 50
0.0
 51
0.0
 71
0
 72
1000
 73
1
 74
3
 75
0
 76
0
 77
0
 78
0
281
0
 65
0
146
0.0
  0
ENDTAB
  0
TABLE
  2
LTYPE
  5
2
330
0
100
AcDbSymbolTable
 70
3
  0
LTYPE
  5
24
330
2
100
AcDbSymbolTableRecord
100
AcDbLinetypeTableRecord
  2
ByBlock
 70
0
  3

 72
65
 73
0
 40
0.0
  0
LTYPE
  5
25
330
2
100
AcDbSymbolTableRecord
100
AcDbLinetypeTableRecord
  2
ByLayer
 70
0
  3

 72
65
 73
0
 40
0.0
  0
LTYPE
  5
26
330
2
100
AcDbSymbolTableRecord
100
AcDbLinetypeTableRecord
  2
Continuous
 70
0
  3

 72
65
 73
0
 40
0.0
  0
ENDTAB
  0
TABLE
  2
LAYER
  5
1
330
0
100
AcDbSymbolTable
 70
2
  0
LAYER
  5
27
330
1
100
AcDbSymbolTableRecord
100
AcDbLayerTableRecord
  2
0
 70
0
 62
7
  6
Continuous
370
-3
390
13
347
21
  0
LAYER
  5
28
330
1
100
AcDbSymbolTableRecord
100
AcDbLayerTableRecord
  2
Defpoints
 70
0
 62
7
  6
Continuous
290
0
370
-3
390
13
347
21
  0
ENDTAB
  0
TABLE
  2
STYLE
  5
5
330
0
100
AcDbSymbolTable
 70
1
  0
STYLE
  5
29
330
5
100
AcDbSymbolTableRecord
100
AcDbTextStyleTableRecord
  2
Standard
 70
0
 40
0.0
 41
1.0
 50
0.0
 71
0
 42
2.5
  3
txt
  4

  0
ENDTAB
  0
TABLE
  2
VIEW
  5
7
330
0
100
AcDbSymbolTable
 70
0
  0
ENDTAB
  0
TABLE
  2
UCS
  5
6
330
0
100
AcDbSymbolTable
 70
0
  0
ENDTAB
  0
TABLE
  2
APPID
  5
3
330
0
100
AcDbSymbolTable
 70
3
  0
APPID
  5
2A
330
3
100
AcDbSymbolTableRecord
100
AcDbRegAppTableRecord
  2
ACAD
 70
0
  0
APPID
  5
30
330
3
100
AcDbSymbolTableRecord
100
AcDbRegAppTableRecord
  2
HATCHBACKGROUNDCOLOR
 70
0
  0
APPID
  5
31
330
3
100
AcDbSymbolTableRecord
100
AcDbRegAppTableRecord
  2
EZDXF
 70
0
  0
ENDTAB
  0
TABLE
  2
DIMSTYLE
  5
4
330
0
100
AcDbSymbolTable
 70
1
100
AcDbDimStyleTable
  0
DIMSTYLE
105
2B
330
4
100
AcDbSymbolTableRecord
100
AcDbDimStyleTableRecord
  2
Standard
 70
0
 40
1.0
 41
2.5
 42
0.625
 43
3.75
 44
1.25
 45
0.0
 46
0.0
 47
0.0
 48
0.0
 49
2.5
140
2.5
141
2.5
142
0.0
143
0.03937007874
144
1.0
145
0.0
146
1.0
147
0.625
148
0.0
 69
0
 70
0
 71
0
 72
0
 73
0
 74
0
 75
0
 76
0
 77
1
 78
8
 79
3
170
0
171
3
172
1
173
0
174
0
175
0
176
0
177
0
178
0
179
2
271
2
272
2
273
2
274
3
275
0
276
0
277
2
278
44
279
0
280
0
281
0
282
0
283
0
284
8
285
0
286
0
288
0
289
3
290
0
371
-2
372
-2
  0
ENDTAB
  0
TABLE
  2
BLOCK_RECORD
  5
9
330
0
100
AcDbSymbolTable
 70
2
  0
BLOCK_RECORD
  5
17
330
9
100
AcDbSymbolTableRecord
100
AcDbBlockTableRecord
  2
*Model_Space
340
1A
 70
0
280
1
281
0
  0
BLOCK_RECORD
  5
1B
330
9
100
AcDbSymbolTableRecord
100
AcDbBlockTableRecord
  2
*Paper_Space
340
1E
 70
0
280
1
281
0
  0
ENDTAB
  0
ENDSEC
  0
SECTION
  2
BLOCKS
  0
BLOCK
  5
18
330
17
100
AcDbEntity
  8
0
100
AcDbBlockBegin
  2
*Model_Space
 70
0
 10
0.0
 20
0.0
 30
0.0
  3
*Model_Space
  1

  0
ENDBLK
  5
19
330
17
100
AcDbEntity
  8
0
100
AcDbBlockEnd
  0
BLOCK
  5
1C
330
1B
100
AcDbEntity
  8
0
100
AcDbBlockBegin
  2
*Paper_Space
 70
0
 10
0.0
 20
0.0
 30
0.0
  3
*Paper_Space
  1

  0
ENDBLK
  5
1D
330
1B
100
AcDbEntity
  8
0
100
AcDbBlockEnd
  0
ENDSEC
  0
SECTION
  2
ENTITIES
  0
LWPOLYLINE
  5
2F
330
17
100
AcDbEntity
  8
0
100
AcDbPolyline
 90
721
 70
1
 10
44.62253066070061
 20
2.839543621722565
 10
44.62123753011978
 20
2.839921222584335
 10
44.617366206353125
 20
2.8409206651715726
 10
44.610932797142716
 20
2.8422756957818374
 10
44.6018626815764
 20
2.8441146452544377
 10
44.59030108361035
 20
2.846247265456249
 10
44.576177408260456
 20
2.848735340454317
 10
44.559429104338726
 20
2.8515076939979287
 10
44.540189322047205
 20
2.854573651657365
 10
44.518395510197934
 20
2.8578620371819166
 10
44.49397303578887
 20
2.861501381251046
 10
44.46706310893807
 20
2.865367782663738
 10
44.43759914446958
 20
2.869456745168314
 10
44.405577112425426
 20
2.8738348821504256
 10
44.37100507272159
 20
2.878368966838773
 10
44.33387495738216
 20
2.8831923592314257
 10
44.29425737348115
 20
2.888243075421183
 10
44.25208573584265
 20
2.893516619156369
 10
44.20735601450865
 20
2.8990796038226323
 10
44.16014283845122
 20
2.9048035653538937
 10
44.11037156660843
 20
2.9108171676563894
 10
44.058050254866274
 20
2.916987250572205
 10
44.00330398948092
 20
2.92345643305631
 10
43.94593706906229
 20
2.930144213287708
 10
43.88614921286857
 20
2.937064679541902
 10
43.82380726666772
 20
2.9442085728619953
 10
43.75897779548589
 20
2.951580722566593
 10
43.69166079529312
 20
2.95918119526908
 10
43.62185223210146
 20
2.967076670968493
 10
43.54955209382106
 20
2.9752673495049886
 10
43.47476843633792
 20
2.9836200707206535
 10
43.3974931957061
 20
2.992268128000172
 10
43.31779696287978
 20
3.0011498038898856
 10
43.23560913078498
 20
3.0103270822969956
 10
43.150937743217796
 20
3.019667002903746
 10
43.06384131737832
 20
3.029307421959884
 10
42.97431581121868
 20
3.039315152691217
 10
42.8823733065529
 20
3.049490488167567
 10
42.78793915425914
 20
3.0599622255219416
 10
42.69115053449746
 20
3.070673076938974
 10
42.591870250987945
 20
3.0816805966875735
 10
42.49023144990275
 20
3.0929941769514095
 10
42.386167542035956
 20
3.10460938809219
 10
42.2797450964437
 20
3.1165309928151346
 10
42.17090155387804
 20
3.128687948096303
 10
42.05970348339509
 20
3.141085016640914
 10
41.946076235873
 20
3.153850995581975
 10
41.830156987441875
 20
3.1669286637175063
 10
41.711879148895825
 20
3.180313591409217
 10
41.59124271217492
 20
3.1940059118838753
 10
41.46824765712938
 20
3.2080059582084126
 10
41.34295653091728
 20
3.2223849732469265
 10
41.215306766230725
 20
3.237072047202246
 10
41.085360906197856
 20
3.252138489551856
 10
40.95312296062682
 20
3.2675180199770346
 10
40.818600985403656
 20
3.283077478319869
 10
40.68185348160857
 20
3.29895498728365
 10
40.542805804149694
 20
3.3152792773879995
 10
40.4014579328772
 20
3.3320506816998443
 10
40.257888530751124
 20
3.3490740561540715
 10
40.11209355169364
 20
3.3664162805898727
 10
39.96407298764484
 20
3.38407748823402
 10
39.813814728580994
 20
3.402257852310389
 10
39.66133891220212
 20
3.4206245057308915
 10
39.50670404764838
 20
3.439315437972043
 10
39.349906092871905
 20
3.458397462259654
 10
39.190874424678874
 20
3.477932828954466
 10
39.02974621516944
 20
3.497864383467884
 10
38.86645890106573
 20
3.5181211493893527
 10
38.70101247430782
 20
3.538703259945643
 10
38.53346543597595
 20
3.5597488378400466
 10
38.36383388978219
 20
3.580991695983507
 10
38.19204319063465
 20
3.6025605648956445
 10
38.018222446687595
 20
3.624531583372552
 10
37.84237164585112
 20
3.6469049512543856
 10
37.66443225883529
 20
3.669543012131553
 10
37.48440023553235
 20
3.692512712456634
 10
37.30240872211442
 20
3.715823444413296
 10
37.1183830654297
 20
3.739604071747932
 10
36.93233534326224
 20
3.763654954143751
 10
36.744332120638184
 20
3.7879809209193587
 10
36.554373385467684
 20
3.8125821719149133
 10
36.362451057684986
 20
3.8375922669686404
 10
36.1685651252002
 20
3.863011405920698
 10
35.97271960588145
 20
3.888773175225593
 10
35.77505167585884
 20
3.9148203536813457
 10
35.5754241267626
 20
3.9412106953970207
 10
35.37390352764883
 20
3.9679489630778404
 10
35.170568537447586
 20
3.9948400792720746
 10
34.965348524905096
 20
4.021946427567238
 10
34.758297969203575
 20
4.0494726108255
 10
34.54948343939909
 20
4.077423391752081
 10
34.33877981296586
 20
4.105656750912484
 10
34.12633233400988
 20
4.133982107106657
 10
33.9121248665794
 20
4.162666180330742
 10
33.69616142854251
 20
4.191642557039246
 10
33.47843797382143
 20
4.220978117071361
 10
33.25902912735823
 20
4.250544462974395
 10
33.03793488109303
 20
4.2803417279751175
 10
32.81508863373004
 20
4.310365682275396
 10
32.59061950551336
 20
4.34069226483116
 10
32.36446090320718
 20
4.371317112617507
 10
32.13668745578352
 20
4.4021117615683565
 10
31.90729914712258
 20
4.433076478137251
 10
31.6763625503104
 20
4.464215958416026
 10
31.443807034093254
 20
4.495592585992196
 10
31.20969111164124
 20
4.527344283728894
 10
30.97396026750256
 20
4.559267048284421
 10
30.736810223217113
 20
4.591441048412848
 10
30.498123912145104
 20
4.623591104521763
 10
30.257897284178735
 20
4.655784163063743
 10
30.016251411736064
 20
4.688229189925862
 10
29.773182248739285
 20
4.720993064947317
 10
29.528568702620557
 20
4.753867155307956
 10
29.282685165939707
 20
4.786736352469967
 10
29.03533589700705
 20
4.819520820746205
 10
28.78664196018069
 20
4.85242965925052
 10
28.536532728236843
 20
4.8855251849570385
 10
28.285145393425466
 20
4.91874991021024
 10
28.032425448354665
 20
4.951899698441654
 10
27.778431406194564
 20
4.985112472514414
 10
27.52315519090936
 20
5.018521725653363
 10
27.266616944229032
 20
5.051794524157023
 10
27.008820684021696
 20
5.084864454479902
 10
26.749879422789423
 20
5.118073709280376
 10
26.489664004018483
 20
5.151346949122981
 10
26.228303560042846
 20
5.184759913123493
 10
25.965822262550496
 20
5.217913054194788
 10
25.702216069493545
 20
5.25087318556267
 10
25.43747691289616
 20
5.283773667225213
 10
25.171592682734577
 20
5.31681467240629
 10
24.904712677252544
 20
5.34973860683989
 10
24.636719817720365
 20
5.382270490773757
 10
24.367801781881816
 20
5.414623453279717
 10
24.097805221385418
 20
5.4471220350763625
 10
23.82681284526896
 20
5.479504212259385
 10
23.554840753214595
 20
5.511503864353117
 10
23.282014067748115
 20
5.543263010792055
 10
23.008195560349947
 20
5.5748397387521935
 10
22.733514375443967
 20
5.606309587509152
 10
22.457907941692365
 20
5.637601713879143
 10
22.181450904187052
 20
5.66858738734255
 10
21.904209848103967
 20
5.699271104151046
 10
21.626118168117372
 20
5.729648701119887
 10
21.34730904666904
 20
5.759728970912266
 10
21.067649285197362
 20
5.789503387318529
 10
20.787263998168257
 20
5.819114102999948
 10
20.506157219569616
 20
5.848494437957484
 10
20.224349083071537
 20
5.877311591716433
 10
19.941831520698134
 20
5.9056989242748665
 10
19.658733688963146
 20
5.933731775068247
 10
19.374918359347
 20
5.9614682312725655
 10
19.090526774207415
 20
5.988783858779724
 10
18.805562959472415
 20
6.01561211081746
 10
18.52003094107002
 20
6.041886440613505
 10
18.233922642964433
 20
6.067740341392704
 10
17.947300636493477
 20
6.093244656338843
 10
17.660164909567243
 20
6.118399585292076
 10
17.372594145295544
 20
6.143009651120362
 10
17.084525772340587
 20
6.167004010639916
 10
16.796030409866244
 20
6.190320480103383
 10
16.507162565264405
 20
6.213163196079228
 10
16.217843543335384
 20
6.235727835539654
 10
15.92821459852679
 20
6.257889764536401
 10
15.63824136920667
 20
6.279111846186142
 10
15.347899663537278
 20
6.299793960642925
 10
15.057318658182147
 20
6.320011114275289
 10
14.766439799671586
 20
6.339626050353954
 10
14.475267121993523
 20
6.358572088879887
 10
14.183921725775717
 20
6.377057729446463
 10
13.892341047740267
 20
6.395011995643125
 10
13.600603766967016
 20
6.412239476951218
 10
13.308643282160192
 20
6.4287359435726055
 10
13.016588769983326
 20
6.444576401875824
 10
12.724436192418521
 20
6.459827598473292
 10
12.432197643369678
 20
6.474289626594677
 10
12.139869084818887
 20
6.488029232852399
 10
11.847513092133921
 20
6.501117193816858
 10
11.55505097414505
 20
6.513749119846866
 10
11.262640113191713
 20
6.525533790224797
 10
10.970280509273906
 20
6.536471204950651
 10
10.677968136463601
 20
6.546627910796693
 10
10.38569895674291
 20
6.5560706543753415
 10
10.093543613455457
 20
6.564736852258927
 10
9.801431471317535
 20
6.57268895464835
 10
9.509499766908625
 20
6.579868741140844
 10
9.217756564174648
 20
6.586142918351725
 10
8.926197833157627
 20
6.591578099666643
 10
8.634819547929531
 20
6.596240831857861
 10
8.343625738448349
 20
6.600064501539731
 10
8.05275768334142
 20
6.602924075083681
 10
7.7621407133370885
 20
6.6049486826896455
 10
7.4718333819050535
 20
6.606275581086903
 10
7.181789233509475
 20
6.606567540162456
 10
6.892133422915812
 20
6.605966046443718
 10
6.6028538723400105
 20
6.604670740247477
 10
6.313896058270356
 20
6.602477751458809
 10
6.025401267394105
 20
6.599261913222373
 10
5.737361443825253
 20
6.59515638569608
 10
5.449718038124072
 20
6.590023845537267
 10
5.162596217145899
 20
6.584005579433191
 10
4.875937435480963
 20
6.576964197427802
 10
4.589870885912623
 20
6.5689744394360945
 10
4.3042512679154745
 20
6.5602278192455135
 10
4.019219868176776
 20
6.550599170000721
 10
3.7347928065284437
 20
6.539822038159116
 10
3.4509660651023664
 20
6.527962837266192
 10
3.1677941633803077
 20
6.515225504050261
 10
2.8852811474400775
 20
6.501543158672133
 10
2.6034310512696024
 20
6.48684912113277
 10
2.3223104922845046
 20
6.471147354776768
 10
2.041844801213124
 20
6.454566989804057
 10
1.7620925476449876
 20
6.437245016490378
 10
1.483136464797663
 20
6.4189190112511065
 10
1.2049846206470232
 20
6.3994556140881755
 10
0.9276289673669788
 20
6.378987851932724
 10
0.6511324591413401
 20
6.357580239696901
 10
0.3754291354376446
 20
6.3352179560542545
 10
0.10058159177344979
 20
6.311971444508255
 10
-0.1733475884235921
 20
6.287911348402528
 10
-0.44640889870719824
 20
6.262767184236501
 10
-0.7185357256917276
 20
6.23654298196815
 10
-0.9896816057814275
 20
6.2095758384837
 10
-1.259905092445982
 20
6.181728497053876
 10
-1.5290689289561175
 20
6.152942404208984
 10
-1.7973063420831328
 20
6.123209500033067
 10
-2.064484105055725
 20
6.092537844442082
 10
-2.33054366440421
 20
6.0610646941653075
 10
-2.595622276857859
 20
6.028848602672435
 10
-2.859633179241132
 20
5.995560532993195
 10
-3.1224673245306023
 20
5.961608225357441
 10
-3.384199386027866
 20
5.927120876578497
 10
-3.6448717973707163
 20
5.891694776384485
 10
-3.904284718402197
 20
5.855342014649342
 10
-4.162516852381894
 20
5.8182584015720336
 10
-4.419572229267788
 20
5.780510550538212
 10
-4.675442789143918
 20
5.741965234776581
 10
-4.929999335196965
 20
5.702697127588742
 10
-5.183375094198227
 20
5.662698169058743
 10
-5.435448929250345
 20
5.622176259259485
 10
-5.6862127804373594
 20
5.580998171419672
 10
-5.93566261780129
 20
5.539097292153653
 10
-6.183802471300116
 20
5.496540234847079
 10
-6.430573787464145
 20
5.453464256229224
 10
-6.6760431796790245
 20
5.409865326342115
 10
-6.920069361257503
 20
5.365618278330405
 10
-7.162652332199578
 20
5.320723112194097
 10
-7.403854675932919
 20
5.275109184589562
 10
-7.643613809029858
 20
5.228847138860425
 10
-7.881941821364329
 20
5.18213681516364
 10
-8.118776129508658
 20
5.135048856842832
 10
-8.354100613630937
 20
5.087316810355402
 10
-8.587981887116811
 20
5.038936645743374
 10
-8.820216079851358
 20
4.989853839495033
 10
-9.050948508479806
 20
4.940260171851368
 10
-9.280183202960135
 20
4.890222256198032
 10
-9.507786936521049
 20
4.839748152450981
 10
-9.733755679204565
 20
4.788771247224566
 10
-9.958143954522402
 20
4.737087670403857
 10
-10.180901268920822
 20
4.684967905489433
 10
-10.402039712273758
 20
4.632611792638243
 10
-10.621472521405675
 20
4.579690294880017
 10
-10.839266309702216
 20
4.5261993822567765
 10
-11.055295910308041
 20
4.472280341455776
 10
-11.2696279366088
 20
4.417929142519041
 10
-11.482266418562471
 20
4.363212398832217
 10
-11.693132652909465
 20
4.307934300196335
 10
-11.90223469956575
 20
4.252228073382694
 10
-12.109572558531314
 20
4.196093718391296
 10
-12.315162349638072
 20
4.1397976887647365
 10
-12.51886681615676
 20
4.083281431033325
 10
-12.720807094984725
 20
4.026337045124153
 10
-12.920908512820366
 20
3.968835334223904
 10
-13.119120576109951
 20
3.911046781833152
 10
-13.315517958155084
 20
3.8531005847652167
 10
-13.5100179257382
 20
3.7947343194354795
 10
-13.702561925389611
 20
3.7360852425732194
 10
-13.89328721383859
 20
3.6772119076481276
 10
-14.082060564313839
 20
3.618122374576161
 10
-14.268869886941424
 20
3.55861680320037
 10
-14.453727271595277
 20
3.4988950336777056
 10
-14.636636748233382
 20
3.4390236793938147
 10
-14.817594286897755
 20
3.3789361269630493
 10
-14.996533274202749
 20
3.3186364063433893
 10
-15.173449680190384
 20
3.2580579041491817
 10
-15.348414148204292
 20
3.197263203808101
 10
-15.521293451473172
 20
3.1362603652361
 10
-15.692095649912977
 20
3.0751826152044823
 10
-15.860945910379051
 20
3.0138886670259897
 10
-16.027644392714453
 20
2.952390610574556
 10
-16.19225368034684
 20
2.8906178025065565
 10
-16.354789893108137
 20
2.8288366963645877
 10
-16.51525303099834
 20
2.7670472921486486
 10
-16.673568420715842
 20
2.70512039304542
 10
-16.829732032302665
 20
2.6429893856692526
 10
-16.98380644918648
 20
2.5805836266765168
 10
-17.13567859438589
 20
2.5182442429114187
 10
-17.285411051328545
 20
2.4559005910303293
 10
-17.432995760098503
 20
2.39341944426195
 10
-17.578366107310117
 20
2.33080483256426
 10
-17.72153015287933
 20
2.2681899827085568
 10
-17.862479836890195
 20
2.205441667923542
 10
-18.00121918930069
 20
2.1426265015948656
 10
-18.1377522400688
 20
2.079811097108176
 10
-18.2720043158929
 20
2.0168662576501544
 10
-18.40398750664694
 20
1.9539918233777476
 10
-18.53375230588465
 20
1.8909173107903798
 10
-18.661248220052297
 20
1.8279132033886276
 10
-18.786471219191906
 20
1.7649128877868414
 10
-18.90941727334549
 20
1.7018497505993708
 10
-19.0300197691274
 20
1.6387278217841963
 10
-19.148349349881276
 20
1.5756096847689867
 10
-19.264351492095386
 20
1.5126992096686709
 10
-19.37801813585379
 20
1.4498631697119488
 10
-19.489349281156475
 20
1.3871015648988207
 10
-19.59841557134708
 20
1.3244769786569577
 10
-19.70507974969632
 20
1.261930857516667
 10
-19.809416489505796
 20
1.1995923982912693
 10
-19.911367237305832
 20
1.1375988577100424
 10
-20.01099860648206
 20
1.0759462058150078
 10
-20.108235923732884
 20
1.0145052457928447
 10
-20.203149832401934
 20
0.9533385610712237
 10
-20.2956071057179
 20
0.892454211566103
 10
-20.38574903036805
 20
0.8319773641328232
 10
-20.47344640953905
 20
0.7719826920729924
 10
-20.558757796700608
 20
0.7123329386573317
 10
-20.641683191852714
 20
0.6530281038858419
 10
-20.722222594995372
 20
0.5940681877585225
 10
-20.80031745265888
 20
0.5355904470046519
 10
-20.875967764843256
 20
0.4775948816242289
 10
-20.949228055060196
 20
0.4198776215023273
 10
-21.020043799797996
 20
0.3626425367538735
 10
-21.08839887922474
 20
0.3056231738362699
 10
-21.154309413172342
 20
0.2490859862921143
 10
-21.21775928180889
 20
0.1927645205788088
 10
-21.27875654505034
 20
0.13679200346765225
 10
-21.337301202896686
 20
0.08116843495864454
 10
-21.393322612004305
 20
0.025831231624115
 10
-21.44696205906045
 20
-0.029094439680594476
 10
-21.498007614034243
 20
-0.08379632923849745
 10
-21.54666717699859
 20
-0.13815330015222985
 10
-21.592803491224203
 20
-0.19222390589148405
 10
-21.63642864658503
 20
-0.24580830629931205
 10
-21.677601196550757
 20
-0.29904375810499084
 10
-21.71625855769371
 20
-0.35185961796489257
 10
-21.752416849845808
 20
-0.40398943233641915
 10
-21.786130596518763
 20
-0.4556370713344974
 10
-21.817341244242883
 20
-0.50666527822985
 10
-21.846056852934122
 20
-0.5569408262511777
 10
-21.8722935424244
 20
-0.6061972618558823
 10
-21.896051312713713
 20
-0.6544345850439637
 10
-21.917404837103664
 20
-0.7015235990021008
 10
-21.936241038612852
 20
-0.7471231768860898
 10
-21.952642650458838
 20
-0.7909708951113097
 10
-21.966716585607053
 20
-0.8324046497792439
 10
-21.978357826992053
 20
-0.8709500872743885
 10
-21.98769746732713
 20
-0.9055454233843283
 10
-21.994866599325594
 20
-0.9351288738966482
 10
-21.99982871520763
 20
-0.958093657639802
 10
-22.002751177308348
 20
-0.9727784699305287
 10
-21.978261370195824
 20
-1.3985811868185767
 10
-21.97679018801158
 20
-1.4019019002851159
 10
-21.972380671416843
 20
-1.4117974272990839
 10
-21.965048940243516
 20
-1.4280013143178825
 10
-21.95465987182032
 20
-1.451641958939576
 10
-21.941262063801005
 20
-1.484126302178762
 10
-21.9249984606148
 20
-1.5219864180236846
 10
-21.905927377573384
 20
-1.5631532615612282
 10
-21.884234430901778
 20
-1.6067689186939051
 10
-21.85993763633188
 20
-1.651430478365096
 10
-21.83300665009984
 20
-1.6965343901459757
 10
-21.803594848766853
 20
-1.741755647024254
 10
-21.771651738779177
 20
-1.7868237654993528
 10
-21.73719343996874
 20
-1.831472292028675
 10
-21.700228012251483
 20
-1.8755679998409212
 10
-21.660755455627413
 20
-1.919110888936091
 10
-21.618846413440156
 20
-1.9620383758865134
 10
-21.574442332220023
 20
-2.004213203962911
 10
-21.527539182009036
 20
-2.0457019865509336
 10
-21.478207606150818
 20
-2.086442140222909
 10
-21.42637293134376
 20
-2.1265628617921597
 10
-21.372039187545848
 20
-2.1659975378730345
 10
-21.315347661444335
 20
-2.2046210016101915
 10
-21.256086423008338
 20
-2.2426210032866445
 10
-21.194459342352783
 20
-2.2799430193906796
 10
-21.130329162748396
 20
-2.3166456033919878
 10
-21.063766527538796
 20
-2.3526661718629
 10
-20.994775466681972
 20
-2.3879381114177654
 10
-20.923343890303975
 20
-2.4226612622135324
 10
-20.84947985832078
 20
-2.4567023974789035
 10
-20.77316725090046
 20
-2.4903279707564754
 10
-20.694418157916957
 20
-2.5233381418893
 10
-20.613291132839958
 20
-2.5558701676066553
 10
-20.52971956228382
 20
-2.5879200179505615
 10
-20.443695386332582
 20
-2.6196209196923195
 10
-20.355289248329864
 20
-2.6509102894042567
 10
-20.264497118317706
 20
-2.6818547404720237
 10
-20.171318996296097
 20
-2.71245427289562
 10
-20.075676179005452
 20
-2.742904696874016
 10
-19.97770592317505
 20
-2.773147458937519
 10
-19.87727903199157
 20
-2.803107885784522
 10
-19.774528732226315
 20
-2.832794037330983
 10
-19.669380350577676
 20
-2.8623351103902213
 10
-19.561900500431296
 20
-2.891735134920217
 10
-19.452026598359513
 20
-2.92092346757734
 10
-19.339833317663928
 20
-2.949770911548272
 10
-19.225250015000913
 20
-2.9783400502606825
 10
-19.108405887183796
 20
-3.0067055570161787
 10
-18.989234320826917
 20
-3.034863401856781
 10
-18.86773531593029
 20
-3.0628135847824907
 10
-18.743920962367827
 20
-3.090356265636358
 10
-18.617857873525203
 20
-3.1174954743763625
 10
-18.489479436016758
 20
-3.144227181044525
 10
-18.358844203312174
 20
-3.170688642370123
 10
-18.22595217541147
 20
-3.196879858353157
 10
-18.090819472146546
 20
-3.222534375451028
 10
-17.953504646987106
 20
-3.2477894503930145
 10
-17.813945116505465
 20
-3.2725744398354877
 10
-17.672136850743655
 20
-3.2969559571640974
 10
-17.52814646308732
 20
-3.320938032336822
 10
-17.38197798349444
 20
-3.344454051968012
 10
-17.233627382007047
 20
-3.3675706294433176
 10
-17.08309465862512
 20
-3.390287764762737
 10
-16.930383843306657
 20
-3.4125388445406224
 10
-16.775557519479317
 20
-3.434394512120601
 10
-16.6186156871431
 20
-3.455854767502673
 10
-16.459495762870343
 20
-3.47684896734321
 10
-16.29832291351639
 20
-3.497518398329469
 10
-16.135034555653558
 20
-3.5177924171178203
 10
-15.969626659323874
 20
-3.5377376370939153
 10
-15.80216986787097
 20
-3.557291474830082
 10
-15.632676271168776
 20
-3.5762540901693716
 10
-15.461133779343358
 20
-3.594825323268733
 10
-15.287467719093108
 20
-3.6131343709414865
 10
-15.11188196053296
 20
-3.6311267096759186
 10
-14.934251336807563
 20
-3.6486610527847723
 10
-14.7545798778749
 20
-3.665670786882399
 10
-14.572992750590316
 20
-3.6822971986560535
 10
-14.389419311610178
 20
-3.698602871533408
 10
-14.203867620850444
 20
-3.7144545787431635
 10
-14.016404291696762
 20
-3.7298563502432973
 10
-13.827033354107115
 20
-3.7447415726481603
 10
-13.635742718207565
 20
-3.759310086114702
 10
-13.44254044391407
 20
-3.773428663871622
 10
-13.247418471310674
 20
-3.787230532690221
 10
-13.050522117042606
 20
-3.8005239123295054
 10
-12.851714124380592
 20
-3.813367356259169
 10
-12.651061106710287
 20
-3.8257648944371896
 10
-12.448625647459352
 20
-3.8377871702071955
 10
-12.2443491931581
 20
-3.8492969268399087
 10
-12.038290297276225
 20
-3.860431421064608
 10
-11.830519603157349
 20
-3.8711280694536208
 10
-11.620911943946137
 20
-3.8812455853196917
 10
-11.409600546413884
 20
-3.8907920285787783
 10
-11.196573320686651
 20
-3.8999672393878275
 10
-10.98183026676445
 20
-3.9087712177468408
 10
-10.76537138464727
 20
-3.9172039636558176
 10
-10.547275377594698
 20
-3.925069666915789
 10
-10.327550305522692
 20
-3.932235100755453
 10
-10.106113435213691
 20
-3.9389626887594313
 10
-9.883097993438989
 20
-3.9452604908436806
 10
-9.658445426728898
 20
-3.9509912502789235
 10
-9.432230408385024
 20
-3.956025770251838
 10
-9.204440848533428
 20
-3.9605638909193743
 10
-8.975135300643808
 20
-3.9647428690108097
 10
-8.744255211246468
 20
-3.9684254477968657
 10
-8.511812670215342
 20
-3.9714117871205947
 10
-8.277932844405774
 20
-3.973843173669252
 10
-8.042611703859784
 20
-3.9757862208284878
 10
-7.805716021806078
 20
-3.9772328686823446
 10
-7.567449668359576
 20
-3.978128593719108
 10
-7.327754090050592
 20
-3.9783361392095005
 10
-7.0866292868791225
 20
-3.977855505153523
 10
-6.844137842272836
 20
-3.976757334894802
 10
-6.600259606441848
 20
-3.9753746953615865
 10
-6.355073282645735
 20
-3.9735117763549064
 10
-6.108528377330765
 20
-3.9708980943741836
 10
-5.860620860538963
 20
-3.9676002628050684
 10
-5.61148395904162
 20
-3.9636263415635185
 10
-5.361034939621179
 20
-3.959238754234152
 10
-5.109348475579244
 20
-3.9543083040036486
 10
-4.856424566915815
 20
-3.9488349908720104
 10
-4.602271273546849
 20
-3.942685588067936
 10
-4.346884565514372
 20
-3.935926708977076
 10
-4.090389609673722
 20
-3.9286996402866854
 10
-3.8326612391695565
 20
-3.9208630953095085
 10
-3.5738407406891284
 20
-3.912291907190204
 10
-3.313924084274466
 20
-3.903052689314421
 10
-3.052907239967588
 20
-3.893212055067808
 10
-2.7907276243408212
 20
-3.8826993611067375
 10
-2.527593137467079
 20
-3.871393470533847
 10
-2.2634411959186758
 20
-3.8592237400055067
 10
-1.9981810065621037
 20
-3.8465858198776366
 10
-1.7319498261266362
 20
-3.833421156680544
 10
-1.4648384477457925
 20
-3.8193341000583088
 10
-1.1967015547743445
 20
-3.8045164302519234
 10
-0.9276017306399543
 20
-3.7890387906050167
 10
-0.6576802620298824
 20
-3.772776014262245
 10
-0.38680795213080754
 20
-3.7556534279220033
 10
-0.11511802771402546
 20
-3.7376790915002474
 10
0.15747224443801827
 20
-3.7191154285815977
 10
0.43088819102372233
 20
-3.699833242352732
 10
0.7050430488675539
 20
-3.679503495843383
 10
0.9800155212290786
 20
-3.6583219992525198
 10
1.2557551145545798
 20
-3.6365592360807195
 10
1.5321831376743336
 20
-3.6140195959691686
 10
1.80936282686921
 20
-3.590643226942714
 10
2.087235999425644
 20
-3.5665735141621133
 10
2.3657865476016036
 20
-3.5415442039249254
 10
2.645014479457004
 20
-3.515555429457921
 10
2.924869301438105
 20
-3.488877674261677
 10
3.205288446237065
 20
-3.461581848133365
 10
3.486334501311524
 20
-3.433597374342741
 10
3.767928767431842
 20
-3.4047285093042214
 10
4.050079308543943
 20
-3.3751085464024904
 10
4.332786140767658
 20
-3.344737752091091
 10
4.615982646687375
 20
-3.3136200897146155
 10
4.899656748519036
 20
-3.2815559189562733
 10
5.183816506178598
 20
-3.2486784665873616
 10
5.468344812726673
 20
-3.2152622460664375
 10
5.753370881096415
 20
-3.1812328505454364
 10
6.038749390612632
 20
-3.1463984331699804
 10
6.3245509926788674
 20
-3.1108217105945117
 10
6.610642460523825
 20
-3.074510742734988
 10
6.897094441521085
 20
-3.037528179632466
 10
7.18390290974263
 20
-2.9998074745146805
 10
7.470938668375141
 20
-2.9614233006832404
 10
7.758276390720225
 20
-2.9225048549514634
 10
8.04591205890977
 20
-2.8829857237738596
 10
8.333708404124632
 20
-2.8428071538405777
 10
8.621736077768354
 20
-2.80203186180606
 10
8.909936526371238
 20
-2.7607971043995847
 10
9.198360247516986
 20
-2.718832464733961
 10
9.486882066290336
 20
-2.6762790962696723
 10
9.77551004260724
 20
-2.63327022577802
 10
10.064240150539684
 20
-2.5897393064867376
 10
10.353064330171714
 20
-2.545553111624528
 10
10.641990645449237
 20
-2.500844934576074
 10
10.930893909367121
 20
-2.455755728961705
 10
11.21983268345498
 20
-2.4101483712789147
 10
11.508752444201093
 20
-2.3642267316426295
 10
11.797641093671615
 20
-2.3177908366691287
 10
12.08649460593852
 20
-2.27077413958615
 10
12.375321040917779
 20
-2.223309867164992
 10
12.663999237532257
 20
-2.1756055197982453
 10
12.952595821257502
 20
-2.127657267368089
 10
13.241032080773987
 20
-2.0792691664487837
 10
13.5293120379798
 20
-2.0305076971992038
 10
13.817435696904882
 20
-1.9813729262327375
 10
14.105407079447307
 20
-1.9319313337082618
 10
14.393088908727998
 20
-1.8821240330891564
 10
14.680551840180462
 20
-1.83201380764325
 10
14.96773326619727
 20
-1.7816709010338556
 10
15.254707880229835
 20
-1.7312248431412223
 10
15.541326299405311
 20
-1.6804166408182384
 10
15.827592557711638
 20
-1.6293129740639387
 10
16.11359341832436
 20
-1.5782428798485924
 10
16.399171454574514
 20
-1.526814404707331
 10
16.684322624414243
 20
-1.4749607354143481
 10
16.96913773306696
 20
-1.4230777221657194
 10
17.253491581437626
 20
-1.3713061187416153
 10
17.537426611223964
 20
-1.3192423480969324
 10
17.820880222878458
 20
-1.2669567871217549
 10
18.103785778835725
 20
-1.2144530660937483
 10
18.38621796448723
 20
-1.1618605816663892
 10
18.66811417625551
 20
-1.109249644116378
 10
18.949478432008686
 20
-1.056686666989207
 10
19.230236046355266
 20
-1.0040422536313987
 10
19.510378943259454
 20
-0.9511829108181113
 10
19.789919208565248
 20
-0.898308412092908
 10
20.068856838242677
 20
-0.8454186908424031
 10
20.34706259114888
 20
-0.7925876876209604
 10
20.624669722264866
 20
-0.7398078088063236
 10
20.901532874645813
 20
-0.6868866080236435
 10
21.17765607018981
 20
-0.6338905654317982
 10
21.45305944256688
 20
-0.5811524815054944
 10
21.727738965849028
 20
-0.528605809472466
 10
22.001553300959543
 20
-0.47612451650335863
 10
22.2746397328374
 20
-0.4237676223615639
 10
22.546860960423786
 20
-0.37147584083014773
 10
22.818283605164265
 20
-0.3192452751779026
 10
23.08884908537944
 20
-0.26721271584040607
 10
23.358490759473952
 20
-0.2153817264819382
 10
23.627283312839296
 20
-0.163881703755975
 10
23.895081376440764
 20
-0.11252000144751234
 10
24.16201820525937
 20
-0.06128902593429276
 10
24.427956498236306
 20
-0.010129490999380689
 10
24.692920414969635
 20
0.04055925611025366
 10
24.956843317893973
 20
0.09077358511694658
 10
25.219834282242456
 20
0.1409207699568527
 10
25.4816893653609
 20
0.19105653318262733
 10
25.742574061894164
 20
0.24065556133133265
 10
26.002351066753437
 20
0.2897772072332875
 10
26.26100423995705
 20
0.3386882574980195
 10
26.51853357344505
 20
0.3873888453522994
 10
26.774943085085585
 20
0.43581255725063556
 10
27.0302529166086
 20
0.4836264594915497
 10
27.284321716847522
 20
0.5309567847445561
 10
27.537270662999298
 20
0.5780107669487033
 10
27.788966463813303
 20
0.6247814120022054
 10
28.0394171671156
 20
0.671135692973919
 10
28.28863082476225
 20
0.7169405163193168
 10
28.53659936071746
 20
0.7623293752632408
 10
28.78325612129599
 20
0.807298905981569
 10
29.02867579591929
 20
0.851719645207438
 10
29.272725093336742
 20
0.8955845988390618
 10
29.51545855317986
 20
0.9390973705378237
 10
29.756742876138134
 20
0.98225109942871
 10
29.99678603079374
 20
1.0249235161868
 10
30.235329502621298
 20
1.0669672726104504
 10
30.47250656272165
 20
1.1083896958683765
 10
30.70831316501699
 20
1.1492576657997702
 10
30.942607958340705
 20
1.1896974150741433
 10
31.175394952501023
 20
1.2296426633727757
 10
31.406811444526785
 20
1.2690341910921177
 10
31.636661535559934
 20
1.3077947604670688
 10
31.865019906962008
 20
1.3457950414575366
 10
32.09180781517383
 20
1.3832315103963488
 10
32.31708785571296
 20
1.4201746107869755
 10
32.540797404852135
 20
1.4565543654196453
 10
32.76293644647152
 20
1.4923710407479018
 10
32.98345041272988
 20
1.5274214994040596
 10
33.202393847288704
 20
1.5619092784361164
 10
33.41963747676547
 20
1.5957609701967947
 10
33.635239866719765
 20
1.6291136315752142
 10
33.84921309896557
 20
1.6617675556411977
 10
34.06149454171577
 20
1.6936528984117463
 10
34.27207208897654
 20
1.7249697664973487
 10
34.48094572865805
 20
1.7557183597381636
 10
34.688115444640445
 20
1.7858989445877336
 10
34.89345599752915
 20
1.8153714333997442
 10
35.097108718340955
 20
1.8440099265716103
 10
35.29898679957079
 20
1.8721441938208445
 10
35.49902761346142
 20
1.8997043245510603
 10
35.6972977854884
 20
1.9266941488800797
 10
35.89373871785248
 20
1.952977142825867
 10
36.0882797228805
 20
1.9786166225633355
 10
36.281050045745275
 20
2.0036864620334636
 10
36.47192846895028
 20
2.027980093431059
 10
36.66090692048969
 20
2.051630943367578
 10
36.84798941823159
 20
2.0745725982975274
 10
37.0331638521523
 20
2.0970052314447845
 10
37.21643827007785
 20
2.1187958158782076
 10
37.397746010263134
 20
2.139941121000445
 10
37.57709109057624
 20
2.1603747332660057
 10
37.75453611459462
 20
2.180166962951587
 10
37.92994374498985
 20
2.199377695794597
 10
38.103313961612145
 20
2.218007264861963
 10
38.274717431984854
 20
2.2359926870456994
 10
38.44415819009596
 20
2.2532672823467728
 10
38.61149092333014
 20
2.2700227643927877
 10
38.77678189849668
 20
2.2862688918928877
 10
38.94004359637543
 20
2.3017993631917193
 10
39.10120518018479
 20
2.3166799591594613
 10
39.26025858194888
 20
2.331044039794186
 10
39.417278495119106
 20
2.3447620752156446
 10
39.572135638253016
 20
2.3577607910033285
 10
39.724888584970095
 20
2.3701771108195877
 10
39.875533293222496
 20
2.3820778478902276
 10
40.02400310529503
 20
2.3934597050045134
 10
40.170306069013776
 20
2.4041896552313022
 10
40.314438134270986
 20
2.414334645023172
 10
40.45639123309075
 20
2.424028034378192
 10
40.59616937931124
 20
2.433203476364258
 10
40.73371397916318
 20
2.4417243803859456
 10
40.869025012496785
 20
2.449591079510186
 10
41.00215300107548
 20
2.457073590943854
 10
41.13303530908216
 20
2.464102137317338
 10
41.26167193248685
 20
2.47067678524402
 10
41.38806688109775
 20
2.476731254405182
 10
41.512153501229626
 20
2.482262180976699
 10
41.63399842238795
 20
2.487273328463009
 10
41.753526935001524
 20
2.491894493197904
 10
41.87074707883648
 20
2.4959927814770104
 10
41.985650785916974
 20
2.4997015532984017
 10
42.09831275372433
 20
2.502891212168442
 10
42.20859161497216
 20
2.5056882572101857
 10
42.31654997726787
 20
2.5081629320869476
 10
42.42212521285424
 20
2.5102453262023423
 10
42.525387989254675
 20
2.5118724564483847
 10
42.62626355659834
 20
2.513174785292722
 10
42.72482659221682
 20
2.5140230493086495
 10
42.820931952753064
 20
2.5146061643615747
 10
42.914716637019026
 20
2.514869840238486
 10
43.006047458543016
 20
2.514805350889572
 10
43.09499105489041
 20
2.5144163265924955
 10
43.18154741800128
 20
2.513702900574028
 10
43.26571250582781
 20
2.5127318860599774
 10
43.34742369867268
 20
2.511433239227186
 10
43.42667292050012
 20
2.5099404533004948
 10
43.50353085092336
 20
2.5081903453317613
 10
43.57792679420932
 20
2.5062463647226716
 10
43.64986477628602
 20
2.504041964700961
 10
43.71934076316556
 20
2.5016438252656648
 10
43.786358772716
 20
2.4989855328712913
 10
43.85091477094942
 20
2.4961337675168744
 10
43.9130006939199
 20
2.4932218225870986
 10
43.97255793979827
 20
2.490113240713316
 10
44.029715777937064
 20
2.48688149615619
 10
44.08427021732265
 20
2.4835831108290045
 10
44.13642523687878
 20
2.4801617626586325
 10
44.18604752923503
 20
2.476610723996831
 10
44.23312903044547
 20
2.4730632882282837
 10
44.27774041609339
 20
2.469456339018235
 10
44.31981502846361
 20
2.4657865791559486
 10
44.35934480764017
 20
2.4621872354127237
 10
44.396404455134395
 20
2.4585286446815395
 10
44.43091926137503
 20
2.454940603296188
 10
44.46289324826016
 20
2.451356631097791
 10
44.49231835587383
 20
2.4479099548576477
 10
44.519198614173995
 20
2.444533961190108
 10
44.543596634798035
 20
2.4412988271451
 10
44.565379114405474
 20
2.4381977584609955
 10
44.58460867672356
 20
2.4353007323475664
 10
44.601351967377575
 20
2.432611245855703
 10
44.61547568302704
 20
2.430122504723778
 10
44.62703840938133
 20
2.427971232773985
 10
44.63611083814352
 20
2.426094047218022
 10
44.64255158993737
 20
2.4246176470191037
 10
44.64642330057998
 20
2.4236118095468426
 10
44.64771789806553
 20
2.423209961412697
  0
ENDSEC
  0
SECTION
  2
OBJECTS
  0
DICTIONARY
  5
A
330
0
100
AcDbDictionary
280
0
281
1
  3
ACAD_COLOR
350
B
  3
ACAD_GROUP
350
C
  3
ACAD_LAYOUT
350
D
  3
ACAD_MATERIAL
350
E
  3
ACAD_MLEADERSTYLE
350
F
  3
ACAD_MLINESTYLE
350
10
  3
ACAD_PLOTSETTINGS
350
11
  3
ACAD_PLOTSTYLENAME
350
12
  3
ACAD_SCALELIST
350
14
  3
ACAD_TABLESTYLE
350
15
  3
ACAD_VISUALSTYLE
350
16
  3
EZDXF_META
350
2D
  0
DICTIONARY
  5
B
330
A
100
AcDbDictionary
280
0
281
1
  0
DICTIONARY
  5
C
330
A
100
AcDbDictionary
280
0
281
1
  0
DICTIONARY
  5
D
330
A
100
AcDbDictionary
280
0
281
1
  3
Model
350
1A
  3
Layout1
350
1E
  0
DICTIONARY
  5
E
330
A
100
AcDbDictionary
280
0
281
1
  3
ByBlock
350
1F
  3
ByLayer
350
20
  3
Global
350
21
  0
DICTIONARY
  5
F
330
A
100
AcDbDictionary
280
0
281
1
  3
Standard
350
2C
  0
DICTIONARY
  5
10
330
A
100
AcDbDictionary
280
0
281
1
  3
Standard
350
22
  0
DICTIONARY
  5
11
330
A
100
AcDbDictionary
280
0
281
1
  0
ACDBDICTIONARYWDFLT
  5
12
330
A
100
AcDbDictionary
280
0
281
1
  3
Normal
350
13
100
AcDbDictionaryWithDefault
340
13
  0
ACDBPLACEHOLDER
  5
13
330
12
  0
DICTIONARY
  5
14
330
A
100
AcDbDictionary
280
0
281
1
  0
DICTIONARY
  5
15
330
A
100
AcDbDictionary
280
0
281
1
  0
DICTIONARY
  5
16
330
A
100
AcDbDictionary
280
0
281
1
  0
LAYOUT
  5
1A
330
D
100
AcDbPlotSettings
  1

  4
A3
  6

 40
7.5
 41
20.0
 42
7.5
 43
20.0
 44
420.0
 45
297.0
 46
0.0
 47
0.0
 48
0.0
 49
0.0
140
0.0
141
0.0
142
1.0
143
1.0
 70
1024
 72
1
 73
0
 74
5
  7

 75
16
 76
0
 77
2
 78
300
147
1.0
148
0.0
149
0.0
100
AcDbLayout
  1
Model
 70
1
 71
0
 10
0.0
 20
0.0
 11
420.0
 21
297.0
 12
0.0
 22
0.0
 32
0.0
 14
1e+20
 24
1e+20
 34
1e+20
 15
-1e+20
 25
-1e+20
 35
-1e+20
146
0.0
 13
0.0
 23
0.0
 33
0.0
 16
1.0
 26
0.0
 36
0.0
 17
0.0
 27
1.0
 37
0.0
 76
1
330
17
  0
LAYOUT
  5
1E
330
D
100
AcDbPlotSettings
  1

  4
A3
  6

 40
7.5
 41
20.0
 42
7.5
 43
20.0
 44
420.0
 45
297.0
 46
0.0
 47
0.0
 48
0.0
 49
0.0
140
0.0
141
0.0
142
1.0
143
1.0
 70
0
 72
1
 73
0
 74
5
  7

 75
16
 76
0
 77
2
 78
300
147
1.0
148
0.0
149
0.0
100
AcDbLayout
  1
Layout1
 70
1
 71
1
 10
0.0
 20
0.0
 11
420.0
 21
297.0
 12
0.0
 22
0.0
 32
0.0
 14
1e+20
 24
1e+20
 34
1e+20
 15
-1e+20
 25
-1e+20
 35
-1e+20
146
0.0
 13
0.0
 23
0.0
 33
0.0
 16
1.0
 26
0.0
 36
0.0
 17
0.0
 27
1.0
 37
0.0
 76
1
330
1B
  0
MATERIAL
  5
1F
102
{ACAD_REACTORS
330
E
102
}
330
E
100
AcDbMaterial
  1
ByBlock
  2

 70
0
 40
1.0
 71
1
 41
1.0
 91
-1023410177
 42
1.0
 72
1
  3

 73
1
 74
1
 75
1
 44
0.5
 73
0
 45
1.0
 46
1.0
 77
1
  4

 78
1
 79
1
170
1
 48
1.0
171
1
  6

172
1
173
1
174
1
140
1.0
141
1.0
175
1
  7

176
1
177
1
178
1
143
1.0
179
1
  8

270
1
271
1
272
1
145
1.0
146
1.0
273
1
  9

274
1
275
1
276
1
 42
1.0
 72
1
  3

 73
1
 74
1
 75
1
 94
63
  0
MATERIAL
  5
20
102
{ACAD_REACTORS
330
E
102
}
330
E
100
AcDbMaterial
  1
ByLayer
  2

 70
0
 40
1.0
 71
1
 41
1.0
 91
-1023410177
 42
1.0
 72
1
  3

 73
1
 74
1
 75
1
 44
0.5
 73
0
 45
1.0
 46
1.0
 77
1
  4

 78
1
 79
1
170
1
 48
1.0
171
1
  6

172
1
173
1
174
1
140
1.0
141
1.0
175
1
  7

176
1
177
1
178
1
143
1.0
179
1
  8

270
1
271
1
272
1
145
1.0
146
1.0
273
1
  9

274
1
275
1
276
1
 42
1.0
 72
1
  3

 73
1
 74
1
 75
1
 94
63
  0
MATERIAL
  5
21
102
{ACAD_REACTORS
330
E
102
}
330
E
100
AcDbMaterial
  1
Global
  2

 70
0
 40
1.0
 71
1
 41
1.0
 91
-1023410177
 42
1.0
 72
1
  3

 73
1
 74
1
 75
1
 44
0.5
 73
0
 45
1.0
 46
1.0
 77
1
  4

 78
1
 79
1
170
1
 48
1.0
171
1
  6

172
1
173
1
174
1
140
1.0
141
1.0
175
1
  7

176
1
177
1
178
1
143
1.0
179
1
  8

270
1
271
1
272
1
145
1.0
146
1.0
273
1
  9

274
1
275
1
276
1
 42
1.0
 72
1
  3

 73
1
 74
1
 75
1
 94
63
  0
MLINESTYLE
  5
22
102
{ACAD_REACTORS
330
10
102
}
330
10
100
AcDbMlineStyle
  2
Standard
 70
0
  3

 62
256
 51
90.0
 52
90.0
 71
2
 49
0.5
 62
256
  6
BYLAYER
 49
-0.5
 62
256
  6
BYLAYER
  0
MLEADERSTYLE
  5
2C
102
{ACAD_REACTORS
330
F
102
}
330
F
100
AcDbMLeaderStyle
179
2
170
2
171
1
172
0
 90
2
 40
0.0
 41
0.0
173
1
 91
-1056964608
 92
-2
290
1
 42
2.0
291
1
 43
8.0
  3
Standard
 44
4.0
300

342
29
174
1
175
1
176
0
178
1
 93
-1056964608
 45
4.0
292
0
297
0
 46
4.0
 94
-1056964608
 47
1.0
 49
1.0
140
1.0
294
1
141
0.0
177
0
142
1.0
295
0
296
0
143
3.75
271
0
272
9
273
9
  0
DICTIONARY
  5
2D
330
A
100
AcDbDictionary
280
1
281
1
  3
CREATED_BY_EZDXF
350
2E
  3
WRITTEN_BY_EZDXF
350
32
  0
DICTIONARYVAR
  5
2E
330
2D
100
DictionaryVariables
280
0
  1
1.3.5 @ 2025-08-20T01:58:17.407328+00:00
  0
DICTIONARYVAR
  5
32
330
2D
100
DictionaryVariables
280
0
  1
1.3.5 @ 2025-08-20T01:58:17.413286+00:00
  0
ENDSEC
  0
EOF
