  0
SECTION
  2
HEADER
  9
$ACADVER
  1
AC1032
  9
$ACADMAINTVER
 90
4
  9
$DWGCODEPAGE
  3
ANSI_1252
  9
$LASTSAVEDBY
  1
ezdxf
  9
$REQUIREDVERSIONS
160
0
  9
$INSBASE
 10
0.0
 20
0.0
 30
0.0
  9
$EXTMIN
 10
1e+20
 20
1e+20
 30
1e+20
  9
$EXTMAX
 10
-1e+20
 20
-1e+20
 30
-1e+20
  9
$LIMMIN
 10
0.0
 20
0.0
  9
$LIMMAX
 10
420.0
 20
297.0
  9
$ORTHOMODE
 70
0
  9
$REGENMODE
 70
1
  9
$FILLMODE
 70
1
  9
$QTEXTMODE
 70
0
  9
$MIRRTEXT
 70
1
  9
$LTSCALE
 40
1.0
  9
$ATTMODE
 70
1
  9
$TEXTSIZE
 40
2.5
  9
$TRACEWID
 40
1.0
  9
$TEXTSTYLE
  7
Standard
  9
$CLAYER
  8
0
  9
$CELTYPE
  6
ByLayer
  9
$CECOLOR
 62
256
  9
$CELTSCALE
 40
1.0
  9
$DISPSILH
 70
0
  9
$DIMSCALE
 40
1.0
  9
$DIMASZ
 40
2.5
  9
$DIMEXO
 40
0.625
  9
$DIMDLI
 40
3.75
  9
$DIMRND
 40
0.0
  9
$DIMDLE
 40
0.0
  9
$DIMEXE
 40
1.25
  9
$DIMTP
 40
0.0
  9
$DIMTM
 40
0.0
  9
$DIMTXT
 40
2.5
  9
$DIMCEN
 40
2.5
  9
$DIMTSZ
 40
0.0
  9
$DIMTOL
 70
0
  9
$DIMLIM
 70
0
  9
$DIMTIH
 70
0
  9
$DIMTOH
 70
0
  9
$DIMSE1
 70
0
  9
$DIMSE2
 70
0
  9
$DIMTAD
 70
1
  9
$DIMZIN
 70
8
  9
$DIMBLK
  1

  9
$DIMASO
 70
1
  9
$DIMSHO
 70
1
  9
$DIMPOST
  1

  9
$DIMAPOST
  1

  9
$DIMALT
 70
0
  9
$DIMALTD
 70
3
  9
$DIMALTF
 40
0.03937007874
  9
$DIMLFAC
 40
1.0
  9
$DIMTOFL
 70
1
  9
$DIMTVP
 40
0.0
  9
$DIMTIX
 70
0
  9
$DIMSOXD
 70
0
  9
$DIMSAH
 70
0
  9
$DIMBLK1
  1

  9
$DIMBLK2
  1

  9
$DIMSTYLE
  2
ISO-25
  9
$DIMCLRD
 70
0
  9
$DIMCLRE
 70
0
  9
$DIMCLRT
 70
0
  9
$DIMTFAC
 40
1.0
  9
$DIMGAP
 40
0.625
  9
$DIMJUST
 70
0
  9
$DIMSD1
 70
0
  9
$DIMSD2
 70
0
  9
$DIMTOLJ
 70
0
  9
$DIMTZIN
 70
8
  9
$DIMALTZ
 70
0
  9
$DIMALTTZ
 70
0
  9
$DIMUPT
 70
0
  9
$DIMDEC
 70
2
  9
$DIMTDEC
 70
2
  9
$DIMALTU
 70
2
  9
$DIMALTTD
 70
3
  9
$DIMTXSTY
  7
Standard
  9
$DIMAUNIT
 70
0
  9
$DIMADEC
 70
0
  9
$DIMALTRND
 40
0.0
  9
$DIMAZIN
 70
0
  9
$DIMDSEP
 70
44
  9
$DIMATFIT
 70
3
  9
$DIMFRAC
 70
0
  9
$DIMLDRBLK
  1

  9
$DIMLUNIT
 70
2
  9
$DIMLWD
 70
-2
  9
$DIMLWE
 70
-2
  9
$DIMTMOVE
 70
0
  9
$DIMFXL
 40
1.0
  9
$DIMFXLON
 70
0
  9
$DIMJOGANG
 40
0.785398163397
  9
$DIMTFILL
 70
0
  9
$DIMTFILLCLR
 70
0
  9
$DIMARCSYM
 70
0
  9
$DIMLTYPE
  6

  9
$DIMLTEX1
  6

  9
$DIMLTEX2
  6

  9
$DIMTXTDIRECTION
 70
0
  9
$LUNITS
 70
2
  9
$LUPREC
 70
4
  9
$SKETCHINC
 40
1.0
  9
$FILLETRAD
 40
10.0
  9
$AUNITS
 70
0
  9
$AUPREC
 70
2
  9
$MENU
  1
.
  9
$ELEVATION
 40
0.0
  9
$PELEVATION
 40
0.0
  9
$THICKNESS
 40
0.0
  9
$LIMCHECK
 70
0
  9
$CHAMFERA
 40
0.0
  9
$CHAMFERB
 40
0.0
  9
$CHAMFERC
 40
0.0
  9
$CHAMFERD
 40
0.0
  9
$SKPOLY
 70
0
  9
$TDCREATE
 40
2460908.1238078703
  9
$TDUCREATE
 40
2458532.153996898
  9
$TDUPDATE
 40
2460908.1238078703
  9
$TDUUPDATE
 40
2458532.1544311
  9
$TDINDWG
 40
0.0
  9
$TDUSRTIMER
 40
0.0
  9
$USRTIMER
 70
1
  9
$ANGBASE
 50
0.0
  9
$ANGDIR
 70
0
  9
$PDMODE
 70
0
  9
$PDSIZE
 40
0.0
  9
$PLINEWID
 40
0.0
  9
$SPLFRAME
 70
0
  9
$SPLINETYPE
 70
6
  9
$SPLINESEGS
 70
8
  9
$HANDSEED
  5
33
  9
$SURFTAB1
 70
6
  9
$SURFTAB2
 70
6
  9
$SURFTYPE
 70
6
  9
$SURFU
 70
6
  9
$SURFV
 70
6
  9
$UCSBASE
  2

  9
$UCSNAME
  2

  9
$UCSORG
 10
0.0
 20
0.0
 30
0.0
  9
$UCSXDIR
 10
1.0
 20
0.0
 30
0.0
  9
$UCSYDIR
 10
0.0
 20
1.0
 30
0.0
  9
$UCSORTHOREF
  2

  9
$UCSORTHOVIEW
 70
0
  9
$UCSORGTOP
 10
0.0
 20
0.0
 30
0.0
  9
$UCSORGBOTTOM
 10
0.0
 20
0.0
 30
0.0
  9
$UCSORGLEFT
 10
0.0
 20
0.0
 30
0.0
  9
$UCSORGRIGHT
 10
0.0
 20
0.0
 30
0.0
  9
$UCSORGFRONT
 10
0.0
 20
0.0
 30
0.0
  9
$UCSORGBACK
 10
0.0
 20
0.0
 30
0.0
  9
$PUCSBASE
  2

  9
$PUCSNAME
  2

  9
$PUCSORG
 10
0.0
 20
0.0
 30
0.0
  9
$PUCSXDIR
 10
1.0
 20
0.0
 30
0.0
  9
$PUCSYDIR
 10
0.0
 20
1.0
 30
0.0
  9
$PUCSORTHOREF
  2

  9
$PUCSORTHOVIEW
 70
0
  9
$PUCSORGTOP
 10
0.0
 20
0.0
 30
0.0
  9
$PUCSORGBOTTOM
 10
0.0
 20
0.0
 30
0.0
  9
$PUCSORGLEFT
 10
0.0
 20
0.0
 30
0.0
  9
$PUCSORGRIGHT
 10
0.0
 20
0.0
 30
0.0
  9
$PUCSORGFRONT
 10
0.0
 20
0.0
 30
0.0
  9
$PUCSORGBACK
 10
0.0
 20
0.0
 30
0.0
  9
$USERI1
 70
0
  9
$USERI2
 70
0
  9
$USERI3
 70
0
  9
$USERI4
 70
0
  9
$USERI5
 70
0
  9
$USERR1
 40
0.0
  9
$USERR2
 40
0.0
  9
$USERR3
 40
0.0
  9
$USERR4
 40
0.0
  9
$USERR5
 40
0.0
  9
$WORLDVIEW
 70
1
  9
$SHADEDGE
 70
3
  9
$SHADEDIF
 70
70
  9
$TILEMODE
 70
1
  9
$MAXACTVP
 70
64
  9
$PINSBASE
 10
0.0
 20
0.0
 30
0.0
  9
$PLIMCHECK
 70
0
  9
$PEXTMIN
 10
1e+20
 20
1e+20
 30
1e+20
  9
$PEXTMAX
 10
-1e+20
 20
-1e+20
 30
-1e+20
  9
$PLIMMIN
 10
0.0
 20
0.0
  9
$PLIMMAX
 10
420.0
 20
297.0
  9
$UNITMODE
 70
0
  9
$VISRETAIN
 70
1
  9
$PLINEGEN
 70
0
  9
$PSLTSCALE
 70
1
  9
$TREEDEPTH
 70
3020
  9
$CMLSTYLE
  2
Standard
  9
$CMLJUST
 70
0
  9
$CMLSCALE
 40
20.0
  9
$PROXYGRAPHICS
 70
1
  9
$MEASUREMENT
 70
1
  9
$CELWEIGHT
370
-1
  9
$ENDCAPS
280
0
  9
$JOINSTYLE
280
0
  9
$LWDISPLAY
290
0
  9
$INSUNITS
 70
6
  9
$HYPERLINKBASE
  1

  9
$STYLESHEET
  1

  9
$XEDIT
290
1
  9
$CEPSNTYPE
380
0
  9
$PSTYLEMODE
290
1
  9
$FINGERPRINTGUID
  2
{1A8752D6-5611-48B3-BD62-E196B3904A6F}
  9
$VERSIONGUID
  2
{CE5BD204-30D4-448D-B7E6-EAF9C7DE7BD1}
  9
$EXTNAMES
290
1
  9
$PSVPSCALE
 40
0.0
  9
$OLESTARTUP
290
0
  9
$SORTENTS
280
127
  9
$INDEXCTL
280
0
  9
$HIDETEXT
280
1
  9
$XCLIPFRAME
280
1
  9
$HALOGAP
280
0
  9
$OBSCOLOR
 70
257
  9
$OBSLTYPE
280
0
  9
$INTERSECTIONDISPLAY
280
0
  9
$INTERSECTIONCOLOR
 70
257
  9
$DIMASSOC
280
2
  9
$PROJECTNAME
  1

  9
$CAMERADISPLAY
290
0
  9
$LENSLENGTH
 40
50.0
  9
$CAMERAHEIGHT
 40
0.0
  9
$STEPSPERSEC
 40
24.0
  9
$STEPSIZE
 40
100.0
  9
$3DDWFPREC
 40
2.0
  9
$PSOLWIDTH
 40
0.005
  9
$PSOLHEIGHT
 40
0.08
  9
$LOFTANG1
 40
1.570796326795
  9
$LOFTANG2
 40
1.570796326795
  9
$LOFTMAG1
 40
0.0
  9
$LOFTMAG2
 40
0.0
  9
$LOFTPARAM
 70
7
  9
$LOFTNORMALS
280
1
  9
$LATITUDE
 40
37.795
  9
$LONGITUDE
 40
-122.394
  9
$NORTHDIRECTION
 40
0.0
  9
$TIMEZONE
 70
-8000
  9
$LIGHTGLYPHDISPLAY
280
1
  9
$TILEMODELIGHTSYNCH
280
1
  9
$CMATERIAL
347
20
  9
$SOLIDHIST
280
0
  9
$SHOWHIST
280
1
  9
$DWFFRAME
280
2
  9
$DGNFRAME
280
2
  9
$REALWORLDSCALE
290
1
  9
$INTERFERECOLOR
 62
256
  9
$CSHADOW
280
0
  9
$SHADOWPLANELOCATION
 40
0.0
  0
ENDSEC
  0
SECTION
  2
CLASSES
  0
CLASS
  1
ACDBDICTIONARYWDFLT
  2
AcDbDictionaryWithDefault
  3
ObjectDBX Classes
 90
0
 91
0
280
0
281
0
  0
CLASS
  1
SUN
  2
AcDbSun
  3
SCENEOE
 90
1153
 91
0
280
0
281
0
  0
CLASS
  1
VISUALSTYLE
  2
AcDbVisualStyle
  3
ObjectDBX Classes
 90
4095
 91
0
280
0
281
0
  0
CLASS
  1
MATERIAL
  2
AcDbMaterial
  3
ObjectDBX Classes
 90
1153
 91
0
280
0
281
0
  0
CLASS
  1
SCALE
  2
AcDbScale
  3
ObjectDBX Classes
 90
1153
 91
0
280
0
281
0
  0
CLASS
  1
TABLESTYLE
  2
AcDbTableStyle
  3
ObjectDBX Classes
 90
4095
 91
0
280
0
281
0
  0
CLASS
  1
MLEADERSTYLE
  2
AcDbMLeaderStyle
  3
ACDB_MLEADERSTYLE_CLASS
 90
4095
 91
0
280
0
281
0
  0
CLASS
  1
DICTIONARYVAR
  2
AcDbDictionaryVar
  3
ObjectDBX Classes
 90
0
 91
0
280
0
281
0
  0
CLASS
  1
CELLSTYLEMAP
  2
AcDbCellStyleMap
  3
ObjectDBX Classes
 90
1152
 91
0
280
0
281
0
  0
CLASS
  1
MENTALRAYRENDERSETTINGS
  2
AcDbMentalRayRenderSettings
  3
SCENEOE
 90
1024
 91
0
280
0
281
0
  0
CLASS
  1
ACDBDETAILVIEWSTYLE
  2
AcDbDetailViewStyle
  3
ObjectDBX Classes
 90
1025
 91
0
280
0
281
0
  0
CLASS
  1
ACDBSECTIONVIEWSTYLE
  2
AcDbSectionViewStyle
  3
ObjectDBX Classes
 90
1025
 91
0
280
0
281
0
  0
CLASS
  1
RASTERVARIABLES
  2
AcDbRasterVariables
  3
ISM
 90
0
 91
0
280
0
281
0
  0
CLASS
  1
LAYOUT
  2
AcDbLayout
  3
ObjectDBX Classes
 90
0
 91
0
280
0
281
0
  0
CLASS
  1
ACDBPLACEHOLDER
  2
AcDbPlaceHolder
  3
ObjectDBX Classes
 90
0
 91
0
280
0
281
0
  0
ENDSEC
  0
SECTION
  2
TABLES
  0
TABLE
  2
VPORT
  5
8
330
0
100
AcDbSymbolTable
 70
1
  0
VPORT
  5
23
330
8
100
AcDbSymbolTableRecord
100
AcDbViewportTableRecord
  2
*Active
 70
0
 10
0.0
 20
0.0
 11
1.0
 21
1.0
 12
0.0
 22
0.0
 13
0.0
 23
0.0
 14
0.5
 24
0.5
 15
0.5
 25
0.5
 16
0.0
 26
0.0
 36
1.0
 17
0.0
 27
0.0
 37
0.0
 40
1000.0
 41
1.34
 42
50.0
 43
0.0
 44
0.0
 50
0.0
 51
0.0
 71
0
 72
1000
 73
1
 74
3
 75
0
 76
0
 77
0
 78
0
281
0
 65
0
146
0.0
  0
ENDTAB
  0
TABLE
  2
LTYPE
  5
2
330
0
100
AcDbSymbolTable
 70
3
  0
LTYPE
  5
24
330
2
100
AcDbSymbolTableRecord
100
AcDbLinetypeTableRecord
  2
ByBlock
 70
0
  3

 72
65
 73
0
 40
0.0
  0
LTYPE
  5
25
330
2
100
AcDbSymbolTableRecord
100
AcDbLinetypeTableRecord
  2
ByLayer
 70
0
  3

 72
65
 73
0
 40
0.0
  0
LTYPE
  5
26
330
2
100
AcDbSymbolTableRecord
100
AcDbLinetypeTableRecord
  2
Continuous
 70
0
  3

 72
65
 73
0
 40
0.0
  0
ENDTAB
  0
TABLE
  2
LAYER
  5
1
330
0
100
AcDbSymbolTable
 70
2
  0
LAYER
  5
27
330
1
100
AcDbSymbolTableRecord
100
AcDbLayerTableRecord
  2
0
 70
0
 62
7
  6
Continuous
370
-3
390
13
347
21
  0
LAYER
  5
28
330
1
100
AcDbSymbolTableRecord
100
AcDbLayerTableRecord
  2
Defpoints
 70
0
 62
7
  6
Continuous
290
0
370
-3
390
13
347
21
  0
ENDTAB
  0
TABLE
  2
STYLE
  5
5
330
0
100
AcDbSymbolTable
 70
1
  0
STYLE
  5
29
330
5
100
AcDbSymbolTableRecord
100
AcDbTextStyleTableRecord
  2
Standard
 70
0
 40
0.0
 41
1.0
 50
0.0
 71
0
 42
2.5
  3
txt
  4

  0
ENDTAB
  0
TABLE
  2
VIEW
  5
7
330
0
100
AcDbSymbolTable
 70
0
  0
ENDTAB
  0
TABLE
  2
UCS
  5
6
330
0
100
AcDbSymbolTable
 70
0
  0
ENDTAB
  0
TABLE
  2
APPID
  5
3
330
0
100
AcDbSymbolTable
 70
3
  0
APPID
  5
2A
330
3
100
AcDbSymbolTableRecord
100
AcDbRegAppTableRecord
  2
ACAD
 70
0
  0
APPID
  5
30
330
3
100
AcDbSymbolTableRecord
100
AcDbRegAppTableRecord
  2
HATCHBACKGROUNDCOLOR
 70
0
  0
APPID
  5
31
330
3
100
AcDbSymbolTableRecord
100
AcDbRegAppTableRecord
  2
EZDXF
 70
0
  0
ENDTAB
  0
TABLE
  2
DIMSTYLE
  5
4
330
0
100
AcDbSymbolTable
 70
1
100
AcDbDimStyleTable
  0
DIMSTYLE
105
2B
330
4
100
AcDbSymbolTableRecord
100
AcDbDimStyleTableRecord
  2
Standard
 70
0
 40
1.0
 41
2.5
 42
0.625
 43
3.75
 44
1.25
 45
0.0
 46
0.0
 47
0.0
 48
0.0
 49
2.5
140
2.5
141
2.5
142
0.0
143
0.03937007874
144
1.0
145
0.0
146
1.0
147
0.625
148
0.0
 69
0
 70
0
 71
0
 72
0
 73
0
 74
0
 75
0
 76
0
 77
1
 78
8
 79
3
170
0
171
3
172
1
173
0
174
0
175
0
176
0
177
0
178
0
179
2
271
2
272
2
273
2
274
3
275
0
276
0
277
2
278
44
279
0
280
0
281
0
282
0
283
0
284
8
285
0
286
0
288
0
289
3
290
0
371
-2
372
-2
  0
ENDTAB
  0
TABLE
  2
BLOCK_RECORD
  5
9
330
0
100
AcDbSymbolTable
 70
2
  0
BLOCK_RECORD
  5
17
330
9
100
AcDbSymbolTableRecord
100
AcDbBlockTableRecord
  2
*Model_Space
340
1A
 70
0
280
1
281
0
  0
BLOCK_RECORD
  5
1B
330
9
100
AcDbSymbolTableRecord
100
AcDbBlockTableRecord
  2
*Paper_Space
340
1E
 70
0
280
1
281
0
  0
ENDTAB
  0
ENDSEC
  0
SECTION
  2
BLOCKS
  0
BLOCK
  5
18
330
17
100
AcDbEntity
  8
0
100
AcDbBlockBegin
  2
*Model_Space
 70
0
 10
0.0
 20
0.0
 30
0.0
  3
*Model_Space
  1

  0
ENDBLK
  5
19
330
17
100
AcDbEntity
  8
0
100
AcDbBlockEnd
  0
BLOCK
  5
1C
330
1B
100
AcDbEntity
  8
0
100
AcDbBlockBegin
  2
*Paper_Space
 70
0
 10
0.0
 20
0.0
 30
0.0
  3
*Paper_Space
  1

  0
ENDBLK
  5
1D
330
1B
100
AcDbEntity
  8
0
100
AcDbBlockEnd
  0
ENDSEC
  0
SECTION
  2
ENTITIES
  0
LWPOLYLINE
  5
2F
330
17
100
AcDbEntity
  8
0
100
AcDbPolyline
 90
721
 70
1
 10
88.55825654136333
 20
42.51623156861984
 10
88.55531161475221
 20
42.515936266729376
 10
88.54660304779526
 20
42.51478534928513
 10
88.53238282494154
 20
42.51224971935601
 10
88.51239330545268
 20
42.50852935971735
 10
88.48708691654082
 20
42.50335628121085
 10
88.45626899781897
 20
42.49679822547243
 10
88.41987072351625
 20
42.4886587166063
 10
88.37815564283395
 20
42.479066356498805
 10
88.33105493000114
 20
42.467824669254135
 10
88.27831075514919
 20
42.45513403476816
 10
88.22031275426907
 20
42.44085830790142
 10
88.15692899515166
 20
42.42493351864453
 10
88.08809643440212
 20
42.40749204051039
 10
88.01394115881007
 20
42.38826912647319
 10
87.9343369554991
 20
42.36752978830576
 10
87.84947867398641
 20
42.34520588725165
 10
87.75923438206281
 20
42.32123345330141
 10
87.66354103633354
 20
42.29574485996799
 10
87.56265640362375
 20
42.26853985972901
 10
87.45632252797803
 20
42.23981909722737
 10
87.3446654331427
 20
42.20931795781077
 10
87.227822518486
 20
42.177429922764915
 10
87.10546140903566
 20
42.1438299143076
 10
86.97797733402862
 20
42.10871103382867
 10
86.84510668122012
 20
42.07194481181524
 10
86.70698106760233
 20
42.03359588014427
 10
86.5636004301319
 20
41.99366437118932
 10
86.41490166237061
 20
41.95228279083679
 10
86.26088457518821
 20
41.9094515362072
 10
86.10167519233102
 20
41.86490599264826
 10
85.93714736396598
 20
41.81891103955932
 10
85.76749568743665
 20
41.771399067677905
 10
85.59252531322593
 20
41.72243821576055
 10
85.4123620759498
 20
41.67176426627544
 10
85.22701169494103
 20
41.619706201004846
 10
85.0364109376746
 20
41.566396790582225
 10
84.84074880824818
 20
41.51143917921586
 10
84.63976722461962
 20
41.4550342762957
 10
84.433792779385
 20
41.397178310195166
 10
84.22249862777461
 20
41.33787558203488
 10
84.00614825594641
 20
41.277254826074724
 10
83.78460966864787
 20
41.215252204678805
 10
83.5580145459145
 20
41.15193221735057
 10
83.32629393588863
 20
41.08709865294123
 10
83.08957951860577
 20
41.020816010954235
 10
82.84761321202382
 20
40.95328520077951
 10
82.60072154569548
 20
40.88450258316404
 10
82.34877252436819
 20
40.81440432047193
 10
82.09176602195518
 20
40.74299067745021
 10
81.82970172323945
 20
40.67026231596642
 10
81.56264839094861
 20
40.59641584428994
 10
81.2905369471381
 20
40.521255316018966
 10
81.01343609149204
 20
40.44497747179636
 10
80.7314085521883
 20
40.36745059997678
 10
80.44458035297313
 20
40.28841008590791
 10
80.15295696100567
 20
40.208185440866075
 10
79.85628035728713
 20
40.12697744186765
 10
79.5545502266005
 20
40.044786750780226
 10
79.24808744220927
 20
39.961280614195026
 10
78.93682870854498
 20
39.87659193511899
 10
78.62077389952087
 20
39.79072097829915
 10
78.29973356973551
 20
39.704065526141804
 10
77.97402274703282
 20
39.61596410820295
 10
77.64364702465869
 20
39.526745971011856
 10
77.30854317008814
 20
39.436543885201964
 10
76.96851608163043
 20
39.345426519023796
 10
76.62389222579486
 20
39.25339036559787
 10
76.2746025876804
 20
39.16023934614889
 10
75.92064704120017
 20
39.065973725423866
 10
75.56203105351338
 20
38.970923014699125
 10
75.19900654602564
 20
38.87455824941704
 10
74.83131549973821
 20
38.77708020659406
 10
74.45915823132744
 20
38.67875025875
 10
74.08253455166313
 20
38.5795688030054
 10
73.70143855228234
 20
38.47920725469854
 10
73.31580687457331
 20
38.37779864920991
 10
72.92590300469394
 20
38.27547172079937
 10
72.53146879755867
 20
38.17242751123039
 10
72.1326931942218
 20
38.06826929708476
 10
71.72970781167542
 20
37.96306171023945
 10
71.32251246078943
 20
37.85680514781502
 10
70.91098073955717
 20
37.749765018704835
 10
70.4951124588485
 20
37.64194172002943
 10
70.07497047292802
 20
37.53320327539646
 10
69.65088131134846
 20
37.423546045552875
 10
69.22251794020995
 20
37.31297472873981
 10
68.79001203954803
 20
37.20155382446072
 10
68.35368441958275
 20
37.08895071168035
 10
67.91333985253652
 20
36.97523432339622
 10
67.4689208882605
 20
36.86086627965056
 10
67.02055920679021
 20
36.74591107994679
 10
66.56811684136687
 20
36.629976434360835
 10
66.11204653441959
 20
36.512793691866825
 10
65.65209586019556
 20
36.39489287601045
 10
65.18832767295939
 20
36.27614201039935
 10
64.7206786771427
 20
36.15667399804047
 10
64.24940657652728
 20
36.03628872378497
 10
63.77451124502634
 20
35.91498645237988
 10
63.29586049825714
 20
35.79270374330983
 10
62.813654842026224
 20
35.669701571974116
 10
62.32776221803763
 20
35.54591623311036
 10
61.83844039311656
 20
35.4211474791962
 10
61.345689115089414
 20
35.29539583972568
 10
60.84964012703521
 20
35.16872568182876
 10
60.35009820117633
 20
35.041205938502976
 10
59.847068993802154
 20
34.91316572390409
 10
59.340609387670995
 20
34.78414460935155
 10
58.8310520729721
 20
34.654467010759994
 10
58.318385106692844
 20
34.523476023553016
 10
57.80254513022141
 20
34.39130468311108
 10
57.2836067517049
 20
34.25847831473878
 10
56.76150667557489
 20
34.12512982144304
 10
56.23616997846737
 20
33.99073453978691
 10
55.70825034992175
 20
33.85528386752915
 10
55.17741478453183
 20
33.71845405062275
 10
54.643737764357844
 20
33.580770679119254
 10
54.10702412466571
 20
33.44230255364274
 10
53.567600647181756
 20
33.303045505446136
 10
53.025524340751
 20
33.162538841101814
 10
52.48080086166284
 20
33.02111167476555
 10
51.933303870954056
 20
32.87902928295722
 10
51.38334845951194
 20
32.73563006285931
 10
50.83099748160111
 20
32.590782038079425
 10
50.276199458579
 20
32.445275280947975
 10
49.71875331724856
 20
32.29885000742729
 10
49.15885975254647
 20
32.1517667957961
 10
48.59689689875484
 20
32.00323166972399
 10
48.03280152334864
 20
31.853377399844383
 10
47.46644741345148
 20
31.702468997930147
 10
46.897645123661924
 20
31.550904246387567
 10
46.32691081806432
 20
31.398281326436788
 10
45.75423236451588
 20
31.24394373062196
 10
45.179816618589776
 20
31.088480092389485
 10
44.603084057589875
 20
30.93242526589969
 10
44.024418850347985
 20
30.775313594736822
 10
43.444072855226366
 20
30.616616246716816
 10
42.862184038983905
 20
30.456725511763764
 10
42.27842505250369
 20
30.295646749986343
 10
41.69299677985263
 20
30.13364014254278
 10
41.105830080042765
 20
29.97050987540479
 10
40.517182972072945
 20
29.806055171555982
 10
39.92718738815224
 20
29.64034000100574
 10
39.33571108085457
 20
29.473301055612232
 10
38.743018103728424
 20
29.305065878273737
 10
38.148844151051705
 20
29.135507455586026
 10
37.55332706349651
 20
28.965018342220223
 10
36.95652994750102
 20
28.79346603228989
 10
36.35876776786574
 20
28.620189187724552
 10
35.75991431171426
 20
28.445452820297042
 10
35.160170652243615
 20
28.269516714045025
 10
34.55920944033695
 20
28.0923862290772
 10
33.95742081633236
 20
27.913924161266014
 10
33.35486776058128
 20
27.733998269472075
 10
32.75161325343513
 20
27.552476312555985
 10
32.14753095593068
 20
27.369623567037603
 10
31.542690009055864
 20
27.185635846945214
 10
30.93709022368047
 20
27.000513549399333
 10
30.331052788284914
 20
26.81392325912363
 10
29.72450856188127
 20
26.62566916208984
 10
29.11765258311687
 20
26.435682722420935
 10
28.510427843146637
 20
26.244424633544515
 10
27.902512964359975
 20
26.052228707857466
 10
27.294298276225202
 20
25.858957344111708
 10
26.68615594151807
 20
25.663488113688604
 10
26.077707510739558
 20
25.466615654786157
 10
25.469154372303674
 20
25.268599089574472
 10
24.860490239487138
 20
25.069110627632913
 10
24.251778218728138
 20
24.868017763075045
 10
23.643093359477533
 20
24.665844894590858
 10
23.034366646834176
 20
24.46239594340506
 10
22.425919206235054
 20
24.25733762661481
 10
21.817618853297446
 20
24.05060650370475
 10
21.209666976435404
 20
23.842461696845003
 10
20.602000406167285
 20
23.633035844295488
 10
19.994808335720943
 20
23.421931693143964
 10
19.38802759561479
 20
23.209281881650377
 10
18.781727389880114
 20
22.995282091469466
 10
18.175586403949755
 20
22.780266002624618
 10
17.570247266958038
 20
22.56356625506907
 10
16.96570997890497
 20
22.34518284880283
 10
16.36191155943913
 20
22.12524802496529
 10
15.758788839078921
 20
21.903894421816386
 10
15.156537234732074
 20
21.68105270923803
 10
14.554961455577617
 20
21.456791952601282
 10
13.954388976819263
 20
21.23110652705044
 10
13.354945948289986
 20
21.00373155318615
 10
12.756569326594999
 20
20.77479940452134
 10
12.159196131382881
 20
20.544442322195398
 10
11.562889406048445
 20
20.312527932695424
 10
10.968039858320338
 20
20.078917840532245
 10
10.374389090939433
 20
19.843813616963356
 10
9.781943390629008
 20
19.607543052409397
 10
9.190885726937005
 20
19.369380971163967
 10
8.601354570969427
 20
19.12971860416306
 10
8.01316098167202
 20
18.88895267482486
 10
7.426361715716328
 20
18.646623019215834
 10
6.841347606917793
 20
18.40259097709979
 10
6.25799263153018
 20
18.15712116312903
 10
5.676290565873602
 20
17.909885654509413
 10
5.096380070184245
 20
17.66127528505638
 10
4.518254983825628
 20
17.410961999602275
 10
3.942116947385356
 20
17.159204390823152
 10
3.36751233582674
 20
16.906272962974057
 10
2.7948319829652366
 20
16.6520290558188
 10
2.2243280623800987
 20
16.395943175305746
 10
1.6559377198066974
 20
16.138147297827253
 10
1.0896041355301098
 20
15.8791017196904
 10
0.5253906051187287
 20
15.618673537888213
 10
-0.036639764989257875
 20
15.35673024653426
 10
-0.5963545382375128
 20
15.093334756649865
 10
-1.154012111885198
 20
14.828688639492501
 10
-1.7096059470354628
 20
14.563119155988755
 10
-2.262751496596121
 20
14.296159855481806
 10
-2.813322547690761
 20
14.02754572619881
 10
-3.3614449979788295
 20
13.757541118045046
 10
-3.907043717349904
 20
13.486329269565049
 10
-4.450240866286945
 20
13.213825692854915
 10
-4.990966925541659
 20
12.940225407701828
 10
-5.529152564995959
 20
12.665723831013516
 10
-6.0646779845834935
 20
12.38972842534352
 10
-6.597410810791352
 20
12.112302234086663
 10
-7.127533887080708
 20
11.834170168202297
 10
-7.655053500174826
 20
11.5550044372698
 10
-8.179641859653087
 20
11.27479875456588
 10
-8.701563712541304
 20
10.993427033300913
 10
-9.220554311813656
 20
10.711015360264533
 10
-9.73660737074686
 20
10.42789152587737
 10
-10.250050679761562
 20
10.1440618168627
 10
-10.760436648370769
 20
9.858927409050796
 10
-11.267878789917557
 20
9.573408630308737
 10
-11.772635564704451
 20
9.287707184267541
 10
-12.274461085875487
 20
9.000965786454925
 10
-12.772958232891934
 20
8.713373567055337
 10
-13.268448509451146
 20
8.425264603212687
 10
-13.760994958947938
 20
8.136771268439885
 10
-14.250471494592668
 20
7.847628815711121
 10
-14.736676412754342
 20
7.558095705328926
 10
-15.219874460458787
 20
7.268045850503668
 10
-15.699990020864616
 20
6.9780024585637115
 10
-16.176897007182205
 20
6.687700782483233
 10
-16.650532376016734
 20
6.397008448749328
 10
-17.12095917076303
 20
6.106057830874901
 10
-17.58817110469781
 20
5.815176719280584
 10
-18.05230055133396
 20
5.524302070571572
 10
-18.51295667685606
 20
5.233295224511667
 10
-18.97013948126411
 20
4.94215618110087
 10
-19.423918294676177
 20
4.650689523431461
 10
-19.8742237869742
 20
4.3590906684111586
 10
-20.3212450883426
 20
4.067756736578697
 10
-20.764912868663284
 20
3.7768831448417965
 10
-21.204974954357013
 20
3.4859403991488183
 10
-21.64156371893667
 20
3.194865456104951
 10
-22.074218998468734
 20
2.9037150723817287
 10
-22.503394670163452
 20
2.6127602817282485
 10
-22.929153777415646
 20
2.322133457657424
 10
-23.3512315731995
 20
2.031960686958881
 10
-23.769565014120193
 20
1.7421095961197086
 10
-24.184097343506195
 20
1.4521200212063679
 10
-24.59494836142385
 20
1.1625844996653107
 10
-25.00230719805762
 20
0.8739001520352615
 10
-25.405726262920496
 20
0.5854681541464903
 10
-25.805337929525393
 20
0.2972254626041868
 10
-26.201003537636137
 20
0.00956291122379215
 10
-26.59285546076563
 20
-0.27758254338950594
 10
-26.980956742308685
 20
-0.5640785277227991
 10
-27.364985878567943
 20
-0.8502591189199941
 10
-27.745068956333043
 20
-1.1358595699552803
 10
-28.121205975603978
 20
-1.4208798808286525
 10
-28.493649109960014
 20
-1.7047905574884783
 10
-28.862070568980517
 20
-1.987597886658031
 10
-29.226545969506848
 20
-2.2698250756656733
 10
-29.586816851236488
 20
-2.551673828142406
 10
-29.943003014235778
 20
-2.8325516066417813
 10
-30.29536291880725
 20
-3.11225670753279
 10
-30.643512017858743
 20
-3.391255581472257
 10
-30.98744402466698
 20
-3.669220438039551
 10
-31.327486729652584
 20
-3.946144990511386
 10
-31.66337538578975
 20
-4.221903152098137
 10
-31.994920862894023
 20
-4.4968920433385335
 10
-32.32231229114985
 20
-4.7707145436938445
 10
-32.64561271395204
 20
-5.043238279651161
 10
-32.9647590879058
 20
-5.314595624723395
 10
-33.27961903949819
 20
-5.584723535515729
 10
-33.59012952533442
 20
-5.853754385541071
 10
-33.896485962322195
 20
-6.121618844681327
 10
-34.19842360343572
 20
-6.388190826146874
 10
-34.4960685354646
 20
-6.653205582911884
 10
-34.78955941864505
 20
-6.91705394879181
 10
-35.07849913243831
 20
-7.179546793602205
 10
-35.362957006962496
 20
-7.440879534250796
 10
-35.64318521579687
 20
-7.700522676685947
 10
-35.919183758941415
 20
-7.958476220907652
 10
-36.19069417609361
 20
-8.214941870546921
 10
-36.45765342385862
 20
-8.470051999116658
 10
-36.720130832354556
 20
-8.724002023524596
 10
-36.978176871529676
 20
-8.976003989416544
 10
-37.231860871502064
 20
-9.226253313700242
 10
-37.48105674548209
 20
-9.4750147434015
 10
-37.72563211995685
 20
-9.722225235125498
 10
-37.965713081715975
 20
-9.967620041846429
 10
-38.20117354396982
 20
-10.211463910590107
 10
-38.43207655011324
 20
-10.45362446784362
 10
-38.658485143541
 20
-10.693969340094062
 10
-38.88014086395059
 20
-10.932700230972438
 10
-39.09723284152644
 20
-11.169420019940015
 10
-39.30964127620221
 20
-11.404721244443245
 10
-39.517485968044255
 20
-11.638011367035684
 10
-39.72070387365774
 20
-11.869422761230231
 10
-39.91923194964787
 20
-12.099087800539808
 10
-40.112937822501735
 20
-12.326943441569586
 10
-40.30201690912705
 20
-12.55292035420148
 10
-40.48652596619535
 20
-12.77655837450194
 10
-40.666338906917005
 20
-12.998122249496788
 10
-40.841455731292015
 20
-13.21761197918603
 10
-41.01207185622811
 20
-13.434958233451562
 10
-41.17785949130467
 20
-13.650167299016672
 10
-41.339077096824205
 20
-13.863037472250346
 10
-41.495718386063444
 20
-14.073240962731962
 10
-41.64791573253531
 20
-14.280840813856333
 10
-41.795410675937255
 20
-14.486038729254451
 10
-41.938398633176995
 20
-14.688765378808235
 10
-42.07661485722872
 20
-14.888894675728043
 10
-42.21045018190788
 20
-15.0862879597777
 10
-42.33970290358347
 20
-15.280686770654658
 10
-42.46437930897877
 20
-15.472418898779553
 10
-42.58447939809378
 20
-15.66148434415238
 10
-42.7000031709285
 20
-15.84788310677315
 10
-42.81094434075963
 20
-16.031287396221217
 10
-42.91730290758721
 20
-16.211697212496595
 10
-43.01902211473967
 20
-16.38957271953281
 10
-43.11615871888857
 20
-16.564453753396332
 10
-43.20846054645464
 20
-16.736869808138795
 10
-43.29617977101713
 20
-16.90629138970856
 10
-43.37906421899679
 20
-17.073247992157267
 10
-43.45723997718325
 20
-17.237474868459095
 10
-43.53070704557651
 20
-17.39897201861404
 10
-43.59927000726884
 20
-17.557808772740202
 10
-43.6633196960757
 20
-17.7138464706014
 10
-43.72226986127391
 20
-17.8672931025519
 10
-43.776643710191834
 20
-18.01807305175034
 10
-43.826113452408826
 20
-18.166192604919992
 10
-43.87086821810934
 20
-18.31125464152214
 10
-43.91091429401665
 20
-18.453586951977403
 10
-43.946182350012656
 20
-18.592994119378066
 10
-43.97692455967665
 20
-18.72894664967249
 10
-44.00308416633705
 20
-18.861904706794213
 10
-44.024654883270614
 20
-18.991540500322607
 10
-44.041762797266955
 20
-19.11758928323185
 10
-44.054660081905325
 20
-19.239521561470315
 10
-44.06334673718574
 20
-19.357337335037982
 10
-44.06808122341073
 20
-19.470834900303867
 10
-44.06891401052856
 20
-19.579226302913778
 10
-44.06622964563138
 20
-19.682045092210906
 10
-44.06079093618026
 20
-19.77803057646096
 10
-44.0527744389131
 20
-19.866130054283953
 10
-44.04332122165983
 20
-19.944288592868155
 10
-44.033572352250395
 20
-20.010451259401822
 10
-44.02477612513454
 20
-20.0613150027855
 10
-44.01864099869554
 20
-20.093633528591273
 10
-43.618245759178954
 20
-20.940830474096337
 10
-43.612515449298115
 20
-20.94638369875323
 10
-43.59538756305042
 20
-20.962910999211005
 10
-43.56711427401513
 20
-20.989882881418016
 10
-43.526491470967485
 20
-21.029486651698914
 10
-43.47245998964218
 20
-21.084628240614418
 10
-43.40816571305668
 20
-21.148361182098434
 10
-43.33543061293736
 20
-21.21651885385596
 10
-43.2553390004426
 20
-21.287506487008795
 10
-43.169082413350615
 20
-21.358481194391036
 10
-43.07709586870184
 20
-21.42818857099168
 10
-42.97995933049616
 20
-21.49609283603581
 10
-42.87779259879992
 20
-21.56160145207697
 10
-42.77084784719239
 20
-21.62418492506354
 10
-42.659251162463185
 20
-21.683578507969674
 10
-42.54300254461232
 20
-21.7397822007954
 10
-42.42229741054751
 20
-21.7927266734226
 10
-42.29712947354549
 20
-21.842084135430657
 10
-42.16743569021143
 20
-21.887986960332476
 10
-42.03341147745305
 20
-21.930365818009953
 10
-41.89479837496783
 20
-21.9694224120941
 10
-41.75165942615056
 20
-22.00502436907201
 10
-41.60438546481672
 20
-22.037033028707494
 10
-41.45239024024311
 20
-22.065656381354827
 10
-41.29613391636329
 20
-22.090951183685554
 10
-41.13528870275661
 20
-22.112923722422952
 10
-40.9700500163308
 20
-22.13150466744892
 10
-40.80048090048069
 20
-22.146561645250554
 10
-40.626392225021824
 20
-22.158491776366585
 10
-40.447910076743824
 20
-22.167030313771185
 10
-40.264782282067436
 20
-22.172706751516003
 10
-40.07719797117711
 20
-22.175123969062305
 10
-39.88516343079612
 20
-22.17460975683072
 10
-39.68854628741156
 20
-22.171101071426442
 10
-39.48722045423381
 20
-22.164862659875283
 10
-39.28138134817057
 20
-22.155825192059158
 10
-39.070965925827046
 20
-22.144121041490962
 10
-38.85597418720322
 20
-22.129750208170705
 10
-38.63608462860176
 20
-22.113046769242295
 10
-38.41162504044328
 20
-22.094004437982463
 10
-38.1823937190968
 20
-22.072364754088657
 10
-37.948655411588106
 20
-22.04825380435051
 10
-37.710151657614674
 20
-22.02187329239903
 10
-37.46701483068943
 20
-21.993286261629024
 10
-37.21917560069426
 20
-21.96229729513278
 10
-36.9668924279317
 20
-21.928704689279282
 10
-36.709969895494034
 20
-21.892577774186634
 10
-36.448609707012274
 20
-21.85417501015737
 10
-36.1826794889735
 20
-21.81343335379668
 10
-35.91217924137771
 20
-21.770352805104555
 10
-35.63729809440935
 20
-21.72453624354227
 10
-35.35816842158133
 20
-21.67604671250465
 10
-35.07465784938075
 20
-21.62482116859686
 10
-34.78677266453088
 20
-21.571187402239552
 10
-34.49451286703172
 20
-21.515145413432723
 10
-34.19813063046254
 20
-21.456165708124733
 10
-33.89763224154661
 20
-21.39457607673621
 10
-33.592948370165836
 20
-21.33018110235943
 10
-33.284015972925395
 20
-21.263113158507316
 10
-32.97096742333821
 20
-21.19343528857467
 10
-32.65386576479909
 20
-21.121015119048586
 10
-32.33264795391323
 20
-21.045985023441975
 10
-32.007313990680615
 20
-20.968345001754837
 10
-31.677926918496066
 20
-20.88796268047426
 10
-31.344556067477672
 20
-20.805033476507965
 10
-31.007201437625447
 20
-20.719557389855964
 10
-30.665793698821286
 20
-20.631339003610524
 10
-30.32047151130138
 20
-20.540769151587092
 10
-29.971165544947638
 20
-20.447652416877947
 10
-29.61781275636524
 20
-20.352121172996
 10
-29.260608562461904
 20
-20.254106089823154
 10
-28.899742093422088
 20
-20.153210046820682
 10
-28.535024219061345
 20
-20.04983016452731
 10
-28.16619647907713
 20
-19.944168146574043
 10
-27.793719037402994
 20
-19.83628074963242
 10
-27.417453233802732
 20
-19.725777139886983
 10
-27.03746211167118
 20
-19.612524943824834
 10
-26.653884331244512
 20
-19.496914995261417
 10
-26.26652447561501
 20
-19.379016624314822
 10
-25.8755086315723
 20
-19.258565083959233
 10
-25.480969172629294
 20
-19.13562341758947
 10
-25.08296914218081
 20
-19.010059251692617
 10
-24.681319410042395
 20
-18.882269706807406
 10
-24.276146063003686
 20
-18.75199003590802
 10
-23.867323014275055
 20
-18.61948498602027
 10
-23.455304141066755
 20
-18.484483523395063
 10
-23.03976165295816
 20
-18.34699193475568
 10
-22.620827923462176
 20
-18.207073263496934
 10
-22.1985722826969
 20
-18.064922926526542
 10
-21.772988443939056
 20
-17.920213133423886
 10
-21.34408269391192
 20
-17.77327167460959
 10
-20.912050449523207
 20
-17.62402921996556
 10
-20.476753050536743
 20
-17.472094935676342
 10
-20.038455243978337
 20
-17.31759490853158
 10
-19.59696789966355
 20
-17.160926259069992
 10
-19.152291017592383
 20
-17.002088987291575
 10
-18.704424597764827
 20
-16.84108309319634
 10
-18.25369014387824
 20
-16.67757449964036
 10
-17.800213742722256
 20
-16.511298459597832
 10
-17.34361084720471
 20
-16.34272142372557
 10
-16.884146204351413
 20
-16.171969478813203
 10
-16.421813527439078
 20
-15.998714834440094
 10
-15.956871276770258
 20
-15.82275578697525
 10
-15.489130322160506
 20
-15.644489456957393
 10
-15.018596950333093
 20
-15.464243634807154
 10
-14.545264874564749
 20
-15.281690530103901
 10
-14.069323225039913
 20
-15.09643302230891
 10
-13.590910661994778
 20
-14.908861945237625
 10
-13.109964142034519
 20
-14.719109672402956
 10
-12.626218918133333
 20
-14.527050117015273
 10
-12.14013515422475
 20
-14.332740035746113
 10
-11.651706563585503
 20
-14.135851638174843
 10
-11.16093314621558
 20
-13.936384924301462
 10
-10.667884232233074
 20
-13.73453531103369
 10
-10.172244604663927
 20
-13.530964665936086
 10
-9.674335767205474
 20
-13.32533891186472
 10
-9.174277519924075
 20
-13.11706551137315
 10
-8.672006819424924
 20
-12.906276837974291
 10
-8.167788412733815
 20
-12.693098978457755
 10
-7.6612377527585975
 20
-12.477998383480378
 10
-7.152613299801812
 20
-12.260773349411155
 10
-6.641915053863448
 20
-12.041423876250082
 10
-6.129269101733146
 20
-11.819685216971344
 10
-5.614612400016076
 20
-11.595689745087848
 10
-5.098083608948448
 20
-11.369828294415047
 10
-4.579544068294062
 20
-11.141710031137483
 10
-4.059384611868354
 20
-10.911196295018975
 10
-3.5375421962765254
 20
-10.678419459572428
 10
-3.013953778123758
 20
-10.443511898310756
 10
-2.488550027291959
 20
-10.20627819432623
 10
-1.9618541511094894
 20
-9.966642730777485
 10
-1.4337968194582351
 20
-9.724410090756782
 10
-0.9038673984564195
 20
-9.480311471946772
 10
-0.37239367852466215
 20
-9.234340587624173
 10
0.1601137064552253
 20
-8.985766240106347
 10
0.6941086336935147
 20
-8.734859463142389
 10
1.2295217730721166
 20
-8.481815673640021
 10
1.7659622907755737
 20
-8.226496211363058
 10
2.303631890434886
 20
-7.968642616008962
 10
2.8422658250242505
 20
-7.708380974367359
 10
3.382248641635819
 20
-7.446177737095074
 10
3.9233218799670624
 20
-7.181831200561102
 10
4.465037949530997
 20
-6.914742540595711
 10
5.007718354024971
 20
-6.645245834342816
 10
5.551482893515345
 20
-6.373933619248863
 10
6.096010253434937
 20
-6.100472215290487
 10
6.641379976931808
 20
-5.824687650069049
 10
7.187591577275
 20
-5.546919892368372
 10
7.734393070015438
 20
-5.266639845257358
 10
8.281784581239918
 20
-4.983847773483027
 10
8.829885911014776
 20
-4.699136214491843
 10
9.3786279813955
 20
-4.412701114685575
 10
9.928080185543603
 20
-4.124347189530005
 10
10.47792108280509
 20
-3.833740494254745
 10
11.028276823013005
 20
-3.54114590825912
 10
11.579147658340931
 20
-3.2465639610371797
 10
12.130401152232558
 20
-2.9500575636102306
 10
12.681848363633621
 20
-2.6512299925600824
 10
13.23361537933376
 20
-2.350345994912553
 10
13.785689625886405
 20
-2.0480611515089104
 10
14.338273059096146
 20
-1.7441175315406654
 10
14.890911738709326
 20
-1.4382439688852067
 10
15.44380120772045
 20
-1.1305100584076582
 10
15.996676719103705
 20
-0.8210418868976471
 10
16.549733752810212
 20
-0.5099089168467819
 10
17.102909328488547
 20
-0.19697890711566432
 10
17.65600174250772
 20
0.1174896819931706
 10
18.209269455170254
 20
0.4332951468487107
 10
18.76264961221152
 20
0.7505694638433288
 10
19.31581423408069
 20
1.069319316820841
 10
19.8689588637723
 20
1.389475110916135
 10
20.422077214563068
 20
1.7107090557085733
 10
20.975049549430025
 20
2.0336135562710913
 10
21.5277370820502
 20
2.357798043535274
 10
22.080265899213234
 20
2.682997770475298
 10
22.632573020567694
 20
3.0093449782305637
 10
23.184532359323928
 20
3.3371044138268737
 10
23.736270065315015
 20
3.666011197864923
 10
24.287647163087733
 20
3.995675158396802
 10
24.83867006545219
 20
4.326423821096137
 10
25.38939552907992
 20
4.657797022029379
 10
25.939634297699673
 20
4.990192146482279
 10
26.489323390960035
 20
5.323741435594239
 10
27.038588895650626
 20
5.658180142339427
 10
27.587354816669723
 20
5.992985853630579
 10
28.1357537166604
 20
6.328221215741966
 10
28.68346396583854
 20
6.664220570564525
 10
29.230548481512148
 20
7.000851809332374
 10
29.7770073267246
 20
7.3381147996719935
 10
30.32290341878397
 20
7.675877432817515
 10
30.867908652052616
 20
8.014146657359769
 10
31.412218632568454
 20
8.352852746060124
 10
31.95576365195301
 20
8.691801076251934
 10
32.498802485725825
 20
9.030789282436642
 10
33.04081764589124
 20
9.370221963237851
 10
33.58187223888746
 20
9.709966612769154
 10
34.1224138552015
 20
10.049424406860817
 10
34.66179917222169
 20
10.389264161668235
 10
35.19996495742298
 20
10.729618647824841
 10
35.73742203381737
 20
11.06975627052747
 10
36.27403123682152
 20
11.409287254948767
 10
36.809546805666244
 20
11.749068620813983
 10
37.34389915805985
 20
12.088905480709439
 10
37.87695554222907
 20
12.428735585481405
 10
38.40897460760666
 20
12.768356834378343
 10
38.939886708857486
 20
13.107574472360074
 10
39.46975470024624
 20
13.446256523034254
 10
39.99831993234015
 20
13.784605087152402
 10
40.52545606617604
 20
14.122885441234395
 10
41.05135216889495
 20
14.46070059711502
 10
41.576008177453495
 20
14.798050687167796
 10
42.09922169474331
 20
15.13467870719882
 10
42.62125790909398
 20
15.470709817383124
 10
43.14166231286129
 20
15.806416375204947
 10
43.66049782335329
 20
16.141666271898405
 10
44.17807940537043
 20
16.475798169392988
 10
44.69434407856135
 20
16.808944308828114
 10
45.208900189546426
 20
17.14124507129563
 10
45.722075970050064
 20
17.472693243457663
 10
46.2335429361743
 20
17.803296568146138
 10
46.74343358751881
 20
18.133117824008835
 10
47.25174119605658
 20
18.46183014723973
 10
47.7583329469709
 20
18.789371421058576
 10
48.263467489694534
 20
19.11553954471385
 10
48.76669012745305
 20
19.440607272810304
 10
49.268266048576066
 20
19.764699765522987
 10
49.767866769165565
 20
20.087824765683816
 10
50.265870234373494
 20
20.4091886940829
 10
50.76214369242656
 20
20.728729301566503
 10
51.25657407128546
 20
21.047365989387117
 10
51.74870007223556
 20
21.36504438359644
 10
52.23929123076494
 20
21.680830656266252
 10
52.72801899993223
 20
21.994732682601956
 10
53.21463089094121
 20
22.307280618522785
 10
53.699126777705054
 20
22.618474728775738
 10
54.181569514488444
 20
22.928183036968466
 10
54.66227419217863
 20
23.235743940283434
 10
55.14084896826587
 20
23.54129821693305
 10
55.617370090025474
 20
23.845367750510537
 10
56.091571801737295
 20
24.147828572202467
 10
56.5635800010608
 20
24.448416332103562
 10
57.03352064869882
 20
24.746866547935042
 10
57.501267405688154
 20
25.043444496216765
 10
57.96668726808188
 20
25.338088457289025
 10
58.43003894835621
 20
25.630596198026794
 10
58.89105669079099
 20
25.920843749616665
 10
59.34968399088822
 20
26.20929074649809
 10
59.805654966841004
 20
26.4958134846047
 10
60.259493897715394
 20
26.78033409674537
 10
60.71079548494756
 20
27.062339633520452
 10
61.159825169040644
 20
27.341954725610893
 10
61.60651965442628
 20
27.61931227602369
 10
62.05048709859466
 20
27.894553062971205
 10
62.491790229723655
 20
28.16754537480811
 10
62.930757468667856
 20
28.438281601076003
 10
63.367053351328636
 20
28.706443150294806
 10
63.80093646409535
 20
28.971828054086487
 10
64.23208467283665
 20
29.234771713330083
 10
64.66056749680087
 20
29.495469147812795
 10
65.08631497543593
 20
29.753726264362015
 10
65.50932685656828
 20
30.009543592471807
 10
65.92965920339208
 20
30.26246242431726
 10
66.34725557445283
 20
30.51294226196436
 10
66.76191306829493
 20
30.760727160207292
 10
67.17363816077193
 20
31.006144512346186
 10
67.5826198559814
 20
31.248797462589305
 10
67.9887880672846
 20
31.48849218251111
 10
68.39195341232346
 20
31.72562632214436
 10
68.79211570196779
 20
31.9602002786096
 10
69.18927468404404
 20
32.19221458140089
 10
69.58329056353489
 20
32.421280779426
 10
69.97455486773312
 20
32.647258756340094
 10
70.36261931267441
 20
32.87074879242157
 10
70.74741387476334
 20
33.09155692687133
 10
71.129071116643
 20
33.30974580596365
 10
71.50758405811277
 20
33.52498909538654
 10
71.88275658878757
 20
33.73735758136674
 10
72.25479116881914
 20
33.94710813572462
 10
72.62361092049821
 20
34.15372019860211
 10
72.98908956790498
 20
34.35745891414554
 10
73.35128996530408
 20
34.55819230596254
 10
73.7100226672941
 20
34.756318156459436
 10
74.06541357153442
 20
34.951572115730904
 10
74.41732954799149
 20
35.143892728864316
 10
74.76583345092988
 20
35.33314801946728
 10
75.11099492568465
 20
35.51953274257995
 10
75.45248492096732
 20
35.703055832395904
 10
75.79030312156087
 20
35.88371795078266
 10
76.12464532263341
 20
36.06144897338108
 10
76.45557463062318
 20
36.23611639430473
 10
76.78263723136328
 20
36.4079911149292
 10
77.1059600766346
 20
36.57714756277139
 10
77.42573841183102
 20
36.74317577706186
 10
77.74177379396174
 20
36.90615144184728
 10
78.05394001015044
 20
37.066339568900524
 10
78.36249583591658
 20
37.223537792723036
 10
78.66723824371785
 20
37.37749043285601
 10
78.96817383549454
 20
37.52852461785253
 10
79.26523937872162
 20
37.67677311834605
 10
79.55830180640886
 20
37.82217434705041
 10
79.84748701621572
 20
37.96446395406031
 10
80.13273164953038
 20
38.10377497475623
 10
80.41390949347645
 20
38.240372420911015
 10
80.69108333927515
 20
38.3741244485058
 10
80.96424626976922
 20
38.50470459085509
 10
81.23339796974172
 20
38.63211350982644
 10
81.49841908043004
 20
38.75694281625173
 10
81.759239452152
 20
38.878998814078884
 10
82.01585902186417
 20
38.99828163568143
 10
82.26834051774439
 20
39.114659569414
 10
82.51655093584581
 20
39.22807089561692
 10
82.76062290185496
 20
39.33857812819098
 10
83.00029738807866
 20
39.44638416212878
 10
83.23570016608964
 20
39.55122491227205
 10
83.46670502301141
 20
39.653365390393645
 10
83.69357079740695
 20
39.752603098621485
 10
83.9159053945929
 20
39.84907934466202
 10
84.1337785229477
 20
39.9429887511819
 10
84.34712015887591
 20
40.034137357382036
 10
84.55612609754563
 20
40.122455038903254
 10
84.76053668082983
 20
40.208146014473314
 10
84.96061043207445
 20
40.291008448087695
 10
85.1558961849352
 20
40.37130768143444
 10
85.3467176950554
 20
40.44904589969507
 10
85.53281084584323
 20
40.524095692344865
 10
85.71430838907197
 20
40.59651930853754
 10
85.89121019865482
 20
40.66631701302015
 10
86.06345304206678
 20
40.7336215764261
 10
86.23096702179915
 20
40.798238773209306
 10
86.39362579888882
 20
40.860433879889634
 10
86.55162535763398
 20
40.92013637498738
 10
86.70476946156285
 20
40.97741730947629
 10
86.85312109102681
 20
41.032144442216996
 10
86.9966171395876
 20
41.08445027909588
 10
87.13532046150993
 20
41.1342028437206
 10
87.26916795035558
 20
41.18153464197759
 10
87.39803345629149
 20
41.22671055326615
 10
87.52190993607365
 20
41.26940437564782
 10
87.6410002281142
 20
41.309872186701895
 10
87.7548422771777
 20
41.348061200962235
 10
87.8638979493694
 20
41.38402460101552
 10
87.9679012367956
 20
41.4176389475424
 10
88.06672598962321
 20
41.44916911994217
 10
88.16056812910715
 20
41.47854472910866
 10
88.24929458825719
 20
41.505704187755704
 10
88.33277928028366
 20
41.53091224290908
 10
88.41128110679287
 20
41.55396626432325
 10
88.48454104009177
 20
41.57506914699079
 10
88.55262199748833
 20
41.59408878214584
 10
88.61539789219295
 20
41.611289916814194
 10
88.67293176760042
 20
41.62654017748297
 10
88.72529339513264
 20
41.64003405444528
 10
88.77221682993923
 20
41.651647976008256
 10
88.81377203257229
 20
41.66157603534448
 10
88.85009188089185
 20
41.66988021686068
 10
88.88091043004765
 20
41.676436948863966
 10
88.90623447111005
 20
41.68157296278685
 10
88.92626017750753
 20
41.6852173400291
 10
88.94059526542661
 20
41.6875117854177
 10
88.94930988454946
 20
41.68864999500471
 10
88.9522777589563
 20
41.68889711293647
  0
ENDSEC
  0
SECTION
  2
OBJECTS
  0
DICTIONARY
  5
A
330
0
100
AcDbDictionary
280
0
281
1
  3
ACAD_COLOR
350
B
  3
ACAD_GROUP
350
C
  3
ACAD_LAYOUT
350
D
  3
ACAD_MATERIAL
350
E
  3
ACAD_MLEADERSTYLE
350
F
  3
ACAD_MLINESTYLE
350
10
  3
ACAD_PLOTSETTINGS
350
11
  3
ACAD_PLOTSTYLENAME
350
12
  3
ACAD_SCALELIST
350
14
  3
ACAD_TABLESTYLE
350
15
  3
ACAD_VISUALSTYLE
350
16
  3
EZDXF_META
350
2D
  0
DICTIONARY
  5
B
330
A
100
AcDbDictionary
280
0
281
1
  0
DICTIONARY
  5
C
330
A
100
AcDbDictionary
280
0
281
1
  0
DICTIONARY
  5
D
330
A
100
AcDbDictionary
280
0
281
1
  3
Model
350
1A
  3
Layout1
350
1E
  0
DICTIONARY
  5
E
330
A
100
AcDbDictionary
280
0
281
1
  3
ByBlock
350
1F
  3
ByLayer
350
20
  3
Global
350
21
  0
DICTIONARY
  5
F
330
A
100
AcDbDictionary
280
0
281
1
  3
Standard
350
2C
  0
DICTIONARY
  5
10
330
A
100
AcDbDictionary
280
0
281
1
  3
Standard
350
22
  0
DICTIONARY
  5
11
330
A
100
AcDbDictionary
280
0
281
1
  0
ACDBDICTIONARYWDFLT
  5
12
330
A
100
AcDbDictionary
280
0
281
1
  3
Normal
350
13
100
AcDbDictionaryWithDefault
340
13
  0
ACDBPLACEHOLDER
  5
13
330
12
  0
DICTIONARY
  5
14
330
A
100
AcDbDictionary
280
0
281
1
  0
DICTIONARY
  5
15
330
A
100
AcDbDictionary
280
0
281
1
  0
DICTIONARY
  5
16
330
A
100
AcDbDictionary
280
0
281
1
  0
LAYOUT
  5
1A
330
D
100
AcDbPlotSettings
  1

  4
A3
  6

 40
7.5
 41
20.0
 42
7.5
 43
20.0
 44
420.0
 45
297.0
 46
0.0
 47
0.0
 48
0.0
 49
0.0
140
0.0
141
0.0
142
1.0
143
1.0
 70
1024
 72
1
 73
0
 74
5
  7

 75
16
 76
0
 77
2
 78
300
147
1.0
148
0.0
149
0.0
100
AcDbLayout
  1
Model
 70
1
 71
0
 10
0.0
 20
0.0
 11
420.0
 21
297.0
 12
0.0
 22
0.0
 32
0.0
 14
1e+20
 24
1e+20
 34
1e+20
 15
-1e+20
 25
-1e+20
 35
-1e+20
146
0.0
 13
0.0
 23
0.0
 33
0.0
 16
1.0
 26
0.0
 36
0.0
 17
0.0
 27
1.0
 37
0.0
 76
1
330
17
  0
LAYOUT
  5
1E
330
D
100
AcDbPlotSettings
  1

  4
A3
  6

 40
7.5
 41
20.0
 42
7.5
 43
20.0
 44
420.0
 45
297.0
 46
0.0
 47
0.0
 48
0.0
 49
0.0
140
0.0
141
0.0
142
1.0
143
1.0
 70
0
 72
1
 73
0
 74
5
  7

 75
16
 76
0
 77
2
 78
300
147
1.0
148
0.0
149
0.0
100
AcDbLayout
  1
Layout1
 70
1
 71
1
 10
0.0
 20
0.0
 11
420.0
 21
297.0
 12
0.0
 22
0.0
 32
0.0
 14
1e+20
 24
1e+20
 34
1e+20
 15
-1e+20
 25
-1e+20
 35
-1e+20
146
0.0
 13
0.0
 23
0.0
 33
0.0
 16
1.0
 26
0.0
 36
0.0
 17
0.0
 27
1.0
 37
0.0
 76
1
330
1B
  0
MATERIAL
  5
1F
102
{ACAD_REACTORS
330
E
102
}
330
E
100
AcDbMaterial
  1
ByBlock
  2

 70
0
 40
1.0
 71
1
 41
1.0
 91
-1023410177
 42
1.0
 72
1
  3

 73
1
 74
1
 75
1
 44
0.5
 73
0
 45
1.0
 46
1.0
 77
1
  4

 78
1
 79
1
170
1
 48
1.0
171
1
  6

172
1
173
1
174
1
140
1.0
141
1.0
175
1
  7

176
1
177
1
178
1
143
1.0
179
1
  8

270
1
271
1
272
1
145
1.0
146
1.0
273
1
  9

274
1
275
1
276
1
 42
1.0
 72
1
  3

 73
1
 74
1
 75
1
 94
63
  0
MATERIAL
  5
20
102
{ACAD_REACTORS
330
E
102
}
330
E
100
AcDbMaterial
  1
ByLayer
  2

 70
0
 40
1.0
 71
1
 41
1.0
 91
-1023410177
 42
1.0
 72
1
  3

 73
1
 74
1
 75
1
 44
0.5
 73
0
 45
1.0
 46
1.0
 77
1
  4

 78
1
 79
1
170
1
 48
1.0
171
1
  6

172
1
173
1
174
1
140
1.0
141
1.0
175
1
  7

176
1
177
1
178
1
143
1.0
179
1
  8

270
1
271
1
272
1
145
1.0
146
1.0
273
1
  9

274
1
275
1
276
1
 42
1.0
 72
1
  3

 73
1
 74
1
 75
1
 94
63
  0
MATERIAL
  5
21
102
{ACAD_REACTORS
330
E
102
}
330
E
100
AcDbMaterial
  1
Global
  2

 70
0
 40
1.0
 71
1
 41
1.0
 91
-1023410177
 42
1.0
 72
1
  3

 73
1
 74
1
 75
1
 44
0.5
 73
0
 45
1.0
 46
1.0
 77
1
  4

 78
1
 79
1
170
1
 48
1.0
171
1
  6

172
1
173
1
174
1
140
1.0
141
1.0
175
1
  7

176
1
177
1
178
1
143
1.0
179
1
  8

270
1
271
1
272
1
145
1.0
146
1.0
273
1
  9

274
1
275
1
276
1
 42
1.0
 72
1
  3

 73
1
 74
1
 75
1
 94
63
  0
MLINESTYLE
  5
22
102
{ACAD_REACTORS
330
10
102
}
330
10
100
AcDbMlineStyle
  2
Standard
 70
0
  3

 62
256
 51
90.0
 52
90.0
 71
2
 49
0.5
 62
256
  6
BYLAYER
 49
-0.5
 62
256
  6
BYLAYER
  0
MLEADERSTYLE
  5
2C
102
{ACAD_REACTORS
330
F
102
}
330
F
100
AcDbMLeaderStyle
179
2
170
2
171
1
172
0
 90
2
 40
0.0
 41
0.0
173
1
 91
-1056964608
 92
-2
290
1
 42
2.0
291
1
 43
8.0
  3
Standard
 44
4.0
300

342
29
174
1
175
1
176
0
178
1
 93
-1056964608
 45
4.0
292
0
297
0
 46
4.0
 94
-1056964608
 47
1.0
 49
1.0
140
1.0
294
1
141
0.0
177
0
142
1.0
295
0
296
0
143
3.75
271
0
272
9
273
9
  0
DICTIONARY
  5
2D
330
A
100
AcDbDictionary
280
1
281
1
  3
CREATED_BY_EZDXF
350
2E
  3
WRITTEN_BY_EZDXF
350
32
  0
DICTIONARYVAR
  5
2E
330
2D
100
DictionaryVariables
280
0
  1
1.3.5 @ 2025-08-20T01:58:17.146065+00:00
  0
DICTIONARYVAR
  5
32
330
2D
100
DictionaryVariables
280
0
  1
1.3.5 @ 2025-08-20T01:58:17.152017+00:00
  0
ENDSEC
  0
EOF
