  0
SECTION
  2
HEADER
  9
$ACADVER
  1
AC1032
  9
$ACADMAINTVER
 90
4
  9
$DWGCODEPAGE
  3
ANSI_1252
  9
$LASTSAVEDBY
  1
ezdxf
  9
$REQUIREDVERSIONS
160
0
  9
$INSBASE
 10
0.0
 20
0.0
 30
0.0
  9
$EXTMIN
 10
1e+20
 20
1e+20
 30
1e+20
  9
$EXTMAX
 10
-1e+20
 20
-1e+20
 30
-1e+20
  9
$LIMMIN
 10
0.0
 20
0.0
  9
$LIMMAX
 10
420.0
 20
297.0
  9
$ORTHOMODE
 70
0
  9
$REGENMODE
 70
1
  9
$FILLMODE
 70
1
  9
$QTEXTMODE
 70
0
  9
$MIRRTEXT
 70
1
  9
$LTSCALE
 40
1.0
  9
$ATTMODE
 70
1
  9
$TEXTSIZE
 40
2.5
  9
$TRACEWID
 40
1.0
  9
$TEXTSTYLE
  7
Standard
  9
$CLAYER
  8
0
  9
$CELTYPE
  6
ByLayer
  9
$CECOLOR
 62
256
  9
$CELTSCALE
 40
1.0
  9
$DISPSILH
 70
0
  9
$DIMSCALE
 40
1.0
  9
$DIMASZ
 40
2.5
  9
$DIMEXO
 40
0.625
  9
$DIMDLI
 40
3.75
  9
$DIMRND
 40
0.0
  9
$DIMDLE
 40
0.0
  9
$DIMEXE
 40
1.25
  9
$DIMTP
 40
0.0
  9
$DIMTM
 40
0.0
  9
$DIMTXT
 40
2.5
  9
$DIMCEN
 40
2.5
  9
$DIMTSZ
 40
0.0
  9
$DIMTOL
 70
0
  9
$DIMLIM
 70
0
  9
$DIMTIH
 70
0
  9
$DIMTOH
 70
0
  9
$DIMSE1
 70
0
  9
$DIMSE2
 70
0
  9
$DIMTAD
 70
1
  9
$DIMZIN
 70
8
  9
$DIMBLK
  1

  9
$DIMASO
 70
1
  9
$DIMSHO
 70
1
  9
$DIMPOST
  1

  9
$DIMAPOST
  1

  9
$DIMALT
 70
0
  9
$DIMALTD
 70
3
  9
$DIMALTF
 40
0.03937007874
  9
$DIMLFAC
 40
1.0
  9
$DIMTOFL
 70
1
  9
$DIMTVP
 40
0.0
  9
$DIMTIX
 70
0
  9
$DIMSOXD
 70
0
  9
$DIMSAH
 70
0
  9
$DIMBLK1
  1

  9
$DIMBLK2
  1

  9
$DIMSTYLE
  2
ISO-25
  9
$DIMCLRD
 70
0
  9
$DIMCLRE
 70
0
  9
$DIMCLRT
 70
0
  9
$DIMTFAC
 40
1.0
  9
$DIMGAP
 40
0.625
  9
$DIMJUST
 70
0
  9
$DIMSD1
 70
0
  9
$DIMSD2
 70
0
  9
$DIMTOLJ
 70
0
  9
$DIMTZIN
 70
8
  9
$DIMALTZ
 70
0
  9
$DIMALTTZ
 70
0
  9
$DIMUPT
 70
0
  9
$DIMDEC
 70
2
  9
$DIMTDEC
 70
2
  9
$DIMALTU
 70
2
  9
$DIMALTTD
 70
3
  9
$DIMTXSTY
  7
Standard
  9
$DIMAUNIT
 70
0
  9
$DIMADEC
 70
0
  9
$DIMALTRND
 40
0.0
  9
$DIMAZIN
 70
0
  9
$DIMDSEP
 70
44
  9
$DIMATFIT
 70
3
  9
$DIMFRAC
 70
0
  9
$DIMLDRBLK
  1

  9
$DIMLUNIT
 70
2
  9
$DIMLWD
 70
-2
  9
$DIMLWE
 70
-2
  9
$DIMTMOVE
 70
0
  9
$DIMFXL
 40
1.0
  9
$DIMFXLON
 70
0
  9
$DIMJOGANG
 40
0.785398163397
  9
$DIMTFILL
 70
0
  9
$DIMTFILLCLR
 70
0
  9
$DIMARCSYM
 70
0
  9
$DIMLTYPE
  6

  9
$DIMLTEX1
  6

  9
$DIMLTEX2
  6

  9
$DIMTXTDIRECTION
 70
0
  9
$LUNITS
 70
2
  9
$LUPREC
 70
4
  9
$SKETCHINC
 40
1.0
  9
$FILLETRAD
 40
10.0
  9
$AUNITS
 70
0
  9
$AUPREC
 70
2
  9
$MENU
  1
.
  9
$ELEVATION
 40
0.0
  9
$PELEVATION
 40
0.0
  9
$THICKNESS
 40
0.0
  9
$LIMCHECK
 70
0
  9
$CHAMFERA
 40
0.0
  9
$CHAMFERB
 40
0.0
  9
$CHAMFERC
 40
0.0
  9
$CHAMFERD
 40
0.0
  9
$SKPOLY
 70
0
  9
$TDCREATE
 40
2460908.1238078703
  9
$TDUCREATE
 40
2458532.153996898
  9
$TDUPDATE
 40
2460908.1238078703
  9
$TDUUPDATE
 40
2458532.1544311
  9
$TDINDWG
 40
0.0
  9
$TDUSRTIMER
 40
0.0
  9
$USRTIMER
 70
1
  9
$ANGBASE
 50
0.0
  9
$ANGDIR
 70
0
  9
$PDMODE
 70
0
  9
$PDSIZE
 40
0.0
  9
$PLINEWID
 40
0.0
  9
$SPLFRAME
 70
0
  9
$SPLINETYPE
 70
6
  9
$SPLINESEGS
 70
8
  9
$HANDSEED
  5
33
  9
$SURFTAB1
 70
6
  9
$SURFTAB2
 70
6
  9
$SURFTYPE
 70
6
  9
$SURFU
 70
6
  9
$SURFV
 70
6
  9
$UCSBASE
  2

  9
$UCSNAME
  2

  9
$UCSORG
 10
0.0
 20
0.0
 30
0.0
  9
$UCSXDIR
 10
1.0
 20
0.0
 30
0.0
  9
$UCSYDIR
 10
0.0
 20
1.0
 30
0.0
  9
$UCSORTHOREF
  2

  9
$UCSORTHOVIEW
 70
0
  9
$UCSORGTOP
 10
0.0
 20
0.0
 30
0.0
  9
$UCSORGBOTTOM
 10
0.0
 20
0.0
 30
0.0
  9
$UCSORGLEFT
 10
0.0
 20
0.0
 30
0.0
  9
$UCSORGRIGHT
 10
0.0
 20
0.0
 30
0.0
  9
$UCSORGFRONT
 10
0.0
 20
0.0
 30
0.0
  9
$UCSORGBACK
 10
0.0
 20
0.0
 30
0.0
  9
$PUCSBASE
  2

  9
$PUCSNAME
  2

  9
$PUCSORG
 10
0.0
 20
0.0
 30
0.0
  9
$PUCSXDIR
 10
1.0
 20
0.0
 30
0.0
  9
$PUCSYDIR
 10
0.0
 20
1.0
 30
0.0
  9
$PUCSORTHOREF
  2

  9
$PUCSORTHOVIEW
 70
0
  9
$PUCSORGTOP
 10
0.0
 20
0.0
 30
0.0
  9
$PUCSORGBOTTOM
 10
0.0
 20
0.0
 30
0.0
  9
$PUCSORGLEFT
 10
0.0
 20
0.0
 30
0.0
  9
$PUCSORGRIGHT
 10
0.0
 20
0.0
 30
0.0
  9
$PUCSORGFRONT
 10
0.0
 20
0.0
 30
0.0
  9
$PUCSORGBACK
 10
0.0
 20
0.0
 30
0.0
  9
$USERI1
 70
0
  9
$USERI2
 70
0
  9
$USERI3
 70
0
  9
$USERI4
 70
0
  9
$USERI5
 70
0
  9
$USERR1
 40
0.0
  9
$USERR2
 40
0.0
  9
$USERR3
 40
0.0
  9
$USERR4
 40
0.0
  9
$USERR5
 40
0.0
  9
$WORLDVIEW
 70
1
  9
$SHADEDGE
 70
3
  9
$SHADEDIF
 70
70
  9
$TILEMODE
 70
1
  9
$MAXACTVP
 70
64
  9
$PINSBASE
 10
0.0
 20
0.0
 30
0.0
  9
$PLIMCHECK
 70
0
  9
$PEXTMIN
 10
1e+20
 20
1e+20
 30
1e+20
  9
$PEXTMAX
 10
-1e+20
 20
-1e+20
 30
-1e+20
  9
$PLIMMIN
 10
0.0
 20
0.0
  9
$PLIMMAX
 10
420.0
 20
297.0
  9
$UNITMODE
 70
0
  9
$VISRETAIN
 70
1
  9
$PLINEGEN
 70
0
  9
$PSLTSCALE
 70
1
  9
$TREEDEPTH
 70
3020
  9
$CMLSTYLE
  2
Standard
  9
$CMLJUST
 70
0
  9
$CMLSCALE
 40
20.0
  9
$PROXYGRAPHICS
 70
1
  9
$MEASUREMENT
 70
1
  9
$CELWEIGHT
370
-1
  9
$ENDCAPS
280
0
  9
$JOINSTYLE
280
0
  9
$LWDISPLAY
290
0
  9
$INSUNITS
 70
6
  9
$HYPERLINKBASE
  1

  9
$STYLESHEET
  1

  9
$XEDIT
290
1
  9
$CEPSNTYPE
380
0
  9
$PSTYLEMODE
290
1
  9
$FINGERPRINTGUID
  2
{B1681B49-50B5-4225-AD82-D2AB36DC89A2}
  9
$VERSIONGUID
  2
{9B482949-6B13-44F3-A1A4-4EF21623DA15}
  9
$EXTNAMES
290
1
  9
$PSVPSCALE
 40
0.0
  9
$OLESTARTUP
290
0
  9
$SORTENTS
280
127
  9
$INDEXCTL
280
0
  9
$HIDETEXT
280
1
  9
$XCLIPFRAME
280
1
  9
$HALOGAP
280
0
  9
$OBSCOLOR
 70
257
  9
$OBSLTYPE
280
0
  9
$INTERSECTIONDISPLAY
280
0
  9
$INTERSECTIONCOLOR
 70
257
  9
$DIMASSOC
280
2
  9
$PROJECTNAME
  1

  9
$CAMERADISPLAY
290
0
  9
$LENSLENGTH
 40
50.0
  9
$CAMERAHEIGHT
 40
0.0
  9
$STEPSPERSEC
 40
24.0
  9
$STEPSIZE
 40
100.0
  9
$3DDWFPREC
 40
2.0
  9
$PSOLWIDTH
 40
0.005
  9
$PSOLHEIGHT
 40
0.08
  9
$LOFTANG1
 40
1.570796326795
  9
$LOFTANG2
 40
1.570796326795
  9
$LOFTMAG1
 40
0.0
  9
$LOFTMAG2
 40
0.0
  9
$LOFTPARAM
 70
7
  9
$LOFTNORMALS
280
1
  9
$LATITUDE
 40
37.795
  9
$LONGITUDE
 40
-122.394
  9
$NORTHDIRECTION
 40
0.0
  9
$TIMEZONE
 70
-8000
  9
$LIGHTGLYPHDISPLAY
280
1
  9
$TILEMODELIGHTSYNCH
280
1
  9
$CMATERIAL
347
20
  9
$SOLIDHIST
280
0
  9
$SHOWHIST
280
1
  9
$DWFFRAME
280
2
  9
$DGNFRAME
280
2
  9
$REALWORLDSCALE
290
1
  9
$INTERFERECOLOR
 62
256
  9
$CSHADOW
280
0
  9
$SHADOWPLANELOCATION
 40
0.0
  0
ENDSEC
  0
SECTION
  2
CLASSES
  0
CLASS
  1
ACDBDICTIONARYWDFLT
  2
AcDbDictionaryWithDefault
  3
ObjectDBX Classes
 90
0
 91
0
280
0
281
0
  0
CLASS
  1
SUN
  2
AcDbSun
  3
SCENEOE
 90
1153
 91
0
280
0
281
0
  0
CLASS
  1
VISUALSTYLE
  2
AcDbVisualStyle
  3
ObjectDBX Classes
 90
4095
 91
0
280
0
281
0
  0
CLASS
  1
MATERIAL
  2
AcDbMaterial
  3
ObjectDBX Classes
 90
1153
 91
0
280
0
281
0
  0
CLASS
  1
SCALE
  2
AcDbScale
  3
ObjectDBX Classes
 90
1153
 91
0
280
0
281
0
  0
CLASS
  1
TABLESTYLE
  2
AcDbTableStyle
  3
ObjectDBX Classes
 90
4095
 91
0
280
0
281
0
  0
CLASS
  1
MLEADERSTYLE
  2
AcDbMLeaderStyle
  3
ACDB_MLEADERSTYLE_CLASS
 90
4095
 91
0
280
0
281
0
  0
CLASS
  1
DICTIONARYVAR
  2
AcDbDictionaryVar
  3
ObjectDBX Classes
 90
0
 91
0
280
0
281
0
  0
CLASS
  1
CELLSTYLEMAP
  2
AcDbCellStyleMap
  3
ObjectDBX Classes
 90
1152
 91
0
280
0
281
0
  0
CLASS
  1
MENTALRAYRENDERSETTINGS
  2
AcDbMentalRayRenderSettings
  3
SCENEOE
 90
1024
 91
0
280
0
281
0
  0
CLASS
  1
ACDBDETAILVIEWSTYLE
  2
AcDbDetailViewStyle
  3
ObjectDBX Classes
 90
1025
 91
0
280
0
281
0
  0
CLASS
  1
ACDBSECTIONVIEWSTYLE
  2
AcDbSectionViewStyle
  3
ObjectDBX Classes
 90
1025
 91
0
280
0
281
0
  0
CLASS
  1
RASTERVARIABLES
  2
AcDbRasterVariables
  3
ISM
 90
0
 91
0
280
0
281
0
  0
CLASS
  1
LAYOUT
  2
AcDbLayout
  3
ObjectDBX Classes
 90
0
 91
0
280
0
281
0
  0
CLASS
  1
ACDBPLACEHOLDER
  2
AcDbPlaceHolder
  3
ObjectDBX Classes
 90
0
 91
0
280
0
281
0
  0
ENDSEC
  0
SECTION
  2
TABLES
  0
TABLE
  2
VPORT
  5
8
330
0
100
AcDbSymbolTable
 70
1
  0
VPORT
  5
23
330
8
100
AcDbSymbolTableRecord
100
AcDbViewportTableRecord
  2
*Active
 70
0
 10
0.0
 20
0.0
 11
1.0
 21
1.0
 12
0.0
 22
0.0
 13
0.0
 23
0.0
 14
0.5
 24
0.5
 15
0.5
 25
0.5
 16
0.0
 26
0.0
 36
1.0
 17
0.0
 27
0.0
 37
0.0
 40
1000.0
 41
1.34
 42
50.0
 43
0.0
 44
0.0
 50
0.0
 51
0.0
 71
0
 72
1000
 73
1
 74
3
 75
0
 76
0
 77
0
 78
0
281
0
 65
0
146
0.0
  0
ENDTAB
  0
TABLE
  2
LTYPE
  5
2
330
0
100
AcDbSymbolTable
 70
3
  0
LTYPE
  5
24
330
2
100
AcDbSymbolTableRecord
100
AcDbLinetypeTableRecord
  2
ByBlock
 70
0
  3

 72
65
 73
0
 40
0.0
  0
LTYPE
  5
25
330
2
100
AcDbSymbolTableRecord
100
AcDbLinetypeTableRecord
  2
ByLayer
 70
0
  3

 72
65
 73
0
 40
0.0
  0
LTYPE
  5
26
330
2
100
AcDbSymbolTableRecord
100
AcDbLinetypeTableRecord
  2
Continuous
 70
0
  3

 72
65
 73
0
 40
0.0
  0
ENDTAB
  0
TABLE
  2
LAYER
  5
1
330
0
100
AcDbSymbolTable
 70
2
  0
LAYER
  5
27
330
1
100
AcDbSymbolTableRecord
100
AcDbLayerTableRecord
  2
0
 70
0
 62
7
  6
Continuous
370
-3
390
13
347
21
  0
LAYER
  5
28
330
1
100
AcDbSymbolTableRecord
100
AcDbLayerTableRecord
  2
Defpoints
 70
0
 62
7
  6
Continuous
290
0
370
-3
390
13
347
21
  0
ENDTAB
  0
TABLE
  2
STYLE
  5
5
330
0
100
AcDbSymbolTable
 70
1
  0
STYLE
  5
29
330
5
100
AcDbSymbolTableRecord
100
AcDbTextStyleTableRecord
  2
Standard
 70
0
 40
0.0
 41
1.0
 50
0.0
 71
0
 42
2.5
  3
txt
  4

  0
ENDTAB
  0
TABLE
  2
VIEW
  5
7
330
0
100
AcDbSymbolTable
 70
0
  0
ENDTAB
  0
TABLE
  2
UCS
  5
6
330
0
100
AcDbSymbolTable
 70
0
  0
ENDTAB
  0
TABLE
  2
APPID
  5
3
330
0
100
AcDbSymbolTable
 70
3
  0
APPID
  5
2A
330
3
100
AcDbSymbolTableRecord
100
AcDbRegAppTableRecord
  2
ACAD
 70
0
  0
APPID
  5
30
330
3
100
AcDbSymbolTableRecord
100
AcDbRegAppTableRecord
  2
HATCHBACKGROUNDCOLOR
 70
0
  0
APPID
  5
31
330
3
100
AcDbSymbolTableRecord
100
AcDbRegAppTableRecord
  2
EZDXF
 70
0
  0
ENDTAB
  0
TABLE
  2
DIMSTYLE
  5
4
330
0
100
AcDbSymbolTable
 70
1
100
AcDbDimStyleTable
  0
DIMSTYLE
105
2B
330
4
100
AcDbSymbolTableRecord
100
AcDbDimStyleTableRecord
  2
Standard
 70
0
 40
1.0
 41
2.5
 42
0.625
 43
3.75
 44
1.25
 45
0.0
 46
0.0
 47
0.0
 48
0.0
 49
2.5
140
2.5
141
2.5
142
0.0
143
0.03937007874
144
1.0
145
0.0
146
1.0
147
0.625
148
0.0
 69
0
 70
0
 71
0
 72
0
 73
0
 74
0
 75
0
 76
0
 77
1
 78
8
 79
3
170
0
171
3
172
1
173
0
174
0
175
0
176
0
177
0
178
0
179
2
271
2
272
2
273
2
274
3
275
0
276
0
277
2
278
44
279
0
280
0
281
0
282
0
283
0
284
8
285
0
286
0
288
0
289
3
290
0
371
-2
372
-2
  0
ENDTAB
  0
TABLE
  2
BLOCK_RECORD
  5
9
330
0
100
AcDbSymbolTable
 70
2
  0
BLOCK_RECORD
  5
17
330
9
100
AcDbSymbolTableRecord
100
AcDbBlockTableRecord
  2
*Model_Space
340
1A
 70
0
280
1
281
0
  0
BLOCK_RECORD
  5
1B
330
9
100
AcDbSymbolTableRecord
100
AcDbBlockTableRecord
  2
*Paper_Space
340
1E
 70
0
280
1
281
0
  0
ENDTAB
  0
ENDSEC
  0
SECTION
  2
BLOCKS
  0
BLOCK
  5
18
330
17
100
AcDbEntity
  8
0
100
AcDbBlockBegin
  2
*Model_Space
 70
0
 10
0.0
 20
0.0
 30
0.0
  3
*Model_Space
  1

  0
ENDBLK
  5
19
330
17
100
AcDbEntity
  8
0
100
AcDbBlockEnd
  0
BLOCK
  5
1C
330
1B
100
AcDbEntity
  8
0
100
AcDbBlockBegin
  2
*Paper_Space
 70
0
 10
0.0
 20
0.0
 30
0.0
  3
*Paper_Space
  1

  0
ENDBLK
  5
1D
330
1B
100
AcDbEntity
  8
0
100
AcDbBlockEnd
  0
ENDSEC
  0
SECTION
  2
ENTITIES
  0
LWPOLYLINE
  5
2F
330
17
100
AcDbEntity
  8
0
100
AcDbPolyline
 90
721
 70
1
 10
80.76444751719507
 20
17.372323072549356
 10
80.76198145217967
 20
17.372659999696253
 10
80.75463441201929
 20
17.373429292286982
 10
80.74250852762236
 20
17.374148816988235
 10
80.72543240358029
 20
17.375032701401928
 10
80.70372335547495
 20
17.375772952254007
 10
80.67723551423686
 20
17.376463193969006
 10
80.64587401237101
 20
17.37695628586432
 10
80.6098796119938
 20
17.377305623574212
 10
80.56915744561024
 20
17.377364066416085
 10
80.52353604115599
 20
17.37734610386324
 10
80.47330726452952
 20
17.377063883947606
 10
80.41835067079289
 20
17.376491010411545
 10
80.35864070805509
 20
17.375748107056236
 10
80.29422848009817
 20
17.37459392627932
 10
80.2250628320363
 20
17.373269956930766
 10
80.15128970959465
 20
17.371682212714624
 10
80.0727886678353
 20
17.369804297373257
 10
79.98953415486716
 20
17.367756834707848
 10
79.90169761720277
 20
17.365325455868877
 10
79.80910753167393
 20
17.362724891577273
 10
79.71181497651085
 20
17.35971401485447
 10
79.61000958449598
 20
17.35658758956091
 10
79.50335572601792
 20
17.353145079379694
 10
79.39221450592343
 20
17.34946675869795
 10
79.27634513654422
 20
17.345499352505193
 10
79.15586793505872
 20
17.341269860178063
 10
79.03078287591514
 20
17.336778402340368
 10
78.90106438167047
 20
17.33214572341709
 10
78.76671237566909
 20
17.327372185279618
 10
78.6277779361411
 20
17.32221666094941
 10
78.48420993375262
 20
17.316920518652623
 10
78.33615421202127
 20
17.311390254588517
 10
78.18346482522183
 20
17.305719855053027
 10
78.0261927749288
 20
17.299668554939014
 10
77.86440735119427
 20
17.293504239354068
 10
77.69808292547158
 20
17.287347893970768
 10
77.52729610233
 20
17.28083788863318
 10
77.35187530749765
 20
17.274189195309837
 10
77.17208685498198
 20
17.26733458583382
 10
76.98766432856797
 20
17.260341770867246
 10
76.79884846482018
 20
17.2532642666682
 10
76.60551879324878
 20
17.246075797602835
 10
76.4077956565841
 20
17.23880324242399
 10
76.20558413622736
 20
17.23129970169667
 10
75.99900457490894
 20
17.2235920541737
 10
75.78788539835695
 20
17.215895271823605
 10
75.57249289502694
 20
17.208142247103286
 10
75.35270659442911
 20
17.200306704378907
 10
75.12852644545967
 20
17.19238888489808
 10
74.89995232035913
 20
17.184389391779796
 10
74.66707906107068
 20
17.17645548633048
 10
74.42981169789168
 20
17.16844051036272
 10
74.18824504721337
 20
17.16049184580673
 10
73.94240453316736
 20
17.152489471980346
 10
73.69234123398381
 20
17.14419226190501
 10
73.43812433750722
 20
17.13586858318352
 10
73.17958229501765
 20
17.1277332871606
 10
72.91671497875559
 20
17.119786976955243
 10
72.64971941267643
 20
17.111694539292966
 10
72.37856994268157
 20
17.10357708047015
 10
72.1032665176672
 20
17.0954348417344
 10
71.82373235420081
 20
17.087630297608246
 10
71.54009513508187
 20
17.079560690957216
 10
71.25242409925866
 20
17.07149414813649
 10
70.96069361818454
 20
17.063551654818667
 10
70.66475764392669
 20
17.055827679794877
 10
70.36488243938886
 20
17.04825523614583
 10
70.06097306042031
 20
17.040687545060315
 10
69.75302945591724
 20
17.033124847785928
 10
69.44112081372424
 20
17.02583551192548
 10
69.12534923919782
 20
17.018337524769446
 10
68.80554318361798
 20
17.010845737662564
 10
68.48191778055445
 20
17.003534531911683
 10
68.15447295335159
 20
16.996404269388204
 10
67.82313933530156
 20
16.98918742685595
 10
67.48789124675397
 20
16.9820052312351
 10
67.14896942427328
 20
16.97491119878372
 10
66.80620226803573
 20
16.968120422094145
 10
66.45966635705872
 20
16.96127139163424
 10
66.10948200852076
 20
16.95439110678065
 10
65.75564914576614
 20
16.947479929404782
 10
65.3981165372534
 20
16.940779710227982
 10
65.03688410632684
 20
16.934290811121677
 10
64.67197732822181
 20
16.927892970156076
 10
64.3036624913939
 20
16.921519079788084
 10
63.93167310297236
 20
16.91523721255121
 10
63.556129505687636
 20
16.909074247198298
 10
63.177228697943136
 20
16.90269519107865
 10
62.79482458070235
 20
16.89619475423101
 10
62.408960841022584
 20
16.889961686811766
 10
62.01975782163417
 20
16.884022867573744
 10
61.62702565978766
 20
16.87808461827073
 10
61.23108179882442
 20
16.87183834250966
 10
60.83182392897282
 20
16.86576701799046
 10
60.42927752546815
 20
16.859750382783343
 10
60.02341693421186
 20
16.853909543184695
 10
59.61441357616448
 20
16.84803025096881
 10
59.20226740022223
 20
16.842112747383286
 10
58.78685785923961
 20
16.836131118665694
 10
58.368400163442
 20
16.830259384251477
 10
57.9467738167877
 20
16.824471389130622
 10
57.52215026578913
 20
16.818552764453603
 10
57.09452940823873
 20
16.81250399271562
 10
56.66403161241875
 20
16.806351832045724
 10
56.23051077929269
 20
16.800190992482655
 10
55.79403617336074
 20
16.794289479757808
 10
55.35456387759859
 20
16.78825962932902
 10
54.91242964937716
 20
16.78230137439418
 10
54.467494704177106
 20
16.77587990972851
 10
54.019733362347914
 20
16.76911646225219
 10
53.56930980698864
 20
16.76242593713163
 10
53.11619838400068
 20
16.755929440663216
 10
52.66023478252556
 20
16.74921267079954
 10
52.201951834993324
 20
16.7421402062164
 10
51.7410136562736
 20
16.73451271683491
 10
51.27758437836163
 20
16.72674534906908
 10
50.81151792777277
 20
16.718932692333855
 10
50.343080695170165
 20
16.711007156590938
 10
49.872228814633246
 20
16.702580836050558
 10
49.399031550662265
 20
16.693921736444107
 10
48.92343769726757
 20
16.685271587869153
 10
48.44557496280054
 20
16.676027512567405
 10
47.965468822496526
 20
16.666069248609094
 10
47.48323235567248
 20
16.656052948762973
 10
46.99865012213599
 20
16.645805679207808
 10
46.51193740876812
 20
16.63550109750764
 10
46.023247475811296
 20
16.62441570210302
 10
45.53255469471874
 20
16.612670478666516
 10
45.03980791060468
 20
16.60050691604809
 10
44.54493034003654
 20
16.58828748877028
 10
44.04826513155811
 20
16.57558225289605
 10
43.5496734239944
 20
16.561856765072026
 10
43.049439973141794
 20
16.54755172360324
 10
42.54719595080604
 20
16.53321829934692
 10
42.04316403504109
 20
16.518400272732187
 10
41.537446305651585
 20
16.502615751673336
 10
41.030232625387065
 20
16.486158414416604
 10
40.52125637361732
 20
16.46909693661448
 10
40.01073291387913
 20
16.45160461395964
 10
39.498567250918015
 20
16.43353490888845
 10
38.984930933453974
 20
16.41467297005621
 10
38.46994440642495
 20
16.395045193720552
 10
37.95348709713353
 20
16.374625786742833
 10
37.43579997211129
 20
16.353467179766938
 10
36.91664196261912
 20
16.331517424644197
 10
36.3962028803027
 20
16.30907044086844
 10
35.874508302604966
 20
16.286005484014677
 10
35.351685886773495
 20
16.261719917572236
 10
34.82768447792245
 20
16.236455230391073
 10
34.302719516244245
 20
16.210384356292426
 10
33.776524381108736
 20
16.183575970928814
 10
33.24939114282954
 20
16.155841257341752
 10
32.72134532774579
 20
16.127059712353866
 10
32.192412462196614
 20
16.097110832787767
 10
31.662541340192398
 20
16.066236348741032
 10
31.13182695698763
 20
16.034582797777258
 10
30.60026923592661
 20
16.002150541767854
 10
30.06806532872416
 20
15.968603864319315
 10
29.535120240125817
 20
15.933796227868037
 10
29.00157999251242
 20
15.897633284246677
 10
28.467488451804506
 20
15.860502939245
 10
27.932648389631588
 20
15.82274127112791
 10
27.397351952962964
 20
15.784159101065516
 10
26.86168300978134
 20
15.743765524885964
 10
26.325488172084885
 20
15.702284647267726
 10
25.78898300782547
 20
15.65988879891304
 10
25.252097996983977
 20
15.616311180328525
 10
24.714858717003303
 20
15.571431047089197
 10
24.17742952984573
 20
15.525662459994862
 10
23.639715491360533
 20
15.478858640234302
 10
23.101913727710645
 20
15.430683992037826
 10
22.563903691750568
 20
15.381112601642995
 10
22.025900951432163
 20
15.330316799752056
 10
21.487879903760625
 20
15.278417451413782
 10
20.949917229960928
 20
15.225052564600846
 10
20.411987327038258
 20
15.170343004362023
 10
19.874185215798992
 20
15.114435187637124
 10
19.336313693424525
 20
15.05766507206725
 10
18.798767165552057
 20
14.999360742370193
 10
18.26154563218157
 20
14.939522198545959
 10
17.72462356697393
 20
14.878269943771924
 10
17.187975366934324
 20
14.815724843096865
 10
16.651747207754973
 20
14.751791824610637
 10
16.115792964847433
 20
14.686565718975782
 10
15.580379309945654
 20
14.619977609292187
 10
15.045557372383563
 20
14.551786127333695
 10
14.511301600270146
 20
14.482111896901488
 10
13.977586467266255
 20
14.411075421172931
 10
13.444437525262932
 20
14.338556076346862
 10
12.912147074540798
 20
14.264363959850572
 10
12.380543413068507
 20
14.188714646771594
 10
11.849696060865186
 20
14.111874936603307
 10
11.319612204688575
 20
14.033215917201192
 10
10.7904819117033
 20
13.953030301821066
 10
10.262228602891954
 20
13.87167959999506
 10
9.734808310126443
 20
13.788776388428609
 10
9.20851338479118
 20
13.704130523301417
 10
8.683292748655997
 20
13.61798313159204
 10
8.159076907253665
 20
13.530067293183288
 10
7.636056004404476
 20
13.440675359459576
 10
7.114160571193105
 20
13.349540289679917
 10
6.5936062777789815
 20
13.256833932051348
 10
6.074075323094223
 20
13.162866571700137
 10
5.555860058523247
 20
13.067448064805989
 10
5.039062691630167
 20
12.970095916164192
 10
4.5236577471796195
 20
12.870930387704519
 10
4.009689167747819
 20
12.770339023345333
 10
3.4971826074333574
 20
12.668200716790253
 10
2.9861636436791454
 20
12.564394723614297
 10
2.4767529258382583
 20
12.458946475084698
 10
1.968778751879347
 20
12.352071546288974
 10
1.4623107440290946
 20
12.244036254225309
 10
0.9575717336528017
 20
12.134383655580018
 10
0.45461287563631303
 20
12.022872261503148
 10
-0.046616857146781494
 20
11.909742957725644
 10
-0.5460200420123335
 20
11.795130822550007
 10
-1.043713163355192
 20
11.678990763029418
 10
-1.5396010726095097
 20
11.561468592984681
 10
-2.033588697865168
 20
11.442710488107995
 10
-2.5256944553592082
 20
11.32220840130363
 10
-3.0157977212904625
 20
11.199987884462608
 10
-3.5039056313128913
 20
11.07667760848185
 10
-3.9900877054456174
 20
10.952010773867968
 10
-4.47407714419526
 20
10.825917860601843
 10
-4.956115195164165
 20
10.69834776490142
 10
-5.435960610749986
 20
10.569351590548754
 10
-5.913543870933604
 20
10.439196137037225
 10
-6.389131775208388
 20
10.30795092438596
 10
-6.862475940318039
 20
10.175038385480095
 10
-7.333488430006354
 20
10.041233366908754
 10
-7.802340971856572
 20
9.906751564383264
 10
-8.269000878323713
 20
9.77084368320553
 10
-8.733106278004225
 20
9.633586379048639
 10
-9.194854450372386
 20
9.495315971425093
 10
-9.654270947319214
 20
9.35615308413607
 10
-10.111304665062656
 20
9.215856469579213
 10
-10.565739907891379
 20
9.074597855337762
 10
-11.017817923407755
 20
8.932326137629657
 10
-11.467374119682496
 20
8.789454291640483
 10
-11.914357392933555
 20
8.645741069767894
 10
-12.3587421912699
 20
8.501065848210702
 10
-12.800554066582562
 20
8.355549250770093
 10
-13.239723498852415
 20
8.209458076939445
 10
-13.67637111188064
 20
8.062766774827736
 10
-14.110204554282825
 20
7.91528520061466
 10
-14.541223826058971
 20
7.7670133543002216
 10
-14.969523999119225
 20
7.617805060192211
 10
-15.395010001553443
 20
7.467806493982836
 10
-15.817758489034698
 20
7.317379527075632
 10
-16.237674389652852
 20
7.166670335162804
 10
-16.654655495843787
 20
7.0151964230396375
 10
-17.06882243140868
 20
6.862932238815108
 10
-17.47978777305298
 20
6.709833814361121
 10
-17.887869424052106
 20
6.556211917299153
 10
-18.29309293629711
 20
6.402187171430382
 10
-18.695217062185616
 20
6.247810680536867
 10
-19.094216249826612
 20
6.092961820817425
 10
-19.49013446734818
 20
5.937253168977499
 10
-19.882953298513257
 20
5.781192772112827
 10
-20.272749398994932
 20
5.625142501626939
 10
-20.659274385536893
 20
5.468524790404979
 10
-21.042648881940295
 20
5.3113140865559165
 10
-21.42268274438486
 20
5.153802741464162
 10
-21.79949659667176
 20
4.99596520323869
 10
-22.173115990692022
 20
4.837922095680677
 10
-22.54334364697138
 20
4.679337099277619
 10
-22.91023066929189
 20
4.520451461631868
 10
-23.273777057653565
 20
4.36126518274343
 10
-23.634085019620503
 20
4.202260757817011
 10
-23.99088775569933
 20
4.043368666833489
 10
-24.344349857819303
 20
3.8841759346072795
 10
-24.694299598397205
 20
3.724466865427049
 10
-25.04071856119597
 20
3.564749506388543
 10
-25.38377847379882
 20
3.405239553203082
 10
-25.723256504840464
 20
3.245480062556989
 10
-26.059083134301794
 20
3.0857378339436434
 10
-26.391525161676185
 20
2.926082387382171
 10
-26.720341339361283
 20
2.766564826654625
 10
-27.045455011684002
 20
2.60682328035747
 10
-27.366942834317435
 20
2.4472196198942453
 10
-27.684830359152595
 20
2.287874469066122
 10
-27.999092034298467
 20
2.128667204071927
 10
-28.30960723595387
 20
1.9696233768026892
 10
-28.616350412227767
 20
1.8106223634572256
 10
-28.919467738812376
 20
1.6517592359456914
 10
-29.21871796810534
 20
1.493085098050137
 10
-29.514152203888706
 20
1.334841197372924
 10
-29.80596058998278
 20
1.1767351825296377
 10
-30.09378125498403
 20
1.0188437091933613
 10
-30.377709270802605
 20
0.8610206016718903
 10
-30.65784684500262
 20
0.7037483551699354
 10
-30.934193977584066
 20
0.547026969687497
 10
-31.206578940963713
 20
0.39064074951324723
 10
-31.474976183250533
 20
0.23446907084600832
 10
-31.739480776354682
 20
0.07836575799357583
 10
-31.99997923212894
 20
-0.07701496625610717
 10
-32.256566622483454
 20
-0.23181927759524598
 10
-32.50919184363617
 20
-0.38628842362619614
 10
-32.75773427178591
 20
-0.5403968524579292
 10
-33.00224501071473
 20
-0.6939033164880907
 10
-33.242672956640575
 20
-0.8470490633190334
 10
-33.479043661454476
 20
-0.999713469149583
 10
-33.71138267704745
 20
-1.1517759101785592
 10
-33.93951827583628
 20
-1.3034520821172908
 10
-34.16352711349404
 20
-1.4543801135622445
 10
-34.3834276062578
 20
-1.605068051609159
 10
-34.599201337890484
 20
-1.7550078491622956
 10
-34.81082275650107
 20
-1.9043201300228303
 10
-35.018266310198534
 20
-2.0531255179919454
 10
-35.221411375181695
 20
-2.2013984611786066
 10
-35.42040412714277
 20
-2.3490438876726696
 10
-35.61520059795364
 20
-2.495674374179569
 10
-35.80574968383226
 20
-2.641531168301662
 10
-35.99205138477865
 20
-2.786614270038951
 10
-36.17425187648499
 20
-2.9308286074812835
 10
-36.352084359457905
 20
-3.074243700647781
 10
-36.525720561280636
 20
-3.2166438538271187
 10
-36.695090961934056
 20
-3.3577622675259096
 10
-36.86031618521933
 20
-3.4976244936351852
 10
-37.02122450355325
 20
-3.63644622786627
 10
-37.177962092628
 20
-3.774132398309016
 10
-37.33028770484123
 20
-3.910631901181367
 10
-37.47849369157736
 20
-4.045754592663022
 10
-37.62236435712506
 20
-4.17932874517075
 10
-37.76196922150344
 20
-4.311621158197932
 10
-37.897308284712516
 20
-4.44263183174457
 10
-38.02838154675228
 20
-4.572360765810663
 10
-38.155119487603606
 20
-4.700541160902827
 10
-38.2775221072665
 20
-4.827173017021064
 10
-38.39563337386905
 20
-4.952643757459932
 10
-38.50940931928318
 20
-5.076565958924873
 10
-38.61874773594475
 20
-5.199422116620594
 10
-38.723750831417895
 20
-5.32072973534239
 10
-38.82431639813849
 20
-5.440971310294966
 10
-38.9204955398886
 20
-5.5599055938759685
 10
-39.01228825666822
 20
-5.677532586085399
 10
-39.09954837278515
 20
-5.793947358833408
 10
-39.182568239623784
 20
-5.908959768299692
 10
-39.26090933010753
 20
-6.0228550302147
 10
-39.33498461942195
 20
-6.135468552649166
 10
-39.40452730807369
 20
-6.246869855622209
 10
-39.46961405173581
 20
-6.356697067730294
 10
-39.53031437042744
 20
-6.465216988466805
 10
-39.58653319223844
 20
-6.572283442139538
 10
-39.63837272473291
 20
-6.677413933543783
 10
-39.685876936038945
 20
-6.7809958859740975
 10
-39.728976306137426
 20
-6.882762499937102
 10
-39.76772193881041
 20
-6.982472527830439
 10
-39.802216041622
 20
-7.079643474449396
 10
-39.83245861457221
 20
-7.174275339793978
 10
-39.858621385244284
 20
-7.266152428152854
 10
-39.88059086549097
 20
-7.354620516738082
 10
-39.89858988667758
 20
-7.4392226622359745
 10
-39.91299459151558
 20
-7.518778178525789
 10
-39.9237425956398
 20
-7.592391595217221
 10
-39.93136335310788
 20
-7.65815848338246
 10
-39.93638631797743
 20
-7.714174414093688
 10
-39.93918348803078
 20
-7.7574933123405865
 10
-39.9405142843448
 20
-7.785125134984742
 10
-39.77950400100653
 20
-8.55651733424073
 10
-39.77590900234172
 20
-8.562183662171256
 10
-39.76514955823832
 20
-8.57906202216166
 10
-39.74732787626044
 20
-8.606669919007228
 10
-39.72188895045943
 20
-8.647032405436955
 10
-39.68853743872605
 20
-8.702733685057622
 10
-39.648481415592585
 20
-8.767475768316972
 10
-39.60239236587973
 20
-8.83749376548746
 10
-39.55084371177321
 20
-8.911270670935842
 10
-39.494251419183435
 20
-8.986247832946349
 10
-39.432724831328464
 20
-9.06131408541736
 10
-39.366632955265814
 20
-9.135917413125041
 10
-39.295957374758416
 20
-9.209549768973659
 10
-39.22080029737038
 20
-9.281728657758492
 10
-39.14121282688376
 20
-9.352212831877193
 10
-39.05719496329855
 20
-9.42100229132976
 10
-38.96889288230697
 20
-9.488001964206042
 10
-38.87623706388989
 20
-9.55294505101266
 10
-38.779201956156285
 20
-9.615952175550786
 10
-38.67793373479836
 20
-9.676928265910274
 10
-38.57226067223288
 20
-9.736089017802449
 10
-38.46220832035087
 20
-9.793313807426136
 10
-38.34806903053674
 20
-9.848412490961035
 10
-38.22940427571389
 20
-9.901670284137591
 10
-38.10660147917686
 20
-9.953043218827714
 10
-37.979393841432284
 20
-10.002600815050528
 10
-37.84792753817236
 20
-10.05024800089588
 10
-37.71222812128811
 20
-10.095864152562593
 10
-37.572218935106456
 20
-10.139811141454198
 10
-37.427951083409454
 20
-10.181847719968342
 10
-37.27932235863299
 20
-10.222456383309735
 10
-37.12640941645015
 20
-10.261275260074846
 10
-36.96928177688005
 20
-10.298571149757057
 10
-36.807818816121525
 20
-10.334318500465338
 10
-36.6419694303925
 20
-10.368758559802046
 10
-36.4718797953852
 20
-10.401796255857032
 10
-36.29752435920859
 20
-10.433552212431474
 10
-36.11890312186266
 20
-10.46402642952537
 10
-35.93581880387316
 20
-10.493555226651225
 10
-35.74853820473347
 20
-10.52206908378992
 10
-35.55684562873226
 20
-10.54939627335822
 10
-35.3609823234719
 20
-10.57558789913818
 10
-35.16077656136914
 20
-10.600859656841127
 10
-34.95634896622516
 20
-10.625237098358092
 10
-34.7476044661298
 20
-10.648574047996865
 10
-34.534714788666314
 20
-10.670654810046122
 10
-34.317533758142496
 20
-10.691574456416014
 10
-34.09627707026965
 20
-10.71150471468977
 10
-33.87082410124663
 20
-10.730420032976365
 10
-33.641174851073416
 20
-10.7483204112758
 10
-33.40740597542309
 20
-10.764843978184539
 10
-33.16963809809685
 20
-10.780016285593613
 10
-32.92775059529348
 20
-10.79381178161199
 10
-32.68181298703214
 20
-10.806497265733057
 10
-32.431825273312825
 20
-10.818072737956813
 10
-32.177889661699616
 20
-10.828055703078547
 10
-31.920075672211667
 20
-10.836712960591644
 10
-31.65828823293882
 20
-10.843898334803896
 10
-31.392501791990053
 20
-10.849732449516484
 10
-31.12283697316652
 20
-10.85424085662043
 10
-30.849319328359275
 20
-10.857302932314564
 10
-30.571923305677277
 20
-10.859039300400056
 10
-30.290648905120527
 20
-10.859449960876912
 10
-30.005521678580056
 20
-10.858414289943951
 10
-29.71663669796601
 20
-10.85607846329338
 10
-29.423993963278395
 20
-10.852442480925198
 10
-29.127498402607053
 20
-10.847360167147203
 10
-28.827340159772287
 20
-10.841123873343799
 10
-28.523424162863954
 20
-10.833587423822788
 10
-28.215724859991017
 20
-10.824871442385344
 10
-27.904388426845678
 20
-10.814880857121317
 10
-27.58949151910104
 20
-10.803253796627176
 10
-27.270957481083997
 20
-10.790352132306452
 10
-26.948614585211335
 20
-10.776391559870474
 10
-26.622850254777603
 20
-10.76132811119115
 10
-26.293474345962494
 20
-10.744869434884063
 10
-25.960512410657056
 20
-10.726894907148038
 10
-25.624154592681577
 20
-10.70769687936749
 10
-25.28425471634385
 20
-10.687370423452563
 10
-24.940863885425934
 20
-10.665674291800906
 10
-24.594102723729005
 20
-10.642634036303544
 10
-24.24399678314409
 20
-10.618129033159303
 10
-23.89046940799811
 20
-10.592521153771713
 10
-23.53357170207312
 20
-10.565569150538419
 10
-23.173252561587063
 20
-10.537514271061779
 10
-22.809829889815376
 20
-10.508045747720312
 10
-22.44303688726468
 20
-10.477233100533141
 10
-22.072994177736145
 20
-10.445101881391295
 10
-21.699796833139924
 20
-10.41179826598698
 10
-21.323375333456898
 20
-10.377055454826811
 10
-20.943799198706195
 20
-10.341140247404173
 10
-20.561214604580005
 20
-10.303957571808915
 10
-20.175431407258046
 20
-10.265215076656629
 10
-19.78669085434266
 20
-10.224963865729364
 10
-19.39491629016076
 20
-10.183565810430661
 10
-19.000107714712364
 20
-10.141020910760517
 10
-18.602265127997452
 20
-10.097329166718929
 10
-18.2015858094903
 20
-10.052154258793395
 10
-17.798120862972958
 20
-10.00525493938156
 10
-17.39164745708014
 20
-9.957088151797105
 10
-16.982406839414196
 20
-9.907704999822089
 10
-16.57032948995601
 20
-9.856838683963126
 10
-16.15558713628881
 20
-9.804273508508889
 10
-15.738103122739517
 20
-9.75037134486291
 10
-15.317946969327249
 20
-9.695398992518575
 10
-14.89504915603289
 20
-9.639089651982498
 10
-14.469486338529512
 20
-9.58108145185115
 10
-14.041448660637426
 20
-9.52166674350894
 10
-13.610910570465599
 20
-9.460966150757043
 10
-13.177630820411677
 20
-9.398928569813405
 10
-12.741996833770221
 20
-9.335510032549937
 10
-12.30393909052211
 20
-9.270443739473249
 10
-11.863457590667347
 20
-9.203729690583344
 10
-11.420647406116071
 20
-9.135514061572426
 10
-10.97538077741315
 20
-9.066399971446387
 10
-10.527854984032848
 20
-8.99605110069272
 10
-10.078051609738093
 20
-8.923959402215683
 10
-9.625945102637862
 20
-8.85024549981646
 10
-9.171776710334507
 20
-8.7749604972771
 10
-8.715323601462737
 20
-8.698561337911293
 10
-8.256757503605792
 20
-8.620832326007706
 10
-7.796078416763667
 20
-8.541773461566343
 10
-7.3333374447184205
 20
-8.461143496984846
 10
-6.868509035579019
 20
-8.379063056064394
 10
-6.401783333165775
 20
-8.2958244901894
 10
-5.932970193658373
 20
-8.211135447975447
 10
-5.462361968441234
 20
-8.124805785602241
 10
-4.989933105623322
 20
-8.03695612687096
 10
-4.515658053313623
 20
-7.9477070955827775
 10
-4.03944173960197
 20
-7.8569125160454885
 10
-3.56169713967397
 20
-7.764407796329827
 10
-3.0823291816194627
 20
-7.670046760743583
 10
-2.601063930291098
 20
-7.574527600202794
 10
-2.118168185182274
 20
-7.477780794688342
 10
-1.6339158814403196
 20
-7.379108153284184
 10
-1.1479891157898083
 20
-7.2788204436118
 10
-0.6604829601408871
 20
-7.177063841363396
 10
-0.17168976587796045
 20
-7.0736482027186725
 10
0.3186061627102922
 20
-6.968401800094396
 10
0.8101635780215153
 20
-6.861375737272621
 10
1.3032053114210027
 20
-6.753026957567032
 10
1.797559635325516
 20
-6.6431397652663
 10
2.2929781664787487
 20
-6.5311365932555665
 10
2.789658184354938
 20
-6.417353761047336
 10
3.287581272717049
 20
-6.302299315737345
 10
3.78655022874647
 20
-6.185637299684496
 10
4.286664263759713
 20
-6.067241078252369
 10
4.787856208511608
 20
-5.947388548324064
 10
5.290023932093741
 20
-5.825597576566265
 10
5.793167485609891
 20
-5.701868404226577
 10
6.297268452822979
 20
-5.576709078400743
 10
6.802231864030424
 20
-5.450266257276168
 10
7.308152816694271
 20
-5.322393885784452
 10
7.8148340568921455
 20
-5.192755765036887
 10
8.322326713957999
 20
-5.061593263259631
 10
8.830630890099398
 20
-4.9289068629478905
 10
9.339625935963262
 20
-4.7947219953688895
 10
9.849235272532189
 20
-4.658677150990502
 10
10.359510003588232
 20
-4.52101357741508
 10
10.870311089093144
 20
-4.382264873629395
 10
11.381854326965822
 20
-4.242259794545413
 10
11.893821788378943
 20
-4.100687451917857
 10
12.406359700128482
 20
-3.9576431589044794
 10
12.919226814612086
 20
-3.813178019287337
 10
13.432569333073854
 20
-3.667387225600381
 10
13.946361729174651
 20
-3.5201502746662334
 10
14.460388307203146
 20
-3.371638894068129
 10
14.974820794742579
 20
-3.2220687795173943
 10
15.489633716557588
 20
-3.0713196690842572
 10
16.004560196499114
 20
-2.9193216808781894
 10
16.51974646136315
 20
-2.7661701280569453
 10
17.035122991130574
 20
-2.61213181011391
 10
17.55070822759034
 20
-2.4566988005771426
 10
18.06631197581838
 20
-2.3001632095834506
 10
18.58198533959673
 20
-2.1427662847351945
 10
19.097702792586272
 20
-1.9843875228549934
 10
19.61341323100493
 20
-1.824785676340495
 10
20.129167784186674
 20
-1.6642021134178546
 10
20.644776180551723
 20
-1.5029285823524785
 10
21.160307991223004
 20
-1.3406985248985843
 10
21.67571924807241
 20
-1.1778993643507336
 10
22.190933244323084
 20
-1.0141689880577918
 10
22.705924453635873
 20
-0.8493868928423827
 10
23.220743979792854
 20
-0.683794326306861
 10
23.735227077553393
 20
-0.5178035398940092
 10
24.249494447374353
 20
-0.35138934358419976
 10
24.76334875867768
 20
-0.1842151766173293
 10
25.276815512250632
 20
-0.01640142154697136
 10
25.789894733645088
 20
0.15205180100307147
 10
26.3026119236483
 20
0.3210241084792267
 10
26.81470015500743
 20
0.49058562401962047
 10
27.326305680070362
 20
0.6606409138426982
 10
27.837333273615577
 20
0.8310445259990599
 10
28.347954790985796
 20
1.0015801616583775
 10
28.857826547047498
 20
1.1726802978575088
 10
29.366974119243633
 20
1.3442241901714829
 10
29.8756458908305
 20
1.5156342714854358
 10
30.38344717510014
 20
1.6875837839433838
 10
30.890352343505832
 20
1.8601937132179063
 10
31.3966354078506
 20
2.032765506521565
 10
31.90210601989902
 20
2.205007777460355
 10
32.40673154320988
 20
2.3776695794847704
 10
32.910416803665456
 20
2.5506052193978053
 10
33.41304102415325
 20
2.7237898690512443
 10
33.91477600891216
 20
2.8970074708623557
 10
34.41552655827256
 20
3.0701124522579355
 10
34.915318147469826
 20
3.242984551308214
 10
35.413978972265056
 20
3.4158398255959197
 10
35.91145782666861
 20
3.5889200052186134
 10
36.4078313408017
 20
3.7618633393965655
 10
36.90309948911243
 20
3.934669948753573
 10
37.39704629481866
 20
4.107169432568219
 10
37.88991318438598
 20
4.2794120502559485
 10
38.381381999020064
 20
4.4517097756762505
 10
38.87147823950815
 20
4.623942226275549
 10
39.36032956309779
 20
4.795506765543161
 10
39.84791044344987
 20
4.966523896656464
 10
40.3339281970054
 20
5.137185331545172
 10
40.81864980212099
 20
5.307420705823558
 10
41.30180817823245
 20
5.477300866372552
 10
41.78352400024475
 20
5.64685112383558
 10
42.26372756927554
 20
5.815805523085871
 10
42.742298082660376
 20
5.984139356599
 10
43.21940734463819
 20
6.1516365667922415
 10
43.69473711975893
 20
6.318609489396479
 10
44.16852883448824
 20
6.4851083838271695
 10
44.6405154082619
 20
6.6512040969652455
 10
45.11085002466661
 20
6.816173489122643
 10
45.57941190658988
 20
6.979991732151145
 10
46.046289169151095
 20
7.14343282827326
 10
46.5110939291217
 20
7.306542916845511
 10
46.9742720280955
 20
7.468407266873921
 10
47.435556359956394
 20
7.629096845863224
 10
47.894844589380845
 20
7.789094752137135
 10
48.35213666526503
 20
7.948401226943255
 10
48.807458062844354
 20
8.106896008351821
 10
49.26093649047014
 20
8.263976218604533
 10
49.71227918792775
 20
8.41983393150252
 10
50.16165100266532
 20
8.574880915993353
 10
50.60881027825029
 20
8.729067998275797
 10
51.053808041809006
 20
8.8821542926189
 10
51.496695346019756
 20
9.033898792667905
 10
51.93742098489293
 20
9.184543228520381
 10
52.37586407910841
 20
9.334063254523302
 10
52.812196458457024
 20
9.482242692470145
 10
53.24617646650614
 20
9.629032368559665
 10
53.677848173591435
 20
9.774819223591221
 10
54.1069698721765
 20
9.91955432501118
 10
54.533954971829075
 20
10.063071030285647
 10
54.95837131456979
 20
10.205029502962194
 10
55.38046042907176
 20
10.345479519961062
 10
55.80019666123644
 20
10.484542187578635
 10
56.21728725084914
 20
10.622409579616027
 10
56.63175762204142
 20
10.758961675391069
 10
57.043874829825604
 20
10.894127748646628
 10
57.45330199254757
 20
11.027713173632069
 10
57.86021088889433
 20
11.15950201338846
 10
58.26440398387272
 20
11.289831793666318
 10
58.66597642604856
 20
11.41884832828645
 10
59.06483288799278
 20
11.546406647794651
 10
59.46097326749781
 20
11.672507234686135
 10
59.854353315364804
 20
11.796763992528156
 10
60.245017127481255
 20
11.91956374149626
 10
60.63274852264993
 20
12.04073704585944
 10
61.01761709754561
 20
12.160550343239676
 10
61.39969945673762
 20
12.278642003481039
 10
61.77890022169311
 20
12.394867298376937
 10
62.155142634531394
 20
12.5095885818261
 10
62.52842661859688
 20
12.622806215699944
 10
62.898752071681926
 20
12.734520682493663
 10
63.265928390032244
 20
12.844441802051279
 10
63.63024820610301
 20
12.952378103690664
 10
63.99146285556713
 20
13.058908481388505
 10
64.34947698544364
 20
13.163888086314401
 10
64.70441129618939
 20
13.26734210848798
 10
65.05619598671449
 20
13.369005075277672
 10
65.40468460025588
 20
13.468973385455435
 10
65.75009313914762
 20
13.567417319118892
 10
66.0922565004226
 20
13.663926313558477
 10
66.43112350364308
 20
13.758741978247953
 10
66.76671962404444
 20
13.851744051257539
 10
67.09896807819415
 20
13.94329500710978
 10
67.42791989321854
 20
14.03315396007372
 10
67.75345413869378
 20
14.121296805743944
 10
68.07559628985524
 20
14.207603282190684
 10
68.39444154637248
 20
14.292218961987128
 10
68.70972259771433
 20
14.375215777628434
 10
69.02143931612133
 20
14.456594332233605
 10
69.32973803059703
 20
14.536258830149677
 10
69.63464431858434
 20
14.614088526951681
 10
69.93584030235971
 20
14.690394069637287
 10
70.23344440826166
 20
14.76521138374442
 10
70.5275357704968
 20
14.838166897360844
 10
70.81796698688206
 20
14.909361472339157
 10
71.10468690253165
 20
14.979036597529321
 10
71.38786737278825
 20
15.046975974101
 10
71.66729216535082
 20
15.113010407570785
 10
71.94303092799792
 20
15.177406094313055
 10
72.21505803218285
 20
15.240284020000388
 10
72.48325257303367
 20
15.30161995960357
 10
72.74766557767671
 20
15.361173027391654
 10
73.00827136646153
 20
15.419064450284818
 10
73.26501878450226
 20
15.475535717133024
 10
73.5179332814824
 20
15.530466686630296
 10
73.76694508186388
 20
15.583591765521259
 10
74.01205405788727
 20
15.634911556924925
 10
74.25327880465285
 20
15.68493326357042
 10
74.49052391807591
 20
15.733512277874961
 10
74.72378937260457
 20
15.780648720462343
 10
74.95310059237036
 20
15.826222570650396
 10
75.17833669805322
 20
15.870209482786098
 10
75.39961841566188
 20
15.912634526265283
 10
75.6167737876461
 20
15.953714482413481
 10
75.82985379002848
 20
15.993208706747343
 10
76.03880726792318
 20
16.031358688116832
 10
76.24380610222477
 20
16.06794800706781
 10
76.44455743051103
 20
16.103169219896596
 10
76.64115647800342
 20
16.137167778552595
 10
76.83350789172107
 20
16.169798834205412
 10
77.02175800066743
 20
16.200966591202093
 10
77.2057345917734
 20
16.230889037106177
 10
77.38560941817411
 20
16.259350355582548
 10
77.56106567532544
 20
16.286656127429232
 10
77.73236852739969
 20
16.312744552550367
 10
77.89927698231345
 20
16.337563320925906
 10
78.06191181717925
 20
16.36113726070406
 10
78.22027298089331
 20
16.383466613132427
 10
78.37433484490893
 20
16.404672363883595
 10
78.5240021073489
 20
16.424609422879566
 10
78.66922356222365
 20
16.443519520217905
 10
78.81014561519238
 20
16.461306498374242
 10
78.94662175838832
 20
16.478066997368153
 10
79.07867751815058
 20
16.493680514022248
 10
79.20628731703626
 20
16.50826779276152
 10
79.3294766302807
 20
16.52170857165619
 10
79.44821988044102
 20
16.534123595131238
 10
79.56246593818321
 20
16.545754231412808
 10
79.67214497686551
 20
16.556335128493146
 10
79.77747315213327
 20
16.56603584272706
 10
79.87806227413519
 20
16.57490396095668
 10
79.97430045606687
 20
16.582892258211274
 10
80.06594593928818
 20
16.589952043184816
 10
80.15294759446513
 20
16.59632468410346
 10
80.23545180170512
 20
16.601914144066654
 10
80.31333765613607
 20
16.606696198045174
 10
80.38655405397601
 20
16.610912093641378
 10
80.45527290167135
 20
16.614345290777326
 10
80.51932224167192
 20
16.617212570778563
 10
80.57872757476487
 20
16.619393551091513
 10
80.6334377971682
 20
16.62112947931853
 10
80.6834784607729
 20
16.622299731658433
 10
80.72894481635241
 20
16.623049639436825
 10
80.7695951308184
 20
16.623330390723865
 10
80.80552473159996
 20
16.623286954973757
 10
80.83685444691338
 20
16.62294391908711
 10
80.86334254367037
 20
16.622252471134093
 10
80.88505874630519
 20
16.621478445617687
 10
80.90214953713273
 20
16.62052532314212
 10
80.9143219770751
 20
16.619586021875122
 10
80.92167147021702
 20
16.618805149399478
 10
80.92414683612076
 20
16.618424315188957
  0
ENDSEC
  0
SECTION
  2
OBJECTS
  0
DICTIONARY
  5
A
330
0
100
AcDbDictionary
280
0
281
1
  3
ACAD_COLOR
350
B
  3
ACAD_GROUP
350
C
  3
ACAD_LAYOUT
350
D
  3
ACAD_MATERIAL
350
E
  3
ACAD_MLEADERSTYLE
350
F
  3
ACAD_MLINESTYLE
350
10
  3
ACAD_PLOTSETTINGS
350
11
  3
ACAD_PLOTSTYLENAME
350
12
  3
ACAD_SCALELIST
350
14
  3
ACAD_TABLESTYLE
350
15
  3
ACAD_VISUALSTYLE
350
16
  3
EZDXF_META
350
2D
  0
DICTIONARY
  5
B
330
A
100
AcDbDictionary
280
0
281
1
  0
DICTIONARY
  5
C
330
A
100
AcDbDictionary
280
0
281
1
  0
DICTIONARY
  5
D
330
A
100
AcDbDictionary
280
0
281
1
  3
Model
350
1A
  3
Layout1
350
1E
  0
DICTIONARY
  5
E
330
A
100
AcDbDictionary
280
0
281
1
  3
ByBlock
350
1F
  3
ByLayer
350
20
  3
Global
350
21
  0
DICTIONARY
  5
F
330
A
100
AcDbDictionary
280
0
281
1
  3
Standard
350
2C
  0
DICTIONARY
  5
10
330
A
100
AcDbDictionary
280
0
281
1
  3
Standard
350
22
  0
DICTIONARY
  5
11
330
A
100
AcDbDictionary
280
0
281
1
  0
ACDBDICTIONARYWDFLT
  5
12
330
A
100
AcDbDictionary
280
0
281
1
  3
Normal
350
13
100
AcDbDictionaryWithDefault
340
13
  0
ACDBPLACEHOLDER
  5
13
330
12
  0
DICTIONARY
  5
14
330
A
100
AcDbDictionary
280
0
281
1
  0
DICTIONARY
  5
15
330
A
100
AcDbDictionary
280
0
281
1
  0
DICTIONARY
  5
16
330
A
100
AcDbDictionary
280
0
281
1
  0
LAYOUT
  5
1A
330
D
100
AcDbPlotSettings
  1

  4
A3
  6

 40
7.5
 41
20.0
 42
7.5
 43
20.0
 44
420.0
 45
297.0
 46
0.0
 47
0.0
 48
0.0
 49
0.0
140
0.0
141
0.0
142
1.0
143
1.0
 70
1024
 72
1
 73
0
 74
5
  7

 75
16
 76
0
 77
2
 78
300
147
1.0
148
0.0
149
0.0
100
AcDbLayout
  1
Model
 70
1
 71
0
 10
0.0
 20
0.0
 11
420.0
 21
297.0
 12
0.0
 22
0.0
 32
0.0
 14
1e+20
 24
1e+20
 34
1e+20
 15
-1e+20
 25
-1e+20
 35
-1e+20
146
0.0
 13
0.0
 23
0.0
 33
0.0
 16
1.0
 26
0.0
 36
0.0
 17
0.0
 27
1.0
 37
0.0
 76
1
330
17
  0
LAYOUT
  5
1E
330
D
100
AcDbPlotSettings
  1

  4
A3
  6

 40
7.5
 41
20.0
 42
7.5
 43
20.0
 44
420.0
 45
297.0
 46
0.0
 47
0.0
 48
0.0
 49
0.0
140
0.0
141
0.0
142
1.0
143
1.0
 70
0
 72
1
 73
0
 74
5
  7

 75
16
 76
0
 77
2
 78
300
147
1.0
148
0.0
149
0.0
100
AcDbLayout
  1
Layout1
 70
1
 71
1
 10
0.0
 20
0.0
 11
420.0
 21
297.0
 12
0.0
 22
0.0
 32
0.0
 14
1e+20
 24
1e+20
 34
1e+20
 15
-1e+20
 25
-1e+20
 35
-1e+20
146
0.0
 13
0.0
 23
0.0
 33
0.0
 16
1.0
 26
0.0
 36
0.0
 17
0.0
 27
1.0
 37
0.0
 76
1
330
1B
  0
MATERIAL
  5
1F
102
{ACAD_REACTORS
330
E
102
}
330
E
100
AcDbMaterial
  1
ByBlock
  2

 70
0
 40
1.0
 71
1
 41
1.0
 91
-1023410177
 42
1.0
 72
1
  3

 73
1
 74
1
 75
1
 44
0.5
 73
0
 45
1.0
 46
1.0
 77
1
  4

 78
1
 79
1
170
1
 48
1.0
171
1
  6

172
1
173
1
174
1
140
1.0
141
1.0
175
1
  7

176
1
177
1
178
1
143
1.0
179
1
  8

270
1
271
1
272
1
145
1.0
146
1.0
273
1
  9

274
1
275
1
276
1
 42
1.0
 72
1
  3

 73
1
 74
1
 75
1
 94
63
  0
MATERIAL
  5
20
102
{ACAD_REACTORS
330
E
102
}
330
E
100
AcDbMaterial
  1
ByLayer
  2

 70
0
 40
1.0
 71
1
 41
1.0
 91
-1023410177
 42
1.0
 72
1
  3

 73
1
 74
1
 75
1
 44
0.5
 73
0
 45
1.0
 46
1.0
 77
1
  4

 78
1
 79
1
170
1
 48
1.0
171
1
  6

172
1
173
1
174
1
140
1.0
141
1.0
175
1
  7

176
1
177
1
178
1
143
1.0
179
1
  8

270
1
271
1
272
1
145
1.0
146
1.0
273
1
  9

274
1
275
1
276
1
 42
1.0
 72
1
  3

 73
1
 74
1
 75
1
 94
63
  0
MATERIAL
  5
21
102
{ACAD_REACTORS
330
E
102
}
330
E
100
AcDbMaterial
  1
Global
  2

 70
0
 40
1.0
 71
1
 41
1.0
 91
-1023410177
 42
1.0
 72
1
  3

 73
1
 74
1
 75
1
 44
0.5
 73
0
 45
1.0
 46
1.0
 77
1
  4

 78
1
 79
1
170
1
 48
1.0
171
1
  6

172
1
173
1
174
1
140
1.0
141
1.0
175
1
  7

176
1
177
1
178
1
143
1.0
179
1
  8

270
1
271
1
272
1
145
1.0
146
1.0
273
1
  9

274
1
275
1
276
1
 42
1.0
 72
1
  3

 73
1
 74
1
 75
1
 94
63
  0
MLINESTYLE
  5
22
102
{ACAD_REACTORS
330
10
102
}
330
10
100
AcDbMlineStyle
  2
Standard
 70
0
  3

 62
256
 51
90.0
 52
90.0
 71
2
 49
0.5
 62
256
  6
BYLAYER
 49
-0.5
 62
256
  6
BYLAYER
  0
MLEADERSTYLE
  5
2C
102
{ACAD_REACTORS
330
F
102
}
330
F
100
AcDbMLeaderStyle
179
2
170
2
171
1
172
0
 90
2
 40
0.0
 41
0.0
173
1
 91
-1056964608
 92
-2
290
1
 42
2.0
291
1
 43
8.0
  3
Standard
 44
4.0
300

342
29
174
1
175
1
176
0
178
1
 93
-1056964608
 45
4.0
292
0
297
0
 46
4.0
 94
-1056964608
 47
1.0
 49
1.0
140
1.0
294
1
141
0.0
177
0
142
1.0
295
0
296
0
143
3.75
271
0
272
9
273
9
  0
DICTIONARY
  5
2D
330
A
100
AcDbDictionary
280
1
281
1
  3
CREATED_BY_EZDXF
350
2E
  3
WRITTEN_BY_EZDXF
350
32
  0
DICTIONARYVAR
  5
2E
330
2D
100
DictionaryVariables
280
0
  1
1.3.5 @ 2025-08-20T01:58:17.263874+00:00
  0
DICTIONARYVAR
  5
32
330
2D
100
DictionaryVariables
280
0
  1
1.3.5 @ 2025-08-20T01:58:17.268213+00:00
  0
ENDSEC
  0
EOF
