  0
SECTION
  2
HEADER
  9
$ACADVER
  1
AC1032
  9
$ACADMAINTVER
 90
4
  9
$DWGCODEPAGE
  3
ANSI_1252
  9
$LASTSAVEDBY
  1
ezdxf
  9
$REQUIREDVERSIONS
160
0
  9
$INSBASE
 10
0.0
 20
0.0
 30
0.0
  9
$EXTMIN
 10
1e+20
 20
1e+20
 30
1e+20
  9
$EXTMAX
 10
-1e+20
 20
-1e+20
 30
-1e+20
  9
$LIMMIN
 10
0.0
 20
0.0
  9
$LIMMAX
 10
420.0
 20
297.0
  9
$ORTHOMODE
 70
0
  9
$REGENMODE
 70
1
  9
$FILLMODE
 70
1
  9
$QTEXTMODE
 70
0
  9
$MIRRTEXT
 70
1
  9
$LTSCALE
 40
1.0
  9
$ATTMODE
 70
1
  9
$TEXTSIZE
 40
2.5
  9
$TRACEWID
 40
1.0
  9
$TEXTSTYLE
  7
Standard
  9
$CLAYER
  8
0
  9
$CELTYPE
  6
ByLayer
  9
$CECOLOR
 62
256
  9
$CELTSCALE
 40
1.0
  9
$DISPSILH
 70
0
  9
$DIMSCALE
 40
1.0
  9
$DIMASZ
 40
2.5
  9
$DIMEXO
 40
0.625
  9
$DIMDLI
 40
3.75
  9
$DIMRND
 40
0.0
  9
$DIMDLE
 40
0.0
  9
$DIMEXE
 40
1.25
  9
$DIMTP
 40
0.0
  9
$DIMTM
 40
0.0
  9
$DIMTXT
 40
2.5
  9
$DIMCEN
 40
2.5
  9
$DIMTSZ
 40
0.0
  9
$DIMTOL
 70
0
  9
$DIMLIM
 70
0
  9
$DIMTIH
 70
0
  9
$DIMTOH
 70
0
  9
$DIMSE1
 70
0
  9
$DIMSE2
 70
0
  9
$DIMTAD
 70
1
  9
$DIMZIN
 70
8
  9
$DIMBLK
  1

  9
$DIMASO
 70
1
  9
$DIMSHO
 70
1
  9
$DIMPOST
  1

  9
$DIMAPOST
  1

  9
$DIMALT
 70
0
  9
$DIMALTD
 70
3
  9
$DIMALTF
 40
0.03937007874
  9
$DIMLFAC
 40
1.0
  9
$DIMTOFL
 70
1
  9
$DIMTVP
 40
0.0
  9
$DIMTIX
 70
0
  9
$DIMSOXD
 70
0
  9
$DIMSAH
 70
0
  9
$DIMBLK1
  1

  9
$DIMBLK2
  1

  9
$DIMSTYLE
  2
ISO-25
  9
$DIMCLRD
 70
0
  9
$DIMCLRE
 70
0
  9
$DIMCLRT
 70
0
  9
$DIMTFAC
 40
1.0
  9
$DIMGAP
 40
0.625
  9
$DIMJUST
 70
0
  9
$DIMSD1
 70
0
  9
$DIMSD2
 70
0
  9
$DIMTOLJ
 70
0
  9
$DIMTZIN
 70
8
  9
$DIMALTZ
 70
0
  9
$DIMALTTZ
 70
0
  9
$DIMUPT
 70
0
  9
$DIMDEC
 70
2
  9
$DIMTDEC
 70
2
  9
$DIMALTU
 70
2
  9
$DIMALTTD
 70
3
  9
$DIMTXSTY
  7
Standard
  9
$DIMAUNIT
 70
0
  9
$DIMADEC
 70
0
  9
$DIMALTRND
 40
0.0
  9
$DIMAZIN
 70
0
  9
$DIMDSEP
 70
44
  9
$DIMATFIT
 70
3
  9
$DIMFRAC
 70
0
  9
$DIMLDRBLK
  1

  9
$DIMLUNIT
 70
2
  9
$DIMLWD
 70
-2
  9
$DIMLWE
 70
-2
  9
$DIMTMOVE
 70
0
  9
$DIMFXL
 40
1.0
  9
$DIMFXLON
 70
0
  9
$DIMJOGANG
 40
0.785398163397
  9
$DIMTFILL
 70
0
  9
$DIMTFILLCLR
 70
0
  9
$DIMARCSYM
 70
0
  9
$DIMLTYPE
  6

  9
$DIMLTEX1
  6

  9
$DIMLTEX2
  6

  9
$DIMTXTDIRECTION
 70
0
  9
$LUNITS
 70
2
  9
$LUPREC
 70
4
  9
$SKETCHINC
 40
1.0
  9
$FILLETRAD
 40
10.0
  9
$AUNITS
 70
0
  9
$AUPREC
 70
2
  9
$MENU
  1
.
  9
$ELEVATION
 40
0.0
  9
$PELEVATION
 40
0.0
  9
$THICKNESS
 40
0.0
  9
$LIMCHECK
 70
0
  9
$CHAMFERA
 40
0.0
  9
$CHAMFERB
 40
0.0
  9
$CHAMFERC
 40
0.0
  9
$CHAMFERD
 40
0.0
  9
$SKPOLY
 70
0
  9
$TDCREATE
 40
2460908.1237962963
  9
$TDUCREATE
 40
2458532.153996898
  9
$TDUPDATE
 40
2460908.1237962963
  9
$TDUUPDATE
 40
2458532.1544311
  9
$TDINDWG
 40
0.0
  9
$TDUSRTIMER
 40
0.0
  9
$USRTIMER
 70
1
  9
$ANGBASE
 50
0.0
  9
$ANGDIR
 70
0
  9
$PDMODE
 70
0
  9
$PDSIZE
 40
0.0
  9
$PLINEWID
 40
0.0
  9
$SPLFRAME
 70
0
  9
$SPLINETYPE
 70
6
  9
$SPLINESEGS
 70
8
  9
$HANDSEED
  5
33
  9
$SURFTAB1
 70
6
  9
$SURFTAB2
 70
6
  9
$SURFTYPE
 70
6
  9
$SURFU
 70
6
  9
$SURFV
 70
6
  9
$UCSBASE
  2

  9
$UCSNAME
  2

  9
$UCSORG
 10
0.0
 20
0.0
 30
0.0
  9
$UCSXDIR
 10
1.0
 20
0.0
 30
0.0
  9
$UCSYDIR
 10
0.0
 20
1.0
 30
0.0
  9
$UCSORTHOREF
  2

  9
$UCSORTHOVIEW
 70
0
  9
$UCSORGTOP
 10
0.0
 20
0.0
 30
0.0
  9
$UCSORGBOTTOM
 10
0.0
 20
0.0
 30
0.0
  9
$UCSORGLEFT
 10
0.0
 20
0.0
 30
0.0
  9
$UCSORGRIGHT
 10
0.0
 20
0.0
 30
0.0
  9
$UCSORGFRONT
 10
0.0
 20
0.0
 30
0.0
  9
$UCSORGBACK
 10
0.0
 20
0.0
 30
0.0
  9
$PUCSBASE
  2

  9
$PUCSNAME
  2

  9
$PUCSORG
 10
0.0
 20
0.0
 30
0.0
  9
$PUCSXDIR
 10
1.0
 20
0.0
 30
0.0
  9
$PUCSYDIR
 10
0.0
 20
1.0
 30
0.0
  9
$PUCSORTHOREF
  2

  9
$PUCSORTHOVIEW
 70
0
  9
$PUCSORGTOP
 10
0.0
 20
0.0
 30
0.0
  9
$PUCSORGBOTTOM
 10
0.0
 20
0.0
 30
0.0
  9
$PUCSORGLEFT
 10
0.0
 20
0.0
 30
0.0
  9
$PUCSORGRIGHT
 10
0.0
 20
0.0
 30
0.0
  9
$PUCSORGFRONT
 10
0.0
 20
0.0
 30
0.0
  9
$PUCSORGBACK
 10
0.0
 20
0.0
 30
0.0
  9
$USERI1
 70
0
  9
$USERI2
 70
0
  9
$USERI3
 70
0
  9
$USERI4
 70
0
  9
$USERI5
 70
0
  9
$USERR1
 40
0.0
  9
$USERR2
 40
0.0
  9
$USERR3
 40
0.0
  9
$USERR4
 40
0.0
  9
$USERR5
 40
0.0
  9
$WORLDVIEW
 70
1
  9
$SHADEDGE
 70
3
  9
$SHADEDIF
 70
70
  9
$TILEMODE
 70
1
  9
$MAXACTVP
 70
64
  9
$PINSBASE
 10
0.0
 20
0.0
 30
0.0
  9
$PLIMCHECK
 70
0
  9
$PEXTMIN
 10
1e+20
 20
1e+20
 30
1e+20
  9
$PEXTMAX
 10
-1e+20
 20
-1e+20
 30
-1e+20
  9
$PLIMMIN
 10
0.0
 20
0.0
  9
$PLIMMAX
 10
420.0
 20
297.0
  9
$UNITMODE
 70
0
  9
$VISRETAIN
 70
1
  9
$PLINEGEN
 70
0
  9
$PSLTSCALE
 70
1
  9
$TREEDEPTH
 70
3020
  9
$CMLSTYLE
  2
Standard
  9
$CMLJUST
 70
0
  9
$CMLSCALE
 40
20.0
  9
$PROXYGRAPHICS
 70
1
  9
$MEASUREMENT
 70
1
  9
$CELWEIGHT
370
-1
  9
$ENDCAPS
280
0
  9
$JOINSTYLE
280
0
  9
$LWDISPLAY
290
0
  9
$INSUNITS
 70
6
  9
$HYPERLINKBASE
  1

  9
$STYLESHEET
  1

  9
$XEDIT
290
1
  9
$CEPSNTYPE
380
0
  9
$PSTYLEMODE
290
1
  9
$FINGERPRINTGUID
  2
{6C910AE3-4382-44D9-A918-8A6538522414}
  9
$VERSIONGUID
  2
{3CBE4F8D-E9B8-4A6E-83FD-C41D2B3B7439}
  9
$EXTNAMES
290
1
  9
$PSVPSCALE
 40
0.0
  9
$OLESTARTUP
290
0
  9
$SORTENTS
280
127
  9
$INDEXCTL
280
0
  9
$HIDETEXT
280
1
  9
$XCLIPFRAME
280
1
  9
$HALOGAP
280
0
  9
$OBSCOLOR
 70
257
  9
$OBSLTYPE
280
0
  9
$INTERSECTIONDISPLAY
280
0
  9
$INTERSECTIONCOLOR
 70
257
  9
$DIMASSOC
280
2
  9
$PROJECTNAME
  1

  9
$CAMERADISPLAY
290
0
  9
$LENSLENGTH
 40
50.0
  9
$CAMERAHEIGHT
 40
0.0
  9
$STEPSPERSEC
 40
24.0
  9
$STEPSIZE
 40
100.0
  9
$3DDWFPREC
 40
2.0
  9
$PSOLWIDTH
 40
0.005
  9
$PSOLHEIGHT
 40
0.08
  9
$LOFTANG1
 40
1.570796326795
  9
$LOFTANG2
 40
1.570796326795
  9
$LOFTMAG1
 40
0.0
  9
$LOFTMAG2
 40
0.0
  9
$LOFTPARAM
 70
7
  9
$LOFTNORMALS
280
1
  9
$LATITUDE
 40
37.795
  9
$LONGITUDE
 40
-122.394
  9
$NORTHDIRECTION
 40
0.0
  9
$TIMEZONE
 70
-8000
  9
$LIGHTGLYPHDISPLAY
280
1
  9
$TILEMODELIGHTSYNCH
280
1
  9
$CMATERIAL
347
20
  9
$SOLIDHIST
280
0
  9
$SHOWHIST
280
1
  9
$DWFFRAME
280
2
  9
$DGNFRAME
280
2
  9
$REALWORLDSCALE
290
1
  9
$INTERFERECOLOR
 62
256
  9
$CSHADOW
280
0
  9
$SHADOWPLANELOCATION
 40
0.0
  0
ENDSEC
  0
SECTION
  2
CLASSES
  0
CLASS
  1
ACDBDICTIONARYWDFLT
  2
AcDbDictionaryWithDefault
  3
ObjectDBX Classes
 90
0
 91
0
280
0
281
0
  0
CLASS
  1
SUN
  2
AcDbSun
  3
SCENEOE
 90
1153
 91
0
280
0
281
0
  0
CLASS
  1
VISUALSTYLE
  2
AcDbVisualStyle
  3
ObjectDBX Classes
 90
4095
 91
0
280
0
281
0
  0
CLASS
  1
MATERIAL
  2
AcDbMaterial
  3
ObjectDBX Classes
 90
1153
 91
0
280
0
281
0
  0
CLASS
  1
SCALE
  2
AcDbScale
  3
ObjectDBX Classes
 90
1153
 91
0
280
0
281
0
  0
CLASS
  1
TABLESTYLE
  2
AcDbTableStyle
  3
ObjectDBX Classes
 90
4095
 91
0
280
0
281
0
  0
CLASS
  1
MLEADERSTYLE
  2
AcDbMLeaderStyle
  3
ACDB_MLEADERSTYLE_CLASS
 90
4095
 91
0
280
0
281
0
  0
CLASS
  1
DICTIONARYVAR
  2
AcDbDictionaryVar
  3
ObjectDBX Classes
 90
0
 91
0
280
0
281
0
  0
CLASS
  1
CELLSTYLEMAP
  2
AcDbCellStyleMap
  3
ObjectDBX Classes
 90
1152
 91
0
280
0
281
0
  0
CLASS
  1
MENTALRAYRENDERSETTINGS
  2
AcDbMentalRayRenderSettings
  3
SCENEOE
 90
1024
 91
0
280
0
281
0
  0
CLASS
  1
ACDBDETAILVIEWSTYLE
  2
AcDbDetailViewStyle
  3
ObjectDBX Classes
 90
1025
 91
0
280
0
281
0
  0
CLASS
  1
ACDBSECTIONVIEWSTYLE
  2
AcDbSectionViewStyle
  3
ObjectDBX Classes
 90
1025
 91
0
280
0
281
0
  0
CLASS
  1
RASTERVARIABLES
  2
AcDbRasterVariables
  3
ISM
 90
0
 91
0
280
0
281
0
  0
CLASS
  1
LAYOUT
  2
AcDbLayout
  3
ObjectDBX Classes
 90
0
 91
0
280
0
281
0
  0
CLASS
  1
ACDBPLACEHOLDER
  2
AcDbPlaceHolder
  3
ObjectDBX Classes
 90
0
 91
0
280
0
281
0
  0
ENDSEC
  0
SECTION
  2
TABLES
  0
TABLE
  2
VPORT
  5
8
330
0
100
AcDbSymbolTable
 70
1
  0
VPORT
  5
23
330
8
100
AcDbSymbolTableRecord
100
AcDbViewportTableRecord
  2
*Active
 70
0
 10
0.0
 20
0.0
 11
1.0
 21
1.0
 12
0.0
 22
0.0
 13
0.0
 23
0.0
 14
0.5
 24
0.5
 15
0.5
 25
0.5
 16
0.0
 26
0.0
 36
1.0
 17
0.0
 27
0.0
 37
0.0
 40
1000.0
 41
1.34
 42
50.0
 43
0.0
 44
0.0
 50
0.0
 51
0.0
 71
0
 72
1000
 73
1
 74
3
 75
0
 76
0
 77
0
 78
0
281
0
 65
0
146
0.0
  0
ENDTAB
  0
TABLE
  2
LTYPE
  5
2
330
0
100
AcDbSymbolTable
 70
3
  0
LTYPE
  5
24
330
2
100
AcDbSymbolTableRecord
100
AcDbLinetypeTableRecord
  2
ByBlock
 70
0
  3

 72
65
 73
0
 40
0.0
  0
LTYPE
  5
25
330
2
100
AcDbSymbolTableRecord
100
AcDbLinetypeTableRecord
  2
ByLayer
 70
0
  3

 72
65
 73
0
 40
0.0
  0
LTYPE
  5
26
330
2
100
AcDbSymbolTableRecord
100
AcDbLinetypeTableRecord
  2
Continuous
 70
0
  3

 72
65
 73
0
 40
0.0
  0
ENDTAB
  0
TABLE
  2
LAYER
  5
1
330
0
100
AcDbSymbolTable
 70
2
  0
LAYER
  5
27
330
1
100
AcDbSymbolTableRecord
100
AcDbLayerTableRecord
  2
0
 70
0
 62
7
  6
Continuous
370
-3
390
13
347
21
  0
LAYER
  5
28
330
1
100
AcDbSymbolTableRecord
100
AcDbLayerTableRecord
  2
Defpoints
 70
0
 62
7
  6
Continuous
290
0
370
-3
390
13
347
21
  0
ENDTAB
  0
TABLE
  2
STYLE
  5
5
330
0
100
AcDbSymbolTable
 70
1
  0
STYLE
  5
29
330
5
100
AcDbSymbolTableRecord
100
AcDbTextStyleTableRecord
  2
Standard
 70
0
 40
0.0
 41
1.0
 50
0.0
 71
0
 42
2.5
  3
txt
  4

  0
ENDTAB
  0
TABLE
  2
VIEW
  5
7
330
0
100
AcDbSymbolTable
 70
0
  0
ENDTAB
  0
TABLE
  2
UCS
  5
6
330
0
100
AcDbSymbolTable
 70
0
  0
ENDTAB
  0
TABLE
  2
APPID
  5
3
330
0
100
AcDbSymbolTable
 70
3
  0
APPID
  5
2A
330
3
100
AcDbSymbolTableRecord
100
AcDbRegAppTableRecord
  2
ACAD
 70
0
  0
APPID
  5
30
330
3
100
AcDbSymbolTableRecord
100
AcDbRegAppTableRecord
  2
HATCHBACKGROUNDCOLOR
 70
0
  0
APPID
  5
31
330
3
100
AcDbSymbolTableRecord
100
AcDbRegAppTableRecord
  2
EZDXF
 70
0
  0
ENDTAB
  0
TABLE
  2
DIMSTYLE
  5
4
330
0
100
AcDbSymbolTable
 70
1
100
AcDbDimStyleTable
  0
DIMSTYLE
105
2B
330
4
100
AcDbSymbolTableRecord
100
AcDbDimStyleTableRecord
  2
Standard
 70
0
 40
1.0
 41
2.5
 42
0.625
 43
3.75
 44
1.25
 45
0.0
 46
0.0
 47
0.0
 48
0.0
 49
2.5
140
2.5
141
2.5
142
0.0
143
0.03937007874
144
1.0
145
0.0
146
1.0
147
0.625
148
0.0
 69
0
 70
0
 71
0
 72
0
 73
0
 74
0
 75
0
 76
0
 77
1
 78
8
 79
3
170
0
171
3
172
1
173
0
174
0
175
0
176
0
177
0
178
0
179
2
271
2
272
2
273
2
274
3
275
0
276
0
277
2
278
44
279
0
280
0
281
0
282
0
283
0
284
8
285
0
286
0
288
0
289
3
290
0
371
-2
372
-2
  0
ENDTAB
  0
TABLE
  2
BLOCK_RECORD
  5
9
330
0
100
AcDbSymbolTable
 70
2
  0
BLOCK_RECORD
  5
17
330
9
100
AcDbSymbolTableRecord
100
AcDbBlockTableRecord
  2
*Model_Space
340
1A
 70
0
280
1
281
0
  0
BLOCK_RECORD
  5
1B
330
9
100
AcDbSymbolTableRecord
100
AcDbBlockTableRecord
  2
*Paper_Space
340
1E
 70
0
280
1
281
0
  0
ENDTAB
  0
ENDSEC
  0
SECTION
  2
BLOCKS
  0
BLOCK
  5
18
330
17
100
AcDbEntity
  8
0
100
AcDbBlockBegin
  2
*Model_Space
 70
0
 10
0.0
 20
0.0
 30
0.0
  3
*Model_Space
  1

  0
ENDBLK
  5
19
330
17
100
AcDbEntity
  8
0
100
AcDbBlockEnd
  0
BLOCK
  5
1C
330
1B
100
AcDbEntity
  8
0
100
AcDbBlockBegin
  2
*Paper_Space
 70
0
 10
0.0
 20
0.0
 30
0.0
  3
*Paper_Space
  1

  0
ENDBLK
  5
1D
330
1B
100
AcDbEntity
  8
0
100
AcDbBlockEnd
  0
ENDSEC
  0
SECTION
  2
ENTITIES
  0
LWPOLYLINE
  5
2F
330
17
100
AcDbEntity
  8
0
100
AcDbPolyline
 90
721
 70
1
 10
69.70050988528685
 20
47.41197655912546
 10
69.69804887264316
 20
47.41134901176278
 10
69.69080685230989
 20
47.40925765970996
 10
69.67906536641429
 20
47.40528581279259
 10
69.66258020320228
 20
47.399570178853914
 10
69.6417695591366
 20
47.39194128018697
 10
69.61645959038532
 20
47.38243167815402
 10
69.58661704808428
 20
47.37086584965702
 10
69.55244909536792
 20
47.35738665218101
 10
69.51392248337204
 20
47.34181856262791
 10
69.47079278902746
 20
47.324298601593114
 10
69.42340805218979
 20
47.304761125098416
 10
69.37166451519586
 20
47.28313496502807
 10
69.31549173968516
 20
47.259524372113766
 10
69.25503060237882
 20
47.233720844892204
 10
69.19014008567892
 20
47.20593309332811
 10
69.1209942447325
 20
47.17612824330704
 10
69.04748932187641
 20
47.14423512671326
 10
68.96955487875006
 20
47.11035799427844
 10
68.8874352679843
 20
47.0743599296579
 10
68.80088592563321
 20
47.03637816194851
 10
68.71004765797963
 20
46.99620429393772
 10
68.61498668099838
 20
46.954189788824586
 10
68.51546258269093
 20
46.910016266025984
 10
68.41178600210138
 20
46.8638981681456
 10
68.3037497056569
 20
46.815692741949114
 10
68.19145709882883
 20
46.76547167680587
 10
68.0749081111788
 20
46.71323507696662
 10
67.9540322339079
 20
46.65908729741373
 10
67.82882925570098
 20
46.60302865089938
 10
67.6994399828409
 20
46.54485074021105
 10
67.56572346816813
 20
46.484762171062705
 10
67.4278534850762
 20
46.42273048634285
 10
67.2856559784181
 20
46.35878856016593
 10
67.13927154316161
 20
46.292728308071595
 10
66.98866291937193
 20
46.22482960814029
 10
66.83375945737339
 20
46.15519702385586
 10
66.67477233137105
 20
46.08351801152485
 10
66.51145683654224
 20
46.00993000874556
 10
66.34409057438195
 20
45.93447162227141
 10
66.17239566164179
 20
45.85710466235192
 10
65.99657919101777
 20
45.77797209072287
 10
65.81653733440845
 20
45.6970028435193
 10
65.6323735677235
 20
45.61426850585983
 10
65.444054501222
 20
45.52959376314786
 10
65.25168361081367
 20
45.443050200502
 10
65.0550161916758
 20
45.35477525552057
 10
64.85432977486512
 20
45.26480763920774
 10
64.64952053228012
 20
45.17307628769852
 10
64.44058832304407
 20
45.079581409494395
 10
64.22753279496517
 20
44.984323525848986
 10
64.01038712646927
 20
44.88747826411115
 10
63.78911778693869
 20
44.7888705181857
 10
63.56375788436092
 20
44.688676019672194
 10
63.33437750490475
 20
44.58679103909264
 10
63.10111745485296
 20
44.483007179234484
 10
62.86394019251738
 20
44.3776047351811
 10
62.62260108351369
 20
44.270721040280094
 10
62.377099775650095
 20
44.162356615785086
 10
62.12775113035637
 20
44.052270190369086
 10
61.874484427518524
 20
43.94056643176664
 10
61.61729952625981
 20
43.827245548479205
 10
61.35598475930669
 20
43.71262081395541
 10
61.090892107146985
 20
43.59617128728919
 10
60.82198416896921
 20
43.47817705506245
 10
60.5491902950977
 20
43.35874268075908
 10
60.27233614863206
 20
43.23790145549646
 10
59.99169919019054
 20
43.115692194529466
 10
59.70724595959392
 20
42.99193968751223
 10
59.41897631596545
 20
42.866644142946186
 10
59.12685271761696
 20
42.74008585591475
 10
58.83115663623729
 20
42.61184824049425
 10
58.53164343744218
 20
42.48206863003227
 10
58.22844963469041
 20
42.35099444549773
 10
57.9215750166669
 20
42.21862599964282
 10
57.611056631991325
 20
42.08468372713927
 10
57.2968236901113
 20
41.94927239997239
 10
56.9790832837229
 20
41.81253497987797
 10
56.65759063756512
 20
41.67460900870506
 10
56.33255685540465
 20
41.53518204701095
 10
56.004085342712756
 20
41.39432578416495
 10
55.67217588817441
 20
41.25204053291929
 10
55.336687262876595
 20
41.1085353159909
 10
54.99761925550428
 20
40.96381044613199
 10
54.655042093102935
 20
40.81776198536311
 10
54.30923330672923
 20
40.6704286446884
 10
53.959914801819615
 20
40.52177254710958
 10
53.60719005428376
 20
40.37186527774525
 10
53.25137385511312
 20
40.22046566951912
 10
52.89229172653051
 20
40.067607222050064
 10
52.52983582936391
 20
39.91367427265165
 10
52.16410963952294
 20
39.75873840644248
 10
51.79504630708749
 20
39.60244909848009
 10
51.423064380712084
 20
39.44463634980386
 10
51.047881825200975
 20
39.285717580343295
 10
50.669568867599615
 20
39.12558885211893
 10
50.28805478779404
 20
38.96435483286538
 10
49.903583867976685
 20
38.80187871048868
 10
49.51615596727086
 20
38.638160693490306
 10
49.12566704625996
 20
38.47313003075747
 10
48.73225382971789
 20
38.307033830506874
 10
48.335812419104776
 20
38.139801133124315
 10
47.93658716705149
 20
37.971295022265124
 10
47.53457779180456
 20
37.801515914932196
 10
47.12988783971205
 20
37.63053529199344
 10
46.7223428329968
 20
37.45838665306775
 10
46.31190544128568
 20
37.28534998048629
 10
45.898682869805526
 20
37.11104187519208
 10
45.48291588274676
 20
36.93578019651462
 10
45.064678436472015
 20
36.75900602229884
 10
44.643899740428914
 20
36.58082412453004
 10
44.22057585398521
 20
36.401689800136026
 10
43.79463605702691
 20
36.221707716851384
 10
43.36608393799443
 20
36.040423099001956
 10
42.93547526338469
 20
35.85791232608872
 10
42.502568916815456
 20
35.67385806003586
 10
42.06736081677779
 20
35.48871580627263
 10
41.62967655593293
 20
35.30251896016719
 10
41.189793947090955
 20
35.11530581572075
 10
40.7478203363554
 20
34.92669276537486
 10
40.30371839335316
 20
34.73695979146071
 10
39.857346959609636
 20
34.54631581244454
 10
39.40905808605099
 20
34.35423978316957
 10
38.95892199972273
 20
34.160627765656336
 10
38.506793883271484
 20
33.96614355829595
 10
38.05253637797815
 20
33.770540991128286
 10
37.596286419931644
 20
33.57406685961786
 10
37.13846649841875
 20
33.37609586787626
 10
36.67900596376379
 20
33.17673257938731
 10
36.21776379836891
 20
32.97618570411579
 10
35.75452833496054
 20
32.77476851551029
 10
35.28978898318397
 20
32.572206138374156
 10
34.82361948808677
 20
32.367939963304536
 10
34.35612001889164
 20
32.162495934091275
 10
33.886730375400894
 20
31.95625369791632
 10
33.41583613915835
 20
31.748867315718048
 10
32.94371871141453
 20
31.539920305823554
 10
32.4704449420896
 20
31.32976319317532
 10
31.995736384428202
 20
31.11835862202872
 10
31.519730185834373
 20
30.90595307509608
 10
31.042392745252112
 20
30.692371550532954
 10
30.563968697065707
 20
30.477476714991774
 10
30.084561798938292
 20
30.261339736588244
 10
29.604067941014932
 20
30.043889968460302
 10
29.122694849936963
 20
29.82526943408718
 10
28.64023451730961
 20
29.605336526992573
 10
28.15675365217631
 20
29.384441980620466
 10
27.672322763336012
 20
29.16248143998847
 10
27.187293760838187
 20
28.938934068441295
 10
26.701525627084933
 20
28.714008575943673
 10
26.21515572079537
 20
28.487951132455745
 10
25.72790559521414
 20
28.260724382232876
 10
25.24012385370374
 20
28.032261847290975
 10
24.751880864186386
 20
27.802459381149138
 10
24.263246994584293
 20
27.571212837326435
 10
23.77408108642286
 20
27.3387311342891
 10
23.284416740758083
 20
27.105189273881557
 10
22.794253746274855
 20
26.87058756885599
 10
22.30390731659478
 20
26.634684226631702
 10
21.813343850661877
 20
26.397304245364275
 10
21.32273761493821
 20
26.158414438187037
 10
20.831981263320223
 20
25.918398412658426
 10
20.340759370871265
 20
25.677498274111343
 10
19.84942075226889
 20
25.435647231809504
 10
19.3584248749812
 20
25.191940528786976
 10
18.867348897529624
 20
24.94700398218582
 10
18.376330530825054
 20
24.701083240712506
 10
17.88540640085704
 20
24.45389936454318
 10
17.394647016424475
 20
24.20534799869542
 10
16.904048929963697
 20
23.95588371034195
 10
16.413578681295434
 20
23.70533128913687
 10
15.92355141360291
 20
23.45344904675021
 10
15.433863087469575
 20
23.200166232069208
 10
14.944651413806321
 20
22.945728493800317
 10
14.455845813375856
 20
22.690240291176664
 10
13.967657671698282
 20
22.43338876775256
 10
13.480016409536274
 20
22.175278382761114
 10
12.992955698384215
 20
21.916084033796036
 10
12.50616018374377
 20
21.656047721939476
 10
12.020260574611566
 20
21.394685445027104
 10
11.535256870987602
 20
21.131997203058933
 10
11.051078704949653
 20
20.868087142515872
 10
10.567655497260416
 20
20.603059722631023
 10
10.085161937012128
 20
20.336881131033337
 10
9.603423475989267
 20
20.069584971592406
 10
9.122718701823924
 20
19.801208391551405
 10
8.6431885616756
 20
19.53154278519631
 10
8.164762617183731
 20
19.260692403258776
 10
7.687370500426087
 20
18.988761392219704
 10
7.211082649763257
 20
18.71564550134746
 10
6.736248302502962
 20
18.441277314401365
 10
6.262622401630766
 20
18.165794790233416
 10
5.790168321157151
 20
17.88947686866747
 10
5.319134143030096
 20
17.611731649183263
 10
4.849587280676644
 20
17.332908822717435
 10
4.381316630330133
 20
17.053320828712735
 10
3.914429256340674
 20
16.77258447661365
 10
3.4492745368927165
 20
16.490632141678038
 10
2.985711665703447
 20
16.20767222111847
 10
2.5237773392007523
 20
15.923425670860338
 10
2.063539182126761
 20
15.638241869088095
 10
1.60503396134771
 20
15.351841667476402
 10
1.1483996695279481
 20
15.064470297728807
 10
0.6932167718758835
 20
14.77629921831615
 10
0.2398346465759712
 20
14.487260804496309
 10
-0.21146495292946338
 20
14.1969380533427
 10
-0.6607522536859223
 20
13.905434902834768
 10
-1.108134390481861
 20
13.613134647778772
 10
-1.5535406432032544
 20
13.319932620440136
 10
-1.99690050305117
 20
13.025724465836475
 10
-2.4381096488555922
 20
12.730580518077653
 10
-2.8774131376309664
 20
12.434638736015643
 10
-3.3148473136133823
 20
12.138177642471385
 10
-3.7500261726288557
 20
11.840850672878881
 10
-4.1828086970794995
 20
11.542449117273383
 10
-4.613335552371406
 20
11.24318116436598
 10
-5.041566445804329
 20
10.943211912181592
 10
-5.46759421709551
 20
10.642454033741107
 10
-5.891384842558786
 20
10.341081905384563
 10
-6.312904509823112
 20
10.039270216204178
 10
-6.7319757161777884
 20
9.7365315249128
 10
-7.148494210891188
 20
9.432936269871
 10
-7.562707935034565
 20
9.129076143097592
 10
-7.974580262618396
 20
8.824672204768707
 10
-8.383832253818813
 20
8.51976108087386
 10
-8.790672410099114
 20
8.214201894691879
 10
-9.19489222999599
 20
7.908135522943947
 10
-9.596528339498981
 20
7.6018409054539156
 10
-9.995859678431943
 20
7.295281416232279
 10
-10.392429804260328
 20
6.98800623998139
 10
-10.786452845684334
 20
6.680781757812284
 10
-11.178173930156767
 20
6.373746032827674
 10
-11.56727467824579
 20
6.066203122277098
 10
-11.953442337756464
 20
5.758364341242307
 10
-12.336992474502173
 20
5.450472003557651
 10
-12.717995526843506
 20
5.142630359954778
 10
-13.096310618059292
 20
4.834630908970402
 10
-13.471799685046827
 20
4.526718778057323
 10
-13.8446712292694
 20
4.218753090494388
 10
-14.214928064345466
 20
3.9111874751976883
 10
-14.582429313553865
 20
3.6038134307039336
 10
-14.947104538534008
 20
3.296526706281485
 10
-15.309024177646481
 20
2.9894315526619812
 10
-15.668224856880803
 20
2.682806909669299
 10
-16.024810826968615
 20
2.3765823389428546
 10
-16.378432709725463
 20
2.0706902157405254
 10
-16.729090505151355
 20
1.765130540062303
 10
-17.07681802561734
 20
1.4597286228159672
 10
-17.421581458752364
 20
1.1546591530937391
 10
-17.763592119638172
 20
0.8502348830905609
 10
-18.102816195903696
 20
0.5466305018986605
 10
-18.438971934106615
 20
0.24342900659144995
 10
-18.77216358497857
 20
-0.059440041191648835
 10
-19.102007957964044
 20
-0.3618695771005398
 10
-19.42892486960807
 20
-0.663687725661443
 10
-19.752984758271236
 20
-0.9647902361427194
 10
-20.073979122490243
 20
-1.265036231823197
 10
-20.391837523904517
 20
-1.56452996343453
 10
-20.70645289816395
 20
-1.8636546215322336
 10
-21.01800274797923
 20
-2.1619227648291437
 10
-21.3266983884321
 20
-2.459021641130323
 10
-21.632083376988007
 20
-2.755402065733419
 10
-21.934261964378592
 20
-3.0511344769990125
 10
-22.233166525861726
 20
-3.3458694967426474
 10
-22.52890131216907
 20
-3.6396775633249088
 10
-22.82153676166119
 20
-3.9324544260141496
 10
-23.110757308524697
 20
-4.224442398644723
 10
-23.39670382948076
 20
-4.515432979753343
 10
-23.679376324529375
 20
-4.805426169340002
 10
-23.959056547112866
 20
-5.094004964478121
 10
-24.23546555740737
 20
-5.381132739178184
 10
-24.50860054179442
 20
-5.667263122356288
 10
-24.778216372821213
 20
-5.952534177115145
 10
-25.044490553198436
 20
-6.236458462167591
 10
-25.30766821037889
 20
-6.518897914410913
 10
-25.567363340188606
 20
-6.800199098411116
 10
-25.823612568617104
 20
-7.080083074344324
 10
-26.076694835488247
 20
-7.358586468200056
 10
-26.326401639338755
 20
-7.635568403257145
 10
-26.572521665086875
 20
-7.9113416317105365
 10
-26.815266227814362
 20
-8.185593401365287
 10
-27.054705765881785
 20
-8.458219461489751
 10
-27.290769840928565
 20
-8.729324062815573
 10
-27.523354202223064
 20
-8.998836766982174
 10
-27.7523884114047
 20
-9.266861824721204
 10
-27.97804715756569
 20
-9.53336542366159
 10
-28.200121939242756
 20
-9.798206687082175
 10
-28.418753633157046
 20
-10.06117711351966
 10
-28.634009864050697
 20
-10.322626081158509
 10
-28.845577879728772
 20
-10.582342274916972
 10
-29.053491492562337
 20
-10.84050038388728
 10
-29.258032455993714
 20
-11.096683405142844
 10
-29.459200770022896
 20
-11.350891338683667
 10
-29.656751307197094
 20
-11.603262247612458
 10
-29.850613629155713
 20
-11.85390038266087
 10
-30.040821548269818
 20
-12.10298043292112
 10
-30.227518754879014
 20
-12.349840268013814
 10
-30.410739061354395
 20
-12.594654577031198
 10
-30.590341590974777
 20
-12.837631861436542
 10
-30.766222093008512
 20
-13.07870168286928
 10
-30.938521444176768
 20
-13.317655539866106
 10
-31.107098767758387
 20
-13.554701933890327
 10
-31.272024502113943
 20
-13.789736614210279
 10
-31.43336908560402
 20
-14.022655330094334
 10
-31.590887390775812
 20
-14.253596144645195
 10
-31.74479073271106
 20
-14.482246305667923
 10
-31.894901608699087
 20
-14.709093254449684
 10
-32.04139752145057
 20
-14.933649549703311
 10
-32.18420803260493
 20
-15.156019442160455
 10
-32.32326270380158
 20
-15.376307182552758
 10
-32.45845728430889
 20
-15.594442332519641
 10
-32.58996646321906
 20
-15.810391079690032
 10
-32.71789730488222
 20
-16.023770233508422
 10
-32.84210893257718
 20
-16.234788295438094
 10
-32.962601346303956
 20
-16.443445265479056
 10
-33.07954923515478
 20
-16.64970733126024
 10
-33.192673659305754
 20
-16.85353786679213
 10
-33.302219746209715
 20
-17.054798808972013
 10
-33.408224121856165
 20
-17.253211217976013
 10
-33.510791036976755
 20
-17.448845532164718
 10
-33.609675364118665
 20
-17.641839814640836
 10
-33.705051792374135
 20
-17.8321602530333
 10
-33.79671182027988
 20
-18.019665970620956
 10
-33.88500482602034
 20
-18.20428934266166
 10
-33.96979274649281
 20
-18.385785241702624
 10
-34.05103895570777
 20
-18.564432607567696
 10
-34.12874345366523
 20
-18.7402314402569
 10
-34.20290624036517
 20
-18.913181739770216
 10
-34.27356394179713
 20
-19.083004566283783
 10
-34.340716557961095
 20
-19.249699919797596
 10
-34.40425702450697
 20
-19.413650990867175
 10
-34.46429240578486
 20
-19.574474588937004
 10
-34.520540948352426
 20
-19.732587716933665
 10
-34.57328440565202
 20
-19.887573371930575
 10
-34.62224102424128
 20
-20.039848556854317
 10
-34.667551680841385
 20
-20.189204770241584
 10
-34.70921637545234
 20
-20.335642012092404
 10
-34.747060418981924
 20
-20.479194094777824
 10
-34.781433189614575
 20
-20.619793393555717
 10
-34.811810620073615
 20
-20.75754134553928
 10
-34.83864633927515
 20
-20.89244076434696
 10
-34.86166140739531
 20
-21.024455023989248
 10
-34.88106713951583
 20
-21.153271372271206
 10
-34.89682690964719
 20
-21.279168749016694
 10
-34.90890690541835
 20
-21.4019724651335
 10
-34.9175888802716
 20
-21.52126551769503
 10
-34.922765769856866
 20
-21.637431097256805
 10
-34.92447420016366
 20
-21.750190263994963
 10
-34.92285504791315
 20
-21.8593345164462
 10
-34.91819006654766
 20
-21.964446851683935
 10
-34.91047925606718
 20
-22.06552726970816
 10
-34.89996774392452
 20
-22.16243770741618
 10
-34.886799220459324
 20
-22.2545160344286
 10
-34.871359689845534
 20
-22.34141568617941
 10
-34.854457786420625
 20
-22.422164593712736
 10
-34.836378077245364
 20
-22.49589212518589
 10
-34.81835182682073
 20
-22.56100070725313
 10
-34.801610299647656
 20
-22.61589276656869
 10
-34.78763551491682
 20
-22.657925408851913
 10
-34.7782926823744
 20
-22.684562804172227
 10
-34.330101883798
 20
-23.352167558972248
 10
-34.32452876350706
 20
-23.356146017435133
 10
-34.307879840994836
 20
-23.367977142092155
 10
-34.28043686970363
 20
-23.387243930016727
 10
-34.24089814677192
 20
-23.415648205286235
 10
-34.187992968090775
 20
-23.455520109986427
 10
-34.12527987767882
 20
-23.50136816771112
 10
-34.05483821398242
 20
-23.549890167418713
 10
-33.97779217715242
 20
-23.599871726318977
 10
-33.89551672202942
 20
-23.649053140686753
 10
-33.80854154312699
 20
-23.696425715576662
 10
-33.71742733371134
 20
-23.741609074051638
 10
-33.62235159649315
 20
-23.7841157748245
 10
-33.52359608491473
 20
-23.823528814968675
 10
-33.42130167569726
 20
-23.859639693020867
 10
-33.31546836884073
 20
-23.89244840898109
 10
-33.206270853437395
 20
-23.921921150478262
 10
-33.093745755476725
 20
-23.94777897768851
 10
-32.977822636598184
 20
-23.970126141343496
 10
-32.85867618589396
 20
-23.98892882907214
 10
-32.736061275911275
 20
-24.00432510397716
 10
-32.61004834501071
 20
-24.01621071532691
 10
-32.48098677137669
 20
-24.024518038379252
 10
-32.34835248773257
 20
-24.02934851024739
 10
-32.21252868463383
 20
-24.030809195281424
 10
-32.073236422256635
 20
-24.028863467491828
 10
-31.9306503896932
 20
-24.023477514507544
 10
-31.784841025304086
 20
-24.014547085596924
 10
-31.63559701400757
 20
-24.002384932954904
 10
-31.483059232524806
 20
-23.98678255511819
 10
-31.32694592741347
 20
-23.96815695501337
 10
-31.167468413755316
 20
-23.946195380445513
 10
-31.004590065560816
 20
-23.921176771238486
 10
-30.838206632098316
 20
-23.893030689031697
 10
-30.668177236646677
 20
-23.861965635288453
 10
-30.494676568298097
 20
-23.82794779763768
 10
-30.31763418869202
 20
-23.791081426811033
 10
-30.137050097828435
 20
-23.751366522808496
 10
-29.952608729893953
 20
-23.70904539946445
 10
-29.76458902471244
 20
-23.66415468276839
 10
-29.572852919181194
 20
-23.616449245267518
 10
-29.377608914763506
 20
-23.566069963683
 10
-29.17861188400657
 20
-23.51315490111753
 10
-28.97596607764202
 20
-23.45777449593171
 10
-28.7696376832988
 20
-23.3997540590333
 10
-28.55987182842972
 20
-23.338955527319587
 10
-28.34649382394255
 20
-23.275412713161643
 10
-28.129641732940005
 20
-23.209370744012276
 10
-27.909211304690434
 20
-23.140759181510905
 10
-27.68520253919384
 20
-23.069578025657528
 10
-27.45782675153196
 20
-22.99551452425721
 10
-27.227188192436444
 20
-22.918639115670526
 10
-26.99318261117565
 20
-22.8388813615369
 10
-26.755773381760065
 20
-22.756520201680203
 10
-26.514960504189684
 20
-22.67155563610044
 10
-26.271025731906825
 20
-22.583570661871022
 10
-26.02393243892198
 20
-22.492844218815826
 10
-25.773646812864087
 20
-22.399201617842614
 10
-25.520098415372555
 20
-22.302747109683047
 10
-25.26339149717904
 20
-22.203551132697704
 10
-25.00359649664411
 20
-22.10150943615493
 10
-24.7406429754072
 20
-21.99672627078638
 10
-24.474530933468305
 20
-21.889201636592045
 10
-24.205330809188
 20
-21.778831282840287
 10
-23.93307641493734
 20
-21.665789898623327
 10
-23.657767750716356
 20
-21.550077483941177
 10
-23.379371004153956
 20
-21.431519349701595
 10
-23.097953799992283
 20
-21.310464874089043
 10
-22.813482325860264
 20
-21.186739368011292
 10
-22.525886143397326
 20
-21.060447082199993
 10
-22.23533994169569
 20
-20.931554204284073
 10
-21.942055035837104
 20
-20.7997479820686
 10
-21.645820110739816
 20
-20.66534116774851
 10
-21.34639003895103
 20
-20.528471824426518
 10
-21.044148011026255
 20
-20.38924701645272
 10
-20.73902640222336
 20
-20.247317365642655
 10
-20.43109565090294
 20
-20.10257862126468
 10
-20.12042338180711
 20
-19.955380161503257
 10
-19.80683490584365
 20
-19.805755798729443
 10
-19.490471099733725
 20
-19.653497031479947
 10
-19.17143621420898
 20
-19.498674298115358
 10
-18.849800687629983
 20
-19.341183347904018
 10
-18.52535320491501
 20
-19.18133693304087
 10
-18.19823464278521
 20
-19.018926552062627
 10
-17.868304124519423
 20
-18.854160706432573
 10
-17.535981466662687
 20
-18.686867520676937
 10
-17.200987729391127
 20
-18.517010368806208
 10
-16.8634271634364
 20
-18.344659689180958
 10
-16.52333358116955
 20
-18.169990170893417
 10
-16.18074360858011
 20
-17.992722874119718
 10
-15.835620619678553
 20
-17.813136738683724
 10
-15.488139303557112
 20
-17.63119795221438
 10
-15.138232035473658
 20
-17.446557136527225
 10
-14.786107316891485
 20
-17.259355168343426
 10
-14.431553832728842
 20
-17.069904799857916
 10
-14.074571582985737
 20
-16.878206031070697
 10
-13.715160567662162
 20
-16.684258861981775
 10
-13.35363635257151
 20
-16.487820978756783
 10
-12.990139814434945
 20
-16.288683879932446
 10
-12.6242849490785
 20
-16.08719413007475
 10
-12.256280257965463
 20
-15.883492605904857
 10
-11.886162367085346
 20
-15.677300367598905
 10
-11.514176403890962
 20
-15.468479352054182
 10
-11.14011105330057
 20
-15.257342311465617
 10
-10.763929689324646
 20
-15.044168185657092
 10
-10.385668937952714
 20
-14.828678034804733
 10
-10.00554011426651
 20
-14.610559106713596
 10
-9.623610843008173
 20
-14.390160779568143
 10
-9.239810685817114
 20
-14.167587304100016
 10
-8.853931141230044
 20
-13.94269780358805
 10
-8.46635539980248
 20
-13.71559934238235
 10
-8.077120087523948
 20
-13.48601298065904
 10
-7.686225204394436
 20
-13.253938718418116
 10
-7.293704562785015
 20
-13.019551244751812
 10
-6.899205970892776
 20
-12.783371813318356
 10
-6.503044994531108
 20
-12.545158110283387
 10
-6.105399136410695
 20
-12.304422694359745
 10
-5.706197958170951
 20
-12.061269816279072
 10
-5.305649961275169
 20
-11.815840352762535
 10
-4.903369141549379
 20
-11.568480868376135
 10
-4.49960062644639
 20
-11.31905330001716
 10
-4.094344415966197
 20
-11.06755764768561
 10
-3.687741386829971
 20
-10.813785409918196
 10
-3.2797211006771296
 20
-10.557840837446566
 10
-2.8703511822497925
 20
-10.300073308455168
 10
-2.459564006805842
 20
-10.040133444759551
 10
-2.047708952529722
 20
-9.777953621617586
 10
-1.6347155810608598
 20
-9.513638089760917
 10
-1.2205134540386702
 20
-9.247291099921192
 10
-0.8050687590920892
 20
-8.978737963006186
 10
-0.3888351251372226
 20
-8.70798149263435
 10
0.02822126019700043
 20
-8.434846999713454
 10
0.4466272778057129
 20
-8.159889550272794
 10
0.8661039878650444
 20
-7.883145770301888
 10
1.2861245094798606
 20
-7.604060593771436
 10
1.7071086591951803
 20
-7.322805896155226
 10
2.1290226246399673
 20
-7.0395563665454715
 10
2.5515170276297434
 20
-6.754244380200053
 10
2.97472993126723
 20
-6.466624809666158
 10
3.3984528340891367
 20
-6.176838531664947
 10
3.8230717402694325
 20
-5.885232110762426
 10
4.248341522355299
 20
-5.591667483855887
 10
4.6738057378122
 20
-5.295693835647675
 10
5.09977995245351
 20
-4.997553479972154
 10
5.526441668989925
 20
-4.6977338581164805
 10
5.9534755329231235
 20
-4.3959929689985024
 10
6.38092676763859
 20
-4.09217301214451
 10
6.808838479455008
 20
-3.7865625184456997
 10
7.236929126245146
 20
-3.47874479772767
 10
7.6651988488857175
 20
-3.1687200584918895
 10
8.093825150087396
 20
-2.8569757420255293
 10
8.522774499232572
 20
-2.5436869544237375
 10
8.95208077913067
 20
-2.2286791108450132
 10
9.381428494406645
 20
-1.9117100017057445
 10
9.810958592220036
 20
-1.5929882327199472
 10
10.24067135432428
 20
-1.2725142208905456
 10
10.670462459549372
 20
-0.9503583003273962
 10
11.100120804128643
 20
-0.6262080315877517
 10
11.529787264783266
 20
-0.30027191613490534
 10
11.95953509349227
 20
0.02689216638339488
 10
12.389502635111807
 20
0.35552892641703426
 10
12.81927000265848
 20
0.6858103436905154
 10
13.249012026101239
 20
1.0177023973313124
 10
13.678520203976793
 20
1.3510642106182642
 10
14.107969295815723
 20
1.6858618669295677
 10
14.537288933695814
 20
2.0221995127461443
 10
14.966341054514364
 20
2.3598320206151886
 10
15.395370785724172
 20
2.6986213274339814
 10
15.824307900279736
 20
3.0386713711819726
 10
16.252873247042103
 20
3.3799458386218455
 10
16.681241655980223
 20
3.7224107088810716
 10
17.109449753083627
 20
4.065787042135779
 10
17.537320106079967
 20
4.410562175422396
 10
17.964784949350417
 20
4.756386939057937
 10
18.391985159616127
 20
5.1030528315791015
 10
18.818850368954884
 20
5.450663999466816
 10
19.245239700645513
 20
5.799428944184357
 10
19.67129410184755
 20
6.149139060017718
 10
20.09694559562706
 20
6.499445490036087
 10
20.522157696871247
 20
6.850626965561887
 10
20.947037469930212
 20
7.2023002960395885
 10
21.371373458845483
 20
7.554778442165597
 10
21.79509529569484
 20
7.908165550420825
 10
22.21834385719945
 20
8.262253119341981
 10
22.641121534347597
 20
8.616588145517353
 10
23.063532789186034
 20
8.971240754555344
 10
23.48526191502461
 20
9.326453468791744
 10
23.906379209347197
 20
9.682122245996384
 10
24.326884742592174
 20
10.03824698191854
 10
24.746848812243382
 20
10.394723634328018
 10
25.16599212628516
 20
10.751516098488972
 10
25.58448958512481
 20
11.108590249278128
 10
26.002306953761096
 20
11.465772023107657
 10
26.419689711838654
 20
11.822922835621192
 10
26.836146970506576
 20
12.180319751280718
 10
27.25174923856385
 20
12.537858415103885
 10
27.66695295854501
 20
12.895088011793035
 10
28.08112664663148
 20
13.252493690270535
 10
28.494199653147586
 20
13.610180014020232
 10
28.906699070303546
 20
13.967591604260631
 10
29.318556709850363
 20
14.324379916813132
 10
29.729454333232884
 20
14.681240685926726
 10
30.139357846326632
 20
15.03799963951212
 10
30.548162575769787
 20
15.394586964713115
 10
30.95611386033024
 20
15.75086428567481
 10
31.363177535445118
 20
16.106657434558628
 10
31.769423828159926
 20
16.461862473385132
 10
32.17460739970678
 20
16.816617778009217
 10
32.578587091611055
 20
17.171132266897104
 10
32.98157414851616
 20
17.525093292104582
 10
33.38356849998371
 20
17.878500957882387
 10
33.784431308089054
 20
18.23111128353576
 10
34.18437156736399
 20
18.583064416030744
 10
34.58296875687987
 20
18.934533273348414
 10
34.98029317412057
 20
19.28541381325861
 10
35.37669672913557
 20
19.63518519910602
 10
35.7721090540026
 20
19.983951577371553
 10
36.16617985483855
 20
20.33178192805685
 10
36.55918856453584
 20
20.67871214739632
 10
36.95085546844857
 20
21.024706756158473
 10
37.34128495818517
 20
21.369835984202446
 10
37.7305131666666
 20
21.71382162145948
 10
38.11843535009268
 20
22.0565939593241
 10
38.50529684723133
 20
22.398014621941428
 10
38.890676925838804
 20
22.738256840044734
 10
39.274784580446926
 20
23.077460760600058
 10
39.65734009640986
 20
23.41559090437594
 10
40.03876575169928
 20
23.75202228823615
 10
40.418956872953395
 20
24.086685099324512
 10
40.797699824540516
 20
24.420344988996927
 10
41.174610148014644
 20
24.75289676941648
 10
41.550460344792235
 20
25.083646581696037
 10
41.9249706297891
 20
25.412559050854863
 10
42.297858897371114
 20
25.74005170107321
 10
42.66912500666153
 20
26.066124740852516
 10
43.03883918470588
 20
26.390674232213346
 10
43.40735348243032
 20
26.713179129998927
 10
43.77431739463665
 20
27.033708726963116
 10
44.13972881209001
 20
27.35271560951467
 10
44.50337810631336
 20
27.67006056894414
 10
44.86540594271275
 20
27.985535416540436
 10
45.22595305713265
 20
28.298931859341735
 10
45.58487829109844
 20
28.610458815814237
 10
45.942076689494854
 20
28.920046890104683
 10
46.29779366152816
 20
29.22755760210744
 10
46.651819578721316
 20
29.532851743113053
 10
47.004047658477646
 20
29.836312086674113
 10
47.35426813144335
 20
30.13779963258262
 10
47.70293582398668
 20
30.43731542219459
 10
48.049772496751395
 20
30.734372328126362
 10
48.394987426022766
 20
31.029110080341056
 10
48.738509891686746
 20
31.32163334657323
 10
49.07998938854511
 20
31.612011419576717
 10
49.419496002766664
 20
31.90014056987354
 10
49.75730937855886
 20
32.18605638094591
 10
50.09318565244343
 20
32.469445580496505
 10
50.42737009274987
 20
32.75016989692116
 10
50.75954642928122
 20
33.028472686561564
 10
51.08974868572363
 20
33.30452832575774
 10
51.41794234532239
 20
33.578163167924764
 10
51.744127126324095
 20
33.849377630065575
 10
52.06840931825687
 20
34.11778966838272
 10
52.3906822089624
 20
34.38378195217803
 10
52.71080639700914
 20
34.647111334762606
 10
53.02874546772265
 20
34.908056443208125
 10
53.34471059530794
 20
35.166304733821114
 10
53.65866712213366
 20
35.42168276851814
 10
53.97040345136457
 20
35.67450371649704
 10
54.27991937168564
 20
35.92476789051004
 10
54.587214601343376
 20
36.17247570756004
 10
54.89222024770521
 20
36.41727966597578
 10
55.195286463777514
 20
36.65911099425705
 10
55.495956032203814
 20
36.89842165445956
 10
55.79419436579104
 20
37.13503810424915
 10
56.09010592658595
 20
37.36903046923418
 10
56.38372656575607
 20
37.60012095634883
 10
56.67488081938722
 20
37.82834452472224
 10
56.963707595842436
 20
38.0539450507984
 10
57.250208299972954
 20
38.27647099067587
 10
57.53424184374255
 20
38.496131158570115
 10
57.815878454196685
 20
38.71282161650171
 10
58.09490646406186
 20
38.92685563791922
 10
58.371466538744095
 20
39.138025034111564
 10
58.64545358225148
 20
39.346260617726955
 10
58.91693782162949
 20
39.55145845078593
 10
59.18595342144096
 20
39.75379270112703
 10
59.452220033094854
 20
39.95322882777542
 10
59.71573730439935
 20
40.14976735198472
 10
59.97668034707684
 20
40.3433738358795
 10
60.235119669926256
 20
40.53394392447737
 10
60.49063552684095
 20
40.72164938900138
 10
60.743326110853516
 20
40.906569633375014
 10
60.9934095695667
 20
41.0883817930824
 10
61.240707832846965
 20
41.26712468452968
 10
61.48507988309643
 20
41.443007017681644
 10
61.726771199959686
 20
41.61589020818189
 10
61.96564224112849
 20
41.78553131784302
 10
62.201656732805105
 20
41.95220876523521
 10
62.434744025313854
 20
42.116027113842314
 10
62.664799093101145
 20
42.276917072061785
 10
62.89196260157305
 20
42.43467045118255
 10
63.11616376017719
 20
42.5893920231899
 10
63.33726155131568
 20
42.74129049804859
 10
63.55532613159566
 20
42.8902620420299
 10
63.77039342262303
 20
43.036028757817284
 10
63.98246307220598
 20
43.17859116666438
 10
64.19135807070239
 20
43.31843598010325
 10
64.39704369004248
 20
43.45538986430116
 10
64.59951985978792
 20
43.58945292350887
 10
64.79885666610744
 20
43.72052142824837
 10
64.9949491538858
 20
43.84852598266639
 10
65.18790185560813
 20
43.973536608120604
 10
65.37746900987634
 20
44.09569230597028
 10
65.56379114121978
 20
44.21478509600582
 10
65.7467272320406
 20
44.33102368819196
 10
65.92652283242175
 20
44.44426939392161
 10
66.10282715541157
 20
44.5545919229515
 10
66.2756744360113
 20
44.6621653388695
 10
66.44503008702789
 20
44.766816099341426
 10
66.61106922018371
 20
44.86850976649181
 10
66.77354536969716
 20
44.96738638418728
 10
66.93270373345938
 20
45.06330778507438
 10
67.08812752377483
 20
45.156441361845424
 10
67.24009117241228
 20
45.246830412536774
 10
67.38838688229211
 20
45.334333017919924
 10
67.53311932677607
 20
45.41901899085109
 10
67.67428836498749
 20
45.500888539831735
 10
67.81182334725065
 20
45.58004622834566
 10
67.94568982724931
 20
45.65631830555728
 10
68.0757466465088
 20
45.72991368993275
 10
68.20216912806661
 20
45.800797630844485
 10
68.32478166713184
 20
45.86900529592301
 10
68.44365463162671
 20
45.93443253868745
 10
68.55871751275228
 20
45.99718371412015
 10
68.67004053755402
 20
46.05715488424168
 10
68.77755319723302
 20
46.114450404034415
 10
68.88111454462974
 20
46.169278879212364
 10
68.98076036047337
 20
46.22136262096045
 10
69.07662997575711
 20
46.2709448802183
 10
69.16833808677467
 20
46.317921720157784
 10
69.25626978591721
 20
46.36239739035922
 10
69.34021516295431
 20
46.40423309911609
 10
69.42003327072644
 20
46.443637452142426
 10
69.49589936183266
 20
46.4805758030613
 10
69.56770841071938
 20
46.51497886027018
 10
69.63531954066545
 20
46.547055125232355
 10
69.69897837219222
 20
46.57666580509001
 10
69.75843914390157
 20
46.60394990120241
 10
69.81377215327741
 20
46.628803371339394
 10
69.86483652359863
 20
46.651434716964275
 10
69.91170269322568
 20
46.671739687345344
 10
69.95440496759826
 20
46.68989224181976
 10
69.99273350692418
 20
46.705753484430254
 10
70.02672282795811
 20
46.71949706176172
 10
70.05647774493858
 20
46.731192578168894
 10
70.08178841807347
 20
46.74070113769452
 10
70.10261878488011
 20
46.7483008461566
 10
70.11914437971109
 20
46.75395664017532
 10
70.13101420429966
 20
46.75773854225962
 10
70.13826298671555
 20
46.759819886242205
 10
70.1407496389225
 20
46.760409486338574
  0
ENDSEC
  0
SECTION
  2
OBJECTS
  0
DICTIONARY
  5
A
330
0
100
AcDbDictionary
280
0
281
1
  3
ACAD_COLOR
350
B
  3
ACAD_GROUP
350
C
  3
ACAD_LAYOUT
350
D
  3
ACAD_MATERIAL
350
E
  3
ACAD_MLEADERSTYLE
350
F
  3
ACAD_MLINESTYLE
350
10
  3
ACAD_PLOTSETTINGS
350
11
  3
ACAD_PLOTSTYLENAME
350
12
  3
ACAD_SCALELIST
350
14
  3
ACAD_TABLESTYLE
350
15
  3
ACAD_VISUALSTYLE
350
16
  3
EZDXF_META
350
2D
  0
DICTIONARY
  5
B
330
A
100
AcDbDictionary
280
0
281
1
  0
DICTIONARY
  5
C
330
A
100
AcDbDictionary
280
0
281
1
  0
DICTIONARY
  5
D
330
A
100
AcDbDictionary
280
0
281
1
  3
Model
350
1A
  3
Layout1
350
1E
  0
DICTIONARY
  5
E
330
A
100
AcDbDictionary
280
0
281
1
  3
ByBlock
350
1F
  3
ByLayer
350
20
  3
Global
350
21
  0
DICTIONARY
  5
F
330
A
100
AcDbDictionary
280
0
281
1
  3
Standard
350
2C
  0
DICTIONARY
  5
10
330
A
100
AcDbDictionary
280
0
281
1
  3
Standard
350
22
  0
DICTIONARY
  5
11
330
A
100
AcDbDictionary
280
0
281
1
  0
ACDBDICTIONARYWDFLT
  5
12
330
A
100
AcDbDictionary
280
0
281
1
  3
Normal
350
13
100
AcDbDictionaryWithDefault
340
13
  0
ACDBPLACEHOLDER
  5
13
330
12
  0
DICTIONARY
  5
14
330
A
100
AcDbDictionary
280
0
281
1
  0
DICTIONARY
  5
15
330
A
100
AcDbDictionary
280
0
281
1
  0
DICTIONARY
  5
16
330
A
100
AcDbDictionary
280
0
281
1
  0
LAYOUT
  5
1A
330
D
100
AcDbPlotSettings
  1

  4
A3
  6

 40
7.5
 41
20.0
 42
7.5
 43
20.0
 44
420.0
 45
297.0
 46
0.0
 47
0.0
 48
0.0
 49
0.0
140
0.0
141
0.0
142
1.0
143
1.0
 70
1024
 72
1
 73
0
 74
5
  7

 75
16
 76
0
 77
2
 78
300
147
1.0
148
0.0
149
0.0
100
AcDbLayout
  1
Model
 70
1
 71
0
 10
0.0
 20
0.0
 11
420.0
 21
297.0
 12
0.0
 22
0.0
 32
0.0
 14
1e+20
 24
1e+20
 34
1e+20
 15
-1e+20
 25
-1e+20
 35
-1e+20
146
0.0
 13
0.0
 23
0.0
 33
0.0
 16
1.0
 26
0.0
 36
0.0
 17
0.0
 27
1.0
 37
0.0
 76
1
330
17
  0
LAYOUT
  5
1E
330
D
100
AcDbPlotSettings
  1

  4
A3
  6

 40
7.5
 41
20.0
 42
7.5
 43
20.0
 44
420.0
 45
297.0
 46
0.0
 47
0.0
 48
0.0
 49
0.0
140
0.0
141
0.0
142
1.0
143
1.0
 70
0
 72
1
 73
0
 74
5
  7

 75
16
 76
0
 77
2
 78
300
147
1.0
148
0.0
149
0.0
100
AcDbLayout
  1
Layout1
 70
1
 71
1
 10
0.0
 20
0.0
 11
420.0
 21
297.0
 12
0.0
 22
0.0
 32
0.0
 14
1e+20
 24
1e+20
 34
1e+20
 15
-1e+20
 25
-1e+20
 35
-1e+20
146
0.0
 13
0.0
 23
0.0
 33
0.0
 16
1.0
 26
0.0
 36
0.0
 17
0.0
 27
1.0
 37
0.0
 76
1
330
1B
  0
MATERIAL
  5
1F
102
{ACAD_REACTORS
330
E
102
}
330
E
100
AcDbMaterial
  1
ByBlock
  2

 70
0
 40
1.0
 71
1
 41
1.0
 91
-1023410177
 42
1.0
 72
1
  3

 73
1
 74
1
 75
1
 44
0.5
 73
0
 45
1.0
 46
1.0
 77
1
  4

 78
1
 79
1
170
1
 48
1.0
171
1
  6

172
1
173
1
174
1
140
1.0
141
1.0
175
1
  7

176
1
177
1
178
1
143
1.0
179
1
  8

270
1
271
1
272
1
145
1.0
146
1.0
273
1
  9

274
1
275
1
276
1
 42
1.0
 72
1
  3

 73
1
 74
1
 75
1
 94
63
  0
MATERIAL
  5
20
102
{ACAD_REACTORS
330
E
102
}
330
E
100
AcDbMaterial
  1
ByLayer
  2

 70
0
 40
1.0
 71
1
 41
1.0
 91
-1023410177
 42
1.0
 72
1
  3

 73
1
 74
1
 75
1
 44
0.5
 73
0
 45
1.0
 46
1.0
 77
1
  4

 78
1
 79
1
170
1
 48
1.0
171
1
  6

172
1
173
1
174
1
140
1.0
141
1.0
175
1
  7

176
1
177
1
178
1
143
1.0
179
1
  8

270
1
271
1
272
1
145
1.0
146
1.0
273
1
  9

274
1
275
1
276
1
 42
1.0
 72
1
  3

 73
1
 74
1
 75
1
 94
63
  0
MATERIAL
  5
21
102
{ACAD_REACTORS
330
E
102
}
330
E
100
AcDbMaterial
  1
Global
  2

 70
0
 40
1.0
 71
1
 41
1.0
 91
-1023410177
 42
1.0
 72
1
  3

 73
1
 74
1
 75
1
 44
0.5
 73
0
 45
1.0
 46
1.0
 77
1
  4

 78
1
 79
1
170
1
 48
1.0
171
1
  6

172
1
173
1
174
1
140
1.0
141
1.0
175
1
  7

176
1
177
1
178
1
143
1.0
179
1
  8

270
1
271
1
272
1
145
1.0
146
1.0
273
1
  9

274
1
275
1
276
1
 42
1.0
 72
1
  3

 73
1
 74
1
 75
1
 94
63
  0
MLINESTYLE
  5
22
102
{ACAD_REACTORS
330
10
102
}
330
10
100
AcDbMlineStyle
  2
Standard
 70
0
  3

 62
256
 51
90.0
 52
90.0
 71
2
 49
0.5
 62
256
  6
BYLAYER
 49
-0.5
 62
256
  6
BYLAYER
  0
MLEADERSTYLE
  5
2C
102
{ACAD_REACTORS
330
F
102
}
330
F
100
AcDbMLeaderStyle
179
2
170
2
171
1
172
0
 90
2
 40
0.0
 41
0.0
173
1
 91
-1056964608
 92
-2
290
1
 42
2.0
291
1
 43
8.0
  3
Standard
 44
4.0
300

342
29
174
1
175
1
176
0
178
1
 93
-1056964608
 45
4.0
292
0
297
0
 46
4.0
 94
-1056964608
 47
1.0
 49
1.0
140
1.0
294
1
141
0.0
177
0
142
1.0
295
0
296
0
143
3.75
271
0
272
9
273
9
  0
DICTIONARY
  5
2D
330
A
100
AcDbDictionary
280
1
281
1
  3
CREATED_BY_EZDXF
350
2E
  3
WRITTEN_BY_EZDXF
350
32
  0
DICTIONARYVAR
  5
2E
330
2D
100
DictionaryVariables
280
0
  1
1.3.5 @ 2025-08-20T01:58:16.979748+00:00
  0
DICTIONARYVAR
  5
32
330
2D
100
DictionaryVariables
280
0
  1
1.3.5 @ 2025-08-20T01:58:16.979748+00:00
  0
ENDSEC
  0
EOF
