  0
SECTION
  2
HEADER
  9
$ACADVER
  1
AC1032
  9
$ACADMAINTVER
 90
4
  9
$DWGCODEPAGE
  3
ANSI_1252
  9
$LASTSAVEDBY
  1
ezdxf
  9
$REQUIREDVERSIONS
160
0
  9
$INSBASE
 10
0.0
 20
0.0
 30
0.0
  9
$EXTMIN
 10
1e+20
 20
1e+20
 30
1e+20
  9
$EXTMAX
 10
-1e+20
 20
-1e+20
 30
-1e+20
  9
$LIMMIN
 10
0.0
 20
0.0
  9
$LIMMAX
 10
420.0
 20
297.0
  9
$ORTHOMODE
 70
0
  9
$REGENMODE
 70
1
  9
$FILLMODE
 70
1
  9
$QTEXTMODE
 70
0
  9
$MIRRTEXT
 70
1
  9
$LTSCALE
 40
1.0
  9
$ATTMODE
 70
1
  9
$TEXTSIZE
 40
2.5
  9
$TRACEWID
 40
1.0
  9
$TEXTSTYLE
  7
Standard
  9
$CLAYER
  8
0
  9
$CELTYPE
  6
ByLayer
  9
$CECOLOR
 62
256
  9
$CELTSCALE
 40
1.0
  9
$DISPSILH
 70
0
  9
$DIMSCALE
 40
1.0
  9
$DIMASZ
 40
2.5
  9
$DIMEXO
 40
0.625
  9
$DIMDLI
 40
3.75
  9
$DIMRND
 40
0.0
  9
$DIMDLE
 40
0.0
  9
$DIMEXE
 40
1.25
  9
$DIMTP
 40
0.0
  9
$DIMTM
 40
0.0
  9
$DIMTXT
 40
2.5
  9
$DIMCEN
 40
2.5
  9
$DIMTSZ
 40
0.0
  9
$DIMTOL
 70
0
  9
$DIMLIM
 70
0
  9
$DIMTIH
 70
0
  9
$DIMTOH
 70
0
  9
$DIMSE1
 70
0
  9
$DIMSE2
 70
0
  9
$DIMTAD
 70
1
  9
$DIMZIN
 70
8
  9
$DIMBLK
  1

  9
$DIMASO
 70
1
  9
$DIMSHO
 70
1
  9
$DIMPOST
  1

  9
$DIMAPOST
  1

  9
$DIMALT
 70
0
  9
$DIMALTD
 70
3
  9
$DIMALTF
 40
0.03937007874
  9
$DIMLFAC
 40
1.0
  9
$DIMTOFL
 70
1
  9
$DIMTVP
 40
0.0
  9
$DIMTIX
 70
0
  9
$DIMSOXD
 70
0
  9
$DIMSAH
 70
0
  9
$DIMBLK1
  1

  9
$DIMBLK2
  1

  9
$DIMSTYLE
  2
ISO-25
  9
$DIMCLRD
 70
0
  9
$DIMCLRE
 70
0
  9
$DIMCLRT
 70
0
  9
$DIMTFAC
 40
1.0
  9
$DIMGAP
 40
0.625
  9
$DIMJUST
 70
0
  9
$DIMSD1
 70
0
  9
$DIMSD2
 70
0
  9
$DIMTOLJ
 70
0
  9
$DIMTZIN
 70
8
  9
$DIMALTZ
 70
0
  9
$DIMALTTZ
 70
0
  9
$DIMUPT
 70
0
  9
$DIMDEC
 70
2
  9
$DIMTDEC
 70
2
  9
$DIMALTU
 70
2
  9
$DIMALTTD
 70
3
  9
$DIMTXSTY
  7
Standard
  9
$DIMAUNIT
 70
0
  9
$DIMADEC
 70
0
  9
$DIMALTRND
 40
0.0
  9
$DIMAZIN
 70
0
  9
$DIMDSEP
 70
44
  9
$DIMATFIT
 70
3
  9
$DIMFRAC
 70
0
  9
$DIMLDRBLK
  1

  9
$DIMLUNIT
 70
2
  9
$DIMLWD
 70
-2
  9
$DIMLWE
 70
-2
  9
$DIMTMOVE
 70
0
  9
$DIMFXL
 40
1.0
  9
$DIMFXLON
 70
0
  9
$DIMJOGANG
 40
0.785398163397
  9
$DIMTFILL
 70
0
  9
$DIMTFILLCLR
 70
0
  9
$DIMARCSYM
 70
0
  9
$DIMLTYPE
  6

  9
$DIMLTEX1
  6

  9
$DIMLTEX2
  6

  9
$DIMTXTDIRECTION
 70
0
  9
$LUNITS
 70
2
  9
$LUPREC
 70
4
  9
$SKETCHINC
 40
1.0
  9
$FILLETRAD
 40
10.0
  9
$AUNITS
 70
0
  9
$AUPREC
 70
2
  9
$MENU
  1
.
  9
$ELEVATION
 40
0.0
  9
$PELEVATION
 40
0.0
  9
$THICKNESS
 40
0.0
  9
$LIMCHECK
 70
0
  9
$CHAMFERA
 40
0.0
  9
$CHAMFERB
 40
0.0
  9
$CHAMFERC
 40
0.0
  9
$CHAMFERD
 40
0.0
  9
$SKPOLY
 70
0
  9
$TDCREATE
 40
2460908.1238078703
  9
$TDUCREATE
 40
2458532.153996898
  9
$TDUPDATE
 40
2460908.1238078703
  9
$TDUUPDATE
 40
2458532.1544311
  9
$TDINDWG
 40
0.0
  9
$TDUSRTIMER
 40
0.0
  9
$USRTIMER
 70
1
  9
$ANGBASE
 50
0.0
  9
$ANGDIR
 70
0
  9
$PDMODE
 70
0
  9
$PDSIZE
 40
0.0
  9
$PLINEWID
 40
0.0
  9
$SPLFRAME
 70
0
  9
$SPLINETYPE
 70
6
  9
$SPLINESEGS
 70
8
  9
$HANDSEED
  5
33
  9
$SURFTAB1
 70
6
  9
$SURFTAB2
 70
6
  9
$SURFTYPE
 70
6
  9
$SURFU
 70
6
  9
$SURFV
 70
6
  9
$UCSBASE
  2

  9
$UCSNAME
  2

  9
$UCSORG
 10
0.0
 20
0.0
 30
0.0
  9
$UCSXDIR
 10
1.0
 20
0.0
 30
0.0
  9
$UCSYDIR
 10
0.0
 20
1.0
 30
0.0
  9
$UCSORTHOREF
  2

  9
$UCSORTHOVIEW
 70
0
  9
$UCSORGTOP
 10
0.0
 20
0.0
 30
0.0
  9
$UCSORGBOTTOM
 10
0.0
 20
0.0
 30
0.0
  9
$UCSORGLEFT
 10
0.0
 20
0.0
 30
0.0
  9
$UCSORGRIGHT
 10
0.0
 20
0.0
 30
0.0
  9
$UCSORGFRONT
 10
0.0
 20
0.0
 30
0.0
  9
$UCSORGBACK
 10
0.0
 20
0.0
 30
0.0
  9
$PUCSBASE
  2

  9
$PUCSNAME
  2

  9
$PUCSORG
 10
0.0
 20
0.0
 30
0.0
  9
$PUCSXDIR
 10
1.0
 20
0.0
 30
0.0
  9
$PUCSYDIR
 10
0.0
 20
1.0
 30
0.0
  9
$PUCSORTHOREF
  2

  9
$PUCSORTHOVIEW
 70
0
  9
$PUCSORGTOP
 10
0.0
 20
0.0
 30
0.0
  9
$PUCSORGBOTTOM
 10
0.0
 20
0.0
 30
0.0
  9
$PUCSORGLEFT
 10
0.0
 20
0.0
 30
0.0
  9
$PUCSORGRIGHT
 10
0.0
 20
0.0
 30
0.0
  9
$PUCSORGFRONT
 10
0.0
 20
0.0
 30
0.0
  9
$PUCSORGBACK
 10
0.0
 20
0.0
 30
0.0
  9
$USERI1
 70
0
  9
$USERI2
 70
0
  9
$USERI3
 70
0
  9
$USERI4
 70
0
  9
$USERI5
 70
0
  9
$USERR1
 40
0.0
  9
$USERR2
 40
0.0
  9
$USERR3
 40
0.0
  9
$USERR4
 40
0.0
  9
$USERR5
 40
0.0
  9
$WORLDVIEW
 70
1
  9
$SHADEDGE
 70
3
  9
$SHADEDIF
 70
70
  9
$TILEMODE
 70
1
  9
$MAXACTVP
 70
64
  9
$PINSBASE
 10
0.0
 20
0.0
 30
0.0
  9
$PLIMCHECK
 70
0
  9
$PEXTMIN
 10
1e+20
 20
1e+20
 30
1e+20
  9
$PEXTMAX
 10
-1e+20
 20
-1e+20
 30
-1e+20
  9
$PLIMMIN
 10
0.0
 20
0.0
  9
$PLIMMAX
 10
420.0
 20
297.0
  9
$UNITMODE
 70
0
  9
$VISRETAIN
 70
1
  9
$PLINEGEN
 70
0
  9
$PSLTSCALE
 70
1
  9
$TREEDEPTH
 70
3020
  9
$CMLSTYLE
  2
Standard
  9
$CMLJUST
 70
0
  9
$CMLSCALE
 40
20.0
  9
$PROXYGRAPHICS
 70
1
  9
$MEASUREMENT
 70
1
  9
$CELWEIGHT
370
-1
  9
$ENDCAPS
280
0
  9
$JOINSTYLE
280
0
  9
$LWDISPLAY
290
0
  9
$INSUNITS
 70
6
  9
$HYPERLINKBASE
  1

  9
$STYLESHEET
  1

  9
$XEDIT
290
1
  9
$CEPSNTYPE
380
0
  9
$PSTYLEMODE
290
1
  9
$FINGERPRINTGUID
  2
{765A6EC2-9F30-4598-9EEC-12F8B0A3E738}
  9
$VERSIONGUID
  2
{166CF127-A964-4CAB-9C95-A8804D57EA5E}
  9
$EXTNAMES
290
1
  9
$PSVPSCALE
 40
0.0
  9
$OLESTARTUP
290
0
  9
$SORTENTS
280
127
  9
$INDEXCTL
280
0
  9
$HIDETEXT
280
1
  9
$XCLIPFRAME
280
1
  9
$HALOGAP
280
0
  9
$OBSCOLOR
 70
257
  9
$OBSLTYPE
280
0
  9
$INTERSECTIONDISPLAY
280
0
  9
$INTERSECTIONCOLOR
 70
257
  9
$DIMASSOC
280
2
  9
$PROJECTNAME
  1

  9
$CAMERADISPLAY
290
0
  9
$LENSLENGTH
 40
50.0
  9
$CAMERAHEIGHT
 40
0.0
  9
$STEPSPERSEC
 40
24.0
  9
$STEPSIZE
 40
100.0
  9
$3DDWFPREC
 40
2.0
  9
$PSOLWIDTH
 40
0.005
  9
$PSOLHEIGHT
 40
0.08
  9
$LOFTANG1
 40
1.570796326795
  9
$LOFTANG2
 40
1.570796326795
  9
$LOFTMAG1
 40
0.0
  9
$LOFTMAG2
 40
0.0
  9
$LOFTPARAM
 70
7
  9
$LOFTNORMALS
280
1
  9
$LATITUDE
 40
37.795
  9
$LONGITUDE
 40
-122.394
  9
$NORTHDIRECTION
 40
0.0
  9
$TIMEZONE
 70
-8000
  9
$LIGHTGLYPHDISPLAY
280
1
  9
$TILEMODELIGHTSYNCH
280
1
  9
$CMATERIAL
347
20
  9
$SOLIDHIST
280
0
  9
$SHOWHIST
280
1
  9
$DWFFRAME
280
2
  9
$DGNFRAME
280
2
  9
$REALWORLDSCALE
290
1
  9
$INTERFERECOLOR
 62
256
  9
$CSHADOW
280
0
  9
$SHADOWPLANELOCATION
 40
0.0
  0
ENDSEC
  0
SECTION
  2
CLASSES
  0
CLASS
  1
ACDBDICTIONARYWDFLT
  2
AcDbDictionaryWithDefault
  3
ObjectDBX Classes
 90
0
 91
0
280
0
281
0
  0
CLASS
  1
SUN
  2
AcDbSun
  3
SCENEOE
 90
1153
 91
0
280
0
281
0
  0
CLASS
  1
VISUALSTYLE
  2
AcDbVisualStyle
  3
ObjectDBX Classes
 90
4095
 91
0
280
0
281
0
  0
CLASS
  1
MATERIAL
  2
AcDbMaterial
  3
ObjectDBX Classes
 90
1153
 91
0
280
0
281
0
  0
CLASS
  1
SCALE
  2
AcDbScale
  3
ObjectDBX Classes
 90
1153
 91
0
280
0
281
0
  0
CLASS
  1
TABLESTYLE
  2
AcDbTableStyle
  3
ObjectDBX Classes
 90
4095
 91
0
280
0
281
0
  0
CLASS
  1
MLEADERSTYLE
  2
AcDbMLeaderStyle
  3
ACDB_MLEADERSTYLE_CLASS
 90
4095
 91
0
280
0
281
0
  0
CLASS
  1
DICTIONARYVAR
  2
AcDbDictionaryVar
  3
ObjectDBX Classes
 90
0
 91
0
280
0
281
0
  0
CLASS
  1
CELLSTYLEMAP
  2
AcDbCellStyleMap
  3
ObjectDBX Classes
 90
1152
 91
0
280
0
281
0
  0
CLASS
  1
MENTALRAYRENDERSETTINGS
  2
AcDbMentalRayRenderSettings
  3
SCENEOE
 90
1024
 91
0
280
0
281
0
  0
CLASS
  1
ACDBDETAILVIEWSTYLE
  2
AcDbDetailViewStyle
  3
ObjectDBX Classes
 90
1025
 91
0
280
0
281
0
  0
CLASS
  1
ACDBSECTIONVIEWSTYLE
  2
AcDbSectionViewStyle
  3
ObjectDBX Classes
 90
1025
 91
0
280
0
281
0
  0
CLASS
  1
RASTERVARIABLES
  2
AcDbRasterVariables
  3
ISM
 90
0
 91
0
280
0
281
0
  0
CLASS
  1
LAYOUT
  2
AcDbLayout
  3
ObjectDBX Classes
 90
0
 91
0
280
0
281
0
  0
CLASS
  1
ACDBPLACEHOLDER
  2
AcDbPlaceHolder
  3
ObjectDBX Classes
 90
0
 91
0
280
0
281
0
  0
ENDSEC
  0
SECTION
  2
TABLES
  0
TABLE
  2
VPORT
  5
8
330
0
100
AcDbSymbolTable
 70
1
  0
VPORT
  5
23
330
8
100
AcDbSymbolTableRecord
100
AcDbViewportTableRecord
  2
*Active
 70
0
 10
0.0
 20
0.0
 11
1.0
 21
1.0
 12
0.0
 22
0.0
 13
0.0
 23
0.0
 14
0.5
 24
0.5
 15
0.5
 25
0.5
 16
0.0
 26
0.0
 36
1.0
 17
0.0
 27
0.0
 37
0.0
 40
1000.0
 41
1.34
 42
50.0
 43
0.0
 44
0.0
 50
0.0
 51
0.0
 71
0
 72
1000
 73
1
 74
3
 75
0
 76
0
 77
0
 78
0
281
0
 65
0
146
0.0
  0
ENDTAB
  0
TABLE
  2
LTYPE
  5
2
330
0
100
AcDbSymbolTable
 70
3
  0
LTYPE
  5
24
330
2
100
AcDbSymbolTableRecord
100
AcDbLinetypeTableRecord
  2
ByBlock
 70
0
  3

 72
65
 73
0
 40
0.0
  0
LTYPE
  5
25
330
2
100
AcDbSymbolTableRecord
100
AcDbLinetypeTableRecord
  2
ByLayer
 70
0
  3

 72
65
 73
0
 40
0.0
  0
LTYPE
  5
26
330
2
100
AcDbSymbolTableRecord
100
AcDbLinetypeTableRecord
  2
Continuous
 70
0
  3

 72
65
 73
0
 40
0.0
  0
ENDTAB
  0
TABLE
  2
LAYER
  5
1
330
0
100
AcDbSymbolTable
 70
2
  0
LAYER
  5
27
330
1
100
AcDbSymbolTableRecord
100
AcDbLayerTableRecord
  2
0
 70
0
 62
7
  6
Continuous
370
-3
390
13
347
21
  0
LAYER
  5
28
330
1
100
AcDbSymbolTableRecord
100
AcDbLayerTableRecord
  2
Defpoints
 70
0
 62
7
  6
Continuous
290
0
370
-3
390
13
347
21
  0
ENDTAB
  0
TABLE
  2
STYLE
  5
5
330
0
100
AcDbSymbolTable
 70
1
  0
STYLE
  5
29
330
5
100
AcDbSymbolTableRecord
100
AcDbTextStyleTableRecord
  2
Standard
 70
0
 40
0.0
 41
1.0
 50
0.0
 71
0
 42
2.5
  3
txt
  4

  0
ENDTAB
  0
TABLE
  2
VIEW
  5
7
330
0
100
AcDbSymbolTable
 70
0
  0
ENDTAB
  0
TABLE
  2
UCS
  5
6
330
0
100
AcDbSymbolTable
 70
0
  0
ENDTAB
  0
TABLE
  2
APPID
  5
3
330
0
100
AcDbSymbolTable
 70
3
  0
APPID
  5
2A
330
3
100
AcDbSymbolTableRecord
100
AcDbRegAppTableRecord
  2
ACAD
 70
0
  0
APPID
  5
30
330
3
100
AcDbSymbolTableRecord
100
AcDbRegAppTableRecord
  2
HATCHBACKGROUNDCOLOR
 70
0
  0
APPID
  5
31
330
3
100
AcDbSymbolTableRecord
100
AcDbRegAppTableRecord
  2
EZDXF
 70
0
  0
ENDTAB
  0
TABLE
  2
DIMSTYLE
  5
4
330
0
100
AcDbSymbolTable
 70
1
100
AcDbDimStyleTable
  0
DIMSTYLE
105
2B
330
4
100
AcDbSymbolTableRecord
100
AcDbDimStyleTableRecord
  2
Standard
 70
0
 40
1.0
 41
2.5
 42
0.625
 43
3.75
 44
1.25
 45
0.0
 46
0.0
 47
0.0
 48
0.0
 49
2.5
140
2.5
141
2.5
142
0.0
143
0.03937007874
144
1.0
145
0.0
146
1.0
147
0.625
148
0.0
 69
0
 70
0
 71
0
 72
0
 73
0
 74
0
 75
0
 76
0
 77
1
 78
8
 79
3
170
0
171
3
172
1
173
0
174
0
175
0
176
0
177
0
178
0
179
2
271
2
272
2
273
2
274
3
275
0
276
0
277
2
278
44
279
0
280
0
281
0
282
0
283
0
284
8
285
0
286
0
288
0
289
3
290
0
371
-2
372
-2
  0
ENDTAB
  0
TABLE
  2
BLOCK_RECORD
  5
9
330
0
100
AcDbSymbolTable
 70
2
  0
BLOCK_RECORD
  5
17
330
9
100
AcDbSymbolTableRecord
100
AcDbBlockTableRecord
  2
*Model_Space
340
1A
 70
0
280
1
281
0
  0
BLOCK_RECORD
  5
1B
330
9
100
AcDbSymbolTableRecord
100
AcDbBlockTableRecord
  2
*Paper_Space
340
1E
 70
0
280
1
281
0
  0
ENDTAB
  0
ENDSEC
  0
SECTION
  2
BLOCKS
  0
BLOCK
  5
18
330
17
100
AcDbEntity
  8
0
100
AcDbBlockBegin
  2
*Model_Space
 70
0
 10
0.0
 20
0.0
 30
0.0
  3
*Model_Space
  1

  0
ENDBLK
  5
19
330
17
100
AcDbEntity
  8
0
100
AcDbBlockEnd
  0
BLOCK
  5
1C
330
1B
100
AcDbEntity
  8
0
100
AcDbBlockBegin
  2
*Paper_Space
 70
0
 10
0.0
 20
0.0
 30
0.0
  3
*Paper_Space
  1

  0
ENDBLK
  5
1D
330
1B
100
AcDbEntity
  8
0
100
AcDbBlockEnd
  0
ENDSEC
  0
SECTION
  2
ENTITIES
  0
LWPOLYLINE
  5
2F
330
17
100
AcDbEntity
  8
0
100
AcDbPolyline
 90
721
 70
1
 10
77.7645565344544
 20
48.98437210299462
 10
77.76185095848922
 20
48.983782790272485
 10
77.75387987125869
 20
48.98178203184143
 10
77.74093404485954
 20
48.97790500122899
 10
77.72275263600217
 20
48.97231002670736
 10
77.69978480192378
 20
48.96479639668914
 10
77.67184237417199
 20
48.95540626190186
 10
77.63888238847389
 20
48.943949650571426
 10
77.60113605030233
 20
48.93057426745054
 10
77.5585603953844
 20
48.915090140765145
 10
77.51089436218771
 20
48.897655947668916
 10
77.45851465135483
 20
48.8781868052376
 10
77.40130547828046
 20
48.85660915182943
 10
77.33919409537965
 20
48.83303928128291
 10
77.2723259978222
 20
48.80724460592103
 10
77.20055554494317
 20
48.779457946008485
 10
77.12407112343762
 20
48.749636801936184
 10
77.04275694870023
 20
48.7177076120624
 10
76.95654027314605
 20
48.6837866702256
 10
76.86568208555998
 20
48.64771541556593
 10
76.76992117891436
 20
48.60965275782477
 10
76.66940297563144
 20
48.569366225618985
 10
76.56421311326669
 20
48.52723622767209
 10
76.45407742207433
 20
48.48292508745729
 10
76.33934260114229
 20
48.43665453654442
 10
76.21977737225009
 20
48.388276986474594
 10
76.09549715626527
 20
48.33786658035877
 10
75.96650188044019
 20
48.285423434490795
 10
75.83271872444237
 20
48.231063959002995
 10
75.69414747002907
 20
48.17478850277686
 10
75.55093353962249
 20
48.116364594429285
 10
75.40293136530526
 20
48.056024937931085
 10
75.25032904278217
 20
47.99372749884854
 10
75.09293818535808
 20
47.92951477679071
 10
74.93090399721244
 20
47.86315464925597
 10
74.7641966222857
 20
47.79495349815075
 10
74.59274309475022
 20
47.72502796619504
 10
74.4167615118655
 20
47.653029404461066
 10
74.23599052110879
 20
47.579116955277875
 10
74.05073407553779
 20
47.50332202955967
 10
73.8606879311045
 20
47.42561368156762
 10
73.6660832205341
 20
47.346139732348256
 10
73.46680408647367
 20
47.26482673655366
 10
73.26296602253827
 20
47.18174872100094
 10
73.05452591895977
 20
47.09671594650369
 10
72.84159926935327
 20
47.009802439879046
 10
72.62392472119596
 20
46.92116734345601
 10
72.40180615479805
 20
46.830842184442716
 10
72.17512771280657
 20
46.7387535174912
 10
71.94388924972631
 20
46.64490157518914
 10
71.7080904018194
 20
46.54928693900574
 10
71.46777406061113
 20
46.45209969700893
 10
71.22289697083824
 20
46.35315034259996
 10
70.97350195127848
 20
46.2526290801406
 10
70.71966138577886
 20
46.15042019726158
 10
70.46152069676155
 20
46.046291222579725
 10
70.19904973717664
 20
45.94054900317681
 10
69.93198722724895
 20
45.83335256508808
 10
69.66033280324058
 20
45.72470248978269
 10
69.38442027426888
 20
45.6143238062685
 10
69.10417660175854
 20
45.502333273559316
 10
68.81960164021442
 20
45.388731124242796
 10
68.53047678314392
 20
45.27386682130366
 10
68.2371655502288
 20
45.157159244430936
 10
67.93963793991425
 20
45.03891500811872
 10
67.63782098637265
 20
44.91925075508701
 10
67.33152601191858
 20
44.798209450120254
 10
67.02105682411458
 20
44.67582273672032
 10
66.70637024044503
 20
44.55190099199465
 10
66.38746611541468
 20
44.4264444485309
 10
66.06431430197374
 20
44.29975995341087
 10
65.73720549947134
 20
44.171382796455916
 10
65.40587842813235
 20
44.04147200370129
 10
65.070491327602
 20
43.91029192261969
 10
64.7310439796375
 20
43.77784290209267
 10
64.3875660220557
 20
43.64381890909529
 10
64.03998434353375
 20
43.50833681893524
 10
63.68853007679694
 20
43.371544452659066
 10
63.33294179657491
 20
43.2336010688897
 10
62.9734375273796
 20
43.09415813499315
 10
62.61013269007848
 20
42.95328979408038
 10
62.2430270664288
 20
42.810996395032916
 10
61.87197479752284
 20
42.667511106996926
 10
61.49697566511784
 20
42.522834278853914
 10
61.11810219855595
 20
42.37684996564693
 10
60.73565827814737
 20
42.22958969458402
 10
60.349339441601195
 20
42.08102286880783
 10
59.959261182532494
 20
41.931223515135464
 10
59.565757237311054
 20
41.7799167788686
 10
59.168638782756176
 20
41.62714585737927
 10
58.7678030697283
 20
41.473333659000104
 10
58.36336559184244
 20
41.31855421054823
 10
57.955240056814844
 20
41.1624281499446
 10
57.543875985620666
 20
41.00475418413267
 10
57.12898209692999
 20
40.84599795364175
 10
56.71063092008491
 20
40.686043513514825
 10
56.288749416510264
 20
40.525007622765806
 10
55.86359850224325
 20
40.36273183682861
 10
55.435178031788745
 20
40.199216388290935
 10
55.00337192955099
 20
40.03438818068638
 10
54.568338653417946
 20
39.86851121260612
 10
54.129962273289074
 20
39.701512154996124
 10
53.688503777949244
 20
39.53323244699649
 10
53.24396287640804
 20
39.363672553782564
 10
52.79645513502816
 20
39.19290638587765
 10
52.345791730628974
 20
39.02097714065381
 10
51.891942734403315
 20
38.84819131631132
 10
51.435010240762544
 20
38.674127051162124
 10
50.975268783190394
 20
38.49912144026385
 10
50.51277749182531
 20
38.32256265015436
 10
50.04746325534445
 20
38.144567556141325
 10
49.57933925470875
 20
37.965632395611415
 10
49.10833245134302
 20
37.78587392757851
 10
48.63442930054834
 20
37.6047964961251
 10
48.15823829042097
 20
37.42246199272893
 10
47.67948452373925
 20
37.238533903801574
 10
47.19818103596893
 20
37.05350869931739
 10
46.71413907667698
 20
36.867429460354614
 10
46.22766281716397
 20
36.68032724894599
 10
45.73885449733635
 20
36.491779970815756
 10
45.247684188387
 20
36.30209412416418
 10
44.75400610415582
 20
36.111502761843624
 10
44.2581838370721
 20
35.91942464724928
 10
43.76028991647796
 20
35.725743835424176
 10
43.26019202816457
 20
35.53118915143198
 10
42.75773105951569
 20
35.335497643326036
 10
42.25306568666205
 20
35.138932960816014
 10
41.74663224961785
 20
34.940797573458674
 10
41.23835778255543
 20
34.74120812397398
 10
40.728096644809845
 20
34.540397432626634
 10
40.21563022988846
 20
34.33871496240127
 10
39.70148124283685
 20
34.1358424286398
 10
39.18570859555071
 20
33.931168346761574
 10
38.66844161733426
 20
33.72526193432585
 10
38.149084491819174
 20
33.51855835129844
 10
37.628044066698
 20
33.31066586767329
 10
37.10561096857239
 20
33.101119889565624
 10
36.58187148972614
 20
32.890299779054445
 10
36.056520804130386
 20
32.678175520751566
 10
35.52971780615871
 20
32.4650104154852
 10
35.00141916780019
 20
32.25061507295042
 10
34.47188616883005
 20
32.03483046711201
 10
33.94123459385369
 20
31.81773015961174
 10
33.40934829452778
 20
31.599241170277036
 10
32.876459058305876
 20
31.379510273509908
 10
32.34233480674407
 20
31.15839116008369
 10
31.80706168663099
 20
30.936263424665082
 10
31.270712518299085
 20
30.713010657121718
 10
30.733650748682482
 20
30.488051853436502
 10
30.195730737116254
 20
30.261619833874114
 10
29.657111596216613
 20
30.03397755038119
 10
29.11748849995478
 20
29.80509498756958
 10
28.5772387309541
 20
29.574886332164308
 10
28.036434964051896
 20
29.343235406620728
 10
27.49514987408546
 20
29.110026033394174
 10
26.953237674894645
 20
28.87549126533698
 10
26.410741694490355
 20
28.63982049275407
 10
25.867661714629772
 20
28.403014064526936
 10
25.324331908168165
 20
28.164796428194197
 10
24.780708947094723
 20
27.92497819345096
 10
24.236981436347282
 20
27.683516511806637
 10
23.693047136019338
 20
27.44083347753697
 10
23.14857165501286
 20
27.19720499198485
 10
22.60393249419397
 20
26.952544892993807
 10
22.059595558646063
 20
26.705849733389467
 10
21.515124144617033
 20
26.457817625084324
 10
20.970677728461055
 20
26.208710938555843
 10
20.42628551150941
 20
25.958224338542145
 10
19.88202031409456
 20
25.706241414910885
 10
19.337895826410588
 20
25.453257590991896
 10
18.79386886594176
 20
25.199083243892577
 10
18.250273532795806
 20
24.943442937445397
 10
17.706993751376938
 20
24.686263575183926
 10
17.164188998039357
 20
24.427807527585657
 10
16.62178637970298
 20
24.16819132107674
 10
16.080004211870076
 20
23.907065957847873
 10
15.538769601460594
 20
23.64454796432522
 10
14.998125949232945
 20
23.38082661451984
 10
14.457738936836721
 20
23.116177693480815
 10
13.918277200972753
 20
22.85004963110999
 10
13.379740741641053
 20
22.582442427407372
 10
12.842056884004302
 20
22.313472259917624
 10
12.305152734982434
 20
22.043255655066893
 10
11.769217335998853
 20
21.77174906660161
 10
11.234061791125317
 20
21.498995808187672
 10
10.699991071885806
 20
21.225025662625583
 10
10.167150746197665
 20
20.9496059259445
 10
9.635468066476035
 20
20.672852891982938
 10
9.104870357883573
 20
20.39488273828553
 10
8.575430368005195
 20
20.115579171013803
 10
8.047526034192504
 20
19.834855330248224
 10
7.520895640184786
 20
19.552870939787045
 10
6.995509984650765
 20
19.269931334892146
 10
6.4716166571715785
 20
18.9853820661985
 10
5.9493025320116635
 20
18.699601565434378
 10
5.428349584659111
 20
18.412938365233767
 10
4.908859764030098
 20
18.124970836496278
 10
4.391211152971401
 20
17.835611886714723
 10
3.8752583290608187
 20
17.545093987272242
 10
3.3610305663772184
 20
17.25311168661311
 10
2.8486149574278126
 20
16.960043067584113
 10
2.338040849039064
 20
16.66558256233569
 10
1.829468008555472
 20
16.36999207616996
 10
1.3224458965357166
 20
16.073474530257258
 10
0.8173525958265687
 20
15.77594283209039
 10
0.3144790967676042
 20
15.476931806315383
 10
-0.18624712998332366
 20
15.176557397889205
 10
-0.6849281060899804
 20
14.87524135220608
 10
-1.1814907929771261
 20
14.572866910252158
 10
-1.6758623703122986
 20
14.2693176618951
 10
-2.1679264715094058
 20
13.96466623842597
 10
-2.6579448128291454
 20
13.659072363643018
 10
-3.145946304612482
 20
13.352840907632771
 10
-3.6315236626813405
 20
13.045579442626144
 10
-4.114531246370756
 20
12.737055148358488
 10
-4.595114332607783
 20
12.427500263625257
 10
-5.073222682360982
 20
12.117093130816711
 10
-5.548960804360126
 20
11.805742162746107
 10
-6.022284934108835
 20
11.493636051955331
 10
-6.493151525353529
 20
11.18096383986775
 10
-6.961385881593109
 20
10.867187603544517
 10
-7.426871708989089
 20
10.552380090570518
 10
-7.889856451627451
 20
10.237195517723109
 10
-8.350310908176887
 20
9.921328549740416
 10
-8.807929743375528
 20
9.604808387953732
 10
-9.262945544900363
 20
9.28748953719326
 10
-9.715125725074389
 20
8.969517492628805
 10
-10.164499485228923
 20
8.65119758952223
 10
-10.611372160625827
 20
8.332500626542252
 10
-11.055263719502143
 20
8.012917882081297
 10
-11.496378059690253
 20
7.693292614340101
 10
-11.934976970198427
 20
7.373784663410773
 10
-12.37074025935581
 20
7.053623518677445
 10
-12.803319045646914
 20
6.73302742289481
 10
-13.233047865664918
 20
6.412272509993442
 10
-13.659999466994712
 20
6.09147507381184
 10
-14.0840283544665
 20
5.770402526673028
 10
-14.504974687988206
 20
5.449316657585268
 10
-14.923071055236802
 20
5.128071971378786
 10
-15.338303111289994
 20
4.8071628447388415
 10
-15.750525360977992
 20
4.486356689988448
 10
-16.159665056715898
 20
4.165537213289117
 10
-16.56579494608861
 20
3.8448207084793413
 10
-16.96894423042742
 20
3.524512510820994
 10
-17.369229203570814
 20
3.2045398727291916
 10
-17.76627178267203
 20
2.8848157016967257
 10
-18.160071967731067
 20
2.565339997723601
 10
-18.550673305001517
 20
2.245923719386432
 10
-18.938032248229792
 20
1.9267559081086008
 10
-19.32236704017056
 20
1.6081854454055904
 10
-19.703634134570223
 20
1.2904013727007864
 10
-20.08154254108922
 20
0.9729385146402139
 10
-20.45620855356603
 20
0.6557241236389826
 10
-20.827210542900286
 20
0.3388601486132824
 10
-21.19499933952365
 20
0.022549975908799497
 10
-21.55964769102103
 20
-0.29309010063597063
 10
-21.920923009715416
 20
-0.6079145858512385
 10
-22.278752548021934
 20
-0.9220397735755022
 10
-22.633034357024393
 20
-1.23588729290913
 10
-22.983943133223868
 20
-1.5489192209132563
 10
-23.331697119375047
 20
-1.860786676072407
 10
-23.675816283714962
 20
-2.1719983799941494
 10
-24.01641692008211
 20
-2.482627080263376
 10
-24.353411935969294
 20
-2.7922946940333153
 10
-24.686917625215003
 20
-3.1010739688888638
 10
-25.017006735404127
 20
-3.4088486109915257
 10
-25.343344729943503
 20
-3.7158947542718814
 10
-25.66607710400291
 20
-4.021979811052958
 10
-25.985203857582352
 20
-4.327103781334741
 10
-26.301015981021397
 20
-4.630801489763267
 10
-26.613208139058177
 20
-4.933043735007243
 10
-26.921794676614983
 20
-5.2343248937519276
 10
-27.22651380468354
 20
-5.5348048060894195
 10
-27.52754021976494
 20
-5.833945549080851
 10
-27.825135710867453
 20
-6.131587282634131
 10
-28.118892993813013
 20
-6.428122434518338
 10
-28.408841269932914
 20
-6.723245669471589
 10
-28.695285874489034
 20
-7.0169861888251805
 10
-28.97799421980439
 20
-7.309198497409325
 10
-29.256748063124295
 20
-7.600231476739504
 10
-29.531765647203443
 20
-7.889736245300234
 10
-29.803119719626714
 20
-8.177596509253029
 10
-30.070737532809225
 20
-8.463928562436372
 10
-30.33450279291247
 20
-8.748659657265376
 10
-30.594342752351572
 20
-9.031906087578536
 10
-30.850446452549903
 20
-9.313624307122247
 10
-31.102581305830487
 20
-9.593668820726725
 10
-31.350892807363106
 20
-9.871807040714984
 10
-31.595468049654947
 20
-10.148417049933794
 10
-31.835958151190564
 20
-10.423280605628475
 10
-32.07240665822353
 20
-10.696586749222423
 10
-32.305104561093415
 20
-10.967870305361656
 10
-32.534051859800236
 20
-11.23713127404617
 10
-32.758986765335706
 20
-11.504529495368068
 10
-32.97983653011494
 20
-11.770181263165838
 10
-33.196644700391516
 20
-12.034275618862871
 10
-33.40954242641294
 20
-12.296085598096912
 10
-33.618573254432796
 20
-12.555800242291342
 10
-33.823591689281294
 20
-12.813652139123151
 10
-34.02448143711995
 20
-13.069568541007447
 10
-34.22138799311856
 20
-13.32331686026725
 10
-34.41416586210732
 20
-13.57512968457953
 10
-34.60288779167112
 20
-13.824890720105808
 10
-34.78762652939488
 20
-14.072483673007591
 10
-34.968120286270306
 20
-14.318068383376964
 10
-35.144587305052056
 20
-14.561295969698445
 10
-35.31685288923908
 20
-14.802704354910908
 10
-35.485091735332446
 20
-15.04175561607549
 10
-35.64923109574726
 20
-15.278566047030669
 10
-35.80919822289863
 20
-15.513251941614955
 10
-35.96487682294807
 20
-15.745740552243447
 10
-36.11645593731896
 20
-15.975988332662544
 10
-36.26403751492747
 20
-16.203573653771876
 10
-36.407476060603855
 20
-16.42872910324843
 10
-36.546771574348085
 20
-16.651454681092204
 10
-36.682113097583546
 20
-16.871706841049598
 10
-36.81319529504837
 20
-17.089456381789315
 10
-36.940279955750825
 20
-17.304543463219268
 10
-37.063396281022214
 20
-17.516662750077575
 10
-37.18266056470103
 20
-17.725886989949135
 10
-37.297811017779
 20
-17.932376022926032
 10
-37.40903668167948
 20
-18.136086302754673
 10
-37.51610496872552
 20
-18.336872334265266
 10
-37.61939396176387
 20
-18.534647024950612
 10
-37.71874382070245
 20
-18.729148585802434
 10
-37.81412534420997
 20
-18.92068235208262
 10
-37.90553853228641
 20
-19.109248323791146
 10
-37.99298338493178
 20
-19.29484650092803
 10
-38.076489103477385
 20
-19.4771715482314
 10
-38.15605568792321
 20
-19.656223465701235
 10
-38.23158118935308
 20
-19.832423882437922
 10
-38.303167556683164
 20
-20.005351169341075
 10
-38.3705237995739
 20
-20.175470501764686
 10
-38.433940908364875
 20
-20.342316704354776
 10
-38.4931278927165
 20
-20.5063549524653
 10
-38.54823024779856
 20
-20.66735265841929
 10
-38.59924797361106
 20
-20.825309822216745
 10
-38.645992028730596
 20
-20.98026999011126
 10
-38.68884049600397
 20
-21.13214606959563
 10
-38.727226251161014
 20
-21.28106869943067
 10
-38.76164367088698
 20
-21.427023534694058
 10
-38.79178741992001
 20
-21.56998137405451
 10
-38.81787574101476
 20
-21.709593335996537
 10
-38.83987943283995
 20
-21.84616475578203
 10
-38.85775494914199
 20
-21.979506591987597
 10
-38.871793280260434
 20
-22.109153669259268
 10
-38.88189247727911
 20
-22.235527616697414
 10
-38.8880817415293
 20
-22.358323099040152
 10
-38.890506568180804
 20
-22.47730752861051
 10
-38.889457947573185
 20
-22.592015730054495
 10
-38.88493587970645
 20
-22.702447703372123
 10
-38.87720215358887
 20
-22.808443608471293
 10
-38.86638791946793
 20
-22.909276480989753
 10
-38.85290046152171
 20
-23.004553893158434
 10
-38.83758354943761
 20
-23.093185654177283
 10
-38.82071382863293
 20
-23.174212212007077
 10
-38.80357155430445
 20
-23.245845612816815
 10
-38.78743698164894
 20
-23.30629790277551
 10
-38.77382346502688
 20
-23.352632534589524
 10
-38.764665987899086
 20
-23.382014909881438
 10
-38.30194575577605
 20
-24.126631035803324
 10
-38.296026046015115
 20
-24.13117981745349
 10
-38.2783396643172
 20
-24.144709868565503
 10
-38.24917760102188
 20
-24.16675601378538
 10
-38.20718685334747
 20
-24.199222500782614
 10
-38.1510723096882
 20
-24.244696995335353
 10
-38.08450055062002
 20
-24.29705947025705
 10
-38.009610457436175
 20
-24.35263206896955
 10
-37.92758033641722
 20
-24.41004846674221
 10
-37.83982159300746
 20
-24.466793745381796
 10
-37.74687266163242
 20
-24.521748512756968
 10
-37.64932986789356
 20
-24.574476794845054
 10
-37.54736790829198
 20
-24.624440668707184
 10
-37.44127777316723
 20
-24.67117495898939
 10
-37.33120495768911
 20
-24.714447078014686
 10
-37.217149461857616
 20
-24.75425702578307
 10
-37.09930032709614
 20
-24.79056125604094
 10
-36.977686754735956
 20
-24.823054433526426
 10
-36.852235997192196
 20
-24.85185285207801
 10
-36.72313709588824
 20
-24.876912965442102
 10
-36.59012826181579
 20
-24.898394613710785
 10
-36.453282242559766
 20
-24.91618150304557
 10
-36.31297712096692
 20
-24.93018654093926
 10
-36.1686457727671
 20
-24.940540366152653
 10
-36.02070982706069
 20
-24.947344927601936
 10
-35.86886394858579
 20
-24.95057102395581
 10
-35.7132971787658
 20
-24.950175108960686
 10
-35.55408226518561
 20
-24.94604088877806
 10
-35.39100096509053
 20
-24.938517244923414
 10
-35.224198773650365
 20
-24.92737158971977
 10
-35.053384700525534
 20
-24.913069098521095
 10
-34.87877698847071
 20
-24.895260889811908
 10
-34.700346436154604
 20
-24.87425229885409
 10
-34.51797674973873
 20
-24.849970578062738
 10
-34.33152243405329
 20
-24.822648315114858
 10
-34.14117253052168
 20
-24.792241963756837
 10
-33.946854291559
 20
-24.758867817827166
 10
-33.748567717165244
 20
-24.722525877325854
 10
-33.545978270747256
 20
-24.683492276183483
 10
-33.3393912875669
 20
-24.641796215731347
 10
-33.128646927532095
 20
-24.597175906961162
 10
-32.91397777831981
 20
-24.549776845042718
 10
-32.69512205092178
 20
-24.499758870068106
 10
-32.472196039176495
 20
-24.447194729622225
 10
-32.245156196830365
 20
-24.391895382281685
 10
-32.014264312891655
 20
-24.333700987954398
 10
-31.77933134593698
 20
-24.27265509289395
 10
-31.540517136058433
 20
-24.20901948610863
 10
-31.297705389417523
 20
-24.142721420013544
 10
-31.050896106014257
 20
-24.0737608946087
 10
-30.80030752860331
 20
-24.001789028378603
 10
-30.546055951023174
 20
-23.92687856890816
 10
-30.28802507943535
 20
-23.84895676861247
 10
-30.026185712508557
 20
-23.76832896275342
 10
-29.760537850242784
 20
-23.684995151330995
 10
-29.49137248297761
 20
-23.598490158991236
 10
-29.218660409381744
 20
-23.509119320996025
 10
-28.942358083201572
 20
-23.41669359592196
 10
-28.662392756852217
 20
-23.321329277607546
 10
-28.378880724172173
 20
-23.223099113637677
 10
-28.09189473274632
 20
-23.12188681017386
 10
-27.801362034989772
 20
-23.01780866105458
 10
-27.507282630902527
 20
-22.910864666279842
 10
-27.209729268069484
 20
-22.80093853201116
 10
-26.908745492744238
 20
-22.68821929967191
 10
-26.604331304926784
 20
-22.572706969262093
 10
-26.296443158363534
 20
-22.454212499358324
 10
-25.985168145561673
 20
-22.333113972807382
 10
-25.67046272026762
 20
-22.209222348185868
 10
-25.352254134896462
 20
-22.082653919332294
 10
-25.0307314308716
 20
-21.953365139993043
 10
-24.706112850947704
 20
-21.821007128652642
 10
-24.3781801523701
 20
-21.68592876682657
 10
-24.04667154613051
 20
-21.54828989460692
 10
-23.7120086613293
 20
-21.408192460909884
 10
-23.37410440545927
 20
-21.26525838288868
 10
-23.033031526105326
 20
-21.11937136670482
 10
-22.688877115774645
 20
-20.970909495205074
 10
-22.34145213304387
 20
-20.81991631464304
 10
-21.990902073082758
 20
-20.66615923734175
 10
-21.637343229729826
 20
-20.50971101088607
 10
-21.28084835056995
 20
-20.35045534143752
 10
-20.921199192848462
 20
-20.188741110511586
 10
-20.558541251735143
 20
-20.02433573043127
 10
-20.192729032060203
 20
-19.857471788873564
 10
-19.824213364255318
 20
-19.68794589949278
 10
-19.452688913058598
 20
-19.515728860957612
 10
-19.078271972308542
 20
-19.340893420852968
 10
-18.70100608825875
 20
-19.163628620602225
 10
-18.320920462240515
 20
-18.9836291249435
 10
-17.937985892922544
 20
-18.801200269138686
 10
-17.552391421728217
 20
-18.61629850693417
 10
-17.164049956150343
 20
-18.428545755483192
 10
-16.773194083865906
 20
-18.238087509955527
 10
-16.37960556212022
 20
-18.045272651866654
 10
-15.983284390913292
 20
-17.850101181216587
 10
-15.584230570245122
 20
-17.65257309800531
 10
-15.182778636708877
 20
-17.452412268302247
 10
-14.779074085474347
 20
-17.249386104430407
 10
-14.372709632363472
 20
-17.043887034158875
 10
-13.963917865053224
 20
-16.836060552657425
 10
-13.55272798487491
 20
-16.625601324664192
 10
-13.139401780836806
 20
-16.41234951008708
 10
-12.723721010184228
 20
-16.196653990441565
 10
-12.305656471585884
 20
-15.97882010098952
 10
-11.885237366373076
 20
-15.758542506469082
 10
-11.462681937300466
 20
-15.535472325364756
 10
-11.038077276875269
 20
-15.309987640523326
 10
-10.611350637512588
 20
-15.08220474578328
 10
-10.182269431535433
 20
-14.85197814597483
 10
-9.75125528804418
 20
-14.619409790014165
 10
-9.318337408370121
 20
-14.384194342639406
 10
-8.883515792513261
 20
-14.146331803850554
 10
-8.44683398672719
 20
-13.906011215070992
 10
-8.007928253087453
 20
-13.663814045493188
 10
-7.56713312818721
 20
-13.419464161186557
 10
-7.124623308527551
 20
-13.17242363921223
 10
-6.680326046523583
 20
-12.922808773408708
 10
-6.2344739298522835
 20
-12.670765058945765
 10
-5.786659674335595
 20
-12.416684923592491
 10
-5.337145068981791
 20
-12.160408527256786
 10
-4.885930113790873
 20
-11.901935869938653
 10
-4.433160303932632
 20
-11.64103436396111
 10
-3.9787628918221745
 20
-11.377820303162647
 10
-3.522824969966692
 20
-11.11267177039003
 10
-3.0652594458589983
 20
-10.8452106827965
 10
-2.6064444023458475
 20
-10.575349947874843
 10
-2.1463070918423557
 20
-10.30320585946356
 10
-1.684774766763638
 20
-10.028894711401147
 10
-1.2218038808560823
 20
-9.752227462264209
 10
-0.7578888108049682
 20
-9.473189767130451
 10
-0.2929860103566802
 20
-9.191592584576476
 10
0.17345729983662203
 20
-8.908060930048357
 10
0.6411357845130685
 20
-8.622624004877382
 10
1.109496664324807
 20
-8.334656793617485
 10
1.5789907697034888
 20
-8.04436268261437
 10
2.0495745543955337
 20
-7.751930713291407
 10
2.520869935554154
 20
-7.457273793141409
 10
2.9930367532714457
 20
-7.160130133156096
 10
3.4658424198704307
 20
-6.860645228505243
 10
3.9396942195291644
 20
-6.5592115069579435
 10
4.4143303632393724
 20
-6.255669128422094
 10
4.889270819238104
 20
-5.949509371290126
 10
5.364850124118512
 20
-5.6410083694926305
 10
5.841242974381695
 20
-5.330704045968464
 10
6.318115051677215
 20
-5.018320615668569
 10
6.795521687367452
 20
-4.703687876771378
 10
7.273498775561481
 20
-4.387121863571929
 10
7.751755544162507
 20
-4.06815774959775
 10
8.230292138665689
 20
-3.7467957674365278
 10
8.709283255572101
 20
-3.423573840027128
 10
9.188685639618493
 20
-3.0986814739682886
 10
9.668542909806051
 20
-2.7719297441304565
 10
10.148520602289176
 20
-2.443042632876895
 10
10.628764284985252
 20
-2.1122528441784185
 10
11.109274248884615
 20
-1.7795608432103858
 10
11.589934127401175
 20
-1.445039261263856
 10
12.070525896023021
 20
-1.1083395657048594
 10
12.551195049919935
 20
-0.7696943442103847
 10
13.031999991754503
 20
-0.42971426730419093
 10
13.513100852609158
 20
-0.08813801115335124
 10
13.994046729304651
 20
0.255237926881665
 10
14.475026808759543
 20
0.6003697679595849
 10
14.955808503296831
 20
0.9471120169106111
 10
15.4365809270875
 20
1.2954210111873137
 10
15.917271405294239
 20
1.6454129283343462
 10
16.397720097824955
 20
1.996825979343426
 10
16.878188793687936
 20
2.349500324122471
 10
17.358604963541026
 20
2.703551907628442
 10
17.838663053879603
 20
3.0589518774115705
 10
18.318552251622222
 20
3.415656454630582
 10
18.798301758100166
 20
3.773360304023585
 10
19.27773694955995
 20
4.1326012322356185
 10
19.75677058799922
 20
4.4930013890075875
 10
20.235548168587723
 20
4.854328186662491
 10
20.713997016488197
 20
5.216697802745008
 10
21.191971636530816
 20
5.5803428249320985
 10
21.669617596632975
 20
5.945030549252957
 10
22.146847440549536
 20
6.310383474329986
 10
22.62363211244439
 20
6.676706702837409
 10
23.10007356123371
 20
7.043578605674834
 10
23.575953398667654
 20
7.411348296945427
 10
24.051198949908915
 20
7.7801319541938465
 10
24.52595571012727
 20
8.149696989743095
 10
25.00020889791492
 20
8.519549724670942
 10
25.47407502535309
 20
8.889762557680765
 10
25.94721941035346
 20
9.260611855290831
 10
26.41971465500574
 20
9.631981556250324
 10
26.891560832057515
 20
10.003871544265396
 10
27.362830543598527
 20
10.376165758085246
 10
27.833218090628943
 20
10.748835577847755
 10
28.302912732814935
 20
11.121837108417832
 10
28.771870487417356
 20
11.494982006135087
 10
29.240353507182448
 20
11.86810984943827
 10
29.707837559365355
 20
12.241541365156086
 10
30.174395464298573
 20
12.615160143156213
 10
30.640507253745074
 20
12.988457461831084
 10
31.105503490780574
 20
13.36198617051107
 10
31.56931120957742
 20
13.735862911916158
 10
32.03248340772623
 20
14.109462321718787
 10
32.49493241073911
 20
14.482407247422872
 10
32.95633817244038
 20
14.85546796705661
 10
33.416656855586076
 20
15.228455904371943
 10
33.87577172985225
 20
15.60129900954704
 10
34.33394480248989
 20
15.973837093608275
 10
34.79113216350745
 20
16.34588169660144
 10
35.24740634224713
 20
16.71731687356959
 10
35.70250533145786
 20
17.088302813486305
 10
36.1562833449795
 20
17.459072569203936
 10
36.60895855281919
 20
17.82927737550085
 10
37.060530882229315
 20
18.19891734867087
 10
37.51083969289435
 20
18.567731978937957
 10
37.960118081724374
 20
18.935865947415
 10
38.407914490811876
 20
19.303523803386106
 10
38.854301522246594
 20
19.670589485600452
 10
39.299642622962615
 20
20.036481990040905
 10
39.74386511812269
 20
20.40131749425215
 10
40.1865899791614
 20
20.765184602561277
 10
40.62812305057372
 20
21.128111702242702
 10
41.06815819687435
 20
21.490070871197357
 10
41.506811857396954
 20
21.851134624422464
 10
41.94411272423972
 20
22.210998440713013
 10
42.379943994331065
 20
22.569590386540963
 10
42.81456767492204
 20
22.926750272932736
 10
43.24753198986233
 20
23.282682998053897
 10
43.67907003606207
 20
23.63753324301738
 10
44.108875678035915
 20
23.991273085724107
 10
44.5373850375553
 20
24.34320534461231
 10
44.96448138429625
 20
24.693257969860138
 10
45.38996132965944
 20
25.04227340561145
 10
45.813401935088024
 20
25.390151796239167
 10
46.235618278171195
 20
25.736107472148266
 10
46.65630415067606
 20
26.08011262753349
 10
47.075168198525105
 20
26.422633019218026
 10
47.492210276223176
 20
26.763668879789538
 10
47.90750291311244
 20
27.10310426429107
 10
48.321409701622144
 20
27.440357936117802
 10
48.733551394944186
 20
27.77551884847837
 10
49.143943065476726
 20
28.109080215119654
 10
49.55235096158139
 20
28.44089840157327
 10
49.958920360185225
 20
28.77074116904376
 10
50.36379661096288
 20
29.09837616244182
 10
50.766833927754185
 20
29.424036434619776
 10
51.16791528924479
 20
29.74765040093111
 10
51.56730277543337
 20
30.069057756108407
 10
51.96476263468154
 20
30.388114865683285
 10
52.360193209063446
 20
30.705242893580742
 10
52.75336060144559
 20
31.020298437920104
 10
53.1447604252222
 20
31.333265176783808
 10
53.53407081778151
 20
31.643623020970445
 10
53.92152516702397
 20
31.95151618641759
 10
54.30705043437431
 20
32.25706143213906
 10
54.690267373024405
 20
32.560347711343496
 10
55.07124836682127
 20
32.86125931166159
 10
55.45029947850259
 20
33.159824271486265
 10
55.82714297369093
 20
33.455710612688776
 10
56.202040786889725
 20
33.748758262589355
 10
56.574657654029956
 20
34.039244518056975
 10
56.945037339608
 20
34.32735807163352
 10
57.31313556989436
 20
34.612911044833965
 10
57.67895205389875
 20
34.89590390283367
 10
58.042587940313894
 20
35.175916295764516
 10
58.403941643961545
 20
35.45336927125765
 10
58.76285194254547
 20
35.72800324988772
 10
59.11928985297717
 20
36.00012321803512
 10
59.47347347251611
 20
36.26938052677201
 10
59.82535838193772
 20
36.53558753020111
 10
60.174726047496925
 20
36.79909357501321
 10
60.521576250951014
 20
37.05989901008985
 10
60.86590870130964
 20
37.31800430060639
 10
61.20763499660908
 20
37.57303345700512
 10
61.547134019919504
 20
37.82489810754664
 10
61.88392493925458
 20
38.074108253070754
 10
62.2179634081372
 20
38.32047613138627
 10
62.549365938648684
 20
38.56407414119659
 10
62.878160931896836
 20
38.80459822647205
 10
63.204158546234844
 20
39.04209321269846
 10
63.527519494725865
 20
39.27681949335806
 10
63.84822797749585
 20
39.50828501764235
 10
64.16613828113228
 20
39.73672272210982
 10
64.48132293497729
 20
39.962016661803496
 10
64.79356333253826
 20
40.18451629970805
 10
65.10300475074223
 20
40.40398939702802
 10
65.40953002277969
 20
40.62036460170456
 10
65.71321167799279
 20
40.83352596878072
 10
66.01409362637304
 20
41.04366195821065
 10
66.31186907770685
 20
41.25074569453986
 10
66.60653766825634
 20
41.45477775923753
 10
66.89828887593036
 20
41.65571390828704
 10
67.18719552106141
 20
41.85343773155604
 10
67.47280684596541
 20
42.04815249909641
 10
67.75523288818852
 20
42.23994095976312
 10
68.03469894700122
 20
42.42844295153838
 10
68.31101248909599
 20
42.61370760278003
 10
68.58402787380791
 20
42.79596773375275
 10
68.85400725388314
 20
42.97506292289522
 10
69.12078926153036
 20
43.150733823369805
 10
69.38434505915616
 20
43.32328518896918
 10
69.6446016809329
 20
43.492833662413325
 10
69.90144203279866
 20
43.6593077753496
 10
70.1550113916805
 20
43.82247528898255
 10
70.40523664625555
 20
43.982453078619834
 10
70.65197215585884
 20
44.1394739645261
 10
70.89529037708502
 20
44.293422118038244
 10
71.13521978378947
 20
44.44399336683276
 10
71.37176001223425
 20
44.59118829237883
 10
71.60473687515137
 20
44.73554400355845
 10
71.83410588056867
 20
44.87687297076815
 10
72.05986695573857
 20
45.015175310301764
 10
72.28209248450801
 20
45.15033530978999
 10
72.50066544556262
 20
45.28228138458629
 10
72.71570242373127
 20
45.41108581710024
 10
72.92694097527742
 20
45.53690949406848
 10
73.13452623163293
 20
45.659520409283196
 10
73.33831255213283
 20
45.77915138300907
 10
73.53856216227095
 20
45.89564187739098
 10
73.73489552424874
 20
46.00908131081285
 10
73.92735662080538
 20
46.11965802693509
 10
74.1159011054638
 20
46.22718426356653
 10
74.30071845613291
 20
46.3316157766905
 10
74.48154550160031
 20
46.43311461598206
 10
74.65864410362185
 20
46.53152082505526
 10
74.83156655991208
 20
46.62703278962076
 10
75.00061354988736
 20
46.71968715381549
 10
75.1655532133466
 20
46.8093372595313
 10
75.3265022806138
 20
46.89605515659003
 10
75.48346060619379
 20
46.97984107757938
 10
75.63635522425892
 20
47.060811665219354
 10
75.78514193382732
 20
47.13877892473111
 10
75.92967494873885
 20
47.21397590896698
 10
76.07014396514518
 20
47.28635802502881
 10
76.20635899590432
 20
47.35597033099012
 10
76.33839271585359
 20
47.42269664930626
 10
76.46617230466049
 20
47.486653390109545
 10
76.58977029166715
 20
47.54772460844299
 10
76.70911385654111
 20
47.60602671443895
 10
76.82405743136502
 20
47.66179241206824
 10
76.9346293444991
 20
47.71471776159503
 10
77.04099074549202
 20
47.765062458738534
 10
77.14271782281585
 20
47.81272804339769
 10
77.24023416975571
 20
47.85781332455505
 10
77.333305743683
 20
47.90017513291763
 10
77.42178697668025
 20
47.94004617245622
 10
77.50586749215162
 20
47.977381966566526
 10
77.5854301960351
 20
48.01211104689587
 10
77.660329593161
 20
48.04446600112125
 10
77.73082798177057
 20
48.07428617509368
 10
77.79666291812737
 20
48.10173245554984
 10
77.85790700432108
 20
48.12668878123888
 10
77.91441474518192
 20
48.1493877398378
 10
77.96625888829479
 20
48.1697130375081
 10
78.01348348914637
 20
48.187852901616296
 10
78.05585457785557
 20
48.20366404657554
 10
78.09341642815183
 20
48.21733435087085
 10
78.12628591585434
 20
48.228935631736356
 10
78.15422907108199
 20
48.238324603585255
 10
78.17721727448414
 20
48.245805671328704
 10
78.19544044045523
 20
48.25133389318704
 10
78.20851881295405
 20
48.25499903642575
 10
78.21649688395274
 20
48.2569886306483
 10
78.21922894003882
 20
48.25753561241323
  0
ENDSEC
  0
SECTION
  2
OBJECTS
  0
DICTIONARY
  5
A
330
0
100
AcDbDictionary
280
0
281
1
  3
ACAD_COLOR
350
B
  3
ACAD_GROUP
350
C
  3
ACAD_LAYOUT
350
D
  3
ACAD_MATERIAL
350
E
  3
ACAD_MLEADERSTYLE
350
F
  3
ACAD_MLINESTYLE
350
10
  3
ACAD_PLOTSETTINGS
350
11
  3
ACAD_PLOTSTYLENAME
350
12
  3
ACAD_SCALELIST
350
14
  3
ACAD_TABLESTYLE
350
15
  3
ACAD_VISUALSTYLE
350
16
  3
EZDXF_META
350
2D
  0
DICTIONARY
  5
B
330
A
100
AcDbDictionary
280
0
281
1
  0
DICTIONARY
  5
C
330
A
100
AcDbDictionary
280
0
281
1
  0
DICTIONARY
  5
D
330
A
100
AcDbDictionary
280
0
281
1
  3
Model
350
1A
  3
Layout1
350
1E
  0
DICTIONARY
  5
E
330
A
100
AcDbDictionary
280
0
281
1
  3
ByBlock
350
1F
  3
ByLayer
350
20
  3
Global
350
21
  0
DICTIONARY
  5
F
330
A
100
AcDbDictionary
280
0
281
1
  3
Standard
350
2C
  0
DICTIONARY
  5
10
330
A
100
AcDbDictionary
280
0
281
1
  3
Standard
350
22
  0
DICTIONARY
  5
11
330
A
100
AcDbDictionary
280
0
281
1
  0
ACDBDICTIONARYWDFLT
  5
12
330
A
100
AcDbDictionary
280
0
281
1
  3
Normal
350
13
100
AcDbDictionaryWithDefault
340
13
  0
ACDBPLACEHOLDER
  5
13
330
12
  0
DICTIONARY
  5
14
330
A
100
AcDbDictionary
280
0
281
1
  0
DICTIONARY
  5
15
330
A
100
AcDbDictionary
280
0
281
1
  0
DICTIONARY
  5
16
330
A
100
AcDbDictionary
280
0
281
1
  0
LAYOUT
  5
1A
330
D
100
AcDbPlotSettings
  1

  4
A3
  6

 40
7.5
 41
20.0
 42
7.5
 43
20.0
 44
420.0
 45
297.0
 46
0.0
 47
0.0
 48
0.0
 49
0.0
140
0.0
141
0.0
142
1.0
143
1.0
 70
1024
 72
1
 73
0
 74
5
  7

 75
16
 76
0
 77
2
 78
300
147
1.0
148
0.0
149
0.0
100
AcDbLayout
  1
Model
 70
1
 71
0
 10
0.0
 20
0.0
 11
420.0
 21
297.0
 12
0.0
 22
0.0
 32
0.0
 14
1e+20
 24
1e+20
 34
1e+20
 15
-1e+20
 25
-1e+20
 35
-1e+20
146
0.0
 13
0.0
 23
0.0
 33
0.0
 16
1.0
 26
0.0
 36
0.0
 17
0.0
 27
1.0
 37
0.0
 76
1
330
17
  0
LAYOUT
  5
1E
330
D
100
AcDbPlotSettings
  1

  4
A3
  6

 40
7.5
 41
20.0
 42
7.5
 43
20.0
 44
420.0
 45
297.0
 46
0.0
 47
0.0
 48
0.0
 49
0.0
140
0.0
141
0.0
142
1.0
143
1.0
 70
0
 72
1
 73
0
 74
5
  7

 75
16
 76
0
 77
2
 78
300
147
1.0
148
0.0
149
0.0
100
AcDbLayout
  1
Layout1
 70
1
 71
1
 10
0.0
 20
0.0
 11
420.0
 21
297.0
 12
0.0
 22
0.0
 32
0.0
 14
1e+20
 24
1e+20
 34
1e+20
 15
-1e+20
 25
-1e+20
 35
-1e+20
146
0.0
 13
0.0
 23
0.0
 33
0.0
 16
1.0
 26
0.0
 36
0.0
 17
0.0
 27
1.0
 37
0.0
 76
1
330
1B
  0
MATERIAL
  5
1F
102
{ACAD_REACTORS
330
E
102
}
330
E
100
AcDbMaterial
  1
ByBlock
  2

 70
0
 40
1.0
 71
1
 41
1.0
 91
-1023410177
 42
1.0
 72
1
  3

 73
1
 74
1
 75
1
 44
0.5
 73
0
 45
1.0
 46
1.0
 77
1
  4

 78
1
 79
1
170
1
 48
1.0
171
1
  6

172
1
173
1
174
1
140
1.0
141
1.0
175
1
  7

176
1
177
1
178
1
143
1.0
179
1
  8

270
1
271
1
272
1
145
1.0
146
1.0
273
1
  9

274
1
275
1
276
1
 42
1.0
 72
1
  3

 73
1
 74
1
 75
1
 94
63
  0
MATERIAL
  5
20
102
{ACAD_REACTORS
330
E
102
}
330
E
100
AcDbMaterial
  1
ByLayer
  2

 70
0
 40
1.0
 71
1
 41
1.0
 91
-1023410177
 42
1.0
 72
1
  3

 73
1
 74
1
 75
1
 44
0.5
 73
0
 45
1.0
 46
1.0
 77
1
  4

 78
1
 79
1
170
1
 48
1.0
171
1
  6

172
1
173
1
174
1
140
1.0
141
1.0
175
1
  7

176
1
177
1
178
1
143
1.0
179
1
  8

270
1
271
1
272
1
145
1.0
146
1.0
273
1
  9

274
1
275
1
276
1
 42
1.0
 72
1
  3

 73
1
 74
1
 75
1
 94
63
  0
MATERIAL
  5
21
102
{ACAD_REACTORS
330
E
102
}
330
E
100
AcDbMaterial
  1
Global
  2

 70
0
 40
1.0
 71
1
 41
1.0
 91
-1023410177
 42
1.0
 72
1
  3

 73
1
 74
1
 75
1
 44
0.5
 73
0
 45
1.0
 46
1.0
 77
1
  4

 78
1
 79
1
170
1
 48
1.0
171
1
  6

172
1
173
1
174
1
140
1.0
141
1.0
175
1
  7

176
1
177
1
178
1
143
1.0
179
1
  8

270
1
271
1
272
1
145
1.0
146
1.0
273
1
  9

274
1
275
1
276
1
 42
1.0
 72
1
  3

 73
1
 74
1
 75
1
 94
63
  0
MLINESTYLE
  5
22
102
{ACAD_REACTORS
330
10
102
}
330
10
100
AcDbMlineStyle
  2
Standard
 70
0
  3

 62
256
 51
90.0
 52
90.0
 71
2
 49
0.5
 62
256
  6
BYLAYER
 49
-0.5
 62
256
  6
BYLAYER
  0
MLEADERSTYLE
  5
2C
102
{ACAD_REACTORS
330
F
102
}
330
F
100
AcDbMLeaderStyle
179
2
170
2
171
1
172
0
 90
2
 40
0.0
 41
0.0
173
1
 91
-1056964608
 92
-2
290
1
 42
2.0
291
1
 43
8.0
  3
Standard
 44
4.0
300

342
29
174
1
175
1
176
0
178
1
 93
-1056964608
 45
4.0
292
0
297
0
 46
4.0
 94
-1056964608
 47
1.0
 49
1.0
140
1.0
294
1
141
0.0
177
0
142
1.0
295
0
296
0
143
3.75
271
0
272
9
273
9
  0
DICTIONARY
  5
2D
330
A
100
AcDbDictionary
280
1
281
1
  3
CREATED_BY_EZDXF
350
2E
  3
WRITTEN_BY_EZDXF
350
32
  0
DICTIONARYVAR
  5
2E
330
2D
100
DictionaryVariables
280
0
  1
1.3.5 @ 2025-08-20T01:58:17.068398+00:00
  0
DICTIONARYVAR
  5
32
330
2D
100
DictionaryVariables
280
0
  1
1.3.5 @ 2025-08-20T01:58:17.084020+00:00
  0
ENDSEC
  0
EOF
