  0
SECTION
  2
HEADER
  9
$ACADVER
  1
AC1032
  9
$ACADMAINTVER
 90
4
  9
$DWGCODEPAGE
  3
ANSI_1252
  9
$LASTSAVEDBY
  1
ezdxf
  9
$REQUIREDVERSIONS
160
0
  9
$INSBASE
 10
0.0
 20
0.0
 30
0.0
  9
$EXTMIN
 10
1e+20
 20
1e+20
 30
1e+20
  9
$EXTMAX
 10
-1e+20
 20
-1e+20
 30
-1e+20
  9
$LIMMIN
 10
0.0
 20
0.0
  9
$LIMMAX
 10
420.0
 20
297.0
  9
$ORTHOMODE
 70
0
  9
$REGENMODE
 70
1
  9
$FILLMODE
 70
1
  9
$QTEXTMODE
 70
0
  9
$MIRRTEXT
 70
1
  9
$LTSCALE
 40
1.0
  9
$ATTMODE
 70
1
  9
$TEXTSIZE
 40
2.5
  9
$TRACEWID
 40
1.0
  9
$TEXTSTYLE
  7
Standard
  9
$CLAYER
  8
0
  9
$CELTYPE
  6
ByLayer
  9
$CECOLOR
 62
256
  9
$CELTSCALE
 40
1.0
  9
$DISPSILH
 70
0
  9
$DIMSCALE
 40
1.0
  9
$DIMASZ
 40
2.5
  9
$DIMEXO
 40
0.625
  9
$DIMDLI
 40
3.75
  9
$DIMRND
 40
0.0
  9
$DIMDLE
 40
0.0
  9
$DIMEXE
 40
1.25
  9
$DIMTP
 40
0.0
  9
$DIMTM
 40
0.0
  9
$DIMTXT
 40
2.5
  9
$DIMCEN
 40
2.5
  9
$DIMTSZ
 40
0.0
  9
$DIMTOL
 70
0
  9
$DIMLIM
 70
0
  9
$DIMTIH
 70
0
  9
$DIMTOH
 70
0
  9
$DIMSE1
 70
0
  9
$DIMSE2
 70
0
  9
$DIMTAD
 70
1
  9
$DIMZIN
 70
8
  9
$DIMBLK
  1

  9
$DIMASO
 70
1
  9
$DIMSHO
 70
1
  9
$DIMPOST
  1

  9
$DIMAPOST
  1

  9
$DIMALT
 70
0
  9
$DIMALTD
 70
3
  9
$DIMALTF
 40
0.03937007874
  9
$DIMLFAC
 40
1.0
  9
$DIMTOFL
 70
1
  9
$DIMTVP
 40
0.0
  9
$DIMTIX
 70
0
  9
$DIMSOXD
 70
0
  9
$DIMSAH
 70
0
  9
$DIMBLK1
  1

  9
$DIMBLK2
  1

  9
$DIMSTYLE
  2
ISO-25
  9
$DIMCLRD
 70
0
  9
$DIMCLRE
 70
0
  9
$DIMCLRT
 70
0
  9
$DIMTFAC
 40
1.0
  9
$DIMGAP
 40
0.625
  9
$DIMJUST
 70
0
  9
$DIMSD1
 70
0
  9
$DIMSD2
 70
0
  9
$DIMTOLJ
 70
0
  9
$DIMTZIN
 70
8
  9
$DIMALTZ
 70
0
  9
$DIMALTTZ
 70
0
  9
$DIMUPT
 70
0
  9
$DIMDEC
 70
2
  9
$DIMTDEC
 70
2
  9
$DIMALTU
 70
2
  9
$DIMALTTD
 70
3
  9
$DIMTXSTY
  7
Standard
  9
$DIMAUNIT
 70
0
  9
$DIMADEC
 70
0
  9
$DIMALTRND
 40
0.0
  9
$DIMAZIN
 70
0
  9
$DIMDSEP
 70
44
  9
$DIMATFIT
 70
3
  9
$DIMFRAC
 70
0
  9
$DIMLDRBLK
  1

  9
$DIMLUNIT
 70
2
  9
$DIMLWD
 70
-2
  9
$DIMLWE
 70
-2
  9
$DIMTMOVE
 70
0
  9
$DIMFXL
 40
1.0
  9
$DIMFXLON
 70
0
  9
$DIMJOGANG
 40
0.785398163397
  9
$DIMTFILL
 70
0
  9
$DIMTFILLCLR
 70
0
  9
$DIMARCSYM
 70
0
  9
$DIMLTYPE
  6

  9
$DIMLTEX1
  6

  9
$DIMLTEX2
  6

  9
$DIMTXTDIRECTION
 70
0
  9
$LUNITS
 70
2
  9
$LUPREC
 70
4
  9
$SKETCHINC
 40
1.0
  9
$FILLETRAD
 40
10.0
  9
$AUNITS
 70
0
  9
$AUPREC
 70
2
  9
$MENU
  1
.
  9
$ELEVATION
 40
0.0
  9
$PELEVATION
 40
0.0
  9
$THICKNESS
 40
0.0
  9
$LIMCHECK
 70
0
  9
$CHAMFERA
 40
0.0
  9
$CHAMFERB
 40
0.0
  9
$CHAMFERC
 40
0.0
  9
$CHAMFERD
 40
0.0
  9
$SKPOLY
 70
0
  9
$TDCREATE
 40
2460908.1242824076
  9
$TDUCREATE
 40
2458532.153996898
  9
$TDUPDATE
 40
2460908.1242824076
  9
$TDUUPDATE
 40
2458532.1544311
  9
$TDINDWG
 40
0.0
  9
$TDUSRTIMER
 40
0.0
  9
$USRTIMER
 70
1
  9
$ANGBASE
 50
0.0
  9
$ANGDIR
 70
0
  9
$PDMODE
 70
0
  9
$PDSIZE
 40
0.0
  9
$PLINEWID
 40
0.0
  9
$SPLFRAME
 70
0
  9
$SPLINETYPE
 70
6
  9
$SPLINESEGS
 70
8
  9
$HANDSEED
  5
33
  9
$SURFTAB1
 70
6
  9
$SURFTAB2
 70
6
  9
$SURFTYPE
 70
6
  9
$SURFU
 70
6
  9
$SURFV
 70
6
  9
$UCSBASE
  2

  9
$UCSNAME
  2

  9
$UCSORG
 10
0.0
 20
0.0
 30
0.0
  9
$UCSXDIR
 10
1.0
 20
0.0
 30
0.0
  9
$UCSYDIR
 10
0.0
 20
1.0
 30
0.0
  9
$UCSORTHOREF
  2

  9
$UCSORTHOVIEW
 70
0
  9
$UCSORGTOP
 10
0.0
 20
0.0
 30
0.0
  9
$UCSORGBOTTOM
 10
0.0
 20
0.0
 30
0.0
  9
$UCSORGLEFT
 10
0.0
 20
0.0
 30
0.0
  9
$UCSORGRIGHT
 10
0.0
 20
0.0
 30
0.0
  9
$UCSORGFRONT
 10
0.0
 20
0.0
 30
0.0
  9
$UCSORGBACK
 10
0.0
 20
0.0
 30
0.0
  9
$PUCSBASE
  2

  9
$PUCSNAME
  2

  9
$PUCSORG
 10
0.0
 20
0.0
 30
0.0
  9
$PUCSXDIR
 10
1.0
 20
0.0
 30
0.0
  9
$PUCSYDIR
 10
0.0
 20
1.0
 30
0.0
  9
$PUCSORTHOREF
  2

  9
$PUCSORTHOVIEW
 70
0
  9
$PUCSORGTOP
 10
0.0
 20
0.0
 30
0.0
  9
$PUCSORGBOTTOM
 10
0.0
 20
0.0
 30
0.0
  9
$PUCSORGLEFT
 10
0.0
 20
0.0
 30
0.0
  9
$PUCSORGRIGHT
 10
0.0
 20
0.0
 30
0.0
  9
$PUCSORGFRONT
 10
0.0
 20
0.0
 30
0.0
  9
$PUCSORGBACK
 10
0.0
 20
0.0
 30
0.0
  9
$USERI1
 70
0
  9
$USERI2
 70
0
  9
$USERI3
 70
0
  9
$USERI4
 70
0
  9
$USERI5
 70
0
  9
$USERR1
 40
0.0
  9
$USERR2
 40
0.0
  9
$USERR3
 40
0.0
  9
$USERR4
 40
0.0
  9
$USERR5
 40
0.0
  9
$WORLDVIEW
 70
1
  9
$SHADEDGE
 70
3
  9
$SHADEDIF
 70
70
  9
$TILEMODE
 70
1
  9
$MAXACTVP
 70
64
  9
$PINSBASE
 10
0.0
 20
0.0
 30
0.0
  9
$PLIMCHECK
 70
0
  9
$PEXTMIN
 10
1e+20
 20
1e+20
 30
1e+20
  9
$PEXTMAX
 10
-1e+20
 20
-1e+20
 30
-1e+20
  9
$PLIMMIN
 10
0.0
 20
0.0
  9
$PLIMMAX
 10
420.0
 20
297.0
  9
$UNITMODE
 70
0
  9
$VISRETAIN
 70
1
  9
$PLINEGEN
 70
0
  9
$PSLTSCALE
 70
1
  9
$TREEDEPTH
 70
3020
  9
$CMLSTYLE
  2
Standard
  9
$CMLJUST
 70
0
  9
$CMLSCALE
 40
20.0
  9
$PROXYGRAPHICS
 70
1
  9
$MEASUREMENT
 70
1
  9
$CELWEIGHT
370
-1
  9
$ENDCAPS
280
0
  9
$JOINSTYLE
280
0
  9
$LWDISPLAY
290
0
  9
$INSUNITS
 70
6
  9
$HYPERLINKBASE
  1

  9
$STYLESHEET
  1

  9
$XEDIT
290
1
  9
$CEPSNTYPE
380
0
  9
$PSTYLEMODE
290
1
  9
$FINGERPRINTGUID
  2
{A61AD817-41E0-4E72-9CBB-AF232AAEA0B9}
  9
$VERSIONGUID
  2
{D42CEAD7-3A09-4241-8CD1-99E7DD9F1579}
  9
$EXTNAMES
290
1
  9
$PSVPSCALE
 40
0.0
  9
$OLESTARTUP
290
0
  9
$SORTENTS
280
127
  9
$INDEXCTL
280
0
  9
$HIDETEXT
280
1
  9
$XCLIPFRAME
280
1
  9
$HALOGAP
280
0
  9
$OBSCOLOR
 70
257
  9
$OBSLTYPE
280
0
  9
$INTERSECTIONDISPLAY
280
0
  9
$INTERSECTIONCOLOR
 70
257
  9
$DIMASSOC
280
2
  9
$PROJECTNAME
  1

  9
$CAMERADISPLAY
290
0
  9
$LENSLENGTH
 40
50.0
  9
$CAMERAHEIGHT
 40
0.0
  9
$STEPSPERSEC
 40
24.0
  9
$STEPSIZE
 40
100.0
  9
$3DDWFPREC
 40
2.0
  9
$PSOLWIDTH
 40
0.005
  9
$PSOLHEIGHT
 40
0.08
  9
$LOFTANG1
 40
1.570796326795
  9
$LOFTANG2
 40
1.570796326795
  9
$LOFTMAG1
 40
0.0
  9
$LOFTMAG2
 40
0.0
  9
$LOFTPARAM
 70
7
  9
$LOFTNORMALS
280
1
  9
$LATITUDE
 40
37.795
  9
$LONGITUDE
 40
-122.394
  9
$NORTHDIRECTION
 40
0.0
  9
$TIMEZONE
 70
-8000
  9
$LIGHTGLYPHDISPLAY
280
1
  9
$TILEMODELIGHTSYNCH
280
1
  9
$CMATERIAL
347
20
  9
$SOLIDHIST
280
0
  9
$SHOWHIST
280
1
  9
$DWFFRAME
280
2
  9
$DGNFRAME
280
2
  9
$REALWORLDSCALE
290
1
  9
$INTERFERECOLOR
 62
256
  9
$CSHADOW
280
0
  9
$SHADOWPLANELOCATION
 40
0.0
  0
ENDSEC
  0
SECTION
  2
CLASSES
  0
CLASS
  1
ACDBDICTIONARYWDFLT
  2
AcDbDictionaryWithDefault
  3
ObjectDBX Classes
 90
0
 91
0
280
0
281
0
  0
CLASS
  1
SUN
  2
AcDbSun
  3
SCENEOE
 90
1153
 91
0
280
0
281
0
  0
CLASS
  1
VISUALSTYLE
  2
AcDbVisualStyle
  3
ObjectDBX Classes
 90
4095
 91
0
280
0
281
0
  0
CLASS
  1
MATERIAL
  2
AcDbMaterial
  3
ObjectDBX Classes
 90
1153
 91
0
280
0
281
0
  0
CLASS
  1
SCALE
  2
AcDbScale
  3
ObjectDBX Classes
 90
1153
 91
0
280
0
281
0
  0
CLASS
  1
TABLESTYLE
  2
AcDbTableStyle
  3
ObjectDBX Classes
 90
4095
 91
0
280
0
281
0
  0
CLASS
  1
MLEADERSTYLE
  2
AcDbMLeaderStyle
  3
ACDB_MLEADERSTYLE_CLASS
 90
4095
 91
0
280
0
281
0
  0
CLASS
  1
DICTIONARYVAR
  2
AcDbDictionaryVar
  3
ObjectDBX Classes
 90
0
 91
0
280
0
281
0
  0
CLASS
  1
CELLSTYLEMAP
  2
AcDbCellStyleMap
  3
ObjectDBX Classes
 90
1152
 91
0
280
0
281
0
  0
CLASS
  1
MENTALRAYRENDERSETTINGS
  2
AcDbMentalRayRenderSettings
  3
SCENEOE
 90
1024
 91
0
280
0
281
0
  0
CLASS
  1
ACDBDETAILVIEWSTYLE
  2
AcDbDetailViewStyle
  3
ObjectDBX Classes
 90
1025
 91
0
280
0
281
0
  0
CLASS
  1
ACDBSECTIONVIEWSTYLE
  2
AcDbSectionViewStyle
  3
ObjectDBX Classes
 90
1025
 91
0
280
0
281
0
  0
CLASS
  1
RASTERVARIABLES
  2
AcDbRasterVariables
  3
ISM
 90
0
 91
0
280
0
281
0
  0
CLASS
  1
ACDBPLACEHOLDER
  2
AcDbPlaceHolder
  3
ObjectDBX Classes
 90
0
 91
0
280
0
281
0
  0
CLASS
  1
LAYOUT
  2
AcDbLayout
  3
ObjectDBX Classes
 90
0
 91
0
280
0
281
0
  0
ENDSEC
  0
SECTION
  2
TABLES
  0
TABLE
  2
VPORT
  5
8
330
0
100
AcDbSymbolTable
 70
1
  0
VPORT
  5
23
330
8
100
AcDbSymbolTableRecord
100
AcDbViewportTableRecord
  2
*Active
 70
0
 10
0.0
 20
0.0
 11
1.0
 21
1.0
 12
0.0
 22
0.0
 13
0.0
 23
0.0
 14
0.5
 24
0.5
 15
0.5
 25
0.5
 16
0.0
 26
0.0
 36
1.0
 17
0.0
 27
0.0
 37
0.0
 40
1000.0
 41
1.34
 42
50.0
 43
0.0
 44
0.0
 50
0.0
 51
0.0
 71
0
 72
1000
 73
1
 74
3
 75
0
 76
0
 77
0
 78
0
281
0
 65
0
146
0.0
  0
ENDTAB
  0
TABLE
  2
LTYPE
  5
2
330
0
100
AcDbSymbolTable
 70
3
  0
LTYPE
  5
24
330
2
100
AcDbSymbolTableRecord
100
AcDbLinetypeTableRecord
  2
ByBlock
 70
0
  3

 72
65
 73
0
 40
0.0
  0
LTYPE
  5
25
330
2
100
AcDbSymbolTableRecord
100
AcDbLinetypeTableRecord
  2
ByLayer
 70
0
  3

 72
65
 73
0
 40
0.0
  0
LTYPE
  5
26
330
2
100
AcDbSymbolTableRecord
100
AcDbLinetypeTableRecord
  2
Continuous
 70
0
  3

 72
65
 73
0
 40
0.0
  0
ENDTAB
  0
TABLE
  2
LAYER
  5
1
330
0
100
AcDbSymbolTable
 70
2
  0
LAYER
  5
27
330
1
100
AcDbSymbolTableRecord
100
AcDbLayerTableRecord
  2
0
 70
0
 62
7
  6
Continuous
370
-3
390
13
347
21
  0
LAYER
  5
28
330
1
100
AcDbSymbolTableRecord
100
AcDbLayerTableRecord
  2
Defpoints
 70
0
 62
7
  6
Continuous
290
0
370
-3
390
13
347
21
  0
ENDTAB
  0
TABLE
  2
STYLE
  5
5
330
0
100
AcDbSymbolTable
 70
1
  0
STYLE
  5
29
330
5
100
AcDbSymbolTableRecord
100
AcDbTextStyleTableRecord
  2
Standard
 70
0
 40
0.0
 41
1.0
 50
0.0
 71
0
 42
2.5
  3
txt
  4

  0
ENDTAB
  0
TABLE
  2
VIEW
  5
7
330
0
100
AcDbSymbolTable
 70
0
  0
ENDTAB
  0
TABLE
  2
UCS
  5
6
330
0
100
AcDbSymbolTable
 70
0
  0
ENDTAB
  0
TABLE
  2
APPID
  5
3
330
0
100
AcDbSymbolTable
 70
3
  0
APPID
  5
2A
330
3
100
AcDbSymbolTableRecord
100
AcDbRegAppTableRecord
  2
ACAD
 70
0
  0
APPID
  5
30
330
3
100
AcDbSymbolTableRecord
100
AcDbRegAppTableRecord
  2
HATCHBACKGROUNDCOLOR
 70
0
  0
APPID
  5
31
330
3
100
AcDbSymbolTableRecord
100
AcDbRegAppTableRecord
  2
EZDXF
 70
0
  0
ENDTAB
  0
TABLE
  2
DIMSTYLE
  5
4
330
0
100
AcDbSymbolTable
 70
1
100
AcDbDimStyleTable
  0
DIMSTYLE
105
2B
330
4
100
AcDbSymbolTableRecord
100
AcDbDimStyleTableRecord
  2
Standard
 70
0
 40
1.0
 41
2.5
 42
0.625
 43
3.75
 44
1.25
 45
0.0
 46
0.0
 47
0.0
 48
0.0
 49
2.5
140
2.5
141
2.5
142
0.0
143
0.03937007874
144
1.0
145
0.0
146
1.0
147
0.625
148
0.0
 69
0
 70
0
 71
0
 72
0
 73
0
 74
0
 75
0
 76
0
 77
1
 78
8
 79
3
170
0
171
3
172
1
173
0
174
0
175
0
176
0
177
0
178
0
179
2
271
2
272
2
273
2
274
3
275
0
276
0
277
2
278
44
279
0
280
0
281
0
282
0
283
0
284
8
285
0
286
0
288
0
289
3
290
0
371
-2
372
-2
  0
ENDTAB
  0
TABLE
  2
BLOCK_RECORD
  5
9
330
0
100
AcDbSymbolTable
 70
2
  0
BLOCK_RECORD
  5
17
330
9
100
AcDbSymbolTableRecord
100
AcDbBlockTableRecord
  2
*Model_Space
340
1A
 70
0
280
1
281
0
  0
BLOCK_RECORD
  5
1B
330
9
100
AcDbSymbolTableRecord
100
AcDbBlockTableRecord
  2
*Paper_Space
340
1E
 70
0
280
1
281
0
  0
ENDTAB
  0
ENDSEC
  0
SECTION
  2
BLOCKS
  0
BLOCK
  5
18
330
17
100
AcDbEntity
  8
0
100
AcDbBlockBegin
  2
*Model_Space
 70
0
 10
0.0
 20
0.0
 30
0.0
  3
*Model_Space
  1

  0
ENDBLK
  5
19
330
17
100
AcDbEntity
  8
0
100
AcDbBlockEnd
  0
BLOCK
  5
1C
330
1B
100
AcDbEntity
  8
0
100
AcDbBlockBegin
  2
*Paper_Space
 70
0
 10
0.0
 20
0.0
 30
0.0
  3
*Paper_Space
  1

  0
ENDBLK
  5
1D
330
1B
100
AcDbEntity
  8
0
100
AcDbBlockEnd
  0
ENDSEC
  0
SECTION
  2
ENTITIES
  0
LWPOLYLINE
  5
2F
330
17
100
AcDbEntity
  8
0
100
AcDbPolyline
 90
721
 70
1
 10
28.86933947764653
 20
0.24939857735888002
 10
28.868519160940647
 20
0.24968784619722587
 10
28.866058686463326
 20
0.25046938791598555
 10
28.861959003832208
 20
0.2515709745477648
 10
28.85617655166184
 20
0.2530779869666167
 10
28.848798215853265
 20
0.25486262346533906
 10
28.839780672366043
 20
0.25696721869846334
 10
28.82908107137462
 20
0.25934810106009637
 10
28.81678558698256
 20
0.2620065644122909
 10
28.8028513693643
 20
0.2648989371491536
 10
28.78723485642165
 20
0.26811072941266395
 10
28.770022697423386
 20
0.27155705644721456
 10
28.751171804723754
 20
0.2752373790450511
 10
28.730681940740162
 20
0.2791947865150035
 10
28.70855358063779
 20
0.28334310023941167
 10
28.6847862487763
 20
0.28776858501455355
 10
28.659423269908856
 20
0.29242877691797087
 10
28.632421556389716
 20
0.29732313674190947
 10
28.603780870636285
 20
0.30249475379519924
 10
28.573544774509173
 20
0.30785816102516994
 10
28.541669705435027
 20
0.3134989547524183
 10
28.508156138341445
 20
0.31933099944859306
 10
28.473089771929246
 20
0.32544181068271616
 10
28.436341582269268
 20
0.3317864229868414
 10
28.398040830160515
 20
0.33836684178801124
 10
28.358101341261836
 20
0.34518181631348177
 10
28.316566202031048
 20
0.3522321012175515
 10
28.273435412230565
 20
0.35951773958952915
 10
28.228708734040236
 20
0.36708186382755376
 10
28.182386166747296
 20
0.3749246031995519
 10
28.134468185279346
 20
0.3829598221771719
 10
28.084954314233627
 20
0.391273742467383
 10
28.033887877412987
 20
0.3998240725049625
 10
27.981225550064238
 20
0.40865327621236835
 10
27.926967806402242
 20
0.41767534732917566
 10
27.871157258432397
 20
0.4269770898594167
 10
27.81379366785937
 20
0.43660172237984823
 10
27.754877746955767
 20
0.4464200631425972
 10
27.694365932673065
 20
0.45651779464687864
 10
27.632344636697457
 20
0.4668531214459151
 10
27.568727446392423
 20
0.47746801134371936
 10
27.503600535623963
 20
0.48836380129165297
 10
27.436920816508774
 20
0.4995399951712704
 10
27.36873137574224
 20
0.5109973045475614
 10
27.29898936302364
 20
0.5226921439932504
 10
27.22773786504839
 20
0.5346252250733267
 10
27.154933318767963
 20
0.5468822302870053
 10
27.08066213563098
 20
0.5594214072768179
 10
27.00488122775408
 20
0.5722422599243187
 10
26.927590594662128
 20
0.5853448744081255
 10
26.84879023516718
 20
0.5987294661747824
 10
26.76852299885726
 20
0.6124397499194916
 10
26.686746034956435
 20
0.6264322263935952
 10
26.603502192815128
 20
0.6407506533816039
 10
26.51879170882802
 20
0.655352157021232
 10
26.43261505792271
 20
0.6701506017841278
 10
26.345014851154275
 20
0.685232964031559
 10
26.255947525711782
 20
0.7006848831734316
 10
26.165413080407294
 20
0.7165065746562896
 10
26.073455314921613
 20
0.7325694390293237
 10
25.980073990721817
 20
0.7489167379585991
 10
25.885269107332736
 20
0.7655485576227334
 10
25.78903995081867
 20
0.7825943813947616
 10
25.691387708379853
 20
0.7998388919984591
 10
25.59235499154651
 20
0.8173689796164758
 10
25.4919415620233
 20
0.8352278628255685
 10
25.390104094106714
 20
0.8534581779054308
 10
25.286928999007777
 20
0.8720182155879028
 10
25.182373426188153
 20
0.8908644335350178
 10
25.076437375172684
 20
0.9099969179253933
 10
24.969163457016453
 20
0.9295026451202972
 10
24.860552621099473
 20
0.949209430241644
 10
24.750561304610823
 20
0.9692029126993398
 10
24.639275443358752
 20
0.9895276049321938
 10
24.526695036630517
 20
1.0101836362081331
 10
24.412777471707958
 20
1.0310843317910507
 10
24.297522509820585
 20
1.0522729964363224
 10
24.181016324834392
 20
1.0737509670953092
 10
24.06321535346327
 20
1.0956039693565345
 10
23.944120307742278
 20
1.117702864561434
 10
23.82377427412923
 20
1.1400484073643071
 10
23.702177251911387
 20
1.1626407270330799
 10
23.579328764735646
 20
1.1855662176319568
 10
23.455228811889263
 20
1.2088250084288643
 10
23.329877630242088
 20
1.2323741393828986
 10
23.203361631242714
 20
1.256171858136592
 10
23.075594401541874
 20
1.2802602617618821
 10
22.946619027835002
 20
1.30464006182376
 10
22.8164793095653
 20
1.3291827019607245
 10
22.685131920554067
 20
1.3539309046310863
 10
22.55261923474898
 20
1.3790146493263262
 10
22.41898433884544
 20
1.4044346476114329
 10
22.28414153200439
 20
1.430103771721165
 10
22.14817770131478
 20
1.4558940045017759
 10
22.011091895495912
 20
1.4819778755458206
 10
21.872884351417618
 20
1.508312424812396
 10
21.733554830546982
 20
1.5349409139675676
 10
21.59314689450703
 20
1.5617779190479737
 10
21.451660542822605
 20
1.5888235262322319
 10
21.30905268689761
 20
1.6160773686698229
 10
21.165409263253036
 20
1.6435838295316298
 10
21.020687183767997
 20
1.6713424557885164
 10
20.874930010303075
 20
1.6992677803878113
 10
20.728137741907947
 20
1.7273599756867506
 10
20.58035346551561
 20
1.7556197101610143
 10
20.431533854947407
 20
1.7840897062689145
 10
20.28172152197114
 20
1.8128568111037915
 10
20.130874090500924
 20
1.841791432977945
 10
19.97912058565386
 20
1.8709383219127769
 10
19.82637578151845
 20
1.9001242146146935
 10
19.67263943932421
 20
1.9293924158390685
 10
19.517997021139696
 20
1.9588733581065196
 10
19.362448288431988
 20
1.9886103030831113
 10
19.20590777794461
 20
2.0184730336947716
 10
19.048548314950587
 20
2.048377614333475
 10
18.890240873144933
 20
2.0782795104243634
 10
18.73107091412103
 20
2.108309240666672
 10
18.570995111937794
 20
2.138509484429403
 10
18.41009987899417
 20
2.168838316997851
 10
18.248342839679413
 20
2.1991660605057004
 10
18.085766605761354
 20
2.2295795620462897
 10
17.92237070112448
 20
2.2601651725945167
 10
17.758156313206577
 20
2.290707531784846
 10
17.59312367887749
 20
2.321163679576377
 10
17.427357785040616
 20
2.3517502271073836
 10
17.260772693036696
 20
2.382423179010764
 10
17.093454340099473
 20
2.4132267891894745
 10
16.925404151249353
 20
2.4439026079691524
 10
16.756621888190978
 20
2.4744938539265533
 10
16.587107075284006
 20
2.505086791857955
 10
16.416858998592748
 20
2.535810905136393
 10
16.245964784214237
 20
2.5664948287634384
 10
16.07433920552427
 20
2.5969654287134216
 10
15.902110813425065
 20
2.627353461268171
 10
15.729192243049091
 20
2.6578735961814903
 10
15.555627532610036
 20
2.6883539723365044
 10
15.38141763125036
 20
2.7186224479444365
 10
15.206648239809137
 20
2.748766150770529
 10
15.03123294374919
 20
2.778827393333266
 10
14.85525768101701
 20
2.8088503002676775
 10
14.678679600599107
 20
2.838791415414413
 10
14.501542265306421
 20
2.8685650993635687
 10
14.323888762784705
 20
2.8981718913228964
 10
14.145676004200288
 20
2.9276114675311873
 10
13.966990165557432
 20
2.956884777136024
 10
13.78774506990154
 20
2.9859910433470587
 10
13.60802641759653
 20
3.0150174801081517
 10
13.427834446462565
 20
3.0439209550211643
 10
13.247170343462287
 20
3.072486193899182
 10
13.066033632955335
 20
3.100799461538481
 10
12.884510253600956
 20
3.128904753306166
 10
12.702513790861977
 20
3.156844381720719
 10
12.520130895907833
 20
3.1845331173120637
 10
12.337361806083537
 20
3.2119279138606776
 10
12.154206758734093
 20
3.238985725147039
 10
11.970665277743992
 20
3.2657929021460452
 10
11.78678021412672
 20
3.2923929010170436
 10
11.602551567169524
 20
3.3187858510279615
 10
11.418023137741107
 20
3.344842937281445
 10
11.23315207482798
 20
3.370520703618145
 10
11.047981703896069
 20
3.395776556847677
 10
10.86255440055609
 20
3.420740174836359
 10
10.676826363226603
 20
3.445540501749472
 10
10.490884243789797
 20
3.47009217884901
 10
10.304686854310324
 20
3.4940501248138145
 10
10.118232768579887
 20
3.517673004764791
 10
9.931607926445638
 20
3.5410045986225005
 10
9.744769713763933
 20
3.5639584901866894
 10
9.557718368354942
 20
3.5864915470592185
 10
9.370539353950313
 20
3.6087339001355434
 10
9.183189820011714
 20
3.6306420070776966
 10
8.995713567170258
 20
3.6520870960776337
 10
8.808067506829868
 20
3.673068800284835
 10
8.620337578837692
 20
3.6936308996198615
 10
8.432523545135977
 20
3.7138165695701595
 10
8.244626118710084
 20
3.73349649911993
 10
8.056645061502246
 20
3.752713863756621
 10
7.868623224763553
 20
3.771512076550272
 10
7.680516807150127
 20
3.7900200385768565
 10
7.492413411349699
 20
3.8079799476844296
 10
7.304313037362262
 20
3.8253918038729915
 10
7.116215447842809
 20
3.8422986533620653
 10
6.928120404733586
 20
3.858743671639097
 10
6.7400712349260115
 20
3.8746840069778496
 10
6.5520246120038275
 20
3.8901624249259426
 10
6.364066950979378
 20
3.905136526786276
 10
6.176198727255424
 20
3.91952009085188
 10
5.9884197032493836
 20
3.933356206431584
 10
5.800729641616234
 20
3.946687919744911
 10
5.6131287799385765
 20
3.9594721414830305
 10
5.425703771524087
 20
3.971623254372084
 10
5.2384110521363345
 20
3.983227156357831
 10
5.051293235918968
 20
3.994370263640524
 10
4.864308421951276
 20
4.004836805914803
 10
4.677542312972994
 20
4.014713566231438
 10
4.490994196949087
 20
4.024129683248996
 10
4.3046216973185105
 20
4.032955651458391
 10
4.118511467864103
 20
4.0411057674071476
 10
3.9326630336582604
 20
4.04866616662362
 10
3.747033780794924
 20
4.0555503898182454
 10
3.561709412726566
 20
4.061845090773868
 10
3.376647315784712
 20
4.06746376711162
 10
3.1919334307668428
 20
4.072450026394821
 10
3.007480867257853
 20
4.076932489027545
 10
2.823376279040585
 20
4.080825451557316
 10
2.6396206164454106
 20
4.083956556748812
 10
2.4562136426024876
 20
4.086368764642938
 10
2.2731977338352807
 20
4.088191623838085
 10
2.0905731286767195
 20
4.089381872668187
 10
1.9083400649469726
 20
4.089896378735108
 10
1.7265416321924567
 20
4.0897353365321285
 10
1.5451342661767349
 20
4.088984644005008
 10
1.3641605819937872
 20
4.087730544996765
 10
1.1836646192828135
 20
4.085800919854671
 10
1.0036468536841658
 20
4.083109503782449
 10
0.8241068107453979
 20
4.07974234612983
 10
0.6450873640503578
 20
4.075738809571827
 10
0.4665454627785853
 20
4.071091676057816
 10
0.28852395936907227
 20
4.065844143211294
 10
0.11106570554805056
 20
4.060039537923681
 10
-0.06587143766293238
 20
4.053505265377067
 10
-0.24224438095505038
 20
4.0462415631540445
 10
-0.41801122293243825
 20
4.038464115381354
 10
-0.5932145777387371
 20
4.030086505858744
 10
-0.7677680291736968
 20
4.021066120442571
 10
-0.9417577558549767
 20
4.0114024839676485
 10
-1.1150975791649156
 20
4.001096071599163
 10
-1.2877448849598694
 20
3.9902332995373637
 10
-1.4597860894400911
 20
3.978856781925899
 10
-1.631176915383787
 20
3.9667513098032092
 10
-1.8018326096688548
 20
3.9541758941874607
 10
-1.9717967367693041
 20
3.941216476113722
 10
-2.141110960498414
 20
3.9276142821464193
 10
-2.309646012929694
 20
3.9133700250333305
 10
-2.477445696119752
 20
3.898612735118352
 10
-2.6445102476511795
 20
3.8833855017103147
 10
-2.810839192358789
 20
3.867602146191559
 10
-2.976346589207517
 20
3.8513062330360994
 10
-3.1411186168150205
 20
3.8344972870787513
 10
-3.305069809311422
 20
3.8173050514111897
 10
-3.468199691531531
 20
3.799643347415754
 10
-3.630508025892756
 20
3.781469085783615
 10
-3.7919950499776904
 20
3.7628253558236033
 10
-3.9526181496426913
 20
3.7437985737359694
 10
-4.112420414196584
 20
3.7243885019381233
 10
-4.271315189856527
 20
3.704509436977588
 10
-4.429302476622518
 20
3.6841613788543652
 10
-4.586425126220797
 20
3.663301000677031
 10
-4.742640286925124
 20
3.6419716293370072
 10
-4.897948671483278
 20
3.6203025327607863
 10
-5.052307428169021
 20
3.5983370378397894
 10
-5.2057156066519825
 20
3.5759027873386975
 10
-5.358216296240992
 20
3.5529995436749164
 10
-5.509679991426971
 20
3.5295849302873945
 10
-5.660193583575352
 20
3.505787739937437
 10
-5.809757310268729
 20
3.4816510619338734
 10
-5.958284992889443
 20
3.4571753714418905
 10
-6.1057763938548995
 20
3.432317579152657
 10
-6.252273889726153
 20
3.4069481795570886
 10
-6.397735341524742
 20
3.3812397674731005
 10
-6.542161461998447
 20
3.355321610827182
 10
-6.685507973925471
 20
3.3289785006577763
 10
-6.827817966614646
 20
3.3022101993822885
 10
-6.969005736613497
 20
3.2751033607835667
 10
-7.109114373230855
 20
3.2476577472790162
 10
-7.248144114049311
 20
3.219916448177468
 10
-7.3860511570122585
 20
3.191750433135024
 10
-7.522835977284881
 20
3.163245880769345
 10
-7.6584985748671786
 20
3.1344027910804306
 10
-7.793039900089523
 20
3.1053935213036006
 10
-7.926373536751661
 20
3.0761754572952116
 10
-8.058584950723475
 20
3.0466188559635867
 10
-8.189630577530949
 20
3.016637776273659
 10
-8.319468278195627
 20
2.986404813043342
 10
-8.448141617191515
 20
2.9560059073077016
 10
-8.57560655487942
 20
2.9252689394140106
 10
-8.701820477115698
 20
2.8942803255625225
 10
-8.8268698001006
 20
2.8630826798968827
 10
-8.950668345216462
 20
2.8316764775822754
 10
-9.07321539971551
 20
2.799932450692209
 10
-9.194511676345524
 20
2.767979867153177
 10
-9.31455741268909
 20
2.7358618162740065
 10
-9.43335237116362
 20
2.703535208745869
 10
-9.550853462460282
 20
2.6710002821513577
 10
-9.667060448996487
 20
2.6382139471816393
 10
-9.782016657663654
 20
2.605219055562956
 10
-9.895635909844124
 20
2.5720160824604887
 10
-10.00791868070308
 20
2.5386912064919
 10
-10.118950673692998
 20
2.505157773874344
 10
-10.228602620887392
 20
2.471416497355598
 10
-10.336917374012495
 20
2.43742405004424
 10
-10.443895883398676
 20
2.4033527891755897
 10
-10.549538149045942
 20
2.369202714749648
 10
-10.65380060648027
 20
2.334887885731346
 10
-10.756683018119071
 20
2.3003652128118555
 10
-10.858228235688584
 20
2.2655913690997513
 10
-10.958351268484106
 20
2.230782276304371
 10
-11.057094968231883
 20
2.1958946075342913
 10
-11.154458859766724
 20
2.1608421841718517
 10
-11.250399853779797
 20
2.1256252437996457
 10
-11.34491842543629
 20
2.0903299650353326
 10
-11.438014099571019
 20
2.0548701692612523
 10
-11.529687113766578
 20
2.0192889457862355
 10
-11.619937705605553
 20
1.9836293839191115
 10
-11.708722310613934
 20
1.947805542624813
 10
-11.796041641539501
 20
1.9119466898298305
 10
-11.881937837360708
 20
1.8758802307162508
 10
-11.966368759099094
 20
1.8397787601019866
 10
-12.049334169172074
 20
1.8035991886782086
 10
-12.13083382999705
 20
1.767298427136086
 10
-12.210824652265194
 20
1.730876713058212
 10
-12.289349962867925
 20
1.6943768981708232
 10
-12.3663673852442
 20
1.6579284879830034
 10
-12.44187644422882
 20
1.6214453038770922
 10
-12.515877139821795
 20
1.5849273458530888
 10
-12.588412798914545
 20
1.548417465637232
 10
-12.659397005306818
 20
1.511873049085876
 10
-12.728873323472628
 20
1.475380037234089
 10
-12.796799139268328
 20
1.4390248462821231
 10
-12.863217542002754
 20
1.4028072386473867
 10
-12.928084967201885
 20
1.3666412732948112
 10
-12.991444741757146
 20
1.3305698019506345
 10
-13.053210687050875
 20
1.2945932997800422
 10
-13.113469456865921
 20
1.258797470235509
 10
-13.172135110167215
 20
1.22322587779105
 10
-13.2292502610984
 20
1.1877921062464125
 10
-13.28481490965948
 20
1.1524961556015965
 10
-13.338829055850448
 20
1.1173380258566021
 10
-13.391250085527663
 20
1.0824041332116823
 10
-13.442077998691127
 20
1.0476944776668367
 10
-13.49135517190189
 20
1.0130795537129829
 10
-13.5390392285989
 20
0.9786888668592031
 10
-13.58512921845179
 20
0.9443500598701772
 10
-13.629626091790925
 20
0.9102354899812257
 10
-13.672528898285936
 20
0.876172799957028
 10
-13.71383811310201
 20
0.8422481684152445
 10
-13.753553736239146
 20
0.8084615953558748
 10
-13.791632440805923
 20
0.7747702290526818
 10
-13.828160880585184
 20
0.7412597729581404
 10
-13.86300907490266
 20
0.707801671893538
 10
-13.896306766850028
 20
0.674481391728757
 10
-13.927967540227035
 20
0.6412563183201525
 10
-13.957992107781461
 20
0.6082557195942151
 10
-13.986423083656952
 20
0.5753931793506916
 10
-14.013217616127262
 20
0.5427120244810049
 10
-14.03837665552277
 20
0.5103846122204756
 10
-14.061942578404523
 20
0.47828143706002063
 10
-14.08387277062888
 20
0.44648891519989303
 10
-14.104167707361022
 20
0.4150932252577527
 10
-14.122828338931322
 20
0.3842667244689207
 10
-14.13985466533978
 20
0.35400941283339665
 10
-14.15529025106041
 20
0.3244072313862486
 10
-14.169050105388514
 20
0.2956761018368122
 10
-14.181178267963295
 20
0.26798814383781555
 10
-14.191720203919505
 20
0.2417740128949676
 10
-14.200591397717636
 20
0.2173358093352644
 10
-14.207838739987992
 20
0.1953627245173959
 10
-14.21350912136089
 20
0.1765439498000519
 10
-14.217522065200882
 20
0.1619141037603411
 10
-14.219926600381624
 20
0.15255018153642452
 10
-14.219226906900532
 20
-0.12283810526631403
 10
-14.218396093320539
 20
-0.12503114594739353
 10
-14.215903890163155
 20
-0.13156717868180184
 10
-14.211751247758752
 20
-0.14227384623421843
 10
-14.205891037894423
 20
-0.1578834292721633
 10
-14.198404449953387
 20
-0.17930127844625457
 10
-14.189260748921624
 20
-0.204286512114732
 10
-14.178424210550673
 20
-0.23150312412126844
 10
-14.165984102031903
 20
-0.2603914286162571
 10
-14.15190232329092
 20
-0.2900463125316722
 10
-14.136137923262226
 20
-0.3200797345054499
 10
-14.118778268476445
 20
-0.35027672315862457
 10
-14.099781219955123
 20
-0.38046468367328307
 10
-14.079147728028623
 20
-0.41047125881410484
 10
-14.056878267862134
 20
-0.44021026996342955
 10
-14.032972839455653
 20
-0.46968171712125717
 10
-14.007474769700602
 20
-0.49884274856135
 10
-13.980341444453344
 20
-0.5276069480834554
 10
-13.951572626131274
 20
-0.5560174049964035
 10
-13.921211641625824
 20
-0.5840312675739565
 10
-13.889214926462978
 20
-0.6117344768511823
 10
-13.855582718225326
 20
-0.6390839435192507
 10
-13.820401670695714
 20
-0.6659939641256867
 10
-13.783541803199872
 20
-0.6925930938492028
 10
-13.745132621246885
 20
-0.7188389561287465
 10
-13.705087708636503
 20
-0.744774165107963
 10
-13.663450392260144
 20
-0.7703558690606148
 10
-13.6202209097004
 20
-0.7955409786778717
 10
-13.575398548209499
 20
-0.8204587618862238
 10
-13.52898378295262
 20
-0.8450230400680112
 10
-13.480975663599397
 20
-0.8694061704585545
 10
-13.431374902897607
 20
-0.8934788851313629
 10
-13.380224114990893
 20
-0.9173276002866895
 10
-13.327480210570428
 20
-0.9409520783419416
 10
-13.273142714471025
 20
-0.9644384979147798
 10
-13.217254953584103
 20
-0.987744007278966
 10
-13.159816690327077
 20
-1.0109116957433313
 10
-13.10082792469994
 20
-1.0339415633078743
 10
-13.04024485464609
 20
-1.056962640316494
 10
-12.978153896365777
 20
-1.0799323126255451
 10
-12.914469108823935
 20
-1.102807015761012
 10
-12.849276670638222
 20
-1.1255872248880803
 10
-12.78253301733462
 20
-1.148358881041817
 10
-12.714281238221968
 20
-1.1711222218048156
 10
-12.644478481574021
 20
-1.1938339202856525
 10
-12.573168311864796
 20
-1.2164080354492608
 10
-12.500307402202871
 20
-1.2388874190218775
 10
-12.425981693623312
 20
-1.2613156354775177
 10
-12.350148096817295
 20
-1.2836924472335896
 10
-12.272806611784809
 20
-1.3060178542900927
 10
-12.193957951273642
 20
-1.3281625887205364
 10
-12.113645204592618
 20
-1.3501268881075137
 10
-12.03182528243291
 20
-1.3719105148684319
 10
-11.948540798938163
 20
-1.393599885203543
 10
-11.863791754108375
 20
-1.4151949991128485
 10
-11.777579098273918
 20
-1.436523499361027
 10
-11.689945445578434
 20
-1.4576718021483313
 10
-11.600847944295689
 20
-1.4785965805833383
 10
-11.51028635684309
 20
-1.4993409239748794
 10
-11.418303772529466
 20
-1.519905069905546
 10
-11.32490042893741
 20
-1.5402459290665087
 10
-11.230076088484326
 20
-1.5604065907665967
 10
-11.133830751170223
 20
-1.580387055005811
 10
-11.036164654577682
 20
-1.6001442324753208
 10
-10.937120650432947
 20
-1.619721450066549
 10
-10.836698738736018
 20
-1.639118707779496
 10
-10.73485606776066
 20
-1.6582926787227383
 10
-10.631678340959342
 20
-1.6773300166791216
 10
-10.52712270660583
 20
-1.696187394757224
 10
-10.42118892711753
 20
-1.7149079022658744
 10
-10.313920329385867
 20
-1.733448687478836
 10
-10.205317626158617
 20
-1.751680482469618
 10
-10.095380104688001
 20
-1.7697325551647107
 10
-9.984064200500008
 20
-1.7876908465991825
 10
-9.871499419103715
 20
-1.8055129802119805
 10
-9.757600057046654
 20
-1.823112302220259
 10
-9.64236635191141
 20
-1.840445723315188
 10
-9.525884007150461
 20
-1.8575998972796133
 10
-9.408109695872387
 20
-1.8746176758397723
 10
-9.289043893242372
 20
-1.8914128803780046
 10
-9.168729688569245
 20
-1.9079857484769025
 10
-9.0471673194356
 20
-1.9242931908276362
 10
-8.924356073093655
 20
-1.9404644753566964
 10
-8.800296424708602
 20
-1.9564134234464217
 10
-8.67498789911525
 20
-1.9722262137144737
 10
-8.548517387679038
 20
-1.9877740533995467
 10
-8.420798474199717
 20
-2.0030995566452847
 10
-8.291874247986115
 20
-2.018202961034282
 10
-8.161787560764466
 20
-2.03312759345796
 10
-8.03049579839113
 20
-2.0477870377160663
 10
-7.8980415750097475
 20
-2.0622677100088533
 10
-7.764468217511747
 20
-2.076526758610084
 10
-7.62969002244465
 20
-2.090477529736913
 10
-7.493793168426116
 20
-2.104120498554525
 10
-7.356776942708368
 20
-2.1175849329894105
 10
-7.218641345291407
 20
-2.13087083304157
 10
-7.079386376175231
 20
-2.143978198711003
 10
-6.93905583741645
 20
-2.1567779996538117
 10
-6.797650204180247
 20
-2.1691840572523353
 10
-6.655125436827425
 20
-2.1813684911593025
 10
-6.51156771397564
 20
-2.1933317765398987
 10
-6.366934421481248
 20
-2.20498749719387
 10
-6.221269123818268
 20
-2.2162497120861495
 10
-6.074571108238919
 20
-2.227247689143227
 10
-5.926882988886845
 20
-2.2380678445653563
 10
-5.778162151618404
 20
-2.2486237621522833
 10
-5.628409309181373
 20
-2.2587861739775192
 10
-5.477710165028225
 20
-2.2686417338239075
 10
-5.326064481576369
 20
-2.2782335310002795
 10
-5.173386080208144
 20
-2.28756109034145
 10
-5.019804466432635
 20
-2.2965820352863666
 10
-4.865277026106195
 20
-2.3052099496347753
 10
-4.7098037592288255
 20
-2.3134448333866775
 10
-4.553427517526761
 20
-2.3213300134334953
 10
-4.396147113087043
 20
-2.3290809363193796
 10
-4.238006347966277
 20
-2.336568571700432
 10
-4.078963083186001
 20
-2.34362032475874
 10
-3.9190170811636276
 20
-2.350279284803134
 10
-3.758254520516811
 20
-2.356545926998798
 10
-3.5966313616063563
 20
-2.36259237099846
 10
-3.4341911689062763
 20
-2.368332675767054
 10
-3.270933942416571
 20
-2.3737668413045783
 10
-3.1068601573024237
 20
-2.3788086889933737
 10
-2.941969575981247
 20
-2.3835013081422702
 10
-2.776347901905512
 20
-2.3879313525341117
 10
-2.6099094316227456
 20
-2.392012168386054
 10
-2.4427408189157895
 20
-2.3956580522456226
 10
-2.274841826202053
 20
-2.398912093421646
 10
-2.1062122158989456
 20
-2.4018173812229557
 10
-1.936809136280229
 20
-2.4043305887581283
 10
-1.7667623304375795
 20
-2.4063662501572813
 10
-1.596028946644754
 20
-2.4078810385289917
 10
-1.4245644700973734
 20
-2.409133252143649
 10
-1.252455316995688
 20
-2.410080276857607
 10
-1.0797460021440837
 20
-2.410463814400477
 10
-0.9063496341771221
 20
-2.4104126575335654
 10
-0.7323090648210406
 20
-2.4099701331482946
 10
-0.5577109478586851
 20
-2.4090505377921896
 10
-0.3824693422549888
 20
-2.4076103069912342
 10
-0.20667042662760926
 20
-2.4056499159106144
 10
-0.030270161337350204
 20
-2.4033414842030583
 10
0.14668788914177547
 20
-2.400599070833497
 10
0.32415944758797893
 20
-2.397207466840374
 10
0.5021883160578604
 20
-2.3932957025675856
 10
0.6807323555729656
 20
-2.3890363728330457
 10
0.8597477647894283
 20
-2.384300576560783
 10
1.039277433921876
 20
-2.3790519673274053
 10
1.2192787706842503
 20
-2.3733809255495775
 10
1.3997508254589375
 20
-2.3671152232599058
 10
1.580693598721101
 20
-2.360254946637007
 10
1.762064951492282
 20
-2.3529726904987953
 10
1.9438220329965679
 20
-2.3453119540939285
 10
2.1260076951977833
 20
-2.3372294536202927
 10
2.3085781362768993
 20
-2.328596201823298
 10
2.49153383163669
 20
-2.3194984204099147
 10
2.6748747822274788
 20
-2.3099362817373774
 10
2.8585578985028586
 20
-2.29990998029897
 10
3.042582468427797
 20
-2.2892903774361284
 10
3.2269489671674774
 20
-2.2781636517665143
 10
3.4115721664346124
 20
-2.266702635690631
 10
3.596538008214598
 20
-2.2548639370916996
 10
3.7817596009044183
 20
-2.2425187201191066
 10
3.9672802718706555
 20
-2.2297099226777064
 10
4.1530138424956515
 20
-2.216438019932684
 10
4.3390036399084115
 20
-2.2027459066995863
 10
4.525249426763922
 20
-2.1885905367588925
 10
4.711665262027124
 20
-2.1740154745846163
 10
4.898294710172026
 20
-2.159106661211827
 10
5.085137534328788
 20
-2.14382113659962
 10
5.2721073175844
 20
-2.1281161573364247
 10
5.45924738730546
 20
-2.1120346613270953
 10
5.646515129348319
 20
-2.095663064771885
 10
5.833952682929018
 20
-2.078828815942189
 10
6.02147434411992
 20
-2.061618482442236
 10
6.209080588086205
 20
-2.044118242889686
 10
6.39677117748287
 20
-2.0262850510650168
 10
6.584545637144724
 20
-2.0080327283505697
 10
6.772404442474537
 20
-1.9894474964533126
 10
6.960261888831923
 20
-1.970615793709547
 10
7.148160590835687
 20
-1.951451290097638
 10
7.336058171924783
 20
-1.932083491126668
 10
7.523953918876264
 20
-1.9123830426915294
 10
7.711847594345118
 20
-1.8923068985727007
 10
7.899739673496534
 20
-1.8719412373878426
 10
8.087544689035129
 20
-1.8514155436927766
 10
8.275305730982492
 20
-1.8307297091728378
 10
8.462978996806836
 20
-1.8097546173055101
 10
8.650564723615597
 20
-1.7885332712210056
 10
8.83806291164636
 20
-1.767065714008634
 10
9.025473798006542
 20
-1.7453949487986071
 10
9.212710965307986
 20
-1.7234781460007358
 10
9.399817741154857
 20
-1.701358286609185
 10
9.586751272395423
 20
-1.679078438979523
 10
9.773555124691619
 20
-1.6567247595933632
 10
9.960142166957162
 20
-1.6341249785767893
 10
10.146512637012231
 20
-1.6113222283279407
 10
10.332710812078618
 20
-1.5885317178083758
 10
10.518649086855199
 20
-1.5654951708837548
 10
10.704327223046626
 20
-1.5421693689773204
 10
10.88978973617004
 20
-1.518812739627388
 10
11.074950920872299
 20
-1.4955115919023325
 10
11.259852441441842
 20
-1.4720072385451972
 10
11.444451445202105
 20
-1.4483428340901705
 10
11.628704841418765
 20
-1.4245183575839915
 10
11.812656195278583
 20
-1.4006198793296545
 10
11.996262653867403
 20
-1.3766905107720377
 10
12.179524454055072
 20
-1.3527732119520455
 10
12.36239803065483
 20
-1.328781912566683
 10
12.54488290755116
 20
-1.3046302616410548
 10
12.72697979725426
 20
-1.2804474840123425
 10
12.908688699526545
 20
-1.2562335365912372
 10
13.089923670719537
 20
-1.232031509869357
 10
13.270770891113976
 20
-1.207841230306679
 10
13.451143466968594
 20
-1.1835334742488086
 10
13.631041635390828
 20
-1.1591512448259595
 10
13.810466583343297
 20
-1.1349098162250464
 10
13.98941807348101
 20
-1.110766142226548
 10
14.167809448932527
 20
-1.0866339592169745
 10
14.345727127561196
 20
-1.0625561829651327
 10
14.52308469055334
 20
-1.03848972534498
 10
14.699925227692967
 20
-1.0144344349525423
 10
14.876206123173352
 20
-0.9904764263629101
 10
15.051884286022581
 20
-0.9666156355335145
 10
15.227003281427418
 20
-0.9429381327673492
 10
15.401476214933854
 20
-0.9193145651420941
 10
15.575389266822633
 20
-0.8957447591177263
 10
15.748656018280082
 20
-0.8721856265682035
 10
15.921277893613844
 20
-0.8488954878999625
 10
16.09321180208961
 20
-0.8258743221597424
 10
16.26454249849254
 20
-0.8028634199545397
 10
16.435140473037084
 20
-0.7798196291157427
 10
16.60509380666471
 20
-0.7570874905739688
 10
16.774316080324176
 20
-0.7346238731138676
 10
16.9428063424972
 20
-0.7122562040535741
 10
17.11056459270861
 20
-0.6899843972144708
 10
17.277591067828265
 20
-0.667851412637461
 10
17.44388695529395
 20
-0.6460726106880784
 10
17.609365597521503
 20
-0.6245615984849058
 10
17.774112462756637
 20
-0.6031890638293563
 10
17.93804136858036
 20
-0.5819547924576737
 10
18.101152789445116
 20
-0.5609448337195918
 10
18.263447200040922
 20
-0.5402452800541532
 10
18.42492412425227
 20
-0.5197697804864623
 10
18.585540470394488
 20
-0.49951814170602343
 10
18.745339803891937
 20
-0.4795764771051394
 10
18.904235942325638
 20
-0.4599445724200542
 10
19.062271263206956
 20
-0.4404930944989202
 10
19.219359583641754
 20
-0.42122174289936337
 10
19.375630650760613
 20
-0.4022167160095167
 10
19.530912575365917
 20
-0.38356385009814564
 10
19.685291538688745
 20
-0.3652631439824622
 10
19.838767302196157
 20
-0.34727133599640087
 10
19.99125320830399
 20
-0.3295020332585453
 10
20.142749493406928
 20
-0.31199810963118135
 10
20.293342576081056
 20
-0.29480261015104253
 10
20.442903420755652
 20
-0.2779583889099422
 10
20.59147559237989
 20
-0.26155147312156585
 10
20.739015286521354
 20
-0.2454524015489272
 10
20.88556535561901
 20
-0.22961797656853014
 10
21.03108294557081
 20
-0.214091094178709
 10
21.17556805542641
 20
-0.19887158202222852
 10
21.318978306011363
 20
-0.18408847162577446
 10
21.461356075074626
 20
-0.16961247292680798
 10
21.60261541706705
 20
-0.15548633170247667
 10
21.742798946845056
 20
-0.14162376102045401
 10
21.881907376681234
 20
-0.12815394262861296
 10
22.019897851998373
 20
-0.11511968634667008
 10
22.156769659098337
 20
-0.10239155189089974
 10
22.292522797268408
 20
-0.08996940999337533
 10
22.42715726555824
 20
-0.07785308829686162
 10
22.56058735623888
 20
-0.06612846497664492
 10
22.69289972570657
 20
-0.0548817174675977
 10
22.824050094126125
 20
-0.04389716282576451
 10
22.95399560715788
 20
-0.03321765396017107
 10
23.082779354823426
 20
-0.022843082556151185
 10
23.210358720365704
 20
-0.0128593908315606
 10
23.336690374279883
 20
-0.0032232530777645697
 10
23.46186026045202
 20
0.006108378107546132
 10
23.585782908260587
 20
0.015006621418872637
 10
23.708457841827652
 20
0.02355778474180169
 10
23.82988529802305
 20
0.031718908035429705
 10
23.95006456291109
 20
0.039619474672791186
 10
24.068996110944223
 20
0.0471734353041524
 10
24.18663684996262
 20
0.05438106941862679
 10
24.302987016836127
 20
0.06119941697531061
 10
24.41808946447889
 20
0.06767158941908244
 10
24.53185777193901
 20
0.07384106267976402
 10
24.644291938028566
 20
0.0797080522038994
 10
24.75543529106449
 20
0.0852294477293981
 10
24.86528806886695
 20
0.09036211685812102
 10
24.97376338030809
 20
0.0952348092620648
 10
25.080904294264624
 20
0.09985146820438127
 10
25.186711546529864
 20
0.10407864609562358
 10
25.291141798808415
 20
0.10796126294885314
 10
25.39419457545992
 20
0.11158558356034788
 10
25.49591344214631
 20
0.1148654514484959
 10
25.59621245284329
 20
0.11775820701476744
 10
25.695134222882412
 20
0.12035005101287116
 10
25.792678513968326
 20
0.12268420201956366
 10
25.88880223417882
 20
0.12476089643464965
 10
25.9835058579663
 20
0.12649408490839525
 10
26.07678914656028
 20
0.12792707219617477
 10
26.168651624320407
 20
0.12914612309426615
 10
26.25909352787895
 20
0.13010832065107464
 10
26.348072240716416
 20
0.1307276795594355
 10
26.435587761644907
 20
0.13100441526589318
 10
26.521682231305967
 20
0.13111082096319876
 10
26.60631279488477
 20
0.13100412992094448
 10
26.689479452143743
 20
0.13068438522843914
 10
26.77118243947757
 20
0.13010871302339674
 10
26.85137866520157
 20
0.12927730661631298
 10
26.930111219574936
 20
0.12819023123254522
 10
27.00733653598539
 20
0.12693381571094053
 10
27.083055088410223
 20
0.1254220968803829
 10
27.15726640120905
 20
0.12374133953715018
 10
27.230014040281418
 20
0.1218053441103217
 10
27.30121134709281
 20
0.11970067583854926
 10
27.37090117479496
 20
0.11747040307740257
 10
27.43904066904823
 20
0.11507167291785614
 10
27.505673158169525
 20
0.11246137509781921
 10
27.57075507317078
 20
0.10972626934922751
 10
27.63432997876358
 20
0.10678037154770434
 10
27.696310993798537
 20
0.1037506216142754
 10
27.756784519270624
 20
0.1005971631210607
 10
27.815664378938
 20
0.09731909000978696
 10
27.872993663535
 20
0.09391638132719361
 10
27.92877237258645
 20
0.09038912325189849
 10
27.98300026779702
 20
0.08678053436065808
 10
28.03563449530222
 20
0.08304767556582923
 10
28.086674578986532
 20
0.07927689784230754
 10
28.13616384787963
 20
0.07542496166007596
 10
28.18405897200152
 20
0.07153527890638688
 10
28.230360188697198
 20
0.06756480336171894
 10
28.275067260146493
 20
0.06355666742421114
 10
28.31818042321927
 20
0.0594679110529599
 10
28.359699440095326
 20
0.055341666646104085
 10
28.39962383537191
 20
0.05126415591061289
 10
28.437910992054384
 20
0.047149479717939445
 10
28.474646855454296
 20
0.04304042693453999
 10
28.50970191293509
 20
0.03898066680073199
 10
28.54320567642057
 20
0.03492665934412448
 10
28.575071962541443
 20
0.030878791185709013
 10
28.605300295894924
 20
0.02692328403245469
 10
28.633934005273108
 20
0.023016941443653335
 10
28.66092999875375
 20
0.019159999819109454
 10
28.68628780117167
 20
0.015438637776483355
 10
28.710050978663947
 20
0.011766612655545487
 10
28.732175964618335
 20
0.008230253295143061
 10
28.75266299614226
 20
0.0047865565650636365
 10
28.771511598070536
 20
0.0015217010829674926
 10
28.788722007985754
 20
-0.0016074024599755509
 10
28.804337079277232
 20
-0.004557728797504606
 10
28.81827062881324
 20
-0.007328934397936964
 10
28.83056551069585
 20
-0.009878123262938202
 10
28.841264816134526
 20
-0.01220540252438652
 10
28.85028236199757
 20
-0.014310428650599128
 10
28.85766076432927
 20
-0.016107130155793875
 10
28.86344335287205
 20
-0.017638875837914323
 10
28.86754346837865
 20
-0.018818971190382137
 10
28.870003965663898
 20
-0.019604649482789466
 10
28.87082436884985
 20
-0.019909602829549507
  0
ENDSEC
  0
SECTION
  2
OBJECTS
  0
DICTIONARY
  5
A
330
0
100
AcDbDictionary
280
0
281
1
  3
ACAD_COLOR
350
B
  3
ACAD_GROUP
350
C
  3
ACAD_LAYOUT
350
D
  3
ACAD_MATERIAL
350
E
  3
ACAD_MLEADERSTYLE
350
F
  3
ACAD_MLINESTYLE
350
10
  3
ACAD_PLOTSETTINGS
350
11
  3
ACAD_PLOTSTYLENAME
350
12
  3
ACAD_SCALELIST
350
14
  3
ACAD_TABLESTYLE
350
15
  3
ACAD_VISUALSTYLE
350
16
  3
EZDXF_META
350
2D
  0
DICTIONARY
  5
B
330
A
100
AcDbDictionary
280
0
281
1
  0
DICTIONARY
  5
C
330
A
100
AcDbDictionary
280
0
281
1
  0
DICTIONARY
  5
D
330
A
100
AcDbDictionary
280
0
281
1
  3
Model
350
1A
  3
Layout1
350
1E
  0
DICTIONARY
  5
E
330
A
100
AcDbDictionary
280
0
281
1
  3
ByBlock
350
1F
  3
ByLayer
350
20
  3
Global
350
21
  0
DICTIONARY
  5
F
330
A
100
AcDbDictionary
280
0
281
1
  3
Standard
350
2C
  0
DICTIONARY
  5
10
330
A
100
AcDbDictionary
280
0
281
1
  3
Standard
350
22
  0
DICTIONARY
  5
11
330
A
100
AcDbDictionary
280
0
281
1
  0
ACDBDICTIONARYWDFLT
  5
12
330
A
100
AcDbDictionary
280
0
281
1
  3
Normal
350
13
100
AcDbDictionaryWithDefault
340
13
  0
ACDBPLACEHOLDER
  5
13
330
12
  0
DICTIONARY
  5
14
330
A
100
AcDbDictionary
280
0
281
1
  0
DICTIONARY
  5
15
330
A
100
AcDbDictionary
280
0
281
1
  0
DICTIONARY
  5
16
330
A
100
AcDbDictionary
280
0
281
1
  0
LAYOUT
  5
1A
330
D
100
AcDbPlotSettings
  1

  4
A3
  6

 40
7.5
 41
20.0
 42
7.5
 43
20.0
 44
420.0
 45
297.0
 46
0.0
 47
0.0
 48
0.0
 49
0.0
140
0.0
141
0.0
142
1.0
143
1.0
 70
1024
 72
1
 73
0
 74
5
  7

 75
16
 76
0
 77
2
 78
300
147
1.0
148
0.0
149
0.0
100
AcDbLayout
  1
Model
 70
1
 71
0
 10
0.0
 20
0.0
 11
420.0
 21
297.0
 12
0.0
 22
0.0
 32
0.0
 14
1e+20
 24
1e+20
 34
1e+20
 15
-1e+20
 25
-1e+20
 35
-1e+20
146
0.0
 13
0.0
 23
0.0
 33
0.0
 16
1.0
 26
0.0
 36
0.0
 17
0.0
 27
1.0
 37
0.0
 76
1
330
17
  0
LAYOUT
  5
1E
330
D
100
AcDbPlotSettings
  1

  4
A3
  6

 40
7.5
 41
20.0
 42
7.5
 43
20.0
 44
420.0
 45
297.0
 46
0.0
 47
0.0
 48
0.0
 49
0.0
140
0.0
141
0.0
142
1.0
143
1.0
 70
0
 72
1
 73
0
 74
5
  7

 75
16
 76
0
 77
2
 78
300
147
1.0
148
0.0
149
0.0
100
AcDbLayout
  1
Layout1
 70
1
 71
1
 10
0.0
 20
0.0
 11
420.0
 21
297.0
 12
0.0
 22
0.0
 32
0.0
 14
1e+20
 24
1e+20
 34
1e+20
 15
-1e+20
 25
-1e+20
 35
-1e+20
146
0.0
 13
0.0
 23
0.0
 33
0.0
 16
1.0
 26
0.0
 36
0.0
 17
0.0
 27
1.0
 37
0.0
 76
1
330
1B
  0
MATERIAL
  5
1F
102
{ACAD_REACTORS
330
E
102
}
330
E
100
AcDbMaterial
  1
ByBlock
  2

 70
0
 40
1.0
 71
1
 41
1.0
 91
-1023410177
 42
1.0
 72
1
  3

 73
1
 74
1
 75
1
 44
0.5
 73
0
 45
1.0
 46
1.0
 77
1
  4

 78
1
 79
1
170
1
 48
1.0
171
1
  6

172
1
173
1
174
1
140
1.0
141
1.0
175
1
  7

176
1
177
1
178
1
143
1.0
179
1
  8

270
1
271
1
272
1
145
1.0
146
1.0
273
1
  9

274
1
275
1
276
1
 42
1.0
 72
1
  3

 73
1
 74
1
 75
1
 94
63
  0
MATERIAL
  5
20
102
{ACAD_REACTORS
330
E
102
}
330
E
100
AcDbMaterial
  1
ByLayer
  2

 70
0
 40
1.0
 71
1
 41
1.0
 91
-1023410177
 42
1.0
 72
1
  3

 73
1
 74
1
 75
1
 44
0.5
 73
0
 45
1.0
 46
1.0
 77
1
  4

 78
1
 79
1
170
1
 48
1.0
171
1
  6

172
1
173
1
174
1
140
1.0
141
1.0
175
1
  7

176
1
177
1
178
1
143
1.0
179
1
  8

270
1
271
1
272
1
145
1.0
146
1.0
273
1
  9

274
1
275
1
276
1
 42
1.0
 72
1
  3

 73
1
 74
1
 75
1
 94
63
  0
MATERIAL
  5
21
102
{ACAD_REACTORS
330
E
102
}
330
E
100
AcDbMaterial
  1
Global
  2

 70
0
 40
1.0
 71
1
 41
1.0
 91
-1023410177
 42
1.0
 72
1
  3

 73
1
 74
1
 75
1
 44
0.5
 73
0
 45
1.0
 46
1.0
 77
1
  4

 78
1
 79
1
170
1
 48
1.0
171
1
  6

172
1
173
1
174
1
140
1.0
141
1.0
175
1
  7

176
1
177
1
178
1
143
1.0
179
1
  8

270
1
271
1
272
1
145
1.0
146
1.0
273
1
  9

274
1
275
1
276
1
 42
1.0
 72
1
  3

 73
1
 74
1
 75
1
 94
63
  0
MLINESTYLE
  5
22
102
{ACAD_REACTORS
330
10
102
}
330
10
100
AcDbMlineStyle
  2
Standard
 70
0
  3

 62
256
 51
90.0
 52
90.0
 71
2
 49
0.5
 62
256
  6
BYLAYER
 49
-0.5
 62
256
  6
BYLAYER
  0
MLEADERSTYLE
  5
2C
102
{ACAD_REACTORS
330
F
102
}
330
F
100
AcDbMLeaderStyle
179
2
170
2
171
1
172
0
 90
2
 40
0.0
 41
0.0
173
1
 91
-1056964608
 92
-2
290
1
 42
2.0
291
1
 43
8.0
  3
Standard
 44
4.0
300

342
29
174
1
175
1
176
0
178
1
 93
-1056964608
 45
4.0
292
0
297
0
 46
4.0
 94
-1056964608
 47
1.0
 49
1.0
140
1.0
294
1
141
0.0
177
0
142
1.0
295
0
296
0
143
3.75
271
0
272
9
273
9
  0
DICTIONARY
  5
2D
330
A
100
AcDbDictionary
280
1
281
1
  3
CREATED_BY_EZDXF
350
2E
  3
WRITTEN_BY_EZDXF
350
32
  0
DICTIONARYVAR
  5
2E
330
2D
100
DictionaryVariables
280
0
  1
1.3.5 @ 2025-08-20T01:58:58.919926+00:00
  0
DICTIONARYVAR
  5
32
330
2D
100
DictionaryVariables
280
0
  1
1.3.5 @ 2025-08-20T01:58:58.925883+00:00
  0
ENDSEC
  0
EOF
