  0
SECTION
  2
HEADER
  9
$ACADVER
  1
AC1032
  9
$ACADMAINTVER
 90
4
  9
$DWGCODEPAGE
  3
ANSI_1252
  9
$LASTSAVEDBY
  1
ezdxf
  9
$REQUIREDVERSIONS
160
0
  9
$INSBASE
 10
0.0
 20
0.0
 30
0.0
  9
$EXTMIN
 10
1e+20
 20
1e+20
 30
1e+20
  9
$EXTMAX
 10
-1e+20
 20
-1e+20
 30
-1e+20
  9
$LIMMIN
 10
0.0
 20
0.0
  9
$LIMMAX
 10
420.0
 20
297.0
  9
$ORTHOMODE
 70
0
  9
$REGENMODE
 70
1
  9
$FILLMODE
 70
1
  9
$QTEXTMODE
 70
0
  9
$MIRRTEXT
 70
1
  9
$LTSCALE
 40
1.0
  9
$ATTMODE
 70
1
  9
$TEXTSIZE
 40
2.5
  9
$TRACEWID
 40
1.0
  9
$TEXTSTYLE
  7
Standard
  9
$CLAYER
  8
0
  9
$CELTYPE
  6
ByLayer
  9
$CECOLOR
 62
256
  9
$CELTSCALE
 40
1.0
  9
$DISPSILH
 70
0
  9
$DIMSCALE
 40
1.0
  9
$DIMASZ
 40
2.5
  9
$DIMEXO
 40
0.625
  9
$DIMDLI
 40
3.75
  9
$DIMRND
 40
0.0
  9
$DIMDLE
 40
0.0
  9
$DIMEXE
 40
1.25
  9
$DIMTP
 40
0.0
  9
$DIMTM
 40
0.0
  9
$DIMTXT
 40
2.5
  9
$DIMCEN
 40
2.5
  9
$DIMTSZ
 40
0.0
  9
$DIMTOL
 70
0
  9
$DIMLIM
 70
0
  9
$DIMTIH
 70
0
  9
$DIMTOH
 70
0
  9
$DIMSE1
 70
0
  9
$DIMSE2
 70
0
  9
$DIMTAD
 70
1
  9
$DIMZIN
 70
8
  9
$DIMBLK
  1

  9
$DIMASO
 70
1
  9
$DIMSHO
 70
1
  9
$DIMPOST
  1

  9
$DIMAPOST
  1

  9
$DIMALT
 70
0
  9
$DIMALTD
 70
3
  9
$DIMALTF
 40
0.03937007874
  9
$DIMLFAC
 40
1.0
  9
$DIMTOFL
 70
1
  9
$DIMTVP
 40
0.0
  9
$DIMTIX
 70
0
  9
$DIMSOXD
 70
0
  9
$DIMSAH
 70
0
  9
$DIMBLK1
  1

  9
$DIMBLK2
  1

  9
$DIMSTYLE
  2
ISO-25
  9
$DIMCLRD
 70
0
  9
$DIMCLRE
 70
0
  9
$DIMCLRT
 70
0
  9
$DIMTFAC
 40
1.0
  9
$DIMGAP
 40
0.625
  9
$DIMJUST
 70
0
  9
$DIMSD1
 70
0
  9
$DIMSD2
 70
0
  9
$DIMTOLJ
 70
0
  9
$DIMTZIN
 70
8
  9
$DIMALTZ
 70
0
  9
$DIMALTTZ
 70
0
  9
$DIMUPT
 70
0
  9
$DIMDEC
 70
2
  9
$DIMTDEC
 70
2
  9
$DIMALTU
 70
2
  9
$DIMALTTD
 70
3
  9
$DIMTXSTY
  7
Standard
  9
$DIMAUNIT
 70
0
  9
$DIMADEC
 70
0
  9
$DIMALTRND
 40
0.0
  9
$DIMAZIN
 70
0
  9
$DIMDSEP
 70
44
  9
$DIMATFIT
 70
3
  9
$DIMFRAC
 70
0
  9
$DIMLDRBLK
  1

  9
$DIMLUNIT
 70
2
  9
$DIMLWD
 70
-2
  9
$DIMLWE
 70
-2
  9
$DIMTMOVE
 70
0
  9
$DIMFXL
 40
1.0
  9
$DIMFXLON
 70
0
  9
$DIMJOGANG
 40
0.785398163397
  9
$DIMTFILL
 70
0
  9
$DIMTFILLCLR
 70
0
  9
$DIMARCSYM
 70
0
  9
$DIMLTYPE
  6

  9
$DIMLTEX1
  6

  9
$DIMLTEX2
  6

  9
$DIMTXTDIRECTION
 70
0
  9
$LUNITS
 70
2
  9
$LUPREC
 70
4
  9
$SKETCHINC
 40
1.0
  9
$FILLETRAD
 40
10.0
  9
$AUNITS
 70
0
  9
$AUPREC
 70
2
  9
$MENU
  1
.
  9
$ELEVATION
 40
0.0
  9
$PELEVATION
 40
0.0
  9
$THICKNESS
 40
0.0
  9
$LIMCHECK
 70
0
  9
$CHAMFERA
 40
0.0
  9
$CHAMFERB
 40
0.0
  9
$CHAMFERC
 40
0.0
  9
$CHAMFERD
 40
0.0
  9
$SKPOLY
 70
0
  9
$TDCREATE
 40
2460908.1242824076
  9
$TDUCREATE
 40
2458532.153996898
  9
$TDUPDATE
 40
2460908.1242824076
  9
$TDUUPDATE
 40
2458532.1544311
  9
$TDINDWG
 40
0.0
  9
$TDUSRTIMER
 40
0.0
  9
$USRTIMER
 70
1
  9
$ANGBASE
 50
0.0
  9
$ANGDIR
 70
0
  9
$PDMODE
 70
0
  9
$PDSIZE
 40
0.0
  9
$PLINEWID
 40
0.0
  9
$SPLFRAME
 70
0
  9
$SPLINETYPE
 70
6
  9
$SPLINESEGS
 70
8
  9
$HANDSEED
  5
33
  9
$SURFTAB1
 70
6
  9
$SURFTAB2
 70
6
  9
$SURFTYPE
 70
6
  9
$SURFU
 70
6
  9
$SURFV
 70
6
  9
$UCSBASE
  2

  9
$UCSNAME
  2

  9
$UCSORG
 10
0.0
 20
0.0
 30
0.0
  9
$UCSXDIR
 10
1.0
 20
0.0
 30
0.0
  9
$UCSYDIR
 10
0.0
 20
1.0
 30
0.0
  9
$UCSORTHOREF
  2

  9
$UCSORTHOVIEW
 70
0
  9
$UCSORGTOP
 10
0.0
 20
0.0
 30
0.0
  9
$UCSORGBOTTOM
 10
0.0
 20
0.0
 30
0.0
  9
$UCSORGLEFT
 10
0.0
 20
0.0
 30
0.0
  9
$UCSORGRIGHT
 10
0.0
 20
0.0
 30
0.0
  9
$UCSORGFRONT
 10
0.0
 20
0.0
 30
0.0
  9
$UCSORGBACK
 10
0.0
 20
0.0
 30
0.0
  9
$PUCSBASE
  2

  9
$PUCSNAME
  2

  9
$PUCSORG
 10
0.0
 20
0.0
 30
0.0
  9
$PUCSXDIR
 10
1.0
 20
0.0
 30
0.0
  9
$PUCSYDIR
 10
0.0
 20
1.0
 30
0.0
  9
$PUCSORTHOREF
  2

  9
$PUCSORTHOVIEW
 70
0
  9
$PUCSORGTOP
 10
0.0
 20
0.0
 30
0.0
  9
$PUCSORGBOTTOM
 10
0.0
 20
0.0
 30
0.0
  9
$PUCSORGLEFT
 10
0.0
 20
0.0
 30
0.0
  9
$PUCSORGRIGHT
 10
0.0
 20
0.0
 30
0.0
  9
$PUCSORGFRONT
 10
0.0
 20
0.0
 30
0.0
  9
$PUCSORGBACK
 10
0.0
 20
0.0
 30
0.0
  9
$USERI1
 70
0
  9
$USERI2
 70
0
  9
$USERI3
 70
0
  9
$USERI4
 70
0
  9
$USERI5
 70
0
  9
$USERR1
 40
0.0
  9
$USERR2
 40
0.0
  9
$USERR3
 40
0.0
  9
$USERR4
 40
0.0
  9
$USERR5
 40
0.0
  9
$WORLDVIEW
 70
1
  9
$SHADEDGE
 70
3
  9
$SHADEDIF
 70
70
  9
$TILEMODE
 70
1
  9
$MAXACTVP
 70
64
  9
$PINSBASE
 10
0.0
 20
0.0
 30
0.0
  9
$PLIMCHECK
 70
0
  9
$PEXTMIN
 10
1e+20
 20
1e+20
 30
1e+20
  9
$PEXTMAX
 10
-1e+20
 20
-1e+20
 30
-1e+20
  9
$PLIMMIN
 10
0.0
 20
0.0
  9
$PLIMMAX
 10
420.0
 20
297.0
  9
$UNITMODE
 70
0
  9
$VISRETAIN
 70
1
  9
$PLINEGEN
 70
0
  9
$PSLTSCALE
 70
1
  9
$TREEDEPTH
 70
3020
  9
$CMLSTYLE
  2
Standard
  9
$CMLJUST
 70
0
  9
$CMLSCALE
 40
20.0
  9
$PROXYGRAPHICS
 70
1
  9
$MEASUREMENT
 70
1
  9
$CELWEIGHT
370
-1
  9
$ENDCAPS
280
0
  9
$JOINSTYLE
280
0
  9
$LWDISPLAY
290
0
  9
$INSUNITS
 70
6
  9
$HYPERLINKBASE
  1

  9
$STYLESHEET
  1

  9
$XEDIT
290
1
  9
$CEPSNTYPE
380
0
  9
$PSTYLEMODE
290
1
  9
$FINGERPRINTGUID
  2
{8EE8F585-9180-4E5B-9237-C607B64D6B82}
  9
$VERSIONGUID
  2
{E3D07881-7067-498A-AB8E-22BB5056948E}
  9
$EXTNAMES
290
1
  9
$PSVPSCALE
 40
0.0
  9
$OLESTARTUP
290
0
  9
$SORTENTS
280
127
  9
$INDEXCTL
280
0
  9
$HIDETEXT
280
1
  9
$XCLIPFRAME
280
1
  9
$HALOGAP
280
0
  9
$OBSCOLOR
 70
257
  9
$OBSLTYPE
280
0
  9
$INTERSECTIONDISPLAY
280
0
  9
$INTERSECTIONCOLOR
 70
257
  9
$DIMASSOC
280
2
  9
$PROJECTNAME
  1

  9
$CAMERADISPLAY
290
0
  9
$LENSLENGTH
 40
50.0
  9
$CAMERAHEIGHT
 40
0.0
  9
$STEPSPERSEC
 40
24.0
  9
$STEPSIZE
 40
100.0
  9
$3DDWFPREC
 40
2.0
  9
$PSOLWIDTH
 40
0.005
  9
$PSOLHEIGHT
 40
0.08
  9
$LOFTANG1
 40
1.570796326795
  9
$LOFTANG2
 40
1.570796326795
  9
$LOFTMAG1
 40
0.0
  9
$LOFTMAG2
 40
0.0
  9
$LOFTPARAM
 70
7
  9
$LOFTNORMALS
280
1
  9
$LATITUDE
 40
37.795
  9
$LONGITUDE
 40
-122.394
  9
$NORTHDIRECTION
 40
0.0
  9
$TIMEZONE
 70
-8000
  9
$LIGHTGLYPHDISPLAY
280
1
  9
$TILEMODELIGHTSYNCH
280
1
  9
$CMATERIAL
347
20
  9
$SOLIDHIST
280
0
  9
$SHOWHIST
280
1
  9
$DWFFRAME
280
2
  9
$DGNFRAME
280
2
  9
$REALWORLDSCALE
290
1
  9
$INTERFERECOLOR
 62
256
  9
$CSHADOW
280
0
  9
$SHADOWPLANELOCATION
 40
0.0
  0
ENDSEC
  0
SECTION
  2
CLASSES
  0
CLASS
  1
ACDBDICTIONARYWDFLT
  2
AcDbDictionaryWithDefault
  3
ObjectDBX Classes
 90
0
 91
0
280
0
281
0
  0
CLASS
  1
SUN
  2
AcDbSun
  3
SCENEOE
 90
1153
 91
0
280
0
281
0
  0
CLASS
  1
VISUALSTYLE
  2
AcDbVisualStyle
  3
ObjectDBX Classes
 90
4095
 91
0
280
0
281
0
  0
CLASS
  1
MATERIAL
  2
AcDbMaterial
  3
ObjectDBX Classes
 90
1153
 91
0
280
0
281
0
  0
CLASS
  1
SCALE
  2
AcDbScale
  3
ObjectDBX Classes
 90
1153
 91
0
280
0
281
0
  0
CLASS
  1
TABLESTYLE
  2
AcDbTableStyle
  3
ObjectDBX Classes
 90
4095
 91
0
280
0
281
0
  0
CLASS
  1
MLEADERSTYLE
  2
AcDbMLeaderStyle
  3
ACDB_MLEADERSTYLE_CLASS
 90
4095
 91
0
280
0
281
0
  0
CLASS
  1
DICTIONARYVAR
  2
AcDbDictionaryVar
  3
ObjectDBX Classes
 90
0
 91
0
280
0
281
0
  0
CLASS
  1
CELLSTYLEMAP
  2
AcDbCellStyleMap
  3
ObjectDBX Classes
 90
1152
 91
0
280
0
281
0
  0
CLASS
  1
MENTALRAYRENDERSETTINGS
  2
AcDbMentalRayRenderSettings
  3
SCENEOE
 90
1024
 91
0
280
0
281
0
  0
CLASS
  1
ACDBDETAILVIEWSTYLE
  2
AcDbDetailViewStyle
  3
ObjectDBX Classes
 90
1025
 91
0
280
0
281
0
  0
CLASS
  1
ACDBSECTIONVIEWSTYLE
  2
AcDbSectionViewStyle
  3
ObjectDBX Classes
 90
1025
 91
0
280
0
281
0
  0
CLASS
  1
RASTERVARIABLES
  2
AcDbRasterVariables
  3
ISM
 90
0
 91
0
280
0
281
0
  0
CLASS
  1
ACDBPLACEHOLDER
  2
AcDbPlaceHolder
  3
ObjectDBX Classes
 90
0
 91
0
280
0
281
0
  0
CLASS
  1
LAYOUT
  2
AcDbLayout
  3
ObjectDBX Classes
 90
0
 91
0
280
0
281
0
  0
ENDSEC
  0
SECTION
  2
TABLES
  0
TABLE
  2
VPORT
  5
8
330
0
100
AcDbSymbolTable
 70
1
  0
VPORT
  5
23
330
8
100
AcDbSymbolTableRecord
100
AcDbViewportTableRecord
  2
*Active
 70
0
 10
0.0
 20
0.0
 11
1.0
 21
1.0
 12
0.0
 22
0.0
 13
0.0
 23
0.0
 14
0.5
 24
0.5
 15
0.5
 25
0.5
 16
0.0
 26
0.0
 36
1.0
 17
0.0
 27
0.0
 37
0.0
 40
1000.0
 41
1.34
 42
50.0
 43
0.0
 44
0.0
 50
0.0
 51
0.0
 71
0
 72
1000
 73
1
 74
3
 75
0
 76
0
 77
0
 78
0
281
0
 65
0
146
0.0
  0
ENDTAB
  0
TABLE
  2
LTYPE
  5
2
330
0
100
AcDbSymbolTable
 70
3
  0
LTYPE
  5
24
330
2
100
AcDbSymbolTableRecord
100
AcDbLinetypeTableRecord
  2
ByBlock
 70
0
  3

 72
65
 73
0
 40
0.0
  0
LTYPE
  5
25
330
2
100
AcDbSymbolTableRecord
100
AcDbLinetypeTableRecord
  2
ByLayer
 70
0
  3

 72
65
 73
0
 40
0.0
  0
LTYPE
  5
26
330
2
100
AcDbSymbolTableRecord
100
AcDbLinetypeTableRecord
  2
Continuous
 70
0
  3

 72
65
 73
0
 40
0.0
  0
ENDTAB
  0
TABLE
  2
LAYER
  5
1
330
0
100
AcDbSymbolTable
 70
2
  0
LAYER
  5
27
330
1
100
AcDbSymbolTableRecord
100
AcDbLayerTableRecord
  2
0
 70
0
 62
7
  6
Continuous
370
-3
390
13
347
21
  0
LAYER
  5
28
330
1
100
AcDbSymbolTableRecord
100
AcDbLayerTableRecord
  2
Defpoints
 70
0
 62
7
  6
Continuous
290
0
370
-3
390
13
347
21
  0
ENDTAB
  0
TABLE
  2
STYLE
  5
5
330
0
100
AcDbSymbolTable
 70
1
  0
STYLE
  5
29
330
5
100
AcDbSymbolTableRecord
100
AcDbTextStyleTableRecord
  2
Standard
 70
0
 40
0.0
 41
1.0
 50
0.0
 71
0
 42
2.5
  3
txt
  4

  0
ENDTAB
  0
TABLE
  2
VIEW
  5
7
330
0
100
AcDbSymbolTable
 70
0
  0
ENDTAB
  0
TABLE
  2
UCS
  5
6
330
0
100
AcDbSymbolTable
 70
0
  0
ENDTAB
  0
TABLE
  2
APPID
  5
3
330
0
100
AcDbSymbolTable
 70
3
  0
APPID
  5
2A
330
3
100
AcDbSymbolTableRecord
100
AcDbRegAppTableRecord
  2
ACAD
 70
0
  0
APPID
  5
30
330
3
100
AcDbSymbolTableRecord
100
AcDbRegAppTableRecord
  2
HATCHBACKGROUNDCOLOR
 70
0
  0
APPID
  5
31
330
3
100
AcDbSymbolTableRecord
100
AcDbRegAppTableRecord
  2
EZDXF
 70
0
  0
ENDTAB
  0
TABLE
  2
DIMSTYLE
  5
4
330
0
100
AcDbSymbolTable
 70
1
100
AcDbDimStyleTable
  0
DIMSTYLE
105
2B
330
4
100
AcDbSymbolTableRecord
100
AcDbDimStyleTableRecord
  2
Standard
 70
0
 40
1.0
 41
2.5
 42
0.625
 43
3.75
 44
1.25
 45
0.0
 46
0.0
 47
0.0
 48
0.0
 49
2.5
140
2.5
141
2.5
142
0.0
143
0.03937007874
144
1.0
145
0.0
146
1.0
147
0.625
148
0.0
 69
0
 70
0
 71
0
 72
0
 73
0
 74
0
 75
0
 76
0
 77
1
 78
8
 79
3
170
0
171
3
172
1
173
0
174
0
175
0
176
0
177
0
178
0
179
2
271
2
272
2
273
2
274
3
275
0
276
0
277
2
278
44
279
0
280
0
281
0
282
0
283
0
284
8
285
0
286
0
288
0
289
3
290
0
371
-2
372
-2
  0
ENDTAB
  0
TABLE
  2
BLOCK_RECORD
  5
9
330
0
100
AcDbSymbolTable
 70
2
  0
BLOCK_RECORD
  5
17
330
9
100
AcDbSymbolTableRecord
100
AcDbBlockTableRecord
  2
*Model_Space
340
1A
 70
0
280
1
281
0
  0
BLOCK_RECORD
  5
1B
330
9
100
AcDbSymbolTableRecord
100
AcDbBlockTableRecord
  2
*Paper_Space
340
1E
 70
0
280
1
281
0
  0
ENDTAB
  0
ENDSEC
  0
SECTION
  2
BLOCKS
  0
BLOCK
  5
18
330
17
100
AcDbEntity
  8
0
100
AcDbBlockBegin
  2
*Model_Space
 70
0
 10
0.0
 20
0.0
 30
0.0
  3
*Model_Space
  1

  0
ENDBLK
  5
19
330
17
100
AcDbEntity
  8
0
100
AcDbBlockEnd
  0
BLOCK
  5
1C
330
1B
100
AcDbEntity
  8
0
100
AcDbBlockBegin
  2
*Paper_Space
 70
0
 10
0.0
 20
0.0
 30
0.0
  3
*Paper_Space
  1

  0
ENDBLK
  5
1D
330
1B
100
AcDbEntity
  8
0
100
AcDbBlockEnd
  0
ENDSEC
  0
SECTION
  2
ENTITIES
  0
LWPOLYLINE
  5
2F
330
17
100
AcDbEntity
  8
0
100
AcDbPolyline
 90
721
 70
1
 10
39.91339803467966
 20
1.8398445176884088
 10
39.91224855716097
 20
1.8402020986145569
 10
39.90880524942134
 20
1.8411555617617323
 10
39.90307834317465
 20
1.8424667649290463
 10
39.89500317176681
 20
1.844251534195878
 10
39.884706516337175
 20
1.846337618898162
 10
39.872126267520166
 20
1.8487813244601135
 10
39.85720542540756
 20
1.8515200341560931
 10
39.84006310183299
 20
1.8545599997072888
 10
39.82064229688824
 20
1.857838604388061
 10
39.79887833623965
 20
1.861471853018495
 10
39.77489545141763
 20
1.8653468368489823
 10
39.748634080105724
 20
1.8694605789695162
 10
39.720091662455566
 20
1.873872659615497
 10
39.689273318163885
 20
1.8784639183161262
 10
39.65617392241425
 20
1.8833536347026718
 10
39.62085559225178
 20
1.888485324610212
 10
39.58325876536002
 20
1.8938560111287408
 10
39.543380881890634
 20
1.8995252744936577
 10
39.50128661361738
 20
1.9053771694651118
 10
39.45691128108694
 20
1.9115278200236596
 10
39.41026000143617
 20
1.9178581252787394
 10
39.36144676424219
 20
1.9244935570025719
 10
39.31029545776309
 20
1.9313652467483293
 10
39.256984745909584
 20
1.938482661468147
 10
39.20139551428816
 20
1.9458396090210721
 10
39.14358731241604
 20
1.9534393642182875
 10
39.08356013773335
 20
1.9612819866400284
 10
39.02131142783192
 20
1.969427116101929
 10
38.95684117503218
 20
1.9778749313446955
 10
38.890154496471006
 20
1.9865063314777656
 10
38.82124626989184
 20
1.9954405365521728
 10
38.75017860210039
 20
2.0046213007239357
 10
38.67688937605156
 20
2.014105108157977
 10
38.601383701202664
 20
2.0237730367044406
 10
38.52371601505373
 20
2.0337473429046007
 10
38.44388375007688
 20
2.0440877857345625
 10
38.36189458069748
 20
2.0546157436485997
 10
38.27768382234251
 20
2.06544745978774
 10
38.191373146694
 20
2.076529605637773
 10
38.10284087183053
 20
2.0879157480338515
 10
38.012206107025925
 20
2.099612198277398
 10
37.919409287403866
 20
2.1116160390386427
 10
37.82450996504143
 20
2.1239304855485326
 10
37.72745113491067
 20
2.1364930402419
 10
37.62829234908865
 20
2.1493069183496902
 10
37.52696892300234
 20
2.1624883630129315
 10
37.42360252577394
 20
2.175984105297649
 10
37.318133592527126
 20
2.1897912278740725
 10
37.21056211814222
 20
2.203909849902672
 10
37.10088808981996
 20
2.2183402692846257
 10
36.98916850490877
 20
2.233145162325808
 10
36.87534635326099
 20
2.2482621506215206
 10
36.75947862966517
 20
2.263753970057874
 10
36.641567881170445
 20
2.279561338300647
 10
36.521619224913685
 20
2.295565154459278
 10
36.39968708815552
 20
2.3118879133959815
 10
36.27570678888279
 20
2.3286457986715496
 10
36.149678314296246
 20
2.34583910818716
 10
36.021668898577886
 20
2.3632922568873274
 10
35.89167597163996
 20
2.3810650633283923
 10
35.75969952836276
 20
2.399157646670826
 10
35.62573187640198
 20
2.417749045522002
 10
35.48978580731987
 20
2.4365415374456316
 10
35.35191575349675
 20
2.4556574981434607
 10
35.212119147404756
 20
2.475156686591593
 10
35.07033386175935
 20
2.495095825275895
 10
34.92668156312287
 20
2.515421704842623
 10
34.78110524390753
 20
2.536071887306847
 10
34.63360489899363
 20
2.5570464918290363
 10
34.48423495564183
 20
2.578468013271407
 10
34.33300564300615
 20
2.600098369013305
 10
34.17985227907343
 20
2.622053742615522
 10
34.02489140814943
 20
2.6444001447753527
 10
33.86812302255463
 20
2.667137754233502
 10
33.70949267710941
 20
2.6901444931894023
 10
33.548997799166195
 20
2.7134802397796305
 10
33.386757497998794
 20
2.7371513053056087
 10
33.22270708647434
 20
2.7612739924886
 10
33.05685423645838
 20
2.785669739363115
 10
32.8892584974681
 20
2.810341820740336
 10
32.719919861823975
 20
2.8352904153609693
 10
32.54883319703005
 20
2.8606349815969896
 10
32.375998495406776
 20
2.8863756981891027
 10
32.20141830912296
 20
2.9124531636426156
 10
32.0252143073008
 20
2.938814109023555
 10
31.847264800339318
 20
2.9655122799077773
 10
31.667629340315564
 20
2.9925508915262307
 10
31.486375158851708
 20
3.019754418403666
 10
31.30344012354351
 20
3.0471797021864178
 10
31.11887610692299
 20
3.0750086988116294
 10
30.93274266106719
 20
3.1032446235102493
 10
30.744925773360375
 20
3.131762540732173
 10
30.555552237741146
 20
3.160389901912159
 10
30.364611804576683
 20
3.1893652663127434
 10
30.172107026035775
 20
3.2186292324392327
 10
29.978035332030686
 20
3.2482416188479677
 10
29.782461391775353
 20
3.2780865398793346
 10
29.585385200150082
 20
3.308164114693803
 10
29.38674718459901
 20
3.338471604702309
 10
29.186663897107454
 20
3.3690748418614396
 10
28.985075770239277
 20
3.399970968421661
 10
28.78204747576825
 20
3.4310440391431225
 10
28.57757900345497
 20
3.4622942923467646
 10
28.37172990793636
 20
3.4937248836833
 10
28.164438056808216
 20
3.5253926547990644
 10
27.955757885010726
 20
3.5574199218155655
 10
27.745637496973266
 20
3.5896252650177796
 10
27.534253017237013
 20
3.622077254951357
 10
27.321495550323093
 20
3.6545318551756343
 10
27.107362523583884
 20
3.6870489438271847
 10
26.891965376987546
 20
3.719813334592689
 10
26.67530154044633
 20
3.7528848460284867
 10
26.457259561192856
 20
3.7860789623490763
 10
26.23808280306996
 20
3.8192885498841544
 10
26.017595128737245
 20
3.852445335989246
 10
25.79590797304315
 20
3.885734253511501
 10
25.57295920614332
 20
3.9192120845170177
 10
25.348870507399344
 20
3.9528253217508813
 10
25.12358998636028
 20
3.9863924263375945
 10
24.897172077966324
 20
4.0200357143986665
 10
24.669611652281368
 20
4.053874584725838
 10
24.440921503427518
 20
4.087611255302585
 10
24.211104183573575
 20
4.121186324634215
 10
23.980266012990977
 20
4.154903766878204
 10
23.74829041665577
 20
4.188698286300084
 10
23.515293954232803
 20
4.222635536115734
 10
23.28129197969256
 20
4.256358154073236
 10
23.046281925507106
 20
4.289925899148691
 10
22.810258666860047
 20
4.323458050973369
 10
22.573214511407055
 20
4.357133648154644
 10
22.33527882829419
 20
4.390720204410461
 10
22.096342714363026
 20
4.423973862040859
 10
21.8565771846974
 20
4.457082113741349
 10
21.61585029750368
 20
4.490337323930561
 10
21.374231857051594
 20
4.523504088996667
 10
21.131732089935337
 20
4.556344385899251
 10
20.888465008770662
 20
4.588983150188417
 10
20.644308911157346
 20
4.621474425341197
 10
20.399380364439804
 20
4.653883685832768
 10
20.153622355910542
 20
4.686148612838668
 10
19.90709956758273
 20
4.718153022798102
 10
19.659871561772828
 20
4.749899892621078
 10
19.41187876336514
 20
4.781386543298766
 10
19.163240304672133
 20
4.812618749910475
 10
18.91383704314194
 20
4.843590975697835
 10
18.66378298627062
 20
4.874428275371424
 10
18.413080696466377
 20
4.905071009115607
 10
18.161742962731605
 20
4.935221514074334
 10
17.909764660249895
 20
4.964999069878868
 10
17.6572623640452
 20
4.9944689722636815
 10
17.404114371717313
 20
5.023685264705808
 10
17.15044493527539
 20
5.052534561813756
 10
16.89625661200797
 20
5.080957342932364
 10
16.64155195920355
 20
5.108894087406464
 10
16.386325846926024
 20
5.136464194027799
 10
16.13063528788289
 20
5.16372998162083
 10
15.874480274394584
 20
5.190691628926264
 10
15.61792805344235
 20
5.217173252987441
 10
15.36092161231871
 20
5.243112534979895
 10
15.1035230757483
 20
5.268452811997999
 10
14.845784334182074
 20
5.2933756229172495
 10
14.587638132959237
 20
5.318057029435014
 10
14.32920873176853
 20
5.342383467419093
 10
14.070457036840955
 20
5.365875556397233
 10
13.811367681406832
 20
5.388890956522532
 10
13.552057253289345
 20
5.411494665628283
 10
13.292471291949816
 20
5.43356496339533
 10
13.032612359796449
 20
5.455042210008039
 10
12.772591914716338
 20
5.476110802091441
 10
12.51235294912168
 20
5.496708301660599
 10
12.251962707433854
 20
5.516658885339091
 10
11.991361617097015
 20
5.535959814537852
 10
11.730666265934358
 20
5.554676087090173
 10
11.469874088977818
 20
5.572867402391924
 10
11.208992768332337
 20
5.590354960156674
 10
10.948019739029839
 20
5.607198459780289
 10
10.687012016337686
 20
5.623460160507001
 10
10.425902348154938
 20
5.63931606445394
 10
10.164825238683454
 20
5.654414167386842
 10
9.903780687923236
 20
5.668754469305707
 10
9.642766138585776
 20
5.682396490865699
 10
9.381779025703013
 20
5.695399931462686
 10
9.120881489358707
 20
5.707707770709629
 10
8.860011394588799
 20
5.719376909833096
 10
8.599290448913203
 20
5.7303531861955825
 10
8.338723774588479
 20
5.740517379746056
 10
8.078308811766279
 20
5.749929070719913
 10
7.8180430031580785
 20
5.75864777977232
 10
7.557928908612246
 20
5.766613926667876
 10
7.298090803176597
 20
5.773713589792971
 10
7.038463989478863
 20
5.78006331018981
 10
6.77910292805773
 20
5.785784808177546
 10
6.519960843039281
 20
5.790577503570359
 10
6.261151767518054
 20
5.794565855276467
 10
6.0026680296285235
 20
5.79792842526136
 10
5.744457728680361
 20
5.800483912970485
 10
5.486645144841085
 20
5.80211827762976
 10
5.229225160973823
 20
5.802950620129747
 10
4.972143319099738
 20
5.802859160571055
 10
4.715513659992919
 20
5.801968179121197
 10
4.459281728234377
 20
5.800155836300546
 10
4.203564121886697
 20
5.797486891621455
 10
3.9482340111734104
 20
5.79413472777246
 10
3.693415676262026
 20
5.789985303979481
 10
3.43911935654598
 20
5.7848002993009215
 10
3.185342499856448
 20
5.778639115231475
 10
2.9321370043239194
 20
5.771683111905932
 10
2.6795054400361424
 20
5.76387247076795
 10
2.4274503694013183
 20
5.755147552001897
 10
2.1760313752147016
 20
5.745510855875894
 10
1.9251837601040185
 20
5.7350789234321455
 10
1.674961994847345
 20
5.723973236668866
 10
1.4254358990735203
 20
5.711958034492817
 10
1.176610597598953
 20
5.698914037272732
 10
0.9284809784064689
 20
5.684960226738702
 10
0.6811042973891629
 20
5.670153261592826
 10
0.4344213890070619
 20
5.654480929988611
 10
0.18848928132676365
 20
5.63800519326911
 10
-0.056635005264703164
 20
5.620788191518077
 10
-0.3010008116092933
 20
5.60258904394556
 10
-0.5445485574716169
 20
5.583410310399919
 10
-0.7872314618580629
 20
5.563552451906502
 10
-1.0291039853073127
 20
5.542893748146155
 10
-1.2700444075002142
 20
5.5213797385801975
 10
-1.5101718889075615
 20
5.49900530351191
 10
-1.7493672690585573
 20
5.475775562638012
 10
-1.98757608741452
 20
5.4518122362776555
 10
-2.224920064294602
 20
5.427169784969525
 10
-2.46132682022162
 20
5.401552867384985
 10
-2.6966925538149242
 20
5.375324084633143
 10
-2.9310819650066198
 20
5.348600037336439
 10
-3.164539274941968
 20
5.3210206842341226
 10
-3.3968857429147694
 20
5.292593704871269
 10
-3.628188628705496
 20
5.2634952801057135
 10
-3.858450492162508
 20
5.233784990172857
 10
-4.087666213589084
 20
5.203343674601902
 10
-4.3157191923627884
 20
5.172236033324961
 10
-4.542728588954419
 20
5.140456946645321
 10
-4.768582922438254
 20
5.108190274965893
 10
-4.993277073117572
 20
5.075316857815879
 10
-5.216808481144019
 20
5.041777114959881
 10
-5.439179706365953
 20
5.007630626633297
 10
-5.660336288244688
 20
4.972999113155283
 10
-5.880337807015626
 20
4.937880014677481
 10
-6.0990599825112515
 20
4.90215929042581
 10
-6.316502814731565
 20
4.865836940400269
 10
-6.532723324063609
 20
4.8288508245171
 10
-6.747664490120339
 20
4.791263082860063
 10
-6.961333992446834
 20
4.753252456135353
 10
-7.173674810656049
 20
4.714881084426725
 10
-7.384676705354553
 20
4.675910646792585
 10
-7.594399256777747
 20
4.6363385833845765
 10
-7.802661164371075
 20
4.5961129935123735
 10
-8.009589268150407
 20
4.555407498185454
 10
-8.215186127964104
 20
4.514281677639222
 10
-8.419332583341365
 20
4.472740651570389
 10
-8.622026074433835
 20
4.430724839743558
 10
-8.823318501931837
 20
4.388052941604174
 10
-9.023160524993406
 20
4.3449658379421905
 10
-9.221559823163615
 20
4.301642269463804
 10
-9.418444016965273
 20
4.257786894840378
 10
-9.613872686633782
 20
4.213397154223555
 10
-9.80773179139506
 20
4.168597327780849
 10
-10.000080911484506
 20
4.1233848556639
 10
-10.190922606750474
 20
4.07781931810811
 10
-10.380189617412496
 20
4.0317245342556385
 10
-10.567887063167289
 20
3.985219664577283
 10
-10.754014944014846
 20
3.9383047090730434
 10
-10.938583499348605
 20
3.891217988684515
 10
-11.12147100884941
 20
3.8439050428730153
 10
-11.302788953442981
 20
3.7961820112356324
 10
-11.482472633197204
 20
3.7479322931499257
 10
-11.66047270727012
 20
3.6993967694058494
 10
-11.836853875593832
 20
3.6506920406258416
 10
-12.011546318539517
 20
3.6015823457166665
 10
-12.18449557556849
 20
3.55218940499748
 10
-12.355823366999903
 20
3.502567679006963
 10
-12.525410532362965
 20
3.4527222874418335
 10
-12.693249392112598
 20
3.402474489595893
 10
-12.859347625793877
 20
3.3520030261753395
 10
-13.023707793255161
 20
3.301367477415571
 10
-13.186327334648087
 20
3.250508263081189
 10
-13.347146669737265
 20
3.1994279430205523
 10
-13.50616323867433
 20
3.14806693699826
 10
-13.66343918154304
 20
3.096482265401355
 10
-13.8188553378726
 20
3.044679047926552
 10
-13.972416827359721
 20
2.9927764450446492
 10
-14.12423769077849
 20
2.940650176588133
 10
-14.274139187422708
 20
2.8883079221020767
 10
-14.422178337679416
 20
2.8356875415027245
 10
-14.568365380942048
 20
2.78302735573167
 10
-14.7127003172106
 20
2.730327364788915
 10
-14.85511844655296
 20
2.6774709680520195
 10
-14.99561720912077
 20
2.624398585285584
 10
-15.134253625301069
 20
2.571048076405852
 10
-15.270921333864854
 20
2.517722462286533
 10
-15.40567735519916
 20
2.4643596028438712
 10
-15.538516569607273
 20
2.4108403376070684
 10
-15.669379396853794
 20
2.3571672264244823
 10
-15.798270956635442
 20
2.3034594297669106
 10
-15.925186129255499
 20
2.2495977871635566
 10
-16.050127474562316
 20
2.1956418788498184
 10
-16.173097552404265
 20
2.1416512850610943
 10
-16.294031662849218
 20
2.0875094051749454
 10
-16.41293748544226
 20
2.033394979897568
 10
-16.52986436102535
 20
1.9790671284390082
 10
-16.644762948756526
 20
1.9247667315892203
 10
-16.757630688787422
 20
1.8704342091128052
 10
-16.868465021269692
 20
1.816009980774363
 10
-16.97720636596793
 20
1.7614966064222535
 10
-17.083916862965893
 20
1.7069511064435157
 10
-17.188544611573253
 20
1.6525547813927053
 10
-17.2910844920933
 20
1.598188470799024
 10
-17.391536504526037
 20
1.5438521746624712
 10
-17.48996278895521
 20
1.4896029133700894
 10
-17.58624162506167
 20
1.4353862263831947
 10
-17.680437712777536
 20
1.3813187143242265
 10
-17.772496591564117
 20
1.3275220975123407
 10
-17.862477841656812
 20
1.2739938160991793
 10
-17.95031676312351
 20
1.2206172694623028
 10
-18.036075496047967
 20
1.167449477988751
 10
-18.119634879959385
 20
1.1144955613752416
 10
-18.20111919502528
 20
1.0618695603958548
 10
-18.28041184062321
 20
1.0096361749827063
 10
-18.357567277291853
 20
0.9576736848166398
 10
-18.432585505031224
 20
0.9059820898976555
 10
-18.505466523841303
 20
0.8545613902257537
 10
-18.57615587318342
 20
0.8035333061200898
 10
-18.644653553057573
 20
0.7528978375806633
 10
-18.711011464154083
 20
0.7024736840529207
 10
-18.77517770578263
 20
0.6524421460914156
 10
-18.83714203854978
 20
0.6025649027545534
 10
-18.896914701848967
 20
0.5530802749839289
 10
-18.954485456286758
 20
0.5037499418379469
 10
-19.009859421559867
 20
0.4546930637874054
 10
-19.063036597668294
 20
0.4059096408323039
 10
-19.113954844528283
 20
0.357342652585602
 10
-19.16273844230735
 20
0.30910613982138135
 10
-19.209200970754218
 20
0.261029041378519
 10
-19.25352629027181
 20
0.213222838182739
 10
-19.29559268054096
 20
0.16563306969535824
 10
-19.33540782110675
 20
0.11843847662257387
 10
-19.373026172507856
 20
0.07151733864522913
 10
-19.408390714357246
 20
0.024931795847081436
 10
-19.441511686048337
 20
-0.021079830830274357
 10
-19.47244098827147
 20
-0.0666988419413921
 10
-19.501124160487954
 20
-0.11180351716711666
 10
-19.527566322394502
 20
-0.15627469603665037
 10
-19.551777713384553
 20
-0.19987405760839802
 10
-19.573758333458105
 20
-0.24260160188235996
 10
-19.593572882547267
 20
-0.28434072823609624
 10
-19.61111499942304
 20
-0.3247884157958973
 10
-19.62645450371425
 20
-0.36370890346852586
 10
-19.639676574139877
 20
-0.40050894874835224
 10
-19.650679969167623
 20
-0.43476637029086906
 10
-19.659565226606624
 20
-0.46553044417805356
 10
-19.66643288426599
 20
-0.49185044649188375
 10
-19.671225218035534
 20
-0.5122913318860732
 10
-19.674065804359586
 20
-0.52536615432401
 10
-19.65883783797655
 20
-0.9061920758763806
 10
-19.657575261237714
 20
-0.909182030762917
 10
-19.65379009086958
 20
-0.9180923151871282
 10
-19.64749256626557
 20
-0.9326846082074184
 10
-19.6385795897682
 20
-0.9539692139772091
 10
-19.62711656503275
 20
-0.9832024371365907
 10
-19.613177023938444
 20
-1.0172835455964688
 10
-19.596780741548965
 20
-1.054362992211123
 10
-19.57808015636378
 20
-1.0936713536170857
 10
-19.55706944496299
 20
-1.1339548850226246
 10
-19.533712065746435
 20
-1.1746748044607926
 10
-19.508139978426687
 20
-1.2155383304513117
 10
-19.480303842161792
 20
-1.256304582204229
 10
-19.450213896345172
 20
-1.2967352387779494
 10
-19.41787526067354
 20
-1.336711139701675
 10
-19.38328793514691
 20
-1.3762322849754065
 10
-19.34651405984903
 20
-1.4152416542121025
 10
-19.30749917424122
 20
-1.4536175270926075
 10
-19.266240718475114
 20
-1.4914194838523207
 10
-19.222800832634476
 20
-1.5285905041042012
 10
-19.177114816787196
 20
-1.565247188470688
 10
-19.12918523078162
 20
-1.6013299567163828
 10
-19.079136354785266
 20
-1.636724768067204
 10
-19.026781768546872
 20
-1.671602683684274
 10
-18.972302772620985
 20
-1.7059118028772677
 10
-18.915577646688444
 20
-1.7397065861848682
 10
-18.856668530833016
 20
-1.7729300132200347
 10
-18.79557798490305
 20
-1.8055225037473681
 10
-18.732298329353483
 20
-1.837662798473065
 10
-18.666834683881024
 20
-1.8692317369263278
 10
-18.599176809092242
 20
-1.9004676400487517
 10
-18.52933238453221
 20
-1.9311917671341403
 10
-18.45735587073962
 20
-1.9615258385016492
 10
-18.38318768747905
 20
-1.9914672943029195
 10
-18.30682271505381
 20
-2.0211352950087504
 10
-18.22832309354764
 20
-2.0504728202321
 10
-18.14768626311219
 20
-2.079539450208367
 10
-18.064912223747456
 20
-2.1083351849375522
 10
-17.97993371567297
 20
-2.137036205277493
 10
-17.892872459207886
 20
-2.1655880506895073
 10
-17.803611853729763
 20
-2.19392602124148
 10
-17.712271059709398
 20
-2.2220552366301276
 10
-17.618785377214675
 20
-2.250092297477888
 10
-17.523214386480998
 20
-2.2780397636331218
 10
-17.425501067121317
 20
-2.30583549501207
 10
-17.32571011906776
 20
-2.3333628909922943
 10
-17.223779402236563
 20
-2.360678971960835
 10
-17.11982551725016
 20
-2.3878484378498066
 10
-17.01378888387316
 20
-2.414868728810851
 10
-16.905669502105564
 20
-2.4417398448439696
 10
-16.79547505149244
 20
-2.4682830452429645
 10
-16.683265112269186
 20
-2.4945008898561944
 10
-16.56898010420041
 20
-2.5203908188353012
 10
-16.452674487824794
 20
-2.54607455249944
 10
-16.33434826314233
 20
-2.5715520908486114
 10
-16.214011669546466
 20
-2.5965851129412205
 10
-16.09171916757586
 20
-2.6212953390964215
 10
-15.967413736843495
 20
-2.645620629230459
 10
-15.841092817500998
 20
-2.6696205635787313
 10
-15.712815989783781
 20
-2.693297701989596
 10
-15.582585813540184
 20
-2.7165924642276553
 10
-15.450399728921866
 20
-2.739564430528308
 10
-15.316257735928819
 20
-2.7622136008915517
 10
-15.180162394409402
 20
-2.7844803950819905
 10
-15.042170724750655
 20
-2.80642695318338
 10
-14.902282726952576
 20
-2.8280532751957197
 10
-14.760441380628132
 20
-2.8492972210352536
 10
-14.616760726551398
 20
-2.870283070869495
 10
-14.471183744335335
 20
-2.8909486846146866
 10
-14.323707874131587
 20
-2.9113536425062287
 10
-14.174395256023907
 20
-2.931440924157079
 10
-14.02325356955737
 20
-2.951031788861042
 10
-13.870275135186903
 20
-2.970304977324312
 10
-13.715395252980391
 20
-2.989377090169332
 10
-13.55879522349239
 20
-3.008196226705775
 10
-13.400361005948817
 20
-3.0266381067661277
 10
-13.240095160198027
 20
-3.0446431501149913
 10
-13.078111727014107
 20
-3.0623356369198795
 10
-12.914348566313294
 20
-3.0797725875678332
 10
-12.748810797792311
 20
-3.0968348415880547
 10
-12.58155800168655
 20
-3.1135249588289016
 10
-12.412592737844374
 20
-3.1297833590549757
 10
-12.241907326720709
 20
-3.145788782972474
 10
-12.069506888012269
 20
-3.161422070110597
 10
-11.895386302022338
 20
-3.1768023809401433
 10
-11.719672408766785
 20
-3.191756094451633
 10
-11.54224348792646
 20
-3.206337671183748
 10
-11.363159119736759
 20
-3.220549670984847
 10
-11.18247632458472
 20
-3.2344542339386866
 10
-11.000140641931665
 20
-3.2479296397261104
 10
-10.816206532316276
 20
-3.261097608666275
 10
-10.630736135822305
 20
-3.2739011203721393
 10
-10.443615411675678
 20
-3.28621589467619
 10
-10.254963520347186
 20
-3.2980470512751427
 10
-10.064772782291756
 20
-3.3095733308751933
 10
-9.873043197509395
 20
-3.320794733476342
 10
-9.679774766000095
 20
-3.33171125907859
 10
-9.48503474754433
 20
-3.342146726824098
 10
-9.288828261838818
 20
-3.351981976242068
 10
-9.091085489254727
 20
-3.361452768425737
 10
-8.891925590262858
 20
-3.3705642230718227
 10
-8.69129410432452
 20
-3.3791946198611673
 10
-8.489255731371836
 20
-3.387227358171333
 10
-8.28580279185973
 20
-3.394841178708515
 10
-8.080989746326882
 20
-3.402157801791869
 10
-7.874762134234613
 20
-3.4090555071022406
 10
-7.6671276351279944
 20
-3.415355553933432
 10
-7.458200289781108
 20
-3.4211822224529573
 10
-7.247977538345594
 20
-3.426595092896215
 10
-7.0363402203506595
 20
-3.4315890455664895
 10
-6.823469636350856
 20
-3.4361121797734557
 10
-6.609311325807501
 20
-3.4400427751979583
 10
-6.393865288720595
 20
-3.443380831839997
 10
-6.177188545477177
 20
-3.4461884897833293
 10
-5.95926829683546
 20
-3.4487636502049477
 10
-5.740171802575914
 20
-3.450930132247015
 10
-5.519849721856573
 20
-3.4524470551195776
 10
-5.29829949482908
 20
-3.4533739990580345
 10
-5.0756402819642314
 20
-3.4537160837591014
 10
-4.851802263633197
 20
-3.4537090703160156
 10
-4.6268501397680915
 20
-3.4532363581063374
 10
-4.400783910368914
 20
-3.4522979471300665
 10
-4.173608695132381
 20
-3.450774676916406
 10
-3.945321934210137
 20
-3.4487261277007546
 10
-3.716037668376261
 20
-3.4462765796506254
 10
-3.4856418568566734
 20
-3.443301752598505
 10
-3.2542587798188816
 20
-3.4396876057703123
 10
-3.021885877414535
 20
-3.435493719401445
 10
-2.788520589795272
 20
-3.430779673727302
 10
-2.554105896574053
 20
-3.4254833286641277
 10
-2.3188256581537927
 20
-3.4194932032861978
 10
-2.0826228541474414
 20
-3.412747157509755
 10
-1.8454225452294608
 20
-3.4056001128988354
 10
-1.6073464517190068
 20
-3.3979976089147548
 10
-1.368469512941621
 20
-3.3895847239934787
 10
-1.1286648888814346
 20
-3.380535079144488
 10
-0.8879895999254872
 20
-3.3709108144515385
 10
-0.6465679262412923
 20
-3.3605978891405504
 10
-0.4042832672064136
 20
-3.349531603279407
 10
-0.16125478329164505
 20
-3.3377170765648247
 10
0.08258734513184199
 20
-3.325390070090042
 10
0.32717841813193116
 20
-3.312433983232618
 10
0.5724460562314428
 20
-3.2985534746639167
 10
0.8184575192108374
 20
-3.2839247252417767
 10
1.06516346622816
 20
-3.268788615756151
 10
1.312496645182471
 20
-3.252969144089909
 10
1.5605144911562536
 20
-3.236413822157426
 10
1.8091627791168694
 20
-3.2192498516595154
 10
2.0584312773504343
 20
-3.2012390903952888
 10
2.3083199909766488
 20
-3.1823816575252155
 10
2.558779579153538
 20
-3.16291843383925
 10
2.809753031733455
 20
-3.142911797742091
 10
3.0612973716632954
 20
-3.122299668730215
 10
3.3133453417224286
 20
-3.100905925526021
 10
3.5659020641674233
 20
-3.0788497881805412
 10
3.818967549237676
 20
-3.056131495014717
 10
4.072482214137928
 20
-3.032753546296671
 10
4.326438387002659
 20
-3.008537380060914
 10
4.580841187528584
 20
-2.983602156778242
 10
4.835581694638339
 20
-2.9581913170869676
 10
5.090776519193752
 20
-2.932240399375916
 10
5.346298818619104
 20
-2.905575723055373
 10
5.602210738117856
 20
-2.8782544276728492
 10
5.858393117219199
 20
-2.850281632925061
 10
6.114908098566744
 20
-2.821714418779284
 10
6.371753124871983
 20
-2.7924932645803557
 10
6.628811595512476
 20
-2.7626828702603907
 10
6.886148210420337
 20
-2.7323998364418283
 10
7.14376041742675
 20
-2.701584761629975
 10
7.401526488533015
 20
-2.6701830065454435
 10
7.659508568942591
 20
-2.638251710735743
 10
7.917652198116789
 20
-2.605912594520032
 10
8.176006719457428
 20
-2.5729248366885913
 10
8.43445808707073
 20
-2.5394125982484628
 10
8.693011420653402
 20
-2.5054950396704454
 10
8.951664162916948
 20
-2.4711126402993746
 10
9.210411194164644
 20
-2.436146239664454
 10
9.469257636653058
 20
-2.4007150578167153
 10
9.728089436808864
 20
-2.364943077022497
 10
9.986961060290442
 20
-2.328708696123112
 10
10.245820606407465
 20
-2.2921932156731155
 10
10.504660390495166
 20
-2.25521777580584
 10
10.763477855265036
 20
-2.217722855866123
 10
11.022278120413787
 20
-2.1798276163247623
 10
11.280949689656605
 20
-2.1417155601032567
 10
11.53955215090844
 20
-2.1033843060939543
 10
11.798018239269114
 20
-2.064657554278547
 10
12.0563505094673
 20
-2.025594765731962
 10
12.314548964062832
 20
-1.9861960000344347
 10
12.572616157784381
 20
-1.946520718260894
 10
12.830430357513555
 20
-1.906514161971478
 10
13.088053711013636
 20
-1.8662335302939361
 10
13.345429182538508
 20
-1.825740605830611
 10
13.60262148481953
 20
-1.7851522871051204
 10
13.859501194953825
 20
-1.7442348366504659
 10
14.11607087534961
 20
-1.7030478942822813
 10
14.372402905484064
 20
-1.661886801329203
 10
14.628362752997015
 20
-1.6203988981743773
 10
14.883947850360547
 20
-1.5785244258416988
 10
15.139233144579759
 20
-1.5366184846359092
 10
15.394104574401767
 20
-1.4948048780826386
 10
15.648606366091546
 20
-1.4527236840816058
 10
15.902681489022626
 20
-1.410436804395628
 10
16.156270347600557
 20
-1.3679464413916496
 10
16.409437649436974
 20
-1.3253693744328159
 10
16.662126361345596
 20
-1.282767445701708
 10
16.914339035495242
 20
-1.2402000566930176
 10
17.166010964274253
 20
-1.1975504280435991
 10
17.41713701774652
 20
-1.154699160961713
 10
17.667724872897264
 20
-1.1118249365733206
 10
17.917774527166635
 20
-1.0689276952981868
 10
18.167169351773868
 20
-1.026071481685836
 10
18.416028525108693
 20
-0.9832515931012008
 10
18.66422518155676
 20
-0.9402938127324467
 10
18.911761875846725
 20
-0.8972576016545017
 10
19.158651396980986
 20
-0.854440622723418
 10
19.404891187671044
 20
-0.8117833552840317
 10
19.650356934471336
 20
-0.7691709840192019
 10
19.895170375619976
 20
-0.7266583865292583
 10
20.139209762639467
 20
-0.6841904468929294
 10
20.38253468088491
 20
-0.6417647244223277
 10
20.62509065189867
 20
-0.5995025223749614
 10
20.86681807752642
 20
-0.55740598353754
 10
21.10778166537982
 20
-0.5155918872732094
 10
21.34785454216497
 20
-0.4738858380294295
 10
21.587155886271614
 20
-0.4322831331711312
 10
21.82556394922225
 20
-0.3907286567770432
 10
22.06309407730778
 20
-0.3495795923583809
 10
22.29968667493373
 20
-0.30883814228208945
 10
22.53544556139968
 20
-0.2681421225007088
 10
22.770189390073817
 20
-0.22743855987967623
 10
23.004057818132726
 20
-0.18719939366711383
 10
23.23692909453908
 20
-0.1473694483615147
 10
23.468792967100203
 20
-0.10771010512010558
 10
23.699649430696386
 20
-0.06822124478241706
 10
23.92950103749647
 20
-0.028962268843140255
 10
24.158360581622517
 20
0.009769040681200668
 10
24.38610374194946
 20
0.0480876778484543
 10
24.612842025001505
 20
0.08617690725917905
 10
24.838456229350268
 20
0.12403256250042441
 10
25.062951467012937
 20
0.16153566184210008
 10
25.28633285256652
 20
0.198567163973879
 10
25.508595256074905
 20
0.23524646768750013
 10
25.729679071704215
 20
0.27157160893695925
 10
25.949649009625958
 20
0.3074257487788759
 10
26.16838586841177
 20
0.3428047208003002
 10
26.385941558991355
 20
0.37788958723484484
 10
26.60219687481666
 20
0.41267630083003126
 10
26.817335719808
 20
0.4470523677961332
 10
27.031124815925057
 20
0.4808901756759844
 10
27.24368335179697
 20
0.514194188783711
 10
27.455008757335975
 20
0.547024225675653
 10
27.664976711416973
 20
0.5794952804096581
 10
27.873589761089107
 20
0.6115480706515056
 10
28.08096965227
 20
0.6431275400601584
 10
28.286940147785156
 20
0.6741677396203221
 10
28.491565952686383
 20
0.7045519495490864
 10
28.694779781594722
 20
0.7344569465066442
 10
28.89663866257677
 20
0.7639446918360457
 10
29.097085549646984
 20
0.7929536412558875
 10
29.29612043256598
 20
0.8214840330871123
 10
29.49369138248511
 20
0.8493552221577546
 10
29.689850312893938
 20
0.8767482111211922
 10
29.88448057453289
 20
0.9035994320697823
 10
30.07763663562021
 20
0.9300304265819744
 10
30.26932617058127
 20
0.9558625731120434
 10
30.459492128310856
 20
0.9810344465390572
 10
30.648126819024476
 20
1.0057250258901527
 10
30.83523023504261
 20
1.0299344899060379
 10
31.02080236612586
 20
1.0536630769076532
 10
31.20472912542287
 20
1.0767875791717227
 10
31.387134821259487
 20
1.0991933005415755
 10
31.567947046000196
 20
1.1211762377284367
 10
31.747108751099603
 20
1.1426749060311383
 10
31.924679524472683
 20
1.1636916865573337
 10
32.10060487742239
 20
1.1841055143704549
 10
32.27482264170666
 20
1.2039740652401332
 10
32.44744944866609
 20
1.2233613241356582
 10
32.618373766178024
 20
1.2420846222588262
 10
32.78759046686616
 20
1.2602632988211404
 10
32.95510210289934
 20
1.2778379523279082
 10
33.120900981933254
 20
1.2949876213865033
 10
33.28499221598503
 20
1.3115933242668334
 10
33.447316194101134
 20
1.327653216083367
 10
33.60787546845036
 20
1.3431078953414102
 10
33.76672707221898
 20
1.3580192042235426
 10
33.92374923389088
 20
1.372442794873156
 10
34.078941940666844
 20
1.386378965191427
 10
34.23236734798968
 20
1.399770337309902
 10
34.38402801826762
 20
1.4125572714129475
 10
34.53379711404463
 20
1.4249133289298082
 10
34.68173399540915
 20
1.4368461936090857
 10
34.827846590211536
 20
1.4481713454617509
 10
34.97207263549533
 20
1.4589486647261436
 10
35.11440700644412
 20
1.4692974310335325
 10
35.25491441578923
 20
1.4791007458602996
 10
35.39347820915143
 20
1.4882951604592751
 10
35.530152859868664
 20
1.497002097248437
 10
35.66493580041299
 20
1.5052813152038902
 10
35.79776742239069
 20
1.5131309098598658
 10
35.928652837818944
 20
1.5204318994862733
 10
36.05758947405015
 20
1.5272441622196875
 10
36.18457220626789
 20
1.5336869776913773
 10
36.30960358408114
 20
1.539701003986886
 10
36.43262912135271
 20
1.545165116589411
 10
36.55364880528338
 20
1.55007961340013
 10
36.67271199463404
 20
1.5546849581473476
 10
36.78976163573964
 20
1.558919785290368
 10
36.90479772604032
 20
1.5627841544094272
 10
37.0178228125852
 20
1.5662187831703016
 10
37.12877728954038
 20
1.5692217075269883
 10
37.23772074738067
 20
1.5717952490069038
 10
37.34458846313532
 20
1.574056544454606
 10
37.4493855437018
 20
1.5758867313004743
 10
37.5521068642637
 20
1.5774050891757772
 10
37.65281714011223
 20
1.5784946599766632
 10
37.75139203988289
 20
1.5792706760819206
 10
37.84788859932183
 20
1.5797949200938948
 10
37.94224976988367
 20
1.580005907311418
 10
38.034537707011246
 20
1.5798462598660372
 10
38.12468766213535
 20
1.579433710404665
 10
38.21276433774791
 20
1.5786515987246255
 10
38.29864100390659
 20
1.5776709838852774
 10
38.38243921710019
 20
1.5764412184830034
 10
38.46403984245643
 20
1.5749565870187336
 10
38.54350247556978
 20
1.5732192918594134
 10
38.620827111320565
 20
1.5712294521655141
 10
38.69601118218087
 20
1.5690468269131401
 10
38.76899764472502
 20
1.5666098122406535
 10
38.8397813690169
 20
1.5640378069397933
 10
38.908424518178904
 20
1.5612732544014003
 10
38.974864918849256
 20
1.5583739495555755
 10
39.039105128316464
 20
1.5552803717471553
 10
39.10114258417231
 20
1.5520521607917737
 10
39.16097983858562
 20
1.548629915194739
 10
39.218614329148174
 20
1.5450732747716844
 10
39.274040933603416
 20
1.5415014595736436
 10
39.32720516069448
 20
1.5377934642442852
 10
39.37822365712108
 20
1.534012916271487
 10
39.42691504553322
 20
1.5302135037526363
 10
39.47346069560134
 20
1.5263417173310514
 10
39.517741395657694
 20
1.5223936289147255
 10
39.5597520234457
 20
1.518488458554691
 10
39.5995547395279
 20
1.5145687092220237
 10
39.637089935510595
 20
1.5106324764509558
 10
39.67235249169704
 20
1.506798920712284
 10
39.70540712593829
 20
1.5029510243219215
 10
39.73618911526359
 20
1.4992059241244258
 10
39.76470101440162
 20
1.4955041590448694
 10
39.790937703655665
 20
1.49196488955405
 10
39.81490174287408
 20
1.4885285354165687
 10
39.83665017036283
 20
1.4852568196545344
 10
39.856063777014
 20
1.4821457545957035
 10
39.87319960881313
 20
1.4792568845214793
 10
39.88811726647438
 20
1.4765922926383355
 10
39.900697540889865
 20
1.4741479912740303
 10
39.91099491307704
 20
1.4720452241058348
 10
39.919071553837846
 20
1.4702262557838839
 10
39.92480312412825
 20
1.4688064974276736
 10
39.92824667761332
 20
1.4678473145778996
 10
39.92939708691681
 20
1.4674680464460663
  0
ENDSEC
  0
SECTION
  2
OBJECTS
  0
DICTIONARY
  5
A
330
0
100
AcDbDictionary
280
0
281
1
  3
ACAD_COLOR
350
B
  3
ACAD_GROUP
350
C
  3
ACAD_LAYOUT
350
D
  3
ACAD_MATERIAL
350
E
  3
ACAD_MLEADERSTYLE
350
F
  3
ACAD_MLINESTYLE
350
10
  3
ACAD_PLOTSETTINGS
350
11
  3
ACAD_PLOTSTYLENAME
350
12
  3
ACAD_SCALELIST
350
14
  3
ACAD_TABLESTYLE
350
15
  3
ACAD_VISUALSTYLE
350
16
  3
EZDXF_META
350
2D
  0
DICTIONARY
  5
B
330
A
100
AcDbDictionary
280
0
281
1
  0
DICTIONARY
  5
C
330
A
100
AcDbDictionary
280
0
281
1
  0
DICTIONARY
  5
D
330
A
100
AcDbDictionary
280
0
281
1
  3
Model
350
1A
  3
Layout1
350
1E
  0
DICTIONARY
  5
E
330
A
100
AcDbDictionary
280
0
281
1
  3
ByBlock
350
1F
  3
ByLayer
350
20
  3
Global
350
21
  0
DICTIONARY
  5
F
330
A
100
AcDbDictionary
280
0
281
1
  3
Standard
350
2C
  0
DICTIONARY
  5
10
330
A
100
AcDbDictionary
280
0
281
1
  3
Standard
350
22
  0
DICTIONARY
  5
11
330
A
100
AcDbDictionary
280
0
281
1
  0
ACDBDICTIONARYWDFLT
  5
12
330
A
100
AcDbDictionary
280
0
281
1
  3
Normal
350
13
100
AcDbDictionaryWithDefault
340
13
  0
ACDBPLACEHOLDER
  5
13
330
12
  0
DICTIONARY
  5
14
330
A
100
AcDbDictionary
280
0
281
1
  0
DICTIONARY
  5
15
330
A
100
AcDbDictionary
280
0
281
1
  0
DICTIONARY
  5
16
330
A
100
AcDbDictionary
280
0
281
1
  0
LAYOUT
  5
1A
330
D
100
AcDbPlotSettings
  1

  4
A3
  6

 40
7.5
 41
20.0
 42
7.5
 43
20.0
 44
420.0
 45
297.0
 46
0.0
 47
0.0
 48
0.0
 49
0.0
140
0.0
141
0.0
142
1.0
143
1.0
 70
1024
 72
1
 73
0
 74
5
  7

 75
16
 76
0
 77
2
 78
300
147
1.0
148
0.0
149
0.0
100
AcDbLayout
  1
Model
 70
1
 71
0
 10
0.0
 20
0.0
 11
420.0
 21
297.0
 12
0.0
 22
0.0
 32
0.0
 14
1e+20
 24
1e+20
 34
1e+20
 15
-1e+20
 25
-1e+20
 35
-1e+20
146
0.0
 13
0.0
 23
0.0
 33
0.0
 16
1.0
 26
0.0
 36
0.0
 17
0.0
 27
1.0
 37
0.0
 76
1
330
17
  0
LAYOUT
  5
1E
330
D
100
AcDbPlotSettings
  1

  4
A3
  6

 40
7.5
 41
20.0
 42
7.5
 43
20.0
 44
420.0
 45
297.0
 46
0.0
 47
0.0
 48
0.0
 49
0.0
140
0.0
141
0.0
142
1.0
143
1.0
 70
0
 72
1
 73
0
 74
5
  7

 75
16
 76
0
 77
2
 78
300
147
1.0
148
0.0
149
0.0
100
AcDbLayout
  1
Layout1
 70
1
 71
1
 10
0.0
 20
0.0
 11
420.0
 21
297.0
 12
0.0
 22
0.0
 32
0.0
 14
1e+20
 24
1e+20
 34
1e+20
 15
-1e+20
 25
-1e+20
 35
-1e+20
146
0.0
 13
0.0
 23
0.0
 33
0.0
 16
1.0
 26
0.0
 36
0.0
 17
0.0
 27
1.0
 37
0.0
 76
1
330
1B
  0
MATERIAL
  5
1F
102
{ACAD_REACTORS
330
E
102
}
330
E
100
AcDbMaterial
  1
ByBlock
  2

 70
0
 40
1.0
 71
1
 41
1.0
 91
-1023410177
 42
1.0
 72
1
  3

 73
1
 74
1
 75
1
 44
0.5
 73
0
 45
1.0
 46
1.0
 77
1
  4

 78
1
 79
1
170
1
 48
1.0
171
1
  6

172
1
173
1
174
1
140
1.0
141
1.0
175
1
  7

176
1
177
1
178
1
143
1.0
179
1
  8

270
1
271
1
272
1
145
1.0
146
1.0
273
1
  9

274
1
275
1
276
1
 42
1.0
 72
1
  3

 73
1
 74
1
 75
1
 94
63
  0
MATERIAL
  5
20
102
{ACAD_REACTORS
330
E
102
}
330
E
100
AcDbMaterial
  1
ByLayer
  2

 70
0
 40
1.0
 71
1
 41
1.0
 91
-1023410177
 42
1.0
 72
1
  3

 73
1
 74
1
 75
1
 44
0.5
 73
0
 45
1.0
 46
1.0
 77
1
  4

 78
1
 79
1
170
1
 48
1.0
171
1
  6

172
1
173
1
174
1
140
1.0
141
1.0
175
1
  7

176
1
177
1
178
1
143
1.0
179
1
  8

270
1
271
1
272
1
145
1.0
146
1.0
273
1
  9

274
1
275
1
276
1
 42
1.0
 72
1
  3

 73
1
 74
1
 75
1
 94
63
  0
MATERIAL
  5
21
102
{ACAD_REACTORS
330
E
102
}
330
E
100
AcDbMaterial
  1
Global
  2

 70
0
 40
1.0
 71
1
 41
1.0
 91
-1023410177
 42
1.0
 72
1
  3

 73
1
 74
1
 75
1
 44
0.5
 73
0
 45
1.0
 46
1.0
 77
1
  4

 78
1
 79
1
170
1
 48
1.0
171
1
  6

172
1
173
1
174
1
140
1.0
141
1.0
175
1
  7

176
1
177
1
178
1
143
1.0
179
1
  8

270
1
271
1
272
1
145
1.0
146
1.0
273
1
  9

274
1
275
1
276
1
 42
1.0
 72
1
  3

 73
1
 74
1
 75
1
 94
63
  0
MLINESTYLE
  5
22
102
{ACAD_REACTORS
330
10
102
}
330
10
100
AcDbMlineStyle
  2
Standard
 70
0
  3

 62
256
 51
90.0
 52
90.0
 71
2
 49
0.5
 62
256
  6
BYLAYER
 49
-0.5
 62
256
  6
BYLAYER
  0
MLEADERSTYLE
  5
2C
102
{ACAD_REACTORS
330
F
102
}
330
F
100
AcDbMLeaderStyle
179
2
170
2
171
1
172
0
 90
2
 40
0.0
 41
0.0
173
1
 91
-1056964608
 92
-2
290
1
 42
2.0
291
1
 43
8.0
  3
Standard
 44
4.0
300

342
29
174
1
175
1
176
0
178
1
 93
-1056964608
 45
4.0
292
0
297
0
 46
4.0
 94
-1056964608
 47
1.0
 49
1.0
140
1.0
294
1
141
0.0
177
0
142
1.0
295
0
296
0
143
3.75
271
0
272
9
273
9
  0
DICTIONARY
  5
2D
330
A
100
AcDbDictionary
280
1
281
1
  3
CREATED_BY_EZDXF
350
2E
  3
WRITTEN_BY_EZDXF
350
32
  0
DICTIONARYVAR
  5
2E
330
2D
100
DictionaryVariables
280
0
  1
1.3.5 @ 2025-08-20T01:58:58.846396+00:00
  0
DICTIONARYVAR
  5
32
330
2D
100
DictionaryVariables
280
0
  1
1.3.5 @ 2025-08-20T01:58:58.853378+00:00
  0
ENDSEC
  0
EOF
