  0
SECTION
  2
HEADER
  9
$ACADVER
  1
AC1032
  9
$ACADMAINTVER
 90
4
  9
$DWGCODEPAGE
  3
ANSI_1252
  9
$LASTSAVEDBY
  1
ezdxf
  9
$REQUIREDVERSIONS
160
0
  9
$INSBASE
 10
0.0
 20
0.0
 30
0.0
  9
$EXTMIN
 10
1e+20
 20
1e+20
 30
1e+20
  9
$EXTMAX
 10
-1e+20
 20
-1e+20
 30
-1e+20
  9
$LIMMIN
 10
0.0
 20
0.0
  9
$LIMMAX
 10
420.0
 20
297.0
  9
$ORTHOMODE
 70
0
  9
$REGENMODE
 70
1
  9
$FILLMODE
 70
1
  9
$QTEXTMODE
 70
0
  9
$MIRRTEXT
 70
1
  9
$LTSCALE
 40
1.0
  9
$ATTMODE
 70
1
  9
$TEXTSIZE
 40
2.5
  9
$TRACEWID
 40
1.0
  9
$TEXTSTYLE
  7
Standard
  9
$CLAYER
  8
0
  9
$CELTYPE
  6
ByLayer
  9
$CECOLOR
 62
256
  9
$CELTSCALE
 40
1.0
  9
$DISPSILH
 70
0
  9
$DIMSCALE
 40
1.0
  9
$DIMASZ
 40
2.5
  9
$DIMEXO
 40
0.625
  9
$DIMDLI
 40
3.75
  9
$DIMRND
 40
0.0
  9
$DIMDLE
 40
0.0
  9
$DIMEXE
 40
1.25
  9
$DIMTP
 40
0.0
  9
$DIMTM
 40
0.0
  9
$DIMTXT
 40
2.5
  9
$DIMCEN
 40
2.5
  9
$DIMTSZ
 40
0.0
  9
$DIMTOL
 70
0
  9
$DIMLIM
 70
0
  9
$DIMTIH
 70
0
  9
$DIMTOH
 70
0
  9
$DIMSE1
 70
0
  9
$DIMSE2
 70
0
  9
$DIMTAD
 70
1
  9
$DIMZIN
 70
8
  9
$DIMBLK
  1

  9
$DIMASO
 70
1
  9
$DIMSHO
 70
1
  9
$DIMPOST
  1

  9
$DIMAPOST
  1

  9
$DIMALT
 70
0
  9
$DIMALTD
 70
3
  9
$DIMALTF
 40
0.03937007874
  9
$DIMLFAC
 40
1.0
  9
$DIMTOFL
 70
1
  9
$DIMTVP
 40
0.0
  9
$DIMTIX
 70
0
  9
$DIMSOXD
 70
0
  9
$DIMSAH
 70
0
  9
$DIMBLK1
  1

  9
$DIMBLK2
  1

  9
$DIMSTYLE
  2
ISO-25
  9
$DIMCLRD
 70
0
  9
$DIMCLRE
 70
0
  9
$DIMCLRT
 70
0
  9
$DIMTFAC
 40
1.0
  9
$DIMGAP
 40
0.625
  9
$DIMJUST
 70
0
  9
$DIMSD1
 70
0
  9
$DIMSD2
 70
0
  9
$DIMTOLJ
 70
0
  9
$DIMTZIN
 70
8
  9
$DIMALTZ
 70
0
  9
$DIMALTTZ
 70
0
  9
$DIMUPT
 70
0
  9
$DIMDEC
 70
2
  9
$DIMTDEC
 70
2
  9
$DIMALTU
 70
2
  9
$DIMALTTD
 70
3
  9
$DIMTXSTY
  7
Standard
  9
$DIMAUNIT
 70
0
  9
$DIMADEC
 70
0
  9
$DIMALTRND
 40
0.0
  9
$DIMAZIN
 70
0
  9
$DIMDSEP
 70
44
  9
$DIMATFIT
 70
3
  9
$DIMFRAC
 70
0
  9
$DIMLDRBLK
  1

  9
$DIMLUNIT
 70
2
  9
$DIMLWD
 70
-2
  9
$DIMLWE
 70
-2
  9
$DIMTMOVE
 70
0
  9
$DIMFXL
 40
1.0
  9
$DIMFXLON
 70
0
  9
$DIMJOGANG
 40
0.785398163397
  9
$DIMTFILL
 70
0
  9
$DIMTFILLCLR
 70
0
  9
$DIMARCSYM
 70
0
  9
$DIMLTYPE
  6

  9
$DIMLTEX1
  6

  9
$DIMLTEX2
  6

  9
$DIMTXTDIRECTION
 70
0
  9
$LUNITS
 70
2
  9
$LUPREC
 70
4
  9
$SKETCHINC
 40
1.0
  9
$FILLETRAD
 40
10.0
  9
$AUNITS
 70
0
  9
$AUPREC
 70
2
  9
$MENU
  1
.
  9
$ELEVATION
 40
0.0
  9
$PELEVATION
 40
0.0
  9
$THICKNESS
 40
0.0
  9
$LIMCHECK
 70
0
  9
$CHAMFERA
 40
0.0
  9
$CHAMFERB
 40
0.0
  9
$CHAMFERC
 40
0.0
  9
$CHAMFERD
 40
0.0
  9
$SKPOLY
 70
0
  9
$TDCREATE
 40
2460908.1242824076
  9
$TDUCREATE
 40
2458532.153996898
  9
$TDUPDATE
 40
2460908.1242824076
  9
$TDUUPDATE
 40
2458532.1544311
  9
$TDINDWG
 40
0.0
  9
$TDUSRTIMER
 40
0.0
  9
$USRTIMER
 70
1
  9
$ANGBASE
 50
0.0
  9
$ANGDIR
 70
0
  9
$PDMODE
 70
0
  9
$PDSIZE
 40
0.0
  9
$PLINEWID
 40
0.0
  9
$SPLFRAME
 70
0
  9
$SPLINETYPE
 70
6
  9
$SPLINESEGS
 70
8
  9
$HANDSEED
  5
33
  9
$SURFTAB1
 70
6
  9
$SURFTAB2
 70
6
  9
$SURFTYPE
 70
6
  9
$SURFU
 70
6
  9
$SURFV
 70
6
  9
$UCSBASE
  2

  9
$UCSNAME
  2

  9
$UCSORG
 10
0.0
 20
0.0
 30
0.0
  9
$UCSXDIR
 10
1.0
 20
0.0
 30
0.0
  9
$UCSYDIR
 10
0.0
 20
1.0
 30
0.0
  9
$UCSORTHOREF
  2

  9
$UCSORTHOVIEW
 70
0
  9
$UCSORGTOP
 10
0.0
 20
0.0
 30
0.0
  9
$UCSORGBOTTOM
 10
0.0
 20
0.0
 30
0.0
  9
$UCSORGLEFT
 10
0.0
 20
0.0
 30
0.0
  9
$UCSORGRIGHT
 10
0.0
 20
0.0
 30
0.0
  9
$UCSORGFRONT
 10
0.0
 20
0.0
 30
0.0
  9
$UCSORGBACK
 10
0.0
 20
0.0
 30
0.0
  9
$PUCSBASE
  2

  9
$PUCSNAME
  2

  9
$PUCSORG
 10
0.0
 20
0.0
 30
0.0
  9
$PUCSXDIR
 10
1.0
 20
0.0
 30
0.0
  9
$PUCSYDIR
 10
0.0
 20
1.0
 30
0.0
  9
$PUCSORTHOREF
  2

  9
$PUCSORTHOVIEW
 70
0
  9
$PUCSORGTOP
 10
0.0
 20
0.0
 30
0.0
  9
$PUCSORGBOTTOM
 10
0.0
 20
0.0
 30
0.0
  9
$PUCSORGLEFT
 10
0.0
 20
0.0
 30
0.0
  9
$PUCSORGRIGHT
 10
0.0
 20
0.0
 30
0.0
  9
$PUCSORGFRONT
 10
0.0
 20
0.0
 30
0.0
  9
$PUCSORGBACK
 10
0.0
 20
0.0
 30
0.0
  9
$USERI1
 70
0
  9
$USERI2
 70
0
  9
$USERI3
 70
0
  9
$USERI4
 70
0
  9
$USERI5
 70
0
  9
$USERR1
 40
0.0
  9
$USERR2
 40
0.0
  9
$USERR3
 40
0.0
  9
$USERR4
 40
0.0
  9
$USERR5
 40
0.0
  9
$WORLDVIEW
 70
1
  9
$SHADEDGE
 70
3
  9
$SHADEDIF
 70
70
  9
$TILEMODE
 70
1
  9
$MAXACTVP
 70
64
  9
$PINSBASE
 10
0.0
 20
0.0
 30
0.0
  9
$PLIMCHECK
 70
0
  9
$PEXTMIN
 10
1e+20
 20
1e+20
 30
1e+20
  9
$PEXTMAX
 10
-1e+20
 20
-1e+20
 30
-1e+20
  9
$PLIMMIN
 10
0.0
 20
0.0
  9
$PLIMMAX
 10
420.0
 20
297.0
  9
$UNITMODE
 70
0
  9
$VISRETAIN
 70
1
  9
$PLINEGEN
 70
0
  9
$PSLTSCALE
 70
1
  9
$TREEDEPTH
 70
3020
  9
$CMLSTYLE
  2
Standard
  9
$CMLJUST
 70
0
  9
$CMLSCALE
 40
20.0
  9
$PROXYGRAPHICS
 70
1
  9
$MEASUREMENT
 70
1
  9
$CELWEIGHT
370
-1
  9
$ENDCAPS
280
0
  9
$JOINSTYLE
280
0
  9
$LWDISPLAY
290
0
  9
$INSUNITS
 70
6
  9
$HYPERLINKBASE
  1

  9
$STYLESHEET
  1

  9
$XEDIT
290
1
  9
$CEPSNTYPE
380
0
  9
$PSTYLEMODE
290
1
  9
$FINGERPRINTGUID
  2
{51F1319B-8754-4A8F-9A0F-36A8151DAEF3}
  9
$VERSIONGUID
  2
{F715DB46-7777-4F38-B492-ABC3D8A148FA}
  9
$EXTNAMES
290
1
  9
$PSVPSCALE
 40
0.0
  9
$OLESTARTUP
290
0
  9
$SORTENTS
280
127
  9
$INDEXCTL
280
0
  9
$HIDETEXT
280
1
  9
$XCLIPFRAME
280
1
  9
$HALOGAP
280
0
  9
$OBSCOLOR
 70
257
  9
$OBSLTYPE
280
0
  9
$INTERSECTIONDISPLAY
280
0
  9
$INTERSECTIONCOLOR
 70
257
  9
$DIMASSOC
280
2
  9
$PROJECTNAME
  1

  9
$CAMERADISPLAY
290
0
  9
$LENSLENGTH
 40
50.0
  9
$CAMERAHEIGHT
 40
0.0
  9
$STEPSPERSEC
 40
24.0
  9
$STEPSIZE
 40
100.0
  9
$3DDWFPREC
 40
2.0
  9
$PSOLWIDTH
 40
0.005
  9
$PSOLHEIGHT
 40
0.08
  9
$LOFTANG1
 40
1.570796326795
  9
$LOFTANG2
 40
1.570796326795
  9
$LOFTMAG1
 40
0.0
  9
$LOFTMAG2
 40
0.0
  9
$LOFTPARAM
 70
7
  9
$LOFTNORMALS
280
1
  9
$LATITUDE
 40
37.795
  9
$LONGITUDE
 40
-122.394
  9
$NORTHDIRECTION
 40
0.0
  9
$TIMEZONE
 70
-8000
  9
$LIGHTGLYPHDISPLAY
280
1
  9
$TILEMODELIGHTSYNCH
280
1
  9
$CMATERIAL
347
20
  9
$SOLIDHIST
280
0
  9
$SHOWHIST
280
1
  9
$DWFFRAME
280
2
  9
$DGNFRAME
280
2
  9
$REALWORLDSCALE
290
1
  9
$INTERFERECOLOR
 62
256
  9
$CSHADOW
280
0
  9
$SHADOWPLANELOCATION
 40
0.0
  0
ENDSEC
  0
SECTION
  2
CLASSES
  0
CLASS
  1
ACDBDICTIONARYWDFLT
  2
AcDbDictionaryWithDefault
  3
ObjectDBX Classes
 90
0
 91
0
280
0
281
0
  0
CLASS
  1
SUN
  2
AcDbSun
  3
SCENEOE
 90
1153
 91
0
280
0
281
0
  0
CLASS
  1
VISUALSTYLE
  2
AcDbVisualStyle
  3
ObjectDBX Classes
 90
4095
 91
0
280
0
281
0
  0
CLASS
  1
MATERIAL
  2
AcDbMaterial
  3
ObjectDBX Classes
 90
1153
 91
0
280
0
281
0
  0
CLASS
  1
SCALE
  2
AcDbScale
  3
ObjectDBX Classes
 90
1153
 91
0
280
0
281
0
  0
CLASS
  1
TABLESTYLE
  2
AcDbTableStyle
  3
ObjectDBX Classes
 90
4095
 91
0
280
0
281
0
  0
CLASS
  1
MLEADERSTYLE
  2
AcDbMLeaderStyle
  3
ACDB_MLEADERSTYLE_CLASS
 90
4095
 91
0
280
0
281
0
  0
CLASS
  1
DICTIONARYVAR
  2
AcDbDictionaryVar
  3
ObjectDBX Classes
 90
0
 91
0
280
0
281
0
  0
CLASS
  1
CELLSTYLEMAP
  2
AcDbCellStyleMap
  3
ObjectDBX Classes
 90
1152
 91
0
280
0
281
0
  0
CLASS
  1
MENTALRAYRENDERSETTINGS
  2
AcDbMentalRayRenderSettings
  3
SCENEOE
 90
1024
 91
0
280
0
281
0
  0
CLASS
  1
ACDBDETAILVIEWSTYLE
  2
AcDbDetailViewStyle
  3
ObjectDBX Classes
 90
1025
 91
0
280
0
281
0
  0
CLASS
  1
ACDBSECTIONVIEWSTYLE
  2
AcDbSectionViewStyle
  3
ObjectDBX Classes
 90
1025
 91
0
280
0
281
0
  0
CLASS
  1
RASTERVARIABLES
  2
AcDbRasterVariables
  3
ISM
 90
0
 91
0
280
0
281
0
  0
CLASS
  1
ACDBPLACEHOLDER
  2
AcDbPlaceHolder
  3
ObjectDBX Classes
 90
0
 91
0
280
0
281
0
  0
CLASS
  1
LAYOUT
  2
AcDbLayout
  3
ObjectDBX Classes
 90
0
 91
0
280
0
281
0
  0
ENDSEC
  0
SECTION
  2
TABLES
  0
TABLE
  2
VPORT
  5
8
330
0
100
AcDbSymbolTable
 70
1
  0
VPORT
  5
23
330
8
100
AcDbSymbolTableRecord
100
AcDbViewportTableRecord
  2
*Active
 70
0
 10
0.0
 20
0.0
 11
1.0
 21
1.0
 12
0.0
 22
0.0
 13
0.0
 23
0.0
 14
0.5
 24
0.5
 15
0.5
 25
0.5
 16
0.0
 26
0.0
 36
1.0
 17
0.0
 27
0.0
 37
0.0
 40
1000.0
 41
1.34
 42
50.0
 43
0.0
 44
0.0
 50
0.0
 51
0.0
 71
0
 72
1000
 73
1
 74
3
 75
0
 76
0
 77
0
 78
0
281
0
 65
0
146
0.0
  0
ENDTAB
  0
TABLE
  2
LTYPE
  5
2
330
0
100
AcDbSymbolTable
 70
3
  0
LTYPE
  5
24
330
2
100
AcDbSymbolTableRecord
100
AcDbLinetypeTableRecord
  2
ByBlock
 70
0
  3

 72
65
 73
0
 40
0.0
  0
LTYPE
  5
25
330
2
100
AcDbSymbolTableRecord
100
AcDbLinetypeTableRecord
  2
ByLayer
 70
0
  3

 72
65
 73
0
 40
0.0
  0
LTYPE
  5
26
330
2
100
AcDbSymbolTableRecord
100
AcDbLinetypeTableRecord
  2
Continuous
 70
0
  3

 72
65
 73
0
 40
0.0
  0
ENDTAB
  0
TABLE
  2
LAYER
  5
1
330
0
100
AcDbSymbolTable
 70
2
  0
LAYER
  5
27
330
1
100
AcDbSymbolTableRecord
100
AcDbLayerTableRecord
  2
0
 70
0
 62
7
  6
Continuous
370
-3
390
13
347
21
  0
LAYER
  5
28
330
1
100
AcDbSymbolTableRecord
100
AcDbLayerTableRecord
  2
Defpoints
 70
0
 62
7
  6
Continuous
290
0
370
-3
390
13
347
21
  0
ENDTAB
  0
TABLE
  2
STYLE
  5
5
330
0
100
AcDbSymbolTable
 70
1
  0
STYLE
  5
29
330
5
100
AcDbSymbolTableRecord
100
AcDbTextStyleTableRecord
  2
Standard
 70
0
 40
0.0
 41
1.0
 50
0.0
 71
0
 42
2.5
  3
txt
  4

  0
ENDTAB
  0
TABLE
  2
VIEW
  5
7
330
0
100
AcDbSymbolTable
 70
0
  0
ENDTAB
  0
TABLE
  2
UCS
  5
6
330
0
100
AcDbSymbolTable
 70
0
  0
ENDTAB
  0
TABLE
  2
APPID
  5
3
330
0
100
AcDbSymbolTable
 70
3
  0
APPID
  5
2A
330
3
100
AcDbSymbolTableRecord
100
AcDbRegAppTableRecord
  2
ACAD
 70
0
  0
APPID
  5
30
330
3
100
AcDbSymbolTableRecord
100
AcDbRegAppTableRecord
  2
HATCHBACKGROUNDCOLOR
 70
0
  0
APPID
  5
31
330
3
100
AcDbSymbolTableRecord
100
AcDbRegAppTableRecord
  2
EZDXF
 70
0
  0
ENDTAB
  0
TABLE
  2
DIMSTYLE
  5
4
330
0
100
AcDbSymbolTable
 70
1
100
AcDbDimStyleTable
  0
DIMSTYLE
105
2B
330
4
100
AcDbSymbolTableRecord
100
AcDbDimStyleTableRecord
  2
Standard
 70
0
 40
1.0
 41
2.5
 42
0.625
 43
3.75
 44
1.25
 45
0.0
 46
0.0
 47
0.0
 48
0.0
 49
2.5
140
2.5
141
2.5
142
0.0
143
0.03937007874
144
1.0
145
0.0
146
1.0
147
0.625
148
0.0
 69
0
 70
0
 71
0
 72
0
 73
0
 74
0
 75
0
 76
0
 77
1
 78
8
 79
3
170
0
171
3
172
1
173
0
174
0
175
0
176
0
177
0
178
0
179
2
271
2
272
2
273
2
274
3
275
0
276
0
277
2
278
44
279
0
280
0
281
0
282
0
283
0
284
8
285
0
286
0
288
0
289
3
290
0
371
-2
372
-2
  0
ENDTAB
  0
TABLE
  2
BLOCK_RECORD
  5
9
330
0
100
AcDbSymbolTable
 70
2
  0
BLOCK_RECORD
  5
17
330
9
100
AcDbSymbolTableRecord
100
AcDbBlockTableRecord
  2
*Model_Space
340
1A
 70
0
280
1
281
0
  0
BLOCK_RECORD
  5
1B
330
9
100
AcDbSymbolTableRecord
100
AcDbBlockTableRecord
  2
*Paper_Space
340
1E
 70
0
280
1
281
0
  0
ENDTAB
  0
ENDSEC
  0
SECTION
  2
BLOCKS
  0
BLOCK
  5
18
330
17
100
AcDbEntity
  8
0
100
AcDbBlockBegin
  2
*Model_Space
 70
0
 10
0.0
 20
0.0
 30
0.0
  3
*Model_Space
  1

  0
ENDBLK
  5
19
330
17
100
AcDbEntity
  8
0
100
AcDbBlockEnd
  0
BLOCK
  5
1C
330
1B
100
AcDbEntity
  8
0
100
AcDbBlockBegin
  2
*Paper_Space
 70
0
 10
0.0
 20
0.0
 30
0.0
  3
*Paper_Space
  1

  0
ENDBLK
  5
1D
330
1B
100
AcDbEntity
  8
0
100
AcDbBlockEnd
  0
ENDSEC
  0
SECTION
  2
ENTITIES
  0
LWPOLYLINE
  5
2F
330
17
100
AcDbEntity
  8
0
100
AcDbPolyline
 90
721
 70
1
 10
60.565762594898175
 20
7.616779669936777
 10
60.563968817624335
 20
7.617185601693211
 10
60.55860967943433
 20
7.6182223534929125
 10
60.549729489991165
 20
7.6195284714158085
 10
60.53721579064573
 20
7.621272556731906
 10
60.52128244622337
 20
7.623207566910779
 10
60.5018280727193
 20
7.62541176235024
 10
60.478773413245904
 20
7.6277829025663255
 10
60.45229911978128
 20
7.630344877213881
 10
60.42232593543787
 20
7.632995445808946
 10
60.38874136830935
 20
7.635903480915434
 10
60.351748241833924
 20
7.638912009581201
 10
60.311256202308236
 20
7.642009313057083
 10
60.26725416400224
 20
7.645285822646577
 10
60.219764298375985
 20
7.648560675742687
 10
60.16876441179798
 20
7.652014915815016
 10
60.114355921530134
 20
7.6555700111718386
 10
60.056448473869104
 20
7.659214243063991
 10
59.99503098308482
 20
7.663038042794965
 10
59.93021592999788
 20
7.666872628232157
 10
59.86189080053047
 20
7.670887052802078
 10
59.79007775505701
 20
7.6749005443290494
 10
59.714935263009764
 20
7.679117945506211
 10
59.636203415523035
 20
7.6834131261947505
 10
59.55415317393537
 20
7.687822056523896
 10
59.46860387518294
 20
7.692320937270101
 10
59.37964581754048
 20
7.696921939339049
 10
59.287278989922264
 20
7.7016251531620465
 10
59.191492295512504
 20
7.70652110047389
 10
59.09228570105403
 20
7.711610052568491
 10
58.98968136692117
 20
7.716711237270159
 10
58.88365711056814
 20
7.722005607617194
 10
58.77431430491396
 20
7.727414993643084
 10
58.66155153269668
 20
7.733017927039552
 10
58.545390921033466
 20
7.738633906924821
 10
58.425900629996136
 20
7.7444556955176544
 10
58.30306954059747
 20
7.75057399541546
 10
58.17693088785616
 20
7.756717693570359
 10
58.04737213552297
 20
7.763056024271477
 10
57.91458502130609
 20
7.769522445870171
 10
57.7783777631544
 20
7.776183861740298
 10
57.63893100196034
 20
7.783064251968015
 10
57.49615437293476
 20
7.790151988235457
 10
57.350138185438134
 20
7.797459151017002
 10
57.20080316041138
 20
7.804883680691296
 10
57.04823960721498
 20
7.812437657732717
 10
56.892334989599725
 20
7.820290316430393
 10
56.73328103418806
 20
7.828375205566986
 10
56.57098737619084
 20
7.836680696824628
 10
56.40545399343664
 20
7.845206971065929
 10
56.23668083049679
 20
7.853954480447407
 10
56.06474713317318
 20
7.863025555884331
 10
55.889573600235266
 20
7.872318318617944
 10
55.711239466399206
 20
7.881935189994825
 10
55.5297557619664
 20
7.891786190867995
 10
55.3451446473112
 20
7.901690549061764
 10
55.157474238162514
 20
7.911841388520111
 10
54.966632009356886
 20
7.922407853100862
 10
54.772617905465665
 20
7.933390394960535
 10
54.57555550412517
 20
7.944529710231718
 10
54.375433675262435
 20
7.955916591943123
 10
54.17225239670601
 20
7.967551220957357
 10
53.9659783558371
 20
7.979705343341421
 10
53.75666694804875
 20
7.991927073871752
 10
53.54438631124132
 20
8.004409355629717
 10
53.32912532642758
 20
8.017242891212724
 10
53.11078253200266
 20
8.030506574037712
 10
52.88954964350324
 20
8.04413404331864
 10
52.665347370784545
 20
8.058023329865454
 10
52.438175691675085
 20
8.07217461454076
 10
52.208102721903806
 20
8.086781021288537
 10
51.97517276004792
 20
8.101481186620017
 10
51.73927328094399
 20
8.116444254393025
 10
51.50057381758291
 20
8.131784816859815
 10
51.25907433670746
 20
8.147503145314301
 10
51.01470664498863
 20
8.163406748831626
 10
50.76745960126773
 20
8.179586510871808
 10
50.517513846437126
 20
8.196066411520995
 10
50.26475683316192
 20
8.21301577549962
 10
50.00922178537501
 20
8.230163580191109
 10
49.750999001351175
 20
8.247521996501145
 10
49.490088447833195
 20
8.26509129572364
 10
49.22646789793236
 20
8.2830527926221
 10
48.96013731839144
 20
8.301406758490435
 10
48.691107761683334
 20
8.320063033319062
 10
48.41957095443045
 20
8.338955165890642
 10
48.145335081324504
 20
8.358150330872938
 10
47.868490451725975
 20
8.377660608740333
 10
47.589160632185475
 20
8.397226786056725
 10
47.30724413892661
 20
8.416927937101653
 10
47.02279802411976
 20
8.437047436259983
 10
46.73591259712536
 20
8.457597364006098
 10
46.446429288739566
 20
8.478373691528585
 10
46.15456201921633
 20
8.499128924140503
 10
45.86026640129256
 20
8.52022514878105
 10
45.563553487441126
 20
8.541572205440636
 10
45.26441214758906
 20
8.563260887147976
 10
44.96295485147118
 20
8.58512250220176
 10
44.65918157691603
 20
8.607157231464596
 10
44.3530019258773
 20
8.629353717912531
 10
44.04458546460306
 20
8.65182628250391
 10
43.733841817218476
 20
8.674563387352178
 10
43.4208834645441
 20
8.69739625032472
 10
43.10571036223699
 20
8.720325233146749
 10
42.788412830743376
 20
8.743362325861346
 10
42.46888938628689
 20
8.766586602748053
 10
42.147208177853635
 20
8.790190916456934
 10
41.823312053501716
 20
8.813892706484861
 10
41.49746097752551
 20
8.837817650814124
 10
41.16951854109551
 20
8.86158094845763
 10
40.839473603052994
 20
8.885273482875384
 10
40.50747359144317
 20
8.909190166338817
 10
40.17350737619308
 20
8.933421791876642
 10
39.83742747382887
 20
8.957673899373942
 10
39.49961744845271
 20
8.981812682083003
 10
39.15981728034158
 20
9.005712914178043
 10
38.81817437536918
 20
9.029669688793097
 10
38.47458726084492
 20
9.053761989776403
 10
38.12924770773414
 20
9.077923004185411
 10
37.78209858626639
 20
9.10186999065437
 10
37.43320804542777
 20
9.12579580183335
 10
37.08255386941531
 20
9.149881662054561
 10
36.73019146470772
 20
9.173675595663127
 10
36.37613188377786
 20
9.197087442649464
 10
36.02050038321086
 20
9.220592977891991
 10
35.66312729698705
 20
9.244078694314094
 10
35.30418222461169
 20
9.267658641580208
 10
34.94373165829361
 20
9.290790412731969
 10
34.58176447904551
 20
9.313564710366775
 10
34.21825849323592
 20
9.336162577954232
 10
33.85318038824601
 20
9.358855761561337
 10
33.4867552365742
 20
9.381305792609844
 10
33.11884659613378
 20
9.403128141406553
 10
32.749692304101956
 20
9.424628986815543
 10
32.379056146821675
 20
9.446237680875086
 10
32.007072832002166
 20
9.467604126689059
 10
31.633786647134983
 20
9.4883670512
 10
31.259356161423995
 20
9.508730483219317
 10
30.883589504132274
 20
9.528762049571302
 10
30.506656308022283
 20
9.548575528626479
 10
30.12847726077776
 20
9.568069132057403
 10
29.749164887562173
 20
9.587073716006243
 10
29.36880954207891
 20
9.60560099922217
 10
28.987320815195922
 20
9.623639715112533
 10
28.60487944757719
 20
9.641213029881756
 10
28.221304654215817
 20
9.658298139050629
 10
27.836754982144235
 20
9.675099252293176
 10
27.4512415281782
 20
9.691525847874592
 10
27.06481967662501
 20
9.707126131002621
 10
26.677467233853125
 20
9.722081145146852
 10
26.289353865882187
 20
9.736504397383904
 10
25.900287701975266
 20
9.750463514538064
 10
25.510471654256428
 20
9.763800800206766
 10
25.119916797369964
 20
9.776425913517816
 10
24.72863420596021
 20
9.788248513599017
 10
24.33660166422413
 20
9.79944982478258
 10
23.94389848447802
 20
9.810131635395953
 10
23.55052463346466
 20
9.820294216733044
 10
23.156603744249043
 20
9.829677812769926
 10
22.762056504514906
 20
9.838180635179155
 10
22.366984364781395
 20
9.845723880975092
 10
21.971444454818958
 20
9.852590291523482
 10
21.575313108305437
 20
9.859039894142164
 10
21.17879327062208
 20
9.864914721134662
 10
20.781883229562894
 20
9.869479965049052
 10
20.38451643749046
 20
9.873278485000222
 10
19.986862615853063
 20
9.876423335908267
 10
19.588853504807307
 20
9.878722569436158
 10
19.190500201168934
 20
9.88008566384909
 10
18.791950210583277
 20
9.88080689839937
 10
18.393124242905497
 20
9.88078430389694
 10
17.994145920114864
 20
9.879758214749183
 10
17.594924844165046
 20
9.877717273932134
 10
17.195630736504366
 20
9.874774536365901
 10
16.796252489231307
 20
9.871020614216581
 10
16.396823370621735
 20
9.866184123142387
 10
15.997332272774146
 20
9.860355675309421
 10
15.597858519090527
 20
9.853636968613824
 10
15.198278454334451
 20
9.846287939942133
 10
14.798839388978777
 20
9.837788715521281
 10
14.399541323023515
 20
9.828139295351265
 10
14.000373181824344
 20
9.81743002030428
 10
13.601323857479766
 20
9.805751502546427
 10
13.202494867023317
 20
9.793024396504252
 10
12.80378471559292
 20
9.779327866888602
 10
12.405385296096961
 20
9.764594106012584
 10
12.007318791081245
 20
9.7486421608379
 10
11.609574114815738
 20
9.73156246266805
 10
11.212140192656129
 20
9.713445352375224
 10
10.81502811033246
 20
9.694200398655925
 10
10.418440879740347
 20
9.673669091225857
 10
10.02226590920193
 20
9.652021116530662
 10
9.626571458560635
 20
9.629448422907373
 10
9.231322547334624
 20
9.605487587245866
 10
8.836677833413615
 20
9.580341914907125
 10
8.442604092864684
 20
9.554282428507722
 10
8.049044151574455
 20
9.52702674840714
 10
7.65620104361
 20
9.498416183458462
 10
7.264052608596975
 20
9.468631505837376
 10
6.872530597777687
 20
9.437480676775547
 10
6.48179370229904
 20
9.405166730340053
 10
6.091773684489102
 20
9.371497537331248
 10
5.702640310139079
 20
9.336585790944023
 10
5.314179503794766
 20
9.30068025190356
 10
4.926594299523255
 20
9.263622229062957
 10
4.539929040244712
 20
9.225049997208227
 10
4.154172673486267
 20
9.185053716348957
 10
3.7693823622755858
 20
9.143915856556978
 10
3.385569236685611
 20
9.101545624803585
 10
3.002744393532121
 20
9.057852499353976
 10
2.6209982752043435
 20
9.012847475506884
 10
2.2402182900244334
 20
8.966700239707967
 10
1.860472742178703
 20
8.919602378569035
 10
1.4818964058908377
 20
8.871203252606149
 10
1.1045114747923754
 20
8.821321818349713
 10
0.7282958106804148
 20
8.770138667112809
 10
0.35332977901558166
 20
8.717746996249046
 10
-0.020475255617354592
 20
8.664121070157222
 10
-0.39303991438775254
 20
8.609362134576966
 10
-0.764284851722161
 20
8.553571706541806
 10
-1.1342561560038942
 20
8.49637697510773
 10
-1.5028633959294733
 20
8.437789026004772
 10
-1.8700715688456053
 20
8.378271101480454
 10
-2.2359489345956987
 20
8.317631253197742
 10
-2.6003035448427254
 20
8.255801221313229
 10
-2.9633162621936755
 20
8.192758834366824
 10
-3.3248062240415517
 20
8.128526263818618
 10
-3.684705170542952
 20
8.063295458005639
 10
-4.043205050034902
 20
7.9971346767713
 10
-4.400160002563705
 20
7.929602849328166
 10
-4.755455679902613
 20
7.861264734957294
 10
-5.109204684815204
 20
7.792290110535634
 10
-5.461430934224731
 20
7.72212530251217
 10
-5.811863134220699
 20
7.650803568077032
 10
-6.160624973296737
 20
7.578585115410657
 10
-6.507727537182883
 20
7.505560375816546
 10
-6.853148654419048
 20
7.431548486687707
 10
-7.196718548128289
 20
7.356662050787718
 10
-7.538618080917594
 20
7.280878896656499
 10
-7.878699647370102
 20
7.204492489664615
 10
-8.21694107602573
 20
7.12732196720508
 10
-8.553331281154428
 20
7.049276897974398
 10
-8.887881348486244
 20
6.970447713276062
 10
-9.220523018177765
 20
6.891026361447107
 10
-9.551346721532484
 20
6.8110017567574905
 10
-9.88014942448333
 20
6.730215208060308
 10
-10.206931127030302
 20
6.648666715355555
 10
-10.531771174746853
 20
6.566254761609696
 10
-10.854590222059528
 20
6.483080863856268
 10
-11.175421526158454
 20
6.39941631600576
 10
-11.494185741470176
 20
6.315362635091708
 10
-11.810838525074528
 20
6.23055809590013
 10
-12.125470308275007
 20
6.1449916127009825
 10
-12.437798711431078
 20
6.0586060113809
 10
-12.748037854339865
 20
5.97165041439028
 10
-13.056198822731409
 20
5.884215253032623
 10
-13.362100753998709
 20
5.796322698768011
 10
-13.66573256241174
 20
5.707882320292948
 10
-13.967151422083859
 20
5.618611737966906
 10
-14.26631124463174
 20
5.52888376273391
 10
-14.563245287245518
 20
5.4389696885044465
 10
-14.857807689971473
 20
5.348428444491078
 10
-15.15008888411311
 20
5.257248944963764
 10
-15.439930178523518
 20
5.16563422398958
 10
-15.727422004506199
 20
5.073573195838482
 10
-16.012575447791185
 20
4.981156291813968
 10
-16.295266819884862
 20
4.888123303735594
 10
-16.57551829224731
 20
4.794655094210347
 10
-16.85332986487853
 20
4.700751663238231
 10
-17.12874588069869
 20
4.606774736033229
 10
-17.40157439137076
 20
4.512656052751927
 10
-17.671963002311603
 20
4.418102148023755
 10
-17.93979911075764
 20
4.322943244971762
 10
-18.205036628325537
 20
4.2275521545399775
 10
-18.467788157778884
 20
4.132098653605345
 10
-18.72791892489401
 20
4.036232102683928
 10
-18.985360669827507
 20
3.9401444501127583
 10
-19.2403053409164
 20
3.8439039557352483
 10
-19.492572075553714
 20
3.747532791011483
 10
-19.742127616549308
 20
3.650759662030971
 10
-19.98900522109331
 20
3.5538558627042054
 10
-20.233215974915776
 20
3.4569118243346764
 10
-20.474748792286643
 20
3.359837115618893
 10
-20.713513241902437
 20
3.2626428222868946
 10
-20.94949823803309
 20
3.165238513035186
 10
-21.182805297712168
 20
3.0677035334372214
 10
-21.41325355833266
 20
2.970060054953084
 10
-21.640865191354653
 20
2.872488940189766
 10
-21.865798887925063
 20
2.774787155080192
 10
-22.087783354133396
 20
2.6769879568144876
 10
-22.306897935553106
 20
2.5789898283591155
 10
-22.523186975104363
 20
2.4811544949280586
 10
-22.73665047278717
 20
2.383481956521317
 10
-22.947175825837938
 20
2.2858024362619407
 10
-23.154751948526627
 20
2.1880255028464344
 10
-23.359458186426703
 20
2.09004963924126
 10
-23.56116910558137
 20
1.9923491734239818
 10
-23.75996405156409
 20
1.8948225883610603
 10
-23.95582085291478
 20
1.7972890214455044
 10
-24.14864907832993
 20
1.6997595584073568
 10
-24.338470899269645
 20
1.6024150618536084
 10
-24.525264144273827
 20
1.505074669177268
 10
-24.70903989907252
 20
1.4078288116818316
 10
-24.889809249395775
 20
1.3107679206707943
 10
-25.067459592479995
 20
1.2137222192672075
 10
-25.242024185515323
 20
1.116963001381558
 10
-25.413549116885076
 20
1.0201174560698203
 10
-25.58198829820593
 20
0.9235583942760197
 10
-25.747330643747844
 20
0.8271953846966615
 10
-25.909565067780775
 20
0.7309379960282488
 10
-26.068601139001228
 20
0.6347973140008248
 10
-26.224540374442743
 20
0.5388526841878408
 10
-26.37732559999194
 20
0.44338648622982985
 10
-26.526934644188753
 20
0.3482178575197973
 10
-26.673367507033163
 20
0.25334679805774474
 10
-26.816725705558717
 20
0.158852653417125
 10
-26.956817291428383
 20
0.06466716375452743
 10
-27.09375486740574
 20
-0.029039894053099327
 10
-27.227470173647372
 20
-0.12207657166872075
 10
-27.35805364145678
 20
-0.21445395482238003
 10
-27.485392668070382
 20
-0.30634182039102575
 10
-27.609588770521714
 20
-0.39766082280120496
 10
-27.73046108620379
 20
-0.4883887905928323
 10
-27.848212649183676
 20
-0.5783670326190017
 10
-27.962673682584438
 20
-0.6674829461161322
 10
-28.07391244624947
 20
-0.7559284794212578
 10
-28.181928940178786
 20
-0.843703632534379
 10
-28.286723164372376
 20
-0.9308084054554948
 10
-28.388226858986837
 20
-1.0170508498475725
 10
-28.486440024022166
 20
-1.1024309657106117
 10
-28.58141983359172
 20
-1.1872311326851408
 10
-28.673109113582154
 20
-1.2711689711306327
 10
-28.76146352107328
 20
-1.3546062062610684
 10
-28.846527398985273
 20
-1.437181112862465
 10
-28.928256404397967
 20
-1.5192554161488079
 10
-29.006672708771436
 20
-1.6006482535131017
 10
-29.081776312105696
 20
-1.68135962495535
 10
-29.1534656973672
 20
-1.7614688760490045
 10
-29.221943898623017
 20
-1.8408173156471581
 10
-29.286906364772552
 20
-1.919642980470172
 10
-29.348646561186357
 20
-1.9977982651011814
 10
-29.406972539527406
 20
-2.075351429383597
 10
-29.46191755698583
 20
-2.1520311794069324
 10
-29.513549873405033
 20
-2.2280294635082205
 10
-29.561790143211567
 20
-2.3032447646539236
 10
-29.606682709325597
 20
-2.3773153576300583
 10
-29.648284745860494
 20
-2.4505236220771556
 10
-29.686527992972852
 20
-2.5226776096581793
 10
-29.721434622122743
 20
-2.5935964577661395
 10
-29.753048976230346
 20
-2.6629184411870535
 10
-29.781371055295654
 20
-2.73064355992092
 10
-29.806513462082254
 20
-2.79660203709079
 10
-29.828350762633363
 20
-2.8603195447191
 10
-29.847017731172638
 20
-2.9214454433219106
 10
-29.862715656304005
 20
-2.979086505594304
 10
-29.875341275530765
 20
-3.032587540951726
 10
-29.885162391837092
 20
-3.0805127342682876
 10
-29.892446808207144
 20
-3.121426270418097
 10
-29.897279719554955
 20
-3.1531356266571717
 10
-29.900028700435065
 20
-3.1733911061281592
 10
-29.830897994502088
 20
-3.7515481956405026
 10
-29.828614427503517
 20
-3.7559495632479867
 10
-29.82177481223785
 20
-3.7690632347669424
 10
-29.810423491625254
 20
-3.7905274849833877
 10
-29.79428157695152
 20
-3.8218685603267084
 10
-29.77329713049275
 20
-3.865007689630399
 10
-29.74795617890764
 20
-3.915231359382639
 10
-29.718511948524004
 20
-3.969725113445015
 10
-29.685289416439375
 20
-4.027335516332167
 10
-29.648430951681153
 20
-4.086152424940641
 10
-29.607945894516213
 20
-4.145350871808933
 10
-29.564070536201765
 20
-4.204500871879649
 10
-29.516758788354473
 20
-4.263229614208762
 10
-29.466054993894513
 20
-4.3211753735822915
 10
-29.411981324281967
 20
-4.378157287393244
 10
-29.35453777951683
 20
-4.43417535564162
 10
-29.29382587663265
 20
-4.489150232753966
 10
-29.229777355786002
 20
-4.542889970393248
 10
-29.162381131246853
 20
-4.595484999862962
 10
-29.091738720048742
 20
-4.646855975589653
 10
-29.01773751942809
 20
-4.6971726744502735
 10
-28.940388615114934
 20
-4.746344665141326
 10
-28.859895041176344
 20
-4.794213256515902
 10
-28.77595224651172
 20
-4.8410164852943645
 10
-28.688842610761583
 20
-4.8866971773633425
 10
-28.598374185588902
 20
-4.931323592566248
 10
-28.504648488027215
 20
-4.974816385329629
 10
-28.407676603806564
 20
-5.017085124349987
 10
-28.307425275736822
 20
-5.058401103537811
 10
-28.20391667527807
 20
-5.098583460286109
 10
-28.09710645951014
 20
-5.137993919808864
 10
-27.987027885623174
 20
-5.17636118819559
 10
-27.87374921346056
 20
-5.213877213783319
 10
-27.757180011718813
 20
-5.250530910842008
 10
-27.637298108937852
 20
-5.286503141978653
 10
-27.51420502215121
 20
-5.321714561619794
 10
-27.387889665628848
 20
-5.356255601068933
 10
-27.25835203937076
 20
-5.390126260326066
 10
-27.125468454883332
 20
-5.423586747571639
 10
-26.989430860503592
 20
-5.456568802962241
 10
-26.850069479354595
 20
-5.488959823734292
 10
-26.707565174043328
 20
-5.520781981347876
 10
-26.561805341806213
 20
-5.552205052679942
 10
-26.41288041394675
 20
-5.583240123460533
 10
-26.260711044891472
 20
-5.613785676656111
 10
-26.105409837403975
 20
-5.643671935389726
 10
-25.94687527445071
 20
-5.672978245234832
 10
-25.785277132908636
 20
-5.70181720895501
 10
-25.620524981474244
 20
-5.730177740820214
 10
-25.452618820147546
 20
-5.75805984083045
 10
-25.281591906118667
 20
-5.785192215075226
 10
-25.107534670691095
 20
-5.811585949284586
 10
-24.930356682561342
 20
-5.837229957728488
 10
-24.75012620157281
 20
-5.862316188743964
 10
-24.566843227725517
 20
-5.886844642331016
 10
-24.380552103939618
 20
-5.910453593275661
 10
-24.191321090058523
 20
-5.93333498991493
 10
-23.999070840508786
 20
-5.9553873152152885
 10
-23.803790269560352
 20
-5.9767010004802295
 10
-23.605569808516734
 20
-5.997287131439796
 10
-23.404420543107964
 20
-6.017055276790495
 10
-23.200331387604
 20
-6.036095867835818
 10
-22.99330234200485
 20
-6.054408904575767
 10
-22.783344492040545
 20
-6.071903955706845
 10
-22.570537183284543
 20
-6.088682538262592
 10
-22.354880415736844
 20
-6.104744652243007
 10
-22.136294843823993
 20
-6.119988780614552
 10
-21.914939158692903
 20
-6.134617957444303
 10
-21.690734014770122
 20
-6.148530665698721
 10
-21.463668326325593
 20
-6.161817336681304
 10
-21.23384361039287
 20
-6.174398624818598
 10
-21.00129312416207
 20
-6.186003236200113
 10
-20.765983610443065
 20
-6.196902464736339
 10
-20.527802466472284
 20
-6.207266087304223
 10
-20.287032071890255
 20
-6.2170369297904
 10
-20.043513735550064
 20
-6.22601195812779
 10
-19.797258543181755
 20
-6.234100741012898
 10
-19.548425185932242
 20
-6.241506312512801
 10
-19.296912146767976
 20
-6.248308018200952
 10
-19.042741597149053
 20
-6.254324995470359
 10
-18.786003968378957
 20
-6.2595683300510645
 10
-18.526710346187745
 20
-6.263947590639574
 10
-18.264827473385274
 20
-6.267734071146373
 10
-18.000377521431634
 20
-6.270746908964471
 10
-17.73333831886675
 20
-6.27316696670086
 10
-17.463923985487728
 20
-6.274745121905134
 10
-17.19194257295754
 20
-6.275549634420708
 10
-16.917484512579684
 20
-6.275591589977623
 10
-16.640629149927605
 20
-6.274972505609416
 10
-16.361308225157902
 20
-6.273500432979054
 10
-16.079589998113978
 20
-6.271367320423571
 10
-15.795575985829375
 20
-6.268493822369513
 10
-15.509107497157187
 20
-6.2646769047498045
 10
-15.220365394704407
 20
-6.2599387390245305
 10
-14.929316421280898
 20
-6.254550619104176
 10
-14.635960576886674
 20
-6.248512544988743
 10
-14.340297861521725
 20
-6.24182451667823
 10
-14.042451963679673
 20
-6.234226325992194
 10
-13.74244505482061
 20
-6.225537110323643
 10
-13.440142360720868
 20
-6.216107509156514
 10
-13.135724743987439
 20
-6.205959693950898
 10
-12.829123944776903
 20
-6.194901716369754
 10
-12.520452565852853
 20
-6.182763799536139
 10
-12.20967735002516
 20
-6.169817237360537
 10
-11.896866557137226
 20
-6.156253978179981
 10
-11.581951927345655
 20
-6.141882073657441
 10
-11.264966717840558
 20
-6.126430229882425
 10
-10.94606961976885
 20
-6.110101480922012
 10
-10.62524954740049
 20
-6.092986258079698
 10
-10.30232563812848
 20
-6.075062389895396
 10
-9.977580271593355
 20
-6.05627270225574
 10
-9.650945187951704
 20
-6.036425246823693
 10
-9.322420387203524
 20
-6.015520023599257
 10
-8.99208521492227
 20
-5.9936585496159696
 10
-8.65988424245773
 20
-5.97129298139131
 10
-8.325941158303527
 20
-5.948163110744833
 10
-7.990209874076334
 20
-5.923896126732512
 10
-7.652679304046112
 20
-5.8985824606578445
 10
-7.313530310819848
 20
-5.872244283980913
 10
-6.972628120173878
 20
-5.845232236185661
 10
-6.630085334871786
 20
-5.817376540395137
 10
-6.285901954913565
 20
-5.788677196609341
 10
-5.940100151759305
 20
-5.758953342221282
 10
-5.592668839678966
 20
-5.728295408534458
 10
-5.243766709819449
 20
-5.69690642961594
 10
-4.893235071033852
 20
-5.664583371398656
 10
-4.541276957389243
 20
-5.631167542735699
 10
-4.187881283155585
 20
-5.596749374930561
 10
-3.83303696260284
 20
-5.561419299286742
 10
-3.4766646501575478
 20
-5.5250757987706995
 10
-3.119057811190288
 20
-5.487571267965573
 10
-2.760137100127596
 20
-5.448804189837823
 10
-2.399745571285725
 20
-5.409306066478381
 10
-2.0380751730017197
 20
-5.369008638043837
 10
-1.6752828509593172
 20
-5.327380402443256
 10
-1.3111544853614086
 20
-5.284670482127046
 10
-0.9457694217814381
 20
-5.240980394128738
 10
-0.5793306942864865
 20
-5.19615144730143
 10
-0.21166852599960642
 20
-5.150071038881541
 10
0.15703622047221608
 20
-5.102761340329153
 10
0.5269183193526427
 20
-5.05457299112821
 10
0.8978651678780856
 20
-5.005336214401761
 10
1.2697309060948547
 20
-4.95460993936237
 10
1.6426392224965591
 20
-4.9026543741904804
 10
2.016544028699875
 20
-4.849842329830119
 10
2.391321669468372
 20
-4.795913869394751
 10
2.7670532862637716
 20
-4.740782125722005
 10
3.143671639129819
 20
-4.684647366828835
 10
3.5211324184035426
 20
-4.62714813879517
 10
3.899435646256409
 20
-4.568284622483614
 10
4.278535234305069
 20
-4.508429628838198
 10
4.6583518813190095
 20
-4.447685036617669
 10
5.03896494395741
 20
-4.385949419219793
 10
5.420250744812375
 20
-4.322962658895431
 10
5.8022314664297125
 20
-4.258905708682876
 10
6.184907153152363
 20
-4.193778930307341
 10
6.568187362591074
 20
-4.127593319067567
 10
6.952038870812928
 20
-4.060077852346978
 10
7.336483849278011
 20
-3.99141339275256
 10
7.721385778299484
 20
-3.9219838369583875
 10
8.106914479097226
 20
-3.85167694392609
 10
8.492855820788398
 20
-3.780243500773961
 10
8.87931134257798
 20
-3.7077630339380625
 10
9.266100181858986
 20
-3.6342577148784794
 10
9.653323866750693
 20
-3.5598069795999674
 10
10.04097132260878
 20
-3.4843204872303346
 10
10.4288727725563
 20
-3.407910840533161
 10
10.817140819356842
 20
-3.3307478163853963
 10
11.20576441053754
 20
-3.2527412547774546
 10
11.594551564504172
 20
-3.1738226245720154
 10
11.983603820461745
 20
-3.094071452205138
 10
12.372852918566833
 20
-3.0136796860138575
 10
12.762344958288509
 20
-2.93227460548545
 10
13.1519212263084
 20
-2.8500590638243852
 10
13.54160389408659
 20
-2.7672139236376543
 10
13.93138188697877
 20
-2.6836488440530664
 10
14.321233033524845
 20
-2.5991829624636296
 10
14.711179516270636
 20
-2.5139972319076382
 10
15.101062588640591
 20
-2.4282942342956515
 10
15.490950532649572
 20
-2.3418822021532417
 10
15.880786174184216
 20
-2.2550435151209385
 10
16.270536233882936
 20
-2.167506698425648
 10
16.660189637101418
 20
-2.079181411195177
 10
17.049768555299746
 20
-1.99024851603652
 10
17.439125316546676
 20
-1.9010009357324247
 10
17.828350385402885
 20
-1.8114278558467583
 10
18.21732005120331
 20
-1.7212688873364739
 10
18.606045377506526
 20
-1.6306142806424533
 10
18.99452637539824
 20
-1.5394641261960065
 10
19.382774108437072
 20
-1.4479086744380172
 10
19.77059657285731
 20
-1.3558792133685609
 10
20.158095318949698
 20
-1.2634553598549976
 10
20.54519093462638
 20
-1.1707380883430476
 10
20.931996078079624
 20
-1.0778976278661756
 10
21.31828544401066
 20
-0.9845936107887535
 10
21.70407012923528
 20
-0.8909165588455772
 10
22.08949599370719
 20
-0.7973075428240862
 10
22.474315605010503
 20
-0.7032456942068717
 10
22.858517844157962
 20
-0.6086403103965281
 10
23.24225969009053
 20
-0.514023164777897
 10
23.62538236297545
 20
-0.41959656796762723
 10
24.00790980190742
 20
-0.3248070272773103
 10
24.38976261697007
 20
-0.22975569801526768
 10
24.770850310345534
 20
-0.13445312332372153
 10
25.15128551805457
 20
-0.039069351373532256
 10
25.53098883909507
 20
0.056294552958279565
 10
25.909971325939907
 20
0.1515484296621313
 10
26.288120342568284
 20
0.24686232690887777
 10
26.665413673177216
 20
0.3424174690307294
 10
27.041884563871093
 20
0.43794265254850007
 10
27.417533003564195
 20
0.5334379678934932
 10
27.79218909343652
 20
0.6287918070464683
 10
28.166033773695183
 20
0.7240257084483838
 10
28.53885281368577
 20
0.8193896988626785
 10
28.91065727696686
 20
0.9147935278484635
 10
29.28150254784573
 20
1.009785400613472
 10
29.65137755167809
 20
1.1044556580299019
 10
30.020079110282357
 20
1.1989641668515993
 10
30.387799249595687
 20
1.293242034216033
 10
30.75434589933801
 20
1.3873585147109497
 10
31.119809512984276
 20
1.481324513203786
 10
31.484121753090967
 20
1.574948714376632
 10
31.847192110754484
 20
1.6682206655185714
 10
32.20913322199559
 20
1.7609703184587437
 10
32.569730822902685
 20
1.8534479712544971
 10
32.92916585368285
 20
1.9456751623467905
 10
33.287246244056064
 20
2.037721146323376
 10
33.64403845297386
 20
2.1290437875197927
 10
33.99945198261844
 20
2.219632542793826
 10
34.353601258816596
 20
2.3100515384074027
 10
34.706203702384684
 20
2.400359576237361
 10
35.057528939370144
 20
2.4898547442966925
 10
35.40738488840716
 20
2.5786063876044474
 10
35.755727151146935
 20
2.6669766835311326
 10
36.102555705417984
 20
2.754965812939348
 10
36.447881603693205
 20
2.842483615819515
 10
36.7917602524513
 20
2.9290781165167568
 10
37.13398844025353
 20
3.0149094530788387
 10
37.47471388337409
 20
3.1002701865632996
 10
37.81375554183426
 20
3.1851395924109065
 10
38.15113555383696
 20
3.26933707930858
 10
38.48687606867082
 20
3.352681965511938
 10
38.8209548705328
 20
3.435355475353182
 10
39.15328141726214
 20
3.5173474274153067
 10
39.48396835596534
 20
3.5984876830961516
 10
39.81283464666371
 20
3.6787555178364837
 10
40.13993750781354
 20
3.7584329495516218
 10
40.4650958772647
 20
3.8374994345449425
 10
40.78860340884519
 20
3.915805830067421
 10
41.110120216229184
 20
3.9931296435310024
 10
41.42982728396674
 20
4.0694920516514355
 10
41.74771348198485
 20
4.144983847457427
 10
42.06357559884477
 20
4.219765168996738
 10
42.37742466484792
 20
4.293746037122395
 10
42.68945273918861
 20
4.36685728767795
 10
42.999399369800344
 20
4.438977221658456
 10
43.30737718161815
 20
4.50993588132436
 10
43.61326237529111
 20
4.579994379169137
 10
43.91713432964989
 20
4.64925396093242
 10
44.2189135882637
 20
4.7176140138937015
 10
44.51860010678964
 20
4.785074899778197
 10
44.81613658917131
 20
4.851355233689717
 10
45.11158026495072
 20
4.916736943112273
 10
45.40476114662206
 20
4.981109143477049
 10
45.69574752728592
 20
5.044663511827171
 10
45.98457264196097
 20
5.107128935114757
 10
46.271157012045016
 20
5.1684049814819115
 10
46.55546733600499
 20
5.228763306564336
 10
46.8375035805837
 20
5.2882041816559395
 10
47.11726570143824
 20
5.3467279684819395
 10
47.39459480787856
 20
5.404133260738722
 10
47.66969405591475
 20
5.460260372535037
 10
47.942417463650095
 20
5.515551369402666
 10
48.21268556356809
 20
5.569905729052403
 10
48.480588820229435
 20
5.623334265920385
 10
48.746058851847685
 20
5.675646026413915
 10
49.008994019446256
 20
5.726921350850784
 10
49.269564232930875
 20
5.777271756818931
 10
49.5276216651701
 20
5.826405587573855
 10
49.7831441114466
 20
5.874503977016457
 10
50.03614262423328
 20
5.921476765137153
 10
50.28658389091133
 20
5.967595698002946
 10
50.53449004968366
 20
6.0126801843007565
 10
50.779770536218
 20
6.056720223476184
 10
51.02243640298723
 20
6.099625655519642
 10
51.2625670509934
 20
6.14149754530815
 10
51.499970310184935
 20
6.1824059613111935
 10
51.73464612513315
 20
6.222351355685289
 10
51.966696079385976
 20
6.261253840269156
 10
52.196131269759185
 20
6.299022893328004
 10
52.42273758754139
 20
6.335907546880928
 10
52.64660451066328
 20
6.371926663750068
 10
52.867766371630836
 20
6.406800178188503
 10
53.086121121295434
 20
6.440611776472251
 10
53.301646566025575
 20
6.473542502070912
 10
53.51445536401344
 20
6.505422125951018
 10
53.724377505581806
 20
6.536139944406366
 10
53.931481306002695
 20
6.565887453617468
 10
54.13575564628887
 20
6.59475535618173
 10
54.33710997319383
 20
6.622733561113451
 10
54.535566424920454
 20
6.649641477099548
 10
54.73111386031005
 20
6.675569987600036
 10
54.92373008573108
 20
6.700700136084512
 10
55.11342614257067
 20
6.724941852974696
 10
55.30013366012809
 20
6.748104094246587
 10
55.48385258297471
 20
6.770187312056705
 10
55.66462907709395
 20
6.791563684329948
 10
55.84238365279787
 20
6.812132869639724
 10
56.01711629900076
 20
6.831894958417339
 10
56.18883804600399
 20
6.850759971515814
 10
56.357458351646756
 20
6.8687177275181375
 10
56.5230676915755
 20
6.885778950429143
 10
56.68555336325506
 20
6.902114231007509
 10
56.844937482716865
 20
6.917543158802762
 10
57.00119785632936
 20
6.932246777284499
 10
57.15444715337055
 20
6.946054766987954
 10
57.304482118058715
 20
6.959127627686099
 10
57.45138216248171
 20
6.971566333824655
 10
57.59506781912303
 20
6.98327036311442
 10
57.73564067153061
 20
6.994159827394119
 10
57.87298790631199
 20
7.004406221735469
 10
58.00722213731651
 20
7.013839678830218
 10
58.13812972143339
 20
7.022705432582716
 10
58.26590189751298
 20
7.0309410107529775
 10
58.39035791380557
 20
7.038523337567882
 10
58.511588268129074
 20
7.045462956169654
 10
58.629592938312
 20
7.051760047420897
 10
58.744360805367094
 20
7.057505313919017
 10
58.85581242394937
 20
7.062598052512209
 10
58.96392557825581
 20
7.067219487532679
 10
59.06880188509152
 20
7.0712894595252385
 10
59.170339683308484
 20
7.074888489670292
 10
59.26855004755099
 20
7.077926237095643
 10
59.36342188100329
 20
7.080493223536093
 10
59.45496623613822
 20
7.0824992889820555
 10
59.543172016140026
 20
7.08403495516833
 10
59.62801703846288
 20
7.085281175133212
 10
59.709432910234604
 20
7.08604708571531
 10
59.78758960787529
 20
7.086443661914738
 10
59.862204419172535
 20
7.086530790783976
 10
59.933560023081526
 20
7.086248856564454
 10
60.00147533528074
 20
7.0855774964221645
 10
60.06592817322428
 20
7.084697663395395
 10
60.12702014263161
 20
7.08352928846027
 10
60.184660690256145
 20
7.0820622806310825
 10
60.23882764463783
 20
7.080477502514826
 10
60.28963368614032
 20
7.078604544215425
 10
60.33696611222852
 20
7.076613996491562
 10
60.38083598646095
 20
7.074415608902344
 10
60.42122113737757
 20
7.072190244054768
 10
60.458132650708414
 20
7.069847470645337
 10
60.491649949627046
 20
7.067488172688463
 10
60.52159196089758
 20
7.065091896918828
 10
60.548038140950815
 20
7.062759256056937
 10
60.57107900977604
 20
7.060500612382401
 10
60.590533494137404
 20
7.058295512629904
 10
60.606469942564196
 20
7.056335181686053
 10
60.61899000511866
 20
7.054539188801749
 10
60.62789039276196
 20
7.053068305043883
 10
60.63325059518205
 20
7.052022871839046
 10
60.63504840766163
 20
7.05158402308814
  0
ENDSEC
  0
SECTION
  2
OBJECTS
  0
DICTIONARY
  5
A
330
0
100
AcDbDictionary
280
0
281
1
  3
ACAD_COLOR
350
B
  3
ACAD_GROUP
350
C
  3
ACAD_LAYOUT
350
D
  3
ACAD_MATERIAL
350
E
  3
ACAD_MLEADERSTYLE
350
F
  3
ACAD_MLINESTYLE
350
10
  3
ACAD_PLOTSETTINGS
350
11
  3
ACAD_PLOTSTYLENAME
350
12
  3
ACAD_SCALELIST
350
14
  3
ACAD_TABLESTYLE
350
15
  3
ACAD_VISUALSTYLE
350
16
  3
EZDXF_META
350
2D
  0
DICTIONARY
  5
B
330
A
100
AcDbDictionary
280
0
281
1
  0
DICTIONARY
  5
C
330
A
100
AcDbDictionary
280
0
281
1
  0
DICTIONARY
  5
D
330
A
100
AcDbDictionary
280
0
281
1
  3
Model
350
1A
  3
Layout1
350
1E
  0
DICTIONARY
  5
E
330
A
100
AcDbDictionary
280
0
281
1
  3
ByBlock
350
1F
  3
ByLayer
350
20
  3
Global
350
21
  0
DICTIONARY
  5
F
330
A
100
AcDbDictionary
280
0
281
1
  3
Standard
350
2C
  0
DICTIONARY
  5
10
330
A
100
AcDbDictionary
280
0
281
1
  3
Standard
350
22
  0
DICTIONARY
  5
11
330
A
100
AcDbDictionary
280
0
281
1
  0
ACDBDICTIONARYWDFLT
  5
12
330
A
100
AcDbDictionary
280
0
281
1
  3
Normal
350
13
100
AcDbDictionaryWithDefault
340
13
  0
ACDBPLACEHOLDER
  5
13
330
12
  0
DICTIONARY
  5
14
330
A
100
AcDbDictionary
280
0
281
1
  0
DICTIONARY
  5
15
330
A
100
AcDbDictionary
280
0
281
1
  0
DICTIONARY
  5
16
330
A
100
AcDbDictionary
280
0
281
1
  0
LAYOUT
  5
1A
330
D
100
AcDbPlotSettings
  1

  4
A3
  6

 40
7.5
 41
20.0
 42
7.5
 43
20.0
 44
420.0
 45
297.0
 46
0.0
 47
0.0
 48
0.0
 49
0.0
140
0.0
141
0.0
142
1.0
143
1.0
 70
1024
 72
1
 73
0
 74
5
  7

 75
16
 76
0
 77
2
 78
300
147
1.0
148
0.0
149
0.0
100
AcDbLayout
  1
Model
 70
1
 71
0
 10
0.0
 20
0.0
 11
420.0
 21
297.0
 12
0.0
 22
0.0
 32
0.0
 14
1e+20
 24
1e+20
 34
1e+20
 15
-1e+20
 25
-1e+20
 35
-1e+20
146
0.0
 13
0.0
 23
0.0
 33
0.0
 16
1.0
 26
0.0
 36
0.0
 17
0.0
 27
1.0
 37
0.0
 76
1
330
17
  0
LAYOUT
  5
1E
330
D
100
AcDbPlotSettings
  1

  4
A3
  6

 40
7.5
 41
20.0
 42
7.5
 43
20.0
 44
420.0
 45
297.0
 46
0.0
 47
0.0
 48
0.0
 49
0.0
140
0.0
141
0.0
142
1.0
143
1.0
 70
0
 72
1
 73
0
 74
5
  7

 75
16
 76
0
 77
2
 78
300
147
1.0
148
0.0
149
0.0
100
AcDbLayout
  1
Layout1
 70
1
 71
1
 10
0.0
 20
0.0
 11
420.0
 21
297.0
 12
0.0
 22
0.0
 32
0.0
 14
1e+20
 24
1e+20
 34
1e+20
 15
-1e+20
 25
-1e+20
 35
-1e+20
146
0.0
 13
0.0
 23
0.0
 33
0.0
 16
1.0
 26
0.0
 36
0.0
 17
0.0
 27
1.0
 37
0.0
 76
1
330
1B
  0
MATERIAL
  5
1F
102
{ACAD_REACTORS
330
E
102
}
330
E
100
AcDbMaterial
  1
ByBlock
  2

 70
0
 40
1.0
 71
1
 41
1.0
 91
-1023410177
 42
1.0
 72
1
  3

 73
1
 74
1
 75
1
 44
0.5
 73
0
 45
1.0
 46
1.0
 77
1
  4

 78
1
 79
1
170
1
 48
1.0
171
1
  6

172
1
173
1
174
1
140
1.0
141
1.0
175
1
  7

176
1
177
1
178
1
143
1.0
179
1
  8

270
1
271
1
272
1
145
1.0
146
1.0
273
1
  9

274
1
275
1
276
1
 42
1.0
 72
1
  3

 73
1
 74
1
 75
1
 94
63
  0
MATERIAL
  5
20
102
{ACAD_REACTORS
330
E
102
}
330
E
100
AcDbMaterial
  1
ByLayer
  2

 70
0
 40
1.0
 71
1
 41
1.0
 91
-1023410177
 42
1.0
 72
1
  3

 73
1
 74
1
 75
1
 44
0.5
 73
0
 45
1.0
 46
1.0
 77
1
  4

 78
1
 79
1
170
1
 48
1.0
171
1
  6

172
1
173
1
174
1
140
1.0
141
1.0
175
1
  7

176
1
177
1
178
1
143
1.0
179
1
  8

270
1
271
1
272
1
145
1.0
146
1.0
273
1
  9

274
1
275
1
276
1
 42
1.0
 72
1
  3

 73
1
 74
1
 75
1
 94
63
  0
MATERIAL
  5
21
102
{ACAD_REACTORS
330
E
102
}
330
E
100
AcDbMaterial
  1
Global
  2

 70
0
 40
1.0
 71
1
 41
1.0
 91
-1023410177
 42
1.0
 72
1
  3

 73
1
 74
1
 75
1
 44
0.5
 73
0
 45
1.0
 46
1.0
 77
1
  4

 78
1
 79
1
170
1
 48
1.0
171
1
  6

172
1
173
1
174
1
140
1.0
141
1.0
175
1
  7

176
1
177
1
178
1
143
1.0
179
1
  8

270
1
271
1
272
1
145
1.0
146
1.0
273
1
  9

274
1
275
1
276
1
 42
1.0
 72
1
  3

 73
1
 74
1
 75
1
 94
63
  0
MLINESTYLE
  5
22
102
{ACAD_REACTORS
330
10
102
}
330
10
100
AcDbMlineStyle
  2
Standard
 70
0
  3

 62
256
 51
90.0
 52
90.0
 71
2
 49
0.5
 62
256
  6
BYLAYER
 49
-0.5
 62
256
  6
BYLAYER
  0
MLEADERSTYLE
  5
2C
102
{ACAD_REACTORS
330
F
102
}
330
F
100
AcDbMLeaderStyle
179
2
170
2
171
1
172
0
 90
2
 40
0.0
 41
0.0
173
1
 91
-1056964608
 92
-2
290
1
 42
2.0
291
1
 43
8.0
  3
Standard
 44
4.0
300

342
29
174
1
175
1
176
0
178
1
 93
-1056964608
 45
4.0
292
0
297
0
 46
4.0
 94
-1056964608
 47
1.0
 49
1.0
140
1.0
294
1
141
0.0
177
0
142
1.0
295
0
296
0
143
3.75
271
0
272
9
273
9
  0
DICTIONARY
  5
2D
330
A
100
AcDbDictionary
280
1
281
1
  3
CREATED_BY_EZDXF
350
2E
  3
WRITTEN_BY_EZDXF
350
32
  0
DICTIONARYVAR
  5
2E
330
2D
100
DictionaryVariables
280
0
  1
1.3.5 @ 2025-08-20T01:58:58.730539+00:00
  0
DICTIONARYVAR
  5
32
330
2D
100
DictionaryVariables
280
0
  1
1.3.5 @ 2025-08-20T01:58:58.746181+00:00
  0
ENDSEC
  0
EOF
