  0
SECTION
  2
HEADER
  9
$ACADVER
  1
AC1032
  9
$ACADMAINTVER
 90
4
  9
$DWGCODEPAGE
  3
ANSI_1252
  9
$LASTSAVEDBY
  1
ezdxf
  9
$REQUIREDVERSIONS
160
0
  9
$INSBASE
 10
0.0
 20
0.0
 30
0.0
  9
$EXTMIN
 10
1e+20
 20
1e+20
 30
1e+20
  9
$EXTMAX
 10
-1e+20
 20
-1e+20
 30
-1e+20
  9
$LIMMIN
 10
0.0
 20
0.0
  9
$LIMMAX
 10
420.0
 20
297.0
  9
$ORTHOMODE
 70
0
  9
$REGENMODE
 70
1
  9
$FILLMODE
 70
1
  9
$QTEXTMODE
 70
0
  9
$MIRRTEXT
 70
1
  9
$LTSCALE
 40
1.0
  9
$ATTMODE
 70
1
  9
$TEXTSIZE
 40
2.5
  9
$TRACEWID
 40
1.0
  9
$TEXTSTYLE
  7
Standard
  9
$CLAYER
  8
0
  9
$CELTYPE
  6
ByLayer
  9
$CECOLOR
 62
256
  9
$CELTSCALE
 40
1.0
  9
$DISPSILH
 70
0
  9
$DIMSCALE
 40
1.0
  9
$DIMASZ
 40
2.5
  9
$DIMEXO
 40
0.625
  9
$DIMDLI
 40
3.75
  9
$DIMRND
 40
0.0
  9
$DIMDLE
 40
0.0
  9
$DIMEXE
 40
1.25
  9
$DIMTP
 40
0.0
  9
$DIMTM
 40
0.0
  9
$DIMTXT
 40
2.5
  9
$DIMCEN
 40
2.5
  9
$DIMTSZ
 40
0.0
  9
$DIMTOL
 70
0
  9
$DIMLIM
 70
0
  9
$DIMTIH
 70
0
  9
$DIMTOH
 70
0
  9
$DIMSE1
 70
0
  9
$DIMSE2
 70
0
  9
$DIMTAD
 70
1
  9
$DIMZIN
 70
8
  9
$DIMBLK
  1

  9
$DIMASO
 70
1
  9
$DIMSHO
 70
1
  9
$DIMPOST
  1

  9
$DIMAPOST
  1

  9
$DIMALT
 70
0
  9
$DIMALTD
 70
3
  9
$DIMALTF
 40
0.03937007874
  9
$DIMLFAC
 40
1.0
  9
$DIMTOFL
 70
1
  9
$DIMTVP
 40
0.0
  9
$DIMTIX
 70
0
  9
$DIMSOXD
 70
0
  9
$DIMSAH
 70
0
  9
$DIMBLK1
  1

  9
$DIMBLK2
  1

  9
$DIMSTYLE
  2
ISO-25
  9
$DIMCLRD
 70
0
  9
$DIMCLRE
 70
0
  9
$DIMCLRT
 70
0
  9
$DIMTFAC
 40
1.0
  9
$DIMGAP
 40
0.625
  9
$DIMJUST
 70
0
  9
$DIMSD1
 70
0
  9
$DIMSD2
 70
0
  9
$DIMTOLJ
 70
0
  9
$DIMTZIN
 70
8
  9
$DIMALTZ
 70
0
  9
$DIMALTTZ
 70
0
  9
$DIMUPT
 70
0
  9
$DIMDEC
 70
2
  9
$DIMTDEC
 70
2
  9
$DIMALTU
 70
2
  9
$DIMALTTD
 70
3
  9
$DIMTXSTY
  7
Standard
  9
$DIMAUNIT
 70
0
  9
$DIMADEC
 70
0
  9
$DIMALTRND
 40
0.0
  9
$DIMAZIN
 70
0
  9
$DIMDSEP
 70
44
  9
$DIMATFIT
 70
3
  9
$DIMFRAC
 70
0
  9
$DIMLDRBLK
  1

  9
$DIMLUNIT
 70
2
  9
$DIMLWD
 70
-2
  9
$DIMLWE
 70
-2
  9
$DIMTMOVE
 70
0
  9
$DIMFXL
 40
1.0
  9
$DIMFXLON
 70
0
  9
$DIMJOGANG
 40
0.785398163397
  9
$DIMTFILL
 70
0
  9
$DIMTFILLCLR
 70
0
  9
$DIMARCSYM
 70
0
  9
$DIMLTYPE
  6

  9
$DIMLTEX1
  6

  9
$DIMLTEX2
  6

  9
$DIMTXTDIRECTION
 70
0
  9
$LUNITS
 70
2
  9
$LUPREC
 70
4
  9
$SKETCHINC
 40
1.0
  9
$FILLETRAD
 40
10.0
  9
$AUNITS
 70
0
  9
$AUPREC
 70
2
  9
$MENU
  1
.
  9
$ELEVATION
 40
0.0
  9
$PELEVATION
 40
0.0
  9
$THICKNESS
 40
0.0
  9
$LIMCHECK
 70
0
  9
$CHAMFERA
 40
0.0
  9
$CHAMFERB
 40
0.0
  9
$CHAMFERC
 40
0.0
  9
$CHAMFERD
 40
0.0
  9
$SKPOLY
 70
0
  9
$TDCREATE
 40
2460908.1242824076
  9
$TDUCREATE
 40
2458532.153996898
  9
$TDUPDATE
 40
2460908.1242824076
  9
$TDUUPDATE
 40
2458532.1544311
  9
$TDINDWG
 40
0.0
  9
$TDUSRTIMER
 40
0.0
  9
$USRTIMER
 70
1
  9
$ANGBASE
 50
0.0
  9
$ANGDIR
 70
0
  9
$PDMODE
 70
0
  9
$PDSIZE
 40
0.0
  9
$PLINEWID
 40
0.0
  9
$SPLFRAME
 70
0
  9
$SPLINETYPE
 70
6
  9
$SPLINESEGS
 70
8
  9
$HANDSEED
  5
33
  9
$SURFTAB1
 70
6
  9
$SURFTAB2
 70
6
  9
$SURFTYPE
 70
6
  9
$SURFU
 70
6
  9
$SURFV
 70
6
  9
$UCSBASE
  2

  9
$UCSNAME
  2

  9
$UCSORG
 10
0.0
 20
0.0
 30
0.0
  9
$UCSXDIR
 10
1.0
 20
0.0
 30
0.0
  9
$UCSYDIR
 10
0.0
 20
1.0
 30
0.0
  9
$UCSORTHOREF
  2

  9
$UCSORTHOVIEW
 70
0
  9
$UCSORGTOP
 10
0.0
 20
0.0
 30
0.0
  9
$UCSORGBOTTOM
 10
0.0
 20
0.0
 30
0.0
  9
$UCSORGLEFT
 10
0.0
 20
0.0
 30
0.0
  9
$UCSORGRIGHT
 10
0.0
 20
0.0
 30
0.0
  9
$UCSORGFRONT
 10
0.0
 20
0.0
 30
0.0
  9
$UCSORGBACK
 10
0.0
 20
0.0
 30
0.0
  9
$PUCSBASE
  2

  9
$PUCSNAME
  2

  9
$PUCSORG
 10
0.0
 20
0.0
 30
0.0
  9
$PUCSXDIR
 10
1.0
 20
0.0
 30
0.0
  9
$PUCSYDIR
 10
0.0
 20
1.0
 30
0.0
  9
$PUCSORTHOREF
  2

  9
$PUCSORTHOVIEW
 70
0
  9
$PUCSORGTOP
 10
0.0
 20
0.0
 30
0.0
  9
$PUCSORGBOTTOM
 10
0.0
 20
0.0
 30
0.0
  9
$PUCSORGLEFT
 10
0.0
 20
0.0
 30
0.0
  9
$PUCSORGRIGHT
 10
0.0
 20
0.0
 30
0.0
  9
$PUCSORGFRONT
 10
0.0
 20
0.0
 30
0.0
  9
$PUCSORGBACK
 10
0.0
 20
0.0
 30
0.0
  9
$USERI1
 70
0
  9
$USERI2
 70
0
  9
$USERI3
 70
0
  9
$USERI4
 70
0
  9
$USERI5
 70
0
  9
$USERR1
 40
0.0
  9
$USERR2
 40
0.0
  9
$USERR3
 40
0.0
  9
$USERR4
 40
0.0
  9
$USERR5
 40
0.0
  9
$WORLDVIEW
 70
1
  9
$SHADEDGE
 70
3
  9
$SHADEDIF
 70
70
  9
$TILEMODE
 70
1
  9
$MAXACTVP
 70
64
  9
$PINSBASE
 10
0.0
 20
0.0
 30
0.0
  9
$PLIMCHECK
 70
0
  9
$PEXTMIN
 10
1e+20
 20
1e+20
 30
1e+20
  9
$PEXTMAX
 10
-1e+20
 20
-1e+20
 30
-1e+20
  9
$PLIMMIN
 10
0.0
 20
0.0
  9
$PLIMMAX
 10
420.0
 20
297.0
  9
$UNITMODE
 70
0
  9
$VISRETAIN
 70
1
  9
$PLINEGEN
 70
0
  9
$PSLTSCALE
 70
1
  9
$TREEDEPTH
 70
3020
  9
$CMLSTYLE
  2
Standard
  9
$CMLJUST
 70
0
  9
$CMLSCALE
 40
20.0
  9
$PROXYGRAPHICS
 70
1
  9
$MEASUREMENT
 70
1
  9
$CELWEIGHT
370
-1
  9
$ENDCAPS
280
0
  9
$JOINSTYLE
280
0
  9
$LWDISPLAY
290
0
  9
$INSUNITS
 70
6
  9
$HYPERLINKBASE
  1

  9
$STYLESHEET
  1

  9
$XEDIT
290
1
  9
$CEPSNTYPE
380
0
  9
$PSTYLEMODE
290
1
  9
$FINGERPRINTGUID
  2
{163FE8A8-C365-4CF0-9520-0881FA782EC4}
  9
$VERSIONGUID
  2
{A7BB26A6-0794-413D-968D-3C404C030379}
  9
$EXTNAMES
290
1
  9
$PSVPSCALE
 40
0.0
  9
$OLESTARTUP
290
0
  9
$SORTENTS
280
127
  9
$INDEXCTL
280
0
  9
$HIDETEXT
280
1
  9
$XCLIPFRAME
280
1
  9
$HALOGAP
280
0
  9
$OBSCOLOR
 70
257
  9
$OBSLTYPE
280
0
  9
$INTERSECTIONDISPLAY
280
0
  9
$INTERSECTIONCOLOR
 70
257
  9
$DIMASSOC
280
2
  9
$PROJECTNAME
  1

  9
$CAMERADISPLAY
290
0
  9
$LENSLENGTH
 40
50.0
  9
$CAMERAHEIGHT
 40
0.0
  9
$STEPSPERSEC
 40
24.0
  9
$STEPSIZE
 40
100.0
  9
$3DDWFPREC
 40
2.0
  9
$PSOLWIDTH
 40
0.005
  9
$PSOLHEIGHT
 40
0.08
  9
$LOFTANG1
 40
1.570796326795
  9
$LOFTANG2
 40
1.570796326795
  9
$LOFTMAG1
 40
0.0
  9
$LOFTMAG2
 40
0.0
  9
$LOFTPARAM
 70
7
  9
$LOFTNORMALS
280
1
  9
$LATITUDE
 40
37.795
  9
$LONGITUDE
 40
-122.394
  9
$NORTHDIRECTION
 40
0.0
  9
$TIMEZONE
 70
-8000
  9
$LIGHTGLYPHDISPLAY
280
1
  9
$TILEMODELIGHTSYNCH
280
1
  9
$CMATERIAL
347
20
  9
$SOLIDHIST
280
0
  9
$SHOWHIST
280
1
  9
$DWFFRAME
280
2
  9
$DGNFRAME
280
2
  9
$REALWORLDSCALE
290
1
  9
$INTERFERECOLOR
 62
256
  9
$CSHADOW
280
0
  9
$SHADOWPLANELOCATION
 40
0.0
  0
ENDSEC
  0
SECTION
  2
CLASSES
  0
CLASS
  1
ACDBDICTIONARYWDFLT
  2
AcDbDictionaryWithDefault
  3
ObjectDBX Classes
 90
0
 91
0
280
0
281
0
  0
CLASS
  1
SUN
  2
AcDbSun
  3
SCENEOE
 90
1153
 91
0
280
0
281
0
  0
CLASS
  1
VISUALSTYLE
  2
AcDbVisualStyle
  3
ObjectDBX Classes
 90
4095
 91
0
280
0
281
0
  0
CLASS
  1
MATERIAL
  2
AcDbMaterial
  3
ObjectDBX Classes
 90
1153
 91
0
280
0
281
0
  0
CLASS
  1
SCALE
  2
AcDbScale
  3
ObjectDBX Classes
 90
1153
 91
0
280
0
281
0
  0
CLASS
  1
TABLESTYLE
  2
AcDbTableStyle
  3
ObjectDBX Classes
 90
4095
 91
0
280
0
281
0
  0
CLASS
  1
MLEADERSTYLE
  2
AcDbMLeaderStyle
  3
ACDB_MLEADERSTYLE_CLASS
 90
4095
 91
0
280
0
281
0
  0
CLASS
  1
DICTIONARYVAR
  2
AcDbDictionaryVar
  3
ObjectDBX Classes
 90
0
 91
0
280
0
281
0
  0
CLASS
  1
CELLSTYLEMAP
  2
AcDbCellStyleMap
  3
ObjectDBX Classes
 90
1152
 91
0
280
0
281
0
  0
CLASS
  1
MENTALRAYRENDERSETTINGS
  2
AcDbMentalRayRenderSettings
  3
SCENEOE
 90
1024
 91
0
280
0
281
0
  0
CLASS
  1
ACDBDETAILVIEWSTYLE
  2
AcDbDetailViewStyle
  3
ObjectDBX Classes
 90
1025
 91
0
280
0
281
0
  0
CLASS
  1
ACDBSECTIONVIEWSTYLE
  2
AcDbSectionViewStyle
  3
ObjectDBX Classes
 90
1025
 91
0
280
0
281
0
  0
CLASS
  1
RASTERVARIABLES
  2
AcDbRasterVariables
  3
ISM
 90
0
 91
0
280
0
281
0
  0
CLASS
  1
ACDBPLACEHOLDER
  2
AcDbPlaceHolder
  3
ObjectDBX Classes
 90
0
 91
0
280
0
281
0
  0
CLASS
  1
LAYOUT
  2
AcDbLayout
  3
ObjectDBX Classes
 90
0
 91
0
280
0
281
0
  0
ENDSEC
  0
SECTION
  2
TABLES
  0
TABLE
  2
VPORT
  5
8
330
0
100
AcDbSymbolTable
 70
1
  0
VPORT
  5
23
330
8
100
AcDbSymbolTableRecord
100
AcDbViewportTableRecord
  2
*Active
 70
0
 10
0.0
 20
0.0
 11
1.0
 21
1.0
 12
0.0
 22
0.0
 13
0.0
 23
0.0
 14
0.5
 24
0.5
 15
0.5
 25
0.5
 16
0.0
 26
0.0
 36
1.0
 17
0.0
 27
0.0
 37
0.0
 40
1000.0
 41
1.34
 42
50.0
 43
0.0
 44
0.0
 50
0.0
 51
0.0
 71
0
 72
1000
 73
1
 74
3
 75
0
 76
0
 77
0
 78
0
281
0
 65
0
146
0.0
  0
ENDTAB
  0
TABLE
  2
LTYPE
  5
2
330
0
100
AcDbSymbolTable
 70
3
  0
LTYPE
  5
24
330
2
100
AcDbSymbolTableRecord
100
AcDbLinetypeTableRecord
  2
ByBlock
 70
0
  3

 72
65
 73
0
 40
0.0
  0
LTYPE
  5
25
330
2
100
AcDbSymbolTableRecord
100
AcDbLinetypeTableRecord
  2
ByLayer
 70
0
  3

 72
65
 73
0
 40
0.0
  0
LTYPE
  5
26
330
2
100
AcDbSymbolTableRecord
100
AcDbLinetypeTableRecord
  2
Continuous
 70
0
  3

 72
65
 73
0
 40
0.0
  0
ENDTAB
  0
TABLE
  2
LAYER
  5
1
330
0
100
AcDbSymbolTable
 70
2
  0
LAYER
  5
27
330
1
100
AcDbSymbolTableRecord
100
AcDbLayerTableRecord
  2
0
 70
0
 62
7
  6
Continuous
370
-3
390
13
347
21
  0
LAYER
  5
28
330
1
100
AcDbSymbolTableRecord
100
AcDbLayerTableRecord
  2
Defpoints
 70
0
 62
7
  6
Continuous
290
0
370
-3
390
13
347
21
  0
ENDTAB
  0
TABLE
  2
STYLE
  5
5
330
0
100
AcDbSymbolTable
 70
1
  0
STYLE
  5
29
330
5
100
AcDbSymbolTableRecord
100
AcDbTextStyleTableRecord
  2
Standard
 70
0
 40
0.0
 41
1.0
 50
0.0
 71
0
 42
2.5
  3
txt
  4

  0
ENDTAB
  0
TABLE
  2
VIEW
  5
7
330
0
100
AcDbSymbolTable
 70
0
  0
ENDTAB
  0
TABLE
  2
UCS
  5
6
330
0
100
AcDbSymbolTable
 70
0
  0
ENDTAB
  0
TABLE
  2
APPID
  5
3
330
0
100
AcDbSymbolTable
 70
3
  0
APPID
  5
2A
330
3
100
AcDbSymbolTableRecord
100
AcDbRegAppTableRecord
  2
ACAD
 70
0
  0
APPID
  5
30
330
3
100
AcDbSymbolTableRecord
100
AcDbRegAppTableRecord
  2
HATCHBACKGROUNDCOLOR
 70
0
  0
APPID
  5
31
330
3
100
AcDbSymbolTableRecord
100
AcDbRegAppTableRecord
  2
EZDXF
 70
0
  0
ENDTAB
  0
TABLE
  2
DIMSTYLE
  5
4
330
0
100
AcDbSymbolTable
 70
1
100
AcDbDimStyleTable
  0
DIMSTYLE
105
2B
330
4
100
AcDbSymbolTableRecord
100
AcDbDimStyleTableRecord
  2
Standard
 70
0
 40
1.0
 41
2.5
 42
0.625
 43
3.75
 44
1.25
 45
0.0
 46
0.0
 47
0.0
 48
0.0
 49
2.5
140
2.5
141
2.5
142
0.0
143
0.03937007874
144
1.0
145
0.0
146
1.0
147
0.625
148
0.0
 69
0
 70
0
 71
0
 72
0
 73
0
 74
0
 75
0
 76
0
 77
1
 78
8
 79
3
170
0
171
3
172
1
173
0
174
0
175
0
176
0
177
0
178
0
179
2
271
2
272
2
273
2
274
3
275
0
276
0
277
2
278
44
279
0
280
0
281
0
282
0
283
0
284
8
285
0
286
0
288
0
289
3
290
0
371
-2
372
-2
  0
ENDTAB
  0
TABLE
  2
BLOCK_RECORD
  5
9
330
0
100
AcDbSymbolTable
 70
2
  0
BLOCK_RECORD
  5
17
330
9
100
AcDbSymbolTableRecord
100
AcDbBlockTableRecord
  2
*Model_Space
340
1A
 70
0
280
1
281
0
  0
BLOCK_RECORD
  5
1B
330
9
100
AcDbSymbolTableRecord
100
AcDbBlockTableRecord
  2
*Paper_Space
340
1E
 70
0
280
1
281
0
  0
ENDTAB
  0
ENDSEC
  0
SECTION
  2
BLOCKS
  0
BLOCK
  5
18
330
17
100
AcDbEntity
  8
0
100
AcDbBlockBegin
  2
*Model_Space
 70
0
 10
0.0
 20
0.0
 30
0.0
  3
*Model_Space
  1

  0
ENDBLK
  5
19
330
17
100
AcDbEntity
  8
0
100
AcDbBlockEnd
  0
BLOCK
  5
1C
330
1B
100
AcDbEntity
  8
0
100
AcDbBlockBegin
  2
*Paper_Space
 70
0
 10
0.0
 20
0.0
 30
0.0
  3
*Paper_Space
  1

  0
ENDBLK
  5
1D
330
1B
100
AcDbEntity
  8
0
100
AcDbBlockEnd
  0
ENDSEC
  0
SECTION
  2
ENTITIES
  0
LWPOLYLINE
  5
2F
330
17
100
AcDbEntity
  8
0
100
AcDbPolyline
 90
721
 70
1
 10
79.41969451663142
 20
16.519186678726882
 10
79.4172753004037
 20
16.51953396852434
 10
79.41006626996554
 20
16.520338375196
 10
79.39816449181306
 20
16.52112580358969
 10
79.38140309922629
 20
16.522107652397228
 10
79.36009161366214
 20
16.52297938114434
 10
79.33408742895335
 20
16.523833894387977
 10
79.30329641146875
 20
16.524527345640895
 10
79.26795532529158
 20
16.525110558220636
 10
79.22797003679067
 20
16.525439685639935
 10
79.1831736063914
 20
16.525726482428873
 10
79.13385136785242
 20
16.525784546409767
 10
79.07988487841996
 20
16.525588762455723
 10
79.02124985325639
 20
16.52525774331434
 10
78.95799486203705
 20
16.524554263490423
 10
78.89007128651693
 20
16.523715785704663
 10
78.81762180571774
 20
16.52264904956185
 10
78.74052797688572
 20
16.52132893993509
 10
78.6587655151832
 20
16.519874069571987
 10
78.57250133589999
 20
16.518072802555217
 10
78.48156845089177
 20
16.516137130640352
 10
78.38601540554912
 20
16.51382994694493
 10
78.28603036999503
 20
16.511439418894433
 10
78.18128244651507
 20
16.50877087668408
 10
78.07212674480688
 20
16.505900733209298
 10
77.95832647650236
 20
16.5027782837653
 10
77.83999996293105
 20
16.499429236542717
 10
77.71714717980811
 20
16.495853710154297
 10
77.58974381801106
 20
16.49217043596041
 10
77.45778980468532
 20
16.488379769799273
 10
77.32133368522148
 20
16.484244604788444
 10
77.18032686565927
 20
16.48000228503587
 10
77.03491192788117
 20
16.475560024597343
 10
76.88494619286536
 20
16.47101108386806
 10
76.7304781331479
 20
16.466118711803805
 10
76.57157757323745
 20
16.461145486252185
 10
76.40822015544185
 20
16.45621037579905
 10
76.24047868570447
 20
16.450957779427085
 10
76.06818612731135
 20
16.445599926117332
 10
75.89160352918346
 20
16.440069026439737
 10
75.71046974526053
 20
16.434433344275355
 10
75.52502151534095
 20
16.42874382155448
 10
75.33514037238618
 20
16.42297546176294
 10
75.1409446620106
 20
16.41715385447865
 10
74.9423402020133
 20
16.41113539043983
 10
74.73944533800868
 20
16.404945659224385
 10
74.53209303328279
 20
16.398796889813365
 10
74.32054431247181
 20
16.39262141138946
 10
74.10468070853713
 20
16.386394227438515
 10
73.88450217290907
 20
16.380115575186018
 10
73.66000858416346
 20
16.373786047695717
 10
73.43129405164669
 20
16.36754961006761
 10
73.19826434458817
 20
16.36126289026543
 10
72.96101354804945
 20
16.355069972001928
 10
72.71956582544404
 20
16.34885283559324
 10
72.47396972216237
 20
16.3423743741569
 10
72.22429496557393
 20
16.33589763999151
 10
71.97037454324952
 20
16.329634743465377
 10
71.71220833376505
 20
16.32358627764223
 10
71.44998756153272
 20
16.31742187524442
 10
71.18368784457546
 20
16.311260623470524
 10
70.9133091343237
 20
16.305102759546042
 10
70.63877845484014
 20
16.299304714777524
 10
70.36021715745869
 20
16.293273781265196
 10
70.07769501811838
 20
16.287272774082158
 10
69.79118767912699
 20
16.28142066181426
 10
69.50055236432345
 20
16.275811179307684
 10
69.20605007405908
 20
16.270376774357878
 10
68.90758660184815
 20
16.264973956315842
 10
68.60516189912089
 20
16.259602962407037
 10
68.29884569324676
 20
16.254526844930094
 10
67.98873502643706
 20
16.249271627345564
 10
67.6746628862627
 20
16.244049420021756
 10
67.35684167911482
 20
16.23903001486207
 10
67.03527133213889
 20
16.234213767704748
 10
66.70988194797167
 20
16.229338456540415
 10
66.38064912035131
 20
16.22452328718042
 10
66.04780958907625
 20
16.21981920155506
 10
65.71119629314772
 20
16.21543854725813
 10
65.37088201422429
 20
16.211025841885053
 10
65.02698507363543
 20
16.206606793626477
 10
64.67950539852666
 20
16.20218175832065
 10
64.32839429779845
 20
16.197988554526507
 10
63.9736516985963
 20
16.194027538082302
 10
63.61530181290334
 20
16.190180452078664
 10
63.25360566535575
 20
16.186379625698294
 10
62.88830203703863
 20
16.182693678660463
 10
62.51950927356639
 20
16.179148200543075
 10
62.147418575066496
 20
16.17541294268122
 10
61.77188711680809
 20
16.171581877146576
 10
61.39296038989261
 20
16.168036431759855
 10
61.01075673993445
 20
16.164802196098954
 10
60.62508777824692
 20
16.161592070253093
 10
60.2362631477112
 20
16.158100920684262
 10
59.84418561183724
 20
16.154803672833864
 10
59.448879382608176
 20
16.15158206979254
 10
59.05032007804703
 20
16.148555198758878
 10
58.64867458915865
 20
16.145511542428324
 10
58.243942867373406
 20
16.14245133802636
 10
57.83600637279817
 20
16.139349944877072
 10
57.4250775846786
 20
16.13637679904562
 10
57.011038011691234
 20
16.13350702263059
 10
56.59405456912585
 20
16.13052897971467
 10
56.17412715984305
 20
16.127443144748838
 10
55.751374153742105
 20
16.124274988698254
 10
55.32565272609224
 20
16.1211184836346
 10
54.89703267711733
 20
16.118236326018238
 10
54.465468297152476
 20
16.11524815554319
 10
54.031290605336366
 20
16.1123480489505
 10
53.59435975837288
 20
16.109011799446957
 10
53.15465135000015
 20
16.10535861284389
 10
52.71232936264293
 20
16.10179479486341
 10
52.267369414324264
 20
16.098439432704126
 10
51.81960740119513
 20
16.094886813707653
 10
51.36956561537617
 20
16.09100041011188
 10
50.91691291630447
 20
16.0865867382395
 10
50.46181323783515
 20
16.082052341038114
 10
50.004123779522295
 20
16.077491071966666
 10
49.5441056631414
 20
16.072834785756857
 10
49.08171322759718
 20
16.067702884877203
 10
48.617016273113535
 20
16.062358065788068
 10
48.1499661328758
 20
16.057038028435652
 10
47.68068418250262
 20
16.05114994630742
 10
47.20919463397718
 20
16.044575562494014
 10
46.7356129000489
 20
16.037958408212756
 10
46.25972628290865
 20
16.031130114913232
 10
45.78174733465656
 20
16.02425976282234
 10
45.30182171574897
 20
16.016635912679952
 10
44.81992506849368
 20
16.008377533071908
 10
44.3360087746457
 20
15.999722086718918
 10
43.84999985826782
 20
15.991026004927535
 10
43.36223239278788
 20
15.981864829735647
 10
42.872566462055225
 20
15.971714710188264
 10
42.38128461267255
 20
15.961006474070665
 10
41.8880283649502
 20
15.950283785156307
 10
41.39301332527741
 20
15.939097188968919
 10
40.896336511580664
 20
15.926972827581817
 10
40.39818631254664
 20
15.91419780090578
 10
39.898301387836305
 20
15.900841321723837
 10
39.39689436240432
 20
15.887072114424656
 10
38.89387098119524
 20
15.87274692558471
 10
38.389398256638195
 20
15.857653644835702
 10
37.88359463148688
 20
15.84181738730453
 10
37.376341541563356
 20
15.825213630928022
 10
36.86787594522967
 20
15.807892250121753
 10
36.35796078698442
 20
15.789803844921142
 10
35.84678440694466
 20
15.771235752462461
 10
35.334371114232816
 20
15.75206924138536
 10
34.82084223589793
 20
15.731711722402792
 10
34.30614915369498
 20
15.710400658235477
 10
33.79050456543313
 20
15.688304417433827
 10
33.27364713077336
 20
15.665492212780872
 10
32.75586237775301
 20
15.641776693196976
 10
32.237174566924914
 20
15.617039364547269
 10
31.71760795884189
 20
15.591161732696895
 10
31.197113886689262
 20
15.564381497592063
 10
30.675786605522454
 20
15.536841912656286
 10
30.153626042486945
 20
15.508543333727804
 10
29.630823543419158
 20
15.479154800465208
 10
29.107284853263675
 20
15.448533059444985
 10
28.583152723896756
 20
15.41658449443369
 10
28.058472816413627
 20
15.383689702962783
 10
27.533053712123344
 20
15.350180001211926
 10
27.00718101191779
 20
15.315867682263228
 10
26.480930454605193
 20
15.279779203459931
 10
25.954156258305048
 20
15.242626597125911
 10
25.42707124225069
 20
15.204577638747848
 10
24.899605363369876
 20
15.16537081799287
 10
24.371782930785084
 20
15.124887403500614
 10
23.843768096914996
 20
15.083532870703966
 10
23.31546665527386
 20
15.041163728953917
 10
22.787069927413253
 20
14.997449136521801
 10
22.258459373440097
 20
14.95236445273171
 10
21.72984781258774
 20
14.906077453070322
 10
21.201210911448847
 20
14.858706987510747
 10
20.67262154882124
 20
14.809897099197407
 10
20.14405539129758
 20
14.75976663810341
 10
19.615606718218164
 20
14.708458739039532
 10
19.087084135176845
 20
14.656304599572664
 10
18.558870430985845
 20
14.60264182456901
 10
18.030965605645154
 20
14.54747041402856
 10
17.503345398601954
 20
14.490908862086181
 10
16.975985476448894
 20
14.433076018714969
 10
16.44902873677125
 20
14.373877556004985
 10
15.922332330553411
 20
14.313407564640675
 10
15.39615764670409
 20
14.251596594613508
 10
14.870553279183444
 20
14.188207301815527
 10
14.345494943153813
 20
14.123358298994335
 10
13.820958378062366
 20
14.057168080284793
 10
13.296967868746771
 20
13.989518032939293
 10
12.773809161807893
 20
13.92021973836346
 10
12.251315099107643
 20
13.849486018602086
 10
11.729555723718278
 20
13.777578383988054
 10
11.208533895650206
 20
13.703879248720169
 10
10.688438197868795
 20
13.628674763807222
 10
10.169195848715555
 20
13.552320411653792
 10
9.650761089955878
 20
13.474436069179388
 10
9.133419716760324
 20
13.394833080564146
 10
8.61712318373839
 20
13.31374855269052
 10
8.101801472102634
 20
13.230920856612887
 10
7.58764323767294
 20
13.146635787501795
 10
7.0745784859467165
 20
13.060631597798869
 10
6.562820133296662
 20
12.973075588539803
 10
6.052058196853911
 20
12.884274553841076
 10
5.542578471789016
 20
12.794039837882826
 10
5.034478097452655
 20
12.70189698967463
 10
4.527732861861658
 20
12.607964266125842
 10
4.022388498965798
 20
12.512621908929706
 10
3.518469390742092
 20
12.415750830887621
 10
3.0159998463130417
 20
12.317232300639231
 10
2.515098502711101
 20
12.217090484409464
 10
2.0155982017981606
 20
12.115538204243107
 10
1.517569083785825
 20
12.012836496022055
 10
1.02122690077239
 20
11.908535193593554
 10
0.5266202710028757
 20
11.8023968342369
 10
0.033700697656435866
 20
11.694658287609059
 10
-0.4574352571519164
 20
11.585451538922522
 10
-0.9469022720260823
 20
11.474733088074515
 10
-1.4346059462016152
 20
11.362645476812064
 10
-1.9204519517685885
 20
11.249331602720448
 10
-2.404461762123907
 20
11.134292729971575
 10
-2.8865167645199823
 20
11.017553143403115
 10
-3.366619770397558
 20
10.899730191590761
 10
-3.844840822828892
 20
10.780562364201634
 10
-4.3209184114811166
 20
10.659979618163469
 10
-4.795089761849429
 20
10.537933383800924
 10
-5.267117648438618
 20
10.414472230789343
 10
-5.736932028176427
 20
10.289857669461602
 10
-6.20479441139573
 20
10.164159742889968
 10
-6.670464761160578
 20
10.036809672174087
 10
-7.133851561001775
 20
9.90856770347492
 10
-7.5951219933422545
 20
9.779646777450022
 10
-8.054248961903633
 20
9.649310932776082
 10
-8.510876628443068
 20
9.517633023966113
 10
-8.965196460221186
 20
9.384944604425256
 10
-9.417232742075658
 20
9.25136428690112
 10
-9.866936904331128
 20
9.116654845898495
 10
-10.31409600633007
 20
8.980983463840325
 10
-10.758947273567694
 20
8.84430157105127
 10
-11.201326335061799
 20
8.707013575449484
 10
-11.641184621137041
 20
8.568882251539756
 10
-12.07849784695575
 20
8.429788986574483
 10
-12.513290297355596
 20
8.28985239330127
 10
-12.945491929264318
 20
8.149333982052994
 10
-13.375221355429515
 20
8.008209467991987
 10
-13.80219278068064
 20
7.866290195298381
 10
-14.226406205017694
 20
7.723576163972173
 10
-14.647955956350609
 20
7.5799244764280855
 10
-15.066747706769457
 20
7.435478030251395
 10
-15.482854310787234
 20
7.2905926636849205
 10
-15.896181440494011
 20
7.145411274313933
 10
-16.30663195653912
 20
6.9994594111480115
 10
-16.71432447167015
 20
6.852712789349489
 10
-17.11887886280663
 20
6.705125650683766
 10
-17.52060520995676
 20
6.557005263718321
 10
-17.919527797958228
 20
6.408470241200758
 10
-18.315409401315815
 20
6.259569152806418
 10
-18.708225735191853
 20
6.1101833857876935
 10
-19.098022557820936
 20
5.959932817064099
 10
-19.48477839580614
 20
5.809316182463729
 10
-19.86856610366048
 20
5.65868932022939
 10
-20.24914564444799
 20
5.507483451460738
 10
-20.62663563091628
 20
5.355674291320092
 10
-21.00084740724548
 20
5.203547634978008
 10
-21.3718995861832
 20
5.051079197596814
 10
-21.7398164525671
 20
4.8983875919241155
 10
-22.104406539136573
 20
4.745141264554768
 10
-22.465718415566954
 20
4.5915774409839765
 10
-22.82375208185825
 20
4.437696121211749
 10
-23.178604677361122
 20
4.283971756228499
 10
-23.53001469174271
 20
4.130334302961966
 10
-23.878146495985202
 20
3.9763793534939924
 10
-24.222832907665666
 20
3.8218939671670373
 10
-24.564052453387163
 20
3.66737687980919
 10
-24.90197231557265
 20
3.5130410320779935
 10
-25.23637674212383
 20
3.3584362578206957
 10
-25.567195689968443
 20
3.203824067370175
 10
-25.894690669439363
 20
3.0492745037987015
 10
-26.218624455041397
 20
2.8948361367816102
 10
-26.538924192261515
 20
2.7401531280760856
 10
-26.85566273561274
 20
2.5855813159249466
 10
-27.16886436993273
 20
2.4312393130757943
 10
-27.478504810383832
 20
2.2770085067810246
 10
-27.78446544421842
 20
2.1229131818783125
 10
-28.08672198659884
 20
1.9688347256200425
 10
-28.385417335110365
 20
1.8148674659161594
 10
-28.68031426425778
 20
1.6610599724419959
 10
-28.971461343716424
 20
1.5076494706927666
 10
-29.259047229306173
 20
1.3543501654979209
 10
-29.542716082784203
 20
1.2012349113704646
 10
-29.82256223206046
 20
1.0481608107251281
 10
-30.098682816485614
 20
0.8956023145523271
 10
-30.37107783605967
 20
0.743559422852064
 10
-30.639580108359677
 20
0.5918191949667991
 10
-30.90416534854797
 20
0.4402630181489243
 10
-31.16492788453449
 20
0.28874799481316593
 10
-31.42175191501237
 20
0.1379157583728902
 10
-31.674731767891533
 20
-0.012376588757178147
 10
-31.923818873496657
 20
-0.16236627207225154
 10
-32.16889461908014
 20
-0.3120290067346589
 10
-32.410007574317305
 20
-0.46112756724919024
 10
-32.647109169532825
 20
-0.6098991791110546
 10
-32.88022368956435
 20
-0.758225229572647
 10
-33.10937541924958
 20
-0.9059871058863653
 10
-33.334397176165545
 20
-1.0533977487097472
 10
-33.55536181482527
 20
-1.2001013197999777
 10
-33.77229080862568
 20
-1.346596554985148
 10
-33.98516268416983
 20
-1.4923847184371688
 10
-34.19395315662007
 20
-1.637584422903642
 10
-34.39863794113872
 20
-1.7823142811321768
 10
-34.59909842497819
 20
-1.9265500082851
 10
-34.79547750572373
 20
-2.0701972764524785
 10
-34.98772942514077
 20
-2.2128759625538272
 10
-35.17580561355395
 20
-2.3548232920843533
 10
-35.359706070963284
 20
-2.4960392650440624
 10
-35.53957369495403
 20
-2.6364295535230124
 10
-35.71514697519333
 20
-2.7760642005934755
 10
-35.8865930941041
 20
-2.9147302655979064
 10
-36.053842008614104
 20
-3.0521662382034283
 10
-36.21701233147093
 20
-3.1883964032477086
 10
-36.375936880251636
 20
-3.323633701388287
 10
-36.53075855254149
 20
-3.4577838047152323
 10
-36.68124012284531
 20
-3.5907981435532013
 10
-36.827667386333616
 20
-3.7224880620823253
 10
-36.96982740234886
 20
-3.8526863778796585
 10
-37.10779021396334
 20
-3.981654601278083
 10
-37.24155582117703
 20
-4.109392732277595
 10
-37.371124223989945
 20
-4.235900770878198
 10
-37.49642537932981
 20
-4.3609172067470094
 10
-37.617459287196624
 20
-4.484442039884032
 10
-37.734271705825
 20
-4.60685539336975
 10
-37.84681687698032
 20
-4.727777144123676
 10
-37.95499766131193
 20
-4.847681743136235
 10
-38.05891119817047
 20
-4.966094739417002
 10
-38.15846034820531
 20
-5.083490583956402
 10
-38.253693681091754
 20
-5.199632051259221
 10
-38.3446111968298
 20
-5.31451914132546
 10
-38.4310699978342
 20
-5.428246182065055
 10
-38.513355879275494
 20
-5.540624517658136
 10
-38.591040148397845
 20
-5.651937131834507
 10
-38.66452721311941
 20
-5.762019653611969
 10
-38.73355556310733
 20
-5.870942126062789
 10
-38.79819805287458
 20
-5.978348710944147
 10
-38.85852472549346
 20
-6.084500918588927
 10
-38.914441253054015
 20
-6.189255851411852
 10
-38.96604477490692
 20
-6.292139058422501
 10
-39.013381049286785
 20
-6.3935306627013615
 10
-39.056380033121336
 20
-6.493169153915553
 10
-39.0950902960859
 20
-6.590817306569863
 10
-39.129608977531184
 20
-6.686000669673869
 10
-39.15993607745716
 20
-6.7787192432275765
 10
-39.18623877828678
 20
-6.8687600865734435
 10
-39.20840127871319
 20
-6.9554815662981015
 10
-39.22663933083466
 20
-7.038433516248801
 10
-39.24131439577549
 20
-7.116454093787158
 10
-39.25235924190417
 20
-7.188664440004599
 10
-39.26028103937099
 20
-7.2531910357771086
 10
-39.26558695832627
 20
-7.308160361980673
 10
-39.26862260937888
 20
-7.350677142997428
 10
-39.270113726218135
 20
-7.377800344974911
 10
-39.11716297087818
 20
-8.136315826835629
 10
-39.11367080195253
 20
-8.141903665047778
 10
-39.10321858001331
 20
-8.158548566936624
 10
-39.085903444411144
 20
-8.185776081511742
 10
-39.0611939401581
 20
-8.225578340644752
 10
-39.02881731115829
 20
-8.280494781710706
 10
-38.98991775622294
 20
-8.344333256996459
 10
-38.94512949257218
 20
-8.413392486488585
 10
-38.895005448590915
 20
-8.486179074143545
 10
-38.83993699312262
 20
-8.560177867423969
 10
-38.78002407695868
 20
-8.634297066763734
 10
-38.71562534978269
 20
-8.707992178100161
 10
-38.64671933819769
 20
-8.780764465605154
 10
-38.57340318155437
 20
-8.852139478288292
 10
-38.49572544952806
 20
-8.92187999065436
 10
-38.41368614211878
 20
-8.98998600270337
 10
-38.32742815691179
 20
-9.056363186525378
 10
-38.23688145083482
 20
-9.120750031787507
 10
-38.1420217390502
 20
-9.183265151237357
 10
-38.04299191914322
 20
-9.243814216965001
 10
-37.93962480869092
 20
-9.30261016962797
 10
-37.83194469253098
 20
-9.359534396478667
 10
-37.72023736583395
 20
-9.414398241697217
 10
-37.60407413584399
 20
-9.467484689013427
 10
-37.483835125641605
 20
-9.5187479801927
 10
-37.3592588248939
 20
-9.568258158307307
 10
-37.23048813118616
 20
-9.615920895447303
 10
-37.09754732935605
 20
-9.66161757886509
 10
-36.960363564890564
 20
-9.705704046803483
 10
-36.818985407465036
 20
-9.747943073767267
 10
-36.67331571772879
 20
-9.78880911074687
 10
-36.52342735019484
 20
-9.82794631949947
 10
-36.369390347935436
 20
-9.86561621035795
 10
-36.211086098203005
 20
-9.90179449848464
 10
-36.04846603132218
 20
-9.93671840937475
 10
-35.88167304487824
 20
-9.970293615118345
 10
-35.71068285403352
 20
-10.00263872846303
 10
-35.53549545878803
 20
-10.033753749408804
 10
-35.35591939188114
 20
-10.063970231360814
 10
-35.17221616364573
 20
-10.093218131246791
 10
-34.98417283342427
 20
-10.121330266643797
 10
-34.79202662671197
 20
-10.148355207227167
 10
-34.595610361085875
 20
-10.174505893654443
 10
-34.3950426492936
 20
-10.199806610763291
 10
-34.190229163425215
 20
-10.22411446096844
 10
-33.98133708590364
 20
-10.247216503612348
 10
-33.768223519143625
 20
-10.26920706660495
 10
-33.5511014038027
 20
-10.290253332369193
 10
-33.329852127133265
 20
-10.310331016067405
 10
-33.104475689135306
 20
-10.329440117699585
 10
-32.87504494432184
 20
-10.34722479902292
 10
-32.64167850544049
 20
-10.363709344875076
 10
-32.40425775974362
 20
-10.378869470418389
 10
-32.16285275030352
 20
-10.392966685985733
 10
-31.91746347712017
 20
-10.40600099157711
 10
-31.66818707954426
 20
-10.417497936202102
 10
-31.415093600648056
 20
-10.427719030193584
 10
-31.158088712521632
 20
-10.436521375966286
 10
-30.897148130327295
 20
-10.444023586267809
 10
-30.632390466812673
 20
-10.450249945935827
 10
-30.36384000681542
 20
-10.455081842222729
 10
-30.09147246549787
 20
-10.458637887876124
 10
-29.815287842860016
 20
-10.460918082896013
 10
-29.53531042373955
 20
-10.461803814534788
 10
-29.25163453604639
 20
-10.461437980377724
 10
-28.96426017978054
 20
-10.459820580424823
 10
-28.67309302703206
 20
-10.456808717090807
 10
-28.378321733620833
 20
-10.452688185546227
 10
-28.079851971636913
 20
-10.447316088205813
 10
-27.77765945624263
 20
-10.440811037817163
 10
-27.471887085023262
 20
-10.433078706470342
 10
-27.162607712491823
 20
-10.42376325592254
 10
-26.849748484135297
 20
-10.413220524416566
 10
-26.533142217530738
 20
-10.401663452609963
 10
-26.213169035758643
 20
-10.389046282268138
 10
-25.889640282999125
 20
-10.375083218220537
 10
-25.562580244089865
 20
-10.359655647719558
 10
-25.23217757485073
 20
-10.343049365935745
 10
-24.89828937769645
 20
-10.325358700779041
 10
-24.560964222302356
 20
-10.306346426754232
 10
-24.220320721416055
 20
-10.286036828698984
 10
-23.87638315987522
 20
-10.264311293865699
 10
-23.529078683166844
 20
-10.241525660497187
 10
-23.178455860966256
 20
-10.21744270309824
 10
-22.824466123598132
 20
-10.192299647164067
 10
-22.467419551070677
 20
-10.16578922412719
 10
-22.107054633051018
 20
-10.137981477059878
 10
-21.74348998228676
 20
-10.108900690799802
 10
-21.376819926687837
 20
-10.078689762932232
 10
-21.006974423181987
 20
-10.047087183124292
 10
-20.634023514841473
 20
-10.014354461708859
 10
-20.258110099251564
 20
-9.980397270775997
 10
-19.8790455205924
 20
-9.944929815155158
 10
-19.49706700435918
 20
-9.908000664521683
 10
-19.112101696038902
 20
-9.869965657118385
 10
-18.724149595631566
 20
-9.830824792945263
 10
-18.333210703137173
 20
-9.79057807200232
 10
-17.939476485816336
 20
-9.748893940884408
 10
-17.542995513344387
 20
-9.705535174096315
 10
-17.143552033623056
 20
-9.660951937790793
 10
-16.74138327214754
 20
-9.615192801643186
 10
-16.33641918584557
 20
-9.567996255320606
 10
-15.928826957140117
 20
-9.519149358165519
 10
-15.518533731518145
 20
-9.469007948420735
 10
-15.10560955205193
 20
-9.417833536419138
 10
-14.689984375669207
 20
-9.365364611827847
 10
-14.271731056882977
 20
-9.311245336404042
 10
-13.851038251513126
 20
-9.255761505318281
 10
-13.427881674721966
 20
-9.19903173131816
 10
-13.002024101014301
 20
-9.141007444728347
 10
-12.573845653470611
 20
-9.081642887314242
 10
-12.143276289018631
 20
-9.020676548742964
 10
-11.710316007658362
 20
-8.958108429014517
 10
-11.275059137299731
 20
-8.89408142571417
 10
-10.837384253754404
 20
-8.829188602579954
 10
-10.397482824282983
 20
-8.76309840620672
 10
-9.95533337548855
 20
-8.69531210076638
 10
-9.510911622533428
 20
-8.625948299006534
 10
-9.06445479091283
 20
-8.555055570602528
 10
-8.615747128528477
 20
-8.483084081707108
 10
-8.164955817803309
 20
-8.409820891662735
 10
-7.712080858737323
 20
-8.33526600046941
 10
-7.257170821005863
 20
-8.259182182631921
 10
-6.80020141977126
 20
-8.181688050897872
 10
-6.341361310853386
 20
-8.103069400437818
 10
-5.880461838432368
 20
-8.023040436081201
 10
-5.417788797678747
 20
-7.941412502008156
 10
-4.9533179037548605
 20
-7.858304210966283
 10
-4.487024871823047
 20
-7.773834175703193
 10
-4.018815373973353
 20
-7.687859498633606
 10
-3.549093818123958
 20
-7.600215808775326
 10
-3.077765876364901
 20
-7.510760208543072
 10
-2.604567226922571
 20
-7.420180089584809
 10
-2.1297593801298493
 20
-7.328405408828271
 10
-1.6536066577603536
 20
-7.234748774625493
 10
-1.1757989798058723
 20
-7.139517455543956
 10
-0.6964306741763304
 20
-7.042854349168931
 10
-0.2157875360422787
 20
-6.944570799680546
 10
0.26634337525381196
 20
-6.844499624655862
 10
0.7497248342167429
 20
-6.742689393770213
 10
1.2345725929447875
 20
-6.639590273176354
 10
1.720719469015004
 20
-6.53498932221674
 10
2.207925425491458
 20
-6.428317761991016
 10
2.6963819296347387
 20
-6.3199071459043275
 10
3.186067508047928
 20
-6.210256209784768
 10
3.676790766324929
 20
-6.09903375606543
 10
4.168649966519377
 20
-5.986116102426152
 10
4.661577299764059
 20
-5.871775671572598
 10
5.155475699562833
 20
-5.755538368352582
 10
5.650345214485366
 20
-5.637404429991603
 10
6.14616437113472
 20
-5.517872592317754
 10
6.6428389387403195
 20
-5.397086227367296
 10
7.1404632694969425
 20
-5.274902556167703
 10
7.6388459204288015
 20
-5.150990143926576
 10
8.138035485496081
 20
-5.025586334751874
 10
8.63803206183813
 20
-4.898691603094588
 10
9.138717012422497
 20
-4.770330115179639
 10
9.640017555590697
 20
-4.640146388602454
 10
10.141982261018072
 20
-4.50837764885824
 10
10.64447104256008
 20
-4.375546916612763
 10
11.147696938013613
 20
-4.2414874838940655
 10
11.651349843085622
 20
-4.105891963521925
 10
12.155572703931053
 20
-3.9688549206317694
 10
12.66012829505469
 20
-3.8304249248989413
 10
13.165159538326654
 20
-3.6906964228461225
 10
13.670642173194112
 20
-3.549550920338454
 10
14.176363258999515
 20
-3.4071555997988803
 10
14.682489978165819
 20
-3.263723401884942
 10
15.188998118709861
 20
-3.119136069687279
 10
15.695626097444244
 20
-2.973323204295382
 10
16.202516860523918
 20
-2.8263793708446796
 10
16.709600364876632
 20
-2.6785660796680517
 10
17.216898108184132
 20
-2.529384713550158
 10
17.724221386056882
 20
-2.3791208304360496
 10
18.231618768170218
 20
-2.2280116558209384
 10
18.739065993971312
 20
-2.0759386955699664
 10
19.24651449378481
 20
-1.9226647241879256
 10
19.754012861570914
 20
-1.7684270857827686
 10
20.26137232008554
 20
-1.613510982461313
 10
20.768662960970644
 20
-1.4576551411161691
 10
21.275839025991623
 20
-1.3012396848278245
 10
21.782827612065798
 20
-1.1439085381279668
 10
22.289604458640333
 20
-0.9855432068817389
 10
22.796218135390568
 20
-0.8263809165843513
 10
23.30250412562526
 20
-0.666825363477477
 10
23.808581114946566
 20
-0.5068526185616801
 10
24.31425758752416
 20
-0.34613089120632645
 10
24.81955777962604
 20
-0.18477855693352427
 10
25.324481715537065
 20
-0.022795734356020173
 10
25.829053631525223
 20
0.13969920100407673
 10
26.333011895833437
 20
0.30277688528276914
 10
26.836499478901487
 20
0.4663426347318764
 10
27.33942190711042
 20
0.6302542634426136
 10
27.841946484307382
 20
0.7942982376936991
 10
28.34373862708292
 20
0.9589015063149441
 10
28.844822644559564
 20
1.1239453379459985
 10
29.345438573673256
 20
1.2888609536865019
 10
29.845203358478592
 20
1.454312053410488
 10
30.34409264128336
 20
1.6204176057038007
 10
30.842370816715736
 20
1.7864898630802395
 10
31.339849034677105
 20
1.952243979271234
 10
31.83650024745875
 20
2.1184156783745878
 10
32.332230030011395
 20
2.2848625372560196
 10
32.826919623878396
 20
2.451560982754347
 10
33.320736284337215
 20
2.618297718373783
 10
33.813585562053724
 20
2.784930439592792
 10
34.305491669011076
 20
2.9513408895020126
 10
34.79628734993183
 20
3.117742364597227
 10
35.28592393800128
 20
3.284372564824638
 10
35.7744742634476
 20
3.450875770554174
 10
36.261938301985964
 20
3.617252100398589
 10
36.7481028458256
 20
3.7833356766751574
 10
37.233205290455594
 20
3.9491742387699853
 10
37.71693531301934
 20
4.115076241378028
 10
38.19931714978485
 20
4.280923308977174
 10
38.68047212780108
 20
4.446122852280384
 10
39.16037598651526
 20
4.610793365422526
 10
39.638742615053886
 20
4.77512504618918
 10
40.11583369374377
 20
4.939047021218853
 10
40.591387445118755
 20
5.10263063832403
 10
41.06552253049614
 20
5.265899945116884
 10
41.53816873680982
 20
5.428594261553779
 10
42.009207281318304
 20
5.590690133086269
 10
42.47880541929906
 20
5.751974263218575
 10
42.94665275504095
 20
5.9127554624838865
 10
43.412986684033086
 20
6.073081470268319
 10
43.87754542880937
 20
6.233023634384355
 10
44.340474576971594
 20
6.3918708714101
 10
44.80165537006318
 20
6.549599608184378
 10
45.26117949454713
 20
6.706969260578919
 10
45.71866639021593
 20
6.864027721857782
 10
46.17454773125997
 20
7.019873829426227
 10
46.62856171592835
 20
7.174579049709492
 10
47.08061108344619
 20
7.328618426761743
 10
47.5306957852438
 20
7.481992197808459
 10
47.97884003330435
 20
7.634582105940296
 10
48.42516520324652
 20
7.7857953246447105
 10
48.86938511134237
 20
7.935822407545543
 10
49.311664371422424
 20
8.085066576433466
 10
49.75176536943412
 20
8.233481159437108
 10
50.189736602198266
 20
8.3808292868995
 10
50.62562659082054
 20
8.526873970550925
 10
51.05938666848623
 20
8.671852910337588
 10
51.49089797959935
 20
8.815743007549285
 10
51.92032780372222
 20
8.958330847077496
 10
52.34743852680223
 20
9.099569757050842
 10
52.77227600421329
 20
9.239839386098812
 10
53.19460257333314
 20
9.37909329957553
 10
53.61482305492218
 20
9.517165110082082
 10
54.03251083912018
 20
9.653724011155008
 10
54.44790341855558
 20
9.788817267729426
 10
54.860976411251336
 20
9.922563967003924
 10
55.27144363347951
 20
10.055154662602341
 10
55.67932924865361
 20
10.186471334840816
 10
56.08489500995484
 20
10.316442754519594
 10
56.48780882971167
 20
10.444880063858516
 10
56.888237938916696
 20
10.571570084974546
 10
57.28599062746093
 20
10.696845557400303
 10
57.68116129610884
 20
10.820849022882825
 10
58.07365537410207
 20
10.943438769964303
 10
58.46347276430133
 20
11.064615273095736
 10
58.85056744133875
 20
11.183999713936863
 10
59.23498528487316
 20
11.301971622504427
 10
59.61651289283507
 20
11.41836607001769
 10
59.995220381151285
 20
11.53344421097129
 10
60.37118055576511
 20
11.646850444347903
 10
60.7442987973486
 20
11.75844329591523
 10
61.114502154249344
 20
11.868579078367073
 10
61.48179055361285
 20
11.977258147541676
 10
61.84616389829981
 20
12.084480977890038
 10
62.20743309536319
 20
12.18996390927105
 10
62.56588420710683
 20
12.293516981124633
 10
62.92127692946155
 20
12.39571027709136
 10
63.273516667384136
 20
12.496402204326174
 10
63.62272210647681
 20
12.595616691828516
 10
63.968822936533996
 20
12.69309353400572
 10
64.31167599283724
 20
12.788928363507942
 10
64.65149450746215
 20
12.883286939405165
 10
64.98811362372975
 20
12.975767226034181
 10
65.32148469911021
 20
13.066606804728446
 10
65.65163194558669
 20
13.15568741857859
 10
65.97848238722197
 20
13.243365498891178
 10
66.30208452083686
 20
13.329404176009236
 10
66.62231944226572
 20
13.413780588448065
 10
66.93921136349175
 20
13.496376479298306
 10
67.25285473384899
 20
13.57733415308149
 10
67.5629875573079
 20
13.656726025124843
 10
67.86960971244423
 20
13.7345526884921
 10
68.17286424255227
 20
13.810719103596837
 10
68.47277545675459
 20
13.885106539078706
 10
68.76903329932776
 20
13.958022144892436
 10
69.06175429452334
 20
14.029500406571978
 10
69.35101365248364
 20
14.099173980438021
 10
69.63666730995111
 20
14.16714288781236
 10
69.9186666486808
 20
14.233644591415725
 10
70.19717897251981
 20
14.298465557526827
 10
70.47199083082901
 20
14.361441094590417
 10
70.74317238810485
 20
14.422832119875638
 10
71.01069928665514
 20
14.48275760196834
 10
71.27445264659913
 20
14.541194560771086
 10
71.53448096475753
 20
14.597906126626896
 10
71.7907598348686
 20
14.65301150534712
 10
72.04324063868722
 20
14.706748159652456
 10
72.2919475639118
 20
14.7589979512463
 10
72.53681032462165
 20
14.809500555923245
 10
72.77782879939255
 20
14.85825656674702
 10
73.01502463161538
 20
14.905763889256493
 10
73.24830317767722
 20
14.9518811678321
 10
73.47766441329328
 20
14.9966085210866
 10
73.70313250187705
 20
15.039827929336113
 10
73.92458858783253
 20
15.081516293870454
 10
74.14215138104666
 20
15.121697425076293
 10
74.35565348053301
 20
15.160585331125915
 10
74.56514333454268
 20
15.197943379587834
 10
74.77057232483067
 20
15.23400903318276
 10
74.97210777952898
 20
15.268568639576669
 10
75.16946341777027
 20
15.30181322684438
 10
75.36273371317351
 20
15.333884980894686
 10
75.55182407069553
 20
15.364642308882534
 10
75.73687753363069
 20
15.393990171221501
 10
75.91772645814406
 20
15.422143762211334
 10
76.09453805094346
 20
15.448890022581747
 10
76.2670032762687
 20
15.474531120552069
 10
76.43538209022304
 20
15.499004604265878
 10
76.59943751015963
 20
15.522260717920357
 10
76.75928829453512
 20
15.544323034676694
 10
76.91493439477983
 20
15.565191791760386
 10
77.06635145320156
 20
15.584985957757276
 10
77.21344492332686
 20
15.60356370259682
 10
77.35616613834102
 20
15.621162726225215
 10
77.49465821439289
 20
15.637687633217805
 10
77.62877793819426
 20
15.653234293450238
 10
77.758549570298
 20
15.667684212787668
 10
77.88394880158155
 20
15.681156122590423
 10
78.00499984402815
 20
15.693531765949169
 10
78.1216783885152
 20
15.704929874224241
 10
78.2339358410826
 20
15.7155877915236
 10
78.34170186723999
 20
15.725245430867345
 10
78.445189844772
 20
15.734067839648953
 10
78.54401892205301
 20
15.742104334485456
 10
78.6385698778541
 20
15.749305954598062
 10
78.72860500098335
 20
15.755626502566397
 10
78.81407569748058
 20
15.761303322498417
 10
78.89512505920976
 20
15.766241137582199
 10
78.97163420629003
 20
15.770416967720301
 10
79.04355456904611
 20
15.774068038407938
 10
79.11105349989475
 20
15.776980578698325
 10
79.17396359784951
 20
15.779368596763733
 10
79.23230909917838
 20
15.781113717082059
 10
79.28604143420603
 20
15.782453165148516
 10
79.3351848877701
 20
15.783268328215492
 10
79.37983395777438
 20
15.783701273579025
 10
79.41975095731176
 20
15.783705685205987
 10
79.45503045714061
 20
15.783423274554176
 10
79.48579126428716
 20
15.782877377559283
 10
79.5117956918443
 20
15.782021678188165
 10
79.53311397716303
 20
15.781116737871727
 10
79.54988930924661
 20
15.780066805347062
 10
79.56183533437331
 20
15.779063264527236
 10
79.5690466961559
 20
15.778247471031802
 10
79.57147475206453
 20
15.777857006194221
  0
ENDSEC
  0
SECTION
  2
OBJECTS
  0
DICTIONARY
  5
A
330
0
100
AcDbDictionary
280
0
281
1
  3
ACAD_COLOR
350
B
  3
ACAD_GROUP
350
C
  3
ACAD_LAYOUT
350
D
  3
ACAD_MATERIAL
350
E
  3
ACAD_MLEADERSTYLE
350
F
  3
ACAD_MLINESTYLE
350
10
  3
ACAD_PLOTSETTINGS
350
11
  3
ACAD_PLOTSTYLENAME
350
12
  3
ACAD_SCALELIST
350
14
  3
ACAD_TABLESTYLE
350
15
  3
ACAD_VISUALSTYLE
350
16
  3
EZDXF_META
350
2D
  0
DICTIONARY
  5
B
330
A
100
AcDbDictionary
280
0
281
1
  0
DICTIONARY
  5
C
330
A
100
AcDbDictionary
280
0
281
1
  0
DICTIONARY
  5
D
330
A
100
AcDbDictionary
280
0
281
1
  3
Model
350
1A
  3
Layout1
350
1E
  0
DICTIONARY
  5
E
330
A
100
AcDbDictionary
280
0
281
1
  3
ByBlock
350
1F
  3
ByLayer
350
20
  3
Global
350
21
  0
DICTIONARY
  5
F
330
A
100
AcDbDictionary
280
0
281
1
  3
Standard
350
2C
  0
DICTIONARY
  5
10
330
A
100
AcDbDictionary
280
0
281
1
  3
Standard
350
22
  0
DICTIONARY
  5
11
330
A
100
AcDbDictionary
280
0
281
1
  0
ACDBDICTIONARYWDFLT
  5
12
330
A
100
AcDbDictionary
280
0
281
1
  3
Normal
350
13
100
AcDbDictionaryWithDefault
340
13
  0
ACDBPLACEHOLDER
  5
13
330
12
  0
DICTIONARY
  5
14
330
A
100
AcDbDictionary
280
0
281
1
  0
DICTIONARY
  5
15
330
A
100
AcDbDictionary
280
0
281
1
  0
DICTIONARY
  5
16
330
A
100
AcDbDictionary
280
0
281
1
  0
LAYOUT
  5
1A
330
D
100
AcDbPlotSettings
  1

  4
A3
  6

 40
7.5
 41
20.0
 42
7.5
 43
20.0
 44
420.0
 45
297.0
 46
0.0
 47
0.0
 48
0.0
 49
0.0
140
0.0
141
0.0
142
1.0
143
1.0
 70
1024
 72
1
 73
0
 74
5
  7

 75
16
 76
0
 77
2
 78
300
147
1.0
148
0.0
149
0.0
100
AcDbLayout
  1
Model
 70
1
 71
0
 10
0.0
 20
0.0
 11
420.0
 21
297.0
 12
0.0
 22
0.0
 32
0.0
 14
1e+20
 24
1e+20
 34
1e+20
 15
-1e+20
 25
-1e+20
 35
-1e+20
146
0.0
 13
0.0
 23
0.0
 33
0.0
 16
1.0
 26
0.0
 36
0.0
 17
0.0
 27
1.0
 37
0.0
 76
1
330
17
  0
LAYOUT
  5
1E
330
D
100
AcDbPlotSettings
  1

  4
A3
  6

 40
7.5
 41
20.0
 42
7.5
 43
20.0
 44
420.0
 45
297.0
 46
0.0
 47
0.0
 48
0.0
 49
0.0
140
0.0
141
0.0
142
1.0
143
1.0
 70
0
 72
1
 73
0
 74
5
  7

 75
16
 76
0
 77
2
 78
300
147
1.0
148
0.0
149
0.0
100
AcDbLayout
  1
Layout1
 70
1
 71
1
 10
0.0
 20
0.0
 11
420.0
 21
297.0
 12
0.0
 22
0.0
 32
0.0
 14
1e+20
 24
1e+20
 34
1e+20
 15
-1e+20
 25
-1e+20
 35
-1e+20
146
0.0
 13
0.0
 23
0.0
 33
0.0
 16
1.0
 26
0.0
 36
0.0
 17
0.0
 27
1.0
 37
0.0
 76
1
330
1B
  0
MATERIAL
  5
1F
102
{ACAD_REACTORS
330
E
102
}
330
E
100
AcDbMaterial
  1
ByBlock
  2

 70
0
 40
1.0
 71
1
 41
1.0
 91
-1023410177
 42
1.0
 72
1
  3

 73
1
 74
1
 75
1
 44
0.5
 73
0
 45
1.0
 46
1.0
 77
1
  4

 78
1
 79
1
170
1
 48
1.0
171
1
  6

172
1
173
1
174
1
140
1.0
141
1.0
175
1
  7

176
1
177
1
178
1
143
1.0
179
1
  8

270
1
271
1
272
1
145
1.0
146
1.0
273
1
  9

274
1
275
1
276
1
 42
1.0
 72
1
  3

 73
1
 74
1
 75
1
 94
63
  0
MATERIAL
  5
20
102
{ACAD_REACTORS
330
E
102
}
330
E
100
AcDbMaterial
  1
ByLayer
  2

 70
0
 40
1.0
 71
1
 41
1.0
 91
-1023410177
 42
1.0
 72
1
  3

 73
1
 74
1
 75
1
 44
0.5
 73
0
 45
1.0
 46
1.0
 77
1
  4

 78
1
 79
1
170
1
 48
1.0
171
1
  6

172
1
173
1
174
1
140
1.0
141
1.0
175
1
  7

176
1
177
1
178
1
143
1.0
179
1
  8

270
1
271
1
272
1
145
1.0
146
1.0
273
1
  9

274
1
275
1
276
1
 42
1.0
 72
1
  3

 73
1
 74
1
 75
1
 94
63
  0
MATERIAL
  5
21
102
{ACAD_REACTORS
330
E
102
}
330
E
100
AcDbMaterial
  1
Global
  2

 70
0
 40
1.0
 71
1
 41
1.0
 91
-1023410177
 42
1.0
 72
1
  3

 73
1
 74
1
 75
1
 44
0.5
 73
0
 45
1.0
 46
1.0
 77
1
  4

 78
1
 79
1
170
1
 48
1.0
171
1
  6

172
1
173
1
174
1
140
1.0
141
1.0
175
1
  7

176
1
177
1
178
1
143
1.0
179
1
  8

270
1
271
1
272
1
145
1.0
146
1.0
273
1
  9

274
1
275
1
276
1
 42
1.0
 72
1
  3

 73
1
 74
1
 75
1
 94
63
  0
MLINESTYLE
  5
22
102
{ACAD_REACTORS
330
10
102
}
330
10
100
AcDbMlineStyle
  2
Standard
 70
0
  3

 62
256
 51
90.0
 52
90.0
 71
2
 49
0.5
 62
256
  6
BYLAYER
 49
-0.5
 62
256
  6
BYLAYER
  0
MLEADERSTYLE
  5
2C
102
{ACAD_REACTORS
330
F
102
}
330
F
100
AcDbMLeaderStyle
179
2
170
2
171
1
172
0
 90
2
 40
0.0
 41
0.0
173
1
 91
-1056964608
 92
-2
290
1
 42
2.0
291
1
 43
8.0
  3
Standard
 44
4.0
300

342
29
174
1
175
1
176
0
178
1
 93
-1056964608
 45
4.0
292
0
297
0
 46
4.0
 94
-1056964608
 47
1.0
 49
1.0
140
1.0
294
1
141
0.0
177
0
142
1.0
295
0
296
0
143
3.75
271
0
272
9
273
9
  0
DICTIONARY
  5
2D
330
A
100
AcDbDictionary
280
1
281
1
  3
CREATED_BY_EZDXF
350
2E
  3
WRITTEN_BY_EZDXF
350
32
  0
DICTIONARYVAR
  5
2E
330
2D
100
DictionaryVariables
280
0
  1
1.3.5 @ 2025-08-20T01:58:58.671118+00:00
  0
DICTIONARYVAR
  5
32
330
2D
100
DictionaryVariables
280
0
  1
1.3.5 @ 2025-08-20T01:58:58.678098+00:00
  0
ENDSEC
  0
EOF
