  0
SECTION
  2
HEADER
  9
$ACADVER
  1
AC1032
  9
$ACADMAINTVER
 90
4
  9
$DWGCODEPAGE
  3
ANSI_1252
  9
$LASTSAVEDBY
  1
ezdxf
  9
$REQUIREDVERSIONS
160
0
  9
$INSBASE
 10
0.0
 20
0.0
 30
0.0
  9
$EXTMIN
 10
1e+20
 20
1e+20
 30
1e+20
  9
$EXTMAX
 10
-1e+20
 20
-1e+20
 30
-1e+20
  9
$LIMMIN
 10
0.0
 20
0.0
  9
$LIMMAX
 10
420.0
 20
297.0
  9
$ORTHOMODE
 70
0
  9
$REGENMODE
 70
1
  9
$FILLMODE
 70
1
  9
$QTEXTMODE
 70
0
  9
$MIRRTEXT
 70
1
  9
$LTSCALE
 40
1.0
  9
$ATTMODE
 70
1
  9
$TEXTSIZE
 40
2.5
  9
$TRACEWID
 40
1.0
  9
$TEXTSTYLE
  7
Standard
  9
$CLAYER
  8
0
  9
$CELTYPE
  6
ByLayer
  9
$CECOLOR
 62
256
  9
$CELTSCALE
 40
1.0
  9
$DISPSILH
 70
0
  9
$DIMSCALE
 40
1.0
  9
$DIMASZ
 40
2.5
  9
$DIMEXO
 40
0.625
  9
$DIMDLI
 40
3.75
  9
$DIMRND
 40
0.0
  9
$DIMDLE
 40
0.0
  9
$DIMEXE
 40
1.25
  9
$DIMTP
 40
0.0
  9
$DIMTM
 40
0.0
  9
$DIMTXT
 40
2.5
  9
$DIMCEN
 40
2.5
  9
$DIMTSZ
 40
0.0
  9
$DIMTOL
 70
0
  9
$DIMLIM
 70
0
  9
$DIMTIH
 70
0
  9
$DIMTOH
 70
0
  9
$DIMSE1
 70
0
  9
$DIMSE2
 70
0
  9
$DIMTAD
 70
1
  9
$DIMZIN
 70
8
  9
$DIMBLK
  1

  9
$DIMASO
 70
1
  9
$DIMSHO
 70
1
  9
$DIMPOST
  1

  9
$DIMAPOST
  1

  9
$DIMALT
 70
0
  9
$DIMALTD
 70
3
  9
$DIMALTF
 40
0.03937007874
  9
$DIMLFAC
 40
1.0
  9
$DIMTOFL
 70
1
  9
$DIMTVP
 40
0.0
  9
$DIMTIX
 70
0
  9
$DIMSOXD
 70
0
  9
$DIMSAH
 70
0
  9
$DIMBLK1
  1

  9
$DIMBLK2
  1

  9
$DIMSTYLE
  2
ISO-25
  9
$DIMCLRD
 70
0
  9
$DIMCLRE
 70
0
  9
$DIMCLRT
 70
0
  9
$DIMTFAC
 40
1.0
  9
$DIMGAP
 40
0.625
  9
$DIMJUST
 70
0
  9
$DIMSD1
 70
0
  9
$DIMSD2
 70
0
  9
$DIMTOLJ
 70
0
  9
$DIMTZIN
 70
8
  9
$DIMALTZ
 70
0
  9
$DIMALTTZ
 70
0
  9
$DIMUPT
 70
0
  9
$DIMDEC
 70
2
  9
$DIMTDEC
 70
2
  9
$DIMALTU
 70
2
  9
$DIMALTTD
 70
3
  9
$DIMTXSTY
  7
Standard
  9
$DIMAUNIT
 70
0
  9
$DIMADEC
 70
0
  9
$DIMALTRND
 40
0.0
  9
$DIMAZIN
 70
0
  9
$DIMDSEP
 70
44
  9
$DIMATFIT
 70
3
  9
$DIMFRAC
 70
0
  9
$DIMLDRBLK
  1

  9
$DIMLUNIT
 70
2
  9
$DIMLWD
 70
-2
  9
$DIMLWE
 70
-2
  9
$DIMTMOVE
 70
0
  9
$DIMFXL
 40
1.0
  9
$DIMFXLON
 70
0
  9
$DIMJOGANG
 40
0.785398163397
  9
$DIMTFILL
 70
0
  9
$DIMTFILLCLR
 70
0
  9
$DIMARCSYM
 70
0
  9
$DIMLTYPE
  6

  9
$DIMLTEX1
  6

  9
$DIMLTEX2
  6

  9
$DIMTXTDIRECTION
 70
0
  9
$LUNITS
 70
2
  9
$LUPREC
 70
4
  9
$SKETCHINC
 40
1.0
  9
$FILLETRAD
 40
10.0
  9
$AUNITS
 70
0
  9
$AUPREC
 70
2
  9
$MENU
  1
.
  9
$ELEVATION
 40
0.0
  9
$PELEVATION
 40
0.0
  9
$THICKNESS
 40
0.0
  9
$LIMCHECK
 70
0
  9
$CHAMFERA
 40
0.0
  9
$CHAMFERB
 40
0.0
  9
$CHAMFERC
 40
0.0
  9
$CHAMFERD
 40
0.0
  9
$SKPOLY
 70
0
  9
$TDCREATE
 40
2460908.1242824076
  9
$TDUCREATE
 40
2458532.153996898
  9
$TDUPDATE
 40
2460908.1242824076
  9
$TDUUPDATE
 40
2458532.1544311
  9
$TDINDWG
 40
0.0
  9
$TDUSRTIMER
 40
0.0
  9
$USRTIMER
 70
1
  9
$ANGBASE
 50
0.0
  9
$ANGDIR
 70
0
  9
$PDMODE
 70
0
  9
$PDSIZE
 40
0.0
  9
$PLINEWID
 40
0.0
  9
$SPLFRAME
 70
0
  9
$SPLINETYPE
 70
6
  9
$SPLINESEGS
 70
8
  9
$HANDSEED
  5
33
  9
$SURFTAB1
 70
6
  9
$SURFTAB2
 70
6
  9
$SURFTYPE
 70
6
  9
$SURFU
 70
6
  9
$SURFV
 70
6
  9
$UCSBASE
  2

  9
$UCSNAME
  2

  9
$UCSORG
 10
0.0
 20
0.0
 30
0.0
  9
$UCSXDIR
 10
1.0
 20
0.0
 30
0.0
  9
$UCSYDIR
 10
0.0
 20
1.0
 30
0.0
  9
$UCSORTHOREF
  2

  9
$UCSORTHOVIEW
 70
0
  9
$UCSORGTOP
 10
0.0
 20
0.0
 30
0.0
  9
$UCSORGBOTTOM
 10
0.0
 20
0.0
 30
0.0
  9
$UCSORGLEFT
 10
0.0
 20
0.0
 30
0.0
  9
$UCSORGRIGHT
 10
0.0
 20
0.0
 30
0.0
  9
$UCSORGFRONT
 10
0.0
 20
0.0
 30
0.0
  9
$UCSORGBACK
 10
0.0
 20
0.0
 30
0.0
  9
$PUCSBASE
  2

  9
$PUCSNAME
  2

  9
$PUCSORG
 10
0.0
 20
0.0
 30
0.0
  9
$PUCSXDIR
 10
1.0
 20
0.0
 30
0.0
  9
$PUCSYDIR
 10
0.0
 20
1.0
 30
0.0
  9
$PUCSORTHOREF
  2

  9
$PUCSORTHOVIEW
 70
0
  9
$PUCSORGTOP
 10
0.0
 20
0.0
 30
0.0
  9
$PUCSORGBOTTOM
 10
0.0
 20
0.0
 30
0.0
  9
$PUCSORGLEFT
 10
0.0
 20
0.0
 30
0.0
  9
$PUCSORGRIGHT
 10
0.0
 20
0.0
 30
0.0
  9
$PUCSORGFRONT
 10
0.0
 20
0.0
 30
0.0
  9
$PUCSORGBACK
 10
0.0
 20
0.0
 30
0.0
  9
$USERI1
 70
0
  9
$USERI2
 70
0
  9
$USERI3
 70
0
  9
$USERI4
 70
0
  9
$USERI5
 70
0
  9
$USERR1
 40
0.0
  9
$USERR2
 40
0.0
  9
$USERR3
 40
0.0
  9
$USERR4
 40
0.0
  9
$USERR5
 40
0.0
  9
$WORLDVIEW
 70
1
  9
$SHADEDGE
 70
3
  9
$SHADEDIF
 70
70
  9
$TILEMODE
 70
1
  9
$MAXACTVP
 70
64
  9
$PINSBASE
 10
0.0
 20
0.0
 30
0.0
  9
$PLIMCHECK
 70
0
  9
$PEXTMIN
 10
1e+20
 20
1e+20
 30
1e+20
  9
$PEXTMAX
 10
-1e+20
 20
-1e+20
 30
-1e+20
  9
$PLIMMIN
 10
0.0
 20
0.0
  9
$PLIMMAX
 10
420.0
 20
297.0
  9
$UNITMODE
 70
0
  9
$VISRETAIN
 70
1
  9
$PLINEGEN
 70
0
  9
$PSLTSCALE
 70
1
  9
$TREEDEPTH
 70
3020
  9
$CMLSTYLE
  2
Standard
  9
$CMLJUST
 70
0
  9
$CMLSCALE
 40
20.0
  9
$PROXYGRAPHICS
 70
1
  9
$MEASUREMENT
 70
1
  9
$CELWEIGHT
370
-1
  9
$ENDCAPS
280
0
  9
$JOINSTYLE
280
0
  9
$LWDISPLAY
290
0
  9
$INSUNITS
 70
6
  9
$HYPERLINKBASE
  1

  9
$STYLESHEET
  1

  9
$XEDIT
290
1
  9
$CEPSNTYPE
380
0
  9
$PSTYLEMODE
290
1
  9
$FINGERPRINTGUID
  2
{DEE7F070-CD92-46CE-BC38-078A7DBF39C0}
  9
$VERSIONGUID
  2
{0BBD26F5-D10B-4F78-A029-6ADB9D36EB8B}
  9
$EXTNAMES
290
1
  9
$PSVPSCALE
 40
0.0
  9
$OLESTARTUP
290
0
  9
$SORTENTS
280
127
  9
$INDEXCTL
280
0
  9
$HIDETEXT
280
1
  9
$XCLIPFRAME
280
1
  9
$HALOGAP
280
0
  9
$OBSCOLOR
 70
257
  9
$OBSLTYPE
280
0
  9
$INTERSECTIONDISPLAY
280
0
  9
$INTERSECTIONCOLOR
 70
257
  9
$DIMASSOC
280
2
  9
$PROJECTNAME
  1

  9
$CAMERADISPLAY
290
0
  9
$LENSLENGTH
 40
50.0
  9
$CAMERAHEIGHT
 40
0.0
  9
$STEPSPERSEC
 40
24.0
  9
$STEPSIZE
 40
100.0
  9
$3DDWFPREC
 40
2.0
  9
$PSOLWIDTH
 40
0.005
  9
$PSOLHEIGHT
 40
0.08
  9
$LOFTANG1
 40
1.570796326795
  9
$LOFTANG2
 40
1.570796326795
  9
$LOFTMAG1
 40
0.0
  9
$LOFTMAG2
 40
0.0
  9
$LOFTPARAM
 70
7
  9
$LOFTNORMALS
280
1
  9
$LATITUDE
 40
37.795
  9
$LONGITUDE
 40
-122.394
  9
$NORTHDIRECTION
 40
0.0
  9
$TIMEZONE
 70
-8000
  9
$LIGHTGLYPHDISPLAY
280
1
  9
$TILEMODELIGHTSYNCH
280
1
  9
$CMATERIAL
347
20
  9
$SOLIDHIST
280
0
  9
$SHOWHIST
280
1
  9
$DWFFRAME
280
2
  9
$DGNFRAME
280
2
  9
$REALWORLDSCALE
290
1
  9
$INTERFERECOLOR
 62
256
  9
$CSHADOW
280
0
  9
$SHADOWPLANELOCATION
 40
0.0
  0
ENDSEC
  0
SECTION
  2
CLASSES
  0
CLASS
  1
ACDBDICTIONARYWDFLT
  2
AcDbDictionaryWithDefault
  3
ObjectDBX Classes
 90
0
 91
0
280
0
281
0
  0
CLASS
  1
SUN
  2
AcDbSun
  3
SCENEOE
 90
1153
 91
0
280
0
281
0
  0
CLASS
  1
VISUALSTYLE
  2
AcDbVisualStyle
  3
ObjectDBX Classes
 90
4095
 91
0
280
0
281
0
  0
CLASS
  1
MATERIAL
  2
AcDbMaterial
  3
ObjectDBX Classes
 90
1153
 91
0
280
0
281
0
  0
CLASS
  1
SCALE
  2
AcDbScale
  3
ObjectDBX Classes
 90
1153
 91
0
280
0
281
0
  0
CLASS
  1
TABLESTYLE
  2
AcDbTableStyle
  3
ObjectDBX Classes
 90
4095
 91
0
280
0
281
0
  0
CLASS
  1
MLEADERSTYLE
  2
AcDbMLeaderStyle
  3
ACDB_MLEADERSTYLE_CLASS
 90
4095
 91
0
280
0
281
0
  0
CLASS
  1
DICTIONARYVAR
  2
AcDbDictionaryVar
  3
ObjectDBX Classes
 90
0
 91
0
280
0
281
0
  0
CLASS
  1
CELLSTYLEMAP
  2
AcDbCellStyleMap
  3
ObjectDBX Classes
 90
1152
 91
0
280
0
281
0
  0
CLASS
  1
MENTALRAYRENDERSETTINGS
  2
AcDbMentalRayRenderSettings
  3
SCENEOE
 90
1024
 91
0
280
0
281
0
  0
CLASS
  1
ACDBDETAILVIEWSTYLE
  2
AcDbDetailViewStyle
  3
ObjectDBX Classes
 90
1025
 91
0
280
0
281
0
  0
CLASS
  1
ACDBSECTIONVIEWSTYLE
  2
AcDbSectionViewStyle
  3
ObjectDBX Classes
 90
1025
 91
0
280
0
281
0
  0
CLASS
  1
RASTERVARIABLES
  2
AcDbRasterVariables
  3
ISM
 90
0
 91
0
280
0
281
0
  0
CLASS
  1
ACDBPLACEHOLDER
  2
AcDbPlaceHolder
  3
ObjectDBX Classes
 90
0
 91
0
280
0
281
0
  0
CLASS
  1
LAYOUT
  2
AcDbLayout
  3
ObjectDBX Classes
 90
0
 91
0
280
0
281
0
  0
ENDSEC
  0
SECTION
  2
TABLES
  0
TABLE
  2
VPORT
  5
8
330
0
100
AcDbSymbolTable
 70
1
  0
VPORT
  5
23
330
8
100
AcDbSymbolTableRecord
100
AcDbViewportTableRecord
  2
*Active
 70
0
 10
0.0
 20
0.0
 11
1.0
 21
1.0
 12
0.0
 22
0.0
 13
0.0
 23
0.0
 14
0.5
 24
0.5
 15
0.5
 25
0.5
 16
0.0
 26
0.0
 36
1.0
 17
0.0
 27
0.0
 37
0.0
 40
1000.0
 41
1.34
 42
50.0
 43
0.0
 44
0.0
 50
0.0
 51
0.0
 71
0
 72
1000
 73
1
 74
3
 75
0
 76
0
 77
0
 78
0
281
0
 65
0
146
0.0
  0
ENDTAB
  0
TABLE
  2
LTYPE
  5
2
330
0
100
AcDbSymbolTable
 70
3
  0
LTYPE
  5
24
330
2
100
AcDbSymbolTableRecord
100
AcDbLinetypeTableRecord
  2
ByBlock
 70
0
  3

 72
65
 73
0
 40
0.0
  0
LTYPE
  5
25
330
2
100
AcDbSymbolTableRecord
100
AcDbLinetypeTableRecord
  2
ByLayer
 70
0
  3

 72
65
 73
0
 40
0.0
  0
LTYPE
  5
26
330
2
100
AcDbSymbolTableRecord
100
AcDbLinetypeTableRecord
  2
Continuous
 70
0
  3

 72
65
 73
0
 40
0.0
  0
ENDTAB
  0
TABLE
  2
LAYER
  5
1
330
0
100
AcDbSymbolTable
 70
2
  0
LAYER
  5
27
330
1
100
AcDbSymbolTableRecord
100
AcDbLayerTableRecord
  2
0
 70
0
 62
7
  6
Continuous
370
-3
390
13
347
21
  0
LAYER
  5
28
330
1
100
AcDbSymbolTableRecord
100
AcDbLayerTableRecord
  2
Defpoints
 70
0
 62
7
  6
Continuous
290
0
370
-3
390
13
347
21
  0
ENDTAB
  0
TABLE
  2
STYLE
  5
5
330
0
100
AcDbSymbolTable
 70
1
  0
STYLE
  5
29
330
5
100
AcDbSymbolTableRecord
100
AcDbTextStyleTableRecord
  2
Standard
 70
0
 40
0.0
 41
1.0
 50
0.0
 71
0
 42
2.5
  3
txt
  4

  0
ENDTAB
  0
TABLE
  2
VIEW
  5
7
330
0
100
AcDbSymbolTable
 70
0
  0
ENDTAB
  0
TABLE
  2
UCS
  5
6
330
0
100
AcDbSymbolTable
 70
0
  0
ENDTAB
  0
TABLE
  2
APPID
  5
3
330
0
100
AcDbSymbolTable
 70
3
  0
APPID
  5
2A
330
3
100
AcDbSymbolTableRecord
100
AcDbRegAppTableRecord
  2
ACAD
 70
0
  0
APPID
  5
30
330
3
100
AcDbSymbolTableRecord
100
AcDbRegAppTableRecord
  2
HATCHBACKGROUNDCOLOR
 70
0
  0
APPID
  5
31
330
3
100
AcDbSymbolTableRecord
100
AcDbRegAppTableRecord
  2
EZDXF
 70
0
  0
ENDTAB
  0
TABLE
  2
DIMSTYLE
  5
4
330
0
100
AcDbSymbolTable
 70
1
100
AcDbDimStyleTable
  0
DIMSTYLE
105
2B
330
4
100
AcDbSymbolTableRecord
100
AcDbDimStyleTableRecord
  2
Standard
 70
0
 40
1.0
 41
2.5
 42
0.625
 43
3.75
 44
1.25
 45
0.0
 46
0.0
 47
0.0
 48
0.0
 49
2.5
140
2.5
141
2.5
142
0.0
143
0.03937007874
144
1.0
145
0.0
146
1.0
147
0.625
148
0.0
 69
0
 70
0
 71
0
 72
0
 73
0
 74
0
 75
0
 76
0
 77
1
 78
8
 79
3
170
0
171
3
172
1
173
0
174
0
175
0
176
0
177
0
178
0
179
2
271
2
272
2
273
2
274
3
275
0
276
0
277
2
278
44
279
0
280
0
281
0
282
0
283
0
284
8
285
0
286
0
288
0
289
3
290
0
371
-2
372
-2
  0
ENDTAB
  0
TABLE
  2
BLOCK_RECORD
  5
9
330
0
100
AcDbSymbolTable
 70
2
  0
BLOCK_RECORD
  5
17
330
9
100
AcDbSymbolTableRecord
100
AcDbBlockTableRecord
  2
*Model_Space
340
1A
 70
0
280
1
281
0
  0
BLOCK_RECORD
  5
1B
330
9
100
AcDbSymbolTableRecord
100
AcDbBlockTableRecord
  2
*Paper_Space
340
1E
 70
0
280
1
281
0
  0
ENDTAB
  0
ENDSEC
  0
SECTION
  2
BLOCKS
  0
BLOCK
  5
18
330
17
100
AcDbEntity
  8
0
100
AcDbBlockBegin
  2
*Model_Space
 70
0
 10
0.0
 20
0.0
 30
0.0
  3
*Model_Space
  1

  0
ENDBLK
  5
19
330
17
100
AcDbEntity
  8
0
100
AcDbBlockEnd
  0
BLOCK
  5
1C
330
1B
100
AcDbEntity
  8
0
100
AcDbBlockBegin
  2
*Paper_Space
 70
0
 10
0.0
 20
0.0
 30
0.0
  3
*Paper_Space
  1

  0
ENDBLK
  5
1D
330
1B
100
AcDbEntity
  8
0
100
AcDbBlockEnd
  0
ENDSEC
  0
SECTION
  2
ENTITIES
  0
LWPOLYLINE
  5
2F
330
17
100
AcDbEntity
  8
0
100
AcDbPolyline
 90
721
 70
1
 10
91.76840013003965
 20
34.32580562730793
 10
91.7654483442396
 20
34.32577527946716
 10
91.75669469649817
 20
34.32540970864388
 10
91.74234225050456
 20
34.324160820121776
 10
91.72215293213654
 20
34.32225028027868
 10
91.69655223802536
 20
34.31937147150335
 10
91.6653528472701
 20
34.315609070776176
 10
91.62846884380428
 20
34.310774050535656
 10
91.58617351539931
 20
34.304970624236375
 10
91.53838094598885
 20
34.298009764316895
 10
91.48485290903848
 20
34.29011354853455
 10
91.4259643003703
 20
34.281111937296025
 10
91.36157834908853
 20
34.270953166690326
 10
91.29164425116785
 20
34.25977436324142
 10
91.21626361465893
 20
34.24730127390138
 10
91.13533472990304
 20
34.23380842597117
 10
91.04904507021324
 20
34.219210731090875
 10
90.95725786469374
 20
34.203456425349515
 10
90.85992230931923
 20
34.186682635271026
 10
90.75727657982004
 20
34.16866742022459
 10
90.64908234805377
 20
34.14963313222061
 10
90.53544117126704
 20
34.12930565533768
 10
90.4165246783766
 20
34.108063593204854
 10
90.29197366554459
 20
34.085613704806065
 10
90.16219798822215
 20
34.06211251601299
 10
90.02692430783378
 20
34.03745595049756
 10
89.88628914125515
 20
34.011696457803374
 10
89.74029243768224
 20
33.98483417505695
 10
89.58888334228571
 20
33.9570063659088
 10
89.43206170265347
 20
33.928213441738485
 10
89.26992907603216
 20
33.898181286624606
 10
89.10238380356707
 20
33.86718429074159
 10
88.92961315535521
 20
33.83513791423565
 10
88.75142965808348
 20
33.80212724546669
 10
88.56793471658645
 20
33.76787857989286
 10
88.37916339210116
 20
33.73271820872615
 10
88.18506472819027
 20
33.696783669870086
 10
87.98579103532172
 20
33.65966385800584
 10
87.78110388374496
 20
33.62158139939685
 10
87.57132736525683
 20
33.58250338097378
 10
87.35613718484446
 20
33.54246326431207
 10
87.13580657947523
 20
33.50156539999285
 10
86.91019872744936
 20
33.45975816123165
 10
86.67945019644651
 20
33.417093860445554
 10
86.44347496879222
 20
33.373383744326155
 10
86.20240961216619
 20
33.32868012529052
 10
85.95601569681789
 20
33.2832056296021
 10
85.70461726374013
 20
33.2369274813181
 10
85.44807749123308
 20
33.18979405365399
 10
85.18639627768869
 20
33.14180562086288
 10
84.91957336908682
 20
33.092962868577345
 10
84.6476946306899
 20
33.04345496148542
 10
84.37067394321542
 20
32.993093420531714
 10
84.08859712112168
 20
32.94206754753074
 10
83.80151471441395
 20
32.89024090159116
 10
83.50952828033886
 20
32.837339366791575
 10
83.21267267691735
 20
32.78368978285005
 10
82.91070952520302
 20
32.729514638903524
 10
82.60363857117571
 20
32.674814620584606
 10
82.29174884539513
 20
32.619230523611975
 10
81.97498934061986
 20
32.562900023015686
 10
81.65335995524184
 20
32.50582339304879
 10
81.32670802316497
 20
32.44841269891581
 10
80.99528741210379
 20
32.38998271937648
 10
80.65913308168736
 20
32.33086001989583
 10
80.31819407547826
 20
32.27118213837739
 10
79.97228271694732
 20
32.211034711687184
 10
79.6217229962833
 20
32.150385101008894
 10
79.26642884500764
 20
32.08904469016061
 10
78.90640016151231
 20
32.02701375339539
 10
78.54167180381832
 20
31.9646191304313
 10
78.17244678481083
 20
31.90131286367856
 10
77.79848672554341
 20
31.837317442274117
 10
77.42001395735012
 20
31.772874617576107
 10
77.03702832781892
 20
31.707984800964123
 10
76.64949462330058
 20
31.642322112605736
 10
76.25736178574971
 20
31.57602436465757
 10
75.86090305213365
 20
31.509195907700697
 10
75.459879941898
 20
31.442059505125158
 10
75.0544447147066
 20
31.374204188738595
 10
74.64473388743517
 20
31.305682408084643
 10
74.23074730767156
 20
31.23649457454285
 10
73.81238311334509
 20
31.166915626793795
 10
73.3896411520436
 20
31.09694597621702
 10
72.96257207538036
 20
31.026448907668158
 10
72.53149992434813
 20
30.955391645204354
 10
72.09610025152197
 20
30.883808061780645
 10
71.65650962458155
 20
30.81175046981411
 10
71.21301702328252
 20
30.73885980214995
 10
70.76543466948769
 20
30.66522196990723
 10
70.31374671880079
 20
30.591300665074943
 10
69.85808973890147
 20
30.517148200070164
 10
69.39829164363671
 20
30.44238720540256
 10
68.93477818365801
 20
30.3667103778283
 10
68.46734593964797
 20
30.29066677194936
 10
67.99604556321978
 20
30.214119672621337
 10
67.52082604713208
 20
30.1372067548743
 10
67.04192551631114
 20
30.059706215203914
 10
66.55934386914896
 20
29.98161832786325
 10
66.07294413153357
 20
29.90289187744738
 10
65.58294878721118
 20
29.8237682039349
 10
65.08922096367786
 20
29.74419581766786
 10
64.59199883666406
 20
29.663952778015418
 10
64.09128220295356
 20
29.583039633483658
 10
63.58720768103017
 20
29.501508559363153
 10
63.079587492756644
 20
29.419445466772974
 10
62.56845664856601
 20
29.33717678405161
 10
62.05383053561838
 20
29.254240053348802
 10
61.536068611771746
 20
29.170927830048008
 10
61.01510034811973
 20
29.086588628737477
 10
60.49087468661688
 20
29.001360261573794
 10
59.96351265537073
 20
28.915757910203887
 10
59.432963247139895
 20
28.829919249657827
 10
58.89910517979667
 20
28.743329783921297
 10
58.3625870433668
 20
28.65592258984338
 10
57.82304912597218
 20
28.56740579767323
 10
57.280612354112286
 20
28.478294863310822
 10
56.73508900045391
 20
28.38867556074871
 10
56.186803309205956
 20
28.29851456553796
 10
55.63577076913649
 20
28.207349145575247
 10
55.08202639067859
 20
28.115505729199068
 10
54.525468362565505
 20
28.023259117963452
 10
53.9663506033158
 20
27.92992395350162
 10
53.404723764542744
 20
27.835363520669166
 10
52.84060726630322
 20
27.74036725416097
 10
52.27377816761491
 20
27.644695048137173
 10
51.704459104635966
 20
27.54858783119676
 10
51.13295479991032
 20
27.451223118449
 10
50.55921429700056
 20
27.352738447797417
 10
49.98313588624799
 20
27.253408346542997
 10
49.4045669015565
 20
27.153644879890255
 10
48.823984202427035
 20
27.05300279531227
 10
48.24131710754114
 20
26.950831018776853
 10
47.656823669922254
 20
26.847695810209306
 10
47.06997597202404
 20
26.74418023429316
 10
46.48111405164757
 20
26.639787411717
 10
45.89044087087405
 20
26.533969522017586
 10
45.29812851585648
 20
26.427103934685263
 10
44.70385228514974
 20
26.319225208307678
 10
44.10783496732417
 20
26.21057386010426
 10
43.50999039229317
 20
26.100961548146156
 10
42.910556939003186
 20
25.990165783296412
 10
42.30967137835
 20
25.878238329466022
 10
41.70719668541771
 20
25.76512810837662
 10
41.10340655440994
 20
25.65093823647061
 10
40.498027087906976
 20
25.53556614581168
 10
39.891230270453775
 20
25.419389480143234
 10
39.283066956879644
 20
25.302270975814768
 10
38.67379096409514
 20
25.183525548712545
 10
38.063300582441535
 20
25.063427726137544
 10
37.45181875290122
 20
24.942217613929635
 10
36.83902077402909
 20
24.819929770676453
 10
36.22528194807944
 20
24.696393059772483
 10
35.6106530282736
 20
24.57147049182029
 10
34.99518476783287
 20
24.44502507742241
 10
34.37877535549044
 20
24.31733161813289
 10
33.76151096133297
 20
24.18857845588059
 10
33.143391432948306
 20
24.058766002045086
 10
32.524706054916294
 20
23.927534366712415
 10
31.90536865715038
 20
23.794695207953716
 10
31.285566865375674
 20
23.660163026029483
 10
30.665285190824097
 20
23.52440055304305
 10
30.044234196503727
 20
23.38776809028794
 10
29.42278933708097
 20
23.25009408977906
 10
28.801220070646522
 20
23.11023032391978
 10
28.17922142063637
 20
22.968999963233465
 10
27.55701658205298
 20
22.82664242792736
 10
26.934570036423064
 20
22.682832660928216
 10
26.31193263857593
 20
22.537433398585513
 10
25.689225772247344
 20
22.390958862660547
 10
25.066363368958772
 20
22.243220436971388
 10
24.443634662485998
 20
22.093858368730604
 10
23.82090267871716
 20
21.94282144253331
 10
23.198390612654727
 20
21.790349078586743
 10
22.576047558665305
 20
21.636578677667902
 10
21.95402597962892
 20
21.48109872307838
 10
21.332274969912184
 20
21.324046615595172
 10
20.71088075040569
 20
21.165610560020635
 10
20.089553934921568
 20
21.00615072052177
 10
19.468873295835564
 20
20.844946768764565
 10
18.84883883314766
 20
20.681998704749017
 10
18.229399793636563
 20
20.517443517872575
 10
17.610505271668913
 20
20.35141860891225
 10
16.992343197793968
 20
20.183837655369402
 10
16.374725743070528
 20
20.014786705489627
 10
15.757977710551692
 20
19.84423092643223
 10
15.142200759092148
 20
19.671895928022735
 10
14.527344084666577
 20
19.49791883678513
 10
13.913356934053681
 20
19.322436642116855
 10
13.30029011127877
 20
19.145312217493935
 10
12.688519375832373
 20
18.96637319217213
 10
12.07780604394393
 20
18.785842878047546
 10
11.46818563408673
 20
18.604046332193413
 10
10.859775141471491
 20
18.42024684371155
 10
10.252747058683418
 20
18.234820685080095
 10
9.646949126058617
 20
18.048178824491387
 10
9.042396629149094
 20
17.859859078348194
 10
8.439465429053433
 20
17.669688801653233
 10
7.838053968525008
 20
17.477942110327916
 10
7.238126779894531
 20
17.284293810172464
 10
6.639856508159277
 20
17.089119762285446
 10
6.043207736453997
 20
16.892094635340573
 10
5.448403862997252
 20
16.693457301038972
 10
4.855018425881256
 20
16.49351698239581
 10
4.263427286204581
 20
16.292101034413793
 10
3.673833660068531
 20
16.088660950997063
 10
3.086186895859847
 20
15.883333447290003
 10
2.5004716572225103
 20
15.67658084401637
 10
1.916738951397949
 20
15.468265466146104
 10
1.335039633215493
 20
15.258250050028705
 10
0.7555108800031584
 20
15.046585262562983
 10
0.1779140079903426
 20
14.833494415645017
 10
-0.39771526113354544
 20
14.619302017841974
 10
-0.9710365847432271
 20
14.403510367083308
 10
-1.5419482531799902
 20
14.185844936068042
 10
-2.1105517220824344
 20
13.966579566464533
 10
-2.6767559949815682
 20
13.745889573181866
 10
-3.240689968149272
 20
13.52370193769784
 10
-3.8022671666748056
 20
13.300204179182176
 10
-4.361401268059558
 20
13.075584228184155
 10
-4.918026182726161
 20
12.849242774582596
 10
-5.472004784150669
 20
12.621230622402818
 10
-6.023453965935744
 20
12.392284208289981
 10
-6.5724092465546855
 20
12.162078475170828
 10
-7.118545568934247
 20
11.930577904572042
 10
-7.662137186122358
 20
11.69768088844297
 10
-8.202909845071082
 20
11.463489034834266
 10
-8.740828027307106
 20
11.22832740081919
 10
-9.27621678990369
 20
10.992231504871054
 10
-9.808684986210244
 20
10.754566518395348
 10
-10.338263187330776
 20
10.51625680858653
 10
-10.8651901278399
 20
10.277525824467208
 10
-11.389298110109646
 20
10.03750000286825
 10
-11.910175754568114
 20
9.79633175586563
 10
-12.428112599815233
 20
9.55438165900593
 10
-12.943159449876328
 20
9.311786838813118
 10
-13.455214696700759
 20
9.068273042239255
 10
-13.964054891265912
 20
8.82407900385896
 10
-14.469954286619716
 20
8.579103115621585
 10
-14.972791041790227
 20
8.333858365149675
 10
-15.472463548726779
 20
8.088070499395302
 10
-15.968921003404052
 20
7.8416023918345
 10
-16.462214209847378
 20
7.594591168991229
 10
-16.952307649583428
 20
7.347361887938755
 10
-17.43933844913618
 20
7.09986374465175
 10
-17.922930747407044
 20
6.85192409413293
 10
-18.403084544396016
 20
6.603542936382298
 10
-18.87988616260174
 20
6.354532340850557
 10
-19.353249279525585
 20
6.105080238086997
 10
-19.823326307243516
 20
5.855598007663528
 10
-20.290030923256886
 20
5.606273580129439
 10
-20.753159911464408
 20
5.356558449388858
 10
-21.212850398390042
 20
5.1064018114164655
 10
-21.66864020043656
 20
4.855818951764261
 10
-22.12095598272787
 20
4.605119641953506
 10
-22.569848549289304
 20
4.35444100850816
 10
-23.015043647072922
 20
4.1038846594788785
 10
-23.456490472053403
 20
3.8533134683416894
 10
-23.894173738678735
 20
3.6022652514993685
 10
-24.32815953652625
 20
3.3513393190731118
 10
-24.758600277671935
 20
3.1009470506348156
 10
-25.18510481546518
 20
2.850453617589973
 10
-25.607810276429962
 20
2.599808215913259
 10
-26.026544015568998
 20
2.3493867067032577
 10
-26.441443159406255
 20
2.0991382859346404
 10
-26.85255851196705
 20
1.8492000801313782
 10
-27.259600534651447
 20
1.5992115137468956
 10
-27.6626708355101
 20
1.3494468398291215
 10
-28.061769414543
 20
1.0999060583780609
 10
-28.45709948785145
 20
0.851137675489583
 10
-28.848335998362195
 20
0.6031061726903684
 10
-29.23560078704719
 20
0.355298562357864
 10
-29.618655119331816
 20
0.10749139546946478
 10
-29.99756508479341
 20
-0.1397160178536404
 10
-30.37256941800659
 20
-0.3861002285888394
 10
-30.743327776346085
 20
-0.6321589388066764
 10
-31.109804641338584
 20
-0.8775670914338922
 10
-31.472325070057344
 20
-1.122289167997168
 10
-31.83061480945442
 20
-1.366223560445852
 10
-32.18452144745385
 20
-1.609781648351855
 10
-32.534197396131596
 20
-1.8525520521432646
 10
-32.879693459513
 20
-2.0943976452961226
 10
-33.22095883357272
 20
-2.3354555543343887
 10
-33.557856391786814
 20
-2.575674975232741
 10
-33.89033533012993
 20
-2.815193034515149
 10
-34.21858357915138
 20
-3.053923409682964
 10
-34.5423268858032
 20
-3.291764492685544
 10
-34.86166685813607
 20
-3.5284420304749498
 10
-35.176776141147265
 20
-3.764331884149769
 10
-35.48724335526488
 20
-3.9992816416340213
 10
-35.79315482298757
 20
-4.233479233477002
 10
-36.09471376041662
 20
-4.466376153582844
 10
-36.39192016755202
 20
-4.697972401951544
 10
-36.68453530981919
 20
-4.928491427605715
 10
-36.97250838319277
 20
-5.158070357069319
 10
-37.255925710171425
 20
-5.386897120891654
 10
-37.534767057833825
 20
-5.614184478402229
 10
-37.80911874867862
 20
-5.8401203601503395
 10
-38.07887917465518
 20
-6.064979019183922
 10
-38.3439112092395
 20
-6.288709651477646
 10
-38.604316460482266
 20
-6.51103800398358
 10
-38.859993320332805
 20
-6.732238329749655
 10
-39.110992592816444
 20
-6.952173502251909
 10
-39.35736508195852
 20
-7.170706394966374
 10
-39.598872053184415
 20
-7.388060456915654
 10
-39.835665918570086
 20
-7.603824308527854
 10
-40.06768058853822
 20
-7.8185972599241635
 10
-40.29498215266614
 20
-8.031780000983394
 10
-40.517519806928526
 20
-8.243509658229506
 10
-40.73524274730005
 20
-8.453923358186472
 10
-40.94801384725674
 20
-8.662970296828961
 10
-41.1560210373479
 20
-8.870564151658334
 10
-41.35927960312552
 20
-9.076242739077369
 10
-41.557687936538976
 20
-9.280280312133995
 10
-41.751246037588245
 20
-9.482676870828211
 10
-41.940141836822626
 20
-9.68334609266138
 10
-42.12405027716886
 20
-9.882323496106812
 10
-42.303210093201564
 20
-10.079385632141904
 10
-42.477585766447426
 20
-10.274207443693395
 10
-42.64731442343041
 20
-10.466839734786609
 10
-42.81215732957589
 20
-10.65750595444415
 10
-42.97230241543318
 20
-10.846119780167392
 10
-43.127475427954316
 20
-11.032579603905663
 10
-43.278052228237904
 20
-11.2167127806617
 10
-43.423809367261335
 20
-11.398280575860872
 10
-43.56478236349791
 20
-11.577608046576438
 10
-43.700971216947636
 20
-11.754695192808407
 10
-43.83237592761053
 20
-11.929542014556773
 10
-43.95896097701324
 20
-12.101823454748276
 10
-44.08072636515581
 20
-12.27153951338292
 10
-44.197656806486194
 20
-12.439152374057931
 10
-44.30976758655641
 20
-12.604199853176079
 10
-44.416855489265174
 20
-12.767230456833232
 10
-44.51912373071377
 20
-12.927695678933523
 10
-44.61636909480091
 20
-13.086144025572825
 10
-44.70869318957723
 20
-13.242301243703197
 10
-44.79609601504273
 20
-13.396167333324646
 10
-44.87838964064813
 20
-13.547828616935808
 10
-44.95594992749201
 20
-13.697112449539404
 10
-45.028213083926495
 20
-13.844277798631355
 10
-45.09569209757412
 20
-13.989202823239701
 10
-45.15806191136165
 20
-14.13192304183777
 10
-45.21547493736505
 20
-14.272027074853646
 10
-45.267966694057634
 20
-14.409839979360596
 10
-45.31545085894076
 20
-14.545173824809329
 10
-45.358130648115726
 20
-14.677480105103974
 10
-45.395990776030544
 20
-14.807221003841757
 10
-45.428995724211866
 20
-14.934071463949419
 10
-45.45724710071036
 20
-15.057757232379025
 10
-45.480948121627335
 20
-15.177729803034705
 10
-45.500098786962766
 20
-15.293989175916467
 10
-45.51493783129129
 20
-15.406311902001688
 10
-45.52544502169158
 20
-15.51391074061989
 10
-45.53196070078892
 20
-15.61628798970053
 10
-45.535130035360524
 20
-15.712123188029256
 10
-45.535034400535736
 20
-15.800354841887652
 10
-45.532623787243715
 20
-15.878839730917562
 10
-45.52884818641362
 20
-15.945434634760836
 10
-45.524652641605336
 20
-15.996746908791614
 10
-45.52144437997595
 20
-16.029399193936037
 10
-45.19936125807923
 20
-16.906740085091965
 10
-45.19416484883229
 20
-16.912768261333124
 10
-45.17862642511675
 20
-16.930715663532617
 10
-45.15294920303393
 20
-16.96003378559459
 10
-45.11613238762935
 20
-17.003002974401156
 10
-45.067383347419096
 20
-17.062604495006276
 10
-45.009206765196105
 20
-17.131656964138326
 10
-44.943040439221505
 20
-17.205858655529
 10
-44.86981907487243
 20
-17.283528532417375
 10
-44.790472430156754
 20
-17.36173613377481
 10
-44.70532061477844
 20
-17.439196516860274
 10
-44.614891901912024
 20
-17.51532565710458
 10
-44.51925238113485
 20
-17.58952424438654
 10
-44.41860526854823
 20
-17.661243772610273
 10
-44.313052172202795
 20
-17.73020998872786
 10
-44.202593092098546
 20
-17.79642289273929
 10
-44.08741595878481
 20
-17.859796162145926
 10
-43.967485253788226
 20
-17.920004739874503
 10
-43.842750173083495
 20
-17.977185752449
 10
-43.71339864721989
 20
-18.03125287737076
 10
-43.5791919416228
 20
-18.082429563662398
 10
-43.440180860317575
 20
-18.130578684799953
 10
-43.29674126440276
 20
-18.175527595786132
 10
-43.148309362230506
 20
-18.217535264116865
 10
-42.99534733739803
 20
-18.25661697534416
 10
-42.83753013283207
 20
-18.292808247941334
 10
-42.675045679081926
 20
-18.326022759409746
 10
-42.50794478017291
 20
-18.356123383225427
 10
-42.336075024029064
 20
-18.383521498960278
 10
-42.15953801870102
 20
-18.40794285356637
 10
-41.97813054808749
 20
-18.429935953139566
 10
-41.79200502426446
 20
-18.449089418107963
 10
-41.60119696570522
 20
-18.465728305544822
 10
-41.40556924588582
 20
-18.479801811424828
 10
-41.2050202567556
 20
-18.491584188795898
 10
-40.99973792886387
 20
-18.500989115159406
 10
-40.789671458185296
 20
-18.50815371703931
 10
-40.574820844719866
 20
-18.513077994435612
 10
-40.35489654986765
 20
-18.516122522894886
 10
-40.1302236307019
 20
-18.517251783943824
 10
-39.90057863820002
 20
-18.516227043007795
 10
-39.66623582540993
 20
-18.513149908137464
 10
-39.42695645775702
 20
-18.508243828355425
 10
-39.182877661765254
 20
-18.501559607687017
 10
-38.933913114936
 20
-18.492909315582935
 10
-38.680301551843854
 20
-18.482069503020586
 10
-38.421855041939544
 20
-18.469126492498596
 10
-38.15879703424568
 20
-18.45431901859159
 10
-37.89099040223827
 20
-18.437596277274242
 10
-37.61843514591734
 20
-18.41895826854655
 10
-37.34128367735886
 20
-18.397993612836615
 10
-37.05967312308678
 20
-18.37475311416976
 10
-36.77346635657716
 20
-18.349185968520665
 10
-36.4826988963033
 20
-18.32161723296258
 10
-36.187370742265195
 20
-18.29204690749551
 10
-35.88768511056416
 20
-18.25992648602359
 10
-35.583677519673515
 20
-18.225581025620077
 10
-35.275261647094595
 20
-18.188822595735676
 10
-34.96238668880209
 20
-18.149788322894352
 10
-34.64518977131996
 20
-18.10852901112144
 10
-34.32372169867355
 20
-18.064907533892967
 10
-33.99793166683751
 20
-18.019061017732895
 10
-33.667819675811856
 20
-17.97098946264123
 10
-33.333436529621906
 20
-17.920555742094002
 10
-32.994868550766306
 20
-17.867947786640507
 10
-32.65211573924505
 20
-17.813165596280747
 10
-32.30509177255949
 20
-17.75602124046542
 10
-31.95396929570693
 20
-17.696890580293115
 10
-31.598661986188713
 20
-17.635585685214544
 10
-31.239119039979528
 20
-17.572243681753672
 10
-30.875528387628652
 20
-17.506778247411855
 10
-30.508042441212066
 20
-17.438778002617195
 10
-30.136508788653803
 20
-17.368654326941584
 10
-29.76068869537922
 20
-17.29663066940764
 10
-29.381044344985572
 20
-17.222722315567374
 10
-28.99740309247557
 20
-17.146553404322194
 10
-28.609815741874524
 20
-17.067986809148135
 10
-28.218454938179732
 20
-16.98739839114378
 10
-27.823132750841893
 20
-16.904874472807776
 10
-27.42395078791166
 20
-16.820140801092187
 10
-27.021046175913007
 20
-16.733248180022333
 10
-26.614469718871252
 20
-16.644059483074255
 10
-26.204069004710423
 20
-16.552986089819846
 10
-25.78994564148117
 20
-16.459753747211174
 10
-25.37199802113284
 20
-16.36463670829618
 10
-24.950652808789336
 20
-16.267325201553607
 10
-24.52558494737741
 20
-16.16785474545677
 10
-24.09693156342103
 20
-16.066276144030997
 10
-23.66477897941883
 20
-15.962777327825581
 10
-23.229091676897504
 20
-15.857033239767262
 10
-22.789905174330354
 20
-15.749368936929294
 10
-22.347407402266686
 20
-15.639698096813047
 10
-21.90142571570921
 20
-15.527644858319926
 10
-21.452234367705852
 20
-15.413310829500585
 10
-20.99968094618065
 20
-15.29710738992692
 10
-20.543765451133606
 20
-15.179034539598941
 10
-20.084487882564705
 20
-15.05909227851664
 10
-19.622137779073896
 20
-14.936920031133447
 10
-19.156816748711833
 20
-14.812243544401419
 10
-18.68818444885325
 20
-14.685560520391109
 10
-18.21651513254608
 20
-14.55697256715316
 10
-17.741773281316988
 20
-14.426154627614313
 10
-17.26419762974062
 20
-14.292883252751967
 10
-16.78363576574099
 20
-14.15756982213801
 10
-16.300123207791405
 20
-14.020539392845713
 10
-15.81362443741856
 20
-13.881466907801814
 10
-15.324291866698427
 20
-13.739940987434405
 10
-14.832298140628286
 20
-13.596337492842082
 10
-14.337592455182817
 20
-13.450793550548799
 10
-13.839900557314083
 20
-13.303207552503915
 10
-13.339684630619308
 20
-13.153594784259433
 10
-12.836909156625186
 20
-13.001630188742098
 10
-12.331574135331705
 20
-12.847313765951906
 10
-11.823765889237508
 20
-12.69083344643815
 10
-11.313230398215982
 20
-12.532874862820671
 10
-10.800257200867058
 20
-12.373077439552887
 10
-10.284912386768067
 20
-12.210841866513604
 10
-9.767145151893692
 20
-12.04630527022679
 10
-9.247229749291865
 20
-11.8795692587431
 10
-8.72482583633731
 20
-11.711131534133067
 10
-8.200172147604663
 20
-11.540768647374092
 10
-7.67326868309391
 20
-11.36848059846617
 10
-7.144217050855699
 20
-11.193993134361367
 10
-6.612966446864717
 20
-11.017443381583657
 10
-6.07968951611824
 20
-10.839207201231613
 10
-5.544213613618983
 20
-10.658908732206656
 10
-5.006914600465534
 20
-10.476375329511503
 10
-4.467741672632565
 20
-10.291744119670117
 10
-3.926644026094747
 20
-10.10515222920647
 10
-3.3835353383534517
 20
-9.916411727571266
 10
-2.8389285970312264
 20
-9.725400773792549
 10
-2.2927374796294178
 20
-9.531931437321026
 10
-1.744520035472114
 20
-9.33677567327517
 10
-1.19460132163258
 20
-9.13989796318167
 10
-0.6434232887867299
 20
-8.940526351922047
 10
-0.09055927181065482
 20
-8.738970611017553
 10
0.4639044067970066
 20
-8.535418671017476
 10
1.0195918859376691
 20
-8.329697886924533
 10
1.5767266146339365
 20
-8.12156952416411
 10
2.1350343398378864
 20
-7.911135190786851
 10
2.6948554041747697
 20
-7.698892588863308
 10
3.2559510730699723
 20
-7.484618269370869
 10
3.8179301998729254
 20
-7.267677403715015
 10
4.381082323183534
 20
-7.048430567442334
 10
4.945473532579162
 20
-6.827477070674012
 10
5.510814441871924
 20
-6.604456749243049
 10
6.077199603812576
 20
-6.379203887097031
 10
6.644598173898116
 20
-6.15205615694943
 10
7.212807088439343
 20
-5.92246546408394
 10
7.781826449044295
 20
-5.69043208275361
 10
8.351722345290296
 20
-5.456555323079641
 10
8.922408657894815
 20
-5.2210236641174195
 10
9.493971760160528
 20
-4.983649312444166
 10
10.066122164291496
 20
-4.744071829639845
 10
10.638961529142414
 20
-4.502565605878902
 10
11.212490057929381
 20
-4.259131189667436
 10
11.78657057332439
 20
-4.013819247904252
 10
12.361050815663553
 20
-3.766218812397017
 10
12.936032392997516
 20
-3.5166041361936653
 10
13.511444268379655
 20
-3.2656253334407155
 10
14.087510094048666
 20
-3.0130442180696493
 10
14.663803154076628
 20
-2.7585508814326865
 10
15.240511480620867
 20
-2.5022319202815226
 10
15.817360820633466
 20
-2.244188942666802
 10
16.39453915546773
 20
-1.9845084082136946
 10
16.971995731902364
 20
-1.7230533275247566
 10
17.549507100914767
 20
-1.4600624351746045
 10
18.12731199707954
 20
-1.1957591801858471
 10
18.705359768783445
 20
-0.9300068474140923
 10
19.283325206541143
 20
-0.662769507006446
 10
19.86139634250997
 20
-0.39413375571460463
 10
20.439537658216633
 20
-0.1244246506118184
 10
21.01768311488779
 20
0.14695698129657264
 10
21.595659965918127
 20
0.41963555316503454
 10
22.17356981935829
 20
0.6933368119456372
 10
22.75136192198699
 20
0.9681977470358246
 10
23.328934665753565
 20
1.2444926114835233
 10
23.90638970951268
 20
1.5219470151142804
 10
24.483554154246953
 20
1.8001857824621317
 10
25.060463620037716
 20
2.079533696347285
 10
25.63713339243701
 20
2.359528573172519
 10
26.213410957760797
 20
2.64058206676278
 10
26.789245562787762
 20
2.9228311665155067
 10
27.364738815568582
 20
3.206001619382773
 10
27.93976857030712
 20
3.489581260501166
 10
28.514472105939436
 20
3.773620482516442
 10
29.08855978225753
 20
4.05848013522822
 10
29.66208230167869
 20
4.344023366365591
 10
30.235039715006913
 20
4.630250038802018
 10
30.807482724659497
 20
4.917023300266591
 10
31.379086019543056
 20
5.204379354865248
 10
31.950037682618948
 20
5.492231468719769
 10
32.52025108656437
 20
5.780392534040004
 10
33.0899652199741
 20
6.068638416170733
 10
33.658702156462624
 20
6.357417247295877
 10
34.22651275085935
 20
6.646591763764959
 10
34.79378814981482
 20
6.93552713698346
 10
35.35994902210906
 20
7.224945203677157
 10
35.92494441130465
 20
7.514983501749583
 10
36.4892164204896
 20
7.804869664702697
 10
37.052591998234384
 20
8.094228928450095
 10
37.614903548519116
 20
8.38393458190787
 10
38.17606454562902
 20
8.673799243032812
 10
38.735937558215994
 20
8.96377293055875
 10
39.29476147326673
 20
9.2536317840835
 10
39.85244971426245
 20
9.543188558690389
 10
40.40905293281642
 20
9.832306539235026
 10
40.964332241941925
 20
10.121209586119582
 10
41.51818583037222
 20
10.410172500898092
 10
42.070766059379274
 20
10.698784041125188
 10
42.62207287815904
 20
10.98704434392738
 10
43.17188227884461
 20
11.274716183121818
 10
43.720468870112164
 20
11.56190020687349
 10
44.26740547879748
 20
11.848907557968884
 10
44.812742807317846
 20
12.13560138413708
 10
45.35673467258378
 20
12.42129660126433
 10
45.899330321374
 20
12.706130198748093
 10
46.440153232137604
 20
12.990276604230461
 10
46.97952881757598
 20
13.273699339352438
 10
47.51713146177164
 20
13.55643543097912
 10
48.053098392856576
 20
13.838535408882768
 10
48.58739373672929
 20
14.119675175875804
 10
49.11988001123765
 20
14.399804887818563
 10
49.65079610336835
 20
14.678700684308872
 10
50.17971468754513
 20
14.956674119512778
 10
50.70691037244413
 20
15.233825841595277
 10
51.23205754214781
 20
15.51019287742145
 10
51.75546076678794
 20
15.784953153480098
 10
52.27698261501649
 20
16.058056688505065
 10
52.796592871357554
 20
16.330426889805118
 10
53.31382843774148
 20
16.602050940105684
 10
53.829370355046976
 20
16.871932475380017
 10
54.34289295655247
 20
17.14010865961971
 10
54.85419277213652
 20
17.407128684553253
 10
55.36326970019111
 20
17.672992824433692
 10
55.87017439232948
 20
17.93756436411665
 10
56.37516076707018
 20
18.20015794523531
 10
56.87785215045025
 20
18.460948406811365
 10
57.378370891481886
 20
18.720447365202116
 10
57.87644192425277
 20
18.978555406381297
 10
58.372166704401444
 20
19.234998688680548
 10
58.865646738370515
 20
19.489503233304973
 10
59.35678021489325
 20
19.742343841808616
 10
59.8454294994054
 20
19.99347108143138
 10
60.331833529697725
 20
20.24266095464457
 10
60.815717239857854
 20
20.489814047421916
 10
61.29706554754988
 20
20.735391994854545
 10
61.77560328525343
 20
20.979295657169242
 10
62.25184430425947
 20
21.221400862243136
 10
62.72534018240203
 20
21.461234254722715
 10
63.19636573157332
 20
21.69889593426687
 10
63.66486994453192
 20
21.93452357590565
 10
64.13047614731482
 20
22.168292018660736
 10
64.59323488992725
 20
22.400064821640775
 10
65.0534717374827
 20
22.629805095107212
 10
65.51082499674605
 20
22.85722631724364
 10
65.96553350389995
 20
23.082104764774385
 10
66.41730721230421
 20
23.304802384511273
 10
66.86623259686957
 20
23.525506695624024
 10
67.3122228270571
 20
23.744031138828575
 10
67.75527769965073
 20
23.960376262631044
 10
68.19541194135817
 20
24.174081391825947
 10
68.63261052064755
 20
24.38560802437791
 10
69.06664902321975
 20
24.594720031116243
 10
69.4975631199602
 20
24.801742057734664
 10
69.92550512133683
 20
25.0062629989143
 10
70.35038809520266
 20
25.208096569624157
 10
70.77205942626561
 20
25.40765469794222
 10
71.19051896211366
 20
25.604937795248073
 10
71.60576649953066
 20
25.799946410047806
 10
72.01762847904686
 20
25.992307149520276
 10
72.42648132060515
 20
26.181845860276415
 10
72.83193331871065
 20
26.369198879302512
 10
73.23389759202047
 20
26.554179784441036
 10
73.63251141947062
 20
26.736838968337747
 10
74.02773872374348
 20
26.916852882311137
 10
74.41939101544556
 20
27.094309357251614
 10
74.80769235324766
 20
27.269445482215513
 10
75.19251988009741
 20
27.441751012110764
 10
75.57377183553203
 20
27.611500611364857
 10
75.95149887116483
 20
27.77855756483342
 10
76.32554832089963
 20
27.94333393772095
 10
76.69602164037506
 20
28.10555588835911
 10
77.06278109341882
 20
28.265174258240837
 10
77.4258773316442
 20
28.422052332221764
 10
77.78539693156988
 20
28.576377355218526
 10
78.14101382004219
 20
28.728187588234956
 10
78.49272774304096
 20
28.877483716903654
 10
78.84072693593966
 20
29.02417859596685
 10
79.18506225356761
 20
29.168134961774033
 10
79.52530708160492
 20
29.309662448719937
 10
79.8615941774294
 20
29.448823653710953
 10
80.1940808811075
 20
29.585193895902353
 10
80.52257682349666
 20
29.718866079865936
 10
80.8469802949382
 20
29.850114732902668
 10
81.16753028402691
 20
29.978715720357336
 10
81.48400227485558
 20
30.104433187312313
 10
81.7964320399177
 20
30.22759150520825
 10
82.10476862277585
 20
30.348328211948672
 10
82.40887433806179
 20
30.466594011900032
 10
82.70885064141409
 20
30.582115063393964
 10
83.00464647478731
 20
30.695029178587053
 10
83.29616012852274
 20
30.805610884780283
 10
83.58344220342961
 20
30.913723603955784
 10
83.86645667299432
 20
31.01904365030552
 10
84.14520328319678
 20
31.121571709462128
 10
84.41961630008781
 20
31.221906131661136
 10
84.68960874071647
 20
31.31986076899806
 10
84.95518055427871
 20
31.41543575859942
 10
85.2163822907797
 20
31.508494659573866
 10
85.47307631565528
 20
31.598988039161316
 10
85.7253999586455
 20
31.68696615288101
 10
85.97311402793949
 20
31.77265368389425
 10
86.21631987756778
 20
31.855777064785748
 10
86.45491579787169
 20
31.936610822856455
 10
86.68914082824998
 20
32.014930686324654
 10
86.91861809152354
 20
32.09091204271808
 10
87.14343421501519
 20
32.164741999826894
 10
87.36350231738201
 20
32.23623413549357
 10
87.57901063399744
 20
32.30530130446032
 10
87.78971946501035
 20
32.3721695611537
 10
87.99586759579941
 20
32.436615319424575
 10
88.19703054581382
 20
32.49894245435368
 10
88.3935301206692
 20
32.55912422356523
 10
88.5850925753578
 20
32.61705764774332
 10
88.77185534122789
 20
32.67279270815416
 10
88.9538183166713
 20
32.72632967905077
 10
89.13093054525066
 20
32.7778060983367
 10
89.30310524723112
 20
32.827035269601375
 10
89.47024061134586
 20
32.87429199439881
 10
89.63252502538047
 20
32.91948871609168
 10
89.78976989833335
 20
32.962713539823405
 10
89.94202598342572
 20
33.00382947619656
 10
90.08924242582829
 20
33.04297378886163
 10
90.23146987715428
 20
33.08000976267423
 10
90.36865748257436
 20
33.11507466128484
 10
90.50070358323383
 20
33.14844287486791
 10
90.62757205101107
 20
33.17979099186849
 10
90.74948724940117
 20
33.20935527858374
 10
90.86598547068614
 20
33.2371245632574
 10
90.97753027017185
 20
33.26311042902532
 10
91.08384637872992
 20
33.28721401036732
 10
91.18483213750564
 20
33.30970969745787
 10
91.2806758834805
 20
33.330510070786126
 10
91.37123993128627
 20
33.34956583471853
 10
91.45642267287229
 20
33.36715124230303
 10
91.53646319844135
 20
33.383041884631325
 10
91.61112231618262
 20
33.39746244486474
 10
91.68045072851338
 20
33.41027607073239
 10
91.74434682738294
 20
33.42175701528218
 10
91.80286141681668
 20
33.43176815199015
 10
91.85608117494138
 20
33.44049645151993
 10
91.90373088343263
 20
33.44784291122481
 10
91.94589737282938
 20
33.45399409038886
 10
91.98271817608767
 20
33.45899969602521
 10
92.0139180748832
 20
33.462760725487136
 10
92.03953299412147
 20
33.46560113883576
 10
92.05975147400002
 20
33.4674329680541
 10
92.0741964849278
 20
33.46843201204953
 10
92.08295500985564
 20
33.468784418726514
 10
92.08592528832091
 20
33.46876485251255
  0
ENDSEC
  0
SECTION
  2
OBJECTS
  0
DICTIONARY
  5
A
330
0
100
AcDbDictionary
280
0
281
1
  3
ACAD_COLOR
350
B
  3
ACAD_GROUP
350
C
  3
ACAD_LAYOUT
350
D
  3
ACAD_MATERIAL
350
E
  3
ACAD_MLEADERSTYLE
350
F
  3
ACAD_MLINESTYLE
350
10
  3
ACAD_PLOTSETTINGS
350
11
  3
ACAD_PLOTSTYLENAME
350
12
  3
ACAD_SCALELIST
350
14
  3
ACAD_TABLESTYLE
350
15
  3
ACAD_VISUALSTYLE
350
16
  3
EZDXF_META
350
2D
  0
DICTIONARY
  5
B
330
A
100
AcDbDictionary
280
0
281
1
  0
DICTIONARY
  5
C
330
A
100
AcDbDictionary
280
0
281
1
  0
DICTIONARY
  5
D
330
A
100
AcDbDictionary
280
0
281
1
  3
Model
350
1A
  3
Layout1
350
1E
  0
DICTIONARY
  5
E
330
A
100
AcDbDictionary
280
0
281
1
  3
ByBlock
350
1F
  3
ByLayer
350
20
  3
Global
350
21
  0
DICTIONARY
  5
F
330
A
100
AcDbDictionary
280
0
281
1
  3
Standard
350
2C
  0
DICTIONARY
  5
10
330
A
100
AcDbDictionary
280
0
281
1
  3
Standard
350
22
  0
DICTIONARY
  5
11
330
A
100
AcDbDictionary
280
0
281
1
  0
ACDBDICTIONARYWDFLT
  5
12
330
A
100
AcDbDictionary
280
0
281
1
  3
Normal
350
13
100
AcDbDictionaryWithDefault
340
13
  0
ACDBPLACEHOLDER
  5
13
330
12
  0
DICTIONARY
  5
14
330
A
100
AcDbDictionary
280
0
281
1
  0
DICTIONARY
  5
15
330
A
100
AcDbDictionary
280
0
281
1
  0
DICTIONARY
  5
16
330
A
100
AcDbDictionary
280
0
281
1
  0
LAYOUT
  5
1A
330
D
100
AcDbPlotSettings
  1

  4
A3
  6

 40
7.5
 41
20.0
 42
7.5
 43
20.0
 44
420.0
 45
297.0
 46
0.0
 47
0.0
 48
0.0
 49
0.0
140
0.0
141
0.0
142
1.0
143
1.0
 70
1024
 72
1
 73
0
 74
5
  7

 75
16
 76
0
 77
2
 78
300
147
1.0
148
0.0
149
0.0
100
AcDbLayout
  1
Model
 70
1
 71
0
 10
0.0
 20
0.0
 11
420.0
 21
297.0
 12
0.0
 22
0.0
 32
0.0
 14
1e+20
 24
1e+20
 34
1e+20
 15
-1e+20
 25
-1e+20
 35
-1e+20
146
0.0
 13
0.0
 23
0.0
 33
0.0
 16
1.0
 26
0.0
 36
0.0
 17
0.0
 27
1.0
 37
0.0
 76
1
330
17
  0
LAYOUT
  5
1E
330
D
100
AcDbPlotSettings
  1

  4
A3
  6

 40
7.5
 41
20.0
 42
7.5
 43
20.0
 44
420.0
 45
297.0
 46
0.0
 47
0.0
 48
0.0
 49
0.0
140
0.0
141
0.0
142
1.0
143
1.0
 70
0
 72
1
 73
0
 74
5
  7

 75
16
 76
0
 77
2
 78
300
147
1.0
148
0.0
149
0.0
100
AcDbLayout
  1
Layout1
 70
1
 71
1
 10
0.0
 20
0.0
 11
420.0
 21
297.0
 12
0.0
 22
0.0
 32
0.0
 14
1e+20
 24
1e+20
 34
1e+20
 15
-1e+20
 25
-1e+20
 35
-1e+20
146
0.0
 13
0.0
 23
0.0
 33
0.0
 16
1.0
 26
0.0
 36
0.0
 17
0.0
 27
1.0
 37
0.0
 76
1
330
1B
  0
MATERIAL
  5
1F
102
{ACAD_REACTORS
330
E
102
}
330
E
100
AcDbMaterial
  1
ByBlock
  2

 70
0
 40
1.0
 71
1
 41
1.0
 91
-1023410177
 42
1.0
 72
1
  3

 73
1
 74
1
 75
1
 44
0.5
 73
0
 45
1.0
 46
1.0
 77
1
  4

 78
1
 79
1
170
1
 48
1.0
171
1
  6

172
1
173
1
174
1
140
1.0
141
1.0
175
1
  7

176
1
177
1
178
1
143
1.0
179
1
  8

270
1
271
1
272
1
145
1.0
146
1.0
273
1
  9

274
1
275
1
276
1
 42
1.0
 72
1
  3

 73
1
 74
1
 75
1
 94
63
  0
MATERIAL
  5
20
102
{ACAD_REACTORS
330
E
102
}
330
E
100
AcDbMaterial
  1
ByLayer
  2

 70
0
 40
1.0
 71
1
 41
1.0
 91
-1023410177
 42
1.0
 72
1
  3

 73
1
 74
1
 75
1
 44
0.5
 73
0
 45
1.0
 46
1.0
 77
1
  4

 78
1
 79
1
170
1
 48
1.0
171
1
  6

172
1
173
1
174
1
140
1.0
141
1.0
175
1
  7

176
1
177
1
178
1
143
1.0
179
1
  8

270
1
271
1
272
1
145
1.0
146
1.0
273
1
  9

274
1
275
1
276
1
 42
1.0
 72
1
  3

 73
1
 74
1
 75
1
 94
63
  0
MATERIAL
  5
21
102
{ACAD_REACTORS
330
E
102
}
330
E
100
AcDbMaterial
  1
Global
  2

 70
0
 40
1.0
 71
1
 41
1.0
 91
-1023410177
 42
1.0
 72
1
  3

 73
1
 74
1
 75
1
 44
0.5
 73
0
 45
1.0
 46
1.0
 77
1
  4

 78
1
 79
1
170
1
 48
1.0
171
1
  6

172
1
173
1
174
1
140
1.0
141
1.0
175
1
  7

176
1
177
1
178
1
143
1.0
179
1
  8

270
1
271
1
272
1
145
1.0
146
1.0
273
1
  9

274
1
275
1
276
1
 42
1.0
 72
1
  3

 73
1
 74
1
 75
1
 94
63
  0
MLINESTYLE
  5
22
102
{ACAD_REACTORS
330
10
102
}
330
10
100
AcDbMlineStyle
  2
Standard
 70
0
  3

 62
256
 51
90.0
 52
90.0
 71
2
 49
0.5
 62
256
  6
BYLAYER
 49
-0.5
 62
256
  6
BYLAYER
  0
MLEADERSTYLE
  5
2C
102
{ACAD_REACTORS
330
F
102
}
330
F
100
AcDbMLeaderStyle
179
2
170
2
171
1
172
0
 90
2
 40
0.0
 41
0.0
173
1
 91
-1056964608
 92
-2
290
1
 42
2.0
291
1
 43
8.0
  3
Standard
 44
4.0
300

342
29
174
1
175
1
176
0
178
1
 93
-1056964608
 45
4.0
292
0
297
0
 46
4.0
 94
-1056964608
 47
1.0
 49
1.0
140
1.0
294
1
141
0.0
177
0
142
1.0
295
0
296
0
143
3.75
271
0
272
9
273
9
  0
DICTIONARY
  5
2D
330
A
100
AcDbDictionary
280
1
281
1
  3
CREATED_BY_EZDXF
350
2E
  3
WRITTEN_BY_EZDXF
350
32
  0
DICTIONARYVAR
  5
2E
330
2D
100
DictionaryVariables
280
0
  1
1.3.5 @ 2025-08-20T01:58:58.576854+00:00
  0
DICTIONARYVAR
  5
32
330
2D
100
DictionaryVariables
280
0
  1
1.3.5 @ 2025-08-20T01:58:58.576854+00:00
  0
ENDSEC
  0
EOF
