  0
SECTION
  2
HEADER
  9
$ACADVER
  1
AC1032
  9
$ACADMAINTVER
 90
4
  9
$DWGCODEPAGE
  3
ANSI_1252
  9
$LASTSAVEDBY
  1
ezdxf
  9
$REQUIREDVERSIONS
160
0
  9
$INSBASE
 10
0.0
 20
0.0
 30
0.0
  9
$EXTMIN
 10
1e+20
 20
1e+20
 30
1e+20
  9
$EXTMAX
 10
-1e+20
 20
-1e+20
 30
-1e+20
  9
$LIMMIN
 10
0.0
 20
0.0
  9
$LIMMAX
 10
420.0
 20
297.0
  9
$ORTHOMODE
 70
0
  9
$REGENMODE
 70
1
  9
$FILLMODE
 70
1
  9
$QTEXTMODE
 70
0
  9
$MIRRTEXT
 70
1
  9
$LTSCALE
 40
1.0
  9
$ATTMODE
 70
1
  9
$TEXTSIZE
 40
2.5
  9
$TRACEWID
 40
1.0
  9
$TEXTSTYLE
  7
Standard
  9
$CLAYER
  8
0
  9
$CELTYPE
  6
ByLayer
  9
$CECOLOR
 62
256
  9
$CELTSCALE
 40
1.0
  9
$DISPSILH
 70
0
  9
$DIMSCALE
 40
1.0
  9
$DIMASZ
 40
2.5
  9
$DIMEXO
 40
0.625
  9
$DIMDLI
 40
3.75
  9
$DIMRND
 40
0.0
  9
$DIMDLE
 40
0.0
  9
$DIMEXE
 40
1.25
  9
$DIMTP
 40
0.0
  9
$DIMTM
 40
0.0
  9
$DIMTXT
 40
2.5
  9
$DIMCEN
 40
2.5
  9
$DIMTSZ
 40
0.0
  9
$DIMTOL
 70
0
  9
$DIMLIM
 70
0
  9
$DIMTIH
 70
0
  9
$DIMTOH
 70
0
  9
$DIMSE1
 70
0
  9
$DIMSE2
 70
0
  9
$DIMTAD
 70
1
  9
$DIMZIN
 70
8
  9
$DIMBLK
  1

  9
$DIMASO
 70
1
  9
$DIMSHO
 70
1
  9
$DIMPOST
  1

  9
$DIMAPOST
  1

  9
$DIMALT
 70
0
  9
$DIMALTD
 70
3
  9
$DIMALTF
 40
0.03937007874
  9
$DIMLFAC
 40
1.0
  9
$DIMTOFL
 70
1
  9
$DIMTVP
 40
0.0
  9
$DIMTIX
 70
0
  9
$DIMSOXD
 70
0
  9
$DIMSAH
 70
0
  9
$DIMBLK1
  1

  9
$DIMBLK2
  1

  9
$DIMSTYLE
  2
ISO-25
  9
$DIMCLRD
 70
0
  9
$DIMCLRE
 70
0
  9
$DIMCLRT
 70
0
  9
$DIMTFAC
 40
1.0
  9
$DIMGAP
 40
0.625
  9
$DIMJUST
 70
0
  9
$DIMSD1
 70
0
  9
$DIMSD2
 70
0
  9
$DIMTOLJ
 70
0
  9
$DIMTZIN
 70
8
  9
$DIMALTZ
 70
0
  9
$DIMALTTZ
 70
0
  9
$DIMUPT
 70
0
  9
$DIMDEC
 70
2
  9
$DIMTDEC
 70
2
  9
$DIMALTU
 70
2
  9
$DIMALTTD
 70
3
  9
$DIMTXSTY
  7
Standard
  9
$DIMAUNIT
 70
0
  9
$DIMADEC
 70
0
  9
$DIMALTRND
 40
0.0
  9
$DIMAZIN
 70
0
  9
$DIMDSEP
 70
44
  9
$DIMATFIT
 70
3
  9
$DIMFRAC
 70
0
  9
$DIMLDRBLK
  1

  9
$DIMLUNIT
 70
2
  9
$DIMLWD
 70
-2
  9
$DIMLWE
 70
-2
  9
$DIMTMOVE
 70
0
  9
$DIMFXL
 40
1.0
  9
$DIMFXLON
 70
0
  9
$DIMJOGANG
 40
0.785398163397
  9
$DIMTFILL
 70
0
  9
$DIMTFILLCLR
 70
0
  9
$DIMARCSYM
 70
0
  9
$DIMLTYPE
  6

  9
$DIMLTEX1
  6

  9
$DIMLTEX2
  6

  9
$DIMTXTDIRECTION
 70
0
  9
$LUNITS
 70
2
  9
$LUPREC
 70
4
  9
$SKETCHINC
 40
1.0
  9
$FILLETRAD
 40
10.0
  9
$AUNITS
 70
0
  9
$AUPREC
 70
2
  9
$MENU
  1
.
  9
$ELEVATION
 40
0.0
  9
$PELEVATION
 40
0.0
  9
$THICKNESS
 40
0.0
  9
$LIMCHECK
 70
0
  9
$CHAMFERA
 40
0.0
  9
$CHAMFERB
 40
0.0
  9
$CHAMFERC
 40
0.0
  9
$CHAMFERD
 40
0.0
  9
$SKPOLY
 70
0
  9
$TDCREATE
 40
2460908.1242824076
  9
$TDUCREATE
 40
2458532.153996898
  9
$TDUPDATE
 40
2460908.1242824076
  9
$TDUUPDATE
 40
2458532.1544311
  9
$TDINDWG
 40
0.0
  9
$TDUSRTIMER
 40
0.0
  9
$USRTIMER
 70
1
  9
$ANGBASE
 50
0.0
  9
$ANGDIR
 70
0
  9
$PDMODE
 70
0
  9
$PDSIZE
 40
0.0
  9
$PLINEWID
 40
0.0
  9
$SPLFRAME
 70
0
  9
$SPLINETYPE
 70
6
  9
$SPLINESEGS
 70
8
  9
$HANDSEED
  5
33
  9
$SURFTAB1
 70
6
  9
$SURFTAB2
 70
6
  9
$SURFTYPE
 70
6
  9
$SURFU
 70
6
  9
$SURFV
 70
6
  9
$UCSBASE
  2

  9
$UCSNAME
  2

  9
$UCSORG
 10
0.0
 20
0.0
 30
0.0
  9
$UCSXDIR
 10
1.0
 20
0.0
 30
0.0
  9
$UCSYDIR
 10
0.0
 20
1.0
 30
0.0
  9
$UCSORTHOREF
  2

  9
$UCSORTHOVIEW
 70
0
  9
$UCSORGTOP
 10
0.0
 20
0.0
 30
0.0
  9
$UCSORGBOTTOM
 10
0.0
 20
0.0
 30
0.0
  9
$UCSORGLEFT
 10
0.0
 20
0.0
 30
0.0
  9
$UCSORGRIGHT
 10
0.0
 20
0.0
 30
0.0
  9
$UCSORGFRONT
 10
0.0
 20
0.0
 30
0.0
  9
$UCSORGBACK
 10
0.0
 20
0.0
 30
0.0
  9
$PUCSBASE
  2

  9
$PUCSNAME
  2

  9
$PUCSORG
 10
0.0
 20
0.0
 30
0.0
  9
$PUCSXDIR
 10
1.0
 20
0.0
 30
0.0
  9
$PUCSYDIR
 10
0.0
 20
1.0
 30
0.0
  9
$PUCSORTHOREF
  2

  9
$PUCSORTHOVIEW
 70
0
  9
$PUCSORGTOP
 10
0.0
 20
0.0
 30
0.0
  9
$PUCSORGBOTTOM
 10
0.0
 20
0.0
 30
0.0
  9
$PUCSORGLEFT
 10
0.0
 20
0.0
 30
0.0
  9
$PUCSORGRIGHT
 10
0.0
 20
0.0
 30
0.0
  9
$PUCSORGFRONT
 10
0.0
 20
0.0
 30
0.0
  9
$PUCSORGBACK
 10
0.0
 20
0.0
 30
0.0
  9
$USERI1
 70
0
  9
$USERI2
 70
0
  9
$USERI3
 70
0
  9
$USERI4
 70
0
  9
$USERI5
 70
0
  9
$USERR1
 40
0.0
  9
$USERR2
 40
0.0
  9
$USERR3
 40
0.0
  9
$USERR4
 40
0.0
  9
$USERR5
 40
0.0
  9
$WORLDVIEW
 70
1
  9
$SHADEDGE
 70
3
  9
$SHADEDIF
 70
70
  9
$TILEMODE
 70
1
  9
$MAXACTVP
 70
64
  9
$PINSBASE
 10
0.0
 20
0.0
 30
0.0
  9
$PLIMCHECK
 70
0
  9
$PEXTMIN
 10
1e+20
 20
1e+20
 30
1e+20
  9
$PEXTMAX
 10
-1e+20
 20
-1e+20
 30
-1e+20
  9
$PLIMMIN
 10
0.0
 20
0.0
  9
$PLIMMAX
 10
420.0
 20
297.0
  9
$UNITMODE
 70
0
  9
$VISRETAIN
 70
1
  9
$PLINEGEN
 70
0
  9
$PSLTSCALE
 70
1
  9
$TREEDEPTH
 70
3020
  9
$CMLSTYLE
  2
Standard
  9
$CMLJUST
 70
0
  9
$CMLSCALE
 40
20.0
  9
$PROXYGRAPHICS
 70
1
  9
$MEASUREMENT
 70
1
  9
$CELWEIGHT
370
-1
  9
$ENDCAPS
280
0
  9
$JOINSTYLE
280
0
  9
$LWDISPLAY
290
0
  9
$INSUNITS
 70
6
  9
$HYPERLINKBASE
  1

  9
$STYLESHEET
  1

  9
$XEDIT
290
1
  9
$CEPSNTYPE
380
0
  9
$PSTYLEMODE
290
1
  9
$FINGERPRINTGUID
  2
{C85E3BF6-F3BF-47E1-998C-5460A8549069}
  9
$VERSIONGUID
  2
{FCE68F1A-CAD9-44D6-99FA-7D98577AE7B9}
  9
$EXTNAMES
290
1
  9
$PSVPSCALE
 40
0.0
  9
$OLESTARTUP
290
0
  9
$SORTENTS
280
127
  9
$INDEXCTL
280
0
  9
$HIDETEXT
280
1
  9
$XCLIPFRAME
280
1
  9
$HALOGAP
280
0
  9
$OBSCOLOR
 70
257
  9
$OBSLTYPE
280
0
  9
$INTERSECTIONDISPLAY
280
0
  9
$INTERSECTIONCOLOR
 70
257
  9
$DIMASSOC
280
2
  9
$PROJECTNAME
  1

  9
$CAMERADISPLAY
290
0
  9
$LENSLENGTH
 40
50.0
  9
$CAMERAHEIGHT
 40
0.0
  9
$STEPSPERSEC
 40
24.0
  9
$STEPSIZE
 40
100.0
  9
$3DDWFPREC
 40
2.0
  9
$PSOLWIDTH
 40
0.005
  9
$PSOLHEIGHT
 40
0.08
  9
$LOFTANG1
 40
1.570796326795
  9
$LOFTANG2
 40
1.570796326795
  9
$LOFTMAG1
 40
0.0
  9
$LOFTMAG2
 40
0.0
  9
$LOFTPARAM
 70
7
  9
$LOFTNORMALS
280
1
  9
$LATITUDE
 40
37.795
  9
$LONGITUDE
 40
-122.394
  9
$NORTHDIRECTION
 40
0.0
  9
$TIMEZONE
 70
-8000
  9
$LIGHTGLYPHDISPLAY
280
1
  9
$TILEMODELIGHTSYNCH
280
1
  9
$CMATERIAL
347
20
  9
$SOLIDHIST
280
0
  9
$SHOWHIST
280
1
  9
$DWFFRAME
280
2
  9
$DGNFRAME
280
2
  9
$REALWORLDSCALE
290
1
  9
$INTERFERECOLOR
 62
256
  9
$CSHADOW
280
0
  9
$SHADOWPLANELOCATION
 40
0.0
  0
ENDSEC
  0
SECTION
  2
CLASSES
  0
CLASS
  1
ACDBDICTIONARYWDFLT
  2
AcDbDictionaryWithDefault
  3
ObjectDBX Classes
 90
0
 91
0
280
0
281
0
  0
CLASS
  1
SUN
  2
AcDbSun
  3
SCENEOE
 90
1153
 91
0
280
0
281
0
  0
CLASS
  1
VISUALSTYLE
  2
AcDbVisualStyle
  3
ObjectDBX Classes
 90
4095
 91
0
280
0
281
0
  0
CLASS
  1
MATERIAL
  2
AcDbMaterial
  3
ObjectDBX Classes
 90
1153
 91
0
280
0
281
0
  0
CLASS
  1
SCALE
  2
AcDbScale
  3
ObjectDBX Classes
 90
1153
 91
0
280
0
281
0
  0
CLASS
  1
TABLESTYLE
  2
AcDbTableStyle
  3
ObjectDBX Classes
 90
4095
 91
0
280
0
281
0
  0
CLASS
  1
MLEADERSTYLE
  2
AcDbMLeaderStyle
  3
ACDB_MLEADERSTYLE_CLASS
 90
4095
 91
0
280
0
281
0
  0
CLASS
  1
DICTIONARYVAR
  2
AcDbDictionaryVar
  3
ObjectDBX Classes
 90
0
 91
0
280
0
281
0
  0
CLASS
  1
CELLSTYLEMAP
  2
AcDbCellStyleMap
  3
ObjectDBX Classes
 90
1152
 91
0
280
0
281
0
  0
CLASS
  1
MENTALRAYRENDERSETTINGS
  2
AcDbMentalRayRenderSettings
  3
SCENEOE
 90
1024
 91
0
280
0
281
0
  0
CLASS
  1
ACDBDETAILVIEWSTYLE
  2
AcDbDetailViewStyle
  3
ObjectDBX Classes
 90
1025
 91
0
280
0
281
0
  0
CLASS
  1
ACDBSECTIONVIEWSTYLE
  2
AcDbSectionViewStyle
  3
ObjectDBX Classes
 90
1025
 91
0
280
0
281
0
  0
CLASS
  1
RASTERVARIABLES
  2
AcDbRasterVariables
  3
ISM
 90
0
 91
0
280
0
281
0
  0
CLASS
  1
ACDBPLACEHOLDER
  2
AcDbPlaceHolder
  3
ObjectDBX Classes
 90
0
 91
0
280
0
281
0
  0
CLASS
  1
LAYOUT
  2
AcDbLayout
  3
ObjectDBX Classes
 90
0
 91
0
280
0
281
0
  0
ENDSEC
  0
SECTION
  2
TABLES
  0
TABLE
  2
VPORT
  5
8
330
0
100
AcDbSymbolTable
 70
1
  0
VPORT
  5
23
330
8
100
AcDbSymbolTableRecord
100
AcDbViewportTableRecord
  2
*Active
 70
0
 10
0.0
 20
0.0
 11
1.0
 21
1.0
 12
0.0
 22
0.0
 13
0.0
 23
0.0
 14
0.5
 24
0.5
 15
0.5
 25
0.5
 16
0.0
 26
0.0
 36
1.0
 17
0.0
 27
0.0
 37
0.0
 40
1000.0
 41
1.34
 42
50.0
 43
0.0
 44
0.0
 50
0.0
 51
0.0
 71
0
 72
1000
 73
1
 74
3
 75
0
 76
0
 77
0
 78
0
281
0
 65
0
146
0.0
  0
ENDTAB
  0
TABLE
  2
LTYPE
  5
2
330
0
100
AcDbSymbolTable
 70
3
  0
LTYPE
  5
24
330
2
100
AcDbSymbolTableRecord
100
AcDbLinetypeTableRecord
  2
ByBlock
 70
0
  3

 72
65
 73
0
 40
0.0
  0
LTYPE
  5
25
330
2
100
AcDbSymbolTableRecord
100
AcDbLinetypeTableRecord
  2
ByLayer
 70
0
  3

 72
65
 73
0
 40
0.0
  0
LTYPE
  5
26
330
2
100
AcDbSymbolTableRecord
100
AcDbLinetypeTableRecord
  2
Continuous
 70
0
  3

 72
65
 73
0
 40
0.0
  0
ENDTAB
  0
TABLE
  2
LAYER
  5
1
330
0
100
AcDbSymbolTable
 70
2
  0
LAYER
  5
27
330
1
100
AcDbSymbolTableRecord
100
AcDbLayerTableRecord
  2
0
 70
0
 62
7
  6
Continuous
370
-3
390
13
347
21
  0
LAYER
  5
28
330
1
100
AcDbSymbolTableRecord
100
AcDbLayerTableRecord
  2
Defpoints
 70
0
 62
7
  6
Continuous
290
0
370
-3
390
13
347
21
  0
ENDTAB
  0
TABLE
  2
STYLE
  5
5
330
0
100
AcDbSymbolTable
 70
1
  0
STYLE
  5
29
330
5
100
AcDbSymbolTableRecord
100
AcDbTextStyleTableRecord
  2
Standard
 70
0
 40
0.0
 41
1.0
 50
0.0
 71
0
 42
2.5
  3
txt
  4

  0
ENDTAB
  0
TABLE
  2
VIEW
  5
7
330
0
100
AcDbSymbolTable
 70
0
  0
ENDTAB
  0
TABLE
  2
UCS
  5
6
330
0
100
AcDbSymbolTable
 70
0
  0
ENDTAB
  0
TABLE
  2
APPID
  5
3
330
0
100
AcDbSymbolTable
 70
3
  0
APPID
  5
2A
330
3
100
AcDbSymbolTableRecord
100
AcDbRegAppTableRecord
  2
ACAD
 70
0
  0
APPID
  5
30
330
3
100
AcDbSymbolTableRecord
100
AcDbRegAppTableRecord
  2
HATCHBACKGROUNDCOLOR
 70
0
  0
APPID
  5
31
330
3
100
AcDbSymbolTableRecord
100
AcDbRegAppTableRecord
  2
EZDXF
 70
0
  0
ENDTAB
  0
TABLE
  2
DIMSTYLE
  5
4
330
0
100
AcDbSymbolTable
 70
1
100
AcDbDimStyleTable
  0
DIMSTYLE
105
2B
330
4
100
AcDbSymbolTableRecord
100
AcDbDimStyleTableRecord
  2
Standard
 70
0
 40
1.0
 41
2.5
 42
0.625
 43
3.75
 44
1.25
 45
0.0
 46
0.0
 47
0.0
 48
0.0
 49
2.5
140
2.5
141
2.5
142
0.0
143
0.03937007874
144
1.0
145
0.0
146
1.0
147
0.625
148
0.0
 69
0
 70
0
 71
0
 72
0
 73
0
 74
0
 75
0
 76
0
 77
1
 78
8
 79
3
170
0
171
3
172
1
173
0
174
0
175
0
176
0
177
0
178
0
179
2
271
2
272
2
273
2
274
3
275
0
276
0
277
2
278
44
279
0
280
0
281
0
282
0
283
0
284
8
285
0
286
0
288
0
289
3
290
0
371
-2
372
-2
  0
ENDTAB
  0
TABLE
  2
BLOCK_RECORD
  5
9
330
0
100
AcDbSymbolTable
 70
2
  0
BLOCK_RECORD
  5
17
330
9
100
AcDbSymbolTableRecord
100
AcDbBlockTableRecord
  2
*Model_Space
340
1A
 70
0
280
1
281
0
  0
BLOCK_RECORD
  5
1B
330
9
100
AcDbSymbolTableRecord
100
AcDbBlockTableRecord
  2
*Paper_Space
340
1E
 70
0
280
1
281
0
  0
ENDTAB
  0
ENDSEC
  0
SECTION
  2
BLOCKS
  0
BLOCK
  5
18
330
17
100
AcDbEntity
  8
0
100
AcDbBlockBegin
  2
*Model_Space
 70
0
 10
0.0
 20
0.0
 30
0.0
  3
*Model_Space
  1

  0
ENDBLK
  5
19
330
17
100
AcDbEntity
  8
0
100
AcDbBlockEnd
  0
BLOCK
  5
1C
330
1B
100
AcDbEntity
  8
0
100
AcDbBlockBegin
  2
*Paper_Space
 70
0
 10
0.0
 20
0.0
 30
0.0
  3
*Paper_Space
  1

  0
ENDBLK
  5
1D
330
1B
100
AcDbEntity
  8
0
100
AcDbBlockEnd
  0
ENDSEC
  0
SECTION
  2
ENTITIES
  0
LWPOLYLINE
  5
2F
330
17
100
AcDbEntity
  8
0
100
AcDbPolyline
 90
721
 70
1
 10
45.8196889642959
 20
3.122630959790697
 10
45.81835901706177
 20
3.1230128302804645
 10
45.81437807803028
 20
3.124021501962791
 10
45.807763921414995
 20
3.125383574074167
 10
45.798439309756375
 20
3.127230513490631
 10
45.786554284425634
 20
3.12936758274763
 10
45.772036050404886
 20
3.1318579156306967
 10
45.754820688665816
 20
3.1346281165473373
 10
45.73504491770151
 20
3.137688378903023
 10
45.71264481848366
 20
3.14096530710526
 10
45.68754314021203
 20
3.144590573234559
 10
45.65988549515685
 20
3.1484375677123992
 10
45.62960351295433
 20
3.1525013648397735
 10
45.59669274671594
 20
3.1568503661086806
 10
45.56116209021877
 20
3.161347768535127
 10
45.52300264079194
 20
3.1661305119060885
 10
45.482287206794005
 20
3.1711352572315583
 10
45.438947417861186
 20
3.176357078812532
 10
45.39297882710495
 20
3.1818643781410056
 10
45.34445868087859
 20
3.1875255515379592
 10
45.29330971948812
 20
3.193472407886888
 10
45.23954083226379
 20
3.1995682126052936
 10
45.18327983947467
 20
3.205960030484127
 10
45.12432610359934
 20
3.2125642725254275
 10
45.06288469570714
 20
3.2193963314396377
 10
44.99881889285806
 20
3.2264460822227794
 10
44.93219704318142
 20
3.233718792581317
 10
44.86301914223037
 20
3.241214530916744
 10
44.791280738669414
 20
3.2490017671225466
 10
44.71698181915793
 20
3.2570807064032024
 10
44.64013127302612
 20
3.2653146141762104
 10
44.56072020204998
 20
3.2738403618270544
 10
44.47882139680052
 20
3.2825948839716954
 10
44.394362048919184
 20
3.291641519600142
 10
44.307351034395545
 20
3.3008437393343684
 10
44.217847820922444
 20
3.310343408660356
 10
44.125847948270696
 20
3.320209134274577
 10
44.03136474821221
 20
3.3302358485040284
 10
43.934320952159155
 20
3.3405554970351865
 10
43.83485772549323
 20
3.351109871781528
 10
43.732833885045224
 20
3.361957454435546
 10
43.628386144861324
 20
3.3731085068042015
 10
43.52144613013089
 20
3.3845581715899824
 10
43.41208219343013
 20
3.396311648097862
 10
43.30023040683695
 20
3.408295677538331
 10
43.185959122927585
 20
3.4205154592163627
 10
43.06919107311422
 20
3.433102938818435
 10
42.95006741833164
 20
3.445999976659515
 10
42.828519783769195
 20
3.4592017154420884
 10
42.7045481605331
 20
3.4727082919691408
 10
42.57815252638891
 20
3.4865200482481304
 10
42.4493967959181
 20
3.500710448273045
 10
42.31821703230472
 20
3.515206370057357
 10
42.18467714568336
 20
3.530081345996542
 10
42.04878156070814
 20
3.5452673166060684
 10
41.910539166709306
 20
3.5606275473034352
 10
41.77000941359212
 20
3.5763041771805875
 10
41.62711503721575
 20
3.5924290835225166
 10
41.48185601534572
 20
3.609002608336679
 10
41.33431404567085
 20
3.625824678050572
 10
41.18448466351501
 20
3.642963967762156
 10
41.03236785998439
 20
3.660420614274416
 10
40.87795027217893
 20
3.6784001640708004
 10
40.72125412120071
 20
3.696560814895805
 10
40.56233886584885
 20
3.715044569038394
 10
40.401200045894136
 20
3.73392003319504
 10
40.23776483519044
 20
3.7532508199617185
 10
40.07217439022567
 20
3.772978858054887
 10
39.9043647786308
 20
3.793030957086528
 10
39.7343359915121
 20
3.813407253859627
 10
39.56214747877487
 20
3.8342498874661315
 10
39.387817010185785
 20
3.8552855255440264
 10
39.21126732160396
 20
3.876646045378298
 10
39.032630671293276
 20
3.898410247070889
 10
38.85190704591308
 20
3.9205783358262747
 10
38.66903696442981
 20
3.94300865136295
 10
38.48401595772048
 20
3.965769937180373
 10
38.2969807398313
 20
3.9888724550855033
 10
38.107854037727584
 20
4.012448219166312
 10
37.91664917873438
 20
4.036292230151289
 10
37.72343451098099
 20
4.060409755746896
 10
37.52821002112676
 20
4.084801001157614
 10
37.33096679316013
 20
4.10960311137489
 10
37.131704813740434
 20
4.134816291603203
 10
36.93042851641557
 20
4.160372345555031
 10
36.727279062120296
 20
4.186213133545342
 10
36.52211525434475
 20
4.212397342471105
 10
36.315005445665136
 20
4.238930171637293
 10
36.10603132932338
 20
4.265611615872892
 10
35.89512007027957
 20
4.292505424576859
 10
35.68232668044424
 20
4.319822001530157
 10
35.467719512393636
 20
4.347566546037757
 10
35.25117070583664
 20
4.375592608922133
 10
35.03283032437895
 20
4.40370511071128
 10
34.81268056267877
 20
4.432177930979145
 10
34.59072585428397
 20
4.460942873438207
 10
34.36696173451845
 20
4.490068613186434
 10
34.14146544528866
 20
4.519423614946296
 10
33.914236977700845
 20
4.549008015520779
 10
33.68520794360365
 20
4.578817162816846
 10
33.454510614601624
 20
4.608929651731962
 10
33.22207661143724
 20
4.639340693370104
 10
32.9879831804638
 20
4.669918684052257
 10
32.75223030389378
 20
4.700663897384388
 10
32.514886338750294
 20
4.731581464269977
 10
32.27587844999343
 20
4.7627351341079835
 10
32.03526610086918
 20
4.7942668407858795
 10
31.792994239445026
 20
4.825966796136133
 10
31.549263525476817
 20
4.857918247149247
 10
31.303954988003728
 20
4.889838010065196
 10
31.05706415790273
 20
4.921794828383436
 10
30.80871442634191
 20
4.954003894780947
 10
30.55890132864517
 20
4.986533884355695
 10
30.30750145140997
 20
5.019169946438158
 10
30.054797160974754
 20
5.051795117643347
 10
29.800587775349207
 20
5.084326492988221
 10
29.544996676807635
 20
5.116979401952744
 10
29.287951034757043
 20
5.149817525534383
 10
29.029592027919776
 20
5.182782450442137
 10
28.76986461325705
 20
5.21566425170549
 10
28.508828254014876
 20
5.248604863211913
 10
28.246474038628563
 20
5.281741361551366
 10
27.98282419264714
 20
5.314731876066854
 10
27.717883149618523
 20
5.347508210470859
 10
27.45176540693365
 20
5.380422360424351
 10
27.18433865296601
 20
5.413396346643295
 10
26.915735172660778
 20
5.446508558820677
 10
26.645981638455584
 20
5.479348724807512
 10
26.37507359012116
 20
5.511985451300266
 10
26.103002124986645
 20
5.544555678085919
 10
25.829753880151888
 20
5.577264951647915
 10
25.55548339279247
 20
5.609849380613298
 10
25.280071678606866
 20
5.642025986426519
 10
25.003710521361384
 20
5.674014545456106
 10
24.72624091475745
 20
5.706147692574469
 10
24.447749021159968
 20
5.738156679111141
 10
24.16825260588874
 20
5.769768241105595
 10
23.887879529234866
 20
5.8011288277353605
 10
23.606488572453998
 20
5.832297467904864
 10
23.324212033832037
 20
5.863352346102622
 10
23.040985972106196
 20
5.894220408743599
 10
22.75688765141739
 20
5.92476977854281
 10
22.47198544212938
 20
5.95500538119926
 10
22.186210951643954
 20
5.984922633021403
 10
21.89970093402933
 20
6.014531180202775
 10
21.612318617429732
 20
6.043821650155808
 10
21.324191853242482
 20
6.072940628861014
 10
21.035325092803035
 20
6.101819646424903
 10
20.74574055276663
 20
6.130116968993464
 10
20.455429330462376
 20
6.157969536353673
 10
20.164523737516813
 20
6.185455327789568
 10
19.872882555185615
 20
6.2126333722055795
 10
19.580651431314102
 20
6.2393765128112495
 10
19.28783480834398
 20
6.265616416516073
 10
18.9944371287169
 20
6.291284750229547
 10
18.70044948086818
 20
6.316518590541632
 10
18.405935806060608
 20
6.341390991037359
 10
18.110896090953506
 20
6.365902156921207
 10
17.81541205547011
 20
6.389851672613205
 10
17.519419758347656
 20
6.4131664845283245
 10
17.222992021285368
 20
6.43578304847208
 10
16.926183887322004
 20
6.457911289414989
 10
16.62891362319366
 20
6.479751828141495
 10
16.331326890086345
 20
6.501177302656663
 10
16.03339087495721
 20
6.5216358489314885
 10
15.735078883134232
 20
6.541538081122424
 10
15.436523248478395
 20
6.560961636506048
 10
15.13766446327483
 20
6.579765265209807
 10
14.838506978858973
 20
6.597880497340212
 10
14.53917421752716
 20
6.615522046763802
 10
14.23960224691037
 20
6.63261672309256
 10
13.939872782484965
 20
6.648964179148011
 10
13.639917436099614
 20
6.664559762837118
 10
13.33986854161531
 20
6.67948111143646
 10
13.039721643249706
 20
6.693796763241015
 10
12.73949008611538
 20
6.7073014453733055
 10
12.439169414429987
 20
6.720063696128309
 10
12.138823573903194
 20
6.732156500689569
 10
11.838370835717981
 20
6.743780411440034
 10
11.537974657508375
 20
6.754534323613805
 10
11.237635039274378
 20
6.7644182372108785
 10
10.937347538574315
 20
6.773500485321763
 10
10.637107699625854
 20
6.781849606241434
 10
10.336988370809546
 20
6.78940164536646
 10
10.036916712638613
 20
6.79622042049729
 10
9.737033952751164
 20
6.80224676592651
 10
9.43734898937121
 20
6.807343810268638
 10
9.13785737561019
 20
6.81157995501567
 10
8.838554669026434
 20
6.815023533258106
 10
8.539445316508498
 20
6.817606143503956
 10
8.240675005923723
 20
6.819200013349328
 10
7.942166446449883
 20
6.819937430488166
 10
7.643979145801841
 20
6.8199596447930215
 10
7.346066945824191
 20
6.818920065112369
 10
7.048557742383136
 20
6.816964593411798
 10
6.751438208153658
 20
6.814298228962822
 10
6.454653282309444
 20
6.810711320400889
 10
6.1583486616116065
 20
6.806075958519134
 10
5.862515456729919
 20
6.800528877900053
 10
5.567094164396386
 20
6.793928760269604
 10
5.27221269381788
 20
6.786421302388899
 10
4.977811546173315
 20
6.777865117582401
 10
4.684023073111216
 20
6.768337569520721
 10
4.390697148769476
 20
6.758034695296756
 10
4.097979469909203
 20
6.746828585703636
 10
3.8058878240846385
 20
6.734445634773379
 10
3.514417777747892
 20
6.720954038793504
 10
3.2236243872783845
 20
6.706563517530053
 10
2.9335121173522385
 20
6.691205395885058
 10
2.6440854193048935
 20
6.674811203965035
 10
2.355412699075242
 20
6.657385320257053
 10
2.0674166658410496
 20
6.63906003245505
 10
1.7801568451047434
 20
6.61997631682561
 10
1.4937194259125675
 20
6.59986501428931
 10
1.2081133109354218
 20
6.578589185059177
 10
0.9233296197368429
 20
6.556285426914725
 10
0.6394327160340217
 20
6.533020295299246
 10
0.35635491873090114
 20
6.508778262282479
 10
0.07416019577159298
 20
6.483631971040502
 10
-0.20708749824048303
 20
6.457654269953873
 10
-0.48743877724306295
 20
6.430567106166048
 10
-0.7668252397441632
 20
6.402374926565588
 10
-1.0452007186945875
 20
6.373424185501031
 10
-1.3226247218092124
 20
6.343573633099828
 10
-1.5989559992154805
 20
6.312763761647103
 10
-1.8743313538973876
 20
6.280985677365734
 10
-2.1486139828709385
 20
6.248248274032844
 10
-2.4217443784212644
 20
6.214692801520985
 10
-2.6938637904209144
 20
6.18037876754503
 10
-2.96488158293509
 20
6.144968611533562
 10
-3.2346876343111646
 20
6.108881636215679
 10
-3.5033592398182485
 20
6.07225019768681
 10
-3.7709381196169867
 20
6.034659440106418
 10
-4.037219069231378
 20
5.996122704140191
 10
-4.302283830819113
 20
5.9568407473755505
 10
-4.566136851268742
 20
5.916881971304493
 10
-4.828769236803146
 20
5.8761095729430295
 10
-5.090048631326898
 20
5.834600847560275
 10
-5.350111837823987
 20
5.792346901379109
 10
-5.608835393976108
 20
5.749561832652642
 10
-5.866210406006134
 20
5.706108838396879
 10
-6.122232427025505
 20
5.661919517119827
 10
-6.376905903922784
 20
5.6170622703134825
 10
-6.630171328983098
 20
5.571678347850396
 10
-6.882097103698439
 20
5.525763302842008
 10
-7.132537531307692
 20
5.479189226081448
 10
-7.381492611810866
 20
5.431956117568717
 10
-7.629026299811385
 20
5.383991128923256
 10
-7.875074640705824
 20
5.335367108525623
 10
-8.119650975159859
 20
5.286289260851808
 10
-8.362691348570056
 20
5.236830434282364
 10
-8.604177973382175
 20
5.18671702284931
 10
-8.844179251088207
 20
5.135944579664085
 10
-9.082485530323607
 20
5.084458043900375
 10
-9.31924695473805
 20
5.032453726257045
 10
-9.554467971220094
 20
4.980000028226094
 10
-9.788011776785748
 20
4.927105843584641
 10
-10.019873924546452
 20
4.8737027708406915
 10
-10.25010947532852
 20
4.819581158629697
 10
-10.478667815194198
 20
4.765019059808202
 10
-10.70556228480917
 20
4.710221678852193
 10
-10.930702248238637
 20
4.6548514551902525
 10
-11.154156106974588
 20
4.59890394193382
 10
-11.375795951810161
 20
4.5425248358440085
 10
-11.59569018423735
 20
4.485709690032257
 10
-11.813843251144716
 20
4.4285269059905605
 10
-12.030173410374575
 20
4.3707757261314955
 10
-12.244689555704058
 20
4.312592953439051
 10
-12.457391687133153
 20
4.253978587913228
 10
-12.66829759221612
 20
4.195206235522009
 10
-12.877266021080395
 20
4.136216388550522
 10
-13.084420436044285
 20
4.076794948745656
 10
-13.28968354183868
 20
4.01680956001198
 10
-13.493004724525825
 20
3.9565382752060403
 10
-13.694461279374837
 20
3.8961134504232646
 10
-13.893967017339476
 20
3.8352659265842344
 10
-14.09146243070487
 20
3.7741369535615
 10
-14.287088769343569
 20
3.7127860390699343
 10
-14.480709230271582
 20
3.651222076886662
 10
-14.672310472823229
 20
3.5892398625356927
 10
-14.861905837664189
 20
3.5270446004930176
 10
-15.049499771683028
 20
3.464704692250629
 10
-15.235087827991178
 20
3.4021517363165326
 10
-15.418601605096653
 20
3.33939017957929
 10
-15.600036656110877
 20
3.2763516205469045
 10
-15.779465829414425
 20
3.2131000138228107
 10
-15.956752322023291
 20
3.149644253184132
 10
-16.1319050277146
 20
3.0861211416148584
 10
-16.305051855695233
 20
3.022384982353877
 10
-16.475987601489187
 20
2.9584491160668707
 10
-16.644776219699903
 20
2.8942406943732832
 10
-16.811435497881625
 20
2.8300333232410977
 10
-16.975965436034357
 20
2.765827002670314
 10
-17.13828873888897
 20
2.7014893765655015
 10
-17.29840095955692
 20
2.6369520434346643
 10
-17.456366052641627
 20
2.5721421548972456
 10
-17.612069449601908
 20
2.5074106121903466
 10
-17.765575105041204
 20
2.4426845669334103
 10
-17.91687412518239
 20
2.3778272161424456
 10
-18.065898108533457
 20
2.312843006706012
 10
-18.21265594887155
 20
2.247868741608104
 10
-18.35713875241953
 20
2.1827676178647266
 10
-18.49935096606597
 20
2.1176080369678787
 10
-18.639297036699418
 20
2.0524584004095545
 10
-18.776899669050763
 20
1.9871863520943234
 10
-18.91217220378569
 20
1.9219970964981736
 10
-19.04516525484195
 20
1.8566125807645595
 10
-19.175828208281793
 20
1.7913108577500265
 10
-19.304156617216645
 20
1.7260235259625796
 10
-19.430146034757964
 20
1.6606821839102202
 10
-19.55372805941374
 20
1.5952912784815119
 10
-19.674975539564535
 20
1.529914764279889
 10
-19.79383341438404
 20
1.4647622926698995
 10
-19.910292790095124
 20
1.3996970606675523
 10
-20.024353666697795
 20
1.334719068272846
 10
-20.136088892572605
 20
1.2698922700892177
 10
-20.245357217847005
 20
1.205157158401792
 10
-20.352235937790113
 20
1.1406460893060002
 10
-20.456665544687052
 20
1.0765003126743942
 10
-20.55871444002982
 20
1.0127153816184142
 10
-20.658305328549297
 20
0.9491589400426288
 10
-20.755511058626045
 20
0.8858949425504731
 10
-20.850194827276066
 20
0.8229322829190694
 10
-20.942502331260474
 20
0.7603988703552857
 10
-21.032301214483844
 20
0.6983720001282426
 10
-21.119650984661043
 20
0.6367104223653852
 10
-21.20455164179208
 20
0.5754141370667152
 10
-21.287003185876948
 20
0.514483144232231
 10
-21.36694610920077
 20
0.45405869373448615
 10
-21.444380411763554
 20
0.39414078557348026
 10
-21.51936115439161
 20
0.3345197683846655
 10
-21.59183327625863
 20
0.27540529353258936
 10
-21.661778989810355
 20
0.21652375504926985
 10
-21.72921608260104
 20
0.1581487589026892
 10
-21.79412676707645
 20
0.10000669912486428
 10
-21.856519937013687
 20
0.042234378699787314
 10
-21.916395592412762
 20
-0.01516820237254257
 10
-21.97368088489312
 20
-0.07226499869555966
 10
-22.02852151121587
 20
-0.12892810106239408
 10
-22.080698926239343
 20
-0.18534937328335022
 10
-22.130427228216647
 20
-0.24140535304012065
 10
-22.177565167275233
 20
-0.2971555480475779
 10
-22.22212608408078
 20
-0.3523947538297346
 10
-22.264169486348166
 20
-0.40726422025914405
 10
-22.303631419473952
 20
-0.4616910989552491
 10
-22.34052967101239
 20
-0.5154017839500662
 10
-22.374919301789777
 20
-0.5686059266081437
 10
-22.406740804091253
 20
-0.6211622770569294
 10
-22.436003071693943
 20
-0.6729340323124314
 10
-22.462723892152074
 20
-0.723647586406666
 10
-22.486903265465667
 20
-0.7733029393396337
 10
-22.508618486903824
 20
-0.8217677350159036
 10
-22.527754987925363
 20
-0.8686910721983743
 10
-22.544398957576526
 20
-0.9138037918076231
 10
-22.558663266234927
 20
-0.9564263258122534
 10
-22.570442239136483
 20
-0.9960709699911713
 10
-22.57987542799018
 20
-1.0316477473610048
 10
-22.587102384505
 20
-1.0620666809383812
 10
-22.592093031022397
 20
-1.0856772411382776
 10
-22.595026941248406
 20
-1.1007738375493588
 10
-22.56790650480246
 20
-1.538012263777508
 10
-22.566380085137922
 20
-1.5414162489866359
 10
-22.561805273032874
 20
-1.5515598031220237
 10
-22.55419985604156
 20
-1.5681693202156881
 10
-22.54341983556644
 20
-1.5924031787429973
 10
-22.529508629931733
 20
-1.6257067038129867
 10
-22.51262907585061
 20
-1.6645185709533106
 10
-22.492850625376473
 20
-1.7067138870235363
 10
-22.47036789104461
 20
-1.7514123264048407
 10
-22.445205856022806
 20
-1.7971730108767492
 10
-22.41733614081611
 20
-1.843375880122738
 10
-22.386917782851324
 20
-1.8896878204599505
 10
-22.3539001681907
 20
-1.9358307790318419
 10
-22.318301084388473
 20
-1.9815311498704284
 10
-22.280129425221773
 20
-2.026652129991719
 10
-22.239385190690598
 20
-2.0711937193957137
 10
-22.196141229175495
 20
-2.115091963478977
 10
-22.15033803296161
 20
-2.1582056123689566
 10
-22.101971155160367
 20
-2.2006030675576485
 10
-22.051113444152328
 20
-2.242220374441618
 10
-21.997687604668375
 20
-2.283189889116295
 10
-21.941698083597068
 20
-2.323443210089684
 10
-21.88329057769952
 20
-2.362852428154916
 10
-21.822246541834062
 20
-2.4016094071222946
 10
-21.758775627365242
 20
-2.4396590861655074
 10
-21.692736584420505
 20
-2.477060972999428
 10
-21.624202261380415
 20
-2.5137511130206223
 10
-21.553177105133525
 20
-2.5496611047370936
 10
-21.479647775014154
 20
-2.5849961526248295
 10
-21.40362316479943
 20
-2.619619453699839
 10
-21.325085486935098
 20
-2.653804613930105
 10
-21.244048082086845
 20
-2.68734642883964
 10
-21.160570457969555
 20
-2.720386148300997
 10
-21.07458421309122
 20
-2.752919325425615
 10
-20.986080453674724
 20
-2.785082763197485
 10
-20.895132028100615
 20
-2.8168125070131724
 10
-20.801734489480346
 20
-2.8481769583646734
 10
-20.705887837813908
 20
-2.8791761172519883
 10
-20.607510330943622
 20
-2.910010741262543
 10
-20.50674321874204
 20
-2.940621322681464
 10
-20.403454145113734
 20
-2.9709305662396335
 10
-20.2977799130427
 20
-3.0009473657141736
 10
-20.18964322725981
 20
-3.0308040772005143
 10
-20.079112489257067
 20
-3.060505147587217
 10
-19.966123744431037
 20
-3.089977728493725
 10
-19.850754288050833
 20
-3.1190894638246087
 10
-19.7329312717359
 20
-3.1479043081833007
 10
-19.612787051581673
 20
-3.17649955683892
 10
-19.490253226096147
 20
-3.204870762902906
 10
-19.365329795279333
 20
-3.2330179263752585
 10
-19.2380300997969
 20
-3.2607358427799897
 10
-19.10842254114086
 20
-3.2880289590056604
 10
-18.97643871781921
 20
-3.31489282816371
 10
-18.842138137546822
 20
-3.341468700126691
 10
-18.705520800323697
 20
-3.367756574894604
 10
-18.566604493704073
 20
-3.393482846499465
 10
-18.425448725402834
 20
-3.418788764813826
 10
-18.281989540816543
 20
-3.443601481457132
 10
-18.136222493056643
 20
-3.467989397921378
 10
-17.988215983615113
 20
-3.491956961095124
 10
-17.83797445938053
 20
-3.5154357694863756
 10
-17.68549347346433
 20
-3.5384942245871285
 10
-17.530773025866512
 20
-3.5611323263973813
 10
-17.373817563475633
 20
-3.5832816734251396
 10
-17.214691040895136
 20
-3.6050151140509605
 10
-17.053393458125015
 20
-3.6263326482748424
 10
-16.88986086056183
 20
-3.6471614277162305
 10
-16.724221157412458
 20
-3.6676471491362364
 10
-16.55641039407347
 20
-3.687716964154305
 10
-16.38642412365629
 20
-3.7074392742624314
 10
-16.21433519454149
 20
-3.7267501248571806
 10
-16.040156947394742
 20
-3.7454443114625655
 10
-15.863876041550366
 20
-3.7637270385545727
 10
-15.685415181739247
 20
-3.7817306622286346
 10
-15.504984019325933
 20
-3.7994001216584374
 10
-15.322454645103551
 20
-3.8165897200828676
 10
-15.137831505960662
 20
-3.8332310560099287
 10
-14.951242511104143
 20
-3.8494698262007354
 10
-14.762614812153426
 20
-3.865369985258722
 10
-14.571957302885643
 20
-3.880794730199897
 10
-14.379338384792783
 20
-3.895748507912821
 10
-14.184762504763412
 20
-3.9101629169054988
 10
-13.988216322131843
 20
-3.9242431616539175
 10
-13.789708730675201
 20
-3.9378524391740855
 10
-13.589230836616363
 20
-3.951127552449995
 10
-13.386932783605001
 20
-3.9638721907827805
 10
-13.182673321768567
 20
-3.9761458618873147
 10
-12.976520852599052
 20
-3.9879530126521594
 10
-12.768539330699895
 20
-3.9993664914578715
 10
-12.558669248356221
 20
-4.010245048431898
 10
-12.346970113282904
 20
-4.020729933446793
 10
-12.133514773860497
 20
-4.03075719189912
 10
-11.918175320882135
 20
-4.040181127027766
 10
-11.701088557331813
 20
-4.0490106326098525
 10
-11.482241142543836
 20
-4.057450913121367
 10
-11.261633076518217
 20
-4.065501968562311
 10
-11.039264359254947
 20
-4.073163798932683
 10
-10.815216732911708
 20
-4.080235646645057
 10
-10.589499091265623
 20
-4.0865807087154415
 10
-10.362025245270454
 20
-4.092468144223258
 10
-10.132931997910188
 20
-4.097906846945631
 10
-9.902159841469953
 20
-4.102755567010004
 10
-9.669786071218867
 20
-4.106881948320949
 10
-9.435797346491247
 20
-4.110491195354453
 10
-9.200253175001967
 20
-4.11372455798307
 10
-8.963094049036153
 20
-4.116440786334244
 10
-8.724333309259489
 20
-4.11843467593199
 10
-8.484098864878844
 20
-4.119851923537421
 10
-8.242386269005653
 20
-4.120760930642534
 10
-7.999058718655934
 20
-4.121152803470205
 10
-7.754325865194224
 20
-4.120972481194123
 10
-7.5081282009056585
 20
-4.1200787139417345
 10
-7.260465725790234
 20
-4.11847150171304
 10
-7.011402394451383
 20
-4.116223692888595
 10
-6.7609159724463055
 20
-4.11367729492838
 10
-6.5090882019326735
 20
-4.110631550244969
 10
-6.255868468972744
 20
-4.106808405981817
 10
-6.00125232667795
 20
-4.102276263630919
 10
-5.74537657803228
 20
-4.097044016969397
 10
-5.488155033989503
 20
-4.0913808250766746
 10
-5.2296649898187315
 20
-4.08515433185732
 10
-4.969906445519965
 20
-4.0783645373113355
 10
-4.708888294870327
 20
-4.070874638454727
 10
-4.446606090981259
 20
-4.062753036779491
 10
-4.183187743059627
 20
-4.054145429046742
 10
-3.9185053418985643
 20
-4.044906118495366
 10
-3.6527045842591805
 20
-4.034907195918493
 10
-3.385781023252915
 20
-4.024217062808117
 10
-3.1177302119912125
 20
-4.012904120656237
 10
-2.84848819587063
 20
-4.000895521082295
 10
-2.57826907314429
 20
-3.988067801767983
 10
-2.3070088892087415
 20
-3.974348114332743
 10
-2.034612561240631
 20
-3.9601424208399894
 10
-1.7612213391125116
 20
-3.9453912135748483
 10
-1.4869303056477436
 20
-3.9296885304739066
 10
-1.2115893171966559
 20
-3.913230682236029
 10
-0.9352623283626772
 20
-3.896090517241772
 10
-0.6580950359069256
 20
-3.8781401262842667
 10
-0.37995508373396697
 20
-3.859302214094396
 10
-0.10097927482779645
 20
-3.83958567444928
 10
0.178918579857828
 20
-3.819259666428342
 10
0.4596611850537831
 20
-3.798191833936152
 10
0.7411579048252797
 20
-3.7760446164012906
 10
1.0234904813299812
 20
-3.7530187714111856
 10
1.3066083006301517
 20
-3.7293923518223804
 10
1.5904296339087658
 20
-3.7049648052519255
 10
1.8750191561652136
 20
-3.6796743643609657
 10
2.1603177687983606
 20
-3.653668571959319
 10
2.446307697594635
 20
-3.6266740272834777
 10
2.732988951447813
 20
-3.5986908671364244
 10
3.0203109164201396
 20
-3.569997144374706
 10
3.3082096556957348
 20
-3.5406659809848455
 10
3.596749128324927
 20
-3.510624596987779
 10
3.885847596596918
 20
-3.4796723031975714
 10
4.175513958735729
 20
-3.4479459709997053
 10
4.465748232528904
 20
-3.415445874000152
 10
4.756482012037566
 20
-3.382176390685977
 10
5.047701969936689
 20
-3.3479325217856712
 10
5.3394170000034
 20
-3.312851070283225
 10
5.631508086807957
 20
-3.277214535923745
 10
5.924107604233332
 20
-3.2409458970440794
 10
6.217065404182977
 20
-3.203848774543873
 10
6.510454343931216
 20
-3.1659872598295427
 10
6.804137620494055
 20
-3.1273702466782116
 10
7.098188086698949
 20
-3.0880617580948067
 10
7.392601300104219
 20
-3.0479934609888235
 10
7.6872449046144355
 20
-3.00724265062938
 10
7.982196195498717
 20
-2.965941683111908
 10
8.277450739209169
 20
-2.9240223621488863
 10
8.572867272532571
 20
-2.8814249748209657
 10
8.868518652743255
 20
-2.8382136125345645
 10
9.164345372126352
 20
-2.7945295251622366
 10
9.460398049066505
 20
-2.7500947282489285
 10
9.756548765463057
 20
-2.70505478175277
 10
10.052806415093139
 20
-2.6595464886577536
 10
10.349166555515074
 20
-2.6135015158733745
 10
10.645620292951744
 20
-2.5667830604156427
 10
10.942176525627154
 20
-2.51952799367004
 10
11.238707322099993
 20
-2.4718816703902218
 10
11.535272198978916
 20
-2.4237029775066175
 10
11.831816095437611
 20
-2.375201566383777
 10
12.12832566191661
 20
-2.3261720957427285
 10
12.424796455974246
 20
-2.276546232492968
 10
12.721237371387641
 20
-2.2264607796184883
 10
13.01752491915715
 20
-2.1761294249634457
 10
13.313727514115447
 20
-2.1255479268437547
 10
13.609763405211062
 20
-2.0745153908690073
 10
13.905637030438786
 20
-2.0231000817282125
 10
14.201348394245503
 20
-1.9713020678228648
 10
14.496901934626004
 20
-1.9191896138419737
 10
14.79215637947329
 20
-1.8667028700632076
 10
15.087184590508585
 20
-1.8139059962944752
 10
15.381922586447105
 20
-1.7608714305073843
 10
15.676447684792445
 20
-1.7077318708048228
 10
15.970605254984346
 20
-1.6542219893825034
 10
16.264399748358265
 20
-1.600410256133912
 10
16.55792180084901
 20
-1.5466342316304682
 10
16.85100790590677
 20
-1.4924920586898585
 10
17.14365360330232
 20
-1.4379151306156115
 10
17.435953989199692
 20
-1.383309614675617
 10
17.727781118816903
 20
-1.3288206604190533
 10
18.019176721208364
 20
-1.2740335488083667
 10
18.31007682398308
 20
-1.2190208546181478
 10
18.600412998967737
 20
-1.1637866143280053
 10
18.890262554772104
 20
-1.108463389237846
 10
19.17956151455831
 20
-1.053123685720766
 10
19.468314311874256
 20
-0.9978357000642855
 10
19.756443638110138
 20
-0.9424668709684987
 10
20.0439405817013
 20
-0.8868801218434447
 10
20.33081847886654
 20
-0.8312805887636194
 10
20.617077325158945
 20
-0.7756682033275321
 10
20.902584715567336
 20
-0.7201195083878864
 10
21.187477484203907
 20
-0.6646260889780068
 10
21.471605442950104
 20
-0.6089909503841057
 10
21.75497302980071
 20
-0.5532823572951966
 10
22.03760246141098
 20
-0.49784204356529
 10
22.31948929533924
 20
-0.4426016761038815
 10
22.600487777014816
 20
-0.38743245648470703
 10
22.8807391874385
 20
-0.3323943712330825
 10
23.160102227821945
 20
-0.277427160217724
 10
23.438645308550925
 20
-0.222526513353054
 10
23.71630889078237
 20
-0.16783320170118007
 10
23.993024541896038
 20
-0.11335119334022083
 10
24.268869570501728
 20
-0.059213049570081965
 10
24.5436937751402
 20
-0.005221570472502897
 10
24.817633989923674
 20
0.04863165891919528
 10
25.090548916063828
 20
0.10240689873629769
 10
25.362465212657572
 20
0.15569408203428936
 10
25.633314451531596
 20
0.2084891723335618
 10
25.903206785466736
 20
0.26121099355276733
 10
26.17193248305445
 20
0.3139158377450749
 10
26.43966395351544
 20
0.36606490794119667
 10
26.706259893614476
 20
0.41771853267390857
 10
26.971702493562898
 20
0.4691506599186557
 10
27.2359917444669
 20
0.5203614264784205
 10
27.499132079874414
 20
0.5712826360656849
 10
27.761145725334423
 20
0.6215724180234513
 10
28.021886912935628
 20
0.6713597759824635
 10
28.281479149465213
 20
0.7208581241809098
 10
28.539785560788975
 20
0.770059663265541
 10
28.79681502734336
 20
0.8188277954568404
 10
29.05257643401172
 20
0.8670258545738008
 10
29.307060869229385
 20
0.9147909172063818
 10
29.560199887035452
 20
0.9621192204809418
 10
29.812070800486612
 20
1.0088781346960831
 10
30.06253673544866
 20
1.0550598604985553
 10
30.311652770535446
 20
1.1008737756469382
 10
30.559282022718996
 20
1.1463122175909666
 10
30.80563866584952
 20
1.1912505611869675
 10
31.050457854329508
 20
1.2355362679414648
 10
31.293876440058717
 20
1.2791774792151693
 10
31.535889958361032
 20
1.322242870106044
 10
31.77635264132512
 20
1.3648614442448301
 10
32.015268913605105
 20
1.4069651421469935
 10
32.25278006954244
 20
1.448493772082739
 10
32.48868525371812
 20
1.4893670967272117
 10
32.723061770295054
 20
1.5294526231819972
 10
32.95582783264668
 20
1.5689517930494417
 10
33.1870474087171
 20
1.6079372495056263
 10
33.41665649943399
 20
1.6463368281849138
 10
33.64465508700978
 20
1.6841508026932728
 10
33.87098806170243
 20
1.7211702740825658
 10
34.09571050657264
 20
1.7576045517098824
 10
34.31868998103412
 20
1.7933776399344519
 10
34.53998600614242
 20
1.8286305834243508
 10
34.75961191366943
 20
1.863158314506576
 10
34.97750369564908
 20
1.896888805618475
 10
35.193647993628076
 20
1.9300275348420015
 10
35.40804479426582
 20
1.9625747073816338
 10
35.62069407977471
 20
1.9945305968433387
 10
35.8314678609039
 20
2.0257507376928583
 10
36.04051188333028
 20
2.0561064683069112
 10
36.247735462203266
 20
2.0859361016733278
 10
36.453074594003645
 20
2.115167541827962
 10
36.6565976935641
 20
2.143805030454901
 10
36.858245204253976
 20
2.1717080700980023
 10
37.057944228776925
 20
2.1989413677771124
 10
37.255827176591055
 20
2.225581397943446
 10
37.451770496440275
 20
2.2514154303737333
 10
37.64576528120681
 20
2.2765804732564425
 10
37.837815964438555
 20
2.301008330304053
 10
38.02790918323538
 20
2.3249045480000134
 10
38.21605381803373
 20
2.348132528564806
 10
38.40218141397897
 20
2.370688645927775
 10
38.58629640461898
 20
2.392504703801401
 10
38.76846276679163
 20
2.4136532085587796
 10
38.94853916168661
 20
2.4341950359446254
 10
39.126525567069486
 20
2.4541305279663983
 10
39.30249485800213
 20
2.473395319611711
 10
39.476451485819986
 20
2.491920940987076
 10
39.64824531132028
 20
2.5099036343898677
 10
39.81794435356258
 20
2.5273537292369563
 10
39.98556238456078
 20
2.544059386107633
 10
40.15102634248367
 20
2.560087842876948
 10
40.314327324660326
 20
2.5755760393318754
 10
40.47554264859432
 20
2.5903912773695263
 10
40.63453986480558
 20
2.6044576981521144
 10
40.79137850324341
 20
2.6179162095447315
 10
40.94605410367858
 20
2.630835418243851
 10
41.098498215703295
 20
2.6432116297773214
 10
41.248719719754064
 20
2.6549082463656295
 10
41.39671414670785
 20
2.66599401150823
 10
41.54247259389374
 20
2.6766058649920974
 10
41.6859994904128
 20
2.686675678931207
 10
41.827235284081205
 20
2.6960628874679227
 10
41.96617995266457
 20
2.7047678326097078
 10
42.10288414122879
 20
2.7130680884026583
 10
42.23728383736095
 20
2.720891695685616
 10
42.36937903661415
 20
2.728238722860075
 10
42.49917416364247
 20
2.735041110441496
 10
42.62660077248505
 20
2.741295095556237
 10
42.75172728242146
 20
2.7470048514868957
 10
42.874476358160564
 20
2.7523033499423266
 10
42.99485687124505
 20
2.7570541299460007
 10
43.112859919004
 20
2.761394131284891
 10
43.22856282338789
 20
2.765190587454618
 10
43.34181979869781
 20
2.768572775691888
 10
43.45269482621855
 20
2.7716131339683074
 10
43.56112390243088
 20
2.774239566319732
 10
43.667179902396704
 20
2.776387707733774
 10
43.77078544635602
 20
2.7781912139342135
 10
43.872017834024824
 20
2.7795176604241245
 10
43.970727112969655
 20
2.7805604166382203
 10
44.067054248462206
 20
2.781264352557113
 10
44.16086248198734
 20
2.78161989038876
 10
44.25222024171842
 20
2.781631066612772
 10
44.341127518761674
 20
2.7812980180321327
 10
44.42757985288783
 20
2.780689351343313
 10
44.511513249471484
 20
2.7797328337791836
 10
44.592918796947984
 20
2.7785655419297064
 10
44.671869383719844
 20
2.777122905578017
 10
44.74829210359697
 20
2.7754697685469463
 10
44.82219139902102
 20
2.7735377977459894
 10
44.893562818656584
 20
2.771395463068637
 10
44.96241079605151
 20
2.7689745682273657
 10
45.028730879870395
 20
2.766343583115667
 10
45.09251417188919
 20
2.7636393791190215
 10
45.15370111103037
 20
2.7607215271827816
 10
45.21242413343337
 20
2.75766609134921
 10
45.26847345432699
 20
2.7545301844893793
 10
45.32205884514173
 20
2.751256898936691
 10
45.37304341395587
 20
2.747838708943864
 10
45.42141826254539
 20
2.7444124858963828
 10
45.46725627486592
 20
2.740913727978876
 10
45.51048900050974
 20
2.7373387407191947
 10
45.55110754569971
 20
2.7338243271013303
 10
45.58918923683316
 20
2.7302376522194076
 10
45.62465673861899
 20
2.726711687782287
 10
45.65751448905195
 20
2.7231781691009544
 10
45.687753594354966
 20
2.719773899159404
 10
45.71537850141655
 20
2.716430476465637
 10
45.7404531959684
 20
2.713220270589769
 10
45.76284079053561
 20
2.7101356873830245
 10
45.782605284190524
 20
2.70724889121104
 10
45.799815114000225
 20
2.7045637817504424
 10
45.814333392489864
 20
2.7020727648524554
 10
45.826219662949406
 20
2.699916543177698
 10
45.83554682712206
 20
2.698030341304828
 10
45.842169085968294
 20
2.6965436416750355
 10
45.84615045190109
 20
2.6955284034494778
 10
45.847482017802655
 20
2.695121634816624
  0
ENDSEC
  0
SECTION
  2
OBJECTS
  0
DICTIONARY
  5
A
330
0
100
AcDbDictionary
280
0
281
1
  3
ACAD_COLOR
350
B
  3
ACAD_GROUP
350
C
  3
ACAD_LAYOUT
350
D
  3
ACAD_MATERIAL
350
E
  3
ACAD_MLEADERSTYLE
350
F
  3
ACAD_MLINESTYLE
350
10
  3
ACAD_PLOTSETTINGS
350
11
  3
ACAD_PLOTSTYLENAME
350
12
  3
ACAD_SCALELIST
350
14
  3
ACAD_TABLESTYLE
350
15
  3
ACAD_VISUALSTYLE
350
16
  3
EZDXF_META
350
2D
  0
DICTIONARY
  5
B
330
A
100
AcDbDictionary
280
0
281
1
  0
DICTIONARY
  5
C
330
A
100
AcDbDictionary
280
0
281
1
  0
DICTIONARY
  5
D
330
A
100
AcDbDictionary
280
0
281
1
  3
Model
350
1A
  3
Layout1
350
1E
  0
DICTIONARY
  5
E
330
A
100
AcDbDictionary
280
0
281
1
  3
ByBlock
350
1F
  3
ByLayer
350
20
  3
Global
350
21
  0
DICTIONARY
  5
F
330
A
100
AcDbDictionary
280
0
281
1
  3
Standard
350
2C
  0
DICTIONARY
  5
10
330
A
100
AcDbDictionary
280
0
281
1
  3
Standard
350
22
  0
DICTIONARY
  5
11
330
A
100
AcDbDictionary
280
0
281
1
  0
ACDBDICTIONARYWDFLT
  5
12
330
A
100
AcDbDictionary
280
0
281
1
  3
Normal
350
13
100
AcDbDictionaryWithDefault
340
13
  0
ACDBPLACEHOLDER
  5
13
330
12
  0
DICTIONARY
  5
14
330
A
100
AcDbDictionary
280
0
281
1
  0
DICTIONARY
  5
15
330
A
100
AcDbDictionary
280
0
281
1
  0
DICTIONARY
  5
16
330
A
100
AcDbDictionary
280
0
281
1
  0
LAYOUT
  5
1A
330
D
100
AcDbPlotSettings
  1

  4
A3
  6

 40
7.5
 41
20.0
 42
7.5
 43
20.0
 44
420.0
 45
297.0
 46
0.0
 47
0.0
 48
0.0
 49
0.0
140
0.0
141
0.0
142
1.0
143
1.0
 70
1024
 72
1
 73
0
 74
5
  7

 75
16
 76
0
 77
2
 78
300
147
1.0
148
0.0
149
0.0
100
AcDbLayout
  1
Model
 70
1
 71
0
 10
0.0
 20
0.0
 11
420.0
 21
297.0
 12
0.0
 22
0.0
 32
0.0
 14
1e+20
 24
1e+20
 34
1e+20
 15
-1e+20
 25
-1e+20
 35
-1e+20
146
0.0
 13
0.0
 23
0.0
 33
0.0
 16
1.0
 26
0.0
 36
0.0
 17
0.0
 27
1.0
 37
0.0
 76
1
330
17
  0
LAYOUT
  5
1E
330
D
100
AcDbPlotSettings
  1

  4
A3
  6

 40
7.5
 41
20.0
 42
7.5
 43
20.0
 44
420.0
 45
297.0
 46
0.0
 47
0.0
 48
0.0
 49
0.0
140
0.0
141
0.0
142
1.0
143
1.0
 70
0
 72
1
 73
0
 74
5
  7

 75
16
 76
0
 77
2
 78
300
147
1.0
148
0.0
149
0.0
100
AcDbLayout
  1
Layout1
 70
1
 71
1
 10
0.0
 20
0.0
 11
420.0
 21
297.0
 12
0.0
 22
0.0
 32
0.0
 14
1e+20
 24
1e+20
 34
1e+20
 15
-1e+20
 25
-1e+20
 35
-1e+20
146
0.0
 13
0.0
 23
0.0
 33
0.0
 16
1.0
 26
0.0
 36
0.0
 17
0.0
 27
1.0
 37
0.0
 76
1
330
1B
  0
MATERIAL
  5
1F
102
{ACAD_REACTORS
330
E
102
}
330
E
100
AcDbMaterial
  1
ByBlock
  2

 70
0
 40
1.0
 71
1
 41
1.0
 91
-1023410177
 42
1.0
 72
1
  3

 73
1
 74
1
 75
1
 44
0.5
 73
0
 45
1.0
 46
1.0
 77
1
  4

 78
1
 79
1
170
1
 48
1.0
171
1
  6

172
1
173
1
174
1
140
1.0
141
1.0
175
1
  7

176
1
177
1
178
1
143
1.0
179
1
  8

270
1
271
1
272
1
145
1.0
146
1.0
273
1
  9

274
1
275
1
276
1
 42
1.0
 72
1
  3

 73
1
 74
1
 75
1
 94
63
  0
MATERIAL
  5
20
102
{ACAD_REACTORS
330
E
102
}
330
E
100
AcDbMaterial
  1
ByLayer
  2

 70
0
 40
1.0
 71
1
 41
1.0
 91
-1023410177
 42
1.0
 72
1
  3

 73
1
 74
1
 75
1
 44
0.5
 73
0
 45
1.0
 46
1.0
 77
1
  4

 78
1
 79
1
170
1
 48
1.0
171
1
  6

172
1
173
1
174
1
140
1.0
141
1.0
175
1
  7

176
1
177
1
178
1
143
1.0
179
1
  8

270
1
271
1
272
1
145
1.0
146
1.0
273
1
  9

274
1
275
1
276
1
 42
1.0
 72
1
  3

 73
1
 74
1
 75
1
 94
63
  0
MATERIAL
  5
21
102
{ACAD_REACTORS
330
E
102
}
330
E
100
AcDbMaterial
  1
Global
  2

 70
0
 40
1.0
 71
1
 41
1.0
 91
-1023410177
 42
1.0
 72
1
  3

 73
1
 74
1
 75
1
 44
0.5
 73
0
 45
1.0
 46
1.0
 77
1
  4

 78
1
 79
1
170
1
 48
1.0
171
1
  6

172
1
173
1
174
1
140
1.0
141
1.0
175
1
  7

176
1
177
1
178
1
143
1.0
179
1
  8

270
1
271
1
272
1
145
1.0
146
1.0
273
1
  9

274
1
275
1
276
1
 42
1.0
 72
1
  3

 73
1
 74
1
 75
1
 94
63
  0
MLINESTYLE
  5
22
102
{ACAD_REACTORS
330
10
102
}
330
10
100
AcDbMlineStyle
  2
Standard
 70
0
  3

 62
256
 51
90.0
 52
90.0
 71
2
 49
0.5
 62
256
  6
BYLAYER
 49
-0.5
 62
256
  6
BYLAYER
  0
MLEADERSTYLE
  5
2C
102
{ACAD_REACTORS
330
F
102
}
330
F
100
AcDbMLeaderStyle
179
2
170
2
171
1
172
0
 90
2
 40
0.0
 41
0.0
173
1
 91
-1056964608
 92
-2
290
1
 42
2.0
291
1
 43
8.0
  3
Standard
 44
4.0
300

342
29
174
1
175
1
176
0
178
1
 93
-1056964608
 45
4.0
292
0
297
0
 46
4.0
 94
-1056964608
 47
1.0
 49
1.0
140
1.0
294
1
141
0.0
177
0
142
1.0
295
0
296
0
143
3.75
271
0
272
9
273
9
  0
DICTIONARY
  5
2D
330
A
100
AcDbDictionary
280
1
281
1
  3
CREATED_BY_EZDXF
350
2E
  3
WRITTEN_BY_EZDXF
350
32
  0
DICTIONARYVAR
  5
2E
330
2D
100
DictionaryVariables
280
0
  1
1.3.5 @ 2025-08-20T01:58:58.800477+00:00
  0
DICTIONARYVAR
  5
32
330
2D
100
DictionaryVariables
280
0
  1
1.3.5 @ 2025-08-20T01:58:58.800477+00:00
  0
ENDSEC
  0
EOF
