  0
SECTION
  2
HEADER
  9
$ACADVER
  1
AC1032
  9
$ACADMAINTVER
 90
4
  9
$DWGCODEPAGE
  3
ANSI_1252
  9
$LASTSAVEDBY
  1
ezdxf
  9
$REQUIREDVERSIONS
160
0
  9
$INSBASE
 10
0.0
 20
0.0
 30
0.0
  9
$EXTMIN
 10
1e+20
 20
1e+20
 30
1e+20
  9
$EXTMAX
 10
-1e+20
 20
-1e+20
 30
-1e+20
  9
$LIMMIN
 10
0.0
 20
0.0
  9
$LIMMAX
 10
420.0
 20
297.0
  9
$ORTHOMODE
 70
0
  9
$REGENMODE
 70
1
  9
$FILLMODE
 70
1
  9
$QTEXTMODE
 70
0
  9
$MIRRTEXT
 70
1
  9
$LTSCALE
 40
1.0
  9
$ATTMODE
 70
1
  9
$TEXTSIZE
 40
2.5
  9
$TRACEWID
 40
1.0
  9
$TEXTSTYLE
  7
Standard
  9
$CLAYER
  8
0
  9
$CELTYPE
  6
ByLayer
  9
$CECOLOR
 62
256
  9
$CELTSCALE
 40
1.0
  9
$DISPSILH
 70
0
  9
$DIMSCALE
 40
1.0
  9
$DIMASZ
 40
2.5
  9
$DIMEXO
 40
0.625
  9
$DIMDLI
 40
3.75
  9
$DIMRND
 40
0.0
  9
$DIMDLE
 40
0.0
  9
$DIMEXE
 40
1.25
  9
$DIMTP
 40
0.0
  9
$DIMTM
 40
0.0
  9
$DIMTXT
 40
2.5
  9
$DIMCEN
 40
2.5
  9
$DIMTSZ
 40
0.0
  9
$DIMTOL
 70
0
  9
$DIMLIM
 70
0
  9
$DIMTIH
 70
0
  9
$DIMTOH
 70
0
  9
$DIMSE1
 70
0
  9
$DIMSE2
 70
0
  9
$DIMTAD
 70
1
  9
$DIMZIN
 70
8
  9
$DIMBLK
  1

  9
$DIMASO
 70
1
  9
$DIMSHO
 70
1
  9
$DIMPOST
  1

  9
$DIMAPOST
  1

  9
$DIMALT
 70
0
  9
$DIMALTD
 70
3
  9
$DIMALTF
 40
0.03937007874
  9
$DIMLFAC
 40
1.0
  9
$DIMTOFL
 70
1
  9
$DIMTVP
 40
0.0
  9
$DIMTIX
 70
0
  9
$DIMSOXD
 70
0
  9
$DIMSAH
 70
0
  9
$DIMBLK1
  1

  9
$DIMBLK2
  1

  9
$DIMSTYLE
  2
ISO-25
  9
$DIMCLRD
 70
0
  9
$DIMCLRE
 70
0
  9
$DIMCLRT
 70
0
  9
$DIMTFAC
 40
1.0
  9
$DIMGAP
 40
0.625
  9
$DIMJUST
 70
0
  9
$DIMSD1
 70
0
  9
$DIMSD2
 70
0
  9
$DIMTOLJ
 70
0
  9
$DIMTZIN
 70
8
  9
$DIMALTZ
 70
0
  9
$DIMALTTZ
 70
0
  9
$DIMUPT
 70
0
  9
$DIMDEC
 70
2
  9
$DIMTDEC
 70
2
  9
$DIMALTU
 70
2
  9
$DIMALTTD
 70
3
  9
$DIMTXSTY
  7
Standard
  9
$DIMAUNIT
 70
0
  9
$DIMADEC
 70
0
  9
$DIMALTRND
 40
0.0
  9
$DIMAZIN
 70
0
  9
$DIMDSEP
 70
44
  9
$DIMATFIT
 70
3
  9
$DIMFRAC
 70
0
  9
$DIMLDRBLK
  1

  9
$DIMLUNIT
 70
2
  9
$DIMLWD
 70
-2
  9
$DIMLWE
 70
-2
  9
$DIMTMOVE
 70
0
  9
$DIMFXL
 40
1.0
  9
$DIMFXLON
 70
0
  9
$DIMJOGANG
 40
0.785398163397
  9
$DIMTFILL
 70
0
  9
$DIMTFILLCLR
 70
0
  9
$DIMARCSYM
 70
0
  9
$DIMLTYPE
  6

  9
$DIMLTEX1
  6

  9
$DIMLTEX2
  6

  9
$DIMTXTDIRECTION
 70
0
  9
$LUNITS
 70
2
  9
$LUPREC
 70
4
  9
$SKETCHINC
 40
1.0
  9
$FILLETRAD
 40
10.0
  9
$AUNITS
 70
0
  9
$AUPREC
 70
2
  9
$MENU
  1
.
  9
$ELEVATION
 40
0.0
  9
$PELEVATION
 40
0.0
  9
$THICKNESS
 40
0.0
  9
$LIMCHECK
 70
0
  9
$CHAMFERA
 40
0.0
  9
$CHAMFERB
 40
0.0
  9
$CHAMFERC
 40
0.0
  9
$CHAMFERD
 40
0.0
  9
$SKPOLY
 70
0
  9
$TDCREATE
 40
2460908.103113426
  9
$TDUCREATE
 40
2458532.153996898
  9
$TDUPDATE
 40
2460908.103113426
  9
$TDUUPDATE
 40
2458532.1544311
  9
$TDINDWG
 40
0.0
  9
$TDUSRTIMER
 40
0.0
  9
$USRTIMER
 70
1
  9
$ANGBASE
 50
0.0
  9
$ANGDIR
 70
0
  9
$PDMODE
 70
0
  9
$PDSIZE
 40
0.0
  9
$PLINEWID
 40
0.0
  9
$SPLFRAME
 70
0
  9
$SPLINETYPE
 70
6
  9
$SPLINESEGS
 70
8
  9
$HANDSEED
  5
33
  9
$SURFTAB1
 70
6
  9
$SURFTAB2
 70
6
  9
$SURFTYPE
 70
6
  9
$SURFU
 70
6
  9
$SURFV
 70
6
  9
$UCSBASE
  2

  9
$UCSNAME
  2

  9
$UCSORG
 10
0.0
 20
0.0
 30
0.0
  9
$UCSXDIR
 10
1.0
 20
0.0
 30
0.0
  9
$UCSYDIR
 10
0.0
 20
1.0
 30
0.0
  9
$UCSORTHOREF
  2

  9
$UCSORTHOVIEW
 70
0
  9
$UCSORGTOP
 10
0.0
 20
0.0
 30
0.0
  9
$UCSORGBOTTOM
 10
0.0
 20
0.0
 30
0.0
  9
$UCSORGLEFT
 10
0.0
 20
0.0
 30
0.0
  9
$UCSORGRIGHT
 10
0.0
 20
0.0
 30
0.0
  9
$UCSORGFRONT
 10
0.0
 20
0.0
 30
0.0
  9
$UCSORGBACK
 10
0.0
 20
0.0
 30
0.0
  9
$PUCSBASE
  2

  9
$PUCSNAME
  2

  9
$PUCSORG
 10
0.0
 20
0.0
 30
0.0
  9
$PUCSXDIR
 10
1.0
 20
0.0
 30
0.0
  9
$PUCSYDIR
 10
0.0
 20
1.0
 30
0.0
  9
$PUCSORTHOREF
  2

  9
$PUCSORTHOVIEW
 70
0
  9
$PUCSORGTOP
 10
0.0
 20
0.0
 30
0.0
  9
$PUCSORGBOTTOM
 10
0.0
 20
0.0
 30
0.0
  9
$PUCSORGLEFT
 10
0.0
 20
0.0
 30
0.0
  9
$PUCSORGRIGHT
 10
0.0
 20
0.0
 30
0.0
  9
$PUCSORGFRONT
 10
0.0
 20
0.0
 30
0.0
  9
$PUCSORGBACK
 10
0.0
 20
0.0
 30
0.0
  9
$USERI1
 70
0
  9
$USERI2
 70
0
  9
$USERI3
 70
0
  9
$USERI4
 70
0
  9
$USERI5
 70
0
  9
$USERR1
 40
0.0
  9
$USERR2
 40
0.0
  9
$USERR3
 40
0.0
  9
$USERR4
 40
0.0
  9
$USERR5
 40
0.0
  9
$WORLDVIEW
 70
1
  9
$SHADEDGE
 70
3
  9
$SHADEDIF
 70
70
  9
$TILEMODE
 70
1
  9
$MAXACTVP
 70
64
  9
$PINSBASE
 10
0.0
 20
0.0
 30
0.0
  9
$PLIMCHECK
 70
0
  9
$PEXTMIN
 10
1e+20
 20
1e+20
 30
1e+20
  9
$PEXTMAX
 10
-1e+20
 20
-1e+20
 30
-1e+20
  9
$PLIMMIN
 10
0.0
 20
0.0
  9
$PLIMMAX
 10
420.0
 20
297.0
  9
$UNITMODE
 70
0
  9
$VISRETAIN
 70
1
  9
$PLINEGEN
 70
0
  9
$PSLTSCALE
 70
1
  9
$TREEDEPTH
 70
3020
  9
$CMLSTYLE
  2
Standard
  9
$CMLJUST
 70
0
  9
$CMLSCALE
 40
20.0
  9
$PROXYGRAPHICS
 70
1
  9
$MEASUREMENT
 70
1
  9
$CELWEIGHT
370
-1
  9
$ENDCAPS
280
0
  9
$JOINSTYLE
280
0
  9
$LWDISPLAY
290
0
  9
$INSUNITS
 70
6
  9
$HYPERLINKBASE
  1

  9
$STYLESHEET
  1

  9
$XEDIT
290
1
  9
$CEPSNTYPE
380
0
  9
$PSTYLEMODE
290
1
  9
$FINGERPRINTGUID
  2
{26938445-A9D5-4169-90C8-D612785FDC23}
  9
$VERSIONGUID
  2
{EBDFD12E-C293-4E70-A464-89DFC7D1623D}
  9
$EXTNAMES
290
1
  9
$PSVPSCALE
 40
0.0
  9
$OLESTARTUP
290
0
  9
$SORTENTS
280
127
  9
$INDEXCTL
280
0
  9
$HIDETEXT
280
1
  9
$XCLIPFRAME
280
1
  9
$HALOGAP
280
0
  9
$OBSCOLOR
 70
257
  9
$OBSLTYPE
280
0
  9
$INTERSECTIONDISPLAY
280
0
  9
$INTERSECTIONCOLOR
 70
257
  9
$DIMASSOC
280
2
  9
$PROJECTNAME
  1

  9
$CAMERADISPLAY
290
0
  9
$LENSLENGTH
 40
50.0
  9
$CAMERAHEIGHT
 40
0.0
  9
$STEPSPERSEC
 40
24.0
  9
$STEPSIZE
 40
100.0
  9
$3DDWFPREC
 40
2.0
  9
$PSOLWIDTH
 40
0.005
  9
$PSOLHEIGHT
 40
0.08
  9
$LOFTANG1
 40
1.570796326795
  9
$LOFTANG2
 40
1.570796326795
  9
$LOFTMAG1
 40
0.0
  9
$LOFTMAG2
 40
0.0
  9
$LOFTPARAM
 70
7
  9
$LOFTNORMALS
280
1
  9
$LATITUDE
 40
37.795
  9
$LONGITUDE
 40
-122.394
  9
$NORTHDIRECTION
 40
0.0
  9
$TIMEZONE
 70
-8000
  9
$LIGHTGLYPHDISPLAY
280
1
  9
$TILEMODELIGHTSYNCH
280
1
  9
$CMATERIAL
347
20
  9
$SOLIDHIST
280
0
  9
$SHOWHIST
280
1
  9
$DWFFRAME
280
2
  9
$DGNFRAME
280
2
  9
$REALWORLDSCALE
290
1
  9
$INTERFERECOLOR
 62
256
  9
$CSHADOW
280
0
  9
$SHADOWPLANELOCATION
 40
0.0
  0
ENDSEC
  0
SECTION
  2
CLASSES
  0
CLASS
  1
ACDBDICTIONARYWDFLT
  2
AcDbDictionaryWithDefault
  3
ObjectDBX Classes
 90
0
 91
0
280
0
281
0
  0
CLASS
  1
SUN
  2
AcDbSun
  3
SCENEOE
 90
1153
 91
0
280
0
281
0
  0
CLASS
  1
VISUALSTYLE
  2
AcDbVisualStyle
  3
ObjectDBX Classes
 90
4095
 91
0
280
0
281
0
  0
CLASS
  1
MATERIAL
  2
AcDbMaterial
  3
ObjectDBX Classes
 90
1153
 91
0
280
0
281
0
  0
CLASS
  1
SCALE
  2
AcDbScale
  3
ObjectDBX Classes
 90
1153
 91
0
280
0
281
0
  0
CLASS
  1
TABLESTYLE
  2
AcDbTableStyle
  3
ObjectDBX Classes
 90
4095
 91
0
280
0
281
0
  0
CLASS
  1
MLEADERSTYLE
  2
AcDbMLeaderStyle
  3
ACDB_MLEADERSTYLE_CLASS
 90
4095
 91
0
280
0
281
0
  0
CLASS
  1
DICTIONARYVAR
  2
AcDbDictionaryVar
  3
ObjectDBX Classes
 90
0
 91
0
280
0
281
0
  0
CLASS
  1
CELLSTYLEMAP
  2
AcDbCellStyleMap
  3
ObjectDBX Classes
 90
1152
 91
0
280
0
281
0
  0
CLASS
  1
MENTALRAYRENDERSETTINGS
  2
AcDbMentalRayRenderSettings
  3
SCENEOE
 90
1024
 91
0
280
0
281
0
  0
CLASS
  1
ACDBDETAILVIEWSTYLE
  2
AcDbDetailViewStyle
  3
ObjectDBX Classes
 90
1025
 91
0
280
0
281
0
  0
CLASS
  1
ACDBSECTIONVIEWSTYLE
  2
AcDbSectionViewStyle
  3
ObjectDBX Classes
 90
1025
 91
0
280
0
281
0
  0
CLASS
  1
RASTERVARIABLES
  2
AcDbRasterVariables
  3
ISM
 90
0
 91
0
280
0
281
0
  0
CLASS
  1
LAYOUT
  2
AcDbLayout
  3
ObjectDBX Classes
 90
0
 91
0
280
0
281
0
  0
CLASS
  1
ACDBPLACEHOLDER
  2
AcDbPlaceHolder
  3
ObjectDBX Classes
 90
0
 91
0
280
0
281
0
  0
ENDSEC
  0
SECTION
  2
TABLES
  0
TABLE
  2
VPORT
  5
8
330
0
100
AcDbSymbolTable
 70
1
  0
VPORT
  5
23
330
8
100
AcDbSymbolTableRecord
100
AcDbViewportTableRecord
  2
*Active
 70
0
 10
0.0
 20
0.0
 11
1.0
 21
1.0
 12
0.0
 22
0.0
 13
0.0
 23
0.0
 14
0.5
 24
0.5
 15
0.5
 25
0.5
 16
0.0
 26
0.0
 36
1.0
 17
0.0
 27
0.0
 37
0.0
 40
1000.0
 41
1.34
 42
50.0
 43
0.0
 44
0.0
 50
0.0
 51
0.0
 71
0
 72
1000
 73
1
 74
3
 75
0
 76
0
 77
0
 78
0
281
0
 65
0
146
0.0
  0
ENDTAB
  0
TABLE
  2
LTYPE
  5
2
330
0
100
AcDbSymbolTable
 70
3
  0
LTYPE
  5
24
330
2
100
AcDbSymbolTableRecord
100
AcDbLinetypeTableRecord
  2
ByBlock
 70
0
  3

 72
65
 73
0
 40
0.0
  0
LTYPE
  5
25
330
2
100
AcDbSymbolTableRecord
100
AcDbLinetypeTableRecord
  2
ByLayer
 70
0
  3

 72
65
 73
0
 40
0.0
  0
LTYPE
  5
26
330
2
100
AcDbSymbolTableRecord
100
AcDbLinetypeTableRecord
  2
Continuous
 70
0
  3

 72
65
 73
0
 40
0.0
  0
ENDTAB
  0
TABLE
  2
LAYER
  5
1
330
0
100
AcDbSymbolTable
 70
2
  0
LAYER
  5
27
330
1
100
AcDbSymbolTableRecord
100
AcDbLayerTableRecord
  2
0
 70
0
 62
7
  6
Continuous
370
-3
390
13
347
21
  0
LAYER
  5
28
330
1
100
AcDbSymbolTableRecord
100
AcDbLayerTableRecord
  2
Defpoints
 70
0
 62
7
  6
Continuous
290
0
370
-3
390
13
347
21
  0
ENDTAB
  0
TABLE
  2
STYLE
  5
5
330
0
100
AcDbSymbolTable
 70
1
  0
STYLE
  5
29
330
5
100
AcDbSymbolTableRecord
100
AcDbTextStyleTableRecord
  2
Standard
 70
0
 40
0.0
 41
1.0
 50
0.0
 71
0
 42
2.5
  3
txt
  4

  0
ENDTAB
  0
TABLE
  2
VIEW
  5
7
330
0
100
AcDbSymbolTable
 70
0
  0
ENDTAB
  0
TABLE
  2
UCS
  5
6
330
0
100
AcDbSymbolTable
 70
0
  0
ENDTAB
  0
TABLE
  2
APPID
  5
3
330
0
100
AcDbSymbolTable
 70
3
  0
APPID
  5
2A
330
3
100
AcDbSymbolTableRecord
100
AcDbRegAppTableRecord
  2
ACAD
 70
0
  0
APPID
  5
30
330
3
100
AcDbSymbolTableRecord
100
AcDbRegAppTableRecord
  2
HATCHBACKGROUNDCOLOR
 70
0
  0
APPID
  5
31
330
3
100
AcDbSymbolTableRecord
100
AcDbRegAppTableRecord
  2
EZDXF
 70
0
  0
ENDTAB
  0
TABLE
  2
DIMSTYLE
  5
4
330
0
100
AcDbSymbolTable
 70
1
100
AcDbDimStyleTable
  0
DIMSTYLE
105
2B
330
4
100
AcDbSymbolTableRecord
100
AcDbDimStyleTableRecord
  2
Standard
 70
0
 40
1.0
 41
2.5
 42
0.625
 43
3.75
 44
1.25
 45
0.0
 46
0.0
 47
0.0
 48
0.0
 49
2.5
140
2.5
141
2.5
142
0.0
143
0.03937007874
144
1.0
145
0.0
146
1.0
147
0.625
148
0.0
 69
0
 70
0
 71
0
 72
0
 73
0
 74
0
 75
0
 76
0
 77
1
 78
8
 79
3
170
0
171
3
172
1
173
0
174
0
175
0
176
0
177
0
178
0
179
2
271
2
272
2
273
2
274
3
275
0
276
0
277
2
278
44
279
0
280
0
281
0
282
0
283
0
284
8
285
0
286
0
288
0
289
3
290
0
371
-2
372
-2
  0
ENDTAB
  0
TABLE
  2
BLOCK_RECORD
  5
9
330
0
100
AcDbSymbolTable
 70
2
  0
BLOCK_RECORD
  5
17
330
9
100
AcDbSymbolTableRecord
100
AcDbBlockTableRecord
  2
*Model_Space
340
1A
 70
0
280
1
281
0
  0
BLOCK_RECORD
  5
1B
330
9
100
AcDbSymbolTableRecord
100
AcDbBlockTableRecord
  2
*Paper_Space
340
1E
 70
0
280
1
281
0
  0
ENDTAB
  0
ENDSEC
  0
SECTION
  2
BLOCKS
  0
BLOCK
  5
18
330
17
100
AcDbEntity
  8
0
100
AcDbBlockBegin
  2
*Model_Space
 70
0
 10
0.0
 20
0.0
 30
0.0
  3
*Model_Space
  1

  0
ENDBLK
  5
19
330
17
100
AcDbEntity
  8
0
100
AcDbBlockEnd
  0
BLOCK
  5
1C
330
1B
100
AcDbEntity
  8
0
100
AcDbBlockBegin
  2
*Paper_Space
 70
0
 10
0.0
 20
0.0
 30
0.0
  3
*Paper_Space
  1

  0
ENDBLK
  5
1D
330
1B
100
AcDbEntity
  8
0
100
AcDbBlockEnd
  0
ENDSEC
  0
SECTION
  2
ENTITIES
  0
LWPOLYLINE
  5
2F
330
17
100
AcDbEntity
  8
0
100
AcDbPolyline
 90
721
 70
1
 10
91.48334061159069
 20
36.50695739016385
 10
91.48037451168967
 20
36.50686233269749
 10
91.47158444165517
 20
36.50630346439729
 10
91.45718648239873
 20
36.50473435043959
 10
91.43693650392417
 20
36.502372575283495
 10
91.41126886763277
 20
36.498919271116435
 10
91.37999345024103
 20
36.49445544786942
 10
91.34302803376929
 20
36.48878923983969
 10
91.30064501354147
 20
36.482031366087774
 10
91.25276217157793
 20
36.47398996091094
 10
91.19913521570014
 20
36.46488301890198
 10
91.14014466277902
 20
36.454547836642746
 10
91.07565418000061
 20
36.44292939638105
 10
91.00560970659149
 20
36.43016440935624
 10
90.93011936409856
 20
36.41597945308966
 10
90.84907492285336
 20
36.400648223482456
 10
90.76266666832173
 20
36.38408930046991
 10
90.67075826768973
 20
36.36624766629988
 10
90.57329566018392
 20
36.34726003221169
 10
90.47052308392206
 20
36.32690854032381
 10
90.36219613860403
 20
36.30541145865148
 10
90.24842289171607
 20
36.28249550142729
 10
90.12936756297437
 20
36.25854494690166
 10
90.0046755390753
 20
36.233257210311336
 10
89.87475533191366
 20
36.20679857531396
 10
89.7393344921047
 20
36.179058459560245
 10
89.59854908215848
 20
36.15009256435854
 10
89.45239904801424
 20
36.119901026420095
 10
89.30083027483774
 20
36.0886206936955
 10
89.14384260044659
 20
36.056251976318464
 10
88.98154409232703
 20
36.022521588521535
 10
88.81382657487131
 20
35.98770308949463
 10
88.64088011730222
 20
35.95171560601802
 10
88.46251443415387
 20
35.914640558156414
 10
88.27883743073015
 20
35.87620507027607
 10
88.08987721017644
 20
35.836737856030304
 10
87.89557954953696
 20
35.796376036792175
 10
87.69610652301064
 20
35.75470975226616
 10
87.49121362217578
 20
35.711957543890016
 10
87.28122730312982
 20
35.6680934194849
 10
87.06582089353229
 20
35.623143918074604
 10
86.84526673464627
 20
35.57721989543087
 10
86.61942843959719
 20
35.53026647051279
 10
86.38844212495582
 20
35.48233920791749
 10
86.15222546462095
 20
35.43324651536469
 10
85.91091457516339
 20
35.38304395745152
 10
85.6642649481615
 20
35.33195007561573
 10
85.41260298565197
 20
35.27993901438973
 10
85.1557923007601
 20
35.22695589273261
 10
84.89383278536434
 20
35.17300098406686
 10
84.62672416916078
 20
35.11807497194865
 10
84.35454861606843
 20
35.06236985879198
 10
84.07722369186442
 20
35.00569432573906
 10
83.79483150640688
 20
34.94824051191508
 10
83.50742585016548
 20
34.889872389636935
 10
83.21511479062642
 20
34.83031667313719
 10
82.91792621469192
 20
34.76990262291408
 10
82.61561566800118
 20
34.70884864369416
 10
82.30818288025029
 20
34.64715541903359
 10
81.99592620439135
 20
34.584468243100254
 10
81.6787913634077
 20
34.52092437397845
 10
81.35677824917788
 20
34.456524085090656
 10
81.0297244090775
 20
34.39167819371107
 10
80.69789998479173
 20
34.32570355377674
 10
80.36133297134437
 20
34.25892915236342
 10
80.01996914577965
 20
34.191492110844216
 10
79.6736180063886
 20
34.123474396128756
 10
79.32260590114713
 20
34.054850289460674
 10
78.9668504498933
 20
33.985428335271
 10
78.60635154450549
 20
33.91520880698218
 10
78.24113707188609
 20
33.84452096509251
 10
77.87142305888588
 20
33.77281851148956
 10
77.49696505114397
 20
33.700319850899874
 10
77.11798122102859
 20
33.627272823757
 10
76.73447140635736
 20
33.55367784019468
 10
76.34640734180262
 20
33.47920659669331
 10
75.95373469628696
 20
33.40399648804843
 10
75.55672581107358
 20
33.328158370031765
 10
75.15513612368005
 20
33.251910920792334
 10
74.74912765424457
 20
33.17484441674585
 10
74.3388364652771
 20
33.097014559200645
 10
73.92426239459537
 20
33.01842175829045
 10
73.50529705034853
 20
32.93934012005013
 10
73.08194027035428
 20
32.85977005461341
 10
72.65424595320374
 20
32.77957526087467
 10
72.22254050093366
 20
32.698729883366326
 10
71.7864970790211
 20
32.61726087124587
 10
71.34625180403694
 20
32.53522378911041
 10
70.90210297487242
 20
32.45226406783907
 10
70.45385998169704
 20
32.36846394776396
 10
70.00149675876125
 20
32.28428912720025
 10
69.54514942263577
 20
32.19979517074501
 10
69.08465326705748
 20
32.114599030548995
 10
68.62044292373156
 20
32.02840115524345
 10
68.15230193332096
 20
31.941748936630695
 10
67.68028419441687
 20
31.85450607360509
 10
67.20433543000271
 20
31.766809824250966
 10
66.7246998241355
 20
31.67844246739796
 10
66.24137726869368
 20
31.589404276468578
 10
65.75423121462025
 20
31.499640780555616
 10
65.26347999646569
 20
31.409399409958905
 10
64.76898717329453
 20
31.318625420348788
 10
64.2709969832246
 20
31.227100953843703
 10
63.76950921001277
 20
31.134826557288594
 10
63.26466002429063
 20
31.04185765856934
 10
62.75625881622772
 20
30.948276498018092
 10
62.24433363490863
 20
30.854411925999383
 10
61.72891005953609
 20
30.75979947459925
 10
61.21034297371753
 20
30.66474104502474
 10
60.688575738676015
 20
30.568580303659147
 10
60.16355402333414
 20
30.471454645298003
 10
59.63538820287776
 20
30.373884512586105
 10
59.10402400029033
 20
30.276007163607762
 10
58.56935077008211
 20
30.177302839274358
 10
58.03202185693422
 20
30.077718461538332
 10
57.49168210693527
 20
29.976952812748824
 10
56.94844178714954
 20
29.875526608973114
 10
56.40211034180736
 20
29.773521953832116
 10
55.853014389188495
 20
29.67091244501328
 10
55.30117961661711
 20
29.567233341180142
 10
54.74663407317788
 20
29.46281349269727
 10
54.18926942108074
 20
29.357926868888285
 10
53.62935585607155
 20
29.25189018697898
 10
53.066947276741466
 20
29.14456714586374
 10
52.502045936729374
 20
29.036751610666034
 10
51.934433014937845
 20
28.928197381487188
 10
51.364327008099664
 20
28.819151478493314
 10
50.792052172734195
 20
28.708793907670877
 10
50.21755428588562
 20
28.597261790392928
 10
49.64072511788544
 20
28.484828822560612
 10
49.06140221610932
 20
28.371905821448152
 10
48.48007459740062
 20
28.258055704180027
 10
47.896685460799986
 20
28.142622547273252
 10
47.31148178461104
 20
28.026181127568584
 10
46.72392022091315
 20
27.909305922737087
 10
46.13435339967492
 20
27.791504968862316
 10
45.54299729368642
 20
27.67223210454312
 10
44.95001660921085
 20
27.551870377628774
 10
44.355084241421444
 20
27.43044742083297
 10
43.758418849233365
 20
27.30820984418813
 10
43.15993794436308
 20
27.184966465547706
 10
42.55988598117147
 20
27.060498880185193
 10
41.95839929247246
 20
26.934862105852737
 10
41.35534127514824
 20
26.80800180835438
 10
40.750984757009
 20
26.68002761306072
 10
40.145056694001454
 20
26.550830441446113
 10
39.53772168426732
 20
26.420793614782326
 10
38.92903384264077
 20
26.289780285118763
 10
38.31926325674617
 20
26.1571074431037
 10
37.70830169691501
 20
26.0230487846383
 10
37.09636798424471
 20
25.887850509621238
 10
36.483135013908566
 20
25.751540250766226
 10
35.86898373526369
 20
25.613954210965183
 10
35.25396815502281
 20
25.474955815690016
 10
34.63814227989862
 20
25.334408490412617
 10
34.02139777210104
 20
25.19258620445662
 10
33.40381711991366
 20
25.04968013996858
 10
32.785400161154094
 20
24.905690707082183
 10
32.1664455190783
 20
24.760262516409117
 10
31.54687070540276
 20
24.613204385802845
 10
30.92686616777561
 20
24.46443448506494
 10
30.306406218872663
 20
24.314417555531854
 10
29.68519207325567
 20
24.163509396725644
 10
29.063604842464116
 20
24.01154580140451
 10
28.441940463628804
 20
23.857378608746547
 10
27.81987440992654
 20
23.70182849632151
 10
27.19762577275866
 20
23.545140980471892
 10
26.575165962432774
 20
23.386988577945537
 10
25.952549093783134
 20
23.22723444079186
 10
25.329885920421024
 20
23.066398054677002
 10
24.707094062184424
 20
22.90428796403193
 10
24.084472088268505
 20
22.74054891617957
 10
23.46188344961625
 20
22.57512644021271
 10
22.83954723762898
 20
22.40826605247386
 10
22.217409283411662
 20
22.24010473762482
 10
21.595631823345506
 20
22.070232225236346
 10
20.974160688535505
 20
21.898785499970256
 10
20.35307842132596
 20
21.725955607261845
 10
19.7320862903394
 20
21.55209820992193
 10
19.111781758330746
 20
21.376501982328875
 10
18.49216482530002
 20
21.199166924482693
 10
17.87318148453449
 20
21.020229610911475
 10
17.254777567139147
 20
20.83982702627704
 10
16.637143845126804
 20
20.65787652011353
 10
16.020089654606178
 20
20.474460469464326
 10
15.403942208525566
 20
20.28955096819324
 10
14.788809682492698
 20
20.102874457110367
 10
14.174638015734109
 20
19.914567647455048
 10
13.561373201537075
 20
19.72476711375537
 10
12.949069300675099
 20
19.53333614477201
 10
12.338107749052242
 20
19.340109712995723
 10
11.728243767942995
 20
19.14530704342047
 10
11.11950594703973
 20
18.9492556192984
 10
10.512027987092063
 20
18.751217550236866
 10
9.905975026849381
 20
18.551574790395232
 10
9.301185046173574
 20
18.350737063357794
 10
8.697683516145737
 20
18.14824017463305
 10
8.095851980791517
 20
17.94391882328929
 10
7.495582372624708
 20
17.738046295093945
 10
6.896846156013721
 20
17.530294970083634
 10
6.299808631890269
 20
17.321046392283982
 10
5.704441318683525
 20
17.10997280502036
 10
5.110963524037896
 20
16.897319177790305
 10
4.5189398593973715
 20
16.683386975919905
 10
3.9287518687875855
 20
16.468010898477456
 10
3.340615795302462
 20
16.25064410050561
 10
2.7544777403508394
 20
16.03142288310998
 10
2.1703121787908364
 20
15.810811577493297
 10
1.588173387639044
 20
15.588672925571279
 10
1.0081154817296856
 20
15.36487007939333
 10
0.43027522636290505
 20
15.139456963021715
 10
-0.14559215718684576
 20
14.912652801450369
 10
-0.719457862984097
 20
14.6847845310865
 10
-1.2909689366955805
 20
14.455359367746235
 10
-1.8600171486527735
 20
14.224103615528431
 10
-2.4267104582203443
 20
13.991290286778034
 10
-2.9909612413412545
 20
13.757097576073846
 10
-3.5528974514095557
 20
13.521449275421617
 10
-4.1124362757770525
 20
13.284535746700447
 10
-4.669495063977914
 20
13.046547761923149
 10
-5.223994284157522
 20
12.806884415358901
 10
-5.775797225076554
 20
12.565599767781183
 10
-6.3250374793630915
 20
12.323431436160154
 10
-6.8717436367094855
 20
12.080051937243669
 10
-7.4155882138636
 20
11.835432681339347
 10
-7.956844633304096
 20
11.589465546900227
 10
-8.495239472552301
 20
11.342258655473275
 10
-9.030744141915855
 20
11.094139490310644
 10
-9.563686124646898
 20
10.845136641104709
 10
-10.093658405638688
 20
10.594620612432266
 10
-10.620711927053447
 20
10.3435197932763
 10
-11.145091521677456
 20
10.09205354534201
 10
-11.666609536109194
 20
9.839347540419881
 10
-12.184855836630621
 20
9.585563960830365
 10
-12.700129316801544
 20
9.331058879517988
 10
-13.21248403739542
 20
9.075969007722094
 10
-13.7218118768653
 20
8.820020922964002
 10
-14.227893473505983
 20
8.563459458030014
 10
-14.731002249796152
 20
8.306176491373172
 10
-15.231026965577577
 20
8.048690278258439
 10
-15.72785949930329
 20
7.790727396207155
 10
-16.221445790199805
 20
7.532151133979977
 10
-16.711839899040616
 20
7.273098202816239
 10
-17.19901323613334
 20
7.013896085968099
 10
-17.683102512717316
 20
6.75449072266208
 10
-18.163726184766908
 20
6.494716811966464
 10
-18.640884252282117
 20
6.2345743538812535
 10
-19.11465936572879
 20
5.973872576393631
 10
-19.58496887464108
 20
5.712802251516414
 10
-20.051974961339436
 20
5.451773512967615
 10
-20.51559497535799
 20
5.190977132760055
 10
-20.975612673602818
 20
4.929866265936384
 10
-21.43216476731326
 20
4.668386851723118
 10
-21.884787061997834
 20
4.406564361201365
 10
-22.33391516245564
 20
4.144700806542175
 10
-22.779603129460174
 20
3.8829328989848846
 10
-23.221577540532746
 20
3.6213687600764604
 10
-23.659784334899896
 20
3.35987167857756
 10
-24.094198041480496
 20
3.097977459996691
 10
-24.524898192129147
 20
2.836287010064689
 10
-24.95204696916629
 20
2.575210462499561
 10
-25.375237357485183
 20
2.3141183218781047
 10
-25.79460606832515
 20
2.0529565274268347
 10
-26.2099878007545
 20
1.7921066231713962
 10
-26.621519266012555
 20
1.5315145483383006
 10
-27.029254524872808
 20
1.2713170141668864
 10
-27.432894683775462
 20
1.0111579477126282
 10
-27.832547864267497
 20
0.7513107714541938
 10
-28.2282140663489
 20
0.4917754853915882
 10
-28.620109533113602
 20
0.23309893448216107
 10
-29.007906781309455
 20
-0.02474747096646579
 10
-29.39171705109467
 20
-0.2822819862192637
 10
-29.771295509682957
 20
-0.539723972981426
 10
-30.14672168892892
 20
-0.7964725255221252
 10
-30.51824042161883
 20
-1.0523082821361645
 10
-30.885498753419444
 20
-1.3077240270074129
 10
-31.24846809463839
 20
-1.5623922768837135
 10
-31.607475928527805
 20
-1.8162844420726934
 10
-31.962248832609028
 20
-2.0692924010273868
 10
-32.312624624561614
 20
-2.321826287465811
 10
-32.65876548670602
 20
-2.5734759676699492
 10
-33.00072547981569
 20
-2.8241047304004643
 10
-33.338450543117176
 20
-3.073849286896694
 10
-33.67180396537113
 20
-3.322655576385156
 10
-34.00073168580407
 20
-3.5706603101051897
 10
-34.32542447642882
 20
-3.817780837590938
 10
-34.6456089147667
 20
-4.063909037295439
 10
-34.96139312236467
 20
-4.308771486740016
 10
-35.27294240015445
 20
-4.5527497299503095
 10
-35.579846614418024
 20
-4.795681584605872
 10
-35.88218841562124
 20
-5.037757822719521
 10
-36.18018404685804
 20
-5.278431599333911
 10
-36.47383350812842
 20
-5.517702914449042
 10
-36.762891966646066
 20
-5.755791129770102
 10
-37.047305361637505
 20
-5.992832956536434
 10
-37.32715634356861
 20
-6.229019166760857
 10
-37.602441793828085
 20
-6.463558082699714
 10
-37.8732443628818
 20
-6.696640476365829
 10
-38.13945592918279
 20
-6.928539770237878
 10
-38.40093978149172
 20
-7.1592019035423755
 10
-38.65780404135555
 20
-7.388353453800651
 10
-38.909940587227325
 20
-7.616267843491376
 10
-39.157403479880514
 20
-7.842808361375214
 10
-39.400246780088615
 20
-8.067838296212827
 10
-39.6382256550653
 20
-8.29157700970941
 10
-39.87150228713104
 20
-8.51361436814695
 10
-40.099997144431235
 20
-8.734551277256276
 10
-40.32378975882047
 20
-8.95378683130656
 10
-40.542826069525276
 20
-9.171457741537136
 10
-40.75705201577216
 20
-9.387700719187343
 10
-40.9663308863218
 20
-9.602461703483701
 10
-41.17085345318699
 20
-9.815658043960356
 10
-41.37064518744886
 20
-10.026825546125806
 10
-41.56559796756044
 20
-10.236237632458732
 10
-41.75571179352172
 20
-10.443894302959135
 10
-41.94117743734554
 20
-10.649712907161152
 10
-42.12166741577973
 20
-10.853722034757167
 10
-42.29742656161059
 20
-11.055702324041981
 10
-42.468426285145746
 20
-11.255326291763437
 10
-42.63480329762454
 20
-11.452647998695017
 10
-42.796312766260655
 20
-11.647886806541912
 10
-42.95314546306695
 20
-11.84096006483828
 10
-43.10502796556471
 20
-12.03175965203714
 10
-43.25234181777958
 20
-12.220120267206786
 10
-43.39486765800639
 20
-12.405797077560923
 10
-43.53263407593749
 20
-12.5891175663517
 10
-43.665641071572885
 20
-12.770081733579117
 10
-43.793888644912585
 20
-12.948689579243183
 10
-43.9173482062642
 20
-13.124613620091734
 10
-44.03601975562775
 20
-13.297853856124771
 10
-44.14987782192212
 20
-13.468874481833792
 10
-44.25894787622841
 20
-13.637211302727295
 10
-44.363013675452684
 20
-13.803411163762636
 10
-44.4622914626889
 20
-13.966927219982463
 10
-44.55656499484311
 20
-14.128306316344124
 10
-44.64594239346228
 20
-14.287275030368948
 10
-44.73042365854641
 20
-14.443833362056939
 10
-44.80981801808269
 20
-14.598063961873942
 10
-44.884507016096734
 20
-14.749801528888252
 10
-44.95391833655011
 20
-14.899294014497436
 10
-45.01857023470778
 20
-15.046430178543257
 10
-45.078135227317595
 20
-15.1912386107181
 10
-45.1327754967
 20
-15.333309177303947
 10
-45.18251963254737
 20
-15.472969361552956
 10
-45.227284984393826
 20
-15.610028391452307
 10
-45.26728779533333
 20
-15.743939422044647
 10
-45.30250259428476
 20
-15.87516664782148
 10
-45.33290079155572
 20
-16.003382585530638
 10
-45.358590508693226
 20
-16.128313812693456
 10
-45.37978798879115
 20
-16.249413484352573
 10
-45.39649323184953
 20
-16.366681600508002
 10
-45.40895107065464
 20
-16.47989879945454
 10
-45.41715838659523
 20
-16.588273403448536
 10
-45.42146813400458
 20
-16.691312628306132
 10
-45.4225576318568
 20
-16.78770342240743
 10
-45.42053188308763
 20
-16.8763806855301
 10
-45.416392571312095
 20
-16.955211098618232
 10
-45.41114138014525
 20
-17.022061342615906
 10
-45.40580234567197
 20
-17.073542226232057
 10
-45.40186369846865
 20
-17.10629002925674
 10
-45.05895880869393
 20
-17.981038714558316
 10
-45.053604195698945
 20
-17.986983833068365
 10
-45.03759441748748
 20
-18.004682477359196
 10
-45.01114571715346
 20
-18.03358780247344
 10
-44.97320235030836
 20
-18.075969838706364
 10
-44.922902463187725
 20
-18.134807643631007
 10
-44.86292050477328
 20
-18.20293817202835
 10
-44.79479564780364
 20
-18.276069314705452
 10
-44.7195041048127
 20
-18.35253194709788
 10
-44.63804444080428
 20
-18.42940107240608
 10
-44.55076649150037
 20
-18.505392228702526
 10
-44.45821398324703
 20
-18.57992998133749
 10
-44.36046644789889
 20
-18.652413424580157
 10
-44.257740128549834
 20
-18.72229571347315
 10
-44.15014314674687
 20
-18.78930342553782
 10
-44.037675502489954
 20
-18.853436560774156
 10
-43.920527967791934
 20
-18.914612468716307
 10
-43.79867195296044
 20
-18.97250366611211
 10
-43.67205339722196
 20
-19.027246864200908
 10
-43.54086307258934
 20
-19.07875941251684
 10
-43.404856146276266
 20
-19.127260672765104
 10
-43.264086679056234
 20
-19.17261393370636
 10
-43.118936214954864
 20
-19.214653894408897
 10
-42.96883243793371
 20
-19.253628506270278
 10
-42.814239542484266
 20
-19.28956324037162
 10
-42.654830045354366
 20
-19.32248668640529
 10
-42.49079471855684
 20
-19.352316193905434
 10
-42.32218762286517
 20
-19.37891505163272
 10
-42.1488465759589
 20
-19.40269339330515
 10
-41.970879699385016
 20
-19.423377796444054
 10
-41.78807075004956
 20
-19.441515106006786
 10
-41.60058191027299
 20
-19.45669518827533
 10
-41.40844176974769
 20
-19.469245526501837
 10
-41.21151361723431
 20
-19.479112059912833
 10
-41.009689331185896
 20
-19.486568210986988
 10
-40.803159683615256
 20
-19.491531329258457
 10
-40.59187061374892
 20
-19.494138125966565
 10
-40.37582212158687
 20
-19.49438860111131
 10
-40.154715313569355
 20
-19.492638827637236
 10
-39.928877672948495
 20
-19.48886021585196
 10
-39.698089838019115
 20
-19.48280793296918
 10
-39.462625231259906
 20
-19.474590100535867
 10
-39.22223901988454
 20
-19.46442608025721
 10
-38.97706791513236
 20
-19.452369932906688
 10
-38.72702926653752
 20
-19.43823088647148
 10
-38.47236790688631
 20
-19.4217895792464
 10
-38.21289306416592
 20
-19.403128661697302
 10
-37.948824100081545
 20
-19.382492966610485
 10
-37.680024303393836
 20
-19.359828433212467
 10
-37.4064936741028
 20
-19.33513506150325
 10
-37.12839439452888
 20
-19.308002717764822
 10
-36.845863175911425
 20
-19.27848546277066
 10
-36.558763307011084
 20
-19.24652923574729
 10
-36.26712337752022
 20
-19.21246151994686
 10
-35.97094338743887
 20
-19.176282315369377
 10
-35.67043957986092
 20
-19.13744477705749
 10
-35.36564054447877
 20
-19.096276388263348
 10
-35.05646363082656
 20
-19.052586376974144
 10
-34.742854778130805
 20
-19.0065114544292
 10
-34.42495069763084
 20
-18.958105681402017
 10
-34.102805450100135
 20
-18.907232346653245
 10
-33.776364974765244
 20
-18.854028161422224
 10
-33.44562927162614
 20
-18.79849312570895
 10
-33.110652401456306
 20
-18.740490528274098
 10
-32.7715170147216
 20
-18.680211141130478
 10
-32.42822311142203
 20
-18.617654964278085
 10
-32.08068804109173
 20
-18.552631225704108
 10
-31.72907710466242
 20
-18.48552146943418
 10
-31.373307651668235
 20
-18.416134923455495
 10
-31.013325621335696
 20
-18.34460829900737
 10
-30.649321785677635
 20
-18.270858945623967
 10
-30.28145832701448
 20
-18.19447672958726
 10
-29.90957306302579
 20
-18.115871784615273
 10
-29.533421160925272
 20
-18.03526347241319
 10
-29.153466815204407
 20
-17.952677264062128
 10
-28.7695447249315
 20
-17.86773161553644
 10
-28.381708950880014
 20
-17.780289815596788
 10
-27.99012479398168
 20
-17.690733408268823
 10
-27.59460148222366
 20
-17.599145044018385
 10
-27.19524713715293
 20
-17.50525130036681
 10
-26.79219847000883
 20
-17.409106238087574
 10
-26.385509541564826
 20
-17.310573145941337
 10
-25.975018169500483
 20
-17.210062157646124
 10
-25.560832475362773
 20
-17.107299850723248
 10
-25.142844337604718
 20
-17.00255964765139
 10
-24.721489361025437
 20
-16.895539536259495
 10
-24.296440062372785
 20
-16.786268106239945
 10
-23.8678331528861
 20
-16.674799418366216
 10
-23.43575128303122
 20
-16.56132424465113
 10
-23.000165863115797
 20
-16.445515101842528
 10
-22.56110548283219
 20
-16.32769947319257
 10
-22.11876091419321
 20
-16.20779470823539
 10
-21.67296685626716
 20
-16.08541926294537
 10
-21.223996731532708
 20
-15.960681258869455
 10
-20.771688357669408
 20
-15.833990829725662
 10
-20.316041734677267
 20
-15.705347975513998
 10
-19.857056862556277
 20
-15.574752696234455
 10
-19.395032634866226
 20
-15.441848918942505
 10
-18.930077173154075
 20
-15.306363221159474
 10
-18.46183752308656
 20
-15.16878838706923
 10
-17.990587107142357
 20
-15.029232538218736
 10
-17.51629733562909
 20
-14.887368191355833
 10
-17.039213041333063
 20
-14.742975984775333
 10
-16.559172041933827
 20
-14.596466052195241
 10
-16.076202927123756
 20
-14.448165876867721
 10
-15.590277107210483
 20
-14.297747975540615
 10
-15.101556764514443
 20
-14.14480221449591
 10
-14.610207199967356
 20
-13.989710137759241
 10
-14.116174352795735
 20
-13.832608456569947
 10
-13.619184800520905
 20
-13.673389049381068
 10
-13.11970273763437
 20
-13.512077387273708
 10
-12.617699574443742
 20
-13.348345986995714
 10
-12.113175310949023
 20
-13.182194848547079
 10
-11.606212597616079
 20
-13.013814743940632
 10
-11.096541130577492
 20
-12.843889229373051
 10
-10.584459803393047
 20
-12.672062231899814
 10
-10.070048147917335
 20
-12.49773284579008
 10
-9.553252103376874
 20
-12.321037782283199
 10
-9.034345092250337
 20
-12.14208516292612
 10
-8.51297416020446
 20
-11.961367771902722
 10
-7.989384140025549
 20
-11.778666247507807
 10
-7.463575031713596
 20
-11.593980589741378
 10
-6.935654956815566
 20
-11.407037376124753
 10
-6.405569854557983
 20
-11.21797331789728
 10
-5.873485025872557
 20
-11.027169959084592
 10
-5.339235169827571
 20
-10.834245755661048
 10
-4.80320183044867
 20
-10.639035406694939
 10
-4.265330946962359
 20
-10.441675623425605
 10
-3.725568458595176
 20
-10.242303117092378
 10
-3.183831714881249
 20
-10.040727115682442
 10
-2.640638971085576
 20
-9.836836379037575
 10
-2.095907576742271
 20
-9.630440135144942
 10
-1.5491764559711236
 20
-9.422304590667096
 10
-1.0007730920242897
 20
-9.212401155911664
 10
-0.45115856078198785
 20
-8.999963624216095
 10
0.10010274255488323
 20
-8.78529400775145
 10
0.6529281675204838
 20
-8.568583078530539
 10
1.2069361700891759
 20
-8.34966553562165
 10
1.7623461119661397
 20
-8.12829654623849
 10
2.318884570672719
 20
-7.904584231928011
 10
2.876904500542157
 20
-7.679021376874095
 10
3.436161068788162
 20
-7.4513886193715395
 10
3.9962472603040045
 20
-7.2210564639971375
 10
4.557461968649436
 20
-6.988380983695425
 10
5.119884725679073
 20
-6.753963084197233
 10
5.683216800015433
 20
-6.517447102691747
 10
6.247549599969696
 20
-6.27866441438692
 10
6.812859509440623
 20
-6.037955079968933
 10
7.378930447516635
 20
-5.794772664614147
 10
7.945762522319263
 20
-5.549117441745041
 10
8.513435265703096
 20
-5.301590317092453
 10
9.08186624344537
 20
-5.052382609514158
 10
9.651138160072737
 20
-4.801303683708569
 10
10.220952176086149
 20
-4.547997603442404
 10
10.791416467093379
 20
-4.292737927905571
 10
11.362531249337506
 20
-4.035525203943029
 10
11.934159757518417
 20
-3.7764133556170214
 10
12.506139971497987
 20
-3.514992659343254
 10
13.078580012823187
 20
-3.2515365376003995
 10
13.651422702109269
 20
-2.986699956892774
 10
14.224887617304505
 20
-2.7202386312790336
 10
14.798539099549016
 20
-2.451850411876889
 10
15.372568028977167
 20
-2.181618222574672
 10
15.946700983110278
 20
-1.9096501849193503
 10
16.521128788021937
 20
-1.6360290860880204
 10
17.095797436999447
 20
-1.3606183515525796
 10
17.670487568337613
 20
-1.0836628140993312
 10
18.245444014822738
 20
-0.8053818354334642
 10
18.82061287786365
 20
-0.5256391144493662
 10
19.395666512025883
 20
-0.24440565132093947
 10
19.97079579744379
 20
0.038235630063478944
 10
20.545972144425015
 20
0.32195724645173324
 10
21.121116075175717
 20
0.6073599668634091
 10
21.696062180642674
 20
0.8940625206953605
 10
22.270918582372815
 20
1.1817914854689018
 10
22.845631273653456
 20
1.4706834357121372
 10
23.420092132937615
 20
1.7610117939037357
 10
23.994409335833044
 20
2.052503000853787
 10
24.56841731110414
 20
2.3447761960928437
 10
25.14214475656485
 20
2.638158589450592
 10
25.715617143296278
 20
2.932185986435534
 10
26.28867218085642
 20
3.2272687941881624
 10
26.86125586253258
 20
3.5235435872365737
 10
27.433476309871715
 20
3.8207369431020917
 10
28.005221958350948
 20
4.118331426787175
 10
28.576629681391946
 20
4.416380688931594
 10
29.14740047731339
 20
4.715241075902354
 10
29.71758829876719
 20
5.014776149882597
 10
30.28719319981413
 20
5.314985774161079
 10
30.856269133106156
 20
5.6157335109209505
 10
31.424488345087237
 20
5.917048633410776
 10
31.992041769952518
 20
6.218848081030988
 10
32.55884643287146
 20
6.520941902036187
 10
33.12514743693429
 20
6.823110051164999
 10
33.69045463002142
 20
7.125792482228955
 10
34.25482212696709
 20
7.428852347277488
 10
34.818656942878086
 20
7.731660150887386
 10
35.38136102033095
 20
8.034928722503912
 10
35.94288013636987
 20
8.338795183500114
 10
36.503675529057425
 20
8.642492917079737
 10
37.06358146497568
 20
8.945641472907052
 10
37.62241039884465
 20
9.24911490576909
 10
38.18007946395536
 20
9.552722990497987
 10
38.736451624703875
 20
9.856412486587702
 10
39.2917718760588
 20
10.159963622199326
 10
39.84595729725038
 20
10.46318630887622
 10
40.39906178686984
 20
10.765944245512786
 10
40.95084034994849
 20
11.068457203947922
 10
41.50118464869631
 20
11.37099915350526
 10
42.050256811372975
 20
11.673160097178034
 10
42.59805678391769
 20
11.974940171677476
 10
43.144364609956774
 20
12.276096048040927
 10
43.68945409039431
 20
12.576734890836661
 10
44.23288907982343
 20
12.877160079348137
 10
44.7747235308961
 20
13.177235175758486
 10
45.315227531236566
 20
13.476277170715973
 10
45.85434707413223
 20
13.774422638748716
 10
46.3916999127673
 20
14.071838658034517
 10
46.927613908819396
 20
14.368495681902335
 10
47.46176098436783
 20
14.664423803868178
 10
47.994277958773495
 20
14.959676811283042
 10
48.525135863918614
 20
15.253928177873458
 10
49.054197610138424
 20
15.547124799844608
 10
49.58170819240157
 20
15.839046905357593
 10
50.107231303118816
 20
16.129998283829558
 10
50.631040743194305
 20
16.4200860998288
 10
51.15280843470737
 20
16.709340446871327
 10
51.672858471995
 20
16.996941741077304
 10
52.19105381945326
 20
17.282836741940695
 10
52.70734391334531
 20
17.567952881465807
 10
53.22126358608576
 20
17.85226714937384
 10
53.73351912476655
 20
18.134793020318387
 10
54.24378239740622
 20
18.415560724526685
 10
54.751836890606995
 20
18.695117790512285
 10
55.25768249624733
 20
18.97346449169767
 10
55.76137311291837
 20
19.250464526977215
 10
56.26317893636598
 20
19.525434613576707
 10
56.76271755759218
 20
19.79854223980771
 10
57.2601007573629
 20
20.07030429382278
 10
57.755054248227076
 20
20.340614841454794
 10
58.24768598954939
 20
20.609200870358794
 10
58.738103994755235
 20
20.875789231478578
 10
59.22619992605457
 20
21.1406538941378
 10
59.711836531600284
 20
21.403742164675336
 10
60.19525886042181
 20
21.66483413454106
 10
60.67619262506812
 20
21.923823869567848
 10
61.15461257070113
 20
22.181175017402204
 10
61.63024430174828
 20
22.43678191729949
 10
62.103606992507714
 20
22.69053100501042
 10
62.57426029774581
 20
22.941936716299548
 10
63.042478234609774
 20
23.191105668890227
 10
63.50820652608301
 20
23.438175120866735
 10
63.971062763167495
 20
23.683312560540614
 10
64.4311007363329
 20
23.92638196022874
 10
64.88864846943903
 20
24.167353363126328
 10
65.34334870020443
 20
24.405930883320867
 10
65.79544636953688
 20
24.641894885684682
 10
66.24464204326891
 20
24.875602810274714
 10
66.69101853404865
 20
25.10724501897004
 10
67.13449265080254
 20
25.33663210687024
 10
67.57506417728749
 20
25.563764620820283
 10
68.01275798991607
 20
25.7881798701523
 10
68.44754888791105
 20
26.01034136580159
 10
68.87921648241256
 20
26.23000687249539
 10
69.3077895252953
 20
26.447503463352156
 10
69.73343009075812
 20
26.662421278076334
 10
70.15605487960593
 20
26.874571185190003
 10
70.57550149327517
 20
27.084363865256105
 10
70.99176976958351
 20
27.291799728408378
 10
71.4048594922879
 20
27.496879321491765
 10
71.81460438736268
 20
27.699223561282956
 10
72.22138659350193
 20
27.898665643026572
 10
72.62479850093052
 20
28.095836565969496
 10
73.024756864514
 20
28.290547061922503
 10
73.42139855767405
 20
28.482850781525382
 10
73.8146943960498
 20
28.6724217453496
 10
74.20445301295989
 20
28.859344107684628
 10
74.59089441883884
 20
29.04386106078192
 10
74.97390629231293
 20
29.22545708360128
 10
75.35338034965287
 20
29.404406008755103
 10
75.72937048944982
 20
29.580571535137764
 10
76.10171425907947
 20
29.754364480023472
 10
76.47051961790643
 20
29.92551183106726
 10
76.83564920596218
 20
30.093961168030546
 10
77.19715692183779
 20
30.259576189807696
 10
77.55512568630301
 20
30.422546984855316
 10
77.9092269348902
 20
30.58290487709059
 10
78.25946039729553
 20
30.74065055006971
 10
78.60601716989645
 20
30.895700533059383
 10
78.94895136752717
 20
31.047917978109027
 10
79.2878274394494
 20
31.197604760678455
 10
79.6227774476759
 20
31.344826698707717
 10
79.95396881842221
 20
31.48916039748862
 10
80.28120818475833
 20
31.630695069626473
 10
80.60438731701579
 20
31.769704411022456
 10
80.92375131828472
 20
31.90596837641515
 10
81.23907969158371
 20
32.03924500395431
 10
81.550401296909
 20
32.16986109333589
 10
81.85766191130475
 20
32.29795376593291
 10
82.16072422886319
 20
32.42347046479558
 10
82.45969620894887
 20
32.54613817757889
 10
82.75452352048454
 20
32.66609429907841
 10
83.04509793380159
 20
32.783612525195274
 10
83.3314732934305
 20
32.89855669153512
 10
83.6136204690711
 20
33.01060068195815
 10
83.89153919041955
 20
33.11974518002061
 10
84.16515030404663
 20
33.2265901344746
 10
84.43437045669648
 20
33.330946550553456
 10
84.69919959430835
 20
33.43281456496842
 10
84.95969150735179
 20
33.53205815003631
 10
85.21570894397973
 20
33.62862461209606
 10
85.46738883167467
 20
33.72256746507622
 10
85.71448585110325
 20
33.814107301083084
 10
85.95710785350865
 20
33.90297138119423
 10
86.19514660922232
 20
33.98943340131078
 10
86.42884727539521
 20
34.073273179460095
 10
86.65782722678622
 20
34.154658750798696
 10
86.88216943822582
 20
34.233780067071955
 10
87.10179066457965
 20
34.31044786009069
 10
87.3168820022252
 20
34.3845786591216
 10
87.5271975912215
 20
34.45639442338346
 10
87.73298231841552
 20
34.525675654459775
 10
87.93380290362148
 20
34.59271848593836
 10
88.12998337020203
 20
34.657503077646126
 10
88.32125083628618
 20
34.71991994092373
 10
88.50774233747799
 20
34.78002231627722
 10
88.68945776565586
 20
34.837810477129075
 10
88.86634289786396
 20
34.89342154485233
 10
89.03831459708952
 20
34.94666597783534
 10
89.20526452554247
 20
34.997817745401726
 10
89.36738394178262
 20
35.0467929666845
 10
89.52448137100703
 20
35.0936760693956
 10
89.67661081992846
 20
35.13833047900694
 10
89.8237181737126
 20
35.18089304346909
 10
89.96585733095071
 20
35.22122746167646
 10
90.10297417680844
 20
35.2594705815796
 10
90.23496053567808
 20
35.29589596236842
 10
90.36178716913801
 20
35.330177761325636
 10
90.4836744119873
 20
35.36255835043527
 10
90.60015644791126
 20
35.393016359953364
 10
90.71169893104228
 20
35.42157356975756
 10
90.81802735768622
 20
35.44812459252572
 10
90.91903355223535
 20
35.47294298744772
 10
91.01490871918863
 20
35.495945010367805
 10
91.10551555263828
 20
35.51707810433612
 10
91.19074593103731
 20
35.53661569183136
 10
91.27084506559738
 20
35.55433745416962
 10
91.34556763698531
 20
35.570463983457266
 10
91.414967597853
 20
35.584858841877455
 10
91.47893682665351
 20
35.59779545190884
 10
91.53752938416025
 20
35.60913710231208
 10
91.59082829926456
 20
35.61907360812134
 10
91.63855912233305
 20
35.627499445303194
 10
91.68080504443932
 20
35.63460401875807
 10
91.71770320930888
 20
35.640440295569526
 10
91.74897916730835
 20
35.64490275170415
 10
91.77466194061631
 20
35.64831777672419
 10
91.79494294997485
 20
35.65060107962891
 10
91.80943940796057
 20
35.651921105708546
 10
91.81823466782933
 20
35.65246684972976
 10
91.8212204458519
 20
35.652512144305
  0
ENDSEC
  0
SECTION
  2
OBJECTS
  0
DICTIONARY
  5
A
330
0
100
AcDbDictionary
280
0
281
1
  3
ACAD_COLOR
350
B
  3
ACAD_GROUP
350
C
  3
ACAD_LAYOUT
350
D
  3
ACAD_MATERIAL
350
E
  3
ACAD_MLEADERSTYLE
350
F
  3
ACAD_MLINESTYLE
350
10
  3
ACAD_PLOTSETTINGS
350
11
  3
ACAD_PLOTSTYLENAME
350
12
  3
ACAD_SCALELIST
350
14
  3
ACAD_TABLESTYLE
350
15
  3
ACAD_VISUALSTYLE
350
16
  3
EZDXF_META
350
2D
  0
DICTIONARY
  5
B
330
A
100
AcDbDictionary
280
0
281
1
  0
DICTIONARY
  5
C
330
A
100
AcDbDictionary
280
0
281
1
  0
DICTIONARY
  5
D
330
A
100
AcDbDictionary
280
0
281
1
  3
Model
350
1A
  3
Layout1
350
1E
  0
DICTIONARY
  5
E
330
A
100
AcDbDictionary
280
0
281
1
  3
ByBlock
350
1F
  3
ByLayer
350
20
  3
Global
350
21
  0
DICTIONARY
  5
F
330
A
100
AcDbDictionary
280
0
281
1
  3
Standard
350
2C
  0
DICTIONARY
  5
10
330
A
100
AcDbDictionary
280
0
281
1
  3
Standard
350
22
  0
DICTIONARY
  5
11
330
A
100
AcDbDictionary
280
0
281
1
  0
ACDBDICTIONARYWDFLT
  5
12
330
A
100
AcDbDictionary
280
0
281
1
  3
Normal
350
13
100
AcDbDictionaryWithDefault
340
13
  0
ACDBPLACEHOLDER
  5
13
330
12
  0
DICTIONARY
  5
14
330
A
100
AcDbDictionary
280
0
281
1
  0
DICTIONARY
  5
15
330
A
100
AcDbDictionary
280
0
281
1
  0
DICTIONARY
  5
16
330
A
100
AcDbDictionary
280
0
281
1
  0
LAYOUT
  5
1A
330
D
100
AcDbPlotSettings
  1

  4
A3
  6

 40
7.5
 41
20.0
 42
7.5
 43
20.0
 44
420.0
 45
297.0
 46
0.0
 47
0.0
 48
0.0
 49
0.0
140
0.0
141
0.0
142
1.0
143
1.0
 70
1024
 72
1
 73
0
 74
5
  7

 75
16
 76
0
 77
2
 78
300
147
1.0
148
0.0
149
0.0
100
AcDbLayout
  1
Model
 70
1
 71
0
 10
0.0
 20
0.0
 11
420.0
 21
297.0
 12
0.0
 22
0.0
 32
0.0
 14
1e+20
 24
1e+20
 34
1e+20
 15
-1e+20
 25
-1e+20
 35
-1e+20
146
0.0
 13
0.0
 23
0.0
 33
0.0
 16
1.0
 26
0.0
 36
0.0
 17
0.0
 27
1.0
 37
0.0
 76
1
330
17
  0
LAYOUT
  5
1E
330
D
100
AcDbPlotSettings
  1

  4
A3
  6

 40
7.5
 41
20.0
 42
7.5
 43
20.0
 44
420.0
 45
297.0
 46
0.0
 47
0.0
 48
0.0
 49
0.0
140
0.0
141
0.0
142
1.0
143
1.0
 70
0
 72
1
 73
0
 74
5
  7

 75
16
 76
0
 77
2
 78
300
147
1.0
148
0.0
149
0.0
100
AcDbLayout
  1
Layout1
 70
1
 71
1
 10
0.0
 20
0.0
 11
420.0
 21
297.0
 12
0.0
 22
0.0
 32
0.0
 14
1e+20
 24
1e+20
 34
1e+20
 15
-1e+20
 25
-1e+20
 35
-1e+20
146
0.0
 13
0.0
 23
0.0
 33
0.0
 16
1.0
 26
0.0
 36
0.0
 17
0.0
 27
1.0
 37
0.0
 76
1
330
1B
  0
MATERIAL
  5
1F
102
{ACAD_REACTORS
330
E
102
}
330
E
100
AcDbMaterial
  1
ByBlock
  2

 70
0
 40
1.0
 71
1
 41
1.0
 91
-1023410177
 42
1.0
 72
1
  3

 73
1
 74
1
 75
1
 44
0.5
 73
0
 45
1.0
 46
1.0
 77
1
  4

 78
1
 79
1
170
1
 48
1.0
171
1
  6

172
1
173
1
174
1
140
1.0
141
1.0
175
1
  7

176
1
177
1
178
1
143
1.0
179
1
  8

270
1
271
1
272
1
145
1.0
146
1.0
273
1
  9

274
1
275
1
276
1
 42
1.0
 72
1
  3

 73
1
 74
1
 75
1
 94
63
  0
MATERIAL
  5
20
102
{ACAD_REACTORS
330
E
102
}
330
E
100
AcDbMaterial
  1
ByLayer
  2

 70
0
 40
1.0
 71
1
 41
1.0
 91
-1023410177
 42
1.0
 72
1
  3

 73
1
 74
1
 75
1
 44
0.5
 73
0
 45
1.0
 46
1.0
 77
1
  4

 78
1
 79
1
170
1
 48
1.0
171
1
  6

172
1
173
1
174
1
140
1.0
141
1.0
175
1
  7

176
1
177
1
178
1
143
1.0
179
1
  8

270
1
271
1
272
1
145
1.0
146
1.0
273
1
  9

274
1
275
1
276
1
 42
1.0
 72
1
  3

 73
1
 74
1
 75
1
 94
63
  0
MATERIAL
  5
21
102
{ACAD_REACTORS
330
E
102
}
330
E
100
AcDbMaterial
  1
Global
  2

 70
0
 40
1.0
 71
1
 41
1.0
 91
-1023410177
 42
1.0
 72
1
  3

 73
1
 74
1
 75
1
 44
0.5
 73
0
 45
1.0
 46
1.0
 77
1
  4

 78
1
 79
1
170
1
 48
1.0
171
1
  6

172
1
173
1
174
1
140
1.0
141
1.0
175
1
  7

176
1
177
1
178
1
143
1.0
179
1
  8

270
1
271
1
272
1
145
1.0
146
1.0
273
1
  9

274
1
275
1
276
1
 42
1.0
 72
1
  3

 73
1
 74
1
 75
1
 94
63
  0
MLINESTYLE
  5
22
102
{ACAD_REACTORS
330
10
102
}
330
10
100
AcDbMlineStyle
  2
Standard
 70
0
  3

 62
256
 51
90.0
 52
90.0
 71
2
 49
0.5
 62
256
  6
BYLAYER
 49
-0.5
 62
256
  6
BYLAYER
  0
MLEADERSTYLE
  5
2C
102
{ACAD_REACTORS
330
F
102
}
330
F
100
AcDbMLeaderStyle
179
2
170
2
171
1
172
0
 90
2
 40
0.0
 41
0.0
173
1
 91
-1056964608
 92
-2
290
1
 42
2.0
291
1
 43
8.0
  3
Standard
 44
4.0
300

342
29
174
1
175
1
176
0
178
1
 93
-1056964608
 45
4.0
292
0
297
0
 46
4.0
 94
-1056964608
 47
1.0
 49
1.0
140
1.0
294
1
141
0.0
177
0
142
1.0
295
0
296
0
143
3.75
271
0
272
9
273
9
  0
DICTIONARY
  5
2D
330
A
100
AcDbDictionary
280
1
281
1
  3
CREATED_BY_EZDXF
350
2E
  3
WRITTEN_BY_EZDXF
350
32
  0
DICTIONARYVAR
  5
2E
330
2D
100
DictionaryVariables
280
0
  1
1.3.5 @ 2025-08-20T01:28:29.242750+00:00
  0
DICTIONARYVAR
  5
32
330
2D
100
DictionaryVariables
280
0
  1
1.3.5 @ 2025-08-20T01:28:29.244254+00:00
  0
ENDSEC
  0
EOF
