  0
SECTION
  2
HEADER
  9
$ACADVER
  1
AC1032
  9
$ACADMAINTVER
 90
4
  9
$DWGCODEPAGE
  3
ANSI_1252
  9
$LASTSAVEDBY
  1
ezdxf
  9
$REQUIREDVERSIONS
160
0
  9
$INSBASE
 10
0.0
 20
0.0
 30
0.0
  9
$EXTMIN
 10
1e+20
 20
1e+20
 30
1e+20
  9
$EXTMAX
 10
-1e+20
 20
-1e+20
 30
-1e+20
  9
$LIMMIN
 10
0.0
 20
0.0
  9
$LIMMAX
 10
420.0
 20
297.0
  9
$ORTHOMODE
 70
0
  9
$REGENMODE
 70
1
  9
$FILLMODE
 70
1
  9
$QTEXTMODE
 70
0
  9
$MIRRTEXT
 70
1
  9
$LTSCALE
 40
1.0
  9
$ATTMODE
 70
1
  9
$TEXTSIZE
 40
2.5
  9
$TRACEWID
 40
1.0
  9
$TEXTSTYLE
  7
Standard
  9
$CLAYER
  8
0
  9
$CELTYPE
  6
ByLayer
  9
$CECOLOR
 62
256
  9
$CELTSCALE
 40
1.0
  9
$DISPSILH
 70
0
  9
$DIMSCALE
 40
1.0
  9
$DIMASZ
 40
2.5
  9
$DIMEXO
 40
0.625
  9
$DIMDLI
 40
3.75
  9
$DIMRND
 40
0.0
  9
$DIMDLE
 40
0.0
  9
$DIMEXE
 40
1.25
  9
$DIMTP
 40
0.0
  9
$DIMTM
 40
0.0
  9
$DIMTXT
 40
2.5
  9
$DIMCEN
 40
2.5
  9
$DIMTSZ
 40
0.0
  9
$DIMTOL
 70
0
  9
$DIMLIM
 70
0
  9
$DIMTIH
 70
0
  9
$DIMTOH
 70
0
  9
$DIMSE1
 70
0
  9
$DIMSE2
 70
0
  9
$DIMTAD
 70
1
  9
$DIMZIN
 70
8
  9
$DIMBLK
  1

  9
$DIMASO
 70
1
  9
$DIMSHO
 70
1
  9
$DIMPOST
  1

  9
$DIMAPOST
  1

  9
$DIMALT
 70
0
  9
$DIMALTD
 70
3
  9
$DIMALTF
 40
0.03937007874
  9
$DIMLFAC
 40
1.0
  9
$DIMTOFL
 70
1
  9
$DIMTVP
 40
0.0
  9
$DIMTIX
 70
0
  9
$DIMSOXD
 70
0
  9
$DIMSAH
 70
0
  9
$DIMBLK1
  1

  9
$DIMBLK2
  1

  9
$DIMSTYLE
  2
ISO-25
  9
$DIMCLRD
 70
0
  9
$DIMCLRE
 70
0
  9
$DIMCLRT
 70
0
  9
$DIMTFAC
 40
1.0
  9
$DIMGAP
 40
0.625
  9
$DIMJUST
 70
0
  9
$DIMSD1
 70
0
  9
$DIMSD2
 70
0
  9
$DIMTOLJ
 70
0
  9
$DIMTZIN
 70
8
  9
$DIMALTZ
 70
0
  9
$DIMALTTZ
 70
0
  9
$DIMUPT
 70
0
  9
$DIMDEC
 70
2
  9
$DIMTDEC
 70
2
  9
$DIMALTU
 70
2
  9
$DIMALTTD
 70
3
  9
$DIMTXSTY
  7
Standard
  9
$DIMAUNIT
 70
0
  9
$DIMADEC
 70
0
  9
$DIMALTRND
 40
0.0
  9
$DIMAZIN
 70
0
  9
$DIMDSEP
 70
44
  9
$DIMATFIT
 70
3
  9
$DIMFRAC
 70
0
  9
$DIMLDRBLK
  1

  9
$DIMLUNIT
 70
2
  9
$DIMLWD
 70
-2
  9
$DIMLWE
 70
-2
  9
$DIMTMOVE
 70
0
  9
$DIMFXL
 40
1.0
  9
$DIMFXLON
 70
0
  9
$DIMJOGANG
 40
0.785398163397
  9
$DIMTFILL
 70
0
  9
$DIMTFILLCLR
 70
0
  9
$DIMARCSYM
 70
0
  9
$DIMLTYPE
  6

  9
$DIMLTEX1
  6

  9
$DIMLTEX2
  6

  9
$DIMTXTDIRECTION
 70
0
  9
$LUNITS
 70
2
  9
$LUPREC
 70
4
  9
$SKETCHINC
 40
1.0
  9
$FILLETRAD
 40
10.0
  9
$AUNITS
 70
0
  9
$AUPREC
 70
2
  9
$MENU
  1
.
  9
$ELEVATION
 40
0.0
  9
$PELEVATION
 40
0.0
  9
$THICKNESS
 40
0.0
  9
$LIMCHECK
 70
0
  9
$CHAMFERA
 40
0.0
  9
$CHAMFERB
 40
0.0
  9
$CHAMFERC
 40
0.0
  9
$CHAMFERD
 40
0.0
  9
$SKPOLY
 70
0
  9
$TDCREATE
 40
2460908.103113426
  9
$TDUCREATE
 40
2458532.153996898
  9
$TDUPDATE
 40
2460908.103113426
  9
$TDUUPDATE
 40
2458532.1544311
  9
$TDINDWG
 40
0.0
  9
$TDUSRTIMER
 40
0.0
  9
$USRTIMER
 70
1
  9
$ANGBASE
 50
0.0
  9
$ANGDIR
 70
0
  9
$PDMODE
 70
0
  9
$PDSIZE
 40
0.0
  9
$PLINEWID
 40
0.0
  9
$SPLFRAME
 70
0
  9
$SPLINETYPE
 70
6
  9
$SPLINESEGS
 70
8
  9
$HANDSEED
  5
33
  9
$SURFTAB1
 70
6
  9
$SURFTAB2
 70
6
  9
$SURFTYPE
 70
6
  9
$SURFU
 70
6
  9
$SURFV
 70
6
  9
$UCSBASE
  2

  9
$UCSNAME
  2

  9
$UCSORG
 10
0.0
 20
0.0
 30
0.0
  9
$UCSXDIR
 10
1.0
 20
0.0
 30
0.0
  9
$UCSYDIR
 10
0.0
 20
1.0
 30
0.0
  9
$UCSORTHOREF
  2

  9
$UCSORTHOVIEW
 70
0
  9
$UCSORGTOP
 10
0.0
 20
0.0
 30
0.0
  9
$UCSORGBOTTOM
 10
0.0
 20
0.0
 30
0.0
  9
$UCSORGLEFT
 10
0.0
 20
0.0
 30
0.0
  9
$UCSORGRIGHT
 10
0.0
 20
0.0
 30
0.0
  9
$UCSORGFRONT
 10
0.0
 20
0.0
 30
0.0
  9
$UCSORGBACK
 10
0.0
 20
0.0
 30
0.0
  9
$PUCSBASE
  2

  9
$PUCSNAME
  2

  9
$PUCSORG
 10
0.0
 20
0.0
 30
0.0
  9
$PUCSXDIR
 10
1.0
 20
0.0
 30
0.0
  9
$PUCSYDIR
 10
0.0
 20
1.0
 30
0.0
  9
$PUCSORTHOREF
  2

  9
$PUCSORTHOVIEW
 70
0
  9
$PUCSORGTOP
 10
0.0
 20
0.0
 30
0.0
  9
$PUCSORGBOTTOM
 10
0.0
 20
0.0
 30
0.0
  9
$PUCSORGLEFT
 10
0.0
 20
0.0
 30
0.0
  9
$PUCSORGRIGHT
 10
0.0
 20
0.0
 30
0.0
  9
$PUCSORGFRONT
 10
0.0
 20
0.0
 30
0.0
  9
$PUCSORGBACK
 10
0.0
 20
0.0
 30
0.0
  9
$USERI1
 70
0
  9
$USERI2
 70
0
  9
$USERI3
 70
0
  9
$USERI4
 70
0
  9
$USERI5
 70
0
  9
$USERR1
 40
0.0
  9
$USERR2
 40
0.0
  9
$USERR3
 40
0.0
  9
$USERR4
 40
0.0
  9
$USERR5
 40
0.0
  9
$WORLDVIEW
 70
1
  9
$SHADEDGE
 70
3
  9
$SHADEDIF
 70
70
  9
$TILEMODE
 70
1
  9
$MAXACTVP
 70
64
  9
$PINSBASE
 10
0.0
 20
0.0
 30
0.0
  9
$PLIMCHECK
 70
0
  9
$PEXTMIN
 10
1e+20
 20
1e+20
 30
1e+20
  9
$PEXTMAX
 10
-1e+20
 20
-1e+20
 30
-1e+20
  9
$PLIMMIN
 10
0.0
 20
0.0
  9
$PLIMMAX
 10
420.0
 20
297.0
  9
$UNITMODE
 70
0
  9
$VISRETAIN
 70
1
  9
$PLINEGEN
 70
0
  9
$PSLTSCALE
 70
1
  9
$TREEDEPTH
 70
3020
  9
$CMLSTYLE
  2
Standard
  9
$CMLJUST
 70
0
  9
$CMLSCALE
 40
20.0
  9
$PROXYGRAPHICS
 70
1
  9
$MEASUREMENT
 70
1
  9
$CELWEIGHT
370
-1
  9
$ENDCAPS
280
0
  9
$JOINSTYLE
280
0
  9
$LWDISPLAY
290
0
  9
$INSUNITS
 70
6
  9
$HYPERLINKBASE
  1

  9
$STYLESHEET
  1

  9
$XEDIT
290
1
  9
$CEPSNTYPE
380
0
  9
$PSTYLEMODE
290
1
  9
$FINGERPRINTGUID
  2
{A33895CA-8CF2-4075-BA98-344B4E2E15B1}
  9
$VERSIONGUID
  2
{F8A23243-6AEB-42BA-949F-19E5F3F682E5}
  9
$EXTNAMES
290
1
  9
$PSVPSCALE
 40
0.0
  9
$OLESTARTUP
290
0
  9
$SORTENTS
280
127
  9
$INDEXCTL
280
0
  9
$HIDETEXT
280
1
  9
$XCLIPFRAME
280
1
  9
$HALOGAP
280
0
  9
$OBSCOLOR
 70
257
  9
$OBSLTYPE
280
0
  9
$INTERSECTIONDISPLAY
280
0
  9
$INTERSECTIONCOLOR
 70
257
  9
$DIMASSOC
280
2
  9
$PROJECTNAME
  1

  9
$CAMERADISPLAY
290
0
  9
$LENSLENGTH
 40
50.0
  9
$CAMERAHEIGHT
 40
0.0
  9
$STEPSPERSEC
 40
24.0
  9
$STEPSIZE
 40
100.0
  9
$3DDWFPREC
 40
2.0
  9
$PSOLWIDTH
 40
0.005
  9
$PSOLHEIGHT
 40
0.08
  9
$LOFTANG1
 40
1.570796326795
  9
$LOFTANG2
 40
1.570796326795
  9
$LOFTMAG1
 40
0.0
  9
$LOFTMAG2
 40
0.0
  9
$LOFTPARAM
 70
7
  9
$LOFTNORMALS
280
1
  9
$LATITUDE
 40
37.795
  9
$LONGITUDE
 40
-122.394
  9
$NORTHDIRECTION
 40
0.0
  9
$TIMEZONE
 70
-8000
  9
$LIGHTGLYPHDISPLAY
280
1
  9
$TILEMODELIGHTSYNCH
280
1
  9
$CMATERIAL
347
20
  9
$SOLIDHIST
280
0
  9
$SHOWHIST
280
1
  9
$DWFFRAME
280
2
  9
$DGNFRAME
280
2
  9
$REALWORLDSCALE
290
1
  9
$INTERFERECOLOR
 62
256
  9
$CSHADOW
280
0
  9
$SHADOWPLANELOCATION
 40
0.0
  0
ENDSEC
  0
SECTION
  2
CLASSES
  0
CLASS
  1
ACDBDICTIONARYWDFLT
  2
AcDbDictionaryWithDefault
  3
ObjectDBX Classes
 90
0
 91
0
280
0
281
0
  0
CLASS
  1
SUN
  2
AcDbSun
  3
SCENEOE
 90
1153
 91
0
280
0
281
0
  0
CLASS
  1
VISUALSTYLE
  2
AcDbVisualStyle
  3
ObjectDBX Classes
 90
4095
 91
0
280
0
281
0
  0
CLASS
  1
MATERIAL
  2
AcDbMaterial
  3
ObjectDBX Classes
 90
1153
 91
0
280
0
281
0
  0
CLASS
  1
SCALE
  2
AcDbScale
  3
ObjectDBX Classes
 90
1153
 91
0
280
0
281
0
  0
CLASS
  1
TABLESTYLE
  2
AcDbTableStyle
  3
ObjectDBX Classes
 90
4095
 91
0
280
0
281
0
  0
CLASS
  1
MLEADERSTYLE
  2
AcDbMLeaderStyle
  3
ACDB_MLEADERSTYLE_CLASS
 90
4095
 91
0
280
0
281
0
  0
CLASS
  1
DICTIONARYVAR
  2
AcDbDictionaryVar
  3
ObjectDBX Classes
 90
0
 91
0
280
0
281
0
  0
CLASS
  1
CELLSTYLEMAP
  2
AcDbCellStyleMap
  3
ObjectDBX Classes
 90
1152
 91
0
280
0
281
0
  0
CLASS
  1
MENTALRAYRENDERSETTINGS
  2
AcDbMentalRayRenderSettings
  3
SCENEOE
 90
1024
 91
0
280
0
281
0
  0
CLASS
  1
ACDBDETAILVIEWSTYLE
  2
AcDbDetailViewStyle
  3
ObjectDBX Classes
 90
1025
 91
0
280
0
281
0
  0
CLASS
  1
ACDBSECTIONVIEWSTYLE
  2
AcDbSectionViewStyle
  3
ObjectDBX Classes
 90
1025
 91
0
280
0
281
0
  0
CLASS
  1
RASTERVARIABLES
  2
AcDbRasterVariables
  3
ISM
 90
0
 91
0
280
0
281
0
  0
CLASS
  1
LAYOUT
  2
AcDbLayout
  3
ObjectDBX Classes
 90
0
 91
0
280
0
281
0
  0
CLASS
  1
ACDBPLACEHOLDER
  2
AcDbPlaceHolder
  3
ObjectDBX Classes
 90
0
 91
0
280
0
281
0
  0
ENDSEC
  0
SECTION
  2
TABLES
  0
TABLE
  2
VPORT
  5
8
330
0
100
AcDbSymbolTable
 70
1
  0
VPORT
  5
23
330
8
100
AcDbSymbolTableRecord
100
AcDbViewportTableRecord
  2
*Active
 70
0
 10
0.0
 20
0.0
 11
1.0
 21
1.0
 12
0.0
 22
0.0
 13
0.0
 23
0.0
 14
0.5
 24
0.5
 15
0.5
 25
0.5
 16
0.0
 26
0.0
 36
1.0
 17
0.0
 27
0.0
 37
0.0
 40
1000.0
 41
1.34
 42
50.0
 43
0.0
 44
0.0
 50
0.0
 51
0.0
 71
0
 72
1000
 73
1
 74
3
 75
0
 76
0
 77
0
 78
0
281
0
 65
0
146
0.0
  0
ENDTAB
  0
TABLE
  2
LTYPE
  5
2
330
0
100
AcDbSymbolTable
 70
3
  0
LTYPE
  5
24
330
2
100
AcDbSymbolTableRecord
100
AcDbLinetypeTableRecord
  2
ByBlock
 70
0
  3

 72
65
 73
0
 40
0.0
  0
LTYPE
  5
25
330
2
100
AcDbSymbolTableRecord
100
AcDbLinetypeTableRecord
  2
ByLayer
 70
0
  3

 72
65
 73
0
 40
0.0
  0
LTYPE
  5
26
330
2
100
AcDbSymbolTableRecord
100
AcDbLinetypeTableRecord
  2
Continuous
 70
0
  3

 72
65
 73
0
 40
0.0
  0
ENDTAB
  0
TABLE
  2
LAYER
  5
1
330
0
100
AcDbSymbolTable
 70
2
  0
LAYER
  5
27
330
1
100
AcDbSymbolTableRecord
100
AcDbLayerTableRecord
  2
0
 70
0
 62
7
  6
Continuous
370
-3
390
13
347
21
  0
LAYER
  5
28
330
1
100
AcDbSymbolTableRecord
100
AcDbLayerTableRecord
  2
Defpoints
 70
0
 62
7
  6
Continuous
290
0
370
-3
390
13
347
21
  0
ENDTAB
  0
TABLE
  2
STYLE
  5
5
330
0
100
AcDbSymbolTable
 70
1
  0
STYLE
  5
29
330
5
100
AcDbSymbolTableRecord
100
AcDbTextStyleTableRecord
  2
Standard
 70
0
 40
0.0
 41
1.0
 50
0.0
 71
0
 42
2.5
  3
txt
  4

  0
ENDTAB
  0
TABLE
  2
VIEW
  5
7
330
0
100
AcDbSymbolTable
 70
0
  0
ENDTAB
  0
TABLE
  2
UCS
  5
6
330
0
100
AcDbSymbolTable
 70
0
  0
ENDTAB
  0
TABLE
  2
APPID
  5
3
330
0
100
AcDbSymbolTable
 70
3
  0
APPID
  5
2A
330
3
100
AcDbSymbolTableRecord
100
AcDbRegAppTableRecord
  2
ACAD
 70
0
  0
APPID
  5
30
330
3
100
AcDbSymbolTableRecord
100
AcDbRegAppTableRecord
  2
HATCHBACKGROUNDCOLOR
 70
0
  0
APPID
  5
31
330
3
100
AcDbSymbolTableRecord
100
AcDbRegAppTableRecord
  2
EZDXF
 70
0
  0
ENDTAB
  0
TABLE
  2
DIMSTYLE
  5
4
330
0
100
AcDbSymbolTable
 70
1
100
AcDbDimStyleTable
  0
DIMSTYLE
105
2B
330
4
100
AcDbSymbolTableRecord
100
AcDbDimStyleTableRecord
  2
Standard
 70
0
 40
1.0
 41
2.5
 42
0.625
 43
3.75
 44
1.25
 45
0.0
 46
0.0
 47
0.0
 48
0.0
 49
2.5
140
2.5
141
2.5
142
0.0
143
0.03937007874
144
1.0
145
0.0
146
1.0
147
0.625
148
0.0
 69
0
 70
0
 71
0
 72
0
 73
0
 74
0
 75
0
 76
0
 77
1
 78
8
 79
3
170
0
171
3
172
1
173
0
174
0
175
0
176
0
177
0
178
0
179
2
271
2
272
2
273
2
274
3
275
0
276
0
277
2
278
44
279
0
280
0
281
0
282
0
283
0
284
8
285
0
286
0
288
0
289
3
290
0
371
-2
372
-2
  0
ENDTAB
  0
TABLE
  2
BLOCK_RECORD
  5
9
330
0
100
AcDbSymbolTable
 70
2
  0
BLOCK_RECORD
  5
17
330
9
100
AcDbSymbolTableRecord
100
AcDbBlockTableRecord
  2
*Model_Space
340
1A
 70
0
280
1
281
0
  0
BLOCK_RECORD
  5
1B
330
9
100
AcDbSymbolTableRecord
100
AcDbBlockTableRecord
  2
*Paper_Space
340
1E
 70
0
280
1
281
0
  0
ENDTAB
  0
ENDSEC
  0
SECTION
  2
BLOCKS
  0
BLOCK
  5
18
330
17
100
AcDbEntity
  8
0
100
AcDbBlockBegin
  2
*Model_Space
 70
0
 10
0.0
 20
0.0
 30
0.0
  3
*Model_Space
  1

  0
ENDBLK
  5
19
330
17
100
AcDbEntity
  8
0
100
AcDbBlockEnd
  0
BLOCK
  5
1C
330
1B
100
AcDbEntity
  8
0
100
AcDbBlockBegin
  2
*Paper_Space
 70
0
 10
0.0
 20
0.0
 30
0.0
  3
*Paper_Space
  1

  0
ENDBLK
  5
1D
330
1B
100
AcDbEntity
  8
0
100
AcDbBlockEnd
  0
ENDSEC
  0
SECTION
  2
ENTITIES
  0
LWPOLYLINE
  5
2F
330
17
100
AcDbEntity
  8
0
100
AcDbPolyline
 90
721
 70
1
 10
72.51328398584873
 20
48.950122924204834
 10
72.51072750967816
 20
48.94948067921474
 10
72.50320366852812
 20
48.94733681526226
 10
72.49100312807508
 20
48.94325783357521
 10
72.47387293573678
 20
48.93738651533545
 10
72.45224649388084
 20
48.92954542884624
 10
72.42594349816383
 20
48.919769007710414
 10
72.39492879527825
 20
48.90787520728476
 10
72.35941791559596
 20
48.89401153015365
 10
72.31937570580943
 20
48.87799593167387
 10
72.27454899517355
 20
48.85997151839537
 10
72.22529875597981
 20
48.83986888083238
 10
72.17151704123997
 20
48.81761453883279
 10
72.11313112999412
 20
48.793316948431695
 10
72.05028646416196
 20
48.76675919755893
 10
71.9828374563819
 20
48.738158415196736
 10
71.91096462916018
 20
48.70747984237416
 10
71.83456003550849
 20
48.674649998939145
 10
71.75355095446693
 20
48.63977734092675
 10
71.66819048405978
 20
48.60271887024308
 10
71.5782253080999
 20
48.56361791035013
 10
71.48380079578607
 20
48.522257657633816
 10
71.38498696284945
 20
48.479002635204644
 10
71.2815331256107
 20
48.433523295835094
 10
71.17376247054617
 20
48.386041056085716
 10
71.061459394563
 20
48.336408521828226
 10
70.94473148104476
 20
48.28469971549485
 10
70.82357865727047
 20
48.23091474554167
 10
70.69792812955937
 20
48.175162176459764
 10
70.56777967974851
 20
48.117442333617234
 10
70.4332786770367
 20
48.05753841339999
 10
70.2942796067832
 20
47.995667436334195
 10
70.15096270061052
 20
47.93179507727311
 10
70.00314743601237
 20
47.865956095187606
 10
69.85097896402456
 20
47.79793401183168
 10
69.69441964427389
 20
47.728019436339686
 10
69.53339653763756
 20
47.65632115011474
 10
69.36812766155326
 20
47.58251400196375
 10
69.19835955439197
 20
47.50674153226078
 10
69.0243804674854
 20
47.42904278755512
 10
68.84590185861796
 20
47.3493791551216
 10
68.66313918544066
 20
47.267898246000655
 10
68.47598442824415
 20
47.184526688496206
 10
68.28454524313292
 20
47.09933839658449
 10
68.08878633135753
 20
47.01215154253437
 10
67.88881534902248
 20
46.9230400403221
 10
67.68437883449877
 20
46.83214743032175
 10
67.4757649663972
 20
46.739512867538636
 10
67.26286572500842
 20
46.64506298027672
 10
67.04568096489055
 20
46.54879798544807
 10
66.82421032243879
 20
46.45071842533285
 10
66.59848887823972
 20
46.351006453030315
 10
66.36848118810191
 20
46.249480457721376
 10
66.13422225989103
 20
46.14632270096132
 10
65.89578445096214
 20
46.04142526899526
 10
65.65331313051396
 20
45.9345713582091
 10
65.40677036728937
 20
45.826052011561245
 10
65.15590277238032
 20
45.71601066096978
 10
64.90070998218202
 20
45.60444784871485
 10
64.64151788839949
 20
45.49111201221147
 10
64.37825347918904
 20
45.37611204131884
 10
64.11091660910876
 20
45.25944815294903
 10
63.83928875167429
 20
45.14144625748743
 10
63.56373329352202
 20
45.0215644001268
 10
63.284212448836726
 20
44.9000934069135
 10
63.000653278495676
 20
44.77714205925072
 10
62.712874969108796
 20
44.65274554993349
 10
62.42116562656585
 20
44.5269431424232
 10
62.1254898793965
 20
44.39955311744474
 10
61.82584758215877
 20
44.270575691910174
 10
61.522200803595574
 20
44.14030190877797
 10
61.21484013666246
 20
44.00829837773197
 10
60.903512192451366
 20
43.87470853069021
 10
60.58835956221148
 20
43.739788651640254
 10
60.26938202777992
 20
43.60353906595021
 10
59.94661701136709
 20
43.46566948985386
 10
59.619991428408326
 20
43.32628892166646
 10
59.28972073655456
 20
43.1855449724284
 10
58.95555140145582
 20
43.04358129096982
 10
58.617701367828815
 20
42.9000728345536
 10
58.27627821905705
 20
42.755093625612
 10
57.931281736977674
 20
42.60864398951314
 10
57.58256611606618
 20
42.460941380607345
 10
57.230131138159685
 20
42.3119861242627
 10
56.87404930605516
 20
42.161670089812255
 10
56.5146087983634
 20
42.010032432261326
 10
56.151520854705915
 20
41.85703486425288
 10
55.78489313118723
 20
41.70275129976315
 10
55.41505144679144
 20
41.546930284663155
 10
55.04181484268643
 20
41.38960722866001
 10
54.66507281209723
 20
41.23118141383518
 10
54.28493301112832
 20
41.07172675416487
 10
53.90132476955983
 20
40.91087970264289
 10
53.51468185336415
 20
40.748462285292334
 10
53.12471308781808
 20
40.58490876007764
 10
52.731490975718536
 20
40.42011099633182
 10
52.33494250522188
 20
40.25417788391413
 10
51.93532070163133
 20
40.08696653318665
 10
51.532625419504996
 20
39.91847716106149
 10
51.12674842097065
 20
39.748636721210666
 10
50.717832515440364
 20
39.57770117225363
 10
50.305769610483864
 20
39.40559725095035
 10
49.89081280412539
 20
39.232181959206955
 10
49.47296180548105
 20
39.057455730847536
 10
49.05232434337634
 20
38.88149237139233
 10
48.62871945897925
 20
38.70432729054844
 10
48.20210943919549
 20
38.52625120590619
 10
47.7726041363115
 20
38.34686581148849
 10
47.34045459761151
 20
38.1665001122427
 10
46.905735522074394
 20
37.98457375754851
 10
46.468373825135494
 20
37.80119574572116
 10
46.028367092450026
 20
37.61683862208211
 10
45.58564231217432
 20
37.431611276490585
 10
45.140201535048334
 20
37.24504170590527
 10
44.69262184550327
 20
37.057207135776515
 10
44.242651832650076
 20
36.86777910343709
 10
43.790288936702034
 20
36.677230371120515
 10
43.33535227154811
 20
36.485596240077896
 10
42.878130306682905
 20
36.292915431490414
 10
42.41873303983476
 20
36.09878942246887
 10
41.95712275790943
 20
35.90350893060361
 10
41.493153728103366
 20
35.7072913017889
 10
41.02718940977394
 20
35.509594472761485
 10
40.55930230571808
 20
35.31031031285439
 10
40.08934455967133
 20
35.110128279459225
 10
39.61717270773302
 20
34.90879339006088
 10
39.14292977747804
 20
34.706561277910666
 10
38.66705194922361
 20
34.50278142371025
 10
38.18946628384697
 20
34.29756260886281
 10
37.71002719398653
 20
34.091121962350556
 10
37.228516153157905
 20
33.883785394558856
 10
36.745440084619126
 20
33.67526582473957
 10
36.26087346918624
 20
33.464983227640495
 10
35.77492220310753
 20
33.25348308645499
 10
35.287006278560376
 20
33.04116148024646
 10
34.79752459909346
 20
32.82765795657068
 10
34.30676768494142
 20
32.61253923356759
 10
33.814806206324135
 20
32.396168858243385
 10
33.32135103925828
 20
32.17850908552118
 10
32.82654542948173
 20
31.959815223284227
 10
32.33035386008211
 20
31.739905769169482
 10
31.83302971996748
 20
31.518637291258916
 10
31.334680956126196
 20
31.296083269704628
 10
30.835199257965108
 20
31.072170766634684
 10
30.33480073762378
 20
30.847046416985187
 10
29.833268992078803
 20
30.62056401964417
 10
29.330674546108146
 20
30.39308733852995
 10
28.827090193392607
 20
30.164507809151416
 10
28.322879247847602
 20
29.93428358515737
 10
27.817896122111502
 20
29.70263179553
 10
27.312284280085024
 20
29.469807422784456
 10
26.805754597784862
 20
29.235772721843833
 10
26.298668629270313
 20
29.000457415574108
 10
25.791099022780276
 20
28.763753156396227
 10
25.28311842655363
 20
28.525551596731166
 10
24.774581107786844
 20
28.286070082473202
 10
24.265522583392247
 20
28.04549011598536
 10
23.755942635206967
 20
27.803812022635746
 10
23.246167518540812
 20
27.560783697559174
 10
22.736161716481462
 20
27.316223638392632
 10
22.22610596969807
 20
27.070096760797107
 10
21.715890280462308
 20
26.822801587661793
 10
21.205188175301476
 20
26.574590549219977
 10
20.69436142643774
 20
26.325393042969516
 10
20.18388356367771
 20
26.074268374301887
 10
19.673318043099414
 20
25.82186760479562
 10
19.162808692208326
 20
25.568445174685657
 10
18.652392496889092
 20
25.31371145094202
 10
18.142142250822506
 20
25.057557869073584
 10
17.632056048710535
 20
24.8004562152096
 10
17.122098519082726
 20
24.542224770074938
 10
16.612595844527974
 20
24.282611537260486
 10
16.103439787174068
 20
24.021543470438267
 10
15.594774174526526
 20
23.759275009843254
 10
15.08652614018354
 20
23.495914828422556
 10
14.578913919745649
 20
23.231137449614955
 10
14.071864646811068
 20
22.965051546367576
 10
13.565413911013108
 20
22.69783851258742
 10
13.059235311600016
 20
22.429750670051728
 10
12.55398165007528
 20
22.160283375206003
 10
12.049652926438897
 20
21.889436628050248
 10
11.54617649245198
 20
21.6173187761635
 10
11.043479481712758
 20
21.344038492492892
 10
10.541743071216148
 20
21.06956004196321
 10
10.040786229409141
 20
20.793918942737594
 10
9.54089822571694
 20
20.517152722980867
 10
9.04222457478021
 20
20.23904436216685
 10
8.544692555639086
 20
19.95970231633061
 10
8.048229520054683
 20
19.679234933051184
 10
7.552908188986862
 20
19.39753375629351
 10
7.059090770983527
 20
19.114527532819206
 10
6.5665234408108715
 20
18.830360345282543
 10
6.075169212584266
 20
18.545321826713494
 10
5.585283380509807
 20
18.258796759064804
 10
5.09693719657506
 20
17.971147821694412
 10
4.60991271606335
 20
17.682700057339424
 10
4.124319645819162
 20
17.393055376934786
 10
3.640520339832332
 20
17.10214231033006
 10
3.1583694289041184
 20
16.810177661139345
 10
2.6779039716401143
 20
16.51687168787662
 10
2.199195438190754
 20
16.222586744531725
 10
1.7222809598825988
 20
15.927032981162606
 10
1.2473046551049614
 20
15.630464404180069
 10
0.7738317397919973
 20
15.333060505945467
 10
0.30222456793354463
 20
15.034749816308373
 10
-0.16722597663098987
 20
14.735098511128516
 10
-0.634592396698577
 20
14.434214721072857
 10
-1.0999844718346712
 20
14.132496643662485
 10
-1.5633291901955597
 20
13.829835389038202
 10
-2.024553758100462
 20
13.526122392708887
 10
-2.483549646793325
 20
13.221430267178372
 10
-2.9405706815079746
 20
12.915903095100898
 10
-3.3956535572452036
 20
12.609830075682318
 10
-3.8483989341305342
 20
12.302850105742205
 10
-4.2986612248023395
 20
11.994746056298364
 10
-4.746585653017454
 20
11.685734514052818
 10
-5.192129793372345
 20
11.375986678045258
 10
-5.6353903211065965
 20
11.065412257438153
 10
-6.076331282982097
 20
10.754192103858326
 10
-6.514916943923651
 20
10.44250739430068
 10
-6.950964876126893
 20
10.129851583665113
 10
-7.384366623556776
 20
9.816297392911462
 10
-7.815377334977488
 20
9.502459823174917
 10
-8.24396002450438
 20
9.188049241425501
 10
-8.669825059107483
 20
8.873102633547841
 10
-9.093189350856925
 20
8.557474557622234
 10
-9.513835987682556
 20
8.241310455568394
 10
-9.931801955469036
 20
7.924899960416296
 10
-10.347376887246337
 20
7.608206086281309
 10
-10.760088722180141
 20
7.290759273947946
 10
-11.170156873959414
 20
6.973355701546317
 10
-11.577835240538928
 20
6.65613956018671
 10
-11.982795952194651
 20
6.3383873926988565
 10
-12.384713640821372
 20
6.020317361962323
 10
-12.78391492533371
 20
5.702182115122456
 10
-13.180472526691526
 20
5.3840901082143215
 10
-13.574241002975109
 20
5.0658244291677885
 10
-13.965076163074176
 20
4.7476389759376225
 10
-14.353194919058867
 20
4.429388306604128
 10
-14.738598521738593
 20
4.111543231192205
 10
-15.121141529193668
 20
3.793886837631719
 10
-15.500751220464222
 20
3.4763106698876083
 10
-15.877500316510115
 20
3.158923183994934
 10
-16.251425803215984
 20
2.8420140129836846
 10
-16.62263613661689
 20
2.525510435894012
 10
-16.990768962723
 20
2.2093409825754824
 10
-17.355824281534307
 20
1.8935056530280954
 10
-17.717837828126036
 20
1.5778232702569277
 10
-18.076773867422972
 20
1.2624750112569054
 10
-18.432850562304658
 20
0.9477862441332281
 10
-18.786032177695883
 20
0.6339381458808179
 10
-19.13602782975725
 20
0.3204968923594012
 10
-19.482945974523812
 20
0.007389762609130706
 10
-19.82638852293052
 20
-0.3052735365255131
 10
-20.166790549927068
 20
-0.617313078859027
 10
-20.504224776473308
 20
-0.9286204083563425
 10
-20.838474290499096
 20
-1.2390500830977509
 10
-21.16946637104459
 20
-1.5487105591183323
 10
-21.497091311265294
 20
-1.8579999254831294
 10
-21.82153153896555
 20
-2.1664116370920277
 10
-22.14300521702492
 20
-2.4736203258398204
 10
-22.46104028460907
 20
-2.7800955509419927
 10
-22.775745197753075
 20
-3.0859100333584
 10
-23.087048486306486
 20
-3.3907014190991993
 10
-23.395058606304392
 20
-3.6945424291242484
 10
-23.699848278706632
 20
-3.9973246073984736
 10
-24.001090884598586
 20
-4.299300601067227
 10
-24.298931865899956
 20
-4.600253498060377
 10
-24.593371222610745
 20
-4.90018329837792
 10
-24.884699838570356
 20
-5.198656177879585
 10
-25.172628080748808
 20
-5.4956351506807355
 10
-25.45715469833668
 20
-5.791591026806281
 10
-25.738025793379194
 20
-6.086667997366504
 10
-26.015423793680693
 20
-6.380359517261284
 10
-26.28960259719595
 20
-6.67252139538033
 10
-26.56016286405049
 20
-6.963514734904069
 10
-26.82714158012895
 20
-7.253049902802513
 10
-27.090828378461303
 20
-7.541163884960289
 10
-27.35100634697744
 20
-7.8277112394577
 10
-27.60745732279778
 20
-8.113017334399952
 10
-27.860399468801898
 20
-8.396756801681839
 10
-28.109905505949634
 20
-8.678821185268292
 10
-28.35590271328114
 20
-8.959318941194377
 10
-28.59828263476134
 20
-9.238177348500246
 10
-28.836972549430396
 20
-9.515504863220967
 10
-29.07215363428322
 20
-9.791265750281319
 10
-29.303608977249677
 20
-10.065314567761604
 10
-29.531484020249476
 20
-10.337434403591685
 10
-29.75585023343304
 20
-10.607987611761398
 10
-29.97638224869517
 20
-10.87675602939119
 10
-30.19311580111108
 20
-11.143920833475981
 10
-30.40634177452018
 20
-11.409048199875496
 10
-30.61606016892247
 20
-11.672138128589744
 10
-30.822017086363186
 20
-11.933334810729
 10
-31.02413980588245
 20
-12.192746702328327
 10
-31.222464062555506
 20
-12.45055498038266
 10
-31.41713654911147
 20
-12.706071922796948
 10
-31.608193000625555
 20
-12.95947870656611
 10
-31.795487975178048
 20
-13.210992243760282
 10
-31.978913016733898
 20
-13.460539813419613
 10
-32.1586135672128
 20
-13.707904503473967
 10
-32.334444184695045
 20
-13.953303225993478
 10
-32.5064775901405
 20
-14.196627524943086
 10
-32.674786504509
 20
-14.437768944287708
 10
-32.83911702984579
 20
-14.67687167513764
 10
-32.99968732903041
 20
-14.913610349387676
 10
-33.156314974258535
 20
-15.14849151213794
 10
-33.30918239333449
 20
-15.381008618288304
 10
-33.45821686529844
 20
-15.611270123873842
 10
-33.60334566919051
 20
-15.839384484929615
 10
-33.74446034897565
 20
-16.065278980495776
 10
-33.881742081648774
 20
-16.288917875497113
 10
-34.01530057405438
 20
-16.509903080868558
 10
-34.144990384272745
 20
-16.72845150868026
 10
-34.270811512303894
 20
-16.944563158932212
 10
-34.39294513514271
 20
-17.1582022965492
 10
-34.511101619759245
 20
-17.36933193564658
 10
-34.625534864108246
 20
-17.57780788511408
 10
-34.736281854074356
 20
-17.783340511921708
 10
-34.84345104569264
 20
-17.986002537029314
 10
-34.94678854100834
 20
-18.185938151547184
 10
-35.046475517016354
 20
-18.383111620400097
 10
-35.14229506164656
 20
-18.577377501668355
 10
-35.2346095288888
 20
-18.768664325201534
 10
-35.32327472763278
 20
-18.956718193044843
 10
-35.40825367199386
 20
-19.141828738228277
 10
-35.48954636197206
 20
-19.323995960751844
 10
-35.567152797567374
 20
-19.503219860615538
 10
-35.64110996466442
 20
-19.679210804789367
 10
-35.71141786326322
 20
-19.851968793273333
 10
-35.77796678651927
 20
-20.0218919151325
 10
-35.840866441277065
 20
-20.188582081301806
 10
-35.8998259436972
 20
-20.352473115921526
 10
-35.95513617761909
 20
-20.513131194851383
 10
-36.006506259203306
 20
-20.670990142231652
 10
-36.054081630369566
 20
-20.82583304599219
 10
-36.09786229111786
 20
-20.97765990613301
 10
-36.137667064453275
 20
-21.12650645772932
 10
-36.17385830436565
 20
-21.272301230630685
 10
-36.20589247987024
 20
-21.415151430062764
 10
-36.234240400991936
 20
-21.55505830683497
 10
-36.25861243470075
 20
-21.691984875062662
 10
-36.27922674387624
 20
-21.825605766640646
 10
-36.29604634263376
 20
-21.9562106145989
 10
-36.309035495898115
 20
-22.08361824194251
 10
-36.318485087508705
 20
-22.20739482453121
 10
-36.32428541062104
 20
-22.327938451430047
 10
-36.32647345111975
 20
-22.444959489609033
 10
-36.325194650924544
 20
-22.55824102699804
 10
-36.32073989387483
 20
-22.667349239456787
 10
-36.31310917997061
 20
-22.772284126985276
 10
-36.302556407166655
 20
-22.872901498473226
 10
-36.28922826819209
 20
-22.968513631825594
 10
-36.27352410292138
 20
-23.058759423861954
 10
-36.25627957698813
 20
-23.142627035191484
 10
-36.23778682504115
 20
-23.219211831649
 10
-36.21931783847315
 20
-23.28685123763328
 10
-36.202144608676825
 20
-23.343882677543068
 10
-36.18779552661848
 20
-23.38755776461704
 10
-36.17819707232949
 20
-23.41523781893835
 10
-35.715498082582215
 20
-24.10976203729492
 10
-35.70972864896348
 20
-24.113911596846204
 10
-35.692493069067105
 20
-24.126251819464972
 10
-35.664082226732525
 20
-24.146348881010965
 10
-35.623151409607175
 20
-24.175973813120482
 10
-35.568390389604296
 20
-24.21754963444965
 10
-35.50347220060113
 20
-24.265363910215093
 10
-35.43054273631802
 20
-24.315981782369843
 10
-35.35076428130317
 20
-24.368138764377722
 10
-35.26555551967838
 20
-24.41948455854245
 10
-35.1754624840473
 20
-24.46897033958857
 10
-35.081065691279285
 20
-24.516199269260444
 10
-34.982547569178685
 20
-24.560664802457936
 10
-34.88019900158491
 20
-24.601933115040787
 10
-34.774165430417675
 20
-24.63978729493886
 10
-34.66444685567696
 20
-24.674227342152147
 10
-34.55122445435769
 20
-24.705217521605437
 10
-34.43453521234451
 20
-24.732468200268748
 10
-34.31430640867757
 20
-24.756087834177144
 10
-34.19071922035177
 20
-24.776040688255407
 10
-34.06351974941235
 20
-24.79247095361382
 10
-33.93278071681916
 20
-24.805270174217316
 10
-33.79886447656205
 20
-24.814366879915458
 10
-33.66122749765625
 20
-24.819868275933906
 10
-33.52026786916683
 20
-24.82188406911714
 10
-33.37569595806378
 20
-24.820377273580526
 10
-33.22769294134203
 20
-24.81531215424885
 10
-33.07633153996144
 20
-24.806580255087038
 10
-32.92139359104243
 20
-24.7945069442003
 10
-32.76302453650472
 20
-24.77887530951849
 10
-32.60093349250892
 20
-24.760119175181895
 10
-32.43533862193457
 20
-24.7379131730853
 10
-32.266202938897024
 20
-24.7125469362587
 10
-32.09341798736122
 20
-24.683947743742237
 10
-31.91683832540746
 20
-24.65233250760605
 10
-31.736645130030666
 20
-24.617665492774922
 10
-31.552765680270976
 20
-24.580055155283922
 10
-31.36519997612839
 20
-24.539501495133052
 10
-31.173621398688297
 20
-24.49625715946765
 10
-30.978319580980674
 20
-24.450359134172373
 10
-30.779150331895234
 20
-24.40155352129244
 10
-30.576330563502133
 20
-24.34998576274755
 10
-30.369606377846573
 20
-24.29580004964799
 10
-30.159086230963638
 20
-24.239069102953618
 10
-29.944734387778112
 20
-24.179611745669504
 10
-29.726804746244756
 20
-24.117283786685377
 10
-29.505116129368666
 20
-24.052120961076437
 10
-29.279812728260108
 20
-23.984377166797465
 10
-29.050786086884024
 20
-23.91397968288861
 10
-28.81803620524042
 20
-23.840928509349872
 10
-28.581781246208834
 20
-23.76489827807604
 10
-28.342129665824352
 20
-23.685961710026977
 10
-28.098973008051907
 20
-23.604046084242825
 10
-27.852274287006836
 20
-23.51944103375357
 10
-27.602033502689174
 20
-23.432146558559214
 10
-27.3485415389383
 20
-23.341728834519483
 10
-27.091761409869594
 20
-23.248477494664368
 10
-26.831657380407844
 20
-23.15221136199895
 10
-26.568156729593188
 20
-23.0530388925583
 10
-26.301367913460695
 20
-22.95103280730225
 10
-26.031363652970214
 20
-22.84608465019576
 10
-25.758071227161903
 20
-22.738302877273885
 10
-25.481490636035755
 20
-22.62768748853662
 10
-25.20169460055163
 20
-22.514130027948905
 10
-24.91871885578473
 20
-22.397811672505654
 10
-24.632563401735062
 20
-22.27873242220687
 10
-24.343192503327412
 20
-22.15671110005763
 10
-24.05067763071222
 20
-22.03211006004779
 10
-23.754983048814246
 20
-21.904748125182405
 10
-23.456036036673655
 20
-21.774733751496555
 10
-23.15401777128537
 20
-21.642031203915028
 10
-22.849146415528946
 20
-21.506315114332615
 10
-22.541203806524816
 20
-21.367910850854518
 10
-22.229936046318215
 20
-21.22696260459103
 10
-21.915741223974198
 20
-21.083580082386625
 10
-21.598547869342337
 20
-20.937400930251478
 10
-21.27842870338248
 20
-20.788316692150513
 10
-20.955455196245055
 20
-20.636689722073566
 10
-20.62944617093515
 20
-20.48255575509586
 10
-20.300547069372467
 20
-20.32569787914726
 10
-19.968866347592073
 20
-20.16618881518761
 10
-19.63447672655381
 20
-20.003920107181848
 10
-19.297160043378142
 20
-19.839217123235176
 10
-18.95706173998476
 20
-19.67186295127746
 10
-18.614036374453963
 20
-19.502074503378836
 10
-18.26851902173544
 20
-19.3296718533538
 10
-17.92022004879921
 20
-19.15461801531772
 10
-17.569247911680332
 20
-18.976985710230444
 10
-17.21563834545403
 20
-18.7969561150869
 10
-16.859428336004935
 20
-18.61423959685709
 10
-16.50058089744841
 20
-18.429125788571007
 10
-16.139277206779376
 20
-18.241578955153436
 10
-15.77544579384741
 20
-18.051236742614538
 10
-15.409303570722633
 20
-17.858244592874012
 10
-15.040632374525499
 20
-17.66292787403706
 10
-14.66943220525601
 20
-17.465286586103694
 10
-14.295703062914155
 20
-17.265320729073903
 10
-13.919771566414562
 20
-17.062777655802336
 10
-13.541783157676944
 20
-16.857440454218864
 10
-13.161338496826815
 20
-16.6496702275039
 10
-12.778654495934315
 20
-16.439612417577152
 10
-12.393768140884076
 20
-16.226977391408624
 10
-12.00693332963088
 20
-16.011620957888045
 10
-11.61793189929516
 20
-15.793868485120614
 10
-11.226726863992283
 20
-15.57400960613631
 10
-10.833355209606891
 20
-15.351754687905157
 10
-10.438035099018531
 20
-15.126778362321945
 10
-10.04083800237764
 20
-14.899442983376517
 10
-9.641691198724361
 20
-14.669857007103934
 10
-9.24037777598857
 20
-14.437874991584504
 10
-8.83729582323531
 20
-14.203606643662706
 10
-8.432482326349225
 20
-13.966762330308551
 10
-8.025937285330311
 20
-13.727342051522045
 10
-7.617696435253781
 20
-13.485526984298104
 10
-7.207396171320383
 20
-13.241859408812068
 10
-6.795363112444737
 20
-12.996086677918589
 10
-6.381779686431185
 20
-12.74770224651754
 10
-5.966573172319871
 20
-12.496814570643988
 10
-5.54996048218093
 20
-12.243569092217635
 10
-5.13154227613989
 20
-11.988326914418906
 10
-4.711572452151525
 20
-11.730943846137517
 10
-4.2900510102158265
 20
-11.471419887373461
 10
-3.8671233922525117
 20
-11.20953812605661
 10
-3.442716877301717
 20
-10.945407018222033
 10
-3.0169029355138783
 20
-10.679388917859562
 10
-2.5896100967385642
 20
-10.41112147097936
 10
-2.1612007149656103
 20
-10.140533207430996
 10
-1.7316020692351735
 20
-9.86773258324954
 10
-1.3007414385873939
 20
-9.592828054470054
 10
-0.8685830879470547
 20
-9.315638444097623
 10
-0.43559782733907476
 20
-9.03616500294167
 10
-0.0017499216882255093
 20
-8.754226554007268
 10
0.43350541079967014
 20
-8.470401112544971
 10
0.8698785370946193
 20
-8.184725664439426
 10
1.3068246754024453
 20
-7.896622194440067
 10
1.7447789006728345
 20
-7.6062706287324025
 10
2.183705477830584
 20
-7.3138521443113405
 10
2.623242052885846
 20
-7.019295271026459
 10
3.0635328169488965
 20
-6.722346110922986
 10
3.5043608579496173
 20
-6.423150105920618
 10
3.946125515762471
 20
-6.122068359199782
 10
4.388572892432681
 20
-5.818956679650195
 10
4.831230927125942
 20
-5.513345508056357
 10
5.274426238756852
 20
-5.205487491563636
 10
5.718341255129769
 20
-4.895889175272144
 10
6.162649575492939
 20
-4.58429823740464
 10
6.607398715717079
 20
-4.270551070843885
 10
7.052632352015124
 20
-3.9549472865750928
 10
7.498059818710558
 20
-3.6370533858260923
 10
7.943681261245294
 20
-3.3168695855089565
 10
8.38967910742367
 20
-2.9949024307238115
 10
8.836017913054308
 20
-2.6713335322897183
 10
9.282733485933395
 20
-2.345981821667782
 10
9.729499279867246
 20
-2.0185947601687033
 10
10.17646080949655
 20
-1.6893893683186343
 10
10.623618365705132
 20
-1.3583660799417274
 10
11.070863419736964
 20
-1.025597507541795
 10
11.517978026875374
 20
-0.6907586083817405
 10
11.965107629040062
 20
-0.3540662945316979
 10
12.412326198000304
 20
-0.01609983205164407
 10
12.859778215750216
 20
0.3233942431890501
 10
13.30702853461916
 20
0.6645959658319261
 10
13.754258477043964
 20
1.007469383889693
 10
14.201251130954493
 20
1.3518690554426482
 10
14.648187746066629
 20
1.6977591369595408
 10
15.09499567414148
 20
2.0452479760194002
 10
15.54153072406876
 20
2.3940816746674596
 10
15.988046793803251
 20
2.744116041793437
 10
16.434471380547972
 20
3.095459208064289
 10
16.88051463311005
 20
3.448074512963484
 10
17.32635787392633
 20
3.8019260045037435
 10
17.77203808888145
 20
4.156724049655075
 10
18.217372922892025
 20
4.5129750850615595
 10
18.662290760365714
 20
4.870316973645444
 10
19.10693704322221
 20
5.228532803336582
 10
19.551239123222626
 20
5.587730921714006
 10
19.99505155844726
 20
5.948128240847854
 10
20.438519863536772
 20
6.309507740211965
 10
20.881572204735924
 20
6.671507608096653
 10
21.324171741602008
 20
7.034417260619851
 10
21.766428180979513
 20
7.397838608716499
 10
22.20812321454696
 20
7.762097237403872
 10
22.64918419406546
 20
8.127301494261001
 10
23.089756561454713
 20
8.493234467217755
 10
23.529841131198378
 20
8.85942599698543
 10
23.969546577494416
 20
9.22594847915578
 10
24.40854613598627
 20
9.59305477778622
 10
24.84691238219188
 20
9.960636653753761
 10
25.28464538883219
 20
10.328693998602352
 10
25.721817731425162
 20
10.697118573209021
 10
26.158139413335977
 20
11.065873933969284
 10
26.593791829722463
 20
11.43492402043983
 10
27.0287388091836
 20
11.804088306361935
 10
27.463234613279013
 20
12.17322205834516
 10
27.896770791610482
 20
12.542614634714376
 10
28.329420137858847
 20
12.91215747097849
 10
28.761654712858416
 20
13.28138100792201
 10
29.19282091517515
 20
13.650791082115816
 10
29.62284580568631
 20
14.02049647496307
 10
30.05227438434897
 20
14.389918845845129
 10
30.481034599245007
 20
14.75869670842042
 10
30.908798726092297
 20
15.12755330294714
 10
31.335530738931777
 20
15.496307886254504
 10
31.761121745402647
 20
15.864888388118874
 10
32.18582586162253
 20
16.233150292061858
 10
32.609606988911416
 20
16.600912963368714
 10
33.0325376300663
 20
16.96806827137248
 10
33.454363668969506
 20
17.334760732551544
 10
33.874939372817494
 20
17.701207692800185
 10
34.29448283176887
 20
18.067083892469224
 10
34.71299397310267
 20
18.432389440014713
 10
35.13032780577804
 20
18.796871630498245
 10
35.54670175091186
 20
19.1606751466473
 10
35.961680006344814
 20
19.52398099920771
 10
36.375335147594846
 20
19.886680949056487
 10
36.78803048857737
 20
20.248233149842427
 10
37.199693381053514
 20
20.608745949144577
 10
37.60996052566095
 20
20.968292227041808
 10
38.01912206447636
 20
21.326908210226517
 10
38.42688756453923
 20
21.684558105830448
 10
38.833365627326536
 20
22.041314417901397
 10
39.2385927296762
 20
22.396888272601608
 10
39.64245990650642
 20
22.751207708163474
 10
40.045221273934864
 20
23.104128208108627
 10
40.44644081163934
 20
23.45583110855099
 10
40.84633594073673
 20
23.80646109221804
 10
41.24461622826649
 20
24.15598236624154
 10
41.64171763638289
 20
24.50374473669122
 10
42.03753127272516
 20
24.849676133343475
 10
42.431838232650975
 20
25.19457197513615
 10
42.82423911811807
 20
25.5383245074334
 10
43.2155331179221
 20
25.880210764682143
 10
43.605429726381516
 20
26.220195062470147
 10
43.99363769605216
 20
26.558711767217876
 10
44.380156881492084
 20
26.895761095837383
 10
44.76505978549827
 20
27.23123491766172
 10
45.148709867428046
 20
27.564591169427604
 10
45.53074360975624
 20
27.895903056582046
 10
45.91116048888303
 20
28.225640304589596
 10
46.28974242920288
 20
28.553659206827103
 10
46.66663465447266
 20
28.87974317659254
 10
47.04198246117014
 20
29.203675518727852
 10
47.415640116491765
 20
29.5256735791273
 10
47.78749843719288
 20
29.845665721391384
 10
48.15781161211209
 20
30.16350732058569
 10
48.526361565643924
 20
30.479054670087077
 10
48.893038881827685
 20
30.792705425136447
 10
49.257625339616006
 20
31.10431609602273
 10
49.6205929852901
 20
31.413886089802766
 10
49.98165125500059
 20
31.72091086424804
 10
50.341017860748195
 20
32.025534668261884
 10
50.69861979068919
 20
32.32786639170351
 10
51.0540935272984
 20
32.62797924001989
 10
51.40751142793088
 20
32.92576529945616
 10
51.759163852826205
 20
33.22126047133658
 10
52.108796554977914
 20
33.514140522779314
 10
52.45666357778269
 20
33.804261045762004
 10
52.80243757511632
 20
34.09187577199035
 10
53.146154500216916
 20
34.37716555309118
 10
53.4877778907996
 20
34.65995029662989
 10
53.827307455980595
 20
34.94023043643066
 10
54.16485210267383
 20
35.2176090764448
 10
54.500302487639594
 20
35.4924837634572
 10
54.83351303806935
 20
35.76460266017773
 10
55.16444698624137
 20
36.03425507426831
 10
55.49332234959328
 20
36.301115854535766
 10
55.82010252039836
 20
36.565005125457645
 10
56.144569044893174
 20
36.82624868896325
 10
56.466721704914896
 20
37.0848468704207
 10
56.78656020957965
 20
37.340800103654146
 10
57.10401177975974
 20
37.59374798688237
 10
57.419439569375555
 20
37.84361785693855
 10
57.73237071766225
 20
38.09088046605458
 10
58.04276868961397
 20
38.3353558302519
 10
58.35074215942874
 20
38.57711634512226
 10
58.6563273130606
 20
38.81587357065207
 10
58.95934217358407
 20
39.05166443493294
 10
59.25993180476095
 20
39.28474153444719
 10
59.558096002981486
 20
39.51463622829064
 10
59.853689108163074
 20
39.74156575390152
 10
60.14678362310271
 20
39.96542198061287
 10
60.43716102131602
 20
40.18653081881008
 10
60.724966526559825
 20
40.4046756817911
 10
61.01009081014755
 20
40.619785150068495
 10
61.292606374876165
 20
40.831751092975345
 10
61.57254931942567
 20
41.040754145226344
 10
61.84962855634689
 20
41.24675949005758
 10
62.12384372203505
 20
41.44976766974922
 10
62.3953764298108
 20
41.649742298489855
 10
62.66429947335496
 20
41.84657481178838
 10
62.930177850438795
 20
42.04044502737424
 10
63.19311376309482
 20
42.2314349934263
 10
63.45333242813571
 20
42.41920882160398
 10
63.71064917796046
 20
42.603807452872154
 10
63.96491842520748
 20
42.78544801621306
 10
64.21639443143629
 20
42.963985778236214
 10
64.4649314783965
 20
43.139169118563586
 10
64.71049294380822
 20
43.311287127945
 10
64.95300588854874
 20
43.480448587783606
 10
65.19236105665243
 20
43.64658197013594
 10
65.42870367187616
 20
43.8094706883
 10
65.66196064965524
 20
43.969223740591005
 10
65.89198640262804
 20
44.12605825599117
 10
66.11885336087057
 20
44.27986621228956
 10
66.3425977830579
 20
44.43035906101654
 10
66.5632193055852
 20
44.5775373444523
 10
66.78053600969484
 20
44.72190684850469
 10
66.99451121493915
 20
44.86328780610725
 10
67.20514484859719
 20
45.00168032571605
 10
67.41250926802397
 20
45.13697649357618
 10
67.61649528997484
 20
45.26910467328811
 10
67.81721166136872
 20
45.398137151987584
 10
68.01440382976216
 20
45.5242190968892
 10
68.20821687347012
 20
45.64713413820298
 10
68.39850520513095
 20
45.767099404911136
 10
68.58552315902514
 20
45.88397005516719
 10
68.76890692674374
 20
45.99781972824225
 10
68.94869267968765
 20
46.10882895039505
 10
69.12484388285114
 20
46.216817737647034
 10
69.29754214955486
 20
46.321749704186786
 10
69.46653220014582
 20
46.42377110178926
 10
69.63206800529976
 20
46.52273763088813
 10
69.79371761706824
 20
46.6188245540594
 10
69.9517660143398
 20
46.712075798373924
 10
70.10599701225392
 20
46.80234483735167
 10
70.25651950317148
 20
46.88970374121628
 10
70.40333334165047
 20
46.97415272687981
 10
70.54636558856825
 20
47.05580057574546
 10
70.68557985436088
 20
47.13446708692259
 10
70.82083040622487
 20
47.21036960630549
 10
70.95229907564377
 20
47.28347142271465
 10
71.07980374025016
 20
47.3538096811537
 10
71.20341704828297
 20
47.42127603404366
 10
71.32306620606133
 20
47.48597904587558
 10
71.43882371638227
 20
47.547810585982525
 10
71.55061678556497
 20
47.6068792188556
 10
71.65829989896874
 20
47.66340196502097
 10
71.76190916982671
 20
47.717090492921066
 10
71.86159009822643
 20
47.76819674830202
 10
71.95694241347408
 20
47.81661427800043
 10
72.04836616810059
 20
47.862449860547784
 10
72.13564299561668
 20
47.90556022314514
 10
72.21862738138161
 20
47.946162386318605
 10
72.29750108415809
 20
47.984219747344746
 10
72.37215484798037
 20
48.01966077828005
 10
72.44244323092884
 20
48.052702391194686
 10
72.50862064000493
 20
48.08319963578608
 10
72.57043252276526
 20
48.11129767926888
 10
72.62795145472776
 20
48.13688828252006
 10
72.68103199397272
 20
48.16018835760977
 10
72.72974686146003
 20
48.18108944850293
 10
72.77413230131154
 20
48.19977197300222
 10
72.81397001975897
 20
48.21609254985262
 10
72.84929647908706
 20
48.23023127148866
 10
72.8802207170986
 20
48.24225999122194
 10
72.90652444002518
 20
48.252035327797415
 10
72.9281712437499
 20
48.259846046596806
 10
72.94534317791914
 20
48.26565511107244
 10
72.95767621596103
 20
48.26953648586359
 10
72.96520703832323
 20
48.2716699380367
 10
72.96778998492319
 20
48.27227270503004
  0
ENDSEC
  0
SECTION
  2
OBJECTS
  0
DICTIONARY
  5
A
330
0
100
AcDbDictionary
280
0
281
1
  3
ACAD_COLOR
350
B
  3
ACAD_GROUP
350
C
  3
ACAD_LAYOUT
350
D
  3
ACAD_MATERIAL
350
E
  3
ACAD_MLEADERSTYLE
350
F
  3
ACAD_MLINESTYLE
350
10
  3
ACAD_PLOTSETTINGS
350
11
  3
ACAD_PLOTSTYLENAME
350
12
  3
ACAD_SCALELIST
350
14
  3
ACAD_TABLESTYLE
350
15
  3
ACAD_VISUALSTYLE
350
16
  3
EZDXF_META
350
2D
  0
DICTIONARY
  5
B
330
A
100
AcDbDictionary
280
0
281
1
  0
DICTIONARY
  5
C
330
A
100
AcDbDictionary
280
0
281
1
  0
DICTIONARY
  5
D
330
A
100
AcDbDictionary
280
0
281
1
  3
Model
350
1A
  3
Layout1
350
1E
  0
DICTIONARY
  5
E
330
A
100
AcDbDictionary
280
0
281
1
  3
ByBlock
350
1F
  3
ByLayer
350
20
  3
Global
350
21
  0
DICTIONARY
  5
F
330
A
100
AcDbDictionary
280
0
281
1
  3
Standard
350
2C
  0
DICTIONARY
  5
10
330
A
100
AcDbDictionary
280
0
281
1
  3
Standard
350
22
  0
DICTIONARY
  5
11
330
A
100
AcDbDictionary
280
0
281
1
  0
ACDBDICTIONARYWDFLT
  5
12
330
A
100
AcDbDictionary
280
0
281
1
  3
Normal
350
13
100
AcDbDictionaryWithDefault
340
13
  0
ACDBPLACEHOLDER
  5
13
330
12
  0
DICTIONARY
  5
14
330
A
100
AcDbDictionary
280
0
281
1
  0
DICTIONARY
  5
15
330
A
100
AcDbDictionary
280
0
281
1
  0
DICTIONARY
  5
16
330
A
100
AcDbDictionary
280
0
281
1
  0
LAYOUT
  5
1A
330
D
100
AcDbPlotSettings
  1

  4
A3
  6

 40
7.5
 41
20.0
 42
7.5
 43
20.0
 44
420.0
 45
297.0
 46
0.0
 47
0.0
 48
0.0
 49
0.0
140
0.0
141
0.0
142
1.0
143
1.0
 70
1024
 72
1
 73
0
 74
5
  7

 75
16
 76
0
 77
2
 78
300
147
1.0
148
0.0
149
0.0
100
AcDbLayout
  1
Model
 70
1
 71
0
 10
0.0
 20
0.0
 11
420.0
 21
297.0
 12
0.0
 22
0.0
 32
0.0
 14
1e+20
 24
1e+20
 34
1e+20
 15
-1e+20
 25
-1e+20
 35
-1e+20
146
0.0
 13
0.0
 23
0.0
 33
0.0
 16
1.0
 26
0.0
 36
0.0
 17
0.0
 27
1.0
 37
0.0
 76
1
330
17
  0
LAYOUT
  5
1E
330
D
100
AcDbPlotSettings
  1

  4
A3
  6

 40
7.5
 41
20.0
 42
7.5
 43
20.0
 44
420.0
 45
297.0
 46
0.0
 47
0.0
 48
0.0
 49
0.0
140
0.0
141
0.0
142
1.0
143
1.0
 70
0
 72
1
 73
0
 74
5
  7

 75
16
 76
0
 77
2
 78
300
147
1.0
148
0.0
149
0.0
100
AcDbLayout
  1
Layout1
 70
1
 71
1
 10
0.0
 20
0.0
 11
420.0
 21
297.0
 12
0.0
 22
0.0
 32
0.0
 14
1e+20
 24
1e+20
 34
1e+20
 15
-1e+20
 25
-1e+20
 35
-1e+20
146
0.0
 13
0.0
 23
0.0
 33
0.0
 16
1.0
 26
0.0
 36
0.0
 17
0.0
 27
1.0
 37
0.0
 76
1
330
1B
  0
MATERIAL
  5
1F
102
{ACAD_REACTORS
330
E
102
}
330
E
100
AcDbMaterial
  1
ByBlock
  2

 70
0
 40
1.0
 71
1
 41
1.0
 91
-1023410177
 42
1.0
 72
1
  3

 73
1
 74
1
 75
1
 44
0.5
 73
0
 45
1.0
 46
1.0
 77
1
  4

 78
1
 79
1
170
1
 48
1.0
171
1
  6

172
1
173
1
174
1
140
1.0
141
1.0
175
1
  7

176
1
177
1
178
1
143
1.0
179
1
  8

270
1
271
1
272
1
145
1.0
146
1.0
273
1
  9

274
1
275
1
276
1
 42
1.0
 72
1
  3

 73
1
 74
1
 75
1
 94
63
  0
MATERIAL
  5
20
102
{ACAD_REACTORS
330
E
102
}
330
E
100
AcDbMaterial
  1
ByLayer
  2

 70
0
 40
1.0
 71
1
 41
1.0
 91
-1023410177
 42
1.0
 72
1
  3

 73
1
 74
1
 75
1
 44
0.5
 73
0
 45
1.0
 46
1.0
 77
1
  4

 78
1
 79
1
170
1
 48
1.0
171
1
  6

172
1
173
1
174
1
140
1.0
141
1.0
175
1
  7

176
1
177
1
178
1
143
1.0
179
1
  8

270
1
271
1
272
1
145
1.0
146
1.0
273
1
  9

274
1
275
1
276
1
 42
1.0
 72
1
  3

 73
1
 74
1
 75
1
 94
63
  0
MATERIAL
  5
21
102
{ACAD_REACTORS
330
E
102
}
330
E
100
AcDbMaterial
  1
Global
  2

 70
0
 40
1.0
 71
1
 41
1.0
 91
-1023410177
 42
1.0
 72
1
  3

 73
1
 74
1
 75
1
 44
0.5
 73
0
 45
1.0
 46
1.0
 77
1
  4

 78
1
 79
1
170
1
 48
1.0
171
1
  6

172
1
173
1
174
1
140
1.0
141
1.0
175
1
  7

176
1
177
1
178
1
143
1.0
179
1
  8

270
1
271
1
272
1
145
1.0
146
1.0
273
1
  9

274
1
275
1
276
1
 42
1.0
 72
1
  3

 73
1
 74
1
 75
1
 94
63
  0
MLINESTYLE
  5
22
102
{ACAD_REACTORS
330
10
102
}
330
10
100
AcDbMlineStyle
  2
Standard
 70
0
  3

 62
256
 51
90.0
 52
90.0
 71
2
 49
0.5
 62
256
  6
BYLAYER
 49
-0.5
 62
256
  6
BYLAYER
  0
MLEADERSTYLE
  5
2C
102
{ACAD_REACTORS
330
F
102
}
330
F
100
AcDbMLeaderStyle
179
2
170
2
171
1
172
0
 90
2
 40
0.0
 41
0.0
173
1
 91
-1056964608
 92
-2
290
1
 42
2.0
291
1
 43
8.0
  3
Standard
 44
4.0
300

342
29
174
1
175
1
176
0
178
1
 93
-1056964608
 45
4.0
292
0
297
0
 46
4.0
 94
-1056964608
 47
1.0
 49
1.0
140
1.0
294
1
141
0.0
177
0
142
1.0
295
0
296
0
143
3.75
271
0
272
9
273
9
  0
DICTIONARY
  5
2D
330
A
100
AcDbDictionary
280
1
281
1
  3
CREATED_BY_EZDXF
350
2E
  3
WRITTEN_BY_EZDXF
350
32
  0
DICTIONARYVAR
  5
2E
330
2D
100
DictionaryVariables
280
0
  1
1.3.5 @ 2025-08-20T01:28:29.046532+00:00
  0
DICTIONARYVAR
  5
32
330
2D
100
DictionaryVariables
280
0
  1
1.3.5 @ 2025-08-20T01:28:29.046532+00:00
  0
ENDSEC
  0
EOF
