  0
SECTION
  2
HEADER
  9
$ACADVER
  1
AC1032
  9
$ACADMAINTVER
 90
4
  9
$DWGCODEPAGE
  3
ANSI_1252
  9
$LASTSAVEDBY
  1
ezdxf
  9
$REQUIREDVERSIONS
160
0
  9
$INSBASE
 10
0.0
 20
0.0
 30
0.0
  9
$EXTMIN
 10
1e+20
 20
1e+20
 30
1e+20
  9
$EXTMAX
 10
-1e+20
 20
-1e+20
 30
-1e+20
  9
$LIMMIN
 10
0.0
 20
0.0
  9
$LIMMAX
 10
420.0
 20
297.0
  9
$ORTHOMODE
 70
0
  9
$REGENMODE
 70
1
  9
$FILLMODE
 70
1
  9
$QTEXTMODE
 70
0
  9
$MIRRTEXT
 70
1
  9
$LTSCALE
 40
1.0
  9
$ATTMODE
 70
1
  9
$TEXTSIZE
 40
2.5
  9
$TRACEWID
 40
1.0
  9
$TEXTSTYLE
  7
Standard
  9
$CLAYER
  8
0
  9
$CELTYPE
  6
ByLayer
  9
$CECOLOR
 62
256
  9
$CELTSCALE
 40
1.0
  9
$DISPSILH
 70
0
  9
$DIMSCALE
 40
1.0
  9
$DIMASZ
 40
2.5
  9
$DIMEXO
 40
0.625
  9
$DIMDLI
 40
3.75
  9
$DIMRND
 40
0.0
  9
$DIMDLE
 40
0.0
  9
$DIMEXE
 40
1.25
  9
$DIMTP
 40
0.0
  9
$DIMTM
 40
0.0
  9
$DIMTXT
 40
2.5
  9
$DIMCEN
 40
2.5
  9
$DIMTSZ
 40
0.0
  9
$DIMTOL
 70
0
  9
$DIMLIM
 70
0
  9
$DIMTIH
 70
0
  9
$DIMTOH
 70
0
  9
$DIMSE1
 70
0
  9
$DIMSE2
 70
0
  9
$DIMTAD
 70
1
  9
$DIMZIN
 70
8
  9
$DIMBLK
  1

  9
$DIMASO
 70
1
  9
$DIMSHO
 70
1
  9
$DIMPOST
  1

  9
$DIMAPOST
  1

  9
$DIMALT
 70
0
  9
$DIMALTD
 70
3
  9
$DIMALTF
 40
0.03937007874
  9
$DIMLFAC
 40
1.0
  9
$DIMTOFL
 70
1
  9
$DIMTVP
 40
0.0
  9
$DIMTIX
 70
0
  9
$DIMSOXD
 70
0
  9
$DIMSAH
 70
0
  9
$DIMBLK1
  1

  9
$DIMBLK2
  1

  9
$DIMSTYLE
  2
ISO-25
  9
$DIMCLRD
 70
0
  9
$DIMCLRE
 70
0
  9
$DIMCLRT
 70
0
  9
$DIMTFAC
 40
1.0
  9
$DIMGAP
 40
0.625
  9
$DIMJUST
 70
0
  9
$DIMSD1
 70
0
  9
$DIMSD2
 70
0
  9
$DIMTOLJ
 70
0
  9
$DIMTZIN
 70
8
  9
$DIMALTZ
 70
0
  9
$DIMALTTZ
 70
0
  9
$DIMUPT
 70
0
  9
$DIMDEC
 70
2
  9
$DIMTDEC
 70
2
  9
$DIMALTU
 70
2
  9
$DIMALTTD
 70
3
  9
$DIMTXSTY
  7
Standard
  9
$DIMAUNIT
 70
0
  9
$DIMADEC
 70
0
  9
$DIMALTRND
 40
0.0
  9
$DIMAZIN
 70
0
  9
$DIMDSEP
 70
44
  9
$DIMATFIT
 70
3
  9
$DIMFRAC
 70
0
  9
$DIMLDRBLK
  1

  9
$DIMLUNIT
 70
2
  9
$DIMLWD
 70
-2
  9
$DIMLWE
 70
-2
  9
$DIMTMOVE
 70
0
  9
$DIMFXL
 40
1.0
  9
$DIMFXLON
 70
0
  9
$DIMJOGANG
 40
0.785398163397
  9
$DIMTFILL
 70
0
  9
$DIMTFILLCLR
 70
0
  9
$DIMARCSYM
 70
0
  9
$DIMLTYPE
  6

  9
$DIMLTEX1
  6

  9
$DIMLTEX2
  6

  9
$DIMTXTDIRECTION
 70
0
  9
$LUNITS
 70
2
  9
$LUPREC
 70
4
  9
$SKETCHINC
 40
1.0
  9
$FILLETRAD
 40
10.0
  9
$AUNITS
 70
0
  9
$AUPREC
 70
2
  9
$MENU
  1
.
  9
$ELEVATION
 40
0.0
  9
$PELEVATION
 40
0.0
  9
$THICKNESS
 40
0.0
  9
$LIMCHECK
 70
0
  9
$CHAMFERA
 40
0.0
  9
$CHAMFERB
 40
0.0
  9
$CHAMFERC
 40
0.0
  9
$CHAMFERD
 40
0.0
  9
$SKPOLY
 70
0
  9
$TDCREATE
 40
2460908.103113426
  9
$TDUCREATE
 40
2458532.153996898
  9
$TDUPDATE
 40
2460908.103113426
  9
$TDUUPDATE
 40
2458532.1544311
  9
$TDINDWG
 40
0.0
  9
$TDUSRTIMER
 40
0.0
  9
$USRTIMER
 70
1
  9
$ANGBASE
 50
0.0
  9
$ANGDIR
 70
0
  9
$PDMODE
 70
0
  9
$PDSIZE
 40
0.0
  9
$PLINEWID
 40
0.0
  9
$SPLFRAME
 70
0
  9
$SPLINETYPE
 70
6
  9
$SPLINESEGS
 70
8
  9
$HANDSEED
  5
33
  9
$SURFTAB1
 70
6
  9
$SURFTAB2
 70
6
  9
$SURFTYPE
 70
6
  9
$SURFU
 70
6
  9
$SURFV
 70
6
  9
$UCSBASE
  2

  9
$UCSNAME
  2

  9
$UCSORG
 10
0.0
 20
0.0
 30
0.0
  9
$UCSXDIR
 10
1.0
 20
0.0
 30
0.0
  9
$UCSYDIR
 10
0.0
 20
1.0
 30
0.0
  9
$UCSORTHOREF
  2

  9
$UCSORTHOVIEW
 70
0
  9
$UCSORGTOP
 10
0.0
 20
0.0
 30
0.0
  9
$UCSORGBOTTOM
 10
0.0
 20
0.0
 30
0.0
  9
$UCSORGLEFT
 10
0.0
 20
0.0
 30
0.0
  9
$UCSORGRIGHT
 10
0.0
 20
0.0
 30
0.0
  9
$UCSORGFRONT
 10
0.0
 20
0.0
 30
0.0
  9
$UCSORGBACK
 10
0.0
 20
0.0
 30
0.0
  9
$PUCSBASE
  2

  9
$PUCSNAME
  2

  9
$PUCSORG
 10
0.0
 20
0.0
 30
0.0
  9
$PUCSXDIR
 10
1.0
 20
0.0
 30
0.0
  9
$PUCSYDIR
 10
0.0
 20
1.0
 30
0.0
  9
$PUCSORTHOREF
  2

  9
$PUCSORTHOVIEW
 70
0
  9
$PUCSORGTOP
 10
0.0
 20
0.0
 30
0.0
  9
$PUCSORGBOTTOM
 10
0.0
 20
0.0
 30
0.0
  9
$PUCSORGLEFT
 10
0.0
 20
0.0
 30
0.0
  9
$PUCSORGRIGHT
 10
0.0
 20
0.0
 30
0.0
  9
$PUCSORGFRONT
 10
0.0
 20
0.0
 30
0.0
  9
$PUCSORGBACK
 10
0.0
 20
0.0
 30
0.0
  9
$USERI1
 70
0
  9
$USERI2
 70
0
  9
$USERI3
 70
0
  9
$USERI4
 70
0
  9
$USERI5
 70
0
  9
$USERR1
 40
0.0
  9
$USERR2
 40
0.0
  9
$USERR3
 40
0.0
  9
$USERR4
 40
0.0
  9
$USERR5
 40
0.0
  9
$WORLDVIEW
 70
1
  9
$SHADEDGE
 70
3
  9
$SHADEDIF
 70
70
  9
$TILEMODE
 70
1
  9
$MAXACTVP
 70
64
  9
$PINSBASE
 10
0.0
 20
0.0
 30
0.0
  9
$PLIMCHECK
 70
0
  9
$PEXTMIN
 10
1e+20
 20
1e+20
 30
1e+20
  9
$PEXTMAX
 10
-1e+20
 20
-1e+20
 30
-1e+20
  9
$PLIMMIN
 10
0.0
 20
0.0
  9
$PLIMMAX
 10
420.0
 20
297.0
  9
$UNITMODE
 70
0
  9
$VISRETAIN
 70
1
  9
$PLINEGEN
 70
0
  9
$PSLTSCALE
 70
1
  9
$TREEDEPTH
 70
3020
  9
$CMLSTYLE
  2
Standard
  9
$CMLJUST
 70
0
  9
$CMLSCALE
 40
20.0
  9
$PROXYGRAPHICS
 70
1
  9
$MEASUREMENT
 70
1
  9
$CELWEIGHT
370
-1
  9
$ENDCAPS
280
0
  9
$JOINSTYLE
280
0
  9
$LWDISPLAY
290
0
  9
$INSUNITS
 70
6
  9
$HYPERLINKBASE
  1

  9
$STYLESHEET
  1

  9
$XEDIT
290
1
  9
$CEPSNTYPE
380
0
  9
$PSTYLEMODE
290
1
  9
$FINGERPRINTGUID
  2
{22871283-B874-4114-BED7-AACC99282FB1}
  9
$VERSIONGUID
  2
{5D77A931-33AB-476F-9B27-74A29B7C76B4}
  9
$EXTNAMES
290
1
  9
$PSVPSCALE
 40
0.0
  9
$OLESTARTUP
290
0
  9
$SORTENTS
280
127
  9
$INDEXCTL
280
0
  9
$HIDETEXT
280
1
  9
$XCLIPFRAME
280
1
  9
$HALOGAP
280
0
  9
$OBSCOLOR
 70
257
  9
$OBSLTYPE
280
0
  9
$INTERSECTIONDISPLAY
280
0
  9
$INTERSECTIONCOLOR
 70
257
  9
$DIMASSOC
280
2
  9
$PROJECTNAME
  1

  9
$CAMERADISPLAY
290
0
  9
$LENSLENGTH
 40
50.0
  9
$CAMERAHEIGHT
 40
0.0
  9
$STEPSPERSEC
 40
24.0
  9
$STEPSIZE
 40
100.0
  9
$3DDWFPREC
 40
2.0
  9
$PSOLWIDTH
 40
0.005
  9
$PSOLHEIGHT
 40
0.08
  9
$LOFTANG1
 40
1.570796326795
  9
$LOFTANG2
 40
1.570796326795
  9
$LOFTMAG1
 40
0.0
  9
$LOFTMAG2
 40
0.0
  9
$LOFTPARAM
 70
7
  9
$LOFTNORMALS
280
1
  9
$LATITUDE
 40
37.795
  9
$LONGITUDE
 40
-122.394
  9
$NORTHDIRECTION
 40
0.0
  9
$TIMEZONE
 70
-8000
  9
$LIGHTGLYPHDISPLAY
280
1
  9
$TILEMODELIGHTSYNCH
280
1
  9
$CMATERIAL
347
20
  9
$SOLIDHIST
280
0
  9
$SHOWHIST
280
1
  9
$DWFFRAME
280
2
  9
$DGNFRAME
280
2
  9
$REALWORLDSCALE
290
1
  9
$INTERFERECOLOR
 62
256
  9
$CSHADOW
280
0
  9
$SHADOWPLANELOCATION
 40
0.0
  0
ENDSEC
  0
SECTION
  2
CLASSES
  0
CLASS
  1
ACDBDICTIONARYWDFLT
  2
AcDbDictionaryWithDefault
  3
ObjectDBX Classes
 90
0
 91
0
280
0
281
0
  0
CLASS
  1
SUN
  2
AcDbSun
  3
SCENEOE
 90
1153
 91
0
280
0
281
0
  0
CLASS
  1
VISUALSTYLE
  2
AcDbVisualStyle
  3
ObjectDBX Classes
 90
4095
 91
0
280
0
281
0
  0
CLASS
  1
MATERIAL
  2
AcDbMaterial
  3
ObjectDBX Classes
 90
1153
 91
0
280
0
281
0
  0
CLASS
  1
SCALE
  2
AcDbScale
  3
ObjectDBX Classes
 90
1153
 91
0
280
0
281
0
  0
CLASS
  1
TABLESTYLE
  2
AcDbTableStyle
  3
ObjectDBX Classes
 90
4095
 91
0
280
0
281
0
  0
CLASS
  1
MLEADERSTYLE
  2
AcDbMLeaderStyle
  3
ACDB_MLEADERSTYLE_CLASS
 90
4095
 91
0
280
0
281
0
  0
CLASS
  1
DICTIONARYVAR
  2
AcDbDictionaryVar
  3
ObjectDBX Classes
 90
0
 91
0
280
0
281
0
  0
CLASS
  1
CELLSTYLEMAP
  2
AcDbCellStyleMap
  3
ObjectDBX Classes
 90
1152
 91
0
280
0
281
0
  0
CLASS
  1
MENTALRAYRENDERSETTINGS
  2
AcDbMentalRayRenderSettings
  3
SCENEOE
 90
1024
 91
0
280
0
281
0
  0
CLASS
  1
ACDBDETAILVIEWSTYLE
  2
AcDbDetailViewStyle
  3
ObjectDBX Classes
 90
1025
 91
0
280
0
281
0
  0
CLASS
  1
ACDBSECTIONVIEWSTYLE
  2
AcDbSectionViewStyle
  3
ObjectDBX Classes
 90
1025
 91
0
280
0
281
0
  0
CLASS
  1
RASTERVARIABLES
  2
AcDbRasterVariables
  3
ISM
 90
0
 91
0
280
0
281
0
  0
CLASS
  1
LAYOUT
  2
AcDbLayout
  3
ObjectDBX Classes
 90
0
 91
0
280
0
281
0
  0
CLASS
  1
ACDBPLACEHOLDER
  2
AcDbPlaceHolder
  3
ObjectDBX Classes
 90
0
 91
0
280
0
281
0
  0
ENDSEC
  0
SECTION
  2
TABLES
  0
TABLE
  2
VPORT
  5
8
330
0
100
AcDbSymbolTable
 70
1
  0
VPORT
  5
23
330
8
100
AcDbSymbolTableRecord
100
AcDbViewportTableRecord
  2
*Active
 70
0
 10
0.0
 20
0.0
 11
1.0
 21
1.0
 12
0.0
 22
0.0
 13
0.0
 23
0.0
 14
0.5
 24
0.5
 15
0.5
 25
0.5
 16
0.0
 26
0.0
 36
1.0
 17
0.0
 27
0.0
 37
0.0
 40
1000.0
 41
1.34
 42
50.0
 43
0.0
 44
0.0
 50
0.0
 51
0.0
 71
0
 72
1000
 73
1
 74
3
 75
0
 76
0
 77
0
 78
0
281
0
 65
0
146
0.0
  0
ENDTAB
  0
TABLE
  2
LTYPE
  5
2
330
0
100
AcDbSymbolTable
 70
3
  0
LTYPE
  5
24
330
2
100
AcDbSymbolTableRecord
100
AcDbLinetypeTableRecord
  2
ByBlock
 70
0
  3

 72
65
 73
0
 40
0.0
  0
LTYPE
  5
25
330
2
100
AcDbSymbolTableRecord
100
AcDbLinetypeTableRecord
  2
ByLayer
 70
0
  3

 72
65
 73
0
 40
0.0
  0
LTYPE
  5
26
330
2
100
AcDbSymbolTableRecord
100
AcDbLinetypeTableRecord
  2
Continuous
 70
0
  3

 72
65
 73
0
 40
0.0
  0
ENDTAB
  0
TABLE
  2
LAYER
  5
1
330
0
100
AcDbSymbolTable
 70
2
  0
LAYER
  5
27
330
1
100
AcDbSymbolTableRecord
100
AcDbLayerTableRecord
  2
0
 70
0
 62
7
  6
Continuous
370
-3
390
13
347
21
  0
LAYER
  5
28
330
1
100
AcDbSymbolTableRecord
100
AcDbLayerTableRecord
  2
Defpoints
 70
0
 62
7
  6
Continuous
290
0
370
-3
390
13
347
21
  0
ENDTAB
  0
TABLE
  2
STYLE
  5
5
330
0
100
AcDbSymbolTable
 70
1
  0
STYLE
  5
29
330
5
100
AcDbSymbolTableRecord
100
AcDbTextStyleTableRecord
  2
Standard
 70
0
 40
0.0
 41
1.0
 50
0.0
 71
0
 42
2.5
  3
txt
  4

  0
ENDTAB
  0
TABLE
  2
VIEW
  5
7
330
0
100
AcDbSymbolTable
 70
0
  0
ENDTAB
  0
TABLE
  2
UCS
  5
6
330
0
100
AcDbSymbolTable
 70
0
  0
ENDTAB
  0
TABLE
  2
APPID
  5
3
330
0
100
AcDbSymbolTable
 70
3
  0
APPID
  5
2A
330
3
100
AcDbSymbolTableRecord
100
AcDbRegAppTableRecord
  2
ACAD
 70
0
  0
APPID
  5
30
330
3
100
AcDbSymbolTableRecord
100
AcDbRegAppTableRecord
  2
HATCHBACKGROUNDCOLOR
 70
0
  0
APPID
  5
31
330
3
100
AcDbSymbolTableRecord
100
AcDbRegAppTableRecord
  2
EZDXF
 70
0
  0
ENDTAB
  0
TABLE
  2
DIMSTYLE
  5
4
330
0
100
AcDbSymbolTable
 70
1
100
AcDbDimStyleTable
  0
DIMSTYLE
105
2B
330
4
100
AcDbSymbolTableRecord
100
AcDbDimStyleTableRecord
  2
Standard
 70
0
 40
1.0
 41
2.5
 42
0.625
 43
3.75
 44
1.25
 45
0.0
 46
0.0
 47
0.0
 48
0.0
 49
2.5
140
2.5
141
2.5
142
0.0
143
0.03937007874
144
1.0
145
0.0
146
1.0
147
0.625
148
0.0
 69
0
 70
0
 71
0
 72
0
 73
0
 74
0
 75
0
 76
0
 77
1
 78
8
 79
3
170
0
171
3
172
1
173
0
174
0
175
0
176
0
177
0
178
0
179
2
271
2
272
2
273
2
274
3
275
0
276
0
277
2
278
44
279
0
280
0
281
0
282
0
283
0
284
8
285
0
286
0
288
0
289
3
290
0
371
-2
372
-2
  0
ENDTAB
  0
TABLE
  2
BLOCK_RECORD
  5
9
330
0
100
AcDbSymbolTable
 70
2
  0
BLOCK_RECORD
  5
17
330
9
100
AcDbSymbolTableRecord
100
AcDbBlockTableRecord
  2
*Model_Space
340
1A
 70
0
280
1
281
0
  0
BLOCK_RECORD
  5
1B
330
9
100
AcDbSymbolTableRecord
100
AcDbBlockTableRecord
  2
*Paper_Space
340
1E
 70
0
280
1
281
0
  0
ENDTAB
  0
ENDSEC
  0
SECTION
  2
BLOCKS
  0
BLOCK
  5
18
330
17
100
AcDbEntity
  8
0
100
AcDbBlockBegin
  2
*Model_Space
 70
0
 10
0.0
 20
0.0
 30
0.0
  3
*Model_Space
  1

  0
ENDBLK
  5
19
330
17
100
AcDbEntity
  8
0
100
AcDbBlockEnd
  0
BLOCK
  5
1C
330
1B
100
AcDbEntity
  8
0
100
AcDbBlockBegin
  2
*Paper_Space
 70
0
 10
0.0
 20
0.0
 30
0.0
  3
*Paper_Space
  1

  0
ENDBLK
  5
1D
330
1B
100
AcDbEntity
  8
0
100
AcDbBlockEnd
  0
ENDSEC
  0
SECTION
  2
ENTITIES
  0
LWPOLYLINE
  5
2F
330
17
100
AcDbEntity
  8
0
100
AcDbPolyline
 90
721
 70
1
 10
91.72222170708463
 20
34.786130356228696
 10
91.71926650427373
 20
34.7860864951641
 10
91.71050398139525
 20
34.78568051835352
 10
91.69613994911863
 20
34.78436459798166
 10
91.67593503451036
 20
34.782359580483224
 10
91.65031664662557
 20
34.779360421558195
 10
91.61909685232527
 20
34.77545104495239
 10
91.58219049507692
 20
34.770441803153346
 10
91.53987071604332
 20
34.764438282867964
 10
91.49205235869204
 20
34.75725083658377
 10
91.43849589561557
 20
34.749100721914736
 10
91.37957745054841
 20
34.739819406070445
 10
91.31516032418098
 20
34.72935443834686
 10
91.24519302522742
 20
34.717842878492604
 10
91.16977853625937
 20
34.7050106070104
 10
91.08881377172266
 20
34.69113201751703
 10
91.00248681923011
 20
34.676122775087414
 10
90.9106609794721
 20
34.659930429017486
 10
90.81328476116286
 20
34.64269203905588
 10
90.71059764021848
 20
34.6241864846484
 10
90.60235998624896
 20
34.604635297528475
 10
90.48867473033472
 20
34.583764495258606
 10
90.36971197957558
 20
34.561953921102685
 10
90.24511343627624
 20
34.53890834084138
 10
90.11528873494399
 20
34.51478634012463
 10
89.97996468292475
 20
34.489482469305315
 10
89.83927772207167
 20
34.46304986438623
 10
89.69322780089354
 20
34.43548866242713
 10
89.54176337661316
 20
34.40693606023642
 10
89.38488429475673
 20
34.37739246899332
 10
89.22269348640462
 20
34.34658390626032
 10
89.05508791749385
 20
34.31478462859444
 10
88.88225546967219
 20
34.281910849309604
 10
88.70400805532674
 20
34.24804690333087
 10
88.52044845106404
 20
34.21291921939997
 10
88.33161027063949
 20
34.176854641837764
 10
88.13744186829334
 20
34.1399906415721
 10
87.9380976149006
 20
34.101916313476586
 10
87.73333777708866
 20
34.06285346340418
 10
87.52348698730616
 20
34.022770618313096
 10
87.30822040713929
 20
33.98169979948412
 10
87.08781112625962
 20
33.939746730683865
 10
86.86212239386624
 20
33.896859098268024
 10
86.63129070330363
 20
33.853089901179644
 10
86.3952307950567
 20
33.80824976602578
 10
86.15407916246994
 20
33.762391691749485
 10
85.90759607217078
 20
33.71573748420372
 10
85.65610610511658
 20
33.66825580740649
 10
85.39947251050643
 20
33.61989434771345
 10
85.13769518535776
 20
33.570653379244106
 10
84.87077387221417
 20
33.52053358729722
 10
84.59879367611687
 20
33.46972475644499
 10
84.32166923456816
 20
33.41803778741392
 10
84.03948560111803
 20
33.36566260183601
 10
83.7522940095959
 20
33.31246282526136
 10
83.46019739108209
 20
33.25816447525242
 10
83.16322915336691
 20
33.20309494436903
 10
82.86114961456904
 20
33.14747590140442
 10
82.55395851723205
 20
33.091308031657306
 10
82.2419468800492
 20
33.034233017765104
 10
81.92506300576953
 20
32.97638846771545
 10
81.60330679141046
 20
32.91777465562783
 10
81.27652350565812
 20
32.858803446046934
 10
80.94497045046772
 20
32.79878995140877
 10
80.60868113661213
 20
32.7380612901537
 10
80.2676039183317
 20
32.67675493320964
 10
79.92155050204833
 20
32.614955763740596
 10
79.57084541722816
 20
32.55263258282436
 10
79.2154033528648
 20
32.48959615412769
 10
78.85522420597566
 20
32.42584675177011
 10
78.49034138435105
 20
32.36171176831144
 10
78.12096064716911
 20
32.29664351299613
 10
77.74684231254855
 20
32.23086365461739
 10
77.36820787589254
 20
32.16461525080997
 10
76.98505718272716
 20
32.09789871275313
 10
76.59735646482322
 20
32.03038760730528
 10
76.2050539734385
 20
31.962219679513794
 10
75.80842279824444
 20
31.893500653145306
 10
75.40722315437722
 20
31.824452471112505
 10
75.00160936122052
 20
31.754664365348752
 10
74.59171786062748
 20
31.684189471856847
 10
74.17754849812428
 20
31.613028201816032
 10
73.75899803368281
 20
31.541455360022322
 10
73.33606631282926
 20
31.46947135765498
 10
72.90880467237554
 20
31.3969395461446
 10
72.47753769327906
 20
31.32382858950919
 10
72.04194038265216
 20
31.250170920208735
 10
71.6021492338393
 20
31.176019537186296
 10
71.15845521404256
 20
31.10101626013905
 10
70.71066992670117
 20
31.025246246350527
 10
70.25877539130228
 20
30.949173674009728
 10
69.80290810119028
 20
30.87285154205971
 10
69.34289748584378
 20
30.7959012407743
 10
68.87917121177435
 20
30.71801704055473
 10
68.41152310787356
 20
30.639747728634546
 10
67.94000451095333
 20
30.560956656444347
 10
67.46456372376274
 20
30.481781431971772
 10
66.98544017072663
 20
30.402001071722363
 10
66.50263374886244
 20
30.321615849815615
 10
66.01600755289539
 20
30.240573863786437
 10
65.52578323270247
 20
30.159117760090375
 10
65.03182398599151
 20
30.07719536214285
 10
64.53436928867865
 20
29.994585549389647
 10
64.03341893479872
 20
29.911288870069768
 10
63.529109469187524
 20
29.827358186066515
 10
63.02125249528449
 20
29.74287865466348
 10
62.509881575353646
 20
29.658177257241217
 10
61.99501422648648
 20
29.57279104914851
 10
61.47700900383478
 20
29.48701457930596
 10
60.95579826795747
 20
29.400195255549864
 10
60.43133027011225
 20
29.3124708229276
 10
59.90372383207833
 20
29.224357636212723
 10
59.372927256604754
 20
29.135993303392873
 10
58.83882146445588
 20
29.046862154993224
 10
58.30205613245937
 20
28.956900148452302
 10
57.76227244800696
 20
28.86581342014825
 10
57.2195891298953
 20
28.7741185989741
 10
56.67381783305507
 20
28.681900705153677
 10
56.12528334440884
 20
28.589127854465993
 10
55.574003284030525
 20
28.49533682814029
 10
55.020011214184315
 20
28.40085460755717
 10
54.46320394633336
 20
28.305955860452908
 10
53.90383883392428
 20
28.209955562203813
 10
53.341967213769024
 20
28.112717064240492
 10
52.77760492507514
 20
28.015030840833763
 10
52.21052985454406
 20
27.91665547906586
 10
51.64096380652663
 20
27.81783321421304
 10
51.06921562575529
 20
27.717741961902995
 10
50.495233666470334
 20
27.6165191930636
 10
49.91891484311754
 20
27.514439301311626
 10
49.34010442438296
 20
27.411914151191723
 10
48.75928187701178
 20
27.308500130998002
 10
48.17637940708908
 20
27.203545059746013
 10
47.5916527931601
 20
27.097617057614627
 10
47.00457081973742
 20
26.99129748135713
 10
46.41547620276527
 20
26.884090405623287
 10
45.82457464993057
 20
26.77544827671731
 10
45.23203673175477
 20
26.66574970436536
 10
44.63753719789378
 20
26.555027806326173
 10
44.041298007172315
 20
26.443524406696795
 10
43.44323374560145
 20
26.331050543263483
 10
42.84358409506244
 20
26.21738454723306
 10
42.24248575486497
 20
26.102578869309593
 10
41.63980176824294
 20
25.986581744087744
 10
41.0358056882895
 20
25.869497661796423
 10
40.43022375594637
 20
25.751222680445718
 10
39.82322643875245
 20
25.632135683881305
 10
39.21486527948484
 20
25.51209947529479
 10
38.605397528607575
 20
25.390429304181996
 10
37.99472010056641
 20
25.267399564159682
 10
37.38305510865994
 20
25.143251668145638
 10
36.77007730254405
 20
25.0180187338986
 10
36.156163217883524
 20
24.891531132150188
 10
35.541364294472935
 20
24.763651940211528
 10
34.9257319721068
 20
24.63424423539371
 10
34.30916306224833
 20
24.503582685433013
 10
33.691742978886474
 20
24.37185625254316
 10
33.073471567547365
 20
24.23906534790338
 10
32.45464010438071
 20
24.104850968852357
 10
31.83516317539758
 20
23.969024153176363
 10
31.215229022684692
 20
23.831500154771085
 10
30.594820026168062
 20
23.69274219240726
 10
29.973644755224132
 20
23.553109679925477
 10
29.352079899991548
 20
23.412432576878103
 10
28.7304004854822
 20
23.269562502810984
 10
28.10829740950722
 20
23.12532222739517
 10
27.48599304282163
 20
22.979952478249704
 10
26.863453308248463
 20
22.833127644591503
 10
26.240729748564817
 20
22.684710529612154
 10
25.617941545988938
 20
22.535216528666993
 10
24.99500338951439
 20
22.38445640542278
 10
24.372206503799635
 20
22.232071294277954
 10
23.749413983569887
 20
22.07800929276743
 10
23.126848199580156
 20
21.922511128510248
 10
22.50445755756203
 20
21.765714135374537
 10
21.882396582864292
 20
21.607206997054647
 10
21.260613681218548
 20
21.44712704741871
 10
20.639194318105034
 20
21.2856631116207
 10
20.017847114391465
 20
21.123174466441434
 10
19.39715482834239
 20
20.958942558319254
 10
18.777117459957815
 20
20.79296738725416
 10
18.157683569443194
 20
20.625385875935038
 10
17.538801562530114
 20
20.456335358230028
 10
16.920659990253057
 20
20.28573026567632
 10
16.30307040456012
 20
20.11365589261722
 10
15.686358158777995
 20
19.940078847174515
 10
15.070626286969595
 20
19.764724872791156
 10
14.455823297849118
 20
19.587731029215796
 10
13.841897751622017
 20
19.409234239137323
 10
13.22890113957412
 20
19.229097442807095
 10
12.617210460791771
 20
19.047149777419005
 10
12.006585724445992
 20
18.863613734124744
 10
11.397061007713738
 20
18.678814923707414
 10
10.788756810258088
 20
18.4920162820185
 10
10.181844114530819
 20
18.303595322306194
 10
9.57616860114829
 20
18.11396281263716
 10
8.971747684219348
 20
17.922656082479648
 10
8.368958465812934
 20
17.729503994908054
 10
7.767698014848684
 20
17.534780532359903
 10
7.167932305640891
 20
17.338159946992334
 10
6.569832475115173
 20
17.140019340874293
 10
5.973364549077139
 20
16.940032829103174
 10
5.3787511042469225
 20
16.738440591059025
 10
4.785563753234917
 20
16.5355502751771
 10
4.194179598110056
 20
16.331190744531792
 10
3.604804604015659
 20
16.12481376012855
 10
3.0173874341397586
 20
15.916555970536761
 10
2.4319106228822123
 20
15.706880183347923
 10
1.8484258674939946
 20
15.495648790574403
 10
1.266984710752212
 20
15.28272459540781
 10
0.6877242638968077
 20
15.06815895207424
 10
0.11040453609874573
 20
14.852174351725374
 10
-0.46494018949984944
 20
14.635095856905327
 10
-1.0379668880070103
 20
14.416426719905385
 10
-1.6085724738684934
 20
14.195892547108778
 10
-2.176859775182126
 20
13.97376704683353
 10
-2.7427384862867834
 20
13.750226160617236
 10
-3.3063373253428217
 20
13.52519619349479
 10
-3.8675705694135547
 20
13.29886528532141
 10
-4.4263526500362005
 20
13.071421987131563
 10
-4.982614661816047
 20
12.842266568644876
 10
-5.536219545004473
 20
12.611450521147177
 10
-6.08728769628199
 20
12.37971063466748
 10
-6.635853192825577
 20
12.146721298422687
 10
-7.181590423852128
 20
11.91244843523582
 10
-7.724773508858923
 20
11.676789062535212
 10
-8.265128328348668
 20
11.439846162892534
 10
-8.802620805144416
 20
11.201945347090886
 10
-9.33757655002925
 20
10.963120692307246
 10
-9.869601046825391
 20
10.722738391084258
 10
-10.398729123750552
 20
10.481723784485405
 10
-10.925200823125017
 20
10.240299500722141
 10
-11.448844256982452
 20
9.9975916900168
 10
-11.969248246076948
 20
9.75375482622688
 10
-12.486704324014623
 20
9.509148597312462
 10
-13.001263982081317
 20
9.263910063022184
 10
-13.512824237705356
 20
9.017765103858773
 10
-14.02116246267531
 20
8.770953762142526
 10
-14.526552776488451
 20
8.523373055301782
 10
-15.028875533505005
 20
8.275537145154114
 10
-15.5280277511533
 20
8.027171912202249
 10
-16.023957938147504
 20
7.7781402966975515
 10
-16.516717585773453
 20
7.528579358388656
 10
-17.006272616854176
 20
7.278814708058668
 10
-17.492760091138297
 20
7.028794854421762
 10
-17.97580290655689
 20
6.7783486605523215
 10
-18.455401063109964
 20
6.527476126450347
 10
-18.931640129260295
 20
6.275988701081372
 10
-19.40443453654511
 20
6.024074935479863
 10
-19.87393875882189
 20
5.772146008891734
 10
-20.340067227627824
 20
5.520390472351451
 10
-20.802613977819593
 20
5.26826008686447
 10
-21.261716069145827
 20
5.015703361144954
 10
-21.7169108310748
 20
4.762737709301765
 10
-22.16862685696126
 20
4.50967132800915
 10
-22.61691563809105
 20
4.256641277015746
 10
-23.061503054966895
 20
4.003750538893217
 10
-23.502337616302967
 20
3.750862053892926
 10
-23.939401907990394
 20
3.49751315148313
 10
-24.372764835423876
 20
3.244303561944208
 10
-24.802580872460922
 20
2.9916444645220697
 10
-25.22845550292371
 20
2.738902051759367
 10
-25.65052578656089
 20
2.486024832370264
 10
-26.068620586446855
 20
2.2333899084237014
 10
-26.482876962330234
 20
1.9809457886338462
 10
-26.893346405496867
 20
1.728829532749333
 10
-27.299737382340613
 20
1.4766814528100836
 10
-27.702152875433143
 20
1.2247756683133737
 10
-28.100592884774446
 20
0.9731121792592067
 10
-28.495263375507864
 20
0.7222392246421228
 10
-28.885838736850285
 20
0.47212272728515353
 10
-29.272438614441487
 20
0.22224852537072565
 10
-29.65482296596117
 20
-0.027606009312606216
 10
-30.033060696804025
 20
-0.2768411464844596
 10
-30.40739184929035
 20
-0.5252342579333975
 10
-30.77747339852818
 20
-0.7732820913681295
 10
-31.143271267340545
 20
-1.0206590360055523
 10
-31.50511106651055
 20
-1.2673310146686942
 10
-31.862718676540926
 20
-1.5131950447858875
 10
-32.21593962357417
 20
-1.758662305603049
 10
-32.56492838146777
 20
-2.0033216178742586
 10
-32.90973644150758
 20
-2.2470359218508893
 10
-33.25031231240775
 20
-2.489942277281573
 10
-33.58651893441966
 20
-2.731989192880474
 10
-33.918304816257454
 20
-2.97331372839624
 10
-34.24585850895562
 20
-3.213830315366052
 10
-34.56890589301688
 20
-3.4534359712182607
 10
-34.887549951012886
 20
-3.6918565764555797
 10
-35.20196181986927
 20
-3.9294692331469556
 10
-35.51173032034011
 20
-4.166119467434888
 10
-35.8169410208882
 20
-4.401995830353846
 10
-36.11779988665688
 20
-4.636550082909284
 10
-36.414306917646144
 20
-4.869782225101196
 10
-36.70622207153571
 20
-5.101914885141031
 10
-36.99349385703973
 20
-5.333085122777424
 10
-37.276207842621
 20
-5.563481489044841
 10
-37.55434736521142
 20
-5.792315702628436
 10
-37.82799799327379
 20
-6.019776314562677
 10
-38.097056744236454
 20
-6.24613744434484
 10
-38.36138655835076
 20
-6.471347600689091
 10
-38.62109041818839
 20
-6.695132664098154
 10
-38.87606534117766
 20
-6.917766754069306
 10
-39.12636281860442
 20
-7.13911281085391
 10
-39.372034341754485
 20
-7.3590337747033265
 10
-39.61283986830757
 20
-7.5777522738290015
 10
-39.848933872121165
 20
-7.794857128985017
 10
-40.08024744780058
 20
-8.01094807045176
 10
-40.3068495007405
 20
-8.225425367948848
 10
-40.5286885396551
 20
-8.438426081224922
 10
-40.74571307325854
 20
-8.65008727002861
 10
-40.9577860418022
 20
-8.860357443074086
 10
-41.165095996320524
 20
-9.069151031898544
 10
-41.36766035092239
 20
-9.27600536597024
 10
-41.56537612303613
 20
-9.48119456478645
 10
-41.758243312661754
 20
-9.684718628347174
 10
-41.946450470833696
 20
-9.886491988189603
 10
-42.12967198676889
 20
-10.086548721490715
 10
-42.30814790278762
 20
-10.284666200039062
 10
-42.48184414171291
 20
-10.48051881305155
 10
-42.6508977632934
 20
-10.674158051813995
 10
-42.815068725208796
 20
-10.86580654453785
 10
-42.974545578493554
 20
-11.055378722760306
 10
-43.12905420365041
 20
-11.242771603909699
 10
-43.278971702748294
 20
-11.427814051060421
 10
-43.424075447575774
 20
-11.610266021892167
 10
-43.564399515309816
 20
-11.790453127188048
 10
-43.69994390595043
 20
-11.968375366948063
 10
-43.8307086194976
 20
-12.144032741172207
 10
-43.956659578774364
 20
-12.31709963907738
 10
-44.07779678378072
 20
-12.48757606066358
 10
-44.19410282040781
 20
-12.655924676462549
 10
-44.30559510276448
 20
-12.821682815942543
 10
-44.412067665707426
 20
-12.985398718098116
 10
-44.51372647437996
 20
-13.146524143934709
 10
-44.610365563638744
 20
-13.30560733244688
 10
-44.70208791605547
 20
-13.462374164137353
 10
-44.788893531630116
 20
-13.616824639006127
 10
-44.87059385932822
 20
-13.769044325516004
 10
-44.947566001218725
 20
-13.918862086741374
 10
-45.019244304198224
 20
-14.066534628070658
 10
-45.08614293008428
 20
-14.211942303864078
 10
-45.14793626809379
 20
-14.355119191298595
 10
-45.20477879208426
 20
-14.495654111128312
 10
-45.25670457923265
 20
-14.63387267413633
 10
-45.30362806107617
 20
-14.769586329288176
 10
-45.34575520275814
 20
-14.902246837589312
 10
-45.3830685901697
 20
-15.032316869571465
 10
-45.41553414613388
 20
-15.159470814451545
 10
-45.443254853222335
 20
-15.283434552732274
 10
-45.466436676578404
 20
-15.403659845419092
 10
-45.485079616202086
 20
-15.520146692512013
 10
-45.49942371441369
 20
-15.632672465799594
 10
-45.50945230814508
 20
-15.740448883966977
 10
-45.51550842228824
 20
-15.842979199305454
 10
-45.51824402945012
 20
-15.938944305614486
 10
-45.51774544913427
 20
-16.027281802081944
 10
-45.51497360166266
 20
-16.105850224015473
 10
-45.51088940735722
 20
-16.172508106722713
 10
-45.506454537580645
 20
-16.22386303366471
 10
-45.50309333422738
 20
-16.256540002411374
 10
-45.176616661698404
 20
-17.133467190381303
 10
-45.17138647089686
 20
-17.13947890313098
 10
-45.15574738977808
 20
-17.157376981631376
 10
-45.129905383485365
 20
-17.18661318688794
 10
-45.09284804041094
 20
-17.22946604334167
 10
-45.04376816304961
 20
-17.288916788285604
 10
-44.98520623851602
 20
-17.357786823504796
 10
-44.91862143692231
 20
-17.431775805505655
 10
-44.84495726448158
 20
-17.50920494012757
 10
-44.76515797844766
 20
-17.587144481363335
 10
-44.67954994064441
 20
-17.664309400189374
 10
-44.58866472699827
 20
-17.740117380434175
 10
-44.49257124290392
 20
-17.813968691817358
 10
-44.39147545350468
 20
-17.88531509534437
 10
-44.285480341372235
 20
-17.953882471517936
 10
-44.17458590650658
 20
-18.019670820338067
 10
-44.058980699942175
 20
-18.082594573341943
 10
-43.93863064450206
 20
-18.14232811974647
 10
-43.813484248900394
 20
-18.19900851930028
 10
-43.68373006417164
 20
-18.252550203540565
 10
-43.54912804799551
 20
-18.30317580067878
 10
-43.40972969165784
 20
-18.35074825096627
 10
-43.26591209722754
 20
-18.39509641747743
 10
-43.11710961160123
 20
-18.436477005600686
 10
-42.96378490531065
 20
-18.47490742944489
 10
-42.80561236757268
 20
-18.510421766187008
 10
-42.64278054942181
 20
-18.542934447364246
 10
-42.475340942143845
 20
-18.57230841322796
 10
-42.30313907188131
 20
-18.598954843024067
 10
-42.12627792120586
 20
-18.62259961725529
 10
-41.94455152497417
 20
-18.643790974916172
 10
-41.75811435704374
 20
-18.662117736760813
 10
-41.56700049459153
 20
-18.677905513572306
 10
-41.371072877868926
 20
-18.691102814064827
 10
-41.170228524304235
 20
-18.70198375773565
 10
-40.964655984931944
 20
-18.710462776121965
 10
-40.75430376846622
 20
-18.71667692897242
 10
-40.539171874907055
 20
-18.720626216287002
 10
-40.318968770648326
 20
-18.722670326025796
 10
-40.094020066473135
 20
-18.72277518101183
 10
-39.86410313417004
 20
-18.720700738924805
 10
-39.6294920932363
 20
-18.716549982336375
 10
-39.38994690135164
 20
-18.710545539457993
 10
-39.14560461826468
 20
-18.702738901575483
 10
-38.89637967551262
 20
-18.692941517654386
 10
-38.642512115415755
 20
-18.68093075948325
 10
-38.38381338693964
 20
-18.66679219552488
 10
-38.12050611829569
 20
-18.650765868099587
 10
-37.85245324973527
 20
-18.63280028592153
 10
-37.57965478125839
 20
-18.612895448990713
 10
-37.30226518672256
 20
-18.590640178061225
 10
-37.02042152587637
 20
-18.566085964418892
 10
-36.733986738971225
 20
-18.539181316777896
 10
-36.442994903184086
 20
-18.51025184592132
 10
-36.14744601851497
 20
-18.47929755184919
 10
-35.84754605010717
 20
-18.44577019556694
 10
-35.543329075137684
 20
-18.409995387857684
 10
-35.23470952514369
 20
-18.371784577686952
 10
-34.921635908839384
 20
-18.33127482480338
 10
-34.60424528597338
 20
-18.288517620492797
 10
-34.28258914783151
 20
-18.243375905006573
 10
-33.95661600312794
 20
-18.19598673809334
 10
-33.62632585186269
 20
-18.146350119753095
 10
-33.29177018532157
 20
-18.09432899023721
 10
-32.95303457196739
 20
-18.040111900580143
 10
-32.61011901180017
 20
-17.983698850781906
 10
-32.2629379363571
 20
-17.924901289808023
 10
-31.911662482563745
 20
-17.86409631972743
 10
-31.556207081957353
 20
-17.80109538950566
 10
-31.196520243252078
 20
-17.73603555889136
 10
-30.832790517482373
 20
-17.668831259421708
 10
-30.465172378505756
 20
-17.599071311850807
 10
-30.093511352464706
 20
-17.527166895424557
 10
-29.717567397038945
 20
-17.45334063835441
 10
-29.337803182760208
 20
-17.377609954749218
 10
-28.954047572702883
 20
-17.299597742540044
 10
-28.566352058152802
 20
-17.21916694197826
 10
-28.174887776035572
 20
-17.136694655132782
 10
-27.779466175316735
 20
-17.05226645046644
 10
-27.38019023856795
 20
-16.965608208481946
 10
-26.977197025537848
 20
-16.876771420465136
 10
-26.570538027512267
 20
-16.785619026667376
 10
-26.160058770633707
 20
-16.692562206334568
 10
-25.745862237473833
 20
-16.597326839969448
 10
-25.327845445460987
 20
-16.500187047069282
 10
-24.90643698794993
 20
-16.400834630959828
 10
-24.481311254157564
 20
-16.29930366881806
 10
-24.05260530383252
 20
-16.1956456519298
 10
-23.620404705437604
 20
-16.090049131329533
 10
-23.18467538179585
 20
-15.982188496234139
 10
-22.745451410084222
 20
-15.872389357426735
 10
-22.302921341337193
 20
-15.760566146444505
 10
-21.85691403862915
 20
-15.64634176121852
 10
-21.407703621457376
 20
-15.529819184320443
 10
-20.955135615964362
 20
-15.41140959499618
 10
-20.499210022150116
 20
-15.291112993245733
 10
-20.039926840014637
 20
-15.168929379069105
 10
-19.577577603164055
 20
-15.044499064506216
 10
-19.11226529417004
 20
-14.91754793005979
 10
-18.643646888140623
 20
-14.788572723438541
 10
-18.17199650457308
 20
-14.657676427214138
 10
-17.697280066290432
 20
-14.524533430603473
 10
-17.219737615612985
 20
-14.388921105395102
 10
-16.739214678683247
 20
-14.251250630834942
 10
-16.255745332678185
 20
-14.111847617706093
 10
-15.769295500420826
 20
-13.970386455225452
 10
-15.280019655768669
 20
-13.826455964147108
 10
-14.78808893564732
 20
-13.680433246539998
 10
-14.29345184877095
 20
-13.532455362152756
 10
-13.795834275642289
 20
-13.382419328413723
 10
-13.29569888679307
 20
-13.230342559431756
 10
-12.793011605046331
 20
-13.075899444423749
 10
-12.287772430402063
 20
-12.919089983389707
 10
-11.780066931323073
 20
-12.760102727364087
 10
-11.269637651380211
 20
-12.599622975090087
 10
-10.756776124179591
 20
-12.43729103860762
 10
-10.24155125511592
 20
-12.27250718763631
 10
-9.723911552903369
 20
-12.105408481924792
 10
-9.204131137039191
 20
-11.93609790404473
 10
-8.681866982631437
 20
-11.76507220170484
 10
-8.157359132000407
 20
-11.59210874669368
 10
-7.630607585146096
 20
-11.417207539011255
 10
-7.101715324640169
 20
-11.24009445916028
 10
-6.5706308591967995
 20
-11.060906566889404
 10
-6.037525325741598
 20
-10.88002096426756
 10
-5.502227587348952
 20
-10.69706054922581
 10
-4.965114746087788
 20
-10.51185418483854
 10
-4.4261353106722865
 20
-10.324538930854393
 10
-3.8852377898166086
 20
-10.135251847022003
 10
-3.34233661505796
 20
-9.943804382306901
 10
-2.797945948213918
 20
-9.750076891069316
 10
-2.251980220821654
 20
-9.553880822274767
 10
-1.703993425417556
 20
-9.35598704312925
 10
-1.154311172784736
 20
-9.156361476455794
 10
-0.603379470386805
 20
-8.954233255048404
 10
-0.05076972486901506
 20
-8.749910575581337
 10
0.5034324953058528
 20
-8.543581989089049
 10
1.058850088068843
 20
-8.335076358645939
 10
1.615705681631401
 20
-8.124153641931702
 10
2.1737251564962556
 20
-7.910916821518005
 10
2.7332515375553736
 20
-7.695862645113559
 10
3.2940447824884465
 20
-7.478768484506929
 10
3.8557103751176927
 20
-7.259000532240757
 10
4.41853984904922
 20
-7.036918476275124
 10
4.982602109677747
 20
-6.813122046890406
 10
5.547605777870974
 20
-6.58725196730578
 10
6.113644763680032
 20
-6.359141890166043
 10
6.680689727126225
 20
-6.129130035751189
 10
7.2485348575401
 20
-5.896668576245904
 10
7.81718025790422
 20
-5.66175778576969
 10
8.38669483361328
 20
-5.4249973946029275
 10
8.956993222169602
 20
-5.186576502019086
 10
9.528161043527303
 20
-4.946306694043434
 10
10.099906815571515
 20
-4.7038284197756495
 10
10.672333572365197
 20
-4.459415935772751
 10
11.245441519873495
 20
-4.213069790273733
 10
11.819093546856482
 20
-3.9648413375046787
 10
12.393135333930514
 20
-3.714319809398929
 10
12.967669863667263
 20
-3.4617793254537506
 10
13.542628981712788
 20
-3.2078711072353574
 10
14.118235522243655
 20
-2.9523556606624477
 10
14.694060840413828
 20
-2.69492465200102
 10
15.270293590240337
 20
-2.435663923833378
 10
15.846659652225904
 20
-2.1746764587311893
 10
16.423347628896302
 20
-1.9120479622170021
 10
17.000306080456966
 20
-1.6476415116019332
 10
17.577312378696465
 20
-1.381697149206281
 10
18.154606565935094
 20
-1.1144375032414862
 10
18.732137305360894
 20
-0.845725925138158
 10
19.309578831716873
 20
-0.5755279265400818
 10
19.887119799020084
 20
-0.3039293500295573
 10
20.464726130093574
 20
-0.03125580638968831
 10
21.042328971033903
 20
0.2430922976001513
 10
21.619757081932914
 20
0.5187381339905255
 10
22.19711344536227
 20
0.7954075832841602
 10
22.774346621527425
 20
1.0732375681699455
 10
23.35135362785669
 20
1.352502208145142
 10
23.928237498413043
 20
1.6329272466527462
 10
24.504826838814445
 20
1.9141362669225535
 10
25.081155829220428
 20
2.1964546056181704
 10
25.657241883739854
 20
2.479419592207859
 10
26.23293042553265
 20
2.763442680057025
 10
26.808170014804283
 20
3.048660791854555
 10
27.383063634126405
 20
3.3347998081031784
 10
27.957491328911523
 20
3.6213463893438087
 10
28.53159031338215
 20
3.908351615683036
 10
29.105068950949562
 20
4.196175449200434
 10
29.677978629917032
 20
4.484681104266864
 10
30.25031940177583
 20
4.773868443822576
 10
30.822142654829218
 20
5.063600682238427
 10
31.393122520837682
 20
5.353912581990144
 10
31.963447705309537
 20
5.644718163435667
 10
32.533032330834246
 20
5.935829697899013
 10
33.10211669718857
 20
6.227023871870014
 10
33.6702202563103
 20
6.518747175309275
 10
34.23739455097659
 20
6.810862411408426
 10
34.80403409736522
 20
7.1027357727101
 10
35.369555570807485
 20
7.395087320433203
 10
35.933907325543714
 20
7.688054525505623
 10
36.49753552351138
 20
7.980866109542118
 10
37.06026861585459
 20
8.27314606695174
 10
37.62193481758956
 20
8.56576797339265
 10
38.18244835428833
 20
8.85854382606936
 10
38.74167185725458
 20
9.151422956054544
 10
39.29984552328245
 20
9.444182323957515
 10
39.85688352645269
 20
9.736634064042534
 10
40.41283720357731
 20
10.028641527740225
 10
40.96746635786213
 20
10.320427754441267
 10
41.520667800770326
 20
10.612267411881925
 10
42.072595954668145
 20
10.90374945787605
 10
42.623250768064274
 20
11.194874029483376
 10
43.172409046343134
 20
11.485402592040842
 10
43.720345269441005
 20
11.775437168701878
 10
44.266630329090255
 20
12.065287326738208
 10
44.81131561359415
 20
12.354816280520698
 10
45.354658373416676
 20
12.643339279545152
 10
45.89660716876333
 20
12.930993246500465
 10
46.436784228178446
 20
13.21795110008898
 10
46.97551552288413
 20
13.50417780371548
 10
47.51247487569311
 20
13.789708942214164
 10
48.047799449336615
 20
14.074595732751384
 10
48.58145480619867
 20
14.358513523962264
 10
49.113303526091634
 20
14.64141178397921
 10
49.64358580580967
 20
14.923067473411542
 10
50.17187238261129
 20
15.20379057071024
 10
50.69843773643276
 20
15.483683099028715
 10
51.22295569008685
 20
15.762780643201191
 10
51.74573493383209
 20
16.040261530034574
 10
52.26663809897216
 20
16.316075090601533
 10
52.785630717728324
 20
16.59114570654731
 10
53.30224919272572
 20
16.86545843083853
 10
53.81717993418726
 20
17.13801880863951
 10
54.330096713434386
 20
17.408862561844206
 10
54.840793307867386
 20
17.67853861474592
 10
55.34926961450364
 20
17.947047241464137
 10
55.85557697015518
 20
18.214251793429476
 10
56.35997272826853
 20
18.479467246018235
 10
56.86207896291423
 20
18.742866929112026
 10
57.3620158346449
 20
19.004963633930913
 10
57.859508400102676
 20
19.26565657085923
 10
58.35465948738538
 20
19.52467203157893
 10
58.84757197608211
 20
19.781736170712247
 10
59.338142677656066
 20
20.037123655995455
 10
59.82623401744569
 20
20.290784366740187
 10
60.31208624373651
 20
20.542495126496032
 10
60.79542441317066
 20
20.7921551456473
 10
61.276231317604385
 20
21.040226546486718
 10
61.75423191069727
 20
21.286608813518114
 10
62.2299412296188
 20
21.531179971085987
 10
62.702912473207476
 20
21.773464046342188
 10
63.173420327364724
 20
22.013562514201144
 10
63.641413094839564
 20
22.25161298265049
 10
64.10651284970247
 20
22.487788781571805
 10
64.56877082578288
 20
22.721953536515212
 10
65.02851314877677
 20
22.95407179970624
 10
65.48537899791573
 20
23.18385505285323
 10
65.93960851850261
 20
23.411080393625234
 10
66.3909096620185
 20
23.636108880579837
 10
66.83936815140002
 20
23.85912865357224
 10
67.28489790327149
 20
24.07995253216547
 10
67.72749871166778
 20
24.29858106459852
 10
68.16718742429362
 20
24.514553087996887
 10
68.60394688449657
 20
24.728330587593575
 10
69.03755348573073
 20
24.939676125203487
 10
69.46804145964695
 20
25.148914900430498
 10
69.89556517712019
 20
25.355636008148192
 10
70.32003845179217
 20
25.559652542039085
 10
70.74130660384026
 20
25.761376229588077
 10
71.15936947879064
 20
25.960807481974424
 10
71.57422687067809
 20
26.15794684743711
 10
71.98570671573394
 20
26.35241969098268
 10
72.39418668243121
 20
26.54405336802828
 10
72.799271688188
 20
26.733483193688514
 10
73.20087559813729
 20
26.920522124586117
 10
73.59913562650168
 20
27.105221240827717
 10
73.99401712969997
 20
27.287256439287408
 10
74.38533099029358
 20
27.46671479608525
 10
74.77330045438939
 20
27.643834708824553
 10
75.15780484652187
 20
27.818104756882708
 10
75.53874102964555
 20
27.98979947093625
 10
75.91616034057236
 20
28.158782202415782
 10
76.2899080479884
 20
28.325464815865953
 10
76.66008697999143
 20
28.489573602968733
 10
77.02655945893747
 20
28.65105871715529
 10
77.38937682163844
 20
28.809783509856214
 10
77.74862489401353
 20
28.965935846807238
 10
78.10397703545401
 20
29.119552546380312
 10
78.4554329885034
 20
29.27063429387418
 10
78.80318161314389
 20
29.419094698467536
 10
79.1472744521526
 20
29.564796563351997
 10
79.48728296366605
 20
29.708047948142063
 10
79.82333977918225
 20
29.84891213126195
 10
80.15560436721351
 20
29.986964638670127
 10
80.48388570514358
 20
30.12229761769734
 10
80.80808070741823
 20
30.25518546196035
 10
81.1284296738142
 20
30.38540485794898
 10
81.44470889480303
 20
30.512718641597644
 10
81.75695270501816
 20
30.637451738390716
 10
82.06510945869987
 20
30.759741619256065
 10
82.36904152969537
 20
30.87953830056509
 10
82.66885174610249
 20
30.99656807399979
 10
82.96448835917897
 20
31.11096868460752
 10
83.25584828337054
 20
31.22301452600507
 10
83.54298280399794
 20
31.33256908668277
 10
83.82585732897127
 20
31.439308126455018
 10
84.10447160083419
 20
31.54323233062057
 10
84.37875707463094
 20
31.644940470041544
 10
84.648627512512
 20
31.7442457754602
 10
84.91408286298613
 20
31.841148383936314
 10
85.17517435988273
 20
31.935511921019977
 10
85.43176442854023
 20
32.027286266022834
 10
85.68399033467249
 20
32.11652236199172
 10
85.93161157253762
 20
32.20344407067584
 10
86.17473086725084
 20
32.287777957876656
 10
86.4132451332579
 20
32.36979841721092
 10
86.64739472182686
 20
32.44928199810871
 10
86.87680150106303
 20
32.52640257869062
 10
87.10155134837693
 20
32.6013478876326
 10
87.32155812890163
 20
32.67393088155744
 10
87.5370107026193
 20
32.74406516964383
 10
87.74766804887521
 20
32.81197598423845
 10
87.95377026148097
 20
32.87744056007009
 10
88.15489096120707
 20
32.940761200243834
 10
88.3513524633943
 20
33.00191259940658
 10
88.54288116345829
 20
33.06079040438921
 10
88.72961443009542
 20
33.117445284119064
 10
88.91155216032305
 20
33.171877512715625
 10
89.08864270838151
 20
33.22422456110677
 10
89.26080004238645
 20
33.2742991117958
 10
89.42792097380105
 20
33.32237583251895
 10
89.59019451708131
 20
33.3683679212757
 10
89.7474314518061
 20
33.41236272830556
 10
89.89968321776995
 20
33.45422333091968
 10
90.04689827219573
 20
33.49408692592641
 10
90.18912795189541
 20
33.53181686475638
 10
90.32632071409192
 20
33.56755034421798
 10
90.45837352472225
 20
33.60156162086819
 10
90.58525168871405
 20
33.63352672864096
 10
90.70717876112185
 20
33.66368324278105
 10
90.82369052667538
 20
33.692017860972086
 10
90.93525104617103
 20
33.718544296709716
 10
91.04158517028591
 20
33.74316230861725
 10
91.14258986495702
 20
33.7661461532517
 10
91.2384540931491
 20
33.78740916567228
 10
91.3290402287094
 20
33.80690136225039
 10
91.41424528906623
 20
33.824896862483314
 10
91.4943096769789
 20
33.84117207874135
 10
91.56899288670556
 20
33.8559508727737
 10
91.63834630654942
 20
33.869096458951205
 10
91.70226695393886
 20
33.880882956771146
 10
91.76080632015972
 20
33.891173306484895
 10
91.81405033411376
 20
33.90015509970866
 10
91.8617238979693
 20
33.90772795800603
 10
91.90391309510201
 20
33.91407906181396
 10
91.9407553971908
 20
33.9192588059403
 10
91.97197570640395
 20
33.92316681194862
 10
91.99760851184878
 20
33.92612759414403
 10
92.01784298245511
 20
33.92805393934674
 10
92.03230083185453
 20
33.929120136856596
 10
92.04106829789643
 20
33.9295129559313
 10
92.04404224353537
 20
33.929506927247395
  0
ENDSEC
  0
SECTION
  2
OBJECTS
  0
DICTIONARY
  5
A
330
0
100
AcDbDictionary
280
0
281
1
  3
ACAD_COLOR
350
B
  3
ACAD_GROUP
350
C
  3
ACAD_LAYOUT
350
D
  3
ACAD_MATERIAL
350
E
  3
ACAD_MLEADERSTYLE
350
F
  3
ACAD_MLINESTYLE
350
10
  3
ACAD_PLOTSETTINGS
350
11
  3
ACAD_PLOTSTYLENAME
350
12
  3
ACAD_SCALELIST
350
14
  3
ACAD_TABLESTYLE
350
15
  3
ACAD_VISUALSTYLE
350
16
  3
EZDXF_META
350
2D
  0
DICTIONARY
  5
B
330
A
100
AcDbDictionary
280
0
281
1
  0
DICTIONARY
  5
C
330
A
100
AcDbDictionary
280
0
281
1
  0
DICTIONARY
  5
D
330
A
100
AcDbDictionary
280
0
281
1
  3
Model
350
1A
  3
Layout1
350
1E
  0
DICTIONARY
  5
E
330
A
100
AcDbDictionary
280
0
281
1
  3
ByBlock
350
1F
  3
ByLayer
350
20
  3
Global
350
21
  0
DICTIONARY
  5
F
330
A
100
AcDbDictionary
280
0
281
1
  3
Standard
350
2C
  0
DICTIONARY
  5
10
330
A
100
AcDbDictionary
280
0
281
1
  3
Standard
350
22
  0
DICTIONARY
  5
11
330
A
100
AcDbDictionary
280
0
281
1
  0
ACDBDICTIONARYWDFLT
  5
12
330
A
100
AcDbDictionary
280
0
281
1
  3
Normal
350
13
100
AcDbDictionaryWithDefault
340
13
  0
ACDBPLACEHOLDER
  5
13
330
12
  0
DICTIONARY
  5
14
330
A
100
AcDbDictionary
280
0
281
1
  0
DICTIONARY
  5
15
330
A
100
AcDbDictionary
280
0
281
1
  0
DICTIONARY
  5
16
330
A
100
AcDbDictionary
280
0
281
1
  0
LAYOUT
  5
1A
330
D
100
AcDbPlotSettings
  1

  4
A3
  6

 40
7.5
 41
20.0
 42
7.5
 43
20.0
 44
420.0
 45
297.0
 46
0.0
 47
0.0
 48
0.0
 49
0.0
140
0.0
141
0.0
142
1.0
143
1.0
 70
1024
 72
1
 73
0
 74
5
  7

 75
16
 76
0
 77
2
 78
300
147
1.0
148
0.0
149
0.0
100
AcDbLayout
  1
Model
 70
1
 71
0
 10
0.0
 20
0.0
 11
420.0
 21
297.0
 12
0.0
 22
0.0
 32
0.0
 14
1e+20
 24
1e+20
 34
1e+20
 15
-1e+20
 25
-1e+20
 35
-1e+20
146
0.0
 13
0.0
 23
0.0
 33
0.0
 16
1.0
 26
0.0
 36
0.0
 17
0.0
 27
1.0
 37
0.0
 76
1
330
17
  0
LAYOUT
  5
1E
330
D
100
AcDbPlotSettings
  1

  4
A3
  6

 40
7.5
 41
20.0
 42
7.5
 43
20.0
 44
420.0
 45
297.0
 46
0.0
 47
0.0
 48
0.0
 49
0.0
140
0.0
141
0.0
142
1.0
143
1.0
 70
0
 72
1
 73
0
 74
5
  7

 75
16
 76
0
 77
2
 78
300
147
1.0
148
0.0
149
0.0
100
AcDbLayout
  1
Layout1
 70
1
 71
1
 10
0.0
 20
0.0
 11
420.0
 21
297.0
 12
0.0
 22
0.0
 32
0.0
 14
1e+20
 24
1e+20
 34
1e+20
 15
-1e+20
 25
-1e+20
 35
-1e+20
146
0.0
 13
0.0
 23
0.0
 33
0.0
 16
1.0
 26
0.0
 36
0.0
 17
0.0
 27
1.0
 37
0.0
 76
1
330
1B
  0
MATERIAL
  5
1F
102
{ACAD_REACTORS
330
E
102
}
330
E
100
AcDbMaterial
  1
ByBlock
  2

 70
0
 40
1.0
 71
1
 41
1.0
 91
-1023410177
 42
1.0
 72
1
  3

 73
1
 74
1
 75
1
 44
0.5
 73
0
 45
1.0
 46
1.0
 77
1
  4

 78
1
 79
1
170
1
 48
1.0
171
1
  6

172
1
173
1
174
1
140
1.0
141
1.0
175
1
  7

176
1
177
1
178
1
143
1.0
179
1
  8

270
1
271
1
272
1
145
1.0
146
1.0
273
1
  9

274
1
275
1
276
1
 42
1.0
 72
1
  3

 73
1
 74
1
 75
1
 94
63
  0
MATERIAL
  5
20
102
{ACAD_REACTORS
330
E
102
}
330
E
100
AcDbMaterial
  1
ByLayer
  2

 70
0
 40
1.0
 71
1
 41
1.0
 91
-1023410177
 42
1.0
 72
1
  3

 73
1
 74
1
 75
1
 44
0.5
 73
0
 45
1.0
 46
1.0
 77
1
  4

 78
1
 79
1
170
1
 48
1.0
171
1
  6

172
1
173
1
174
1
140
1.0
141
1.0
175
1
  7

176
1
177
1
178
1
143
1.0
179
1
  8

270
1
271
1
272
1
145
1.0
146
1.0
273
1
  9

274
1
275
1
276
1
 42
1.0
 72
1
  3

 73
1
 74
1
 75
1
 94
63
  0
MATERIAL
  5
21
102
{ACAD_REACTORS
330
E
102
}
330
E
100
AcDbMaterial
  1
Global
  2

 70
0
 40
1.0
 71
1
 41
1.0
 91
-1023410177
 42
1.0
 72
1
  3

 73
1
 74
1
 75
1
 44
0.5
 73
0
 45
1.0
 46
1.0
 77
1
  4

 78
1
 79
1
170
1
 48
1.0
171
1
  6

172
1
173
1
174
1
140
1.0
141
1.0
175
1
  7

176
1
177
1
178
1
143
1.0
179
1
  8

270
1
271
1
272
1
145
1.0
146
1.0
273
1
  9

274
1
275
1
276
1
 42
1.0
 72
1
  3

 73
1
 74
1
 75
1
 94
63
  0
MLINESTYLE
  5
22
102
{ACAD_REACTORS
330
10
102
}
330
10
100
AcDbMlineStyle
  2
Standard
 70
0
  3

 62
256
 51
90.0
 52
90.0
 71
2
 49
0.5
 62
256
  6
BYLAYER
 49
-0.5
 62
256
  6
BYLAYER
  0
MLEADERSTYLE
  5
2C
102
{ACAD_REACTORS
330
F
102
}
330
F
100
AcDbMLeaderStyle
179
2
170
2
171
1
172
0
 90
2
 40
0.0
 41
0.0
173
1
 91
-1056964608
 92
-2
290
1
 42
2.0
291
1
 43
8.0
  3
Standard
 44
4.0
300

342
29
174
1
175
1
176
0
178
1
 93
-1056964608
 45
4.0
292
0
297
0
 46
4.0
 94
-1056964608
 47
1.0
 49
1.0
140
1.0
294
1
141
0.0
177
0
142
1.0
295
0
296
0
143
3.75
271
0
272
9
273
9
  0
DICTIONARY
  5
2D
330
A
100
AcDbDictionary
280
1
281
1
  3
CREATED_BY_EZDXF
350
2E
  3
WRITTEN_BY_EZDXF
350
32
  0
DICTIONARYVAR
  5
2E
330
2D
100
DictionaryVariables
280
0
  1
1.3.5 @ 2025-08-20T01:28:29.244254+00:00
  0
DICTIONARYVAR
  5
32
330
2D
100
DictionaryVariables
280
0
  1
1.3.5 @ 2025-08-20T01:28:29.259904+00:00
  0
ENDSEC
  0
EOF
