  0
SECTION
  2
HEADER
  9
$ACADVER
  1
AC1032
  9
$ACADMAINTVER
 90
4
  9
$DWGCODEPAGE
  3
ANSI_1252
  9
$LASTSAVEDBY
  1
ezdxf
  9
$REQUIREDVERSIONS
160
0
  9
$INSBASE
 10
0.0
 20
0.0
 30
0.0
  9
$EXTMIN
 10
1e+20
 20
1e+20
 30
1e+20
  9
$EXTMAX
 10
-1e+20
 20
-1e+20
 30
-1e+20
  9
$LIMMIN
 10
0.0
 20
0.0
  9
$LIMMAX
 10
420.0
 20
297.0
  9
$ORTHOMODE
 70
0
  9
$REGENMODE
 70
1
  9
$FILLMODE
 70
1
  9
$QTEXTMODE
 70
0
  9
$MIRRTEXT
 70
1
  9
$LTSCALE
 40
1.0
  9
$ATTMODE
 70
1
  9
$TEXTSIZE
 40
2.5
  9
$TRACEWID
 40
1.0
  9
$TEXTSTYLE
  7
Standard
  9
$CLAYER
  8
0
  9
$CELTYPE
  6
ByLayer
  9
$CECOLOR
 62
256
  9
$CELTSCALE
 40
1.0
  9
$DISPSILH
 70
0
  9
$DIMSCALE
 40
1.0
  9
$DIMASZ
 40
2.5
  9
$DIMEXO
 40
0.625
  9
$DIMDLI
 40
3.75
  9
$DIMRND
 40
0.0
  9
$DIMDLE
 40
0.0
  9
$DIMEXE
 40
1.25
  9
$DIMTP
 40
0.0
  9
$DIMTM
 40
0.0
  9
$DIMTXT
 40
2.5
  9
$DIMCEN
 40
2.5
  9
$DIMTSZ
 40
0.0
  9
$DIMTOL
 70
0
  9
$DIMLIM
 70
0
  9
$DIMTIH
 70
0
  9
$DIMTOH
 70
0
  9
$DIMSE1
 70
0
  9
$DIMSE2
 70
0
  9
$DIMTAD
 70
1
  9
$DIMZIN
 70
8
  9
$DIMBLK
  1

  9
$DIMASO
 70
1
  9
$DIMSHO
 70
1
  9
$DIMPOST
  1

  9
$DIMAPOST
  1

  9
$DIMALT
 70
0
  9
$DIMALTD
 70
3
  9
$DIMALTF
 40
0.03937007874
  9
$DIMLFAC
 40
1.0
  9
$DIMTOFL
 70
1
  9
$DIMTVP
 40
0.0
  9
$DIMTIX
 70
0
  9
$DIMSOXD
 70
0
  9
$DIMSAH
 70
0
  9
$DIMBLK1
  1

  9
$DIMBLK2
  1

  9
$DIMSTYLE
  2
ISO-25
  9
$DIMCLRD
 70
0
  9
$DIMCLRE
 70
0
  9
$DIMCLRT
 70
0
  9
$DIMTFAC
 40
1.0
  9
$DIMGAP
 40
0.625
  9
$DIMJUST
 70
0
  9
$DIMSD1
 70
0
  9
$DIMSD2
 70
0
  9
$DIMTOLJ
 70
0
  9
$DIMTZIN
 70
8
  9
$DIMALTZ
 70
0
  9
$DIMALTTZ
 70
0
  9
$DIMUPT
 70
0
  9
$DIMDEC
 70
2
  9
$DIMTDEC
 70
2
  9
$DIMALTU
 70
2
  9
$DIMALTTD
 70
3
  9
$DIMTXSTY
  7
Standard
  9
$DIMAUNIT
 70
0
  9
$DIMADEC
 70
0
  9
$DIMALTRND
 40
0.0
  9
$DIMAZIN
 70
0
  9
$DIMDSEP
 70
44
  9
$DIMATFIT
 70
3
  9
$DIMFRAC
 70
0
  9
$DIMLDRBLK
  1

  9
$DIMLUNIT
 70
2
  9
$DIMLWD
 70
-2
  9
$DIMLWE
 70
-2
  9
$DIMTMOVE
 70
0
  9
$DIMFXL
 40
1.0
  9
$DIMFXLON
 70
0
  9
$DIMJOGANG
 40
0.785398163397
  9
$DIMTFILL
 70
0
  9
$DIMTFILLCLR
 70
0
  9
$DIMARCSYM
 70
0
  9
$DIMLTYPE
  6

  9
$DIMLTEX1
  6

  9
$DIMLTEX2
  6

  9
$DIMTXTDIRECTION
 70
0
  9
$LUNITS
 70
2
  9
$LUPREC
 70
4
  9
$SKETCHINC
 40
1.0
  9
$FILLETRAD
 40
10.0
  9
$AUNITS
 70
0
  9
$AUPREC
 70
2
  9
$MENU
  1
.
  9
$ELEVATION
 40
0.0
  9
$PELEVATION
 40
0.0
  9
$THICKNESS
 40
0.0
  9
$LIMCHECK
 70
0
  9
$CHAMFERA
 40
0.0
  9
$CHAMFERB
 40
0.0
  9
$CHAMFERC
 40
0.0
  9
$CHAMFERD
 40
0.0
  9
$SKPOLY
 70
0
  9
$TDCREATE
 40
2460908.103125
  9
$TDUCREATE
 40
2458532.153996898
  9
$TDUPDATE
 40
2460908.103125
  9
$TDUUPDATE
 40
2458532.1544311
  9
$TDINDWG
 40
0.0
  9
$TDUSRTIMER
 40
0.0
  9
$USRTIMER
 70
1
  9
$ANGBASE
 50
0.0
  9
$ANGDIR
 70
0
  9
$PDMODE
 70
0
  9
$PDSIZE
 40
0.0
  9
$PLINEWID
 40
0.0
  9
$SPLFRAME
 70
0
  9
$SPLINETYPE
 70
6
  9
$SPLINESEGS
 70
8
  9
$HANDSEED
  5
33
  9
$SURFTAB1
 70
6
  9
$SURFTAB2
 70
6
  9
$SURFTYPE
 70
6
  9
$SURFU
 70
6
  9
$SURFV
 70
6
  9
$UCSBASE
  2

  9
$UCSNAME
  2

  9
$UCSORG
 10
0.0
 20
0.0
 30
0.0
  9
$UCSXDIR
 10
1.0
 20
0.0
 30
0.0
  9
$UCSYDIR
 10
0.0
 20
1.0
 30
0.0
  9
$UCSORTHOREF
  2

  9
$UCSORTHOVIEW
 70
0
  9
$UCSORGTOP
 10
0.0
 20
0.0
 30
0.0
  9
$UCSORGBOTTOM
 10
0.0
 20
0.0
 30
0.0
  9
$UCSORGLEFT
 10
0.0
 20
0.0
 30
0.0
  9
$UCSORGRIGHT
 10
0.0
 20
0.0
 30
0.0
  9
$UCSORGFRONT
 10
0.0
 20
0.0
 30
0.0
  9
$UCSORGBACK
 10
0.0
 20
0.0
 30
0.0
  9
$PUCSBASE
  2

  9
$PUCSNAME
  2

  9
$PUCSORG
 10
0.0
 20
0.0
 30
0.0
  9
$PUCSXDIR
 10
1.0
 20
0.0
 30
0.0
  9
$PUCSYDIR
 10
0.0
 20
1.0
 30
0.0
  9
$PUCSORTHOREF
  2

  9
$PUCSORTHOVIEW
 70
0
  9
$PUCSORGTOP
 10
0.0
 20
0.0
 30
0.0
  9
$PUCSORGBOTTOM
 10
0.0
 20
0.0
 30
0.0
  9
$PUCSORGLEFT
 10
0.0
 20
0.0
 30
0.0
  9
$PUCSORGRIGHT
 10
0.0
 20
0.0
 30
0.0
  9
$PUCSORGFRONT
 10
0.0
 20
0.0
 30
0.0
  9
$PUCSORGBACK
 10
0.0
 20
0.0
 30
0.0
  9
$USERI1
 70
0
  9
$USERI2
 70
0
  9
$USERI3
 70
0
  9
$USERI4
 70
0
  9
$USERI5
 70
0
  9
$USERR1
 40
0.0
  9
$USERR2
 40
0.0
  9
$USERR3
 40
0.0
  9
$USERR4
 40
0.0
  9
$USERR5
 40
0.0
  9
$WORLDVIEW
 70
1
  9
$SHADEDGE
 70
3
  9
$SHADEDIF
 70
70
  9
$TILEMODE
 70
1
  9
$MAXACTVP
 70
64
  9
$PINSBASE
 10
0.0
 20
0.0
 30
0.0
  9
$PLIMCHECK
 70
0
  9
$PEXTMIN
 10
1e+20
 20
1e+20
 30
1e+20
  9
$PEXTMAX
 10
-1e+20
 20
-1e+20
 30
-1e+20
  9
$PLIMMIN
 10
0.0
 20
0.0
  9
$PLIMMAX
 10
420.0
 20
297.0
  9
$UNITMODE
 70
0
  9
$VISRETAIN
 70
1
  9
$PLINEGEN
 70
0
  9
$PSLTSCALE
 70
1
  9
$TREEDEPTH
 70
3020
  9
$CMLSTYLE
  2
Standard
  9
$CMLJUST
 70
0
  9
$CMLSCALE
 40
20.0
  9
$PROXYGRAPHICS
 70
1
  9
$MEASUREMENT
 70
1
  9
$CELWEIGHT
370
-1
  9
$ENDCAPS
280
0
  9
$JOINSTYLE
280
0
  9
$LWDISPLAY
290
0
  9
$INSUNITS
 70
6
  9
$HYPERLINKBASE
  1

  9
$STYLESHEET
  1

  9
$XEDIT
290
1
  9
$CEPSNTYPE
380
0
  9
$PSTYLEMODE
290
1
  9
$FINGERPRINTGUID
  2
{146A463D-1B9B-41D7-9E93-BAABE5D448A8}
  9
$VERSIONGUID
  2
{1380A1EF-DAEB-49EB-AAFE-5522E4E3DBCB}
  9
$EXTNAMES
290
1
  9
$PSVPSCALE
 40
0.0
  9
$OLESTARTUP
290
0
  9
$SORTENTS
280
127
  9
$INDEXCTL
280
0
  9
$HIDETEXT
280
1
  9
$XCLIPFRAME
280
1
  9
$HALOGAP
280
0
  9
$OBSCOLOR
 70
257
  9
$OBSLTYPE
280
0
  9
$INTERSECTIONDISPLAY
280
0
  9
$INTERSECTIONCOLOR
 70
257
  9
$DIMASSOC
280
2
  9
$PROJECTNAME
  1

  9
$CAMERADISPLAY
290
0
  9
$LENSLENGTH
 40
50.0
  9
$CAMERAHEIGHT
 40
0.0
  9
$STEPSPERSEC
 40
24.0
  9
$STEPSIZE
 40
100.0
  9
$3DDWFPREC
 40
2.0
  9
$PSOLWIDTH
 40
0.005
  9
$PSOLHEIGHT
 40
0.08
  9
$LOFTANG1
 40
1.570796326795
  9
$LOFTANG2
 40
1.570796326795
  9
$LOFTMAG1
 40
0.0
  9
$LOFTMAG2
 40
0.0
  9
$LOFTPARAM
 70
7
  9
$LOFTNORMALS
280
1
  9
$LATITUDE
 40
37.795
  9
$LONGITUDE
 40
-122.394
  9
$NORTHDIRECTION
 40
0.0
  9
$TIMEZONE
 70
-8000
  9
$LIGHTGLYPHDISPLAY
280
1
  9
$TILEMODELIGHTSYNCH
280
1
  9
$CMATERIAL
347
20
  9
$SOLIDHIST
280
0
  9
$SHOWHIST
280
1
  9
$DWFFRAME
280
2
  9
$DGNFRAME
280
2
  9
$REALWORLDSCALE
290
1
  9
$INTERFERECOLOR
 62
256
  9
$CSHADOW
280
0
  9
$SHADOWPLANELOCATION
 40
0.0
  0
ENDSEC
  0
SECTION
  2
CLASSES
  0
CLASS
  1
ACDBDICTIONARYWDFLT
  2
AcDbDictionaryWithDefault
  3
ObjectDBX Classes
 90
0
 91
0
280
0
281
0
  0
CLASS
  1
SUN
  2
AcDbSun
  3
SCENEOE
 90
1153
 91
0
280
0
281
0
  0
CLASS
  1
VISUALSTYLE
  2
AcDbVisualStyle
  3
ObjectDBX Classes
 90
4095
 91
0
280
0
281
0
  0
CLASS
  1
MATERIAL
  2
AcDbMaterial
  3
ObjectDBX Classes
 90
1153
 91
0
280
0
281
0
  0
CLASS
  1
SCALE
  2
AcDbScale
  3
ObjectDBX Classes
 90
1153
 91
0
280
0
281
0
  0
CLASS
  1
TABLESTYLE
  2
AcDbTableStyle
  3
ObjectDBX Classes
 90
4095
 91
0
280
0
281
0
  0
CLASS
  1
MLEADERSTYLE
  2
AcDbMLeaderStyle
  3
ACDB_MLEADERSTYLE_CLASS
 90
4095
 91
0
280
0
281
0
  0
CLASS
  1
DICTIONARYVAR
  2
AcDbDictionaryVar
  3
ObjectDBX Classes
 90
0
 91
0
280
0
281
0
  0
CLASS
  1
CELLSTYLEMAP
  2
AcDbCellStyleMap
  3
ObjectDBX Classes
 90
1152
 91
0
280
0
281
0
  0
CLASS
  1
MENTALRAYRENDERSETTINGS
  2
AcDbMentalRayRenderSettings
  3
SCENEOE
 90
1024
 91
0
280
0
281
0
  0
CLASS
  1
ACDBDETAILVIEWSTYLE
  2
AcDbDetailViewStyle
  3
ObjectDBX Classes
 90
1025
 91
0
280
0
281
0
  0
CLASS
  1
ACDBSECTIONVIEWSTYLE
  2
AcDbSectionViewStyle
  3
ObjectDBX Classes
 90
1025
 91
0
280
0
281
0
  0
CLASS
  1
RASTERVARIABLES
  2
AcDbRasterVariables
  3
ISM
 90
0
 91
0
280
0
281
0
  0
CLASS
  1
LAYOUT
  2
AcDbLayout
  3
ObjectDBX Classes
 90
0
 91
0
280
0
281
0
  0
CLASS
  1
ACDBPLACEHOLDER
  2
AcDbPlaceHolder
  3
ObjectDBX Classes
 90
0
 91
0
280
0
281
0
  0
ENDSEC
  0
SECTION
  2
TABLES
  0
TABLE
  2
VPORT
  5
8
330
0
100
AcDbSymbolTable
 70
1
  0
VPORT
  5
23
330
8
100
AcDbSymbolTableRecord
100
AcDbViewportTableRecord
  2
*Active
 70
0
 10
0.0
 20
0.0
 11
1.0
 21
1.0
 12
0.0
 22
0.0
 13
0.0
 23
0.0
 14
0.5
 24
0.5
 15
0.5
 25
0.5
 16
0.0
 26
0.0
 36
1.0
 17
0.0
 27
0.0
 37
0.0
 40
1000.0
 41
1.34
 42
50.0
 43
0.0
 44
0.0
 50
0.0
 51
0.0
 71
0
 72
1000
 73
1
 74
3
 75
0
 76
0
 77
0
 78
0
281
0
 65
0
146
0.0
  0
ENDTAB
  0
TABLE
  2
LTYPE
  5
2
330
0
100
AcDbSymbolTable
 70
3
  0
LTYPE
  5
24
330
2
100
AcDbSymbolTableRecord
100
AcDbLinetypeTableRecord
  2
ByBlock
 70
0
  3

 72
65
 73
0
 40
0.0
  0
LTYPE
  5
25
330
2
100
AcDbSymbolTableRecord
100
AcDbLinetypeTableRecord
  2
ByLayer
 70
0
  3

 72
65
 73
0
 40
0.0
  0
LTYPE
  5
26
330
2
100
AcDbSymbolTableRecord
100
AcDbLinetypeTableRecord
  2
Continuous
 70
0
  3

 72
65
 73
0
 40
0.0
  0
ENDTAB
  0
TABLE
  2
LAYER
  5
1
330
0
100
AcDbSymbolTable
 70
2
  0
LAYER
  5
27
330
1
100
AcDbSymbolTableRecord
100
AcDbLayerTableRecord
  2
0
 70
0
 62
7
  6
Continuous
370
-3
390
13
347
21
  0
LAYER
  5
28
330
1
100
AcDbSymbolTableRecord
100
AcDbLayerTableRecord
  2
Defpoints
 70
0
 62
7
  6
Continuous
290
0
370
-3
390
13
347
21
  0
ENDTAB
  0
TABLE
  2
STYLE
  5
5
330
0
100
AcDbSymbolTable
 70
1
  0
STYLE
  5
29
330
5
100
AcDbSymbolTableRecord
100
AcDbTextStyleTableRecord
  2
Standard
 70
0
 40
0.0
 41
1.0
 50
0.0
 71
0
 42
2.5
  3
txt
  4

  0
ENDTAB
  0
TABLE
  2
VIEW
  5
7
330
0
100
AcDbSymbolTable
 70
0
  0
ENDTAB
  0
TABLE
  2
UCS
  5
6
330
0
100
AcDbSymbolTable
 70
0
  0
ENDTAB
  0
TABLE
  2
APPID
  5
3
330
0
100
AcDbSymbolTable
 70
3
  0
APPID
  5
2A
330
3
100
AcDbSymbolTableRecord
100
AcDbRegAppTableRecord
  2
ACAD
 70
0
  0
APPID
  5
30
330
3
100
AcDbSymbolTableRecord
100
AcDbRegAppTableRecord
  2
HATCHBACKGROUNDCOLOR
 70
0
  0
APPID
  5
31
330
3
100
AcDbSymbolTableRecord
100
AcDbRegAppTableRecord
  2
EZDXF
 70
0
  0
ENDTAB
  0
TABLE
  2
DIMSTYLE
  5
4
330
0
100
AcDbSymbolTable
 70
1
100
AcDbDimStyleTable
  0
DIMSTYLE
105
2B
330
4
100
AcDbSymbolTableRecord
100
AcDbDimStyleTableRecord
  2
Standard
 70
0
 40
1.0
 41
2.5
 42
0.625
 43
3.75
 44
1.25
 45
0.0
 46
0.0
 47
0.0
 48
0.0
 49
2.5
140
2.5
141
2.5
142
0.0
143
0.03937007874
144
1.0
145
0.0
146
1.0
147
0.625
148
0.0
 69
0
 70
0
 71
0
 72
0
 73
0
 74
0
 75
0
 76
0
 77
1
 78
8
 79
3
170
0
171
3
172
1
173
0
174
0
175
0
176
0
177
0
178
0
179
2
271
2
272
2
273
2
274
3
275
0
276
0
277
2
278
44
279
0
280
0
281
0
282
0
283
0
284
8
285
0
286
0
288
0
289
3
290
0
371
-2
372
-2
  0
ENDTAB
  0
TABLE
  2
BLOCK_RECORD
  5
9
330
0
100
AcDbSymbolTable
 70
2
  0
BLOCK_RECORD
  5
17
330
9
100
AcDbSymbolTableRecord
100
AcDbBlockTableRecord
  2
*Model_Space
340
1A
 70
0
280
1
281
0
  0
BLOCK_RECORD
  5
1B
330
9
100
AcDbSymbolTableRecord
100
AcDbBlockTableRecord
  2
*Paper_Space
340
1E
 70
0
280
1
281
0
  0
ENDTAB
  0
ENDSEC
  0
SECTION
  2
BLOCKS
  0
BLOCK
  5
18
330
17
100
AcDbEntity
  8
0
100
AcDbBlockBegin
  2
*Model_Space
 70
0
 10
0.0
 20
0.0
 30
0.0
  3
*Model_Space
  1

  0
ENDBLK
  5
19
330
17
100
AcDbEntity
  8
0
100
AcDbBlockEnd
  0
BLOCK
  5
1C
330
1B
100
AcDbEntity
  8
0
100
AcDbBlockBegin
  2
*Paper_Space
 70
0
 10
0.0
 20
0.0
 30
0.0
  3
*Paper_Space
  1

  0
ENDBLK
  5
1D
330
1B
100
AcDbEntity
  8
0
100
AcDbBlockEnd
  0
ENDSEC
  0
SECTION
  2
ENTITIES
  0
LWPOLYLINE
  5
2F
330
17
100
AcDbEntity
  8
0
100
AcDbPolyline
 90
721
 70
1
 10
47.424668776294055
 20
3.5207774604823374
 10
47.42328927936005
 20
3.5211645275594616
 10
47.41916086591618
 20
3.5221839895574623
 10
47.41230365544321
 20
3.523552863601323
 10
47.40263684726983
 20
3.525406793296721
 10
47.39031702419418
 20
3.527545077853715
 10
47.375268414156736
 20
3.5300326328589327
 10
47.35742529225421
 20
3.5327930594585375
 10
47.336929160483066
 20
3.5358377701209203
 10
47.31371429394004
 20
3.539090365992246
 10
47.28769987685286
 20
3.542686703074644
 10
47.25903747850884
 20
3.54649659620077
 10
47.22765633532565
 20
3.550514516133475
 10
47.19355141365784
 20
3.5548112616906242
 10
47.1567327807963
 20
3.559245235236484
 10
47.11719035938285
 20
3.5639581760044248
 10
47.074999936578
 20
3.5688849560113662
 10
47.03009074879939
 20
3.574020046020156
 10
46.982457762401566
 20
3.5794342448486627
 10
46.9321817881232
 20
3.584991767293574
 10
46.87918200012471
 20
3.590828610954656
 10
46.82346846066331
 20
3.5968032489949913
 10
46.765172599410946
 20
3.6030687623175224
 10
46.704087189467906
 20
3.609537339600025
 10
46.64042447627841
 20
3.6162262057433114
 10
46.57404295281234
 20
3.6231240190778067
 10
46.505013357483826
 20
3.6302366628347524
 10
46.433335685259216
 20
3.637564207812967
 10
46.35900489745945
 20
3.645177523629136
 10
46.28202097898358
 20
3.6530768226797123
 10
46.20239399208881
 20
3.6611205781277776
 10
46.12011386445065
 20
3.669450458407888
 10
46.035256363095016
 20
3.6780016187322317
 10
45.94774570086139
 20
3.68683918708389
 10
45.85759192490608
 20
3.6958218490223995
 10
45.764855721453266
 20
3.7050968730182823
 10
45.669532041756575
 20
3.7147352702858587
 10
45.57163597668505
 20
3.724524785969164
 10
45.471086690331795
 20
3.7346015592655983
 10
45.3680307183387
 20
3.744906203825685
 10
45.26232150492933
 20
3.7554983891941736
 10
45.15410054706646
 20
3.7663895986382716
 10
45.043297076134166
 20
3.777574373719648
 10
44.929981835580136
 20
3.7890585268707233
 10
44.814089090433846
 20
3.8007658008352982
 10
44.695689584143054
 20
3.8127020080457936
 10
44.574702480800916
 20
3.8250032876996123
 10
44.45127431101569
 20
3.8376103242460973
 10
44.32533430617136
 20
3.8505176592469144
 10
44.196882456200655
 20
3.8637254342996994
 10
44.065918735935334
 20
3.8772340033985406
 10
43.932508865245055
 20
3.8911198361960957
 10
43.79658709909194
 20
3.905306817033797
 10
43.658219152311936
 20
3.9198714863631148
 10
43.51741003338233
 20
3.9347433993602774
 10
43.37416980456025
 20
3.9497810291883604
 10
43.228559131935384
 20
3.965131927513162
 10
43.080497184634474
 20
3.980932162733264
 10
42.929983937489325
 20
3.997182088842758
 10
42.777105239917624
 20
4.013675051021643
 10
42.621856038139356
 20
4.030482131283061
 10
42.46423632208724
 20
4.047603471224646
 10
42.30423096565677
 20
4.06525182129409
 10
42.14186512197413
 20
4.083073399798509
 10
41.977199467196236
 20
4.101215616806062
 10
41.810228952576736
 20
4.119749483531069
 10
41.640877770820545
 20
4.138740411151882
 10
41.46929244750229
 20
4.158129154916662
 10
41.29540724261777
 20
4.177839528368025
 10
41.11922214609965
 20
4.197871673103608
 10
40.9407978240376
 20
4.218373140789203
 10
40.760154390878704
 20
4.239061019348612
 10
40.57721101574979
 20
4.2600713771804175
 10
40.39210415190094
 20
4.281486637967334
 10
40.204833784231255
 20
4.303307014105816
 10
40.01533921141556
 20
4.325385449521793
 10
39.82361537464022
 20
4.347793097027223
 10
39.62980377086806
 20
4.370541439889316
 10
39.43382355915856
 20
4.39376668810429
 10
39.2356898253471
 20
4.417256657614999
 10
39.03547330784778
 20
4.441017231652679
 10
38.833173991559676
 20
4.465048622613786
 10
38.628781784023694
 20
4.4894927821281465
 10
38.42229667013891
 20
4.514349922592211
 10
38.213723668449816
 20
4.539549457584568
 10
38.00320930956466
 20
4.565032071554558
 10
37.79060702260602
 20
4.590857646443382
 10
37.57598755102167
 20
4.617031994683463
 10
37.35943673919565
 20
4.643348532253621
 10
37.14087876976562
 20
4.669872811929843
 10
36.92036928524305
 20
4.696823042598155
 10
36.69797902907571
 20
4.724205036690981
 10
36.473576526288845
 20
4.751866350494736
 10
36.24731838484882
 20
4.77960592922539
 10
36.01918445003936
 20
4.8077072513496875
 10
35.789179740404926
 20
4.836099730446209
 10
35.55729920216557
 20
4.864854448528101
 10
35.3236236410262
 20
4.893835691190864
 10
35.08815304691959
 20
4.923043600032136
 10
34.850816636128776
 20
4.952472929010036
 10
34.61175087700477
 20
4.982205889410822
 10
34.37088499589801
 20
5.012237093594982
 10
34.12829980354706
 20
5.0424307563592015
 10
33.88399527981733
 20
5.07278716089875
 10
33.638042173190264
 20
5.103312048847236
 10
33.39036466630352
 20
5.1340709729806475
 10
33.1410234403476
 20
5.165211272568321
 10
32.88996280750826
 20
5.196515375913594
 10
32.637390019853456
 20
5.228070740344605
 10
32.38318366466561
 20
5.2595833953108535
 10
32.12733868313108
 20
5.291124493624294
 10
31.86998149141097
 20
5.322917631810471
 10
31.61110703572531
 20
5.355033891882522
 10
31.350588874744712
 20
5.387250031308994
 10
31.08872012002216
 20
5.419446711000395
 10
30.825293494321425
 20
5.4515368276226726
 10
30.56043540373635
 20
5.483744119299004
 10
30.294070035938244
 20
5.5161340680065605
 10
30.026343941669936
 20
5.548647074999414
 10
29.757201443184396
 20
5.581065426983259
 10
29.486703221672204
 20
5.613536463227439
 10
29.214839189707927
 20
5.646202064562962
 10
28.941634505451393
 20
5.678708378498123
 10
28.66709418744711
 20
5.710984818611509
 10
28.39133458456533
 20
5.743396579064396
 10
28.11421918315223
 20
5.7758620857598855
 10
27.835884466659763
 20
5.808463337587784
 10
27.55636062689322
 20
5.840775683238521
 10
27.275642615106214
 20
5.8728701339264155
 10
26.99372035394062
 20
5.904888428884843
 10
26.710578717291927
 20
5.937043318561491
 10
26.426379376973827
 20
5.9690625245615605
 10
26.141000905167814
 20
6.000652288730999
 10
25.85464050678559
 20
6.032041382838412
 10
25.567131451199813
 20
6.063573238090561
 10
25.27856464160817
 20
6.094970117654308
 10
24.988960187424144
 20
6.1259491802522685
 10
24.698449563622532
 20
6.156662869598031
 10
24.406886174157663
 20
6.187171421626884
 10
24.114406517582484
 20
6.217556622832181
 10
23.82094484382547
 20
6.247742428354172
 10
23.526581983759833
 20
6.277592769794276
 10
23.23138870096793
 20
6.307113176389642
 10
22.93529420669916
 20
6.336298472897208
 10
22.63844004321918
 20
6.365159505394824
 10
22.340684648127755
 20
6.393685710999912
 10
22.042159486332405
 20
6.422029675023694
 10
21.742869596512183
 20
6.450120527849482
 10
21.44284012675963
 20
6.477604558583209
 10
21.142060999716623
 20
6.504623506458248
 10
20.840668729037002
 20
6.531258945571495
 10
20.538516718675126
 20
6.557571111858243
 10
20.235756578187488
 20
6.583429253760603
 10
19.932393336185868
 20
6.608762643259528
 10
19.62843202128205
 20
6.633500552335966
 10
19.323862546050584
 20
6.657784861820925
 10
19.01875066056299
 20
6.681691616574152
 10
18.713096349718334
 20
6.705221028992099
 10
18.406985488102517
 20
6.7281660902606815
 10
18.100352325644064
 20
6.75045075552015
 10
17.79327266460437
 20
6.772009684390972
 10
17.485802182730453
 20
6.793060590167444
 10
17.177854990335447
 20
6.813810694060114
 10
16.869582712076795
 20
6.834129032114636
 10
16.56095483340096
 20
6.85344396774619
 10
16.251941137334452
 20
6.872180506258437
 10
15.942678162699352
 20
6.890419867754187
 10
15.633105177968659
 20
6.908015420952278
 10
15.323227221821424
 20
6.924896296236022
 10
15.013170745654314
 20
6.941285594539237
 10
14.702870009463098
 20
6.957107129404541
 10
14.392410882800057
 20
6.972153962816662
 10
14.08172258194825
 20
6.986420848733721
 10
13.770941645729785
 20
6.99998900725853
 10
13.460063030431915
 20
7.0129293788065885
 10
13.149101842024585
 20
7.025029496125477
 10
12.838053036795072
 20
7.0363602996307
 10
12.526982369848522
 20
7.046997763383185
 10
12.215803956531726
 20
7.057149037794659
 10
11.904689566151108
 20
7.06639982204167
 10
11.593639198706665
 20
7.074750116124222
 10
11.282647825586618
 20
7.082270648061365
 10
10.97171040307825
 20
7.0890323582686
 10
10.660902763644856
 20
7.094969481573487
 10
10.350149084890425
 20
7.100147641550831
 10
10.039595972927906
 20
7.104506460667707
 10
9.729253500081779
 20
7.10790427048956
 10
9.419116632706633
 20
7.1104118698342615
 10
9.109180342190681
 20
7.112099986720856
 10
8.79944966217935
 20
7.1128978223314805
 10
8.490076247531936
 20
7.112673987918885
 10
8.180979237173368
 20
7.111564976674563
 10
7.872219362630663
 20
7.109717419879673
 10
7.56375100338036
 20
7.1067721482018165
 10
7.255705674666419
 20
7.1028810389640356
 10
6.9480682906535
 20
7.098256276223478
 10
6.640783153460004
 20
7.092680429881114
 10
6.334001928012529
 20
7.086021969592064
 10
6.027714552053862
 20
7.078422422193243
 10
5.721860299090631
 20
7.069735085604672
 10
5.41657069946772
 20
7.060111624752938
 10
5.111785031725414
 20
7.049405266759245
 10
4.807639854820366
 20
7.0376969485311305
 10
4.5039784903151485
 20
7.025188716036073
 10
4.200952603136344
 20
7.01174903892919
 10
3.898582327865665
 20
6.997094721939011
 10
3.596862645958618
 20
6.98129635148695
 10
3.295849250263144
 20
6.964571428470855
 10
2.995547194559261
 20
6.946848870877585
 10
2.695961517526023
 20
6.928057809090455
 10
2.3971630230149614
 20
6.908203205956074
 10
2.0990708499509902
 20
6.8874215546659325
 10
1.8017457499957068
 20
6.865859203305923
 10
1.5052786565486904
 20
6.843237990249997
 10
1.2096796469680842
 20
6.819416176264786
 10
0.9149386690639646
 20
6.794535146589573
 10
0.6211219511041597
 20
6.768664220196404
 10
0.3281595097213502
 20
6.741786894031361
 10
0.03611712518892787
 20
6.713978788161286
 10
-0.25493943732068014
 20
6.685315735049468
 10
-0.5450608420436192
 20
6.655509505779015
 10
-0.8341762901620354
 20
6.624565133995349
 10
-1.1222401510851925
 20
6.592841647433238
 10
-1.4093131563400954
 20
6.560192414811518
 10
-1.695248674645593
 20
6.526556704603176
 10
-1.9801883036374133
 20
6.491924449517358
 10
-2.2639904456798257
 20
6.456305716844917
 10
-2.54659436924581
 20
6.419847137867015
 10
-2.828146705616532
 20
6.382609444110667
 10
-3.1085514877469933
 20
6.344243675131959
 10
-3.3876973198740163
 20
6.305184691128953
 10
-3.66566506810631
 20
6.265569056091956
 10
-3.9424953293892013
 20
6.224966943468336
 10
-4.217975707269079
 20
6.183393454194371
 10
-4.492192101500088
 20
6.14105595107824
 10
-4.765149545727658
 20
6.0980252329378075
 10
-5.036837972660931
 20
6.0541597021373414
 10
-5.3071208183096035
 20
6.0095402247855585
 10
-5.57613968030941
 20
5.964156733591611
 10
-5.843768061960895
 20
5.918231692299949
 10
-6.109995895973201
 20
5.871623503274842
 10
-6.3748181487009035
 20
5.824261367698419
 10
-6.638239853789434
 20
5.77621608438855
 10
-6.900200279711771
 20
5.727634284626395
 10
-7.160770225285784
 20
5.6785109347665275
 10
-7.419798025584885
 20
5.628714504464066
 10
-7.677283680609075
 20
5.578244993719009
 10
-7.933292955530793
 20
5.527026570068065
 10
-8.187760085177603
 20
5.475135065974524
 10
-8.440700170485778
 20
5.4227828778919935
 10
-8.692047446282878
 20
5.370045838283765
 10
-8.941781777987202
 20
5.316640751878368
 10
-9.189973964416609
 20
5.262562585030376
 10
-9.43640657547208
 20
5.207755639858201
 10
-9.681236309725621
 20
5.152422245524591
 10
-9.924468200822663
 20
5.096633200847419
 10
-10.165960651127467
 20
5.040398573117533
 10
-10.405708626994608
 20
4.983647563517066
 10
-10.643767826305679
 20
4.926162741946989
 10
-10.88008758482451
 20
4.8682323373242
 10
-11.114683003487386
 20
4.810068746102301
 10
-11.347458115249305
 20
4.75132300783738
 10
-11.578483718928133
 20
4.69199008888401
 10
-11.80762828417899
 20
4.632221654168781
 10
-12.034962609819745
 20
4.5720126700462655
 10
-12.260491729495824
 20
4.51143393533433
 10
-12.484129743453073
 20
4.4502780872248
 10
-12.705886718982354
 20
4.388686723353408
 10
-12.925762656083661
 20
4.326659843720159
 10
-13.143777689338702
 20
4.264480643596517
 10
-13.359785187466315
 20
4.202088391455472
 10
-13.573911647165955
 20
4.139260623552568
 10
-13.786076202328905
 20
4.075860775897493
 10
-13.996228188719
 20
4.012177077407148
 10
-14.204448472444955
 20
3.948346092071837
 10
-14.41064612010721
 20
3.884089658265519
 10
-14.61476040017874
 20
3.8195544072693557
 10
-14.816937943940708
 20
3.7548010706103616
 10
-15.017037153757379
 20
3.689839715579389
 10
-15.215042928692474
 20
3.624457945722834
 10
-15.410970369682277
 20
3.558868157494302
 10
-15.604824510372206
 20
3.4931411497116582
 10
-15.796600317116841
 20
3.4272061235570375
 10
-15.98622699109831
 20
3.3610681126758646
 10
-16.173699498671187
 20
3.2946563182502713
 10
-16.359093672298773
 20
3.2280365054526996
 10
-16.54226791434532
 20
3.161218741574002
 10
-16.723232292101695
 20
3.0943446242499144
 10
-16.90211833591277
 20
3.027262488553849
 10
-17.07871364932494
 20
2.959987435422083
 10
-17.253083997510657
 20
2.892443632391324
 10
-17.425249515051622
 20
2.824914274733043
 10
-17.595210201947832
 20
2.7573993624472384
 10
-17.762885192090568
 20
2.6897623315436032
 10
-17.928269451834403
 20
2.6219323832042676
 10
-18.09142874635178
 20
2.553833684965938
 10
-18.252246646234102
 20
2.485830298208807
 10
-18.4107889166538
 20
2.417846390469579
 10
-18.56704549032002
 20
2.3497403641125194
 10
-18.7209455684149
 20
2.2815172527830545
 10
-18.872499218229294
 20
2.213318654116919
 10
-19.02169637247234
 20
2.1450029704783784
 10
-19.16854206478948
 20
2.0766410006852998
 10
-19.313041328826124
 20
2.0083035435555505
 10
-19.455113298473563
 20
1.939854035098823
 10
-19.594773074668066
 20
1.871504871768719
 10
-19.732071321645808
 20
1.802967824648341
 10
-19.866957375170614
 20
1.7345311226545876
 10
-19.999426201597068
 20
1.6661239669695904
 10
-20.12947276727974
 20
1.5976755587754805
 10
-20.257026273400758
 20
1.5291909317176864
 10
-20.38216255242342
 20
1.4607358509686483
 10
-20.50482590646613
 20
1.3925277466273958
 10
-20.625006268238053
 20
1.3244250210581936
 10
-20.742703637739172
 20
1.2564276742610407
 10
-20.857993847432788
 20
1.1886014714083804
 10
-20.97073026603774
 20
1.1208856809731962
 10
-21.080993759662746
 20
1.0534168669457982
 10
-21.18872359678079
 20
0.9863416606073463
 10
-21.29399057620974
 20
0.9196550283124169
 10
-21.396713831840874
 20
0.853220406070699
 10
-21.496969196137492
 20
0.7871035590546346
 10
-21.594615071463856
 20
0.7213145545550763
 10
-21.68980312274655
 20
0.6559849229169065
 10
-21.78239678599527
 20
0.5911955302488462
 10
-21.87245679273703
 20
0.5267997452697332
 10
-21.95998314297183
 20
0.46279756797956784
 10
-22.044975836699663
 20
0.3991889983783497
 10
-22.12737414239352
 20
0.33612066774724103
 10
-22.20717806005341
 20
0.27359257608624166
 10
-22.284443287560904
 20
0.21138729329632208
 10
-22.35911412703442
 20
0.14972224947651133
 10
-22.43117044389226
 20
0.08831424935533896
 10
-22.500632372716122
 20
0.027446488204275886
 10
-22.567479778924305
 20
-0.03316422924814925
 10
-22.63172272980766
 20
-0.09337630536620045
 10
-22.693361225366182
 20
-0.15318974014987838
 10
-22.75231943313658
 20
-0.21267029877162374
 10
-22.80874901804545
 20
-0.2716864508865542
 10
-22.862422482702897
 20
-0.33043549201199357
 10
-22.91356229085339
 20
-0.3887909254484863
 10
-22.96202181121575
 20
-0.44681348272304633
 10
-23.007816144726274
 20
-0.5042907673820711
 10
-23.051006022911967
 20
-0.5613694107067216
 10
-23.091525680600387
 20
-0.6179735802337053
 10
-23.129395252373243
 20
-0.6738200806915501
 10
-23.16467043611213
 20
-0.7291263421792852
 10
-23.197290500290016
 20
-0.7837457334157496
 10
-23.227265512197764
 20
-0.8375366567652075
 10
-23.25461560641708
 20
-0.8902159169561875
 10
-23.279340782947962
 20
-0.9417835139886902
 10
-23.30152190789913
 20
-0.992102883872406
 10
-23.32104255186198
 20
-1.0408099652271436
 10
-23.33799364823608
 20
-1.0876265964268579
 10
-23.35249633229357
 20
-1.1318498229382976
 10
-23.36444424191669
 20
-1.1729739857455364
 10
-23.373988714250128
 20
-1.2098713374081156
 10
-23.381281086438573
 20
-1.241414130485577
 10
-23.38630056833652
 20
-1.2658931260582422
 10
-23.389243799897493
 20
-1.281543387324843
 10
-23.35841894951797
 20
-1.7341142715808529
 10
-23.35681705606174
 20
-1.7376293720290108
 10
-23.352016409338493
 20
-1.748103874555617
 10
-23.34403714392992
 20
-1.7652545838891998
 10
-23.332722889045925
 20
-1.7902800462880855
 10
-23.318109535768272
 20
-1.8246771042183496
 10
-23.300388034841273
 20
-1.8647591855054422
 10
-23.279643630455265
 20
-1.9083264931500359
 10
-23.256083357636523
 20
-1.9544687098107019
 10
-23.22974212412114
 20
-2.0016940266667915
 10
-23.200594433900072
 20
-2.0493602207120682
 10
-23.1688070528362
 20
-2.0971233651480454
 10
-23.134329316693346
 20
-2.144695231057826
 10
-23.097181360053227
 20
-2.191792623169939
 10
-23.057373250206684
 20
-2.2382739438486485
 10
-23.014904987153727
 20
-2.284139193093955
 10
-22.969852403357642
 20
-2.329322605733417
 10
-22.92215476729142
 20
-2.373677550485872
 10
-22.871807045309634
 20
-2.4172748261691885
 10
-22.818885069875577
 20
-2.460048667610925
 10
-22.763307974880526
 20
-2.50213563880139
 10
-22.70508079396991
 20
-2.543464940922716
 10
-22.64435519207032
 20
-2.5839050436300215
 10
-22.58090367179187
 20
-2.6236532424406285
 10
-22.514943663233588
 20
-2.6626538394729495
 10
-22.44632853511431
 20
-2.7009675662539996
 10
-22.375134119897343
 20
-2.738528657611337
 10
-22.301365451228097
 20
-2.775266314727095
 10
-22.225007428170308
 20
-2.811392934054875
 10
-22.146070118014812
 20
-2.8467669179589423
 10
-22.06453338617992
 20
-2.8816714617107686
 10
-21.980412333601908
 20
-2.9158941688567506
 10
-21.89376769180778
 20
-2.949581670678049
 10
-21.80452866197968
 20
-2.982728933529238
 10
-21.71268517682675
 20
-3.0154775550460537
 10
-21.618313068812284
 20
-3.047761770056054
 10
-21.521407304290857
 20
-3.0796523773771076
 10
-21.42196788326247
 20
-3.1111493770092125
 10
-21.319908905972976
 20
-3.142460131760548
 10
-21.215377003703534
 20
-3.1735239101040973
 10
-21.10823561246384
 20
-3.2042598459311407
 10
-20.99862632988963
 20
-3.2346780065325316
 10
-20.886468289872173
 20
-3.2649149558985773
 10
-20.771832291229348
 20
-3.2949757276747045
 10
-20.654652568788705
 20
-3.324784489397621
 10
-20.535009988658974
 20
-3.354204677077016
 10
-20.41282871837685
 20
-3.383302055885331
 10
-20.288245321932653
 20
-3.412157491931287
 10
-20.16118900050851
 20
-3.4407659515694564
 10
-20.03165975410442
 20
-3.4691274347998404
 10
-19.899672683656668
 20
-3.4970295451688362
 10
-19.76529858798311
 20
-3.5244773163218683
 10
-19.628466668265883
 20
-3.5514657146135122
 10
-19.48923765603201
 20
-3.578141371324928
 10
-19.347611551281485
 20
-3.6045042864561174
 10
-19.20360848859601
 20
-3.630271264735608
 10
-19.057289199502605
 20
-3.6555889374445627
 10
-18.90858791882883
 20
-3.680381472119686
 10
-18.757499612929255
 20
-3.7047196675788467
 10
-18.604095080621747
 20
-3.7286085574674708
 10
-18.448379355551733
 20
-3.7519773429676917
 10
-18.29034740407379
 20
-3.774896822897375
 10
-18.12999922618791
 20
-3.7973669972565216
 10
-17.967339855539535
 20
-3.819317067227264
 10
-17.802435057301082
 20
-3.8408228652728966
 10
-17.63528483147257
 20
-3.8618843913934184
 10
-17.46582341288156
 20
-3.882425813125536
 10
-17.294182331872925
 20
-3.9025987953958365
 10
-17.120295823274223
 20
-3.922327505741028
 10
-16.944158853440033
 20
-3.941682742978977
 10
-16.765847254833645
 20
-3.960598741937241
 10
-16.585376128391342
 20
-3.9788631061622177
 10
-16.402730373176848
 20
-3.9966882321075103
 10
-16.21782912308143
 20
-4.014210683763429
 10
-16.03088980820413
 20
-4.031374763248384
 10
-15.84178089820006
 20
-4.048028805635786
 10
-15.65050742671464
 20
-4.064102012107769
 10
-15.457200924092767
 20
-4.07974604759092
 10
-15.261785557871136
 20
-4.09502667725768
 10
-15.064271395340604
 20
-4.109802303472316
 10
-14.86472923531904
 20
-4.1240779598802515
 10
-14.663164111451863
 20
-4.137782847663621
 10
-14.459560922802805
 20
-4.151129363276025
 10
-14.25392973666271
 20
-4.1639759090817305
 10
-14.046260485740728
 20
-4.176464082716472
 10
-13.836709868608875
 20
-4.188391555017499
 10
-13.625131253985986
 20
-4.199819057511825
 10
-13.411595440689933
 20
-4.210751623844881
 10
-13.196168193893152
 20
-4.2212650864799555
 10
-12.978788782068634
 20
-4.23121281413589
 10
-12.75951793674339
 20
-4.240741438093845
 10
-12.538431490380715
 20
-4.249785193181379
 10
-12.315397912635726
 20
-4.258192414471904
 10
-12.090558801144159
 20
-4.265973169256273
 10
-11.863899054969732
 20
-4.273339853988089
 10
-11.635418674112453
 20
-4.280292468667353
 10
-11.405117658572314
 20
-4.286831013294062
 10
-11.173081908103464
 20
-4.292748125060043
 10
-10.939321489996756
 20
-4.2979022063295576
 10
-10.703745470852619
 20
-4.302571418728652
 10
-10.466495448306786
 20
-4.306765829548178
 10
-10.227510690832238
 20
-4.310338807506973
 10
-9.986872064537705
 20
-4.31315378861473
 10
-9.744564468486901
 20
-4.31542316932505
 10
-9.500648634206843
 20
-4.317293580919095
 10
-9.255063830170519
 20
-4.318618392115705
 10
-9.007825157314201
 20
-4.319185206461276
 10
-8.759064145982775
 20
-4.319145688882395
 10
-8.508775762530814
 20
-4.318570638196931
 10
-8.256818409322591
 20
-4.31744998711403
 10
-8.003409516457122
 20
-4.315728037752105
 10
-7.748488352407401
 20
-4.313258158829992
 10
-7.492054917173426
 20
-4.310040350347693
 10
-7.234174975927633
 20
-4.306150444768501
 10
-6.9748233604429
 20
-4.301942436181754
 10
-6.714085970473369
 20
-4.297208961779276
 10
-6.451912141782876
 20
-4.29166179264417
 10
-6.188296840725996
 20
-4.2853717275943035
 10
-5.923381664938463
 20
-4.278348833920529
 10
-5.657075681020706
 20
-4.270871273248891
 10
-5.389459755081447
 20
-4.2628024815890795
 10
-5.120533887120684
 20
-4.254142458941096
 10
-4.850308144429268
 20
-4.2447496076692035
 10
-4.578777493361772
 20
-4.234694726591272
 10
-4.306073464263085
 20
-4.224129480633888
 10
-4.0320645267883215
 20
-4.2129022048704625
 10
-3.7569023458640647
 20
-4.200881368956114
 10
-3.4805818878448926
 20
-4.18813777170871
 10
-3.2030981190853773
 20
-4.174742211946118
 10
-2.924385274413077
 20
-4.1606188572050415
 10
-2.6446658175724567
 20
-4.145641210786029
 10
-2.3638739833910583
 20
-4.129733440225782
 10
-2.0819087711784663
 20
-4.1133153047860835
 10
-1.7989168122158437
 20
-4.096326072939917
 10
-1.514999107193614
 20
-4.078345985425503
 10
-1.22999895753976
 20
-4.059577371405591
 10
-0.9439821284267272
 20
-4.040096063343476
 10
-0.6571002847810989
 20
-4.019770530894274
 10
-0.3692168626125738
 20
-3.998519907949266
 10
-0.08047345955687597
 20
-3.9763542617993033
 10
0.20922085778555627
 20
-3.9535517540704315
 10
0.4997852233060031
 20
-3.9299758207723414
 10
0.7911236699594799
 20
-3.90527750146112
 10
1.0833220975001152
 20
-3.8796641589449434
 10
1.3763298416917606
 20
-3.85342402214071
 10
1.6700610178811923
 20
-3.8263499406366974
 10
1.9645822066914211
 20
-3.7983775513781053
 10
2.259833139690804
 20
-3.769659999137338
 10
2.5557936973985793
 20
-3.7399143010393803
 10
2.852463889882038
 20
-3.7091405986818646
 10
3.149793052905011
 20
-3.6776271209816915
 10
3.447715441429638
 20
-3.6454499835974254
 10
3.7462968256620166
 20
-3.6125334248645897
 10
4.045451310881629
 20
-3.5786701527738267
 10
4.345188969412989
 20
-3.544001835759687
 10
4.645509821390669
 20
-3.508528757017445
 10
4.94634306296316
 20
-3.4722558793937064
 10
5.24767360829512
 20
-3.434971018831324
 10
5.549511524677396
 20
-3.3968157729660313
 10
5.8517353490559625
 20
-3.358083404360154
 10
6.154481665555707
 20
-3.3186933301002406
 10
6.457593770570976
 20
-3.278443150224725
 10
6.76114750663235
 20
-3.2373987715036825
 10
7.0650012761040895
 20
-3.1955702612279664
 10
7.369230916483137
 20
-3.153023455368837
 10
7.673831399157719
 20
-3.109687625907243
 10
7.978666160137515
 20
-3.0656436389519053
 10
8.283816065531253
 20
-3.0210280584931324
 10
8.589276096794446
 20
-2.9757702981095115
 10
8.894899607544977
 20
-2.9298094138775728
 10
9.200762440313452
 20
-2.883211312567393
 10
9.506803863572847
 20
-2.836122625460135
 10
9.81307454659297
 20
-2.7882551944377196
 10
10.11944294896165
 20
-2.7397605428290976
 10
10.425919137969736
 20
-2.690780268270006
 10
10.732498085005455
 20
-2.641243642741393
 10
11.039169722777938
 20
-2.5910090686075256
 10
11.345944123611702
 20
-2.540218214302955
 10
11.652689731993622
 20
-2.489022390760182
 10
11.95946728951801
 20
-2.437275108295678
 10
12.26622109830328
 20
-2.385193797008475
 10
12.57293604734586
 20
-2.3325659188473313
 10
12.879607108033966
 20
-2.2793207457932
 10
13.186244347658455
 20
-2.2255998754818145
 10
13.492721239317994
 20
-2.1716253468647237
 10
13.799108596931388
 20
-2.117392338692956
 10
14.1053205106772
 20
-2.0626933465606982
 10
14.411362004133576
 20
-2.007599027688181
 10
14.717233082334138
 20
-1.952109452874224
 10
15.022938768857047
 20
-1.896295279339058
 10
15.328332407252896
 20
-1.8400954215615786
 10
15.633489845085922
 20
-1.783575857110682
 10
15.938345286981798
 20
-1.7268119936567536
 10
16.242979624217497
 20
-1.669940749184193
 10
16.547231079272752
 20
-1.612688358523021
 10
16.85110469082664
 20
-1.5551256912899216
 10
17.15469642592416
 20
-1.4976017079288086
 10
17.457834459888794
 20
-1.4397013288292382
 10
17.76051374397417
 20
-1.3813535427768897
 10
18.062835293971656
 20
-1.3229783214299964
 10
18.364667539267206
 20
-1.2647267633246035
 10
18.666051086873413
 20
-1.206169183505714
 10
18.96692015148326
 20
-1.1473811312413504
 10
19.267203904077025
 20
-1.0883672153840314
 10
19.566983225864334
 20
-1.0292642123205207
 10
19.866192326504535
 20
-0.970147600520022
 10
20.16483622454212
 20
-0.9110879664039497
 10
20.462834038767415
 20
-0.8519485335855419
 10
20.760175681755005
 20
-0.7925874212337897
 10
21.056876249407516
 20
-0.7332169550034806
 10
21.352935736691304
 20
-0.6738370640957952
 10
21.648217524245958
 20
-0.6145278358324577
 10
21.94286324494273
 20
-0.5552796985143411
 10
22.236716149873153
 20
-0.4958896149905151
 10
22.529781262615362
 20
-0.4364282424812127
 10
22.822083731261902
 20
-0.3772492918805009
 10
23.113618527201016
 20
-0.31828203516932846
 10
23.404233920068695
 20
-0.2593940216181818
 10
23.694076576381633
 20
-0.2006464783458005
 10
23.982999809488557
 20
-0.14197789503817365
 10
24.27107442827464
 20
-0.08338337964750962
 10
24.558239665977357
 20
-0.025009067863245023
 10
24.844424688543292
 20
0.03314050226091798
 10
25.129710377182132
 20
0.09092855433821764
 10
25.413939967884446
 20
0.1485583379160354
 10
25.69725509352151
 20
0.20603942469350098
 10
25.979509067442052
 20
0.26343332498462435
 10
26.260732066350396
 20
0.32031559987628855
 10
26.54085326122681
 20
0.37668164051597536
 10
26.81998408306999
 20
0.4329658115100182
 10
27.09790701117529
 20
0.48922508511872764
 10
27.37480394757737
 20
0.5449026424982896
 10
27.650528200591328
 20
0.6000600647615334
 10
27.92505961046723
 20
0.6549809011740192
 10
28.19839816713777
 20
0.7096652933333824
 10
28.470548889147462
 20
0.76404265481821
 10
28.74153693465613
 20
0.8177591331367977
 10
29.011210558198876
 20
0.8709473914151158
 10
29.279696306811584
 20
0.9238291854094399
 10
29.546852502320217
 20
0.9763955806100049
 10
29.81268919691468
 20
1.0285051917775272
 10
30.077216447818536
 20
1.080016562873909
 10
30.340424167606354
 20
1.1310715747301556
 10
30.602241507123797
 20
1.1816659016890192
 10
30.862749352614184
 20
1.2316626965649211
 10
31.12180602590346
 20
1.2810530248480936
 10
31.379467245007778
 20
1.3300540334422943
 10
31.635591321685773
 20
1.3786569294353916
 10
31.890400805253904
 20
1.4267340125480275
 10
32.143622416722174
 20
1.4741256745272955
 10
32.39539780909642
 20
1.5208412038770531
 10
32.64572192859664
 20
1.5669516826104375
 10
32.89444302975791
 20
1.6125897738534185
 10
33.14156612105742
 20
1.6576850327822195
 10
33.387237884112814
 20
1.7021760198816431
 10
33.63125084537571
 20
1.7459783929715393
 10
33.87368588102208
 20
1.7889554464639603
 10
34.11445704096136
 20
1.8313152511552633
 10
34.353630105466934
 20
1.8731334271122897
 10
34.59113925902989
 20
1.9143348498599217
 10
34.82698448151562
 20
1.9549198025934311
 10
35.061110019672505
 20
1.994671634000788
 10
35.2935715965503
 20
2.033807420186929
 10
35.52423255251944
 20
2.0722476402206746
 10
35.75315363420792
 20
2.1101387129867346
 10
35.98034993248467
 20
2.147268383629138
 10
36.205755621773555
 20
2.18356166927041
 10
36.42935558100367
 20
2.2192312495594204
 10
36.6511497950741
 20
2.254277336892625
 10
36.871138243850254
 20
2.2887002144652957
 10
37.089189306381655
 20
2.322349491729566
 10
37.30545470296498
 20
2.355092859553556
 10
37.51983841118511
 20
2.3872800571681743
 10
37.73227461049954
 20
2.4188360308971246
 10
37.94283411482703
 20
2.449765601989378
 10
38.15145613727051
 20
2.4799229179507707
 10
38.35806478999655
 20
2.50937452274074
 10
38.562796697399214
 20
2.5382004328821917
 10
38.765525262106145
 20
2.5661796006070285
 10
38.96624040172556
 20
2.5934538359474377
 10
39.164947134801935
 20
2.6199525524820073
 10
39.36163033523077
 20
2.6458885006584287
 10
39.556300055201966
 20
2.6711202952374187
 10
39.748885435493946
 20
2.6956437521593686
 10
39.93939149465116
 20
2.7193882850028603
 10
40.127884023014296
 20
2.7424293722371016
 10
40.31421628862929
 20
2.7648291613654647
 10
40.49838826632791
 20
2.7865880063820376
 10
40.68047581877532
 20
2.8076397173214738
 10
40.860483984650585
 20
2.8279134245670856
 10
41.03825607041536
 20
2.8476113864828068
 10
41.21386244199395
 20
2.8667447254123988
 10
41.38731868858632
 20
2.8850941774169274
 10
41.55854873611412
 20
2.9027289060120904
 10
41.72754250721927
 20
2.91979065043126
 10
41.894380893178685
 20
2.936142492690037
 10
42.05892722429549
 20
2.9517050534548757
 10
42.221242257264954
 20
2.96662461001285
 10
42.3813209433407
 20
2.98097217357828
 10
42.539092428334754
 20
2.9947434892927367
 10
42.694566764437056
 20
3.0077971719169385
 10
42.84773889283394
 20
3.0202043742628417
 10
42.99859873616725
 20
3.032106835563818
 10
43.14715130794785
 20
3.043434040197271
 10
43.293335826312266
 20
3.0540400648702173
 10
43.437152266092255
 20
3.0639252635767464
 10
43.57865132675952
 20
3.0733773696420315
 10
43.7177671777042
 20
3.082321470987408
 10
43.8544998138927
 20
3.090757638411699
 10
43.98885424380216
 20
3.098615427091121
 10
44.12075961827829
 20
3.105890511368428
 10
44.25028675627355
 20
3.112587641693776
 10
44.377354746376376
 20
3.1188440192468336
 10
44.501973630709436
 20
3.124518400385956
 10
44.62413333191455
 20
3.129752524344513
 10
44.74391474630233
 20
3.134409402339289
 10
44.86116610827327
 20
3.1386219806915245
 10
44.975953213201684
 20
3.1424656670716056
 10
45.088210240545045
 20
3.1458654078032358
 10
45.198013052968484
 20
3.1487550129210646
 10
45.30528068872408
 20
3.1512723915929435
 10
45.41009401895414
 20
3.1532809090297422
 10
45.51229656153344
 20
3.1549798500450463
 10
45.61203462558981
 20
3.156313014236182
 10
45.70916666382396
 20
3.157269626324118
 10
45.80376350525568
 20
3.1578542951613757
 10
45.89582513981763
 20
3.1580671623455885
 10
45.985346518763464
 20
3.157979239091078
 10
46.07226183161795
 20
3.1575153301239127
 10
46.156560990955626
 20
3.1568173162750974
 10
46.2383198745426
 20
3.1558187951828307
 10
46.31746258447821
 20
3.1545864524041876
 10
46.3939941493742
 20
3.1530495599201163
 10
46.46790953055153
 20
3.1512789873473026
 10
46.539213746554665
 20
3.149204148264334
 10
46.60790175870456
 20
3.1468959122878943
 10
46.6739634946767
 20
3.1444959478525383
 10
46.737338162540325
 20
3.1418584732629173
 10
46.798162416891365
 20
3.1390630802490307
 10
46.85621867662144
 20
3.1361675906570046
 10
46.91172450773797
 20
3.133114395037165
 10
46.96453821193235
 20
3.1298948420750192
 10
47.01464971688005
 20
3.1266506002051195
 10
47.06213489531358
 20
3.1233153378644825
 10
47.10692289304492
 20
3.1198848001946766
 10
47.14900364278322
 20
3.1165005848314378
 10
47.188458045872736
 20
3.1130256321927328
 10
47.225205190901946
 20
3.109597143458231
 10
47.25925010144898
 20
3.106144461407701
 10
47.29058271022297
 20
3.1028091836768774
 10
47.31920805086936
 20
3.0995205114478943
 10
47.34519192379609
 20
3.0963537815923172
 10
47.36839263572818
 20
3.093300271996836
 10
47.38887600217453
 20
3.090435107136566
 10
47.40671286222214
 20
3.0877627542663886
 10
47.42176152259604
 20
3.0852744912729917
 10
47.434082755092405
 20
3.083116383046995
 10
47.443752452578266
 20
3.0812218148301413
 10
47.4506188343532
 20
3.0797239453401257
 10
47.454747731027034
 20
3.0786976866556097
 10
47.45612906020797
 20
3.078284848808781
  0
ENDSEC
  0
SECTION
  2
OBJECTS
  0
DICTIONARY
  5
A
330
0
100
AcDbDictionary
280
0
281
1
  3
ACAD_COLOR
350
B
  3
ACAD_GROUP
350
C
  3
ACAD_LAYOUT
350
D
  3
ACAD_MATERIAL
350
E
  3
ACAD_MLEADERSTYLE
350
F
  3
ACAD_MLINESTYLE
350
10
  3
ACAD_PLOTSETTINGS
350
11
  3
ACAD_PLOTSTYLENAME
350
12
  3
ACAD_SCALELIST
350
14
  3
ACAD_TABLESTYLE
350
15
  3
ACAD_VISUALSTYLE
350
16
  3
EZDXF_META
350
2D
  0
DICTIONARY
  5
B
330
A
100
AcDbDictionary
280
0
281
1
  0
DICTIONARY
  5
C
330
A
100
AcDbDictionary
280
0
281
1
  0
DICTIONARY
  5
D
330
A
100
AcDbDictionary
280
0
281
1
  3
Model
350
1A
  3
Layout1
350
1E
  0
DICTIONARY
  5
E
330
A
100
AcDbDictionary
280
0
281
1
  3
ByBlock
350
1F
  3
ByLayer
350
20
  3
Global
350
21
  0
DICTIONARY
  5
F
330
A
100
AcDbDictionary
280
0
281
1
  3
Standard
350
2C
  0
DICTIONARY
  5
10
330
A
100
AcDbDictionary
280
0
281
1
  3
Standard
350
22
  0
DICTIONARY
  5
11
330
A
100
AcDbDictionary
280
0
281
1
  0
ACDBDICTIONARYWDFLT
  5
12
330
A
100
AcDbDictionary
280
0
281
1
  3
Normal
350
13
100
AcDbDictionaryWithDefault
340
13
  0
ACDBPLACEHOLDER
  5
13
330
12
  0
DICTIONARY
  5
14
330
A
100
AcDbDictionary
280
0
281
1
  0
DICTIONARY
  5
15
330
A
100
AcDbDictionary
280
0
281
1
  0
DICTIONARY
  5
16
330
A
100
AcDbDictionary
280
0
281
1
  0
LAYOUT
  5
1A
330
D
100
AcDbPlotSettings
  1

  4
A3
  6

 40
7.5
 41
20.0
 42
7.5
 43
20.0
 44
420.0
 45
297.0
 46
0.0
 47
0.0
 48
0.0
 49
0.0
140
0.0
141
0.0
142
1.0
143
1.0
 70
1024
 72
1
 73
0
 74
5
  7

 75
16
 76
0
 77
2
 78
300
147
1.0
148
0.0
149
0.0
100
AcDbLayout
  1
Model
 70
1
 71
0
 10
0.0
 20
0.0
 11
420.0
 21
297.0
 12
0.0
 22
0.0
 32
0.0
 14
1e+20
 24
1e+20
 34
1e+20
 15
-1e+20
 25
-1e+20
 35
-1e+20
146
0.0
 13
0.0
 23
0.0
 33
0.0
 16
1.0
 26
0.0
 36
0.0
 17
0.0
 27
1.0
 37
0.0
 76
1
330
17
  0
LAYOUT
  5
1E
330
D
100
AcDbPlotSettings
  1

  4
A3
  6

 40
7.5
 41
20.0
 42
7.5
 43
20.0
 44
420.0
 45
297.0
 46
0.0
 47
0.0
 48
0.0
 49
0.0
140
0.0
141
0.0
142
1.0
143
1.0
 70
0
 72
1
 73
0
 74
5
  7

 75
16
 76
0
 77
2
 78
300
147
1.0
148
0.0
149
0.0
100
AcDbLayout
  1
Layout1
 70
1
 71
1
 10
0.0
 20
0.0
 11
420.0
 21
297.0
 12
0.0
 22
0.0
 32
0.0
 14
1e+20
 24
1e+20
 34
1e+20
 15
-1e+20
 25
-1e+20
 35
-1e+20
146
0.0
 13
0.0
 23
0.0
 33
0.0
 16
1.0
 26
0.0
 36
0.0
 17
0.0
 27
1.0
 37
0.0
 76
1
330
1B
  0
MATERIAL
  5
1F
102
{ACAD_REACTORS
330
E
102
}
330
E
100
AcDbMaterial
  1
ByBlock
  2

 70
0
 40
1.0
 71
1
 41
1.0
 91
-1023410177
 42
1.0
 72
1
  3

 73
1
 74
1
 75
1
 44
0.5
 73
0
 45
1.0
 46
1.0
 77
1
  4

 78
1
 79
1
170
1
 48
1.0
171
1
  6

172
1
173
1
174
1
140
1.0
141
1.0
175
1
  7

176
1
177
1
178
1
143
1.0
179
1
  8

270
1
271
1
272
1
145
1.0
146
1.0
273
1
  9

274
1
275
1
276
1
 42
1.0
 72
1
  3

 73
1
 74
1
 75
1
 94
63
  0
MATERIAL
  5
20
102
{ACAD_REACTORS
330
E
102
}
330
E
100
AcDbMaterial
  1
ByLayer
  2

 70
0
 40
1.0
 71
1
 41
1.0
 91
-1023410177
 42
1.0
 72
1
  3

 73
1
 74
1
 75
1
 44
0.5
 73
0
 45
1.0
 46
1.0
 77
1
  4

 78
1
 79
1
170
1
 48
1.0
171
1
  6

172
1
173
1
174
1
140
1.0
141
1.0
175
1
  7

176
1
177
1
178
1
143
1.0
179
1
  8

270
1
271
1
272
1
145
1.0
146
1.0
273
1
  9

274
1
275
1
276
1
 42
1.0
 72
1
  3

 73
1
 74
1
 75
1
 94
63
  0
MATERIAL
  5
21
102
{ACAD_REACTORS
330
E
102
}
330
E
100
AcDbMaterial
  1
Global
  2

 70
0
 40
1.0
 71
1
 41
1.0
 91
-1023410177
 42
1.0
 72
1
  3

 73
1
 74
1
 75
1
 44
0.5
 73
0
 45
1.0
 46
1.0
 77
1
  4

 78
1
 79
1
170
1
 48
1.0
171
1
  6

172
1
173
1
174
1
140
1.0
141
1.0
175
1
  7

176
1
177
1
178
1
143
1.0
179
1
  8

270
1
271
1
272
1
145
1.0
146
1.0
273
1
  9

274
1
275
1
276
1
 42
1.0
 72
1
  3

 73
1
 74
1
 75
1
 94
63
  0
MLINESTYLE
  5
22
102
{ACAD_REACTORS
330
10
102
}
330
10
100
AcDbMlineStyle
  2
Standard
 70
0
  3

 62
256
 51
90.0
 52
90.0
 71
2
 49
0.5
 62
256
  6
BYLAYER
 49
-0.5
 62
256
  6
BYLAYER
  0
MLEADERSTYLE
  5
2C
102
{ACAD_REACTORS
330
F
102
}
330
F
100
AcDbMLeaderStyle
179
2
170
2
171
1
172
0
 90
2
 40
0.0
 41
0.0
173
1
 91
-1056964608
 92
-2
290
1
 42
2.0
291
1
 43
8.0
  3
Standard
 44
4.0
300

342
29
174
1
175
1
176
0
178
1
 93
-1056964608
 45
4.0
292
0
297
0
 46
4.0
 94
-1056964608
 47
1.0
 49
1.0
140
1.0
294
1
141
0.0
177
0
142
1.0
295
0
296
0
143
3.75
271
0
272
9
273
9
  0
DICTIONARY
  5
2D
330
A
100
AcDbDictionary
280
1
281
1
  3
CREATED_BY_EZDXF
350
2E
  3
WRITTEN_BY_EZDXF
350
32
  0
DICTIONARYVAR
  5
2E
330
2D
100
DictionaryVariables
280
0
  1
1.3.5 @ 2025-08-20T01:28:30.033224+00:00
  0
DICTIONARYVAR
  5
32
330
2D
100
DictionaryVariables
280
0
  1
1.3.5 @ 2025-08-20T01:28:30.033224+00:00
  0
ENDSEC
  0
EOF
