  0
SECTION
  2
HEADER
  9
$ACADVER
  1
AC1032
  9
$ACADMAINTVER
 90
4
  9
$DWGCODEPAGE
  3
ANSI_1252
  9
$LASTSAVEDBY
  1
ezdxf
  9
$REQUIREDVERSIONS
160
0
  9
$INSBASE
 10
0.0
 20
0.0
 30
0.0
  9
$EXTMIN
 10
1e+20
 20
1e+20
 30
1e+20
  9
$EXTMAX
 10
-1e+20
 20
-1e+20
 30
-1e+20
  9
$LIMMIN
 10
0.0
 20
0.0
  9
$LIMMAX
 10
420.0
 20
297.0
  9
$ORTHOMODE
 70
0
  9
$REGENMODE
 70
1
  9
$FILLMODE
 70
1
  9
$QTEXTMODE
 70
0
  9
$MIRRTEXT
 70
1
  9
$LTSCALE
 40
1.0
  9
$ATTMODE
 70
1
  9
$TEXTSIZE
 40
2.5
  9
$TRACEWID
 40
1.0
  9
$TEXTSTYLE
  7
Standard
  9
$CLAYER
  8
0
  9
$CELTYPE
  6
ByLayer
  9
$CECOLOR
 62
256
  9
$CELTSCALE
 40
1.0
  9
$DISPSILH
 70
0
  9
$DIMSCALE
 40
1.0
  9
$DIMASZ
 40
2.5
  9
$DIMEXO
 40
0.625
  9
$DIMDLI
 40
3.75
  9
$DIMRND
 40
0.0
  9
$DIMDLE
 40
0.0
  9
$DIMEXE
 40
1.25
  9
$DIMTP
 40
0.0
  9
$DIMTM
 40
0.0
  9
$DIMTXT
 40
2.5
  9
$DIMCEN
 40
2.5
  9
$DIMTSZ
 40
0.0
  9
$DIMTOL
 70
0
  9
$DIMLIM
 70
0
  9
$DIMTIH
 70
0
  9
$DIMTOH
 70
0
  9
$DIMSE1
 70
0
  9
$DIMSE2
 70
0
  9
$DIMTAD
 70
1
  9
$DIMZIN
 70
8
  9
$DIMBLK
  1

  9
$DIMASO
 70
1
  9
$DIMSHO
 70
1
  9
$DIMPOST
  1

  9
$DIMAPOST
  1

  9
$DIMALT
 70
0
  9
$DIMALTD
 70
3
  9
$DIMALTF
 40
0.03937007874
  9
$DIMLFAC
 40
1.0
  9
$DIMTOFL
 70
1
  9
$DIMTVP
 40
0.0
  9
$DIMTIX
 70
0
  9
$DIMSOXD
 70
0
  9
$DIMSAH
 70
0
  9
$DIMBLK1
  1

  9
$DIMBLK2
  1

  9
$DIMSTYLE
  2
ISO-25
  9
$DIMCLRD
 70
0
  9
$DIMCLRE
 70
0
  9
$DIMCLRT
 70
0
  9
$DIMTFAC
 40
1.0
  9
$DIMGAP
 40
0.625
  9
$DIMJUST
 70
0
  9
$DIMSD1
 70
0
  9
$DIMSD2
 70
0
  9
$DIMTOLJ
 70
0
  9
$DIMTZIN
 70
8
  9
$DIMALTZ
 70
0
  9
$DIMALTTZ
 70
0
  9
$DIMUPT
 70
0
  9
$DIMDEC
 70
2
  9
$DIMTDEC
 70
2
  9
$DIMALTU
 70
2
  9
$DIMALTTD
 70
3
  9
$DIMTXSTY
  7
Standard
  9
$DIMAUNIT
 70
0
  9
$DIMADEC
 70
0
  9
$DIMALTRND
 40
0.0
  9
$DIMAZIN
 70
0
  9
$DIMDSEP
 70
44
  9
$DIMATFIT
 70
3
  9
$DIMFRAC
 70
0
  9
$DIMLDRBLK
  1

  9
$DIMLUNIT
 70
2
  9
$DIMLWD
 70
-2
  9
$DIMLWE
 70
-2
  9
$DIMTMOVE
 70
0
  9
$DIMFXL
 40
1.0
  9
$DIMFXLON
 70
0
  9
$DIMJOGANG
 40
0.785398163397
  9
$DIMTFILL
 70
0
  9
$DIMTFILLCLR
 70
0
  9
$DIMARCSYM
 70
0
  9
$DIMLTYPE
  6

  9
$DIMLTEX1
  6

  9
$DIMLTEX2
  6

  9
$DIMTXTDIRECTION
 70
0
  9
$LUNITS
 70
2
  9
$LUPREC
 70
4
  9
$SKETCHINC
 40
1.0
  9
$FILLETRAD
 40
10.0
  9
$AUNITS
 70
0
  9
$AUPREC
 70
2
  9
$MENU
  1
.
  9
$ELEVATION
 40
0.0
  9
$PELEVATION
 40
0.0
  9
$THICKNESS
 40
0.0
  9
$LIMCHECK
 70
0
  9
$CHAMFERA
 40
0.0
  9
$CHAMFERB
 40
0.0
  9
$CHAMFERC
 40
0.0
  9
$CHAMFERD
 40
0.0
  9
$SKPOLY
 70
0
  9
$TDCREATE
 40
2460908.103113426
  9
$TDUCREATE
 40
2458532.153996898
  9
$TDUPDATE
 40
2460908.103113426
  9
$TDUUPDATE
 40
2458532.1544311
  9
$TDINDWG
 40
0.0
  9
$TDUSRTIMER
 40
0.0
  9
$USRTIMER
 70
1
  9
$ANGBASE
 50
0.0
  9
$ANGDIR
 70
0
  9
$PDMODE
 70
0
  9
$PDSIZE
 40
0.0
  9
$PLINEWID
 40
0.0
  9
$SPLFRAME
 70
0
  9
$SPLINETYPE
 70
6
  9
$SPLINESEGS
 70
8
  9
$HANDSEED
  5
33
  9
$SURFTAB1
 70
6
  9
$SURFTAB2
 70
6
  9
$SURFTYPE
 70
6
  9
$SURFU
 70
6
  9
$SURFV
 70
6
  9
$UCSBASE
  2

  9
$UCSNAME
  2

  9
$UCSORG
 10
0.0
 20
0.0
 30
0.0
  9
$UCSXDIR
 10
1.0
 20
0.0
 30
0.0
  9
$UCSYDIR
 10
0.0
 20
1.0
 30
0.0
  9
$UCSORTHOREF
  2

  9
$UCSORTHOVIEW
 70
0
  9
$UCSORGTOP
 10
0.0
 20
0.0
 30
0.0
  9
$UCSORGBOTTOM
 10
0.0
 20
0.0
 30
0.0
  9
$UCSORGLEFT
 10
0.0
 20
0.0
 30
0.0
  9
$UCSORGRIGHT
 10
0.0
 20
0.0
 30
0.0
  9
$UCSORGFRONT
 10
0.0
 20
0.0
 30
0.0
  9
$UCSORGBACK
 10
0.0
 20
0.0
 30
0.0
  9
$PUCSBASE
  2

  9
$PUCSNAME
  2

  9
$PUCSORG
 10
0.0
 20
0.0
 30
0.0
  9
$PUCSXDIR
 10
1.0
 20
0.0
 30
0.0
  9
$PUCSYDIR
 10
0.0
 20
1.0
 30
0.0
  9
$PUCSORTHOREF
  2

  9
$PUCSORTHOVIEW
 70
0
  9
$PUCSORGTOP
 10
0.0
 20
0.0
 30
0.0
  9
$PUCSORGBOTTOM
 10
0.0
 20
0.0
 30
0.0
  9
$PUCSORGLEFT
 10
0.0
 20
0.0
 30
0.0
  9
$PUCSORGRIGHT
 10
0.0
 20
0.0
 30
0.0
  9
$PUCSORGFRONT
 10
0.0
 20
0.0
 30
0.0
  9
$PUCSORGBACK
 10
0.0
 20
0.0
 30
0.0
  9
$USERI1
 70
0
  9
$USERI2
 70
0
  9
$USERI3
 70
0
  9
$USERI4
 70
0
  9
$USERI5
 70
0
  9
$USERR1
 40
0.0
  9
$USERR2
 40
0.0
  9
$USERR3
 40
0.0
  9
$USERR4
 40
0.0
  9
$USERR5
 40
0.0
  9
$WORLDVIEW
 70
1
  9
$SHADEDGE
 70
3
  9
$SHADEDIF
 70
70
  9
$TILEMODE
 70
1
  9
$MAXACTVP
 70
64
  9
$PINSBASE
 10
0.0
 20
0.0
 30
0.0
  9
$PLIMCHECK
 70
0
  9
$PEXTMIN
 10
1e+20
 20
1e+20
 30
1e+20
  9
$PEXTMAX
 10
-1e+20
 20
-1e+20
 30
-1e+20
  9
$PLIMMIN
 10
0.0
 20
0.0
  9
$PLIMMAX
 10
420.0
 20
297.0
  9
$UNITMODE
 70
0
  9
$VISRETAIN
 70
1
  9
$PLINEGEN
 70
0
  9
$PSLTSCALE
 70
1
  9
$TREEDEPTH
 70
3020
  9
$CMLSTYLE
  2
Standard
  9
$CMLJUST
 70
0
  9
$CMLSCALE
 40
20.0
  9
$PROXYGRAPHICS
 70
1
  9
$MEASUREMENT
 70
1
  9
$CELWEIGHT
370
-1
  9
$ENDCAPS
280
0
  9
$JOINSTYLE
280
0
  9
$LWDISPLAY
290
0
  9
$INSUNITS
 70
6
  9
$HYPERLINKBASE
  1

  9
$STYLESHEET
  1

  9
$XEDIT
290
1
  9
$CEPSNTYPE
380
0
  9
$PSTYLEMODE
290
1
  9
$FINGERPRINTGUID
  2
{ECBF424B-31BC-47A0-960E-2EF916BFB954}
  9
$VERSIONGUID
  2
{CAE155A8-D366-42B3-90F1-87A3FD83D7C0}
  9
$EXTNAMES
290
1
  9
$PSVPSCALE
 40
0.0
  9
$OLESTARTUP
290
0
  9
$SORTENTS
280
127
  9
$INDEXCTL
280
0
  9
$HIDETEXT
280
1
  9
$XCLIPFRAME
280
1
  9
$HALOGAP
280
0
  9
$OBSCOLOR
 70
257
  9
$OBSLTYPE
280
0
  9
$INTERSECTIONDISPLAY
280
0
  9
$INTERSECTIONCOLOR
 70
257
  9
$DIMASSOC
280
2
  9
$PROJECTNAME
  1

  9
$CAMERADISPLAY
290
0
  9
$LENSLENGTH
 40
50.0
  9
$CAMERAHEIGHT
 40
0.0
  9
$STEPSPERSEC
 40
24.0
  9
$STEPSIZE
 40
100.0
  9
$3DDWFPREC
 40
2.0
  9
$PSOLWIDTH
 40
0.005
  9
$PSOLHEIGHT
 40
0.08
  9
$LOFTANG1
 40
1.570796326795
  9
$LOFTANG2
 40
1.570796326795
  9
$LOFTMAG1
 40
0.0
  9
$LOFTMAG2
 40
0.0
  9
$LOFTPARAM
 70
7
  9
$LOFTNORMALS
280
1
  9
$LATITUDE
 40
37.795
  9
$LONGITUDE
 40
-122.394
  9
$NORTHDIRECTION
 40
0.0
  9
$TIMEZONE
 70
-8000
  9
$LIGHTGLYPHDISPLAY
280
1
  9
$TILEMODELIGHTSYNCH
280
1
  9
$CMATERIAL
347
20
  9
$SOLIDHIST
280
0
  9
$SHOWHIST
280
1
  9
$DWFFRAME
280
2
  9
$DGNFRAME
280
2
  9
$REALWORLDSCALE
290
1
  9
$INTERFERECOLOR
 62
256
  9
$CSHADOW
280
0
  9
$SHADOWPLANELOCATION
 40
0.0
  0
ENDSEC
  0
SECTION
  2
CLASSES
  0
CLASS
  1
ACDBDICTIONARYWDFLT
  2
AcDbDictionaryWithDefault
  3
ObjectDBX Classes
 90
0
 91
0
280
0
281
0
  0
CLASS
  1
SUN
  2
AcDbSun
  3
SCENEOE
 90
1153
 91
0
280
0
281
0
  0
CLASS
  1
VISUALSTYLE
  2
AcDbVisualStyle
  3
ObjectDBX Classes
 90
4095
 91
0
280
0
281
0
  0
CLASS
  1
MATERIAL
  2
AcDbMaterial
  3
ObjectDBX Classes
 90
1153
 91
0
280
0
281
0
  0
CLASS
  1
SCALE
  2
AcDbScale
  3
ObjectDBX Classes
 90
1153
 91
0
280
0
281
0
  0
CLASS
  1
TABLESTYLE
  2
AcDbTableStyle
  3
ObjectDBX Classes
 90
4095
 91
0
280
0
281
0
  0
CLASS
  1
MLEADERSTYLE
  2
AcDbMLeaderStyle
  3
ACDB_MLEADERSTYLE_CLASS
 90
4095
 91
0
280
0
281
0
  0
CLASS
  1
DICTIONARYVAR
  2
AcDbDictionaryVar
  3
ObjectDBX Classes
 90
0
 91
0
280
0
281
0
  0
CLASS
  1
CELLSTYLEMAP
  2
AcDbCellStyleMap
  3
ObjectDBX Classes
 90
1152
 91
0
280
0
281
0
  0
CLASS
  1
MENTALRAYRENDERSETTINGS
  2
AcDbMentalRayRenderSettings
  3
SCENEOE
 90
1024
 91
0
280
0
281
0
  0
CLASS
  1
ACDBDETAILVIEWSTYLE
  2
AcDbDetailViewStyle
  3
ObjectDBX Classes
 90
1025
 91
0
280
0
281
0
  0
CLASS
  1
ACDBSECTIONVIEWSTYLE
  2
AcDbSectionViewStyle
  3
ObjectDBX Classes
 90
1025
 91
0
280
0
281
0
  0
CLASS
  1
RASTERVARIABLES
  2
AcDbRasterVariables
  3
ISM
 90
0
 91
0
280
0
281
0
  0
CLASS
  1
LAYOUT
  2
AcDbLayout
  3
ObjectDBX Classes
 90
0
 91
0
280
0
281
0
  0
CLASS
  1
ACDBPLACEHOLDER
  2
AcDbPlaceHolder
  3
ObjectDBX Classes
 90
0
 91
0
280
0
281
0
  0
ENDSEC
  0
SECTION
  2
TABLES
  0
TABLE
  2
VPORT
  5
8
330
0
100
AcDbSymbolTable
 70
1
  0
VPORT
  5
23
330
8
100
AcDbSymbolTableRecord
100
AcDbViewportTableRecord
  2
*Active
 70
0
 10
0.0
 20
0.0
 11
1.0
 21
1.0
 12
0.0
 22
0.0
 13
0.0
 23
0.0
 14
0.5
 24
0.5
 15
0.5
 25
0.5
 16
0.0
 26
0.0
 36
1.0
 17
0.0
 27
0.0
 37
0.0
 40
1000.0
 41
1.34
 42
50.0
 43
0.0
 44
0.0
 50
0.0
 51
0.0
 71
0
 72
1000
 73
1
 74
3
 75
0
 76
0
 77
0
 78
0
281
0
 65
0
146
0.0
  0
ENDTAB
  0
TABLE
  2
LTYPE
  5
2
330
0
100
AcDbSymbolTable
 70
3
  0
LTYPE
  5
24
330
2
100
AcDbSymbolTableRecord
100
AcDbLinetypeTableRecord
  2
ByBlock
 70
0
  3

 72
65
 73
0
 40
0.0
  0
LTYPE
  5
25
330
2
100
AcDbSymbolTableRecord
100
AcDbLinetypeTableRecord
  2
ByLayer
 70
0
  3

 72
65
 73
0
 40
0.0
  0
LTYPE
  5
26
330
2
100
AcDbSymbolTableRecord
100
AcDbLinetypeTableRecord
  2
Continuous
 70
0
  3

 72
65
 73
0
 40
0.0
  0
ENDTAB
  0
TABLE
  2
LAYER
  5
1
330
0
100
AcDbSymbolTable
 70
2
  0
LAYER
  5
27
330
1
100
AcDbSymbolTableRecord
100
AcDbLayerTableRecord
  2
0
 70
0
 62
7
  6
Continuous
370
-3
390
13
347
21
  0
LAYER
  5
28
330
1
100
AcDbSymbolTableRecord
100
AcDbLayerTableRecord
  2
Defpoints
 70
0
 62
7
  6
Continuous
290
0
370
-3
390
13
347
21
  0
ENDTAB
  0
TABLE
  2
STYLE
  5
5
330
0
100
AcDbSymbolTable
 70
1
  0
STYLE
  5
29
330
5
100
AcDbSymbolTableRecord
100
AcDbTextStyleTableRecord
  2
Standard
 70
0
 40
0.0
 41
1.0
 50
0.0
 71
0
 42
2.5
  3
txt
  4

  0
ENDTAB
  0
TABLE
  2
VIEW
  5
7
330
0
100
AcDbSymbolTable
 70
0
  0
ENDTAB
  0
TABLE
  2
UCS
  5
6
330
0
100
AcDbSymbolTable
 70
0
  0
ENDTAB
  0
TABLE
  2
APPID
  5
3
330
0
100
AcDbSymbolTable
 70
3
  0
APPID
  5
2A
330
3
100
AcDbSymbolTableRecord
100
AcDbRegAppTableRecord
  2
ACAD
 70
0
  0
APPID
  5
30
330
3
100
AcDbSymbolTableRecord
100
AcDbRegAppTableRecord
  2
HATCHBACKGROUNDCOLOR
 70
0
  0
APPID
  5
31
330
3
100
AcDbSymbolTableRecord
100
AcDbRegAppTableRecord
  2
EZDXF
 70
0
  0
ENDTAB
  0
TABLE
  2
DIMSTYLE
  5
4
330
0
100
AcDbSymbolTable
 70
1
100
AcDbDimStyleTable
  0
DIMSTYLE
105
2B
330
4
100
AcDbSymbolTableRecord
100
AcDbDimStyleTableRecord
  2
Standard
 70
0
 40
1.0
 41
2.5
 42
0.625
 43
3.75
 44
1.25
 45
0.0
 46
0.0
 47
0.0
 48
0.0
 49
2.5
140
2.5
141
2.5
142
0.0
143
0.03937007874
144
1.0
145
0.0
146
1.0
147
0.625
148
0.0
 69
0
 70
0
 71
0
 72
0
 73
0
 74
0
 75
0
 76
0
 77
1
 78
8
 79
3
170
0
171
3
172
1
173
0
174
0
175
0
176
0
177
0
178
0
179
2
271
2
272
2
273
2
274
3
275
0
276
0
277
2
278
44
279
0
280
0
281
0
282
0
283
0
284
8
285
0
286
0
288
0
289
3
290
0
371
-2
372
-2
  0
ENDTAB
  0
TABLE
  2
BLOCK_RECORD
  5
9
330
0
100
AcDbSymbolTable
 70
2
  0
BLOCK_RECORD
  5
17
330
9
100
AcDbSymbolTableRecord
100
AcDbBlockTableRecord
  2
*Model_Space
340
1A
 70
0
280
1
281
0
  0
BLOCK_RECORD
  5
1B
330
9
100
AcDbSymbolTableRecord
100
AcDbBlockTableRecord
  2
*Paper_Space
340
1E
 70
0
280
1
281
0
  0
ENDTAB
  0
ENDSEC
  0
SECTION
  2
BLOCKS
  0
BLOCK
  5
18
330
17
100
AcDbEntity
  8
0
100
AcDbBlockBegin
  2
*Model_Space
 70
0
 10
0.0
 20
0.0
 30
0.0
  3
*Model_Space
  1

  0
ENDBLK
  5
19
330
17
100
AcDbEntity
  8
0
100
AcDbBlockEnd
  0
BLOCK
  5
1C
330
1B
100
AcDbEntity
  8
0
100
AcDbBlockBegin
  2
*Paper_Space
 70
0
 10
0.0
 20
0.0
 30
0.0
  3
*Paper_Space
  1

  0
ENDBLK
  5
1D
330
1B
100
AcDbEntity
  8
0
100
AcDbBlockEnd
  0
ENDSEC
  0
SECTION
  2
ENTITIES
  0
LWPOLYLINE
  5
2F
330
17
100
AcDbEntity
  8
0
100
AcDbPolyline
 90
721
 70
1
 10
89.24826740516919
 20
25.624928831446326
 10
89.24547631633679
 20
25.62511907753829
 10
89.2371787845448
 20
25.625422899991953
 10
89.22352601439707
 20
25.625307400435
 10
89.20430951404468
 20
25.624999665297747
 10
89.17990855115099
 20
25.624178446332323
 10
89.15015242556055
 20
25.622937638707104
 10
89.11494594484621
 20
25.62110502171578
 10
89.07455503942009
 20
25.618758787571696
 10
89.02888451685489
 20
25.615726715568538
 10
88.97772577181313
 20
25.61223629211038
 10
88.92142039375314
 20
25.60809906023753
 10
88.85983532289502
 20
25.60327625715478
 10
88.79293272971576
 20
25.597901207448647
 10
88.72078827326148
 20
25.591707261946095
 10
88.64332621882693
 20
25.58496133646933
 10
88.56071738005606
 20
25.577569135876224
 10
88.47282869716899
 20
25.56949189737156
 10
88.37962234064264
 20
25.560862945541864
 10
88.28130687798496
 20
25.551454927307642
 10
88.17767362819944
 20
25.54149559572215
 10
88.06879821250271
 20
25.53071843493693
 10
87.95487086443119
 20
25.51946841966295
 10
87.83553046114554
 20
25.507495136980555
 10
87.71117584151956
 20
25.49491607519664
 10
87.58154103731174
 20
25.48165317542246
 10
87.44675891915422
 20
25.46774586707614
 10
87.30682944921755
 20
25.453194283482265
 10
87.16171476014908
 20
25.438131882551957
 10
87.01141473846022
 20
25.42255906425896
 10
86.85600500536766
 20
25.40620931275483
 10
86.6954098639957
 20
25.389349410537186
 10
86.52979997667015
 20
25.37188559576224
 10
86.35900452974707
 20
25.353912163572133
 10
86.18309903095458
 20
25.335162998092162
 10
86.00214080536733
 20
25.315943777939758
 10
85.8160919099736
 20
25.296388227675195
 10
85.62506575768367
 20
25.276096640188086
 10
85.42885359184196
 20
25.255297035180863
 10
85.22775917238364
 20
25.233934280280334
 10
85.02147858805544
 20
25.212064041158023
 10
84.81027773143998
 20
25.189764643351875
 10
84.5940235049278
 20
25.166997457391258
 10
84.37284881698072
 20
25.143801779369728
 10
84.14665839951242
 20
25.12000565523014
 10
83.91558516098472
 20
25.09564838106606
 10
83.67942034474198
 20
25.0709579765799
 10
83.4384676728899
 20
25.045879442723066
 10
83.19259404781913
 20
25.020374150024963
 10
82.94179939387057
 20
24.994442365134727
 10
82.68608352189665
 20
24.968084754675317
 10
82.42554158649506
 20
24.94147367267763
 10
82.16007824392047
 20
24.914437431733695
 10
81.88978861094107
 20
24.887148519199
 10
81.61471032793236
 20
24.859474277109946
 10
81.33491901611103
 20
24.831148189618105
 10
81.05047184923353
 20
24.802476468639217
 10
80.76116010847387
 20
24.77368700055113
 10
80.46698360468442
 20
24.744780451976784
 10
80.16818877272573
 20
24.71539601192556
 10
79.8647376317567
 20
24.68566753828235
 10
79.55663010611815
 20
24.655595297696305
 10
79.24375251809327
 20
24.62557993054994
 10
78.92629390180899
 20
24.5949552138844
 10
78.60431150668079
 20
24.564027092966278
 10
78.2777673896971
 20
24.532929292355863
 10
77.94649058589586
 20
24.50175664049364
 10
77.61078477955321
 20
24.4704542716556
 10
77.27055466475342
 20
24.4388503651092
 10
76.92580016583737
 20
24.406945187503602
 10
76.5765784565616
 20
24.37504495075458
 10
76.22304070370043
 20
24.342616889814398
 10
75.8649781884278
 20
24.309888891060883
 10
75.50261889814412
 20
24.27707287126767
 10
75.13596271936088
 20
24.244169230408517
 10
74.76495221351485
 20
24.210872689839764
 10
74.38954936193531
 20
24.177317240770858
 10
74.01002005720484
 20
24.14358120873974
 10
73.62615550483835
 20
24.10989274677341
 10
73.23806907991658
 20
24.07585228108607
 10
72.84589365307176
 20
24.04149924109586
 10
72.44962911081534
 20
24.006834026776538
 10
72.04919960495346
 20
23.972123953924083
 10
71.64460502199759
 20
23.937369422512248
 10
71.23588307798225
 20
23.902437507928276
 10
70.82333749501312
 20
23.867273211123578
 10
70.40666424834832
 20
23.83193259774343
 10
69.98599624644964
 20
23.79645496388139
 10
69.56157988634814
 20
23.760479631871455
 10
69.13324412742277
 20
23.724101696803274
 10
68.701008389566
 20
23.687760428529963
 10
68.26500558123959
 20
23.651495123145086
 10
67.82504512844145
 20
23.614962005858935
 10
67.3815064879825
 20
23.577839161800714
 10
66.93423819045229
 20
23.54066042261486
 10
66.48327795188527
 20
23.503292863688593
 10
66.02858779144033
 20
23.465870342906793
 10
65.57037623879587
 20
23.428165640514557
 10
65.1086432182929
 20
23.39017902316106
 10
64.64325551883336
 20
23.351872261349435
 10
64.17444124130633
 20
23.31345687187955
 10
63.70206725027291
 20
23.274894358605373
 10
63.226342113241046
 20
23.235957368447423
 10
62.74726567889262
 20
23.196646434704036
 10
62.264970893518985
 20
23.157000720144175
 10
61.77928671649906
 20
23.11711531985752
 10
61.290270435077915
 20
23.077296045786063
 10
60.79790228889738
 20
23.03710482799797
 10
60.302543589944435
 20
22.99679141278997
 10
59.80407938543367
 20
22.955745509523915
 10
59.30247165669434
 20
22.914101109409252
 10
58.79787295905784
 20
22.872335978445136
 10
58.29024531168296
 20
22.830583974516433
 10
57.779435970090724
 20
22.788367998246926
 10
57.26605275678775
 20
22.74557671829358
 10
56.74973417063943
 20
22.70196105498259
 10
56.23063269131809
 20
22.657999040962277
 10
55.70857731603223
 20
22.613785637997726
 10
55.183871918205625
 20
22.569265313742
 10
54.656496813139114
 20
22.523999731614083
 10
54.12650928807777
 20
22.478294703555985
 10
53.59383353265738
 20
22.4324174120391
 10
53.05865861883433
 20
22.38570150077999
 10
52.52102226264318
 20
22.338014045165902
 10
51.981001360369085
 20
22.290099460369017
 10
51.43836747065737
 20
22.241747429510756
 10
50.893348807885545
 20
22.19316906941722
 10
50.34617227353324
 20
22.143564699218466
 10
49.79679992458874
 20
22.09306804347476
 10
49.24515602634681
 20
22.041946018008332
 10
48.69112690109051
 20
21.990599263201666
 10
48.13513006213105
 20
21.938571739649927
 10
47.57705044319445
 20
21.885253556688724
 10
47.01717384853951
 20
21.83116057648947
 10
46.45504474618439
 20
21.77688282966648
 10
45.89094755183085
 20
21.721925647344275
 10
45.32503339442368
 20
21.665756397799704
 10
44.75749284796498
 20
21.608718855822474
 10
44.18802169856528
 20
21.550869753680796
 10
43.616848274090685
 20
21.49241980822701
 10
43.04387719296636
 20
21.43319746537774
 10
42.46931717401839
 20
21.372974838755155
 10
41.89330127702661
 20
21.311790691154457
 10
41.31569625306355
 20
21.24960692640337
 10
40.73676833517749
 20
21.186500670118555
 10
40.15625113900205
 20
21.122395329981693
 10
39.57433516288031
 20
21.057634947431673
 10
38.991058274164835
 20
20.99208606455737
 10
38.40660946915308
 20
20.925082591724532
 10
37.820913013139794
 20
20.856891444755373
 10
37.23419734747966
 20
20.787722940528482
 10
36.64615825828322
 20
20.717633811312073
 10
36.05713763764495
 20
20.646434533549755
 10
35.46717327725845
 20
20.573991915979605
 10
34.87630296881728
 20
20.500172767339674
 10
34.28445090195714
 20
20.425244270101352
 10
33.691712458252915
 20
20.349377978348038
 10
33.09808752421598
 20
20.27257429205347
 10
32.50382272385458
 20
20.194471733604132
 10
31.908822675593882
 20
20.114898748916644
 10
31.31325830656634
 20
20.03376064287509
 10
30.717149301471085
 20
19.9514957520605
 10
30.120248922811335
 20
19.86846595406015
 10
29.52289917617017
 20
19.7844813253439
 10
28.92526948663443
 20
19.69843703972272
 10
28.32713276357694
 20
19.611133444689493
 10
27.72871763750003
 20
19.522780190499876
 10
27.12996644286339
 20
19.433072798457733
 10
26.530917047019624
 20
19.34187781065194
 10
25.931722270106786
 20
19.249672059809566
 10
25.33228680620904
 20
19.156283725198033
 10
24.7328572415051
 20
19.061351462528407
 10
24.133300364897003
 20
18.96483704230383
 10
23.533844806887085
 20
18.866950114779964
 10
22.934452662293193
 20
18.76782427119249
 10
22.335237457514157
 20
18.66705940445727
 10
21.736161287367814
 20
18.564789105809986
 10
21.137319571258555
 20
18.461184796009448
 10
20.53846560951911
 20
18.356608219318346
 10
19.940092801484013
 20
18.250335887211286
 10
19.34220114715324
 20
18.14236779968826
 10
18.744752854833227
 20
18.032837148011208
 10
18.147710019341826
 20
17.92187752341582
 10
17.551243794788657
 20
17.809393430838686
 10
16.955183102723133
 20
17.695480098694038
 10
16.3598322326938
 20
17.5800805280645
 10
15.765266881576382
 20
17.462927936452445
 10
15.171449219847771
 20
17.344155648444392
 10
14.578341455814373
 20
17.223896855302268
 10
13.985981418999327
 20
17.10201823243957
 10
13.39471134196281
 20
16.978329056378616
 10
12.804322278901621
 20
16.853058013444766
 10
12.214871895356072
 20
16.726509582334163
 10
11.626416090014217
 20
16.59797904394193
 10
11.039145739514304
 20
16.467809106461065
 10
10.452947468775607
 20
16.33639934367738
 10
9.86780144178091
 20
16.203311952308205
 10
9.284049966749464
 20
16.06835594222671
 10
8.701617422464578
 20
15.931797829281336
 10
8.120446181215462
 20
15.793333001451362
 10
7.540727233128951
 20
15.653303766956034
 10
6.962402988323792
 20
15.511405380450034
 10
6.385702228620381
 20
15.367846958890672
 10
5.810244967594465
 20
15.222952283692964
 10
5.236373513465301
 20
15.076530364730068
 10
4.6642391843252895
 20
14.928047903655903
 10
4.093804264139892
 20
14.777637825083229
 10
3.5250885510968115
 20
14.625738065619299
 10
2.958130026037244
 20
14.472214767379244
 10
2.3929665563138
 20
14.316934472451956
 10
1.8297315043425415
 20
14.159934877035955
 10
1.268215924320256
 20
14.001444667456592
 10
0.7084776331053497
 20
13.841767789111662
 10
0.15080127337676566
 20
13.680408773178188
 10
-0.40473742016025416
 20
13.517100703833954
 10
-0.9582139930633575
 20
13.352109830278238
 10
-1.509529469952974
 20
13.185595040758706
 10
-2.058811047032903
 20
13.01749690716924
 10
-2.6059631157511483
 20
12.847986183645704
 10
-3.1508901810442946
 20
12.67723402429772
 10
-3.6935742494064385
 20
12.504669301256104
 10
-4.233881996251081
 20
12.330329844043955
 10
-4.7718692446072
 20
12.15492010511698
 10
-5.307593660015116
 20
11.97813560577904
 10
-5.840750763778685
 20
11.799918680489812
 10
-6.371607205070942
 20
11.620193670203093
 10
-6.89989633471885
 20
11.439036233965096
 10
-7.4255604871821
 20
11.25675085047195
 10
-7.94890414115682
 20
11.073395185263983
 10
-8.469604824440994
 20
10.88834044493169
 10
-8.987622865000187
 20
10.702462236040395
 10
-9.503167246467111
 20
10.515989378240048
 10
-10.016144316289692
 20
10.328084094488414
 10
-10.526154100708357
 20
10.138859873354805
 10
-11.03344341287895
 20
9.948678859075674
 10
-11.538050082324556
 20
9.757674376237546
 10
-12.039898449998965
 20
9.565579775667382
 10
-12.538759696252251
 20
9.372604040997901
 10
-13.034900470257451
 20
9.178671513182909
 10
-13.528167611410838
 20
8.984257825028159
 10
-14.018485460666195
 20
8.789096327360621
 10
-14.50581618850043
 20
8.593053695593767
 10
-14.99019762443663
 20
8.396263254314125
 10
-15.471572102934497
 20
8.19902948221783
 10
-15.950072948580539
 20
8.001314549781789
 10
-16.425357853155514
 20
7.802927466879158
 10
-16.897426816659426
 20
7.603868233509939
 10
-17.366375334155684
 20
7.403965695564509
 10
-17.83210791058088
 20
7.203391007152488
 10
-18.294738034504313
 20
7.002544142033446
 10
-18.754170210862565
 20
6.801596254317001
 10
-19.210253121563223
 20
6.600014045657072
 10
-19.663120091192823
 20
6.397759686530551
 10
-20.112333316468693
 20
6.19481334092023
 10
-20.558272935133168
 20
5.991499323539465
 10
-21.00097677670937
 20
5.787950958974776
 10
-21.44017819202424
 20
5.584243906272372
 10
-21.875839351554685
 20
5.380244840845725
 10
-22.307980091317923
 20
5.175515959412175
 10
-22.73661840481983
 20
4.970628389840906
 10
-23.16186778062973
 20
4.7659821058914815
 10
-23.58340574654557
 20
4.560948314154399
 10
-24.001365627153884
 20
4.355489185106555
 10
-24.415556432327836
 20
4.149947026967197
 10
-24.826111486653932
 20
3.9442840102132255
 10
-25.233068619655295
 20
3.7386334594311568
 10
-25.636181018176085
 20
3.5326332303845316
 10
-26.03552434126251
 20
3.326549972246392
 10
-26.431098588914562
 20
3.120383685016739
 10
-26.82305507922466
 20
2.9146676670416563
 10
-27.21108933349666
 20
2.7093442527808285
 10
-27.595354512334286
 20
2.503937809428485
 10
-27.97564163210482
 20
2.2982195173346875
 10
-28.351968686314155
 20
2.092760504368621
 10
-28.724544658595008
 20
1.8877895901802277
 10
-29.09308490626845
 20
1.6828113059465268
 10
-29.457531763794172
 20
1.4781301303636571
 10
-29.818189709868307
 20
1.273803728971942
 10
-30.17479209531782
 20
1.0699077608175822
 10
-30.527225431573402
 20
0.8660422521410124
 10
-30.87560320720436
 20
0.6626071767018001
 10
-31.219963251733798
 20
0.45973585908646153
 10
-31.560267735638615
 20
0.2572949747084806
 10
-31.896383334332285
 20
0.05532235309095993
 10
-32.22827221829171
 20
-0.1463153303526283
 10
-32.5561055416265
 20
-0.34752258055885543
 10
-32.87961665516364
 20
-0.5482237384815283
 10
-33.19888121794931
 20
-0.748152154947596
 10
-33.51409022011035
 20
-0.9476501381763078
 10
-33.82484368788721
 20
-1.1466041995983611
 10
-34.13123711634331
 20
-1.3451854933233707
 10
-34.433421823571045
 20
-1.5428607210052594
 10
-34.73139780957042
 20
-1.7396298826440237
 10
-35.024956090708706
 20
-1.9357217978896069
 10
-35.3140588374628
 20
-2.1312697913285277
 10
-35.59880154489614
 20
-2.3264450170704087
 10
-35.87910671145117
 20
-2.5205051931364406
 10
-36.15506983219133
 20
-2.71362147363625
 10
-36.426615248070384
 20
-2.906060507742872
 10
-36.69360963450185
 20
-3.097784465933212
 10
-36.95612865053191
 20
-3.288526699034223
 10
-37.214096637114366
 20
-3.478553856218949
 10
-37.467551423772306
 20
-3.6677326129008683
 10
-37.71653084002886
 20
-3.855929644493462
 10
-37.96082590225128
 20
-4.0433737706466655
 10
-38.20055009900888
 20
-4.2296650176009205
 10
-38.435685436795765
 20
-4.41537451322541
 10
-38.66624990911784
 20
-4.599931129650948
 10
-38.892205686451994
 20
-4.783468191464059
 10
-39.11351493927511
 20
-4.96611902325126
 10
-39.33004434300069
 20
-5.14784579548945
 10
-39.541965051738345
 20
-5.328553013115211
 10
-39.74925722947086
 20
-5.507802872845875
 10
-39.951845217152034
 20
-5.685862023854488
 10
-40.14972901478186
 20
-5.862730466141046
 10
-40.34307977646997
 20
-6.038312704642134
 10
-40.531593023520216
 20
-6.2126664048980675
 10
-40.71547773956532
 20
-6.385562747258905
 10
-40.89467625906498
 20
-6.556697253028503
 10
-41.06932190660572
 20
-6.726107751729964
 10
-41.23920569855477
 20
-6.8940230630132255
 10
-41.404498789021794
 20
-7.060347691814872
 10
-41.56493452883376
 20
-7.2250059790886985
 10
-41.72085522620987
 20
-7.387806934707868
 10
-41.87203206150023
 20
-7.548541575039651
 10
-42.018522700245114
 20
-7.707514378780195
 10
-42.160327142444544
 20
-7.864725345929498
 10
-42.29744538809854
 20
-8.020174476487563
 10
-42.42981977166674
 20
-8.173557291758243
 10
-42.55745029314918
 20
-8.324873791741538
 10
-42.680356788563074
 20
-8.47456177972012
 10
-42.79851942189118
 20
-8.622183452411312
 10
-42.91178687504111
 20
-8.768272108161208
 10
-43.02031046610527
 20
-8.912294448623717
 10
-43.123938876991254
 20
-9.054783772144928
 10
-43.22274776674526
 20
-9.195473429551798
 10
-43.31673713536729
 20
-9.334363420844326
 10
-43.40573582874771
 20
-9.471549241085931
 10
-43.490086155105786
 20
-9.606839900149774
 10
-43.56927465211264
 20
-9.740521883226116
 10
-43.643776952574036
 20
-9.872442029711218
 10
-43.71328857779384
 20
-10.002658005145397
 10
-43.77792301634134
 20
-10.130769835769089
 10
-43.83773793375688
 20
-10.257082000278439
 10
-43.89263783497701
 20
-10.381423344563826
 10
-43.942774038094164
 20
-10.503260570279163
 10
-43.988166379125545
 20
-10.623031480707114
 10
-44.02875719253083
 20
-10.74043159715154
 10
-44.06462213735624
 20
-10.855194270439391
 10
-44.09591253169417
 20
-10.966786202224588
 10
-44.12262837554463
 20
-11.075207392507133
 10
-44.14497865254033
 20
-11.180229021637079
 10
-44.16288586112375
 20
-11.281108807635622
 10
-44.17663464397382
 20
-11.377351281679775
 10
-44.18673662090807
 20
-11.467661027427432
 10
-44.19318994941519
 20
-11.551029113726742
 10
-44.19673322645133
 20
-11.625360176716462
 10
-44.19810504897265
 20
-11.688558852535365
 10
-44.19794667636054
 20
-11.737349692060732
 10
-44.19733717127909
 20
-11.76843741015264
 10
-43.95810185627736
 20
-12.62123360354819
 10
-43.953639383455254
 20
-12.627314396521829
 10
-43.940289794512026
 20
-12.64542345085622
 10
-43.91820440754009
 20
-12.675027468205284
 10
-43.886606796060185
 20
-12.718355137016774
 10
-43.84496918926022
 20
-12.77828193265384
 10
-43.79512539775497
 20
-12.847837147094282
 10
-43.73811481217409
 20
-12.922849888632838
 10
-43.67469586549094
 20
-13.001662596690942
 10
-43.60552965310415
 20
-13.081437625428546
 10
-43.53082331613512
 20
-13.160937224043858
 10
-43.451032651372394
 20
-13.239570428650474
 10
-43.36617565232187
 20
-13.316766111379213
 10
-43.27640363707595
 20
-13.391990973883985
 10
-43.181792264680844
 20
-13.46497836699175
 10
-43.08234153513654
 20
-13.535728290702506
 10
-42.97822260255266
 20
-13.60414524995284
 10
-42.869377801388914
 20
-13.669924766046597
 10
-42.75576930212217
 20
-13.73320016357031
 10
-42.637568258862075
 20
-13.793875947460553
 10
-42.514565687975875
 20
-13.852180937367267
 10
-42.3867994189867
 20
-13.907981808703932
 10
-42.25461176011378
 20
-13.96108757134371
 10
-42.11748924902825
 20
-14.011784710476855
 10
-41.97586968901279
 20
-14.060053390086157
 10
-41.82944860137122
 20
-14.105951275711929
 10
-41.67839714021319
 20
-14.149382872290756
 10
-41.522753135061805
 20
-14.190214855236112
 10
-41.362403097347745
 20
-14.228847198307564
 10
-41.19742268611723
 20
-14.26501325233207
 10
-41.02766058327783
 20
-14.299246315655711
 10
-40.85323027739886
 20
-14.331146414518926
 10
-40.67418943402065
 20
-14.361018027617858
 10
-40.49040472855666
 20
-14.38882332542941
 10
-40.30180050196069
 20
-14.414828957126616
 10
-40.10854790834239
 20
-14.438939427646066
 10
-39.91060911817861
 20
-14.461288061574272
 10
-39.70798413146939
 20
-14.48187485891124
 10
-39.50042613505889
 20
-14.501061963893429
 10
-39.28823960764323
 20
-14.518791710980523
 10
-39.07119572957251
 20
-14.534855116539797
 10
-38.84956115001976
 20
-14.549327839617455
 10
-38.62312688535223
 20
-14.562438699863437
 10
-38.39202626015647
 20
-14.574225526800841
 10
-38.15616377936905
 20
-14.584517166320053
 10
-37.9157484266227
 20
-14.593084798771125
 10
-37.670609047807794
 20
-14.60002391921748
 10
-37.42097446257427
 20
-14.605543511291842
 10
-37.1667113463356
 20
-14.609605745471105
 10
-36.9078196990918
 20
-14.612210621755276
 10
-36.64441300941217
 20
-14.612958166384788
 10
-36.37662460188323
 20
-14.611886208882744
 10
-36.104321151918455
 20
-14.608956919726042
 10
-35.82756032505816
 20
-14.604474777610822
 10
-35.54634212130235
 20
-14.59843978253709
 10
-35.26081785874345
 20
-14.590318636158761
 10
-34.97104520292175
 20
-14.580415817171975
 10
-34.676928658773846
 20
-14.568560171467114
 10
-34.37843039677662
 20
-14.554885023630693
 10
-34.07568374151662
 20
-14.53942820318582
 10
-33.76872652251692
 20
-14.522056385545971
 10
-33.45752091025444
 20
-14.50290289529767
 10
-33.14206690472917
 20
-14.48196773244091
 10
-32.82240233546422
 20
-14.459117572389179
 10
-32.49862269752299
 20
-14.434523569252091
 10
-32.17072799090549
 20
-14.408185723029654
 10
-31.838622720548305
 20
-14.379932879612243
 10
-31.50249787657828
 20
-14.350107347219097
 10
-31.162257963931978
 20
-14.318537971740602
 10
-30.81786515308631
 20
-14.285358077763277
 10
-30.46949059815089
 20
-14.250472170223702
 10
-30.117247787695035
 20
-14.213480275362313
 10
-29.761023233149427
 20
-14.174782366938672
 10
-29.400607950881355
 20
-14.134607264602725
 10
-29.036439744173478
 20
-14.092935132337251
 10
-28.668327622898943
 20
-14.049423661923003
 10
-28.296309416580876
 20
-14.003939528773467
 10
-27.9205761153461
 20
-13.956825041107882
 10
-27.540956565084997
 20
-13.908175693989671
 10
-27.15752642484377
 20
-13.85772483824579
 10
-26.77041901920894
 20
-13.805510303399343
 10
-26.37967217770361
 20
-13.751398764863808
 10
-25.98517241175848
 20
-13.695790196398747
 10
-25.586995380419744
 20
-13.638417948831119
 10
-25.1850654246412
 20
-13.579548671333967
 10
-24.779762682165188
 20
-13.51885804919393
 10
-24.370782674295587
 20
-13.45640374795133
 10
-23.9582587256189
 20
-13.392223597129261
 10
-23.542286331198547
 20
-13.326488750837349
 10
-23.12280782549422
 20
-13.258894730379453
 10
-22.69988087404623
 20
-13.189746014451716
 10
-22.273676630964193
 20
-13.118947107990717
 10
-21.844004106121293
 20
-13.046155702777213
 10
-21.411129948690547
 20
-12.971447457857405
 10
-20.974940670102665
 20
-12.895222346990858
 10
-20.53543627035764
 20
-12.81748037017757
 10
-20.092616749455473
 20
-12.738221527417542
 10
-19.646728920551993
 20
-12.657083674474315
 10
-19.197848442693402
 20
-12.573800162174843
 10
-18.74569067320078
 20
-12.48886645934211
 10
-18.290522261247155
 20
-12.402358225022322
 10
-17.83228554129221
 20
-12.313970980519333
 10
-17.371189496968686
 20
-12.223475906183202
 10
-16.907120639707266
 20
-12.131272975773495
 10
-16.44013663504827
 20
-12.037666667986352
 10
-15.970179817451376
 20
-11.942352504125635
 10
-15.497363675485893
 20
-11.844930510431773
 10
-15.021879199278661
 20
-11.745742995124022
 10
-14.543688559306572
 20
-11.644923282788891
 10
-14.062525106396594
 20
-11.542395714380186
 10
-13.578826643831386
 20
-11.43814045388069
 10
-13.092535506070634
 20
-11.331853022594254
 10
-12.603651693114331
 20
-11.223533420520884
 10
-12.112270700025903
 20
-11.113352801770198
 10
-11.618203379189838
 20
-11.001977789274804
 10
-11.12169654376196
 20
-10.889046238798242
 10
-10.62276818724816
 20
-10.773987022471324
 10
-10.121380480125342
 20
-10.656933464880572
 10
-9.617800071566531
 20
-10.537961225072186
 10
-9.111742318892817
 20
-10.417565771869157
 10
-8.603416205736911
 20
-10.295518285621537
 10
-8.092821732098818
 20
-10.171818766329329
 10
-7.58003455702474
 20
-10.04620056481949
 10
-7.065016850991584
 20
-9.918797005678545
 10
-6.54795960412618
 20
-9.789950397125736
 10
-6.028671826301696
 20
-9.659318430941816
 10
-5.5074958257373625
 20
-9.526710116999949
 10
-4.984393772910086
 20
-9.392258779886655
 10
-4.459327838296778
 20
-9.256097744188457
 10
-3.9322025268340046
 20
-9.11805585579573
 10
-3.403493471327544
 20
-8.97797995410474
 10
-2.8731051767139593
 20
-8.835698885005861
 10
-2.34067734126813
 20
-8.691974766495118
 10
-1.8065144436862044
 20
-8.546749933032201
 10
-1.2709767856933027
 20
-8.399262266621074
 10
-0.7336842295470913
 20
-8.249836081975104
 10
-0.194732270310981
 20
-8.098642533203911
 10
0.3455367837957845
 20
-7.945490630180657
 10
0.8873517524231425
 20
-7.7901713892726185
 10
1.430445986398047
 20
-7.6327604695260005
 10
1.975104128399433
 20
-7.473753339763782
 10
2.521117194794563
 20
-7.312921180336026
 10
3.0681627133814273
 20
-7.149635197833226
 10
3.6164874973158385
 20
-6.984257536491844
 10
4.166109540103686
 20
-6.817359324181068
 10
4.716782142077705
 20
-6.648578816638199
 10
5.268606926684078
 20
-6.477766458336623
 10
5.821529708698587
 20
-6.30523899383445
 10
6.375399283517405
 20
-6.130463524759355
 10
6.930215726799587
 20
-5.9534403177605055
 10
7.485997032051008
 20
-5.774740500707094
 10
8.042647855526342
 20
-5.594535761007089
 10
8.600263730118545
 20
-5.41265507787545
 10
9.158597880501292
 20
-5.228736440400306
 10
9.717726003550327
 20
-5.043046631079284
 10
10.277648250583738
 20
-4.855586183210731
 10
10.838231259185472
 20
-4.666392792993162
 10
11.399361654274799
 20
-4.475066886640774
 10
11.961115094897925
 20
-4.281875113326608
 10
12.523376249974213
 20
-4.087426430442955
 10
13.086374090471688
 20
-3.8915123876554336
 10
13.6497284408185
 20
-3.6938085369260985
 10
14.213610530783303
 20
-3.49441063996754
 10
14.777753711193055
 20
-3.293394355825966
 10
15.3423291739869
 20
-3.0908553128893814
 10
15.90729912747127
 20
-2.8866603198958494
 10
16.472434751996218
 20
-2.6810183604780975
 10
17.037945031194468
 20
-2.474158254286063
 10
17.603792249031482
 20
-2.2659470767069885
 10
18.169671813322562
 20
-2.0563267622267927
 10
18.735754953836363
 20
-1.8453930725580716
 10
19.301984005032576
 20
-1.6334504863969692
 10
19.86834101123483
 20
-1.4199280091988855
 10
20.434634906657262
 20
-1.2051676825338857
 10
21.000941350346046
 20
-0.9894361555750253
 10
21.56722255060761
 20
-0.7726002370603626
 10
22.133402848395768
 20
-0.5543932778168548
 10
22.69955794058623
 20
-0.33508206034213306
 10
23.26549664790455
 20
-0.11500822623251153
 10
23.831276711550082
 20
0.10613243655898204
 10
24.396878295505626
 20
0.32790212474968533
 10
24.962187835542828
 20
0.5507010787483323
 10
25.527167539968083
 20
0.7746624898168522
 10
26.091893067827634
 20
0.9995197087822114
 10
26.656211031540575
 20
1.2247979027861557
 10
27.220254869182018
 20
1.450534501378032
 10
27.783777691937072
 20
1.677091915443469
 10
28.3468172536698
 20
1.9043370870451224
 10
28.909373592209732
 20
2.1322698828584072
 10
29.47148446142092
 20
2.360757244945972
 10
30.032845193459597
 20
2.5898575054710697
 10
30.59362705592397
 20
2.8194747693965203
 10
31.153734326773456
 20
3.0494386825602118
 10
31.713376178788423
 20
3.2795197586892835
 10
32.27213430423769
 20
3.510176837004886
 10
32.83004657047391
 20
3.74127645959592
 10
33.38743544969909
 20
3.9721898330528758
 10
33.94380712645397
 20
4.203641912471609
 10
34.49912365772686
 20
4.4357664224123985
 10
35.053745458731505
 20
4.667800844905467
 10
35.60748123670486
 20
4.899403938328255
 10
36.16023741475385
 20
5.131413213073819
 10
36.711918346496994
 20
5.363658048330879
 10
37.26239048037064
 20
5.596101414523859
 10
37.81186291349608
 20
5.828514092029056
 10
38.36023996166224
 20
6.060725593359773
 10
38.90755934090371
 20
6.2926029939032615
 10
39.45361195409915
 20
6.524375513283206
 10
39.998321990884286
 20
6.756310333971005
 10
40.541802901998906
 20
6.988007615531682
 10
41.08405464961347
 20
7.2194674912898185
 10
41.624847997953296
 20
7.450482444183147
 10
42.16444986099807
 20
7.681127199985755
 10
42.70247972271024
 20
7.911727406656881
 10
43.23897533695384
 20
8.142150006259168
 10
43.774125700026296
 20
8.371728909158353
 10
44.30789302023405
 20
8.600597306616386
 10
44.83993449757401
 20
8.828947921979715
 10
45.370554875549026
 20
9.056722156435923
 10
45.899449259338155
 20
9.283979142095774
 10
46.426751049187004
 20
9.510756441833202
 10
46.95240231474858
 20
9.736750510224173
 10
47.476269466629695
 20
9.96192445101768
 10
47.99856160195165
 20
10.18604904459003
 10
48.518898091188284
 20
10.409450338874203
 10
49.03754584831933
 20
10.632203059644304
 10
49.55419997852387
 20
10.854366339011094
 10
50.069087269792874
 20
11.075140896078379
 10
50.58207417056274
 20
11.294489701270585
 10
51.093200617674505
 20
11.513287427880924
 10
51.602028126914135
 20
11.73155631176918
 10
52.109126248446124
 20
11.948304482017283
 10
52.61419004962005
 20
12.163591204060577
 10
53.11706802319589
 20
12.377950442868089
 10
53.6177600935146
 20
12.591382465088984
 10
54.11630397661073
 20
12.803754346110509
 10
54.6128887444407
 20
13.014399729649224
 10
55.10717148351296
 20
13.223511739025358
 10
55.59930573272641
 20
13.43156467379881
 10
56.089024237635684
 20
13.638485008116758
 10
56.57640254379838
 20
13.844006492779918
 10
57.061516234601704
 20
14.047862745264435
 10
57.54428949968131
 20
14.25032094804168
 10
58.024588636155464
 20
14.451344604834418
 10
58.50262277897499
 20
14.650704362694372
 10
58.97812467369449
 20
14.848326695768723
 10
59.45111430764925
 20
15.044648874041776
 10
59.92132435073479
 20
15.239597638309894
 10
60.38923107885883
 20
15.433017561451374
 10
60.85437571783575
 20
15.624494675938355
 10
61.31702533296336
 20
15.814103174246592
 10
61.77714194340048
 20
16.00197691426095
 10
62.23438263565545
 20
16.18830901930165
 10
62.68878505010381
 20
16.372966831405108
 10
63.140654043736895
 20
16.55589135178514
 10
63.58962664006876
 20
16.73683870042682
 10
64.03591189839115
 20
16.915579791031032
 10
64.47926262725305
 20
17.092478101080115
 10
64.91977443520643
 20
17.267704384709923
 10
65.35735144889262
 20
17.441088821056695
 10
65.79199351699351
 20
17.612631943418787
 10
66.22368038736721
 20
17.781897415083982
 10
66.65243208517849
 20
17.949322372712004
 10
67.07801907201645
 20
18.11470036583728
 10
67.50049912691003
 20
18.278335473182196
 10
67.91998566276948
 20
18.439827987636352
 10
68.3363827305771
 20
18.59900835498518
 10
68.74957669044545
 20
18.756277082286573
 10
69.15956742888604
 20
18.911634569514298
 10
69.56635479458069
 20
19.0650813499667
 10
69.96974711647121
 20
19.21627751526709
 10
70.37008711890157
 20
19.36503060871818
 10
70.767051913545
 20
19.51197089029992
 10
71.16054558921333
 20
19.65692867247314
 10
71.55070158398162
 20
19.79994138478719
 10
71.93746181618484
 20
19.940706015116373
 10
72.32065471558857
 20
20.079319525094554
 10
72.70050955579705
 20
20.21598929845942
 10
73.0768724196161
 20
20.350242368896946
 10
73.44966753451092
 20
20.48234578555392
 10
73.81893261651604
 20
20.612166623817593
 10
74.18455398791457
 20
20.740105524070454
 10
74.54660719426411
 20
20.86589623711322
 10
74.90495845702388
 20
20.98950253331783
 10
75.25964549222843
 20
21.110791488071516
 10
75.61076398408873
 20
21.229933588860977
 10
75.95800869731823
 20
21.346989167718252
 10
76.3013794427693
 20
21.461958891266278
 10
76.64104760152873
 20
21.574746464494122
 10
76.97705104094909
 20
21.68521842949067
 10
77.3090096611176
 20
21.793698967644698
 10
77.63705353328177
 20
21.90023737439374
 10
77.96129981547466
 20
22.00442074349336
 10
78.2815755377695
 20
22.106350969587098
 10
78.59780496546112
 20
22.2062949684972
 10
78.91019727132978
 20
22.30402325395078
 10
79.21852284130559
 20
22.399329642131427
 10
79.52283953007651
 20
22.49251794511237
 10
79.82310939463079
 20
22.583721887453862
 10
80.11919869425722
 20
22.67290510620327
 10
80.41118297451345
 20
22.75980135216132
 10
80.6990242167287
 20
22.84454461653744
 10
80.98264668619777
 20
22.927401815153868
 10
81.26208806112561
 20
23.00824015672241
 10
81.53729029767675
 20
23.08675649579281
 10
81.80825320670354
 20
23.162951498987983
 10
82.07495905950671
 20
23.23739536090501
 10
82.3373118692391
 20
23.309918660653906
 10
82.59531159807118
 20
23.380521531559243
 10
82.8489958863784
 20
23.449071315657438
 10
83.09823103127906
 20
23.515531516671256
 10
83.34315050867772
 20
23.57993943082545
 10
83.58354499447601
 20
23.642525077691253
 10
83.81948995857245
 20
23.703022474718527
 10
84.05090966626184
 20
23.761698537729515
 10
84.278013328154
 20
23.818323647126736
 10
84.50045787943925
 20
23.87309145952877
 10
84.71833904215818
 20
23.926172329097728
 10
84.93156090512257
 20
23.97739656829442
 10
85.14029484941916
 20
24.02666788210792
 10
85.34433117265434
 20
24.07421762335531
 10
85.54387889629035
 20
24.119816839062064
 10
85.7385595092543
 20
24.163784110984324
 10
85.92867506915286
 20
24.206070306355294
 10
86.11395930510827
 20
24.246598432882926
 10
86.29454576868416
 20
24.285405520142795
 10
86.47043438422146
 20
24.32249183478407
 10
86.64158720870851
 20
24.357991101367038
 10
86.80790840661622
 20
24.39173336570335
 10
86.96932216758024
 20
24.42398581026439
 10
87.12599998617593
 20
24.45465174006547
 10
87.27777021650986
 20
24.48382838338963
 10
87.42467065027564
 20
24.511382548974932
 10
87.56666342012058
 20
24.537447694732485
 10
87.70378624207927
 20
24.561890896049537
 10
87.83600124879906
 20
24.584845610837178
 10
87.96323274340423
 20
24.60657862159305
 10
88.0854226064002
 20
24.62678704951605
 10
88.20280033836826
 20
24.645677478396333
 10
88.31492700114013
 20
24.663273743988718
 10
88.42224141939558
 20
24.679552410512148
 10
88.52447618737105
 20
24.69444048541215
 10
88.6215556081909
 20
24.70820475118637
 10
88.71365113860087
 20
24.720748646174666
 10
88.80062903788975
 20
24.732035807424417
 10
88.88241364701126
 20
24.742332884108645
 10
88.95921421440484
 20
24.751410123305323
 10
89.03082141597203
 20
24.759497544585646
 10
89.09727300557688
 20
24.76646209001228
 10
89.15849332417324
 20
24.772570408758273
 10
89.21452020128415
 20
24.77768917623709
 10
89.2654493967797
 20
24.781988613286256
 10
89.31101354272596
 20
24.785395594026713
 10
89.35130851248151
 20
24.788079939322216
 10
89.3864679332691
 20
24.790078412099167
 10
89.41622443715475
 20
24.791317886478527
 10
89.44063599231492
 20
24.792101774559722
 10
89.45987420681357
 20
24.792332981384313
 10
89.47359590235239
 20
24.792205563544627
 10
89.48189706577861
 20
24.791888941930658
 10
89.4847019245574
 20
24.791650165689198
  0
ENDSEC
  0
SECTION
  2
OBJECTS
  0
DICTIONARY
  5
A
330
0
100
AcDbDictionary
280
0
281
1
  3
ACAD_COLOR
350
B
  3
ACAD_GROUP
350
C
  3
ACAD_LAYOUT
350
D
  3
ACAD_MATERIAL
350
E
  3
ACAD_MLEADERSTYLE
350
F
  3
ACAD_MLINESTYLE
350
10
  3
ACAD_PLOTSETTINGS
350
11
  3
ACAD_PLOTSTYLENAME
350
12
  3
ACAD_SCALELIST
350
14
  3
ACAD_TABLESTYLE
350
15
  3
ACAD_VISUALSTYLE
350
16
  3
EZDXF_META
350
2D
  0
DICTIONARY
  5
B
330
A
100
AcDbDictionary
280
0
281
1
  0
DICTIONARY
  5
C
330
A
100
AcDbDictionary
280
0
281
1
  0
DICTIONARY
  5
D
330
A
100
AcDbDictionary
280
0
281
1
  3
Model
350
1A
  3
Layout1
350
1E
  0
DICTIONARY
  5
E
330
A
100
AcDbDictionary
280
0
281
1
  3
ByBlock
350
1F
  3
ByLayer
350
20
  3
Global
350
21
  0
DICTIONARY
  5
F
330
A
100
AcDbDictionary
280
0
281
1
  3
Standard
350
2C
  0
DICTIONARY
  5
10
330
A
100
AcDbDictionary
280
0
281
1
  3
Standard
350
22
  0
DICTIONARY
  5
11
330
A
100
AcDbDictionary
280
0
281
1
  0
ACDBDICTIONARYWDFLT
  5
12
330
A
100
AcDbDictionary
280
0
281
1
  3
Normal
350
13
100
AcDbDictionaryWithDefault
340
13
  0
ACDBPLACEHOLDER
  5
13
330
12
  0
DICTIONARY
  5
14
330
A
100
AcDbDictionary
280
0
281
1
  0
DICTIONARY
  5
15
330
A
100
AcDbDictionary
280
0
281
1
  0
DICTIONARY
  5
16
330
A
100
AcDbDictionary
280
0
281
1
  0
LAYOUT
  5
1A
330
D
100
AcDbPlotSettings
  1

  4
A3
  6

 40
7.5
 41
20.0
 42
7.5
 43
20.0
 44
420.0
 45
297.0
 46
0.0
 47
0.0
 48
0.0
 49
0.0
140
0.0
141
0.0
142
1.0
143
1.0
 70
1024
 72
1
 73
0
 74
5
  7

 75
16
 76
0
 77
2
 78
300
147
1.0
148
0.0
149
0.0
100
AcDbLayout
  1
Model
 70
1
 71
0
 10
0.0
 20
0.0
 11
420.0
 21
297.0
 12
0.0
 22
0.0
 32
0.0
 14
1e+20
 24
1e+20
 34
1e+20
 15
-1e+20
 25
-1e+20
 35
-1e+20
146
0.0
 13
0.0
 23
0.0
 33
0.0
 16
1.0
 26
0.0
 36
0.0
 17
0.0
 27
1.0
 37
0.0
 76
1
330
17
  0
LAYOUT
  5
1E
330
D
100
AcDbPlotSettings
  1

  4
A3
  6

 40
7.5
 41
20.0
 42
7.5
 43
20.0
 44
420.0
 45
297.0
 46
0.0
 47
0.0
 48
0.0
 49
0.0
140
0.0
141
0.0
142
1.0
143
1.0
 70
0
 72
1
 73
0
 74
5
  7

 75
16
 76
0
 77
2
 78
300
147
1.0
148
0.0
149
0.0
100
AcDbLayout
  1
Layout1
 70
1
 71
1
 10
0.0
 20
0.0
 11
420.0
 21
297.0
 12
0.0
 22
0.0
 32
0.0
 14
1e+20
 24
1e+20
 34
1e+20
 15
-1e+20
 25
-1e+20
 35
-1e+20
146
0.0
 13
0.0
 23
0.0
 33
0.0
 16
1.0
 26
0.0
 36
0.0
 17
0.0
 27
1.0
 37
0.0
 76
1
330
1B
  0
MATERIAL
  5
1F
102
{ACAD_REACTORS
330
E
102
}
330
E
100
AcDbMaterial
  1
ByBlock
  2

 70
0
 40
1.0
 71
1
 41
1.0
 91
-1023410177
 42
1.0
 72
1
  3

 73
1
 74
1
 75
1
 44
0.5
 73
0
 45
1.0
 46
1.0
 77
1
  4

 78
1
 79
1
170
1
 48
1.0
171
1
  6

172
1
173
1
174
1
140
1.0
141
1.0
175
1
  7

176
1
177
1
178
1
143
1.0
179
1
  8

270
1
271
1
272
1
145
1.0
146
1.0
273
1
  9

274
1
275
1
276
1
 42
1.0
 72
1
  3

 73
1
 74
1
 75
1
 94
63
  0
MATERIAL
  5
20
102
{ACAD_REACTORS
330
E
102
}
330
E
100
AcDbMaterial
  1
ByLayer
  2

 70
0
 40
1.0
 71
1
 41
1.0
 91
-1023410177
 42
1.0
 72
1
  3

 73
1
 74
1
 75
1
 44
0.5
 73
0
 45
1.0
 46
1.0
 77
1
  4

 78
1
 79
1
170
1
 48
1.0
171
1
  6

172
1
173
1
174
1
140
1.0
141
1.0
175
1
  7

176
1
177
1
178
1
143
1.0
179
1
  8

270
1
271
1
272
1
145
1.0
146
1.0
273
1
  9

274
1
275
1
276
1
 42
1.0
 72
1
  3

 73
1
 74
1
 75
1
 94
63
  0
MATERIAL
  5
21
102
{ACAD_REACTORS
330
E
102
}
330
E
100
AcDbMaterial
  1
Global
  2

 70
0
 40
1.0
 71
1
 41
1.0
 91
-1023410177
 42
1.0
 72
1
  3

 73
1
 74
1
 75
1
 44
0.5
 73
0
 45
1.0
 46
1.0
 77
1
  4

 78
1
 79
1
170
1
 48
1.0
171
1
  6

172
1
173
1
174
1
140
1.0
141
1.0
175
1
  7

176
1
177
1
178
1
143
1.0
179
1
  8

270
1
271
1
272
1
145
1.0
146
1.0
273
1
  9

274
1
275
1
276
1
 42
1.0
 72
1
  3

 73
1
 74
1
 75
1
 94
63
  0
MLINESTYLE
  5
22
102
{ACAD_REACTORS
330
10
102
}
330
10
100
AcDbMlineStyle
  2
Standard
 70
0
  3

 62
256
 51
90.0
 52
90.0
 71
2
 49
0.5
 62
256
  6
BYLAYER
 49
-0.5
 62
256
  6
BYLAYER
  0
MLEADERSTYLE
  5
2C
102
{ACAD_REACTORS
330
F
102
}
330
F
100
AcDbMLeaderStyle
179
2
170
2
171
1
172
0
 90
2
 40
0.0
 41
0.0
173
1
 91
-1056964608
 92
-2
290
1
 42
2.0
291
1
 43
8.0
  3
Standard
 44
4.0
300

342
29
174
1
175
1
176
0
178
1
 93
-1056964608
 45
4.0
292
0
297
0
 46
4.0
 94
-1056964608
 47
1.0
 49
1.0
140
1.0
294
1
141
0.0
177
0
142
1.0
295
0
296
0
143
3.75
271
0
272
9
273
9
  0
DICTIONARY
  5
2D
330
A
100
AcDbDictionary
280
1
281
1
  3
CREATED_BY_EZDXF
350
2E
  3
WRITTEN_BY_EZDXF
350
32
  0
DICTIONARYVAR
  5
2E
330
2D
100
DictionaryVariables
280
0
  1
1.3.5 @ 2025-08-20T01:28:29.357065+00:00
  0
DICTIONARYVAR
  5
32
330
2D
100
DictionaryVariables
280
0
  1
1.3.5 @ 2025-08-20T01:28:29.363029+00:00
  0
ENDSEC
  0
EOF
