  0
SECTION
  2
HEADER
  9
$ACADVER
  1
AC1032
  9
$ACADMAINTVER
 90
4
  9
$DWGCODEPAGE
  3
ANSI_1252
  9
$LASTSAVEDBY
  1
ezdxf
  9
$REQUIREDVERSIONS
160
0
  9
$INSBASE
 10
0.0
 20
0.0
 30
0.0
  9
$EXTMIN
 10
1e+20
 20
1e+20
 30
1e+20
  9
$EXTMAX
 10
-1e+20
 20
-1e+20
 30
-1e+20
  9
$LIMMIN
 10
0.0
 20
0.0
  9
$LIMMAX
 10
420.0
 20
297.0
  9
$ORTHOMODE
 70
0
  9
$REGENMODE
 70
1
  9
$FILLMODE
 70
1
  9
$QTEXTMODE
 70
0
  9
$MIRRTEXT
 70
1
  9
$LTSCALE
 40
1.0
  9
$ATTMODE
 70
1
  9
$TEXTSIZE
 40
2.5
  9
$TRACEWID
 40
1.0
  9
$TEXTSTYLE
  7
Standard
  9
$CLAYER
  8
0
  9
$CELTYPE
  6
ByLayer
  9
$CECOLOR
 62
256
  9
$CELTSCALE
 40
1.0
  9
$DISPSILH
 70
0
  9
$DIMSCALE
 40
1.0
  9
$DIMASZ
 40
2.5
  9
$DIMEXO
 40
0.625
  9
$DIMDLI
 40
3.75
  9
$DIMRND
 40
0.0
  9
$DIMDLE
 40
0.0
  9
$DIMEXE
 40
1.25
  9
$DIMTP
 40
0.0
  9
$DIMTM
 40
0.0
  9
$DIMTXT
 40
2.5
  9
$DIMCEN
 40
2.5
  9
$DIMTSZ
 40
0.0
  9
$DIMTOL
 70
0
  9
$DIMLIM
 70
0
  9
$DIMTIH
 70
0
  9
$DIMTOH
 70
0
  9
$DIMSE1
 70
0
  9
$DIMSE2
 70
0
  9
$DIMTAD
 70
1
  9
$DIMZIN
 70
8
  9
$DIMBLK
  1

  9
$DIMASO
 70
1
  9
$DIMSHO
 70
1
  9
$DIMPOST
  1

  9
$DIMAPOST
  1

  9
$DIMALT
 70
0
  9
$DIMALTD
 70
3
  9
$DIMALTF
 40
0.03937007874
  9
$DIMLFAC
 40
1.0
  9
$DIMTOFL
 70
1
  9
$DIMTVP
 40
0.0
  9
$DIMTIX
 70
0
  9
$DIMSOXD
 70
0
  9
$DIMSAH
 70
0
  9
$DIMBLK1
  1

  9
$DIMBLK2
  1

  9
$DIMSTYLE
  2
ISO-25
  9
$DIMCLRD
 70
0
  9
$DIMCLRE
 70
0
  9
$DIMCLRT
 70
0
  9
$DIMTFAC
 40
1.0
  9
$DIMGAP
 40
0.625
  9
$DIMJUST
 70
0
  9
$DIMSD1
 70
0
  9
$DIMSD2
 70
0
  9
$DIMTOLJ
 70
0
  9
$DIMTZIN
 70
8
  9
$DIMALTZ
 70
0
  9
$DIMALTTZ
 70
0
  9
$DIMUPT
 70
0
  9
$DIMDEC
 70
2
  9
$DIMTDEC
 70
2
  9
$DIMALTU
 70
2
  9
$DIMALTTD
 70
3
  9
$DIMTXSTY
  7
Standard
  9
$DIMAUNIT
 70
0
  9
$DIMADEC
 70
0
  9
$DIMALTRND
 40
0.0
  9
$DIMAZIN
 70
0
  9
$DIMDSEP
 70
44
  9
$DIMATFIT
 70
3
  9
$DIMFRAC
 70
0
  9
$DIMLDRBLK
  1

  9
$DIMLUNIT
 70
2
  9
$DIMLWD
 70
-2
  9
$DIMLWE
 70
-2
  9
$DIMTMOVE
 70
0
  9
$DIMFXL
 40
1.0
  9
$DIMFXLON
 70
0
  9
$DIMJOGANG
 40
0.785398163397
  9
$DIMTFILL
 70
0
  9
$DIMTFILLCLR
 70
0
  9
$DIMARCSYM
 70
0
  9
$DIMLTYPE
  6

  9
$DIMLTEX1
  6

  9
$DIMLTEX2
  6

  9
$DIMTXTDIRECTION
 70
0
  9
$LUNITS
 70
2
  9
$LUPREC
 70
4
  9
$SKETCHINC
 40
1.0
  9
$FILLETRAD
 40
10.0
  9
$AUNITS
 70
0
  9
$AUPREC
 70
2
  9
$MENU
  1
.
  9
$ELEVATION
 40
0.0
  9
$PELEVATION
 40
0.0
  9
$THICKNESS
 40
0.0
  9
$LIMCHECK
 70
0
  9
$CHAMFERA
 40
0.0
  9
$CHAMFERB
 40
0.0
  9
$CHAMFERC
 40
0.0
  9
$CHAMFERD
 40
0.0
  9
$SKPOLY
 70
0
  9
$TDCREATE
 40
2460908.103113426
  9
$TDUCREATE
 40
2458532.153996898
  9
$TDUPDATE
 40
2460908.103113426
  9
$TDUUPDATE
 40
2458532.1544311
  9
$TDINDWG
 40
0.0
  9
$TDUSRTIMER
 40
0.0
  9
$USRTIMER
 70
1
  9
$ANGBASE
 50
0.0
  9
$ANGDIR
 70
0
  9
$PDMODE
 70
0
  9
$PDSIZE
 40
0.0
  9
$PLINEWID
 40
0.0
  9
$SPLFRAME
 70
0
  9
$SPLINETYPE
 70
6
  9
$SPLINESEGS
 70
8
  9
$HANDSEED
  5
33
  9
$SURFTAB1
 70
6
  9
$SURFTAB2
 70
6
  9
$SURFTYPE
 70
6
  9
$SURFU
 70
6
  9
$SURFV
 70
6
  9
$UCSBASE
  2

  9
$UCSNAME
  2

  9
$UCSORG
 10
0.0
 20
0.0
 30
0.0
  9
$UCSXDIR
 10
1.0
 20
0.0
 30
0.0
  9
$UCSYDIR
 10
0.0
 20
1.0
 30
0.0
  9
$UCSORTHOREF
  2

  9
$UCSORTHOVIEW
 70
0
  9
$UCSORGTOP
 10
0.0
 20
0.0
 30
0.0
  9
$UCSORGBOTTOM
 10
0.0
 20
0.0
 30
0.0
  9
$UCSORGLEFT
 10
0.0
 20
0.0
 30
0.0
  9
$UCSORGRIGHT
 10
0.0
 20
0.0
 30
0.0
  9
$UCSORGFRONT
 10
0.0
 20
0.0
 30
0.0
  9
$UCSORGBACK
 10
0.0
 20
0.0
 30
0.0
  9
$PUCSBASE
  2

  9
$PUCSNAME
  2

  9
$PUCSORG
 10
0.0
 20
0.0
 30
0.0
  9
$PUCSXDIR
 10
1.0
 20
0.0
 30
0.0
  9
$PUCSYDIR
 10
0.0
 20
1.0
 30
0.0
  9
$PUCSORTHOREF
  2

  9
$PUCSORTHOVIEW
 70
0
  9
$PUCSORGTOP
 10
0.0
 20
0.0
 30
0.0
  9
$PUCSORGBOTTOM
 10
0.0
 20
0.0
 30
0.0
  9
$PUCSORGLEFT
 10
0.0
 20
0.0
 30
0.0
  9
$PUCSORGRIGHT
 10
0.0
 20
0.0
 30
0.0
  9
$PUCSORGFRONT
 10
0.0
 20
0.0
 30
0.0
  9
$PUCSORGBACK
 10
0.0
 20
0.0
 30
0.0
  9
$USERI1
 70
0
  9
$USERI2
 70
0
  9
$USERI3
 70
0
  9
$USERI4
 70
0
  9
$USERI5
 70
0
  9
$USERR1
 40
0.0
  9
$USERR2
 40
0.0
  9
$USERR3
 40
0.0
  9
$USERR4
 40
0.0
  9
$USERR5
 40
0.0
  9
$WORLDVIEW
 70
1
  9
$SHADEDGE
 70
3
  9
$SHADEDIF
 70
70
  9
$TILEMODE
 70
1
  9
$MAXACTVP
 70
64
  9
$PINSBASE
 10
0.0
 20
0.0
 30
0.0
  9
$PLIMCHECK
 70
0
  9
$PEXTMIN
 10
1e+20
 20
1e+20
 30
1e+20
  9
$PEXTMAX
 10
-1e+20
 20
-1e+20
 30
-1e+20
  9
$PLIMMIN
 10
0.0
 20
0.0
  9
$PLIMMAX
 10
420.0
 20
297.0
  9
$UNITMODE
 70
0
  9
$VISRETAIN
 70
1
  9
$PLINEGEN
 70
0
  9
$PSLTSCALE
 70
1
  9
$TREEDEPTH
 70
3020
  9
$CMLSTYLE
  2
Standard
  9
$CMLJUST
 70
0
  9
$CMLSCALE
 40
20.0
  9
$PROXYGRAPHICS
 70
1
  9
$MEASUREMENT
 70
1
  9
$CELWEIGHT
370
-1
  9
$ENDCAPS
280
0
  9
$JOINSTYLE
280
0
  9
$LWDISPLAY
290
0
  9
$INSUNITS
 70
6
  9
$HYPERLINKBASE
  1

  9
$STYLESHEET
  1

  9
$XEDIT
290
1
  9
$CEPSNTYPE
380
0
  9
$PSTYLEMODE
290
1
  9
$FINGERPRINTGUID
  2
{7583B7FE-58A6-46E0-914A-8B3BCB40902D}
  9
$VERSIONGUID
  2
{B87452BC-B496-41BE-BAB1-6070EE857776}
  9
$EXTNAMES
290
1
  9
$PSVPSCALE
 40
0.0
  9
$OLESTARTUP
290
0
  9
$SORTENTS
280
127
  9
$INDEXCTL
280
0
  9
$HIDETEXT
280
1
  9
$XCLIPFRAME
280
1
  9
$HALOGAP
280
0
  9
$OBSCOLOR
 70
257
  9
$OBSLTYPE
280
0
  9
$INTERSECTIONDISPLAY
280
0
  9
$INTERSECTIONCOLOR
 70
257
  9
$DIMASSOC
280
2
  9
$PROJECTNAME
  1

  9
$CAMERADISPLAY
290
0
  9
$LENSLENGTH
 40
50.0
  9
$CAMERAHEIGHT
 40
0.0
  9
$STEPSPERSEC
 40
24.0
  9
$STEPSIZE
 40
100.0
  9
$3DDWFPREC
 40
2.0
  9
$PSOLWIDTH
 40
0.005
  9
$PSOLHEIGHT
 40
0.08
  9
$LOFTANG1
 40
1.570796326795
  9
$LOFTANG2
 40
1.570796326795
  9
$LOFTMAG1
 40
0.0
  9
$LOFTMAG2
 40
0.0
  9
$LOFTPARAM
 70
7
  9
$LOFTNORMALS
280
1
  9
$LATITUDE
 40
37.795
  9
$LONGITUDE
 40
-122.394
  9
$NORTHDIRECTION
 40
0.0
  9
$TIMEZONE
 70
-8000
  9
$LIGHTGLYPHDISPLAY
280
1
  9
$TILEMODELIGHTSYNCH
280
1
  9
$CMATERIAL
347
20
  9
$SOLIDHIST
280
0
  9
$SHOWHIST
280
1
  9
$DWFFRAME
280
2
  9
$DGNFRAME
280
2
  9
$REALWORLDSCALE
290
1
  9
$INTERFERECOLOR
 62
256
  9
$CSHADOW
280
0
  9
$SHADOWPLANELOCATION
 40
0.0
  0
ENDSEC
  0
SECTION
  2
CLASSES
  0
CLASS
  1
ACDBDICTIONARYWDFLT
  2
AcDbDictionaryWithDefault
  3
ObjectDBX Classes
 90
0
 91
0
280
0
281
0
  0
CLASS
  1
SUN
  2
AcDbSun
  3
SCENEOE
 90
1153
 91
0
280
0
281
0
  0
CLASS
  1
VISUALSTYLE
  2
AcDbVisualStyle
  3
ObjectDBX Classes
 90
4095
 91
0
280
0
281
0
  0
CLASS
  1
MATERIAL
  2
AcDbMaterial
  3
ObjectDBX Classes
 90
1153
 91
0
280
0
281
0
  0
CLASS
  1
SCALE
  2
AcDbScale
  3
ObjectDBX Classes
 90
1153
 91
0
280
0
281
0
  0
CLASS
  1
TABLESTYLE
  2
AcDbTableStyle
  3
ObjectDBX Classes
 90
4095
 91
0
280
0
281
0
  0
CLASS
  1
MLEADERSTYLE
  2
AcDbMLeaderStyle
  3
ACDB_MLEADERSTYLE_CLASS
 90
4095
 91
0
280
0
281
0
  0
CLASS
  1
DICTIONARYVAR
  2
AcDbDictionaryVar
  3
ObjectDBX Classes
 90
0
 91
0
280
0
281
0
  0
CLASS
  1
CELLSTYLEMAP
  2
AcDbCellStyleMap
  3
ObjectDBX Classes
 90
1152
 91
0
280
0
281
0
  0
CLASS
  1
MENTALRAYRENDERSETTINGS
  2
AcDbMentalRayRenderSettings
  3
SCENEOE
 90
1024
 91
0
280
0
281
0
  0
CLASS
  1
ACDBDETAILVIEWSTYLE
  2
AcDbDetailViewStyle
  3
ObjectDBX Classes
 90
1025
 91
0
280
0
281
0
  0
CLASS
  1
ACDBSECTIONVIEWSTYLE
  2
AcDbSectionViewStyle
  3
ObjectDBX Classes
 90
1025
 91
0
280
0
281
0
  0
CLASS
  1
RASTERVARIABLES
  2
AcDbRasterVariables
  3
ISM
 90
0
 91
0
280
0
281
0
  0
CLASS
  1
LAYOUT
  2
AcDbLayout
  3
ObjectDBX Classes
 90
0
 91
0
280
0
281
0
  0
CLASS
  1
ACDBPLACEHOLDER
  2
AcDbPlaceHolder
  3
ObjectDBX Classes
 90
0
 91
0
280
0
281
0
  0
ENDSEC
  0
SECTION
  2
TABLES
  0
TABLE
  2
VPORT
  5
8
330
0
100
AcDbSymbolTable
 70
1
  0
VPORT
  5
23
330
8
100
AcDbSymbolTableRecord
100
AcDbViewportTableRecord
  2
*Active
 70
0
 10
0.0
 20
0.0
 11
1.0
 21
1.0
 12
0.0
 22
0.0
 13
0.0
 23
0.0
 14
0.5
 24
0.5
 15
0.5
 25
0.5
 16
0.0
 26
0.0
 36
1.0
 17
0.0
 27
0.0
 37
0.0
 40
1000.0
 41
1.34
 42
50.0
 43
0.0
 44
0.0
 50
0.0
 51
0.0
 71
0
 72
1000
 73
1
 74
3
 75
0
 76
0
 77
0
 78
0
281
0
 65
0
146
0.0
  0
ENDTAB
  0
TABLE
  2
LTYPE
  5
2
330
0
100
AcDbSymbolTable
 70
3
  0
LTYPE
  5
24
330
2
100
AcDbSymbolTableRecord
100
AcDbLinetypeTableRecord
  2
ByBlock
 70
0
  3

 72
65
 73
0
 40
0.0
  0
LTYPE
  5
25
330
2
100
AcDbSymbolTableRecord
100
AcDbLinetypeTableRecord
  2
ByLayer
 70
0
  3

 72
65
 73
0
 40
0.0
  0
LTYPE
  5
26
330
2
100
AcDbSymbolTableRecord
100
AcDbLinetypeTableRecord
  2
Continuous
 70
0
  3

 72
65
 73
0
 40
0.0
  0
ENDTAB
  0
TABLE
  2
LAYER
  5
1
330
0
100
AcDbSymbolTable
 70
2
  0
LAYER
  5
27
330
1
100
AcDbSymbolTableRecord
100
AcDbLayerTableRecord
  2
0
 70
0
 62
7
  6
Continuous
370
-3
390
13
347
21
  0
LAYER
  5
28
330
1
100
AcDbSymbolTableRecord
100
AcDbLayerTableRecord
  2
Defpoints
 70
0
 62
7
  6
Continuous
290
0
370
-3
390
13
347
21
  0
ENDTAB
  0
TABLE
  2
STYLE
  5
5
330
0
100
AcDbSymbolTable
 70
1
  0
STYLE
  5
29
330
5
100
AcDbSymbolTableRecord
100
AcDbTextStyleTableRecord
  2
Standard
 70
0
 40
0.0
 41
1.0
 50
0.0
 71
0
 42
2.5
  3
txt
  4

  0
ENDTAB
  0
TABLE
  2
VIEW
  5
7
330
0
100
AcDbSymbolTable
 70
0
  0
ENDTAB
  0
TABLE
  2
UCS
  5
6
330
0
100
AcDbSymbolTable
 70
0
  0
ENDTAB
  0
TABLE
  2
APPID
  5
3
330
0
100
AcDbSymbolTable
 70
3
  0
APPID
  5
2A
330
3
100
AcDbSymbolTableRecord
100
AcDbRegAppTableRecord
  2
ACAD
 70
0
  0
APPID
  5
30
330
3
100
AcDbSymbolTableRecord
100
AcDbRegAppTableRecord
  2
HATCHBACKGROUNDCOLOR
 70
0
  0
APPID
  5
31
330
3
100
AcDbSymbolTableRecord
100
AcDbRegAppTableRecord
  2
EZDXF
 70
0
  0
ENDTAB
  0
TABLE
  2
DIMSTYLE
  5
4
330
0
100
AcDbSymbolTable
 70
1
100
AcDbDimStyleTable
  0
DIMSTYLE
105
2B
330
4
100
AcDbSymbolTableRecord
100
AcDbDimStyleTableRecord
  2
Standard
 70
0
 40
1.0
 41
2.5
 42
0.625
 43
3.75
 44
1.25
 45
0.0
 46
0.0
 47
0.0
 48
0.0
 49
2.5
140
2.5
141
2.5
142
0.0
143
0.03937007874
144
1.0
145
0.0
146
1.0
147
0.625
148
0.0
 69
0
 70
0
 71
0
 72
0
 73
0
 74
0
 75
0
 76
0
 77
1
 78
8
 79
3
170
0
171
3
172
1
173
0
174
0
175
0
176
0
177
0
178
0
179
2
271
2
272
2
273
2
274
3
275
0
276
0
277
2
278
44
279
0
280
0
281
0
282
0
283
0
284
8
285
0
286
0
288
0
289
3
290
0
371
-2
372
-2
  0
ENDTAB
  0
TABLE
  2
BLOCK_RECORD
  5
9
330
0
100
AcDbSymbolTable
 70
2
  0
BLOCK_RECORD
  5
17
330
9
100
AcDbSymbolTableRecord
100
AcDbBlockTableRecord
  2
*Model_Space
340
1A
 70
0
280
1
281
0
  0
BLOCK_RECORD
  5
1B
330
9
100
AcDbSymbolTableRecord
100
AcDbBlockTableRecord
  2
*Paper_Space
340
1E
 70
0
280
1
281
0
  0
ENDTAB
  0
ENDSEC
  0
SECTION
  2
BLOCKS
  0
BLOCK
  5
18
330
17
100
AcDbEntity
  8
0
100
AcDbBlockBegin
  2
*Model_Space
 70
0
 10
0.0
 20
0.0
 30
0.0
  3
*Model_Space
  1

  0
ENDBLK
  5
19
330
17
100
AcDbEntity
  8
0
100
AcDbBlockEnd
  0
BLOCK
  5
1C
330
1B
100
AcDbEntity
  8
0
100
AcDbBlockBegin
  2
*Paper_Space
 70
0
 10
0.0
 20
0.0
 30
0.0
  3
*Paper_Space
  1

  0
ENDBLK
  5
1D
330
1B
100
AcDbEntity
  8
0
100
AcDbBlockEnd
  0
ENDSEC
  0
SECTION
  2
ENTITIES
  0
LWPOLYLINE
  5
2F
330
17
100
AcDbEntity
  8
0
100
AcDbPolyline
 90
721
 70
1
 10
76.51452500837739
 20
49.26264468881907
 10
76.51185198460269
 20
49.262034662589144
 10
76.50397939710271
 20
49.25997549616865
 10
76.49119970134478
 20
49.25600981510223
 10
76.47325308159986
 20
49.25029182193568
 10
76.45058622008884
 20
49.242627197725014
 10
76.42301239665731
 20
49.23305583000956
 10
76.39049093596272
 20
49.22138920517453
 10
76.35324930667069
 20
49.207775834865934
 10
76.3112468334387
 20
49.19202720546903
 10
76.26422348103152
 20
49.1742978628179
 10
76.21255305560156
 20
49.15450745968673
 10
76.15612163989412
 20
49.132582026326105
 10
76.09485606516586
 20
49.108635992171955
 10
76.02890266890347
 20
49.08244049835241
 10
75.95811496728278
 20
49.05422463259823
 10
75.88267989996436
 20
49.023948164081744
 10
75.80248354969348
 20
48.99153712305354
 10
75.7174527477268
 20
48.95710593894956
 10
75.62784745613075
 20
48.920500180365096
 10
75.53340749333267
 20
48.88187462199316
 10
75.43427912365058
 20
48.84100051939135
 10
75.33054340509463
 20
48.798255357506925
 10
75.22193219365656
 20
48.75330211107913
 10
75.1087865825818
 20
48.70636371922113
 10
74.99087903003591
 20
48.657291784716335
 10
74.86832308742989
 20
48.606160849461354
 10
74.74111868159497
 20
48.552971027885626
 10
74.60919257061907
 20
48.4978368638545
 10
74.47254453499592
 20
48.44075870065627
 10
74.33132083904357
 20
48.38150779384858
 10
74.1853750721065
 20
48.32031311673265
 10
74.03489388117035
 20
48.25713489619862
 10
73.87969032657449
 20
48.19201336307411
 10
73.71991045313074
 20
48.12472011620505
 10
73.55552169426954
 20
48.05555821307154
 10
73.38645066174129
 20
47.98464242639782
 10
73.21291671543865
 20
47.911629696735005
 10
73.03465952745144
 20
47.83667502763497
 10
72.85197973518868
 20
47.75981250130777
 10
72.66457640856632
 20
47.68100849326107
 10
72.47267694308138
 20
47.60041162957033
 10
72.27616734831035
 20
47.51794805491557
 10
72.075161248833
 20
47.433692196763936
 10
71.86961782296923
 20
47.34745577035955
 10
71.6596506952988
 20
47.259313203169555
 10
71.44499953791146
 20
47.16941949874579
 10
71.22596491504761
 20
47.07780885372783
 10
71.0024328362838
 20
46.98440741279569
 10
70.77440315528249
 20
46.8892154048082
 10
70.54187550619994
 20
46.79223340191257
 10
70.3048904912101
 20
46.693650032153016
 10
70.06340714229536
 20
46.5932772396325
 10
69.81746598846078
 20
46.491303766824636
 10
69.56713983260609
 20
46.38761575644073
 10
69.31257493904923
 20
46.28198446403838
 10
69.05373844854574
 20
46.174713404815435
 10
68.79037010635416
 20
46.065957467894314
 10
68.52246954663079
 20
45.955717225422205
 10
68.25036997335421
 20
45.84372370212909
 10
67.97399792510606
 20
45.730091785168604
 10
67.69335325554887
 20
45.61482170339964
 10
67.40821609260881
 20
45.49825731727713
 10
67.11895206049654
 20
45.3798268229098
 10
66.82552844630496
 20
45.25983350663661
 10
66.52787186178456
 20
45.13839214118184
 10
66.22579507459976
 20
45.015543415090825
 10
65.9195985758221
 20
44.89132163943254
 10
65.60924147060283
 20
44.76553864388054
 10
65.29472361260439
 20
44.638194657293674
 10
64.97601214258233
 20
44.509593194869844
 10
64.65339944283514
 20
44.37927699658307
 10
64.32662525862138
 20
44.24740095155582
 10
63.99584367035714
 20
44.11422834415831
 10
63.661054458536235
 20
43.97975951767886
 10
63.32228997022191
 20
43.84369175792565
 10
62.97947667082708
 20
43.70614006648178
 10
62.63284195584871
 20
43.56725306942269
 10
62.28212542420787
 20
43.42718588472967
 10
61.92754636262846
 20
43.2855955673833
 10
61.56921832252144
 20
43.142556659280146
 10
61.20714108438059
 20
42.99806950370854
 10
60.841167944875465
 20
42.85236353168749
 10
60.471298684499835
 20
42.7054390865053
 10
60.09760625249083
 20
42.557182082014364
 10
59.720391213088796
 20
42.40762671485424
 10
59.33935241670342
 20
42.25673970382082
 10
58.95460348791449
 20
42.10459547638133
 10
58.56647755753182
 20
41.950925171695154
 10
58.17478724688235
 20
41.79576970716651
 10
57.779426674315744
 20
41.63954679857036
 10
57.380509464411716
 20
41.48233087337385
 10
56.97795390064137
 20
41.3237454764946
 10
56.57220703106924
 20
41.163595716841456
 10
56.1629758880469
 20
41.00233976987584
 10
55.75033342081145
 20
40.83986354945011
 10
55.33420616794461
 20
40.67628194271795
 10
54.91485401834405
 20
40.51144063270412
 10
54.49227682567234
 20
40.345339848267514
 10
54.066360379999765
 20
40.17790607737642
 10
53.63725898124864
 20
40.00940226111278
 10
53.20485856582683
 20
39.83975465858608
 10
52.76941909580077
 20
39.66880883839162
 10
52.330940278495476
 20
39.49656525824714
 10
51.88953581165945
 20
39.323098231190365
 10
51.44501831661965
 20
39.14844867462557
 10
50.99735515363779
 20
38.97291976046229
 10
50.54665154584557
 20
38.79609480279054
 10
50.093176003095
 20
38.61831025472392
 10
49.636993073175205
 20
38.438960916737706
 10
49.17802922149903
 20
38.25816179041494
 10
48.71629263000834
 20
38.07640433242112
 10
48.25170983728481
 20
37.893803429909894
 10
47.78427229554286
 20
37.70986819836299
 10
47.31458186495061
 20
37.52466588676511
 10
46.842369669812335
 20
37.33786061414984
 10
46.36764374573232
 20
37.14994406604149
 10
45.89021678720633
 20
36.96095704541487
 10
45.410389651149615
 20
36.77093329119181
 10
44.928267707031374
 20
36.57945588860341
 10
44.443818315113326
 20
36.38682800955924
 10
43.95689484523378
 20
36.19327897064888
 10
43.467862994772084
 20
35.99823685355162
 10
42.976795712965384
 20
35.80158757211984
 10
42.48355484426878
 20
35.604051441890846
 10
41.987985430241224
 20
35.40536655164763
 10
41.4902419903113
 20
35.20579549918381
 10
40.99076339060173
 20
35.00465193674277
 10
40.48947624286292
 20
34.80205063704871
 10
39.98623406327064
 20
34.59822068783235
 10
39.48081697975107
 20
34.393505949548626
 10
38.9737456481246
 20
34.187596415093836
 10
38.46508439667407
 20
33.979887228231526
 10
37.954955690439746
 20
33.770943243229375
 10
37.442765339014166
 20
33.56118946877421
 10
36.92892000779425
 20
33.350242042442346
 10
36.413712005909744
 20
33.13764381863727
 10
35.8972230498896
 20
32.92377125244137
 10
35.379151624299794
 20
32.70859163479776
 10
34.85965246807515
 20
32.492367220211776
 10
34.33868454002931
 20
32.274910067215814
 10
33.81650809490376
 20
32.05606528668747
 10
33.29323704995321
 20
31.835906848376144
 10
32.76875712207922
 20
31.614361354679613
 10
32.243296365297454
 20
31.391576401808404
 10
31.716626432917277
 20
31.16740485126973
 10
31.188828895130136
 20
30.942223387004844
 10
30.65997699384812
 20
30.71591746514836
 10
30.130436280113102
 20
30.48791539623846
 10
29.60006027010089
 20
30.258446268005844
 10
29.069003922252485
 20
30.027771991667528
 10
28.536965721133893
 20
29.795859858166637
 10
28.004320058247515
 20
29.56262860484187
 10
27.471140029167973
 20
29.327963916686745
 10
26.937498729469894
 20
29.091751478694782
 10
26.403249528991555
 20
28.854220607455556
 10
25.868433468919314
 20
28.615559244436675
 10
25.333050329746886
 20
28.375767732926423
 10
24.797433681296617
 20
28.13457652550762
 10
24.261542482382186
 20
27.891797680712656
 10
23.725563892170406
 20
27.647390624425608
 10
23.189392541192117
 20
27.40177227141533
 10
22.65269464011877
 20
27.155212512387344
 10
22.115844799959017
 20
26.907629741392032
 10
21.579314160730114
 20
26.65803501091039
 10
21.0426634904656
 20
26.407115240846213
 10
20.50604811345025
 20
26.155131770269353
 10
19.969499937734884
 20
25.901782571564606
 10
19.433092205231574
 20
25.646953100866597
 10
18.89683361006341
 20
25.391134013834765
 10
18.360683257381517
 20
25.134137140142624
 10
17.82497464383949
 20
24.87569304680242
 10
17.289593559507622
 20
24.61572822178247
 10
16.754695328670685
 20
24.354504004152613
 10
16.2202066362478
 20
24.092135052207635
 10
15.686347061637834
 20
23.828277963210354
 10
15.153043289759909
 20
23.563047395455545
 10
14.620336434969122
 20
23.296631175981386
 10
14.08789278110565
 20
23.029299081063936
 10
13.55637976048908
 20
22.760511558151048
 10
13.025797373119435
 20
22.490268607242726
 10
12.496072523422075
 20
22.21868454334545
 10
11.967131896316136
 20
21.945874024754005
 10
11.439163089980937
 20
21.671795790775857
 10
10.911978652574627
 20
21.39649087324466
 10
10.385880245868744
 20
21.11999175235843
 10
9.861014280518738
 20
20.842069454815892
 10
9.337307587781265
 20
20.562838410052972
 10
8.814687072081663
 20
20.28241293307613
 10
8.293225902163341
 20
20.00067859444947
 10
7.773299128047354
 20
19.717553101646764
 10
7.25464605597981
 20
19.43319203036703
 10
6.737234777909882
 20
19.147897408225486
 10
6.22131685445598
 20
18.86102369044029
 10
5.706974587496971
 20
18.572946416658326
 10
5.193988690308984
 20
18.28400853189905
 10
4.68246423968621
 20
17.993793579111333
 10
4.172776431987217
 20
17.702219036910076
 10
3.6647790028940133
 20
17.40951364973768
 10
3.158503933626156
 20
17.115375275549507
 10
2.654033745568752
 20
16.820179110704128
 10
2.151400493110105
 20
16.523622898727464
 10
1.650759793209937
 20
16.225967520971615
 10
1.1516635734412755
 20
15.927409470539843
 10
0.654487030162699
 20
15.627866226047058
 10
0.15952283834768646
 20
15.326880069749588
 10
-0.3333019512409128
 20
15.024565087795038
 10
-0.8240924885660253
 20
14.721337851663968
 10
-1.312775312209297
 20
14.417083474202727
 10
-1.7992771802586365
 20
14.111687411545942
 10
-2.2834835901093657
 20
13.805222718007565
 10
-2.765655235515403
 20
13.497844969286616
 10
-3.2458237318526026
 20
13.189855735280558
 10
-3.7235819747115584
 20
12.880870466989087
 10
-4.198783480268044
 20
12.570660076681508
 10
-4.671574366502587
 20
12.259453079941329
 10
-5.141906641198231
 20
11.947426547439745
 10
-5.609882880454477
 20
11.634488772864765
 10
-6.0754616040725375
 20
11.320827011107374
 10
-6.538601551359872
 20
11.006628860346849
 10
-6.999124476778915
 20
10.691363434096157
 10
-7.456915950893757
 20
10.375103901098663
 10
-7.9122273879853235
 20
10.058495577277323
 10
-8.365026880002786
 20
9.741236435016942
 10
-8.815012399330946
 20
9.423358382368336
 10
-9.262412804841642
 20
9.104715081844759
 10
-9.706999237663034
 20
8.785452870932962
 10
-10.148803605845949
 20
8.465873777248138
 10
-10.588127937005583
 20
8.145945892739475
 10
-11.024491957989175
 20
7.825170238970749
 10
-11.458105822385109
 20
7.504379730044204
 10
-11.889230297116033
 20
7.1837300560883115
 10
-12.31754079915766
 20
6.862461471744188
 10
-12.742694040202235
 20
6.5407934832419485
 10
-13.165023955915776
 20
6.218996210145973
 10
-13.58460371504166
 20
5.89718408189218
 10
-14.001286980093134
 20
5.5751282396087385
 10
-14.414918060941748
 20
5.2530894502182965
 10
-14.825725816459334
 20
4.93092137623412
 10
-15.233700894004164
 20
4.609113643450699
 10
-15.638696956089493
 20
4.287437392996199
 10
-16.04064083397196
 20
3.9657781954347064
 10
-16.439605696394928
 20
3.6442504802021323
 10
-16.835623451409223
 20
3.3231562749136825
 10
-17.22880852845076
 20
3.0024224108259885
 10
-17.61878573116097
 20
2.681966366553955
 10
-18.005555059539844
 20
2.361788142097582
 10
-18.389157774279933
 20
2.0417001392775798
 10
-18.769552614688696
 20
1.7218899562732386
 10
-19.146959086996233
 20
1.4027008813923059
 10
-19.521335930509995
 20
1.0843205128140798
 10
-19.892390470256515
 20
0.7662911327948759
 10
-20.260237135671698
 20
0.4485395725913344
 10
-20.62445946970443
 20
0.13117090899763967
 10
-20.98550583745665
 20
-0.18561790716518795
 10
-21.34344940767173
 20
-0.5017124464612374
 10
-21.698061321477827
 20
-0.8169663714037608
 10
-22.04926841013159
 20
-1.131494111428688
 10
-22.396965596838804
 20
-1.445712123587133
 10
-22.74133112713705
 20
-1.7590895213920572
 10
-23.08258450725643
 20
-2.071283016535711
 10
-23.420245464044175
 20
-2.3827915874543106
 10
-23.7544284269362
 20
-2.6936884028912225
 10
-24.085050874547413
 20
-3.0035982664878786
 10
-24.412227236313736
 20
-3.3125943469876438
 10
-24.736030680978537
 20
-3.620562214954605
 10
-25.05612727287578
 20
-3.9277719899531403
 10
-25.37266334949222
 20
-4.233994813111421
 10
-25.68563891082784
 20
-4.539230684429438
 10
-25.99534663185613
 20
-4.84302188616353
 10
-26.30148448496188
 20
-5.145336510262873
 10
-26.604061822786814
 20
-5.446664182521955
 10
-26.902817878408282
 20
-5.747160593069246
 10
-27.197930897363847
 20
-6.046294855417705
 10
-27.489661646576153
 20
-6.343911279438867
 10
-27.777603021635812
 20
-6.640394414133028
 10
-28.061786930593648
 20
-6.935442231884993
 10
-28.342515401064865
 20
-7.229086640745576
 10
-28.619559574177618
 20
-7.521181303228039
 10
-28.892699943701807
 20
-7.812069507640138
 10
-29.162156015867545
 20
-8.101407965674117
 10
-29.42800095941819
 20
-8.38908224789406
 10
-29.69016160561038
 20
-8.675206783735883
 10
-29.94852352500819
 20
-8.95970840445622
 10
-30.203013548868263
 20
-9.242701539490984
 10
-30.453819275369884
 20
-9.524144928147631
 10
-30.700711845641198
 20
-9.803892232939422
 10
-30.943837597168965
 20
-10.081714594994517
 10
-31.18327905133828
 20
-10.357987210671496
 10
-31.418692919841376
 20
-10.632490573740245
 10
-31.65012046337082
 20
-10.905412282380059
 10
-31.87785435690007
 20
-11.176294618847262
 10
-32.101894600429134
 20
-11.44513758314185
 10
-32.32198042703537
 20
-11.7120968653923
 10
-32.538038667975385
 20
-11.977286895034522
 10
-32.75011058394175
 20
-12.240895270247806
 10
-32.95833315977945
 20
-12.50220350636582
 10
-33.16274765618106
 20
-12.761399201567857
 10
-33.36320773565982
 20
-13.018711214725752
 10
-33.55959896877983
 20
-13.274066377096132
 10
-33.75206769302781
 20
-13.52723582980716
 10
-33.940467570917036
 20
-13.778448431730677
 10
-34.124871771190875
 20
-14.027589753430764
 10
-34.3053534625927
 20
-14.274545365471504
 10
-34.481651878199834
 20
-14.519470957981357
 10
-34.65398652424241
 20
-14.762023242652582
 10
-34.82217915518286
 20
-15.002733105972204
 10
-34.98640801655873
 20
-15.24106966145319
 10
-35.146599939626675
 20
-15.477147338531466
 10
-35.302681755643306
 20
-15.711080566642936
 10
-35.45453903517272
 20
-15.942796177044242
 10
-35.60235937639418
 20
-16.172252909042825
 10
-35.74624785610191
 20
-16.39903430558757
 10
-35.886058136809154
 20
-16.62336922555031
 10
-36.0217902185159
 20
-16.845257668931044
 10
-36.15363169940145
 20
-17.06465837503723
 10
-36.281280551850614
 20
-17.281539435818036
 10
-36.40499754278601
 20
-17.49574516114501
 10
-36.524814580258486
 20
-17.706973523402933
 10
-36.64084609370395
 20
-17.915297691335184
 10
-36.75283131619975
 20
-18.12087335507023
 10
-36.86095784592517
 20
-18.32365925391551
 10
-36.96499682400838
 20
-18.5235090503843
 10
-37.06532344680795
 20
-18.72034022309149
 10
-37.16178202419541
 20
-18.913892005114437
 10
-37.25434064811994
 20
-19.10446642406834
 10
-37.34299931858156
 20
-19.292063479953203
 10
-37.42775803558024
 20
-19.476683172769018
 10
-37.50864870716682
 20
-19.658023474900585
 10
-37.58567133334129
 20
-19.836084386347903
 10
-37.65872083730947
 20
-20.011282364162092
 10
-37.72790229586553
 20
-20.183200951292033
 10
-37.792923034036015
 20
-20.3522978654814
 10
-37.8540757267944
 20
-20.518115388986512
 10
-37.91106769916719
 20
-20.681111239551047
 10
-37.964045288641145
 20
-20.841056558303173
 10
-38.013008495216255
 20
-20.997951345242885
 10
-38.057769720713225
 20
-21.15183686106273
 10
-38.09870416149065
 20
-21.30263058437761
 10
-38.13524902301065
 20
-21.450456297265177
 10
-38.167893931067724
 20
-21.595304647083697
 10
-38.19633685804667
 20
-21.73714372578236
 10
-38.220797310177595
 20
-21.875630245053397
 10
-38.24124337940966
 20
-22.01106623251202
 10
-38.25763380505034
 20
-22.14326408997895
 10
-38.27026126207311
 20
-22.271766099710504
 10
-38.279020673683775
 20
-22.396988718757814
 10
-38.283943947933146
 20
-22.518629919505663
 10
-38.285177422307974
 20
-22.636460843082233
 10
-38.28301377178173
 20
-22.75002377174384
 10
-38.27745299635443
 20
-22.859318705490487
 10
-38.2687558629487
 20
-22.96418995419371
 10
-38.25705935640956
 20
-23.063919033187183
 10
-38.242770581146424
 20
-23.158121393470598
 10
-38.2267356540289
 20
-23.245725909428156
 10
-38.209237897388704
 20
-23.325785237521696
 10
-38.19156244055569
 20
-23.3965416755199
 10
-38.17499441285968
 20
-23.456237521191454
 10
-38.1610610052697
 20
-23.501980130587604
 10
-38.15170586580589
 20
-23.530981936553772
 10
-37.686258586215736
 20
-24.26369066762731
 10
-37.68035282102147
 20
-24.268136362735095
 10
-37.66270869418206
 20
-24.28135901862253
 10
-37.633618880670944
 20
-24.30290091754594
 10
-37.59172508241496
 20
-24.334634191172565
 10
-37.53571961467519
 20
-24.379108195143402
 10
-37.4692928226709
 20
-24.430299430047377
 10
-37.39459850801062
 20
-24.484587414627672
 10
-37.312816723229986
 20
-24.540630903704095
 10
-37.22536958250385
 20
-24.595953710379
 10
-37.1328011750866
 20
-24.649452800985767
 10
-37.035706203566924
 20
-24.70070236583154
 10
-36.93426291348237
 20
-24.749171518429286
 10
-36.828763979806425
 20
-24.794402541035332
 10
-36.719355740025826
 20
-24.836166574777838
 10
-36.606038194140574
 20
-24.874463619656815
 10
-36.48899894032995
 20
-24.909252414979708
 10
-36.36826988664478
 20
-24.94023093313131
 10
-36.2437778643417
 20
-24.96751360354754
 10
-36.11571047159999
 20
-24.99105916553586
 10
-35.983806941496994
 20
-25.01102330922471
 10
-35.84814044277607
 20
-25.027291605178203
 10
-35.709086171795825
 20
-25.039781532011222
 10
-35.566081334018364
 20
-25.048616871801425
 10
-35.419542386494825
 20
-25.053902701342995
 10
-35.26916730161
 20
-25.055607112585104
 10
-35.11514367754317
 20
-25.053688844835218
 10
-34.957544683037725
 20
-25.04803346865741
 10
-34.79615081186354
 20
-25.03898427235944
 10
-34.63110840150735
 20
-25.026312397069464
 10
-34.46212477699569
 20
-25.010475560531155
 10
-34.28941944455865
 20
-24.99113047443677
 10
-34.11296049614543
 20
-24.968579166401497
 10
-33.932633502320115
 20
-24.94274846768198
 10
-33.748292125595945
 20
-24.91386723715005
 10
-33.56012396415221
 20
-24.881894214113156
 10
-33.368055849245565
 20
-24.84694382800722
 10
-33.172087780875984
 20
-24.809016078832236
 10
-32.97188582337745
 20
-24.768381086152598
 10
-32.76775200436517
 20
-24.725070758019115
 10
-32.55953063371068
 20
-24.67882432750914
 10
-32.34745057028581
 20
-24.629788132109404
 10
-32.1312510471679
 20
-24.578117861948375
 10
-31.91104649379288
 20
-24.52388668576943
 10
-31.6867956494682
 20
-24.466907005393267
 10
-31.458759281116492
 20
-24.407023130691435
 10
-31.226749790558504
 20
-24.344276322356478
 10
-30.990922867922674
 20
-24.27892734731105
 10
-30.751164083773105
 20
-24.210903036811782
 10
-30.507473438109788
 20
-24.14020339085867
 10
-30.260070437162835
 20
-24.066485121143973
 10
-30.00906951036815
 20
-23.989821396411045
 10
-29.75435622828983
 20
-23.91013904791653
 10
-29.495898682877048
 20
-23.82774010327562
 10
-29.23369687412981
 20
-23.74262456248833
 10
-28.968043477021585
 20
-23.65433470781098
 10
-28.698906583501554
 20
-23.563172566858768
 10
-28.42624493287717
 20
-23.468950541452422
 10
-28.149985356405065
 20
-23.37178306102785
 10
-27.87024228352115
 20
-23.271743294328424
 10
-27.587088882968803
 20
-23.16871681191823
 10
-27.300451986004656
 20
-23.06281804323318
 10
-27.010331592628702
 20
-22.95404698827327
 10
-26.71680087158431
 20
-22.842289217602595
 10
-26.41990108356403
 20
-22.727732329400432
 10
-26.119632228567866
 20
-22.610376323666785
 10
-25.815953045903264
 20
-22.490033602222365
 10
-25.508946056955327
 20
-22.367079361425745
 10
-25.1985700010315
 20
-22.241326003097644
 10
-24.884751709388418
 20
-22.112887956673973
 10
-24.567678780205366
 20
-21.98172396146219
 10
-24.24757071971245
 20
-21.847490729154533
 10
-23.92420802167957
 20
-21.710531548058768
 10
-23.597329919184055
 20
-21.571002108303343
 10
-23.267352869277044
 20
-21.429007486682465
 10
-22.934194350573435
 20
-21.284172486837555
 10
-22.59792753181659
 20
-21.136382679332687
 10
-22.25863493439161
 20
-20.986013260526445
 10
-21.916128960119213
 20
-20.833105491111375
 10
-21.570555946486135
 20
-20.677430512215636
 10
-21.222030322928283
 20
-20.51906149258261
 10
-20.870625258189044
 20
-20.357884002776366
 10
-20.516121246038296
 20
-20.194241331104664
 10
-20.15866462396279
 20
-20.02790461869567
 10
-19.79810905447577
 20
-19.85910272442121
 10
-19.434902902679195
 20
-19.687638697460276
 10
-19.068744140957854
 20
-19.51348062976205
 10
-18.69974719874767
 20
-19.3367016900699
 10
-18.32795333674118
 20
-19.157489476563107
 10
-17.953394462989216
 20
-18.975541961626476
 10
-17.576038669440955
 20
-18.7911611728752
 10
-17.19607355427568
 20
-18.60430584961674
 10
-16.813416596108297
 20
-18.414600795492518
 10
-16.428296653810637
 20
-18.222192347989274
 10
-16.040494221152596
 20
-18.027423795414755
 10
-15.65000929813418
 20
-17.830295137768974
 10
-15.25684188475537
 20
-17.630806375051918
 10
-14.861325916682212
 20
-17.428687387699213
 10
-14.463607731401437
 20
-17.223709316839013
 10
-14.06328022450365
 20
-17.016256711471634
 10
-13.660572254860687
 20
-16.8064759090838
 10
-13.25551573052336
 20
-16.594064882060312
 10
-12.848371418414338
 20
-16.37886794027271
 10
-12.438919812303512
 20
-16.161228372028738
 10
-12.027129004140052
 20
-15.941448204943601
 10
-11.613030901974794
 20
-15.719225411402103
 10
-11.196845012037825
 20
-15.49421670309648
 10
-10.778653855714257
 20
-15.266797276385317
 10
-10.358384264260714
 20
-15.037081560704518
 10
-9.935807378805366
 20
-14.804923218567358
 10
-9.511339656399327
 20
-14.570427326768021
 10
-9.085013005093433
 20
-14.333291857691304
 10
-8.656827424887668
 20
-14.093516811337203
 10
-8.226824176474585
 20
-13.851289785885008
 10
-7.794637416137342
 20
-13.607182928514307
 10
-7.360601079541963
 20
-13.360926119660718
 10
-6.9248934122260035
 20
-13.111988472837197
 10
-6.487441245446099
 20
-12.860484417479666
 10
-6.048473438074079
 20
-12.60656029107486
 10
-5.607582885700556
 20
-12.350600642623084
 10
-5.1650303552481835
 20
-12.09244978199587
 10
-4.72081584671696
 20
-11.832107709193215
 10
-4.275085697593622
 20
-11.569345565343285
 10
-3.8277667391348014
 20
-11.304277779882003
 10
-3.3789414927256
 20
-11.03727954916794
 10
-2.928527436980922
 20
-10.767975676842521
 10
-2.4768997682593294
 20
-10.496283641520646
 10
-2.02398531781746
 20
-10.222317872638238
 10
-1.569710916911944
 20
-9.946192799631207
 10
-1.114035304850234
 20
-9.667720824320277
 10
-0.6574481074268268
 20
-9.386892594063717
 10
-0.1999080639491619
 20
-9.103520510682234
 10
0.25913826747888463
 20
-8.818217982047972
 10
0.7193888592421104
 20
-8.531016916211748
 10
1.1802902694443853
 20
-8.241303905301422
 10
1.6422908631876465
 20
-7.949275900138018
 10
2.1053493797793545
 20
-7.655120498900816
 10
2.5690906228609247
 20
-7.35875518020472
 10
3.033670282560829
 20
-7.059919177127077
 10
3.4988595000072378
 20
-6.758758827154617
 10
3.9650653796095385
 20
-6.455658679287651
 10
4.432027154445072
 20
-6.15046304339771
 10
4.899264551361082
 20
-5.842672941048573
 10
5.367111506023587
 20
-5.532558491804624
 10
5.8357462639701545
 20
-5.220650582152903
 10
6.304835109040984
 20
-4.906679435817336
 10
6.774431155265053
 20
-4.590475992187249
 10
7.244573042217557
 20
-4.272352806385966
 10
7.714968314431272
 20
-3.9518525039581074
 10
8.185617118243679
 20
-3.62897531376255
 10
8.656697699192325
 20
-3.3042521222863366
 10
9.128169089259643
 20
-2.9778709854264953
 10
9.600072622306932
 20
-2.649644419433172
 10
10.072074435836893
 20
-2.3193024191714304
 10
10.544320940505028
 20
-1.9870739579425276
 10
11.016812428986299
 20
-1.6529594934642122
 10
11.489434398676039
 20
-1.3170320800504263
 10
11.96196756285038
 20
-0.9789487726817137
 10
12.434558258996061
 20
-0.6389384302299115
 10
12.907270303214716
 20
-0.297605107925434
 10
13.380259678309793
 20
0.04531150343663607
 10
13.8530779460106
 20
0.39000846910674725
 10
14.325912850833914
 20
0.7364442995334823
 10
14.798535533907897
 20
1.0844726572300982
 10
15.27113366658058
 20
1.4340521670746127
 10
15.743634153277338
 20
1.7852971440735066
 10
16.215881303869704
 20
2.137946821304125
 10
16.688135885280342
 20
2.491845508638006
 10
17.1603249482721
 20
2.8471072922227525
 10
17.632146245723543
 20
3.20370060729585
 10
18.103787522151453
 20
3.561583964305885
 10
18.575280685606653
 20
3.920455335637652
 10
19.046447563720314
 20
4.280845493348747
 10
19.51720548876988
 20
4.6423794699394865
 10
19.987700798242045
 20
5.004828406538008
 10
20.457860396562225
 20
5.368306618150819
 10
20.927537946243653
 20
5.733042963649741
 10
21.396879857941844
 20
6.098808469733514
 10
21.86580324442794
 20
6.465228512190719
 10
22.33427634398865
 20
6.832604889777721
 10
22.80240423341813
 20
7.200521145443373
 10
23.2699672601488
 20
7.56932079635431
 10
23.736892328606046
 20
7.93911815751702
 10
24.203325776276586
 20
8.309684370059651
 10
24.66925781150623
 20
8.680530494764335
 10
25.134803083237156
 20
9.051729357086147
 10
25.599627509465815
 20
9.42355130544832
 10
26.063804112598117
 20
9.795882139273825
 10
26.52733296580279
 20
10.168721744133217
 10
26.990287091485726
 20
10.541955919449459
 10
27.452364096188
 20
10.915553329318898
 10
27.913751797595133
 20
11.289472369760691
 10
28.374408496002093
 20
11.663526129172148
 10
28.8345953241753
 20
12.037558345277645
 10
29.29379008975069
 20
12.411881428199017
 10
29.75206603464042
 20
12.786380834070926
 10
30.209903431997258
 20
13.160557584457152
 10
30.666634044645402
 20
13.534952490633634
 10
31.122184484335282
 20
13.9096803253246
 10
31.577108412469254
 20
14.284127337369613
 10
32.03132272231227
 20
14.657919245845575
 10
32.48450297717751
 20
15.031815567252494
 10
32.93660762369746
 20
15.405629161128825
 10
33.387521793423744
 20
15.779287545307819
 10
33.83750647278527
 20
16.152634686372707
 10
34.28652003524572
 20
16.525483558291363
 10
34.734635430042296
 20
16.8977200749162
 10
35.18159167074606
 20
17.269500269663975
 10
35.62724212719533
 20
17.64105345912427
 10
36.07180623245145
 20
18.012036469418778
 10
36.51528391334569
 20
18.382449414976914
 10
36.95751867489341
 20
18.75203278759984
 10
37.398739888147624
 20
19.120932123768235
 10
37.838498456319
 20
19.48934551859747
 10
38.27686740181339
 20
19.857158771510502
 10
38.71421227567265
 20
20.223800193045477
 10
39.1504599823222
 20
20.589384098208892
 10
39.58523437420976
 20
20.953994495968498
 10
40.01883799113176
 20
21.317662493369077
 10
40.450968000616825
 20
21.68035744108359
 10
40.88173897843834
 20
22.042152278996543
 10
41.31118232046593
 20
22.40274578049878
 10
41.73918308508248
 20
22.762065577852987
 10
42.166002258716865
 20
23.11995563764238
 10
42.591190525073486
 20
23.476614398270648
 10
43.01497725520539
 20
23.832187396218487
 10
43.43705961664118
 20
24.186643982158852
 10
43.85787625599735
 20
24.539298151623424
 10
44.27731230482554
 20
24.890077422445465
 10
44.69515812171856
 20
25.23981390772114
 10
45.110995932587926
 20
25.588404590386126
 10
45.525640458433614
 20
25.935079571433764
 10
45.9387887936155
 20
26.279808315966463
 10
46.35014789731639
 20
26.623049113875073
 10
46.759717623198796
 20
26.96480219401846
 10
47.16757092049986
 20
27.304953470249032
 10
47.574073486598955
 20
27.642931024246053
 10
47.978848954437595
 20
27.978819208265605
 10
48.381907408344944
 20
28.313106503807813
 10
48.78301881874929
 20
28.64564840425692
 10
49.182329303631114
 20
28.9762163940294
 10
49.57998505413969
 20
29.304581843112288
 10
49.9758394401133
 20
29.63097406809516
 10
50.36977730042857
 20
29.955321044528993
 10
50.76205969468316
 20
30.277466624567605
 10
51.15245659330534
 20
30.597266301595223
 10
51.540863212175864
 20
30.915136074945202
 10
51.92704937538555
 20
31.230931666860684
 10
52.31150595259751
 20
31.54464177939951
 10
52.69391936849251
 20
31.855748311599452
 10
53.07451928679857
 20
32.164396342223455
 10
53.45323224609735
 20
32.47070075842518
 10
53.82968187933035
 20
32.77474591246068
 10
54.203940989397275
 20
33.07641794704124
 10
54.576312335600726
 20
33.37574762592333
 10
54.94652418866398
 20
33.67240353088849
 10
55.314837461847155
 20
33.96622974294939
 10
55.68091748779683
 20
34.25749752596478
 10
56.04480574671178
 20
34.54639413482564
 10
56.40646024621198
 20
34.83273311564702
 10
56.765880693622485
 20
35.11651492614668
 10
57.12317136088132
 20
35.3973243679973
 10
57.478227537038
 20
35.67557732610281
 10
57.830892141757936
 20
35.95101520769985
 10
58.181133486496535
 20
36.2239396971153
 10
58.52917093114641
 20
36.49400773490029
 10
58.87496233699012
 20
36.761033096028775
 10
59.218287905122544
 20
37.025359526526216
 10
59.559147416037476
 20
37.28698736968096
 10
59.89754057705994
 20
37.54591708321072
 10
60.23338354976747
 20
37.801775530486786
 10
60.56705233537479
 20
38.05447893140027
 10
60.89806585587299
 20
38.30452752311118
 10
61.226382045713315
 20
38.55173496616401
 10
61.55211555383792
 20
38.79617408601384
 10
61.875297483441486
 20
39.03754411376927
 10
62.19573943148848
 20
39.275887568846606
 10
62.513597966132345
 20
39.51146384501531
 10
62.82886227135646
 20
39.74378560506958
 10
63.14138579016787
 20
39.973082051169584
 10
63.45124147180371
 20
40.1992390971677
 10
63.75820944419015
 20
40.422600603518866
 10
64.0624358253077
 20
40.64293805463953
 10
64.36380530769551
 20
40.86017965493961
 10
64.66239084059077
 20
41.074211318271445
 10
64.95823405052968
 20
41.285220070667144
 10
65.25103144652219
 20
41.49317629266462
 10
65.54078266272461
 20
41.698080556411064
 10
65.82767573632867
 20
41.89989091463729
 10
66.11178390924647
 20
42.09849282347796
 10
66.39265888954482
 20
42.29408311932466
 10
66.67040881414769
 20
42.4867448118522
 10
66.94526028665332
 20
42.67612351309759
 10
67.21702219678275
 20
42.862265976366295
 10
67.48554806071174
 20
43.04540128938903
 10
67.75109901120663
 20
43.225373189890114
 10
68.01351782159539
 20
43.40192331396507
 10
68.27277294967094
 20
43.57535311708194
 10
68.52879100718359
 20
43.74577737196491
 10
68.78145675984129
 20
43.91312416859443
 10
69.03091632562456
 20
44.077164991386965
 10
69.27709616994635
 20
44.238014841925626
 10
69.51984980898236
 20
44.39590280794109
 10
69.75925011880102
 20
44.55071491771522
 10
69.99532827576574
 20
44.70215028792716
 10
70.22808391403275
 20
44.85020949072407
 10
70.45733930024572
 20
44.99542261158693
 10
70.68305222251846
 20
45.13760353991917
 10
70.90522260768223
 20
45.27675239015021
 10
71.12392325863664
 20
45.412755304991265
 10
71.33903901425832
 20
45.54554025999336
 10
71.55068459665826
 20
45.67517996618214
 10
71.75859858039503
 20
45.80183114355097
 10
71.96292693711165
 20
45.92526550537518
 10
72.16352318298395
 20
46.04571213938551
 10
72.36064852394702
 20
46.16301466887688
 10
72.5539263002674
 20
46.27725790382307
 10
72.74339821165013
 20
46.388628755826765
 10
72.92902219254646
 20
46.49694088543248
 10
73.11098628014814
 20
46.602152345371046
 10
73.2890283173264
 20
46.70442099993023
 10
73.46340914417266
 20
46.803591044552114
 10
73.63368354184088
 20
46.89985450959196
 10
73.80014885514672
 20
46.993250626584484
 10
73.9625769569058
 20
47.083631913748626
 10
74.12108271556652
 20
47.1710708532511
 10
74.27566598479132
 20
47.2555676739508
 10
74.42625337633062
 20
47.33723714857194
 10
74.57280297097323
 20
47.41589270880017
 10
74.71516813855739
 20
47.49176367122505
 10
74.8535371357811
 20
47.56480774528912
 10
74.98772141327139
 20
47.63506767926758
 10
75.11779406660291
 20
47.70242915815398
 10
75.24368185386352
 20
47.76700672581364
 10
75.36545772429038
 20
47.82868629609897
 10
75.48304843597138
 20
47.887582412875325
 10
75.596307578251
 20
47.943924049443964
 10
75.70526618115521
 20
47.99741055134292
 10
75.81008125184981
 20
48.04830062576499
 10
75.91033413822139
 20
48.09649262879909
 10
76.00644327287709
 20
48.14208854764461
 10
76.0981783335703
 20
48.18494433340355
 10
76.18539290964549
 20
48.22528895937718
 10
76.26827518463189
 20
48.26308024943745
 10
76.3467099242374
 20
48.29824629356481
 10
76.4205507909753
 20
48.331015950631055
 10
76.49005906394945
 20
48.3612327295017
 10
76.55497331771849
 20
48.389053350170144
 10
76.61536657468831
 20
48.414363612059304
 10
76.67109249737219
 20
48.437392374041046
 10
76.72222425451346
 20
48.458025206679444
 10
76.76880361898588
 20
48.47644890714772
 10
76.8106003417115
 20
48.492519312118425
 10
76.84765641507035
 20
48.50642287547651
 10
76.8800868538482
 20
48.518231850529816
 10
76.90766140896716
 20
48.527802073950916
 10
76.93034875772632
 20
48.535434657919524
 10
76.94833737632995
 20
48.54108696858986
 10
76.96125038553829
 20
48.54484415922404
 10
76.96912999723762
 20
48.54689234041868
 10
76.97182965443491
 20
48.54746071433393
  0
ENDSEC
  0
SECTION
  2
OBJECTS
  0
DICTIONARY
  5
A
330
0
100
AcDbDictionary
280
0
281
1
  3
ACAD_COLOR
350
B
  3
ACAD_GROUP
350
C
  3
ACAD_LAYOUT
350
D
  3
ACAD_MATERIAL
350
E
  3
ACAD_MLEADERSTYLE
350
F
  3
ACAD_MLINESTYLE
350
10
  3
ACAD_PLOTSETTINGS
350
11
  3
ACAD_PLOTSTYLENAME
350
12
  3
ACAD_SCALELIST
350
14
  3
ACAD_TABLESTYLE
350
15
  3
ACAD_VISUALSTYLE
350
16
  3
EZDXF_META
350
2D
  0
DICTIONARY
  5
B
330
A
100
AcDbDictionary
280
0
281
1
  0
DICTIONARY
  5
C
330
A
100
AcDbDictionary
280
0
281
1
  0
DICTIONARY
  5
D
330
A
100
AcDbDictionary
280
0
281
1
  3
Model
350
1A
  3
Layout1
350
1E
  0
DICTIONARY
  5
E
330
A
100
AcDbDictionary
280
0
281
1
  3
ByBlock
350
1F
  3
ByLayer
350
20
  3
Global
350
21
  0
DICTIONARY
  5
F
330
A
100
AcDbDictionary
280
0
281
1
  3
Standard
350
2C
  0
DICTIONARY
  5
10
330
A
100
AcDbDictionary
280
0
281
1
  3
Standard
350
22
  0
DICTIONARY
  5
11
330
A
100
AcDbDictionary
280
0
281
1
  0
ACDBDICTIONARYWDFLT
  5
12
330
A
100
AcDbDictionary
280
0
281
1
  3
Normal
350
13
100
AcDbDictionaryWithDefault
340
13
  0
ACDBPLACEHOLDER
  5
13
330
12
  0
DICTIONARY
  5
14
330
A
100
AcDbDictionary
280
0
281
1
  0
DICTIONARY
  5
15
330
A
100
AcDbDictionary
280
0
281
1
  0
DICTIONARY
  5
16
330
A
100
AcDbDictionary
280
0
281
1
  0
LAYOUT
  5
1A
330
D
100
AcDbPlotSettings
  1

  4
A3
  6

 40
7.5
 41
20.0
 42
7.5
 43
20.0
 44
420.0
 45
297.0
 46
0.0
 47
0.0
 48
0.0
 49
0.0
140
0.0
141
0.0
142
1.0
143
1.0
 70
1024
 72
1
 73
0
 74
5
  7

 75
16
 76
0
 77
2
 78
300
147
1.0
148
0.0
149
0.0
100
AcDbLayout
  1
Model
 70
1
 71
0
 10
0.0
 20
0.0
 11
420.0
 21
297.0
 12
0.0
 22
0.0
 32
0.0
 14
1e+20
 24
1e+20
 34
1e+20
 15
-1e+20
 25
-1e+20
 35
-1e+20
146
0.0
 13
0.0
 23
0.0
 33
0.0
 16
1.0
 26
0.0
 36
0.0
 17
0.0
 27
1.0
 37
0.0
 76
1
330
17
  0
LAYOUT
  5
1E
330
D
100
AcDbPlotSettings
  1

  4
A3
  6

 40
7.5
 41
20.0
 42
7.5
 43
20.0
 44
420.0
 45
297.0
 46
0.0
 47
0.0
 48
0.0
 49
0.0
140
0.0
141
0.0
142
1.0
143
1.0
 70
0
 72
1
 73
0
 74
5
  7

 75
16
 76
0
 77
2
 78
300
147
1.0
148
0.0
149
0.0
100
AcDbLayout
  1
Layout1
 70
1
 71
1
 10
0.0
 20
0.0
 11
420.0
 21
297.0
 12
0.0
 22
0.0
 32
0.0
 14
1e+20
 24
1e+20
 34
1e+20
 15
-1e+20
 25
-1e+20
 35
-1e+20
146
0.0
 13
0.0
 23
0.0
 33
0.0
 16
1.0
 26
0.0
 36
0.0
 17
0.0
 27
1.0
 37
0.0
 76
1
330
1B
  0
MATERIAL
  5
1F
102
{ACAD_REACTORS
330
E
102
}
330
E
100
AcDbMaterial
  1
ByBlock
  2

 70
0
 40
1.0
 71
1
 41
1.0
 91
-1023410177
 42
1.0
 72
1
  3

 73
1
 74
1
 75
1
 44
0.5
 73
0
 45
1.0
 46
1.0
 77
1
  4

 78
1
 79
1
170
1
 48
1.0
171
1
  6

172
1
173
1
174
1
140
1.0
141
1.0
175
1
  7

176
1
177
1
178
1
143
1.0
179
1
  8

270
1
271
1
272
1
145
1.0
146
1.0
273
1
  9

274
1
275
1
276
1
 42
1.0
 72
1
  3

 73
1
 74
1
 75
1
 94
63
  0
MATERIAL
  5
20
102
{ACAD_REACTORS
330
E
102
}
330
E
100
AcDbMaterial
  1
ByLayer
  2

 70
0
 40
1.0
 71
1
 41
1.0
 91
-1023410177
 42
1.0
 72
1
  3

 73
1
 74
1
 75
1
 44
0.5
 73
0
 45
1.0
 46
1.0
 77
1
  4

 78
1
 79
1
170
1
 48
1.0
171
1
  6

172
1
173
1
174
1
140
1.0
141
1.0
175
1
  7

176
1
177
1
178
1
143
1.0
179
1
  8

270
1
271
1
272
1
145
1.0
146
1.0
273
1
  9

274
1
275
1
276
1
 42
1.0
 72
1
  3

 73
1
 74
1
 75
1
 94
63
  0
MATERIAL
  5
21
102
{ACAD_REACTORS
330
E
102
}
330
E
100
AcDbMaterial
  1
Global
  2

 70
0
 40
1.0
 71
1
 41
1.0
 91
-1023410177
 42
1.0
 72
1
  3

 73
1
 74
1
 75
1
 44
0.5
 73
0
 45
1.0
 46
1.0
 77
1
  4

 78
1
 79
1
170
1
 48
1.0
171
1
  6

172
1
173
1
174
1
140
1.0
141
1.0
175
1
  7

176
1
177
1
178
1
143
1.0
179
1
  8

270
1
271
1
272
1
145
1.0
146
1.0
273
1
  9

274
1
275
1
276
1
 42
1.0
 72
1
  3

 73
1
 74
1
 75
1
 94
63
  0
MLINESTYLE
  5
22
102
{ACAD_REACTORS
330
10
102
}
330
10
100
AcDbMlineStyle
  2
Standard
 70
0
  3

 62
256
 51
90.0
 52
90.0
 71
2
 49
0.5
 62
256
  6
BYLAYER
 49
-0.5
 62
256
  6
BYLAYER
  0
MLEADERSTYLE
  5
2C
102
{ACAD_REACTORS
330
F
102
}
330
F
100
AcDbMLeaderStyle
179
2
170
2
171
1
172
0
 90
2
 40
0.0
 41
0.0
173
1
 91
-1056964608
 92
-2
290
1
 42
2.0
291
1
 43
8.0
  3
Standard
 44
4.0
300

342
29
174
1
175
1
176
0
178
1
 93
-1056964608
 45
4.0
292
0
297
0
 46
4.0
 94
-1056964608
 47
1.0
 49
1.0
140
1.0
294
1
141
0.0
177
0
142
1.0
295
0
296
0
143
3.75
271
0
272
9
273
9
  0
DICTIONARY
  5
2D
330
A
100
AcDbDictionary
280
1
281
1
  3
CREATED_BY_EZDXF
350
2E
  3
WRITTEN_BY_EZDXF
350
32
  0
DICTIONARYVAR
  5
2E
330
2D
100
DictionaryVariables
280
0
  1
1.3.5 @ 2025-08-20T01:28:29.062133+00:00
  0
DICTIONARYVAR
  5
32
330
2D
100
DictionaryVariables
280
0
  1
1.3.5 @ 2025-08-20T01:28:29.068638+00:00
  0
ENDSEC
  0
EOF
