  0
SECTION
  2
HEADER
  9
$ACADVER
  1
AC1032
  9
$ACADMAINTVER
 90
4
  9
$DWGCODEPAGE
  3
ANSI_1252
  9
$LASTSAVEDBY
  1
ezdxf
  9
$REQUIREDVERSIONS
160
0
  9
$INSBASE
 10
0.0
 20
0.0
 30
0.0
  9
$EXTMIN
 10
1e+20
 20
1e+20
 30
1e+20
  9
$EXTMAX
 10
-1e+20
 20
-1e+20
 30
-1e+20
  9
$LIMMIN
 10
0.0
 20
0.0
  9
$LIMMAX
 10
420.0
 20
297.0
  9
$ORTHOMODE
 70
0
  9
$REGENMODE
 70
1
  9
$FILLMODE
 70
1
  9
$QTEXTMODE
 70
0
  9
$MIRRTEXT
 70
1
  9
$LTSCALE
 40
1.0
  9
$ATTMODE
 70
1
  9
$TEXTSIZE
 40
2.5
  9
$TRACEWID
 40
1.0
  9
$TEXTSTYLE
  7
Standard
  9
$CLAYER
  8
0
  9
$CELTYPE
  6
ByLayer
  9
$CECOLOR
 62
256
  9
$CELTSCALE
 40
1.0
  9
$DISPSILH
 70
0
  9
$DIMSCALE
 40
1.0
  9
$DIMASZ
 40
2.5
  9
$DIMEXO
 40
0.625
  9
$DIMDLI
 40
3.75
  9
$DIMRND
 40
0.0
  9
$DIMDLE
 40
0.0
  9
$DIMEXE
 40
1.25
  9
$DIMTP
 40
0.0
  9
$DIMTM
 40
0.0
  9
$DIMTXT
 40
2.5
  9
$DIMCEN
 40
2.5
  9
$DIMTSZ
 40
0.0
  9
$DIMTOL
 70
0
  9
$DIMLIM
 70
0
  9
$DIMTIH
 70
0
  9
$DIMTOH
 70
0
  9
$DIMSE1
 70
0
  9
$DIMSE2
 70
0
  9
$DIMTAD
 70
1
  9
$DIMZIN
 70
8
  9
$DIMBLK
  1

  9
$DIMASO
 70
1
  9
$DIMSHO
 70
1
  9
$DIMPOST
  1

  9
$DIMAPOST
  1

  9
$DIMALT
 70
0
  9
$DIMALTD
 70
3
  9
$DIMALTF
 40
0.03937007874
  9
$DIMLFAC
 40
1.0
  9
$DIMTOFL
 70
1
  9
$DIMTVP
 40
0.0
  9
$DIMTIX
 70
0
  9
$DIMSOXD
 70
0
  9
$DIMSAH
 70
0
  9
$DIMBLK1
  1

  9
$DIMBLK2
  1

  9
$DIMSTYLE
  2
ISO-25
  9
$DIMCLRD
 70
0
  9
$DIMCLRE
 70
0
  9
$DIMCLRT
 70
0
  9
$DIMTFAC
 40
1.0
  9
$DIMGAP
 40
0.625
  9
$DIMJUST
 70
0
  9
$DIMSD1
 70
0
  9
$DIMSD2
 70
0
  9
$DIMTOLJ
 70
0
  9
$DIMTZIN
 70
8
  9
$DIMALTZ
 70
0
  9
$DIMALTTZ
 70
0
  9
$DIMUPT
 70
0
  9
$DIMDEC
 70
2
  9
$DIMTDEC
 70
2
  9
$DIMALTU
 70
2
  9
$DIMALTTD
 70
3
  9
$DIMTXSTY
  7
Standard
  9
$DIMAUNIT
 70
0
  9
$DIMADEC
 70
0
  9
$DIMALTRND
 40
0.0
  9
$DIMAZIN
 70
0
  9
$DIMDSEP
 70
44
  9
$DIMATFIT
 70
3
  9
$DIMFRAC
 70
0
  9
$DIMLDRBLK
  1

  9
$DIMLUNIT
 70
2
  9
$DIMLWD
 70
-2
  9
$DIMLWE
 70
-2
  9
$DIMTMOVE
 70
0
  9
$DIMFXL
 40
1.0
  9
$DIMFXLON
 70
0
  9
$DIMJOGANG
 40
0.785398163397
  9
$DIMTFILL
 70
0
  9
$DIMTFILLCLR
 70
0
  9
$DIMARCSYM
 70
0
  9
$DIMLTYPE
  6

  9
$DIMLTEX1
  6

  9
$DIMLTEX2
  6

  9
$DIMTXTDIRECTION
 70
0
  9
$LUNITS
 70
2
  9
$LUPREC
 70
4
  9
$SKETCHINC
 40
1.0
  9
$FILLETRAD
 40
10.0
  9
$AUNITS
 70
0
  9
$AUPREC
 70
2
  9
$MENU
  1
.
  9
$ELEVATION
 40
0.0
  9
$PELEVATION
 40
0.0
  9
$THICKNESS
 40
0.0
  9
$LIMCHECK
 70
0
  9
$CHAMFERA
 40
0.0
  9
$CHAMFERB
 40
0.0
  9
$CHAMFERC
 40
0.0
  9
$CHAMFERD
 40
0.0
  9
$SKPOLY
 70
0
  9
$TDCREATE
 40
2460908.103113426
  9
$TDUCREATE
 40
2458532.153996898
  9
$TDUPDATE
 40
2460908.103113426
  9
$TDUUPDATE
 40
2458532.1544311
  9
$TDINDWG
 40
0.0
  9
$TDUSRTIMER
 40
0.0
  9
$USRTIMER
 70
1
  9
$ANGBASE
 50
0.0
  9
$ANGDIR
 70
0
  9
$PDMODE
 70
0
  9
$PDSIZE
 40
0.0
  9
$PLINEWID
 40
0.0
  9
$SPLFRAME
 70
0
  9
$SPLINETYPE
 70
6
  9
$SPLINESEGS
 70
8
  9
$HANDSEED
  5
33
  9
$SURFTAB1
 70
6
  9
$SURFTAB2
 70
6
  9
$SURFTYPE
 70
6
  9
$SURFU
 70
6
  9
$SURFV
 70
6
  9
$UCSBASE
  2

  9
$UCSNAME
  2

  9
$UCSORG
 10
0.0
 20
0.0
 30
0.0
  9
$UCSXDIR
 10
1.0
 20
0.0
 30
0.0
  9
$UCSYDIR
 10
0.0
 20
1.0
 30
0.0
  9
$UCSORTHOREF
  2

  9
$UCSORTHOVIEW
 70
0
  9
$UCSORGTOP
 10
0.0
 20
0.0
 30
0.0
  9
$UCSORGBOTTOM
 10
0.0
 20
0.0
 30
0.0
  9
$UCSORGLEFT
 10
0.0
 20
0.0
 30
0.0
  9
$UCSORGRIGHT
 10
0.0
 20
0.0
 30
0.0
  9
$UCSORGFRONT
 10
0.0
 20
0.0
 30
0.0
  9
$UCSORGBACK
 10
0.0
 20
0.0
 30
0.0
  9
$PUCSBASE
  2

  9
$PUCSNAME
  2

  9
$PUCSORG
 10
0.0
 20
0.0
 30
0.0
  9
$PUCSXDIR
 10
1.0
 20
0.0
 30
0.0
  9
$PUCSYDIR
 10
0.0
 20
1.0
 30
0.0
  9
$PUCSORTHOREF
  2

  9
$PUCSORTHOVIEW
 70
0
  9
$PUCSORGTOP
 10
0.0
 20
0.0
 30
0.0
  9
$PUCSORGBOTTOM
 10
0.0
 20
0.0
 30
0.0
  9
$PUCSORGLEFT
 10
0.0
 20
0.0
 30
0.0
  9
$PUCSORGRIGHT
 10
0.0
 20
0.0
 30
0.0
  9
$PUCSORGFRONT
 10
0.0
 20
0.0
 30
0.0
  9
$PUCSORGBACK
 10
0.0
 20
0.0
 30
0.0
  9
$USERI1
 70
0
  9
$USERI2
 70
0
  9
$USERI3
 70
0
  9
$USERI4
 70
0
  9
$USERI5
 70
0
  9
$USERR1
 40
0.0
  9
$USERR2
 40
0.0
  9
$USERR3
 40
0.0
  9
$USERR4
 40
0.0
  9
$USERR5
 40
0.0
  9
$WORLDVIEW
 70
1
  9
$SHADEDGE
 70
3
  9
$SHADEDIF
 70
70
  9
$TILEMODE
 70
1
  9
$MAXACTVP
 70
64
  9
$PINSBASE
 10
0.0
 20
0.0
 30
0.0
  9
$PLIMCHECK
 70
0
  9
$PEXTMIN
 10
1e+20
 20
1e+20
 30
1e+20
  9
$PEXTMAX
 10
-1e+20
 20
-1e+20
 30
-1e+20
  9
$PLIMMIN
 10
0.0
 20
0.0
  9
$PLIMMAX
 10
420.0
 20
297.0
  9
$UNITMODE
 70
0
  9
$VISRETAIN
 70
1
  9
$PLINEGEN
 70
0
  9
$PSLTSCALE
 70
1
  9
$TREEDEPTH
 70
3020
  9
$CMLSTYLE
  2
Standard
  9
$CMLJUST
 70
0
  9
$CMLSCALE
 40
20.0
  9
$PROXYGRAPHICS
 70
1
  9
$MEASUREMENT
 70
1
  9
$CELWEIGHT
370
-1
  9
$ENDCAPS
280
0
  9
$JOINSTYLE
280
0
  9
$LWDISPLAY
290
0
  9
$INSUNITS
 70
6
  9
$HYPERLINKBASE
  1

  9
$STYLESHEET
  1

  9
$XEDIT
290
1
  9
$CEPSNTYPE
380
0
  9
$PSTYLEMODE
290
1
  9
$FINGERPRINTGUID
  2
{0A2381EF-5D71-42DD-A83B-E0BE09F26EA6}
  9
$VERSIONGUID
  2
{EEF2EAD8-2542-451D-8564-79EDA22F513E}
  9
$EXTNAMES
290
1
  9
$PSVPSCALE
 40
0.0
  9
$OLESTARTUP
290
0
  9
$SORTENTS
280
127
  9
$INDEXCTL
280
0
  9
$HIDETEXT
280
1
  9
$XCLIPFRAME
280
1
  9
$HALOGAP
280
0
  9
$OBSCOLOR
 70
257
  9
$OBSLTYPE
280
0
  9
$INTERSECTIONDISPLAY
280
0
  9
$INTERSECTIONCOLOR
 70
257
  9
$DIMASSOC
280
2
  9
$PROJECTNAME
  1

  9
$CAMERADISPLAY
290
0
  9
$LENSLENGTH
 40
50.0
  9
$CAMERAHEIGHT
 40
0.0
  9
$STEPSPERSEC
 40
24.0
  9
$STEPSIZE
 40
100.0
  9
$3DDWFPREC
 40
2.0
  9
$PSOLWIDTH
 40
0.005
  9
$PSOLHEIGHT
 40
0.08
  9
$LOFTANG1
 40
1.570796326795
  9
$LOFTANG2
 40
1.570796326795
  9
$LOFTMAG1
 40
0.0
  9
$LOFTMAG2
 40
0.0
  9
$LOFTPARAM
 70
7
  9
$LOFTNORMALS
280
1
  9
$LATITUDE
 40
37.795
  9
$LONGITUDE
 40
-122.394
  9
$NORTHDIRECTION
 40
0.0
  9
$TIMEZONE
 70
-8000
  9
$LIGHTGLYPHDISPLAY
280
1
  9
$TILEMODELIGHTSYNCH
280
1
  9
$CMATERIAL
347
20
  9
$SOLIDHIST
280
0
  9
$SHOWHIST
280
1
  9
$DWFFRAME
280
2
  9
$DGNFRAME
280
2
  9
$REALWORLDSCALE
290
1
  9
$INTERFERECOLOR
 62
256
  9
$CSHADOW
280
0
  9
$SHADOWPLANELOCATION
 40
0.0
  0
ENDSEC
  0
SECTION
  2
CLASSES
  0
CLASS
  1
ACDBDICTIONARYWDFLT
  2
AcDbDictionaryWithDefault
  3
ObjectDBX Classes
 90
0
 91
0
280
0
281
0
  0
CLASS
  1
SUN
  2
AcDbSun
  3
SCENEOE
 90
1153
 91
0
280
0
281
0
  0
CLASS
  1
VISUALSTYLE
  2
AcDbVisualStyle
  3
ObjectDBX Classes
 90
4095
 91
0
280
0
281
0
  0
CLASS
  1
MATERIAL
  2
AcDbMaterial
  3
ObjectDBX Classes
 90
1153
 91
0
280
0
281
0
  0
CLASS
  1
SCALE
  2
AcDbScale
  3
ObjectDBX Classes
 90
1153
 91
0
280
0
281
0
  0
CLASS
  1
TABLESTYLE
  2
AcDbTableStyle
  3
ObjectDBX Classes
 90
4095
 91
0
280
0
281
0
  0
CLASS
  1
MLEADERSTYLE
  2
AcDbMLeaderStyle
  3
ACDB_MLEADERSTYLE_CLASS
 90
4095
 91
0
280
0
281
0
  0
CLASS
  1
DICTIONARYVAR
  2
AcDbDictionaryVar
  3
ObjectDBX Classes
 90
0
 91
0
280
0
281
0
  0
CLASS
  1
CELLSTYLEMAP
  2
AcDbCellStyleMap
  3
ObjectDBX Classes
 90
1152
 91
0
280
0
281
0
  0
CLASS
  1
MENTALRAYRENDERSETTINGS
  2
AcDbMentalRayRenderSettings
  3
SCENEOE
 90
1024
 91
0
280
0
281
0
  0
CLASS
  1
ACDBDETAILVIEWSTYLE
  2
AcDbDetailViewStyle
  3
ObjectDBX Classes
 90
1025
 91
0
280
0
281
0
  0
CLASS
  1
ACDBSECTIONVIEWSTYLE
  2
AcDbSectionViewStyle
  3
ObjectDBX Classes
 90
1025
 91
0
280
0
281
0
  0
CLASS
  1
RASTERVARIABLES
  2
AcDbRasterVariables
  3
ISM
 90
0
 91
0
280
0
281
0
  0
CLASS
  1
LAYOUT
  2
AcDbLayout
  3
ObjectDBX Classes
 90
0
 91
0
280
0
281
0
  0
CLASS
  1
ACDBPLACEHOLDER
  2
AcDbPlaceHolder
  3
ObjectDBX Classes
 90
0
 91
0
280
0
281
0
  0
ENDSEC
  0
SECTION
  2
TABLES
  0
TABLE
  2
VPORT
  5
8
330
0
100
AcDbSymbolTable
 70
1
  0
VPORT
  5
23
330
8
100
AcDbSymbolTableRecord
100
AcDbViewportTableRecord
  2
*Active
 70
0
 10
0.0
 20
0.0
 11
1.0
 21
1.0
 12
0.0
 22
0.0
 13
0.0
 23
0.0
 14
0.5
 24
0.5
 15
0.5
 25
0.5
 16
0.0
 26
0.0
 36
1.0
 17
0.0
 27
0.0
 37
0.0
 40
1000.0
 41
1.34
 42
50.0
 43
0.0
 44
0.0
 50
0.0
 51
0.0
 71
0
 72
1000
 73
1
 74
3
 75
0
 76
0
 77
0
 78
0
281
0
 65
0
146
0.0
  0
ENDTAB
  0
TABLE
  2
LTYPE
  5
2
330
0
100
AcDbSymbolTable
 70
3
  0
LTYPE
  5
24
330
2
100
AcDbSymbolTableRecord
100
AcDbLinetypeTableRecord
  2
ByBlock
 70
0
  3

 72
65
 73
0
 40
0.0
  0
LTYPE
  5
25
330
2
100
AcDbSymbolTableRecord
100
AcDbLinetypeTableRecord
  2
ByLayer
 70
0
  3

 72
65
 73
0
 40
0.0
  0
LTYPE
  5
26
330
2
100
AcDbSymbolTableRecord
100
AcDbLinetypeTableRecord
  2
Continuous
 70
0
  3

 72
65
 73
0
 40
0.0
  0
ENDTAB
  0
TABLE
  2
LAYER
  5
1
330
0
100
AcDbSymbolTable
 70
2
  0
LAYER
  5
27
330
1
100
AcDbSymbolTableRecord
100
AcDbLayerTableRecord
  2
0
 70
0
 62
7
  6
Continuous
370
-3
390
13
347
21
  0
LAYER
  5
28
330
1
100
AcDbSymbolTableRecord
100
AcDbLayerTableRecord
  2
Defpoints
 70
0
 62
7
  6
Continuous
290
0
370
-3
390
13
347
21
  0
ENDTAB
  0
TABLE
  2
STYLE
  5
5
330
0
100
AcDbSymbolTable
 70
1
  0
STYLE
  5
29
330
5
100
AcDbSymbolTableRecord
100
AcDbTextStyleTableRecord
  2
Standard
 70
0
 40
0.0
 41
1.0
 50
0.0
 71
0
 42
2.5
  3
txt
  4

  0
ENDTAB
  0
TABLE
  2
VIEW
  5
7
330
0
100
AcDbSymbolTable
 70
0
  0
ENDTAB
  0
TABLE
  2
UCS
  5
6
330
0
100
AcDbSymbolTable
 70
0
  0
ENDTAB
  0
TABLE
  2
APPID
  5
3
330
0
100
AcDbSymbolTable
 70
3
  0
APPID
  5
2A
330
3
100
AcDbSymbolTableRecord
100
AcDbRegAppTableRecord
  2
ACAD
 70
0
  0
APPID
  5
30
330
3
100
AcDbSymbolTableRecord
100
AcDbRegAppTableRecord
  2
HATCHBACKGROUNDCOLOR
 70
0
  0
APPID
  5
31
330
3
100
AcDbSymbolTableRecord
100
AcDbRegAppTableRecord
  2
EZDXF
 70
0
  0
ENDTAB
  0
TABLE
  2
DIMSTYLE
  5
4
330
0
100
AcDbSymbolTable
 70
1
100
AcDbDimStyleTable
  0
DIMSTYLE
105
2B
330
4
100
AcDbSymbolTableRecord
100
AcDbDimStyleTableRecord
  2
Standard
 70
0
 40
1.0
 41
2.5
 42
0.625
 43
3.75
 44
1.25
 45
0.0
 46
0.0
 47
0.0
 48
0.0
 49
2.5
140
2.5
141
2.5
142
0.0
143
0.03937007874
144
1.0
145
0.0
146
1.0
147
0.625
148
0.0
 69
0
 70
0
 71
0
 72
0
 73
0
 74
0
 75
0
 76
0
 77
1
 78
8
 79
3
170
0
171
3
172
1
173
0
174
0
175
0
176
0
177
0
178
0
179
2
271
2
272
2
273
2
274
3
275
0
276
0
277
2
278
44
279
0
280
0
281
0
282
0
283
0
284
8
285
0
286
0
288
0
289
3
290
0
371
-2
372
-2
  0
ENDTAB
  0
TABLE
  2
BLOCK_RECORD
  5
9
330
0
100
AcDbSymbolTable
 70
2
  0
BLOCK_RECORD
  5
17
330
9
100
AcDbSymbolTableRecord
100
AcDbBlockTableRecord
  2
*Model_Space
340
1A
 70
0
280
1
281
0
  0
BLOCK_RECORD
  5
1B
330
9
100
AcDbSymbolTableRecord
100
AcDbBlockTableRecord
  2
*Paper_Space
340
1E
 70
0
280
1
281
0
  0
ENDTAB
  0
ENDSEC
  0
SECTION
  2
BLOCKS
  0
BLOCK
  5
18
330
17
100
AcDbEntity
  8
0
100
AcDbBlockBegin
  2
*Model_Space
 70
0
 10
0.0
 20
0.0
 30
0.0
  3
*Model_Space
  1

  0
ENDBLK
  5
19
330
17
100
AcDbEntity
  8
0
100
AcDbBlockEnd
  0
BLOCK
  5
1C
330
1B
100
AcDbEntity
  8
0
100
AcDbBlockBegin
  2
*Paper_Space
 70
0
 10
0.0
 20
0.0
 30
0.0
  3
*Paper_Space
  1

  0
ENDBLK
  5
1D
330
1B
100
AcDbEntity
  8
0
100
AcDbBlockEnd
  0
ENDSEC
  0
SECTION
  2
ENTITIES
  0
LWPOLYLINE
  5
2F
330
17
100
AcDbEntity
  8
0
100
AcDbPolyline
 90
721
 70
1
 10
81.99787559852939
 20
47.214476169621086
 10
81.99506827635184
 20
47.21398044469485
 10
81.98678662245204
 20
47.21224781689145
 10
81.97331077149212
 20
47.20878823838894
 10
81.95437885822426
 20
47.20377523692316
 10
81.9304447371726
 20
47.196983993119126
 10
81.90131655923331
 20
47.18846555340817
 10
81.86694236741796
 20
47.1780262468204
 10
81.82756603790506
 20
47.165808575290455
 10
81.78313561370622
 20
47.15161886784848
 10
81.73338901931491
 20
47.135631020042
 10
81.67871030337001
 20
47.11774232598886
 10
81.6189773525667
 20
47.097881841231484
 10
81.55412008067479
 20
47.076172169678294
 10
81.4842786601547
 20
47.05236810351246
 10
81.40931277837356
 20
47.02671509575863
 10
81.32941449469386
 20
46.999161732173754
 10
81.24446169581088
 20
46.9696370683003
 10
81.15438429549437
 20
46.938263708046655
 10
81.05944429916464
 20
46.9048678784692
 10
80.95937949114267
 20
46.86962372032329
 10
80.85432997380266
 20
46.83228614839599
 10
80.74439938077647
 20
46.79324299504272
 10
80.62929187889722
 20
46.75215808735893
 10
80.50937317730327
 20
46.709245362152465
 10
80.38439932972993
 20
46.66436244009258
 10
80.25449209905086
 20
46.61758087865639
 10
80.11965141517983
 20
46.56890080044778
 10
79.97980712180043
 20
46.518444931979104
 10
79.83495900865393
 20
46.466213641062076
 10
79.6852471781145
 20
46.41196184248375
 10
79.5305313876355
 20
46.35593486666488
 10
79.37100341623464
 20
46.298081789778074
 10
79.20647120454927
 20
46.23845402606637
 10
79.03707464469495
 20
46.17680685812855
 10
78.86279553734359
 20
46.113456683446834
 10
78.68356358600627
 20
46.048526473741376
 10
78.49958890920118
 20
45.981648662494734
 10
78.31060915107686
 20
45.91299763567008
 10
78.11693827404198
 20
45.84259329129367
 10
77.91826203534296
 20
45.770416221754914
 10
77.71482424107202
 20
45.69660905159235
 10
77.50650270783815
 20
45.62110095895234
 10
77.2934192686012
 20
45.54396337870807
 10
77.07552182620034
 20
45.46500288509749
 10
76.8529322135955
 20
45.38429091299377
 10
76.62538807493516
 20
45.30200184836011
 10
76.39320330254185
 20
45.21815571182667
 10
76.15625571302448
 20
45.13268168153979
 10
75.91454516621057
 20
45.04558000270729
 10
75.668071311669
 20
44.956851288348695
 10
75.41688603630193
 20
44.866689332037836
 10
75.16093710277603
 20
44.774900953220424
 10
74.90027632790724
 20
44.681680068074186
 10
74.63497344749457
 20
44.58690468571024
 10
74.36516856391226
 20
44.49032972091564
 10
74.09084319748729
 20
44.39227206158826
 10
73.81173506245449
 20
44.292905971087386
 10
73.52784380838261
 20
44.192232062432524
 10
73.23950159700848
 20
44.08995383616772
 10
72.94663806175697
 20
43.98619438661706
 10
72.64925306245554
 20
43.88095395898831
 10
72.34713598998252
 20
43.77460097802629
 10
72.04063706523016
 20
43.666522792000634
 10
71.72973794869797
 20
43.557036043601364
 10
71.41436834389708
 20
43.446263704548635
 10
71.09433591112003
 20
43.33425767950114
 10
70.76995447260295
 20
43.2210381116929
 10
70.44117186109885
 20
43.10641169796579
 10
70.10798793643525
 20
42.9903786835276
 10
69.77038421893916
 20
42.873255956276196
 10
69.42864077318649
 20
42.75455359099353
 10
69.082495313412
 20
42.63444585103886
 10
68.73212141930527
 20
42.51319821006703
 10
68.37751888060764
 20
42.39081103588975
 10
68.01870568638844
 20
42.266968298836524
 10
67.65561139998636
 20
42.14179321583532
 10
67.28847982749359
 20
42.01542841142471
 10
66.91704854297245
 20
41.88804839417177
 10
66.54152759485491
 20
41.75928572016301
 10
66.16203874601462
 20
41.629211946875486
 10
65.77858178619283
 20
41.49782744212095
 10
65.39101619249804
 20
41.36537802673579
 10
64.99934175467156
 20
41.231864068531706
 10
64.60362834868486
 20
41.09716333141203
 10
64.20418986686042
 20
40.9612958360069
 10
63.800711856185934
 20
40.824242542517425
 10
63.393316149621334
 20
40.686074885816815
 10
62.98233483881706
 20
40.54649648905299
 10
62.567575443893226
 20
40.40555950209245
 10
62.14894953911908
 20
40.26370317153366
 10
61.726578957454514
 20
40.1209989322498
 10
61.30035943449164
 20
39.97706005532064
 10
60.870745175185775
 20
39.831661108351675
 10
60.43745555427116
 20
39.68529299739222
 10
60.0005604477193
 20
39.53783348634556
 10
59.559989488955125
 20
39.3894056695358
 10
59.11600461331264
 20
39.23983589662315
 10
58.66860568061946
 20
39.089124412815465
 10
58.217670297225744
 20
38.93720076407078
 10
57.76337225307984
 20
38.78433005623221
 10
57.305589294704454
 20
38.630441590050005
 10
56.84458342751991
 20
38.47536159258051
 10
56.380354371181234
 20
38.31909055423937
 10
55.9130240287346
 20
38.16169978729586
 10
55.44239992030004
 20
38.00324144161648
 10
54.96846377646327
 20
37.84403203728736
 10
54.49130339217894
 20
37.6836334311452
 10
54.011214951045034
 20
37.52238118307504
 10
53.52823429102789
 20
37.35964347894371
 10
53.04229097546607
 20
37.195543535679136
 10
52.55341883210617
 20
37.03059129912954
 10
52.06154749437305
 20
36.864909863619
 10
51.566642784089034
 20
36.69798989631882
 10
51.069333186761284
 20
36.52987021245025
 10
50.56932216836066
 20
36.3602158651478
 10
50.066643416461226
 20
36.18953704546748
 10
49.56110452126933
 20
36.0178857806719
 10
49.05301965545232
 20
35.845281600975575
 10
48.54247675413726
 20
35.67128611800739
 10
48.02945754790992
 20
35.49621585185348
 10
47.51382158396494
 20
35.32031650074632
 10
46.9959191532809
 20
35.14297529035163
 10
46.47582013182929
 20
34.96406998457271
 10
45.953418174896264
 20
34.7843557370746
 10
45.42853886175749
 20
34.6035685454494
 10
44.90135619261991
 20
34.421973147728465
 10
44.3722905446923
 20
34.238834165669076
 10
43.84127162148576
 20
34.05427457099139
 10
43.308159110367406
 20
33.868539816720066
 10
42.77274240221551
 20
33.68199832759991
 10
42.23554620873295
 20
33.49430133170454
 10
41.69660615762731
 20
33.30481738271251
 10
41.15607854038108
 20
33.114126757910036
 10
40.61336820863006
 20
32.92270144615148
 10
40.06887769068604
 20
32.730121853656776
 10
39.52288698103875
 20
32.53589817781181
 10
38.97550034409604
 20
32.34041714753681
 10
38.42640297641451
 20
32.143660336052434
 10
37.87576908845978
 20
31.945892113578324
 10
37.32354637281235
 20
31.74691942216413
 10
36.76999711523743
 20
31.546567998450563
 10
36.21524342903982
 20
31.3449087868952
 10
35.659162850483554
 20
31.14187145606
 10
35.10199981643696
 20
30.93759752704837
 10
34.5435096096868
 20
30.731945969172546
 10
33.98379635446854
 20
30.52530375656061
 10
33.42293020709856
 20
30.317548162700195
 10
32.861261318382994
 20
30.108066658464843
 10
32.29864937568898
 20
29.89710469687921
 10
31.73526879974084
 20
29.684926280351206
 10
31.170804787095154
 20
29.471512982101505
 10
30.605641947080606
 20
29.256761115416637
 10
30.039850295841216
 20
29.040548198992113
 10
29.47349984952094
 20
28.8227517515234
 10
28.90645015531442
 20
28.60361747124298
 10
28.338753520641244
 20
28.38333841610122
 10
27.770409735242655
 20
28.161914953909815
 10
27.201751311286586
 20
27.93904997219327
 10
26.632725941353495
 20
27.714550413001227
 10
26.063525895064608
 20
27.488364494278915
 10
25.494063237292842
 20
27.260930604397437
 10
24.924005245611603
 20
27.03254622364404
 10
24.353736739608316
 20
26.80310729749356
 10
23.783696015474867
 20
26.57156254063668
 10
23.213462345571358
 20
26.33864794433567
 10
22.643210501053264
 20
26.10462689797889
 10
22.072958050472593
 20
25.869184107519306
 10
21.502775150145734
 20
25.632196846444568
 10
20.932696118422907
 20
25.394174202375545
 10
20.362668788056993
 20
25.154922872154053
 10
19.793025601129663
 20
24.914145865908488
 10
19.223644163991192
 20
24.671772729596917
 10
18.654699247797076
 20
24.428066852607714
 10
18.086120626144638
 20
24.183151084057126
 10
17.51811862781071
 20
23.936657489615968
 10
16.950623026392645
 20
23.688708918400472
 10
16.38368619939621
 20
23.4394983057571
 10
15.816975494481044
 20
23.189323009369183
 10
15.251156216327827
 20
22.937588313870034
 10
14.68622836493657
 20
22.68429421925966
 10
14.122121924163297
 20
22.429563206842573
 10
13.558766667605347
 20
22.173518125735015
 10
12.99635528540136
 20
21.916106458258778
 10
12.43469522758513
 20
21.657380476884242
 10
11.874101437772598
 20
21.39735836318295
 10
11.31471415851037
 20
21.135794786734138
 10
10.756463303568266
 20
20.87281235144624
 10
10.199278856802282
 20
20.608533538623753
 10
9.643230904442666
 20
20.342835744358275
 10
9.088704686594165
 20
20.07561417850117
 10
8.535437496974211
 20
19.807043840035185
 10
7.983411767030803
 20
19.53744002300735
 10
7.432855464179004
 20
19.266119376437548
 10
6.88387341351655
 20
18.99346764841474
 10
6.336255566611536
 20
18.719852282852482
 10
5.790089578246148
 20
18.444835381795308
 10
5.245760828697631
 20
18.168311909886768
 10
4.703129215591807
 20
17.890526952339798
 10
4.162212377566899
 20
17.61116509250345
 10
3.6231153499793303
 20
17.330611710654964
 10
3.08585584155357
 20
17.048551267539494
 10
2.5506089037900037
 20
16.765246662129755
 10
2.0169193505261123
 20
16.480925043274986
 10
1.4851725620391447
 20
16.195481375618748
 10
0.955648883249918
 20
15.908425243527354
 10
0.42827843818690375
 20
15.619878883097496
 10
-0.09702649801830093
 20
15.330280314888553
 10
-0.6201955587905709
 20
15.039506444576476
 10
-1.1411585878134833
 20
14.747434545648922
 10
-1.6597929110923728
 20
14.454134581732204
 10
-2.176361234909844
 20
14.159781551809038
 10
-2.6908808474729726
 20
13.864690259510844
 10
-3.202948799952503
 20
13.568440375434138
 10
-3.712424779715575
 20
13.270786446554258
 10
-4.219448748963917
 20
12.97197331287632
 10
-4.723961742086108
 20
12.672182384979383
 10
-5.226075009021301
 20
12.371323714800068
 10
-5.725735821832564
 20
12.069589624665289
 10
-6.222891662841702
 20
11.767172804713656
 10
-6.7173847910363
 20
11.463512753081291
 10
-7.209092602507954
 20
11.158679555998388
 10
-7.698242924499254
 20
10.853356319237262
 10
-8.184818188458207
 20
10.547227748750869
 10
-8.668503100337771
 20
10.240311413091199
 10
-9.149542867954798
 20
9.93246713979783
 10
-9.627692283492427
 20
9.623835101331183
 10
-10.102968915502656
 20
9.314730591738302
 10
-10.575688058032526
 20
9.0051360424672
 10
-11.045376676022606
 20
8.694508520205968
 10
-11.512210079037263
 20
8.38372382086555
 10
-11.976451043445321
 20
8.07295706603259
 10
-12.437801655774
 20
7.761402546026343
 10
-12.895894104298023
 20
7.449270519537424
 10
-13.351061251616422
 20
7.136858712060894
 10
-13.803373183959401
 20
6.82428972750518
 10
-14.25268972886655
 20
6.511318358053434
 10
-14.698835764751236
 20
6.198207380074484
 10
-15.14205649943029
 20
5.884816621107929
 10
-15.582316983777492
 20
5.571654065339436
 10
-16.01947704533243
 20
5.258474504952164
 10
-16.453466597864896
 20
4.945155336037691
 10
-16.884355727605104
 20
4.631819162504438
 10
-17.31216200310503
 20
4.318781278399451
 10
-17.737008028273095
 20
4.005971597492532
 10
-18.158508422832046
 20
3.693285084427243
 10
-18.576663186781897
 20
3.3807217392035787
 10
-18.99152483780085
 20
3.0680888716829164
 10
-19.4030408582107
 20
2.7555791720038796
 10
-19.81142150670205
 20
2.443560451891738
 10
-20.21661426559668
 20
2.1322254014851203
 10
-20.618338789973777
 20
1.82108360515033
 10
-21.016717683741764
 20
1.5100649766571688
 10
-21.411313048945175
 20
1.199257170787823
 10
-21.80258035209146
 20
0.8888878268071515
 10
-22.190589679410824
 20
0.5790795486235794
 10
-22.575095823086418
 20
0.2699725086975161
 10
-22.956028696888048
 20
-0.03855589687947041
 10
-23.333300646033514
 20
-0.3469435660628422
 10
-23.707069411535215
 20
-0.6546299969887067
 10
-24.077545252083766
 20
-0.9612473779318017
 10
-24.44425513261972
 20
-1.267338642204031
 10
-24.807321657051492
 20
-1.5729738760356005
 10
-25.166639790022664
 20
-1.8777676991492567
 10
-25.52233213544164
 20
-2.181790197775206
 10
-25.87446877953863
 20
-2.4849187680050235
 10
-26.22271685971461
 20
-2.7874511353337703
 10
-26.567216548429975
 20
-3.0891420919446104
 10
-26.907967845684727
 20
-3.389991637837535
 10
-27.24525109639968
 20
-3.6895093573788564
 10
-27.578751006527796
 20
-3.9876776820165936
 10
-27.908502525195296
 20
-4.285004595936417
 10
-28.234242876033356
 20
-4.581665220724969
 10
-28.556129800054368
 20
-4.87709905451836
 10
-28.874426073627166
 20
-5.171130975729944
 10
-29.188728747922497
 20
-5.4641813137632065
 10
-29.499055391492366
 20
-5.755934774571104
 10
-29.80572129838381
 20
-6.046408926705617
 10
-30.108481260779982
 20
-6.335463597706338
 10
-30.40712501999028
 20
-6.623466599298541
 10
-30.70186283470531
 20
-6.910050119756948
 10
-30.992764791155274
 20
-7.195091555173147
 10
-31.279760803109966
 20
-7.478713509455553
 10
-31.562728266660976
 20
-7.760845896373964
 10
-31.841597095578088
 20
-8.041611319836809
 10
-32.116559979999934
 20
-8.32095726216586
 10
-32.38737171210967
 20
-8.598743550900718
 10
-32.65417246436769
 20
-8.874724978224528
 10
-32.91706727213045
 20
-9.149286924414548
 10
-33.17568832367268
 20
-9.422219130780176
 10
-33.43008813667259
 20
-9.69371428746002
 10
-33.680547056051
 20
-9.963281978820405
 10
-33.9270650818079
 20
-10.230922204861322
 10
-34.16937943757447
 20
-10.496810087169415
 10
-34.40742003712052
 20
-10.761068229653112
 10
-34.641239398124235
 20
-11.02388932245103
 10
-34.87094274391982
 20
-11.284520173560658
 10
-35.09658259218548
 20
-11.543153473120617
 10
-35.31801877046079
 20
-11.80003442894775
 10
-35.53512867483737
 20
-12.055092954811858
 10
-35.74805247777559
 20
-12.308083842896096
 10
-35.95665000681506
 20
-12.559252301017302
 10
-36.16099134818598
 20
-12.808475725267066
 10
-36.36114658811856
 20
-13.055631511736955
 10
-36.55685295024395
 20
-13.300894782013614
 10
-36.74832069325277
 20
-13.543897724371774
 10
-36.93539207613265
 20
-13.785200840675333
 10
-37.118224839895966
 20
-14.024243629060392
 10
-37.2967488983125
 20
-14.261148693435379
 10
-37.47089416515207
 20
-14.496038637708711
 10
-37.64053803650623
 20
-14.728843375650184
 10
-37.805873202513645
 20
-14.95951038958159
 10
-37.96698731795646
 20
-15.187601781547443
 10
-38.123740210374294
 20
-15.413362759364597
 10
-38.27613187976714
 20
-15.636793323033052
 10
-38.42435501627362
 20
-15.857840954874584
 10
-38.56809432584669
 20
-16.07648808633721
 10
-38.707612584855184
 20
-16.2925595958343
 10
-38.842927361851075
 20
-16.50574018931879
 10
-38.974161260742804
 20
-16.716099953020887
 10
-39.101051505161514
 20
-16.923814008527238
 10
-39.22379078524585
 20
-17.128829838159618
 10
-39.34213389317897
 20
-17.331007269457622
 10
-39.45646620923812
 20
-17.530241267064817
 10
-39.56661261183665
 20
-17.726269054612366
 10
-39.6725555324226
 20
-17.91940592614732
 10
-39.77429497099594
 20
-18.109651881669684
 10
-39.87183092755668
 20
-18.29700692117945
 10
-39.965180970656824
 20
-18.48115575062958
 10
-40.05434510029634
 20
-18.66209837002006
 10
-40.139235661693064
 20
-18.84027267730637
 10
-40.21994030962918
 20
-19.015240774533037
 10
-40.29617869918386
 20
-19.187493077333755
 10
-40.368231175277934
 20
-19.35653917007483
 10
-40.43581739299059
 20
-19.522869468389953
 10
-40.49907752478221
 20
-19.686238764462274
 10
-40.55801157065282
 20
-19.846647058291797
 10
-40.61242684046379
 20
-20.004146867556745
 10
-40.66270871449236
 20
-20.158633156900674
 10
-40.708279122322665
 20
-20.310263479358245
 10
-40.74964604814037
 20
-20.459002885803223
 10
-40.786494197898435
 20
-20.60483380768362
 10
-40.81903383028745
 20
-20.747388433274168
 10
-40.84724737675546
 20
-20.886982056621925
 10
-40.871082319624236
 20
-21.02342198758825
 10
-40.890819003814585
 20
-21.15621781053947
 10
-40.906369774544316
 20
-21.28580742343104
 10
-40.91775220036542
 20
-21.411875532215923
 10
-40.925106453738316
 20
-21.534176929077276
 10
-40.92871287958379
 20
-21.652221198381394
 10
-40.928571477901876
 20
-21.766008340128295
 10
-40.924945025061376
 20
-21.87536323273132
 10
-40.91793874439646
 20
-21.979532684187966
 10
-40.90795558473639
 20
-22.07809636509474
 10
-40.89581901229161
 20
-22.169898322597618
 10
-40.8817744228567
 20
-22.253940156877242
 10
-40.86706580002334
 20
-22.328330291629054
 10
-40.852937127383214
 20
-22.3911771505485
 10
-40.840825266644345
 20
-22.439398067373034
 10
-40.83260497747026
 20
-22.4699980306223
 10
-40.38701335449956
 20
-23.25489124772382
 10
-40.38110948249915
 20
-23.259812408679498
 10
-40.36346795272813
 20
-23.274453287638103
 10
-40.334369110107325
 20
-23.29832346896595
 10
-40.29249888481484
 20
-23.33343713287601
 10
-40.23663067383326
 20
-23.38250913390557
 10
-40.17028635722472
 20
-23.439093982586456
 10
-40.09551600421714
 20
-23.499320871527374
 10
-40.01347594361997
 20
-23.56173612237923
 10
-39.9255153823591
 20
-23.62369496683496
 10
-39.83214249259793
 20
-23.684023883488557
 10
-39.7339529133043
 20
-23.7422500252583
 10
-39.63110438549063
 20
-23.797812890280323
 10
-39.523877254077725
 20
-23.850222062920917
 10
-39.41241169152598
 20
-23.89923233536324
 10
-39.296707697835416
 20
-23.944843707607298
 10
-39.17695796314463
 20
-23.987003661974867
 10
-39.05318005600564
 20
-24.0253969044189
 10
-38.92530389018822
 20
-24.060146038847822
 10
-38.793522155831
 20
-24.09119854758341
 10
-38.65757207656515
 20
-24.118729552212308
 10
-38.51752373862089
 20
-24.142616448826093
 10
-38.37376252227544
 20
-24.162754202068324
 10
-38.22571035711295
 20
-24.179300364973663
 10
-38.073805141088876
 20
-24.192342592324295
 10
-37.91773158015619
 20
-24.20186331556824
 10
-37.757682364453494
 20
-24.20781001702727
 10
-37.593727580210995
 20
-24.21006009279297
 10
-37.42565696873809
 20
-24.208981354590605
 10
-37.253610702495195
 20
-24.20432859460333
 10
-37.077308436561474
 20
-24.196592228464834
 10
-36.89696042962755
 20
-24.185404444449855
 10
-36.712549113141435
 20
-24.171080536605434
 10
-36.523951883194705
 20
-24.153550418701368
 10
-36.33102856732697
 20
-24.13305929855451
 10
-36.133971855676826
 20
-24.10955465848663
 10
-35.93271166201409
 20
-24.08315910240616
 10
-35.72724798633877
 20
-24.053872630313094
 10
-35.517247966051805
 20
-24.0219929677025
 10
-35.30302689520027
 20
-23.987537683126355
 10
-35.08440965219751
 20
-23.950244000215836
 10
-34.86164144486037
 20
-23.91025209143135
 10
-34.63445949682002
 20
-23.86773707835954
 10
-34.402986411984884
 20
-23.8227690472306
 10
-34.16716967267675
 20
-23.775155307905916
 10
-33.927272055264446
 20
-23.72472073879884
 10
-33.68310086960933
 20
-23.671517857587595
 10
-33.43483123729808
 20
-23.615809440641005
 10
-33.18234055442222
 20
-23.557525401728867
 10
-32.92562882098179
 20
-23.49666574085119
 10
-32.66490629566739
 20
-23.43286264628269
 10
-32.40029558238745
 20
-23.36618620425359
 10
-32.131674077233534
 20
-23.296566328533675
 10
-31.859024211653658
 20
-23.224318313169988
 10
-31.582345985647834
 20
-23.149442158162543
 10
-31.30191974413686
 20
-23.07144744787764
 10
-31.01772791856877
 20
-22.990649476362336
 10
-30.729717991265336
 20
-22.906855553477996
 10
-30.437819875996343
 20
-22.82018828313305
 10
-30.142156176670234
 20
-22.73071775155769
 10
-29.842796979517196
 20
-22.638321354843512
 10
-29.539672198307038
 20
-22.543121696898925
 10
-29.232781833039745
 20
-22.44511877772393
 10
-28.922195969945545
 20
-22.344189993410108
 10
-28.60796712670263
 20
-22.240528034096084
 10
-28.290095303311013
 20
-22.13413289978185
 10
-27.968527982092482
 20
-22.0248119003288
 10
-27.643370198403456
 20
-21.912950416014162
 10
-27.314569434565733
 20
-21.79835575669933
 10
-26.982055604349103
 20
-21.68115052629272
 10
-26.646021397892195
 20
-21.5612822071161
 10
-26.306677073885616
 20
-21.43838298744422
 10
-25.96381237363875
 20
-21.312820679002336
 10
-25.61716452078278
 20
-21.184770403377104
 10
-25.26717141327317
 20
-21.0543198153507
 10
-24.91372801575348
 20
-20.921083534645874
 10
-24.556904414453914
 20
-20.7849389573542
 10
-24.196805644730915
 20
-20.64627146375293
 10
-23.83323901644586
 20
-20.505133571520297
 10
-23.466344702059143
 20
-20.361280072839445
 10
-23.096245305479194
 20
-20.21478105394058
 10
-22.723010912936218
 20
-20.065513910915275
 10
-22.3464312657396
 20
-19.913846455488795
 10
-21.966646536349757
 20
-19.759533479844308
 10
-21.583516552306268
 20
-19.60282019179865
 10
-21.19749678011659
 20
-19.443478952086963
 10
-20.808271925733692
 20
-19.28149219215726
 10
-20.415964593065972
 20
-19.116929998239744
 10
-20.020627299791666
 20
-18.949985060473047
 10
-19.622277614462757
 20
-18.780342084810115
 10
-19.220897968527254
 20
-18.608316365298
 10
-18.816681052123784
 20
-18.433855384258482
 10
-18.40952182989592
 20
-18.25657376141431
 10
-17.999665509660485
 20
-18.076611669225887
 10
-17.586901832726888
 20
-17.894336919418475
 10
-17.17123079909512
 20
-17.70974951199209
 10
-16.752652408765186
 20
-17.522849446946722
 10
-16.331499524336117
 20
-17.33333899878731
 10
-15.907912318268314
 20
-17.14097295969701
 10
-15.481487841732552
 20
-16.946171659079305
 10
-15.052471302545666
 20
-16.749075269394602
 10
-14.620880269259642
 20
-16.54936849659585
 10
-14.186977518243316
 20
-16.34687621909642
 10
-13.750552790806076
 20
-16.141966248621564
 10
-13.311588518395926
 20
-15.93495387921834
 10
-12.870102269564864
 20
-15.725523816839699
 10
-12.4263043030035
 20
-15.513308249760367
 10
-11.98029965406826
 20
-15.298692558257605
 10
-11.532018236528947
 20
-15.081799346239826
 10
-11.081214842568723
 20
-14.862488441246631
 10
-10.62832737014305
 20
-14.640847498060204
 10
-10.173373387803924
 20
-14.416561222633502
 10
-9.716352895551324
 20
-14.189629614966517
 10
-9.257318411063483
 20
-13.960245365197876
 10
-8.79591950318939
 20
-13.729021492869698
 10
-8.332489034528065
 20
-13.495660272486914
 10
-7.86718474609191
 20
-13.259601202185634
 10
-7.399936551650711
 20
-13.020966885874275
 10
-6.930989659021316
 20
-12.779897496013248
 10
-6.459941119374489
 20
-12.536813362006036
 10
-5.987053709079066
 20
-12.291539362266004
 10
-5.51232742813504
 20
-12.044075496793148
 10
-5.035902449002818
 20
-11.794176557770621
 10
-4.557708685452204
 20
-11.54196514910685
 10
-4.077851172839623
 20
-11.287826651079081
 10
-3.5962248758086504
 20
-11.031375683410069
 10
-3.113215174636527
 20
-10.772507210743372
 10
-2.6287519830930544
 20
-10.511343836987413
 10
-2.142765214948031
 20
-10.248008166050615
 10
-1.6552023525232322
 20
-9.98230750779435
 10
-1.1665713800043471
 20
-9.714206913092392
 10
-0.6768197797131387
 20
-9.443513691806105
 10
-0.18540443035996568
 20
-9.17089338115582
 10
0.3073593740081146
 20
-8.896363549693527
 10
0.8009285121014594
 20
-8.619258660198895
 10
1.2957584504275288
 20
-8.339806351936785
 10
1.79179667130811
 20
-8.058199315045814
 10
2.2886577944659368
 20
-7.774332514169555
 10
2.7865169414876583
 20
-7.487943172939173
 10
3.2851289045564345
 20
-7.199171463815073
 10
3.7848966325014937
 20
-6.908437716200748
 10
4.285557348954001
 20
-6.615566808509555
 10
4.786638018854537
 20
-6.320015807429579
 10
5.288471504802108
 20
-6.022082438455893
 10
5.791215547809133
 20
-5.72232720345238
 10
6.294537495535246
 20
-5.420452744735712
 10
6.798501219627981
 20
-5.116286234000417
 10
7.30313073657248
 20
-4.810154244853129
 10
7.80814591170663
 20
-4.501566729471876
 10
8.313546885202896
 20
-4.1905239330644735
 10
8.81949139807366
 20
-3.8775863574948235
 10
9.325927212985626
 20
-3.5629471833171813
 10
9.832906917703252
 20
-3.2464138429968226
 10
10.340097719713722
 20
-2.927688733642603
 10
10.847639861563684
 20
-2.6070171856752675
 10
11.35553362359806
 20
-2.2843996895104506
 10
11.86365633182218
 20
-1.959906208774456
 10
12.371797937804141
 20
-1.6331692995537335
 10
12.880098614004343
 20
-1.3044341696651287
 10
13.388593497526765
 20
-0.9743314072027387
 10
13.897457990302948
 20
-0.6425987262133744
 10
14.406236555739234
 20
-0.30900836482825417
 10
14.915122024146687
 20
0.026386914066574375
 10
15.42386918770847
 20
0.3634469380107112
 10
15.93267080664944
 20
0.7021190667220247
 10
16.44145686482562
 20
1.0425257815050288
 10
16.95005224065038
 20
1.3844043059908997
 10
17.45871971049254
 20
1.727579518592996
 10
17.967389398380586
 20
2.0721736554080055
 10
18.47574580000878
 20
2.418169515695676
 10
18.983981745688205
 20
2.7655143365699675
 10
19.492114803970868
 20
3.1138928239838415
 10
19.999987303930563
 20
3.463865357197266
 10
20.507494070038444
 20
3.815046801140828
 10
21.014775274754882
 20
4.167191947997662
 10
21.521760901935917
 20
4.520423279072296
 10
22.02831077912113
 20
4.874986002181559
 10
22.534565148857187
 20
5.230634786904721
 10
23.040418625356455
 20
5.586984865984045
 10
23.545853780239447
 20
5.944351288258786
 10
24.050958268288344
 20
6.302296155773465
 10
24.555521690640067
 20
6.661187525461164
 10
25.059474031150646
 20
7.021147878626398
 10
25.56295546228048
 20
7.381932007452315
 10
26.06593061438596
 20
7.743032663376703
 10
26.568522301634207
 20
8.104519564818037
 10
27.070397521253724
 20
8.466690682479198
 10
27.571626219302242
 20
8.829423657659575
 10
28.072208465866
 20
9.192718367755264
 10
28.57221420700275
 20
9.556452454065662
 10
29.071327798234286
 20
9.920608961058326
 10
29.569742139957928
 20
10.285135003243306
 10
30.06740429397804
 20
10.649838626105423
 10
30.564577387094666
 20
11.01454409503851
 10
31.060735235794013
 20
11.379602756651002
 10
31.55594799639256
 20
11.744891884430592
 10
32.05068870394972
 20
12.109868545065359
 10
32.5442912828363
 20
12.475128802564978
 10
33.03668543656339
 20
12.84079562864959
 10
33.528414496679325
 20
13.206203118287144
 10
34.01937286713782
 20
13.570966872031649
 10
34.50926277463855
 20
13.935892354356037
 10
34.998031421158366
 20
14.300787365537303
 10
35.48555578227147
 20
14.665582554968706
 10
35.97209884460539
 20
15.03010243325188
 10
36.457607740050726
 20
15.394154923267719
 10
36.94215234457903
 20
15.75761778891956
 10
37.42546967156275
 20
16.12066651960574
 10
37.90741926819658
 20
16.48354681355875
 10
38.38821132308489
 20
16.845890981657238
 10
38.867845766141436
 20
17.207699146505092
 10
39.346146704831064
 20
17.568709880376502
 10
39.823359837574245
 20
17.929062497504496
 10
40.29902899700118
 20
18.28898586319302
 10
40.77322412916965
 20
18.648357618741482
 10
41.24629538488571
 20
19.006565235023384
 10
41.71817274800544
 20
19.363731193343256
 10
42.18846992713057
 20
19.719962122908345
 10
42.65750270691175
 20
20.07527473404327
 10
43.124955022353404
 20
20.42965280683903
 10
43.59094961753642
 20
20.783166182318027
 10
44.055503570409165
 20
21.135500424660574
 10
44.51849378645962
 20
21.486586305863813
 10
44.980183252315285
 20
21.836248336529383
 10
45.44011559034773
 20
22.184715749772955
 10
45.89853649897739
 20
22.532127859827575
 10
46.35512991320872
 20
22.878468446784257
 10
46.810315999991744
 20
23.223002500211997
 10
47.26397173490069
 20
23.565660669504055
 10
47.71592229897478
 20
23.907317892344004
 10
48.16572853270642
 20
24.247888720820022
 10
48.61419682435766
 20
24.586531637897753
 10
49.06101103884673
 20
24.923230546272137
 10
49.50589048082163
 20
25.258476474596392
 10
49.94883501010991
 20
25.592269668078334
 10
50.38991450268309
 20
25.92448789062128
 10
50.82947924951972
 20
26.254518367890917
 10
51.26714274896287
 20
26.58246809690623
 10
51.70294065100108
 20
26.908843835813805
 10
52.1366266264378
 20
27.233507373815772
 10
52.568340637474776
 20
27.556213870907005
 10
52.99822271639993
 20
27.876718364478485
 10
53.426132410407966
 20
28.195266552762686
 10
53.85194641472812
 20
28.511789575568482
 10
54.275927786074156
 20
28.82611182089361
 10
54.69783019524958
 20
29.138095077940196
 10
55.11756626781707
 20
29.448176754248063
 10
55.53488953440766
 20
29.75621888422717
 10
55.950309170672945
 20
30.062184434484834
 10
56.36347283085274
 20
30.36555153040065
 10
56.77462649371241
 20
30.66645899579205
 10
57.183699792676855
 20
30.965029924983057
 10
57.590306226089076
 20
31.261371314992648
 10
57.994515529748206
 20
31.555361174931967
 10
58.396643698563544
 20
31.847015847313905
 10
58.79639146514298
 20
32.13600516682541
 10
59.19402174602779
 20
32.42215376667202
 10
59.58920097775665
 20
32.70576059838788
 10
59.981981888266475
 20
32.9870179842999
 10
60.372311259016726
 20
33.26573446030854
 10
60.760188809662516
 20
33.541910516829425
 10
61.14570142403747
 20
33.8151096045501
 10
61.52876179779058
 20
34.08576900840648
 10
61.90919347769677
 20
34.353628281503966
 10
62.28697910546281
 20
34.61900235007791
 10
62.6623287996068
 20
34.881523647610855
 10
63.03518920141583
 20
35.141000955211105
 10
63.405349771854304
 20
35.39780257501952
 10
63.77281030066354
 20
35.65192887484783
 10
64.13757050749865
 20
35.903380345111685
 10
64.49952409545102
 20
36.151773812404194
 10
64.85905721574645
 20
36.3970028927259
 10
65.21569606237695
 20
36.63961186803171
 10
65.56938734671579
 20
36.879409396826006
 10
65.92025388293006
 20
37.11646519752724
 10
66.26831246862325
 20
37.35046532473139
 10
66.61336964270818
 20
37.581463644759644
 10
66.95560136780625
 20
37.80972146273393
 10
67.29497129306661
 20
38.03473324654676
 10
67.63133903577018
 20
38.25674457182668
 10
67.96477447188848
 20
38.475633202477006
 10
68.29506699229972
 20
38.69176756324255
 10
68.62235655920563
 20
38.90490281411819
 10
68.94651972766306
 20
39.11497034012064
 10
69.26762637364348
 20
39.32184790515317
 10
69.58572936525626
 20
39.525727586334874
 10
69.90051200672977
 20
39.72659426719195
 10
70.21197394763284
 20
39.924448560743926
 10
70.5203082986215
 20
40.119237213689146
 10
70.82558521601219
 20
40.31083749951528
 10
71.12734930338362
 20
40.49947693488325
 10
71.42571713722847
 20
40.685236149959415
 10
71.7209057746017
 20
40.867735440439375
 10
72.01271916122559
 20
41.047033208988964
 10
72.3010169844673
 20
41.22337490863285
 10
72.58606237112674
 20
41.396584804764814
 10
72.86767872780655
 20
41.56640269569814
 10
73.14584883638582
 20
41.73314326246033
 10
73.4205024003757
 20
41.89692947677152
 10
73.69151604491915
 20
42.057692601044494
 10
73.95902973221799
 20
42.21518779527415
 10
74.22297302561078
 20
42.369538276388425
 10
74.48320561246473
 20
42.52098949741201
 10
74.73979729866511
 20
42.669419344852116
 10
74.99276495190152
 20
42.814513750700755
 10
75.24210822174291
 20
42.95627332797749
 10
75.48766985778043
 20
43.09525772031885
 10
75.72939643121492
 20
43.23127583143702
 10
75.96728787196014
 20
43.3643277839359
 10
76.2014139158151
 20
43.49429158692661
 10
76.43165125800908
 20
43.62109838021803
 10
76.6581227827955
 20
43.744817759624745
 10
76.8805650830294
 20
43.86562595016856
 10
77.09911798074002
 20
43.983278357052164
 10
77.31364116329449
 20
44.098020433300235
 10
77.5243978275791
 20
44.20967632170269
 10
77.7310011915919
 20
44.318353509694106
 10
77.93350419352855
 20
44.42424395178968
 10
78.13185354476228
 20
44.527156306493765
 10
78.32624235594908
 20
44.6270373205047
 10
78.51640651908177
 20
44.72406444488339
 10
78.70260888061539
 20
44.81806243543926
 10
78.88439698775042
 20
44.90925365946915
 10
79.06208164901514
 20
44.99766353217515
 10
79.23541835745502
 20
45.083150655057786
 10
79.40453013749585
 20
45.16578437872381
 10
79.56941684896519
 20
45.24556494838103
 10
79.73000819537413
 20
45.32261533574959
 10
79.88625102826839
 20
45.396743954126045
 10
80.03800489484263
 20
45.46819650174288
 10
80.18546311601159
 20
45.53691935748671
 10
80.32843209051559
 20
45.602966632886535
 10
80.46698183449863
 20
45.66621584663786
 10
80.60104219164425
 20
45.726789725253006
 10
80.73068303792402
 20
45.78456603263529
 10
80.85583421702148
 20
45.83966749529703
 10
80.97635548638999
 20
45.89233944365898
 10
81.09226357354677
 20
45.94226805492101
 10
81.2037348616306
 20
45.98971389858157
 10
81.31032935009911
 20
46.03459299797574
 10
81.412486829236
 20
46.07698969758019
 10
81.50996068949979
 20
46.11676627701266
 10
81.60261068834386
 20
46.15416806669392
 10
81.69063007659669
 20
46.189141568114465
 10
81.77389547940128
 20
46.22161804368711
 10
81.8522667242973
 20
46.251842701228696
 10
81.9260070782571
 20
46.27963956092519
 10
81.99485313413585
 20
46.30518484779844
 10
82.05887483799128
 20
46.32835620314784
 10
82.11793201736295
 20
46.34939883479023
 10
82.1720947584811
 20
46.36819013881718
 10
82.22141606962754
 20
46.38492194713996
 10
82.26564941134704
 20
46.39945641677242
 10
82.30484800218017
 20
46.41198501181413
 10
82.33913500672512
 20
46.42257683766398
 10
82.36826388552672
 20
46.431094051335855
 10
82.39221763072283
 20
46.437850966045524
 10
82.41118977348683
 20
46.44279359286787
 10
82.42479332155818
 20
46.446029787049234
 10
82.43308170373608
 20
46.44775064487742
 10
82.43591453730141
 20
46.448201741980995
  0
ENDSEC
  0
SECTION
  2
OBJECTS
  0
DICTIONARY
  5
A
330
0
100
AcDbDictionary
280
0
281
1
  3
ACAD_COLOR
350
B
  3
ACAD_GROUP
350
C
  3
ACAD_LAYOUT
350
D
  3
ACAD_MATERIAL
350
E
  3
ACAD_MLEADERSTYLE
350
F
  3
ACAD_MLINESTYLE
350
10
  3
ACAD_PLOTSETTINGS
350
11
  3
ACAD_PLOTSTYLENAME
350
12
  3
ACAD_SCALELIST
350
14
  3
ACAD_TABLESTYLE
350
15
  3
ACAD_VISUALSTYLE
350
16
  3
EZDXF_META
350
2D
  0
DICTIONARY
  5
B
330
A
100
AcDbDictionary
280
0
281
1
  0
DICTIONARY
  5
C
330
A
100
AcDbDictionary
280
0
281
1
  0
DICTIONARY
  5
D
330
A
100
AcDbDictionary
280
0
281
1
  3
Model
350
1A
  3
Layout1
350
1E
  0
DICTIONARY
  5
E
330
A
100
AcDbDictionary
280
0
281
1
  3
ByBlock
350
1F
  3
ByLayer
350
20
  3
Global
350
21
  0
DICTIONARY
  5
F
330
A
100
AcDbDictionary
280
0
281
1
  3
Standard
350
2C
  0
DICTIONARY
  5
10
330
A
100
AcDbDictionary
280
0
281
1
  3
Standard
350
22
  0
DICTIONARY
  5
11
330
A
100
AcDbDictionary
280
0
281
1
  0
ACDBDICTIONARYWDFLT
  5
12
330
A
100
AcDbDictionary
280
0
281
1
  3
Normal
350
13
100
AcDbDictionaryWithDefault
340
13
  0
ACDBPLACEHOLDER
  5
13
330
12
  0
DICTIONARY
  5
14
330
A
100
AcDbDictionary
280
0
281
1
  0
DICTIONARY
  5
15
330
A
100
AcDbDictionary
280
0
281
1
  0
DICTIONARY
  5
16
330
A
100
AcDbDictionary
280
0
281
1
  0
LAYOUT
  5
1A
330
D
100
AcDbPlotSettings
  1

  4
A3
  6

 40
7.5
 41
20.0
 42
7.5
 43
20.0
 44
420.0
 45
297.0
 46
0.0
 47
0.0
 48
0.0
 49
0.0
140
0.0
141
0.0
142
1.0
143
1.0
 70
1024
 72
1
 73
0
 74
5
  7

 75
16
 76
0
 77
2
 78
300
147
1.0
148
0.0
149
0.0
100
AcDbLayout
  1
Model
 70
1
 71
0
 10
0.0
 20
0.0
 11
420.0
 21
297.0
 12
0.0
 22
0.0
 32
0.0
 14
1e+20
 24
1e+20
 34
1e+20
 15
-1e+20
 25
-1e+20
 35
-1e+20
146
0.0
 13
0.0
 23
0.0
 33
0.0
 16
1.0
 26
0.0
 36
0.0
 17
0.0
 27
1.0
 37
0.0
 76
1
330
17
  0
LAYOUT
  5
1E
330
D
100
AcDbPlotSettings
  1

  4
A3
  6

 40
7.5
 41
20.0
 42
7.5
 43
20.0
 44
420.0
 45
297.0
 46
0.0
 47
0.0
 48
0.0
 49
0.0
140
0.0
141
0.0
142
1.0
143
1.0
 70
0
 72
1
 73
0
 74
5
  7

 75
16
 76
0
 77
2
 78
300
147
1.0
148
0.0
149
0.0
100
AcDbLayout
  1
Layout1
 70
1
 71
1
 10
0.0
 20
0.0
 11
420.0
 21
297.0
 12
0.0
 22
0.0
 32
0.0
 14
1e+20
 24
1e+20
 34
1e+20
 15
-1e+20
 25
-1e+20
 35
-1e+20
146
0.0
 13
0.0
 23
0.0
 33
0.0
 16
1.0
 26
0.0
 36
0.0
 17
0.0
 27
1.0
 37
0.0
 76
1
330
1B
  0
MATERIAL
  5
1F
102
{ACAD_REACTORS
330
E
102
}
330
E
100
AcDbMaterial
  1
ByBlock
  2

 70
0
 40
1.0
 71
1
 41
1.0
 91
-1023410177
 42
1.0
 72
1
  3

 73
1
 74
1
 75
1
 44
0.5
 73
0
 45
1.0
 46
1.0
 77
1
  4

 78
1
 79
1
170
1
 48
1.0
171
1
  6

172
1
173
1
174
1
140
1.0
141
1.0
175
1
  7

176
1
177
1
178
1
143
1.0
179
1
  8

270
1
271
1
272
1
145
1.0
146
1.0
273
1
  9

274
1
275
1
276
1
 42
1.0
 72
1
  3

 73
1
 74
1
 75
1
 94
63
  0
MATERIAL
  5
20
102
{ACAD_REACTORS
330
E
102
}
330
E
100
AcDbMaterial
  1
ByLayer
  2

 70
0
 40
1.0
 71
1
 41
1.0
 91
-1023410177
 42
1.0
 72
1
  3

 73
1
 74
1
 75
1
 44
0.5
 73
0
 45
1.0
 46
1.0
 77
1
  4

 78
1
 79
1
170
1
 48
1.0
171
1
  6

172
1
173
1
174
1
140
1.0
141
1.0
175
1
  7

176
1
177
1
178
1
143
1.0
179
1
  8

270
1
271
1
272
1
145
1.0
146
1.0
273
1
  9

274
1
275
1
276
1
 42
1.0
 72
1
  3

 73
1
 74
1
 75
1
 94
63
  0
MATERIAL
  5
21
102
{ACAD_REACTORS
330
E
102
}
330
E
100
AcDbMaterial
  1
Global
  2

 70
0
 40
1.0
 71
1
 41
1.0
 91
-1023410177
 42
1.0
 72
1
  3

 73
1
 74
1
 75
1
 44
0.5
 73
0
 45
1.0
 46
1.0
 77
1
  4

 78
1
 79
1
170
1
 48
1.0
171
1
  6

172
1
173
1
174
1
140
1.0
141
1.0
175
1
  7

176
1
177
1
178
1
143
1.0
179
1
  8

270
1
271
1
272
1
145
1.0
146
1.0
273
1
  9

274
1
275
1
276
1
 42
1.0
 72
1
  3

 73
1
 74
1
 75
1
 94
63
  0
MLINESTYLE
  5
22
102
{ACAD_REACTORS
330
10
102
}
330
10
100
AcDbMlineStyle
  2
Standard
 70
0
  3

 62
256
 51
90.0
 52
90.0
 71
2
 49
0.5
 62
256
  6
BYLAYER
 49
-0.5
 62
256
  6
BYLAYER
  0
MLEADERSTYLE
  5
2C
102
{ACAD_REACTORS
330
F
102
}
330
F
100
AcDbMLeaderStyle
179
2
170
2
171
1
172
0
 90
2
 40
0.0
 41
0.0
173
1
 91
-1056964608
 92
-2
290
1
 42
2.0
291
1
 43
8.0
  3
Standard
 44
4.0
300

342
29
174
1
175
1
176
0
178
1
 93
-1056964608
 45
4.0
292
0
297
0
 46
4.0
 94
-1056964608
 47
1.0
 49
1.0
140
1.0
294
1
141
0.0
177
0
142
1.0
295
0
296
0
143
3.75
271
0
272
9
273
9
  0
DICTIONARY
  5
2D
330
A
100
AcDbDictionary
280
1
281
1
  3
CREATED_BY_EZDXF
350
2E
  3
WRITTEN_BY_EZDXF
350
32
  0
DICTIONARYVAR
  5
2E
330
2D
100
DictionaryVariables
280
0
  1
1.3.5 @ 2025-08-20T01:28:29.084283+00:00
  0
DICTIONARYVAR
  5
32
330
2D
100
DictionaryVariables
280
0
  1
1.3.5 @ 2025-08-20T01:28:29.099885+00:00
  0
ENDSEC
  0
EOF
