  0
SECTION
  2
HEADER
  9
$ACADVER
  1
AC1032
  9
$ACADMAINTVER
 90
4
  9
$DWGCODEPAGE
  3
ANSI_1252
  9
$LASTSAVEDBY
  1
ezdxf
  9
$REQUIREDVERSIONS
160
0
  9
$INSBASE
 10
0.0
 20
0.0
 30
0.0
  9
$EXTMIN
 10
1e+20
 20
1e+20
 30
1e+20
  9
$EXTMAX
 10
-1e+20
 20
-1e+20
 30
-1e+20
  9
$LIMMIN
 10
0.0
 20
0.0
  9
$LIMMAX
 10
420.0
 20
297.0
  9
$ORTHOMODE
 70
0
  9
$REGENMODE
 70
1
  9
$FILLMODE
 70
1
  9
$QTEXTMODE
 70
0
  9
$MIRRTEXT
 70
1
  9
$LTSCALE
 40
1.0
  9
$ATTMODE
 70
1
  9
$TEXTSIZE
 40
2.5
  9
$TRACEWID
 40
1.0
  9
$TEXTSTYLE
  7
Standard
  9
$CLAYER
  8
0
  9
$CELTYPE
  6
ByLayer
  9
$CECOLOR
 62
256
  9
$CELTSCALE
 40
1.0
  9
$DISPSILH
 70
0
  9
$DIMSCALE
 40
1.0
  9
$DIMASZ
 40
2.5
  9
$DIMEXO
 40
0.625
  9
$DIMDLI
 40
3.75
  9
$DIMRND
 40
0.0
  9
$DIMDLE
 40
0.0
  9
$DIMEXE
 40
1.25
  9
$DIMTP
 40
0.0
  9
$DIMTM
 40
0.0
  9
$DIMTXT
 40
2.5
  9
$DIMCEN
 40
2.5
  9
$DIMTSZ
 40
0.0
  9
$DIMTOL
 70
0
  9
$DIMLIM
 70
0
  9
$DIMTIH
 70
0
  9
$DIMTOH
 70
0
  9
$DIMSE1
 70
0
  9
$DIMSE2
 70
0
  9
$DIMTAD
 70
1
  9
$DIMZIN
 70
8
  9
$DIMBLK
  1

  9
$DIMASO
 70
1
  9
$DIMSHO
 70
1
  9
$DIMPOST
  1

  9
$DIMAPOST
  1

  9
$DIMALT
 70
0
  9
$DIMALTD
 70
3
  9
$DIMALTF
 40
0.03937007874
  9
$DIMLFAC
 40
1.0
  9
$DIMTOFL
 70
1
  9
$DIMTVP
 40
0.0
  9
$DIMTIX
 70
0
  9
$DIMSOXD
 70
0
  9
$DIMSAH
 70
0
  9
$DIMBLK1
  1

  9
$DIMBLK2
  1

  9
$DIMSTYLE
  2
ISO-25
  9
$DIMCLRD
 70
0
  9
$DIMCLRE
 70
0
  9
$DIMCLRT
 70
0
  9
$DIMTFAC
 40
1.0
  9
$DIMGAP
 40
0.625
  9
$DIMJUST
 70
0
  9
$DIMSD1
 70
0
  9
$DIMSD2
 70
0
  9
$DIMTOLJ
 70
0
  9
$DIMTZIN
 70
8
  9
$DIMALTZ
 70
0
  9
$DIMALTTZ
 70
0
  9
$DIMUPT
 70
0
  9
$DIMDEC
 70
2
  9
$DIMTDEC
 70
2
  9
$DIMALTU
 70
2
  9
$DIMALTTD
 70
3
  9
$DIMTXSTY
  7
Standard
  9
$DIMAUNIT
 70
0
  9
$DIMADEC
 70
0
  9
$DIMALTRND
 40
0.0
  9
$DIMAZIN
 70
0
  9
$DIMDSEP
 70
44
  9
$DIMATFIT
 70
3
  9
$DIMFRAC
 70
0
  9
$DIMLDRBLK
  1

  9
$DIMLUNIT
 70
2
  9
$DIMLWD
 70
-2
  9
$DIMLWE
 70
-2
  9
$DIMTMOVE
 70
0
  9
$DIMFXL
 40
1.0
  9
$DIMFXLON
 70
0
  9
$DIMJOGANG
 40
0.785398163397
  9
$DIMTFILL
 70
0
  9
$DIMTFILLCLR
 70
0
  9
$DIMARCSYM
 70
0
  9
$DIMLTYPE
  6

  9
$DIMLTEX1
  6

  9
$DIMLTEX2
  6

  9
$DIMTXTDIRECTION
 70
0
  9
$LUNITS
 70
2
  9
$LUPREC
 70
4
  9
$SKETCHINC
 40
1.0
  9
$FILLETRAD
 40
10.0
  9
$AUNITS
 70
0
  9
$AUPREC
 70
2
  9
$MENU
  1
.
  9
$ELEVATION
 40
0.0
  9
$PELEVATION
 40
0.0
  9
$THICKNESS
 40
0.0
  9
$LIMCHECK
 70
0
  9
$CHAMFERA
 40
0.0
  9
$CHAMFERB
 40
0.0
  9
$CHAMFERC
 40
0.0
  9
$CHAMFERD
 40
0.0
  9
$SKPOLY
 70
0
  9
$TDCREATE
 40
2460908.103113426
  9
$TDUCREATE
 40
2458532.153996898
  9
$TDUPDATE
 40
2460908.103113426
  9
$TDUUPDATE
 40
2458532.1544311
  9
$TDINDWG
 40
0.0
  9
$TDUSRTIMER
 40
0.0
  9
$USRTIMER
 70
1
  9
$ANGBASE
 50
0.0
  9
$ANGDIR
 70
0
  9
$PDMODE
 70
0
  9
$PDSIZE
 40
0.0
  9
$PLINEWID
 40
0.0
  9
$SPLFRAME
 70
0
  9
$SPLINETYPE
 70
6
  9
$SPLINESEGS
 70
8
  9
$HANDSEED
  5
33
  9
$SURFTAB1
 70
6
  9
$SURFTAB2
 70
6
  9
$SURFTYPE
 70
6
  9
$SURFU
 70
6
  9
$SURFV
 70
6
  9
$UCSBASE
  2

  9
$UCSNAME
  2

  9
$UCSORG
 10
0.0
 20
0.0
 30
0.0
  9
$UCSXDIR
 10
1.0
 20
0.0
 30
0.0
  9
$UCSYDIR
 10
0.0
 20
1.0
 30
0.0
  9
$UCSORTHOREF
  2

  9
$UCSORTHOVIEW
 70
0
  9
$UCSORGTOP
 10
0.0
 20
0.0
 30
0.0
  9
$UCSORGBOTTOM
 10
0.0
 20
0.0
 30
0.0
  9
$UCSORGLEFT
 10
0.0
 20
0.0
 30
0.0
  9
$UCSORGRIGHT
 10
0.0
 20
0.0
 30
0.0
  9
$UCSORGFRONT
 10
0.0
 20
0.0
 30
0.0
  9
$UCSORGBACK
 10
0.0
 20
0.0
 30
0.0
  9
$PUCSBASE
  2

  9
$PUCSNAME
  2

  9
$PUCSORG
 10
0.0
 20
0.0
 30
0.0
  9
$PUCSXDIR
 10
1.0
 20
0.0
 30
0.0
  9
$PUCSYDIR
 10
0.0
 20
1.0
 30
0.0
  9
$PUCSORTHOREF
  2

  9
$PUCSORTHOVIEW
 70
0
  9
$PUCSORGTOP
 10
0.0
 20
0.0
 30
0.0
  9
$PUCSORGBOTTOM
 10
0.0
 20
0.0
 30
0.0
  9
$PUCSORGLEFT
 10
0.0
 20
0.0
 30
0.0
  9
$PUCSORGRIGHT
 10
0.0
 20
0.0
 30
0.0
  9
$PUCSORGFRONT
 10
0.0
 20
0.0
 30
0.0
  9
$PUCSORGBACK
 10
0.0
 20
0.0
 30
0.0
  9
$USERI1
 70
0
  9
$USERI2
 70
0
  9
$USERI3
 70
0
  9
$USERI4
 70
0
  9
$USERI5
 70
0
  9
$USERR1
 40
0.0
  9
$USERR2
 40
0.0
  9
$USERR3
 40
0.0
  9
$USERR4
 40
0.0
  9
$USERR5
 40
0.0
  9
$WORLDVIEW
 70
1
  9
$SHADEDGE
 70
3
  9
$SHADEDIF
 70
70
  9
$TILEMODE
 70
1
  9
$MAXACTVP
 70
64
  9
$PINSBASE
 10
0.0
 20
0.0
 30
0.0
  9
$PLIMCHECK
 70
0
  9
$PEXTMIN
 10
1e+20
 20
1e+20
 30
1e+20
  9
$PEXTMAX
 10
-1e+20
 20
-1e+20
 30
-1e+20
  9
$PLIMMIN
 10
0.0
 20
0.0
  9
$PLIMMAX
 10
420.0
 20
297.0
  9
$UNITMODE
 70
0
  9
$VISRETAIN
 70
1
  9
$PLINEGEN
 70
0
  9
$PSLTSCALE
 70
1
  9
$TREEDEPTH
 70
3020
  9
$CMLSTYLE
  2
Standard
  9
$CMLJUST
 70
0
  9
$CMLSCALE
 40
20.0
  9
$PROXYGRAPHICS
 70
1
  9
$MEASUREMENT
 70
1
  9
$CELWEIGHT
370
-1
  9
$ENDCAPS
280
0
  9
$JOINSTYLE
280
0
  9
$LWDISPLAY
290
0
  9
$INSUNITS
 70
6
  9
$HYPERLINKBASE
  1

  9
$STYLESHEET
  1

  9
$XEDIT
290
1
  9
$CEPSNTYPE
380
0
  9
$PSTYLEMODE
290
1
  9
$FINGERPRINTGUID
  2
{09D08831-4659-4FA8-8FAC-6684485E16AA}
  9
$VERSIONGUID
  2
{C05321C6-72D2-4E82-9139-221438459E3D}
  9
$EXTNAMES
290
1
  9
$PSVPSCALE
 40
0.0
  9
$OLESTARTUP
290
0
  9
$SORTENTS
280
127
  9
$INDEXCTL
280
0
  9
$HIDETEXT
280
1
  9
$XCLIPFRAME
280
1
  9
$HALOGAP
280
0
  9
$OBSCOLOR
 70
257
  9
$OBSLTYPE
280
0
  9
$INTERSECTIONDISPLAY
280
0
  9
$INTERSECTIONCOLOR
 70
257
  9
$DIMASSOC
280
2
  9
$PROJECTNAME
  1

  9
$CAMERADISPLAY
290
0
  9
$LENSLENGTH
 40
50.0
  9
$CAMERAHEIGHT
 40
0.0
  9
$STEPSPERSEC
 40
24.0
  9
$STEPSIZE
 40
100.0
  9
$3DDWFPREC
 40
2.0
  9
$PSOLWIDTH
 40
0.005
  9
$PSOLHEIGHT
 40
0.08
  9
$LOFTANG1
 40
1.570796326795
  9
$LOFTANG2
 40
1.570796326795
  9
$LOFTMAG1
 40
0.0
  9
$LOFTMAG2
 40
0.0
  9
$LOFTPARAM
 70
7
  9
$LOFTNORMALS
280
1
  9
$LATITUDE
 40
37.795
  9
$LONGITUDE
 40
-122.394
  9
$NORTHDIRECTION
 40
0.0
  9
$TIMEZONE
 70
-8000
  9
$LIGHTGLYPHDISPLAY
280
1
  9
$TILEMODELIGHTSYNCH
280
1
  9
$CMATERIAL
347
20
  9
$SOLIDHIST
280
0
  9
$SHOWHIST
280
1
  9
$DWFFRAME
280
2
  9
$DGNFRAME
280
2
  9
$REALWORLDSCALE
290
1
  9
$INTERFERECOLOR
 62
256
  9
$CSHADOW
280
0
  9
$SHADOWPLANELOCATION
 40
0.0
  0
ENDSEC
  0
SECTION
  2
CLASSES
  0
CLASS
  1
ACDBDICTIONARYWDFLT
  2
AcDbDictionaryWithDefault
  3
ObjectDBX Classes
 90
0
 91
0
280
0
281
0
  0
CLASS
  1
SUN
  2
AcDbSun
  3
SCENEOE
 90
1153
 91
0
280
0
281
0
  0
CLASS
  1
VISUALSTYLE
  2
AcDbVisualStyle
  3
ObjectDBX Classes
 90
4095
 91
0
280
0
281
0
  0
CLASS
  1
MATERIAL
  2
AcDbMaterial
  3
ObjectDBX Classes
 90
1153
 91
0
280
0
281
0
  0
CLASS
  1
SCALE
  2
AcDbScale
  3
ObjectDBX Classes
 90
1153
 91
0
280
0
281
0
  0
CLASS
  1
TABLESTYLE
  2
AcDbTableStyle
  3
ObjectDBX Classes
 90
4095
 91
0
280
0
281
0
  0
CLASS
  1
MLEADERSTYLE
  2
AcDbMLeaderStyle
  3
ACDB_MLEADERSTYLE_CLASS
 90
4095
 91
0
280
0
281
0
  0
CLASS
  1
DICTIONARYVAR
  2
AcDbDictionaryVar
  3
ObjectDBX Classes
 90
0
 91
0
280
0
281
0
  0
CLASS
  1
CELLSTYLEMAP
  2
AcDbCellStyleMap
  3
ObjectDBX Classes
 90
1152
 91
0
280
0
281
0
  0
CLASS
  1
MENTALRAYRENDERSETTINGS
  2
AcDbMentalRayRenderSettings
  3
SCENEOE
 90
1024
 91
0
280
0
281
0
  0
CLASS
  1
ACDBDETAILVIEWSTYLE
  2
AcDbDetailViewStyle
  3
ObjectDBX Classes
 90
1025
 91
0
280
0
281
0
  0
CLASS
  1
ACDBSECTIONVIEWSTYLE
  2
AcDbSectionViewStyle
  3
ObjectDBX Classes
 90
1025
 91
0
280
0
281
0
  0
CLASS
  1
RASTERVARIABLES
  2
AcDbRasterVariables
  3
ISM
 90
0
 91
0
280
0
281
0
  0
CLASS
  1
LAYOUT
  2
AcDbLayout
  3
ObjectDBX Classes
 90
0
 91
0
280
0
281
0
  0
CLASS
  1
ACDBPLACEHOLDER
  2
AcDbPlaceHolder
  3
ObjectDBX Classes
 90
0
 91
0
280
0
281
0
  0
ENDSEC
  0
SECTION
  2
TABLES
  0
TABLE
  2
VPORT
  5
8
330
0
100
AcDbSymbolTable
 70
1
  0
VPORT
  5
23
330
8
100
AcDbSymbolTableRecord
100
AcDbViewportTableRecord
  2
*Active
 70
0
 10
0.0
 20
0.0
 11
1.0
 21
1.0
 12
0.0
 22
0.0
 13
0.0
 23
0.0
 14
0.5
 24
0.5
 15
0.5
 25
0.5
 16
0.0
 26
0.0
 36
1.0
 17
0.0
 27
0.0
 37
0.0
 40
1000.0
 41
1.34
 42
50.0
 43
0.0
 44
0.0
 50
0.0
 51
0.0
 71
0
 72
1000
 73
1
 74
3
 75
0
 76
0
 77
0
 78
0
281
0
 65
0
146
0.0
  0
ENDTAB
  0
TABLE
  2
LTYPE
  5
2
330
0
100
AcDbSymbolTable
 70
3
  0
LTYPE
  5
24
330
2
100
AcDbSymbolTableRecord
100
AcDbLinetypeTableRecord
  2
ByBlock
 70
0
  3

 72
65
 73
0
 40
0.0
  0
LTYPE
  5
25
330
2
100
AcDbSymbolTableRecord
100
AcDbLinetypeTableRecord
  2
ByLayer
 70
0
  3

 72
65
 73
0
 40
0.0
  0
LTYPE
  5
26
330
2
100
AcDbSymbolTableRecord
100
AcDbLinetypeTableRecord
  2
Continuous
 70
0
  3

 72
65
 73
0
 40
0.0
  0
ENDTAB
  0
TABLE
  2
LAYER
  5
1
330
0
100
AcDbSymbolTable
 70
2
  0
LAYER
  5
27
330
1
100
AcDbSymbolTableRecord
100
AcDbLayerTableRecord
  2
0
 70
0
 62
7
  6
Continuous
370
-3
390
13
347
21
  0
LAYER
  5
28
330
1
100
AcDbSymbolTableRecord
100
AcDbLayerTableRecord
  2
Defpoints
 70
0
 62
7
  6
Continuous
290
0
370
-3
390
13
347
21
  0
ENDTAB
  0
TABLE
  2
STYLE
  5
5
330
0
100
AcDbSymbolTable
 70
1
  0
STYLE
  5
29
330
5
100
AcDbSymbolTableRecord
100
AcDbTextStyleTableRecord
  2
Standard
 70
0
 40
0.0
 41
1.0
 50
0.0
 71
0
 42
2.5
  3
txt
  4

  0
ENDTAB
  0
TABLE
  2
VIEW
  5
7
330
0
100
AcDbSymbolTable
 70
0
  0
ENDTAB
  0
TABLE
  2
UCS
  5
6
330
0
100
AcDbSymbolTable
 70
0
  0
ENDTAB
  0
TABLE
  2
APPID
  5
3
330
0
100
AcDbSymbolTable
 70
3
  0
APPID
  5
2A
330
3
100
AcDbSymbolTableRecord
100
AcDbRegAppTableRecord
  2
ACAD
 70
0
  0
APPID
  5
30
330
3
100
AcDbSymbolTableRecord
100
AcDbRegAppTableRecord
  2
HATCHBACKGROUNDCOLOR
 70
0
  0
APPID
  5
31
330
3
100
AcDbSymbolTableRecord
100
AcDbRegAppTableRecord
  2
EZDXF
 70
0
  0
ENDTAB
  0
TABLE
  2
DIMSTYLE
  5
4
330
0
100
AcDbSymbolTable
 70
1
100
AcDbDimStyleTable
  0
DIMSTYLE
105
2B
330
4
100
AcDbSymbolTableRecord
100
AcDbDimStyleTableRecord
  2
Standard
 70
0
 40
1.0
 41
2.5
 42
0.625
 43
3.75
 44
1.25
 45
0.0
 46
0.0
 47
0.0
 48
0.0
 49
2.5
140
2.5
141
2.5
142
0.0
143
0.03937007874
144
1.0
145
0.0
146
1.0
147
0.625
148
0.0
 69
0
 70
0
 71
0
 72
0
 73
0
 74
0
 75
0
 76
0
 77
1
 78
8
 79
3
170
0
171
3
172
1
173
0
174
0
175
0
176
0
177
0
178
0
179
2
271
2
272
2
273
2
274
3
275
0
276
0
277
2
278
44
279
0
280
0
281
0
282
0
283
0
284
8
285
0
286
0
288
0
289
3
290
0
371
-2
372
-2
  0
ENDTAB
  0
TABLE
  2
BLOCK_RECORD
  5
9
330
0
100
AcDbSymbolTable
 70
2
  0
BLOCK_RECORD
  5
17
330
9
100
AcDbSymbolTableRecord
100
AcDbBlockTableRecord
  2
*Model_Space
340
1A
 70
0
280
1
281
0
  0
BLOCK_RECORD
  5
1B
330
9
100
AcDbSymbolTableRecord
100
AcDbBlockTableRecord
  2
*Paper_Space
340
1E
 70
0
280
1
281
0
  0
ENDTAB
  0
ENDSEC
  0
SECTION
  2
BLOCKS
  0
BLOCK
  5
18
330
17
100
AcDbEntity
  8
0
100
AcDbBlockBegin
  2
*Model_Space
 70
0
 10
0.0
 20
0.0
 30
0.0
  3
*Model_Space
  1

  0
ENDBLK
  5
19
330
17
100
AcDbEntity
  8
0
100
AcDbBlockEnd
  0
BLOCK
  5
1C
330
1B
100
AcDbEntity
  8
0
100
AcDbBlockBegin
  2
*Paper_Space
 70
0
 10
0.0
 20
0.0
 30
0.0
  3
*Paper_Space
  1

  0
ENDBLK
  5
1D
330
1B
100
AcDbEntity
  8
0
100
AcDbBlockEnd
  0
ENDSEC
  0
SECTION
  2
ENTITIES
  0
LWPOLYLINE
  5
2F
330
17
100
AcDbEntity
  8
0
100
AcDbPolyline
 90
721
 70
1
 10
51.41386029698432
 20
4.606344744724811
 10
51.41235665872908
 20
4.606742009488918
 10
51.40785902778022
 20
4.607780134585262
 10
51.40039392532456
 20
4.609152318926762
 10
51.389871409234175
 20
4.611004445068639
 10
51.37646474839756
 20
4.613121275467084
 10
51.360090629324716
 20
4.61557201159501
 10
51.3406789825308
 20
4.61827264627638
 10
51.318383197625934
 20
4.621237908456481
 10
51.29313320512531
 20
4.624383790959282
 10
51.2648390429952
 20
4.627856406613518
 10
51.23366737139202
 20
4.631516968684176
 10
51.19954147892254
 20
4.635358304593212
 10
51.162454730313605
 20
4.639457172180779
 10
51.12242039611153
 20
4.643660055766574
 10
51.07942519249944
 20
4.64812062454658
 10
51.0335524528732
 20
4.652769446774365
 10
50.98472546583957
 20
4.657599349871891
 10
50.932937596125385
 20
4.662687091679307
 10
50.8782787991291
 20
4.667886636125714
 10
50.82065909954646
 20
4.673344249555532
 10
50.76009176128849
 20
4.678906493046301
 10
50.69671689678369
 20
4.684741687981441
 10
50.63031104693719
 20
4.690751098239642
 10
50.56110428621122
 20
4.696956932375587
 10
50.48894321836039
 20
4.703344538201833
 10
50.41390452160157
 20
4.709921472085621
 10
50.33598818929951
 20
4.716687810784793
 10
50.255187579545755
 20
4.723720388897337
 10
50.17150267243451
 20
4.731019436696774
 10
50.08494673187679
 20
4.738431515260646
 10
49.99550648069102
 20
4.7461102170270895
 10
49.903265225731964
 20
4.75398641728104
 10
49.808139633603744
 20
4.762129547768923
 10
49.710142948311635
 20
4.770386399841804
 10
49.60933859743196
 20
4.778917815273699
 10
49.50571992578575
 20
4.7878007821782775
 10
49.399306825921975
 20
4.796805180550777
 10
49.29000930926577
 20
4.80607743025129
 10
49.17798740070039
 20
4.815555502384951
 10
49.06308104880151
 20
4.82530173287799
 10
48.94544363654396
 20
4.835330927433527
 10
48.824998445899205
 20
4.8456359902313615
 10
48.701822161719406
 20
4.856224400880895
 10
48.57584470124921
 20
4.867012305721778
 10
48.44714274934077
 20
4.878007184363411
 10
48.31562631741926
 20
4.889355456665894
 10
48.18145542373264
 20
4.900995170492196
 10
48.04455335025244
 20
4.912919230022123
 10
47.904920083708085
 20
4.925127788771349
 10
47.762555590923235
 20
4.9376212305290785
 10
47.6175299347474
 20
4.95048363922918
 10
47.469773019154694
 20
4.9636313147269835
 10
47.31935490035936
 20
4.977148417714201
 10
47.166282180458225
 20
4.990958574139885
 10
47.01056812336231
 20
5.0049083450815735
 10
46.85227613010689
 20
5.0191588793446495
 10
46.69131621875242
 20
5.033856520031369
 10
46.52768835612252
 20
5.049001650930934
 10
46.361489139524096
 20
5.064371401374457
 10
46.19271190714292
 20
5.080042836233449
 10
46.02135664570841
 20
5.09601610902359
 10
45.84740341622473
 20
5.112521877054526
 10
45.670885375151876
 20
5.129176581399037
 10
45.49186593679565
 20
5.146141217346816
 10
45.31033844597709
 20
5.163492773011536
 10
45.126219542759245
 20
5.181300987170987
 10
44.939669238754824
 20
5.199503984445981
 10
44.75061744457324
 20
5.218017987934007
 10
44.5590641469439
 20
5.236843151150747
 10
44.36507274690213
 20
5.256140622901581
 10
44.16866975899945
 20
5.275603678857272
 10
43.96976520129628
 20
5.2953786621200765
 10
43.76850580822379
 20
5.315557289748948
 10
43.564891559876145
 20
5.336139792017406
 10
43.35885900877117
 20
5.356965557424952
 10
43.15040148645933
 20
5.378111727600938
 10
42.93967237591544
 20
5.399593108248483
 10
42.7265816819294
 20
5.421556195985525
 10
42.51114929041491
 20
5.443770947565141
 10
42.29345187958881
 20
5.466244919354567
 10
42.073489429545255
 20
5.488978341627325
 10
41.851248636561614
 20
5.512125113852917
 10
41.62672948073204
 20
5.5356854663048605
 10
41.39993857742388
 20
5.559582871416529
 10
41.171035944885126
 20
5.583755377050894
 10
40.939861511785594
 20
5.608265549407702
 10
40.70649196297742
 20
5.633120868096356
 10
40.471023889132255
 20
5.658098539205811
 10
40.23337391704258
 20
5.683268455029532
 10
39.993598825741074
 20
5.708868368697372
 10
39.751775300079885
 20
5.734905759818733
 10
39.50776316791304
 20
5.76121299783075
 10
39.261735731305386
 20
5.787574461400421
 10
39.01366642262321
 20
5.814297488919705
 10
38.76356185723384
 20
5.841305552821971
 10
38.51141537332302
 20
5.868675717978728
 10
38.25731691965397
 20
5.896262025076922
 10
38.0012664829561
 20
5.924064627632228
 10
37.743187325295104
 20
5.952076660097971
 10
37.48322620100792
 20
5.98038960925958
 10
37.221306385430786
 20
6.008996456054696
 10
36.957517833962164
 20
6.037751164412421
 10
36.69186052006093
 20
6.066654041364113
 10
36.42441113521453
 20
6.095712489761335
 10
36.15508630621546
 20
6.124996401897558
 10
35.883949454004835
 20
6.154666696304641
 10
35.61094373983251
 20
6.184486310673295
 10
35.336292655969785
 20
6.214553597335632
 10
35.05986929418172
 20
6.244547486806333
 10
34.781666986018784
 20
6.274545120714747
 10
34.50181923517743
 20
6.3047912712530865
 10
34.22031937984341
 20
6.33536300329286
 10
33.93703388314391
 20
6.366015928431059
 10
33.652282847927665
 20
6.396625374815229
 10
33.36584274874699
 20
6.427093373902454
 10
33.07784707602783
 20
6.457664851400629
 10
32.78821246319794
 20
6.488409622845381
 10
32.49709895504644
 20
6.5192654290683265
 10
32.204449726093706
 20
6.549995054244491
 10
31.910328197280887
 20
6.580759416905737
 10
31.614721071520524
 20
6.611712339763723
 10
31.317661511907893
 20
6.642470187133382
 10
31.019156133810352
 20
6.672956431448089
 10
30.719325170377996
 20
6.703569360580347
 10
30.418021807556443
 20
6.73421817856529
 10
30.115392819588436
 20
6.764994141914827
 10
29.81147800484242
 20
6.795436857103741
 10
29.506270708139386
 20
6.825623312245705
 10
29.19975764566248
 20
6.855707176536695
 10
28.891918878415854
 20
6.8859191072863615
 10
28.58293438354918
 20
6.915966264774508
 10
28.2726772329217
 20
6.945527809789335
 10
27.961357674799466
 20
6.974855303311893
 10
27.6487890635833
 20
7.004318726691731
 10
27.335074658394344
 20
7.0336181443884485
 10
27.02024096714886
 20
7.0624469088306485
 10
26.704428161992848
 20
7.090972650581195
 10
26.387476138419743
 20
7.119258319629031
 10
26.06953169057814
 20
7.147394942212552
 10
25.75052471580687
 20
7.175298894944927
 10
25.430545196045486
 20
7.2028238347238975
 10
25.109669842687225
 20
7.229976934127503
 10
24.787821911162485
 20
7.256751404366904
 10
24.46515484416356
 20
7.283161360324663
 10
24.141515172457066
 20
7.309192994149579
 10
23.817043054918432
 20
7.335014089920192
 10
23.49174513345609
 20
7.360547813038512
 10
23.165654557894733
 20
7.385410681335153
 10
22.838758044417517
 20
7.409756364006093
 10
22.511202407078827
 20
7.433675657016201
 10
22.18282754137214
 20
7.45723151035443
 10
21.853800160536046
 20
7.480284523223039
 10
21.524126893208457
 20
7.50275801453972
 10
21.193814368027237
 20
7.5245753032221625
 10
20.86284928790498
 20
7.545890211982028
 10
20.53130175550287
 20
7.566786364206143
 10
20.19917175091506
 20
7.587263990168031
 10
19.866555904624843
 20
7.607099835409603
 10
19.533384113971035
 20
7.626210276544027
 10
19.199739732255296
 20
7.644525651551358
 10
18.865679584957228
 20
7.662283176256561
 10
18.531107021687717
 20
7.679706335391248
 10
18.196188775591224
 20
7.696655497884157
 10
17.86090119091869
 20
7.712509735467415
 10
17.525204436125325
 20
7.7277298254554365
 10
17.189245358441912
 20
7.742406180023893
 10
16.85296047057463
 20
7.756378648219327
 10
16.51635641443189
 20
7.769570395443744
 10
16.179566740157078
 20
7.782225656584479
 10
15.842521358359543
 20
7.794260654739018
 10
15.505316892887294
 20
7.805452212207115
 10
15.167876605805995
 20
7.8157934634420885
 10
14.830347344346425
 20
7.82537482061961
 10
14.492722459964867
 20
7.8342731950955065
 10
14.155021865116087
 20
7.842258236591492
 10
13.817238911256357
 20
7.8494068564633945
 10
13.479443707682147
 20
7.855802601340204
 10
13.141539610639638
 20
7.86166887919569
 10
12.80371990763644
 20
7.8665588740823145
 10
12.465984598672557
 20
7.870472586000076
 10
12.128327055110105
 20
7.8734866960312875
 10
11.790740628405375
 20
7.875678115531774
 10
11.45330871167169
 20
7.8769767219345495
 10
11.115947925066262
 20
7.877452484290924
 10
10.778818386366202
 20
7.8770422990962645
 10
10.441933372753098
 20
7.875592573912434
 10
10.105286248953792
 20
7.873180066579582
 10
9.768870386330391
 20
7.869881458180017
 10
9.432692420156071
 20
7.865619990873591
 10
9.096919123386881
 20
7.860255573042003
 10
8.76146047427164
 20
7.8539350083345525
 10
8.426379960104171
 20
7.846818447704698
 10
8.091634012680675
 20
7.838515313162852
 10
7.757362857229309
 20
7.829192621209156
 10
7.423546607836416
 20
7.819080415090532
 10
7.090128412481329
 20
7.807941786013378
 10
6.757275057390656
 20
7.79563648884371
 10
6.4249732786533595
 20
7.78231796250399
 10
6.093159595610872
 20
7.767825979282918
 10
5.7619742533971845
 20
7.752327325407112
 10
5.431353777989007
 20
7.735661696407431
 10
5.101445043158209
 20
7.717919197428188
 10
4.7720746539461025
 20
7.699316524412147
 10
4.44340939657931
 20
7.679713432225332
 10
4.115475812150464
 20
7.658802889507144
 10
3.7882672852922266
 20
7.636661423824211
 10
3.4618406613899992
 20
7.613526020727984
 10
3.136202602258033
 20
7.58931961534695
 10
2.8113597498047525
 20
7.56396537308312
 10
2.48738886850559
 20
7.537469852451814
 10
2.1641999366093483
 20
7.50997985710233
 10
1.8418564679509413
 20
7.481655230956767
 10
1.5204617614631672
 20
7.452195577927688
 10
1.2000291009628956
 20
7.421447228819112
 10
0.880545235809612
 20
7.3895634690378165
 10
0.5620808990154473
 20
7.356620629975819
 10
0.24456040765449724
 20
7.322599641589854
 10
-0.07194609580041877
 20
7.287583666719711
 10
-0.387368488782322
 20
7.251656098478699
 10
-0.701756988038716
 20
7.2145032702330605
 10
-1.0150348357294519
 20
7.176131817255956
 10
-1.327158450380186
 20
7.13693216402129
 10
-1.6381913192847368
 20
7.096744159575605
 10
-1.9479732914896548
 20
7.055504316625073
 10
-2.256657882675237
 20
7.013199364623372
 10
-2.56409157716118
 20
6.969842574116823
 10
-2.8702108876536596
 20
6.925594096058883
 10
-3.1751759651061304
 20
6.880517417743382
 10
-3.478876875312645
 20
6.834235385242735
 10
-3.781199914231864
 20
6.7872218161441555
 10
-4.082235110250251
 20
6.739623590854783
 10
-4.382019409569005
 20
6.690973527060561
 10
-4.680322538667677
 20
6.641291530580971
 10
-4.977241161205892
 20
6.590801239663299
 10
-5.272781912456809
 20
6.539579412147695
 10
-5.5669315218741104
 20
6.48747253235386
 10
-5.859543109050655
 20
6.434570628668263
 10
-6.150770189666743
 20
6.380860430544585
 10
-6.440479153861558
 20
6.326585482049593
 10
-6.728656731088775
 20
6.271592267502988
 10
-7.015296286075236
 20
6.215804029064621
 10
-7.300404454094101
 20
6.159297524574643
 10
-7.583917747851546
 20
6.10223290498651
 10
-7.865912925187707
 20
6.044603535027062
 10
-8.146223199875978
 20
5.9862691695623225
 10
-8.42484857191635
 20
5.927229808592289
 10
-8.701859163875822
 20
5.867402059003652
 10
-8.977184853187396
 20
5.806869313909722
 10
-9.250845545670554
 20
5.745861846830947
 10
-9.522771118758307
 20
5.684463050880637
 10
-9.792935031358015
 20
5.622365894698191
 10
-10.061414041309831
 20
5.559563743010453
 10
-10.327971239820142
 20
5.495999743796751
 10
-10.59278004838873
 20
5.431890900031212
 10
-10.855847102288752
 20
5.367313969553989
 10
-11.117018885839906
 20
5.3022822229114
 10
-11.37628876376904
 20
5.236718902263295
 10
-11.633713588096818
 20
5.170387098816066
 10
-11.889243142075735
 20
5.103600479203472
 10
-12.142897331525264
 20
5.036589316945959
 10
-12.394566222239458
 20
4.968976458115941
 10
-12.64432657205847
 20
4.900755267440256
 10
-12.89203813584832
 20
4.832092531145526
 10
-13.137777671449154
 20
4.762981613958587
 10
-13.381551814134138
 20
4.693499273719592
 10
-13.623263900243634
 20
4.623421872181251
 10
-13.86292720032397
 20
4.552902925023863
 10
-14.10054171437514
 20
4.481942432247427
 10
-14.336133983489786
 20
4.410847425212542
 10
-14.56954385671445
 20
4.339554416625379
 10
-14.800904943909945
 20
4.267819862419168
 10
-15.030127216689813
 20
4.19549688218677
 10
-15.257160458306537
 20
4.122899142561943
 10
-15.482094697146586
 20
4.050173523951827
 10
-15.704826634277174
 20
3.977019630268982
 10
-15.925292782404469
 20
3.903597612466868
 10
-16.143653292481925
 20
3.8299709578393144
 10
-16.359754648829252
 20
3.756152936932643
 10
-16.573576945626964
 20
3.6819132762264006
 10
-16.785140088694547
 20
3.6074822492410394
 10
-16.994450713305152
 20
3.5329366138167075
 10
-17.201502184185628
 20
3.458199612113255
 10
-17.40621774349582
 20
3.383277879403844
 10
-17.60859075596257
 20
3.308094657848321
 10
-17.80870461469918
 20
3.23272007001368
 10
-18.006405804025366
 20
3.157167386446236
 10
-18.201707594487438
 20
3.081590122826292
 10
-18.39475023121938
 20
3.0058214929272276
 10
-18.58530344070073
 20
2.9298814025685216
 10
-18.773437345498493
 20
2.8536864586368655
 10
-18.959178486705305
 20
2.777543692492857
 10
-19.14252686432116
 20
2.701453104136496
 10
-19.32339244995959
 20
2.6252678131606437
 10
-19.501768608347444
 20
2.5489110617251503
 10
-19.677725462051708
 20
2.472299456716706
 10
-19.851142671757877
 20
2.3958300578823786
 10
-20.02209036003294
 20
2.3194194721088577
 10
-20.190555256330587
 20
2.2429141837158455
 10
-20.356460602810657
 20
2.166320827976501
 10
-20.519819670019473
 20
2.089792920571124
 10
-20.680619187410723
 20
2.013176945819414
 10
-20.838865790257557
 20
1.9365496615615216
 10
-20.994566113833137
 20
1.859987825637596
 10
-21.147630129751
 20
1.7833445576404974
 10
-21.298077743830618
 20
1.7068501310906756
 10
-21.44595917281951
 20
1.6301908793543711
 10
-21.591224199970153
 20
1.5536804690653427
 10
-21.733866190009397
 20
1.4772421423834414
 10
-21.873878507664077
 20
1.400799141468516
 10
-22.01118439509405
 20
1.3243581015937278
 10
-22.14586724541262
 20
1.2479891453260652
 10
-22.27787020659912
 20
1.1719291814591377
 10
-22.40718000810722
 20
1.0960246943126457
 10
-22.53379664993693
 20
1.0202756838865885
 10
-22.65780352520156
 20
0.9447522727479574
 10
-22.779040482947646
 20
0.8693909736029211
 10
-22.897597551561667
 20
0.7943386668586193
 10
-23.01341124374978
 20
0.7197555034685099
 10
-23.12655831735213
 20
0.6456348481594348
 10
-23.236948743982268
 20
0.5718298205242531
 10
-23.344665916753492
 20
0.49841054312995553
 10
-23.449556319985504
 20
0.42539028652286137
 10
-23.55178673990492
 20
0.35290929583694947
 10
-23.6512102961046
 20
0.2810575994586897
 10
-23.747890475878386
 20
0.20967504643462284
 10
-23.841827279226262
 20
0.13876163676474837
 10
-23.933020706148238
 20
0.06831737044906762
 10
-24.021407269350473
 20
-0.0014976015589613827
 10
-24.10698696883298
 20
-0.07068327925933952
 10
-24.189816656616422
 20
-0.13947657144567363
 10
-24.269839480680137
 20
-0.20764056932435687
 10
-24.347028899931473
 20
-0.2754823042559857
 10
-24.421411455463076
 20
-0.34269474487996343
 10
-24.49296060618231
 20
-0.4095849225568874
 10
-24.561689622635495
 20
-0.47599932160645897
 10
-24.62759850482262
 20
-0.5419379420286778
 10
-24.69060385963039
 20
-0.6074709063905339
 10
-24.75087247328541
 20
-0.6724579695580478
 10
-24.808154166447764
 20
-0.7371094992321888
 10
-24.86269248318421
 20
-0.801291885552137
 10
-24.9143272725413
 20
-0.865068615811722
 10
-24.963078440338506
 20
-0.9282094164904965
 10
-25.009009473869657
 20
-0.9908744385419184
 10
-25.052050250567767
 20
-1.0529802888526782
 10
-25.092227311525473
 20
-1.1142199360621792
 10
-25.129597508763442
 20
-1.1748302889640274
 10
-25.16409735498785
 20
-1.2346511966047666
 10
-25.19574012074501
 20
-1.293529143304096
 10
-25.224552347127567
 20
-1.3511570977014185
 10
-25.250534034135516
 20
-1.4075350597967338
 10
-25.273775210155332
 20
-1.462516149182903
 10
-25.294155535872502
 20
-1.5157033061128584
 10
-25.311778310219825
 20
-1.5667961344991626
 10
-25.326786643769044
 20
-1.6150336912134802
 10
-25.33907346775197
 20
-1.6598654008284448
 10
-25.34882170437931
 20
-1.7000697731748244
 10
-25.356214275861774
 20
-1.734425318083387
 10
-25.361256913074882
 20
-1.7610765768442254
 10
-25.364192255687772
 20
-1.7781112387267612
 10
-25.323244623887803
 20
-2.268796665312221
 10
-25.321447825993825
 20
-2.2725852449698127
 10
-25.316064067585053
 20
-2.283874226102441
 10
-25.307119889754112
 20
-2.302356577349506
 10
-25.294425735017157
 20
-2.329330546720391
 10
-25.27799577831813
 20
-2.3664213194045534
 10
-25.258098296021178
 20
-2.409630852441061
 10
-25.234862223754092
 20
-2.4565730175121177
 10
-25.208527335748254
 20
-2.5062632332421013
 10
-25.179156214899866
 20
-2.5570829497147125
 10
-25.146731820827206
 20
-2.6083347110954453
 10
-25.11144084557638
 20
-2.659647998729873
 10
-25.073233072399873
 20
-2.7107091459842363
 10
-25.032135042390323
 20
-2.7612111214979382
 10
-24.98816002609405
 20
-2.8110004095906795
 10
-24.941308023511056
 20
-2.8600770102624606
 10
-24.891662427754643
 20
-2.9083708009462907
 10
-24.83915975153099
 20
-2.9557216306887115
 10
-24.78379335956693
 20
-3.0022062573298727
 10
-24.72564664497577
 20
-3.047754558302784
 10
-24.664629579371052
 20
-3.092513414014586
 10
-24.60074879802593
 20
-3.1364060666251277
 10
-24.534171087167017
 20
-3.1792922710004308
 10
-24.464646267454395
 20
-3.2213823948414633
 10
-24.392411247681665
 20
-3.2626195861275558
 10
-24.317305876895375
 20
-3.3030673321525383
 10
-24.239413548208827
 20
-3.34265551034942
 10
-24.15874089689519
 20
-3.3813073628780526
 10
-24.07526801713497
 20
-3.4192531632588845
 10
-23.9890081794745
 20
-3.4563393958116158
 10
-23.899934842821136
 20
-3.492873091896845
 10
-23.80806791299436
 20
-3.5286239779941244
 10
-23.713470877287996
 20
-3.563752205056911
 10
-23.6160669778619
 20
-3.5982511378120465
 10
-23.515842944169755
 20
-3.6322742919398294
 10
-23.412882169324863
 20
-3.66575154487327
 10
-23.307178018054067
 20
-3.698759654452517
 10
-23.198730490357367
 20
-3.7312986206775713
 10
-23.087442922575143
 20
-3.763592081795722
 10
-22.973475465660837
 20
-3.7955765505131374
 10
-22.856681239207322
 20
-3.82716199844335
 10
-22.737213758894892
 20
-3.8583616961326785
 10
-22.614982996337087
 20
-3.889322523988263
 10
-22.490065709374047
 20
-3.920051117283262
 10
-22.362391775438777
 20
-3.950464082904367
 10
-22.23205122291776
 20
-3.98041454044444
 10
-22.09896065869768
 20
-4.009972612470468
 10
-21.963266963185674
 20
-4.039228327368922
 10
-21.824893378541603
 20
-4.06817504986664
 10
-21.683839904765453
 20
-4.096812779963625
 10
-21.540126447676705
 20
-4.124911244139426
 10
-21.393829765115516
 20
-4.152477077667204
 10
-21.244873099241737
 20
-4.1795036452738
 10
-21.09331993734919
 20
-4.206151097912671
 10
-20.93917027943788
 20
-4.232419435583817
 10
-20.782450666600447
 20
-4.258001626926641
 10
-20.623224586130714
 20
-4.283057822894602
 10
-20.4614219154617
 20
-4.30750463037439
 10
-20.29703601932024
 20
-4.331418807206155
 10
-20.13014365554649
 20
-4.354806988663055
 10
-19.960751459413597
 20
-4.3775924169049425
 10
-19.78885279564841
 20
-4.3998518497719665
 10
-19.614447664250932
 20
-4.421585287264126
 10
-19.437542700494316
 20
-4.442715971541272
 10
-19.258208026945557
 20
-4.463327295716714
 10
-19.076443643604648
 20
-4.483419259790452
 10
-18.8921794279046
 20
-4.502908470649176
 10
-18.705555624979404
 20
-4.521961714519506
 10
-18.51650211226206
 20
-4.54049559828813
 10
-18.325012254479415
 20
-4.558586879795202
 10
-18.131169444744767
 20
-4.576165436473728
 10
-17.934993588877607
 20
-4.59300099480326
 10
-17.73646478105845
 20
-4.609323828304248
 10
-17.535492992900828
 20
-4.625280817383831
 10
-17.332315133198346
 20
-4.640815110021339
 10
-17.12679095681703
 20
-4.6557599199901505
 10
-16.91892709903004
 20
-4.6700384894501195
 10
-16.708863804971347
 20
-4.683817604627864
 10
-16.49651768152765
 20
-4.697167388090372
 10
-16.281901999245264
 20
-4.709934324157345
 10
-16.065093515964342
 20
-4.722125048101943
 10
-15.846098866958043
 20
-4.733662802084018
 10
-15.62489814640689
 20
-4.7447778596240155
 10
-15.401504624857195
 20
-4.755316705041639
 10
-15.175905031762648
 20
-4.7654328540171855
 10
-14.948272788623019
 20
-4.774909303576527
 10
-14.718447744484852
 20
-4.783809541013492
 10
-14.486506657188297
 20
-4.792140201601244
 10
-14.252519649300341
 20
-4.799984678453089
 10
-14.016423233527162
 20
-4.8071828206155685
 10
-13.778280897162585
 20
-4.813894779042141
 10
-13.538176033319914
 20
-4.820050431165819
 10
-13.295968396865177
 20
-4.825482990759982
 10
-13.051811503478671
 20
-4.83020572837095
 10
-12.805685447340915
 20
-4.834448917519169
 10
-12.557590228451911
 20
-4.838212558204644
 10
-12.307525846811657
 20
-4.841496650427371
 10
-12.055588966079783
 20
-4.8440775559400615
 10
-11.801792856802608
 20
-4.845801759062418
 10
-11.546034220047346
 20
-4.846969655881879
 10
-11.288466571494295
 20
-4.847594516944762
 10
-11.029026423849619
 20
-4.8475161912976095
 10
-10.767803805499792
 20
-4.846587798533282
 10
-10.504778810625337
 20
-4.845039612172227
 10
-10.24001492652008
 20
-4.843031783167905
 10
-9.973448665890194
 20
-4.840404160566856
 10
-9.705099934555156
 20
-4.836926470848631
 10
-9.435108977648945
 20
-4.832765500239851
 10
-9.163469159898403
 20
-4.827998006580661
 10
-8.890026965623228
 20
-4.8226107193247465
 10
-8.615019303617032
 20
-4.8165467864514335
 10
-8.338382686585986
 20
-4.8096460570072646
 10
-8.060117114530085
 20
-4.8019085309922405
 10
-7.780292710016324
 20
-4.793417601519667
 10
-7.4988762966788975
 20
-4.784557057790296
 10
-7.2159645381774435
 20
-4.775103261556837
 10
-6.931507217764442
 20
-4.764742546185531
 10
-6.6454977001667395
 20
-4.75355166951653
 10
-6.358089501064629
 20
-4.741543902096151
 10
-6.069179321525329
 20
-4.729019640011832
 10
-5.778857189935307
 20
-4.715832002856435
 10
-5.487123106294561
 20
-4.701980990629961
 10
-5.193990341149408
 20
-4.687313087652109
 10
-4.8994522592266945
 20
-4.671905051763029
 10
-4.603649105660397
 20
-4.65592366918934
 10
-4.306440635316534
 20
-4.639202153704423
 10
-4.007993634421726
 20
-4.621600260174298
 10
-3.7083014677028103
 20
-4.603194746439114
 10
-3.40735749988663
 20
-4.584062370339022
 10
-3.105091608406197
 20
-4.564119738760713
 10
-2.801747337328279
 20
-4.543233241843366
 10
-2.4972545640858805
 20
-4.52131948647367
 10
-2.191496719199899
 20
-4.498832384419368
 10
-1.8846339536237915
 20
-4.475708448386622
 10
-1.5767828368366639
 20
-4.451493766607701
 10
-1.2677699473387436
 20
-4.426405342056731
 10
-0.9576654076970132
 20
-4.400526567847022
 10
-0.6466360041380962
 20
-4.373717198844594
 10
-0.33453485625485435
 20
-4.3458872066629795
 10
-0.021515479727578505
 20
-4.3170498618484965
 10
0.292525424376508
 20
-4.287505560488583
 10
0.6074978276709442
 20
-4.2571074221761
 10
0.9232917959497833
 20
-4.2254782929834604
 10
1.240003992872646
 20
-4.192841811157952
 10
1.557584201692032
 20
-4.159511643333333
 10
1.875935778654123
 20
-4.1252643815358345
 10
2.1951299212401674
 20
-4.090029067422252
 10
2.515103752601455
 20
-4.053972913667338
 10
2.8358307515511814
 20
-4.016789119184015
 10
3.157310931359889
 20
-3.978477837487961
 10
3.479494075280057
 20
-3.9393527352129367
 10
3.8023100872857962
 20
-3.899497512503611
 10
4.1258290965793725
 20
-3.858828853004514
 10
4.449954446136419
 20
-3.8171231952261975
 10
4.774699413138539
 20
-3.774534131606801
 10
5.100064024126826
 20
-3.7310619691776847
 10
5.425971514625851
 20
-3.6867132664541673
 10
5.752401998721953
 20
-3.6412579801893226
 10
6.079368746961459
 20
-3.5948496260634477
 10
6.406744784756703
 20
-3.547808505983461
 10
6.73467701905592
 20
-3.5000448985942536
 10
7.062992021724055
 20
-3.451341724163857
 10
7.39177319914497
 20
-3.40176925877494
 10
7.7208670356383555
 20
-3.3513407729738227
 10
8.050356930952804
 20
-3.3001264660853353
 10
8.38023625645042
 20
-3.2480496570271686
 10
8.710358131724075
 20
-3.1952003741857906
 10
9.040812585160232
 20
-3.141725497968341
 10
9.371593001391549
 20
-3.0875485008081904
 10
9.702539209558754
 20
-3.0326056651379885
 10
10.033734616045693
 20
-2.976967267040404
 10
10.365115733558543
 20
-2.9207934574688985
 10
10.696732785480078
 20
-2.863770646547553
 10
11.028445513405794
 20
-2.8060654669873037
 10
11.360267187881984
 20
-2.7478314344684525
 10
11.69219118027078
 20
-2.6889918679086877
 10
12.024204220025856
 20
-2.6293932516277114
 10
12.356319584328812
 20
-2.5691891780636626
 10
12.68839699486928
 20
-2.50854604965396
 10
13.020499952211663
 20
-2.4473038689608226
 10
13.352571604335276
 20
-2.3856995447778604
 10
13.684592032150102
 20
-2.323502650068943
 10
14.016554607018245
 20
-2.260636503751763
 10
14.348472599486024
 20
-2.197254621506619
 10
14.680212359880988
 20
-2.1336000868532374
 10
15.01185066594911
 20
-2.0696664947919774
 10
15.343290840760199
 20
-2.0052300535598735
 10
15.674539506316883
 20
-1.940367367481391
 10
16.005596669254423
 20
-1.875078513314373
 10
16.336468951575444
 20
-1.8094400953832865
 10
16.666996169150114
 20
-1.7433882426051013
 10
16.99726173499757
 20
-1.676993307820328
 10
17.327195486739168
 20
-1.610338223595235
 10
17.656887485937755
 20
-1.5435702541261622
 10
17.98615761610293
 20
-1.4763949477782696
 10
18.31501251914313
 20
-1.4088891391495453
 10
18.6435621292643
 20
-1.3414299821675792
 10
18.97161308597082
 20
-1.2735698165485916
 10
19.2991587340837
 20
-1.2052316541789136
 10
19.626315662987892
 20
-1.136869637099801
 10
19.952943574467195
 20
-1.0686499374751537
 10
20.279079427993377
 20
-1.000105526506593
 10
20.604653074458337
 20
-0.931319490276069
 10
20.9295877162103
 20
-0.8622980035096992
 10
21.253973401541554
 20
-0.7931881768881428
 10
21.577739974708724
 20
-0.7240730197355104
 10
21.90089405107917
 20
-0.6550290596184297
 10
22.2233455823606
 20
-0.5859091858562411
 10
22.54508127146559
 20
-0.5165595757372845
 10
22.866121017578372
 20
-0.44721042602416844
 10
23.186464814063644
 20
-0.3778616599590536
 10
23.50596570752628
 20
-0.3086024615921654
 10
23.82477726009348
 20
-0.23942009768206798
 10
24.142725983912744
 20
-0.17009679767622812
 10
24.45981850098668
 20
-0.100709165899116
 10
24.77608796113999
 20
-0.03164068452012008
 10
25.09152773573479
 20
0.03718532754307188
 10
25.405970952285923
 20
0.10591011327635995
 10
25.719577808193748
 20
0.1744696480810338
 10
26.0321880795168
 20
0.2429282635871637
 10
26.343878537365775
 20
0.31129244155223007
 10
26.654585647999934
 20
0.3794025683276553
 10
26.964232607132217
 20
0.4472525459451611
 10
27.272909463054912
 20
0.5146952637240872
 10
27.58044270800968
 20
0.5819487224904841
 10
27.886985904123755
 20
0.6490256554857925
 10
28.192378827455645
 20
0.7159903943400813
 10
28.496661256467956
 20
0.7823827758016557
 10
28.799756393508904
 20
0.848196625144398
 10
29.101777989066733
 20
0.9139052226506412
 10
29.402489014912927
 20
0.9795668019821795
 10
29.702096115359968
 20
1.044580033659257
 10
30.00043905983113
 20
1.1090093260697833
 10
30.297491274057393
 20
1.1731620943635583
 10
30.59325274476821
 20
1.2370384920562612
 10
30.887730087330944
 20
1.3005619915812647
 10
31.180956464840815
 20
1.3633489572535
 10
31.472764984906856
 20
1.4255408623323906
 10
31.763289323742608
 20
1.4873804833063011
 10
32.05237585950342
 20
1.5488557777543572
 10
32.34003784282978
 20
1.609813460269779
 10
32.62628853099744
 20
1.6701001686879464
 10
32.911114626919044
 20
1.7298697257205213
 10
33.19443930640163
 20
1.7891162636727431
 10
33.47635262437283
 20
1.8476925951061152
 10
33.75670095898794
 20
1.9055866775997574
 10
34.03554118880875
 20
1.9630351129159203
 10
34.312719678719986
 20
2.020026012149404
 10
34.58848008558813
 20
2.0764244605561086
 10
34.86252844954067
 20
2.132052704098301
 10
35.135018359245926
 20
2.1869231689860573
 10
35.405943152889634
 20
2.2411129200908886
 10
35.6751359380808
 20
2.294763430672215
 10
35.94260331691622
 20
2.3477983266790905
 10
36.2085055067021
 20
2.4001533532392827
 10
36.472618723215135
 20
2.4517335353656455
 10
36.73503300811233
 20
2.5023918391353606
 10
36.995651631381335
 20
2.552352670374118
 10
37.25454473549497
 20
2.601699191921706
 10
37.51164213153347
 20
2.6503487782432162
 10
37.76694379295578
 20
2.6983017363700106
 10
38.020392794753235
 20
2.7453220018447233
 10
38.272046022122844
 20
2.7916460996717594
 10
38.52175646858729
 20
2.8371854598636155
 10
38.769587641346206
 20
2.882100003100227
 10
39.01555943294856
 20
2.9261596093768283
 10
39.25960164120405
 20
2.96928180667419
 10
39.501694333752106
 20
3.011697175544123
 10
39.74183749068694
 20
3.0534059462601473
 10
39.98003108546743
 20
3.094408425853623
 10
40.21613475352468
 20
3.1345392097390543
 10
40.45031535407333
 20
3.173657208446221
 10
40.682462879919434
 20
3.2121404202389527
 10
40.91250713550795
 20
3.2499062963401784
 10
41.14052489858491
 20
3.286961241749543
 10
41.36645260886843
 20
3.323145949849825
 10
41.59020680025721
 20
3.3585313875442577
 10
41.811934432781676
 20
3.3932066621252273
 10
42.03150176387554
 20
3.42692976468277
 10
42.24889550308666
 20
3.459854441170705
 10
42.46412226578239
 20
3.4919041640224044
 10
42.677162112966876
 20
3.5233095905475147
 10
42.8880282952806
 20
3.553917435339258
 10
43.09664397526018
 20
3.58372198421856
 10
43.30301576827291
 20
3.612646709618788
 10
43.50721383006215
 20
3.6407746208640495
 10
43.709077876969
 20
3.6681707404049813
 10
43.90860787581709
 20
3.694835452030783
 10
44.10588725953137
 20
3.7206981726274235
 10
44.30092267002027
 20
3.745682067596912
 10
44.493540692419266
 20
3.770004063155539
 10
44.683817513935026
 20
3.793677395750716
 10
44.871773684008545
 20
3.816464346351501
 10
45.05732549103338
 20
3.8384387219012113
 10
45.24045965119269
 20
3.8597541915958247
 10
45.42126622604927
 20
3.880263491239002
 10
45.59959819585527
 20
3.899878204358918
 10
45.77551908108091
 20
3.9187580981198304
 10
45.94902222654715
 20
3.9369801606354073
 10
46.12003080142589
 20
3.9545386009687356
 10
46.288558056357616
 20
3.971280133713031
 10
46.454597322892766
 20
3.9872819004976456
 10
46.61813531721453
 20
4.002697570518562
 10
46.77917864805496
 20
4.017450692966987
 10
46.93766376176747
 20
4.031381884467866
 10
47.0935906251757
 20
4.044491528810398
 10
47.247009501474075
 20
4.057092755323461
 10
47.39785018183707
 20
4.069103168745666
 10
47.546112659629415
 20
4.080522845834857
 10
47.69180353694789
 20
4.091275412540082
 10
47.8348459895996
 20
4.101355001166581
 10
47.975316801965796
 20
4.110767939956158
 10
48.11312588594258
 20
4.1196618001365115
 10
48.248286478899864
 20
4.127883449816542
 10
48.380785297020815
 20
4.135586558192231
 10
48.51071240850351
 20
4.1426237843093965
 10
48.63790089441589
 20
4.149136908458822
 10
48.76242091713659
 20
4.155208863206776
 10
48.8842022811106
 20
4.160757099776192
 10
49.003328419262864
 20
4.165711035053036
 10
49.11970917713673
 20
4.170219007843412
 10
49.23343458975394
 20
4.174134060982341
 10
49.344331520931476
 20
4.177669896856826
 10
49.45255969696528
 20
4.180767940674806
 10
49.557965668527814
 20
4.183414154311557
 10
49.66062623327087
 20
4.185614712493205
 10
49.76054137792389
 20
4.187369768735424
 10
49.857704447307874
 20
4.188756311151885
 10
49.952045259138416
 20
4.189691637449844
 10
50.04355051632806
 20
4.190329570340955
 10
50.13230367170762
 20
4.1905992964376715
 10
50.21822124590519
 20
4.190571936158903
 10
50.301309867558686
 20
4.190170808422341
 10
50.381562894759675
 20
4.189472747825974
 10
50.458986942875484
 20
4.188401226803173
 10
50.53357536999769
 20
4.18703307995193
 10
50.6053148989447
 20
4.185521899710381
 10
50.674141962799375
 20
4.1837084562191516
 10
50.74020356140382
 20
4.181681396223586
 10
50.80326258690622
 20
4.179499874479562
 10
50.86355612725253
 20
4.1771049665047215
 10
50.92093053405701
 20
4.1744849369095505
 10
50.975372530138074
 20
4.171793378132188
 10
51.0269655616912
 20
4.168959553542923
 10
51.07563279788825
 20
4.165977672204836
 10
51.12136096818289
 20
4.163001249798228
 10
51.164240147408506
 20
4.159882868611076
 10
51.204180247461174
 20
4.156770099871084
 10
51.2411878903435
 20
4.153586339253779
 10
51.275249805509176
 20
4.150485102439465
 10
51.30637262823135
 20
4.147389631587987
 10
51.33462652752394
 20
4.144382782507779
 10
51.35985786163642
 20
4.141452743051478
 10
51.38213681948856
 20
4.138682138753995
 10
51.40154021200266
 20
4.136076990825771
 10
51.41791439742825
 20
4.133625487119445
 10
51.43132291614135
 20
4.131487164525757
 10
51.44184924087852
 20
4.129590979383636
 10
51.44932643280188
 20
4.128078942257382
 10
51.45382470073696
 20
4.127033448408384
 10
51.45533075423163
 20
4.1266082437904625
  0
ENDSEC
  0
SECTION
  2
OBJECTS
  0
DICTIONARY
  5
A
330
0
100
AcDbDictionary
280
0
281
1
  3
ACAD_COLOR
350
B
  3
ACAD_GROUP
350
C
  3
ACAD_LAYOUT
350
D
  3
ACAD_MATERIAL
350
E
  3
ACAD_MLEADERSTYLE
350
F
  3
ACAD_MLINESTYLE
350
10
  3
ACAD_PLOTSETTINGS
350
11
  3
ACAD_PLOTSTYLENAME
350
12
  3
ACAD_SCALELIST
350
14
  3
ACAD_TABLESTYLE
350
15
  3
ACAD_VISUALSTYLE
350
16
  3
EZDXF_META
350
2D
  0
DICTIONARY
  5
B
330
A
100
AcDbDictionary
280
0
281
1
  0
DICTIONARY
  5
C
330
A
100
AcDbDictionary
280
0
281
1
  0
DICTIONARY
  5
D
330
A
100
AcDbDictionary
280
0
281
1
  3
Model
350
1A
  3
Layout1
350
1E
  0
DICTIONARY
  5
E
330
A
100
AcDbDictionary
280
0
281
1
  3
ByBlock
350
1F
  3
ByLayer
350
20
  3
Global
350
21
  0
DICTIONARY
  5
F
330
A
100
AcDbDictionary
280
0
281
1
  3
Standard
350
2C
  0
DICTIONARY
  5
10
330
A
100
AcDbDictionary
280
0
281
1
  3
Standard
350
22
  0
DICTIONARY
  5
11
330
A
100
AcDbDictionary
280
0
281
1
  0
ACDBDICTIONARYWDFLT
  5
12
330
A
100
AcDbDictionary
280
0
281
1
  3
Normal
350
13
100
AcDbDictionaryWithDefault
340
13
  0
ACDBPLACEHOLDER
  5
13
330
12
  0
DICTIONARY
  5
14
330
A
100
AcDbDictionary
280
0
281
1
  0
DICTIONARY
  5
15
330
A
100
AcDbDictionary
280
0
281
1
  0
DICTIONARY
  5
16
330
A
100
AcDbDictionary
280
0
281
1
  0
LAYOUT
  5
1A
330
D
100
AcDbPlotSettings
  1

  4
A3
  6

 40
7.5
 41
20.0
 42
7.5
 43
20.0
 44
420.0
 45
297.0
 46
0.0
 47
0.0
 48
0.0
 49
0.0
140
0.0
141
0.0
142
1.0
143
1.0
 70
1024
 72
1
 73
0
 74
5
  7

 75
16
 76
0
 77
2
 78
300
147
1.0
148
0.0
149
0.0
100
AcDbLayout
  1
Model
 70
1
 71
0
 10
0.0
 20
0.0
 11
420.0
 21
297.0
 12
0.0
 22
0.0
 32
0.0
 14
1e+20
 24
1e+20
 34
1e+20
 15
-1e+20
 25
-1e+20
 35
-1e+20
146
0.0
 13
0.0
 23
0.0
 33
0.0
 16
1.0
 26
0.0
 36
0.0
 17
0.0
 27
1.0
 37
0.0
 76
1
330
17
  0
LAYOUT
  5
1E
330
D
100
AcDbPlotSettings
  1

  4
A3
  6

 40
7.5
 41
20.0
 42
7.5
 43
20.0
 44
420.0
 45
297.0
 46
0.0
 47
0.0
 48
0.0
 49
0.0
140
0.0
141
0.0
142
1.0
143
1.0
 70
0
 72
1
 73
0
 74
5
  7

 75
16
 76
0
 77
2
 78
300
147
1.0
148
0.0
149
0.0
100
AcDbLayout
  1
Layout1
 70
1
 71
1
 10
0.0
 20
0.0
 11
420.0
 21
297.0
 12
0.0
 22
0.0
 32
0.0
 14
1e+20
 24
1e+20
 34
1e+20
 15
-1e+20
 25
-1e+20
 35
-1e+20
146
0.0
 13
0.0
 23
0.0
 33
0.0
 16
1.0
 26
0.0
 36
0.0
 17
0.0
 27
1.0
 37
0.0
 76
1
330
1B
  0
MATERIAL
  5
1F
102
{ACAD_REACTORS
330
E
102
}
330
E
100
AcDbMaterial
  1
ByBlock
  2

 70
0
 40
1.0
 71
1
 41
1.0
 91
-1023410177
 42
1.0
 72
1
  3

 73
1
 74
1
 75
1
 44
0.5
 73
0
 45
1.0
 46
1.0
 77
1
  4

 78
1
 79
1
170
1
 48
1.0
171
1
  6

172
1
173
1
174
1
140
1.0
141
1.0
175
1
  7

176
1
177
1
178
1
143
1.0
179
1
  8

270
1
271
1
272
1
145
1.0
146
1.0
273
1
  9

274
1
275
1
276
1
 42
1.0
 72
1
  3

 73
1
 74
1
 75
1
 94
63
  0
MATERIAL
  5
20
102
{ACAD_REACTORS
330
E
102
}
330
E
100
AcDbMaterial
  1
ByLayer
  2

 70
0
 40
1.0
 71
1
 41
1.0
 91
-1023410177
 42
1.0
 72
1
  3

 73
1
 74
1
 75
1
 44
0.5
 73
0
 45
1.0
 46
1.0
 77
1
  4

 78
1
 79
1
170
1
 48
1.0
171
1
  6

172
1
173
1
174
1
140
1.0
141
1.0
175
1
  7

176
1
177
1
178
1
143
1.0
179
1
  8

270
1
271
1
272
1
145
1.0
146
1.0
273
1
  9

274
1
275
1
276
1
 42
1.0
 72
1
  3

 73
1
 74
1
 75
1
 94
63
  0
MATERIAL
  5
21
102
{ACAD_REACTORS
330
E
102
}
330
E
100
AcDbMaterial
  1
Global
  2

 70
0
 40
1.0
 71
1
 41
1.0
 91
-1023410177
 42
1.0
 72
1
  3

 73
1
 74
1
 75
1
 44
0.5
 73
0
 45
1.0
 46
1.0
 77
1
  4

 78
1
 79
1
170
1
 48
1.0
171
1
  6

172
1
173
1
174
1
140
1.0
141
1.0
175
1
  7

176
1
177
1
178
1
143
1.0
179
1
  8

270
1
271
1
272
1
145
1.0
146
1.0
273
1
  9

274
1
275
1
276
1
 42
1.0
 72
1
  3

 73
1
 74
1
 75
1
 94
63
  0
MLINESTYLE
  5
22
102
{ACAD_REACTORS
330
10
102
}
330
10
100
AcDbMlineStyle
  2
Standard
 70
0
  3

 62
256
 51
90.0
 52
90.0
 71
2
 49
0.5
 62
256
  6
BYLAYER
 49
-0.5
 62
256
  6
BYLAYER
  0
MLEADERSTYLE
  5
2C
102
{ACAD_REACTORS
330
F
102
}
330
F
100
AcDbMLeaderStyle
179
2
170
2
171
1
172
0
 90
2
 40
0.0
 41
0.0
173
1
 91
-1056964608
 92
-2
290
1
 42
2.0
291
1
 43
8.0
  3
Standard
 44
4.0
300

342
29
174
1
175
1
176
0
178
1
 93
-1056964608
 45
4.0
292
0
297
0
 46
4.0
 94
-1056964608
 47
1.0
 49
1.0
140
1.0
294
1
141
0.0
177
0
142
1.0
295
0
296
0
143
3.75
271
0
272
9
273
9
  0
DICTIONARY
  5
2D
330
A
100
AcDbDictionary
280
1
281
1
  3
CREATED_BY_EZDXF
350
2E
  3
WRITTEN_BY_EZDXF
350
32
  0
DICTIONARYVAR
  5
2E
330
2D
100
DictionaryVariables
280
0
  1
1.3.5 @ 2025-08-20T01:28:29.932948+00:00
  0
DICTIONARYVAR
  5
32
330
2D
100
DictionaryVariables
280
0
  1
1.3.5 @ 2025-08-20T01:28:29.948569+00:00
  0
ENDSEC
  0
EOF
