  0
SECTION
  2
HEADER
  9
$ACADVER
  1
AC1032
  9
$ACADMAINTVER
 90
4
  9
$DWGCODEPAGE
  3
ANSI_1252
  9
$LASTSAVEDBY
  1
ezdxf
  9
$REQUIREDVERSIONS
160
0
  9
$INSBASE
 10
0.0
 20
0.0
 30
0.0
  9
$EXTMIN
 10
1e+20
 20
1e+20
 30
1e+20
  9
$EXTMAX
 10
-1e+20
 20
-1e+20
 30
-1e+20
  9
$LIMMIN
 10
0.0
 20
0.0
  9
$LIMMAX
 10
420.0
 20
297.0
  9
$ORTHOMODE
 70
0
  9
$REGENMODE
 70
1
  9
$FILLMODE
 70
1
  9
$QTEXTMODE
 70
0
  9
$MIRRTEXT
 70
1
  9
$LTSCALE
 40
1.0
  9
$ATTMODE
 70
1
  9
$TEXTSIZE
 40
2.5
  9
$TRACEWID
 40
1.0
  9
$TEXTSTYLE
  7
Standard
  9
$CLAYER
  8
0
  9
$CELTYPE
  6
ByLayer
  9
$CECOLOR
 62
256
  9
$CELTSCALE
 40
1.0
  9
$DISPSILH
 70
0
  9
$DIMSCALE
 40
1.0
  9
$DIMASZ
 40
2.5
  9
$DIMEXO
 40
0.625
  9
$DIMDLI
 40
3.75
  9
$DIMRND
 40
0.0
  9
$DIMDLE
 40
0.0
  9
$DIMEXE
 40
1.25
  9
$DIMTP
 40
0.0
  9
$DIMTM
 40
0.0
  9
$DIMTXT
 40
2.5
  9
$DIMCEN
 40
2.5
  9
$DIMTSZ
 40
0.0
  9
$DIMTOL
 70
0
  9
$DIMLIM
 70
0
  9
$DIMTIH
 70
0
  9
$DIMTOH
 70
0
  9
$DIMSE1
 70
0
  9
$DIMSE2
 70
0
  9
$DIMTAD
 70
1
  9
$DIMZIN
 70
8
  9
$DIMBLK
  1

  9
$DIMASO
 70
1
  9
$DIMSHO
 70
1
  9
$DIMPOST
  1

  9
$DIMAPOST
  1

  9
$DIMALT
 70
0
  9
$DIMALTD
 70
3
  9
$DIMALTF
 40
0.03937007874
  9
$DIMLFAC
 40
1.0
  9
$DIMTOFL
 70
1
  9
$DIMTVP
 40
0.0
  9
$DIMTIX
 70
0
  9
$DIMSOXD
 70
0
  9
$DIMSAH
 70
0
  9
$DIMBLK1
  1

  9
$DIMBLK2
  1

  9
$DIMSTYLE
  2
ISO-25
  9
$DIMCLRD
 70
0
  9
$DIMCLRE
 70
0
  9
$DIMCLRT
 70
0
  9
$DIMTFAC
 40
1.0
  9
$DIMGAP
 40
0.625
  9
$DIMJUST
 70
0
  9
$DIMSD1
 70
0
  9
$DIMSD2
 70
0
  9
$DIMTOLJ
 70
0
  9
$DIMTZIN
 70
8
  9
$DIMALTZ
 70
0
  9
$DIMALTTZ
 70
0
  9
$DIMUPT
 70
0
  9
$DIMDEC
 70
2
  9
$DIMTDEC
 70
2
  9
$DIMALTU
 70
2
  9
$DIMALTTD
 70
3
  9
$DIMTXSTY
  7
Standard
  9
$DIMAUNIT
 70
0
  9
$DIMADEC
 70
0
  9
$DIMALTRND
 40
0.0
  9
$DIMAZIN
 70
0
  9
$DIMDSEP
 70
44
  9
$DIMATFIT
 70
3
  9
$DIMFRAC
 70
0
  9
$DIMLDRBLK
  1

  9
$DIMLUNIT
 70
2
  9
$DIMLWD
 70
-2
  9
$DIMLWE
 70
-2
  9
$DIMTMOVE
 70
0
  9
$DIMFXL
 40
1.0
  9
$DIMFXLON
 70
0
  9
$DIMJOGANG
 40
0.785398163397
  9
$DIMTFILL
 70
0
  9
$DIMTFILLCLR
 70
0
  9
$DIMARCSYM
 70
0
  9
$DIMLTYPE
  6

  9
$DIMLTEX1
  6

  9
$DIMLTEX2
  6

  9
$DIMTXTDIRECTION
 70
0
  9
$LUNITS
 70
2
  9
$LUPREC
 70
4
  9
$SKETCHINC
 40
1.0
  9
$FILLETRAD
 40
10.0
  9
$AUNITS
 70
0
  9
$AUPREC
 70
2
  9
$MENU
  1
.
  9
$ELEVATION
 40
0.0
  9
$PELEVATION
 40
0.0
  9
$THICKNESS
 40
0.0
  9
$LIMCHECK
 70
0
  9
$CHAMFERA
 40
0.0
  9
$CHAMFERB
 40
0.0
  9
$CHAMFERC
 40
0.0
  9
$CHAMFERD
 40
0.0
  9
$SKPOLY
 70
0
  9
$TDCREATE
 40
2460908.103125
  9
$TDUCREATE
 40
2458532.153996898
  9
$TDUPDATE
 40
2460908.103125
  9
$TDUUPDATE
 40
2458532.1544311
  9
$TDINDWG
 40
0.0
  9
$TDUSRTIMER
 40
0.0
  9
$USRTIMER
 70
1
  9
$ANGBASE
 50
0.0
  9
$ANGDIR
 70
0
  9
$PDMODE
 70
0
  9
$PDSIZE
 40
0.0
  9
$PLINEWID
 40
0.0
  9
$SPLFRAME
 70
0
  9
$SPLINETYPE
 70
6
  9
$SPLINESEGS
 70
8
  9
$HANDSEED
  5
33
  9
$SURFTAB1
 70
6
  9
$SURFTAB2
 70
6
  9
$SURFTYPE
 70
6
  9
$SURFU
 70
6
  9
$SURFV
 70
6
  9
$UCSBASE
  2

  9
$UCSNAME
  2

  9
$UCSORG
 10
0.0
 20
0.0
 30
0.0
  9
$UCSXDIR
 10
1.0
 20
0.0
 30
0.0
  9
$UCSYDIR
 10
0.0
 20
1.0
 30
0.0
  9
$UCSORTHOREF
  2

  9
$UCSORTHOVIEW
 70
0
  9
$UCSORGTOP
 10
0.0
 20
0.0
 30
0.0
  9
$UCSORGBOTTOM
 10
0.0
 20
0.0
 30
0.0
  9
$UCSORGLEFT
 10
0.0
 20
0.0
 30
0.0
  9
$UCSORGRIGHT
 10
0.0
 20
0.0
 30
0.0
  9
$UCSORGFRONT
 10
0.0
 20
0.0
 30
0.0
  9
$UCSORGBACK
 10
0.0
 20
0.0
 30
0.0
  9
$PUCSBASE
  2

  9
$PUCSNAME
  2

  9
$PUCSORG
 10
0.0
 20
0.0
 30
0.0
  9
$PUCSXDIR
 10
1.0
 20
0.0
 30
0.0
  9
$PUCSYDIR
 10
0.0
 20
1.0
 30
0.0
  9
$PUCSORTHOREF
  2

  9
$PUCSORTHOVIEW
 70
0
  9
$PUCSORGTOP
 10
0.0
 20
0.0
 30
0.0
  9
$PUCSORGBOTTOM
 10
0.0
 20
0.0
 30
0.0
  9
$PUCSORGLEFT
 10
0.0
 20
0.0
 30
0.0
  9
$PUCSORGRIGHT
 10
0.0
 20
0.0
 30
0.0
  9
$PUCSORGFRONT
 10
0.0
 20
0.0
 30
0.0
  9
$PUCSORGBACK
 10
0.0
 20
0.0
 30
0.0
  9
$USERI1
 70
0
  9
$USERI2
 70
0
  9
$USERI3
 70
0
  9
$USERI4
 70
0
  9
$USERI5
 70
0
  9
$USERR1
 40
0.0
  9
$USERR2
 40
0.0
  9
$USERR3
 40
0.0
  9
$USERR4
 40
0.0
  9
$USERR5
 40
0.0
  9
$WORLDVIEW
 70
1
  9
$SHADEDGE
 70
3
  9
$SHADEDIF
 70
70
  9
$TILEMODE
 70
1
  9
$MAXACTVP
 70
64
  9
$PINSBASE
 10
0.0
 20
0.0
 30
0.0
  9
$PLIMCHECK
 70
0
  9
$PEXTMIN
 10
1e+20
 20
1e+20
 30
1e+20
  9
$PEXTMAX
 10
-1e+20
 20
-1e+20
 30
-1e+20
  9
$PLIMMIN
 10
0.0
 20
0.0
  9
$PLIMMAX
 10
420.0
 20
297.0
  9
$UNITMODE
 70
0
  9
$VISRETAIN
 70
1
  9
$PLINEGEN
 70
0
  9
$PSLTSCALE
 70
1
  9
$TREEDEPTH
 70
3020
  9
$CMLSTYLE
  2
Standard
  9
$CMLJUST
 70
0
  9
$CMLSCALE
 40
20.0
  9
$PROXYGRAPHICS
 70
1
  9
$MEASUREMENT
 70
1
  9
$CELWEIGHT
370
-1
  9
$ENDCAPS
280
0
  9
$JOINSTYLE
280
0
  9
$LWDISPLAY
290
0
  9
$INSUNITS
 70
6
  9
$HYPERLINKBASE
  1

  9
$STYLESHEET
  1

  9
$XEDIT
290
1
  9
$CEPSNTYPE
380
0
  9
$PSTYLEMODE
290
1
  9
$FINGERPRINTGUID
  2
{0BE0B05D-3A7B-40E0-B21D-C72438476093}
  9
$VERSIONGUID
  2
{A10A9A02-D193-4E9E-8DE4-67FAB07F2DB0}
  9
$EXTNAMES
290
1
  9
$PSVPSCALE
 40
0.0
  9
$OLESTARTUP
290
0
  9
$SORTENTS
280
127
  9
$INDEXCTL
280
0
  9
$HIDETEXT
280
1
  9
$XCLIPFRAME
280
1
  9
$HALOGAP
280
0
  9
$OBSCOLOR
 70
257
  9
$OBSLTYPE
280
0
  9
$INTERSECTIONDISPLAY
280
0
  9
$INTERSECTIONCOLOR
 70
257
  9
$DIMASSOC
280
2
  9
$PROJECTNAME
  1

  9
$CAMERADISPLAY
290
0
  9
$LENSLENGTH
 40
50.0
  9
$CAMERAHEIGHT
 40
0.0
  9
$STEPSPERSEC
 40
24.0
  9
$STEPSIZE
 40
100.0
  9
$3DDWFPREC
 40
2.0
  9
$PSOLWIDTH
 40
0.005
  9
$PSOLHEIGHT
 40
0.08
  9
$LOFTANG1
 40
1.570796326795
  9
$LOFTANG2
 40
1.570796326795
  9
$LOFTMAG1
 40
0.0
  9
$LOFTMAG2
 40
0.0
  9
$LOFTPARAM
 70
7
  9
$LOFTNORMALS
280
1
  9
$LATITUDE
 40
37.795
  9
$LONGITUDE
 40
-122.394
  9
$NORTHDIRECTION
 40
0.0
  9
$TIMEZONE
 70
-8000
  9
$LIGHTGLYPHDISPLAY
280
1
  9
$TILEMODELIGHTSYNCH
280
1
  9
$CMATERIAL
347
20
  9
$SOLIDHIST
280
0
  9
$SHOWHIST
280
1
  9
$DWFFRAME
280
2
  9
$DGNFRAME
280
2
  9
$REALWORLDSCALE
290
1
  9
$INTERFERECOLOR
 62
256
  9
$CSHADOW
280
0
  9
$SHADOWPLANELOCATION
 40
0.0
  0
ENDSEC
  0
SECTION
  2
CLASSES
  0
CLASS
  1
ACDBDICTIONARYWDFLT
  2
AcDbDictionaryWithDefault
  3
ObjectDBX Classes
 90
0
 91
0
280
0
281
0
  0
CLASS
  1
SUN
  2
AcDbSun
  3
SCENEOE
 90
1153
 91
0
280
0
281
0
  0
CLASS
  1
VISUALSTYLE
  2
AcDbVisualStyle
  3
ObjectDBX Classes
 90
4095
 91
0
280
0
281
0
  0
CLASS
  1
MATERIAL
  2
AcDbMaterial
  3
ObjectDBX Classes
 90
1153
 91
0
280
0
281
0
  0
CLASS
  1
SCALE
  2
AcDbScale
  3
ObjectDBX Classes
 90
1153
 91
0
280
0
281
0
  0
CLASS
  1
TABLESTYLE
  2
AcDbTableStyle
  3
ObjectDBX Classes
 90
4095
 91
0
280
0
281
0
  0
CLASS
  1
MLEADERSTYLE
  2
AcDbMLeaderStyle
  3
ACDB_MLEADERSTYLE_CLASS
 90
4095
 91
0
280
0
281
0
  0
CLASS
  1
DICTIONARYVAR
  2
AcDbDictionaryVar
  3
ObjectDBX Classes
 90
0
 91
0
280
0
281
0
  0
CLASS
  1
CELLSTYLEMAP
  2
AcDbCellStyleMap
  3
ObjectDBX Classes
 90
1152
 91
0
280
0
281
0
  0
CLASS
  1
MENTALRAYRENDERSETTINGS
  2
AcDbMentalRayRenderSettings
  3
SCENEOE
 90
1024
 91
0
280
0
281
0
  0
CLASS
  1
ACDBDETAILVIEWSTYLE
  2
AcDbDetailViewStyle
  3
ObjectDBX Classes
 90
1025
 91
0
280
0
281
0
  0
CLASS
  1
ACDBSECTIONVIEWSTYLE
  2
AcDbSectionViewStyle
  3
ObjectDBX Classes
 90
1025
 91
0
280
0
281
0
  0
CLASS
  1
RASTERVARIABLES
  2
AcDbRasterVariables
  3
ISM
 90
0
 91
0
280
0
281
0
  0
CLASS
  1
LAYOUT
  2
AcDbLayout
  3
ObjectDBX Classes
 90
0
 91
0
280
0
281
0
  0
CLASS
  1
ACDBPLACEHOLDER
  2
AcDbPlaceHolder
  3
ObjectDBX Classes
 90
0
 91
0
280
0
281
0
  0
ENDSEC
  0
SECTION
  2
TABLES
  0
TABLE
  2
VPORT
  5
8
330
0
100
AcDbSymbolTable
 70
1
  0
VPORT
  5
23
330
8
100
AcDbSymbolTableRecord
100
AcDbViewportTableRecord
  2
*Active
 70
0
 10
0.0
 20
0.0
 11
1.0
 21
1.0
 12
0.0
 22
0.0
 13
0.0
 23
0.0
 14
0.5
 24
0.5
 15
0.5
 25
0.5
 16
0.0
 26
0.0
 36
1.0
 17
0.0
 27
0.0
 37
0.0
 40
1000.0
 41
1.34
 42
50.0
 43
0.0
 44
0.0
 50
0.0
 51
0.0
 71
0
 72
1000
 73
1
 74
3
 75
0
 76
0
 77
0
 78
0
281
0
 65
0
146
0.0
  0
ENDTAB
  0
TABLE
  2
LTYPE
  5
2
330
0
100
AcDbSymbolTable
 70
3
  0
LTYPE
  5
24
330
2
100
AcDbSymbolTableRecord
100
AcDbLinetypeTableRecord
  2
ByBlock
 70
0
  3

 72
65
 73
0
 40
0.0
  0
LTYPE
  5
25
330
2
100
AcDbSymbolTableRecord
100
AcDbLinetypeTableRecord
  2
ByLayer
 70
0
  3

 72
65
 73
0
 40
0.0
  0
LTYPE
  5
26
330
2
100
AcDbSymbolTableRecord
100
AcDbLinetypeTableRecord
  2
Continuous
 70
0
  3

 72
65
 73
0
 40
0.0
  0
ENDTAB
  0
TABLE
  2
LAYER
  5
1
330
0
100
AcDbSymbolTable
 70
2
  0
LAYER
  5
27
330
1
100
AcDbSymbolTableRecord
100
AcDbLayerTableRecord
  2
0
 70
0
 62
7
  6
Continuous
370
-3
390
13
347
21
  0
LAYER
  5
28
330
1
100
AcDbSymbolTableRecord
100
AcDbLayerTableRecord
  2
Defpoints
 70
0
 62
7
  6
Continuous
290
0
370
-3
390
13
347
21
  0
ENDTAB
  0
TABLE
  2
STYLE
  5
5
330
0
100
AcDbSymbolTable
 70
1
  0
STYLE
  5
29
330
5
100
AcDbSymbolTableRecord
100
AcDbTextStyleTableRecord
  2
Standard
 70
0
 40
0.0
 41
1.0
 50
0.0
 71
0
 42
2.5
  3
txt
  4

  0
ENDTAB
  0
TABLE
  2
VIEW
  5
7
330
0
100
AcDbSymbolTable
 70
0
  0
ENDTAB
  0
TABLE
  2
UCS
  5
6
330
0
100
AcDbSymbolTable
 70
0
  0
ENDTAB
  0
TABLE
  2
APPID
  5
3
330
0
100
AcDbSymbolTable
 70
3
  0
APPID
  5
2A
330
3
100
AcDbSymbolTableRecord
100
AcDbRegAppTableRecord
  2
ACAD
 70
0
  0
APPID
  5
30
330
3
100
AcDbSymbolTableRecord
100
AcDbRegAppTableRecord
  2
HATCHBACKGROUNDCOLOR
 70
0
  0
APPID
  5
31
330
3
100
AcDbSymbolTableRecord
100
AcDbRegAppTableRecord
  2
EZDXF
 70
0
  0
ENDTAB
  0
TABLE
  2
DIMSTYLE
  5
4
330
0
100
AcDbSymbolTable
 70
1
100
AcDbDimStyleTable
  0
DIMSTYLE
105
2B
330
4
100
AcDbSymbolTableRecord
100
AcDbDimStyleTableRecord
  2
Standard
 70
0
 40
1.0
 41
2.5
 42
0.625
 43
3.75
 44
1.25
 45
0.0
 46
0.0
 47
0.0
 48
0.0
 49
2.5
140
2.5
141
2.5
142
0.0
143
0.03937007874
144
1.0
145
0.0
146
1.0
147
0.625
148
0.0
 69
0
 70
0
 71
0
 72
0
 73
0
 74
0
 75
0
 76
0
 77
1
 78
8
 79
3
170
0
171
3
172
1
173
0
174
0
175
0
176
0
177
0
178
0
179
2
271
2
272
2
273
2
274
3
275
0
276
0
277
2
278
44
279
0
280
0
281
0
282
0
283
0
284
8
285
0
286
0
288
0
289
3
290
0
371
-2
372
-2
  0
ENDTAB
  0
TABLE
  2
BLOCK_RECORD
  5
9
330
0
100
AcDbSymbolTable
 70
2
  0
BLOCK_RECORD
  5
17
330
9
100
AcDbSymbolTableRecord
100
AcDbBlockTableRecord
  2
*Model_Space
340
1A
 70
0
280
1
281
0
  0
BLOCK_RECORD
  5
1B
330
9
100
AcDbSymbolTableRecord
100
AcDbBlockTableRecord
  2
*Paper_Space
340
1E
 70
0
280
1
281
0
  0
ENDTAB
  0
ENDSEC
  0
SECTION
  2
BLOCKS
  0
BLOCK
  5
18
330
17
100
AcDbEntity
  8
0
100
AcDbBlockBegin
  2
*Model_Space
 70
0
 10
0.0
 20
0.0
 30
0.0
  3
*Model_Space
  1

  0
ENDBLK
  5
19
330
17
100
AcDbEntity
  8
0
100
AcDbBlockEnd
  0
BLOCK
  5
1C
330
1B
100
AcDbEntity
  8
0
100
AcDbBlockBegin
  2
*Paper_Space
 70
0
 10
0.0
 20
0.0
 30
0.0
  3
*Paper_Space
  1

  0
ENDBLK
  5
1D
330
1B
100
AcDbEntity
  8
0
100
AcDbBlockEnd
  0
ENDSEC
  0
SECTION
  2
ENTITIES
  0
LWPOLYLINE
  5
2F
330
17
100
AcDbEntity
  8
0
100
AcDbPolyline
 90
721
 70
1
 10
43.95178616511629
 20
2.686098697688775
 10
43.95051360918923
 20
2.686473760101895
 10
43.946703557148936
 20
2.687467592981013
 10
43.94037121384875
 20
2.6888179468866342
 10
43.931443409040234
 20
2.690651387939086
 10
43.92006269056607
 20
2.692780198631555
 10
43.90615968844016
 20
2.6952653991273903
 10
43.88967262559285
 20
2.6980370488991077
 10
43.87073265288398
 20
2.7011040026992754
 10
43.849277993243916
 20
2.704396320000413
 10
43.825235465012
 20
2.708040763757552
 10
43.798743827180836
 20
2.7119149655861587
 10
43.76973749481035
 20
2.716014662138871
 10
43.738212663834155
 20
2.7204054649842404
 10
43.704176942385
 20
2.7249561509851636
 10
43.667622714722
 20
2.7297980745018817
 10
43.62861936224349
 20
2.734870018536341
 10
43.5871013000094
 20
2.7401677197411805
 10
43.54306472395333
 20
2.745756789684951
 10
43.49658281193186
 20
2.7515105310241856
 10
43.44758237467621
 20
2.757555837937057
 10
43.396071016515094
 20
2.7637615528980324
 10
43.3421722763715
 20
2.7702678194083474
 10
43.28569322631598
 20
2.7769958421879553
 10
43.22683058693215
 20
2.783959001783058
 10
43.16545320355614
 20
2.7911485090526567
 10
43.10162664210767
 20
2.7985689554019566
 10
43.03535089878273
 20
2.806220406442528
 10
42.96662216571081
 20
2.8141685393544886
 10
42.895440431479756
 20
2.822413550972544
 10
42.82181330041823
 20
2.830824283771162
 10
42.74573316058942
 20
2.839532026499012
 10
42.667269378175405
 20
2.848475824604317
 10
42.58635257177785
 20
2.8577168950851286
 10
42.50299033431321
 20
2.867124277250619
 10
42.417240634980736
 20
2.8768335888083887
 10
42.32909965830181
 20
2.886910638161695
 10
42.23857880886746
 20
2.897158721828023
 10
42.14560488980076
 20
2.9077048652086797
 10
42.05031285602793
 20
2.918492311487681
 10
41.95256773740648
 20
2.929578079927286
 10
41.8525006809922
 20
2.94097109089163
 10
41.75004609804093
 20
2.9526671466449184
 10
41.645269558276496
 20
2.9646707729807886
 10
41.538109277021114
 20
2.9769121605948965
 10
41.42863082399862
 20
2.989395835280877
 10
41.31676100233207
 20
3.002248822440039
 10
41.20263476314366
 20
3.0154144308679673
 10
41.0861865176892
 20
3.0288884628288684
 10
40.96741625836057
 20
3.042671049545879
 10
40.84632396613746
 20
3.056762519076842
 10
40.722971414285425
 20
3.0712328775608073
 10
40.59729681051855
 20
3.0860124469165684
 10
40.46936192429834
 20
3.101171298894742
 10
40.33917054067088
 20
3.116644149984623
 10
40.20673026396483
 20
3.1322998426606756
 10
40.07209904816312
 20
3.1482742570767748
 10
39.93520370019292
 20
3.164694353022662
 10
39.796044201033865
 20
3.1815604585561785
 10
39.65469753641302
 20
3.1986801991537406
 10
39.51115988704774
 20
3.216119448830173
 10
39.36543124532985
 20
3.233878338808612
 10
39.21750018003991
 20
3.252154031852555
 10
39.067385700097624
 20
3.2706186669539496
 10
38.915145767094046
 20
3.2894079930435374
 10
38.760776565550586
 20
3.308587818524573
 10
38.604208698852666
 20
3.328219622841383
 10
38.44557711431834
 20
3.3482467804011207
 10
38.28482002346581
 20
3.36859954751101
 10
38.121937418686905
 20
3.3892780553941875
 10
37.95698725396459
 20
3.4104181842045285
 10
37.7899847303481
 20
3.4317577501141048
 10
37.62085665476459
 20
3.453423712912654
 10
37.44973036259532
 20
3.475490735756001
 10
37.276605842428076
 20
3.497959015478851
 10
37.10142511365151
 20
3.5206931312083087
 10
36.92418435317887
 20
3.543759022570768
 10
36.745014708065945
 20
3.5671656099303646
 10
36.56384297763175
 20
3.5910399842999747
 10
36.380680562663244
 20
3.615185507808651
 10
36.195593029080136
 20
3.639606771861599
 10
36.008580365470294
 20
3.664303973293524
 10
35.81963494468057
 20
3.689408663299371
 10
35.628756755298795
 20
3.7149210387138436
 10
35.435949589979124
 20
3.7407756848030993
 10
35.241348399843744
 20
3.766915910362722
 10
35.04481820333794
 20
3.793398931489674
 10
34.846424570185555
 20
3.820229273977593
 10
34.64624448230955
 20
3.847214628914462
 10
34.44420853548717
 20
3.874416606967745
 10
34.24037088724313
 20
3.902036568636729
 10
34.03479710730121
 20
3.930079039715052
 10
33.82736362250182
 20
3.9584044672055922
 10
33.61821299970803
 20
3.9868248055436974
 10
33.40733000743801
 20
4.015602763449843
 10
33.19471843834596
 20
4.044672926190185
 10
32.98037447314926
 20
4.074101167779549
 10
32.7643712859004
 20
4.103760856486038
 10
32.54670886899123
 20
4.133652123532787
 10
32.32732162226544
 20
4.163770968018709
 10
32.10633689251645
 20
4.194191856264924
 10
31.88368908719607
 20
4.224910656147204
 10
31.659451384160867
 20
4.255800670322085
 10
31.433623768194593
 20
4.286862161235842
 10
31.206271812825108
 20
4.31809958907054
 10
30.977326113829704
 20
4.349574564493644
 10
30.74684463660349
 20
4.381422770824324
 10
30.514773189385203
 20
4.413443438067407
 10
30.281304719124645
 20
4.445715033445098
 10
30.046323256990913
 20
4.477966846434746
 10
29.809824979897286
 20
4.510264816662742
 10
29.571929637916657
 20
4.542814436752599
 10
29.332633411766388
 20
4.575681580719145
 10
29.091816532353246
 20
4.608661083996709
 10
28.849748939962215
 20
4.641638908060772
 10
28.606237668623145
 20
4.674536913746972
 10
28.361402460800793
 20
4.707560724901961
 10
28.115173916076508
 20
4.740771886581633
 10
27.8676870007887
 20
4.7741134451352965
 10
27.618887530784225
 20
4.807384499344646
 10
27.368833471458217
 20
4.8407207325288475
 10
27.117517199461634
 20
4.874253630271279
 10
26.86495772751827
 20
4.9076552659523225
 10
26.61115884828229
 20
4.940860224838133
 10
26.35623270369384
 20
4.974205222689325
 10
26.100051912722858
 20
5.007616383688901
 10
25.842743833574993
 20
5.041167977323267
 10
25.584331283040424
 20
5.074466465404262
 10
25.324810445640544
 20
5.107577656335136
 10
25.06417370563448
 20
5.140632904476133
 10
24.802409631802742
 20
5.173829372590745
 10
24.539664617899156
 20
5.206913009876358
 10
24.275822683680637
 20
5.239613302645021
 10
24.01106918318047
 20
5.272139678809769
 10
23.74525389955813
 20
5.304812128799614
 10
23.478457637823283
 20
5.337372404076144
 10
23.21069559522112
 20
5.369558386422997
 10
22.942091344911272
 20
5.401509628837295
 10
22.672509886318704
 20
5.433283675473845
 10
22.402078589061272
 20
5.464954598984351
 10
22.13073565704901
 20
5.496452786899176
 10
21.858554283354763
 20
5.52765127942858
 10
21.585600052918632
 20
5.558554339919927
 10
21.31180736178018
 20
5.589158033083693
 10
21.037307391231792
 20
5.6194706887799
 10
20.761968944764824
 20
5.649484239594804
 10
20.485915587930755
 20
5.679338369748661
 10
20.20915112860003
 20
5.70896740206135
 10
19.931694571888293
 20
5.738043541136395
 10
19.653538302054656
 20
5.7666981413340315
 10
19.374809700129163
 20
5.7950050784712595
 10
19.095373765536802
 20
5.823021896702889
 10
18.81536928770271
 20
5.8506257027518345
 10
18.534800066889193
 20
5.877750950661114
 10
18.25366990335858
 20
5.9043320944737445
 10
17.97197117376183
 20
5.930500619773103
 10
17.68976567418892
 20
5.956326139028829
 10
17.407053393227645
 20
5.981808849075626
 10
17.123911335625372
 20
6.006756047332067
 10
16.84027770529215
 20
6.0310981213285135
 10
16.556221895038476
 20
6.054773657232208
 10
16.271798089017523
 20
6.077983556261461
 10
15.986929271069698
 20
6.100920717832403
 10
15.701754242032365
 20
6.123462051833247
 10
15.416237834280205
 20
6.1450786648144975
 10
15.130357212002744
 20
6.166164423022165
 10
14.844239775250363
 20
6.186792874215409
 10
14.557827520587281
 20
6.206828991190745
 10
14.271124255883926
 20
6.226207096768051
 10
13.984249757841678
 20
6.245132224289865
 10
13.697142237978689
 20
6.263534630063407
 10
13.409878697238259
 20
6.281221677118822
 10
13.122393535464044
 20
6.298189364555019
 10
12.834814152706427
 20
6.314511240131158
 10
12.547136737290888
 20
6.330253046638926
 10
12.259372705220647
 20
6.345217883761101
 10
11.971518244821182
 20
6.359471494289372
 10
11.68363515598654
 20
6.373083425081809
 10
11.395646426361214
 20
6.386246509942978
 10
11.107706080656197
 20
6.398575081263748
 10
10.8198141188715
 20
6.410069139044117
 10
10.531966740744805
 20
6.420794229241072
 10
10.244160134601584
 20
6.430816094646296
 10
9.95646371607679
 20
6.440072927757624
 10
9.668808077143606
 20
6.448626404854087
 10
9.381328225985186
 20
6.456418850557739
 10
9.094031774538374
 20
6.463318976119911
 10
8.806914918736778
 20
6.469392393109156
 10
8.519973858318078
 20
6.474704647482453
 10
8.233212397348668
 20
6.479190127671252
 10
7.94676935949027
 20
6.482725349894355
 10
7.660571528845643
 20
6.48543766761091
 10
7.374676908850571
 20
6.487462108024402
 10
7.089038915876546
 20
6.488466678002557
 10
6.803781153515701
 20
6.488590405649948
 10
6.518892220981101
 20
6.488029928837519
 10
6.234317918903333
 20
6.4865846087932395
 10
5.950197078552265
 20
6.48413083051277
 10
5.666522095599202
 20
6.4807997515216424
 10
5.383234970412414
 20
6.476456279004806
 10
5.100459317996249
 20
6.471239244232126
 10
4.8181371425230495
 20
6.4650134887769815
 10
4.536395859259469
 20
6.457852297952257
 10
4.255092848085523
 20
6.449944635884564
 10
3.974366940271082
 20
6.441166887569569
 10
3.6942333520816706
 20
6.431256606733067
 10
3.4146882908631024
 20
6.4202792081089
 10
3.1357859521807243
 20
6.408435396080676
 10
2.8575301553171806
 20
6.395659296633568
 10
2.5799247081429133
 20
6.3818852325874555
 10
2.303035226030552
 20
6.367116942397153
 10
2.0267884930828393
 20
6.351481779521812
 10
1.751242527951825
 20
6.335114508718643
 10
1.4764781584715956
 20
6.317756487779822
 10
1.2025030003830515
 20
6.299276362345114
 10
0.929309456965613
 20
6.27980515871691
 10
0.6569596856955697
 20
6.25940625626584
 10
0.3853886912631112
 20
6.238065221851416
 10
0.11465829258262203
 20
6.215851274273865
 10
-0.1551697028437442
 20
6.192833829168119
 10
-0.4241456903189982
 20
6.168746636193594
 10
-0.6922040582745936
 20
6.143593499416674
 10
-0.9592982154738949
 20
6.11770628074649
 10
-1.2254861653526805
 20
6.090949952979561
 10
-1.4906328807074722
 20
6.063266512680102
 10
-1.7548695846753695
 20
6.034648351715349
 10
-2.018065054119269
 20
6.005103078218062
 10
-2.280161285603393
 20
5.974765719391729
 10
-2.5412933063312124
 20
5.943694278672135
 10
-2.8013764844022764
 20
5.911564502282907
 10
-3.0603024210777687
 20
5.878777667768115
 10
-3.3181443360590066
 20
5.845461194198481
 10
-3.57494501651625
 20
5.811217608096314
 10
-3.8305076277438435
 20
5.776058321660764
 10
-4.084909193509489
 20
5.740176365531098
 10
-4.338153517879566
 20
5.7036373512758685
 10
-4.590232992721307
 20
5.666310055757974
 10
-4.841020198963994
 20
5.628267698678729
 10
-5.090646359744733
 20
5.58950267190537
 10
-5.338991664125566
 20
5.550219418276314
 10
-5.586048503973726
 20
5.510286714654459
 10
-5.831813075222831
 20
5.469638949471253
 10
-6.07628918193927
 20
5.428341734295248
 10
-6.319418820687254
 20
5.386530096329928
 10
-6.561267603035325
 20
5.3442002315089105
 10
-6.801696697713626
 20
5.301228524827858
 10
-7.040706104722156
 20
5.257614976286771
 10
-7.27835763156308
 20
5.2132901702507155
 10
-7.514589470734234
 20
5.1683235223546244
 10
-7.74941303443476
 20
5.122911867304152
 10
-7.982766515162491
 20
5.07712462073423
 10
-8.214634696651899
 20
5.030699336370656
 10
-8.445083190471532
 20
4.9836322101470465
 10
-8.673911357849365
 20
4.935869042693998
 10
-8.901261834121634
 20
4.887599060584397
 10
-9.127138423354724
 20
4.8388878753867965
 10
-9.351409902411538
 20
4.7897430952339635
 10
-9.574072467225692
 20
4.74009910855734
 10
-9.795180317166585
 20
4.689755276584896
 10
-10.014683056931203
 20
4.638977849657217
 10
-10.232592098718689
 20
4.587963662479953
 10
-10.448822810628581
 20
4.536388461276736
 10
-10.663440804229428
 20
4.484248441981179
 10
-10.876322464516896
 20
4.431682435863152
 10
-11.087533403059535
 20
4.378686638856271
 10
-11.297077423923726
 20
4.325326662529087
 10
-11.504877503341769
 20
4.271409476242329
 10
-11.710941249446435
 20
4.217066303133101
 10
-11.915268662237718
 20
4.162297143201401
 10
-12.117874957981149
 20
4.107364442721433
 10
-12.318625109473247
 20
4.052210198257411
 10
-12.517638927651964
 20
3.996629966970916
 10
-12.714843192815982
 20
3.9404963297912317
 10
-12.910187509662286
 20
3.884075537058941
 10
-13.103745097892185
 20
3.8274950078447643
 10
-13.295435129671601
 20
3.7704960999408805
 10
-13.48519960156475
 20
3.7132138405507735
 10
-13.67317354077511
 20
3.6557062331102297
 10
-13.859225724165587
 20
3.597980885752015
 10
-14.043344739537028
 20
3.5398409637704726
 10
-14.225541999088584
 20
3.4814833018712594
 10
-14.405821306886635
 20
3.422973511622924
 10
-14.584178858864798
 20
3.3642459814569166
 10
-14.760549043454526
 20
3.30530451543962
 10
-14.934928056589431
 20
3.2460835020024805
 10
-15.10738531390445
 20
3.18664474864767
 10
-15.277789592262483
 20
3.126995863507951
 10
-15.446148499796287
 20
3.0672680697204244
 10
-15.612585651510209
 20
3.0073225360152276
 10
-15.77690421269859
 20
2.9471706745915034
 10
-15.939165990863598
 20
2.8867430698143206
 10
-16.099386202270768
 20
2.8263021679578824
 10
-16.25756484692009
 20
2.765847969022189
 10
-16.41362870511026
 20
2.7052530539365205
 10
-16.567573972774888
 20
2.644451811132326
 10
-16.719462457416142
 20
2.583374824974672
 10
-16.869181956228836
 20
2.5223577614390784
 10
-17.01679427671514
 20
2.4613312048906115
 10
-17.162291810742282
 20
2.4001639321921693
 10
-17.30560894674172
 20
2.338859747410134
 10
-17.446753292846214
 20
2.277549873681608
 10
-17.585717240922996
 20
2.216103087869489
 10
-17.72250459503845
 20
2.1545850015423285
 10
-17.857119159258968
 20
2.093061226268676
 10
-17.98948771388322
 20
2.031404342977813
 10
-18.119621671110366
 20
1.9698111863753922
 10
-18.247571426243415
 20
1.9080155061208275
 10
-18.373286583979358
 20
1.8462835525547046
 10
-18.496763340251803
 20
1.7845497141084725
 10
-18.617997890994367
 20
1.7227483792135811
 10
-18.736924624638505
 20
1.6608833519364117
 10
-18.85361295681915
 20
1.599016439779133
 10
-18.96800868816689
 20
1.5373482815137811
 10
-19.080104210548974
 20
1.4757476540032526
 10
-19.189899523965384
 20
1.414214557247548
 10
-19.297464044051075
 20
1.3528107987488365
 10
-19.402662743602544
 20
1.291478375071331
 10
-19.50556884232112
 20
1.2303447052857521
 10
-19.606124336771007
 20
1.1695448165955824
 10
-19.704394838520756
 20
1.1090749049344406
 10
-19.800307127869058
 20
1.0488075512316068
 10
-19.893930620450842
 20
0.9888045629892492
 10
-19.985134093129002
 20
0.9290735483401338
 10
-20.074056377173417
 20
0.869738122288596
 10
-20.160570053513354
 20
0.8108715045359524
 10
-20.24473312558461
 20
0.7523386678787187
 10
-20.326545593387177
 20
0.694139612316895
 10
-20.40600745692106
 20
0.6362743378504804
 10
-20.483060712750465
 20
0.5788778716829602
 10
-20.5577053608754
 20
0.5219502138143336
 10
-20.629995600665264
 20
0.4652907254725657
 10
-20.699877232750666
 20
0.4091000454296921
 10
-20.767335040866058
 20
0.3531157274115081
 10
-20.832384241276976
 20
0.29760021769221834
 10
-20.895009617717893
 20
0.24229106999761843
 10
-20.95521877832158
 20
0.18731950746481052
 10
-21.01301172308802
 20
0.13268553009379455
 10
-21.068319036382302
 20
0.0783273303824018
 10
-21.121279549474274
 20
0.024368523334969958
 10
-21.17168501545914
 20
-0.029376313555007617
 10
-21.21973987717533
 20
-0.08278736934957544
 10
-21.265309107419338
 20
-0.13592264748451963
 10
-21.308404118390328
 20
-0.18858531325418817
 10
-21.34908291352408
 20
-0.24091039386206475
 10
-21.387283685318426
 20
-0.29282847367321624
 10
-21.423021650038894
 20
-0.34407710641343964
 10
-21.456351007054895
 20
-0.39485693085476853
 10
-21.48721375293063
 20
-0.44503291979372
 10
-21.515617495798875
 20
-0.49447385009319206
 10
-21.54157745192515
 20
-0.5429172754789807
 10
-21.565093621309458
 20
-0.5903631959510864
 10
-21.586239223653116
 20
-0.6366841924387895
 10
-21.604902056150937
 20
-0.6815445989665708
 10
-21.62116294663699
 20
-0.7246857733266092
 10
-21.63512554734365
 20
-0.7654554038997775
 10
-21.646685263598496
 20
-0.8033866015734553
 10
-21.65596857203219
 20
-0.8374333853172105
 10
-21.663101949275397
 20
-0.8665497741006105
 10
-21.668045469784186
 20
-0.8891534821456696
 10
-21.670959846786666
 20
-0.9036080243049974
 10
-21.64789467834086
 20
-1.3230038361750684
 10
-21.646454051152904
 20
-1.3262777489099038
 10
-21.642135973655417
 20
-1.3360338755458585
 10
-21.634955662113928
 20
-1.3520097698087294
 10
-21.62478283583139
 20
-1.3753170242975
 10
-21.61166883255088
 20
-1.4073410900845023
 10
-21.595745852155712
 20
-1.4446663615387083
 10
-21.577066209135197
 20
-1.4852550759686576
 10
-21.555810579489393
 20
-1.5282618911159527
 10
-21.531993237043768
 20
-1.5723051599746427
 10
-21.505582806827224
 20
-1.616790574361387
 10
-21.47672953230877
 20
-1.661397684566196
 10
-21.44538301818538
 20
-1.7058602402484837
 10
-21.411558480722583
 20
-1.749915795134046
 10
-21.37526352805315
 20
-1.7934331260857816
 10
-21.33649816017707
 20
-1.8364122331036905
 10
-21.295331792729282
 20
-1.8787913086856036
 10
-21.251706422273998
 20
-1.9204353256280373
 10
-21.20561824474484
 20
-1.9614098954995425
 10
-21.15713667577674
 20
-2.0016532107979503
 10
-21.10618849566838
 20
-2.0412926905939806
 10
-21.052777508486137
 20
-2.080262723319082
 10
-20.997042545499887
 20
-2.1184396939689174
 10
-20.93877535980483
 20
-2.1560090250499924
 10
-20.878176590172988
 20
-2.1929165171929035
 10
-20.815111209400897
 20
-2.2292201738334367
 10
-20.749648633123474
 20
-2.2648581874694234
 10
-20.681792665407112
 20
-2.299764946532313
 10
-20.611531894052657
 20
-2.3341372857277585
 10
-20.538873927192874
 20
-2.3678439819186563
 10
-20.463803548562236
 20
-2.4011474813792124
 10
-20.38633217035989
 20
-2.433850949403772
 10
-20.306517796021623
 20
-2.4660894131958204
 10
-20.224294813978887
 20
-2.497859068688975
 10
-20.139655616098906
 20
-2.529291139020337
 10
-20.05266961801663
 20
-2.560323816687739
 10
-19.96333301566566
 20
-2.591022713259731
 10
-19.87164580904601
 20
-2.6213878287363133
 10
-19.77753097438997
 20
-2.651612193756756
 10
-19.681123538901037
 20
-2.681637804885274
 10
-19.582296083508485
 20
-2.711391442420549
 10
-19.48117983134941
 20
-2.7408807144953484
 10
-19.377701562722507
 20
-2.7702330401803907
 10
-19.271926889196322
 20
-2.7994522235420574
 10
-19.163794003268684
 20
-2.8284688489454166
 10
-19.053376124640916
 20
-2.857155497319748
 10
-18.940603837678072
 20
-2.8855739761672203
 10
-18.82560456145089
 20
-2.9137975051891494
 10
-18.7083126843908
 20
-2.9418222803191516
 10
-18.58872820649782
 20
-2.969648301557229
 10
-18.46686253997108
 20
-2.997078734197727
 10
-18.342781296379137
 20
-3.0241173823070295
 10
-18.216418864153447
 20
-3.050760441818753
 10
-18.087833246729783
 20
-3.0771429399363814
 10
-17.957024444108153
 20
-3.1032648766599156
 10
-17.824007672554092
 20
-3.1288638057151514
 10
-17.68884093550337
 20
-3.154074754305573
 10
-17.551462425453835
 20
-3.178828306796247
 10
-17.411868338339097
 20
-3.2031900747557245
 10
-17.27012428572771
 20
-3.227163862250388
 10
-17.126234071686053
 20
-3.2506840577116867
 10
-16.980193892147742
 20
-3.2738162727081703
 10
-16.83200374711278
 20
-3.2965605072398394
 10
-16.68166744064755
 20
-3.3188511497381445
 10
-16.52924678025422
 20
-3.340757615838017
 10
-16.37474176593279
 20
-3.3622799055394563
 10
-16.21809059018109
 20
-3.3833486032075317
 10
-16.05941686800346
 20
-3.404102540112107
 10
-15.89865879189773
 20
-3.424472300618251
 10
-15.735812557797518
 20
-3.4445234962945133
 10
-15.570947581337753
 20
-3.464194319638726
 10
-15.404075274717588
 20
-3.483287935945236
 10
-15.235184225737871
 20
-3.502001179919695
 10
-15.064201214697292
 20
-3.5204614706328243
 10
-14.891326880367885
 20
-3.5386146087152186
 10
-14.716437607745306
 20
-3.5563217628970123
 10
-14.539537200895946
 20
-3.573517321609654
 10
-14.360749274824137
 20
-3.5903401161230097
 10
-14.180004413894945
 20
-3.6068519539392487
 10
-13.99731022624114
 20
-3.622921611921269
 10
-13.81273232343127
 20
-3.638552894135453
 10
-13.626274509531715
 20
-3.6536801890132486
 10
-13.437925372343328
 20
-3.6685003312603097
 10
-13.247692519998878
 20
-3.6828820977395345
 10
-13.0555683443656
 20
-3.696956711588024
 10
-12.861695480779739
 20
-3.7105349462328907
 10
-12.665938902037812
 20
-3.723674805109921
 10
-12.46836421970837
 20
-3.736380092285496
 10
-12.269033241293583
 20
-3.7487202233945505
 10
-12.067887963357665
 20
-3.760560171233598
 10
-11.8649863893364
 20
-3.7720349630061256
 10
-11.660397934864719
 20
-3.783082791209962
 10
-11.453998984938293
 20
-3.793564824575243
 10
-11.245920762694217
 20
-3.8034886712347316
 10
-11.036151855933344
 20
-3.8130511658940804
 10
-10.82469226465568
 20
-3.8222523085532907
 10
-10.61154198886122
 20
-3.8310920992123614
 10
-10.396778052317657
 20
-3.8393775072320224
 10
-10.180408063157765
 20
-3.8469773094751716
 10
-9.962351193547464
 20
-3.8541501481496305
 10
-9.742738666623845
 20
-3.8609036313881635
 10
-9.521512478951129
 20
-3.867102731987287
 10
-9.298745850230636
 20
-3.87262003087628
 10
-9.074427368263214
 20
-3.8776523627607973
 10
-8.848615036484645
 20
-3.8823347548443206
 10
-8.621250851459152
 20
-3.886532179923368
 10
-8.392346225385875
 20
-3.890047803292285
 10
-8.162024773269154
 20
-3.89302045622094
 10
-7.9302826910426
 20
-3.895515750277881
 10
-7.696988755569125
 20
-3.897526077330346
 10
-7.462343605620752
 20
-3.89899723800893
 10
-7.2262892377617005
 20
-3.899794205110148
 10
-6.988825651991968
 20
-3.899916978634001
 10
-6.750014655813721
 20
-3.8994349742154215
 10
-6.509837228895055
 20
-3.8986762496971648
 10
-6.268370395003661
 20
-3.89744777443996
 10
-6.02556375883652
 20
-3.8954832981032204
 10
-5.7814135163272535
 20
-3.8928484322554984
 10
-5.536050890612951
 20
-3.8895507850295568
 10
-5.289395053859547
 20
-3.885848998633219
 10
-5.041519225768352
 20
-3.881615653995763
 10
-4.792423406339363
 20
-3.8768507511171904
 10
-4.542115203705345
 20
-3.8714230668603995
 10
-4.290590813799918
 20
-3.8653982127939406
 10
-4.03797385162742
 20
-3.8589150201876796
 10
-3.7841407021835116
 20
-3.8518346577717506
 10
-3.529230196738056
 20
-3.844033510541816
 10
-3.2732385312246746
 20
-3.8355771900664273
 10
-3.0161619015769885
 20
-3.8265313079141343
 10
-2.757938500292824
 20
-3.816826448450005
 10
-2.498772770210601
 20
-3.806342800736084
 10
-2.238602903828148
 20
-3.795010949137438
 10
-1.9773404651786197
 20
-3.78322075899899
 10
-1.7151204814655079
 20
-3.7709142268849534
 10
-1.4520313886556449
 20
-3.757701487450405
 10
-1.1879305514127951
 20
-3.743771767268233
 10
-0.9228797772391194
 20
-3.729194481973371
 10
-0.657017897404485
 20
-3.713846016561482
 10
-0.39021749283817453
 20
-3.6976531513312496
 10
-0.12260978667728406
 20
-3.680623494415438
 10
0.1458860489122578
 20
-3.66301568802187
 10
0.4151967942291403
 20
-3.6447023130798244
 10
0.6852378173729066
 20
-3.6253591158129304
 10
0.9560861421112421
 20
-3.605179126860456
 10
1.2276913731411399
 20
-3.58442859656299
 10
1.4999764981070849
 20
-3.5629146911159664
 10
1.7730039407700136
 20
-3.5405786239585573
 10
2.046716047668233
 20
-3.5175614585585526
 10
2.321097613948427
 20
-3.493600945476455
 10
2.596148647218726
 20
-3.4686972159354017
 10
2.871818752176101
 20
-3.443116520275978
 10
3.1480461365346506
 20
-3.416928536579392
 10
3.4248926116006184
 20
-3.3900639148222784
 10
3.7022811574103613
 20
-3.3623296899769355
 10
3.9802193859007167
 20
-3.333857150792033
 10
4.258707312287953
 20
-3.3046465597138464
 10
4.537679321199445
 20
-3.2747016551971884
 10
4.8171240118482475
 20
-3.243825799371112
 10
5.097048992367128
 20
-3.2121502153727195
 10
5.3773382558845135
 20
-3.179944957608978
 10
5.658119236687385
 20
-3.1471370688248475
 10
5.939249295635434
 20
-3.1135372568358703
 10
6.220797855971723
 20
-3.079207460367352
 10
6.502633694559146
 20
-3.044155287552057
 10
6.784826230836707
 20
-3.008442611503724
 10
7.06737166454209
 20
-2.972003886265369
 10
7.350142576604575
 20
-2.934912331538308
 10
7.633212186725481
 20
-2.8972953663932604
 10
7.916576702250617
 20
-2.8590875760963814
 10
8.200101084564302
 20
-2.8202307603771772
 10
8.483854756909606
 20
-2.7807868579609556
 10
8.767779715850745
 20
-2.7408908960511997
 10
9.051926360494797
 20
-2.700276689918892
 10
9.336171068229303
 20
-2.659082939610762
 10
9.620521447187015
 20
-2.617440868263911
 10
9.904973697105628
 20
-2.5752849299213576
 10
10.189520209852377
 20
-2.5324839014459988
 10
10.47416859736409
 20
-2.489169071586505
 10
10.758795225616089
 20
-2.445478943554902
 10
11.04345810565231
 20
-2.4012786213708393
 10
11.328103038103333
 20
-2.3567687438063536
 10
11.612718603161886
 20
-2.3117523449326556
 10
11.89730100056566
 20
-2.2661638787927614
 10
12.181857838447405
 20
-2.220134568523775
 10
12.466269283044776
 20
-2.1738684632947
 10
12.750600957338529
 20
-2.12736195587386
 10
13.034775829952821
 20
-2.080421884398849
 10
13.318797697345907
 20
-2.0331137292150796
 10
13.60266656332185
 20
-1.9854375559341204
 10
13.886386224338906
 20
-1.9374588449013856
 10
14.169821634173259
 20
-1.889119264623245
 10
14.453042219872039
 20
-1.8404808194365745
 10
14.735986151108674
 20
-1.7916125313068942
 10
15.018726666604822
 20
-1.7426421473627676
 10
15.301117292721235
 20
-1.6933142389586386
 10
15.583161837328378
 20
-1.6436944832746259
 10
15.864944932326715
 20
-1.5941071340871014
 10
16.146312511160517
 20
-1.5441658020596825
 10
16.427260758351192
 20
-1.493804678789112
 10
16.7078781212778
 20
-1.4434138264550185
 10
16.988040954503454
 20
-1.3931315514347207
 10
17.267792052806566
 20
-1.3425605114736667
 10
17.54706959346867
 20
-1.2917698597605174
 10
17.825807942096848
 20
-1.2407630066922417
 10
18.104080329804606
 20
-1.1896675681742654
 10
18.381824930069435
 20
-1.1385526317836792
 10
18.659045535545523
 20
-1.0874836122543279
 10
18.935668915119354
 20
-1.036332893680787
 10
19.2116874454419
 20
-0.9849689904796796
 10
19.487112534908245
 20
-0.93358867174509
 10
19.761944179714316
 20
-0.8821918718654503
 10
20.03605491894467
 20
-0.8308510888148206
 10
20.30957600236486
 20
-0.7795591737414175
 10
20.58236475659799
 20
-0.7281262439566661
 10
20.854424978102305
 20
-0.6766177798059813
 10
21.125775671993438
 20
-0.6253615766858426
 10
21.39641303800909
 20
-0.5742920886392677
 10
21.666198195426524
 20
-0.5232848477115282
 10
21.935266198077684
 20
-0.4723983166193904
 10
22.203481976914365
 20
-0.4215737701998138
 10
22.47091115111325
 20
-0.3708075356095534
 10
22.737495690610082
 20
-0.32023418077111265
 10
23.00316995720785
 20
-0.2698570504698942
 10
23.268007182020064
 20
-0.21980376061132395
 10
23.53186468025761
 20
-0.16988423167212185
 10
23.794873701686072
 20
-0.12009131480050292
 10
24.056899177257215
 20
-0.07036628483342769
 10
24.317963912349008
 20
-0.021102483124358
 10
24.578002272568508
 20
0.027696679929735894
 10
24.83712268328297
 20
0.07643202259194201
 10
25.095124437247197
 20
0.12515892523990046
 10
25.35216921675778
 20
0.17335964417698768
 10
25.608121948962452
 20
0.22109297017781324
 10
25.862967398575357
 20
0.2686216775744233
 10
26.116705557988347
 20
0.3159458975899544
 10
26.369340219855626
 20
0.3630002154905625
 10
26.620890396900958
 20
0.4094567046566292
 10
26.871217196989413
 20
0.4554400298775893
 10
27.120440469099623
 20
0.5011539778761747
 10
27.36842892922941
 20
0.5465919903047163
 10
27.61519017409935
 20
0.5916230408608201
 10
27.86073180423406
 20
0.6361160376305196
 10
28.105046196284533
 20
0.6802024661971922
 10
28.34806770064153
 20
0.72387917861014
 10
28.589869552222645
 20
0.76701849335237
 10
28.830320467025714
 20
0.8096138520762147
 10
29.069474659636406
 20
0.8518656311074343
 10
29.30720083844442
 20
0.8937674033214985
 10
29.543703510957307
 20
0.935198242383787
 10
29.778727724911636
 20
0.9760136772387257
 10
30.01240474528924
 20
1.0162205942918252
 10
30.244730752807467
 20
1.0558848675579096
 10
30.475566855331376
 20
1.0951311618264135
 10
30.704916837907046
 20
1.1338941935866296
 10
30.932915765778606
 20
1.1721153032870855
 10
31.15937052461733
 20
1.2097189106145914
 10
31.38435434173266
 20
1.2465774652752908
 10
31.60779015531625
 20
1.2828846540241405
 10
31.82973978428245
 20
1.3187096956613664
 10
32.05014138308844
 20
1.353983830667722
 10
32.26899493651794
 20
1.3887073214894818
 10
32.48624620335684
 20
1.4226802510818644
 10
32.701949401994845
 20
1.4561029301590618
 10
32.91597704108401
 20
1.4889033856395617
 10
33.12838713547228
 20
1.5212164478921417
 10
33.3391910897507
 20
1.5528454134342868
 10
33.5483270507683
 20
1.5837216539698875
 10
33.75578359110966
 20
1.6140422666508685
 10
33.96156069936258
 20
1.6438074483119371
 10
34.16565836031079
 20
1.6730174613993674
 10
34.36795289047679
 20
1.7015346556515265
 10
34.56858316297513
 20
1.7292346943368233
 10
34.767464504060655
 20
1.7564425529588836
 10
34.96453506438643
 20
1.7830895376100293
 10
35.159860466933246
 20
1.8091792555219366
 10
35.353382666420565
 20
1.8345774012183762
 10
35.54503220536871
 20
1.8593465039287684
 10
35.73493654849723
 20
1.8835589960156092
 10
35.92297580878681
 20
1.907011746871851
 10
36.10914236669252
 20
1.9298361764693002
 10
36.2934400148685
 20
1.9519668700741137
 10
36.47585732209531
 20
1.9736009904497858
 10
36.65640188509349
 20
1.9946075112939197
 10
36.83500804664571
 20
2.0149834158789575
 10
37.01167959940615
 20
2.0346632894710526
 10
37.186478369897294
 20
2.0537162196472956
 10
37.359269254834345
 20
2.0722015220748444
 10
37.530052235197
 20
2.0901195248115427
 10
37.69889674944452
 20
2.107408026685808
 10
37.865806605447425
 20
2.1240013505175233
 10
38.03063917167348
 20
2.1400886572680067
 10
38.19345973254155
 20
2.155679393598536
 10
38.354280069245235
 20
2.170570360481311
 10
38.513030583554375
 20
2.184826514773788
 10
38.66970365972812
 20
2.198579210836208
 10
38.82437253648807
 20
2.211700701540008
 10
38.97690971487816
 20
2.2241191450268123
 10
39.12737321735447
 20
2.2359692404422615
 10
39.27575922843844
 20
2.2473167961896134
 10
39.42200209471678
 20
2.2581587299297383
 10
39.566109412910066
 20
2.2683640153602425
 10
39.70807735993156
 20
2.2779985921075165
 10
39.847898320040386
 20
2.2871938145318014
 10
39.98557608208666
 20
2.2958843335108203
 10
40.12105260459392
 20
2.303935777956774
 10
40.25432786854185
 20
2.3113484759275065
 10
40.38545229586192
 20
2.3183882184826223
 10
40.51436402959909
 20
2.324986442937579
 10
40.64106306594933
 20
2.331143214903948
 10
40.76555318995866
 20
2.3367932508710183
 10
40.88776875201787
 20
2.341933402888095
 10
41.007775378911795
 20
2.3465672125752848
 10
41.12549981670251
 20
2.3508226895074253
 10
41.24094965450243
 20
2.3545689386052566
 10
41.35411727657068
 20
2.357937314229018
 10
41.46507592543298
 20
2.360800003638579
 10
41.573686693738104
 20
2.3632819340696476
 10
41.68001141181265
 20
2.365452127487746
 10
41.7839882303097
 20
2.3672418899851944
 10
41.8856865876886
 20
2.368589020390414
 10
41.985033191970764
 20
2.369622184393925
 10
42.08210126666159
 20
2.370213897313441
 10
42.17674833999966
 20
2.370550564424402
 10
42.26910919572821
 20
2.3705783814314083
 10
42.359052648750804
 20
2.370289084086011
 10
42.446644333460426
 20
2.3696860827851802
 10
42.5318842422489
 20
2.3687695087520537
 10
42.61476855963768
 20
2.3676051703898877
 10
42.69523544388796
 20
2.3661242425678655
 10
42.77327727165073
 20
2.3644582108693633
 10
42.84896349279754
 20
2.3625446772880965
 10
42.922224642240565
 20
2.3604463022766238
 10
42.99306452024212
 20
2.3580975398779636
 10
43.06147931893179
 20
2.3555640672722347
 10
43.127472830963704
 20
2.352780469725592
 10
43.191041248467485
 20
2.3498124244181557
 10
43.252176959506244
 20
2.346791220098596
 10
43.310821914995415
 20
2.3435826169022502
 10
43.367103602478906
 20
2.3402586535222
 10
43.4208212690627
 20
2.336875497674908
 10
43.47217565622863
 20
2.3333771784786173
 10
43.521035464758256
 20
2.329757400031935
 10
43.56739308271476
 20
2.326147451083532
 10
43.611317956165585
 20
2.3224849992386907
 10
43.652744431697464
 20
2.3187669621582825
 10
43.69166490117763
 20
2.3151245629794106
 10
43.72815261093587
 20
2.311429923350374
 10
43.762134307034266
 20
2.3078110528460103
 10
43.79361378593106
 20
2.304202471120905
 10
43.82258343949349
 20
2.3007354013121604
 10
43.84904707178794
 20
2.2973442318512247
 10
43.87306651694506
 20
2.294097919092053
 10
43.894510479550455
 20
2.290990101521681
 10
43.91344080514698
 20
2.2880895386593583
 10
43.92992313573571
 20
2.2853995096789177
 10
43.94382617590229
 20
2.2829136530673977
 10
43.955207959515036
 20
2.280766471135734
 10
43.96413794785766
 20
2.2788953690429343
 10
43.97047722216679
 20
2.2774254708594133
 10
43.97428763939746
 20
2.2764253392697142
 10
43.97556158000467
 20
2.276026394245642
  0
ENDSEC
  0
SECTION
  2
OBJECTS
  0
DICTIONARY
  5
A
330
0
100
AcDbDictionary
280
0
281
1
  3
ACAD_COLOR
350
B
  3
ACAD_GROUP
350
C
  3
ACAD_LAYOUT
350
D
  3
ACAD_MATERIAL
350
E
  3
ACAD_MLEADERSTYLE
350
F
  3
ACAD_MLINESTYLE
350
10
  3
ACAD_PLOTSETTINGS
350
11
  3
ACAD_PLOTSTYLENAME
350
12
  3
ACAD_SCALELIST
350
14
  3
ACAD_TABLESTYLE
350
15
  3
ACAD_VISUALSTYLE
350
16
  3
EZDXF_META
350
2D
  0
DICTIONARY
  5
B
330
A
100
AcDbDictionary
280
0
281
1
  0
DICTIONARY
  5
C
330
A
100
AcDbDictionary
280
0
281
1
  0
DICTIONARY
  5
D
330
A
100
AcDbDictionary
280
0
281
1
  3
Model
350
1A
  3
Layout1
350
1E
  0
DICTIONARY
  5
E
330
A
100
AcDbDictionary
280
0
281
1
  3
ByBlock
350
1F
  3
ByLayer
350
20
  3
Global
350
21
  0
DICTIONARY
  5
F
330
A
100
AcDbDictionary
280
0
281
1
  3
Standard
350
2C
  0
DICTIONARY
  5
10
330
A
100
AcDbDictionary
280
0
281
1
  3
Standard
350
22
  0
DICTIONARY
  5
11
330
A
100
AcDbDictionary
280
0
281
1
  0
ACDBDICTIONARYWDFLT
  5
12
330
A
100
AcDbDictionary
280
0
281
1
  3
Normal
350
13
100
AcDbDictionaryWithDefault
340
13
  0
ACDBPLACEHOLDER
  5
13
330
12
  0
DICTIONARY
  5
14
330
A
100
AcDbDictionary
280
0
281
1
  0
DICTIONARY
  5
15
330
A
100
AcDbDictionary
280
0
281
1
  0
DICTIONARY
  5
16
330
A
100
AcDbDictionary
280
0
281
1
  0
LAYOUT
  5
1A
330
D
100
AcDbPlotSettings
  1

  4
A3
  6

 40
7.5
 41
20.0
 42
7.5
 43
20.0
 44
420.0
 45
297.0
 46
0.0
 47
0.0
 48
0.0
 49
0.0
140
0.0
141
0.0
142
1.0
143
1.0
 70
1024
 72
1
 73
0
 74
5
  7

 75
16
 76
0
 77
2
 78
300
147
1.0
148
0.0
149
0.0
100
AcDbLayout
  1
Model
 70
1
 71
0
 10
0.0
 20
0.0
 11
420.0
 21
297.0
 12
0.0
 22
0.0
 32
0.0
 14
1e+20
 24
1e+20
 34
1e+20
 15
-1e+20
 25
-1e+20
 35
-1e+20
146
0.0
 13
0.0
 23
0.0
 33
0.0
 16
1.0
 26
0.0
 36
0.0
 17
0.0
 27
1.0
 37
0.0
 76
1
330
17
  0
LAYOUT
  5
1E
330
D
100
AcDbPlotSettings
  1

  4
A3
  6

 40
7.5
 41
20.0
 42
7.5
 43
20.0
 44
420.0
 45
297.0
 46
0.0
 47
0.0
 48
0.0
 49
0.0
140
0.0
141
0.0
142
1.0
143
1.0
 70
0
 72
1
 73
0
 74
5
  7

 75
16
 76
0
 77
2
 78
300
147
1.0
148
0.0
149
0.0
100
AcDbLayout
  1
Layout1
 70
1
 71
1
 10
0.0
 20
0.0
 11
420.0
 21
297.0
 12
0.0
 22
0.0
 32
0.0
 14
1e+20
 24
1e+20
 34
1e+20
 15
-1e+20
 25
-1e+20
 35
-1e+20
146
0.0
 13
0.0
 23
0.0
 33
0.0
 16
1.0
 26
0.0
 36
0.0
 17
0.0
 27
1.0
 37
0.0
 76
1
330
1B
  0
MATERIAL
  5
1F
102
{ACAD_REACTORS
330
E
102
}
330
E
100
AcDbMaterial
  1
ByBlock
  2

 70
0
 40
1.0
 71
1
 41
1.0
 91
-1023410177
 42
1.0
 72
1
  3

 73
1
 74
1
 75
1
 44
0.5
 73
0
 45
1.0
 46
1.0
 77
1
  4

 78
1
 79
1
170
1
 48
1.0
171
1
  6

172
1
173
1
174
1
140
1.0
141
1.0
175
1
  7

176
1
177
1
178
1
143
1.0
179
1
  8

270
1
271
1
272
1
145
1.0
146
1.0
273
1
  9

274
1
275
1
276
1
 42
1.0
 72
1
  3

 73
1
 74
1
 75
1
 94
63
  0
MATERIAL
  5
20
102
{ACAD_REACTORS
330
E
102
}
330
E
100
AcDbMaterial
  1
ByLayer
  2

 70
0
 40
1.0
 71
1
 41
1.0
 91
-1023410177
 42
1.0
 72
1
  3

 73
1
 74
1
 75
1
 44
0.5
 73
0
 45
1.0
 46
1.0
 77
1
  4

 78
1
 79
1
170
1
 48
1.0
171
1
  6

172
1
173
1
174
1
140
1.0
141
1.0
175
1
  7

176
1
177
1
178
1
143
1.0
179
1
  8

270
1
271
1
272
1
145
1.0
146
1.0
273
1
  9

274
1
275
1
276
1
 42
1.0
 72
1
  3

 73
1
 74
1
 75
1
 94
63
  0
MATERIAL
  5
21
102
{ACAD_REACTORS
330
E
102
}
330
E
100
AcDbMaterial
  1
Global
  2

 70
0
 40
1.0
 71
1
 41
1.0
 91
-1023410177
 42
1.0
 72
1
  3

 73
1
 74
1
 75
1
 44
0.5
 73
0
 45
1.0
 46
1.0
 77
1
  4

 78
1
 79
1
170
1
 48
1.0
171
1
  6

172
1
173
1
174
1
140
1.0
141
1.0
175
1
  7

176
1
177
1
178
1
143
1.0
179
1
  8

270
1
271
1
272
1
145
1.0
146
1.0
273
1
  9

274
1
275
1
276
1
 42
1.0
 72
1
  3

 73
1
 74
1
 75
1
 94
63
  0
MLINESTYLE
  5
22
102
{ACAD_REACTORS
330
10
102
}
330
10
100
AcDbMlineStyle
  2
Standard
 70
0
  3

 62
256
 51
90.0
 52
90.0
 71
2
 49
0.5
 62
256
  6
BYLAYER
 49
-0.5
 62
256
  6
BYLAYER
  0
MLEADERSTYLE
  5
2C
102
{ACAD_REACTORS
330
F
102
}
330
F
100
AcDbMLeaderStyle
179
2
170
2
171
1
172
0
 90
2
 40
0.0
 41
0.0
173
1
 91
-1056964608
 92
-2
290
1
 42
2.0
291
1
 43
8.0
  3
Standard
 44
4.0
300

342
29
174
1
175
1
176
0
178
1
 93
-1056964608
 45
4.0
292
0
297
0
 46
4.0
 94
-1056964608
 47
1.0
 49
1.0
140
1.0
294
1
141
0.0
177
0
142
1.0
295
0
296
0
143
3.75
271
0
272
9
273
9
  0
DICTIONARY
  5
2D
330
A
100
AcDbDictionary
280
1
281
1
  3
CREATED_BY_EZDXF
350
2E
  3
WRITTEN_BY_EZDXF
350
32
  0
DICTIONARYVAR
  5
2E
330
2D
100
DictionaryVariables
280
0
  1
1.3.5 @ 2025-08-20T01:28:30.133462+00:00
  0
DICTIONARYVAR
  5
32
330
2D
100
DictionaryVariables
280
0
  1
1.3.5 @ 2025-08-20T01:28:30.133462+00:00
  0
ENDSEC
  0
EOF
