  0
SECTION
  2
HEADER
  9
$ACADVER
  1
AC1032
  9
$ACADMAINTVER
 90
4
  9
$DWGCODEPAGE
  3
ANSI_1252
  9
$LASTSAVEDBY
  1
ezdxf
  9
$REQUIREDVERSIONS
160
0
  9
$INSBASE
 10
0.0
 20
0.0
 30
0.0
  9
$EXTMIN
 10
1e+20
 20
1e+20
 30
1e+20
  9
$EXTMAX
 10
-1e+20
 20
-1e+20
 30
-1e+20
  9
$LIMMIN
 10
0.0
 20
0.0
  9
$LIMMAX
 10
420.0
 20
297.0
  9
$ORTHOMODE
 70
0
  9
$REGENMODE
 70
1
  9
$FILLMODE
 70
1
  9
$QTEXTMODE
 70
0
  9
$MIRRTEXT
 70
1
  9
$LTSCALE
 40
1.0
  9
$ATTMODE
 70
1
  9
$TEXTSIZE
 40
2.5
  9
$TRACEWID
 40
1.0
  9
$TEXTSTYLE
  7
Standard
  9
$CLAYER
  8
0
  9
$CELTYPE
  6
ByLayer
  9
$CECOLOR
 62
256
  9
$CELTSCALE
 40
1.0
  9
$DISPSILH
 70
0
  9
$DIMSCALE
 40
1.0
  9
$DIMASZ
 40
2.5
  9
$DIMEXO
 40
0.625
  9
$DIMDLI
 40
3.75
  9
$DIMRND
 40
0.0
  9
$DIMDLE
 40
0.0
  9
$DIMEXE
 40
1.25
  9
$DIMTP
 40
0.0
  9
$DIMTM
 40
0.0
  9
$DIMTXT
 40
2.5
  9
$DIMCEN
 40
2.5
  9
$DIMTSZ
 40
0.0
  9
$DIMTOL
 70
0
  9
$DIMLIM
 70
0
  9
$DIMTIH
 70
0
  9
$DIMTOH
 70
0
  9
$DIMSE1
 70
0
  9
$DIMSE2
 70
0
  9
$DIMTAD
 70
1
  9
$DIMZIN
 70
8
  9
$DIMBLK
  1

  9
$DIMASO
 70
1
  9
$DIMSHO
 70
1
  9
$DIMPOST
  1

  9
$DIMAPOST
  1

  9
$DIMALT
 70
0
  9
$DIMALTD
 70
3
  9
$DIMALTF
 40
0.03937007874
  9
$DIMLFAC
 40
1.0
  9
$DIMTOFL
 70
1
  9
$DIMTVP
 40
0.0
  9
$DIMTIX
 70
0
  9
$DIMSOXD
 70
0
  9
$DIMSAH
 70
0
  9
$DIMBLK1
  1

  9
$DIMBLK2
  1

  9
$DIMSTYLE
  2
ISO-25
  9
$DIMCLRD
 70
0
  9
$DIMCLRE
 70
0
  9
$DIMCLRT
 70
0
  9
$DIMTFAC
 40
1.0
  9
$DIMGAP
 40
0.625
  9
$DIMJUST
 70
0
  9
$DIMSD1
 70
0
  9
$DIMSD2
 70
0
  9
$DIMTOLJ
 70
0
  9
$DIMTZIN
 70
8
  9
$DIMALTZ
 70
0
  9
$DIMALTTZ
 70
0
  9
$DIMUPT
 70
0
  9
$DIMDEC
 70
2
  9
$DIMTDEC
 70
2
  9
$DIMALTU
 70
2
  9
$DIMALTTD
 70
3
  9
$DIMTXSTY
  7
Standard
  9
$DIMAUNIT
 70
0
  9
$DIMADEC
 70
0
  9
$DIMALTRND
 40
0.0
  9
$DIMAZIN
 70
0
  9
$DIMDSEP
 70
44
  9
$DIMATFIT
 70
3
  9
$DIMFRAC
 70
0
  9
$DIMLDRBLK
  1

  9
$DIMLUNIT
 70
2
  9
$DIMLWD
 70
-2
  9
$DIMLWE
 70
-2
  9
$DIMTMOVE
 70
0
  9
$DIMFXL
 40
1.0
  9
$DIMFXLON
 70
0
  9
$DIMJOGANG
 40
0.785398163397
  9
$DIMTFILL
 70
0
  9
$DIMTFILLCLR
 70
0
  9
$DIMARCSYM
 70
0
  9
$DIMLTYPE
  6

  9
$DIMLTEX1
  6

  9
$DIMLTEX2
  6

  9
$DIMTXTDIRECTION
 70
0
  9
$LUNITS
 70
2
  9
$LUPREC
 70
4
  9
$SKETCHINC
 40
1.0
  9
$FILLETRAD
 40
10.0
  9
$AUNITS
 70
0
  9
$AUPREC
 70
2
  9
$MENU
  1
.
  9
$ELEVATION
 40
0.0
  9
$PELEVATION
 40
0.0
  9
$THICKNESS
 40
0.0
  9
$LIMCHECK
 70
0
  9
$CHAMFERA
 40
0.0
  9
$CHAMFERB
 40
0.0
  9
$CHAMFERC
 40
0.0
  9
$CHAMFERD
 40
0.0
  9
$SKPOLY
 70
0
  9
$TDCREATE
 40
2460908.103125
  9
$TDUCREATE
 40
2458532.153996898
  9
$TDUPDATE
 40
2460908.103125
  9
$TDUUPDATE
 40
2458532.1544311
  9
$TDINDWG
 40
0.0
  9
$TDUSRTIMER
 40
0.0
  9
$USRTIMER
 70
1
  9
$ANGBASE
 50
0.0
  9
$ANGDIR
 70
0
  9
$PDMODE
 70
0
  9
$PDSIZE
 40
0.0
  9
$PLINEWID
 40
0.0
  9
$SPLFRAME
 70
0
  9
$SPLINETYPE
 70
6
  9
$SPLINESEGS
 70
8
  9
$HANDSEED
  5
33
  9
$SURFTAB1
 70
6
  9
$SURFTAB2
 70
6
  9
$SURFTYPE
 70
6
  9
$SURFU
 70
6
  9
$SURFV
 70
6
  9
$UCSBASE
  2

  9
$UCSNAME
  2

  9
$UCSORG
 10
0.0
 20
0.0
 30
0.0
  9
$UCSXDIR
 10
1.0
 20
0.0
 30
0.0
  9
$UCSYDIR
 10
0.0
 20
1.0
 30
0.0
  9
$UCSORTHOREF
  2

  9
$UCSORTHOVIEW
 70
0
  9
$UCSORGTOP
 10
0.0
 20
0.0
 30
0.0
  9
$UCSORGBOTTOM
 10
0.0
 20
0.0
 30
0.0
  9
$UCSORGLEFT
 10
0.0
 20
0.0
 30
0.0
  9
$UCSORGRIGHT
 10
0.0
 20
0.0
 30
0.0
  9
$UCSORGFRONT
 10
0.0
 20
0.0
 30
0.0
  9
$UCSORGBACK
 10
0.0
 20
0.0
 30
0.0
  9
$PUCSBASE
  2

  9
$PUCSNAME
  2

  9
$PUCSORG
 10
0.0
 20
0.0
 30
0.0
  9
$PUCSXDIR
 10
1.0
 20
0.0
 30
0.0
  9
$PUCSYDIR
 10
0.0
 20
1.0
 30
0.0
  9
$PUCSORTHOREF
  2

  9
$PUCSORTHOVIEW
 70
0
  9
$PUCSORGTOP
 10
0.0
 20
0.0
 30
0.0
  9
$PUCSORGBOTTOM
 10
0.0
 20
0.0
 30
0.0
  9
$PUCSORGLEFT
 10
0.0
 20
0.0
 30
0.0
  9
$PUCSORGRIGHT
 10
0.0
 20
0.0
 30
0.0
  9
$PUCSORGFRONT
 10
0.0
 20
0.0
 30
0.0
  9
$PUCSORGBACK
 10
0.0
 20
0.0
 30
0.0
  9
$USERI1
 70
0
  9
$USERI2
 70
0
  9
$USERI3
 70
0
  9
$USERI4
 70
0
  9
$USERI5
 70
0
  9
$USERR1
 40
0.0
  9
$USERR2
 40
0.0
  9
$USERR3
 40
0.0
  9
$USERR4
 40
0.0
  9
$USERR5
 40
0.0
  9
$WORLDVIEW
 70
1
  9
$SHADEDGE
 70
3
  9
$SHADEDIF
 70
70
  9
$TILEMODE
 70
1
  9
$MAXACTVP
 70
64
  9
$PINSBASE
 10
0.0
 20
0.0
 30
0.0
  9
$PLIMCHECK
 70
0
  9
$PEXTMIN
 10
1e+20
 20
1e+20
 30
1e+20
  9
$PEXTMAX
 10
-1e+20
 20
-1e+20
 30
-1e+20
  9
$PLIMMIN
 10
0.0
 20
0.0
  9
$PLIMMAX
 10
420.0
 20
297.0
  9
$UNITMODE
 70
0
  9
$VISRETAIN
 70
1
  9
$PLINEGEN
 70
0
  9
$PSLTSCALE
 70
1
  9
$TREEDEPTH
 70
3020
  9
$CMLSTYLE
  2
Standard
  9
$CMLJUST
 70
0
  9
$CMLSCALE
 40
20.0
  9
$PROXYGRAPHICS
 70
1
  9
$MEASUREMENT
 70
1
  9
$CELWEIGHT
370
-1
  9
$ENDCAPS
280
0
  9
$JOINSTYLE
280
0
  9
$LWDISPLAY
290
0
  9
$INSUNITS
 70
6
  9
$HYPERLINKBASE
  1

  9
$STYLESHEET
  1

  9
$XEDIT
290
1
  9
$CEPSNTYPE
380
0
  9
$PSTYLEMODE
290
1
  9
$FINGERPRINTGUID
  2
{268D97A6-5BA5-4567-924F-D31402FCA338}
  9
$VERSIONGUID
  2
{F6FC0E59-184B-4EA4-B065-6808727B1C74}
  9
$EXTNAMES
290
1
  9
$PSVPSCALE
 40
0.0
  9
$OLESTARTUP
290
0
  9
$SORTENTS
280
127
  9
$INDEXCTL
280
0
  9
$HIDETEXT
280
1
  9
$XCLIPFRAME
280
1
  9
$HALOGAP
280
0
  9
$OBSCOLOR
 70
257
  9
$OBSLTYPE
280
0
  9
$INTERSECTIONDISPLAY
280
0
  9
$INTERSECTIONCOLOR
 70
257
  9
$DIMASSOC
280
2
  9
$PROJECTNAME
  1

  9
$CAMERADISPLAY
290
0
  9
$LENSLENGTH
 40
50.0
  9
$CAMERAHEIGHT
 40
0.0
  9
$STEPSPERSEC
 40
24.0
  9
$STEPSIZE
 40
100.0
  9
$3DDWFPREC
 40
2.0
  9
$PSOLWIDTH
 40
0.005
  9
$PSOLHEIGHT
 40
0.08
  9
$LOFTANG1
 40
1.570796326795
  9
$LOFTANG2
 40
1.570796326795
  9
$LOFTMAG1
 40
0.0
  9
$LOFTMAG2
 40
0.0
  9
$LOFTPARAM
 70
7
  9
$LOFTNORMALS
280
1
  9
$LATITUDE
 40
37.795
  9
$LONGITUDE
 40
-122.394
  9
$NORTHDIRECTION
 40
0.0
  9
$TIMEZONE
 70
-8000
  9
$LIGHTGLYPHDISPLAY
280
1
  9
$TILEMODELIGHTSYNCH
280
1
  9
$CMATERIAL
347
20
  9
$SOLIDHIST
280
0
  9
$SHOWHIST
280
1
  9
$DWFFRAME
280
2
  9
$DGNFRAME
280
2
  9
$REALWORLDSCALE
290
1
  9
$INTERFERECOLOR
 62
256
  9
$CSHADOW
280
0
  9
$SHADOWPLANELOCATION
 40
0.0
  0
ENDSEC
  0
SECTION
  2
CLASSES
  0
CLASS
  1
ACDBDICTIONARYWDFLT
  2
AcDbDictionaryWithDefault
  3
ObjectDBX Classes
 90
0
 91
0
280
0
281
0
  0
CLASS
  1
SUN
  2
AcDbSun
  3
SCENEOE
 90
1153
 91
0
280
0
281
0
  0
CLASS
  1
VISUALSTYLE
  2
AcDbVisualStyle
  3
ObjectDBX Classes
 90
4095
 91
0
280
0
281
0
  0
CLASS
  1
MATERIAL
  2
AcDbMaterial
  3
ObjectDBX Classes
 90
1153
 91
0
280
0
281
0
  0
CLASS
  1
SCALE
  2
AcDbScale
  3
ObjectDBX Classes
 90
1153
 91
0
280
0
281
0
  0
CLASS
  1
TABLESTYLE
  2
AcDbTableStyle
  3
ObjectDBX Classes
 90
4095
 91
0
280
0
281
0
  0
CLASS
  1
MLEADERSTYLE
  2
AcDbMLeaderStyle
  3
ACDB_MLEADERSTYLE_CLASS
 90
4095
 91
0
280
0
281
0
  0
CLASS
  1
DICTIONARYVAR
  2
AcDbDictionaryVar
  3
ObjectDBX Classes
 90
0
 91
0
280
0
281
0
  0
CLASS
  1
CELLSTYLEMAP
  2
AcDbCellStyleMap
  3
ObjectDBX Classes
 90
1152
 91
0
280
0
281
0
  0
CLASS
  1
MENTALRAYRENDERSETTINGS
  2
AcDbMentalRayRenderSettings
  3
SCENEOE
 90
1024
 91
0
280
0
281
0
  0
CLASS
  1
ACDBDETAILVIEWSTYLE
  2
AcDbDetailViewStyle
  3
ObjectDBX Classes
 90
1025
 91
0
280
0
281
0
  0
CLASS
  1
ACDBSECTIONVIEWSTYLE
  2
AcDbSectionViewStyle
  3
ObjectDBX Classes
 90
1025
 91
0
280
0
281
0
  0
CLASS
  1
RASTERVARIABLES
  2
AcDbRasterVariables
  3
ISM
 90
0
 91
0
280
0
281
0
  0
CLASS
  1
LAYOUT
  2
AcDbLayout
  3
ObjectDBX Classes
 90
0
 91
0
280
0
281
0
  0
CLASS
  1
ACDBPLACEHOLDER
  2
AcDbPlaceHolder
  3
ObjectDBX Classes
 90
0
 91
0
280
0
281
0
  0
ENDSEC
  0
SECTION
  2
TABLES
  0
TABLE
  2
VPORT
  5
8
330
0
100
AcDbSymbolTable
 70
1
  0
VPORT
  5
23
330
8
100
AcDbSymbolTableRecord
100
AcDbViewportTableRecord
  2
*Active
 70
0
 10
0.0
 20
0.0
 11
1.0
 21
1.0
 12
0.0
 22
0.0
 13
0.0
 23
0.0
 14
0.5
 24
0.5
 15
0.5
 25
0.5
 16
0.0
 26
0.0
 36
1.0
 17
0.0
 27
0.0
 37
0.0
 40
1000.0
 41
1.34
 42
50.0
 43
0.0
 44
0.0
 50
0.0
 51
0.0
 71
0
 72
1000
 73
1
 74
3
 75
0
 76
0
 77
0
 78
0
281
0
 65
0
146
0.0
  0
ENDTAB
  0
TABLE
  2
LTYPE
  5
2
330
0
100
AcDbSymbolTable
 70
3
  0
LTYPE
  5
24
330
2
100
AcDbSymbolTableRecord
100
AcDbLinetypeTableRecord
  2
ByBlock
 70
0
  3

 72
65
 73
0
 40
0.0
  0
LTYPE
  5
25
330
2
100
AcDbSymbolTableRecord
100
AcDbLinetypeTableRecord
  2
ByLayer
 70
0
  3

 72
65
 73
0
 40
0.0
  0
LTYPE
  5
26
330
2
100
AcDbSymbolTableRecord
100
AcDbLinetypeTableRecord
  2
Continuous
 70
0
  3

 72
65
 73
0
 40
0.0
  0
ENDTAB
  0
TABLE
  2
LAYER
  5
1
330
0
100
AcDbSymbolTable
 70
2
  0
LAYER
  5
27
330
1
100
AcDbSymbolTableRecord
100
AcDbLayerTableRecord
  2
0
 70
0
 62
7
  6
Continuous
370
-3
390
13
347
21
  0
LAYER
  5
28
330
1
100
AcDbSymbolTableRecord
100
AcDbLayerTableRecord
  2
Defpoints
 70
0
 62
7
  6
Continuous
290
0
370
-3
390
13
347
21
  0
ENDTAB
  0
TABLE
  2
STYLE
  5
5
330
0
100
AcDbSymbolTable
 70
1
  0
STYLE
  5
29
330
5
100
AcDbSymbolTableRecord
100
AcDbTextStyleTableRecord
  2
Standard
 70
0
 40
0.0
 41
1.0
 50
0.0
 71
0
 42
2.5
  3
txt
  4

  0
ENDTAB
  0
TABLE
  2
VIEW
  5
7
330
0
100
AcDbSymbolTable
 70
0
  0
ENDTAB
  0
TABLE
  2
UCS
  5
6
330
0
100
AcDbSymbolTable
 70
0
  0
ENDTAB
  0
TABLE
  2
APPID
  5
3
330
0
100
AcDbSymbolTable
 70
3
  0
APPID
  5
2A
330
3
100
AcDbSymbolTableRecord
100
AcDbRegAppTableRecord
  2
ACAD
 70
0
  0
APPID
  5
30
330
3
100
AcDbSymbolTableRecord
100
AcDbRegAppTableRecord
  2
HATCHBACKGROUNDCOLOR
 70
0
  0
APPID
  5
31
330
3
100
AcDbSymbolTableRecord
100
AcDbRegAppTableRecord
  2
EZDXF
 70
0
  0
ENDTAB
  0
TABLE
  2
DIMSTYLE
  5
4
330
0
100
AcDbSymbolTable
 70
1
100
AcDbDimStyleTable
  0
DIMSTYLE
105
2B
330
4
100
AcDbSymbolTableRecord
100
AcDbDimStyleTableRecord
  2
Standard
 70
0
 40
1.0
 41
2.5
 42
0.625
 43
3.75
 44
1.25
 45
0.0
 46
0.0
 47
0.0
 48
0.0
 49
2.5
140
2.5
141
2.5
142
0.0
143
0.03937007874
144
1.0
145
0.0
146
1.0
147
0.625
148
0.0
 69
0
 70
0
 71
0
 72
0
 73
0
 74
0
 75
0
 76
0
 77
1
 78
8
 79
3
170
0
171
3
172
1
173
0
174
0
175
0
176
0
177
0
178
0
179
2
271
2
272
2
273
2
274
3
275
0
276
0
277
2
278
44
279
0
280
0
281
0
282
0
283
0
284
8
285
0
286
0
288
0
289
3
290
0
371
-2
372
-2
  0
ENDTAB
  0
TABLE
  2
BLOCK_RECORD
  5
9
330
0
100
AcDbSymbolTable
 70
2
  0
BLOCK_RECORD
  5
17
330
9
100
AcDbSymbolTableRecord
100
AcDbBlockTableRecord
  2
*Model_Space
340
1A
 70
0
280
1
281
0
  0
BLOCK_RECORD
  5
1B
330
9
100
AcDbSymbolTableRecord
100
AcDbBlockTableRecord
  2
*Paper_Space
340
1E
 70
0
280
1
281
0
  0
ENDTAB
  0
ENDSEC
  0
SECTION
  2
BLOCKS
  0
BLOCK
  5
18
330
17
100
AcDbEntity
  8
0
100
AcDbBlockBegin
  2
*Model_Space
 70
0
 10
0.0
 20
0.0
 30
0.0
  3
*Model_Space
  1

  0
ENDBLK
  5
19
330
17
100
AcDbEntity
  8
0
100
AcDbBlockEnd
  0
BLOCK
  5
1C
330
1B
100
AcDbEntity
  8
0
100
AcDbBlockBegin
  2
*Paper_Space
 70
0
 10
0.0
 20
0.0
 30
0.0
  3
*Paper_Space
  1

  0
ENDBLK
  5
1D
330
1B
100
AcDbEntity
  8
0
100
AcDbBlockEnd
  0
ENDSEC
  0
SECTION
  2
ENTITIES
  0
LWPOLYLINE
  5
2F
330
17
100
AcDbEntity
  8
0
100
AcDbPolyline
 90
721
 70
1
 10
38.59187624500274
 20
1.5917565624397427
 10
38.590766747617856
 20
1.5921076057945214
 10
38.58744265132507
 20
1.5930454072915765
 10
38.581912732477946
 20
1.5943397130430839
 10
38.574115021473716
 20
1.5961027917809736
 10
38.56417126836997
 20
1.59816753989832
 10
38.55202169710337
 20
1.6005886770567654
 10
38.53761091429804
 20
1.6033059399907328
 10
38.52105409158893
 20
1.6063248146974802
 10
38.50229583560018
 20
1.6095850379114303
 10
38.48127417014174
 20
1.6131990511845429
 10
38.458108658318984
 20
1.6170571271601488
 10
38.43274170882512
 20
1.6211566668563113
 10
38.40517112592491
 20
1.6255552769499946
 10
38.37540130108878
 20
1.6301377440872709
 10
38.34342783845483
 20
1.6350193968354214
 10
38.30931052067365
 20
1.6401453427127728
 10
38.27299175643839
 20
1.6455129827373893
 10
38.23446935001385
 20
1.6511799235862334
 10
38.193805275394325
 20
1.6570337813140237
 10
38.150937551998325
 20
1.6631871126860729
 10
38.10587056910051
 20
1.6695247619551308
 10
38.05871510466971
 20
1.6761674860790596
 10
38.00930059369507
 20
1.6830495357950246
 10
37.95779979033545
 20
1.6901792265089277
 10
37.90409752076013
 20
1.6975511298301882
 10
37.84825136529728
 20
1.7051681327741273
 10
37.79026132175113
 20
1.713030292947422
 10
37.730125192190776
 20
1.721195274633713
 10
37.66784297002899
 20
1.729663250653031
 10
37.60341904454046
 20
1.7383190652581257
 10
37.53684902205903
 20
1.7472779894096016
 10
37.46819267645232
 20
1.756485361052493
 10
37.39739022506976
 20
1.7659960726684738
 10
37.324446050598844
 20
1.7756951413303241
 10
37.24941334848449
 20
1.7857004945872612
 10
37.1722899164043
 20
1.79606991193628
 10
37.09308233717241
 20
1.8066306885598438
 10
37.01172862581588
 20
1.8174954964366203
 10
36.92834614970484
 20
1.8286122148869033
 10
36.842817532686205
 20
1.8400331950171065
 10
36.7552579441992
 20
1.8517639804311645
 10
36.66560979074128
 20
1.8638020297538191
 10
36.573930654836296
 20
1.8761501723937128
 10
36.48016513871691
 20
1.8887482602986239
 10
36.38437082490701
 20
1.901599122877196
 10
36.286485728433625
 20
1.914815432108097
 10
36.18662721447119
 20
1.9283451249182977
 10
36.084737689517155
 20
1.9421856599325393
 10
35.98081714918004
 20
1.9563371523641753
 10
35.87486558248117
 20
1.9707998902465904
 10
35.766938380600706
 20
1.9856341944520395
 10
35.65698014137982
 20
2.000780032141652
 10
35.5450462538029
 20
2.0162977817943597
 10
35.4311389026265
 20
2.0321301247665837
 10
35.31526247712527
 20
2.048161905311074
 10
35.19747016396121
 20
2.0645112814037563
 10
35.077699980357124
 20
2.081290867416621
 10
34.955951915334325
 20
2.098500951383052
 10
34.83229014081801
 20
2.1159714850741267
 10
34.70671245229008
 20
2.1337603055935177
 10
34.579218845359
 20
2.151867528154577
 10
34.449802721840555
 20
2.170466260821581
 10
34.31847505382351
 20
2.1892686430297434
 10
34.18528903236135
 20
2.2083927175416345
 10
34.05024245513165
 20
2.2278962638542494
 10
33.913275530700965
 20
2.2478344048759697
 10
33.77450562204793
 20
2.268155135140442
 10
33.6338773292095
 20
2.2887983642021217
 10
33.49139064779419
 20
2.3097642072743625
 10
33.347098764464015
 20
2.331170822333089
 10
33.2010104533768
 20
2.3527880130971552
 10
33.053063731755344
 20
2.3747283939385517
 10
32.90337156891222
 20
2.397055230351531
 10
32.75193395826022
 20
2.4197686951561246
 10
32.59869769776717
 20
2.4427510336231446
 10
32.44366058071921
 20
2.46606014046294
 10
32.286937776555554
 20
2.489701559279446
 10
32.128467298107516
 20
2.513788019658006
 10
31.968255725993494
 20
2.5381468743877615
 10
31.80636064054162
 20
2.5627810104840334
 10
31.6427820351647
 20
2.587690600766852
 10
31.477515507413663
 20
2.6129911466235303
 10
31.310561050701285
 20
2.638682820874099
 10
31.14192085417557
 20
2.6647081896616247
 10
30.971712283010945
 20
2.6910151899130788
 10
30.799817954467095
 20
2.7176563455549063
 10
30.626295451067904
 20
2.744634485995751
 10
30.451208942542845
 20
2.771779620613368
 10
30.27449863306695
 20
2.7991469875294896
 10
30.096215517958516
 20
2.8269122361836536
 10
29.91641717974141
 20
2.8550781959845035
 10
29.73499282068519
 20
2.8835246284342686
 10
29.55206420182614
 20
2.912084141892641
 10
29.36762253144054
 20
2.940987393494182
 10
29.181669998676366
 20
2.970176949381959
 10
28.99420439901549
 20
2.999710646659644
 10
28.805287704256443
 20
3.0294761589886297
 10
28.61491991000777
 20
3.059473601582272
 10
28.423043416179684
 20
3.0897006058853407
 10
28.22977119867197
 20
3.120220264572058
 10
28.035045661786327
 20
3.151030093873841
 10
27.838928779517047
 20
3.1820177098454074
 10
27.64142054308116
 20
3.213183342913465
 10
27.442578537198294
 20
3.2445297648799802
 10
27.2423429660435
 20
3.2761122138666905
 10
27.040767022865975
 20
3.3080486750294873
 10
26.837799692585836
 20
3.34016401738893
 10
26.633611551192583
 20
3.3725237021744676
 10
26.428096190230466
 20
3.4048923351410827
 10
26.221251402985573
 20
3.437327810999121
 10
26.01318578047449
 20
3.4700082629567026
 10
25.80389711817909
 20
3.5029915281174975
 10
25.59327681410412
 20
3.5360997613067737
 10
25.38155962055576
 20
3.569228260311704
 10
25.168574950565826
 20
3.6023118519362223
 10
24.954431390759414
 20
3.6355287846018007
 10
24.73906914750731
 20
3.668934238823497
 10
24.522605594766873
 20
3.7024759211015756
 10
24.304989721849676
 20
3.735978585243239
 10
24.086274722004926
 20
3.7695602164043818
 10
23.8664561949793
 20
3.80333625836564
 10
23.645545115057306
 20
3.837018792955549
 10
23.423543671386938
 20
3.8705503863171766
 10
23.200556063514373
 20
3.904224385012567
 10
22.976469295778237
 20
3.9379782148275915
 10
22.751396350665495
 20
3.971874795616441
 10
22.525350398195854
 20
4.005568602530689
 10
22.29832923604692
 20
4.039117415067328
 10
22.070328468356827
 20
4.072636561793639
 10
21.841341496941297
 20
4.1062991507739
 10
21.61149229174623
 20
4.139879838050774
 10
21.380674437728647
 20
4.173143402199273
 10
21.149054128190606
 20
4.206270287376067
 10
20.916505186472325
 20
4.239543732248838
 10
20.683093989017163
 20
4.272735851484993
 10
20.44882930778723
 20
4.30561650641006
 10
20.213821940512965
 20
4.338305935521812
 10
19.97795449347539
 20
4.370856950780076
 10
19.741339955748693
 20
4.403332299219011
 10
19.50392292297829
 20
4.435672005606427
 10
19.26576537794141
 20
4.467763455570331
 10
19.02692491194487
 20
4.4996092480926615
 10
18.78734392270317
 20
4.531207072224865
 10
18.547137599417148
 20
4.562561953110786
 10
18.30619074410303
 20
4.593669096033289
 10
18.064614150099793
 20
4.624648854703497
 10
17.822410015338356
 20
4.655443564837769
 10
17.579589309711782
 20
4.6857654234779975
 10
17.336147637358202
 20
4.7157297591914595
 10
17.09219799393898
 20
4.745399146192288
 10
16.84762298573515
 20
4.774826396440309
 10
16.60254219341795
 20
4.80390132172544
 10
16.356957810526836
 20
4.832566372977394
 10
16.110872030601268
 20
4.860764001125881
 10
15.864280453387922
 20
4.888609649951542
 10
15.617238483241353
 20
4.916163294686564
 10
15.369746113574335
 20
4.943425108150981
 10
15.121867527290782
 20
4.9702247540824835
 10
14.873547320036115
 20
4.9965022572488795
 10
14.624845281048087
 20
5.022202552348466
 10
14.375812421015128
 20
5.0475008855740375
 10
14.126384550446142
 20
5.072567766007934
 10
13.876681256599598
 20
5.097292832620041
 10
13.626662505267287
 20
5.1212128634394185
 10
13.376315115450836
 20
5.144673671347881
 10
13.125752093790293
 20
5.167737542526172
 10
12.8749202250791
 20
5.190287067885167
 10
12.623821707248174
 20
5.2122645831412235
 10
12.372565146684234
 20
5.2338478182557235
 10
12.121095143424197
 20
5.254976682783118
 10
11.869475878176214
 20
5.275480898067778
 10
11.61764975085051
 20
5.295358095554472
 10
11.365729768087157
 20
5.314670561423948
 10
11.113713729759473
 20
5.333476017566521
 10
10.861608225268796
 20
5.351601586344624
 10
10.609411054488449
 20
5.369104989648574
 10
10.357177623968736
 20
5.386046145103886
 10
10.104843746414298
 20
5.402595504186223
 10
9.852537796415845
 20
5.418412163944261
 10
9.600259773973368
 20
5.433496124377999
 10
9.348007485547411
 20
5.447904934557726
 10
9.095778731011306
 20
5.4616963163737555
 10
8.843633312777214
 20
5.474814858884326
 10
8.591511432824436
 20
5.487315857817846
 10
8.339530489263433
 20
5.499146386001134
 10
8.08769487576033
 20
5.5101911724735855
 10
7.836002396579932
 20
5.520507823912165
 10
7.5844508581827705
 20
5.530153889387157
 10
7.33304245630405
 20
5.5390717622216
 10
7.081896791376617
 20
5.547150735745317
 10
6.830951867448852
 20
5.554503769970359
 10
6.580260899727322
 20
5.56124827398585
 10
6.329777264602521
 20
5.567093903458422
 10
6.079611777370771
 20
5.572160436032427
 10
5.8297578574136955
 20
5.576620518918727
 10
5.580164485259914
 20
5.580299136351232
 10
5.330951265733759
 20
5.583085466446412
 10
5.082113809560561
 20
5.585094664951515
 10
4.83359890372949
 20
5.586209265170742
 10
4.585517370124077
 20
5.586548871928413
 10
4.337815997929229
 20
5.585995960922049
 10
4.090607802567933
 20
5.5846125879056885
 10
3.8437709922636127
 20
5.582566951013117
 10
3.5974251718405954
 20
5.5797482283608035
 10
3.351579124239665
 20
5.575925993240895
 10
3.10623066031283
 20
5.571157679510321
 10
2.86143079733573
 20
5.56561836054185
 10
2.6171817398265045
 20
5.559250199231811
 10
2.3734856857160755
 20
5.55199553129656
 10
2.130400243877158
 20
5.543856494864621
 10
1.8878634183581153
 20
5.5349460499480445
 10
1.6459284331484578
 20
5.525381375209249
 10
1.404661677865943
 20
5.5149342396755765
 10
1.1640675483724432
 20
5.503489314779748
 10
0.9241416597847545
 20
5.491161641055658
 10
0.6849396250522933
 20
5.478005721101187
 10
0.4464041932071892
 20
5.464010026899472
 10
0.2085907817784189
 20
5.449234188042641
 10
-0.028445198292257026
 20
5.433738006942855
 10
-0.2647525707410021
 20
5.417288861157061
 10
-0.5002737288908581
 20
5.399888946420461
 10
-0.7349620447408556
 20
5.381828491853068
 10
-0.9688707334975537
 20
5.3629900883657555
 10
-1.201882386071831
 20
5.343320520751959
 10
-1.434112215817615
 20
5.322815397541281
 10
-1.6654450093809778
 20
5.301479110204117
 10
-1.8958275515553535
 20
5.279429067829592
 10
-2.1253772514298674
 20
5.256718485624275
 10
-2.354025523651561
 20
5.2330615259385445
 10
-2.5816703292777015
 20
5.208808220304579
 10
-2.808373666455642
 20
5.184071586341105
 10
-3.0341799674511623
 20
5.1585037882511475
 10
-3.258916412233375
 20
5.132111413240298
 10
-3.4826471946848305
 20
5.105065085604247
 10
-3.7053745105407323
 20
5.077422412019962
 10
-3.927093968330677
 20
5.049068179133513
 10
-4.147692550435942
 20
5.020064385092261
 10
-4.367285470210454
 20
4.990406638425809
 10
-4.58576410150588
 20
4.960272150635445
 10
-4.803124052851821
 20
4.92954570836724
 10
-5.0193631285130795
 20
4.898169704944231
 10
-5.234483524224856
 20
4.866201747043383
 10
-5.4484320247805815
 20
4.833759243753819
 10
-5.661266236857219
 20
4.800839999340342
 10
-5.872866555630444
 20
4.76733319191942
 10
-6.083232981100262
 20
4.733238821491054
 10
-6.292420924208432
 20
4.6984970856430825
 10
-6.5003749740131935
 20
4.663167786787666
 10
-6.7071017177201355
 20
4.627423744955696
 10
-6.912545744387496
 20
4.591324762559332
 10
-7.116698271074483
 20
4.5546404128907225
 10
-7.3196169044580595
 20
4.517368500214669
 10
-7.521126628772136
 20
4.479458005059801
 10
-7.721349244576236
 20
4.441077355986613
 10
-7.920286947605555
 20
4.402284159672068
 10
-8.117824524506165
 20
4.363082807586564
 10
-8.31395977954287
 20
4.323415693053136
 10
-8.508743732187037
 20
4.283107800305695
 10
-8.702127558702502
 20
4.242391751787294
 10
-8.894117846294849
 20
4.201440367528824
 10
-9.084646009611129
 20
4.159967809880663
 10
-9.273769655328307
 20
4.117971883107615
 10
-9.46137796156285
 20
4.075572192034003
 10
-9.647528534991721
 20
4.032766540924628
 10
-9.832223571350122
 20
3.989612536456453
 10
-10.015398876755487
 20
3.945939554333787
 10
-10.19705884267822
 20
3.901862807910556
 10
-10.37720346911832
 20
3.8573822971867613
 10
-10.555841539016575
 20
3.812728448870255
 10
-10.732855643283859
 20
3.767848047754471
 10
-10.908354408068513
 20
3.7225638823381217
 10
-11.08227583522317
 20
3.6767629350024786
 10
-11.254571101011663
 20
3.630677828190594
 10
-11.425302203581348
 20
3.584421579521196
 10
-11.59440275331447
 20
3.537765958021629
 10
-11.761819535004465
 20
3.4908283727810185
 10
-11.927669957740454
 20
3.443662039005931
 10
-12.091838808168507
 20
3.3962713481667643
 10
-12.254319499083039
 20
3.3484834802326247
 10
-12.415118617689638
 20
3.300471255234406
 10
-12.574238359723502
 20
3.252292279849069
 10
-12.731676529449436
 20
3.2038889473996517
 10
-12.887375520190474
 20
3.1552634536213526
 10
-13.041333136211419
 20
3.1063581918372054
 10
-13.193609179924431
 20
3.057228572988979
 10
-13.344088437975586
 20
3.0078789885470676
 10
-13.492775301835275
 20
2.9584246518653976
 10
-13.639780593387034
 20
2.9087459581196478
 10
-13.784931492599972
 20
2.8588494945154106
 10
-13.928283410415851
 20
2.8086754586405247
 10
-14.069845129775464
 20
2.758454277202845
 10
-14.209616650678813
 20
2.7081859502023704
 10
-14.347535974978536
 20
2.6577574600203726
 10
-14.483600906939438
 20
2.607111199979888
 10
-14.617866857503282
 20
2.5561873676687545
 10
-14.750229591992131
 20
2.5052783879421865
 10
-14.88074452134775
 20
2.4543244583880215
 10
-15.009407254099749
 20
2.403210365652333
 10
-15.136160183571155
 20
2.351938305470319
 10
-15.26100770123237
 20
2.3006234911959056
 10
-15.383945415612999
 20
2.2491507094751673
 10
-15.504975522448234
 20
2.197577566985067
 10
-15.624100217473277
 20
2.145961670402567
 10
-15.74125750254077
 20
2.09419000210894
 10
-15.856453964856305
 20
2.0424353821350754
 10
-15.969738428156056
 20
1.9904651880379218
 10
-16.08106206870384
 20
1.9385120422605304
 10
-16.19042269076447
 20
1.886518338125939
 10
-16.29781809860276
 20
1.8344264689571823
 10
-16.40319068554172
 20
1.78223863048946
 10
-16.50660025399353
 20
1.7300102336645362
 10
-16.607995784486803
 20
1.6779162942485006
 10
-16.707372885551163
 20
1.6258415988874253
 10
-16.8047315571866
 20
1.5737861475813106
 10
-16.900131601805274
 20
1.521805351271922
 10
-16.993455610318065
 20
1.4698459947526918
 10
-17.084765580872332
 20
1.4180210956423502
 10
-17.1740082982615
 20
1.3664480630300198
 10
-17.26124136916254
 20
1.3151247011805052
 10
-17.346402795428087
 20
1.2639379924750758
 10
-17.429552379470312
 20
1.2129433478554972
 10
-17.510574907935275
 20
1.162145158792166
 10
-17.58958998564731
 20
1.1116542471686128
 10
-17.666484594987683
 20
1.061532611132197
 10
-17.741311951162963
 20
1.011662841593794
 10
-17.81407205417315
 20
0.9620449385534033
 10
-17.88476490401824
 20
0.9126789020110252
 10
-17.953337285491664
 20
0.8636821410557848
 10
-18.019789198593436
 20
0.8150546556876818
 10
-18.084171662794905
 20
0.7666214301406277
 10
-18.14643365862472
 20
0.7185574801807113
 10
-18.206566403142077
 20
0.6706323791000781
 10
-18.26457867928778
 20
0.6230765536065823
 10
-18.320461704121023
 20
0.5756595769923699
 10
-18.37421986911221
 20
0.5284966626113679
 10
-18.425853174261338
 20
0.48158781046357624
 10
-18.475301817156247
 20
0.4348776096072296
 10
-18.52268540262126
 20
0.3884768819258587
 10
-18.567824523419894
 20
0.34221939459416706
 10
-18.61089639105343
 20
0.2962137737604877
 10
-18.651783596432754
 20
0.250406804218253
 10
-18.69049272676345
 20
0.20497130599835398
 10
-18.727076997252084
 20
0.15978987001166525
 10
-18.761480996956898
 20
0.11492229867034817
 10
-18.793713508818684
 20
0.0705990186822571
 10
-18.823825552308804
 20
0.026645014281303548
 10
-18.85176391222069
 20
-0.01682230544338749
 10
-18.87753298002475
 20
-0.05968772713788921
 10
-18.901141538661765
 20
-0.10172082409434721
 10
-18.92258958813174
 20
-0.14292159631276163
 10
-18.941939126582024
 20
-0.18317702617440315
 10
-18.959085919334687
 20
-0.22219468882405824
 10
-18.974096356007486
 20
-0.2597463532890707
 10
-18.98705000062936
 20
-0.2952581485350031
 10
-18.99784700999277
 20
-0.32832243635271485
 10
-19.006580122537837
 20
-0.3580197056459869
 10
-19.013342076704696
 20
-0.38343044531860077
 10
-19.01807035678417
 20
-0.40316770365303556
 10
-19.020877462833162
 20
-0.4157935094604006
 10
-19.007939046046125
 20
-0.783999500903157
 10
-19.00673253668873
 20
-0.7868957224595388
 10
-19.003115204351737
 20
-0.7955267804517206
 10
-18.99709583197594
 20
-0.8096622481718487
 10
-18.988579485386012
 20
-0.8302792433931049
 10
-18.97763526749673
 20
-0.8585918978021198
 10
-18.964319749861406
 20
-0.8916024684615909
 10
-18.94864339359422
 20
-0.9275229526504507
 10
-18.930749956606665
 20
-0.9656088550385689
 10
-18.91062794266094
 20
-1.0046482396745133
 10
-18.888239506696856
 20
-1.044120450730414
 10
-18.86371084074433
 20
-1.0837418462918493
 10
-18.83699312106718
 20
-1.123279803915767
 10
-18.808095130606215
 20
-1.1625038968943129
 10
-18.77702126083182
 20
-1.2012989118735597
 10
-18.743771511744
 20
-1.2396648488535078
 10
-18.708405685754908
 20
-1.2775462968923914
 10
-18.670870567657985
 20
-1.3148258469010852
 10
-18.631163961718034
 20
-1.3515611055565533
 10
-18.589345670347207
 20
-1.3876966619170297
 10
-18.545353695398152
 20
-1.4233455336012437
 10
-18.499190232606065
 20
-1.4584501139322317
 10
-18.450974886795272
 20
-1.4928995810264625
 10
-18.40052825072928
 20
-1.5268601677092328
 10
-18.34802534017419
 20
-1.560280854509173
 10
-18.293348746040866
 20
-1.593214856632851
 10
-18.236558270741472
 20
-1.6256067631385005
 10
-18.17765611001121
 20
-1.6573989673491587
 10
-18.116635676644478
 20
-1.6887642892957153
 10
-18.053501362111685
 20
-1.7195875156242442
 10
-17.98824438347203
 20
-1.7500990730425994
 10
-17.92087132793111
 20
-1.7801261415198895
 10
-17.851435410695487
 20
-1.8097861301452403
 10
-17.779879025088206
 20
-1.8390768431834534
 10
-17.70619777963887
 20
-1.868113493988456
 10
-17.63045147675963
 20
-1.8968406716184827
 10
-17.552637920715302
 20
-1.925315982750497
 10
-17.472757111505878
 20
-1.9535394273844982
 10
-17.3907448552488
 20
-1.9816816298161803
 10
-17.306718561033204
 20
-2.0096893748389744
 10
-17.22056521124035
 20
-2.0375006643055213
 10
-17.132400019224164
 20
-2.0651198896862177
 10
-17.042160986837292
 20
-2.0926600685997916
 10
-16.9499057207567
 20
-2.120123396781442
 10
-16.855578810040612
 20
-2.147450071819006
 10
-16.759242252836394
 20
-2.1745270760937556
 10
-16.66083624673189
 20
-2.201409820547457
 10
-16.560473809345815
 20
-2.2281603033274675
 10
-16.45809733400122
 20
-2.2547763286985907
 10
-16.353706820698104
 20
-2.2812578966608266
 10
-16.247308856642043
 20
-2.3074321871832835
 10
-16.138961048510023
 20
-2.3333013960011604
 10
-16.02860578962506
 20
-2.358863327379259
 10
-15.916296295193737
 20
-2.384235390406704
 10
-15.802032565216056
 20
-2.4094175850834962
 10
-15.685823382632796
 20
-2.4341794847017804
 10
-15.567721962650527
 20
-2.458638498350682
 10
-15.44767289432749
 20
-2.4827348236180398
 10
-15.325673981928485
 20
-2.506526067180817
 10
-15.201782832130474
 20
-2.530014424774212
 10
-15.076001640668652
 20
-2.5531422897212606
 10
-14.94832821180783
 20
-2.5759672686989266
 10
-14.818762545548
 20
-2.5984893617072093
 10
-14.68730683762436
 20
-2.620650962069146
 10
-14.554016498978681
 20
-2.6425118721968985
 10
-14.418891529610958
 20
-2.6640720920904664
 10
-14.28187651857943
 20
-2.6852718193376877
 10
-14.143082287767621
 20
-2.7062306587628853
 10
-14.002453426233776
 20
-2.7268888079538987
 10
-13.859987738242687
 20
-2.7473038735876902
 10
-13.715745026206521
 20
-2.7674204447224953
 10
-13.569731877330868
 20
-2.787065701327423
 10
-13.42194170441014
 20
-2.8064124634333627
 10
-13.27231250929697
 20
-2.8255737486590458
 10
-13.121019307757452
 20
-2.8444985375331004
 10
-12.967951277908057
 20
-2.8630672252312057
 10
-12.813110615483975
 20
-2.881222205076396
 10
-12.656608142368743
 20
-2.8990830818929947
 10
-12.498384056150199
 20
-2.916705266622768
 10
-12.338442748298739
 20
-2.933973545911789
 10
-12.176841825491323
 20
-2.950890115495255
 10
-12.013583483463153
 20
-2.9673973686962025
 10
-11.848661135008632
 20
-2.9836681255455226
 10
-11.682079171598161
 20
-2.9995871726892873
 10
-11.513833201761337
 20
-3.015269723481425
 10
-11.344045026057684
 20
-3.03054734936144
 10
-11.172597235398081
 20
-3.0454732655359
 10
-10.999547436459485
 20
-3.060049667740002
 10
-10.824951040183665
 20
-3.0743363583859096
 10
-10.648754831364053
 20
-3.088215928384496
 10
-10.471012025207216
 20
-3.1018057868248867
 10
-10.291782424125318
 20
-3.1150505227653165
 10
-10.110955206234825
 20
-3.1278305313814623
 10
-9.928645584889665
 20
-3.1401502041437195
 10
-9.744846972884243
 20
-3.1521823610829784
 10
-9.559559370218564
 20
-3.16392700219924
 10
-9.372782776892617
 20
-3.175384127492504
 10
-9.184581386788972
 20
-3.186383112667077
 10
-8.994959591378016
 20
-3.1968087443690325
 10
-8.803851001042
 20
-3.2068892535710267
 10
-8.611370829134845
 20
-3.216629031743455
 10
-8.417465860449989
 20
-3.225910669797193
 10
-8.222198093134786
 20
-3.234621150113511
 10
-8.025560939983649
 20
-3.2429332927232997
 10
-7.827607616203138
 20
-3.250964506715684
 10
-7.628284906586692
 20
-3.25859738300154
 10
-7.427599398339898
 20
-3.265659101549975
 10
-7.2256619133462925
 20
-3.272269267185314
 10
-7.022470255870676
 20
-3.2784854865845183
 10
-6.817909212559122
 20
-3.284303368277194
 10
-6.612153799177717
 20
-3.2896718927919704
 10
-6.405150800519897
 20
-3.294473651039722
 10
-6.196900216585658
 20
-3.29870864302045
 10
-5.987457458316766
 20
-3.3024366711463156
 10
-5.776811547037236
 20
-3.3059457688021356
 10
-5.5650266766296195
 20
-3.309065311692218
 10
-5.352054023357749
 20
-3.3115626773735096
 10
-5.137891391486424
 20
-3.313495472522976
 10
-4.922653994369571
 20
-3.314868088611011
 10
-4.706275442389437
 20
-3.315908756610272
 10
-4.488817733693381
 20
-3.3165044589020294
 10
-4.270280868281403
 20
-3.316655195486283
 10
-4.050669237623896
 20
-3.316245753009106
 10
-3.829980645985666
 20
-3.315333738147462
 10
-3.6083259152502434
 20
-3.3140387557256736
 10
-3.385594223534098
 20
-3.3122412009194178
 10
-3.1619051756615457
 20
-3.3098302518451637
 10
-2.937256575897397
 20
-3.3068635151798746
 10
-2.7116462285064467
 20
-3.3033985976005136
 10
-2.4850187225469376
 20
-3.2993756966949204
 10
-2.257551269520151
 20
-3.29468618631476
 10
-2.02918845848432
 20
-3.289270264047872
 10
-1.7998595083512983
 20
-3.28347137422084
 10
-1.5696818282102047
 20
-3.2772363016270956
 10
-1.338726199149195
 20
-3.2702216019400554
 10
-1.106870820608748
 20
-3.2625957037202147
 10
-0.8741711035306282
 20
-3.2544184093797344
 10
-0.6407466527391585
 20
-3.2455788970350836
 10
-0.4064844506156094
 20
-3.236015168538902
 10
-0.1714997105139046
 20
-3.2257316153615867
 10
0.06427395718370198
 20
-3.2149564684757936
 10
0.30077455432985634
 20
-3.2035767102627926
 10
0.5379334955716109
 20
-3.191306503072966
 10
0.7758149747915138
 20
-3.1783164712020033
 10
1.0143701682533985
 20
-3.1648392370929592
 10
1.2535348886619078
 20
-3.1507043492701703
 10
1.4933649026679183
 20
-3.1358613376031443
 10
1.733807197072488
 20
-3.1204329109952864
 10
1.974852995522045
 20
-3.1041888155587736
 10
2.2165023024080535
 20
-3.0871291665069585
 10
2.458706293994338
 20
-3.069486586282895
 10
2.7014095681220733
 20
-3.051321107725452
 10
2.9446675379287717
 20
-3.0325729860291433
 10
3.1884160117275955
 20
-3.0130716545049543
 10
3.4326593831846863
 20
-2.9929323841134896
 10
3.6773976610829844
 20
-2.9721554052814563
 10
3.922573236549787
 20
-2.950742856137375
 10
4.168179528966704
 20
-2.9285220894703876
 10
4.41422092980414
 20
-2.9056083186344193
 10
4.660591008648953
 20
-2.882236361807721
 10
4.9074027919028085
 20
-2.85834445126964
 10
5.154534476810462
 20
-2.833764100853006
 10
5.40204587017554
 20
-2.808550836712938
 10
5.649821758644112
 20
-2.7827090503198315
 10
5.897921946824075
 20
-2.75629421022213
 10
6.146344241175974
 20
-2.729248767349546
 10
6.394975624081072
 20
-2.701634719849438
 10
6.643878093686736
 20
-2.6735650853405373
 10
6.893049460844964
 20
-2.64498242996591
 10
7.14237230987943
 20
-2.6158333656989576
 10
7.391906447593765
 20
-2.5861734186947993
 10
7.641598658781405
 20
-2.556119998042561
 10
7.891497769374251
 20
-2.5254405389058663
 10
8.141492953097307
 20
-2.494254530895685
 10
8.391588601420965
 20
-2.462677187365944
 10
8.641782520805764
 20
-2.4306509592463557
 10
8.892070319781306
 20
-2.3980606331829954
 10
9.142456392013731
 20
-2.365021480136465
 10
9.392829904640816
 20
-2.3316528168977038
 10
9.643244077260611
 20
-2.297837349590939
 10
9.893647890401743
 20
-2.263750093982261
 10
10.144034752467151
 20
-2.229218114827424
 10
10.394402469917365
 20
-2.1941838630561423
 10
10.644755434222786
 20
-2.1587625520223424
 10
10.894985006060663
 20
-2.123131047587249
 10
11.145148798695178
 20
-2.087287326835695
 10
11.395182613852288
 20
-2.051060650258634
 10
11.645088642875733
 20
-2.0145085093196755
 10
11.894866887961241
 20
-1.9776309616254963
 10
12.144519540452547
 20
-1.9404854986397058
 10
12.39392918028184
 20
-1.9030186171223518
 10
12.643155616448494
 20
-1.8652859008352305
 10
12.89214342483633
 20
-1.8273468065504415
 10
13.140954614571383
 20
-1.7893146399200999
 10
13.389465169597312
 20
-1.7509628472466534
 10
13.637677287845062
 20
-1.7123490928137426
 10
13.885659554667582
 20
-1.6737592142709874
 10
14.13328357132108
 20
-1.634851674993618
 10
14.38054713548314
 20
-1.5955686954846393
 10
14.627521034829147
 20
-1.5562538928906657
 10
14.874094429909661
 20
-1.5170264111826048
 10
15.120311757381941
 20
-1.4775385297768304
 10
15.366117597521278
 20
-1.437849820658797
 10
15.611454330476295
 20
-1.3979621339236408
 10
15.856383960981574
 20
-1.3579886600101208
 10
16.10085106711664
 20
-1.3179889132970144
 10
16.34485783802951
 20
-1.2780203276412538
 10
16.58834226898562
 20
-1.2379697126040796
 10
16.831299959731624
 20
-1.1977216244048559
 10
17.073737495277385
 20
-1.1574488254677973
 10
17.315654873427167
 20
-1.117151258186226
 10
17.556939052409152
 20
-1.0768902870340549
 10
17.797705260947414
 20
-1.0366619237876276
 10
18.037831676525073
 20
-0.9962971638196787
 10
18.277320490485874
 20
-0.9558534985938183
 10
18.51618267272285
 20
-0.9156187310681563
 10
18.754416029696547
 20
-0.8755353121724055
 10
18.991900928038078
 20
-0.8354916711362349
 10
19.228754792206725
 20
-0.7955414264129501
 10
19.464860188960262
 20
-0.7556307291225377
 10
19.70027472936713
 20
-0.7157574987431529
 10
19.934945182850615
 20
-0.6760387411171822
 10
20.16881392736361
 20
-0.6364762487330851
 10
20.401942967640675
 20
-0.5971832120296209
 10
20.63421047457773
 20
-0.5579904535594947
 10
20.86573167689885
 20
-0.5188939850990494
 10
21.096389141361833
 20
-0.4798399577682707
 10
21.326196031399174
 20
-0.44117372359555496
 10
21.555094727159503
 20
-0.4028971326760379
 10
21.783187282955712
 20
-0.3646605567242817
 10
22.010298643498484
 20
-0.326411939348731
 10
22.236561603393465
 20
-0.2886081457414369
 10
22.461858727202706
 20
-0.25119526941570824
 10
22.68618122100675
 20
-0.21394259563030607
 10
22.90952908041411
 20
-0.17685000917187646
 10
23.131904494572794
 20
-0.13997494389735168
 10
23.35331843776731
 20
-0.10360531797819612
 10
23.573651270041584
 20
-0.06762938782404632
 10
23.793011639501294
 20
-0.031870518000385956
 10
24.011284297660755
 20
0.0036678217292209028
 10
24.228473629403144
 20
0.038870590830877565
 10
24.4445840218074
 20
0.07362269116401171
 10
24.659611074620187
 20
0.10803956650925761
 10
24.87349715920717
 20
0.14211959719818695
 10
25.086304282498677
 20
0.17574953518536338
 10
25.297917196009
 20
0.20892591070722205
 10
25.50838692799245
 20
0.2418235091031437
 10
25.717598225571876
 20
0.2744389758229181
 10
25.92572833757605
 20
0.3066627054047028
 10
26.13255116289546
 20
0.3383724297540891
 10
26.338181939037135
 20
0.36957190666802575
 10
26.542618461482927
 20
0.4003189732501841
 10
26.745741090276738
 20
0.4307253730909264
 10
26.947552010175112
 20
0.46073378754667516
 10
27.14816865222451
 20
0.49029042534409195
 10
27.34742034382307
 20
0.5193323599475133
 10
27.54536908750962
 20
0.5477464585248555
 10
27.741950667444254
 20
0.5757039214385817
 10
27.937220501155945
 20
0.603264378280822
 10
28.13112315574556
 20
0.6303686027061846
 10
28.323658622430177
 20
0.6570168251413774
 10
28.51477585758533
 20
0.6830346634937587
 10
28.704525891661078
 20
0.7085968454960325
 10
28.892795665319696
 20
0.7336424675277008
 10
29.079638400354984
 20
0.7582887658578589
 10
29.265060679581048
 20
0.7823630356689689
 10
29.44900706570731
 20
0.8058061658289938
 10
29.631470962745226
 20
0.8287912067955319
 10
29.812452364107603
 20
0.8513183313886141
 10
29.991951261011497
 20
0.8733877700349484
 10
30.169856792050133
 20
0.8948809548303968
 10
30.346288586200927
 20
0.9156864302179817
 10
30.52117803395785
 20
0.93609066752077
 10
30.694469700226023
 20
0.9560344980000457
 10
30.86622119826964
 20
0.9755199445709773
 10
31.036379288729037
 20
0.9944302318178856
 10
31.204884145038964
 20
1.0128214043559827
 10
31.371848811166974
 20
1.0307547690525047
 10
31.537164617050028
 20
1.0480542665397043
 10
31.700827164630525
 20
1.0648352829915395
 10
31.86283864305646
 20
1.0810403845510779
 10
32.02319245414356
 20
1.0968426792825952
 10
32.181892982775025
 20
1.1121271266521942
 10
32.33888259592506
 20
1.1268922222048017
 10
32.494163482741655
 20
1.1410805320834845
 10
32.64779106514525
 20
1.1547515706670188
 10
32.799647890132015
 20
1.1679597052955126
 10
32.94973394672329
 20
1.1807052240023501
 10
33.09810905050564
 20
1.1929323702057042
 10
33.24477539941
 20
1.2045834796219348
 10
33.389611195072575
 20
1.2158269232048586
 10
33.53267385533711
 20
1.226669850863893
 10
33.67397018039549
 20
1.2369338547204818
 10
33.8134402624403
 20
1.2466771108368857
 10
33.95107970560967
 20
1.2560149477803848
 10
34.0869505190296
 20
1.2648340598988648
 10
34.22093963897096
 20
1.2730736587851839
 10
34.35310029161898
 20
1.2808508654950814
 10
34.483430274651234
 20
1.2882234595255517
 10
34.61187195723771
 20
1.2951898788148442
 10
34.738429724261586
 20
1.301635082829062
 10
34.86310136900896
 20
1.3076169662785533
 10
34.985882495618
 20
1.3132508577306001
 10
35.10677529104096
 20
1.3184793809349462
 10
35.225726518113895
 20
1.3231857028692358
 10
35.34273616585816
 20
1.3273701115668546
 10
35.45785307338006
 20
1.331264826224115
 10
35.571021801193254
 20
1.3348107933156566
 10
35.68224234710204
 20
1.3380080704481567
 10
35.79151689586291
 20
1.3407993389780362
 10
35.89878781884156
 20
1.3431829792368664
 10
36.00411273149791
 20
1.3451609565331384
 10
36.10742961592297
 20
1.3468468069456734
 10
36.20874285260845
 20
1.348125605153929
 10
36.30804804569251
 20
1.349112679725187
 10
36.40540720649689
 20
1.3496946674006551
 10
36.500700686282585
 20
1.3499835421974054
 10
36.59398390916576
 20
1.3500387608875364
 10
36.68520144005157
 20
1.3498011547323343
 10
36.77441309452657
 20
1.3492149671499702
 10
36.86155683272446
 20
1.348394310286037
 10
36.94669465498833
 20
1.3472261089151283
 10
37.02970485517525
 20
1.3458763145106292
 10
37.1107047018473
 20
1.3442953986932968
 10
37.18957900360792
 20
1.3424783939259675
 10
37.26638538030848
 20
1.3404271503037763
 10
37.341123827557496
 20
1.3381417830400772
 10
37.41379214303257
 20
1.3356800716318646
 10
37.48433489603034
 20
1.33298273212707
 10
37.55274768629744
 20
1.3301652083063285
 10
37.619090336007666
 20
1.3271715707677814
 10
37.683303014204284
 20
1.324057979339995
 10
37.74538791442678
 20
1.3207668849526826
 10
37.805342838744195
 20
1.3173559518894848
 10
37.86316997630455
 20
1.3137677462934696
 10
37.91886712917688
 20
1.310059932448276
 10
37.97242990369508
 20
1.3063477813145095
 10
38.02380505830374
 20
1.3025145750831681
 10
38.07310565014484
 20
1.2986212749814257
 10
38.12015659758023
 20
1.2947206286809616
 10
38.16513297566083
 20
1.2907600613301273
 10
38.207919527118044
 20
1.2867363335920663
 10
38.24851185828571
 20
1.282764716427383
 10
38.2869697891419
 20
1.2787893380408961
 10
38.32323568885654
 20
1.274808636370854
 10
38.35730516595923
 20
1.270937824771184
 10
38.38924023396751
 20
1.267063482376418
 10
38.41897887497237
 20
1.263299145265378
 10
38.446523280317535
 20
1.2595873219744542
 10
38.47186905853263
 20
1.256043225857574
 10
38.49501840535286
 20
1.2526092502377737
 10
38.516026747090116
 20
1.2493447942804758
 10
38.5347788286715
 20
1.2462465610421471
 10
38.551330082996145
 20
1.2433737768681794
 10
38.56573813430689
 20
1.2407281766403546
 10
38.577887727530836
 20
1.2383064634151395
 10
38.58783209544044
 20
1.2362255854282433
 10
38.59563106679667
 20
1.2344294404577767
 10
38.601164986273325
 20
1.2330301753408417
 10
38.60448929335669
 20
1.232086843602798
 10
38.60559958998919
 20
1.2317148314176047
  0
ENDSEC
  0
SECTION
  2
OBJECTS
  0
DICTIONARY
  5
A
330
0
100
AcDbDictionary
280
0
281
1
  3
ACAD_COLOR
350
B
  3
ACAD_GROUP
350
C
  3
ACAD_LAYOUT
350
D
  3
ACAD_MATERIAL
350
E
  3
ACAD_MLEADERSTYLE
350
F
  3
ACAD_MLINESTYLE
350
10
  3
ACAD_PLOTSETTINGS
350
11
  3
ACAD_PLOTSTYLENAME
350
12
  3
ACAD_SCALELIST
350
14
  3
ACAD_TABLESTYLE
350
15
  3
ACAD_VISUALSTYLE
350
16
  3
EZDXF_META
350
2D
  0
DICTIONARY
  5
B
330
A
100
AcDbDictionary
280
0
281
1
  0
DICTIONARY
  5
C
330
A
100
AcDbDictionary
280
0
281
1
  0
DICTIONARY
  5
D
330
A
100
AcDbDictionary
280
0
281
1
  3
Model
350
1A
  3
Layout1
350
1E
  0
DICTIONARY
  5
E
330
A
100
AcDbDictionary
280
0
281
1
  3
ByBlock
350
1F
  3
ByLayer
350
20
  3
Global
350
21
  0
DICTIONARY
  5
F
330
A
100
AcDbDictionary
280
0
281
1
  3
Standard
350
2C
  0
DICTIONARY
  5
10
330
A
100
AcDbDictionary
280
0
281
1
  3
Standard
350
22
  0
DICTIONARY
  5
11
330
A
100
AcDbDictionary
280
0
281
1
  0
ACDBDICTIONARYWDFLT
  5
12
330
A
100
AcDbDictionary
280
0
281
1
  3
Normal
350
13
100
AcDbDictionaryWithDefault
340
13
  0
ACDBPLACEHOLDER
  5
13
330
12
  0
DICTIONARY
  5
14
330
A
100
AcDbDictionary
280
0
281
1
  0
DICTIONARY
  5
15
330
A
100
AcDbDictionary
280
0
281
1
  0
DICTIONARY
  5
16
330
A
100
AcDbDictionary
280
0
281
1
  0
LAYOUT
  5
1A
330
D
100
AcDbPlotSettings
  1

  4
A3
  6

 40
7.5
 41
20.0
 42
7.5
 43
20.0
 44
420.0
 45
297.0
 46
0.0
 47
0.0
 48
0.0
 49
0.0
140
0.0
141
0.0
142
1.0
143
1.0
 70
1024
 72
1
 73
0
 74
5
  7

 75
16
 76
0
 77
2
 78
300
147
1.0
148
0.0
149
0.0
100
AcDbLayout
  1
Model
 70
1
 71
0
 10
0.0
 20
0.0
 11
420.0
 21
297.0
 12
0.0
 22
0.0
 32
0.0
 14
1e+20
 24
1e+20
 34
1e+20
 15
-1e+20
 25
-1e+20
 35
-1e+20
146
0.0
 13
0.0
 23
0.0
 33
0.0
 16
1.0
 26
0.0
 36
0.0
 17
0.0
 27
1.0
 37
0.0
 76
1
330
17
  0
LAYOUT
  5
1E
330
D
100
AcDbPlotSettings
  1

  4
A3
  6

 40
7.5
 41
20.0
 42
7.5
 43
20.0
 44
420.0
 45
297.0
 46
0.0
 47
0.0
 48
0.0
 49
0.0
140
0.0
141
0.0
142
1.0
143
1.0
 70
0
 72
1
 73
0
 74
5
  7

 75
16
 76
0
 77
2
 78
300
147
1.0
148
0.0
149
0.0
100
AcDbLayout
  1
Layout1
 70
1
 71
1
 10
0.0
 20
0.0
 11
420.0
 21
297.0
 12
0.0
 22
0.0
 32
0.0
 14
1e+20
 24
1e+20
 34
1e+20
 15
-1e+20
 25
-1e+20
 35
-1e+20
146
0.0
 13
0.0
 23
0.0
 33
0.0
 16
1.0
 26
0.0
 36
0.0
 17
0.0
 27
1.0
 37
0.0
 76
1
330
1B
  0
MATERIAL
  5
1F
102
{ACAD_REACTORS
330
E
102
}
330
E
100
AcDbMaterial
  1
ByBlock
  2

 70
0
 40
1.0
 71
1
 41
1.0
 91
-1023410177
 42
1.0
 72
1
  3

 73
1
 74
1
 75
1
 44
0.5
 73
0
 45
1.0
 46
1.0
 77
1
  4

 78
1
 79
1
170
1
 48
1.0
171
1
  6

172
1
173
1
174
1
140
1.0
141
1.0
175
1
  7

176
1
177
1
178
1
143
1.0
179
1
  8

270
1
271
1
272
1
145
1.0
146
1.0
273
1
  9

274
1
275
1
276
1
 42
1.0
 72
1
  3

 73
1
 74
1
 75
1
 94
63
  0
MATERIAL
  5
20
102
{ACAD_REACTORS
330
E
102
}
330
E
100
AcDbMaterial
  1
ByLayer
  2

 70
0
 40
1.0
 71
1
 41
1.0
 91
-1023410177
 42
1.0
 72
1
  3

 73
1
 74
1
 75
1
 44
0.5
 73
0
 45
1.0
 46
1.0
 77
1
  4

 78
1
 79
1
170
1
 48
1.0
171
1
  6

172
1
173
1
174
1
140
1.0
141
1.0
175
1
  7

176
1
177
1
178
1
143
1.0
179
1
  8

270
1
271
1
272
1
145
1.0
146
1.0
273
1
  9

274
1
275
1
276
1
 42
1.0
 72
1
  3

 73
1
 74
1
 75
1
 94
63
  0
MATERIAL
  5
21
102
{ACAD_REACTORS
330
E
102
}
330
E
100
AcDbMaterial
  1
Global
  2

 70
0
 40
1.0
 71
1
 41
1.0
 91
-1023410177
 42
1.0
 72
1
  3

 73
1
 74
1
 75
1
 44
0.5
 73
0
 45
1.0
 46
1.0
 77
1
  4

 78
1
 79
1
170
1
 48
1.0
171
1
  6

172
1
173
1
174
1
140
1.0
141
1.0
175
1
  7

176
1
177
1
178
1
143
1.0
179
1
  8

270
1
271
1
272
1
145
1.0
146
1.0
273
1
  9

274
1
275
1
276
1
 42
1.0
 72
1
  3

 73
1
 74
1
 75
1
 94
63
  0
MLINESTYLE
  5
22
102
{ACAD_REACTORS
330
10
102
}
330
10
100
AcDbMlineStyle
  2
Standard
 70
0
  3

 62
256
 51
90.0
 52
90.0
 71
2
 49
0.5
 62
256
  6
BYLAYER
 49
-0.5
 62
256
  6
BYLAYER
  0
MLEADERSTYLE
  5
2C
102
{ACAD_REACTORS
330
F
102
}
330
F
100
AcDbMLeaderStyle
179
2
170
2
171
1
172
0
 90
2
 40
0.0
 41
0.0
173
1
 91
-1056964608
 92
-2
290
1
 42
2.0
291
1
 43
8.0
  3
Standard
 44
4.0
300

342
29
174
1
175
1
176
0
178
1
 93
-1056964608
 45
4.0
292
0
297
0
 46
4.0
 94
-1056964608
 47
1.0
 49
1.0
140
1.0
294
1
141
0.0
177
0
142
1.0
295
0
296
0
143
3.75
271
0
272
9
273
9
  0
DICTIONARY
  5
2D
330
A
100
AcDbDictionary
280
1
281
1
  3
CREATED_BY_EZDXF
350
2E
  3
WRITTEN_BY_EZDXF
350
32
  0
DICTIONARYVAR
  5
2E
330
2D
100
DictionaryVariables
280
0
  1
1.3.5 @ 2025-08-20T01:28:30.341535+00:00
  0
DICTIONARYVAR
  5
32
330
2D
100
DictionaryVariables
280
0
  1
1.3.5 @ 2025-08-20T01:28:30.343047+00:00
  0
ENDSEC
  0
EOF
