  0
SECTION
  2
HEADER
  9
$ACADVER
  1
AC1032
  9
$ACADMAINTVER
 90
4
  9
$DWGCODEPAGE
  3
ANSI_1252
  9
$LASTSAVEDBY
  1
ezdxf
  9
$REQUIREDVERSIONS
160
0
  9
$INSBASE
 10
0.0
 20
0.0
 30
0.0
  9
$EXTMIN
 10
1e+20
 20
1e+20
 30
1e+20
  9
$EXTMAX
 10
-1e+20
 20
-1e+20
 30
-1e+20
  9
$LIMMIN
 10
0.0
 20
0.0
  9
$LIMMAX
 10
420.0
 20
297.0
  9
$ORTHOMODE
 70
0
  9
$REGENMODE
 70
1
  9
$FILLMODE
 70
1
  9
$QTEXTMODE
 70
0
  9
$MIRRTEXT
 70
1
  9
$LTSCALE
 40
1.0
  9
$ATTMODE
 70
1
  9
$TEXTSIZE
 40
2.5
  9
$TRACEWID
 40
1.0
  9
$TEXTSTYLE
  7
Standard
  9
$CLAYER
  8
0
  9
$CELTYPE
  6
ByLayer
  9
$CECOLOR
 62
256
  9
$CELTSCALE
 40
1.0
  9
$DISPSILH
 70
0
  9
$DIMSCALE
 40
1.0
  9
$DIMASZ
 40
2.5
  9
$DIMEXO
 40
0.625
  9
$DIMDLI
 40
3.75
  9
$DIMRND
 40
0.0
  9
$DIMDLE
 40
0.0
  9
$DIMEXE
 40
1.25
  9
$DIMTP
 40
0.0
  9
$DIMTM
 40
0.0
  9
$DIMTXT
 40
2.5
  9
$DIMCEN
 40
2.5
  9
$DIMTSZ
 40
0.0
  9
$DIMTOL
 70
0
  9
$DIMLIM
 70
0
  9
$DIMTIH
 70
0
  9
$DIMTOH
 70
0
  9
$DIMSE1
 70
0
  9
$DIMSE2
 70
0
  9
$DIMTAD
 70
1
  9
$DIMZIN
 70
8
  9
$DIMBLK
  1

  9
$DIMASO
 70
1
  9
$DIMSHO
 70
1
  9
$DIMPOST
  1

  9
$DIMAPOST
  1

  9
$DIMALT
 70
0
  9
$DIMALTD
 70
3
  9
$DIMALTF
 40
0.03937007874
  9
$DIMLFAC
 40
1.0
  9
$DIMTOFL
 70
1
  9
$DIMTVP
 40
0.0
  9
$DIMTIX
 70
0
  9
$DIMSOXD
 70
0
  9
$DIMSAH
 70
0
  9
$DIMBLK1
  1

  9
$DIMBLK2
  1

  9
$DIMSTYLE
  2
ISO-25
  9
$DIMCLRD
 70
0
  9
$DIMCLRE
 70
0
  9
$DIMCLRT
 70
0
  9
$DIMTFAC
 40
1.0
  9
$DIMGAP
 40
0.625
  9
$DIMJUST
 70
0
  9
$DIMSD1
 70
0
  9
$DIMSD2
 70
0
  9
$DIMTOLJ
 70
0
  9
$DIMTZIN
 70
8
  9
$DIMALTZ
 70
0
  9
$DIMALTTZ
 70
0
  9
$DIMUPT
 70
0
  9
$DIMDEC
 70
2
  9
$DIMTDEC
 70
2
  9
$DIMALTU
 70
2
  9
$DIMALTTD
 70
3
  9
$DIMTXSTY
  7
Standard
  9
$DIMAUNIT
 70
0
  9
$DIMADEC
 70
0
  9
$DIMALTRND
 40
0.0
  9
$DIMAZIN
 70
0
  9
$DIMDSEP
 70
44
  9
$DIMATFIT
 70
3
  9
$DIMFRAC
 70
0
  9
$DIMLDRBLK
  1

  9
$DIMLUNIT
 70
2
  9
$DIMLWD
 70
-2
  9
$DIMLWE
 70
-2
  9
$DIMTMOVE
 70
0
  9
$DIMFXL
 40
1.0
  9
$DIMFXLON
 70
0
  9
$DIMJOGANG
 40
0.785398163397
  9
$DIMTFILL
 70
0
  9
$DIMTFILLCLR
 70
0
  9
$DIMARCSYM
 70
0
  9
$DIMLTYPE
  6

  9
$DIMLTEX1
  6

  9
$DIMLTEX2
  6

  9
$DIMTXTDIRECTION
 70
0
  9
$LUNITS
 70
2
  9
$LUPREC
 70
4
  9
$SKETCHINC
 40
1.0
  9
$FILLETRAD
 40
10.0
  9
$AUNITS
 70
0
  9
$AUPREC
 70
2
  9
$MENU
  1
.
  9
$ELEVATION
 40
0.0
  9
$PELEVATION
 40
0.0
  9
$THICKNESS
 40
0.0
  9
$LIMCHECK
 70
0
  9
$CHAMFERA
 40
0.0
  9
$CHAMFERB
 40
0.0
  9
$CHAMFERC
 40
0.0
  9
$CHAMFERD
 40
0.0
  9
$SKPOLY
 70
0
  9
$TDCREATE
 40
2460908.103125
  9
$TDUCREATE
 40
2458532.153996898
  9
$TDUPDATE
 40
2460908.103125
  9
$TDUUPDATE
 40
2458532.1544311
  9
$TDINDWG
 40
0.0
  9
$TDUSRTIMER
 40
0.0
  9
$USRTIMER
 70
1
  9
$ANGBASE
 50
0.0
  9
$ANGDIR
 70
0
  9
$PDMODE
 70
0
  9
$PDSIZE
 40
0.0
  9
$PLINEWID
 40
0.0
  9
$SPLFRAME
 70
0
  9
$SPLINETYPE
 70
6
  9
$SPLINESEGS
 70
8
  9
$HANDSEED
  5
33
  9
$SURFTAB1
 70
6
  9
$SURFTAB2
 70
6
  9
$SURFTYPE
 70
6
  9
$SURFU
 70
6
  9
$SURFV
 70
6
  9
$UCSBASE
  2

  9
$UCSNAME
  2

  9
$UCSORG
 10
0.0
 20
0.0
 30
0.0
  9
$UCSXDIR
 10
1.0
 20
0.0
 30
0.0
  9
$UCSYDIR
 10
0.0
 20
1.0
 30
0.0
  9
$UCSORTHOREF
  2

  9
$UCSORTHOVIEW
 70
0
  9
$UCSORGTOP
 10
0.0
 20
0.0
 30
0.0
  9
$UCSORGBOTTOM
 10
0.0
 20
0.0
 30
0.0
  9
$UCSORGLEFT
 10
0.0
 20
0.0
 30
0.0
  9
$UCSORGRIGHT
 10
0.0
 20
0.0
 30
0.0
  9
$UCSORGFRONT
 10
0.0
 20
0.0
 30
0.0
  9
$UCSORGBACK
 10
0.0
 20
0.0
 30
0.0
  9
$PUCSBASE
  2

  9
$PUCSNAME
  2

  9
$PUCSORG
 10
0.0
 20
0.0
 30
0.0
  9
$PUCSXDIR
 10
1.0
 20
0.0
 30
0.0
  9
$PUCSYDIR
 10
0.0
 20
1.0
 30
0.0
  9
$PUCSORTHOREF
  2

  9
$PUCSORTHOVIEW
 70
0
  9
$PUCSORGTOP
 10
0.0
 20
0.0
 30
0.0
  9
$PUCSORGBOTTOM
 10
0.0
 20
0.0
 30
0.0
  9
$PUCSORGLEFT
 10
0.0
 20
0.0
 30
0.0
  9
$PUCSORGRIGHT
 10
0.0
 20
0.0
 30
0.0
  9
$PUCSORGFRONT
 10
0.0
 20
0.0
 30
0.0
  9
$PUCSORGBACK
 10
0.0
 20
0.0
 30
0.0
  9
$USERI1
 70
0
  9
$USERI2
 70
0
  9
$USERI3
 70
0
  9
$USERI4
 70
0
  9
$USERI5
 70
0
  9
$USERR1
 40
0.0
  9
$USERR2
 40
0.0
  9
$USERR3
 40
0.0
  9
$USERR4
 40
0.0
  9
$USERR5
 40
0.0
  9
$WORLDVIEW
 70
1
  9
$SHADEDGE
 70
3
  9
$SHADEDIF
 70
70
  9
$TILEMODE
 70
1
  9
$MAXACTVP
 70
64
  9
$PINSBASE
 10
0.0
 20
0.0
 30
0.0
  9
$PLIMCHECK
 70
0
  9
$PEXTMIN
 10
1e+20
 20
1e+20
 30
1e+20
  9
$PEXTMAX
 10
-1e+20
 20
-1e+20
 30
-1e+20
  9
$PLIMMIN
 10
0.0
 20
0.0
  9
$PLIMMAX
 10
420.0
 20
297.0
  9
$UNITMODE
 70
0
  9
$VISRETAIN
 70
1
  9
$PLINEGEN
 70
0
  9
$PSLTSCALE
 70
1
  9
$TREEDEPTH
 70
3020
  9
$CMLSTYLE
  2
Standard
  9
$CMLJUST
 70
0
  9
$CMLSCALE
 40
20.0
  9
$PROXYGRAPHICS
 70
1
  9
$MEASUREMENT
 70
1
  9
$CELWEIGHT
370
-1
  9
$ENDCAPS
280
0
  9
$JOINSTYLE
280
0
  9
$LWDISPLAY
290
0
  9
$INSUNITS
 70
6
  9
$HYPERLINKBASE
  1

  9
$STYLESHEET
  1

  9
$XEDIT
290
1
  9
$CEPSNTYPE
380
0
  9
$PSTYLEMODE
290
1
  9
$FINGERPRINTGUID
  2
{3E2027A9-87AE-477A-82E0-F587A193CA34}
  9
$VERSIONGUID
  2
{6DED3DA4-5392-4205-B67B-14FA937DFD4B}
  9
$EXTNAMES
290
1
  9
$PSVPSCALE
 40
0.0
  9
$OLESTARTUP
290
0
  9
$SORTENTS
280
127
  9
$INDEXCTL
280
0
  9
$HIDETEXT
280
1
  9
$XCLIPFRAME
280
1
  9
$HALOGAP
280
0
  9
$OBSCOLOR
 70
257
  9
$OBSLTYPE
280
0
  9
$INTERSECTIONDISPLAY
280
0
  9
$INTERSECTIONCOLOR
 70
257
  9
$DIMASSOC
280
2
  9
$PROJECTNAME
  1

  9
$CAMERADISPLAY
290
0
  9
$LENSLENGTH
 40
50.0
  9
$CAMERAHEIGHT
 40
0.0
  9
$STEPSPERSEC
 40
24.0
  9
$STEPSIZE
 40
100.0
  9
$3DDWFPREC
 40
2.0
  9
$PSOLWIDTH
 40
0.005
  9
$PSOLHEIGHT
 40
0.08
  9
$LOFTANG1
 40
1.570796326795
  9
$LOFTANG2
 40
1.570796326795
  9
$LOFTMAG1
 40
0.0
  9
$LOFTMAG2
 40
0.0
  9
$LOFTPARAM
 70
7
  9
$LOFTNORMALS
280
1
  9
$LATITUDE
 40
37.795
  9
$LONGITUDE
 40
-122.394
  9
$NORTHDIRECTION
 40
0.0
  9
$TIMEZONE
 70
-8000
  9
$LIGHTGLYPHDISPLAY
280
1
  9
$TILEMODELIGHTSYNCH
280
1
  9
$CMATERIAL
347
20
  9
$SOLIDHIST
280
0
  9
$SHOWHIST
280
1
  9
$DWFFRAME
280
2
  9
$DGNFRAME
280
2
  9
$REALWORLDSCALE
290
1
  9
$INTERFERECOLOR
 62
256
  9
$CSHADOW
280
0
  9
$SHADOWPLANELOCATION
 40
0.0
  0
ENDSEC
  0
SECTION
  2
CLASSES
  0
CLASS
  1
ACDBDICTIONARYWDFLT
  2
AcDbDictionaryWithDefault
  3
ObjectDBX Classes
 90
0
 91
0
280
0
281
0
  0
CLASS
  1
SUN
  2
AcDbSun
  3
SCENEOE
 90
1153
 91
0
280
0
281
0
  0
CLASS
  1
VISUALSTYLE
  2
AcDbVisualStyle
  3
ObjectDBX Classes
 90
4095
 91
0
280
0
281
0
  0
CLASS
  1
MATERIAL
  2
AcDbMaterial
  3
ObjectDBX Classes
 90
1153
 91
0
280
0
281
0
  0
CLASS
  1
SCALE
  2
AcDbScale
  3
ObjectDBX Classes
 90
1153
 91
0
280
0
281
0
  0
CLASS
  1
TABLESTYLE
  2
AcDbTableStyle
  3
ObjectDBX Classes
 90
4095
 91
0
280
0
281
0
  0
CLASS
  1
MLEADERSTYLE
  2
AcDbMLeaderStyle
  3
ACDB_MLEADERSTYLE_CLASS
 90
4095
 91
0
280
0
281
0
  0
CLASS
  1
DICTIONARYVAR
  2
AcDbDictionaryVar
  3
ObjectDBX Classes
 90
0
 91
0
280
0
281
0
  0
CLASS
  1
CELLSTYLEMAP
  2
AcDbCellStyleMap
  3
ObjectDBX Classes
 90
1152
 91
0
280
0
281
0
  0
CLASS
  1
MENTALRAYRENDERSETTINGS
  2
AcDbMentalRayRenderSettings
  3
SCENEOE
 90
1024
 91
0
280
0
281
0
  0
CLASS
  1
ACDBDETAILVIEWSTYLE
  2
AcDbDetailViewStyle
  3
ObjectDBX Classes
 90
1025
 91
0
280
0
281
0
  0
CLASS
  1
ACDBSECTIONVIEWSTYLE
  2
AcDbSectionViewStyle
  3
ObjectDBX Classes
 90
1025
 91
0
280
0
281
0
  0
CLASS
  1
RASTERVARIABLES
  2
AcDbRasterVariables
  3
ISM
 90
0
 91
0
280
0
281
0
  0
CLASS
  1
LAYOUT
  2
AcDbLayout
  3
ObjectDBX Classes
 90
0
 91
0
280
0
281
0
  0
CLASS
  1
ACDBPLACEHOLDER
  2
AcDbPlaceHolder
  3
ObjectDBX Classes
 90
0
 91
0
280
0
281
0
  0
ENDSEC
  0
SECTION
  2
TABLES
  0
TABLE
  2
VPORT
  5
8
330
0
100
AcDbSymbolTable
 70
1
  0
VPORT
  5
23
330
8
100
AcDbSymbolTableRecord
100
AcDbViewportTableRecord
  2
*Active
 70
0
 10
0.0
 20
0.0
 11
1.0
 21
1.0
 12
0.0
 22
0.0
 13
0.0
 23
0.0
 14
0.5
 24
0.5
 15
0.5
 25
0.5
 16
0.0
 26
0.0
 36
1.0
 17
0.0
 27
0.0
 37
0.0
 40
1000.0
 41
1.34
 42
50.0
 43
0.0
 44
0.0
 50
0.0
 51
0.0
 71
0
 72
1000
 73
1
 74
3
 75
0
 76
0
 77
0
 78
0
281
0
 65
0
146
0.0
  0
ENDTAB
  0
TABLE
  2
LTYPE
  5
2
330
0
100
AcDbSymbolTable
 70
3
  0
LTYPE
  5
24
330
2
100
AcDbSymbolTableRecord
100
AcDbLinetypeTableRecord
  2
ByBlock
 70
0
  3

 72
65
 73
0
 40
0.0
  0
LTYPE
  5
25
330
2
100
AcDbSymbolTableRecord
100
AcDbLinetypeTableRecord
  2
ByLayer
 70
0
  3

 72
65
 73
0
 40
0.0
  0
LTYPE
  5
26
330
2
100
AcDbSymbolTableRecord
100
AcDbLinetypeTableRecord
  2
Continuous
 70
0
  3

 72
65
 73
0
 40
0.0
  0
ENDTAB
  0
TABLE
  2
LAYER
  5
1
330
0
100
AcDbSymbolTable
 70
2
  0
LAYER
  5
27
330
1
100
AcDbSymbolTableRecord
100
AcDbLayerTableRecord
  2
0
 70
0
 62
7
  6
Continuous
370
-3
390
13
347
21
  0
LAYER
  5
28
330
1
100
AcDbSymbolTableRecord
100
AcDbLayerTableRecord
  2
Defpoints
 70
0
 62
7
  6
Continuous
290
0
370
-3
390
13
347
21
  0
ENDTAB
  0
TABLE
  2
STYLE
  5
5
330
0
100
AcDbSymbolTable
 70
1
  0
STYLE
  5
29
330
5
100
AcDbSymbolTableRecord
100
AcDbTextStyleTableRecord
  2
Standard
 70
0
 40
0.0
 41
1.0
 50
0.0
 71
0
 42
2.5
  3
txt
  4

  0
ENDTAB
  0
TABLE
  2
VIEW
  5
7
330
0
100
AcDbSymbolTable
 70
0
  0
ENDTAB
  0
TABLE
  2
UCS
  5
6
330
0
100
AcDbSymbolTable
 70
0
  0
ENDTAB
  0
TABLE
  2
APPID
  5
3
330
0
100
AcDbSymbolTable
 70
3
  0
APPID
  5
2A
330
3
100
AcDbSymbolTableRecord
100
AcDbRegAppTableRecord
  2
ACAD
 70
0
  0
APPID
  5
30
330
3
100
AcDbSymbolTableRecord
100
AcDbRegAppTableRecord
  2
HATCHBACKGROUNDCOLOR
 70
0
  0
APPID
  5
31
330
3
100
AcDbSymbolTableRecord
100
AcDbRegAppTableRecord
  2
EZDXF
 70
0
  0
ENDTAB
  0
TABLE
  2
DIMSTYLE
  5
4
330
0
100
AcDbSymbolTable
 70
1
100
AcDbDimStyleTable
  0
DIMSTYLE
105
2B
330
4
100
AcDbSymbolTableRecord
100
AcDbDimStyleTableRecord
  2
Standard
 70
0
 40
1.0
 41
2.5
 42
0.625
 43
3.75
 44
1.25
 45
0.0
 46
0.0
 47
0.0
 48
0.0
 49
2.5
140
2.5
141
2.5
142
0.0
143
0.03937007874
144
1.0
145
0.0
146
1.0
147
0.625
148
0.0
 69
0
 70
0
 71
0
 72
0
 73
0
 74
0
 75
0
 76
0
 77
1
 78
8
 79
3
170
0
171
3
172
1
173
0
174
0
175
0
176
0
177
0
178
0
179
2
271
2
272
2
273
2
274
3
275
0
276
0
277
2
278
44
279
0
280
0
281
0
282
0
283
0
284
8
285
0
286
0
288
0
289
3
290
0
371
-2
372
-2
  0
ENDTAB
  0
TABLE
  2
BLOCK_RECORD
  5
9
330
0
100
AcDbSymbolTable
 70
2
  0
BLOCK_RECORD
  5
17
330
9
100
AcDbSymbolTableRecord
100
AcDbBlockTableRecord
  2
*Model_Space
340
1A
 70
0
280
1
281
0
  0
BLOCK_RECORD
  5
1B
330
9
100
AcDbSymbolTableRecord
100
AcDbBlockTableRecord
  2
*Paper_Space
340
1E
 70
0
280
1
281
0
  0
ENDTAB
  0
ENDSEC
  0
SECTION
  2
BLOCKS
  0
BLOCK
  5
18
330
17
100
AcDbEntity
  8
0
100
AcDbBlockBegin
  2
*Model_Space
 70
0
 10
0.0
 20
0.0
 30
0.0
  3
*Model_Space
  1

  0
ENDBLK
  5
19
330
17
100
AcDbEntity
  8
0
100
AcDbBlockEnd
  0
BLOCK
  5
1C
330
1B
100
AcDbEntity
  8
0
100
AcDbBlockBegin
  2
*Paper_Space
 70
0
 10
0.0
 20
0.0
 30
0.0
  3
*Paper_Space
  1

  0
ENDBLK
  5
1D
330
1B
100
AcDbEntity
  8
0
100
AcDbBlockEnd
  0
ENDSEC
  0
SECTION
  2
ENTITIES
  0
LWPOLYLINE
  5
2F
330
17
100
AcDbEntity
  8
0
100
AcDbPolyline
 90
721
 70
1
 10
30.728778321130335
 20
0.4395432077212874
 10
30.727903381948483
 20
0.4398461769654049
 10
30.72527959083857
 20
0.4406632620659688
 10
30.720908997082887
 20
0.4418111388175544
 10
30.71474471648596
 20
0.4433804291650883
 10
30.706880006271764
 20
0.4452356170728103
 10
30.697268494437218
 20
0.44742150490065313
 10
30.685864832338627
 20
0.4498913475694638
 10
30.672760741135463
 20
0.452647041933012
 10
30.657910872184054
 20
0.4556418429121446
 10
30.64126833975078
 20
0.4589665100481393
 10
30.622925890405345
 20
0.4625312092938781
 10
30.602837662286248
 20
0.4663351068861022
 10
30.581003142688377
 20
0.4704240682752555
 10
30.557423357021943
 20
0.4747063625604502
 10
30.532097278851335
 20
0.479273812373475
 10
30.505071281717743
 20
0.4840814777580456
 10
30.476299503759666
 20
0.4891285249509033
 10
30.445781432271993
 20
0.494460819402492
 10
30.413563952475634
 20
0.4999876474369845
 10
30.37960017761155
 20
0.5057998603265591
 10
30.343891132577284
 20
0.5118057730357788
 10
30.306527512609378
 20
0.5180990591847515
 10
30.267372247904667
 20
0.5246310768405542
 10
30.22656291943331
 20
0.5314047400820175
 10
30.184007805523123
 20
0.5384181979208218
 10
30.139752765472085
 20
0.5456725134474784
 10
30.09379779876749
 20
0.5531677325274371
 10
30.046142392191534
 20
0.5609497664765932
 10
29.9967865442061
 20
0.5690187528912976
 10
29.945731279708678
 20
0.5772830067361124
 10
29.892975572776372
 20
0.5858343047773767
 10
29.83856579489956
 20
0.5946278905206078
 10
29.782455572537028
 20
0.6037087039220896
 10
29.724645929048187
 20
0.6129851975427365
 10
29.6651816998589
 20
0.6225500277775958
 10
29.604062370725956
 20
0.6324491976734627
 10
29.541289478739277
 20
0.6425452026099067
 10
29.476816136114415
 20
0.6529289855900068
 10
29.41073457671597
 20
0.6635565780170891
 10
29.342952564628547
 20
0.6744721319496295
 10
29.2735618204989
 20
0.6856775901068484
 10
29.20251648195285
 20
0.6971721645909372
 10
29.129862408801056
 20
0.7089568726269567
 10
29.055554251374414
 20
0.7209850608666547
 10
28.979637869483632
 20
0.7332577465350916
 10
28.90206637534426
 20
0.7458658726353466
 10
28.822932002308203
 20
0.7587655164361965
 10
28.74218888800126
 20
0.7719558900398331
 10
28.65983703139799
 20
0.7854370851771568
 10
28.57587642993489
 20
0.7992093311754201
 10
28.490352431742956
 20
0.8133194189792269
 10
28.403219686127652
 20
0.8277207869712253
 10
28.31452354070727
 20
0.8424602719614693
 10
28.224264505623402
 20
0.8574922378267678
 10
28.13244360577354
 20
0.8727249995316828
 10
28.039105674532763
 20
0.8882513969330641
 10
27.94420382462934
 20
0.9041623271685405
 10
27.847738053499754
 20
0.9204580195653643
 10
27.749755759582715
 20
0.9370018491318138
 10
27.650256428122287
 20
0.9538398647801349
 10
27.549240058093066
 20
0.9709721582412284
 10
27.44670510881621
 20
0.9885365551936781
 10
27.342654142279137
 20
1.006303865981616
 10
27.237131992882308
 20
1.02436683873099
 10
27.130138146382514
 20
1.0427714764885962
 10
27.021626227187742
 20
1.0615629026725204
 10
26.91168846813715
 20
1.0806972404169888
 10
26.800279519048946
 20
1.1001278822392002
 10
26.687399378897716
 20
1.1198549198700554
 10
26.573092881058532
 20
1.1399711931664034
 10
26.457362074300978
 20
1.1602934237882705
 10
26.34016007135335
 20
1.1809125088732861
 10
26.221578079131902
 20
1.2018763483220145
 10
26.101616096098542
 20
1.2231850797308075
 10
25.980229285289255
 20
1.2447461843009688
 10
25.85741713143541
 20
1.266605756810195
 10
25.733271355183792
 20
1.288765739977706
 10
25.60774506823727
 20
1.3113171226720315
 10
25.48083980717305
 20
1.3341224461381913
 10
25.352601431289113
 20
1.3571827734666966
 10
25.223029939047343
 20
1.3804982422538987
 10
25.09212430247402
 20
1.4041608127279377
 10
24.959884520030997
 20
1.4281706224851645
 10
24.82631110288528
 20
1.4524819436714869
 10
24.691496284388766
 20
1.4770508535556817
 10
24.55534782708791
 20
1.5019216417925751
 10
24.417911590793416
 20
1.5270953256072282
 10
24.27923497343127
 20
1.55243532587337
 10
24.139271598384052
 20
1.5779868577399874
 10
23.99806578734713
 20
1.6038885347834724
 10
23.855663400131192
 20
1.6301413742288857
 10
23.71197373688531
 20
1.6566521152451734
 10
23.567090057397003
 20
1.6832850124693233
 10
23.42101030879503
 20
1.7102237111649121
 10
23.273735002246376
 20
1.7374224834778478
 10
23.12526362299512
 20
1.7649273783203763
 10
22.975643055749458
 20
1.7926477278821202
 10
22.824873299483976
 20
1.820583623893981
 10
22.67290849028634
 20
1.848734416054501
 10
22.51983983661094
 20
1.8771478666678945
 10
22.365621475570855
 20
1.9058232337018033
 10
22.210300292386997
 20
1.9346698034804004
 10
22.053876285008535
 20
1.9636877594654878
 10
21.896395313758845
 20
1.9928780730166749
 10
21.73781100202053
 20
2.0222859592829496
 10
21.578168184706744
 20
2.0520041205248085
 10
21.41742253550778
 20
2.0818943559549146
 10
21.25571112679034
 20
2.1120050781789383
 10
21.09294428360104
 20
2.142151341330388
 10
20.929121490671218
 20
2.172379240186959
 10
20.76433293258317
 20
2.202828130357403
 10
20.598578094580972
 20
2.233544060753965
 10
20.431766789518818
 20
2.264387905095147
 10
20.264083489227527
 20
2.2952713592639977
 10
20.09539111877688
 20
2.3261462399820974
 10
19.92577986172374
 20
2.3571519945890986
 10
19.755203341963377
 20
2.388333792368537
 10
19.583753794898513
 20
2.419647527127388
 10
19.411386895244828
 20
2.4509549063474108
 10
19.238147477915515
 20
2.482348632289105
 10
19.06403451544954
 20
2.513920619315159
 10
18.88905057034702
 20
2.545441631904255
 10
18.71319615377494
 20
2.5768659422023004
 10
18.536560424905385
 20
2.608424636718932
 10
18.359052170669628
 20
2.6400703659389917
 10
18.180762601060163
 20
2.671850754570342
 10
18.001694791282212
 20
2.7034907016412184
 10
17.821848227092552
 20
2.735036210198418
 10
17.64122188205557
 20
2.7665791028737283
 10
17.45981421549242
 20
2.798257205345734
 10
17.277719002971946
 20
2.829888631608277
 10
17.09484656800263
 20
2.861288573391215
 10
16.911332959591782
 20
2.892596990739306
 10
16.727083886901934
 20
2.924041864436406
 10
16.54214726312771
 20
2.955440520578546
 10
16.356525136526017
 20
2.9866097266912037
 10
16.170308206947773
 20
3.0176427436054323
 10
15.98340423437591
 20
3.0485840903033123
 10
15.795904430341057
 20
3.0794812538963536
 10
15.607763443635989
 20
3.110287718632657
 10
15.419028161532419
 20
3.140912587374592
 10
15.22974444589186
 20
3.1713566938854174
 10
15.039866432289278
 20
3.2016194337291273
 10
14.849485845985804
 20
3.2317023368358875
 10
14.658510959669485
 20
3.261604056737334
 10
14.467032472165835
 20
3.291417945995422
 10
14.275050896692658
 20
3.3210980932942564
 10
14.08256879472467
 20
3.35041535484342
 10
13.889585139826242
 20
3.3794615532747008
 10
13.696191145066113
 20
3.408284038103259
 10
13.502294570427217
 20
3.436927328311174
 10
13.3079881665809
 20
3.465301222927725
 10
13.11327244571957
 20
3.4933599023679176
 10
12.918147920035615
 20
3.5210575470467576
 10
12.72261356206801
 20
3.5484860713269364
 10
12.526714723023984
 20
3.5756919909603537
 10
12.330451401365407
 20
3.6026754435433617
 10
12.133870998094523
 20
3.629299574756986
 10
11.936928162004115
 20
3.655517868849326
 10
11.739669268173492
 20
3.681285248267746
 10
11.542138641886964
 20
3.7067400055304844
 10
11.344288880604175
 20
3.7320191325528684
 10
11.146212736534595
 20
3.757032290767823
 10
10.947868447406732
 20
3.7814119062703413
 10
10.74925293545184
 20
3.8054333093594375
 10
10.550457416302175
 20
3.8291436202230194
 10
10.351437049917509
 20
3.852450595255094
 10
10.152192349515639
 20
3.8753083231397647
 10
9.952813503267807
 20
3.897855838427631
 10
9.75325516099219
 20
3.92004653363589
 10
9.553564723178319
 20
3.941743600311019
 10
9.353696325913866
 20
3.9629463881515608
 10
9.153741184831091
 20
3.9837020173454225
 10
8.953698786199475
 20
4.0040564450739495
 10
8.753570668647042
 20
4.0238720291203585
 10
8.55335631844327
 20
4.043194726665996
 10
8.3531010873081
 20
4.062071007597312
 10
8.152757573213876
 20
4.080637817964179
 10
7.952420580215892
 20
4.098621265666852
 10
7.752090108314146
 20
4.116021350705326
 10
7.55176564531624
 20
4.132883892664599
 10
7.35144667749166
 20
4.149254848726013
 10
7.151179582995952
 20
4.165088866144229
 10
6.950917984698976
 20
4.180431205933687
 10
6.750754123643204
 20
4.1952372573814065
 10
6.550689025751546
 20
4.209415243721049
 10
6.3507221783189065
 20
4.223011030403056
 10
6.150853069152877
 20
4.236070437012423
 10
5.951082210958563
 20
4.248547598098706
 10
5.751502359021657
 20
4.260351899902129
 10
5.552066622994208
 20
4.271574514753024
 10
5.352819842916451
 20
4.282307686257386
 10
5.153718717888875
 20
4.292321482726986
 10
4.954853951864042
 20
4.301708798069277
 10
4.756224008264754
 20
4.310607091039237
 10
4.557784559755882
 20
4.31887825258043
 10
4.35962836264853
 20
4.3264315772021815
 10
4.161754392045186
 20
4.333358749939925
 10
3.9641178084183224
 20
4.33956748132222
 10
3.766809317258614
 20
4.345150527660163
 10
3.5697840795512477
 20
4.35001555361686
 10
3.373133312979293
 20
4.354209495918419
 10
3.1767637505773654
 20
4.3578687420441575
 10
2.9807681486565674
 20
4.360902586503399
 10
2.7851485580373216
 20
4.363127567494367
 10
2.5899044675526337
 20
4.364589412871154
 10
2.3950802040249277
 20
4.36542627755565
 10
2.2006762822101344
 20
4.365592112635607
 10
2.0066932153260564
 20
4.365041006795131
 10
1.8131768693358463
 20
4.3637734268738795
 10
1.620080353891556
 20
4.3618805452021805
 10
1.4274485110842365
 20
4.35945442192423
 10
1.2353292571847556
 20
4.356312107943355
 10
1.0437236186287346
 20
4.352361780627768
 10
0.8526305715440708
 20
4.3476950332820055
 10
0.6620955158449867
 20
4.3423540244401755
 10
0.472072669139251
 20
4.336330811194201
 10
0.28260738571032656
 20
4.32967163410328
 10
0.09374501830354409
 20
4.322422871322962
 10
-0.09455824771110802
 20
4.3144005483463665
 10
-0.2822565468831935
 20
4.3056051778786
 10
-0.46930657728779607
 20
4.296266599876985
 10
-0.6557531789651441
 20
4.286292570735529
 10
-0.841504108309247
 20
4.275638250414001
 10
-1.0266510962209947
 20
4.264302613502188
 10
-1.2111024117994942
 20
4.252286685410303
 10
-1.3948132150045163
 20
4.239682709744339
 10
-1.5778757494420546
 20
4.226535526544526
 10
-1.7602415861361358
 20
4.212616321263755
 10
-1.9418220704165083
 20
4.198201312014896
 10
-2.122664093143822
 20
4.183381716993734
 10
-2.302810443537892
 20
4.1678818307925
 10
-2.4821235252473848
 20
4.151703191526511
 10
-2.660650741838063
 20
4.134982882841991
 10
-2.8383926060150304
 20
4.117766770189386
 10
-3.0153480923680736
 20
4.099963122667806
 10
-3.1914259827014133
 20
4.0816188311379085
 10
-3.3667180079159373
 20
4.062732870189483
 10
-3.5411339752260744
 20
4.04344386158407
 10
-3.714672859221615
 20
4.023660074420782
 10
-3.88733414719745
 20
4.003335643249177
 10
-4.059118351858688
 20
3.9825164335196988
 10
-4.229980633165093
 20
3.9612946888383385
 10
-4.399966856567112
 20
3.9396698964999928
 10
-4.568984265753644
 20
3.9175513510139846
 10
-4.7370328607246925
 20
3.8949390523803133
 10
-4.90415799422559
 20
3.87178662244343
 10
-5.070314313511004
 20
3.848140439358883
 10
-5.235503356696249
 20
3.824138099478006
 10
-5.399679771035984
 20
3.799825980956348
 10
-5.56284150570979
 20
3.775020621992133
 10
-5.7250344261681105
 20
3.749721509880256
 10
-5.886120423354509
 20
3.723884317285589
 10
-6.046192766285185
 20
3.6976456151492534
 10
-6.205251967665251
 20
3.6710512689216923
 10
-6.363206296593815
 20
3.6441023040131184
 10
-6.520055240365772
 20
3.616752854973086
 10
-6.675843126316249
 20
3.5888648127451597
 10
-6.830526139815226
 20
3.560622151836219
 10
-6.984105818978021
 20
3.532162468597597
 10
-7.1365337348286575
 20
3.50325694848218
 10
-7.287855752817582
 20
3.4739050787848598
 10
-7.437981167454118
 20
3.4441996158167387
 10
-7.586955844188711
 20
3.41414004687271
 10
-7.7347802957264635
 20
3.383772237403217
 10
-7.881407118501617
 20
3.3529591037620343
 10
-8.02683733792438
 20
3.3217923768500497
 10
-8.171070953994754
 20
3.2902720566672627
 10
-8.314110017533164
 20
3.2585816050154497
 10
-8.455862284933612
 20
3.226676181854378
 10
-8.596417948981674
 20
3.1944171654225046
 10
-8.735730118816694
 20
3.1617133375240467
 10
-8.873754979808645
 20
3.128748672665887
 10
-9.010539422818185
 20
3.0956143890438055
 10
-9.146035531574451
 20
3.062127537561134
 10
-9.280198466037213
 20
3.028380361823866
 10
-9.413120469812451
 20
2.994417701872233
 10
-9.544709811999287
 20
2.9602405831164478
 10
-9.674964954482405
 20
2.9257114092051766
 10
-9.803887435377122
 20
2.890967776489754
 10
-9.931477767388538
 20
2.856055550420621
 10
-10.057735437811552
 20
2.820928865547336
 10
-10.182614581195718
 20
2.7855882345750036
 10
-10.306114684835931
 20
2.74998779205318
 10
-10.428282126887742
 20
2.714172890727204
 10
-10.549025176450261
 20
2.678144556007286
 10
-10.668344858933699
 20
2.641994518794314
 10
-10.786331879828735
 20
2.6056300227771905
 10
-10.902848642784038
 20
2.5690526060712306
 10
-11.017940500544942
 20
2.5322158905208854
 10
-11.131609503931873
 20
2.495303337927931
 10
-11.243855652944827
 20
2.458314948292366
 10
-11.354632056723155
 20
2.42115950341841
 10
-11.463938202561748
 20
2.383791137855618
 10
-11.571819443205943
 20
2.346163473448441
 10
-11.67818661128038
 20
2.30850686285931
 10
-11.783085059530398
 20
2.2707749279326754
 10
-11.886513762545793
 20
2.2328759377676484
 10
-11.98842685487611
 20
2.1948104050693353
 10
-12.088825361931567
 20
2.156670060738625
 10
-12.187708258301951
 20
2.118363173874628
 10
-12.285076056692365
 20
2.0799356099277895
 10
-12.380929269807918
 20
2.0414332343485526
 10
-12.475221006787955
 20
2.0027648289411357
 10
-12.567952805747792
 20
1.9640679900568705
 10
-12.65916848131745
 20
1.925158743188875
 10
-12.748824218866908
 20
1.8862210628440315
 10
-12.836919505691057
 20
1.8472090835718955
 10
-12.9234538290848
 20
1.8080769399220231
 10
-13.008381323597684
 20
1.7688251445995207
 10
-13.09174836738526
 20
1.7294990503497254
 10
-13.17351063311241
 20
1.690236766229076
 10
-13.253667095368913
 20
1.6509465613366838
 10
-13.33221775415477
 20
1.6116284356725488
 10
-13.409208987625535
 20
1.5723277419820096
 10
-13.48454855217521
 20
1.5329996402248334
 10
-13.558283338664454
 20
1.4937353485968023
 10
-13.630368507053033
 20
1.4546271107039104
 10
-13.700849922791395
 20
1.4156744138410517
 10
-13.769680695018874
 20
1.376786039812444
 10
-13.836907201891028
 20
1.3380073413634255
 10
-13.90243771250697
 20
1.2993393439042078
 10
-13.966364983177796
 20
1.2608727529254673
 10
-14.028597795707721
 20
1.2226544592878594
 10
-14.089180990136986
 20
1.1845922193853902
 10
-14.148114566465587
 20
1.1466860332180602
 10
-14.20539852469352
 20
1.108935900785869
 10
-14.260988024780556
 20
1.0714340656948105
 10
-14.314883066726694
 20
1.0341805279448844
 10
-14.367127977867062
 20
0.9970371784796535
 10
-14.417678430866532
 20
0.9601421263555551
 10
-14.46653237490468
 20
0.9233119097708133
 10
-14.513691860801936
 20
0.8867299905272045
 10
-14.559154837737866
 20
0.8502129068229521
 10
-14.602922331122691
 20
0.8138523895589446
 10
-14.644994340956407
 20
0.7776484387351819
 10
-14.685324489083463
 20
0.7415557016063256
 10
-14.724005531814962
 20
0.705664883663052
 10
-14.76089833468425
 20
0.669839926669347
 10
-14.796141519452874
 20
0.6341710234107807
 10
-14.829642842514838
 20
0.598613333847121
 10
-14.861403841985464
 20
0.5633044543296997
 10
-14.89146935790498
 20
0.5281521412525231
 10
-14.919794037528048
 20
0.49320277277114066
 10
-14.946379931675093
 20
0.4586398106873286
 10
-14.97127136768124
 20
0.4243251459446491
 10
-14.994423505506257
 20
0.39035102214909584
 10
-15.015837370560355
 20
0.3568091702015567
 10
-15.03551501366396
 20
0.3238830519038075
 10
-15.053456434817068
 20
0.2915726672558482
 10
-15.069708524880337
 20
0.25996923445346104
 10
-15.084182116478406
 20
0.22930310615907715
 10
-15.096925125882146
 20
0.19975723146936672
 10
-15.107988545593052
 20
0.17178975218366324
 10
-15.11728423364598
 20
0.1457227518652861
 10
-15.124866258773068
 20
0.12228956501623259
 10
-15.13078868970645
 20
0.10222352613850019
 10
-15.134972100467774
 20
0.08662643145295519
 10
-15.137475174135131
 20
0.0766444045155904
 10
-15.135069919362701
 20
-0.2164914306686938
 10
-15.134172327843872
 20
-0.2188208272443259
 10
-15.131480065992493
 20
-0.22576315152077817
 10
-15.126995184628987
 20
-0.23713494169627483
 10
-15.120663102316108
 20
-0.2537153977232573
 10
-15.112564783147528
 20
-0.27646871947125995
 10
-15.1026810223383
 20
-0.3030093908120917
 10
-15.090981848296261
 20
-0.3319150700768845
 10
-15.07756565708867
 20
-0.36259053182007833
 10
-15.062397350072304
 20
-0.39407208887724476
 10
-15.045435676142674
 20
-0.4259464394892823
 10
-15.026774929726194
 20
-0.4579852818141828
 10
-15.006371296192844
 20
-0.49000464134506466
 10
-14.984226826363049
 20
-0.5218210562801522
 10
-14.960342545647014
 20
-0.5533427957185574
 10
-14.934718454044747
 20
-0.5845698596602804
 10
-14.907400929711795
 20
-0.6154568953599828
 10
-14.878345132607922
 20
-0.645911659211671
 10
-14.847550550028028
 20
-0.6759800166657891
 10
-14.815063560127657
 20
-0.7056166149769989
 10
-14.780837272046156
 20
-0.7349126723410824
 10
-14.744872198488633
 20
-0.7638223233075956
 10
-14.707261095766185
 20
-0.7922548623858624
 10
-14.667864829412162
 20
-0.820346347811897
 10
-14.626821508483005
 20
-0.848052452250573
 10
-14.584038889372716
 20
-0.8754180157421229
 10
-14.539563350236847
 20
-0.9023976855412084
 10
-14.493395403780507
 20
-0.9289455961973854
 10
-14.445533511888371
 20
-0.9551993440619856
 10
-14.395978699970657
 20
-0.9810671982341216
 10
-14.34472891720694
 20
-1.0067326205155693
 10
-14.291785701712536
 20
-1.032058014554996
 10
-14.237193893527682
 20
-1.0571356239583958
 10
-14.180907627201925
 20
-1.0819649360206636
 10
-14.122925877325065
 20
-1.106637681642686
 10
-14.06329502205264
 20
-1.131108508079126
 10
-14.002014548679554
 20
-1.155423280780427
 10
-13.939084457205803
 20
-1.179581999746589
 10
-13.874457344065627
 20
-1.2037217486238383
 10
-13.808225452865015
 20
-1.227797687371942
 10
-13.74029756540819
 20
-1.251762925130245
 10
-13.67076541259604
 20
-1.275618487308959
 10
-13.599582103567904
 20
-1.299455592103866
 10
-13.526793503774233
 20
-1.3232747522200712
 10
-13.452354260469683
 20
-1.3470295895020254
 10
-13.376311264514916
 20
-1.3706288857539468
 10
-13.298618137754376
 20
-1.394117993721173
 10
-13.21936609838385
 20
-1.4175438042643596
 10
-13.138509280952889
 20
-1.440905804678401
 10
-13.056047685461495
 20
-1.464203994963297
 10
-12.971982850024986
 20
-1.487300778767716
 10
-12.886360640093807
 20
-1.5101966687967638
 10
-12.799135190217509
 20
-1.5328911523453341
 10
-12.710351340436336
 20
-1.5554764730194208
 10
-12.620009090750273
 20
-1.5779526308190244
 10
-12.528110491979755
 20
-1.6001361639423686
 10
-12.434700384165005
 20
-1.6221193159954472
 10
-12.339733414560694
 20
-1.6438557088227101
 10
-12.24320907046171
 20
-1.665391207874602
 10
-12.1451732173185
 20
-1.6867263258562282
 10
-12.045626367836165
 20
-1.707815197317145
 10
-11.944568009309608
 20
-1.728703687707796
 10
-11.841998141738818
 20
-1.7493917970281812
 10
-11.737917277828908
 20
-1.769833659827857
 10
-11.632370770325217
 20
-1.790075654262373
 10
-11.525358619227744
 20
-1.810117780331729
 10
-11.416835471791144
 20
-1.8299136598803751
 10
-11.306892033506102
 20
-1.8495560492194114
 10
-11.195482951627277
 20
-1.8689985701932876
 10
-11.082607713449562
 20
-1.8882870882524483
 10
-10.968312697128509
 20
-1.9073762506515548
 10
-10.852599440779432
 20
-1.9261284610392753
 10
-10.735466406287015
 20
-1.9446813157669411
 10
-10.616866702790604
 20
-1.9631260330303353
 10
-10.496938439346637
 20
-1.9814182854943312
 10
-10.375590910464437
 20
-1.999465316847829
 10
-10.252824628849107
 20
-2.017221261640384
 10
-10.128730299991325
 20
-2.0347788761830965
 10
-10.003261545735544
 20
-2.0521835132213053
 10
-9.876419391491973
 20
-2.0693434418541217
 10
-9.748249702711057
 20
-2.086259174786651
 10
-9.618752992097896
 20
-2.1028848465684495
 10
-9.487927721537183
 20
-2.1193580535508505
 10
-9.355774916439126
 20
-2.135587064832964
 10
-9.22229355139351
 20
-2.1516636113156795
 10
-9.087576895416534
 20
-2.1674511220578756
 10
-8.95153270490222
 20
-2.182994437099785
 10
-8.814206845301005
 20
-2.198294069146513
 10
-8.675644669358222
 20
-2.2133963963536107
 10
-8.535801337033645
 20
-2.228209175115084
 10
-8.394721688367504
 20
-2.2428246490369257
 10
-8.25245210151535
 20
-2.2571974653737974
 10
-8.108901870986507
 20
-2.2712348678146017
 10
-7.96416272768186
 20
-2.2849378817695483
 10
-7.818233133486093
 20
-2.298444103589969
 10
-7.671113088399206
 20
-2.3117535332758647
 10
-7.5228025924212
 20
-2.324866170827235
 10
-7.373349049117834
 20
-2.3376449325978546
 10
-7.222753483899322
 20
-2.349998087686834
 10
-7.070967980494799
 20
-2.362108585190844
 10
-6.9180842698051475
 20
-2.373977450520097
 10
-6.764057511790137
 20
-2.385512440068598
 10
-6.608934597310424
 20
-2.396622335640565
 10
-6.452713988250691
 20
-2.4074447335873304
 10
-6.295440524651171
 20
-2.418071877514888
 10
-6.13706936647163
 20
-2.428411523817244
 10
-5.977602051827384
 20
-2.4383260761430665
 10
-5.8171292862091155
 20
-2.447908290803454
 10
-5.655650556911712
 20
-2.457204033248852
 10
-5.493074133034288
 20
-2.4662122780690483
 10
-5.329538123633283
 20
-2.474888697928916
 10
-5.164997688668462
 20
-2.483141049222461
 10
-4.999452828139826
 20
-2.4909693319496844
 10
-4.832948894792711
 20
-2.498419924266135
 10
-4.665483325101595
 20
-2.5057221534240335
 10
-4.49710352263223
 20
-2.5127389357771532
 10
-4.3277656727546026
 20
-2.5192862968186125
 10
-4.157469262763603
 20
-2.5254101019988555
 10
-3.9863060235601204
 20
-2.5311113767280937
 10
-3.8142280388732863
 20
-2.536573070102997
 10
-3.6412821995637588
 20
-2.541703963927783
 10
-3.467468505631535
 20
-2.5465040582024527
 10
-3.2927879824868294
 20
-2.550881622026117
 10
-3.1172401174245348
 20
-2.5548825208492207
 10
-2.940915615935328
 20
-2.558599510982863
 10
-2.7637237725285333
 20
-2.5619398361159447
 10
-2.5857573435152457
 20
-2.564812790757789
 10
-2.4070158161903628
 20
-2.5672642403588393
 10
-2.227498677848781
 20
-2.5693400503695405
 10
-2.047160575745159
 20
-2.570993842634343
 10
-1.8661401316410435
 20
-2.572135424367675
 10
-1.68439199279109
 20
-2.5727184174139883
 10
-1.5018672175142251
 20
-2.57301750177084
 10
-1.318658049416442
 20
-2.5729878373979975
 10
-1.1348134301788182
 20
-2.5723547442979036
 10
-0.9502400907851497
 20
-2.571254793411678
 10
-0.764983383980771
 20
-2.56973436289487
 10
-0.5791360660767865
 20
-2.5677027472568046
 10
-0.3926069188774123
 20
-2.565113055636825
 10
-0.20548767328353312
 20
-2.561966313445143
 10
-0.017730413024286105
 20
-2.55844546977843
 10
0.17061797103967224
 20
-2.5544593064409016
 10
0.35950904993237687
 20
-2.5497790088854457
 10
0.5489902272195796
 20
-2.544541660758287
 10
0.7390176882712671
 20
-2.538931236566308
 10
0.929544031059784
 20
-2.5328107902596337
 10
1.1206146913887103
 20
-2.5261413738856864
 10
1.3121848763866684
 20
-2.5190194506719
 10
1.5042525367713575
 20
-2.5112616964128502
 10
1.6968176735681881
 20
-2.5028682028394384
 10
1.889836472147138
 20
-2.494022944458546
 10
2.083263581813692
 20
-2.484772482887525
 10
2.277144355825891
 20
-2.475070485836275
 10
2.471431391130674
 20
-2.464779915524021
 10
2.666125713650968
 20
-2.4539925487171006
 10
2.861227325437588
 20
-2.442708568877317
 10
3.056690360527382
 20
-2.4309284428443245
 10
3.252513282343152
 20
-2.4185147118631423
 10
3.4486971162951106
 20
-2.405559106834659
 10
3.6451521823027897
 20
-2.3922461149708623
 10
3.8419697006127906
 20
-2.378529028872897
 10
4.039056401696212
 20
-2.3642712317341936
 10
4.236458664734004
 20
-2.3495181680309907
 10
4.434084758825279
 20
-2.3342708631735003
 10
4.631981062638296
 20
-2.31857471577251
 10
4.830147063980655
 20
-2.3023839062430276
 10
5.028491544656572
 20
-2.2857453254457076
 10
5.227061395526704
 20
-2.2687501915763324
 10
5.425856105424058
 20
-2.25135277678081
 10
5.6247834292045225
 20
-2.2335081034225555
 10
5.823889746049064
 20
-2.2152616159778082
 10
6.023130215917448
 20
-2.1967055580525625
 10
6.2225486539523995
 20
-2.177656001005387
 10
6.422054353637831
 20
-2.1582056094164797
 10
6.6216483403839534
 20
-2.1384461141867295
 10
6.821330101998372
 20
-2.1183316957311416
 10
7.021098613070867
 20
-2.097770623148829
 10
7.220954899524362
 20
-2.07685467320613
 10
7.420808253304651
 20
-2.0556763728868916
 10
7.620703515477375
 20
-2.0341435703160213
 10
7.820596358707415
 20
-2.0123943745499564
 10
8.020485243854036
 20
-1.9902910975064638
 10
8.22036965872484
 20
-1.9677879196005506
 10
8.42025062873004
 20
-1.9449765717331047
 10
8.620037958007828
 20
-1.921995400472966
 10
8.819777513546773
 20
-1.8988440307113812
 10
9.0194218907557
 20
-1.8753852870712227
 10
9.218971601314301
 20
-1.8516649432720336
 10
9.418426645735286
 20
-1.8276830451792647
 10
9.617787535698348
 20
-1.8034853665124582
 10
9.816962025033964
 20
-1.7790268379041303
 10
10.015996493435809
 20
-1.7543529496959704
 10
10.214845585082301
 20
-1.729509804850825
 10
10.413556193397635
 20
-1.7045888508917293
 10
10.61203453204614
 20
-1.6794072386380643
 10
10.81028111424564
 20
-1.6540108794057244
 10
11.0083443689721
 20
-1.628628587741824
 10
11.206129486530477
 20
-1.6029859670266586
 10
11.403635952677543
 20
-1.5770370142134327
 10
11.600912710632501
 20
-1.551056546896056
 10
11.797869050803026
 20
-1.5251369544620237
 10
11.994547763434337
 20
-1.4990026232344678
 10
12.190903493730275
 20
-1.4726997479071358
 10
12.38689037316418
 20
-1.4462285659924312
 10
12.582555294134806
 20
-1.4196804332824873
 10
12.777852901333292
 20
-1.3931014986056018
 10
12.972783705926632
 20
-1.3665374898158666
 10
13.167300815516061
 20
-1.3398970511211492
 10
13.361403202640531
 20
-1.313088268158759
 10
13.555092404902673
 20
-1.286248691414578
 10
13.748368421789772
 20
-1.2593782750231557
 10
13.941140029466284
 20
-1.2325234053251926
 10
14.133498962422042
 20
-1.2056833779686302
 10
14.325351946513788
 20
-1.1787211633578438
 10
14.516699493421216
 20
-1.1516825352123765
 10
14.707544164619033
 20
-1.1247966373226463
 10
14.897885447914842
 20
-1.0980176501036594
 10
15.087630580332375
 20
-1.0712542718138842
 10
15.276871809066561
 20
-1.0445516635517051
 10
15.465516884871652
 20
-1.0178644807569364
 10
15.653611674223502
 20
-0.9911923024553723
 10
15.841111333492936
 20
-0.9646270511948533
 10
16.027969993640585
 20
-0.9381689186223321
 10
16.214234547065217
 20
-0.9119092605299424
 10
16.399811718085452
 20
-0.885710909725708
 10
16.58479324119112
 20
-0.8595731618575704
 10
16.76908686713648
 20
-0.8334506723653424
 10
16.952695669588625
 20
-0.8076184046244352
 10
17.13557378002089
 20
-0.7820765961472522
 10
17.31780985669246
 20
-0.7565493498790714
 10
17.499265781318208
 20
-0.7309915129066579
 10
17.680037390028808
 20
-0.7057693044815047
 10
17.860032433065793
 20
-0.6808373341779743
 10
18.039248857045227
 20
-0.6560119108670388
 10
18.21768666094169
 20
-0.6312929428177971
 10
18.39534635592218
 20
-0.6067261578843419
 10
18.5722305044868
 20
-0.582540791587992
 10
18.7482463421212
 20
-0.5586454045908639
 10
18.923484066737974
 20
-0.5349018337859186
 10
19.097851939232957
 20
-0.5113103707361608
 10
19.271350983478253
 20
-0.4879626087461269
 10
19.44398222385866
 20
-0.46495018698580365
 10
19.615744632913152
 20
-0.44218119109250176
 10
19.78659234006422
 20
-0.4196556751168224
 10
19.956572238223348
 20
-0.39746504071634947
 10
20.12559258828637
 20
-0.37560957945408746
 10
20.293697719639223
 20
-0.3539513657354005
 10
20.46079589215234
 20
-0.33249059939239195
 10
20.62702573630324
 20
-0.31131825292329024
 10
20.79220480031921
 20
-0.29052673208589275
 10
20.956424820740903
 20
-0.27011551598994304
 10
21.119685282812373
 20
-0.25003855572319533
 10
21.281893422019248
 20
-0.23020441194776617
 10
21.44304974850312
 20
-0.210658720786847
 10
21.60324651099702
 20
-0.19144678093517498
 10
21.76234661457521
 20
-0.1726149869186016
 10
21.920396951123763
 20
-0.15425464866380975
 10
22.07735011194987
 20
-0.1362282238700688
 10
22.23325145133696
 20
-0.11848947197818067
 10
22.388055611412675
 20
-0.10108431248919045
 10
22.541762590126176
 20
-0.08401256194129628
 10
22.694328054502588
 20
-0.06741182487098102
 10
22.845796334440553
 20
-0.051144221549059184
 10
22.9960762020029
 20
-0.035255771392628
 10
23.145212498767975
 20
-0.01965436839204489
 10
23.29320676182569
 20
-0.004477517167740997
 10
23.440013632278244
 20
0.010228954510139507
 10
23.585631569959492
 20
0.024602826454730047
 10
23.730060573331325
 20
0.038644236262382066
 10
23.87330064034292
 20
0.05235336739489717
 10
24.01526105627491
 20
0.06563828911928422
 10
24.156034583078146
 20
0.07840779142491171
 10
24.295572786136905
 20
0.0908911933788486
 10
24.433830307066096
 20
0.10304262134550014
 10
24.57085301285426
 20
0.11486245043362063
 10
24.706596057821436
 20
0.1262589415571714
 10
24.841013058172294
 20
0.1372779519814455
 10
24.974195238255092
 20
0.14796582218169294
 10
25.10605239503015
 20
0.15818484770537947
 10
25.236583501549138
 20
0.16802689704974402
 10
25.365789068979062
 20
0.1774462423606943
 10
25.493667556641068
 20
0.18658070931681425
 10
25.620219988407246
 20
0.1953387046135672
 10
25.745400492674708
 20
0.20372026593125292
 10
25.869209580610427
 20
0.2116796654157786
 10
25.991692607523277
 20
0.21926305189544174
 10
26.112757319553157
 20
0.22651618271948382
 10
26.232403714136538
 20
0.23343928721515686
 10
26.350678172505223
 20
0.23998673744442028
 10
26.467581207876993
 20
0.24611262209137938
 10
26.58301955174837
 20
0.2519534662317043
 10
26.697039025477135
 20
0.2575137269992387
 10
26.80964121691103
 20
0.2626513590939579
 10
26.92077972328464
 20
0.26741391680282134
 10
27.030453518162354
 20
0.2718932227576179
 10
27.13870949496834
 20
0.27599782943531304
 10
27.24545642474002
 20
0.27968180914971064
 10
27.35073915008115
 20
0.2830371761795524
 10
27.454557156748507
 20
0.28610993357163317
 10
27.556864573651886
 20
0.2889000731408024
 10
27.657662424663393
 20
0.29131600158252346
 10
27.756950194514395
 20
0.2934038136744924
 10
27.85472685676926
 20
0.2952553320484982
 10
27.950992922082285
 20
0.2968248747158986
 10
28.04570354528619
 20
0.2980206567252043
 10
28.138858723817428
 20
0.2988429074036676
 10
28.230502275894978
 20
0.29947528020001696
 10
28.320588842108325
 20
0.2998719932095584
 10
28.409118421944772
 20
0.3000330922977425
 10
28.496091525545886
 20
0.2999129413413773
 10
28.581462282334172
 20
0.29951148628986146
 10
28.665276559810913
 20
0.2988290563864993
 10
28.74748746250109
 20
0.2979572826161268
 10
28.828096013251397
 20
0.29680466340510814
 10
28.90710118562621
 20
0.2954630213852323
 10
28.984549873562422
 20
0.29384086316801433
 10
29.060349310494814
 20
0.29202981155313956
 10
29.134544852244975
 20
0.290075969503455
 10
29.207091140427796
 20
0.28793346338336584
 10
29.278034556275056
 20
0.2855566652548312
 10
29.347328199184723
 20
0.28303766475719183
 10
29.415018960530134
 20
0.28028519782921485
 10
29.481013593341423
 20
0.27743386319765173
 10
29.545404308411435
 20
0.2744417562110984
 10
29.60809937996634
 20
0.2713073928048388
 10
29.669144676532838
 20
0.2680310104912762
 10
29.72854019708549
 20
0.2646127010013114
 10
29.78628542738108
 20
0.26109846738173964
 10
29.842335010059934
 20
0.2574423442660652
 10
29.896687917661005
 20
0.2537362460169779
 10
29.949390532954205
 20
0.2499344071000854
 10
30.000396471118805
 20
0.24608277651158178
 10
30.04970624434721
 20
0.24213553466647336
 10
30.097319339421606
 20
0.23813859288065464
 10
30.143236267508996
 20
0.2340462233000332
 10
30.187456515391556
 20
0.22990433724050305
 10
30.229979057146377
 20
0.2258047114684028
 10
30.27075904658076
 20
0.22165565276314403
 10
30.309887711119174
 20
0.2175032264072742
 10
30.34722692632405
 20
0.21339313569943347
 10
30.382914815094832
 20
0.20927981493733286
 10
30.416859636276563
 20
0.20516315601977012
 10
30.449060363946302
 20
0.2011349357130832
 10
30.479563380361245
 20
0.19714943434833063
 10
30.508322814431196
 20
0.19320664374036142
 10
30.535337640745944
 20
0.18939829479006354
 10
30.560654753755074
 20
0.18563284824350162
 10
30.5842272579836
 20
0.18200193508551193
 10
30.606055665111196
 20
0.1784597815965514
 10
30.626138949727665
 20
0.17509811867750788
 10
30.644477624538112
 20
0.1718710808779374
 10
30.6611170458768
 20
0.16882472529523657
 10
30.675965473101453
 20
0.1659588979627523
 10
30.68906826408447
 20
0.16331951838153003
 10
30.700471288377905
 20
0.16090673233307162
 10
30.710082805339507
 20
0.1587203858507243
 10
30.717947659111132
 20
0.15685235561687805
 10
30.72411223400079
 20
0.1552567385007893
 10
30.728483761905178
 20
0.15402529489849484
 10
30.73110760223478
 20
0.15320380671468833
 10
30.731982728041288
 20
0.15288414244660925
  0
ENDSEC
  0
SECTION
  2
OBJECTS
  0
DICTIONARY
  5
A
330
0
100
AcDbDictionary
280
0
281
1
  3
ACAD_COLOR
350
B
  3
ACAD_GROUP
350
C
  3
ACAD_LAYOUT
350
D
  3
ACAD_MATERIAL
350
E
  3
ACAD_MLEADERSTYLE
350
F
  3
ACAD_MLINESTYLE
350
10
  3
ACAD_PLOTSETTINGS
350
11
  3
ACAD_PLOTSTYLENAME
350
12
  3
ACAD_SCALELIST
350
14
  3
ACAD_TABLESTYLE
350
15
  3
ACAD_VISUALSTYLE
350
16
  3
EZDXF_META
350
2D
  0
DICTIONARY
  5
B
330
A
100
AcDbDictionary
280
0
281
1
  0
DICTIONARY
  5
C
330
A
100
AcDbDictionary
280
0
281
1
  0
DICTIONARY
  5
D
330
A
100
AcDbDictionary
280
0
281
1
  3
Model
350
1A
  3
Layout1
350
1E
  0
DICTIONARY
  5
E
330
A
100
AcDbDictionary
280
0
281
1
  3
ByBlock
350
1F
  3
ByLayer
350
20
  3
Global
350
21
  0
DICTIONARY
  5
F
330
A
100
AcDbDictionary
280
0
281
1
  3
Standard
350
2C
  0
DICTIONARY
  5
10
330
A
100
AcDbDictionary
280
0
281
1
  3
Standard
350
22
  0
DICTIONARY
  5
11
330
A
100
AcDbDictionary
280
0
281
1
  0
ACDBDICTIONARYWDFLT
  5
12
330
A
100
AcDbDictionary
280
0
281
1
  3
Normal
350
13
100
AcDbDictionaryWithDefault
340
13
  0
ACDBPLACEHOLDER
  5
13
330
12
  0
DICTIONARY
  5
14
330
A
100
AcDbDictionary
280
0
281
1
  0
DICTIONARY
  5
15
330
A
100
AcDbDictionary
280
0
281
1
  0
DICTIONARY
  5
16
330
A
100
AcDbDictionary
280
0
281
1
  0
LAYOUT
  5
1A
330
D
100
AcDbPlotSettings
  1

  4
A3
  6

 40
7.5
 41
20.0
 42
7.5
 43
20.0
 44
420.0
 45
297.0
 46
0.0
 47
0.0
 48
0.0
 49
0.0
140
0.0
141
0.0
142
1.0
143
1.0
 70
1024
 72
1
 73
0
 74
5
  7

 75
16
 76
0
 77
2
 78
300
147
1.0
148
0.0
149
0.0
100
AcDbLayout
  1
Model
 70
1
 71
0
 10
0.0
 20
0.0
 11
420.0
 21
297.0
 12
0.0
 22
0.0
 32
0.0
 14
1e+20
 24
1e+20
 34
1e+20
 15
-1e+20
 25
-1e+20
 35
-1e+20
146
0.0
 13
0.0
 23
0.0
 33
0.0
 16
1.0
 26
0.0
 36
0.0
 17
0.0
 27
1.0
 37
0.0
 76
1
330
17
  0
LAYOUT
  5
1E
330
D
100
AcDbPlotSettings
  1

  4
A3
  6

 40
7.5
 41
20.0
 42
7.5
 43
20.0
 44
420.0
 45
297.0
 46
0.0
 47
0.0
 48
0.0
 49
0.0
140
0.0
141
0.0
142
1.0
143
1.0
 70
0
 72
1
 73
0
 74
5
  7

 75
16
 76
0
 77
2
 78
300
147
1.0
148
0.0
149
0.0
100
AcDbLayout
  1
Layout1
 70
1
 71
1
 10
0.0
 20
0.0
 11
420.0
 21
297.0
 12
0.0
 22
0.0
 32
0.0
 14
1e+20
 24
1e+20
 34
1e+20
 15
-1e+20
 25
-1e+20
 35
-1e+20
146
0.0
 13
0.0
 23
0.0
 33
0.0
 16
1.0
 26
0.0
 36
0.0
 17
0.0
 27
1.0
 37
0.0
 76
1
330
1B
  0
MATERIAL
  5
1F
102
{ACAD_REACTORS
330
E
102
}
330
E
100
AcDbMaterial
  1
ByBlock
  2

 70
0
 40
1.0
 71
1
 41
1.0
 91
-1023410177
 42
1.0
 72
1
  3

 73
1
 74
1
 75
1
 44
0.5
 73
0
 45
1.0
 46
1.0
 77
1
  4

 78
1
 79
1
170
1
 48
1.0
171
1
  6

172
1
173
1
174
1
140
1.0
141
1.0
175
1
  7

176
1
177
1
178
1
143
1.0
179
1
  8

270
1
271
1
272
1
145
1.0
146
1.0
273
1
  9

274
1
275
1
276
1
 42
1.0
 72
1
  3

 73
1
 74
1
 75
1
 94
63
  0
MATERIAL
  5
20
102
{ACAD_REACTORS
330
E
102
}
330
E
100
AcDbMaterial
  1
ByLayer
  2

 70
0
 40
1.0
 71
1
 41
1.0
 91
-1023410177
 42
1.0
 72
1
  3

 73
1
 74
1
 75
1
 44
0.5
 73
0
 45
1.0
 46
1.0
 77
1
  4

 78
1
 79
1
170
1
 48
1.0
171
1
  6

172
1
173
1
174
1
140
1.0
141
1.0
175
1
  7

176
1
177
1
178
1
143
1.0
179
1
  8

270
1
271
1
272
1
145
1.0
146
1.0
273
1
  9

274
1
275
1
276
1
 42
1.0
 72
1
  3

 73
1
 74
1
 75
1
 94
63
  0
MATERIAL
  5
21
102
{ACAD_REACTORS
330
E
102
}
330
E
100
AcDbMaterial
  1
Global
  2

 70
0
 40
1.0
 71
1
 41
1.0
 91
-1023410177
 42
1.0
 72
1
  3

 73
1
 74
1
 75
1
 44
0.5
 73
0
 45
1.0
 46
1.0
 77
1
  4

 78
1
 79
1
170
1
 48
1.0
171
1
  6

172
1
173
1
174
1
140
1.0
141
1.0
175
1
  7

176
1
177
1
178
1
143
1.0
179
1
  8

270
1
271
1
272
1
145
1.0
146
1.0
273
1
  9

274
1
275
1
276
1
 42
1.0
 72
1
  3

 73
1
 74
1
 75
1
 94
63
  0
MLINESTYLE
  5
22
102
{ACAD_REACTORS
330
10
102
}
330
10
100
AcDbMlineStyle
  2
Standard
 70
0
  3

 62
256
 51
90.0
 52
90.0
 71
2
 49
0.5
 62
256
  6
BYLAYER
 49
-0.5
 62
256
  6
BYLAYER
  0
MLEADERSTYLE
  5
2C
102
{ACAD_REACTORS
330
F
102
}
330
F
100
AcDbMLeaderStyle
179
2
170
2
171
1
172
0
 90
2
 40
0.0
 41
0.0
173
1
 91
-1056964608
 92
-2
290
1
 42
2.0
291
1
 43
8.0
  3
Standard
 44
4.0
300

342
29
174
1
175
1
176
0
178
1
 93
-1056964608
 45
4.0
292
0
297
0
 46
4.0
 94
-1056964608
 47
1.0
 49
1.0
140
1.0
294
1
141
0.0
177
0
142
1.0
295
0
296
0
143
3.75
271
0
272
9
273
9
  0
DICTIONARY
  5
2D
330
A
100
AcDbDictionary
280
1
281
1
  3
CREATED_BY_EZDXF
350
2E
  3
WRITTEN_BY_EZDXF
350
32
  0
DICTIONARYVAR
  5
2E
330
2D
100
DictionaryVariables
280
0
  1
1.3.5 @ 2025-08-20T01:28:30.672180+00:00
  0
DICTIONARYVAR
  5
32
330
2D
100
DictionaryVariables
280
0
  1
1.3.5 @ 2025-08-20T01:28:30.672180+00:00
  0
ENDSEC
  0
EOF
