  0
SECTION
  2
HEADER
  9
$ACADVER
  1
AC1032
  9
$ACADMAINTVER
 90
4
  9
$DWGCODEPAGE
  3
ANSI_1252
  9
$LASTSAVEDBY
  1
ezdxf
  9
$REQUIREDVERSIONS
160
0
  9
$INSBASE
 10
0.0
 20
0.0
 30
0.0
  9
$EXTMIN
 10
1e+20
 20
1e+20
 30
1e+20
  9
$EXTMAX
 10
-1e+20
 20
-1e+20
 30
-1e+20
  9
$LIMMIN
 10
0.0
 20
0.0
  9
$LIMMAX
 10
420.0
 20
297.0
  9
$ORTHOMODE
 70
0
  9
$REGENMODE
 70
1
  9
$FILLMODE
 70
1
  9
$QTEXTMODE
 70
0
  9
$MIRRTEXT
 70
1
  9
$LTSCALE
 40
1.0
  9
$ATTMODE
 70
1
  9
$TEXTSIZE
 40
2.5
  9
$TRACEWID
 40
1.0
  9
$TEXTSTYLE
  7
Standard
  9
$CLAYER
  8
0
  9
$CELTYPE
  6
ByLayer
  9
$CECOLOR
 62
256
  9
$CELTSCALE
 40
1.0
  9
$DISPSILH
 70
0
  9
$DIMSCALE
 40
1.0
  9
$DIMASZ
 40
2.5
  9
$DIMEXO
 40
0.625
  9
$DIMDLI
 40
3.75
  9
$DIMRND
 40
0.0
  9
$DIMDLE
 40
0.0
  9
$DIMEXE
 40
1.25
  9
$DIMTP
 40
0.0
  9
$DIMTM
 40
0.0
  9
$DIMTXT
 40
2.5
  9
$DIMCEN
 40
2.5
  9
$DIMTSZ
 40
0.0
  9
$DIMTOL
 70
0
  9
$DIMLIM
 70
0
  9
$DIMTIH
 70
0
  9
$DIMTOH
 70
0
  9
$DIMSE1
 70
0
  9
$DIMSE2
 70
0
  9
$DIMTAD
 70
1
  9
$DIMZIN
 70
8
  9
$DIMBLK
  1

  9
$DIMASO
 70
1
  9
$DIMSHO
 70
1
  9
$DIMPOST
  1

  9
$DIMAPOST
  1

  9
$DIMALT
 70
0
  9
$DIMALTD
 70
3
  9
$DIMALTF
 40
0.03937007874
  9
$DIMLFAC
 40
1.0
  9
$DIMTOFL
 70
1
  9
$DIMTVP
 40
0.0
  9
$DIMTIX
 70
0
  9
$DIMSOXD
 70
0
  9
$DIMSAH
 70
0
  9
$DIMBLK1
  1

  9
$DIMBLK2
  1

  9
$DIMSTYLE
  2
ISO-25
  9
$DIMCLRD
 70
0
  9
$DIMCLRE
 70
0
  9
$DIMCLRT
 70
0
  9
$DIMTFAC
 40
1.0
  9
$DIMGAP
 40
0.625
  9
$DIMJUST
 70
0
  9
$DIMSD1
 70
0
  9
$DIMSD2
 70
0
  9
$DIMTOLJ
 70
0
  9
$DIMTZIN
 70
8
  9
$DIMALTZ
 70
0
  9
$DIMALTTZ
 70
0
  9
$DIMUPT
 70
0
  9
$DIMDEC
 70
2
  9
$DIMTDEC
 70
2
  9
$DIMALTU
 70
2
  9
$DIMALTTD
 70
3
  9
$DIMTXSTY
  7
Standard
  9
$DIMAUNIT
 70
0
  9
$DIMADEC
 70
0
  9
$DIMALTRND
 40
0.0
  9
$DIMAZIN
 70
0
  9
$DIMDSEP
 70
44
  9
$DIMATFIT
 70
3
  9
$DIMFRAC
 70
0
  9
$DIMLDRBLK
  1

  9
$DIMLUNIT
 70
2
  9
$DIMLWD
 70
-2
  9
$DIMLWE
 70
-2
  9
$DIMTMOVE
 70
0
  9
$DIMFXL
 40
1.0
  9
$DIMFXLON
 70
0
  9
$DIMJOGANG
 40
0.785398163397
  9
$DIMTFILL
 70
0
  9
$DIMTFILLCLR
 70
0
  9
$DIMARCSYM
 70
0
  9
$DIMLTYPE
  6

  9
$DIMLTEX1
  6

  9
$DIMLTEX2
  6

  9
$DIMTXTDIRECTION
 70
0
  9
$LUNITS
 70
2
  9
$LUPREC
 70
4
  9
$SKETCHINC
 40
1.0
  9
$FILLETRAD
 40
10.0
  9
$AUNITS
 70
0
  9
$AUPREC
 70
2
  9
$MENU
  1
.
  9
$ELEVATION
 40
0.0
  9
$PELEVATION
 40
0.0
  9
$THICKNESS
 40
0.0
  9
$LIMCHECK
 70
0
  9
$CHAMFERA
 40
0.0
  9
$CHAMFERB
 40
0.0
  9
$CHAMFERC
 40
0.0
  9
$CHAMFERD
 40
0.0
  9
$SKPOLY
 70
0
  9
$TDCREATE
 40
2460908.103125
  9
$TDUCREATE
 40
2458532.153996898
  9
$TDUPDATE
 40
2460908.103125
  9
$TDUUPDATE
 40
2458532.1544311
  9
$TDINDWG
 40
0.0
  9
$TDUSRTIMER
 40
0.0
  9
$USRTIMER
 70
1
  9
$ANGBASE
 50
0.0
  9
$ANGDIR
 70
0
  9
$PDMODE
 70
0
  9
$PDSIZE
 40
0.0
  9
$PLINEWID
 40
0.0
  9
$SPLFRAME
 70
0
  9
$SPLINETYPE
 70
6
  9
$SPLINESEGS
 70
8
  9
$HANDSEED
  5
33
  9
$SURFTAB1
 70
6
  9
$SURFTAB2
 70
6
  9
$SURFTYPE
 70
6
  9
$SURFU
 70
6
  9
$SURFV
 70
6
  9
$UCSBASE
  2

  9
$UCSNAME
  2

  9
$UCSORG
 10
0.0
 20
0.0
 30
0.0
  9
$UCSXDIR
 10
1.0
 20
0.0
 30
0.0
  9
$UCSYDIR
 10
0.0
 20
1.0
 30
0.0
  9
$UCSORTHOREF
  2

  9
$UCSORTHOVIEW
 70
0
  9
$UCSORGTOP
 10
0.0
 20
0.0
 30
0.0
  9
$UCSORGBOTTOM
 10
0.0
 20
0.0
 30
0.0
  9
$UCSORGLEFT
 10
0.0
 20
0.0
 30
0.0
  9
$UCSORGRIGHT
 10
0.0
 20
0.0
 30
0.0
  9
$UCSORGFRONT
 10
0.0
 20
0.0
 30
0.0
  9
$UCSORGBACK
 10
0.0
 20
0.0
 30
0.0
  9
$PUCSBASE
  2

  9
$PUCSNAME
  2

  9
$PUCSORG
 10
0.0
 20
0.0
 30
0.0
  9
$PUCSXDIR
 10
1.0
 20
0.0
 30
0.0
  9
$PUCSYDIR
 10
0.0
 20
1.0
 30
0.0
  9
$PUCSORTHOREF
  2

  9
$PUCSORTHOVIEW
 70
0
  9
$PUCSORGTOP
 10
0.0
 20
0.0
 30
0.0
  9
$PUCSORGBOTTOM
 10
0.0
 20
0.0
 30
0.0
  9
$PUCSORGLEFT
 10
0.0
 20
0.0
 30
0.0
  9
$PUCSORGRIGHT
 10
0.0
 20
0.0
 30
0.0
  9
$PUCSORGFRONT
 10
0.0
 20
0.0
 30
0.0
  9
$PUCSORGBACK
 10
0.0
 20
0.0
 30
0.0
  9
$USERI1
 70
0
  9
$USERI2
 70
0
  9
$USERI3
 70
0
  9
$USERI4
 70
0
  9
$USERI5
 70
0
  9
$USERR1
 40
0.0
  9
$USERR2
 40
0.0
  9
$USERR3
 40
0.0
  9
$USERR4
 40
0.0
  9
$USERR5
 40
0.0
  9
$WORLDVIEW
 70
1
  9
$SHADEDGE
 70
3
  9
$SHADEDIF
 70
70
  9
$TILEMODE
 70
1
  9
$MAXACTVP
 70
64
  9
$PINSBASE
 10
0.0
 20
0.0
 30
0.0
  9
$PLIMCHECK
 70
0
  9
$PEXTMIN
 10
1e+20
 20
1e+20
 30
1e+20
  9
$PEXTMAX
 10
-1e+20
 20
-1e+20
 30
-1e+20
  9
$PLIMMIN
 10
0.0
 20
0.0
  9
$PLIMMAX
 10
420.0
 20
297.0
  9
$UNITMODE
 70
0
  9
$VISRETAIN
 70
1
  9
$PLINEGEN
 70
0
  9
$PSLTSCALE
 70
1
  9
$TREEDEPTH
 70
3020
  9
$CMLSTYLE
  2
Standard
  9
$CMLJUST
 70
0
  9
$CMLSCALE
 40
20.0
  9
$PROXYGRAPHICS
 70
1
  9
$MEASUREMENT
 70
1
  9
$CELWEIGHT
370
-1
  9
$ENDCAPS
280
0
  9
$JOINSTYLE
280
0
  9
$LWDISPLAY
290
0
  9
$INSUNITS
 70
6
  9
$HYPERLINKBASE
  1

  9
$STYLESHEET
  1

  9
$XEDIT
290
1
  9
$CEPSNTYPE
380
0
  9
$PSTYLEMODE
290
1
  9
$FINGERPRINTGUID
  2
{FCE31224-54CB-46B9-8CF0-9AD8CD326FD8}
  9
$VERSIONGUID
  2
{A24A553E-3F7E-4985-AD86-EEE7E4A11BE6}
  9
$EXTNAMES
290
1
  9
$PSVPSCALE
 40
0.0
  9
$OLESTARTUP
290
0
  9
$SORTENTS
280
127
  9
$INDEXCTL
280
0
  9
$HIDETEXT
280
1
  9
$XCLIPFRAME
280
1
  9
$HALOGAP
280
0
  9
$OBSCOLOR
 70
257
  9
$OBSLTYPE
280
0
  9
$INTERSECTIONDISPLAY
280
0
  9
$INTERSECTIONCOLOR
 70
257
  9
$DIMASSOC
280
2
  9
$PROJECTNAME
  1

  9
$CAMERADISPLAY
290
0
  9
$LENSLENGTH
 40
50.0
  9
$CAMERAHEIGHT
 40
0.0
  9
$STEPSPERSEC
 40
24.0
  9
$STEPSIZE
 40
100.0
  9
$3DDWFPREC
 40
2.0
  9
$PSOLWIDTH
 40
0.005
  9
$PSOLHEIGHT
 40
0.08
  9
$LOFTANG1
 40
1.570796326795
  9
$LOFTANG2
 40
1.570796326795
  9
$LOFTMAG1
 40
0.0
  9
$LOFTMAG2
 40
0.0
  9
$LOFTPARAM
 70
7
  9
$LOFTNORMALS
280
1
  9
$LATITUDE
 40
37.795
  9
$LONGITUDE
 40
-122.394
  9
$NORTHDIRECTION
 40
0.0
  9
$TIMEZONE
 70
-8000
  9
$LIGHTGLYPHDISPLAY
280
1
  9
$TILEMODELIGHTSYNCH
280
1
  9
$CMATERIAL
347
20
  9
$SOLIDHIST
280
0
  9
$SHOWHIST
280
1
  9
$DWFFRAME
280
2
  9
$DGNFRAME
280
2
  9
$REALWORLDSCALE
290
1
  9
$INTERFERECOLOR
 62
256
  9
$CSHADOW
280
0
  9
$SHADOWPLANELOCATION
 40
0.0
  0
ENDSEC
  0
SECTION
  2
CLASSES
  0
CLASS
  1
ACDBDICTIONARYWDFLT
  2
AcDbDictionaryWithDefault
  3
ObjectDBX Classes
 90
0
 91
0
280
0
281
0
  0
CLASS
  1
SUN
  2
AcDbSun
  3
SCENEOE
 90
1153
 91
0
280
0
281
0
  0
CLASS
  1
VISUALSTYLE
  2
AcDbVisualStyle
  3
ObjectDBX Classes
 90
4095
 91
0
280
0
281
0
  0
CLASS
  1
MATERIAL
  2
AcDbMaterial
  3
ObjectDBX Classes
 90
1153
 91
0
280
0
281
0
  0
CLASS
  1
SCALE
  2
AcDbScale
  3
ObjectDBX Classes
 90
1153
 91
0
280
0
281
0
  0
CLASS
  1
TABLESTYLE
  2
AcDbTableStyle
  3
ObjectDBX Classes
 90
4095
 91
0
280
0
281
0
  0
CLASS
  1
MLEADERSTYLE
  2
AcDbMLeaderStyle
  3
ACDB_MLEADERSTYLE_CLASS
 90
4095
 91
0
280
0
281
0
  0
CLASS
  1
DICTIONARYVAR
  2
AcDbDictionaryVar
  3
ObjectDBX Classes
 90
0
 91
0
280
0
281
0
  0
CLASS
  1
CELLSTYLEMAP
  2
AcDbCellStyleMap
  3
ObjectDBX Classes
 90
1152
 91
0
280
0
281
0
  0
CLASS
  1
MENTALRAYRENDERSETTINGS
  2
AcDbMentalRayRenderSettings
  3
SCENEOE
 90
1024
 91
0
280
0
281
0
  0
CLASS
  1
ACDBDETAILVIEWSTYLE
  2
AcDbDetailViewStyle
  3
ObjectDBX Classes
 90
1025
 91
0
280
0
281
0
  0
CLASS
  1
ACDBSECTIONVIEWSTYLE
  2
AcDbSectionViewStyle
  3
ObjectDBX Classes
 90
1025
 91
0
280
0
281
0
  0
CLASS
  1
RASTERVARIABLES
  2
AcDbRasterVariables
  3
ISM
 90
0
 91
0
280
0
281
0
  0
CLASS
  1
LAYOUT
  2
AcDbLayout
  3
ObjectDBX Classes
 90
0
 91
0
280
0
281
0
  0
CLASS
  1
ACDBPLACEHOLDER
  2
AcDbPlaceHolder
  3
ObjectDBX Classes
 90
0
 91
0
280
0
281
0
  0
ENDSEC
  0
SECTION
  2
TABLES
  0
TABLE
  2
VPORT
  5
8
330
0
100
AcDbSymbolTable
 70
1
  0
VPORT
  5
23
330
8
100
AcDbSymbolTableRecord
100
AcDbViewportTableRecord
  2
*Active
 70
0
 10
0.0
 20
0.0
 11
1.0
 21
1.0
 12
0.0
 22
0.0
 13
0.0
 23
0.0
 14
0.5
 24
0.5
 15
0.5
 25
0.5
 16
0.0
 26
0.0
 36
1.0
 17
0.0
 27
0.0
 37
0.0
 40
1000.0
 41
1.34
 42
50.0
 43
0.0
 44
0.0
 50
0.0
 51
0.0
 71
0
 72
1000
 73
1
 74
3
 75
0
 76
0
 77
0
 78
0
281
0
 65
0
146
0.0
  0
ENDTAB
  0
TABLE
  2
LTYPE
  5
2
330
0
100
AcDbSymbolTable
 70
3
  0
LTYPE
  5
24
330
2
100
AcDbSymbolTableRecord
100
AcDbLinetypeTableRecord
  2
ByBlock
 70
0
  3

 72
65
 73
0
 40
0.0
  0
LTYPE
  5
25
330
2
100
AcDbSymbolTableRecord
100
AcDbLinetypeTableRecord
  2
ByLayer
 70
0
  3

 72
65
 73
0
 40
0.0
  0
LTYPE
  5
26
330
2
100
AcDbSymbolTableRecord
100
AcDbLinetypeTableRecord
  2
Continuous
 70
0
  3

 72
65
 73
0
 40
0.0
  0
ENDTAB
  0
TABLE
  2
LAYER
  5
1
330
0
100
AcDbSymbolTable
 70
2
  0
LAYER
  5
27
330
1
100
AcDbSymbolTableRecord
100
AcDbLayerTableRecord
  2
0
 70
0
 62
7
  6
Continuous
370
-3
390
13
347
21
  0
LAYER
  5
28
330
1
100
AcDbSymbolTableRecord
100
AcDbLayerTableRecord
  2
Defpoints
 70
0
 62
7
  6
Continuous
290
0
370
-3
390
13
347
21
  0
ENDTAB
  0
TABLE
  2
STYLE
  5
5
330
0
100
AcDbSymbolTable
 70
1
  0
STYLE
  5
29
330
5
100
AcDbSymbolTableRecord
100
AcDbTextStyleTableRecord
  2
Standard
 70
0
 40
0.0
 41
1.0
 50
0.0
 71
0
 42
2.5
  3
txt
  4

  0
ENDTAB
  0
TABLE
  2
VIEW
  5
7
330
0
100
AcDbSymbolTable
 70
0
  0
ENDTAB
  0
TABLE
  2
UCS
  5
6
330
0
100
AcDbSymbolTable
 70
0
  0
ENDTAB
  0
TABLE
  2
APPID
  5
3
330
0
100
AcDbSymbolTable
 70
3
  0
APPID
  5
2A
330
3
100
AcDbSymbolTableRecord
100
AcDbRegAppTableRecord
  2
ACAD
 70
0
  0
APPID
  5
30
330
3
100
AcDbSymbolTableRecord
100
AcDbRegAppTableRecord
  2
HATCHBACKGROUNDCOLOR
 70
0
  0
APPID
  5
31
330
3
100
AcDbSymbolTableRecord
100
AcDbRegAppTableRecord
  2
EZDXF
 70
0
  0
ENDTAB
  0
TABLE
  2
DIMSTYLE
  5
4
330
0
100
AcDbSymbolTable
 70
1
100
AcDbDimStyleTable
  0
DIMSTYLE
105
2B
330
4
100
AcDbSymbolTableRecord
100
AcDbDimStyleTableRecord
  2
Standard
 70
0
 40
1.0
 41
2.5
 42
0.625
 43
3.75
 44
1.25
 45
0.0
 46
0.0
 47
0.0
 48
0.0
 49
2.5
140
2.5
141
2.5
142
0.0
143
0.03937007874
144
1.0
145
0.0
146
1.0
147
0.625
148
0.0
 69
0
 70
0
 71
0
 72
0
 73
0
 74
0
 75
0
 76
0
 77
1
 78
8
 79
3
170
0
171
3
172
1
173
0
174
0
175
0
176
0
177
0
178
0
179
2
271
2
272
2
273
2
274
3
275
0
276
0
277
2
278
44
279
0
280
0
281
0
282
0
283
0
284
8
285
0
286
0
288
0
289
3
290
0
371
-2
372
-2
  0
ENDTAB
  0
TABLE
  2
BLOCK_RECORD
  5
9
330
0
100
AcDbSymbolTable
 70
2
  0
BLOCK_RECORD
  5
17
330
9
100
AcDbSymbolTableRecord
100
AcDbBlockTableRecord
  2
*Model_Space
340
1A
 70
0
280
1
281
0
  0
BLOCK_RECORD
  5
1B
330
9
100
AcDbSymbolTableRecord
100
AcDbBlockTableRecord
  2
*Paper_Space
340
1E
 70
0
280
1
281
0
  0
ENDTAB
  0
ENDSEC
  0
SECTION
  2
BLOCKS
  0
BLOCK
  5
18
330
17
100
AcDbEntity
  8
0
100
AcDbBlockBegin
  2
*Model_Space
 70
0
 10
0.0
 20
0.0
 30
0.0
  3
*Model_Space
  1

  0
ENDBLK
  5
19
330
17
100
AcDbEntity
  8
0
100
AcDbBlockEnd
  0
BLOCK
  5
1C
330
1B
100
AcDbEntity
  8
0
100
AcDbBlockBegin
  2
*Paper_Space
 70
0
 10
0.0
 20
0.0
 30
0.0
  3
*Paper_Space
  1

  0
ENDBLK
  5
1D
330
1B
100
AcDbEntity
  8
0
100
AcDbBlockEnd
  0
ENDSEC
  0
SECTION
  2
ENTITIES
  0
LWPOLYLINE
  5
2F
330
17
100
AcDbEntity
  8
0
100
AcDbPolyline
 90
721
 70
1
 10
32.917583349579964
 20
0.6976651581737991
 10
32.91664376048953
 20
0.6979832831139937
 10
32.913826770491916
 20
0.6988392926763192
 10
32.9091359279203
 20
0.7000368002787296
 10
32.90252033532159
 20
0.7016725464279412
 10
32.89408090251612
 20
0.703602036205668
 10
32.88376761891217
 20
0.7058729257564883
 10
32.8715322458652
 20
0.7084348007676973
 10
32.85747303349921
 20
0.7112903702739254
 10
32.841541743169714
 20
0.714389219962468
 10
32.82368747476032
 20
0.7178282377405275
 10
32.80401025389329
 20
0.721511865651469
 10
32.78246095328724
 20
0.725438872011716
 10
32.75903868519306
 20
0.7296583903169016
 10
32.73374522510895
 20
0.7340721535757594
 10
32.70657879576121
 20
0.7387785270465469
 10
32.677589410404835
 20
0.7437297071841988
 10
32.64672794175844
 20
0.7489244623051389
 10
32.613993502072915
 20
0.7544119259049998
 10
32.579436990576866
 20
0.7600952592100747
 10
32.54300750537845
 20
0.7660714483945575
 10
32.5047068210881
 20
0.7722422756006774
 10
32.46463141144392
 20
0.7787087659878278
 10
32.42263478767734
 20
0.7854177962086722
 10
32.37886432364276
 20
0.7923735035154007
 10
32.333221768328414
 20
0.7995732280068776
 10
32.285756244576966
 20
0.807018447034158
 10
32.23646775150064
 20
0.8147092097307371
 10
32.18535540046259
 20
0.8226946987257441
 10
32.13241918879955
 20
0.8309750614196656
 10
32.077660891122
 20
0.8394520799547308
 10
32.02107873104399
 20
0.8482240704557019
 10
31.962722718269532
 20
0.8572434259114964
 10
31.90254283954357
 20
0.8665579498671786
 10
31.84054086681337
 20
0.8760695718654657
 10
31.77676415008661
 20
0.8858778888481915
 10
31.71121179895091
 20
0.8960321817114759
 10
31.643886474878098
 20
0.9063851482354108
 10
31.574737274200835
 20
0.9170338728611817
 10
31.50386333479225
 20
0.9279319311277864
 10
31.43116551522822
 20
0.9391259440302095
 10
31.35674206474502
 20
0.9506186697365783
 10
31.2805438551735
 20
0.9624089256968111
 10
31.202620010244075
 20
0.9744981401284676
 10
31.122922289536703
 20
0.9868359969858335
 10
31.041499816781776
 20
0.9994239244864673
 10
30.958301688311934
 20
1.0123590070715554
 10
30.87342704111259
 20
1.025594869413591
 10
30.78682674701459
 20
1.039130328962493
 10
30.69850080424243
 20
1.052965483985253
 10
30.608449208357378
 20
1.067100580149349
 10
30.516720197116218
 20
1.0815860809009823
 10
30.42326552832341
 20
1.0963717684614298
 10
30.328133438847985
 20
1.1115081554103876
 10
30.231324812000327
 20
1.1269463539197018
 10
30.132841422390886
 20
1.1425881461316005
 10
30.032730616476343
 20
1.1585333255219008
 10
29.930941491477093
 20
1.1748789273982927
 10
29.827474042954393
 20
1.191625197428255
 10
29.72238005877371
 20
1.20862611420895
 10
29.61565864763493
 20
1.2259310077699948
 10
29.507309807762567
 20
1.2435399763783794
 10
29.397330871470558
 20
1.2616006661884827
 10
29.285726274841167
 20
1.2798675571226252
 10
29.172543366106602
 20
1.2984403443896322
 10
29.057781254854483
 20
1.3173683088856236
 10
28.941389924278834
 20
1.336699450689648
 10
28.823468510477294
 20
1.356387443607694
 10
28.703968772142073
 20
1.3763820207275435
 10
28.58289070749768
 20
1.3966832803161873
 10
28.460281663000796
 20
1.4173910158494432
 10
28.336145186096843
 20
1.438308889878759
 10
28.210430374006233
 20
1.4595339377118266
 10
28.083234586440636
 20
1.481118149279396
 10
27.9545578207368
 20
1.5030616719819543
 10
27.824352724223818
 20
1.5252650562781545
 10
27.692618404713823
 20
1.547777681331108
 10
27.55945311144309
 20
1.5706023053089413
 10
27.424805939856544
 20
1.5938360617863359
 10
27.288679550538244
 20
1.6173316976768786
 10
27.151123066330825
 20
1.6410906903316238
 10
27.012136484571055
 20
1.6651131871510596
 10
26.871718025321968
 20
1.6894977007939298
 10
26.729867685920315
 20
1.7142443786607209
 10
26.58658635145196
 20
1.739304234656287
 10
26.441973158902297
 20
1.764630893453122
 10
26.29592896418393
 20
1.7902711234466968
 10
26.14850289102726
 20
1.8162263528545708
 10
25.999746726410002
 20
1.8423506094074036
 10
25.84961045175066
 20
1.8686919914512332
 10
25.698140527532306
 20
1.8953993276905194
 10
25.545386077485333
 20
1.9224740463428212
 10
25.391250619881937
 20
1.9498155644502058
 10
25.235835068981206
 20
1.977279141426909
 10
25.079135870235735
 20
2.005061507789446
 10
24.921153908731366
 20
2.0331136774426706
 10
24.761888293168003
 20
2.061484980416199
 10
24.6013899218865
 20
2.090078627069819
 10
24.439658793111366
 20
2.1188947156705216
 10
24.276645776010213
 20
2.1479322110687127
 10
24.112448232957956
 20
2.177242955794658
 10
23.947017034897726
 20
2.20682581643177
 10
23.780403081058125
 20
2.236583954206344
 10
23.612606367888144
 20
2.2665175656523604
 10
23.443676020005938
 20
2.2966280298538835
 10
23.273562018830017
 20
2.3269634451569527
 10
23.102311713480283
 20
2.357623457636896
 10
22.929878635483956
 20
2.3884596807907186
 10
22.75640927804833
 20
2.4195249922982764
 10
22.581808934056067
 20
2.450620591343867
 10
22.406076711319294
 20
2.4817958570906002
 10
22.22930819937799
 20
2.513200751659522
 10
22.05150250693205
 20
2.5448846050802474
 10
21.872564040002764
 20
2.57669770089921
 10
21.69269108143841
 20
2.6085467971264413
 10
21.511737133592927
 20
2.640379261749561
 10
21.32979778423077
 20
2.6723451551566035
 10
21.146823015658214
 20
2.704492526560114
 10
20.96291196841163
 20
2.7367748040986024
 10
20.778018175793704
 20
2.7690435030020795
 10
20.59218898692437
 20
2.8013982693458748
 10
20.40542262275441
 20
2.833937566655238
 10
20.217723520253866
 20
2.866415825718994
 10
20.029092564508602
 20
2.898784060441996
 10
19.839623569560356
 20
2.931290499936555
 10
19.64921916504447
 20
2.963883743873867
 10
19.457976715999095
 20
2.996615487383709
 10
19.265901547143407
 20
3.029191027759274
 10
19.072992768065024
 20
3.0616596458966807
 10
18.879248601490254
 20
3.0941197070541886
 10
18.684666379733006
 20
3.1267188573861735
 10
18.48934791012801
 20
3.159262928010266
 10
18.293198482894667
 20
3.1915532655112475
 10
18.09636281929306
 20
3.2237408180262626
 10
17.898738219800638
 20
3.2560691336007928
 10
17.70037736358297
 20
3.2883428608023855
 10
17.50128379719773
 20
3.3203657113159872
 10
17.301554002372736
 20
3.352238268099529
 10
17.101088830581865
 20
3.3840075452159613
 10
16.899985649526528
 20
3.4157250903945746
 10
16.69819621612345
 20
3.447340734990142
 10
16.495771433152235
 20
3.4787574436949735
 10
16.292760427894272
 20
3.509976448192645
 10
16.089114068629417
 20
3.5409967624670577
 10
15.88493061258371
 20
3.5718207024848785
 10
15.680111798980118
 20
3.602446148813424
 10
15.474754107770973
 20
3.632973782677618
 10
15.26885842759311
 20
3.663354421448331
 10
15.062429193641075
 20
3.6933425941813804
 10
14.855464628641164
 20
3.7230366661350223
 10
14.648062102958031
 20
3.7524880376380616
 10
14.440122468065551
 20
3.781743722753447
 10
14.23174575668797
 20
3.8107077704565797
 10
14.022932855686642
 20
3.8393310963853207
 10
13.81368465192293
 20
3.8675646161775323
 10
13.603999366347608
 20
3.895506793358465
 10
13.393925242043979
 20
3.9232077965733434
 10
13.183462276348772
 20
3.9506677732226567
 10
12.97266226156621
 20
3.977740456236089
 10
12.761476954613014
 20
4.004375676968414
 10
12.549956371407422
 20
4.030525484474079
 10
12.338146978646753
 20
4.056338363523074
 10
12.125996981363551
 20
4.081960728586199
 10
11.913606414945308
 20
4.107296481238367
 10
11.700933250552485
 20
4.13195151836492
 10
11.487972159027201
 20
4.156220788340141
 10
11.274820515172868
 20
4.180155445825357
 10
11.06143096099207
 20
4.203656336080198
 10
10.84780438512165
 20
4.226674276475528
 10
10.634036383315829
 20
4.249358885197927
 10
10.42007871426681
 20
4.271659895335174
 10
10.205983169391065
 20
4.293431088950451
 10
9.9917006178562
 20
4.3146714308941645
 10
9.777328434465634
 20
4.335432075827639
 10
9.562865729694762
 20
4.355762255513501
 10
9.34831516767865
 20
4.375514520331352
 10
9.133675858892694
 20
4.394738102043818
 10
8.918996047307926
 20
4.413483120162631
 10
8.704223938844635
 20
4.431895940025097
 10
8.489463121662235
 20
4.449683830956603
 10
8.274713595760728
 20
4.46684679295715
 10
8.059974474278754
 20
4.483433910388876
 10
7.8452448676917115
 20
4.4994944150144045
 10
7.630574797244336
 20
4.5149800610872095
 10
7.415914243467384
 20
4.529938996086827
 10
7.201362356662493
 20
4.544324107683313
 10
6.986920913215618
 20
4.558037079751909
 10
6.7725890253776555
 20
4.571127045788247
 10
6.558365806287243
 20
4.583643090154463
 10
6.3442521436934936
 20
4.595536079354925
 10
6.1303480783103845
 20
4.606709620163573
 10
5.916602702031822
 20
4.61726104268907
 10
5.703063372855223
 20
4.627289501671788
 10
5.489685397805985
 20
4.6365483436174655
 10
5.276565265713916
 20
4.645137758416066
 10
5.063700315994946
 20
4.6532049991540045
 10
4.851044078400753
 20
4.660601777595275
 10
4.638696595420829
 20
4.667231602246823
 10
4.426656092444702
 20
4.673192690966422
 10
4.2148752123627
 20
4.678385839880202
 10
4.00345044666788
 20
4.682911091477642
 10
3.7923344391383242
 20
4.686669192751378
 10
3.581624568128436
 20
4.6897111018287525
 10
3.371219906950624
 20
4.692182247164471
 10
3.161220498094373
 20
4.693986137265478
 10
2.9516298925561117
 20
4.694926238149241
 10
2.7424472052499733
 20
4.695051535910908
 10
2.533718905536531
 20
4.694510367919982
 10
2.325445884715882
 20
4.693253404146843
 10
2.1176290314248827
 20
4.691231461962367
 10
1.910317480046916
 20
4.688445379982162
 10
1.703460322475886
 20
4.684992488314894
 10
1.4971049202602027
 20
4.680971745166953
 10
1.2913039578919345
 20
4.676187504304911
 10
1.0860592126447906
 20
4.670541400470515
 10
0.8813689116838004
 20
4.664131553254539
 10
0.6772813824284157
 20
4.657003463620131
 10
0.4737476351983513
 20
4.649148284191886
 10
0.2708159184033844
 20
4.640615888814061
 10
0.06853447779004228
 20
4.631456298731394
 10
-0.13314226914088462
 20
4.621472092212247
 10
-0.3341651888937554
 20
4.610664157005725
 10
-0.5344895867184816
 20
4.599279048339102
 10
-0.7341628206124762
 20
4.587217611472005
 10
-0.9330857358353678
 20
4.574432488407014
 10
-1.1313565993784225
 20
4.560921903645916
 10
-1.328877144250371
 20
4.5466876326869246
 10
-1.5256000124537983
 20
4.531828830270412
 10
-1.7216243587290758
 20
4.5163928543938
 10
-1.9168966108350363
 20
4.500134925328026
 10
-2.111323828275054
 20
4.483351619545106
 10
-2.304956920042976
 20
4.466140316287199
 10
-2.4978396931397957
 20
4.4482053268314
 10
-2.689824747078611
 20
4.429549314425027
 10
-2.880963878602379
 20
4.4103187918058735
 10
-3.0712579754602034
 20
4.390562892469574
 10
-3.2607052621538704
 20
4.370183349424862
 10
-3.4492083594412226
 20
4.349231071665582
 10
-3.636865534313525
 20
4.327704283693525
 10
-3.823581183026835
 20
4.3057521614938
 10
-4.009353530082935
 20
4.283276438075143
 10
-4.19418168773272
 20
4.26022797994192
 10
-4.3780665437252955
 20
4.236655920589765
 10
-4.560960740063245
 20
4.21265941475905
 10
-4.742913410242198
 20
4.188237574700669
 10
-4.923824511772675
 20
4.1632939089215695
 10
-5.103694044654678
 20
4.137828417421751
 10
-5.282570254634733
 20
4.111791078956475
 10
-5.460404895966313
 20
4.085231914770479
 10
-5.637200631896738
 20
4.058298325350665
 10
-5.812909216679483
 20
4.031040331941771
 10
-5.987527099318118
 20
4.003261400561266
 10
-6.161103413308279
 20
3.9749606434600437
 10
-6.333489870413959
 20
3.9460915903897886
 10
-6.504787400873743
 20
3.91679986633919
 10
-6.674996892436741
 20
3.887134604803878
 10
-6.844020078111685
 20
3.857097581282069
 10
-7.011856070149468
 20
3.826639662278129
 10
-7.178551338798401
 20
3.795612559556051
 10
-7.3440603015592805
 20
3.764213694847475
 10
-7.508385621679429
 20
3.732590468639301
 10
-7.671473726917677
 20
3.7004981012024696
 10
-7.833373750769654
 20
3.667935704787874
 10
-7.993989201742312
 20
3.6350033218849944
 10
-8.153369213331285
 20
3.601700064744723
 10
-8.311514673285677
 20
3.5680750668626953
 10
-8.468373784862532
 20
3.5339818155011167
 10
-8.623948323560068
 20
3.499518577651254
 10
-8.778238289378287
 20
3.4646853533131075
 10
-8.931247233313606
 20
3.4296786764692104
 10
-9.082876000625665
 20
3.394451189122143
 10
-9.233220195058403
 20
3.3588537152867914
 10
-9.382228907617971
 20
3.322788875720997
 10
-9.529856555805173
 20
3.286454092156399
 10
-9.676154048613842
 20
3.2499467438351566
 10
-9.821068701551926
 20
3.2130711845238444
 10
-9.964553156622005
 20
3.175926568962837
 10
-10.106706568564453
 20
3.1385602551495517
 10
-10.247430670387997
 20
3.1009740185822032
 10
-10.386722798845327
 20
3.0630204587738916
 10
-10.524585617183753
 20
3.0248469762115175
 10
-10.66102001315239
 20
2.9865027043907126
 10
-10.796025099002126
 20
2.9479385098158453
 10
-10.92955174123733
 20
2.909155280236022
 10
-11.061599052108896
 20
2.870103882155609
 10
-11.192217052861563
 20
2.8308325613211327
 10
-11.321307476504062
 20
2.791343093230807
 10
-11.44887209853461
 20
2.751733744875899
 10
-11.575007410446261
 20
2.7119044737669284
 10
-11.699566011752113
 20
2.6718579431512146
 10
-11.822596148198693
 20
2.631544131784019
 10
-11.944101370782427
 20
2.591159573647874
 10
-12.064081679503316
 20
2.5507042687427792
 10
-12.182486165367514
 20
2.5100808378265764
 10
-12.299313940625911
 20
2.469240147403631
 10
-12.414613251025038
 20
2.428132176229203
 10
-12.52829026831916
 20
2.387004367279673
 10
-12.640393238254807
 20
2.3458066993103004
 10
-12.750920385333758
 20
2.3044409053298196
 10
-12.859822576060386
 20
2.2629078730873355
 10
-12.967101585932905
 20
2.221305869574117
 10
-13.072755639453096
 20
2.1795366277988966
 10
-13.17678562437007
 20
2.1376492812573074
 10
-13.279192428432932
 20
2.095692963444983
 10
-13.379925142647837
 20
2.053570295119764
 10
-13.478986430262104
 20
2.011428676768549
 10
-13.57642187377494
 20
1.9690706866596994
 10
-13.672185890687139
 20
1.9266937465248544
 10
-13.76627759324959
 20
1.8842487228683817
 10
-13.858696093713194
 20
1.8416864821946464
 10
-13.949392258582312
 20
1.799007912252757
 10
-14.038416109101684
 20
1.7562612587892388
 10
-14.125721175023005
 20
1.7135948100400993
 10
-14.211305680848051
 20
1.6709102990140714
 10
-14.295169626576826
 20
1.6282077257111554
 10
-14.377363033454074
 20
1.5855353358778774
 10
-14.457786746739414
 20
1.5428457715168185
 10
-14.5364916754267
 20
1.5002364118701381
 10
-14.613430461518508
 20
1.4578064116782092
 10
-14.688652238510477
 20
1.4155548831919251
 10
-14.762106097408754
 20
1.3733844471691263
 10
-14.833842059458082
 20
1.331343349356339
 10
-14.903761857667194
 20
1.289433365251778
 10
-14.971965534525571
 20
1.2477509863484944
 10
-15.038355710791052
 20
1.2063471216403363
 10
-15.10297974446106
 20
1.1651226163869295
 10
-15.165837635535588
 20
1.1240774705882752
 10
-15.226929384014644
 20
1.0832116842443724
 10
-15.286207631900805
 20
1.0426244120955952
 10
-15.34367237919407
 20
1.0023156541419431
 10
-15.39937009614275
 20
0.9621371221474095
 10
-15.453254312498537
 20
0.9222371043480012
 10
-15.505321477265001
 20
0.8824190667611854
 10
-15.55557514143857
 20
0.842879543369495
 10
-15.604011754022816
 20
0.8034220001903966
 10
-15.650633090515953
 20
0.7641447042151575
 10
-15.69543915091798
 20
0.7250476554437767
 10
-15.73837991398416
 20
0.6860826081297288
 10
-15.779555422203966
 20
0.6473460537660657
 10
-15.81881561184319
 20
0.6086932551132093
 10
-15.856309658886934
 20
0.5702198159151044
 10
-15.891938408594832
 20
0.5318783781743321
 10
-15.925704524214199
 20
0.49381634237779237
 10
-15.957655363742457
 20
0.45593455378511133
 10
-15.987742681433076
 20
0.41828303364102937
 10
-16.015970028282496
 20
0.3810583159280793
 10
-16.042383874539013
 20
0.34411211241025463
 10
-16.066936862205225
 20
0.30754357782792885
 10
-16.08963076677933
 20
0.27145097917236827
 10
-16.110469139257763
 20
0.23603085042610608
 10
-16.129451979640525
 20
0.20128319158914196
 10
-16.146630196921464
 20
0.16730538190363567
 10
-16.161909962854846
 20
0.13434486434596726
 10
-16.17534396193273
 20
0.10259728514956289
 10
-16.18699020514182
 20
0.07255309152164781
 10
-16.19675663973461
 20
0.04455799342986879
 10
-16.20470660319243
 20
0.019397239055250697
 10
-16.21090343299663
 20
-0.0021439234211816055
 10
-16.215270168134513
 20
-0.018884514606016114
 10
-16.21787813582939
 20
-0.02959708485752905
 10
-16.213138067703568
 20
-0.34362612268261755
 10
-16.212159256082078
 20
-0.34611506372687995
 10
-16.209223708966718
 20
-0.3535327533640336
 10
-16.204334977353916
 20
-0.365682657611546
 10
-16.197428836013223
 20
-0.3833991581460748
 10
-16.188584909204646
 20
-0.40771583387413224
 10
-16.177800226386132
 20
-0.4360768552736829
 10
-16.165053174284356
 20
-0.4669581962309891
 10
-16.150453560628975
 20
-0.4997228968010326
 10
-16.133970894655608
 20
-0.5333382658264084
 10
-16.115564032610575
 20
-0.5673612140973102
 10
-16.09533568023069
 20
-0.6015478496337859
 10
-16.07324025501674
 20
-0.6357007507041956
 10
-16.04928130796516
 20
-0.6696233833260063
 10
-16.023460614574148
 20
-0.7032174805079513
 10
-15.995778174843721
 20
-0.7364830422500307
 10
-15.966284010018612
 20
-0.7693718228057185
 10
-15.934930762101406
 20
-0.8017846674346409
 10
-15.901717543342992
 20
-0.8337707096324314
 10
-15.866694374988107
 20
-0.8652817036525634
 10
-15.829810348042907
 20
-0.8964150287371968
 10
-15.791066350256504
 20
-0.9271215513906979
 10
-15.750562424118371
 20
-0.9573047801200146
 10
-15.708148505894293
 20
-0.9871094521647257
 10
-15.663972883820275
 20
-1.0164890972765184
 10
-15.617936403155941
 20
-1.0454910734528127
 10
-15.570089085146035
 20
-1.0740671349470816
 10
-15.52043181753966
 20
-1.1021681482636925
 10
-15.468961937089498
 20
-1.1299415138895446
 10
-15.415681219293761
 20
-1.157288964833372
 10
-15.360586113156023
 20
-1.1844070350777072
 10
-15.303679281923605
 20
-1.2111483241356504
 10
-15.245008083593925
 20
-1.2376119867475754
 10
-15.18452338467135
 20
-1.263797135164375
 10
-15.122223409657662
 20
-1.2898020363773162
 10
-15.058158179797609
 20
-1.315578444639872
 10
-14.99232680734208
 20
-1.341175493447676
 10
-14.924729292291074
 20
-1.3665931828007283
 10
-14.855313837901637
 20
-1.3919780254368215
 10
-14.784179598914147
 20
-1.417282663358536
 10
-14.711229196086437
 20
-1.4424561875720252
 10
-14.636560896409783
 20
-1.467500373575503
 10
-14.560123790890326
 20
-1.4925126006111284
 10
-14.481967013023711
 20
-1.5174937564280087
 10
-14.402042317063403
 20
-1.5423938197814038
 10
-14.320400612003256
 20
-1.5671154114291541
 10
-14.23699187659852
 20
-1.591706777117786
 10
-14.151913490091365
 20
-1.6162188258411465
 10
-14.065116318986155
 20
-1.6406506698501282
 10
-13.976600363282884
 20
-1.6650023091447321
 10
-13.886368286228882
 20
-1.6891263432380577
 10
-13.794469221319774
 20
-1.7130236598792123
 10
-13.700854035059933
 20
-1.7366933713190889
 10
-13.605570085446775
 20
-1.7602346322980607
 10
-13.508617372480298
 20
-1.7836474428161284
 10
-13.409999447156936
 20
-1.8067352688907583
 10
-13.309763667474106
 20
-1.829597265262324
 10
-13.20786178768528
 20
-1.8521834106860855
 10
-13.10429292004135
 20
-1.874542838657676
 10
-12.999106198037952
 20
-1.8966764369262021
 10
-12.89230250942419
 20
-1.9185350719960315
 10
-12.783880966450962
 20
-1.9401678773627966
 10
-12.673841569118265
 20
-1.9615748530264974
 10
-12.562185205175204
 20
-1.9827068654915008
 10
-12.448960120368307
 20
-2.0036139360025476
 10
-12.334166314697576
 20
-2.0242960645596373
 10
-12.217755542416482
 20
-2.0447032299180297
 10
-12.09982429501808
 20
-2.064935474567205
 10
-11.98032432675584
 20
-2.084942777262423
 10
-11.859254749880657
 20
-2.104774271499318
 10
-11.736665585637276
 20
-2.124381711531363
 10
-11.61255949727301
 20
-2.1436176968716576
 10
-11.48693382154054
 20
-2.162629628007102
 10
-11.359737649446021
 20
-2.181514884179856
 10
-11.231119269225461
 20
-2.2002269951416076
 10
-11.100982189385805
 20
-2.218665918402875
 10
-10.969327297676159
 20
-2.2367825204680267
 10
-10.836251085589579
 20
-2.2546768438265423
 10
-10.701703531881321
 20
-2.2723971342249483
 10
-10.565686412049603
 20
-2.2898451246719778
 10
-10.428248859590052
 20
-2.3070217029167375
 10
-10.289391762251782
 20
-2.3238777354635953
 10
-10.149112456787467
 20
-2.3405606227994498
 10
-10.007412718695326
 20
-2.3569720979330357
 10
-9.864290772477139
 20
-2.3732104278556183
 10
-9.719847548371497
 20
-2.3891299875785124
 10
-9.573983891638028
 20
-2.4047781350991375
 10
-9.426748935772363
 20
-2.4201557581666
 10
-9.278190926521024
 20
-2.4353128780256403
 10
-9.1282625058866
 20
-2.4501503399358855
 10
-8.977011031866507
 20
-2.4647672986377085
 10
-8.824486525705481
 20
-2.4791155083845826
 10
-8.670592495910478
 20
-2.493094926687029
 10
-8.515427209472758
 20
-2.50670732904326
 10
-8.358988003145
 20
-2.520100115940176
 10
-8.20127487692721
 20
-2.533273287377777
 10
-8.04228783081938
 20
-2.5462268433560635
 10
-7.882078661564465
 20
-2.558814271137242
 10
-7.720649144660687
 20
-2.570937303730046
 10
-7.557946595615979
 20
-2.5827915873679013
 10
-7.394069281421606
 20
-2.594378897549023
 10
-7.228969844080151
 20
-2.6056000795330365
 10
-7.062699192585463
 20
-2.6163577540777836
 10
-6.89525466369022
 20
-2.6267993216701617
 10
-6.726683615391839
 20
-2.6370239370505466
 10
-6.5569386896929025
 20
-2.646932445478564
 10
-6.386022549840731
 20
-2.656377446467314
 10
-6.214031687328378
 20
-2.665458982506278
 10
-6.040965214406733
 20
-2.674226187091088
 10
-5.866724864084535
 20
-2.6826772847235305
 10
-5.691458924597787
 20
-2.6907658051552925
 10
-5.515120037949069
 20
-2.698392593646002
 10
-5.337708204138387
 20
-2.705557650195658
 10
-5.159271668912258
 20
-2.712310996049001
 10
-4.979805993525154
 20
-2.718898298684197
 10
-4.799362974720027
 20
-2.7251730453634546
 10
-4.617897029997674
 20
-2.7309378143551317
 10
-4.435407271608984
 20
-2.736241739154863
 10
-4.251991966545225
 20
-2.7410865952608616
 10
-4.067598430314335
 20
-2.7456680289065543
 10
-3.882277571910165
 20
-2.7498886608497815
 10
-3.696029391332711
 20
-2.753748491090542
 10
-3.508855664080188
 20
-2.757149252637571
 10
-3.320755502403491
 20
-2.760140078986501
 10
-3.1318253977956707
 20
-2.7628210126268127
 10
-2.941968858763676
 20
-2.765092011069025
 10
-2.751285927796984
 20
-2.7668565828200857
 10
-2.559775717146489
 20
-2.7681638613756285
 10
-2.3674373390630867
 20
-2.769062980231286
 10
-2.1742225478002477
 20
-2.7695039181423184
 10
-1.9802805193430895
 20
-2.7693910713647805
 10
-1.7855630079450815
 20
-2.768674418653931
 10
-1.5900155536159504
 20
-2.7676478732344636
 10
-1.39373731109607
 20
-2.766264077108958
 10
-1.1967827403757152
 20
-2.764229117052722
 10
-0.9990509112163002
 20
-2.761688618054442
 10
-0.8005900693643468
 20
-2.7586926013588577
 10
-0.6015002573093388
 20
-2.755144575472917
 10
-0.40168409580911674
 20
-2.7509936314027716
 10
-0.20123985185494514
 20
-2.7462415446466366
 10
-0.00011484095476908891
 20
-2.7410839614379383
 10
0.20164002789757401
 20
-2.7354235025345157
 10
0.4039711824609083
 20
-2.7290153882073107
 10
0.6069304194781922
 20
-2.722006131194116
 10
0.8104721564502197
 20
-2.714593153226571
 10
1.01454459929728
 20
-2.70663008896737
 10
1.219196137581262
 20
-2.698074876798066
 10
1.424379494977657
 20
-2.68903119174063
 10
1.6300911231532873
 20
-2.6793026472130164
 10
1.836331023883655
 20
-2.6688893414822155
 10
2.0430536146695473
 20
-2.6579886962798693
 10
2.2502106533154405
 20
-2.646650929384699
 10
2.4578503864556067
 20
-2.63482606868546
 10
2.6659210182348416
 20
-2.6223676505778557
 10
2.874424325039106
 20
-2.6093739911866476
 10
3.0833603104194056
 20
-2.595845287045819
 10
3.292679839992346
 20
-2.581782376770981
 10
3.5023802531738597
 20
-2.5670380072757206
 10
3.7124633254621617
 20
-2.551710445551304
 10
3.9228343408624085
 20
-2.53599800107848
 10
4.133590682167758
 20
-2.519849961397381
 10
4.344631418251877
 20
-2.503120652385828
 10
4.556006572135004
 20
-2.485858418057337
 10
4.767617876825866
 20
-2.4680650339101233
 10
4.979515354456956
 20
-2.449788794824207
 10
5.191698118166922
 20
-2.430980616437453
 10
5.4040687887135945
 20
-2.4116914077437066
 10
5.616678275090828
 20
-2.3920185479851273
 10
5.82952569221276
 20
-2.37191305106657
 10
6.042511882675768
 20
-2.3513274115901273
 10
6.255686869500092
 20
-2.330309973569317
 10
6.469003294688315
 20
-2.3089598917445135
 10
6.682506741627388
 20
-2.2870797935175715
 10
6.896100717048765
 20
-2.2647696231109804
 10
7.109786996450652
 20
-2.242127647516007
 10
7.323564692971699
 20
-2.2191047823705135
 10
7.537432031113686
 20
-2.1956027606832333
 10
7.751390787262584
 20
-2.171719898578929
 10
7.965344465486586
 20
-2.147555992879602
 10
8.179340425558612
 20
-2.1230119871118713
 10
8.393332197230356
 20
-2.098236169511742
 10
8.60731711547899
 20
-2.0730810413253242
 10
8.821294293443163
 20
-2.0474975181904806
 10
9.035265506621084
 20
-2.0215838670984776
 10
9.249135145942315
 20
-1.9954889692334545
 10
9.462952347565736
 20
-1.969212084246791
 10
9.676665312972897
 20
-1.942606601133704
 10
9.890274928137401
 20
-1.915721555122835
 10
10.103781193947006
 20
-1.8885569953476797
 10
10.317184996375314
 20
-1.86116195703688
 10
10.530387176243206
 20
-1.8334888365255386
 10
10.743437757458675
 20
-1.8055860269606685
 10
10.95628848894869
 20
-1.7775032547860363
 10
11.168990284145858
 20
-1.74933814491128
 10
11.381441317072724
 20
-1.7208954966506194
 10
11.593642476366163
 20
-1.6922244926331829
 10
11.805647334267332
 20
-1.6635699125880308
 10
12.017352292851585
 20
-1.6346384853720988
 10
12.228756461706556
 20
-1.6053809300892672
 10
12.439914303485782
 20
-1.576091307364715
 10
12.650729319594205
 20
-1.5468692666199575
 10
12.86124531880832
 20
-1.51741921739908
 10
13.071414051830601
 20
-1.4877909844128399
 10
13.281186379838925
 20
-1.4579851606093703
 10
13.49061321449039
 20
-1.4280992726313178
 10
13.699646305599707
 20
-1.3981830960559445
 10
13.908286538252758
 20
-1.3682856169783966
 10
14.116483000792432
 20
-1.3383093087560283
 10
14.324233914169524
 20
-1.3081557078635895
 10
14.531541940743608
 20
-1.277972165654485
 10
14.738407079626935
 20
-1.247758632995219
 10
14.944731941812103
 20
-1.2175654784111867
 10
15.150614800504615
 20
-1.187391270338644
 10
15.35595471658841
 20
-1.157089892453948
 10
15.560752576037084
 20
-1.1267103799857416
 10
15.76501281404517
 20
-1.0964982038782078
 10
15.96873454375133
 20
-1.066404279769209
 10
16.171817711125332
 20
-1.0363314774302501
 10
16.3743614771218
 20
-1.0063274987932191
 10
16.576266677235104
 20
-0.9763444453922454
 10
16.77758244673639
 20
-0.9463815277452129
 10
16.978261421413993
 20
-0.9165375566580256
 10
17.17825446155803
 20
-0.8868130759453211
 10
17.377612478825604
 20
-0.8573056122497461
 10
17.576234531437386
 20
-0.8278689018471711
 10
17.774218892598892
 20
-0.7985015131738518
 10
17.97146639780449
 20
-0.7691555477639175
 10
18.167982369110092
 20
-0.7401255609236885
 10
18.36371766769357
 20
-0.7114121456012986
 10
18.55876524026579
 20
-0.6827190692592038
 10
18.752976782611256
 20
-0.6539989772461704
 10
18.946457669928346
 20
-0.6256435059635196
 10
19.13910873682368
 20
-0.5976047078118848
 10
19.330926427862103
 20
-0.5696858031412547
 10
19.521910741268094
 20
-0.5418866936846383
 10
19.712062562127542
 20
-0.5142563655371813
 10
19.901386327410457
 20
-0.4870403879100595
 10
20.08978198042339
 20
-0.4601414831742896
 10
20.277345133787772
 20
-0.43341096667971446
 10
20.46397750630835
 20
-0.40684982778861806
 10
20.64968087082009
 20
-0.38055618609177966
 10
20.834457001045717
 20
-0.3546282103134748
 10
21.018304117936
 20
-0.3289674369284545
 10
21.20117307911783
 20
-0.3035742623508693
 10
21.38311479713605
 20
-0.2785462623568612
 10
21.564030990795413
 20
-0.2538844263087139
 10
21.74396813389521
 20
-0.2294406625044035
 10
21.9228279434647
 20
-0.20521586203922257
 10
22.10075961058074
 20
-0.1813064639265421
 10
22.277568350126526
 20
-0.15781281214918783
 10
22.45335243885857
 20
-0.13473367167739764
 10
22.628110985476777
 20
-0.11201971248155572
 10
22.801743933287653
 20
-0.08957365693267973
 10
22.974252165601587
 20
-0.06744439285892431
 10
23.145734846036433
 20
-0.04567976959266524
 10
23.31604544232393
 20
-0.024330502939952807
 10
23.485234865233394
 20
-0.003494070409938028
 10
23.653251309144412
 20
0.016976532070128607
 10
23.82014302246674
 20
0.03713117834450019
 10
23.98586175057636
 20
0.05692033850339265
 10
24.150407489922287
 20
0.07634420908078896
 10
24.313733760490965
 20
0.09525504230913412
 10
24.475887036969443
 20
0.11380088075695663
 10
24.63676992324833
 20
0.1319317489668262
 10
24.796429779988305
 20
0.14974665427862968
 10
24.95486926866118
 20
0.16709829447245841
 10
25.112040132867445
 20
0.18393723790551994
 10
25.267939705808768
 20
0.20041108159869617
 10
25.422567984821924
 20
0.21651997295247438
 10
25.5759249663559
 20
0.23226410850083684
 10
25.727914142938168
 20
0.24754433015722474
 10
25.87863556682345
 20
0.26226360596013343
 10
26.02803565600533
 20
0.2766672561070741
 10
26.17606615497204
 20
0.29070579982175837
 10
26.322776199882473
 20
0.30437997745280665
 10
26.468118422973962
 20
0.3175911747282971
 10
26.61204279323652
 20
0.3303881778632081
 10
26.754646700565306
 20
0.34282130624943924
 10
26.895834523461392
 20
0.35474236657178954
 10
27.03560448376331
 20
0.3662497732220122
 10
27.173957466556928
 20
0.37729454010496105
 10
27.310890804156177
 20
0.38802431337501414
 10
27.44640626939601
 20
0.3983409734413913
 10
27.58045471812782
 20
0.4082442221569336
 10
27.71303703543748
 20
0.41768507342649475
 10
27.84420147151022
 20
0.42671330282733655
 10
27.97384885385072
 20
0.4353772510267909
 10
28.101979178020223
 20
0.4436771636923363
 10
28.228642470589968
 20
0.4515645002764725
 10
28.353839620196798
 20
0.4589900781500705
 10
28.477469697489898
 20
0.4660994731683207
 10
28.59958175961845
 20
0.47289779856095415
 10
28.720178555941455
 20
0.47923288789199503
 10
28.839210022602217
 20
0.4851553453157599
 10
28.956674382327016
 20
0.4907635360905065
 10
29.07262254854845
 20
0.49595983530659704
 10
29.18695712338163
 20
0.5006943657735927
 10
29.299725469262714
 20
0.5050660365643889
 10
29.410926695779356
 20
0.5091241285751056
 10
29.520511659670667
 20
0.5128682945250878
 10
29.628482133771634
 20
0.5162004148235562
 10
29.734837225894392
 20
0.5191698686336217
 10
29.839575158765236
 20
0.5218750212135425
 10
29.942696816582274
 20
0.5242669356016676
 10
30.044154832470586
 20
0.52624694839258
 10
30.14394920199144
 20
0.5278153052537577
 10
30.242125513858273
 20
0.5291690839823714
 10
30.338635510783824
 20
0.530258902069124
 10
30.433479191880362
 20
0.5310848086475115
 10
30.526657440458223
 20
0.5315979158893781
 10
30.618121114144294
 20
0.5317978273805737
 10
30.707919349985204
 20
0.5316852343362225
 10
30.796001230997362
 20
0.5313579581999449
 10
30.88236852824024
 20
0.5307179776479524
 10
30.96701946444012
 20
0.5298636579385029
 10
31.05000495391736
 20
0.528697325028463
 10
31.131224936427472
 20
0.5273164530807979
 10
31.210727663043492
 20
0.525770768539274
 10
31.288464878253645
 20
0.5240107906276029
 10
31.364486608629193
 20
0.521987978798285
 10
31.438741928309014
 20
0.5198006458298963
 10
31.511281747174735
 20
0.5173513633467819
 10
31.58200517316097
 20
0.5147836435973154
 10
31.651011304192142
 20
0.5120532731277979
 10
31.718201882154496
 20
0.5091579851050592
 10
31.783626045870143
 20
0.5060983724772325
 10
31.84728379356358
 20
0.5028745335113087
 10
31.909174234822473
 20
0.4995357491034086
 10
31.96924911591055
 20
0.49603244021025245
 10
32.02750665777857
 20
0.4924630703570886
 10
32.08399688966105
 20
0.4887789515959311
 10
32.13866977877251
 20
0.48502896840874893
 10
32.1915262119743
 20
0.48116403643340444
 10
32.242565300629536
 20
0.4772333382990265
 10
32.29178792982413
 20
0.47318788791046895
 10
32.339193210921174
 20
0.4690768678968605
 10
32.38477936753475
 20
0.4649985943829634
 10
32.428499031014425
 20
0.46085450223035174
 10
32.470449596581844
 20
0.4566946160299511
 10
32.51048274936853
 20
0.45256688003494305
 10
32.548746801579725
 20
0.4484234973926333
 10
32.585143468469155
 20
0.44426367527472016
 10
32.61967097365088
 20
0.440185729805966
 10
32.65237934547162
 20
0.4361410221718795
 10
32.68321944067052
 20
0.4321292050918054
 10
32.71218948374935
 20
0.42824854555701053
 10
32.7393403899162
 20
0.424401320390866
 10
32.7646212421875
 20
0.42068535103699156
 10
32.78803292653683
 20
0.4170516022667455
 10
32.80957366746599
 20
0.41359834107139415
 10
32.82924435272409
 20
0.41027643395530455
 10
32.8470932342719
 20
0.40713555822874753
 10
32.86302202825091
 20
0.4041748719299257
 10
32.87707898928516
 20
0.4014439049686234
 10
32.88931325797225
 20
0.3989431520259822
 10
32.89962655045369
 20
0.39667177114020546
 10
32.908066231828904
 20
0.39472852398370156
 10
32.9146823339956
 20
0.3930645752079964
 10
32.919374794046085
 20
0.3917775463765422
 10
32.92219186926762
 20
0.3909168199986359
 10
32.923131781498725
 20
0.3905808104660309
  0
ENDSEC
  0
SECTION
  2
OBJECTS
  0
DICTIONARY
  5
A
330
0
100
AcDbDictionary
280
0
281
1
  3
ACAD_COLOR
350
B
  3
ACAD_GROUP
350
C
  3
ACAD_LAYOUT
350
D
  3
ACAD_MATERIAL
350
E
  3
ACAD_MLEADERSTYLE
350
F
  3
ACAD_MLINESTYLE
350
10
  3
ACAD_PLOTSETTINGS
350
11
  3
ACAD_PLOTSTYLENAME
350
12
  3
ACAD_SCALELIST
350
14
  3
ACAD_TABLESTYLE
350
15
  3
ACAD_VISUALSTYLE
350
16
  3
EZDXF_META
350
2D
  0
DICTIONARY
  5
B
330
A
100
AcDbDictionary
280
0
281
1
  0
DICTIONARY
  5
C
330
A
100
AcDbDictionary
280
0
281
1
  0
DICTIONARY
  5
D
330
A
100
AcDbDictionary
280
0
281
1
  3
Model
350
1A
  3
Layout1
350
1E
  0
DICTIONARY
  5
E
330
A
100
AcDbDictionary
280
0
281
1
  3
ByBlock
350
1F
  3
ByLayer
350
20
  3
Global
350
21
  0
DICTIONARY
  5
F
330
A
100
AcDbDictionary
280
0
281
1
  3
Standard
350
2C
  0
DICTIONARY
  5
10
330
A
100
AcDbDictionary
280
0
281
1
  3
Standard
350
22
  0
DICTIONARY
  5
11
330
A
100
AcDbDictionary
280
0
281
1
  0
ACDBDICTIONARYWDFLT
  5
12
330
A
100
AcDbDictionary
280
0
281
1
  3
Normal
350
13
100
AcDbDictionaryWithDefault
340
13
  0
ACDBPLACEHOLDER
  5
13
330
12
  0
DICTIONARY
  5
14
330
A
100
AcDbDictionary
280
0
281
1
  0
DICTIONARY
  5
15
330
A
100
AcDbDictionary
280
0
281
1
  0
DICTIONARY
  5
16
330
A
100
AcDbDictionary
280
0
281
1
  0
LAYOUT
  5
1A
330
D
100
AcDbPlotSettings
  1

  4
A3
  6

 40
7.5
 41
20.0
 42
7.5
 43
20.0
 44
420.0
 45
297.0
 46
0.0
 47
0.0
 48
0.0
 49
0.0
140
0.0
141
0.0
142
1.0
143
1.0
 70
1024
 72
1
 73
0
 74
5
  7

 75
16
 76
0
 77
2
 78
300
147
1.0
148
0.0
149
0.0
100
AcDbLayout
  1
Model
 70
1
 71
0
 10
0.0
 20
0.0
 11
420.0
 21
297.0
 12
0.0
 22
0.0
 32
0.0
 14
1e+20
 24
1e+20
 34
1e+20
 15
-1e+20
 25
-1e+20
 35
-1e+20
146
0.0
 13
0.0
 23
0.0
 33
0.0
 16
1.0
 26
0.0
 36
0.0
 17
0.0
 27
1.0
 37
0.0
 76
1
330
17
  0
LAYOUT
  5
1E
330
D
100
AcDbPlotSettings
  1

  4
A3
  6

 40
7.5
 41
20.0
 42
7.5
 43
20.0
 44
420.0
 45
297.0
 46
0.0
 47
0.0
 48
0.0
 49
0.0
140
0.0
141
0.0
142
1.0
143
1.0
 70
0
 72
1
 73
0
 74
5
  7

 75
16
 76
0
 77
2
 78
300
147
1.0
148
0.0
149
0.0
100
AcDbLayout
  1
Layout1
 70
1
 71
1
 10
0.0
 20
0.0
 11
420.0
 21
297.0
 12
0.0
 22
0.0
 32
0.0
 14
1e+20
 24
1e+20
 34
1e+20
 15
-1e+20
 25
-1e+20
 35
-1e+20
146
0.0
 13
0.0
 23
0.0
 33
0.0
 16
1.0
 26
0.0
 36
0.0
 17
0.0
 27
1.0
 37
0.0
 76
1
330
1B
  0
MATERIAL
  5
1F
102
{ACAD_REACTORS
330
E
102
}
330
E
100
AcDbMaterial
  1
ByBlock
  2

 70
0
 40
1.0
 71
1
 41
1.0
 91
-1023410177
 42
1.0
 72
1
  3

 73
1
 74
1
 75
1
 44
0.5
 73
0
 45
1.0
 46
1.0
 77
1
  4

 78
1
 79
1
170
1
 48
1.0
171
1
  6

172
1
173
1
174
1
140
1.0
141
1.0
175
1
  7

176
1
177
1
178
1
143
1.0
179
1
  8

270
1
271
1
272
1
145
1.0
146
1.0
273
1
  9

274
1
275
1
276
1
 42
1.0
 72
1
  3

 73
1
 74
1
 75
1
 94
63
  0
MATERIAL
  5
20
102
{ACAD_REACTORS
330
E
102
}
330
E
100
AcDbMaterial
  1
ByLayer
  2

 70
0
 40
1.0
 71
1
 41
1.0
 91
-1023410177
 42
1.0
 72
1
  3

 73
1
 74
1
 75
1
 44
0.5
 73
0
 45
1.0
 46
1.0
 77
1
  4

 78
1
 79
1
170
1
 48
1.0
171
1
  6

172
1
173
1
174
1
140
1.0
141
1.0
175
1
  7

176
1
177
1
178
1
143
1.0
179
1
  8

270
1
271
1
272
1
145
1.0
146
1.0
273
1
  9

274
1
275
1
276
1
 42
1.0
 72
1
  3

 73
1
 74
1
 75
1
 94
63
  0
MATERIAL
  5
21
102
{ACAD_REACTORS
330
E
102
}
330
E
100
AcDbMaterial
  1
Global
  2

 70
0
 40
1.0
 71
1
 41
1.0
 91
-1023410177
 42
1.0
 72
1
  3

 73
1
 74
1
 75
1
 44
0.5
 73
0
 45
1.0
 46
1.0
 77
1
  4

 78
1
 79
1
170
1
 48
1.0
171
1
  6

172
1
173
1
174
1
140
1.0
141
1.0
175
1
  7

176
1
177
1
178
1
143
1.0
179
1
  8

270
1
271
1
272
1
145
1.0
146
1.0
273
1
  9

274
1
275
1
276
1
 42
1.0
 72
1
  3

 73
1
 74
1
 75
1
 94
63
  0
MLINESTYLE
  5
22
102
{ACAD_REACTORS
330
10
102
}
330
10
100
AcDbMlineStyle
  2
Standard
 70
0
  3

 62
256
 51
90.0
 52
90.0
 71
2
 49
0.5
 62
256
  6
BYLAYER
 49
-0.5
 62
256
  6
BYLAYER
  0
MLEADERSTYLE
  5
2C
102
{ACAD_REACTORS
330
F
102
}
330
F
100
AcDbMLeaderStyle
179
2
170
2
171
1
172
0
 90
2
 40
0.0
 41
0.0
173
1
 91
-1056964608
 92
-2
290
1
 42
2.0
291
1
 43
8.0
  3
Standard
 44
4.0
300

342
29
174
1
175
1
176
0
178
1
 93
-1056964608
 45
4.0
292
0
297
0
 46
4.0
 94
-1056964608
 47
1.0
 49
1.0
140
1.0
294
1
141
0.0
177
0
142
1.0
295
0
296
0
143
3.75
271
0
272
9
273
9
  0
DICTIONARY
  5
2D
330
A
100
AcDbDictionary
280
1
281
1
  3
CREATED_BY_EZDXF
350
2E
  3
WRITTEN_BY_EZDXF
350
32
  0
DICTIONARYVAR
  5
2E
330
2D
100
DictionaryVariables
280
0
  1
1.3.5 @ 2025-08-20T01:28:30.550136+00:00
  0
DICTIONARYVAR
  5
32
330
2D
100
DictionaryVariables
280
0
  1
1.3.5 @ 2025-08-20T01:28:30.565758+00:00
  0
ENDSEC
  0
EOF
