  0
SECTION
  2
HEADER
  9
$ACADVER
  1
AC1032
  9
$ACADMAINTVER
 90
4
  9
$DWGCODEPAGE
  3
ANSI_1252
  9
$LASTSAVEDBY
  1
ezdxf
  9
$REQUIREDVERSIONS
160
0
  9
$INSBASE
 10
0.0
 20
0.0
 30
0.0
  9
$EXTMIN
 10
1e+20
 20
1e+20
 30
1e+20
  9
$EXTMAX
 10
-1e+20
 20
-1e+20
 30
-1e+20
  9
$LIMMIN
 10
0.0
 20
0.0
  9
$LIMMAX
 10
420.0
 20
297.0
  9
$ORTHOMODE
 70
0
  9
$REGENMODE
 70
1
  9
$FILLMODE
 70
1
  9
$QTEXTMODE
 70
0
  9
$MIRRTEXT
 70
1
  9
$LTSCALE
 40
1.0
  9
$ATTMODE
 70
1
  9
$TEXTSIZE
 40
2.5
  9
$TRACEWID
 40
1.0
  9
$TEXTSTYLE
  7
Standard
  9
$CLAYER
  8
0
  9
$CELTYPE
  6
ByLayer
  9
$CECOLOR
 62
256
  9
$CELTSCALE
 40
1.0
  9
$DISPSILH
 70
0
  9
$DIMSCALE
 40
1.0
  9
$DIMASZ
 40
2.5
  9
$DIMEXO
 40
0.625
  9
$DIMDLI
 40
3.75
  9
$DIMRND
 40
0.0
  9
$DIMDLE
 40
0.0
  9
$DIMEXE
 40
1.25
  9
$DIMTP
 40
0.0
  9
$DIMTM
 40
0.0
  9
$DIMTXT
 40
2.5
  9
$DIMCEN
 40
2.5
  9
$DIMTSZ
 40
0.0
  9
$DIMTOL
 70
0
  9
$DIMLIM
 70
0
  9
$DIMTIH
 70
0
  9
$DIMTOH
 70
0
  9
$DIMSE1
 70
0
  9
$DIMSE2
 70
0
  9
$DIMTAD
 70
1
  9
$DIMZIN
 70
8
  9
$DIMBLK
  1

  9
$DIMASO
 70
1
  9
$DIMSHO
 70
1
  9
$DIMPOST
  1

  9
$DIMAPOST
  1

  9
$DIMALT
 70
0
  9
$DIMALTD
 70
3
  9
$DIMALTF
 40
0.03937007874
  9
$DIMLFAC
 40
1.0
  9
$DIMTOFL
 70
1
  9
$DIMTVP
 40
0.0
  9
$DIMTIX
 70
0
  9
$DIMSOXD
 70
0
  9
$DIMSAH
 70
0
  9
$DIMBLK1
  1

  9
$DIMBLK2
  1

  9
$DIMSTYLE
  2
ISO-25
  9
$DIMCLRD
 70
0
  9
$DIMCLRE
 70
0
  9
$DIMCLRT
 70
0
  9
$DIMTFAC
 40
1.0
  9
$DIMGAP
 40
0.625
  9
$DIMJUST
 70
0
  9
$DIMSD1
 70
0
  9
$DIMSD2
 70
0
  9
$DIMTOLJ
 70
0
  9
$DIMTZIN
 70
8
  9
$DIMALTZ
 70
0
  9
$DIMALTTZ
 70
0
  9
$DIMUPT
 70
0
  9
$DIMDEC
 70
2
  9
$DIMTDEC
 70
2
  9
$DIMALTU
 70
2
  9
$DIMALTTD
 70
3
  9
$DIMTXSTY
  7
Standard
  9
$DIMAUNIT
 70
0
  9
$DIMADEC
 70
0
  9
$DIMALTRND
 40
0.0
  9
$DIMAZIN
 70
0
  9
$DIMDSEP
 70
44
  9
$DIMATFIT
 70
3
  9
$DIMFRAC
 70
0
  9
$DIMLDRBLK
  1

  9
$DIMLUNIT
 70
2
  9
$DIMLWD
 70
-2
  9
$DIMLWE
 70
-2
  9
$DIMTMOVE
 70
0
  9
$DIMFXL
 40
1.0
  9
$DIMFXLON
 70
0
  9
$DIMJOGANG
 40
0.785398163397
  9
$DIMTFILL
 70
0
  9
$DIMTFILLCLR
 70
0
  9
$DIMARCSYM
 70
0
  9
$DIMLTYPE
  6

  9
$DIMLTEX1
  6

  9
$DIMLTEX2
  6

  9
$DIMTXTDIRECTION
 70
0
  9
$LUNITS
 70
2
  9
$LUPREC
 70
4
  9
$SKETCHINC
 40
1.0
  9
$FILLETRAD
 40
10.0
  9
$AUNITS
 70
0
  9
$AUPREC
 70
2
  9
$MENU
  1
.
  9
$ELEVATION
 40
0.0
  9
$PELEVATION
 40
0.0
  9
$THICKNESS
 40
0.0
  9
$LIMCHECK
 70
0
  9
$CHAMFERA
 40
0.0
  9
$CHAMFERB
 40
0.0
  9
$CHAMFERC
 40
0.0
  9
$CHAMFERD
 40
0.0
  9
$SKPOLY
 70
0
  9
$TDCREATE
 40
2460908.103113426
  9
$TDUCREATE
 40
2458532.153996898
  9
$TDUPDATE
 40
2460908.103113426
  9
$TDUUPDATE
 40
2458532.1544311
  9
$TDINDWG
 40
0.0
  9
$TDUSRTIMER
 40
0.0
  9
$USRTIMER
 70
1
  9
$ANGBASE
 50
0.0
  9
$ANGDIR
 70
0
  9
$PDMODE
 70
0
  9
$PDSIZE
 40
0.0
  9
$PLINEWID
 40
0.0
  9
$SPLFRAME
 70
0
  9
$SPLINETYPE
 70
6
  9
$SPLINESEGS
 70
8
  9
$HANDSEED
  5
33
  9
$SURFTAB1
 70
6
  9
$SURFTAB2
 70
6
  9
$SURFTYPE
 70
6
  9
$SURFU
 70
6
  9
$SURFV
 70
6
  9
$UCSBASE
  2

  9
$UCSNAME
  2

  9
$UCSORG
 10
0.0
 20
0.0
 30
0.0
  9
$UCSXDIR
 10
1.0
 20
0.0
 30
0.0
  9
$UCSYDIR
 10
0.0
 20
1.0
 30
0.0
  9
$UCSORTHOREF
  2

  9
$UCSORTHOVIEW
 70
0
  9
$UCSORGTOP
 10
0.0
 20
0.0
 30
0.0
  9
$UCSORGBOTTOM
 10
0.0
 20
0.0
 30
0.0
  9
$UCSORGLEFT
 10
0.0
 20
0.0
 30
0.0
  9
$UCSORGRIGHT
 10
0.0
 20
0.0
 30
0.0
  9
$UCSORGFRONT
 10
0.0
 20
0.0
 30
0.0
  9
$UCSORGBACK
 10
0.0
 20
0.0
 30
0.0
  9
$PUCSBASE
  2

  9
$PUCSNAME
  2

  9
$PUCSORG
 10
0.0
 20
0.0
 30
0.0
  9
$PUCSXDIR
 10
1.0
 20
0.0
 30
0.0
  9
$PUCSYDIR
 10
0.0
 20
1.0
 30
0.0
  9
$PUCSORTHOREF
  2

  9
$PUCSORTHOVIEW
 70
0
  9
$PUCSORGTOP
 10
0.0
 20
0.0
 30
0.0
  9
$PUCSORGBOTTOM
 10
0.0
 20
0.0
 30
0.0
  9
$PUCSORGLEFT
 10
0.0
 20
0.0
 30
0.0
  9
$PUCSORGRIGHT
 10
0.0
 20
0.0
 30
0.0
  9
$PUCSORGFRONT
 10
0.0
 20
0.0
 30
0.0
  9
$PUCSORGBACK
 10
0.0
 20
0.0
 30
0.0
  9
$USERI1
 70
0
  9
$USERI2
 70
0
  9
$USERI3
 70
0
  9
$USERI4
 70
0
  9
$USERI5
 70
0
  9
$USERR1
 40
0.0
  9
$USERR2
 40
0.0
  9
$USERR3
 40
0.0
  9
$USERR4
 40
0.0
  9
$USERR5
 40
0.0
  9
$WORLDVIEW
 70
1
  9
$SHADEDGE
 70
3
  9
$SHADEDIF
 70
70
  9
$TILEMODE
 70
1
  9
$MAXACTVP
 70
64
  9
$PINSBASE
 10
0.0
 20
0.0
 30
0.0
  9
$PLIMCHECK
 70
0
  9
$PEXTMIN
 10
1e+20
 20
1e+20
 30
1e+20
  9
$PEXTMAX
 10
-1e+20
 20
-1e+20
 30
-1e+20
  9
$PLIMMIN
 10
0.0
 20
0.0
  9
$PLIMMAX
 10
420.0
 20
297.0
  9
$UNITMODE
 70
0
  9
$VISRETAIN
 70
1
  9
$PLINEGEN
 70
0
  9
$PSLTSCALE
 70
1
  9
$TREEDEPTH
 70
3020
  9
$CMLSTYLE
  2
Standard
  9
$CMLJUST
 70
0
  9
$CMLSCALE
 40
20.0
  9
$PROXYGRAPHICS
 70
1
  9
$MEASUREMENT
 70
1
  9
$CELWEIGHT
370
-1
  9
$ENDCAPS
280
0
  9
$JOINSTYLE
280
0
  9
$LWDISPLAY
290
0
  9
$INSUNITS
 70
6
  9
$HYPERLINKBASE
  1

  9
$STYLESHEET
  1

  9
$XEDIT
290
1
  9
$CEPSNTYPE
380
0
  9
$PSTYLEMODE
290
1
  9
$FINGERPRINTGUID
  2
{C218B60B-A70A-4D9A-A859-5F014E2100F5}
  9
$VERSIONGUID
  2
{89E5BDE7-DA14-4D5E-B194-16A022BC78C2}
  9
$EXTNAMES
290
1
  9
$PSVPSCALE
 40
0.0
  9
$OLESTARTUP
290
0
  9
$SORTENTS
280
127
  9
$INDEXCTL
280
0
  9
$HIDETEXT
280
1
  9
$XCLIPFRAME
280
1
  9
$HALOGAP
280
0
  9
$OBSCOLOR
 70
257
  9
$OBSLTYPE
280
0
  9
$INTERSECTIONDISPLAY
280
0
  9
$INTERSECTIONCOLOR
 70
257
  9
$DIMASSOC
280
2
  9
$PROJECTNAME
  1

  9
$CAMERADISPLAY
290
0
  9
$LENSLENGTH
 40
50.0
  9
$CAMERAHEIGHT
 40
0.0
  9
$STEPSPERSEC
 40
24.0
  9
$STEPSIZE
 40
100.0
  9
$3DDWFPREC
 40
2.0
  9
$PSOLWIDTH
 40
0.005
  9
$PSOLHEIGHT
 40
0.08
  9
$LOFTANG1
 40
1.570796326795
  9
$LOFTANG2
 40
1.570796326795
  9
$LOFTMAG1
 40
0.0
  9
$LOFTMAG2
 40
0.0
  9
$LOFTPARAM
 70
7
  9
$LOFTNORMALS
280
1
  9
$LATITUDE
 40
37.795
  9
$LONGITUDE
 40
-122.394
  9
$NORTHDIRECTION
 40
0.0
  9
$TIMEZONE
 70
-8000
  9
$LIGHTGLYPHDISPLAY
280
1
  9
$TILEMODELIGHTSYNCH
280
1
  9
$CMATERIAL
347
20
  9
$SOLIDHIST
280
0
  9
$SHOWHIST
280
1
  9
$DWFFRAME
280
2
  9
$DGNFRAME
280
2
  9
$REALWORLDSCALE
290
1
  9
$INTERFERECOLOR
 62
256
  9
$CSHADOW
280
0
  9
$SHADOWPLANELOCATION
 40
0.0
  0
ENDSEC
  0
SECTION
  2
CLASSES
  0
CLASS
  1
ACDBDICTIONARYWDFLT
  2
AcDbDictionaryWithDefault
  3
ObjectDBX Classes
 90
0
 91
0
280
0
281
0
  0
CLASS
  1
SUN
  2
AcDbSun
  3
SCENEOE
 90
1153
 91
0
280
0
281
0
  0
CLASS
  1
VISUALSTYLE
  2
AcDbVisualStyle
  3
ObjectDBX Classes
 90
4095
 91
0
280
0
281
0
  0
CLASS
  1
MATERIAL
  2
AcDbMaterial
  3
ObjectDBX Classes
 90
1153
 91
0
280
0
281
0
  0
CLASS
  1
SCALE
  2
AcDbScale
  3
ObjectDBX Classes
 90
1153
 91
0
280
0
281
0
  0
CLASS
  1
TABLESTYLE
  2
AcDbTableStyle
  3
ObjectDBX Classes
 90
4095
 91
0
280
0
281
0
  0
CLASS
  1
MLEADERSTYLE
  2
AcDbMLeaderStyle
  3
ACDB_MLEADERSTYLE_CLASS
 90
4095
 91
0
280
0
281
0
  0
CLASS
  1
DICTIONARYVAR
  2
AcDbDictionaryVar
  3
ObjectDBX Classes
 90
0
 91
0
280
0
281
0
  0
CLASS
  1
CELLSTYLEMAP
  2
AcDbCellStyleMap
  3
ObjectDBX Classes
 90
1152
 91
0
280
0
281
0
  0
CLASS
  1
MENTALRAYRENDERSETTINGS
  2
AcDbMentalRayRenderSettings
  3
SCENEOE
 90
1024
 91
0
280
0
281
0
  0
CLASS
  1
ACDBDETAILVIEWSTYLE
  2
AcDbDetailViewStyle
  3
ObjectDBX Classes
 90
1025
 91
0
280
0
281
0
  0
CLASS
  1
ACDBSECTIONVIEWSTYLE
  2
AcDbSectionViewStyle
  3
ObjectDBX Classes
 90
1025
 91
0
280
0
281
0
  0
CLASS
  1
RASTERVARIABLES
  2
AcDbRasterVariables
  3
ISM
 90
0
 91
0
280
0
281
0
  0
CLASS
  1
LAYOUT
  2
AcDbLayout
  3
ObjectDBX Classes
 90
0
 91
0
280
0
281
0
  0
CLASS
  1
ACDBPLACEHOLDER
  2
AcDbPlaceHolder
  3
ObjectDBX Classes
 90
0
 91
0
280
0
281
0
  0
ENDSEC
  0
SECTION
  2
TABLES
  0
TABLE
  2
VPORT
  5
8
330
0
100
AcDbSymbolTable
 70
1
  0
VPORT
  5
23
330
8
100
AcDbSymbolTableRecord
100
AcDbViewportTableRecord
  2
*Active
 70
0
 10
0.0
 20
0.0
 11
1.0
 21
1.0
 12
0.0
 22
0.0
 13
0.0
 23
0.0
 14
0.5
 24
0.5
 15
0.5
 25
0.5
 16
0.0
 26
0.0
 36
1.0
 17
0.0
 27
0.0
 37
0.0
 40
1000.0
 41
1.34
 42
50.0
 43
0.0
 44
0.0
 50
0.0
 51
0.0
 71
0
 72
1000
 73
1
 74
3
 75
0
 76
0
 77
0
 78
0
281
0
 65
0
146
0.0
  0
ENDTAB
  0
TABLE
  2
LTYPE
  5
2
330
0
100
AcDbSymbolTable
 70
3
  0
LTYPE
  5
24
330
2
100
AcDbSymbolTableRecord
100
AcDbLinetypeTableRecord
  2
ByBlock
 70
0
  3

 72
65
 73
0
 40
0.0
  0
LTYPE
  5
25
330
2
100
AcDbSymbolTableRecord
100
AcDbLinetypeTableRecord
  2
ByLayer
 70
0
  3

 72
65
 73
0
 40
0.0
  0
LTYPE
  5
26
330
2
100
AcDbSymbolTableRecord
100
AcDbLinetypeTableRecord
  2
Continuous
 70
0
  3

 72
65
 73
0
 40
0.0
  0
ENDTAB
  0
TABLE
  2
LAYER
  5
1
330
0
100
AcDbSymbolTable
 70
2
  0
LAYER
  5
27
330
1
100
AcDbSymbolTableRecord
100
AcDbLayerTableRecord
  2
0
 70
0
 62
7
  6
Continuous
370
-3
390
13
347
21
  0
LAYER
  5
28
330
1
100
AcDbSymbolTableRecord
100
AcDbLayerTableRecord
  2
Defpoints
 70
0
 62
7
  6
Continuous
290
0
370
-3
390
13
347
21
  0
ENDTAB
  0
TABLE
  2
STYLE
  5
5
330
0
100
AcDbSymbolTable
 70
1
  0
STYLE
  5
29
330
5
100
AcDbSymbolTableRecord
100
AcDbTextStyleTableRecord
  2
Standard
 70
0
 40
0.0
 41
1.0
 50
0.0
 71
0
 42
2.5
  3
txt
  4

  0
ENDTAB
  0
TABLE
  2
VIEW
  5
7
330
0
100
AcDbSymbolTable
 70
0
  0
ENDTAB
  0
TABLE
  2
UCS
  5
6
330
0
100
AcDbSymbolTable
 70
0
  0
ENDTAB
  0
TABLE
  2
APPID
  5
3
330
0
100
AcDbSymbolTable
 70
3
  0
APPID
  5
2A
330
3
100
AcDbSymbolTableRecord
100
AcDbRegAppTableRecord
  2
ACAD
 70
0
  0
APPID
  5
30
330
3
100
AcDbSymbolTableRecord
100
AcDbRegAppTableRecord
  2
HATCHBACKGROUNDCOLOR
 70
0
  0
APPID
  5
31
330
3
100
AcDbSymbolTableRecord
100
AcDbRegAppTableRecord
  2
EZDXF
 70
0
  0
ENDTAB
  0
TABLE
  2
DIMSTYLE
  5
4
330
0
100
AcDbSymbolTable
 70
1
100
AcDbDimStyleTable
  0
DIMSTYLE
105
2B
330
4
100
AcDbSymbolTableRecord
100
AcDbDimStyleTableRecord
  2
Standard
 70
0
 40
1.0
 41
2.5
 42
0.625
 43
3.75
 44
1.25
 45
0.0
 46
0.0
 47
0.0
 48
0.0
 49
2.5
140
2.5
141
2.5
142
0.0
143
0.03937007874
144
1.0
145
0.0
146
1.0
147
0.625
148
0.0
 69
0
 70
0
 71
0
 72
0
 73
0
 74
0
 75
0
 76
0
 77
1
 78
8
 79
3
170
0
171
3
172
1
173
0
174
0
175
0
176
0
177
0
178
0
179
2
271
2
272
2
273
2
274
3
275
0
276
0
277
2
278
44
279
0
280
0
281
0
282
0
283
0
284
8
285
0
286
0
288
0
289
3
290
0
371
-2
372
-2
  0
ENDTAB
  0
TABLE
  2
BLOCK_RECORD
  5
9
330
0
100
AcDbSymbolTable
 70
2
  0
BLOCK_RECORD
  5
17
330
9
100
AcDbSymbolTableRecord
100
AcDbBlockTableRecord
  2
*Model_Space
340
1A
 70
0
280
1
281
0
  0
BLOCK_RECORD
  5
1B
330
9
100
AcDbSymbolTableRecord
100
AcDbBlockTableRecord
  2
*Paper_Space
340
1E
 70
0
280
1
281
0
  0
ENDTAB
  0
ENDSEC
  0
SECTION
  2
BLOCKS
  0
BLOCK
  5
18
330
17
100
AcDbEntity
  8
0
100
AcDbBlockBegin
  2
*Model_Space
 70
0
 10
0.0
 20
0.0
 30
0.0
  3
*Model_Space
  1

  0
ENDBLK
  5
19
330
17
100
AcDbEntity
  8
0
100
AcDbBlockEnd
  0
BLOCK
  5
1C
330
1B
100
AcDbEntity
  8
0
100
AcDbBlockBegin
  2
*Paper_Space
 70
0
 10
0.0
 20
0.0
 30
0.0
  3
*Paper_Space
  1

  0
ENDBLK
  5
1D
330
1B
100
AcDbEntity
  8
0
100
AcDbBlockEnd
  0
ENDSEC
  0
SECTION
  2
ENTITIES
  0
LWPOLYLINE
  5
2F
330
17
100
AcDbEntity
  8
0
100
AcDbPolyline
 90
721
 70
1
 10
71.7634127691068
 20
12.393053532847171
 10
71.7612527789916
 20
12.39343911107171
 10
71.75480916937046
 20
12.394381298756318
 10
71.74415453455698
 20
12.395451752087293
 10
71.72914561993151
 20
12.39684524835866
 10
71.71005082701997
 20
12.39827907781156
 10
71.68674504524044
 20
12.399840958578165
 10
71.65913941576252
 20
12.40140470479964
 10
71.62744792616066
 20
12.40300867703631
 10
71.59158171760438
 20
12.404526689429327
 10
71.55139748098739
 20
12.40615384077171
 10
71.50714552828437
 20
12.40771415896745
 10
71.4587188203025
 20
12.409188731652193
 10
71.40609919484176
 20
12.410684725154114
 10
71.34932297630225
 20
12.411987806816875
 10
71.28835380395945
 20
12.413312523629468
 10
71.22331684288177
 20
12.414570835960726
 10
71.15410505387648
 20
12.415743831446306
 10
71.08070027474352
 20
12.416938676414377
 10
71.00324579642694
 20
12.417960379238252
 10
70.92159827349612
 20
12.419004253043612
 10
70.83579401218891
 20
12.419856072340428
 10
70.74601065751754
 20
12.420768637511708
 10
70.65194536307698
 20
12.421577402138277
 10
70.55391908298573
 20
12.42234006781012
 10
70.45171781150705
 20
12.423018381133241
 10
70.3454484970227
 20
12.423631790303618
 10
70.23511112137051
 20
12.424180402487588
 10
70.12068750418824
 20
12.42477149117965
 10
70.00217759098923
 20
12.425405377878784
 10
69.87961768801141
 20
12.425867837094971
 10
69.75297145269249
 20
12.426373308650893
 10
69.62236397745208
 20
12.426834181580688
 10
69.48767009722178
 20
12.427338495515528
 10
69.34892606375286
 20
12.427672346464375
 10
69.2062025555136
 20
12.428069193780582
 10
69.05948135581737
 20
12.428636525291306
 10
68.90881691493988
 20
12.429053056344683
 10
68.75406585112609
 20
12.429514314399045
 10
68.59546031415059
 20
12.429951493686549
 10
68.43276808158998
 20
12.430433828640345
 10
68.26620312285658
 20
12.430999786987094
 10
68.09565838059551
 20
12.43163056352879
 10
67.92124082135061
 20
12.432345499295074
 10
67.74286154996706
 20
12.433018622759771
 10
67.56062753298878
 20
12.43366927495253
 10
67.3743953886607
 20
12.43449298333168
 10
67.18439724859523
 20
12.435421049295716
 10
66.99052605543744
 20
12.436434667646616
 10
66.79278177286285
 20
12.437534052717035
 10
66.59116431006049
 20
12.43871974033861
 10
66.38576250769869
 20
12.440118023536527
 10
66.17648743429812
 20
12.441603145117242
 10
65.9634279123649
 20
12.443301505272263
 10
65.74660201328811
 20
12.44510647350506
 10
65.52604604330561
 20
12.446803824325613
 10
65.3018306082369
 20
12.448627445752585
 10
65.07381234448907
 20
12.450772758077969
 10
64.84199116125116
 20
12.453240297133409
 10
64.60652852982948
 20
12.455727797797726
 10
64.36740621537518
 20
12.458342855064393
 10
64.12462418156386
 20
12.461085683266079
 10
63.87812785098434
 20
12.464278317218929
 10
63.628007980150336
 20
12.467385246781076
 10
63.374335211205654
 20
12.470640145638516
 10
63.11709132746367
 20
12.474150501618412
 10
62.85615109120717
 20
12.478004783017244
 10
62.59174661588634
 20
12.48213439839983
 10
62.323788988184056
 20
12.486413483406308
 10
62.05227817177591
 20
12.490842252369333
 10
61.7772847724814
 20
12.49565459330757
 10
61.4988813664519
 20
12.500422269573635
 10
61.216924590094536
 20
12.505340701459529
 10
60.93161021429722
 20
12.510555737352744
 10
60.642938184573346
 20
12.516067698752266
 10
60.35083776796804
 20
12.521643447803731
 10
60.05529071147026
 20
12.527390686666951
 10
59.75651098449232
 20
12.533347883068588
 10
59.45435518711699
 20
12.539710671633296
 10
59.1488777514578
 20
12.546157874875547
 10
58.84018562589651
 20
12.552708940991325
 10
58.52827875594653
 20
12.559364191479611
 10
58.21312072639677
 20
12.566338494828399
 10
57.894711482760606
 20
12.573632172536666
 10
57.57306913275151
 20
12.581138379775227
 10
57.248425807981874
 20
12.588788417942576
 10
56.92054923154169
 20
12.59665184297084
 10
56.58954636997495
 20
12.604747995889687
 10
56.255578676425756
 20
12.612774718744255
 10
55.91852087685247
 20
12.620820694163678
 10
55.57842545119895
 20
12.629226762162139
 10
55.23539936600917
 20
12.638012263769298
 10
54.88926481281107
 20
12.646925363099099
 10
54.54029028394152
 20
12.655682814561029
 10
54.188403057951575
 20
12.664713712133096
 10
53.83362124255463
 20
12.673911210986104
 10
53.47592660290186
 20
12.683382906113545
 10
53.11546241177514
 20
12.69293391305506
 10
52.752228632850084
 20
12.702564446143306
 10
52.386118154285086
 20
12.712256021679245
 10
52.017326801454644
 20
12.722154166551388
 10
51.6457474988416
 20
12.732240182728038
 10
51.27152353739003
 20
12.742319078582522
 10
50.894654844451125
 20
12.752391282780145
 10
50.51524840473104
 20
12.762476029184235
 10
50.133178944188195
 20
12.772662000423935
 10
49.74851712312862
 20
12.783182763018923
 10
49.36121029814872
 20
12.79369844145197
 10
48.971561406464545
 20
12.804373046310623
 10
48.579428945841975
 20
12.81474051621881
 10
48.184794663269905
 20
12.82490855333634
 10
47.78781811420939
 20
12.835236695709083
 10
47.388481063811554
 20
12.845832538330527
 10
46.98662386580439
 20
12.856337078986439
 10
46.582710965034714
 20
12.866611848810523
 10
46.17643933347544
 20
12.876493373046879
 10
45.76796849026315
 20
12.886341404074027
 10
45.357173179518455
 20
12.896244517354782
 10
44.944285605502536
 20
12.906133585622317
 10
44.52925316113617
 20
12.915668519026758
 10
44.11214650672541
 20
12.925082884087775
 10
43.69292924522138
 20
12.934591442127024
 10
43.27169215129991
 20
12.943658575836308
 10
42.84845333267447
 20
12.952177440386432
 10
42.42333602040594
 20
12.96072190647961
 10
41.99614422566005
 20
12.969147411724297
 10
41.56707382829785
 20
12.97759916151
 10
41.136233765195286
 20
12.98543437220035
 10
40.70360581966567
 20
12.992760531622503
 10
40.26915363098452
 20
12.999792186765461
 10
39.832822621740675
 20
13.006851372445377
 10
39.39489955544429
 20
13.013547033745605
 10
38.95524287537463
 20
13.019413430789056
 10
38.51411926699644
 20
13.024828478154301
 10
38.071223713788555
 20
13.030290932917815
 10
37.62673592190611
 20
13.035390934964916
 10
37.180728449338304
 20
13.039700354814558
 10
36.73337910455724
 20
13.0434710283528
 10
36.28445551984184
 20
13.04677304734341
 10
35.83415362953985
 20
13.049751295676932
 10
35.38238448400975
 20
13.052280123326158
 10
34.929291446844395
 20
13.05416410999909
 10
34.47498155723657
 20
13.055422168060076
 10
34.019347685182474
 20
13.056035920976408
 10
33.562603963554274
 20
13.056042871977793
 10
33.10453618683102
 20
13.055405946499839
 10
32.645322127160384
 20
13.054377194761258
 10
32.184979964904585
 20
13.052849343267543
 10
31.72360043841505
 20
13.050286989043148
 10
31.261147186967328
 20
13.046904679077073
 10
30.797816199395687
 20
13.042846975760874
 10
30.333375107979133
 20
13.038183970858322
 10
29.86807436998992
 20
13.03273883494279
 10
29.401932129465884
 20
13.026404508852426
 10
28.934966530444896
 20
13.019073933425387
 10
28.467141175878027
 20
13.010961869983333
 10
27.998545015406844
 20
13.002193968553472
 10
27.529177994544686
 20
12.992770550634782
 10
27.059201675408918
 20
12.98238881527444
 10
26.588527108358008
 20
12.970923112445242
 10
26.117279512946986
 20
12.958285081017033
 10
25.64551149625505
 20
12.944814810839688
 10
25.17306144167829
 20
12.93081542436502
 10
24.700179860975563
 20
12.916109770667413
 10
24.226904939905676
 20
12.899822035422451
 10
23.753127650781746
 20
12.882595538098153
 10
23.279044073249064
 20
12.864574305254433
 10
22.80458336537956
 20
12.845525842034895
 10
22.329763707535456
 20
12.825342874945036
 10
21.85474478231319
 20
12.804384191866433
 10
21.379437676395604
 20
12.782523928439211
 10
20.904003933737833
 20
12.759459390876886
 10
20.42833644249831
 20
12.735172095480413
 10
19.95263128232233
 20
12.70980606880971
 10
19.47687025468543
 20
12.683468691525608
 10
19.00110786434997
 20
12.655838357477252
 10
18.5253259127915
 20
12.627022447325482
 10
18.04961336781374
 20
12.597146503931167
 10
17.57380863097497
 20
12.566513542579797
 10
17.09823489915862
 20
12.5345175327004
 10
16.62289217236471
 20
12.50115847429298
 10
16.147762306555382
 20
12.466543426519383
 10
15.67282710320618
 20
12.43077977004043
 10
15.198211890845334
 20
12.393778500728006
 10
14.723791377269023
 20
12.355628408377576
 10
14.249797966522635
 20
12.316259186892706
 10
13.77626800116847
 20
12.275456396450721
 10
13.30318331900649
 20
12.2333272033798
 10
12.83052577599882
 20
12.189978666841778
 10
12.358313534345543
 20
12.145303620508491
 10
11.886797214778674
 20
12.099124270456345
 10
11.415833344732155
 20
12.051636679975312
 10
10.945492766134063
 20
12.003073343921779
 10
10.475759159980857
 20
11.952880054122183
 10
10.006810480042194
 20
11.901307789131952
 10
9.53859229420453
 20
11.848677726436618
 10
9.071051922739835
 20
11.794650204851614
 10
8.604440022704553
 20
11.739047216120696
 10
8.13872028786079
 20
11.682082985733876
 10
7.673821894442663
 20
11.62352491166844
 10
7.209922850706421
 20
11.563623650980823
 10
6.746952351048397
 20
11.50214649448198
 10
6.285106547762681
 20
11.43923704006651
 10
5.824116694241579
 20
11.375180033653516
 10
5.364233447541542
 20
11.309797466986753
 10
4.905529456462755
 20
11.242660674753532
 10
4.447986613291781
 20
11.173876501783042
 10
3.9916575795944373
 20
11.103784716426178
 10
3.5365605902195805
 20
11.032277723689452
 10
3.0827138255294466
 20
10.959248250078366
 10
2.6302244700144204
 20
10.884714350626643
 10
2.1789490511084257
 20
10.808872088624245
 10
1.7289584833883338
 20
10.731953530262254
 10
1.280432581982523
 20
10.653548172428035
 10
0.8334077076154931
 20
10.573441468132588
 10
0.3878475903737302
 20
10.491847428533266
 10
-0.056157094692224026
 20
10.408881522856102
 10
-0.49871057163414134
 20
10.324508227955887
 10
-0.9397237818372913
 20
10.23885255086185
 10
-1.3791077211735658
 20
10.152039820102221
 10
-1.8168969071709247
 20
10.063623208164255
 10
-2.2529841735011957
 20
9.973620877248008
 10
-2.6873531648364613
 20
9.882586821194385
 10
-3.120074723104795
 20
9.790288545146993
 10
-3.5509163534497956
 20
9.696655207177763
 10
-3.980092388527815
 20
9.601650482886592
 10
-4.407388495682501
 20
9.50531069667358
 10
-4.832733832985788
 20
9.407868343395121
 10
-5.256360895294071
 20
9.30939426497929
 10
-5.678071705278919
 20
9.209370791985272
 10
-6.097760903484297
 20
9.1084772467822
 10
-6.5155719806384615
 20
9.006909799826374
 10
-6.931503129869307
 20
8.904007290948707
 10
-7.345232852192302
 20
8.799824206749346
 10
-7.756922800535775
 20
8.694663884012762
 10
-8.166591137099775
 20
8.588633489067124
 10
-8.574201537484191
 20
8.481518689256092
 10
-8.979557831232743
 20
8.373462975307932
 10
-9.38287435100177
 20
8.264430022822548
 10
-9.78399125073508
 20
8.154777655184557
 10
-10.182872206032565
 20
8.044291539737609
 10
-10.579499054694184
 20
7.932864510153538
 10
-10.97388995891998
 20
7.820603732760515
 10
-11.365974076781887
 20
7.707741702414931
 10
-11.75585857460807
 20
7.59426025691674
 10
-12.143292795342086
 20
7.479981388009695
 10
-12.528276738983939
 20
7.364905095693795
 10
-12.910899409661752
 20
7.24890605144082
 10
-13.291071803247402
 20
7.13210958377899
 10
-13.668848406341034
 20
7.014837191692825
 10
-14.044140214814526
 20
6.897214203710546
 10
-14.416874579867683
 20
6.77881195451946
 10
-14.787158667828676
 20
6.659612281919521
 10
-15.154652817512936
 20
6.5395625061827065
 10
-15.51962584817696
 20
6.418947801893429
 10
-15.882095922020795
 20
6.2978753353798655
 10
-16.241848706388097
 20
6.176381431042114
 10
-16.598866039078818
 20
6.0543589225520025
 10
-16.953200599820974
 20
5.9314681487249645
 10
-17.304817871086605
 20
5.808155937073738
 10
-17.65377233947585
 20
5.68474378658284
 10
-17.999866027660293
 20
5.56071402781146
 10
-18.343206101968097
 20
5.436048498559545
 10
-18.683614554143027
 20
5.310997855883542
 10
-19.021198550513255
 20
5.185543937583401
 10
-19.35597625327883
 20
5.0597939099872935
 10
-19.687786009511417
 20
4.933444436310754
 10
-20.016664143611134
 20
4.806709849210123
 10
-20.342610655577975
 20
4.6795901486854055
 10
-20.665698194212133
 20
4.552514000049288
 10
-20.98569426465722
 20
4.425410561373697
 10
-21.30275871296943
 20
4.297922009274017
 10
-21.616748048420483
 20
4.169852173293953
 10
-21.927627753482426
 20
4.041647880946245
 10
-22.23554131888351
 20
3.913505302687186
 10
-22.540308929495374
 20
3.7850139354041374
 10
-22.841859743389946
 20
3.6564062739534946
 10
-23.140426255423613
 20
3.5277531602633294
 10
-23.435794132940032
 20
3.3990909187337413
 10
-23.72790888933906
 20
3.2700980503802115
 10
-24.016825011220845
 20
3.1410960541872606
 10
-24.30256066078543
 20
3.012192096483057
 10
-24.58509767583277
 20
2.883279010939431
 10
-24.86432889003469
 20
2.7543749597564338
 10
-25.14023614119115
 20
2.6253727766058867
 10
-25.41294475783036
 20
2.4963614656159203
 10
-25.68224040729598
 20
2.3673773511866285
 10
-25.948159413988105
 20
2.2386347659743566
 10
-26.210879786162984
 20
2.109883052922664
 10
-26.47008002483611
 20
1.9811766986316945
 10
-26.725849134135586
 20
1.85239037457323
 10
-26.978259762861633
 20
1.7239527460599593
 10
-27.227311911014223
 20
1.5958638130918816
 10
-27.47286208786511
 20
1.4679274052127005
 10
-27.71489213121423
 20
1.3400363560942476
 10
-27.95349104518972
 20
1.2120653372082961
 10
-28.18853530813546
 20
1.084586504595811
 10
-28.420113924179596
 20
0.957474529728567
 10
-28.64819056892201
 20
0.8305150799502227
 10
-28.872658076034547
 20
0.7037263174608248
 10
-29.09355276991729
 20
0.5773225749167201
 10
-29.310838326170153
 20
0.45108951966156285
 10
-29.524532906993176
 20
0.32513431802352677
 10
-29.73465467458642
 20
0.19956413633078138
 10
-29.9410601382216
 20
0.07418280412703362
 10
-30.143803784498875
 20
-0.050688179603199233
 10
-30.342920130946215
 20
-0.17549564237265688
 10
-30.538374660035647
 20
-0.29979275666860056
 10
-30.73014920956712
 20
-0.4236866888192023
 10
-30.918225617340582
 20
-0.5472846051526342
 10
-31.102496717027865
 20
-0.670568343468847
 10
-31.283087837157193
 20
-0.7934488996397179
 10
-31.459946298000535
 20
-0.9155866124806801
 10
-31.633035775157797
 20
-1.0371958146480778
 10
-31.802356268628976
 20
-1.158276506141914
 10
-31.968033106942293
 20
-1.2787396828340605
 10
-32.12983379524136
 20
-1.3986561866525946
 10
-32.28790182425445
 20
-1.5178298471412202
 10
-32.442166352053476
 20
-1.6360281694435435
 10
-32.592734544966625
 20
-1.7532693157596124
 10
-32.73946291226562
 20
-1.8697494565457236
 10
-32.88247678247869
 20
-1.9853795876737546
 10
-33.02156182294948
 20
-2.100123384743605
 10
-33.15696869073442
 20
-2.21380283949903
 10
-33.28850121537725
 20
-2.3262744612117583
 10
-33.41623023880602
 20
-2.437770744738184
 10
-33.540155761020735
 20
-2.5482916900783064
 10
-33.660277782021396
 20
-2.6578372972321245
 10
-33.77652545987992
 20
-2.766175071343247
 10
-33.88889879459633
 20
-2.8733050124116737
 10
-33.99745046589862
 20
-2.9795667816219673
 10
-34.102127794058795
 20
-3.084620717789564
 10
-34.20285813027664
 20
-3.1888954862271555
 10
-34.29971412335235
 20
-3.2919624216220478
 10
-34.39262312448574
 20
-3.3942501892869337
 10
-34.4816214580769
 20
-3.4955444565654648
 10
-34.56670912412583
 20
-3.595845223457645
 10
-34.647760794104315
 20
-3.6952414940915963
 10
-34.72502712506879
 20
-3.793555260211072
 10
-34.798132131434606
 20
-3.8910535342004406
 10
-34.867433636586355
 20
-3.9875764700035052
 10
-34.932699145667655
 20
-4.083194909548341
 10
-34.993983145278655
 20
-4.17758735385043
 10
-35.05135647734744
 20
-4.270986297766168
 10
-35.10473013774586
 20
-4.363266412767329
 10
-35.15417677527414
 20
-4.453999033541228
 10
-35.19974906966028
 20
-4.54352382127243
 10
-35.241376178976225
 20
-4.63160828110454
 10
-35.27909442762207
 20
-4.7180380803812145
 10
-35.312976464398005
 20
-4.802384553789763
 10
-35.34302228930403
 20
-4.884647701330185
 10
-35.36937539306844
 20
-4.96463135254619
 10
-35.39191225403512
 20
-5.041763351396812
 10
-35.41081268733244
 20
-5.115633194769413
 10
-35.42636548128906
 20
-5.185187381582319
 10
-35.438483438649
 20
-5.249639423138224
 10
-35.44756432094121
 20
-5.307292820386423
 10
-35.45400588969468
 20
-5.3564510742762055
 10
-35.45802970505424
 20
-5.394505868531339
 10
-35.46019698834929
 20
-5.418796207147561
 10
-35.346158528067534
 20
-6.104041292297861
 10
-35.34319609562973
 20
-6.109161693233706
 10
-35.334326960516364
 20
-6.124415729713074
 10
-35.319623771527645
 20
-6.149374736423272
 10
-35.298670604934536
 20
-6.18584237874318
 10
-35.27130038719237
 20
-6.236105473964517
 10
-35.23835038637553
 20
-6.294573210822272
 10
-35.2002764643574
 20
-6.357905270943055
 10
-35.15752906239494
 20
-6.424744816460722
 10
-35.110382420361056
 20
-6.492823192283606
 10
-35.058892831727995
 20
-6.561157739258106
 10
-35.00336544015236
 20
-6.629248950143461
 10
-34.94376572810618
 20
-6.696649997426931
 10
-34.88016634438965
 20
-6.762932215795826
 10
-34.81260361340287
 20
-6.827881272593802
 10
-34.74107753514584
 20
-6.89149716782086
 10
-34.665713438146774
 20
-6.953690897348874
 10
-34.58644048047761
 20
-7.014229966321454
 10
-34.503240499938286
 20
-7.073221541066769
 10
-34.41623882505704
 20
-7.130576617456699
 10
-34.3252919651056
 20
-7.1864913659475365
 10
-34.230418082284004
 20
-7.240858620211112
 10
-34.1318678336487
 20
-7.293500371991176
 10
-34.02926523361502
 20
-7.3446836336721
 10
-33.92294994336753
 20
-7.39435572552586
 10
-33.81268946804984
 20
-7.442587489480528
 10
-33.69860913619017
 20
-7.489289921407982
 10
-33.58072710998858
 20
-7.534355854980051
 10
-33.45898890284491
 20
-7.578106789181248
 10
-33.33343083915925
 20
-7.620328391355232
 10
-33.20398027013141
 20
-7.661449326814692
 10
-33.070691682361556
 20
-7.701148096575111
 10
-32.93363591777773
 20
-7.73965719549288
 10
-32.792705810051785
 20
-7.776958461367954
 10
-32.64786503478362
 20
-7.813266226856675
 10
-32.49923892050144
 20
-7.848491487830921
 10
-32.34680930500521
 20
-7.882741410618864
 10
-32.19057618829491
 20
-7.916015995220503
 10
-32.03037791744225
 20
-7.948618578420308
 10
-31.8664469873036
 20
-7.980478318290203
 10
-31.698587227422678
 20
-8.01145172410192
 10
-31.52701297045582
 20
-8.041575120255555
 10
-31.35158072567476
 20
-8.071044677207404
 10
-31.17239765940767
 20
-8.099878557157517
 10
-30.989374767526424
 20
-8.127951431577673
 10
-30.802655540759297
 20
-8.155067130011574
 10
-30.612114650578068
 20
-8.181314656587345
 10
-30.417948267439023
 20
-8.206837502033256
 10
-30.220049225013994
 20
-8.231617504149261
 10
-30.01841752330299
 20
-8.255654662935356
 10
-29.81310764890615
 20
-8.278627479407024
 10
-29.60422676815165
 20
-8.300554115764319
 10
-29.391667714711318
 20
-8.321416409807187
 10
-29.175501330513224
 20
-8.341446856392022
 10
-28.955727615557365
 20
-8.360645455518828
 10
-28.732419218643955
 20
-8.378583541874914
 10
-28.505646981701048
 20
-8.395493610316672
 10
-28.275321900600538
 20
-8.411250332315882
 10
-28.04142581314236
 20
-8.425960874200717
 10
-27.804065885654698
 20
-8.439643398171224
 10
-27.563260280337595
 20
-8.452190737899235
 10
-27.31899083499101
 20
-8.463710059712918
 10
-27.071257549614927
 20
-8.474201363612273
 10
-26.82007858640941
 20
-8.483557483269133
 10
-26.56554294950257
 20
-8.491903747211714
 10
-26.307650638894422
 20
-8.499240155440019
 10
-26.046312650456834
 20
-8.505441379425823
 10
-25.781706992446047
 20
-8.510758076225574
 10
-25.51374466073395
 20
-8.515064917311047
 10
-25.242407493120492
 20
-8.51846906901042
 10
-24.967820818133877
 20
-8.520881527195563
 10
-24.690039122374277
 20
-8.521980792881962
 10
-24.409007919241525
 20
-8.522088365054131
 10
-24.12458371800737
 20
-8.521400414168372
 10
-23.837106179856352
 20
-8.519864260496655
 10
-23.546397296532252
 20
-8.517229246982541
 10
-23.2524752302351
 20
-8.513388207297854
 10
-22.955517989221146
 20
-8.508591798499037
 10
-22.65540024496218
 20
-8.502929024714218
 10
-22.352158321858287
 20
-8.496185553287049
 10
-22.045899386237647
 20
-8.488379546417576
 10
-21.736641600300302
 20
-8.479403837777634
 10
-21.424330477446112
 20
-8.469579926351736
 10
-21.109002342075172
 20
-8.458693479483536
 10
-20.790620869787386
 20
-8.446958829829383
 10
-20.46945487983924
 20
-8.434090802804855
 10
-20.14527187737435
 20
-8.420160240338026
 10
-19.81817902872088
 20
-8.405185304628947
 10
-19.48826533800695
 20
-8.389291324205841
 10
-19.1554599633045
 20
-8.37224580421231
 10
-18.819833746541594
 20
-8.354281239504752
 10
-18.481512016246455
 20
-8.335308625955042
 10
-18.140316764162836
 20
-8.315077306506735
 10
-17.79646232294709
 20
-8.293623605559933
 10
-17.44989420599905
 20
-8.271269022099153
 10
-17.100612413318743
 20
-8.248013556124393
 10
-16.748616944906143
 20
-8.223857207635655
 10
-16.394069453689582
 20
-8.19849663984847
 10
-16.037006264069166
 20
-8.171717520106492
 10
-15.677247560916513
 20
-8.143930351522366
 10
-15.315007676887971
 20
-8.115171458496185
 10
-14.950215770055468
 20
-8.085208346171557
 10
-14.583015331147278
 20
-8.05384484409219
 10
-14.21335187356325
 20
-8.021402451242597
 10
-13.841296239231458
 20
-7.988113662479174
 10
-13.466777586223824
 20
-7.953745982945527
 10
-13.089850401140502
 20
-7.917977913657137
 10
-12.710692692237735
 20
-7.881060111670451
 10
-12.329286297315479
 20
-7.843099743313639
 10
-11.945416883717378
 20
-7.804060484186602
 10
-11.559424112628008
 20
-7.763889654561318
 10
-11.171237142119297
 20
-7.722354759581392
 10
-10.780855972191238
 20
-7.679455799246823
 10
-10.388369606971954
 20
-7.635318102085832
 10
-9.993687235461204
 20
-7.590477499739284
 10
-9.596970510587303
 20
-7.5446306554227105
 10
-9.198184914822281
 20
-7.4973307416233705
 10
-8.79731228596609
 20
-7.448684924669439
 10
-8.394566956675064
 20
-7.398729528961013
 10
-7.989769111820841
 20
-7.347875057610734
 10
-7.583062242131692
 20
-7.295925340162305
 10
-7.174446347607616
 20
-7.242880376615728
 10
-6.76395775264871
 20
-7.188525834314658
 10
-6.351578295054931
 20
-7.132968879587266
 10
-5.937485983082516
 20
-7.076460169489997
 10
-5.5215028084752324
 20
-7.018749046966407
 10
-5.103879428289505
 20
-6.9596575037602495
 10
-4.684597680325297
 20
-6.899292706199699
 10
-4.263639402382557
 20
-6.837761820612927
 10
-3.8409155903331595
 20
-6.774939518471709
 10
-3.416784067561733
 20
-6.710665953719853
 10
-2.991155829940133
 20
-6.644815797829135
 10
-2.5638147379399054
 20
-6.578013886568541
 10
-2.134993286417436
 20
-6.5101893780099935
 10
-1.704907614901202
 20
-6.440717436384512
 10
-1.2732889041347093
 20
-6.369883236276515
 10
-0.8402261582460748
 20
-6.297812106214222
 10
-0.4059700342917478
 20
-6.224326037941389
 10
0.02967563818457263
 20
-6.149281540729745
 10
0.4664965265265352
 20
-6.072714938979385
 10
0.9046724458625109
 20
-5.995036735802955
 10
1.344059905464235
 20
-5.916050760744155
 10
1.7844609280032875
 20
-5.835239344362176
 10
2.226037166407975
 20
-5.752905823441482
 10
2.668754103150339
 20
-5.669497025494816
 10
3.1124501397886504
 20
-5.584709935236693
 10
3.5572172227274472
 20
-5.498436585084055
 10
4.002986180961047
 20
-5.410919329195489
 10
4.449684420175866
 20
-5.321729823757289
 10
4.897311976696304
 20
-5.230868283102112
 10
5.345834332994379
 20
-5.138781534742695
 10
5.795162557590771
 20
-5.045595335872578
 10
6.245385672775807
 20
-4.9511844651298595
 10
6.696342043783354
 20
-4.855245692896408
 10
7.148068013175727
 20
-4.757993458994891
 10
7.600563653601714
 20
-4.6594281920906235
 10
8.053721780570955
 20
-4.559567947217325
 10
8.507487961969884
 20
-4.458091546889467
 10
8.961898522198615
 20
-4.355213323763389
 10
9.416811777400996
 20
-4.251398267551885
 10
9.872423970682123
 20
-4.146503316191991
 10
10.328466264623307
 20
-4.040243187932964
 10
10.785064024077162
 20
-3.9327071012355805
 10
11.242002916387342
 20
-3.8239313804999444
 10
11.699408288244278
 20
-3.714005137020503
 10
12.157261995610115
 20
-3.6028213116354126
 10
12.61536786802856
 20
-3.4905233950729455
 10
13.07386939622789
 20
-3.3773075577893956
 10
13.532748472494646
 20
-3.2630669549555766
 10
13.99177254748583
 20
-3.1477304231444303
 10
14.451066986054077
 20
-3.0313871808167345
 10
14.910560946271309
 20
-2.914269722828885
 10
15.37028896382769
 20
-2.7959313288344716
 10
15.830072994142595
 20
-2.676622441557278
 10
16.2899493616161
 20
-2.5565573936536548
 10
16.749899922210375
 20
-2.4356291259617517
 10
17.20988835152531
 20
-2.31362330582523
 10
17.669950992123205
 20
-2.190754373066758
 10
18.12990974493682
 20
-2.067272448911141
 10
18.58983548821863
 20
-1.9429452528346394
 10
19.049675542240596
 20
-1.8181124460218214
 10
19.50937538407818
 20
-1.6924523151555129
 10
19.96891686969354
 20
-1.5658578010738686
 10
20.428336323486757
 20
-1.4385432364332364
 10
20.887473790428448
 20
-1.3108658016202612
 10
21.34643649133338
 20
-1.1828076559338774
 10
21.80506273694883
 20
-1.0540652482569628
 10
22.263370653150464
 20
-0.9247455305850318
 10
22.721360258100457
 20
-0.7948486100844135
 10
23.179049677674477
 20
-0.6644814387506245
 10
23.63620632620513
 20
-0.5335726388239491
 10
24.092955586707227
 20
-0.40221153593149434
 10
24.549208346079435
 20
-0.2705228156035194
 10
25.005108185861065
 20
-0.13870318412794982
 10
25.460367961135724
 20
-0.006359336095250991
 10
25.915005852265693
 20
0.12640145500008093
 10
26.369219836579394
 20
0.2590615197172348
 10
26.822686517409178
 20
0.3922280674567846
 10
27.27538767806838
 20
0.5260085860458867
 10
27.7275395125721
 20
0.6597779182165738
 10
28.178963867366477
 20
0.793286264243027
 10
28.629658971903762
 20
0.9271945699616702
 10
29.079535749407068
 20
1.061377935509598
 10
29.52848692457501
 20
1.1958188416847289
 10
29.976656042622466
 20
1.330320796531785
 10
30.423954008610277
 20
1.4647590073541783
 10
30.87039893025195
 20
1.5990266293227322
 10
31.31584726233257
 20
1.7333201543927153
 10
31.760262607803263
 20
1.8678543438857929
 10
32.20369943510196
 20
2.0023078059837705
 10
32.64615772606646
 20
2.136680647852982
 10
33.08744111045629
 20
2.2708305575947616
 10
33.527764048063176
 20
2.40479310944491
 10
33.966857538008625
 20
2.5388545496511328
 10
34.40473970616829
 20
2.6729079262179076
 10
34.841501290893596
 20
2.8064178361696857
 10
35.277124148146754
 20
2.939491338668318
 10
35.711357384762664
 20
3.0723078351323103
 10
36.14443362273315
 20
3.204795733469296
 10
36.57612016741759
 20
3.337027054436952
 10
37.00652422146857
 20
3.4690197459026764
 10
37.435574815822626
 20
3.600542063174371
 10
37.863164657016185
 20
3.7315765942162864
 10
38.2894372902641
 20
3.861926847073139
 10
38.71412366020128
 20
3.99187938949161
 10
39.13743822661949
 20
4.121469795707511
 10
39.55914829487813
 20
4.250770086478518
 10
39.979362747366466
 20
4.379137799667236
 10
40.39797430878317
 20
4.506555416071592
 10
40.815088465719654
 20
4.633701507896415
 10
41.23036523007178
 20
4.760630683863639
 10
41.64416435923169
 20
4.88652118758369
 10
42.05625314039656
 20
5.011445146980574
 10
42.466558833955204
 20
5.135831763198622
 10
42.875081403583216
 20
5.259681250570489
 10
43.28183895699408
 20
5.3828867642669955
 10
43.686922268863576
 20
5.5049126869799245
 10
44.09008039154013
 20
5.625938741626781
 10
44.49147335270191
 20
5.746321679928897
 10
44.89088652909736
 20
5.866026892147423
 10
45.28835619064
 20
5.984840367125002
 10
45.68391862540551
 20
6.10254798653794
 10
46.077537436345
 20
6.219364511707897
 10
46.46910527550828
 20
6.3352728520981065
 10
46.85876570627245
 20
6.450076408586957
 10
47.24630410538597
 20
6.563740571435609
 10
47.631773225225615
 20
6.676604573163307
 10
48.01495840621549
 20
6.788634018363861
 10
48.39621778049759
 20
6.8996672391535006
 10
48.77515846229331
 20
7.009420469065522
 10
49.15199498404323
 20
7.117928853670418
 10
49.52670911089849
 20
7.225299987961674
 10
49.899049895207405
 20
7.331713594856781
 10
50.26903540835906
 20
7.437063043859214
 10
50.63689832683187
 20
7.541276421377618
 10
51.002334914272915
 20
7.644194432142886
 10
51.365488697734904
 20
7.745620691366071
 10
51.726197842667524
 20
7.8458596074949245
 10
52.08455140768546
 20
7.945036187558676
 10
52.4404602070386
 20
8.04302617469239
 10
52.79392416807817
 20
8.13982999756138
 10
53.144890411291925
 20
8.23510917381069
 10
53.49341170721888
 20
8.329202828793242
 10
53.839291540320936
 20
8.421969507941002
 10
54.18260080701281
 20
8.513641384611377
 10
54.52339395757021
 20
8.603897174152513
 10
54.86158176991864
 20
8.692612834032124
 10
55.1971096848091
 20
8.78011029190003
 10
55.529977647755054
 20
8.866389869255231
 10
55.860185586107654
 20
8.951451994763026
 10
56.18755516469108
 20
9.035047940360885
 10
56.51233724034597
 20
9.116998518962953
 10
56.83433363595971
 20
9.197822578839654
 10
57.15345514761995
 20
9.277395970292368
 10
57.46980899614149
 20
9.355736534022165
 10
57.783324139812045
 20
9.432612954002265
 10
58.0938750503192
 20
9.508115413190389
 10
58.40165811606563
 20
9.58238611631888
 10
58.70651312775117
 20
9.655069383329684
 10
59.0084037064891
 20
9.726379868378128
 10
59.307347959992875
 20
9.796210726635028
 10
59.60329131085135
 20
9.864883992916536
 10
59.896270028977995
 20
9.932185656065293
 10
60.186176730098275
 20
9.99809883987719
 10
60.47302952192563
 20
10.062516699523043
 10
60.756917499399165
 20
10.125564027699422
 10
61.037607804418506
 20
10.187313809660974
 10
61.31510034617265
 20
10.247766581239334
 10
61.58952056216301
 20
10.306832695308415
 10
61.86088663275184
 20
10.364404878373714
 10
62.12892975684485
 20
10.420768197853317
 10
62.39375553882099
 20
10.4759500322515
 10
62.65542022701384
 20
10.529618487449914
 10
62.91379762110956
 20
10.581867711560434
 10
63.16885136038364
 20
10.632912251572058
 10
63.420725026375386
 20
10.682555401196852
 10
63.66922206722228
 20
10.730655920199437
 10
63.9144134156634
 20
10.777445767604569
 10
64.15628085501207
 20
10.823032431239394
 10
64.39471701915598
 20
10.867398927733486
 10
64.62975817800853
 20
10.910331245929473
 10
64.86138607855878
 20
10.95193708798718
 10
65.08956436008215
 20
10.992431000895596
 10
65.31431111212996
 20
11.031706246991872
 10
65.53555531115207
 20
11.06953140308289
 10
65.75329686633751
 20
11.105907005000288
 10
65.96757042234962
 20
11.141279130092514
 10
66.17828673895175
 20
11.175523842993607
 10
66.38544579798166
 20
11.2086412508699
 10
66.58906567082836
 20
11.240524723224858
 10
66.78903900954174
 20
11.271157169521715
 10
66.98547305309876
 20
11.300556323295208
 10
67.1782241473113
 20
11.328919319498581
 10
67.36732852576847
 20
11.356032361307136
 10
67.55274982774584
 20
11.38210999570987
 10
67.73463165294484
 20
11.406955409252525
 10
67.912722981065
 20
11.430748753517907
 10
68.08711292520765
 20
11.453614714036261
 10
68.25771228146051
 20
11.47542914110899
 10
68.42464648732495
 20
11.496102387609984
 10
68.58777170699095
 20
11.515832660155791
 10
68.74723144934893
 20
11.534423681123778
 10
68.90275767611702
 20
11.552156016946252
 10
69.0545817197708
 20
11.568965684340142
 10
69.20248942927597
 20
11.584815287242076
 10
69.34658807993384
 20
11.599722344854122
 10
69.48687763542004
 20
11.613687071508945
 10
69.62333987904793
 20
11.626816955033702
 10
69.75588564322958
 20
11.638987631397114
 10
69.88447853091607
 20
11.650413861920853
 10
70.00924403409545
 20
11.66100567797983
 10
70.13005658813091
 20
11.670853476864448
 10
70.24693433706025
 20
11.679850199412847
 10
70.35985910052123
 20
11.688103119119535
 10
70.46884898622736
 20
11.695505391155328
 10
70.57388581381632
 20
11.702164289014723
 10
70.67493324072584
 20
11.70829425252039
 10
70.77192020708146
 20
11.71366407281188
 10
70.86504321025905
 20
11.718415311623549
 10
70.95396204420807
 20
11.722603863673271
 10
71.03901686049242
 20
11.726174155742157
 10
71.11999296321183
 20
11.729092006756675
 10
71.19685400980397
 20
11.731571856539501
 10
71.26972547409468
 20
11.733523843631882
 10
71.33849998997158
 20
11.73493098466338
 10
71.40314123303456
 20
11.736007612290342
 10
71.46379282114731
 20
11.736556805892167
 10
71.52031110012169
 20
11.736775700422111
 10
71.57271419583346
 20
11.73655734388466
 10
71.62096578388244
 20
11.736116068936155
 10
71.6650840264687
 20
11.73534470924842
 10
71.70515805485579
 20
11.734367843185387
 10
71.74097319130554
 20
11.73315118250719
 10
71.77261862156807
 20
11.731818984078766
 10
71.80020165726914
 20
11.730388552769538
 10
71.82350762067065
 20
11.72882560033965
 10
71.8426074989982
 20
11.727361764314862
 10
71.85762683872653
 20
11.725906754571124
 10
71.86831456506849
 20
11.72464104419022
 10
71.87475991826082
 20
11.723688568538105
 10
71.87692651941684
 20
11.723263981770112
  0
ENDSEC
  0
SECTION
  2
OBJECTS
  0
DICTIONARY
  5
A
330
0
100
AcDbDictionary
280
0
281
1
  3
ACAD_COLOR
350
B
  3
ACAD_GROUP
350
C
  3
ACAD_LAYOUT
350
D
  3
ACAD_MATERIAL
350
E
  3
ACAD_MLEADERSTYLE
350
F
  3
ACAD_MLINESTYLE
350
10
  3
ACAD_PLOTSETTINGS
350
11
  3
ACAD_PLOTSTYLENAME
350
12
  3
ACAD_SCALELIST
350
14
  3
ACAD_TABLESTYLE
350
15
  3
ACAD_VISUALSTYLE
350
16
  3
EZDXF_META
350
2D
  0
DICTIONARY
  5
B
330
A
100
AcDbDictionary
280
0
281
1
  0
DICTIONARY
  5
C
330
A
100
AcDbDictionary
280
0
281
1
  0
DICTIONARY
  5
D
330
A
100
AcDbDictionary
280
0
281
1
  3
Model
350
1A
  3
Layout1
350
1E
  0
DICTIONARY
  5
E
330
A
100
AcDbDictionary
280
0
281
1
  3
ByBlock
350
1F
  3
ByLayer
350
20
  3
Global
350
21
  0
DICTIONARY
  5
F
330
A
100
AcDbDictionary
280
0
281
1
  3
Standard
350
2C
  0
DICTIONARY
  5
10
330
A
100
AcDbDictionary
280
0
281
1
  3
Standard
350
22
  0
DICTIONARY
  5
11
330
A
100
AcDbDictionary
280
0
281
1
  0
ACDBDICTIONARYWDFLT
  5
12
330
A
100
AcDbDictionary
280
0
281
1
  3
Normal
350
13
100
AcDbDictionaryWithDefault
340
13
  0
ACDBPLACEHOLDER
  5
13
330
12
  0
DICTIONARY
  5
14
330
A
100
AcDbDictionary
280
0
281
1
  0
DICTIONARY
  5
15
330
A
100
AcDbDictionary
280
0
281
1
  0
DICTIONARY
  5
16
330
A
100
AcDbDictionary
280
0
281
1
  0
LAYOUT
  5
1A
330
D
100
AcDbPlotSettings
  1

  4
A3
  6

 40
7.5
 41
20.0
 42
7.5
 43
20.0
 44
420.0
 45
297.0
 46
0.0
 47
0.0
 48
0.0
 49
0.0
140
0.0
141
0.0
142
1.0
143
1.0
 70
1024
 72
1
 73
0
 74
5
  7

 75
16
 76
0
 77
2
 78
300
147
1.0
148
0.0
149
0.0
100
AcDbLayout
  1
Model
 70
1
 71
0
 10
0.0
 20
0.0
 11
420.0
 21
297.0
 12
0.0
 22
0.0
 32
0.0
 14
1e+20
 24
1e+20
 34
1e+20
 15
-1e+20
 25
-1e+20
 35
-1e+20
146
0.0
 13
0.0
 23
0.0
 33
0.0
 16
1.0
 26
0.0
 36
0.0
 17
0.0
 27
1.0
 37
0.0
 76
1
330
17
  0
LAYOUT
  5
1E
330
D
100
AcDbPlotSettings
  1

  4
A3
  6

 40
7.5
 41
20.0
 42
7.5
 43
20.0
 44
420.0
 45
297.0
 46
0.0
 47
0.0
 48
0.0
 49
0.0
140
0.0
141
0.0
142
1.0
143
1.0
 70
0
 72
1
 73
0
 74
5
  7

 75
16
 76
0
 77
2
 78
300
147
1.0
148
0.0
149
0.0
100
AcDbLayout
  1
Layout1
 70
1
 71
1
 10
0.0
 20
0.0
 11
420.0
 21
297.0
 12
0.0
 22
0.0
 32
0.0
 14
1e+20
 24
1e+20
 34
1e+20
 15
-1e+20
 25
-1e+20
 35
-1e+20
146
0.0
 13
0.0
 23
0.0
 33
0.0
 16
1.0
 26
0.0
 36
0.0
 17
0.0
 27
1.0
 37
0.0
 76
1
330
1B
  0
MATERIAL
  5
1F
102
{ACAD_REACTORS
330
E
102
}
330
E
100
AcDbMaterial
  1
ByBlock
  2

 70
0
 40
1.0
 71
1
 41
1.0
 91
-1023410177
 42
1.0
 72
1
  3

 73
1
 74
1
 75
1
 44
0.5
 73
0
 45
1.0
 46
1.0
 77
1
  4

 78
1
 79
1
170
1
 48
1.0
171
1
  6

172
1
173
1
174
1
140
1.0
141
1.0
175
1
  7

176
1
177
1
178
1
143
1.0
179
1
  8

270
1
271
1
272
1
145
1.0
146
1.0
273
1
  9

274
1
275
1
276
1
 42
1.0
 72
1
  3

 73
1
 74
1
 75
1
 94
63
  0
MATERIAL
  5
20
102
{ACAD_REACTORS
330
E
102
}
330
E
100
AcDbMaterial
  1
ByLayer
  2

 70
0
 40
1.0
 71
1
 41
1.0
 91
-1023410177
 42
1.0
 72
1
  3

 73
1
 74
1
 75
1
 44
0.5
 73
0
 45
1.0
 46
1.0
 77
1
  4

 78
1
 79
1
170
1
 48
1.0
171
1
  6

172
1
173
1
174
1
140
1.0
141
1.0
175
1
  7

176
1
177
1
178
1
143
1.0
179
1
  8

270
1
271
1
272
1
145
1.0
146
1.0
273
1
  9

274
1
275
1
276
1
 42
1.0
 72
1
  3

 73
1
 74
1
 75
1
 94
63
  0
MATERIAL
  5
21
102
{ACAD_REACTORS
330
E
102
}
330
E
100
AcDbMaterial
  1
Global
  2

 70
0
 40
1.0
 71
1
 41
1.0
 91
-1023410177
 42
1.0
 72
1
  3

 73
1
 74
1
 75
1
 44
0.5
 73
0
 45
1.0
 46
1.0
 77
1
  4

 78
1
 79
1
170
1
 48
1.0
171
1
  6

172
1
173
1
174
1
140
1.0
141
1.0
175
1
  7

176
1
177
1
178
1
143
1.0
179
1
  8

270
1
271
1
272
1
145
1.0
146
1.0
273
1
  9

274
1
275
1
276
1
 42
1.0
 72
1
  3

 73
1
 74
1
 75
1
 94
63
  0
MLINESTYLE
  5
22
102
{ACAD_REACTORS
330
10
102
}
330
10
100
AcDbMlineStyle
  2
Standard
 70
0
  3

 62
256
 51
90.0
 52
90.0
 71
2
 49
0.5
 62
256
  6
BYLAYER
 49
-0.5
 62
256
  6
BYLAYER
  0
MLEADERSTYLE
  5
2C
102
{ACAD_REACTORS
330
F
102
}
330
F
100
AcDbMLeaderStyle
179
2
170
2
171
1
172
0
 90
2
 40
0.0
 41
0.0
173
1
 91
-1056964608
 92
-2
290
1
 42
2.0
291
1
 43
8.0
  3
Standard
 44
4.0
300

342
29
174
1
175
1
176
0
178
1
 93
-1056964608
 45
4.0
292
0
297
0
 46
4.0
 94
-1056964608
 47
1.0
 49
1.0
140
1.0
294
1
141
0.0
177
0
142
1.0
295
0
296
0
143
3.75
271
0
272
9
273
9
  0
DICTIONARY
  5
2D
330
A
100
AcDbDictionary
280
1
281
1
  3
CREATED_BY_EZDXF
350
2E
  3
WRITTEN_BY_EZDXF
350
32
  0
DICTIONARYVAR
  5
2E
330
2D
100
DictionaryVariables
280
0
  1
1.3.5 @ 2025-08-20T01:28:29.569892+00:00
  0
DICTIONARYVAR
  5
32
330
2D
100
DictionaryVariables
280
0
  1
1.3.5 @ 2025-08-20T01:28:29.569892+00:00
  0
ENDSEC
  0
EOF
