  0
SECTION
  2
HEADER
  9
$ACADVER
  1
AC1032
  9
$ACADMAINTVER
 90
4
  9
$DWGCODEPAGE
  3
ANSI_1252
  9
$LASTSAVEDBY
  1
ezdxf
  9
$REQUIREDVERSIONS
160
0
  9
$INSBASE
 10
0.0
 20
0.0
 30
0.0
  9
$EXTMIN
 10
1e+20
 20
1e+20
 30
1e+20
  9
$EXTMAX
 10
-1e+20
 20
-1e+20
 30
-1e+20
  9
$LIMMIN
 10
0.0
 20
0.0
  9
$LIMMAX
 10
420.0
 20
297.0
  9
$ORTHOMODE
 70
0
  9
$REGENMODE
 70
1
  9
$FILLMODE
 70
1
  9
$QTEXTMODE
 70
0
  9
$MIRRTEXT
 70
1
  9
$LTSCALE
 40
1.0
  9
$ATTMODE
 70
1
  9
$TEXTSIZE
 40
2.5
  9
$TRACEWID
 40
1.0
  9
$TEXTSTYLE
  7
Standard
  9
$CLAYER
  8
0
  9
$CELTYPE
  6
ByLayer
  9
$CECOLOR
 62
256
  9
$CELTSCALE
 40
1.0
  9
$DISPSILH
 70
0
  9
$DIMSCALE
 40
1.0
  9
$DIMASZ
 40
2.5
  9
$DIMEXO
 40
0.625
  9
$DIMDLI
 40
3.75
  9
$DIMRND
 40
0.0
  9
$DIMDLE
 40
0.0
  9
$DIMEXE
 40
1.25
  9
$DIMTP
 40
0.0
  9
$DIMTM
 40
0.0
  9
$DIMTXT
 40
2.5
  9
$DIMCEN
 40
2.5
  9
$DIMTSZ
 40
0.0
  9
$DIMTOL
 70
0
  9
$DIMLIM
 70
0
  9
$DIMTIH
 70
0
  9
$DIMTOH
 70
0
  9
$DIMSE1
 70
0
  9
$DIMSE2
 70
0
  9
$DIMTAD
 70
1
  9
$DIMZIN
 70
8
  9
$DIMBLK
  1

  9
$DIMASO
 70
1
  9
$DIMSHO
 70
1
  9
$DIMPOST
  1

  9
$DIMAPOST
  1

  9
$DIMALT
 70
0
  9
$DIMALTD
 70
3
  9
$DIMALTF
 40
0.03937007874
  9
$DIMLFAC
 40
1.0
  9
$DIMTOFL
 70
1
  9
$DIMTVP
 40
0.0
  9
$DIMTIX
 70
0
  9
$DIMSOXD
 70
0
  9
$DIMSAH
 70
0
  9
$DIMBLK1
  1

  9
$DIMBLK2
  1

  9
$DIMSTYLE
  2
ISO-25
  9
$DIMCLRD
 70
0
  9
$DIMCLRE
 70
0
  9
$DIMCLRT
 70
0
  9
$DIMTFAC
 40
1.0
  9
$DIMGAP
 40
0.625
  9
$DIMJUST
 70
0
  9
$DIMSD1
 70
0
  9
$DIMSD2
 70
0
  9
$DIMTOLJ
 70
0
  9
$DIMTZIN
 70
8
  9
$DIMALTZ
 70
0
  9
$DIMALTTZ
 70
0
  9
$DIMUPT
 70
0
  9
$DIMDEC
 70
2
  9
$DIMTDEC
 70
2
  9
$DIMALTU
 70
2
  9
$DIMALTTD
 70
3
  9
$DIMTXSTY
  7
Standard
  9
$DIMAUNIT
 70
0
  9
$DIMADEC
 70
0
  9
$DIMALTRND
 40
0.0
  9
$DIMAZIN
 70
0
  9
$DIMDSEP
 70
44
  9
$DIMATFIT
 70
3
  9
$DIMFRAC
 70
0
  9
$DIMLDRBLK
  1

  9
$DIMLUNIT
 70
2
  9
$DIMLWD
 70
-2
  9
$DIMLWE
 70
-2
  9
$DIMTMOVE
 70
0
  9
$DIMFXL
 40
1.0
  9
$DIMFXLON
 70
0
  9
$DIMJOGANG
 40
0.785398163397
  9
$DIMTFILL
 70
0
  9
$DIMTFILLCLR
 70
0
  9
$DIMARCSYM
 70
0
  9
$DIMLTYPE
  6

  9
$DIMLTEX1
  6

  9
$DIMLTEX2
  6

  9
$DIMTXTDIRECTION
 70
0
  9
$LUNITS
 70
2
  9
$LUPREC
 70
4
  9
$SKETCHINC
 40
1.0
  9
$FILLETRAD
 40
10.0
  9
$AUNITS
 70
0
  9
$AUPREC
 70
2
  9
$MENU
  1
.
  9
$ELEVATION
 40
0.0
  9
$PELEVATION
 40
0.0
  9
$THICKNESS
 40
0.0
  9
$LIMCHECK
 70
0
  9
$CHAMFERA
 40
0.0
  9
$CHAMFERB
 40
0.0
  9
$CHAMFERC
 40
0.0
  9
$CHAMFERD
 40
0.0
  9
$SKPOLY
 70
0
  9
$TDCREATE
 40
2460908.103113426
  9
$TDUCREATE
 40
2458532.153996898
  9
$TDUPDATE
 40
2460908.103113426
  9
$TDUUPDATE
 40
2458532.1544311
  9
$TDINDWG
 40
0.0
  9
$TDUSRTIMER
 40
0.0
  9
$USRTIMER
 70
1
  9
$ANGBASE
 50
0.0
  9
$ANGDIR
 70
0
  9
$PDMODE
 70
0
  9
$PDSIZE
 40
0.0
  9
$PLINEWID
 40
0.0
  9
$SPLFRAME
 70
0
  9
$SPLINETYPE
 70
6
  9
$SPLINESEGS
 70
8
  9
$HANDSEED
  5
33
  9
$SURFTAB1
 70
6
  9
$SURFTAB2
 70
6
  9
$SURFTYPE
 70
6
  9
$SURFU
 70
6
  9
$SURFV
 70
6
  9
$UCSBASE
  2

  9
$UCSNAME
  2

  9
$UCSORG
 10
0.0
 20
0.0
 30
0.0
  9
$UCSXDIR
 10
1.0
 20
0.0
 30
0.0
  9
$UCSYDIR
 10
0.0
 20
1.0
 30
0.0
  9
$UCSORTHOREF
  2

  9
$UCSORTHOVIEW
 70
0
  9
$UCSORGTOP
 10
0.0
 20
0.0
 30
0.0
  9
$UCSORGBOTTOM
 10
0.0
 20
0.0
 30
0.0
  9
$UCSORGLEFT
 10
0.0
 20
0.0
 30
0.0
  9
$UCSORGRIGHT
 10
0.0
 20
0.0
 30
0.0
  9
$UCSORGFRONT
 10
0.0
 20
0.0
 30
0.0
  9
$UCSORGBACK
 10
0.0
 20
0.0
 30
0.0
  9
$PUCSBASE
  2

  9
$PUCSNAME
  2

  9
$PUCSORG
 10
0.0
 20
0.0
 30
0.0
  9
$PUCSXDIR
 10
1.0
 20
0.0
 30
0.0
  9
$PUCSYDIR
 10
0.0
 20
1.0
 30
0.0
  9
$PUCSORTHOREF
  2

  9
$PUCSORTHOVIEW
 70
0
  9
$PUCSORGTOP
 10
0.0
 20
0.0
 30
0.0
  9
$PUCSORGBOTTOM
 10
0.0
 20
0.0
 30
0.0
  9
$PUCSORGLEFT
 10
0.0
 20
0.0
 30
0.0
  9
$PUCSORGRIGHT
 10
0.0
 20
0.0
 30
0.0
  9
$PUCSORGFRONT
 10
0.0
 20
0.0
 30
0.0
  9
$PUCSORGBACK
 10
0.0
 20
0.0
 30
0.0
  9
$USERI1
 70
0
  9
$USERI2
 70
0
  9
$USERI3
 70
0
  9
$USERI4
 70
0
  9
$USERI5
 70
0
  9
$USERR1
 40
0.0
  9
$USERR2
 40
0.0
  9
$USERR3
 40
0.0
  9
$USERR4
 40
0.0
  9
$USERR5
 40
0.0
  9
$WORLDVIEW
 70
1
  9
$SHADEDGE
 70
3
  9
$SHADEDIF
 70
70
  9
$TILEMODE
 70
1
  9
$MAXACTVP
 70
64
  9
$PINSBASE
 10
0.0
 20
0.0
 30
0.0
  9
$PLIMCHECK
 70
0
  9
$PEXTMIN
 10
1e+20
 20
1e+20
 30
1e+20
  9
$PEXTMAX
 10
-1e+20
 20
-1e+20
 30
-1e+20
  9
$PLIMMIN
 10
0.0
 20
0.0
  9
$PLIMMAX
 10
420.0
 20
297.0
  9
$UNITMODE
 70
0
  9
$VISRETAIN
 70
1
  9
$PLINEGEN
 70
0
  9
$PSLTSCALE
 70
1
  9
$TREEDEPTH
 70
3020
  9
$CMLSTYLE
  2
Standard
  9
$CMLJUST
 70
0
  9
$CMLSCALE
 40
20.0
  9
$PROXYGRAPHICS
 70
1
  9
$MEASUREMENT
 70
1
  9
$CELWEIGHT
370
-1
  9
$ENDCAPS
280
0
  9
$JOINSTYLE
280
0
  9
$LWDISPLAY
290
0
  9
$INSUNITS
 70
6
  9
$HYPERLINKBASE
  1

  9
$STYLESHEET
  1

  9
$XEDIT
290
1
  9
$CEPSNTYPE
380
0
  9
$PSTYLEMODE
290
1
  9
$FINGERPRINTGUID
  2
{87C90FFA-6427-4C72-9AE2-EDF50086ACDD}
  9
$VERSIONGUID
  2
{193474A4-9C76-449B-AB67-3CEF4B8EF09B}
  9
$EXTNAMES
290
1
  9
$PSVPSCALE
 40
0.0
  9
$OLESTARTUP
290
0
  9
$SORTENTS
280
127
  9
$INDEXCTL
280
0
  9
$HIDETEXT
280
1
  9
$XCLIPFRAME
280
1
  9
$HALOGAP
280
0
  9
$OBSCOLOR
 70
257
  9
$OBSLTYPE
280
0
  9
$INTERSECTIONDISPLAY
280
0
  9
$INTERSECTIONCOLOR
 70
257
  9
$DIMASSOC
280
2
  9
$PROJECTNAME
  1

  9
$CAMERADISPLAY
290
0
  9
$LENSLENGTH
 40
50.0
  9
$CAMERAHEIGHT
 40
0.0
  9
$STEPSPERSEC
 40
24.0
  9
$STEPSIZE
 40
100.0
  9
$3DDWFPREC
 40
2.0
  9
$PSOLWIDTH
 40
0.005
  9
$PSOLHEIGHT
 40
0.08
  9
$LOFTANG1
 40
1.570796326795
  9
$LOFTANG2
 40
1.570796326795
  9
$LOFTMAG1
 40
0.0
  9
$LOFTMAG2
 40
0.0
  9
$LOFTPARAM
 70
7
  9
$LOFTNORMALS
280
1
  9
$LATITUDE
 40
37.795
  9
$LONGITUDE
 40
-122.394
  9
$NORTHDIRECTION
 40
0.0
  9
$TIMEZONE
 70
-8000
  9
$LIGHTGLYPHDISPLAY
280
1
  9
$TILEMODELIGHTSYNCH
280
1
  9
$CMATERIAL
347
20
  9
$SOLIDHIST
280
0
  9
$SHOWHIST
280
1
  9
$DWFFRAME
280
2
  9
$DGNFRAME
280
2
  9
$REALWORLDSCALE
290
1
  9
$INTERFERECOLOR
 62
256
  9
$CSHADOW
280
0
  9
$SHADOWPLANELOCATION
 40
0.0
  0
ENDSEC
  0
SECTION
  2
CLASSES
  0
CLASS
  1
ACDBDICTIONARYWDFLT
  2
AcDbDictionaryWithDefault
  3
ObjectDBX Classes
 90
0
 91
0
280
0
281
0
  0
CLASS
  1
SUN
  2
AcDbSun
  3
SCENEOE
 90
1153
 91
0
280
0
281
0
  0
CLASS
  1
VISUALSTYLE
  2
AcDbVisualStyle
  3
ObjectDBX Classes
 90
4095
 91
0
280
0
281
0
  0
CLASS
  1
MATERIAL
  2
AcDbMaterial
  3
ObjectDBX Classes
 90
1153
 91
0
280
0
281
0
  0
CLASS
  1
SCALE
  2
AcDbScale
  3
ObjectDBX Classes
 90
1153
 91
0
280
0
281
0
  0
CLASS
  1
TABLESTYLE
  2
AcDbTableStyle
  3
ObjectDBX Classes
 90
4095
 91
0
280
0
281
0
  0
CLASS
  1
MLEADERSTYLE
  2
AcDbMLeaderStyle
  3
ACDB_MLEADERSTYLE_CLASS
 90
4095
 91
0
280
0
281
0
  0
CLASS
  1
DICTIONARYVAR
  2
AcDbDictionaryVar
  3
ObjectDBX Classes
 90
0
 91
0
280
0
281
0
  0
CLASS
  1
CELLSTYLEMAP
  2
AcDbCellStyleMap
  3
ObjectDBX Classes
 90
1152
 91
0
280
0
281
0
  0
CLASS
  1
MENTALRAYRENDERSETTINGS
  2
AcDbMentalRayRenderSettings
  3
SCENEOE
 90
1024
 91
0
280
0
281
0
  0
CLASS
  1
ACDBDETAILVIEWSTYLE
  2
AcDbDetailViewStyle
  3
ObjectDBX Classes
 90
1025
 91
0
280
0
281
0
  0
CLASS
  1
ACDBSECTIONVIEWSTYLE
  2
AcDbSectionViewStyle
  3
ObjectDBX Classes
 90
1025
 91
0
280
0
281
0
  0
CLASS
  1
RASTERVARIABLES
  2
AcDbRasterVariables
  3
ISM
 90
0
 91
0
280
0
281
0
  0
CLASS
  1
LAYOUT
  2
AcDbLayout
  3
ObjectDBX Classes
 90
0
 91
0
280
0
281
0
  0
CLASS
  1
ACDBPLACEHOLDER
  2
AcDbPlaceHolder
  3
ObjectDBX Classes
 90
0
 91
0
280
0
281
0
  0
ENDSEC
  0
SECTION
  2
TABLES
  0
TABLE
  2
VPORT
  5
8
330
0
100
AcDbSymbolTable
 70
1
  0
VPORT
  5
23
330
8
100
AcDbSymbolTableRecord
100
AcDbViewportTableRecord
  2
*Active
 70
0
 10
0.0
 20
0.0
 11
1.0
 21
1.0
 12
0.0
 22
0.0
 13
0.0
 23
0.0
 14
0.5
 24
0.5
 15
0.5
 25
0.5
 16
0.0
 26
0.0
 36
1.0
 17
0.0
 27
0.0
 37
0.0
 40
1000.0
 41
1.34
 42
50.0
 43
0.0
 44
0.0
 50
0.0
 51
0.0
 71
0
 72
1000
 73
1
 74
3
 75
0
 76
0
 77
0
 78
0
281
0
 65
0
146
0.0
  0
ENDTAB
  0
TABLE
  2
LTYPE
  5
2
330
0
100
AcDbSymbolTable
 70
3
  0
LTYPE
  5
24
330
2
100
AcDbSymbolTableRecord
100
AcDbLinetypeTableRecord
  2
ByBlock
 70
0
  3

 72
65
 73
0
 40
0.0
  0
LTYPE
  5
25
330
2
100
AcDbSymbolTableRecord
100
AcDbLinetypeTableRecord
  2
ByLayer
 70
0
  3

 72
65
 73
0
 40
0.0
  0
LTYPE
  5
26
330
2
100
AcDbSymbolTableRecord
100
AcDbLinetypeTableRecord
  2
Continuous
 70
0
  3

 72
65
 73
0
 40
0.0
  0
ENDTAB
  0
TABLE
  2
LAYER
  5
1
330
0
100
AcDbSymbolTable
 70
2
  0
LAYER
  5
27
330
1
100
AcDbSymbolTableRecord
100
AcDbLayerTableRecord
  2
0
 70
0
 62
7
  6
Continuous
370
-3
390
13
347
21
  0
LAYER
  5
28
330
1
100
AcDbSymbolTableRecord
100
AcDbLayerTableRecord
  2
Defpoints
 70
0
 62
7
  6
Continuous
290
0
370
-3
390
13
347
21
  0
ENDTAB
  0
TABLE
  2
STYLE
  5
5
330
0
100
AcDbSymbolTable
 70
1
  0
STYLE
  5
29
330
5
100
AcDbSymbolTableRecord
100
AcDbTextStyleTableRecord
  2
Standard
 70
0
 40
0.0
 41
1.0
 50
0.0
 71
0
 42
2.5
  3
txt
  4

  0
ENDTAB
  0
TABLE
  2
VIEW
  5
7
330
0
100
AcDbSymbolTable
 70
0
  0
ENDTAB
  0
TABLE
  2
UCS
  5
6
330
0
100
AcDbSymbolTable
 70
0
  0
ENDTAB
  0
TABLE
  2
APPID
  5
3
330
0
100
AcDbSymbolTable
 70
3
  0
APPID
  5
2A
330
3
100
AcDbSymbolTableRecord
100
AcDbRegAppTableRecord
  2
ACAD
 70
0
  0
APPID
  5
30
330
3
100
AcDbSymbolTableRecord
100
AcDbRegAppTableRecord
  2
HATCHBACKGROUNDCOLOR
 70
0
  0
APPID
  5
31
330
3
100
AcDbSymbolTableRecord
100
AcDbRegAppTableRecord
  2
EZDXF
 70
0
  0
ENDTAB
  0
TABLE
  2
DIMSTYLE
  5
4
330
0
100
AcDbSymbolTable
 70
1
100
AcDbDimStyleTable
  0
DIMSTYLE
105
2B
330
4
100
AcDbSymbolTableRecord
100
AcDbDimStyleTableRecord
  2
Standard
 70
0
 40
1.0
 41
2.5
 42
0.625
 43
3.75
 44
1.25
 45
0.0
 46
0.0
 47
0.0
 48
0.0
 49
2.5
140
2.5
141
2.5
142
0.0
143
0.03937007874
144
1.0
145
0.0
146
1.0
147
0.625
148
0.0
 69
0
 70
0
 71
0
 72
0
 73
0
 74
0
 75
0
 76
0
 77
1
 78
8
 79
3
170
0
171
3
172
1
173
0
174
0
175
0
176
0
177
0
178
0
179
2
271
2
272
2
273
2
274
3
275
0
276
0
277
2
278
44
279
0
280
0
281
0
282
0
283
0
284
8
285
0
286
0
288
0
289
3
290
0
371
-2
372
-2
  0
ENDTAB
  0
TABLE
  2
BLOCK_RECORD
  5
9
330
0
100
AcDbSymbolTable
 70
2
  0
BLOCK_RECORD
  5
17
330
9
100
AcDbSymbolTableRecord
100
AcDbBlockTableRecord
  2
*Model_Space
340
1A
 70
0
280
1
281
0
  0
BLOCK_RECORD
  5
1B
330
9
100
AcDbSymbolTableRecord
100
AcDbBlockTableRecord
  2
*Paper_Space
340
1E
 70
0
280
1
281
0
  0
ENDTAB
  0
ENDSEC
  0
SECTION
  2
BLOCKS
  0
BLOCK
  5
18
330
17
100
AcDbEntity
  8
0
100
AcDbBlockBegin
  2
*Model_Space
 70
0
 10
0.0
 20
0.0
 30
0.0
  3
*Model_Space
  1

  0
ENDBLK
  5
19
330
17
100
AcDbEntity
  8
0
100
AcDbBlockEnd
  0
BLOCK
  5
1C
330
1B
100
AcDbEntity
  8
0
100
AcDbBlockBegin
  2
*Paper_Space
 70
0
 10
0.0
 20
0.0
 30
0.0
  3
*Paper_Space
  1

  0
ENDBLK
  5
1D
330
1B
100
AcDbEntity
  8
0
100
AcDbBlockEnd
  0
ENDSEC
  0
SECTION
  2
ENTITIES
  0
LWPOLYLINE
  5
2F
330
17
100
AcDbEntity
  8
0
100
AcDbPolyline
 90
721
 70
1
 10
58.701595271180004
 20
6.942711226298769
 10
58.69986121762471
 20
6.943117116803084
 10
58.69467925386011
 20
6.944159321329467
 10
58.68608970307029
 20
6.945487519425732
 10
58.67398487383194
 20
6.9472657750284394
 10
58.658570090894464
 20
6.949253343174358
 10
58.63974774110847
 20
6.951526729598463
 10
58.61744034769575
 20
6.953987498924256
 10
58.591823010672236
 20
6.956657493147412
 10
58.562818253259714
 20
6.959438276891432
 10
58.53031835376979
 20
6.962494177030419
 10
58.49451858894303
 20
6.965671743865184
 10
58.455331383550536
 20
6.968960275512511
 10
58.41274664923001
 20
6.972447417819828
 10
58.366784562706044
 20
6.975957879092274
 10
58.317424927077326
 20
6.979667126316404
 10
58.26476538575829
 20
6.983498390819704
 10
58.208718363520084
 20
6.987440970718952
 10
58.149273772000406
 20
6.991582511861582
 10
58.08653932279927
 20
6.995758775019337
 10
58.02040727405157
 20
7.000134262358018
 10
57.95089779239353
 20
7.004533769828606
 10
57.87816579102817
 20
7.009154518767487
 10
57.801958693161296
 20
7.013876231802489
 10
57.7225391336843
 20
7.018731803395896
 10
57.639732002492856
 20
7.023699479197879
 10
57.55362482437406
 20
7.028790399320895
 10
57.46421758923953
 20
7.0340046514107915
 10
57.37150019863863
 20
7.0394299689608495
 10
57.27547262230625
 20
7.0450666149086105
 10
57.176155026878654
 20
7.050739385205058
 10
57.07352722554284
 20
7.056623659190901
 10
56.967686821359855
 20
7.062643018777016
 10
56.85853617091524
 20
7.068874232635917
 10
56.74609541058011
 20
7.075142359656132
 10
56.63043191868206
 20
7.0816335687074385
 10
56.51153557659373
 20
7.088435768574813
 10
56.38943662922526
 20
7.095286197007652
 10
56.264027314534786
 20
7.102349531463447
 10
56.135492820900616
 20
7.109559968090446
 10
56.00364791959101
 20
7.116983661323792
 10
55.868667700533585
 20
7.124642540805008
 10
55.73046457841108
 20
7.132525992296725
 10
55.58912608809896
 20
7.140645068265548
 10
55.44457473264224
 20
7.148901508626677
 10
55.296898046916354
 20
7.1573063658467175
 10
55.145988268879506
 20
7.166024317383167
 10
54.99203057682157
 20
7.174989647030113
 10
54.8349373854253
 20
7.184191740550185
 10
54.674708674513965
 20
7.193630773235077
 10
54.51134439364577
 20
7.203307183314028
 10
54.34492200951058
 20
7.213319493809384
 10
54.17536400497671
 20
7.2235696199280355
 10
54.002747836645675
 20
7.234156172338175
 10
53.82708354243795
 20
7.24499194342161
 10
53.64839128898977
 20
7.255901729129325
 10
53.466738414275255
 20
7.2670720489144855
 10
53.28201716634094
 20
7.278667492588738
 10
53.09422749474501
 20
7.290688498381318
 10
52.90348720953815
 20
7.302883093570691
 10
52.70978618200463
 20
7.315339274587685
 10
52.51312439196769
 20
7.328057216723986
 10
52.3134715238987
 20
7.341300295751135
 10
52.11087798934399
 20
7.35463054536951
 10
51.90541114645442
 20
7.368234309740585
 10
51.69706087660262
 20
7.382199497649336
 10
51.4857294960207
 20
7.396603228351671
 10
51.27160217291021
 20
7.411379873287529
 10
51.054601400227774
 20
7.4264312600179485
 10
50.8347271577967
 20
7.4417575638346305
 10
50.61204678359113
 20
7.4575453041907425
 10
50.38660059070676
 20
7.473444248279944
 10
50.158280827190126
 20
7.489618985913879
 10
49.92725247442984
 20
7.506179267873201
 10
49.69351550216079
 20
7.523125357095452
 10
49.45700250179033
 20
7.540271347648395
 10
49.21770333451432
 20
7.557705323608699
 10
48.97579309026041
 20
7.57544921461789
 10
48.73116399689838
 20
7.593667785779306
 10
48.483846289250046
 20
7.612098362488193
 10
48.233927492102445
 20
7.630752084857008
 10
47.98140757519051
 20
7.6496292158232935
 10
47.72626631134787
 20
7.668905485311153
 10
47.468503670309424
 20
7.6885811562581265
 10
47.20812971017236
 20
7.708568845754324
 10
46.94532960922659
 20
7.728802837593841
 10
46.67991810847533
 20
7.74934954914936
 10
46.41198274279401
 20
7.770220032887496
 10
46.141641312144955
 20
7.791162403732559
 10
45.8687961125835
 20
7.812253956232149
 10
45.59350441389827
 20
7.833768680395179
 10
45.31585375096468
 20
7.855717628688252
 10
45.035689119784436
 20
7.87790436858761
 10
44.75321589554875
 20
7.900087716900785
 10
44.46839368445504
 20
7.922618607600896
 10
44.181232544600455
 20
7.945409657778051
 10
43.89172234726931
 20
7.968548863863077
 10
43.59997079397323
 20
7.991872074273561
 10
43.30597786453551
 20
8.015379464301203
 10
43.0096559433738
 20
8.03906068264617
 10
42.711170042141795
 20
8.06302521715157
 10
42.41043256543387
 20
8.087262541225881
 10
42.107551224850056
 20
8.111608415640848
 10
41.80252598003689
 20
8.13606319097986
 10
41.49544437595821
 20
8.160637832063678
 10
41.18620870866934
 20
8.185409633439907
 10
40.874886346409546
 20
8.210564851624172
 10
40.561419928594965
 20
8.235830285420194
 10
40.24606208246164
 20
8.261325773970912
 10
39.92867797064752
 20
8.28667968070355
 10
39.60925745434846
 20
8.311980089694773
 10
39.28794539875866
 20
8.337511517545014
 10
38.9647316751624
 20
8.363361960685097
 10
38.63947136792367
 20
8.389247340743825
 10
38.3125349345059
 20
8.41503534885091
 10
37.98366969723125
 20
8.44060658409265
 10
37.653020501117176
 20
8.466245738361172
 10
37.32048965230742
 20
8.492030018558227
 10
36.98626236944536
 20
8.517893357894526
 10
36.650281312123845
 20
8.543562379882083
 10
36.312613848582124
 20
8.569223341036533
 10
35.97323976174216
 20
8.59505188363613
 10
35.632209473238674
 20
8.620609953735404
 10
35.28953304116888
 20
8.645810168424465
 10
34.945335154002386
 20
8.671112335998613
 10
34.59945070929026
 20
8.696407757427366
 10
34.25204474895124
 20
8.721805657616285
 10
33.90317778298241
 20
8.74678033677248
 10
33.55283969275631
 20
8.771419703680916
 10
33.20101028137168
 20
8.79589922532816
 10
32.84765923329984
 20
8.820482277485743
 10
32.49300207262446
 20
8.844839505238685
 10
32.136903931718365
 20
8.868599534951743
 10
31.779597301446458
 20
8.892057146879333
 10
31.420856518920985
 20
8.915629780013113
 10
31.060809522908343
 20
8.938977465200722
 10
30.69949661641588
 20
8.96175005728167
 10
30.337072803441902
 20
8.984143988779719
 10
29.973352774547777
 20
9.006226115296794
 10
29.608501601917393
 20
9.02810539880092
 10
29.242441758330674
 20
9.04968384214483
 10
28.875280995741107
 20
9.070796855516887
 10
28.507106889377578
 20
9.091455140800306
 10
28.13783181356939
 20
9.111648434341108
 10
27.76763094903941
 20
9.131397876968187
 10
27.39632907471132
 20
9.150682678436036
 10
27.0240811744067
 20
9.169699446560115
 10
26.650897346576183
 20
9.188360447847142
 10
26.276827992677788
 20
9.206227803643346
 10
25.90185291581019
 20
9.223476980935285
 10
25.526137218422353
 20
9.240216678753445
 10
25.14949559107566
 20
9.256513752699746
 10
24.772123391217566
 20
9.272214051908225
 10
24.39403069712199
 20
9.287230018177297
 10
24.015227587062878
 20
9.301474093305375
 10
23.635693843962176
 20
9.315121919570714
 10
23.255506995039976
 20
9.328271494120578
 10
22.874667010031157
 20
9.34092307989251
 10
22.493291749428224
 20
9.352824265935736
 10
22.11130368601112
 20
9.363877055102995
 10
21.728800493459385
 20
9.374004415784226
 10
21.34583951218014
 20
9.383479724467405
 10
20.962302851415807
 20
9.392555655040846
 10
20.578385898878942
 20
9.401077793701042
 10
20.194081745885487
 20
9.4083346223687
 10
19.809329831996653
 20
9.41485227906596
 10
19.424295310103183
 20
9.420739024594063
 10
19.03891071108223
 20
9.425809478895864
 10
18.653186133384434
 20
9.429975908478076
 10
18.267266512822548
 20
9.433522216420204
 10
17.88107434235323
 20
9.436350230283287
 10
17.494727472380603
 20
9.438207626762402
 10
17.108138287322326
 20
9.43908405455772
 10
16.721471940069172
 20
9.439087774470487
 10
16.33471832208211
 20
9.438306607639825
 10
15.94790770853639
 20
9.436477528877598
 10
15.561029990892978
 20
9.433688359322929
 10
15.174162706460304
 20
9.43003700847723
 10
14.78718797456915
 20
9.425776062582974
 10
14.400341556557947
 20
9.420400349155225
 10
14.013623452426684
 20
9.413909868193981
 10
13.627023583901442
 20
9.40639217790083
 10
13.240531842443215
 20
9.3979350994149
 10
12.854245962261713
 20
9.388461075251042
 10
12.46806822932394
 20
9.378047487602712
 10
12.08218397324524
 20
9.366627305576285
 10
11.696613380838555
 20
9.354025149831054
 10
11.311346363741595
 20
9.340328666214448
 10
10.926372843680427
 20
9.325625412928055
 10
10.541702909017356
 20
9.309827744124439
 10
10.157532007995083
 20
9.292780720125009
 10
9.773752328129971
 20
9.274649456616494
 10
9.390431338544866
 20
9.255619333656046
 10
9.00753185538051
 20
9.235241858352522
 10
8.625208963342102
 20
9.213712762062901
 10
8.243432427607853
 20
9.191294719391943
 10
7.862144867417221
 20
9.167714704435063
 10
7.48154175118963
 20
9.14281760222197
 10
7.1016029122888655
 20
9.116778616801678
 10
6.722260891680432
 20
9.089412280471196
 10
6.34367080433463
 20
9.060914061649957
 10
5.9657652013053175
 20
9.031098404989116
 10
5.588709275836711
 20
9.000073220706533
 10
5.212297511500536
 20
8.96808091903653
 10
4.8367253767162275
 20
8.934966385008826
 10
4.462033224932939
 20
8.900379035233692
 10
4.088210998053463
 20
8.864406252621015
 10
3.715316066750019
 20
8.827321150721229
 10
3.3433585597383373
 20
8.789035733103509
 10
2.9723485754690673
 20
8.74946226627458
 10
2.602373769878007
 20
8.708610750950882
 10
2.2333263304815065
 20
8.66664630281914
 10
1.8652737667558732
 20
8.623753951353123
 10
1.498344077997692
 20
8.579593201525386
 10
1.132557461108262
 20
8.533988586349372
 10
0.7678937696280929
 20
8.487115134582401
 10
0.404431489171667
 20
8.439062517016229
 10
0.0420846082062317
 20
8.389806446661288
 10
-0.31906928551797153
 20
8.339444394789755
 10
-0.6789526345158112
 20
8.288074095611346
 10
-1.0376127311855536
 20
8.235334877374049
 10
-1.3949619296797722
 20
8.18123682844015
 10
-1.7509630259624753
 20
8.1262282664091
 10
-2.10568348915652
 20
8.070123811223745
 10
-2.458937939204752
 20
8.01285599376123
 10
-2.8109016678020393
 20
7.954404637296977
 10
-3.161399383253507
 20
7.89478991855557
 10
-3.510363616436312
 20
7.83419721759415
 10
-3.8579797474076014
 20
7.772694003535579
 10
-4.204109688508504
 20
7.7098521355049865
 10
-4.548638678217882
 20
7.646217665311537
 10
-4.891674539107739
 20
7.5819557962878115
 10
-5.23324438685179
 20
7.516530564986925
 10
-5.573085283907729
 20
7.449972236495746
 10
-5.9113151412098555
 20
7.38253365999428
 10
-6.2479440471204635
 20
7.31430248132996
 10
-6.582951824914962
 20
7.245103408807921
 10
-6.91617327126079
 20
7.175044265000172
 10
-7.247783677852803
 20
7.1041048731821395
 10
-7.577638018083004
 20
7.0325683476206935
 10
-7.905716115226819
 20
6.960259396620972
 10
-8.232007880921955
 20
6.88709037433554
 10
-8.556523403530706
 20
6.813148926611833
 10
-8.879195213930208
 20
6.738620433507
 10
-9.200110957967901
 20
6.663494806658757
 10
-9.51907516722434
 20
6.587616931096814
 10
-9.836087841699527
 20
6.510986806821172
 10
-10.151226538878603
 20
6.4335066996221055
 10
-10.464413701276428
 20
6.355274343709341
 10
-10.775679593979863
 20
6.276552676625174
 10
-11.084946659503764
 20
6.197439432579325
 10
-11.392174544398982
 20
6.1175840281820655
 10
-11.697450894512945
 20
6.036976375071106
 10
-12.00050268394107
 20
5.955559092485879
 10
-12.301535469465087
 20
5.873574941244104
 10
-12.60055933944728
 20
5.791111567193215
 10
-12.897399002192788
 20
5.708189147057791
 10
-13.192044369339328
 20
5.6247200349903945
 10
-13.484552821647455
 20
5.540431205086445
 10
-13.774877066718899
 20
5.455683329097956
 10
-14.063047369640525
 20
5.370739344567227
 10
-14.348925642753455
 20
5.285171110619384
 10
-14.63259953190512
 20
5.1989685388921405
 10
-14.913913922125236
 20
5.112327097804935
 10
-15.192956459261236
 20
5.025236698995481
 10
-15.469737231675406
 20
4.9377849883112095
 10
-15.744138328433449
 20
4.849719116572114
 10
-16.01617992625994
 20
4.761214375473056
 10
-16.285862025154884
 20
4.672270765014038
 10
-16.553224978567428
 20
4.58323886858479
 10
-16.818083406440426
 20
4.494051217062455
 10
-17.08058233538187
 20
4.4044246961801585
 10
-17.34061394281975
 20
4.3141941026053265
 10
-17.598130936355805
 20
4.2237201080899744
 10
-17.85324113856202
 20
4.1331679159666805
 10
-18.105816550141828
 20
4.042197031208002
 10
-18.355789701972355
 20
3.9509928338710942
 10
-18.60334597411077
 20
3.8596227930788114
 10
-18.848310074862205
 20
3.76810708555573
 10
-19.090651739139787
 20
3.6761827737595527
 10
-19.330401232030397
 20
3.584112795232578
 10
-19.567568641896308
 20
3.4919847958222365
 10
-19.802143880375233
 20
3.399711129681098
 10
-20.034039301619746
 20
3.30730188517145
 10
-20.26324481726755
 20
3.214669416445859
 10
-20.489858161528385
 20
3.121891280989471
 10
-20.713704042707366
 20
3.0289876555268607
 10
-20.93480263752907
 20
2.9361338317528944
 10
-21.1533090609638
 20
2.8431343412481302
 10
-21.36896037546925
 20
2.7500194490994323
 10
-21.581834138530567
 20
2.6566914210970816
 10
-21.791970703596895
 20
2.5635008406308066
 10
-21.999370070668242
 20
2.4704477077006075
 10
-22.2039244171726
 20
2.3773668189739077
 10
-22.405623654747682
 20
2.284170528603275
 10
-22.60454534087862
 20
2.1907611023789895
 10
-22.800564625682007
 20
2.097596946262789
 10
-22.993759066642983
 20
2.0045803260449526
 10
-23.18410848703696
 20
1.9115359500306157
 10
-23.371525241016514
 20
1.8184739065820663
 10
-23.55602950530622
 20
1.7255694873941703
 10
-23.737601103181508
 20
1.6326474007720624
 10
-23.91625012300466
 20
1.5397952925631748
 10
-24.091986653137962
 20
1.4471008086149393
 10
-24.26470287100941
 20
1.354398745594781
 10
-24.43442904170587
 20
1.2619520410449967
 10
-24.601212457625614
 20
1.1694000232135666
 10
-24.76500582637037
 20
1.077103363852511
 10
-24.925799059577844
 20
0.9849744171143962
 10
-25.08358206888575
 20
0.8929255371517905
 10
-25.23826720844666
 20
0.8009668123269819
 10
-25.389952212470288
 20
0.7091758001251148
 10
-25.53857970019607
 20
0.6178255264507747
 10
-25.68412949489943
 20
0.5267406996090972
 10
-25.82660159658037
 20
0.4359213196000802
 10
-25.966093739448603
 20
0.3454449439088697
 10
-26.102420543446982
 20
0.25524410341261
 10
-26.23568983114751
 20
0.16548400144387818
 10
-26.365834133427345
 20
0.07635001805982462
 10
-26.492941096133904
 20
-0.012167935101835952
 10
-26.616902896695187
 20
-0.10023506137368113
 10
-26.73781726932091
 20
-0.1877738032705678
 10
-26.855508922316215
 20
-0.27476398406791763
 10
-26.970173324100536
 20
-0.36105048879544427
 10
-27.081645271341294
 20
-0.44652549488113624
 10
-27.18999223316136
 20
-0.5313743823821491
 10
-27.295214209560722
 20
-0.6155971512984815
 10
-27.397311200539374
 20
-0.6991938016301334
 10
-27.496215736974474
 20
-0.7819789533199519
 10
-27.59192781886602
 20
-0.8639526063679371
 10
-27.684504826974575
 20
-0.9453877866786747
 10
-27.77388938053957
 20
-1.0260114683475792
 10
-27.860041126111852
 20
-1.106174234764379
 10
-27.943000417140578
 20
-1.1855255025393465
 10
-28.02272690017659
 20
-1.26441585506221
 10
-28.09924075194447
 20
-1.342670000638104
 10
-28.172541972444222
 20
-1.4202879392670307
 10
-28.24253282746611
 20
-1.497347228434132
 10
-28.30940878542959
 20
-1.5736927531691212
 10
-28.37287664370549
 20
-1.6495571859274296
 10
-28.43321951656069
 20
-1.724795500101058
 10
-28.490252023938037
 20
-1.799475164812862
 10
-28.544004430924396
 20
-1.8733332425205438
 10
-28.594544206642613
 20
-1.9465551132812573
 10
-28.641793793607558
 20
-2.019043042885281
 10
-28.68579354526838
 20
-2.0904464479428864
 10
-28.726600842385636
 20
-2.1610383543586575
 10
-28.76414821583648
 20
-2.2306333820754425
 10
-28.798455842345493
 20
-2.299056239398376
 10
-28.829564075361823
 20
-2.3659563429377277
 10
-28.857472914885463
 20
-2.4313336926934994
 10
-28.88229018348844
 20
-2.4950230853331123
 10
-28.90389103128732
 20
-2.5565661148948298
 10
-28.92240345757868
 20
-2.6156222863512086
 10
-28.938015991832856
 20
-2.6713252295902135
 10
-28.95062396089099
 20
-2.7230412469552427
 10
-28.960476424397132
 20
-2.7693780932496628
 10
-28.967822441995327
 20
-2.8089435232768456
 10
-28.972728842685633
 20
-2.8396138599738348
 10
-28.9755354813727
 20
-2.8592080455171094
 10
-28.912726029088663
 20
-3.4195443353411856
 10
-28.910546251510738
 20
-3.423822594676759
 10
-28.90401700713925
 20
-3.436569726836047
 10
-28.893178649423355
 20
-3.4574351484293206
 10
-28.877772030356716
 20
-3.4878987505006416
 10
-28.857760586026146
 20
-3.529821272570668
 10
-28.8335812654232
 20
-3.5786350422106254
 10
-28.805459161931395
 20
-3.6316129497878205
 10
-28.77370071595534
 20
-3.687635776010209
 10
-28.738430137255662
 20
-3.7448528697194208
 10
-28.69965057524552
 20
-3.8024653299262767
 10
-28.657587763431238
 20
-3.860055104118191
 10
-28.612194409414514
 20
-3.917261520543146
 10
-28.56351086664451
 20
-3.973733995811411
 10
-28.51155731184581
 20
-4.029297238228121
 10
-28.45633374501841
 20
-4.083951247793279
 10
-28.39793790037202
 20
-4.137618467021737
 10
-28.3363023087838
 20
-4.190113515856344
 10
-28.271416881891458
 20
-4.241524040144531
 10
-28.203379353904705
 20
-4.291772482401155
 10
-28.132081902251546
 20
-4.341024045958794
 10
-28.05753461529426
 20
-4.389191084970013
 10
-27.97993296145229
 20
-4.436118484464525
 10
-27.898983738096472
 20
-4.4820389168977615
 10
-27.8149599711314
 20
-4.526895001509156
 10
-27.727676280499907
 20
-4.570754207421564
 10
-27.63723040041173
 20
-4.613538977149841
 10
-27.54363241922915
 20
-4.655161664846555
 10
-27.446852071865294
 20
-4.695885208054003
 10
-27.346909535044748
 20
-4.735534315077321
 10
-27.24376445531836
 20
-4.774459569306238
 10
-27.137447097772984
 20
-4.812398033198456
 10
-27.028024931531487
 20
-4.84953508681113
 10
-26.915410310746434
 20
-4.885860641781969
 10
-26.799583058693248
 20
-4.9215499898058415
 10
-26.68064090958164
 20
-4.9565255733976
 10
-26.558573775049336
 20
-4.9908750384046785
 10
-26.433381655096333
 20
-5.024598384827077
 10
-26.304946638788326
 20
-5.057948461844804
 10
-26.173454106182476
 20
-5.090857800335005
 10
-26.0387388539462
 20
-5.123218577725669
 10
-25.900976173774367
 20
-5.155050970741374
 10
-25.76005824309497
 20
-5.1865201827146965
 10
-25.616072707755436
 20
-5.217636302007923
 10
-25.468942010270627
 20
-5.248301594411337
 10
-25.31877397321254
 20
-5.278350856592357
 10
-25.165470862371468
 20
-5.3078616460361285
 10
-25.00919788107998
 20
-5.3369417853146635
 10
-24.84986738349065
 20
-5.365581186065671
 10
-24.68747936960347
 20
-5.393779848289151
 10
-24.52206410450531
 20
-5.4212748344428086
 10
-24.353709234043603
 20
-5.448076232888928
 10
-24.18232711237091
 20
-5.4741739552652255
 10
-24.007985208610098
 20
-5.49975338162885
 10
-23.83068352276116
 20
-5.524814511979805
 10
-23.650462408273246
 20
-5.549006762928359
 10
-23.467389334269214
 20
-5.572515514531665
 10
-23.281386743263926
 20
-5.5952430325800036
 10
-23.092444546895088
 20
-5.6172769629208075
 10
-22.900650391010135
 20
-5.638627393916362
 10
-22.70601436397135
 20
-5.659206679719238
 10
-22.508526377416455
 20
-5.679102466176867
 10
-22.308186431345444
 20
-5.698314753289247
 10
-22.105004614120602
 20
-5.716755895208949
 10
-21.899058483227076
 20
-5.734523626145692
 10
-21.690348038664865
 20
-5.751617946099475
 10
-21.47879572294883
 20
-5.767941120860579
 10
-21.264556651049258
 20
-5.783688618848443
 10
-21.047553265480996
 20
-5.798762705853351
 10
-20.82777547788176
 20
-5.813251027722732
 10
-20.60532102246128
 20
-5.827076026971441
 10
-20.380220164306408
 20
-5.839974766057184
 10
-20.15244263833028
 20
-5.852210182522254
 10
-19.9218806219609
 20
-5.863947479699231
 10
-19.688807141102846
 20
-5.875129276827549
 10
-19.45306708078583
 20
-5.8855601054877615
 10
-19.214670529372125
 20
-5.895152319832439
 10
-18.97377260183205
 20
-5.904101388281024
 10
-18.730275563955864
 20
-5.912484868318657
 10
-18.48419959246814
 20
-5.920127468250478
 10
-18.235632333216323
 20
-5.927039276438771
 10
-17.984583874562695
 20
-5.933132647036107
 10
-17.731023951420397
 20
-5.938670517584781
 10
-17.474972740513994
 20
-5.943477596389929
 10
-17.21641006511892
 20
-5.947729175146415
 10
-16.955541482016905
 20
-5.951182493036521
 10
-16.692181611150783
 20
-5.953905019183099
 10
-16.426418098368003
 20
-5.955906841948441
 10
-16.15832850115369
 20
-5.957285695542266
 10
-15.887845350385014
 20
-5.95785619990742
 10
-15.615036115184813
 20
-5.9578037351010575
 10
-15.339998529762802
 20
-5.957050743638034
 10
-15.062577479148711
 20
-5.955401757098908
 10
-14.782948255037393
 20
-5.952876952208257
 10
-14.501080592341983
 20
-5.949739266508376
 10
-14.216974491062489
 20
-5.945988699999268
 10
-13.930629951198902
 20
-5.9416252526809314
 10
-13.642164883685524
 20
-5.936396075373358
 10
-13.351599465246933
 20
-5.930125876381681
 10
-13.058805696586541
 20
-5.923155150733344
 10
-12.763958869399211
 20
-5.915504075152924
 10
-12.466991514562089
 20
-5.906987269583264
 10
-12.168011454647186
 20
-5.897439530691792
 10
-11.866988424567639
 20
-5.887123796020804
 10
-11.56398989344629
 20
-5.876225445627452
 10
-11.258948392160304
 20
-5.864559099454584
 10
-10.951894185796535
 20
-5.851861819959902
 10
-10.642982389325265
 20
-5.838329075562849
 10
-10.332202914384217
 20
-5.8240485121108545
 10
-10.019380469278518
 20
-5.808999952879344
 10
-9.70478807991276
 20
-5.793126017107751
 10
-9.388358277164084
 20
-5.77624132473892
 10
-9.07009106103249
 20
-5.758345875772854
 10
-8.750063989003122
 20
-5.739537404419269
 10
-8.428226619264537
 20
-5.720254139915332
 10
-8.104696862751037
 20
-5.700243233081031
 10
-7.779427427064338
 20
-5.67914401216435
 10
-7.452408223842156
 20
-5.657044123012722
 10
-7.1238145447793535
 20
-5.63396374235072
 10
-6.793518390579343
 20
-5.610243365205788
 10
-6.4616275838141375
 20
-5.585717788245351
 10
-6.128142124483732
 20
-5.560387011469405
 10
-5.7930821893127105
 20
-5.534075743183088
 10
-5.456437689938778
 20
-5.506871629233832
 10
-5.118363741332223
 20
-5.4789701380410785
 10
-4.7787052285227665
 20
-5.450175801185387
 10
-4.4376576199298325
 20
-5.420333503696466
 10
-4.095210827191149
 20
-5.389530891421751
 10
-3.7513547619444214
 20
-5.3578556102086745
 10
-3.406011866704504
 20
-5.325209925847513
 10
-3.059465255738279
 20
-5.2914488117302705
 10
-2.7116373715605904
 20
-5.256474533647223
 10
-2.3623800381502793
 20
-5.220802878320678
 10
-2.011878635564503
 20
-5.184366376627781
 10
-1.6602813398244223
 20
-5.146649241846224
 10
-1.3073825941483121
 20
-5.107894234793729
 10
-0.9532599560213039
 20
-5.068199089680015
 10
-0.5981088938628506
 20
-5.027408691534795
 10
-0.24176420434037116
 20
-4.985415217786061
 10
0.11559882085126813
 20
-4.942238845158387
 10
0.4741081810086541
 20
-4.898220068679217
 10
0.8336560535597767
 20
-4.853193685015972
 10
1.1941043508457676
 20
-4.8067315532937815
 10
1.5555709838009117
 20
-4.759086522692652
 10
1.9180086600269426
 20
-4.710619264964601
 10
2.281299498854639
 20
-4.661077193867164
 10
2.6455226920838473
 20
-4.6103767738179044
 10
3.010611698721033
 20
-4.558711448291937
 10
3.376526195582131
 20
-4.5057308968370755
 10
3.7432662028438686
 20
-4.451435294745015
 10
4.110784428107967
 20
-4.3961853137677736
 10
4.479003354242728
 20
-4.3400790386984625
 10
4.8480005488216635
 20
-4.283018822973207
 10
5.2176581109988325
 20
-4.224751905057846
 10
5.587996227587177
 20
-4.165453664293091
 10
5.959014938940151
 20
-4.105124451262334
 10
6.330626589121948
 20
-4.043774266682013
 10
6.702800943310794
 20
-3.981140435947377
 10
7.075558178231266
 20
-3.917398250753288
 10
7.448763355637661
 20
-3.8529184712140534
 10
7.8225817192159965
 20
-3.7875936253410516
 10
8.196807702096178
 20
-3.721180864670718
 10
8.571539058664664
 20
-3.653757921979889
 10
8.946600497226573
 20
-3.585344973993143
 10
9.322089762079994
 20
-3.516019665841471
 10
9.697996774951
 20
-3.445694439323288
 10
10.074156332507028
 20
-3.374477117010602
 10
10.45067625732007
 20
-3.302532902235991
 10
10.827546491292928
 20
-3.229774412089565
 10
11.204581624103367
 20
-3.1561339145109257
 10
11.58187941013783
 20
-3.0816891422769106
 10
11.959372380273459
 20
-3.006625475444675
 10
12.337107836996895
 20
-2.9305823299080482
 10
12.714930645161136
 20
-2.8537549987947735
 10
13.092860981490746
 20
-2.77631877379972
 10
13.470888767711802
 20
-2.6981860967213014
 10
13.848993827099733
 20
-2.6191816758646524
 10
14.227196346467474
 20
-2.5394808905704847
 10
14.605341160402919
 20
-2.4592787710290045
 10
14.983495758205654
 20
-2.378390112474752
 10
15.36160275911512
 20
-2.2970879408123133
 10
15.73963187786772
 20
-2.215109143207696
 10
16.11757303618952
 20
-2.1323661614593163
 10
16.49544641080511
 20
-2.0490342872620375
 10
16.873106914576304
 20
-1.9653961090076513
 10
17.250642223615632
 20
-1.881441801271408
 10
17.627934406812063
 20
-1.7969183395816075
 10
18.00499353235118
 20
-1.711913194493985
 10
18.381819610321315
 20
-1.6264264536543886
 10
18.758422708908054
 20
-1.5405455876185556
 10
19.13461739761243
 20
-1.4542026890343944
 10
19.510501440909245
 20
-1.3674755783245895
 10
19.885997220783178
 20
-1.2804614638237797
 10
20.261212610248066
 20
-1.1933259870937762
 10
20.6359318733646
 20
-1.1057379526568007
 10
21.01016510858346
 20
-1.0177850940061315
 10
21.384050403563506
 20
-0.9298955520166443
 10
21.75735188599435
 20
-0.8415631900990821
 10
22.130059437248587
 20
-0.7527000994684719
 10
22.502321263612487
 20
-0.6638223297846614
 10
22.873982169408855
 20
-0.575124648300313
 10
23.245069290488125
 20
-0.48607126686023794
 10
23.615505029011693
 20
-0.39675956909076854
 10
23.98520167860197
 20
-0.30719911747910805
 10
24.354267092096038
 20
-0.21755537829537377
 10
24.722623661566935
 20
-0.12792564752005264
 10
25.090281445111888
 20
-0.038397308063031155
 10
25.457132589893778
 20
0.05119510634580622
 10
25.823156878834588
 20
0.14102723798471645
 10
26.188384566932818
 20
0.23083623695724828
 10
26.552815644100107
 20
0.32062219090925004
 10
26.916284796031896
 20
0.4102782413730337
 10
27.27896738504158
 20
0.49982395155224385
 10
27.640657753463806
 20
0.589502958723076
 10
28.001365969484148
 20
0.6792277923297921
 10
28.36114243456059
 20
0.7685605737186193
 10
28.719977070419212
 20
0.8575888610911442
 10
29.07767427749186
 20
0.9464689088136704
 10
29.434419506454216
 20
1.0351326342424096
 10
29.79002726627715
 20
1.1236484706045402
 10
30.144585222984816
 20
1.212026330970655
 10
30.498025836835826
 20
1.3000814488045338
 10
30.850261391364203
 20
1.3878043492648189
 10
31.20139973940706
 20
1.475029566081393
 10
31.551235193033925
 20
1.562000999467991
 10
31.899943114558237
 20
1.6487382126282604
 10
32.247338012950834
 20
1.7353096387893765
 10
32.593480367943634
 20
1.8211898410959826
 10
32.938282473159056
 20
1.906369257060876
 10
33.281859160736744
 20
1.9913933249722944
 10
33.6239372231816
 20
2.076321003216059
 10
33.96477272970533
 20
2.1604706882163556
 10
34.30418017919043
 20
2.243910900846209
 10
34.64211916774596
 20
2.326992662724588
 10
34.97858967519514
 20
2.409716149143182
 10
35.31360175963525
 20
2.491993977192108
 10
35.647205842700934
 20
2.5733880929258914
 10
35.97920629455899
 20
2.654055013648385
 10
36.30974824270104
 20
2.734276977167987
 10
36.63865623401842
 20
2.8140352090936784
 10
36.965950414970614
 20
2.8931546806681365
 10
37.29165094210548
 20
2.9714602754881927
 10
37.615737598344985
 20
3.049127635832101
 10
37.93812263695806
 20
3.1261475497960443
 10
38.258913920870214
 20
3.202354463464062
 10
38.57793599697274
 20
3.2777296024451346
 10
38.89524628637967
 20
3.3525456420604547
 10
39.2106693158056
 20
3.426783983210702
 10
39.5244883710196
 20
3.5002981093084715
 10
39.83637274270562
 20
3.572875004585166
 10
40.14649783353052
 20
3.6445338816610393
 10
40.45485351477855
 20
3.715362736966916
 10
40.76124415661647
 20
3.7855180878066395
 10
41.065679796964794
 20
3.8549127265620204
 10
41.36834591676426
 20
3.9234783076517257
 10
41.668989444890904
 20
3.9910988483500995
 10
41.96771822409346
 20
4.057608970032873
 10
42.26441424255399
 20
4.123262398338526
 10
42.559155088022756
 20
4.188156604539242
 10
42.85186310213096
 20
4.252194730883771
 10
43.14253824452518
 20
4.315377127955505
 10
43.43112302347284
 20
4.377431733954178
 10
43.71767487017634
 20
4.438631136555139
 10
44.0020283896242
 20
4.49886917845748
 10
44.284251081204374
 20
4.5583309767808124
 10
44.56437318982701
 20
4.616753769274534
 10
44.842317036946596
 20
4.674040873479093
 10
45.11805231712282
 20
4.730455577520175
 10
45.39157900009062
 20
4.785998144335324
 10
45.66289704549652
 20
4.84066892450793
 10
45.93185115677974
 20
4.894274027243805
 10
46.19863691333167
 20
4.9466573734683355
 10
46.46311611652148
 20
4.998248068160723
 10
46.72521109789203
 20
5.048949341215564
 10
46.985009533555825
 20
5.098771018057606
 10
47.24244384341805
 20
5.147528682734019
 10
47.49741618229698
 20
5.195300856834265
 10
47.75009187458556
 20
5.242194311180188
 10
48.000325691908515
 20
5.2879276844218595
 10
48.24809742727619
 20
5.332676531191688
 10
48.493417138785816
 20
5.376353468579786
 10
48.73625451090868
 20
5.419221872357682
 10
48.97662969010429
 20
5.461106713768059
 10
49.214454909464855
 20
5.501998956198795
 10
49.44974022708759
 20
5.541811216740001
 10
49.68256325089944
 20
5.58064079137216
 10
49.91273839907601
 20
5.618556902135075
 10
50.140265621175494
 20
5.655559987257986
 10
50.365242711937775
 20
5.691571963380662
 10
50.58767976981352
 20
5.726505097009825
 10
50.80737124810934
 20
5.760602061317347
 10
51.02440392507353
 20
5.793880482208395
 10
51.238809044364075
 20
5.826068920493472
 10
51.450488387529894
 20
5.857249140658398
 10
51.659421757669655
 20
5.887596609689733
 10
51.865717027797196
 20
5.916945686025662
 10
52.06920878272434
 20
5.945190387656974
 10
52.26996454201574
 20
5.972515656411586
 10
52.467974187044014
 20
5.99900940107447
 10
52.663149960989756
 20
6.024662497387659
 10
52.855512010312474
 20
6.049299916593835
 10
53.045050196208024
 20
6.073009742769661
 10
53.23174432177516
 20
6.095967442901702
 10
53.41560443502268
 20
6.118085721725914
 10
53.5965629659441
 20
6.1391800756436155
 10
53.774619864097644
 20
6.1592509428840465
 10
53.949822492500076
 20
6.17865838167829
 10
54.12209316251761
 20
6.197305797212648
 10
54.291431864061835
 20
6.215193277132962
 10
54.45784863505324
 20
6.232233613821038
 10
54.621255728760765
 20
6.248417595373064
 10
54.78174083138531
 20
6.263754959567935
 10
54.939196029559575
 20
6.278411698550859
 10
55.09364144956635
 20
6.292212958856205
 10
55.24505689450433
 20
6.305334207470534
 10
55.39355024747569
 20
6.317609715186183
 10
55.53892583829376
 20
6.329196349890393
 10
55.68126128497382
 20
6.340191319917794
 10
55.82047891905878
 20
6.350497855162994
 10
55.956676535288516
 20
6.360037872265758
 10
56.08974611941214
 20
6.368978239829767
 10
56.21979550409002
 20
6.3771536668765965
 10
56.34661956634001
 20
6.384803145452527
 10
56.47040304056407
 20
6.39186481576894
 10
56.59097073595096
 20
6.398317624642784
 10
56.708410358878304
 20
6.4041711345612615
 10
56.82272188916935
 20
6.409425520816067
 10
56.93389520819674
 20
6.414168692192178
 10
57.041852667680054
 20
6.418303703292499
 10
57.14657405054128
 20
6.422006196395283
 10
57.2481571817854
 20
6.425197825202762
 10
57.346504196053964
 20
6.427957286596092
 10
57.44162517162092
 20
6.430197022373694
 10
57.53351001003561
 20
6.432004766028843
 10
57.62216876939524
 20
6.433293134651653
 10
57.70759135124915
 20
6.434149861735401
 10
57.78975756878441
 20
6.434750326620799
 10
57.86859983181782
 20
6.434910201000865
 10
57.94428352527244
 20
6.434735729822353
 10
58.01653532059287
 20
6.434286923221254
 10
58.08562851606944
 20
6.433504033999117
 10
58.15138761824006
 20
6.432368638348319
 10
58.21379244029178
 20
6.43105611560957
 10
58.27294079714123
 20
6.429488207130945
 10
58.32874493196898
 20
6.42765578865448
 10
58.38118466805047
 20
6.425734151875038
 10
58.430367898576215
 20
6.423557479939111
 10
58.476186710178965
 20
6.421291764991901
 10
58.51865117104429
 20
6.418849536477674
 10
58.557741104447594
 20
6.416406086091291
 10
58.59346659875119
 20
6.413873767985322
 10
58.625905282058746
 20
6.411349702848555
 10
58.65488167099651
 20
6.408815379227515
 10
58.68047342393326
 20
6.406367654873447
 10
58.7027682674233
 20
6.4040159169818605
 10
58.72159071809291
 20
6.401741654099282
 10
58.73700832577183
 20
6.399729545116083
 10
58.74911894573013
 20
6.397900980796948
 10
58.75772687751604
 20
6.396413091966661
 10
58.76290980976342
 20
6.395362473438924
 10
58.764647535482595
 20
6.394924679846144
  0
ENDSEC
  0
SECTION
  2
OBJECTS
  0
DICTIONARY
  5
A
330
0
100
AcDbDictionary
280
0
281
1
  3
ACAD_COLOR
350
B
  3
ACAD_GROUP
350
C
  3
ACAD_LAYOUT
350
D
  3
ACAD_MATERIAL
350
E
  3
ACAD_MLEADERSTYLE
350
F
  3
ACAD_MLINESTYLE
350
10
  3
ACAD_PLOTSETTINGS
350
11
  3
ACAD_PLOTSTYLENAME
350
12
  3
ACAD_SCALELIST
350
14
  3
ACAD_TABLESTYLE
350
15
  3
ACAD_VISUALSTYLE
350
16
  3
EZDXF_META
350
2D
  0
DICTIONARY
  5
B
330
A
100
AcDbDictionary
280
0
281
1
  0
DICTIONARY
  5
C
330
A
100
AcDbDictionary
280
0
281
1
  0
DICTIONARY
  5
D
330
A
100
AcDbDictionary
280
0
281
1
  3
Model
350
1A
  3
Layout1
350
1E
  0
DICTIONARY
  5
E
330
A
100
AcDbDictionary
280
0
281
1
  3
ByBlock
350
1F
  3
ByLayer
350
20
  3
Global
350
21
  0
DICTIONARY
  5
F
330
A
100
AcDbDictionary
280
0
281
1
  3
Standard
350
2C
  0
DICTIONARY
  5
10
330
A
100
AcDbDictionary
280
0
281
1
  3
Standard
350
22
  0
DICTIONARY
  5
11
330
A
100
AcDbDictionary
280
0
281
1
  0
ACDBDICTIONARYWDFLT
  5
12
330
A
100
AcDbDictionary
280
0
281
1
  3
Normal
350
13
100
AcDbDictionaryWithDefault
340
13
  0
ACDBPLACEHOLDER
  5
13
330
12
  0
DICTIONARY
  5
14
330
A
100
AcDbDictionary
280
0
281
1
  0
DICTIONARY
  5
15
330
A
100
AcDbDictionary
280
0
281
1
  0
DICTIONARY
  5
16
330
A
100
AcDbDictionary
280
0
281
1
  0
LAYOUT
  5
1A
330
D
100
AcDbPlotSettings
  1

  4
A3
  6

 40
7.5
 41
20.0
 42
7.5
 43
20.0
 44
420.0
 45
297.0
 46
0.0
 47
0.0
 48
0.0
 49
0.0
140
0.0
141
0.0
142
1.0
143
1.0
 70
1024
 72
1
 73
0
 74
5
  7

 75
16
 76
0
 77
2
 78
300
147
1.0
148
0.0
149
0.0
100
AcDbLayout
  1
Model
 70
1
 71
0
 10
0.0
 20
0.0
 11
420.0
 21
297.0
 12
0.0
 22
0.0
 32
0.0
 14
1e+20
 24
1e+20
 34
1e+20
 15
-1e+20
 25
-1e+20
 35
-1e+20
146
0.0
 13
0.0
 23
0.0
 33
0.0
 16
1.0
 26
0.0
 36
0.0
 17
0.0
 27
1.0
 37
0.0
 76
1
330
17
  0
LAYOUT
  5
1E
330
D
100
AcDbPlotSettings
  1

  4
A3
  6

 40
7.5
 41
20.0
 42
7.5
 43
20.0
 44
420.0
 45
297.0
 46
0.0
 47
0.0
 48
0.0
 49
0.0
140
0.0
141
0.0
142
1.0
143
1.0
 70
0
 72
1
 73
0
 74
5
  7

 75
16
 76
0
 77
2
 78
300
147
1.0
148
0.0
149
0.0
100
AcDbLayout
  1
Layout1
 70
1
 71
1
 10
0.0
 20
0.0
 11
420.0
 21
297.0
 12
0.0
 22
0.0
 32
0.0
 14
1e+20
 24
1e+20
 34
1e+20
 15
-1e+20
 25
-1e+20
 35
-1e+20
146
0.0
 13
0.0
 23
0.0
 33
0.0
 16
1.0
 26
0.0
 36
0.0
 17
0.0
 27
1.0
 37
0.0
 76
1
330
1B
  0
MATERIAL
  5
1F
102
{ACAD_REACTORS
330
E
102
}
330
E
100
AcDbMaterial
  1
ByBlock
  2

 70
0
 40
1.0
 71
1
 41
1.0
 91
-1023410177
 42
1.0
 72
1
  3

 73
1
 74
1
 75
1
 44
0.5
 73
0
 45
1.0
 46
1.0
 77
1
  4

 78
1
 79
1
170
1
 48
1.0
171
1
  6

172
1
173
1
174
1
140
1.0
141
1.0
175
1
  7

176
1
177
1
178
1
143
1.0
179
1
  8

270
1
271
1
272
1
145
1.0
146
1.0
273
1
  9

274
1
275
1
276
1
 42
1.0
 72
1
  3

 73
1
 74
1
 75
1
 94
63
  0
MATERIAL
  5
20
102
{ACAD_REACTORS
330
E
102
}
330
E
100
AcDbMaterial
  1
ByLayer
  2

 70
0
 40
1.0
 71
1
 41
1.0
 91
-1023410177
 42
1.0
 72
1
  3

 73
1
 74
1
 75
1
 44
0.5
 73
0
 45
1.0
 46
1.0
 77
1
  4

 78
1
 79
1
170
1
 48
1.0
171
1
  6

172
1
173
1
174
1
140
1.0
141
1.0
175
1
  7

176
1
177
1
178
1
143
1.0
179
1
  8

270
1
271
1
272
1
145
1.0
146
1.0
273
1
  9

274
1
275
1
276
1
 42
1.0
 72
1
  3

 73
1
 74
1
 75
1
 94
63
  0
MATERIAL
  5
21
102
{ACAD_REACTORS
330
E
102
}
330
E
100
AcDbMaterial
  1
Global
  2

 70
0
 40
1.0
 71
1
 41
1.0
 91
-1023410177
 42
1.0
 72
1
  3

 73
1
 74
1
 75
1
 44
0.5
 73
0
 45
1.0
 46
1.0
 77
1
  4

 78
1
 79
1
170
1
 48
1.0
171
1
  6

172
1
173
1
174
1
140
1.0
141
1.0
175
1
  7

176
1
177
1
178
1
143
1.0
179
1
  8

270
1
271
1
272
1
145
1.0
146
1.0
273
1
  9

274
1
275
1
276
1
 42
1.0
 72
1
  3

 73
1
 74
1
 75
1
 94
63
  0
MLINESTYLE
  5
22
102
{ACAD_REACTORS
330
10
102
}
330
10
100
AcDbMlineStyle
  2
Standard
 70
0
  3

 62
256
 51
90.0
 52
90.0
 71
2
 49
0.5
 62
256
  6
BYLAYER
 49
-0.5
 62
256
  6
BYLAYER
  0
MLEADERSTYLE
  5
2C
102
{ACAD_REACTORS
330
F
102
}
330
F
100
AcDbMLeaderStyle
179
2
170
2
171
1
172
0
 90
2
 40
0.0
 41
0.0
173
1
 91
-1056964608
 92
-2
290
1
 42
2.0
291
1
 43
8.0
  3
Standard
 44
4.0
300

342
29
174
1
175
1
176
0
178
1
 93
-1056964608
 45
4.0
292
0
297
0
 46
4.0
 94
-1056964608
 47
1.0
 49
1.0
140
1.0
294
1
141
0.0
177
0
142
1.0
295
0
296
0
143
3.75
271
0
272
9
273
9
  0
DICTIONARY
  5
2D
330
A
100
AcDbDictionary
280
1
281
1
  3
CREATED_BY_EZDXF
350
2E
  3
WRITTEN_BY_EZDXF
350
32
  0
DICTIONARYVAR
  5
2E
330
2D
100
DictionaryVariables
280
0
  1
1.3.5 @ 2025-08-20T01:28:29.770167+00:00
  0
DICTIONARYVAR
  5
32
330
2D
100
DictionaryVariables
280
0
  1
1.3.5 @ 2025-08-20T01:28:29.770167+00:00
  0
ENDSEC
  0
EOF
