  0
SECTION
  2
HEADER
  9
$ACADVER
  1
AC1032
  9
$ACADMAINTVER
 90
4
  9
$DWGCODEPAGE
  3
ANSI_1252
  9
$LASTSAVEDBY
  1
ezdxf
  9
$REQUIREDVERSIONS
160
0
  9
$INSBASE
 10
0.0
 20
0.0
 30
0.0
  9
$EXTMIN
 10
1e+20
 20
1e+20
 30
1e+20
  9
$EXTMAX
 10
-1e+20
 20
-1e+20
 30
-1e+20
  9
$LIMMIN
 10
0.0
 20
0.0
  9
$LIMMAX
 10
420.0
 20
297.0
  9
$ORTHOMODE
 70
0
  9
$REGENMODE
 70
1
  9
$FILLMODE
 70
1
  9
$QTEXTMODE
 70
0
  9
$MIRRTEXT
 70
1
  9
$LTSCALE
 40
1.0
  9
$ATTMODE
 70
1
  9
$TEXTSIZE
 40
2.5
  9
$TRACEWID
 40
1.0
  9
$TEXTSTYLE
  7
Standard
  9
$CLAYER
  8
0
  9
$CELTYPE
  6
ByLayer
  9
$CECOLOR
 62
256
  9
$CELTSCALE
 40
1.0
  9
$DISPSILH
 70
0
  9
$DIMSCALE
 40
1.0
  9
$DIMASZ
 40
2.5
  9
$DIMEXO
 40
0.625
  9
$DIMDLI
 40
3.75
  9
$DIMRND
 40
0.0
  9
$DIMDLE
 40
0.0
  9
$DIMEXE
 40
1.25
  9
$DIMTP
 40
0.0
  9
$DIMTM
 40
0.0
  9
$DIMTXT
 40
2.5
  9
$DIMCEN
 40
2.5
  9
$DIMTSZ
 40
0.0
  9
$DIMTOL
 70
0
  9
$DIMLIM
 70
0
  9
$DIMTIH
 70
0
  9
$DIMTOH
 70
0
  9
$DIMSE1
 70
0
  9
$DIMSE2
 70
0
  9
$DIMTAD
 70
1
  9
$DIMZIN
 70
8
  9
$DIMBLK
  1

  9
$DIMASO
 70
1
  9
$DIMSHO
 70
1
  9
$DIMPOST
  1

  9
$DIMAPOST
  1

  9
$DIMALT
 70
0
  9
$DIMALTD
 70
3
  9
$DIMALTF
 40
0.03937007874
  9
$DIMLFAC
 40
1.0
  9
$DIMTOFL
 70
1
  9
$DIMTVP
 40
0.0
  9
$DIMTIX
 70
0
  9
$DIMSOXD
 70
0
  9
$DIMSAH
 70
0
  9
$DIMBLK1
  1

  9
$DIMBLK2
  1

  9
$DIMSTYLE
  2
ISO-25
  9
$DIMCLRD
 70
0
  9
$DIMCLRE
 70
0
  9
$DIMCLRT
 70
0
  9
$DIMTFAC
 40
1.0
  9
$DIMGAP
 40
0.625
  9
$DIMJUST
 70
0
  9
$DIMSD1
 70
0
  9
$DIMSD2
 70
0
  9
$DIMTOLJ
 70
0
  9
$DIMTZIN
 70
8
  9
$DIMALTZ
 70
0
  9
$DIMALTTZ
 70
0
  9
$DIMUPT
 70
0
  9
$DIMDEC
 70
2
  9
$DIMTDEC
 70
2
  9
$DIMALTU
 70
2
  9
$DIMALTTD
 70
3
  9
$DIMTXSTY
  7
Standard
  9
$DIMAUNIT
 70
0
  9
$DIMADEC
 70
0
  9
$DIMALTRND
 40
0.0
  9
$DIMAZIN
 70
0
  9
$DIMDSEP
 70
44
  9
$DIMATFIT
 70
3
  9
$DIMFRAC
 70
0
  9
$DIMLDRBLK
  1

  9
$DIMLUNIT
 70
2
  9
$DIMLWD
 70
-2
  9
$DIMLWE
 70
-2
  9
$DIMTMOVE
 70
0
  9
$DIMFXL
 40
1.0
  9
$DIMFXLON
 70
0
  9
$DIMJOGANG
 40
0.785398163397
  9
$DIMTFILL
 70
0
  9
$DIMTFILLCLR
 70
0
  9
$DIMARCSYM
 70
0
  9
$DIMLTYPE
  6

  9
$DIMLTEX1
  6

  9
$DIMLTEX2
  6

  9
$DIMTXTDIRECTION
 70
0
  9
$LUNITS
 70
2
  9
$LUPREC
 70
4
  9
$SKETCHINC
 40
1.0
  9
$FILLETRAD
 40
10.0
  9
$AUNITS
 70
0
  9
$AUPREC
 70
2
  9
$MENU
  1
.
  9
$ELEVATION
 40
0.0
  9
$PELEVATION
 40
0.0
  9
$THICKNESS
 40
0.0
  9
$LIMCHECK
 70
0
  9
$CHAMFERA
 40
0.0
  9
$CHAMFERB
 40
0.0
  9
$CHAMFERC
 40
0.0
  9
$CHAMFERD
 40
0.0
  9
$SKPOLY
 70
0
  9
$TDCREATE
 40
2460908.103113426
  9
$TDUCREATE
 40
2458532.153996898
  9
$TDUPDATE
 40
2460908.103113426
  9
$TDUUPDATE
 40
2458532.1544311
  9
$TDINDWG
 40
0.0
  9
$TDUSRTIMER
 40
0.0
  9
$USRTIMER
 70
1
  9
$ANGBASE
 50
0.0
  9
$ANGDIR
 70
0
  9
$PDMODE
 70
0
  9
$PDSIZE
 40
0.0
  9
$PLINEWID
 40
0.0
  9
$SPLFRAME
 70
0
  9
$SPLINETYPE
 70
6
  9
$SPLINESEGS
 70
8
  9
$HANDSEED
  5
33
  9
$SURFTAB1
 70
6
  9
$SURFTAB2
 70
6
  9
$SURFTYPE
 70
6
  9
$SURFU
 70
6
  9
$SURFV
 70
6
  9
$UCSBASE
  2

  9
$UCSNAME
  2

  9
$UCSORG
 10
0.0
 20
0.0
 30
0.0
  9
$UCSXDIR
 10
1.0
 20
0.0
 30
0.0
  9
$UCSYDIR
 10
0.0
 20
1.0
 30
0.0
  9
$UCSORTHOREF
  2

  9
$UCSORTHOVIEW
 70
0
  9
$UCSORGTOP
 10
0.0
 20
0.0
 30
0.0
  9
$UCSORGBOTTOM
 10
0.0
 20
0.0
 30
0.0
  9
$UCSORGLEFT
 10
0.0
 20
0.0
 30
0.0
  9
$UCSORGRIGHT
 10
0.0
 20
0.0
 30
0.0
  9
$UCSORGFRONT
 10
0.0
 20
0.0
 30
0.0
  9
$UCSORGBACK
 10
0.0
 20
0.0
 30
0.0
  9
$PUCSBASE
  2

  9
$PUCSNAME
  2

  9
$PUCSORG
 10
0.0
 20
0.0
 30
0.0
  9
$PUCSXDIR
 10
1.0
 20
0.0
 30
0.0
  9
$PUCSYDIR
 10
0.0
 20
1.0
 30
0.0
  9
$PUCSORTHOREF
  2

  9
$PUCSORTHOVIEW
 70
0
  9
$PUCSORGTOP
 10
0.0
 20
0.0
 30
0.0
  9
$PUCSORGBOTTOM
 10
0.0
 20
0.0
 30
0.0
  9
$PUCSORGLEFT
 10
0.0
 20
0.0
 30
0.0
  9
$PUCSORGRIGHT
 10
0.0
 20
0.0
 30
0.0
  9
$PUCSORGFRONT
 10
0.0
 20
0.0
 30
0.0
  9
$PUCSORGBACK
 10
0.0
 20
0.0
 30
0.0
  9
$USERI1
 70
0
  9
$USERI2
 70
0
  9
$USERI3
 70
0
  9
$USERI4
 70
0
  9
$USERI5
 70
0
  9
$USERR1
 40
0.0
  9
$USERR2
 40
0.0
  9
$USERR3
 40
0.0
  9
$USERR4
 40
0.0
  9
$USERR5
 40
0.0
  9
$WORLDVIEW
 70
1
  9
$SHADEDGE
 70
3
  9
$SHADEDIF
 70
70
  9
$TILEMODE
 70
1
  9
$MAXACTVP
 70
64
  9
$PINSBASE
 10
0.0
 20
0.0
 30
0.0
  9
$PLIMCHECK
 70
0
  9
$PEXTMIN
 10
1e+20
 20
1e+20
 30
1e+20
  9
$PEXTMAX
 10
-1e+20
 20
-1e+20
 30
-1e+20
  9
$PLIMMIN
 10
0.0
 20
0.0
  9
$PLIMMAX
 10
420.0
 20
297.0
  9
$UNITMODE
 70
0
  9
$VISRETAIN
 70
1
  9
$PLINEGEN
 70
0
  9
$PSLTSCALE
 70
1
  9
$TREEDEPTH
 70
3020
  9
$CMLSTYLE
  2
Standard
  9
$CMLJUST
 70
0
  9
$CMLSCALE
 40
20.0
  9
$PROXYGRAPHICS
 70
1
  9
$MEASUREMENT
 70
1
  9
$CELWEIGHT
370
-1
  9
$ENDCAPS
280
0
  9
$JOINSTYLE
280
0
  9
$LWDISPLAY
290
0
  9
$INSUNITS
 70
6
  9
$HYPERLINKBASE
  1

  9
$STYLESHEET
  1

  9
$XEDIT
290
1
  9
$CEPSNTYPE
380
0
  9
$PSTYLEMODE
290
1
  9
$FINGERPRINTGUID
  2
{68DF850B-3474-432E-A0CF-BD68CB81585C}
  9
$VERSIONGUID
  2
{5AC185C6-6941-42DA-A0EE-41A3FCC1FDBC}
  9
$EXTNAMES
290
1
  9
$PSVPSCALE
 40
0.0
  9
$OLESTARTUP
290
0
  9
$SORTENTS
280
127
  9
$INDEXCTL
280
0
  9
$HIDETEXT
280
1
  9
$XCLIPFRAME
280
1
  9
$HALOGAP
280
0
  9
$OBSCOLOR
 70
257
  9
$OBSLTYPE
280
0
  9
$INTERSECTIONDISPLAY
280
0
  9
$INTERSECTIONCOLOR
 70
257
  9
$DIMASSOC
280
2
  9
$PROJECTNAME
  1

  9
$CAMERADISPLAY
290
0
  9
$LENSLENGTH
 40
50.0
  9
$CAMERAHEIGHT
 40
0.0
  9
$STEPSPERSEC
 40
24.0
  9
$STEPSIZE
 40
100.0
  9
$3DDWFPREC
 40
2.0
  9
$PSOLWIDTH
 40
0.005
  9
$PSOLHEIGHT
 40
0.08
  9
$LOFTANG1
 40
1.570796326795
  9
$LOFTANG2
 40
1.570796326795
  9
$LOFTMAG1
 40
0.0
  9
$LOFTMAG2
 40
0.0
  9
$LOFTPARAM
 70
7
  9
$LOFTNORMALS
280
1
  9
$LATITUDE
 40
37.795
  9
$LONGITUDE
 40
-122.394
  9
$NORTHDIRECTION
 40
0.0
  9
$TIMEZONE
 70
-8000
  9
$LIGHTGLYPHDISPLAY
280
1
  9
$TILEMODELIGHTSYNCH
280
1
  9
$CMATERIAL
347
20
  9
$SOLIDHIST
280
0
  9
$SHOWHIST
280
1
  9
$DWFFRAME
280
2
  9
$DGNFRAME
280
2
  9
$REALWORLDSCALE
290
1
  9
$INTERFERECOLOR
 62
256
  9
$CSHADOW
280
0
  9
$SHADOWPLANELOCATION
 40
0.0
  0
ENDSEC
  0
SECTION
  2
CLASSES
  0
CLASS
  1
ACDBDICTIONARYWDFLT
  2
AcDbDictionaryWithDefault
  3
ObjectDBX Classes
 90
0
 91
0
280
0
281
0
  0
CLASS
  1
SUN
  2
AcDbSun
  3
SCENEOE
 90
1153
 91
0
280
0
281
0
  0
CLASS
  1
VISUALSTYLE
  2
AcDbVisualStyle
  3
ObjectDBX Classes
 90
4095
 91
0
280
0
281
0
  0
CLASS
  1
MATERIAL
  2
AcDbMaterial
  3
ObjectDBX Classes
 90
1153
 91
0
280
0
281
0
  0
CLASS
  1
SCALE
  2
AcDbScale
  3
ObjectDBX Classes
 90
1153
 91
0
280
0
281
0
  0
CLASS
  1
TABLESTYLE
  2
AcDbTableStyle
  3
ObjectDBX Classes
 90
4095
 91
0
280
0
281
0
  0
CLASS
  1
MLEADERSTYLE
  2
AcDbMLeaderStyle
  3
ACDB_MLEADERSTYLE_CLASS
 90
4095
 91
0
280
0
281
0
  0
CLASS
  1
DICTIONARYVAR
  2
AcDbDictionaryVar
  3
ObjectDBX Classes
 90
0
 91
0
280
0
281
0
  0
CLASS
  1
CELLSTYLEMAP
  2
AcDbCellStyleMap
  3
ObjectDBX Classes
 90
1152
 91
0
280
0
281
0
  0
CLASS
  1
MENTALRAYRENDERSETTINGS
  2
AcDbMentalRayRenderSettings
  3
SCENEOE
 90
1024
 91
0
280
0
281
0
  0
CLASS
  1
ACDBDETAILVIEWSTYLE
  2
AcDbDetailViewStyle
  3
ObjectDBX Classes
 90
1025
 91
0
280
0
281
0
  0
CLASS
  1
ACDBSECTIONVIEWSTYLE
  2
AcDbSectionViewStyle
  3
ObjectDBX Classes
 90
1025
 91
0
280
0
281
0
  0
CLASS
  1
RASTERVARIABLES
  2
AcDbRasterVariables
  3
ISM
 90
0
 91
0
280
0
281
0
  0
CLASS
  1
LAYOUT
  2
AcDbLayout
  3
ObjectDBX Classes
 90
0
 91
0
280
0
281
0
  0
CLASS
  1
ACDBPLACEHOLDER
  2
AcDbPlaceHolder
  3
ObjectDBX Classes
 90
0
 91
0
280
0
281
0
  0
ENDSEC
  0
SECTION
  2
TABLES
  0
TABLE
  2
VPORT
  5
8
330
0
100
AcDbSymbolTable
 70
1
  0
VPORT
  5
23
330
8
100
AcDbSymbolTableRecord
100
AcDbViewportTableRecord
  2
*Active
 70
0
 10
0.0
 20
0.0
 11
1.0
 21
1.0
 12
0.0
 22
0.0
 13
0.0
 23
0.0
 14
0.5
 24
0.5
 15
0.5
 25
0.5
 16
0.0
 26
0.0
 36
1.0
 17
0.0
 27
0.0
 37
0.0
 40
1000.0
 41
1.34
 42
50.0
 43
0.0
 44
0.0
 50
0.0
 51
0.0
 71
0
 72
1000
 73
1
 74
3
 75
0
 76
0
 77
0
 78
0
281
0
 65
0
146
0.0
  0
ENDTAB
  0
TABLE
  2
LTYPE
  5
2
330
0
100
AcDbSymbolTable
 70
3
  0
LTYPE
  5
24
330
2
100
AcDbSymbolTableRecord
100
AcDbLinetypeTableRecord
  2
ByBlock
 70
0
  3

 72
65
 73
0
 40
0.0
  0
LTYPE
  5
25
330
2
100
AcDbSymbolTableRecord
100
AcDbLinetypeTableRecord
  2
ByLayer
 70
0
  3

 72
65
 73
0
 40
0.0
  0
LTYPE
  5
26
330
2
100
AcDbSymbolTableRecord
100
AcDbLinetypeTableRecord
  2
Continuous
 70
0
  3

 72
65
 73
0
 40
0.0
  0
ENDTAB
  0
TABLE
  2
LAYER
  5
1
330
0
100
AcDbSymbolTable
 70
2
  0
LAYER
  5
27
330
1
100
AcDbSymbolTableRecord
100
AcDbLayerTableRecord
  2
0
 70
0
 62
7
  6
Continuous
370
-3
390
13
347
21
  0
LAYER
  5
28
330
1
100
AcDbSymbolTableRecord
100
AcDbLayerTableRecord
  2
Defpoints
 70
0
 62
7
  6
Continuous
290
0
370
-3
390
13
347
21
  0
ENDTAB
  0
TABLE
  2
STYLE
  5
5
330
0
100
AcDbSymbolTable
 70
1
  0
STYLE
  5
29
330
5
100
AcDbSymbolTableRecord
100
AcDbTextStyleTableRecord
  2
Standard
 70
0
 40
0.0
 41
1.0
 50
0.0
 71
0
 42
2.5
  3
txt
  4

  0
ENDTAB
  0
TABLE
  2
VIEW
  5
7
330
0
100
AcDbSymbolTable
 70
0
  0
ENDTAB
  0
TABLE
  2
UCS
  5
6
330
0
100
AcDbSymbolTable
 70
0
  0
ENDTAB
  0
TABLE
  2
APPID
  5
3
330
0
100
AcDbSymbolTable
 70
3
  0
APPID
  5
2A
330
3
100
AcDbSymbolTableRecord
100
AcDbRegAppTableRecord
  2
ACAD
 70
0
  0
APPID
  5
30
330
3
100
AcDbSymbolTableRecord
100
AcDbRegAppTableRecord
  2
HATCHBACKGROUNDCOLOR
 70
0
  0
APPID
  5
31
330
3
100
AcDbSymbolTableRecord
100
AcDbRegAppTableRecord
  2
EZDXF
 70
0
  0
ENDTAB
  0
TABLE
  2
DIMSTYLE
  5
4
330
0
100
AcDbSymbolTable
 70
1
100
AcDbDimStyleTable
  0
DIMSTYLE
105
2B
330
4
100
AcDbSymbolTableRecord
100
AcDbDimStyleTableRecord
  2
Standard
 70
0
 40
1.0
 41
2.5
 42
0.625
 43
3.75
 44
1.25
 45
0.0
 46
0.0
 47
0.0
 48
0.0
 49
2.5
140
2.5
141
2.5
142
0.0
143
0.03937007874
144
1.0
145
0.0
146
1.0
147
0.625
148
0.0
 69
0
 70
0
 71
0
 72
0
 73
0
 74
0
 75
0
 76
0
 77
1
 78
8
 79
3
170
0
171
3
172
1
173
0
174
0
175
0
176
0
177
0
178
0
179
2
271
2
272
2
273
2
274
3
275
0
276
0
277
2
278
44
279
0
280
0
281
0
282
0
283
0
284
8
285
0
286
0
288
0
289
3
290
0
371
-2
372
-2
  0
ENDTAB
  0
TABLE
  2
BLOCK_RECORD
  5
9
330
0
100
AcDbSymbolTable
 70
2
  0
BLOCK_RECORD
  5
17
330
9
100
AcDbSymbolTableRecord
100
AcDbBlockTableRecord
  2
*Model_Space
340
1A
 70
0
280
1
281
0
  0
BLOCK_RECORD
  5
1B
330
9
100
AcDbSymbolTableRecord
100
AcDbBlockTableRecord
  2
*Paper_Space
340
1E
 70
0
280
1
281
0
  0
ENDTAB
  0
ENDSEC
  0
SECTION
  2
BLOCKS
  0
BLOCK
  5
18
330
17
100
AcDbEntity
  8
0
100
AcDbBlockBegin
  2
*Model_Space
 70
0
 10
0.0
 20
0.0
 30
0.0
  3
*Model_Space
  1

  0
ENDBLK
  5
19
330
17
100
AcDbEntity
  8
0
100
AcDbBlockEnd
  0
BLOCK
  5
1C
330
1B
100
AcDbEntity
  8
0
100
AcDbBlockBegin
  2
*Paper_Space
 70
0
 10
0.0
 20
0.0
 30
0.0
  3
*Paper_Space
  1

  0
ENDBLK
  5
1D
330
1B
100
AcDbEntity
  8
0
100
AcDbBlockEnd
  0
ENDSEC
  0
SECTION
  2
ENTITIES
  0
LWPOLYLINE
  5
2F
330
17
100
AcDbEntity
  8
0
100
AcDbPolyline
 90
721
 70
1
 10
86.21496372505466
 20
44.54467181604063
 10
86.21206435365909
 20
44.54429500323023
 10
86.20349853527085
 20
44.542906535915904
 10
86.18953039891423
 20
44.53999125853021
 10
86.16989975446205
 20
44.535739184855565
 10
86.14506109859676
 20
44.52989878622656
 10
86.11482025692675
 20
44.52253131975511
 10
86.07911495436798
 20
44.51344078698331
 10
86.03820170647796
 20
44.502761800371594
 10
85.99201823817265
 20
44.49029836146209
 10
85.9403041610793
 20
44.47624087069378
 10
85.88344815439032
 20
44.46046616941512
 10
85.8213217951224
 20
44.44290727360975
 10
85.75385900145815
 20
44.42369306883371
 10
85.68119193703235
 20
44.402565783974936
 10
85.6031883060466
 20
44.37978344791662
 10
85.5200424811379
 20
44.355284416890136
 10
85.431626039323
 20
44.32900170687917
 10
85.33787289878448
 20
44.30106420343976
 10
85.23904338181323
 20
44.271281635018426
 10
85.13487696787287
 20
44.23984465982528
 10
85.02550575451647
 20
44.20649563563388
 10
84.91105402758484
 20
44.171627074902226
 10
84.79120299643644
 20
44.134908366712004
 10
84.66633733528481
 20
44.09654162308219
 10
84.53620046249064
 20
44.05639236043792
 10
84.40092047062808
 20
44.01452820722326
 10
84.26049729361537
 20
43.970949292323816
 10
84.11486478355324
 20
43.925784630181134
 10
83.9640227421962
 20
43.879034607451885
 10
83.80810326709738
 20
43.830441581909604
 10
83.64697412854001
 20
43.780263453551854
 10
83.48082943483399
 20
43.72843909415232
 10
83.30947481334216
 20
43.67503014747953
 10
83.13304216337217
 20
43.61977935796372
 10
82.95152761210878
 20
43.56301173850436
 10
82.7648648794891
 20
43.50485656131411
 10
82.57325207880183
 20
43.44492742749603
 10
82.37642855734696
 20
43.38341525303142
 10
82.17471691249942
 20
43.32032576482465
 10
81.96779428255704
 20
43.25565375151357
 10
81.75591711699546
 20
43.18953395444414
 10
81.53895692674962
 20
43.121899518485606
 10
81.31704187047548
 20
43.0528179431965
 10
81.09010954092544
 20
42.98209348789007
 10
80.85828809675544
 20
42.90979365212483
 10
80.62131688526556
 20
42.83610935188206
 10
80.3795184377489
 20
42.761046442951745
 10
80.13276426514034
 20
42.68453807020308
 10
79.88105423527625
 20
42.606584491407204
 10
79.62438801774755
 20
42.5271863509919
 10
79.36282782155648
 20
42.44653977630061
 10
79.09631110729167
 20
42.36444928441765
 10
78.82490001787356
 20
42.28111113157206
 10
78.54866030471051
 20
42.19639707663559
 10
78.2677240653556
 20
42.11004947738178
 10
77.98208716266626
 20
42.02239386225229
 10
77.69148901002441
 20
41.93362101834286
 10
77.39592927702091
 20
41.84373159008123
 10
77.09573443384593
 20
41.75240629147239
 10
76.79083813435477
 20
41.659774523614566
 10
76.48124024638378
 20
41.56583654427885
 10
76.16674219407157
 20
41.470979654561106
 10
75.84767418825992
 20
41.37455981333792
 10
75.52403222396987
 20
41.27690229127984
 10
75.19575002113861
 20
41.17813636059957
 10
74.8626329428018
 20
41.07832418060793
 10
74.52500345417063
 20
40.9774717359804
 10
74.18279908191572
 20
40.87538341491582
 10
73.83601969387338
 20
40.772059475185245
 10
73.48466115290117
 20
40.667825445230406
 10
73.1289875219415
 20
40.562166298369426
 10
72.76873821437623
 20
40.455272821698046
 10
72.4041034657
 20
40.34740889988937
 10
72.03508307766734
 20
40.23857491960007
 10
71.661680724848
 20
40.128446254587345
 10
71.28382999501547
 20
40.01715243483499
 10
70.90178733764542
 20
39.904828201688986
 10
70.51529203395609
 20
39.79166460001617
 10
70.12454213115427
 20
39.677275359805144
 10
69.7296657218142
 20
39.56172810950002
 10
69.33066260769044
 20
39.445023235757475
 10
68.92740029473902
 20
39.327419154117315
 10
68.51987858471448
 20
39.20891625123621
 10
68.10816336118882
 20
39.08938602821481
 10
67.69257715545513
 20
38.9688343408431
 10
67.27279690756579
 20
38.84725636441554
 10
66.84895077617679
 20
38.7247195984907
 10
66.42136516539648
 20
38.60090488595906
 10
65.98984530609688
 20
38.47587464390255
 10
65.55432111148164
 20
38.350083028547765
 10
65.11492074020686
 20
38.223597539453266
 10
64.6715193116953
 20
38.09602682413101
 10
64.22457165303867
 20
37.96711870948785
 10
63.77381317263991
 20
37.83738925329009
 10
63.31930975407098
 20
37.706709956638335
 10
62.86099505118718
 20
37.575210220630865
 10
62.39912932019765
 20
37.442699902599756
 10
61.93371242893872
 20
37.30917926031611
 10
61.46461569009979
 20
37.1745818253058
 10
60.992029537420954
 20
37.03917109558531
 10
60.515825415755295
 20
36.90288034490942
 10
60.03626364739371
 20
36.76551930172465
 10
59.553343968008896
 20
36.62708848157322
 10
59.067194602338716
 20
36.48765525512811
 10
58.57762078125518
 20
36.34728203947127
 10
58.08461856586124
 20
36.206293976387705
 10
57.588257448216815
 20
36.06423806962081
 10
57.08885654937257
 20
35.921444285661174
 10
56.58642308630438
 20
35.77726362979427
 10
56.08089064678572
 20
35.63182563200392
 10
55.57231769916718
 20
35.485651174761905
 10
55.06063789730415
 20
35.338869659166505
 10
54.54579244243683
 20
35.19096084717366
 10
54.02842705796966
 20
35.04193516150779
 10
53.50822229244292
 20
34.89146328010608
 10
52.98523648204358
 20
34.740066343211474
 10
52.45927492372554
 20
34.58780663902034
 10
51.93066041310914
 20
34.43468950778044
 10
51.399462574417946
 20
34.280261695464034
 10
50.86567746875492
 20
34.124848343856165
 10
50.32917266815791
 20
33.9687077396111
 10
49.790278449550506
 20
33.81119571271986
 10
49.24906069650467
 20
33.6521837642831
 10
48.70544571373616
 20
33.49245054788467
 10
48.15924247276858
 20
33.33173372547813
 10
47.610641605587396
 20
33.17029640842324
 10
47.06003947093367
 20
33.00736554115506
 10
46.50736978874444
 20
32.84307039588624
 10
45.95250026322125
 20
32.677669001499915
 10
45.395232318502664
 20
32.51154865909194
 10
44.83608725998868
 20
32.344327536699794
 10
44.27507210640973
 20
32.17535702626564
 10
43.71237407950882
 20
32.00522434984984
 10
43.147405461659496
 20
31.834440869398733
 10
42.58055906919655
 20
31.662557897818992
 10
42.0120988989807
 20
31.48906053731436
 10
41.4421498315891
 20
31.314340140372856
 10
40.870388476664985
 20
31.13839252671672
 10
40.29700566443935
 20
30.96148042104908
 10
39.72193878941903
 20
30.783408469339804
 10
39.14544843822223
 20
30.603985884493206
 10
38.56766303383223
 20
30.423279650525604
 10
37.98845382285665
 20
30.24122342784845
 10
37.40807784950753
 20
30.057950797837734
 10
36.82627780524554
 20
29.87332869465969
 10
36.243178438484264
 20
29.68774872857347
 10
35.658845897122895
 20
29.501081885137474
 10
35.073610325921386
 20
29.31268425211386
 10
34.48733942908122
 20
29.12281385838578
 10
33.90022423507882
 20
28.93173304199967
 10
33.31194135355741
 20
28.739437622677784
 10
32.72287999236395
 20
28.545803410684094
 10
32.133106167234025
 20
28.35070164934812
 10
31.54268589390328
 20
28.15400358199941
 10
30.95148674440955
 20
27.95596749529223
 10
30.359571324245987
 20
27.756788743256696
 10
29.76693943516709
 20
27.55646771254946
 10
29.17391787777215
 20
27.354684472747714
 10
28.580444046568036
 20
27.151243669821334
 10
27.98671251243726
 20
26.946083273345064
 10
27.392653651156277
 20
26.739656537346622
 10
26.797940463880398
 20
26.5322837789055
 10
26.202962356702
 20
26.323840421629004
 10
25.60811929684998
 20
26.113228912594888
 10
25.0130145951743
 20
25.901222951795926
 10
24.417839610560453
 20
25.688084232850777
 10
23.82259762108732
 20
25.47348890282999
 10
23.2273547746541
 20
25.257307947291963
 10
22.632170002184203
 20
25.040061346509653
 10
22.036980830348117
 20
24.821553488681808
 10
21.442113993663273
 20
24.60146457227116
 10
20.847440804819115
 20
24.379728128803606
 10
20.25315262270113
 20
24.156605851897815
 10
19.65918323332826
 20
23.932226884880915
 10
19.06573094823464
 20
23.706204442199308
 10
18.472729553439166
 20
23.47866766718011
 10
17.88024172051684
 20
23.249811784967903
 10
17.287940516704722
 20
23.019956983756604
 10
16.6964798075286
 20
22.788462887158353
 10
16.10585959298847
 20
22.555329495173137
 10
15.516013857348707
 20
22.32068556447143
 10
14.926876386628239
 20
22.084660238380344
 10
14.338642148200513
 20
21.847190713161307
 10
13.751116306855717
 20
21.608339534781784
 10
13.164622385114237
 20
21.368110625748418
 10
12.57929261269275
 20
21.126246086063617
 10
11.99506090777385
 20
20.882874801283403
 10
11.411861254621881
 20
20.63812552807823
 10
10.829759735054305
 20
20.391869380892086
 10
10.249146151654376
 20
20.143981010018923
 10
9.669759521313026
 20
19.894651975867777
 10
9.091596565951408
 20
19.64420613136813
 10
8.514858941264315
 20
19.391932709151337
 10
7.939672056483448
 20
19.138222030620984
 10
7.365837864401967
 20
18.883460365788448
 10
6.793425724916143
 20
18.62719497616824
 10
6.2228255727729
 20
18.369300254283207
 10
5.653905310419173
 20
18.110033842359822
 10
5.086668282015634
 20
17.849071758583065
 10
4.521240095039457
 20
17.58680393769984
 10
3.9576241597331205
 20
17.322906269009568
 10
3.3960120993094
 20
17.057639930588685
 10
2.835948161531233
 20
16.791258899928156
 10
2.2778222811455198
 20
16.52363756955081
 10
1.721898785422005
 20
16.254260397232592
 10
1.1681117907887029
 20
15.98325588187285
 10
0.6163918712675092
 20
15.711076890842623
 10
0.0668053730031359
 20
15.437594023043673
 10
-0.4805815561051875
 20
15.162678264034419
 10
-1.0256399644196006
 20
14.886395566746756
 10
-1.56863083504919
 20
14.608937491589714
 10
-2.1095571817455516
 20
14.330627375950534
 10
-2.6480257916829055
 20
14.051015759422603
 10
-3.1839043690627475
 20
13.769844613122771
 10
-3.717324879274513
 20
13.487371321506396
 10
-4.2482184390523905
 20
13.203778994475787
 10
-4.776703228698003
 20
12.918980670753427
 10
-5.302716246227296
 20
12.633170931056103
 10
-5.8261946879017135
 20
12.34654474275726
 10
-6.347003112007494
 20
12.058520481815412
 10
-6.865012632988646
 20
11.769164230047988
 10
-7.38042477437633
 20
11.479186497052504
 10
-7.893236258091683
 20
11.188263429899493
 10
-8.40312323120525
 20
10.896398306667814
 10
-8.910343464829053
 20
10.603458963722588
 10
-9.414639187851057
 20
10.309577564698701
 10
-9.916013678350133
 20
10.01507796252561
 10
-10.414790789255743
 20
9.719956879124457
 10
-10.910511225924685
 20
9.423635968532606
 10
-11.40331370814955
 20
9.127020707721023
 10
-11.893459285121224
 20
8.830302785984308
 10
-12.380680351491113
 20
8.532642808168921
 10
-12.864590250591164
 20
8.234239019727177
 10
-13.3455161134297
 20
7.935411995509685
 10
-13.823524021824172
 20
7.63629062107246
 10
-14.29848181213968
 20
7.336617125303478
 10
-14.770197795081641
 20
7.036652557393623
 10
-15.238929741762101
 20
6.73626475370802
 10
-15.704618126521332
 20
6.435972534549587
 10
-16.167130785724456
 20
6.135518128806301
 10
-16.626401637554032
 20
5.834772650922145
 10
-17.08249676382751
 20
5.533864986453129
 10
-17.53541944262374
 20
5.233118988328726
 10
-17.98529855949874
 20
4.932468574731496
 10
-18.431744179705603
 20
4.631788138184288
 10
-18.87475630324433
 20
4.331077678687097
 10
-19.3143977338535
 20
4.030142228866469
 10
-19.75060566779453
 20
3.729176756095861
 10
-20.183578350519742
 20
3.4285679170433183
 10
-20.61325297829055
 20
3.128510679082291
 10
-21.03936522383721
 20
2.8284894999887196
 10
-21.46204397271573
 20
2.528438297945169
 10
-21.880836486440636
 20
2.228426432847933
 10
-22.296198781576262
 20
1.9287083977301844
 10
-22.70819693994005
 20
1.6294130781479352
 10
-23.116573190419963
 20
1.3306726377360687
 10
-23.521261451198573
 20
1.0323581909385589
 10
-23.922192362379576
 20
0.7340169992699312
 10
-24.319501365676714
 20
0.43623068677167753
 10
-24.7133867065423
 20
0.13938591011184656
 10
-25.10338909033312
 20
-0.1570956766721998
 10
-25.489637402605187
 20
-0.4532801553978982
 10
-25.872006035881366
 20
-0.7487775913183461
 10
-26.250623875717654
 20
-1.0436540662509786
 10
-26.625557003931497
 20
-1.3377806946397828
 10
-26.996478289514563
 20
-1.631478051335361
 10
-27.36351989610173
 20
-1.9244883652256937
 10
-27.726681823692996
 20
-2.2168116363107693
 10
-28.086228399558106
 20
-2.5079323223665315
 10
-28.441835770767607
 20
-2.797847145314122
 10
-28.793563462981204
 20
-3.0870749254564585
 10
-29.14115042700801
 20
-3.375807352088137
 10
-29.48473210456176
 20
-3.663462801167658
 10
-29.824569544833345
 20
-3.949849583400429
 10
-30.160269534997
 20
-4.23541715919307
 10
-30.491835353131577
 20
-4.519841675616118
 10
-30.819590852166556
 20
-4.803126410748429
 10
-31.1432782609899
 20
-5.085139200955127
 10
-31.462699334149303
 20
-5.366266702904264
 10
-31.778052317097064
 20
-5.646122259927787
 10
-32.089403291650626
 20
-5.924576986469686
 10
-32.39668617599256
 20
-6.201759768085976
 10
-32.699772084566845
 20
-6.477604522959211
 10
-32.99859493555604
 20
-6.752240136645419
 10
-33.2933496963336
 20
-7.025603805406011
 10
-33.58377859578751
 20
-7.297563365606123
 10
-33.87001379755261
 20
-7.567861046133715
 10
-34.152180909106086
 20
-7.836886781735695
 10
-34.42989327377988
 20
-8.104442326959752
 10
-34.70321369531258
 20
-8.37072264917934
 10
-34.972406500973904
 20
-8.635212206170397
 10
-35.2374716907639
 20
-8.89791099793292
 10
-35.49814821549164
 20
-9.159010713761505
 10
-35.75436999333971
 20
-9.418640239212166
 10
-36.00619982804667
 20
-9.676994541658358
 10
-36.253710357587686
 20
-9.933297029685122
 10
-36.49696438570133
 20
-10.18774267066592
 10
-36.735829748752735
 20
-10.440589235712782
 10
-36.97017756118589
 20
-10.691770643008265
 10
-37.20013998663565
 20
-10.941029121440344
 10
-37.42558486146716
 20
-11.18862244212104
 10
-37.646578267497844
 20
-11.434421719494347
 10
-37.86318628654515
 20
-11.678298068004251
 10
-38.07514786941818
 20
-11.920443176945337
 10
-38.282661261569245
 20
-12.160470389649566
 10
-38.48559102128463
 20
-12.398961330158434
 10
-38.68407259027804
 20
-12.635334374430435
 10
-38.878039886732054
 20
-12.869718408021598
 10
-39.06742682882923
 20
-13.102242316487933
 10
-39.25210453101355
 20
-13.332840018011993
 10
-39.43226796065848
 20
-13.561448708855215
 10
-39.607986477660305
 20
-13.787615650532105
 10
-39.779127918384155
 20
-14.011598614154702
 10
-39.94569228283003
 20
-14.233397599723
 10
-40.107874538371384
 20
-14.452949803498424
 10
-40.265350832078745
 20
-14.67025194740211
 10
-40.418382213143
 20
-14.885112342139465
 10
-40.56697195964301
 20
-15.09720713478103
 10
-40.711248957134806
 20
-15.306602407144235
 10
-40.850952156427475
 20
-15.513489848523667
 10
-40.98627652489449
 20
-15.717806655180764
 10
-41.1169642914238
 20
-15.919420663480635
 10
-41.24340539076232
 20
-16.118206265946135
 10
-41.365408133615475
 20
-16.313902413386376
 10
-41.48296924190438
 20
-16.50683295873081
 10
-41.59608871562904
 20
-16.69699790197945
 10
-41.70476655478946
 20
-16.884397243132298
 10
-41.80900603746449
 20
-17.068707129259877
 10
-41.908807163654146
 20
-17.24992756036219
 10
-42.00410057346211
 20
-17.428511274924723
 10
-42.09495562678471
 20
-17.604005534461994
 10
-42.181107996352175
 20
-17.77692588119806
 10
-42.26282200943425
 20
-17.946756772908863
 10
-42.3398333387612
 20
-18.11401375181846
 10
-42.41227414796789
 20
-18.278439046814825
 10
-42.48014443705432
 20
-18.44003265789795
 10
-42.54324923864704
 20
-18.598857388806422
 10
-42.60197848749297
 20
-18.754787632063085
 10
-42.655747281471726
 20
-18.908011798883667
 10
-42.70507444088624
 20
-19.058470363608453
 10
-42.74963611280704
 20
-19.20616004815858
 10
-42.789630542686446
 20
-19.35069419586601
 10
-42.825054452445606
 20
-19.492396659660205
 10
-42.85584503834592
 20
-19.63107247216771
 10
-42.88226662765715
 20
-19.766206091164467
 10
-42.904249860483006
 20
-19.89825025513596
 10
-42.92179801490233
 20
-20.02688111115272
 10
-42.935043254549996
 20
-20.151840888102715
 10
-42.94424990669578
 20
-20.272614043761884
 10
-42.94941797133966
 20
-20.389200578130225
 10
-42.95080849767254
 20
-20.501408801913154
 10
-42.94849412366957
 20
-20.608462123695706
 10
-42.942868062156506
 20
-20.709911083071262
 10
-42.93472001686376
 20
-20.804532906297112
 10
-42.924254789401346
 20
-20.891293230846266
 10
-42.91265857440428
 20
-20.968195969639915
 10
-42.90111756650759
 20
-21.033245035599254
 10
-42.890959958217735
 20
-21.083215011745036
 10
-42.88396668052667
 20
-21.114949840994313
 10
-42.46408661084782
 20
-21.939912984020015
 10
-42.45826761259421
 20
-21.945230592845483
 10
-42.440876699650836
 20
-21.96105453376589
 10
-42.41217819928743
 20
-21.98686926455716
 10
-42.37091983505155
 20
-22.024799757854122
 10
-42.31597165988904
 20
-22.077684773967974
 10
-42.25064104275063
 20
-22.13875618216848
 10
-42.17684763442086
 20
-22.20395244840172
 10
-42.09570826963847
 20
-22.271730224074375
 10
-42.008481781013614
 20
-22.33931683069268
 10
-41.915634019347216
 20
-22.405486216435058
 10
-41.8177531648385
 20
-22.469726117156316
 10
-41.714974659201204
 20
-22.531454908814947
 10
-41.607562829705074
 20
-22.59015704918689
 10
-41.495649839984985
 20
-22.645574767160113
 10
-41.37923569004093
 20
-22.69770806273462
 10
-41.258515347246366
 20
-22.746494132171833
 10
-41.13349208968015
 20
-22.791609122542276
 10
-41.00409983552486
 20
-22.833181919401977
 10
-40.870533552153944
 20
-22.871149719012347
 10
-40.732532190376496
 20
-22.905704210667984
 10
-40.59016183200996
 20
-22.936716508812875
 10
-40.44381241180125
 20
-22.96406100596986
 10
-40.29289902762999
 20
-22.98792611335467
 10
-40.137874417981685
 20
-23.008381190863616
 10
-39.978414729926875
 20
-23.025422960417824
 10
-39.81471493083897
 20
-23.038988618278722
 10
-39.64684110253544
 20
-23.04894927889029
 10
-39.474594999563976
 20
-23.055691598920582
 10
-39.298108785559435
 20
-23.05895780725756
 10
-39.11711813325207
 20
-23.05926344612529
 10
-38.931821288094206
 20
-23.056221858855725
 10
-38.74221497200697
 20
-23.05015689837833
 10
-38.548170299434354
 20
-23.041002482875673
 10
-38.349555106741484
 20
-23.029016383459776
 10
-38.146564361301806
 20
-23.014135796392075
 10
-37.939131981297884
 20
-22.996489607228575
 10
-37.72725796672972
 20
-22.976077815969273
 10
-37.51061518658899
 20
-22.953220997464786
 10
-37.28952749380517
 20
-22.927922429793973
 10
-37.06380319908363
 20
-22.899921063765937
 10
-36.83370007353645
 20
-22.869349063015566
 10
-36.5989570679727
 20
-22.836398116837437
 10
-36.35970306794841
 20
-22.801134307048994
 10
-36.11587526972502
 20
-22.76336266627679
 10
-35.86773472249339
 20
-22.722891505226222
 10
-35.615086458880086
 20
-22.679783627635874
 10
-35.35812216817969
 20
-22.634300082696637
 10
-35.0967129648362
 20
-22.586374788591073
 10
-34.83085884884961
 20
-22.53600774531918
 10
-34.56075806567222
 20
-22.48281229621291
 10
-34.28653950086007
 20
-22.42685452308971
 10
-34.00807426885712
 20
-22.368068344132126
 10
-33.72535909158454
 20
-22.30677761226964
 10
-33.438393969042295
 20
-22.24298232750225
 10
-33.14744322850015
 20
-22.176166947605886
 10
-32.852503591879255
 20
-22.10665532551003
 10
-32.553512255441014
 20
-22.034252493841215
 10
-32.250403137368004
 20
-21.959087338155463
 10
-31.94330512321624
 20
-21.881225940270216
 10
-31.632284294803156
 20
-21.80053941462945
 10
-31.31727457031132
 20
-21.717156646789192
 10
-30.998275949740716
 20
-21.631077636749428
 10
-30.67535451490879
 20
-21.54217349895415
 10
-30.348573069554128
 20
-21.45063920077681
 10
-30.017931613676723
 20
-21.35647474221741
 10
-29.683367343537995
 20
-21.259485155902492
 10
-29.3450058666151
 20
-21.16006037657897
 10
-29.002784379169462
 20
-21.05800543687338
 10
-28.656636799383648
 20
-20.953449222341746
 10
-28.30675809463111
 20
-20.846328929245487
 10
-27.95334651036415
 20
-20.73625790091656
 10
-27.596203801130468
 20
-20.623622794023003
 10
-27.235068917739166
 20
-20.508615297859418
 10
-26.870394598675734
 20
-20.3913047723221
 10
-26.502055236463
 20
-20.27130128266414
 10
-26.130116912918428
 20
-20.14847594332953
 10
-25.754705235519154
 20
-20.023218689065164
 10
-25.375625236891736
 20
-19.895592323609634
 10
-24.993009080671033
 20
-19.765339075850896
 10
-24.606985652413076
 20
-19.63252502760639
 10
-24.217621033935302
 20
-19.497021293320106
 10
-23.824716979785386
 20
-19.359214529660093
 10
-23.428405653598215
 20
-19.218846965514313
 10
-23.02855489173891
 20
-19.076176371994798
 10
-22.625620710771816
 20
-18.930948256068373
 10
-22.219279257767464
 20
-18.78315933965619
 10
-21.809659418281868
 20
-18.632875704575675
 10
-21.3968239960536
 20
-18.480292318200288
 10
-20.980776269161534
 20
-18.325085327600558
 10
-20.5615129595268
 20
-18.167578585705957
 10
-20.13922903452285
 20
-18.007709288777896
 10
-19.713798886672535
 20
-17.845087502069486
 10
-19.285480287087886
 20
-17.67984538921559
 10
-18.854074990316576
 20
-17.512369606884253
 10
-18.419582996358628
 20
-17.34266015507548
 10
-17.982004305214023
 20
-17.170717033789273
 10
-17.5416660478911
 20
-16.99621966817502
 10
-17.09870038802472
 20
-16.818910287120687
 10
-16.652714112789138
 20
-16.639238351032905
 10
-16.20396499329637
 20
-16.457336023546546
 10
-15.752456307625277
 20
-16.272879451732138
 10
-15.298449104966751
 20
-16.085676946295095
 10
-14.841745139868488
 20
-15.89611516390346
 10
-14.382341134251616
 20
-15.704517957486695
 10
-13.920240366195005
 20
-15.510561474115345
 10
-13.45564108115096
 20
-15.31385905712135
 10
-12.988668886596635
 20
-15.114800641251627
 10
-12.519257700714595
 20
-14.913515112062182
 10
-12.047149752392817
 20
-14.709870305918146
 10
-11.572797780116774
 20
-14.503935582715812
 10
-11.09620506196533
 20
-14.295387089525716
 10
-10.617371597938487
 20
-14.084224826347857
 10
-10.13636019177482
 20
-13.870643760555687
 10
-9.65284043438714
 20
-13.655288319929282
 10
-9.167139456783783
 20
-13.437837929618036
 10
-8.679392700678473
 20
-13.217710965580448
 10
-8.18953408425378
 20
-12.995036313372534
 10
-7.697821378621727
 20
-12.769946136629168
 10
-7.203861370956557
 20
-12.54288989575697
 10
-6.70791511044916
 20
-12.313675901461359
 10
-6.209982597099531
 20
-12.082304153742323
 10
-5.710195994542542
 20
-11.848516881487836
 10
-5.208489220960764
 20
-11.612442970253916
 10
-4.7049878838313575
 20
-11.374472354787466
 10
-4.199566375677156
 20
-11.13421510034158
 10
-3.692614631245055
 20
-10.891545599439096
 10
-3.1840665687176375
 20
-10.646592737636041
 10
-2.673856106277458
 20
-10.399485400488423
 10
-2.1619204401859395
 20
-10.150028620622791
 10
-1.6487783907460125
 20
-9.898162872379434
 10
-1.134367154219079
 20
-9.643693188384885
 10
-0.6181613541445089
 20
-9.38732680015781
 10
-0.10048484345176957
 20
-9.12906698577706
 10
0.4181370013984981
 20
-8.868206513723985
 10
0.9381601969706284
 20
-8.604999877031762
 10
1.4595219395260606
 20
-8.339642043073832
 10
1.9818322943178783
 20
-8.072007404373046
 10
2.5052829506406726
 20
-7.801834911738515
 10
3.0296161373824213
 20
-7.529256728805109
 10
3.555225067368886
 20
-7.254722315979455
 10
4.081848691409168
 20
-6.978039983966963
 10
4.609027714860087
 20
-6.6986313868049825
 10
5.137089268729942
 20
-6.416817099344136
 10
5.66616879473249
 20
-6.133178745625911
 10
6.195939360104837
 20
-5.847396137456379
 10
6.72647447384001
 20
-5.559295186922148
 10
7.257783493544048
 20
-5.269211604423851
 10
7.789602290192665
 20
-4.976630234394088
 10
8.321930995949502
 20
-4.68155133460397
 10
8.854905052528279
 20
-4.384556529095003
 10
9.388461920517692
 20
-4.085841300782862
 10
9.922664469738152
 20
-3.7852108111796414
 10
10.457185635263123
 20
-3.482344614320301
 10
10.992157646809316
 20
-3.177500610202419
 10
11.527580768704004
 20
-2.8706793143682208
 10
12.063326049309339
 20
-2.56194667974959
 10
12.599195441418463
 20
-2.250916436335151
 10
13.135321108666258
 20
-1.93784635523693
 10
13.671709607210444
 20
-1.623384142313862
 10
14.208552890672877
 20
-1.3072692639172867
 10
14.745394876407396
 20
-0.9892470981284742
 10
15.282430663951102
 20
-0.6693807064571109
 10
15.819402482191949
 20
-0.34780225253807706
 10
16.356505364585214
 20
-0.024574668995505818
 10
16.893673295395278
 20
0.3004308008410663
 10
17.43071458532754
 20
0.6269531077807405
 10
17.967890283572906
 20
0.9548005625289365
 10
18.50513450655937
 20
1.284101663984989
 10
19.042123203112023
 20
1.614853520726711
 10
19.579051472767965
 20
1.946993071244418
 10
20.115922593606037
 20
2.280196462608637
 10
20.652601189994318
 20
2.6150451899753056
 10
21.18896152229204
 20
2.95114957636864
 10
21.72513575413405
 20
3.2882518506765988
 10
22.261057869784757
 20
3.626480769569656
 10
22.796595705609267
 20
3.96609410415983
 10
23.331881491324282
 20
4.306833954449539
 10
23.866789289043556
 20
4.648311030119655
 10
24.401315952851856
 20
4.990848926328533
 10
24.93553084264548
 20
5.333994904590693
 10
25.46923558080849
 20
5.678135879345293
 10
26.00236415160527
 20
6.023400607262789
 10
26.53504871867069
 20
6.369531317231158
 10
27.0672293598541
 20
6.716009962260798
 10
27.599035158957022
 20
7.062902237512503
 10
28.130138852807445
 20
7.410528975607971
 10
28.6606063910592
 20
7.7587615487623145
 10
29.190437839794097
 20
8.107599828089969
 10
29.71969914866592
 20
8.45691518580603
 10
30.248066134336142
 20
8.806704988259426
 10
30.775733962423658
 20
9.156906045054905
 10
31.302639432698975
 20
9.50732416213235
 10
31.829043924762093
 20
9.857767005769393
 10
32.35442474549483
 20
10.20861911452521
 10
32.87884804279649
 20
10.55975147395825
 10
33.40277311131026
 20
10.910585738105857
 10
33.9255453586104
 20
11.261763701097045
 10
34.447098504634
 20
11.61341463514448
 10
34.96795812408717
 20
11.964830922072853
 10
35.487998080838224
 20
12.3156236582197
 10
36.006950901702176
 20
12.666631980967438
 10
36.524753518613146
 20
13.017661438484827
 10
37.041276649524264
 20
13.368646722267789
 10
37.55678154187187
 20
13.71939575636506
 10
38.07120506150826
 20
14.069714217830942
 10
38.58461309200545
 20
14.41947360776611
 10
39.09674438592709
 20
14.768866002121822
 10
39.60746651531104
 20
15.118149687552334
 10
40.11697765952778
 20
15.466938136275143
 10
40.62527775249551
 20
15.815231477175821
 10
41.132174378019634
 20
16.162770078804584
 10
41.63792576978491
 20
16.509685202597417
 10
42.14207525040881
 20
16.856232630443053
 10
42.644688769545155
 20
17.202283734556595
 10
43.14609647195383
 20
17.547194602700166
 10
43.646232341899264
 20
17.891093991544256
 10
44.1447055855709
 20
18.234109184078232
 10
44.641840518470914
 20
18.576242556182073
 10
45.13731256076986
 20
18.917492247518016
 10
45.63125073018739
 20
19.2579240821324
 10
46.12365784222964
 20
19.597215109294655
 10
46.614404548767865
 20
19.935300149386215
 10
47.10375209723842
 20
20.27198712645584
 10
47.591243612013315
 20
20.607532209048912
 10
48.077137326777326
 20
20.942066658601433
 10
48.561108661701
 20
21.275588614775646
 10
49.04355377727982
 20
21.60732540866323
 10
49.524343391466935
 20
21.937211731760108
 10
50.00333924704242
 20
22.266152158838334
 10
50.480087416048114
 20
22.59407964994163
 10
50.95537478670826
 20
22.920094382057858
 10
51.42887671311157
 20
23.244194623734828
 10
51.90032853757921
 20
23.56689656162437
 10
52.36973012794754
 20
23.888200453497603
 10
52.837147367788575
 20
24.207977800455193
 10
53.30291053402582
 20
24.52558443248816
 10
53.76662863460333
 20
24.84114801924256
 10
54.22836185599898
 20
25.15518609216575
 10
54.687851369791666
 20
25.46756854979176
 10
55.14522914137081
 20
25.778038007665227
 10
55.600627202207654
 20
26.086336952445222
 10
56.05391312434004
 20
26.39272367078601
 10
56.504957361393785
 20
26.697133369725698
 10
56.95402122688705
 20
26.999373844427485
 10
57.40084589239876
 20
27.29931499342541
 10
57.845362262359835
 20
27.59740903966269
 10
58.28731137618553
 20
27.89352613944447
 10
58.727213177569695
 20
28.1876045760566
 10
59.16468230546859
 20
28.479126117683958
 10
59.59997725789431
 20
28.76822151022033
 10
60.033031688702046
 20
29.055020154763916
 10
60.46345460583587
 20
29.3396497209608
 10
60.89131176070412
 20
29.621981967682736
 10
61.316927667054465
 20
29.902018884153026
 10
61.73998029623627
 20
30.17943617484557
 10
62.160730829604084
 20
30.45404189269466
 10
62.578851475331405
 20
30.72615790140648
 10
62.994405235402255
 20
30.995978781697808
 10
63.40732864525989
 20
31.263310855050733
 10
63.817621440577014
 20
31.528154637007496
 10
64.22535225434997
 20
31.790058806823737
 10
64.63045205709155
 20
32.049475458557154
 10
65.03272790395258
 20
32.30614599184239
 10
65.43217671509969
 20
32.5603938729523
 10
65.82899660382157
 20
32.8118327029899
 10
66.22312397339782
 20
33.06026906120846
 10
66.61436031404881
 20
33.30609011981819
 10
67.00270542752915
 20
33.54929626547581
 10
67.38815904951157
 20
33.78988801372352
 10
67.77059438304616
 20
34.02747774975442
 10
68.15040208977985
 20
34.26193844835025
 10
68.52712214816941
 20
34.493849873214764
 10
68.90069102757631
 20
34.72301847471561
 10
69.27123781180201
 20
34.949509948013564
 10
69.63876505202536
 20
35.17300185792029
 10
70.00307705397292
 20
35.393558425915465
 10
70.3643662999211
 20
35.61143915456332
 10
70.72257194257382
 20
35.826127801272044
 10
71.07756162005079
 20
36.03788252381033
 10
71.42940121592396
 20
36.24657482327885
 10
71.77789215433194
 20
36.45259200077342
 10
72.12316640066415
 20
36.65567667183866
 10
72.46509427638273
 20
36.855764301283834
 10
72.80374166505975
 20
37.05272639020959
 10
73.1391717008428
 20
37.246757261561584
 10
73.47105920916607
 20
37.43785621497208
 10
73.79940385962055
 20
37.62602389486888
 10
74.1244010160705
 20
37.81119672420004
 10
74.44611682641523
 20
37.993245688524006
 10
74.76409534017222
 20
38.172425151988406
 10
75.0784597598611
 20
38.348812280568445
 10
75.38941474087058
 20
38.522007915697195
 10
75.6967621438999
 20
38.692081047619894
 10
76.00036967315066
 20
38.85928970521973
 10
76.30049870822266
 20
39.02344155477425
 10
76.5969561721033
 20
39.18427825368931
 10
76.88973911712272
 20
39.34212301046657
 10
77.17878126321803
 20
39.4971050973187
 10
77.46395299793328
 20
39.64915985016941
 10
77.74538628665786
 20
39.79802988456333
 10
78.02301471716524
 20
39.94384473048423
 10
78.29670599365693
 20
40.08686241681528
 10
78.56652593362308
 20
40.226954573542685
 10
78.83247715432434
 20
40.36379863659251
 10
79.09455932535171
 20
40.49739525039258
 10
79.3526374675641
 20
40.628325136785456
 10
79.60664791815933
 20
40.756395003909944
 10
79.8565906110556
 20
40.88160498065159
 10
80.10253129766126
 20
41.00382682588218
 10
80.34434043160208
 20
41.12299574663979
 10
80.58214716276139
 20
41.23917730919967
 10
80.81568984721191
 20
41.352564362826406
 10
81.04510031817946
 20
41.462899780835755
 10
81.27024627986549
 20
41.57044159211084
 10
81.49138917795186
 20
41.674997334043766
 10
81.70813775605525
 20
41.77669519182277
 10
81.92055521440514
 20
41.875729359507986
 10
82.12857802236302
 20
41.97190628746709
 10
82.33240154379321
 20
42.065162398648155
 10
82.53176347395028
 20
42.15569183117134
 10
82.72692492810695
 20
42.24330276685649
 10
82.91743273121706
 20
42.32824415665788
 10
83.10360650697368
 20
42.41052752732994
 10
83.28518914508302
 20
42.49001942638225
 10
83.46230992759199
 20
42.566785162318894
 10
83.63496872233696
 20
42.64082499291101
 10
83.80309924925501
 20
42.712268190371255
 10
83.96663810987123
 20
42.7809209472962
 10
84.12545287622345
 20
42.84704155034007
 10
84.27973911042153
 20
42.91056603579433
 10
84.42930098602832
 20
42.97155888290974
 10
84.57420451877952
 20
43.02989133501587
 10
84.7143835607758
 20
43.08569240655428
 10
84.84990399558919
 20
43.13883359862562
 10
84.98069967532044
 20
43.18944392567147
 10
85.1066383702528
 20
43.2377812876894
 10
85.22772256548339
 20
43.28352337837664
 10
85.34414513977949
 20
43.32692892698406
 10
85.45545137220111
 20
43.36793244018204
 10
85.56209578544275
 20
43.406599797956865
 10
85.66381928675608
 20
43.44280141438479
 10
85.76048964642439
 20
43.47679518946337
 10
85.85230236047568
 20
43.50851728836962
 10
85.93912781645395
 20
43.53790304702721
 10
86.02083385072432
 20
43.565210236548154
 10
86.09768197505036
 20
43.59024626543896
 10
86.16941054550489
 20
43.61320398296426
 10
86.23608551174166
 20
43.63395476133912
 10
86.29757471012584
 20
43.652756371675586
 10
86.35394422247485
 20
43.66947992841764
 10
86.40525731509999
 20
43.684319496739846
 10
86.45125496133467
 20
43.69714536183287
 10
86.49200062573567
 20
43.70815120221464
 10
86.52762372251355
 20
43.717402068618114
 10
86.55786522500172
 20
43.72476824623401
 10
86.58272238377592
 20
43.730572556907326
 10
86.6023909591913
 20
43.734750650272815
 10
86.61647949661929
 20
43.73743109817545
 10
86.625051658862
 20
43.73880719247641
 10
86.62797508403912
 20
43.73913709094442
  0
ENDSEC
  0
SECTION
  2
OBJECTS
  0
DICTIONARY
  5
A
330
0
100
AcDbDictionary
280
0
281
1
  3
ACAD_COLOR
350
B
  3
ACAD_GROUP
350
C
  3
ACAD_LAYOUT
350
D
  3
ACAD_MATERIAL
350
E
  3
ACAD_MLEADERSTYLE
350
F
  3
ACAD_MLINESTYLE
350
10
  3
ACAD_PLOTSETTINGS
350
11
  3
ACAD_PLOTSTYLENAME
350
12
  3
ACAD_SCALELIST
350
14
  3
ACAD_TABLESTYLE
350
15
  3
ACAD_VISUALSTYLE
350
16
  3
EZDXF_META
350
2D
  0
DICTIONARY
  5
B
330
A
100
AcDbDictionary
280
0
281
1
  0
DICTIONARY
  5
C
330
A
100
AcDbDictionary
280
0
281
1
  0
DICTIONARY
  5
D
330
A
100
AcDbDictionary
280
0
281
1
  3
Model
350
1A
  3
Layout1
350
1E
  0
DICTIONARY
  5
E
330
A
100
AcDbDictionary
280
0
281
1
  3
ByBlock
350
1F
  3
ByLayer
350
20
  3
Global
350
21
  0
DICTIONARY
  5
F
330
A
100
AcDbDictionary
280
0
281
1
  3
Standard
350
2C
  0
DICTIONARY
  5
10
330
A
100
AcDbDictionary
280
0
281
1
  3
Standard
350
22
  0
DICTIONARY
  5
11
330
A
100
AcDbDictionary
280
0
281
1
  0
ACDBDICTIONARYWDFLT
  5
12
330
A
100
AcDbDictionary
280
0
281
1
  3
Normal
350
13
100
AcDbDictionaryWithDefault
340
13
  0
ACDBPLACEHOLDER
  5
13
330
12
  0
DICTIONARY
  5
14
330
A
100
AcDbDictionary
280
0
281
1
  0
DICTIONARY
  5
15
330
A
100
AcDbDictionary
280
0
281
1
  0
DICTIONARY
  5
16
330
A
100
AcDbDictionary
280
0
281
1
  0
LAYOUT
  5
1A
330
D
100
AcDbPlotSettings
  1

  4
A3
  6

 40
7.5
 41
20.0
 42
7.5
 43
20.0
 44
420.0
 45
297.0
 46
0.0
 47
0.0
 48
0.0
 49
0.0
140
0.0
141
0.0
142
1.0
143
1.0
 70
1024
 72
1
 73
0
 74
5
  7

 75
16
 76
0
 77
2
 78
300
147
1.0
148
0.0
149
0.0
100
AcDbLayout
  1
Model
 70
1
 71
0
 10
0.0
 20
0.0
 11
420.0
 21
297.0
 12
0.0
 22
0.0
 32
0.0
 14
1e+20
 24
1e+20
 34
1e+20
 15
-1e+20
 25
-1e+20
 35
-1e+20
146
0.0
 13
0.0
 23
0.0
 33
0.0
 16
1.0
 26
0.0
 36
0.0
 17
0.0
 27
1.0
 37
0.0
 76
1
330
17
  0
LAYOUT
  5
1E
330
D
100
AcDbPlotSettings
  1

  4
A3
  6

 40
7.5
 41
20.0
 42
7.5
 43
20.0
 44
420.0
 45
297.0
 46
0.0
 47
0.0
 48
0.0
 49
0.0
140
0.0
141
0.0
142
1.0
143
1.0
 70
0
 72
1
 73
0
 74
5
  7

 75
16
 76
0
 77
2
 78
300
147
1.0
148
0.0
149
0.0
100
AcDbLayout
  1
Layout1
 70
1
 71
1
 10
0.0
 20
0.0
 11
420.0
 21
297.0
 12
0.0
 22
0.0
 32
0.0
 14
1e+20
 24
1e+20
 34
1e+20
 15
-1e+20
 25
-1e+20
 35
-1e+20
146
0.0
 13
0.0
 23
0.0
 33
0.0
 16
1.0
 26
0.0
 36
0.0
 17
0.0
 27
1.0
 37
0.0
 76
1
330
1B
  0
MATERIAL
  5
1F
102
{ACAD_REACTORS
330
E
102
}
330
E
100
AcDbMaterial
  1
ByBlock
  2

 70
0
 40
1.0
 71
1
 41
1.0
 91
-1023410177
 42
1.0
 72
1
  3

 73
1
 74
1
 75
1
 44
0.5
 73
0
 45
1.0
 46
1.0
 77
1
  4

 78
1
 79
1
170
1
 48
1.0
171
1
  6

172
1
173
1
174
1
140
1.0
141
1.0
175
1
  7

176
1
177
1
178
1
143
1.0
179
1
  8

270
1
271
1
272
1
145
1.0
146
1.0
273
1
  9

274
1
275
1
276
1
 42
1.0
 72
1
  3

 73
1
 74
1
 75
1
 94
63
  0
MATERIAL
  5
20
102
{ACAD_REACTORS
330
E
102
}
330
E
100
AcDbMaterial
  1
ByLayer
  2

 70
0
 40
1.0
 71
1
 41
1.0
 91
-1023410177
 42
1.0
 72
1
  3

 73
1
 74
1
 75
1
 44
0.5
 73
0
 45
1.0
 46
1.0
 77
1
  4

 78
1
 79
1
170
1
 48
1.0
171
1
  6

172
1
173
1
174
1
140
1.0
141
1.0
175
1
  7

176
1
177
1
178
1
143
1.0
179
1
  8

270
1
271
1
272
1
145
1.0
146
1.0
273
1
  9

274
1
275
1
276
1
 42
1.0
 72
1
  3

 73
1
 74
1
 75
1
 94
63
  0
MATERIAL
  5
21
102
{ACAD_REACTORS
330
E
102
}
330
E
100
AcDbMaterial
  1
Global
  2

 70
0
 40
1.0
 71
1
 41
1.0
 91
-1023410177
 42
1.0
 72
1
  3

 73
1
 74
1
 75
1
 44
0.5
 73
0
 45
1.0
 46
1.0
 77
1
  4

 78
1
 79
1
170
1
 48
1.0
171
1
  6

172
1
173
1
174
1
140
1.0
141
1.0
175
1
  7

176
1
177
1
178
1
143
1.0
179
1
  8

270
1
271
1
272
1
145
1.0
146
1.0
273
1
  9

274
1
275
1
276
1
 42
1.0
 72
1
  3

 73
1
 74
1
 75
1
 94
63
  0
MLINESTYLE
  5
22
102
{ACAD_REACTORS
330
10
102
}
330
10
100
AcDbMlineStyle
  2
Standard
 70
0
  3

 62
256
 51
90.0
 52
90.0
 71
2
 49
0.5
 62
256
  6
BYLAYER
 49
-0.5
 62
256
  6
BYLAYER
  0
MLEADERSTYLE
  5
2C
102
{ACAD_REACTORS
330
F
102
}
330
F
100
AcDbMLeaderStyle
179
2
170
2
171
1
172
0
 90
2
 40
0.0
 41
0.0
173
1
 91
-1056964608
 92
-2
290
1
 42
2.0
291
1
 43
8.0
  3
Standard
 44
4.0
300

342
29
174
1
175
1
176
0
178
1
 93
-1056964608
 45
4.0
292
0
297
0
 46
4.0
 94
-1056964608
 47
1.0
 49
1.0
140
1.0
294
1
141
0.0
177
0
142
1.0
295
0
296
0
143
3.75
271
0
272
9
273
9
  0
DICTIONARY
  5
2D
330
A
100
AcDbDictionary
280
1
281
1
  3
CREATED_BY_EZDXF
350
2E
  3
WRITTEN_BY_EZDXF
350
32
  0
DICTIONARYVAR
  5
2E
330
2D
100
DictionaryVariables
280
0
  1
1.3.5 @ 2025-08-20T01:28:29.146772+00:00
  0
DICTIONARYVAR
  5
32
330
2D
100
DictionaryVariables
280
0
  1
1.3.5 @ 2025-08-20T01:28:29.162391+00:00
  0
ENDSEC
  0
EOF
