  0
SECTION
  2
HEADER
  9
$ACADVER
  1
AC1032
  9
$ACADMAINTVER
 90
4
  9
$DWGCODEPAGE
  3
ANSI_1252
  9
$LASTSAVEDBY
  1
ezdxf
  9
$REQUIREDVERSIONS
160
0
  9
$INSBASE
 10
0.0
 20
0.0
 30
0.0
  9
$EXTMIN
 10
1e+20
 20
1e+20
 30
1e+20
  9
$EXTMAX
 10
-1e+20
 20
-1e+20
 30
-1e+20
  9
$LIMMIN
 10
0.0
 20
0.0
  9
$LIMMAX
 10
420.0
 20
297.0
  9
$ORTHOMODE
 70
0
  9
$REGENMODE
 70
1
  9
$FILLMODE
 70
1
  9
$QTEXTMODE
 70
0
  9
$MIRRTEXT
 70
1
  9
$LTSCALE
 40
1.0
  9
$ATTMODE
 70
1
  9
$TEXTSIZE
 40
2.5
  9
$TRACEWID
 40
1.0
  9
$TEXTSTYLE
  7
Standard
  9
$CLAYER
  8
0
  9
$CELTYPE
  6
ByLayer
  9
$CECOLOR
 62
256
  9
$CELTSCALE
 40
1.0
  9
$DISPSILH
 70
0
  9
$DIMSCALE
 40
1.0
  9
$DIMASZ
 40
2.5
  9
$DIMEXO
 40
0.625
  9
$DIMDLI
 40
3.75
  9
$DIMRND
 40
0.0
  9
$DIMDLE
 40
0.0
  9
$DIMEXE
 40
1.25
  9
$DIMTP
 40
0.0
  9
$DIMTM
 40
0.0
  9
$DIMTXT
 40
2.5
  9
$DIMCEN
 40
2.5
  9
$DIMTSZ
 40
0.0
  9
$DIMTOL
 70
0
  9
$DIMLIM
 70
0
  9
$DIMTIH
 70
0
  9
$DIMTOH
 70
0
  9
$DIMSE1
 70
0
  9
$DIMSE2
 70
0
  9
$DIMTAD
 70
1
  9
$DIMZIN
 70
8
  9
$DIMBLK
  1

  9
$DIMASO
 70
1
  9
$DIMSHO
 70
1
  9
$DIMPOST
  1

  9
$DIMAPOST
  1

  9
$DIMALT
 70
0
  9
$DIMALTD
 70
3
  9
$DIMALTF
 40
0.03937007874
  9
$DIMLFAC
 40
1.0
  9
$DIMTOFL
 70
1
  9
$DIMTVP
 40
0.0
  9
$DIMTIX
 70
0
  9
$DIMSOXD
 70
0
  9
$DIMSAH
 70
0
  9
$DIMBLK1
  1

  9
$DIMBLK2
  1

  9
$DIMSTYLE
  2
ISO-25
  9
$DIMCLRD
 70
0
  9
$DIMCLRE
 70
0
  9
$DIMCLRT
 70
0
  9
$DIMTFAC
 40
1.0
  9
$DIMGAP
 40
0.625
  9
$DIMJUST
 70
0
  9
$DIMSD1
 70
0
  9
$DIMSD2
 70
0
  9
$DIMTOLJ
 70
0
  9
$DIMTZIN
 70
8
  9
$DIMALTZ
 70
0
  9
$DIMALTTZ
 70
0
  9
$DIMUPT
 70
0
  9
$DIMDEC
 70
2
  9
$DIMTDEC
 70
2
  9
$DIMALTU
 70
2
  9
$DIMALTTD
 70
3
  9
$DIMTXSTY
  7
Standard
  9
$DIMAUNIT
 70
0
  9
$DIMADEC
 70
0
  9
$DIMALTRND
 40
0.0
  9
$DIMAZIN
 70
0
  9
$DIMDSEP
 70
44
  9
$DIMATFIT
 70
3
  9
$DIMFRAC
 70
0
  9
$DIMLDRBLK
  1

  9
$DIMLUNIT
 70
2
  9
$DIMLWD
 70
-2
  9
$DIMLWE
 70
-2
  9
$DIMTMOVE
 70
0
  9
$DIMFXL
 40
1.0
  9
$DIMFXLON
 70
0
  9
$DIMJOGANG
 40
0.785398163397
  9
$DIMTFILL
 70
0
  9
$DIMTFILLCLR
 70
0
  9
$DIMARCSYM
 70
0
  9
$DIMLTYPE
  6

  9
$DIMLTEX1
  6

  9
$DIMLTEX2
  6

  9
$DIMTXTDIRECTION
 70
0
  9
$LUNITS
 70
2
  9
$LUPREC
 70
4
  9
$SKETCHINC
 40
1.0
  9
$FILLETRAD
 40
10.0
  9
$AUNITS
 70
0
  9
$AUPREC
 70
2
  9
$MENU
  1
.
  9
$ELEVATION
 40
0.0
  9
$PELEVATION
 40
0.0
  9
$THICKNESS
 40
0.0
  9
$LIMCHECK
 70
0
  9
$CHAMFERA
 40
0.0
  9
$CHAMFERB
 40
0.0
  9
$CHAMFERC
 40
0.0
  9
$CHAMFERD
 40
0.0
  9
$SKPOLY
 70
0
  9
$TDCREATE
 40
2460908.103113426
  9
$TDUCREATE
 40
2458532.153996898
  9
$TDUPDATE
 40
2460908.103113426
  9
$TDUUPDATE
 40
2458532.1544311
  9
$TDINDWG
 40
0.0
  9
$TDUSRTIMER
 40
0.0
  9
$USRTIMER
 70
1
  9
$ANGBASE
 50
0.0
  9
$ANGDIR
 70
0
  9
$PDMODE
 70
0
  9
$PDSIZE
 40
0.0
  9
$PLINEWID
 40
0.0
  9
$SPLFRAME
 70
0
  9
$SPLINETYPE
 70
6
  9
$SPLINESEGS
 70
8
  9
$HANDSEED
  5
33
  9
$SURFTAB1
 70
6
  9
$SURFTAB2
 70
6
  9
$SURFTYPE
 70
6
  9
$SURFU
 70
6
  9
$SURFV
 70
6
  9
$UCSBASE
  2

  9
$UCSNAME
  2

  9
$UCSORG
 10
0.0
 20
0.0
 30
0.0
  9
$UCSXDIR
 10
1.0
 20
0.0
 30
0.0
  9
$UCSYDIR
 10
0.0
 20
1.0
 30
0.0
  9
$UCSORTHOREF
  2

  9
$UCSORTHOVIEW
 70
0
  9
$UCSORGTOP
 10
0.0
 20
0.0
 30
0.0
  9
$UCSORGBOTTOM
 10
0.0
 20
0.0
 30
0.0
  9
$UCSORGLEFT
 10
0.0
 20
0.0
 30
0.0
  9
$UCSORGRIGHT
 10
0.0
 20
0.0
 30
0.0
  9
$UCSORGFRONT
 10
0.0
 20
0.0
 30
0.0
  9
$UCSORGBACK
 10
0.0
 20
0.0
 30
0.0
  9
$PUCSBASE
  2

  9
$PUCSNAME
  2

  9
$PUCSORG
 10
0.0
 20
0.0
 30
0.0
  9
$PUCSXDIR
 10
1.0
 20
0.0
 30
0.0
  9
$PUCSYDIR
 10
0.0
 20
1.0
 30
0.0
  9
$PUCSORTHOREF
  2

  9
$PUCSORTHOVIEW
 70
0
  9
$PUCSORGTOP
 10
0.0
 20
0.0
 30
0.0
  9
$PUCSORGBOTTOM
 10
0.0
 20
0.0
 30
0.0
  9
$PUCSORGLEFT
 10
0.0
 20
0.0
 30
0.0
  9
$PUCSORGRIGHT
 10
0.0
 20
0.0
 30
0.0
  9
$PUCSORGFRONT
 10
0.0
 20
0.0
 30
0.0
  9
$PUCSORGBACK
 10
0.0
 20
0.0
 30
0.0
  9
$USERI1
 70
0
  9
$USERI2
 70
0
  9
$USERI3
 70
0
  9
$USERI4
 70
0
  9
$USERI5
 70
0
  9
$USERR1
 40
0.0
  9
$USERR2
 40
0.0
  9
$USERR3
 40
0.0
  9
$USERR4
 40
0.0
  9
$USERR5
 40
0.0
  9
$WORLDVIEW
 70
1
  9
$SHADEDGE
 70
3
  9
$SHADEDIF
 70
70
  9
$TILEMODE
 70
1
  9
$MAXACTVP
 70
64
  9
$PINSBASE
 10
0.0
 20
0.0
 30
0.0
  9
$PLIMCHECK
 70
0
  9
$PEXTMIN
 10
1e+20
 20
1e+20
 30
1e+20
  9
$PEXTMAX
 10
-1e+20
 20
-1e+20
 30
-1e+20
  9
$PLIMMIN
 10
0.0
 20
0.0
  9
$PLIMMAX
 10
420.0
 20
297.0
  9
$UNITMODE
 70
0
  9
$VISRETAIN
 70
1
  9
$PLINEGEN
 70
0
  9
$PSLTSCALE
 70
1
  9
$TREEDEPTH
 70
3020
  9
$CMLSTYLE
  2
Standard
  9
$CMLJUST
 70
0
  9
$CMLSCALE
 40
20.0
  9
$PROXYGRAPHICS
 70
1
  9
$MEASUREMENT
 70
1
  9
$CELWEIGHT
370
-1
  9
$ENDCAPS
280
0
  9
$JOINSTYLE
280
0
  9
$LWDISPLAY
290
0
  9
$INSUNITS
 70
6
  9
$HYPERLINKBASE
  1

  9
$STYLESHEET
  1

  9
$XEDIT
290
1
  9
$CEPSNTYPE
380
0
  9
$PSTYLEMODE
290
1
  9
$FINGERPRINTGUID
  2
{144F1E36-7D8B-44A8-BE03-31C6074EB414}
  9
$VERSIONGUID
  2
{E3B12BB0-4DF6-478E-9B2C-EC6822497ECE}
  9
$EXTNAMES
290
1
  9
$PSVPSCALE
 40
0.0
  9
$OLESTARTUP
290
0
  9
$SORTENTS
280
127
  9
$INDEXCTL
280
0
  9
$HIDETEXT
280
1
  9
$XCLIPFRAME
280
1
  9
$HALOGAP
280
0
  9
$OBSCOLOR
 70
257
  9
$OBSLTYPE
280
0
  9
$INTERSECTIONDISPLAY
280
0
  9
$INTERSECTIONCOLOR
 70
257
  9
$DIMASSOC
280
2
  9
$PROJECTNAME
  1

  9
$CAMERADISPLAY
290
0
  9
$LENSLENGTH
 40
50.0
  9
$CAMERAHEIGHT
 40
0.0
  9
$STEPSPERSEC
 40
24.0
  9
$STEPSIZE
 40
100.0
  9
$3DDWFPREC
 40
2.0
  9
$PSOLWIDTH
 40
0.005
  9
$PSOLHEIGHT
 40
0.08
  9
$LOFTANG1
 40
1.570796326795
  9
$LOFTANG2
 40
1.570796326795
  9
$LOFTMAG1
 40
0.0
  9
$LOFTMAG2
 40
0.0
  9
$LOFTPARAM
 70
7
  9
$LOFTNORMALS
280
1
  9
$LATITUDE
 40
37.795
  9
$LONGITUDE
 40
-122.394
  9
$NORTHDIRECTION
 40
0.0
  9
$TIMEZONE
 70
-8000
  9
$LIGHTGLYPHDISPLAY
280
1
  9
$TILEMODELIGHTSYNCH
280
1
  9
$CMATERIAL
347
20
  9
$SOLIDHIST
280
0
  9
$SHOWHIST
280
1
  9
$DWFFRAME
280
2
  9
$DGNFRAME
280
2
  9
$REALWORLDSCALE
290
1
  9
$INTERFERECOLOR
 62
256
  9
$CSHADOW
280
0
  9
$SHADOWPLANELOCATION
 40
0.0
  0
ENDSEC
  0
SECTION
  2
CLASSES
  0
CLASS
  1
ACDBDICTIONARYWDFLT
  2
AcDbDictionaryWithDefault
  3
ObjectDBX Classes
 90
0
 91
0
280
0
281
0
  0
CLASS
  1
SUN
  2
AcDbSun
  3
SCENEOE
 90
1153
 91
0
280
0
281
0
  0
CLASS
  1
VISUALSTYLE
  2
AcDbVisualStyle
  3
ObjectDBX Classes
 90
4095
 91
0
280
0
281
0
  0
CLASS
  1
MATERIAL
  2
AcDbMaterial
  3
ObjectDBX Classes
 90
1153
 91
0
280
0
281
0
  0
CLASS
  1
SCALE
  2
AcDbScale
  3
ObjectDBX Classes
 90
1153
 91
0
280
0
281
0
  0
CLASS
  1
TABLESTYLE
  2
AcDbTableStyle
  3
ObjectDBX Classes
 90
4095
 91
0
280
0
281
0
  0
CLASS
  1
MLEADERSTYLE
  2
AcDbMLeaderStyle
  3
ACDB_MLEADERSTYLE_CLASS
 90
4095
 91
0
280
0
281
0
  0
CLASS
  1
DICTIONARYVAR
  2
AcDbDictionaryVar
  3
ObjectDBX Classes
 90
0
 91
0
280
0
281
0
  0
CLASS
  1
CELLSTYLEMAP
  2
AcDbCellStyleMap
  3
ObjectDBX Classes
 90
1152
 91
0
280
0
281
0
  0
CLASS
  1
MENTALRAYRENDERSETTINGS
  2
AcDbMentalRayRenderSettings
  3
SCENEOE
 90
1024
 91
0
280
0
281
0
  0
CLASS
  1
ACDBDETAILVIEWSTYLE
  2
AcDbDetailViewStyle
  3
ObjectDBX Classes
 90
1025
 91
0
280
0
281
0
  0
CLASS
  1
ACDBSECTIONVIEWSTYLE
  2
AcDbSectionViewStyle
  3
ObjectDBX Classes
 90
1025
 91
0
280
0
281
0
  0
CLASS
  1
RASTERVARIABLES
  2
AcDbRasterVariables
  3
ISM
 90
0
 91
0
280
0
281
0
  0
CLASS
  1
LAYOUT
  2
AcDbLayout
  3
ObjectDBX Classes
 90
0
 91
0
280
0
281
0
  0
CLASS
  1
ACDBPLACEHOLDER
  2
AcDbPlaceHolder
  3
ObjectDBX Classes
 90
0
 91
0
280
0
281
0
  0
ENDSEC
  0
SECTION
  2
TABLES
  0
TABLE
  2
VPORT
  5
8
330
0
100
AcDbSymbolTable
 70
1
  0
VPORT
  5
23
330
8
100
AcDbSymbolTableRecord
100
AcDbViewportTableRecord
  2
*Active
 70
0
 10
0.0
 20
0.0
 11
1.0
 21
1.0
 12
0.0
 22
0.0
 13
0.0
 23
0.0
 14
0.5
 24
0.5
 15
0.5
 25
0.5
 16
0.0
 26
0.0
 36
1.0
 17
0.0
 27
0.0
 37
0.0
 40
1000.0
 41
1.34
 42
50.0
 43
0.0
 44
0.0
 50
0.0
 51
0.0
 71
0
 72
1000
 73
1
 74
3
 75
0
 76
0
 77
0
 78
0
281
0
 65
0
146
0.0
  0
ENDTAB
  0
TABLE
  2
LTYPE
  5
2
330
0
100
AcDbSymbolTable
 70
3
  0
LTYPE
  5
24
330
2
100
AcDbSymbolTableRecord
100
AcDbLinetypeTableRecord
  2
ByBlock
 70
0
  3

 72
65
 73
0
 40
0.0
  0
LTYPE
  5
25
330
2
100
AcDbSymbolTableRecord
100
AcDbLinetypeTableRecord
  2
ByLayer
 70
0
  3

 72
65
 73
0
 40
0.0
  0
LTYPE
  5
26
330
2
100
AcDbSymbolTableRecord
100
AcDbLinetypeTableRecord
  2
Continuous
 70
0
  3

 72
65
 73
0
 40
0.0
  0
ENDTAB
  0
TABLE
  2
LAYER
  5
1
330
0
100
AcDbSymbolTable
 70
2
  0
LAYER
  5
27
330
1
100
AcDbSymbolTableRecord
100
AcDbLayerTableRecord
  2
0
 70
0
 62
7
  6
Continuous
370
-3
390
13
347
21
  0
LAYER
  5
28
330
1
100
AcDbSymbolTableRecord
100
AcDbLayerTableRecord
  2
Defpoints
 70
0
 62
7
  6
Continuous
290
0
370
-3
390
13
347
21
  0
ENDTAB
  0
TABLE
  2
STYLE
  5
5
330
0
100
AcDbSymbolTable
 70
1
  0
STYLE
  5
29
330
5
100
AcDbSymbolTableRecord
100
AcDbTextStyleTableRecord
  2
Standard
 70
0
 40
0.0
 41
1.0
 50
0.0
 71
0
 42
2.5
  3
txt
  4

  0
ENDTAB
  0
TABLE
  2
VIEW
  5
7
330
0
100
AcDbSymbolTable
 70
0
  0
ENDTAB
  0
TABLE
  2
UCS
  5
6
330
0
100
AcDbSymbolTable
 70
0
  0
ENDTAB
  0
TABLE
  2
APPID
  5
3
330
0
100
AcDbSymbolTable
 70
3
  0
APPID
  5
2A
330
3
100
AcDbSymbolTableRecord
100
AcDbRegAppTableRecord
  2
ACAD
 70
0
  0
APPID
  5
30
330
3
100
AcDbSymbolTableRecord
100
AcDbRegAppTableRecord
  2
HATCHBACKGROUNDCOLOR
 70
0
  0
APPID
  5
31
330
3
100
AcDbSymbolTableRecord
100
AcDbRegAppTableRecord
  2
EZDXF
 70
0
  0
ENDTAB
  0
TABLE
  2
DIMSTYLE
  5
4
330
0
100
AcDbSymbolTable
 70
1
100
AcDbDimStyleTable
  0
DIMSTYLE
105
2B
330
4
100
AcDbSymbolTableRecord
100
AcDbDimStyleTableRecord
  2
Standard
 70
0
 40
1.0
 41
2.5
 42
0.625
 43
3.75
 44
1.25
 45
0.0
 46
0.0
 47
0.0
 48
0.0
 49
2.5
140
2.5
141
2.5
142
0.0
143
0.03937007874
144
1.0
145
0.0
146
1.0
147
0.625
148
0.0
 69
0
 70
0
 71
0
 72
0
 73
0
 74
0
 75
0
 76
0
 77
1
 78
8
 79
3
170
0
171
3
172
1
173
0
174
0
175
0
176
0
177
0
178
0
179
2
271
2
272
2
273
2
274
3
275
0
276
0
277
2
278
44
279
0
280
0
281
0
282
0
283
0
284
8
285
0
286
0
288
0
289
3
290
0
371
-2
372
-2
  0
ENDTAB
  0
TABLE
  2
BLOCK_RECORD
  5
9
330
0
100
AcDbSymbolTable
 70
2
  0
BLOCK_RECORD
  5
17
330
9
100
AcDbSymbolTableRecord
100
AcDbBlockTableRecord
  2
*Model_Space
340
1A
 70
0
280
1
281
0
  0
BLOCK_RECORD
  5
1B
330
9
100
AcDbSymbolTableRecord
100
AcDbBlockTableRecord
  2
*Paper_Space
340
1E
 70
0
280
1
281
0
  0
ENDTAB
  0
ENDSEC
  0
SECTION
  2
BLOCKS
  0
BLOCK
  5
18
330
17
100
AcDbEntity
  8
0
100
AcDbBlockBegin
  2
*Model_Space
 70
0
 10
0.0
 20
0.0
 30
0.0
  3
*Model_Space
  1

  0
ENDBLK
  5
19
330
17
100
AcDbEntity
  8
0
100
AcDbBlockEnd
  0
BLOCK
  5
1C
330
1B
100
AcDbEntity
  8
0
100
AcDbBlockBegin
  2
*Paper_Space
 70
0
 10
0.0
 20
0.0
 30
0.0
  3
*Paper_Space
  1

  0
ENDBLK
  5
1D
330
1B
100
AcDbEntity
  8
0
100
AcDbBlockEnd
  0
ENDSEC
  0
SECTION
  2
ENTITIES
  0
LWPOLYLINE
  5
2F
330
17
100
AcDbEntity
  8
0
100
AcDbPolyline
 90
721
 70
1
 10
70.50884816652486
 20
11.791474343541338
 10
70.50672988836509
 20
11.791864084525178
 10
70.50040962878786
 20
11.792822514782303
 10
70.48995641670624
 20
11.79392878596137
 10
70.47523064521465
 20
11.795374841210023
 10
70.45649430975386
 20
11.796881769415936
 10
70.43362505632898
 20
11.798536327961669
 10
70.40653500222629
 20
11.80021511328177
 10
70.37543440142456
 20
11.801954666268065
 10
70.34023537121
 20
11.803631583355093
 10
70.30079825286653
 20
11.805438123563672
 10
70.25736784073472
 20
11.807200245673373
 10
70.20983896464973
 20
11.80889994246592
 10
70.15819435443069
 20
11.810642504997448
 10
70.10246855043935
 20
11.812217351155688
 10
70.04262697777357
 20
11.81383527363502
 10
69.97879204223874
 20
11.815409199179697
 10
69.91085857367003
 20
11.816921120571449
 10
69.83880930188649
 20
11.8184763288664
 10
69.76278386833407
 20
11.819882670334795
 10
69.68264257975635
 20
11.821332614579562
 10
69.59841995924486
 20
11.822615684779493
 10
69.51029170314646
 20
11.82397910922974
 10
69.41795967476864
 20
11.82526294347301
 10
69.32173922917426
 20
11.82652215678364
 10
69.22142009511434
 20
11.827720313560844
 10
69.11710735640284
 20
11.828875947478183
 10
69.00880099576959
 20
11.829989163826717
 10
68.89648372576349
 20
11.831165358953626
 10
68.78015549457403
 20
11.832404848732088
 10
68.65985082529282
 20
11.83349715634089
 10
68.53553516028789
 20
11.834652969183358
 10
68.40733083628386
 20
11.835785635167966
 10
68.2751154474754
 20
11.836982227550465
 10
68.13892346514355
 20
11.838032585382809
 10
67.998825484551
 20
11.839165508577658
 10
67.85480418370638
 20
11.840486604064305
 10
67.70691133861192
 20
11.841680209256474
 10
67.55500722147086
 20
11.8429390043392
 10
67.39931935644289
 20
11.8441942391482
 10
67.23962015028756
 20
11.845515085011979
 10
67.07611983971354
 20
11.846938188113445
 10
66.90871323728577
 20
11.848445646525361
 10
66.73750544408837
 20
11.850055888630243
 10
66.56240854286723
 20
11.85164572144473
 10
66.38352763470645
 20
11.853233573351329
 10
66.20072299180924
 20
11.855012124535078
 10
66.01422212106513
 20
11.856912730122742
 10
65.823919835039
 20
11.858917488187094
 10
65.6298160991906
 20
11.861026609310255
 10
65.43191082716898
 20
11.8632406199475
 10
65.23029188441774
 20
11.865683028955353
 10
65.02487131914236
 20
11.868230853932571
 10
64.81573697951627
 20
11.87100770902673
 10
64.60290604936951
 20
11.873908829636987
 10
64.38641305179362
 20
11.87672373894214
 10
64.16632851297062
 20
11.87968165801905
 10
63.94251272237388
 20
11.882975161761719
 10
63.71496559365243
 20
11.88660477662541
 10
63.48384405570336
 20
11.890272952533193
 10
63.24913076926497
 20
11.894085401705416
 10
63.01082569979693
 20
11.898042334724193
 10
62.768876950405684
 20
11.902460151213194
 10
62.52337082018515
 20
11.906812711764944
 10
62.27437786985764
 20
11.9113290268742
 10
62.02188077743176
 20
11.916114703470264
 10
61.76575706802139
 20
11.921257235973098
 10
61.50623423124585
 20
11.926688084800524
 10
61.24322433258084
 20
11.932284162260245
 10
60.97672733748598
 20
11.938045678934373
 10
60.70681377214329
 20
11.944201855899786
 10
60.43355264819557
 20
11.950331950096187
 10
60.15680425511621
 20
11.956628536417554
 10
59.87676152489257
 20
11.96323376268503
 10
59.593424405714146
 20
11.970147944771785
 10
59.30672225050765
 20
11.97714259863833
 10
59.01663770274129
 20
11.984323541796082
 10
58.7233809991237
 20
11.99172742042793
 10
58.42681239458789
 20
11.999547020009974
 10
58.126983647865984
 20
12.007466783246988
 10
57.823999842771926
 20
12.01550524381253
 10
57.51786092749518
 20
12.023662717579773
 10
57.20853227532308
 20
12.03215031311626
 10
56.89601383444508
 20
12.040968346295157
 10
56.580322823231505
 20
12.050011841933502
 10
56.26168674857191
 20
12.05921215515806
 10
55.93987796541529
 20
12.068638773170516
 10
55.61500157484581
 20
12.078310124353374
 10
55.28721448849028
 20
12.087928763920747
 10
54.95639419692218
 20
12.097582396874708
 10
54.62259399068305
 20
12.107605324766157
 10
54.285918970856976
 20
12.118015975977594
 10
53.94619328566551
 20
12.128568069833374
 10
53.603679016900266
 20
12.138982168765883
 10
53.25830701475704
 20
12.149679858163873
 10
52.910094497606096
 20
12.160556162844374
 10
52.559024126185875
 20
12.17171679502775
 10
52.205235524672105
 20
12.1829697062753
 10
51.84872865852443
 20
12.19431510716913
 10
51.48939828849725
 20
12.205735411655187
 10
51.12743739838848
 20
12.217372451681443
 10
50.76274078349295
 20
12.229208430611736
 10
50.39544808525653
 20
12.2410511947163
 10
50.02555923459851
 20
12.252901165159363
 10
49.65317934987322
 20
12.264776665032377
 10
49.27818592165417
 20
12.276765399337412
 10
48.90064952793392
 20
12.289096273278183
 10
48.52051672273935
 20
12.301435932923294
 10
48.138085729114
 20
12.313943796274776
 10
47.75321521837097
 20
12.326163105835768
 10
47.36588783397844
 20
12.338199679117682
 10
46.97626207118314
 20
12.350405614307583
 10
46.58432059072346
 20
12.362886623625828
 10
46.18990481100177
 20
12.37529113534063
 10
45.79346991849897
 20
12.387480806794963
 10
45.39471760382062
 20
12.399296746442081
 10
44.99380632767304
 20
12.411091263051155
 10
44.59061359789996
 20
12.422951956333208
 10
44.185366990471636
 20
12.434809760250788
 10
43.778013093955316
 20
12.44633111029038
 10
43.36862248634355
 20
12.457744911655704
 10
42.95716055819383
 20
12.469262167623238
 10
42.54371362587023
 20
12.480356633494448
 10
42.128298907743115
 20
12.490923334086364
 10
41.7110403586974
 20
12.501524949698318
 10
41.29174483950354
 20
12.512020596001843
 10
40.870605385769984
 20
12.522551789071743
 10
40.44772558404172
 20
12.532486993153345
 10
40.02308811232729
 20
12.541931815175941
 10
39.59665839572458
 20
12.551097047833919
 10
39.168384537340025
 20
12.560299090750938
 10
38.73854599276726
 20
12.569152583556933
 10
38.30700138150885
 20
12.57720108462821
 10
37.87401445532724
 20
12.58481417291483
 10
37.43928840209702
 20
12.59248302629829
 10
37.002997489976785
 20
12.59980438248128
 10
36.56521071333917
 20
12.606357603694564
 10
36.12610392396269
 20
12.612388970613793
 10
35.68544939044544
 20
12.617968496895926
 10
35.243440200206464
 20
12.623237382742609
 10
34.79998838418104
 20
12.628072751043646
 10
34.35523365289582
 20
12.63228202690506
 10
33.90928117651567
 20
12.635883217545132
 10
33.46202569852482
 20
12.63885884220086
 10
33.013677611063535
 20
12.641244599435637
 10
32.56402645291083
 20
12.643005211850294
 10
32.11324804130484
 20
12.644387170702604
 10
31.661359663696633
 20
12.645285079645374
 10
31.208447601909914
 20
12.645172904562177
 10
30.754477281042544
 20
12.64426143814738
 10
30.299641840324096
 20
12.642691564729457
 10
29.84371354835269
 20
12.64053329796537
 10
29.386937337630368
 20
12.63761175430625
 10
28.929330461067842
 20
12.633821747987025
 10
28.470910171575813
 20
12.629058093242609
 10
28.01164185971178
 20
12.623531793349503
 10
27.551613494540465
 20
12.617365725417883
 10
27.090825024251288
 20
12.610560205320922
 10
26.629433464092173
 20
12.6028171565264
 10
26.167350844998406
 20
12.594013701924121
 10
25.70469962458591
 20
12.584062452385183
 10
25.241533214287454
 20
12.57329697242309
 10
24.777694547044568
 20
12.562015654443234
 10
24.313428607169882
 20
12.550043299023582
 10
23.848768316864888
 20
12.53651999166103
 10
23.383610003233724
 20
12.522077794565526
 10
22.918146891856853
 20
12.50685706561026
 10
22.45230823203994
 20
12.490629952502088
 10
21.986111311234012
 20
12.47329105889381
 10
21.51971474557709
 20
12.455191745935116
 10
21.05303060054479
 20
12.436208925933688
 10
20.586215874114853
 20
12.416044627648374
 10
20.11916532704167
 20
12.39468126502511
 10
19.65207218490573
 20
12.372259195937085
 10
19.184919142985766
 20
12.34888392202254
 10
18.717758029094636
 20
12.324239464822032
 10
18.250571538511075
 20
12.298431325973795
 10
17.783447657569987
 20
12.271582277296966
 10
17.3162293364831
 20
12.243990605905886
 10
16.84923067482692
 20
12.21505973757187
 10
16.38245167260145
 20
12.184789672294924
 10
15.91587507689599
 20
12.153285595840128
 10
15.449483582989279
 20
12.120653009845714
 10
14.98339975211835
 20
12.086803893436448
 10
14.517501057586527
 20
12.051826056905458
 10
14.052015265336069
 20
12.015649276013667
 10
13.58697693299893
 20
11.97806286335776
 10
13.122368790394225
 20
11.939172109993867
 10
12.658173584611234
 20
11.899082201687063
 10
12.194408585830862
 20
11.857687847381218
 10
11.731318881986775
 20
11.814813215907956
 10
11.268764658931243
 20
11.770651513907593
 10
10.806816667358639
 20
11.725430593673284
 10
10.345456001657611
 20
11.67860651916137
 10
9.884858651768111
 20
11.630424728719056
 10
9.42497285895803
 20
11.581200779641572
 10
8.965745142713882
 20
11.53060152857963
 10
8.507420625509722
 20
11.478450933782755
 10
8.049964784253943
 20
11.424959472072139
 10
7.59330688552237
 20
11.369899185863584
 10
7.13762297106549
 20
11.313515197631126
 10
6.682842324729326
 20
11.255579444499505
 10
6.2291582411750435
 20
11.19623186317768
 10
5.776308396828463
 20
11.135753365308044
 10
5.324537914163614
 20
11.073967909140112
 10
4.873915873904052
 20
11.010454330449361
 10
4.424425057679415
 20
10.945317604418753
 10
3.9761189287330096
 20
10.878890979688624
 10
3.529014826326444
 20
10.81106874403862
 10
3.083130037910775
 20
10.741745501121551
 10
2.638569871812331
 20
10.670938415827253
 10
2.1951945138833695
 20
10.598840694796039
 10
1.7530747838989795
 20
10.525679769156836
 10
1.3123850536388384
 20
10.451051744866009
 10
0.8731598980050977
 20
10.374745829229186
 10
0.43536482844650415
 20
10.296972288485454
 10
-0.0009105453050481195
 20
10.217843997094672
 10
-0.43576871653638916
 20
10.13732662772486
 10
-0.8691216125617226
 20
10.055542425739867
 10
-1.3008812125058236
 20
9.972613952376712
 10
-1.7310837267012469
 20
9.888102773229981
 10
-2.159623864091887
 20
9.802026158480565
 10
-2.586482684526041
 20
9.714927833590002
 10
-3.0117309386980606
 20
9.62657994626515
 10
-3.4351407743147977
 20
9.536911745811647
 10
-3.8569227734885265
 20
9.445888691867717
 10
-4.276866354106959
 20
9.353545324795142
 10
-4.69490076547577
 20
9.260109496887065
 10
-5.111253859888089
 20
9.165651958837847
 10
-5.525733995383352
 20
9.069663525547716
 10
-5.938234210934624
 20
8.972810483715234
 10
-6.348894337959808
 20
8.875286145271778
 10
-6.7577160464297155
 20
8.776441493699673
 10
-7.164383463175946
 20
8.676328339541582
 10
-7.569053689797303
 20
8.57524528578501
 10
-7.971743996474666
 20
8.47329762348609
 10
-8.37241984284626
 20
8.370274770532557
 10
-8.770887916980712
 20
8.266316558342318
 10
-9.167358800990286
 20
8.161388446553598
 10
-9.561673723305383
 20
8.055840848696567
 10
-9.953798143564228
 20
7.9494631826589615
 10
-10.34371479158593
 20
7.8421501573846495
 10
-10.731440937551378
 20
7.734007063929766
 10
-11.11690583076622
 20
7.625261754587455
 10
-11.500214762286575
 20
7.515896959176834
 10
-11.881122609638425
 20
7.405736635947412
 10
-12.259629372821756
 20
7.294780784899192
 10
-12.63582307271181
 20
7.182906844795155
 10
-13.009615688433355
 20
7.070237376872318
 10
-13.381059030529045
 20
6.957088254299076
 10
-13.750065078123637
 20
6.843582038312446
 10
-14.11656475049359
 20
6.729297564687905
 10
-14.48066333869502
 20
6.6142175632445666
 10
-14.84202769937866
 20
6.49828855346896
 10
-15.200920225199424
 20
6.381791868167705
 10
-15.557358186338204
 20
6.264832798396933
 10
-15.91113100068274
 20
6.147445884518415
 10
-16.262221398052148
 20
6.029525835476026
 10
-16.610682858959883
 20
5.910739507920481
 10
-16.956479173073376
 20
5.791525336257195
 10
-17.29966215093529
 20
5.672199193654557
 10
-17.64004015058505
 20
5.552251895012803
 10
-17.977718463078784
 20
5.431666170151043
 10
-18.312521046666017
 20
5.310687141543318
 10
-18.644553192402874
 20
5.189297539008737
 10
-18.973832170470246
 20
5.067602653603432
 10
-19.300200879269326
 20
4.945303882339896
 10
-19.623693859161904
 20
4.822611807330395
 10
-19.94431111014797
 20
4.6995264285749245
 10
-20.262121712951085
 20
4.576468910298014
 10
-20.576897815278095
 20
4.453368501805302
 10
-20.88879818869859
 20
4.329874789566623
 10
-21.197683001794676
 20
4.205794461650602
 10
-21.503516044233773
 20
4.081565952462652
 10
-21.806437147433776
 20
3.9573825739341455
 10
-22.10627193961501
 20
3.832840432021447
 10
-22.402949670083125
 20
3.7081673790177065
 10
-22.69669819113126
 20
3.583434165617279
 10
-22.987306920647153
 20
3.4586753321819423
 10
-23.27472404808816
 20
3.333575005543298
 10
-23.559001383996918
 20
3.208449058869745
 10
-23.84015619855433
 20
3.08340278321741
 10
-24.118171221579505
 20
2.9583308875301646
 10
-24.392941162016314
 20
2.8332506419888968
 10
-24.664448749683867
 20
2.7080567555374717
 10
-24.93281654581918
 20
2.5828372490511384
 10
-25.197833968309993
 20
2.457626662891667
 10
-25.459535557518084
 20
2.332635579171323
 10
-25.71809735519394
 20
2.2076188754160673
 10
-25.973203488169162
 20
2.0826283621685624
 10
-26.224941977319002
 20
1.957541478191792
 10
-26.473381903367002
 20
1.8327793877102783
 10
-26.71852326631317
 20
1.7083420907240219
 10
-26.960226234739597
 20
1.5840362753016484
 10
-27.198473538465386
 20
1.459756650387026
 10
-27.433353198365793
 20
1.3353806547431382
 10
-27.664740983232992
 20
1.2114692840124128
 10
-27.892724913942224
 20
1.0878999769578335
 10
-28.117270450131713
 20
0.9644621514671353
 10
-28.338272300745327
 20
0.8411730777212085
 10
-28.55576500614484
 20
0.7182433378323141
 10
-28.769714025968486
 20
0.5954623496881902
 10
-28.980136630397144
 20
0.47293540434496817
 10
-29.187050089611706
 20
0.3507677928587775
 10
-29.39031457219426
 20
0.228766203298247
 10
-29.589981888687472
 20
0.10724650883176702
 10
-29.786088249423926
 20
-0.014229724946073746
 10
-29.97859744407104
 20
-0.1352240636298622
 10
-30.16749220244792
 20
-0.25584179827573145
 10
-30.352755254373687
 20
-0.3761882199398127
 10
-30.534281308792206
 20
-0.496246058441214
 10
-30.7121929269405
 20
-0.6159272929046977
 10
-30.88643662830509
 20
-0.7348987799809795
 10
-31.056977872524214
 20
-0.8533711017823213
 10
-31.223816659597865
 20
-0.9713442583087256
 10
-31.38707555076306
 20
-1.088730228684947
 10
-31.54652669372665
 20
-1.2055997636053424
 10
-31.70230991990655
 20
-1.3217595511385358
 10
-31.85435447860839
 20
-1.4369817389913786
 10
-32.00276566088832
 20
-1.551283597344761
 10
-32.147403635328416
 20
-1.6648584381300526
 10
-32.2883909631657
 20
-1.7776182404720124
 10
-32.42551706228791
 20
-1.8895284640088648
 10
-32.5590270551691
 20
-2.0004130669901246
 10
-32.688727629877874
 20
-2.1101322179978825
 10
-32.814689537108585
 20
-2.2189137693252903
 10
-32.93691277686126
 20
-2.3267577209723482
 10
-33.05539734913588
 20
-2.433664072939055
 10
-33.17007250323809
 20
-2.539404972932262
 10
-33.280938239167895
 20
-2.643980420951969
 10
-33.38804803743875
 20
-2.747723560347455
 10
-33.49134841753721
 20
-2.8503012477694427
 10
-33.590770298739706
 20
-2.9521346474424526
 10
-33.68638276176979
 20
-3.0528025951419617
 10
-33.778116725903914
 20
-3.152726255092496
 10
-33.86600673150386
 20
-3.251695045181791
 10
-33.95005277856963
 20
-3.349708965409848
 10
-34.030132305864186
 20
-3.4468560366519094
 10
-34.10649043586159
 20
-3.542960217157489
 10
-34.17875948485076
 20
-3.6382855695523184
 10
-34.247289866361875
 20
-3.732673322266798
 10
-34.3118537281018
 20
-3.8261942259952804
 10
-34.37250288061318
 20
-3.9185324075693755
 10
-34.42930807459039
 20
-4.009915719282233
 10
-34.482181289158156
 20
-4.100221599896831
 10
-34.53119160504005
 20
-4.189028885188651
 10
-34.57639250274955
 20
-4.276670718506969
 10
-34.617713231592276
 20
-4.362919247558638
 10
-34.65518833193
 20
-4.447563890231395
 10
-34.68888688448631
 20
-4.530183482300716
 10
-34.718808889261176
 20
-4.6107780237666
 10
-34.745094177672506
 20
-4.689154202697676
 10
-34.767618518512485
 20
-4.764751023451511
 10
-34.78655628356079
 20
-4.837164591984468
 10
-34.802185465682435
 20
-4.905359267916127
 10
-34.81441637403137
 20
-4.9685634734917965
 10
-34.823630622557914
 20
-5.025109821994265
 10
-34.83020982521243
 20
-5.073330926706326
 10
-34.834357884223934
 20
-5.1106652619190625
 10
-34.83661184517077
 20
-5.134497821410085
 10
-34.728238649183886
 20
-5.807741094580063
 10
-34.72535733989213
 20
-5.8127828050058765
 10
-34.71673068219772
 20
-5.8278026452271865
 10
-34.70242775682424
 20
-5.852379451019468
 10
-34.68204967964045
 20
-5.8882859001560615
 10
-34.65544435895998
 20
-5.937767645177493
 10
-34.62340455313284
 20
-5.995332280984062
 10
-34.58636034671043
 20
-6.057698514654821
 10
-34.544746834156555
 20
-6.123532102821845
 10
-34.498821398213735
 20
-6.190604663125492
 10
-34.448634179453805
 20
-6.257951305879696
 10
-34.39448211089348
 20
-6.32508011616558
 10
-34.33632898220017
 20
-6.391552659577731
 10
-34.27424387409746
 20
-6.456947771891626
 10
-34.208261326947074
 20
-6.521054870994999
 10
-34.13838134074904
 20
-6.583873956887855
 10
-34.06472647674038
 20
-6.645317008694949
 10
-33.98722598422673
 20
-6.705156174123132
 10
-33.90586259302721
 20
-6.763496744228532
 10
-33.820758864378824
 20
-6.820250698135909
 10
-33.731774966863675
 20
-6.875611347776636
 10
-33.63892817066266
 20
-6.9294734020945805
 10
-33.54246359824979
 20
-6.981660819339258
 10
-33.44201356591404
 20
-7.0324376621364
 10
-33.337911217004674
 20
-7.081750449972535
 10
-33.229928699228545
 20
-7.12966993354202
 10
-33.118188573822664
 20
-7.176108091969613
 10
-33.00270811096794
 20
-7.22095963419918
 10
-32.883435500121685
 20
-7.264540433399117
 10
-32.76040528164569
 20
-7.306639907457161
 10
-32.633548374816385
 20
-7.347679220597834
 10
-32.50291659017647
 20
-7.387342499652746
 10
-32.36858067842026
 20
-7.425857596915044
 10
-32.230435348491646
 20
-7.463207242203843
 10
-32.08844606002886
 20
-7.499602017631404
 10
-31.942735374268892
 20
-7.534953902322484
 10
-31.79328602103089
 20
-7.569368187333212
 10
-31.64009800031483
 20
-7.60284487266359
 10
-31.483014210521915
 20
-7.635682561301123
 10
-31.322262503945307
 20
-7.667810502551454
 10
-31.157649568653632
 20
-7.69908886499668
 10
-30.989385986759153
 20
-7.729552188998572
 10
-30.817331926843945
 20
-7.7593937864885065
 10
-30.641592679964162
 20
-7.788630927647372
 10
-30.46208022524455
 20
-7.817141051238147
 10
-30.278934394103015
 20
-7.844730845329462
 10
-30.092032625302544
 20
-7.871488330796557
 10
-29.901568230774505
 20
-7.897553339057336
 10
-29.707435919462764
 20
-7.922908599930917
 10
-29.50963569136733
 20
-7.947554113417295
 10
-29.308219357030865
 20
-7.971174006348079
 10
-29.103292207509494
 20
-7.993785548904159
 10
-28.894748951747093
 20
-8.015371470904643
 10
-28.682660340438012
 20
-8.036159624642684
 10
-28.46702637358225
 20
-8.05615001011828
 10
-28.247916131903366
 20
-8.07492146310691
 10
-28.025400366095713
 20
-8.09270183590172
 10
-27.79939105528404
 20
-8.109368567265694
 10
-27.56987092928746
 20
-8.125026948254959
 10
-27.336945279162116
 20
-8.139694249050407
 10
-27.100631375088884
 20
-8.153265178595909
 10
-26.860911946886887
 20
-8.165845027947588
 10
-26.61778699455611
 20
-8.17743379710545
 10
-26.371273788277453
 20
-8.187926195013363
 10
-26.12146034892615
 20
-8.197444782908345
 10
-25.868346676502213
 20
-8.205989560790398
 10
-25.61184475013039
 20
-8.213437967422498
 10
-25.352130611561172
 20
-8.22003512527869
 10
-25.08911623991931
 20
-8.225658473121946
 10
-24.82278436502392
 20
-8.230413302008406
 10
-24.553257548112022
 20
-8.234211591062824
 10
-24.280587599726275
 20
-8.236737467116804
 10
-24.00472270932402
 20
-8.238306803338741
 10
-23.72552304548735
 20
-8.23911291166001
 10
-23.44332175156555
 20
-8.239102311567143
 10
-23.15794278580812
 20
-8.238029880586101
 10
-22.86940341839596
 20
-8.235790327660753
 10
-22.57787969107955
 20
-8.23262877526514
 10
-22.283249042621872
 20
-8.2286332442745
 10
-21.985546013384706
 20
-8.223593152576576
 10
-21.68487589442418
 20
-8.21752577035225
 10
-21.38125595592118
 20
-8.210325806545399
 10
-21.07463438733304
 20
-8.202309134324409
 10
-20.76504572902155
 20
-8.193265171577021
 10
-20.45245544062492
 20
-8.183404500415495
 10
-20.13712591479808
 20
-8.172445788033215
 10
-19.818829299247877
 20
-8.160459785124539
 10
-19.497670885030452
 20
-8.14746376187035
 10
-19.173738693021036
 20
-8.13358027950767
 10
-18.846961972525282
 20
-8.118581485743348
 10
-18.51741147423754
 20
-8.102695232870534
 10
-18.18520975939483
 20
-8.085833500013983
 10
-17.850180786246668
 20
-8.06775116469966
 10
-17.512535136905317
 20
-8.04848276728934
 10
-17.172221000828106
 20
-8.028344180951414
 10
-16.829238378015045
 20
-8.007335405685886
 10
-16.483587268466124
 20
-7.985456441492752
 10
-16.135424773780148
 20
-7.96240868538451
 10
-15.784785434318882
 20
-7.937981555248894
 10
-15.431494878302653
 20
-7.912578945129544
 10
-15.075763687843715
 20
-7.886235395388234
 10
-14.717521112247718
 20
-7.858723053731814
 10
-14.35690698293257
 20
-7.82984860822891
 10
-13.993869489355603
 20
-7.799927932047916
 10
-13.628479382211173
 20
-7.769188877481978
 10
-13.260665910804926
 20
-7.737403592237951
 10
-12.890480885679526
 20
-7.70425620314744
 10
-12.518100348585458
 20
-7.669991832684483
 10
-12.143507029341832
 20
-7.63471577190521
 10
-11.766490345836392
 20
-7.598393480447846
 10
-11.38738344141841
 20
-7.5609714777989225
 10
-11.006115565393543
 20
-7.522221911665291
 10
-10.62268671776178
 20
-7.4821447820469515
 10
-10.237184919398366
 20
-7.44086265018092
 10
-9.849523819398872
 20
-7.398901971347856
 10
-9.459860519362078
 20
-7.355964142560251
 10
-9.068158808955411
 20
-7.311610729412694
 10
-8.674401417997986
 20
-7.265947022961318
 10
-8.278798928602061
 20
-7.219007563567894
 10
-7.881176968987951
 20
-7.171196245276062
 10
-7.481675370573569
 20
-7.122319756154446
 10
-7.080294133358911
 20
-7.072378096203047
 10
-6.677067797705754
 20
-7.021160683309602
 10
-6.271979093433212
 20
-6.968772808530244
 10
-5.865204062291769
 20
-6.915459594339009
 10
-5.456566662530942
 20
-6.860975918261858
 10
-5.046312016624761
 20
-6.805145738548308
 10
-4.634422854392341
 20
-6.748074346254486
 10
-4.2208819056528
 20
-6.689867032436527
 10
-3.805601149530889
 20
-6.630401235857408
 10
-3.3889309995567802
 20
-6.569518184947535
 10
-2.970783434855228
 20
-6.5070953184698865
 10
-2.550949543284773
 20
-6.443747112580359
 10
-2.1296571771385686
 20
-6.3794028165846015
 10
-1.7071152485580643
 20
-6.313447954326711
 10
-1.2830613648883566
 20
-6.2461638586133095
 10
-0.8575835470046573
 20
-6.177673090681411
 10
-0.4309269173810306
 20
-6.107799608780533
 10
-0.002898164086089041
 20
-6.036403581492767
 10
0.4262921307679063
 20
-5.96351954917989
 10
0.8568183389606331
 20
-5.889551405885535
 10
1.288540629074175
 20
-5.814305839678331
 10
1.721267359147988
 20
-5.737273665458511
 10
2.1551556307808406
 20
-5.658753486213578
 10
2.5901692336401703
 20
-5.579183736348943
 10
3.0261511179377174
 20
-5.498266128750273
 10
3.46319210231803
 20
-5.4158951593316385
 10
3.901223024943385
 20
-5.332308367163358
 10
4.340174856900796
 20
-5.24708490389407
 10
4.780047632730609
 20
-5.16022498010589
 10
5.220805142100249
 20
-5.07216703020423
 10
5.662359433215188
 20
-4.983034036590334
 10
6.104798544220864
 20
-4.892703543318236
 10
6.547965390788648
 20
-4.80087705269149
 10
6.99189453055051
 20
-4.707765252113412
 10
7.436586032587176
 20
-4.613368562748228
 10
7.881934588572315
 20
-4.517704149485768
 10
8.327888439773819
 20
-4.420456455030811
 10
8.774482126553464
 20
-4.321836061495615
 10
9.221574147522544
 20
-4.222298673466481
 10
9.669357883693138
 20
-4.1217048806897285
 10
10.117570925140164
 20
-4.019773245067681
 10
10.566335867640989
 20
-3.9165919980576933
 10
11.015442129083347
 20
-3.8121956800215457
 10
11.465012287974437
 20
-3.7066724171255347
 10
11.915029091403573
 20
-3.5999170236045845
 10
12.365299227439355
 20
-3.492069330876604
 10
12.815962527499712
 20
-3.3833226508729646
 10
13.267001773214282
 20
-3.273572008410705
 10
13.718189060479371
 20
-3.162746336922303
 10
14.169646985072378
 20
-3.05093386786511
 10
14.62130479629893
 20
-2.9383624535322803
 10
15.073198721761791
 20
-2.824593764809457
 10
15.525152685170124
 20
-2.709872713588562
 10
15.977201226885688
 20
-2.5944098819818615
 10
16.429327093997788
 20
-2.4781000842242777
 10
16.881495746144648
 20
-2.3607327382035503
 10
17.33374174095822
 20
-2.2425185313229967
 10
17.785888950337107
 20
-2.1237020596013756
 10
18.238008159516042
 20
-2.0040556813276464
 10
18.690045887981544
 20
-1.8839125398510912
 10
19.1419502906506
 20
-1.762956551421204
 10
19.593704114612493
 20
-1.6410825302729113
 10
20.045341900228994
 20
-1.518501058518476
 10
20.496704772309428
 20
-1.3955619179417278
 10
20.947898073720477
 20
-1.2722481542349462
 10
21.398764668322965
 20
-1.1482609538285173
 10
21.849321791757433
 20
-1.023705397196456
 10
22.29956946129405
 20
-0.8985815896298227
 10
22.74952491257336
 20
-0.7729946116026304
 10
23.19896020695129
 20
-0.6468731859652479
 10
23.64799795747542
 20
-0.5203056494660833
 10
24.096550039649394
 20
-0.3934139315958236
 10
24.54475637124206
 20
-0.2663918707411172
 10
24.99233713398593
 20
-0.13885189541971724
 10
25.439309615332114
 20
-0.010899401978805087
 10
25.885865457241167
 20
0.11695642448184958
 10
26.331690370164594
 20
0.2453133163925384
 10
26.776767032110964
 20
0.37427688068256043
 10
27.221304407032292
 20
0.5032323253228504
 10
27.66512631501661
 20
0.6319353701678168
 10
28.10823446057513
 20
0.7610348211530253
 10
28.550540753751847
 20
0.8904085382056771
 10
28.991939799869556
 20
1.0200398828912234
 10
29.432571482156725
 20
1.1497352274051247
 10
29.87234769338717
 20
1.2793725369656368
 10
30.311285651931275
 20
1.4088468363898021
 10
30.74924547456057
 20
1.5383517534821607
 10
31.186192551832548
 20
1.6680982915191995
 10
31.62217867701971
 20
1.7977706826235829
 10
32.05720383285186
 20
1.9273690320863652
 10
32.49107451742565
 20
2.0567546666912597
 10
32.92400143374461
 20
2.185961389762648
 10
33.35572201645197
 20
2.3152715870177074
 10
33.786253501188284
 20
2.444580177982419
 10
34.21568216977727
 20
2.573361128540353
 10
34.64399076930822
 20
2.7017196244565884
 10
35.07093395279473
 20
2.8298330762653356
 10
35.49673969342123
 20
2.9576299962348496
 10
35.92117994892259
 20
3.085182293261102
 10
36.34436004489528
 20
3.2125070269428693
 10
36.766209109753696
 20
3.3393770820243946
 10
37.18662173155041
 20
3.4657759253621796
 10
37.60573779351392
 20
3.5915099291516883
 10
38.0232946784769
 20
3.7168617949832603
 10
38.43950308944291
 20
3.8418653261812836
 10
38.8541349841468
 20
3.9665924316417307
 10
39.267293897323
 20
4.090411891483093
 10
39.67887443429429
 20
4.213307067270825
 10
40.08898367697885
 20
4.335943508666089
 10
40.49728817116418
 20
4.458376591421367
 10
40.90413678130089
 20
4.579797790411995
 10
41.309301447853656
 20
4.700279119824996
 10
41.71271300374805
 20
4.8202422703401835
 10
42.11437141444367
 20
4.93968745253966
 10
42.514293898310875
 20
5.05850969124047
 10
42.91256677171374
 20
5.176182741744066
 10
43.30894463585536
 20
5.292884330457839
 10
43.703586435007125
 20
5.408963818001391
 10
44.09628131073387
 20
5.524388348669845
 10
44.48706375158684
 20
5.63894765622411
 10
44.87596826338743
 20
5.752431369134033
 10
45.262960236693154
 20
5.8650504906761025
 10
45.64793420774607
 20
5.976788803579989
 10
46.03103007704483
 20
6.087452574750101
 10
46.41203698615426
 20
6.197008948481556
 10
46.791008484668524
 20
6.305790646959408
 10
47.167733679612134
 20
6.413765025060895
 10
47.54256327810835
 20
6.520771521268465
 10
47.91511013818896
 20
6.6265336314779875
 10
48.28558503193824
 20
6.7310847378496215
 10
48.65397062009457
 20
6.834530552603721
 10
49.020021503861
 20
6.937048802147671
 10
49.38375486706756
 20
7.038534721880623
 10
49.74539873470916
 20
7.138916508197658
 10
50.104654123854345
 20
7.238039375903217
 10
50.46166090046137
 20
7.335709802483813
 10
50.81626179022963
 20
7.432227443837514
 10
51.168544865844936
 20
7.527714545328171
 10
51.5184219337302
 20
7.6220495986293235
 10
51.86589292480472
 20
7.715233024905197
 10
52.21090416858304
 20
7.806932839008132
 10
52.553509231929525
 20
7.897481657832125
 10
52.89351447477936
 20
7.9867416504893365
 10
53.230990699637445
 20
8.074940353399747
 10
53.565989682506086
 20
8.161762103977077
 10
53.89842319526789
 20
8.247085604476986
 10
54.22823935829941
 20
8.33122714923208
 10
54.55543811979016
 20
8.414187054115539
 10
54.880019410659386
 20
8.495965740291577
 10
55.20180687829339
 20
8.576319980525179
 10
55.52104583513813
 20
8.655072574864233
 10
55.8375444492611
 20
8.732733866610124
 10
56.15121450981505
 20
8.809182452727452
 10
56.46216135966665
 20
8.884435287523937
 10
56.770314058149566
 20
8.958265676908043
 10
57.07554985405477
 20
9.030762799956639
 10
57.37806226655582
 20
9.102065224594947
 10
57.6776921786795
 20
9.171824643113931
 10
57.974404998253476
 20
9.240251953499014
 10
58.26821794364813
 20
9.30724218056724
 10
58.55907911796988
 20
9.37311172394228
 10
58.84702300976992
 20
9.437650317385035
 10
59.13194412074999
 20
9.500841954207297
 10
59.413859669280434
 20
9.562581659226105
 10
59.69285776258737
 20
9.622991467223192
 10
59.96871020297406
 20
9.682144234714036
 10
60.24141690408958
 20
9.74004048815392
 10
60.51110053079206
 20
9.796591574921269
 10
60.77777837053255
 20
9.851692098668888
 10
61.04118804792631
 20
9.90562328691234
 10
61.3014333687939
 20
9.95841146486334
 10
61.55856781888554
 20
10.009730546121054
 10
61.81246800799554
 20
10.059673605531417
 10
62.06309936122177
 20
10.108451435788801
 10
62.310601796332996
 20
10.155870198506554
 10
62.55478163872408
 20
10.201792273378947
 10
62.79570972544028
 20
10.246444986243851
 10
63.03336873449014
 20
10.289933944030562
 10
63.26765318484559
 20
10.332243034759816
 10
63.498597565057835
 20
10.373161992192513
 10
63.726184518595076
 20
10.412796633840065
 10
63.95037947055516
 20
10.451357752396849
 10
64.1711996220383
 20
10.48874047797096
 10
64.38857404964827
 20
10.524718011179802
 10
64.60250266703423
 20
10.559290878478665
 10
64.81302180541996
 20
10.59289677723556
 10
65.02004321941791
 20
10.625414514997203
 10
65.22356689175793
 20
10.656844197054655
 10
65.42361000626994
 20
10.68708105880705
 10
65.620067099196
 20
10.716108882984077
 10
65.81304353067301
 20
10.743944518602389
 10
66.0023993138514
 20
10.770782225212871
 10
66.18816890274208
 20
10.796411947158543
 10
66.37031772244286
 20
10.821044477133773
 10
66.54898570799277
 20
10.844485871460854
 10
66.72392739151412
 20
10.866914277711397
 10
66.89523089750328
 20
10.88845162537608
 10
67.06280801511302
 20
10.908976511419503
 10
67.2267814092014
 20
10.928400283220089
 10
67.3870109202171
 20
10.946918253239271
 10
67.54363639684821
 20
10.964337004254627
 10
67.69639618905758
 20
10.980933341557355
 10
67.84551704384677
 20
10.996643253080697
 10
67.99078855180537
 20
11.011431145552313
 10
68.13231610761055
 20
11.025313657406755
 10
68.27009967672196
 20
11.038290999226131
 10
68.40412193714815
 20
11.050468777939747
 10
68.53429471258231
 20
11.061725379930087
 10
68.6605833935819
 20
11.072271808473639
 10
68.78311069681556
 20
11.082019095075646
 10
68.90175383653393
 20
11.091056629395093
 10
69.01653006564773
 20
11.099279225666898
 10
69.12742209670587
 20
11.106792280238254
 10
69.2344471480787
 20
11.113490817926191
 10
69.33758793231516
 20
11.1194802350779
 10
69.43680989178328
 20
11.124971219096697
 10
69.53204206854656
 20
11.129737181182108
 10
69.62347808539957
 20
11.133916057513025
 10
69.71078428088771
 20
11.137564487334611
 10
69.79429426465504
 20
11.14062614727487
 10
69.8737971091857
 20
11.143068602793154
 10
69.9492582568478
 20
11.145102541292783
 10
70.02080040703974
 20
11.146639099570061
 10
70.08831807873342
 20
11.147662165645718
 10
70.15177673156707
 20
11.148382321632024
 10
70.21131631784984
 20
11.148605518560197
 10
70.26679685073222
 20
11.14852601598113
 10
70.3182355658547
 20
11.148038733420798
 10
70.36559792285557
 20
11.147354252991462
 10
70.40890119191569
 20
11.146367283636998
 10
70.44823351480153
 20
11.145199649557025
 10
70.48338398126744
 20
11.143818810919834
 10
70.51444078489044
 20
11.142346276051887
 10
70.5415093548881
 20
11.140798472805614
 10
70.56437878101481
 20
11.13914286134932
 10
70.58311995212624
 20
11.137606451647692
 10
70.59785563670165
 20
11.136099959332817
 10
70.60834031505287
 20
11.134801847849479
 10
70.61466223256744
 20
11.133833309650965
 10
70.61678679707306
 20
11.133405242722697
  0
ENDSEC
  0
SECTION
  2
OBJECTS
  0
DICTIONARY
  5
A
330
0
100
AcDbDictionary
280
0
281
1
  3
ACAD_COLOR
350
B
  3
ACAD_GROUP
350
C
  3
ACAD_LAYOUT
350
D
  3
ACAD_MATERIAL
350
E
  3
ACAD_MLEADERSTYLE
350
F
  3
ACAD_MLINESTYLE
350
10
  3
ACAD_PLOTSETTINGS
350
11
  3
ACAD_PLOTSTYLENAME
350
12
  3
ACAD_SCALELIST
350
14
  3
ACAD_TABLESTYLE
350
15
  3
ACAD_VISUALSTYLE
350
16
  3
EZDXF_META
350
2D
  0
DICTIONARY
  5
B
330
A
100
AcDbDictionary
280
0
281
1
  0
DICTIONARY
  5
C
330
A
100
AcDbDictionary
280
0
281
1
  0
DICTIONARY
  5
D
330
A
100
AcDbDictionary
280
0
281
1
  3
Model
350
1A
  3
Layout1
350
1E
  0
DICTIONARY
  5
E
330
A
100
AcDbDictionary
280
0
281
1
  3
ByBlock
350
1F
  3
ByLayer
350
20
  3
Global
350
21
  0
DICTIONARY
  5
F
330
A
100
AcDbDictionary
280
0
281
1
  3
Standard
350
2C
  0
DICTIONARY
  5
10
330
A
100
AcDbDictionary
280
0
281
1
  3
Standard
350
22
  0
DICTIONARY
  5
11
330
A
100
AcDbDictionary
280
0
281
1
  0
ACDBDICTIONARYWDFLT
  5
12
330
A
100
AcDbDictionary
280
0
281
1
  3
Normal
350
13
100
AcDbDictionaryWithDefault
340
13
  0
ACDBPLACEHOLDER
  5
13
330
12
  0
DICTIONARY
  5
14
330
A
100
AcDbDictionary
280
0
281
1
  0
DICTIONARY
  5
15
330
A
100
AcDbDictionary
280
0
281
1
  0
DICTIONARY
  5
16
330
A
100
AcDbDictionary
280
0
281
1
  0
LAYOUT
  5
1A
330
D
100
AcDbPlotSettings
  1

  4
A3
  6

 40
7.5
 41
20.0
 42
7.5
 43
20.0
 44
420.0
 45
297.0
 46
0.0
 47
0.0
 48
0.0
 49
0.0
140
0.0
141
0.0
142
1.0
143
1.0
 70
1024
 72
1
 73
0
 74
5
  7

 75
16
 76
0
 77
2
 78
300
147
1.0
148
0.0
149
0.0
100
AcDbLayout
  1
Model
 70
1
 71
0
 10
0.0
 20
0.0
 11
420.0
 21
297.0
 12
0.0
 22
0.0
 32
0.0
 14
1e+20
 24
1e+20
 34
1e+20
 15
-1e+20
 25
-1e+20
 35
-1e+20
146
0.0
 13
0.0
 23
0.0
 33
0.0
 16
1.0
 26
0.0
 36
0.0
 17
0.0
 27
1.0
 37
0.0
 76
1
330
17
  0
LAYOUT
  5
1E
330
D
100
AcDbPlotSettings
  1

  4
A3
  6

 40
7.5
 41
20.0
 42
7.5
 43
20.0
 44
420.0
 45
297.0
 46
0.0
 47
0.0
 48
0.0
 49
0.0
140
0.0
141
0.0
142
1.0
143
1.0
 70
0
 72
1
 73
0
 74
5
  7

 75
16
 76
0
 77
2
 78
300
147
1.0
148
0.0
149
0.0
100
AcDbLayout
  1
Layout1
 70
1
 71
1
 10
0.0
 20
0.0
 11
420.0
 21
297.0
 12
0.0
 22
0.0
 32
0.0
 14
1e+20
 24
1e+20
 34
1e+20
 15
-1e+20
 25
-1e+20
 35
-1e+20
146
0.0
 13
0.0
 23
0.0
 33
0.0
 16
1.0
 26
0.0
 36
0.0
 17
0.0
 27
1.0
 37
0.0
 76
1
330
1B
  0
MATERIAL
  5
1F
102
{ACAD_REACTORS
330
E
102
}
330
E
100
AcDbMaterial
  1
ByBlock
  2

 70
0
 40
1.0
 71
1
 41
1.0
 91
-1023410177
 42
1.0
 72
1
  3

 73
1
 74
1
 75
1
 44
0.5
 73
0
 45
1.0
 46
1.0
 77
1
  4

 78
1
 79
1
170
1
 48
1.0
171
1
  6

172
1
173
1
174
1
140
1.0
141
1.0
175
1
  7

176
1
177
1
178
1
143
1.0
179
1
  8

270
1
271
1
272
1
145
1.0
146
1.0
273
1
  9

274
1
275
1
276
1
 42
1.0
 72
1
  3

 73
1
 74
1
 75
1
 94
63
  0
MATERIAL
  5
20
102
{ACAD_REACTORS
330
E
102
}
330
E
100
AcDbMaterial
  1
ByLayer
  2

 70
0
 40
1.0
 71
1
 41
1.0
 91
-1023410177
 42
1.0
 72
1
  3

 73
1
 74
1
 75
1
 44
0.5
 73
0
 45
1.0
 46
1.0
 77
1
  4

 78
1
 79
1
170
1
 48
1.0
171
1
  6

172
1
173
1
174
1
140
1.0
141
1.0
175
1
  7

176
1
177
1
178
1
143
1.0
179
1
  8

270
1
271
1
272
1
145
1.0
146
1.0
273
1
  9

274
1
275
1
276
1
 42
1.0
 72
1
  3

 73
1
 74
1
 75
1
 94
63
  0
MATERIAL
  5
21
102
{ACAD_REACTORS
330
E
102
}
330
E
100
AcDbMaterial
  1
Global
  2

 70
0
 40
1.0
 71
1
 41
1.0
 91
-1023410177
 42
1.0
 72
1
  3

 73
1
 74
1
 75
1
 44
0.5
 73
0
 45
1.0
 46
1.0
 77
1
  4

 78
1
 79
1
170
1
 48
1.0
171
1
  6

172
1
173
1
174
1
140
1.0
141
1.0
175
1
  7

176
1
177
1
178
1
143
1.0
179
1
  8

270
1
271
1
272
1
145
1.0
146
1.0
273
1
  9

274
1
275
1
276
1
 42
1.0
 72
1
  3

 73
1
 74
1
 75
1
 94
63
  0
MLINESTYLE
  5
22
102
{ACAD_REACTORS
330
10
102
}
330
10
100
AcDbMlineStyle
  2
Standard
 70
0
  3

 62
256
 51
90.0
 52
90.0
 71
2
 49
0.5
 62
256
  6
BYLAYER
 49
-0.5
 62
256
  6
BYLAYER
  0
MLEADERSTYLE
  5
2C
102
{ACAD_REACTORS
330
F
102
}
330
F
100
AcDbMLeaderStyle
179
2
170
2
171
1
172
0
 90
2
 40
0.0
 41
0.0
173
1
 91
-1056964608
 92
-2
290
1
 42
2.0
291
1
 43
8.0
  3
Standard
 44
4.0
300

342
29
174
1
175
1
176
0
178
1
 93
-1056964608
 45
4.0
292
0
297
0
 46
4.0
 94
-1056964608
 47
1.0
 49
1.0
140
1.0
294
1
141
0.0
177
0
142
1.0
295
0
296
0
143
3.75
271
0
272
9
273
9
  0
DICTIONARY
  5
2D
330
A
100
AcDbDictionary
280
1
281
1
  3
CREATED_BY_EZDXF
350
2E
  3
WRITTEN_BY_EZDXF
350
32
  0
DICTIONARYVAR
  5
2E
330
2D
100
DictionaryVariables
280
0
  1
1.3.5 @ 2025-08-20T01:28:29.585517+00:00
  0
DICTIONARYVAR
  5
32
330
2D
100
DictionaryVariables
280
0
  1
1.3.5 @ 2025-08-20T01:28:29.585517+00:00
  0
ENDSEC
  0
EOF
