  0
SECTION
  2
HEADER
  9
$ACADVER
  1
AC1032
  9
$ACADMAINTVER
 90
4
  9
$DWGCODEPAGE
  3
ANSI_1252
  9
$LASTSAVEDBY
  1
ezdxf
  9
$REQUIREDVERSIONS
160
0
  9
$INSBASE
 10
0.0
 20
0.0
 30
0.0
  9
$EXTMIN
 10
1e+20
 20
1e+20
 30
1e+20
  9
$EXTMAX
 10
-1e+20
 20
-1e+20
 30
-1e+20
  9
$LIMMIN
 10
0.0
 20
0.0
  9
$LIMMAX
 10
420.0
 20
297.0
  9
$ORTHOMODE
 70
0
  9
$REGENMODE
 70
1
  9
$FILLMODE
 70
1
  9
$QTEXTMODE
 70
0
  9
$MIRRTEXT
 70
1
  9
$LTSCALE
 40
1.0
  9
$ATTMODE
 70
1
  9
$TEXTSIZE
 40
2.5
  9
$TRACEWID
 40
1.0
  9
$TEXTSTYLE
  7
Standard
  9
$CLAYER
  8
0
  9
$CELTYPE
  6
ByLayer
  9
$CECOLOR
 62
256
  9
$CELTSCALE
 40
1.0
  9
$DISPSILH
 70
0
  9
$DIMSCALE
 40
1.0
  9
$DIMASZ
 40
2.5
  9
$DIMEXO
 40
0.625
  9
$DIMDLI
 40
3.75
  9
$DIMRND
 40
0.0
  9
$DIMDLE
 40
0.0
  9
$DIMEXE
 40
1.25
  9
$DIMTP
 40
0.0
  9
$DIMTM
 40
0.0
  9
$DIMTXT
 40
2.5
  9
$DIMCEN
 40
2.5
  9
$DIMTSZ
 40
0.0
  9
$DIMTOL
 70
0
  9
$DIMLIM
 70
0
  9
$DIMTIH
 70
0
  9
$DIMTOH
 70
0
  9
$DIMSE1
 70
0
  9
$DIMSE2
 70
0
  9
$DIMTAD
 70
1
  9
$DIMZIN
 70
8
  9
$DIMBLK
  1

  9
$DIMASO
 70
1
  9
$DIMSHO
 70
1
  9
$DIMPOST
  1

  9
$DIMAPOST
  1

  9
$DIMALT
 70
0
  9
$DIMALTD
 70
3
  9
$DIMALTF
 40
0.03937007874
  9
$DIMLFAC
 40
1.0
  9
$DIMTOFL
 70
1
  9
$DIMTVP
 40
0.0
  9
$DIMTIX
 70
0
  9
$DIMSOXD
 70
0
  9
$DIMSAH
 70
0
  9
$DIMBLK1
  1

  9
$DIMBLK2
  1

  9
$DIMSTYLE
  2
ISO-25
  9
$DIMCLRD
 70
0
  9
$DIMCLRE
 70
0
  9
$DIMCLRT
 70
0
  9
$DIMTFAC
 40
1.0
  9
$DIMGAP
 40
0.625
  9
$DIMJUST
 70
0
  9
$DIMSD1
 70
0
  9
$DIMSD2
 70
0
  9
$DIMTOLJ
 70
0
  9
$DIMTZIN
 70
8
  9
$DIMALTZ
 70
0
  9
$DIMALTTZ
 70
0
  9
$DIMUPT
 70
0
  9
$DIMDEC
 70
2
  9
$DIMTDEC
 70
2
  9
$DIMALTU
 70
2
  9
$DIMALTTD
 70
3
  9
$DIMTXSTY
  7
Standard
  9
$DIMAUNIT
 70
0
  9
$DIMADEC
 70
0
  9
$DIMALTRND
 40
0.0
  9
$DIMAZIN
 70
0
  9
$DIMDSEP
 70
44
  9
$DIMATFIT
 70
3
  9
$DIMFRAC
 70
0
  9
$DIMLDRBLK
  1

  9
$DIMLUNIT
 70
2
  9
$DIMLWD
 70
-2
  9
$DIMLWE
 70
-2
  9
$DIMTMOVE
 70
0
  9
$DIMFXL
 40
1.0
  9
$DIMFXLON
 70
0
  9
$DIMJOGANG
 40
0.785398163397
  9
$DIMTFILL
 70
0
  9
$DIMTFILLCLR
 70
0
  9
$DIMARCSYM
 70
0
  9
$DIMLTYPE
  6

  9
$DIMLTEX1
  6

  9
$DIMLTEX2
  6

  9
$DIMTXTDIRECTION
 70
0
  9
$LUNITS
 70
2
  9
$LUPREC
 70
4
  9
$SKETCHINC
 40
1.0
  9
$FILLETRAD
 40
10.0
  9
$AUNITS
 70
0
  9
$AUPREC
 70
2
  9
$MENU
  1
.
  9
$ELEVATION
 40
0.0
  9
$PELEVATION
 40
0.0
  9
$THICKNESS
 40
0.0
  9
$LIMCHECK
 70
0
  9
$CHAMFERA
 40
0.0
  9
$CHAMFERB
 40
0.0
  9
$CHAMFERC
 40
0.0
  9
$CHAMFERD
 40
0.0
  9
$SKPOLY
 70
0
  9
$TDCREATE
 40
2460908.103113426
  9
$TDUCREATE
 40
2458532.153996898
  9
$TDUPDATE
 40
2460908.103113426
  9
$TDUUPDATE
 40
2458532.1544311
  9
$TDINDWG
 40
0.0
  9
$TDUSRTIMER
 40
0.0
  9
$USRTIMER
 70
1
  9
$ANGBASE
 50
0.0
  9
$ANGDIR
 70
0
  9
$PDMODE
 70
0
  9
$PDSIZE
 40
0.0
  9
$PLINEWID
 40
0.0
  9
$SPLFRAME
 70
0
  9
$SPLINETYPE
 70
6
  9
$SPLINESEGS
 70
8
  9
$HANDSEED
  5
33
  9
$SURFTAB1
 70
6
  9
$SURFTAB2
 70
6
  9
$SURFTYPE
 70
6
  9
$SURFU
 70
6
  9
$SURFV
 70
6
  9
$UCSBASE
  2

  9
$UCSNAME
  2

  9
$UCSORG
 10
0.0
 20
0.0
 30
0.0
  9
$UCSXDIR
 10
1.0
 20
0.0
 30
0.0
  9
$UCSYDIR
 10
0.0
 20
1.0
 30
0.0
  9
$UCSORTHOREF
  2

  9
$UCSORTHOVIEW
 70
0
  9
$UCSORGTOP
 10
0.0
 20
0.0
 30
0.0
  9
$UCSORGBOTTOM
 10
0.0
 20
0.0
 30
0.0
  9
$UCSORGLEFT
 10
0.0
 20
0.0
 30
0.0
  9
$UCSORGRIGHT
 10
0.0
 20
0.0
 30
0.0
  9
$UCSORGFRONT
 10
0.0
 20
0.0
 30
0.0
  9
$UCSORGBACK
 10
0.0
 20
0.0
 30
0.0
  9
$PUCSBASE
  2

  9
$PUCSNAME
  2

  9
$PUCSORG
 10
0.0
 20
0.0
 30
0.0
  9
$PUCSXDIR
 10
1.0
 20
0.0
 30
0.0
  9
$PUCSYDIR
 10
0.0
 20
1.0
 30
0.0
  9
$PUCSORTHOREF
  2

  9
$PUCSORTHOVIEW
 70
0
  9
$PUCSORGTOP
 10
0.0
 20
0.0
 30
0.0
  9
$PUCSORGBOTTOM
 10
0.0
 20
0.0
 30
0.0
  9
$PUCSORGLEFT
 10
0.0
 20
0.0
 30
0.0
  9
$PUCSORGRIGHT
 10
0.0
 20
0.0
 30
0.0
  9
$PUCSORGFRONT
 10
0.0
 20
0.0
 30
0.0
  9
$PUCSORGBACK
 10
0.0
 20
0.0
 30
0.0
  9
$USERI1
 70
0
  9
$USERI2
 70
0
  9
$USERI3
 70
0
  9
$USERI4
 70
0
  9
$USERI5
 70
0
  9
$USERR1
 40
0.0
  9
$USERR2
 40
0.0
  9
$USERR3
 40
0.0
  9
$USERR4
 40
0.0
  9
$USERR5
 40
0.0
  9
$WORLDVIEW
 70
1
  9
$SHADEDGE
 70
3
  9
$SHADEDIF
 70
70
  9
$TILEMODE
 70
1
  9
$MAXACTVP
 70
64
  9
$PINSBASE
 10
0.0
 20
0.0
 30
0.0
  9
$PLIMCHECK
 70
0
  9
$PEXTMIN
 10
1e+20
 20
1e+20
 30
1e+20
  9
$PEXTMAX
 10
-1e+20
 20
-1e+20
 30
-1e+20
  9
$PLIMMIN
 10
0.0
 20
0.0
  9
$PLIMMAX
 10
420.0
 20
297.0
  9
$UNITMODE
 70
0
  9
$VISRETAIN
 70
1
  9
$PLINEGEN
 70
0
  9
$PSLTSCALE
 70
1
  9
$TREEDEPTH
 70
3020
  9
$CMLSTYLE
  2
Standard
  9
$CMLJUST
 70
0
  9
$CMLSCALE
 40
20.0
  9
$PROXYGRAPHICS
 70
1
  9
$MEASUREMENT
 70
1
  9
$CELWEIGHT
370
-1
  9
$ENDCAPS
280
0
  9
$JOINSTYLE
280
0
  9
$LWDISPLAY
290
0
  9
$INSUNITS
 70
6
  9
$HYPERLINKBASE
  1

  9
$STYLESHEET
  1

  9
$XEDIT
290
1
  9
$CEPSNTYPE
380
0
  9
$PSTYLEMODE
290
1
  9
$FINGERPRINTGUID
  2
{24AA3587-A440-4F73-BBFA-DB6DB625AE46}
  9
$VERSIONGUID
  2
{A47BFC91-7729-4B96-B462-7D0830002831}
  9
$EXTNAMES
290
1
  9
$PSVPSCALE
 40
0.0
  9
$OLESTARTUP
290
0
  9
$SORTENTS
280
127
  9
$INDEXCTL
280
0
  9
$HIDETEXT
280
1
  9
$XCLIPFRAME
280
1
  9
$HALOGAP
280
0
  9
$OBSCOLOR
 70
257
  9
$OBSLTYPE
280
0
  9
$INTERSECTIONDISPLAY
280
0
  9
$INTERSECTIONCOLOR
 70
257
  9
$DIMASSOC
280
2
  9
$PROJECTNAME
  1

  9
$CAMERADISPLAY
290
0
  9
$LENSLENGTH
 40
50.0
  9
$CAMERAHEIGHT
 40
0.0
  9
$STEPSPERSEC
 40
24.0
  9
$STEPSIZE
 40
100.0
  9
$3DDWFPREC
 40
2.0
  9
$PSOLWIDTH
 40
0.005
  9
$PSOLHEIGHT
 40
0.08
  9
$LOFTANG1
 40
1.570796326795
  9
$LOFTANG2
 40
1.570796326795
  9
$LOFTMAG1
 40
0.0
  9
$LOFTMAG2
 40
0.0
  9
$LOFTPARAM
 70
7
  9
$LOFTNORMALS
280
1
  9
$LATITUDE
 40
37.795
  9
$LONGITUDE
 40
-122.394
  9
$NORTHDIRECTION
 40
0.0
  9
$TIMEZONE
 70
-8000
  9
$LIGHTGLYPHDISPLAY
280
1
  9
$TILEMODELIGHTSYNCH
280
1
  9
$CMATERIAL
347
20
  9
$SOLIDHIST
280
0
  9
$SHOWHIST
280
1
  9
$DWFFRAME
280
2
  9
$DGNFRAME
280
2
  9
$REALWORLDSCALE
290
1
  9
$INTERFERECOLOR
 62
256
  9
$CSHADOW
280
0
  9
$SHADOWPLANELOCATION
 40
0.0
  0
ENDSEC
  0
SECTION
  2
CLASSES
  0
CLASS
  1
ACDBDICTIONARYWDFLT
  2
AcDbDictionaryWithDefault
  3
ObjectDBX Classes
 90
0
 91
0
280
0
281
0
  0
CLASS
  1
SUN
  2
AcDbSun
  3
SCENEOE
 90
1153
 91
0
280
0
281
0
  0
CLASS
  1
VISUALSTYLE
  2
AcDbVisualStyle
  3
ObjectDBX Classes
 90
4095
 91
0
280
0
281
0
  0
CLASS
  1
MATERIAL
  2
AcDbMaterial
  3
ObjectDBX Classes
 90
1153
 91
0
280
0
281
0
  0
CLASS
  1
SCALE
  2
AcDbScale
  3
ObjectDBX Classes
 90
1153
 91
0
280
0
281
0
  0
CLASS
  1
TABLESTYLE
  2
AcDbTableStyle
  3
ObjectDBX Classes
 90
4095
 91
0
280
0
281
0
  0
CLASS
  1
MLEADERSTYLE
  2
AcDbMLeaderStyle
  3
ACDB_MLEADERSTYLE_CLASS
 90
4095
 91
0
280
0
281
0
  0
CLASS
  1
DICTIONARYVAR
  2
AcDbDictionaryVar
  3
ObjectDBX Classes
 90
0
 91
0
280
0
281
0
  0
CLASS
  1
CELLSTYLEMAP
  2
AcDbCellStyleMap
  3
ObjectDBX Classes
 90
1152
 91
0
280
0
281
0
  0
CLASS
  1
MENTALRAYRENDERSETTINGS
  2
AcDbMentalRayRenderSettings
  3
SCENEOE
 90
1024
 91
0
280
0
281
0
  0
CLASS
  1
ACDBDETAILVIEWSTYLE
  2
AcDbDetailViewStyle
  3
ObjectDBX Classes
 90
1025
 91
0
280
0
281
0
  0
CLASS
  1
ACDBSECTIONVIEWSTYLE
  2
AcDbSectionViewStyle
  3
ObjectDBX Classes
 90
1025
 91
0
280
0
281
0
  0
CLASS
  1
RASTERVARIABLES
  2
AcDbRasterVariables
  3
ISM
 90
0
 91
0
280
0
281
0
  0
CLASS
  1
LAYOUT
  2
AcDbLayout
  3
ObjectDBX Classes
 90
0
 91
0
280
0
281
0
  0
CLASS
  1
ACDBPLACEHOLDER
  2
AcDbPlaceHolder
  3
ObjectDBX Classes
 90
0
 91
0
280
0
281
0
  0
ENDSEC
  0
SECTION
  2
TABLES
  0
TABLE
  2
VPORT
  5
8
330
0
100
AcDbSymbolTable
 70
1
  0
VPORT
  5
23
330
8
100
AcDbSymbolTableRecord
100
AcDbViewportTableRecord
  2
*Active
 70
0
 10
0.0
 20
0.0
 11
1.0
 21
1.0
 12
0.0
 22
0.0
 13
0.0
 23
0.0
 14
0.5
 24
0.5
 15
0.5
 25
0.5
 16
0.0
 26
0.0
 36
1.0
 17
0.0
 27
0.0
 37
0.0
 40
1000.0
 41
1.34
 42
50.0
 43
0.0
 44
0.0
 50
0.0
 51
0.0
 71
0
 72
1000
 73
1
 74
3
 75
0
 76
0
 77
0
 78
0
281
0
 65
0
146
0.0
  0
ENDTAB
  0
TABLE
  2
LTYPE
  5
2
330
0
100
AcDbSymbolTable
 70
3
  0
LTYPE
  5
24
330
2
100
AcDbSymbolTableRecord
100
AcDbLinetypeTableRecord
  2
ByBlock
 70
0
  3

 72
65
 73
0
 40
0.0
  0
LTYPE
  5
25
330
2
100
AcDbSymbolTableRecord
100
AcDbLinetypeTableRecord
  2
ByLayer
 70
0
  3

 72
65
 73
0
 40
0.0
  0
LTYPE
  5
26
330
2
100
AcDbSymbolTableRecord
100
AcDbLinetypeTableRecord
  2
Continuous
 70
0
  3

 72
65
 73
0
 40
0.0
  0
ENDTAB
  0
TABLE
  2
LAYER
  5
1
330
0
100
AcDbSymbolTable
 70
2
  0
LAYER
  5
27
330
1
100
AcDbSymbolTableRecord
100
AcDbLayerTableRecord
  2
0
 70
0
 62
7
  6
Continuous
370
-3
390
13
347
21
  0
LAYER
  5
28
330
1
100
AcDbSymbolTableRecord
100
AcDbLayerTableRecord
  2
Defpoints
 70
0
 62
7
  6
Continuous
290
0
370
-3
390
13
347
21
  0
ENDTAB
  0
TABLE
  2
STYLE
  5
5
330
0
100
AcDbSymbolTable
 70
1
  0
STYLE
  5
29
330
5
100
AcDbSymbolTableRecord
100
AcDbTextStyleTableRecord
  2
Standard
 70
0
 40
0.0
 41
1.0
 50
0.0
 71
0
 42
2.5
  3
txt
  4

  0
ENDTAB
  0
TABLE
  2
VIEW
  5
7
330
0
100
AcDbSymbolTable
 70
0
  0
ENDTAB
  0
TABLE
  2
UCS
  5
6
330
0
100
AcDbSymbolTable
 70
0
  0
ENDTAB
  0
TABLE
  2
APPID
  5
3
330
0
100
AcDbSymbolTable
 70
3
  0
APPID
  5
2A
330
3
100
AcDbSymbolTableRecord
100
AcDbRegAppTableRecord
  2
ACAD
 70
0
  0
APPID
  5
30
330
3
100
AcDbSymbolTableRecord
100
AcDbRegAppTableRecord
  2
HATCHBACKGROUNDCOLOR
 70
0
  0
APPID
  5
31
330
3
100
AcDbSymbolTableRecord
100
AcDbRegAppTableRecord
  2
EZDXF
 70
0
  0
ENDTAB
  0
TABLE
  2
DIMSTYLE
  5
4
330
0
100
AcDbSymbolTable
 70
1
100
AcDbDimStyleTable
  0
DIMSTYLE
105
2B
330
4
100
AcDbSymbolTableRecord
100
AcDbDimStyleTableRecord
  2
Standard
 70
0
 40
1.0
 41
2.5
 42
0.625
 43
3.75
 44
1.25
 45
0.0
 46
0.0
 47
0.0
 48
0.0
 49
2.5
140
2.5
141
2.5
142
0.0
143
0.03937007874
144
1.0
145
0.0
146
1.0
147
0.625
148
0.0
 69
0
 70
0
 71
0
 72
0
 73
0
 74
0
 75
0
 76
0
 77
1
 78
8
 79
3
170
0
171
3
172
1
173
0
174
0
175
0
176
0
177
0
178
0
179
2
271
2
272
2
273
2
274
3
275
0
276
0
277
2
278
44
279
0
280
0
281
0
282
0
283
0
284
8
285
0
286
0
288
0
289
3
290
0
371
-2
372
-2
  0
ENDTAB
  0
TABLE
  2
BLOCK_RECORD
  5
9
330
0
100
AcDbSymbolTable
 70
2
  0
BLOCK_RECORD
  5
17
330
9
100
AcDbSymbolTableRecord
100
AcDbBlockTableRecord
  2
*Model_Space
340
1A
 70
0
280
1
281
0
  0
BLOCK_RECORD
  5
1B
330
9
100
AcDbSymbolTableRecord
100
AcDbBlockTableRecord
  2
*Paper_Space
340
1E
 70
0
280
1
281
0
  0
ENDTAB
  0
ENDSEC
  0
SECTION
  2
BLOCKS
  0
BLOCK
  5
18
330
17
100
AcDbEntity
  8
0
100
AcDbBlockBegin
  2
*Model_Space
 70
0
 10
0.0
 20
0.0
 30
0.0
  3
*Model_Space
  1

  0
ENDBLK
  5
19
330
17
100
AcDbEntity
  8
0
100
AcDbBlockEnd
  0
BLOCK
  5
1C
330
1B
100
AcDbEntity
  8
0
100
AcDbBlockBegin
  2
*Paper_Space
 70
0
 10
0.0
 20
0.0
 30
0.0
  3
*Paper_Space
  1

  0
ENDBLK
  5
1D
330
1B
100
AcDbEntity
  8
0
100
AcDbBlockEnd
  0
ENDSEC
  0
SECTION
  2
ENTITIES
  0
LWPOLYLINE
  5
2F
330
17
100
AcDbEntity
  8
0
100
AcDbPolyline
 90
721
 70
1
 10
85.14291807742222
 20
20.807102648717535
 10
85.14029273050106
 20
20.807387225262673
 10
85.13247806696519
 20
20.80798635097188
 10
85.11959662666425
 20
20.808391708216234
 10
85.1014603174516
 20
20.808825335344277
 10
85.07841475763851
 20
20.808969948922908
 10
85.0503024823763
 20
20.808920539687136
 10
85.01702722009611
 20
20.808518257494445
 10
84.97884273787346
 20
20.807826834577565
 10
84.93565276413953
 20
20.806687420794002
 10
84.88726911477383
 20
20.80532243601663
 10
84.83400687276358
 20
20.803541262901547
 10
84.77573907792615
 20
20.80131235326935
 10
84.71243507230564
 20
20.79876288190836
 10
84.6441561718138
 20
20.79563849924195
 10
84.57084099922305
 20
20.79219380919632
 10
84.49264711135588
 20
20.78833343951213
 10
84.40944754802968
 20
20.78402584200998
 10
84.32121165128864
 20
20.779398191478197
 10
84.22812757459525
 20
20.77422819521869
 10
84.13000707251311
 20
20.76873852745391
 10
84.02691143029602
 20
20.762674965782004
 10
83.91903306844972
 20
20.756355719187127
 10
83.80602194832998
 20
20.74955820529406
 10
83.68825867456307
 20
20.742378213214078
 10
83.56548944941554
 20
20.734752137889227
 10
83.43784107978023
 20
20.726712163372845
 10
83.30531353499923
 20
20.718258416839735
 10
83.16787612645865
 20
20.709518200252983
 10
83.02552876218468
 20
20.700491895136977
 10
82.87833272743107
 20
20.690925279089846
 10
82.72622667562814
 20
20.68107282886303
 10
82.56936804096662
 20
20.670839680896318
 10
82.40759926662396
 20
20.660321207449073
 10
82.24098154588009
 20
20.649263567643818
 10
82.06958046168992
 20
20.637952913586133
 10
81.89336526412377
 20
20.626516801588725
 10
81.71242786573335
 20
20.614573961636207
 10
81.52657995976628
 20
20.602347322300613
 10
81.33610597125391
 20
20.58977344102634
 10
81.14072135253315
 20
20.576916269068153
 10
80.94067984002145
 20
20.563839665833555
 10
80.7358544428782
 20
20.55051221031794
 10
80.52637199865424
 20
20.536965959399854
 10
80.3121361744649
 20
20.523042317286386
 10
80.09327380786095
 20
20.508773340856074
 10
79.86959659209002
 20
20.49438195868094
 10
79.64138892152555
 20
20.47980485538019
 10
79.40852380532694
 20
20.46501060994923
 10
79.17100118217829
 20
20.449999476737613
 10
78.92882089878981
 20
20.4347720916193
 10
78.68207919607237
 20
20.41948743191158
 10
78.43067967982529
 20
20.403987156171087
 10
78.17471856030149
 20
20.38843036888991
 10
77.91422634216707
 20
20.37269053115368
 10
77.64926431067582
 20
20.35651342056054
 10
77.37989792615087
 20
20.34018569791524
 10
77.10593891249786
 20
20.32393016461504
 10
76.827387116427
 20
20.307747456533864
 10
76.54446138001468
 20
20.29128797901053
 10
76.2571309226732
 20
20.274679415532507
 10
75.96539568308663
 20
20.257922020449367
 10
75.66916353409759
 20
20.241397954000007
 10
75.3685876735116
 20
20.22447172376721
 10
75.06373362296766
 20
20.207429736206144
 10
74.75457063253609
 20
20.1903995476295
 10
74.44094102276242
 20
20.173477038995774
 10
74.12312915736211
 20
20.15659902209896
 10
73.80103867279253
 20
20.13960702832092
 10
73.47466950773772
 20
20.122501312011227
 10
73.14408712252084
 20
20.105568533974644
 10
72.80941402633357
 20
20.08830050375705
 10
72.47046194308152
 20
20.070920022755693
 10
72.12745388991043
 20
20.053618379515974
 10
71.78038977484643
 20
20.036395955562266
 10
71.42920392296068
 20
20.018966980313323
 10
71.07386552300757
 20
20.001459264431414
 10
70.71462831140454
 20
19.98393666732404
 10
70.35130395074138
 20
19.966622244738033
 10
69.98398432291181
 20
19.949134853832803
 10
69.61279623480864
 20
19.93150667866167
 10
69.23773959445808
 20
19.913738100749022
 10
68.85875293265853
 20
19.896084105545413
 10
68.47583615743619
 20
19.878545074575225
 10
68.089019834773
 20
19.860994214574497
 10
67.6985883590424
 20
19.843368210162428
 10
67.30425709060732
 20
19.825731394118126
 10
66.90615286701858
 20
19.808115823320144
 10
66.50449449969462
 20
19.79017203028207
 10
66.09912424786506
 20
19.77199615031197
 10
65.69007697521315
 20
19.75400176465336
 10
65.27747951928964
 20
19.73622093018478
 10
64.8611391836672
 20
19.71833658249518
 10
64.44140173994685
 20
19.700030802277535
 10
64.01814443367329
 20
19.681812797384275
 10
63.591397830828484
 20
19.663555774551448
 10
63.16113115082481
 20
19.64538741726652
 10
62.72753251646679
 20
19.62708556000619
 10
62.29060186643856
 20
19.608650457120046
 10
61.850212117925636
 20
19.59005106912783
 10
61.406586380047635
 20
19.571478303050604
 10
60.95959763130603
 20
19.552900865058543
 10
60.509434025163365
 20
19.53409646245356
 10
60.056095438987796
 20
19.515065603934808
 10
59.59970874098809
 20
19.49584021920604
 10
59.14011619039394
 20
19.476516443575346
 10
58.677383339502335
 20
19.457380556323102
 10
58.21147504870853
 20
19.43802012077892
 10
57.74274150994651
 20
19.418657083444074
 10
57.27105131204278
 20
19.398720157505668
 10
56.79637364375161
 20
19.378337153625953
 10
56.31887039025473
 20
19.357952946878253
 10
55.83851077096447
 20
19.33769522075003
 10
55.355132747409336
 20
19.31711973604192
 10
54.869305414915644
 20
19.296098590244426
 10
54.38067842825959
 20
19.274410472730217
 10
53.88941361130695
 20
19.252500512922175
 10
53.39535325394537
 20
19.230464718953588
 10
52.898781873180084
 20
19.20823926674451
 10
52.39966439072219
 20
19.18541146527495
 10
51.898066358868704
 20
19.16226759382531
 10
51.39392633907609
 20
19.13906251067137
 10
50.887397559807766
 20
19.115160596221124
 10
50.378510587045746
 20
19.090435057210623
 10
49.86736599006001
 20
19.06558511828981
 10
49.35374038380937
 20
19.040421017010743
 10
48.837856969387246
 20
19.015133278870085
 10
48.31989963321303
 20
18.988959109487528
 10
47.79983762535692
 20
18.962026065175735
 10
47.27760956859131
 20
18.93458874986094
 10
46.75312333575876
 20
18.907029323782016
 10
46.22675554036394
 20
18.87890192979491
 10
45.69837467925942
 20
18.849635662611092
 10
45.16826975109931
 20
18.819706309609316
 10
44.6360333311333
 20
18.789687538595913
 10
44.10191504202547
 20
18.759102071422205
 10
43.56603736230952
 20
18.727441844808872
 10
43.02859298841285
 20
18.69502392316697
 10
42.48929712740861
 20
18.661913275149544
 10
41.94837307236417
 20
18.628300044728913
 10
41.405724398420915
 20
18.594026017636512
 10
40.86153938167326
 20
18.558868392475112
 10
40.3159449823038
 20
18.5228587174241
 10
39.768814086840145
 20
18.48596608017802
 10
39.2204007076214
 20
18.448253195571294
 10
38.670450709676636
 20
18.409657857468655
 10
38.11915672811732
 20
18.370497384630742
 10
37.56654945155727
 20
18.33064447509444
 10
37.01278204714402
 20
18.289463763617324
 10
36.457793137649944
 20
18.2472098541256
 10
35.901806108116205
 20
18.204072509067213
 10
35.34453616561602
 20
18.16011669709522
 10
34.786298638400226
 20
18.115150783467406
 10
34.227124153766766
 20
18.06904772057024
 10
33.66704333901356
 20
18.02168046079019
 10
33.105994755597
 20
17.973303862403046
 10
32.54407482837571
 20
17.924076139677375
 10
31.98128346537578
 20
17.873997674137524
 10
31.417839661963395
 20
17.822718235248367
 10
30.853646993279987
 20
17.77007960874135
 10
30.28886310812198
 20
17.715986040832753
 10
29.72352308477828
 20
17.66085022254256
 10
29.157407835908828
 20
17.60502276593027
 10
28.590832781738385
 20
17.548311654729304
 10
28.023916103099488
 20
17.489668451152884
 10
27.45647376028302
 20
17.42985658545528
 10
26.888729291619963
 20
17.3690651842105
 10
26.32061683823375
 20
17.307009239886025
 10
25.752167088738204
 20
17.243561450518765
 10
25.18354214292074
 20
17.179165800958504
 10
24.614645637238695
 20
17.113663822587114
 10
24.045696536400275
 20
17.046705412044247
 10
23.476567757591006
 20
16.97825952984966
 10
22.907482839141924
 20
16.908515302577367
 10
22.338411061781187
 20
16.83760015936526
 10
21.7694444300344
 20
16.765132448673594
 10
21.20055222462977
 20
16.691239599640266
 10
20.631830901083852
 20
16.616079699359044
 10
20.06306140271453
 20
16.54000323271464
 10
19.494681842885985
 20
16.46230922993763
 10
18.92669222159819
 20
16.382997691028013
 10
18.359061911553244
 20
16.302195663599317
 10
17.79176019347937
 20
16.22003057678944
 10
17.22494490012074
 20
16.136405913765934
 10
16.65845826004907
 20
16.051417937011664
 10
16.092585127507114
 20
15.965001423524013
 10
15.52738684906455
 20
15.876901896551548
 10
14.962832766765528
 20
15.78724653088259
 10
14.398892253312106
 20
15.696162374130664
 10
13.835595966660183
 20
15.603522251507462
 10
13.273259510982202
 20
15.509133383697666
 10
12.711694426236079
 20
15.41321933514725
 10
12.150966571298373
 20
15.316065113388726
 10
11.591102122476045
 20
15.217003932175054
 10
11.032294021460109
 20
15.11635183851898
 10
10.47445038635683
 20
15.014489975261094
 10
9.917536016245494
 20
14.911006160080568
 10
9.3618665766145
 20
14.805707359312521
 10
8.80738078221004
 20
14.69884779535879
 10
8.25401280481351
 20
14.590142333512084
 10
7.701955678089789
 20
14.479906639260788
 10
7.151143604478236
 20
14.36785545072281
 10
6.601800244941632
 20
14.254177385773009
 10
6.053579398667563
 20
14.139192144165433
 10
5.506796731144398
 20
14.022706692235197
 10
4.961574874195642
 20
13.90421233082903
 10
4.417883261839287
 20
13.783835853210887
 10
3.875757064338075
 20
13.661989568876383
 10
3.3352270622796962
 20
13.538545794338042
 10
2.7963239442779813
 20
13.413377227632765
 10
2.2591749157792123
 20
13.286514399541634
 10
1.7235915167412779
 20
13.15818087451062
 10
1.1896397286725513
 20
13.028661151373079
 10
0.6575693581848716
 20
12.897477188931619
 10
0.12744178250589566
 20
12.764374383260032
 10
-0.4008042223022748
 20
12.629606702410575
 10
-0.9270693188752412
 20
12.493320279046927
 10
-1.451475715412479
 20
12.355463852897499
 10
-1.9739268031076667
 20
12.216194875182119
 10
-2.494326065128374
 20
12.07567117864498
 10
-3.012678044439402
 20
11.933353406176938
 10
-3.5288555662524526
 20
11.78927221573387
 10
-4.042884745558576
 20
11.644094139213228
 10
-4.554831441234336
 20
11.497534169082511
 10
-5.0644106457472216
 20
11.349526446465152
 10
-5.571876708673876
 20
11.200009655449392
 10
-6.076975280437655
 20
11.049045111946992
 10
-6.579640502162
 20
10.896917823490453
 10
-7.0801573813794105
 20
10.743693648956343
 10
-7.578245453522204
 20
10.588767372358955
 10
-8.073834316748991
 20
10.432963358339936
 10
-8.56711246175982
 20
10.276505298520052
 10
-9.058023115607794
 20
10.118599486213519
 10
-9.546184753927946
 20
9.959337895287966
 10
-10.031816525376216
 20
9.799071392152461
 10
-10.514949087908475
 20
9.63792715159533
 10
-10.995521125612974
 20
9.475650824039938
 10
-11.47330894686896
 20
9.312430900186344
 10
-11.948566901253058
 20
9.148206064122808
 10
-12.421132613056265
 20
8.983419156126025
 10
-12.890944766366834
 20
8.81781582661936
 10
-13.357972703228883
 20
8.651268900814495
 10
-13.822247081598288
 20
8.483905553499755
 10
-14.283702042598486
 20
8.316010792207637
 10
-14.742464761017782
 20
8.147553958982277
 10
-15.198219571367805
 20
7.978342020158784
 10
-15.650966473648554
 20
7.808374975737159
 10
-16.100801984692463
 20
7.6374949929732106
 10
-16.5476295876671
 20
7.465859904611126
 10
-16.99154125644008
 20
7.293851235015865
 10
-17.432440474178957
 20
7.121626816931613
 10
-17.87020460906025
 20
6.948677951205104
 10
-18.304960835872254
 20
6.774973979880462
 10
-18.736296972294166
 20
6.600479702036994
 10
-19.164559341770232
 20
6.4255153261279006
 10
-19.58977860225632
 20
6.2502080269415
 10
-20.0117004041758
 20
6.074619120389545
 10
-20.4302940895728
 20
5.898621431683713
 10
-20.84559485936802
 20
5.721802778503178
 10
-21.25759817059663
 20
5.544702517957086
 10
-21.66639599712626
 20
5.367702174410388
 10
-22.071707874389215
 20
5.190196531877371
 10
-22.473660977173815
 20
5.0121549324021615
 10
-22.872062271815174
 20
4.833893041473141
 10
-23.26703893310161
 20
4.655380201134438
 10
-23.658621618989
 20
4.476743586174368
 10
-24.046591180821395
 20
4.297632330183853
 10
-24.431008934510558
 20
4.118300782739527
 10
-24.811874880056468
 20
3.938748943841393
 10
-25.18931164928264
 20
3.759485512642717
 10
-25.563034234656563
 20
3.5804446302669315
 10
-25.93320501188724
 20
3.4011834564373364
 10
-26.29963549027461
 20
3.2214782995331697
 10
-26.66232112685386
 20
3.0418685166635773
 10
-27.02145041232504
 20
2.862577799449318
 10
-27.37677354007635
 20
2.6831281066929957
 10
-27.72822465123122
 20
2.5038044459271203
 10
-28.076088753322143
 20
2.3246726760282637
 10
-28.420111496772506
 20
2.1457941129081695
 10
-28.76020090771467
 20
1.966787232201886
 10
-29.09644896001627
 20
1.7880335582743703
 10
-29.42888631163317
 20
1.6096602659139332
 10
-29.757482304609503
 20
1.4315401803322612
 10
-30.08210976415695
 20
1.2537039594852282
 10
-30.40273803231963
 20
1.076024428584514
 10
-30.71952494184174
 20
0.8985981044625675
 10
-31.032216143146652
 20
0.7214863030311304
 10
-31.340872952146103
 20
0.5449433738668411
 10
-31.645688402504987
 20
0.36865365148131635
 10
-31.946280969858346
 20
0.1927091097421777
 10
-32.24274717103863
 20
0.016951915905235093
 10
-32.53520963786932
 20
-0.15810923087624298
 10
-32.82366837035045
 20
-0.33247433060225745
 10
-33.10793487778192
 20
-0.5063670748935692
 10
-33.38797850220787
 20
-0.6799146385384924
 10
-33.66389576046073
 20
-0.8532748542812221
 10
-33.935585592743266
 20
-1.0257505322684217
 10
-34.2031445158879
 20
-1.1974995052442816
 10
-34.466511213982876
 20
-1.3687761227854398
 10
-34.72555851223989
 20
-1.539549726936019
 10
-34.98034772657069
 20
-1.7095659681193855
 10
-35.23081754106353
 20
-1.8790791959121742
 10
-35.47699861367428
 20
-2.0479622355260694
 10
-35.71892160235881
 20
-2.2160879121727506
 10
-35.956398016417054
 20
-2.3836799174729784
 10
-36.189519829716644
 20
-2.5503567270618035
 10
-36.4182915852224
 20
-2.7166576980483677
 10
-36.642708739969486
 20
-2.882043473323529
 10
-36.86274063600204
 20
-3.0466412276756025
 10
-37.078356615364186
 20
-3.2105781358929084
 10
-37.289429503267606
 20
-3.373823540019568
 10
-37.4961171324565
 20
-3.5362809232231425
 10
-37.69838430201016
 20
-3.697538103182806
 10
-37.89616969601685
 20
-3.8578494294751913
 10
-38.08947331447656
 20
-4.017214902100297
 10
-38.27845299013348
 20
-4.175538004225683
 10
-38.46282371545511
 20
-4.3328845947279175
 10
-38.64277398114152
 20
-4.489030981986239
 10
-38.818237928316115
 20
-4.643692158468137
 10
-38.98934273176724
 20
-4.796898782129492
 10
-39.155899900794815
 20
-4.948874544591058
 10
-39.31806726814304
 20
-5.099522929020396
 10
-39.475590484235276
 20
-5.2487826195057545
 10
-39.62878521455991
 20
-5.396460582382252
 10
-39.77742776749617
 20
-5.542368326949818
 10
-39.921584001920635
 20
-5.686790860740961
 10
-40.0612539178333
 20
-5.829728183755687
 10
-40.19643751523417
 20
-5.971180295993991
 10
-40.32706893524667
 20
-6.110862189923363
 10
-40.453148177870816
 20
-6.248773865543807
 10
-40.57471044402729
 20
-6.385327505176148
 10
-40.69172053279538
 20
-6.520110926499558
 10
-40.80405581235162
 20
-6.653632828667309
 10
-40.91183891451949
 20
-6.7853845125261305
 10
-41.01494720747551
 20
-6.915874677229291
 10
-41.1134420071314
 20
-7.044848973200155
 10
-41.20732331348718
 20
-7.172307400438726
 10
-41.29643329379866
 20
-7.2983464757774446
 10
-41.38108761355421
 20
-7.422773165551422
 10
-41.46081277452126
 20
-7.545877020257994
 10
-41.536051616976515
 20
-7.667495664188144
 10
-41.60651913338747
 20
-7.787694956218443
 10
-41.67230729762173
 20
-7.906093371983936
 10
-41.733481968555886
 20
-8.022975919017135
 10
-41.78994662935749
 20
-8.13818476457385
 10
-41.841823911850014
 20
-8.251211209500807
 10
-41.889149016954185
 20
-8.362467436118836
 10
-41.93185608579342
 20
-8.471668436895426
 10
-41.970006434279455
 20
-8.578559862253941
 10
-42.00372269423582
 20
-8.682633013041118
 10
-42.033004865662484
 20
-8.783887889256954
 10
-42.058041439259526
 20
-8.882100799280686
 10
-42.07873135522968
 20
-8.976574553258983
 10
-42.09532442018475
 20
-9.066831109994448
 10
-42.10825438847181
 20
-9.151629379559786
 10
-42.11748151620535
 20
-9.23001782252503
 10
-42.12362350546766
 20
-9.299992300232969
 10
-42.12729805834103
 20
-9.35954867402641
 10
-42.128986616189835
 20
-9.40557343307399
 10
-42.12958280269922
 20
-9.43491786562365
 10
-41.936064127685576
 20
-10.248274438920577
 10
-41.93208425095796
 20
-10.254177851963146
 10
-41.92017527873102
 20
-10.271760916302538
 10
-41.900459842828226
 20
-10.30051493278548
 10
-41.872289583211405
 20
-10.342571214857493
 10
-41.83527503238383
 20
-10.400661748984987
 10
-41.790883229262654
 20
-10.46814278821959
 10
-41.73993739569164
 20
-10.5410412561676
 10
-41.68309043467381
 20
-10.617765196492636
 10
-41.62085898849419
 20
-10.695613280684166
 10
-41.55339180396733
 20
-10.773410277691458
 10
-41.48109652044924
 20
-10.850581629484674
 10
-41.40396859497508
 20
-10.926587978954672
 10
-41.32213065936839
 20
-11.000920626948188
 10
-41.23564402954088
 20
-11.07332522388858
 10
-41.14450870549254
 20
-11.14380176977585
 10
-41.048882519967606
 20
-11.21225374777756
 10
-40.94869961408947
 20
-11.278396150361193
 10
-40.84392932990229
 20
-11.342356152315073
 10
-40.73472950015023
 20
-11.404037236806756
 10
-40.620911634133236
 20
-11.463663095456997
 10
-40.50250638980718
 20
-11.521106553477486
 10
-40.37982943266044
 20
-11.576174577203332
 10
-40.252407264460466
 20
-11.629156717131867
 10
-40.12065206752805
 20
-11.680017772342394
 10
-39.9842788343307
 20
-11.728823601711484
 10
-39.843445397612605
 20
-11.77547768840669
 10
-39.69818241532965
 20
-11.8198528576397
 10
-39.54839791361419
 20
-11.862330633775464
 10
-39.394153208377986
 20
-11.902656667237345
 10
-39.23532566779756
 20
-11.941339657178617
 10
-39.072007265740496
 20
-11.97799807923432
 10
-38.90426386108339
 20
-12.012916940936972
 10
-38.73196827903793
 20
-12.046065584330691
 10
-38.555059203692345
 20
-12.07769835899212
 10
-38.373694467790834
 20
-12.107718748088805
 10
-38.18784341337753
 20
-12.136253926409072
 10
-37.997506040452436
 20
-12.16330389395292
 10
-37.80246320035958
 20
-12.18921951712942
 10
-37.60299990063152
 20
-12.21393493706201
 10
-37.39889244964746
 20
-12.23726166305062
 10
-37.190395196984056
 20
-12.259261011007005
 10
-36.977319651941215
 20
-12.280156672551918
 10
-36.759792989307286
 20
-12.299979305641237
 10
-36.53771869224981
 20
-12.318571077530768
 10
-36.31128525146885
 20
-12.335708296599753
 10
-36.08033483422021
 20
-12.351487479680634
 10
-35.84509113212468
 20
-12.366097117473476
 10
-35.60542697039391
 20
-12.379506552022407
 10
-35.36134234902791
 20
-12.391715783327424
 10
-35.11292924189431
 20
-12.402343287023578
 10
-34.860314823781415
 20
-12.411419721066743
 10
-34.603371919900916
 20
-12.418914427501043
 10
-34.34216638912938
 20
-12.425112413858988
 10
-34.076698231466814
 20
-12.430013680140577
 10
-33.80709007873669
 20
-12.433109527192542
 10
-33.53340778981562
 20
-12.434684962547392
 10
-33.25555484787111
 20
-12.434582153460937
 10
-32.97350059494733
 20
-12.43292827472149
 10
-32.68737220583257
 20
-12.429753984284922
 10
-32.397200338482705
 20
-12.42493210736293
 10
-32.102954334941884
 20
-12.418589818743818
 10
-31.804634195210074
 20
-12.410727118427591
 10
-31.502270577243184
 20
-12.401216831625929
 10
-31.195959997873636
 20
-12.390216791083027
 10
-30.885702457101427
 20
-12.377726996798883
 10
-30.571401438094124
 20
-12.363589616029307
 10
-30.253249974516617
 20
-12.348120314262681
 10
-29.93115154953644
 20
-12.331161258754811
 10
-29.605075505197743
 20
-12.31283962429402
 10
-29.275179674244715
 20
-12.29305889404786
 10
-28.941556030544966
 20
-12.271437543651382
 10
-28.60411260023088
 20
-12.248357097469533
 10
-28.262660892602394
 20
-12.22404124712308
 10
-27.91761308998033
 20
-12.198454791691326
 10
-27.568776158699798
 20
-12.171282065685887
 10
-27.216180756716682
 20
-12.142395894318444
 10
-26.860019917695865
 20
-12.112111943077384
 10
-26.500135808893152
 20
-12.080526728795146
 10
-26.13658974622029
 20
-12.0473859018951
 10
-25.769508904465606
 20
-12.012720120333114
 10
-25.398923941584965
 20
-11.976402209320877
 10
-25.024742883710747
 20
-11.93881369322334
 10
-24.647027046754697
 20
-11.899700222463862
 10
-24.265715114805076
 20
-11.859316146619086
 10
-23.88115341130613
 20
-11.817341257235803
 10
-23.49305692872536
 20
-11.773841413190583
 10
-23.101552841851078
 20
-11.728847272439301
 10
-22.706737667515725
 20
-11.682516667726151
 10
-22.308545546842737
 20
-11.634564591518616
 10
-21.90704233870868
 20
-11.585276051349217
 10
-21.502385875857744
 20
-11.5345545303855
 10
-21.09438312462505
 20
-11.482084363139087
 10
-20.683288434587226
 20
-11.427926865521727
 10
-20.269009831876645
 20
-11.372463561898368
 10
-19.85154731649332
 20
-11.315694452269014
 10
-19.430900888437243
 20
-11.257619536633662
 10
-19.007289696364353
 20
-11.197887948583238
 10
-18.5807750561864
 20
-11.136245338541105
 10
-18.151107161291574
 20
-11.073169747704656
 10
-17.718540361256498
 20
-11.008722491985642
 10
-17.283008797204612
 20
-10.942618563851555
 10
-16.844700959835986
 20
-10.874634271681634
 10
-16.403524875282987
 20
-10.805151139840827
 10
-15.959546402422195
 20
-10.734454175861648
 10
-15.512699682377031
 20
-10.662258372211587
 10
-15.063076689015121
 20
-10.588182204525692
 10
-14.610870456001345
 20
-10.512541338292342
 10
-14.156050325379843
 20
-10.43546294829986
 10
-13.698361947573972
 20
-10.356885718636496
 10
-13.238217504904554
 20
-10.276774448381552
 10
-12.775551138495032
 20
-10.194844130002522
 10
-12.310362848345395
 20
-10.111094763499409
 10
-11.842749151288086
 20
-10.025684181616395
 10
-11.372556757543743
 20
-9.939248258295077
 10
-10.900004815768295
 20
-9.851436127126373
 10
-10.425088782996932
 20
-9.76170843100114
 10
-9.947778001273775
 20
-9.670192344707692
 10
-9.468326820175454
 20
-9.576949184157783
 10
-8.986485433090163
 20
-9.482456990548805
 10
-8.502442330717962
 20
-9.386492072259994
 10
-8.01619751305885
 20
-9.289054429291356
 10
-7.527812296024583
 20
-9.189889712066254
 10
-7.037256021659286
 20
-9.089125095373008
 10
-6.544721723627835
 20
-8.987076244699997
 10
-6.050016368265355
 20
-8.88342749455884
 10
-5.553455621060221
 20
-8.77798581128465
 10
-5.055008824056555
 20
-8.670878369665742
 10
-4.554645319298494
 20
-8.562232344490436
 10
-4.05226858995359
 20
-8.451889903014543
 10
-3.548321476298557
 20
-8.339688669529048
 10
-3.0427074615009237
 20
-8.22547081128976
 10
-2.5351154230371455
 20
-8.109968719070707
 10
-2.025830368439728
 20
-7.993116533995323
 10
-1.5151634202322313
 20
-7.874181865289575
 10
-1.0027682549704056
 20
-7.75348492140667
 10
-0.48874138948668305
 20
-7.631183535090797
 10
0.026601510730541154
 20
-7.507084672677072
 10
0.5434841373020397
 20
-7.3809998434654265
 10
1.061652140651173
 20
-7.252990363367612
 10
1.5813553273897503
 20
-7.123534273581021
 10
2.1024052068177035
 20
-6.992407882484895
 10
2.624521314367363
 20
-6.85900597409352
 10
3.147922798694649
 20
-6.723679414815975
 10
3.6726051168347538
 20
-6.586967561761401
 10
4.198349212105595
 20
-6.448519930045088
 10
4.725256567928477
 20
-6.308199289238551
 10
5.253264145958755
 20
-6.1663023469548275
 10
5.78224940634682
 20
-6.0223207855650065
 10
6.312212410408584
 20
-5.8762548594186645
 10
6.843148615179205
 20
-5.7286439256249535
 10
7.374961626458078
 20
-5.579646325627212
 10
7.907747991735606
 20
-5.429104353856035
 10
8.441288593013798
 20
-5.2766672710771365
 10
8.975644776862353
 20
-5.122589554041939
 10
9.510816665913108
 20
-4.9668717114495955
 10
10.046677054719781
 20
-4.8095442740811905
 10
10.583134061388622
 20
-4.650226099096139
 10
11.120249001831368
 20
-4.489171536071077
 10
11.657890158294899
 20
-4.326950600071019
 10
12.196281345031776
 20
-4.163375309095054
 10
12.73507620793981
 20
-3.998125327515188
 10
13.274432641079091
 20
-3.831297426513442
 10
13.814096294872991
 20
-3.6629529220015664
 10
14.354225032723646
 20
-3.4931884579867907
 10
14.894788227333152
 20
-3.3218769868555853
 10
15.435562187080734
 20
-3.149206999308018
 10
15.97673540266648
 20
-2.9754021869648457
 10
16.51827730810836
 20
-2.8003357565621196
 10
17.059902803900002
 20
-2.6239414676989057
 10
17.601769784101513
 20
-2.4463160915572195
 10
18.143812389836338
 20
-2.2677446356695725
 10
18.686035194727225
 20
-2.0876878701016137
 10
19.228245103793405
 20
-1.9064612059921404
 10
19.7705034329466
 20
-1.7243189929177956
 10
20.312779554888923
 20
-1.5411341832650443
 10
20.855012153708582
 20
-1.3566524274572587
 10
21.39726257597533
 20
-1.171128202245852
 10
21.939337634734464
 20
-0.9848765372452749
 10
22.481303250178478
 20
-0.7976126792725928
 10
23.02312422138668
 20
-0.6097488106486262
 10
23.564708513175546
 20
-0.4209031526588501
 10
24.106025498247128
 20
-0.2309486576897397
 10
24.647136492513205
 20
-0.0401396753179228
 10
25.187878936316995
 20
0.1510817172286219
 10
25.728380096420725
 20
0.34274579638141395
 10
26.268420762852518
 20
0.5352036828991018
 10
26.808031532252347
 20
0.7283284563429473
 10
27.347212435278138
 20
0.922119989538156
 10
27.88599406856991
 20
1.1164513620459984
 10
28.42409127130533
 20
1.3113890686169756
 10
28.961661968202463
 20
1.5068362108942808
 10
29.49860945848114
 20
1.7026357191824562
 10
30.035122386131203
 20
1.8985632659867961
 10
30.57082349383092
 20
2.0950673791219168
 10
31.105743470194113
 20
2.2920207566247157
 10
31.640162779788476
 20
2.488818182509478
 10
32.17364297201235
 20
2.6861620254683016
 10
32.70615329693601
 20
2.8841798418138684
 10
33.23800496905687
 20
3.0821388592477863
 10
33.76900470944638
 20
3.2797244296799746
 10
34.29909580647355
 20
3.477730005446638
 10
34.82818162067409
 20
3.6759982625027336
 10
35.356134793311966
 20
3.874499305941123
 10
35.88314390706113
 20
4.073009062616681
 10
36.40911229179931
 20
4.271370335659149
 10
36.93407051350855
 20
4.4694563318045875
 10
37.4578299895149
 20
4.6674911241981105
 10
37.98032928127479
 20
4.86572957111551
 10
38.501660331997904
 20
5.063790275366626
 10
39.021823111026265
 20
5.261673364126242
 10
39.540593589501604
 20
5.459191745616969
 10
40.058226331606235
 20
5.656405845527028
 10
40.57437470731638
 20
5.853637144057517
 10
41.08906931327196
 20
6.050758720769688
 10
41.60246331662054
 20
6.2471352104211055
 10
42.1145260900642
 20
6.4428936606253115
 10
42.62494156956115
 20
6.638228758319429
 10
43.133994977249564
 20
6.833073754403372
 10
43.64140096835942
 20
7.027495906676382
 10
44.14728677899494
 20
7.2215256187447565
 10
44.6515863356739
 20
7.414878773299508
 10
45.15417224900226
 20
7.607525602608277
 10
45.65523310165397
 20
7.799242033525942
 10
46.15442217163131
 20
7.990349927777945
 10
46.65199402311666
 20
8.180909711052529
 10
47.14766331133996
 20
8.370988641148926
 10
47.64161383074669
 20
8.559824305211178
 10
48.1337182226008
 20
8.747386808332138
 10
48.624047103349355
 20
8.934499624929943
 10
49.11218773882835
 20
9.121200245071474
 10
49.59863995686708
 20
9.306531696138428
 10
50.083118382037554
 20
9.490561363104826
 10
50.56550022922654
 20
9.673798580997888
 10
51.04578543711808
 20
9.856243604167178
 10
51.52400457169422
 20
10.037769639348758
 10
52.00031086141839
 20
10.217741066950607
 10
52.474388150274926
 20
10.396352955434232
 10
52.9463991205524
 20
10.574046873328447
 10
53.41608893214688
 20
10.750763539518115
 10
53.883518808996236
 20
10.926248985950968
 10
54.34875000569633
 20
11.100249117399953
 10
54.81172108370358
 20
11.27301879214085
 10
55.27230456165009
 20
11.444528623965667
 10
55.730689052867774
 20
11.614554412554499
 10
56.186619717252704
 20
11.783036876792204
 10
56.64013187835736
 20
11.950387690300456
 10
57.090970634761945
 20
12.116547826313699
 10
57.53957934792839
 20
12.281352747151514
 10
57.98550971487651
 20
12.44442928665743
 10
58.42901642242045
 20
12.605837361820516
 10
58.870068689972506
 20
12.765704656128243
 10
59.308350361516986
 20
12.924226238042106
 10
59.74389194172002
 20
13.081275568647738
 10
60.176978744693656
 20
13.236785517320682
 10
60.6072592295538
 20
13.390539733250346
 10
61.0349219483164
 20
13.542314270466385
 10
61.45974744574599
 20
13.692461267125767
 10
61.88183233064887
 20
13.841138174448314
 10
62.30107977961302
 20
13.988188431437719
 10
62.717489670006636
 20
14.133612546793135
 10
63.13102646367151
 20
14.276999737116412
 10
63.54172551481811
 20
14.418761548854429
 10
63.9493625493245
 20
14.558711907628096
 10
64.35400351804115
 20
14.697135439445567
 10
64.75574033351974
 20
14.833650874291457
 10
65.1544761110324
 20
14.968101905519042
 10
65.5501187540796
 20
15.100870566192416
 10
65.94266817068755
 20
15.231957237835958
 10
66.33212423822441
 20
15.361362429148807
 10
66.71829337118209
 20
15.488772763788784
 10
67.10149157228642
 20
15.61399380916832
 10
67.48143803973232
 20
15.737632180195812
 10
67.85803591944972
 20
15.859531443049718
 10
68.23141247820088
 20
15.979721874161568
 10
68.60150151987169
 20
16.09791986492152
 10
68.96814487448043
 20
16.214223331084682
 10
69.33156660154334
 20
16.32881923725366
 10
69.69160371219228
 20
16.441267286647523
 10
70.04819479854167
 20
16.55182221036728
 10
70.40137042657348
 20
16.660357215148967
 10
70.75103846913035
 20
16.76725446123148
 10
71.09726015015009
 20
16.87225998056255
 10
71.43990792694898
 20
16.975344641283755
 10
71.779012365509
 20
17.07638165013116
 10
72.11467013595235
 20
17.175528203975
 10
72.44659561758746
 20
17.272852705187617
 10
72.77478865712452
 20
17.368355789642955
 10
73.09940727125544
 20
17.46194017745983
 10
73.42048214859408
 20
17.55347856667515
 10
73.7376669963541
 20
17.64329103856732
 10
74.05108635273965
 20
17.731419188124008
 10
74.36083516544004
 20
17.817469155025805
 10
74.66675413012923
 20
17.901543560494986
 10
74.96878186957954
 20
17.983897008457767
 10
75.26710702778084
 20
18.064305171419445
 10
75.56150526929525
 20
18.142582229350506
 10
75.85204260628916
 20
18.219012553909522
 10
76.1386882888328
 20
18.293723701409164
 10
76.42131480490035
 20
18.366686412816247
 10
76.69998337842972
 20
18.43764672007849
 10
76.9746631981752
 20
18.50673243385815
 10
77.24529288690917
 20
18.574198158081447
 10
77.51190297995568
 20
18.63991722665921
 10
77.77442731185857
 20
18.703605903806817
 10
78.03286572932808
 20
18.765264825398205
 10
78.28722298993473
 20
18.825432458319003
 10
78.53740217829265
 20
18.883952623097265
 10
78.78340326374386
 20
18.940825446907784
 10
79.02525675095451
 20
18.995924390836183
 10
79.26283515855663
 20
19.049220068674465
 10
79.49626578397046
 20
19.100742629679353
 10
79.72535986057427
 20
19.15071691004471
 10
79.95017855099007
 20
19.198889196067835
 10
80.17066047799017
 20
19.245514091674945
 10
80.38699431622238
 20
19.290367142196548
 10
80.59886378703918
 20
19.333643924793286
 10
80.80636559122077
 20
19.375501509160635
 10
81.00940287469722
 20
19.415783461477066
 10
81.2081336541604
 20
19.454392501861413
 10
81.40236885640911
 20
19.491554738255413
 10
81.59229700280136
 20
19.52704635186351
 10
81.77757308818504
 20
19.561182082623024
 10
81.95848015798343
 20
19.59390421084382
 10
82.13476416919944
 20
19.625150148866275
 10
82.3065524805692
 20
19.654949791597538
 10
82.47384503077677
 20
19.68330339338719
 10
82.63661106989234
 20
19.71033851054789
 10
82.79475380516193
 20
19.735898454908565
 10
82.94821179804198
 20
19.760238084744994
 10
83.09714315719823
 20
19.78325973865164
 10
83.24138965133311
 20
19.805061586733192
 10
83.38098190774448
 20
19.825516581376114
 10
83.5158892378186
 20
19.84475202454353
 10
83.64614220753738
 20
19.862641122971475
 10
83.77171012828707
 20
19.87931117862306
 10
83.89253165349793
 20
19.8950166682497
 10
84.00854055639789
 20
19.90947411041635
 10
84.11996108045098
 20
19.92286970667689
 10
84.22638012359766
 20
19.935242473195668
 10
84.32821069592357
 20
19.946553775332696
 10
84.42519783469295
 20
19.956744840671984
 10
84.51728019333609
 20
19.96607014596497
 10
84.60461584986086
 20
19.974432156980896
 10
84.68707729224143
 20
19.981801614686578
 10
84.76460320456601
 20
19.98843286865862
 10
84.83738229214036
 20
19.994101337052765
 10
84.90522578834286
 20
19.999031856062857
 10
84.96816428981343
 20
20.003097505250164
 10
85.02613648064033
 20
20.006552634191312
 10
85.07917301877944
 20
20.009270068097987
 10
85.12737063566888
 20
20.011406749490867
 10
85.17047439923091
 20
20.012903778779183
 10
85.20858113287747
 20
20.013917716959234
 10
85.24181825666054
 20
20.014478204588592
 10
85.26993083850232
 20
20.014526342076483
 10
85.29298498254303
 20
20.01434611955712
 10
85.31113888942235
 20
20.013839494100587
 10
85.3240761885189
 20
20.013202424391913
 10
85.33189379521853
 20
20.012591089903033
 10
85.33453030163564
 20
20.012260221734945
  0
ENDSEC
  0
SECTION
  2
OBJECTS
  0
DICTIONARY
  5
A
330
0
100
AcDbDictionary
280
0
281
1
  3
ACAD_COLOR
350
B
  3
ACAD_GROUP
350
C
  3
ACAD_LAYOUT
350
D
  3
ACAD_MATERIAL
350
E
  3
ACAD_MLEADERSTYLE
350
F
  3
ACAD_MLINESTYLE
350
10
  3
ACAD_PLOTSETTINGS
350
11
  3
ACAD_PLOTSTYLENAME
350
12
  3
ACAD_SCALELIST
350
14
  3
ACAD_TABLESTYLE
350
15
  3
ACAD_VISUALSTYLE
350
16
  3
EZDXF_META
350
2D
  0
DICTIONARY
  5
B
330
A
100
AcDbDictionary
280
0
281
1
  0
DICTIONARY
  5
C
330
A
100
AcDbDictionary
280
0
281
1
  0
DICTIONARY
  5
D
330
A
100
AcDbDictionary
280
0
281
1
  3
Model
350
1A
  3
Layout1
350
1E
  0
DICTIONARY
  5
E
330
A
100
AcDbDictionary
280
0
281
1
  3
ByBlock
350
1F
  3
ByLayer
350
20
  3
Global
350
21
  0
DICTIONARY
  5
F
330
A
100
AcDbDictionary
280
0
281
1
  3
Standard
350
2C
  0
DICTIONARY
  5
10
330
A
100
AcDbDictionary
280
0
281
1
  3
Standard
350
22
  0
DICTIONARY
  5
11
330
A
100
AcDbDictionary
280
0
281
1
  0
ACDBDICTIONARYWDFLT
  5
12
330
A
100
AcDbDictionary
280
0
281
1
  3
Normal
350
13
100
AcDbDictionaryWithDefault
340
13
  0
ACDBPLACEHOLDER
  5
13
330
12
  0
DICTIONARY
  5
14
330
A
100
AcDbDictionary
280
0
281
1
  0
DICTIONARY
  5
15
330
A
100
AcDbDictionary
280
0
281
1
  0
DICTIONARY
  5
16
330
A
100
AcDbDictionary
280
0
281
1
  0
LAYOUT
  5
1A
330
D
100
AcDbPlotSettings
  1

  4
A3
  6

 40
7.5
 41
20.0
 42
7.5
 43
20.0
 44
420.0
 45
297.0
 46
0.0
 47
0.0
 48
0.0
 49
0.0
140
0.0
141
0.0
142
1.0
143
1.0
 70
1024
 72
1
 73
0
 74
5
  7

 75
16
 76
0
 77
2
 78
300
147
1.0
148
0.0
149
0.0
100
AcDbLayout
  1
Model
 70
1
 71
0
 10
0.0
 20
0.0
 11
420.0
 21
297.0
 12
0.0
 22
0.0
 32
0.0
 14
1e+20
 24
1e+20
 34
1e+20
 15
-1e+20
 25
-1e+20
 35
-1e+20
146
0.0
 13
0.0
 23
0.0
 33
0.0
 16
1.0
 26
0.0
 36
0.0
 17
0.0
 27
1.0
 37
0.0
 76
1
330
17
  0
LAYOUT
  5
1E
330
D
100
AcDbPlotSettings
  1

  4
A3
  6

 40
7.5
 41
20.0
 42
7.5
 43
20.0
 44
420.0
 45
297.0
 46
0.0
 47
0.0
 48
0.0
 49
0.0
140
0.0
141
0.0
142
1.0
143
1.0
 70
0
 72
1
 73
0
 74
5
  7

 75
16
 76
0
 77
2
 78
300
147
1.0
148
0.0
149
0.0
100
AcDbLayout
  1
Layout1
 70
1
 71
1
 10
0.0
 20
0.0
 11
420.0
 21
297.0
 12
0.0
 22
0.0
 32
0.0
 14
1e+20
 24
1e+20
 34
1e+20
 15
-1e+20
 25
-1e+20
 35
-1e+20
146
0.0
 13
0.0
 23
0.0
 33
0.0
 16
1.0
 26
0.0
 36
0.0
 17
0.0
 27
1.0
 37
0.0
 76
1
330
1B
  0
MATERIAL
  5
1F
102
{ACAD_REACTORS
330
E
102
}
330
E
100
AcDbMaterial
  1
ByBlock
  2

 70
0
 40
1.0
 71
1
 41
1.0
 91
-1023410177
 42
1.0
 72
1
  3

 73
1
 74
1
 75
1
 44
0.5
 73
0
 45
1.0
 46
1.0
 77
1
  4

 78
1
 79
1
170
1
 48
1.0
171
1
  6

172
1
173
1
174
1
140
1.0
141
1.0
175
1
  7

176
1
177
1
178
1
143
1.0
179
1
  8

270
1
271
1
272
1
145
1.0
146
1.0
273
1
  9

274
1
275
1
276
1
 42
1.0
 72
1
  3

 73
1
 74
1
 75
1
 94
63
  0
MATERIAL
  5
20
102
{ACAD_REACTORS
330
E
102
}
330
E
100
AcDbMaterial
  1
ByLayer
  2

 70
0
 40
1.0
 71
1
 41
1.0
 91
-1023410177
 42
1.0
 72
1
  3

 73
1
 74
1
 75
1
 44
0.5
 73
0
 45
1.0
 46
1.0
 77
1
  4

 78
1
 79
1
170
1
 48
1.0
171
1
  6

172
1
173
1
174
1
140
1.0
141
1.0
175
1
  7

176
1
177
1
178
1
143
1.0
179
1
  8

270
1
271
1
272
1
145
1.0
146
1.0
273
1
  9

274
1
275
1
276
1
 42
1.0
 72
1
  3

 73
1
 74
1
 75
1
 94
63
  0
MATERIAL
  5
21
102
{ACAD_REACTORS
330
E
102
}
330
E
100
AcDbMaterial
  1
Global
  2

 70
0
 40
1.0
 71
1
 41
1.0
 91
-1023410177
 42
1.0
 72
1
  3

 73
1
 74
1
 75
1
 44
0.5
 73
0
 45
1.0
 46
1.0
 77
1
  4

 78
1
 79
1
170
1
 48
1.0
171
1
  6

172
1
173
1
174
1
140
1.0
141
1.0
175
1
  7

176
1
177
1
178
1
143
1.0
179
1
  8

270
1
271
1
272
1
145
1.0
146
1.0
273
1
  9

274
1
275
1
276
1
 42
1.0
 72
1
  3

 73
1
 74
1
 75
1
 94
63
  0
MLINESTYLE
  5
22
102
{ACAD_REACTORS
330
10
102
}
330
10
100
AcDbMlineStyle
  2
Standard
 70
0
  3

 62
256
 51
90.0
 52
90.0
 71
2
 49
0.5
 62
256
  6
BYLAYER
 49
-0.5
 62
256
  6
BYLAYER
  0
MLEADERSTYLE
  5
2C
102
{ACAD_REACTORS
330
F
102
}
330
F
100
AcDbMLeaderStyle
179
2
170
2
171
1
172
0
 90
2
 40
0.0
 41
0.0
173
1
 91
-1056964608
 92
-2
290
1
 42
2.0
291
1
 43
8.0
  3
Standard
 44
4.0
300

342
29
174
1
175
1
176
0
178
1
 93
-1056964608
 45
4.0
292
0
297
0
 46
4.0
 94
-1056964608
 47
1.0
 49
1.0
140
1.0
294
1
141
0.0
177
0
142
1.0
295
0
296
0
143
3.75
271
0
272
9
273
9
  0
DICTIONARY
  5
2D
330
A
100
AcDbDictionary
280
1
281
1
  3
CREATED_BY_EZDXF
350
2E
  3
WRITTEN_BY_EZDXF
350
32
  0
DICTIONARYVAR
  5
2E
330
2D
100
DictionaryVariables
280
0
  1
1.3.5 @ 2025-08-20T01:28:29.407648+00:00
  0
DICTIONARYVAR
  5
32
330
2D
100
DictionaryVariables
280
0
  1
1.3.5 @ 2025-08-20T01:28:29.423270+00:00
  0
ENDSEC
  0
EOF
