  0
SECTION
  2
HEADER
  9
$ACADVER
  1
AC1032
  9
$ACADMAINTVER
 90
4
  9
$DWGCODEPAGE
  3
ANSI_1252
  9
$LASTSAVEDBY
  1
ezdxf
  9
$REQUIREDVERSIONS
160
0
  9
$INSBASE
 10
0.0
 20
0.0
 30
0.0
  9
$EXTMIN
 10
1e+20
 20
1e+20
 30
1e+20
  9
$EXTMAX
 10
-1e+20
 20
-1e+20
 30
-1e+20
  9
$LIMMIN
 10
0.0
 20
0.0
  9
$LIMMAX
 10
420.0
 20
297.0
  9
$ORTHOMODE
 70
0
  9
$REGENMODE
 70
1
  9
$FILLMODE
 70
1
  9
$QTEXTMODE
 70
0
  9
$MIRRTEXT
 70
1
  9
$LTSCALE
 40
1.0
  9
$ATTMODE
 70
1
  9
$TEXTSIZE
 40
2.5
  9
$TRACEWID
 40
1.0
  9
$TEXTSTYLE
  7
Standard
  9
$CLAYER
  8
0
  9
$CELTYPE
  6
ByLayer
  9
$CECOLOR
 62
256
  9
$CELTSCALE
 40
1.0
  9
$DISPSILH
 70
0
  9
$DIMSCALE
 40
1.0
  9
$DIMASZ
 40
2.5
  9
$DIMEXO
 40
0.625
  9
$DIMDLI
 40
3.75
  9
$DIMRND
 40
0.0
  9
$DIMDLE
 40
0.0
  9
$DIMEXE
 40
1.25
  9
$DIMTP
 40
0.0
  9
$DIMTM
 40
0.0
  9
$DIMTXT
 40
2.5
  9
$DIMCEN
 40
2.5
  9
$DIMTSZ
 40
0.0
  9
$DIMTOL
 70
0
  9
$DIMLIM
 70
0
  9
$DIMTIH
 70
0
  9
$DIMTOH
 70
0
  9
$DIMSE1
 70
0
  9
$DIMSE2
 70
0
  9
$DIMTAD
 70
1
  9
$DIMZIN
 70
8
  9
$DIMBLK
  1

  9
$DIMASO
 70
1
  9
$DIMSHO
 70
1
  9
$DIMPOST
  1

  9
$DIMAPOST
  1

  9
$DIMALT
 70
0
  9
$DIMALTD
 70
3
  9
$DIMALTF
 40
0.03937007874
  9
$DIMLFAC
 40
1.0
  9
$DIMTOFL
 70
1
  9
$DIMTVP
 40
0.0
  9
$DIMTIX
 70
0
  9
$DIMSOXD
 70
0
  9
$DIMSAH
 70
0
  9
$DIMBLK1
  1

  9
$DIMBLK2
  1

  9
$DIMSTYLE
  2
ISO-25
  9
$DIMCLRD
 70
0
  9
$DIMCLRE
 70
0
  9
$DIMCLRT
 70
0
  9
$DIMTFAC
 40
1.0
  9
$DIMGAP
 40
0.625
  9
$DIMJUST
 70
0
  9
$DIMSD1
 70
0
  9
$DIMSD2
 70
0
  9
$DIMTOLJ
 70
0
  9
$DIMTZIN
 70
8
  9
$DIMALTZ
 70
0
  9
$DIMALTTZ
 70
0
  9
$DIMUPT
 70
0
  9
$DIMDEC
 70
2
  9
$DIMTDEC
 70
2
  9
$DIMALTU
 70
2
  9
$DIMALTTD
 70
3
  9
$DIMTXSTY
  7
Standard
  9
$DIMAUNIT
 70
0
  9
$DIMADEC
 70
0
  9
$DIMALTRND
 40
0.0
  9
$DIMAZIN
 70
0
  9
$DIMDSEP
 70
44
  9
$DIMATFIT
 70
3
  9
$DIMFRAC
 70
0
  9
$DIMLDRBLK
  1

  9
$DIMLUNIT
 70
2
  9
$DIMLWD
 70
-2
  9
$DIMLWE
 70
-2
  9
$DIMTMOVE
 70
0
  9
$DIMFXL
 40
1.0
  9
$DIMFXLON
 70
0
  9
$DIMJOGANG
 40
0.785398163397
  9
$DIMTFILL
 70
0
  9
$DIMTFILLCLR
 70
0
  9
$DIMARCSYM
 70
0
  9
$DIMLTYPE
  6

  9
$DIMLTEX1
  6

  9
$DIMLTEX2
  6

  9
$DIMTXTDIRECTION
 70
0
  9
$LUNITS
 70
2
  9
$LUPREC
 70
4
  9
$SKETCHINC
 40
1.0
  9
$FILLETRAD
 40
10.0
  9
$AUNITS
 70
0
  9
$AUPREC
 70
2
  9
$MENU
  1
.
  9
$ELEVATION
 40
0.0
  9
$PELEVATION
 40
0.0
  9
$THICKNESS
 40
0.0
  9
$LIMCHECK
 70
0
  9
$CHAMFERA
 40
0.0
  9
$CHAMFERB
 40
0.0
  9
$CHAMFERC
 40
0.0
  9
$CHAMFERD
 40
0.0
  9
$SKPOLY
 70
0
  9
$TDCREATE
 40
2460908.103125
  9
$TDUCREATE
 40
2458532.153996898
  9
$TDUPDATE
 40
2460908.103125
  9
$TDUUPDATE
 40
2458532.1544311
  9
$TDINDWG
 40
0.0
  9
$TDUSRTIMER
 40
0.0
  9
$USRTIMER
 70
1
  9
$ANGBASE
 50
0.0
  9
$ANGDIR
 70
0
  9
$PDMODE
 70
0
  9
$PDSIZE
 40
0.0
  9
$PLINEWID
 40
0.0
  9
$SPLFRAME
 70
0
  9
$SPLINETYPE
 70
6
  9
$SPLINESEGS
 70
8
  9
$HANDSEED
  5
33
  9
$SURFTAB1
 70
6
  9
$SURFTAB2
 70
6
  9
$SURFTYPE
 70
6
  9
$SURFU
 70
6
  9
$SURFV
 70
6
  9
$UCSBASE
  2

  9
$UCSNAME
  2

  9
$UCSORG
 10
0.0
 20
0.0
 30
0.0
  9
$UCSXDIR
 10
1.0
 20
0.0
 30
0.0
  9
$UCSYDIR
 10
0.0
 20
1.0
 30
0.0
  9
$UCSORTHOREF
  2

  9
$UCSORTHOVIEW
 70
0
  9
$UCSORGTOP
 10
0.0
 20
0.0
 30
0.0
  9
$UCSORGBOTTOM
 10
0.0
 20
0.0
 30
0.0
  9
$UCSORGLEFT
 10
0.0
 20
0.0
 30
0.0
  9
$UCSORGRIGHT
 10
0.0
 20
0.0
 30
0.0
  9
$UCSORGFRONT
 10
0.0
 20
0.0
 30
0.0
  9
$UCSORGBACK
 10
0.0
 20
0.0
 30
0.0
  9
$PUCSBASE
  2

  9
$PUCSNAME
  2

  9
$PUCSORG
 10
0.0
 20
0.0
 30
0.0
  9
$PUCSXDIR
 10
1.0
 20
0.0
 30
0.0
  9
$PUCSYDIR
 10
0.0
 20
1.0
 30
0.0
  9
$PUCSORTHOREF
  2

  9
$PUCSORTHOVIEW
 70
0
  9
$PUCSORGTOP
 10
0.0
 20
0.0
 30
0.0
  9
$PUCSORGBOTTOM
 10
0.0
 20
0.0
 30
0.0
  9
$PUCSORGLEFT
 10
0.0
 20
0.0
 30
0.0
  9
$PUCSORGRIGHT
 10
0.0
 20
0.0
 30
0.0
  9
$PUCSORGFRONT
 10
0.0
 20
0.0
 30
0.0
  9
$PUCSORGBACK
 10
0.0
 20
0.0
 30
0.0
  9
$USERI1
 70
0
  9
$USERI2
 70
0
  9
$USERI3
 70
0
  9
$USERI4
 70
0
  9
$USERI5
 70
0
  9
$USERR1
 40
0.0
  9
$USERR2
 40
0.0
  9
$USERR3
 40
0.0
  9
$USERR4
 40
0.0
  9
$USERR5
 40
0.0
  9
$WORLDVIEW
 70
1
  9
$SHADEDGE
 70
3
  9
$SHADEDIF
 70
70
  9
$TILEMODE
 70
1
  9
$MAXACTVP
 70
64
  9
$PINSBASE
 10
0.0
 20
0.0
 30
0.0
  9
$PLIMCHECK
 70
0
  9
$PEXTMIN
 10
1e+20
 20
1e+20
 30
1e+20
  9
$PEXTMAX
 10
-1e+20
 20
-1e+20
 30
-1e+20
  9
$PLIMMIN
 10
0.0
 20
0.0
  9
$PLIMMAX
 10
420.0
 20
297.0
  9
$UNITMODE
 70
0
  9
$VISRETAIN
 70
1
  9
$PLINEGEN
 70
0
  9
$PSLTSCALE
 70
1
  9
$TREEDEPTH
 70
3020
  9
$CMLSTYLE
  2
Standard
  9
$CMLJUST
 70
0
  9
$CMLSCALE
 40
20.0
  9
$PROXYGRAPHICS
 70
1
  9
$MEASUREMENT
 70
1
  9
$CELWEIGHT
370
-1
  9
$ENDCAPS
280
0
  9
$JOINSTYLE
280
0
  9
$LWDISPLAY
290
0
  9
$INSUNITS
 70
6
  9
$HYPERLINKBASE
  1

  9
$STYLESHEET
  1

  9
$XEDIT
290
1
  9
$CEPSNTYPE
380
0
  9
$PSTYLEMODE
290
1
  9
$FINGERPRINTGUID
  2
{15957989-1AEE-4959-88F6-04BCDF9E18C8}
  9
$VERSIONGUID
  2
{4B9FAD75-3F06-401A-8F7D-E4B1F100DD76}
  9
$EXTNAMES
290
1
  9
$PSVPSCALE
 40
0.0
  9
$OLESTARTUP
290
0
  9
$SORTENTS
280
127
  9
$INDEXCTL
280
0
  9
$HIDETEXT
280
1
  9
$XCLIPFRAME
280
1
  9
$HALOGAP
280
0
  9
$OBSCOLOR
 70
257
  9
$OBSLTYPE
280
0
  9
$INTERSECTIONDISPLAY
280
0
  9
$INTERSECTIONCOLOR
 70
257
  9
$DIMASSOC
280
2
  9
$PROJECTNAME
  1

  9
$CAMERADISPLAY
290
0
  9
$LENSLENGTH
 40
50.0
  9
$CAMERAHEIGHT
 40
0.0
  9
$STEPSPERSEC
 40
24.0
  9
$STEPSIZE
 40
100.0
  9
$3DDWFPREC
 40
2.0
  9
$PSOLWIDTH
 40
0.005
  9
$PSOLHEIGHT
 40
0.08
  9
$LOFTANG1
 40
1.570796326795
  9
$LOFTANG2
 40
1.570796326795
  9
$LOFTMAG1
 40
0.0
  9
$LOFTMAG2
 40
0.0
  9
$LOFTPARAM
 70
7
  9
$LOFTNORMALS
280
1
  9
$LATITUDE
 40
37.795
  9
$LONGITUDE
 40
-122.394
  9
$NORTHDIRECTION
 40
0.0
  9
$TIMEZONE
 70
-8000
  9
$LIGHTGLYPHDISPLAY
280
1
  9
$TILEMODELIGHTSYNCH
280
1
  9
$CMATERIAL
347
20
  9
$SOLIDHIST
280
0
  9
$SHOWHIST
280
1
  9
$DWFFRAME
280
2
  9
$DGNFRAME
280
2
  9
$REALWORLDSCALE
290
1
  9
$INTERFERECOLOR
 62
256
  9
$CSHADOW
280
0
  9
$SHADOWPLANELOCATION
 40
0.0
  0
ENDSEC
  0
SECTION
  2
CLASSES
  0
CLASS
  1
ACDBDICTIONARYWDFLT
  2
AcDbDictionaryWithDefault
  3
ObjectDBX Classes
 90
0
 91
0
280
0
281
0
  0
CLASS
  1
SUN
  2
AcDbSun
  3
SCENEOE
 90
1153
 91
0
280
0
281
0
  0
CLASS
  1
VISUALSTYLE
  2
AcDbVisualStyle
  3
ObjectDBX Classes
 90
4095
 91
0
280
0
281
0
  0
CLASS
  1
MATERIAL
  2
AcDbMaterial
  3
ObjectDBX Classes
 90
1153
 91
0
280
0
281
0
  0
CLASS
  1
SCALE
  2
AcDbScale
  3
ObjectDBX Classes
 90
1153
 91
0
280
0
281
0
  0
CLASS
  1
TABLESTYLE
  2
AcDbTableStyle
  3
ObjectDBX Classes
 90
4095
 91
0
280
0
281
0
  0
CLASS
  1
MLEADERSTYLE
  2
AcDbMLeaderStyle
  3
ACDB_MLEADERSTYLE_CLASS
 90
4095
 91
0
280
0
281
0
  0
CLASS
  1
DICTIONARYVAR
  2
AcDbDictionaryVar
  3
ObjectDBX Classes
 90
0
 91
0
280
0
281
0
  0
CLASS
  1
CELLSTYLEMAP
  2
AcDbCellStyleMap
  3
ObjectDBX Classes
 90
1152
 91
0
280
0
281
0
  0
CLASS
  1
MENTALRAYRENDERSETTINGS
  2
AcDbMentalRayRenderSettings
  3
SCENEOE
 90
1024
 91
0
280
0
281
0
  0
CLASS
  1
ACDBDETAILVIEWSTYLE
  2
AcDbDetailViewStyle
  3
ObjectDBX Classes
 90
1025
 91
0
280
0
281
0
  0
CLASS
  1
ACDBSECTIONVIEWSTYLE
  2
AcDbSectionViewStyle
  3
ObjectDBX Classes
 90
1025
 91
0
280
0
281
0
  0
CLASS
  1
RASTERVARIABLES
  2
AcDbRasterVariables
  3
ISM
 90
0
 91
0
280
0
281
0
  0
CLASS
  1
LAYOUT
  2
AcDbLayout
  3
ObjectDBX Classes
 90
0
 91
0
280
0
281
0
  0
CLASS
  1
ACDBPLACEHOLDER
  2
AcDbPlaceHolder
  3
ObjectDBX Classes
 90
0
 91
0
280
0
281
0
  0
ENDSEC
  0
SECTION
  2
TABLES
  0
TABLE
  2
VPORT
  5
8
330
0
100
AcDbSymbolTable
 70
1
  0
VPORT
  5
23
330
8
100
AcDbSymbolTableRecord
100
AcDbViewportTableRecord
  2
*Active
 70
0
 10
0.0
 20
0.0
 11
1.0
 21
1.0
 12
0.0
 22
0.0
 13
0.0
 23
0.0
 14
0.5
 24
0.5
 15
0.5
 25
0.5
 16
0.0
 26
0.0
 36
1.0
 17
0.0
 27
0.0
 37
0.0
 40
1000.0
 41
1.34
 42
50.0
 43
0.0
 44
0.0
 50
0.0
 51
0.0
 71
0
 72
1000
 73
1
 74
3
 75
0
 76
0
 77
0
 78
0
281
0
 65
0
146
0.0
  0
ENDTAB
  0
TABLE
  2
LTYPE
  5
2
330
0
100
AcDbSymbolTable
 70
3
  0
LTYPE
  5
24
330
2
100
AcDbSymbolTableRecord
100
AcDbLinetypeTableRecord
  2
ByBlock
 70
0
  3

 72
65
 73
0
 40
0.0
  0
LTYPE
  5
25
330
2
100
AcDbSymbolTableRecord
100
AcDbLinetypeTableRecord
  2
ByLayer
 70
0
  3

 72
65
 73
0
 40
0.0
  0
LTYPE
  5
26
330
2
100
AcDbSymbolTableRecord
100
AcDbLinetypeTableRecord
  2
Continuous
 70
0
  3

 72
65
 73
0
 40
0.0
  0
ENDTAB
  0
TABLE
  2
LAYER
  5
1
330
0
100
AcDbSymbolTable
 70
2
  0
LAYER
  5
27
330
1
100
AcDbSymbolTableRecord
100
AcDbLayerTableRecord
  2
0
 70
0
 62
7
  6
Continuous
370
-3
390
13
347
21
  0
LAYER
  5
28
330
1
100
AcDbSymbolTableRecord
100
AcDbLayerTableRecord
  2
Defpoints
 70
0
 62
7
  6
Continuous
290
0
370
-3
390
13
347
21
  0
ENDTAB
  0
TABLE
  2
STYLE
  5
5
330
0
100
AcDbSymbolTable
 70
1
  0
STYLE
  5
29
330
5
100
AcDbSymbolTableRecord
100
AcDbTextStyleTableRecord
  2
Standard
 70
0
 40
0.0
 41
1.0
 50
0.0
 71
0
 42
2.5
  3
txt
  4

  0
ENDTAB
  0
TABLE
  2
VIEW
  5
7
330
0
100
AcDbSymbolTable
 70
0
  0
ENDTAB
  0
TABLE
  2
UCS
  5
6
330
0
100
AcDbSymbolTable
 70
0
  0
ENDTAB
  0
TABLE
  2
APPID
  5
3
330
0
100
AcDbSymbolTable
 70
3
  0
APPID
  5
2A
330
3
100
AcDbSymbolTableRecord
100
AcDbRegAppTableRecord
  2
ACAD
 70
0
  0
APPID
  5
30
330
3
100
AcDbSymbolTableRecord
100
AcDbRegAppTableRecord
  2
HATCHBACKGROUNDCOLOR
 70
0
  0
APPID
  5
31
330
3
100
AcDbSymbolTableRecord
100
AcDbRegAppTableRecord
  2
EZDXF
 70
0
  0
ENDTAB
  0
TABLE
  2
DIMSTYLE
  5
4
330
0
100
AcDbSymbolTable
 70
1
100
AcDbDimStyleTable
  0
DIMSTYLE
105
2B
330
4
100
AcDbSymbolTableRecord
100
AcDbDimStyleTableRecord
  2
Standard
 70
0
 40
1.0
 41
2.5
 42
0.625
 43
3.75
 44
1.25
 45
0.0
 46
0.0
 47
0.0
 48
0.0
 49
2.5
140
2.5
141
2.5
142
0.0
143
0.03937007874
144
1.0
145
0.0
146
1.0
147
0.625
148
0.0
 69
0
 70
0
 71
0
 72
0
 73
0
 74
0
 75
0
 76
0
 77
1
 78
8
 79
3
170
0
171
3
172
1
173
0
174
0
175
0
176
0
177
0
178
0
179
2
271
2
272
2
273
2
274
3
275
0
276
0
277
2
278
44
279
0
280
0
281
0
282
0
283
0
284
8
285
0
286
0
288
0
289
3
290
0
371
-2
372
-2
  0
ENDTAB
  0
TABLE
  2
BLOCK_RECORD
  5
9
330
0
100
AcDbSymbolTable
 70
2
  0
BLOCK_RECORD
  5
17
330
9
100
AcDbSymbolTableRecord
100
AcDbBlockTableRecord
  2
*Model_Space
340
1A
 70
0
280
1
281
0
  0
BLOCK_RECORD
  5
1B
330
9
100
AcDbSymbolTableRecord
100
AcDbBlockTableRecord
  2
*Paper_Space
340
1E
 70
0
280
1
281
0
  0
ENDTAB
  0
ENDSEC
  0
SECTION
  2
BLOCKS
  0
BLOCK
  5
18
330
17
100
AcDbEntity
  8
0
100
AcDbBlockBegin
  2
*Model_Space
 70
0
 10
0.0
 20
0.0
 30
0.0
  3
*Model_Space
  1

  0
ENDBLK
  5
19
330
17
100
AcDbEntity
  8
0
100
AcDbBlockEnd
  0
BLOCK
  5
1C
330
1B
100
AcDbEntity
  8
0
100
AcDbBlockBegin
  2
*Paper_Space
 70
0
 10
0.0
 20
0.0
 30
0.0
  3
*Paper_Space
  1

  0
ENDBLK
  5
1D
330
1B
100
AcDbEntity
  8
0
100
AcDbBlockEnd
  0
ENDSEC
  0
SECTION
  2
ENTITIES
  0
LWPOLYLINE
  5
2F
330
17
100
AcDbEntity
  8
0
100
AcDbPolyline
 90
721
 70
1
 10
33.31601690648
 20
0.7505722649567946
 10
33.3150654882357
 20
0.7508929810197544
 10
33.31221316514422
 20
0.7517555729247227
 10
33.30746379373422
 20
0.7529612762027702
 10
33.30076572842367
 20
0.7546079363557866
 10
33.29222129841541
 20
0.756549441608295
 10
33.28177982201837
 20
0.7588339587770558
 10
33.26939254339367
 20
0.7614103967653991
 10
33.25515890103611
 20
0.7642816301248209
 10
33.23903013910684
 20
0.7673965677586512
 10
33.22095460912923
 20
0.7708532043540194
 10
33.20103367930974
 20
0.7745549576353378
 10
33.17921762798882
 20
0.7785005146478915
 10
33.15550549031064
 20
0.7827396038052231
 10
33.12989919598686
 20
0.787172768280248
 10
33.10239681337612
 20
0.7918995643568777
 10
33.07304902706407
 20
0.7968716760331117
 10
33.04180611539117
 20
0.8020877903542353
 10
33.0086671135016
 20
0.8075976357337908
 10
32.97368366890712
 20
0.8133032672130623
 10
32.936804131201406
 20
0.8193027789360066
 10
32.898030429131225
 20
0.8254967638039523
 10
32.857460070514925
 20
0.8319876029238941
 10
32.81494486101879
 20
0.8387213306476654
 10
32.77063395693778
 20
0.8457023333951313
 10
32.72442791881221
 20
0.8529277863432088
 10
32.676376463477375
 20
0.8603992510886798
 10
32.626479589968376
 20
0.868116777359958
 10
32.574736332464575
 20
0.8761301432989992
 10
32.52114668807139
 20
0.8844394980910442
 10
32.465712585535606
 20
0.8929454346374219
 10
32.40843209418073
 20
0.9017474594936301
 10
32.349355894733
 20
0.9107974555713226
 10
32.28843330260674
 20
0.9201437388724999
 10
32.22566624365419
 20
0.9296870514837317
 10
32.16110250789354
 20
0.939528262643644
 10
32.094741127574395
 20
0.9497172499510196
 10
32.02658499533451
 20
0.960104927622059
 10
31.956582458837847
 20
0.970789489257546
 10
31.884833921435035
 20
0.9817240809954343
 10
31.811238975916012
 20
0.9929557556114244
 10
31.735897059810746
 20
1.004487437385426
 10
31.658758450494837
 20
1.0163178630911383
 10
31.579872865768397
 20
1.0284485445969298
 10
31.499191547862853
 20
1.0408284902629579
 10
31.416764214578333
 20
1.0534592119575903
 10
31.33253921357878
 20
1.066438903281611
 10
31.24661694724999
 20
1.079720760101388
 10
31.158947692967555
 20
1.0933035191906204
 10
31.069531448801758
 20
1.107187280006135
 10
30.978368209928327
 20
1.1213722911900004
 10
30.88550673122128
 20
1.1359096935672992
 10
30.790898252982313
 20
1.1507485949550158
 10
30.694591529120586
 20
1.1659401859066474
 10
30.596587519667665
 20
1.1814349866507197
 10
30.49688815337031
 20
1.1971335900885616
 10
30.395541216387297
 20
1.2131370643724528
 10
30.292495057347455
 20
1.2295435533747645
 10
30.187749671426477
 20
1.2463533057375633
 10
30.081357671956827
 20
1.2634185983601782
 10
29.973318090223263
 20
1.280789358569805
 10
29.863630924296057
 20
1.2984656858232715
 10
29.752293274783487
 20
1.3165970140032712
 10
29.63930996307008
 20
1.3349348502273346
 10
29.524728777244317
 20
1.3535801631909137
 10
29.40854874955582
 20
1.372582830492792
 10
29.290719191559504
 20
1.3919913670486246
 10
29.171340504676294
 20
1.411759018453192
 10
29.05036393017276
 20
1.4318348427950658
 10
28.927789466119176
 20
1.452218939531072
 10
28.803664898674334
 20
1.4730123768134913
 10
28.67799408340207
 20
1.4940164399018085
 10
28.550725368931204
 20
1.515329272668394
 10
28.421957226006185
 20
1.537003627263527
 10
28.29168965173242
 20
1.5590396528724486
 10
28.15987485319717
 20
1.5813366294417723
 10
28.026511860720316
 20
1.6039445340271095
 10
27.891700111831828
 20
1.626866290908369
 10
27.755387953230798
 20
1.6502001434147486
 10
27.617578276590145
 20
1.673797055490862
 10
27.478320798745113
 20
1.6976585887334918
 10
27.33761551680114
 20
1.7217848923278776
 10
27.195460496222317
 20
1.7462756717431724
 10
27.051855734114067
 20
1.7711310761646164
 10
26.906802192437652
 20
1.7963015263639086
 10
26.76040027357886
 20
1.8217402182074163
 10
26.612549567433042
 20
1.8474943536560793
 10
26.463299791800328
 20
1.8735654445782675
 10
26.312703559048327
 20
1.8998058176017218
 10
26.16071017880222
 20
1.9262640870989245
 10
26.007366474294695
 20
1.953090950178871
 10
25.852722163325865
 20
1.98028791870993
 10
25.696679729393708
 20
2.0077530591408284
 10
25.53934150652535
 20
2.0353400110540223
 10
25.380703631438113
 20
2.0632478870173356
 10
25.22076706609323
 20
2.0914271078024655
 10
25.05953084177547
 20
2.11992760073661
 10
24.89704660503173
 20
2.148651470589465
 10
24.733314353932315
 20
2.177598816817859
 10
24.568284362958227
 20
2.2067685253807303
 10
24.40205510574849
 20
2.2362131992431182
 10
24.234576858713837
 20
2.2659316249071364
 10
24.065901269366048
 20
2.295825857414068
 10
23.89602833384567
 20
2.3258960956775674
 10
23.725007770917706
 20
2.3561438018375886
 10
23.552788890207363
 20
2.386617590266616
 10
23.379419480767975
 20
2.417418379931686
 10
23.204852710683184
 20
2.4483959212795283
 10
23.02923677911096
 20
2.4796039313162392
 10
22.852476098296062
 20
2.510841069391877
 10
22.67456969855838
 20
2.54215731256205
 10
22.495614126719847
 20
2.573704571433642
 10
22.315608414065238
 20
2.6055327733338487
 10
22.134456008948327
 20
2.637490256297856
 10
21.95235772578925
 20
2.669482914774263
 10
21.769165360605747
 20
2.7014572803990387
 10
21.584975458290035
 20
2.733565363235893
 10
21.399737329432185
 20
2.7658557279288942
 10
21.21355138027741
 20
2.7982813714307566
 10
21.026370780839038
 20
2.8306919447313788
 10
20.838243320170417
 20
2.8631883667978006
 10
20.649167064700492
 20
2.8958702933707605
 10
20.459146836778643
 20
2.928489181839374
 10
20.268183598366136
 20
2.960995452975341
 10
20.076371966573237
 20
2.9936404742126266
 10
19.883613459077264
 20
3.026372090141915
 10
19.690006552411774
 20
3.0592427545430043
 10
19.495557033781985
 20
3.091954196391468
 10
19.300263935437492
 20
3.124556293286088
 10
19.10412532573697
 20
3.1571486015107766
 10
18.90713830528865
 20
3.189880554948229
 10
18.709406178764652
 20
3.222555766396878
 10
18.510833355515153
 20
3.2549730443920177
 10
18.31156610884591
 20
3.28728536385318
 10
18.11150016440474
 20
3.319739089037542
 10
17.910689104239317
 20
3.352136569517236
 10
17.709136782948647
 20
3.384279140280158
 10
17.506940717034766
 20
3.416268734877583
 10
17.304000491568747
 20
3.448152803912519
 10
17.100414585978754
 20
3.479983651979522
 10
16.896134239601597
 20
3.511710436623992
 10
16.691211103808506
 20
3.5432350139735567
 10
16.485694900258995
 20
3.574558696982931
 10
16.27953590246926
 20
3.6056804213394686
 10
16.072833556652956
 20
3.6366026637673574
 10
15.86548841273699
 20
3.6673231464560634
 10
15.657597985293707
 20
3.697943902413687
 10
15.449163240143747
 20
3.7284151534982706
 10
15.240188997706806
 20
3.758488456555759
 10
15.030673326341523
 20
3.7882633678700626
 10
14.82071470837061
 20
3.817792042850498
 10
14.610212728865156
 20
3.847121932100075
 10
14.399268763750461
 20
3.8761560555158963
 10
14.187883776917502
 20
3.904844734412833
 10
13.976058732257233
 20
3.9331382901057546
 10
13.763791696198599
 20
3.961136378335404
 10
13.551131429404748
 20
3.98888984155638
 10
13.338077928981109
 20
4.016398828953925
 10
13.124683813084415
 20
4.0435153687852985
 10
12.910900321051509
 20
4.070188618595898
 10
12.696778140362612
 20
4.096370113198484
 10
12.482364101004388
 20
4.122210201603154
 10
12.267605581925546
 20
4.147857004737891
 10
12.052603961945966
 20
4.1732133933145565
 10
11.837317234393222
 20
4.197880425983752
 10
11.62173960723784
 20
4.222156622411971
 10
11.405969567626801
 20
4.246093889366464
 10
11.189959316858204
 20
4.269591805164327
 10
10.973709820752719
 20
4.2926005916636045
 10
10.757317632886275
 20
4.315271811372281
 10
10.54073399452542
 20
4.337554522378931
 10
10.32401152286203
 20
4.359300802669228
 10
10.107100492377127
 20
4.380509538202108
 10
9.890099390217694
 20
4.401232635744824
 10
9.673007249598202
 20
4.421519923167746
 10
9.455826966050969
 20
4.44122216550183
 10
9.238557572790457
 20
4.460389190617446
 10
9.021247831444683
 20
4.479071791240785
 10
8.803845121927209
 20
4.497418038571414
 10
8.586454684410906
 20
4.515131790210197
 10
8.36907651889577
 20
4.532213046157135
 10
8.151709661490838
 20
4.548711485097358
 10
7.934353145410581
 20
4.564676934901234
 10
7.717057663924362
 20
4.58006063201104
 10
7.499772525692523
 20
4.594911240527673
 10
7.282598147573703
 20
4.609181210391297
 10
7.065536460244382
 20
4.622771035046414
 10
6.848586498848751
 20
4.635730442906566
 10
6.631747299495839
 20
4.64810911265688
 10
6.415019827041474
 20
4.659857315883818
 10
6.19850546609466
 20
4.6708776249287585
 10
5.982152559495073
 20
4.681268482034553
 10
5.766008905944617
 20
4.691130308884106
 10
5.550029603238563
 20
4.70021339909706
 10
5.334312175597782
 20
4.708619288397378
 10
5.118853731349388
 20
4.716497012840447
 10
4.903607436647299
 20
4.723696422329822
 10
4.6886746780302335
 20
4.730119989750056
 10
4.474053526751411
 20
4.73586712219982
 10
4.259696185073782
 20
4.740837348267797
 10
4.045700180112796
 20
4.745132054492711
 10
3.8320177150962587
 20
4.748650719734829
 10
3.6187472810305747
 20
4.751445051847747
 10
3.4057865303806345
 20
4.7536621074467975
 10
3.193236849685153
 20
4.755204359416538
 10
2.981102098367413
 20
4.755872894102796
 10
2.769381314466162
 20
4.755717290733876
 10
2.558121330862625
 20
4.754887749134635
 10
2.3473231162720496
 20
4.75333434197788
 10
2.1369876365151037
 20
4.751007291121652
 10
1.9271646209701938
 20
4.747907511693359
 10
1.7178024124769888
 20
4.744133445935851
 10
1.5089488135968177
 20
4.73978531661838
 10
1.3006574121664982
 20
4.734665174942595
 10
1.0929301398273885
 20
4.728673464624584
 10
0.8857650697624063
 20
4.721909493306191
 10
0.679211054296018
 20
4.714419379242733
 10
0.47321852132131925
 20
4.706194101575395
 10
0.2678362372906052
 20
4.6972842043883
 10
0.06311296576158953
 20
4.687740380950809
 10
-0.14099716225598274
 20
4.677362752752933
 10
-0.34444441834857153
 20
4.666152284650493
 10
-0.5471838983817342
 20
4.654358583567017
 10
-0.7492634010573719
 20
4.641881227819605
 10
-0.9505825046925811
 20
4.62867241870635
 10
-1.1512406661144494
 20
4.614730226515615
 10
-1.3511384284958872
 20
4.6000565809590395
 10
-1.5502279931349956
 20
4.584751903719526
 10
-1.7486097817146744
 20
4.568863993498978
 10
-1.946229241542289
 20
4.5521451730855045
 10
-2.142992704925668
 20
4.534895742671997
 10
-2.3389518299899916
 20
4.517214194229723
 10
-2.5341505560138904
 20
4.498801192421607
 10
-2.7284396977567313
 20
4.4796596318151085
 10
-2.9218718781995205
 20
4.459937732795034
 10
-3.1144480621980772
 20
4.439685223774927
 10
-3.3061663200407545
 20
4.418802647927703
 10
-3.4969281597562962
 20
4.397341663378541
 10
-3.6868330381717844
 20
4.375300340415804
 10
-3.8757843930275913
 20
4.352829793991758
 10
-4.06378029461208
 20
4.32983056727932
 10
-4.250819778069429
 20
4.306252931864943
 10
-4.436903808255461
 20
4.282146616162174
 10
-4.621984586468269
 20
4.257612041853914
 10
-4.806111841121396
 20
4.232648244084345
 10
-4.989184185676121
 20
4.2071576957380215
 10
-5.171201620132442
 20
4.181140396814944
 10
-5.352212908048081
 20
4.154545654045749
 10
-5.532169285865319
 20
4.127424160699798
 10
-5.711073648151609
 20
4.09992510201772
 10
-5.888877231349231
 20
4.072099171268877
 10
-6.0655761760349085
 20
4.043747454799097
 10
-6.24122021062218
 20
4.014868987752564
 10
-6.415659185014604
 20
3.9854169362831917
 10
-6.5889954506067205
 20
3.9555385559199685
 10
-6.761229972254348
 20
3.9252835750764388
 10
-6.932263293130404
 20
3.8946539234642383
 10
-7.10209444837907
 20
3.8635998726698264
 10
-7.270770271846425
 20
3.8319712725967556
 10
-7.43824489454221
 20
3.7999680017550177
 10
-7.604521211033883
 20
3.7677392453852363
 10
-7.7695446686288
 20
3.735037326275521
 10
-7.933364995740506
 20
3.701861279570051
 10
-8.095884665253555
 20
3.6683124918075523
 10
-8.257153405581493
 20
3.634389998132203
 10
-8.417172181580133
 20
3.6001435269575466
 10
-8.575888370268478
 20
3.565424857898776
 10
-8.733303901358168
 20
3.5303334477829744
 10
-8.889418774849199
 20
3.4948692966101436
 10
-9.044236850164852
 20
3.4592313180344507
 10
-9.197657705622223
 20
3.423371713353995
 10
-9.349777903480936
 20
3.3871393676165087
 10
-9.500545785615811
 20
3.3504357888507275
 10
-9.649915483036585
 20
3.3134608555666403
 10
-9.797938653868437
 20
3.2763130597355112
 10
-9.944561710274549
 20
3.238794452558991
 10
-10.089736853553019
 20
3.2010054557199847
 10
-10.233564505386743
 20
3.162993867920395
 10
-10.375945208948647
 20
3.1247616188718603
 10
-10.516876069671262
 20
3.0861595233337535
 10
-10.656359982122057
 20
3.0473367665467035
 10
-10.794397911156844
 20
3.0083430769242505
 10
-10.930988891919808
 20
2.9691287260528534
 10
-11.066083195997402
 20
2.9296946787883322
 10
-11.19967985853381
 20
2.889991206717142
 10
-11.331829572798394
 20
2.850067073397009
 10
-11.462432881964068
 20
2.8099242085395697
 10
-11.591491715742471
 20
2.76966206897191
 10
-11.719103601249053
 20
2.729179268155306
 10
-11.845119353243177
 20
2.6884787006572157
 10
-11.969587735282575
 20
2.647509673208278
 10
-12.092512606790521
 20
2.6064710994626625
 10
-12.213893967767016
 20
2.5653629794203674
 10
-12.333680160086878
 20
2.5240868211101297
 10
-12.451870218894292
 20
2.4825928961184065
 10
-12.568512907746973
 20
2.440830511175835
 10
-12.68351359409694
 20
2.399050238061766
 10
-12.796921041501912
 20
2.35720138350684
 10
-12.908733320250255
 20
2.315184490683969
 10
-13.01890070192842
 20
2.273000524448974
 10
-13.127425116248052
 20
2.23074894162894
 10
-13.234304633497505
 20
2.1883302853967823
 10
-13.339540218532605
 20
2.1457942841660436
 10
-13.443132836209172
 20
2.1031906663502644
 10
-13.54503082840202
 20
2.0604209399781817
 10
-13.64523708967861
 20
2.017634290290421
 10
-13.743797489029205
 20
1.9746308387769946
 10
-13.84066615746354
 20
1.9316104639478906
 10
-13.9358421301258
 20
1.888523437389567
 10
-14.029324442160162
 20
1.845320030688481
 10
-14.121063365153084
 20
1.8020012087004524
 10
-14.211109592373928
 20
1.7586157349832046
 10
-14.299416289976609
 20
1.7153137596331836
 10
-14.385981528249495
 20
1.6719958258233043
 10
-14.470805307192576
 20
1.628661933553567
 10
-14.553938320075217
 20
1.5853608463816953
 10
-14.635280145214516
 20
1.542044765605785
 10
-14.714882440735655
 20
1.4988121831971013
 10
-14.792697407936728
 20
1.4557635208385487
 10
-14.868774775231278
 20
1.4128978136743076
 10
-14.943062884494127
 20
1.3701165697331126
 10
-15.015612428994631
 20
1.3274685525726868
 10
-15.086323951905712
 20
1.2849556919046694
 10
-15.155298839766088
 20
1.2426755148445054
 10
-15.222438600604494
 20
1.2006796795173769
 10
-15.287791033122838
 20
1.158867764240379
 10
-15.351356137321117
 20
1.1172397690135123
 10
-15.41313391319933
 20
1.0757956938367765
 10
-15.473076562055574
 20
1.0346359603930761
 10
-15.531184083889851
 20
0.9937605686824106
 10
-15.587503312548245
 20
0.953019368608334
 10
-15.641987414184673
 20
0.9125625102672922
 10
-15.694632529375848
 20
0.8721910800051164
 10
-15.745442517545062
 20
0.8321039914759759
 10
-15.79441351926903
 20
0.7921023310257012
 10
-15.841547464259385
 20
0.7522855554813771
 10
-15.886844352516135
 20
0.7126536648430034
 10
-15.93025349076992
 20
0.6731578955528577
 10
-15.971876265559455
 20
0.6338957747263848
 10
-16.01156059707666
 20
0.5947210116904174
 10
-16.0494576002738
 20
0.5557301687045806
 10
-16.085466853467974
 20
0.5168754470669719
 10
-16.119591251226637
 20
0.4783060320182177
 10
-16.15187859225169
 20
0.4399215018754142
 10
-16.182280112985417
 20
0.40177254990792294
 10
-16.210799672851092
 20
0.3640580897699133
 10
-16.237484105694797
 20
0.32662797136493893
 10
-16.26228561281463
 20
0.289582616375904
 10
-16.285206123922237
 20
0.25302148162989274
 10
-16.306249498440884
 20
0.21714348078107507
 10
-16.32541573637058
 20
0.18194861382945052
 10
-16.3427564958365
 20
0.14753537274628423
 10
-16.358177144290664
 20
0.114154329310927
 10
-16.371731269569892
 20
0.08200343232172858
 10
-16.383478248645915
 20
0.051579001058292405
 10
-16.39332537868239
 20
0.02323106412705391
 10
-16.401337825785973
 20
-0.0022456887111293625
 10
-16.407580756063318
 20
-0.024056567695399985
 10
-16.411977869227005
 20
-0.04100616118910314
 10
-16.414603015086076
 20
-0.051852223709500614
 10
-16.409381461400596
 20
-0.3696848469190182
 10
-16.408387413896495
 20
-0.3722026637491048
 10
-16.405406236240008
 20
-0.3797063858258222
 10
-16.40044178785442
 20
-0.39199709949500133
 10
-16.39342793777725
 20
-0.40991922293104177
 10
-16.384443880863376
 20
-0.43451898252997134
 10
-16.37349006120187
 20
-0.46320953593177017
 10
-16.3605466609096
 20
-0.4944483374608067
 10
-16.345725679939296
 20
-0.52759084745267
 10
-16.32899765184963
 20
-0.561591804367152
 10
-16.310321531929443
 20
-0.5960026876265521
 10
-16.289801601284914
 20
-0.6305767848747977
 10
-16.26739199092577
 20
-0.6651142176019005
 10
-16.2430965602753
 20
-0.6994160721536907
 10
-16.216917239045138
 20
-0.733382891703084
 10
-16.18885402723529
 20
-0.7670146762500801
 10
-16.158957618115107
 20
-0.8002626622369565
 10
-16.127180212982694
 20
-0.833026427980809
 10
-16.09352084698223
 20
-0.8653557018951797
 10
-16.058030213383077
 20
-0.897201720422346
 10
-16.020656654060055
 20
-0.928662975533573
 10
-15.981401133868978
 20
-0.9596897388153182
 10
-15.940365039348574
 20
-0.9901844831521365
 10
-15.897396290690757
 20
-1.0202934992171957
 10
-15.852645037991973
 20
-1.0499699531644122
 10
-15.806010859569314
 20
-1.0792616436956897
 10
-15.757544448692151
 20
-1.108119807253305
 10
-15.707246770216294
 20
-1.1364947154237155
 10
-15.65511492957429
 20
-1.1645355534475488
 10
-15.60115085647778
 20
-1.1921428644977201
 10
-15.545350691503481
 20
-1.2195155622283986
 10
-15.48771732921885
 20
-1.246504461398957
 10
-15.428298568325797
 20
-1.2732099836922999
 10
-15.367044680410775
 20
-1.2996311642526077
 10
-15.303953735762146
 20
-1.325867459906965
 10
-15.239076427649271
 20
-1.3518701070976489
 10
-15.172411791216332
 20
-1.377688834238202
 10
-15.103959826463328
 20
-1.403323641328624
 10
-15.033667910409257
 20
-1.4289227487537224
 10
-14.961636464737026
 20
-1.4544383578115943
 10
-14.887766997475367
 20
-1.4798188103770578
 10
-14.812158965451367
 20
-1.5050660361617523
 10
-14.734760710539845
 20
-1.5302785271369428
 10
-14.65562196115434
 20
-1.5554572481584483
 10
-14.574693953737132
 20
-1.5805515059569077
 10
-14.492028346413402
 20
-1.6054628085610563
 10
-14.407574445913788
 20
-1.630239919528616
 10
-14.321430744209554
 20
-1.6549344969847681
 10
-14.233547512887155
 20
-1.6795455760736933
 10
-14.143924751946601
 20
-1.7040731567953922
 10
-14.05256535595534
 20
-1.7283680539092374
 10
-13.95951905332692
 20
-1.752431232271048
 10
-13.864736115647798
 20
-1.7762617270250054
 10
-13.768264341619872
 20
-1.7999599598540128
 10
-13.67010373124315
 20
-1.823525930758071
 10
-13.570258143940908
 20
-1.8467607260830101
 10
-13.468775378415044
 20
-1.8697647675117346
 10
-13.365606671107841
 20
-1.8924873617748827
 10
-13.260751057163477
 20
-1.9149782372859967
 10
-13.154258264995494
 20
-1.937238358900896
 10
-13.046129259459715
 20
-1.9592179982060383
 10
-12.936363075700315
 20
-1.9809668836149665
 10
-12.824959713717297
 20
-2.0024850151276796
 10
-12.711920138366482
 20
-2.0237226643306356
 10
-12.59729311320559
 20
-2.044730524493197
 10
-12.481078638234623
 20
-2.0655085956153627
 10
-12.363227949895856
 20
-2.0860061844277715
 10
-12.243838575304734
 20
-2.1063246774691478
 10
-12.122861750903539
 20
-2.1264133814701287
 10
-12.00029651183645
 20
-2.146322024844257
 10
-11.876193551372824
 20
-2.1660018440338096
 10
-11.750555764080127
 20
-2.1853036537981603
 10
-11.623380255390893
 20
-2.2043766393779345
 10
-11.494615367179943
 20
-2.223319292744399
 10
-11.364411249543727
 20
-2.2420847800514694
 10
-11.232670375366796
 20
-2.260571714760421
 10
-11.099393709504971
 20
-2.2787303684577136
 10
-10.964678779073697
 20
-2.2966621276820693
 10
-10.828474890803614
 20
-2.3144157559912117
 10
-10.690783974406356
 20
-2.3318917965580557
 10
-10.55165575829547
 20
-2.349091214238421
 10
-10.411091207326775
 20
-2.365964280618765
 10
-10.26908742693281
 20
-2.382660180939715
 10
-10.125646346825217
 20
-2.399079458374187
 10
-9.980766037292355
 20
-2.4153215697492643
 10
-9.834548849728765
 20
-2.4312392595359595
 10
-9.68689436245155
 20
-2.446880326436176
 10
-9.537852303874244
 20
-2.462245735305734
 10
-9.387471437554577
 20
-2.477386179413994
 10
-9.235703964790641
 20
-2.492201237078053
 10
-9.082597684284343
 20
-2.5067913299808144
 10
-8.928203289305038
 20
-2.521107694564556
 10
-8.772423252737287
 20
-2.5350489442905535
 10
-8.615357031408175
 20
-2.5486170088704467
 10
-8.457001730750237
 20
-2.561961073544862
 10
-8.29735735076348
 20
-2.5750811383137995
 10
-8.136423891447901
 20
-2.58797720317726
 10
-7.974253975784497
 20
-2.6005010477504342
 10
-7.810849533484915
 20
-2.612553215206239
 10
-7.646156976712331
 20
-2.6243316543430244
 10
-7.480275762293828
 20
-2.635838294872429
 10
-7.3131580915275025
 20
-2.646972715111547
 10
-7.144855622538539
 20
-2.657636423089116
 10
-6.975365460759478
 20
-2.6679786040457616
 10
-6.804735404892219
 20
-2.6780996796643874
 10
-6.632917656234864
 20
-2.687899228262091
 10
-6.45991510935487
 20
-2.6972280645982436
 10
-6.28582529136768
 20
-2.7061875752115707
 10
-6.110647237417478
 20
-2.714827488515613
 10
-5.934281490677177
 20
-2.723145874798732
 10
-5.756878201243224
 20
-2.731095900214844
 10
-5.578389570413716
 20
-2.738577143081045
 10
-5.398815598188653
 20
-2.745589603397335
 10
-5.218205048125758
 20
-2.752183974433076
 10
-5.0365530959459335
 20
-2.758608898255979
 10
-4.85391236463018
 20
-2.7647161544812375
 10
-4.6702369851882315
 20
-2.770305864598862
 10
-4.4855259927642726
 20
-2.775427757022395
 10
-4.299878844185385
 20
-2.7800837614634752
 10
-4.113241951614748
 20
-2.784471826720453
 10
-3.9256669731775458
 20
-2.7884934608220626
 10
-3.7371539088737746
 20
-2.792148663768305
 10
-3.547704688415077
 20
-2.7953379787320944
 10
-3.35731834694563
 20
-2.7981111341269744
 10
-3.1660924115808817
 20
-2.8005695164916675
 10
-2.973929355205389
 20
-2.802611739287451
 10
-2.780930564357867
 20
-2.8041402753988782
 10
-2.587095074182504
 20
-2.8052048532394926
 10
-2.3924219198234797
 20
-2.805855201222836
 10
-2.1968623377230667
 20
-2.806040626079546
 10
-2.0005674428335376
 20
-2.8056645655499977
 10
-1.8034884715971637
 20
-2.8046763263648287
 10
-1.6055699064654867
 20
-2.803373314149473
 10
-1.4069121691214148
 20
-2.801707730202028
 10
-1.2075707771134023
 20
-2.7993821688970595
 10
-1.00744337904691
 20
-2.7965438857635543
 10
-0.8065787384796568
 20
-2.7932435740708748
 10
-0.605078241950371
 20
-2.789383706703576
 10
-0.4028433974877847
 20
-2.7849126255364762
 10
-0.199973661918982
 20
-2.7798322602812138
 10
0.0035845525928556482
 20
-2.77434055973614
 10
0.2077795879225489
 20
-2.7683390319299876
 10
0.4125568913774597
 20
-2.7615799996508668
 10
0.6179690859385799
 20
-2.7542116832835837
 10
0.8239703026156547
 20
-2.746433961338127
 10
1.0305079213222454
 20
-2.7380987626149302
 10
1.2376308619227225
 20
-2.7291634498476265
 10
1.4452914144819102
 20
-2.719733019733164
 10
1.6534857224711075
 20
-2.709608707802615
 10
1.8622137878200193
 20
-2.698790613512807
 10
2.0714297415383847
 20
-2.6874786153737276
 10
2.2810848239279005
 20
-2.6757236055683946
 10
2.4912277995111523
 20
-2.663474940555858
 10
2.7018060462719853
 20
-2.6505844496797244
 10
2.912821494886902
 20
-2.637151639495493
 10
3.1242741492153216
 20
-2.6231767089168163
 10
3.336114279878849
 20
-2.6086605730711017
 10
3.5483389952045923
 20
-2.5934541959029622
 10
3.7609502249041866
 20
-2.5776570342394827
 10
3.9738523715738343
 20
-2.5614699314464713
 10
4.187143931044212
 20
-2.5448414283124006
 10
4.40072255095593
 20
-2.52762421957987
 10
4.614638926508059
 20
-2.509867168263429
 10
4.828793600873512
 20
-2.4915722040747164
 10
5.043237268286509
 20
-2.4727881402998686
 10
5.257968964856085
 20
-2.453465298253757
 10
5.472890198610977
 20
-2.433655336061563
 10
5.68805262767637
 20
-2.4134567456945515
 10
5.903455290091
 20
-2.392819947924421
 10
6.118997761277407
 20
-2.3716969948640276
 10
6.334730736434659
 20
-2.3501367495279206
 10
6.550606416860853
 20
-2.3282396335990057
 10
6.766670672511106
 20
-2.305805818295706
 10
6.982825974340271
 20
-2.2829365906999186
 10
7.199074252059976
 20
-2.2597314076387294
 10
7.415414541779265
 20
-2.2361405904270075
 10
7.631844913786491
 20
-2.21206468223767
 10
7.848367298758163
 20
-2.1876031896262136
 10
8.06488416475454
 20
-2.1628572504892967
 10
8.281443312407246
 20
-2.1377265426008396
 10
8.497997907870195
 20
-2.1123612160572898
 10
8.714545054646218
 20
-2.086611986161193
 10
8.931083788844347
 20
-2.060429174227421
 10
9.147616040176228
 20
-2.0339122370830585
 10
9.364045240593093
 20
-2.00721199130989
 10
9.580421121403058
 20
-1.9803276212373364
 10
9.796691057695405
 20
-1.9531108070237635
 10
10.012856012396247
 20
-1.925611177625886
 10
10.228915986470438
 20
-1.8978287827721185
 10
10.444871942844085
 20
-1.869813251419175
 10
10.660623455010004
 20
-1.8415165362230854
 10
10.87622121913213
 20
-1.8129875499268127
 10
11.091616465863595
 20
-1.7842766874292377
 10
11.306860858153868
 20
-1.7554826893436934
 10
11.521851071068877
 20
-1.7264081241719276
 10
11.736588070429303
 20
-1.6971027700558954
 10
11.951126408927784
 20
-1.66781430420749
 10
12.165360835778046
 20
-1.6382460372150283
 10
12.379290383229689
 20
-1.6083480914797275
 10
12.59297057172575
 20
-1.5784180218122628
 10
12.806303866431929
 20
-1.548556816924049
 10
13.01933420855657
 20
-1.5184652409348403
 10
13.232012830682521
 20
-1.4881937882003438
 10
13.44428999860711
 20
-1.4577431252058988
 10
13.65621737335009
 20
-1.42721189310801
 10
13.867746186529443
 20
-1.3966505365339719
 10
14.078877400106432
 20
-1.3661086347120863
 10
14.28955935306131
 20
-1.3354875464858478
 10
14.49979011182301
 20
-1.3046876161145164
 10
14.70957256999414
 20
-1.2738579791103068
 10
14.918906726609839
 20
-1.2429985857448052
 10
15.127694079085428
 20
-1.2121605471306436
 10
15.336034091001988
 20
-1.181342281655078
 10
15.543824401316408
 20
-1.150396036504985
 10
15.751065972954805
 20
-1.1193714406370803
 10
15.95776362633684
 20
-1.0885169372054206
 10
16.16391639757157
 20
-1.0577828475248772
 10
16.369422887577134
 20
-1.0270709980106292
 10
16.574383524790424
 20
-0.996429535463474
 10
16.778697876915132
 20
-0.9658101141689596
 10
16.982415674294494
 20
-0.9352118687280936
 10
17.185489111472638
 20
-0.9047348727248853
 10
17.38786845328201
 20
-0.8743797429162596
 10
17.589605360742382
 20
-0.8442451204587221
 10
17.79059746991606
 20
-0.8141831033539088
 10
17.99094424438414
 20
-0.7841921099890753
 10
18.190545251850295
 20
-0.7542237946497701
 10
18.389406276625156
 20
-0.7245762791751785
 10
18.58747758450606
 20
-0.6952502300506395
 10
18.78485284993916
 20
-0.6659456951821544
 10
18.981381905460598
 20
-0.6366149456121962
 10
19.17717193349802
 20
-0.6076542270363586
 10
19.37212250079023
 20
-0.5790151440117765
 10
19.566229743089696
 20
-0.5504985342422125
 10
19.759493658466685
 20
-0.5221042982708396
 10
19.951915208882465
 20
-0.49388201532595943
 10
20.143499216686408
 20
-0.46608022801845683
 10
20.334144279902112
 20
-0.4386006135782691
 10
20.523946970437745
 20
-0.41129255433726597
 10
20.712807816028544
 20
-0.38415718435246976
 10
20.900728743491573
 20
-0.35729381126572435
 10
21.08771168060877
 20
-0.3308017924472874
 10
21.27375469380905
 20
-0.30458147215642023
 10
21.458808045030334
 20
-0.27863331796480695
 10
21.642923396257217
 20
-0.25305602075736655
 10
21.826001275224925
 20
-0.22785071459112172
 10
22.00808851963896
 20
-0.20286744828328002
 10
22.189085655304837
 20
-0.17810725643403677
 10
22.369143813577363
 20
-0.15366754668604835
 10
22.548065981568342
 20
-0.1296501434372711
 10
22.72595162671828
 20
-0.10605366398861484
 10
22.90279978031192
 20
-0.08282818101288336
 10
23.078509040372843
 20
-0.05987537174001443
 10
23.2530803669326
 20
-0.037244715941482424
 10
23.42661419132265
 20
-0.01498450960332602
 10
23.598962271931363
 20
0.0068537183185516945
 10
23.770176268813625
 20
0.028171376396058347
 10
23.940203549339873
 20
0.049117182298137
 10
24.10909287996241
 20
0.0697416801089089
 10
24.276795487474928
 20
0.08999467384314729
 10
24.443311368018044
 20
0.10987636241450686
 10
24.608593677132234
 20
0.12923714273908968
 10
24.77268925348787
 20
0.14822691627127474
 10
24.93549958678141
 20
0.16679496972573754
 10
25.097072478609352
 20
0.1850415756001422
 10
25.257410821609408
 20
0.2028176481106883
 10
25.41646584064562
 20
0.22007309072897707
 10
25.574234637291088
 20
0.23695728760928908
 10
25.73071720865126
 20
0.25347038793686544
 10
25.88591355086669
 20
0.26961259062535986
 10
26.03972611945454
 20
0.28528340424749266
 10
26.192256311566943
 20
0.3003847546752692
 10
26.343449563897856
 20
0.31516486613313066
 10
26.493257102276125
 20
0.3295735923642638
 10
26.641728658009878
 20
0.34361174903924796
 10
26.78881642178379
 20
0.3571794614877278
 10
26.934469689715073
 20
0.3703260402799746
 10
27.078786965353277
 20
0.3831025468002078
 10
27.221671667141663
 20
0.39535886066443215
 10
27.363121862474006
 20
0.40719458788497254
 10
27.503138513311583
 20
0.41856014923352775
 10
27.641718720262634
 20
0.4296049785927922
 10
27.778864410144234
 20
0.44022976832092164
 10
27.91452584296459
 20
0.45043415030305956
 10
28.048703980684937
 20
0.46016854531090395
 10
28.18144759168727
 20
0.46948339797174893
 10
28.31265623499158
 20
0.4784275015557686
 10
28.442329905773597
 20
0.48700110470503083
 10
28.570519303091796
 20
0.4951551454913314
 10
28.697225392766875
 20
0.5028398457727146
 10
28.822345824369133
 20
0.5102024113497547
 10
28.945930243334505
 20
0.5172480837218356
 10
29.06798163782148
 20
0.5238228539922173
 10
29.1884492682476
 20
0.529977872682472
 10
29.30733120297154
 20
0.5358126960765118
 10
29.42467910494273
 20
0.5412285835610039
 10
29.540394461927953
 20
0.5461749213074512
 10
29.65452507745339
 20
0.5507518823566903
 10
29.76706998376864
 20
0.5550093443075036
 10
29.877979441846758
 20
0.5589468893166212
 10
29.987255378504823
 20
0.5624652097421987
 10
30.094896824062715
 20
0.5656142826398461
 10
30.200901846879106
 20
0.5684936642934755
 10
30.305271407950386
 20
0.5710538252031985
 10
30.407957698926076
 20
0.5731948409702462
 10
30.508960714981917
 20
0.5749169602366865
 10
30.608326331862155
 20
0.5764197134136132
 10
30.706005773465936
 20
0.5776530537010408
 10
30.801999038828427
 20
0.5786170308273829
 10
30.89630708798115
 20
0.5792621650211643
 10
30.988880182862
 20
0.5795879887107015
 10
31.07976805574395
 20
0.5795952678381595
 10
31.168919039818125
 20
0.5793829419305255
 10
31.25633505997187
 20
0.5788518028027825
 10
31.342014184563844
 20
0.5781014067388421
 10
31.42600807750836
 20
0.5770329633969582
 10
31.50821533296958
 20
0.575744994460847
 10
31.588684720294356
 20
0.5742878948293891
 10
31.667367465311568
 20
0.5726115182457717
 10
31.74431426707968
 20
0.5706668027817905
 10
31.819473449141274
 20
0.5685531852485683
 10
31.89289667058639
 20
0.5661721239464264
 10
31.96448162150928
 20
0.5636687360825701
 10
32.03432866184206
 20
0.560998405573563
 10
32.10233834440623
 20
0.5581587054236304
 10
32.168560403404456
 20
0.5551503021181111
 10
32.23299483690702
 20
0.5519732951138318
 10
32.29564067716353
 20
0.5486775620095754
 10
32.35644915193259
 20
0.5452128570917021
 10
32.4154183276431
 20
0.5416788361009505
 10
32.47259890624815
 20
0.5380262879238762
 10
32.52794018193525
 20
0.5343046225875777
 10
32.58144311859535
 20
0.5304641614069265
 10
32.633106750407784
 20
0.5265546825238785
 10
32.68293203933382
 20
0.522526606710132
 10
32.730918019552746
 20
0.5184297121076424
 10
32.7770627603881
 20
0.5143635052719084
 10
32.82131845155969
 20
0.5102281612609881
 10
32.863783602406194
 20
0.506074443088619
 10
32.904308033885485
 20
0.5019506764532916
 10
32.94304192214512
 20
0.4978086848417561
 10
32.979885791060894
 20
0.49364753311064435
 10
33.01483770995634
 20
0.48956672781545446
 10
33.047948379819616
 20
0.48551710757115535
 10
33.07916806162381
 20
0.48149825453447676
 10
33.10849482565725
 20
0.4776096255325028
 10
33.135980336799136
 20
0.4737523804950739
 10
33.16157292824057
 20
0.470025458949177
 10
33.18527356290767
 20
0.46637923193809694
 10
33.20708031108878
 20
0.46291315628891816
 10
33.22699413763972
 20
0.4595775035880984
 10
33.24506381287222
 20
0.4564226190061048
 10
33.261189861626924
 20
0.4534475176711556
 10
33.27542105711013
 20
0.4507023955684771
 10
33.287807135454194
 20
0.4481878197265806
 10
33.298248621499795
 20
0.44590280527368426
 10
33.306793321667676
 20
0.44394737606538404
 10
33.31349194080547
 20
0.44227217180299444
 10
33.318243070182774
 20
0.4409758633554728
 10
33.32109548590042
 20
0.4401084975228044
 10
33.322047255352224
 20
0.43976968031731517
  0
ENDSEC
  0
SECTION
  2
OBJECTS
  0
DICTIONARY
  5
A
330
0
100
AcDbDictionary
280
0
281
1
  3
ACAD_COLOR
350
B
  3
ACAD_GROUP
350
C
  3
ACAD_LAYOUT
350
D
  3
ACAD_MATERIAL
350
E
  3
ACAD_MLEADERSTYLE
350
F
  3
ACAD_MLINESTYLE
350
10
  3
ACAD_PLOTSETTINGS
350
11
  3
ACAD_PLOTSTYLENAME
350
12
  3
ACAD_SCALELIST
350
14
  3
ACAD_TABLESTYLE
350
15
  3
ACAD_VISUALSTYLE
350
16
  3
EZDXF_META
350
2D
  0
DICTIONARY
  5
B
330
A
100
AcDbDictionary
280
0
281
1
  0
DICTIONARY
  5
C
330
A
100
AcDbDictionary
280
0
281
1
  0
DICTIONARY
  5
D
330
A
100
AcDbDictionary
280
0
281
1
  3
Model
350
1A
  3
Layout1
350
1E
  0
DICTIONARY
  5
E
330
A
100
AcDbDictionary
280
0
281
1
  3
ByBlock
350
1F
  3
ByLayer
350
20
  3
Global
350
21
  0
DICTIONARY
  5
F
330
A
100
AcDbDictionary
280
0
281
1
  3
Standard
350
2C
  0
DICTIONARY
  5
10
330
A
100
AcDbDictionary
280
0
281
1
  3
Standard
350
22
  0
DICTIONARY
  5
11
330
A
100
AcDbDictionary
280
0
281
1
  0
ACDBDICTIONARYWDFLT
  5
12
330
A
100
AcDbDictionary
280
0
281
1
  3
Normal
350
13
100
AcDbDictionaryWithDefault
340
13
  0
ACDBPLACEHOLDER
  5
13
330
12
  0
DICTIONARY
  5
14
330
A
100
AcDbDictionary
280
0
281
1
  0
DICTIONARY
  5
15
330
A
100
AcDbDictionary
280
0
281
1
  0
DICTIONARY
  5
16
330
A
100
AcDbDictionary
280
0
281
1
  0
LAYOUT
  5
1A
330
D
100
AcDbPlotSettings
  1

  4
A3
  6

 40
7.5
 41
20.0
 42
7.5
 43
20.0
 44
420.0
 45
297.0
 46
0.0
 47
0.0
 48
0.0
 49
0.0
140
0.0
141
0.0
142
1.0
143
1.0
 70
1024
 72
1
 73
0
 74
5
  7

 75
16
 76
0
 77
2
 78
300
147
1.0
148
0.0
149
0.0
100
AcDbLayout
  1
Model
 70
1
 71
0
 10
0.0
 20
0.0
 11
420.0
 21
297.0
 12
0.0
 22
0.0
 32
0.0
 14
1e+20
 24
1e+20
 34
1e+20
 15
-1e+20
 25
-1e+20
 35
-1e+20
146
0.0
 13
0.0
 23
0.0
 33
0.0
 16
1.0
 26
0.0
 36
0.0
 17
0.0
 27
1.0
 37
0.0
 76
1
330
17
  0
LAYOUT
  5
1E
330
D
100
AcDbPlotSettings
  1

  4
A3
  6

 40
7.5
 41
20.0
 42
7.5
 43
20.0
 44
420.0
 45
297.0
 46
0.0
 47
0.0
 48
0.0
 49
0.0
140
0.0
141
0.0
142
1.0
143
1.0
 70
0
 72
1
 73
0
 74
5
  7

 75
16
 76
0
 77
2
 78
300
147
1.0
148
0.0
149
0.0
100
AcDbLayout
  1
Layout1
 70
1
 71
1
 10
0.0
 20
0.0
 11
420.0
 21
297.0
 12
0.0
 22
0.0
 32
0.0
 14
1e+20
 24
1e+20
 34
1e+20
 15
-1e+20
 25
-1e+20
 35
-1e+20
146
0.0
 13
0.0
 23
0.0
 33
0.0
 16
1.0
 26
0.0
 36
0.0
 17
0.0
 27
1.0
 37
0.0
 76
1
330
1B
  0
MATERIAL
  5
1F
102
{ACAD_REACTORS
330
E
102
}
330
E
100
AcDbMaterial
  1
ByBlock
  2

 70
0
 40
1.0
 71
1
 41
1.0
 91
-1023410177
 42
1.0
 72
1
  3

 73
1
 74
1
 75
1
 44
0.5
 73
0
 45
1.0
 46
1.0
 77
1
  4

 78
1
 79
1
170
1
 48
1.0
171
1
  6

172
1
173
1
174
1
140
1.0
141
1.0
175
1
  7

176
1
177
1
178
1
143
1.0
179
1
  8

270
1
271
1
272
1
145
1.0
146
1.0
273
1
  9

274
1
275
1
276
1
 42
1.0
 72
1
  3

 73
1
 74
1
 75
1
 94
63
  0
MATERIAL
  5
20
102
{ACAD_REACTORS
330
E
102
}
330
E
100
AcDbMaterial
  1
ByLayer
  2

 70
0
 40
1.0
 71
1
 41
1.0
 91
-1023410177
 42
1.0
 72
1
  3

 73
1
 74
1
 75
1
 44
0.5
 73
0
 45
1.0
 46
1.0
 77
1
  4

 78
1
 79
1
170
1
 48
1.0
171
1
  6

172
1
173
1
174
1
140
1.0
141
1.0
175
1
  7

176
1
177
1
178
1
143
1.0
179
1
  8

270
1
271
1
272
1
145
1.0
146
1.0
273
1
  9

274
1
275
1
276
1
 42
1.0
 72
1
  3

 73
1
 74
1
 75
1
 94
63
  0
MATERIAL
  5
21
102
{ACAD_REACTORS
330
E
102
}
330
E
100
AcDbMaterial
  1
Global
  2

 70
0
 40
1.0
 71
1
 41
1.0
 91
-1023410177
 42
1.0
 72
1
  3

 73
1
 74
1
 75
1
 44
0.5
 73
0
 45
1.0
 46
1.0
 77
1
  4

 78
1
 79
1
170
1
 48
1.0
171
1
  6

172
1
173
1
174
1
140
1.0
141
1.0
175
1
  7

176
1
177
1
178
1
143
1.0
179
1
  8

270
1
271
1
272
1
145
1.0
146
1.0
273
1
  9

274
1
275
1
276
1
 42
1.0
 72
1
  3

 73
1
 74
1
 75
1
 94
63
  0
MLINESTYLE
  5
22
102
{ACAD_REACTORS
330
10
102
}
330
10
100
AcDbMlineStyle
  2
Standard
 70
0
  3

 62
256
 51
90.0
 52
90.0
 71
2
 49
0.5
 62
256
  6
BYLAYER
 49
-0.5
 62
256
  6
BYLAYER
  0
MLEADERSTYLE
  5
2C
102
{ACAD_REACTORS
330
F
102
}
330
F
100
AcDbMLeaderStyle
179
2
170
2
171
1
172
0
 90
2
 40
0.0
 41
0.0
173
1
 91
-1056964608
 92
-2
290
1
 42
2.0
291
1
 43
8.0
  3
Standard
 44
4.0
300

342
29
174
1
175
1
176
0
178
1
 93
-1056964608
 45
4.0
292
0
297
0
 46
4.0
 94
-1056964608
 47
1.0
 49
1.0
140
1.0
294
1
141
0.0
177
0
142
1.0
295
0
296
0
143
3.75
271
0
272
9
273
9
  0
DICTIONARY
  5
2D
330
A
100
AcDbDictionary
280
1
281
1
  3
CREATED_BY_EZDXF
350
2E
  3
WRITTEN_BY_EZDXF
350
32
  0
DICTIONARYVAR
  5
2E
330
2D
100
DictionaryVariables
280
0
  1
1.3.5 @ 2025-08-20T01:28:30.534516+00:00
  0
DICTIONARYVAR
  5
32
330
2D
100
DictionaryVariables
280
0
  1
1.3.5 @ 2025-08-20T01:28:30.550136+00:00
  0
ENDSEC
  0
EOF
