  0
SECTION
  2
HEADER
  9
$ACADVER
  1
AC1032
  9
$ACADMAINTVER
 90
4
  9
$DWGCODEPAGE
  3
ANSI_1252
  9
$LASTSAVEDBY
  1
ezdxf
  9
$REQUIREDVERSIONS
160
0
  9
$INSBASE
 10
0.0
 20
0.0
 30
0.0
  9
$EXTMIN
 10
1e+20
 20
1e+20
 30
1e+20
  9
$EXTMAX
 10
-1e+20
 20
-1e+20
 30
-1e+20
  9
$LIMMIN
 10
0.0
 20
0.0
  9
$LIMMAX
 10
420.0
 20
297.0
  9
$ORTHOMODE
 70
0
  9
$REGENMODE
 70
1
  9
$FILLMODE
 70
1
  9
$QTEXTMODE
 70
0
  9
$MIRRTEXT
 70
1
  9
$LTSCALE
 40
1.0
  9
$ATTMODE
 70
1
  9
$TEXTSIZE
 40
2.5
  9
$TRACEWID
 40
1.0
  9
$TEXTSTYLE
  7
Standard
  9
$CLAYER
  8
0
  9
$CELTYPE
  6
ByLayer
  9
$CECOLOR
 62
256
  9
$CELTSCALE
 40
1.0
  9
$DISPSILH
 70
0
  9
$DIMSCALE
 40
1.0
  9
$DIMASZ
 40
2.5
  9
$DIMEXO
 40
0.625
  9
$DIMDLI
 40
3.75
  9
$DIMRND
 40
0.0
  9
$DIMDLE
 40
0.0
  9
$DIMEXE
 40
1.25
  9
$DIMTP
 40
0.0
  9
$DIMTM
 40
0.0
  9
$DIMTXT
 40
2.5
  9
$DIMCEN
 40
2.5
  9
$DIMTSZ
 40
0.0
  9
$DIMTOL
 70
0
  9
$DIMLIM
 70
0
  9
$DIMTIH
 70
0
  9
$DIMTOH
 70
0
  9
$DIMSE1
 70
0
  9
$DIMSE2
 70
0
  9
$DIMTAD
 70
1
  9
$DIMZIN
 70
8
  9
$DIMBLK
  1

  9
$DIMASO
 70
1
  9
$DIMSHO
 70
1
  9
$DIMPOST
  1

  9
$DIMAPOST
  1

  9
$DIMALT
 70
0
  9
$DIMALTD
 70
3
  9
$DIMALTF
 40
0.03937007874
  9
$DIMLFAC
 40
1.0
  9
$DIMTOFL
 70
1
  9
$DIMTVP
 40
0.0
  9
$DIMTIX
 70
0
  9
$DIMSOXD
 70
0
  9
$DIMSAH
 70
0
  9
$DIMBLK1
  1

  9
$DIMBLK2
  1

  9
$DIMSTYLE
  2
ISO-25
  9
$DIMCLRD
 70
0
  9
$DIMCLRE
 70
0
  9
$DIMCLRT
 70
0
  9
$DIMTFAC
 40
1.0
  9
$DIMGAP
 40
0.625
  9
$DIMJUST
 70
0
  9
$DIMSD1
 70
0
  9
$DIMSD2
 70
0
  9
$DIMTOLJ
 70
0
  9
$DIMTZIN
 70
8
  9
$DIMALTZ
 70
0
  9
$DIMALTTZ
 70
0
  9
$DIMUPT
 70
0
  9
$DIMDEC
 70
2
  9
$DIMTDEC
 70
2
  9
$DIMALTU
 70
2
  9
$DIMALTTD
 70
3
  9
$DIMTXSTY
  7
Standard
  9
$DIMAUNIT
 70
0
  9
$DIMADEC
 70
0
  9
$DIMALTRND
 40
0.0
  9
$DIMAZIN
 70
0
  9
$DIMDSEP
 70
44
  9
$DIMATFIT
 70
3
  9
$DIMFRAC
 70
0
  9
$DIMLDRBLK
  1

  9
$DIMLUNIT
 70
2
  9
$DIMLWD
 70
-2
  9
$DIMLWE
 70
-2
  9
$DIMTMOVE
 70
0
  9
$DIMFXL
 40
1.0
  9
$DIMFXLON
 70
0
  9
$DIMJOGANG
 40
0.785398163397
  9
$DIMTFILL
 70
0
  9
$DIMTFILLCLR
 70
0
  9
$DIMARCSYM
 70
0
  9
$DIMLTYPE
  6

  9
$DIMLTEX1
  6

  9
$DIMLTEX2
  6

  9
$DIMTXTDIRECTION
 70
0
  9
$LUNITS
 70
2
  9
$LUPREC
 70
4
  9
$SKETCHINC
 40
1.0
  9
$FILLETRAD
 40
10.0
  9
$AUNITS
 70
0
  9
$AUPREC
 70
2
  9
$MENU
  1
.
  9
$ELEVATION
 40
0.0
  9
$PELEVATION
 40
0.0
  9
$THICKNESS
 40
0.0
  9
$LIMCHECK
 70
0
  9
$CHAMFERA
 40
0.0
  9
$CHAMFERB
 40
0.0
  9
$CHAMFERC
 40
0.0
  9
$CHAMFERD
 40
0.0
  9
$SKPOLY
 70
0
  9
$TDCREATE
 40
2460911.0342939813
  9
$TDUCREATE
 40
2458532.153996898
  9
$TDUPDATE
 40
2460911.0342939813
  9
$TDUUPDATE
 40
2458532.1544311
  9
$TDINDWG
 40
0.0
  9
$TDUSRTIMER
 40
0.0
  9
$USRTIMER
 70
1
  9
$ANGBASE
 50
0.0
  9
$ANGDIR
 70
0
  9
$PDMODE
 70
0
  9
$PDSIZE
 40
0.0
  9
$PLINEWID
 40
0.0
  9
$SPLFRAME
 70
0
  9
$SPLINETYPE
 70
6
  9
$SPLINESEGS
 70
8
  9
$HANDSEED
  5
33
  9
$SURFTAB1
 70
6
  9
$SURFTAB2
 70
6
  9
$SURFTYPE
 70
6
  9
$SURFU
 70
6
  9
$SURFV
 70
6
  9
$UCSBASE
  2

  9
$UCSNAME
  2

  9
$UCSORG
 10
0.0
 20
0.0
 30
0.0
  9
$UCSXDIR
 10
1.0
 20
0.0
 30
0.0
  9
$UCSYDIR
 10
0.0
 20
1.0
 30
0.0
  9
$UCSORTHOREF
  2

  9
$UCSORTHOVIEW
 70
0
  9
$UCSORGTOP
 10
0.0
 20
0.0
 30
0.0
  9
$UCSORGBOTTOM
 10
0.0
 20
0.0
 30
0.0
  9
$UCSORGLEFT
 10
0.0
 20
0.0
 30
0.0
  9
$UCSORGRIGHT
 10
0.0
 20
0.0
 30
0.0
  9
$UCSORGFRONT
 10
0.0
 20
0.0
 30
0.0
  9
$UCSORGBACK
 10
0.0
 20
0.0
 30
0.0
  9
$PUCSBASE
  2

  9
$PUCSNAME
  2

  9
$PUCSORG
 10
0.0
 20
0.0
 30
0.0
  9
$PUCSXDIR
 10
1.0
 20
0.0
 30
0.0
  9
$PUCSYDIR
 10
0.0
 20
1.0
 30
0.0
  9
$PUCSORTHOREF
  2

  9
$PUCSORTHOVIEW
 70
0
  9
$PUCSORGTOP
 10
0.0
 20
0.0
 30
0.0
  9
$PUCSORGBOTTOM
 10
0.0
 20
0.0
 30
0.0
  9
$PUCSORGLEFT
 10
0.0
 20
0.0
 30
0.0
  9
$PUCSORGRIGHT
 10
0.0
 20
0.0
 30
0.0
  9
$PUCSORGFRONT
 10
0.0
 20
0.0
 30
0.0
  9
$PUCSORGBACK
 10
0.0
 20
0.0
 30
0.0
  9
$USERI1
 70
0
  9
$USERI2
 70
0
  9
$USERI3
 70
0
  9
$USERI4
 70
0
  9
$USERI5
 70
0
  9
$USERR1
 40
0.0
  9
$USERR2
 40
0.0
  9
$USERR3
 40
0.0
  9
$USERR4
 40
0.0
  9
$USERR5
 40
0.0
  9
$WORLDVIEW
 70
1
  9
$SHADEDGE
 70
3
  9
$SHADEDIF
 70
70
  9
$TILEMODE
 70
1
  9
$MAXACTVP
 70
64
  9
$PINSBASE
 10
0.0
 20
0.0
 30
0.0
  9
$PLIMCHECK
 70
0
  9
$PEXTMIN
 10
1e+20
 20
1e+20
 30
1e+20
  9
$PEXTMAX
 10
-1e+20
 20
-1e+20
 30
-1e+20
  9
$PLIMMIN
 10
0.0
 20
0.0
  9
$PLIMMAX
 10
420.0
 20
297.0
  9
$UNITMODE
 70
0
  9
$VISRETAIN
 70
1
  9
$PLINEGEN
 70
0
  9
$PSLTSCALE
 70
1
  9
$TREEDEPTH
 70
3020
  9
$CMLSTYLE
  2
Standard
  9
$CMLJUST
 70
0
  9
$CMLSCALE
 40
20.0
  9
$PROXYGRAPHICS
 70
1
  9
$MEASUREMENT
 70
1
  9
$CELWEIGHT
370
-1
  9
$ENDCAPS
280
0
  9
$JOINSTYLE
280
0
  9
$LWDISPLAY
290
0
  9
$INSUNITS
 70
6
  9
$HYPERLINKBASE
  1

  9
$STYLESHEET
  1

  9
$XEDIT
290
1
  9
$CEPSNTYPE
380
0
  9
$PSTYLEMODE
290
1
  9
$FINGERPRINTGUID
  2
{A9567C5D-FAA9-4105-9259-C44194D98571}
  9
$VERSIONGUID
  2
{FF8CCB7F-13ED-4582-B084-A13FA71878A7}
  9
$EXTNAMES
290
1
  9
$PSVPSCALE
 40
0.0
  9
$OLESTARTUP
290
0
  9
$SORTENTS
280
127
  9
$INDEXCTL
280
0
  9
$HIDETEXT
280
1
  9
$XCLIPFRAME
280
1
  9
$HALOGAP
280
0
  9
$OBSCOLOR
 70
257
  9
$OBSLTYPE
280
0
  9
$INTERSECTIONDISPLAY
280
0
  9
$INTERSECTIONCOLOR
 70
257
  9
$DIMASSOC
280
2
  9
$PROJECTNAME
  1

  9
$CAMERADISPLAY
290
0
  9
$LENSLENGTH
 40
50.0
  9
$CAMERAHEIGHT
 40
0.0
  9
$STEPSPERSEC
 40
24.0
  9
$STEPSIZE
 40
100.0
  9
$3DDWFPREC
 40
2.0
  9
$PSOLWIDTH
 40
0.005
  9
$PSOLHEIGHT
 40
0.08
  9
$LOFTANG1
 40
1.570796326795
  9
$LOFTANG2
 40
1.570796326795
  9
$LOFTMAG1
 40
0.0
  9
$LOFTMAG2
 40
0.0
  9
$LOFTPARAM
 70
7
  9
$LOFTNORMALS
280
1
  9
$LATITUDE
 40
37.795
  9
$LONGITUDE
 40
-122.394
  9
$NORTHDIRECTION
 40
0.0
  9
$TIMEZONE
 70
-8000
  9
$LIGHTGLYPHDISPLAY
280
1
  9
$TILEMODELIGHTSYNCH
280
1
  9
$CMATERIAL
347
20
  9
$SOLIDHIST
280
0
  9
$SHOWHIST
280
1
  9
$DWFFRAME
280
2
  9
$DGNFRAME
280
2
  9
$REALWORLDSCALE
290
1
  9
$INTERFERECOLOR
 62
256
  9
$CSHADOW
280
0
  9
$SHADOWPLANELOCATION
 40
0.0
  0
ENDSEC
  0
SECTION
  2
CLASSES
  0
CLASS
  1
ACDBDICTIONARYWDFLT
  2
AcDbDictionaryWithDefault
  3
ObjectDBX Classes
 90
0
 91
0
280
0
281
0
  0
CLASS
  1
SUN
  2
AcDbSun
  3
SCENEOE
 90
1153
 91
0
280
0
281
0
  0
CLASS
  1
VISUALSTYLE
  2
AcDbVisualStyle
  3
ObjectDBX Classes
 90
4095
 91
0
280
0
281
0
  0
CLASS
  1
MATERIAL
  2
AcDbMaterial
  3
ObjectDBX Classes
 90
1153
 91
0
280
0
281
0
  0
CLASS
  1
SCALE
  2
AcDbScale
  3
ObjectDBX Classes
 90
1153
 91
0
280
0
281
0
  0
CLASS
  1
TABLESTYLE
  2
AcDbTableStyle
  3
ObjectDBX Classes
 90
4095
 91
0
280
0
281
0
  0
CLASS
  1
MLEADERSTYLE
  2
AcDbMLeaderStyle
  3
ACDB_MLEADERSTYLE_CLASS
 90
4095
 91
0
280
0
281
0
  0
CLASS
  1
DICTIONARYVAR
  2
AcDbDictionaryVar
  3
ObjectDBX Classes
 90
0
 91
0
280
0
281
0
  0
CLASS
  1
CELLSTYLEMAP
  2
AcDbCellStyleMap
  3
ObjectDBX Classes
 90
1152
 91
0
280
0
281
0
  0
CLASS
  1
MENTALRAYRENDERSETTINGS
  2
AcDbMentalRayRenderSettings
  3
SCENEOE
 90
1024
 91
0
280
0
281
0
  0
CLASS
  1
ACDBDETAILVIEWSTYLE
  2
AcDbDetailViewStyle
  3
ObjectDBX Classes
 90
1025
 91
0
280
0
281
0
  0
CLASS
  1
ACDBSECTIONVIEWSTYLE
  2
AcDbSectionViewStyle
  3
ObjectDBX Classes
 90
1025
 91
0
280
0
281
0
  0
CLASS
  1
RASTERVARIABLES
  2
AcDbRasterVariables
  3
ISM
 90
0
 91
0
280
0
281
0
  0
CLASS
  1
ACDBPLACEHOLDER
  2
AcDbPlaceHolder
  3
ObjectDBX Classes
 90
0
 91
0
280
0
281
0
  0
CLASS
  1
LAYOUT
  2
AcDbLayout
  3
ObjectDBX Classes
 90
0
 91
0
280
0
281
0
  0
ENDSEC
  0
SECTION
  2
TABLES
  0
TABLE
  2
VPORT
  5
8
330
0
100
AcDbSymbolTable
 70
1
  0
VPORT
  5
23
330
8
100
AcDbSymbolTableRecord
100
AcDbViewportTableRecord
  2
*Active
 70
0
 10
0.0
 20
0.0
 11
1.0
 21
1.0
 12
0.0
 22
0.0
 13
0.0
 23
0.0
 14
0.5
 24
0.5
 15
0.5
 25
0.5
 16
0.0
 26
0.0
 36
1.0
 17
0.0
 27
0.0
 37
0.0
 40
1000.0
 41
1.34
 42
50.0
 43
0.0
 44
0.0
 50
0.0
 51
0.0
 71
0
 72
1000
 73
1
 74
3
 75
0
 76
0
 77
0
 78
0
281
0
 65
0
146
0.0
  0
ENDTAB
  0
TABLE
  2
LTYPE
  5
2
330
0
100
AcDbSymbolTable
 70
3
  0
LTYPE
  5
24
330
2
100
AcDbSymbolTableRecord
100
AcDbLinetypeTableRecord
  2
ByBlock
 70
0
  3

 72
65
 73
0
 40
0.0
  0
LTYPE
  5
25
330
2
100
AcDbSymbolTableRecord
100
AcDbLinetypeTableRecord
  2
ByLayer
 70
0
  3

 72
65
 73
0
 40
0.0
  0
LTYPE
  5
26
330
2
100
AcDbSymbolTableRecord
100
AcDbLinetypeTableRecord
  2
Continuous
 70
0
  3

 72
65
 73
0
 40
0.0
  0
ENDTAB
  0
TABLE
  2
LAYER
  5
1
330
0
100
AcDbSymbolTable
 70
2
  0
LAYER
  5
27
330
1
100
AcDbSymbolTableRecord
100
AcDbLayerTableRecord
  2
0
 70
0
 62
7
  6
Continuous
370
-3
390
13
347
21
  0
LAYER
  5
28
330
1
100
AcDbSymbolTableRecord
100
AcDbLayerTableRecord
  2
Defpoints
 70
0
 62
7
  6
Continuous
290
0
370
-3
390
13
347
21
  0
ENDTAB
  0
TABLE
  2
STYLE
  5
5
330
0
100
AcDbSymbolTable
 70
1
  0
STYLE
  5
29
330
5
100
AcDbSymbolTableRecord
100
AcDbTextStyleTableRecord
  2
Standard
 70
0
 40
0.0
 41
1.0
 50
0.0
 71
0
 42
2.5
  3
txt
  4

  0
ENDTAB
  0
TABLE
  2
VIEW
  5
7
330
0
100
AcDbSymbolTable
 70
0
  0
ENDTAB
  0
TABLE
  2
UCS
  5
6
330
0
100
AcDbSymbolTable
 70
0
  0
ENDTAB
  0
TABLE
  2
APPID
  5
3
330
0
100
AcDbSymbolTable
 70
3
  0
APPID
  5
2A
330
3
100
AcDbSymbolTableRecord
100
AcDbRegAppTableRecord
  2
ACAD
 70
0
  0
APPID
  5
30
330
3
100
AcDbSymbolTableRecord
100
AcDbRegAppTableRecord
  2
HATCHBACKGROUNDCOLOR
 70
0
  0
APPID
  5
31
330
3
100
AcDbSymbolTableRecord
100
AcDbRegAppTableRecord
  2
EZDXF
 70
0
  0
ENDTAB
  0
TABLE
  2
DIMSTYLE
  5
4
330
0
100
AcDbSymbolTable
 70
1
100
AcDbDimStyleTable
  0
DIMSTYLE
105
2B
330
4
100
AcDbSymbolTableRecord
100
AcDbDimStyleTableRecord
  2
Standard
 70
0
 40
1.0
 41
2.5
 42
0.625
 43
3.75
 44
1.25
 45
0.0
 46
0.0
 47
0.0
 48
0.0
 49
2.5
140
2.5
141
2.5
142
0.0
143
0.03937007874
144
1.0
145
0.0
146
1.0
147
0.625
148
0.0
 69
0
 70
0
 71
0
 72
0
 73
0
 74
0
 75
0
 76
0
 77
1
 78
8
 79
3
170
0
171
3
172
1
173
0
174
0
175
0
176
0
177
0
178
0
179
2
271
2
272
2
273
2
274
3
275
0
276
0
277
2
278
44
279
0
280
0
281
0
282
0
283
0
284
8
285
0
286
0
288
0
289
3
290
0
371
-2
372
-2
  0
ENDTAB
  0
TABLE
  2
BLOCK_RECORD
  5
9
330
0
100
AcDbSymbolTable
 70
2
  0
BLOCK_RECORD
  5
17
330
9
100
AcDbSymbolTableRecord
100
AcDbBlockTableRecord
  2
*Model_Space
340
1A
 70
0
280
1
281
0
  0
BLOCK_RECORD
  5
1B
330
9
100
AcDbSymbolTableRecord
100
AcDbBlockTableRecord
  2
*Paper_Space
340
1E
 70
0
280
1
281
0
  0
ENDTAB
  0
ENDSEC
  0
SECTION
  2
BLOCKS
  0
BLOCK
  5
18
330
17
100
AcDbEntity
  8
0
100
AcDbBlockBegin
  2
*Model_Space
 70
0
 10
0.0
 20
0.0
 30
0.0
  3
*Model_Space
  1

  0
ENDBLK
  5
19
330
17
100
AcDbEntity
  8
0
100
AcDbBlockEnd
  0
BLOCK
  5
1C
330
1B
100
AcDbEntity
  8
0
100
AcDbBlockBegin
  2
*Paper_Space
 70
0
 10
0.0
 20
0.0
 30
0.0
  3
*Paper_Space
  1

  0
ENDBLK
  5
1D
330
1B
100
AcDbEntity
  8
0
100
AcDbBlockEnd
  0
ENDSEC
  0
SECTION
  2
ENTITIES
  0
LWPOLYLINE
  5
2F
330
17
100
AcDbEntity
  8
0
100
AcDbPolyline
 90
722
 70
1
 10
73.19136896265098
 20
49.125701163332195
 10
73.18877988381841
 20
49.125058025465144
 10
73.18115941013077
 20
49.122908469391135
 10
73.16880055405124
 20
49.118812979893356
 10
73.15144769111625
 20
49.112916741928686
 10
73.12953898208049
 20
49.10503901697474
 10
73.1028920372691
 20
49.09521513867449
 10
73.07147078996864
 20
49.08326095796573
 10
73.0354937698755
 20
49.06932518030639
 10
72.99492491027625
 20
49.0532236566343
 10
72.94950836678291
 20
49.035101901790085
 10
72.89960928528569
 20
49.01488869868145
 10
72.8451182176662
 20
48.992509969482605
 10
72.78596185582745
 20
48.96807567546866
 10
72.7222868159633
 20
48.94136589408934
 10
72.65394633526374
 20
48.9126007678175
 10
72.58112302332796
 20
48.88174463312635
 10
72.50370743203744
 20
48.84872341219007
 10
72.42162625329534
 20
48.813647066283814
 10
72.33513525818154
 20
48.77637019052821
 10
72.24397845569182
 20
48.73703851968643
 10
72.14830238871191
 20
48.69543224116949
 10
72.04817889743636
 20
48.65192009294695
 10
71.94335338545527
 20
48.60616922049858
 10
71.83415353735113
 20
48.55840284695329
 10
71.72036075011944
 20
48.508472376814346
 10
71.60208410533815
 20
48.456452437713956
 10
71.4793235296992
 20
48.4023431396134
 10
71.35200564179755
 20
48.34625455374906
 10
71.22013022170893
 20
48.28818701000481
 10
71.08384381231906
 20
48.227920695791624
 10
70.942999724126
 20
48.165675643621036
 10
70.79778027349657
 20
48.1014166298114
 10
70.64800285083159
 20
48.03517931788949
 10
70.49381377909248
 20
47.96674422515011
 10
70.3351757435877
 20
47.89640557189192
 10
70.17201521629606
 20
47.8242736492739
 10
70.0045519748921
 20
47.75001879339316
 10
69.83252988175542
 20
47.67378695893545
 10
69.65624077467939
 20
47.595616890083626
 10
69.47539252263824
 20
47.51547028249995
 10
69.29020358202038
 20
47.433495951603675
 10
69.1005644313992
 20
47.3496199295303
 10
68.90658422566084
 20
47.2639167339507
 10
68.70822675147556
 20
47.17620243572522
 10
68.50560116372948
 20
47.086551552524774
 10
68.2984513248022
 20
46.99511003903508
 10
68.08706899917905
 20
46.901916749400336
 10
67.87134466543341
 20
46.80689771575596
 10
67.6512781769491
 20
46.710053158024515
 10
67.42686916718563
 20
46.611383626012376
 10
67.19815362954843
 20
46.51107337874307
 10
66.96509520409155
 20
46.40893870699945
 10
66.7277298109123
 20
46.30516397976628
 10
66.48613039156714
 20
46.199639785574846
 10
66.24044348894175
 20
46.09214631183608
 10
65.9906314951122
 20
45.982978218693766
 10
65.73643834576623
 20
45.872281350872385
 10
65.47786367436335
 20
45.76005625817832
 10
65.21523663338847
 20
45.64604746449575
 10
64.94848362151228
 20
45.53036537094494
 10
64.67760449211859
 20
45.413010197448436
 10
64.40237895437623
 20
45.29431237763808
 10
64.1231733288454
 20
45.17372243502192
 10
63.839950154218336
 20
45.051534809821185
 10
63.55263590247394
 20
44.92785979319487
 10
63.261047670780584
 20
44.802733488514846
 10
62.96547715031546
 20
44.67619485988652
 10
62.665888054440785
 20
44.54806008813148
 10
62.3622802365404
 20
44.418329393172286
 10
62.054616088690345
 20
44.2872974351527
 10
61.74318855004586
 20
44.154524808817214
 10
61.427741556294656
 20
44.0201573588903
 10
61.10842010911204
 20
43.88445408198899
 10
60.785223988573705
 20
43.74741530799709
 10
60.458190289446854
 20
43.608747146499745
 10
60.12724533709414
 20
43.46856010857849
 10
59.7926075879039
 20
43.3270030096526
 10
59.4540208309477
 20
43.18422191436915
 10
59.11170477059193
 20
43.03988726878647
 10
58.765768488414565
 20
42.89407370053678
 10
58.416211764491315
 20
42.746781539503885
 10
58.062887616087934
 20
42.598231258044486
 10
57.70579582328009
 20
42.4484231860424
 10
57.345009474240435
 20
42.29724769210631
 10
56.98082033345419
 20
42.14474363038035
 10
56.61293604997134
 20
41.990873026410576
 10
56.241465778677956
 20
41.835710397867906
 10
55.866738598750835
 20
41.67900037859782
 10
55.48857146074219
 20
41.52077929189474
 10
55.106853595247465
 20
41.36145153925505
 10
54.72169415715269
 20
41.20109163834967
 10
54.33302064649046
 20
41.039331840860484
 10
53.94127159055601
 20
40.87599085845877
 10
53.546153463729375
 20
40.71150897609025
 10
53.14773935418315
 20
40.545776562363585
 10
52.745955660588066
 20
40.378904018399034
 10
52.34105808071588
 20
40.21074604927849
 10
51.933046467950426
 20
40.04130287492451
 10
51.52181108094083
 20
39.870500857356355
 10
51.10749714128665
 20
39.69859866330721
 10
50.68999505425324
 20
39.52552243487381
 10
50.26956059092047
 20
39.35112676717676
 10
49.84619345805594
 20
39.17541210006116
 10
49.420002883853854
 20
38.99845284123667
 10
48.990805818866455
 20
38.82028531399772
 10
48.558564875094106
 20
38.64120384860425
 10
48.12339016216856
 20
38.460805033211365
 10
47.685536643040244
 20
38.27942117253296
 10
47.245078360627424
 20
38.09646470566189
 10
46.80194164029269
 20
37.912046143679646
 10
46.3561253073661
 20
37.726643745985925
 10
45.907555760518406
 20
37.54036791370097
 10
45.456233807879045
 20
37.35274093723148
 10
45.00274371149952
 20
37.16383942525302
 10
44.54683014188891
 20
36.973331622858055
 10
44.088491777761064
 20
36.78169600936879
 10
43.62754564297636
 20
36.58896879811838
 10
43.16428379525242
 20
36.39518840340588
 10
42.69881649083719
 20
36.19995119346382
 10
42.23110634173105
 20
36.003551498552156
 10
41.76100643850781
 20
35.80620968106629
 10
41.288883175035785
 20
35.607376154553016
 10
40.81480963948756
 20
35.40694128762102
 10
40.3386380409994
 20
35.20560326222024
 10
39.86022249819891
 20
35.003104401268985
 10
39.37970845260989
 20
34.79970304161661
 10
38.89753560619757
 20
34.59473963553474
 10
38.41363043094074
 20
34.388324474182355
 10
37.92784616402942
 20
34.18067770003231
 10
37.43996251463244
 20
33.97212974671645
 10
36.95049175799051
 20
33.76238870486325
 10
36.45950771709764
 20
33.550867343449376
 10
35.96711903194279
 20
33.338117449893936
 10
35.47273975264789
 20
33.12454144464998
 10
34.97677263302708
 20
32.90977345048143
 10
34.47951053892748
 20
32.69337417209406
 10
33.98102597031652
 20
32.47571135780599
 10
33.48102620970369
 20
32.25674758296966
 10
32.97965691853712
 20
32.03674085455059
 10
32.476881663562864
 20
31.815507573292912
 10
31.972956509093173
 20
31.59290189447212
 10
31.467990903246555
 20
31.368997895914067
 10
30.961875031364002
 20
31.143722049599287
 10
30.4548280096068
 20
30.91722218129561
 10
29.946630428581287
 20
30.689350905080303
 10
29.437354641638752
 20
30.460476189194072
 10
28.927074030184148
 20
30.23048796240045
 10
28.41615484146959
 20
29.998836858168797
 10
27.904450312685103
 20
29.765743018971968
 10
27.392106325203116
 20
29.531464121891652
 10
26.87883016153309
 20
29.295962742280288
 10
26.364987554030076
 20
29.059166783355384
 10
25.85065173748288
 20
28.82096639380308
 10
25.3358959466803
 20
28.58125172230949
 10
24.820573272196132
 20
28.340243131270004
 10
24.30472014728437
 20
28.09812421994052
 10
23.78833635202071
 20
27.854895318204854
 10
23.271751405430503
 20
27.61030040014081
 10
22.754928874259807
 20
27.364155866492535
 10
22.238051588032064
 20
27.1164257238494
 10
21.72100929049938
 20
26.867513603978885
 10
21.20347224271206
 20
26.617675862686976
 10
20.685806396949474
 20
26.36684007330739
 10
20.16848847663591
 20
26.11405290765816
 10
19.65107841326571
 20
25.85997446327404
 10
19.133722454751787
 20
25.604861867430344
 10
18.616457256012797
 20
25.348421889479884
 10
18.099356198453705
 20
25.090544458186212
 10
17.58241862056129
 20
24.831707063220076
 10
17.065608235697745
 20
24.571725885403033
 10
16.549254489580353
 20
24.310345008774185
 10
16.033247640858256
 20
24.047490795352807
 10
15.517733937444369
 20
23.783420372414213
 10
15.002639924625605
 20
23.51824392115612
 10
14.488185600000758
 20
23.25163144779179
 10
13.974297508856713
 20
22.983693133518916
 10
13.46101215775557
 20
22.71461246763211
 10
12.947999881055742
 20
22.44464569597611
 10
12.435920010040354
 20
22.173280326861434
 10
11.9247725447094
 20
21.900516360288087
 10
11.414484250274084
 20
21.626463647569942
 10
10.90498167202131
 20
21.351232369904707
 10
10.396448079323136
 20
21.074785874114127
 10
9.888700349423685
 20
20.7971605934539
 10
9.3820313464297
 20
20.518393732649056
 10
8.876587759843058
 20
20.238265259188
 10
8.372296281566879
 20
19.956885134345896
 10
7.869083676812341
 20
19.674363209436613
 10
7.367023253676358
 20
19.390589523185014
 10
6.8664814042868265
 20
19.105490989157115
 10
6.367201624482897
 20
18.819214111845064
 10
5.869147259345934
 20
18.532052121896058
 10
5.372575034701459
 20
18.24338168491489
 10
4.877558036981688
 20
17.95356966952948
 10
4.383876561820233
 20
17.66294562968147
 10
3.891640572232628
 20
17.371106373448498
 10
3.40121660696297
 20
17.07797859447405
 10
2.912458123125566
 20
16.78378210534716
 10
2.425401848947152
 20
16.488223565459357
 10
1.940121090784228
 20
16.19166951355472
 10
1.4566526501716583
 20
15.89382649906352
 10
0.9751430682547204
 20
15.594951209415964
 10
0.495152791424833
 20
15.295226472398623
 10
0.01704835842607662
 20
14.994578981654978
 10
-0.4588769983539484
 20
14.692568892084429
 10
-0.9326963670878518
 20
14.389305835078291
 10
-1.4045197840992742
 20
14.085193112520203
 10
-1.8742736480589184
 20
13.780120323289912
 10
-2.341884577561807
 20
13.473977396150982
 10
-2.8072425380246684
 20
13.166837529239046
 10
-3.2706040336083704
 20
12.858847227046232
 10
-3.7320054259991675
 20
12.55029928037464
 10
-4.191043521534309
 20
12.240827152220557
 10
-4.647571557403807
 20
11.93021070011113
 10
-5.101735929877177
 20
11.618669516712831
 10
-5.553493241431226
 20
11.30637675496041
 10
-6.002941577429438
 20
10.993241293030382
 10
-6.450044064769239
 20
10.67944607041098
 10
-6.8947640502724
 20
10.365174356474247
 10
-7.336918262826457
 20
10.049912998022682
 10
-7.776396741156274
 20
9.73373530315318
 10
-8.21345606447119
 20
9.417264386338394
 10
-8.64805957785255
 20
9.10020701693113
 10
-9.079914050653151
 20
8.782599849850033
 10
-9.50923940542331
 20
8.464296268901297
 10
-9.93581571961271
 20
8.145442890278726
 10
-10.359679648139998
 20
7.82633294462952
 10
-10.781124421652375
 20
7.506929777035038
 10
-11.19967353839021
 20
7.186756889216408
 10
-11.615546924384567
 20
6.866620665018345
 10
-12.029001157104396
 20
6.546667718894266
 10
-12.439706349243474
 20
6.226164975096343
 10
-12.847332616976342
 20
5.905332357915276
 10
-13.252209845868835
 20
5.5844264430796215
 10
-13.65441134401786
 20
5.263557191864538
 10
-14.053790495229617
 20
4.942504681719715
 10
-14.450200685050692
 20
4.621525490114104
 10
-14.843861836031403
 20
4.300473000853909
 10
-15.23477394991213
 20
3.9798237139583788
 10
-15.622790410499086
 20
3.6593577068772114
 10
-16.00783790969536
 20
3.338965018335253
 10
-16.389989755597856
 20
3.0187556096076595
 10
-16.769282603125216
 20
2.6990227113416316
 10
-17.145826413552587
 20
2.3796930154402753
 10
-17.51925464813588
 20
2.060693215547073
 10
-17.88956730687509
 20
1.7420233116620294
 10
-18.256801042948464
 20
1.4235000344130915
 10
-18.62091920317776
 20
1.105306653172311
 10
-18.982141711853657
 20
0.7877730517651484
 10
-19.340431915797904
 20
0.4710824995636508
 10
-19.695496582622926
 20
0.15479515146720768
 10
-20.047445673603853
 20
-0.16116230062107753
 10
-20.395875996818344
 20
-0.47667989368566815
 10
-20.741227399107387
 20
-0.7915743600948981
 10
-21.08357318856789
 20
-1.1057357385736153
 10
-21.422693442649535
 20
-1.4190174129280215
 10
-21.758514853255434
 20
-1.7315293444332753
 10
-22.090927457370043
 20
-2.043674725011728
 10
-22.420114526105802
 20
-2.354940401465875
 10
-22.746295983753406
 20
-2.664996489970256
 10
-23.0689953285532
 20
-2.9743194888037348
 10
-23.388322521780353
 20
-3.2829827060632115
 10
-23.70420425707834
 20
-3.5906196030045874
 10
-24.016750495722327
 20
-3.8973034877247588
 10
-24.326034545809215
 20
-4.2029243989485705
 10
-24.63172652177314
 20
-4.507738912404586
 10
-24.93397303980791
 20
-4.811527105542501
 10
-25.232774099913517
 20
-5.114288978362311
 10
-25.528422934477558
 20
-5.415584685763407
 10
-25.82062631285283
 20
-5.715377572827148
 10
-26.10938423329894
 20
-6.0141441395727835
 10
-26.39444011834694
 20
-6.312031000453727
 10
-26.675977239109272
 20
-6.608525002272467
 10
-26.954252173054883
 20
-6.903479530575598
 10
-27.22886172652103
 20
-7.197261122366831
 10
-27.49984255442635
 20
-7.489576546998961
 10
-27.767487887418056
 20
-7.780462459390633
 10
-28.031577802945833
 20
-8.069772243348051
 10
-28.291892376718994
 20
-8.357835782696679
 10
-28.548651533028227
 20
-8.644323193611049
 10
-28.80192857997043
 20
-8.929124514816015
 10
-29.05165020944871
 20
-9.212349707586728
 10
-29.297706460187907
 20
-9.493925463826287
 10
-29.54002402409113
 20
-9.773961744809853
 10
-29.778786170530427
 20
-10.052421897359164
 10
-30.01377297695549
 20
-10.329159305280427
 10
-30.245131059560116
 20
-10.603954046023334
 10
-30.472933724700816
 20
-10.87717265833199
 10
-30.696851088552133
 20
-11.148595217915702
 10
-30.916919804292316
 20
-11.418404994146517
 10
-31.133433104308967
 20
-11.686162141923823
 10
-31.346390988602064
 20
-11.951866661247628
 10
-31.555536879702682
 20
-12.215665166571327
 10
-31.760797469513914
 20
-12.477667619170088
 10
-31.96220941121402
 20
-12.738057288415954
 10
-32.15991932273717
 20
-12.99613775173936
 10
-32.353963857261625
 20
-13.252092278512364
 10
-32.54419639859359
 20
-13.506140791285274
 10
-32.73050698545792
 20
-13.758209981961182
 10
-32.913042234048405
 20
-14.00807992798979
 10
-33.09165552817124
 20
-14.255970551921404
 10
-33.26642017592334
 20
-14.501771892480875
 10
-33.437409485401595
 20
-14.745373988393041
 10
-33.60436687913705
 20
-14.986923454111311
 10
-33.7675122814204
 20
-15.226090405810229
 10
-33.92666242113921
 20
-15.463387996687308
 10
-34.08200056940592
 20
-15.698303073545034
 10
-34.23345341812363
 20
-15.93094559765856
 10
-34.38094765919544
 20
-16.161425530303045
 10
-34.52437333134621
 20
-16.389669563381585
 10
-34.663913703947976
 20
-16.615641043715925
 10
-34.799678740016276
 20
-16.838936779383708
 10
-34.93152182335732
 20
-17.05977669293524
 10
-35.05944295397111
 20
-17.27816078437053
 10
-35.1836254012297
 20
-17.49405240051132
 10
-35.30377593448587
 20
-17.70741488643895
 10
-35.42015113120859
 20
-17.91810162770003
 10
-35.53278764631648
 20
-18.12581939364735
 10
-35.64179544108471
 20
-18.330641492377815
 10
-35.74691793804432
 20
-18.532714538344823
 10
-35.84833840656737
 20
-18.732001878370117
 10
-35.945836924103546
 20
-18.928356896259917
 10
-36.03978002939695
 20
-19.1217062856577
 10
-36.13002110799418
 20
-19.31179346909452
 10
-36.216523504976585
 20
-19.498911677217578
 10
-36.299287220344176
 20
-19.68306091002688
 10
-36.37831225409695
 20
-19.864241167522426
 10
-36.45363526115354
 20
-20.042159219057012
 10
-36.525256241513944
 20
-20.216815064630634
 10
-36.59306523216264
 20
-20.388611896165646
 10
-36.657172196115155
 20
-20.5571465217397
 10
-36.717283900983894
 20
-20.722858786453404
 10
-36.77369357915647
 20
-20.885308845206144
 10
-36.82610799824527
 20
-21.044936543098533
 10
-36.8746737744441
 20
-21.201521957580265
 10
-36.919390907752955
 20
-21.35506508865135
 10
-36.96007612879978
 20
-21.50560258949003
 10
-36.99709597632868
 20
-21.653061153739795
 10
-37.029900642223524
 20
-21.79755074093542
 10
-37.058966626503526
 20
-21.939071352817287
 10
-37.08400069852152
 20
-22.077586334466748
 10
-37.10522278256818
 20
-22.212765802058357
 10
-37.12259622372486
 20
-22.34490298623931
 10
-37.136084368813314
 20
-22.47381461763755
 10
-37.14598045022113
 20
-22.599060851152476
 10
-37.152174504932766
 20
-22.72104487870644
 10
-37.154703187866865
 20
-22.839473469652237
 10
-37.15371311521722
 20
-22.954126701439563
 10
-37.149497519371415
 20
-23.064564728967806
 10
-37.14205640032947
 20
-23.170787552236966
 10
-37.13164633556031
 20
-23.27264855679363
 10
-37.11841394299812
 20
-23.36945132006824
 10
-37.102762416305644
 20
-23.460829305057082
 10
-37.085534797727014
 20
-23.545756207105526
 10
-37.06702432139019
 20
-23.623315681093697
 10
-37.0485138781207
 20
-23.69182165471605
 10
-37.03128635874404
 20
-23.74958805566703
 10
-37.01688123503542
 20
-23.79382919714917
 10
-37.00724117069247
 20
-23.821869355380525
 10
-36.54081838765034
 20
-24.526024718725072
 10
-36.534990410480674
 20
-24.53023988991683
 10
-36.51757978706857
 20
-24.542775442216964
 10
-36.488879749801626
 20
-24.56319153052485
 10
-36.44753409975742
 20
-24.593284188421205
 10
-36.39222328945144
 20
-24.63550921887803
 10
-36.32664937864716
 20
-24.68407532749047
 10
-36.25297495707326
 20
-24.73550040663188
 10
-36.1723729525397
 20
-24.78850157591906
 10
-36.08627287380618
 20
-24.840696340476907
 10
-35.99522453246961
 20
-24.891021740732143
 10
-35.89981439156478
 20
-24.939074586502787
 10
-35.80022572220415
 20
-24.984341724591346
 10
-35.69675175677528
 20
-25.02638330989719
 10
-35.589539111471964
 20
-25.064979419870028
 10
-35.47858778629423
 20
-25.10013005450985
 10
-35.364081050614104
 20
-25.13179856063841
 10
-35.246055559350246
 20
-25.15969170760849
 10
-35.124438004405725
 20
-25.183919456695257
 10
-34.999411655152635
 20
-25.204445154720446
 10
-34.87071993412199
 20
-25.22141541613747
 10
-34.738436149410724
 20
-25.234720279671176
 10
-34.6029268397629
 20
-25.244286438965055
 10
-34.4636421970624
 20
-25.250223853553873
 10
-34.32098541323157
 20
-25.25264248645316
 10
-34.17466325762318
 20
-25.25150568274428
 10
-34.02485899960931
 20
-25.246776789248983
 10
-33.871645947286865
 20
-25.238345844692113
 10
-33.71480417636513
 20
-25.226542732899123
 10
-33.5544803030379
 20
-25.211147531319718
 10
-33.3903810949176
 20
-25.1926000850545
 10
-33.222726476294916
 20
-25.170570510278015
 10
-33.05147979225121
 20
-25.145352037637466
 10
-32.87653108151131
 20
-25.11687135903595
 10
-32.69773372788145
 20
-25.085348397023782
 10
-32.51527100073366
 20
-25.0507464984227
 10
-32.32906959197106
 20
-25.013175624507863
 10
-32.13912950159363
 20
-24.97263577527927
 10
-31.945120844035543
 20
-24.929383526465475
 10
-31.74733684994399
 20
-24.883455532985124
 10
-31.54563090486556
 20
-24.834595217369273
 10
-31.34022293135058
 20
-24.782949195811714
 10
-31.13085635193008
 20
-24.728664082765853
 10
-30.91764112787923
 20
-24.671813186328592
 10
-30.700540606019754
 20
-24.61221323712788
 10
-30.479811363820616
 20
-24.549717620710304
 10
-30.255270131909754
 20
-24.48436299025412
 10
-30.027063524740594
 20
-24.416405923228282
 10
-29.795081581037966
 20
-24.345773111535888
 10
-29.559324300801883
 20
-24.272464555176935
 10
-29.320011608323018
 20
-24.19615037032597
 10
-29.077253464876545
 20
-24.11690386507989
 10
-28.830939909187297
 20
-24.034651731341793
 10
-28.581034286336642
 20
-23.949687199758884
 10
-28.327536596324578
 20
-23.862010270331165
 10
-28.070740071538687
 20
-23.771181097958024
 10
-27.810608057060335
 20
-23.677492913286667
 10
-27.547103899711267
 20
-23.580762446945034
 10
-27.280154291394577
 20
-23.481099660208283
 10
-27.009869193385416
 20
-23.37857786117331
 10
-26.7363219137807
 20
-23.273087088564967
 10
-26.459439144483518
 20
-23.164737303658402
 10
-26.179220885493873
 20
-23.053528506453624
 10
-25.895740444908657
 20
-22.93935073567546
 10
-25.60903447590613
 20
-22.822387260695983
 10
-25.319102978486306
 20
-22.702638081515182
 10
-25.025909299470904
 20
-22.579919928761004
 10
-24.729526745216447
 20
-22.454599341177552
 10
-24.42991866254468
 20
-22.326493049392784
 10
-24.12701174335871
 20
-22.19571101468184
 10
-23.820989257030575
 20
-22.062216583866476
 10
-23.512071127850984
 20
-21.925679873121222
 10
-23.20003743152923
 20
-21.786430766271543
 10
-22.88463159059637
 20
-21.64461587777085
 10
-22.566256796974756
 20
-21.500345170634677
 10
-22.244839744307896
 20
-21.353252106118926
 10
-21.92045374069266
 20
-21.20322672294844
 10
-21.59317209248558
 20
-21.050635559867324
 10
-21.262811530314597
 20
-20.89551527005384
 10
-20.929518670373508
 20
-20.737645930957665
 10
-20.59340347393746
 20
-20.57710085067571
 10
-20.254539249103363
 20
-20.413770067932813
 10
-19.91270607158051
 20
-20.24798346655444
 10
-19.568050557562703
 20
-20.079521123990283
 10
-19.220426090856154
 20
-19.90860296279065
 10
-18.870272518301846
 20
-19.73504571532387
 10
-18.517296609252597
 20
-19.55881272667131
 10
-18.161608324983536
 20
-19.37997730492986
 10
-17.80324431867293
 20
-19.198722719471572
 10
-17.442241245239426
 20
-19.014755739649246
 10
-17.078562449764377
 20
-18.82836959611008
 10
-16.712391201619827
 20
-18.63952763567582
 10
-16.343654194449275
 20
-18.447863319602373
 10
-15.972571350803024
 20
-18.253523264083526
 10
-15.598922746390373
 20
-18.056837352944736
 10
-15.22270838121134
 20
-17.857805586186007
 10
-14.843928255265908
 20
-17.65642796380734
 10
-14.462912254119932
 20
-17.452447910080167
 10
-14.079806993967203
 20
-17.245645502454188
 10
-13.694209281144982
 20
-17.03638727793312
 10
-13.306339038203571
 20
-16.82481985271075
 10
-12.916232920061608
 20
-16.610649996139877
 10
-12.524147504188049
 20
-16.393731093767094
 10
-12.1298628662922
 20
-16.174393029417864
 10
-11.733342351455414
 20
-15.952929033739377
 10
-11.334622614596343
 20
-15.729045876084445
 10
-10.933923580005668
 20
-15.5024136726276
 10
-10.531318554039908
 20
-15.273398962112948
 10
-10.126734228602158
 20
-15.042111705815636
 10
-9.719950681142121
 20
-14.80840528754187
 10
-9.311371103582143
 20
-14.572389670307196
 10
-8.901032150840882
 20
-14.333771623464404
 10
-8.488933822918323
 20
-14.092551147013495
 10
-8.075112772992725
 20
-13.848911510326522
 10
-7.659202460579604
 20
-13.603402519779245
 10
-7.241532771244802
 20
-13.355767599643107
 10
-6.822286976100757
 20
-13.105493596720594
 10
-6.40139176705058
 20
-12.852690472286868
 10
-5.979067066644559
 20
-12.597504842535711
 10
-5.554909681219966
 20
-12.340303244470848
 10
-5.129176188245743
 20
-12.080939063638862
 10
-4.701866587721887
 20
-11.819412300039758
 10
-4.273127495842201
 20
-11.55550303112323
 10
-3.8428856045097874
 20
-11.289321218164435
 10
-3.411214220081155
 20
-11.021233399907468
 10
-2.9780400361997876
 20
-10.750873037608226
 10
-2.543729591609789
 20
-10.478166824910204
 10
-2.108209578214262
 20
-10.203224723088548
 10
-1.671406687916309
 20
-9.926156693418413
 10
-1.233284267537676
 20
-9.646779466527754
 10
-0.7943188170976221
 20
-9.365093044156955
 10
-0.354473683417876
 20
-9.080914156933957
 10
0.08680094335809065
 20
-8.79482926441279
 10
0.5292118325830675
 20
-8.506875021512096
 10
0.9722091744005262
 20
-8.21646496867785
 10
1.41623281565146
 20
-7.923782373541719
 10
1.8612461031576208
 20
-7.629010505475747
 10
2.3068824981748954
 20
-7.332076058123433
 10
2.753288615156706
 20
-7.03272245401582
 10
3.200244531552745
 20
-6.731096309346704
 10
3.64815344102574
 20
-6.4275641611198076
 10
4.096758766106752
 20
-6.121979394881717
 10
4.545584005036155
 20
-5.813865512353556
 10
4.994959043379771
 20
-5.5034790892639025
 10
5.445067152250057
 20
-5.19133327881025
 10
5.895578666005436
 20
-4.877171835147878
 10
6.346542113735885
 20
-4.560829302631294
 10
6.798000894704941
 20
-4.242609028345031
 10
7.249661996449318
 20
-3.922071497072291
 10
7.701525565585207
 20
-3.5992169287356277
 10
8.153774873225036
 20
-3.274558476532554
 10
8.606373559422941
 20
-2.9482798496802225
 10
9.059358350665287
 20
-2.620197888767845
 10
9.512399434694306
 20
-2.29005612802815
 10
9.965643501011908
 20
-1.9580745999727067
 10
10.419090842850466
 20
-1.624253744446624
 10
10.872631425626734
 20
-1.2886667595855208
 10
11.32604554497432
 20
-0.950984091447763
 10
11.779479817087001
 20
-0.6114256625836602
 10
12.233007551802082
 20
-0.2705779342876113
 10
12.686775656805331
 20
0.07181523106421768
 10
13.140344211947689
 20
0.41593721106478476
 10
13.593896633217367
 20
0.7617511326132658
 10
14.047212998064074
 20
1.1091103795158737
 10
14.500476649167958
 20
1.4579781886330814
 10
14.953614351740214
 20
1.808464411278761
 10
15.406479491327438
 20
2.160312469983968
 10
15.85932864539858
 20
2.513375750295297
 10
16.312088725781024
 20
2.8677638836040673
 10
16.764466281903278
 20
3.223440544875468
 10
17.21664472975359
 20
3.580368861008692
 10
17.6686607242506
 20
3.9382556013565337
 10
18.120331067589966
 20
4.297613809155228
 10
18.571582306798987
 20
4.658077165583232
 10
19.02256105807145
 20
5.019425748090227
 10
19.473194086618573
 20
5.381769407990107
 10
19.92333477624654
 20
5.745328067833164
 10
20.37312981645726
 20
6.109881695107826
 10
20.822505534353724
 20
6.475064300876357
 10
21.271425421633484
 20
6.841168895863419
 10
21.719999441312083
 20
7.2077922881466545
 10
22.168007522482636
 20
7.5752645814740704
 10
22.615376430356346
 20
7.943695627159546
 10
23.062252781127
 20
8.312865502652777
 10
23.508636136686402
 20
8.68229836770215
 10
23.954636678234017
 20
9.052067200520765
 10
24.39992437358777
 20
9.4224287967597
 10
24.844572384228393
 20
9.79327341506637
 10
25.288580783463967
 20
10.1646009454795
 10
25.732022732775206
 20
10.53630164664648
 10
26.174604634974422
 20
10.908339413455057
 10
26.616509979357954
 20
11.280677262843138
 10
27.057701672898943
 20
11.65313258520632
 10
27.498436659606863
 20
12.025558216284836
 10
27.938201124770906
 20
12.398248374636955
 10
28.377068449796095
 20
12.771092989026275
 10
28.815515136442052
 20
13.14361556117391
 10
29.25288104703662
 20
13.516329792343374
 10
29.68909265355859
 20
13.88934597369363
 10
30.124699985788823
 20
14.26207731578685
 10
30.55962915090598
 20
14.63415815956911
 10
30.99355040822007
 20
15.006321360865698
 10
31.42642681132042
 20
15.378384090149646
 10
31.858147959083322
 20
15.750273699091728
 10
32.288970648901994
 20
16.121843243354686
 10
32.7188578610577
 20
16.492910003372863
 10
33.14788268372306
 20
16.863364347754935
 10
33.57578831950482
 20
17.233353220838115
 10
34.00242785897679
 20
17.603096985017828
 10
34.4280211531216
 20
17.972265866429886
 10
34.85256812863112
 20
18.340859975035567
 10
35.27592136466288
 20
18.708623942939937
 10
35.69830129692386
 20
19.07570361660787
 10
36.119267345492126
 20
19.442283363283792
 10
36.53889267184835
 20
19.808253441615104
 10
36.957543523244624
 20
20.1730644850711
 10
37.375146664892185
 20
20.53682634496572
 10
37.79133460504164
 20
20.899613757152004
 10
38.2064010874969
 20
21.2614626068197
 10
38.62005207522164
 20
21.62233744862416
 10
39.03239767610728
 20
21.98231137073976
 10
39.44347403191573
 20
22.341091912248206
 10
39.853170668215185
 20
22.698606534781543
 10
40.26174438239886
 20
23.054708294002513
 10
40.66875437462052
 20
23.40958188703938
 10
41.07442108058714
 20
23.763373160357002
 10
41.47845046326245
 20
24.11604666861076
 10
41.88128200468734
 20
24.466943193956112
 10
42.282805303738094
 20
24.815990088063835
 10
42.6828009475403
 20
25.163992965049683
 10
43.08086442462588
 20
25.510843841201087
 10
43.47780263547696
 20
25.855808872781687
 10
43.873321469749214
 20
26.19885272440816
 10
44.26712732851453
 20
26.54041579098746
 10
44.65922006515673
 20
26.880498292442162
 10
45.04967276784843
 20
27.218990597380937
 10
45.4388518304579
 20
27.55534311935056
 10
45.826389541311514
 20
27.88963092408795
 10
46.21228663174985
 20
28.22232941199962
 10
46.596322006293036
 20
28.553293726272162
 10
46.97864206121059
 20
28.8823042742391
 10
47.35939326608011
 20
29.20914135327268
 10
47.73842871147541
 20
29.534025325768308
 10
48.115637703040356
 20
29.856883983241826
 10
48.491277111476315
 20
30.17757027139475
 10
48.865125841303424
 20
30.49593933341368
 10
49.23707422273849
 20
30.812393921375858
 10
49.60690101368551
 20
31.12678939839045
 10
49.975083960401356
 20
31.439123896856174
 10
50.34132763473633
 20
31.74888756067337
 10
50.7058527656298
 20
32.056225796461824
 10
51.06858575175246
 20
32.36124900534178
 10
51.42915888143065
 20
32.664032253050145
 10
51.78764509622083
 20
32.96446612811816
 10
52.144338359851126
 20
33.2625861858517
 10
52.498980483814876
 20
33.558064959833
 10
52.851828192197196
 20
33.85075561568605
 10
53.202550866351295
 20
34.140915828752206
 10
53.55118537937972
 20
34.42872853851969
 10
53.897694345023204
 20
34.71401157522918
 10
54.242077470049416
 20
34.99676537872579
 10
54.584443911084804
 20
35.276587966661204
 10
54.924684071654305
 20
35.55388198115138
 10
55.26264994445067
 20
35.8283929339916
 10
55.59830509447957
 20
36.10041372594526
 10
55.931869299415474
 20
36.36961469310944
 10
56.26330502638299
 20
36.63581388564739
 10
56.592392057859016
 20
36.89934162722967
 10
56.919130173919285
 20
37.160198247740105
 10
57.243519081331385
 20
37.418384187023804
 10
57.565484154193086
 20
37.67353488563962
 10
57.885392737637524
 20
37.925575827656985
 10
58.20276752351602
 20
38.17498472092884
 10
58.51757105226123
 20
38.42157950565713
 10
58.829913505072625
 20
38.66543316005493
 10
59.13983073047976
 20
38.90625366304907
 10
59.44713865272153
 20
39.144078877391834
 10
59.75198476594848
 20
39.37916406101685
 10
60.0543676057391
 20
39.6110349131304
 10
60.354140335975266
 20
39.839911686166595
 10
60.65137604482962
 20
40.06568474873411
 10
60.94585444147096
 20
40.28868453446478
 10
61.237721922168795
 20
40.508691450692105
 10
61.526867645950816
 20
40.72563350885453
 10
61.81336470098963
 20
40.9394010775607
 10
62.09725010700396
 20
41.15017687637629
 10
62.378229167184685
 20
41.35792644960817
 10
62.65630151499131
 20
41.56265034706272
 10
62.931650859644456
 20
41.76431125579401
 10
63.20435058254917
 20
41.962799104565654
 10
63.47396091017247
 20
42.158297051048
 10
63.740585499293246
 20
42.350887860007624
 10
64.00445138508753
 20
42.54023098137537
 10
64.26537177939467
 20
42.72636834647072
 10
64.52319991940466
 20
42.90952009776652
 10
64.77819274912693
 20
43.089539071002974
 10
65.03020211463803
 20
43.26617099789793
 10
65.27919172755983
 20
43.43970855929221
 10
65.5250880598711
 20
43.610262046344786
 10
65.76778034390765
 20
43.77775936053279
 10
66.00741497593897
 20
43.94198090918975
 10
66.2439182813277
 20
44.103037203397186
 10
66.47714349726381
 20
44.261148385627955
 10
66.70716363861187
 20
44.41620493445201
 10
66.9340146272095
 20
44.56791471883489
 10
67.15769609651623
 20
44.71627828858299
 10
67.37802528857632
 20
44.861808027164855
 10
67.59496459720623
 20
45.004322094705046
 10
67.8085139490979
 20
45.143820601164855
 10
68.0187462858077
 20
45.280194135075455
 10
68.2255509129795
 20
45.41337048795271
 10
68.4290380851209
 20
45.54342252804845
 10
68.62895056499002
 20
45.67049785946754
 10
68.82543460224021
 20
45.79437710946605
 10
69.01834343406146
 20
45.91528042051682
 10
69.20793407777133
 20
46.03306051839884
 10
69.39383852846375
 20
46.147792908694065
 10
69.57609387916555
 20
46.25966020100692
 10
69.75466267030943
 20
46.368480335539395
 10
69.92972861111602
 20
46.474215999345574
 10
70.10103373126253
 20
46.57701589614308
 10
70.26883468152599
 20
46.67673330151724
 10
70.43269476731359
 20
46.7735467547649
 10
70.59290252755432
 20
46.867499948326284
 10
70.74923877277884
 20
46.95844516639486
 10
70.9018139041109
 20
47.04645505729989
 10
71.05062777493428
 20
47.13152984096389
 10
71.19560685722782
 20
47.21377980854586
 10
71.33671383804038
 20
47.29302268032524
 10
71.47380180794578
 20
47.3694788186974
 10
71.60705469608892
 20
47.443110580832645
 10
71.73628828009251
 20
47.51395604940576
 10
71.86157579474538
 20
47.58190537310292
 10
71.9828438586425
 20
47.647068623160536
 10
72.10016555995644
 20
47.70933616818726
 10
72.2134675172823
 20
47.76881807941954
 10
72.32260304111811
 20
47.825734389368954
 10
72.42760790668538
 20
47.87979318692361
 10
72.52863004798326
 20
47.93124907024947
 10
72.6252640738465
 20
47.9799953751693
 10
72.71791515551604
 20
48.02613909574415
 10
72.80636190427968
 20
48.06953581500579
 10
72.89045763063545
 20
48.110405565465754
 10
72.97038619042027
 20
48.14871081425561
 10
73.04603681596988
 20
48.18437946285247
 10
73.11726289109046
 20
48.21763143380666
 10
73.18432150640768
 20
48.24831934293582
 10
73.2469554246797
 20
48.27659079434487
 10
73.30523780738721
 20
48.30233604668119
 10
73.35902203833645
 20
48.325775022495066
 10
73.40838142562431
 20
48.346797760511365
 10
73.4533531355857
 20
48.36558676037322
 10
73.49371585281646
 20
48.38199749515103
 10
73.52950696357588
 20
48.396212134604156
 10
73.56083701560378
 20
48.40830310713922
 10
73.58748469349615
 20
48.41812588582672
 10
73.60941392879903
 20
48.42597282162362
 10
73.62680887058166
 20
48.43180594181636
 10
73.63930129401372
 20
48.435701081870796
 10
73.64692880527866
 20
48.43784008166239
 10
73.64954456825849
 20
48.43844319362529
 10
73.19136896265098
 20
49.125701163332195
  0
ENDSEC
  0
SECTION
  2
OBJECTS
  0
DICTIONARY
  5
A
330
0
100
AcDbDictionary
280
0
281
1
  3
ACAD_COLOR
350
B
  3
ACAD_GROUP
350
C
  3
ACAD_LAYOUT
350
D
  3
ACAD_MATERIAL
350
E
  3
ACAD_MLEADERSTYLE
350
F
  3
ACAD_MLINESTYLE
350
10
  3
ACAD_PLOTSETTINGS
350
11
  3
ACAD_PLOTSTYLENAME
350
12
  3
ACAD_SCALELIST
350
14
  3
ACAD_TABLESTYLE
350
15
  3
ACAD_VISUALSTYLE
350
16
  3
EZDXF_META
350
2D
  0
DICTIONARY
  5
B
330
A
100
AcDbDictionary
280
0
281
1
  0
DICTIONARY
  5
C
330
A
100
AcDbDictionary
280
0
281
1
  0
DICTIONARY
  5
D
330
A
100
AcDbDictionary
280
0
281
1
  3
Model
350
1A
  3
Layout1
350
1E
  0
DICTIONARY
  5
E
330
A
100
AcDbDictionary
280
0
281
1
  3
ByBlock
350
1F
  3
ByLayer
350
20
  3
Global
350
21
  0
DICTIONARY
  5
F
330
A
100
AcDbDictionary
280
0
281
1
  3
Standard
350
2C
  0
DICTIONARY
  5
10
330
A
100
AcDbDictionary
280
0
281
1
  3
Standard
350
22
  0
DICTIONARY
  5
11
330
A
100
AcDbDictionary
280
0
281
1
  0
ACDBDICTIONARYWDFLT
  5
12
330
A
100
AcDbDictionary
280
0
281
1
  3
Normal
350
13
100
AcDbDictionaryWithDefault
340
13
  0
ACDBPLACEHOLDER
  5
13
330
12
  0
DICTIONARY
  5
14
330
A
100
AcDbDictionary
280
0
281
1
  0
DICTIONARY
  5
15
330
A
100
AcDbDictionary
280
0
281
1
  0
DICTIONARY
  5
16
330
A
100
AcDbDictionary
280
0
281
1
  0
LAYOUT
  5
1A
330
D
100
AcDbPlotSettings
  1

  4
A3
  6

 40
7.5
 41
20.0
 42
7.5
 43
20.0
 44
420.0
 45
297.0
 46
0.0
 47
0.0
 48
0.0
 49
0.0
140
0.0
141
0.0
142
1.0
143
1.0
 70
1024
 72
1
 73
0
 74
5
  7

 75
16
 76
0
 77
2
 78
300
147
1.0
148
0.0
149
0.0
100
AcDbLayout
  1
Model
 70
1
 71
0
 10
0.0
 20
0.0
 11
420.0
 21
297.0
 12
0.0
 22
0.0
 32
0.0
 14
1e+20
 24
1e+20
 34
1e+20
 15
-1e+20
 25
-1e+20
 35
-1e+20
146
0.0
 13
0.0
 23
0.0
 33
0.0
 16
1.0
 26
0.0
 36
0.0
 17
0.0
 27
1.0
 37
0.0
 76
1
330
17
  0
LAYOUT
  5
1E
330
D
100
AcDbPlotSettings
  1

  4
A3
  6

 40
7.5
 41
20.0
 42
7.5
 43
20.0
 44
420.0
 45
297.0
 46
0.0
 47
0.0
 48
0.0
 49
0.0
140
0.0
141
0.0
142
1.0
143
1.0
 70
0
 72
1
 73
0
 74
5
  7

 75
16
 76
0
 77
2
 78
300
147
1.0
148
0.0
149
0.0
100
AcDbLayout
  1
Layout1
 70
1
 71
1
 10
0.0
 20
0.0
 11
420.0
 21
297.0
 12
0.0
 22
0.0
 32
0.0
 14
1e+20
 24
1e+20
 34
1e+20
 15
-1e+20
 25
-1e+20
 35
-1e+20
146
0.0
 13
0.0
 23
0.0
 33
0.0
 16
1.0
 26
0.0
 36
0.0
 17
0.0
 27
1.0
 37
0.0
 76
1
330
1B
  0
MATERIAL
  5
1F
102
{ACAD_REACTORS
330
E
102
}
330
E
100
AcDbMaterial
  1
ByBlock
  2

 70
0
 40
1.0
 71
1
 41
1.0
 91
-1023410177
 42
1.0
 72
1
  3

 73
1
 74
1
 75
1
 44
0.5
 73
0
 45
1.0
 46
1.0
 77
1
  4

 78
1
 79
1
170
1
 48
1.0
171
1
  6

172
1
173
1
174
1
140
1.0
141
1.0
175
1
  7

176
1
177
1
178
1
143
1.0
179
1
  8

270
1
271
1
272
1
145
1.0
146
1.0
273
1
  9

274
1
275
1
276
1
 42
1.0
 72
1
  3

 73
1
 74
1
 75
1
 94
63
  0
MATERIAL
  5
20
102
{ACAD_REACTORS
330
E
102
}
330
E
100
AcDbMaterial
  1
ByLayer
  2

 70
0
 40
1.0
 71
1
 41
1.0
 91
-1023410177
 42
1.0
 72
1
  3

 73
1
 74
1
 75
1
 44
0.5
 73
0
 45
1.0
 46
1.0
 77
1
  4

 78
1
 79
1
170
1
 48
1.0
171
1
  6

172
1
173
1
174
1
140
1.0
141
1.0
175
1
  7

176
1
177
1
178
1
143
1.0
179
1
  8

270
1
271
1
272
1
145
1.0
146
1.0
273
1
  9

274
1
275
1
276
1
 42
1.0
 72
1
  3

 73
1
 74
1
 75
1
 94
63
  0
MATERIAL
  5
21
102
{ACAD_REACTORS
330
E
102
}
330
E
100
AcDbMaterial
  1
Global
  2

 70
0
 40
1.0
 71
1
 41
1.0
 91
-1023410177
 42
1.0
 72
1
  3

 73
1
 74
1
 75
1
 44
0.5
 73
0
 45
1.0
 46
1.0
 77
1
  4

 78
1
 79
1
170
1
 48
1.0
171
1
  6

172
1
173
1
174
1
140
1.0
141
1.0
175
1
  7

176
1
177
1
178
1
143
1.0
179
1
  8

270
1
271
1
272
1
145
1.0
146
1.0
273
1
  9

274
1
275
1
276
1
 42
1.0
 72
1
  3

 73
1
 74
1
 75
1
 94
63
  0
MLINESTYLE
  5
22
102
{ACAD_REACTORS
330
10
102
}
330
10
100
AcDbMlineStyle
  2
Standard
 70
0
  3

 62
256
 51
90.0
 52
90.0
 71
2
 49
0.5
 62
256
  6
BYLAYER
 49
-0.5
 62
256
  6
BYLAYER
  0
MLEADERSTYLE
  5
2C
102
{ACAD_REACTORS
330
F
102
}
330
F
100
AcDbMLeaderStyle
179
2
170
2
171
1
172
0
 90
2
 40
0.0
 41
0.0
173
1
 91
-1056964608
 92
-2
290
1
 42
2.0
291
1
 43
8.0
  3
Standard
 44
4.0
300

342
29
174
1
175
1
176
0
178
1
 93
-1056964608
 45
4.0
292
0
297
0
 46
4.0
 94
-1056964608
 47
1.0
 49
1.0
140
1.0
294
1
141
0.0
177
0
142
1.0
295
0
296
0
143
3.75
271
0
272
9
273
9
  0
DICTIONARY
  5
2D
330
A
100
AcDbDictionary
280
1
281
1
  3
CREATED_BY_EZDXF
350
2E
  3
WRITTEN_BY_EZDXF
350
32
  0
DICTIONARYVAR
  5
2E
330
2D
100
DictionaryVariables
280
0
  1
1.3.5 @ 2025-08-22T23:49:23.818543+00:00
  0
DICTIONARYVAR
  5
32
330
2D
100
DictionaryVariables
280
0
  1
1.3.5 @ 2025-08-22T23:49:23.818543+00:00
  0
ENDSEC
  0
EOF
