  0
SECTION
  2
HEADER
  9
$ACADVER
  1
AC1032
  9
$ACADMAINTVER
 90
4
  9
$DWGCODEPAGE
  3
ANSI_1252
  9
$LASTSAVEDBY
  1
ezdxf
  9
$REQUIREDVERSIONS
160
0
  9
$INSBASE
 10
0.0
 20
0.0
 30
0.0
  9
$EXTMIN
 10
1e+20
 20
1e+20
 30
1e+20
  9
$EXTMAX
 10
-1e+20
 20
-1e+20
 30
-1e+20
  9
$LIMMIN
 10
0.0
 20
0.0
  9
$LIMMAX
 10
420.0
 20
297.0
  9
$ORTHOMODE
 70
0
  9
$REGENMODE
 70
1
  9
$FILLMODE
 70
1
  9
$QTEXTMODE
 70
0
  9
$MIRRTEXT
 70
1
  9
$LTSCALE
 40
1.0
  9
$ATTMODE
 70
1
  9
$TEXTSIZE
 40
2.5
  9
$TRACEWID
 40
1.0
  9
$TEXTSTYLE
  7
Standard
  9
$CLAYER
  8
0
  9
$CELTYPE
  6
ByLayer
  9
$CECOLOR
 62
256
  9
$CELTSCALE
 40
1.0
  9
$DISPSILH
 70
0
  9
$DIMSCALE
 40
1.0
  9
$DIMASZ
 40
2.5
  9
$DIMEXO
 40
0.625
  9
$DIMDLI
 40
3.75
  9
$DIMRND
 40
0.0
  9
$DIMDLE
 40
0.0
  9
$DIMEXE
 40
1.25
  9
$DIMTP
 40
0.0
  9
$DIMTM
 40
0.0
  9
$DIMTXT
 40
2.5
  9
$DIMCEN
 40
2.5
  9
$DIMTSZ
 40
0.0
  9
$DIMTOL
 70
0
  9
$DIMLIM
 70
0
  9
$DIMTIH
 70
0
  9
$DIMTOH
 70
0
  9
$DIMSE1
 70
0
  9
$DIMSE2
 70
0
  9
$DIMTAD
 70
1
  9
$DIMZIN
 70
8
  9
$DIMBLK
  1

  9
$DIMASO
 70
1
  9
$DIMSHO
 70
1
  9
$DIMPOST
  1

  9
$DIMAPOST
  1

  9
$DIMALT
 70
0
  9
$DIMALTD
 70
3
  9
$DIMALTF
 40
0.03937007874
  9
$DIMLFAC
 40
1.0
  9
$DIMTOFL
 70
1
  9
$DIMTVP
 40
0.0
  9
$DIMTIX
 70
0
  9
$DIMSOXD
 70
0
  9
$DIMSAH
 70
0
  9
$DIMBLK1
  1

  9
$DIMBLK2
  1

  9
$DIMSTYLE
  2
ISO-25
  9
$DIMCLRD
 70
0
  9
$DIMCLRE
 70
0
  9
$DIMCLRT
 70
0
  9
$DIMTFAC
 40
1.0
  9
$DIMGAP
 40
0.625
  9
$DIMJUST
 70
0
  9
$DIMSD1
 70
0
  9
$DIMSD2
 70
0
  9
$DIMTOLJ
 70
0
  9
$DIMTZIN
 70
8
  9
$DIMALTZ
 70
0
  9
$DIMALTTZ
 70
0
  9
$DIMUPT
 70
0
  9
$DIMDEC
 70
2
  9
$DIMTDEC
 70
2
  9
$DIMALTU
 70
2
  9
$DIMALTTD
 70
3
  9
$DIMTXSTY
  7
Standard
  9
$DIMAUNIT
 70
0
  9
$DIMADEC
 70
0
  9
$DIMALTRND
 40
0.0
  9
$DIMAZIN
 70
0
  9
$DIMDSEP
 70
44
  9
$DIMATFIT
 70
3
  9
$DIMFRAC
 70
0
  9
$DIMLDRBLK
  1

  9
$DIMLUNIT
 70
2
  9
$DIMLWD
 70
-2
  9
$DIMLWE
 70
-2
  9
$DIMTMOVE
 70
0
  9
$DIMFXL
 40
1.0
  9
$DIMFXLON
 70
0
  9
$DIMJOGANG
 40
0.785398163397
  9
$DIMTFILL
 70
0
  9
$DIMTFILLCLR
 70
0
  9
$DIMARCSYM
 70
0
  9
$DIMLTYPE
  6

  9
$DIMLTEX1
  6

  9
$DIMLTEX2
  6

  9
$DIMTXTDIRECTION
 70
0
  9
$LUNITS
 70
2
  9
$LUPREC
 70
4
  9
$SKETCHINC
 40
1.0
  9
$FILLETRAD
 40
10.0
  9
$AUNITS
 70
0
  9
$AUPREC
 70
2
  9
$MENU
  1
.
  9
$ELEVATION
 40
0.0
  9
$PELEVATION
 40
0.0
  9
$THICKNESS
 40
0.0
  9
$LIMCHECK
 70
0
  9
$CHAMFERA
 40
0.0
  9
$CHAMFERB
 40
0.0
  9
$CHAMFERC
 40
0.0
  9
$CHAMFERD
 40
0.0
  9
$SKPOLY
 70
0
  9
$TDCREATE
 40
2460911.0343055557
  9
$TDUCREATE
 40
2458532.153996898
  9
$TDUPDATE
 40
2460911.0343055557
  9
$TDUUPDATE
 40
2458532.1544311
  9
$TDINDWG
 40
0.0
  9
$TDUSRTIMER
 40
0.0
  9
$USRTIMER
 70
1
  9
$ANGBASE
 50
0.0
  9
$ANGDIR
 70
0
  9
$PDMODE
 70
0
  9
$PDSIZE
 40
0.0
  9
$PLINEWID
 40
0.0
  9
$SPLFRAME
 70
0
  9
$SPLINETYPE
 70
6
  9
$SPLINESEGS
 70
8
  9
$HANDSEED
  5
33
  9
$SURFTAB1
 70
6
  9
$SURFTAB2
 70
6
  9
$SURFTYPE
 70
6
  9
$SURFU
 70
6
  9
$SURFV
 70
6
  9
$UCSBASE
  2

  9
$UCSNAME
  2

  9
$UCSORG
 10
0.0
 20
0.0
 30
0.0
  9
$UCSXDIR
 10
1.0
 20
0.0
 30
0.0
  9
$UCSYDIR
 10
0.0
 20
1.0
 30
0.0
  9
$UCSORTHOREF
  2

  9
$UCSORTHOVIEW
 70
0
  9
$UCSORGTOP
 10
0.0
 20
0.0
 30
0.0
  9
$UCSORGBOTTOM
 10
0.0
 20
0.0
 30
0.0
  9
$UCSORGLEFT
 10
0.0
 20
0.0
 30
0.0
  9
$UCSORGRIGHT
 10
0.0
 20
0.0
 30
0.0
  9
$UCSORGFRONT
 10
0.0
 20
0.0
 30
0.0
  9
$UCSORGBACK
 10
0.0
 20
0.0
 30
0.0
  9
$PUCSBASE
  2

  9
$PUCSNAME
  2

  9
$PUCSORG
 10
0.0
 20
0.0
 30
0.0
  9
$PUCSXDIR
 10
1.0
 20
0.0
 30
0.0
  9
$PUCSYDIR
 10
0.0
 20
1.0
 30
0.0
  9
$PUCSORTHOREF
  2

  9
$PUCSORTHOVIEW
 70
0
  9
$PUCSORGTOP
 10
0.0
 20
0.0
 30
0.0
  9
$PUCSORGBOTTOM
 10
0.0
 20
0.0
 30
0.0
  9
$PUCSORGLEFT
 10
0.0
 20
0.0
 30
0.0
  9
$PUCSORGRIGHT
 10
0.0
 20
0.0
 30
0.0
  9
$PUCSORGFRONT
 10
0.0
 20
0.0
 30
0.0
  9
$PUCSORGBACK
 10
0.0
 20
0.0
 30
0.0
  9
$USERI1
 70
0
  9
$USERI2
 70
0
  9
$USERI3
 70
0
  9
$USERI4
 70
0
  9
$USERI5
 70
0
  9
$USERR1
 40
0.0
  9
$USERR2
 40
0.0
  9
$USERR3
 40
0.0
  9
$USERR4
 40
0.0
  9
$USERR5
 40
0.0
  9
$WORLDVIEW
 70
1
  9
$SHADEDGE
 70
3
  9
$SHADEDIF
 70
70
  9
$TILEMODE
 70
1
  9
$MAXACTVP
 70
64
  9
$PINSBASE
 10
0.0
 20
0.0
 30
0.0
  9
$PLIMCHECK
 70
0
  9
$PEXTMIN
 10
1e+20
 20
1e+20
 30
1e+20
  9
$PEXTMAX
 10
-1e+20
 20
-1e+20
 30
-1e+20
  9
$PLIMMIN
 10
0.0
 20
0.0
  9
$PLIMMAX
 10
420.0
 20
297.0
  9
$UNITMODE
 70
0
  9
$VISRETAIN
 70
1
  9
$PLINEGEN
 70
0
  9
$PSLTSCALE
 70
1
  9
$TREEDEPTH
 70
3020
  9
$CMLSTYLE
  2
Standard
  9
$CMLJUST
 70
0
  9
$CMLSCALE
 40
20.0
  9
$PROXYGRAPHICS
 70
1
  9
$MEASUREMENT
 70
1
  9
$CELWEIGHT
370
-1
  9
$ENDCAPS
280
0
  9
$JOINSTYLE
280
0
  9
$LWDISPLAY
290
0
  9
$INSUNITS
 70
6
  9
$HYPERLINKBASE
  1

  9
$STYLESHEET
  1

  9
$XEDIT
290
1
  9
$CEPSNTYPE
380
0
  9
$PSTYLEMODE
290
1
  9
$FINGERPRINTGUID
  2
{147994BB-901D-4BC1-8E16-1F9286783EBE}
  9
$VERSIONGUID
  2
{9D39738E-360A-4719-AE3C-57B2483289D9}
  9
$EXTNAMES
290
1
  9
$PSVPSCALE
 40
0.0
  9
$OLESTARTUP
290
0
  9
$SORTENTS
280
127
  9
$INDEXCTL
280
0
  9
$HIDETEXT
280
1
  9
$XCLIPFRAME
280
1
  9
$HALOGAP
280
0
  9
$OBSCOLOR
 70
257
  9
$OBSLTYPE
280
0
  9
$INTERSECTIONDISPLAY
280
0
  9
$INTERSECTIONCOLOR
 70
257
  9
$DIMASSOC
280
2
  9
$PROJECTNAME
  1

  9
$CAMERADISPLAY
290
0
  9
$LENSLENGTH
 40
50.0
  9
$CAMERAHEIGHT
 40
0.0
  9
$STEPSPERSEC
 40
24.0
  9
$STEPSIZE
 40
100.0
  9
$3DDWFPREC
 40
2.0
  9
$PSOLWIDTH
 40
0.005
  9
$PSOLHEIGHT
 40
0.08
  9
$LOFTANG1
 40
1.570796326795
  9
$LOFTANG2
 40
1.570796326795
  9
$LOFTMAG1
 40
0.0
  9
$LOFTMAG2
 40
0.0
  9
$LOFTPARAM
 70
7
  9
$LOFTNORMALS
280
1
  9
$LATITUDE
 40
37.795
  9
$LONGITUDE
 40
-122.394
  9
$NORTHDIRECTION
 40
0.0
  9
$TIMEZONE
 70
-8000
  9
$LIGHTGLYPHDISPLAY
280
1
  9
$TILEMODELIGHTSYNCH
280
1
  9
$CMATERIAL
347
20
  9
$SOLIDHIST
280
0
  9
$SHOWHIST
280
1
  9
$DWFFRAME
280
2
  9
$DGNFRAME
280
2
  9
$REALWORLDSCALE
290
1
  9
$INTERFERECOLOR
 62
256
  9
$CSHADOW
280
0
  9
$SHADOWPLANELOCATION
 40
0.0
  0
ENDSEC
  0
SECTION
  2
CLASSES
  0
CLASS
  1
ACDBDICTIONARYWDFLT
  2
AcDbDictionaryWithDefault
  3
ObjectDBX Classes
 90
0
 91
0
280
0
281
0
  0
CLASS
  1
SUN
  2
AcDbSun
  3
SCENEOE
 90
1153
 91
0
280
0
281
0
  0
CLASS
  1
VISUALSTYLE
  2
AcDbVisualStyle
  3
ObjectDBX Classes
 90
4095
 91
0
280
0
281
0
  0
CLASS
  1
MATERIAL
  2
AcDbMaterial
  3
ObjectDBX Classes
 90
1153
 91
0
280
0
281
0
  0
CLASS
  1
SCALE
  2
AcDbScale
  3
ObjectDBX Classes
 90
1153
 91
0
280
0
281
0
  0
CLASS
  1
TABLESTYLE
  2
AcDbTableStyle
  3
ObjectDBX Classes
 90
4095
 91
0
280
0
281
0
  0
CLASS
  1
MLEADERSTYLE
  2
AcDbMLeaderStyle
  3
ACDB_MLEADERSTYLE_CLASS
 90
4095
 91
0
280
0
281
0
  0
CLASS
  1
DICTIONARYVAR
  2
AcDbDictionaryVar
  3
ObjectDBX Classes
 90
0
 91
0
280
0
281
0
  0
CLASS
  1
CELLSTYLEMAP
  2
AcDbCellStyleMap
  3
ObjectDBX Classes
 90
1152
 91
0
280
0
281
0
  0
CLASS
  1
MENTALRAYRENDERSETTINGS
  2
AcDbMentalRayRenderSettings
  3
SCENEOE
 90
1024
 91
0
280
0
281
0
  0
CLASS
  1
ACDBDETAILVIEWSTYLE
  2
AcDbDetailViewStyle
  3
ObjectDBX Classes
 90
1025
 91
0
280
0
281
0
  0
CLASS
  1
ACDBSECTIONVIEWSTYLE
  2
AcDbSectionViewStyle
  3
ObjectDBX Classes
 90
1025
 91
0
280
0
281
0
  0
CLASS
  1
RASTERVARIABLES
  2
AcDbRasterVariables
  3
ISM
 90
0
 91
0
280
0
281
0
  0
CLASS
  1
ACDBPLACEHOLDER
  2
AcDbPlaceHolder
  3
ObjectDBX Classes
 90
0
 91
0
280
0
281
0
  0
CLASS
  1
LAYOUT
  2
AcDbLayout
  3
ObjectDBX Classes
 90
0
 91
0
280
0
281
0
  0
ENDSEC
  0
SECTION
  2
TABLES
  0
TABLE
  2
VPORT
  5
8
330
0
100
AcDbSymbolTable
 70
1
  0
VPORT
  5
23
330
8
100
AcDbSymbolTableRecord
100
AcDbViewportTableRecord
  2
*Active
 70
0
 10
0.0
 20
0.0
 11
1.0
 21
1.0
 12
0.0
 22
0.0
 13
0.0
 23
0.0
 14
0.5
 24
0.5
 15
0.5
 25
0.5
 16
0.0
 26
0.0
 36
1.0
 17
0.0
 27
0.0
 37
0.0
 40
1000.0
 41
1.34
 42
50.0
 43
0.0
 44
0.0
 50
0.0
 51
0.0
 71
0
 72
1000
 73
1
 74
3
 75
0
 76
0
 77
0
 78
0
281
0
 65
0
146
0.0
  0
ENDTAB
  0
TABLE
  2
LTYPE
  5
2
330
0
100
AcDbSymbolTable
 70
3
  0
LTYPE
  5
24
330
2
100
AcDbSymbolTableRecord
100
AcDbLinetypeTableRecord
  2
ByBlock
 70
0
  3

 72
65
 73
0
 40
0.0
  0
LTYPE
  5
25
330
2
100
AcDbSymbolTableRecord
100
AcDbLinetypeTableRecord
  2
ByLayer
 70
0
  3

 72
65
 73
0
 40
0.0
  0
LTYPE
  5
26
330
2
100
AcDbSymbolTableRecord
100
AcDbLinetypeTableRecord
  2
Continuous
 70
0
  3

 72
65
 73
0
 40
0.0
  0
ENDTAB
  0
TABLE
  2
LAYER
  5
1
330
0
100
AcDbSymbolTable
 70
2
  0
LAYER
  5
27
330
1
100
AcDbSymbolTableRecord
100
AcDbLayerTableRecord
  2
0
 70
0
 62
7
  6
Continuous
370
-3
390
13
347
21
  0
LAYER
  5
28
330
1
100
AcDbSymbolTableRecord
100
AcDbLayerTableRecord
  2
Defpoints
 70
0
 62
7
  6
Continuous
290
0
370
-3
390
13
347
21
  0
ENDTAB
  0
TABLE
  2
STYLE
  5
5
330
0
100
AcDbSymbolTable
 70
1
  0
STYLE
  5
29
330
5
100
AcDbSymbolTableRecord
100
AcDbTextStyleTableRecord
  2
Standard
 70
0
 40
0.0
 41
1.0
 50
0.0
 71
0
 42
2.5
  3
txt
  4

  0
ENDTAB
  0
TABLE
  2
VIEW
  5
7
330
0
100
AcDbSymbolTable
 70
0
  0
ENDTAB
  0
TABLE
  2
UCS
  5
6
330
0
100
AcDbSymbolTable
 70
0
  0
ENDTAB
  0
TABLE
  2
APPID
  5
3
330
0
100
AcDbSymbolTable
 70
3
  0
APPID
  5
2A
330
3
100
AcDbSymbolTableRecord
100
AcDbRegAppTableRecord
  2
ACAD
 70
0
  0
APPID
  5
30
330
3
100
AcDbSymbolTableRecord
100
AcDbRegAppTableRecord
  2
HATCHBACKGROUNDCOLOR
 70
0
  0
APPID
  5
31
330
3
100
AcDbSymbolTableRecord
100
AcDbRegAppTableRecord
  2
EZDXF
 70
0
  0
ENDTAB
  0
TABLE
  2
DIMSTYLE
  5
4
330
0
100
AcDbSymbolTable
 70
1
100
AcDbDimStyleTable
  0
DIMSTYLE
105
2B
330
4
100
AcDbSymbolTableRecord
100
AcDbDimStyleTableRecord
  2
Standard
 70
0
 40
1.0
 41
2.5
 42
0.625
 43
3.75
 44
1.25
 45
0.0
 46
0.0
 47
0.0
 48
0.0
 49
2.5
140
2.5
141
2.5
142
0.0
143
0.03937007874
144
1.0
145
0.0
146
1.0
147
0.625
148
0.0
 69
0
 70
0
 71
0
 72
0
 73
0
 74
0
 75
0
 76
0
 77
1
 78
8
 79
3
170
0
171
3
172
1
173
0
174
0
175
0
176
0
177
0
178
0
179
2
271
2
272
2
273
2
274
3
275
0
276
0
277
2
278
44
279
0
280
0
281
0
282
0
283
0
284
8
285
0
286
0
288
0
289
3
290
0
371
-2
372
-2
  0
ENDTAB
  0
TABLE
  2
BLOCK_RECORD
  5
9
330
0
100
AcDbSymbolTable
 70
2
  0
BLOCK_RECORD
  5
17
330
9
100
AcDbSymbolTableRecord
100
AcDbBlockTableRecord
  2
*Model_Space
340
1A
 70
0
280
1
281
0
  0
BLOCK_RECORD
  5
1B
330
9
100
AcDbSymbolTableRecord
100
AcDbBlockTableRecord
  2
*Paper_Space
340
1E
 70
0
280
1
281
0
  0
ENDTAB
  0
ENDSEC
  0
SECTION
  2
BLOCKS
  0
BLOCK
  5
18
330
17
100
AcDbEntity
  8
0
100
AcDbBlockBegin
  2
*Model_Space
 70
0
 10
0.0
 20
0.0
 30
0.0
  3
*Model_Space
  1

  0
ENDBLK
  5
19
330
17
100
AcDbEntity
  8
0
100
AcDbBlockEnd
  0
BLOCK
  5
1C
330
1B
100
AcDbEntity
  8
0
100
AcDbBlockBegin
  2
*Paper_Space
 70
0
 10
0.0
 20
0.0
 30
0.0
  3
*Paper_Space
  1

  0
ENDBLK
  5
1D
330
1B
100
AcDbEntity
  8
0
100
AcDbBlockEnd
  0
ENDSEC
  0
SECTION
  2
ENTITIES
  0
LWPOLYLINE
  5
2F
330
17
100
AcDbEntity
  8
0
100
AcDbPolyline
 90
722
 70
1
 10
58.80274940855806
 20
7.040812356405746
 10
58.8010036659668
 20
7.041218324161233
 10
58.795787019433774
 20
7.042259666703044
 10
58.78714055947808
 20
7.043583879927079
 10
58.77495566689395
 20
7.0453559213354
 10
58.75943933059393
 20
7.047333803517524
 10
58.74049320143195
 20
7.04959437999753
 10
58.71803944982058
 20
7.052038472727871
 10
58.69225426477367
 20
7.054688318039846
 10
58.66305981670385
 20
7.0574447378859055
 10
58.63034745556428
 20
7.060472954344627
 10
58.59431393104884
 20
7.063618819406996
 10
58.554871122949805
 20
7.0668714353877915
 10
58.51200875092712
 20
7.0703189944571685
 10
58.46574737566086
 20
7.073785112274817
 10
58.41606641591029
 20
7.077446349565387
 10
58.36306425166249
 20
7.081225588228287
 10
58.306652762709724
 20
7.085111930578293
 10
58.24682166871196
 20
7.08919356878556
 10
58.183679609435686
 20
7.093305368963688
 10
58.11711791427336
 20
7.097612729575584
 10
58.047157133624744
 20
7.101939354473115
 10
57.97395288554326
 20
7.106483952520054
 10
57.897251151427675
 20
7.111125109337557
 10
57.81731619937825
 20
7.115896311710829
 10
57.733971830100785
 20
7.120775411500738
 10
57.64730611240135
 20
7.125773747353359
 10
57.557319035999626
 20
7.130891407460864
 10
57.46400031027523
 20
7.136216672185576
 10
57.36734990438715
 20
7.141749806104004
 10
57.26738836873509
 20
7.147314513068014
 10
57.16409513235865
 20
7.15308726561008
 10
57.05756853412361
 20
7.158991298398294
 10
56.947710194042834
 20
7.1651037295332465
 10
56.83454063167505
 20
7.1712485274433115
 10
56.718127385987245
 20
7.177613150538358
 10
56.59846014579839
 20
7.1842860555650505
 10
56.47556973156791
 20
7.191002842397272
 10
56.3493474521276
 20
7.19792908588227
 10
56.21997977683136
 20
7.204998830181196
 10
56.08728019520395
 20
7.21227838390158
 10
55.95142488597887
 20
7.2197900715668935
 10
55.81232571866801
 20
7.2275230836840825
 10
55.67007077235778
 20
7.23548867070705
 10
55.52458219690011
 20
7.243587830972591
 10
55.3759480713814
 20
7.251831814934609
 10
55.22405970463348
 20
7.260386197440356
 10
55.06910355572988
 20
7.269185110843149
 10
54.91099149418248
 20
7.278217745649932
 10
54.74972349943063
 20
7.2874842782450475
 10
54.5852995200726
 20
7.296985149589344
 10
54.41779737541549
 20
7.306819625922544
 10
54.24713919475049
 20
7.3168888819657765
 10
54.07340278710433
 20
7.327292272150926
 10
53.89659838141535
 20
7.337942045268696
 10
53.71674652808331
 20
7.34866190517095
 10
53.53391472495383
 20
7.3596396630362335
 10
53.3479942911391
 20
7.371040805519634
 10
53.15898517523739
 20
7.382865773582001
 10
52.96700630763558
 20
7.394861152974609
 10
52.77204736687228
 20
7.407115488636293
 10
52.574108332386764
 20
7.41962895695139
 10
52.373158311757294
 20
7.432666575391215
 10
52.16924867584299
 20
7.445787647681509
 10
51.96244694305017
 20
7.459179808616482
 10
51.75274280219783
 20
7.472931514942802
 10
51.540037832177454
 20
7.487120237529735
 10
51.32451848178224
 20
7.501680196922767
 10
51.10610689058379
 20
7.5165124796508636
 10
50.884803038021396
 20
7.531617262098362
 10
50.66067442194074
 20
7.547182355443814
 10
50.4337621225806
 20
7.56285534377529
 10
50.203957459053115
 20
7.5788017137478665
 10
49.9714263091911
 20
7.595132158439513
 10
49.73616864215354
 20
7.611846942426736
 10
49.49811688813235
 20
7.628758871876175
 10
49.25726071538585
 20
7.645956579918836
 10
49.013776302647486
 20
7.663462391078183
 10
48.767554948468785
 20
7.681441968393646
 10
48.518627463028814
 20
7.699630999931268
 10
48.26708191513364
 20
7.718040824337131
 10
48.012918273942255
 20
7.736671706187741
 10
47.75611592737286
 20
7.755700470784254
 10
47.49667484458448
 20
7.775127382703186
 10
47.2346052750761
 20
7.794864514350889
 10
46.97009367792128
 20
7.814845998080681
 10
46.70295351180371
 20
7.835138407076603
 10
46.433272855809875
 20
7.855752991792567
 10
46.161170630046236
 20
7.876436426172013
 10
45.88654839284364
 20
7.897266357468551
 10
45.609463382268416
 20
7.918518612646547
 10
45.33000367740694
 20
7.940204442159904
 10
45.04801356768275
 20
7.962125930874378
 10
44.76370009341012
 20
7.984040650418638
 10
44.47702209210756
 20
8.00630172224198
 10
44.187989813274065
 20
8.028821218750755
 10
43.89659293544826
 20
8.051687684883804
 10
43.602940088116284
 20
8.074736074946891
 10
43.30703125071744
 20
8.097966565324356
 10
43.00877826192261
 20
8.121368611099655
 10
42.708347030405605
 20
8.145052640774244
 10
42.40564941539796
 20
8.169007933047238
 10
42.100794056666174
 20
8.19306935403223
 10
41.79378091308887
 20
8.217237256497905
 10
41.484698074032806
 20
8.241522802705997
 10
41.17344709782883
 20
8.266003639910117
 10
40.8600955131636
 20
8.290867314712301
 10
40.54458598944777
 20
8.315838793877722
 10
40.22717259668426
 20
8.34103905082437
 10
39.90772017469633
 20
8.366093874269868
 10
39.586218391742214
 20
8.391091897345218
 10
39.26281262665669
 20
8.41631966831567
 10
38.937492557978366
 20
8.441865732120053
 10
38.61011275547078
 20
8.467443981453977
 10
38.281046240084386
 20
8.492921799102364
 10
37.950038890414596
 20
8.518178652608077
 10
37.61723606473542
 20
8.543501266620696
 10
37.282539331658086
 20
8.568967200201666
 10
36.94613519137748
 20
8.594510232935622
 10
36.607966333864894
 20
8.619855155203387
 10
36.26810028780702
 20
8.645189513607006
 10
35.92651645140245
 20
8.670690045255462
 10
35.58326620579065
 20
8.695915965682333
 10
35.23835980047064
 20
8.720779347293973
 10
34.89192205359712
 20
8.745743122695938
 10
34.54378696397321
 20
8.770697657116306
 10
34.19412047111376
 20
8.795753114480023
 10
33.84298423649829
 20
8.820380518150502
 10
33.4903679489457
 20
8.844668324874409
 10
33.1362510272153
 20
8.868793095376397
 10
32.78060257888525
 20
8.893019847127768
 10
32.423639986291946
 20
8.917017430434019
 10
32.06522805841756
 20
8.940411898589282
 10
31.705600345706348
 20
8.963500256583178
 10
31.344529134080236
 20
8.986702287241219
 10
30.98214367538744
 20
9.009676031375838
 10
30.618485039586393
 20
9.032069161267275
 10
30.253708937253617
 20
9.054079592049776
 10
29.88762877567113
 20
9.07577433786824
 10
29.5204105251948
 20
9.097263298071093
 10
29.151976304835518
 20
9.11844773557164
 10
28.78243479548113
 20
9.139162163714797
 10
28.411874117339405
 20
9.159417480185791
 10
28.040206098800873
 20
9.179203228260247
 10
27.667607011122087
 20
9.198540938732101
 10
27.293900541925137
 20
9.217409433576098
 10
26.91924238122584
 20
9.23600680431082
 10
26.543642819644568
 20
9.254244770573948
 10
26.167153217760116
 20
9.271682724283393
 10
25.789752994331753
 20
9.288497226163798
 10
25.411608150556344
 20
9.304797910987089
 10
25.032532093715922
 20
9.32065179289816
 10
24.652721655747136
 20
9.335904018350643
 10
24.272187106709666
 20
9.350466483366553
 10
23.890938716663214
 20
9.364251083967908
 10
23.50895588380634
 20
9.377434557263696
 10
23.126316489128165
 20
9.39011564034061
 10
22.743020501787655
 20
9.402294597775166
 10
22.359186903573363
 20
9.413717574357783
 10
21.97473781349619
 20
9.424285833001765
 10
21.58977164238428
 20
9.433921991030013
 10
21.204345700266337
 20
9.4429012580617
 10
20.81834097451277
 20
9.451477753882912
 10
20.43195432790124
 20
9.459496360370773
 10
20.045179841822883
 20
9.466240995247508
 10
19.657955803396487
 20
9.472241076110551
 10
19.270448265220615
 20
9.47760579677097
 10
18.882589595805182
 20
9.482148492548426
 10
18.494390085770547
 20
9.485780883080592
 10
18.105995185913883
 20
9.488788899287531
 10
17.717327035806747
 20
9.491073627698201
 10
17.32850460695737
 20
9.4923813012952
 10
16.939439738036604
 20
9.492701375161978
 10
16.550298481643033
 20
9.492143043109614
 10
16.161070536875936
 20
9.490794673692593
 10
15.771786755035762
 20
9.48839160220829
 10
15.38243683522178
 20
9.485022197211196
 10
14.99309866870345
 20
9.480785107595839
 10
14.603653253131528
 20
9.475934364956133
 10
14.21433859320448
 20
9.469961906104247
 10
13.825154688922307
 20
9.46286773104018
 10
13.436091270225317
 20
9.454739943741918
 10
13.047138036212795
 20
9.445666912763947
 10
12.658393459394931
 20
9.435570726276154
 10
12.269759087822216
 20
9.424529119724319
 10
11.881421534773285
 20
9.412474902579198
 10
11.493401371208552
 20
9.39923160230832
 10
11.105688316787983
 20
9.384887411081836
 10
10.718272101451873
 20
9.36953043287773
 10
10.331163005540276
 20
9.353072475525849
 10
9.944557953512867
 20
9.335357891750292
 10
9.558348202799774
 20
9.316552697359162
 10
9.172601384891083
 20
9.296843557032798
 10
8.787280729877482
 20
9.275779053196059
 10
8.402542030578196
 20
9.25355639544583
 10
8.01835447681415
 20
9.23043989571606
 10
7.634660717435281
 20
9.206154697156258
 10
7.251657697461968
 20
9.180544976106178
 10
6.869324866494479
 20
9.153787028713962
 10
6.48759460332307
 20
9.125694102107097
 10
6.106622731607982
 20
9.096463141305952
 10
5.726341640419814
 20
9.065907305245856
 10
5.3469174234784855
 20
9.03413543496919
 10
4.968142896544955
 20
9.001391193537671
 10
4.590215004639605
 20
8.967518757291057
 10
4.213174869122566
 20
8.932165357548739
 10
3.837012240494805
 20
8.89541892190435
 10
3.461784459626066
 20
8.85755439540056
 10
3.087501847977722
 20
8.818483233098537
 10
2.714174696170151
 20
8.77811715463595
 10
2.34189120665385
 20
8.73646635216067
 10
1.9705426368589303
 20
8.693696841480794
 10
1.60019665939685
 20
8.649994934507983
 10
1.230982587797893
 20
8.605018142901658
 10
0.8629210033027993
 20
8.55858990593717
 10
0.4959913760725262
 20
8.510886343378315
 10
0.13027256372847965
 20
8.461997814055625
 10
-0.2343219604844142
 20
8.411899750497506
 10
-0.5977142538950054
 20
8.36069036063763
 10
-0.9598264046731889
 20
8.30846811698618
 10
-1.3207054836289687
 20
8.254869970522517
 10
-1.6802632985922
 20
8.19990620158667
 10
-2.038463059092898
 20
8.144028051369437
 10
-2.3953723966211413
 20
8.08704885519048
 10
-2.750804646496596
 20
8.028900981559712
 10
-3.10493619305957
 20
7.969563869797066
 10
-3.4575906519697477
 20
7.90905808058261
 10
-3.808700391737053
 20
7.84757027859668
 10
-4.1584520770418205
 20
7.785168095329366
 10
-4.506706114013731
 20
7.721420850269935
 10
-4.853347800352678
 20
7.656878257119367
 10
-5.198485888908869
 20
7.5917064198779425
 10
-5.542146889812277
 20
7.525365905184705
 10
-5.884066226552434
 20
7.457887554059756
 10
-6.224362932319591
 20
7.389525662673519
 10
-6.563047287453786
 20
7.320368423196147
 10
-6.9000987312749436
 20
7.250239451287337
 10
-7.235351159782794
 20
7.179247499797304
 10
-7.568980957317652
 20
7.107372008045986
 10
-7.900842580559298
 20
7.034898113223905
 10
-8.230915468827673
 20
6.961649430990757
 10
-8.559189341782742
 20
6.887537769176387
 10
-8.885674479764539
 20
6.812651319950951
 10
-9.210303251282973
 20
6.737176747994784
 10
-9.533163848508202
 20
6.6611037729678575
 10
-9.854059326419845
 20
6.584276571209927
 10
-10.172989685017914
 20
6.5066951427209965
 10
-10.49003283613252
 20
6.428261014990874
 10
-10.805110867933552
 20
6.349072660529749
 10
-11.118254621441096
 20
6.269394655848082
 10
-11.429386184825036
 20
6.1893254734560585
 10
-11.73846443672525
 20
6.108512344673065
 10
-12.04557756931188
 20
6.026944989159069
 10
-12.350450725734438
 20
5.944566055764014
 10
-12.653291131353326
 20
5.861619560318295
 10
-12.954109066508583
 20
5.7781936949920665
 10
-13.252728146859893
 20
5.694309020465394
 10
-13.549138092067231
 20
5.609877344568123
 10
-13.843396253280646
 20
5.524623810449761
 10
-14.135455559690124
 20
5.438911467130954
 10
-14.425346852315757
 20
5.353004891122163
 10
-14.712930537287228
 20
5.266473401912651
 10
-14.998294806774688
 20
5.17930671916239
 10
-15.281283837117902
 20
5.091701787891747
 10
-15.56198582048702
 20
5.003648327760693
 10
-15.840411037222077
 20
4.91523453093938
 10
-16.116440454132817
 20
4.826206101257381
 10
-16.390094631899313
 20
4.736739423055001
 10
-16.661373570521555
 20
4.646834496332243
 10
-16.930318391359677
 20
4.556844089769718
 10
-17.196742429733344
 20
4.46670057187734
 10
-17.460791228962762
 20
4.37611880546458
 10
-17.722356036197713
 20
4.284932686531167
 10
-17.98138978062817
 20
4.193505264097749
 10
-18.238001215104358
 20
4.102002642164594
 10
-18.492061026095985
 20
4.010082332391127
 10
-18.74350158211298
 20
3.9179309994576834
 10
-18.99250954783566
 20
3.825616274854354
 10
-19.238908538923727
 20
3.733158719261203
 10
-19.482667714357092
 20
3.640293756167768
 10
-19.72381791515584
 20
3.5472859620845147
 10
-19.962369421660018
 20
3.4542235291815904
 10
-20.198311953529583
 20
3.361018265288846
 10
-20.431557318594372
 20
3.267680450746313
 10
-20.662095236514368
 20
3.174121893383836
 10
-20.89002417979976
 20
3.0804205050315385
 10
-21.11516776411023
 20
2.9865968463694834
 10
-21.337546550125843
 20
2.892827301737979
 10
-21.557316361506846
 20
2.7989149261166544
 10
-21.77421262174278
 20
2.7048905605256035
 10
-21.988313242663768
 20
2.610655732454644
 10
-22.199659345629925
 20
2.5165632105843887
 10
-22.408250930641266
 20
2.4226129949148363
 10
-22.61397924484757
 20
2.3286389814457142
 10
-22.816834007908803
 20
2.2345529780068683
 10
-23.016893131655078
 20
2.140256512088111
 10
-23.214031633446265
 20
2.0462111052202774
 10
-23.40832742511248
 20
1.9523182848931804
 10
-23.599759945973652
 20
1.8584016667665124
 10
-23.78824100385963
 20
1.7644715311803063
 10
-23.97379115945048
 20
1.6707042624748691
 10
-24.156389852066145
 20
1.5769234763098934
 10
-24.336047362046646
 20
1.483217364855535
 10
-24.51277396973202
 20
1.389674120281944
 10
-24.686460922272047
 20
1.296127638588848
 10
-24.857139060686826
 20
1.2028424962867081
 10
-25.024855455786383
 20
1.109455644354876
 10
-25.189563036760685
 20
1.0163301318139983
 10
-25.351251523269717
 20
0.9233777664939236
 10
-25.50991063497343
 20
0.8305103562244951
 10
-25.665452179701674
 20
0.7377381813457488
 10
-25.81797462996464
 20
0.645139153687803
 10
-25.967420634612274
 20
0.5529881301011528
 10
-26.1137696329645
 20
0.46110872624548893
 10
-26.25702162502133
 20
0.3695009421208125
 10
-26.397275083292943
 20
0.27824268955724524
 10
-26.534343343098996
 20
0.1872663370646977
 10
-26.66833515728972
 20
0.09673798864344405
 10
-26.79918289437502
 20
0.006844308973824488
 10
-26.926974746525044
 20
-0.08242498228419419
 10
-27.051601960889574
 20
-0.1712359891308853
 10
-27.17316300997881
 20
-0.25951079973612967
 10
-27.29148150945243
 20
-0.3472288534198608
 10
-27.40675440433082
 20
-0.43423432652183735
 10
-27.518815590613684
 20
-0.5204184661918414
 10
-27.62773269979113
 20
-0.6059679371102108
 10
-27.733505731863154
 20
-0.6908827392769469
 10
-27.836134686829755
 20
-0.7751628726920499
 10
-27.935551933200838
 20
-0.858621672675179
 10
-28.031757470976416
 20
-0.9412591392263354
 10
-28.12480865130653
 20
-1.0233501291960114
 10
-28.21464812304113
 20
-1.1046197857337148
 10
-28.30123476482009
 20
-1.1854208775200583
 10
-28.384609698003537
 20
-1.2654006358744292
 10
-28.46473180123134
 20
-1.34491182947744
 10
-28.54162163518357
 20
-1.4237780739887844
 10
-28.61527919986022
 20
-1.5019993694084632
 10
-28.68560602275111
 20
-1.5796536275665962
 10
-28.7527990488766
 20
-1.656585024802942
 10
-28.816562860706142
 20
-1.7330272966078628
 10
-28.877182595430266
 20
-1.808834899661151
 10
-28.93447158836862
 20
-1.8840754654528928
 10
-28.988460680541312
 20
-1.9584844174726292
 10
-29.03921750343842
 20
-2.032248420400699
 10
-29.086664145229832
 20
-2.1052690017269176
 10
-29.130841727275683
 20
-2.1771933927706693
 10
-29.171807600726016
 20
-2.2482964503824485
 10
-29.209494134090743
 20
-2.318391509881915
 10
-29.24392188804994
 20
-2.3873021869287623
 10
-29.275131983963732
 20
-2.4546757128423766
 10
-29.30312442183212
 20
-2.520512087622759
 10
-29.328007954505317
 20
-2.5846452072696335
 10
-29.34965759934319
 20
-2.6466135502521695
 10
-29.36820266987601
 20
-2.7060746282297843
 10
-29.38383416167426
 20
-2.7621567998409784
 10
-29.396447652777876
 20
-2.8142221592146117
 10
-29.406295820797514
 20
-2.8608699119682637
 10
-29.413631343343855
 20
-2.9006992637195106
 10
-29.418524564237376
 20
-2.931573041704608
 10
-29.421320684149048
 20
-2.9512967220097526
 10
-29.357294682233633
 20
-3.51512820792071
 10
-29.355094733659055
 20
-3.519430682137914
 10
-29.34850516827536
 20
-3.5322499126193714
 10
-29.337567107442666
 20
-3.5532331306844696
 10
-29.322017593210283
 20
-3.583869322885784
 10
-29.30181712277782
 20
-3.6260310854765994
 10
-29.27741208165682
 20
-3.6751221452689085
 10
-29.249032968218142
 20
-3.7283982646479226
 10
-29.216989811222522
 20
-3.7847335060817127
 10
-29.181410305640487
 20
-3.842265553657026
 10
-29.14229878236217
 20
-3.9001903975024477
 10
-29.09988302742805
 20
-3.958087637447276
 10
-29.0541159700281
 20
-4.015594224470867
 10
-29.005038731522454
 20
-4.072357389892606
 10
-28.952671872591175
 20
-4.128200749372185
 10
-28.89701539323426
 20
-4.183124302909606
 10
-28.838167765961895
 20
-4.237050138674746
 10
-28.776061359284
 20
-4.289791591987267
 10
-28.710685892860536
 20
-4.3414368550173235
 10
-28.642139839201686
 20
-4.391908015934791
 10
-28.570314445457242
 20
-4.441371178739948
 10
-28.49521999196722
 20
-4.489738151262639
 10
-28.41705342375201
 20
-4.536853109842622
 10
-28.335519323281048
 20
-4.58294978997026
 10
-28.250892547404817
 20
-4.627970840495498
 10
-28.16298643144299
 20
-4.671983892908422
 10
-28.071899447905743
 20
-4.714911035378914
 10
-27.977641877133117
 20
-4.756664075736819
 10
-27.88018287810501
 20
-4.7975075904925975
 10
-27.77954301150149
 20
-4.8372651953059425
 10
-27.675681155962426
 20
-4.876289658857469
 10
-27.568628152507912
 20
-4.914316404636715
 10
-27.45845163262804
 20
-4.95153209732402
 10
-27.345063404152654
 20
-4.987926456579353
 10
-27.228442906401696
 20
-5.023675866743019
 10
-27.108688611885338
 20
-5.0587024159848974
 10
-26.985790240263558
 20
-5.093094296475143
 10
-26.859747791536357
 20
-5.126851508213754
 10
-26.73044223251348
 20
-5.16022834737116
 10
-26.59806022787526
 20
-5.193157182457272
 10
-26.462435673621435
 20
-5.22552926062187
 10
-26.323744954092312
 20
-5.257365142545021
 10
-26.18187931643766
 20
-5.288830932226998
 10
-26.03692695282764
 20
-5.319936910007835
 10
-25.888809951432126
 20
-5.350584603377343
 10
-25.73763706510135
 20
-5.380607908335253
 10
-25.58330982132511
 20
-5.41008473671168
 10
-25.42599432410369
 20
-5.439123841356847
 10
-25.265602381266934
 20
-5.467714941930717
 10
-25.102133992814842
 20
-5.495858038433297
 10
-24.93561999976751
 20
-5.523288554354119
 10
-24.766148594295093
 20
-5.550016770033221
 10
-24.593631584227442
 20
-5.576032405130568
 10
-24.418136601054634
 20
-5.6015221243265
 10
-24.23966364477668
 20
-5.626485927621017
 10
-24.058253836753707
 20
-5.650571046333504
 10
-23.873974808475804
 20
-5.6739641451443035
 10
-23.686748648112843
 20
-5.6965667515432274
 10
-23.4965650753248
 20
-5.718467057700429
 10
-23.303512282281826
 20
-5.73967534395594
 10
-23.10760054932395
 20
-5.760103418139612
 10
-22.908819596111144
 20
-5.779839472421592
 10
-22.707169422643407
 20
-5.798883506801883
 10
-22.502660309260772
 20
-5.817147329110331
 10
-22.295370167793354
 20
-5.834729411857124
 10
-22.085298998241164
 20
-5.851629755042258
 10
-21.872368888774076
 20
-5.8677498861555515
 10
-21.656735663052324
 20
-5.883286750217373
 10
-21.4383214092458
 20
-5.898141874717537
 10
-21.21711584701446
 20
-5.912403451826199
 10
-20.9932174488685
 20
-5.9259935697132375
 10
-20.766657055828006
 20
-5.93864765186819
 10
-20.53740382687289
 20
-5.95063027480152
 10
-20.30534900915293
 20
-5.9621075425134995
 10
-20.070767459518624
 20
-5.973022103854074
 10
-19.833503354309723
 20
-5.98317701380287
 10
-19.59356697386626
 20
-5.992484080189736
 10
-19.351114141848484
 20
-6.001140248035043
 10
-19.106046385746204
 20
-6.0092234291689115
 10
-18.85838426623948
 20
-6.0165572392510365
 10
-18.60821597549847
 20
-6.023151958621447
 10
-18.355551793863214
 20
-6.028919395109992
 10
-18.1003608803136
 20
-6.034124125227133
 10
-17.84266379552971
 20
-6.03858976463256
 10
-17.582439978831463
 20
-6.042492697666583
 10
-17.319896655579267
 20
-6.045588908498805
 10
-17.05484716109279
 20
-6.047946028619315
 10
-16.78737968754218
 20
-6.049574338368146
 10
-16.51757214675756
 20
-6.0505723102554825
 10
-16.245356907248837
 20
-6.050753279600985
 10
-15.970801600506107
 20
-6.0503039110849945
 10
-15.69400469903955
 20
-6.049146292877389
 10
-15.414810379188928
 20
-6.047083479957799
 10
-15.133395025294544
 20
-6.0441360330062865
 10
-14.849727796336301
 20
-6.040568528533312
 10
-14.563808692314202
 20
-6.036380966538878
 10
-14.275637713228242
 20
-6.031573347022982
 10
-13.98533389226868
 20
-6.025891373815197
 10
-13.692917790115573
 20
-6.019158662575217
 10
-13.398260093238644
 20
-6.011717701643622
 10
-13.101537185978195
 20
-6.003589051700479
 10
-12.80268143684414
 20
-5.994586048065446
 10
-12.501801598686692
 20
-5.98454258673825
 10
-12.198866830485766
 20
-5.973723244229353
 10
-11.893944763731437
 20
-5.9623146852190905
 10
-11.586967766933624
 20
-5.950130245027127
 10
-11.27796668111242
 20
-5.936905347142999
 10
-10.967097329928075
 20
-5.922836936587083
 10
-10.654349433040547
 20
-5.908013205529527
 10
-10.339546606109534
 20
-5.89241359329027
 10
-10.022963705985525
 20
-5.875980748719252
 10
-9.70453310117844
 20
-5.858528007136138
 10
-9.384254791688274
 20
-5.840055368540927
 10
-9.06220668934514
 20
-5.820661305443803
 10
-8.73833739244889
 20
-5.800786778695534
 10
-8.412765934189766
 20
-5.780177492125695
 10
-8.085445243757748
 20
-5.758470396713637
 10
-7.756365040812798
 20
-5.735753684629512
 10
-7.425701709695229
 20
-5.712047916553387
 10
-7.093325936874756
 20
-5.687695580825845
 10
-6.759346475201594
 20
-5.66253057344661
 10
-6.423763324675748
 20
-5.63655289441568
 10
-6.08659704597728
 20
-5.609586159392751
 10
-5.747837358766156
 20
-5.5817185605479755
 10
-5.407640086702627
 20
-5.553147042901727
 10
-5.065849406126442
 20
-5.52367466143363
 10
-4.722662262057968
 20
-5.493145592483446
 10
-4.378068374157188
 20
-5.461648028221326
 10
-4.032057462084056
 20
-5.429270160817426
 10
-3.6845516140084573
 20
-5.395913517761558
 10
-3.335835967120922
 20
-5.361432555733514
 10
-2.9858326095913155
 20
-5.325728802223107
 10
-2.6343916672093006
 20
-5.289321129911227
 10
-2.28169980465521
 20
-5.2521419073077835
 10
-1.9279068961393968
 20
-5.213672261731889
 10
-1.5728057163014613
 20
-5.1741562090139395
 10
-1.2164741769715113
 20
-5.133692221664122
 10
-0.8591092231699287
 20
-5.0921244760221915
 10
-0.5005447508964368
 20
-5.049344219237932
 10
-0.1409571444913383
 20
-5.005372011991407
 10
0.21978290957564173
 20
-4.9605503426232
 10
0.58156665845429
 20
-4.914713107133035
 10
0.944254508274299
 20
-4.867429625010176
 10
1.3079654922259005
 20
-4.818954192425054
 10
1.6726525394990877
 20
-4.7696498583983145
 10
2.0381966477446203
 20
-4.719262591336038
 10
2.4046773942077104
 20
-4.667708205859607
 10
2.77202809318955
 20
-4.615181480329011
 10
3.140207654171027
 20
-4.56132991064015
 10
3.509216097712826
 20
-4.50615367317736
 10
3.8790063530049244
 20
-4.450015816961294
 10
4.249500549338552
 20
-4.393015167270814
 10
4.62077660882418
 20
-4.335053339787906
 10
4.992715508551892
 20
-4.275876126534309
 10
5.3653378194820895
 20
-4.215660000042504
 10
5.7386435827361515
 20
-4.1544053130811704
 10
6.1125445958635565
 20
-4.09212225779817
 10
6.487010048685248
 20
-4.028546522259554
 10
6.86206050188129
 20
-3.9638544908056272
 10
7.237560692471496
 20
-3.8984194927970717
 10
7.613676765577498
 20
-3.8321331281523467
 10
7.990201485558567
 20
-3.7647512928488887
 10
8.367233345485557
 20
-3.696352075101157
 10
8.744595961018165
 20
-3.626956035589218
 10
9.122387814946915
 20
-3.556641174335364
 10
9.500598637212118
 20
-3.48531938736161
 10
9.879062323813496
 20
-3.4130994275181745
 10
10.25788762760127
 20
-3.340147398805332
 10
10.63706429907643
 20
-3.26637537362944
 10
11.016405642717611
 20
-3.1917154559239
 10
11.39601015159568
 20
-3.11624573390317
 10
11.77581019422055
 20
-3.0401528722475955
 10
12.155852851682582
 20
-2.963073910128696
 10
12.535982279760866
 20
-2.885205616182503
 10
12.91621903913545
 20
-2.806724374749325
 10
13.296552859746651
 20
-2.7275420818511784
 10
13.676963180914406
 20
-2.6474823531477565
 10
14.057470573599112
 20
-2.566721661171535
 10
14.43791916273883
 20
-2.485456509982037
 10
14.818376600384333
 20
-2.4035004112832623
 10
15.198785535385563
 20
-2.321128221925704
 10
15.57911510616174
 20
-2.238075189014561
 10
15.959355042653174
 20
-2.1542532085718507
 10
16.33952590553993
 20
-2.0698386649378797
 10
16.71948208981975
 20
-1.9851161661501535
 10
17.09931181850382
 20
-1.900075696445148
 10
17.478896037841203
 20
-1.8144627832680977
 10
17.858245007611256
 20
-1.7283654424048123
 10
18.237358738094315
 20
-1.641783762047465
 10
18.616247489069732
 20
-1.5548057579818668
 10
18.994724544455465
 20
-1.4673633577570806
 10
19.372888407602737
 20
-1.3795347377797362
 10
19.750661104999356
 20
-1.2914178414070006
 10
20.128151440897273
 20
-1.2031792135999952
 10
20.505141817072968
 20
-1.1144858526286447
 10
20.88164252414682
 20
-1.0254260388552694
 10
21.25779315598914
 20
-0.9364304527906055
 10
21.63335559481775
 20
-0.8469900611329451
 10
22.008319529451576
 20
-0.7570164071356259
 10
22.38283486494199
 20
-0.6670286280560448
 10
22.756745695386027
 20
-0.5772229633772146
 10
23.130078551474327
 20
-0.487060156122521
 10
23.502755480255413
 20
-0.39663832603347043
 10
23.87468822787709
 20
-0.3059672242970736
 10
24.245985578030595
 20
-0.21521321949011632
 10
24.616569567484103
 20
-0.12447434316193297
 10
24.986450445736647
 20
-0.033838522906165215
 10
25.355519429096955
 20
0.056860609853968375
 10
25.723755915763633
 20
0.14779979222745837
 10
26.091190736476413
 20
0.2387145358960126
 10
26.457823880954983
 20
0.3296049290518031
 10
26.8234891321153
 20
0.420363188958481
 10
27.188362946260067
 20
0.5110092589509215
 10
27.55223799522548
 20
0.6017880367812206
 10
27.915124538790884
 20
0.6926115066635662
 10
28.277073937535082
 20
0.7830390605158705
 10
28.638075921398386
 20
0.8731588023161184
 10
28.997933411716012
 20
0.9631277022227626
 10
29.35683314513066
 20
1.0528775114005235
 10
29.714588343878262
 20
1.1424768314533618
 10
30.071287220689644
 20
1.2319357663369686
 10
30.426862072112357
 20
1.3210682687161972
 10
30.781224634013842
 20
1.4098646755962043
 10
31.134483690085354
 20
1.4981586184002065
 10
31.48643188132206
 20
1.5861952594568098
 10
31.837245664026653
 20
1.6739945421008904
 10
32.18673826043505
 20
1.761625067936406
 10
32.534971301185735
 20
1.848558124903286
 10
32.88185653242654
 20
1.9347839618145222
 10
33.22750872841995
 20
2.0208516750259076
 10
33.57165284726933
 20
2.10682020314656
 10
33.91454758799766
 20
2.192003952150128
 10
34.256006162560475
 20
2.2764716118327377
 10
34.595987398196
 20
2.360576391835858
 10
34.93449127434351
 20
2.4443184685438255
 10
35.27152804050203
 20
2.527609914363001
 10
35.60714907781105
 20
2.6100099448269543
 10
35.94115727676476
 20
2.691675794670651
 10
36.27369828348676
 20
2.7728917191629163
 10
36.60459554915131
 20
2.8536385686984045
 10
36.93386960359746
 20
2.933740223513324
 10
37.26154098694458
 20
3.013020475651703
 10
37.58758909739126
 20
3.091656062222531
 10
37.91192563996391
 20
3.169637584807476
 10
38.23465940863416
 20
3.246798586637586
 10
38.555613854576244
 20
3.323119918107517
 10
38.87484637006155
 20
3.3988760832990783
 10
39.19218038570369
 20
3.4740481089912714
 10
39.50790121345895
 20
3.5484889525969927
 10
39.82167633691658
 20
3.6219837541809103
 10
40.13368225350064
 20
3.6945521043092184
 10
40.44390864174972
 20
3.7662825479207487
 10
40.752158392158016
 20
3.837332319750466
 10
41.05844173366388
 20
3.9076136685890703
 10
41.36294543375101
 20
3.9770580810247687
 10
41.665414970081535
 20
4.045548464095056
 10
41.96595911606632
 20
4.1129185374153145
 10
42.26445873571174
 20
4.179423479077675
 10
42.56099177168894
 20
4.245161497015814
 10
42.85548020936437
 20
4.310035000641246
 10
43.1479240076167
 20
4.374044342722652
 10
43.438265702212114
 20
4.436915636523409
 10
43.726562695702384
 20
4.498923297933164
 10
44.01264868876075
 20
4.559960249752926
 10
44.29659134371834
 20
4.620212892086524
 10
44.578421481034574
 20
4.679416824807842
 10
44.85806106551525
 20
4.737474633712736
 10
45.13547921501888
 20
4.79465124808034
 10
45.41067589870449
 20
4.850946932487172
 10
45.68365107545069
 20
4.906362039701909
 10
45.95424873655115
 20
4.960701212163244
 10
46.222665940109934
 20
5.013807656097063
 10
46.48876297917302
 20
5.066113022127968
 10
46.752461828826526
 20
5.11751980785965
 10
47.01385071208164
 20
5.168038029055628
 10
47.27286188436454
 20
5.217481991149439
 10
47.52939676008127
 20
5.265930576085068
 10
47.78362156659622
 20
5.313491478406697
 10
48.03539055498235
 20
5.359881324767202
 10
48.28468313371861
 20
5.405276764083402
 10
48.53150955230397
 20
5.4495898687616515
 10
48.77583891831666
 20
5.493085656273262
 10
49.01769176159573
 20
5.535588006854439
 10
49.25697976660692
 20
5.57708769847119
 10
49.49371318284927
 20
5.617496803529874
 10
49.72796997355457
 20
5.6569133535798235
 10
49.959563268435716
 20
5.695406743954532
 10
50.18849301609098
 20
5.732977415614848
 10
50.414857750712606
 20
5.769546927577632
 10
50.63866776292096
 20
5.80502699948056
 10
50.85971583763597
 20
5.839661558961855
 10
51.078089282918555
 20
5.873468470888187
 10
51.29381993698179
 20
5.906174604108586
 10
51.50680883385917
 20
5.937862103677342
 10
51.71703539230997
 20
5.968707530319104
 10
51.92460841658606
 20
5.998544339072746
 10
52.129361586800066
 20
6.027265629123619
 10
52.331362585843785
 20
6.0550576241912175
 10
52.530601102536124
 20
6.082008781022202
 10
52.7269888316232
 20
6.1081097893904115
 10
52.920546302944096
 20
6.133184529532053
 10
53.11126318475703
 20
6.157321634578124
 10
53.299118895821294
 20
6.180697665253279
 10
53.484123675355534
 20
6.20322478215604
 10
53.66620978906628
 20
6.2247172025277715
 10
53.845377185551826
 20
6.245175367329325
 10
54.021673007584546
 20
6.26496170823615
 10
54.19501920968995
 20
6.283978899236281
 10
54.36541578158768
 20
6.302227028521884
 10
54.53287295221605
 20
6.319618344883654
 10
54.6973024266015
 20
6.336143449903262
 10
54.858792438035586
 20
6.351812271152063
 10
55.017234141145
 20
6.366791706359859
 10
55.17264804520812
 20
6.380905812147196
 10
55.32501356898418
 20
6.394331149238718
 10
55.47443952700546
 20
6.406901084481132
 10
55.620728768644774
 20
6.418773205378082
 10
55.763959267414286
 20
6.430045455286734
 10
55.90405299840014
 20
6.440620331810775
 10
56.04110849579456
 20
6.450419393967059
 10
56.17501681142087
 20
6.459610421407097
 10
56.305886708409616
 20
6.468027221938443
 10
56.43351140345502
 20
6.475910019128175
 10
56.55807690329568
 20
6.483196825785098
 10
56.679406926394655
 20
6.489866199307439
 10
56.79758972660416
 20
6.495927890882216
 10
56.912625283363525
 20
6.5013820768937665
 10
57.024503285491654
 20
6.506317214088752
 10
57.13314572863541
 20
6.510635623686523
 10
57.23853201099337
 20
6.514514042796063
 10
57.340760697598746
 20
6.51787376585772
 10
57.43973318229694
 20
6.520793851199829
 10
57.535459735147654
 20
6.5231861948444045
 10
57.62793006553053
 20
6.5251390771537725
 10
57.717154422944546
 20
6.526564570534289
 10
57.80312251676936
 20
6.527550955348276
 10
57.885813776044564
 20
6.528274704128213
 10
57.965160445915956
 20
6.528550210499799
 10
58.04132881542998
 20
6.528484639854193
 10
58.114043719325906
 20
6.528137989106556
 10
58.18358029202342
 20
6.527450525918235
 10
58.249761943575415
 20
6.52640345345257
 10
58.31256810302147
 20
6.525173244242034
 10
58.37209732511452
 20
6.523681280919152
 10
58.42826130460066
 20
6.521918253257758
 10
58.48103948079982
 20
6.52006054559816
 10
58.53054067852459
 20
6.517941436594892
 10
58.5766560524017
 20
6.515727823977762
 10
58.619395862210524
 20
6.513331691960953
 10
58.65873954727096
 20
6.510929424884778
 10
58.69469738792307
 20
6.508432830579078
 10
58.72734736795933
 20
6.505939764208848
 10
58.756512907712995
 20
6.503431340745259
 10
58.78227202181757
 20
6.501005150776793
 10
58.80471298468594
 20
6.498670769106123
 10
58.82365921665132
 20
6.496409310704415
 10
58.83917843144655
 20
6.494406734714648
 10
58.85136922494586
 20
6.4925840710006595
 10
58.86003441568109
 20
6.491099171642606
 10
58.86525204912676
 20
6.490049362652459
 10
58.86700153376179
 20
6.4896112929470355
 10
58.80274940855806
 20
7.040812356405746
  0
ENDSEC
  0
SECTION
  2
OBJECTS
  0
DICTIONARY
  5
A
330
0
100
AcDbDictionary
280
0
281
1
  3
ACAD_COLOR
350
B
  3
ACAD_GROUP
350
C
  3
ACAD_LAYOUT
350
D
  3
ACAD_MATERIAL
350
E
  3
ACAD_MLEADERSTYLE
350
F
  3
ACAD_MLINESTYLE
350
10
  3
ACAD_PLOTSETTINGS
350
11
  3
ACAD_PLOTSTYLENAME
350
12
  3
ACAD_SCALELIST
350
14
  3
ACAD_TABLESTYLE
350
15
  3
ACAD_VISUALSTYLE
350
16
  3
EZDXF_META
350
2D
  0
DICTIONARY
  5
B
330
A
100
AcDbDictionary
280
0
281
1
  0
DICTIONARY
  5
C
330
A
100
AcDbDictionary
280
0
281
1
  0
DICTIONARY
  5
D
330
A
100
AcDbDictionary
280
0
281
1
  3
Model
350
1A
  3
Layout1
350
1E
  0
DICTIONARY
  5
E
330
A
100
AcDbDictionary
280
0
281
1
  3
ByBlock
350
1F
  3
ByLayer
350
20
  3
Global
350
21
  0
DICTIONARY
  5
F
330
A
100
AcDbDictionary
280
0
281
1
  3
Standard
350
2C
  0
DICTIONARY
  5
10
330
A
100
AcDbDictionary
280
0
281
1
  3
Standard
350
22
  0
DICTIONARY
  5
11
330
A
100
AcDbDictionary
280
0
281
1
  0
ACDBDICTIONARYWDFLT
  5
12
330
A
100
AcDbDictionary
280
0
281
1
  3
Normal
350
13
100
AcDbDictionaryWithDefault
340
13
  0
ACDBPLACEHOLDER
  5
13
330
12
  0
DICTIONARY
  5
14
330
A
100
AcDbDictionary
280
0
281
1
  0
DICTIONARY
  5
15
330
A
100
AcDbDictionary
280
0
281
1
  0
DICTIONARY
  5
16
330
A
100
AcDbDictionary
280
0
281
1
  0
LAYOUT
  5
1A
330
D
100
AcDbPlotSettings
  1

  4
A3
  6

 40
7.5
 41
20.0
 42
7.5
 43
20.0
 44
420.0
 45
297.0
 46
0.0
 47
0.0
 48
0.0
 49
0.0
140
0.0
141
0.0
142
1.0
143
1.0
 70
1024
 72
1
 73
0
 74
5
  7

 75
16
 76
0
 77
2
 78
300
147
1.0
148
0.0
149
0.0
100
AcDbLayout
  1
Model
 70
1
 71
0
 10
0.0
 20
0.0
 11
420.0
 21
297.0
 12
0.0
 22
0.0
 32
0.0
 14
1e+20
 24
1e+20
 34
1e+20
 15
-1e+20
 25
-1e+20
 35
-1e+20
146
0.0
 13
0.0
 23
0.0
 33
0.0
 16
1.0
 26
0.0
 36
0.0
 17
0.0
 27
1.0
 37
0.0
 76
1
330
17
  0
LAYOUT
  5
1E
330
D
100
AcDbPlotSettings
  1

  4
A3
  6

 40
7.5
 41
20.0
 42
7.5
 43
20.0
 44
420.0
 45
297.0
 46
0.0
 47
0.0
 48
0.0
 49
0.0
140
0.0
141
0.0
142
1.0
143
1.0
 70
0
 72
1
 73
0
 74
5
  7

 75
16
 76
0
 77
2
 78
300
147
1.0
148
0.0
149
0.0
100
AcDbLayout
  1
Layout1
 70
1
 71
1
 10
0.0
 20
0.0
 11
420.0
 21
297.0
 12
0.0
 22
0.0
 32
0.0
 14
1e+20
 24
1e+20
 34
1e+20
 15
-1e+20
 25
-1e+20
 35
-1e+20
146
0.0
 13
0.0
 23
0.0
 33
0.0
 16
1.0
 26
0.0
 36
0.0
 17
0.0
 27
1.0
 37
0.0
 76
1
330
1B
  0
MATERIAL
  5
1F
102
{ACAD_REACTORS
330
E
102
}
330
E
100
AcDbMaterial
  1
ByBlock
  2

 70
0
 40
1.0
 71
1
 41
1.0
 91
-1023410177
 42
1.0
 72
1
  3

 73
1
 74
1
 75
1
 44
0.5
 73
0
 45
1.0
 46
1.0
 77
1
  4

 78
1
 79
1
170
1
 48
1.0
171
1
  6

172
1
173
1
174
1
140
1.0
141
1.0
175
1
  7

176
1
177
1
178
1
143
1.0
179
1
  8

270
1
271
1
272
1
145
1.0
146
1.0
273
1
  9

274
1
275
1
276
1
 42
1.0
 72
1
  3

 73
1
 74
1
 75
1
 94
63
  0
MATERIAL
  5
20
102
{ACAD_REACTORS
330
E
102
}
330
E
100
AcDbMaterial
  1
ByLayer
  2

 70
0
 40
1.0
 71
1
 41
1.0
 91
-1023410177
 42
1.0
 72
1
  3

 73
1
 74
1
 75
1
 44
0.5
 73
0
 45
1.0
 46
1.0
 77
1
  4

 78
1
 79
1
170
1
 48
1.0
171
1
  6

172
1
173
1
174
1
140
1.0
141
1.0
175
1
  7

176
1
177
1
178
1
143
1.0
179
1
  8

270
1
271
1
272
1
145
1.0
146
1.0
273
1
  9

274
1
275
1
276
1
 42
1.0
 72
1
  3

 73
1
 74
1
 75
1
 94
63
  0
MATERIAL
  5
21
102
{ACAD_REACTORS
330
E
102
}
330
E
100
AcDbMaterial
  1
Global
  2

 70
0
 40
1.0
 71
1
 41
1.0
 91
-1023410177
 42
1.0
 72
1
  3

 73
1
 74
1
 75
1
 44
0.5
 73
0
 45
1.0
 46
1.0
 77
1
  4

 78
1
 79
1
170
1
 48
1.0
171
1
  6

172
1
173
1
174
1
140
1.0
141
1.0
175
1
  7

176
1
177
1
178
1
143
1.0
179
1
  8

270
1
271
1
272
1
145
1.0
146
1.0
273
1
  9

274
1
275
1
276
1
 42
1.0
 72
1
  3

 73
1
 74
1
 75
1
 94
63
  0
MLINESTYLE
  5
22
102
{ACAD_REACTORS
330
10
102
}
330
10
100
AcDbMlineStyle
  2
Standard
 70
0
  3

 62
256
 51
90.0
 52
90.0
 71
2
 49
0.5
 62
256
  6
BYLAYER
 49
-0.5
 62
256
  6
BYLAYER
  0
MLEADERSTYLE
  5
2C
102
{ACAD_REACTORS
330
F
102
}
330
F
100
AcDbMLeaderStyle
179
2
170
2
171
1
172
0
 90
2
 40
0.0
 41
0.0
173
1
 91
-1056964608
 92
-2
290
1
 42
2.0
291
1
 43
8.0
  3
Standard
 44
4.0
300

342
29
174
1
175
1
176
0
178
1
 93
-1056964608
 45
4.0
292
0
297
0
 46
4.0
 94
-1056964608
 47
1.0
 49
1.0
140
1.0
294
1
141
0.0
177
0
142
1.0
295
0
296
0
143
3.75
271
0
272
9
273
9
  0
DICTIONARY
  5
2D
330
A
100
AcDbDictionary
280
1
281
1
  3
CREATED_BY_EZDXF
350
2E
  3
WRITTEN_BY_EZDXF
350
32
  0
DICTIONARYVAR
  5
2E
330
2D
100
DictionaryVariables
280
0
  1
1.3.5 @ 2025-08-22T23:49:24.025322+00:00
  0
DICTIONARYVAR
  5
32
330
2D
100
DictionaryVariables
280
0
  1
1.3.5 @ 2025-08-22T23:49:24.032380+00:00
  0
ENDSEC
  0
EOF
