  0
SECTION
  2
HEADER
  9
$ACADVER
  1
AC1032
  9
$ACADMAINTVER
 90
4
  9
$DWGCODEPAGE
  3
ANSI_1252
  9
$LASTSAVEDBY
  1
ezdxf
  9
$REQUIREDVERSIONS
160
0
  9
$INSBASE
 10
0.0
 20
0.0
 30
0.0
  9
$EXTMIN
 10
1e+20
 20
1e+20
 30
1e+20
  9
$EXTMAX
 10
-1e+20
 20
-1e+20
 30
-1e+20
  9
$LIMMIN
 10
0.0
 20
0.0
  9
$LIMMAX
 10
420.0
 20
297.0
  9
$ORTHOMODE
 70
0
  9
$REGENMODE
 70
1
  9
$FILLMODE
 70
1
  9
$QTEXTMODE
 70
0
  9
$MIRRTEXT
 70
1
  9
$LTSCALE
 40
1.0
  9
$ATTMODE
 70
1
  9
$TEXTSIZE
 40
2.5
  9
$TRACEWID
 40
1.0
  9
$TEXTSTYLE
  7
Standard
  9
$CLAYER
  8
0
  9
$CELTYPE
  6
ByLayer
  9
$CECOLOR
 62
256
  9
$CELTSCALE
 40
1.0
  9
$DISPSILH
 70
0
  9
$DIMSCALE
 40
1.0
  9
$DIMASZ
 40
2.5
  9
$DIMEXO
 40
0.625
  9
$DIMDLI
 40
3.75
  9
$DIMRND
 40
0.0
  9
$DIMDLE
 40
0.0
  9
$DIMEXE
 40
1.25
  9
$DIMTP
 40
0.0
  9
$DIMTM
 40
0.0
  9
$DIMTXT
 40
2.5
  9
$DIMCEN
 40
2.5
  9
$DIMTSZ
 40
0.0
  9
$DIMTOL
 70
0
  9
$DIMLIM
 70
0
  9
$DIMTIH
 70
0
  9
$DIMTOH
 70
0
  9
$DIMSE1
 70
0
  9
$DIMSE2
 70
0
  9
$DIMTAD
 70
1
  9
$DIMZIN
 70
8
  9
$DIMBLK
  1

  9
$DIMASO
 70
1
  9
$DIMSHO
 70
1
  9
$DIMPOST
  1

  9
$DIMAPOST
  1

  9
$DIMALT
 70
0
  9
$DIMALTD
 70
3
  9
$DIMALTF
 40
0.03937007874
  9
$DIMLFAC
 40
1.0
  9
$DIMTOFL
 70
1
  9
$DIMTVP
 40
0.0
  9
$DIMTIX
 70
0
  9
$DIMSOXD
 70
0
  9
$DIMSAH
 70
0
  9
$DIMBLK1
  1

  9
$DIMBLK2
  1

  9
$DIMSTYLE
  2
ISO-25
  9
$DIMCLRD
 70
0
  9
$DIMCLRE
 70
0
  9
$DIMCLRT
 70
0
  9
$DIMTFAC
 40
1.0
  9
$DIMGAP
 40
0.625
  9
$DIMJUST
 70
0
  9
$DIMSD1
 70
0
  9
$DIMSD2
 70
0
  9
$DIMTOLJ
 70
0
  9
$DIMTZIN
 70
8
  9
$DIMALTZ
 70
0
  9
$DIMALTTZ
 70
0
  9
$DIMUPT
 70
0
  9
$DIMDEC
 70
2
  9
$DIMTDEC
 70
2
  9
$DIMALTU
 70
2
  9
$DIMALTTD
 70
3
  9
$DIMTXSTY
  7
Standard
  9
$DIMAUNIT
 70
0
  9
$DIMADEC
 70
0
  9
$DIMALTRND
 40
0.0
  9
$DIMAZIN
 70
0
  9
$DIMDSEP
 70
44
  9
$DIMATFIT
 70
3
  9
$DIMFRAC
 70
0
  9
$DIMLDRBLK
  1

  9
$DIMLUNIT
 70
2
  9
$DIMLWD
 70
-2
  9
$DIMLWE
 70
-2
  9
$DIMTMOVE
 70
0
  9
$DIMFXL
 40
1.0
  9
$DIMFXLON
 70
0
  9
$DIMJOGANG
 40
0.785398163397
  9
$DIMTFILL
 70
0
  9
$DIMTFILLCLR
 70
0
  9
$DIMARCSYM
 70
0
  9
$DIMLTYPE
  6

  9
$DIMLTEX1
  6

  9
$DIMLTEX2
  6

  9
$DIMTXTDIRECTION
 70
0
  9
$LUNITS
 70
2
  9
$LUPREC
 70
4
  9
$SKETCHINC
 40
1.0
  9
$FILLETRAD
 40
10.0
  9
$AUNITS
 70
0
  9
$AUPREC
 70
2
  9
$MENU
  1
.
  9
$ELEVATION
 40
0.0
  9
$PELEVATION
 40
0.0
  9
$THICKNESS
 40
0.0
  9
$LIMCHECK
 70
0
  9
$CHAMFERA
 40
0.0
  9
$CHAMFERB
 40
0.0
  9
$CHAMFERC
 40
0.0
  9
$CHAMFERD
 40
0.0
  9
$SKPOLY
 70
0
  9
$TDCREATE
 40
2460911.0342939813
  9
$TDUCREATE
 40
2458532.153996898
  9
$TDUPDATE
 40
2460911.0342939813
  9
$TDUUPDATE
 40
2458532.1544311
  9
$TDINDWG
 40
0.0
  9
$TDUSRTIMER
 40
0.0
  9
$USRTIMER
 70
1
  9
$ANGBASE
 50
0.0
  9
$ANGDIR
 70
0
  9
$PDMODE
 70
0
  9
$PDSIZE
 40
0.0
  9
$PLINEWID
 40
0.0
  9
$SPLFRAME
 70
0
  9
$SPLINETYPE
 70
6
  9
$SPLINESEGS
 70
8
  9
$HANDSEED
  5
33
  9
$SURFTAB1
 70
6
  9
$SURFTAB2
 70
6
  9
$SURFTYPE
 70
6
  9
$SURFU
 70
6
  9
$SURFV
 70
6
  9
$UCSBASE
  2

  9
$UCSNAME
  2

  9
$UCSORG
 10
0.0
 20
0.0
 30
0.0
  9
$UCSXDIR
 10
1.0
 20
0.0
 30
0.0
  9
$UCSYDIR
 10
0.0
 20
1.0
 30
0.0
  9
$UCSORTHOREF
  2

  9
$UCSORTHOVIEW
 70
0
  9
$UCSORGTOP
 10
0.0
 20
0.0
 30
0.0
  9
$UCSORGBOTTOM
 10
0.0
 20
0.0
 30
0.0
  9
$UCSORGLEFT
 10
0.0
 20
0.0
 30
0.0
  9
$UCSORGRIGHT
 10
0.0
 20
0.0
 30
0.0
  9
$UCSORGFRONT
 10
0.0
 20
0.0
 30
0.0
  9
$UCSORGBACK
 10
0.0
 20
0.0
 30
0.0
  9
$PUCSBASE
  2

  9
$PUCSNAME
  2

  9
$PUCSORG
 10
0.0
 20
0.0
 30
0.0
  9
$PUCSXDIR
 10
1.0
 20
0.0
 30
0.0
  9
$PUCSYDIR
 10
0.0
 20
1.0
 30
0.0
  9
$PUCSORTHOREF
  2

  9
$PUCSORTHOVIEW
 70
0
  9
$PUCSORGTOP
 10
0.0
 20
0.0
 30
0.0
  9
$PUCSORGBOTTOM
 10
0.0
 20
0.0
 30
0.0
  9
$PUCSORGLEFT
 10
0.0
 20
0.0
 30
0.0
  9
$PUCSORGRIGHT
 10
0.0
 20
0.0
 30
0.0
  9
$PUCSORGFRONT
 10
0.0
 20
0.0
 30
0.0
  9
$PUCSORGBACK
 10
0.0
 20
0.0
 30
0.0
  9
$USERI1
 70
0
  9
$USERI2
 70
0
  9
$USERI3
 70
0
  9
$USERI4
 70
0
  9
$USERI5
 70
0
  9
$USERR1
 40
0.0
  9
$USERR2
 40
0.0
  9
$USERR3
 40
0.0
  9
$USERR4
 40
0.0
  9
$USERR5
 40
0.0
  9
$WORLDVIEW
 70
1
  9
$SHADEDGE
 70
3
  9
$SHADEDIF
 70
70
  9
$TILEMODE
 70
1
  9
$MAXACTVP
 70
64
  9
$PINSBASE
 10
0.0
 20
0.0
 30
0.0
  9
$PLIMCHECK
 70
0
  9
$PEXTMIN
 10
1e+20
 20
1e+20
 30
1e+20
  9
$PEXTMAX
 10
-1e+20
 20
-1e+20
 30
-1e+20
  9
$PLIMMIN
 10
0.0
 20
0.0
  9
$PLIMMAX
 10
420.0
 20
297.0
  9
$UNITMODE
 70
0
  9
$VISRETAIN
 70
1
  9
$PLINEGEN
 70
0
  9
$PSLTSCALE
 70
1
  9
$TREEDEPTH
 70
3020
  9
$CMLSTYLE
  2
Standard
  9
$CMLJUST
 70
0
  9
$CMLSCALE
 40
20.0
  9
$PROXYGRAPHICS
 70
1
  9
$MEASUREMENT
 70
1
  9
$CELWEIGHT
370
-1
  9
$ENDCAPS
280
0
  9
$JOINSTYLE
280
0
  9
$LWDISPLAY
290
0
  9
$INSUNITS
 70
6
  9
$HYPERLINKBASE
  1

  9
$STYLESHEET
  1

  9
$XEDIT
290
1
  9
$CEPSNTYPE
380
0
  9
$PSTYLEMODE
290
1
  9
$FINGERPRINTGUID
  2
{3C580B20-CC3B-40E1-9492-E1B30419C021}
  9
$VERSIONGUID
  2
{CB3DCBD9-590C-4479-96A1-A9EEB5B1C191}
  9
$EXTNAMES
290
1
  9
$PSVPSCALE
 40
0.0
  9
$OLESTARTUP
290
0
  9
$SORTENTS
280
127
  9
$INDEXCTL
280
0
  9
$HIDETEXT
280
1
  9
$XCLIPFRAME
280
1
  9
$HALOGAP
280
0
  9
$OBSCOLOR
 70
257
  9
$OBSLTYPE
280
0
  9
$INTERSECTIONDISPLAY
280
0
  9
$INTERSECTIONCOLOR
 70
257
  9
$DIMASSOC
280
2
  9
$PROJECTNAME
  1

  9
$CAMERADISPLAY
290
0
  9
$LENSLENGTH
 40
50.0
  9
$CAMERAHEIGHT
 40
0.0
  9
$STEPSPERSEC
 40
24.0
  9
$STEPSIZE
 40
100.0
  9
$3DDWFPREC
 40
2.0
  9
$PSOLWIDTH
 40
0.005
  9
$PSOLHEIGHT
 40
0.08
  9
$LOFTANG1
 40
1.570796326795
  9
$LOFTANG2
 40
1.570796326795
  9
$LOFTMAG1
 40
0.0
  9
$LOFTMAG2
 40
0.0
  9
$LOFTPARAM
 70
7
  9
$LOFTNORMALS
280
1
  9
$LATITUDE
 40
37.795
  9
$LONGITUDE
 40
-122.394
  9
$NORTHDIRECTION
 40
0.0
  9
$TIMEZONE
 70
-8000
  9
$LIGHTGLYPHDISPLAY
280
1
  9
$TILEMODELIGHTSYNCH
280
1
  9
$CMATERIAL
347
20
  9
$SOLIDHIST
280
0
  9
$SHOWHIST
280
1
  9
$DWFFRAME
280
2
  9
$DGNFRAME
280
2
  9
$REALWORLDSCALE
290
1
  9
$INTERFERECOLOR
 62
256
  9
$CSHADOW
280
0
  9
$SHADOWPLANELOCATION
 40
0.0
  0
ENDSEC
  0
SECTION
  2
CLASSES
  0
CLASS
  1
ACDBDICTIONARYWDFLT
  2
AcDbDictionaryWithDefault
  3
ObjectDBX Classes
 90
0
 91
0
280
0
281
0
  0
CLASS
  1
SUN
  2
AcDbSun
  3
SCENEOE
 90
1153
 91
0
280
0
281
0
  0
CLASS
  1
VISUALSTYLE
  2
AcDbVisualStyle
  3
ObjectDBX Classes
 90
4095
 91
0
280
0
281
0
  0
CLASS
  1
MATERIAL
  2
AcDbMaterial
  3
ObjectDBX Classes
 90
1153
 91
0
280
0
281
0
  0
CLASS
  1
SCALE
  2
AcDbScale
  3
ObjectDBX Classes
 90
1153
 91
0
280
0
281
0
  0
CLASS
  1
TABLESTYLE
  2
AcDbTableStyle
  3
ObjectDBX Classes
 90
4095
 91
0
280
0
281
0
  0
CLASS
  1
MLEADERSTYLE
  2
AcDbMLeaderStyle
  3
ACDB_MLEADERSTYLE_CLASS
 90
4095
 91
0
280
0
281
0
  0
CLASS
  1
DICTIONARYVAR
  2
AcDbDictionaryVar
  3
ObjectDBX Classes
 90
0
 91
0
280
0
281
0
  0
CLASS
  1
CELLSTYLEMAP
  2
AcDbCellStyleMap
  3
ObjectDBX Classes
 90
1152
 91
0
280
0
281
0
  0
CLASS
  1
MENTALRAYRENDERSETTINGS
  2
AcDbMentalRayRenderSettings
  3
SCENEOE
 90
1024
 91
0
280
0
281
0
  0
CLASS
  1
ACDBDETAILVIEWSTYLE
  2
AcDbDetailViewStyle
  3
ObjectDBX Classes
 90
1025
 91
0
280
0
281
0
  0
CLASS
  1
ACDBSECTIONVIEWSTYLE
  2
AcDbSectionViewStyle
  3
ObjectDBX Classes
 90
1025
 91
0
280
0
281
0
  0
CLASS
  1
RASTERVARIABLES
  2
AcDbRasterVariables
  3
ISM
 90
0
 91
0
280
0
281
0
  0
CLASS
  1
ACDBPLACEHOLDER
  2
AcDbPlaceHolder
  3
ObjectDBX Classes
 90
0
 91
0
280
0
281
0
  0
CLASS
  1
LAYOUT
  2
AcDbLayout
  3
ObjectDBX Classes
 90
0
 91
0
280
0
281
0
  0
ENDSEC
  0
SECTION
  2
TABLES
  0
TABLE
  2
VPORT
  5
8
330
0
100
AcDbSymbolTable
 70
1
  0
VPORT
  5
23
330
8
100
AcDbSymbolTableRecord
100
AcDbViewportTableRecord
  2
*Active
 70
0
 10
0.0
 20
0.0
 11
1.0
 21
1.0
 12
0.0
 22
0.0
 13
0.0
 23
0.0
 14
0.5
 24
0.5
 15
0.5
 25
0.5
 16
0.0
 26
0.0
 36
1.0
 17
0.0
 27
0.0
 37
0.0
 40
1000.0
 41
1.34
 42
50.0
 43
0.0
 44
0.0
 50
0.0
 51
0.0
 71
0
 72
1000
 73
1
 74
3
 75
0
 76
0
 77
0
 78
0
281
0
 65
0
146
0.0
  0
ENDTAB
  0
TABLE
  2
LTYPE
  5
2
330
0
100
AcDbSymbolTable
 70
3
  0
LTYPE
  5
24
330
2
100
AcDbSymbolTableRecord
100
AcDbLinetypeTableRecord
  2
ByBlock
 70
0
  3

 72
65
 73
0
 40
0.0
  0
LTYPE
  5
25
330
2
100
AcDbSymbolTableRecord
100
AcDbLinetypeTableRecord
  2
ByLayer
 70
0
  3

 72
65
 73
0
 40
0.0
  0
LTYPE
  5
26
330
2
100
AcDbSymbolTableRecord
100
AcDbLinetypeTableRecord
  2
Continuous
 70
0
  3

 72
65
 73
0
 40
0.0
  0
ENDTAB
  0
TABLE
  2
LAYER
  5
1
330
0
100
AcDbSymbolTable
 70
2
  0
LAYER
  5
27
330
1
100
AcDbSymbolTableRecord
100
AcDbLayerTableRecord
  2
0
 70
0
 62
7
  6
Continuous
370
-3
390
13
347
21
  0
LAYER
  5
28
330
1
100
AcDbSymbolTableRecord
100
AcDbLayerTableRecord
  2
Defpoints
 70
0
 62
7
  6
Continuous
290
0
370
-3
390
13
347
21
  0
ENDTAB
  0
TABLE
  2
STYLE
  5
5
330
0
100
AcDbSymbolTable
 70
1
  0
STYLE
  5
29
330
5
100
AcDbSymbolTableRecord
100
AcDbTextStyleTableRecord
  2
Standard
 70
0
 40
0.0
 41
1.0
 50
0.0
 71
0
 42
2.5
  3
txt
  4

  0
ENDTAB
  0
TABLE
  2
VIEW
  5
7
330
0
100
AcDbSymbolTable
 70
0
  0
ENDTAB
  0
TABLE
  2
UCS
  5
6
330
0
100
AcDbSymbolTable
 70
0
  0
ENDTAB
  0
TABLE
  2
APPID
  5
3
330
0
100
AcDbSymbolTable
 70
3
  0
APPID
  5
2A
330
3
100
AcDbSymbolTableRecord
100
AcDbRegAppTableRecord
  2
ACAD
 70
0
  0
APPID
  5
30
330
3
100
AcDbSymbolTableRecord
100
AcDbRegAppTableRecord
  2
HATCHBACKGROUNDCOLOR
 70
0
  0
APPID
  5
31
330
3
100
AcDbSymbolTableRecord
100
AcDbRegAppTableRecord
  2
EZDXF
 70
0
  0
ENDTAB
  0
TABLE
  2
DIMSTYLE
  5
4
330
0
100
AcDbSymbolTable
 70
1
100
AcDbDimStyleTable
  0
DIMSTYLE
105
2B
330
4
100
AcDbSymbolTableRecord
100
AcDbDimStyleTableRecord
  2
Standard
 70
0
 40
1.0
 41
2.5
 42
0.625
 43
3.75
 44
1.25
 45
0.0
 46
0.0
 47
0.0
 48
0.0
 49
2.5
140
2.5
141
2.5
142
0.0
143
0.03937007874
144
1.0
145
0.0
146
1.0
147
0.625
148
0.0
 69
0
 70
0
 71
0
 72
0
 73
0
 74
0
 75
0
 76
0
 77
1
 78
8
 79
3
170
0
171
3
172
1
173
0
174
0
175
0
176
0
177
0
178
0
179
2
271
2
272
2
273
2
274
3
275
0
276
0
277
2
278
44
279
0
280
0
281
0
282
0
283
0
284
8
285
0
286
0
288
0
289
3
290
0
371
-2
372
-2
  0
ENDTAB
  0
TABLE
  2
BLOCK_RECORD
  5
9
330
0
100
AcDbSymbolTable
 70
2
  0
BLOCK_RECORD
  5
17
330
9
100
AcDbSymbolTableRecord
100
AcDbBlockTableRecord
  2
*Model_Space
340
1A
 70
0
280
1
281
0
  0
BLOCK_RECORD
  5
1B
330
9
100
AcDbSymbolTableRecord
100
AcDbBlockTableRecord
  2
*Paper_Space
340
1E
 70
0
280
1
281
0
  0
ENDTAB
  0
ENDSEC
  0
SECTION
  2
BLOCKS
  0
BLOCK
  5
18
330
17
100
AcDbEntity
  8
0
100
AcDbBlockBegin
  2
*Model_Space
 70
0
 10
0.0
 20
0.0
 30
0.0
  3
*Model_Space
  1

  0
ENDBLK
  5
19
330
17
100
AcDbEntity
  8
0
100
AcDbBlockEnd
  0
BLOCK
  5
1C
330
1B
100
AcDbEntity
  8
0
100
AcDbBlockBegin
  2
*Paper_Space
 70
0
 10
0.0
 20
0.0
 30
0.0
  3
*Paper_Space
  1

  0
ENDBLK
  5
1D
330
1B
100
AcDbEntity
  8
0
100
AcDbBlockEnd
  0
ENDSEC
  0
SECTION
  2
ENTITIES
  0
LWPOLYLINE
  5
2F
330
17
100
AcDbEntity
  8
0
100
AcDbPolyline
 90
722
 70
1
 10
86.20327082041707
 20
44.053081530064055
 10
86.20036380976728
 20
44.052716889361974
 10
86.19177419326614
 20
44.05136381752967
 10
86.1777643423157
 20
44.04850492123306
 10
86.15807438068128
 20
44.044331766434794
 10
86.13315861567641
 20
44.03859027829086
 10
86.10282274750637
 20
44.031342706791754
 10
86.06700349797235
 20
44.022392928874496
 10
86.02595851070988
 20
44.01187468816613
 10
85.97962450752024
 20
43.99959186160368
 10
85.92774141524238
 20
43.985736403486065
 10
85.87069816167613
 20
43.970183166605175
 10
85.80836576089844
 20
43.95286560276103
 10
85.74067857082726
 20
43.9339131573712
 10
85.66776787562674
 20
43.91306693960053
 10
85.58950225984857
 20
43.890586099175025
 10
85.50607622021364
 20
43.86640799776791
 10
85.417360770799
 20
43.84046608717921
 10
85.32329026952252
 20
43.8128898128265
 10
85.22412472390303
 20
43.78348734985627
 10
85.1196039294955
 20
43.752450911458304
 10
85.00985910482194
 20
43.7195217362428
 10
84.89501654371179
 20
43.685092588117456
 10
84.77475532433054
 20
43.64883360039221
 10
84.64946181366851
 20
43.610945582675775
 10
84.518878302448
 20
43.57129492078651
 10
84.3831334483816
 20
43.52994881015148
 10
84.24222718582723
 20
43.48690738021611
 10
84.09609380706075
 20
43.44230020584341
 10
83.94473311515593
 20
43.39612767536964
 10
83.78827632863478
 20
43.348131027405024
 10
83.62659209769112
 20
43.29856928223016
 10
83.45987465647752
 20
43.247380319299964
 10
83.28792950827307
 20
43.19462677694119
 10
83.1108876746736
 20
43.14005028210034
 10
82.92874672615379
 20
43.0839765327034
 10
82.74144082370533
 20
43.02653536250424
 10
82.54916676229031
 20
42.967338694140906
 10
82.35166420617942
 20
42.90657899969401
 10
82.1492564410904
 20
42.844260577373035
 10
81.94161991873722
 20
42.780379646750156
 10
81.72901221711341
 20
42.715070080897874
 10
81.51130428465392
 20
42.648265461061634
 10
81.28862484471335
 20
42.580032853223045
 10
81.06091048780878
 20
42.51017639321
 10
80.8282899372948
 20
42.438763147004124
 10
80.59050285744222
 20
42.36598558668603
 10
80.34787246832666
 20
42.291848139910634
 10
80.10026971838298
 20
42.21628438792334
 10
79.84769447632708
 20
42.139294589615
 10
79.59014641394847
 20
42.060879392212684
 10
79.32768874380405
 20
41.98123504822484
 10
79.06025792512648
 20
41.90016595237009
 10
78.78791710483057
 20
41.81786848660232
 10
78.51073159678795
 20
41.73421385273099
 10
78.22883261952067
 20
41.64894328936636
 10
77.94221748093511
 20
41.562383012216074
 10
77.65062591094416
 20
41.47472536391536
 10
77.3540575813373
 20
41.38597099169129
 10
77.05283820735764
 20
41.29579849582734
 10
76.74690188435473
 20
41.20433783952275
 10
76.43624848104437
 20
41.11158928166838
 10
76.12068074297001
 20
41.0179418057441
 10
75.80052668361569
 20
40.92274857299817
 10
75.475783742172
 20
40.82633554024745
 10
75.14638607963059
 20
40.72883254124579
 10
74.81213893670225
 20
40.630302732101626
 10
74.4733654678205
 20
40.530750669915264
 10
74.13000219786024
 20
40.42998061995997
 10
73.78204899553724
 20
40.32799284112655
 10
73.42950316875798
 20
40.225113549122725
 10
73.07262702328235
 20
40.12082548005977
 10
72.71116028902317
 20
40.01532097657286
 10
72.34529477060778
 20
39.90886361604293
 10
71.97503027110997
 20
39.801453786806256
 10
71.60036902312876
 20
39.69276617927303
 10
71.22124505637164
 20
39.582930886087986
 10
70.83791594883216
 20
39.47208178032356
 10
70.45012129913904
 20
39.360411463505805
 10
70.05805783661219
 20
39.247531987718205
 10
69.66185421896425
 20
39.13351054838782
 10
69.26151024926895
 20
39.01834753385091
 10
68.85689431515178
 20
38.902302482169745
 10
68.44800621968648
 20
38.78537578168059
 10
68.03491140802885
 20
38.66743837530209
 10
67.61793310025453
 20
38.54849469068915
 10
67.19674755115123
 20
38.42854133575021
 10
66.77148348407363
 20
38.30764537646691
 10
66.34246654862265
 20
38.18548554256816
 10
65.90950185422489
 20
38.06212524905323
 10
65.47252119798878
 20
37.93801989815655
 10
65.03165330326905
 20
37.81323655585978
 10
64.58677128545759
 20
37.68738362326402
 10
64.13832978007824
 20
37.56020637829812
 10
63.68606595623441
 20
37.432223120414136
 10
63.23004525908196
 20
37.30330479253072
 10
62.77020178397047
 20
37.17358135784715
 10
62.3067954727767
 20
37.0428611209553
 10
61.839826194216464
 20
36.911144340746
 10
61.369164699798446
 20
36.77836498680095
 10
60.895002991076154
 20
36.6447862481648
 10
60.41721195084246
 20
36.5103418355284
 10
59.936051586616166
 20
36.37483992403822
 10
59.45152163582892
 20
36.23828103147592
 10
58.96375088747754
 20
36.10073209437776
 10
58.47254445098858
 20
35.96225652774301
 10
57.977899831194705
 20
35.82318015894308
 10
57.47988464020867
 20
35.68304875075233
 10
56.978820128075355
 20
35.542191522633686
 10
56.47471062870871
 20
35.39995811429851
 10
55.967490171816245
 20
35.25647861839145
 10
55.45721967171361
 20
35.112274726456114
 10
54.94383322375042
 20
34.96747640169177
 10
54.427269585400616
 20
34.82156259978191
 10
53.908175853236216
 20
34.67454088158214
 10
53.38623044900193
 20
34.52608267485657
 10
52.86149415572919
 20
34.376709930039596
 10
52.33377214848675
 20
34.226485932685115
 10
51.80338790991854
 20
34.07541459266635
 10
51.270409183421464
 20
33.92304141386676
 10
50.73483347382816
 20
33.769692223657785
 10
50.1965292344062
 20
33.61562643065628
 10
49.655824544281714
 20
33.46019706666511
 10
49.11278484861055
 20
33.30327507460294
 10
48.56733977754423
 20
33.14564103684853
 10
48.01929673875049
 20
32.987032929366016
 10
47.468847930709074
 20
32.82771355286377
 10
46.91638707462829
 20
32.6669064937271
 10
46.36184833149978
 20
32.504741585709816
 10
45.80510028587525
 20
32.34147797853796
 10
45.24594568329809
 20
32.17750465569139
 10
44.684905195226776
 20
32.01243667300889
 10
44.121982958648964
 20
31.845624058538018
 10
43.55736920201375
 20
31.677654404795273
 10
42.990477283570215
 20
31.509042748586577
 10
42.42169882321169
 20
31.33933772699611
 10
41.85129606105604
 20
31.168022205580588
 10
41.27939588171143
 20
30.995487783238936
 10
40.705674211755166
 20
30.821731715106676
 10
40.130323446593316
 20
30.647016413555985
 10
39.55327997981657
 20
30.47114640275092
 10
38.97480408151212
 20
30.2939293400563
 10
38.39502473760296
 20
30.115431773672125
 10
37.81381263395566
 20
29.935587802625477
 10
37.231425939342515
 20
29.754530134980072
 10
36.6476062224229
 20
29.572126580453876
 10
36.06248023652082
 20
29.38876899683664
 10
35.47611368936042
 20
29.204327809265333
 10
34.888834528783676
 20
29.018156308433664
 10
34.300511339342336
 20
28.83051364406766
 10
33.71133671336867
 20
28.64166184020322
 10
33.12098657744
 20
28.451598151975876
 10
32.529850384492725
 20
28.26019639661417
 10
31.937993710966893
 20
28.067327258145937
 10
31.345482133302433
 20
27.872861420598984
 10
30.75218410476689
 20
27.677058292590175
 10
30.15816323176956
 20
27.480113349955424
 10
29.56341931738419
 20
27.282026981030985
 10
28.96827840506416
 20
27.08247713887322
 10
28.37267688840021
 20
26.881268347646234
 10
27.77680946103947
 20
26.67833758068699
 10
27.180608379585028
 20
26.474139334112003
 10
26.58374740365726
 20
26.268996043201167
 10
25.98661618311883
 20
26.062781136846763
 10
25.389610606134887
 20
25.854393021289713
 10
24.792336623286836
 20
25.64460875737184
 10
24.19498715511736
 20
25.433689721901956
 10
23.597564040373015
 20
25.22131138196282
 10
23.000132986777913
 20
25.007344162691385
 10
22.402755368142355
 20
24.792308849513365
 10
21.805367709341184
 20
24.57600970770198
 10
21.20829598818571
 20
24.358124819759034
 10
20.611410956184596
 20
24.13858815526621
 10
20.01490553388055
 20
23.91766109103232
 10
19.418713947907325
 20
23.695473331365783
 10
18.823033190153218
 20
23.471636410568408
 10
18.227797487251994
 20
23.246280032948622
 10
17.633070511255028
 20
23.019599544896927
 10
17.038526087424756
 20
22.79191725224778
 10
16.44481656523629
 20
22.562588543332257
 10
15.8519419446896
 20
22.331613418150347
 10
15.259836649344717
 20
22.09912119267424
 10
14.668434905835431
 20
21.865241571212362
 10
14.077931801661375
 20
21.629910750429183
 10
13.488132380607054
 20
21.39319227476939
 10
12.89936084737933
 20
21.155088630206617
 10
12.311748551784401
 20
20.915340796460256
 10
11.725229851740206
 20
20.6740782189479
 10
11.139739170806765
 20
20.431430213641725
 10
10.555342151066142
 20
20.18726733512414
 10
9.972428836233489
 20
19.94146223561492
 10
9.39073856236917
 20
19.694208034421777
 10
8.810269490726638
 20
19.445829264461953
 10
8.231220517582791
 20
19.19561279767458
 10
7.653719052682447
 20
18.943949197395234
 10
7.077568366705649
 20
18.691226411540445
 10
6.502835940481006
 20
18.436990461775363
 10
5.9299119490078365
 20
18.18111374142893
 10
5.3586651737640905
 20
17.92385501189092
 10
4.789097519138385
 20
17.664889610798664
 10
4.22133659180177
 20
17.40460771315147
 10
3.6553843617849697
 20
17.142684527141263
 10
3.0914340121990005
 20
16.879380911795177
 10
2.529029988530812
 20
16.614953401420188
 10
1.9685624657797296
 20
16.34927438934525
 10
1.410294012274018
 20
16.081826093899988
 10
0.8541591828578446
 20
15.812737572165732
 10
0.3000904310605312
 20
15.542462931922753
 10
-0.2518463384675148
 20
15.270872209971792
 10
-0.8015854180021704
 20
14.997835831449825
 10
-1.3489972964837411
 20
14.723419308993513
 10
-1.894342637851876
 20
14.447815761910551
 10
-2.4376230182847967
 20
14.171349205336528
 10
-2.9784464240366244
 20
13.89356749968313
 10
-3.5166814396590653
 20
13.61421149522434
 10
-4.052459152390024
 20
13.333539694459086
 10
-4.585709719822405
 20
13.051735275908612
 10
-5.116551953356521
 20
12.768711627333206
 10
-5.644921852730583
 20
12.484663447896265
 10
-6.170755614609078
 20
12.199785825097454
 10
-6.693920116081318
 20
11.913495335184335
 10
-7.214285911729723
 20
11.625857620238973
 10
-7.732051766547029
 20
11.337585549431395
 10
-8.247215841786689
 20
11.048354589844358
 10
-8.759453604531458
 20
10.758166580224392
 10
-9.269023945616517
 20
10.46689023640737
 10
-9.775667974206678
 20
10.174656842557424
 10
-10.279387529048494
 20
9.8817909315918
 10
-10.780507143059197
 20
9.588290664763969
 10
-11.278569160410873
 20
9.293574457068024
 10
-11.773708542760737
 20
8.998550265173657
 10
-12.266186019690489
 20
8.703411337834
 10
-12.755737184125358
 20
8.407315360461412
 10
-13.241973699812553
 20
8.110459259302095
 10
-13.725221938415855
 20
7.8131657285267675
 10
-14.205547542017346
 20
7.5155642135530165
 10
-14.682819226452875
 20
7.217395823545663
 10
-15.156843742969329
 20
6.918921288086426
 10
-15.6278799824019
 20
6.620009323011178
 10
-16.095865980161598
 20
6.321179548736827
 10
-16.560670452084285
 20
6.022173074428189
 10
-17.022227756087897
 20
5.7228604546676705
 10
-17.480603534254506
 20
5.423371134872863
 10
-17.935799625330638
 20
5.124029647961021
 10
-18.38794547473389
 20
4.824770351850082
 10
-18.83665090746495
 20
4.525465639868986
 10
-19.28191592352381
 20
4.226115512017736
 10
-19.723804326246007
 20
3.9265248807966646
 10
-20.162252312296012
 20
3.626888833705435
 10
-20.59745680792
 20
3.327595706996837
 10
-21.029354009782473
 20
3.028840588170522
 10
-21.457681349555155
 20
2.7301056955561167
 10
-21.882568272655636
 20
2.431325387071556
 10
-22.303560800749075
 20
2.132567143545439
 10
-22.721114750916858
 20
1.8340880170664187
 10
-23.13529576524104
 20
1.5360174530520914
 10
-23.54584495288644
 20
1.2384867356665878
 10
-23.952696671770997
 20
0.9413664194923125
 10
-24.355783441066098
 20
0.644202526194417
 10
-24.755238383682425
 20
0.34757847952534676
 10
-25.151258425866168
 20
0.05188261573787492
 10
-25.5433859117894
 20
-0.24346665017389235
 10
-25.931750286869715
 20
-0.5385349602920236
 10
-26.316223944436064
 20
-0.8329321396172061
 10
-26.69693632990604
 20
-1.1267238302314981
 10
-27.07395308536171
 20
-1.419780586717308
 10
-27.446947839139263
 20
-1.712425103245351
 10
-27.81605187540286
 20
-2.004398488980444
 10
-28.18126519415248
 20
-2.2957007439225796
 10
-28.542850363716394
 20
-2.585814086401386
 10
-28.900482851177344
 20
-2.8747366776703243
 10
-29.254224621124333
 20
-3.162988138146311
 10
-29.603814943975614
 20
-3.4507617165824636
 10
-29.949386942641883
 20
-3.7374739892263467
 10
-30.29120134670484
 20
-4.022931707324833
 10
-30.628866142418644
 20
-4.307587010466236
 10
-30.96238316852983
 20
-4.591115365733298
 10
-31.29207695795564
 20
-4.873518611872557
 10
-31.617688619860896
 20
-5.154665464719884
 10
-31.9390212279994
 20
-5.434944260528063
 10
-32.25627170861736
 20
-5.7139666630443084
 10
-32.56950570379682
 20
-5.9916032268510255
 10
-32.878657571455726
 20
-6.267983397365811
 10
-33.183597866176484
 20
-6.543041532506598
 10
-33.48426094587703
 20
-6.816907077690984
 10
-33.78084189805702
 20
-7.089516229583431
 10
-34.07308183188126
 20
-7.360737704019819
 10
-34.3611120315139
 20
-7.630312610164951
 10
-34.64506010362597
 20
-7.898631123018153
 10
-34.92453771196472
 20
-8.165496316333225
 10
-35.19960865986564
 20
-8.431103277609827
 10
-35.47053551565703
 20
-8.694934225177583
 10
-35.737318279338865
 20
-8.956989159036494
 10
-35.99969622132944
 20
-9.217461327939683
 10
-36.25760369954667
 20
-9.476480177304737
 10
-36.51110451732609
 20
-9.73424079463132
 10
-36.76026799424284
 20
-9.989964668667339
 10
-37.005157933632454
 20
-10.243846886912442
 10
-37.245643051330795
 20
-10.496146340201827
 10
-37.48159390192027
 20
-10.746797386453418
 10
-37.71314176956501
 20
-10.99554113483203
 10
-37.94015537010088
 20
-11.242636476172853
 10
-38.162700345609956
 20
-11.487953965058294
 10
-38.3808423381743
 20
-11.731364156070759
 10
-38.59432061821218
 20
-11.973060297963366
 10
-38.803332111969794
 20
-12.21265405448334
 10
-39.00774369653649
 20
-12.450728849383117
 10
-39.20768849482291
 20
-12.686701258910258
 10
-39.403100864747
 20
-12.920700728482355
 10
-39.5939151642267
 20
-13.152856703517005
 10
-39.78000194784441
 20
-13.383103541932137
 10
-39.9615563030998
 20
-13.61137744039223
 10
-40.13864571082146
 20
-13.837224420562428
 10
-40.311138886845264
 20
-14.060903373277926
 10
-40.4790358311712
 20
-14.282414298538722
 10
-40.64253163129895
 20
-14.501693393009289
 10
-40.80130175431125
 20
-14.71873881794308
 10
-40.955606929789816
 20
-14.933357324586986
 10
-41.1054489964812
 20
-15.145224380023746
 10
-41.250957399802985
 20
-15.354405626335431
 10
-41.39187141017346
 20
-15.561094312275156
 10
-41.52838611509225
 20
-15.765226634507394
 10
-41.660242623724216
 20
-15.966671308868019
 10
-41.787831111068655
 20
-16.165300728685978
 10
-41.91095832837243
 20
-16.36085416437953
 10
-42.02962243688902
 20
-16.553656148865944
 10
-42.14382343661843
 20
-16.74370668214521
 10
-42.25356132756065
 20
-16.931005764217332
 10
-42.35883794846221
 20
-17.115228862165058
 10
-42.45965329932312
 20
-17.29637597598838
 10
-42.55593989931478
 20
-17.474901084022154
 10
-42.64776522926579
 20
-17.650350207931535
 10
-42.734866720847876
 20
-17.823241129386894
 10
-42.81750694238931
 20
-17.99305606671785
 10
-42.895423325561836
 20
-18.160312801594785
 10
-42.968747154529595
 20
-18.324752443182508
 10
-43.03747842929254
 20
-18.486374991481025
 10
-43.10142206235107
 20
-18.64524424982586
 10
-43.16096822870447
 20
-18.801232611545952
 10
-43.21553166585376
 20
-18.954531486647898
 10
-43.265631994215866
 20
-19.105078910542698
 10
-43.31094468087353
 20
-19.252873044483817
 10
-43.35166665207296
 20
-19.397525552218468
 10
-43.38779606906759
 20
-19.53936096666391
 10
-43.41926912852192
 20
-19.678184200320487
 10
-43.446348398764194
 20
-19.813477471517814
 10
-43.468966398965826
 20
-19.945694758590747
 10
-43.48712496787334
 20
-20.074511528622025
 10
-43.50095538965087
 20
-20.19966889077646
 10
-43.510720232626674
 20
-20.320649063383687
 10
-43.516419496800765
 20
-20.437452046443696
 10
-43.51831391175485
 20
-20.549884591203362
 10
-43.5164727970641
 20
-20.657168186410583
 10
-43.51128816647434
 20
-20.75885069247707
 10
-43.503545886223826
 20
-20.853703297308922
 10
-43.493446560051844
 20
-20.94068859881886
 10
-43.48216990668902
 20
-21.017801112407447
 10
-43.47089564486602
 20
-21.083035353475235
 10
-43.4609402937172
 20
-21.133153347835847
 10
-43.45407435071183
 20
-21.164984602131494
 10
-43.037015267164755
 20
-21.993517465534232
 10
-43.031208058045124
 20
-21.998871982272284
 10
-43.01385207276828
 20
-22.014806087068838
 10
-42.98520987966251
 20
-22.040801998253517
 10
-42.9440361179151
 20
-22.078994645843363
 10
-42.88921119463784
 20
-22.132233667771967
 10
-42.82401905268056
 20
-22.19372226024239
 10
-42.75036515116971
 20
-22.259381973227143
 10
-42.66936172800731
 20
-22.327661300461635
 10
-42.582257821499155
 20
-22.39577624609433
 10
-42.48951476496626
 20
-22.46249615928481
 10
-42.3917196596541
 20
-22.527305097109235
 10
-42.28900562847338
 20
-22.589619635815165
 10
-42.181635239752346
 20
-22.64892199373223
 10
-42.06973977765513
 20
-22.704953280025236
 10
-41.953319242181735
 20
-22.75771349469418
 10
-41.83256872083182
 20
-22.80713883440355
 10
-41.70749005235193
 20
-22.85290476623607
 10
-41.57801759465998
 20
-22.895140735609345
 10
-41.44434643525565
 20
-22.93378293918785
 10
-41.30621584455721
 20
-22.9690246257247
 10
-41.16369146464671
 20
-23.000736349802306
 10
-41.017163470523485
 20
-23.028790504749608
 10
-40.86604659968855
 20
-23.053378500573192
 10
-40.71079483047675
 20
-23.074567818101663
 10
-40.551083629970854
 20
-23.09235661858848
 10
-40.387108085670484
 20
-23.10668109869812
 10
-40.21893383965774
 20
-23.117411813012986
 10
-40.04636396568641
 20
-23.12493709778586
 10
-39.86952974792061
 20
-23.12899806218155
 10
-39.6881686180321
 20
-23.13011248787044
 10
-39.50247750226708
 20
-23.127892038599743
 10
-39.312454561878994
 20
-23.122661247286715
 10
-39.11797035145026
 20
-23.114354471849285
 10
-38.918893586816736
 20
-23.103230603122647
 10
-38.71541935547809
 20
-23.08922583777127
 10
-38.50748201535226
 20
-23.07246962121275
 10
-38.29508156643924
 20
-23.052961953447085
 10
-38.07789163707524
 20
-23.031025528644992
 10
-37.85623676017751
 20
-23.006662185553008
 10
-37.629923686992946
 20
-22.97961119458941
 10
-37.39921130835672
 20
-22.950003839918327
 10
-37.163838894687096
 20
-22.918033370292882
 10
-36.92393589140168
 20
-22.883765427795137
 10
-36.67943849516496
 20
-22.84700492492544
 10
-36.43060743555864
 20
-22.807558612930666
 10
-36.17724762508306
 20
-22.765490295146336
 10
-35.919552312491355
 20
-22.72106070115418
 10
-35.65739205236592
 20
-22.67420418887214
 10
-35.39076684470676
 20
-22.624920758300206
 10
-35.11987361576007
 20
-22.5728220731856
 10
-34.84484181094345
 20
-22.517973775610386
 10
-34.5655419848393
 20
-22.4603102234925
 10
-34.28197229870108
 20
-22.40015594974919
 10
-33.9941327525288
 20
-22.33751095438047
 10
-33.70228591465071
 20
-22.271857455715946
 10
-33.40642994632027
 20
-22.203519986672884
 10
-33.10650104420198
 20
-22.132303459751625
 10
-32.80243356621374
 20
-22.058337320369752
 10
-32.49435695777317
 20
-21.98168721060934
 10
-32.18233686096233
 20
-21.902223685052792
 10
-31.866307633699137
 20
-21.820076189117707
 10
-31.546269275983605
 20
-21.73524472280408
 10
-31.2222874298978
 20
-21.647599840694312
 10
-30.894425898777246
 20
-21.55733663028807
 10
-30.56268468262195
 20
-21.46445509158535
 10
-30.226999978096373
 20
-21.3687601370865
 10
-29.887499391871586
 20
-21.27064194179083
 10
-29.544119120612045
 20
-21.169905418198688
 10
-29.196793522235694
 20
-21.06668001172766
 10
-28.84571768424219
 20
-20.96090191904222
 10
-28.491088532877733
 20
-20.852182803889594
 10
-28.132709141896118
 20
-20.74091100252255
 10
-27.770318781715623
 20
-20.627279763694226
 10
-27.404371430671105
 20
-20.511356568233214
 10
-27.0347394820915
 20
-20.3927512411402
 10
-26.661488578058872
 20
-20.271334336997583
 10
-26.284746325244278
 20
-20.14749603080469
 10
-25.90431763614806
 20
-20.021300125897042
 10
-25.520333794934345
 20
-19.89248773143946
 10
-25.132924247020743
 20
-19.761124489514003
 10
-24.742154634489296
 20
-19.62708095470308
 10
-24.347828031093822
 20
-19.490745463259472
 10
-23.950075720998452
 20
-19.35185912434799
 10
-23.548766420039055
 20
-19.210680828803824
 10
-23.144355945297
 20
-19.06695352453832
 10
-22.736519763855057
 20
-18.920675372804943
 10
-22.3253873211308
 20
-18.77191201568576
 10
-21.91102242045977
 20
-18.62085854068043
 10
-21.493426900588506
 20
-18.4671904148717
 10
-21.072598922770464
 20
-18.311232171176815
 10
-20.6487335745053
 20
-18.152920006260263
 10
-20.22170324912197
 20
-17.99186374512271
 10
-19.791766837455647
 20
-17.828194671928298
 10
-19.358727413260144
 20
-17.662301122929797
 10
-18.922584976535465
 20
-17.494183098127216
 10
-18.48333952728159
 20
-17.323840597520554
 10
-18.041317437162327
 20
-17.15095092693909
 10
-17.596649990341806
 20
-16.975255195547643
 10
-17.148945173074175
 20
-16.79720554293452
 10
-16.69846187619461
 20
-16.616933253263852
 10
-16.24520193844965
 20
-16.43411379361838
 10
-15.789426089421024
 20
-16.24855391524499
 10
-15.330937402862546
 20
-16.060641954396463
 10
-14.869734040027655
 20
-15.87070244399005
 10
-14.405817839662909
 20
-15.6784108511085
 10
-13.939385728014493
 20
-15.483378839499025
 10
-13.470565311753464
 20
-15.285996584160948
 10
-12.99929094879776
 20
-15.086393530511863
 10
-12.525303748312199
 20
-14.884438394387642
 10
-12.049057688631617
 20
-14.680198656616883
 10
-11.57055460850256
 20
-14.473349784282334
 10
-11.089794507925028
 20
-14.263891777383998
 10
-10.606841190234537
 20
-14.052019723421527
 10
-10.121366445020772
 20
-13.838380849482895
 10
-9.633696643947522
 20
-13.622652461397394
 10
-9.143964909925453
 20
-13.404251135412569
 10
-8.652105600872499
 20
-13.183306316946021
 10
-8.15837760762385
 20
-12.959949290161882
 10
-7.662388916433647
 20
-12.734632194648457
 10
-7.164400256883615
 20
-12.507161781652629
 10
-6.664411628973757
 20
-12.277538051174394
 10
-6.1625543168682
 20
-12.045502112378566
 10
-5.6587626784848855
 20
-11.811183410682743
 10
-5.153164320494872
 20
-11.574972121086239
 10
-4.645631636227093
 20
-11.336478068589734
 10
-4.136554800680862
 20
-11.095573646522173
 10
-3.625868171774132
 20
-10.85238830030115
 10
-3.1135061074248234
 20
-10.60705147534426
 10
-2.599404804297412
 20
-10.359368084151843
 10
-2.084083882808825
 20
-10.10927616213491
 10
-1.5674795396235042
 20
-9.856580621793794
 10
-1.0490684768314866
 20
-9.601992493552
 10
-0.5291752273500167
 20
-9.345513616156065
 10
-0.008323089089077088
 20
-9.086432959182483
 10
0.513943755032702
 20
-8.825007574719919
 10
1.0375615016798019
 20
-8.56143255026802
 10
1.5621399758529084
 20
-8.295580279155734
 10
2.0878724263051325
 20
-8.027190031801336
 10
2.614499962201297
 20
-7.756393092368955
 10
3.1424145972872477
 20
-7.483641600446905
 10
3.6713556019812623
 20
-7.208742307282062
 10
4.200865320455432
 20
-6.931113627868518
 10
4.731270124373528
 20
-6.6510782563769935
 10
5.262703136646233
 20
-6.3692196165599295
 10
5.794838182535992
 20
-6.0852154025828655
 10
6.327749699395637
 20
-5.798891497103783
 10
6.861445565043241
 20
-5.510584342018367
 10
7.395663408076807
 20
-5.219776543992483
 10
7.930403359780496
 20
-4.926468361916965
 10
8.465798543064963
 20
-4.6312432195442685
 10
9.001785417163012
 20
-4.334296722155712
 10
9.538427851052266
 20
-4.035433911697055
 10
10.075399538710991
 20
-3.7343322234430065
 10
10.61283182994543
 20
-3.4312506776741594
 10
11.150724987323898
 20
-3.12618979217219
 10
11.688949499786707
 20
-2.819215079573751
 10
12.227308638013925
 20
-2.5099385919623067
 10
12.765933686169681
 20
-2.198619220173045
 10
13.304828321747042
 20
-1.885906030040479
 10
13.844186056067448
 20
-1.5715388097645526
 10
14.383551006407462
 20
-1.2552603778111897
 10
14.923118391550883
 20
-0.9371347964067632
 10
15.46262932066253
 20
-0.6172933497154005
 10
16.002278946884147
 20
-0.29579997051804663
 10
16.54200169377575
 20
0.027474657157475123
 10
17.081604312584215
 20
0.3522698037294366
 10
17.621347532891267
 20
0.6783922204447186
 10
18.16116590954109
 20
1.0059709643846602
 10
18.70073471269018
 20
1.3350045851389756
 10
19.240249161122353
 20
1.6654290204813016
 10
19.779711093584165
 20
1.99691973749439
 10
20.31898745280702
 20
2.3300600304852574
 10
20.857950500835692
 20
2.664459983345424
 10
21.396731521834322
 20
2.999860705239704
 10
21.935264939362924
 20
3.3363915121402714
 10
22.47341946925736
 20
3.6743112948823087
 10
23.011326461323854
 20
4.013361033185221
 10
23.54885798068093
 20
4.353151199276768
 10
24.086012319866203
 20
4.694006067183367
 10
24.622856959708308
 20
5.035471658570183
 10
25.159194842676868
 20
5.377936568580822
 10
25.694960392331883
 20
5.721530113187458
 10
26.23028489283751
 20
6.065993401554915
 10
26.765105985752243
 20
6.410807589938773
 10
27.299553313419946
 20
6.756037932084856
 10
27.83330037289265
 20
7.10200738105471
 10
28.366412674968267
 20
7.448586750321575
 10
28.89889028528885
 20
7.795775910440032
 10
29.430798714652333
 20
8.143445674883326
 10
29.96181310193104
 20
8.491594852132009
 10
30.492128731550874
 20
8.840159250514297
 10
31.021681406323808
 20
9.18894455920303
 10
31.55073218404201
 20
9.537756882218016
 10
32.078759014763236
 20
9.886983882074231
 10
32.60582760621169
 20
10.23649598390869
 10
33.13239561421525
 20
10.585711602715469
 10
33.65780996723597
 20
10.935276774063105
 10
34.18200482626549
 20
11.285321331705429
 10
34.70550368614007
 20
11.635133856882703
 10
35.228178415051985
 20
11.984325210158941
 10
35.749764737210626
 20
12.333737447230941
 10
36.270198586712084
 20
12.683175998380706
 10
36.78935012428633
 20
13.032575998198688
 10
37.307480276441304
 20
13.381743809595504
 10
37.82452491163108
 20
13.730484992298583
 10
38.34054947501147
 20
14.07867048922659
 10
38.85529304007449
 20
14.42649393746889
 10
39.3686240600877
 20
14.774214745642341
 10
39.88073939565522
 20
15.121444706939597
 10
40.391638981134946
 20
15.468183950806056
 10
40.90112884571088
 20
15.814173171559593
 10
41.409468339712745
 20
16.159542747246412
 10
41.91620098963837
 20
16.504551024409352
 10
42.42139230628564
 20
16.849068816521644
 10
42.92537023749656
 20
17.19244941427698
 10
43.428069206831154
 20
17.534822133647555
 10
43.92909818594303
 20
17.876316264094854
 10
44.42878216724401
 20
18.216932738247472
 10
44.92679589575394
 20
18.556671141258477
 10
45.42326894817458
 20
18.895596856319102
 10
45.918202703757906
 20
19.233386256630016
 10
46.41146725759172
 20
19.56997460622707
 10
46.90332353618401
 20
19.905168268020894
 10
47.39331486910632
 20
20.239225976890562
 10
47.88170060668843
 20
20.57227811088229
 10
48.36815549395017
 20
20.904324255149135
 10
48.85307305517351
 20
21.234588384412604
 10
49.33632345108839
 20
21.56300563326316
 10
49.81777217953216
 20
21.890483052252563
 10
50.29696408061251
 20
22.21695549056973
 10
50.774683641315725
 20
22.541517762920115
 10
51.250605541019546
 20
22.864169583902193
 10
51.724466883185315
 20
23.18542938241342
 10
52.19626753652885
 20
23.505297417344643
 10
52.66607294620602
 20
23.823644631614524
 10
53.134211191342935
 20
24.139824057025905
 10
53.600291046667
 20
24.453965371376555
 10
54.064375133188
 20
24.76658690062919
 10
54.526203509797455
 20
25.077559431746366
 10
54.985907263733225
 20
25.386624462229147
 10
55.443617547875306
 20
25.69352336013318
 10
55.899202815491215
 20
25.99851553407533
 10
56.35253296474254
 20
26.30153663642769
 10
56.80386898777935
 20
26.60239290065549
 10
57.25295094349317
 20
26.90095511372128
 10
57.699711613623634
 20
27.197676736178202
 10
58.14389092577816
 20
27.49242881387968
 10
58.58600961628901
 20
27.785147181664605
 10
59.02567921838754
 20
28.075314263732068
 10
59.46315934497177
 20
28.363059920346593
 10
59.89838409139133
 20
28.648514114707446
 10
60.33096223237359
 20
28.93180652461237
 10
60.76095908179023
 20
29.212808351870866
 10
61.18869982897928
 20
29.491520140775272
 10
61.61386033564425
 20
29.767618367461004
 10
62.03670146265101
 20
30.040909524284103
 10
62.456896181914956
 20
30.311717599869457
 10
62.87450849369788
 20
30.580237293380478
 10
63.2894739382434
 20
30.846274811771675
 10
63.70179225298321
 20
31.109830672824717
 10
64.11153019668303
 20
31.370452322104363
 10
64.5186206167246
 20
31.628593090718354
 10
64.92286901715529
 20
31.88399470854792
 10
65.32427375615482
 20
32.13698132017404
 10
65.72303162868519
 20
32.387164848234775
 10
66.1190780437059
 20
32.63435175857549
 10
66.51221581240242
 20
32.87893090523062
 10
66.90244473784851
 20
33.12090267653643
 10
67.28976455747583
 20
33.36026759027458
 10
67.67404648305586
 20
33.59663780146327
 10
68.05568141165084
 20
33.82988427953187
 10
68.43421096536989
 20
34.060590033385836
 10
68.80957061881462
 20
34.288561399425134
 10
69.1818900143289
 20
34.51386363139559
 10
69.55117026859628
 20
34.736173620279494
 10
69.91721557205425
 20
34.955556593312004
 10
70.28021996116092
 20
35.172271726729825
 10
70.64012015848563
 20
35.38580198902441
 10
70.99678468293803
 20
35.596406659367176
 10
71.35027897967396
 20
35.8039566806768
 10
71.70040579423676
 20
36.00884103643314
 10
72.04729621386434
 20
36.21080122413726
 10
72.39082000543412
 20
36.40977315505213
 10
72.73104261410194
 20
36.60562777209638
 10
73.06802817141369
 20
36.798559515542586
 10
73.40145083161048
 20
36.988569135552574
 10
73.73131026648194
 20
37.175657279353416
 10
74.05780195738024
 20
37.359759366937105
 10
74.38099161202948
 20
37.540745823440616
 10
74.70042347899033
 20
37.71887357150715
 10
75.0162213584614
 20
37.89421938552473
 10
75.32858854397081
 20
38.06638237303506
 10
75.63732679719894
 20
38.23543255075369
 10
75.94230470269754
 20
38.40162906840668
 10
76.2437833182587
 20
38.56477803001378
 10
76.54156801664564
 20
38.724621424347056
 10
76.83565728732216
 20
38.881483137096666
 10
77.12598529128002
 20
39.03549300201648
 10
77.41242186103862
 20
39.18658680092398
 10
77.69509808383596
 20
39.334506031320274
 10
77.9739479893795
 20
39.47938078585003
 10
78.24884016222093
 20
39.62147021423925
 10
78.51983998187406
 20
39.760645388852055
 10
78.78694863066454
 20
39.89658307122532
 10
79.05016578038196
 20
40.02928390858616
 10
79.30935876761025
 20
40.15933041856908
 10
79.56446293566682
 20
40.28652919646487
 10
79.81547821890958
 20
40.41088037171892
 10
80.0624699312102
 20
40.53225514614075
 10
80.30530797073021
 20
40.65058917210244
 10
80.54412204545561
 20
40.76594757390442
 10
80.77865083502587
 20
40.878524765308555
 10
81.00902529539476
 20
40.98806250270674
 10
81.23511401111395
 20
41.09481993582501
 10
81.45717810561769
 20
41.198603039237724
 10
81.674826091065
 20
41.2995420085243
 10
81.88812216464387
 20
41.39783115451187
 10
82.09700180095594
 20
41.49327681360041
 10
82.30166048135328
 20
41.58581440578185
 10
82.50183622905467
 20
41.67563963927227
 10
82.69778983928391
 20
41.76255913587311
 10
82.88906831756913
 20
41.84682438152008
 10
83.0759919957343
 20
41.92844549946642
 10
83.25830263936508
 20
42.00728991109385
 10
83.43613008773158
 20
42.08342248181192
 10
83.60947420954963
 20
42.156843470511475
 10
83.77826916581087
 20
42.22768271094633
 10
83.94245056240109
 20
42.29574628062562
 10
84.1018868525878
 20
42.361293588166184
 10
84.2567737146494
 20
42.424259665223744
 10
84.40691520773917
 20
42.48470999792425
 10
84.55237690829709
 20
42.54251527029552
 10
84.69309310859903
 20
42.59780505720059
 10
84.82912925380077
 20
42.650450301558095
 10
84.9604196361782
 20
42.70058057823105
 10
85.08683290592509
 20
42.74845490750007
 10
85.208370114083
 20
42.793750309792905
 10
85.32522569096251
 20
42.83672518467377
 10
85.43694368896634
 20
42.877315934676595
 10
85.54397985876555
 20
42.91558654560369
 10
85.64607399668328
 20
42.95140832219928
 10
85.74309475291335
 20
42.985040284743974
 10
85.83523774009205
 20
43.01641759433891
 10
85.92237279073889
 20
43.0454760328016
 10
86.00436862068977
 20
43.07247449096726
 10
86.08148641902095
 20
43.097218813964815
 10
86.15346486537197
 20
43.11990341555616
 10
86.22036947054076
 20
43.14039910921454
 10
86.28206895036317
 20
43.15896478577513
 10
86.33862894692126
 20
43.17547099982035
 10
86.39011372304515
 20
43.190111932731924
 10
86.43626314070004
 20
43.202758759808646
 10
86.47714165964236
 20
43.213605274096025
 10
86.5128792504263
 20
43.22271608211277
 10
86.54321577501716
 20
43.22996235915771
 10
86.56814991980501
 20
43.23566760258472
 10
86.58787755999452
 20
43.23976645571327
 10
86.6020070108185
 20
43.242389502459034
 10
86.61060292895951
 20
43.243730147531245
 10
86.61353383332718
 20
43.24404767010133
 10
86.20327082041707
 20
44.053081530064055
  0
ENDSEC
  0
SECTION
  2
OBJECTS
  0
DICTIONARY
  5
A
330
0
100
AcDbDictionary
280
0
281
1
  3
ACAD_COLOR
350
B
  3
ACAD_GROUP
350
C
  3
ACAD_LAYOUT
350
D
  3
ACAD_MATERIAL
350
E
  3
ACAD_MLEADERSTYLE
350
F
  3
ACAD_MLINESTYLE
350
10
  3
ACAD_PLOTSETTINGS
350
11
  3
ACAD_PLOTSTYLENAME
350
12
  3
ACAD_SCALELIST
350
14
  3
ACAD_TABLESTYLE
350
15
  3
ACAD_VISUALSTYLE
350
16
  3
EZDXF_META
350
2D
  0
DICTIONARY
  5
B
330
A
100
AcDbDictionary
280
0
281
1
  0
DICTIONARY
  5
C
330
A
100
AcDbDictionary
280
0
281
1
  0
DICTIONARY
  5
D
330
A
100
AcDbDictionary
280
0
281
1
  3
Model
350
1A
  3
Layout1
350
1E
  0
DICTIONARY
  5
E
330
A
100
AcDbDictionary
280
0
281
1
  3
ByBlock
350
1F
  3
ByLayer
350
20
  3
Global
350
21
  0
DICTIONARY
  5
F
330
A
100
AcDbDictionary
280
0
281
1
  3
Standard
350
2C
  0
DICTIONARY
  5
10
330
A
100
AcDbDictionary
280
0
281
1
  3
Standard
350
22
  0
DICTIONARY
  5
11
330
A
100
AcDbDictionary
280
0
281
1
  0
ACDBDICTIONARYWDFLT
  5
12
330
A
100
AcDbDictionary
280
0
281
1
  3
Normal
350
13
100
AcDbDictionaryWithDefault
340
13
  0
ACDBPLACEHOLDER
  5
13
330
12
  0
DICTIONARY
  5
14
330
A
100
AcDbDictionary
280
0
281
1
  0
DICTIONARY
  5
15
330
A
100
AcDbDictionary
280
0
281
1
  0
DICTIONARY
  5
16
330
A
100
AcDbDictionary
280
0
281
1
  0
LAYOUT
  5
1A
330
D
100
AcDbPlotSettings
  1

  4
A3
  6

 40
7.5
 41
20.0
 42
7.5
 43
20.0
 44
420.0
 45
297.0
 46
0.0
 47
0.0
 48
0.0
 49
0.0
140
0.0
141
0.0
142
1.0
143
1.0
 70
1024
 72
1
 73
0
 74
5
  7

 75
16
 76
0
 77
2
 78
300
147
1.0
148
0.0
149
0.0
100
AcDbLayout
  1
Model
 70
1
 71
0
 10
0.0
 20
0.0
 11
420.0
 21
297.0
 12
0.0
 22
0.0
 32
0.0
 14
1e+20
 24
1e+20
 34
1e+20
 15
-1e+20
 25
-1e+20
 35
-1e+20
146
0.0
 13
0.0
 23
0.0
 33
0.0
 16
1.0
 26
0.0
 36
0.0
 17
0.0
 27
1.0
 37
0.0
 76
1
330
17
  0
LAYOUT
  5
1E
330
D
100
AcDbPlotSettings
  1

  4
A3
  6

 40
7.5
 41
20.0
 42
7.5
 43
20.0
 44
420.0
 45
297.0
 46
0.0
 47
0.0
 48
0.0
 49
0.0
140
0.0
141
0.0
142
1.0
143
1.0
 70
0
 72
1
 73
0
 74
5
  7

 75
16
 76
0
 77
2
 78
300
147
1.0
148
0.0
149
0.0
100
AcDbLayout
  1
Layout1
 70
1
 71
1
 10
0.0
 20
0.0
 11
420.0
 21
297.0
 12
0.0
 22
0.0
 32
0.0
 14
1e+20
 24
1e+20
 34
1e+20
 15
-1e+20
 25
-1e+20
 35
-1e+20
146
0.0
 13
0.0
 23
0.0
 33
0.0
 16
1.0
 26
0.0
 36
0.0
 17
0.0
 27
1.0
 37
0.0
 76
1
330
1B
  0
MATERIAL
  5
1F
102
{ACAD_REACTORS
330
E
102
}
330
E
100
AcDbMaterial
  1
ByBlock
  2

 70
0
 40
1.0
 71
1
 41
1.0
 91
-1023410177
 42
1.0
 72
1
  3

 73
1
 74
1
 75
1
 44
0.5
 73
0
 45
1.0
 46
1.0
 77
1
  4

 78
1
 79
1
170
1
 48
1.0
171
1
  6

172
1
173
1
174
1
140
1.0
141
1.0
175
1
  7

176
1
177
1
178
1
143
1.0
179
1
  8

270
1
271
1
272
1
145
1.0
146
1.0
273
1
  9

274
1
275
1
276
1
 42
1.0
 72
1
  3

 73
1
 74
1
 75
1
 94
63
  0
MATERIAL
  5
20
102
{ACAD_REACTORS
330
E
102
}
330
E
100
AcDbMaterial
  1
ByLayer
  2

 70
0
 40
1.0
 71
1
 41
1.0
 91
-1023410177
 42
1.0
 72
1
  3

 73
1
 74
1
 75
1
 44
0.5
 73
0
 45
1.0
 46
1.0
 77
1
  4

 78
1
 79
1
170
1
 48
1.0
171
1
  6

172
1
173
1
174
1
140
1.0
141
1.0
175
1
  7

176
1
177
1
178
1
143
1.0
179
1
  8

270
1
271
1
272
1
145
1.0
146
1.0
273
1
  9

274
1
275
1
276
1
 42
1.0
 72
1
  3

 73
1
 74
1
 75
1
 94
63
  0
MATERIAL
  5
21
102
{ACAD_REACTORS
330
E
102
}
330
E
100
AcDbMaterial
  1
Global
  2

 70
0
 40
1.0
 71
1
 41
1.0
 91
-1023410177
 42
1.0
 72
1
  3

 73
1
 74
1
 75
1
 44
0.5
 73
0
 45
1.0
 46
1.0
 77
1
  4

 78
1
 79
1
170
1
 48
1.0
171
1
  6

172
1
173
1
174
1
140
1.0
141
1.0
175
1
  7

176
1
177
1
178
1
143
1.0
179
1
  8

270
1
271
1
272
1
145
1.0
146
1.0
273
1
  9

274
1
275
1
276
1
 42
1.0
 72
1
  3

 73
1
 74
1
 75
1
 94
63
  0
MLINESTYLE
  5
22
102
{ACAD_REACTORS
330
10
102
}
330
10
100
AcDbMlineStyle
  2
Standard
 70
0
  3

 62
256
 51
90.0
 52
90.0
 71
2
 49
0.5
 62
256
  6
BYLAYER
 49
-0.5
 62
256
  6
BYLAYER
  0
MLEADERSTYLE
  5
2C
102
{ACAD_REACTORS
330
F
102
}
330
F
100
AcDbMLeaderStyle
179
2
170
2
171
1
172
0
 90
2
 40
0.0
 41
0.0
173
1
 91
-1056964608
 92
-2
290
1
 42
2.0
291
1
 43
8.0
  3
Standard
 44
4.0
300

342
29
174
1
175
1
176
0
178
1
 93
-1056964608
 45
4.0
292
0
297
0
 46
4.0
 94
-1056964608
 47
1.0
 49
1.0
140
1.0
294
1
141
0.0
177
0
142
1.0
295
0
296
0
143
3.75
271
0
272
9
273
9
  0
DICTIONARY
  5
2D
330
A
100
AcDbDictionary
280
1
281
1
  3
CREATED_BY_EZDXF
350
2E
  3
WRITTEN_BY_EZDXF
350
32
  0
DICTIONARYVAR
  5
2E
330
2D
100
DictionaryVariables
280
0
  1
1.3.5 @ 2025-08-22T23:49:23.858761+00:00
  0
DICTIONARYVAR
  5
32
330
2D
100
DictionaryVariables
280
0
  1
1.3.5 @ 2025-08-22T23:49:23.864177+00:00
  0
ENDSEC
  0
EOF
