  0
SECTION
  2
HEADER
  9
$ACADVER
  1
AC1032
  9
$ACADMAINTVER
 90
4
  9
$DWGCODEPAGE
  3
ANSI_1252
  9
$LASTSAVEDBY
  1
ezdxf
  9
$REQUIREDVERSIONS
160
0
  9
$INSBASE
 10
0.0
 20
0.0
 30
0.0
  9
$EXTMIN
 10
1e+20
 20
1e+20
 30
1e+20
  9
$EXTMAX
 10
-1e+20
 20
-1e+20
 30
-1e+20
  9
$LIMMIN
 10
0.0
 20
0.0
  9
$LIMMAX
 10
420.0
 20
297.0
  9
$ORTHOMODE
 70
0
  9
$REGENMODE
 70
1
  9
$FILLMODE
 70
1
  9
$QTEXTMODE
 70
0
  9
$MIRRTEXT
 70
1
  9
$LTSCALE
 40
1.0
  9
$ATTMODE
 70
1
  9
$TEXTSIZE
 40
2.5
  9
$TRACEWID
 40
1.0
  9
$TEXTSTYLE
  7
Standard
  9
$CLAYER
  8
0
  9
$CELTYPE
  6
ByLayer
  9
$CECOLOR
 62
256
  9
$CELTSCALE
 40
1.0
  9
$DISPSILH
 70
0
  9
$DIMSCALE
 40
1.0
  9
$DIMASZ
 40
2.5
  9
$DIMEXO
 40
0.625
  9
$DIMDLI
 40
3.75
  9
$DIMRND
 40
0.0
  9
$DIMDLE
 40
0.0
  9
$DIMEXE
 40
1.25
  9
$DIMTP
 40
0.0
  9
$DIMTM
 40
0.0
  9
$DIMTXT
 40
2.5
  9
$DIMCEN
 40
2.5
  9
$DIMTSZ
 40
0.0
  9
$DIMTOL
 70
0
  9
$DIMLIM
 70
0
  9
$DIMTIH
 70
0
  9
$DIMTOH
 70
0
  9
$DIMSE1
 70
0
  9
$DIMSE2
 70
0
  9
$DIMTAD
 70
1
  9
$DIMZIN
 70
8
  9
$DIMBLK
  1

  9
$DIMASO
 70
1
  9
$DIMSHO
 70
1
  9
$DIMPOST
  1

  9
$DIMAPOST
  1

  9
$DIMALT
 70
0
  9
$DIMALTD
 70
3
  9
$DIMALTF
 40
0.03937007874
  9
$DIMLFAC
 40
1.0
  9
$DIMTOFL
 70
1
  9
$DIMTVP
 40
0.0
  9
$DIMTIX
 70
0
  9
$DIMSOXD
 70
0
  9
$DIMSAH
 70
0
  9
$DIMBLK1
  1

  9
$DIMBLK2
  1

  9
$DIMSTYLE
  2
ISO-25
  9
$DIMCLRD
 70
0
  9
$DIMCLRE
 70
0
  9
$DIMCLRT
 70
0
  9
$DIMTFAC
 40
1.0
  9
$DIMGAP
 40
0.625
  9
$DIMJUST
 70
0
  9
$DIMSD1
 70
0
  9
$DIMSD2
 70
0
  9
$DIMTOLJ
 70
0
  9
$DIMTZIN
 70
8
  9
$DIMALTZ
 70
0
  9
$DIMALTTZ
 70
0
  9
$DIMUPT
 70
0
  9
$DIMDEC
 70
2
  9
$DIMTDEC
 70
2
  9
$DIMALTU
 70
2
  9
$DIMALTTD
 70
3
  9
$DIMTXSTY
  7
Standard
  9
$DIMAUNIT
 70
0
  9
$DIMADEC
 70
0
  9
$DIMALTRND
 40
0.0
  9
$DIMAZIN
 70
0
  9
$DIMDSEP
 70
44
  9
$DIMATFIT
 70
3
  9
$DIMFRAC
 70
0
  9
$DIMLDRBLK
  1

  9
$DIMLUNIT
 70
2
  9
$DIMLWD
 70
-2
  9
$DIMLWE
 70
-2
  9
$DIMTMOVE
 70
0
  9
$DIMFXL
 40
1.0
  9
$DIMFXLON
 70
0
  9
$DIMJOGANG
 40
0.785398163397
  9
$DIMTFILL
 70
0
  9
$DIMTFILLCLR
 70
0
  9
$DIMARCSYM
 70
0
  9
$DIMLTYPE
  6

  9
$DIMLTEX1
  6

  9
$DIMLTEX2
  6

  9
$DIMTXTDIRECTION
 70
0
  9
$LUNITS
 70
2
  9
$LUPREC
 70
4
  9
$SKETCHINC
 40
1.0
  9
$FILLETRAD
 40
10.0
  9
$AUNITS
 70
0
  9
$AUPREC
 70
2
  9
$MENU
  1
.
  9
$ELEVATION
 40
0.0
  9
$PELEVATION
 40
0.0
  9
$THICKNESS
 40
0.0
  9
$LIMCHECK
 70
0
  9
$CHAMFERA
 40
0.0
  9
$CHAMFERB
 40
0.0
  9
$CHAMFERC
 40
0.0
  9
$CHAMFERD
 40
0.0
  9
$SKPOLY
 70
0
  9
$TDCREATE
 40
2460911.0343055557
  9
$TDUCREATE
 40
2458532.153996898
  9
$TDUPDATE
 40
2460911.0343055557
  9
$TDUUPDATE
 40
2458532.1544311
  9
$TDINDWG
 40
0.0
  9
$TDUSRTIMER
 40
0.0
  9
$USRTIMER
 70
1
  9
$ANGBASE
 50
0.0
  9
$ANGDIR
 70
0
  9
$PDMODE
 70
0
  9
$PDSIZE
 40
0.0
  9
$PLINEWID
 40
0.0
  9
$SPLFRAME
 70
0
  9
$SPLINETYPE
 70
6
  9
$SPLINESEGS
 70
8
  9
$HANDSEED
  5
33
  9
$SURFTAB1
 70
6
  9
$SURFTAB2
 70
6
  9
$SURFTYPE
 70
6
  9
$SURFU
 70
6
  9
$SURFV
 70
6
  9
$UCSBASE
  2

  9
$UCSNAME
  2

  9
$UCSORG
 10
0.0
 20
0.0
 30
0.0
  9
$UCSXDIR
 10
1.0
 20
0.0
 30
0.0
  9
$UCSYDIR
 10
0.0
 20
1.0
 30
0.0
  9
$UCSORTHOREF
  2

  9
$UCSORTHOVIEW
 70
0
  9
$UCSORGTOP
 10
0.0
 20
0.0
 30
0.0
  9
$UCSORGBOTTOM
 10
0.0
 20
0.0
 30
0.0
  9
$UCSORGLEFT
 10
0.0
 20
0.0
 30
0.0
  9
$UCSORGRIGHT
 10
0.0
 20
0.0
 30
0.0
  9
$UCSORGFRONT
 10
0.0
 20
0.0
 30
0.0
  9
$UCSORGBACK
 10
0.0
 20
0.0
 30
0.0
  9
$PUCSBASE
  2

  9
$PUCSNAME
  2

  9
$PUCSORG
 10
0.0
 20
0.0
 30
0.0
  9
$PUCSXDIR
 10
1.0
 20
0.0
 30
0.0
  9
$PUCSYDIR
 10
0.0
 20
1.0
 30
0.0
  9
$PUCSORTHOREF
  2

  9
$PUCSORTHOVIEW
 70
0
  9
$PUCSORGTOP
 10
0.0
 20
0.0
 30
0.0
  9
$PUCSORGBOTTOM
 10
0.0
 20
0.0
 30
0.0
  9
$PUCSORGLEFT
 10
0.0
 20
0.0
 30
0.0
  9
$PUCSORGRIGHT
 10
0.0
 20
0.0
 30
0.0
  9
$PUCSORGFRONT
 10
0.0
 20
0.0
 30
0.0
  9
$PUCSORGBACK
 10
0.0
 20
0.0
 30
0.0
  9
$USERI1
 70
0
  9
$USERI2
 70
0
  9
$USERI3
 70
0
  9
$USERI4
 70
0
  9
$USERI5
 70
0
  9
$USERR1
 40
0.0
  9
$USERR2
 40
0.0
  9
$USERR3
 40
0.0
  9
$USERR4
 40
0.0
  9
$USERR5
 40
0.0
  9
$WORLDVIEW
 70
1
  9
$SHADEDGE
 70
3
  9
$SHADEDIF
 70
70
  9
$TILEMODE
 70
1
  9
$MAXACTVP
 70
64
  9
$PINSBASE
 10
0.0
 20
0.0
 30
0.0
  9
$PLIMCHECK
 70
0
  9
$PEXTMIN
 10
1e+20
 20
1e+20
 30
1e+20
  9
$PEXTMAX
 10
-1e+20
 20
-1e+20
 30
-1e+20
  9
$PLIMMIN
 10
0.0
 20
0.0
  9
$PLIMMAX
 10
420.0
 20
297.0
  9
$UNITMODE
 70
0
  9
$VISRETAIN
 70
1
  9
$PLINEGEN
 70
0
  9
$PSLTSCALE
 70
1
  9
$TREEDEPTH
 70
3020
  9
$CMLSTYLE
  2
Standard
  9
$CMLJUST
 70
0
  9
$CMLSCALE
 40
20.0
  9
$PROXYGRAPHICS
 70
1
  9
$MEASUREMENT
 70
1
  9
$CELWEIGHT
370
-1
  9
$ENDCAPS
280
0
  9
$JOINSTYLE
280
0
  9
$LWDISPLAY
290
0
  9
$INSUNITS
 70
6
  9
$HYPERLINKBASE
  1

  9
$STYLESHEET
  1

  9
$XEDIT
290
1
  9
$CEPSNTYPE
380
0
  9
$PSTYLEMODE
290
1
  9
$FINGERPRINTGUID
  2
{230ABFC3-FA14-40C3-A5C0-ECD6E8DD59CC}
  9
$VERSIONGUID
  2
{D228D64A-7D55-437C-90D5-0BBB78E52FC0}
  9
$EXTNAMES
290
1
  9
$PSVPSCALE
 40
0.0
  9
$OLESTARTUP
290
0
  9
$SORTENTS
280
127
  9
$INDEXCTL
280
0
  9
$HIDETEXT
280
1
  9
$XCLIPFRAME
280
1
  9
$HALOGAP
280
0
  9
$OBSCOLOR
 70
257
  9
$OBSLTYPE
280
0
  9
$INTERSECTIONDISPLAY
280
0
  9
$INTERSECTIONCOLOR
 70
257
  9
$DIMASSOC
280
2
  9
$PROJECTNAME
  1

  9
$CAMERADISPLAY
290
0
  9
$LENSLENGTH
 40
50.0
  9
$CAMERAHEIGHT
 40
0.0
  9
$STEPSPERSEC
 40
24.0
  9
$STEPSIZE
 40
100.0
  9
$3DDWFPREC
 40
2.0
  9
$PSOLWIDTH
 40
0.005
  9
$PSOLHEIGHT
 40
0.08
  9
$LOFTANG1
 40
1.570796326795
  9
$LOFTANG2
 40
1.570796326795
  9
$LOFTMAG1
 40
0.0
  9
$LOFTMAG2
 40
0.0
  9
$LOFTPARAM
 70
7
  9
$LOFTNORMALS
280
1
  9
$LATITUDE
 40
37.795
  9
$LONGITUDE
 40
-122.394
  9
$NORTHDIRECTION
 40
0.0
  9
$TIMEZONE
 70
-8000
  9
$LIGHTGLYPHDISPLAY
280
1
  9
$TILEMODELIGHTSYNCH
280
1
  9
$CMATERIAL
347
20
  9
$SOLIDHIST
280
0
  9
$SHOWHIST
280
1
  9
$DWFFRAME
280
2
  9
$DGNFRAME
280
2
  9
$REALWORLDSCALE
290
1
  9
$INTERFERECOLOR
 62
256
  9
$CSHADOW
280
0
  9
$SHADOWPLANELOCATION
 40
0.0
  0
ENDSEC
  0
SECTION
  2
CLASSES
  0
CLASS
  1
ACDBDICTIONARYWDFLT
  2
AcDbDictionaryWithDefault
  3
ObjectDBX Classes
 90
0
 91
0
280
0
281
0
  0
CLASS
  1
SUN
  2
AcDbSun
  3
SCENEOE
 90
1153
 91
0
280
0
281
0
  0
CLASS
  1
VISUALSTYLE
  2
AcDbVisualStyle
  3
ObjectDBX Classes
 90
4095
 91
0
280
0
281
0
  0
CLASS
  1
MATERIAL
  2
AcDbMaterial
  3
ObjectDBX Classes
 90
1153
 91
0
280
0
281
0
  0
CLASS
  1
SCALE
  2
AcDbScale
  3
ObjectDBX Classes
 90
1153
 91
0
280
0
281
0
  0
CLASS
  1
TABLESTYLE
  2
AcDbTableStyle
  3
ObjectDBX Classes
 90
4095
 91
0
280
0
281
0
  0
CLASS
  1
MLEADERSTYLE
  2
AcDbMLeaderStyle
  3
ACDB_MLEADERSTYLE_CLASS
 90
4095
 91
0
280
0
281
0
  0
CLASS
  1
DICTIONARYVAR
  2
AcDbDictionaryVar
  3
ObjectDBX Classes
 90
0
 91
0
280
0
281
0
  0
CLASS
  1
CELLSTYLEMAP
  2
AcDbCellStyleMap
  3
ObjectDBX Classes
 90
1152
 91
0
280
0
281
0
  0
CLASS
  1
MENTALRAYRENDERSETTINGS
  2
AcDbMentalRayRenderSettings
  3
SCENEOE
 90
1024
 91
0
280
0
281
0
  0
CLASS
  1
ACDBDETAILVIEWSTYLE
  2
AcDbDetailViewStyle
  3
ObjectDBX Classes
 90
1025
 91
0
280
0
281
0
  0
CLASS
  1
ACDBSECTIONVIEWSTYLE
  2
AcDbSectionViewStyle
  3
ObjectDBX Classes
 90
1025
 91
0
280
0
281
0
  0
CLASS
  1
RASTERVARIABLES
  2
AcDbRasterVariables
  3
ISM
 90
0
 91
0
280
0
281
0
  0
CLASS
  1
ACDBPLACEHOLDER
  2
AcDbPlaceHolder
  3
ObjectDBX Classes
 90
0
 91
0
280
0
281
0
  0
CLASS
  1
LAYOUT
  2
AcDbLayout
  3
ObjectDBX Classes
 90
0
 91
0
280
0
281
0
  0
ENDSEC
  0
SECTION
  2
TABLES
  0
TABLE
  2
VPORT
  5
8
330
0
100
AcDbSymbolTable
 70
1
  0
VPORT
  5
23
330
8
100
AcDbSymbolTableRecord
100
AcDbViewportTableRecord
  2
*Active
 70
0
 10
0.0
 20
0.0
 11
1.0
 21
1.0
 12
0.0
 22
0.0
 13
0.0
 23
0.0
 14
0.5
 24
0.5
 15
0.5
 25
0.5
 16
0.0
 26
0.0
 36
1.0
 17
0.0
 27
0.0
 37
0.0
 40
1000.0
 41
1.34
 42
50.0
 43
0.0
 44
0.0
 50
0.0
 51
0.0
 71
0
 72
1000
 73
1
 74
3
 75
0
 76
0
 77
0
 78
0
281
0
 65
0
146
0.0
  0
ENDTAB
  0
TABLE
  2
LTYPE
  5
2
330
0
100
AcDbSymbolTable
 70
3
  0
LTYPE
  5
24
330
2
100
AcDbSymbolTableRecord
100
AcDbLinetypeTableRecord
  2
ByBlock
 70
0
  3

 72
65
 73
0
 40
0.0
  0
LTYPE
  5
25
330
2
100
AcDbSymbolTableRecord
100
AcDbLinetypeTableRecord
  2
ByLayer
 70
0
  3

 72
65
 73
0
 40
0.0
  0
LTYPE
  5
26
330
2
100
AcDbSymbolTableRecord
100
AcDbLinetypeTableRecord
  2
Continuous
 70
0
  3

 72
65
 73
0
 40
0.0
  0
ENDTAB
  0
TABLE
  2
LAYER
  5
1
330
0
100
AcDbSymbolTable
 70
2
  0
LAYER
  5
27
330
1
100
AcDbSymbolTableRecord
100
AcDbLayerTableRecord
  2
0
 70
0
 62
7
  6
Continuous
370
-3
390
13
347
21
  0
LAYER
  5
28
330
1
100
AcDbSymbolTableRecord
100
AcDbLayerTableRecord
  2
Defpoints
 70
0
 62
7
  6
Continuous
290
0
370
-3
390
13
347
21
  0
ENDTAB
  0
TABLE
  2
STYLE
  5
5
330
0
100
AcDbSymbolTable
 70
1
  0
STYLE
  5
29
330
5
100
AcDbSymbolTableRecord
100
AcDbTextStyleTableRecord
  2
Standard
 70
0
 40
0.0
 41
1.0
 50
0.0
 71
0
 42
2.5
  3
txt
  4

  0
ENDTAB
  0
TABLE
  2
VIEW
  5
7
330
0
100
AcDbSymbolTable
 70
0
  0
ENDTAB
  0
TABLE
  2
UCS
  5
6
330
0
100
AcDbSymbolTable
 70
0
  0
ENDTAB
  0
TABLE
  2
APPID
  5
3
330
0
100
AcDbSymbolTable
 70
3
  0
APPID
  5
2A
330
3
100
AcDbSymbolTableRecord
100
AcDbRegAppTableRecord
  2
ACAD
 70
0
  0
APPID
  5
30
330
3
100
AcDbSymbolTableRecord
100
AcDbRegAppTableRecord
  2
HATCHBACKGROUNDCOLOR
 70
0
  0
APPID
  5
31
330
3
100
AcDbSymbolTableRecord
100
AcDbRegAppTableRecord
  2
EZDXF
 70
0
  0
ENDTAB
  0
TABLE
  2
DIMSTYLE
  5
4
330
0
100
AcDbSymbolTable
 70
1
100
AcDbDimStyleTable
  0
DIMSTYLE
105
2B
330
4
100
AcDbSymbolTableRecord
100
AcDbDimStyleTableRecord
  2
Standard
 70
0
 40
1.0
 41
2.5
 42
0.625
 43
3.75
 44
1.25
 45
0.0
 46
0.0
 47
0.0
 48
0.0
 49
2.5
140
2.5
141
2.5
142
0.0
143
0.03937007874
144
1.0
145
0.0
146
1.0
147
0.625
148
0.0
 69
0
 70
0
 71
0
 72
0
 73
0
 74
0
 75
0
 76
0
 77
1
 78
8
 79
3
170
0
171
3
172
1
173
0
174
0
175
0
176
0
177
0
178
0
179
2
271
2
272
2
273
2
274
3
275
0
276
0
277
2
278
44
279
0
280
0
281
0
282
0
283
0
284
8
285
0
286
0
288
0
289
3
290
0
371
-2
372
-2
  0
ENDTAB
  0
TABLE
  2
BLOCK_RECORD
  5
9
330
0
100
AcDbSymbolTable
 70
2
  0
BLOCK_RECORD
  5
17
330
9
100
AcDbSymbolTableRecord
100
AcDbBlockTableRecord
  2
*Model_Space
340
1A
 70
0
280
1
281
0
  0
BLOCK_RECORD
  5
1B
330
9
100
AcDbSymbolTableRecord
100
AcDbBlockTableRecord
  2
*Paper_Space
340
1E
 70
0
280
1
281
0
  0
ENDTAB
  0
ENDSEC
  0
SECTION
  2
BLOCKS
  0
BLOCK
  5
18
330
17
100
AcDbEntity
  8
0
100
AcDbBlockBegin
  2
*Model_Space
 70
0
 10
0.0
 20
0.0
 30
0.0
  3
*Model_Space
  1

  0
ENDBLK
  5
19
330
17
100
AcDbEntity
  8
0
100
AcDbBlockEnd
  0
BLOCK
  5
1C
330
1B
100
AcDbEntity
  8
0
100
AcDbBlockBegin
  2
*Paper_Space
 70
0
 10
0.0
 20
0.0
 30
0.0
  3
*Paper_Space
  1

  0
ENDBLK
  5
1D
330
1B
100
AcDbEntity
  8
0
100
AcDbBlockEnd
  0
ENDSEC
  0
SECTION
  2
ENTITIES
  0
LWPOLYLINE
  5
2F
330
17
100
AcDbEntity
  8
0
100
AcDbPolyline
 90
722
 70
1
 10
41.452475777831154
 20
2.1754041209454957
 10
41.45127387815484
 20
2.175769631457029
 10
41.4476743197286
 20
2.1767417242272744
 10
41.44168936228718
 20
2.1780719568280915
 10
41.433250754011425
 20
2.1798807684313473
 10
41.42249194050726
 20
2.1819892514465873
 10
41.40934773412237
 20
2.184455749977949
 10
41.39375906940383
 20
2.187214542308565
 10
41.37585020252406
 20
2.1902729438939397
 10
41.35556206803012
 20
2.193565233017204
 10
41.33282640490117
 20
2.1972120353219013
 10
41.30777360377788
 20
2.201096351813628
 10
41.28034152890596
 20
2.2052146801576957
 10
41.25052711305127
 20
2.2096291775790564
 10
41.21833649068205
 20
2.2142155296278037
 10
41.183763521195615
 20
2.219098175068295
 10
41.146873401445895
 20
2.224218583324716
 10
41.107603995678616
 20
2.2295732520623774
 10
41.06595223665964
 20
2.235224338506232
 10
41.02198638234257
 20
2.2410512791699637
 10
40.97563816557211
 20
2.247174824011563
 10
40.92691371774925
 20
2.2534707207383495
 10
40.87593115751097
 20
2.2600706614129584
 10
40.822507163231876
 20
2.266901608863018
 10
40.76682811456977
 20
2.2739746295076224
 10
40.708769752284994
 20
2.2812824700484913
 10
40.648394196795664
 20
2.2888289436064393
 10
40.585701445034566
 20
2.296614112338693
 10
40.52068842670034
 20
2.304700195627429
 10
40.45335513259128
 20
2.3130873799443226
 10
40.38370769410838
 20
2.321651412996692
 10
40.3117399737162
 20
2.33051667139167
 10
40.23751715599974
 20
2.3396248731823417
 10
40.16097404410505
 20
2.349034548944522
 10
40.08211676023142
 20
2.358621632857203
 10
40.00100129953047
 20
2.3685140660194306
 10
39.91762458556636
 20
2.3787741921278336
 10
39.831995813907014
 20
2.3892156638220046
 10
39.74404671126262
 20
2.399959355374381
 10
39.653904601039734
 20
2.4109504250155167
 10
39.56144214756289
 20
2.42224396314376
 10
39.46678360393728
 20
2.4338473473718394
 10
39.369866831341376
 20
2.4457571375222917
 10
39.27075395326054
 20
2.457977084558705
 10
39.16938589810734
 20
2.470441591078663
 10
39.06582478936717
 20
2.483154408045754
 10
38.96000235375025
 20
2.4962364097324197
 10
38.852045911595894
 20
2.5096328165264374
 10
38.74189332408256
 20
2.5233401882503412
 10
38.6295445850758
 20
2.5373586492185827
 10
38.51499967923943
 20
2.551688510217284
 10
38.39831766895919
 20
2.566395555120541
 10
38.27943947651317
 20
2.581414310840384
 10
38.158424161219855
 20
2.596810623408131
 10
38.03527477497722
 20
2.6125226463849547
 10
37.909997449186235
 20
2.6284261274781717
 10
37.7826481667296
 20
2.6446492564157307
 10
37.65315865738474
 20
2.6613128453128465
 10
37.521528905815515
 20
2.6784172049556445
 10
37.38783024027687
 20
2.69577955247563
 10
37.252059581265755
 20
2.7134622937266566
 10
37.11421692264771
 20
2.7314655530231735
 10
36.9742930473842
 20
2.7499761128261655
 10
36.83230328244411
 20
2.7686833734825407
 10
36.688303616844586
 20
2.787715400405796
 10
36.54229097414981
 20
2.8071345372925594
 10
36.394200145236894
 20
2.8269995633475453
 10
36.24415844737792
 20
2.847255761115754
 10
36.09210680591824
 20
2.867837595351992
 10
35.938045214723374
 20
2.8887451903707095
 10
35.78202965667603
 20
2.910106735899855
 10
35.62407238844369
 20
2.9316738516685112
 10
35.46410513980384
 20
2.9535673497918977
 10
35.3022490904931
 20
2.975856889422146
 10
35.13850423130978
 20
2.9985426570309324
 10
34.97281455790057
 20
3.0214968979908843
 10
34.805176987695184
 20
3.0447820803130807
 10
34.635715773798815
 20
3.0684055816102496
 10
34.46436263985448
 20
3.09248833831206
 10
34.29112677836282
 20
3.116844065215326
 10
34.116070309741964
 20
3.141476575440861
 10
33.93919322479022
 20
3.1663860554603414
 10
33.760489373703194
 20
3.1916971305097985
 10
33.579958747279164
 20
3.2174099870609076
 10
33.39760440355055
 20
3.243462654360389
 10
33.21355366285672
 20
3.2698003527960218
 10
33.02767918032042
 20
3.2964783592378257
 10
32.84004307942705
 20
3.3235004246493935
 10
32.65071668536432
 20
3.350683828319454
 10
32.459634782874886
 20
3.3780874737671693
 10
32.26685029374176
 20
3.405901583630991
 10
32.07242534145033
 20
3.4341299088745094
 10
31.876241779758494
 20
3.4626413168501107
 10
31.67843306960829
 20
3.491256589181216
 10
31.478986929794324
 20
3.520224603396539
 10
31.277906418348987
 20
3.5494833887428
 10
31.07518845576926
 20
3.5790953510738537
 10
30.87090129694151
 20
3.608939989060608
 10
30.665044935731256
 20
3.6390174270175124
 10
30.45755722411525
 20
3.669324411238776
 10
30.248559351031833
 20
3.6999304144048586
 10
30.03798917459223
 20
3.730832058495519
 10
29.825914952750054
 20
3.761908780024441
 10
29.612336673236364
 20
3.793160827620525
 10
29.397316462603754
 20
3.8245918900901343
 10
29.18078910559489
 20
3.856260870952434
 10
28.962810594294123
 20
3.888295773463695
 10
28.743327979313342
 20
3.9205069344004917
 10
28.52252459761412
 20
3.9529670801490733
 10
28.300288434355362
 20
3.985420825769146
 10
28.07661640696678
 20
4.017930639271786
 10
27.85162357912019
 20
4.050690121315687
 10
27.625306871312542
 20
4.0837616777547
 10
27.397551204535844
 20
4.11695201871626
 10
27.168611250141126
 20
4.1501509634036715
 10
26.938303655830623
 20
4.1832860962168095
 10
26.706743479141668
 20
4.216551142128814
 10
26.473865507884142
 20
4.250004942501625
 10
26.23979707466632
 20
4.283592469094118
 10
26.004485236234526
 20
4.317123934368417
 10
25.767985984673146
 20
4.3507273415807965
 10
25.530293173245006
 20
4.3845272538100595
 10
25.29142213198622
 20
4.418213009245891
 10
25.05137591892921
 20
4.451722637135014
 10
24.810263463277543
 20
4.485374052586024
 10
24.567963548487786
 20
4.5190983423334865
 10
24.32459737269997
 20
4.552964792586186
 10
24.08018333318433
 20
4.586600584308852
 10
23.834718353505036
 20
4.620068061198114
 10
23.588196293059394
 20
4.653491662018326
 10
23.340607934808897
 20
4.687058169230476
 10
23.092089825333094
 20
4.720525834289679
 10
22.842529940589184
 20
4.753639458727316
 10
22.592105495339457
 20
4.786595834750644
 10
22.34067686043409
 20
4.819699178915624
 10
22.088318443631064
 20
4.852704302499907
 10
21.835042498530683
 20
4.885362887389805
 10
21.580967171375068
 20
4.917806066232929
 10
21.325965101950803
 20
4.950089426685428
 10
21.070157497599656
 20
4.982282068484411
 10
20.813485277532486
 20
5.014318580699134
 10
20.556016711971836
 20
5.046078151214379
 10
20.29781393667203
 20
5.07756428236484
 10
20.03881480054256
 20
5.108773782601946
 10
19.779143584293784
 20
5.139713470123408
 10
19.518675994946427
 20
5.170376775360418
 10
19.257530172608117
 20
5.200894955275038
 10
18.995709187580196
 20
5.23120579048509
 10
18.733228363764322
 20
5.2609987434947065
 10
18.470081560557787
 20
5.290398253068245
 10
18.206389994504043
 20
5.3194732324711405
 10
17.942026305389703
 20
5.348279269359537
 10
17.67712090839333
 20
5.376698867481238
 10
17.41167686768181
 20
5.404669931768511
 10
17.145697247422017
 20
5.432130367153631
 10
16.879175900876792
 20
5.459204736715403
 10
16.612171908835272
 20
5.485958451384571
 10
16.344685262095744
 20
5.5123916976328085
 10
16.076787304249347
 20
5.538321381805498
 10
15.808418954506944
 20
5.563682092971896
 10
15.539645418924195
 20
5.588415114084512
 10
15.270519640754765
 20
5.612710232681223
 10
15.000970267205837
 20
5.636750728888324
 10
14.731127722657666
 20
5.660418919981938
 10
14.460954396959924
 20
5.683214294456648
 10
14.19043187750623
 20
5.705509982133849
 10
13.91968139617619
 20
5.727374585492852
 10
13.648646930213085
 20
5.748680722849634
 10
13.377331549918265
 20
5.769366174822014
 10
13.105850340434182
 20
5.78962410696811
 10
12.83414422710617
 20
5.809388984042728
 10
12.562284550458127
 20
5.828477774548476
 10
12.290209162466804
 20
5.846887224779559
 10
12.018039295011814
 20
5.864685937215289
 10
11.745771874724579
 20
5.881936193395069
 10
11.473416106374678
 20
5.898451459486814
 10
11.200968916593522
 20
5.914294017029926
 10
10.928489389237493
 20
5.929529214797925
 10
10.655906174580977
 20
5.944340270759881
 10
10.383361972075189
 20
5.958360748977654
 10
10.11085678172011
 20
5.971590649451245
 10
9.83838753934887
 20
5.984092067248382
 10
9.565951171592882
 20
5.9959272839084665
 10
9.293612902911217
 20
6.007037209440663
 10
9.021307514979268
 20
6.01748080952136
 10
8.749162374144897
 20
6.027202372179958
 10
8.477183617943558
 20
6.036077520809325
 10
8.20536817914115
 20
6.044168412634417
 10
7.933712993570775
 20
6.05153714272296
 10
7.662221128466561
 20
6.058121553850003
 10
7.39102302661217
 20
6.063803590348318
 10
7.120050399381657
 20
6.068704437276473
 10
6.8493592695317425
 20
6.072951476318489
 10
6.578902822142517
 20
6.0762307298010345
 10
6.3087992279939575
 20
6.078672833113923
 10
6.039039294585414
 20
6.080464071460337
 10
5.7695700663942855
 20
6.081414905931305
 10
5.5005219923387125
 20
6.081407156545148
 10
5.231888941017689
 20
6.080565075594548
 10
4.963614892741734
 20
6.078761219238261
 10
4.6958180274925185
 20
6.076126036394422
 10
4.428442328647792
 20
6.072532021064559
 10
4.161609040356111
 20
6.068047527099083
 10
3.895184658734159
 20
6.062852643075722
 10
3.629299632700068
 20
6.0568291890128
 10
3.363966231190309
 20
6.049728536010504
 10
3.0991813961724644
 20
6.041612654822114
 10
2.8349980801019043
 20
6.032671146513828
 10
2.5714193624816906
 20
6.022841605231796
 10
2.30844831361316
 20
6.012061811593838
 10
2.0461470937885107
 20
6.000334770676844
 10
1.7844474143817852
 20
5.987781667539381
 10
1.5234053104186411
 20
5.974529635236572
 10
1.2630952080605036
 20
5.960333112102718
 10
1.0035232479100653
 20
5.945067659373465
 10
0.7446833047007972
 20
5.92885740502704
 10
0.48663475060907974
 20
5.911761855057821
 10
0.22931592530187825
 20
5.893767872761249
 10
-0.027214072028255588
 20
5.874940496124716
 10
-0.28289615139049734
 20
5.855344949607294
 10
-0.5377802010733244
 20
5.834729537075051
 10
-0.7918040638517931
 20
5.813097325762104
 10
-1.044920918671524
 20
5.790762169027336
 10
-1.2971867882892403
 20
5.767596685186726
 10
-1.5484742910209208
 20
5.7435448514835485
 10
-1.7989077413164711
 20
5.718600533449574
 10
-2.0483628247259786
 20
5.692769865553033
 10
-2.2967835184927345
 20
5.66618022947795
 10
-2.54429720430075
 20
5.638887647981045
 10
-2.790826388754498
 20
5.610584402171669
 10
-3.036265160808765
 20
5.5816495698677695
 10
-3.2806818121567294
 20
5.552204398285143
 10
-3.5241200966186623
 20
5.521872876839949
 10
-3.7663935425196966
 20
5.490664207234539
 10
-4.007573508787133
 20
5.458761793909653
 10
-4.247663062655094
 20
5.426227794090246
 10
-4.486656069655334
 20
5.392937893326414
 10
-4.724431282572072
 20
5.358960383311336
 10
-4.961113015855216
 20
5.324289129576786
 10
-5.196586156757203
 20
5.289116738265853
 10
-5.430844570809799
 20
5.253318894928631
 10
-5.663885190778893
 20
5.2168334423401665
 10
-5.895711083898599
 20
5.1797225377254135
 10
-6.126266227412195
 20
5.142113562768393
 10
-6.355612778544633
 20
5.10400345023499
 10
-6.583620288377777
 20
5.06527402014353
 10
-6.8102887569116275
 20
5.025925272494012
 10
-7.035677274137017
 20
4.985891982827368
 10
-7.259726750063114
 20
4.945239375602665
 10
-7.4824463863922634
 20
4.904153922494765
 10
-7.703777093133624
 20
4.862700847962737
 10
-7.923706601350739
 20
4.820631523106766
 10
-8.14229706826856
 20
4.777942880692738
 10
-8.359358954978108
 20
4.734581965198047
 10
-8.575025777631641
 20
4.6907291138293195
 10
-8.789300603463271
 20
4.646446483811509
 10
-9.002059118023091
 20
4.601740209612851
 10
-9.21329825407699
 20
4.556548134008389
 10
-9.42307096714757
 20
4.510680718089146
 10
-9.631327368946343
 20
4.464389657989053
 10
-9.838076661175654
 20
4.41786142538297
 10
-10.043241350439972
 20
4.370788301380246
 10
-10.246883593964249
 20
4.323167218746764
 10
-10.448885211766816
 20
4.275128626400664
 10
-10.649308361072618
 20
4.226669457107831
 10
-10.848156109115774
 20
4.177851868093215
 10
-11.045357096968981
 20
4.128492454916072
 10
-11.240917459100476
 20
4.078715532026311
 10
-11.434837195510257
 20
4.028521099423933
 10
-11.627128575134781
 20
3.9781577860087483
 10
-11.817664216290037
 20
3.927569569024037
 10
-12.006559231723573
 20
3.876563842326706
 10
-12.19374532974221
 20
3.8250193587009664
 10
-12.379172622057458
 20
3.7731878142807456
 10
-12.562909400362498
 20
3.721190456281835
 10
-12.74488123849592
 20
3.668781723038537
 10
-12.925032113700997
 20
3.616088996234875
 10
-13.10348940766175
 20
3.563168298627569
 10
-13.280128805928276
 20
3.510025764684853
 10
-13.454941106798225
 20
3.456474922731864
 10
-13.62793551197395
 20
3.4027022444434647
 10
-13.79911508868956
 20
3.3487698870446065
 10
-13.968476769710941
 20
3.294615693310338
 10
-14.135958397813141
 20
3.240242730474773
 10
-14.301556905762045
 20
3.1855888413129585
 10
-14.46533751801672
 20
3.130713115815734
 10
-14.62717592012726
 20
3.0756216884513283
 10
-14.787078246561894
 20
3.0204388736696504
 10
-14.945162677302301
 20
2.9650342225525605
 10
-15.101242740673623
 20
2.9094169368024065
 10
-15.25537752666669
 20
2.8535217919601195
 10
-15.407579304217974
 20
2.7975974169255124
 10
-15.557848073327465
 20
2.741643811698586
 10
-15.706115542301983
 20
2.6855397290635485
 10
-15.852378643907414
 20
2.6292230117954474
 10
-15.996696468134594
 20
2.5726284354352122
 10
-16.138960036704198
 20
2.5160729205758425
 10
-16.279228439607063
 20
2.4594912427582685
 10
-16.417495542374944
 20
2.4027590875325844
 10
-16.553699187782907
 20
2.3458795221329045
 10
-16.68784551029917
 20
2.2889768610091368
 10
-16.819928375455515
 20
2.231926789711374
 10
-16.94995085048604
 20
2.17479146546457
 10
-17.077916002624878
 20
2.117633045493677
 10
-17.203755540178832
 20
2.0603302825829046
 10
-17.327478664850254
 20
2.0030696484071138
 10
-17.44913526492764
 20
1.945599446832374
 10
-17.568675452122484
 20
1.8881713739926154
 10
-17.686096159200687
 20
1.8307232726628846
 10
-17.80139431892812
 20
1.773192985618227
 10
-17.91450777407984
 20
1.7155835800927595
 10
-18.02550174911491
 20
1.65795414607732
 10
-18.134323288510725
 20
1.6004942224808838
 10
-18.240966257799055
 20
1.543079494853544
 10
-18.345430656979904
 20
1.4857099631953008
 10
-18.44778171051233
 20
1.4284447174969923
 10
-18.547892036712312
 20
1.371227735001896
 10
-18.64582992727305
 20
1.3141802629258035
 10
-18.74153935943781
 20
1.257429682952737
 10
-18.835082490431542
 20
1.2009729278485806
 10
-18.926391028561067
 20
1.1446887503975436
 10
-19.015530198285454
 20
1.0886362405904635
 10
-19.102375685154797
 20
1.032821532895572
 10
-19.18705793808723
 20
0.9773628072945444
 10
-19.269455709866964
 20
0.9223283554805651
 10
-19.349625023250724
 20
0.8675907957696122
 10
-19.427565878238507
 20
0.8131501281616856
 10
-19.503278274830315
 20
0.7590063526567845
 10
-19.57670619026942
 20
0.7052868509389325
 10
-19.647849624555832
 20
0.6519916230081291
 10
-19.716761533212146
 20
0.5989311299553987
 10
-19.783388960715765
 20
0.5462949106897166
 10
-19.847719638130222
 20
0.4938343363112697
 10
-19.909765834391983
 20
0.44179803571987125
 10
-19.96951528056458
 20
0.3899373800157078
 10
-20.026974111116246
 20
0.3383766836486866
 10
-20.08214232604698
 20
0.2871159466188069
 10
-20.134954700897723
 20
0.23609607893523127
 10
-20.1855416845866
 20
0.18543526057963516
 10
-20.233707603736413
 20
0.13495622157950563
 10
-20.27964506449024
 20
0.084774074682402
 10
-20.323226685164073
 20
0.0348327971316025
 10
-20.364461667460255
 20
-0.014681139398032308
 10
-20.403406034135507
 20
-0.0638951165905253
 10
-20.440000695198993
 20
-0.11274390998680772
 10
-20.47425791958717
 20
-0.16097889068706525
 10
-20.506230662822656
 20
-0.20878959760027396
 10
-20.53586290214871
 20
-0.2560486490424113
 10
-20.563160772033584
 20
-0.3026317305635706
 10
-20.588136541413725
 20
-0.348290213263938
 10
-20.610790210289146
 20
-0.3930240971435136
 10
-20.631190070353025
 20
-0.4367121349865062
 10
-20.64922714332603
 20
-0.4790374061999168
 10
-20.664975855369587
 20
-0.519754349118048
 10
-20.678529036049795
 20
-0.5582444587254807
 10
-20.689783841555567
 20
-0.5940664999793098
 10
-20.698851504857707
 20
-0.6262290245143955
 10
-20.705843258927015
 20
-0.6537405839655995
 10
-20.71070840293236
 20
-0.675103270465807
 10
-20.7135857749516
 20
-0.6887662206252981
 10
-20.695164068992167
 20
-1.0860713227508996
 10
-20.69382665277815
 20
-1.089183063775326
 10
-20.689817471370215
 20
-1.0984561296236524
 10
-20.683148793704827
 20
-1.1136418913960646
 10
-20.67370631957706
 20
-1.1357939546826552
 10
-20.661549951520396
 20
-1.1662237556756783
 10
-20.646777028483893
 20
-1.2016960514434392
 10
-20.629420477500194
 20
-1.2402809007782656
 10
-20.609644487062706
 20
-1.2811763942239949
 10
-20.587451311862903
 20
-1.3230741628224885
 10
-20.56280639978287
 20
-1.3654117243150496
 10
-20.535849401443098
 20
-1.4078844270451432
 10
-20.506530428555102
 20
-1.4502405748788398
 10
-20.474861750055336
 20
-1.4922315389163252
 10
-20.440849500412032
 20
-1.533733004707693
 10
-20.40449367962519
 20
-1.574744972252943
 10
-20.365859512153882
 20
-1.615208351561237
 10
-20.324890975241384
 20
-1.654995760948553
 10
-20.281585001653585
 20
-1.6941693576398444
 10
-20.23600681584955
 20
-1.7326700516442735
 10
-20.18808812613609
 20
-1.7706190901776309
 10
-20.13783199974733
 20
-1.8079543160149638
 10
-20.0853688856014
 20
-1.8445575491745967
 10
-20.0305031103211
 20
-1.8806060596290424
 10
-19.9734242128154
 20
-1.9160468918556945
 10
-19.914004811400275
 20
-1.9509360686112758
 10
-19.852310130534804
 20
-1.9852144999049481
 10
-19.788343237453095
 20
-2.0188200285117577
 10
-19.722094930452805
 20
-2.0519391261065647
 10
-19.653571344002167
 20
-2.084447478239464
 10
-19.582760209164707
 20
-2.1165937138102673
 10
-19.509670727642785
 20
-2.148191361144115
 10
-19.434358922193113
 20
-2.1793678019250295
 10
-19.35676263559075
 20
-2.2101199689188955
 10
-19.27687573336745
 20
-2.2405721765756197
 10
-19.19476343998229
 20
-2.270665334904364
 10
-19.11042268820116
 20
-2.300461601130083
 10
-19.023853478024048
 20
-2.3299609752527757
 10
-18.93498445052366
 20
-2.3593468617131865
 10
-18.84394298738402
 20
-2.388563237754594
 10
-18.75060784138933
 20
-2.4175418116838125
 10
-18.655103326989504
 20
-2.446288717969075
 10
-18.557361152491353
 20
-2.474925203826171
 10
-18.45744347511983
 20
-2.503454336489217
 10
-18.355291204884104
 20
-2.531810891499144
 10
-18.250972633477353
 20
-2.5598736216401607
 10
-18.144422536440512
 20
-2.587701616903104
 10
-18.03576216098936
 20
-2.61536316898116
 10
-17.924929349898964
 20
-2.642855210640213
 10
-17.81192410316931
 20
-2.670177741880262
 10
-17.69675562250275
 20
-2.6971442910264467
 10
-17.579486065124236
 20
-2.723757925312884
 10
-17.46005327380881
 20
-2.7500155775054567
 10
-17.338513271313204
 20
-2.7760446292881884
 10
-17.214866057637412
 20
-2.8018450806610797
 10
-17.089123901717898
 20
-2.8271683027243157
 10
-16.96134282631138
 20
-2.852141677161919
 10
-16.831463741427026
 20
-2.8766999795148207
 10
-16.699483579830712
 20
-2.900905367007974
 10
-16.565464498747406
 20
-2.9247609068754956
 10
-16.429409565411213
 20
-2.9482044418924307
 10
-16.29131571258802
 20
-2.971298129283734
 10
-16.151182940277824
 20
-2.9940419690494045
 10
-16.009014315714747
 20
-3.0163738039644894
 10
-15.864868928889619
 20
-3.038358858488057
 10
-15.718746779802444
 20
-3.0599971326201088
 10
-15.570588778462387
 20
-3.0812234019015743
 10
-15.42051310485112
 20
-3.102168115250592
 10
-15.268460668977804
 20
-3.1227660482080934
 10
-15.114428403608327
 20
-3.143079357999032
 10
-14.958481533201756
 20
-3.1630489546325693
 10
-14.800629259460438
 20
-3.182488366433845
 10
-14.640862380682027
 20
-3.201584065077719
 10
-14.479112605173338
 20
-3.220457297779985
 10
-14.315569471843348
 20
-3.239055109018034
 10
-14.150114800710377
 20
-3.2572470498737283
 10
-13.982751659008546
 20
-3.2749709631221156
 10
-13.813598226719526
 20
-3.292357297681333
 10
-13.64258927938425
 20
-3.309465143542218
 10
-13.469730951470952
 20
-3.326170186254865
 10
-13.29508540020458
 20
-3.3424754930533886
 10
-13.118655692819255
 20
-3.3583189067128356
 10
-12.940432627612626
 20
-3.3738868989080673
 10
-12.760422339052928
 20
-3.3890551551891757
 10
-12.578618692671927
 20
-3.403947990006068
 10
-12.395155204621876
 20
-3.418385066152115
 10
-12.209904493218755
 20
-3.4324224063840387
 10
-12.022928715687518
 20
-3.4460630779359565
 10
-11.834286962018998
 20
-3.4593723052669354
 10
-11.643923209456476
 20
-3.4722227066929534
 10
-11.451893480756679
 20
-3.4847416638980335
 10
-11.258263000378667
 20
-3.496870086891338
 10
-11.062913588340772
 20
-3.508477526754729
 10
-10.865969559092894
 20
-3.519570117956436
 10
-10.667421710932693
 20
-3.5303343321713214
 10
-10.467270043860163
 20
-3.5407701693993836
 10
-10.265514557875306
 20
-3.5508776296406244
 10
-10.062226611905427
 20
-3.560473308454298
 10
-9.857412340418747
 20
-3.5694328913904974
 10
-9.650997317253863
 20
-3.5780019401149215
 10
-9.44310585686067
 20
-3.586186589095801
 10
-9.233681936482455
 20
-3.593859456649113
 10
-9.022793847812398
 20
-3.600899295559068
 10
-8.81043238914815
 20
-3.6074925775005244
 10
-8.596653583246438
 20
-3.6137666841575053
 10
-8.381401407350543
 20
-3.619594233845989
 10
-8.164685063162802
 20
-3.624788754891114
 10
-7.9466227306648936
 20
-3.62948069621102
 10
-7.727211342622706
 20
-3.633732215030659
 10
-7.50632658458633
 20
-3.637537176881801
 10
-7.284157995464741
 20
-3.6408426262418376
 10
-7.060649552501221
 20
-3.643521181426748
 10
-6.835801255695764
 20
-3.645572842436532
 10
-6.609672195039211
 20
-3.647062833730258
 10
-6.382247034360985
 20
-3.6483019414326945
 10
-6.153597132588382
 20
-3.6491067611030954
 10
-5.923672601432915
 20
-3.649225596607532
 10
-5.692470373660468
 20
-3.6487206051709573
 10
-5.460114763720945
 20
-3.6475979212616036
 10
-5.226531345452935
 20
-3.6461031065451683
 10
-4.991788410549618
 20
-3.6441149138058604
 10
-4.755885959010997
 20
-3.64163334304368
 10
-4.518830125305301
 20
-3.638534079808719
 10
-4.280617842198413
 20
-3.634879281325933
 10
-4.041367289672015
 20
-3.630799396513459
 10
-3.80096028774443
 20
-3.626163976453159
 10
-3.559527285333786
 20
-3.6208548411633568
 10
-3.317065215205979
 20
-3.6149341478690067
 10
-3.0735710101268894
 20
-3.6084640537950627
 10
-2.828985580105679
 20
-3.601379334482454
 10
-2.5835015312854446
 20
-3.593564877183622
 10
-2.337059773675338
 20
-3.5849554574394977
 10
-2.089579746645718
 20
-3.5759209513656853
 10
-1.8411888318806078
 20
-3.566405336205463
 10
-1.5919675900096493
 20
-3.556038735843226
 10
-1.3417825048806011
 20
-3.5450014874856035
 10
-1.0906926664842875
 20
-3.5333588155916638
 10
-0.8388285237388522
 20
-3.520992540179732
 10
-0.5860688294285056
 20
-3.5078343695566234
 10
-0.33253789800315287
 20
-3.4938904381905695
 10
-0.07816130330137676
 20
-3.479406307747268
 10
0.17699266298363342
 20
-3.464260731010928
 10
0.43284650745635533
 20
-3.448145989090898
 10
0.6894715890440765
 20
-3.4312454864279216
 10
0.9468180194583192
 20
-3.4138109191559294
 10
1.2048144489734742
 20
-3.395659069305852
 10
1.4635204644723139
 20
-3.376734781889062
 10
1.7228803253836504
 20
-3.357171157054278
 10
1.9828817719727232
 20
-3.3367197523733605
 10
2.2435248103740077
 20
-3.3153806921607596
 10
2.5047595522990047
 20
-3.2934056725504046
 10
2.7665269200258136
 20
-3.270860166630266
 10
3.0288860066125127
 20
-3.247679012098498
 10
3.291765456199025
 20
-3.223678866671581
 10
3.55517140632083
 20
-3.1989841069566474
 10
3.819103869246853
 20
-3.173594981582597
 10
4.08350068468491
 20
-3.1475144956263206
 10
4.348352660134359
 20
-3.120556363884632
 10
4.613665930063425
 20
-3.092844900807439
 10
4.879328448958669
 20
-3.0646348697627865
 10
5.145461476304816
 20
-3.0358582276863895
 10
5.411931492882382
 20
-3.0063345752143937
 10
5.678803729284899
 20
-2.976123126652087
 10
5.945953871062465
 20
-2.945230016467701
 10
6.213447145741377
 20
-2.9137143968092984
 10
6.48128048915476
 20
-2.8815141726091507
 10
6.749332654086823
 20
-2.848697635560442
 10
7.017671932230745
 20
-2.8153860328789646
 10
7.286295265554116
 20
-2.78151739381144
 10
7.555075263171211
 20
-2.74703550912947
 10
7.824077155675567
 20
-2.711999593138343
 10
8.093244920310463
 20
-2.6765370275220817
 10
8.36262844843162
 20
-2.6403961783039818
 10
8.632109553922902
 20
-2.6037073700877307
 10
8.901694371252528
 20
-2.5665949173232367
 10
9.171379836253633
 20
-2.5289967249427696
 10
9.441159814457968
 20
-2.4907884784964245
 10
9.711040443401016
 20
-2.4520945545913317
 10
9.980903527764916
 20
-2.4130450913595056
 10
10.250805096440866
 20
-2.373512831431373
 10
10.520692193906257
 20
-2.3336873137159095
 10
10.790555612324278
 20
-2.2933819422238058
 10
11.060392287528039
 20
-2.252534621887334
 10
11.330208353985782
 20
-2.2112696671563987
 10
11.59988868054653
 20
-2.169779311230745
 10
11.869495433636954
 20
-2.1280606733479286
 10
12.138957248195268
 20
-2.085930224752758
 10
12.408277185321134
 20
-2.043449998355734
 10
12.677455248081781
 20
-2.0006200563140846
 10
12.946494497576852
 20
-1.9575024315383105
 10
13.215267536786163
 20
-1.914040790485567
 10
13.483839599370482
 20
-1.8702944096183658
 10
13.752151576935562
 20
-1.8263281404524256
 10
14.020271776510763
 20
-1.782263540989664
 10
14.288063587104602
 20
-1.7378575573834731
 10
14.555530079018439
 20
-1.6931724090160312
 10
14.822748745647791
 20
-1.64851581477799
 10
15.08957685380191
 20
-1.6035206550017351
 10
15.356011327044959
 20
-1.5581245859906394
 10
15.62213273520829
 20
-1.5126976703319817
 10
15.887822873772363
 20
-1.4673698596861002
 10
16.153125502691893
 20
-1.4217652677836097
 10
16.417981519707112
 20
-1.3759488704546785
 10
16.68232874918966
 20
-1.3299233619900739
 10
16.946235492034436
 20
-1.2838101760772607
 10
17.209642642914417
 20
-1.2376742263891838
 10
17.472553259862025
 20
-1.191577483679121
 10
17.73489904198237
 20
-1.1453985142596081
 10
17.996673842538282
 20
-1.0990127550518358
 10
18.257886860164874
 20
-1.0526066155734417
 10
18.518538091794916
 20
-1.0061800336672
 10
18.778506256473037
 20
-0.9598006172968211
 10
19.037915690119785
 20
-0.9134626670946484
 10
19.29663284591057
 20
-0.866985224281803
 10
19.554660784945032
 20
-0.8204303217687892
 10
19.812014831124806
 20
-0.7741084970514739
 10
20.06869192028303
 20
-0.7279576550621285
 10
20.32456156362751
 20
-0.6818588077751537
 10
20.57975116431291
 20
-0.6358684130478449
 10
20.834133306915625
 20
-0.5899297643940075
 10
21.08777015479509
 20
-0.5440399188939743
 10
21.340605663723935
 20
-0.49832582313119406
 10
21.59257765500657
 20
-0.4527901092392069
 10
21.84375442953789
 20
-0.4075542109054793
 10
22.09400243129157
 20
-0.3624369828794584
 10
22.34344599618819
 20
-0.31743272579348647
 10
22.59195770880414
 20
-0.2724847331613681
 10
22.83955595720793
 20
-0.22796563754669855
 10
23.086178565771224
 20
-0.1838781332402438
 10
23.33193146700986
 20
-0.13984357752462662
 10
23.576625066804645
 20
-0.09580789604719185
 10
23.82040823894906
 20
-0.0522626472399095
 10
24.06315356495227
 20
-0.009151062459358287
 10
24.304848760541642
 20
0.0337757979803995
 10
24.5454938195827
 20
0.07651805839381429
 10
24.785091800107867
 20
0.11901374802760799
 10
25.023658032153246
 20
0.16095220507146218
 10
25.261062017724964
 20
0.20245260402265328
 10
25.497418900242906
 20
0.24370692945202152
 10
25.732604316181437
 20
0.28471004140693656
 10
25.966624390807073
 20
0.3253378119091648
 10
26.19948525245358
 20
0.3654660508232503
 10
26.431180754383796
 20
0.40521932122799964
 10
26.661648708700415
 20
0.4445951774615459
 10
26.89095741936557
 20
0.48347212367919895
 10
27.118982522853603
 20
0.5218450199283264
 10
27.345776986956054
 20
0.5599031564890039
 10
27.57121644201281
 20
0.5976415177230503
 10
27.79549354630993
 20
0.6349439342100804
 10
28.01836571339882
 20
0.6716756872804738
 10
28.23995729146896
 20
0.7078422276729879
 10
28.4602652010173
 20
0.7435059612414747
 10
28.67915894404994
 20
0.7787860624832097
 10
28.896641572464848
 20
0.8136206849593643
 10
29.112840498618365
 20
0.8479531843409664
 10
29.32757225059062
 20
0.8817135691596654
 10
29.540905126209246
 20
0.9147804678852187
 10
29.752767735874617
 20
0.9473379065306222
 10
29.96321917877926
 20
0.9794509230832686
 10
30.172200334259994
 20
1.011054914656339
 10
30.3797111900479
 20
1.0421501298787337
 10
30.585698756880785
 20
1.0725477135709505
 10
30.790216005617424
 20
1.1024368938558406
 10
30.99314163076458
 20
1.1317505600274937
 10
31.194531664280678
 20
1.160615907298257
 10
31.394395301733596
 20
1.1888465883077204
 10
31.5926734163257
 20
1.2163781244835148
 10
31.789356794085684
 20
1.243397236129399
 10
31.984445425811852
 20
1.2699041097170487
 10
32.17793929923527
 20
1.2958989938753638
 10
32.369720179164055
 20
1.321252558516255
 10
32.55991854825593
 20
1.345845939928572
 10
32.748456879375745
 20
1.3699875407324413
 10
32.93527604879314
 20
1.393612820198268
 10
33.12043822293474
 20
1.4167246590884925
 10
33.30388734530424
 20
1.439196359448568
 10
33.48555815770301
 20
1.4610876949988048
 10
33.66557194415366
 20
1.48246621154569
 10
33.84381353056394
 20
1.50314054609063
 10
34.02027677326391
 20
1.5232351995552071
 10
34.19496473028599
 20
1.5426882011861425
 10
34.36786818459166
 20
1.5616863334444215
 10
34.53899326144743
 20
1.580105468351811
 10
34.708277766821574
 20
1.5979432845608958
 10
34.87572475874649
 20
1.615137811318398
 10
35.04139334254916
 20
1.6317539622972597
 10
35.20515607520093
 20
1.6478490033987039
 10
35.367012941365594
 20
1.663423245408855
 10
35.52702918390563
 20
1.6784172253935254
 10
35.6852078731224
 20
1.6927687239705367
 10
35.84141549593088
 20
1.706658016189293
 10
35.99571394577385
 20
1.7200935148052547
 10
36.14811272187544
 20
1.732882718892743
 10
36.298546452549296
 20
1.7450877019893927
 10
36.44700899719273
 20
1.7568329028595602
 10
36.593568662835075
 20
1.7679967635013287
 10
36.73810413784867
 20
1.77851229752324
 10
36.88067146032636
 20
1.7885065758231895
 10
37.02126755383236
 20
1.7980419420978064
 10
37.159830227402125
 20
1.8071160128424495
 10
37.29636560630218
 20
1.8156046600788862
 10
37.43087060796225
 20
1.8235703518181954
 10
37.56333909177963
 20
1.831137526824734
 10
37.69377411271952
 20
1.838244276502448
 10
37.82211961735283
 20
1.844763840739565
 10
37.94837559034338
 20
1.8506965303222078
 10
38.072591941450334
 20
1.856293606283733
 10
38.19470954080879
 20
1.8614906522089956
 10
38.31472838535152
 20
1.8662877302552208
 10
38.432651526976464
 20
1.8706229939835788
 10
38.54841677778633
 20
1.874493997732204
 10
38.66208630727501
 20
1.877903560106313
 10
38.7735917961442
 20
1.8809734877367201
 10
38.882939363526
 20
1.8835797769596452
 10
38.99012286881765
 20
1.885846866539443
 10
39.09521062211577
 20
1.8876531363169733
 10
39.198072113157565
 20
1.8891180094184112
 10
39.29876645033724
 20
1.8903063373594757
 10
39.397234509924395
 20
1.8911535794105725
 10
39.49354153478151
 20
1.8916002726375134
 10
39.587619174937934
 20
1.891768845243365
 10
39.6795357251541
 20
1.8915379878551093
 10
39.76915780116883
 20
1.891085364918704
 10
39.856612588363134
 20
1.8903589317398226
 10
39.94177580295947
 20
1.8893519322779844
 10
40.02470962058621
 20
1.8880670608239571
 10
40.105414035108836
 20
1.8865044416921892
 10
40.18388597009158
 20
1.8847264185793087
 10
40.260066307938466
 20
1.8826683264412707
 10
40.333948901912336
 20
1.8804547283568835
 10
40.405599004077374
 20
1.8780259749202841
 10
40.47495135010046
 20
1.8754419641662345
 10
40.54200900414848
 20
1.8726406010270062
 10
40.60676889592008
 20
1.8696841048847772
 10
40.66923408344765
 20
1.8665105049862687
 10
40.729401496429894
 20
1.8631820207136611
 10
40.787264997331306
 20
1.8598230286740838
 10
40.842768526588365
 20
1.8563068930702151
 10
40.89603338662707
 20
1.8527007867651895
 10
40.94686994652144
 20
1.849059529998364
 10
40.995467827995746
 20
1.845328489002056
 10
41.04170265525542
 20
1.8415027724525352
 10
41.08556829076499
 20
1.8377067569569323
 10
41.12712998352139
 20
1.83388085526661
 10
41.16632554256011
 20
1.8300226838769278
 10
41.20314883341291
 20
1.826256557237792
 10
41.237668169243605
 20
1.8224607930328365
 10
41.26981523075391
 20
1.8187571978928778
 10
41.29959307904347
 20
1.8150837389074124
 10
41.326995579644056
 20
1.8115647305263456
 10
41.35202579978978
 20
1.8081380155247258
 10
41.374742850942106
 20
1.8048683832610461
 10
41.39502236037373
 20
1.8017508802543507
 10
41.41292344874777
 20
1.798850109391458
 10
41.42850829782707
 20
1.7961686406486839
 10
41.4416525348843
 20
1.7937015205450728
 10
41.452412207214024
 20
1.7915756335068458
 10
41.460852576082154
 20
1.7897311436564667
 10
41.46684312202414
 20
1.7882876605917846
 10
41.470442974904856
 20
1.7873096007279436
 10
41.47164599105439
 20
1.7869214649865268
 10
41.452475777831154
 20
2.1754041209454957
  0
ENDSEC
  0
SECTION
  2
OBJECTS
  0
DICTIONARY
  5
A
330
0
100
AcDbDictionary
280
0
281
1
  3
ACAD_COLOR
350
B
  3
ACAD_GROUP
350
C
  3
ACAD_LAYOUT
350
D
  3
ACAD_MATERIAL
350
E
  3
ACAD_MLEADERSTYLE
350
F
  3
ACAD_MLINESTYLE
350
10
  3
ACAD_PLOTSETTINGS
350
11
  3
ACAD_PLOTSTYLENAME
350
12
  3
ACAD_SCALELIST
350
14
  3
ACAD_TABLESTYLE
350
15
  3
ACAD_VISUALSTYLE
350
16
  3
EZDXF_META
350
2D
  0
DICTIONARY
  5
B
330
A
100
AcDbDictionary
280
0
281
1
  0
DICTIONARY
  5
C
330
A
100
AcDbDictionary
280
0
281
1
  0
DICTIONARY
  5
D
330
A
100
AcDbDictionary
280
0
281
1
  3
Model
350
1A
  3
Layout1
350
1E
  0
DICTIONARY
  5
E
330
A
100
AcDbDictionary
280
0
281
1
  3
ByBlock
350
1F
  3
ByLayer
350
20
  3
Global
350
21
  0
DICTIONARY
  5
F
330
A
100
AcDbDictionary
280
0
281
1
  3
Standard
350
2C
  0
DICTIONARY
  5
10
330
A
100
AcDbDictionary
280
0
281
1
  3
Standard
350
22
  0
DICTIONARY
  5
11
330
A
100
AcDbDictionary
280
0
281
1
  0
ACDBDICTIONARYWDFLT
  5
12
330
A
100
AcDbDictionary
280
0
281
1
  3
Normal
350
13
100
AcDbDictionaryWithDefault
340
13
  0
ACDBPLACEHOLDER
  5
13
330
12
  0
DICTIONARY
  5
14
330
A
100
AcDbDictionary
280
0
281
1
  0
DICTIONARY
  5
15
330
A
100
AcDbDictionary
280
0
281
1
  0
DICTIONARY
  5
16
330
A
100
AcDbDictionary
280
0
281
1
  0
LAYOUT
  5
1A
330
D
100
AcDbPlotSettings
  1

  4
A3
  6

 40
7.5
 41
20.0
 42
7.5
 43
20.0
 44
420.0
 45
297.0
 46
0.0
 47
0.0
 48
0.0
 49
0.0
140
0.0
141
0.0
142
1.0
143
1.0
 70
1024
 72
1
 73
0
 74
5
  7

 75
16
 76
0
 77
2
 78
300
147
1.0
148
0.0
149
0.0
100
AcDbLayout
  1
Model
 70
1
 71
0
 10
0.0
 20
0.0
 11
420.0
 21
297.0
 12
0.0
 22
0.0
 32
0.0
 14
1e+20
 24
1e+20
 34
1e+20
 15
-1e+20
 25
-1e+20
 35
-1e+20
146
0.0
 13
0.0
 23
0.0
 33
0.0
 16
1.0
 26
0.0
 36
0.0
 17
0.0
 27
1.0
 37
0.0
 76
1
330
17
  0
LAYOUT
  5
1E
330
D
100
AcDbPlotSettings
  1

  4
A3
  6

 40
7.5
 41
20.0
 42
7.5
 43
20.0
 44
420.0
 45
297.0
 46
0.0
 47
0.0
 48
0.0
 49
0.0
140
0.0
141
0.0
142
1.0
143
1.0
 70
0
 72
1
 73
0
 74
5
  7

 75
16
 76
0
 77
2
 78
300
147
1.0
148
0.0
149
0.0
100
AcDbLayout
  1
Layout1
 70
1
 71
1
 10
0.0
 20
0.0
 11
420.0
 21
297.0
 12
0.0
 22
0.0
 32
0.0
 14
1e+20
 24
1e+20
 34
1e+20
 15
-1e+20
 25
-1e+20
 35
-1e+20
146
0.0
 13
0.0
 23
0.0
 33
0.0
 16
1.0
 26
0.0
 36
0.0
 17
0.0
 27
1.0
 37
0.0
 76
1
330
1B
  0
MATERIAL
  5
1F
102
{ACAD_REACTORS
330
E
102
}
330
E
100
AcDbMaterial
  1
ByBlock
  2

 70
0
 40
1.0
 71
1
 41
1.0
 91
-1023410177
 42
1.0
 72
1
  3

 73
1
 74
1
 75
1
 44
0.5
 73
0
 45
1.0
 46
1.0
 77
1
  4

 78
1
 79
1
170
1
 48
1.0
171
1
  6

172
1
173
1
174
1
140
1.0
141
1.0
175
1
  7

176
1
177
1
178
1
143
1.0
179
1
  8

270
1
271
1
272
1
145
1.0
146
1.0
273
1
  9

274
1
275
1
276
1
 42
1.0
 72
1
  3

 73
1
 74
1
 75
1
 94
63
  0
MATERIAL
  5
20
102
{ACAD_REACTORS
330
E
102
}
330
E
100
AcDbMaterial
  1
ByLayer
  2

 70
0
 40
1.0
 71
1
 41
1.0
 91
-1023410177
 42
1.0
 72
1
  3

 73
1
 74
1
 75
1
 44
0.5
 73
0
 45
1.0
 46
1.0
 77
1
  4

 78
1
 79
1
170
1
 48
1.0
171
1
  6

172
1
173
1
174
1
140
1.0
141
1.0
175
1
  7

176
1
177
1
178
1
143
1.0
179
1
  8

270
1
271
1
272
1
145
1.0
146
1.0
273
1
  9

274
1
275
1
276
1
 42
1.0
 72
1
  3

 73
1
 74
1
 75
1
 94
63
  0
MATERIAL
  5
21
102
{ACAD_REACTORS
330
E
102
}
330
E
100
AcDbMaterial
  1
Global
  2

 70
0
 40
1.0
 71
1
 41
1.0
 91
-1023410177
 42
1.0
 72
1
  3

 73
1
 74
1
 75
1
 44
0.5
 73
0
 45
1.0
 46
1.0
 77
1
  4

 78
1
 79
1
170
1
 48
1.0
171
1
  6

172
1
173
1
174
1
140
1.0
141
1.0
175
1
  7

176
1
177
1
178
1
143
1.0
179
1
  8

270
1
271
1
272
1
145
1.0
146
1.0
273
1
  9

274
1
275
1
276
1
 42
1.0
 72
1
  3

 73
1
 74
1
 75
1
 94
63
  0
MLINESTYLE
  5
22
102
{ACAD_REACTORS
330
10
102
}
330
10
100
AcDbMlineStyle
  2
Standard
 70
0
  3

 62
256
 51
90.0
 52
90.0
 71
2
 49
0.5
 62
256
  6
BYLAYER
 49
-0.5
 62
256
  6
BYLAYER
  0
MLEADERSTYLE
  5
2C
102
{ACAD_REACTORS
330
F
102
}
330
F
100
AcDbMLeaderStyle
179
2
170
2
171
1
172
0
 90
2
 40
0.0
 41
0.0
173
1
 91
-1056964608
 92
-2
290
1
 42
2.0
291
1
 43
8.0
  3
Standard
 44
4.0
300

342
29
174
1
175
1
176
0
178
1
 93
-1056964608
 45
4.0
292
0
297
0
 46
4.0
 94
-1056964608
 47
1.0
 49
1.0
140
1.0
294
1
141
0.0
177
0
142
1.0
295
0
296
0
143
3.75
271
0
272
9
273
9
  0
DICTIONARY
  5
2D
330
A
100
AcDbDictionary
280
1
281
1
  3
CREATED_BY_EZDXF
350
2E
  3
WRITTEN_BY_EZDXF
350
32
  0
DICTIONARYVAR
  5
2E
330
2D
100
DictionaryVariables
280
0
  1
1.3.5 @ 2025-08-22T23:49:24.100484+00:00
  0
DICTIONARYVAR
  5
32
330
2D
100
DictionaryVariables
280
0
  1
1.3.5 @ 2025-08-22T23:49:24.109344+00:00
  0
ENDSEC
  0
EOF
