  0
SECTION
  2
HEADER
  9
$ACADVER
  1
AC1032
  9
$ACADMAINTVER
 90
4
  9
$DWGCODEPAGE
  3
ANSI_1252
  9
$LASTSAVEDBY
  1
ezdxf
  9
$REQUIREDVERSIONS
160
0
  9
$INSBASE
 10
0.0
 20
0.0
 30
0.0
  9
$EXTMIN
 10
1e+20
 20
1e+20
 30
1e+20
  9
$EXTMAX
 10
-1e+20
 20
-1e+20
 30
-1e+20
  9
$LIMMIN
 10
0.0
 20
0.0
  9
$LIMMAX
 10
420.0
 20
297.0
  9
$ORTHOMODE
 70
0
  9
$REGENMODE
 70
1
  9
$FILLMODE
 70
1
  9
$QTEXTMODE
 70
0
  9
$MIRRTEXT
 70
1
  9
$LTSCALE
 40
1.0
  9
$ATTMODE
 70
1
  9
$TEXTSIZE
 40
2.5
  9
$TRACEWID
 40
1.0
  9
$TEXTSTYLE
  7
Standard
  9
$CLAYER
  8
0
  9
$CELTYPE
  6
ByLayer
  9
$CECOLOR
 62
256
  9
$CELTSCALE
 40
1.0
  9
$DISPSILH
 70
0
  9
$DIMSCALE
 40
1.0
  9
$DIMASZ
 40
2.5
  9
$DIMEXO
 40
0.625
  9
$DIMDLI
 40
3.75
  9
$DIMRND
 40
0.0
  9
$DIMDLE
 40
0.0
  9
$DIMEXE
 40
1.25
  9
$DIMTP
 40
0.0
  9
$DIMTM
 40
0.0
  9
$DIMTXT
 40
2.5
  9
$DIMCEN
 40
2.5
  9
$DIMTSZ
 40
0.0
  9
$DIMTOL
 70
0
  9
$DIMLIM
 70
0
  9
$DIMTIH
 70
0
  9
$DIMTOH
 70
0
  9
$DIMSE1
 70
0
  9
$DIMSE2
 70
0
  9
$DIMTAD
 70
1
  9
$DIMZIN
 70
8
  9
$DIMBLK
  1

  9
$DIMASO
 70
1
  9
$DIMSHO
 70
1
  9
$DIMPOST
  1

  9
$DIMAPOST
  1

  9
$DIMALT
 70
0
  9
$DIMALTD
 70
3
  9
$DIMALTF
 40
0.03937007874
  9
$DIMLFAC
 40
1.0
  9
$DIMTOFL
 70
1
  9
$DIMTVP
 40
0.0
  9
$DIMTIX
 70
0
  9
$DIMSOXD
 70
0
  9
$DIMSAH
 70
0
  9
$DIMBLK1
  1

  9
$DIMBLK2
  1

  9
$DIMSTYLE
  2
ISO-25
  9
$DIMCLRD
 70
0
  9
$DIMCLRE
 70
0
  9
$DIMCLRT
 70
0
  9
$DIMTFAC
 40
1.0
  9
$DIMGAP
 40
0.625
  9
$DIMJUST
 70
0
  9
$DIMSD1
 70
0
  9
$DIMSD2
 70
0
  9
$DIMTOLJ
 70
0
  9
$DIMTZIN
 70
8
  9
$DIMALTZ
 70
0
  9
$DIMALTTZ
 70
0
  9
$DIMUPT
 70
0
  9
$DIMDEC
 70
2
  9
$DIMTDEC
 70
2
  9
$DIMALTU
 70
2
  9
$DIMALTTD
 70
3
  9
$DIMTXSTY
  7
Standard
  9
$DIMAUNIT
 70
0
  9
$DIMADEC
 70
0
  9
$DIMALTRND
 40
0.0
  9
$DIMAZIN
 70
0
  9
$DIMDSEP
 70
44
  9
$DIMATFIT
 70
3
  9
$DIMFRAC
 70
0
  9
$DIMLDRBLK
  1

  9
$DIMLUNIT
 70
2
  9
$DIMLWD
 70
-2
  9
$DIMLWE
 70
-2
  9
$DIMTMOVE
 70
0
  9
$DIMFXL
 40
1.0
  9
$DIMFXLON
 70
0
  9
$DIMJOGANG
 40
0.785398163397
  9
$DIMTFILL
 70
0
  9
$DIMTFILLCLR
 70
0
  9
$DIMARCSYM
 70
0
  9
$DIMLTYPE
  6

  9
$DIMLTEX1
  6

  9
$DIMLTEX2
  6

  9
$DIMTXTDIRECTION
 70
0
  9
$LUNITS
 70
2
  9
$LUPREC
 70
4
  9
$SKETCHINC
 40
1.0
  9
$FILLETRAD
 40
10.0
  9
$AUNITS
 70
0
  9
$AUPREC
 70
2
  9
$MENU
  1
.
  9
$ELEVATION
 40
0.0
  9
$PELEVATION
 40
0.0
  9
$THICKNESS
 40
0.0
  9
$LIMCHECK
 70
0
  9
$CHAMFERA
 40
0.0
  9
$CHAMFERB
 40
0.0
  9
$CHAMFERC
 40
0.0
  9
$CHAMFERD
 40
0.0
  9
$SKPOLY
 70
0
  9
$TDCREATE
 40
2460911.0343055557
  9
$TDUCREATE
 40
2458532.153996898
  9
$TDUPDATE
 40
2460911.0343055557
  9
$TDUUPDATE
 40
2458532.1544311
  9
$TDINDWG
 40
0.0
  9
$TDUSRTIMER
 40
0.0
  9
$USRTIMER
 70
1
  9
$ANGBASE
 50
0.0
  9
$ANGDIR
 70
0
  9
$PDMODE
 70
0
  9
$PDSIZE
 40
0.0
  9
$PLINEWID
 40
0.0
  9
$SPLFRAME
 70
0
  9
$SPLINETYPE
 70
6
  9
$SPLINESEGS
 70
8
  9
$HANDSEED
  5
33
  9
$SURFTAB1
 70
6
  9
$SURFTAB2
 70
6
  9
$SURFTYPE
 70
6
  9
$SURFU
 70
6
  9
$SURFV
 70
6
  9
$UCSBASE
  2

  9
$UCSNAME
  2

  9
$UCSORG
 10
0.0
 20
0.0
 30
0.0
  9
$UCSXDIR
 10
1.0
 20
0.0
 30
0.0
  9
$UCSYDIR
 10
0.0
 20
1.0
 30
0.0
  9
$UCSORTHOREF
  2

  9
$UCSORTHOVIEW
 70
0
  9
$UCSORGTOP
 10
0.0
 20
0.0
 30
0.0
  9
$UCSORGBOTTOM
 10
0.0
 20
0.0
 30
0.0
  9
$UCSORGLEFT
 10
0.0
 20
0.0
 30
0.0
  9
$UCSORGRIGHT
 10
0.0
 20
0.0
 30
0.0
  9
$UCSORGFRONT
 10
0.0
 20
0.0
 30
0.0
  9
$UCSORGBACK
 10
0.0
 20
0.0
 30
0.0
  9
$PUCSBASE
  2

  9
$PUCSNAME
  2

  9
$PUCSORG
 10
0.0
 20
0.0
 30
0.0
  9
$PUCSXDIR
 10
1.0
 20
0.0
 30
0.0
  9
$PUCSYDIR
 10
0.0
 20
1.0
 30
0.0
  9
$PUCSORTHOREF
  2

  9
$PUCSORTHOVIEW
 70
0
  9
$PUCSORGTOP
 10
0.0
 20
0.0
 30
0.0
  9
$PUCSORGBOTTOM
 10
0.0
 20
0.0
 30
0.0
  9
$PUCSORGLEFT
 10
0.0
 20
0.0
 30
0.0
  9
$PUCSORGRIGHT
 10
0.0
 20
0.0
 30
0.0
  9
$PUCSORGFRONT
 10
0.0
 20
0.0
 30
0.0
  9
$PUCSORGBACK
 10
0.0
 20
0.0
 30
0.0
  9
$USERI1
 70
0
  9
$USERI2
 70
0
  9
$USERI3
 70
0
  9
$USERI4
 70
0
  9
$USERI5
 70
0
  9
$USERR1
 40
0.0
  9
$USERR2
 40
0.0
  9
$USERR3
 40
0.0
  9
$USERR4
 40
0.0
  9
$USERR5
 40
0.0
  9
$WORLDVIEW
 70
1
  9
$SHADEDGE
 70
3
  9
$SHADEDIF
 70
70
  9
$TILEMODE
 70
1
  9
$MAXACTVP
 70
64
  9
$PINSBASE
 10
0.0
 20
0.0
 30
0.0
  9
$PLIMCHECK
 70
0
  9
$PEXTMIN
 10
1e+20
 20
1e+20
 30
1e+20
  9
$PEXTMAX
 10
-1e+20
 20
-1e+20
 30
-1e+20
  9
$PLIMMIN
 10
0.0
 20
0.0
  9
$PLIMMAX
 10
420.0
 20
297.0
  9
$UNITMODE
 70
0
  9
$VISRETAIN
 70
1
  9
$PLINEGEN
 70
0
  9
$PSLTSCALE
 70
1
  9
$TREEDEPTH
 70
3020
  9
$CMLSTYLE
  2
Standard
  9
$CMLJUST
 70
0
  9
$CMLSCALE
 40
20.0
  9
$PROXYGRAPHICS
 70
1
  9
$MEASUREMENT
 70
1
  9
$CELWEIGHT
370
-1
  9
$ENDCAPS
280
0
  9
$JOINSTYLE
280
0
  9
$LWDISPLAY
290
0
  9
$INSUNITS
 70
6
  9
$HYPERLINKBASE
  1

  9
$STYLESHEET
  1

  9
$XEDIT
290
1
  9
$CEPSNTYPE
380
0
  9
$PSTYLEMODE
290
1
  9
$FINGERPRINTGUID
  2
{E1B88460-0999-45A2-BDC5-737745FA40E3}
  9
$VERSIONGUID
  2
{61932782-85F8-4139-BE18-016EC6BD80BD}
  9
$EXTNAMES
290
1
  9
$PSVPSCALE
 40
0.0
  9
$OLESTARTUP
290
0
  9
$SORTENTS
280
127
  9
$INDEXCTL
280
0
  9
$HIDETEXT
280
1
  9
$XCLIPFRAME
280
1
  9
$HALOGAP
280
0
  9
$OBSCOLOR
 70
257
  9
$OBSLTYPE
280
0
  9
$INTERSECTIONDISPLAY
280
0
  9
$INTERSECTIONCOLOR
 70
257
  9
$DIMASSOC
280
2
  9
$PROJECTNAME
  1

  9
$CAMERADISPLAY
290
0
  9
$LENSLENGTH
 40
50.0
  9
$CAMERAHEIGHT
 40
0.0
  9
$STEPSPERSEC
 40
24.0
  9
$STEPSIZE
 40
100.0
  9
$3DDWFPREC
 40
2.0
  9
$PSOLWIDTH
 40
0.005
  9
$PSOLHEIGHT
 40
0.08
  9
$LOFTANG1
 40
1.570796326795
  9
$LOFTANG2
 40
1.570796326795
  9
$LOFTMAG1
 40
0.0
  9
$LOFTMAG2
 40
0.0
  9
$LOFTPARAM
 70
7
  9
$LOFTNORMALS
280
1
  9
$LATITUDE
 40
37.795
  9
$LONGITUDE
 40
-122.394
  9
$NORTHDIRECTION
 40
0.0
  9
$TIMEZONE
 70
-8000
  9
$LIGHTGLYPHDISPLAY
280
1
  9
$TILEMODELIGHTSYNCH
280
1
  9
$CMATERIAL
347
20
  9
$SOLIDHIST
280
0
  9
$SHOWHIST
280
1
  9
$DWFFRAME
280
2
  9
$DGNFRAME
280
2
  9
$REALWORLDSCALE
290
1
  9
$INTERFERECOLOR
 62
256
  9
$CSHADOW
280
0
  9
$SHADOWPLANELOCATION
 40
0.0
  0
ENDSEC
  0
SECTION
  2
CLASSES
  0
CLASS
  1
ACDBDICTIONARYWDFLT
  2
AcDbDictionaryWithDefault
  3
ObjectDBX Classes
 90
0
 91
0
280
0
281
0
  0
CLASS
  1
SUN
  2
AcDbSun
  3
SCENEOE
 90
1153
 91
0
280
0
281
0
  0
CLASS
  1
VISUALSTYLE
  2
AcDbVisualStyle
  3
ObjectDBX Classes
 90
4095
 91
0
280
0
281
0
  0
CLASS
  1
MATERIAL
  2
AcDbMaterial
  3
ObjectDBX Classes
 90
1153
 91
0
280
0
281
0
  0
CLASS
  1
SCALE
  2
AcDbScale
  3
ObjectDBX Classes
 90
1153
 91
0
280
0
281
0
  0
CLASS
  1
TABLESTYLE
  2
AcDbTableStyle
  3
ObjectDBX Classes
 90
4095
 91
0
280
0
281
0
  0
CLASS
  1
MLEADERSTYLE
  2
AcDbMLeaderStyle
  3
ACDB_MLEADERSTYLE_CLASS
 90
4095
 91
0
280
0
281
0
  0
CLASS
  1
DICTIONARYVAR
  2
AcDbDictionaryVar
  3
ObjectDBX Classes
 90
0
 91
0
280
0
281
0
  0
CLASS
  1
CELLSTYLEMAP
  2
AcDbCellStyleMap
  3
ObjectDBX Classes
 90
1152
 91
0
280
0
281
0
  0
CLASS
  1
MENTALRAYRENDERSETTINGS
  2
AcDbMentalRayRenderSettings
  3
SCENEOE
 90
1024
 91
0
280
0
281
0
  0
CLASS
  1
ACDBDETAILVIEWSTYLE
  2
AcDbDetailViewStyle
  3
ObjectDBX Classes
 90
1025
 91
0
280
0
281
0
  0
CLASS
  1
ACDBSECTIONVIEWSTYLE
  2
AcDbSectionViewStyle
  3
ObjectDBX Classes
 90
1025
 91
0
280
0
281
0
  0
CLASS
  1
RASTERVARIABLES
  2
AcDbRasterVariables
  3
ISM
 90
0
 91
0
280
0
281
0
  0
CLASS
  1
ACDBPLACEHOLDER
  2
AcDbPlaceHolder
  3
ObjectDBX Classes
 90
0
 91
0
280
0
281
0
  0
CLASS
  1
LAYOUT
  2
AcDbLayout
  3
ObjectDBX Classes
 90
0
 91
0
280
0
281
0
  0
ENDSEC
  0
SECTION
  2
TABLES
  0
TABLE
  2
VPORT
  5
8
330
0
100
AcDbSymbolTable
 70
1
  0
VPORT
  5
23
330
8
100
AcDbSymbolTableRecord
100
AcDbViewportTableRecord
  2
*Active
 70
0
 10
0.0
 20
0.0
 11
1.0
 21
1.0
 12
0.0
 22
0.0
 13
0.0
 23
0.0
 14
0.5
 24
0.5
 15
0.5
 25
0.5
 16
0.0
 26
0.0
 36
1.0
 17
0.0
 27
0.0
 37
0.0
 40
1000.0
 41
1.34
 42
50.0
 43
0.0
 44
0.0
 50
0.0
 51
0.0
 71
0
 72
1000
 73
1
 74
3
 75
0
 76
0
 77
0
 78
0
281
0
 65
0
146
0.0
  0
ENDTAB
  0
TABLE
  2
LTYPE
  5
2
330
0
100
AcDbSymbolTable
 70
3
  0
LTYPE
  5
24
330
2
100
AcDbSymbolTableRecord
100
AcDbLinetypeTableRecord
  2
ByBlock
 70
0
  3

 72
65
 73
0
 40
0.0
  0
LTYPE
  5
25
330
2
100
AcDbSymbolTableRecord
100
AcDbLinetypeTableRecord
  2
ByLayer
 70
0
  3

 72
65
 73
0
 40
0.0
  0
LTYPE
  5
26
330
2
100
AcDbSymbolTableRecord
100
AcDbLinetypeTableRecord
  2
Continuous
 70
0
  3

 72
65
 73
0
 40
0.0
  0
ENDTAB
  0
TABLE
  2
LAYER
  5
1
330
0
100
AcDbSymbolTable
 70
2
  0
LAYER
  5
27
330
1
100
AcDbSymbolTableRecord
100
AcDbLayerTableRecord
  2
0
 70
0
 62
7
  6
Continuous
370
-3
390
13
347
21
  0
LAYER
  5
28
330
1
100
AcDbSymbolTableRecord
100
AcDbLayerTableRecord
  2
Defpoints
 70
0
 62
7
  6
Continuous
290
0
370
-3
390
13
347
21
  0
ENDTAB
  0
TABLE
  2
STYLE
  5
5
330
0
100
AcDbSymbolTable
 70
1
  0
STYLE
  5
29
330
5
100
AcDbSymbolTableRecord
100
AcDbTextStyleTableRecord
  2
Standard
 70
0
 40
0.0
 41
1.0
 50
0.0
 71
0
 42
2.5
  3
txt
  4

  0
ENDTAB
  0
TABLE
  2
VIEW
  5
7
330
0
100
AcDbSymbolTable
 70
0
  0
ENDTAB
  0
TABLE
  2
UCS
  5
6
330
0
100
AcDbSymbolTable
 70
0
  0
ENDTAB
  0
TABLE
  2
APPID
  5
3
330
0
100
AcDbSymbolTable
 70
3
  0
APPID
  5
2A
330
3
100
AcDbSymbolTableRecord
100
AcDbRegAppTableRecord
  2
ACAD
 70
0
  0
APPID
  5
30
330
3
100
AcDbSymbolTableRecord
100
AcDbRegAppTableRecord
  2
HATCHBACKGROUNDCOLOR
 70
0
  0
APPID
  5
31
330
3
100
AcDbSymbolTableRecord
100
AcDbRegAppTableRecord
  2
EZDXF
 70
0
  0
ENDTAB
  0
TABLE
  2
DIMSTYLE
  5
4
330
0
100
AcDbSymbolTable
 70
1
100
AcDbDimStyleTable
  0
DIMSTYLE
105
2B
330
4
100
AcDbSymbolTableRecord
100
AcDbDimStyleTableRecord
  2
Standard
 70
0
 40
1.0
 41
2.5
 42
0.625
 43
3.75
 44
1.25
 45
0.0
 46
0.0
 47
0.0
 48
0.0
 49
2.5
140
2.5
141
2.5
142
0.0
143
0.03937007874
144
1.0
145
0.0
146
1.0
147
0.625
148
0.0
 69
0
 70
0
 71
0
 72
0
 73
0
 74
0
 75
0
 76
0
 77
1
 78
8
 79
3
170
0
171
3
172
1
173
0
174
0
175
0
176
0
177
0
178
0
179
2
271
2
272
2
273
2
274
3
275
0
276
0
277
2
278
44
279
0
280
0
281
0
282
0
283
0
284
8
285
0
286
0
288
0
289
3
290
0
371
-2
372
-2
  0
ENDTAB
  0
TABLE
  2
BLOCK_RECORD
  5
9
330
0
100
AcDbSymbolTable
 70
2
  0
BLOCK_RECORD
  5
17
330
9
100
AcDbSymbolTableRecord
100
AcDbBlockTableRecord
  2
*Model_Space
340
1A
 70
0
280
1
281
0
  0
BLOCK_RECORD
  5
1B
330
9
100
AcDbSymbolTableRecord
100
AcDbBlockTableRecord
  2
*Paper_Space
340
1E
 70
0
280
1
281
0
  0
ENDTAB
  0
ENDSEC
  0
SECTION
  2
BLOCKS
  0
BLOCK
  5
18
330
17
100
AcDbEntity
  8
0
100
AcDbBlockBegin
  2
*Model_Space
 70
0
 10
0.0
 20
0.0
 30
0.0
  3
*Model_Space
  1

  0
ENDBLK
  5
19
330
17
100
AcDbEntity
  8
0
100
AcDbBlockEnd
  0
BLOCK
  5
1C
330
1B
100
AcDbEntity
  8
0
100
AcDbBlockBegin
  2
*Paper_Space
 70
0
 10
0.0
 20
0.0
 30
0.0
  3
*Paper_Space
  1

  0
ENDBLK
  5
1D
330
1B
100
AcDbEntity
  8
0
100
AcDbBlockEnd
  0
ENDSEC
  0
SECTION
  2
ENTITIES
  0
LWPOLYLINE
  5
2F
330
17
100
AcDbEntity
  8
0
100
AcDbPolyline
 90
722
 70
1
 10
64.61915250739759
 20
9.27441797187097
 10
64.61721823729724
 20
9.274820357455033
 10
64.61144265778161
 20
9.275833474773208
 10
64.60188013520886
 20
9.277069923417026
 10
64.58840672002628
 20
9.278708687187695
 10
64.57125675035375
 20
9.280488430508623
 10
64.55031986482769
 20
9.282491311309604
 10
64.5255128512591
 20
9.284606029623184
 10
64.49702929680238
 20
9.286861630564228
 10
64.4647859892685
 20
9.289146814165278
 10
64.42865893829942
 20
9.291640854995935
 10
64.38886893463128
 20
9.294178952582632
 10
64.34531915068244
 20
9.296746826674932
 10
64.297995984662
 20
9.299441400067042
 10
64.24692664015171
 20
9.302068827170535
 10
64.19208388636625
 20
9.304823147419427
 10
64.13357812547459
 20
9.307621912115541
 10
64.07131252989502
 20
9.310450841008427
 10
64.0052734978367
 20
9.313406856892298
 10
63.935585006055895
 20
9.316310782120361
 10
63.86212303699096
 20
9.319342085107788
 10
63.78491478062184
 20
9.322307017188956
 10
63.70412660691943
 20
9.325428565989947
 10
63.61948171654028
 20
9.328566386428445
 10
63.53127046981333
 20
9.331764191560934
 10
63.43929926598238
 20
9.334993033195348
 10
63.343664864620145
 20
9.338267676196102
 10
63.24436725212486
 20
9.34158821748599
 10
63.14139281310383
 20
9.345051676782022
 10
63.03474150675166
 20
9.348658344852577
 10
62.92444052304834
 20
9.352214473032026
 10
62.81046264481037
 20
9.355914003831591
 10
62.69291821979946
 20
9.359674876244265
 10
62.57169684584672
 20
9.363579538968233
 10
62.446825672126735
 20
9.367434534106243
 10
62.31837429543579
 20
9.371448181342753
 10
62.18632907317768
 20
9.375717694240368
 10
62.05073078352144
 20
9.379952498262028
 10
61.91145538170188
 20
9.384332255668511
 10
61.7687100566642
 20
9.388789088780467
 10
61.622287565056034
 20
9.393391262968422
 10
61.47238148042994
 20
9.398167920270037
 10
61.31889496160248
 20
9.403104877357658
 10
61.161924781748155
 20
9.408216802172907
 10
61.00138770147439
 20
9.413392588593924
 10
60.83738049395569
 20
9.418646904562326
 10
60.6697791144268
 20
9.424159412338888
 10
60.49879073823125
 20
9.429862331167062
 10
60.32431852418554
 20
9.43574147771919
 10
60.14636244508612
 20
9.441797045840861
 10
59.964922432924006
 20
9.448029520146047
 10
59.78008168628643
 20
9.454550297525
 10
59.591756938577205
 20
9.461248465701438
 10
59.400031374781754
 20
9.468235518488404
 10
59.20491852868202
 20
9.475415017705659
 10
59.00644559025799
 20
9.482593214687569
 10
58.80468210189881
 20
9.489978816809776
 10
58.59950403244104
 20
9.497751389410253
 10
58.39091131387569
 20
9.505911417102977
 10
58.17904153835177
 20
9.514182702524135
 10
57.96388104967123
 20
9.522662556159123
 10
57.745429820630456
 20
9.53135117185352
 10
57.52364697784783
 20
9.540539802603943
 10
57.29860048947246
 20
9.549744125207713
 10
57.070359925097044
 20
9.559172653194869
 10
56.83891164212534
 20
9.568922600128019
 10
56.6041451839812
 20
9.57907680239651
 10
56.366267712406305
 20
9.589567576166582
 10
56.125195974406324
 20
9.600283912239169
 10
55.88092994277765
 20
9.611226004459857
 10
55.63353915990947
 20
9.622602560204287
 10
55.38307797855813
 20
9.634026275986777
 10
55.129422367560174
 20
9.645676717145308
 10
54.872752271473786
 20
9.657680142357348
 10
54.61306764949356
 20
9.670036842391275
 10
54.35029886401781
 20
9.682538788331009
 10
54.084432245246724
 20
9.69528338758474
 10
53.81566136673285
 20
9.70829978219012
 10
53.5438621701092
 20
9.721767731330718
 10
53.26907541994305
 20
9.735396757392285
 10
52.991397875807124
 20
9.74920162523923
 10
52.710829496896054
 20
9.763182625639942
 10
52.42734301161911
 20
9.777534088796818
 10
52.1409383791709
 20
9.792256305478235
 10
51.851629160536966
 20
9.807252643658371
 10
51.5596225310608
 20
9.82245532258067
 10
51.26471120658456
 20
9.837932898384032
 10
50.966991960282776
 20
9.853700039010091
 10
50.66660237070262
 20
9.869480644017829
 10
50.36343195406436
 20
9.885357743642185
 10
50.05753667816985
 20
9.901636774207427
 10
49.7490133161936
 20
9.918332403655176
 10
49.43769537574869
 20
9.935222516664503
 10
49.12381726296392
 20
9.952045293044828
 10
48.8073245162686
 20
9.969188811664187
 10
48.488230696648245
 20
9.986556440496747
 10
48.166522147904836
 20
10.004245490027902
 10
47.84232283319282
 20
10.02207687953364
 10
47.515632725308635
 20
10.040050802859554
 10
47.18635494226345
 20
10.058153367446371
 10
46.85466946942075
 20
10.076510541203167
 10
46.52047945199532
 20
10.095108237725087
 10
46.18390886674341
 20
10.11376727936533
 10
45.84495765925788
 20
10.132488053815072
 10
45.50372261631501
 20
10.151285132093143
 10
45.1600932541351
 20
10.170241544434484
 10
44.814139155912656
 20
10.189565707446352
 10
44.46580423142974
 20
10.208953057109635
 10
44.11536534803867
 20
10.228543453892682
 10
43.76268320333249
 20
10.24792103380892
 10
43.40774412751137
 20
10.267183204266528
 10
43.05070094316242
 20
10.286649487994639
 10
42.69153999408757
 20
10.306417195478641
 10
42.33010838969077
 20
10.326167288603378
 10
41.96682061667692
 20
10.345763236627807
 10
41.60139973968472
 20
10.365065663697544
 10
41.233998554097674
 20
10.384394286387304
 10
40.86450658973785
 20
10.40383203800923
 10
40.49313107635595
 20
10.423310750115608
 10
40.11981595093754
 20
10.442525664841716
 10
39.74463079667717
 20
10.46168519879482
 10
39.36754835558589
 20
10.480983585254519
 10
38.98863660941458
 20
10.49993640409534
 10
38.60790911914872
 20
10.518447023291449
 10
38.225491503793684
 20
10.537028811160399
 10
37.84120365556981
 20
10.555556672098252
 10
37.45522560064599
 20
10.574156283245713
 10
37.06763892256398
 20
10.592246301683089
 10
36.6784299787275
 20
10.609923940972969
 10
36.28757153835121
 20
10.627383240549376
 10
35.89502272805349
 20
10.644915453408919
 10
35.50103163736483
 20
10.662161255030053
 10
35.105458923072895
 20
10.678705072194585
 10
34.70855430335541
 20
10.694880223268122
 10
34.31005601888205
 20
10.711143440180388
 10
33.91011531799983
 20
10.727121215082185
 10
33.50878653986336
 20
10.742426341410635
 10
33.106236176859596
 20
10.757280934486673
 10
32.70225687682174
 20
10.771754035063179
 10
32.29702870672406
 20
10.785971029512467
 10
31.890468386368603
 20
10.79982110248105
 10
31.482699946918817
 20
10.813124688630953
 10
31.073820215956395
 20
10.825896068212625
 10
30.663732297890686
 20
10.838121445589586
 10
30.252629888690418
 20
10.849829090494348
 10
29.840319237979717
 20
10.860991120885577
 10
29.42696681094194
 20
10.871829845929804
 10
29.012586222969766
 20
10.882248245910018
 10
28.597245428610492
 20
10.891762094546332
 10
28.18091719707873
 20
10.900565431272756
 10
27.76378163615412
 20
10.908783351693227
 10
27.34563139366989
 20
10.91648489656062
 10
26.92668736917654
 20
10.923504490019024
 10
26.50696315086317
 20
10.929745306197017
 10
26.08647232691887
 20
10.93511051922318
 10
25.665187639354706
 20
10.93979436237712
 10
25.24319236836864
 20
10.943907651012317
 10
24.82048647315527
 20
10.947450675897157
 10
24.397207613872542
 20
10.950146755053858
 10
23.973272510322513
 20
10.951885073128935
 10
23.548791605479515
 20
10.952582890655831
 10
23.12382096235796
 20
10.95254496549925
 10
22.698222879994514
 20
10.952048270405353
 10
22.272218298745088
 20
10.950926938749847
 10
21.84581915094793
 20
10.948391695619753
 10
21.418943785052342
 20
10.945024368548735
 10
20.99177237684691
 20
10.940949568526753
 10
20.564235207119207
 20
10.935959848174493
 10
20.13634589126189
 20
10.929958187774945
 10
19.708257347074618
 20
10.923263431597677
 10
19.279886321563012
 20
10.915764570443612
 10
18.851370461283203
 20
10.907185019257767
 10
18.42261288424637
 20
10.897510885480873
 10
17.993793766241073
 20
10.886866780102887
 10
17.564899478272856
 20
10.875349819763613
 10
17.135970839316176
 20
10.862669139157617
 10
16.70699422037655
 20
10.8489218549247
 10
16.278052915253742
 20
10.834218685495554
 10
15.849009236586223
 20
10.818836506693545
 10
15.42013855909702
 20
10.802221566871937
 10
14.991440882786128
 20
10.784373866030728
 10
14.562902619464442
 20
10.765390230041342
 10
14.134510140137513
 20
10.745367775543576
 10
13.706373969390425
 20
10.724223181534107
 10
13.27838360984166
 20
10.702039575170673
 10
12.850746440861585
 20
10.678747721854805
 10
12.423489679633757
 20
10.654153679075284
 10
11.996599724367307
 20
10.628354369626328
 10
11.570062986873117
 20
10.601446619379345
 10
11.14389306894209
 20
10.573333505540132
 10
10.718310992540827
 20
10.543848579947625
 10
10.293192644895157
 20
10.513171989476566
 10
9.868607745217497
 20
10.481511181506272
 10
9.444527406871668
 20
10.4483677464292
 10
9.021118231058935
 20
10.413963024183934
 10
8.598339453212018
 20
10.378587492384732
 10
8.176134955909365
 20
10.341936780858067
 10
7.754725788321174
 20
10.30384424759729
 10
7.334084760467467
 20
10.264503641268028
 10
6.9141421667375935
 20
10.223707417568178
 10
6.495064649138203
 20
10.181676625667942
 10
6.0767825156604465
 20
10.138203624342415
 10
5.659475996500063
 20
10.093412636890383
 10
5.242910495103132
 20
10.04756684042153
 10
4.827307060639849
 20
10.00049959292921
 10
4.412720100273775
 20
9.951823203236565
 10
3.9991360530193902
 20
9.90163430336943
 10
3.5866110226964523
 20
9.850237360424124
 10
3.1751586655030146
 20
9.797535063915262
 10
2.7647925968317564
 20
9.743430394125832
 10
2.3556097530786855
 20
9.68793685592393
 10
1.947486021469592
 20
9.6312345961843
 10
1.5404911756240793
 20
9.573530674595077
 10
1.134776545499926
 20
9.5144510017703
 10
0.7303693618824835
 20
9.453801538275956
 10
0.32724246199534085
 20
9.391775838932086
 10
-0.07451958179341145
 20
9.32847551142672
 10
-0.47501148878786004
 20
9.263871252476317
 10
-0.8741498971793032
 20
9.198073295897588
 10
-1.2718514859644265
 20
9.131192166275637
 10
-1.6681587707738859
 20
9.062826570642724
 10
-2.062974828813464
 20
8.992990110789734
 10
-2.4562707462433933
 20
8.922181002478624
 10
-2.8481162422761077
 20
8.850191798330084
 10
-3.2383038695322934
 20
8.776952779131669
 10
-3.6270274736003825
 20
8.702436741301604
 10
-4.0140932088919365
 20
8.626670888421673
 10
-4.399431356194529
 20
8.549862667871183
 10
-4.783249362887473
 20
8.472081798862572
 10
-5.165382297222112
 20
8.392857269215668
 10
-5.545717924355349
 20
8.312797819277517
 10
-5.92438037066317
 20
8.23208369284567
 10
-6.301384948194472
 20
8.150119751363947
 10
-6.676440888566602
 20
8.066946800205022
 10
-7.049685919946442
 20
7.982842005960642
 10
-7.421133644124884
 20
7.897902291425021
 10
-7.790756857520145
 20
7.811933811009734
 10
-8.158375316334686
 20
7.725060691090768
 10
-8.524182866156943
 20
7.63725572808635
 10
-8.888026466771151
 20
7.548836893960893
 10
-9.24987891459553
 20
7.459610343125975
 10
-9.609726607839193
 20
7.36947915278738
 10
-9.967583148293029
 20
7.27854024573932
 10
-10.3233788167446
 20
7.187001069361112
 10
-10.677210535988124
 20
7.0948480218618695
 10
-11.02885725685339
 20
7.001914461234938
 10
-11.378318979340404
 20
6.9082003874803215
 10
-11.725679024452491
 20
6.813595276012915
 10
-12.070854071186321
 20
6.7182096514178244
 10
-12.413884924914564
 20
6.622334282077687
 10
-12.754688264633891
 20
6.526079692577604
 10
-13.093209683180756
 20
6.429058191740724
 10
-13.429546103349365
 20
6.331256177776158
 10
-13.763393154966188
 20
6.23261753326236
 10
-14.094985488992325
 20
6.133405823000188
 10
-14.424336707218659
 20
6.033717969783858
 10
-14.751252964056766
 20
5.933581177195149
 10
-15.075720657715756
 20
5.832898522439844
 10
-15.397795905617174
 20
5.73136563534442
 10
-15.717436192130364
 20
5.629383808876613
 10
-16.034682322627994
 20
5.527243811419066
 10
-16.34936936536141
 20
5.4244746307916
 10
-16.66159424312481
 20
5.321062665203327
 10
-16.97119031391156
 20
5.217228963824451
 10
-17.27825450051587
 20
5.112959924864083
 10
-17.58280040472863
 20
5.008352471116435
 10
-17.884690298382953
 20
4.903129435989758
 10
-18.18395138506062
 20
4.797484665072478
 10
-18.48058366476163
 20
4.691418158364593
 10
-18.774641544649548
 20
4.585317607042959
 10
-19.065917577345047
 20
4.479113291895138
 10
-19.35456480306389
 20
4.372487240956714
 10
-19.64045909543009
 20
4.265259210430148
 10
-19.923557938812984
 20
4.157830493283184
 10
-20.203985459588562
 20
4.050381333313356
 10
-20.48159032779906
 20
3.942537641134702
 10
-20.756302824232037
 20
3.8345068641265385
 10
-21.02833039626682
 20
3.7263587215012994
 10
-21.297479198314967
 20
3.6181204168407635
 10
-21.563708425003817
 20
3.509501181762288
 10
-21.82705888170605
 20
3.4007917846485163
 10
-22.087544170212535
 20
3.292089148293658
 10
-22.345150688732392
 20
3.1832963499035034
 10
-22.599781514471402
 20
3.07442699126894
 10
-22.85142304563869
 20
2.965384149595753
 10
-23.10018580681934
 20
2.8562511458872706
 10
-23.34587595242494
 20
2.747055183725265
 10
-23.58852068603726
 20
2.637990108698166
 10
-23.82828664966295
 20
2.5288348716357696
 10
-24.064883074919372
 20
2.4196302779107404
 10
-24.298393282809847
 20
2.3102658029379786
 10
-24.528871680497936
 20
2.201129137894336
 10
-24.756318267983634
 20
2.092220282779812
 10
-24.980608918890947
 20
1.9833589937968692
 10
-25.201730031428998
 20
1.8744483481512952
 10
-25.419764926601104
 20
1.765377821257986
 10
-25.634587767773283
 20
1.6566592306697883
 10
-25.84628187594885
 20
1.5481820518015974
 10
-26.054820047546045
 20
1.4397524390649878
 10
-26.26010535977064
 20
1.3313839942508487
 10
-26.462165016204427
 20
1.2232705629476057
 10
-26.660971813265615
 20
1.1152182995668325
 10
-26.8565393527451
 20
1.0073241269027433
 10
-27.048881236433765
 20
0.8996849677495489
 10
-27.237873337955623
 20
0.7921205783097133
 10
-27.423556462683344
 20
0.6849217269658775
 10
-27.60597312624758
 20
0.5776871207502978
 10
-27.785080813017675
 20
0.4708180526307163
 10
-27.96086592120274
 20
0.3642175998129193
 10
-28.133314849011885
 20
0.2577888395026938
 10
-28.3023306736509
 20
0.15154537349093014
 10
-28.468023919704887
 20
0.045570522780950466
 10
-28.630338469752292
 20
-0.059831342453715
 10
-28.789247120211346
 20
-0.16485406780149423
 10
-28.944749871082042
 20
-0.26949765326238584
 10
-29.096957246949493
 20
-0.37367877783306597
 10
-29.245661800434366
 20
-0.47746716072597045
 10
-29.390987657912667
 20
-0.5806825581435621
 10
-29.532865100171954
 20
-0.6831175227065239
 10
-29.67139105000644
 20
-0.7847856562057461
 10
-29.806441381040138
 20
-0.8858672024387654
 10
-29.938126617858146
 20
-0.9862788404022594
 10
-30.066252914872035
 20
-1.0859933665144472
 10
-30.191041321252015
 20
-1.1848441387686828
 10
-30.312311593200544
 20
-1.282707030788974
 10
-30.43013344993006
 20
-1.3797894899546368
 10
-30.544506891440566
 20
-1.4760915162656705
 10
-30.655431917732052
 20
-1.5716131097220754
 10
-30.762838809592093
 20
-1.6661468229445358
 10
-30.866727567020686
 20
-1.7596926559330524
 10
-30.96715430743937
 20
-1.8525549788611537
 10
-31.064062913426607
 20
-1.9444294215553113
 10
-31.15739897781884
 20
-2.0357036751923774
 10
-31.247216907779627
 20
-2.1259900485955
 10
-31.333462296145406
 20
-2.2156762329415307
 10
-31.41616234649796
 20
-2.304568382642046
 10
-31.495317058837283
 20
-2.392666497697043
 10
-31.57081590857828
 20
-2.480053899109847
 10
-31.64287994489115
 20
-2.5665639448738085
 10
-31.71117759402059
 20
-2.6524465979989027
 10
-31.776026827931013
 20
-2.737548818269368
 10
-31.83722019924312
 20
-2.821940324897642
 10
-31.894798513329555
 20
-2.9053303495010825
 10
-31.948831489402764
 20
-2.9879263394590048
 10
-31.999235806459428
 20
-3.069617770186308
 10
-32.04606587166309
 20
-3.1500169505061395
 10
-32.089377802435294
 20
-3.2294282505920258
 10
-32.12910187956362
 20
-3.3076442230646537
 10
-32.165265306629834
 20
-3.3844710223355956
 10
-32.197922490797495
 20
-3.459520957227998
 10
-32.2270734320666
 20
-3.5327940277418617
 10
-32.252842256813146
 20
-3.604109990079648
 10
-32.27510312840314
 20
-3.672957026688514
 10
-32.29400737679436
 20
-3.738961048182494
 10
-32.309787942689894
 20
-3.801166428410344
 10
-32.32234619303754
 20
-3.858867504230793
 10
-32.33199667928573
 20
-3.9105271127273173
 10
-32.33905395288289
 20
-3.954608090983392
 10
-32.34365061122193
 20
-3.9887570883561216
 10
-32.346223621869264
 20
-4.01056463678106
 10
-32.2611361093904
 20
-4.630256648625238
 10
-32.25860088496503
 20
-4.634941277103234
 10
-32.251008813479814
 20
-4.6488982397430085
 10
-32.23841430209829
 20
-4.671739845367709
 10
-32.22048919758115
 20
-4.705100179688072
 10
-32.19714170790816
 20
-4.751041824964355
 10
-32.16898220341132
 20
-4.804511194106579
 10
-32.13633541681395
 20
-4.86249007870324
 10
-32.09957201698602
 20
-4.923745686011341
 10
-32.058880718741996
 20
-4.986229035561517
 10
-32.01428701540566
 20
-5.049054220414959
 10
-31.966052761519883
 20
-5.111763830182376
 10
-31.914135441453986
 20
-5.173956571896027
 10
-31.85858946237155
 20
-5.2352447543790595
 10
-31.799442027854326
 20
-5.2954345320430445
 10
-31.736693137902346
 20
-5.354525904887985
 10
-31.67045331710068
 20
-5.412435551910554
 10
-31.60065284623691
 20
-5.468956025731438
 10
-31.527278123520137
 20
-5.524184249144849
 10
-31.450439673535474
 20
-5.5780369011474615
 10
-31.37001336990692
 20
-5.630694225536815
 10
-31.28601281442537
 20
-5.682059299518697
 10
-31.19865905626103
 20
-5.731965481086457
 10
-31.107620521658582
 20
-5.780662733250069
 10
-31.01320158079158
 20
-5.828094938587986
 10
-30.915194786280686
 20
-5.874331816312644
 10
-30.813710662711
 20
-5.919290045420716
 10
-30.708762811873427
 20
-5.962872703117993
 10
-30.600310428395286
 20
-6.005370557787111
 10
-30.488380715858366
 20
-6.046589763839647
 10
-30.372919267099103
 20
-6.0869180124524505
 10
-30.253966887490172
 20
-6.126064535242884
 10
-30.131593296244002
 20
-6.164236779590262
 10
-30.00570157056638
 20
-6.201421143703697
 10
-29.876264506875536
 20
-6.237811473171614
 10
-29.743392629756567
 20
-6.273324446990688
 10
-29.607072337418582
 20
-6.3080569879551325
 10
-29.467303629861583
 20
-6.34200909606495
 10
-29.32394877891869
 20
-6.375457937911889
 10
-29.177215231969225
 20
-6.408333794283516
 10
-29.02692274521564
 20
-6.440512538803837
 10
-28.87326516424637
 20
-6.472021375054632
 10
-28.716118362685414
 20
-6.503040546833438
 10
-28.555579263326997
 20
-6.533583655931143
 10
-28.391564545167785
 20
-6.563540177762647
 10
-28.22419833458378
 20
-6.5927298685304105
 10
-28.05337010698987
 20
-6.6212360492377575
 10
-27.879260106183594
 20
-6.649182846260682
 10
-27.70177140937074
 20
-6.676556657808289
 10
-27.52090401655131
 20
-6.703357483880586
 10
-27.33669873309797
 20
-6.729294556094927
 10
-27.14925248180493
 20
-6.754381476242205
 10
-26.958468339877975
 20
-6.778604642531529
 10
-26.76441602652955
 20
-6.802171502342213
 10
-26.567095541759645
 20
-6.825082055674261
 10
-26.36656129273182
 20
-6.846948611350816
 10
-26.162882998658514
 20
-6.867978616751196
 10
-25.955977338536396
 20
-6.888061547290295
 10
-25.745830710574577
 20
-6.907294325762331
 10
-25.532540037567276
 20
-6.92569055395819
 10
-25.316118921305375
 20
-6.943153309083661
 10
-25.096553759997988
 20
-6.959779513932953
 10
-24.873844553645124
 20
-6.975569168506071
 10
-24.648004904037656
 20
-6.990425350008797
 10
-24.41911813217892
 20
-7.004458583026236
 10
-24.18718423806891
 20
-7.017668867558388
 10
-23.952119900704304
 20
-7.029945679020149
 10
-23.714091762091748
 20
-7.041510066581725
 10
-23.473016501227928
 20
-7.052251505658012
 10
-23.22888051632194
 20
-7.062266919043227
 10
-22.9817943319589
 20
-7.071472985734041
 10
-22.731798753511463
 20
-7.079578937347816
 10
-22.478852975606966
 20
-7.086875542267192
 10
-22.222832871869425
 20
-7.0935430442897065
 10
-21.964042812472364
 20
-7.099525325993812
 10
-21.702316155409125
 20
-7.1046013382093065
 10
-21.437666502470616
 20
-7.108674158141974
 10
-21.170260495663467
 20
-7.11196483496202
 10
-20.899987610402587
 20
-7.114556689672767
 10
-20.62687505026975
 20
-7.116255876685793
 10
-20.351019738059172
 20
-7.11707599779198
 10
-20.07243527556173
 20
-7.11692013019712
 10
-19.791080857404776
 20
-7.116079042283853
 10
-19.50698368717008
 20
-7.114358888463747
 10
-19.22011656127586
 20
-7.111953514325235
 10
-18.930714130683217
 20
-7.108599355067452
 10
-18.63856894801282
 20
-7.1043661299028305
 10
-18.343777936058906
 20
-7.099267440622265
 10
-18.04642441582478
 20
-7.093413811810853
 10
-17.746438668098016
 20
-7.086597796089282
 10
-17.443890412091044
 20
-7.079026840836865
 10
-17.13889017238896
 20
-7.0706176250502795
 10
-16.831271306985137
 20
-7.06114909955932
 10
-16.521227661467982
 20
-7.050648467945765
 10
-16.208718430464838
 20
-7.039406498592252
 10
-15.893743613975701
 20
-7.027423191498784
 10
-15.576303212000571
 20
-7.014698546665358
 10
-15.256534952706328
 20
-7.000955397500226
 10
-14.93446603967475
 20
-6.98599989841496
 10
-14.609945142948073
 20
-6.9702061387955245
 10
-14.283166108114711
 20
-6.953601322223695
 10
-13.954059215962241
 20
-6.935978001320158
 10
-13.622748592866646
 20
-6.917155932287376
 10
-13.289193433455269
 20
-6.897425883507988
 10
-12.953463456940534
 20
-6.876995302361309
 10
-12.615488944110014
 20
-6.8556567414680245
 10
-12.27531070033637
 20
-6.833119432445494
 10
-11.933095367626251
 20
-6.809604424463923
 10
-11.588829344188774
 20
-6.785208640317522
 10
-11.24231878443551
 20
-6.759904876424515
 10
-10.893868058539983
 20
-6.733637015363355
 10
-10.543407447289765
 20
-6.706197609754725
 10
-10.190936950684847
 20
-6.677586659598629
 10
-9.83653988972856
 20
-6.6479146894801655
 10
-9.480148255466457
 20
-6.617666313370401
 10
-9.121899776065419
 20
-6.586564364677585
 10
-8.76175193589479
 20
-6.5542075504339765
 10
-8.399691133163675
 20
-6.520692793433788
 10
-8.03591121346051
 20
-6.4860472972587955
 10
-7.670260846827516
 20
-6.4506451512949665
 10
-7.302864159640692
 20
-6.41430611174476
 10
-6.933721151900034
 20
-6.377030178608178
 10
-6.56285902718732
 20
-6.338623506296792
 10
-6.190264183711661
 20
-6.299183017604817
 10
-5.816103263479713
 20
-6.258929761702458
 10
-5.440209624484817
 20
-6.217642689419508
 10
-5.062804315897177
 20
-6.17515515874932
 10
-4.6838737359259115
 20
-6.131564092486105
 10
-4.303404282780126
 20
-6.086966413424078
 10
-3.9213126354564953
 20
-6.041251596978135
 10
-3.5379167659194493
 20
-5.9942666029325204
 10
-3.153133353165646
 20
-5.945900906702127
 10
-2.7667838636555473
 20
-5.896722443261347
 10
-2.3790757447684694
 20
-5.846661493397747
 10
-1.990187530043958
 20
-5.795150122136931
 10
-1.599884568520922
 20
-5.7424518942797675
 10
-1.208250181202677
 20
-5.688677334411353
 10
-0.815505417259438
 20
-5.633659800525043
 10
-0.4214700328936626
 20
-5.577275166244844
 10
-0.02633787369377492
 20
-5.519550635152532
 10
0.3700423902979899
 20
-5.460860296634075
 10
0.7675466327056442
 20
-5.401023906891932
 10
1.1660099217805282
 20
-5.339570453745928
 10
1.5655699856895173
 20
-5.276777103787811
 10
1.9661843088019628
 20
-5.213045149985325
 10
2.367715203756355
 20
-5.148097716515101
 10
2.7702481950461384
 20
-5.081839980284699
 10
3.1737148148236356
 20
-5.014488305570504
 10
3.578060696730671
 20
-4.9456552919640435
 10
3.9832858679708347
 20
-4.875341133310904
 10
4.3893478129134555
 20
-4.80394712257883
 10
4.7961632649623684
 20
-4.7315841720441005
 10
5.2038155587227015
 20
-4.658141854044407
 10
5.61216697962936
 20
-4.583343098910791
 10
6.021244744865915
 20
-4.507381849154475
 10
6.431048908839528
 20
-4.430258492466638
 10
6.841482535154191
 20
-4.35198653371537
 10
7.2525048592426185
 20
-4.272275495286415
 10
7.6641430846865815
 20
-4.191319222768201
 10
8.076257773061212
 20
-4.109532610919358
 10
8.489029222571205
 20
-4.0267919210550716
 10
8.902222768653687
 20
-3.9428334914516854
 10
9.315948963097334
 20
-3.857740836958113
 10
9.730013960313721
 20
-3.7715411611561303
 10
10.144528298489746
 20
-3.684317881971857
 10
10.559478389436304
 20
-3.595974173533875
 10
10.974683989355858
 20
-3.5066341622181727
 10
11.390269224624408
 20
-3.416478091822288
 10
11.806220534256424
 20
-3.3254093303203933
 10
12.222330430067226
 20
-3.2333578677316663
 10
12.638709463845494
 20
-3.140407218905023
 10
13.055287916378806
 20
-3.0467648312197766
 10
13.472108316899586
 20
-2.9520295086309813
 10
13.889003996197625
 20
-2.8564221064632496
 10
14.30600215785468
 20
-2.7601364703050124
 10
14.723089213681682
 20
-2.663075774284845
 10
15.140237960096828
 20
-2.565046172814326
 10
15.557475614283698
 20
-2.466241608404673
 10
15.974635466226683
 20
-2.3668826456121215
 10
16.391787262341804
 20
-2.266762030902941
 10
16.808874885207516
 20
-2.166184134450663
 10
17.225857502247568
 20
-2.0648579940270566
 10
17.64272152527286
 20
-1.962686783760707
 10
18.05949415786517
 20
-1.8598643492400366
 10
18.476022278197988
 20
-1.7567080808927003
 10
18.89240284987092
 20
-1.6532046676961891
 10
19.308498117513484
 20
-1.5490767492131654
 10
19.724321655712988
 20
-1.444421054392253
 10
20.139873478071234
 20
-1.3392376801562471
 10
20.555167159175518
 20
-1.2336233554537717
 10
20.969995183637586
 20
-1.1275078764584188
 10
21.384468116847895
 20
-1.020974854941897
 10
21.798502556192382
 20
-0.9141342339525447
 10
22.212222696055996
 20
-0.8071667419018683
 10
22.62538016127062
 20
-0.6997110188896458
 10
23.037988567228954
 20
-0.5918640846328819
 10
23.45021284567965
 20
-0.48409695131175545
 10
23.86177747228
 20
-0.3758548011287942
 10
24.272668804433728
 20
-0.26704042052140176
 10
24.683065416485768
 20
-0.15822203523235082
 10
25.09280055761512
 20
-0.04961991904949341
 10
25.501889567074272
 20
0.059360872737752306
 10
25.910249069452718
 20
0.16861020323545906
 10
26.317782060345515
 20
0.2781150521895061
 10
26.724612706934025
 20
0.3876948850339728
 10
27.130657620205945
 20
0.4972396617977253
 10
27.535930361146818
 20
0.6066527504549357
 10
27.940306762575272
 20
0.7161146855715238
 10
28.343759566502364
 20
0.8258197004270935
 10
28.746329564698964
 20
0.9354771235617977
 10
29.148016743563296
 20
1.0450870518984323
 10
29.548640709678114
 20
1.1545264252117426
 10
29.948395403844373
 20
1.2638217686239452
 10
30.347046039083075
 20
1.3732376161638453
 10
30.744606189981543
 20
1.4826772388828204
 10
31.141143811087037
 20
1.591656410500978
 10
31.536645314210464
 20
1.7002719568897395
 10
31.930889473358356
 20
1.808691780052077
 10
32.32408383112254
 20
1.9168454823159962
 10
32.71602079050401
 20
2.0248038490446674
 10
33.10679730150056
 20
2.1325802881833935
 10
33.49634354968723
 20
2.2399680308124195
 10
33.88456251705724
 20
2.3469541536004126
 10
34.271578370791985
 20
2.453358121981454
 10
34.65715628310707
 20
2.559444760752731
 10
35.04149019480348
 20
2.665240595036463
 10
35.424372508882186
 20
2.7708164101958217
 10
35.80588476807956
 20
2.8755911540794963
 10
36.18592996799065
 20
2.979551806433365
 10
36.56462043867108
 20
3.083306429144924
 10
36.9416515651151
 20
3.1869128842460195
 10
37.31732610245078
 20
3.289622314505161
 10
37.691436440077304
 20
3.391505602208316
 10
38.063928102822175
 20
3.4929509231463083
 10
38.43480106348178
 20
3.5939584711647243
 10
38.80406888304167
 20
3.694431614237737
 10
39.1717995432527
 20
3.7938859322398653
 10
39.537771777315996
 20
3.892489617942467
 10
39.902138761465245
 20
3.990559674082018
 10
40.26470643248335
 20
4.088070447841448
 10
40.62550195314674
 20
4.184828384400712
 10
40.98455249983358
 20
4.280639832016973
 10
41.34183081455496
 20
4.375699023969836
 10
41.69723983849872
 20
4.469993327696349
 10
42.050903752448065
 20
4.563342111707804
 10
42.40262849318587
 20
4.655719723187128
 10
42.752470232540865
 20
4.747430144616671
 10
43.10023488009237
 20
4.838447917024955
 10
43.446240639035274
 20
4.928618352508714
 10
43.79012661372075
 20
5.017696105999796
 10
44.13208679935695
 20
5.105707314929242
 10
44.4721075397458
 20
5.192749289782441
 10
44.80996756808845
 20
5.278990223330749
 10
45.14568041816684
 20
5.364333677393926
 10
45.47945367337817
 20
5.448708963531591
 10
45.81100986789133
 20
5.531980485878343
 10
46.140473155285854
 20
5.61396780679105
 10
46.46770567137698
 20
5.694949062089408
 10
46.79279077797339
 20
5.775034485590133
 10
47.11564501805385
 20
5.85411452193607
 10
47.436268337211196
 20
5.932189558818392
 10
47.75460446840421
 20
6.008956292214312
 10
48.07070959706335
 20
6.084718607683381
 10
48.384403220957076
 20
6.159354220382702
 10
48.6957551001032
 20
6.233070286923207
 10
49.00480601267077
 20
6.3055762327678435
 10
49.31147247443503
 20
6.376762696405043
 10
49.61571362561611
 20
6.446920833908619
 10
49.917529425408645
 20
6.51605093604696
 10
50.21691981940546
 20
6.584153390511233
 10
50.513717920767704
 20
6.651008892741539
 10
50.808144928285245
 20
6.716449734580487
 10
51.100035760589755
 20
6.780947994358995
 10
51.38930694705818
 20
6.844394213642693
 10
51.67605545129013
 20
6.906801703454092
 10
51.96021140445347
 20
6.9679640825646105
 10
52.24166413234337
 20
7.027965738128307
 10
52.520594041978875
 20
7.086929633447647
 10
52.79684782110843
 20
7.144539735014094
 10
53.07039822534485
 20
7.200990179184457
 10
53.34125881567367
 20
7.256184333932907
 10
53.60938871871326
 20
7.310413452256054
 10
53.87481509724004
 20
7.363483979333856
 10
54.137440865238275
 20
7.415383476448952
 10
54.39727958369353
 20
7.466015311575515
 10
54.654414641618025
 20
7.515489524684669
 10
54.908638319596676
 20
7.563877773444742
 10
55.15995054962052
 20
7.611180542469701
 10
55.40846193788537
 20
7.657313929219458
 10
55.654186099783956
 20
7.702180913977005
 10
55.896888397956936
 20
7.74604496462041
 10
56.1366645854445
 20
7.7889280183008625
 10
56.37355678699307
 20
7.830529905124685
 10
56.60745382513157
 20
7.870938598389325
 10
56.83832846907463
 20
7.910348137528802
 10
57.0663049132072
 20
7.948577794131597
 10
57.291202628094126
 20
7.985505477200403
 10
57.51309140095681
 20
8.021338149500568
 10
57.73195758919898
 20
8.05617302459468
 10
57.94770412040673
 20
8.089997566842595
 10
58.16035815735647
 20
8.122618221424267
 10
58.36990603024833
 20
8.154132395747874
 10
58.57632050829699
 20
8.184734129247438
 10
58.77961513888616
 20
8.214326886819919
 10
58.979720066785475
 20
8.242704190313946
 10
59.17663522398601
 20
8.269866524343488
 10
59.370403221330925
 20
8.296214503416728
 10
59.56094056099365
 20
8.32163886294489
 10
59.74824722937239
 20
8.346139699850768
 10
59.93233676024904
 20
8.36962057595412
 10
60.11311209481152
 20
8.392068858691998
 10
60.2906702102612
 20
8.413497762164113
 10
60.46488685780595
 20
8.434088402473153
 10
60.63578917301862
 20
8.453647418644664
 10
60.803349925113835
 20
8.472368850112659
 10
60.96769332207835
 20
8.490071871542835
 10
61.1285980427061
 20
8.506925063397722
 10
61.28614748961119
 20
8.523038368725661
 10
61.440258192170596
 20
8.53830232909229
 10
61.59104075658015
 20
8.55263304195751
 10
61.73837079802985
 20
8.566212592651954
 10
61.882372456497464
 20
8.57886064045529
 10
62.022811665898935
 20
8.590836582488233
 10
62.159895003098896
 20
8.602076902597165
 10
62.293428758526915
 20
8.61255342797238
 10
62.42350993658786
 20
8.622279178867991
 10
62.55013851007825
 20
8.631254349129595
 10
62.673300836401744
 20
8.639576152319782
 10
62.79291347213892
 20
8.647134936158599
 10
62.90894915930088
 20
8.654124933925653
 10
63.02151854488877
 20
8.660461952312467
 10
63.13051092749428
 20
8.66623057231869
 10
63.235939895306444
 20
8.671333968072911
 10
63.3377918329326
 20
8.675869159292127
 10
63.43608030135829
 20
8.679739513950512
 10
63.530791685190835
 20
8.683042051765073
 10
63.62189876724663
 20
8.68597071524703
 10
63.70933166509177
 20
8.688319220090605
 10
63.793270867356036
 20
8.690209948061485
 10
63.87341159581216
 20
8.691701924265047
 10
63.95005858788204
 20
8.692736414364296
 10
64.02301772594141
 20
8.693288153233347
 10
64.09226179280672
 20
8.69355108338341
 10
64.1579014218774
 20
8.693441108428818
 10
64.21983954073953
 20
8.692945692729413
 10
64.2780489458113
 20
8.692258681873616
 10
64.3326538586813
 20
8.69119915360434
 10
64.38353003055737
 20
8.689948224024265
 10
64.43069103602683
 20
8.688409164184764
 10
64.47410967150793
 20
8.68677581967427
 10
64.51379953879155
 20
8.68495126769857
 10
64.54984405409353
 20
8.683045354383202
 10
64.58204911339142
 20
8.681032717679479
 10
64.61049817370646
 20
8.67902291294456
 10
64.6352882666472
 20
8.67702876658698
 10
64.65622528819115
 20
8.675024916558058
 10
64.67337906636513
 20
8.67321803485475
 10
64.68686028897568
 20
8.671523637400202
 10
64.69644759401143
 20
8.670110595425328
 10
64.70222447929899
 20
8.669088173518908
 10
64.7041637004512
 20
8.66865050803775
 10
64.61915250739759
 20
9.27441797187097
  0
ENDSEC
  0
SECTION
  2
OBJECTS
  0
DICTIONARY
  5
A
330
0
100
AcDbDictionary
280
0
281
1
  3
ACAD_COLOR
350
B
  3
ACAD_GROUP
350
C
  3
ACAD_LAYOUT
350
D
  3
ACAD_MATERIAL
350
E
  3
ACAD_MLEADERSTYLE
350
F
  3
ACAD_MLINESTYLE
350
10
  3
ACAD_PLOTSETTINGS
350
11
  3
ACAD_PLOTSTYLENAME
350
12
  3
ACAD_SCALELIST
350
14
  3
ACAD_TABLESTYLE
350
15
  3
ACAD_VISUALSTYLE
350
16
  3
EZDXF_META
350
2D
  0
DICTIONARY
  5
B
330
A
100
AcDbDictionary
280
0
281
1
  0
DICTIONARY
  5
C
330
A
100
AcDbDictionary
280
0
281
1
  0
DICTIONARY
  5
D
330
A
100
AcDbDictionary
280
0
281
1
  3
Model
350
1A
  3
Layout1
350
1E
  0
DICTIONARY
  5
E
330
A
100
AcDbDictionary
280
0
281
1
  3
ByBlock
350
1F
  3
ByLayer
350
20
  3
Global
350
21
  0
DICTIONARY
  5
F
330
A
100
AcDbDictionary
280
0
281
1
  3
Standard
350
2C
  0
DICTIONARY
  5
10
330
A
100
AcDbDictionary
280
0
281
1
  3
Standard
350
22
  0
DICTIONARY
  5
11
330
A
100
AcDbDictionary
280
0
281
1
  0
ACDBDICTIONARYWDFLT
  5
12
330
A
100
AcDbDictionary
280
0
281
1
  3
Normal
350
13
100
AcDbDictionaryWithDefault
340
13
  0
ACDBPLACEHOLDER
  5
13
330
12
  0
DICTIONARY
  5
14
330
A
100
AcDbDictionary
280
0
281
1
  0
DICTIONARY
  5
15
330
A
100
AcDbDictionary
280
0
281
1
  0
DICTIONARY
  5
16
330
A
100
AcDbDictionary
280
0
281
1
  0
LAYOUT
  5
1A
330
D
100
AcDbPlotSettings
  1

  4
A3
  6

 40
7.5
 41
20.0
 42
7.5
 43
20.0
 44
420.0
 45
297.0
 46
0.0
 47
0.0
 48
0.0
 49
0.0
140
0.0
141
0.0
142
1.0
143
1.0
 70
1024
 72
1
 73
0
 74
5
  7

 75
16
 76
0
 77
2
 78
300
147
1.0
148
0.0
149
0.0
100
AcDbLayout
  1
Model
 70
1
 71
0
 10
0.0
 20
0.0
 11
420.0
 21
297.0
 12
0.0
 22
0.0
 32
0.0
 14
1e+20
 24
1e+20
 34
1e+20
 15
-1e+20
 25
-1e+20
 35
-1e+20
146
0.0
 13
0.0
 23
0.0
 33
0.0
 16
1.0
 26
0.0
 36
0.0
 17
0.0
 27
1.0
 37
0.0
 76
1
330
17
  0
LAYOUT
  5
1E
330
D
100
AcDbPlotSettings
  1

  4
A3
  6

 40
7.5
 41
20.0
 42
7.5
 43
20.0
 44
420.0
 45
297.0
 46
0.0
 47
0.0
 48
0.0
 49
0.0
140
0.0
141
0.0
142
1.0
143
1.0
 70
0
 72
1
 73
0
 74
5
  7

 75
16
 76
0
 77
2
 78
300
147
1.0
148
0.0
149
0.0
100
AcDbLayout
  1
Layout1
 70
1
 71
1
 10
0.0
 20
0.0
 11
420.0
 21
297.0
 12
0.0
 22
0.0
 32
0.0
 14
1e+20
 24
1e+20
 34
1e+20
 15
-1e+20
 25
-1e+20
 35
-1e+20
146
0.0
 13
0.0
 23
0.0
 33
0.0
 16
1.0
 26
0.0
 36
0.0
 17
0.0
 27
1.0
 37
0.0
 76
1
330
1B
  0
MATERIAL
  5
1F
102
{ACAD_REACTORS
330
E
102
}
330
E
100
AcDbMaterial
  1
ByBlock
  2

 70
0
 40
1.0
 71
1
 41
1.0
 91
-1023410177
 42
1.0
 72
1
  3

 73
1
 74
1
 75
1
 44
0.5
 73
0
 45
1.0
 46
1.0
 77
1
  4

 78
1
 79
1
170
1
 48
1.0
171
1
  6

172
1
173
1
174
1
140
1.0
141
1.0
175
1
  7

176
1
177
1
178
1
143
1.0
179
1
  8

270
1
271
1
272
1
145
1.0
146
1.0
273
1
  9

274
1
275
1
276
1
 42
1.0
 72
1
  3

 73
1
 74
1
 75
1
 94
63
  0
MATERIAL
  5
20
102
{ACAD_REACTORS
330
E
102
}
330
E
100
AcDbMaterial
  1
ByLayer
  2

 70
0
 40
1.0
 71
1
 41
1.0
 91
-1023410177
 42
1.0
 72
1
  3

 73
1
 74
1
 75
1
 44
0.5
 73
0
 45
1.0
 46
1.0
 77
1
  4

 78
1
 79
1
170
1
 48
1.0
171
1
  6

172
1
173
1
174
1
140
1.0
141
1.0
175
1
  7

176
1
177
1
178
1
143
1.0
179
1
  8

270
1
271
1
272
1
145
1.0
146
1.0
273
1
  9

274
1
275
1
276
1
 42
1.0
 72
1
  3

 73
1
 74
1
 75
1
 94
63
  0
MATERIAL
  5
21
102
{ACAD_REACTORS
330
E
102
}
330
E
100
AcDbMaterial
  1
Global
  2

 70
0
 40
1.0
 71
1
 41
1.0
 91
-1023410177
 42
1.0
 72
1
  3

 73
1
 74
1
 75
1
 44
0.5
 73
0
 45
1.0
 46
1.0
 77
1
  4

 78
1
 79
1
170
1
 48
1.0
171
1
  6

172
1
173
1
174
1
140
1.0
141
1.0
175
1
  7

176
1
177
1
178
1
143
1.0
179
1
  8

270
1
271
1
272
1
145
1.0
146
1.0
273
1
  9

274
1
275
1
276
1
 42
1.0
 72
1
  3

 73
1
 74
1
 75
1
 94
63
  0
MLINESTYLE
  5
22
102
{ACAD_REACTORS
330
10
102
}
330
10
100
AcDbMlineStyle
  2
Standard
 70
0
  3

 62
256
 51
90.0
 52
90.0
 71
2
 49
0.5
 62
256
  6
BYLAYER
 49
-0.5
 62
256
  6
BYLAYER
  0
MLEADERSTYLE
  5
2C
102
{ACAD_REACTORS
330
F
102
}
330
F
100
AcDbMLeaderStyle
179
2
170
2
171
1
172
0
 90
2
 40
0.0
 41
0.0
173
1
 91
-1056964608
 92
-2
290
1
 42
2.0
291
1
 43
8.0
  3
Standard
 44
4.0
300

342
29
174
1
175
1
176
0
178
1
 93
-1056964608
 45
4.0
292
0
297
0
 46
4.0
 94
-1056964608
 47
1.0
 49
1.0
140
1.0
294
1
141
0.0
177
0
142
1.0
295
0
296
0
143
3.75
271
0
272
9
273
9
  0
DICTIONARY
  5
2D
330
A
100
AcDbDictionary
280
1
281
1
  3
CREATED_BY_EZDXF
350
2E
  3
WRITTEN_BY_EZDXF
350
32
  0
DICTIONARYVAR
  5
2E
330
2D
100
DictionaryVariables
280
0
  1
1.3.5 @ 2025-08-22T23:49:24.005236+00:00
  0
DICTIONARYVAR
  5
32
330
2D
100
DictionaryVariables
280
0
  1
1.3.5 @ 2025-08-22T23:49:24.013317+00:00
  0
ENDSEC
  0
EOF
