  0
SECTION
  2
HEADER
  9
$ACADVER
  1
AC1032
  9
$ACADMAINTVER
 90
4
  9
$DWGCODEPAGE
  3
ANSI_1252
  9
$LASTSAVEDBY
  1
ezdxf
  9
$REQUIREDVERSIONS
160
0
  9
$INSBASE
 10
0.0
 20
0.0
 30
0.0
  9
$EXTMIN
 10
1e+20
 20
1e+20
 30
1e+20
  9
$EXTMAX
 10
-1e+20
 20
-1e+20
 30
-1e+20
  9
$LIMMIN
 10
0.0
 20
0.0
  9
$LIMMAX
 10
420.0
 20
297.0
  9
$ORTHOMODE
 70
0
  9
$REGENMODE
 70
1
  9
$FILLMODE
 70
1
  9
$QTEXTMODE
 70
0
  9
$MIRRTEXT
 70
1
  9
$LTSCALE
 40
1.0
  9
$ATTMODE
 70
1
  9
$TEXTSIZE
 40
2.5
  9
$TRACEWID
 40
1.0
  9
$TEXTSTYLE
  7
Standard
  9
$CLAYER
  8
0
  9
$CELTYPE
  6
ByLayer
  9
$CECOLOR
 62
256
  9
$CELTSCALE
 40
1.0
  9
$DISPSILH
 70
0
  9
$DIMSCALE
 40
1.0
  9
$DIMASZ
 40
2.5
  9
$DIMEXO
 40
0.625
  9
$DIMDLI
 40
3.75
  9
$DIMRND
 40
0.0
  9
$DIMDLE
 40
0.0
  9
$DIMEXE
 40
1.25
  9
$DIMTP
 40
0.0
  9
$DIMTM
 40
0.0
  9
$DIMTXT
 40
2.5
  9
$DIMCEN
 40
2.5
  9
$DIMTSZ
 40
0.0
  9
$DIMTOL
 70
0
  9
$DIMLIM
 70
0
  9
$DIMTIH
 70
0
  9
$DIMTOH
 70
0
  9
$DIMSE1
 70
0
  9
$DIMSE2
 70
0
  9
$DIMTAD
 70
1
  9
$DIMZIN
 70
8
  9
$DIMBLK
  1

  9
$DIMASO
 70
1
  9
$DIMSHO
 70
1
  9
$DIMPOST
  1

  9
$DIMAPOST
  1

  9
$DIMALT
 70
0
  9
$DIMALTD
 70
3
  9
$DIMALTF
 40
0.03937007874
  9
$DIMLFAC
 40
1.0
  9
$DIMTOFL
 70
1
  9
$DIMTVP
 40
0.0
  9
$DIMTIX
 70
0
  9
$DIMSOXD
 70
0
  9
$DIMSAH
 70
0
  9
$DIMBLK1
  1

  9
$DIMBLK2
  1

  9
$DIMSTYLE
  2
ISO-25
  9
$DIMCLRD
 70
0
  9
$DIMCLRE
 70
0
  9
$DIMCLRT
 70
0
  9
$DIMTFAC
 40
1.0
  9
$DIMGAP
 40
0.625
  9
$DIMJUST
 70
0
  9
$DIMSD1
 70
0
  9
$DIMSD2
 70
0
  9
$DIMTOLJ
 70
0
  9
$DIMTZIN
 70
8
  9
$DIMALTZ
 70
0
  9
$DIMALTTZ
 70
0
  9
$DIMUPT
 70
0
  9
$DIMDEC
 70
2
  9
$DIMTDEC
 70
2
  9
$DIMALTU
 70
2
  9
$DIMALTTD
 70
3
  9
$DIMTXSTY
  7
Standard
  9
$DIMAUNIT
 70
0
  9
$DIMADEC
 70
0
  9
$DIMALTRND
 40
0.0
  9
$DIMAZIN
 70
0
  9
$DIMDSEP
 70
44
  9
$DIMATFIT
 70
3
  9
$DIMFRAC
 70
0
  9
$DIMLDRBLK
  1

  9
$DIMLUNIT
 70
2
  9
$DIMLWD
 70
-2
  9
$DIMLWE
 70
-2
  9
$DIMTMOVE
 70
0
  9
$DIMFXL
 40
1.0
  9
$DIMFXLON
 70
0
  9
$DIMJOGANG
 40
0.785398163397
  9
$DIMTFILL
 70
0
  9
$DIMTFILLCLR
 70
0
  9
$DIMARCSYM
 70
0
  9
$DIMLTYPE
  6

  9
$DIMLTEX1
  6

  9
$DIMLTEX2
  6

  9
$DIMTXTDIRECTION
 70
0
  9
$LUNITS
 70
2
  9
$LUPREC
 70
4
  9
$SKETCHINC
 40
1.0
  9
$FILLETRAD
 40
10.0
  9
$AUNITS
 70
0
  9
$AUPREC
 70
2
  9
$MENU
  1
.
  9
$ELEVATION
 40
0.0
  9
$PELEVATION
 40
0.0
  9
$THICKNESS
 40
0.0
  9
$LIMCHECK
 70
0
  9
$CHAMFERA
 40
0.0
  9
$CHAMFERB
 40
0.0
  9
$CHAMFERC
 40
0.0
  9
$CHAMFERD
 40
0.0
  9
$SKPOLY
 70
0
  9
$TDCREATE
 40
2460911.0342939813
  9
$TDUCREATE
 40
2458532.153996898
  9
$TDUPDATE
 40
2460911.0342939813
  9
$TDUUPDATE
 40
2458532.1544311
  9
$TDINDWG
 40
0.0
  9
$TDUSRTIMER
 40
0.0
  9
$USRTIMER
 70
1
  9
$ANGBASE
 50
0.0
  9
$ANGDIR
 70
0
  9
$PDMODE
 70
0
  9
$PDSIZE
 40
0.0
  9
$PLINEWID
 40
0.0
  9
$SPLFRAME
 70
0
  9
$SPLINETYPE
 70
6
  9
$SPLINESEGS
 70
8
  9
$HANDSEED
  5
33
  9
$SURFTAB1
 70
6
  9
$SURFTAB2
 70
6
  9
$SURFTYPE
 70
6
  9
$SURFU
 70
6
  9
$SURFV
 70
6
  9
$UCSBASE
  2

  9
$UCSNAME
  2

  9
$UCSORG
 10
0.0
 20
0.0
 30
0.0
  9
$UCSXDIR
 10
1.0
 20
0.0
 30
0.0
  9
$UCSYDIR
 10
0.0
 20
1.0
 30
0.0
  9
$UCSORTHOREF
  2

  9
$UCSORTHOVIEW
 70
0
  9
$UCSORGTOP
 10
0.0
 20
0.0
 30
0.0
  9
$UCSORGBOTTOM
 10
0.0
 20
0.0
 30
0.0
  9
$UCSORGLEFT
 10
0.0
 20
0.0
 30
0.0
  9
$UCSORGRIGHT
 10
0.0
 20
0.0
 30
0.0
  9
$UCSORGFRONT
 10
0.0
 20
0.0
 30
0.0
  9
$UCSORGBACK
 10
0.0
 20
0.0
 30
0.0
  9
$PUCSBASE
  2

  9
$PUCSNAME
  2

  9
$PUCSORG
 10
0.0
 20
0.0
 30
0.0
  9
$PUCSXDIR
 10
1.0
 20
0.0
 30
0.0
  9
$PUCSYDIR
 10
0.0
 20
1.0
 30
0.0
  9
$PUCSORTHOREF
  2

  9
$PUCSORTHOVIEW
 70
0
  9
$PUCSORGTOP
 10
0.0
 20
0.0
 30
0.0
  9
$PUCSORGBOTTOM
 10
0.0
 20
0.0
 30
0.0
  9
$PUCSORGLEFT
 10
0.0
 20
0.0
 30
0.0
  9
$PUCSORGRIGHT
 10
0.0
 20
0.0
 30
0.0
  9
$PUCSORGFRONT
 10
0.0
 20
0.0
 30
0.0
  9
$PUCSORGBACK
 10
0.0
 20
0.0
 30
0.0
  9
$USERI1
 70
0
  9
$USERI2
 70
0
  9
$USERI3
 70
0
  9
$USERI4
 70
0
  9
$USERI5
 70
0
  9
$USERR1
 40
0.0
  9
$USERR2
 40
0.0
  9
$USERR3
 40
0.0
  9
$USERR4
 40
0.0
  9
$USERR5
 40
0.0
  9
$WORLDVIEW
 70
1
  9
$SHADEDGE
 70
3
  9
$SHADEDIF
 70
70
  9
$TILEMODE
 70
1
  9
$MAXACTVP
 70
64
  9
$PINSBASE
 10
0.0
 20
0.0
 30
0.0
  9
$PLIMCHECK
 70
0
  9
$PEXTMIN
 10
1e+20
 20
1e+20
 30
1e+20
  9
$PEXTMAX
 10
-1e+20
 20
-1e+20
 30
-1e+20
  9
$PLIMMIN
 10
0.0
 20
0.0
  9
$PLIMMAX
 10
420.0
 20
297.0
  9
$UNITMODE
 70
0
  9
$VISRETAIN
 70
1
  9
$PLINEGEN
 70
0
  9
$PSLTSCALE
 70
1
  9
$TREEDEPTH
 70
3020
  9
$CMLSTYLE
  2
Standard
  9
$CMLJUST
 70
0
  9
$CMLSCALE
 40
20.0
  9
$PROXYGRAPHICS
 70
1
  9
$MEASUREMENT
 70
1
  9
$CELWEIGHT
370
-1
  9
$ENDCAPS
280
0
  9
$JOINSTYLE
280
0
  9
$LWDISPLAY
290
0
  9
$INSUNITS
 70
6
  9
$HYPERLINKBASE
  1

  9
$STYLESHEET
  1

  9
$XEDIT
290
1
  9
$CEPSNTYPE
380
0
  9
$PSTYLEMODE
290
1
  9
$FINGERPRINTGUID
  2
{661079FA-6041-4FED-A9A9-C2F2FA1709A9}
  9
$VERSIONGUID
  2
{704459D3-547E-46F5-89C2-F622E198A249}
  9
$EXTNAMES
290
1
  9
$PSVPSCALE
 40
0.0
  9
$OLESTARTUP
290
0
  9
$SORTENTS
280
127
  9
$INDEXCTL
280
0
  9
$HIDETEXT
280
1
  9
$XCLIPFRAME
280
1
  9
$HALOGAP
280
0
  9
$OBSCOLOR
 70
257
  9
$OBSLTYPE
280
0
  9
$INTERSECTIONDISPLAY
280
0
  9
$INTERSECTIONCOLOR
 70
257
  9
$DIMASSOC
280
2
  9
$PROJECTNAME
  1

  9
$CAMERADISPLAY
290
0
  9
$LENSLENGTH
 40
50.0
  9
$CAMERAHEIGHT
 40
0.0
  9
$STEPSPERSEC
 40
24.0
  9
$STEPSIZE
 40
100.0
  9
$3DDWFPREC
 40
2.0
  9
$PSOLWIDTH
 40
0.005
  9
$PSOLHEIGHT
 40
0.08
  9
$LOFTANG1
 40
1.570796326795
  9
$LOFTANG2
 40
1.570796326795
  9
$LOFTMAG1
 40
0.0
  9
$LOFTMAG2
 40
0.0
  9
$LOFTPARAM
 70
7
  9
$LOFTNORMALS
280
1
  9
$LATITUDE
 40
37.795
  9
$LONGITUDE
 40
-122.394
  9
$NORTHDIRECTION
 40
0.0
  9
$TIMEZONE
 70
-8000
  9
$LIGHTGLYPHDISPLAY
280
1
  9
$TILEMODELIGHTSYNCH
280
1
  9
$CMATERIAL
347
20
  9
$SOLIDHIST
280
0
  9
$SHOWHIST
280
1
  9
$DWFFRAME
280
2
  9
$DGNFRAME
280
2
  9
$REALWORLDSCALE
290
1
  9
$INTERFERECOLOR
 62
256
  9
$CSHADOW
280
0
  9
$SHADOWPLANELOCATION
 40
0.0
  0
ENDSEC
  0
SECTION
  2
CLASSES
  0
CLASS
  1
ACDBDICTIONARYWDFLT
  2
AcDbDictionaryWithDefault
  3
ObjectDBX Classes
 90
0
 91
0
280
0
281
0
  0
CLASS
  1
SUN
  2
AcDbSun
  3
SCENEOE
 90
1153
 91
0
280
0
281
0
  0
CLASS
  1
VISUALSTYLE
  2
AcDbVisualStyle
  3
ObjectDBX Classes
 90
4095
 91
0
280
0
281
0
  0
CLASS
  1
MATERIAL
  2
AcDbMaterial
  3
ObjectDBX Classes
 90
1153
 91
0
280
0
281
0
  0
CLASS
  1
SCALE
  2
AcDbScale
  3
ObjectDBX Classes
 90
1153
 91
0
280
0
281
0
  0
CLASS
  1
TABLESTYLE
  2
AcDbTableStyle
  3
ObjectDBX Classes
 90
4095
 91
0
280
0
281
0
  0
CLASS
  1
MLEADERSTYLE
  2
AcDbMLeaderStyle
  3
ACDB_MLEADERSTYLE_CLASS
 90
4095
 91
0
280
0
281
0
  0
CLASS
  1
DICTIONARYVAR
  2
AcDbDictionaryVar
  3
ObjectDBX Classes
 90
0
 91
0
280
0
281
0
  0
CLASS
  1
CELLSTYLEMAP
  2
AcDbCellStyleMap
  3
ObjectDBX Classes
 90
1152
 91
0
280
0
281
0
  0
CLASS
  1
MENTALRAYRENDERSETTINGS
  2
AcDbMentalRayRenderSettings
  3
SCENEOE
 90
1024
 91
0
280
0
281
0
  0
CLASS
  1
ACDBDETAILVIEWSTYLE
  2
AcDbDetailViewStyle
  3
ObjectDBX Classes
 90
1025
 91
0
280
0
281
0
  0
CLASS
  1
ACDBSECTIONVIEWSTYLE
  2
AcDbSectionViewStyle
  3
ObjectDBX Classes
 90
1025
 91
0
280
0
281
0
  0
CLASS
  1
RASTERVARIABLES
  2
AcDbRasterVariables
  3
ISM
 90
0
 91
0
280
0
281
0
  0
CLASS
  1
ACDBPLACEHOLDER
  2
AcDbPlaceHolder
  3
ObjectDBX Classes
 90
0
 91
0
280
0
281
0
  0
CLASS
  1
LAYOUT
  2
AcDbLayout
  3
ObjectDBX Classes
 90
0
 91
0
280
0
281
0
  0
ENDSEC
  0
SECTION
  2
TABLES
  0
TABLE
  2
VPORT
  5
8
330
0
100
AcDbSymbolTable
 70
1
  0
VPORT
  5
23
330
8
100
AcDbSymbolTableRecord
100
AcDbViewportTableRecord
  2
*Active
 70
0
 10
0.0
 20
0.0
 11
1.0
 21
1.0
 12
0.0
 22
0.0
 13
0.0
 23
0.0
 14
0.5
 24
0.5
 15
0.5
 25
0.5
 16
0.0
 26
0.0
 36
1.0
 17
0.0
 27
0.0
 37
0.0
 40
1000.0
 41
1.34
 42
50.0
 43
0.0
 44
0.0
 50
0.0
 51
0.0
 71
0
 72
1000
 73
1
 74
3
 75
0
 76
0
 77
0
 78
0
281
0
 65
0
146
0.0
  0
ENDTAB
  0
TABLE
  2
LTYPE
  5
2
330
0
100
AcDbSymbolTable
 70
3
  0
LTYPE
  5
24
330
2
100
AcDbSymbolTableRecord
100
AcDbLinetypeTableRecord
  2
ByBlock
 70
0
  3

 72
65
 73
0
 40
0.0
  0
LTYPE
  5
25
330
2
100
AcDbSymbolTableRecord
100
AcDbLinetypeTableRecord
  2
ByLayer
 70
0
  3

 72
65
 73
0
 40
0.0
  0
LTYPE
  5
26
330
2
100
AcDbSymbolTableRecord
100
AcDbLinetypeTableRecord
  2
Continuous
 70
0
  3

 72
65
 73
0
 40
0.0
  0
ENDTAB
  0
TABLE
  2
LAYER
  5
1
330
0
100
AcDbSymbolTable
 70
2
  0
LAYER
  5
27
330
1
100
AcDbSymbolTableRecord
100
AcDbLayerTableRecord
  2
0
 70
0
 62
7
  6
Continuous
370
-3
390
13
347
21
  0
LAYER
  5
28
330
1
100
AcDbSymbolTableRecord
100
AcDbLayerTableRecord
  2
Defpoints
 70
0
 62
7
  6
Continuous
290
0
370
-3
390
13
347
21
  0
ENDTAB
  0
TABLE
  2
STYLE
  5
5
330
0
100
AcDbSymbolTable
 70
1
  0
STYLE
  5
29
330
5
100
AcDbSymbolTableRecord
100
AcDbTextStyleTableRecord
  2
Standard
 70
0
 40
0.0
 41
1.0
 50
0.0
 71
0
 42
2.5
  3
txt
  4

  0
ENDTAB
  0
TABLE
  2
VIEW
  5
7
330
0
100
AcDbSymbolTable
 70
0
  0
ENDTAB
  0
TABLE
  2
UCS
  5
6
330
0
100
AcDbSymbolTable
 70
0
  0
ENDTAB
  0
TABLE
  2
APPID
  5
3
330
0
100
AcDbSymbolTable
 70
3
  0
APPID
  5
2A
330
3
100
AcDbSymbolTableRecord
100
AcDbRegAppTableRecord
  2
ACAD
 70
0
  0
APPID
  5
30
330
3
100
AcDbSymbolTableRecord
100
AcDbRegAppTableRecord
  2
HATCHBACKGROUNDCOLOR
 70
0
  0
APPID
  5
31
330
3
100
AcDbSymbolTableRecord
100
AcDbRegAppTableRecord
  2
EZDXF
 70
0
  0
ENDTAB
  0
TABLE
  2
DIMSTYLE
  5
4
330
0
100
AcDbSymbolTable
 70
1
100
AcDbDimStyleTable
  0
DIMSTYLE
105
2B
330
4
100
AcDbSymbolTableRecord
100
AcDbDimStyleTableRecord
  2
Standard
 70
0
 40
1.0
 41
2.5
 42
0.625
 43
3.75
 44
1.25
 45
0.0
 46
0.0
 47
0.0
 48
0.0
 49
2.5
140
2.5
141
2.5
142
0.0
143
0.03937007874
144
1.0
145
0.0
146
1.0
147
0.625
148
0.0
 69
0
 70
0
 71
0
 72
0
 73
0
 74
0
 75
0
 76
0
 77
1
 78
8
 79
3
170
0
171
3
172
1
173
0
174
0
175
0
176
0
177
0
178
0
179
2
271
2
272
2
273
2
274
3
275
0
276
0
277
2
278
44
279
0
280
0
281
0
282
0
283
0
284
8
285
0
286
0
288
0
289
3
290
0
371
-2
372
-2
  0
ENDTAB
  0
TABLE
  2
BLOCK_RECORD
  5
9
330
0
100
AcDbSymbolTable
 70
2
  0
BLOCK_RECORD
  5
17
330
9
100
AcDbSymbolTableRecord
100
AcDbBlockTableRecord
  2
*Model_Space
340
1A
 70
0
280
1
281
0
  0
BLOCK_RECORD
  5
1B
330
9
100
AcDbSymbolTableRecord
100
AcDbBlockTableRecord
  2
*Paper_Space
340
1E
 70
0
280
1
281
0
  0
ENDTAB
  0
ENDSEC
  0
SECTION
  2
BLOCKS
  0
BLOCK
  5
18
330
17
100
AcDbEntity
  8
0
100
AcDbBlockBegin
  2
*Model_Space
 70
0
 10
0.0
 20
0.0
 30
0.0
  3
*Model_Space
  1

  0
ENDBLK
  5
19
330
17
100
AcDbEntity
  8
0
100
AcDbBlockEnd
  0
BLOCK
  5
1C
330
1B
100
AcDbEntity
  8
0
100
AcDbBlockBegin
  2
*Paper_Space
 70
0
 10
0.0
 20
0.0
 30
0.0
  3
*Paper_Space
  1

  0
ENDBLK
  5
1D
330
1B
100
AcDbEntity
  8
0
100
AcDbBlockEnd
  0
ENDSEC
  0
SECTION
  2
ENTITIES
  0
LWPOLYLINE
  5
2F
330
17
100
AcDbEntity
  8
0
100
AcDbPolyline
 90
722
 70
1
 10
80.12396283973436
 20
47.76157273972703
 10
80.12119056935738
 20
47.76103989676998
 10
80.11301636162115
 20
47.75920043024886
 10
80.09972492470152
 20
47.755573307302946
 10
80.08105437518444
 20
47.75032642988829
 10
80.05745746312273
 20
47.743243981523925
 10
80.02874346433865
 20
47.73437363603786
 10
79.99486383066618
 20
47.72352285169887
 10
79.95605790567954
 20
47.7108363760617
 10
79.91227714121283
 20
47.696121667395204
 10
79.86325944016043
 20
47.679546988700785
 10
79.80938660703025
 20
47.66101639058015
 10
79.75053879195897
 20
47.64045780012711
 10
79.68664476447987
 20
47.61799156581821
 10
79.61784698552653
 20
47.593376990700385
 10
79.54400285170438
 20
47.56685501242364
 10
79.46530330088254
 20
47.538377596114564
 10
79.38162848319783
 20
47.50787266886701
 10
79.2929071681833
 20
47.47546057915748
 10
79.19940138171417
 20
47.44097318433303
 10
79.10084888422381
 20
47.404578988092034
 10
78.99739206541554
 20
47.36603741382992
 10
78.88912773669935
 20
47.325734026402976
 10
78.77576800633516
 20
47.28333153652527
 10
78.65767178283845
 20
47.23904724605161
 10
78.53459965140463
 20
47.192736527775736
 10
78.40667110574464
 20
47.14447205634623
 10
78.27388607462795
 20
47.09425395211155
 10
78.13617325635732
 20
47.042202683896726
 10
77.99353243724131
 20
46.98831861274714
 10
77.84610600698318
 20
46.93236116205828
 10
77.69375143341874
 20
46.87457114913161
 10
77.53665936949528
 20
46.81490102048768
 10
77.37463887734366
 20
46.75339881099989
 10
77.20783213297568
 20
46.689824305109056
 10
77.03621638285999
 20
46.6244905133714
 10
76.85972018283832
 20
46.55751814530883
 10
76.67855708185034
 20
46.488546396188795
 10
76.49246469786857
 20
46.417744010406594
 10
76.30175360493404
 20
46.34513538704044
 10
76.10611294408386
 20
46.27069660840603
 10
75.9057819876618
 20
46.19457254240661
 10
75.70064081457407
 20
46.116691236484435
 10
75.49080898976209
 20
46.03712524493962
 10
75.27623782259896
 20
45.95568226673792
 10
75.05704687802609
 20
45.87243485617942
 10
74.83297377401604
 20
45.78755175765948
 10
74.60432901337943
 20
45.70105749060479
 10
74.37099267502248
 20
45.61288010245764
 10
74.13296461648426
 20
45.52301983391498
 10
73.89024448161246
 20
45.43147728671919
 10
73.64288074734256
 20
45.33844512294998
 10
73.39082458058674
 20
45.24373128227
 10
73.13412438704998
 20
45.14752854710742
 10
72.87285104104683
 20
45.0497171707281
 10
72.60714693228051
 20
44.95005657652745
 10
72.33698902229777
 20
44.848860256455566
 10
72.06211500030169
 20
44.74629683455934
 10
71.78252451013991
 20
44.64236691258113
 10
71.49855087938481
 20
44.536781879042955
 10
71.21012259264772
 20
44.429662563815285
 10
70.91723950746768
 20
44.321009207595054
 10
70.61968757629185
 20
44.21118345755421
 10
70.31782273776302
 20
44.099583932355586
 10
70.01162209588888
 20
43.98652388325227
 10
69.70101420651122
 20
43.872124019766254
 10
69.385807846839
 20
43.756432858164835
 10
69.0663134484523
 20
43.63947503822318
 10
68.74248224949379
 20
43.52105837925552
 10
68.41431410750252
 20
43.40118312195884
 10
68.0817859840253
 20
43.28016275828321
 10
67.74518251600756
 20
43.157516375716405
 10
67.40424139265238
 20
43.033412598305326
 10
67.05913051337573
 20
42.908116883126674
 10
66.70984966448623
 20
42.78162959122588
 10
66.35642138582377
 20
42.65363807309217
 10
65.99877409076923
 20
42.524263278944474
 10
65.6371470516663
 20
42.39365007668599
 10
65.27127781525711
 20
42.26196733106055
 10
64.9013798592508
 20
42.12885435768401
 10
64.52757267735824
 20
41.99438383120493
 10
64.1498560558881
 20
41.85855611266873
 10
63.76808717775434
 20
41.72161250077086
 10
63.382265829265535
 20
41.58355335655674
 10
62.99246302719713
 20
41.44425869259528
 10
62.59898927435974
 20
41.30375302831316
 10
62.201533498098996
 20
41.16201280707151
 10
61.800215263356336
 20
41.0191105831704
 10
61.39536782647366
 20
40.87475786548037
 10
60.98679982219901
 20
40.72900341096563
 10
60.57441712407326
 20
40.582280819355866
 10
60.15833929703777
 20
40.434662644951175
 10
59.738468888608324
 20
40.285764406031554
 10
59.31525900499011
 20
40.13536968437368
 10
58.88842443939389
 20
39.9839603552776
 10
58.458036208595075
 20
39.83141643131218
 10
58.02402279720499
 20
39.67785874234789
 10
57.58664615986824
 20
39.523119266080194
 10
57.145906154123885
 20
39.367198243206076
 10
56.701682645186786
 20
39.21002408221326
 10
56.254143746164296
 20
39.05186187913299
 10
55.803169464732235
 20
38.89263980175608
 10
55.34902182676568
 20
38.73218970742954
 10
54.89170054734273
 20
38.57051207754726
 10
54.431325262635276
 20
38.40767934606086
 10
53.96770460739135
 20
38.243740269934605
 10
53.5008157568491
 20
38.07900798007314
 10
53.030752196393486
 20
37.91304995988311
 10
52.557802173916954
 20
37.746202896908024
 10
52.08201062663853
 20
37.577841732823366
 10
51.60330596793898
 20
37.40808741784799
 10
51.12171406368339
 20
37.237445383920814
 10
50.63716339848306
 20
37.06603646091229
 10
50.1496277503206
 20
36.893355818625885
 10
49.65972883712177
 20
36.71945129243022
 10
49.16717805484179
 20
36.54398679652412
 10
48.67200112688477
 20
36.36746800354346
 10
48.17400675922922
 20
36.18994355010399
 10
47.673505739607585
 20
36.01143747423853
 10
47.1705916958657
 20
35.83151701865671
 10
46.66524180324175
 20
35.65049531426321
 10
46.15731331588017
 20
35.468613539404984
 10
45.64716224365427
 20
35.285270192396354
 10
45.134859603339464
 20
35.10034528580623
 10
44.62028879986714
 20
34.91458494852653
 10
44.103281079055755
 20
34.727725167662314
 10
43.58400476770404
 20
34.540030678199386
 10
43.06288710615215
 20
34.35077962997557
 10
42.53985665024178
 20
34.16009273251277
 10
42.014770796578354
 20
33.968210923461044
 10
41.48741549760899
 20
33.77549584999233
 10
40.958315517388556
 20
33.581610023315946
 10
40.427515579444595
 20
33.38592874615273
 10
39.89516175565777
 20
33.18902892160539
 10
39.36065769535407
 20
32.99136898868354
 10
38.824408241494595
 20
32.792539506038764
 10
38.28669795979439
 20
32.59205968150733
 10
37.747624302737705
 20
32.39031399680924
 10
37.20687584151788
 20
32.18727949704799
 10
36.66462111662506
 20
31.98322055616399
 10
36.12081122374098
 20
31.77794523416843
 10
35.57570847366257
 20
31.57128490701444
 10
35.029432716253105
 20
31.3633116476082
 10
34.481863745496966
 20
31.15395398478591
 10
33.93324147481209
 20
30.9433557033145
 10
33.38332570585869
 20
30.731373499820943
 10
32.83221374866008
 20
30.5183920967222
 10
32.27997690491355
 20
30.304291025193237
 10
31.72697104203146
 20
30.08846902424533
 10
31.17305355661916
 20
29.871167031528486
 10
30.618393202858226
 20
29.652649059937684
 10
30.062678551942014
 20
29.432892154576436
 10
29.506291978222134
 20
29.21179940325861
 10
28.949304640934972
 20
28.989250577856165
 10
28.39178769931688
 20
28.765125450241023
 10
27.833598407512326
 20
28.539665198760172
 10
27.274785669839588
 20
28.31306176340241
 10
26.71534927260726
 20
28.085315505213142
 10
26.155622899540063
 20
27.85613721097203
 10
25.59555764631973
 20
27.625334940690276
 10
25.035344664506805
 20
27.392860298449044
 10
24.474890326255444
 20
27.159146041538676
 10
23.913860734149498
 20
26.924481744224945
 10
23.352638476232006
 20
26.68877013327631
 10
22.791673261452555
 20
26.450976829368265
 10
22.2305374933187
 20
26.21182428440541
 10
21.669400282164332
 20
25.97157590954035
 10
21.108283740446588
 20
25.729919777353167
 10
20.547259169862773
 20
25.486735419018867
 10
19.986352934891244
 20
25.242527424037018
 10
19.42551627367461
 20
24.997103611721844
 10
18.865082798707146
 20
24.750174889201475
 10
18.304932375203734
 20
24.50166966496364
 10
17.74523411349825
 20
24.25185135016094
 10
17.185916640662903
 20
24.000840533966848
 10
16.627193719328694
 20
23.7482760506033
 10
16.068993976567853
 20
23.49427848924379
 10
15.511366387929124
 20
23.239039669528633
 10
14.953977127226866
 20
22.98284904537514
 10
14.397493846832358
 20
22.725127708948687
 10
13.84191654674564
 20
22.465875660249278
 10
13.287174067730312
 20
22.205213127404967
 10
12.73319503685859
 20
21.94326069958922
 10
12.180171033073865
 20
21.67996925879237
 10
11.627910619893694
 20
21.415387682327143
 10
11.076725368585638
 20
21.14953868439308
 10
10.526757811313846
 20
20.88218144768864
 10
9.977936717611483
 20
20.613436320690358
 10
9.430190928242162
 20
20.343423531526284
 10
8.883591673672747
 20
20.072022731719898
 10
8.338521969329015
 20
19.799135925948764
 10
7.7947190770312496
 20
19.52493246035064
 10
7.252160884322278
 20
19.249724262345413
 10
6.711083337520711
 20
18.97283811838664
 10
6.171584458954535
 20
18.69465754740651
 10
5.633450770914613
 20
18.415543233789162
 10
5.096775616324952
 20
18.135062901638175
 10
4.561942153072288
 20
17.853118314934182
 10
4.028807991453404
 20
17.569950050281758
 10
3.4973953151559285
 20
17.28524605991253
 10
2.9678023601992174
 20
16.99938950171324
 10
2.4400513815013776
 20
16.71206820756703
 10
1.914311774318146
 20
16.423545107232595
 10
1.390129435217813
 20
16.134038303811927
 10
0.8678875220871127
 20
15.843449561285656
 10
0.3478709567934177
 20
15.551297485747666
 10
-0.16999127743871395
 20
15.257702064629058
 10
-0.6857925947637427
 20
14.963095694174742
 10
-1.1994614797929621
 20
14.667357544514273
 10
-1.7109266308290705
 20
14.370367146822652
 10
-2.2200676281650584
 20
14.072195611218245
 10
-2.7271472099806853
 20
13.773012283838785
 10
-3.2321872038112427
 20
13.473128610710267
 10
-3.7347823393128246
 20
13.17213442839342
 10
-4.234790013090806
 20
12.869788799238243
 10
-4.732352472387486
 20
12.566332059152355
 10
-5.2274140459902165
 20
12.261944715019286
 10
-5.7200835430399115
 20
11.956536039918996
 10
-6.210311631835476
 20
11.650297251749425
 10
-6.698049194367224
 20
11.343419929453948
 10
-7.183131657244314
 20
11.035351448659606
 10
-7.665438671990217
 20
10.72616303983325
 10
-8.145206042462627
 20
10.416527675824346
 10
-8.622411656204378
 20
10.10613342921301
 10
-9.096743585795572
 20
9.795002412456396
 10
-9.56844252818927
 20
9.48299216462081
 10
-10.037267786432405
 20
9.170245146639955
 10
-10.503241472982149
 20
8.857073285933714
 10
-10.966675515258391
 20
8.543454470044935
 10
-11.427093412450395
 20
8.228858187057819
 10
-11.884681850406155
 20
7.914148988765218
 10
-12.33970363853588
 20
7.5994963416533565
 10
-12.791851742515062
 20
7.284106924396205
 10
-13.2407651169141
 20
6.968194428394309
 10
-13.686777801610058
 20
6.652048668610395
 10
-14.129961027069774
 20
6.335789993521003
 10
-14.570172332359563
 20
6.019177706173072
 10
-15.00724225099321
 20
5.702474615976814
 10
-15.441411479923774
 20
5.385538261998545
 10
-15.872653013598734
 20
5.068872150601532
 10
-16.30082439108439
 20
4.752235584832723
 10
-16.725854381913912
 20
4.435508216215587
 10
-17.14781421655413
 20
4.118810393226654
 10
-17.56672600746222
 20
3.80245404328582
 10
-17.982710103114687
 20
3.4863679359262445
 10
-18.39538334562481
 20
3.170453835128555
 10
-18.804745734992583
 20
2.854711740892754
 10
-19.21084638922768
 20
2.5389500742754696
 10
-19.61363619032043
 20
2.2233604142200667
 10
-20.013328829671355
 20
1.908303806156139
 10
-20.40987518927077
 20
1.5939718290270555
 10
-20.802990347251303
 20
1.279883088926696
 10
-21.19279465208949
 20
0.9659663553882263
 10
-21.578855827888894
 20
0.6523149713356405
 10
-21.961628263003103
 20
0.33914752126484105
 10
-22.34118318789896
 20
0.02658435365235711
 10
-22.71727990562341
 20
-0.2852320705681305
 10
-23.08984718570961
 20
-0.5964220998731505
 10
-23.458791685233557
 20
-0.9074180101591239
 10
-23.824277977586096
 20
-1.217667177053098
 10
-24.186519754167758
 20
-1.5268085551254924
 10
-24.5450405141678
 20
-1.8353726562921013
 10
-24.899960606062745
 20
-2.1434307110197692
 10
-25.25118179383323
 20
-2.4505995614217526
 10
-25.598824425955772
 20
-2.7569504379648957
 10
-25.94295973289723
 20
-3.062362992172672
 10
-26.283253674780536
 20
-3.3671270390078165
 10
-26.619848712539373
 20
-3.671001881517283
 10
-26.952744846173754
 20
-3.973987519701066
 10
-27.28222699755104
 20
-4.275602559653051
 10
-27.60798323925133
 20
-4.575824888916088
 10
-27.93004057682716
 20
-4.875158013853438
 10
-28.248136200868313
 20
-5.173771400951322
 10
-28.56243468476563
 20
-5.471112425836781
 10
-28.873198837929326
 20
-5.767011622023604
 10
-29.180023390015503
 20
-6.061879152951057
 10
-29.48293045348132
 20
-6.3554030911992445
 10
-29.78223195574667
 20
-6.647605549225323
 10
-30.077687199858502
 20
-6.938344066095605
 10
-30.369082494416286
 20
-7.227979687239683
 10
-30.656631530820555
 20
-7.51615136722796
 10
-30.94040553953814
 20
-7.80273875758392
 10
-31.22033329010221
 20
-8.087862206784084
 10
-31.496294434036226
 20
-8.371450484361606
 10
-31.768217740873357
 20
-8.653623938793029
 10
-32.036294789556976
 20
-8.93433345206865
 10
-32.30028488313402
 20
-9.213436563254799
 10
-32.56033048253816
 20
-9.490692575398405
 10
-32.816529823788784
 20
-9.766484646386221
 10
-33.06852186145631
 20
-10.04059908481772
 10
-33.31635571355042
 20
-10.31322746963626
 10
-33.56031630193847
 20
-10.583888406935738
 10
-33.800403626620486
 20
-10.852581896716154
 10
-34.03635487818623
 20
-11.119477405463723
 10
-34.26809882616888
 20
-11.38469528165497
 10
-34.495684588578115
 20
-11.648427104233267
 10
-34.71922762079508
 20
-11.909928669882289
 10
-34.93877704082948
 20
-12.1693915575454
 10
-35.154190387747605
 20
-12.427056464175665
 10
-35.365347313072945
 20
-12.682852159306238
 10
-35.572390277739196
 20
-12.936537945984066
 10
-35.775176820812646
 20
-13.188354521162198
 10
-35.973778172760156
 20
-13.438181536364112
 10
-36.16826556404856
 20
-13.685898643113276
 10
-36.358376185267645
 20
-13.931675307895906
 10
-36.54432372781795
 20
-14.17515048528242
 10
-36.72594361830861
 20
-14.416876799645767
 10
-36.90340043013049
 20
-14.656301626612999
 10
-37.07662293281674
 20
-14.89354531466064
 10
-37.245539895900514
 20
-15.128728212265221
 10
-37.41003097090529
 20
-15.361779088959892
 10
-37.57028773677443
 20
-15.592648826734974
 10
-37.72640353643194
 20
-15.820905149694042
 10
-37.87823590894415
 20
-16.04678875479015
 10
-38.02578485431101
 20
-16.270299642023293
 10
-38.169241951475954
 20
-16.491388693383794
 10
-38.30829527301904
 20
-16.710033796414493
 10
-38.44320762835049
 20
-16.92606548462917
 10
-38.574001129927474
 20
-17.13917183060794
 10
-38.700796126226514
 20
-17.349424064817633
 10
-38.82332980783739
 20
-17.55699165374447
 10
-38.94179375370348
 20
-17.76182547937876
 10
-39.055947266871726
 20
-17.963783080786822
 10
-39.16617350522886
 20
-18.162766221949283
 10
-39.27230300228869
 20
-18.35851209345594
 10
-39.37431364559403
 20
-18.55133262272667
 10
-39.47220543514491
 20
-18.74122780976149
 10
-39.565978370941316
 20
-18.928197654560403
 10
-39.6556545654404
 20
-19.111930229703496
 10
-39.74123401864216
 20
-19.292425535190777
 10
-39.822623387622606
 20
-19.470115846918674
 10
-39.89991601530575
 20
-19.644568888990758
 10
-39.97282697982419
 20
-19.81626605531314
 10
-40.041641203045316
 20
-19.98472595197971
 10
-40.10607376310176
 20
-20.150429972896575
 10
-40.1662671209272
 20
-20.313137421110685
 10
-40.22222127652165
 20
-20.472848296622036
 10
-40.27374465094171
 20
-20.629611717440326
 10
-40.32122040207414
 20
-20.783329447546162
 10
-40.364073793088835
 20
-20.934148840968618
 10
-40.40280833034906
 20
-21.08204289215515
 10
-40.43711208643491
 20
-21.226989488648623
 10
-40.46719875274691
 20
-21.368627585019436
 10
-40.4930462168279
 20
-21.507269108687492
 10
-40.51460536066821
 20
-21.64272248070942
 10
-40.532161106135206
 20
-21.774506307179106
 10
-40.54562011030489
 20
-21.903052863992986
 10
-40.555004485634406
 20
-22.028050223731157
 10
-40.560456693057446
 20
-22.14925768944056
 10
-40.562261654441386
 20
-22.266193867215076
 10
-40.560419369786224
 20
-22.378858757054722
 10
-40.555192648502164
 20
-22.48708289247328
 10
-40.546696945970375
 20
-22.59012207015442
 10
-40.53533753253474
 20
-22.687566126658872
 10
-40.52194706134023
 20
-22.778282807688203
 10
-40.506783448701675
 20
-22.861287212973046
 10
-40.491106730565086
 20
-22.93472499735578
 10
-40.47617694287647
 20
-22.996741815678806
 10
-40.46346291988701
 20
-23.044306843571782
 10
-40.45486577174426
 20
-23.074482599588343
 10
-40.00191847920771
 20
-23.84498309194768
 10
-39.99599910434471
 20
-23.84976748538059
 10
-39.97831221022257
 20
-23.864000317202798
 10
-39.94914271870863
 20
-23.887200193508182
 10
-39.907159363390065
 20
-23.921341807930887
 10
-39.85110700141624
 20
-23.969094939411676
 10
-39.78456926858641
 20
-24.024130236704252
 10
-39.70963396089619
 20
-24.08264566656942
 10
-39.62746777136758
 20
-24.143219159746
 10
-39.53944619132775
 20
-24.20325216776006
 10
-39.44608994650176
 20
-24.261590323856016
 10
-39.34799588617686
 20
-24.31777434658491
 10
-39.245328583743905
 20
-24.371251611573793
 10
-39.13837296107026
 20
-24.42154072491654
 10
-39.02727147908962
 20
-24.468400989660104
 10
-38.91202413780197
 20
-24.511832405804487
 10
-38.792822516150686
 20
-24.551785855340007
 10
-38.66968872659294
 20
-24.587949410846754
 10
-38.542551538661876
 20
-24.62044342080127
 10
-38.41160253130085
 20
-24.649218767193855
 10
-38.27657889509968
 20
-24.674444916510726
 10
-38.137551860525186
 20
-24.69600152027537
 10
-37.99490458546411
 20
-24.713790342468396
 10
-37.84806233308636
 20
-24.727958737118875
 10
-37.69745737928834
 20
-24.738600047150793
 10
-37.542777796650164
 20
-24.74569216010701
 10
-37.38421516411518
 20
-24.74918595797782
 10
-37.221840712150275
 20
-24.748961092286713
 10
-37.05544074935489
 20
-24.745378608463263
 10
-36.88515773666271
 20
-24.73819780955442
 10
-36.71070675220637
 20
-24.72790008946629
 10
-36.5323014873864
 20
-24.71412440276929
 10
-36.349919829745645
 20
-24.697182676883326
 10
-36.163441430807566
 20
-24.677003681341546
 10
-35.97272382963848
 20
-24.653828113097003
 10
-35.77795860518177
 20
-24.627606854140023
 10
-35.579074526970594
 20
-24.598460252947135
 10
-35.37607159500494
 20
-24.566388309518324
 10
-35.16861576940775
 20
-24.531680838816342
 10
-34.957018977598935
 20
-24.494359953298343
 10
-34.74111175309227
 20
-24.454162843554116
 10
-34.52113479284082
 20
-24.411231970517346
 10
-34.296825287434366
 20
-24.365736800674245
 10
-34.06830358534944
 20
-24.31774856449165
 10
-33.83552056857636
 20
-24.267075683026206
 10
-33.598739046525324
 20
-24.213548689791683
 10
-33.357767440252964
 20
-24.157216702797772
 10
-33.11277521624552
 20
-24.098342531454694
 10
-32.863642026026426
 20
-24.036854945295595
 10
-32.61036786959571
 20
-23.972753944320484
 10
-32.353166438353895
 20
-23.90567848309977
 10
-32.0921580807775
 20
-23.8356997921003
 10
-31.827222448389993
 20
-23.76274664085523
 10
-31.558337428734234
 20
-23.687130956784454
 10
-31.285503021810218
 20
-23.60885273988798
 10
-31.00900414948531
 20
-23.5274305962597
 10
-30.728818699302344
 20
-23.443176453319495
 10
-30.444897553251653
 20
-23.355898732124015
 10
-30.157169480866386
 20
-23.265717781149768
 10
-29.865754830623068
 20
-23.172704830863612
 10
-29.570724832988542
 20
-23.076739532789013
 10
-29.27200825749597
 20
-22.977942235402498
 10
-28.96960510414535
 20
-22.876312938704068
 10
-28.663586603403527
 20
-22.771731294217194
 10
-28.354001873280183
 20
-22.664388880885255
 10
-28.04085091377532
 20
-22.554285698708238
 10
-27.72408460687924
 20
-22.441230168742777
 10
-27.403801188611332
 20
-22.325605448875617
 10
-27.079951540961908
 20
-22.207219960163382
 10
-26.752464433464123
 20
-22.08619405108261
 10
-26.421531445061344
 20
-21.9624786036236
 10
-26.087366267154096
 20
-21.835712572356787
 10
-25.74975520834185
 20
-21.706257002711734
 10
-25.40843545921441
 20
-21.574281361174666
 10
-25.06383929566819
 20
-21.43987899066959
 10
-24.71586848168381
 20
-21.30266673330975
 10
-24.364594247728128
 20
-21.162524240618623
 10
-24.010114829820505
 20
-21.01983467048295
 10
-23.652238649017587
 20
-20.87464714091243
 10
-23.291108166253036
 20
-20.726720954953983
 10
-22.926843730003398
 20
-20.576127343074468
 10
-22.559516570735507
 20
-20.422745956797353
 10
-22.18891299704883
 20
-20.26693784155222
 10
-21.815175469877065
 20
-20.108462300386016
 10
-21.438161528286518
 20
-19.947560030251793
 10
-21.058325560630774
 20
-19.78401244665366
 10
-20.67535563948994
 20
-19.61779743713445
 10
-20.289372113340534
 20
-19.448986232161012
 10
-19.90042410019225
 20
-19.277770410676712
 10
-19.50853371250224
 20
-19.103838045261654
 10
-19.113678837813353
 20
-18.927501063335743
 10
-18.71605105506895
 20
-18.74871034688928
 10
-18.31555212824967
 20
-18.567082738035538
 10
-17.91242275430856
 20
-18.38276069770819
 10
-17.5064492418451
 20
-18.196105271336826
 10
-17.097631590859287
 20
-18.007116458921445
 10
-16.685969801351117
 20
-17.81579426046205
 10
-16.271797913197656
 20
-17.621848860995897
 10
-15.855258387332572
 20
-17.425039563569925
 10
-15.435945953411984
 20
-17.22577653162341
 10
-15.014101308388941
 20
-17.02420222609004
 10
-14.589746564720596
 20
-16.82000471954991
 10
-14.163144531817169
 20
-16.61301454551681
 10
-13.73408151827813
 20
-16.40359274942032
 10
-13.302535411646318
 20
-16.192051258680337
 10
-12.868528324378898
 20
-15.978078145876973
 10
-12.432273947876391
 20
-15.761312365580634
 10
-11.993870518158168
 20
-15.54213707567807
 10
-11.553246804757386
 20
-15.320672624645796
 10
-11.110162110720994
 20
-15.096776551550139
 10
-10.665048711945415
 20
-14.870542199315095
 10
-10.217928720887812
 20
-14.641657640520766
 10
-9.768802137548175
 20
-14.410122875167149
 10
-9.317718079936189
 20
-14.176129482197611
 10
-8.864320395717654
 20
-13.940279203994804
 10
-8.408943124769614
 20
-13.702282225595976
 10
-7.951750840482911
 20
-13.461585922628176
 10
-7.492672312390715
 20
-13.218310643567937
 10
-7.031948237446067
 20
-12.972598849348936
 10
-6.569173345305077
 20
-12.724860703410446
 10
-6.104610445377956
 20
-12.474926739266252
 10
-5.638259537664705
 20
-12.222796956916357
 10
-5.170263083099003
 20
-11.968230659407702
 10
-4.700549851214018
 20
-11.711348195216818
 10
-4.229218078029115
 20
-11.452532722230446
 10
-3.7561695275249227
 20
-11.191401082561839
 10
-3.2817873575881817
 20
-10.927855040191634
 10
-2.8060003377520473
 20
-10.66201494359635
 10
-2.328737237549685
 20
-10.394001141252529
 10
-1.8499489389714
 20
-10.123622054216787
 10
-1.3701389483804753
 20
-9.850850676936606
 10
-0.8892581477672075
 20
-9.575495430468605
 10
-0.406758805854023
 20
-9.298207175205116
 10
0.0770471499391829
 20
-9.019008023603293
 10
0.5616119883348236
 20
-8.737247115270815
 10
1.0473900976864805
 20
-8.45314303470358
 10
1.5343323599844798
 20
-8.166887360844953
 10
2.0220556173420685
 20
-7.878381857675566
 10
2.5107293362454666
 20
-7.587363715785211
 10
3.0001128197416174
 20
-7.293975396107565
 10
3.4906113381744106
 20
-6.998627062081907
 10
3.981962082133643
 20
-6.701149247222015
 10
4.473688550808572
 20
-6.4010114396120965
 10
4.966124784076255
 20
-6.098503454214888
 10
5.459435355327533
 20
-5.794177915403347
 10
5.9532864383767405
 20
-5.487745369260166
 10
6.447738690569208
 20
-5.179033733295165
 10
6.942820777565029
 20
-4.868366006988089
 10
7.438247991188249
 20
-4.555261157478247
 10
7.934020473899791
 20
-4.2397194254625985
 10
8.430302799090496
 20
-3.9222934353140992
 10
8.927046133672542
 20
-3.6031752473700265
 10
9.424299666886098
 20
-3.282173403035478
 10
9.921729430084559
 20
-2.9589982076961983
 10
10.419477955432082
 20
-2.633890478653714
 10
10.917545527850546
 20
-2.3068506973019316
 10
11.415811727632942
 20
-1.9779499737592174
 10
11.914063077070145
 20
-1.6468276236414199
 10
12.41244203709584
 20
-1.3137243439015946
 10
12.910992832624347
 20
-0.9792639893795376
 10
13.409885215063737
 20
-0.643184232058941
 10
13.908664724829976
 20
-0.3052663670954275
 10
14.407523083327343
 20
0.034440246804358816
 10
14.906219593602806
 20
0.3757931487067369
 10
15.404945905830193
 20
0.7187431002535438
 10
15.903630860773129
 20
1.0634103295728323
 10
16.4021049919454
 20
1.4095320272543885
 10
16.90063110875722
 20
1.7569387268119976
 10
17.399138194433156
 20
2.1057504156767632
 10
17.897314107861884
 20
2.4559453424369515
 10
18.39535057044773
 20
2.8074741483859214
 10
18.89326969464785
 20
3.1600249061037875
 10
19.390906978301853
 20
3.5141501196150107
 10
19.888164042929454
 20
3.8694668717298213
 10
20.385183349464327
 20
4.225734465495149
 10
20.8818937386701
 20
4.583073129039056
 10
21.378152749613083
 20
4.941723559314585
 10
21.874102914457428
 20
5.3014449390202145
 10
22.369645641031443
 20
5.661854712011581
 10
22.864758959338904
 20
6.0232645650116385
 10
23.359536212303784
 20
6.385242222123947
 10
23.853763566064636
 20
6.74814896947505
 10
24.347369861385108
 20
7.112105035193007
 10
24.840497559198848
 20
7.4768697223247464
 10
25.333119226570556
 20
7.841940246597871
 10
25.82535542566814
 20
8.207387477433787
 10
26.316871974153624
 20
8.573501470492195
 10
26.807739960032908
 20
8.940162117993513
 10
27.29795945453646
 20
9.307369299589267
 10
27.7876015456702
 20
9.675002907499884
 10
28.27635394986189
 20
10.043041431010595
 10
28.764408459746303
 20
10.411435391066275
 10
29.25171552993092
 20
10.779993930814406
 10
29.738538325978343
 20
11.148546982026415
 10
30.224350587993904
 20
11.517434560811001
 10
30.70922361767492
 20
11.886536198343155
 10
31.19363391583215
 20
12.255321382707097
 10
31.67691304655914
 20
12.624370345570684
 10
32.158989565697624
 20
12.993803796455868
 10
32.64041141821664
 20
13.36297051392491
 10
33.121079798253014
 20
13.731488302878859
 10
33.6006878139432
 20
14.100150243946791
 10
34.079186062355625
 20
14.468765239579225
 10
34.55645376763098
 20
14.837262781400197
 10
35.03275395287085
 20
15.205473041878054
 10
35.508037143913235
 20
15.5732050438118
 10
35.98237435753357
 20
15.940338799770348
 10
36.45550257063025
 20
16.30704413728534
 10
36.9272790373477
 20
16.67356223470373
 10
37.39791737785601
 20
17.039532166944426
 10
37.867417520924704
 20
17.404954054355887
 10
38.33560921653243
 20
17.769566411361158
 10
38.80273366024551
 20
18.13351085645458
 10
39.26833575140569
 20
18.497007177616812
 10
39.73248657801888
 20
18.859935267068288
 10
40.19554200749742
 20
19.221693863820263
 10
40.65743088060496
 20
19.58240319600081
 10
41.11776911345867
 20
19.942163064159477
 10
41.57686913209172
 20
20.30099473831409
 10
42.03441822554907
 20
20.658877429840732
 10
42.49053688476819
 20
21.015882128509293
 10
42.945246723592966
 20
21.371697749339216
 10
43.3984268949336
 20
21.726253904302983
 10
43.8503404218917
 20
22.079380765868958
 10
44.30053199011762
 20
22.43129848306323
 10
44.749242795177686
 20
22.78214867438016
 10
45.19616012611689
 20
23.131910551195826
 10
45.64171100958391
 20
23.47986262439344
 10
46.08577466971942
 20
23.82593438559702
 10
46.52816491928871
 20
24.170989544160086
 10
46.96844820024694
 20
24.514936923431208
 10
47.40743555189519
 20
24.856955354092527
 10
47.84481419204795
 20
25.19702416786859
 10
48.280298842685504
 20
25.53562536040791
 10
48.71388936134691
 20
25.8727591724074
 10
49.14565676480764
 20
26.208305616436007
 10
49.575957062940965
 20
26.541663190808016
 10
50.00440595817266
 20
26.872932057118437
 10
50.43103116835994
 20
27.202614518245774
 10
50.855590856862264
 20
27.53057003883195
 10
51.27822727092193
 20
27.85655828296936
 10
51.69908272901168
 20
28.180338794401887
 10
52.11801448527596
 20
28.502152751476487
 10
52.53490147893356
 20
28.821930127211093
 10
52.9500068043166
 20
29.1395009737256
 10
53.36308862478454
 20
29.454724755661935
 10
53.77405388233523
 20
29.768033267522604
 10
54.18266059786722
 20
30.079286214646512
 10
54.58941348866171
 20
30.38845454555702
 10
54.99397148483228
 20
30.69501625188802
 10
55.396576066867134
 20
30.99911247073994
 10
55.797155719377535
 20
31.300864031983227
 10
56.195326144789256
 20
31.600371097212843
 10
56.591158217416854
 20
31.897513919694678
 10
56.98496457698487
 20
32.192313408401105
 10
57.376453841460304
 20
32.48443817112157
 10
57.76588896271427
 20
32.77371850067288
 10
58.15293518856508
 20
33.06044541550256
 10
58.537641850713825
 20
33.34481013350855
 10
58.919959118846116
 20
33.62662227923225
 10
59.2998867080401
 20
33.90588233406754
 10
59.677517177684656
 20
34.18215934595127
 10
60.05275754100812
 20
34.45588498903747
 10
60.42543697814536
 20
34.72679874053697
 10
60.795533590330685
 20
34.995212166824246
 10
61.163260926503646
 20
35.26076446316666
 10
61.52856901388898
 20
35.523265494802594
 10
61.891243876164275
 20
35.78307678855548
 10
62.25128529963813
 20
36.0401987054708
 10
62.6086929993887
 20
36.29463172694244
 10
62.96336745724819
 20
36.545994861356235
 10
63.31569261463847
 20
36.794188548859566
 10
63.665191187213686
 20
37.039744625201486
 10
64.01181327342901
 20
37.28247283527186
 10
64.35567943545237
 20
37.522444048492105
 10
64.69681100220578
 20
37.759347661275555
 10
65.03501561121072
 20
37.99323411546514
 10
65.37046358371906
 20
38.22436477628936
 10
65.70312648956889
 20
38.45223854435448
 10
66.03286165413512
 20
38.67709647765897
 10
66.35974009419321
 20
38.898818588771746
 10
66.68354776219033
 20
39.117766524864784
 10
67.00442690536869
 20
39.33369995003042
 10
67.3222563204862
 20
39.54654907798356
 10
67.63710702431833
 20
39.756193921293104
 10
67.94902849102704
 20
39.96282545716002
 10
68.25770736858317
 20
40.166423980096724
 10
68.56314330083428
 20
40.36699009184555
 10
68.86552829410664
 20
40.56447395230598
 10
69.16493365009752
 20
40.758755092653004
 10
69.46090505168382
 20
40.95005197703406
 10
69.75355672152186
 20
41.13844618588492
 10
70.04310926036754
 20
41.32356499997383
 10
70.329367670215
 20
41.50546331403733
 10
70.6121893476697
 20
41.68438206572543
 10
70.89183745829413
 20
41.860151186809546
 10
71.16814103976229
 20
42.03251039519745
 10
71.44107833576939
 20
42.20177101656668
 10
71.71057790215711
 20
42.36805376043917
 10
71.97651860691384
 20
42.53128872018133
 10
72.23904269728186
 20
42.69123555988554
 10
72.49807858664198
 20
42.8480152297707
 10
72.7534836715996
 20
43.00186866748683
 10
73.00532889769968
 20
43.1526760059513
 10
73.25363566509472
 20
43.30012652122898
 10
73.49840361763236
 20
43.44422081506225
 10
73.73946868053507
 20
43.58551066938474
 10
73.97678080979705
 20
43.72380606978325
 10
74.21033993418789
 20
43.85910713660629
 10
74.44021692802201
 20
43.99129412311968
 10
74.66629073051827
 20
44.12029700234135
 10
74.8886819750751
 20
44.24618652334427
 10
75.10712721120804
 20
44.3691332357509
 10
75.32176854369843
 20
44.4888970443506
 10
75.53246336915166
 20
44.60571888679335
 10
75.73947492436076
 20
44.71942857450209
 10
75.94241862682966
 20
44.83012675046573
 10
76.14134402195083
 20
44.93800427153676
 10
76.33620120817945
 20
45.04287088260508
 10
76.52718219184167
 20
45.144676743570116
 10
76.71402281014844
 20
45.24359360753914
 10
76.89698594374046
 20
45.33945188767751
 10
77.07562026717417
 20
45.43246499349657
 10
77.2502331491196
 20
45.522662739756
 10
77.42058460492837
 20
45.609901462037335
 10
77.58679541045983
 20
45.69425166871661
 10
77.74886542325302
 20
45.77571360049072
 10
77.9067231991497
 20
45.85440796688164
 10
78.06031897906598
 20
45.93014427208229
 10
78.20951001714634
 20
46.003163694439635
 10
78.3544885334083
 20
46.07341603280771
 10
78.49506202291246
 20
46.140951969726366
 10
78.63130164489519
 20
46.20565127706759
 10
78.76313609765918
 20
46.267634423656354
 10
78.89063639797989
 20
46.32678142206159
 10
79.01373124415994
 20
46.38321274110828
 10
79.13227810403525
 20
46.43716919809796
 10
79.24629823529736
 20
46.48834030979244
 10
79.35596238658086
 20
46.53698671932938
 10
79.46083614507532
 20
46.583018694239044
 10
79.56135370989979
 20
46.6265263280366
 10
79.65727295949192
 20
46.66736956675788
 10
79.74845136168746
 20
46.70578922770439
 10
79.83508106527361
 20
46.74173523007869
 10
79.91704093823863
 20
46.77513766724714
 10
79.99418851964889
 20
46.806237236162794
 10
80.06678711752784
 20
46.834863627900106
 10
80.13457328139108
 20
46.86118739208158
 10
80.1976180992445
 20
46.88508842092764
 10
80.25577911015445
 20
46.90680741139136
 10
80.30912754458774
 20
46.926224014996194
 10
80.35771301916735
 20
46.943528968246184
 10
80.40129348356132
 20
46.95858209682868
 10
80.43991876808403
 20
46.97157377620232
 10
80.47370979105575
 20
46.98257427404611
 10
80.50242450214449
 20
46.9914434160474
 10
80.52604135873692
 20
46.998492166838346
 10
80.54475279454198
 20
47.00366996422748
 10
80.55817401337218
 20
47.00707781224916
 10
80.56635505923323
 20
47.00890572531653
 10
80.56915325750013
 20
47.009394761428126
 10
80.12396283973436
 20
47.76157273972703
  0
ENDSEC
  0
SECTION
  2
OBJECTS
  0
DICTIONARY
  5
A
330
0
100
AcDbDictionary
280
0
281
1
  3
ACAD_COLOR
350
B
  3
ACAD_GROUP
350
C
  3
ACAD_LAYOUT
350
D
  3
ACAD_MATERIAL
350
E
  3
ACAD_MLEADERSTYLE
350
F
  3
ACAD_MLINESTYLE
350
10
  3
ACAD_PLOTSETTINGS
350
11
  3
ACAD_PLOTSTYLENAME
350
12
  3
ACAD_SCALELIST
350
14
  3
ACAD_TABLESTYLE
350
15
  3
ACAD_VISUALSTYLE
350
16
  3
EZDXF_META
350
2D
  0
DICTIONARY
  5
B
330
A
100
AcDbDictionary
280
0
281
1
  0
DICTIONARY
  5
C
330
A
100
AcDbDictionary
280
0
281
1
  0
DICTIONARY
  5
D
330
A
100
AcDbDictionary
280
0
281
1
  3
Model
350
1A
  3
Layout1
350
1E
  0
DICTIONARY
  5
E
330
A
100
AcDbDictionary
280
0
281
1
  3
ByBlock
350
1F
  3
ByLayer
350
20
  3
Global
350
21
  0
DICTIONARY
  5
F
330
A
100
AcDbDictionary
280
0
281
1
  3
Standard
350
2C
  0
DICTIONARY
  5
10
330
A
100
AcDbDictionary
280
0
281
1
  3
Standard
350
22
  0
DICTIONARY
  5
11
330
A
100
AcDbDictionary
280
0
281
1
  0
ACDBDICTIONARYWDFLT
  5
12
330
A
100
AcDbDictionary
280
0
281
1
  3
Normal
350
13
100
AcDbDictionaryWithDefault
340
13
  0
ACDBPLACEHOLDER
  5
13
330
12
  0
DICTIONARY
  5
14
330
A
100
AcDbDictionary
280
0
281
1
  0
DICTIONARY
  5
15
330
A
100
AcDbDictionary
280
0
281
1
  0
DICTIONARY
  5
16
330
A
100
AcDbDictionary
280
0
281
1
  0
LAYOUT
  5
1A
330
D
100
AcDbPlotSettings
  1

  4
A3
  6

 40
7.5
 41
20.0
 42
7.5
 43
20.0
 44
420.0
 45
297.0
 46
0.0
 47
0.0
 48
0.0
 49
0.0
140
0.0
141
0.0
142
1.0
143
1.0
 70
1024
 72
1
 73
0
 74
5
  7

 75
16
 76
0
 77
2
 78
300
147
1.0
148
0.0
149
0.0
100
AcDbLayout
  1
Model
 70
1
 71
0
 10
0.0
 20
0.0
 11
420.0
 21
297.0
 12
0.0
 22
0.0
 32
0.0
 14
1e+20
 24
1e+20
 34
1e+20
 15
-1e+20
 25
-1e+20
 35
-1e+20
146
0.0
 13
0.0
 23
0.0
 33
0.0
 16
1.0
 26
0.0
 36
0.0
 17
0.0
 27
1.0
 37
0.0
 76
1
330
17
  0
LAYOUT
  5
1E
330
D
100
AcDbPlotSettings
  1

  4
A3
  6

 40
7.5
 41
20.0
 42
7.5
 43
20.0
 44
420.0
 45
297.0
 46
0.0
 47
0.0
 48
0.0
 49
0.0
140
0.0
141
0.0
142
1.0
143
1.0
 70
0
 72
1
 73
0
 74
5
  7

 75
16
 76
0
 77
2
 78
300
147
1.0
148
0.0
149
0.0
100
AcDbLayout
  1
Layout1
 70
1
 71
1
 10
0.0
 20
0.0
 11
420.0
 21
297.0
 12
0.0
 22
0.0
 32
0.0
 14
1e+20
 24
1e+20
 34
1e+20
 15
-1e+20
 25
-1e+20
 35
-1e+20
146
0.0
 13
0.0
 23
0.0
 33
0.0
 16
1.0
 26
0.0
 36
0.0
 17
0.0
 27
1.0
 37
0.0
 76
1
330
1B
  0
MATERIAL
  5
1F
102
{ACAD_REACTORS
330
E
102
}
330
E
100
AcDbMaterial
  1
ByBlock
  2

 70
0
 40
1.0
 71
1
 41
1.0
 91
-1023410177
 42
1.0
 72
1
  3

 73
1
 74
1
 75
1
 44
0.5
 73
0
 45
1.0
 46
1.0
 77
1
  4

 78
1
 79
1
170
1
 48
1.0
171
1
  6

172
1
173
1
174
1
140
1.0
141
1.0
175
1
  7

176
1
177
1
178
1
143
1.0
179
1
  8

270
1
271
1
272
1
145
1.0
146
1.0
273
1
  9

274
1
275
1
276
1
 42
1.0
 72
1
  3

 73
1
 74
1
 75
1
 94
63
  0
MATERIAL
  5
20
102
{ACAD_REACTORS
330
E
102
}
330
E
100
AcDbMaterial
  1
ByLayer
  2

 70
0
 40
1.0
 71
1
 41
1.0
 91
-1023410177
 42
1.0
 72
1
  3

 73
1
 74
1
 75
1
 44
0.5
 73
0
 45
1.0
 46
1.0
 77
1
  4

 78
1
 79
1
170
1
 48
1.0
171
1
  6

172
1
173
1
174
1
140
1.0
141
1.0
175
1
  7

176
1
177
1
178
1
143
1.0
179
1
  8

270
1
271
1
272
1
145
1.0
146
1.0
273
1
  9

274
1
275
1
276
1
 42
1.0
 72
1
  3

 73
1
 74
1
 75
1
 94
63
  0
MATERIAL
  5
21
102
{ACAD_REACTORS
330
E
102
}
330
E
100
AcDbMaterial
  1
Global
  2

 70
0
 40
1.0
 71
1
 41
1.0
 91
-1023410177
 42
1.0
 72
1
  3

 73
1
 74
1
 75
1
 44
0.5
 73
0
 45
1.0
 46
1.0
 77
1
  4

 78
1
 79
1
170
1
 48
1.0
171
1
  6

172
1
173
1
174
1
140
1.0
141
1.0
175
1
  7

176
1
177
1
178
1
143
1.0
179
1
  8

270
1
271
1
272
1
145
1.0
146
1.0
273
1
  9

274
1
275
1
276
1
 42
1.0
 72
1
  3

 73
1
 74
1
 75
1
 94
63
  0
MLINESTYLE
  5
22
102
{ACAD_REACTORS
330
10
102
}
330
10
100
AcDbMlineStyle
  2
Standard
 70
0
  3

 62
256
 51
90.0
 52
90.0
 71
2
 49
0.5
 62
256
  6
BYLAYER
 49
-0.5
 62
256
  6
BYLAYER
  0
MLEADERSTYLE
  5
2C
102
{ACAD_REACTORS
330
F
102
}
330
F
100
AcDbMLeaderStyle
179
2
170
2
171
1
172
0
 90
2
 40
0.0
 41
0.0
173
1
 91
-1056964608
 92
-2
290
1
 42
2.0
291
1
 43
8.0
  3
Standard
 44
4.0
300

342
29
174
1
175
1
176
0
178
1
 93
-1056964608
 45
4.0
292
0
297
0
 46
4.0
 94
-1056964608
 47
1.0
 49
1.0
140
1.0
294
1
141
0.0
177
0
142
1.0
295
0
296
0
143
3.75
271
0
272
9
273
9
  0
DICTIONARY
  5
2D
330
A
100
AcDbDictionary
280
1
281
1
  3
CREATED_BY_EZDXF
350
2E
  3
WRITTEN_BY_EZDXF
350
32
  0
DICTIONARYVAR
  5
2E
330
2D
100
DictionaryVariables
280
0
  1
1.3.5 @ 2025-08-22T23:49:23.833085+00:00
  0
DICTIONARYVAR
  5
32
330
2D
100
DictionaryVariables
280
0
  1
1.3.5 @ 2025-08-22T23:49:23.848541+00:00
  0
ENDSEC
  0
EOF
