  0
SECTION
  2
HEADER
  9
$ACADVER
  1
AC1032
  9
$ACADMAINTVER
 90
4
  9
$DWGCODEPAGE
  3
ANSI_1252
  9
$LASTSAVEDBY
  1
ezdxf
  9
$REQUIREDVERSIONS
160
0
  9
$INSBASE
 10
0.0
 20
0.0
 30
0.0
  9
$EXTMIN
 10
1e+20
 20
1e+20
 30
1e+20
  9
$EXTMAX
 10
-1e+20
 20
-1e+20
 30
-1e+20
  9
$LIMMIN
 10
0.0
 20
0.0
  9
$LIMMAX
 10
420.0
 20
297.0
  9
$ORTHOMODE
 70
0
  9
$REGENMODE
 70
1
  9
$FILLMODE
 70
1
  9
$QTEXTMODE
 70
0
  9
$MIRRTEXT
 70
1
  9
$LTSCALE
 40
1.0
  9
$ATTMODE
 70
1
  9
$TEXTSIZE
 40
2.5
  9
$TRACEWID
 40
1.0
  9
$TEXTSTYLE
  7
Standard
  9
$CLAYER
  8
0
  9
$CELTYPE
  6
ByLayer
  9
$CECOLOR
 62
256
  9
$CELTSCALE
 40
1.0
  9
$DISPSILH
 70
0
  9
$DIMSCALE
 40
1.0
  9
$DIMASZ
 40
2.5
  9
$DIMEXO
 40
0.625
  9
$DIMDLI
 40
3.75
  9
$DIMRND
 40
0.0
  9
$DIMDLE
 40
0.0
  9
$DIMEXE
 40
1.25
  9
$DIMTP
 40
0.0
  9
$DIMTM
 40
0.0
  9
$DIMTXT
 40
2.5
  9
$DIMCEN
 40
2.5
  9
$DIMTSZ
 40
0.0
  9
$DIMTOL
 70
0
  9
$DIMLIM
 70
0
  9
$DIMTIH
 70
0
  9
$DIMTOH
 70
0
  9
$DIMSE1
 70
0
  9
$DIMSE2
 70
0
  9
$DIMTAD
 70
1
  9
$DIMZIN
 70
8
  9
$DIMBLK
  1

  9
$DIMASO
 70
1
  9
$DIMSHO
 70
1
  9
$DIMPOST
  1

  9
$DIMAPOST
  1

  9
$DIMALT
 70
0
  9
$DIMALTD
 70
3
  9
$DIMALTF
 40
0.03937007874
  9
$DIMLFAC
 40
1.0
  9
$DIMTOFL
 70
1
  9
$DIMTVP
 40
0.0
  9
$DIMTIX
 70
0
  9
$DIMSOXD
 70
0
  9
$DIMSAH
 70
0
  9
$DIMBLK1
  1

  9
$DIMBLK2
  1

  9
$DIMSTYLE
  2
ISO-25
  9
$DIMCLRD
 70
0
  9
$DIMCLRE
 70
0
  9
$DIMCLRT
 70
0
  9
$DIMTFAC
 40
1.0
  9
$DIMGAP
 40
0.625
  9
$DIMJUST
 70
0
  9
$DIMSD1
 70
0
  9
$DIMSD2
 70
0
  9
$DIMTOLJ
 70
0
  9
$DIMTZIN
 70
8
  9
$DIMALTZ
 70
0
  9
$DIMALTTZ
 70
0
  9
$DIMUPT
 70
0
  9
$DIMDEC
 70
2
  9
$DIMTDEC
 70
2
  9
$DIMALTU
 70
2
  9
$DIMALTTD
 70
3
  9
$DIMTXSTY
  7
Standard
  9
$DIMAUNIT
 70
0
  9
$DIMADEC
 70
0
  9
$DIMALTRND
 40
0.0
  9
$DIMAZIN
 70
0
  9
$DIMDSEP
 70
44
  9
$DIMATFIT
 70
3
  9
$DIMFRAC
 70
0
  9
$DIMLDRBLK
  1

  9
$DIMLUNIT
 70
2
  9
$DIMLWD
 70
-2
  9
$DIMLWE
 70
-2
  9
$DIMTMOVE
 70
0
  9
$DIMFXL
 40
1.0
  9
$DIMFXLON
 70
0
  9
$DIMJOGANG
 40
0.785398163397
  9
$DIMTFILL
 70
0
  9
$DIMTFILLCLR
 70
0
  9
$DIMARCSYM
 70
0
  9
$DIMLTYPE
  6

  9
$DIMLTEX1
  6

  9
$DIMLTEX2
  6

  9
$DIMTXTDIRECTION
 70
0
  9
$LUNITS
 70
2
  9
$LUPREC
 70
4
  9
$SKETCHINC
 40
1.0
  9
$FILLETRAD
 40
10.0
  9
$AUNITS
 70
0
  9
$AUPREC
 70
2
  9
$MENU
  1
.
  9
$ELEVATION
 40
0.0
  9
$PELEVATION
 40
0.0
  9
$THICKNESS
 40
0.0
  9
$LIMCHECK
 70
0
  9
$CHAMFERA
 40
0.0
  9
$CHAMFERB
 40
0.0
  9
$CHAMFERC
 40
0.0
  9
$CHAMFERD
 40
0.0
  9
$SKPOLY
 70
0
  9
$TDCREATE
 40
2460908.124641204
  9
$TDUCREATE
 40
2458532.153996898
  9
$TDUPDATE
 40
2460908.124641204
  9
$TDUUPDATE
 40
2458532.1544311
  9
$TDINDWG
 40
0.0
  9
$TDUSRTIMER
 40
0.0
  9
$USRTIMER
 70
1
  9
$ANGBASE
 50
0.0
  9
$ANGDIR
 70
0
  9
$PDMODE
 70
0
  9
$PDSIZE
 40
0.0
  9
$PLINEWID
 40
0.0
  9
$SPLFRAME
 70
0
  9
$SPLINETYPE
 70
6
  9
$SPLINESEGS
 70
8
  9
$HANDSEED
  5
33
  9
$SURFTAB1
 70
6
  9
$SURFTAB2
 70
6
  9
$SURFTYPE
 70
6
  9
$SURFU
 70
6
  9
$SURFV
 70
6
  9
$UCSBASE
  2

  9
$UCSNAME
  2

  9
$UCSORG
 10
0.0
 20
0.0
 30
0.0
  9
$UCSXDIR
 10
1.0
 20
0.0
 30
0.0
  9
$UCSYDIR
 10
0.0
 20
1.0
 30
0.0
  9
$UCSORTHOREF
  2

  9
$UCSORTHOVIEW
 70
0
  9
$UCSORGTOP
 10
0.0
 20
0.0
 30
0.0
  9
$UCSORGBOTTOM
 10
0.0
 20
0.0
 30
0.0
  9
$UCSORGLEFT
 10
0.0
 20
0.0
 30
0.0
  9
$UCSORGRIGHT
 10
0.0
 20
0.0
 30
0.0
  9
$UCSORGFRONT
 10
0.0
 20
0.0
 30
0.0
  9
$UCSORGBACK
 10
0.0
 20
0.0
 30
0.0
  9
$PUCSBASE
  2

  9
$PUCSNAME
  2

  9
$PUCSORG
 10
0.0
 20
0.0
 30
0.0
  9
$PUCSXDIR
 10
1.0
 20
0.0
 30
0.0
  9
$PUCSYDIR
 10
0.0
 20
1.0
 30
0.0
  9
$PUCSORTHOREF
  2

  9
$PUCSORTHOVIEW
 70
0
  9
$PUCSORGTOP
 10
0.0
 20
0.0
 30
0.0
  9
$PUCSORGBOTTOM
 10
0.0
 20
0.0
 30
0.0
  9
$PUCSORGLEFT
 10
0.0
 20
0.0
 30
0.0
  9
$PUCSORGRIGHT
 10
0.0
 20
0.0
 30
0.0
  9
$PUCSORGFRONT
 10
0.0
 20
0.0
 30
0.0
  9
$PUCSORGBACK
 10
0.0
 20
0.0
 30
0.0
  9
$USERI1
 70
0
  9
$USERI2
 70
0
  9
$USERI3
 70
0
  9
$USERI4
 70
0
  9
$USERI5
 70
0
  9
$USERR1
 40
0.0
  9
$USERR2
 40
0.0
  9
$USERR3
 40
0.0
  9
$USERR4
 40
0.0
  9
$USERR5
 40
0.0
  9
$WORLDVIEW
 70
1
  9
$SHADEDGE
 70
3
  9
$SHADEDIF
 70
70
  9
$TILEMODE
 70
1
  9
$MAXACTVP
 70
64
  9
$PINSBASE
 10
0.0
 20
0.0
 30
0.0
  9
$PLIMCHECK
 70
0
  9
$PEXTMIN
 10
1e+20
 20
1e+20
 30
1e+20
  9
$PEXTMAX
 10
-1e+20
 20
-1e+20
 30
-1e+20
  9
$PLIMMIN
 10
0.0
 20
0.0
  9
$PLIMMAX
 10
420.0
 20
297.0
  9
$UNITMODE
 70
0
  9
$VISRETAIN
 70
1
  9
$PLINEGEN
 70
0
  9
$PSLTSCALE
 70
1
  9
$TREEDEPTH
 70
3020
  9
$CMLSTYLE
  2
Standard
  9
$CMLJUST
 70
0
  9
$CMLSCALE
 40
20.0
  9
$PROXYGRAPHICS
 70
1
  9
$MEASUREMENT
 70
1
  9
$CELWEIGHT
370
-1
  9
$ENDCAPS
280
0
  9
$JOINSTYLE
280
0
  9
$LWDISPLAY
290
0
  9
$INSUNITS
 70
6
  9
$HYPERLINKBASE
  1

  9
$STYLESHEET
  1

  9
$XEDIT
290
1
  9
$CEPSNTYPE
380
0
  9
$PSTYLEMODE
290
1
  9
$FINGERPRINTGUID
  2
{45EEE2B8-93CE-46CC-9420-FE58DAC175DA}
  9
$VERSIONGUID
  2
{3750C33F-67D8-444A-8BBC-D952D6FFB92E}
  9
$EXTNAMES
290
1
  9
$PSVPSCALE
 40
0.0
  9
$OLESTARTUP
290
0
  9
$SORTENTS
280
127
  9
$INDEXCTL
280
0
  9
$HIDETEXT
280
1
  9
$XCLIPFRAME
280
1
  9
$HALOGAP
280
0
  9
$OBSCOLOR
 70
257
  9
$OBSLTYPE
280
0
  9
$INTERSECTIONDISPLAY
280
0
  9
$INTERSECTIONCOLOR
 70
257
  9
$DIMASSOC
280
2
  9
$PROJECTNAME
  1

  9
$CAMERADISPLAY
290
0
  9
$LENSLENGTH
 40
50.0
  9
$CAMERAHEIGHT
 40
0.0
  9
$STEPSPERSEC
 40
24.0
  9
$STEPSIZE
 40
100.0
  9
$3DDWFPREC
 40
2.0
  9
$PSOLWIDTH
 40
0.005
  9
$PSOLHEIGHT
 40
0.08
  9
$LOFTANG1
 40
1.570796326795
  9
$LOFTANG2
 40
1.570796326795
  9
$LOFTMAG1
 40
0.0
  9
$LOFTMAG2
 40
0.0
  9
$LOFTPARAM
 70
7
  9
$LOFTNORMALS
280
1
  9
$LATITUDE
 40
37.795
  9
$LONGITUDE
 40
-122.394
  9
$NORTHDIRECTION
 40
0.0
  9
$TIMEZONE
 70
-8000
  9
$LIGHTGLYPHDISPLAY
280
1
  9
$TILEMODELIGHTSYNCH
280
1
  9
$CMATERIAL
347
20
  9
$SOLIDHIST
280
0
  9
$SHOWHIST
280
1
  9
$DWFFRAME
280
2
  9
$DGNFRAME
280
2
  9
$REALWORLDSCALE
290
1
  9
$INTERFERECOLOR
 62
256
  9
$CSHADOW
280
0
  9
$SHADOWPLANELOCATION
 40
0.0
  0
ENDSEC
  0
SECTION
  2
CLASSES
  0
CLASS
  1
ACDBDICTIONARYWDFLT
  2
AcDbDictionaryWithDefault
  3
ObjectDBX Classes
 90
0
 91
0
280
0
281
0
  0
CLASS
  1
SUN
  2
AcDbSun
  3
SCENEOE
 90
1153
 91
0
280
0
281
0
  0
CLASS
  1
VISUALSTYLE
  2
AcDbVisualStyle
  3
ObjectDBX Classes
 90
4095
 91
0
280
0
281
0
  0
CLASS
  1
MATERIAL
  2
AcDbMaterial
  3
ObjectDBX Classes
 90
1153
 91
0
280
0
281
0
  0
CLASS
  1
SCALE
  2
AcDbScale
  3
ObjectDBX Classes
 90
1153
 91
0
280
0
281
0
  0
CLASS
  1
TABLESTYLE
  2
AcDbTableStyle
  3
ObjectDBX Classes
 90
4095
 91
0
280
0
281
0
  0
CLASS
  1
MLEADERSTYLE
  2
AcDbMLeaderStyle
  3
ACDB_MLEADERSTYLE_CLASS
 90
4095
 91
0
280
0
281
0
  0
CLASS
  1
DICTIONARYVAR
  2
AcDbDictionaryVar
  3
ObjectDBX Classes
 90
0
 91
0
280
0
281
0
  0
CLASS
  1
CELLSTYLEMAP
  2
AcDbCellStyleMap
  3
ObjectDBX Classes
 90
1152
 91
0
280
0
281
0
  0
CLASS
  1
MENTALRAYRENDERSETTINGS
  2
AcDbMentalRayRenderSettings
  3
SCENEOE
 90
1024
 91
0
280
0
281
0
  0
CLASS
  1
ACDBDETAILVIEWSTYLE
  2
AcDbDetailViewStyle
  3
ObjectDBX Classes
 90
1025
 91
0
280
0
281
0
  0
CLASS
  1
ACDBSECTIONVIEWSTYLE
  2
AcDbSectionViewStyle
  3
ObjectDBX Classes
 90
1025
 91
0
280
0
281
0
  0
CLASS
  1
RASTERVARIABLES
  2
AcDbRasterVariables
  3
ISM
 90
0
 91
0
280
0
281
0
  0
CLASS
  1
ACDBPLACEHOLDER
  2
AcDbPlaceHolder
  3
ObjectDBX Classes
 90
0
 91
0
280
0
281
0
  0
CLASS
  1
LAYOUT
  2
AcDbLayout
  3
ObjectDBX Classes
 90
0
 91
0
280
0
281
0
  0
ENDSEC
  0
SECTION
  2
TABLES
  0
TABLE
  2
VPORT
  5
8
330
0
100
AcDbSymbolTable
 70
1
  0
VPORT
  5
23
330
8
100
AcDbSymbolTableRecord
100
AcDbViewportTableRecord
  2
*Active
 70
0
 10
0.0
 20
0.0
 11
1.0
 21
1.0
 12
0.0
 22
0.0
 13
0.0
 23
0.0
 14
0.5
 24
0.5
 15
0.5
 25
0.5
 16
0.0
 26
0.0
 36
1.0
 17
0.0
 27
0.0
 37
0.0
 40
1000.0
 41
1.34
 42
50.0
 43
0.0
 44
0.0
 50
0.0
 51
0.0
 71
0
 72
1000
 73
1
 74
3
 75
0
 76
0
 77
0
 78
0
281
0
 65
0
146
0.0
  0
ENDTAB
  0
TABLE
  2
LTYPE
  5
2
330
0
100
AcDbSymbolTable
 70
3
  0
LTYPE
  5
24
330
2
100
AcDbSymbolTableRecord
100
AcDbLinetypeTableRecord
  2
ByBlock
 70
0
  3

 72
65
 73
0
 40
0.0
  0
LTYPE
  5
25
330
2
100
AcDbSymbolTableRecord
100
AcDbLinetypeTableRecord
  2
ByLayer
 70
0
  3

 72
65
 73
0
 40
0.0
  0
LTYPE
  5
26
330
2
100
AcDbSymbolTableRecord
100
AcDbLinetypeTableRecord
  2
Continuous
 70
0
  3

 72
65
 73
0
 40
0.0
  0
ENDTAB
  0
TABLE
  2
LAYER
  5
1
330
0
100
AcDbSymbolTable
 70
2
  0
LAYER
  5
27
330
1
100
AcDbSymbolTableRecord
100
AcDbLayerTableRecord
  2
0
 70
0
 62
7
  6
Continuous
370
-3
390
13
347
21
  0
LAYER
  5
28
330
1
100
AcDbSymbolTableRecord
100
AcDbLayerTableRecord
  2
Defpoints
 70
0
 62
7
  6
Continuous
290
0
370
-3
390
13
347
21
  0
ENDTAB
  0
TABLE
  2
STYLE
  5
5
330
0
100
AcDbSymbolTable
 70
1
  0
STYLE
  5
29
330
5
100
AcDbSymbolTableRecord
100
AcDbTextStyleTableRecord
  2
Standard
 70
0
 40
0.0
 41
1.0
 50
0.0
 71
0
 42
2.5
  3
txt
  4

  0
ENDTAB
  0
TABLE
  2
VIEW
  5
7
330
0
100
AcDbSymbolTable
 70
0
  0
ENDTAB
  0
TABLE
  2
UCS
  5
6
330
0
100
AcDbSymbolTable
 70
0
  0
ENDTAB
  0
TABLE
  2
APPID
  5
3
330
0
100
AcDbSymbolTable
 70
3
  0
APPID
  5
2A
330
3
100
AcDbSymbolTableRecord
100
AcDbRegAppTableRecord
  2
ACAD
 70
0
  0
APPID
  5
30
330
3
100
AcDbSymbolTableRecord
100
AcDbRegAppTableRecord
  2
HATCHBACKGROUNDCOLOR
 70
0
  0
APPID
  5
31
330
3
100
AcDbSymbolTableRecord
100
AcDbRegAppTableRecord
  2
EZDXF
 70
0
  0
ENDTAB
  0
TABLE
  2
DIMSTYLE
  5
4
330
0
100
AcDbSymbolTable
 70
1
100
AcDbDimStyleTable
  0
DIMSTYLE
105
2B
330
4
100
AcDbSymbolTableRecord
100
AcDbDimStyleTableRecord
  2
Standard
 70
0
 40
1.0
 41
2.5
 42
0.625
 43
3.75
 44
1.25
 45
0.0
 46
0.0
 47
0.0
 48
0.0
 49
2.5
140
2.5
141
2.5
142
0.0
143
0.03937007874
144
1.0
145
0.0
146
1.0
147
0.625
148
0.0
 69
0
 70
0
 71
0
 72
0
 73
0
 74
0
 75
0
 76
0
 77
1
 78
8
 79
3
170
0
171
3
172
1
173
0
174
0
175
0
176
0
177
0
178
0
179
2
271
2
272
2
273
2
274
3
275
0
276
0
277
2
278
44
279
0
280
0
281
0
282
0
283
0
284
8
285
0
286
0
288
0
289
3
290
0
371
-2
372
-2
  0
ENDTAB
  0
TABLE
  2
BLOCK_RECORD
  5
9
330
0
100
AcDbSymbolTable
 70
2
  0
BLOCK_RECORD
  5
17
330
9
100
AcDbSymbolTableRecord
100
AcDbBlockTableRecord
  2
*Model_Space
340
1A
 70
0
280
1
281
0
  0
BLOCK_RECORD
  5
1B
330
9
100
AcDbSymbolTableRecord
100
AcDbBlockTableRecord
  2
*Paper_Space
340
1E
 70
0
280
1
281
0
  0
ENDTAB
  0
ENDSEC
  0
SECTION
  2
BLOCKS
  0
BLOCK
  5
18
330
17
100
AcDbEntity
  8
0
100
AcDbBlockBegin
  2
*Model_Space
 70
0
 10
0.0
 20
0.0
 30
0.0
  3
*Model_Space
  1

  0
ENDBLK
  5
19
330
17
100
AcDbEntity
  8
0
100
AcDbBlockEnd
  0
BLOCK
  5
1C
330
1B
100
AcDbEntity
  8
0
100
AcDbBlockBegin
  2
*Paper_Space
 70
0
 10
0.0
 20
0.0
 30
0.0
  3
*Paper_Space
  1

  0
ENDBLK
  5
1D
330
1B
100
AcDbEntity
  8
0
100
AcDbBlockEnd
  0
ENDSEC
  0
SECTION
  2
ENTITIES
  0
LWPOLYLINE
  5
2F
330
17
100
AcDbEntity
  8
0
100
AcDbPolyline
 90
721
 70
1
 10
78.34598516741057
 20
15.866350395002843
 10
78.34360306634407
 20
15.86670515588863
 10
78.33650344072066
 20
15.867535190197502
 10
78.32477948248425
 20
15.868372820282671
 10
78.30826785662383
 20
15.869427223912519
 10
78.28727198763539
 20
15.870396701695864
 10
78.26165183266497
 20
15.871373541241175
 10
78.23131388654184
 20
15.872216483851446
 10
78.19649172060619
 20
15.87297438360805
 10
78.15709182968732
 20
15.873505981813981
 10
78.11295080882768
 20
15.874020807259106
 10
78.06434886031265
 20
15.874333699690665
 10
78.01116914018341
 20
15.874420524585872
 10
77.95338833296745
 20
15.874398289111816
 10
77.89105306960988
 20
15.87403297893434
 10
77.82411667253461
 20
15.873558842401932
 10
77.75271925454207
 20
15.872883240884619
 10
77.67674397167343
 20
15.87198203985963
 10
77.59616750845616
 20
15.870972246494041
 10
77.51115324653229
 20
15.869644449005138
 10
77.42153773431335
 20
15.868208410197138
 10
77.32736757942907
 20
15.866430232743062
 10
77.22882969895892
 20
15.864592902065581
 10
77.12559701639206
 20
15.862506305386336
 10
77.01801985376552
 20
15.860243899338114
 10
76.90586461642367
 20
15.857756946846727
 10
76.7892480317479
 20
15.855070167470766
 10
76.66817007642275
 20
15.852183678217404
 10
76.54260741166013
 20
15.84921460326088
 10
76.41255996751367
 20
15.846163293622695
 10
76.27807435161306
 20
15.842795851975875
 10
76.13910390969761
 20
15.839346409661722
 10
75.99578866130585
 20
15.835722796078931
 10
75.84798849363742
 20
15.832017649857487
 10
75.69574994437556
 20
15.82799742469191
 10
75.53914317990292
 20
15.82392050345344
 10
75.37814481480052
 20
15.81990424433065
 10
75.21282474885514
 20
15.815597859836657
 10
75.0430194838474
 20
15.811211346790015
 10
74.86898590659004
 20
15.806676552105007
 10
74.6904670370084
 20
15.802062096896014
 10
74.50769642312719
 20
15.797416952251567
 10
74.32055719767217
 20
15.792717100656072
 10
74.12916611134021
 20
15.787987144660953
 10
73.93342961232968
 20
15.783086059583548
 10
73.73346445133743
 20
15.778038447975286
 10
73.52910713014406
 20
15.773054306654718
 10
73.3206145122468
 20
15.768065599543299
 10
73.10786973037149
 20
15.763048309125429
 10
72.89087273788715
 20
15.75800266941545
 10
72.66962341821643
 20
15.752929265449197
 10
72.44421525321454
 20
15.747969472930833
 10
72.21455464444885
 20
15.742982501192031
 10
71.98073505045923
 20
15.738109842944121
 10
71.74277967014078
 20
15.733235076055871
 10
71.50073511112332
 20
15.728124303200312
 10
71.25467144652751
 20
15.72303637527734
 10
71.00442520144946
 20
15.718181172098344
 10
70.74999625931171
 20
15.71355927869915
 10
70.49157134054451
 20
15.708844159122815
 10
70.22912703641335
 20
15.704153288565086
 10
69.96266330028722
 20
15.699486901040286
 10
69.69211006917101
 20
15.695196603085469
 10
69.41758385048132
 20
15.690697709886784
 10
69.13915476396973
 20
15.686248838329794
 10
68.85679942421733
 20
15.681967346603088
 10
68.57037762516175
 20
15.677946341365296
 10
68.28014620698484
 20
15.674117903545046
 10
67.98601159456945
 20
15.670341125466836
 10
67.68797374128468
 20
15.666616241145004
 10
67.38610272025126
 20
15.663202101479468
 10
67.08049170009765
 20
15.659631145830591
 10
66.77097720591993
 20
15.656113254009764
 10
66.4577694236392
 20
15.652814638286921
 10
66.1408682833091
 20
15.649735649683562
 10
65.82020354860053
 20
15.646618256349946
 10
65.49575178746363
 20
15.643580050488993
 10
65.16774654792299
 20
15.640670003189214
 10
64.83602430844373
 20
15.638098228276334
 10
64.50065494549725
 20
15.635514055270638
 10
64.1617551864649
 20
15.63294220373072
 10
63.81932496140032
 20
15.630383024678094
 10
63.47331752278096
 20
15.62807111748273
 10
63.12373280066032
 20
15.626006833166128
 10
62.770594040564674
 20
15.62407351558272
 10
62.41415810599127
 20
15.62220312865397
 10
62.054167946919016
 20
15.62046464451575
 10
61.6907403140448
 20
15.618882665719491
 10
61.3240619044833
 20
15.617130773315413
 10
60.953992465541276
 20
15.615302307976496
 10
60.58057880149776
 20
15.613772893755378
 10
60.20393766304967
 20
15.612567133203504
 10
59.82388192327825
 20
15.611403093962693
 10
59.4407151232569
 20
15.609978491605933
 10
59.054343907833385
 20
15.60876182283018
 10
58.66479152253384
 20
15.607636431489853
 10
58.2720345586238
 20
15.606719792780707
 10
57.876236374429865
 20
15.60580261192719
 10
57.47739692332109
 20
15.60488512294364
 10
57.075399268076794
 20
15.603943659335956
 10
56.670453664564555
 20
15.603144082352571
 10
56.26244322219468
 20
15.60246249148507
 10
55.85153132260925
 20
15.60168947495073
 10
55.43771787254631
 20
15.60082550077822
 10
55.02111964601827
 20
15.599895054511812
 10
54.60159639033185
 20
15.598991476824477
 10
54.17921824855422
 20
15.598373267594623
 10
53.75393820656702
 20
15.597665855834109
 10
53.32608345745849
 20
15.597058769285466
 10
52.895513481939595
 20
15.59603617826355
 10
52.462204847960365
 20
15.59471567497126
 10
52.0263212503896
 20
15.59349678396968
 10
51.587839280492815
 20
15.592496980454552
 10
51.14659512682383
 20
15.591317324900626
 10
50.703102749532
 20
15.58982057507916
 10
50.2570348389517
 20
15.587817788283452
 10
49.80855504332076
 20
15.585708723088912
 10
49.35752313326145
 20
15.583586603161352
 10
48.904196065532936
 20
15.581382924393568
 10
48.448526872647804
 20
15.578722881783072
 10
47.990585697673204
 20
15.57586497520828
 10
47.53032581640208
 20
15.573043687032
 10
47.067863759566464
 20
15.56967421543321
 10
46.60322277269252
 20
15.56563990426634
 10
46.136519919703844
 20
15.56157429242661
 10
45.667544734893646
 20
15.55731257173009
 10
45.19650754407587
 20
15.55302025240371
 10
44.72354819345519
 20
15.547995525459381
 10
44.24864329761256
 20
15.542355749085672
 10
43.771746178971846
 20
15.536335171631062
 10
43.2927867745379
 20
15.530285399632595
 10
42.81209208074959
 20
15.523786439453191
 10
42.32952150837146
 20
15.516322812429195
 10
41.84535571280843
 20
15.508317592608618
 10
41.359244265571675
 20
15.50030836583146
 10
40.87139729582582
 20
15.491851120945029
 10
40.381907948883885
 20
15.482478414316871
 10
39.890963351664645
 20
15.472472178305164
 10
39.398306337569615
 20
15.461901970081614
 10
38.90414730235926
 20
15.450932948851662
 10
38.408392624285476
 20
15.439424440954133
 10
37.911205778252246
 20
15.427166566577652
 10
37.41270360821833
 20
15.414183460244985
 10
36.91276915364759
 20
15.400451572469198
 10
36.41163617240398
 20
15.386018821274325
 10
35.90907081336166
 20
15.370837756664999
 10
35.40526015680844
 20
15.355190545013732
 10
34.90022754153239
 20
15.338960062146285
 10
34.394089451634585
 20
15.321561740255966
 10
33.886799209538914
 20
15.303229827691249
 10
33.37856728095217
 20
15.284129132636073
 10
32.86913649927595
 20
15.264329212262146
 10
32.35878725331936
 20
15.24364397025935
 10
31.847542835239565
 20
15.221956516467792
 10
31.335426537193637
 20
15.199149960727553
 10
30.82239163497453
 20
15.175458785401457
 10
30.308531750330307
 20
15.151023664150664
 10
29.79384681331451
 20
15.125844947996677
 10
29.278523660934667
 20
15.099595515946714
 10
28.76246867144273
 20
15.072134694339606
 10
28.245822027585508
 20
15.04336949352388
 10
27.728630696850395
 20
15.013674718502008
 10
27.21070777228347
 20
14.983377841288283
 10
26.692333712640316
 20
14.952292414551085
 10
26.17357810448103
 20
14.91945871445975
 10
25.654300985023617
 20
14.885579135038201
 10
25.134712936552255
 20
14.85081789943454
 10
24.6147435828451
 20
14.81491767784203
 10
24.094416262690153
 20
14.777761346086425
 10
23.5738948341646
 20
14.739747609678647
 10
23.05308572215125
 20
14.700735560943178
 10
22.532175740342176
 20
14.660398195894413
 10
22.011047951516698
 20
14.61871184803825
 10
21.489912937959026
 20
14.57584074052279
 10
20.968747337565603
 20
14.531902114529435
 10
20.447621120069694
 20
14.486544831549807
 10
19.926510923367744
 20
14.439886132765306
 10
19.405510392523308
 20
14.392066574829938
 10
18.884432643897924
 20
14.343413512750821
 10
18.36365144476848
 20
14.293272236513713
 10
17.84316679513498
 20
14.241642746118623
 10
17.322955402840297
 20
14.188641931725451
 10
16.80299390578089
 20
14.1343870345156
 10
16.283422626596433
 20
14.078784362794595
 10
15.764101289278194
 20
14.021927374242583
 10
15.245287107055566
 20
13.963746277673511
 10
14.727026734189185
 20
13.904006941746076
 10
14.209296855206487
 20
13.842826373627343
 10
13.692074177950317
 20
13.78032146347722
 10
13.175382017893304
 20
13.716375204128637
 10
12.659500973683809
 20
13.650800446206972
 10
12.14426743052506
 20
13.583807771566608
 10
11.629751764638925
 20
13.515654510014283
 10
11.115953592852268
 20
13.445732076227708
 10
10.603060228607609
 20
13.37432146650772
 10
10.09100179543359
 20
13.30177335133403
 10
9.579731232580922
 20
13.22771339373283
 10
9.069529185328939
 20
13.15195421031517
 10
8.560349046047932
 20
13.074729698408024
 10
8.052120461831477
 20
12.995782411197485
 10
7.545030816068537
 20
12.915392993962886
 10
7.039009779168179
 20
12.833303882883156
 10
6.534268026676465
 20
12.749678833077725
 10
6.030501691103367
 20
12.664821767073947
 10
5.52799141772822
 20
12.578545301482873
 10
5.026830468441398
 20
12.490381407636216
 10
4.5269955977167236
 20
12.400446741679538
 10
4.028533842988022
 20
12.309115757593828
 10
3.53146861298977
 20
12.21627098018334
 10
3.035823246510032
 20
12.121795285273837
 10
2.5417147740313606
 20
12.025711871330747
 10
2.0489795807569595
 20
11.928231320208447
 10
1.5576881361705994
 20
11.829610493685015
 10
1.0680507093297438
 20
11.729404678564755
 10
0.58011397781052
 20
11.62737962649919
 10
0.09383138061414947
 20
11.52376900080096
 10
-0.3907012455413918
 20
11.41870235945037
 10
-0.873597130716643
 20
11.312137431813747
 10
-1.354762513270682
 20
11.204214189509269
 10
-1.8341037015090582
 20
11.095072955176592
 10
-2.3116444407084353
 20
10.984222384674839
 10
-2.7872677237017687
 20
10.871685793476605
 10
-3.2609731206849473
 20
10.758071532889844
 10
-3.732831007879847
 20
10.643122273107819
 10
-4.202584055479748
 20
10.526767637908646
 10
-4.670466277818774
 20
10.408960996347139
 10
-5.136243660562795
 20
10.289748979368484
 10
-5.599845827489927
 20
10.169388916779422
 10
-6.061530108406905
 20
10.047951184801832
 10
-6.521062918783684
 20
9.924874063072952
 10
-6.978350137121688
 20
9.800906225540404
 10
-7.433555401533177
 20
9.676258371065737
 10
-7.886655826349667
 20
9.550205141173922
 10
-8.337300390069931
 20
9.42281648228275
 10
-8.785676046278828
 20
9.294420100420833
 10
-9.231806110448948
 20
9.165133002755251
 10
-9.67564395163511
 20
9.034721174951857
 10
-10.116978870975755
 20
8.903348255122914
 10
-10.556044882805038
 20
8.770967612323231
 10
-10.992677919206594
 20
8.637976898999215
 10
-11.426831349235238
 20
8.50414210081672
 10
-11.858481857418367
 20
8.369346210608677
 10
-12.287652759228582
 20
8.233706235542158
 10
-12.714273678444002
 20
8.097479505423898
 10
-13.138461622231695
 20
7.960642704781307
 10
-13.559935945312331
 20
7.823008450225427
 10
-13.978696647685908
 20
7.684576741756264
 10
-14.394837421046898
 20
7.545207256734145
 10
-14.808264573700832
 20
7.40504031779874
 10
-15.219048052065494
 20
7.264426946451264
 10
-15.6270941644464
 20
7.123507465331386
 10
-16.03230964895318
 20
6.981813845770814
 10
-16.4348115127529
 20
6.83932277229696
 10
-16.834225418871753
 20
6.695987184160531
 10
-17.23085532806166
 20
6.552111471917555
 10
-17.62472455579523
 20
6.407812642735104
 10
-18.015599087738305
 20
6.263137327558369
 10
-18.403455608418295
 20
6.1179685192202795
 10
-18.788341178584492
 20
5.971931880747021
 10
-19.170232052960195
 20
5.825518756279477
 10
-19.5491981779632
 20
5.679080167318865
 10
-19.92500596906345
 20
5.532054393502421
 10
-20.297772433428026
 20
5.384418119357549
 10
-20.66731018766796
 20
5.236451990163582
 10
-21.03373623895034
 20
5.088132690447927
 10
-21.39707390274776
 20
4.939577227377655
 10
-21.757136225475346
 20
4.790457894924146
 10
-22.113969838078308
 20
4.641008707421543
 10
-22.46757474055664
 20
4.491229664869846
 10
-22.81804419480071
 20
4.341588795937343
 10
-23.165120871003797
 20
4.192015724402153
 10
-23.508968837082254
 20
4.042112797817871
 10
-23.84942445492381
 20
3.8916693173229455
 10
-24.186463979251787
 20
3.7411766270582634
 10
-24.52025104817844
 20
3.5908454258853673
 10
-24.85057539264631
 20
3.4402310006085695
 10
-25.177366636433533
 20
3.2895906810346096
 10
-25.500882109346833
 20
3.1389948433853663
 10
-25.82088779705207
 20
2.9884901186060326
 10
-26.137313753131462
 20
2.8377254851953895
 10
-26.45022992400279
 20
2.6870519646546573
 10
-26.759659625138653
 20
2.536586564150904
 10
-27.065579541066455
 20
2.38621227651706
 10
-27.36787266461912
 20
2.23595241722572
 10
-27.66651568032406
 20
2.085689979109811
 10
-27.961648910820937
 20
1.9355186538638123
 10
-28.253038341775607
 20
1.7854850724329103
 10
-28.54073060413327
 20
1.6358232491512517
 10
-28.824913081282865
 20
1.4862525387395031
 10
-29.10523475172318
 20
1.3368428876154472
 10
-29.381789307148697
 20
1.1874539731394214
 10
-29.6546700094498
 20
1.0385538239797083
 10
-29.923876858626475
 20
0.8901424401363119
 10
-30.189246216566474
 20
0.7420091227476807
 10
-30.450754767797196
 20
0.5940368646467451
 10
-30.708496204013112
 20
0.44608534319383675
 10
-30.962353088243066
 20
0.29878622516950604
 10
-31.21241911218153
 20
0.1519991879340856
 10
-31.458647644883307
 20
0.005490217153431205
 10
-31.700921679181334
 20
-0.1407173716998604
 10
-31.939287846020793
 20
-0.28638956429164486
 10
-32.17369951445651
 20
-0.431760374956069
 10
-32.40417999996106
 20
-0.576712796526059
 10
-32.63075261800704
 20
-0.7211298218345429
 10
-32.85325373048221
 20
-0.8652221497430711
 10
-33.07175328380433
 20
-1.0086387587504226
 10
-33.286275023250106
 20
-1.1518709929974857
 10
-33.49679520354284
 20
-1.2944275083433763
 10
-33.70329050920994
 20
-1.4364253119551635
 10
-33.905737624778816
 20
-1.5779814109999242
 10
-34.10401954308238
 20
-1.7190724900050571
 10
-34.29827658676031
 20
-1.8596048572760917
 10
-34.48846169506333
 20
-1.9992041758392118
 10
-34.67452823704623
 20
-2.138104460028564
 10
-34.85647621270901
 20
-2.2763057098441473
 10
-35.03444594469137
 20
-2.4137142335914863
 10
-35.208180103186535
 20
-2.5504004074924613
 10
-35.37784232630677
 20
-2.6861535326855224
 10
-35.543362237830216
 20
-2.820716279363933
 10
-35.70485684492393
 20
-2.9541119630002872
 10
-35.86216250947565
 20
-3.086551282456135
 10
-36.01541955412505
 20
-3.217940546036997
 10
-36.164393964537986
 20
-3.348233122797685
 10
-36.309366385993776
 20
-3.4772416293492445
 10
-36.45012611963088
 20
-3.604802427579413
 10
-36.58674354167119
 20
-3.73117284729493
 10
-36.7192186521147
 20
-3.8563528884957954
 10
-36.84755145096141
 20
-3.980342551182011
 10
-36.97167156198944
 20
-4.102884505546834
 10
-37.09157898519879
 20
-4.223978751590266
 10
-37.20732078133872
 20
-4.343999626286119
 10
-37.318849889659994
 20
-4.462572792660581
 10
-37.4260730482722
 20
-4.58016627938194
 10
-37.529083519065715
 20
-4.696312057781909
 10
-37.627788040150165
 20
-4.811478156528773
 10
-37.72223324247075
 20
-4.925430561288392
 10
-37.81241912602746
 20
-5.038169272060763
 10
-37.898205368180626
 20
-5.149787980540363
 10
-37.97987261420959
 20
-5.260099303338241
 10
-38.05699989619534
 20
-5.369384315537823
 10
-38.12998486658429
 20
-5.477478949222754
 10
-38.1985701955697
 20
-5.584453580614915
 10
-38.262825829569366
 20
-5.689957188213091
 10
-38.32282214480515
 20
-5.794247101824019
 10
-38.378465449582585
 20
-5.897182998808032
 10
-38.429849005792065
 20
-5.998296850496845
 10
-38.477019874182844
 20
-6.0979629938642645
 10
-38.51990767853306
 20
-6.195924099103555
 10
-38.55855904978792
 20
-6.291946151880573
 10
-38.59306724983778
 20
-6.3855611235270295
 10
-38.62343227868264
 20
-6.476769014042924
 10
-38.64981777443478
 20
-6.565359124566709
 10
-38.67210630012303
 20
-6.650699788317835
 10
-38.690508124804836
 20
-6.732346292100607
 10
-38.705373410373234
 20
-6.809151879716908
 10
-38.71663135080224
 20
-6.880250870052038
 10
-38.724772000820444
 20
-6.943794463905443
 10
-38.730285415156466
 20
-6.99793386207657
 10
-38.73349715081844
 20
-7.039814261610504
 10
-38.735107101788316
 20
-7.066533798803041
 10
-38.588321052605224
 20
-7.814769597538717
 10
-38.58490882732848
 20
-7.820293969080071
 10
-38.57469546697089
 20
-7.836750076537054
 10
-38.55777423342279
 20
-7.8636698912413845
 10
-38.533631756483004
 20
-7.9030192195606865
 10
-38.50201242556119
 20
-7.95730184294866
 10
-38.464011638065216
 20
-8.020410073244975
 10
-38.42023516647848
 20
-8.0886933727978
 10
-38.37122012627885
 20
-8.160677279380403
 10
-38.31733913522378
 20
-8.23388132701167
 10
-38.25868502539956
 20
-8.307229135715362
 10
-38.195608388503274
 20
-8.380182300601309
 10
-38.128085479258274
 20
-8.45224947752863
 10
-38.056209559554915
 20
-8.522962637829036
 10
-37.9800272603384
 20
-8.592087767168385
 10
-37.89953858160874
 20
-8.659624865546677
 10
-37.814883846005564
 20
-8.725480241269432
 10
-37.72599267730703
 20
-8.789396564529916
 10
-37.63284176004052
 20
-8.851490842495195
 10
-37.53557141684571
 20
-8.911669383470798
 10
-37.43401800961035
 20
-8.970142886318271
 10
-37.328204853807016
 20
-9.026794343870542
 10
-37.21841259471505
 20
-9.081436372738658
 10
-37.104220264415446
 20
-9.134350048006048
 10
-36.986002199882016
 20
-9.185488308923427
 10
-36.86350107130803
 20
-9.234921531712677
 10
-36.73685720133314
 20
-9.28255602467932
 10
-36.60609390542995
 20
-9.328274780656287
 10
-36.47114123718068
 20
-9.372428821144789
 10
-36.33204582753051
 20
-9.414784131810684
 10
-36.188714414589064
 20
-9.455808741322262
 10
-36.04121694477413
 20
-9.495151628178304
 10
-35.889623794307575
 20
-9.533070122185553
 10
-35.73381795602234
 20
-9.56954090787141
 10
-35.57375279897323
 20
-9.60479799957002
 10
-35.40956864579992
 20
-9.638747705586907
 10
-35.24124218102982
 20
-9.671507033089142
 10
-35.068773404662906
 20
-9.703075982076724
 10
-34.891975363114334
 20
-9.733782258578277
 10
-34.71110538619084
 20
-9.763555486371915
 10
-34.52595277503088
 20
-9.792232027345381
 10
-34.33675154396859
 20
-9.819858512443862
 10
-34.14333805489172
 20
-9.846645640528905
 10
-33.94582931496733
 20
-9.872616727073108
 10
-33.74413163250095
 20
-9.897631449436807
 10
-33.53840864560484
 20
-9.921479108758446
 10
-33.32852003163932
 20
-9.944253396732506
 10
-33.11467648946597
 20
-9.96611795147125
 10
-32.8967610119177
 20
-9.987049457502081
 10
-32.6747735989945
 20
-10.007047914825
 10
-32.448784197114165
 20
-10.02576230193879
 10
-32.21890981344378
 20
-10.043215934316049
 10
-31.985033440816256
 20
-10.059385496484179
 10
-31.74722545545347
 20
-10.074528318249921
 10
-31.505485857355442
 20
-10.088644399613274
 10
-31.259907908412536
 20
-10.10126571190595
 10
-31.010561984846643
 20
-10.11264958493469
 10
-30.757354394963283
 20
-10.122655696059823
 10
-30.500261823289865
 20
-10.131401052448428
 10
-30.23940127699345
 20
-10.138908969573093
 10
-29.97479607154664
 20
-10.145062440266749
 10
-29.70642289147685
 20
-10.14997847169647
 10
-29.43428173678406
 20
-10.15365706386225
 10
-29.15839592294088
 20
-10.155981209597025
 10
-28.87885914164178
 20
-10.157091231540456
 10
-28.59567139288676
 20
-10.156987129692546
 10
-28.30873898498135
 20
-10.155528581413627
 10
-28.01824930131449
 20
-10.152996231983032
 10
-27.724108650191717
 20
-10.149249758761098
 10
-27.42629371614043
 20
-10.144406168914895
 10
-27.124944821800298
 20
-10.138371770749941
 10
-26.82013191358911
 20
-10.13079554276503
 10
-26.51178504508907
 20
-10.12202850646137
 10
-26.19974057818792
 20
-10.112281360700514
 10
-25.884372849859467
 20
-10.101507044733173
 10
-25.565494476714772
 20
-10.089424913280016
 10
-25.24312877422642
 20
-10.075917959173966
 10
-24.917463125783364
 20
-10.061266827694364
 10
-24.588357208745936
 20
-10.04556521053568
 10
-24.255857654059334
 20
-10.028579093363776
 10
-23.92008146889062
 20
-10.010331791651243
 10
-23.581051968712398
 20
-9.99070629823101
 10
-23.238699207106876
 20
-9.970053634604298
 10
-22.893069815019246
 20
-9.948139786436956
 10
-22.54411716150432
 20
-9.92519876806313
 10
-22.192145207314017
 20
-9.900926188926796
 10
-21.83689662264162
 20
-9.875392425249833
 10
-21.47848841465418
 20
-9.84862079250484
 10
-21.11701427504618
 20
-9.820751613331483
 10
-20.75240382759575
 20
-9.791527557923024
 10
-20.38472744852475
 20
-9.761205956086199
 10
-20.01412546047286
 20
-9.729693116126532
 10
-19.64041048005113
 20
-9.696708392764691
 10
-19.2638165215937
 20
-9.662298416945864
 10
-18.884273638682778
 20
-9.626814210171268
 10
-18.50178183131838
 20
-9.590255772440905
 10
-18.116341099500474
 20
-9.552623103754772
 10
-17.728138396813954
 20
-9.51358849808425
 10
-17.337220354203996
 20
-9.472917941095194
 10
-16.943376702613143
 20
-9.431056145983296
 10
-16.546841456375546
 20
-9.38804974369375
 10
-16.147544239269312
 20
-9.343641404419817
 10
-15.74564868940672
 20
-9.297620429299943
 10
-15.341084860369973
 20
-9.250337839835348
 10
-14.933923128380956
 20
-9.202050965832772
 10
-14.524093117217786
 20
-9.152502477485474
 10
-14.111664773298246
 20
-9.101341353292234
 10
-13.6968254800113
 20
-9.048848238532395
 10
-13.279551921884337
 20
-8.995140140373024
 10
-12.859610084583228
 20
-8.940170427868932
 10
-12.437374305081773
 20
-8.883892040270833
 10
-12.012774207158103
 20
-8.826047647771986
 10
-11.585809790812203
 20
-8.766637250372392
 10
-11.15657474773856
 20
-8.70580117071172
 10
-10.724952500574195
 20
-8.644124444625328
 10
-10.291130002903964
 20
-8.581279366084596
 10
-9.855083509451179
 20
-8.51677459094864
 10
-9.416789704743243
 20
-8.450727126384534
 10
-8.976482603114297
 20
-8.383183603337466
 10
-8.533951935506893
 20
-8.314588735003131
 10
-8.089361340033294
 20
-8.244731822519979
 10
-7.642710816693494
 20
-8.173612865888009
 10
-7.19404699643269
 20
-8.10099785077308
 10
-6.743346563778282
 20
-8.027003784342265
 10
-6.290796902119228
 20
-7.951911311874895
 10
-5.83621062806657
 20
-7.875439788091635
 10
-5.379868386899646
 20
-7.797401829603536
 10
-4.921746863145854
 20
-7.717914443577666
 10
-4.461822741332604
 20
-7.637094637181097
 10
-4.000002329765419
 20
-7.554802087774164
 10
-3.5366832808907156
 20
-7.4708727274405105
 10
-3.071771903014003
 20
-7.385166233540468
 10
-2.605011296132636
 20
-7.298361333603869
 10
-2.136658790053361
 20
-7.210387651408838
 10
-1.6669712847788196
 20
-7.1205664594255325
 10
-1.1956448195570841
 20
-7.0292021482099845
 10
-0.7227730860826328
 20
-6.936435040401856
 10
-0.24863672963478894
 20
-6.842077752612197
 10
0.22697494864797765
 20
-6.745966646728746
 10
0.7038279344315411
 20
-6.648148353696689
 10
1.1821324967733502
 20
-6.549067586711721
 10
1.6617249975611261
 20
-6.448513646912295
 10
2.1423718522648474
 20
-6.345924813935644
 10
2.624260014469345
 20
-6.24162879381039
 10
3.107365738897955
 20
-6.136116930677415
 10
3.5915021419122093
 20
-6.029061869529603
 10
4.076766692313172
 20
-5.9203422428883465
 10
4.563091158902421
 20
-5.8102261452197626
 10
5.050382349735998
 20
-5.69824589887706
 10
5.538640311444855
 20
-5.584401737874573
 10
6.0278412987522945
 20
-5.469185006353186
 10
6.517891713225728
 20
-5.352736494981236
 10
7.0088852698751145
 20
-5.234915998126219
 10
7.500635038431058
 20
-5.115395926766685
 10
7.993187673154224
 20
-4.994410412243944
 10
8.486543267306516
 20
-4.871959922586662
 10
8.980584790405375
 20
-4.74806765626027
 10
9.475242365979433
 20
-4.622382942785055
 10
9.970562624973885
 20
-4.495139796495157
 10
10.466404814944974
 20
-4.366852877004056
 10
10.962979728016125
 20
-4.237359014228159
 10
11.459983380119949
 20
-4.106353700604272
 10
11.957556140527055
 20
-3.9739308618412057
 10
12.455463994903289
 20
-3.840137128884152
 10
12.953847289203805
 20
-3.7050663104347548
 10
13.452682731271475
 20
-3.5686015163331075
 10
13.951759622244746
 20
-3.430906384691475
 10
14.451241600235894
 20
-3.2921916143714025
 10
14.951105419718722
 20
-3.152340549227324
 10
15.451093680940089
 20
-3.011282462015854
 10
15.951346753170593
 20
-2.869111278445803
 10
16.45179426018837
 20
-2.726084328323912
 10
16.952459970585565
 20
-2.581710384516464
 10
17.453156454342306
 20
-2.436269858288458
 10
17.953930342403748
 20
-2.2899967639740417
 10
18.454758342612806
 20
-2.1427742114133053
 10
18.955593824024252
 20
-1.9943681862721099
 10
19.45648344089878
 20
-1.8450128198917621
 10
19.957239693270058
 20
-1.694988172515765
 10
20.457933003990924
 20
-1.5440371483517104
 10
20.958516312312074
 20
-1.392534084373411
 10
21.45891962518479
 20
-1.2401277250653169
 10
21.959119650451957
 20
-1.0867011802675222
 10
22.459163019058742
 20
-0.9324884643141732
 10
22.958885523195963
 20
-0.7778865276086724
 10
23.45840423997712
 20
-0.622872405699924
 10
23.957532169186397
 20
-0.4671181585449765
 10
24.45629257966545
 20
-0.3107405592965665
 10
24.95468549472975
 20
-0.15373972496186092
 10
25.452734183220954
 20
0.0037675713064045033
 10
25.95018119875495
 20
0.16185229076594365
 10
26.447166933917835
 20
0.3204203907007814
 10
26.943597557122256
 20
0.47933225051424394
 10
27.439636823057917
 20
0.6383765863089617
 10
27.934957245660954
 20
0.7979758488725219
 10
28.429582163719495
 20
0.9580129140306961
 10
28.92374516176357
 20
1.1179260614207154
 10
29.417072216046087
 20
1.278371288135652
 10
29.909539941148047
 20
1.4394659523640865
 10
30.401405307018525
 20
1.6005309755546782
 10
30.892480743744756
 20
1.761286648485428
 10
31.382743412289194
 20
1.9224580956170279
 10
31.87209952769548
 20
2.08390546233848
 10
32.360431942903716
 20
2.2456061352201933
 10
32.847904365972575
 20
2.4073490643791198
 10
33.334422988630195
 20
2.5689945122114186
 10
33.820011056402784
 20
2.730425822571529
 10
34.304504861231656
 20
2.8918540453424963
 10
34.7878576789097
 20
3.0535136628871307
 10
35.27013943253929
 20
3.215053770711388
 10
35.751350098804885
 20
3.3764744858224307
 10
36.23127872237478
 20
3.537613457186838
 10
36.71015948079142
 20
3.698516496699627
 10
37.18768818014814
 20
3.859489164988497
 10
37.66388808928661
 20
4.020414688900707
 10
38.138875692307884
 20
4.180708500629569
 10
38.61262769705487
 20
4.340487490334986
 10
39.084863155147076
 20
4.499940562499083
 10
39.55583955959955
 20
4.6589965218498115
 10
40.025299324135354
 20
4.817727031687887
 10
40.49335950255251
 20
4.9761551734715725
 10
40.95994955542083
 20
5.1340244364443
 10
41.424952312364915
 20
5.2913123241836395
 10
41.88853148144348
 20
5.447807786806546
 10
42.3503827988034
 20
5.603816735962211
 10
42.81074044198719
 20
5.75938498354566
 10
43.269346824717864
 20
5.9145841928576095
 10
43.72634172325365
 20
6.068712905931465
 10
44.18160799053462
 20
6.221748509337633
 10
44.6352399112677
 20
6.3744388579735665
 10
45.086862728800526
 20
6.526833118717557
 10
45.53689714445635
 20
6.678041046128056
 10
45.98508554864273
 20
6.828134420512944
 10
46.431334562891934
 20
6.977581855576341
 10
46.875644140573016
 20
7.1263835853325865
 10
47.318037527212155
 20
7.274422953636114
 10
47.75863125354139
 20
7.421115158665885
 10
48.19714430123381
 20
7.56664945592554
 10
48.63374097136051
 20
7.711422327789806
 10
49.06818687653977
 20
7.855389015428167
 10
49.50052857777039
 20
7.998315855527981
 10
49.9308126593666
 20
8.13996906776944
 10
50.35899239712131
 20
8.280583134515354
 10
50.78495055071272
 20
8.420135910364795
 10
51.208850851515
 20
8.558416228427552
 10
51.63045891214646
 20
8.69537932987311
 10
52.049821886618226
 20
8.8313990836466
 10
52.46670534091768
 20
8.966430964931849
 10
52.88150732385428
 20
9.100308916690658
 10
53.293805738240714
 20
9.23270917291351
 10
53.703834854881336
 20
9.363677077466757
 10
54.11157126504167
 20
9.493330105546143
 10
54.5167339503948
 20
9.621857512655291
 10
54.91934610983599
 20
9.74914287666297
 10
55.319665306326684
 20
9.875114651275624
 10
55.71736332089786
 20
9.99958845706607
 10
56.11260383829274
 20
10.122353361158426
 10
56.505199671771734
 20
10.243738239652982
 10
56.89524458297576
 20
10.363883064167911
 10
57.28264464705555
 20
10.482648682135205
 10
57.66739977074928
 20
10.600035561583539
 10
58.04946263683745
 20
10.715670652617945
 10
58.42888042264668
 20
10.829927707176386
 10
58.80544198632146
 20
10.942645310282781
 10
59.1792177740301
 20
11.05408044072237
 10
59.55027768555943
 20
11.163882311008264
 10
59.918527749429316
 20
11.271912002586811
 10
60.283897925960055
 20
11.378521004987887
 10
60.64638814520525
 20
11.483709669232994
 10
61.00599831390301
 20
11.587478463350802
 10
61.36254062898587
 20
11.689548848190986
 10
61.71629599220337
 20
11.789732153285753
 10
62.06703056255523
 20
11.8885913860767
 10
62.414650391876826
 20
11.985987511003003
 10
62.75927255728161
 20
12.081943492515759
 10
63.10082642607753
 20
12.176203287887057
 10
63.43917141915468
 20
12.26886187589022
 10
63.7745185151603
 20
12.3600814905515
 10
64.10670317986863
 20
12.449466819567842
 10
64.43567871238797
 20
12.537252228294875
 10
64.76146835824456
 20
12.62332106058704
 10
65.08400205444327
 20
12.70802492298139
 10
65.40332636198279
 20
12.791130152165273
 10
65.71932399391046
 20
12.872614836752106
 10
66.0320181957524
 20
12.952362320596313
 10
66.34150277578046
 20
13.030512341301723
 10
66.64751993787849
 20
13.10713761523357
 10
66.9500695654691
 20
13.182238727427684
 10
67.24929212108476
 20
13.255721284146585
 10
67.54521094351358
 20
13.32746816121603
 10
67.83752209531912
 20
13.397783632184884
 10
68.12634057853774
 20
13.466701075142103
 10
68.41173860118812
 20
13.533858118891272
 10
68.69357472148792
 20
13.59935407147089
 10
68.97180226186096
 20
13.663423181229426
 10
69.24658497699687
 20
13.725854164269498
 10
69.51771167840921
 20
13.786485839629353
 10
69.78525285889724
 20
13.845574952079904
 10
70.04918513304185
 20
13.903238859809704
 10
70.30939123720586
 20
13.959455534425015
 10
70.56591773238804
 20
14.013991312613186
 10
70.81874118653838
 20
14.06696378657712
 10
71.06781492208079
 20
14.118607204665304
 10
71.31316216122597
 20
14.168805027739335
 10
71.55471229459727
 20
14.217301096064128
 10
71.79246520561738
 20
14.264095994675538
 10
72.02644480277125
 20
14.309680248664264
 10
72.2565570912633
 20
14.353915056483823
 10
72.48280204777802
 20
14.396800535141374
 10
72.70520287121072
 20
14.438220262505684
 10
72.9236423212395
 20
14.478152093175824
 10
73.13823749829336
 20
14.516618874595723
 10
73.34882455442082
 20
14.553832358691437
 10
73.55545000398969
 20
14.589559116164654
 10
73.75806716942384
 20
14.624033395363854
 10
73.9568398287283
 20
14.657043795384482
 10
74.15148687031436
 20
14.688780039758836
 10
74.3421021257693
 20
14.719381749083578
 10
74.52859164692848
 20
14.748709887797883
 10
74.71109589632437
 20
14.776670062164266
 10
74.88945079285072
 20
14.803475194180457
 10
75.0638199979353
 20
14.828914467977734
 10
75.23390055339146
 20
14.853287242803942
 10
75.39994829683572
 20
14.87653063089589
 10
75.56172944708868
 20
14.898596831236718
 10
75.7193611512102
 20
14.919508457256018
 10
75.87284336256937
 20
14.939265742968127
 10
76.02215269574715
 20
14.957986046561611
 10
76.16719524920984
 20
14.975530098461316
 10
76.30792429875035
 20
14.99213238103005
 10
76.44448037684762
 20
15.007698149508828
 10
76.57672285776077
 20
15.022322616685303
 10
76.70467503364698
 20
15.035888892399567
 10
76.82831356571818
 20
15.04851410082587
 10
76.94766169950053
 20
15.060081585818626
 10
77.06269609620595
 20
15.070708471552082
 10
77.17337010157382
 20
15.080628889367548
 10
77.27961305959656
 20
15.08958691354429
 10
77.38163608881422
 20
15.097744076065558
 10
77.47906415278884
 20
15.105150947895659
 10
77.57227221801193
 20
15.11175730909179
 10
77.66102580383996
 20
15.117518868852104
 10
77.74527825601226
 20
15.122669758517912
 10
77.82517008369223
 20
15.1271153503374
 10
77.90058402324266
 20
15.13083361591681
 10
77.9714734437183
 20
15.134058569590287
 10
78.03800214643975
 20
15.136578693446113
 10
78.10000628345553
 20
15.138605739410343
 10
78.15750912360721
 20
15.140022934330231
 10
78.21046403594968
 20
15.141064292539928
 10
78.25889433595546
 20
15.141612806872358
 10
78.3028938785274
 20
15.141807980917022
 10
78.34222820633732
 20
15.141605406864898
 10
78.37699124423447
 20
15.14114423728399
 10
78.40730018590969
 20
15.140446851589555
 10
78.43292057403485
 20
15.139468841972572
 10
78.4539229713556
 20
15.138466602182447
 10
78.4704479802973
 20
15.137345036438699
 10
78.48221441932478
 20
15.136294219295127
 10
78.48931628323355
 20
15.135452952298214
 10
78.4917068711321
 20
15.135055600803616
  0
ENDSEC
  0
SECTION
  2
OBJECTS
  0
DICTIONARY
  5
A
330
0
100
AcDbDictionary
280
0
281
1
  3
ACAD_COLOR
350
B
  3
ACAD_GROUP
350
C
  3
ACAD_LAYOUT
350
D
  3
ACAD_MATERIAL
350
E
  3
ACAD_MLEADERSTYLE
350
F
  3
ACAD_MLINESTYLE
350
10
  3
ACAD_PLOTSETTINGS
350
11
  3
ACAD_PLOTSTYLENAME
350
12
  3
ACAD_SCALELIST
350
14
  3
ACAD_TABLESTYLE
350
15
  3
ACAD_VISUALSTYLE
350
16
  3
EZDXF_META
350
2D
  0
DICTIONARY
  5
B
330
A
100
AcDbDictionary
280
0
281
1
  0
DICTIONARY
  5
C
330
A
100
AcDbDictionary
280
0
281
1
  0
DICTIONARY
  5
D
330
A
100
AcDbDictionary
280
0
281
1
  3
Model
350
1A
  3
Layout1
350
1E
  0
DICTIONARY
  5
E
330
A
100
AcDbDictionary
280
0
281
1
  3
ByBlock
350
1F
  3
ByLayer
350
20
  3
Global
350
21
  0
DICTIONARY
  5
F
330
A
100
AcDbDictionary
280
0
281
1
  3
Standard
350
2C
  0
DICTIONARY
  5
10
330
A
100
AcDbDictionary
280
0
281
1
  3
Standard
350
22
  0
DICTIONARY
  5
11
330
A
100
AcDbDictionary
280
0
281
1
  0
ACDBDICTIONARYWDFLT
  5
12
330
A
100
AcDbDictionary
280
0
281
1
  3
Normal
350
13
100
AcDbDictionaryWithDefault
340
13
  0
ACDBPLACEHOLDER
  5
13
330
12
  0
DICTIONARY
  5
14
330
A
100
AcDbDictionary
280
0
281
1
  0
DICTIONARY
  5
15
330
A
100
AcDbDictionary
280
0
281
1
  0
DICTIONARY
  5
16
330
A
100
AcDbDictionary
280
0
281
1
  0
LAYOUT
  5
1A
330
D
100
AcDbPlotSettings
  1

  4
A3
  6

 40
7.5
 41
20.0
 42
7.5
 43
20.0
 44
420.0
 45
297.0
 46
0.0
 47
0.0
 48
0.0
 49
0.0
140
0.0
141
0.0
142
1.0
143
1.0
 70
1024
 72
1
 73
0
 74
5
  7

 75
16
 76
0
 77
2
 78
300
147
1.0
148
0.0
149
0.0
100
AcDbLayout
  1
Model
 70
1
 71
0
 10
0.0
 20
0.0
 11
420.0
 21
297.0
 12
0.0
 22
0.0
 32
0.0
 14
1e+20
 24
1e+20
 34
1e+20
 15
-1e+20
 25
-1e+20
 35
-1e+20
146
0.0
 13
0.0
 23
0.0
 33
0.0
 16
1.0
 26
0.0
 36
0.0
 17
0.0
 27
1.0
 37
0.0
 76
1
330
17
  0
LAYOUT
  5
1E
330
D
100
AcDbPlotSettings
  1

  4
A3
  6

 40
7.5
 41
20.0
 42
7.5
 43
20.0
 44
420.0
 45
297.0
 46
0.0
 47
0.0
 48
0.0
 49
0.0
140
0.0
141
0.0
142
1.0
143
1.0
 70
0
 72
1
 73
0
 74
5
  7

 75
16
 76
0
 77
2
 78
300
147
1.0
148
0.0
149
0.0
100
AcDbLayout
  1
Layout1
 70
1
 71
1
 10
0.0
 20
0.0
 11
420.0
 21
297.0
 12
0.0
 22
0.0
 32
0.0
 14
1e+20
 24
1e+20
 34
1e+20
 15
-1e+20
 25
-1e+20
 35
-1e+20
146
0.0
 13
0.0
 23
0.0
 33
0.0
 16
1.0
 26
0.0
 36
0.0
 17
0.0
 27
1.0
 37
0.0
 76
1
330
1B
  0
MATERIAL
  5
1F
102
{ACAD_REACTORS
330
E
102
}
330
E
100
AcDbMaterial
  1
ByBlock
  2

 70
0
 40
1.0
 71
1
 41
1.0
 91
-1023410177
 42
1.0
 72
1
  3

 73
1
 74
1
 75
1
 44
0.5
 73
0
 45
1.0
 46
1.0
 77
1
  4

 78
1
 79
1
170
1
 48
1.0
171
1
  6

172
1
173
1
174
1
140
1.0
141
1.0
175
1
  7

176
1
177
1
178
1
143
1.0
179
1
  8

270
1
271
1
272
1
145
1.0
146
1.0
273
1
  9

274
1
275
1
276
1
 42
1.0
 72
1
  3

 73
1
 74
1
 75
1
 94
63
  0
MATERIAL
  5
20
102
{ACAD_REACTORS
330
E
102
}
330
E
100
AcDbMaterial
  1
ByLayer
  2

 70
0
 40
1.0
 71
1
 41
1.0
 91
-1023410177
 42
1.0
 72
1
  3

 73
1
 74
1
 75
1
 44
0.5
 73
0
 45
1.0
 46
1.0
 77
1
  4

 78
1
 79
1
170
1
 48
1.0
171
1
  6

172
1
173
1
174
1
140
1.0
141
1.0
175
1
  7

176
1
177
1
178
1
143
1.0
179
1
  8

270
1
271
1
272
1
145
1.0
146
1.0
273
1
  9

274
1
275
1
276
1
 42
1.0
 72
1
  3

 73
1
 74
1
 75
1
 94
63
  0
MATERIAL
  5
21
102
{ACAD_REACTORS
330
E
102
}
330
E
100
AcDbMaterial
  1
Global
  2

 70
0
 40
1.0
 71
1
 41
1.0
 91
-1023410177
 42
1.0
 72
1
  3

 73
1
 74
1
 75
1
 44
0.5
 73
0
 45
1.0
 46
1.0
 77
1
  4

 78
1
 79
1
170
1
 48
1.0
171
1
  6

172
1
173
1
174
1
140
1.0
141
1.0
175
1
  7

176
1
177
1
178
1
143
1.0
179
1
  8

270
1
271
1
272
1
145
1.0
146
1.0
273
1
  9

274
1
275
1
276
1
 42
1.0
 72
1
  3

 73
1
 74
1
 75
1
 94
63
  0
MLINESTYLE
  5
22
102
{ACAD_REACTORS
330
10
102
}
330
10
100
AcDbMlineStyle
  2
Standard
 70
0
  3

 62
256
 51
90.0
 52
90.0
 71
2
 49
0.5
 62
256
  6
BYLAYER
 49
-0.5
 62
256
  6
BYLAYER
  0
MLEADERSTYLE
  5
2C
102
{ACAD_REACTORS
330
F
102
}
330
F
100
AcDbMLeaderStyle
179
2
170
2
171
1
172
0
 90
2
 40
0.0
 41
0.0
173
1
 91
-1056964608
 92
-2
290
1
 42
2.0
291
1
 43
8.0
  3
Standard
 44
4.0
300

342
29
174
1
175
1
176
0
178
1
 93
-1056964608
 45
4.0
292
0
297
0
 46
4.0
 94
-1056964608
 47
1.0
 49
1.0
140
1.0
294
1
141
0.0
177
0
142
1.0
295
0
296
0
143
3.75
271
0
272
9
273
9
  0
DICTIONARY
  5
2D
330
A
100
AcDbDictionary
280
1
281
1
  3
CREATED_BY_EZDXF
350
2E
  3
WRITTEN_BY_EZDXF
350
32
  0
DICTIONARYVAR
  5
2E
330
2D
100
DictionaryVariables
280
0
  1
1.3.5 @ 2025-08-20T01:59:29.713034+00:00
  0
DICTIONARYVAR
  5
32
330
2D
100
DictionaryVariables
280
0
  1
1.3.5 @ 2025-08-20T01:59:29.718997+00:00
  0
ENDSEC
  0
EOF
