  0
SECTION
  2
HEADER
  9
$ACADVER
  1
AC1032
  9
$ACADMAINTVER
 90
4
  9
$DWGCODEPAGE
  3
ANSI_1252
  9
$LASTSAVEDBY
  1
ezdxf
  9
$REQUIREDVERSIONS
160
0
  9
$INSBASE
 10
0.0
 20
0.0
 30
0.0
  9
$EXTMIN
 10
1e+20
 20
1e+20
 30
1e+20
  9
$EXTMAX
 10
-1e+20
 20
-1e+20
 30
-1e+20
  9
$LIMMIN
 10
0.0
 20
0.0
  9
$LIMMAX
 10
420.0
 20
297.0
  9
$ORTHOMODE
 70
0
  9
$REGENMODE
 70
1
  9
$FILLMODE
 70
1
  9
$QTEXTMODE
 70
0
  9
$MIRRTEXT
 70
1
  9
$LTSCALE
 40
1.0
  9
$ATTMODE
 70
1
  9
$TEXTSIZE
 40
2.5
  9
$TRACEWID
 40
1.0
  9
$TEXTSTYLE
  7
Standard
  9
$CLAYER
  8
0
  9
$CELTYPE
  6
ByLayer
  9
$CECOLOR
 62
256
  9
$CELTSCALE
 40
1.0
  9
$DISPSILH
 70
0
  9
$DIMSCALE
 40
1.0
  9
$DIMASZ
 40
2.5
  9
$DIMEXO
 40
0.625
  9
$DIMDLI
 40
3.75
  9
$DIMRND
 40
0.0
  9
$DIMDLE
 40
0.0
  9
$DIMEXE
 40
1.25
  9
$DIMTP
 40
0.0
  9
$DIMTM
 40
0.0
  9
$DIMTXT
 40
2.5
  9
$DIMCEN
 40
2.5
  9
$DIMTSZ
 40
0.0
  9
$DIMTOL
 70
0
  9
$DIMLIM
 70
0
  9
$DIMTIH
 70
0
  9
$DIMTOH
 70
0
  9
$DIMSE1
 70
0
  9
$DIMSE2
 70
0
  9
$DIMTAD
 70
1
  9
$DIMZIN
 70
8
  9
$DIMBLK
  1

  9
$DIMASO
 70
1
  9
$DIMSHO
 70
1
  9
$DIMPOST
  1

  9
$DIMAPOST
  1

  9
$DIMALT
 70
0
  9
$DIMALTD
 70
3
  9
$DIMALTF
 40
0.03937007874
  9
$DIMLFAC
 40
1.0
  9
$DIMTOFL
 70
1
  9
$DIMTVP
 40
0.0
  9
$DIMTIX
 70
0
  9
$DIMSOXD
 70
0
  9
$DIMSAH
 70
0
  9
$DIMBLK1
  1

  9
$DIMBLK2
  1

  9
$DIMSTYLE
  2
ISO-25
  9
$DIMCLRD
 70
0
  9
$DIMCLRE
 70
0
  9
$DIMCLRT
 70
0
  9
$DIMTFAC
 40
1.0
  9
$DIMGAP
 40
0.625
  9
$DIMJUST
 70
0
  9
$DIMSD1
 70
0
  9
$DIMSD2
 70
0
  9
$DIMTOLJ
 70
0
  9
$DIMTZIN
 70
8
  9
$DIMALTZ
 70
0
  9
$DIMALTTZ
 70
0
  9
$DIMUPT
 70
0
  9
$DIMDEC
 70
2
  9
$DIMTDEC
 70
2
  9
$DIMALTU
 70
2
  9
$DIMALTTD
 70
3
  9
$DIMTXSTY
  7
Standard
  9
$DIMAUNIT
 70
0
  9
$DIMADEC
 70
0
  9
$DIMALTRND
 40
0.0
  9
$DIMAZIN
 70
0
  9
$DIMDSEP
 70
44
  9
$DIMATFIT
 70
3
  9
$DIMFRAC
 70
0
  9
$DIMLDRBLK
  1

  9
$DIMLUNIT
 70
2
  9
$DIMLWD
 70
-2
  9
$DIMLWE
 70
-2
  9
$DIMTMOVE
 70
0
  9
$DIMFXL
 40
1.0
  9
$DIMFXLON
 70
0
  9
$DIMJOGANG
 40
0.785398163397
  9
$DIMTFILL
 70
0
  9
$DIMTFILLCLR
 70
0
  9
$DIMARCSYM
 70
0
  9
$DIMLTYPE
  6

  9
$DIMLTEX1
  6

  9
$DIMLTEX2
  6

  9
$DIMTXTDIRECTION
 70
0
  9
$LUNITS
 70
2
  9
$LUPREC
 70
4
  9
$SKETCHINC
 40
1.0
  9
$FILLETRAD
 40
10.0
  9
$AUNITS
 70
0
  9
$AUPREC
 70
2
  9
$MENU
  1
.
  9
$ELEVATION
 40
0.0
  9
$PELEVATION
 40
0.0
  9
$THICKNESS
 40
0.0
  9
$LIMCHECK
 70
0
  9
$CHAMFERA
 40
0.0
  9
$CHAMFERB
 40
0.0
  9
$CHAMFERC
 40
0.0
  9
$CHAMFERD
 40
0.0
  9
$SKPOLY
 70
0
  9
$TDCREATE
 40
2460908.124641204
  9
$TDUCREATE
 40
2458532.153996898
  9
$TDUPDATE
 40
2460908.124641204
  9
$TDUUPDATE
 40
2458532.1544311
  9
$TDINDWG
 40
0.0
  9
$TDUSRTIMER
 40
0.0
  9
$USRTIMER
 70
1
  9
$ANGBASE
 50
0.0
  9
$ANGDIR
 70
0
  9
$PDMODE
 70
0
  9
$PDSIZE
 40
0.0
  9
$PLINEWID
 40
0.0
  9
$SPLFRAME
 70
0
  9
$SPLINETYPE
 70
6
  9
$SPLINESEGS
 70
8
  9
$HANDSEED
  5
33
  9
$SURFTAB1
 70
6
  9
$SURFTAB2
 70
6
  9
$SURFTYPE
 70
6
  9
$SURFU
 70
6
  9
$SURFV
 70
6
  9
$UCSBASE
  2

  9
$UCSNAME
  2

  9
$UCSORG
 10
0.0
 20
0.0
 30
0.0
  9
$UCSXDIR
 10
1.0
 20
0.0
 30
0.0
  9
$UCSYDIR
 10
0.0
 20
1.0
 30
0.0
  9
$UCSORTHOREF
  2

  9
$UCSORTHOVIEW
 70
0
  9
$UCSORGTOP
 10
0.0
 20
0.0
 30
0.0
  9
$UCSORGBOTTOM
 10
0.0
 20
0.0
 30
0.0
  9
$UCSORGLEFT
 10
0.0
 20
0.0
 30
0.0
  9
$UCSORGRIGHT
 10
0.0
 20
0.0
 30
0.0
  9
$UCSORGFRONT
 10
0.0
 20
0.0
 30
0.0
  9
$UCSORGBACK
 10
0.0
 20
0.0
 30
0.0
  9
$PUCSBASE
  2

  9
$PUCSNAME
  2

  9
$PUCSORG
 10
0.0
 20
0.0
 30
0.0
  9
$PUCSXDIR
 10
1.0
 20
0.0
 30
0.0
  9
$PUCSYDIR
 10
0.0
 20
1.0
 30
0.0
  9
$PUCSORTHOREF
  2

  9
$PUCSORTHOVIEW
 70
0
  9
$PUCSORGTOP
 10
0.0
 20
0.0
 30
0.0
  9
$PUCSORGBOTTOM
 10
0.0
 20
0.0
 30
0.0
  9
$PUCSORGLEFT
 10
0.0
 20
0.0
 30
0.0
  9
$PUCSORGRIGHT
 10
0.0
 20
0.0
 30
0.0
  9
$PUCSORGFRONT
 10
0.0
 20
0.0
 30
0.0
  9
$PUCSORGBACK
 10
0.0
 20
0.0
 30
0.0
  9
$USERI1
 70
0
  9
$USERI2
 70
0
  9
$USERI3
 70
0
  9
$USERI4
 70
0
  9
$USERI5
 70
0
  9
$USERR1
 40
0.0
  9
$USERR2
 40
0.0
  9
$USERR3
 40
0.0
  9
$USERR4
 40
0.0
  9
$USERR5
 40
0.0
  9
$WORLDVIEW
 70
1
  9
$SHADEDGE
 70
3
  9
$SHADEDIF
 70
70
  9
$TILEMODE
 70
1
  9
$MAXACTVP
 70
64
  9
$PINSBASE
 10
0.0
 20
0.0
 30
0.0
  9
$PLIMCHECK
 70
0
  9
$PEXTMIN
 10
1e+20
 20
1e+20
 30
1e+20
  9
$PEXTMAX
 10
-1e+20
 20
-1e+20
 30
-1e+20
  9
$PLIMMIN
 10
0.0
 20
0.0
  9
$PLIMMAX
 10
420.0
 20
297.0
  9
$UNITMODE
 70
0
  9
$VISRETAIN
 70
1
  9
$PLINEGEN
 70
0
  9
$PSLTSCALE
 70
1
  9
$TREEDEPTH
 70
3020
  9
$CMLSTYLE
  2
Standard
  9
$CMLJUST
 70
0
  9
$CMLSCALE
 40
20.0
  9
$PROXYGRAPHICS
 70
1
  9
$MEASUREMENT
 70
1
  9
$CELWEIGHT
370
-1
  9
$ENDCAPS
280
0
  9
$JOINSTYLE
280
0
  9
$LWDISPLAY
290
0
  9
$INSUNITS
 70
6
  9
$HYPERLINKBASE
  1

  9
$STYLESHEET
  1

  9
$XEDIT
290
1
  9
$CEPSNTYPE
380
0
  9
$PSTYLEMODE
290
1
  9
$FINGERPRINTGUID
  2
{1BDD0245-C68F-409C-A532-4126534C7EE3}
  9
$VERSIONGUID
  2
{676914D4-589A-4670-8635-CC8B6650C74D}
  9
$EXTNAMES
290
1
  9
$PSVPSCALE
 40
0.0
  9
$OLESTARTUP
290
0
  9
$SORTENTS
280
127
  9
$INDEXCTL
280
0
  9
$HIDETEXT
280
1
  9
$XCLIPFRAME
280
1
  9
$HALOGAP
280
0
  9
$OBSCOLOR
 70
257
  9
$OBSLTYPE
280
0
  9
$INTERSECTIONDISPLAY
280
0
  9
$INTERSECTIONCOLOR
 70
257
  9
$DIMASSOC
280
2
  9
$PROJECTNAME
  1

  9
$CAMERADISPLAY
290
0
  9
$LENSLENGTH
 40
50.0
  9
$CAMERAHEIGHT
 40
0.0
  9
$STEPSPERSEC
 40
24.0
  9
$STEPSIZE
 40
100.0
  9
$3DDWFPREC
 40
2.0
  9
$PSOLWIDTH
 40
0.005
  9
$PSOLHEIGHT
 40
0.08
  9
$LOFTANG1
 40
1.570796326795
  9
$LOFTANG2
 40
1.570796326795
  9
$LOFTMAG1
 40
0.0
  9
$LOFTMAG2
 40
0.0
  9
$LOFTPARAM
 70
7
  9
$LOFTNORMALS
280
1
  9
$LATITUDE
 40
37.795
  9
$LONGITUDE
 40
-122.394
  9
$NORTHDIRECTION
 40
0.0
  9
$TIMEZONE
 70
-8000
  9
$LIGHTGLYPHDISPLAY
280
1
  9
$TILEMODELIGHTSYNCH
280
1
  9
$CMATERIAL
347
20
  9
$SOLIDHIST
280
0
  9
$SHOWHIST
280
1
  9
$DWFFRAME
280
2
  9
$DGNFRAME
280
2
  9
$REALWORLDSCALE
290
1
  9
$INTERFERECOLOR
 62
256
  9
$CSHADOW
280
0
  9
$SHADOWPLANELOCATION
 40
0.0
  0
ENDSEC
  0
SECTION
  2
CLASSES
  0
CLASS
  1
ACDBDICTIONARYWDFLT
  2
AcDbDictionaryWithDefault
  3
ObjectDBX Classes
 90
0
 91
0
280
0
281
0
  0
CLASS
  1
SUN
  2
AcDbSun
  3
SCENEOE
 90
1153
 91
0
280
0
281
0
  0
CLASS
  1
VISUALSTYLE
  2
AcDbVisualStyle
  3
ObjectDBX Classes
 90
4095
 91
0
280
0
281
0
  0
CLASS
  1
MATERIAL
  2
AcDbMaterial
  3
ObjectDBX Classes
 90
1153
 91
0
280
0
281
0
  0
CLASS
  1
SCALE
  2
AcDbScale
  3
ObjectDBX Classes
 90
1153
 91
0
280
0
281
0
  0
CLASS
  1
TABLESTYLE
  2
AcDbTableStyle
  3
ObjectDBX Classes
 90
4095
 91
0
280
0
281
0
  0
CLASS
  1
MLEADERSTYLE
  2
AcDbMLeaderStyle
  3
ACDB_MLEADERSTYLE_CLASS
 90
4095
 91
0
280
0
281
0
  0
CLASS
  1
DICTIONARYVAR
  2
AcDbDictionaryVar
  3
ObjectDBX Classes
 90
0
 91
0
280
0
281
0
  0
CLASS
  1
CELLSTYLEMAP
  2
AcDbCellStyleMap
  3
ObjectDBX Classes
 90
1152
 91
0
280
0
281
0
  0
CLASS
  1
MENTALRAYRENDERSETTINGS
  2
AcDbMentalRayRenderSettings
  3
SCENEOE
 90
1024
 91
0
280
0
281
0
  0
CLASS
  1
ACDBDETAILVIEWSTYLE
  2
AcDbDetailViewStyle
  3
ObjectDBX Classes
 90
1025
 91
0
280
0
281
0
  0
CLASS
  1
ACDBSECTIONVIEWSTYLE
  2
AcDbSectionViewStyle
  3
ObjectDBX Classes
 90
1025
 91
0
280
0
281
0
  0
CLASS
  1
RASTERVARIABLES
  2
AcDbRasterVariables
  3
ISM
 90
0
 91
0
280
0
281
0
  0
CLASS
  1
ACDBPLACEHOLDER
  2
AcDbPlaceHolder
  3
ObjectDBX Classes
 90
0
 91
0
280
0
281
0
  0
CLASS
  1
LAYOUT
  2
AcDbLayout
  3
ObjectDBX Classes
 90
0
 91
0
280
0
281
0
  0
ENDSEC
  0
SECTION
  2
TABLES
  0
TABLE
  2
VPORT
  5
8
330
0
100
AcDbSymbolTable
 70
1
  0
VPORT
  5
23
330
8
100
AcDbSymbolTableRecord
100
AcDbViewportTableRecord
  2
*Active
 70
0
 10
0.0
 20
0.0
 11
1.0
 21
1.0
 12
0.0
 22
0.0
 13
0.0
 23
0.0
 14
0.5
 24
0.5
 15
0.5
 25
0.5
 16
0.0
 26
0.0
 36
1.0
 17
0.0
 27
0.0
 37
0.0
 40
1000.0
 41
1.34
 42
50.0
 43
0.0
 44
0.0
 50
0.0
 51
0.0
 71
0
 72
1000
 73
1
 74
3
 75
0
 76
0
 77
0
 78
0
281
0
 65
0
146
0.0
  0
ENDTAB
  0
TABLE
  2
LTYPE
  5
2
330
0
100
AcDbSymbolTable
 70
3
  0
LTYPE
  5
24
330
2
100
AcDbSymbolTableRecord
100
AcDbLinetypeTableRecord
  2
ByBlock
 70
0
  3

 72
65
 73
0
 40
0.0
  0
LTYPE
  5
25
330
2
100
AcDbSymbolTableRecord
100
AcDbLinetypeTableRecord
  2
ByLayer
 70
0
  3

 72
65
 73
0
 40
0.0
  0
LTYPE
  5
26
330
2
100
AcDbSymbolTableRecord
100
AcDbLinetypeTableRecord
  2
Continuous
 70
0
  3

 72
65
 73
0
 40
0.0
  0
ENDTAB
  0
TABLE
  2
LAYER
  5
1
330
0
100
AcDbSymbolTable
 70
2
  0
LAYER
  5
27
330
1
100
AcDbSymbolTableRecord
100
AcDbLayerTableRecord
  2
0
 70
0
 62
7
  6
Continuous
370
-3
390
13
347
21
  0
LAYER
  5
28
330
1
100
AcDbSymbolTableRecord
100
AcDbLayerTableRecord
  2
Defpoints
 70
0
 62
7
  6
Continuous
290
0
370
-3
390
13
347
21
  0
ENDTAB
  0
TABLE
  2
STYLE
  5
5
330
0
100
AcDbSymbolTable
 70
1
  0
STYLE
  5
29
330
5
100
AcDbSymbolTableRecord
100
AcDbTextStyleTableRecord
  2
Standard
 70
0
 40
0.0
 41
1.0
 50
0.0
 71
0
 42
2.5
  3
txt
  4

  0
ENDTAB
  0
TABLE
  2
VIEW
  5
7
330
0
100
AcDbSymbolTable
 70
0
  0
ENDTAB
  0
TABLE
  2
UCS
  5
6
330
0
100
AcDbSymbolTable
 70
0
  0
ENDTAB
  0
TABLE
  2
APPID
  5
3
330
0
100
AcDbSymbolTable
 70
3
  0
APPID
  5
2A
330
3
100
AcDbSymbolTableRecord
100
AcDbRegAppTableRecord
  2
ACAD
 70
0
  0
APPID
  5
30
330
3
100
AcDbSymbolTableRecord
100
AcDbRegAppTableRecord
  2
HATCHBACKGROUNDCOLOR
 70
0
  0
APPID
  5
31
330
3
100
AcDbSymbolTableRecord
100
AcDbRegAppTableRecord
  2
EZDXF
 70
0
  0
ENDTAB
  0
TABLE
  2
DIMSTYLE
  5
4
330
0
100
AcDbSymbolTable
 70
1
100
AcDbDimStyleTable
  0
DIMSTYLE
105
2B
330
4
100
AcDbSymbolTableRecord
100
AcDbDimStyleTableRecord
  2
Standard
 70
0
 40
1.0
 41
2.5
 42
0.625
 43
3.75
 44
1.25
 45
0.0
 46
0.0
 47
0.0
 48
0.0
 49
2.5
140
2.5
141
2.5
142
0.0
143
0.03937007874
144
1.0
145
0.0
146
1.0
147
0.625
148
0.0
 69
0
 70
0
 71
0
 72
0
 73
0
 74
0
 75
0
 76
0
 77
1
 78
8
 79
3
170
0
171
3
172
1
173
0
174
0
175
0
176
0
177
0
178
0
179
2
271
2
272
2
273
2
274
3
275
0
276
0
277
2
278
44
279
0
280
0
281
0
282
0
283
0
284
8
285
0
286
0
288
0
289
3
290
0
371
-2
372
-2
  0
ENDTAB
  0
TABLE
  2
BLOCK_RECORD
  5
9
330
0
100
AcDbSymbolTable
 70
2
  0
BLOCK_RECORD
  5
17
330
9
100
AcDbSymbolTableRecord
100
AcDbBlockTableRecord
  2
*Model_Space
340
1A
 70
0
280
1
281
0
  0
BLOCK_RECORD
  5
1B
330
9
100
AcDbSymbolTableRecord
100
AcDbBlockTableRecord
  2
*Paper_Space
340
1E
 70
0
280
1
281
0
  0
ENDTAB
  0
ENDSEC
  0
SECTION
  2
BLOCKS
  0
BLOCK
  5
18
330
17
100
AcDbEntity
  8
0
100
AcDbBlockBegin
  2
*Model_Space
 70
0
 10
0.0
 20
0.0
 30
0.0
  3
*Model_Space
  1

  0
ENDBLK
  5
19
330
17
100
AcDbEntity
  8
0
100
AcDbBlockEnd
  0
BLOCK
  5
1C
330
1B
100
AcDbEntity
  8
0
100
AcDbBlockBegin
  2
*Paper_Space
 70
0
 10
0.0
 20
0.0
 30
0.0
  3
*Paper_Space
  1

  0
ENDBLK
  5
1D
330
1B
100
AcDbEntity
  8
0
100
AcDbBlockEnd
  0
ENDSEC
  0
SECTION
  2
ENTITIES
  0
LWPOLYLINE
  5
2F
330
17
100
AcDbEntity
  8
0
100
AcDbPolyline
 90
721
 70
1
 10
81.08220045905848
 20
47.69198608948792
 10
81.07941417294901
 20
47.69146743947832
 10
81.07119706261793
 20
47.689668768031346
 10
81.05783212843741
 20
47.68610548098689
 10
81.03905744498846
 20
47.68094767797566
 10
81.01532627232324
 20
47.67397603548746
 10
80.98644741741496
 20
47.66523953492286
 10
80.95237101041504
 20
47.654545163701
 10
80.91333818500199
 20
47.64203683176271
 10
80.86929907132725
 20
47.627521526527175
 10
80.81999153156217
 20
47.61116971134347
 10
80.76579830577623
 20
47.59288281721317
 10
80.7065986501222
 20
47.57258919226458
 10
80.64232176140457
 20
47.55041007596727
 10
80.5731092460143
 20
47.526102989382025
 10
80.49881935595407
 20
47.49991065392703
 10
80.41964349666017
 20
47.471783724483316
 10
80.3354609242854
 20
47.441650549179165
 10
80.24620083563427
 20
47.40963236748419
 10
80.15212529773216
 20
47.37555883728878
 10
80.05297203114411
 20
47.339600664420935
 10
79.94888257145783
 20
47.30151549118091
 10
79.83995637515777
 20
47.261689827688244
 10
79.72590243871674
 20
47.219786751421275
 10
79.60708235644782
 20
47.17602230915043
 10
79.48325492386923
 20
47.13025271217439
 10
79.35454053081226
 20
47.0825502185622
 10
79.22093910647371
 20
47.032914949553344
 10
79.08237977685494
 20
46.981468265856925
 10
78.9388623295464
 20
46.92821053119136
 10
78.79052830013572
 20
46.87289938785685
 10
78.63723601142884
 20
46.8157774360321
 10
78.4791765856493
 20
46.75679581555607
 10
78.31615861736081
 20
46.69600387154772
 10
78.14832342974142
 20
46.63315961002562
 10
77.97565001864116
 20
46.56857740427975
 10
77.798067368455
 20
46.50237885749813
 10
77.61578774716283
 20
46.43420049375081
 10
77.42854873372335
 20
46.364213261344794
 10
77.23666226501052
 20
46.29243983075125
 10
77.0398161209376
 20
46.2188580164569
 10
76.83825136437993
 20
46.14361184964201
 10
76.63184718068703
 20
46.0666297996743
 10
76.4207240304934
 20
45.9879840033834
 10
76.20483190234403
 20
45.90748169066743
 10
75.98429125687339
 20
45.82519499835599
 10
75.75883967304013
 20
45.74129487475606
 10
75.52878901691503
 20
45.655804111578306
 10
75.29401847384766
 20
45.56865117819048
 10
75.05452790223161
 20
45.4798363170715
 10
74.81031694805095
 20
45.38936013441872
 10
74.56143541035107
 20
45.29741576405247
 10
74.30783313607053
 20
45.20381067834974
 10
74.04955985345157
 20
45.10873813237033
 10
73.78668601167372
 20
45.012077492841975
 10
73.51935314632463
 20
44.913586402064865
 10
73.24753997004149
 20
44.813579718286825
 10
72.9709841325862
 20
44.71222826857539
 10
72.6896852799427
 20
44.60953265912786
 10
72.40397635313504
 20
44.50520118712552
 10
72.11378626575498
 20
44.39935557699589
 10
71.81911487619618
 20
44.291996071217916
 10
71.51974942085629
 20
44.18348699439778
 10
71.21604370330293
 20
44.07322251290581
 10
70.9079765777797
 20
43.96151724251083
 10
70.59547702868161
 20
43.84849278640092
 10
70.27835336735951
 20
43.73419897465288
 10
69.95691738908101
 20
43.61865872021682
 10
69.6311190115879
 20
43.50167937423037
 10
69.3009580932738
 20
43.38326117917243
 10
68.96641334677594
 20
43.263718993290844
 10
68.62776770166323
 20
43.14256834366493
 10
68.2847588076976
 20
43.019980057362254
 10
67.9375567829525
 20
42.896219647511636
 10
67.58616141501841
 20
42.771287477831514
 10
67.23059349563574
 20
42.644869538750356
 10
66.87078186759308
 20
42.51708767593515
 10
66.50696759376571
 20
42.38808592056614
 10
66.13888818230913
 20
42.25803534218983
 10
65.76675583040013
 20
42.12657258611575
 10
65.39069092786994
 20
41.993769910412944
 10
65.01069326230898
 20
41.85962767879985
 10
64.62662087331039
 20
41.72438897641307
 10
64.2384735484646
 20
41.588054166971
 10
63.84632187855742
 20
41.45050237472242
 10
63.450477729659724
 20
41.31175639137802
 10
63.05062866927506
 20
41.171794395142854
 10
62.646895158037964
 20
41.03068852284656
 10
62.23961006616927
 20
40.888147192909884
 10
61.82858156341343
 20
40.74422047788857
 10
61.413717700818616
 20
40.599344233021114
 10
60.995138939019306
 20
40.453590595137136
 10
60.572745184302285
 20
40.30657414527234
 10
60.14699005073563
 20
40.158074953719165
 10
59.71759004232479
 20
40.00857846331403
 10
59.28461574985557
 20
39.85796379830567
 10
58.84799608691981
 20
39.70635268312164
 10
58.40799304973962
 20
39.553574896891725
 10
57.96460649670867
 20
39.3996306820949
 10
57.51771540076689
 20
39.24444887181729
 10
57.06749009239735
 20
39.08829461546934
 10
56.613809686146446
 20
38.93109650365827
 10
56.156936249039525
 20
38.772684194274426
 10
55.696869497863815
 20
38.61305817227569
 10
55.23372996405695
 20
38.452290453252196
 10
54.7673258173635
 20
38.29043110975973
 10
54.29763598283021
 20
38.127794636327685
 10
53.8247517721802
 20
37.96394626887279
 10
53.34896454295656
 20
37.799222323719334
 10
52.87031573703386
 20
37.63299502420327
 10
52.38873419720062
 20
37.465386215991515
 10
51.90424885995861
 20
37.29690316371537
 10
51.41678863889963
 20
37.12766759180235
 10
50.92632424350592
 20
36.95717284181853
 10
50.43348011395103
 20
36.785463284790524
 10
49.93796453867582
 20
36.61220321059137
 10
49.439806312575676
 20
36.437900126331286
 10
48.93881367619834
 20
36.262603983326606
 10
48.43529877882739
 20
36.0863370883301
 10
47.92935307379227
 20
35.908664434779546
 10
47.4209554861398
 20
35.72990051720435
 10
46.909964126266296
 20
35.550288299501645
 10
46.3967328685426
 20
35.369221826802246
 10
45.88133230375458
 20
35.18658022335493
 10
45.36364976201311
 20
35.003113232730236
 10
44.84351427560637
 20
34.81855679667295
 10
44.32109638742699
 20
34.6331757008751
 10
43.79682077504132
 20
34.446242750997875
 10
43.27061642284427
 20
34.257879550229305
 10
42.74234158283858
 20
34.068328819987585
 10
42.21178349142195
 20
33.877954884878946
 10
41.679466990677035
 20
33.68641584828939
 10
41.145433310068775
 20
33.49308429727327
 10
40.60983248396219
 20
33.298538542136235
 10
40.07206851306314
 20
33.103242325159236
 10
39.532545424803864
 20
32.906782219096044
 10
38.99154607795019
 20
32.708673872265486
 10
38.44917056621532
 20
32.50930270363188
 10
37.90510610308692
 20
32.30864749759768
 10
37.35952344386726
 20
32.1069726761365
 10
36.81237236469173
 20
31.904085832864858
 10
36.26391521579852
 20
31.699816140715257
 10
35.714272741034854
 20
31.494235251559413
 10
35.16332384253751
 20
31.28727211972294
 10
34.61131022041059
 20
31.0790696852309
 10
34.057989891337186
 20
30.869485493016104
 10
33.50346280742417
 20
30.658905204521822
 10
32.947799842670136
 20
30.447207459038953
 10
32.39135472983957
 20
30.233786544177242
 10
31.833985720935154
 20
30.01888518135488
 10
31.27586378366876
 20
29.802767428827075
 10
30.716676131528057
 20
29.585412070996284
 10
30.156806071008027
 20
29.366719568948312
 10
29.596324334500952
 20
29.146568804453004
 10
29.035301654399056
 20
28.924838659280205
 10
28.473596141098664
 20
28.701772097327037
 10
27.911258018464395
 20
28.47756152497699
 10
27.348287074086628
 20
28.25220730594847
 10
26.78501660300537
 20
28.025417131225396
 10
26.221396381356033
 20
27.796998594424288
 10
25.65761802698451
 20
27.56690198670778
 10
25.09359008656132
 20
27.33556231463808
 10
24.528979052636856
 20
27.103272250949676
 10
23.964168444115728
 20
26.869931893009976
 10
23.399603659501455
 20
26.634500158148104
 10
22.83485966721178
 20
26.39770484690023
 10
22.27010778897454
 20
26.15980941132423
 10
21.705368391710987
 20
25.92050056928539
 10
21.140712349419758
 20
25.679656960074627
 10
20.576169094225023
 20
25.437784999646937
 10
20.011688543868562
 20
25.19469203913989
 10
19.447603922587188
 20
24.950085890776894
 10
18.883794203320846
 20
24.703895387644067
 10
18.32043070779738
 20
24.4563839817993
 10
17.75744249121494
 20
24.20767315519114
 10
17.19504203396307
 20
23.957399068171256
 10
16.63315839123992
 20
23.705683202688203
 10
16.0718418577133
 20
23.452717843885996
 10
15.51075899673681
 20
23.198795543259667
 10
14.950576681603208
 20
22.943331197819152
 10
14.39129491231252
 20
22.686324807564464
 10
13.832842956472474
 20
22.427897490725766
 10
13.275149869281229
 20
22.1681707292516
 10
12.718407693403877
 20
21.907094086867815
 10
12.162424527781711
 20
21.644717757369627
 10
11.607513300533482
 20
21.381062713875668
 10
11.053815688853252
 20
21.11588635620721
 10
10.501260889545597
 20
20.849309923833893
 10
9.949778170218247
 20
20.581454534985845
 10
9.399438334066668
 20
20.312198950193466
 10
8.85062532481461
 20
20.041442539387333
 10
8.303076367404726
 20
19.769356857071767
 10
7.75677109491578
 20
19.496255185381486
 10
7.211942425461753
 20
19.22146028129396
 10
6.668691019181415
 20
18.945356593857746
 10
6.126804678898022
 20
18.66830747776332
 10
5.5863745747282865
 20
18.389878411406354
 10
5.047784792002361
 20
18.109968522238496
 10
4.510893795132533
 20
17.828820167959517
 10
3.975722021843273
 20
17.546119945195255
 10
3.4423703446829346
 20
17.26225193927585
 10
2.9108592721791946
 20
16.976902625587677
 10
2.381360409272635
 20
16.690334971230715
 10
1.853419150650465
 20
16.402770603265072
 10
1.3274195816428218
 20
16.11410864914239
 10
0.8036449150315004
 20
15.82386415098417
 10
0.2820245600306313
 20
15.532157984541621
 10
-0.23753272427969147
 20
15.239424792658545
 10
-0.754955851491228
 20
14.94554285090744
 10
-1.2701739476053617
 20
14.650390798579197
 10
-1.7830657023492436
 20
14.354039317629807
 10
-2.29389389078021
 20
14.0566599625636
 10
-2.802678596606758
 20
13.7585655305574
 10
-3.3090153675774596
 20
13.459341866928144
 10
-3.812762455695027
 20
13.15874625025765
 10
-4.314061254940778
 20
12.857020795766752
 10
-4.812854815146542
 20
12.554346392089325
 10
-5.3092529056643025
 20
12.250632595235837
 10
-5.803204877810267
 20
11.946071084152958
 10
-6.294660295310278
 20
11.640853901505757
 10
-6.783457184852163
 20
11.334425286220283
 10
-7.2694743069662975
 20
11.026856041491985
 10
-7.752944438160292
 20
10.71882316786444
 10
-8.23384721151288
 20
10.410013383202951
 10
-8.71186934488936
 20
10.100447054428784
 10
-9.187253317228988
 20
9.789982575151042
 10
-9.659756649592504
 20
9.478761551760627
 10
-10.129399708901179
 20
9.167097266392236
 10
-10.59649577728972
 20
8.854969352124595
 10
-11.060569599311252
 20
8.541842414805028
 10
-11.521803515199224
 20
8.22858549764218
 10
-11.980460370814138
 20
7.915370276379865
 10
-12.43623658645295
 20
7.601398511004868
 10
-12.888768443706777
 20
7.286882611103541
 10
-13.338389591631584
 20
6.9721154918893085
 10
-13.785170833422823
 20
6.657218392831799
 10
-14.228970562689595
 20
6.341948834991762
 10
-14.669617103688099
 20
6.026569664229718
 10
-15.107352935357586
 20
5.71093927415477
 10
-15.542147988345143
 20
5.395562989566693
 10
-15.973860656259886
 20
5.080198331526232
 10
-16.402420135906354
 20
4.7647240605637675
 10
-16.82789723048
 20
4.449261416148917
 10
-17.250312306902103
 20
4.134123680416385
 10
-17.669786604642262
 20
3.8192400501707295
 10
-18.08593603837036
 20
3.5045096528635846
 10
-18.498760608086382
 20
3.189932488494953
 10
-18.90831075006451
 20
2.875316514399762
 10
-19.314536028030556
 20
2.5608537732430845
 10
-19.717648851570882
 20
2.2469079834338004
 10
-20.117598784411285
 20
1.9336711876369834
 10
-20.514102613769996
 20
1.620658427974126
 10
-20.90728157911663
 20
1.3077989012497828
 10
-21.296701158846876
 20
0.9951837775806698
 10
-21.682816241486304
 20
0.683035168984772
 10
-22.06569763023038
 20
0.3714743149317143
 10
-22.44510284613984
 20
0.06064282181239288
 10
-22.820961086019253
 20
-0.24958054984282016
 10
-23.193181179751885
 20
-0.5596303216382503
 10
-23.56192510064991
 20
-0.8689507324999429
 10
-23.927405258299668
 20
-1.1771780640190257
 10
-24.289146397254292
 20
-1.4848477103481739
 10
-24.647269756983412
 20
-1.7920304746828397
 10
-25.001674464938677
 20
-2.0983422716928763
 10
-25.352481760589697
 20
-2.4038539045737286
 10
-25.69976244713194
 20
-2.7084441338557723
 10
-26.04318287550942
 20
-3.0124058747524356
 10
-26.382884652113034
 20
-3.31549664832447
 10
-26.71886777694279
 20
-3.6177164545718705
 10
-27.051415462780472
 20
-3.918580335616139
 10
-27.380214427491392
 20
-4.218067924536001
 10
-27.705294740428442
 20
-4.516684546131234
 10
-28.02639355573111
 20
-4.814601876145638
 10
-28.343672846711566
 20
-5.111264153505266
 10
-28.657395459230315
 20
-5.406499702466309
 10
-28.967156941035956
 20
-5.700722677711827
 10
-29.272977659049754
 20
-5.993619797107118
 10
-29.5751708954064
 20
-6.285211427573451
 10
-29.873494171166655
 20
-6.575355962719929
 10
-30.167735076744165
 20
-6.864417120955439
 10
-30.458106021725285
 20
-7.1520311838710935
 10
-30.744677809305447
 20
-7.4380769119972685
 10
-31.027379636289215
 20
-7.722675544803593
 10
-31.306090263206965
 20
-8.005756279094612
 10
-31.580738886863234
 20
-8.287440354339966
 10
-31.851517549923116
 20
-8.567677334265463
 10
-32.11818377344734
 20
-8.846325612480209
 10
-32.38087916382682
 20
-9.123142710044963
 10
-32.63970459360989
 20
-9.398512712289856
 10
-32.8942963443877
 20
-9.67222320962856
 10
-33.1447048524344
 20
-9.94446624472614
 10
-33.39121333053179
 20
-10.214756859704092
 10
-33.63382177867989
 20
-10.483095054562417
 10
-33.87226735101815
 20
-10.749652505044923
 10
-34.106479244351135
 20
-11.014550450621229
 10
-34.33650789495303
 20
-11.27798093395642
 10
-34.56246483986181
 20
-11.53919615131146
 10
-34.784400515351656
 20
-11.798388145351426
 10
-35.002173315031676
 20
-12.055799395015569
 10
-35.21566199943224
 20
-12.311359097108443
 10
-35.425008174944246
 20
-12.564824772690795
 10
-35.6300702351768
 20
-12.816438900701883
 10
-35.83091898332535
 20
-13.066080241672065
 10
-36.027625222585336
 20
-13.313627556131735
 10
-36.219926107096235
 20
-13.559252519824682
 10
-36.4080340464444
 20
-13.802591414342034
 10
-36.59178706731768
 20
-14.044200000757742
 10
-36.77134714302821
 20
-14.283522517997861
 10
-36.94664347038055
 20
-14.520680205532006
 10
-37.11760524617927
 20
-14.755794302829807
 10
-37.28411123095473
 20
-14.98879400669582
 10
-37.44635346737199
 20
-15.219628880855861
 10
-37.6044231255478
 20
-15.447864403705605
 10
-37.75817859909124
 20
-15.673743054184307
 10
-37.907619888002316
 20
-15.897264832291969
 10
-38.05293903494609
 20
-16.118379301754402
 10
-38.19382275778789
 20
-16.337066095650354
 10
-38.330533902388225
 20
-16.553153538236003
 10
-38.46309283566835
 20
-16.766328347376657
 10
-38.59162079709791
 20
-16.976661326267763
 10
-38.71585494081638
 20
-17.184324150653126
 10
-38.83598730948882
 20
-17.38926638425857
 10
-38.951775424175985
 20
-17.591346420693196
 10
-39.063603370208035
 20
-17.790463387408643
 10
-39.17129947184115
 20
-17.9863544385444
 10
-39.274843362154066
 20
-18.17933285623516
 10
-39.37423504114679
 20
-18.369398640480927
 10
-39.46947450881931
 20
-18.55655179128169
 10
-39.560582132092904
 20
-18.740479026502765
 10
-39.647557910967556
 20
-18.921180346144144
 10
-39.73031067532658
 20
-19.09909027181015
 10
-39.808931595286666
 20
-19.273774281896465
 10
-39.88313745806604
 20
-19.44571733428158
 10
-39.95321147644647
 20
-19.61443447108701
 10
-40.01887043764618
 20
-19.780410650191243
 10
-40.08025594805608
 20
-19.943403392655036
 10
-40.137368007676145
 20
-20.10341269847838
 10
-40.19001457384131
 20
-20.26048900393546
 10
-40.23857973188173
 20
-20.414531436477922
 10
-40.282487353802175
 20
-20.5656913049283
 10
-40.32224276440242
 20
-20.713938539933675
 10
-40.35753268154777
 20
-20.859252774572788
 10
-40.38856951482456
 20
-21.00127029043676
 10
-40.41533289731152
 20
-21.140304369660292
 10
-40.43777239273448
 20
-21.276162969578298
 10
-40.456171213875244
 20
-21.408361132312287
 10
-40.47043819061706
 20
-21.53733337946658
 10
-40.480593689881225
 20
-21.662766428906476
 10
-40.486779318058616
 20
-21.784417801692726
 10
-40.489278287931036
 20
-21.90180253994682
 10
-40.48809059949849
 20
-22.014920643668763
 10
-40.48347909862149
 20
-22.123600437114753
 10
-40.47555532233801
 20
-22.227094116545754
 10
-40.4647237228995
 20
-22.324987527278715
 10
-40.451813571730035
 20
-22.416139077812826
 10
-40.4370780122585
 20
-22.4995584854698
 10
-40.42177113508169
 20
-22.573376721931073
 10
-40.4071470307964
 20
-22.63572475887807
 10
-40.394662497154115
 20
-22.683551242648868
 10
-40.38620885351066
 20
-22.713895989698266
 10
-39.93600918132731
 20
-23.490082700792563
 10
-39.93009466843658
 20
-23.494920653029986
 10
-39.91242193295984
 20
-23.509313270272646
 10
-39.883274187678886
 20
-23.53277559464203
 10
-39.84132653880146
 20
-23.56729789392633
 10
-39.785334598162436
 20
-23.615567803378603
 10
-39.71885889245546
 20
-23.671210067382834
 10
-39.64397308126978
 20
-23.73039545918516
 10
-39.56184008508546
 20
-23.791689472071347
 10
-39.4738255315373
 20
-23.852475273983796
 10
-39.380445409914685
 20
-23.91159090650041
 10
-39.28229621513412
 20
-23.968571778663968
 10
-39.17953992050775
 20
-24.02286212940052
 10
-39.07245973881739
 20
-24.073977000831547
 10
-38.96119727645391
 20
-24.121673914017805
 10
-38.84575253341733
 20
-24.165952868959295
 10
-38.726317552372706
 20
-24.206763429381834
 10
-38.60291270024133
 20
-24.243792313150728
 10
-38.47546717382774
 20
-24.2771607597356
 10
-38.344173015797004
 20
-24.30681833286227
 10
-38.20876738028861
 20
-24.332936708274545
 10
-38.069321070498006
 20
-24.355394646502806
 10
-37.92621817175533
 20
-24.374091274998676
 10
-37.778882556065376
 20
-24.389177902584713
 10
-37.62774874503246
 20
-24.400745699377616
 10
-37.472503456521885
 20
-24.40877429845613
 10
-37.31333873319872
 20
-24.413213263546062
 10
-37.150325378258415
 20
-24.413941355177798
 10
-36.98325098211463
 20
-24.411322291760207
 10
-36.81225715115827
 20
-24.405113594354056
 10
-36.63706067260752
 20
-24.395800220837824
 10
-36.457873956048736
 20
-24.383018452802645
 10
-36.274676634560656
 20
-24.36708157238322
 10
-36.08734746867364
 20
-24.347918776384095
 10
-35.8957448519968
 20
-24.325772543744534
 10
-35.70006082719521
 20
-24.300592438190346
 10
-35.50022459107342
 20
-24.272499699191158
 10
-35.296236143631425
 20
-24.24149432674698
 10
-35.087761835813275
 20
-24.207869236071243
 10
-34.87511494975366
 20
-24.171644794085204
 10
-34.658123809708755
 20
-24.132558154928347
 10
-34.43703089461784
 20
-24.09075092499157
 10
-34.211573358620385
 20
-24.046394780018677
 10
-33.98187244118601
 20
-23.999560523205115
 10
-33.74787770604055
 20
-23.950056111885807
 10
-33.50985199904451
 20
-23.89770987031695
 10
-33.26760327753283
 20
-23.842572234772728
 10
-33.0213032172493
 20
-23.784906051113655
 10
-32.7708305787243
 20
-23.724640516144284
 10
-32.51618536195784
 20
-23.66177562986462
 10
-32.25757997653625
 20
-23.595947673865783
 10
-31.995135661929158
 20
-23.527227451343222
 10
-31.728731178666944
 20
-23.455544159101482
 10
-31.458346159828345
 20
-23.381211079275268
 10
-31.183980605413346
 20
-23.304228211864583
 10
-30.90591772820374
 20
-23.22411059899092
 10
-30.624137161278263
 20
-23.141171522788973
 10
-30.33858846836274
 20
-23.05521894059368
 10
-30.049200846261716
 20
-22.966374091874652
 10
-29.75609553444482
 20
-22.874707779827357
 10
-29.459343336107494
 20
-22.78009876498215
 10
-29.158873448054297
 20
-22.682668286808664
 10
-28.854685870285234
 20
-22.5824163453069
 10
-28.546851405995746
 20
-22.47922170100723
 10
-28.235420491460005
 20
-22.37327639657473
 10
-27.92039312667802
 20
-22.2645804320094
 10
-27.601718875375607
 20
-22.15294176464616
 10
-27.279498610101133
 20
-22.038744479815172
 10
-26.953681894580406
 20
-21.921796534851342
 10
-26.624197925617988
 20
-21.80221916922432
 10
-26.29123874587895
 20
-21.67996194665991
 10
-25.955016764949637
 20
-21.554661148749233
 10
-25.6153195732437
 20
-21.426680493901173
 10
-25.27188432490063
 20
-21.296191657859545
 10
-24.92514554152473
 20
-21.16328581074104
 10
-24.575002350567672
 20
-21.02757886721554
 10
-24.221525555224876
 20
-20.888949587813393
 10
-23.86481602804472
 20
-20.74778205786476
 10
-23.504681726362122
 20
-20.604126713643826
 10
-23.141264256567975
 20
-20.457741076211324
 10
-22.774684858131913
 20
-20.308695948762708
 10
-22.405014334249373
 20
-20.156870091828353
 10
-22.03204027533402
 20
-20.002627223817132
 10
-21.655904287776746
 20
-19.8457248657898
 10
-21.27646476518666
 20
-19.68640549668561
 10
-20.894176596089345
 20
-19.52444700448657
 10
-20.508726498350118
 20
-19.35982902227142
 10
-20.120235711438596
 20
-19.192622353235603
 10
-19.728754671628952
 20
-19.02301904004419
 10
-19.33430374584247
 20
-18.850705800562487
 10
-18.93686256715787
 20
-18.67599591692519
 10
-18.536623178240223
 20
-18.498838952858122
 10
-18.133484706541186
 20
-18.318850823031138
 10
-17.727689631
 20
-18.13617313383513
 10
-17.319025542030325
 20
-17.951169603678974
 10
-16.907492439632158
 20
-17.76384023256268
 10
-16.493090323805497
 20
-17.574185020486233
 10
-16.076152843606327
 20
-17.381911052236216
 10
-15.656821605425524
 20
-17.186775848873367
 10
-15.234692157011684
 20
-16.98919356508075
 10
-14.810006977304052
 20
-16.789305807249256
 10
-14.382786433223902
 20
-16.586799293244184
 10
-13.953293370631751
 20
-16.381502347321735
 10
-13.521315379941262
 20
-16.173778687890785
 10
-13.086832094231157
 20
-15.963941597086032
 10
-12.649863880422716
 20
-15.75167779277278
 10
-12.210623148102272
 20
-15.536623556542143
 10
-11.769210769818189
 20
-15.319162973724278
 10
-11.325555942375013
 20
-15.099417283788803
 10
-10.879416186833497
 20
-14.87724488034483
 10
-10.431226024797963
 20
-14.652736933509068
 10
-9.981005823189692
 20
-14.425580161146824
 10
-9.528755582008667
 20
-14.195774563258095
 10
-9.074525737529079
 20
-13.963512182507953
 10
-8.617962273773681
 20
-13.729399216244532
 10
-8.159398839798444
 20
-13.493142749254401
 10
-7.698997408915538
 20
-13.254187020463606
 10
-7.236687177929516
 20
-13.012653269341778
 10
-6.772710625779619
 20
-12.7686831022798
 10
-6.306663300214438
 20
-12.52269067396074
 10
-5.838808047094498
 20
-12.274504308640793
 10
-5.3691448664197905
 20
-12.024124006319955
 10
-4.897815364581218
 20
-11.771307288058976
 10
-4.424748738383331
 20
-11.516175393327481
 10
-3.9500458603744835
 20
-11.259112407455621
 10
-3.473605858006322
 20
-10.999734245113244
 10
-2.9958128166089915
 20
-10.737940033751991
 10
-2.516595932987045
 20
-10.473851012841497
 10
-2.035884403945036
 20
-10.207588421851376
 10
-1.5536277932087845
 20
-9.938960218116565
 10
-1.0703314255780707
 20
-9.667936332284153
 10
-0.585944864778703
 20
-9.394324721689062
 10
-0.09992205216838354
 20
-9.118782019953604
 10
0.3874237301182004
 20
-8.841328593999043
 10
0.8755464234387249
 20
-8.561307810203079
 10
1.3649009163187924
 20
-8.278941780583692
 10
1.8554367724842291
 20
-7.994422547805947
 10
2.3467699066048753
 20
-7.707649239321499
 10
2.8390719944245415
 20
-7.41835900926982
 10
3.3321005570039754
 20
-7.126693464041807
 10
3.826260046594596
 20
-6.833066758320519
 10
4.321287617335879
 20
-6.537307216362148
 10
4.816708013780961
 20
-6.238879444014011
 10
5.312854884985804
 20
-5.938076356489544
 10
5.809890204262594
 20
-5.635453714862688
 10
6.3074805349649194
 20
-5.330718967638435
 10
6.805687783484643
 20
-5.023699712945781
 10
7.304538830637001
 20
-4.7147203869506376
 10
7.803750676049801
 20
-4.4032963954929025
 10
8.30332346132943
 20
-4.089427981051519
 10
8.803419159788046
 20
-3.7736709047004418
 10
9.303987618364255
 20
-3.4562176940626204
 10
9.805079344135445
 20
-3.136876427712443
 10
10.306360758848815
 20
-2.815354311675966
 10
10.807973539698482
 20
-2.4918939461318943
 10
11.309917969897217
 20
-2.1664958160381147
 10
11.812072739172194
 20
-1.8392306033506067
 10
12.31422565034666
 20
-1.5097349533788975
 10
12.816518309811512
 20
-1.1782513450622405
 10
13.318991451409293
 20
-0.8454063426700312
 10
13.821817034096572
 20
-0.5109375852996375
 10
14.324540098544581
 20
-0.17462283969359285
 10
14.82735282902477
 20
0.16348721539497443
 10
15.330012746597887
 20
0.5032509735751733
 10
15.832711964732203
 20
0.8446178773333513
 10
16.335379751035475
 20
1.1877090448996723
 10
16.837844429763884
 20
1.532261630413611
 10
17.34036884677797
 20
1.8781039581313674
 10
17.842882411291857
 20
2.2253569038041485
 10
18.34507162876125
 20
2.5740004642290986
 10
18.84712868345764
 20
2.9239839606531075
 10
19.34907394230227
 20
3.2749941109414618
 10
19.85074550278618
 20
3.6275865549286506
 10
20.352042350754637
 20
3.981377449763474
 10
20.85310609259852
 20
4.336124316506665
 10
21.35386599592558
 20
4.691948273388394
 10
21.85418045434492
 20
5.049091799347897
 10
22.354191145050645
 20
5.407312294206471
 10
22.853796841478392
 20
5.766226278831298
 10
23.352977318313318
 20
6.126146792878155
 10
23.851823745672107
 20
6.486639314742701
 10
24.350123572362037
 20
6.848067805312761
 10
24.847806065990873
 20
7.210553382818499
 10
25.345012832949482
 20
7.573853568320646
 10
25.8417133790658
 20
7.937463764456258
 10
26.338029156219047
 20
8.301454410702377
 10
26.83362637374684
 20
8.666118664751359
 10
27.328575693238253
 20
9.031335529612532
 10
27.82287718549647
 20
9.397104884046412
 10
28.31660151211056
 20
9.763305731062328
 10
28.809435036929827
 20
10.129918309936343
 10
29.30157001502896
 20
10.496891820675883
 10
29.792955585314576
 20
10.864034948052682
 10
30.283854947663205
 20
11.23117541012559
 10
30.77374177312501
 20
11.598657649537447
 10
31.262686935698657
 20
11.966360305579148
 10
31.751165690831016
 20
12.333747984098027
 10
32.23851038639417
 20
12.701407121718276
 10
32.72465000678305
 20
13.069459321627935
 10
33.21013082304961
 20
13.437247586486293
 10
33.69485139621988
 20
13.80438880087895
 10
34.17850828819722
 20
14.17168096234018
 10
34.66105077949466
 20
14.538932513162774
 10
35.14235720582341
 20
14.90607337758812
 10
35.62269062545357
 20
15.272931516153998
 10
36.10200024809496
 20
15.639315492392669
 10
36.5803566645335
 20
16.005104430552937
 10
37.05749681649903
 20
16.370470370097
 10
37.53327881438789
 20
16.735656274921993
 10
38.007914996983246
 20
17.100298547858507
 10
38.48140529348187
 20
17.46439731014602
 10
38.95357724930483
 20
17.827691049558165
 10
39.42467383901374
 20
18.190320523809554
 10
39.89423946605103
 20
18.552509057312864
 10
40.3623447920058
 20
18.91413565307741
 10
40.829343549642466
 20
19.27459459871294
 10
41.295165006568816
 20
19.634007012449622
 10
41.75942415701312
 20
19.992475342948897
 10
42.22243477873248
 20
20.350019108455758
 10
42.68388281075702
 20
20.7066192756831
 10
43.14388963416275
 20
21.062346405347427
 10
43.60247512024862
 20
21.416888063990342
 10
44.05951753392259
 20
21.770174297092666
 10
44.515279933454785
 20
22.1220330651922
 10
44.96930650987806
 20
22.472688056420015
 10
45.42184023775404
 20
22.822280028490738
 10
45.87256705611288
 20
23.170789948117257
 10
46.32191143011128
 20
23.517490984679153
 10
46.76975169546045
 20
23.86231306241782
 10
47.215906007549314
 20
24.2061243758656
 10
47.65993857031606
 20
24.548835937216243
 10
48.10265878388584
 20
24.889618588427343
 10
48.543752516485654
 20
25.22845341745127
 10
48.98293620131771
 20
25.565825988363876
 10
49.42020969677559
 20
25.90173654364408
 10
49.85564359364521
 20
26.2360642075407
 10
50.28959176629739
 20
26.568203025184516
 10
50.72166899655086
 20
26.89825580895542
 10
51.15190606179048
 20
27.22672667125847
 10
51.58005935022587
 20
27.553475945534302
 10
52.00627025583836
 20
27.878261516562066
 10
52.43068024341242
 20
28.200841147881444
 10
52.85314742334439
 20
28.52145780338957
 10
53.27354984813268
 20
28.840041892285686
 10
53.69215064685061
 20
29.156421253868125
 10
54.10870620770781
 20
29.470456221577503
 10
54.5231256438003
 20
29.782580832060248
 10
54.93516520173134
 20
30.09265566123593
 10
55.34533140995503
 20
30.400648578680663
 10
55.75327879288789
 20
30.706037529857486
 10
56.15925060830435
 20
31.008962787523142
 10
56.56317576979612
 20
31.309546076105107
 10
56.96466905918193
 20
31.607890207983264
 10
57.36380092564134
 20
31.90387454988536
 10
57.76088535934091
 20
32.19751825633792
 10
58.155627887396946
 20
32.488490345553345
 10
58.54829149727635
 20
32.77661889930888
 10
58.93854183189124
 20
33.06219804521267
 10
59.326429539925314
 20
33.34541946221134
 10
59.711903477072475
 20
33.62609232003453
 10
60.094963360119934
 20
33.90421710364012
 10
60.475699580349286
 20
34.17936062505798
 10
60.854021321659744
 20
34.45195679969504
 10
61.22975556304681
 20
34.72174508524071
 10
61.60288214999883
 20
34.989038400111326
 10
61.97361335049569
 20
35.253473268376894
 10
62.34189787862495
 20
35.51485910224601
 10
62.7075230415874
 20
35.773560105085394
 10
63.07048862697352
 20
36.0295766406135
 10
63.43079435157049
 20
36.28290919378818
 10
63.788338068372475
 20
36.53317586158975
 10
64.14350464154472
 20
36.78027443783568
 10
64.49581803680526
 20
37.02474165031282
 10
64.84522703904472
 20
37.26638678999025
 10
65.19185310014235
 20
37.505280296345035
 10
65.53571580818425
 20
37.74111022087663
 10
65.87662234167017
 20
37.97392833349336
 10
66.21474522598234
 20
38.20399602518215
 10
66.55005297570386
 20
38.43081039593259
 10
66.8824037720343
 20
38.65461428840235
 10
67.21186820575949
 20
38.8752868268402
 10
67.53823351327713
 20
39.09319233585239
 10
67.86164108856849
 20
39.30808870021805
 10
68.18196884252566
 20
39.51990657161539
 10
68.49928736593449
 20
39.7285250742932
 10
68.81364744908508
 20
39.93413564471916
 10
69.12473439377885
 20
40.13672034076144
 10
69.43254784599985
 20
40.33627976861737
 10
69.73728027323234
 20
40.53276276457597
 10
70.0390025494749
 20
40.72604796792811
 10
70.33725985700517
 20
40.91635736945234
 10
70.63216734621791
 20
41.10377219893846
 10
70.92394429460953
 20
41.28791697774907
 10
71.21239526096149
 20
41.46884796165287
 10
71.49737849727653
 20
41.646807872068074
 10
71.77915720343114
 20
41.8216244270535
 10
72.05755821681441
 20
41.99303732677749
 10
72.33256152452107
 20
42.16135924717743
 10
72.60409611094606
 20
42.32671179144132
 10
72.87203995778462
 20
42.48902549000791
 10
73.13653445901807
 20
42.64805822765631
 10
73.39750845743495
 20
42.803931850053544
 10
73.654820205038
 20
42.956889078617785
 10
73.90854022180989
 20
43.10680915883727
 10
74.15868816663989
 20
43.253380020971996
 10
74.4052636855121
 20
43.39660227121934
 10
74.64810530073665
 20
43.537030821976956
 10
74.88716165559785
 20
43.674475206692854
 10
75.12243267929254
 20
43.80893554660654
 10
75.35398882100013
 20
43.9402912084457
 10
75.58170813321904
 20
44.06847260140958
 10
75.80571213863173
 20
44.19355004373578
 10
76.0257373541489
 20
44.31569630232332
 10
76.24192503214546
 20
44.43466950443029
 10
76.45413342462412
 20
44.55071237147491
 10
76.66262580226457
 20
44.663652500276505
 10
76.86701666367277
 20
44.77359318817286
 10
77.06735686994205
 20
44.880725750392216
 10
77.26359520596311
 20
44.98485947790368
 10
77.45592413922017
 20
45.08594320699625
 10
77.64407947859202
 20
45.184150916963645
 10
77.82832414074234
 20
45.279310810822594
 10
78.00820628168297
 20
45.3716397872939
 10
78.1840346521441
 20
45.46116597262487
 10
78.35556748121844
 20
45.54774654802993
 10
78.52292643319475
 20
45.63145158926768
 10
78.68611136646668
 20
45.71228133881709
 10
78.84505126542919
 20
45.7903573998662
 10
78.9996950565793
 20
45.86548882090513
 10
79.14990085031339
 20
45.93791856583102
 10
79.29586132652526
 20
46.0075951072145
 10
79.4373835221083
 20
46.07457045744281
 10
79.57453816945474
 20
46.13872349828579
 10
79.707254394566
 20
46.20017559045259
 10
79.83560278822789
 20
46.25880585819194
 10
79.95951247644177
 20
46.31473566221296
 10
80.0788417820136
 20
46.36820760269436
 10
80.19361022222621
 20
46.41890985237508
 10
80.303990747281
 20
46.4671030748052
 10
80.40954671147776
 20
46.512699737052074
 10
80.51071454810709
 20
46.55578773576675
 10
80.60725036216583
 20
46.59622788934774
 10
80.69901247645988
 20
46.63426279797372
 10
80.78619350007988
 20
46.66984105545479
 10
80.86867141472105
 20
46.70289319222966
 10
80.94630461399254
 20
46.733661687237586
 10
81.01935643937716
 20
46.761974016058474
 10
81.08756340778568
 20
46.788002945591344
 10
81.1509961808072
 20
46.81162747884554
 10
81.20951315205072
 20
46.833090094760266
 10
81.26318512471177
 20
46.852269553865945
 10
81.31206303068687
 20
46.86935705015134
 10
81.35590304577602
 20
46.88421328077547
 10
81.39475631428542
 20
46.897029076008735
 10
81.4287446421102
 20
46.9078742691308
 10
81.45762420505041
 20
46.91660955730071
 10
81.48137520261038
 20
46.92354725273741
 10
81.50019052709351
 20
46.92863546429308
 10
81.51368446469613
 20
46.931977853023874
 10
81.52190837213399
 20
46.933764885481764
 10
81.5247204306066
 20
46.934239404324416
  0
ENDSEC
  0
SECTION
  2
OBJECTS
  0
DICTIONARY
  5
A
330
0
100
AcDbDictionary
280
0
281
1
  3
ACAD_COLOR
350
B
  3
ACAD_GROUP
350
C
  3
ACAD_LAYOUT
350
D
  3
ACAD_MATERIAL
350
E
  3
ACAD_MLEADERSTYLE
350
F
  3
ACAD_MLINESTYLE
350
10
  3
ACAD_PLOTSETTINGS
350
11
  3
ACAD_PLOTSTYLENAME
350
12
  3
ACAD_SCALELIST
350
14
  3
ACAD_TABLESTYLE
350
15
  3
ACAD_VISUALSTYLE
350
16
  3
EZDXF_META
350
2D
  0
DICTIONARY
  5
B
330
A
100
AcDbDictionary
280
0
281
1
  0
DICTIONARY
  5
C
330
A
100
AcDbDictionary
280
0
281
1
  0
DICTIONARY
  5
D
330
A
100
AcDbDictionary
280
0
281
1
  3
Model
350
1A
  3
Layout1
350
1E
  0
DICTIONARY
  5
E
330
A
100
AcDbDictionary
280
0
281
1
  3
ByBlock
350
1F
  3
ByLayer
350
20
  3
Global
350
21
  0
DICTIONARY
  5
F
330
A
100
AcDbDictionary
280
0
281
1
  3
Standard
350
2C
  0
DICTIONARY
  5
10
330
A
100
AcDbDictionary
280
0
281
1
  3
Standard
350
22
  0
DICTIONARY
  5
11
330
A
100
AcDbDictionary
280
0
281
1
  0
ACDBDICTIONARYWDFLT
  5
12
330
A
100
AcDbDictionary
280
0
281
1
  3
Normal
350
13
100
AcDbDictionaryWithDefault
340
13
  0
ACDBPLACEHOLDER
  5
13
330
12
  0
DICTIONARY
  5
14
330
A
100
AcDbDictionary
280
0
281
1
  0
DICTIONARY
  5
15
330
A
100
AcDbDictionary
280
0
281
1
  0
DICTIONARY
  5
16
330
A
100
AcDbDictionary
280
0
281
1
  0
LAYOUT
  5
1A
330
D
100
AcDbPlotSettings
  1

  4
A3
  6

 40
7.5
 41
20.0
 42
7.5
 43
20.0
 44
420.0
 45
297.0
 46
0.0
 47
0.0
 48
0.0
 49
0.0
140
0.0
141
0.0
142
1.0
143
1.0
 70
1024
 72
1
 73
0
 74
5
  7

 75
16
 76
0
 77
2
 78
300
147
1.0
148
0.0
149
0.0
100
AcDbLayout
  1
Model
 70
1
 71
0
 10
0.0
 20
0.0
 11
420.0
 21
297.0
 12
0.0
 22
0.0
 32
0.0
 14
1e+20
 24
1e+20
 34
1e+20
 15
-1e+20
 25
-1e+20
 35
-1e+20
146
0.0
 13
0.0
 23
0.0
 33
0.0
 16
1.0
 26
0.0
 36
0.0
 17
0.0
 27
1.0
 37
0.0
 76
1
330
17
  0
LAYOUT
  5
1E
330
D
100
AcDbPlotSettings
  1

  4
A3
  6

 40
7.5
 41
20.0
 42
7.5
 43
20.0
 44
420.0
 45
297.0
 46
0.0
 47
0.0
 48
0.0
 49
0.0
140
0.0
141
0.0
142
1.0
143
1.0
 70
0
 72
1
 73
0
 74
5
  7

 75
16
 76
0
 77
2
 78
300
147
1.0
148
0.0
149
0.0
100
AcDbLayout
  1
Layout1
 70
1
 71
1
 10
0.0
 20
0.0
 11
420.0
 21
297.0
 12
0.0
 22
0.0
 32
0.0
 14
1e+20
 24
1e+20
 34
1e+20
 15
-1e+20
 25
-1e+20
 35
-1e+20
146
0.0
 13
0.0
 23
0.0
 33
0.0
 16
1.0
 26
0.0
 36
0.0
 17
0.0
 27
1.0
 37
0.0
 76
1
330
1B
  0
MATERIAL
  5
1F
102
{ACAD_REACTORS
330
E
102
}
330
E
100
AcDbMaterial
  1
ByBlock
  2

 70
0
 40
1.0
 71
1
 41
1.0
 91
-1023410177
 42
1.0
 72
1
  3

 73
1
 74
1
 75
1
 44
0.5
 73
0
 45
1.0
 46
1.0
 77
1
  4

 78
1
 79
1
170
1
 48
1.0
171
1
  6

172
1
173
1
174
1
140
1.0
141
1.0
175
1
  7

176
1
177
1
178
1
143
1.0
179
1
  8

270
1
271
1
272
1
145
1.0
146
1.0
273
1
  9

274
1
275
1
276
1
 42
1.0
 72
1
  3

 73
1
 74
1
 75
1
 94
63
  0
MATERIAL
  5
20
102
{ACAD_REACTORS
330
E
102
}
330
E
100
AcDbMaterial
  1
ByLayer
  2

 70
0
 40
1.0
 71
1
 41
1.0
 91
-1023410177
 42
1.0
 72
1
  3

 73
1
 74
1
 75
1
 44
0.5
 73
0
 45
1.0
 46
1.0
 77
1
  4

 78
1
 79
1
170
1
 48
1.0
171
1
  6

172
1
173
1
174
1
140
1.0
141
1.0
175
1
  7

176
1
177
1
178
1
143
1.0
179
1
  8

270
1
271
1
272
1
145
1.0
146
1.0
273
1
  9

274
1
275
1
276
1
 42
1.0
 72
1
  3

 73
1
 74
1
 75
1
 94
63
  0
MATERIAL
  5
21
102
{ACAD_REACTORS
330
E
102
}
330
E
100
AcDbMaterial
  1
Global
  2

 70
0
 40
1.0
 71
1
 41
1.0
 91
-1023410177
 42
1.0
 72
1
  3

 73
1
 74
1
 75
1
 44
0.5
 73
0
 45
1.0
 46
1.0
 77
1
  4

 78
1
 79
1
170
1
 48
1.0
171
1
  6

172
1
173
1
174
1
140
1.0
141
1.0
175
1
  7

176
1
177
1
178
1
143
1.0
179
1
  8

270
1
271
1
272
1
145
1.0
146
1.0
273
1
  9

274
1
275
1
276
1
 42
1.0
 72
1
  3

 73
1
 74
1
 75
1
 94
63
  0
MLINESTYLE
  5
22
102
{ACAD_REACTORS
330
10
102
}
330
10
100
AcDbMlineStyle
  2
Standard
 70
0
  3

 62
256
 51
90.0
 52
90.0
 71
2
 49
0.5
 62
256
  6
BYLAYER
 49
-0.5
 62
256
  6
BYLAYER
  0
MLEADERSTYLE
  5
2C
102
{ACAD_REACTORS
330
F
102
}
330
F
100
AcDbMLeaderStyle
179
2
170
2
171
1
172
0
 90
2
 40
0.0
 41
0.0
173
1
 91
-1056964608
 92
-2
290
1
 42
2.0
291
1
 43
8.0
  3
Standard
 44
4.0
300

342
29
174
1
175
1
176
0
178
1
 93
-1056964608
 45
4.0
292
0
297
0
 46
4.0
 94
-1056964608
 47
1.0
 49
1.0
140
1.0
294
1
141
0.0
177
0
142
1.0
295
0
296
0
143
3.75
271
0
272
9
273
9
  0
DICTIONARY
  5
2D
330
A
100
AcDbDictionary
280
1
281
1
  3
CREATED_BY_EZDXF
350
2E
  3
WRITTEN_BY_EZDXF
350
32
  0
DICTIONARYVAR
  5
2E
330
2D
100
DictionaryVariables
280
0
  1
1.3.5 @ 2025-08-20T01:59:29.634773+00:00
  0
DICTIONARYVAR
  5
32
330
2D
100
DictionaryVariables
280
0
  1
1.3.5 @ 2025-08-20T01:59:29.641961+00:00
  0
ENDSEC
  0
EOF
