  0
SECTION
  2
HEADER
  9
$ACADVER
  1
AC1032
  9
$ACADMAINTVER
 90
4
  9
$DWGCODEPAGE
  3
ANSI_1252
  9
$LASTSAVEDBY
  1
ezdxf
  9
$REQUIREDVERSIONS
160
0
  9
$INSBASE
 10
0.0
 20
0.0
 30
0.0
  9
$EXTMIN
 10
1e+20
 20
1e+20
 30
1e+20
  9
$EXTMAX
 10
-1e+20
 20
-1e+20
 30
-1e+20
  9
$LIMMIN
 10
0.0
 20
0.0
  9
$LIMMAX
 10
420.0
 20
297.0
  9
$ORTHOMODE
 70
0
  9
$REGENMODE
 70
1
  9
$FILLMODE
 70
1
  9
$QTEXTMODE
 70
0
  9
$MIRRTEXT
 70
1
  9
$LTSCALE
 40
1.0
  9
$ATTMODE
 70
1
  9
$TEXTSIZE
 40
2.5
  9
$TRACEWID
 40
1.0
  9
$TEXTSTYLE
  7
Standard
  9
$CLAYER
  8
0
  9
$CELTYPE
  6
ByLayer
  9
$CECOLOR
 62
256
  9
$CELTSCALE
 40
1.0
  9
$DISPSILH
 70
0
  9
$DIMSCALE
 40
1.0
  9
$DIMASZ
 40
2.5
  9
$DIMEXO
 40
0.625
  9
$DIMDLI
 40
3.75
  9
$DIMRND
 40
0.0
  9
$DIMDLE
 40
0.0
  9
$DIMEXE
 40
1.25
  9
$DIMTP
 40
0.0
  9
$DIMTM
 40
0.0
  9
$DIMTXT
 40
2.5
  9
$DIMCEN
 40
2.5
  9
$DIMTSZ
 40
0.0
  9
$DIMTOL
 70
0
  9
$DIMLIM
 70
0
  9
$DIMTIH
 70
0
  9
$DIMTOH
 70
0
  9
$DIMSE1
 70
0
  9
$DIMSE2
 70
0
  9
$DIMTAD
 70
1
  9
$DIMZIN
 70
8
  9
$DIMBLK
  1

  9
$DIMASO
 70
1
  9
$DIMSHO
 70
1
  9
$DIMPOST
  1

  9
$DIMAPOST
  1

  9
$DIMALT
 70
0
  9
$DIMALTD
 70
3
  9
$DIMALTF
 40
0.03937007874
  9
$DIMLFAC
 40
1.0
  9
$DIMTOFL
 70
1
  9
$DIMTVP
 40
0.0
  9
$DIMTIX
 70
0
  9
$DIMSOXD
 70
0
  9
$DIMSAH
 70
0
  9
$DIMBLK1
  1

  9
$DIMBLK2
  1

  9
$DIMSTYLE
  2
ISO-25
  9
$DIMCLRD
 70
0
  9
$DIMCLRE
 70
0
  9
$DIMCLRT
 70
0
  9
$DIMTFAC
 40
1.0
  9
$DIMGAP
 40
0.625
  9
$DIMJUST
 70
0
  9
$DIMSD1
 70
0
  9
$DIMSD2
 70
0
  9
$DIMTOLJ
 70
0
  9
$DIMTZIN
 70
8
  9
$DIMALTZ
 70
0
  9
$DIMALTTZ
 70
0
  9
$DIMUPT
 70
0
  9
$DIMDEC
 70
2
  9
$DIMTDEC
 70
2
  9
$DIMALTU
 70
2
  9
$DIMALTTD
 70
3
  9
$DIMTXSTY
  7
Standard
  9
$DIMAUNIT
 70
0
  9
$DIMADEC
 70
0
  9
$DIMALTRND
 40
0.0
  9
$DIMAZIN
 70
0
  9
$DIMDSEP
 70
44
  9
$DIMATFIT
 70
3
  9
$DIMFRAC
 70
0
  9
$DIMLDRBLK
  1

  9
$DIMLUNIT
 70
2
  9
$DIMLWD
 70
-2
  9
$DIMLWE
 70
-2
  9
$DIMTMOVE
 70
0
  9
$DIMFXL
 40
1.0
  9
$DIMFXLON
 70
0
  9
$DIMJOGANG
 40
0.785398163397
  9
$DIMTFILL
 70
0
  9
$DIMTFILLCLR
 70
0
  9
$DIMARCSYM
 70
0
  9
$DIMLTYPE
  6

  9
$DIMLTEX1
  6

  9
$DIMLTEX2
  6

  9
$DIMTXTDIRECTION
 70
0
  9
$LUNITS
 70
2
  9
$LUPREC
 70
4
  9
$SKETCHINC
 40
1.0
  9
$FILLETRAD
 40
10.0
  9
$AUNITS
 70
0
  9
$AUPREC
 70
2
  9
$MENU
  1
.
  9
$ELEVATION
 40
0.0
  9
$PELEVATION
 40
0.0
  9
$THICKNESS
 40
0.0
  9
$LIMCHECK
 70
0
  9
$CHAMFERA
 40
0.0
  9
$CHAMFERB
 40
0.0
  9
$CHAMFERC
 40
0.0
  9
$CHAMFERD
 40
0.0
  9
$SKPOLY
 70
0
  9
$TDCREATE
 40
2460908.124641204
  9
$TDUCREATE
 40
2458532.153996898
  9
$TDUPDATE
 40
2460908.124641204
  9
$TDUUPDATE
 40
2458532.1544311
  9
$TDINDWG
 40
0.0
  9
$TDUSRTIMER
 40
0.0
  9
$USRTIMER
 70
1
  9
$ANGBASE
 50
0.0
  9
$ANGDIR
 70
0
  9
$PDMODE
 70
0
  9
$PDSIZE
 40
0.0
  9
$PLINEWID
 40
0.0
  9
$SPLFRAME
 70
0
  9
$SPLINETYPE
 70
6
  9
$SPLINESEGS
 70
8
  9
$HANDSEED
  5
33
  9
$SURFTAB1
 70
6
  9
$SURFTAB2
 70
6
  9
$SURFTYPE
 70
6
  9
$SURFU
 70
6
  9
$SURFV
 70
6
  9
$UCSBASE
  2

  9
$UCSNAME
  2

  9
$UCSORG
 10
0.0
 20
0.0
 30
0.0
  9
$UCSXDIR
 10
1.0
 20
0.0
 30
0.0
  9
$UCSYDIR
 10
0.0
 20
1.0
 30
0.0
  9
$UCSORTHOREF
  2

  9
$UCSORTHOVIEW
 70
0
  9
$UCSORGTOP
 10
0.0
 20
0.0
 30
0.0
  9
$UCSORGBOTTOM
 10
0.0
 20
0.0
 30
0.0
  9
$UCSORGLEFT
 10
0.0
 20
0.0
 30
0.0
  9
$UCSORGRIGHT
 10
0.0
 20
0.0
 30
0.0
  9
$UCSORGFRONT
 10
0.0
 20
0.0
 30
0.0
  9
$UCSORGBACK
 10
0.0
 20
0.0
 30
0.0
  9
$PUCSBASE
  2

  9
$PUCSNAME
  2

  9
$PUCSORG
 10
0.0
 20
0.0
 30
0.0
  9
$PUCSXDIR
 10
1.0
 20
0.0
 30
0.0
  9
$PUCSYDIR
 10
0.0
 20
1.0
 30
0.0
  9
$PUCSORTHOREF
  2

  9
$PUCSORTHOVIEW
 70
0
  9
$PUCSORGTOP
 10
0.0
 20
0.0
 30
0.0
  9
$PUCSORGBOTTOM
 10
0.0
 20
0.0
 30
0.0
  9
$PUCSORGLEFT
 10
0.0
 20
0.0
 30
0.0
  9
$PUCSORGRIGHT
 10
0.0
 20
0.0
 30
0.0
  9
$PUCSORGFRONT
 10
0.0
 20
0.0
 30
0.0
  9
$PUCSORGBACK
 10
0.0
 20
0.0
 30
0.0
  9
$USERI1
 70
0
  9
$USERI2
 70
0
  9
$USERI3
 70
0
  9
$USERI4
 70
0
  9
$USERI5
 70
0
  9
$USERR1
 40
0.0
  9
$USERR2
 40
0.0
  9
$USERR3
 40
0.0
  9
$USERR4
 40
0.0
  9
$USERR5
 40
0.0
  9
$WORLDVIEW
 70
1
  9
$SHADEDGE
 70
3
  9
$SHADEDIF
 70
70
  9
$TILEMODE
 70
1
  9
$MAXACTVP
 70
64
  9
$PINSBASE
 10
0.0
 20
0.0
 30
0.0
  9
$PLIMCHECK
 70
0
  9
$PEXTMIN
 10
1e+20
 20
1e+20
 30
1e+20
  9
$PEXTMAX
 10
-1e+20
 20
-1e+20
 30
-1e+20
  9
$PLIMMIN
 10
0.0
 20
0.0
  9
$PLIMMAX
 10
420.0
 20
297.0
  9
$UNITMODE
 70
0
  9
$VISRETAIN
 70
1
  9
$PLINEGEN
 70
0
  9
$PSLTSCALE
 70
1
  9
$TREEDEPTH
 70
3020
  9
$CMLSTYLE
  2
Standard
  9
$CMLJUST
 70
0
  9
$CMLSCALE
 40
20.0
  9
$PROXYGRAPHICS
 70
1
  9
$MEASUREMENT
 70
1
  9
$CELWEIGHT
370
-1
  9
$ENDCAPS
280
0
  9
$JOINSTYLE
280
0
  9
$LWDISPLAY
290
0
  9
$INSUNITS
 70
6
  9
$HYPERLINKBASE
  1

  9
$STYLESHEET
  1

  9
$XEDIT
290
1
  9
$CEPSNTYPE
380
0
  9
$PSTYLEMODE
290
1
  9
$FINGERPRINTGUID
  2
{CBF64253-905C-4EE3-B5D1-FB1784F6CF84}
  9
$VERSIONGUID
  2
{CE0D3786-9B48-4219-B87B-1B0BA096C4A7}
  9
$EXTNAMES
290
1
  9
$PSVPSCALE
 40
0.0
  9
$OLESTARTUP
290
0
  9
$SORTENTS
280
127
  9
$INDEXCTL
280
0
  9
$HIDETEXT
280
1
  9
$XCLIPFRAME
280
1
  9
$HALOGAP
280
0
  9
$OBSCOLOR
 70
257
  9
$OBSLTYPE
280
0
  9
$INTERSECTIONDISPLAY
280
0
  9
$INTERSECTIONCOLOR
 70
257
  9
$DIMASSOC
280
2
  9
$PROJECTNAME
  1

  9
$CAMERADISPLAY
290
0
  9
$LENSLENGTH
 40
50.0
  9
$CAMERAHEIGHT
 40
0.0
  9
$STEPSPERSEC
 40
24.0
  9
$STEPSIZE
 40
100.0
  9
$3DDWFPREC
 40
2.0
  9
$PSOLWIDTH
 40
0.005
  9
$PSOLHEIGHT
 40
0.08
  9
$LOFTANG1
 40
1.570796326795
  9
$LOFTANG2
 40
1.570796326795
  9
$LOFTMAG1
 40
0.0
  9
$LOFTMAG2
 40
0.0
  9
$LOFTPARAM
 70
7
  9
$LOFTNORMALS
280
1
  9
$LATITUDE
 40
37.795
  9
$LONGITUDE
 40
-122.394
  9
$NORTHDIRECTION
 40
0.0
  9
$TIMEZONE
 70
-8000
  9
$LIGHTGLYPHDISPLAY
280
1
  9
$TILEMODELIGHTSYNCH
280
1
  9
$CMATERIAL
347
20
  9
$SOLIDHIST
280
0
  9
$SHOWHIST
280
1
  9
$DWFFRAME
280
2
  9
$DGNFRAME
280
2
  9
$REALWORLDSCALE
290
1
  9
$INTERFERECOLOR
 62
256
  9
$CSHADOW
280
0
  9
$SHADOWPLANELOCATION
 40
0.0
  0
ENDSEC
  0
SECTION
  2
CLASSES
  0
CLASS
  1
ACDBDICTIONARYWDFLT
  2
AcDbDictionaryWithDefault
  3
ObjectDBX Classes
 90
0
 91
0
280
0
281
0
  0
CLASS
  1
SUN
  2
AcDbSun
  3
SCENEOE
 90
1153
 91
0
280
0
281
0
  0
CLASS
  1
VISUALSTYLE
  2
AcDbVisualStyle
  3
ObjectDBX Classes
 90
4095
 91
0
280
0
281
0
  0
CLASS
  1
MATERIAL
  2
AcDbMaterial
  3
ObjectDBX Classes
 90
1153
 91
0
280
0
281
0
  0
CLASS
  1
SCALE
  2
AcDbScale
  3
ObjectDBX Classes
 90
1153
 91
0
280
0
281
0
  0
CLASS
  1
TABLESTYLE
  2
AcDbTableStyle
  3
ObjectDBX Classes
 90
4095
 91
0
280
0
281
0
  0
CLASS
  1
MLEADERSTYLE
  2
AcDbMLeaderStyle
  3
ACDB_MLEADERSTYLE_CLASS
 90
4095
 91
0
280
0
281
0
  0
CLASS
  1
DICTIONARYVAR
  2
AcDbDictionaryVar
  3
ObjectDBX Classes
 90
0
 91
0
280
0
281
0
  0
CLASS
  1
CELLSTYLEMAP
  2
AcDbCellStyleMap
  3
ObjectDBX Classes
 90
1152
 91
0
280
0
281
0
  0
CLASS
  1
MENTALRAYRENDERSETTINGS
  2
AcDbMentalRayRenderSettings
  3
SCENEOE
 90
1024
 91
0
280
0
281
0
  0
CLASS
  1
ACDBDETAILVIEWSTYLE
  2
AcDbDetailViewStyle
  3
ObjectDBX Classes
 90
1025
 91
0
280
0
281
0
  0
CLASS
  1
ACDBSECTIONVIEWSTYLE
  2
AcDbSectionViewStyle
  3
ObjectDBX Classes
 90
1025
 91
0
280
0
281
0
  0
CLASS
  1
RASTERVARIABLES
  2
AcDbRasterVariables
  3
ISM
 90
0
 91
0
280
0
281
0
  0
CLASS
  1
ACDBPLACEHOLDER
  2
AcDbPlaceHolder
  3
ObjectDBX Classes
 90
0
 91
0
280
0
281
0
  0
CLASS
  1
LAYOUT
  2
AcDbLayout
  3
ObjectDBX Classes
 90
0
 91
0
280
0
281
0
  0
ENDSEC
  0
SECTION
  2
TABLES
  0
TABLE
  2
VPORT
  5
8
330
0
100
AcDbSymbolTable
 70
1
  0
VPORT
  5
23
330
8
100
AcDbSymbolTableRecord
100
AcDbViewportTableRecord
  2
*Active
 70
0
 10
0.0
 20
0.0
 11
1.0
 21
1.0
 12
0.0
 22
0.0
 13
0.0
 23
0.0
 14
0.5
 24
0.5
 15
0.5
 25
0.5
 16
0.0
 26
0.0
 36
1.0
 17
0.0
 27
0.0
 37
0.0
 40
1000.0
 41
1.34
 42
50.0
 43
0.0
 44
0.0
 50
0.0
 51
0.0
 71
0
 72
1000
 73
1
 74
3
 75
0
 76
0
 77
0
 78
0
281
0
 65
0
146
0.0
  0
ENDTAB
  0
TABLE
  2
LTYPE
  5
2
330
0
100
AcDbSymbolTable
 70
3
  0
LTYPE
  5
24
330
2
100
AcDbSymbolTableRecord
100
AcDbLinetypeTableRecord
  2
ByBlock
 70
0
  3

 72
65
 73
0
 40
0.0
  0
LTYPE
  5
25
330
2
100
AcDbSymbolTableRecord
100
AcDbLinetypeTableRecord
  2
ByLayer
 70
0
  3

 72
65
 73
0
 40
0.0
  0
LTYPE
  5
26
330
2
100
AcDbSymbolTableRecord
100
AcDbLinetypeTableRecord
  2
Continuous
 70
0
  3

 72
65
 73
0
 40
0.0
  0
ENDTAB
  0
TABLE
  2
LAYER
  5
1
330
0
100
AcDbSymbolTable
 70
2
  0
LAYER
  5
27
330
1
100
AcDbSymbolTableRecord
100
AcDbLayerTableRecord
  2
0
 70
0
 62
7
  6
Continuous
370
-3
390
13
347
21
  0
LAYER
  5
28
330
1
100
AcDbSymbolTableRecord
100
AcDbLayerTableRecord
  2
Defpoints
 70
0
 62
7
  6
Continuous
290
0
370
-3
390
13
347
21
  0
ENDTAB
  0
TABLE
  2
STYLE
  5
5
330
0
100
AcDbSymbolTable
 70
1
  0
STYLE
  5
29
330
5
100
AcDbSymbolTableRecord
100
AcDbTextStyleTableRecord
  2
Standard
 70
0
 40
0.0
 41
1.0
 50
0.0
 71
0
 42
2.5
  3
txt
  4

  0
ENDTAB
  0
TABLE
  2
VIEW
  5
7
330
0
100
AcDbSymbolTable
 70
0
  0
ENDTAB
  0
TABLE
  2
UCS
  5
6
330
0
100
AcDbSymbolTable
 70
0
  0
ENDTAB
  0
TABLE
  2
APPID
  5
3
330
0
100
AcDbSymbolTable
 70
3
  0
APPID
  5
2A
330
3
100
AcDbSymbolTableRecord
100
AcDbRegAppTableRecord
  2
ACAD
 70
0
  0
APPID
  5
30
330
3
100
AcDbSymbolTableRecord
100
AcDbRegAppTableRecord
  2
HATCHBACKGROUNDCOLOR
 70
0
  0
APPID
  5
31
330
3
100
AcDbSymbolTableRecord
100
AcDbRegAppTableRecord
  2
EZDXF
 70
0
  0
ENDTAB
  0
TABLE
  2
DIMSTYLE
  5
4
330
0
100
AcDbSymbolTable
 70
1
100
AcDbDimStyleTable
  0
DIMSTYLE
105
2B
330
4
100
AcDbSymbolTableRecord
100
AcDbDimStyleTableRecord
  2
Standard
 70
0
 40
1.0
 41
2.5
 42
0.625
 43
3.75
 44
1.25
 45
0.0
 46
0.0
 47
0.0
 48
0.0
 49
2.5
140
2.5
141
2.5
142
0.0
143
0.03937007874
144
1.0
145
0.0
146
1.0
147
0.625
148
0.0
 69
0
 70
0
 71
0
 72
0
 73
0
 74
0
 75
0
 76
0
 77
1
 78
8
 79
3
170
0
171
3
172
1
173
0
174
0
175
0
176
0
177
0
178
0
179
2
271
2
272
2
273
2
274
3
275
0
276
0
277
2
278
44
279
0
280
0
281
0
282
0
283
0
284
8
285
0
286
0
288
0
289
3
290
0
371
-2
372
-2
  0
ENDTAB
  0
TABLE
  2
BLOCK_RECORD
  5
9
330
0
100
AcDbSymbolTable
 70
2
  0
BLOCK_RECORD
  5
17
330
9
100
AcDbSymbolTableRecord
100
AcDbBlockTableRecord
  2
*Model_Space
340
1A
 70
0
280
1
281
0
  0
BLOCK_RECORD
  5
1B
330
9
100
AcDbSymbolTableRecord
100
AcDbBlockTableRecord
  2
*Paper_Space
340
1E
 70
0
280
1
281
0
  0
ENDTAB
  0
ENDSEC
  0
SECTION
  2
BLOCKS
  0
BLOCK
  5
18
330
17
100
AcDbEntity
  8
0
100
AcDbBlockBegin
  2
*Model_Space
 70
0
 10
0.0
 20
0.0
 30
0.0
  3
*Model_Space
  1

  0
ENDBLK
  5
19
330
17
100
AcDbEntity
  8
0
100
AcDbBlockEnd
  0
BLOCK
  5
1C
330
1B
100
AcDbEntity
  8
0
100
AcDbBlockBegin
  2
*Paper_Space
 70
0
 10
0.0
 20
0.0
 30
0.0
  3
*Paper_Space
  1

  0
ENDBLK
  5
1D
330
1B
100
AcDbEntity
  8
0
100
AcDbBlockEnd
  0
ENDSEC
  0
SECTION
  2
ENTITIES
  0
LWPOLYLINE
  5
2F
330
17
100
AcDbEntity
  8
0
100
AcDbPolyline
 90
721
 70
1
 10
48.72175531140734
 20
3.859025010085128
 10
48.72033560104015
 20
3.859415810041998
 10
48.716087545879006
 20
3.860442591786662
 10
48.709033259077835
 20
3.8618146282215142
 10
48.699089011356065
 20
3.863670913989801
 10
48.68641674543431
 20
3.8658059779226965
 10
48.67093825893742
 20
3.868286151073129
 10
48.65258639223599
 20
3.8710325827860355
 10
48.63150651286703
 20
3.874057719927224
 10
48.60763146120121
 20
3.877282711841636
 10
48.58087749136061
 20
3.8808467713814956
 10
48.55140103575786
 20
3.8846168727593184
 10
48.51912939679335
 20
3.888586974383016
 10
48.484057042029285
 20
3.892829812579237
 10
48.44619503634127
 20
3.8971999146946867
 10
48.40553230378883
 20
3.9018428988553127
 10
48.362147063344445
 20
3.9066922157992057
 10
48.31596661740857
 20
3.9117418239342827
 10
48.26698543354339
 20
3.917064459587188
 10
48.21528725209433
 20
3.922520982642023
 10
48.16078831611864
 20
3.9282507514236666
 10
48.10349968495952
 20
3.9341083660151535
 10
48.04355565574586
 20
3.9402518186719075
 10
47.98074370131136
 20
3.9465898118730647
 10
47.915281864662845
 20
3.953141125021825
 10
47.84702477273086
 20
3.9598933839887063
 10
47.77604509545284
 20
3.96685299404743
 10
47.70234282729632
 20
3.974020027934323
 10
47.62591243029108
 20
3.9814672947123575
 10
47.546753887839785
 20
3.9891950125905136
 10
47.46487825928562
 20
3.997057781651826
 10
47.38027447422052
 20
4.005201147285913
 10
47.29302072948727
 20
4.0135588511761755
 10
47.20303880611335
 20
4.022197442584519
 10
47.11033974684461
 20
4.0309717398029585
 10
47.014985173340165
 20
4.040033402549527
 10
46.916969536564864
 20
4.049455385359849
 10
46.81630942276728
 20
4.0590196247266395
 10
46.71292106393979
 20
4.068865624447434
 10
46.606955360057135
 20
4.078933095061388
 10
46.49826138901479
 20
4.08928261697465
 10
46.386984512817314
 20
4.0999267097893535
 10
46.273052028332714
 20
4.110859404649741
 10
46.156536611030745
 20
4.122087034093199
 10
46.03737109021725
 20
4.133530892937327
 10
45.91562814136205
 20
4.1451973137195175
 10
45.79122399645749
 20
4.157225800237302
 10
45.66430954994595
 20
4.169556135766166
 10
45.53481209869539
 20
4.182182351450352
 10
45.402731631640926
 20
4.1951045927625135
 10
45.268068121120386
 20
4.208323223384281
 10
45.13088872123068
 20
4.221917166707042
 10
44.99112625021269
 20
4.235807863021046
 10
44.84884785663089
 20
4.250074308454002
 10
44.70405904526091
 20
4.2646441303608995
 10
44.556770875445906
 20
4.279371928824772
 10
44.407044946715224
 20
4.294409654508959
 10
44.254797496593675
 20
4.309896738474665
 10
44.10002849741908
 20
4.325833544403523
 10
43.94282722750711
 20
4.342008123116663
 10
43.78318813229022
 20
4.358493501886039
 10
43.62111120070352
 20
4.3752898261843
 10
43.45657980777142
 20
4.392615668673019
 10
43.28962159908563
 20
4.410107565927949
 10
43.12029818524036
 20
4.427917323139771
 10
42.94860401720048
 20
4.446117894844112
 10
42.774460853863765
 20
4.464776121248186
 10
42.59801958414011
 20
4.483831858363809
 10
42.41921303180284
 20
4.503206473744895
 10
42.23804118578709
 20
4.522900112864103
 10
42.054565645622226
 20
4.543064726384771
 10
41.868808518929676
 20
4.563409659945619
 10
41.68068604323427
 20
4.584074344607853
 10
41.49033803703786
 20
4.605144181772906
 10
41.297764483743144
 20
4.626619389649759
 10
41.10290374509369
 20
4.648348526729358
 10
40.90575026098954
 20
4.670404693019986
 10
40.70644939343517
 20
4.69280040812377
 10
40.50491736889059
 20
4.715675248574575
 10
40.301170768071856
 20
4.738811223601441
 10
40.09528226091635
 20
4.762214738478084
 10
39.88725183082676
 20
4.785886011413488
 10
39.677068385265315
 20
4.809970878742577
 10
39.46473190763469
 20
4.834469558674332
 10
39.25024791377539
 20
4.8593095330910865
 10
39.033767298129725
 20
4.884430585268327
 10
38.81513912199587
 20
4.90989351382118
 10
38.59443606084365
 20
4.935704651287037
 10
38.37174738745631
 20
4.961652121223357
 10
38.14699484966668
 20
4.98780290931
 10
37.920234525631244
 20
5.014381557064303
 10
37.69153909081979
 20
5.041394397023659
 10
37.46077419831146
 20
5.06868409155958
 10
37.22810181848905
 20
5.096044805821608
 10
36.99349979947166
 20
5.123767776061634
 10
36.75697365709969
 20
5.151780484161992
 10
36.518517836805664
 20
5.1801559573946365
 10
36.27821607340255
 20
5.208755128379992
 10
36.036068355825456
 20
5.237578142590715
 10
35.79200196434506
 20
5.266619249380021
 10
35.54615673406055
 20
5.295963631940368
 10
35.298459956307454
 20
5.32560539415232
 10
35.04899537143121
 20
5.355405395899978
 10
34.79776295730207
 20
5.3853639281286485
 10
34.54483539492228
 20
5.415487250639397
 10
34.290134432124724
 20
5.445842349112093
 10
34.03372168503608
 20
5.476580956001093
 10
33.775541025707966
 20
5.507479184416005
 10
33.51580500896887
 20
5.538627968196062
 10
33.25439034724113
 20
5.569724569795814
 10
32.99129148042471
 20
5.600842089223536
 10
32.726637195340494
 20
5.632210964115999
 10
32.46042193742096
 20
5.6639042217451525
 10
32.192516892183036
 20
5.695691788155865
 10
31.923223903835744
 20
5.7274525025358445
 10
31.652330389888412
 20
5.759095794727491
 10
31.37996512609703
 20
5.790852247840223
 10
31.106049865826918
 20
5.82278877481758
 10
30.830735525650173
 20
5.854844867989743
 10
30.553965988683274
 20
5.886796494993666
 10
30.275802871052907
 20
5.9187953882837085
 10
29.996235085753717
 20
5.950987311458468
 10
29.715290283909827
 20
5.983008728357369
 10
29.432973981361723
 20
6.014787120862744
 10
29.149403900054697
 20
6.046698399264651
 10
28.86444015509764
 20
6.078658034997577
 10
28.578222598187015
 20
6.110750993044994
 10
28.290784412884786
 20
6.14254100091968
 10
28.0021200501558
 20
6.17410101315726
 10
27.7122184340596
 20
6.205576647883677
 10
27.4210629396206
 20
6.237186477760508
 10
27.128821102854033
 20
6.268651495192685
 10
26.835369619584878
 20
6.299669180843737
 10
26.540910001895778
 20
6.330475650260883
 10
26.245269153671533
 20
6.361423011047468
 10
25.94854190779533
 20
6.392226286752666
 10
25.650750366356206
 20
6.422594895751525
 10
25.352028876275025
 20
6.452686175672531
 10
25.052226471187748
 20
6.482561288812442
 10
24.751483019388203
 20
6.512304981945755
 10
24.449731333584836
 20
6.541838768099042
 10
24.147055176252838
 20
6.571023216211095
 10
23.843527244991797
 20
6.599864367874004
 10
23.53907481453993
 20
6.628356545177312
 10
23.233843296693713
 20
6.656511613096215
 10
22.927687257526923
 20
6.684317997600826
 10
22.620741032895573
 20
6.7119331817922845
 10
22.31301016076988
 20
6.739284356607616
 10
22.004522281209105
 20
6.7660081313588964
 10
21.695266318272775
 20
6.792250124172072
 10
21.385382156852
 20
6.818094863612655
 10
21.074718830582743
 20
6.843603511977406
 10
20.763432816137094
 20
6.868642461588226
 10
20.45152964042041
 20
6.893139048854794
 10
20.139014830338056
 20
6.917020610186789
 10
19.825877298884677
 20
6.940432909182816
 10
19.512184233351814
 20
6.963454432816295
 10
19.19793561714214
 20
6.9860853992962095
 10
18.88322075623352
 20
7.0081134957620534
 10
18.567972463334428
 20
7.029460235240401
 10
18.252268974014676
 20
7.050058850260363
 10
17.936166405157756
 20
7.070133373184988
 10
17.619575434188498
 20
7.089896335083761
 10
17.302652554376305
 20
7.109213910069602
 10
16.985369305494228
 20
7.127498456882563
 10
16.667692476318166
 20
7.145186611691497
 10
16.34976197940141
 20
7.162362539380289
 10
16.03151614329293
 20
7.178875234857844
 10
15.712960505962947
 20
7.194651889061189
 10
15.394223892959424
 20
7.209922430472802
 10
15.075239128055696
 20
7.224608226646604
 10
14.75609551169719
 20
7.238497037458418
 10
14.436720324154575
 20
7.251583112261462
 10
14.117253477981151
 20
7.263950615939617
 10
13.797689429674236
 20
7.275672430292182
 10
13.478044782079676
 20
7.286530273602891
 10
13.158313991694792
 20
7.296597027671044
 10
12.83856425134356
 20
7.305951106733741
 10
12.51870624398324
 20
7.314804969124142
 10
12.198918603699298
 20
7.322733698175926
 10
11.879201330491744
 20
7.329737293889097
 10
11.559548897455207
 20
7.3358884198539736
 10
11.239955761087007
 20
7.341259957869851
 10
10.920500190151603
 20
7.3457847040478885
 10
10.60110392694941
 20
7.349529716804279
 10
10.281917948909353
 20
7.352433688369606
 10
9.962953326439449
 20
7.354351073354254
 10
9.644204527101904
 20
7.355354608084866
 10
9.325666023991356
 20
7.355516956151763
 10
9.007343349545618
 20
7.3547653812283
 10
8.689393030228686
 20
7.352965621009437
 10
8.371731270370761
 20
7.35025754297434
 10
8.05441974142289
 20
7.3467921522141015
 10
7.7374133803123035
 20
7.342200089185036
 10
7.420846578219381
 20
7.336638109625017
 10
7.104702754428029
 20
7.330324204305004
 10
6.788925769925012
 20
7.323034631807259
 10
6.473672162239211
 20
7.314634984354086
 10
6.158930872027475
 20
7.305270661862454
 10
5.844640233371188
 20
7.294790586504943
 10
5.530934654048042
 20
7.283351295810446
 10
5.217752473671874
 20
7.2708016392152155
 10
4.9052336269257335
 20
7.257225490657828
 10
4.593216065972679
 20
7.242829703297312
 10
4.281856328341603
 20
7.227479869355978
 10
3.97117654378371
 20
7.210885043527239
 10
3.6611711964585036
 20
7.193117743928762
 10
3.351896419846802
 20
7.174401784714614
 10
3.0433577685161586
 20
7.15466413861284
 10
2.7355607804367983
 20
7.133831996560467
 10
2.4285781974678167
 20
7.111910818258972
 10
2.122326223939402
 20
7.089040471187516
 10
1.816866553432345
 20
7.065371669491889
 10
1.5122940520245016
 20
7.040619000303304
 10
1.208619795656347
 20
7.014636845495816
 10
0.905832736049587
 20
6.987570459513737
 10
0.6040005860773556
 20
6.959491419379463
 10
0.3030515056679164
 20
6.930382409370277
 10
0.00305271530744226
 20
6.900321480041644
 10
-0.2959285811152284
 20
6.869386900158012
 10
-0.5939429901755368
 20
6.837282191974995
 10
-0.8909177755468373
 20
6.804012887930394
 10
-1.1868078630914922
 20
6.7699482020952395
 10
-1.4816749242605332
 20
6.73493712937844
 10
-1.7753679539628788
 20
6.69891799832895
 10
-2.0680324248518205
 20
6.661879744071166
 10
-2.35952286427406
 20
6.623833431480693
 10
-2.6497776007785556
 20
6.584930065648622
 10
-2.9389476394563987
 20
6.545231318025995
 10
-3.226932581791943
 20
6.504379039417386
 10
-3.5136201497586983
 20
6.46282071265827
 10
-3.7990941445589037
 20
6.420696277964143
 10
-4.083394107892417
 20
6.3775637849373235
 10
-4.366301830779289
 20
6.333439830891214
 10
-4.64790664685957
 20
6.288537092367953
 10
-4.928214088571063
 20
6.242928305694186
 10
-5.207213091038164
 20
6.1964679982166215
 10
-5.484763714045379
 20
6.1492399711375025
 10
-5.761011430246003
 20
6.101233159581235
 10
-6.035827364300146
 20
6.052676837403354
 10
-6.309200451332205
 20
6.003425531950567
 10
-6.581125158904381
 20
5.953406506896231
 10
-6.851607019454474
 20
5.9026924985669895
 10
-7.120584361531437
 20
5.851434512053934
 10
-7.388129921461918
 20
5.799627014919268
 10
-7.6540871617170225
 20
5.747135599385296
 10
-7.91845608229675
 20
5.693960265452022
 10
-8.181303887089946
 20
5.640022744354995
 10
-8.442563372207772
 20
5.585401304858663
 10
-8.702251134963616
 20
5.530314155942967
 10
-8.960299971468642
 20
5.47483956637235
 10
-9.216687751971646
 20
5.418686590840231
 10
-9.47148721279927
 20
5.3618496969088065
 10
-9.724474612533784
 20
5.304272745564832
 10
-9.975812021141873
 20
5.246162880912646
 10
-10.225504971061344
 20
5.187592839278895
 10
-10.473407989638893
 20
5.12857368553918
 10
-10.719515544436735
 20
5.069032683366853
 10
-10.963883774468105
 20
5.008746091344176
 10
-11.20646207315756
 20
4.948010387215534
 10
-11.447267037818506
 20
4.887043779960867
 10
-11.686198269935288
 20
4.825488120384742
 10
-11.92332850583455
 20
4.76333787604936
 10
-12.158523337738611
 20
4.700749584483614
 10
-12.391855501974112
 20
4.637717713249703
 10
-12.62333053097885
 20
4.574314998674274
 10
-12.85285909111278
 20
4.510328764215188
 10
-13.080452247251506
 20
4.445904482525739
 10
-13.30610999939502
 20
4.381042153605924
 10
-13.52985447729453
 20
4.316032722762331
 10
-13.751534675858945
 20
4.250814518543914
 10
-13.971279470428147
 20
4.185158267095132
 10
-14.1890050597999
 20
4.118924028200493
 10
-14.404660837398753
 20
4.052408279604385
 10
-14.61833060442695
 20
3.9857509615222964
 10
-14.829919494806651
 20
3.9186666610854446
 10
-15.039365837086807
 20
3.851306383384923
 10
-15.246820636358507
 20
3.7837317998717754
 10
-15.452138419968463
 20
3.715953975421604
 10
-15.655302590603274
 20
3.6477547010544678
 10
-15.856329745576339
 20
3.57935218575031
 10
-16.055225417325463
 20
3.5108191658357715
 10
-16.25198407341283
 20
3.4420829049842094
 10
-16.446532977511815
 20
3.3731489356334245
 10
-16.638866597184606
 20
3.3039445214567666
 10
-16.829063201195655
 20
3.234536866343087
 10
-17.016977316891666
 20
3.164937035167981
 10
-17.202620009148237
 20
3.095290500584744
 10
-17.386125685743057
 20
3.025440725064485
 10
-17.5672761376962
 20
2.9554043059206005
 10
-17.7461385688965
 20
2.885102974388646
 10
-17.922735109095164
 20
2.814827675775207
 10
-18.097065758292196
 20
2.744578410080283
 10
-18.269046715285338
 20
2.6742152370883816
 10
-18.438672447636794
 20
2.6036654204728573
 10
-18.60601015923542
 20
2.5328506914692612
 10
-18.77094203961691
 20
2.462145796586428
 10
-18.933535292670122
 20
2.3914724670599106
 10
-19.09377885351945
 20
2.320685230236415
 10
-19.25159998583824
 20
2.2497896185537427
 10
-19.407009754502102
 20
2.1789311046651862
 10
-19.55999709463544
 20
2.1079642159174528
 10
-19.710567538676038
 20
2.036961688637189
 10
-19.858726619061713
 20
1.9659962591510398
 10
-20.004390534590208
 20
1.8949279872435143
 10
-20.147575882574927
 20
1.8239750818945517
 10
-20.28833326959132
 20
1.752841065359765
 10
-20.426612089063934
 20
1.6818224153835406
 10
-20.56240680855497
 20
1.6108463956392323
 10
-20.69571189562663
 20
1.5398402698001932
 10
-20.826454613952272
 20
1.4688095703042245
 10
-20.954713232296335
 20
1.3978215010401709
 10
-21.080431611645576
 20
1.3270998034257733
 10
-21.20359868712439
 20
1.256499004807738
 10
-21.32421445873279
 20
1.186019105186065
 10
-21.442357195235203
 20
1.1157273084496004
 10
-21.557875891540558
 20
1.045561943147299
 10
-21.670854348851087
 20
0.9756629494946527
 10
-21.781230895715748
 20
0.9061813325827544
 10
-21.88907826846119
 20
0.8371115599738038
 10
-21.994312665885158
 20
0.7683136914523092
 10
-22.09701235675211
 20
0.6998549309071153
 10
-22.197031868408747
 20
0.6317463432138244
 10
-22.294527738383962
 20
0.5641223361501271
 10
-22.389360026462263
 20
0.49706671091827087
 10
-22.481590404094696
 20
0.43042846242716315
 10
-22.571218871281264
 20
0.3642075906768033
 10
-22.658245428021964
 20
0.29840409566719184
 10
-22.74260840286575
 20
0.23316898248942125
 10
-22.82430779581262
 20
0.16850225114349168
 10
-22.90339974587582
 20
0.104180160211664
 10
-22.97982811404211
 20
0.04042645111167732
 10
-23.053570770560285
 20
-0.023049821463053732
 10
-23.12464984518155
 20
-0.08595771220594338
 10
-23.193043208154695
 20
-0.1485881664235774
 10
-23.258761924355326
 20
-0.21079571146266302
 10
-23.32180599378345
 20
-0.2725803473232004
 10
-23.382097147674607
 20
-0.3340092778940357
 10
-23.439791923557696
 20
-0.3949480953974761
 10
-23.49465551513938
 20
-0.4555984115000605
 10
-23.5469171962752
 20
-0.5158313508618968
 10
-23.596425961874054
 20
-0.5757085849340309
 10
-23.64319840924935
 20
-0.6350119047365235
 10
-23.687296209852132
 20
-0.6938923153604675
 10
-23.72865215979355
 20
-0.7522715480414168
 10
-23.767288388824813
 20
-0.8098586574727856
 10
-23.803261035959164
 20
-0.8668773850723136
 10
-23.836508429745553
 20
-0.9231767257489073
 10
-23.867041635059586
 20
-0.9786112068492742
 10
-23.894882781652456
 20
-1.032889883066829
 10
-23.920031869524173
 20
-1.086012754401572
 10
-23.942572699876976
 20
-1.1378398806380103
 10
-23.962387462246575
 20
-1.1879965152673118
 10
-23.979571022710825
 20
-1.2361972454206915
 10
-23.994251441974363
 20
-1.281720240269486
 10
-24.006321974448504
 20
-1.3240452806515703
 10
-24.015943875464703
 20
-1.3620141177784038
 10
-24.023278400354403
 20
-1.394468502861444
 10
-24.02831285497152
 20
-1.4196516991855792
 10
-24.031258286587708
 20
-1.435750831022451
 10
-23.997282466812575
 20
-1.900713810937451
 10
-23.99561832227848
 20
-1.9043182472782099
 10
-23.990631421114
 20
-1.91505881997384
 10
-23.982343893070333
 20
-1.9326445837177562
 10
-23.970588950378232
 20
-1.9583065236251458
 10
-23.955395884497182
 20
-1.9935831674311828
 10
-23.93697964586615
 20
-2.0346866937124566
 10
-23.915439003730295
 20
-2.079356743905131
 10
-23.890991352434316
 20
-2.126658810638403
 10
-23.86368013684537
 20
-2.1750598986149003
 10
-23.833482412577016
 20
-2.2238998484570045
 10
-23.80057131447155
 20
-2.272826043407085
 10
-23.76489623595352
 20
-2.321542005720755
 10
-23.726479306774127
 20
-2.3697567900914307
 10
-23.68533159180898
 20
-2.4173249238658188
 10
-23.641453091058068
 20
-2.4642464070439187
 10
-23.594922073285844
 20
-2.510454035736885
 10
-23.545676867041262
 20
-2.555796804853625
 10
-23.49371193988652
 20
-2.600347450720785
 10
-23.439105560586068
 20
-2.644038769449517
 10
-23.38177392793765
 20
-2.687010701255316
 10
-23.32172257437908
 20
-2.7291905098115348
 10
-23.259108037439244
 20
-2.7704437873404806
 10
-23.1936955108248
 20
-2.8109721455086927
 10
-23.12570873595349
 20
-2.850719445302924
 10
-23.054996707734215
 20
-2.8897473581742217
 10
-22.98163769493144
 20
-2.92798868023374
 10
-22.905637229982943
 20
-2.965370675154831
 10
-22.826978715575333
 20
-3.0021115519174346
 10
-22.745673216584212
 20
-3.0380658378682583
 10
-22.66169860325838
 20
-3.0735244783138875
 10
-22.575071472911233
 20
-3.1082692642743828
 10
-22.48585349699382
 20
-3.142451200840837
 10
-22.393971939179487
 20
-3.17606475557545
 10
-22.299415734592642
 20
-3.209255401131515
 10
-22.202263151997734
 20
-3.2419559336201855
 10
-22.102508658956957
 20
-3.274239089368108
 10
-22.000152255470315
 20
-3.306104868375282
 10
-21.89510460789775
 20
-3.3377659471838466
 10
-21.78751672133037
 20
-3.369160654342757
 10
-21.677248655552674
 20
-3.4002051886497635
 10
-21.56444588321796
 20
-3.43091061498047
 10
-21.449024603123966
 20
-3.4614168735503665
 10
-21.33105755159736
 20
-3.4917294967972548
 10
-21.210477524749287
 20
-3.521770215956687
 10
-21.087368323781988
 20
-3.551399090813172
 10
-20.961651679931027
 20
-3.580683325255555
 10
-20.833467533411877
 20
-3.609706720486083
 10
-20.70274314789792
 20
-3.638463744066956
 10
-20.569478523389137
 20
-3.666954395998173
 10
-20.43369025719893
 20
-3.6949604672997967
 10
-20.295451085653944
 20
-3.722487490409626
 10
-20.154688272427546
 20
-3.7495299328898613
 10
-20.011463488970765
 20
-3.7762387998315954
 10
-19.865776735283614
 20
-3.802614091234828
 10
-19.71765014111729
 20
-3.8283648617929735
 10
-19.567145377922834
 20
-3.853642116597126
 10
-19.414195241811402
 20
-3.878367586882838
 10
-19.258794200345196
 20
-3.902614008976756
 10
-19.101014989850867
 20
-3.9263869153166797
 10
-18.940863142766208
 20
-3.949613569575965
 10
-18.77833312665342
 20
-3.972366708081255
 10
-18.613424941512502
 20
-3.9946463308325515
 10
-18.446144119781255
 20
-4.016379701503207
 10
-18.276557865348526
 20
-4.037645088857672
 10
-18.104666178214316
 20
-4.058442492895941
 10
-17.930401854489777
 20
-4.07869364485357
 10
-17.753899301952604
 20
-4.098555082259452
 10
-17.575091316713948
 20
-4.117948536349142
 10
-17.393972366336012
 20
-4.136946743449284
 10
-17.210620719583233
 20
-4.155482499671034
 10
-17.02505297376903
 20
-4.173337596034449
 10
-16.83725253157998
 20
-4.190730241519473
 10
-16.647135591813857
 20
-4.207800376341595
 10
-16.454925895888387
 20
-4.224491861487572
 10
-16.26048903602588
 20
-4.240648159428509
 10
-16.063830544664135
 20
-4.25619653383776
 10
-15.865084829580853
 20
-4.2712935222442185
 10
-15.664173622011582
 20
-4.286006328536729
 10
-15.461107986831918
 20
-4.300189480062001
 10
-15.25596066036851
 20
-4.313848509257835
 10
-15.048737175059163
 20
-4.3269106797975825
 10
-14.839420933590471
 20
-4.3395942006611845
 10
-14.628023000838038
 20
-4.351753599195346
 10
-14.414532311926262
 20
-4.363534348053362
 10
-14.199110936821832
 20
-4.374729303130893
 10
-13.981607870433663
 20
-4.385400135878984
 10
-13.762095849088396
 20
-4.395552378735438
 10
-13.540642076674878
 20
-4.405264300464699
 10
-13.317184881742065
 20
-4.414384895975674
 10
-13.091785935741004
 20
-4.4230651703594575
 10
-12.864523507436134
 20
-4.431237919727203
 10
-12.635263189049773
 20
-4.438746606550017
 10
-12.404150453235209
 20
-4.445602295703501
 10
-12.171168702679038
 20
-4.452023196167591
 10
-11.936317937381263
 20
-4.45800930794229
 10
-11.699598157341887
 20
-4.463560631027597
 10
-11.46109869620095
 20
-4.468464488881373
 10
-11.220830618834057
 20
-4.472575408850326
 10
-10.978699059163365
 20
-4.47617880380324
 10
-10.734849489842158
 20
-4.479285738615718
 10
-10.489220239419394
 20
-4.481745208196663
 10
-10.241895109097321
 20
-4.483417272330586
 10
-9.992857501562538
 20
-4.484520139997425
 10
-9.742169088266087
 20
-4.485204816288272
 10
-9.48976819775693
 20
-4.485320296112035
 10
-9.23567142734846
 20
-4.484648370488775
 10
-8.980013184818374
 20
-4.483345576947386
 10
-8.722787937728866
 20
-4.481484651814512
 10
-8.463850213426651
 20
-4.479054530214555
 10
-8.203423753329464
 20
-4.4759990731342665
 10
-7.941446885986258
 20
-4.4721672754825565
 10
-7.677919611397039
 20
-4.467559137259425
 10
-7.4129091334506425
 20
-4.462252927229315
 10
-7.146387789958077
 20
-4.456612327025462
 10
-6.8784449145593864
 20
-4.450424660105726
 10
-6.609029900679124
 20
-4.443393448725721
 10
-6.338137215879491
 20
-4.435591429212093
 10
-6.065912332813779
 20
-4.427029666440443
 10
-5.792260385404142
 20
-4.417993573279559
 10
-5.5172651748528265
 20
-4.408343209513942
 10
-5.2409267011598315
 20
-4.398078575143598
 10
-4.963256029200758
 20
-4.38705419751523
 10
-4.6842476265378075
 20
-4.37534281295549
 10
-4.404035900948671
 20
-4.3631009589932646
 10
-4.122486444655654
 20
-4.350172098099665
 10
-3.8397557951876498
 20
-4.336421822496996
 10
-3.5558384201068622
 20
-4.3219228685119075
 10
-3.2707287869754906
 20
-4.306747972471045
 10
-2.984359691904683
 20
-4.290818865609957
 10
-2.6969604087499897
 20
-4.274006672588759
 10
-2.4084637336225514
 20
-4.256233124642999
 10
-2.118763735568929
 20
-4.237929107294757
 10
-1.8280114196802133
 20
-4.219032949092987
 10
-1.5363127169098518
 20
-4.19911376451561
 10
-1.243505557291152
 20
-4.1783786976669655
 10
-0.9496571447129564
 20
-4.156906017311501
 10
-0.6549240167041631
 20
-4.134561315671524
 10
-0.35916623304928147
 20
-4.111260791544786
 10
-0.06252926640159236
 20
-4.087015509806889
 10
0.23508174931673717
 20
-4.062110883326618
 10
0.5335830129034678
 20
-4.0364069718884785
 10
0.8328741258429526
 20
-4.009545626297043
 10
1.1330444217752347
 20
-3.981739523094447
 10
1.434043294124876
 20
-3.9532851400250766
 10
1.7357814258491302
 20
-3.9239700187557753
 10
2.03832691709178
 20
-3.8937276738070095
 10
2.341618605386047
 20
-3.8627158020119268
 10
2.645634377578051
 20
-3.830643676272921
 10
2.9503742447326675
 20
-3.797511442062644
 10
3.2557876002744446
 20
-3.7636155771254822
 10
3.5618072624442925
 20
-3.7290346411711894
 10
3.8685004406634973
 20
-3.6936904381716444
 10
4.17577780682444
 20
-3.6573703643210367
 10
4.483650431335169
 20
-3.620219965008985
 10
4.792118336325436
 20
-3.5822395311807953
 10
5.101108779936147
 20
-3.5434345225379413
 10
5.410605181451221
 20
-3.503586948309464
 10
5.72061860574626
 20
-3.462842281148657
 10
6.031025709919168
 20
-3.4215025312377056
 10
6.34196645631519
 20
-3.379484188319669
 10
6.653278769435201
 20
-3.336580035553882
 10
6.965040929108513
 20
-3.2928574223018447
 10
7.277107462681838
 20
-3.2483274134391578
 10
7.589556644452062
 20
-3.203057285590993
 10
7.902382947513817
 20
-3.1569743751670316
 10
8.21544643165162
 20
-3.1101624833695194
 10
8.528830898067708
 20
-3.06276155041395
 10
8.842530830921602
 20
-3.0146990581826567
 10
9.15639520852489
 20
-2.9659131170156128
 10
9.4705023107069
 20
-2.9164710762743176
 10
9.784790466016581
 20
-2.866523941049866
 10
10.099310286561808
 20
-2.815775306334198
 10
10.413927353500034
 20
-2.7643815641835525
 10
10.728652731706848
 20
-2.712488187251223
 10
11.043480894276886
 20
-2.66002251194689
 10
11.358400776334541
 20
-2.606839065617261
 10
11.673423448287874
 20
-2.5530833936519546
 10
11.988414474696981
 20
-2.498911669898231
 10
12.3034355380778
 20
-2.4441730347376507
 10
12.618430499417068
 20
-2.389091229587953
 10
12.933382750336518
 20
-2.3334478999965453
 10
13.248286763930794
 20
-2.2771703823731078
 10
13.563153605075486
 20
-2.220404149370935
 10
13.877854365236079
 20
-2.1633780384276036
 10
14.192461797336538
 20
-2.1060867353142956
 10
14.506886556671931
 20
-2.0483174180162176
 10
14.821134164615192
 20
-1.9901426773873632
 10
15.135204626698746
 20
-1.9315625861640593
 10
15.449103464295526
 20
-1.8726497352002982
 10
15.762679644652257
 20
-1.8133420893634011
 10
16.07601145313069
 20
-1.7537070707511944
 10
16.38903165264735
 20
-1.6938225117101646
 10
16.701824072066678
 20
-1.6338287161374376
 10
17.014221059192238
 20
-1.5734451489750887
 10
17.326228151994275
 20
-1.5127446192860903
 10
17.637945748988418
 20
-1.4520852762658738
 10
17.949195155232406
 20
-1.3910414031485296
 10
18.25997082169111
 20
-1.3295400453984305
 10
18.5703786959153
 20
-1.2680123067466347
 10
18.880284325867777
 20
-1.206614142831421
 10
19.189727264313262
 20
-1.144903748727766
 10
19.498640285233154
 20
-1.0829591022548093
 10
19.80695061910619
 20
-1.0207852994323907
 10
20.11474208373193
 20
-0.9585224986849824
 10
20.42194744755932
 20
-0.8962486050953992
 10
20.72857222642887
 20
-0.8340361367813056
 10
21.03453260254101
 20
-0.7717449353182311
 10
21.33981748889038
 20
-0.7092292371075748
 10
21.644443477257955
 20
-0.6467071783929501
 10
21.948410562111295
 20
-0.5841786864380296
 10
22.25157874237809
 20
-0.521726762345468
 10
22.554093529438695
 20
-0.45934085039395045
 10
22.855792798002042
 20
-0.3968130791158728
 10
23.156682069441057
 20
-0.33421603936522737
 10
23.456788983814977
 20
-0.2719131218299402
 10
23.756108014218466
 20
-0.2098316629196896
 10
24.054482551200916
 20
-0.14783630928453914
 10
24.352063638580493
 20
-0.08598924152981983
 10
24.648700210409284
 20
-0.024227988104894203
 10
24.944465014078812
 20
0.037452837955386106
 10
25.23929633941098
 20
0.09890274071421451
 10
25.533121411352056
 20
0.16011669688807673
 10
25.82602404770162
 20
0.22095454805250098
 10
26.117842106571267
 20
0.28162438388407135
 10
26.408721099341367
 20
0.3421367601041025
 10
26.698509960064012
 20
0.4025541482632332
 10
26.9872418557038
 20
0.46244049408321813
 10
27.274844016739486
 20
0.5217907015442186
 10
27.5614287599246
 20
0.5810517443274242
 10
27.846772244257536
 20
0.6402810706999624
 10
28.131064240621043
 20
0.6989073457699753
 10
28.414153677534784
 20
0.7569931138244284
 10
28.69601839758537
 20
0.8148296838515409
 10
28.976658389707904
 20
0.8724172013239644
 10
29.256079169742907
 20
0.9296831481240357
 10
29.534308388814477
 20
0.9862639880911731
 10
29.811189420874726
 20
1.0422952927842968
 10
30.086851196587936
 20
1.0980056086956802
 10
30.361148154781784
 20
1.153385034730948
 10
30.634091343734575
 20
1.2082883164457887
 10
30.90569181725703
 20
1.2625701266595617
 10
31.1759384883438
 20
1.316376228970867
 10
31.444758565343836
 20
1.3697018183051695
 10
31.712235871589183
 20
1.4224066635016723
 10
31.978224845907512
 20
1.4744808634659998
 10
32.24278164944182
 20
1.5261478686705852
 10
32.505760709954934
 20
1.5773979234937072
 10
32.767391395353854
 20
1.628100916077922
 10
33.027393659234455
 20
1.6780914261085345
 10
33.28591303510683
 20
1.7273797183615516
 10
33.54294396840344
 20
1.776038820108927
 10
33.798329833076366
 20
1.824204302909578
 10
34.05207613390127
 20
1.8718037941184937
 10
34.30433393129356
 20
1.91877489492136
 10
34.5548904269975
 20
1.965029871877316
 10
34.80382943328023
 20
2.0104286392982176
 10
35.05106156117729
 20
2.055184601089469
 10
35.29665403117485
 20
2.0993758078065357
 10
35.54053958405969
 20
2.1429247180482385
 10
35.78271819770205
 20
2.185831622759885
 10
36.023133672231886
 20
2.227873580623328
 10
36.26184217432463
 20
2.2692739693746744
 10
36.49870365864845
 20
2.309950369801882
 10
36.73377981325172
 20
2.3500535687870654
 10
36.96708722438296
 20
2.3893655028229372
 10
37.19855862176409
 20
2.4278087759809734
 10
37.428177385951926
 20
2.465601888186416
 10
37.65594350034918
 20
2.502745057648248
 10
37.88185694282609
 20
2.539238575311774
 10
38.10578320602109
 20
2.5749272129019816
 10
38.32787888831987
 20
2.6096757625415843
 10
38.54804353035001
 20
2.6438431735256085
 10
38.76620986736579
 20
2.677351977189199
 10
38.98245065229121
 20
2.7102074877611777
 10
39.196704152818405
 20
2.7422595002500434
 10
39.4088920393261
 20
2.7735760186442353
 10
39.61915431841902
 20
2.8042399713100807
 10
39.82736200410858
 20
2.834023539118574
 10
40.03350401492181
 20
2.8630724129319867
 10
40.23758586669923
 20
2.8913140746326538
 10
40.43959093446522
 20
2.9189670968821453
 10
40.63953026649808
 20
2.945886225236149
 10
40.83733106008192
 20
2.9720668000927866
 10
41.032998831057235
 20
2.99743630333439
 10
41.22660081097502
 20
3.022072640043772
 10
41.417985884095465
 20
3.0460389363985128
 10
41.607154022756376
 20
3.069335556080245
 10
41.794183528916804
 20
3.0918948587821617
 10
41.979079940547
 20
3.113644035441292
 10
42.161681193212715
 20
3.1347901574256456
 10
42.34205954745093
 20
3.155345012497115
 10
42.520232137221534
 20
3.175083336252077
 10
42.69612042820305
 20
3.1940758239230584
 10
42.86971334445499
 20
3.212468093636001
 10
43.04109471484182
 20
3.230119841493782
 10
43.21012448296685
 20
3.2469487937570145
 10
43.37686434794329
 20
3.2631055918351564
 10
43.54130876073602
 20
3.278663190263834
 10
43.703384924161625
 20
3.2936168567048427
 10
43.86310388649835
 20
3.307821336713867
 10
44.02046008764622
 20
3.321349730299187
 10
44.17544245166478
 20
3.3343476555867504
 10
44.32805648886204
 20
3.346742667195216
 10
44.47824047246261
 20
3.358384487396757
 10
44.62599437480426
 20
3.3692734798730077
 10
44.77136884118953
 20
3.3797056132140657
 10
44.914296595807876
 20
3.389603564227732
 10
45.05477763312689
 20
3.3989674056503345
 10
45.19281745792213
 20
3.407724764836857
 10
45.3283432785426
 20
3.4158708367127684
 10
45.461427853444704
 20
3.423410862770561
 10
45.59198733163424
 20
3.430485437852667
 10
45.72003275032462
 20
3.4369494529874274
 10
45.84555303357538
 20
3.442948526300788
 10
45.96863201578339
 20
3.4483422811592974
 10
46.08911304877098
 20
3.453266580067179
 10
46.20706336962165
 20
3.4577992553709205
 10
46.32241571358975
 20
3.4618628384056698
 10
46.435248382634285
 20
3.465389688864616
 10
46.54547747043677
 20
3.4685211289534643
 10
46.65318678373186
 20
3.471117145720392
 10
46.75821449044767
 20
3.4733817556076927
 10
46.86071124159928
 20
3.475257942289224
 10
46.96053161985779
 20
3.4767339135261213
 10
47.057748394744486
 20
3.477814765338225
 10
47.152361555194446
 20
3.478500643198187
 10
47.244365552172574
 20
3.4788645016416337
 10
47.33369313199812
 20
3.4788287265310602
 10
47.42033320766569
 20
3.478539081465064
 10
47.50436409773169
 20
3.4779277079278597
 10
47.585707461509976
 20
3.477062755380539
 10
47.66436882590591
 20
3.4758715602327834
 10
47.740342652949245
 20
3.474426931547565
 10
47.813634458480486
 20
3.472656351207218
 10
47.88423870452938
 20
3.4706326282747146
 10
47.952144320687914
 20
3.4685013081396763
 10
48.01728956911575
 20
3.4661122585469264
 10
48.0798144896123
 20
3.4635479714448354
 10
48.13949517478667
 20
3.460866767936447
 10
48.1965555154324
 20
3.4580105451276952
 10
48.25084992824748
 20
3.4549696928695135
 10
48.30236734282386
 20
3.451889756551521
 10
48.35118607218548
 20
3.4487029503942592
 10
48.397233319148874
 20
3.44540454205952
 10
48.44049801883846
 20
3.4421400042005965
 10
48.481064011183534
 20
3.438768887447709
 10
48.51884744518991
 20
3.4354317866432904
 10
48.553853842230524
 20
3.4320561109333476
 10
48.58607213742976
 20
3.428787332971174
 10
48.61550786322543
 20
3.425552716430121
 10
48.642228262233445
 20
3.422430020920352
 10
48.66608775668417
 20
3.4194095635564694
 10
48.687153605790876
 20
3.416568885739656
 10
48.70549859013968
 20
3.413912938017098
 10
48.72097713196095
 20
3.411432037503399
 10
48.733650946965284
 20
3.4092766073990424
 10
48.74359837030635
 20
3.407378570979261
 10
48.7506627372092
 20
3.4058740089572583
 10
48.754911323484365
 20
3.4048402445252366
 10
48.75633304765893
 20
3.4044229685454677
  0
ENDSEC
  0
SECTION
  2
OBJECTS
  0
DICTIONARY
  5
A
330
0
100
AcDbDictionary
280
0
281
1
  3
ACAD_COLOR
350
B
  3
ACAD_GROUP
350
C
  3
ACAD_LAYOUT
350
D
  3
ACAD_MATERIAL
350
E
  3
ACAD_MLEADERSTYLE
350
F
  3
ACAD_MLINESTYLE
350
10
  3
ACAD_PLOTSETTINGS
350
11
  3
ACAD_PLOTSTYLENAME
350
12
  3
ACAD_SCALELIST
350
14
  3
ACAD_TABLESTYLE
350
15
  3
ACAD_VISUALSTYLE
350
16
  3
EZDXF_META
350
2D
  0
DICTIONARY
  5
B
330
A
100
AcDbDictionary
280
0
281
1
  0
DICTIONARY
  5
C
330
A
100
AcDbDictionary
280
0
281
1
  0
DICTIONARY
  5
D
330
A
100
AcDbDictionary
280
0
281
1
  3
Model
350
1A
  3
Layout1
350
1E
  0
DICTIONARY
  5
E
330
A
100
AcDbDictionary
280
0
281
1
  3
ByBlock
350
1F
  3
ByLayer
350
20
  3
Global
350
21
  0
DICTIONARY
  5
F
330
A
100
AcDbDictionary
280
0
281
1
  3
Standard
350
2C
  0
DICTIONARY
  5
10
330
A
100
AcDbDictionary
280
0
281
1
  3
Standard
350
22
  0
DICTIONARY
  5
11
330
A
100
AcDbDictionary
280
0
281
1
  0
ACDBDICTIONARYWDFLT
  5
12
330
A
100
AcDbDictionary
280
0
281
1
  3
Normal
350
13
100
AcDbDictionaryWithDefault
340
13
  0
ACDBPLACEHOLDER
  5
13
330
12
  0
DICTIONARY
  5
14
330
A
100
AcDbDictionary
280
0
281
1
  0
DICTIONARY
  5
15
330
A
100
AcDbDictionary
280
0
281
1
  0
DICTIONARY
  5
16
330
A
100
AcDbDictionary
280
0
281
1
  0
LAYOUT
  5
1A
330
D
100
AcDbPlotSettings
  1

  4
A3
  6

 40
7.5
 41
20.0
 42
7.5
 43
20.0
 44
420.0
 45
297.0
 46
0.0
 47
0.0
 48
0.0
 49
0.0
140
0.0
141
0.0
142
1.0
143
1.0
 70
1024
 72
1
 73
0
 74
5
  7

 75
16
 76
0
 77
2
 78
300
147
1.0
148
0.0
149
0.0
100
AcDbLayout
  1
Model
 70
1
 71
0
 10
0.0
 20
0.0
 11
420.0
 21
297.0
 12
0.0
 22
0.0
 32
0.0
 14
1e+20
 24
1e+20
 34
1e+20
 15
-1e+20
 25
-1e+20
 35
-1e+20
146
0.0
 13
0.0
 23
0.0
 33
0.0
 16
1.0
 26
0.0
 36
0.0
 17
0.0
 27
1.0
 37
0.0
 76
1
330
17
  0
LAYOUT
  5
1E
330
D
100
AcDbPlotSettings
  1

  4
A3
  6

 40
7.5
 41
20.0
 42
7.5
 43
20.0
 44
420.0
 45
297.0
 46
0.0
 47
0.0
 48
0.0
 49
0.0
140
0.0
141
0.0
142
1.0
143
1.0
 70
0
 72
1
 73
0
 74
5
  7

 75
16
 76
0
 77
2
 78
300
147
1.0
148
0.0
149
0.0
100
AcDbLayout
  1
Layout1
 70
1
 71
1
 10
0.0
 20
0.0
 11
420.0
 21
297.0
 12
0.0
 22
0.0
 32
0.0
 14
1e+20
 24
1e+20
 34
1e+20
 15
-1e+20
 25
-1e+20
 35
-1e+20
146
0.0
 13
0.0
 23
0.0
 33
0.0
 16
1.0
 26
0.0
 36
0.0
 17
0.0
 27
1.0
 37
0.0
 76
1
330
1B
  0
MATERIAL
  5
1F
102
{ACAD_REACTORS
330
E
102
}
330
E
100
AcDbMaterial
  1
ByBlock
  2

 70
0
 40
1.0
 71
1
 41
1.0
 91
-1023410177
 42
1.0
 72
1
  3

 73
1
 74
1
 75
1
 44
0.5
 73
0
 45
1.0
 46
1.0
 77
1
  4

 78
1
 79
1
170
1
 48
1.0
171
1
  6

172
1
173
1
174
1
140
1.0
141
1.0
175
1
  7

176
1
177
1
178
1
143
1.0
179
1
  8

270
1
271
1
272
1
145
1.0
146
1.0
273
1
  9

274
1
275
1
276
1
 42
1.0
 72
1
  3

 73
1
 74
1
 75
1
 94
63
  0
MATERIAL
  5
20
102
{ACAD_REACTORS
330
E
102
}
330
E
100
AcDbMaterial
  1
ByLayer
  2

 70
0
 40
1.0
 71
1
 41
1.0
 91
-1023410177
 42
1.0
 72
1
  3

 73
1
 74
1
 75
1
 44
0.5
 73
0
 45
1.0
 46
1.0
 77
1
  4

 78
1
 79
1
170
1
 48
1.0
171
1
  6

172
1
173
1
174
1
140
1.0
141
1.0
175
1
  7

176
1
177
1
178
1
143
1.0
179
1
  8

270
1
271
1
272
1
145
1.0
146
1.0
273
1
  9

274
1
275
1
276
1
 42
1.0
 72
1
  3

 73
1
 74
1
 75
1
 94
63
  0
MATERIAL
  5
21
102
{ACAD_REACTORS
330
E
102
}
330
E
100
AcDbMaterial
  1
Global
  2

 70
0
 40
1.0
 71
1
 41
1.0
 91
-1023410177
 42
1.0
 72
1
  3

 73
1
 74
1
 75
1
 44
0.5
 73
0
 45
1.0
 46
1.0
 77
1
  4

 78
1
 79
1
170
1
 48
1.0
171
1
  6

172
1
173
1
174
1
140
1.0
141
1.0
175
1
  7

176
1
177
1
178
1
143
1.0
179
1
  8

270
1
271
1
272
1
145
1.0
146
1.0
273
1
  9

274
1
275
1
276
1
 42
1.0
 72
1
  3

 73
1
 74
1
 75
1
 94
63
  0
MLINESTYLE
  5
22
102
{ACAD_REACTORS
330
10
102
}
330
10
100
AcDbMlineStyle
  2
Standard
 70
0
  3

 62
256
 51
90.0
 52
90.0
 71
2
 49
0.5
 62
256
  6
BYLAYER
 49
-0.5
 62
256
  6
BYLAYER
  0
MLEADERSTYLE
  5
2C
102
{ACAD_REACTORS
330
F
102
}
330
F
100
AcDbMLeaderStyle
179
2
170
2
171
1
172
0
 90
2
 40
0.0
 41
0.0
173
1
 91
-1056964608
 92
-2
290
1
 42
2.0
291
1
 43
8.0
  3
Standard
 44
4.0
300

342
29
174
1
175
1
176
0
178
1
 93
-1056964608
 45
4.0
292
0
297
0
 46
4.0
 94
-1056964608
 47
1.0
 49
1.0
140
1.0
294
1
141
0.0
177
0
142
1.0
295
0
296
0
143
3.75
271
0
272
9
273
9
  0
DICTIONARY
  5
2D
330
A
100
AcDbDictionary
280
1
281
1
  3
CREATED_BY_EZDXF
350
2E
  3
WRITTEN_BY_EZDXF
350
32
  0
DICTIONARYVAR
  5
2E
330
2D
100
DictionaryVariables
280
0
  1
1.3.5 @ 2025-08-20T01:59:29.745423+00:00
  0
DICTIONARYVAR
  5
32
330
2D
100
DictionaryVariables
280
0
  1
1.3.5 @ 2025-08-20T01:59:29.751381+00:00
  0
ENDSEC
  0
EOF
