  0
SECTION
  2
HEADER
  9
$ACADVER
  1
AC1032
  9
$ACADMAINTVER
 90
4
  9
$DWGCODEPAGE
  3
ANSI_1252
  9
$LASTSAVEDBY
  1
ezdxf
  9
$REQUIREDVERSIONS
160
0
  9
$INSBASE
 10
0.0
 20
0.0
 30
0.0
  9
$EXTMIN
 10
1e+20
 20
1e+20
 30
1e+20
  9
$EXTMAX
 10
-1e+20
 20
-1e+20
 30
-1e+20
  9
$LIMMIN
 10
0.0
 20
0.0
  9
$LIMMAX
 10
420.0
 20
297.0
  9
$ORTHOMODE
 70
0
  9
$REGENMODE
 70
1
  9
$FILLMODE
 70
1
  9
$QTEXTMODE
 70
0
  9
$MIRRTEXT
 70
1
  9
$LTSCALE
 40
1.0
  9
$ATTMODE
 70
1
  9
$TEXTSIZE
 40
2.5
  9
$TRACEWID
 40
1.0
  9
$TEXTSTYLE
  7
Standard
  9
$CLAYER
  8
0
  9
$CELTYPE
  6
ByLayer
  9
$CECOLOR
 62
256
  9
$CELTSCALE
 40
1.0
  9
$DISPSILH
 70
0
  9
$DIMSCALE
 40
1.0
  9
$DIMASZ
 40
2.5
  9
$DIMEXO
 40
0.625
  9
$DIMDLI
 40
3.75
  9
$DIMRND
 40
0.0
  9
$DIMDLE
 40
0.0
  9
$DIMEXE
 40
1.25
  9
$DIMTP
 40
0.0
  9
$DIMTM
 40
0.0
  9
$DIMTXT
 40
2.5
  9
$DIMCEN
 40
2.5
  9
$DIMTSZ
 40
0.0
  9
$DIMTOL
 70
0
  9
$DIMLIM
 70
0
  9
$DIMTIH
 70
0
  9
$DIMTOH
 70
0
  9
$DIMSE1
 70
0
  9
$DIMSE2
 70
0
  9
$DIMTAD
 70
1
  9
$DIMZIN
 70
8
  9
$DIMBLK
  1

  9
$DIMASO
 70
1
  9
$DIMSHO
 70
1
  9
$DIMPOST
  1

  9
$DIMAPOST
  1

  9
$DIMALT
 70
0
  9
$DIMALTD
 70
3
  9
$DIMALTF
 40
0.03937007874
  9
$DIMLFAC
 40
1.0
  9
$DIMTOFL
 70
1
  9
$DIMTVP
 40
0.0
  9
$DIMTIX
 70
0
  9
$DIMSOXD
 70
0
  9
$DIMSAH
 70
0
  9
$DIMBLK1
  1

  9
$DIMBLK2
  1

  9
$DIMSTYLE
  2
ISO-25
  9
$DIMCLRD
 70
0
  9
$DIMCLRE
 70
0
  9
$DIMCLRT
 70
0
  9
$DIMTFAC
 40
1.0
  9
$DIMGAP
 40
0.625
  9
$DIMJUST
 70
0
  9
$DIMSD1
 70
0
  9
$DIMSD2
 70
0
  9
$DIMTOLJ
 70
0
  9
$DIMTZIN
 70
8
  9
$DIMALTZ
 70
0
  9
$DIMALTTZ
 70
0
  9
$DIMUPT
 70
0
  9
$DIMDEC
 70
2
  9
$DIMTDEC
 70
2
  9
$DIMALTU
 70
2
  9
$DIMALTTD
 70
3
  9
$DIMTXSTY
  7
Standard
  9
$DIMAUNIT
 70
0
  9
$DIMADEC
 70
0
  9
$DIMALTRND
 40
0.0
  9
$DIMAZIN
 70
0
  9
$DIMDSEP
 70
44
  9
$DIMATFIT
 70
3
  9
$DIMFRAC
 70
0
  9
$DIMLDRBLK
  1

  9
$DIMLUNIT
 70
2
  9
$DIMLWD
 70
-2
  9
$DIMLWE
 70
-2
  9
$DIMTMOVE
 70
0
  9
$DIMFXL
 40
1.0
  9
$DIMFXLON
 70
0
  9
$DIMJOGANG
 40
0.785398163397
  9
$DIMTFILL
 70
0
  9
$DIMTFILLCLR
 70
0
  9
$DIMARCSYM
 70
0
  9
$DIMLTYPE
  6

  9
$DIMLTEX1
  6

  9
$DIMLTEX2
  6

  9
$DIMTXTDIRECTION
 70
0
  9
$LUNITS
 70
2
  9
$LUPREC
 70
4
  9
$SKETCHINC
 40
1.0
  9
$FILLETRAD
 40
10.0
  9
$AUNITS
 70
0
  9
$AUPREC
 70
2
  9
$MENU
  1
.
  9
$ELEVATION
 40
0.0
  9
$PELEVATION
 40
0.0
  9
$THICKNESS
 40
0.0
  9
$LIMCHECK
 70
0
  9
$CHAMFERA
 40
0.0
  9
$CHAMFERB
 40
0.0
  9
$CHAMFERC
 40
0.0
  9
$CHAMFERD
 40
0.0
  9
$SKPOLY
 70
0
  9
$TDCREATE
 40
2460908.103125
  9
$TDUCREATE
 40
2458532.153996898
  9
$TDUPDATE
 40
2460908.103125
  9
$TDUUPDATE
 40
2458532.1544311
  9
$TDINDWG
 40
0.0
  9
$TDUSRTIMER
 40
0.0
  9
$USRTIMER
 70
1
  9
$ANGBASE
 50
0.0
  9
$ANGDIR
 70
0
  9
$PDMODE
 70
0
  9
$PDSIZE
 40
0.0
  9
$PLINEWID
 40
0.0
  9
$SPLFRAME
 70
0
  9
$SPLINETYPE
 70
6
  9
$SPLINESEGS
 70
8
  9
$HANDSEED
  5
33
  9
$SURFTAB1
 70
6
  9
$SURFTAB2
 70
6
  9
$SURFTYPE
 70
6
  9
$SURFU
 70
6
  9
$SURFV
 70
6
  9
$UCSBASE
  2

  9
$UCSNAME
  2

  9
$UCSORG
 10
0.0
 20
0.0
 30
0.0
  9
$UCSXDIR
 10
1.0
 20
0.0
 30
0.0
  9
$UCSYDIR
 10
0.0
 20
1.0
 30
0.0
  9
$UCSORTHOREF
  2

  9
$UCSORTHOVIEW
 70
0
  9
$UCSORGTOP
 10
0.0
 20
0.0
 30
0.0
  9
$UCSORGBOTTOM
 10
0.0
 20
0.0
 30
0.0
  9
$UCSORGLEFT
 10
0.0
 20
0.0
 30
0.0
  9
$UCSORGRIGHT
 10
0.0
 20
0.0
 30
0.0
  9
$UCSORGFRONT
 10
0.0
 20
0.0
 30
0.0
  9
$UCSORGBACK
 10
0.0
 20
0.0
 30
0.0
  9
$PUCSBASE
  2

  9
$PUCSNAME
  2

  9
$PUCSORG
 10
0.0
 20
0.0
 30
0.0
  9
$PUCSXDIR
 10
1.0
 20
0.0
 30
0.0
  9
$PUCSYDIR
 10
0.0
 20
1.0
 30
0.0
  9
$PUCSORTHOREF
  2

  9
$PUCSORTHOVIEW
 70
0
  9
$PUCSORGTOP
 10
0.0
 20
0.0
 30
0.0
  9
$PUCSORGBOTTOM
 10
0.0
 20
0.0
 30
0.0
  9
$PUCSORGLEFT
 10
0.0
 20
0.0
 30
0.0
  9
$PUCSORGRIGHT
 10
0.0
 20
0.0
 30
0.0
  9
$PUCSORGFRONT
 10
0.0
 20
0.0
 30
0.0
  9
$PUCSORGBACK
 10
0.0
 20
0.0
 30
0.0
  9
$USERI1
 70
0
  9
$USERI2
 70
0
  9
$USERI3
 70
0
  9
$USERI4
 70
0
  9
$USERI5
 70
0
  9
$USERR1
 40
0.0
  9
$USERR2
 40
0.0
  9
$USERR3
 40
0.0
  9
$USERR4
 40
0.0
  9
$USERR5
 40
0.0
  9
$WORLDVIEW
 70
1
  9
$SHADEDGE
 70
3
  9
$SHADEDIF
 70
70
  9
$TILEMODE
 70
1
  9
$MAXACTVP
 70
64
  9
$PINSBASE
 10
0.0
 20
0.0
 30
0.0
  9
$PLIMCHECK
 70
0
  9
$PEXTMIN
 10
1e+20
 20
1e+20
 30
1e+20
  9
$PEXTMAX
 10
-1e+20
 20
-1e+20
 30
-1e+20
  9
$PLIMMIN
 10
0.0
 20
0.0
  9
$PLIMMAX
 10
420.0
 20
297.0
  9
$UNITMODE
 70
0
  9
$VISRETAIN
 70
1
  9
$PLINEGEN
 70
0
  9
$PSLTSCALE
 70
1
  9
$TREEDEPTH
 70
3020
  9
$CMLSTYLE
  2
Standard
  9
$CMLJUST
 70
0
  9
$CMLSCALE
 40
20.0
  9
$PROXYGRAPHICS
 70
1
  9
$MEASUREMENT
 70
1
  9
$CELWEIGHT
370
-1
  9
$ENDCAPS
280
0
  9
$JOINSTYLE
280
0
  9
$LWDISPLAY
290
0
  9
$INSUNITS
 70
6
  9
$HYPERLINKBASE
  1

  9
$STYLESHEET
  1

  9
$XEDIT
290
1
  9
$CEPSNTYPE
380
0
  9
$PSTYLEMODE
290
1
  9
$FINGERPRINTGUID
  2
{12E0F3EC-6E1B-49A0-8ADC-4BCECA159B74}
  9
$VERSIONGUID
  2
{A195AA47-CE98-429D-810A-4A60BF79B4DE}
  9
$EXTNAMES
290
1
  9
$PSVPSCALE
 40
0.0
  9
$OLESTARTUP
290
0
  9
$SORTENTS
280
127
  9
$INDEXCTL
280
0
  9
$HIDETEXT
280
1
  9
$XCLIPFRAME
280
1
  9
$HALOGAP
280
0
  9
$OBSCOLOR
 70
257
  9
$OBSLTYPE
280
0
  9
$INTERSECTIONDISPLAY
280
0
  9
$INTERSECTIONCOLOR
 70
257
  9
$DIMASSOC
280
2
  9
$PROJECTNAME
  1

  9
$CAMERADISPLAY
290
0
  9
$LENSLENGTH
 40
50.0
  9
$CAMERAHEIGHT
 40
0.0
  9
$STEPSPERSEC
 40
24.0
  9
$STEPSIZE
 40
100.0
  9
$3DDWFPREC
 40
2.0
  9
$PSOLWIDTH
 40
0.005
  9
$PSOLHEIGHT
 40
0.08
  9
$LOFTANG1
 40
1.570796326795
  9
$LOFTANG2
 40
1.570796326795
  9
$LOFTMAG1
 40
0.0
  9
$LOFTMAG2
 40
0.0
  9
$LOFTPARAM
 70
7
  9
$LOFTNORMALS
280
1
  9
$LATITUDE
 40
37.795
  9
$LONGITUDE
 40
-122.394
  9
$NORTHDIRECTION
 40
0.0
  9
$TIMEZONE
 70
-8000
  9
$LIGHTGLYPHDISPLAY
280
1
  9
$TILEMODELIGHTSYNCH
280
1
  9
$CMATERIAL
347
20
  9
$SOLIDHIST
280
0
  9
$SHOWHIST
280
1
  9
$DWFFRAME
280
2
  9
$DGNFRAME
280
2
  9
$REALWORLDSCALE
290
1
  9
$INTERFERECOLOR
 62
256
  9
$CSHADOW
280
0
  9
$SHADOWPLANELOCATION
 40
0.0
  0
ENDSEC
  0
SECTION
  2
CLASSES
  0
CLASS
  1
ACDBDICTIONARYWDFLT
  2
AcDbDictionaryWithDefault
  3
ObjectDBX Classes
 90
0
 91
0
280
0
281
0
  0
CLASS
  1
SUN
  2
AcDbSun
  3
SCENEOE
 90
1153
 91
0
280
0
281
0
  0
CLASS
  1
VISUALSTYLE
  2
AcDbVisualStyle
  3
ObjectDBX Classes
 90
4095
 91
0
280
0
281
0
  0
CLASS
  1
MATERIAL
  2
AcDbMaterial
  3
ObjectDBX Classes
 90
1153
 91
0
280
0
281
0
  0
CLASS
  1
SCALE
  2
AcDbScale
  3
ObjectDBX Classes
 90
1153
 91
0
280
0
281
0
  0
CLASS
  1
TABLESTYLE
  2
AcDbTableStyle
  3
ObjectDBX Classes
 90
4095
 91
0
280
0
281
0
  0
CLASS
  1
MLEADERSTYLE
  2
AcDbMLeaderStyle
  3
ACDB_MLEADERSTYLE_CLASS
 90
4095
 91
0
280
0
281
0
  0
CLASS
  1
DICTIONARYVAR
  2
AcDbDictionaryVar
  3
ObjectDBX Classes
 90
0
 91
0
280
0
281
0
  0
CLASS
  1
CELLSTYLEMAP
  2
AcDbCellStyleMap
  3
ObjectDBX Classes
 90
1152
 91
0
280
0
281
0
  0
CLASS
  1
MENTALRAYRENDERSETTINGS
  2
AcDbMentalRayRenderSettings
  3
SCENEOE
 90
1024
 91
0
280
0
281
0
  0
CLASS
  1
ACDBDETAILVIEWSTYLE
  2
AcDbDetailViewStyle
  3
ObjectDBX Classes
 90
1025
 91
0
280
0
281
0
  0
CLASS
  1
ACDBSECTIONVIEWSTYLE
  2
AcDbSectionViewStyle
  3
ObjectDBX Classes
 90
1025
 91
0
280
0
281
0
  0
CLASS
  1
RASTERVARIABLES
  2
AcDbRasterVariables
  3
ISM
 90
0
 91
0
280
0
281
0
  0
CLASS
  1
LAYOUT
  2
AcDbLayout
  3
ObjectDBX Classes
 90
0
 91
0
280
0
281
0
  0
CLASS
  1
ACDBPLACEHOLDER
  2
AcDbPlaceHolder
  3
ObjectDBX Classes
 90
0
 91
0
280
0
281
0
  0
ENDSEC
  0
SECTION
  2
TABLES
  0
TABLE
  2
VPORT
  5
8
330
0
100
AcDbSymbolTable
 70
1
  0
VPORT
  5
23
330
8
100
AcDbSymbolTableRecord
100
AcDbViewportTableRecord
  2
*Active
 70
0
 10
0.0
 20
0.0
 11
1.0
 21
1.0
 12
0.0
 22
0.0
 13
0.0
 23
0.0
 14
0.5
 24
0.5
 15
0.5
 25
0.5
 16
0.0
 26
0.0
 36
1.0
 17
0.0
 27
0.0
 37
0.0
 40
1000.0
 41
1.34
 42
50.0
 43
0.0
 44
0.0
 50
0.0
 51
0.0
 71
0
 72
1000
 73
1
 74
3
 75
0
 76
0
 77
0
 78
0
281
0
 65
0
146
0.0
  0
ENDTAB
  0
TABLE
  2
LTYPE
  5
2
330
0
100
AcDbSymbolTable
 70
3
  0
LTYPE
  5
24
330
2
100
AcDbSymbolTableRecord
100
AcDbLinetypeTableRecord
  2
ByBlock
 70
0
  3

 72
65
 73
0
 40
0.0
  0
LTYPE
  5
25
330
2
100
AcDbSymbolTableRecord
100
AcDbLinetypeTableRecord
  2
ByLayer
 70
0
  3

 72
65
 73
0
 40
0.0
  0
LTYPE
  5
26
330
2
100
AcDbSymbolTableRecord
100
AcDbLinetypeTableRecord
  2
Continuous
 70
0
  3

 72
65
 73
0
 40
0.0
  0
ENDTAB
  0
TABLE
  2
LAYER
  5
1
330
0
100
AcDbSymbolTable
 70
2
  0
LAYER
  5
27
330
1
100
AcDbSymbolTableRecord
100
AcDbLayerTableRecord
  2
0
 70
0
 62
7
  6
Continuous
370
-3
390
13
347
21
  0
LAYER
  5
28
330
1
100
AcDbSymbolTableRecord
100
AcDbLayerTableRecord
  2
Defpoints
 70
0
 62
7
  6
Continuous
290
0
370
-3
390
13
347
21
  0
ENDTAB
  0
TABLE
  2
STYLE
  5
5
330
0
100
AcDbSymbolTable
 70
1
  0
STYLE
  5
29
330
5
100
AcDbSymbolTableRecord
100
AcDbTextStyleTableRecord
  2
Standard
 70
0
 40
0.0
 41
1.0
 50
0.0
 71
0
 42
2.5
  3
txt
  4

  0
ENDTAB
  0
TABLE
  2
VIEW
  5
7
330
0
100
AcDbSymbolTable
 70
0
  0
ENDTAB
  0
TABLE
  2
UCS
  5
6
330
0
100
AcDbSymbolTable
 70
0
  0
ENDTAB
  0
TABLE
  2
APPID
  5
3
330
0
100
AcDbSymbolTable
 70
3
  0
APPID
  5
2A
330
3
100
AcDbSymbolTableRecord
100
AcDbRegAppTableRecord
  2
ACAD
 70
0
  0
APPID
  5
30
330
3
100
AcDbSymbolTableRecord
100
AcDbRegAppTableRecord
  2
HATCHBACKGROUNDCOLOR
 70
0
  0
APPID
  5
31
330
3
100
AcDbSymbolTableRecord
100
AcDbRegAppTableRecord
  2
EZDXF
 70
0
  0
ENDTAB
  0
TABLE
  2
DIMSTYLE
  5
4
330
0
100
AcDbSymbolTable
 70
1
100
AcDbDimStyleTable
  0
DIMSTYLE
105
2B
330
4
100
AcDbSymbolTableRecord
100
AcDbDimStyleTableRecord
  2
Standard
 70
0
 40
1.0
 41
2.5
 42
0.625
 43
3.75
 44
1.25
 45
0.0
 46
0.0
 47
0.0
 48
0.0
 49
2.5
140
2.5
141
2.5
142
0.0
143
0.03937007874
144
1.0
145
0.0
146
1.0
147
0.625
148
0.0
 69
0
 70
0
 71
0
 72
0
 73
0
 74
0
 75
0
 76
0
 77
1
 78
8
 79
3
170
0
171
3
172
1
173
0
174
0
175
0
176
0
177
0
178
0
179
2
271
2
272
2
273
2
274
3
275
0
276
0
277
2
278
44
279
0
280
0
281
0
282
0
283
0
284
8
285
0
286
0
288
0
289
3
290
0
371
-2
372
-2
  0
ENDTAB
  0
TABLE
  2
BLOCK_RECORD
  5
9
330
0
100
AcDbSymbolTable
 70
2
  0
BLOCK_RECORD
  5
17
330
9
100
AcDbSymbolTableRecord
100
AcDbBlockTableRecord
  2
*Model_Space
340
1A
 70
0
280
1
281
0
  0
BLOCK_RECORD
  5
1B
330
9
100
AcDbSymbolTableRecord
100
AcDbBlockTableRecord
  2
*Paper_Space
340
1E
 70
0
280
1
281
0
  0
ENDTAB
  0
ENDSEC
  0
SECTION
  2
BLOCKS
  0
BLOCK
  5
18
330
17
100
AcDbEntity
  8
0
100
AcDbBlockBegin
  2
*Model_Space
 70
0
 10
0.0
 20
0.0
 30
0.0
  3
*Model_Space
  1

  0
ENDBLK
  5
19
330
17
100
AcDbEntity
  8
0
100
AcDbBlockEnd
  0
BLOCK
  5
1C
330
1B
100
AcDbEntity
  8
0
100
AcDbBlockBegin
  2
*Paper_Space
 70
0
 10
0.0
 20
0.0
 30
0.0
  3
*Paper_Space
  1

  0
ENDBLK
  5
1D
330
1B
100
AcDbEntity
  8
0
100
AcDbBlockEnd
  0
ENDSEC
  0
SECTION
  2
ENTITIES
  0
LWPOLYLINE
  5
2F
330
17
100
AcDbEntity
  8
0
100
AcDbPolyline
 90
721
 70
1
 10
45.63055708686936
 20
3.077124472352597
 10
45.62923296411739
 20
3.0775056904947697
 10
45.62526936432365
 20
3.0785129706910546
 10
45.618683793753505
 20
3.07987404131396
 10
45.60939943064645
 20
3.081719874957548
 10
45.59756555181182
 20
3.0838564410728275
 10
45.58310971096049
 20
3.0863466613767363
 10
45.56596820398639
 20
3.089117492069955
 10
45.546277185664565
 20
3.0921789871158696
 10
45.52397295188894
 20
3.0954581027151615
 10
45.49897866775946
 20
3.0990860158188793
 10
45.471439247753636
 20
3.1029365423981696
 10
45.44128660353432
 20
3.107004825768829
 10
45.408516355250285
 20
3.1113589849269787
 10
45.37313726260397
 20
3.115862781880377
 10
45.33514055713324
 20
3.1206525908592586
 10
45.29459869826676
 20
3.125665285789696
 10
45.25144359766737
 20
3.1308960099874863
 10
45.20567087548385
 20
3.1364128824487514
 10
45.15735736223643
 20
3.142084794341439
 10
45.106426214265305
 20
3.1480430588545874
 10
45.05288618689312
 20
3.154151506114956
 10
44.996864670812606
 20
3.160556496197165
 10
44.93816180714262
 20
3.167174931338509
 10
44.876981821475994
 20
3.174021994662563
 10
44.8131885546578
 20
3.181087700324936
 10
44.74685007312595
 20
3.1883772456048107
 10
44.67796637250059
 20
3.1958906986211857
 10
44.60653306855064
 20
3.2036962464891747
 10
44.532550148136544
 20
3.211794093565767
 10
44.456026366580915
 20
3.2200480699777185
 10
44.37695295980143
 20
3.2285944818362657
 10
44.295402369707396
 20
3.237370475543469
 10
44.2113021368701
 20
3.2464391771732513
 10
44.12466100347261
 20
3.2556646212093585
 10
44.035538289389926
 20
3.2651880385662255
 10
43.94392960163126
 20
3.27507775259696
 10
43.849848070990596
 20
3.2851295425511955
 10
43.75321684504847
 20
3.295474857855964
 10
43.65417645843117
 20
3.306055633478532
 10
43.552586358993
 20
3.316930206927619
 10
43.448582697129176
 20
3.3281087002856062
 10
43.34209738012269
 20
3.3395863249872875
 10
43.23319847879129
 20
3.3513682101928497
 10
43.12182228026918
 20
3.363381448340966
 10
43.00803685537414
 20
3.375631168591825
 10
42.891765351686686
 20
3.388248820372458
 10
42.773148299453275
 20
3.4011764067691304
 10
42.65211760595688
 20
3.4144091392166316
 10
42.528673262437806
 20
3.4279471539529567
 10
42.40281524699679
 20
3.4417907915730854
 10
42.274607259360074
 20
3.456013163995333
 10
42.14398557790217
 20
3.4705414998963655
 10
42.011013897969434
 20
3.4854489793134924
 10
41.87569657751386
 20
3.5006678238455757
 10
41.738042371858064
 20
3.516061863619372
 10
41.59811058335762
 20
3.5317726020253004
 10
41.45582436397292
 20
3.5479314203713987
 10
41.3111836918047
 20
3.5645386592526447
 10
41.16426978160426
 20
3.5813950227218725
 10
41.01507823600098
 20
3.598568902251187
 10
40.86360904623512
 20
3.616060434078578
 10
40.709849050853784
 20
3.6340743157873883
 10
40.55382013597353
 20
3.6522701567540046
 10
40.39558161270968
 20
3.670789324130855
 10
40.235129088071396
 20
3.689700141271048
 10
40.072390085110676
 20
3.7090660067244943
 10
39.90750512969402
 20
3.72882899169645
 10
39.74041050457586
 20
3.748916256744586
 10
39.571106200996475
 20
3.769327938106894
 10
39.39965152131144
 20
3.790205539173794
 10
39.22606396740629
 20
3.8112768564367907
 10
39.05026669124141
 20
3.83267327120392
 10
38.87239145460106
 20
3.854473160791678
 10
38.692438244345695
 20
3.8766767295570532
 10
38.510347727460776
 20
3.8991429509425974
 10
38.326115502195805
 20
3.921940284539414
 10
38.13987771894599
 20
3.9450788524298814
 10
37.95155752091202
 20
3.9686901721600325
 10
37.76116803450804
 20
3.992570091098495
 10
37.56877732617191
 20
4.016723806524451
 10
37.37438538276413
 20
4.041151522794889
 10
37.177983422682956
 20
4.065989818497032
 10
36.97957143278885
 20
4.091238897987865
 10
36.779153779793475
 20
4.11683084662826
 10
36.57687099394329
 20
4.142707667504478
 10
36.37258250995301
 20
4.168927902482224
 10
36.16635639864042
 20
4.195496680721686
 10
35.958273870376956
 20
4.2222147743946925
 10
35.74826243945482
 20
4.249145718289145
 10
35.5363770371381
 20
4.27649899855359
 10
35.32268573424451
 20
4.304279744348217
 10
35.10706110066269
 20
4.332342208669366
 10
34.88965243510118
 20
4.360492020373068
 10
34.67044220063572
 20
4.3890019279197885
 10
34.44943476397794
 20
4.417804016670395
 10
34.22662572775723
 20
4.446966678096992
 10
34.00209191811395
 20
4.476358871486524
 10
33.77583332628839
 20
4.505980733076982
 10
33.547781846423995
 20
4.535827678660149
 10
33.31806925344458
 20
4.565977881195528
 10
33.08662745025332
 20
4.596426620236914
 10
32.853533267370395
 20
4.627042786952251
 10
32.61878668727642
 20
4.657826653817524
 10
32.38245578516899
 20
4.688783281873924
 10
32.14446807534032
 20
4.719976205909353
 10
31.904882873285544
 20
4.75154672495724
 10
31.66364520832195
 20
4.783285965940006
 10
31.42095496122993
 20
4.815276686025377
 10
31.176693457220694
 20
4.847236968336448
 10
30.93085629454373
 20
4.879235272464321
 10
30.683566501559977
 20
4.911485805003754
 10
30.434819680898816
 20
4.944056957426852
 10
30.184492782300037
 20
4.976734863733837
 10
29.93286691005506
 20
5.009402848907273
 10
29.679742161484228
 20
5.041978496374417
 10
29.425241556188745
 20
5.074676148968018
 10
29.169292612840692
 20
5.107559273356982
 10
28.912035879205916
 20
5.140569600151586
 10
28.653416393361375
 20
5.173498120036257
 10
28.393493470802227
 20
5.206486132044425
 10
28.132258334306606
 20
5.239670146644316
 10
27.869732874370968
 20
5.272709705093322
 10
27.605921457706984
 20
5.305536892752311
 10
27.34093835297312
 20
5.33850215420828
 10
27.074651745826884
 20
5.371527929572689
 10
26.807193424331654
 20
5.404692187448056
 10
26.53858965883512
 20
5.437586350095653
 10
26.268836056346498
 20
5.470278740868589
 10
25.997923848403627
 20
5.502905733997095
 10
25.72583987355355
 20
5.535672027064513
 10
25.45273783663522
 20
5.568314721216776
 10
25.178499049720276
 20
5.600552103933971
 10
24.903314651406063
 20
5.632602897900078
 10
24.627026535103155
 20
5.664798461560266
 10
24.349720312933478
 20
5.69687110749526
 10
24.0714134824027
 20
5.72854870031556
 10
23.792233473622243
 20
5.759976987024825
 10
23.51203969940758
 20
5.791214850083742
 10
23.230963960961663
 20
5.8223400537378405
 10
22.94894253227916
 20
5.853279894782781
 10
22.666052261399688
 20
5.88390299191053
 10
22.38236123666041
 20
5.914214201805286
 10
22.097801347824905
 20
5.944209008377827
 10
21.812508784707063
 20
5.973896920639574
 10
21.52634733997358
 20
6.003268702055092
 10
21.23944443497619
 20
6.032470235866032
 10
20.95180445394596
 20
6.061433334957275
 10
20.663449278619645
 20
6.089817676824208
 10
20.37437014053508
 20
6.117759635697064
 10
20.084698854034762
 20
6.145336771464382
 10
19.79429483193418
 20
6.17260796658685
 10
19.503303023749666
 20
6.199446492083645
 10
19.211727804952606
 20
6.225784297077645
 10
18.919573551014377
 20
6.251553330691724
 10
18.62683148471311
 20
6.276890103394108
 10
18.33356533205415
 20
6.301867318389134
 10
18.03977507989792
 20
6.326485180033792
 10
17.74554196489501
 20
6.350544051785933
 10
17.45080226104006
 20
6.373971230441216
 10
17.155628440901317
 20
6.396703385568731
 10
16.860075466401817
 20
6.418949526484051
 10
16.564062087751424
 20
6.440909494086314
 10
16.26773326760605
 20
6.462456355037708
 10
15.971055938918973
 20
6.483040573161056
 10
15.674003809443247
 20
6.503071066790065
 10
15.376708715420632
 20
6.522625055218298
 10
15.079111297557477
 20
6.541561920602285
 10
14.781215940084834
 20
6.559813475826907
 10
14.483145702022622
 20
6.577593450653952
 10
14.184836866125197
 20
6.594829005641086
 10
13.886370664663255
 20
6.611320572365161
 10
13.58767899178023
 20
6.627063566617953
 10
13.288893683717893
 20
6.642135207693027
 10
12.990010351865294
 20
6.6566037508244955
 10
12.69104214015598
 20
6.670264770904998
 10
12.39198465997902
 20
6.683186523168652
 10
12.092901641719603
 20
6.6954416427007954
 10
11.793711839967461
 20
6.707229902281572
 10
11.494577745543122
 20
6.718151756350699
 10
11.195499358446574
 20
6.728207204908175
 10
10.896472303206444
 20
6.737464298831127
 10
10.597492191211805
 20
6.745991293353664
 10
10.29863152131
 20
6.753724449330897
 10
9.99981780341338
 20
6.760727369669724
 10
9.701191633466163
 20
6.766941035671466
 10
9.402761775550662
 20
6.772229141224887
 10
9.104523849815639
 20
6.776659805326107
 10
8.806473480789721
 20
6.780301078852249
 10
8.508615048324138
 20
6.783084842807194
 10
8.211093541353891
 20
6.7848837551391545
 10
7.9138320855602435
 20
6.785829605870145
 10
7.6168900402368624
 20
6.786063012843633
 10
7.320221194403472
 20
6.785238864989799
 10
7.023953013210302
 20
6.78350236436033
 10
6.728072370243224
 20
6.781057663586597
 10
6.432524286059797
 20
6.777696025829012
 10
6.137453758354725
 20
6.7732899727977935
 10
5.842852031805404
 20
6.767975674366187
 10
5.548659751498018
 20
6.761612444571726
 10
5.2550043957223505
 20
6.754345281109109
 10
4.961826613944447
 20
6.746033429896876
 10
4.669258259925461
 20
6.736753837752603
 10
4.377149973638867
 20
6.726701829486202
 10
4.08564675277937
 20
6.715749926807897
 10
3.794766116751884
 20
6.703625653733207
 10
3.5045036988447364
 20
6.690396924901264
 10
3.214914474120509
 20
6.6762725452706535
 10
2.9260028399498332
 20
6.661184123369272
 10
2.6377731805637867
 20
6.645063472082001
 10
2.350293619338351
 20
6.627914903141079
 10
2.0634872819547865
 20
6.609870206568514
 10
1.7774135452261584
 20
6.591069727731798
 10
1.4921580475535143
 20
6.5712453704976745
 10
1.207729557399016
 20
6.550260760635917
 10
0.9241193281997513
 20
6.5282519317817735
 10
0.6413915020469254
 20
6.505285115834953
 10
0.3594786694803184
 20
6.481344897666855
 10
0.07844458278437699
 20
6.456503571767837
 10
-0.20164701889601605
 20
6.430833636985253
 10
-0.480846735152053
 20
6.404058237483391
 10
-0.7590864469876207
 20
6.376181753113483
 10
-1.036319934662747
 20
6.347549158707357
 10
-1.3126065574710875
 20
6.318019836421544
 10
-1.5878056975691759
 20
6.2875344269623845
 10
-1.8620535929492523
 20
6.256084170627417
 10
-2.1352140056190763
 20
6.223677827119104
 10
-2.4072275762849884
 20
6.190456014280914
 10
-2.6782349227904594
 20
6.156478091406507
 10
-2.9481460268832174
 20
6.121407843366513
 10
-3.2168509296784045
 20
6.085662743840112
 10
-3.484426509874597
 20
6.049374650968315
 10
-3.7509146073605404
 20
6.0121304709231715
 10
-4.016110865147869
 20
5.973943343258372
 10
-4.280096541786399
 20
5.935013245111045
 10
-4.542876017127358
 20
5.895408295477312
 10
-4.804440531468279
 20
5.854992256364932
 10
-5.06465822666816
 20
5.813842006472486
 10
-5.323665340719242
 20
5.771948786097514
 10
-5.581338775182971
 20
5.729525711930836
 10
-5.83766977035689
 20
5.686436545980211
 10
-6.092653946389767
 20
5.64261316924952
 10
-6.34629568313283
 20
5.598123700734884
 10
-6.5985356212924255
 20
5.5531087582797705
 10
-6.849441879864667
 20
5.507563962032951
 10
-7.098869461154856
 20
5.461361833704648
 10
-7.3468183651629975
 20
5.414502373294857
 10
-7.593352331033975
 20
5.3669130819562305
 10
-7.838407619622901
 20
5.318666458536119
 10
-8.081997370483467
 20
5.2699668600228815
 10
-8.324057844470778
 20
5.220886785263867
 10
-8.564571522179923
 20
5.171153758274598
 10
-8.803606522607014
 20
5.120763399203843
 10
-9.040954108912464
 20
5.069660728609172
 10
-9.276763658642203
 20
5.018041343776487
 10
-9.51103955164746
 20
4.965973363701906
 10
-9.743645549935994
 20
4.91346554808789
 10
-9.974577273656584
 20
4.860449777938317
 10
-10.203889702251647
 20
4.806717316413599
 10
-10.431532236129987
 20
4.752545019349448
 10
-10.657518014845301
 20
4.6981372437342195
 10
-10.881757020145315
 20
4.6431577744385475
 10
-11.104317371026143
 20
4.587602231611199
 10
-11.325071589198012
 20
4.531615612946876
 10
-11.544087793657042
 20
4.475193538594349
 10
-11.761370364254459
 20
4.418404127549735
 10
-11.976838042440457
 20
4.361047402675908
 10
-12.190499587917493
 20
4.303259601965104
 10
-12.402355000685567
 20
4.2450407254173275
 10
-12.612421800149601
 20
4.1866632490170534
 10
-12.820559368466128
 20
4.128067813470627
 10
-13.026890804073691
 20
4.069041302087225
 10
-13.231339228273711
 20
4.009451856725837
 10
-13.433854041474996
 20
3.949576333222177
 10
-13.634512122376117
 20
3.8895465897172503
 10
-13.83322783257604
 20
3.8290945300778088
 10
-14.0299418127811
 20
3.7683607721473242
 10
-14.22479468083477
 20
3.7074046752194545
 10
-14.417650198744811
 20
3.646234998996661
 10
-14.60849522695753
 20
3.5846473864905817
 10
-14.79734290502662
 20
3.5228461946895795
 10
-14.984197612803309
 20
3.4608995425897713
 10
-15.16905497043637
 20
3.39873931119504
 10
-15.351846858929678
 20
3.336369880356615
 10
-15.532568898432007
 20
3.273723131078373
 10
-15.711293587790706
 20
3.21086280250521
 10
-15.887884689013536
 20
3.147797654339581
 10
-16.062350961802956
 20
3.084663924573728
 10
-16.234819884448743
 20
3.021316615512952
 10
-16.40508709996254
 20
2.9577688667109396
 10
-16.57321634748924
 20
2.8939481793203448
 10
-16.73922514643376
 20
2.830127029325646
 10
-16.9031134967961
 20
2.7663054167268433
 10
-17.06480451987768
 20
2.7023514833829267
 10
-17.224293835827268
 20
2.638197110297776
 10
-17.38164518378975
 20
2.5737697986240407
 10
-17.536744225029054
 20
2.5094189030447827
 10
-17.689654698690056
 20
2.4450719247126504
 10
-17.84036784507029
 20
2.3805926256354035
 10
-17.988815545173654
 20
2.315985385664274
 10
-18.135006558702592
 20
2.2513864427915
 10
-18.278932125954654
 20
2.186659559024843
 10
-18.420596626781066
 20
2.121872853360422
 10
-18.56000444103306
 20
2.0570944447943567
 10
-18.69707869001205
 20
1.9921924751856386
 10
-18.831832513271735
 20
1.9273713015226275
 10
-18.9643165104033
 20
1.8623540679696116
 10
-19.094480081815565
 20
1.7974176303623024
 10
-19.222318847657288
 20
1.7324938697045802
 10
-19.347828428077246
 20
1.6675146670003238
 10
-19.470940704079307
 20
1.602484402100765
 10
-19.591728174510834
 20
1.5374668141507914
 10
-19.71013585992939
 20
1.4726706399899954
 10
-19.826155000632514
 20
1.4079596416261362
 10
-19.93978559662021
 20
1.3433338190592123
 10
-20.05110014673983
 20
1.2788569114341162
 10
-20.159958033147895
 20
1.2144695594571862
 10
-20.266436134542996
 20
1.150303621269433
 10
-20.37047509163147
 20
1.086499714714326
 10
-20.472143023409433
 20
1.0230534599406365
 10
-20.571363051178306
 20
0.9598329988073533
 10
-20.668207673785442
 20
0.8969020704593664
 10
-20.762540653238595
 20
0.8342694345991369
 10
-20.85450698723248
 20
0.7720625695164433
 10
-20.943974817626067
 20
0.710358353909867
 10
-21.03100350371303
 20
0.6490161699359374
 10
-21.115593045493362
 20
0.588036017594654
 10
-21.197743442967067
 20
0.5274178968860174
 10
-21.277395336840485
 20
0.4673024256534982
 10
-21.354548727113613
 20
0.4076896038970957
 10
-21.42925859322888
 20
0.34837069477721977
 10
-21.50146995574386
 20
0.28955443513346085
 10
-21.57116529525364
 20
0.2309683489813385
 10
-21.63836213116312
 20
0.17288491230533373
 10
-21.703042944067395
 20
0.11503164912096529
 10
-21.765216493668927
 20
0.05754479742047411
 10
-21.8248827799677
 20
0.0004243572038595761
 10
-21.88196930411638
 20
-0.056393410673767665
 10
-21.936621063809667
 20
-0.1127810279226285
 10
-21.9886205625055
 20
-0.1689297119773916
 10
-22.0381809168947
 20
-0.22471636439950823
 10
-22.08516150913381
 20
-0.2802003444826378
 10
-22.129575478776506
 20
-0.33517729523841994
 10
-22.171482185116457
 20
-0.3897878345103257
 10
-22.210817889008766
 20
-0.4439594634510039
 10
-22.24760010985836
 20
-0.4974197060759755
 10
-22.28188382710767
 20
-0.5503772992248301
 10
-22.313609681463024
 20
-0.6026916250540977
 10
-22.342786432626895
 20
-0.6542264455715385
 10
-22.369431600004198
 20
-0.7047092847926721
 10
-22.393545183594938
 20
-0.7541401427174994
 10
-22.41520406209769
 20
-0.80238716120501
 10
-22.434293896776367
 20
-0.8491009855721435
 10
-22.450900326032006
 20
-0.8940135196856506
 10
-22.465135267373036
 20
-0.9364479534355615
 10
-22.47689314176582
 20
-0.9759186941465762
 10
-22.486312145826172
 20
-1.0113402177320052
 10
-22.493530476169887
 20
-1.0416270001051595
 10
-22.498517011234252
 20
-1.0651354256566985
 10
-22.50144936629614
 20
-1.0801668993348537
 10
-22.474751998010284
 20
-1.5155986207109808
 10
-22.473234364671264
 20
-1.518989472339726
 10
-22.468685844505437
 20
-1.5290939082298411
 10
-22.46112395691772
 20
-1.5456394523968469
 10
-22.450406125441088
 20
-1.569779747923552
 10
-22.43657661119194
 20
-1.6029540534309368
 10
-22.41979504743812
 20
-1.641615801269532
 10
-22.40012909057166
 20
-1.6836489227083888
 10
-22.37777191665078
 20
-1.7281766305004076
 10
-22.352747383555197
 20
-1.7737640458758388
 10
-22.32502679094987
 20
-1.8197937180183725
 10
-22.294768276083172
 20
-1.8659338116498685
 10
-22.26192123936392
 20
-1.911907470934618
 10
-22.22650320019703
 20
-1.9574422198881405
 10
-22.188522918284967
 20
-2.0024018205181955
 10
-22.147980393627723
 20
-2.0467862728247836
 10
-22.104948125072646
 20
-2.090531837663015
 10
-22.05936675332609
 20
-2.1334978971894194
 10
-22.011231898536806
 20
-2.175752570400117
 10
-21.960616059552162
 20
-2.2172321181502177
 10
-21.907442357673567
 20
-2.2580683985807317
 10
-21.85171517275226
 20
-2.2981932926955384
 10
-21.793579502482935
 20
-2.337479322204859
 10
-21.73281785032354
 20
-2.3761177045433617
 10
-21.66963895311366
 20
-2.4140534602686183
 10
-21.603902193009844
 20
-2.451345948674288
 10
-21.535680068859428
 20
-2.4879314306154803
 10
-21.464976960513642
 20
-2.5237417870960765
 10
-21.3917797284188
 20
-2.5589813751044357
 10
-21.31609713227736
 20
-2.5935139566483176
 10
-21.237911652684396
 20
-2.6276120077122034
 10
-21.157236429193613
 20
-2.6610711713077326
 10
-21.074130821098656
 20
-2.6940320652783742
 10
-20.988526709403416
 20
-2.7264903097728994
 10
-20.900415334405423
 20
-2.7585821427835473
 10
-20.809869194952032
 20
-2.790243825165429
 10
-20.716883911192017
 20
-2.8215434759146643
 10
-20.621459483125367
 20
-2.8524810950312522
 10
-20.52351465220228
 20
-2.8832566596523237
 10
-20.423190036266227
 20
-2.9138108104842186
 10
-20.320353777176198
 20
-2.944066668828356
 10
-20.215142112924422
 20
-2.974032994387197
 10
-20.10747816481233
 20
-3.0038416453017516
 10
-19.997430051836037
 20
-3.033497001423249
 10
-19.884934034850662
 20
-3.0629265639043406
 10
-19.770066992554774
 20
-3.091998474604015
 10
-19.65275642610103
 20
-3.1207764726671625
 10
-19.53313419363043
 20
-3.1493374367923637
 10
-19.411132176146868
 20
-3.1776769871283883
 10
-19.28675037365034
 20
-3.205795123675237
 10
-19.160001925694523
 20
-3.2334874894445482
 10
-19.030954951275554
 20
-3.260758464287554
 10
-18.899541331397305
 20
-3.287603668353022
 10
-18.76582042535344
 20
-3.314163719484425
 10
-18.629792233143956
 20
-3.340438617681761
 10
-18.491474274173772
 20
-3.366155886960551
 10
-18.35092590773655
 20
-3.3914561451642653
 10
-18.2080833946874
 20
-3.416266893445552
 10
-18.06294235517509
 20
-3.4406562508005334
 10
-17.915570908195743
 20
-3.4646285970804382
 10
-17.765973433600585
 20
-3.4881158132891477
 10
-17.614145551538396
 20
-3.5111860184227806
 10
-17.460087262009164
 20
-3.533839212481337
 10
-17.303802944864124
 20
-3.556007276468698
 10
-17.145356339248163
 20
-3.5777627092322124
 10
-16.984747445161286
 20
-3.599105510771881
 10
-16.821912523458604
 20
-3.6199631822403533
 10
-16.65697905242989
 20
-3.6404807213323305
 10
-16.489883292930255
 20
-3.6605856292004613
 10
-16.32062086510848
 20
-3.680346024840867
 10
-16.149264267811898
 20
-3.6996981691086557
 10
-15.975826640594212
 20
-3.7184377050154693
 10
-15.800294843901726
 20
-3.736768989549667
 10
-15.622591999035864
 20
-3.754823880852259
 10
-15.442926842836208
 20
-3.7725473994808154
 10
-15.26117189701299
 20
-3.7897945477406365
 10
-15.07733154141743
 20
-3.8064972066356013
 10
-14.89153325433931
 20
-3.8228003738604115
 10
-14.703704536931284
 20
-3.838767788559955
 10
-14.51385414889581
 20
-3.854263212741994
 10
-14.322050209229007
 20
-3.869291026257757
 10
-14.128297097782106
 20
-3.883783110111125
 10
-13.932581675001417
 20
-3.8979438212904576
 10
-13.734912700589398
 20
-3.911636921803514
 10
-13.535281414843594
 20
-3.9249986496425366
 10
-13.333837195309927
 20
-3.937833407521623
 10
-13.130439424144935
 20
-3.9502005547344345
 10
-12.925156220344734
 20
-3.9621044711322013
 10
-12.718051323054212
 20
-3.9736176555622724
 10
-12.509065372979714
 20
-3.9845994901811785
 10
-12.2982577294149
 20
-3.99519059283239
 10
-12.085700891207113
 20
-4.005327224371016
 10
-11.87126738006658
 20
-4.0148643871023575
 10
-11.65509343398554
 20
-4.023810840728874
 10
-11.4371659134103
 20
-4.032370942238926
 10
-11.217484818340862
 20
-4.040544691632514
 10
-10.996050148777224
 20
-4.0483320889096355
 10
-10.7729431632692
 20
-4.055533156933164
 10
-10.548172621519248
 20
-4.062011657710857
 10
-10.321652885126328
 20
-4.068035687375965
 10
-10.093520192082678
 20
-4.073614005630949
 10
-9.863715183094639
 20
-4.078605994632339
 10
-9.632314736860796
 20
-4.082879796239125
 10
-9.399305713827454
 20
-4.0866397674396655
 10
-9.16474747328827
 20
-4.090026526077431
 10
-8.928580655949592
 20
-4.092899454308954
 10
-8.690818401365103
 20
-4.095054195145871
 10
-8.451588187824587
 20
-4.096635746282885
 10
-8.210885635476814
 20
-4.097712226716116
 10
-7.968574506329541
 20
-4.098274876743101
 10
-7.724863537222358
 20
-4.098268716921413
 10
-7.479693368861613
 20
-4.097553129407581
 10
-7.233064001247295
 20
-4.096128114201605
 10
-6.985039173524302
 20
-4.0940661701508345
 10
-6.735596986436479
 20
-4.091707892235872
 10
-6.484818698533636
 20
-4.088853303319585
 10
-6.232653710224579
 20
-4.085225547566264
 10
-5.979097641658074
 20
-4.080892743972029
 10
-5.724286730826357
 20
-4.075863652239341
 10
-5.468135339328397
 20
-4.070406368501449
 10
-5.210720345862765
 20
-4.064389034617344
 10
-4.952041750429464
 20
-4.057811650587026
 10
-4.692108312730958
 20
-4.050537978418253
 10
-4.4309156529160125
 20
-4.042636137107148
 10
-4.168591249274409
 20
-4.03425112434841
 10
-3.905007623516372
 20
-4.025237942447339
 10
-3.6403097733365906
 20
-4.015469113114154
 10
-3.3744933188838413
 20
-4.005012755344977
 10
-3.107553880306898
 20
-3.9939369881359266
 10
-2.8394277184608634
 20
-3.982169312639652
 10
-2.5703279500365657
 20
-3.9695866304176057
 10
-2.300190835889107
 20
-3.956116442622437
 10
-2.0289219779149907
 20
-3.942163083379635
 10
-1.7566619939576857
 20
-3.927667193395541
 10
-1.4835052821206942
 20
-3.912224438544664
 10
-1.2093024648580855
 20
-3.896030416112904
 10
-0.9341172813147487
 20
-3.879157624947611
 10
-0.6580947291853848
 20
-3.861478586759007
 10
-0.38110295032898384
 20
-3.84291642284851
 10
-0.10327818273778222
 20
-3.823479892918581
 10
0.17546521198925727
 20
-3.8034370931024695
 10
0.45505035515355075
 20
-3.7826561652591653
 10
0.7353872285028343
 20
-3.7608008942592996
 10
1.0165570905869117
 20
-3.7380712572400023
 10
1.2985093418145903
 20
-3.714744110036982
 10
1.5811627367756105
 20
-3.690619679870099
 10
1.8645817241507603
 20
-3.6656365031693734
 10
2.148707347592691
 20
-3.6399414647259194
 10
2.433522100836041
 20
-3.6132622929122444
 10
2.7190259926405145
 20
-3.5855991239663414
 10
3.0051684234149043
 20
-3.557228813723919
 10
3.2918856715337252
 20
-3.528224133508315
 10
3.57924148052173
 20
-3.4985126525911725
 10
3.8671545962089473
 20
-3.4678944619543586
 10
4.155633782677693
 20
-3.43650586770911
 10
4.4446790574473765
 20
-3.4043471423314102
 10
4.734222297142023
 20
-3.3714225975534937
 10
5.0242503753474885
 20
-3.33752808074399
 10
5.314772051766244
 20
-3.302799829895137
 10
5.605668607810964
 20
-3.2675190806938774
 10
5.897071919142065
 20
-3.2316092269176124
 10
6.188832603833768
 20
-3.1948746031614492
 10
6.481023169493123
 20
-3.1573790848082677
 10
6.773507378127888
 20
-3.11913143156053
 10
7.066357732965269
 20
-3.08019545068212
 10
7.3595698585338845
 20
-3.040503091295916
 10
7.653011896692721
 20
-3.000131232100497
 10
7.94676072614037
 20
-2.9592117312368726
 10
8.240811980165146
 20
-2.917676674065913
 10
8.53502502778402
 20
-2.8754664969369683
 10
8.829472376604057
 20
-2.83264507523292
 10
9.124094667331589
 20
-2.789353026797241
 10
9.418942503937672
 20
-2.7453135639132147
 10
9.713888399372822
 20
-2.7006715480375507
 10
10.008941113339498
 20
-2.6555632171624883
 10
10.30409627036632
 20
-2.6099205204109035
 10
10.599345110750832
 20
-2.563607219790557
 10
10.894696398575341
 20
-2.516759621412685
 10
11.190022633650814
 20
-2.469522382377006
 10
11.485383184030612
 20
-2.421755021078044
 10
11.780723070272309
 20
-2.373666274355386
 10
12.07602914406251
 20
-2.3250516489826825
 10
12.37129702992983
 20
-2.2758430940828096
 10
12.66653548757674
 20
-2.2261768476480066
 10
12.96162139228557
 20
-2.1762656176551167
 10
13.256622876192004
 20
-2.1261052286098985
 10
13.551458671986527
 20
-2.07549556713723
 10
13.846133150760668
 20
-2.024504615995239
 10
14.140646316894268
 20
-1.973132443302922
 10
14.435002541478877
 20
-1.9214470318184051
 10
14.729061184771746
 20
-1.8693886816530498
 10
15.022894758759785
 20
-1.817021336308734
 10
15.316439498019001
 20
-1.7644170859188304
 10
15.609772303147237
 20
-1.71170812921933
 10
15.902739377328647
 20
-1.6586301368572487
 10
16.195345104794338
 20
-1.6052512959477008
 10
16.48767950379657
 20
-1.5519078216200575
 10
16.779580035336473
 20
-1.4981994190050785
 10
17.071042306423255
 20
-1.444057764749655
 10
17.362160728299976
 20
-1.3898873973362655
 10
17.652807787638036
 20
-1.3358327695076413
 10
17.943025333085888
 20
-1.281480923673824
 10
18.23274960797923
 20
-1.2269040862061802
 10
18.521912467042835
 20
-1.172106228241963
 10
18.810590802114856
 20
-1.1172194122791699
 10
19.098720852151114
 20
-1.062315796570171
 10
19.386306983863314
 20
-1.007463295754098
 10
19.673272305413303
 20
-0.9525298473329535
 10
19.959608039579223
 20
-0.8973789408385118
 10
20.24532732153492
 20
-0.8422148651401367
 10
20.530430146900528
 20
-0.7870375521188334
 10
20.81478460935669
 20
-0.7319231311642234
 10
21.09852697755459
 20
-0.6768633194068203
 10
21.381507830149797
 20
-0.6216618383707628
 10
21.66373153823383
 20
-0.5663866708141783
 10
21.945219983543435
 20
-0.5113781392416836
 10
22.225968790607247
 20
-0.45656819277615285
 10
22.505832904792477
 20
-0.4018284675808588
 10
22.784952974601577
 20
-0.34721879978243225
 10
23.063188334012697
 20
-0.29267908077825744
 10
23.34060711078166
 20
-0.2382050669550964
 10
23.617149914955863
 20
-0.1839368993234453
 10
23.892748596880214
 20
-0.1298784809015629
 10
24.167480048392846
 20
-0.07616187418744633
 10
24.441194835009764
 20
-0.022590596348247435
 10
24.714029225382177
 20
0.030843635485522627
 10
24.98584255348824
 20
0.08420092991647962
 10
25.256661076536076
 20
0.13707291356288495
 10
25.526416649250468
 20
0.1894556152874852
 10
25.795219261175227
 20
0.24176603193648702
 10
26.062860096633443
 20
0.2940603690942505
 10
26.32951046308616
 20
0.345801957661304
 10
26.595029690131685
 20
0.3970509743592591
 10
26.859400236465845
 20
0.4480802357675776
 10
27.122622093328932
 20
0.49888987812425056
 10
27.38469962743264
 20
0.5494119867901482
 10
27.645654729273385
 20
0.5993061030226604
 10
27.905342331078884
 20
0.6487007950155068
 10
28.16388557508617
 20
0.6978084982695453
 10
28.4211481532254
 20
0.7466215429862537
 10
28.67713881205948
 20
0.7950038955303813
 10
28.93186630253116
 20
0.8428194541476792
 10
29.185321847418585
 20
0.8902047293063726
 10
29.437437283927096
 20
0.9371560223451911
 10
29.688289508274718
 20
0.9835412026471422
 10
29.937742212391573
 20
1.0293526004137032
 10
30.185850393239477
 20
1.0747986800084781
 10
30.432477733988893
 20
1.119871907870939
 10
30.67783742578811
 20
1.1644480275396007
 10
30.921665620959555
 20
1.208375325187187
 10
31.164098605673853
 20
1.2516618112072009
 10
31.405131982560356
 20
1.2943758770717466
 10
31.644620683846735
 20
1.3366460909745408
 10
31.882569067484983
 20
1.3784046745144456
 10
32.11911779511707
 20
1.4195915872078402
 10
32.35406679324916
 20
1.460127069122828
 10
32.587492949339506
 20
1.4998791258804063
 10
32.8193149610398
 20
1.539048415807667
 10
33.049596580634486
 20
1.5777072333949718
 10
33.27827402518015
 20
1.615783760984932
 10
33.505347277157405
 20
1.6532782710535305
 10
33.73076130894547
 20
1.6899827760701374
 10
33.95457112188599
 20
1.72610567227936
 10
34.1766447746208
 20
1.761571375243544
 10
34.39704163958312
 20
1.7965202984491728
 10
34.61577484756693
 20
1.8307482211458777
 10
34.83278060686914
 20
1.8641834619142625
 10
35.048045760416635
 20
1.8970306502186705
 10
35.26157029506989
 20
1.9292899904160918
 10
35.47335419330944
 20
1.9609617549825087
 10
35.68326989800826
 20
1.9919021723651529
 10
35.89146245503936
 20
2.0219830149652864
 10
36.09784179797213
 20
2.051541247221237
 10
36.30234413948331
 20
2.080505119594612
 10
36.50503761170857
 20
2.1088788075796523
 10
36.705862807175905
 20
2.136522442641846
 10
36.90474717885956
 20
2.1635005132350384
 10
37.1018226374588
 20
2.189889080629858
 10
37.296965996938034
 20
2.2154763905154073
 10
37.49016848445526
 20
2.240398885240914
 10
37.68143446672213
 20
2.2645886501672456
 10
37.87075078228574
 20
2.288250382877745
 10
38.05812617770894
 20
2.311248049737157
 10
38.243492481437436
 20
2.3335780883222084
 10
38.426854060182905
 20
2.3551725839937663
 10
38.60827467498946
 20
2.3761036950041983
 10
38.787613620416636
 20
2.396432143027089
 10
38.96487087456517
 20
2.416158268657419
 10
39.14011896256152
 20
2.43521792403632
 10
39.313362268636766
 20
2.4535429220486775
 10
39.484451419624826
 20
2.4713287918613944
 10
39.653454157854625
 20
2.4885857715593667
 10
39.82038404772539
 20
2.5051028966116102
 10
39.985168380156956
 20
2.5209471758748307
 10
40.14779838668714
 20
2.53625498357926
 10
40.30835096791376
 20
2.5508941209889042
 10
40.466694173718984
 20
2.5647891399041067
 10
40.62288738529566
 20
2.5780803175733533
 10
40.77692620965305
 20
2.590835977349754
 10
40.92874247961665
 20
2.603052488691035
 10
41.078344941749386
 20
2.614593817961946
 10
41.22572919430075
 20
2.625528424753585
 10
41.37088646880859
 20
2.635992683296187
 10
41.513821127604736
 20
2.6459187470696164
 10
41.654473767597004
 20
2.655166679420362
 10
41.79284436688614
 20
2.663736820943406
 10
41.92898355572231
 20
2.6719055506414855
 10
42.06282753802257
 20
2.6796012552142003
 10
42.19437630940705
 20
2.6868240027805457
 10
42.3236342278277
 20
2.693506014939382
 10
42.45053313048993
 20
2.699643593029441
 10
42.57514115390925
 20
2.7052408444259686
 10
42.69738137996842
 20
2.710430240340939
 10
42.81726254647065
 20
2.715075883377094
 10
42.93477588495375
 20
2.7193141477646625
 10
43.049998300395444
 20
2.723012766648663
 10
43.16278470750398
 20
2.726300580698793
 10
43.27319887170337
 20
2.7292496800484285
 10
43.38117700567035
 20
2.731788315159177
 10
43.48679163453139
 20
2.733852338172169
 10
43.589965796370734
 20
2.7355749014893442
 10
43.6907763742668
 20
2.7368240788506943
 10
43.78907417900728
 20
2.7377925384252872
 10
43.88499954812515
 20
2.738425280535213
 10
43.97841628742668
 20
2.7387128642880523
 10
44.069392542187124
 20
2.738659260821057
 10
44.157928303646756
 20
2.73826460637222
 10
44.24401917881478
 20
2.7375972242946496
 10
44.327601389127686
 20
2.7365852288119616
 10
44.40866615736356
 20
2.735365130392378
 10
44.48728602178846
 20
2.7338725768200467
 10
44.56338842661693
 20
2.7321721927868055
 10
44.63697774732037
 20
2.7301959274155307
 10
44.7080495996677
 20
2.728011967821338
 10
44.77660835037059
 20
2.7255523993650965
 10
44.84264961519796
 20
2.7228854091619232
 10
44.9061646300675
 20
2.7201473033230523
 10
44.967093983127334
 20
2.717198281432968
 10
45.02556961135579
 20
2.7141139960483196
 10
45.081382646517746
 20
2.7109514701814215
 10
45.13474194370877
 20
2.7076538851769483
 10
45.18551117733962
 20
2.7042138437123624
 10
45.23368158332794
 20
2.7007676518988992
 10
45.27932569555994
 20
2.697251025639701
 10
45.322375346861115
 20
2.6936603343924945
 10
45.36282177752899
 20
2.6901318161495196
 10
45.40074189692111
 20
2.686533135936792
 10
45.436058786920256
 20
2.6829967649662896
 10
45.468776818617926
 20
2.679454720479882
 10
45.49888723231168
 20
2.6760432404698116
 10
45.52639440785274
 20
2.672694205939956
 10
45.55136211504497
 20
2.6694796389046944
 10
45.57365403267892
 20
2.666392073922492
 10
45.59333394369802
 20
2.6635033286507377
 10
45.6104700021372
 20
2.6608172379886925
 10
45.62492588678705
 20
2.6583263364948224
 10
45.63676099198002
 20
2.656170697060629
 10
45.64604786912168
 20
2.6542857631132684
 10
45.652641419780764
 20
2.652800579679433
 10
45.656605440040224
 20
2.65178676005952
 10
45.65793115705804
 20
2.6513807466027597
  0
ENDSEC
  0
SECTION
  2
OBJECTS
  0
DICTIONARY
  5
A
330
0
100
AcDbDictionary
280
0
281
1
  3
ACAD_COLOR
350
B
  3
ACAD_GROUP
350
C
  3
ACAD_LAYOUT
350
D
  3
ACAD_MATERIAL
350
E
  3
ACAD_MLEADERSTYLE
350
F
  3
ACAD_MLINESTYLE
350
10
  3
ACAD_PLOTSETTINGS
350
11
  3
ACAD_PLOTSTYLENAME
350
12
  3
ACAD_SCALELIST
350
14
  3
ACAD_TABLESTYLE
350
15
  3
ACAD_VISUALSTYLE
350
16
  3
EZDXF_META
350
2D
  0
DICTIONARY
  5
B
330
A
100
AcDbDictionary
280
0
281
1
  0
DICTIONARY
  5
C
330
A
100
AcDbDictionary
280
0
281
1
  0
DICTIONARY
  5
D
330
A
100
AcDbDictionary
280
0
281
1
  3
Model
350
1A
  3
Layout1
350
1E
  0
DICTIONARY
  5
E
330
A
100
AcDbDictionary
280
0
281
1
  3
ByBlock
350
1F
  3
ByLayer
350
20
  3
Global
350
21
  0
DICTIONARY
  5
F
330
A
100
AcDbDictionary
280
0
281
1
  3
Standard
350
2C
  0
DICTIONARY
  5
10
330
A
100
AcDbDictionary
280
0
281
1
  3
Standard
350
22
  0
DICTIONARY
  5
11
330
A
100
AcDbDictionary
280
0
281
1
  0
ACDBDICTIONARYWDFLT
  5
12
330
A
100
AcDbDictionary
280
0
281
1
  3
Normal
350
13
100
AcDbDictionaryWithDefault
340
13
  0
ACDBPLACEHOLDER
  5
13
330
12
  0
DICTIONARY
  5
14
330
A
100
AcDbDictionary
280
0
281
1
  0
DICTIONARY
  5
15
330
A
100
AcDbDictionary
280
0
281
1
  0
DICTIONARY
  5
16
330
A
100
AcDbDictionary
280
0
281
1
  0
LAYOUT
  5
1A
330
D
100
AcDbPlotSettings
  1

  4
A3
  6

 40
7.5
 41
20.0
 42
7.5
 43
20.0
 44
420.0
 45
297.0
 46
0.0
 47
0.0
 48
0.0
 49
0.0
140
0.0
141
0.0
142
1.0
143
1.0
 70
1024
 72
1
 73
0
 74
5
  7

 75
16
 76
0
 77
2
 78
300
147
1.0
148
0.0
149
0.0
100
AcDbLayout
  1
Model
 70
1
 71
0
 10
0.0
 20
0.0
 11
420.0
 21
297.0
 12
0.0
 22
0.0
 32
0.0
 14
1e+20
 24
1e+20
 34
1e+20
 15
-1e+20
 25
-1e+20
 35
-1e+20
146
0.0
 13
0.0
 23
0.0
 33
0.0
 16
1.0
 26
0.0
 36
0.0
 17
0.0
 27
1.0
 37
0.0
 76
1
330
17
  0
LAYOUT
  5
1E
330
D
100
AcDbPlotSettings
  1

  4
A3
  6

 40
7.5
 41
20.0
 42
7.5
 43
20.0
 44
420.0
 45
297.0
 46
0.0
 47
0.0
 48
0.0
 49
0.0
140
0.0
141
0.0
142
1.0
143
1.0
 70
0
 72
1
 73
0
 74
5
  7

 75
16
 76
0
 77
2
 78
300
147
1.0
148
0.0
149
0.0
100
AcDbLayout
  1
Layout1
 70
1
 71
1
 10
0.0
 20
0.0
 11
420.0
 21
297.0
 12
0.0
 22
0.0
 32
0.0
 14
1e+20
 24
1e+20
 34
1e+20
 15
-1e+20
 25
-1e+20
 35
-1e+20
146
0.0
 13
0.0
 23
0.0
 33
0.0
 16
1.0
 26
0.0
 36
0.0
 17
0.0
 27
1.0
 37
0.0
 76
1
330
1B
  0
MATERIAL
  5
1F
102
{ACAD_REACTORS
330
E
102
}
330
E
100
AcDbMaterial
  1
ByBlock
  2

 70
0
 40
1.0
 71
1
 41
1.0
 91
-1023410177
 42
1.0
 72
1
  3

 73
1
 74
1
 75
1
 44
0.5
 73
0
 45
1.0
 46
1.0
 77
1
  4

 78
1
 79
1
170
1
 48
1.0
171
1
  6

172
1
173
1
174
1
140
1.0
141
1.0
175
1
  7

176
1
177
1
178
1
143
1.0
179
1
  8

270
1
271
1
272
1
145
1.0
146
1.0
273
1
  9

274
1
275
1
276
1
 42
1.0
 72
1
  3

 73
1
 74
1
 75
1
 94
63
  0
MATERIAL
  5
20
102
{ACAD_REACTORS
330
E
102
}
330
E
100
AcDbMaterial
  1
ByLayer
  2

 70
0
 40
1.0
 71
1
 41
1.0
 91
-1023410177
 42
1.0
 72
1
  3

 73
1
 74
1
 75
1
 44
0.5
 73
0
 45
1.0
 46
1.0
 77
1
  4

 78
1
 79
1
170
1
 48
1.0
171
1
  6

172
1
173
1
174
1
140
1.0
141
1.0
175
1
  7

176
1
177
1
178
1
143
1.0
179
1
  8

270
1
271
1
272
1
145
1.0
146
1.0
273
1
  9

274
1
275
1
276
1
 42
1.0
 72
1
  3

 73
1
 74
1
 75
1
 94
63
  0
MATERIAL
  5
21
102
{ACAD_REACTORS
330
E
102
}
330
E
100
AcDbMaterial
  1
Global
  2

 70
0
 40
1.0
 71
1
 41
1.0
 91
-1023410177
 42
1.0
 72
1
  3

 73
1
 74
1
 75
1
 44
0.5
 73
0
 45
1.0
 46
1.0
 77
1
  4

 78
1
 79
1
170
1
 48
1.0
171
1
  6

172
1
173
1
174
1
140
1.0
141
1.0
175
1
  7

176
1
177
1
178
1
143
1.0
179
1
  8

270
1
271
1
272
1
145
1.0
146
1.0
273
1
  9

274
1
275
1
276
1
 42
1.0
 72
1
  3

 73
1
 74
1
 75
1
 94
63
  0
MLINESTYLE
  5
22
102
{ACAD_REACTORS
330
10
102
}
330
10
100
AcDbMlineStyle
  2
Standard
 70
0
  3

 62
256
 51
90.0
 52
90.0
 71
2
 49
0.5
 62
256
  6
BYLAYER
 49
-0.5
 62
256
  6
BYLAYER
  0
MLEADERSTYLE
  5
2C
102
{ACAD_REACTORS
330
F
102
}
330
F
100
AcDbMLeaderStyle
179
2
170
2
171
1
172
0
 90
2
 40
0.0
 41
0.0
173
1
 91
-1056964608
 92
-2
290
1
 42
2.0
291
1
 43
8.0
  3
Standard
 44
4.0
300

342
29
174
1
175
1
176
0
178
1
 93
-1056964608
 45
4.0
292
0
297
0
 46
4.0
 94
-1056964608
 47
1.0
 49
1.0
140
1.0
294
1
141
0.0
177
0
142
1.0
295
0
296
0
143
3.75
271
0
272
9
273
9
  0
DICTIONARY
  5
2D
330
A
100
AcDbDictionary
280
1
281
1
  3
CREATED_BY_EZDXF
350
2E
  3
WRITTEN_BY_EZDXF
350
32
  0
DICTIONARYVAR
  5
2E
330
2D
100
DictionaryVariables
280
0
  1
1.3.5 @ 2025-08-20T01:28:30.086597+00:00
  0
DICTIONARYVAR
  5
32
330
2D
100
DictionaryVariables
280
0
  1
1.3.5 @ 2025-08-20T01:28:30.086597+00:00
  0
ENDSEC
  0
EOF
