  0
SECTION
  2
HEADER
  9
$ACADVER
  1
AC1032
  9
$ACADMAINTVER
 90
4
  9
$DWGCODEPAGE
  3
ANSI_1252
  9
$LASTSAVEDBY
  1
ezdxf
  9
$REQUIREDVERSIONS
160
0
  9
$INSBASE
 10
0.0
 20
0.0
 30
0.0
  9
$EXTMIN
 10
1e+20
 20
1e+20
 30
1e+20
  9
$EXTMAX
 10
-1e+20
 20
-1e+20
 30
-1e+20
  9
$LIMMIN
 10
0.0
 20
0.0
  9
$LIMMAX
 10
420.0
 20
297.0
  9
$ORTHOMODE
 70
0
  9
$REGENMODE
 70
1
  9
$FILLMODE
 70
1
  9
$QTEXTMODE
 70
0
  9
$MIRRTEXT
 70
1
  9
$LTSCALE
 40
1.0
  9
$ATTMODE
 70
1
  9
$TEXTSIZE
 40
2.5
  9
$TRACEWID
 40
1.0
  9
$TEXTSTYLE
  7
Standard
  9
$CLAYER
  8
0
  9
$CELTYPE
  6
ByLayer
  9
$CECOLOR
 62
256
  9
$CELTSCALE
 40
1.0
  9
$DISPSILH
 70
0
  9
$DIMSCALE
 40
1.0
  9
$DIMASZ
 40
2.5
  9
$DIMEXO
 40
0.625
  9
$DIMDLI
 40
3.75
  9
$DIMRND
 40
0.0
  9
$DIMDLE
 40
0.0
  9
$DIMEXE
 40
1.25
  9
$DIMTP
 40
0.0
  9
$DIMTM
 40
0.0
  9
$DIMTXT
 40
2.5
  9
$DIMCEN
 40
2.5
  9
$DIMTSZ
 40
0.0
  9
$DIMTOL
 70
0
  9
$DIMLIM
 70
0
  9
$DIMTIH
 70
0
  9
$DIMTOH
 70
0
  9
$DIMSE1
 70
0
  9
$DIMSE2
 70
0
  9
$DIMTAD
 70
1
  9
$DIMZIN
 70
8
  9
$DIMBLK
  1

  9
$DIMASO
 70
1
  9
$DIMSHO
 70
1
  9
$DIMPOST
  1

  9
$DIMAPOST
  1

  9
$DIMALT
 70
0
  9
$DIMALTD
 70
3
  9
$DIMALTF
 40
0.03937007874
  9
$DIMLFAC
 40
1.0
  9
$DIMTOFL
 70
1
  9
$DIMTVP
 40
0.0
  9
$DIMTIX
 70
0
  9
$DIMSOXD
 70
0
  9
$DIMSAH
 70
0
  9
$DIMBLK1
  1

  9
$DIMBLK2
  1

  9
$DIMSTYLE
  2
ISO-25
  9
$DIMCLRD
 70
0
  9
$DIMCLRE
 70
0
  9
$DIMCLRT
 70
0
  9
$DIMTFAC
 40
1.0
  9
$DIMGAP
 40
0.625
  9
$DIMJUST
 70
0
  9
$DIMSD1
 70
0
  9
$DIMSD2
 70
0
  9
$DIMTOLJ
 70
0
  9
$DIMTZIN
 70
8
  9
$DIMALTZ
 70
0
  9
$DIMALTTZ
 70
0
  9
$DIMUPT
 70
0
  9
$DIMDEC
 70
2
  9
$DIMTDEC
 70
2
  9
$DIMALTU
 70
2
  9
$DIMALTTD
 70
3
  9
$DIMTXSTY
  7
Standard
  9
$DIMAUNIT
 70
0
  9
$DIMADEC
 70
0
  9
$DIMALTRND
 40
0.0
  9
$DIMAZIN
 70
0
  9
$DIMDSEP
 70
44
  9
$DIMATFIT
 70
3
  9
$DIMFRAC
 70
0
  9
$DIMLDRBLK
  1

  9
$DIMLUNIT
 70
2
  9
$DIMLWD
 70
-2
  9
$DIMLWE
 70
-2
  9
$DIMTMOVE
 70
0
  9
$DIMFXL
 40
1.0
  9
$DIMFXLON
 70
0
  9
$DIMJOGANG
 40
0.785398163397
  9
$DIMTFILL
 70
0
  9
$DIMTFILLCLR
 70
0
  9
$DIMARCSYM
 70
0
  9
$DIMLTYPE
  6

  9
$DIMLTEX1
  6

  9
$DIMLTEX2
  6

  9
$DIMTXTDIRECTION
 70
0
  9
$LUNITS
 70
2
  9
$LUPREC
 70
4
  9
$SKETCHINC
 40
1.0
  9
$FILLETRAD
 40
10.0
  9
$AUNITS
 70
0
  9
$AUPREC
 70
2
  9
$MENU
  1
.
  9
$ELEVATION
 40
0.0
  9
$PELEVATION
 40
0.0
  9
$THICKNESS
 40
0.0
  9
$LIMCHECK
 70
0
  9
$CHAMFERA
 40
0.0
  9
$CHAMFERB
 40
0.0
  9
$CHAMFERC
 40
0.0
  9
$CHAMFERD
 40
0.0
  9
$SKPOLY
 70
0
  9
$TDCREATE
 40
2460908.103125
  9
$TDUCREATE
 40
2458532.153996898
  9
$TDUPDATE
 40
2460908.103125
  9
$TDUUPDATE
 40
2458532.1544311
  9
$TDINDWG
 40
0.0
  9
$TDUSRTIMER
 40
0.0
  9
$USRTIMER
 70
1
  9
$ANGBASE
 50
0.0
  9
$ANGDIR
 70
0
  9
$PDMODE
 70
0
  9
$PDSIZE
 40
0.0
  9
$PLINEWID
 40
0.0
  9
$SPLFRAME
 70
0
  9
$SPLINETYPE
 70
6
  9
$SPLINESEGS
 70
8
  9
$HANDSEED
  5
33
  9
$SURFTAB1
 70
6
  9
$SURFTAB2
 70
6
  9
$SURFTYPE
 70
6
  9
$SURFU
 70
6
  9
$SURFV
 70
6
  9
$UCSBASE
  2

  9
$UCSNAME
  2

  9
$UCSORG
 10
0.0
 20
0.0
 30
0.0
  9
$UCSXDIR
 10
1.0
 20
0.0
 30
0.0
  9
$UCSYDIR
 10
0.0
 20
1.0
 30
0.0
  9
$UCSORTHOREF
  2

  9
$UCSORTHOVIEW
 70
0
  9
$UCSORGTOP
 10
0.0
 20
0.0
 30
0.0
  9
$UCSORGBOTTOM
 10
0.0
 20
0.0
 30
0.0
  9
$UCSORGLEFT
 10
0.0
 20
0.0
 30
0.0
  9
$UCSORGRIGHT
 10
0.0
 20
0.0
 30
0.0
  9
$UCSORGFRONT
 10
0.0
 20
0.0
 30
0.0
  9
$UCSORGBACK
 10
0.0
 20
0.0
 30
0.0
  9
$PUCSBASE
  2

  9
$PUCSNAME
  2

  9
$PUCSORG
 10
0.0
 20
0.0
 30
0.0
  9
$PUCSXDIR
 10
1.0
 20
0.0
 30
0.0
  9
$PUCSYDIR
 10
0.0
 20
1.0
 30
0.0
  9
$PUCSORTHOREF
  2

  9
$PUCSORTHOVIEW
 70
0
  9
$PUCSORGTOP
 10
0.0
 20
0.0
 30
0.0
  9
$PUCSORGBOTTOM
 10
0.0
 20
0.0
 30
0.0
  9
$PUCSORGLEFT
 10
0.0
 20
0.0
 30
0.0
  9
$PUCSORGRIGHT
 10
0.0
 20
0.0
 30
0.0
  9
$PUCSORGFRONT
 10
0.0
 20
0.0
 30
0.0
  9
$PUCSORGBACK
 10
0.0
 20
0.0
 30
0.0
  9
$USERI1
 70
0
  9
$USERI2
 70
0
  9
$USERI3
 70
0
  9
$USERI4
 70
0
  9
$USERI5
 70
0
  9
$USERR1
 40
0.0
  9
$USERR2
 40
0.0
  9
$USERR3
 40
0.0
  9
$USERR4
 40
0.0
  9
$USERR5
 40
0.0
  9
$WORLDVIEW
 70
1
  9
$SHADEDGE
 70
3
  9
$SHADEDIF
 70
70
  9
$TILEMODE
 70
1
  9
$MAXACTVP
 70
64
  9
$PINSBASE
 10
0.0
 20
0.0
 30
0.0
  9
$PLIMCHECK
 70
0
  9
$PEXTMIN
 10
1e+20
 20
1e+20
 30
1e+20
  9
$PEXTMAX
 10
-1e+20
 20
-1e+20
 30
-1e+20
  9
$PLIMMIN
 10
0.0
 20
0.0
  9
$PLIMMAX
 10
420.0
 20
297.0
  9
$UNITMODE
 70
0
  9
$VISRETAIN
 70
1
  9
$PLINEGEN
 70
0
  9
$PSLTSCALE
 70
1
  9
$TREEDEPTH
 70
3020
  9
$CMLSTYLE
  2
Standard
  9
$CMLJUST
 70
0
  9
$CMLSCALE
 40
20.0
  9
$PROXYGRAPHICS
 70
1
  9
$MEASUREMENT
 70
1
  9
$CELWEIGHT
370
-1
  9
$ENDCAPS
280
0
  9
$JOINSTYLE
280
0
  9
$LWDISPLAY
290
0
  9
$INSUNITS
 70
6
  9
$HYPERLINKBASE
  1

  9
$STYLESHEET
  1

  9
$XEDIT
290
1
  9
$CEPSNTYPE
380
0
  9
$PSTYLEMODE
290
1
  9
$FINGERPRINTGUID
  2
{2DBDCB11-05A9-4911-9B5E-94B0B809FFBC}
  9
$VERSIONGUID
  2
{D42CE4B1-8954-4D34-8829-207738BFB3A1}
  9
$EXTNAMES
290
1
  9
$PSVPSCALE
 40
0.0
  9
$OLESTARTUP
290
0
  9
$SORTENTS
280
127
  9
$INDEXCTL
280
0
  9
$HIDETEXT
280
1
  9
$XCLIPFRAME
280
1
  9
$HALOGAP
280
0
  9
$OBSCOLOR
 70
257
  9
$OBSLTYPE
280
0
  9
$INTERSECTIONDISPLAY
280
0
  9
$INTERSECTIONCOLOR
 70
257
  9
$DIMASSOC
280
2
  9
$PROJECTNAME
  1

  9
$CAMERADISPLAY
290
0
  9
$LENSLENGTH
 40
50.0
  9
$CAMERAHEIGHT
 40
0.0
  9
$STEPSPERSEC
 40
24.0
  9
$STEPSIZE
 40
100.0
  9
$3DDWFPREC
 40
2.0
  9
$PSOLWIDTH
 40
0.005
  9
$PSOLHEIGHT
 40
0.08
  9
$LOFTANG1
 40
1.570796326795
  9
$LOFTANG2
 40
1.570796326795
  9
$LOFTMAG1
 40
0.0
  9
$LOFTMAG2
 40
0.0
  9
$LOFTPARAM
 70
7
  9
$LOFTNORMALS
280
1
  9
$LATITUDE
 40
37.795
  9
$LONGITUDE
 40
-122.394
  9
$NORTHDIRECTION
 40
0.0
  9
$TIMEZONE
 70
-8000
  9
$LIGHTGLYPHDISPLAY
280
1
  9
$TILEMODELIGHTSYNCH
280
1
  9
$CMATERIAL
347
20
  9
$SOLIDHIST
280
0
  9
$SHOWHIST
280
1
  9
$DWFFRAME
280
2
  9
$DGNFRAME
280
2
  9
$REALWORLDSCALE
290
1
  9
$INTERFERECOLOR
 62
256
  9
$CSHADOW
280
0
  9
$SHADOWPLANELOCATION
 40
0.0
  0
ENDSEC
  0
SECTION
  2
CLASSES
  0
CLASS
  1
ACDBDICTIONARYWDFLT
  2
AcDbDictionaryWithDefault
  3
ObjectDBX Classes
 90
0
 91
0
280
0
281
0
  0
CLASS
  1
SUN
  2
AcDbSun
  3
SCENEOE
 90
1153
 91
0
280
0
281
0
  0
CLASS
  1
VISUALSTYLE
  2
AcDbVisualStyle
  3
ObjectDBX Classes
 90
4095
 91
0
280
0
281
0
  0
CLASS
  1
MATERIAL
  2
AcDbMaterial
  3
ObjectDBX Classes
 90
1153
 91
0
280
0
281
0
  0
CLASS
  1
SCALE
  2
AcDbScale
  3
ObjectDBX Classes
 90
1153
 91
0
280
0
281
0
  0
CLASS
  1
TABLESTYLE
  2
AcDbTableStyle
  3
ObjectDBX Classes
 90
4095
 91
0
280
0
281
0
  0
CLASS
  1
MLEADERSTYLE
  2
AcDbMLeaderStyle
  3
ACDB_MLEADERSTYLE_CLASS
 90
4095
 91
0
280
0
281
0
  0
CLASS
  1
DICTIONARYVAR
  2
AcDbDictionaryVar
  3
ObjectDBX Classes
 90
0
 91
0
280
0
281
0
  0
CLASS
  1
CELLSTYLEMAP
  2
AcDbCellStyleMap
  3
ObjectDBX Classes
 90
1152
 91
0
280
0
281
0
  0
CLASS
  1
MENTALRAYRENDERSETTINGS
  2
AcDbMentalRayRenderSettings
  3
SCENEOE
 90
1024
 91
0
280
0
281
0
  0
CLASS
  1
ACDBDETAILVIEWSTYLE
  2
AcDbDetailViewStyle
  3
ObjectDBX Classes
 90
1025
 91
0
280
0
281
0
  0
CLASS
  1
ACDBSECTIONVIEWSTYLE
  2
AcDbSectionViewStyle
  3
ObjectDBX Classes
 90
1025
 91
0
280
0
281
0
  0
CLASS
  1
RASTERVARIABLES
  2
AcDbRasterVariables
  3
ISM
 90
0
 91
0
280
0
281
0
  0
CLASS
  1
LAYOUT
  2
AcDbLayout
  3
ObjectDBX Classes
 90
0
 91
0
280
0
281
0
  0
CLASS
  1
ACDBPLACEHOLDER
  2
AcDbPlaceHolder
  3
ObjectDBX Classes
 90
0
 91
0
280
0
281
0
  0
ENDSEC
  0
SECTION
  2
TABLES
  0
TABLE
  2
VPORT
  5
8
330
0
100
AcDbSymbolTable
 70
1
  0
VPORT
  5
23
330
8
100
AcDbSymbolTableRecord
100
AcDbViewportTableRecord
  2
*Active
 70
0
 10
0.0
 20
0.0
 11
1.0
 21
1.0
 12
0.0
 22
0.0
 13
0.0
 23
0.0
 14
0.5
 24
0.5
 15
0.5
 25
0.5
 16
0.0
 26
0.0
 36
1.0
 17
0.0
 27
0.0
 37
0.0
 40
1000.0
 41
1.34
 42
50.0
 43
0.0
 44
0.0
 50
0.0
 51
0.0
 71
0
 72
1000
 73
1
 74
3
 75
0
 76
0
 77
0
 78
0
281
0
 65
0
146
0.0
  0
ENDTAB
  0
TABLE
  2
LTYPE
  5
2
330
0
100
AcDbSymbolTable
 70
3
  0
LTYPE
  5
24
330
2
100
AcDbSymbolTableRecord
100
AcDbLinetypeTableRecord
  2
ByBlock
 70
0
  3

 72
65
 73
0
 40
0.0
  0
LTYPE
  5
25
330
2
100
AcDbSymbolTableRecord
100
AcDbLinetypeTableRecord
  2
ByLayer
 70
0
  3

 72
65
 73
0
 40
0.0
  0
LTYPE
  5
26
330
2
100
AcDbSymbolTableRecord
100
AcDbLinetypeTableRecord
  2
Continuous
 70
0
  3

 72
65
 73
0
 40
0.0
  0
ENDTAB
  0
TABLE
  2
LAYER
  5
1
330
0
100
AcDbSymbolTable
 70
2
  0
LAYER
  5
27
330
1
100
AcDbSymbolTableRecord
100
AcDbLayerTableRecord
  2
0
 70
0
 62
7
  6
Continuous
370
-3
390
13
347
21
  0
LAYER
  5
28
330
1
100
AcDbSymbolTableRecord
100
AcDbLayerTableRecord
  2
Defpoints
 70
0
 62
7
  6
Continuous
290
0
370
-3
390
13
347
21
  0
ENDTAB
  0
TABLE
  2
STYLE
  5
5
330
0
100
AcDbSymbolTable
 70
1
  0
STYLE
  5
29
330
5
100
AcDbSymbolTableRecord
100
AcDbTextStyleTableRecord
  2
Standard
 70
0
 40
0.0
 41
1.0
 50
0.0
 71
0
 42
2.5
  3
txt
  4

  0
ENDTAB
  0
TABLE
  2
VIEW
  5
7
330
0
100
AcDbSymbolTable
 70
0
  0
ENDTAB
  0
TABLE
  2
UCS
  5
6
330
0
100
AcDbSymbolTable
 70
0
  0
ENDTAB
  0
TABLE
  2
APPID
  5
3
330
0
100
AcDbSymbolTable
 70
3
  0
APPID
  5
2A
330
3
100
AcDbSymbolTableRecord
100
AcDbRegAppTableRecord
  2
ACAD
 70
0
  0
APPID
  5
30
330
3
100
AcDbSymbolTableRecord
100
AcDbRegAppTableRecord
  2
HATCHBACKGROUNDCOLOR
 70
0
  0
APPID
  5
31
330
3
100
AcDbSymbolTableRecord
100
AcDbRegAppTableRecord
  2
EZDXF
 70
0
  0
ENDTAB
  0
TABLE
  2
DIMSTYLE
  5
4
330
0
100
AcDbSymbolTable
 70
1
100
AcDbDimStyleTable
  0
DIMSTYLE
105
2B
330
4
100
AcDbSymbolTableRecord
100
AcDbDimStyleTableRecord
  2
Standard
 70
0
 40
1.0
 41
2.5
 42
0.625
 43
3.75
 44
1.25
 45
0.0
 46
0.0
 47
0.0
 48
0.0
 49
2.5
140
2.5
141
2.5
142
0.0
143
0.03937007874
144
1.0
145
0.0
146
1.0
147
0.625
148
0.0
 69
0
 70
0
 71
0
 72
0
 73
0
 74
0
 75
0
 76
0
 77
1
 78
8
 79
3
170
0
171
3
172
1
173
0
174
0
175
0
176
0
177
0
178
0
179
2
271
2
272
2
273
2
274
3
275
0
276
0
277
2
278
44
279
0
280
0
281
0
282
0
283
0
284
8
285
0
286
0
288
0
289
3
290
0
371
-2
372
-2
  0
ENDTAB
  0
TABLE
  2
BLOCK_RECORD
  5
9
330
0
100
AcDbSymbolTable
 70
2
  0
BLOCK_RECORD
  5
17
330
9
100
AcDbSymbolTableRecord
100
AcDbBlockTableRecord
  2
*Model_Space
340
1A
 70
0
280
1
281
0
  0
BLOCK_RECORD
  5
1B
330
9
100
AcDbSymbolTableRecord
100
AcDbBlockTableRecord
  2
*Paper_Space
340
1E
 70
0
280
1
281
0
  0
ENDTAB
  0
ENDSEC
  0
SECTION
  2
BLOCKS
  0
BLOCK
  5
18
330
17
100
AcDbEntity
  8
0
100
AcDbBlockBegin
  2
*Model_Space
 70
0
 10
0.0
 20
0.0
 30
0.0
  3
*Model_Space
  1

  0
ENDBLK
  5
19
330
17
100
AcDbEntity
  8
0
100
AcDbBlockEnd
  0
BLOCK
  5
1C
330
1B
100
AcDbEntity
  8
0
100
AcDbBlockBegin
  2
*Paper_Space
 70
0
 10
0.0
 20
0.0
 30
0.0
  3
*Paper_Space
  1

  0
ENDBLK
  5
1D
330
1B
100
AcDbEntity
  8
0
100
AcDbBlockEnd
  0
ENDSEC
  0
SECTION
  2
ENTITIES
  0
LWPOLYLINE
  5
2F
330
17
100
AcDbEntity
  8
0
100
AcDbPolyline
 90
721
 70
1
 10
34.88682845751712
 20
0.9747288107563653
 10
34.88583024337162
 20
0.975059301144255
 10
34.88283818769552
 20
0.9759465202980713
 10
34.87785745496486
 20
0.9771823287156248
 10
34.87083340386965
 20
0.9788689052097183
 10
34.86187402881809
 20
0.9808538098639499
 10
34.85092597929618
 20
0.9831871996340573
 10
34.83793848379771
 20
0.9858152919095112
 10
34.82301566563496
 20
0.9887416602711722
 10
34.80610675330177
 20
0.9919125221085109
 10
34.78715710161184
 20
0.9954302124561224
 10
34.76627341805364
 20
0.9991941570328766
 10
34.74340363774082
 20
1.0032026992331706
 10
34.718546468585274
 20
1.007507912988
 10
34.69170449476318
 20
1.0120056504353736
 10
34.66287512951419
 20
1.0168001635851447
 10
34.632111727228605
 20
1.0218411392597826
 10
34.59936222302004
 20
1.0271269208536842
 10
34.56462532480037
 20
1.032709582297845
 10
34.52795567646386
 20
1.0384868406316017
 10
34.48929863024001
 20
1.0445611350374102
 10
34.4486567690129
 20
1.050828369727211
 10
34.4061316306266
 20
1.0573963182177875
 10
34.36156832026258
 20
1.0642076243177485
 10
34.31512302095118
 20
1.071267726509282
 10
34.266691608088
 20
1.0785731032854589
 10
34.21632614009901
 20
1.0861256716215366
 10
34.164026615692066
 20
1.093925483591446
 10
34.109791741487015
 20
1.1020246652001136
 10
34.053621513607624
 20
1.1104233726693327
 10
33.99551851493794
 20
1.1190175102110433
 10
33.935480160009696
 20
1.1279112777611666
 10
33.87355979804487
 20
1.1370545704378974
 10
33.80970407465314
 20
1.1464977014187654
 10
33.743915568842326
 20
1.1561367311375033
 10
33.67624375873848
 20
1.1660775682095679
 10
33.60668734837724
 20
1.1763724427877473
 10
33.53525021143868
 20
1.1868652372269173
 10
33.461877697568184
 20
1.1976584948573963
 10
33.386675222166126
 20
1.20870371532905
 10
33.30953736466376
 20
1.2200496072877374
 10
33.230568247081315
 20
1.23169979638825
 10
33.14971580324034
 20
1.2436526780989159
 10
33.067032092858845
 20
1.2559101173210623
 10
32.982466341846454
 20
1.2684184355920214
 10
32.8960706099212
 20
1.2811794978131203
 10
32.80779024672844
 20
1.2942958473146782
 10
32.71773066637647
 20
1.3077190358204915
 10
32.625839802686855
 20
1.321447458798888
 10
32.53211765307539
 20
1.3354812203977302
 10
32.43656421108166
 20
1.3498205809866723
 10
32.339230246919776
 20
1.3645193752501759
 10
32.24006498391514
 20
1.379524028873434
 10
32.13911919098985
 20
1.3948884286148393
 10
32.036394153771504
 20
1.410560760913051
 10
31.931892455144197
 20
1.4264369299800093
 10
31.82566356806561
 20
1.442623052726894
 10
31.717652843473193
 20
1.459221620410093
 10
31.607860274906496
 20
1.476232893399261
 10
31.496341799639914
 20
1.4935024627288085
 10
31.38309612041698
 20
1.5110826106254542
 10
31.26812323465354
 20
1.5289734412370601
 10
31.15141925962488
 20
1.547331436726268
 10
31.032990651895176
 20
1.5658963836598936
 10
30.91288688700628
 20
1.5847742948012544
 10
30.791106668993844
 20
1.6040174003031393
 10
30.66759663829922
 20
1.6236762216388025
 10
30.542462207738637
 20
1.6437023626059715
 10
30.41565260192964
 20
1.6640421968159103
 10
30.287167818288033
 20
1.6846958284164806
 10
30.157057329771508
 20
1.7057693743188622
 10
30.02532629956404
 20
1.7270547470947972
 10
29.891920078603093
 20
1.748654438000674
 10
29.756941494236624
 20
1.7706242507701413
 10
29.62039054258839
 20
1.7929643416249932
 10
29.48221774165607
 20
1.815568958171566
 10
29.34242179289116
 20
1.8384904347105107
 10
29.201106818313864
 20
1.8617323968966184
 10
29.05821816627747
 20
1.88539744013414
 10
28.91375970916998
 20
1.9093294988518816
 10
28.767783505417313
 20
1.9335304900251014
 10
28.62028955114322
 20
1.9580005698755927
 10
28.471275255711085
 20
1.9828441466350006
 10
28.32074061524464
 20
2.0080613765251187
 10
28.168686917955714
 20
2.0336003418367445
 10
28.015219577952614
 20
2.059412594293675
 10
27.860233170790313
 20
2.08554699876356
 10
27.70377975618686
 20
2.112005420147729
 10
27.545915270124528
 20
2.138633501554521
 10
27.386586350460483
 20
2.165481868605053
 10
27.225841180648523
 20
2.1927086079936378
 10
27.06373182040665
 20
2.220315584621603
 10
26.900156720262036
 20
2.248195493637544
 10
26.735223881083332
 20
2.276195634755406
 10
26.568928129349853
 20
2.304524511994894
 10
26.401270753273394
 20
2.3331302076468043
 10
26.232250455597537
 20
2.362065003937858
 10
26.06192187892439
 20
2.391226669981322
 10
25.890285020669776
 20
2.4206153099250574
 10
25.71728781077897
 20
2.4502294754591865
 10
25.543033080476185
 20
2.4801248140955643
 10
25.36746876229088
 20
2.5102997733764507
 10
25.190649500117267
 20
2.540652070341182
 10
25.012575288786966
 20
2.571181913285482
 10
24.833298189310096
 20
2.6018911150367465
 10
24.652764839543856
 20
2.632830301216092
 10
24.47102471632218
 20
2.664105432512906
 10
24.2880296245625
 20
2.6955588908982535
 10
24.103934465543794
 20
2.7272477721938704
 10
23.918640272677294
 20
2.7589606757602927
 10
23.732145747414457
 20
2.7907499358981704
 10
23.544551140679612
 20
2.8227751917595594
 10
23.355855155216332
 20
2.855088725571177
 10
23.165957533639844
 20
2.887531158550625
 10
22.975069117087667
 20
2.920005073406188
 10
22.783034997820394
 20
2.952453634685783
 10
22.58995542417816
 20
2.985036585689328
 10
22.395777035310253
 20
3.017804499964007
 10
22.20060525049334
 20
3.0507087209378945
 10
22.004391877229022
 20
3.083591526434193
 10
21.80718639235125
 20
3.1165588771422894
 10
21.6089862065155
 20
3.1497151292198993
 10
21.40979777757803
 20
3.1828000171599067
 10
21.209622393750653
 20
3.21576162325311
 10
21.00855772178153
 20
3.248863734513554
 10
20.80650091881763
 20
3.282051172094761
 10
20.603554819959452
 20
3.315379427286795
 10
20.399727175151334
 20
3.3485361606515447
 10
20.195016688428918
 20
3.381573602341799
 10
19.98942077303187
 20
3.4145960043674113
 10
19.782935546235493
 20
3.447759848891022
 10
19.575670308749046
 20
3.4808600492519943
 10
19.36752609010752
 20
3.513685361032657
 10
19.158655212582037
 20
3.546396819621012
 10
18.94894707691482
 20
3.579251845978349
 10
18.73845891763665
 20
3.6120437489123565
 10
18.527195896639448
 20
3.644564493068708
 10
18.31525956339606
 20
3.676921383298809
 10
18.10254448700103
 20
3.709163544839964
 10
17.88915350643111
 20
3.741346312760445
 10
17.675035843719662
 20
3.7734161648193774
 10
17.460246147929226
 20
3.8052706097603717
 10
17.244836483946195
 20
3.8369113041890333
 10
17.02875478042375
 20
3.8683368518694126
 10
16.812105171010895
 20
3.8995504097909235
 10
16.59478351689027
 20
3.930549029259876
 10
16.37689136495055
 20
3.9614401192755375
 10
16.1584300085719
 20
3.9921715538329803
 10
15.939405903026405
 20
4.0224831715729525
 10
15.719816461553712
 20
4.052479224505305
 10
15.499764527006853
 20
4.082214891476517
 10
15.279144668480361
 20
4.1117392977238945
 10
15.05806360379943
 20
4.140951452374861
 10
14.836522623760057
 20
4.1697993335723496
 10
14.614523019158247
 20
4.198230919459297
 10
14.39206220064947
 20
4.226350566193418
 10
14.169190946200374
 20
4.254211796015588
 10
13.945909251934683
 20
4.2818147651476
 10
13.722273061587227
 20
4.309004804254207
 10
13.498231597191356
 20
4.335728391094536
 10
13.27383821701362
 20
4.361935056269264
 10
13.049141113552407
 20
4.387782521955184
 10
12.824084339196634
 20
4.413425613709339
 10
12.598774615647761
 20
4.438763184437355
 10
12.373170209555749
 20
4.463377194381392
 10
12.147263364515815
 20
4.487580243349214
 10
11.921156929841429
 20
4.511427249817643
 10
11.694801415777762
 20
4.534812773836605
 10
11.468198115704983
 20
4.55768468940117
 10
11.241447289592044
 20
4.580202271145878
 10
11.014498162056464
 20
4.602311892681991
 10
10.787406675540975
 20
4.623858936748195
 10
10.560120759990848
 20
4.644841955034611
 10
10.332743264719545
 20
4.665315866018061
 10
10.1052728950548
 20
4.685332847777407
 10
9.877713528552963
 20
4.704736626445725
 10
9.650063870541773
 20
4.723579380101876
 10
9.42237470027996
 20
4.741914578912803
 10
9.194590071448538
 20
4.759896996361616
 10
8.966821876685481
 20
4.777217085482095
 10
8.739070115990792
 20
4.793874846274243
 10
8.511333498568472
 20
4.809922300595126
 10
8.283610729746261
 20
4.825411626523599
 10
8.055955175543241
 20
4.8402920422167535
 10
7.828313472524502
 20
4.854614225369637
 10
7.600791054179686
 20
4.868328946597081
 10
7.373390505977049
 20
4.881332005963165
 10
7.146110535828507
 20
4.893675477398881
 10
6.918949852938063
 20
4.905411382761296
 10
6.691909749393802
 20
4.916487648119416
 10
6.465096954649706
 20
4.926802813935282
 10
6.238456811890706
 20
4.936459683908868
 10
6.012038810871616
 20
4.945563697990253
 10
5.785797340686052
 20
4.95385309028851
 10
5.559833961143563
 20
4.961434749063593
 10
5.334144799856164
 20
4.9684647398866995
 10
5.108681659157111
 20
4.9747855488767545
 10
4.883551271084571
 20
4.98029561234794
 10
4.658751052754454
 20
4.985099026088316
 10
4.434231515704032
 20
4.989090298073875
 10
4.2100942236191194
 20
4.99237616034278
 10
3.986289689329071
 20
4.994851068797091
 10
3.7629207673156997
 20
4.996569733617909
 10
3.539879438621114
 20
4.99768558412632
 10
3.3172724352834746
 20
4.998097056636508
 10
3.095104925655126
 20
4.9975958554244935
 10
2.873375621524242
 20
4.996233898199475
 10
2.6521327192654787
 20
4.994168750916458
 10
2.431377516135277
 20
4.9913481313487225
 10
2.2111113055137976
 20
4.987719913491342
 10
1.9913861626241403
 20
4.983285337358472
 10
1.7721474306512122
 20
4.978147206650086
 10
1.5534446045181949
 20
4.9724107530205375
 10
1.335334926508427
 20
4.96586897283393
 10
1.1178209833822637
 20
4.958417614080413
 10
0.9009001948397833
 20
4.950160668400181
 10
0.684623461596012
 20
4.941146711010665
 10
0.4689389190382144
 20
4.93136601384696
 10
0.2538973528855701
 20
4.920871786706352
 10
0.03954954498098709
 20
4.909717395607923
 10
-0.17415141025418418
 20
4.897693252739606
 10
-0.3871534388889496
 20
4.8848006501894865
 10
-0.5994109274327493
 20
4.871301249700628
 10
-0.8109733656403982
 20
4.857089611322954
 10
-1.0217353135618252
 20
4.84211624530164
 10
-1.2318009190590153
 20
4.826378567460515
 10
-1.4410660342699837
 20
4.809879161975751
 10
-1.6494811694399047
 20
4.792723468797425
 10
-1.8571517645188536
 20
4.77496097768036
 10
-2.064019285135408
 20
4.756332611057665
 10
-2.269987335956092
 20
4.737153396691485
 10
-2.47511057508807
 20
4.717526190355724
 10
-2.679433323933828
 20
4.697137256376326
 10
-2.8827993607003735
 20
4.675990471017546
 10
-3.0852646355829636
 20
4.654240763984287
 10
-3.2868304406696836
 20
4.631940209207541
 10
-3.487494191784358
 20
4.60898465882532
 10
-3.6871530331530846
 20
4.585428770944791
 10
-3.8859111126378565
 20
4.5612699613897805
 10
-4.08366815864094
 20
4.536667036129449
 10
-4.280421586986162
 20
4.511515847301805
 10
-4.476170105585437
 20
4.485764320975854
 10
-4.670915006526849
 20
4.459464531082589
 10
-4.864606800055578
 20
4.432721917572089
 10
-5.057297560102617
 20
4.405535188356267
 10
-5.248880554629805
 20
4.377802779749304
 10
-5.439355783637139
 20
4.349524691751202
 10
-5.628774028967531
 20
4.320647558342878
 10
-5.817084508778071
 20
4.2912247455434125
 10
-6.004291099333018
 20
4.261412475145795
 10
-6.190343018789459
 20
4.231264113169103
 10
-6.3752350987950575
 20
4.200571363889357
 10
-6.559019413280797
 20
4.169332935218472
 10
-6.741538448365618
 20
4.137500629489709
 10
-6.92290022817576
 20
4.105228084319883
 10
-7.103106044799316
 20
4.0725673736399886
 10
-7.28205175037429
 20
4.039521081626201
 10
-7.459736052812598
 20
4.006037134347521
 10
-7.636207149780975
 20
3.971958017922877
 10
-7.811418135700773
 20
3.937493320164339
 10
-7.985372886836253
 20
3.90279926286489
 10
-8.15801286881598
 20
3.8676167684576415
 10
-8.329390155570957
 20
3.8319445448545073
 10
-8.499403183415364
 20
3.7958893240936495
 10
-8.668104026280194
 20
3.759449814086983
 10
-8.835493976253536
 20
3.722678088765502
 10
-9.001517083140135
 20
3.685419218424308
 10
-9.166175931116161
 20
3.6477773509253892
 10
-9.329470520181616
 20
3.6097524862687482
 10
-9.491406018688846
 20
3.5715529201783656
 10
-9.651876986687771
 20
3.533129162899419
 10
-9.810983695776128
 20
3.494322408462749
 10
-9.968671487846747
 20
3.455029801094452
 10
-10.124893457320974
 20
3.4154609286065947
 10
-10.27970426230598
 20
3.3757186467730813
 10
-10.433046660518423
 20
3.3355959519580183
 10
-10.584871162203484
 20
3.2951982841114815
 10
-10.735283207311232
 20
3.2545751329882937
 10
-10.884178647979684
 20
3.213729082764628
 10
-11.03155360794458
 20
3.172503911647497
 10
-11.17741196347018
 20
3.131055841429889
 10
-11.321755006644562
 20
3.0894369460427966
 10
-11.464581445379647
 20
3.0475951515552264
 10
-11.605839205744438
 20
3.0055317500552654
 10
-11.745526995650847
 20
2.963194667611915
 10
-11.88369818111796
 20
2.9206346860680883
 10
-12.020248614283783
 20
2.877854389599954
 10
-12.15518087932449
 20
2.8349579260695053
 10
-12.288596539925896
 20
2.7918385634385783
 10
-12.420339374295018
 20
2.7485001779714313
 10
-12.550460164274762
 20
2.7048894036489832
 10
-12.67896407821748
 20
2.661214536195216
 10
-12.805851116123161
 20
2.6174755756101287
 10
-12.931066619884644
 20
2.573569666119817
 10
-13.054609297413844
 20
2.5294447337932864
 10
-13.176529930553668
 20
2.4850474126114537
 10
-13.296730831882556
 20
2.4406406564054692
 10
-13.415262783243417
 20
2.396171099156251
 10
-13.53212320046008
 20
2.3515345930018094
 10
-13.647260009601547
 20
2.3067324300302285
 10
-13.760675794843992
 20
2.2618687581035006
 10
-13.872367972011244
 20
2.2168394293596356
 10
-13.98233783319139
 20
2.171696517729628
 10
-14.090586670472508
 20
2.1264920971444714
 10
-14.197059825747441
 20
2.081123311830264
 10
-14.301761175280443
 20
2.0357463835799914
 10
-14.40473762465016
 20
1.9901517245815843
 10
-14.50594226827795
 20
1.944548922647112
 10
-14.60537381407572
 20
1.8988859038455788
 10
-14.703030969955389
 20
1.853110594245989
 10
-14.79886166198596
 20
1.8072242859364287
 10
-14.89291925618651
 20
1.761277760759807
 10
-14.985155554890305
 20
1.7154285325971972
 10
-15.075567973921176
 20
1.669572453586608
 10
-15.164156513279119
 20
1.6237095237280388
 10
-15.250974538983217
 20
1.5778905248644002
 10
-15.335916611083393
 20
1.532065967240868
 10
-15.419037387686814
 20
1.4863387066313472
 10
-15.500287379038658
 20
1.4408141829859147
 10
-15.579718659069922
 20
1.3954911042164848
 10
-15.657276569673435
 20
1.3502666145491526
 10
-15.733014476868277
 20
1.3051914958268267
 10
-15.80682823279246
 20
1.2602683322256807
 10
-15.87882456948415
 20
1.2155986874315319
 10
-15.948900631169439
 20
1.171237219551549
 10
-16.017105907603153
 20
1.1270784886356544
 10
-16.083440398785285
 20
1.0831224946838485
 10
-16.147904104715842
 20
1.0393692376961308
 10
-16.210447535639997
 20
0.9959241576225789
 10
-16.27107069155775
 20
0.9527872544631926
 10
-16.329821770135844
 20
0.9098010143368992
 10
-16.386652573707533
 20
0.8671229511247713
 10
-16.44155793392048
 20
0.8245447691028271
 10
-16.494543019127025
 20
0.7822747639950487
 10
-16.545602660974826
 20
0.7401046400774539
 10
-16.594739443640048
 20
0.6981385452120341
 10
-16.641953367122703
 20
0.6563764793987886
 10
-16.687191065403702
 20
0.6147676607948085
 10
-16.730559270521212
 20
0.5734136530859124
 10
-16.771897884417985
 20
0.5321621107433726
 10
-16.81136571306318
 20
0.49111330536492104
 10
-16.848857316506717
 20
0.45021774719573504
 10
-16.884376571012865
 20
0.4096316580288007
 10
-16.917972966336436
 20
0.369249597914041
 10
-16.949595720634523
 20
0.3291249328705377
 10
-16.979250002259477
 20
0.28946595862227226
 10
-17.006984008878025
 20
0.2501151612881725
 10
-17.03274825073535
 20
0.21117798081831532
 10
-17.05654531200763
 20
0.17275856507469156
 10
-17.078380361047195
 20
0.1350652097812833
 10
-17.09825339785406
 20
0.09809791493809006
 10
-17.116219080535384
 20
0.061959536319016954
 10
-17.13217972166961
 20
0.02691302775521335
 10
-17.146192563540072
 20
-0.006834607117424978
 10
-17.158322600958638
 20
-0.038763921077030083
 10
-17.16847473067991
 20
-0.06850781243046115
 10
-17.176721700044272
 20
-0.09523439036987744
 10
-17.18313625639209
 20
-0.11811176408743797
 10
-17.187645261975447
 20
-0.13588757506307972
 10
-17.19033309292749
 20
-0.1472612671100029
 10
-17.183064762657683
 20
-0.4800903097755232
 10
-17.182009461476373
 20
-0.48272153058265366
 10
-17.178844850020536
 20
-0.49056311907304934
 10
-17.173576096642513
 20
-0.5034067795227287
 10
-17.166129161913844
 20
-0.5221364766705279
 10
-17.156581059846708
 20
-0.5478483472435238
 10
-17.144946905090595
 20
-0.5778332547418672
 10
-17.131214678445176
 20
-0.6104756152166128
 10
-17.115505324917567
 20
-0.6451010517409924
 10
-17.09779390442658
 20
-0.6806147196760155
 10
-17.078039971834
 20
-0.716546661554637
 10
-17.056354135442238
 20
-0.7526390918980518
 10
-17.03268948967265
 20
-0.7886824228941923
 10
-17.007051202877577
 20
-0.8244683588190764
 10
-16.9794418592332
 20
-0.8598927518107133
 10
-16.949861458739516
 20
-0.8949556018691032
 10
-16.918363367415594
 20
-0.9296061271513365
 10
-16.884898095506625
 20
-0.9637388877073363
 10
-16.84946435092452
 20
-0.9974059574680981
 10
-16.812115499688357
 20
-1.0305565545907125
 10
-16.77279688369097
 20
-1.0632935348490844
 10
-16.731509795020447
 20
-1.0955648243122182
 10
-16.68836096571495
 20
-1.1272688592942954
 10
-16.643190297717233
 20
-1.158557985324044
 10
-16.59615530490837
 20
-1.1893840047347264
 10
-16.54715054733828
 20
-1.2197964072811667
 10
-16.496229391026056
 20
-1.2497444111204548
 10
-16.44339312805977
 20
-1.2791759423215958
 10
-16.388637882175168
 20
-1.3082472226775754
 10
-16.33196623754843
 20
-1.3368541043264033
 10
-16.273373025827198
 20
-1.3652048829920616
 10
-16.21286212327574
 20
-1.3931433368815629
 10
-16.15048301964888
 20
-1.420774905944985
 10
-16.086183641015616
 20
-1.4480982980942414
 10
-16.019961403199787
 20
-1.4752176611913232
 10
-15.951869672220457
 20
-1.5020822133933212
 10
-15.881907155989552
 20
-1.5287440286312306
 10
-15.810073854507074
 20
-1.5552031069050516
 10
-15.736313817577757
 20
-1.5816143779196843
 10
-15.660732485151692
 20
-1.6079283519203054
 10
-15.583227001454967
 20
-1.6340903707997472
 10
-15.503901514349572
 20
-1.6601030187341823
 10
-15.42270136572834
 20
-1.6860691514975152
 10
-15.33967862952227
 20
-1.7119900611778323
 10
-15.254782523888448
 20
-1.7378123817560516
 10
-15.168067706934046
 20
-1.7634332574582685
 10
-15.079480812639979
 20
-1.7889034701273927
 10
-14.989124696780156
 20
-1.8142776778705911
 10
-14.896947285423574
 20
-1.8395545885997782
 10
-14.80294857857024
 20
-1.864734202314954
 10
-14.707132452484412
 20
-1.889660297223132
 10
-14.60955098109708
 20
-1.9143341654123986
 10
-14.510152090477254
 20
-1.9387545147946674
 10
-14.408985270379755
 20
-1.9630267853200152
 10
-14.306050520804583
 20
-1.9871509769884428
 10
-14.201353010104084
 20
-2.0109187940759674
 10
-14.094942228033078
 20
-2.034435676532667
 10
-13.986767392748659
 20
-2.0576482583394586
 10
-13.876827212162741
 20
-2.0806086134273394
 10
-13.765173760206315
 20
-2.103318033884395
 10
-13.651808328967473
 20
-2.1257244457796296
 10
-13.536729626358124
 20
-2.147879923044039
 10
-13.419937652378273
 20
-2.169784465677622
 10
-13.301433699115998
 20
-2.191385999749385
 10
-13.181268548414216
 20
-2.2127378912784086
 10
-13.059442200272926
 20
-2.2338401402646926
 10
-12.935903872849215
 20
-2.2546393806891563
 10
-12.810755129828907
 20
-2.275242344589962
 10
-12.683945189369087
 20
-2.2955956659480283
 10
-12.555472759381672
 20
-2.315751418694351
 10
-12.425391205885742
 20
-2.3356588209860205
 10
-12.293704405145556
 20
-2.3551616510300506
 10
-12.160408480896859
 20
-2.374416130619428
 10
-12.025448775032476
 20
-2.3935251155280564
 10
-11.888982801433487
 20
-2.4124404080892
 10
-11.750908996414067
 20
-2.431055276264695
 10
-11.611228652062307
 20
-2.449317646123546
 10
-11.470043332064025
 20
-2.467334249703916
 10
-11.327299670400137
 20
-2.485155868848715
 10
-11.183000251246817
 20
-2.5026783556959513
 10
-11.037197148535059
 20
-2.5199030023337112
 10
-10.889891654352951
 20
-2.536777734831
 10
-10.741079892436233
 20
-2.553458774980803
 10
-10.590764446961078
 20
-2.5698419749211303
 10
-10.438942733751317
 20
-2.5860314825139716
 10
-10.28572277693319
 20
-2.6018736601425148
 10
-10.13099913655663
 20
-2.6174179975615806
 10
-9.97482388655263
 20
-2.632665786859257
 10
-9.817247808764092
 20
-2.647670394054625
 10
-9.658221413436202
 20
-2.6623263791976073
 10
-9.497794190323779
 20
-2.6767391822382813
 10
-9.336019505445906
 20
-2.690858021333738
 10
-9.172795795116764
 20
-2.7045761644458137
 10
-9.008227207198344
 20
-2.7178961957506806
 10
-8.842309865426387
 20
-2.7309743370413253
 10
-8.675043769800892
 20
-2.7438105883177473
 10
-8.506428920321861
 20
-2.756404949579948
 10
-8.336521267184544
 20
-2.768602491123026
 10
-8.165323394565121
 20
-2.78029906508499
 10
-7.992778060180245
 20
-2.7917016751017374
 10
-7.818989411891909
 20
-2.8028129053494393
 10
-7.64390795994529
 20
-2.8135273158780185
 10
-7.467588362447557
 20
-2.8237420509135704
 10
-7.29002674313445
 20
-2.8336133322490817
 10
-7.111272591760793
 20
-2.8432465998346292
 10
-6.931276418571763
 20
-2.852536413720136
 10
-6.750042099831615
 20
-2.8613265521126157
 10
-6.567671199226172
 20
-2.869723747050232
 10
-6.384162424667346
 20
-2.8777800724639793
 10
-6.199411628293149
 20
-2.885492944177686
 10
-6.013576323984646
 20
-2.8928141645246144
 10
-5.826607021987024
 20
-2.899638293554689
 10
-5.638503722300274
 20
-2.9059653312679083
 10
-5.44931720676731
 20
-2.911848643683354
 10
-5.2590410149477
 20
-2.9175486004560045
 10
-5.067731097036699
 20
-2.9229102718809594
 10
-4.875340547455655
 20
-2.9277240701461493
 10
-4.681868074116482
 20
-2.9320420691825713
 10
-4.487417824881171
 20
-2.9358668531663965
 10
-4.291932557466383
 20
-2.939405425733521
 10
-4.095466929979283
 20
-2.9425549311100405
 10
-3.8980209424198726
 20
-2.9453153692959546
 10
-3.699597178964325
 20
-2.9475825924292725
 10
-3.5001943475245536
 20
-2.9494086744409898
 10
-3.2999140117863788
 20
-2.950900347369269
 10
-3.098654608063979
 20
-2.9519508791759477
 10
-2.8965228683955164
 20
-2.9524587061752072
 10
-2.6935175006929066
 20
-2.9524759022980422
 10
-2.4896372128680655
 20
-2.9520545414754493
 10
-2.284831223078079
 20
-2.951141257688346
 10
-2.0792583372921136
 20
-2.949635779339
 10
-1.8728677736672517
 20
-2.947484740408331
 10
-1.6655997057439842
 20
-2.944999292394223
 10
-1.4575595734723905
 20
-2.9421299455418555
 10
-1.2488072033119786
 20
-2.93856554835334
 10
-1.0392345711365016
 20
-2.9344597384454922
 10
-0.828892458788871
 20
-2.929865881837392
 10
-0.6178875983072437
 20
-2.9246824148432222
 10
-0.40611713391772125
 20
-2.9188546793558148
 10
-0.19368521348228843
 20
-2.912385259551341
 10
0.019465405282386668
 20
-2.905481159065698
 10
0.233280064269141
 20
-2.89803952212498
 10
0.44770022910654966
 20
-2.889801271162296
 10
0.6627818499898651
 20
-2.8809213358825465
 10
0.8784780213404383
 20
-2.8716093040977997
 10
1.0947327968392733
 20
-2.8617104023249484
 10
1.311597167647559
 20
-2.851179700521731
 10
1.5290217628825635
 20
-2.840127429439878
 10
1.74700141806822
 20
-2.8283454495771996
 10
1.965536135788698
 20
-2.8158338650815575
 10
2.184579010465348
 20
-2.8028022637650203
 10
2.4040792654236074
 20
-2.7893042199423936
 10
2.6240876837984866
 20
-2.775286419668526
 10
2.8445483166868026
 20
-2.760593985312449
 10
3.0654637495568307
 20
-2.745331116810085
 10
3.28683398757692
 20
-2.7294980224571566
 10
3.50860695552398
 20
-2.7130959422678194
 10
3.730778781010021
 20
-2.6959688106708812
 10
3.9533520482112148
 20
-2.678220775528332
 10
4.176227777617918
 20
-2.6600627167403252
 10
4.399508830172382
 20
-2.6414401844954187
 10
4.623087180456276
 20
-2.622199489102866
 10
4.84701619707285
 20
-2.602391516553439
 10
5.0711917321601225
 20
-2.5820188510233097
 10
5.295667153029254
 20
-2.5611323264293193
 10
5.520441168884252
 20
-2.5396799209144025
 10
5.7454109239512094
 20
-2.5177162925857273
 10
5.970631076337299
 20
-2.495344297217198
 10
6.196100337830691
 20
-2.472512017099613
 10
6.42171326460505
 20
-2.449169806256356
 10
6.647523225263628
 20
-2.4253685506781975
 10
6.873480730051612
 20
-2.4012136903152155
 10
7.099632685839729
 20
-2.376495689429272
 10
7.325877526357991
 20
-2.351321175910669
 10
7.552217835782569
 20
-2.3257942976213974
 10
7.778652323317465
 20
-2.2998630327043927
 10
8.005178404786506
 20
-2.2734232332976645
 10
8.231798665657957
 20
-2.246579099337133
 10
8.458411535785551
 20
-2.219437102491309
 10
8.685066507508294
 20
-2.1918919069579745
 10
8.911715383159445
 20
-2.164101026618204
 10
9.138354283890573
 20
-2.1359081355311487
 10
9.364981918905675
 20
-2.107261211839744
 10
9.591600872380925
 20
-2.0782644034059814
 10
9.818110864966066
 20
-2.0490762037554324
 10
10.044563974468353
 20
-2.019695477021805
 10
10.270904248108357
 20
-1.9899671893523367
 10
10.497132975389992
 20
-1.9599433105301611
 10
10.723250157605339
 20
-1.929623892629208
 10
10.949257084258313
 20
-1.8990609054326122
 10
11.175048308938399
 20
-1.868204598815895
 10
11.400677201540937
 20
-1.8371059108437593
 10
11.626092972470488
 20
-1.8058178950916999
 10
11.851350286294668
 20
-1.7744436677032773
 10
12.07633981517034
 20
-1.7427770484653027
 10
12.301062852477681
 20
-1.7108701633827021
 10
12.525577932588124
 20
-1.678982090022367
 10
12.749773148650714
 20
-1.6468027086048425
 10
12.973647204701104
 20
-1.6142797889773395
 10
13.197259931075068
 20
-1.5817246388595378
 10
13.420509753750082
 20
-1.5492435736981527
 10
13.643440996712803
 20
-1.5165229619669869
 10
13.866002872951965
 20
-1.4836159613893987
 10
14.08814330078405
 20
-1.4505235516098882
 10
14.309916942192494
 20
-1.4173487446241524
 10
14.531273008873933
 20
-1.384144646081619
 10
14.752212789040199
 20
-1.3509631736914893
 10
14.972681620707855
 20
-1.3177013154580668
 10
15.192676914532385
 20
-1.2842547152236357
 10
15.41220254548595
 20
-1.2507795427072517
 10
15.631258512276462
 20
-1.2172757458349837
 10
15.849741944917055
 20
-1.1837974099007587
 10
16.06775700031433
 20
-1.1503423152459211
 10
16.285195641421165
 20
-1.1167563035143468
 10
16.50205915774146
 20
-1.08309134448917
 10
16.71835400454729
 20
-1.0496075995296434
 10
16.93407889104267
 20
-1.0162530467787025
 10
17.149127068392293
 20
-0.982925445589426
 10
17.363603985590835
 20
-0.949674650234154
 10
17.577404188475263
 20
-0.9164505981448222
 10
17.790579753560756
 20
-0.8832521013812067
 10
18.003081182047854
 20
-0.8501842353758676
 10
18.214856390960964
 20
-0.8172479276993736
 10
18.425960042283503
 20
-0.784546190347423
 10
18.636284095092083
 20
-0.7519247087420986
 10
18.84593270629331
 20
-0.719381263224745
 10
19.054800421724146
 20
-0.6868657912272983
 10
19.26289498745265
 20
-0.6546904759660762
 10
19.470164321795323
 20
-0.6228562970855783
 10
19.676704829130237
 20
-0.5910485913411775
 10
19.882358972318734
 20
-0.5592182237353787
 10
20.087241244972116
 20
-0.5277795660574898
 10
20.29124619163525
 20
-0.4966825036655156
 10
20.494368637495356
 20
-0.4657184804658195
 10
20.696608579968245
 20
-0.43488739231053986
 10
20.897967307265745
 20
-0.40424115690887874
 10
21.09845127724411
 20
-0.37404003976795164
 10
21.297953737191772
 20
-0.34418164401904383
 10
21.496574971627336
 20
-0.31450768443230687
 10
21.694210812015406
 20
-0.28501991200101673
 10
21.890863838655896
 20
-0.25582231836537184
 10
22.086536633140792
 20
-0.22701894723950056
 10
22.281226606125575
 20
-0.19850544246568863
 10
22.47488167075836
 20
-0.1702825753927121
 10
22.667556490314684
 20
-0.14245341009019916
 10
22.859146896259137
 20
-0.11501969755142669
 10
23.049701091426797
 20
-0.08782413219104618
 10
23.239114904698106
 20
-0.06086836085447194
 10
23.427547164007713
 20
-0.03425354039626324
 10
23.614792119045166
 20
-0.008087424812825875
 10
23.80095393188543
 20
0.01763199725877177
 10
23.986031305272064
 20
0.04295700804524898
 10
24.16991748649348
 20
0.06799000441531987
 10
24.352613761177338
 20
0.09267917280764464
 10
24.534225582194605
 20
0.11697450272808986
 10
24.714597991414426
 20
0.14082118960788337
 10
24.89378564952815
 20
0.16411627352525865
 10
25.071732593419654
 20
0.18701520492442605
 10
25.248489608808093
 20
0.20957119360267365
 10
25.424005900929675
 20
0.23173139428022976
 10
25.598281464616072
 20
0.2534960152528191
 10
25.771268087987565
 20
0.27470811545260976
 10
25.94301397517132
 20
0.29552494839101884
 10
26.11341624584377
 20
0.31589284536556783
 10
26.282524393636006
 20
0.3359170901045409
 10
26.450342292228104
 20
0.35544156496281365
 10
26.616819144272103
 20
0.3744135288084764
 10
26.781951068335378
 20
0.39298941173023916
 10
26.94573806054168
 20
0.41116936994989517
 10
27.108180115722654
 20
0.4289536117631686
 10
27.269175646934897
 20
0.4462363424626541
 10
27.428831400429527
 20
0.46291542554929155
 10
27.587088827622175
 20
0.479250511403214
 10
27.743897132456933
 20
0.49518880681857974
 10
27.899308392741077
 20
0.5107314476616827
 10
28.05327310450682
 20
0.5257735667956864
 10
28.2057378875221
 20
0.5403665188767409
 10
28.35680561306588
 20
0.5545643371248425
 10
28.506375983698675
 20
0.5682092570494524
 10
28.65444641136804
 20
0.5814055827343542
 10
28.801018184285795
 20
0.5941013964703454
 10
28.946087419727256
 20
0.6064531804200678
 10
29.089656697992307
 20
0.6183569429433228
 10
29.231673929644924
 20
0.6298120168391967
 10
29.37214040289691
 20
0.640766484398487
 10
29.51110690605161
 20
0.6512734512706199
 10
29.6484679733172
 20
0.6613834486890389
 10
29.78422359823323
 20
0.6710967370233988
 10
29.91842715457132
 20
0.6803622219872043
 10
30.05107993571163
 20
0.6891277775755291
 10
30.182073918820016
 20
0.6975469893312561
 10
30.311461066707878
 20
0.7056256277005369
 10
30.439245380972032
 20
0.7132024197190789
 10
30.565373433573164
 20
0.720330646778479
 10
30.689842637750935
 20
0.7271145608885903
 10
30.81270765807294
 20
0.7334510459058529
 10
30.93386561163143
 20
0.7392865372756499
 10
31.053365994641666
 20
0.7447262145784035
 10
31.171207511139304
 20
0.7498223079669017
 10
31.287338072980383
 20
0.7545740981663002
 10
31.401760260464798
 20
0.7588775935364003
 10
31.514472775044023
 20
0.7627851283778527
 10
31.62547302995771
 20
0.7664009547005101
 10
31.734762312125604
 20
0.7696732068691013
 10
31.842291118871998
 20
0.7724969656728591
 10
31.948059443736444
 20
0.7748724914814383
 10
32.052114201342214
 20
0.7770090075893903
 10
32.15440459304925
 20
0.778853824938736
 10
32.25493061756546
 20
0.7804069956034064
 10
32.35369356051852
 20
0.7816167060220616
 10
32.45064133505651
 20
0.7824821848459244
 10
32.54582602027881
 20
0.7830045158673582
 10
32.639192946449434
 20
0.7832870235256454
 10
32.73074469128413
 20
0.7832258203284511
 10
32.82047866802257
 20
0.7829251582856278
 10
32.9084495425244
 20
0.7822818691796847
 10
32.99455055690973
 20
0.7813985581750605
 10
33.07883250077399
 20
0.7803282788472508
 10
33.16124457806131
 20
0.7790182379904145
 10
33.24184016254328
 20
0.777417341318057
 10
33.32056457156308
 20
0.7756294340087715
 10
33.39747246451996
 20
0.7735516082147225
 10
33.47245587284745
 20
0.7713352623736912
 10
33.54562015380198
 20
0.7689342394624378
 10
33.61686117244246
 20
0.7663454345654804
 10
33.68623101045242
 20
0.7635698273273192
 10
33.75372966524766
 20
0.760607521895816
 10
33.81935584086386
 20
0.7575107484237595
 10
33.88305874382928
 20
0.7542266095574468
 10
33.944835784799416
 20
0.7508594614545927
 10
34.004740341422156
 20
0.7473580536069095
 10
34.06271903088124
 20
0.7437738448184087
 10
34.11877314397269
 20
0.7400548132320263
 10
34.17290138731634
 20
0.7362530848526887
 10
34.22510504912399
 20
0.7323167419711931
 10
34.27538283601546
 20
0.7282979105924663
 10
34.32373216252251
 20
0.7243007906524301
 10
34.370103523385275
 20
0.7202205670881796
 10
34.414599797635205
 20
0.7161109606761243
 10
34.4570634326286
 20
0.712021731300931
 10
34.497651977132925
 20
0.7079032752997261
 10
34.53626125744441
 20
0.7037540499749572
 10
34.57288868809479
 20
0.6996782552625457
 10
34.60758764543989
 20
0.6956246927281353
 10
34.6403060413357
 20
0.6915926430968798
 10
34.67104129160607
 20
0.6876862542307707
 10
34.69984806340278
 20
0.6838023058383861
 10
34.726671686989874
 20
0.6800441223590097
 10
34.751513451871254
 20
0.676359734009508
 10
34.77437077387075
 20
0.6728532886518721
 10
34.795244945076455
 20
0.6694727123551063
 10
34.81418675637589
 20
0.6662710066207752
 10
34.83109203535738
 20
0.6632465766773955
 10
34.84601157678473
 20
0.6604522678047391
 10
34.85899746492563
 20
0.6578889554994436
 10
34.86994552736843
 20
0.6555550449900261
 10
34.878905264204654
 20
0.6535555596351159
 10
34.88593005695842
 20
0.6518390927046309
 10
34.89091314387357
 20
0.6505084055848037
 10
34.89390532359013
 20
0.6496161873336118
 10
34.89490400805568
 20
0.6492667420348398
  0
ENDSEC
  0
SECTION
  2
OBJECTS
  0
DICTIONARY
  5
A
330
0
100
AcDbDictionary
280
0
281
1
  3
ACAD_COLOR
350
B
  3
ACAD_GROUP
350
C
  3
ACAD_LAYOUT
350
D
  3
ACAD_MATERIAL
350
E
  3
ACAD_MLEADERSTYLE
350
F
  3
ACAD_MLINESTYLE
350
10
  3
ACAD_PLOTSETTINGS
350
11
  3
ACAD_PLOTSTYLENAME
350
12
  3
ACAD_SCALELIST
350
14
  3
ACAD_TABLESTYLE
350
15
  3
ACAD_VISUALSTYLE
350
16
  3
EZDXF_META
350
2D
  0
DICTIONARY
  5
B
330
A
100
AcDbDictionary
280
0
281
1
  0
DICTIONARY
  5
C
330
A
100
AcDbDictionary
280
0
281
1
  0
DICTIONARY
  5
D
330
A
100
AcDbDictionary
280
0
281
1
  3
Model
350
1A
  3
Layout1
350
1E
  0
DICTIONARY
  5
E
330
A
100
AcDbDictionary
280
0
281
1
  3
ByBlock
350
1F
  3
ByLayer
350
20
  3
Global
350
21
  0
DICTIONARY
  5
F
330
A
100
AcDbDictionary
280
0
281
1
  3
Standard
350
2C
  0
DICTIONARY
  5
10
330
A
100
AcDbDictionary
280
0
281
1
  3
Standard
350
22
  0
DICTIONARY
  5
11
330
A
100
AcDbDictionary
280
0
281
1
  0
ACDBDICTIONARYWDFLT
  5
12
330
A
100
AcDbDictionary
280
0
281
1
  3
Normal
350
13
100
AcDbDictionaryWithDefault
340
13
  0
ACDBPLACEHOLDER
  5
13
330
12
  0
DICTIONARY
  5
14
330
A
100
AcDbDictionary
280
0
281
1
  0
DICTIONARY
  5
15
330
A
100
AcDbDictionary
280
0
281
1
  0
DICTIONARY
  5
16
330
A
100
AcDbDictionary
280
0
281
1
  0
LAYOUT
  5
1A
330
D
100
AcDbPlotSettings
  1

  4
A3
  6

 40
7.5
 41
20.0
 42
7.5
 43
20.0
 44
420.0
 45
297.0
 46
0.0
 47
0.0
 48
0.0
 49
0.0
140
0.0
141
0.0
142
1.0
143
1.0
 70
1024
 72
1
 73
0
 74
5
  7

 75
16
 76
0
 77
2
 78
300
147
1.0
148
0.0
149
0.0
100
AcDbLayout
  1
Model
 70
1
 71
0
 10
0.0
 20
0.0
 11
420.0
 21
297.0
 12
0.0
 22
0.0
 32
0.0
 14
1e+20
 24
1e+20
 34
1e+20
 15
-1e+20
 25
-1e+20
 35
-1e+20
146
0.0
 13
0.0
 23
0.0
 33
0.0
 16
1.0
 26
0.0
 36
0.0
 17
0.0
 27
1.0
 37
0.0
 76
1
330
17
  0
LAYOUT
  5
1E
330
D
100
AcDbPlotSettings
  1

  4
A3
  6

 40
7.5
 41
20.0
 42
7.5
 43
20.0
 44
420.0
 45
297.0
 46
0.0
 47
0.0
 48
0.0
 49
0.0
140
0.0
141
0.0
142
1.0
143
1.0
 70
0
 72
1
 73
0
 74
5
  7

 75
16
 76
0
 77
2
 78
300
147
1.0
148
0.0
149
0.0
100
AcDbLayout
  1
Layout1
 70
1
 71
1
 10
0.0
 20
0.0
 11
420.0
 21
297.0
 12
0.0
 22
0.0
 32
0.0
 14
1e+20
 24
1e+20
 34
1e+20
 15
-1e+20
 25
-1e+20
 35
-1e+20
146
0.0
 13
0.0
 23
0.0
 33
0.0
 16
1.0
 26
0.0
 36
0.0
 17
0.0
 27
1.0
 37
0.0
 76
1
330
1B
  0
MATERIAL
  5
1F
102
{ACAD_REACTORS
330
E
102
}
330
E
100
AcDbMaterial
  1
ByBlock
  2

 70
0
 40
1.0
 71
1
 41
1.0
 91
-1023410177
 42
1.0
 72
1
  3

 73
1
 74
1
 75
1
 44
0.5
 73
0
 45
1.0
 46
1.0
 77
1
  4

 78
1
 79
1
170
1
 48
1.0
171
1
  6

172
1
173
1
174
1
140
1.0
141
1.0
175
1
  7

176
1
177
1
178
1
143
1.0
179
1
  8

270
1
271
1
272
1
145
1.0
146
1.0
273
1
  9

274
1
275
1
276
1
 42
1.0
 72
1
  3

 73
1
 74
1
 75
1
 94
63
  0
MATERIAL
  5
20
102
{ACAD_REACTORS
330
E
102
}
330
E
100
AcDbMaterial
  1
ByLayer
  2

 70
0
 40
1.0
 71
1
 41
1.0
 91
-1023410177
 42
1.0
 72
1
  3

 73
1
 74
1
 75
1
 44
0.5
 73
0
 45
1.0
 46
1.0
 77
1
  4

 78
1
 79
1
170
1
 48
1.0
171
1
  6

172
1
173
1
174
1
140
1.0
141
1.0
175
1
  7

176
1
177
1
178
1
143
1.0
179
1
  8

270
1
271
1
272
1
145
1.0
146
1.0
273
1
  9

274
1
275
1
276
1
 42
1.0
 72
1
  3

 73
1
 74
1
 75
1
 94
63
  0
MATERIAL
  5
21
102
{ACAD_REACTORS
330
E
102
}
330
E
100
AcDbMaterial
  1
Global
  2

 70
0
 40
1.0
 71
1
 41
1.0
 91
-1023410177
 42
1.0
 72
1
  3

 73
1
 74
1
 75
1
 44
0.5
 73
0
 45
1.0
 46
1.0
 77
1
  4

 78
1
 79
1
170
1
 48
1.0
171
1
  6

172
1
173
1
174
1
140
1.0
141
1.0
175
1
  7

176
1
177
1
178
1
143
1.0
179
1
  8

270
1
271
1
272
1
145
1.0
146
1.0
273
1
  9

274
1
275
1
276
1
 42
1.0
 72
1
  3

 73
1
 74
1
 75
1
 94
63
  0
MLINESTYLE
  5
22
102
{ACAD_REACTORS
330
10
102
}
330
10
100
AcDbMlineStyle
  2
Standard
 70
0
  3

 62
256
 51
90.0
 52
90.0
 71
2
 49
0.5
 62
256
  6
BYLAYER
 49
-0.5
 62
256
  6
BYLAYER
  0
MLEADERSTYLE
  5
2C
102
{ACAD_REACTORS
330
F
102
}
330
F
100
AcDbMLeaderStyle
179
2
170
2
171
1
172
0
 90
2
 40
0.0
 41
0.0
173
1
 91
-1056964608
 92
-2
290
1
 42
2.0
291
1
 43
8.0
  3
Standard
 44
4.0
300

342
29
174
1
175
1
176
0
178
1
 93
-1056964608
 45
4.0
292
0
297
0
 46
4.0
 94
-1056964608
 47
1.0
 49
1.0
140
1.0
294
1
141
0.0
177
0
142
1.0
295
0
296
0
143
3.75
271
0
272
9
273
9
  0
DICTIONARY
  5
2D
330
A
100
AcDbDictionary
280
1
281
1
  3
CREATED_BY_EZDXF
350
2E
  3
WRITTEN_BY_EZDXF
350
32
  0
DICTIONARYVAR
  5
2E
330
2D
100
DictionaryVariables
280
0
  1
1.3.5 @ 2025-08-20T01:28:30.472006+00:00
  0
DICTIONARYVAR
  5
32
330
2D
100
DictionaryVariables
280
0
  1
1.3.5 @ 2025-08-20T01:28:30.487651+00:00
  0
ENDSEC
  0
EOF
