  0
SECTION
  2
HEADER
  9
$ACADVER
  1
AC1032
  9
$ACADMAINTVER
 90
4
  9
$DWGCODEPAGE
  3
ANSI_1252
  9
$LASTSAVEDBY
  1
ezdxf
  9
$REQUIREDVERSIONS
160
0
  9
$INSBASE
 10
0.0
 20
0.0
 30
0.0
  9
$EXTMIN
 10
1e+20
 20
1e+20
 30
1e+20
  9
$EXTMAX
 10
-1e+20
 20
-1e+20
 30
-1e+20
  9
$LIMMIN
 10
0.0
 20
0.0
  9
$LIMMAX
 10
420.0
 20
297.0
  9
$ORTHOMODE
 70
0
  9
$REGENMODE
 70
1
  9
$FILLMODE
 70
1
  9
$QTEXTMODE
 70
0
  9
$MIRRTEXT
 70
1
  9
$LTSCALE
 40
1.0
  9
$ATTMODE
 70
1
  9
$TEXTSIZE
 40
2.5
  9
$TRACEWID
 40
1.0
  9
$TEXTSTYLE
  7
Standard
  9
$CLAYER
  8
0
  9
$CELTYPE
  6
ByLayer
  9
$CECOLOR
 62
256
  9
$CELTSCALE
 40
1.0
  9
$DISPSILH
 70
0
  9
$DIMSCALE
 40
1.0
  9
$DIMASZ
 40
2.5
  9
$DIMEXO
 40
0.625
  9
$DIMDLI
 40
3.75
  9
$DIMRND
 40
0.0
  9
$DIMDLE
 40
0.0
  9
$DIMEXE
 40
1.25
  9
$DIMTP
 40
0.0
  9
$DIMTM
 40
0.0
  9
$DIMTXT
 40
2.5
  9
$DIMCEN
 40
2.5
  9
$DIMTSZ
 40
0.0
  9
$DIMTOL
 70
0
  9
$DIMLIM
 70
0
  9
$DIMTIH
 70
0
  9
$DIMTOH
 70
0
  9
$DIMSE1
 70
0
  9
$DIMSE2
 70
0
  9
$DIMTAD
 70
1
  9
$DIMZIN
 70
8
  9
$DIMBLK
  1

  9
$DIMASO
 70
1
  9
$DIMSHO
 70
1
  9
$DIMPOST
  1

  9
$DIMAPOST
  1

  9
$DIMALT
 70
0
  9
$DIMALTD
 70
3
  9
$DIMALTF
 40
0.03937007874
  9
$DIMLFAC
 40
1.0
  9
$DIMTOFL
 70
1
  9
$DIMTVP
 40
0.0
  9
$DIMTIX
 70
0
  9
$DIMSOXD
 70
0
  9
$DIMSAH
 70
0
  9
$DIMBLK1
  1

  9
$DIMBLK2
  1

  9
$DIMSTYLE
  2
ISO-25
  9
$DIMCLRD
 70
0
  9
$DIMCLRE
 70
0
  9
$DIMCLRT
 70
0
  9
$DIMTFAC
 40
1.0
  9
$DIMGAP
 40
0.625
  9
$DIMJUST
 70
0
  9
$DIMSD1
 70
0
  9
$DIMSD2
 70
0
  9
$DIMTOLJ
 70
0
  9
$DIMTZIN
 70
8
  9
$DIMALTZ
 70
0
  9
$DIMALTTZ
 70
0
  9
$DIMUPT
 70
0
  9
$DIMDEC
 70
2
  9
$DIMTDEC
 70
2
  9
$DIMALTU
 70
2
  9
$DIMALTTD
 70
3
  9
$DIMTXSTY
  7
Standard
  9
$DIMAUNIT
 70
0
  9
$DIMADEC
 70
0
  9
$DIMALTRND
 40
0.0
  9
$DIMAZIN
 70
0
  9
$DIMDSEP
 70
44
  9
$DIMATFIT
 70
3
  9
$DIMFRAC
 70
0
  9
$DIMLDRBLK
  1

  9
$DIMLUNIT
 70
2
  9
$DIMLWD
 70
-2
  9
$DIMLWE
 70
-2
  9
$DIMTMOVE
 70
0
  9
$DIMFXL
 40
1.0
  9
$DIMFXLON
 70
0
  9
$DIMJOGANG
 40
0.785398163397
  9
$DIMTFILL
 70
0
  9
$DIMTFILLCLR
 70
0
  9
$DIMARCSYM
 70
0
  9
$DIMLTYPE
  6

  9
$DIMLTEX1
  6

  9
$DIMLTEX2
  6

  9
$DIMTXTDIRECTION
 70
0
  9
$LUNITS
 70
2
  9
$LUPREC
 70
4
  9
$SKETCHINC
 40
1.0
  9
$FILLETRAD
 40
10.0
  9
$AUNITS
 70
0
  9
$AUPREC
 70
2
  9
$MENU
  1
.
  9
$ELEVATION
 40
0.0
  9
$PELEVATION
 40
0.0
  9
$THICKNESS
 40
0.0
  9
$LIMCHECK
 70
0
  9
$CHAMFERA
 40
0.0
  9
$CHAMFERB
 40
0.0
  9
$CHAMFERC
 40
0.0
  9
$CHAMFERD
 40
0.0
  9
$SKPOLY
 70
0
  9
$TDCREATE
 40
2460908.103113426
  9
$TDUCREATE
 40
2458532.153996898
  9
$TDUPDATE
 40
2460908.103113426
  9
$TDUUPDATE
 40
2458532.1544311
  9
$TDINDWG
 40
0.0
  9
$TDUSRTIMER
 40
0.0
  9
$USRTIMER
 70
1
  9
$ANGBASE
 50
0.0
  9
$ANGDIR
 70
0
  9
$PDMODE
 70
0
  9
$PDSIZE
 40
0.0
  9
$PLINEWID
 40
0.0
  9
$SPLFRAME
 70
0
  9
$SPLINETYPE
 70
6
  9
$SPLINESEGS
 70
8
  9
$HANDSEED
  5
33
  9
$SURFTAB1
 70
6
  9
$SURFTAB2
 70
6
  9
$SURFTYPE
 70
6
  9
$SURFU
 70
6
  9
$SURFV
 70
6
  9
$UCSBASE
  2

  9
$UCSNAME
  2

  9
$UCSORG
 10
0.0
 20
0.0
 30
0.0
  9
$UCSXDIR
 10
1.0
 20
0.0
 30
0.0
  9
$UCSYDIR
 10
0.0
 20
1.0
 30
0.0
  9
$UCSORTHOREF
  2

  9
$UCSORTHOVIEW
 70
0
  9
$UCSORGTOP
 10
0.0
 20
0.0
 30
0.0
  9
$UCSORGBOTTOM
 10
0.0
 20
0.0
 30
0.0
  9
$UCSORGLEFT
 10
0.0
 20
0.0
 30
0.0
  9
$UCSORGRIGHT
 10
0.0
 20
0.0
 30
0.0
  9
$UCSORGFRONT
 10
0.0
 20
0.0
 30
0.0
  9
$UCSORGBACK
 10
0.0
 20
0.0
 30
0.0
  9
$PUCSBASE
  2

  9
$PUCSNAME
  2

  9
$PUCSORG
 10
0.0
 20
0.0
 30
0.0
  9
$PUCSXDIR
 10
1.0
 20
0.0
 30
0.0
  9
$PUCSYDIR
 10
0.0
 20
1.0
 30
0.0
  9
$PUCSORTHOREF
  2

  9
$PUCSORTHOVIEW
 70
0
  9
$PUCSORGTOP
 10
0.0
 20
0.0
 30
0.0
  9
$PUCSORGBOTTOM
 10
0.0
 20
0.0
 30
0.0
  9
$PUCSORGLEFT
 10
0.0
 20
0.0
 30
0.0
  9
$PUCSORGRIGHT
 10
0.0
 20
0.0
 30
0.0
  9
$PUCSORGFRONT
 10
0.0
 20
0.0
 30
0.0
  9
$PUCSORGBACK
 10
0.0
 20
0.0
 30
0.0
  9
$USERI1
 70
0
  9
$USERI2
 70
0
  9
$USERI3
 70
0
  9
$USERI4
 70
0
  9
$USERI5
 70
0
  9
$USERR1
 40
0.0
  9
$USERR2
 40
0.0
  9
$USERR3
 40
0.0
  9
$USERR4
 40
0.0
  9
$USERR5
 40
0.0
  9
$WORLDVIEW
 70
1
  9
$SHADEDGE
 70
3
  9
$SHADEDIF
 70
70
  9
$TILEMODE
 70
1
  9
$MAXACTVP
 70
64
  9
$PINSBASE
 10
0.0
 20
0.0
 30
0.0
  9
$PLIMCHECK
 70
0
  9
$PEXTMIN
 10
1e+20
 20
1e+20
 30
1e+20
  9
$PEXTMAX
 10
-1e+20
 20
-1e+20
 30
-1e+20
  9
$PLIMMIN
 10
0.0
 20
0.0
  9
$PLIMMAX
 10
420.0
 20
297.0
  9
$UNITMODE
 70
0
  9
$VISRETAIN
 70
1
  9
$PLINEGEN
 70
0
  9
$PSLTSCALE
 70
1
  9
$TREEDEPTH
 70
3020
  9
$CMLSTYLE
  2
Standard
  9
$CMLJUST
 70
0
  9
$CMLSCALE
 40
20.0
  9
$PROXYGRAPHICS
 70
1
  9
$MEASUREMENT
 70
1
  9
$CELWEIGHT
370
-1
  9
$ENDCAPS
280
0
  9
$JOINSTYLE
280
0
  9
$LWDISPLAY
290
0
  9
$INSUNITS
 70
6
  9
$HYPERLINKBASE
  1

  9
$STYLESHEET
  1

  9
$XEDIT
290
1
  9
$CEPSNTYPE
380
0
  9
$PSTYLEMODE
290
1
  9
$FINGERPRINTGUID
  2
{B0C0B0CA-8C10-4BE1-BE7F-EF3404A133F6}
  9
$VERSIONGUID
  2
{180259AC-FACF-416A-A7A9-77299D890702}
  9
$EXTNAMES
290
1
  9
$PSVPSCALE
 40
0.0
  9
$OLESTARTUP
290
0
  9
$SORTENTS
280
127
  9
$INDEXCTL
280
0
  9
$HIDETEXT
280
1
  9
$XCLIPFRAME
280
1
  9
$HALOGAP
280
0
  9
$OBSCOLOR
 70
257
  9
$OBSLTYPE
280
0
  9
$INTERSECTIONDISPLAY
280
0
  9
$INTERSECTIONCOLOR
 70
257
  9
$DIMASSOC
280
2
  9
$PROJECTNAME
  1

  9
$CAMERADISPLAY
290
0
  9
$LENSLENGTH
 40
50.0
  9
$CAMERAHEIGHT
 40
0.0
  9
$STEPSPERSEC
 40
24.0
  9
$STEPSIZE
 40
100.0
  9
$3DDWFPREC
 40
2.0
  9
$PSOLWIDTH
 40
0.005
  9
$PSOLHEIGHT
 40
0.08
  9
$LOFTANG1
 40
1.570796326795
  9
$LOFTANG2
 40
1.570796326795
  9
$LOFTMAG1
 40
0.0
  9
$LOFTMAG2
 40
0.0
  9
$LOFTPARAM
 70
7
  9
$LOFTNORMALS
280
1
  9
$LATITUDE
 40
37.795
  9
$LONGITUDE
 40
-122.394
  9
$NORTHDIRECTION
 40
0.0
  9
$TIMEZONE
 70
-8000
  9
$LIGHTGLYPHDISPLAY
280
1
  9
$TILEMODELIGHTSYNCH
280
1
  9
$CMATERIAL
347
20
  9
$SOLIDHIST
280
0
  9
$SHOWHIST
280
1
  9
$DWFFRAME
280
2
  9
$DGNFRAME
280
2
  9
$REALWORLDSCALE
290
1
  9
$INTERFERECOLOR
 62
256
  9
$CSHADOW
280
0
  9
$SHADOWPLANELOCATION
 40
0.0
  0
ENDSEC
  0
SECTION
  2
CLASSES
  0
CLASS
  1
ACDBDICTIONARYWDFLT
  2
AcDbDictionaryWithDefault
  3
ObjectDBX Classes
 90
0
 91
0
280
0
281
0
  0
CLASS
  1
SUN
  2
AcDbSun
  3
SCENEOE
 90
1153
 91
0
280
0
281
0
  0
CLASS
  1
VISUALSTYLE
  2
AcDbVisualStyle
  3
ObjectDBX Classes
 90
4095
 91
0
280
0
281
0
  0
CLASS
  1
MATERIAL
  2
AcDbMaterial
  3
ObjectDBX Classes
 90
1153
 91
0
280
0
281
0
  0
CLASS
  1
SCALE
  2
AcDbScale
  3
ObjectDBX Classes
 90
1153
 91
0
280
0
281
0
  0
CLASS
  1
TABLESTYLE
  2
AcDbTableStyle
  3
ObjectDBX Classes
 90
4095
 91
0
280
0
281
0
  0
CLASS
  1
MLEADERSTYLE
  2
AcDbMLeaderStyle
  3
ACDB_MLEADERSTYLE_CLASS
 90
4095
 91
0
280
0
281
0
  0
CLASS
  1
DICTIONARYVAR
  2
AcDbDictionaryVar
  3
ObjectDBX Classes
 90
0
 91
0
280
0
281
0
  0
CLASS
  1
CELLSTYLEMAP
  2
AcDbCellStyleMap
  3
ObjectDBX Classes
 90
1152
 91
0
280
0
281
0
  0
CLASS
  1
MENTALRAYRENDERSETTINGS
  2
AcDbMentalRayRenderSettings
  3
SCENEOE
 90
1024
 91
0
280
0
281
0
  0
CLASS
  1
ACDBDETAILVIEWSTYLE
  2
AcDbDetailViewStyle
  3
ObjectDBX Classes
 90
1025
 91
0
280
0
281
0
  0
CLASS
  1
ACDBSECTIONVIEWSTYLE
  2
AcDbSectionViewStyle
  3
ObjectDBX Classes
 90
1025
 91
0
280
0
281
0
  0
CLASS
  1
RASTERVARIABLES
  2
AcDbRasterVariables
  3
ISM
 90
0
 91
0
280
0
281
0
  0
CLASS
  1
LAYOUT
  2
AcDbLayout
  3
ObjectDBX Classes
 90
0
 91
0
280
0
281
0
  0
CLASS
  1
ACDBPLACEHOLDER
  2
AcDbPlaceHolder
  3
ObjectDBX Classes
 90
0
 91
0
280
0
281
0
  0
ENDSEC
  0
SECTION
  2
TABLES
  0
TABLE
  2
VPORT
  5
8
330
0
100
AcDbSymbolTable
 70
1
  0
VPORT
  5
23
330
8
100
AcDbSymbolTableRecord
100
AcDbViewportTableRecord
  2
*Active
 70
0
 10
0.0
 20
0.0
 11
1.0
 21
1.0
 12
0.0
 22
0.0
 13
0.0
 23
0.0
 14
0.5
 24
0.5
 15
0.5
 25
0.5
 16
0.0
 26
0.0
 36
1.0
 17
0.0
 27
0.0
 37
0.0
 40
1000.0
 41
1.34
 42
50.0
 43
0.0
 44
0.0
 50
0.0
 51
0.0
 71
0
 72
1000
 73
1
 74
3
 75
0
 76
0
 77
0
 78
0
281
0
 65
0
146
0.0
  0
ENDTAB
  0
TABLE
  2
LTYPE
  5
2
330
0
100
AcDbSymbolTable
 70
3
  0
LTYPE
  5
24
330
2
100
AcDbSymbolTableRecord
100
AcDbLinetypeTableRecord
  2
ByBlock
 70
0
  3

 72
65
 73
0
 40
0.0
  0
LTYPE
  5
25
330
2
100
AcDbSymbolTableRecord
100
AcDbLinetypeTableRecord
  2
ByLayer
 70
0
  3

 72
65
 73
0
 40
0.0
  0
LTYPE
  5
26
330
2
100
AcDbSymbolTableRecord
100
AcDbLinetypeTableRecord
  2
Continuous
 70
0
  3

 72
65
 73
0
 40
0.0
  0
ENDTAB
  0
TABLE
  2
LAYER
  5
1
330
0
100
AcDbSymbolTable
 70
2
  0
LAYER
  5
27
330
1
100
AcDbSymbolTableRecord
100
AcDbLayerTableRecord
  2
0
 70
0
 62
7
  6
Continuous
370
-3
390
13
347
21
  0
LAYER
  5
28
330
1
100
AcDbSymbolTableRecord
100
AcDbLayerTableRecord
  2
Defpoints
 70
0
 62
7
  6
Continuous
290
0
370
-3
390
13
347
21
  0
ENDTAB
  0
TABLE
  2
STYLE
  5
5
330
0
100
AcDbSymbolTable
 70
1
  0
STYLE
  5
29
330
5
100
AcDbSymbolTableRecord
100
AcDbTextStyleTableRecord
  2
Standard
 70
0
 40
0.0
 41
1.0
 50
0.0
 71
0
 42
2.5
  3
txt
  4

  0
ENDTAB
  0
TABLE
  2
VIEW
  5
7
330
0
100
AcDbSymbolTable
 70
0
  0
ENDTAB
  0
TABLE
  2
UCS
  5
6
330
0
100
AcDbSymbolTable
 70
0
  0
ENDTAB
  0
TABLE
  2
APPID
  5
3
330
0
100
AcDbSymbolTable
 70
3
  0
APPID
  5
2A
330
3
100
AcDbSymbolTableRecord
100
AcDbRegAppTableRecord
  2
ACAD
 70
0
  0
APPID
  5
30
330
3
100
AcDbSymbolTableRecord
100
AcDbRegAppTableRecord
  2
HATCHBACKGROUNDCOLOR
 70
0
  0
APPID
  5
31
330
3
100
AcDbSymbolTableRecord
100
AcDbRegAppTableRecord
  2
EZDXF
 70
0
  0
ENDTAB
  0
TABLE
  2
DIMSTYLE
  5
4
330
0
100
AcDbSymbolTable
 70
1
100
AcDbDimStyleTable
  0
DIMSTYLE
105
2B
330
4
100
AcDbSymbolTableRecord
100
AcDbDimStyleTableRecord
  2
Standard
 70
0
 40
1.0
 41
2.5
 42
0.625
 43
3.75
 44
1.25
 45
0.0
 46
0.0
 47
0.0
 48
0.0
 49
2.5
140
2.5
141
2.5
142
0.0
143
0.03937007874
144
1.0
145
0.0
146
1.0
147
0.625
148
0.0
 69
0
 70
0
 71
0
 72
0
 73
0
 74
0
 75
0
 76
0
 77
1
 78
8
 79
3
170
0
171
3
172
1
173
0
174
0
175
0
176
0
177
0
178
0
179
2
271
2
272
2
273
2
274
3
275
0
276
0
277
2
278
44
279
0
280
0
281
0
282
0
283
0
284
8
285
0
286
0
288
0
289
3
290
0
371
-2
372
-2
  0
ENDTAB
  0
TABLE
  2
BLOCK_RECORD
  5
9
330
0
100
AcDbSymbolTable
 70
2
  0
BLOCK_RECORD
  5
17
330
9
100
AcDbSymbolTableRecord
100
AcDbBlockTableRecord
  2
*Model_Space
340
1A
 70
0
280
1
281
0
  0
BLOCK_RECORD
  5
1B
330
9
100
AcDbSymbolTableRecord
100
AcDbBlockTableRecord
  2
*Paper_Space
340
1E
 70
0
280
1
281
0
  0
ENDTAB
  0
ENDSEC
  0
SECTION
  2
BLOCKS
  0
BLOCK
  5
18
330
17
100
AcDbEntity
  8
0
100
AcDbBlockBegin
  2
*Model_Space
 70
0
 10
0.0
 20
0.0
 30
0.0
  3
*Model_Space
  1

  0
ENDBLK
  5
19
330
17
100
AcDbEntity
  8
0
100
AcDbBlockEnd
  0
BLOCK
  5
1C
330
1B
100
AcDbEntity
  8
0
100
AcDbBlockBegin
  2
*Paper_Space
 70
0
 10
0.0
 20
0.0
 30
0.0
  3
*Paper_Space
  1

  0
ENDBLK
  5
1D
330
1B
100
AcDbEntity
  8
0
100
AcDbBlockEnd
  0
ENDSEC
  0
SECTION
  2
ENTITIES
  0
LWPOLYLINE
  5
2F
330
17
100
AcDbEntity
  8
0
100
AcDbPolyline
 90
721
 70
1
 10
55.24316915618429
 20
5.776041610753546
 10
55.241545041905425
 20
5.776445049001269
 10
55.23668944221912
 20
5.7774902415345535
 10
55.228635784883366
 20
5.778847521284017
 10
55.21728497356981
 20
5.780672410068227
 10
55.202826862812955
 20
5.782736095440487
 10
55.18517071113311
 20
5.785111703071674
 10
55.16424247002159
 20
5.787707731294544
 10
55.140206937829966
 20
5.790542473626834
 10
55.11299006604957
 20
5.793524428401301
 10
55.082492733262335
 20
5.796809364872391
 10
55.04889646424375
 20
5.800250619305214
 10
55.01211883890993
 20
5.8038392511374655
 10
54.97215149404899
 20
5.80765773899546
 10
54.92901115608476
 20
5.81154112562657
 10
54.882681081867
 20
5.815654533240677
 10
54.83325203796498
 20
5.81992458873102
 10
54.78064160429493
 20
5.824342351535298
 10
54.72484141764489
 20
5.828990300279824
 10
54.6659505910697
 20
5.833712748188782
 10
54.6038699864249
 20
5.838665629473866
 10
54.53861632177113
 20
5.843684069361074
 10
54.47033766067291
 20
5.848951401099405
 10
54.39879515626996
 20
5.85435782950387
 10
54.32423599354487
 20
5.859930918569021
 10
54.24649536578281
 20
5.865652457255743
 10
54.165655651251555
 20
5.871531798519471
 10
54.0817168415879
 20
5.877569024838834
 10
53.99467056521671
 20
5.883846697318773
 10
53.904516797048345
 20
5.890365063395164
 10
53.811272255143436
 20
5.896959248294005
 10
53.714920204714936
 20
5.903794291746554
 10
53.615551378879324
 20
5.910797150560556
 10
53.513075011067265
 20
5.91804119784277
 10
53.40750779424975
 20
5.925361806255073
 10
53.298915405360376
 20
5.932933038569649
 10
53.187289456097524
 20
5.9408376208486935
 10
53.0726550193706
 20
5.948828282170514
 10
52.95491294030869
 20
5.957061121704063
 10
52.8342363804753
 20
5.965471954340767
 10
52.7104521448541
 20
5.974125295103702
 10
52.58372502343344
 20
5.983039519989239
 10
52.4539725877663
 20
5.9922057709136975
 10
52.32127722448365
 20
6.001633318353888
 10
52.1855648683504
 20
6.011230825599819
 10
52.046917905997496
 20
6.021007563128299
 10
51.90523718255405
 20
6.031119630108277
 10
51.76069585122041
 20
6.041502923909808
 10
51.613211483549506
 20
6.052148586449215
 10
51.462784062814926
 20
6.0630567826837485
 10
51.30941354720059
 20
6.074227925006539
 10
51.153173976852024
 20
6.085753597563464
 10
50.993991269807665
 20
6.097542628601779
 10
50.83193945784975
 20
6.10968668474598
 10
50.667026862374186
 20
6.1221036997628895
 10
50.49927020144159
 20
6.1346287988784995
 10
50.32873511853269
 20
6.147436374779506
 10
50.1553224671398
 20
6.160682444156231
 10
49.979032205446835
 20
6.174367419401808
 10
49.7999718180838
 20
6.188253052635475
 10
49.61813290838592
 20
6.2024221523980545
 10
49.433515459626726
 20
6.216874883646795
 10
49.24609434035445
 20
6.231859094653777
 10
49.055911341539044
 20
6.246962639723304
 10
48.86303212338761
 20
6.262359746584811
 10
48.66744829759865
 20
6.278133141300498
 10
48.46906906414998
 20
6.294356526891628
 10
48.26806756787866
 20
6.310965883206876
 10
48.0643697351864
 20
6.327869956014878
 10
47.85797554934674
 20
6.345068910272883
 10
47.64895065384043
 20
6.362737138667588
 10
47.437328468062276
 20
6.380545056608234
 10
47.223009845504606
 20
6.398648680785149
 10
47.006151196217495
 20
6.417149030778267
 10
46.78675249511131
 20
6.43604635402347
 10
46.564748040162804
 20
6.4551668351844445
 10
46.34012942634404
 20
6.474593365280643
 10
46.113061443643396
 20
6.494344320308427
 10
45.88344492882675
 20
6.514575881915376
 10
45.65130494644028
 20
6.535040861658428
 10
45.41672387475171
 20
6.555748612493014
 10
45.17970168867143
 20
6.576699381855017
 10
44.94022161995954
 20
6.598058539390197
 10
44.69828364352637
 20
6.619826332534431
 10
44.453896097494265
 20
6.641920530097287
 10
44.207232135063485
 20
6.664277029448815
 10
43.95811853612804
 20
6.686960593047973
 10
43.706637687318924
 20
6.7099804913715735
 10
43.45289706490287
 20
6.733098559017478
 10
43.196805852131284
 20
6.756388663964203
 10
42.93842134599939
 20
6.780107512567506
 10
42.67782593313816
 20
6.804264375304194
 10
42.41487147471413
 20
6.828676661232907
 10
42.14974786707792
 20
6.853115145513819
 10
41.88242162392898
 20
6.8779100725666895
 10
41.61290108338955
 20
6.902979211201084
 10
41.34117784879493
 20
6.928405369957826
 10
41.06735102483667
 20
6.954032944539717
 10
40.7914205947884
 20
6.979862099904015
 10
40.51330410511343
 20
7.005884225402916
 10
40.233157990951405
 20
7.032200093180478
 10
39.9508998154921
 20
7.058800927631649
 10
39.66662869179036
 20
7.085531041980608
 10
39.38034458639329
 20
7.112390766141863
 10
39.09212989429513
 20
7.139389288113595
 10
38.801893798747244
 20
7.166600475874319
 10
38.50970196832001
 20
7.194198474674852
 10
38.21549703074928
 20
7.221927320467073
 10
37.919517874711445
 20
7.249896396042841
 10
37.62163307943366
 20
7.277758235686788
 10
37.321834239887934
 20
7.30559573041836
 10
37.02026108987974
 20
7.333674362198367
 10
36.71690523274434
 20
7.362076939567629
 10
36.411626892860184
 20
7.39053839295847
 10
36.10477246026001
 20
7.418929692324732
 10
35.79610300445141
 20
7.447141867267689
 10
35.485758242513405
 20
7.475440564705403
 10
35.173647366060635
 20
7.503899570137762
 10
34.85994356174627
 20
7.532454451020317
 10
34.54458947403258
 20
7.560849078347691
 10
34.22765077148993
 20
7.589257597370701
 10
33.909110694241626
 20
7.617845295256483
 10
33.58901104162084
 20
7.6461999438307116
 10
33.26736015174988
 20
7.674239311902955
 10
32.94428103201037
 20
7.702393838686649
 10
32.61961717199373
 20
7.730563494345371
 10
32.29352503192925
 20
7.758848803587302
 10
31.966054774362068
 20
7.786755059611805
 10
31.637198010990588
 20
7.814364988481071
 10
31.306937998664573
 20
7.841843712404984
 10
30.97524960593219
 20
7.86943907965562
 10
30.642331142535223
 20
7.8968388918950785
 10
30.308051162611193
 20
7.923695930843871
 10
29.972631861865462
 20
7.950284206631977
 10
29.63586652552831
 20
7.976998808616752
 10
29.297871034894435
 20
8.00351868037661
 10
28.958678800995468
 20
8.029514319799425
 10
28.61843796266487
 20
8.055168317826553
 10
28.27697525798057
 20
8.080545849310088
 10
27.93444717226153
 20
8.105747191522328
 10
27.59077961518298
 20
8.130681255189156
 10
27.24607173325261
 20
8.155192023620248
 10
26.900405946554226
 20
8.179288437377911
 10
26.553699793187956
 20
8.202961968292968
 10
26.2061181384111
 20
8.226230250054153
 10
25.85749608351349
 20
8.24907597888724
 10
25.507981750602195
 20
8.27168191069084
 10
25.15758351125232
 20
8.293965484360013
 10
24.806343148070628
 20
8.31551463667769
 10
24.45424391790686
 20
8.336494489853756
 10
24.101442331169594
 20
8.357005073724624
 10
23.747765125936773
 20
8.377111563142389
 10
23.39339389388953
 20
8.396666634543148
 10
23.038336989876587
 20
8.415587891779216
 10
22.682602768746637
 20
8.433792938702902
 10
22.326174470623
 20
8.451447062481343
 10
21.969126185830433
 20
8.46864135238865
 10
21.611457889279297
 20
8.485376055860705
 10
21.253277107415613
 20
8.501412512623615
 10
20.894509749914626
 20
8.516659633403265
 10
20.53524660843529
 20
8.531043797657016
 10
20.175545038515324
 20
8.544821134390245
 10
19.81529748861906
 20
8.55823055131272
 10
19.454685575517285
 20
8.57112447742466
 10
19.093693751368672
 20
8.58283447306775
 10
18.732271811812083
 20
8.593855657435759
 10
18.37057630907215
 20
8.604287647971972
 10
18.00854149094641
 20
8.61395712421184
 10
17.646175729009983
 20
8.622781525050419
 10
17.283618815610854
 20
8.63102575509814
 10
16.92079667715065
 20
8.638598560123624
 10
16.557816831712202
 20
8.645261362331613
 10
16.194596825758833
 20
8.651005551074306
 10
15.831293211515186
 20
8.65593074379499
 10
15.467897609042916
 20
8.660119584077233
 10
15.104435116341
 20
8.663324553563461
 10
14.740897353471093
 20
8.665628295837244
 10
14.377358419121164
 20
8.667121817694072
 10
14.01371077011877
 20
8.66804394436509
 10
13.650169492808798
 20
8.667917025388006
 10
13.286734587191246
 20
8.666741060762817
 10
12.923397698417405
 20
8.664598446637218
 10
12.560150446548931
 20
8.66157182659477
 10
12.197083673424055
 20
8.657587085221083
 10
11.83410655393097
 20
8.6527181729733
 10
11.47139236671818
 20
8.646899750042072
 10
11.108957846572709
 20
8.63996677669615
 10
10.74679463028266
 20
8.632001731561848
 10
10.384894362999313
 20
8.62308701078685
 10
10.0232654079346
 20
8.613140135744846
 10
9.662089432038552
 20
8.602013040564294
 10
9.30126723862424
 20
8.589862236807285
 10
8.940864579894134
 20
8.576861044938365
 10
8.580840810007937
 20
8.562588543656785
 10
8.221344134704806
 20
8.547226664074897
 10
7.8623494894386265
 20
8.531022594635768
 10
7.503799485218833
 20
8.513720536248531
 10
7.145875805721898
 20
8.495172258084395
 10
6.7885617328872
 20
8.475542634917367
 10
6.431791522875473
 20
8.454658263804271
 10
6.075713406515499
 20
8.432700828421575
 10
5.720261648331238
 20
8.409496843347476
 10
5.365592834000177
 20
8.38514559611076
 10
5.011516950086782
 20
8.359877466252021
 10
4.658215680267521
 20
8.333544222942473
 10
4.305722477390074
 20
8.305815951676857
 10
3.954029003332159
 20
8.276774883645606
 10
3.6031926387211195
 20
8.246676900418215
 10
3.2532217802217254
 20
8.215439193453863
 10
2.9041247994090935
 20
8.182979201647605
 10
2.555984183272771
 20
8.149305205732743
 10
2.208700735125801
 20
8.114573717271352
 10
1.8623402406235054
 20
8.078957726813481
 10
1.5170186312398903
 20
8.042135683065792
 10
1.1727526501252141
 20
8.003942463818403
 10
0.829525595945271
 20
7.964542778888061
 10
0.4874123535299605
 20
7.924019882079382
 10
0.146331799093283
 20
7.882352048642984
 10
-0.19364192686071624
 20
7.839629872981225
 10
-0.5324347089176522
 20
7.795944196932335
 10
-0.8700955728561516
 20
7.75095674277914
 10
-1.2065420400499012
 20
7.704675873733557
 10
-1.541733447932193
 20
7.657522346139082
 10
-1.8757355487054936
 20
7.609322839531163
 10
-2.2083750219052547
 20
7.560011601707331
 10
-2.5398168247841117
 20
7.509571906243742
 10
-2.8698960000894282
 20
7.458020479564236
 10
-3.198546795618734
 20
7.405530642133366
 10
-3.525942531836575
 20
7.352168146153605
 10
-3.851958914057042
 20
7.297528961705297
 10
-4.17648116429902
 20
7.242124686970176
 10
-4.499608487612666
 20
7.18611191598895
 10
-4.821373183352777
 20
7.12898741379181
 10
-5.141527815640407
 20
7.070776270014515
 10
-5.460179952737627
 20
7.011717557324092
 10
-5.7773379578563615
 20
6.951893754346854
 10
-6.092985104572767
 20
6.891139903830174
 10
-6.406964798846138
 20
6.829555210824204
 10
-6.719441997929103
 20
6.767122948905108
 10
-7.030276834204792
 20
6.704107280375669
 10
-7.339452581249367
 20
6.640343247983257
 10
-7.646960875850906
 20
6.5757483731015585
 10
-7.952810081221326
 20
6.510405134356889
 10
-8.256934445158159
 20
6.444486852213796
 10
-8.559416446287717
 20
6.377985163460362
 10
-8.860074400933527
 20
6.310751837267798
 10
-9.158908309095592
 20
6.242786873636103
 10
-9.455992286188305
 20
6.173999430727041
 10
-9.751252216797273
 20
6.104480350378849
 10
-10.044713190558253
 20
6.034477068470471
 10
-10.336301092056855
 20
5.964080426840145
 10
-10.625982468445402
 20
5.892960510982608
 10
-10.913839798350198
 20
5.82110895768594
 10
-11.19961728268038
 20
5.748468377959589
 10
-11.483504968324349
 20
5.675269481258658
 10
-11.765511218494016
 20
5.601594746209462
 10
-12.045471075936748
 20
5.527460899235845
 10
-12.323376177440634
 20
5.452785461711488
 10
-12.599283911996222
 20
5.377312634545528
 10
-12.87314525382488
 20
5.301380695455144
 10
-13.144985292562376
 20
5.225237080319283
 10
-13.41467973352278
 20
5.14847775921829
 10
-13.682311055332415
 20
5.071094368940243
 10
-13.94773102716249
 20
4.9932685931616145
 10
-14.211022127639321
 20
4.914992068670483
 10
-14.47219271997483
 20
4.836347274093166
 10
-14.731135235906933
 20
4.757095136762636
 10
-14.987866401859483
 20
4.677400613931526
 10
-15.242386217832466
 20
4.5972637055998335
 10
-15.494728136673578
 20
4.517014326272819
 10
-15.74471883791826
 20
4.436586723748012
 10
-15.992498189183381
 20
4.3557167357226225
 10
-16.23796698541879
 20
4.274247768155942
 10
-16.481076200845852
 20
4.192518098765152
 10
-16.721925040514716
 20
4.110684321590962
 10
-16.960397572951386
 20
4.028424885340033
 10
-17.1964280459534
 20
3.945913110476913
 10
-17.430189779985305
 20
3.8632147492040785
 10
-17.661517817794454
 20
3.780346527945371
 10
-17.890387069745113
 20
3.6970610108218427
 10
-18.11682262547302
 20
3.6136056337124427
 10
-18.340832848190107
 20
3.530062875243482
 10
-18.562409374684453
 20
3.446350256788649
 10
-18.78146972632974
 20
3.362476141559863
 10
-18.998005539914047
 20
3.278358050930807
 10
-19.212107657275613
 20
3.1940701003158796
 10
-19.4236111211618
 20
3.1096290161389186
 10
-19.63253265799646
 20
3.025199755652556
 10
-19.839020498608377
 20
2.9406006351803198
 10
-20.04282720711861
 20
2.85585674435797
 10
-20.244026898941545
 20
2.7708772413472755
 10
-20.44265302692487
 20
2.6859920406534936
 10
-20.638705591068582
 20
2.601201142276624
 10
-20.832085386322525
 20
2.5163479521759586
 10
-21.022784049474787
 20
2.4313499917251815
 10
-21.21087569593975
 20
2.346116419086057
 10
-21.3962371845244
 20
2.261076353814002
 10
-21.578942630643116
 20
2.176138954070781
 10
-21.758975307872063
 20
2.0911392626037637
 10
-21.936252737584933
 20
2.006085642624871
 10
-22.11079164620556
 20
1.9211430513867325
 10
-22.282575307310104
 20
1.8361465316367191
 10
-22.451612084110486
 20
1.7511785620011449
 10
-22.61791033981862
 20
1.6663216211063248
 10
-22.781370869384368
 20
1.581419114911551
 10
-22.942018762443478
 20
1.4967184792957664
 10
-23.09990304477458
 20
1.4118814365417922
 10
-23.254974690599052
 20
1.3272462643668077
 10
-23.40722533670496
 20
1.2427304841444993
 10
-23.556646619880397
 20
1.1582516172485504
 10
-23.70315606149904
 20
1.0738180268908835
 10
-23.846844503399126
 20
0.9895038284858909
 10
-23.98765455659011
 20
0.9055648211244406
 10
-24.125569494648133
 20
0.8218360475539017
 10
-24.260589317573206
 20
0.7383175077742735
 10
-24.392804867203573
 20
0.6550833171999513
 10
-24.522042823074667
 20
0.5720677236284611
 10
-24.648402390236658
 20
0.4894273211005129
 10
-24.771817816487058
 20
0.4073354300806574
 10
-24.8923715804522
 20
0.32578368735697294
 10
-25.00996447708191
 20
0.24461549888875123
 10
-25.124687348214437
 20
0.16390498009038626
 10
-25.236375236597144
 20
0.08366885738571948
 10
-25.3452098259065
 20
0.004055361603539542
 10
-25.4510345221018
 20
-0.07483630220599617
 10
-25.553915077385522
 20
-0.15317945450744025
 10
-25.65385149175766
 20
-0.23097409530079052
 10
-25.75084376521821
 20
-0.30822022458604914
 10
-25.844826145564706
 20
-0.38474452189866354
 10
-25.935798632797148
 20
-0.4605469872386341
 10
-26.023818615906087
 20
-0.5358834196968276
 10
-26.108828705900965
 20
-0.6104980201823775
 10
-26.190795449934114
 20
-0.6847207032005446
 10
-26.269752300853195
 20
-0.7582215542460673
 10
-26.345665805810544
 20
-0.8313304878242075
 10
-26.41855269122999
 20
-0.903882546682334
 10
-26.488412957111542
 20
-0.9758777308204473
 10
-26.555155761616962
 20
-1.0473901556529415
 10
-26.618962788422717
 20
-1.1182715903510276
 10
-26.6795615120141
 20
-1.1887443811578895
 10
-26.737216094693903
 20
-1.2586686604566595
 10
-26.79175321599757
 20
-1.3281101804498094
 10
-26.843197965560865
 20
-1.3968215052583952
 10
-26.891616095586265
 20
-1.4649759553469677
 10
-26.936933490659374
 20
-1.5324826888772907
 10
-26.97918360362787
 20
-1.5990117913441044
 10
-27.01842382348231
 20
-1.664819061838274
 10
-27.054588398020222
 20
-1.7297311798952486
 10
-27.087694053665444
 20
-1.7935831882623992
 10
-27.11777424326566
 20
-1.8560451724344638
 10
-27.144828966820874
 20
-1.9171171324114427
 10
-27.168957429381237
 20
-1.9766424741526267
 10
-27.190036489753723
 20
-2.034192078102598
 10
-27.20818207941233
 20
-2.0894443929680175
 10
-27.223560309102588
 20
-2.141582995697655
 10
-27.236064764055307
 20
-2.1900138094834616
 10
-27.24591173428753
 20
-2.233425539516317
 10
-27.25331750981631
 20
-2.270506890987099
 10
-27.258317850475112
 20
-2.2992616504404024
 10
-27.261204315188273
 20
-2.3176362154302708
 10
-27.209322121702712
 20
-2.8449160172368213
 10
-27.207328503994766
 20
-2.848963526152399
 10
-27.201356014082844
 20
-2.8610235742728167
 10
-27.19143810481464
 20
-2.880766247092815
 10
-27.177350122961176
 20
-2.9095853180478297
 10
-27.159081398324755
 20
-2.9492295647143196
 10
-27.13698433929893
 20
-2.9954017353119773
 10
-27.111235726826934
 20
-3.0455366292131134
 10
-27.08210923991637
 20
-3.0985787506994718
 10
-27.049698027391262
 20
-3.1527876854065138
 10
-27.01399487953257
 20
-3.207412762485483
 10
-26.975206569652542
 20
-3.262058315228644
 10
-26.933284071972537
 20
-3.3163860659188176
 10
-26.888260839340234
 20
-3.3700661000507406
 10
-26.840153598179487
 20
-3.422933460371785
 10
-26.788962348490283
 20
-3.4749881468819495
 10
-26.73477793211087
 20
-3.5261560441668394
 10
-26.677534596838765
 20
-3.576263831761905
 10
-26.617223979462054
 20
-3.625393988293461
 10
-26.553936921818966
 20
-3.6734723983471125
 10
-26.48757421885935
 20
-3.720655655963569
 10
-26.418144233795122
 20
-3.766861282516516
 10
-26.345828650302757
 20
-3.8119410471771644
 10
-26.270354942867552
 20
-3.8561172961886974
 10
-26.191978910580364
 20
-3.8993326405605617
 10
-26.110527232976644
 20
-3.941652832495232
 10
-26.026090751894632
 20
-3.983003756578313
 10
-25.938677830546247
 20
-4.02330293418349
 10
-25.848263379295727
 20
-4.062797801189707
 10
-25.75486412456691
 20
-4.101323400344336
 10
-25.65844661351212
 20
-4.139209646152637
 10
-25.55903593576711
 20
-4.176209102735663
 10
-25.456697843534364
 20
-4.212495090557966
 10
-25.351349858187557
 20
-4.248059246407626
 10
-25.24297525330286
 20
-4.283066527537273
 10
-25.131664870718495
 20
-4.317442818532512
 10
-25.017410347222548
 20
-4.351270598019657
 10
-24.900211682815016
 20
-4.384549865998711
 10
-24.77996130923383
 20
-4.417519695136696
 10
-24.65683254694353
 20
-4.450114333231141
 10
-24.530668801903406
 20
-4.482234575231885
 10
-24.401635031366105
 20
-4.5138971475627745
 10
-24.26963203028145
 20
-4.545258644264516
 10
-24.134742277275773
 20
-4.576327428549032
 10
-23.996891656934665
 20
-4.607012658578084
 10
-23.856179374308294
 20
-4.6371577403109665
 10
-23.712514587558413
 20
-4.666836789162069
 10
-23.566053890725748
 20
-4.696149010181552
 10
-23.416714805183965
 20
-4.7250860401574934
 10
-23.26449733093308
 20
-4.753647879089893
 10
-23.109426557608842
 20
-4.781587091099806
 10
-22.951584963837576
 20
-4.808912039399152
 10
-22.790890070992962
 20
-4.835614360776011
 10
-22.627407631277475
 20
-4.861867375694935
 10
-22.461137644691114
 20
-4.887671084155922
 10
-22.292113564081564
 20
-4.912695571653714
 10
-22.120401141651293
 20
-4.937114158652858
 10
-21.945926261985917
 20
-4.960836003315123
 10
-21.76868056187351
 20
-4.983943584266821
 10
-21.58874651994038
 20
-5.006445264719873
 10
-21.406132499398456
 20
-5.028258566047964
 10
-21.22083013703582
 20
-5.049465966877411
 10
-21.032839432852462
 20
-5.0700674672082116
 10
-20.842168750060313
 20
-5.089980588414052
 10
-20.64889220407376
 20
-5.109296172333167
 10
-20.453009794892804
 20
-5.128014218965558
 10
-20.254447407103054
 20
-5.146043886472987
 10
-20.053353271533297
 20
-5.163566858531928
 10
-19.84965327276914
 20
-5.180492293304144
 10
-19.64333904759866
 20
-5.196902669415952
 10
-19.434501437860092
 20
-5.212723871452954
 10
-19.2231655331892
 20
-5.227708463536207
 10
-19.009306243950217
 20
-5.242103881544657
 10
-18.792824365092997
 20
-5.256066719519011
 10
-18.573975695708402
 20
-5.26953958846872
 10
-18.352612004967643
 20
-5.282340804717308
 10
-18.12874165608263
 20
-5.294387889638463
 10
-17.90251287988217
 20
-5.305862526908655
 10
-17.673834834528016
 20
-5.316838831942278
 10
-17.442724246444012
 20
-5.327151847486704
 10
-17.20926359425647
 20
-5.336809936753851
 10
-16.973461241177315
 20
-5.345730621117407
 10
-16.735292097570778
 20
-5.354161336456314
 10
-16.494772889860712
 20
-5.361937125517944
 10
-16.25188689162327
 20
-5.3692229455549265
 10
-16.00682414974684
 20
-5.375788087112159
 10
-15.75941134376688
 20
-5.381698302392112
 10
-15.509730952309697
 20
-5.38696195460671
 10
-15.257857090789685
 20
-5.391669885594186
 10
-15.003724007004374
 20
-5.395648774889989
 10
-14.74739745315624
 20
-5.399071942958672
 10
-14.488968271083515
 20
-5.40186527438584
 10
-14.228288229957409
 20
-5.403847085495021
 10
-13.96552228703056
 20
-5.405034102710056
 10
-13.700645352667197
 20
-5.405673761909891
 10
-13.433657426867326
 20
-5.405766063094525
 10
-13.164558509630941
 20
-5.40531100626396
 10
-12.893456169220123
 20
-5.40406951875117
 10
-12.620367132058716
 20
-5.401876643303524
 10
-12.345175466672718
 20
-5.399053931214363
 10
-12.06804613031476
 20
-5.395618108907528
 10
-11.788913370782367
 20
-5.391395855918468
 10
-11.5078763931257
 20
-5.386230578206474
 10
-11.224910107708995
 20
-5.3803697116504905
 10
-10.940080266734723
 20
-5.373986576715071
 10
-10.653321118000417
 20
-5.36690785293566
 10
-10.364657751141827
 20
-5.358886104433316
 10
-10.07423839698775
 20
-5.3501030148845095
 10
-9.78205469232627
 20
-5.340641062915555
 10
-9.487941679904747
 20
-5.330483522102612
 10
-9.192155158814051
 20
-5.319573003455127
 10
-8.89462937685171
 20
-5.307736186508548
 10
-8.595364334017725
 20
-5.294973071262878
 10
-8.294434145726486
 20
-5.2813744995563505
 10
-7.991796995918392
 20
-5.26735286452054
 10
-7.687560452855517
 20
-5.252669093488426
 10
-7.381675490759237
 20
-5.236984908742824
 10
-7.074133746417622
 20
-5.220382788910049
 10
-6.765100177083305
 20
-5.202879460413945
 10
-6.454458851282291
 20
-5.1847964745478485
 10
-6.1423089740647345
 20
-5.1659772372710515
 10
-5.828650545430634
 20
-5.146421748583555
 10
-5.513500291803835
 20
-5.125965051232727
 10
-5.196849849972413
 20
-5.104689623844886
 10
-4.878847450765158
 20
-5.0827771500965
 10
-4.559344863353284
 20
-5.060045946311098
 10
-4.238523771413259
 20
-5.036347781659892
 10
-3.916375811733163
 20
-5.011765134769195
 10
-3.5928926211010723
 20
-4.986380484265327
 10
-3.268000084102599
 20
-4.960102988310048
 10
-2.94196236304053
 20
-4.9327927792864905
 10
-2.6147053425004647
 20
-4.9043590153564205
 10
-2.286096364584564
 20
-4.875288205065806
 10
-1.9563087497573868
 20
-4.845514596212175
 10
-1.6254751559167633
 20
-4.814551680249557
 10
-1.293405536174307
 20
-4.782630166633053
 10
-0.9601740059444088
 20
-4.749840897200903
 10
-0.6259622489035456
 20
-4.716035641124317
 10
-0.290613671011003
 20
-4.681115193353138
 10
0.0457067704805906
 20
-4.645096280311207
 10
0.3831150070452272
 20
-4.608300453291864
 10
0.7215118336327528
 20
-4.570571118254401
 10
1.0607729555572514
 20
-4.5315042452791605
 10
1.4010059410807938
 20
-4.491338907033169
 10
1.7421617644247582
 20
-4.450413381233607
 10
2.0841328824166876
 20
-4.40848884264933
 10
2.4269947653113224
 20
-4.365487810979563
 10
2.7706824303216786
 20
-4.3215911947224805
 10
3.115162449689708
 20
-4.2764693268087
 10
3.4604348401418417
 20
-4.2301223721954715
 10
3.8064505758994405
 20
-4.182888608599981
 10
4.153135575000955
 20
-4.134859207774967
 10
4.500563961224006
 20
-4.0859434103608185
 10
4.848628174669706
 20
-4.03590222616914
 10
5.1973449501251245
 20
-3.984900694931188
 10
5.54671432104311
 20
-3.932939146561465
 10
5.896653800434129
 20
-3.880025861793267
 10
6.247138323752058
 20
-3.8259136521835293
 10
6.598184617420734
 20
-3.770767474984879
 10
6.94966117703522
 20
-3.7149339711264204
 10
7.3017246300890575
 20
-3.6583142654725007
 10
7.654184921330656
 20
-3.600677566089392
 10
8.007132909324664
 20
-3.5420981533487383
 10
8.360403636818457
 20
-3.482592753674383
 10
8.71408795401349
 20
-3.4222355649593466
 10
9.068177506061044
 20
-3.3609441910559394
 10
9.422515698920408
 20
-3.2988178370143193
 10
9.777201737641754
 20
-3.236013096875195
 10
10.132227284102784
 20
-3.1724477394481303
 10
10.487418992749307
 20
-3.108055765094773
 10
10.84286772214599
 20
-3.0429114541867697
 10
11.198507720090365
 20
-2.9771881271886715
 10
11.554388020724259
 20
-2.9105475888619243
 10
11.910360376492479
 20
-2.8431713579257454
 10
12.266441513818853
 20
-2.7752243916327677
 10
12.622623077854685
 20
-2.706624293835299
 10
12.978888342176113
 20
-2.637206107280713
 10
13.33525404157021
 20
-2.5671348717002624
 10
13.691571903392122
 20
-2.49659185837729
 10
14.047907696570741
 20
-2.4254039118044965
 10
14.404204032115517
 20
-2.353826831072748
 10
14.760435803664265
 20
-2.2816130153458465
 10
15.116594656368276
 20
-2.208680068476104
 10
15.472697316651391
 20
-2.13519294771615
 10
15.828603866717472
 20
-2.0614153204970136
 10
16.18439681028247
 20
-1.9873390710426526
 10
16.53996856235788
 20
-1.9127249617287903
 10
16.89532746942921
 20
-1.8376553062244885
 10
17.25047353985965
 20
-1.762130187008375
 10
17.60541512013472
 20
-1.6862319177495104
 10
17.959978847973805
 20
-1.6098943338522902
 10
18.314255590304768
 20
-1.533191798166988
 10
18.66817118153393
 20
-1.4562146576600836
 10
19.02182486852754
 20
-1.3791199187654148
 10
19.37501816591635
 20
-1.301593651093928
 10
19.727759445275513
 20
-1.2237184157505625
 10
20.08017300129093
 20
-1.1458982426549762
 10
20.432043655622408
 20
-1.067654574079985
 10
20.78336301996837
 20
-0.9889046839633977
 10
21.134263777316303
 20
-0.9101353282870609
 10
21.484597629931713
 20
-0.8315275308984382
 10
21.834396893895825
 20
-0.7525782217849682
 10
22.183587420341386
 20
-0.6733779128703838
 10
22.532086680462825
 20
-0.5939344724948465
 10
22.87999390439992
 20
-0.5144047421349451
 10
23.227234934922222
 20
-0.4348791512357837
 10
23.573818110152022
 20
-0.3554399309877986
 10
23.919644199949516
 20
-0.27593023991440246
 10
24.264696444438016
 20
-0.19618479084845825
 10
24.60899992489009
 20
-0.11645093719028442
 10
24.9525546329425
 20
-0.03672859646125691
 10
25.29520388255923
 20
0.0428839335533589
 10
25.63711268953537
 20
0.12240280192701825
 10
25.97809092335043
 20
0.20205954290109113
 10
26.318146930489895
 20
0.2817718428065127
 10
26.65732249356051
 20
0.36112763842621215
 10
26.9956092577136
 20
0.4402093259078819
 10
27.33282543055091
 20
0.5191662083024489
 10
27.66914439107948
 20
0.5979319560570577
 10
28.004392726839434
 20
0.6765732286390701
 10
28.338652933183496
 20
0.7550982243031538
 10
28.671859199366736
 20
0.8333341999351438
 10
29.003928988220327
 20
0.9112733696735014
 10
29.33496152988408
 20
0.9887588920416404
 10
29.66476666874784
 20
1.0660225487168058
 10
29.993509420606724
 20
1.1430804887724542
 10
30.321016373000848
 20
1.2199993716759492
 10
30.647337663385663
 20
1.296284738062531
 10
30.97239076295562
 20
1.3719287195920389
 10
31.296290508234264
 20
1.4474423370958183
 10
31.61878094959294
 20
1.522884464179697
 10
31.94009400852213
 20
1.5976114209066121
 10
32.26005626419873
 20
1.6716899492225512
 10
32.578634221959
 20
1.7454503760259075
 10
32.8958278650765
 20
1.8188928662739323
 10
33.211645531673554
 20
1.8919351887761924
 10
33.5261290210833
 20
1.9641651153583612
 10
33.8390965158179
 20
2.0357321965072512
 10
34.15068796712634
 20
2.1068997697393845
 10
34.46073828394459
 20
2.1776524282889422
 10
34.76926416760686
 20
2.2478254623391716
 10
35.076282327810574
 20
2.3172540795946954
 10
35.38177600467904
 20
2.3861035672226496
 10
35.6856626359538
 20
2.4543663867973735
 10
35.98804146013789
 20
2.521885614363658
 10
36.28874738616729
 20
2.58864584315568
 10
36.58783783648536
 20
2.654902542349798
 10
36.88514770330171
 20
2.7206404701374467
 10
37.18094129109369
 20
2.785718356765111
 10
37.47490516088354
 20
2.8499402664912656
 10
37.76720436191923
 20
2.9133220184748647
 10
38.05783049753597
 20
2.9759464212567264
 10
38.34660175024589
 20
3.03796302532366
 10
38.63352644144487
 20
3.099289764442484
 10
38.918777975229595
 20
3.1598600616244616
 10
39.20211709494235
 20
3.219568163137294
 10
39.483643022359736
 20
3.278257309983018
 10
39.763248105587536
 20
3.3361673996149226
 10
40.0410064851298
 20
3.393389026435363
 10
40.316843961939995
 20
3.4498321733923687
 10
40.590760502565296
 20
3.5054971704004445
 10
40.86269862601981
 20
3.560129125633612
 10
41.132715763110134
 20
3.6139834257896073
 10
41.400655160894544
 20
3.666962432912174
 10
41.66658259666517
 20
3.719239220029984
 10
41.93052314333131
 20
3.7705665162213426
 10
42.19240258512006
 20
3.820854469391533
 10
42.45219579894277
 20
3.870350845334002
 10
42.70990275970985
 20
3.919055891484631
 10
42.96552343396844
 20
3.9669699377579266
 10
43.21890944035192
 20
4.013912785092688
 10
43.470242554532106
 20
4.059735295395238
 10
43.71939838982775
 20
4.10484240585012
 10
43.96630273882911
 20
4.14914418188399
 10
44.21103810525216
 20
4.192648739272887
 10
44.453538644899076
 20
4.235183664817151
 10
44.6937134239363
 20
4.276823981196066
 10
44.93171913676308
 20
4.317667903716272
 10
45.16741574849832
 20
4.35745291964751
 10
45.400786507628524
 20
4.396344233678286
 10
45.631839752275994
 20
4.434259614618167
 10
45.8605503509889
 20
4.47144691073923
 10
46.08693500510145
 20
4.5077414122247195
 10
46.31091113562881
 20
4.543135745606238
 10
46.532487080693215
 20
4.577547679693342
 10
46.75173699752514
 20
4.611067643931137
 10
46.968487398395816
 20
4.643763040094629
 10
47.18273824148915
 20
4.675634280576942
 10
47.394580418822684
 20
4.7066067550919275
 10
47.60402230197155
 20
4.736597902534646
 10
47.81087385241053
 20
4.7658383498815695
 10
48.01521682952972
 20
4.794343553506485
 10
48.21707713419649
 20
4.821858077103695
 10
48.41636352313836
 20
4.848459995061655
 10
48.61305925320512
 20
4.874314429590251
 10
48.80726357126296
 20
4.89926437425564
 10
48.99881970764373
 20
4.923212356058818
 10
49.18779345636598
 20
4.946331283071208
 10
49.374176429128106
 20
4.968703881354997
 10
49.55788605530849
 20
4.990322694963156
 10
49.73893903624136
 20
5.01102301407894
 10
49.91732696689869
 20
5.030887729721788
 10
50.09303310413024
 20
5.050081964101586
 10
50.266065777695104
 20
5.068523568506525
 10
50.43635915175864
 20
5.086040047258314
 10
50.60391318450481
 20
5.1026318127500865
 10
50.76877696025475
 20
5.11863656534864
 10
50.93087625487229
 20
5.133964535437882
 10
51.09021105999423
 20
5.148615805496437
 10
51.24678969701641
 20
5.162508309291121
 10
51.400529603680404
 20
5.175634508396275
 10
51.5515132920654
 20
5.188002436109319
 10
51.6996414818523
 20
5.199769428778596
 10
51.844930857648905
 20
5.210770941544609
 10
51.98736467630495
 20
5.22117209661724
 10
52.12704219304986
 20
5.2308158050840206
 10
52.2637815569429
 20
5.239851947346268
 10
52.39765693357777
 20
5.248370870370458
 10
52.52859411554474
 20
5.256282639583246
 10
52.656683994861304
 20
5.263512644698479
 10
52.78182720757629
 20
5.270219046850766
 10
52.904122967103056
 20
5.276245169520773
 10
53.023381586171325
 20
5.28181817558267
 10
53.1397758500001
 20
5.286877591466069
 10
53.25314088496884
 20
5.291405865960865
 10
53.36355921988318
 20
5.295410867407221
 10
53.47103083801664
 20
5.2988927607623895
 10
53.57554735106769
 20
5.301934272088563
 10
53.67703456835304
 20
5.3044453018551465
 10
53.775475729995975
 20
5.306591137229272
 10
53.87096175310366
 20
5.308296920488908
 10
53.96340168711609
 20
5.309637839270594
 10
54.05280388688199
 20
5.3105314974266395
 10
54.13915998082621
 20
5.311060456061983
 10
54.222478307071036
 20
5.311142483986194
 10
54.30275049404135
 20
5.310860142304212
 10
54.37995980695009
 20
5.31037847074729
 10
54.45404039323623
 20
5.309525138594396
 10
54.5251489974783
 20
5.308397866280413
 10
54.59302956968908
 20
5.307056517154683
 10
54.65793813476616
 20
5.305441475303743
 10
54.71970956819268
 20
5.303537663876276
 10
54.77832713518156
 20
5.30151012260354
 10
54.83388174447676
 20
5.299284076242132
 10
54.88629082545662
 20
5.296852068845016
 10
54.935537651697295
 20
5.294379057664827
 10
54.981721486791415
 20
5.291707871310467
 10
55.02474305041994
 20
5.288995846130285
 10
55.06461068906837
 20
5.28616066845522
 10
55.10130767631284
 20
5.283367295537898
 10
55.134842375365274
 20
5.2805332487520085
 10
55.165288960182565
 20
5.277748792585398
 10
55.19248231461104
 20
5.274998767708129
 10
55.21649663769725
 20
5.272373191172175
 10
55.23741447497313
 20
5.269879766360441
 10
55.255070710285096
 20
5.267503333942991
 10
55.26953116274129
 20
5.265416554555363
 10
55.28088677453848
 20
5.263544323039647
 10
55.288955669646356
 20
5.262036767233038
 10
55.29381207220101
 20
5.260983656751627
 10
55.29543923068901
 20
5.260550196283925
  0
ENDSEC
  0
SECTION
  2
OBJECTS
  0
DICTIONARY
  5
A
330
0
100
AcDbDictionary
280
0
281
1
  3
ACAD_COLOR
350
B
  3
ACAD_GROUP
350
C
  3
ACAD_LAYOUT
350
D
  3
ACAD_MATERIAL
350
E
  3
ACAD_MLEADERSTYLE
350
F
  3
ACAD_MLINESTYLE
350
10
  3
ACAD_PLOTSETTINGS
350
11
  3
ACAD_PLOTSTYLENAME
350
12
  3
ACAD_SCALELIST
350
14
  3
ACAD_TABLESTYLE
350
15
  3
ACAD_VISUALSTYLE
350
16
  3
EZDXF_META
350
2D
  0
DICTIONARY
  5
B
330
A
100
AcDbDictionary
280
0
281
1
  0
DICTIONARY
  5
C
330
A
100
AcDbDictionary
280
0
281
1
  0
DICTIONARY
  5
D
330
A
100
AcDbDictionary
280
0
281
1
  3
Model
350
1A
  3
Layout1
350
1E
  0
DICTIONARY
  5
E
330
A
100
AcDbDictionary
280
0
281
1
  3
ByBlock
350
1F
  3
ByLayer
350
20
  3
Global
350
21
  0
DICTIONARY
  5
F
330
A
100
AcDbDictionary
280
0
281
1
  3
Standard
350
2C
  0
DICTIONARY
  5
10
330
A
100
AcDbDictionary
280
0
281
1
  3
Standard
350
22
  0
DICTIONARY
  5
11
330
A
100
AcDbDictionary
280
0
281
1
  0
ACDBDICTIONARYWDFLT
  5
12
330
A
100
AcDbDictionary
280
0
281
1
  3
Normal
350
13
100
AcDbDictionaryWithDefault
340
13
  0
ACDBPLACEHOLDER
  5
13
330
12
  0
DICTIONARY
  5
14
330
A
100
AcDbDictionary
280
0
281
1
  0
DICTIONARY
  5
15
330
A
100
AcDbDictionary
280
0
281
1
  0
DICTIONARY
  5
16
330
A
100
AcDbDictionary
280
0
281
1
  0
LAYOUT
  5
1A
330
D
100
AcDbPlotSettings
  1

  4
A3
  6

 40
7.5
 41
20.0
 42
7.5
 43
20.0
 44
420.0
 45
297.0
 46
0.0
 47
0.0
 48
0.0
 49
0.0
140
0.0
141
0.0
142
1.0
143
1.0
 70
1024
 72
1
 73
0
 74
5
  7

 75
16
 76
0
 77
2
 78
300
147
1.0
148
0.0
149
0.0
100
AcDbLayout
  1
Model
 70
1
 71
0
 10
0.0
 20
0.0
 11
420.0
 21
297.0
 12
0.0
 22
0.0
 32
0.0
 14
1e+20
 24
1e+20
 34
1e+20
 15
-1e+20
 25
-1e+20
 35
-1e+20
146
0.0
 13
0.0
 23
0.0
 33
0.0
 16
1.0
 26
0.0
 36
0.0
 17
0.0
 27
1.0
 37
0.0
 76
1
330
17
  0
LAYOUT
  5
1E
330
D
100
AcDbPlotSettings
  1

  4
A3
  6

 40
7.5
 41
20.0
 42
7.5
 43
20.0
 44
420.0
 45
297.0
 46
0.0
 47
0.0
 48
0.0
 49
0.0
140
0.0
141
0.0
142
1.0
143
1.0
 70
0
 72
1
 73
0
 74
5
  7

 75
16
 76
0
 77
2
 78
300
147
1.0
148
0.0
149
0.0
100
AcDbLayout
  1
Layout1
 70
1
 71
1
 10
0.0
 20
0.0
 11
420.0
 21
297.0
 12
0.0
 22
0.0
 32
0.0
 14
1e+20
 24
1e+20
 34
1e+20
 15
-1e+20
 25
-1e+20
 35
-1e+20
146
0.0
 13
0.0
 23
0.0
 33
0.0
 16
1.0
 26
0.0
 36
0.0
 17
0.0
 27
1.0
 37
0.0
 76
1
330
1B
  0
MATERIAL
  5
1F
102
{ACAD_REACTORS
330
E
102
}
330
E
100
AcDbMaterial
  1
ByBlock
  2

 70
0
 40
1.0
 71
1
 41
1.0
 91
-1023410177
 42
1.0
 72
1
  3

 73
1
 74
1
 75
1
 44
0.5
 73
0
 45
1.0
 46
1.0
 77
1
  4

 78
1
 79
1
170
1
 48
1.0
171
1
  6

172
1
173
1
174
1
140
1.0
141
1.0
175
1
  7

176
1
177
1
178
1
143
1.0
179
1
  8

270
1
271
1
272
1
145
1.0
146
1.0
273
1
  9

274
1
275
1
276
1
 42
1.0
 72
1
  3

 73
1
 74
1
 75
1
 94
63
  0
MATERIAL
  5
20
102
{ACAD_REACTORS
330
E
102
}
330
E
100
AcDbMaterial
  1
ByLayer
  2

 70
0
 40
1.0
 71
1
 41
1.0
 91
-1023410177
 42
1.0
 72
1
  3

 73
1
 74
1
 75
1
 44
0.5
 73
0
 45
1.0
 46
1.0
 77
1
  4

 78
1
 79
1
170
1
 48
1.0
171
1
  6

172
1
173
1
174
1
140
1.0
141
1.0
175
1
  7

176
1
177
1
178
1
143
1.0
179
1
  8

270
1
271
1
272
1
145
1.0
146
1.0
273
1
  9

274
1
275
1
276
1
 42
1.0
 72
1
  3

 73
1
 74
1
 75
1
 94
63
  0
MATERIAL
  5
21
102
{ACAD_REACTORS
330
E
102
}
330
E
100
AcDbMaterial
  1
Global
  2

 70
0
 40
1.0
 71
1
 41
1.0
 91
-1023410177
 42
1.0
 72
1
  3

 73
1
 74
1
 75
1
 44
0.5
 73
0
 45
1.0
 46
1.0
 77
1
  4

 78
1
 79
1
170
1
 48
1.0
171
1
  6

172
1
173
1
174
1
140
1.0
141
1.0
175
1
  7

176
1
177
1
178
1
143
1.0
179
1
  8

270
1
271
1
272
1
145
1.0
146
1.0
273
1
  9

274
1
275
1
276
1
 42
1.0
 72
1
  3

 73
1
 74
1
 75
1
 94
63
  0
MLINESTYLE
  5
22
102
{ACAD_REACTORS
330
10
102
}
330
10
100
AcDbMlineStyle
  2
Standard
 70
0
  3

 62
256
 51
90.0
 52
90.0
 71
2
 49
0.5
 62
256
  6
BYLAYER
 49
-0.5
 62
256
  6
BYLAYER
  0
MLEADERSTYLE
  5
2C
102
{ACAD_REACTORS
330
F
102
}
330
F
100
AcDbMLeaderStyle
179
2
170
2
171
1
172
0
 90
2
 40
0.0
 41
0.0
173
1
 91
-1056964608
 92
-2
290
1
 42
2.0
291
1
 43
8.0
  3
Standard
 44
4.0
300

342
29
174
1
175
1
176
0
178
1
 93
-1056964608
 45
4.0
292
0
297
0
 46
4.0
 94
-1056964608
 47
1.0
 49
1.0
140
1.0
294
1
141
0.0
177
0
142
1.0
295
0
296
0
143
3.75
271
0
272
9
273
9
  0
DICTIONARY
  5
2D
330
A
100
AcDbDictionary
280
1
281
1
  3
CREATED_BY_EZDXF
350
2E
  3
WRITTEN_BY_EZDXF
350
32
  0
DICTIONARYVAR
  5
2E
330
2D
100
DictionaryVariables
280
0
  1
1.3.5 @ 2025-08-20T01:28:29.832676+00:00
  0
DICTIONARYVAR
  5
32
330
2D
100
DictionaryVariables
280
0
  1
1.3.5 @ 2025-08-20T01:28:29.832676+00:00
  0
ENDSEC
  0
EOF
