  0
SECTION
  2
HEADER
  9
$ACADVER
  1
AC1032
  9
$ACADMAINTVER
 90
4
  9
$DWGCODEPAGE
  3
ANSI_1252
  9
$LASTSAVEDBY
  1
ezdxf
  9
$REQUIREDVERSIONS
160
0
  9
$INSBASE
 10
0.0
 20
0.0
 30
0.0
  9
$EXTMIN
 10
1e+20
 20
1e+20
 30
1e+20
  9
$EXTMAX
 10
-1e+20
 20
-1e+20
 30
-1e+20
  9
$LIMMIN
 10
0.0
 20
0.0
  9
$LIMMAX
 10
420.0
 20
297.0
  9
$ORTHOMODE
 70
0
  9
$REGENMODE
 70
1
  9
$FILLMODE
 70
1
  9
$QTEXTMODE
 70
0
  9
$MIRRTEXT
 70
1
  9
$LTSCALE
 40
1.0
  9
$ATTMODE
 70
1
  9
$TEXTSIZE
 40
2.5
  9
$TRACEWID
 40
1.0
  9
$TEXTSTYLE
  7
Standard
  9
$CLAYER
  8
0
  9
$CELTYPE
  6
ByLayer
  9
$CECOLOR
 62
256
  9
$CELTSCALE
 40
1.0
  9
$DISPSILH
 70
0
  9
$DIMSCALE
 40
1.0
  9
$DIMASZ
 40
2.5
  9
$DIMEXO
 40
0.625
  9
$DIMDLI
 40
3.75
  9
$DIMRND
 40
0.0
  9
$DIMDLE
 40
0.0
  9
$DIMEXE
 40
1.25
  9
$DIMTP
 40
0.0
  9
$DIMTM
 40
0.0
  9
$DIMTXT
 40
2.5
  9
$DIMCEN
 40
2.5
  9
$DIMTSZ
 40
0.0
  9
$DIMTOL
 70
0
  9
$DIMLIM
 70
0
  9
$DIMTIH
 70
0
  9
$DIMTOH
 70
0
  9
$DIMSE1
 70
0
  9
$DIMSE2
 70
0
  9
$DIMTAD
 70
1
  9
$DIMZIN
 70
8
  9
$DIMBLK
  1

  9
$DIMASO
 70
1
  9
$DIMSHO
 70
1
  9
$DIMPOST
  1

  9
$DIMAPOST
  1

  9
$DIMALT
 70
0
  9
$DIMALTD
 70
3
  9
$DIMALTF
 40
0.03937007874
  9
$DIMLFAC
 40
1.0
  9
$DIMTOFL
 70
1
  9
$DIMTVP
 40
0.0
  9
$DIMTIX
 70
0
  9
$DIMSOXD
 70
0
  9
$DIMSAH
 70
0
  9
$DIMBLK1
  1

  9
$DIMBLK2
  1

  9
$DIMSTYLE
  2
ISO-25
  9
$DIMCLRD
 70
0
  9
$DIMCLRE
 70
0
  9
$DIMCLRT
 70
0
  9
$DIMTFAC
 40
1.0
  9
$DIMGAP
 40
0.625
  9
$DIMJUST
 70
0
  9
$DIMSD1
 70
0
  9
$DIMSD2
 70
0
  9
$DIMTOLJ
 70
0
  9
$DIMTZIN
 70
8
  9
$DIMALTZ
 70
0
  9
$DIMALTTZ
 70
0
  9
$DIMUPT
 70
0
  9
$DIMDEC
 70
2
  9
$DIMTDEC
 70
2
  9
$DIMALTU
 70
2
  9
$DIMALTTD
 70
3
  9
$DIMTXSTY
  7
Standard
  9
$DIMAUNIT
 70
0
  9
$DIMADEC
 70
0
  9
$DIMALTRND
 40
0.0
  9
$DIMAZIN
 70
0
  9
$DIMDSEP
 70
44
  9
$DIMATFIT
 70
3
  9
$DIMFRAC
 70
0
  9
$DIMLDRBLK
  1

  9
$DIMLUNIT
 70
2
  9
$DIMLWD
 70
-2
  9
$DIMLWE
 70
-2
  9
$DIMTMOVE
 70
0
  9
$DIMFXL
 40
1.0
  9
$DIMFXLON
 70
0
  9
$DIMJOGANG
 40
0.785398163397
  9
$DIMTFILL
 70
0
  9
$DIMTFILLCLR
 70
0
  9
$DIMARCSYM
 70
0
  9
$DIMLTYPE
  6

  9
$DIMLTEX1
  6

  9
$DIMLTEX2
  6

  9
$DIMTXTDIRECTION
 70
0
  9
$LUNITS
 70
2
  9
$LUPREC
 70
4
  9
$SKETCHINC
 40
1.0
  9
$FILLETRAD
 40
10.0
  9
$AUNITS
 70
0
  9
$AUPREC
 70
2
  9
$MENU
  1
.
  9
$ELEVATION
 40
0.0
  9
$PELEVATION
 40
0.0
  9
$THICKNESS
 40
0.0
  9
$LIMCHECK
 70
0
  9
$CHAMFERA
 40
0.0
  9
$CHAMFERB
 40
0.0
  9
$CHAMFERC
 40
0.0
  9
$CHAMFERD
 40
0.0
  9
$SKPOLY
 70
0
  9
$TDCREATE
 40
2460908.103113426
  9
$TDUCREATE
 40
2458532.153996898
  9
$TDUPDATE
 40
2460908.103113426
  9
$TDUUPDATE
 40
2458532.1544311
  9
$TDINDWG
 40
0.0
  9
$TDUSRTIMER
 40
0.0
  9
$USRTIMER
 70
1
  9
$ANGBASE
 50
0.0
  9
$ANGDIR
 70
0
  9
$PDMODE
 70
0
  9
$PDSIZE
 40
0.0
  9
$PLINEWID
 40
0.0
  9
$SPLFRAME
 70
0
  9
$SPLINETYPE
 70
6
  9
$SPLINESEGS
 70
8
  9
$HANDSEED
  5
33
  9
$SURFTAB1
 70
6
  9
$SURFTAB2
 70
6
  9
$SURFTYPE
 70
6
  9
$SURFU
 70
6
  9
$SURFV
 70
6
  9
$UCSBASE
  2

  9
$UCSNAME
  2

  9
$UCSORG
 10
0.0
 20
0.0
 30
0.0
  9
$UCSXDIR
 10
1.0
 20
0.0
 30
0.0
  9
$UCSYDIR
 10
0.0
 20
1.0
 30
0.0
  9
$UCSORTHOREF
  2

  9
$UCSORTHOVIEW
 70
0
  9
$UCSORGTOP
 10
0.0
 20
0.0
 30
0.0
  9
$UCSORGBOTTOM
 10
0.0
 20
0.0
 30
0.0
  9
$UCSORGLEFT
 10
0.0
 20
0.0
 30
0.0
  9
$UCSORGRIGHT
 10
0.0
 20
0.0
 30
0.0
  9
$UCSORGFRONT
 10
0.0
 20
0.0
 30
0.0
  9
$UCSORGBACK
 10
0.0
 20
0.0
 30
0.0
  9
$PUCSBASE
  2

  9
$PUCSNAME
  2

  9
$PUCSORG
 10
0.0
 20
0.0
 30
0.0
  9
$PUCSXDIR
 10
1.0
 20
0.0
 30
0.0
  9
$PUCSYDIR
 10
0.0
 20
1.0
 30
0.0
  9
$PUCSORTHOREF
  2

  9
$PUCSORTHOVIEW
 70
0
  9
$PUCSORGTOP
 10
0.0
 20
0.0
 30
0.0
  9
$PUCSORGBOTTOM
 10
0.0
 20
0.0
 30
0.0
  9
$PUCSORGLEFT
 10
0.0
 20
0.0
 30
0.0
  9
$PUCSORGRIGHT
 10
0.0
 20
0.0
 30
0.0
  9
$PUCSORGFRONT
 10
0.0
 20
0.0
 30
0.0
  9
$PUCSORGBACK
 10
0.0
 20
0.0
 30
0.0
  9
$USERI1
 70
0
  9
$USERI2
 70
0
  9
$USERI3
 70
0
  9
$USERI4
 70
0
  9
$USERI5
 70
0
  9
$USERR1
 40
0.0
  9
$USERR2
 40
0.0
  9
$USERR3
 40
0.0
  9
$USERR4
 40
0.0
  9
$USERR5
 40
0.0
  9
$WORLDVIEW
 70
1
  9
$SHADEDGE
 70
3
  9
$SHADEDIF
 70
70
  9
$TILEMODE
 70
1
  9
$MAXACTVP
 70
64
  9
$PINSBASE
 10
0.0
 20
0.0
 30
0.0
  9
$PLIMCHECK
 70
0
  9
$PEXTMIN
 10
1e+20
 20
1e+20
 30
1e+20
  9
$PEXTMAX
 10
-1e+20
 20
-1e+20
 30
-1e+20
  9
$PLIMMIN
 10
0.0
 20
0.0
  9
$PLIMMAX
 10
420.0
 20
297.0
  9
$UNITMODE
 70
0
  9
$VISRETAIN
 70
1
  9
$PLINEGEN
 70
0
  9
$PSLTSCALE
 70
1
  9
$TREEDEPTH
 70
3020
  9
$CMLSTYLE
  2
Standard
  9
$CMLJUST
 70
0
  9
$CMLSCALE
 40
20.0
  9
$PROXYGRAPHICS
 70
1
  9
$MEASUREMENT
 70
1
  9
$CELWEIGHT
370
-1
  9
$ENDCAPS
280
0
  9
$JOINSTYLE
280
0
  9
$LWDISPLAY
290
0
  9
$INSUNITS
 70
6
  9
$HYPERLINKBASE
  1

  9
$STYLESHEET
  1

  9
$XEDIT
290
1
  9
$CEPSNTYPE
380
0
  9
$PSTYLEMODE
290
1
  9
$FINGERPRINTGUID
  2
{F0BA9F65-7A63-4218-AF40-FABFE3F1993C}
  9
$VERSIONGUID
  2
{C30179F3-DE8F-479E-A620-E603573CE02E}
  9
$EXTNAMES
290
1
  9
$PSVPSCALE
 40
0.0
  9
$OLESTARTUP
290
0
  9
$SORTENTS
280
127
  9
$INDEXCTL
280
0
  9
$HIDETEXT
280
1
  9
$XCLIPFRAME
280
1
  9
$HALOGAP
280
0
  9
$OBSCOLOR
 70
257
  9
$OBSLTYPE
280
0
  9
$INTERSECTIONDISPLAY
280
0
  9
$INTERSECTIONCOLOR
 70
257
  9
$DIMASSOC
280
2
  9
$PROJECTNAME
  1

  9
$CAMERADISPLAY
290
0
  9
$LENSLENGTH
 40
50.0
  9
$CAMERAHEIGHT
 40
0.0
  9
$STEPSPERSEC
 40
24.0
  9
$STEPSIZE
 40
100.0
  9
$3DDWFPREC
 40
2.0
  9
$PSOLWIDTH
 40
0.005
  9
$PSOLHEIGHT
 40
0.08
  9
$LOFTANG1
 40
1.570796326795
  9
$LOFTANG2
 40
1.570796326795
  9
$LOFTMAG1
 40
0.0
  9
$LOFTMAG2
 40
0.0
  9
$LOFTPARAM
 70
7
  9
$LOFTNORMALS
280
1
  9
$LATITUDE
 40
37.795
  9
$LONGITUDE
 40
-122.394
  9
$NORTHDIRECTION
 40
0.0
  9
$TIMEZONE
 70
-8000
  9
$LIGHTGLYPHDISPLAY
280
1
  9
$TILEMODELIGHTSYNCH
280
1
  9
$CMATERIAL
347
20
  9
$SOLIDHIST
280
0
  9
$SHOWHIST
280
1
  9
$DWFFRAME
280
2
  9
$DGNFRAME
280
2
  9
$REALWORLDSCALE
290
1
  9
$INTERFERECOLOR
 62
256
  9
$CSHADOW
280
0
  9
$SHADOWPLANELOCATION
 40
0.0
  0
ENDSEC
  0
SECTION
  2
CLASSES
  0
CLASS
  1
ACDBDICTIONARYWDFLT
  2
AcDbDictionaryWithDefault
  3
ObjectDBX Classes
 90
0
 91
0
280
0
281
0
  0
CLASS
  1
SUN
  2
AcDbSun
  3
SCENEOE
 90
1153
 91
0
280
0
281
0
  0
CLASS
  1
VISUALSTYLE
  2
AcDbVisualStyle
  3
ObjectDBX Classes
 90
4095
 91
0
280
0
281
0
  0
CLASS
  1
MATERIAL
  2
AcDbMaterial
  3
ObjectDBX Classes
 90
1153
 91
0
280
0
281
0
  0
CLASS
  1
SCALE
  2
AcDbScale
  3
ObjectDBX Classes
 90
1153
 91
0
280
0
281
0
  0
CLASS
  1
TABLESTYLE
  2
AcDbTableStyle
  3
ObjectDBX Classes
 90
4095
 91
0
280
0
281
0
  0
CLASS
  1
MLEADERSTYLE
  2
AcDbMLeaderStyle
  3
ACDB_MLEADERSTYLE_CLASS
 90
4095
 91
0
280
0
281
0
  0
CLASS
  1
DICTIONARYVAR
  2
AcDbDictionaryVar
  3
ObjectDBX Classes
 90
0
 91
0
280
0
281
0
  0
CLASS
  1
CELLSTYLEMAP
  2
AcDbCellStyleMap
  3
ObjectDBX Classes
 90
1152
 91
0
280
0
281
0
  0
CLASS
  1
MENTALRAYRENDERSETTINGS
  2
AcDbMentalRayRenderSettings
  3
SCENEOE
 90
1024
 91
0
280
0
281
0
  0
CLASS
  1
ACDBDETAILVIEWSTYLE
  2
AcDbDetailViewStyle
  3
ObjectDBX Classes
 90
1025
 91
0
280
0
281
0
  0
CLASS
  1
ACDBSECTIONVIEWSTYLE
  2
AcDbSectionViewStyle
  3
ObjectDBX Classes
 90
1025
 91
0
280
0
281
0
  0
CLASS
  1
RASTERVARIABLES
  2
AcDbRasterVariables
  3
ISM
 90
0
 91
0
280
0
281
0
  0
CLASS
  1
LAYOUT
  2
AcDbLayout
  3
ObjectDBX Classes
 90
0
 91
0
280
0
281
0
  0
CLASS
  1
ACDBPLACEHOLDER
  2
AcDbPlaceHolder
  3
ObjectDBX Classes
 90
0
 91
0
280
0
281
0
  0
ENDSEC
  0
SECTION
  2
TABLES
  0
TABLE
  2
VPORT
  5
8
330
0
100
AcDbSymbolTable
 70
1
  0
VPORT
  5
23
330
8
100
AcDbSymbolTableRecord
100
AcDbViewportTableRecord
  2
*Active
 70
0
 10
0.0
 20
0.0
 11
1.0
 21
1.0
 12
0.0
 22
0.0
 13
0.0
 23
0.0
 14
0.5
 24
0.5
 15
0.5
 25
0.5
 16
0.0
 26
0.0
 36
1.0
 17
0.0
 27
0.0
 37
0.0
 40
1000.0
 41
1.34
 42
50.0
 43
0.0
 44
0.0
 50
0.0
 51
0.0
 71
0
 72
1000
 73
1
 74
3
 75
0
 76
0
 77
0
 78
0
281
0
 65
0
146
0.0
  0
ENDTAB
  0
TABLE
  2
LTYPE
  5
2
330
0
100
AcDbSymbolTable
 70
3
  0
LTYPE
  5
24
330
2
100
AcDbSymbolTableRecord
100
AcDbLinetypeTableRecord
  2
ByBlock
 70
0
  3

 72
65
 73
0
 40
0.0
  0
LTYPE
  5
25
330
2
100
AcDbSymbolTableRecord
100
AcDbLinetypeTableRecord
  2
ByLayer
 70
0
  3

 72
65
 73
0
 40
0.0
  0
LTYPE
  5
26
330
2
100
AcDbSymbolTableRecord
100
AcDbLinetypeTableRecord
  2
Continuous
 70
0
  3

 72
65
 73
0
 40
0.0
  0
ENDTAB
  0
TABLE
  2
LAYER
  5
1
330
0
100
AcDbSymbolTable
 70
2
  0
LAYER
  5
27
330
1
100
AcDbSymbolTableRecord
100
AcDbLayerTableRecord
  2
0
 70
0
 62
7
  6
Continuous
370
-3
390
13
347
21
  0
LAYER
  5
28
330
1
100
AcDbSymbolTableRecord
100
AcDbLayerTableRecord
  2
Defpoints
 70
0
 62
7
  6
Continuous
290
0
370
-3
390
13
347
21
  0
ENDTAB
  0
TABLE
  2
STYLE
  5
5
330
0
100
AcDbSymbolTable
 70
1
  0
STYLE
  5
29
330
5
100
AcDbSymbolTableRecord
100
AcDbTextStyleTableRecord
  2
Standard
 70
0
 40
0.0
 41
1.0
 50
0.0
 71
0
 42
2.5
  3
txt
  4

  0
ENDTAB
  0
TABLE
  2
VIEW
  5
7
330
0
100
AcDbSymbolTable
 70
0
  0
ENDTAB
  0
TABLE
  2
UCS
  5
6
330
0
100
AcDbSymbolTable
 70
0
  0
ENDTAB
  0
TABLE
  2
APPID
  5
3
330
0
100
AcDbSymbolTable
 70
3
  0
APPID
  5
2A
330
3
100
AcDbSymbolTableRecord
100
AcDbRegAppTableRecord
  2
ACAD
 70
0
  0
APPID
  5
30
330
3
100
AcDbSymbolTableRecord
100
AcDbRegAppTableRecord
  2
HATCHBACKGROUNDCOLOR
 70
0
  0
APPID
  5
31
330
3
100
AcDbSymbolTableRecord
100
AcDbRegAppTableRecord
  2
EZDXF
 70
0
  0
ENDTAB
  0
TABLE
  2
DIMSTYLE
  5
4
330
0
100
AcDbSymbolTable
 70
1
100
AcDbDimStyleTable
  0
DIMSTYLE
105
2B
330
4
100
AcDbSymbolTableRecord
100
AcDbDimStyleTableRecord
  2
Standard
 70
0
 40
1.0
 41
2.5
 42
0.625
 43
3.75
 44
1.25
 45
0.0
 46
0.0
 47
0.0
 48
0.0
 49
2.5
140
2.5
141
2.5
142
0.0
143
0.03937007874
144
1.0
145
0.0
146
1.0
147
0.625
148
0.0
 69
0
 70
0
 71
0
 72
0
 73
0
 74
0
 75
0
 76
0
 77
1
 78
8
 79
3
170
0
171
3
172
1
173
0
174
0
175
0
176
0
177
0
178
0
179
2
271
2
272
2
273
2
274
3
275
0
276
0
277
2
278
44
279
0
280
0
281
0
282
0
283
0
284
8
285
0
286
0
288
0
289
3
290
0
371
-2
372
-2
  0
ENDTAB
  0
TABLE
  2
BLOCK_RECORD
  5
9
330
0
100
AcDbSymbolTable
 70
2
  0
BLOCK_RECORD
  5
17
330
9
100
AcDbSymbolTableRecord
100
AcDbBlockTableRecord
  2
*Model_Space
340
1A
 70
0
280
1
281
0
  0
BLOCK_RECORD
  5
1B
330
9
100
AcDbSymbolTableRecord
100
AcDbBlockTableRecord
  2
*Paper_Space
340
1E
 70
0
280
1
281
0
  0
ENDTAB
  0
ENDSEC
  0
SECTION
  2
BLOCKS
  0
BLOCK
  5
18
330
17
100
AcDbEntity
  8
0
100
AcDbBlockBegin
  2
*Model_Space
 70
0
 10
0.0
 20
0.0
 30
0.0
  3
*Model_Space
  1

  0
ENDBLK
  5
19
330
17
100
AcDbEntity
  8
0
100
AcDbBlockEnd
  0
BLOCK
  5
1C
330
1B
100
AcDbEntity
  8
0
100
AcDbBlockBegin
  2
*Paper_Space
 70
0
 10
0.0
 20
0.0
 30
0.0
  3
*Paper_Space
  1

  0
ENDBLK
  5
1D
330
1B
100
AcDbEntity
  8
0
100
AcDbBlockEnd
  0
ENDSEC
  0
SECTION
  2
ENTITIES
  0
LWPOLYLINE
  5
2F
330
17
100
AcDbEntity
  8
0
100
AcDbPolyline
 90
721
 70
1
 10
54.43157020268769
 20
5.517491578837426
 10
54.4299717317905
 20
5.517894010037552
 10
54.42519229727223
 20
5.518938608924731
 10
54.41726379961162
 20
5.520300554935185
 10
54.40608911426153
 20
5.522133342685239
 10
54.39185453315412
 20
5.52421100523449
 10
54.37447090486658
 20
5.526605852374838
 10
54.35386500826281
 20
5.529227986781524
 10
54.33019922388279
 20
5.532094914721315
 10
54.303400330590435
 20
5.535116738869454
 10
54.273371179895186
 20
5.538447197640532
 10
54.24029011454812
 20
5.541941265120294
 10
54.204075924326496
 20
5.5455903913405855
 10
54.164720628124755
 20
5.549475842391915
 10
54.12224018815395
 20
5.553435086093261
 10
54.07661862624084
 20
5.5576308171578255
 10
54.02794511775151
 20
5.561990481995441
 10
53.97613845246315
 20
5.5665055306379445
 10
53.92119064927029
 20
5.571257229175848
 10
53.86319884868229
 20
5.5760919204606525
 10
53.80206588624644
 20
5.581163505439128
 10
53.737807716192705
 20
5.586309533196345
 10
53.67057074886892
 20
5.591710123446184
 10
53.60011938259895
 20
5.597257872597117
 10
53.52669717622114
 20
5.602979161948433
 10
53.450141741214374
 20
5.608856566499454
 10
53.370534247895904
 20
5.614899042548789
 10
53.287874688284624
 20
5.621106671362531
 10
53.20215507329391
 20
5.627560800297282
 10
53.113375378980415
 20
5.634261673151308
 10
53.021551559574114
 20
5.641046839009686
 10
52.92666764488284
 20
5.648078911319521
 10
52.82881277834827
 20
5.655285661555008
 10
52.7278977846043
 20
5.662739643306318
 10
52.62393859393756
 20
5.6702786494567885
 10
52.51700043839757
 20
5.6780739246877845
 10
52.40707531293548
 20
5.686206978888086
 10
52.29418714490567
 20
5.6944341763183415
 10
52.17823875389318
 20
5.702909580457507
 10
52.0594005015436
 20
5.711569431481838
 10
51.937501994286926
 20
5.72047781427944
 10
51.81270560468207
 20
5.729652316383172
 10
51.68493011452519
 20
5.739084469090969
 10
51.55425670211459
 20
5.748783147435346
 10
51.42061213035195
 20
5.7586586166237295
 10
51.284077577535605
 20
5.768719751688636
 10
51.14455586325064
 20
5.779120616109023
 10
51.002217341161476
 20
5.7897975313272365
 10
50.856980793064245
 20
5.800742028641211
 10
50.70884620299673
 20
5.811954270583127
 10
50.557813531053405
 20
5.823434663483434
 10
50.40395599038931
 20
5.835273185932988
 10
50.24720032794389
 20
5.847380265671387
 10
50.087619748891036
 20
5.859845962555573
 10
49.9252221944308
 20
5.872589416825489
 10
49.76002361879309
 20
5.885448177566201
 10
49.59208922210301
 20
5.8985938145234345
 10
49.42132183192674
 20
5.912180309910053
 10
49.247721408358736
 20
5.926208070056509
 10
49.07139308099505
 20
5.940442090457698
 10
48.89232883680571
 20
5.9549639622684944
 10
48.710528659828526
 20
5.969773848021081
 10
48.525968566841385
 20
5.98511595231744
 10
48.33868843942861
 20
6.00058418850329
 10
48.14875349367746
 20
6.0163499637921705
 10
47.95615572453915
 20
6.03249478807287
 10
47.760805924723144
 20
6.049091539999918
 10
47.56287443991275
 20
6.066076622281754
 10
47.36228802502856
 20
6.08336038139189
 10
47.15904666410831
 20
6.100942979862507
 10
46.95321555727715
 20
6.118995987439332
 10
46.7448265970327
 20
6.137194664824678
 10
46.53378261094116
 20
6.15569299423141
 10
46.320237974493715
 20
6.174589991815082
 10
46.10419266374702
 20
6.193885901373963
 10
45.88558142270829
 20
6.2134097220249656
 10
45.664396230366435
 20
6.233243126189052
 10
45.44079945928039
 20
6.2534037013990815
 10
45.21469392105411
 20
6.2740455924001
 10
44.98610353506087
 20
6.294925244718847
 10
44.75510947161788
 20
6.31605161465393
 10
44.521711706781836
 20
6.337424946003626
 10
44.2858942384362
 20
6.359208177279404
 10
44.0476570426376
 20
6.381401552279539
 10
43.807008076548286
 20
6.40392404871179
 10
43.56411769383266
 20
6.426711988018507
 10
43.31881547697747
 20
6.449829698886065
 10
43.07118260428104
 20
6.473286056346984
 10
42.82132419735832
 20
6.496846137162253
 10
42.569151032956576
 20
6.520582982518582
 10
42.31472034605759
 20
6.544749265720033
 10
42.058113314959705
 20
6.569353861799118
 10
41.79918345748512
 20
6.594217382436775
 10
41.53811710547153
 20
6.61911345436215
 10
41.27488230257241
 20
6.644367467001645
 10
41.00948700594995
 20
6.669898398063024
 10
40.74192320257424
 20
6.6957878387011585
 10
40.47228802497355
 20
6.7218822130336395
 10
40.2005814571857
 20
6.748181683592647
 10
39.926722257063425
 20
6.774678025474382
 10
39.650864824041285
 20
6.8014700110361295
 10
39.37292793193427
 20
6.828549252841909
 10
39.0930087212518
 20
6.855762093743222
 10
38.811107160069426
 20
6.883108858804428
 10
38.52730443466661
 20
6.910598341791956
 10
38.24151132179064
 20
6.938303583892525
 10
37.95379304550991
 20
6.966395911053581
 10
37.66409229901274
 20
6.994623381365893
 10
37.37264472388075
 20
7.023092992090531
 10
37.07931979216612
 20
7.0514629039935
 10
36.78410948285777
 20
7.079814789495763
 10
36.48715225712247
 20
7.108409709337348
 10
36.188440101930276
 20
7.137329254673133
 10
35.8878345162089
 20
7.166312771093535
 10
35.585676287098266
 20
7.195232088822351
 10
35.28172973311118
 20
7.223980616928954
 10
34.97613329945215
 20
7.252819578685557
 10
34.6687977708496
 20
7.281821934012783
 10
34.35989353289237
 20
7.3109236792886225
 10
34.049363294730945
 20
7.339872710071651
 10
33.73727228043375
 20
7.3688403523093235
 10
33.423604495865284
 20
7.397989463247023
 10
33.108399830590976
 20
7.426913874964376
 10
32.79166624177304
 20
7.455532565169144
 10
32.47352622836717
 20
7.484269126782378
 10
32.15382531910895
 20
7.513025518841614
 10
31.832717937376152
 20
7.541900269905859
 10
31.510251953839752
 20
7.570405945964232
 10
31.18641936345088
 20
7.598624056905509
 10
30.86120418803629
 20
7.6267172974429
 10
30.53458244437386
 20
7.654929872178385
 10
30.206748493293478
 20
7.682953654154062
 10
29.87757178290395
 20
7.710447047934198
 10
29.547272024500312
 20
7.737679257896533
 10
29.21564683624168
 20
7.7650400834199385
 10
28.882809360754024
 20
7.792212928844436
 10
28.54879148255391
 20
7.818873136138437
 10
28.213739683819167
 20
7.845200093621009
 10
27.877483507130968
 20
7.871258536308977
 10
27.540177399810442
 20
7.897146748963083
 10
27.201748100815927
 20
7.922775240589014
 10
26.862292782581246
 20
7.94799002897391
 10
26.521892655329165
 20
7.972799664085931
 10
26.18046646893138
 20
7.997196002287368
 10
25.838176667776764
 20
8.021195899716266
 10
25.49486077555202
 20
8.044782825298945
 10
25.150665258472774
 20
8.068136329886652
 10
24.805598105625624
 20
8.091175066122785
 10
24.459699190613783
 20
8.113493028619152
 10
24.112952535264007
 20
8.135252912088955
 10
23.76551261084072
 20
8.156552757494662
 10
23.41720895992512
 20
8.177457299853096
 10
23.068219989117107
 20
8.197820863121287
 10
22.718553671541127
 20
8.217562262474809
 10
22.36821798032158
 20
8.236600313089244
 10
22.017196921322988
 20
8.255097872209978
 10
21.665563755587044
 20
8.273144430831312
 10
21.3133184591704
 20
8.290740232751526
 10
20.960566201574643
 20
8.30764986713506
 10
20.60723372175809
 20
8.323783842987606
 10
20.253410219030147
 20
8.339069362920725
 10
19.899152984240327
 20
8.353758531375831
 10
19.544356823943748
 20
8.368087002986757
 10
19.189200168683655
 20
8.38190885791225
 10
18.833665625157032
 20
8.394565742524431
 10
18.477705282787436
 20
8.406545497164633
 10
18.121473652744818
 20
8.417945756464869
 10
17.76490543114973
 20
8.428596007138598
 10
17.408008607088792
 20
8.438414901829214
 10
17.050921697596507
 20
8.447662932414115
 10
16.69357145759341
 20
8.45625044536681
 10
16.336063048599957
 20
8.463942111117841
 10
15.978315228468956
 20
8.470729704763404
 10
15.620482508370383
 20
8.476710860935519
 10
15.262556891236489
 20
8.481967008256873
 10
14.904562328364968
 20
8.486254267189846
 10
14.546490822688062
 20
8.489654066357128
 10
14.188415643228579
 20
8.492255815486935
 10
13.830231604522718
 20
8.494295087947007
 10
13.472149077498035
 20
8.49530073700187
 10
13.114168062154521
 20
8.495272762651524
 10
12.756280585367762
 20
8.494292349720387
 10
12.398478650070027
 20
8.492440926831154
 10
12.040851503457342
 20
8.489645208998835
 10
11.683309914295887
 20
8.485978318676244
 10
11.32602435596668
 20
8.48137535831436
 10
10.969010798661877
 20
8.475673714466081
 10
10.612261261275961
 20
8.468954653221912
 10
10.255767770684496
 20
8.46129935940628
 10
9.899538307993023
 20
8.452626566928664
 10
9.543751351631387
 20
8.442789868351282
 10
9.188309681279152
 20
8.43194373348354
 10
8.83327860081576
 20
8.420258675611977
 10
8.478616765640547
 20
8.40732022064634
 10
8.12447072178017
 20
8.39330710677697
 10
7.770816549861358
 20
8.378462888477127
 10
7.417596927110193
 20
8.362535786369754
 10
7.064990347918734
 20
8.345379230484882
 10
6.712980858057045
 20
8.32715567173744
 10
6.361503161626755
 20
8.30769451557479
 10
6.010703828597856
 20
8.287174256389003
 10
5.660517571053085
 20
8.265424218361353
 10
5.3110989320868365
 20
8.242541711059493
 10
4.9622614681259405
 20
8.218754245479541
 10
4.614183673562463
 20
8.193915251651527
 10
4.2668974728185045
 20
8.167699665213405
 10
3.920394908731855
 20
8.140188508457417
 10
3.574733296095357
 20
8.111633642026709
 10
3.2299206479389455
 20
8.08195347476641
 10
2.885964953349251
 20
8.051066659319915
 10
2.542947486397898
 20
8.018981095526668
 10
2.200771026764423
 20
7.9858512531960635
 10
1.8595009102527091
 20
7.951847320550293
 10
1.5192503273753748
 20
7.916652214332836
 10
1.1800352563056806
 20
7.88010323983049
 10
0.841839758775883
 20
7.842362685426006
 10
0.5047378540326861
 20
7.8035123218350915
 10
0.16864956892466731
 20
7.7635310028455615
 10
-0.16635178761986086
 20
7.722507731855178
 10
-0.5001929306159263
 20
7.680531756059977
 10
-0.8329232017319294
 20
7.63727002999239
 10
-1.1644613348773625
 20
7.592730534757944
 10
-1.4947659694893405
 20
7.547327581914716
 10
-1.8239024094473208
 20
7.50089065817616
 10
-2.1517001414647634
 20
7.453354459662816
 10
-2.478321697722686
 20
7.404703024163633
 10
-2.803604546040061
 20
7.354952313889663
 10
-3.1274833825374384
 20
7.3042728421274505
 10
-3.4501287205013567
 20
7.252729912756458
 10
-3.771419388313687
 20
7.199925176429655
 10
-4.091240740426552
 20
7.146362191901157
 10
-4.409690005141509
 20
7.092195510246463
 10
-4.726800561915933
 20
7.03692955381698
 10
-5.042328612478276
 20
6.980588265929284
 10
-5.356379366235633
 20
6.923407463749383
 10
-5.668960804293527
 20
6.865468413367787
 10
-5.980056964440906
 20
6.8066085826034755
 10
-6.289513295602271
 20
6.7469251997580075
 10
-6.59749232995865
 20
6.686402302620337
 10
-6.903855478645595
 20
6.625299651673043
 10
-7.2085867794520535
 20
6.563454714735105
 10
-7.5116782512725
 20
6.500786225716013
 10
-7.813137875212463
 20
6.437375450706276
 10
-8.112900347392479
 20
6.373392902992443
 10
-8.411046933903057
 20
6.308830601468989
 10
-8.70739914035213
 20
6.2435419761659405
 10
-9.001956966739698
 20
6.177527027083298
 10
-9.294793698050738
 20
6.1106965070250245
 10
-9.585836049300273
 20
6.0431396631871594
 10
-9.875107963804878
 20
5.975100293841233
 10
-10.162536156579561
 20
5.906667646183282
 10
-10.44808870320223
 20
5.837516655851262
 10
-10.731846869763388
 20
5.767639341739649
 10
-11.01355887688598
 20
5.696978381074506
 10
-11.293411200067604
 20
5.625761609916317
 10
-11.571411820413784
 20
5.554070294355593
 10
-11.847398205743499
 20
5.4819203966033845
 10
-12.121362374951227
 20
5.409230650569177
 10
-12.393361650810895
 20
5.335749276875917
 10
-12.6633466916541
 20
5.261809320991171
 10
-12.931341440797416
 20
5.187654581186473
 10
-13.197224726622705
 20
5.112886708114793
 10
-13.461077815220476
 20
5.037497720670605
 10
-13.72275413662076
 20
4.9616661132459825
 10
-13.982334956914071
 20
4.8853839047354
 10
-14.23982825720593
 20
4.808732361229369
 10
-14.49512882808925
 20
4.73147566556188
 10
-14.748252631775083
 20
4.653776349913955
 10
-14.999199668263428
 20
4.575634414285598
 10
-15.248001861976384
 20
4.497374923038846
 10
-15.49448869962741
 20
4.418932572294246
 10
-15.73879877008095
 20
4.340047601569208
 10
-15.980834845035437
 20
4.26056545978824
 10
-16.220547582822466
 20
4.18081919241891
 10
-16.458034211743595
 20
4.100963350536712
 10
-16.69318154128622
 20
4.020680850885129
 10
-16.925924267570874
 20
3.94014220675071
 10
-17.1564329038841
 20
3.859412722012913
 10
-17.38454491804488
 20
3.778508358882791
 10
-17.610236366736647
 20
3.6971853190888075
 10
-17.833531193275967
 20
3.6156874009024986
 10
-18.054437378768363
 20
3.5340958704143723
 10
-18.272946942108316
 20
3.4523294615339215
 10
-18.488978617205316
 20
3.370396155366669
 10
-18.702524422953825
 20
3.288214685822103
 10
-18.9136736065499
 20
3.205858337885212
 10
-19.122263635812505
 20
3.1233430737670425
 10
-19.328310472952694
 20
3.0408314256486197
 10
-19.531960687940433
 20
2.9581448991378707
 10
-19.732970482504196
 20
2.875307437551369
 10
-19.93141314162897
 20
2.7922297936930813
 10
-20.127320589736847
 20
2.7092370319250496
 10
-20.320692826827838
 20
2.626329152247274
 10
-20.511432624600367
 20
2.543351603584259
 10
-20.699532001948928
 20
2.4602231198454936
 10
-20.88506424385849
 20
2.3768544538349397
 10
-21.06790672367567
 20
2.2936678982162033
 10
-21.248132726385442
 20
2.210574205793249
 10
-21.42572628977676
 20
2.127410844385055
 10
-21.60060614775912
 20
2.044185795097145
 10
-21.772788262543557
 20
1.9610615901105435
 10
-21.942256671919036
 20
1.8778756972442248
 10
-22.10901935699108
 20
1.7947093825887037
 10
-22.273084298865207
 20
1.7116439122344884
 10
-22.43435426923985
 20
1.628524735106084
 10
-22.592853211431603
 20
1.5455956494750225
 10
-22.748630467108867
 20
1.4625236098737346
 10
-22.90163669460323
 20
1.37964166176979
 10
-23.051863912809168
 20
1.2968685390726769
 10
-23.19930414062115
 20
1.2141229756918845
 10
-23.343876111948678
 20
1.1314129527329393
 10
-23.485669073987783
 20
1.048811755180825
 10
-23.624625703964526
 20
0.9665711624126015
 10
-23.760730039667855
 20
0.8845286422472463
 10
-23.893982081097775
 20
0.8026841946847594
 10
-24.024471075450318
 20
0.7211111047101261
 10
-24.152026509438944
 20
0.6397440684438861
 10
-24.276745611365207
 20
0.5587376369615364
 10
-24.398563077349653
 20
0.47826232354962406
 10
-24.517560173482785
 20
0.39831014710262413
 10
-24.63363967146304
 20
0.31872655654503923
 10
-24.746890818486467
 20
0.23958483686185522
 10
-24.857151082372035
 20
0.1609009502641238
 10
-24.964598957511818
 20
0.08282146672181474
 10
-25.06907989283032
 20
0.005443614536489989
 10
-25.170659192206994
 20
-0.07140311957839664
 10
-25.269336855641857
 20
-0.14771873562284601
 10
-25.365112883134895
 20
-0.22350323359685897
 10
-25.457921970806648
 20
-0.2985861002138868
 10
-25.54776411865712
 20
-0.3729673354739299
 10
-25.63469664946025
 20
-0.4468987187540473
 10
-25.71866224044209
 20
-0.5201284706771795
 10
-25.799628967180553
 20
-0.5929816556053723
 10
-25.87762875409773
 20
-0.6651332091765795
 10
-25.952629676771526
 20
-0.7369081957528466
 10
-26.024647697413
 20
-0.8081440831531514
 10
-26.09368281602213
 20
-0.8788408713774937
 10
-26.15964578540289
 20
-0.9490718454108593
 10
-26.222715099947365
 20
-1.0186904352832764
 10
-26.282623018067422
 20
-1.087916495949703
 10
-26.33962930024567
 20
-1.1566114385456925
 10
-26.393563433195546
 20
-1.224840566950705
 10
-26.444449360233627
 20
-1.2923600828932083
 10
-26.492352385239375
 20
-1.359340499659749
 10
-26.537199223227805
 20
-1.4256925700542908
 10
-26.579021798621017
 20
-1.49109122971479
 10
-26.617877434192952
 20
-1.555788258018305
 10
-26.653700826064135
 20
-1.6196131416782884
 10
-26.686507936445633
 20
-1.6824033485137175
 10
-26.716330689759538
 20
-1.7438338141625496
 10
-26.743169086005853
 20
-1.8039045386247834
 10
-26.76712035348613
 20
-1.8624609708249231
 10
-26.788061865546982
 20
-1.9190808180993622
 10
-26.80610681270102
 20
-1.9734469971915827
 10
-26.821416272094012
 20
-2.024754828301999
 10
-26.833883579283594
 20
-2.072419486585984
 10
-26.84371769804869
 20
-2.115148695700887
 10
-26.851127592168215
 20
-2.151650179304056
 10
-26.856142275993747
 20
-2.1799575890121767
 10
-26.859042543253924
 20
-2.1980472536679994
 10
-26.809579353562594
 20
-2.7175704791288817
 10
-26.807628261461105
 20
-2.721563408739966
 10
-26.80178296626216
 20
-2.7334609314827087
 10
-26.792075392387858
 20
-2.7529379829950655
 10
-26.77828859495376
 20
-2.781368105710198
 10
-26.760417502924867
 20
-2.820473849739889
 10
-26.738795867697974
 20
-2.8660213972720396
 10
-26.71358983745384
 20
-2.915483518395283
 10
-26.68506569874532
 20
-2.967819716144027
 10
-26.65330978869793
 20
-3.021315421512015
 10
-26.618312671170884
 20
-3.075231258579122
 10
-26.58027678387283
 20
-3.1291768591038442
 10
-26.539152785135354
 20
-3.182819177618611
 10
-26.494972599380564
 20
-3.23583314976138
 10
-26.447752188819507
 20
-3.288056243351128
 10
-26.397491553452177
 20
-3.3394884583878555
 10
-26.34427994047462
 20
-3.3900565098865765
 10
-26.28805204600737
 20
-3.4395898845607435
 10
-26.228799888944902
 20
-3.488169848500868
 10
-26.16661271648325
 20
-3.535723116721964
 10
-26.101393300320854
 20
-3.582404240299528
 10
-26.033149621563243
 20
-3.62813195314305
 10
-25.962060174602488
 20
-3.672759685282557
 10
-25.887857217850478
 20
-3.716507291673008
 10
-25.810792530684274
 20
-3.7593174495404655
 10
-25.730695599817327
 20
-3.801255462764392
 10
-25.647655672445666
 20
-3.8422480463598006
 10
-25.56168072967483
 20
-3.882213934236181
 10
-25.47274682818824
 20
-3.9213969246650655
 10
-25.380869930196937
 20
-3.9596344854654326
 10
-25.286018111278832
 20
-3.9972516809993266
 10
-25.188215314750494
 20
-4.0340047129952135
 10
-25.087526844491382
 20
-4.070064094739641
 10
-24.98387143441099
 20
-4.1054218451270845
 10
-24.877233122298264
 20
-4.140240496338564
 10
-24.767701155349243
 20
-4.174446763389097
 10
-24.655267552458405
 20
-4.208121912369193
 10
-24.53993231362574
 20
-4.24126594327885
 10
-24.421590229444167
 20
-4.274114673284078
 10
-24.300411813200242
 20
-4.306602798505418
 10
-24.17624251381845
 20
-4.338633090641303
 10
-24.049244863479828
 20
-4.3702215119027885
 10
-23.91932163388281
 20
-4.40152261336537
 10
-23.7865540911179
 20
-4.432544376134572
 10
-23.65086895020012
 20
-4.463197553014359
 10
-23.512363439431034
 20
-4.493327592929233
 10
-23.3709483116146
 20
-4.523007780864181
 10
-23.22677811782632
 20
-4.552335345120765
 10
-23.079771591975675
 20
-4.581302304593457
 10
-22.92992873406267
 20
-4.60990865928226
 10
-22.777273487403882
 20
-4.63791061091564
 10
-22.621887118089816
 20
-4.66531614059912
 10
-22.46368836002997
 20
-4.692117267227179
 10
-22.3027425171038
 20
-4.71848450408636
 10
-22.1390495893113
 20
-4.744417851176666
 10
-21.97264150107458
 20
-4.769592244136052
 10
-21.803583556273093
 20
-4.794178196251065
 10
-21.631802469921865
 20
-4.818086460325669
 10
-21.457290260915357
 20
-4.841398302450374
 10
-21.280128195344084
 20
-4.8641217037307065
 10
-21.100324254313573
 20
-4.886175398076155
 10
-20.917870456718305
 20
-4.907640651577231
 10
-20.73276680255827
 20
-4.928517464233932
 10
-20.545021272939
 20
-4.948724569955751
 10
-20.354707152845474
 20
-4.968351215938722
 10
-20.161824442277695
 20
-4.987397402182845
 10
-19.966299856250686
 20
-5.0057738814920825
 10
-19.768279964734404
 20
-5.02365914825851
 10
-19.567691482743875
 20
-5.040963955286089
 10
-19.364526429173562
 20
-5.05776956866533
 10
-19.15887405121951
 20
-5.07400270341125
 10
-18.950758292198294
 20
-5.089419561252313
 10
-18.74015520879334
 20
-5.104263940460054
 10
-18.526967572703082
 20
-5.118690392109969
 10
-18.311447163304575
 20
-5.132641593428123
 10
-18.093447410627853
 20
-5.1459390500224425
 10
-17.872976295778443
 20
-5.158501495802417
 10
-17.650180388726316
 20
-5.170507425160119
 10
-17.424970442275434
 20
-5.182030123080535
 10
-17.197362418636846
 20
-5.192907057382642
 10
-16.967437583901063
 20
-5.203146209171966
 10
-16.735203919173607
 20
-5.212666312357994
 10
-16.50063748113791
 20
-5.221711165212262
 10
-16.26375423200502
 20
-5.230118235553745
 10
-16.024538209563893
 20
-5.238050055563468
 10
-15.783175889312107
 20
-5.245278789180946
 10
-15.539496757963132
 20
-5.25186974028564
 10
-15.293582081607473
 20
-5.257830889983076
 10
-15.04550514523012
 20
-5.26325148546929
 10
-14.79520064495161
 20
-5.267961013457734
 10
-14.5427338846514
 20
-5.272129987234956
 10
-14.288194111525527
 20
-5.27568512181597
 10
-14.031434755604028
 20
-5.278447922808703
 10
-13.772618349067914
 20
-5.280434352424208
 10
-13.511720948600615
 20
-5.281888208934013
 10
-13.248742554202131
 20
-5.282809492338121
 10
-12.98368316587246
 20
-5.283198202636533
 10
-12.716647993018686
 20
-5.28281852266324
 10
-12.447652997851867
 20
-5.281507920237219
 10
-12.176584989859387
 20
-5.279583478614991
 10
-11.903606501222269
 20
-5.277061160007604
 10
-11.628652228061048
 20
-5.273770451128512
 10
-11.351819398677291
 20
-5.269556800902219
 10
-11.07308406975442
 20
-5.264664007600255
 10
-10.792511545171894
 20
-5.25926258450917
 10
-10.510036521050257
 20
-5.253182018342417
 10
-10.225682940706083
 20
-5.246178510828462
 10
-9.93959737410934
 20
-5.2384305563593765
 10
-9.651771840154506
 20
-5.230019421025672
 10
-9.362043806660559
 20
-5.220929142616299
 10
-9.070665053004554
 20
-5.211102398357322
 10
-8.777570275307037
 20
-5.200368674962192
 10
-8.482759473567999
 20
-5.188727972430911
 10
-8.186305932772433
 20
-5.176269537959515
 10
-7.888169747392713
 20
-5.163399702000556
 10
-7.588456126835918
 20
-5.149882647388032
 10
-7.287115729433646
 20
-5.135385328654367
 10
-6.98414057408037
 20
-5.119989011890078
 10
-6.679693192957108
 20
-5.103709659306211
 10
-6.373660395551252
 20
-5.086864354159287
 10
-6.066139410164365
 20
-5.069298545373808
 10
-5.757130236796442
 20
-5.051012232949775
 10
-5.446648837658534
 20
-5.031842884706166
 10
-5.134687231645122
 20
-5.011871766733492
 10
-4.821391988726174
 20
-4.9912773734238245
 10
-4.506616538931715
 20
-4.96988121038509
 10
-4.19053937665382
 20
-4.947536707647321
 10
-3.8731525207869613
 20
-4.924325131301024
 10
-3.554447990225621
 20
-4.9003277474367115
 10
-3.2343524999848032
 20
-4.875455308858348
 10
-2.913125810547105
 20
-4.8495692267014885
 10
-2.590694636927526
 20
-4.822580253770093
 10
-2.2669298264024085
 20
-4.794968005501704
 10
-1.9420018922583058
 20
-4.766667178016863
 10
-1.6160399872188727
 20
-4.737198155878025
 10
-1.2888576357865191
 20
-4.706788775145677
 10
-0.9605281229462209
 20
-4.6755282830158515
 10
-0.6312299430900559
 20
-4.6432701095185775
 10
-0.3008085451425314
 20
-4.6099170263522975
 10
0.030573538715337814
 20
-4.575484995728057
 10
0.3630294989961597
 20
-4.540291100902377
 10
0.6964621073983732
 20
-4.504180790799759
 10
1.0307501923038456
 20
-4.466755716073177
 10
1.365998963119652
 20
-4.428251693888633
 10
1.702159078177397
 20
-4.389001769713702
 10
2.0391253520133
 20
-4.3487703701806435
 10
2.3769723625514487
 20
-4.307481413200087
 10
2.715635540174081
 20
-4.2653128885389044
 10
3.055082984402423
 20
-4.221939975633324
 10
3.395314711198685
 20
-4.177362837015527
 10
3.7362813788944518
 20
-4.131914518153082
 10
4.0779097344291575
 20
-4.08568459130639
 10
4.420273070768903
 20
-4.038583890545501
 10
4.763266186487697
 20
-3.990376679970501
 10
5.106905051777699
 20
-3.941225573028501
 10
5.451189698563339
 20
-3.891130894783862
 10
5.796038852772992
 20
-3.8401005450760204
 10
6.141428595033397
 20
-3.787890969431714
 10
6.4873748875556085
 20
-3.734664700031966
 10
6.833747122580708
 20
-3.6807627634498696
 10
7.180699883108608
 20
-3.6260882564482237
 10
7.528046685660608
 20
-3.5704132617004594
 10
7.875876793394963
 20
-3.5138112267237385
 10
8.224027674130634
 20
-3.456298113729116
 10
8.572588583044777
 20
-3.397947288967667
 10
8.921551547012964
 20
-3.338677567614969
 10
9.270762014959711
 20
-3.2785861779725836
 10
9.620317215186562
 20
-3.2178276711160096
 10
9.970209190531321
 20
-3.156321024753007
 10
10.320267403764122
 20
-3.094000691205842
 10
10.6705811180432
 20
-3.030940117991682
 10
11.021085029489118
 20
-2.9673098183970756
 10
11.371828487751365
 20
-2.9027768282205435
 10
11.722664906897782
 20
-2.8375194793219753
 10
12.073610249139401
 20
-2.771700303882396
 10
12.424656541351816
 20
-2.7052381170773825
 10
12.77578782132397
 20
-2.6379703867259137
 10
13.12702005924802
 20
-2.5700597262751024
 10
13.478206645248463
 20
-2.501684223786568
 10
13.829412899166973
 20
-2.432673528505945
 10
14.180581498229621
 20
-2.3632794198102904
 10
14.53168848315762
 20
-2.29325793689589
 10
14.882725880826532
 20
-2.2225278949383256
 10
15.23370965344743
 20
-2.1512518261186164
 10
15.584501164269213
 20
-2.0796890033228057
 10
15.935181703325737
 20
-2.0078316892436363
 10
16.285646045247674
 20
-1.9354439041829221
 10
16.63590215517836
 20
-1.8626067516989917
 10
16.985950041098892
 20
-1.7893203130579363
 10
17.335797668152587
 20
-1.7156656918180848
 10
17.685274483147367
 20
-1.6415771777695243
 10
18.03446975722259
 20
-1.5671282996955134
 10
18.383310157506617
 20
-1.4924078171955442
 10
18.731892952206564
 20
-1.4175706876755667
 10
19.080023612889338
 20
-1.3423070775897727
 10
19.42771012864159
 20
-1.2666983342947615
 10
19.775073671081437
 20
-1.1911428071375652
 10
20.121903781489195
 20
-1.1151684554557146
 10
20.46819245481601
 20
-1.0386937693604281
 10
20.81406886772887
 20
-0.9621986080875169
 10
21.159386386408947
 20
-0.8858608159003298
 10
21.50417840627582
 20
-0.8091849776824575
 10
21.84837161042008
 20
-0.7322600155655719
 10
22.191884684864586
 20
-0.6550934230586575
 10
22.534814881854217
 20
-0.5778399950354804
 10
22.877088876498444
 20
-0.5005885723616263
 10
23.218714625959496
 20
-0.42342017732933285
 10
23.55959487799248
 20
-0.34618001506483403
 10
23.89971363846193
 20
-0.2687052283227433
 10
24.239094842703324
 20
-0.19123953410850392
 10
24.57773848273554
 20
-0.11378285115602577
 10
24.91548991969093
 20
-0.03643151383987446
 10
25.252511741618246
 20
0.04082987118836632
 10
25.58861739320886
 20
0.11822995265008626
 10
25.923814839606056
 20
0.19568762698695322
 10
26.25814395441304
 20
0.2727968888107745
 10
26.59159676450542
 20
0.3496389229459725
 10
26.923994671736725
 20
0.4263613558216935
 10
27.255508245261254
 20
0.502898314695844
 10
27.585966884000293
 20
0.5793159973748804
 10
27.915451870006564
 20
0.6556222224321464
 10
28.243897843532874
 20
0.7316470454437292
 10
28.571223482620972
 20
0.8073830541667366
 10
28.89752603951573
 20
0.8826754537274004
 10
29.222618934965173
 20
0.9577531366453799
 10
29.546664757018082
 20
1.0326314962690926
 10
29.86949290459573
 20
1.1073767304049937
 10
30.19115122442575
 20
1.1815016488404702
 10
30.511558402530998
 20
1.25499875806654
 10
30.830829140327072
 20
1.3283710479746853
 10
31.14871151477703
 20
1.4016773041284718
 10
31.46543196277384
 20
1.474282791152229
 10
31.78081987525766
 20
1.5462537881185012
 10
32.094843287900886
 20
1.6179157657197871
 10
32.40750218474128
 20
1.6892688864882657
 10
32.71880452294109
 20
1.7602321281317006
 10
33.0287901920657
 20
1.8303993227297142
 10
33.337280570025364
 20
1.8999183405097293
 10
33.64441432549558
 20
1.969048129293423
 10
33.95002879859764
 20
2.037774027127193
 10
34.25413992759927
 20
2.1059337456282896
 10
34.55676365874931
 20
2.1733649151478702
 10
34.857883997912296
 20
2.2402303929313208
 10
35.157419599186646
 20
2.3065230105340193
 10
35.45546772279837
 20
2.372087891816109
 10
35.751865708868735
 20
2.436910374823987
 10
36.04667091209609
 20
2.5012419138703477
 10
36.33972065663955
 20
2.5650680095337735
 10
36.631274838660474
 20
2.6282486914262764
 10
36.921024116574685
 20
2.6905919409274492
 10
37.20913111035539
 20
2.752112826321348
 10
37.49558780697263
 20
2.812892938762845
 10
37.78021558433663
 20
2.8730801484793584
 10
38.063022383647436
 20
2.9325935957108347
 10
38.34417879800259
 20
2.991367163916902
 10
38.62344883465182
 20
3.049297431544471
 10
38.90092973785885
 20
3.106229684985859
 10
39.17651621840556
 20
3.1624005540679825
 10
39.45028158522025
 20
3.2178990421886025
 10
39.72215247350687
 20
3.27263671481259
 10
39.99212885134103
 20
3.3266138970043087
 10
40.26015330815658
 20
3.379579703313693
 10
40.52628320663305
 20
3.4317855067873513
 10
40.79036384405387
 20
3.483135623179439
 10
41.05246054824186
 20
3.5338003219782332
 10
41.31259724655138
 20
3.5835359674443827
 10
41.570700558224175
 20
3.6322542875749377
 10
41.82674650801923
 20
3.6801994057057916
 10
42.080735071993246
 20
3.7273715656352158
 10
42.3326662182218
 20
3.7737710924275745
 10
42.58239323307503
 20
3.819220954480424
 10
42.830094698737135
 20
3.863573687896795
 10
43.075649355797864
 20
3.9072285359507166
 10
43.318983831480026
 20
3.950097145373143
 10
43.56017941581747
 20
3.9921872534713327
 10
43.79917071713857
 20
4.033329240885731
 10
44.03586840045514
 20
4.073597286528322
 10
44.27042711261594
 20
4.113087643507579
 10
44.50270810513441
 20
4.151542176662731
 10
44.73269539185616
 20
4.189123661973067
 10
44.96039692994344
 20
4.225751077146352
 10
45.18578873617413
 20
4.261668626784573
 10
45.408886748815945
 20
4.296714022504972
 10
45.629609606005125
 20
4.3308802583951165
 10
45.847965264903884
 20
4.364086312162766
 10
46.06402705040273
 20
4.396421024673503
 10
46.27762428959299
 20
4.427951325128598
 10
46.488756942569175
 20
4.458677619858506
 10
46.69751430441391
 20
4.4885261362816955
 10
46.90390436421385
 20
4.517415527041566
 10
47.10774065445249
 20
4.545573546932509
 10
47.30910375484528
 20
4.573015165943834
 10
47.50801838287604
 20
4.59948870299323
 10
47.70439490825563
 20
4.625071343838025
 10
47.89821735281083
 20
4.649925783191425
 10
48.089582984748695
 20
4.673897063647475
 10
48.27833708539053
 20
4.69688966349252
 10
48.46454499852135
 20
4.719073689682654
 10
48.64819871909226
 20
4.740530652106656
 10
48.82921689322062
 20
4.761253463586
 10
49.00761545917415
 20
4.781079835737933
 10
49.18338639594182
 20
4.800091440983422
 10
49.35651372535033
 20
4.818450974035667
 10
49.52700539658083
 20
4.836077493868519
 10
49.694796025942765
 20
4.8528012998563375
 10
49.859885573530626
 20
4.868622798329574
 10
50.02232343688056
 20
4.883874465893166
 10
50.1820362272532
 20
4.898468111810251
 10
50.339023936667466
 20
4.912403817346922
 10
50.49329450632332
 20
4.925600722743118
 10
50.64476659031923
 20
4.938051659554222
 10
50.79352148667011
 20
4.949764283821396
 10
50.93946189524444
 20
4.96089387801495
 10
51.082603738347764
 20
4.971278316284316
 10
51.2229310378068
 20
4.981080293342696
 10
51.36054106980976
 20
4.990144770518052
 10
51.49525518034246
 20
4.998619943102164
 10
51.62714670227651
 20
5.006594570694526
 10
51.75614226283477
 20
5.013980300026099
 10
51.8823311570999
 20
5.020703358515349
 10
52.00561600512935
 20
5.026919841293498
 10
52.12609404320576
 20
5.032475116018957
 10
52.2435791390191
 20
5.037593524310315
 10
52.358241295065156
 20
5.042214963317907
 10
52.46991805897394
 20
5.046322658169774
 10
52.57869074472262
 20
5.049924102374902
 10
52.68455933634898
 20
5.053019458465467
 10
52.78751582880418
 20
5.055690236330258
 10
52.88748686527327
 20
5.057847920168049
 10
52.98445645162078
 20
5.059655367224225
 10
53.07851390687272
 20
5.061038561118986
 10
53.16956988007866
 20
5.062071843296493
 10
53.25763234436303
 20
5.062674028932328
 10
53.342693310639184
 20
5.06292646538309
 10
53.42476073606934
 20
5.062748130356542
 10
53.50382663156688
 20
5.062220371209284
 10
53.57987502693963
 20
5.061505801388428
 10
53.652840522534866
 20
5.060434882800514
 10
53.72287781308799
 20
5.059103380957474
 10
53.78973487978878
 20
5.057571056615959
 10
53.853663717504126
 20
5.055778392817588
 10
53.91450163443092
 20
5.053711052673124
 10
53.97223266037699
 20
5.051531649629677
 10
54.026946106387214
 20
5.049166248573538
 10
54.07856061857894
 20
5.046607762326178
 10
54.1270602347411
 20
5.044018723068617
 10
54.172542239043004
 20
5.041244010862728
 10
54.21490933135314
 20
5.0384389081788195
 10
54.25416947681481
 20
5.035522311458562
 10
54.290306713216964
 20
5.032656752882979
 10
54.323329021665145
 20
5.029760966361558
 10
54.35330974301207
 20
5.026923630227701
 10
54.380086193435694
 20
5.0241303263260795
 10
54.403731737732095
 20
5.021469489191824
 10
54.42432770584059
 20
5.0189484498017345
 10
54.44171141393919
 20
5.016552790000481
 10
54.455948229756146
 20
5.014452372945887
 10
54.467127496260815
 20
5.012572938459879
 10
54.47507053549568
 20
5.0110629256325145
 10
54.47985073620009
 20
5.010010525200647
 10
54.48145211221968
 20
5.009578513143573
  0
ENDSEC
  0
SECTION
  2
OBJECTS
  0
DICTIONARY
  5
A
330
0
100
AcDbDictionary
280
0
281
1
  3
ACAD_COLOR
350
B
  3
ACAD_GROUP
350
C
  3
ACAD_LAYOUT
350
D
  3
ACAD_MATERIAL
350
E
  3
ACAD_MLEADERSTYLE
350
F
  3
ACAD_MLINESTYLE
350
10
  3
ACAD_PLOTSETTINGS
350
11
  3
ACAD_PLOTSTYLENAME
350
12
  3
ACAD_SCALELIST
350
14
  3
ACAD_TABLESTYLE
350
15
  3
ACAD_VISUALSTYLE
350
16
  3
EZDXF_META
350
2D
  0
DICTIONARY
  5
B
330
A
100
AcDbDictionary
280
0
281
1
  0
DICTIONARY
  5
C
330
A
100
AcDbDictionary
280
0
281
1
  0
DICTIONARY
  5
D
330
A
100
AcDbDictionary
280
0
281
1
  3
Model
350
1A
  3
Layout1
350
1E
  0
DICTIONARY
  5
E
330
A
100
AcDbDictionary
280
0
281
1
  3
ByBlock
350
1F
  3
ByLayer
350
20
  3
Global
350
21
  0
DICTIONARY
  5
F
330
A
100
AcDbDictionary
280
0
281
1
  3
Standard
350
2C
  0
DICTIONARY
  5
10
330
A
100
AcDbDictionary
280
0
281
1
  3
Standard
350
22
  0
DICTIONARY
  5
11
330
A
100
AcDbDictionary
280
0
281
1
  0
ACDBDICTIONARYWDFLT
  5
12
330
A
100
AcDbDictionary
280
0
281
1
  3
Normal
350
13
100
AcDbDictionaryWithDefault
340
13
  0
ACDBPLACEHOLDER
  5
13
330
12
  0
DICTIONARY
  5
14
330
A
100
AcDbDictionary
280
0
281
1
  0
DICTIONARY
  5
15
330
A
100
AcDbDictionary
280
0
281
1
  0
DICTIONARY
  5
16
330
A
100
AcDbDictionary
280
0
281
1
  0
LAYOUT
  5
1A
330
D
100
AcDbPlotSettings
  1

  4
A3
  6

 40
7.5
 41
20.0
 42
7.5
 43
20.0
 44
420.0
 45
297.0
 46
0.0
 47
0.0
 48
0.0
 49
0.0
140
0.0
141
0.0
142
1.0
143
1.0
 70
1024
 72
1
 73
0
 74
5
  7

 75
16
 76
0
 77
2
 78
300
147
1.0
148
0.0
149
0.0
100
AcDbLayout
  1
Model
 70
1
 71
0
 10
0.0
 20
0.0
 11
420.0
 21
297.0
 12
0.0
 22
0.0
 32
0.0
 14
1e+20
 24
1e+20
 34
1e+20
 15
-1e+20
 25
-1e+20
 35
-1e+20
146
0.0
 13
0.0
 23
0.0
 33
0.0
 16
1.0
 26
0.0
 36
0.0
 17
0.0
 27
1.0
 37
0.0
 76
1
330
17
  0
LAYOUT
  5
1E
330
D
100
AcDbPlotSettings
  1

  4
A3
  6

 40
7.5
 41
20.0
 42
7.5
 43
20.0
 44
420.0
 45
297.0
 46
0.0
 47
0.0
 48
0.0
 49
0.0
140
0.0
141
0.0
142
1.0
143
1.0
 70
0
 72
1
 73
0
 74
5
  7

 75
16
 76
0
 77
2
 78
300
147
1.0
148
0.0
149
0.0
100
AcDbLayout
  1
Layout1
 70
1
 71
1
 10
0.0
 20
0.0
 11
420.0
 21
297.0
 12
0.0
 22
0.0
 32
0.0
 14
1e+20
 24
1e+20
 34
1e+20
 15
-1e+20
 25
-1e+20
 35
-1e+20
146
0.0
 13
0.0
 23
0.0
 33
0.0
 16
1.0
 26
0.0
 36
0.0
 17
0.0
 27
1.0
 37
0.0
 76
1
330
1B
  0
MATERIAL
  5
1F
102
{ACAD_REACTORS
330
E
102
}
330
E
100
AcDbMaterial
  1
ByBlock
  2

 70
0
 40
1.0
 71
1
 41
1.0
 91
-1023410177
 42
1.0
 72
1
  3

 73
1
 74
1
 75
1
 44
0.5
 73
0
 45
1.0
 46
1.0
 77
1
  4

 78
1
 79
1
170
1
 48
1.0
171
1
  6

172
1
173
1
174
1
140
1.0
141
1.0
175
1
  7

176
1
177
1
178
1
143
1.0
179
1
  8

270
1
271
1
272
1
145
1.0
146
1.0
273
1
  9

274
1
275
1
276
1
 42
1.0
 72
1
  3

 73
1
 74
1
 75
1
 94
63
  0
MATERIAL
  5
20
102
{ACAD_REACTORS
330
E
102
}
330
E
100
AcDbMaterial
  1
ByLayer
  2

 70
0
 40
1.0
 71
1
 41
1.0
 91
-1023410177
 42
1.0
 72
1
  3

 73
1
 74
1
 75
1
 44
0.5
 73
0
 45
1.0
 46
1.0
 77
1
  4

 78
1
 79
1
170
1
 48
1.0
171
1
  6

172
1
173
1
174
1
140
1.0
141
1.0
175
1
  7

176
1
177
1
178
1
143
1.0
179
1
  8

270
1
271
1
272
1
145
1.0
146
1.0
273
1
  9

274
1
275
1
276
1
 42
1.0
 72
1
  3

 73
1
 74
1
 75
1
 94
63
  0
MATERIAL
  5
21
102
{ACAD_REACTORS
330
E
102
}
330
E
100
AcDbMaterial
  1
Global
  2

 70
0
 40
1.0
 71
1
 41
1.0
 91
-1023410177
 42
1.0
 72
1
  3

 73
1
 74
1
 75
1
 44
0.5
 73
0
 45
1.0
 46
1.0
 77
1
  4

 78
1
 79
1
170
1
 48
1.0
171
1
  6

172
1
173
1
174
1
140
1.0
141
1.0
175
1
  7

176
1
177
1
178
1
143
1.0
179
1
  8

270
1
271
1
272
1
145
1.0
146
1.0
273
1
  9

274
1
275
1
276
1
 42
1.0
 72
1
  3

 73
1
 74
1
 75
1
 94
63
  0
MLINESTYLE
  5
22
102
{ACAD_REACTORS
330
10
102
}
330
10
100
AcDbMlineStyle
  2
Standard
 70
0
  3

 62
256
 51
90.0
 52
90.0
 71
2
 49
0.5
 62
256
  6
BYLAYER
 49
-0.5
 62
256
  6
BYLAYER
  0
MLEADERSTYLE
  5
2C
102
{ACAD_REACTORS
330
F
102
}
330
F
100
AcDbMLeaderStyle
179
2
170
2
171
1
172
0
 90
2
 40
0.0
 41
0.0
173
1
 91
-1056964608
 92
-2
290
1
 42
2.0
291
1
 43
8.0
  3
Standard
 44
4.0
300

342
29
174
1
175
1
176
0
178
1
 93
-1056964608
 45
4.0
292
0
297
0
 46
4.0
 94
-1056964608
 47
1.0
 49
1.0
140
1.0
294
1
141
0.0
177
0
142
1.0
295
0
296
0
143
3.75
271
0
272
9
273
9
  0
DICTIONARY
  5
2D
330
A
100
AcDbDictionary
280
1
281
1
  3
CREATED_BY_EZDXF
350
2E
  3
WRITTEN_BY_EZDXF
350
32
  0
DICTIONARYVAR
  5
2E
330
2D
100
DictionaryVariables
280
0
  1
1.3.5 @ 2025-08-20T01:28:29.848299+00:00
  0
DICTIONARYVAR
  5
32
330
2D
100
DictionaryVariables
280
0
  1
1.3.5 @ 2025-08-20T01:28:29.848299+00:00
  0
ENDSEC
  0
EOF
