  0
SECTION
  2
HEADER
  9
$ACADVER
  1
AC1032
  9
$ACADMAINTVER
 90
4
  9
$DWGCODEPAGE
  3
ANSI_1252
  9
$LASTSAVEDBY
  1
ezdxf
  9
$REQUIREDVERSIONS
160
0
  9
$INSBASE
 10
0.0
 20
0.0
 30
0.0
  9
$EXTMIN
 10
1e+20
 20
1e+20
 30
1e+20
  9
$EXTMAX
 10
-1e+20
 20
-1e+20
 30
-1e+20
  9
$LIMMIN
 10
0.0
 20
0.0
  9
$LIMMAX
 10
420.0
 20
297.0
  9
$ORTHOMODE
 70
0
  9
$REGENMODE
 70
1
  9
$FILLMODE
 70
1
  9
$QTEXTMODE
 70
0
  9
$MIRRTEXT
 70
1
  9
$LTSCALE
 40
1.0
  9
$ATTMODE
 70
1
  9
$TEXTSIZE
 40
2.5
  9
$TRACEWID
 40
1.0
  9
$TEXTSTYLE
  7
Standard
  9
$CLAYER
  8
0
  9
$CELTYPE
  6
ByLayer
  9
$CECOLOR
 62
256
  9
$CELTSCALE
 40
1.0
  9
$DISPSILH
 70
0
  9
$DIMSCALE
 40
1.0
  9
$DIMASZ
 40
2.5
  9
$DIMEXO
 40
0.625
  9
$DIMDLI
 40
3.75
  9
$DIMRND
 40
0.0
  9
$DIMDLE
 40
0.0
  9
$DIMEXE
 40
1.25
  9
$DIMTP
 40
0.0
  9
$DIMTM
 40
0.0
  9
$DIMTXT
 40
2.5
  9
$DIMCEN
 40
2.5
  9
$DIMTSZ
 40
0.0
  9
$DIMTOL
 70
0
  9
$DIMLIM
 70
0
  9
$DIMTIH
 70
0
  9
$DIMTOH
 70
0
  9
$DIMSE1
 70
0
  9
$DIMSE2
 70
0
  9
$DIMTAD
 70
1
  9
$DIMZIN
 70
8
  9
$DIMBLK
  1

  9
$DIMASO
 70
1
  9
$DIMSHO
 70
1
  9
$DIMPOST
  1

  9
$DIMAPOST
  1

  9
$DIMALT
 70
0
  9
$DIMALTD
 70
3
  9
$DIMALTF
 40
0.03937007874
  9
$DIMLFAC
 40
1.0
  9
$DIMTOFL
 70
1
  9
$DIMTVP
 40
0.0
  9
$DIMTIX
 70
0
  9
$DIMSOXD
 70
0
  9
$DIMSAH
 70
0
  9
$DIMBLK1
  1

  9
$DIMBLK2
  1

  9
$DIMSTYLE
  2
ISO-25
  9
$DIMCLRD
 70
0
  9
$DIMCLRE
 70
0
  9
$DIMCLRT
 70
0
  9
$DIMTFAC
 40
1.0
  9
$DIMGAP
 40
0.625
  9
$DIMJUST
 70
0
  9
$DIMSD1
 70
0
  9
$DIMSD2
 70
0
  9
$DIMTOLJ
 70
0
  9
$DIMTZIN
 70
8
  9
$DIMALTZ
 70
0
  9
$DIMALTTZ
 70
0
  9
$DIMUPT
 70
0
  9
$DIMDEC
 70
2
  9
$DIMTDEC
 70
2
  9
$DIMALTU
 70
2
  9
$DIMALTTD
 70
3
  9
$DIMTXSTY
  7
Standard
  9
$DIMAUNIT
 70
0
  9
$DIMADEC
 70
0
  9
$DIMALTRND
 40
0.0
  9
$DIMAZIN
 70
0
  9
$DIMDSEP
 70
44
  9
$DIMATFIT
 70
3
  9
$DIMFRAC
 70
0
  9
$DIMLDRBLK
  1

  9
$DIMLUNIT
 70
2
  9
$DIMLWD
 70
-2
  9
$DIMLWE
 70
-2
  9
$DIMTMOVE
 70
0
  9
$DIMFXL
 40
1.0
  9
$DIMFXLON
 70
0
  9
$DIMJOGANG
 40
0.785398163397
  9
$DIMTFILL
 70
0
  9
$DIMTFILLCLR
 70
0
  9
$DIMARCSYM
 70
0
  9
$DIMLTYPE
  6

  9
$DIMLTEX1
  6

  9
$DIMLTEX2
  6

  9
$DIMTXTDIRECTION
 70
0
  9
$LUNITS
 70
2
  9
$LUPREC
 70
4
  9
$SKETCHINC
 40
1.0
  9
$FILLETRAD
 40
10.0
  9
$AUNITS
 70
0
  9
$AUPREC
 70
2
  9
$MENU
  1
.
  9
$ELEVATION
 40
0.0
  9
$PELEVATION
 40
0.0
  9
$THICKNESS
 40
0.0
  9
$LIMCHECK
 70
0
  9
$CHAMFERA
 40
0.0
  9
$CHAMFERB
 40
0.0
  9
$CHAMFERC
 40
0.0
  9
$CHAMFERD
 40
0.0
  9
$SKPOLY
 70
0
  9
$TDCREATE
 40
2460908.103113426
  9
$TDUCREATE
 40
2458532.153996898
  9
$TDUPDATE
 40
2460908.103113426
  9
$TDUUPDATE
 40
2458532.1544311
  9
$TDINDWG
 40
0.0
  9
$TDUSRTIMER
 40
0.0
  9
$USRTIMER
 70
1
  9
$ANGBASE
 50
0.0
  9
$ANGDIR
 70
0
  9
$PDMODE
 70
0
  9
$PDSIZE
 40
0.0
  9
$PLINEWID
 40
0.0
  9
$SPLFRAME
 70
0
  9
$SPLINETYPE
 70
6
  9
$SPLINESEGS
 70
8
  9
$HANDSEED
  5
33
  9
$SURFTAB1
 70
6
  9
$SURFTAB2
 70
6
  9
$SURFTYPE
 70
6
  9
$SURFU
 70
6
  9
$SURFV
 70
6
  9
$UCSBASE
  2

  9
$UCSNAME
  2

  9
$UCSORG
 10
0.0
 20
0.0
 30
0.0
  9
$UCSXDIR
 10
1.0
 20
0.0
 30
0.0
  9
$UCSYDIR
 10
0.0
 20
1.0
 30
0.0
  9
$UCSORTHOREF
  2

  9
$UCSORTHOVIEW
 70
0
  9
$UCSORGTOP
 10
0.0
 20
0.0
 30
0.0
  9
$UCSORGBOTTOM
 10
0.0
 20
0.0
 30
0.0
  9
$UCSORGLEFT
 10
0.0
 20
0.0
 30
0.0
  9
$UCSORGRIGHT
 10
0.0
 20
0.0
 30
0.0
  9
$UCSORGFRONT
 10
0.0
 20
0.0
 30
0.0
  9
$UCSORGBACK
 10
0.0
 20
0.0
 30
0.0
  9
$PUCSBASE
  2

  9
$PUCSNAME
  2

  9
$PUCSORG
 10
0.0
 20
0.0
 30
0.0
  9
$PUCSXDIR
 10
1.0
 20
0.0
 30
0.0
  9
$PUCSYDIR
 10
0.0
 20
1.0
 30
0.0
  9
$PUCSORTHOREF
  2

  9
$PUCSORTHOVIEW
 70
0
  9
$PUCSORGTOP
 10
0.0
 20
0.0
 30
0.0
  9
$PUCSORGBOTTOM
 10
0.0
 20
0.0
 30
0.0
  9
$PUCSORGLEFT
 10
0.0
 20
0.0
 30
0.0
  9
$PUCSORGRIGHT
 10
0.0
 20
0.0
 30
0.0
  9
$PUCSORGFRONT
 10
0.0
 20
0.0
 30
0.0
  9
$PUCSORGBACK
 10
0.0
 20
0.0
 30
0.0
  9
$USERI1
 70
0
  9
$USERI2
 70
0
  9
$USERI3
 70
0
  9
$USERI4
 70
0
  9
$USERI5
 70
0
  9
$USERR1
 40
0.0
  9
$USERR2
 40
0.0
  9
$USERR3
 40
0.0
  9
$USERR4
 40
0.0
  9
$USERR5
 40
0.0
  9
$WORLDVIEW
 70
1
  9
$SHADEDGE
 70
3
  9
$SHADEDIF
 70
70
  9
$TILEMODE
 70
1
  9
$MAXACTVP
 70
64
  9
$PINSBASE
 10
0.0
 20
0.0
 30
0.0
  9
$PLIMCHECK
 70
0
  9
$PEXTMIN
 10
1e+20
 20
1e+20
 30
1e+20
  9
$PEXTMAX
 10
-1e+20
 20
-1e+20
 30
-1e+20
  9
$PLIMMIN
 10
0.0
 20
0.0
  9
$PLIMMAX
 10
420.0
 20
297.0
  9
$UNITMODE
 70
0
  9
$VISRETAIN
 70
1
  9
$PLINEGEN
 70
0
  9
$PSLTSCALE
 70
1
  9
$TREEDEPTH
 70
3020
  9
$CMLSTYLE
  2
Standard
  9
$CMLJUST
 70
0
  9
$CMLSCALE
 40
20.0
  9
$PROXYGRAPHICS
 70
1
  9
$MEASUREMENT
 70
1
  9
$CELWEIGHT
370
-1
  9
$ENDCAPS
280
0
  9
$JOINSTYLE
280
0
  9
$LWDISPLAY
290
0
  9
$INSUNITS
 70
6
  9
$HYPERLINKBASE
  1

  9
$STYLESHEET
  1

  9
$XEDIT
290
1
  9
$CEPSNTYPE
380
0
  9
$PSTYLEMODE
290
1
  9
$FINGERPRINTGUID
  2
{BE1D0148-EA5B-4ED2-8640-FDCFFDBC9C39}
  9
$VERSIONGUID
  2
{F36B0557-4338-4822-88A5-B1E680585D94}
  9
$EXTNAMES
290
1
  9
$PSVPSCALE
 40
0.0
  9
$OLESTARTUP
290
0
  9
$SORTENTS
280
127
  9
$INDEXCTL
280
0
  9
$HIDETEXT
280
1
  9
$XCLIPFRAME
280
1
  9
$HALOGAP
280
0
  9
$OBSCOLOR
 70
257
  9
$OBSLTYPE
280
0
  9
$INTERSECTIONDISPLAY
280
0
  9
$INTERSECTIONCOLOR
 70
257
  9
$DIMASSOC
280
2
  9
$PROJECTNAME
  1

  9
$CAMERADISPLAY
290
0
  9
$LENSLENGTH
 40
50.0
  9
$CAMERAHEIGHT
 40
0.0
  9
$STEPSPERSEC
 40
24.0
  9
$STEPSIZE
 40
100.0
  9
$3DDWFPREC
 40
2.0
  9
$PSOLWIDTH
 40
0.005
  9
$PSOLHEIGHT
 40
0.08
  9
$LOFTANG1
 40
1.570796326795
  9
$LOFTANG2
 40
1.570796326795
  9
$LOFTMAG1
 40
0.0
  9
$LOFTMAG2
 40
0.0
  9
$LOFTPARAM
 70
7
  9
$LOFTNORMALS
280
1
  9
$LATITUDE
 40
37.795
  9
$LONGITUDE
 40
-122.394
  9
$NORTHDIRECTION
 40
0.0
  9
$TIMEZONE
 70
-8000
  9
$LIGHTGLYPHDISPLAY
280
1
  9
$TILEMODELIGHTSYNCH
280
1
  9
$CMATERIAL
347
20
  9
$SOLIDHIST
280
0
  9
$SHOWHIST
280
1
  9
$DWFFRAME
280
2
  9
$DGNFRAME
280
2
  9
$REALWORLDSCALE
290
1
  9
$INTERFERECOLOR
 62
256
  9
$CSHADOW
280
0
  9
$SHADOWPLANELOCATION
 40
0.0
  0
ENDSEC
  0
SECTION
  2
CLASSES
  0
CLASS
  1
ACDBDICTIONARYWDFLT
  2
AcDbDictionaryWithDefault
  3
ObjectDBX Classes
 90
0
 91
0
280
0
281
0
  0
CLASS
  1
SUN
  2
AcDbSun
  3
SCENEOE
 90
1153
 91
0
280
0
281
0
  0
CLASS
  1
VISUALSTYLE
  2
AcDbVisualStyle
  3
ObjectDBX Classes
 90
4095
 91
0
280
0
281
0
  0
CLASS
  1
MATERIAL
  2
AcDbMaterial
  3
ObjectDBX Classes
 90
1153
 91
0
280
0
281
0
  0
CLASS
  1
SCALE
  2
AcDbScale
  3
ObjectDBX Classes
 90
1153
 91
0
280
0
281
0
  0
CLASS
  1
TABLESTYLE
  2
AcDbTableStyle
  3
ObjectDBX Classes
 90
4095
 91
0
280
0
281
0
  0
CLASS
  1
MLEADERSTYLE
  2
AcDbMLeaderStyle
  3
ACDB_MLEADERSTYLE_CLASS
 90
4095
 91
0
280
0
281
0
  0
CLASS
  1
DICTIONARYVAR
  2
AcDbDictionaryVar
  3
ObjectDBX Classes
 90
0
 91
0
280
0
281
0
  0
CLASS
  1
CELLSTYLEMAP
  2
AcDbCellStyleMap
  3
ObjectDBX Classes
 90
1152
 91
0
280
0
281
0
  0
CLASS
  1
MENTALRAYRENDERSETTINGS
  2
AcDbMentalRayRenderSettings
  3
SCENEOE
 90
1024
 91
0
280
0
281
0
  0
CLASS
  1
ACDBDETAILVIEWSTYLE
  2
AcDbDetailViewStyle
  3
ObjectDBX Classes
 90
1025
 91
0
280
0
281
0
  0
CLASS
  1
ACDBSECTIONVIEWSTYLE
  2
AcDbSectionViewStyle
  3
ObjectDBX Classes
 90
1025
 91
0
280
0
281
0
  0
CLASS
  1
RASTERVARIABLES
  2
AcDbRasterVariables
  3
ISM
 90
0
 91
0
280
0
281
0
  0
CLASS
  1
LAYOUT
  2
AcDbLayout
  3
ObjectDBX Classes
 90
0
 91
0
280
0
281
0
  0
CLASS
  1
ACDBPLACEHOLDER
  2
AcDbPlaceHolder
  3
ObjectDBX Classes
 90
0
 91
0
280
0
281
0
  0
ENDSEC
  0
SECTION
  2
TABLES
  0
TABLE
  2
VPORT
  5
8
330
0
100
AcDbSymbolTable
 70
1
  0
VPORT
  5
23
330
8
100
AcDbSymbolTableRecord
100
AcDbViewportTableRecord
  2
*Active
 70
0
 10
0.0
 20
0.0
 11
1.0
 21
1.0
 12
0.0
 22
0.0
 13
0.0
 23
0.0
 14
0.5
 24
0.5
 15
0.5
 25
0.5
 16
0.0
 26
0.0
 36
1.0
 17
0.0
 27
0.0
 37
0.0
 40
1000.0
 41
1.34
 42
50.0
 43
0.0
 44
0.0
 50
0.0
 51
0.0
 71
0
 72
1000
 73
1
 74
3
 75
0
 76
0
 77
0
 78
0
281
0
 65
0
146
0.0
  0
ENDTAB
  0
TABLE
  2
LTYPE
  5
2
330
0
100
AcDbSymbolTable
 70
3
  0
LTYPE
  5
24
330
2
100
AcDbSymbolTableRecord
100
AcDbLinetypeTableRecord
  2
ByBlock
 70
0
  3

 72
65
 73
0
 40
0.0
  0
LTYPE
  5
25
330
2
100
AcDbSymbolTableRecord
100
AcDbLinetypeTableRecord
  2
ByLayer
 70
0
  3

 72
65
 73
0
 40
0.0
  0
LTYPE
  5
26
330
2
100
AcDbSymbolTableRecord
100
AcDbLinetypeTableRecord
  2
Continuous
 70
0
  3

 72
65
 73
0
 40
0.0
  0
ENDTAB
  0
TABLE
  2
LAYER
  5
1
330
0
100
AcDbSymbolTable
 70
2
  0
LAYER
  5
27
330
1
100
AcDbSymbolTableRecord
100
AcDbLayerTableRecord
  2
0
 70
0
 62
7
  6
Continuous
370
-3
390
13
347
21
  0
LAYER
  5
28
330
1
100
AcDbSymbolTableRecord
100
AcDbLayerTableRecord
  2
Defpoints
 70
0
 62
7
  6
Continuous
290
0
370
-3
390
13
347
21
  0
ENDTAB
  0
TABLE
  2
STYLE
  5
5
330
0
100
AcDbSymbolTable
 70
1
  0
STYLE
  5
29
330
5
100
AcDbSymbolTableRecord
100
AcDbTextStyleTableRecord
  2
Standard
 70
0
 40
0.0
 41
1.0
 50
0.0
 71
0
 42
2.5
  3
txt
  4

  0
ENDTAB
  0
TABLE
  2
VIEW
  5
7
330
0
100
AcDbSymbolTable
 70
0
  0
ENDTAB
  0
TABLE
  2
UCS
  5
6
330
0
100
AcDbSymbolTable
 70
0
  0
ENDTAB
  0
TABLE
  2
APPID
  5
3
330
0
100
AcDbSymbolTable
 70
3
  0
APPID
  5
2A
330
3
100
AcDbSymbolTableRecord
100
AcDbRegAppTableRecord
  2
ACAD
 70
0
  0
APPID
  5
30
330
3
100
AcDbSymbolTableRecord
100
AcDbRegAppTableRecord
  2
HATCHBACKGROUNDCOLOR
 70
0
  0
APPID
  5
31
330
3
100
AcDbSymbolTableRecord
100
AcDbRegAppTableRecord
  2
EZDXF
 70
0
  0
ENDTAB
  0
TABLE
  2
DIMSTYLE
  5
4
330
0
100
AcDbSymbolTable
 70
1
100
AcDbDimStyleTable
  0
DIMSTYLE
105
2B
330
4
100
AcDbSymbolTableRecord
100
AcDbDimStyleTableRecord
  2
Standard
 70
0
 40
1.0
 41
2.5
 42
0.625
 43
3.75
 44
1.25
 45
0.0
 46
0.0
 47
0.0
 48
0.0
 49
2.5
140
2.5
141
2.5
142
0.0
143
0.03937007874
144
1.0
145
0.0
146
1.0
147
0.625
148
0.0
 69
0
 70
0
 71
0
 72
0
 73
0
 74
0
 75
0
 76
0
 77
1
 78
8
 79
3
170
0
171
3
172
1
173
0
174
0
175
0
176
0
177
0
178
0
179
2
271
2
272
2
273
2
274
3
275
0
276
0
277
2
278
44
279
0
280
0
281
0
282
0
283
0
284
8
285
0
286
0
288
0
289
3
290
0
371
-2
372
-2
  0
ENDTAB
  0
TABLE
  2
BLOCK_RECORD
  5
9
330
0
100
AcDbSymbolTable
 70
2
  0
BLOCK_RECORD
  5
17
330
9
100
AcDbSymbolTableRecord
100
AcDbBlockTableRecord
  2
*Model_Space
340
1A
 70
0
280
1
281
0
  0
BLOCK_RECORD
  5
1B
330
9
100
AcDbSymbolTableRecord
100
AcDbBlockTableRecord
  2
*Paper_Space
340
1E
 70
0
280
1
281
0
  0
ENDTAB
  0
ENDSEC
  0
SECTION
  2
BLOCKS
  0
BLOCK
  5
18
330
17
100
AcDbEntity
  8
0
100
AcDbBlockBegin
  2
*Model_Space
 70
0
 10
0.0
 20
0.0
 30
0.0
  3
*Model_Space
  1

  0
ENDBLK
  5
19
330
17
100
AcDbEntity
  8
0
100
AcDbBlockEnd
  0
BLOCK
  5
1C
330
1B
100
AcDbEntity
  8
0
100
AcDbBlockBegin
  2
*Paper_Space
 70
0
 10
0.0
 20
0.0
 30
0.0
  3
*Paper_Space
  1

  0
ENDBLK
  5
1D
330
1B
100
AcDbEntity
  8
0
100
AcDbBlockEnd
  0
ENDSEC
  0
SECTION
  2
ENTITIES
  0
LWPOLYLINE
  5
2F
330
17
100
AcDbEntity
  8
0
100
AcDbPolyline
 90
721
 70
1
 10
66.92107233403688
 20
10.166743228780975
 10
66.91907236096644
 20
10.167142164890592
 10
66.91310219541225
 20
10.168138916079839
 10
66.90322124065494
 20
10.169334067570006
 10
66.88930003732567
 20
10.170911315604453
 10
66.87158268678135
 20
10.172602896551691
 10
66.84995457675785
 20
10.174492677942569
 10
66.82433075947634
 20
10.176465069740171
 10
66.79491080984177
 20
10.178551694521921
 10
66.76160978007533
 20
10.180636962250917
 10
66.7242981662223
 20
10.18290486895644
 10
66.68320526712088
 20
10.185187179933592
 10
66.63823125816364
 20
10.187468333715271
 10
66.58936127738401
 20
10.189848258942632
 10
66.53662504871521
 20
10.192127098333357
 10
66.47999281850007
 20
10.19450490902705
 10
66.41957924358864
 20
10.196897523706937
 10
66.35528449937354
 20
10.199289380905913
 10
66.28709372388819
 20
10.201780409265139
 10
66.21513640622531
 20
10.204186712683967
 10
66.13928301270623
 20
10.206692487048963
 10
66.0595632524023
 20
10.209097975006458
 10
65.97614696142315
 20
10.211634756344827
 10
65.88874961708511
 20
10.21415561844974
 10
65.79767055945263
 20
10.216708145080299
 10
65.70271019875877
 20
10.219260813587713
 10
65.60396828530114
 20
10.221829685082302
 10
65.50144480421771
 20
10.224414859492704
 10
65.39512487867995
 20
10.227116365388726
 10
65.28500846410192
 20
10.229934502556286
 10
65.17112526955493
 20
10.232669513641707
 10
65.05344555624372
 20
10.235521355855946
 10
64.93208392157057
 20
10.238406261596811
 10
64.80692570868534
 20
10.241408398181056
 10
64.67800058207345
 20
10.244328308040934
 10
64.54537861268508
 20
10.247381609783156
 10
64.40904489396776
 20
10.250668531834803
 10
64.26904398209737
 20
10.25388948812968
 10
64.12524631367134
 20
10.25722887441164
 10
63.97786632556121
 20
10.26061838461694
 10
63.826689521447555
 20
10.264126724523884
 10
63.67191546137338
 20
10.267785616638543
 10
63.51344430586932
 20
10.271579599422443
 10
63.351375820094866
 20
10.275524634057259
 10
63.18562502654733
 20
10.279505330363364
 10
63.01629169038621
 20
10.28353764952243
 10
62.84324624820891
 20
10.287805987278311
 10
62.66670312202502
 20
10.292242137495911
 10
62.486562472365215
 20
10.296830638636765
 10
62.30282426950553
 20
10.301571690558152
 10
62.11548843913615
 20
10.306465792903277
 10
61.92463991417392
 20
10.311628635637692
 10
61.73019368739214
 20
10.316945028439054
 10
61.5322346768457
 20
10.322530761201554
 10
61.33077767019139
 20
10.328286404927237
 10
61.12585237650049
 20
10.334012202262425
 10
60.91752880727534
 20
10.339924171528398
 10
60.7056774139753
 20
10.346206608540358
 10
60.490298122290554
 20
10.35286001294152
 10
60.27153529814244
 20
10.35960046006143
 10
60.049374020116495
 20
10.366528278255817
 10
59.82381425848876
 20
10.373643667381963
 10
59.59481135304954
 20
10.381246913006548
 10
59.36243956904608
 20
10.388838671709705
 10
59.1267689477046
 20
10.396634761955418
 10
58.88778458247264
 20
10.404735412170778
 10
58.64537175705222
 20
10.413225189387115
 10
58.39974487859096
 20
10.422035987397976
 10
58.15081895472421
 20
10.431052515952375
 10
57.898593955728
 20
10.440274974907593
 10
57.643139893104696
 20
10.449919382584909
 10
57.38451615527289
 20
10.459586424134244
 10
57.122593193691976
 20
10.469460395370813
 10
56.85755567671438
 20
10.479673147299117
 10
56.58940355975419
 20
10.490224979705088
 10
56.31806672727529
 20
10.500900573767932
 10
56.04353024300126
 20
10.511800357772023
 10
55.76599366697503
 20
10.522956054223414
 10
55.485327420932066
 20
10.534552158794606
 10
55.20157604618633
 20
10.54628918534804
 10
54.914839293035385
 20
10.558183194994037
 10
54.62511711689331
 20
10.570234487518515
 10
54.33237971951706
 20
10.582643419846999
 10
54.0366270563207
 20
10.595410291765413
 10
53.73787394468498
 20
10.608435474418524
 10
53.436334806619485
 20
10.621650761671237
 10
53.1317951012189
 20
10.635125159087771
 10
52.82435459364272
 20
10.648874627849803
 10
52.51415763495037
 20
10.662615343215533
 10
52.201089479119936
 20
10.676432072073569
 10
51.88520530541111
 20
10.690640561529067
 10
51.5666048789834
 20
10.705256772763702
 10
51.24511822996937
 20
10.720050025346856
 10
50.9209895340358
 20
10.734752056003837
 10
50.594159283868336
 20
10.749762979013848
 10
50.2646422968477
 20
10.764983165521649
 10
49.932423651559425
 20
10.780512943882972
 10
49.59763282223429
 20
10.796168517925805
 10
49.26026977914836
 20
10.811950087507432
 10
48.92023463824638
 20
10.827842490875312
 10
48.57771211246669
 20
10.843977279248026
 10
48.23260234747796
 20
10.86033909101575
 10
47.88503483237296
 20
10.87674403007784
 10
47.535009507703805
 20
10.893192496148853
 10
47.18262615349202
 20
10.90970035048183
 10
46.82777002371571
 20
10.926352359965382
 10
46.47051117446311
 20
10.94336424313486
 10
46.11079429271687
 20
10.960421152242885
 10
45.7489039754706
 20
10.977669800260584
 10
45.384699961928106
 20
10.99467974940367
 10
45.01816731581295
 20
11.011551427956501
 10
44.649461070716086
 20
11.028615944634058
 10
44.27856630522309
 20
11.04597362779207
 10
43.905327911433076
 20
11.063293868358759
 10
43.53017488198497
 20
11.080439254777529
 10
43.152822545575326
 20
11.097263573720452
 10
42.77342590607121
 20
11.114098133759798
 10
42.39187023231269
 20
11.131027601855532
 10
42.00837000575726
 20
11.147983372158002
 10
41.62286994311148
 20
11.164650397062543
 10
41.235440100463606
 20
11.181244395104503
 10
40.84605069443251
 20
11.197965623280766
 10
40.45477600512741
 20
11.214314638242822
 10
40.061630849928974
 20
11.230191811135434
 10
39.66674053849499
 20
11.246128107955897
 10
39.269920224129415
 20
11.2619928768434
 10
38.87135466435645
 20
11.2779173692306
 10
38.47113300125196
 20
11.293302213127832
 10
38.06924032826335
 20
11.308247636962168
 10
37.665646891733466
 20
11.322953697873215
 10
37.260308031452624
 20
11.337720681427657
 10
36.853482874226025
 20
11.352179796137792
 10
36.445031114671615
 20
11.365900904005251
 10
36.03520768529757
 20
11.37923017556892
 10
35.623738523022276
 20
11.392636830600864
 10
35.21078291518154
 20
11.40573661607491
 10
34.79640023533203
 20
11.418130317069629
 10
34.380760453341196
 20
11.430048614015638
 10
33.96364895399385
 20
11.441561012120362
 10
33.54525053940016
 20
11.452798463030541
 10
33.12548018747142
 20
11.463645876352468
 10
32.70446744674832
 20
11.473918956270934
 10
32.28231214183823
 20
11.483633264253054
 10
31.858914373823946
 20
11.492773738474915
 10
31.434473836506125
 20
11.501371202084819
 10
31.00879077663624
 20
11.509395231649036
 10
30.582035134357795
 20
11.51707670745546
 10
30.15422178649937
 20
11.52431560093429
 10
29.725424983446203
 20
11.530612668594298
 10
29.29561497154113
 20
11.536167967575079
 10
28.86497659748016
 20
11.541112149737451
 10
28.433295246048143
 20
11.545514720288839
 10
28.00080033497899
 20
11.549206645095223
 10
27.567506711377387
 20
11.552088095444088
 10
27.13342922234795
 20
11.554059242622907
 10
26.698538084509586
 20
11.555320343628571
 10
26.26291831995094
 20
11.55598648885478
 10
25.826569884086094
 20
11.556057978087457
 10
25.38963721714626
 20
11.555250387012958
 10
24.952035297042794
 20
11.553448625237573
 10
24.51387882521166
 20
11.550568225658612
 10
24.07522308494631
 20
11.546924235880738
 10
23.635923591429634
 20
11.542801380003528
 10
23.19620980698147
 20
11.53803032410703
 10
22.756100743279525
 20
11.531796477309435
 10
22.315507183938184
 20
11.524699711243612
 10
21.87461404996329
 20
11.516870178127173
 10
21.43335113664696
 20
11.50809315871118
 10
20.991733320817737
 20
11.498268624425826
 10
20.549915740100417
 20
11.487726984485613
 10
20.107813402130258
 20
11.476352948639542
 10
19.665570732276514
 20
11.463862192502615
 10
19.223087846483907
 20
11.450239554322277
 10
18.780549665758322
 20
11.435615186316147
 10
18.33794129840918
 20
11.420089216982653
 10
17.895307345198326
 20
11.403361760469688
 10
17.4526329144352
 20
11.38553294527569
 10
17.010003043070412
 20
11.366717761865718
 10
16.56727326114883
 20
11.347200834410708
 10
16.124732508580706
 20
11.326412914568797
 10
15.682380785366043
 20
11.30435400233998
 10
15.24020324440018
 20
11.28112392643678
 10
14.798184993992566
 20
11.256822815357632
 10
14.356440824750985
 20
11.231365602428005
 10
13.914855975791584
 20
11.204837154465151
 10
13.473645092053465
 20
11.17716776640436
 10
13.03283791233185
 20
11.148157481034671
 10
12.592419574660111
 20
11.117906226997247
 10
12.152375231933592
 20
11.086513833004604
 10
11.712719746118918
 20
11.053880370415582
 10
11.273682668707716
 20
11.019835905738388
 10
10.83513436198755
 20
10.984565334360079
 10
10.397145030666332
 20
10.948283375529591
 10
9.959689085659946
 20
10.91047532421723
 10
9.52293661573157
 20
10.871371061424478
 10
9.086843079567242
 20
10.831270073288888
 10
8.651353134425662
 20
10.789857711920362
 10
8.216696361522388
 20
10.746963843969825
 10
7.782843051786152
 20
10.702788226790952
 10
7.349723015371001
 20
10.657116041206168
 10
6.917506385626009
 20
10.610176868431026
 10
6.486122987567198
 20
10.56175578935931
 10
6.055757801648287
 20
10.511982556494061
 10
5.626166444134976
 20
10.461126832110947
 10
5.197578496242811
 20
10.409018482860898
 10
4.770053405838284
 20
10.35525779417927
 10
4.343576355540673
 20
10.299944394921305
 10
3.9182026732293074
 20
10.243393032905741
 10
3.493947280318684
 20
10.185503379776854
 10
3.070825053637368
 20
10.126175406964844
 10
2.6489359366885092
 20
10.06542387650769
 10
2.2281502917596625
 20
10.003433683792448
 10
1.8085383830065986
 20
9.940419148353493
 10
1.3902595869369785
 20
9.875995417592813
 10
0.9733436572079777
 20
9.809962434370803
 10
0.5577609144722468
 20
9.742519756183862
 10
0.14359779270525475
 20
9.67377298020478
 10
-0.26924322909556775
 20
9.603691056027069
 10
-0.6806770396697736
 20
9.532388474472587
 10
-1.0906185723428377
 20
9.459980026149116
 10
-1.499108307889428
 20
9.386051134525392
 10
-1.9060463176683766
 20
9.310616661568044
 10
-2.311406982871651
 20
9.234191112449484
 10
-2.715260508207148
 20
9.156559767920774
 10
-3.1173921744259387
 20
9.077652423274
 10
-3.5180018388103407
 20
8.997439354575913
 10
-3.9168896440780268
 20
8.915950285759761
 10
-4.313985385521095
 20
8.833399936074485
 10
-4.709503782388475
 20
8.749858510227996
 10
-5.103270596205904
 20
8.664841226981125
 10
-5.495175141490792
 20
8.578977382114063
 10
-5.885347070817531
 20
8.492451970942513
 10
-6.273797141027573
 20
8.404650559652897
 10
-6.660225566197423
 20
8.31561773414508
 10
-7.044776860868112
 20
8.225638418375915
 10
-7.427465887006259
 20
8.134812540986566
 10
-7.808262920678618
 20
8.04294024469471
 10
-8.186982966569497
 20
7.95015118207475
 10
-8.563825881961211
 20
7.856415629193448
 10
-8.938636395471312
 20
7.762063095907517
 10
-9.31138478316655
 20
7.666893724934641
 10
-9.682056183080311
 20
7.570807587633665
 10
-10.050665457179209
 20
7.473904612645743
 10
-10.41714240075533
 20
7.376399519219817
 10
-10.781586942449835
 20
7.278277445389267
 10
-11.143769501047158
 20
7.179368257805015
 10
-11.50369007654731
 20
7.079671956467061
 10
-11.861433735624814
 20
6.9790737507676255
 10
-12.216915411605141
 20
6.87768843131449
 10
-12.570179690388157
 20
6.775815784031131
 10
-12.921141505299316
 20
6.673570599525328
 10
-13.26974140847214
 20
6.570553163232446
 10
-13.616079328547787
 20
6.466748613185863
 10
-13.959840617636159
 20
6.362101606644283
 10
-14.30126971891943
 20
6.256882205597943
 10
-14.640381494364231
 20
6.151190338688
 10
-14.97697608668824
 20
6.0450557298477
 10
-15.311038633924836
 20
5.938378450435879
 10
-15.64262447881531
 20
5.830843852562441
 10
-15.971693140584996
 20
5.722866512758644
 10
-16.29828920513376
 20
5.614746216947965
 10
-16.622238433987324
 20
5.505998183891231
 10
-16.94364075578685
 20
5.396607551621819
 10
-17.26232603718327
 20
5.286803901355288
 10
-17.57839420681774
 20
5.176572371125022
 10
-17.89186012665688
 20
5.0660128895721765
 10
-18.202579282159665
 20
4.954840532739896
 10
-18.510581397259344
 20
4.843255157910499
 10
-18.81586647195591
 20
4.7312567650839865
 10
-19.11849395411585
 20
4.619245068824994
 10
-19.418249124490227
 20
4.507149864425605
 10
-19.715287254461494
 20
4.394641642029099
 10
-20.00947869145525
 20
4.281535406319781
 10
-20.300782954696825
 20
4.1682457338289085
 10
-20.58932969676061
 20
4.054957619872175
 10
-20.874959541138974
 20
3.941286211851569
 10
-21.157602283123985
 20
3.8274462290160303
 10
-21.43747264196459
 20
3.7135078760734728
 10
-21.714370760378475
 20
3.5995008769571424
 10
-21.98825205246577
 20
3.4851254457435576
 10
-22.25916110412635
 20
3.3706813683562
 10
-22.52711277732682
 20
3.2562685734362256
 10
-22.792092210100567
 20
3.1417871323424778
 10
-23.053999473806435
 20
3.027251907041577
 10
-23.312819706477796
 20
2.9125629688923627
 10
-23.56866769872244
 20
2.797805384569375
 10
-23.821343593258035
 20
2.683008878005854
 10
-24.07087711401783
 20
2.56837330648412
 10
-24.317438394350905
 20
2.4536690887886135
 10
-24.56072764833378
 20
2.3389408108191936
 10
-24.800829942640995
 20
2.2240736819680844
 10
-25.03780472513903
 20
2.1094674167999203
 10
-25.271651995827888
 20
1.995122015314702
 10
-25.50224210213316
 20
1.8808524821967332
 10
-25.72956018208824
 20
1.7665588888048545
 10
-25.95369130236765
 20
1.6521264445312835
 10
-26.17450991552219
 20
1.5380845165150614
 10
-26.392101088226397
 20
1.4243183141484057
 10
-26.606435096547013
 20
1.310627980148999
 10
-26.817412011842897
 20
1.1970283764834624
 10
-27.025061558047284
 20
1.0837193604341155
 10
-27.229354011226935
 20
0.9705010747186379
 10
-27.430304233348473
 20
0.8574734479781904
 10
-27.627927086378506
 20
0.7447364088539303
 10
-27.822092917742644
 20
0.6321049620301621
 10
-28.01284631334075
 20
0.519878893430365
 10
-28.200227753947495
 20
0.40764362652327785
 10
-28.38419675878821
 20
0.2958137378401601
 10
-28.564738465896262
 20
0.18428929873985245
 10
-28.741838013305042
 20
0.07297038058119414
 10
-28.915395472373387
 20
-0.03812815466919054
 10
-29.08552563370908
 20
-0.14892124033676504
 10
-29.252173154570816
 20
-0.25909422853143027
 10
-29.415308311025363
 20
-0.36884697653550536
 10
-29.57493110307272
 20
-0.47817948434898977
 10
-29.73115632132066
 20
-0.5870066852973461
 10
-29.88376924652025
 20
-0.6953987840884899
 10
-30.032899531245892
 20
-0.8031707854067249
 10
-30.17847697078967
 20
-0.9101079700031117
 10
-30.320601493792736
 20
-1.01622519984427
 10
-30.45914344768069
 20
-1.1217074702458985
 10
-30.594217623061326
 20
-1.2264697145334587
 10
-30.72562416265231
 20
-1.330482208773708
 10
-30.853592647669203
 20
-1.43357481961757
 10
-30.97793808279632
 20
-1.535617894490645
 10
-31.098730672741567
 20
-1.63682615264187
 10
-31.21597041750495
 20
-1.7371995940712457
 10
-31.329657317086465
 20
-1.8367382187787737
 10
-31.4397211667782
 20
-1.935227307515512
 10
-31.54616196658015
 20
-2.032666860281464
 10
-31.64903505923362
 20
-2.1293715249667238
 10
-31.7482851019973
 20
-2.225026653681196
 10
-31.843852647004713
 20
-2.3200319609895175
 10
-31.935797142122343
 20
-2.4139877323270484
 10
-32.024059139483704
 20
-2.5072936822584286
 10
-32.10866836302204
 20
-2.599749953501339
 10
-32.18962481273735
 20
-2.6913565460557773
 10
-32.266813698021856
 20
-2.7821985265962845
 10
-32.34046460009112
 20
-2.872105761773784
 10
-32.410233147121794
 20
-2.9613334516118877
 10
-32.4764488489706
 20
-3.049726324728144
 10
-32.53889698638859
 20
-3.137354585830467
 10
-32.59762214527566
 20
-3.2239184489953794
 10
-32.6526945303397
 20
-3.3096326334718236
 10
-32.70402907490617
 20
-3.394382348652015
 10
-32.75168522684156
 20
-3.4777678799713194
 10
-32.795718328887176
 20
-3.560103875319835
 10
-32.83605817633508
 20
-3.641175615448623
 10
-32.87273449311854
 20
-3.720783243075364
 10
-32.90580672710403
 20
-3.798527043635421
 10
-32.93527487829155
 20
-3.874407017128795
 10
-32.9612685992555
 20
-3.948238168239789
 10
-32.98366234254666
 20
-4.019491129829364
 10
-33.002615484672695
 20
-4.087781049299503
 10
-33.01837657394097
 20
-4.152123502205239
 10
-33.03084978683551
 20
-4.211789264125212
 10
-33.04037284346343
 20
-4.265194338767499
 10
-33.04728346393181
 20
-4.310754729840171
 10
-33.05173847815727
 20
-4.3460424260221675
 10
-33.054209363946505
 20
-4.368574073251133
 10
-32.961125179451
 20
-5.0075003962652564
 10
-32.95846857497129
 20
-5.012314379598569
 10
-32.95051362349875
 20
-5.026656400957342
 10
-32.9373197728999
 20
-5.050126745776942
 10
-32.918534441100995
 20
-5.084409338990454
 10
-32.8940453840853
 20
-5.131632405995463
 10
-32.86452549547599
 20
-5.186584795485069
 10
-32.83033556759715
 20
-5.246153857616716
 10
-32.79186866329719
 20
-5.309070243988579
 10
-32.749336955233986
 20
-5.373220591169693
 10
-32.702774272466
 20
-5.437690679423004
 10
-32.65245478210862
 20
-5.50201058947596
 10
-32.5983380033872
 20
-5.565765744797301
 10
-32.540483384168205
 20
-5.628556430822392
 10
-32.4789206483849
 20
-5.690182790268913
 10
-32.41364979603728
 20
-5.750644823136865
 10
-32.34478561773311
 20
-5.80985746275171
 10
-32.272257908764495
 20
-5.867605989864509
 10
-32.19605180716479
 20
-5.923990333116419
 10
-32.11628210354179
 20
-5.978925425832905
 10
-32.0328191453211
 20
-6.032596263329662
 10
-31.945677794469322
 20
-6.084902916965531
 10
-31.85508763220204
 20
-6.1356752533914385
 10
-31.76070428669589
 20
-6.185168472630995
 10
-31.662842405840983
 20
-6.233327231942906
 10
-31.561287270388387
 20
-6.280221736035092
 10
-31.456153670945863
 20
-6.3257669182330085
 10
-31.34745646948004
 20
-6.369862849895501
 10
-31.23515108009106
 20
-6.412809316946045
 10
-31.119267226712157
 20
-6.454406462102323
 10
-30.999745461476856
 20
-6.495053999928973
 10
-30.876630370285014
 20
-6.534452144502515
 10
-30.74999215784454
 20
-6.572815615071889
 10
-30.619730895514294
 20
-6.610129549670476
 10
-30.48581685936102
 20
-6.646593805580592
 10
-30.348364839992506
 20
-6.682123316127701
 10
-30.20735997544212
 20
-6.716818009952959
 10
-30.062802265709863
 20
-6.750677887056369
 10
-29.914547196254723
 20
-6.783987871394788
 10
-29.762809486325633
 20
-6.816677758260297
 10
-29.607404140606896
 20
-6.848617895078494
 10
-29.44853101638083
 20
-6.8798380057826245
 10
-29.286060461073035
 20
-6.910523085688383
 10
-29.120092403324666
 20
-6.9406879967623905
 10
-28.950541776461186
 20
-6.9702179483968685
 10
-28.777538233057005
 20
-6.998927945276121
 10
-28.600966982504332
 20
-7.0269030540746815
 10
-28.421013020118867
 20
-7.054272927366954
 10
-28.237576417259458
 20
-7.081022703186319
 10
-28.050657173926094
 20
-7.107152381532774
 10
-27.860299876018647
 20
-7.132362176482844
 10
-27.666604452178277
 20
-7.156666950003147
 10
-27.469470973763816
 20
-7.1800518401270645
 10
-27.26896964548319
 20
-7.202731566103535
 10
-27.06510046733639
 20
-7.224706127932559
 10
-26.857922887189904
 20
-7.245575811049499
 10
-26.647507109751658
 20
-7.265555334703296
 10
-26.433768068347106
 20
-7.284529908286168
 10
-26.216690901009624
 20
-7.302599460439275
 10
-25.996375536380373
 20
-7.319778853129238
 10
-25.77283683642598
 20
-7.335968157714898
 10
-25.54605993917982
 20
-7.3512673028374165
 10
-25.316044844641894
 20
-7.365676288496789
 10
-25.082806414778826
 20
-7.37909518605186
 10
-24.84642971626514
 20
-7.391638786110407
 10
-24.60691474910085
 20
-7.403307088672433
 10
-24.364176446611413
 20
-7.413985303130156
 10
-24.118384942145905
 20
-7.423903010699136
 10
-23.869455169029795
 20
-7.4329454207715955
 10
-23.61737226529645
 20
-7.441212461988691
 10
-23.362251021553657
 20
-7.448619067675887
 10
-23.10413602370128
 20
-7.454865451909703
 10
-22.842982685839452
 20
-7.460251400613617
 10
-22.578661355393777
 20
-7.46496190910333
 10
-22.311486680254347
 20
-7.468941634637543
 10
-22.041288527072094
 20
-7.471960996000696
 10
-21.768081757813626
 20
-7.473920064551629
 10
-21.492036505828036
 20
-7.475048421505905
 10
-21.21303798050753
 20
-7.47543113353806
 10
-20.93111590578536
 20
-7.474868343365777
 10
-20.64637021030268
 20
-7.473374912955677
 10
-20.35881575602611
 20
-7.470850913666599
 10
-20.068407957055793
 20
-7.467596131422024
 10
-19.77517653732496
 20
-7.463410708939631
 10
-19.47909177290038
 20
-7.45849450350174
 10
-19.18039810696423
 20
-7.452577453118115
 10
-18.878880820267565
 20
-7.445729762496671
 10
-18.574639841451557
 20
-7.437966293604034
 10
-18.267760237190732
 20
-7.42940183704798
 10
-17.958171802777184
 20
-7.4198216735795715
 10
-17.645944742918818
 20
-7.409440522447749
 10
-17.331193848223425
 20
-7.398173316977973
 10
-17.01374898534192
 20
-7.385790475954682
 10
-16.693810011556636
 20
-7.372321723311122
 10
-16.37133234096769
 20
-7.3580668449707645
 10
-16.046315973575094
 20
-7.343025840933616
 10
-15.718760909378846
 20
-7.327198711199673
 10
-15.388811662919966
 20
-7.31030053181208
 10
-15.056497958131699
 20
-7.292131445488518
 10
-14.721660418506406
 20
-7.273076304827005
 10
-14.384498901326394
 20
-7.253164833760782
 10
-14.044943201883754
 20
-7.232182313040907
 10
-13.703122972752883
 20
-7.209943747351686
 10
-13.358993628033927
 20
-7.186748922616596
 10
-13.01262537243479
 20
-7.162812558084577
 10
-12.663948001247567
 20
-7.137919934506688
 10
-12.313006100372114
 20
-7.111771265959454
 10
-11.959969803157508
 20
-7.084596133658433
 10
-11.604824247637126
 20
-7.056494466244785
 10
-11.247369576528655
 20
-7.027436539785269
 10
-10.887920437722189
 20
-6.9973670115385875
 10
-10.526406626509822
 20
-6.966071162255802
 10
-10.162828142891538
 20
-6.933548991936914
 10
-9.797270053541885
 20
-6.899915291189702
 10
-9.429658048627754
 20
-6.865669703219963
 10
-9.060136642690162
 20
-6.83052730407084
 10
-8.68866535495445
 20
-6.794073517211075
 10
-8.315229323453982
 20
-6.756408271281828
 10
-7.940028405471086
 20
-6.717561290216341
 10
-7.562903224498114
 20
-6.67791742661263
 10
-7.183983433109463
 20
-6.637291685154996
 10
-6.803269031305142
 20
-6.595684065843442
 10
-6.4207897430183865
 20
-6.552894711395649
 10
-6.03653070628258
 20
-6.509023550452776
 10
-5.650662054446796
 20
-6.464300164230382
 10
-5.263013654161962
 20
-6.418494971512908
 10
-4.8738150866436305
 20
-6.3714378389512785
 10
-4.483051489925186
 20
-6.3232286951866525
 10
-4.09070800204001
 20
-6.273967468860187
 10
-3.6966995563135554
 20
-6.2235393693641035
 10
-3.3013556626025617
 20
-6.17178912531595
 10
-2.904591254232468
 20
-6.118601946107942
 10
-2.506217230762396
 20
-6.064562541620414
 10
-2.1064483114412895
 20
-6.009600707145452
 10
-1.7054735967100303
 20
-5.95313173280272
 10
-1.3030486433864457
 20
-5.895425680582453
 10
-0.8992585181450585
 20
-5.836597341092433
 10
-0.4943328022014404
 20
-5.776476580983583
 10
-0.08808650023989377
 20
-5.714933747681502
 10
0.31928053045727267
 20
-5.65199856511943
 10
0.7279276663976851
 20
-5.588055885895388
 10
1.1377252550069608
 20
-5.522920714693673
 10
1.5484990578108246
 20
-5.456108270275114
 10
1.9603935893502946
 20
-5.387903476596567
 10
2.3733683688507097
 20
-5.31872091018929
 10
2.7872789263569375
 20
-5.248275946882349
 10
3.20221273618211
 20
-5.176469984507833
 10
3.61810096091924
 20
-5.103526935749666
 10
4.034884197287746
 20
-5.029047385829136
 10
4.452562475011562
 20
-4.953031534603525
 10
4.871095313316
 20
-4.8758939586040935
 10
5.2903977049744
 20
-4.7977498481531855
 10
5.710554731523278
 20
-4.718484512571659
 10
6.131421893283548
 20
-4.637813127831302
 10
6.553028929050447
 20
-4.555935651143073
 10
6.97537589827183
 20
-4.472852482221536
 10
7.398362857444573
 20
-4.388578383104671
 10
7.821945265254709
 20
-4.302813867654927
 10
8.246152845635477
 20
-4.215758793154619
 10
8.670845189171056
 20
-4.12784259810163
 10
9.096207350624997
 20
-4.038936029636117
 10
9.521994871953162
 20
-3.94876892583921
 10
9.948322573487255
 20
-3.8574265532427257
 10
10.374990597944965
 20
-3.7649386357799077
 10
10.802113750796039
 20
-3.671390340053935
 10
11.229677184935817
 20
-3.57668183735229
 10
11.6574959050486
 20
-3.480942780249375
 10
12.085699563708802
 20
-3.3843581640608855
 10
12.514273343535693
 20
-3.2868283599315875
 10
12.943002480694433
 20
-3.1882828633676388
 10
13.372001795516736
 20
-3.0888069409008616
 10
13.801201083294687
 20
-2.988615311780196
 10
14.230640839664925
 20
-2.887293499403024
 10
14.660150901554445
 20
-2.785070885127624
 10
15.089760992896487
 20
-2.6821473262363154
 10
15.519456266586396
 20
-2.578422994016579
 10
15.949206998690936
 20
-2.473698031186097
 10
16.379042928005305
 20
-2.368172394955829
 10
16.808793846870593
 20
-2.262075166898132
 10
17.238529989718664
 20
-2.1551918276213464
 10
17.668196013808217
 20
-2.0478370250155704
 10
18.097747303515447
 20
-1.9397107733000467
 10
18.527169011735708
 20
-1.8307132437622555
 10
18.956490862402237
 20
-1.7210442936845172
 10
19.385557494960782
 20
-1.6110328333517032
 10
19.814468882638405
 20
-1.5006643005831148
 10
20.243080481170146
 20
-1.3896535715646172
 10
20.671407122798698
 20
-1.2781003750800828
 10
21.099448822386012
 20
-1.1660048110581573
 10
21.527220412174806
 20
-1.0534666082827122
 10
21.95450709860628
 20
-0.9404150624026304
 10
22.38142371687413
 20
-0.82693553987837
 10
22.807885111132
 20
-0.7131422317458669
 10
23.23402100826415
 20
-0.5992206329640218
 10
23.65957196936405
 20
-0.48479985354367394
 10
24.084552871260314
 20
-0.36997992205461655
 10
24.50913795242719
 20
-0.2552456197360312
 10
24.93303810947281
 20
-0.1400265990309965
 10
25.35623843584464
 20
-0.024222631512430683
 10
25.778928076569482
 20
0.09158127315340979
 10
26.200936779402507
 20
0.20715633318009077
 10
26.622275330909105
 20
0.3231167825239098
 10
27.042858604966845
 20
0.4393482302916479
 10
27.462586583762793
 20
0.5558364140885323
 10
27.881588964457244
 20
0.6723960388129449
 10
28.29978060606581
 20
0.7889128135003048
 10
28.717176325969234
 20
0.905287109295382
 10
29.133646427007204
 20
1.021704221299793
 10
29.549161125798598
 20
1.1383644065104224
 10
29.96376499338135
 20
1.2549679789324355
 10
30.377458014893456
 20
1.3715150384944705
 10
30.790055031537616
 20
1.4878770318371817
 10
31.201756004629882
 20
1.6040829833933181
 10
31.612316342368434
 20
1.7204039544395313
 10
32.021750876995945
 20
1.836740216191942
 10
32.43013385889765
 20
1.9525925251593192
 10
32.83745044096891
 20
2.0680607100541817
 10
33.243470848788604
 20
2.1833162032979407
 10
33.64840990563942
 20
2.298288100682191
 10
34.05205272879079
 20
2.4130477061299
 10
34.45449927660781
 20
2.5276096817504086
 10
34.855679240348806
 20
2.6417600077952654
 10
35.255492587338814
 20
2.7554845217983344
 10
35.65406901473818
 20
2.8685979286579983
 10
36.051163886159145
 20
2.9813715894368276
 10
36.446977162917776
 20
3.0938345285675735
 10
36.841293962283515
 20
3.2060580499732065
 10
37.23420338174625
 20
3.3174430814499773
 10
37.62560540349304
 20
3.427975360603113
 10
38.015610817040205
 20
3.538283483712321
 10
38.40390470698228
 20
3.648424592234438
 10
38.79080593036832
 20
3.7576282814729476
 10
39.17609958960577
 20
3.865965955279456
 10
39.559726162518324
 20
3.9738378278618094
 10
39.941685619382014
 20
4.081244099077284
 10
40.32199277757763
 20
4.188085140070653
 10
40.700721917214274
 20
4.293861507493396
 10
41.077643219284965
 20
4.398744933552852
 10
41.45291210379181
 20
4.503063928819326
 10
41.826328475661015
 20
4.606790368217833
 10
42.19792201423995
 20
4.7097246942519835
 10
42.56772241373789
 20
4.811667249496736
 10
42.93569989077374
 20
4.912818290948975
 10
43.301754368086684
 20
5.013163955928491
 10
43.66601555769898
 20
5.112518849405022
 10
44.02828336453684
 20
5.210854846303585
 10
44.38861319078944
 20
5.308486194799714
 10
44.74680491165905
 20
5.405384969675705
 10
45.10318828965583
 20
5.501394200762209
 10
45.45739288828938
 20
5.596257580769649
 10
45.80961872832368
 20
5.690003734416225
 10
46.159850888344195
 20
5.782732990057651
 10
46.50785954934391
 20
5.874617079901266
 10
46.85365949897963
 20
5.965556574949116
 10
47.19746560511997
 20
6.055480271206875
 10
47.53899261684481
 20
6.144245852563624
 10
47.87837021645244
 20
6.23166812384638
 10
48.21545374078219
 20
6.318033008298415
 10
48.550328301094545
 20
6.403454996741586
 10
48.88290868209522
 20
6.48782029785452
 10
49.21319482433642
 20
6.571129311351786
 10
49.54113122159517
 20
6.653068488558336
 10
49.866773290922644
 20
6.733951977721065
 10
50.18993575462573
 20
6.813652024909749
 10
50.51068886199827
 20
6.8923830495874085
 10
50.82907716921618
 20
6.969845465687843
 10
51.145015431261356
 20
7.045925681746974
 10
51.45845900278603
 20
7.120923883402836
 10
51.76940783920433
 20
7.194840370441357
 10
52.07786188106835
 20
7.2676755425770985
 10
52.38365072751367
 20
7.3392016173100405
 10
52.68700412323744
 20
7.409247362076059
 10
52.987747666283795
 20
7.478298657329377
 10
53.28579612649653
 20
7.546241811677267
 10
53.58124947710273
 20
7.61309138730043
 10
53.874037349912825
 20
7.678633764164975
 10
54.16404479083742
 20
7.742955108160494
 10
54.451456973535805
 20
7.806183872717695
 10
54.736118329386194
 20
7.867992546552682
 10
55.01799908986943
 20
7.928581286733697
 10
55.29711407236626
 20
7.9878504644055015
 10
55.57341861666697
 20
8.04610036513478
 10
55.846942402118906
 20
8.10313143142514
 10
56.117585321737316
 20
8.158930000453651
 10
56.385362192902925
 20
8.213396443365083
 10
56.650358156600056
 20
8.266645051123998
 10
56.91235819634051
 20
8.318748027011152
 10
57.17136223781442
 20
8.369705870669737
 10
57.42748516080136
 20
8.419432915853378
 10
57.68074184212991
 20
8.467829133992266
 10
57.930887853479895
 20
8.515164487148004
 10
58.1780218453633
 20
8.561462431150344
 10
58.42218984529077
 20
8.606413486997624
 10
58.66327634928012
 20
8.650107517939151
 10
58.9012516036742
 20
8.69274458111453
 10
59.1362453353572
 20
8.734139181564855
 10
59.368072236912155
 20
8.77416376521719
 10
59.596802587356834
 20
8.813032551677274
 10
59.82242148013865
 20
8.850845769372176
 10
60.04482882313488
 20
8.887589655550341
 10
60.26405429569283
 20
8.92306465271537
 10
60.48008296153605
 20
8.957371189151624
 10
60.69288506700737
 20
8.99070932199871
 10
60.90247541462555
 20
9.022979522330026
 10
61.108783651062986
 20
9.05396807018305
 10
61.31180970200986
 20
9.083675465200985
 10
61.51159415227462
 20
9.112515584414602
 10
61.70805174197713
 20
9.140374936288454
 10
61.901182456255476
 20
9.167253620751184
 10
62.09100108276642
 20
9.193052208804842
 10
62.2774075442491
 20
9.21775683776921
 10
62.460501828792594
 20
9.24138196989635
 10
62.64015415006478
 20
9.264113499859727
 10
62.81639415768907
 20
9.285752070020232
 10
62.98919209800828
 20
9.306497737517462
 10
63.15867771276862
 20
9.326164907463875
 10
63.32462112351519
 20
9.344925711781368
 10
63.487107486094345
 20
9.362894341505879
 10
63.646051570349904
 20
9.379957105244676
 10
63.80156825606142
 20
9.396028336751373
 10
63.95352760827718
 20
9.411294929985852
 10
64.1020592944335
 20
9.425571789703776
 10
64.24691951041281
 20
9.439124680963808
 10
64.38832202429815
 20
9.451889794491063
 10
64.52606712742686
 20
9.463836407065891
 10
64.66025483761192
 20
9.474978781083065
 10
64.7908851251294
 20
9.48531711639987
 10
64.91794308342679
 20
9.49495164144338
 10
65.04134351207183
 20
9.503768464963596
 10
65.1610566276834
 20
9.511967843957391
 10
65.27719735462702
 20
9.519463812392466
 10
65.38965070908931
 20
9.526342736015687
 10
65.49843153817491
 20
9.53250478611454
 10
65.60352496505529
 20
9.53804999125882
 10
65.70494580711113
 20
9.542878722593299
 10
65.80267918751385
 20
9.547091008687774
 10
65.89669536746824
 20
9.550886806753201
 10
65.98692396392278
 20
9.554052596684334
 10
66.07355023970857
 20
9.556716232340042
 10
66.15625910107653
 20
9.558936054320851
 10
66.2353655971898
 20
9.56065402181215
 10
66.31066957352682
 20
9.561842409453524
 10
66.3821412912923
 20
9.562701174455931
 10
66.44989565998979
 20
9.563144450715704
 10
66.51383258749651
 20
9.563158475481277
 10
66.57392234987918
 20
9.562943106034965
 10
66.630294703746
 20
9.562312647560583
 10
66.68281986276484
 20
9.561452994731601
 10
66.7315126591784
 20
9.560264418764136
 10
66.77634336905346
 20
9.558946776940516
 10
66.81732685435664
 20
9.557400140619578
 10
66.85454828579621
 20
9.555738600908608
 10
66.8878075237125
 20
9.553934332518555
 10
66.91718978339972
 20
9.552101126770781
 10
66.94279511239476
 20
9.550253046202783
 10
66.96442337103794
 20
9.548362265525492
 10
66.9821448829329
 20
9.54664270455873
 10
66.99607461703101
 20
9.545008097484256
 10
67.0059826502915
 20
9.543630876009898
 10
67.01195424259447
 20
9.542624531671098
 10
67.01395962542078
 20
9.542189221536102
  0
ENDSEC
  0
SECTION
  2
OBJECTS
  0
DICTIONARY
  5
A
330
0
100
AcDbDictionary
280
0
281
1
  3
ACAD_COLOR
350
B
  3
ACAD_GROUP
350
C
  3
ACAD_LAYOUT
350
D
  3
ACAD_MATERIAL
350
E
  3
ACAD_MLEADERSTYLE
350
F
  3
ACAD_MLINESTYLE
350
10
  3
ACAD_PLOTSETTINGS
350
11
  3
ACAD_PLOTSTYLENAME
350
12
  3
ACAD_SCALELIST
350
14
  3
ACAD_TABLESTYLE
350
15
  3
ACAD_VISUALSTYLE
350
16
  3
EZDXF_META
350
2D
  0
DICTIONARY
  5
B
330
A
100
AcDbDictionary
280
0
281
1
  0
DICTIONARY
  5
C
330
A
100
AcDbDictionary
280
0
281
1
  0
DICTIONARY
  5
D
330
A
100
AcDbDictionary
280
0
281
1
  3
Model
350
1A
  3
Layout1
350
1E
  0
DICTIONARY
  5
E
330
A
100
AcDbDictionary
280
0
281
1
  3
ByBlock
350
1F
  3
ByLayer
350
20
  3
Global
350
21
  0
DICTIONARY
  5
F
330
A
100
AcDbDictionary
280
0
281
1
  3
Standard
350
2C
  0
DICTIONARY
  5
10
330
A
100
AcDbDictionary
280
0
281
1
  3
Standard
350
22
  0
DICTIONARY
  5
11
330
A
100
AcDbDictionary
280
0
281
1
  0
ACDBDICTIONARYWDFLT
  5
12
330
A
100
AcDbDictionary
280
0
281
1
  3
Normal
350
13
100
AcDbDictionaryWithDefault
340
13
  0
ACDBPLACEHOLDER
  5
13
330
12
  0
DICTIONARY
  5
14
330
A
100
AcDbDictionary
280
0
281
1
  0
DICTIONARY
  5
15
330
A
100
AcDbDictionary
280
0
281
1
  0
DICTIONARY
  5
16
330
A
100
AcDbDictionary
280
0
281
1
  0
LAYOUT
  5
1A
330
D
100
AcDbPlotSettings
  1

  4
A3
  6

 40
7.5
 41
20.0
 42
7.5
 43
20.0
 44
420.0
 45
297.0
 46
0.0
 47
0.0
 48
0.0
 49
0.0
140
0.0
141
0.0
142
1.0
143
1.0
 70
1024
 72
1
 73
0
 74
5
  7

 75
16
 76
0
 77
2
 78
300
147
1.0
148
0.0
149
0.0
100
AcDbLayout
  1
Model
 70
1
 71
0
 10
0.0
 20
0.0
 11
420.0
 21
297.0
 12
0.0
 22
0.0
 32
0.0
 14
1e+20
 24
1e+20
 34
1e+20
 15
-1e+20
 25
-1e+20
 35
-1e+20
146
0.0
 13
0.0
 23
0.0
 33
0.0
 16
1.0
 26
0.0
 36
0.0
 17
0.0
 27
1.0
 37
0.0
 76
1
330
17
  0
LAYOUT
  5
1E
330
D
100
AcDbPlotSettings
  1

  4
A3
  6

 40
7.5
 41
20.0
 42
7.5
 43
20.0
 44
420.0
 45
297.0
 46
0.0
 47
0.0
 48
0.0
 49
0.0
140
0.0
141
0.0
142
1.0
143
1.0
 70
0
 72
1
 73
0
 74
5
  7

 75
16
 76
0
 77
2
 78
300
147
1.0
148
0.0
149
0.0
100
AcDbLayout
  1
Layout1
 70
1
 71
1
 10
0.0
 20
0.0
 11
420.0
 21
297.0
 12
0.0
 22
0.0
 32
0.0
 14
1e+20
 24
1e+20
 34
1e+20
 15
-1e+20
 25
-1e+20
 35
-1e+20
146
0.0
 13
0.0
 23
0.0
 33
0.0
 16
1.0
 26
0.0
 36
0.0
 17
0.0
 27
1.0
 37
0.0
 76
1
330
1B
  0
MATERIAL
  5
1F
102
{ACAD_REACTORS
330
E
102
}
330
E
100
AcDbMaterial
  1
ByBlock
  2

 70
0
 40
1.0
 71
1
 41
1.0
 91
-1023410177
 42
1.0
 72
1
  3

 73
1
 74
1
 75
1
 44
0.5
 73
0
 45
1.0
 46
1.0
 77
1
  4

 78
1
 79
1
170
1
 48
1.0
171
1
  6

172
1
173
1
174
1
140
1.0
141
1.0
175
1
  7

176
1
177
1
178
1
143
1.0
179
1
  8

270
1
271
1
272
1
145
1.0
146
1.0
273
1
  9

274
1
275
1
276
1
 42
1.0
 72
1
  3

 73
1
 74
1
 75
1
 94
63
  0
MATERIAL
  5
20
102
{ACAD_REACTORS
330
E
102
}
330
E
100
AcDbMaterial
  1
ByLayer
  2

 70
0
 40
1.0
 71
1
 41
1.0
 91
-1023410177
 42
1.0
 72
1
  3

 73
1
 74
1
 75
1
 44
0.5
 73
0
 45
1.0
 46
1.0
 77
1
  4

 78
1
 79
1
170
1
 48
1.0
171
1
  6

172
1
173
1
174
1
140
1.0
141
1.0
175
1
  7

176
1
177
1
178
1
143
1.0
179
1
  8

270
1
271
1
272
1
145
1.0
146
1.0
273
1
  9

274
1
275
1
276
1
 42
1.0
 72
1
  3

 73
1
 74
1
 75
1
 94
63
  0
MATERIAL
  5
21
102
{ACAD_REACTORS
330
E
102
}
330
E
100
AcDbMaterial
  1
Global
  2

 70
0
 40
1.0
 71
1
 41
1.0
 91
-1023410177
 42
1.0
 72
1
  3

 73
1
 74
1
 75
1
 44
0.5
 73
0
 45
1.0
 46
1.0
 77
1
  4

 78
1
 79
1
170
1
 48
1.0
171
1
  6

172
1
173
1
174
1
140
1.0
141
1.0
175
1
  7

176
1
177
1
178
1
143
1.0
179
1
  8

270
1
271
1
272
1
145
1.0
146
1.0
273
1
  9

274
1
275
1
276
1
 42
1.0
 72
1
  3

 73
1
 74
1
 75
1
 94
63
  0
MLINESTYLE
  5
22
102
{ACAD_REACTORS
330
10
102
}
330
10
100
AcDbMlineStyle
  2
Standard
 70
0
  3

 62
256
 51
90.0
 52
90.0
 71
2
 49
0.5
 62
256
  6
BYLAYER
 49
-0.5
 62
256
  6
BYLAYER
  0
MLEADERSTYLE
  5
2C
102
{ACAD_REACTORS
330
F
102
}
330
F
100
AcDbMLeaderStyle
179
2
170
2
171
1
172
0
 90
2
 40
0.0
 41
0.0
173
1
 91
-1056964608
 92
-2
290
1
 42
2.0
291
1
 43
8.0
  3
Standard
 44
4.0
300

342
29
174
1
175
1
176
0
178
1
 93
-1056964608
 45
4.0
292
0
297
0
 46
4.0
 94
-1056964608
 47
1.0
 49
1.0
140
1.0
294
1
141
0.0
177
0
142
1.0
295
0
296
0
143
3.75
271
0
272
9
273
9
  0
DICTIONARY
  5
2D
330
A
100
AcDbDictionary
280
1
281
1
  3
CREATED_BY_EZDXF
350
2E
  3
WRITTEN_BY_EZDXF
350
32
  0
DICTIONARYVAR
  5
2E
330
2D
100
DictionaryVariables
280
0
  1
1.3.5 @ 2025-08-20T01:28:29.646798+00:00
  0
DICTIONARYVAR
  5
32
330
2D
100
DictionaryVariables
280
0
  1
1.3.5 @ 2025-08-20T01:28:29.646798+00:00
  0
ENDSEC
  0
EOF
