  0
SECTION
  2
HEADER
  9
$ACADVER
  1
AC1032
  9
$ACADMAINTVER
 90
4
  9
$DWGCODEPAGE
  3
ANSI_1252
  9
$LASTSAVEDBY
  1
ezdxf
  9
$REQUIREDVERSIONS
160
0
  9
$INSBASE
 10
0.0
 20
0.0
 30
0.0
  9
$EXTMIN
 10
1e+20
 20
1e+20
 30
1e+20
  9
$EXTMAX
 10
-1e+20
 20
-1e+20
 30
-1e+20
  9
$LIMMIN
 10
0.0
 20
0.0
  9
$LIMMAX
 10
420.0
 20
297.0
  9
$ORTHOMODE
 70
0
  9
$REGENMODE
 70
1
  9
$FILLMODE
 70
1
  9
$QTEXTMODE
 70
0
  9
$MIRRTEXT
 70
1
  9
$LTSCALE
 40
1.0
  9
$ATTMODE
 70
1
  9
$TEXTSIZE
 40
2.5
  9
$TRACEWID
 40
1.0
  9
$TEXTSTYLE
  7
Standard
  9
$CLAYER
  8
0
  9
$CELTYPE
  6
ByLayer
  9
$CECOLOR
 62
256
  9
$CELTSCALE
 40
1.0
  9
$DISPSILH
 70
0
  9
$DIMSCALE
 40
1.0
  9
$DIMASZ
 40
2.5
  9
$DIMEXO
 40
0.625
  9
$DIMDLI
 40
3.75
  9
$DIMRND
 40
0.0
  9
$DIMDLE
 40
0.0
  9
$DIMEXE
 40
1.25
  9
$DIMTP
 40
0.0
  9
$DIMTM
 40
0.0
  9
$DIMTXT
 40
2.5
  9
$DIMCEN
 40
2.5
  9
$DIMTSZ
 40
0.0
  9
$DIMTOL
 70
0
  9
$DIMLIM
 70
0
  9
$DIMTIH
 70
0
  9
$DIMTOH
 70
0
  9
$DIMSE1
 70
0
  9
$DIMSE2
 70
0
  9
$DIMTAD
 70
1
  9
$DIMZIN
 70
8
  9
$DIMBLK
  1

  9
$DIMASO
 70
1
  9
$DIMSHO
 70
1
  9
$DIMPOST
  1

  9
$DIMAPOST
  1

  9
$DIMALT
 70
0
  9
$DIMALTD
 70
3
  9
$DIMALTF
 40
0.03937007874
  9
$DIMLFAC
 40
1.0
  9
$DIMTOFL
 70
1
  9
$DIMTVP
 40
0.0
  9
$DIMTIX
 70
0
  9
$DIMSOXD
 70
0
  9
$DIMSAH
 70
0
  9
$DIMBLK1
  1

  9
$DIMBLK2
  1

  9
$DIMSTYLE
  2
ISO-25
  9
$DIMCLRD
 70
0
  9
$DIMCLRE
 70
0
  9
$DIMCLRT
 70
0
  9
$DIMTFAC
 40
1.0
  9
$DIMGAP
 40
0.625
  9
$DIMJUST
 70
0
  9
$DIMSD1
 70
0
  9
$DIMSD2
 70
0
  9
$DIMTOLJ
 70
0
  9
$DIMTZIN
 70
8
  9
$DIMALTZ
 70
0
  9
$DIMALTTZ
 70
0
  9
$DIMUPT
 70
0
  9
$DIMDEC
 70
2
  9
$DIMTDEC
 70
2
  9
$DIMALTU
 70
2
  9
$DIMALTTD
 70
3
  9
$DIMTXSTY
  7
Standard
  9
$DIMAUNIT
 70
0
  9
$DIMADEC
 70
0
  9
$DIMALTRND
 40
0.0
  9
$DIMAZIN
 70
0
  9
$DIMDSEP
 70
44
  9
$DIMATFIT
 70
3
  9
$DIMFRAC
 70
0
  9
$DIMLDRBLK
  1

  9
$DIMLUNIT
 70
2
  9
$DIMLWD
 70
-2
  9
$DIMLWE
 70
-2
  9
$DIMTMOVE
 70
0
  9
$DIMFXL
 40
1.0
  9
$DIMFXLON
 70
0
  9
$DIMJOGANG
 40
0.785398163397
  9
$DIMTFILL
 70
0
  9
$DIMTFILLCLR
 70
0
  9
$DIMARCSYM
 70
0
  9
$DIMLTYPE
  6

  9
$DIMLTEX1
  6

  9
$DIMLTEX2
  6

  9
$DIMTXTDIRECTION
 70
0
  9
$LUNITS
 70
2
  9
$LUPREC
 70
4
  9
$SKETCHINC
 40
1.0
  9
$FILLETRAD
 40
10.0
  9
$AUNITS
 70
0
  9
$AUPREC
 70
2
  9
$MENU
  1
.
  9
$ELEVATION
 40
0.0
  9
$PELEVATION
 40
0.0
  9
$THICKNESS
 40
0.0
  9
$LIMCHECK
 70
0
  9
$CHAMFERA
 40
0.0
  9
$CHAMFERB
 40
0.0
  9
$CHAMFERC
 40
0.0
  9
$CHAMFERD
 40
0.0
  9
$SKPOLY
 70
0
  9
$TDCREATE
 40
2460908.103113426
  9
$TDUCREATE
 40
2458532.153996898
  9
$TDUPDATE
 40
2460908.103113426
  9
$TDUUPDATE
 40
2458532.1544311
  9
$TDINDWG
 40
0.0
  9
$TDUSRTIMER
 40
0.0
  9
$USRTIMER
 70
1
  9
$ANGBASE
 50
0.0
  9
$ANGDIR
 70
0
  9
$PDMODE
 70
0
  9
$PDSIZE
 40
0.0
  9
$PLINEWID
 40
0.0
  9
$SPLFRAME
 70
0
  9
$SPLINETYPE
 70
6
  9
$SPLINESEGS
 70
8
  9
$HANDSEED
  5
33
  9
$SURFTAB1
 70
6
  9
$SURFTAB2
 70
6
  9
$SURFTYPE
 70
6
  9
$SURFU
 70
6
  9
$SURFV
 70
6
  9
$UCSBASE
  2

  9
$UCSNAME
  2

  9
$UCSORG
 10
0.0
 20
0.0
 30
0.0
  9
$UCSXDIR
 10
1.0
 20
0.0
 30
0.0
  9
$UCSYDIR
 10
0.0
 20
1.0
 30
0.0
  9
$UCSORTHOREF
  2

  9
$UCSORTHOVIEW
 70
0
  9
$UCSORGTOP
 10
0.0
 20
0.0
 30
0.0
  9
$UCSORGBOTTOM
 10
0.0
 20
0.0
 30
0.0
  9
$UCSORGLEFT
 10
0.0
 20
0.0
 30
0.0
  9
$UCSORGRIGHT
 10
0.0
 20
0.0
 30
0.0
  9
$UCSORGFRONT
 10
0.0
 20
0.0
 30
0.0
  9
$UCSORGBACK
 10
0.0
 20
0.0
 30
0.0
  9
$PUCSBASE
  2

  9
$PUCSNAME
  2

  9
$PUCSORG
 10
0.0
 20
0.0
 30
0.0
  9
$PUCSXDIR
 10
1.0
 20
0.0
 30
0.0
  9
$PUCSYDIR
 10
0.0
 20
1.0
 30
0.0
  9
$PUCSORTHOREF
  2

  9
$PUCSORTHOVIEW
 70
0
  9
$PUCSORGTOP
 10
0.0
 20
0.0
 30
0.0
  9
$PUCSORGBOTTOM
 10
0.0
 20
0.0
 30
0.0
  9
$PUCSORGLEFT
 10
0.0
 20
0.0
 30
0.0
  9
$PUCSORGRIGHT
 10
0.0
 20
0.0
 30
0.0
  9
$PUCSORGFRONT
 10
0.0
 20
0.0
 30
0.0
  9
$PUCSORGBACK
 10
0.0
 20
0.0
 30
0.0
  9
$USERI1
 70
0
  9
$USERI2
 70
0
  9
$USERI3
 70
0
  9
$USERI4
 70
0
  9
$USERI5
 70
0
  9
$USERR1
 40
0.0
  9
$USERR2
 40
0.0
  9
$USERR3
 40
0.0
  9
$USERR4
 40
0.0
  9
$USERR5
 40
0.0
  9
$WORLDVIEW
 70
1
  9
$SHADEDGE
 70
3
  9
$SHADEDIF
 70
70
  9
$TILEMODE
 70
1
  9
$MAXACTVP
 70
64
  9
$PINSBASE
 10
0.0
 20
0.0
 30
0.0
  9
$PLIMCHECK
 70
0
  9
$PEXTMIN
 10
1e+20
 20
1e+20
 30
1e+20
  9
$PEXTMAX
 10
-1e+20
 20
-1e+20
 30
-1e+20
  9
$PLIMMIN
 10
0.0
 20
0.0
  9
$PLIMMAX
 10
420.0
 20
297.0
  9
$UNITMODE
 70
0
  9
$VISRETAIN
 70
1
  9
$PLINEGEN
 70
0
  9
$PSLTSCALE
 70
1
  9
$TREEDEPTH
 70
3020
  9
$CMLSTYLE
  2
Standard
  9
$CMLJUST
 70
0
  9
$CMLSCALE
 40
20.0
  9
$PROXYGRAPHICS
 70
1
  9
$MEASUREMENT
 70
1
  9
$CELWEIGHT
370
-1
  9
$ENDCAPS
280
0
  9
$JOINSTYLE
280
0
  9
$LWDISPLAY
290
0
  9
$INSUNITS
 70
6
  9
$HYPERLINKBASE
  1

  9
$STYLESHEET
  1

  9
$XEDIT
290
1
  9
$CEPSNTYPE
380
0
  9
$PSTYLEMODE
290
1
  9
$FINGERPRINTGUID
  2
{38A2A0A5-D8EE-4D61-9BE8-54905316C604}
  9
$VERSIONGUID
  2
{3D2BDE77-6185-4532-9EB2-60C831E021CA}
  9
$EXTNAMES
290
1
  9
$PSVPSCALE
 40
0.0
  9
$OLESTARTUP
290
0
  9
$SORTENTS
280
127
  9
$INDEXCTL
280
0
  9
$HIDETEXT
280
1
  9
$XCLIPFRAME
280
1
  9
$HALOGAP
280
0
  9
$OBSCOLOR
 70
257
  9
$OBSLTYPE
280
0
  9
$INTERSECTIONDISPLAY
280
0
  9
$INTERSECTIONCOLOR
 70
257
  9
$DIMASSOC
280
2
  9
$PROJECTNAME
  1

  9
$CAMERADISPLAY
290
0
  9
$LENSLENGTH
 40
50.0
  9
$CAMERAHEIGHT
 40
0.0
  9
$STEPSPERSEC
 40
24.0
  9
$STEPSIZE
 40
100.0
  9
$3DDWFPREC
 40
2.0
  9
$PSOLWIDTH
 40
0.005
  9
$PSOLHEIGHT
 40
0.08
  9
$LOFTANG1
 40
1.570796326795
  9
$LOFTANG2
 40
1.570796326795
  9
$LOFTMAG1
 40
0.0
  9
$LOFTMAG2
 40
0.0
  9
$LOFTPARAM
 70
7
  9
$LOFTNORMALS
280
1
  9
$LATITUDE
 40
37.795
  9
$LONGITUDE
 40
-122.394
  9
$NORTHDIRECTION
 40
0.0
  9
$TIMEZONE
 70
-8000
  9
$LIGHTGLYPHDISPLAY
280
1
  9
$TILEMODELIGHTSYNCH
280
1
  9
$CMATERIAL
347
20
  9
$SOLIDHIST
280
0
  9
$SHOWHIST
280
1
  9
$DWFFRAME
280
2
  9
$DGNFRAME
280
2
  9
$REALWORLDSCALE
290
1
  9
$INTERFERECOLOR
 62
256
  9
$CSHADOW
280
0
  9
$SHADOWPLANELOCATION
 40
0.0
  0
ENDSEC
  0
SECTION
  2
CLASSES
  0
CLASS
  1
ACDBDICTIONARYWDFLT
  2
AcDbDictionaryWithDefault
  3
ObjectDBX Classes
 90
0
 91
0
280
0
281
0
  0
CLASS
  1
SUN
  2
AcDbSun
  3
SCENEOE
 90
1153
 91
0
280
0
281
0
  0
CLASS
  1
VISUALSTYLE
  2
AcDbVisualStyle
  3
ObjectDBX Classes
 90
4095
 91
0
280
0
281
0
  0
CLASS
  1
MATERIAL
  2
AcDbMaterial
  3
ObjectDBX Classes
 90
1153
 91
0
280
0
281
0
  0
CLASS
  1
SCALE
  2
AcDbScale
  3
ObjectDBX Classes
 90
1153
 91
0
280
0
281
0
  0
CLASS
  1
TABLESTYLE
  2
AcDbTableStyle
  3
ObjectDBX Classes
 90
4095
 91
0
280
0
281
0
  0
CLASS
  1
MLEADERSTYLE
  2
AcDbMLeaderStyle
  3
ACDB_MLEADERSTYLE_CLASS
 90
4095
 91
0
280
0
281
0
  0
CLASS
  1
DICTIONARYVAR
  2
AcDbDictionaryVar
  3
ObjectDBX Classes
 90
0
 91
0
280
0
281
0
  0
CLASS
  1
CELLSTYLEMAP
  2
AcDbCellStyleMap
  3
ObjectDBX Classes
 90
1152
 91
0
280
0
281
0
  0
CLASS
  1
MENTALRAYRENDERSETTINGS
  2
AcDbMentalRayRenderSettings
  3
SCENEOE
 90
1024
 91
0
280
0
281
0
  0
CLASS
  1
ACDBDETAILVIEWSTYLE
  2
AcDbDetailViewStyle
  3
ObjectDBX Classes
 90
1025
 91
0
280
0
281
0
  0
CLASS
  1
ACDBSECTIONVIEWSTYLE
  2
AcDbSectionViewStyle
  3
ObjectDBX Classes
 90
1025
 91
0
280
0
281
0
  0
CLASS
  1
RASTERVARIABLES
  2
AcDbRasterVariables
  3
ISM
 90
0
 91
0
280
0
281
0
  0
CLASS
  1
LAYOUT
  2
AcDbLayout
  3
ObjectDBX Classes
 90
0
 91
0
280
0
281
0
  0
CLASS
  1
ACDBPLACEHOLDER
  2
AcDbPlaceHolder
  3
ObjectDBX Classes
 90
0
 91
0
280
0
281
0
  0
ENDSEC
  0
SECTION
  2
TABLES
  0
TABLE
  2
VPORT
  5
8
330
0
100
AcDbSymbolTable
 70
1
  0
VPORT
  5
23
330
8
100
AcDbSymbolTableRecord
100
AcDbViewportTableRecord
  2
*Active
 70
0
 10
0.0
 20
0.0
 11
1.0
 21
1.0
 12
0.0
 22
0.0
 13
0.0
 23
0.0
 14
0.5
 24
0.5
 15
0.5
 25
0.5
 16
0.0
 26
0.0
 36
1.0
 17
0.0
 27
0.0
 37
0.0
 40
1000.0
 41
1.34
 42
50.0
 43
0.0
 44
0.0
 50
0.0
 51
0.0
 71
0
 72
1000
 73
1
 74
3
 75
0
 76
0
 77
0
 78
0
281
0
 65
0
146
0.0
  0
ENDTAB
  0
TABLE
  2
LTYPE
  5
2
330
0
100
AcDbSymbolTable
 70
3
  0
LTYPE
  5
24
330
2
100
AcDbSymbolTableRecord
100
AcDbLinetypeTableRecord
  2
ByBlock
 70
0
  3

 72
65
 73
0
 40
0.0
  0
LTYPE
  5
25
330
2
100
AcDbSymbolTableRecord
100
AcDbLinetypeTableRecord
  2
ByLayer
 70
0
  3

 72
65
 73
0
 40
0.0
  0
LTYPE
  5
26
330
2
100
AcDbSymbolTableRecord
100
AcDbLinetypeTableRecord
  2
Continuous
 70
0
  3

 72
65
 73
0
 40
0.0
  0
ENDTAB
  0
TABLE
  2
LAYER
  5
1
330
0
100
AcDbSymbolTable
 70
2
  0
LAYER
  5
27
330
1
100
AcDbSymbolTableRecord
100
AcDbLayerTableRecord
  2
0
 70
0
 62
7
  6
Continuous
370
-3
390
13
347
21
  0
LAYER
  5
28
330
1
100
AcDbSymbolTableRecord
100
AcDbLayerTableRecord
  2
Defpoints
 70
0
 62
7
  6
Continuous
290
0
370
-3
390
13
347
21
  0
ENDTAB
  0
TABLE
  2
STYLE
  5
5
330
0
100
AcDbSymbolTable
 70
1
  0
STYLE
  5
29
330
5
100
AcDbSymbolTableRecord
100
AcDbTextStyleTableRecord
  2
Standard
 70
0
 40
0.0
 41
1.0
 50
0.0
 71
0
 42
2.5
  3
txt
  4

  0
ENDTAB
  0
TABLE
  2
VIEW
  5
7
330
0
100
AcDbSymbolTable
 70
0
  0
ENDTAB
  0
TABLE
  2
UCS
  5
6
330
0
100
AcDbSymbolTable
 70
0
  0
ENDTAB
  0
TABLE
  2
APPID
  5
3
330
0
100
AcDbSymbolTable
 70
3
  0
APPID
  5
2A
330
3
100
AcDbSymbolTableRecord
100
AcDbRegAppTableRecord
  2
ACAD
 70
0
  0
APPID
  5
30
330
3
100
AcDbSymbolTableRecord
100
AcDbRegAppTableRecord
  2
HATCHBACKGROUNDCOLOR
 70
0
  0
APPID
  5
31
330
3
100
AcDbSymbolTableRecord
100
AcDbRegAppTableRecord
  2
EZDXF
 70
0
  0
ENDTAB
  0
TABLE
  2
DIMSTYLE
  5
4
330
0
100
AcDbSymbolTable
 70
1
100
AcDbDimStyleTable
  0
DIMSTYLE
105
2B
330
4
100
AcDbSymbolTableRecord
100
AcDbDimStyleTableRecord
  2
Standard
 70
0
 40
1.0
 41
2.5
 42
0.625
 43
3.75
 44
1.25
 45
0.0
 46
0.0
 47
0.0
 48
0.0
 49
2.5
140
2.5
141
2.5
142
0.0
143
0.03937007874
144
1.0
145
0.0
146
1.0
147
0.625
148
0.0
 69
0
 70
0
 71
0
 72
0
 73
0
 74
0
 75
0
 76
0
 77
1
 78
8
 79
3
170
0
171
3
172
1
173
0
174
0
175
0
176
0
177
0
178
0
179
2
271
2
272
2
273
2
274
3
275
0
276
0
277
2
278
44
279
0
280
0
281
0
282
0
283
0
284
8
285
0
286
0
288
0
289
3
290
0
371
-2
372
-2
  0
ENDTAB
  0
TABLE
  2
BLOCK_RECORD
  5
9
330
0
100
AcDbSymbolTable
 70
2
  0
BLOCK_RECORD
  5
17
330
9
100
AcDbSymbolTableRecord
100
AcDbBlockTableRecord
  2
*Model_Space
340
1A
 70
0
280
1
281
0
  0
BLOCK_RECORD
  5
1B
330
9
100
AcDbSymbolTableRecord
100
AcDbBlockTableRecord
  2
*Paper_Space
340
1E
 70
0
280
1
281
0
  0
ENDTAB
  0
ENDSEC
  0
SECTION
  2
BLOCKS
  0
BLOCK
  5
18
330
17
100
AcDbEntity
  8
0
100
AcDbBlockBegin
  2
*Model_Space
 70
0
 10
0.0
 20
0.0
 30
0.0
  3
*Model_Space
  1

  0
ENDBLK
  5
19
330
17
100
AcDbEntity
  8
0
100
AcDbBlockEnd
  0
BLOCK
  5
1C
330
1B
100
AcDbEntity
  8
0
100
AcDbBlockBegin
  2
*Paper_Space
 70
0
 10
0.0
 20
0.0
 30
0.0
  3
*Paper_Space
  1

  0
ENDBLK
  5
1D
330
1B
100
AcDbEntity
  8
0
100
AcDbBlockEnd
  0
ENDSEC
  0
SECTION
  2
ENTITIES
  0
LWPOLYLINE
  5
2F
330
17
100
AcDbEntity
  8
0
100
AcDbPolyline
 90
721
 70
1
 10
89.3823117606804
 20
41.650939989621826
 10
89.3793523736777
 20
41.65067765672379
 10
89.37059783233371
 20
41.649623192034454
 10
89.35629494373991
 20
41.64724259875907
 10
89.33618741505535
 20
41.64373959081801
 10
89.31072626912238
 20
41.638839938970634
 10
89.27971689943583
 20
41.63261389133842
 10
89.24308794866609
 20
41.62486503164405
 10
89.20110544239601
 20
41.615719394443936
 10
89.15369802329602
 20
41.604980563460764
 10
89.1006092132808
 20
41.59285265341303
 10
89.04222853410113
 20
41.579194500060765
 10
88.97842281859536
 20
41.563943420124204
 10
88.90913031867956
 20
41.5472330130016
 10
88.8344745305216
 20
41.528796079896495
 10
88.75433183445745
 20
41.508900086804125
 10
88.66889702223646
 20
41.487474384804806
 10
88.57803692669707
 20
41.464456290618806
 10
88.48168979975527
 20
41.439979403644344
 10
88.38011205774835
 20
41.413839742762306
 10
88.27304709909477
 20
41.38624168988999
 10
88.16061835821435
 20
41.356918179830366
 10
88.04296830277401
 20
41.32626257953575
 10
87.91975954986125
 20
41.29395243817228
 10
87.79139104522828
 20
41.26017700797381
 10
87.6575967015441
 20
41.224810387983226
 10
87.51850937722996
 20
41.18791592947726
 10
87.37412901053774
 20
41.14949376605533
 10
87.22439379163546
 20
41.109677630715055
 10
87.06930353527883
 20
41.06846792425462
 10
86.90898167588767
 20
41.025597581476994
 10
86.74330465554604
 20
40.981333934778
 10
86.57246701901096
 20
40.93560686963556
 10
86.39627397453302
 20
40.88848703496935
 10
86.21484877128782
 20
40.83970776638053
 10
86.02820095677293
 20
40.789599213144065
 10
85.83626859766012
 20
40.738295375456396
 10
85.63923681470506
 20
40.68539572232162
 10
85.43684888283019
 20
40.631104902855895
 10
85.22943257570226
 20
40.575415352217405
 10
85.01665987266213
 20
40.51833516964553
 10
84.79879673754458
 20
40.45999052329613
 10
84.57570994143991
 20
40.400318863488884
 10
84.3475324045174
 20
40.3393834079011
 10
84.11419264595129
 20
40.27698800745422
 10
83.87582358591087
 20
40.213195879825584
 10
83.63216849931854
 20
40.148211674131296
 10
83.38355509809296
 20
40.08202795912899
 10
83.12985015332448
 20
40.014582185138345
 10
82.87105354151691
 20
39.94587461935814
 10
82.60716495392984
 20
39.87590592978538
 10
82.33825568614475
 20
39.80487266629682
 10
82.06425413383975
 20
39.73257894701269
 10
81.78523153084821
 20
39.659221455409146
 10
81.50124931651372
 20
39.584667260084956
 10
81.2124309252561
 20
39.50864929584308
 10
80.91878565758057
 20
39.43149824635609
 10
80.62005685015754
 20
39.353418627140684
 10
80.31624419424662
 20
39.274411106193874
 10
80.0076659160171
 20
39.19413796939891
 10
79.69426002039266
 20
39.112733350551615
 10
79.3760263838771
 20
39.03019751685078
 10
79.0527794534782
 20
38.94693193448807
 10
78.72482778437141
 20
38.86226900727056
 10
78.39218080055818
 20
38.776539151672026
 10
78.05477656871027
 20
38.689876367888914
 10
77.71242005008595
 20
38.60235183923848
 10
77.36543889485583
 20
38.513958268077765
 10
77.01376156044608
 20
38.42449963892761
 10
76.65738792336052
 20
38.33397621898681
 10
76.29632728410441
 20
38.24271869192796
 10
75.93082638802115
 20
38.150193194555726
 10
75.56062857178127
 20
38.05660424238682
 10
75.18593792763939
 20
37.96221187017415
 10
74.8067542703513
 20
37.867016478715925
 10
74.42306786717512
 20
37.77068831953531
 10
74.03481666128653
 20
37.67336166002757
 10
73.64226661652023
 20
37.575162668348526
 10
73.2451609460506
 20
37.476296127213715
 10
72.8436847088852
 20
37.37636163922666
 10
72.43797076344525
 20
37.275422555664086
 10
72.0280189244865
 20
37.17347927732418
 10
71.61370538710062
 20
37.07079967100038
 10
71.19502996604338
 20
36.967384137490896
 10
70.77205422415447
 20
36.8630994781957
 10
70.34510587335262
 20
36.75793826187244
 10
69.9138567077344
 20
36.65190898855863
 10
69.4784396474691
 20
36.54507487593161
 10
69.03917285697798
 20
36.43709834347407
 10
68.59586117402304
 20
36.32805084170205
 10
68.14845227452173
 20
36.21839638648758
 10
67.69707907864336
 20
36.108198195508
 10
67.2415985629883
 20
35.997064104205556
 10
66.78246205913935
 20
35.88471921534264
 10
66.31942232776836
 20
35.77169846090978
 10
65.85254093171505
 20
35.65786864230691
 10
65.38175587590315
 20
35.54336389332989
 10
64.90732351492171
 20
35.42798036645896
 10
64.42924372527466
 20
35.31171832889293
 10
63.947383092807925
 20
35.19451563174965
 10
63.46194589502046
 20
35.07663190898383
 10
62.97279884125448
 20
34.95800474451451
 10
62.480198347847185
 20
34.838430157222604
 10
61.98414416780619
 20
34.71790868150566
 10
61.484769283048934
 20
34.59650340144166
 10
60.98187853133747
 20
34.47428576754664
 10
60.47548139842126
 20
34.351586062695006
 10
59.96562965265016
 20
34.227941473409345
 10
59.452660985677
 20
34.10367378252649
 10
58.936555808522
 20
33.978123760291645
 10
58.41725206436078
 20
33.85142567410003
 10
57.89483071976859
 20
33.724105955904605
 10
57.36922977966914
 20
33.59629873950119
 10
56.84036796874679
 20
33.46747826093382
 10
56.30890132831978
 20
33.337628321723784
 10
55.77449185799487
 20
33.20642780703127
 10
55.23722040085106
 20
33.074403416007975
 10
54.6968918563986
 20
32.941626465570636
 10
54.1538341835485
 20
32.80808899007926
 10
53.60809927414673
 20
32.67332790885766
 10
53.05969661394279
 20
32.53767350478019
 10
52.508502459776416
 20
32.40139351104091
 10
51.95482542857123
 20
32.26382019784749
 10
51.39872708316693
 20
32.1248203665999
 10
50.84016489397084
 20
31.985187648047546
 10
50.278934027751326
 20
31.844663610630313
 10
49.71523894725151
 20
31.7035074875047
 10
49.14945001747898
 20
31.560917949480167
 10
48.581505305105516
 20
31.417028996753103
 10
48.01128119046704
 20
31.272108095318796
 10
47.438592120571265
 20
31.126556711368874
 10
46.863951545573464
 20
30.97996554667115
 10
46.287339691249606
 20
30.831675772269016
 10
45.70897100007694
 20
30.68227583539817
 10
45.1282699650759
 20
30.53230930168607
 10
44.54561680749197
 20
30.381304323220128
 10
43.961258210920576
 20
30.22872717040445
 10
43.37533719876134
 20
30.074970007796775
 10
42.78752525637041
 20
29.92004200343162
 10
42.19802703173523
 20
29.764201989667313
 10
41.60677085878577
 20
29.607254218223467
 10
41.01401340085157
 20
29.448994173583383
 10
40.41988782509428
 20
29.289484539026795
 10
39.82426065561183
 20
29.12866329927095
 10
39.22739841197174
 20
28.966655420077142
 10
38.62903432761417
 20
28.80333647008168
 10
38.02931130244256
 20
28.639098881041093
 10
37.42829114628895
 20
28.473808919957754
 10
36.82628235258077
 20
28.30679912423814
 10
36.22316130165395
 20
28.138336959877492
 10
35.619132826740156
 20
27.96868085843592
 10
35.01386841319556
 20
27.797839987947967
 10
34.407758076755584
 20
27.625672115378457
 10
33.80086350375611
 20
27.452043774928573
 10
33.19324638053304
 20
27.276821500799482
 10
32.58478296392608
 20
27.100273026185224
 10
31.975544920005277
 20
26.922594099366183
 10
31.365532063526366
 20
26.74378512114055
 10
30.755062929399035
 20
26.5635077093946
 10
30.144065851553258
 20
26.38156611584795
 10
29.532735806982704
 20
26.19788929078272
 10
28.92102090384139
 20
26.012940314875127
 10
28.30860242197542
 20
25.82705797103711
 10
27.69587056236447
 20
25.640099625435305
 10
27.083185895526196
 20
25.450934334001758
 10
26.470177747712636
 20
25.26036409392402
 10
25.857051260895847
 20
25.06864666876522
 10
25.243796331845545
 20
24.875453111644944
 10
24.630474770393725
 20
24.680649689565573
 10
24.01716797535225
 20
24.484761899284276
 10
23.403804404147248
 20
24.28759372532188
 10
22.790702529940326
 20
24.08880691916405
 10
22.177728938577502
 20
23.888339331928645
 10
21.565088772030858
 20
23.686448727178792
 10
20.952720158720254
 20
23.483268971511496
 10
20.340808404645664
 20
23.2783991331327
 10
19.729291638226936
 20
23.07197307863941
 10
19.1182415872822
 20
22.86418642271262
 10
18.5073395934056
 20
22.655377814664845
 10
17.897222973408816
 20
22.444869955871038
 10
17.287891727291854
 20
22.232662846331188
 10
16.67928416871884
 20
22.01888995184413
 10
16.07133842610965
 20
21.803685139006884
 10
15.464249846946469
 20
21.586976556505185
 10
14.857823207243282
 20
21.368835788454497
 10
14.252387145140066
 20
21.149253399621504
 10
13.648065218552833
 20
20.927962057610348
 10
13.04479567939762
 20
20.70509536181926
 10
12.442516841338549
 20
20.480786778047065
 10
11.841290452459598
 20
20.254902706895546
 10
11.241507084228925
 20
20.027299712934944
 10
10.642909702828494
 20
19.79818311327836
 10
10.045508411488633
 20
19.567881854806206
 10
9.449478474727059
 20
19.335665925244605
 10
8.854963409928025
 20
19.101926420356094
 10
8.26177815808397
 20
18.867063737537176
 10
7.669974364048498
 20
18.63061533050921
 10
7.079942722785991
 20
18.39243749664366
 10
6.49155979987661
 20
18.152797301137568
 10
5.9048155538381195
 20
17.911365663511138
 10
5.319853687299072
 20
17.668533278728727
 10
4.736664220525319
 20
17.42397093271114
 10
4.155452542481262
 20
17.177935854623893
 10
3.5757664571109333
 20
16.93070481209618
 10
2.9979966593786913
 20
16.682134102499447
 10
2.4223901416203564
 20
16.4316893282408
 10
1.848885340996214
 20
16.17950368792026
 10
1.2774305509045523
 20
15.926039861415862
 10
0.70808776642167
 20
15.671163714931788
 10
0.14091879737958612
 20
15.414741515470416
 10
-0.42394269507537385
 20
15.156834877516296
 10
-0.9867537447612686
 20
14.89764911818253
 10
-1.5475040014554473
 20
14.637512649951937
 10
-2.105812873423858
 20
14.375952823315558
 10
-2.661556741002421
 20
14.112702172278157
 10
-3.21485891511481
 20
13.848027494837975
 10
-3.765641863623009
 20
13.58211184733257
 10
-4.314029182735667
 20
13.314871838575467
 10
-4.859948835894244
 20
13.046502415250655
 10
-5.403328971784471
 20
12.777198924840311
 10
-5.944056197468754
 20
12.506365221667586
 10
-6.481996913548869
 20
12.234063053816426
 10
-7.017326261046374
 20
11.961022166361913
 10
-7.5500543431915625
 20
11.686913612423648
 10
-8.07985221310405
 20
11.411727288771312
 10
-8.60698706958028
 20
11.135339699236992
 10
-9.131191713823794
 20
10.857874339988603
 10
-9.65245604260428
 20
10.579660157906552
 10
-10.171109002802151
 20
10.300707256221148
 10
-10.686708254599404
 20
10.020409386025221
 10
-11.199357087703314
 20
9.739691639876034
 10
-11.709312597680004
 20
9.458759468486093
 10
-12.216337895423996
 20
9.17674952738207
 10
-12.720032182740596
 20
8.893847060815848
 10
-13.220714303279902
 20
8.610391118898134
 10
-13.718446005125864
 20
8.326515301027165
 10
-14.213103792110564
 20
8.041952408406488
 10
-14.704482213521517
 20
7.756959536602234
 10
-15.192848468155171
 20
7.471413189446496
 10
-15.678120601466942
 20
7.18583766130186
 10
-16.16017511728892
 20
6.899965753371874
 10
-16.63895026753714
 20
6.613663866258315
 10
-17.11450780029557
 20
6.327065599359406
 10
-17.586837612333888
 20
6.040499899555552
 10
-18.056073303050315
 20
5.753905018762804
 10
-18.521824177480497
 20
5.4671372543526155
 10
-18.984090235624432
 20
5.180196606324988
 10
-19.44294332879639
 20
4.892887727197738
 10
-19.8983116056821
 20
4.605405964453048
 10
-20.350380310533424
 20
4.318152116285598
 10
-20.799077592036088
 20
4.031321530177566
 10
-21.244156457854285
 20
3.744379808536048
 10
-21.68575050738623
 20
3.4572652032770925
 10
-22.123397194353302
 20
3.1700293592543303
 10
-22.557548961803803
 20
2.8829495784945394
 10
-22.988267557821693
 20
2.5961594603959375
 10
-23.41528578361052
 20
2.309782501126441
 10
-23.838541891086336
 20
2.0236851012878185
 10
-24.25798423539549
 20
1.737404714601441
 10
-24.673726209475586
 20
1.4515374867441657
 10
-25.085953057578486
 20
1.1664842159106674
 10
-25.494222439886183
 20
0.8816386531937774
 10
-25.898667955796906
 20
0.5969390505095363
 10
-26.299145902682124
 20
0.31277610282230417
 10
-26.695789879940047
 20
0.02908806204813118
 10
-27.088661635654642
 20
-0.25399147241476067
 10
-27.477442326175808
 20
-0.5368015506770922
 10
-27.862255447671465
 20
-0.819074973942413
 10
-28.2431010001416
 20
-1.1008117422107213
 10
-28.62022597592204
 20
-1.3814774578891138
 10
-28.993301428132384
 20
-1.6610822242079104
 10
-29.362409311317208
 20
-1.9401503355296938
 10
-29.727292529910383
 20
-2.218887242566962
 10
-30.088064476849507
 20
-2.4966967996428617
 10
-30.4449822477007
 20
-2.77337355604489
 10
-30.797665250729928
 20
-3.0493901612819956
 10
-31.14610338270688
 20
-3.3244176684737767
 10
-31.490625590511947
 20
-3.5984459743899113
 10
-31.83096467534868
 20
-3.871351582862491
 10
-32.166935392965236
 20
-4.143535292086202
 10
-32.498722987613455
 20
-4.414596303866355
 10
-32.826389207377304
 20
-4.684401018804731
 10
-33.14987230417282
 20
-4.953083036299551
 10
-33.46903867860178
 20
-5.220580608266861
 10
-33.78382658258023
 20
-5.487027334104895
 10
-34.09443136359036
 20
-5.752351362499375
 10
-34.4005858228357
 20
-6.016429197282388
 10
-34.70241345648417
 20
-6.27899363965749
 10
-35.00005796716432
 20
-6.5404353845890375
 10
-35.29311855668145
 20
-6.800569187825173
 10
-35.581667076349845
 20
-7.0595903968480656
 10
-35.86595051850533
 20
-7.316964614064817
 10
-36.145968883147894
 20
-7.572691839475432
 10
-36.42146507471141
 20
-7.826977523792403
 10
-36.692377345111915
 20
-8.079955266413956
 10
-36.958777545663686
 20
-8.331820414822271
 10
-37.22070721799004
 20
-8.581781475858312
 10
-37.478238213405255
 20
-8.830033797004258
 10
-37.73124703574141
 20
-9.07684457705656
 10
-37.97960008560031
 20
-9.322152067931267
 10
-38.22342085914981
 20
-9.56568907083192
 10
-38.462585860222056
 20
-9.807722784554974
 10
-38.69715683690096
 20
-10.048119609702209
 10
-38.92719553727051
 20
-10.286745946875392
 10
-39.15244486576454
 20
-10.523807246787023
 10
-39.37309006663493
 20
-10.75890271124242
 10
-39.5890177469441
 20
-10.99262848591845
 10
-39.80034129962962
 20
-11.224388425138251
 10
-40.006998976607555
 20
-11.454316128300043
 10
-40.208929029793936
 20
-11.682545194802058
 10
-40.40599785979054
 20
-11.909013876560337
 10
-40.59840081407954
 20
-12.133650322260616
 10
-40.78618953751459
 20
-12.355991985624257
 10
-40.969240533927774
 20
-12.576306065447714
 10
-41.1475538033191
 20
-12.794592561730983
 10
-41.32132469317072
 20
-13.010779623159799
 10
-41.490224256602254
 20
-13.22487735296447
 10
-41.65450958917984
 20
-13.436680300432505
 10
-41.814170587673146
 20
-13.645859518683501
 10
-41.969340851480396
 20
-13.8524767558014
 10
-42.119763285035475
 20
-14.056737462498713
 10
-42.26563323582054
 20
-14.25856978746116
 10
-42.406683505039155
 20
-14.457850234520834
 10
-42.54330478765568
 20
-14.654435101049193
 10
-42.67529163295762
 20
-14.848067291480103
 10
-42.802654144175264
 20
-15.039075752693968
 10
-42.92539232130865
 20
-15.22746048469079
 10
-43.04350616435775
 20
-15.413221487470567
 10
-43.15698557009227
 20
-15.596029814152894
 10
-43.2658305385122
 20
-15.775885464737769
 10
-43.369989424763894
 20
-15.953250985503827
 10
-43.469513873701
 20
-16.127663830172434
 10
-43.56415689298769
 20
-16.299658396336493
 10
-43.654165474959804
 20
-16.468700286403102
 10
-43.739292627281486
 20
-16.63532389796517
 10
-43.81966184612068
 20
-16.79926203222623
 10
-43.895273131477374
 20
-16.960514689186294
 10
-43.96593113586939
 20
-17.119153720159634
 10
-44.03202655426108
 20
-17.275035422517707
 10
-44.09297334420591
 20
-17.428375350203318
 10
-44.149295800066476
 20
-17.579091548671887
 10
-44.20066497496236
 20
-17.72719412115373
 10
-44.24726611314541
 20
-17.87228226945417
 10
-44.28910931784596
 20
-18.014684940453602
 10
-44.326122737749756
 20
-18.154206786669864
 10
-44.35855336519258
 20
-18.290313410510038
 10
-44.38634955532082
 20
-18.423467358252765
 10
-44.40950120490416
 20
-18.55333968301763
 10
-44.42813181011049
 20
-18.679663186008188
 10
-44.44248836327564
 20
-18.80190346963153
 10
-44.452570864399625
 20
-18.92006053388766
 10
-44.458636409048545
 20
-19.03392892806408
 10
-44.460726538845755
 20
-19.142717159001744
 10
-44.45922184552528
 20
-19.245952577191716
 10
-44.4548734093249
 20
-19.342360936735673
 10
-44.44784626803584
 20
-19.430883545678142
 10
-44.439261990399594
 20
-19.509444561731435
 10
-44.43024214515768
 20
-19.57596814260792
 10
-44.42200148752855
 20
-19.627124406582244
 10
-44.41621731900928
 20
-19.659635116782706
 10
-44.02412370302169
 20
-20.514642084440595
 10
-44.01843616217371
 20
-20.52028244015499
 10
-44.001435287713726
 20
-20.537069907899937
 10
-43.97336807197755
 20
-20.56447009008254
 10
-43.93305119813974
 20
-20.60469242838868
 10
-43.879455155233686
 20
-20.66066600634902
 10
-43.81565724422682
 20
-20.72538190717185
 10
-43.743438056323484
 20
-20.794636801428208
 10
-43.66386751541156
 20
-20.866817393109056
 10
-43.57810873185586
 20
-20.939056346767696
 10
-43.48658383901377
 20
-21.010089519736148
 10
-43.38986877610147
 20
-21.079372411191176
 10
-43.288076936056605
 20
-21.146308875455937
 10
-43.181455311214954
 20
-21.210364514937517
 10
-43.07012739774444
 20
-21.27127213083946
 10
-42.954093195645065
 20
-21.329031723161776
 10
-42.833548052399024
 20
-21.383571440590188
 10
-42.70848186477596
 20
-21.434562336244294
 10
-42.578832884691955
 20
-21.48213800952232
 10
-42.444796459629174
 20
-21.52622660910998
 10
-42.30611549402148
 20
-21.567033585719784
 10
-42.162851735952835
 20
-21.604425339953508
 10
-42.0153958803876
 20
-21.638258169182606
 10
-41.86316188487923
 20
-21.66874762734989
 10
-41.706612295706364
 20
-21.695945359309
 10
-41.54541816598859
 20
-21.719861468290254
 10
-41.37977484320808
 20
-21.740424102979382
 10
-41.20974407544881
 20
-21.757499663978148
 10
-41.03514061845889
 20
-21.77148894948124
 10
-40.85608796840625
 20
-21.782124760692206
 10
-40.672339132955074
 20
-21.789941495203944
 10
-40.4840793563572
 20
-21.794538354821782
 10
-40.291318741842964
 20
-21.796244286426123
 10
-40.09392369001413
 20
-21.79499754193301
 10
-39.89177070470281
 20
-21.7910653201389
 10
-39.68505513339116
 20
-21.784375769729525
 10
-39.47371522799525
 20
-21.775062490103103
 10
-39.25775098851505
 20
-21.763125481259635
 10
-39.03684357130049
 20
-21.748903793309847
 10
-38.81132192323197
 20
-21.732387323023424
 10
-38.580980593597005
 20
-21.713318974834227
 10
-38.34608678119202
 20
-21.69182224491016
 10
-38.106383390450915
 20
-21.66810258396374
 10
-37.86200402077189
 20
-21.6422217400789
 10
-37.612876820840675
 20
-21.61398436577347
 10
-37.35925888622343
 20
-21.583185010334955
 10
-37.10095486943794
 20
-21.549895525077613
 10
-36.83817022119673
 20
-21.514373005567595
 10
-36.570771342101544
 20
-21.476555703720937
 10
-36.298758232152416
 20
-21.43644361953764
 10
-36.022316135601194
 20
-21.393635954823033
 10
-35.7415786518461
 20
-21.348194457661062
 10
-35.456412181488915
 20
-21.300057379967775
 10
-35.16682682775995
 20
-21.249553668623584
 10
-34.872822590659204
 20
-21.19668332362848
 10
-34.5746464625225
 20
-21.14091194738956
 10
-34.27230854658016
 20
-21.08256848678724
 10
-33.965736991517915
 20
-21.02145759433933
 10
-33.65487004925179
 20
-20.957712869444062
 10
-33.33984131918003
 20
-20.891396060185382
 10
-33.02071254938658
 20
-20.822373567165076
 10
-32.69742199178749
 20
-20.750778989781363
 10
-32.36996964638275
 20
-20.67661232803424
 10
-32.038417261256335
 20
-20.599739982525488
 10
-31.702836687722495
 20
-20.52035730073728
 10
-31.36322792578125
 20
-20.438464282669624
 10
-31.01951912411831
 20
-20.35386558084033
 10
-30.671853985362233
 20
-20.26695189021377
 10
-30.32016065819873
 20
-20.177527863307763
 10
-29.964377394543867
 20
-20.085727099520525
 10
-29.604699541879803
 20
-19.99147774753779
 10
-29.241312344458425
 20
-19.89437900916488
 10
-28.874030558027854
 20
-19.79483168259647
 10
-28.502597087021957
 20
-19.693041218545066
 10
-28.127474477719367
 20
-19.5890592618643
 10
-27.74851902749155
 20
-19.482495117589814
 10
-27.365792484422435
 20
-19.373215186323367
 10
-26.9794385511406
 20
-19.26161016302934
 10
-26.58926188016384
 20
-19.147751899021998
 10
-26.195385967660076
 20
-19.031373195504887
 10
-25.797944413027526
 20
-18.912535800561958
 10
-25.396998964350146
 20
-18.791106114794992
 10
-24.99236437737607
 20
-18.66748493639866
 10
-24.584164148273217
 20
-18.541405066576523
 10
-24.17227478087368
 20
-18.413133704125016
 10
-23.757148718225757
 20
-18.282393547017385
 10
-23.33845701344905
 20
-18.149194698483935
 10
-22.916333265941795
 20
-18.013598906608628
 10
-22.490849327018243
 20
-17.87580151887364
 10
-22.061995093448097
 20
-17.735473588398566
 10
-21.629780668461667
 20
-17.592944062063818
 10
-21.194401399541125
 20
-17.448141088555115
 10
-20.75571358405794
 20
-17.300673972908108
 10
-20.313984420808566
 20
-17.150666211290694
 10
-19.869028665541123
 20
-16.99851860189756
 10
-19.420846318255624
 20
-16.844231144728692
 10
-18.969437378952065
 20
-16.68780383978411
 10
-18.515120691280536
 20
-16.528897636953076
 10
-18.05801975140895
 20
-16.367245337439137
 10
-17.59775396760326
 20
-16.203319590751256
 10
-17.13459053865992
 20
-16.037243893057333
 10
-16.668519361348604
 20
-15.868689297476962
 10
-16.199797531235458
 20
-15.697450353297643
 10
-15.728239804068615
 20
-15.523927858714062
 10
-15.253856283078383
 20
-15.348450760606617
 10
-14.776636865034463
 20
-15.170690112094906
 10
-14.296766794188706
 20
-14.990245114984251
 10
-13.814389773169658
 20
-14.807506464239012
 10
-13.329444053893356
 20
-14.622607759257413
 10
-12.841662437563368
 20
-14.435425503871551
 10
-12.351507470458309
 20
-14.246011342935054
 10
-11.858969049347872
 20
-14.054036329567527
 10
-11.36404717423205
 20
-13.859500463768963
 10
-10.86681369642512
 20
-13.66259909302154
 10
-10.366959875507302
 20
-13.464000214316394
 10
-9.864804555128694
 20
-13.263364777542803
 10
-9.360461128226884
 20
-13.0600966370239
 10
-8.85386784671792
 20
-12.85432939215792
 10
-8.345291909398247
 20
-12.646186539112763
 10
-7.834352724533829
 20
-12.436140727397385
 10
-7.321307387690803
 20
-12.223986506299292
 10
-6.8061558988691555
 20
-12.009723875818473
 10
-6.289021754236807
 20
-11.793085637158484
 10
-5.7698432057098055
 20
-11.574205389717552
 10
-5.2487639559166865
 20
-11.353473828460032
 10
-4.7256403022289115
 20
-11.13050025842157
 10
-4.200862939610832
 20
-10.905140976973614
 10
-3.674370119978502
 20
-10.677529583514396
 10
-3.1461000952479705
 20
-10.447799677442141
 10
-2.6159810141049538
 20
-10.215755911274668
 10
-2.084537170912061
 20
-9.981316330467395
 10
-1.5516967143549938
 20
-9.74428558753813
 10
-1.0169555565318138
 20
-9.50540353079228
 10
-0.4806426443229258
 20
-9.264660056999531
 10
0.05673793436971267
 20
-9.02131531785448
 10
0.5956386225944235
 20
-8.775646615383895
 10
1.1359875690369383
 20
-8.527849297069952
 10
1.6773940787328907
 20
-8.277779660284112
 10
2.2200636023947724
 20
-8.025180609460248
 10
2.763728941226149
 20
-7.770175640766252
 10
3.3087706869610445
 20
-7.513237403711089
 10
3.854931744033332
 20
-7.2541604475822545
 10
4.401769772625017
 20
-6.992338523472572
 10
4.949603616386186
 20
-6.728110681492768
 10
5.498546668254434
 20
-6.462073067319698
 10
6.04828026982391
 20
-6.193887031640839
 10
6.598886275598506
 20
-5.923378870076518
 10
7.150360263171607
 20
-5.650889820651782
 10
7.702455425451666
 20
-5.375885886571917
 10
8.255171885934846
 20
-5.09836733503572
 10
8.808623037558736
 20
-4.818930311720053
 10
9.362737276001395
 20
-4.537770698504689
 10
9.917586514325192
 20
-4.254693281506843
 10
10.472851970628104
 20
-3.9693591442151956
 10
11.028657202826142
 20
-3.682035619025587
 10
11.585002457911635
 20
-3.3927232403356173
 10
12.141754074738262
 20
-3.1014836226298437
 10
12.698726994298426
 20
-2.807916368511781
 10
13.25604471276003
 20
-2.512288676777878
 10
13.813687023662446
 20
-2.2152584411889524
 10
14.371859624710494
 20
-1.9165691005764613
 10
14.930110011107786
 20
-1.615943219314237
 10
15.48863365383267
 20
-1.3134529159153452
 10
16.04716335408869
 20
-1.0092216865476995
 10
16.605894521106098
 20
-0.7033215161249693
 10
17.164765468549056
 20
-0.3956189388483172
 10
17.723570745705032
 20
-0.08637105028389391
 10
18.282567448140203
 20
0.22421669885582304
 10
18.84169401301481
 20
0.5362775071708404
 10
19.400621308204236
 20
0.8498218786896866
 10
19.959544804686825
 20
1.1647776948992945
 10
20.51845439923225
 20
1.4808160089192497
 10
21.077236760650987
 20
1.7985328328270067
 10
21.63574806281836
 20
2.1175377388570213
 10
22.19411180190226
 20
2.437563528212822
 10
22.752266291566816
 20
2.7587436666932494
 10
23.310088035644128
 20
3.0813453530947505
 10
23.867700592050177
 20
3.405101255021473
 10
24.42495994941601
 20
3.729621345506048
 10
24.981876334468105
 20
4.055234304230086
 10
25.538501392060102
 20
4.381477584914956
 10
26.094649754443967
 20
4.708752252954132
 10
26.65025973528384
 20
5.0371917741464385
 10
27.205454830747613
 20
5.366528949695427
 10
27.760152715802203
 20
5.696240286834897
 10
28.314487175090097
 20
6.026387132850615
 10
28.86813924146501
 20
6.357308805052086
 10
29.421170539514765
 20
6.6888719712399
 10
29.973581130987416
 20
7.021076497814641
 10
30.52543264047077
 20
7.353789052576891
 10
31.076395812343986
 20
7.687020406753957
 10
31.62666617933351
 20
8.02069830823337
 10
32.176171519636554
 20
8.354628211129338
 10
32.72516923755968
 20
8.688603996732372
 10
33.273144586237855
 20
9.023037768862048
 10
33.82015937550313
 20
9.357795794520753
 10
34.36665594517349
 20
9.692271824801301
 10
34.911996299208354
 20
10.027144627922137
 10
35.45611850427949
 20
10.362548204079676
 10
35.99952683353313
 20
10.697742304170326
 10
36.54207709035604
 20
11.032337302024908
 10
37.08353250913889
 20
11.367196274917934
 10
37.62382099157507
 20
11.70212440976482
 10
38.162808567777866
 20
12.037060760078004
 10
38.700752518557664
 20
12.371799474346794
 10
39.237580683859754
 20
12.706145873085996
 10
39.773354626523854
 20
13.03996675769558
 10
40.30781706573956
 20
13.373467979686234
 10
40.84084425834665
 20
13.706917272252012
 10
41.37262138684889
 20
14.039913970797626
 10
41.9031483894982
 20
14.372458208922472
 10
42.432219136353154
 20
14.70429436065381
 10
42.96010125844679
 20
15.035544986963744
 10
43.48634169524996
 20
15.366488725873038
 10
44.01100207135046
 20
15.696992245182257
 10
44.53439088017571
 20
16.026388082297863
 10
45.05644643538984
 20
16.354809703018688
 10
45.57677723930341
 20
16.682402546765452
 10
46.0957126710334
 20
17.00915557511204
 10
46.61292310447048
 20
17.33508036088216
 10
47.128542262509065
 20
17.660238384960966
 10
47.64255960968223
 20
17.984301635663847
 10
48.154841114355165
 20
18.307209300102617
 10
48.66564405733828
 20
18.628755526766607
 10
49.17451519285812
 20
18.949219354474746
 10
49.68172215194775
 20
19.268723344199156
 10
50.18693530849786
 20
19.587279068763554
 10
50.69052484227172
 20
19.904085599775545
 10
51.19235678338264
 20
20.21908199074759
 10
51.6923282743599
 20
20.533192399041145
 10
52.189975657459364
 20
20.84636758459176
 10
52.68606054838573
 20
21.157661313185745
 10
53.18025325928156
 20
21.46708529124618
 10
53.67230648907062
 20
21.775174584362976
 10
54.16222011425673
 20
22.081929459734916
 10
54.650055697679626
 20
22.387216718761987
 10
55.136121856262875
 20
22.690368631651832
 10
55.62002690707281
 20
22.991531038623393
 10
56.10185342213484
 20
23.291226898045252
 10
56.58133321468316
 20
23.58933485133988
 10
57.05858959564144
 20
23.88558810050903
 10
57.53374593768144
 20
24.179719713955027
 10
58.006678497642866
 20
24.47199742487192
 10
58.47725305864668
 20
24.762360821169743
 10
58.94572696325135
 20
25.050603917738403
 10
59.41183202469113
 20
25.33660535600038
 10
59.87551684510461
 20
25.62082714783668
 10
60.33651311422992
 20
25.903148201868586
 10
60.79534617614703
 20
26.18348429236172
 10
61.25160327698845
 20
26.46132523616578
 10
61.70555229477955
 20
26.73679305985529
 10
62.15713123444402
 20
27.010021897226068
 10
62.605948413048175
 20
27.281157588497017
 10
63.052065269935554
 20
27.55006720226691
 10
63.49581136946736
 20
27.816739299311443
 10
63.9368463030751
 20
28.080857975167305
 10
64.37542728982102
 20
28.34221751192319
 10
64.8112348685742
 20
28.601158295683796
 10
65.24434107589317
 20
28.857875273133125
 10
65.67467344298281
 20
29.112174432782957
 10
66.10223172285079
 20
29.364056309030904
 10
66.52706688112185
 20
29.613059825191716
 10
66.94912758168273
 20
29.85964685954702
 10
67.36820720060734
 20
30.10356285491925
 10
67.78431602637029
 20
30.345136357390626
 10
68.1976391797272
 20
30.583966835965246
 10
68.6081040683869
 20
30.819860546353745
 10
69.0155252011051
 20
31.053218821148356
 10
69.4199023926376
 20
31.284042061147307
 10
69.82123539599202
 20
31.512330800748167
 10
70.21937939707435
 20
31.73769674977575
 10
70.61472577007783
 20
31.95999473600812
 10
71.00683149595557
 20
32.179832477945865
 10
71.39562404416435
 20
32.397016097700146
 10
71.7812371993467
 20
32.61160694255676
 10
72.16366017904333
 20
32.82327753522866
 10
72.54269695654312
 20
33.03210119662349
 10
72.91855372353564
 20
33.238333419114625
 10
73.29114729051456
 20
33.441452580327436
 10
73.66035397606775
 20
33.64172627985658
 10
74.02623534303493
 20
33.839021319102
 10
74.38860583842379
 20
34.03373916425537
 10
74.74758877315797
 20
34.22561301731846
 10
75.10304980686226
 20
34.41458273340007
 10
75.45505050237641
 20
34.60051511390019
 10
75.803663019755
 20
34.783604838303965
 10
76.14855717715606
 20
34.963864681829726
 10
76.48973266583907
 20
35.141295312474426
 10
76.8273852037748
 20
35.31582407732745
 10
77.16157660079523
 20
35.487317243391125
 10
77.49185447560016
 20
35.65605197909286
 10
77.81834711725259
 20
35.82210152206482
 10
78.14124575956849
 20
35.98505211497071
 10
78.4603520911577
 20
36.144982021895956
 10
78.77554249235614
 20
36.30215870883576
 10
79.08707436747031
 20
36.45637605708065
 10
79.394740969078
 20
36.60737977665184
 10
79.69855270914995
 20
36.75549814643277
 10
79.99844765435795
 20
36.90086516661985
 10
80.2942915260748
 20
37.0434205587225
 10
80.58620763522424
 20
37.18289752474248
 10
80.87413392498183
 20
37.31943033207498
 10
81.15794677568351
 20
37.45328644671527
 10
81.43770768842091
 20
37.5843328036627
 10
81.7134059424829
 20
37.71224179203087
 10
81.98504122912897
 20
37.83701407981674
 10
82.25250058765819
 20
37.9592448775014
 10
82.5157113640312
 20
38.07874057439485
 10
82.7746734964999
 20
38.19550130409649
 10
83.02944842440779
 20
38.30939413520506
 10
83.27990193087585
 20
38.420358655630615
 10
83.52616786229463
 20
38.528456079059495
 10
83.76798856736522
 20
38.6338930585988
 10
84.00548723351514
 20
38.73640306344907
 10
84.23854024108033
 20
38.836253559605545
 10
84.46740505611534
 20
38.93323829475932
 10
84.69168974869423
 20
39.02750364352695
 10
84.9114665406197
 20
39.11924415179417
 10
85.12666290134861
 20
39.208265941672224
 10
85.3374745488516
 20
39.29449636025043
 10
85.54364321434899
 20
39.37814339662985
 10
85.74542605515495
 20
39.459001466498606
 10
85.94237328338882
 20
39.53734212710933
 10
86.13480989405356
 20
39.613163825593176
 10
86.32246930583365
 20
39.68634172978829
 10
86.50548548861575
 20
39.756936786182216
 10
86.68385831890373
 20
39.82494926197374
 10
86.85752586336936
 20
39.8905131573593
 10
87.02641571496565
 20
39.9534343272513
 10
87.19040413053231
 20
40.013980504843765
 10
87.3496870132843
 20
40.07207863642787
 10
87.50406821301435
 20
40.127802310110035
 10
87.6536094160583
 20
40.181018060091446
 10
87.79824881258416
 20
40.23185961936972
 10
87.93804796543162
 20
40.28019378934485
 10
88.07294506476859
 20
40.32615430301442
 10
88.20281655267914
 20
40.37000849277431
 10
88.3276515849559
 20
40.41142901493688
 10
88.44765672377692
 20
40.4506705602791
 10
88.56236757042102
 20
40.487685491929284
 10
88.67224833836512
 20
40.52252184755731
 10
88.77703059385107
 20
40.55505880298324
 10
88.87659077896288
 20
40.58556369060291
 10
88.97112473516741
 20
40.61396359030689
 10
89.06049818383751
 20
40.64019822360458
 10
89.1445876288053
 20
40.66453478929245
 10
89.22365059787343
 20
40.6867669014622
 10
89.29742943974306
 20
40.707101213220916
 10
89.36598577900196
 20
40.725404392369164
 10
89.42919611948223
 20
40.74194363770342
 10
89.48712220926782
 20
40.75658534982543
 10
89.53983633190963
 20
40.7695239410216
 10
89.58707011539752
 20
40.78063845351259
 10
89.6288960285267
 20
40.79012289878659
 10
89.66544816468
 20
40.79803795613237
 10
89.6964581518474
 20
40.80426266777059
 10
89.72193658724386
 20
40.80912491178646
 10
89.74207955932862
 20
40.81255123367294
 10
89.75649495293138
 20
40.81468840884476
 10
89.76525542209143
 20
40.81573004799187
 10
89.7682372853967
 20
40.81594375070895
  0
ENDSEC
  0
SECTION
  2
OBJECTS
  0
DICTIONARY
  5
A
330
0
100
AcDbDictionary
280
0
281
1
  3
ACAD_COLOR
350
B
  3
ACAD_GROUP
350
C
  3
ACAD_LAYOUT
350
D
  3
ACAD_MATERIAL
350
E
  3
ACAD_MLEADERSTYLE
350
F
  3
ACAD_MLINESTYLE
350
10
  3
ACAD_PLOTSETTINGS
350
11
  3
ACAD_PLOTSTYLENAME
350
12
  3
ACAD_SCALELIST
350
14
  3
ACAD_TABLESTYLE
350
15
  3
ACAD_VISUALSTYLE
350
16
  3
EZDXF_META
350
2D
  0
DICTIONARY
  5
B
330
A
100
AcDbDictionary
280
0
281
1
  0
DICTIONARY
  5
C
330
A
100
AcDbDictionary
280
0
281
1
  0
DICTIONARY
  5
D
330
A
100
AcDbDictionary
280
0
281
1
  3
Model
350
1A
  3
Layout1
350
1E
  0
DICTIONARY
  5
E
330
A
100
AcDbDictionary
280
0
281
1
  3
ByBlock
350
1F
  3
ByLayer
350
20
  3
Global
350
21
  0
DICTIONARY
  5
F
330
A
100
AcDbDictionary
280
0
281
1
  3
Standard
350
2C
  0
DICTIONARY
  5
10
330
A
100
AcDbDictionary
280
0
281
1
  3
Standard
350
22
  0
DICTIONARY
  5
11
330
A
100
AcDbDictionary
280
0
281
1
  0
ACDBDICTIONARYWDFLT
  5
12
330
A
100
AcDbDictionary
280
0
281
1
  3
Normal
350
13
100
AcDbDictionaryWithDefault
340
13
  0
ACDBPLACEHOLDER
  5
13
330
12
  0
DICTIONARY
  5
14
330
A
100
AcDbDictionary
280
0
281
1
  0
DICTIONARY
  5
15
330
A
100
AcDbDictionary
280
0
281
1
  0
DICTIONARY
  5
16
330
A
100
AcDbDictionary
280
0
281
1
  0
LAYOUT
  5
1A
330
D
100
AcDbPlotSettings
  1

  4
A3
  6

 40
7.5
 41
20.0
 42
7.5
 43
20.0
 44
420.0
 45
297.0
 46
0.0
 47
0.0
 48
0.0
 49
0.0
140
0.0
141
0.0
142
1.0
143
1.0
 70
1024
 72
1
 73
0
 74
5
  7

 75
16
 76
0
 77
2
 78
300
147
1.0
148
0.0
149
0.0
100
AcDbLayout
  1
Model
 70
1
 71
0
 10
0.0
 20
0.0
 11
420.0
 21
297.0
 12
0.0
 22
0.0
 32
0.0
 14
1e+20
 24
1e+20
 34
1e+20
 15
-1e+20
 25
-1e+20
 35
-1e+20
146
0.0
 13
0.0
 23
0.0
 33
0.0
 16
1.0
 26
0.0
 36
0.0
 17
0.0
 27
1.0
 37
0.0
 76
1
330
17
  0
LAYOUT
  5
1E
330
D
100
AcDbPlotSettings
  1

  4
A3
  6

 40
7.5
 41
20.0
 42
7.5
 43
20.0
 44
420.0
 45
297.0
 46
0.0
 47
0.0
 48
0.0
 49
0.0
140
0.0
141
0.0
142
1.0
143
1.0
 70
0
 72
1
 73
0
 74
5
  7

 75
16
 76
0
 77
2
 78
300
147
1.0
148
0.0
149
0.0
100
AcDbLayout
  1
Layout1
 70
1
 71
1
 10
0.0
 20
0.0
 11
420.0
 21
297.0
 12
0.0
 22
0.0
 32
0.0
 14
1e+20
 24
1e+20
 34
1e+20
 15
-1e+20
 25
-1e+20
 35
-1e+20
146
0.0
 13
0.0
 23
0.0
 33
0.0
 16
1.0
 26
0.0
 36
0.0
 17
0.0
 27
1.0
 37
0.0
 76
1
330
1B
  0
MATERIAL
  5
1F
102
{ACAD_REACTORS
330
E
102
}
330
E
100
AcDbMaterial
  1
ByBlock
  2

 70
0
 40
1.0
 71
1
 41
1.0
 91
-1023410177
 42
1.0
 72
1
  3

 73
1
 74
1
 75
1
 44
0.5
 73
0
 45
1.0
 46
1.0
 77
1
  4

 78
1
 79
1
170
1
 48
1.0
171
1
  6

172
1
173
1
174
1
140
1.0
141
1.0
175
1
  7

176
1
177
1
178
1
143
1.0
179
1
  8

270
1
271
1
272
1
145
1.0
146
1.0
273
1
  9

274
1
275
1
276
1
 42
1.0
 72
1
  3

 73
1
 74
1
 75
1
 94
63
  0
MATERIAL
  5
20
102
{ACAD_REACTORS
330
E
102
}
330
E
100
AcDbMaterial
  1
ByLayer
  2

 70
0
 40
1.0
 71
1
 41
1.0
 91
-1023410177
 42
1.0
 72
1
  3

 73
1
 74
1
 75
1
 44
0.5
 73
0
 45
1.0
 46
1.0
 77
1
  4

 78
1
 79
1
170
1
 48
1.0
171
1
  6

172
1
173
1
174
1
140
1.0
141
1.0
175
1
  7

176
1
177
1
178
1
143
1.0
179
1
  8

270
1
271
1
272
1
145
1.0
146
1.0
273
1
  9

274
1
275
1
276
1
 42
1.0
 72
1
  3

 73
1
 74
1
 75
1
 94
63
  0
MATERIAL
  5
21
102
{ACAD_REACTORS
330
E
102
}
330
E
100
AcDbMaterial
  1
Global
  2

 70
0
 40
1.0
 71
1
 41
1.0
 91
-1023410177
 42
1.0
 72
1
  3

 73
1
 74
1
 75
1
 44
0.5
 73
0
 45
1.0
 46
1.0
 77
1
  4

 78
1
 79
1
170
1
 48
1.0
171
1
  6

172
1
173
1
174
1
140
1.0
141
1.0
175
1
  7

176
1
177
1
178
1
143
1.0
179
1
  8

270
1
271
1
272
1
145
1.0
146
1.0
273
1
  9

274
1
275
1
276
1
 42
1.0
 72
1
  3

 73
1
 74
1
 75
1
 94
63
  0
MLINESTYLE
  5
22
102
{ACAD_REACTORS
330
10
102
}
330
10
100
AcDbMlineStyle
  2
Standard
 70
0
  3

 62
256
 51
90.0
 52
90.0
 71
2
 49
0.5
 62
256
  6
BYLAYER
 49
-0.5
 62
256
  6
BYLAYER
  0
MLEADERSTYLE
  5
2C
102
{ACAD_REACTORS
330
F
102
}
330
F
100
AcDbMLeaderStyle
179
2
170
2
171
1
172
0
 90
2
 40
0.0
 41
0.0
173
1
 91
-1056964608
 92
-2
290
1
 42
2.0
291
1
 43
8.0
  3
Standard
 44
4.0
300

342
29
174
1
175
1
176
0
178
1
 93
-1056964608
 45
4.0
292
0
297
0
 46
4.0
 94
-1056964608
 47
1.0
 49
1.0
140
1.0
294
1
141
0.0
177
0
142
1.0
295
0
296
0
143
3.75
271
0
272
9
273
9
  0
DICTIONARY
  5
2D
330
A
100
AcDbDictionary
280
1
281
1
  3
CREATED_BY_EZDXF
350
2E
  3
WRITTEN_BY_EZDXF
350
32
  0
DICTIONARYVAR
  5
2E
330
2D
100
DictionaryVariables
280
0
  1
1.3.5 @ 2025-08-20T01:28:29.192200+00:00
  0
DICTIONARYVAR
  5
32
330
2D
100
DictionaryVariables
280
0
  1
1.3.5 @ 2025-08-20T01:28:29.192200+00:00
  0
ENDSEC
  0
EOF
