  0
SECTION
  2
HEADER
  9
$ACADVER
  1
AC1032
  9
$ACADMAINTVER
 90
4
  9
$DWGCODEPAGE
  3
ANSI_1252
  9
$LASTSAVEDBY
  1
ezdxf
  9
$REQUIREDVERSIONS
160
0
  9
$INSBASE
 10
0.0
 20
0.0
 30
0.0
  9
$EXTMIN
 10
1e+20
 20
1e+20
 30
1e+20
  9
$EXTMAX
 10
-1e+20
 20
-1e+20
 30
-1e+20
  9
$LIMMIN
 10
0.0
 20
0.0
  9
$LIMMAX
 10
420.0
 20
297.0
  9
$ORTHOMODE
 70
0
  9
$REGENMODE
 70
1
  9
$FILLMODE
 70
1
  9
$QTEXTMODE
 70
0
  9
$MIRRTEXT
 70
1
  9
$LTSCALE
 40
1.0
  9
$ATTMODE
 70
1
  9
$TEXTSIZE
 40
2.5
  9
$TRACEWID
 40
1.0
  9
$TEXTSTYLE
  7
Standard
  9
$CLAYER
  8
0
  9
$CELTYPE
  6
ByLayer
  9
$CECOLOR
 62
256
  9
$CELTSCALE
 40
1.0
  9
$DISPSILH
 70
0
  9
$DIMSCALE
 40
1.0
  9
$DIMASZ
 40
2.5
  9
$DIMEXO
 40
0.625
  9
$DIMDLI
 40
3.75
  9
$DIMRND
 40
0.0
  9
$DIMDLE
 40
0.0
  9
$DIMEXE
 40
1.25
  9
$DIMTP
 40
0.0
  9
$DIMTM
 40
0.0
  9
$DIMTXT
 40
2.5
  9
$DIMCEN
 40
2.5
  9
$DIMTSZ
 40
0.0
  9
$DIMTOL
 70
0
  9
$DIMLIM
 70
0
  9
$DIMTIH
 70
0
  9
$DIMTOH
 70
0
  9
$DIMSE1
 70
0
  9
$DIMSE2
 70
0
  9
$DIMTAD
 70
1
  9
$DIMZIN
 70
8
  9
$DIMBLK
  1

  9
$DIMASO
 70
1
  9
$DIMSHO
 70
1
  9
$DIMPOST
  1

  9
$DIMAPOST
  1

  9
$DIMALT
 70
0
  9
$DIMALTD
 70
3
  9
$DIMALTF
 40
0.03937007874
  9
$DIMLFAC
 40
1.0
  9
$DIMTOFL
 70
1
  9
$DIMTVP
 40
0.0
  9
$DIMTIX
 70
0
  9
$DIMSOXD
 70
0
  9
$DIMSAH
 70
0
  9
$DIMBLK1
  1

  9
$DIMBLK2
  1

  9
$DIMSTYLE
  2
ISO-25
  9
$DIMCLRD
 70
0
  9
$DIMCLRE
 70
0
  9
$DIMCLRT
 70
0
  9
$DIMTFAC
 40
1.0
  9
$DIMGAP
 40
0.625
  9
$DIMJUST
 70
0
  9
$DIMSD1
 70
0
  9
$DIMSD2
 70
0
  9
$DIMTOLJ
 70
0
  9
$DIMTZIN
 70
8
  9
$DIMALTZ
 70
0
  9
$DIMALTTZ
 70
0
  9
$DIMUPT
 70
0
  9
$DIMDEC
 70
2
  9
$DIMTDEC
 70
2
  9
$DIMALTU
 70
2
  9
$DIMALTTD
 70
3
  9
$DIMTXSTY
  7
Standard
  9
$DIMAUNIT
 70
0
  9
$DIMADEC
 70
0
  9
$DIMALTRND
 40
0.0
  9
$DIMAZIN
 70
0
  9
$DIMDSEP
 70
44
  9
$DIMATFIT
 70
3
  9
$DIMFRAC
 70
0
  9
$DIMLDRBLK
  1

  9
$DIMLUNIT
 70
2
  9
$DIMLWD
 70
-2
  9
$DIMLWE
 70
-2
  9
$DIMTMOVE
 70
0
  9
$DIMFXL
 40
1.0
  9
$DIMFXLON
 70
0
  9
$DIMJOGANG
 40
0.785398163397
  9
$DIMTFILL
 70
0
  9
$DIMTFILLCLR
 70
0
  9
$DIMARCSYM
 70
0
  9
$DIMLTYPE
  6

  9
$DIMLTEX1
  6

  9
$DIMLTEX2
  6

  9
$DIMTXTDIRECTION
 70
0
  9
$LUNITS
 70
2
  9
$LUPREC
 70
4
  9
$SKETCHINC
 40
1.0
  9
$FILLETRAD
 40
10.0
  9
$AUNITS
 70
0
  9
$AUPREC
 70
2
  9
$MENU
  1
.
  9
$ELEVATION
 40
0.0
  9
$PELEVATION
 40
0.0
  9
$THICKNESS
 40
0.0
  9
$LIMCHECK
 70
0
  9
$CHAMFERA
 40
0.0
  9
$CHAMFERB
 40
0.0
  9
$CHAMFERC
 40
0.0
  9
$CHAMFERD
 40
0.0
  9
$SKPOLY
 70
0
  9
$TDCREATE
 40
2460908.103113426
  9
$TDUCREATE
 40
2458532.153996898
  9
$TDUPDATE
 40
2460908.103113426
  9
$TDUUPDATE
 40
2458532.1544311
  9
$TDINDWG
 40
0.0
  9
$TDUSRTIMER
 40
0.0
  9
$USRTIMER
 70
1
  9
$ANGBASE
 50
0.0
  9
$ANGDIR
 70
0
  9
$PDMODE
 70
0
  9
$PDSIZE
 40
0.0
  9
$PLINEWID
 40
0.0
  9
$SPLFRAME
 70
0
  9
$SPLINETYPE
 70
6
  9
$SPLINESEGS
 70
8
  9
$HANDSEED
  5
33
  9
$SURFTAB1
 70
6
  9
$SURFTAB2
 70
6
  9
$SURFTYPE
 70
6
  9
$SURFU
 70
6
  9
$SURFV
 70
6
  9
$UCSBASE
  2

  9
$UCSNAME
  2

  9
$UCSORG
 10
0.0
 20
0.0
 30
0.0
  9
$UCSXDIR
 10
1.0
 20
0.0
 30
0.0
  9
$UCSYDIR
 10
0.0
 20
1.0
 30
0.0
  9
$UCSORTHOREF
  2

  9
$UCSORTHOVIEW
 70
0
  9
$UCSORGTOP
 10
0.0
 20
0.0
 30
0.0
  9
$UCSORGBOTTOM
 10
0.0
 20
0.0
 30
0.0
  9
$UCSORGLEFT
 10
0.0
 20
0.0
 30
0.0
  9
$UCSORGRIGHT
 10
0.0
 20
0.0
 30
0.0
  9
$UCSORGFRONT
 10
0.0
 20
0.0
 30
0.0
  9
$UCSORGBACK
 10
0.0
 20
0.0
 30
0.0
  9
$PUCSBASE
  2

  9
$PUCSNAME
  2

  9
$PUCSORG
 10
0.0
 20
0.0
 30
0.0
  9
$PUCSXDIR
 10
1.0
 20
0.0
 30
0.0
  9
$PUCSYDIR
 10
0.0
 20
1.0
 30
0.0
  9
$PUCSORTHOREF
  2

  9
$PUCSORTHOVIEW
 70
0
  9
$PUCSORGTOP
 10
0.0
 20
0.0
 30
0.0
  9
$PUCSORGBOTTOM
 10
0.0
 20
0.0
 30
0.0
  9
$PUCSORGLEFT
 10
0.0
 20
0.0
 30
0.0
  9
$PUCSORGRIGHT
 10
0.0
 20
0.0
 30
0.0
  9
$PUCSORGFRONT
 10
0.0
 20
0.0
 30
0.0
  9
$PUCSORGBACK
 10
0.0
 20
0.0
 30
0.0
  9
$USERI1
 70
0
  9
$USERI2
 70
0
  9
$USERI3
 70
0
  9
$USERI4
 70
0
  9
$USERI5
 70
0
  9
$USERR1
 40
0.0
  9
$USERR2
 40
0.0
  9
$USERR3
 40
0.0
  9
$USERR4
 40
0.0
  9
$USERR5
 40
0.0
  9
$WORLDVIEW
 70
1
  9
$SHADEDGE
 70
3
  9
$SHADEDIF
 70
70
  9
$TILEMODE
 70
1
  9
$MAXACTVP
 70
64
  9
$PINSBASE
 10
0.0
 20
0.0
 30
0.0
  9
$PLIMCHECK
 70
0
  9
$PEXTMIN
 10
1e+20
 20
1e+20
 30
1e+20
  9
$PEXTMAX
 10
-1e+20
 20
-1e+20
 30
-1e+20
  9
$PLIMMIN
 10
0.0
 20
0.0
  9
$PLIMMAX
 10
420.0
 20
297.0
  9
$UNITMODE
 70
0
  9
$VISRETAIN
 70
1
  9
$PLINEGEN
 70
0
  9
$PSLTSCALE
 70
1
  9
$TREEDEPTH
 70
3020
  9
$CMLSTYLE
  2
Standard
  9
$CMLJUST
 70
0
  9
$CMLSCALE
 40
20.0
  9
$PROXYGRAPHICS
 70
1
  9
$MEASUREMENT
 70
1
  9
$CELWEIGHT
370
-1
  9
$ENDCAPS
280
0
  9
$JOINSTYLE
280
0
  9
$LWDISPLAY
290
0
  9
$INSUNITS
 70
6
  9
$HYPERLINKBASE
  1

  9
$STYLESHEET
  1

  9
$XEDIT
290
1
  9
$CEPSNTYPE
380
0
  9
$PSTYLEMODE
290
1
  9
$FINGERPRINTGUID
  2
{329B382D-D1FF-408E-9F5F-55E8348D4156}
  9
$VERSIONGUID
  2
{D572A33D-3B1E-4A13-9624-3F7C21DD5A14}
  9
$EXTNAMES
290
1
  9
$PSVPSCALE
 40
0.0
  9
$OLESTARTUP
290
0
  9
$SORTENTS
280
127
  9
$INDEXCTL
280
0
  9
$HIDETEXT
280
1
  9
$XCLIPFRAME
280
1
  9
$HALOGAP
280
0
  9
$OBSCOLOR
 70
257
  9
$OBSLTYPE
280
0
  9
$INTERSECTIONDISPLAY
280
0
  9
$INTERSECTIONCOLOR
 70
257
  9
$DIMASSOC
280
2
  9
$PROJECTNAME
  1

  9
$CAMERADISPLAY
290
0
  9
$LENSLENGTH
 40
50.0
  9
$CAMERAHEIGHT
 40
0.0
  9
$STEPSPERSEC
 40
24.0
  9
$STEPSIZE
 40
100.0
  9
$3DDWFPREC
 40
2.0
  9
$PSOLWIDTH
 40
0.005
  9
$PSOLHEIGHT
 40
0.08
  9
$LOFTANG1
 40
1.570796326795
  9
$LOFTANG2
 40
1.570796326795
  9
$LOFTMAG1
 40
0.0
  9
$LOFTMAG2
 40
0.0
  9
$LOFTPARAM
 70
7
  9
$LOFTNORMALS
280
1
  9
$LATITUDE
 40
37.795
  9
$LONGITUDE
 40
-122.394
  9
$NORTHDIRECTION
 40
0.0
  9
$TIMEZONE
 70
-8000
  9
$LIGHTGLYPHDISPLAY
280
1
  9
$TILEMODELIGHTSYNCH
280
1
  9
$CMATERIAL
347
20
  9
$SOLIDHIST
280
0
  9
$SHOWHIST
280
1
  9
$DWFFRAME
280
2
  9
$DGNFRAME
280
2
  9
$REALWORLDSCALE
290
1
  9
$INTERFERECOLOR
 62
256
  9
$CSHADOW
280
0
  9
$SHADOWPLANELOCATION
 40
0.0
  0
ENDSEC
  0
SECTION
  2
CLASSES
  0
CLASS
  1
ACDBDICTIONARYWDFLT
  2
AcDbDictionaryWithDefault
  3
ObjectDBX Classes
 90
0
 91
0
280
0
281
0
  0
CLASS
  1
SUN
  2
AcDbSun
  3
SCENEOE
 90
1153
 91
0
280
0
281
0
  0
CLASS
  1
VISUALSTYLE
  2
AcDbVisualStyle
  3
ObjectDBX Classes
 90
4095
 91
0
280
0
281
0
  0
CLASS
  1
MATERIAL
  2
AcDbMaterial
  3
ObjectDBX Classes
 90
1153
 91
0
280
0
281
0
  0
CLASS
  1
SCALE
  2
AcDbScale
  3
ObjectDBX Classes
 90
1153
 91
0
280
0
281
0
  0
CLASS
  1
TABLESTYLE
  2
AcDbTableStyle
  3
ObjectDBX Classes
 90
4095
 91
0
280
0
281
0
  0
CLASS
  1
MLEADERSTYLE
  2
AcDbMLeaderStyle
  3
ACDB_MLEADERSTYLE_CLASS
 90
4095
 91
0
280
0
281
0
  0
CLASS
  1
DICTIONARYVAR
  2
AcDbDictionaryVar
  3
ObjectDBX Classes
 90
0
 91
0
280
0
281
0
  0
CLASS
  1
CELLSTYLEMAP
  2
AcDbCellStyleMap
  3
ObjectDBX Classes
 90
1152
 91
0
280
0
281
0
  0
CLASS
  1
MENTALRAYRENDERSETTINGS
  2
AcDbMentalRayRenderSettings
  3
SCENEOE
 90
1024
 91
0
280
0
281
0
  0
CLASS
  1
ACDBDETAILVIEWSTYLE
  2
AcDbDetailViewStyle
  3
ObjectDBX Classes
 90
1025
 91
0
280
0
281
0
  0
CLASS
  1
ACDBSECTIONVIEWSTYLE
  2
AcDbSectionViewStyle
  3
ObjectDBX Classes
 90
1025
 91
0
280
0
281
0
  0
CLASS
  1
RASTERVARIABLES
  2
AcDbRasterVariables
  3
ISM
 90
0
 91
0
280
0
281
0
  0
CLASS
  1
LAYOUT
  2
AcDbLayout
  3
ObjectDBX Classes
 90
0
 91
0
280
0
281
0
  0
CLASS
  1
ACDBPLACEHOLDER
  2
AcDbPlaceHolder
  3
ObjectDBX Classes
 90
0
 91
0
280
0
281
0
  0
ENDSEC
  0
SECTION
  2
TABLES
  0
TABLE
  2
VPORT
  5
8
330
0
100
AcDbSymbolTable
 70
1
  0
VPORT
  5
23
330
8
100
AcDbSymbolTableRecord
100
AcDbViewportTableRecord
  2
*Active
 70
0
 10
0.0
 20
0.0
 11
1.0
 21
1.0
 12
0.0
 22
0.0
 13
0.0
 23
0.0
 14
0.5
 24
0.5
 15
0.5
 25
0.5
 16
0.0
 26
0.0
 36
1.0
 17
0.0
 27
0.0
 37
0.0
 40
1000.0
 41
1.34
 42
50.0
 43
0.0
 44
0.0
 50
0.0
 51
0.0
 71
0
 72
1000
 73
1
 74
3
 75
0
 76
0
 77
0
 78
0
281
0
 65
0
146
0.0
  0
ENDTAB
  0
TABLE
  2
LTYPE
  5
2
330
0
100
AcDbSymbolTable
 70
3
  0
LTYPE
  5
24
330
2
100
AcDbSymbolTableRecord
100
AcDbLinetypeTableRecord
  2
ByBlock
 70
0
  3

 72
65
 73
0
 40
0.0
  0
LTYPE
  5
25
330
2
100
AcDbSymbolTableRecord
100
AcDbLinetypeTableRecord
  2
ByLayer
 70
0
  3

 72
65
 73
0
 40
0.0
  0
LTYPE
  5
26
330
2
100
AcDbSymbolTableRecord
100
AcDbLinetypeTableRecord
  2
Continuous
 70
0
  3

 72
65
 73
0
 40
0.0
  0
ENDTAB
  0
TABLE
  2
LAYER
  5
1
330
0
100
AcDbSymbolTable
 70
2
  0
LAYER
  5
27
330
1
100
AcDbSymbolTableRecord
100
AcDbLayerTableRecord
  2
0
 70
0
 62
7
  6
Continuous
370
-3
390
13
347
21
  0
LAYER
  5
28
330
1
100
AcDbSymbolTableRecord
100
AcDbLayerTableRecord
  2
Defpoints
 70
0
 62
7
  6
Continuous
290
0
370
-3
390
13
347
21
  0
ENDTAB
  0
TABLE
  2
STYLE
  5
5
330
0
100
AcDbSymbolTable
 70
1
  0
STYLE
  5
29
330
5
100
AcDbSymbolTableRecord
100
AcDbTextStyleTableRecord
  2
Standard
 70
0
 40
0.0
 41
1.0
 50
0.0
 71
0
 42
2.5
  3
txt
  4

  0
ENDTAB
  0
TABLE
  2
VIEW
  5
7
330
0
100
AcDbSymbolTable
 70
0
  0
ENDTAB
  0
TABLE
  2
UCS
  5
6
330
0
100
AcDbSymbolTable
 70
0
  0
ENDTAB
  0
TABLE
  2
APPID
  5
3
330
0
100
AcDbSymbolTable
 70
3
  0
APPID
  5
2A
330
3
100
AcDbSymbolTableRecord
100
AcDbRegAppTableRecord
  2
ACAD
 70
0
  0
APPID
  5
30
330
3
100
AcDbSymbolTableRecord
100
AcDbRegAppTableRecord
  2
HATCHBACKGROUNDCOLOR
 70
0
  0
APPID
  5
31
330
3
100
AcDbSymbolTableRecord
100
AcDbRegAppTableRecord
  2
EZDXF
 70
0
  0
ENDTAB
  0
TABLE
  2
DIMSTYLE
  5
4
330
0
100
AcDbSymbolTable
 70
1
100
AcDbDimStyleTable
  0
DIMSTYLE
105
2B
330
4
100
AcDbSymbolTableRecord
100
AcDbDimStyleTableRecord
  2
Standard
 70
0
 40
1.0
 41
2.5
 42
0.625
 43
3.75
 44
1.25
 45
0.0
 46
0.0
 47
0.0
 48
0.0
 49
2.5
140
2.5
141
2.5
142
0.0
143
0.03937007874
144
1.0
145
0.0
146
1.0
147
0.625
148
0.0
 69
0
 70
0
 71
0
 72
0
 73
0
 74
0
 75
0
 76
0
 77
1
 78
8
 79
3
170
0
171
3
172
1
173
0
174
0
175
0
176
0
177
0
178
0
179
2
271
2
272
2
273
2
274
3
275
0
276
0
277
2
278
44
279
0
280
0
281
0
282
0
283
0
284
8
285
0
286
0
288
0
289
3
290
0
371
-2
372
-2
  0
ENDTAB
  0
TABLE
  2
BLOCK_RECORD
  5
9
330
0
100
AcDbSymbolTable
 70
2
  0
BLOCK_RECORD
  5
17
330
9
100
AcDbSymbolTableRecord
100
AcDbBlockTableRecord
  2
*Model_Space
340
1A
 70
0
280
1
281
0
  0
BLOCK_RECORD
  5
1B
330
9
100
AcDbSymbolTableRecord
100
AcDbBlockTableRecord
  2
*Paper_Space
340
1E
 70
0
280
1
281
0
  0
ENDTAB
  0
ENDSEC
  0
SECTION
  2
BLOCKS
  0
BLOCK
  5
18
330
17
100
AcDbEntity
  8
0
100
AcDbBlockBegin
  2
*Model_Space
 70
0
 10
0.0
 20
0.0
 30
0.0
  3
*Model_Space
  1

  0
ENDBLK
  5
19
330
17
100
AcDbEntity
  8
0
100
AcDbBlockEnd
  0
BLOCK
  5
1C
330
1B
100
AcDbEntity
  8
0
100
AcDbBlockBegin
  2
*Paper_Space
 70
0
 10
0.0
 20
0.0
 30
0.0
  3
*Paper_Space
  1

  0
ENDBLK
  5
1D
330
1B
100
AcDbEntity
  8
0
100
AcDbBlockEnd
  0
ENDSEC
  0
SECTION
  2
ENTITIES
  0
LWPOLYLINE
  5
2F
330
17
100
AcDbEntity
  8
0
100
AcDbPolyline
 90
721
 70
1
 10
77.16657375377231
 20
15.20064640623106
 10
77.16423189407996
 20
15.201007917703995
 10
77.1572510144481
 20
15.201861734107695
 10
77.14572035747524
 20
15.202747226118303
 10
77.12948031486343
 20
15.203871055699278
 10
77.10882784279563
 20
15.204934796956195
 10
77.08362563804171
 20
15.206029983332495
 10
77.05378096285214
 20
15.207018121719095
 10
77.01952388053404
 20
15.207946056537867
 10
76.98076165333796
 20
15.208675294679745
 10
76.9373346059837
 20
15.209412843839468
 10
76.88951745656865
 20
15.209975060911347
 10
76.83719511762084
 20
15.210338811793854
 10
76.78034526174505
 20
15.210619340250771
 10
76.71901254373172
 20
15.210586158754527
 10
76.65315226413563
 20
15.210469985320225
 10
76.58290179316919
 20
15.210178940773135
 10
76.50814604336038
 20
15.209689891011724
 10
76.42886268731404
 20
15.209118079799781
 10
76.34521137798299
 20
15.208256614686322
 10
76.25703239543219
 20
15.20731273385362
 10
76.16437037212467
 20
15.206056065017869
 10
76.06741069424967
 20
15.204764055372287
 10
75.96583056075073
 20
15.203251367385912
 10
75.85997503309733
 20
15.201588440557211
 10
75.749614025655
 20
15.199728545708062
 10
75.63486251425884
 20
15.197695393158826
 10
75.51572047658141
 20
15.195489098153258
 10
75.39216556290013
 20
15.193225019698914
 10
75.2641977062328
 20
15.190903503527082
 10
75.13186153904245
 20
15.188294177353951
 10
74.99511238421127
 20
15.18562764395086
 10
74.85408752264209
 20
15.182812485118145
 10
74.70864958412254
 20
15.179940580030525
 10
74.55884313413337
 20
15.176781902135483
 10
74.40473856070145
 20
15.173590303549656
 10
74.2463134694494
 20
15.170481373768114
 10
74.083634797908
 20
15.167109611987033
 10
73.91654278148746
 20
15.163682486876217
 10
73.74528981089001
 20
15.160131599093758
 10
73.56962340610386
 20
15.15652580895662
 10
73.38977360810864
 20
15.152912076130445
 10
73.205625307105
 20
15.149267381757475
 10
73.01729350125527
 20
15.145615320914288
 10
72.8246854081553
 20
15.141817630979329
 10
72.62791602596752
 20
15.13789790702919
 10
72.42682559010211
 20
15.134063617733675
 10
72.22166646893396
 20
15.130246478994646
 10
72.01232355266366
 20
15.126423471954332
 10
71.7987967966364
 20
15.122594827100267
 10
71.58108608921519
 20
15.11876112065126
 10
71.3592841458221
 20
15.115060960960166
 10
71.13329813939811
 20
15.111356315892955
 10
70.90322076303784
 20
15.107785909046237
 10
70.66907423249953
 20
15.104235072875047
 10
70.43090318024615
 20
15.100473435095573
 10
70.18877790499496
 20
15.096755308799505
 10
69.9425386644836
 20
15.093288047412885
 10
69.69218534707505
 20
15.09007222715453
 10
69.43789995544475
 20
15.086785596565903
 10
69.17966007288791
 20
15.083543860385856
 10
68.91746565474973
 20
15.080347249101901
 10
68.6512496072077
 20
15.077542070224233
 10
68.38112350025555
 20
15.074552450665198
 10
68.10715767726536
 20
15.071632473028963
 10
67.82932974385974
 20
15.068897726810608
 10
67.54750224051669
 20
15.066440552159913
 10
67.2619275132837
 20
15.0641927802225
 10
66.9725127574291
 20
15.062016263620583
 10
66.67925792829817
 20
15.059911232841685
 10
66.38223332460812
 20
15.058132000977505
 10
66.08152816663014
 20
15.056218053947937
 10
65.77698271210183
 20
15.05437674517903
 10
65.46880462995287
 20
15.052770508587741
 10
65.15699385320112
 20
15.051399689905375
 10
64.84147992683752
 20
15.05001078274658
 10
64.52224041182991
 20
15.048719607093961
 10
64.19950534915792
 20
15.04757312261317
 10
63.8731149519044
 20
15.046778913217773
 10
63.54313613527271
 20
15.045991593347702
 10
63.209683875097916
 20
15.045234873323311
 10
62.872758104397825
 20
15.044509098875892
 10
62.532314056745086
 20
15.044045333751834
 10
62.1883516651575
 20
15.043843923682433
 10
61.8408931900481
 20
15.04378997063519
 10
61.49019099979171
 20
15.043815190511973
 10
61.135992547394316
 20
15.043988789361022
 10
60.77841283101837
 20
15.044334362258931
 10
60.41763383101188
 20
15.044529772990929
 10
60.053518043198025
 20
15.044667592194315
 10
59.686113483553726
 20
15.045117146237052
 10
59.31553515024138
 20
15.045902030195725
 10
58.94159745612518
 20
15.046745834070979
 10
58.56459746902511
 20
15.047349555749578
 10
58.18444579005087
 20
15.04817463126173
 10
57.801164679615425
 20
15.049106162574933
 10
57.41473172101406
 20
15.050259854428036
 10
57.02530654487215
 20
15.051428929613811
 10
56.632889106534925
 20
15.052613618619791
 10
56.23736422922078
 20
15.053791248319492
 10
55.83893964884156
 20
15.05512390689859
 10
55.43750023327052
 20
15.056588690743082
 10
55.03320563546043
 20
15.05797870740198
 10
54.62605576610172
 20
15.059294417850339
 10
54.21616564568422
 20
15.060559301920984
 10
53.803397770031154
 20
15.061865930251228
 10
53.38782250484195
 20
15.063468270201462
 10
52.96939163319322
 20
15.06499803259762
 10
52.54842806777841
 20
15.066639978751846
 10
52.12479085392467
 20
15.067887326380985
 10
51.69845755259983
 20
15.068855895467639
 10
51.269591311907554
 20
15.069937915993764
 10
50.838169715143124
 20
15.07124909269821
 10
50.40402950256581
 20
15.07239777181783
 10
49.967675634199345
 20
15.073246232718722
 10
49.528785085713224
 20
15.07361029030754
 10
49.087520960556375
 20
15.073882405053778
 10
48.64374577687939
 20
15.07415503235098
 10
48.197711992366735
 20
15.074359427125954
 10
47.74937143474972
 20
15.074127069717095
 10
47.298794469727824
 20
15.0737119274848
 10
46.84593635320111
 20
15.073344948931702
 10
46.390908677490714
 20
15.07245014572639
 10
45.93373370300963
 20
15.070912619836374
 10
45.47452992307118
 20
15.06935508877118
 10
45.01308940081693
 20
15.06761650153901
 10
44.54961993914092
 20
15.065858600594247
 10
44.08425545775954
 20
15.063390153841697
 10
43.61697356229535
 20
15.060326750776431
 10
43.14772955330324
 20
15.056899109413564
 10
42.676456336960634
 20
15.053453537263264
 10
42.20347344244714
 20
15.049575096985931
 10
41.72863984810768
 20
15.044757352029691
 10
41.25223390115496
 20
15.039415090259217
 10
40.77391363337721
 20
15.034079068996723
 10
40.29388346415462
 20
15.028311332044833
 10
39.81223259143095
 20
15.021651480567215
 10
39.329146602342064
 20
15.01437592456322
 10
38.84437283825696
 20
15.006554446299916
 10
38.358119169051875
 20
14.99834844250039
 10
37.87029274534039
 20
14.98961999627438
 10
37.38105330938493
 20
14.980161754195846
 10
36.890515948657516
 20
14.96999685036632
 10
36.39856546404913
 20
14.959102726903087
 10
35.905432097486006
 20
14.947525306277925
 10
35.410885517732325
 20
14.93521912699411
 10
34.91511126726919
 20
14.922460829538528
 10
34.418131695819135
 20
14.909135054903619
 10
33.92005835104854
 20
14.894666045245506
 10
33.42084653351223
 20
14.87928451857929
 10
32.92070418006867
 20
14.863151525896775
 10
32.41937863208682
 20
14.84633684946502
 10
31.9171447862833
 20
14.828655924228233
 10
31.414024947725917
 20
14.809993621666392
 10
30.910041421482457
 20
14.790234813259469
 10
30.405149463452958
 20
14.769610447510091
 10
29.899441923023836
 20
14.748258441308534
 10
29.392918733212902
 20
14.726179140386082
 10
28.885762008332527
 20
14.703049717065381
 10
28.377878898996318
 20
14.678732254456166
 10
27.869406842398853
 20
14.65313452765242
 10
27.36039401080879
 20
14.626625056315747
 10
26.850658222931568
 20
14.599527013854795
 10
26.34047444246596
 20
14.57165548948247
 10
25.82990611179189
 20
14.542065859962005
 10
25.318819199556042
 20
14.511449933607404
 10
24.80742175425381
 20
14.479968185191657
 10
24.295643186911803
 20
14.447367799792
 10
23.783505847252584
 20
14.413533418400876
 10
23.271173039671638
 20
14.378856464293904
 10
22.758551959437284
 20
14.34319879009328
 10
22.245824698534566
 20
14.306237683365426
 10
21.732876080181843
 20
14.267950470983854
 10
21.219914152874537
 20
14.228497627721548
 10
20.70691654456267
 20
14.187994627829825
 10
20.19395025975921
 20
14.146095624773555
 10
19.680992926414152
 20
14.102916092804056
 10
19.168137416241336
 20
14.058593833567828
 10
18.655201570273583
 20
14.01345190522976
 10
18.142549706445216
 20
13.966844191460078
 10
17.630181824756246
 20
13.918770692258787
 10
17.11807562013887
 20
13.86934653614591
 10
16.60620872054312
 20
13.81868719737276
 10
16.094718697127973
 20
13.766699759570741
 10
15.583468023389234
 20
13.713476908620923
 10
15.072709402612693
 20
13.65894863176871
 10
14.562487511916125
 20
13.60288432624277
 10
14.052780023904344
 20
13.545399235806887
 10
13.543564633509545
 20
13.486608488981084
 10
13.034863668126922
 20
13.426396842001573
 10
12.52695222541964
 20
13.364578692618684
 10
12.019670429160929
 20
13.301362085721042
 10
11.513088868324193
 20
13.236999836231407
 10
11.007203980776385
 20
13.170893167448126
 10
10.502201532272505
 20
13.103317567420442
 10
9.998014607609193
 20
13.034618421708425
 10
9.494594945208211
 20
12.964427671625526
 10
8.99221768738752
 20
12.892559484434546
 10
8.49083820168413
 20
12.819244232419296
 10
7.990385921452023
 20
12.74422898541325
 10
7.4910466794284085
 20
12.667788885734357
 10
6.992749931294658
 20
12.589670887972325
 10
6.49570381485576
 20
12.510035005925086
 10
5.999610949708171
 20
12.42918185511857
 10
5.504746478169821
 20
12.34692560281557
 10
5.011199709821481
 20
12.262805273960952
 10
4.518948384250132
 20
12.176935766587196
 10
4.028040740706611
 20
12.089685254624625
 10
3.538499195895697
 20
12.000938033334394
 10
3.05034609953995
 20
11.910578743708951
 10
2.563696717730572
 20
11.818629597899726
 10
2.0783911742407915
 20
11.725298640795332
 10
1.5945001473535831
 20
11.630838226343483
 10
1.1122281904135074
 20
11.534809706884214
 10
0.6316200028657284
 20
11.436982364402429
 10
0.1526309969020362
 20
11.337586340694404
 10
-0.3246438569885855
 20
11.236748604492847
 10
-0.8003161855319314
 20
11.134428158912842
 10
-1.2742930053771893
 20
11.030762229382066
 10
-1.7464814001557811
 20
10.925888387059498
 10
-2.2169073040507223
 20
10.819323329494802
 10
-2.6854554732982465
 20
10.711089384083163
 10
-3.1521223011104933
 20
10.601785097038702
 10
-3.6169783764608794
 20
10.491157653438664
 10
-4.079770884426639
 20
10.379136464309633
 10
-4.54073031253535
 20
10.265676874861233
 10
-4.999626173259429
 20
10.150823539883845
 10
-5.4563878776254775
 20
10.034829274300227
 10
-5.911268240556255
 20
9.91776466708379
 10
-6.364040381312023
 20
9.799075826810784
 10
-6.81460777673635
 20
9.679498870854312
 10
-7.263130325383384
 20
9.559241959346759
 10
-7.709589306645799
 20
9.437591302310214
 10
-8.153638989232228
 20
9.31461388193024
 10
-8.595461599092022
 20
9.190633102103012
 10
-9.035079463620368
 20
9.065764206592313
 10
-9.472447928026881
 20
8.939776707870578
 10
-9.90735883217919
 20
8.81283050449196
 10
-10.340042663604859
 20
8.684880941666087
 10
-10.770335916961887
 20
8.556318405474697
 10
-11.198193937459887
 20
8.426912408390214
 10
-11.623594397703682
 20
8.296547706648854
 10
-12.04655962508845
 20
8.1653395440144
 10
-12.467019030640785
 20
8.033540735409616
 10
-12.88508785812447
 20
7.901128953439314
 10
-13.30049096522156
 20
7.767918365366298
 10
-13.71322835193205
 20
7.633908971190564
 10
-14.123392934624544
 20
7.498963199753139
 10
-14.530891796930442
 20
7.3632186222129965
 10
-14.935791921035307
 20
7.2270209698615
 10
-15.338000390570535
 20
7.090507813857623
 10
-15.737427895955378
 20
6.953218179146216
 10
-16.134189680953625
 20
6.815129738332096
 10
-16.527917686878727
 20
6.676194229837033
 10
-16.91890938344382
 20
6.536712730162016
 10
-17.307187098044093
 20
6.396800483070831
 10
-17.692520343151962
 20
6.256502143353857
 10
-18.074886791372258
 20
6.115702467247302
 10
-18.454334704283184
 20
5.974033396064621
 10
-18.830838147701723
 20
5.831978232256145
 10
-19.20446410381343
 20
5.6898827071132425
 10
-19.57498569187857
 20
5.5471929292121605
 10
-19.94251815566094
 20
5.403886571157711
 10
-20.306875662423348
 20
5.260238775267847
 10
-20.668173455929566
 20
5.116227214147379
 10
-21.026433863574795
 20
4.971967131560095
 10
-21.381474659409673
 20
4.827135123609821
 10
-21.733340498224585
 20
4.681961677824128
 10
-22.082031380019522
 20
4.536446794203022
 10
-22.427636614375242
 20
4.391051447801647
 10
-22.769903386368984
 20
4.2457050496465945
 10
-23.108995201342747
 20
4.100017213656127
 10
-23.444752160742382
 20
3.953779779697856
 10
-23.777148330384854
 20
3.8074760502221174
 10
-24.106343608824314
 20
3.661314185361299
 10
-24.43213344271623
 20
3.5148555374554418
 10
-24.754447243087185
 20
3.3683529214273067
 10
-25.073537824859955
 20
3.2218769262503035
 10
-25.389174700506953
 20
3.075472206714812
 10
-25.70129088784261
 20
2.9287930315294637
 10
-26.00995336905251
 20
2.782185131985628
 10
-26.315184471531822
 20
2.6357637518470862
 10
-26.616961867885372
 20
2.4894136473500525
 10
-26.915170314349364
 20
2.3431571458897196
 10
-27.209787483528604
 20
2.196879003702293
 10
-27.50095094658209
 20
2.050672137156378
 10
-27.78843021598222
 20
1.9045812010423442
 10
-28.07226994651939
 20
1.7588366828877715
 10
-28.352655970930787
 20
1.6131634403747077
 10
-28.62924255792506
 20
1.4676284556887145
 10
-28.9021226238708
 20
1.3220941576708212
 10
-29.171385478348757
 20
1.1770215213761714
 10
-29.437031121358935
 20
1.0324105468047684
 10
-29.69889965434717
 20
0.8880530738242259
 10
-29.95696874991828
 20
0.7438338586707565
 10
-30.211331324440852
 20
0.5996153301853825
 10
-30.46186852736326
 20
0.4560183619774186
 10
-30.708673275054103
 20
0.31290538288788894
 10
-30.951700912723
 20
0.17004590538921735
 10
-31.19083619660617
 20
0.027462256876593507
 10
-31.426123781493988
 20
-0.11461507512240897
 10
-31.657519012596072
 20
-0.25641657813536284
 10
-31.88504421730761
 20
-0.3978270083984823
 10
-32.1087217230238
 20
-0.5387311221479811
 10
-32.32839163119047
 20
-0.6793370795162452
 10
-32.54412092399319
 20
-0.8192991492119106
 10
-32.75593553561499
 20
-0.9591006336853177
 10
-32.96380953187284
 20
-1.0982582304861277
 10
-33.16772058537155
 20
-1.2368871833781279
 10
-33.367646368715924
 20
-1.3751027361251071
 10
-33.56347163814218
 20
-1.5128825613318753
 10
-33.7553339648093
 20
-1.6501337426298328
 10
-33.94318508713906
 20
-1.7864882213324331
 10
-34.126980350341064
 20
-1.9221764849672491
 10
-34.30671975441534
 20
-2.0571985335342795
 10
-34.48254087052084
 20
-2.191461450664927
 10
-34.65419088373481
 20
-2.3250358253326007
 10
-34.82182969261142
 20
-2.4577134974049155
 10
-34.98538670817726
 20
-2.5892416519591106
 10
-35.1449771741961
 20
-2.719642616390372
 10
-35.3004411921138
 20
-2.8491245508310845
 10
-35.451916333089315
 20
-2.977594538912653
 10
-35.599172109595074
 20
-3.105007925844699
 10
-35.74248366394904
 20
-3.2311788788900255
 10
-35.881642836018806
 20
-3.3559474994944676
 10
-36.01672021477779
 20
-3.479566602580787
 10
-36.14771580022602
 20
-3.602036188148988
 10
-36.27462959236345
 20
-3.723356256199067
 10
-36.39739100221671
 20
-3.8432739918082617
 10
-36.516000029785765
 20
-3.9617893949765732
 10
-36.63050493664886
 20
-4.0792705243905525
 10
-36.740857461227776
 20
-4.195349321363646
 10
-36.84696829394174
 20
-4.310486760951006
 10
-36.94892674437152
 20
-4.424221868097483
 10
-37.046643502936355
 20
-4.537015617858225
 10
-37.14016322442664
 20
-4.648637522705657
 10
-37.22948590884234
 20
-4.759087582639783
 10
-37.31447398502451
 20
-4.868458714029197
 10
-37.3954025952911
 20
-4.976565084136704
 10
-37.47185902616516
 20
-5.0836854420680995
 10
-37.544233663728455
 20
-5.1896562824813754
 10
-37.6122736930582
 20
-5.29454819434994
 10
-37.67604609633998
 20
-5.398015446382434
 10
-37.73562146254719
 20
-5.500310853501619
 10
-37.79090687531124
 20
-5.601296844548521
 10
-37.841991644212875
 20
-5.70051244446799
 10
-37.888924030830324
 20
-5.798325711946576
 10
-37.93163344619017
 20
-5.894483832061516
 10
-37.97016454508278
 20
-5.988756317285234
 10
-38.00460663708893
 20
-6.080682192562584
 10
-38.034959722208605
 20
-6.170261457893567
 10
-38.06138369899596
 20
-6.257285953145793
 10
-38.08375971689938
 20
-6.3411348047099505
 10
-38.10229232926339
 20
-6.42136936492608
 10
-38.11732005380364
 20
-6.496859523551495
 10
-38.128768694758904
 20
-6.5667539194493125
 10
-38.137110734215945
 20
-6.629230979794121
 10
-38.142818654261575
 20
-6.6824691317605165
 10
-38.146197824852706
 20
-6.7236578702272265
 10
-38.14792167463284
 20
-6.74993842849476
 10
-38.0074169234998
 20
-7.486885543367538
 10
-38.00408859483327
 20
-7.4923387548121205
 10
-37.99412593622885
 20
-7.508583145382076
 10
-37.97761825726731
 20
-7.53515774002226
 10
-37.95407074846666
 20
-7.573999355321864
 10
-37.92324502205554
 20
-7.6275727651108
 10
-37.88618685881991
 20
-7.689862966276941
 10
-37.84347316424683
 20
-7.757275074747694
 10
-37.79562468200129
 20
-7.828355576384203
 10
-37.74299504361846
 20
-7.900662024751747
 10
-37.68566995189123
 20
-7.973134898581053
 10
-37.62399153132313
 20
-8.04524263384356
 10
-37.5579338477311
 20
-8.116501928088933
 10
-37.48758621069593
 20
-8.186451806262022
 10
-37.41299327500795
 20
-8.254861780835252
 10
-37.3341550406672
 20
-8.321731851808625
 10
-37.25120907883262
 20
-8.38696910281354
 10
-37.16408480053082
 20
-8.450320718927232
 10
-37.07275987836661
 20
-8.511901943913493
 10
-36.97737188349896
 20
-8.571619861403724
 10
-36.87776091737372
 20
-8.629682631530306
 10
-36.773949307386054
 20
-8.685975010529456
 10
-36.66621219585394
 20
-8.740311165663975
 10
-36.554136869300415
 20
-8.792969846039659
 10
-36.43809138641206
 20
-8.843902790078287
 10
-36.31782293226611
 20
-8.893180586753267
 10
-36.193469078021536
 20
-8.940710319696008
 10
-36.06505215107352
 20
-8.98637674514271
 10
-35.932505169236514
 20
-9.030525594384743
 10
-35.79587278730087
 20
-9.072926379894533
 10
-35.65506569568585
 20
-9.114040076727225
 10
-35.51015087657702
 20
-9.153520953591459
 10
-35.36119891894779
 20
-9.191621825409998
 10
-35.208094579034366
 20
-9.228320364787654
 10
-35.05079320204638
 20
-9.263847059252
 10
-34.8894323591428
 20
-9.298108992434438
 10
-34.72398972292846
 20
-9.331221408098758
 10
-34.55446529340333
 20
-9.363184306244953
 10
-34.380676844618066
 20
-9.3943210907692
 10
-34.202877191495446
 20
-9.42456117269809
 10
-34.02085817390307
 20
-9.453744653477457
 10
-33.83485027936852
 20
-9.48191618789768
 10
-33.64469360933762
 20
-9.509283936091142
 10
-33.45050340757418
 20
-9.535870225453033
 10
-33.25218675770959
 20
-9.561537484824377
 10
-33.049903558298
 20
-9.586077554072787
 10
-32.84351623818044
 20
-9.609583349566863
 10
-32.633232957489305
 20
-9.632214769860768
 10
-32.418938472460816
 20
-9.653949487559315
 10
-32.20063278309495
 20
-9.6747875026625
 10
-31.97838287157729
 20
-9.69438308387897
 10
-31.752303981671616
 20
-9.712758558603904
 10
-31.522280869614132
 20
-9.729891599442116
 10
-31.288384124378254
 20
-9.74603502131637
 10
-31.050613745963993
 20
-9.761188824226666
 10
-30.809059043952093
 20
-9.774892033117855
 10
-30.563790607315962
 20
-9.787397462912699
 10
-30.314715519687006
 20
-9.798567542452222
 10
-30.061811453670032
 20
-9.808517515500213
 10
-29.805193653028834
 20
-9.817269709451859
 10
-29.544884445158598
 20
-9.824708880543373
 10
-29.28086150266413
 20
-9.830950272538542
 10
-29.013124825545436
 20
-9.835993885437363
 10
-28.7416967411977
 20
-9.839724475476054
 10
-28.466670165989527
 20
-9.842279613813588
 10
-28.188045099920913
 20
-9.843659300449962
 10
-27.905728626623258
 20
-9.843725964226207
 10
-27.619906578833763
 20
-9.842754747460267
 10
-27.330486040183825
 20
-9.840608078993172
 10
-27.03744468327826
 20
-9.837401202588705
 10
-26.74092007927604
 20
-9.833041201878268
 10
-26.440979210362734
 20
-9.8271823455705
 10
-26.137555094352773
 20
-9.820170364956764
 10
-25.830487832691993
 20
-9.812213420169444
 10
-25.520145484066955
 20
-9.80326324963032
 10
-25.20634221574045
 20
-9.793044711021436
 10
-24.889100355107654
 20
-9.781442560579007
 10
-24.568605734905795
 20
-9.768731940620986
 10
-24.24472078397588
 20
-9.755005767515971
 10
-23.917490157108276
 20
-9.740033553736385
 10
-23.58702909806679
 20
-9.723837626677417
 10
-23.253359934246596
 20
-9.706302742575282
 10
-22.916415683462144
 20
-9.687774632721341
 10
-22.576241000503796
 20
-9.668022809588019
 10
-22.232791230581178
 20
-9.647277760702886
 10
-21.886363843407437
 20
-9.625238409564965
 10
-21.536706024059804
 20
-9.60197534514766
 10
-21.183933016302063
 20
-9.577510894846162
 10
-20.828137736502818
 20
-9.551982629819445
 10
-20.46924959568866
 20
-9.525137735144746
 10
-20.107339182833
 20
-9.497229025744831
 10
-19.74254406909481
 20
-9.468163585251098
 10
-19.374678421736885
 20
-9.437666271345597
 10
-19.003972728286815
 20
-9.405781738818703
 10
-18.63036000655902
 20
-9.372855718961777
 10
-18.253840256553513
 20
-9.338888211774822
 10
-17.874413478270284
 20
-9.303879217257835
 10
-17.492261897658693
 20
-9.267505331514643
 10
-17.107430169509108
 20
-9.229536067017673
 10
-16.719713740477
 20
-9.190410071426884
 10
-16.329343098089932
 20
-9.150171999532652
 10
-15.936247653374497
 20
-9.108569036412216
 10
-15.54058730488486
 20
-9.065393021933188
 10
-15.142295070435459
 20
-9.020989687386932
 10
-14.741441538999696
 20
-8.975611847696205
 10
-14.337956121604174
 20
-8.929006687938253
 10
-13.931905800434441
 20
-8.880828476821705
 10
-13.523476408227708
 20
-8.83135235666452
 10
-13.112645617588775
 20
-8.78069357123048
 10
-12.699182940990086
 20
-8.728807465729208
 10
-12.283456437118174
 20
-8.675645778582483
 10
-11.865395516999634
 20
-8.620955694867542
 10
-11.445000180634462
 20
-8.564737214584387
 10
-11.02236334439126
 20
-8.507127908891988
 10
-10.597373371294092
 20
-8.448703996609284
 10
-10.170212487292305
 20
-8.389142073840105
 10
-9.740854758202863
 20
-8.327958838134109
 10
-9.309277856630581
 20
-8.265269533255085
 10
-8.87571227010303
 20
-8.201118813993407
 10
-8.439953445275671
 20
-8.135945328009038
 10
-8.002161280702671
 20
-8.069540915169592
 10
-7.562335776384028
 20
-8.001905575475067
 10
-7.120521587110114
 20
-7.932808821397889
 10
-6.676696385485752
 20
-7.8623658967018475
 10
-6.231046004248127
 20
-7.790851943704889
 10
-5.783384610660057
 20
-7.7179918200890665
 10
-5.33398734703947
 20
-7.643599693117178
 10
-4.88283188599119
 20
-7.567790806553012
 10
-4.42989590012003
 20
-7.490680404160358
 10
-3.975086473057393
 20
-7.412130914780237
 10
-3.518793990885017
 20
-7.331978833070642
 10
-3.060925537234292
 20
-7.2500865878725955
 10
-2.6012319039703162
 20
-7.167123314373635
 10
-2.1399659060158385
 20
-7.083018423600345
 10
-1.6773767515057847
 20
-6.997102780365193
 10
-1.2131669707270187
 20
-6.909677461169165
 10
-0.7474294800481255
 20
-6.820880037171235
 10
-0.2804394217870661
 20
-6.7305246756342045
 10
0.18801136418855044
 20
-6.638451478003911
 10
0.6576923903511451
 20
-6.544705099070729
 10
1.1288082100452626
 20
-6.449724186494621
 10
1.6011989247167262
 20
-6.353300580143201
 10
2.074637653625833
 20
-6.254880388592717
 10
2.549306622721912
 20
-6.1547870157393465
 10
3.0251798978219466
 20
-6.053503764033423
 10
3.502075319958748
 20
-5.95070757531007
 10
3.980089422538962
 20
-5.846279547900038
 10
4.459153670709506
 20
-5.740483099152365
 10
4.939178821871837
 20
-5.632857599743188
 10
5.4201649206807465
 20
-5.523403280160036
 10
5.902086032953176
 20
-5.412603442853246
 10
6.384849331630123
 20
-5.300596119956851
 10
6.868547755407589
 20
-5.187243855555635
 10
7.352999100663597
 20
-5.072223360997192
 10
7.83824804451594
 20
-4.955765239052857
 10
8.324294676274192
 20
-4.837869950697685
 10
8.811023729847156
 20
-4.718559708083104
 10
9.29836829003148
 20
-4.597489125649039
 10
9.78637301161751
 20
-4.474888690923069
 10
10.274896716658446
 20
-4.351264033750715
 10
10.764147654596247
 20
-4.226455716552869
 10
11.253828333390377
 20
-4.100162547584785
 10
11.74407636885461
 20
-3.9724776737025844
 10
12.234661273461363
 20
-3.8434457496966483
 10
12.725720640697006
 20
-3.7131598071793372
 10
13.217232165493757
 20
-3.5815047176306276
 10
13.708987687719215
 20
-3.4486403796046834
 10
14.20114710592756
 20
-3.3147749532338886
 10
14.693688159705772
 20
-3.1797935404857505
 10
15.186357967148918
 20
-3.0436252066555647
 10
15.679294144070749
 20
-2.9063630985994573
 10
16.172426101497862
 20
-2.7682600312401933
 10
16.66577979594069
 20
-2.6288328173711975
 10
17.15916935000724
 20
-2.488356368822892
 10
17.65263941848788
 20
-2.347061173122853
 10
18.146167696314837
 20
-2.204832101751055
 10
18.63970952869772
 20
-2.0614386671799263
 10
19.13330959275431
 20
-1.9171114721808016
 10
19.626781944110412
 20
-1.7721250828528166
 10
20.120197216394253
 20
-1.626226914760732
 10
20.613507148027598
 20
-1.4797850265910992
 10
21.10664471217009
 20
-1.3324534565650288
 10
21.599587603753942
 20
-1.184117076162498
 10
22.092380477569524
 20
-1.035006372911082
 10
22.584859694310456
 20
-0.8855110414299338
 10
23.07714056472272
 20
-0.7356091000551548
 10
23.569040818202158
 20
-0.5849769144030491
 10
24.060582737489185
 20
-0.4337294977498714
 10
24.55176634491118
 20
-0.28186696533938776
 10
25.042613923208553
 20
-0.1295043304478564
 10
25.53287254582155
 20
0.02342957211694997
 10
26.02267985089137
 20
0.17684148025514737
 10
26.51194278808498
 20
0.33059451427033293
 10
27.00082136759357
 20
0.4844799378113107
 10
27.488995591362237
 20
0.6389151083367222
 10
27.97648780911357
 20
0.7937846668390224
 10
28.463524901587295
 20
0.9485347218944563
 10
28.94974230524774
 20
1.103812657514196
 10
29.435117625717528
 20
1.2597340631933183
 10
29.919900138113743
 20
1.4156294580129938
 10
30.403903831080036
 20
1.5712246216053847
 10
30.88711002866387
 20
1.7272331134608754
 10
31.369425725187035
 20
1.8835178233955443
 10
31.850735542921406
 20
2.0400571154767877
 10
32.33119944740332
 20
2.196642483840929
 10
32.81072441062719
 20
2.3531369335478063
 10
33.28933269300602
 20
2.5094255665649303
 10
33.766864329003475
 20
2.6657168887559757
 10
34.24327457451959
 20
2.8222418486235727
 10
34.71863038941255
 20
2.9786548301201257
 10
35.192931751354934
 20
3.1349559484893956
 10
35.66597025461301
 20
3.2909865728586207
 10
36.13797654300614
 20
3.4467905513118313
 10
36.60865292354722
 20
3.6026701127876537
 10
37.07802167897665
 20
3.758510244009824
 10
37.54619435696076
 20
3.9137351871344603
 10
38.01314865243183
 20
4.068460070681596
 10
38.4786091328157
 20
4.222872225557347
 10
38.942828769326944
 20
4.376900256081964
 10
39.405554501441415
 20
4.530616018910253
 10
39.86690161757772
 20
4.68404161094988
 10
40.32679937247068
 20
4.836925023984428
 10
40.78513236606472
 20
4.989244737325054
 10
41.242060563896196
 20
5.14079224510808
 10
41.697286205995844
 20
5.291870122003422
 10
42.151039936183004
 20
5.44252221609511
 10
42.60306869393356
 20
5.592820384037958
 10
43.053506331981666
 20
5.742073739468058
 10
43.50223747259916
 20
5.89026064645281
 10
43.94935879523425
 20
6.03811641565896
 10
44.39450183930729
 20
6.185691383052485
 10
44.83807586779911
 20
6.332107446607116
 10
45.27982779785821
 20
6.477436578221427
 10
45.71966820826688
 20
6.622140329169392
 10
46.15759705437027
 20
6.766218929938528
 10
46.59363659658147
 20
6.90955748249635
 10
47.027898427221565
 20
7.0515799985114445
 10
47.460107046734294
 20
7.192474154621229
 10
47.89042618373563
 20
7.332629184469808
 10
48.31862499345967
 20
7.472002277167025
 10
48.74474806371461
 20
7.6103632909165935
 10
49.16884000463603
 20
7.747481968678471
 10
49.59085607212398
 20
7.8835892589552845
 10
50.01068079914069
 20
8.01866398678948
 10
50.428474173549944
 20
8.152497531073626
 10
50.84400535058584
 20
8.28504708091756
 10
51.25732268113616
 20
8.416680234032778
 10
51.66819527578023
 20
8.54735441001665
 10
52.07701390016551
 20
8.67690414438319
 10
52.48336156420534
 20
8.805013097336973
 10
52.88746900102869
 20
8.931724655986983
 10
53.289313793930766
 20
9.057154525072056
 10
53.68862044335528
 20
9.181490381229617
 10
54.08541116506048
 20
9.304617556914692
 10
54.479938997243046
 20
9.426464310716234
 10
54.87188004480414
 20
9.5468509520477
 10
55.261394250952684
 20
9.66556909028917
 10
55.6482991664654
 20
9.782943281774457
 10
56.032687774693066
 20
9.899110751931246
 10
56.41446693599312
 20
10.013935082038195
 10
56.79363656105598
 20
10.127416733070367
 10
57.17014814270212
 20
10.239188914022613
 10
57.54405005414668
 20
10.349619107362656
 10
57.91513371103679
 20
10.458549604167851
 10
58.283469769328036
 20
10.566232873629671
 10
58.649125166551215
 20
10.672323414944275
 10
59.01200671840898
 20
10.776685039877862
 10
59.37204735340616
 20
10.879663940696839
 10
59.729247004560605
 20
10.981260463132507
 10
60.08360558256271
 20
11.081475068159916
 10
60.43493685278219
 20
11.180034687848863
 10
60.78351620313829
 20
11.276752221780749
 10
61.12911650729
 20
11.37218282906073
 10
61.471644603267315
 20
11.46619020621122
 10
61.81121580181625
 20
11.558796334896126
 10
62.14775926836203
 20
11.649749667874083
 10
62.48113718614434
 20
11.739144389195094
 10
62.81155798322428
 20
11.82713901448815
 10
63.13885770771198
 20
11.9133454625468
 10
63.462991637834854
 20
11.997994566629904
 10
63.783982034005895
 20
12.080971428704965
 10
64.10176180240259
 20
12.162622356282169
 10
64.41637553083312
 20
12.242717207565226
 10
64.72770770760495
 20
12.321235038084119
 10
65.0357805931311
 20
12.398060949806348
 10
65.34068721541708
 20
12.473331937672073
 10
65.6421743129923
 20
12.547120895529979
 10
65.94024177421976
 20
12.619428399598883
 10
66.23502730422281
 20
12.69016084204761
 10
66.52655325272403
 20
12.759202863868603
 10
66.81452217233765
 20
12.826855426319087
 10
67.0990473866715
 20
12.893150767757929
 10
67.38019804366846
 20
12.957731978248688
 10
67.65783550045461
 20
13.020697505860623
 10
67.93191505758477
 20
13.082278068608838
 10
68.20259672525009
 20
13.14226493014212
 10
68.46967187444287
 20
13.200500612025353
 10
68.7332112057735
 20
13.257237352962479
 10
68.9931923248646
 20
13.312590742448572
 10
69.24949974235103
 20
13.366539720769852
 10
69.50217804604102
 20
13.418854146130034
 10
69.75120479690237
 20
13.46964983851172
 10
69.99653529548993
 20
13.51915751593002
 10
70.23819177988932
 20
13.567262395596197
 10
70.47610343785313
 20
13.613712815025123
 10
70.71027015774442
 20
13.658509350435622
 10
70.94071803003798
 20
13.702134497571683
 10
71.16735384810907
 20
13.744452183443261
 10
71.39017758963031
 20
13.78546252329412
 10
71.60921147035992
 20
13.825050849579291
 10
71.82434002326013
 20
13.863195987341223
 10
72.03567858140433
 20
13.899919803000051
 10
72.24306704529177
 20
13.93543149388203
 10
72.44654995807589
 20
13.969501148678415
 10
72.64608262031152
 20
14.002359485404297
 10
72.84182506451718
 20
14.033797652464715
 10
73.033501701827
 20
14.064003787472139
 10
73.22120558257397
 20
14.093114770122963
 10
73.40484354478816
 20
14.120994296939614
 10
73.58455329359288
 20
14.147548760090903
 10
73.76017450621347
 20
14.172988509340739
 10
73.9318671035315
 20
14.197105269312967
 10
74.09933457591184
 20
14.220195161026734
 10
74.26282830932392
 20
14.2421949711095
 10
74.42211803951413
 20
14.26305889233326
 10
74.57731914421066
 20
14.282808560630622
 10
74.72843157875867
 20
14.301444206489107
 10
74.87543294878083
 20
14.319081419403794
 10
75.01823013696195
 20
14.335583665409585
 10
75.1567783992021
 20
14.35118189300911
 10
75.2912155076068
 20
14.365782148639894
 10
75.42140360076093
 20
14.379478846839467
 10
75.5473649837323
 20
14.392156859087802
 10
75.66907730679833
 20
14.403931544392451
 10
75.78656283037198
 20
14.414688004720922
 10
75.89979920473073
 20
14.424541599080762
 10
76.00874175275675
 20
14.433722930243313
 10
76.11331961754793
 20
14.441980566210974
 10
76.21374136112973
 20
14.44947233115016
 10
76.30963825499379
 20
14.456249943952013
 10
76.40137896066629
 20
14.46226203145668
 10
76.4887325440718
 20
14.467466243749069
 10
76.57165432809248
 20
14.472093183600512
 10
76.65028206250653
 20
14.476049012692306
 10
76.72450025794878
 20
14.479312671310655
 10
76.79426425962887
 20
14.482114646983142
 10
76.85973412239271
 20
14.484245972871026
 10
76.9207497467396
 20
14.485915846300578
 10
76.97733341540994
 20
14.487009253995529
 10
77.02944047361336
 20
14.487756683483461
 10
77.07709324874503
 20
14.488042891000584
 10
77.12038481346531
 20
14.488004640999524
 10
77.1590842560261
 20
14.487599468321415
 10
77.19328471607002
 20
14.486963791687606
 10
77.22310161597997
 20
14.486119016543158
 10
77.24830404400784
 20
14.48502267772922
 10
77.26896276774629
 20
14.483926668218443
 10
77.28521562628296
 20
14.482736688717054
 10
77.29678696376982
 20
14.481641222568825
 10
77.30376998683164
 20
14.480776342763802
 10
77.30611997369583
 20
14.480372882560848
  0
ENDSEC
  0
SECTION
  2
OBJECTS
  0
DICTIONARY
  5
A
330
0
100
AcDbDictionary
280
0
281
1
  3
ACAD_COLOR
350
B
  3
ACAD_GROUP
350
C
  3
ACAD_LAYOUT
350
D
  3
ACAD_MATERIAL
350
E
  3
ACAD_MLEADERSTYLE
350
F
  3
ACAD_MLINESTYLE
350
10
  3
ACAD_PLOTSETTINGS
350
11
  3
ACAD_PLOTSTYLENAME
350
12
  3
ACAD_SCALELIST
350
14
  3
ACAD_TABLESTYLE
350
15
  3
ACAD_VISUALSTYLE
350
16
  3
EZDXF_META
350
2D
  0
DICTIONARY
  5
B
330
A
100
AcDbDictionary
280
0
281
1
  0
DICTIONARY
  5
C
330
A
100
AcDbDictionary
280
0
281
1
  0
DICTIONARY
  5
D
330
A
100
AcDbDictionary
280
0
281
1
  3
Model
350
1A
  3
Layout1
350
1E
  0
DICTIONARY
  5
E
330
A
100
AcDbDictionary
280
0
281
1
  3
ByBlock
350
1F
  3
ByLayer
350
20
  3
Global
350
21
  0
DICTIONARY
  5
F
330
A
100
AcDbDictionary
280
0
281
1
  3
Standard
350
2C
  0
DICTIONARY
  5
10
330
A
100
AcDbDictionary
280
0
281
1
  3
Standard
350
22
  0
DICTIONARY
  5
11
330
A
100
AcDbDictionary
280
0
281
1
  0
ACDBDICTIONARYWDFLT
  5
12
330
A
100
AcDbDictionary
280
0
281
1
  3
Normal
350
13
100
AcDbDictionaryWithDefault
340
13
  0
ACDBPLACEHOLDER
  5
13
330
12
  0
DICTIONARY
  5
14
330
A
100
AcDbDictionary
280
0
281
1
  0
DICTIONARY
  5
15
330
A
100
AcDbDictionary
280
0
281
1
  0
DICTIONARY
  5
16
330
A
100
AcDbDictionary
280
0
281
1
  0
LAYOUT
  5
1A
330
D
100
AcDbPlotSettings
  1

  4
A3
  6

 40
7.5
 41
20.0
 42
7.5
 43
20.0
 44
420.0
 45
297.0
 46
0.0
 47
0.0
 48
0.0
 49
0.0
140
0.0
141
0.0
142
1.0
143
1.0
 70
1024
 72
1
 73
0
 74
5
  7

 75
16
 76
0
 77
2
 78
300
147
1.0
148
0.0
149
0.0
100
AcDbLayout
  1
Model
 70
1
 71
0
 10
0.0
 20
0.0
 11
420.0
 21
297.0
 12
0.0
 22
0.0
 32
0.0
 14
1e+20
 24
1e+20
 34
1e+20
 15
-1e+20
 25
-1e+20
 35
-1e+20
146
0.0
 13
0.0
 23
0.0
 33
0.0
 16
1.0
 26
0.0
 36
0.0
 17
0.0
 27
1.0
 37
0.0
 76
1
330
17
  0
LAYOUT
  5
1E
330
D
100
AcDbPlotSettings
  1

  4
A3
  6

 40
7.5
 41
20.0
 42
7.5
 43
20.0
 44
420.0
 45
297.0
 46
0.0
 47
0.0
 48
0.0
 49
0.0
140
0.0
141
0.0
142
1.0
143
1.0
 70
0
 72
1
 73
0
 74
5
  7

 75
16
 76
0
 77
2
 78
300
147
1.0
148
0.0
149
0.0
100
AcDbLayout
  1
Layout1
 70
1
 71
1
 10
0.0
 20
0.0
 11
420.0
 21
297.0
 12
0.0
 22
0.0
 32
0.0
 14
1e+20
 24
1e+20
 34
1e+20
 15
-1e+20
 25
-1e+20
 35
-1e+20
146
0.0
 13
0.0
 23
0.0
 33
0.0
 16
1.0
 26
0.0
 36
0.0
 17
0.0
 27
1.0
 37
0.0
 76
1
330
1B
  0
MATERIAL
  5
1F
102
{ACAD_REACTORS
330
E
102
}
330
E
100
AcDbMaterial
  1
ByBlock
  2

 70
0
 40
1.0
 71
1
 41
1.0
 91
-1023410177
 42
1.0
 72
1
  3

 73
1
 74
1
 75
1
 44
0.5
 73
0
 45
1.0
 46
1.0
 77
1
  4

 78
1
 79
1
170
1
 48
1.0
171
1
  6

172
1
173
1
174
1
140
1.0
141
1.0
175
1
  7

176
1
177
1
178
1
143
1.0
179
1
  8

270
1
271
1
272
1
145
1.0
146
1.0
273
1
  9

274
1
275
1
276
1
 42
1.0
 72
1
  3

 73
1
 74
1
 75
1
 94
63
  0
MATERIAL
  5
20
102
{ACAD_REACTORS
330
E
102
}
330
E
100
AcDbMaterial
  1
ByLayer
  2

 70
0
 40
1.0
 71
1
 41
1.0
 91
-1023410177
 42
1.0
 72
1
  3

 73
1
 74
1
 75
1
 44
0.5
 73
0
 45
1.0
 46
1.0
 77
1
  4

 78
1
 79
1
170
1
 48
1.0
171
1
  6

172
1
173
1
174
1
140
1.0
141
1.0
175
1
  7

176
1
177
1
178
1
143
1.0
179
1
  8

270
1
271
1
272
1
145
1.0
146
1.0
273
1
  9

274
1
275
1
276
1
 42
1.0
 72
1
  3

 73
1
 74
1
 75
1
 94
63
  0
MATERIAL
  5
21
102
{ACAD_REACTORS
330
E
102
}
330
E
100
AcDbMaterial
  1
Global
  2

 70
0
 40
1.0
 71
1
 41
1.0
 91
-1023410177
 42
1.0
 72
1
  3

 73
1
 74
1
 75
1
 44
0.5
 73
0
 45
1.0
 46
1.0
 77
1
  4

 78
1
 79
1
170
1
 48
1.0
171
1
  6

172
1
173
1
174
1
140
1.0
141
1.0
175
1
  7

176
1
177
1
178
1
143
1.0
179
1
  8

270
1
271
1
272
1
145
1.0
146
1.0
273
1
  9

274
1
275
1
276
1
 42
1.0
 72
1
  3

 73
1
 74
1
 75
1
 94
63
  0
MLINESTYLE
  5
22
102
{ACAD_REACTORS
330
10
102
}
330
10
100
AcDbMlineStyle
  2
Standard
 70
0
  3

 62
256
 51
90.0
 52
90.0
 71
2
 49
0.5
 62
256
  6
BYLAYER
 49
-0.5
 62
256
  6
BYLAYER
  0
MLEADERSTYLE
  5
2C
102
{ACAD_REACTORS
330
F
102
}
330
F
100
AcDbMLeaderStyle
179
2
170
2
171
1
172
0
 90
2
 40
0.0
 41
0.0
173
1
 91
-1056964608
 92
-2
290
1
 42
2.0
291
1
 43
8.0
  3
Standard
 44
4.0
300

342
29
174
1
175
1
176
0
178
1
 93
-1056964608
 45
4.0
292
0
297
0
 46
4.0
 94
-1056964608
 47
1.0
 49
1.0
140
1.0
294
1
141
0.0
177
0
142
1.0
295
0
296
0
143
3.75
271
0
272
9
273
9
  0
DICTIONARY
  5
2D
330
A
100
AcDbDictionary
280
1
281
1
  3
CREATED_BY_EZDXF
350
2E
  3
WRITTEN_BY_EZDXF
350
32
  0
DICTIONARYVAR
  5
2E
330
2D
100
DictionaryVariables
280
0
  1
1.3.5 @ 2025-08-20T01:28:29.501268+00:00
  0
DICTIONARYVAR
  5
32
330
2D
100
DictionaryVariables
280
0
  1
1.3.5 @ 2025-08-20T01:28:29.516889+00:00
  0
ENDSEC
  0
EOF
