  0
SECTION
  2
HEADER
  9
$ACADVER
  1
AC1032
  9
$ACADMAINTVER
 90
4
  9
$DWGCODEPAGE
  3
ANSI_1252
  9
$LASTSAVEDBY
  1
ezdxf
  9
$REQUIREDVERSIONS
160
0
  9
$INSBASE
 10
0.0
 20
0.0
 30
0.0
  9
$EXTMIN
 10
1e+20
 20
1e+20
 30
1e+20
  9
$EXTMAX
 10
-1e+20
 20
-1e+20
 30
-1e+20
  9
$LIMMIN
 10
0.0
 20
0.0
  9
$LIMMAX
 10
420.0
 20
297.0
  9
$ORTHOMODE
 70
0
  9
$REGENMODE
 70
1
  9
$FILLMODE
 70
1
  9
$QTEXTMODE
 70
0
  9
$MIRRTEXT
 70
1
  9
$LTSCALE
 40
1.0
  9
$ATTMODE
 70
1
  9
$TEXTSIZE
 40
2.5
  9
$TRACEWID
 40
1.0
  9
$TEXTSTYLE
  7
Standard
  9
$CLAYER
  8
0
  9
$CELTYPE
  6
ByLayer
  9
$CECOLOR
 62
256
  9
$CELTSCALE
 40
1.0
  9
$DISPSILH
 70
0
  9
$DIMSCALE
 40
1.0
  9
$DIMASZ
 40
2.5
  9
$DIMEXO
 40
0.625
  9
$DIMDLI
 40
3.75
  9
$DIMRND
 40
0.0
  9
$DIMDLE
 40
0.0
  9
$DIMEXE
 40
1.25
  9
$DIMTP
 40
0.0
  9
$DIMTM
 40
0.0
  9
$DIMTXT
 40
2.5
  9
$DIMCEN
 40
2.5
  9
$DIMTSZ
 40
0.0
  9
$DIMTOL
 70
0
  9
$DIMLIM
 70
0
  9
$DIMTIH
 70
0
  9
$DIMTOH
 70
0
  9
$DIMSE1
 70
0
  9
$DIMSE2
 70
0
  9
$DIMTAD
 70
1
  9
$DIMZIN
 70
8
  9
$DIMBLK
  1

  9
$DIMASO
 70
1
  9
$DIMSHO
 70
1
  9
$DIMPOST
  1

  9
$DIMAPOST
  1

  9
$DIMALT
 70
0
  9
$DIMALTD
 70
3
  9
$DIMALTF
 40
0.03937007874
  9
$DIMLFAC
 40
1.0
  9
$DIMTOFL
 70
1
  9
$DIMTVP
 40
0.0
  9
$DIMTIX
 70
0
  9
$DIMSOXD
 70
0
  9
$DIMSAH
 70
0
  9
$DIMBLK1
  1

  9
$DIMBLK2
  1

  9
$DIMSTYLE
  2
ISO-25
  9
$DIMCLRD
 70
0
  9
$DIMCLRE
 70
0
  9
$DIMCLRT
 70
0
  9
$DIMTFAC
 40
1.0
  9
$DIMGAP
 40
0.625
  9
$DIMJUST
 70
0
  9
$DIMSD1
 70
0
  9
$DIMSD2
 70
0
  9
$DIMTOLJ
 70
0
  9
$DIMTZIN
 70
8
  9
$DIMALTZ
 70
0
  9
$DIMALTTZ
 70
0
  9
$DIMUPT
 70
0
  9
$DIMDEC
 70
2
  9
$DIMTDEC
 70
2
  9
$DIMALTU
 70
2
  9
$DIMALTTD
 70
3
  9
$DIMTXSTY
  7
Standard
  9
$DIMAUNIT
 70
0
  9
$DIMADEC
 70
0
  9
$DIMALTRND
 40
0.0
  9
$DIMAZIN
 70
0
  9
$DIMDSEP
 70
44
  9
$DIMATFIT
 70
3
  9
$DIMFRAC
 70
0
  9
$DIMLDRBLK
  1

  9
$DIMLUNIT
 70
2
  9
$DIMLWD
 70
-2
  9
$DIMLWE
 70
-2
  9
$DIMTMOVE
 70
0
  9
$DIMFXL
 40
1.0
  9
$DIMFXLON
 70
0
  9
$DIMJOGANG
 40
0.785398163397
  9
$DIMTFILL
 70
0
  9
$DIMTFILLCLR
 70
0
  9
$DIMARCSYM
 70
0
  9
$DIMLTYPE
  6

  9
$DIMLTEX1
  6

  9
$DIMLTEX2
  6

  9
$DIMTXTDIRECTION
 70
0
  9
$LUNITS
 70
2
  9
$LUPREC
 70
4
  9
$SKETCHINC
 40
1.0
  9
$FILLETRAD
 40
10.0
  9
$AUNITS
 70
0
  9
$AUPREC
 70
2
  9
$MENU
  1
.
  9
$ELEVATION
 40
0.0
  9
$PELEVATION
 40
0.0
  9
$THICKNESS
 40
0.0
  9
$LIMCHECK
 70
0
  9
$CHAMFERA
 40
0.0
  9
$CHAMFERB
 40
0.0
  9
$CHAMFERC
 40
0.0
  9
$CHAMFERD
 40
0.0
  9
$SKPOLY
 70
0
  9
$TDCREATE
 40
2460908.103125
  9
$TDUCREATE
 40
2458532.153996898
  9
$TDUPDATE
 40
2460908.103125
  9
$TDUUPDATE
 40
2458532.1544311
  9
$TDINDWG
 40
0.0
  9
$TDUSRTIMER
 40
0.0
  9
$USRTIMER
 70
1
  9
$ANGBASE
 50
0.0
  9
$ANGDIR
 70
0
  9
$PDMODE
 70
0
  9
$PDSIZE
 40
0.0
  9
$PLINEWID
 40
0.0
  9
$SPLFRAME
 70
0
  9
$SPLINETYPE
 70
6
  9
$SPLINESEGS
 70
8
  9
$HANDSEED
  5
33
  9
$SURFTAB1
 70
6
  9
$SURFTAB2
 70
6
  9
$SURFTYPE
 70
6
  9
$SURFU
 70
6
  9
$SURFV
 70
6
  9
$UCSBASE
  2

  9
$UCSNAME
  2

  9
$UCSORG
 10
0.0
 20
0.0
 30
0.0
  9
$UCSXDIR
 10
1.0
 20
0.0
 30
0.0
  9
$UCSYDIR
 10
0.0
 20
1.0
 30
0.0
  9
$UCSORTHOREF
  2

  9
$UCSORTHOVIEW
 70
0
  9
$UCSORGTOP
 10
0.0
 20
0.0
 30
0.0
  9
$UCSORGBOTTOM
 10
0.0
 20
0.0
 30
0.0
  9
$UCSORGLEFT
 10
0.0
 20
0.0
 30
0.0
  9
$UCSORGRIGHT
 10
0.0
 20
0.0
 30
0.0
  9
$UCSORGFRONT
 10
0.0
 20
0.0
 30
0.0
  9
$UCSORGBACK
 10
0.0
 20
0.0
 30
0.0
  9
$PUCSBASE
  2

  9
$PUCSNAME
  2

  9
$PUCSORG
 10
0.0
 20
0.0
 30
0.0
  9
$PUCSXDIR
 10
1.0
 20
0.0
 30
0.0
  9
$PUCSYDIR
 10
0.0
 20
1.0
 30
0.0
  9
$PUCSORTHOREF
  2

  9
$PUCSORTHOVIEW
 70
0
  9
$PUCSORGTOP
 10
0.0
 20
0.0
 30
0.0
  9
$PUCSORGBOTTOM
 10
0.0
 20
0.0
 30
0.0
  9
$PUCSORGLEFT
 10
0.0
 20
0.0
 30
0.0
  9
$PUCSORGRIGHT
 10
0.0
 20
0.0
 30
0.0
  9
$PUCSORGFRONT
 10
0.0
 20
0.0
 30
0.0
  9
$PUCSORGBACK
 10
0.0
 20
0.0
 30
0.0
  9
$USERI1
 70
0
  9
$USERI2
 70
0
  9
$USERI3
 70
0
  9
$USERI4
 70
0
  9
$USERI5
 70
0
  9
$USERR1
 40
0.0
  9
$USERR2
 40
0.0
  9
$USERR3
 40
0.0
  9
$USERR4
 40
0.0
  9
$USERR5
 40
0.0
  9
$WORLDVIEW
 70
1
  9
$SHADEDGE
 70
3
  9
$SHADEDIF
 70
70
  9
$TILEMODE
 70
1
  9
$MAXACTVP
 70
64
  9
$PINSBASE
 10
0.0
 20
0.0
 30
0.0
  9
$PLIMCHECK
 70
0
  9
$PEXTMIN
 10
1e+20
 20
1e+20
 30
1e+20
  9
$PEXTMAX
 10
-1e+20
 20
-1e+20
 30
-1e+20
  9
$PLIMMIN
 10
0.0
 20
0.0
  9
$PLIMMAX
 10
420.0
 20
297.0
  9
$UNITMODE
 70
0
  9
$VISRETAIN
 70
1
  9
$PLINEGEN
 70
0
  9
$PSLTSCALE
 70
1
  9
$TREEDEPTH
 70
3020
  9
$CMLSTYLE
  2
Standard
  9
$CMLJUST
 70
0
  9
$CMLSCALE
 40
20.0
  9
$PROXYGRAPHICS
 70
1
  9
$MEASUREMENT
 70
1
  9
$CELWEIGHT
370
-1
  9
$ENDCAPS
280
0
  9
$JOINSTYLE
280
0
  9
$LWDISPLAY
290
0
  9
$INSUNITS
 70
6
  9
$HYPERLINKBASE
  1

  9
$STYLESHEET
  1

  9
$XEDIT
290
1
  9
$CEPSNTYPE
380
0
  9
$PSTYLEMODE
290
1
  9
$FINGERPRINTGUID
  2
{285BCF37-2A40-426F-B623-4E8084E4F858}
  9
$VERSIONGUID
  2
{419E484E-BBBF-4E58-BA32-B4E2ED75D3D3}
  9
$EXTNAMES
290
1
  9
$PSVPSCALE
 40
0.0
  9
$OLESTARTUP
290
0
  9
$SORTENTS
280
127
  9
$INDEXCTL
280
0
  9
$HIDETEXT
280
1
  9
$XCLIPFRAME
280
1
  9
$HALOGAP
280
0
  9
$OBSCOLOR
 70
257
  9
$OBSLTYPE
280
0
  9
$INTERSECTIONDISPLAY
280
0
  9
$INTERSECTIONCOLOR
 70
257
  9
$DIMASSOC
280
2
  9
$PROJECTNAME
  1

  9
$CAMERADISPLAY
290
0
  9
$LENSLENGTH
 40
50.0
  9
$CAMERAHEIGHT
 40
0.0
  9
$STEPSPERSEC
 40
24.0
  9
$STEPSIZE
 40
100.0
  9
$3DDWFPREC
 40
2.0
  9
$PSOLWIDTH
 40
0.005
  9
$PSOLHEIGHT
 40
0.08
  9
$LOFTANG1
 40
1.570796326795
  9
$LOFTANG2
 40
1.570796326795
  9
$LOFTMAG1
 40
0.0
  9
$LOFTMAG2
 40
0.0
  9
$LOFTPARAM
 70
7
  9
$LOFTNORMALS
280
1
  9
$LATITUDE
 40
37.795
  9
$LONGITUDE
 40
-122.394
  9
$NORTHDIRECTION
 40
0.0
  9
$TIMEZONE
 70
-8000
  9
$LIGHTGLYPHDISPLAY
280
1
  9
$TILEMODELIGHTSYNCH
280
1
  9
$CMATERIAL
347
20
  9
$SOLIDHIST
280
0
  9
$SHOWHIST
280
1
  9
$DWFFRAME
280
2
  9
$DGNFRAME
280
2
  9
$REALWORLDSCALE
290
1
  9
$INTERFERECOLOR
 62
256
  9
$CSHADOW
280
0
  9
$SHADOWPLANELOCATION
 40
0.0
  0
ENDSEC
  0
SECTION
  2
CLASSES
  0
CLASS
  1
ACDBDICTIONARYWDFLT
  2
AcDbDictionaryWithDefault
  3
ObjectDBX Classes
 90
0
 91
0
280
0
281
0
  0
CLASS
  1
SUN
  2
AcDbSun
  3
SCENEOE
 90
1153
 91
0
280
0
281
0
  0
CLASS
  1
VISUALSTYLE
  2
AcDbVisualStyle
  3
ObjectDBX Classes
 90
4095
 91
0
280
0
281
0
  0
CLASS
  1
MATERIAL
  2
AcDbMaterial
  3
ObjectDBX Classes
 90
1153
 91
0
280
0
281
0
  0
CLASS
  1
SCALE
  2
AcDbScale
  3
ObjectDBX Classes
 90
1153
 91
0
280
0
281
0
  0
CLASS
  1
TABLESTYLE
  2
AcDbTableStyle
  3
ObjectDBX Classes
 90
4095
 91
0
280
0
281
0
  0
CLASS
  1
MLEADERSTYLE
  2
AcDbMLeaderStyle
  3
ACDB_MLEADERSTYLE_CLASS
 90
4095
 91
0
280
0
281
0
  0
CLASS
  1
DICTIONARYVAR
  2
AcDbDictionaryVar
  3
ObjectDBX Classes
 90
0
 91
0
280
0
281
0
  0
CLASS
  1
CELLSTYLEMAP
  2
AcDbCellStyleMap
  3
ObjectDBX Classes
 90
1152
 91
0
280
0
281
0
  0
CLASS
  1
MENTALRAYRENDERSETTINGS
  2
AcDbMentalRayRenderSettings
  3
SCENEOE
 90
1024
 91
0
280
0
281
0
  0
CLASS
  1
ACDBDETAILVIEWSTYLE
  2
AcDbDetailViewStyle
  3
ObjectDBX Classes
 90
1025
 91
0
280
0
281
0
  0
CLASS
  1
ACDBSECTIONVIEWSTYLE
  2
AcDbSectionViewStyle
  3
ObjectDBX Classes
 90
1025
 91
0
280
0
281
0
  0
CLASS
  1
RASTERVARIABLES
  2
AcDbRasterVariables
  3
ISM
 90
0
 91
0
280
0
281
0
  0
CLASS
  1
LAYOUT
  2
AcDbLayout
  3
ObjectDBX Classes
 90
0
 91
0
280
0
281
0
  0
CLASS
  1
ACDBPLACEHOLDER
  2
AcDbPlaceHolder
  3
ObjectDBX Classes
 90
0
 91
0
280
0
281
0
  0
ENDSEC
  0
SECTION
  2
TABLES
  0
TABLE
  2
VPORT
  5
8
330
0
100
AcDbSymbolTable
 70
1
  0
VPORT
  5
23
330
8
100
AcDbSymbolTableRecord
100
AcDbViewportTableRecord
  2
*Active
 70
0
 10
0.0
 20
0.0
 11
1.0
 21
1.0
 12
0.0
 22
0.0
 13
0.0
 23
0.0
 14
0.5
 24
0.5
 15
0.5
 25
0.5
 16
0.0
 26
0.0
 36
1.0
 17
0.0
 27
0.0
 37
0.0
 40
1000.0
 41
1.34
 42
50.0
 43
0.0
 44
0.0
 50
0.0
 51
0.0
 71
0
 72
1000
 73
1
 74
3
 75
0
 76
0
 77
0
 78
0
281
0
 65
0
146
0.0
  0
ENDTAB
  0
TABLE
  2
LTYPE
  5
2
330
0
100
AcDbSymbolTable
 70
3
  0
LTYPE
  5
24
330
2
100
AcDbSymbolTableRecord
100
AcDbLinetypeTableRecord
  2
ByBlock
 70
0
  3

 72
65
 73
0
 40
0.0
  0
LTYPE
  5
25
330
2
100
AcDbSymbolTableRecord
100
AcDbLinetypeTableRecord
  2
ByLayer
 70
0
  3

 72
65
 73
0
 40
0.0
  0
LTYPE
  5
26
330
2
100
AcDbSymbolTableRecord
100
AcDbLinetypeTableRecord
  2
Continuous
 70
0
  3

 72
65
 73
0
 40
0.0
  0
ENDTAB
  0
TABLE
  2
LAYER
  5
1
330
0
100
AcDbSymbolTable
 70
2
  0
LAYER
  5
27
330
1
100
AcDbSymbolTableRecord
100
AcDbLayerTableRecord
  2
0
 70
0
 62
7
  6
Continuous
370
-3
390
13
347
21
  0
LAYER
  5
28
330
1
100
AcDbSymbolTableRecord
100
AcDbLayerTableRecord
  2
Defpoints
 70
0
 62
7
  6
Continuous
290
0
370
-3
390
13
347
21
  0
ENDTAB
  0
TABLE
  2
STYLE
  5
5
330
0
100
AcDbSymbolTable
 70
1
  0
STYLE
  5
29
330
5
100
AcDbSymbolTableRecord
100
AcDbTextStyleTableRecord
  2
Standard
 70
0
 40
0.0
 41
1.0
 50
0.0
 71
0
 42
2.5
  3
txt
  4

  0
ENDTAB
  0
TABLE
  2
VIEW
  5
7
330
0
100
AcDbSymbolTable
 70
0
  0
ENDTAB
  0
TABLE
  2
UCS
  5
6
330
0
100
AcDbSymbolTable
 70
0
  0
ENDTAB
  0
TABLE
  2
APPID
  5
3
330
0
100
AcDbSymbolTable
 70
3
  0
APPID
  5
2A
330
3
100
AcDbSymbolTableRecord
100
AcDbRegAppTableRecord
  2
ACAD
 70
0
  0
APPID
  5
30
330
3
100
AcDbSymbolTableRecord
100
AcDbRegAppTableRecord
  2
HATCHBACKGROUNDCOLOR
 70
0
  0
APPID
  5
31
330
3
100
AcDbSymbolTableRecord
100
AcDbRegAppTableRecord
  2
EZDXF
 70
0
  0
ENDTAB
  0
TABLE
  2
DIMSTYLE
  5
4
330
0
100
AcDbSymbolTable
 70
1
100
AcDbDimStyleTable
  0
DIMSTYLE
105
2B
330
4
100
AcDbSymbolTableRecord
100
AcDbDimStyleTableRecord
  2
Standard
 70
0
 40
1.0
 41
2.5
 42
0.625
 43
3.75
 44
1.25
 45
0.0
 46
0.0
 47
0.0
 48
0.0
 49
2.5
140
2.5
141
2.5
142
0.0
143
0.03937007874
144
1.0
145
0.0
146
1.0
147
0.625
148
0.0
 69
0
 70
0
 71
0
 72
0
 73
0
 74
0
 75
0
 76
0
 77
1
 78
8
 79
3
170
0
171
3
172
1
173
0
174
0
175
0
176
0
177
0
178
0
179
2
271
2
272
2
273
2
274
3
275
0
276
0
277
2
278
44
279
0
280
0
281
0
282
0
283
0
284
8
285
0
286
0
288
0
289
3
290
0
371
-2
372
-2
  0
ENDTAB
  0
TABLE
  2
BLOCK_RECORD
  5
9
330
0
100
AcDbSymbolTable
 70
2
  0
BLOCK_RECORD
  5
17
330
9
100
AcDbSymbolTableRecord
100
AcDbBlockTableRecord
  2
*Model_Space
340
1A
 70
0
280
1
281
0
  0
BLOCK_RECORD
  5
1B
330
9
100
AcDbSymbolTableRecord
100
AcDbBlockTableRecord
  2
*Paper_Space
340
1E
 70
0
280
1
281
0
  0
ENDTAB
  0
ENDSEC
  0
SECTION
  2
BLOCKS
  0
BLOCK
  5
18
330
17
100
AcDbEntity
  8
0
100
AcDbBlockBegin
  2
*Model_Space
 70
0
 10
0.0
 20
0.0
 30
0.0
  3
*Model_Space
  1

  0
ENDBLK
  5
19
330
17
100
AcDbEntity
  8
0
100
AcDbBlockEnd
  0
BLOCK
  5
1C
330
1B
100
AcDbEntity
  8
0
100
AcDbBlockBegin
  2
*Paper_Space
 70
0
 10
0.0
 20
0.0
 30
0.0
  3
*Paper_Space
  1

  0
ENDBLK
  5
1D
330
1B
100
AcDbEntity
  8
0
100
AcDbBlockEnd
  0
ENDSEC
  0
SECTION
  2
ENTITIES
  0
LWPOLYLINE
  5
2F
330
17
100
AcDbEntity
  8
0
100
AcDbPolyline
 90
721
 70
1
 10
40.8763571819297
 20
2.029587434397173
 10
40.875178479860686
 20
2.0299495250680235
 10
40.871648056435944
 20
2.030913638326241
 10
40.865777257350246
 20
2.03223588379167
 10
40.85749942404076
 20
2.034034666390656
 10
40.8469450435962
 20
2.0361340115742386
 10
40.83405029316779
 20
2.038591366928315
 10
40.81875701565776
 20
2.041342387394601
 10
40.80118719385119
 20
2.044393909427124
 10
40.781282670650334
 20
2.047681587967601
 10
40.758976778976695
 20
2.0513240109974546
 10
40.73439717872058
 20
2.055205978253096
 10
40.70748287139307
 20
2.059324224053409
 10
40.67823101844154
 20
2.0637397667572013
 10
40.64664729697122
 20
2.068330569646857
 10
40.61272602419978
 20
2.0732187914767093
 10
40.57653103149167
 20
2.078346801605785
 10
40.53800132035794
 20
2.083711334352968
 10
40.497134052246
 20
2.0893734080770647
 10
40.45399589139578
 20
2.095214495815013
 10
40.408520165051684
 20
2.1013533075849518
 10
40.36071254748037
 20
2.107667867687624
 10
40.31068934152317
 20
2.114287110313034
 10
40.25827040729723
 20
2.1211398539488675
 10
40.20363871472236
 20
2.128236444803707
 10
40.146672278174904
 20
2.1355701074418816
 10
40.08743208195103
 20
2.1431444126363033
 10
40.02591812321221
 20
2.150959421405331
 10
39.962127560567254
 20
2.159076213126131
 10
39.896060385500526
 20
2.1674949708537805
 10
39.82772227227868
 20
2.1760937188890215
 10
39.75710754095794
 20
2.1849945549678287
 10
39.68428001154855
 20
2.1941400925226646
 10
39.609175852686064
 20
2.203587962194503
 10
39.53180073012149
 20
2.2132163713391617
 10
39.45220995956144
 20
2.2231507443920924
 10
39.37040069393765
 20
2.233452282767179
 10
39.28638144323085
 20
2.243938053424716
 10
39.20008552900833
 20
2.254726888419561
 10
39.11163777260778
 20
2.2657646058469325
 10
39.02091334133731
 20
2.2771056316850475
 10
38.92803421514347
 20
2.2887568634062925
 10
38.83293939269876
 20
2.300715096347909
 10
38.73568986113792
 20
2.312983840264449
 10
38.63622745768606
 20
2.325498872134347
 10
38.5346131694779
 20
2.3382637017121546
 10
38.43078031808074
 20
2.3513971610527302
 10
38.32485372199376
 20
2.3648451292696526
 10
38.21677237988946
 20
2.378604401700163
 10
38.10653628609073
 20
2.3926751003809796
 10
37.99414542640481
 20
2.4070575304038964
 10
37.879657955090956
 20
2.4218160978455567
 10
37.763015703697135
 20
2.43688670172111
 10
37.644276823644034
 20
2.4523338091255598
 10
37.523444139291506
 20
2.468096706791891
 10
37.40052332490621
 20
2.4840534190208468
 10
37.275569684840555
 20
2.500329614321312
 10
37.148516543500385
 20
2.517044063729788
 10
37.01936388669294
 20
2.5341970723380673
 10
36.88818122004931
 20
2.551609033805919
 10
36.75496569366271
 20
2.5693412105655873
 10
36.619717301856
 20
2.5873937246537886
 10
36.48242751477862
 20
2.605949936238743
 10
36.34311051667794
 20
2.624704936581485
 10
36.201821617583455
 20
2.6437842721541833
 10
36.05855797042694
 20
2.6632491443707234
 10
35.913255732489716
 20
2.683157427945513
 10
35.76603971943239
 20
2.703455063010489
 10
35.61685176564156
 20
2.724077887562446
 10
35.46569186544009
 20
2.7450260236381006
 10
35.31261532318042
 20
2.7664251397463384
 10
35.15763348171873
 20
2.788031406525363
 10
35.00067966546089
 20
2.809963595011672
 10
34.84187301012375
 20
2.83228974307318
 10
34.68121350719164
 20
2.855010033764963
 10
34.5186458324423
 20
2.8779992257066462
 10
34.35416713313035
 20
2.901318642348832
 10
34.18789938920236
 20
2.9249751811639064
 10
34.01977591938706
 20
2.949087735225088
 10
33.84980523082662
 20
2.9734734325110272
 10
33.67804830781721
 20
2.9981358437946355
 10
33.50450514184317
 20
3.0230751521309904
 10
33.329170041606545
 20
3.0484136993295015
 10
33.152042998591654
 20
3.074151668445244
 10
32.97312684283547
 20
3.1002282241744883
 10
32.79254639283713
 20
3.126589245630812
 10
32.61017680738907
 20
3.1532893418475068
 10
32.426079073626006
 20
3.1803320225791247
 10
32.2403226943405
 20
3.2075377425037956
 10
32.05284382113677
 20
3.2349644983726433
 10
31.863694925491743
 20
3.262798855016646
 10
31.67293699454015
 20
3.2910443221903547
 10
31.480453699893683
 20
3.319572514868997
 10
31.28637554283379
 20
3.348207153411818
 10
31.09069115779586
 20
3.377192555327483
 10
30.893403374816838
 20
3.4064678853122623
 10
30.694509343989907
 20
3.4360944057983995
 10
30.494075726716456
 20
3.4659536508411883
 10
30.292102517319385
 20
3.496045742477347
 10
30.088528705955536
 20
3.5263676590991935
 10
29.883473436857415
 20
3.556987255519564
 10
29.67687570585898
 20
3.587901388094059
 10
29.468802177200196
 20
3.618991529859616
 10
29.25925283952682
 20
3.6502579248896687
 10
29.048288682812142
 20
3.6817040219204107
 10
28.83584585866042
 20
3.7133878177029693
 10
28.621979679939702
 20
3.7454347976911526
 10
28.40663764962613
 20
3.7776589462192143
 10
28.189999921795337
 20
3.8101311397076727
 10
27.971955842325688
 20
3.8426010174324965
 10
27.75250255847178
 20
3.8751299028442863
 10
27.531753545876583
 20
3.9079075044184206
 10
27.30970595463329
 20
3.9409950845871404
 10
27.08624629490617
 20
3.9742032399668648
 10
26.86162423207909
 20
4.007423118601164
 10
26.635659597883645
 20
4.0405841491613135
 10
26.408465862285652
 20
4.073876162159406
 10
26.17997917972793
 20
4.10735709332821
 10
25.95032438006386
 20
4.14097257770787
 10
25.719448971946655
 20
4.17453647759592
 10
25.487408268244383
 20
4.208174278446168
 10
25.25419658049763
 20
4.242008261049669
 10
25.01982809579231
 20
4.275733455649097
 10
24.784305644165386
 20
4.309289026940722
 10
24.547737024154586
 20
4.342986720117537
 10
24.310003065980442
 20
4.376759229531933
 10
24.071222922391105
 20
4.41067422694167
 10
23.83141361902512
 20
4.444365724230618
 10
23.590572308814217
 20
4.477894922812661
 10
23.348693308976078
 20
4.511383981442134
 10
23.105768089660113
 20
4.5450162602872535
 10
22.86193000773175
 20
4.578554095238306
 10
22.61706840055366
 20
4.611747308626333
 10
22.37135775645049
 20
4.644788569516036
 10
22.12466186581148
 20
4.677976865467734
 10
21.87705308417453
 20
4.711071327708952
 10
21.6285427515573
 20
4.74382818789625
 10
21.37924719634813
 20
4.776375831054404
 10
21.129041563146657
 20
4.808769171308498
 10
20.878045013216713
 20
4.841075697361216
 10
20.62619937526774
 20
4.873231369246069
 10
20.373571324893906
 20
4.905117415926558
 10
20.120221860584145
 20
4.936737103083797
 10
19.86608996965675
 20
4.968087470128466
 10
19.61129765760526
 20
4.999174865367722
 10
19.35572290758192
 20
5.029993184567843
 10
19.099482042297975
 20
5.06067093479032
 10
18.842577903144562
 20
5.0911470366579845
 10
18.5850246715305
 20
5.121116642450235
 10
18.326816664673476
 20
5.150701910921401
 10
18.068073052352972
 20
5.179970147719093
 10
17.808668979168644
 20
5.208976266968394
 10
17.54873212771923
 20
5.237604580258848
 10
17.288265333718794
 20
5.265794130250004
 10
17.027271432881378
 20
5.293483959601412
 10
16.765744736747553
 20
5.320796349104127
 10
16.503743416607893
 20
5.347795338724634
 10
16.241267463946716
 20
5.374481111518013
 10
15.978386398587881
 20
5.400673756052238
 10
15.715042049240864
 20
5.426309232360819
 10
15.451298255785746
 20
5.451329726747708
 10
15.187207509569316
 20
5.475921376915366
 10
14.922700282252045
 20
5.500264277350897
 10
14.657904264948355
 20
5.524242556588767
 10
14.39278115623592
 20
5.547365046150827
 10
14.127313916283473
 20
5.569998039245004
 10
13.86162172906324
 20
5.592208536427108
 10
13.595649253321639
 20
5.613871662426921
 10
13.329399330449819
 20
5.634926337867274
 10
13.062985455960611
 20
5.655561844095033
 10
12.796349464240569
 20
5.675714019106987
 10
12.529560872275004
 20
5.695203012489473
 10
12.262558670220772
 20
5.714025802634809
 10
11.995462042050121
 20
5.732249390098809
 10
11.728268143533331
 20
5.749934915276995
 10
11.460985493166774
 20
5.766899262074586
 10
11.193611246720742
 20
5.783203570887109
 10
10.926203578324342
 20
5.798911820662693
 10
10.65869296247659
 20
5.81420404487008
 10
10.391218450179428
 20
5.828720176571789
 10
10.12378004143285
 20
5.842460215767817
 10
9.856374900522813
 20
5.855485119798613
 10
9.589000183219598
 20
5.867856029059703
 10
9.321719746434622
 20
5.8795147637448855
 10
9.054469738933577
 20
5.890519381623645
 10
8.787375021793924
 20
5.900814846534177
 10
8.520441274959417
 20
5.910279060740509
 10
8.253665659877463
 20
5.918973042601448
 10
7.987045340833998
 20
5.926957749457442
 10
7.720583156381636
 20
5.934172162949683
 10
7.4544068146660925
 20
5.940500045502486
 10
7.188449623061909
 20
5.9460605342625
 10
6.922766922822676
 20
5.950978504499948
 10
6.657311894029719
 20
5.954945903831467
 10
6.392200887779784
 20
5.958090629134958
 10
6.127425396930716
 20
5.960595552431771
 10
5.862932918781522
 20
5.962274780092876
 10
5.59885116715503
 20
5.963011952505869
 10
5.335174467784581
 20
5.962929045370005
 10
5.071847482255128
 20
5.961901122396704
 10
4.808986570179079
 20
5.960055897408793
 10
4.5465363959799445
 20
5.957268373099333
 10
4.284616154984179
 20
5.953605305950703
 10
4.023095306170557
 20
5.949243829860679
 10
3.7621015633619135
 20
5.9440675852168585
 10
3.5016462807686657
 20
5.937832498584007
 10
3.241726628353864
 20
5.9305994052658555
 10
2.982395105979954
 20
5.922554259909796
 10
2.723654563553749
 20
5.913635800083582
 10
2.4655078424663985
 20
5.903782946410046
 10
2.208015963915279
 20
5.892998476423437
 10
1.9511122352749126
 20
5.881401527270405
 10
1.6948520091531045
 20
5.869116730147739
 10
1.4393076581190989
 20
5.85590285017281
 10
1.1844848649552004
 20
5.841637728591284
 10
0.930377961071857
 20
5.826443219065703
 10
0.6770453874221148
 20
5.810377564818467
 10
0.4244265854926837
 20
5.793428042322845
 10
0.17257974360542802
 20
5.7756583254351765
 10
-0.07843695843345241
 20
5.757132271066871
 10
-0.32867318477234103
 20
5.737602967230093
 10
-0.5780679170524327
 20
5.717073252477449
 10
-0.8265743296779494
 20
5.695851057155582
 10
-1.0742477639024783
 20
5.673811505994272
 10
-1.3209633444558044
 20
5.650899257739922
 10
-1.5668431080555476
 20
5.6271086352873185
 10
-1.8117650179840807
 20
5.602445315741678
 10
-2.05567373298782
 20
5.577034174373218
 10
-2.2986941283369733
 20
5.550930552435536
 10
-2.5407509929097167
 20
5.523832196687196
 10
-2.7817393213040646
 20
5.496110894386261
 10
-3.021725808984027
 20
5.467885843697739
 10
-3.2607544429927886
 20
5.438788095916176
 10
-3.498642168253925
 20
5.40882616669939
 10
-3.7354585187840543
 20
5.378180272571199
 10
-3.9712063331357887
 20
5.34691143189041
 10
-4.205879934203912
 20
5.3148976079394075
 10
-4.439360123823416
 20
5.282205496182211
 10
-4.671768938711915
 20
5.24882941951361
 10
-4.902992857809613
 20
5.21495811011524
 10
-5.133026204011295
 20
5.180469531269481
 10
-5.361866138764358
 20
5.14530266461753
 10
-5.589515500621408
 20
5.109518528518194
 10
-5.815918948328846
 20
5.0732419982416905
 10
-6.041137500245479
 20
5.036470235235419
 10
-6.265043442548482
 20
4.999086879886972
 10
-6.487636775237855
 20
4.961091932196349
 10
-6.7089756781198
 20
4.9224215352521385
 10
-6.929001971388114
 20
4.883139545965751
 10
-7.147724170700615
 20
4.843429019413613
 10
-7.365084096251097
 20
4.803353812507138
 10
-7.58107039382914
 20
4.762669851811094
 10
-7.795744081793556
 20
4.721374298772875
 10
-8.00891926651531
 20
4.679414650691489
 10
-8.220726500369837
 20
4.636968285538147
 10
-8.43116862190974
 20
4.594096221671661
 10
-8.640123594417403
 20
4.5508041361972404
 10
-8.847588579340227
 20
4.507031010756077
 10
-9.053616079379195
 20
4.462590951719141
 10
-9.258156430385924
 20
4.417730871074272
 10
-9.461218148018231
 20
4.372633823897891
 10
-9.662726021154283
 20
4.326997556948566
 10
-9.862741068152882
 20
4.280819231673688
 10
-10.061146929401627
 20
4.234226561896088
 10
-10.258004623259326
 20
4.18721670906316
 10
-10.453316988278585
 20
4.139850691533709
 10
-10.647014490442775
 20
4.091948292783918
 10
-10.839102806857113
 20
4.043631549531405
 10
-11.029581937521593
 20
3.994900461776166
 10
-11.218463236646643
 20
3.945999102953437
 10
-11.405621828962037
 20
3.8968721318096207
 10
-11.591171235527575
 20
3.8473308161630793
 10
-11.775044760879242
 20
3.7972559578488037
 10
-11.957192740868647
 20
3.7468944688546317
 10
-12.137681870959812
 20
3.696365547345574
 10
-12.316439778583504
 20
3.6454279584390026
 10
-12.49341112248613
 20
3.5942065774051413
 10
-12.668720777937907
 20
3.5427567454975857
 10
-12.842246708221218
 20
3.491084139821548
 10
-13.013980397678255
 20
3.439005705300601
 10
-13.183930361966828
 20
3.3867044970111726
 10
-13.352099439639543
 20
3.3342415333120683
 10
-13.518484792143793
 20
3.281555795844482
 10
-13.683025401120776
 20
3.228650123161018
 10
-13.845718428017879
 20
3.1754634969028674
 10
-14.006627729746523
 20
3.122054096876235
 10
-14.165631269589081
 20
3.0684276001863293
 10
-14.322734724650777
 20
3.0147060435507678
 10
-14.478054454544008
 20
2.9607617131467245
 10
-14.631407404192352
 20
2.9066031246320136
 10
-14.78285175340201
 20
2.8521664210952227
 10
-14.932398856383404
 20
2.797695675971584
 10
-15.080048713136538
 20
2.743190889261098
 10
-15.225734628197388
 20
2.688532862798753
 10
-15.369453763013354
 20
2.6336605782257414
 10
-15.511264297390632
 20
2.57851017863065
 10
-15.651058387374635
 20
2.5233924329127295
 10
-15.788894212771572
 20
2.4682434841605665
 10
-15.924766096476223
 20
2.4129412956565455
 10
-16.058613020129787
 20
2.3574887059532705
 10
-16.190440660837467
 20
2.3020077517683593
 10
-16.32024334149406
 20
2.2463763963841954
 10
-16.44802390065217
 20
2.190655658159586
 10
-16.573785176864398
 20
2.1349065554533397
 10
-16.697460474666727
 20
2.079009890100446
 10
-16.81905830971698
 20
2.023148717177329
 10
-16.93862834616353
 20
1.9670761246961508
 10
-17.056120919858007
 20
1.9110390246447486
 10
-17.171533192247786
 20
1.8549763986643162
 10
-17.28486232478028
 20
1.7988272283960427
 10
-17.39604729909667
 20
1.7425943523925365
 10
-17.505151972108376
 20
1.686335950459998
 10
-17.612123841114403
 20
1.6302379162274583
 10
-17.71695722900953
 20
1.5741782129773012
 10
-17.819652135793778
 20
1.5181568407095256
 10
-17.920272418378545
 20
1.462231979230335
 10
-18.018693201493615
 20
1.406348287286132
 10
-18.114981180603007
 20
1.3506249630419276
 10
-18.20908101445312
 20
1.295186881767943
 10
-18.30105372140277
 20
1.2400312049115736
 10
-18.390832605987924
 20
1.185038734307808
 10
-18.47848152512001
 20
1.130267649762848
 10
-18.563878442081407
 20
1.0757236283819065
 10
-18.647151070694935
 20
1.0215230297773872
 10
-18.7281802127956
 20
0.9677325494133099
 10
-18.807021209636982
 20
0.914227312019453
 10
-18.883674061219086
 20
0.8610073175958157
 10
-18.958138767541914
 20
0.8080725661423989
 10
-19.03035998735187
 20
0.7555479329294238
 10
-19.10033772064895
 20
0.7034334179568903
 10
-19.168124470134153
 20
0.6515431275957692
 10
-19.233667733106483
 20
0.6000629554750896
 10
-19.296956155355513
 20
0.5487488281596195
 10
-19.35800109109167
 20
0.4978448190845913
 10
-19.416791186104533
 20
0.4471068548147719
 10
-19.47333211749931
 20
0.3966569720677782
 10
-19.527623885276007
 20
0.34649517084361026
 10
-19.579602632523198
 20
0.2965632713360652
 10
-19.629396073063724
 20
0.24697763315754825
 10
-19.676812636163337
 20
0.19756371688945146
 10
-19.72204105400367
 20
0.14843504359157478
 10
-19.76495645131451
 20
0.09953627201032123
 10
-19.805567343753665
 20
0.051050457222114556
 10
-19.843929072574742
 20
0.002852723956733606
 10
-19.879983457971527
 20
-0.044993070874408264
 10
-19.91374185415445
 20
-0.09224285383607861
 10
-19.94525676382449
 20
-0.13908251855730694
 10
-19.974472845728066
 20
-0.18538718976787177
 10
-20.00139577697038
 20
-0.23103483075015682
 10
-20.026036911761853
 20
-0.2757813680689296
 10
-20.048396250102495
 20
-0.31962680172419017
 10
-20.068540487456314
 20
-0.36245193355092764
 10
-20.086361779868724
 20
-0.40394599464989034
 10
-20.10193249990896
 20
-0.44386775013845137
 10
-20.115342051461873
 20
-0.4816098549811348
 10
-20.12648826767809
 20
-0.5167395035610729
 10
-20.135477583758117
 20
-0.5482832406899409
 10
-20.142416434902437
 20
-0.5752676111794143
 10
-20.147250909655966
 20
-0.596222497312887
 10
-20.150112990192646
 20
-0.6096252786727611
 10
-20.133131149308657
 20
-0.9996475423150255
 10
-20.131827034308426
 20
-1.0027055461147367
 10
-20.127917527860333
 20
-1.011818539155063
 10
-20.12141398417481
 20
-1.0267424480007705
 10
-20.112207129498746
 20
-1.0485117461989935
 10
-20.100359390945048
 20
-1.0784134963899128
 10
-20.085957354890393
 20
-1.1132719053629
 10
-20.069027998106733
 20
-1.1511925654422983
 10
-20.049730258495565
 20
-1.1913879150688125
 10
-20.028062727302785
 20
-1.2325737301548663
 10
-20.003989933143043
 20
-1.2741980069185812
 10
-19.97764810549697
 20
-1.3159613306711277
 10
-19.9489875802162
 20
-1.3576167894246673
 10
-19.918019711511135
 20
-1.398920309743968
 10
-19.884750176487
 20
-1.4397498549114134
 10
-19.849178975143786
 20
-1.4801054249270034
 10
-19.811369964392906
 20
-1.519928839984535
 10
-19.77126780298077
 20
-1.559095224813787
 10
-19.728869652354764
 20
-1.5976655977735674
 10
-19.68423936942631
 20
-1.6355817790576734
 10
-19.637310258731386
 20
-1.6729629668311161
 10
-19.588085158822597
 20
-1.7097481427350871
 10
-19.536691783522766
 20
-1.745820947157181
 10
-19.482938562097655
 20
-1.7813559195160058
 10
-19.427011388176297
 20
-1.8163005571105697
 10
-19.36878538648847
 20
-1.8507102011944705
 10
-19.308324413945584
 20
-1.884526671961505
 10
-19.245631309100244
 20
-1.917688951052865
 10
-19.18069755629464
 20
-1.950380093544975
 10
-19.113528832633975
 20
-1.982478062720219
 10
-19.04411378390783
 20
-2.0142269320138295
 10
-18.972460925774026
 20
-2.0454436463493817
 10
-18.898625599486152
 20
-2.0762530809970974
 10
-18.82254678668541
 20
-2.106652397404371
 10
-18.744218810266585
 20
-2.13676363228882
 10
-18.663705527141083
 20
-2.16652860584424
 10
-18.581004098756306
 20
-2.1960083364294403
 10
-18.496114525112255
 20
-2.22520282404442
 10
-18.408967272192303
 20
-2.2542922852129994
 10
-18.31968721526667
 20
-2.283221378681579
 10
-18.22815515617034
 20
-2.3119234089861425
 10
-18.13449313162095
 20
-2.340404053231899
 10
-18.038634446154454
 20
-2.36878250958386
 10
-17.940640118129686
 20
-2.3970616165946304
 10
-17.84045196774042
 20
-2.4251775173527967
 10
-17.738136690450695
 20
-2.4530110136933487
 10
-17.633630429349083
 20
-2.4806202854224884
 10
-17.5270523826006
 20
-2.5080720280042352
 10
-17.41834153184644
 20
-2.535363402885984
 10
-17.3074978770866
 20
-2.562494410067734
 10
-17.194529933978895
 20
-2.589281994473061
 10
-17.07949872088214
 20
-2.6157289946545714
 10
-16.962343219437518
 20
-2.6418325720596583
 10
-16.843118770898634
 20
-2.667717601958544
 10
-16.721825375265478
 20
-2.693384084351229
 10
-16.598474386748485
 20
-2.71858794580248
 10
-16.47312114660124
 20
-2.7434540615825203
 10
-16.345707475017555
 20
-2.767918574779934
 10
-16.216230533444808
 20
-2.79204250375353
 10
-16.084751340241812
 20
-2.815828687055914
 10
-15.95127273396118
 20
-2.839216106328279
 10
-15.815791876050302
 20
-2.862265779929432
 10
-15.678308766509174
 20
-2.884977707859372
 10
-15.538826243890407
 20
-2.9072908717592925
 10
-15.397402488000198
 20
-2.9292691285406067
 10
-15.254037498838555
 20
-2.950912478203314
 10
-15.108673096599272
 20
-2.9721570638360015
 10
-14.961425640894745
 20
-2.9931305992614954
 10
-14.812236951918788
 20
-3.013769227568383
 10
-14.661104191118783
 20
-3.0341339671154732
 10
-14.50809121540615
 20
-3.054166638096562
 10
-14.353206540438702
 20
-3.0736841854352255
 10
-14.196441650558624
 20
-3.0928696642078872
 10
-14.037729850301895
 20
-3.1118422725795587
 10
-13.877257033297548
 20
-3.130549507849249
 10
-13.714906839933178
 20
-3.1488636561941297
 10
-13.550682108761384
 20
-3.1667236992553924
 10
-13.38469919939458
 20
-3.184257350855866
 10
-13.216894254921346
 20
-3.2015227908017514
 10
-13.047272952446896
 20
-3.2183979823754334
 10
-12.875896310330038
 20
-3.234885764129517
 10
-12.702767167123376
 20
-3.2509251177051937
 10
-12.527877007169094
 20
-3.2666990981788886
 10
-12.351231507572408
 20
-3.282085668832986
 10
-12.172824991228099
 20
-3.2972068663850997
 10
-11.992788010511601
 20
-3.311885312864019
 10
-11.810995690152696
 20
-3.32617634952334
 10
-11.627509048510191
 20
-3.340082814915667
 10
-11.442386265390288
 20
-3.3536685659524164
 10
-11.25557199953939
 20
-3.366808727363363
 10
-11.067121592211095
 20
-3.3796281744187318
 10
-10.877098900316813
 20
-3.3920687273123176
 10
-10.685387564244145
 20
-3.4040026722212953
 10
-10.492109620710705
 20
-3.415435686250874
 10
-10.29725655405867
 20
-3.4265508244774785
 10
-10.10082836428805
 20
-3.43734808690111
 10
-9.902825051398837
 20
-3.4478274735217664
 10
-9.70331614940766
 20
-3.457808767815631
 10
-9.50230733541973
 20
-3.4671699330650863
 10
-9.299726236865814
 20
-3.4761522041527595
 10
-9.09569489046353
 20
-3.4847612581838616
 10
-8.890157954959282
 20
-3.492872219888171
 10
-8.683182125817087
 20
-3.5003658911006763
 10
-8.474758887379132
 20
-3.507425326897803
 10
-8.264943580899008
 20
-3.514175402549771
 10
-8.053680865123123
 20
-3.520491242786361
 10
-7.840979255709292
 20
-3.5261897925311465
 10
-7.626955112269918
 20
-3.5313987656069568
 10
-7.411605596252401
 20
-3.536179180372597
 10
-7.194808670939119
 20
-3.5405253597228588
 10
-6.976750229959107
 20
-3.544384800956749
 10
-6.757374932058764
 20
-3.5476326288040467
 10
-6.536682777238091
 20
-3.550268843264752
 10
-6.314731945303289
 20
-3.5523573012502774
 10
-6.091508243491336
 20
-3.5542030945546648
 10
-5.867081205818849
 20
-3.555626006654095
 10
-5.641401168137448
 20
-3.556379125560729
 10
-5.414465291894525
 20
-3.556523469633376
 10
-5.186395613807696
 20
-3.556064715977246
 10
-4.957119761307731
 20
-3.5552440994749674
 10
-4.726704429858652
 20
-3.553942421961527
 10
-4.495149619460454
 20
-3.5521596834369285
 10
-4.262461007218351
 20
-3.5497738471835523
 10
-4.028635754579739
 20
-3.546845931560209
 10
-3.7937902211570207
 20
-3.543503650389723
 10
-3.55780804733779
 20
-3.5396192898492695
 10
-3.3208169469448747
 20
-3.5350764903264422
 10
-3.0828140814256733
 20
-3.5299362701800487
 10
-2.843796612227573
 20
-3.524259647768898
 10
-2.6037063595443777
 20
-3.5179827661815763
 10
-2.3627320555577236
 20
-3.5109921043582837
 10
-2.120815520461398
 20
-3.5032238053876066
 10
-1.8778787045809695
 20
-3.4950411408697883
 10
-1.6340464831866608
 20
-3.486388769551232
 10
-1.3893969059529026
 20
-3.4769034198316926
 10
-1.1437994205042756
 20
-3.466762469682386
 10
-0.8973122066469686
 20
-3.4560297760147245
 10
-0.6500629782038206
 20
-3.4445889792163027
 10
-0.40193253700981624
 20
-3.432373383823102
 10
-0.15304291978256554
 20
-3.4193886669403324
 10
0.09667824604715128
 20
-3.4058760634506227
 10
0.3471642650153183
 20
-3.39171637518896
 10
0.5983399260001032
 20
-3.376607348913911
 10
0.8502747630181273
 20
-3.3607292011492933
 10
1.1029191119210073
 20
-3.344328843882945
 10
1.3562034472077729
 20
-3.327226243646124
 10
1.6101864085301527
 20
-3.3093674285015444
 10
1.8648129157813849
 20
-3.2908828874084364
 10
2.1200716232667056
 20
-3.2715287299866453
 10
2.375962536663231
 20
-3.2513050782728876
 10
2.63243599182256
 20
-3.230458844255003
 10
2.889433820292703
 20
-3.209054128917839
 10
3.1470142047184266
 20
-3.1870271363683416
 10
3.4051076139216447
 20
-3.164197711101049
 10
3.6637197278461278
 20
-3.1406879508519374
 10
3.9228505578460893
 20
-3.116498099694443
 10
4.182439082724161
 20
-3.0916309351628106
 10
4.442476795338188
 20
-3.065903585235694
 10
4.702969372793385
 20
-3.039438086630708
 10
4.96380613258255
 20
-3.0124841898882972
 10
5.225106284224909
 20
-2.984975443617876
 10
5.486739272506477
 20
-2.9567344088298744
 10
5.748768960015771
 20
-2.927819387367211
 10
6.011073310035176
 20
-2.8982360563350973
 10
6.273716182314656
 20
-2.868042656558095
 10
6.5366947411401615
 20
-2.8371782306957547
 10
6.799889788346679
 20
-2.8057094742120947
 10
7.06336801939823
 20
-2.7737555852721263
 10
7.327126604257864
 20
-2.7412557285721184
 10
7.5910406591397015
 20
-2.708154379803397
 10
7.85517404663226
 20
-2.6745098408088817
 10
8.11947142548195
 20
-2.6404469868587945
 10
8.383982462675704
 20
-2.605718966983657
 10
8.648590792924013
 20
-2.570453372969578
 10
8.913302093332085
 20
-2.5347722415341734
 10
9.178113528185875
 20
-2.4986146153369946
 10
9.44301942038016
 20
-2.4618584576604254
 10
9.708025449858713
 20
-2.4246258662404405
 10
9.973015242816365
 20
-2.3870442498080733
 10
10.238044146183814
 20
-2.3489888551298197
 10
10.50305965726007
 20
-2.3106455758347084
 10
10.768053254710214
 20
-2.2718312348095986
 10
11.033022102820192
 20
-2.232484874714041
 10
11.297971878695213
 20
-2.192728532265652
 10
11.562789044244154
 20
-2.152750573535913
 10
11.827534626341501
 20
-2.1125483430272958
 10
12.092139085293514
 20
-2.0719415021792638
 10
12.356605253975689
 20
-2.0309909473139065
 10
12.620933135226574
 20
-1.9896967394495844
 10
12.885125561921683
 20
-1.9481197749083872
 10
13.14905764459803
 20
-1.9062044073449227
 10
13.412793248682679
 20
-1.8640089996204712
 10
13.676274177338108
 20
-1.8215970425362928
 10
13.93956714022111
 20
-1.7790880393491935
 10
14.202538720856662
 20
-1.7362430445639214
 10
14.465191760635939
 20
-1.6931231375576428
 10
14.727601470680755
 20
-1.6500305715717944
 10
14.98962876876512
 20
-1.6066046084669428
 10
15.251270807820752
 20
-1.562784046829205
 10
15.512605646037766
 20
-1.5189323413138998
 10
15.773516901095322
 20
-1.4751767175969834
 10
16.034048565713707
 20
-1.43114834900972
 10
16.294142448732504
 20
-1.386910848390088
 10
16.553737514761597
 20
-1.3424666881805398
 10
16.812900467780658
 20
-1.2979352496011625
 10
17.07157311379071
 20
-1.2533800844715757
 10
17.329758282828728
 20
-1.2088620280955107
 10
17.587389270915008
 20
-1.1642616992528814
 10
17.84446038959014
 20
-1.119456817152635
 10
18.100980151673394
 20
-1.0746303758528377
 10
18.35694855432621
 20
-1.029782314335131
 10
18.6122463681595
 20
-0.9849786568615863
 10
18.866995649760742
 20
-0.9402141534555047
 10
19.121065818368987
 20
-0.8953108159620847
 10
19.37445970685973
 20
-0.850329540703417
 10
19.62719149664178
 20
-0.805575175400107
 10
19.87925835200111
 20
-0.7609867627117044
 10
20.130532522213684
 20
-0.7164471497871406
 10
20.381138902419604
 20
-0.6720121050085237
 10
20.63095258612456
 20
-0.6276256159203103
 10
20.88003459736447
 20
-0.5832849660066118
 10
21.128329575015883
 20
-0.5391146034091385
 10
21.375776480850096
 20
-0.4951169395519845
 10
21.622442018846805
 20
-0.45141135565523643
 10
21.868195599729383
 20
-0.4078196805090169
 10
22.11315928008533
 20
-0.364336664136626
 10
22.357208153420327
 20
-0.3209062940825206
 10
22.60035923685725
 20
-0.2778943754077546
 10
22.842551495005985
 20
-0.2353033805547804
 10
23.083889953138364
 20
-0.1927619493940507
 10
23.324188666531427
 20
-0.1502164808941151
 10
23.563592400193503
 20
-0.10814987194873873
 10
23.801976244791728
 20
-0.0665060490840195
 10
24.039328831922923
 20
-0.025040633772930185
 10
24.275650155909975
 20
0.016246496021246087
 10
24.51094304678985
 20
0.057294504994779116
 10
24.74522169164845
 20
0.09779842339034356
 10
24.97835833124612
 20
0.13787558711408782
 10
25.21046651502817
 20
0.17771411816405813
 10
25.441424160860166
 20
0.21730931572878467
 10
25.671236937331642
 20
0.25653932614572783
 10
25.899910515870715
 20
0.2952822347339887
 10
26.127439208017957
 20
0.33366032228461895
 10
26.353761967029026
 20
0.37167136042860055
 10
26.57894549972217
 20
0.40919590692748886
 10
26.802867723962922
 20
0.4462292609698127
 10
27.02558115380647
 20
0.4829570721111668
 10
27.246963701441278
 20
0.5193747615767992
 10
27.46720414730436
 20
0.5553677709948103
 10
27.686064009909117
 20
0.5908045399879261
 10
27.903665357197248
 20
0.6256900744594107
 10
28.120005339261937
 20
0.6600856368415076
 10
28.334956196863494
 20
0.6941085630403617
 10
28.5485207543618
 20
0.7276981397889615
 10
28.76082391541257
 20
0.7607984156501195
 10
28.971685401043853
 20
0.7933411990111063
 10
29.18117191239675
 20
0.8252071696701926
 10
29.38921388706913
 20
0.856577154334786
 10
29.59586951338284
 20
0.8875148268612233
 10
29.801080583146145
 20
0.917956940521679
 10
30.004847085004865
 20
0.9479037393895888
 10
30.207116485033904
 20
0.9771700010378696
 10
30.40794130012702
 20
1.0059413140037567
 10
30.6072022781867
 20
1.0341521421720488
 10
30.804954768982213
 20
1.0619271777578916
 10
31.001207282494263
 20
1.0890834877215776
 10
31.19590160485401
 20
1.115557947371999
 10
31.389029209049436
 20
1.1415338558590162
 10
31.58059008656488
 20
1.1670113962377047
 10
31.770584226046118
 20
1.1919908125815
 10
31.958895216786825
 20
1.216345489398034
 10
32.14565080383389
 20
1.2399583958729539
 10
32.330775744841404
 20
1.263132456449642
 10
32.51421182877907
 20
1.2858044854186308
 10
32.69602008252138
 20
1.307977138277451
 10
32.87614513359063
 20
1.3295262109578267
 10
33.05452309385136
 20
1.3505105544679077
 10
33.23127319553118
 20
1.3709961320514066
 10
33.40628186079926
 20
1.3907954318938658
 10
33.579543404034716
 20
1.4100306737679764
 10
33.75106065527452
 20
1.428641022370008
 10
33.92082508466808
 20
1.4468098378681786
 10
34.08884236080493
 20
1.4644152665999475
 10
34.255051431263645
 20
1.481455202233016
 10
34.419455126081175
 20
1.4978688094636528
 10
34.58211163925649
 20
1.5137196401114756
 10
34.742896038748306
 20
1.5290642557972594
 10
34.901808310363876
 20
1.5439029616127984
 10
35.058912328045906
 20
1.5581772116417356
 10
35.21421093318557
 20
1.5718259265069054
 10
35.36757357624598
 20
1.5850264231611617
 10
35.51906103147043
 20
1.5977867877359677
 10
35.668682089856325
 20
1.6099180463740945
 10
35.81637275824174
 20
1.6214813077629682
 10
35.96212735384435
 20
1.6325987306569223
 10
36.10601258632095
 20
1.6431508117991516
 10
36.2479091978969
 20
1.653072137111172
 10
36.38787254401859
 20
1.662487276771412
 10
36.52589977761773
 20
1.6714574321937552
 10
36.661929849111445
 20
1.6799804360275437
 10
36.7959684270893
 20
1.6879344346102374
 10
36.928012658805905
 20
1.6953807513924386
 10
37.05805686147896
 20
1.7024415451284813
 10
37.18610386230685
 20
1.7090560415329923
 10
37.31209829165045
 20
1.7150999755193377
 10
37.436040135317015
 20
1.7205736521793125
 10
37.55797907732476
 20
1.725723556372242
 10
37.67785690096635
 20
1.7304866244253776
 10
37.7956736034032
 20
1.7348629173570782
 10
37.91143200899517
 20
1.73879172190033
 10
38.025071070997896
 20
1.7422708096861144
 10
38.13665181912443
 20
1.7453027751936026
 10
38.246107532363766
 20
1.7480073657530348
 10
38.35344387362835
 20
1.7502628497385886
 10
38.45865516013586
 20
1.7521913859045972
 10
38.561808104381655
 20
1.7536734099758984
 10
38.66277493577182
 20
1.7548265019320721
 10
38.761613851143906
 20
1.7557141525743802
 10
38.858266639467615
 20
1.7562731761933554
 10
38.95279717468568
 20
1.7564450268726426
 10
39.04513870740158
 20
1.7563500621260693
 10
39.13535793591788
 20
1.7558690227702667
 10
39.223324429916936
 20
1.7551766629870191
 10
39.30916288300157
 20
1.754221546697693
 10
39.392751286839705
 20
1.7529973866134894
 10
39.47415067682148
 20
1.7515066551768612
 10
39.55336104726977
 20
1.749749474424526
 10
39.63037955111631
 20
1.7477870457703675
 10
39.70514798300794
 20
1.7455560614682024
 10
39.77766065448523
 20
1.7431788023090815
 10
39.847981448006564
 20
1.7405965393215739
 10
39.91604646975935
 20
1.7378682455505454
 10
39.98185855545764
 20
1.7349329636555477
 10
40.04541486371028
 20
1.7318517730137473
 10
40.1067182245542
 20
1.7285638383214126
 10
40.165765796598265
 20
1.7251302389557106
 10
40.2225518998987
 20
1.7216730726526162
 10
40.277021159139274
 20
1.7180681963622133
 10
40.32929282357895
 20
1.7143812072180629
 10
40.37918091443212
 20
1.7106664384719203
 10
40.426871401968725
 20
1.7068697399271067
 10
40.47224219270011
 20
1.7029866548455868
 10
40.51528760668249
 20
1.6991392809633354
 10
40.556071523535735
 20
1.6952689503272804
 10
40.594532893676934
 20
1.6913734955867625
 10
40.630666040000875
 20
1.6875749534593978
 10
40.66453767784145
 20
1.6837536986516644
 10
40.69608108618767
 20
1.6800294784938021
 10
40.72529909791503
 20
1.6763413966637204
 10
40.75218603591833
 20
1.6728114898790354
 10
40.77674473875017
 20
1.6693787397809394
 10
40.79903340608659
 20
1.6661065761523337
 10
40.818929947277525
 20
1.6629904812368252
 10
40.83649257051468
 20
1.6600937017622395
 10
40.851782316865275
 20
1.6574185881343106
 10
40.86467709567921
 20
1.6549606225966467
 10
40.8752322709185
 20
1.6528441922725976
 10
40.88351173355718
 20
1.6510103851356552
 10
40.88938770448573
 20
1.6495769642204783
 10
40.89291840041152
 20
1.648606993199815
 10
40.89409813571368
 20
1.6482226918463583
  0
ENDSEC
  0
SECTION
  2
OBJECTS
  0
DICTIONARY
  5
A
330
0
100
AcDbDictionary
280
0
281
1
  3
ACAD_COLOR
350
B
  3
ACAD_GROUP
350
C
  3
ACAD_LAYOUT
350
D
  3
ACAD_MATERIAL
350
E
  3
ACAD_MLEADERSTYLE
350
F
  3
ACAD_MLINESTYLE
350
10
  3
ACAD_PLOTSETTINGS
350
11
  3
ACAD_PLOTSTYLENAME
350
12
  3
ACAD_SCALELIST
350
14
  3
ACAD_TABLESTYLE
350
15
  3
ACAD_VISUALSTYLE
350
16
  3
EZDXF_META
350
2D
  0
DICTIONARY
  5
B
330
A
100
AcDbDictionary
280
0
281
1
  0
DICTIONARY
  5
C
330
A
100
AcDbDictionary
280
0
281
1
  0
DICTIONARY
  5
D
330
A
100
AcDbDictionary
280
0
281
1
  3
Model
350
1A
  3
Layout1
350
1E
  0
DICTIONARY
  5
E
330
A
100
AcDbDictionary
280
0
281
1
  3
ByBlock
350
1F
  3
ByLayer
350
20
  3
Global
350
21
  0
DICTIONARY
  5
F
330
A
100
AcDbDictionary
280
0
281
1
  3
Standard
350
2C
  0
DICTIONARY
  5
10
330
A
100
AcDbDictionary
280
0
281
1
  3
Standard
350
22
  0
DICTIONARY
  5
11
330
A
100
AcDbDictionary
280
0
281
1
  0
ACDBDICTIONARYWDFLT
  5
12
330
A
100
AcDbDictionary
280
0
281
1
  3
Normal
350
13
100
AcDbDictionaryWithDefault
340
13
  0
ACDBPLACEHOLDER
  5
13
330
12
  0
DICTIONARY
  5
14
330
A
100
AcDbDictionary
280
0
281
1
  0
DICTIONARY
  5
15
330
A
100
AcDbDictionary
280
0
281
1
  0
DICTIONARY
  5
16
330
A
100
AcDbDictionary
280
0
281
1
  0
LAYOUT
  5
1A
330
D
100
AcDbPlotSettings
  1

  4
A3
  6

 40
7.5
 41
20.0
 42
7.5
 43
20.0
 44
420.0
 45
297.0
 46
0.0
 47
0.0
 48
0.0
 49
0.0
140
0.0
141
0.0
142
1.0
143
1.0
 70
1024
 72
1
 73
0
 74
5
  7

 75
16
 76
0
 77
2
 78
300
147
1.0
148
0.0
149
0.0
100
AcDbLayout
  1
Model
 70
1
 71
0
 10
0.0
 20
0.0
 11
420.0
 21
297.0
 12
0.0
 22
0.0
 32
0.0
 14
1e+20
 24
1e+20
 34
1e+20
 15
-1e+20
 25
-1e+20
 35
-1e+20
146
0.0
 13
0.0
 23
0.0
 33
0.0
 16
1.0
 26
0.0
 36
0.0
 17
0.0
 27
1.0
 37
0.0
 76
1
330
17
  0
LAYOUT
  5
1E
330
D
100
AcDbPlotSettings
  1

  4
A3
  6

 40
7.5
 41
20.0
 42
7.5
 43
20.0
 44
420.0
 45
297.0
 46
0.0
 47
0.0
 48
0.0
 49
0.0
140
0.0
141
0.0
142
1.0
143
1.0
 70
0
 72
1
 73
0
 74
5
  7

 75
16
 76
0
 77
2
 78
300
147
1.0
148
0.0
149
0.0
100
AcDbLayout
  1
Layout1
 70
1
 71
1
 10
0.0
 20
0.0
 11
420.0
 21
297.0
 12
0.0
 22
0.0
 32
0.0
 14
1e+20
 24
1e+20
 34
1e+20
 15
-1e+20
 25
-1e+20
 35
-1e+20
146
0.0
 13
0.0
 23
0.0
 33
0.0
 16
1.0
 26
0.0
 36
0.0
 17
0.0
 27
1.0
 37
0.0
 76
1
330
1B
  0
MATERIAL
  5
1F
102
{ACAD_REACTORS
330
E
102
}
330
E
100
AcDbMaterial
  1
ByBlock
  2

 70
0
 40
1.0
 71
1
 41
1.0
 91
-1023410177
 42
1.0
 72
1
  3

 73
1
 74
1
 75
1
 44
0.5
 73
0
 45
1.0
 46
1.0
 77
1
  4

 78
1
 79
1
170
1
 48
1.0
171
1
  6

172
1
173
1
174
1
140
1.0
141
1.0
175
1
  7

176
1
177
1
178
1
143
1.0
179
1
  8

270
1
271
1
272
1
145
1.0
146
1.0
273
1
  9

274
1
275
1
276
1
 42
1.0
 72
1
  3

 73
1
 74
1
 75
1
 94
63
  0
MATERIAL
  5
20
102
{ACAD_REACTORS
330
E
102
}
330
E
100
AcDbMaterial
  1
ByLayer
  2

 70
0
 40
1.0
 71
1
 41
1.0
 91
-1023410177
 42
1.0
 72
1
  3

 73
1
 74
1
 75
1
 44
0.5
 73
0
 45
1.0
 46
1.0
 77
1
  4

 78
1
 79
1
170
1
 48
1.0
171
1
  6

172
1
173
1
174
1
140
1.0
141
1.0
175
1
  7

176
1
177
1
178
1
143
1.0
179
1
  8

270
1
271
1
272
1
145
1.0
146
1.0
273
1
  9

274
1
275
1
276
1
 42
1.0
 72
1
  3

 73
1
 74
1
 75
1
 94
63
  0
MATERIAL
  5
21
102
{ACAD_REACTORS
330
E
102
}
330
E
100
AcDbMaterial
  1
Global
  2

 70
0
 40
1.0
 71
1
 41
1.0
 91
-1023410177
 42
1.0
 72
1
  3

 73
1
 74
1
 75
1
 44
0.5
 73
0
 45
1.0
 46
1.0
 77
1
  4

 78
1
 79
1
170
1
 48
1.0
171
1
  6

172
1
173
1
174
1
140
1.0
141
1.0
175
1
  7

176
1
177
1
178
1
143
1.0
179
1
  8

270
1
271
1
272
1
145
1.0
146
1.0
273
1
  9

274
1
275
1
276
1
 42
1.0
 72
1
  3

 73
1
 74
1
 75
1
 94
63
  0
MLINESTYLE
  5
22
102
{ACAD_REACTORS
330
10
102
}
330
10
100
AcDbMlineStyle
  2
Standard
 70
0
  3

 62
256
 51
90.0
 52
90.0
 71
2
 49
0.5
 62
256
  6
BYLAYER
 49
-0.5
 62
256
  6
BYLAYER
  0
MLEADERSTYLE
  5
2C
102
{ACAD_REACTORS
330
F
102
}
330
F
100
AcDbMLeaderStyle
179
2
170
2
171
1
172
0
 90
2
 40
0.0
 41
0.0
173
1
 91
-1056964608
 92
-2
290
1
 42
2.0
291
1
 43
8.0
  3
Standard
 44
4.0
300

342
29
174
1
175
1
176
0
178
1
 93
-1056964608
 45
4.0
292
0
297
0
 46
4.0
 94
-1056964608
 47
1.0
 49
1.0
140
1.0
294
1
141
0.0
177
0
142
1.0
295
0
296
0
143
3.75
271
0
272
9
273
9
  0
DICTIONARY
  5
2D
330
A
100
AcDbDictionary
280
1
281
1
  3
CREATED_BY_EZDXF
350
2E
  3
WRITTEN_BY_EZDXF
350
32
  0
DICTIONARYVAR
  5
2E
330
2D
100
DictionaryVariables
280
0
  1
1.3.5 @ 2025-08-20T01:28:30.246304+00:00
  0
DICTIONARYVAR
  5
32
330
2D
100
DictionaryVariables
280
0
  1
1.3.5 @ 2025-08-20T01:28:30.261926+00:00
  0
ENDSEC
  0
EOF
