  0
SECTION
  2
HEADER
  9
$ACADVER
  1
AC1032
  9
$ACADMAINTVER
 90
4
  9
$DWGCODEPAGE
  3
ANSI_1252
  9
$LASTSAVEDBY
  1
ezdxf
  9
$REQUIREDVERSIONS
160
0
  9
$INSBASE
 10
0.0
 20
0.0
 30
0.0
  9
$EXTMIN
 10
1e+20
 20
1e+20
 30
1e+20
  9
$EXTMAX
 10
-1e+20
 20
-1e+20
 30
-1e+20
  9
$LIMMIN
 10
0.0
 20
0.0
  9
$LIMMAX
 10
420.0
 20
297.0
  9
$ORTHOMODE
 70
0
  9
$REGENMODE
 70
1
  9
$FILLMODE
 70
1
  9
$QTEXTMODE
 70
0
  9
$MIRRTEXT
 70
1
  9
$LTSCALE
 40
1.0
  9
$ATTMODE
 70
1
  9
$TEXTSIZE
 40
2.5
  9
$TRACEWID
 40
1.0
  9
$TEXTSTYLE
  7
Standard
  9
$CLAYER
  8
0
  9
$CELTYPE
  6
ByLayer
  9
$CECOLOR
 62
256
  9
$CELTSCALE
 40
1.0
  9
$DISPSILH
 70
0
  9
$DIMSCALE
 40
1.0
  9
$DIMASZ
 40
2.5
  9
$DIMEXO
 40
0.625
  9
$DIMDLI
 40
3.75
  9
$DIMRND
 40
0.0
  9
$DIMDLE
 40
0.0
  9
$DIMEXE
 40
1.25
  9
$DIMTP
 40
0.0
  9
$DIMTM
 40
0.0
  9
$DIMTXT
 40
2.5
  9
$DIMCEN
 40
2.5
  9
$DIMTSZ
 40
0.0
  9
$DIMTOL
 70
0
  9
$DIMLIM
 70
0
  9
$DIMTIH
 70
0
  9
$DIMTOH
 70
0
  9
$DIMSE1
 70
0
  9
$DIMSE2
 70
0
  9
$DIMTAD
 70
1
  9
$DIMZIN
 70
8
  9
$DIMBLK
  1

  9
$DIMASO
 70
1
  9
$DIMSHO
 70
1
  9
$DIMPOST
  1

  9
$DIMAPOST
  1

  9
$DIMALT
 70
0
  9
$DIMALTD
 70
3
  9
$DIMALTF
 40
0.03937007874
  9
$DIMLFAC
 40
1.0
  9
$DIMTOFL
 70
1
  9
$DIMTVP
 40
0.0
  9
$DIMTIX
 70
0
  9
$DIMSOXD
 70
0
  9
$DIMSAH
 70
0
  9
$DIMBLK1
  1

  9
$DIMBLK2
  1

  9
$DIMSTYLE
  2
ISO-25
  9
$DIMCLRD
 70
0
  9
$DIMCLRE
 70
0
  9
$DIMCLRT
 70
0
  9
$DIMTFAC
 40
1.0
  9
$DIMGAP
 40
0.625
  9
$DIMJUST
 70
0
  9
$DIMSD1
 70
0
  9
$DIMSD2
 70
0
  9
$DIMTOLJ
 70
0
  9
$DIMTZIN
 70
8
  9
$DIMALTZ
 70
0
  9
$DIMALTTZ
 70
0
  9
$DIMUPT
 70
0
  9
$DIMDEC
 70
2
  9
$DIMTDEC
 70
2
  9
$DIMALTU
 70
2
  9
$DIMALTTD
 70
3
  9
$DIMTXSTY
  7
Standard
  9
$DIMAUNIT
 70
0
  9
$DIMADEC
 70
0
  9
$DIMALTRND
 40
0.0
  9
$DIMAZIN
 70
0
  9
$DIMDSEP
 70
44
  9
$DIMATFIT
 70
3
  9
$DIMFRAC
 70
0
  9
$DIMLDRBLK
  1

  9
$DIMLUNIT
 70
2
  9
$DIMLWD
 70
-2
  9
$DIMLWE
 70
-2
  9
$DIMTMOVE
 70
0
  9
$DIMFXL
 40
1.0
  9
$DIMFXLON
 70
0
  9
$DIMJOGANG
 40
0.785398163397
  9
$DIMTFILL
 70
0
  9
$DIMTFILLCLR
 70
0
  9
$DIMARCSYM
 70
0
  9
$DIMLTYPE
  6

  9
$DIMLTEX1
  6

  9
$DIMLTEX2
  6

  9
$DIMTXTDIRECTION
 70
0
  9
$LUNITS
 70
2
  9
$LUPREC
 70
4
  9
$SKETCHINC
 40
1.0
  9
$FILLETRAD
 40
10.0
  9
$AUNITS
 70
0
  9
$AUPREC
 70
2
  9
$MENU
  1
.
  9
$ELEVATION
 40
0.0
  9
$PELEVATION
 40
0.0
  9
$THICKNESS
 40
0.0
  9
$LIMCHECK
 70
0
  9
$CHAMFERA
 40
0.0
  9
$CHAMFERB
 40
0.0
  9
$CHAMFERC
 40
0.0
  9
$CHAMFERD
 40
0.0
  9
$SKPOLY
 70
0
  9
$TDCREATE
 40
2460908.103113426
  9
$TDUCREATE
 40
2458532.153996898
  9
$TDUPDATE
 40
2460908.103113426
  9
$TDUUPDATE
 40
2458532.1544311
  9
$TDINDWG
 40
0.0
  9
$TDUSRTIMER
 40
0.0
  9
$USRTIMER
 70
1
  9
$ANGBASE
 50
0.0
  9
$ANGDIR
 70
0
  9
$PDMODE
 70
0
  9
$PDSIZE
 40
0.0
  9
$PLINEWID
 40
0.0
  9
$SPLFRAME
 70
0
  9
$SPLINETYPE
 70
6
  9
$SPLINESEGS
 70
8
  9
$HANDSEED
  5
33
  9
$SURFTAB1
 70
6
  9
$SURFTAB2
 70
6
  9
$SURFTYPE
 70
6
  9
$SURFU
 70
6
  9
$SURFV
 70
6
  9
$UCSBASE
  2

  9
$UCSNAME
  2

  9
$UCSORG
 10
0.0
 20
0.0
 30
0.0
  9
$UCSXDIR
 10
1.0
 20
0.0
 30
0.0
  9
$UCSYDIR
 10
0.0
 20
1.0
 30
0.0
  9
$UCSORTHOREF
  2

  9
$UCSORTHOVIEW
 70
0
  9
$UCSORGTOP
 10
0.0
 20
0.0
 30
0.0
  9
$UCSORGBOTTOM
 10
0.0
 20
0.0
 30
0.0
  9
$UCSORGLEFT
 10
0.0
 20
0.0
 30
0.0
  9
$UCSORGRIGHT
 10
0.0
 20
0.0
 30
0.0
  9
$UCSORGFRONT
 10
0.0
 20
0.0
 30
0.0
  9
$UCSORGBACK
 10
0.0
 20
0.0
 30
0.0
  9
$PUCSBASE
  2

  9
$PUCSNAME
  2

  9
$PUCSORG
 10
0.0
 20
0.0
 30
0.0
  9
$PUCSXDIR
 10
1.0
 20
0.0
 30
0.0
  9
$PUCSYDIR
 10
0.0
 20
1.0
 30
0.0
  9
$PUCSORTHOREF
  2

  9
$PUCSORTHOVIEW
 70
0
  9
$PUCSORGTOP
 10
0.0
 20
0.0
 30
0.0
  9
$PUCSORGBOTTOM
 10
0.0
 20
0.0
 30
0.0
  9
$PUCSORGLEFT
 10
0.0
 20
0.0
 30
0.0
  9
$PUCSORGRIGHT
 10
0.0
 20
0.0
 30
0.0
  9
$PUCSORGFRONT
 10
0.0
 20
0.0
 30
0.0
  9
$PUCSORGBACK
 10
0.0
 20
0.0
 30
0.0
  9
$USERI1
 70
0
  9
$USERI2
 70
0
  9
$USERI3
 70
0
  9
$USERI4
 70
0
  9
$USERI5
 70
0
  9
$USERR1
 40
0.0
  9
$USERR2
 40
0.0
  9
$USERR3
 40
0.0
  9
$USERR4
 40
0.0
  9
$USERR5
 40
0.0
  9
$WORLDVIEW
 70
1
  9
$SHADEDGE
 70
3
  9
$SHADEDIF
 70
70
  9
$TILEMODE
 70
1
  9
$MAXACTVP
 70
64
  9
$PINSBASE
 10
0.0
 20
0.0
 30
0.0
  9
$PLIMCHECK
 70
0
  9
$PEXTMIN
 10
1e+20
 20
1e+20
 30
1e+20
  9
$PEXTMAX
 10
-1e+20
 20
-1e+20
 30
-1e+20
  9
$PLIMMIN
 10
0.0
 20
0.0
  9
$PLIMMAX
 10
420.0
 20
297.0
  9
$UNITMODE
 70
0
  9
$VISRETAIN
 70
1
  9
$PLINEGEN
 70
0
  9
$PSLTSCALE
 70
1
  9
$TREEDEPTH
 70
3020
  9
$CMLSTYLE
  2
Standard
  9
$CMLJUST
 70
0
  9
$CMLSCALE
 40
20.0
  9
$PROXYGRAPHICS
 70
1
  9
$MEASUREMENT
 70
1
  9
$CELWEIGHT
370
-1
  9
$ENDCAPS
280
0
  9
$JOINSTYLE
280
0
  9
$LWDISPLAY
290
0
  9
$INSUNITS
 70
6
  9
$HYPERLINKBASE
  1

  9
$STYLESHEET
  1

  9
$XEDIT
290
1
  9
$CEPSNTYPE
380
0
  9
$PSTYLEMODE
290
1
  9
$FINGERPRINTGUID
  2
{8DE34907-3B40-4496-BA08-FD37DDBD8CC6}
  9
$VERSIONGUID
  2
{BFD0A444-F5C2-4BD3-995E-82BC0ECB262F}
  9
$EXTNAMES
290
1
  9
$PSVPSCALE
 40
0.0
  9
$OLESTARTUP
290
0
  9
$SORTENTS
280
127
  9
$INDEXCTL
280
0
  9
$HIDETEXT
280
1
  9
$XCLIPFRAME
280
1
  9
$HALOGAP
280
0
  9
$OBSCOLOR
 70
257
  9
$OBSLTYPE
280
0
  9
$INTERSECTIONDISPLAY
280
0
  9
$INTERSECTIONCOLOR
 70
257
  9
$DIMASSOC
280
2
  9
$PROJECTNAME
  1

  9
$CAMERADISPLAY
290
0
  9
$LENSLENGTH
 40
50.0
  9
$CAMERAHEIGHT
 40
0.0
  9
$STEPSPERSEC
 40
24.0
  9
$STEPSIZE
 40
100.0
  9
$3DDWFPREC
 40
2.0
  9
$PSOLWIDTH
 40
0.005
  9
$PSOLHEIGHT
 40
0.08
  9
$LOFTANG1
 40
1.570796326795
  9
$LOFTANG2
 40
1.570796326795
  9
$LOFTMAG1
 40
0.0
  9
$LOFTMAG2
 40
0.0
  9
$LOFTPARAM
 70
7
  9
$LOFTNORMALS
280
1
  9
$LATITUDE
 40
37.795
  9
$LONGITUDE
 40
-122.394
  9
$NORTHDIRECTION
 40
0.0
  9
$TIMEZONE
 70
-8000
  9
$LIGHTGLYPHDISPLAY
280
1
  9
$TILEMODELIGHTSYNCH
280
1
  9
$CMATERIAL
347
20
  9
$SOLIDHIST
280
0
  9
$SHOWHIST
280
1
  9
$DWFFRAME
280
2
  9
$DGNFRAME
280
2
  9
$REALWORLDSCALE
290
1
  9
$INTERFERECOLOR
 62
256
  9
$CSHADOW
280
0
  9
$SHADOWPLANELOCATION
 40
0.0
  0
ENDSEC
  0
SECTION
  2
CLASSES
  0
CLASS
  1
ACDBDICTIONARYWDFLT
  2
AcDbDictionaryWithDefault
  3
ObjectDBX Classes
 90
0
 91
0
280
0
281
0
  0
CLASS
  1
SUN
  2
AcDbSun
  3
SCENEOE
 90
1153
 91
0
280
0
281
0
  0
CLASS
  1
VISUALSTYLE
  2
AcDbVisualStyle
  3
ObjectDBX Classes
 90
4095
 91
0
280
0
281
0
  0
CLASS
  1
MATERIAL
  2
AcDbMaterial
  3
ObjectDBX Classes
 90
1153
 91
0
280
0
281
0
  0
CLASS
  1
SCALE
  2
AcDbScale
  3
ObjectDBX Classes
 90
1153
 91
0
280
0
281
0
  0
CLASS
  1
TABLESTYLE
  2
AcDbTableStyle
  3
ObjectDBX Classes
 90
4095
 91
0
280
0
281
0
  0
CLASS
  1
MLEADERSTYLE
  2
AcDbMLeaderStyle
  3
ACDB_MLEADERSTYLE_CLASS
 90
4095
 91
0
280
0
281
0
  0
CLASS
  1
DICTIONARYVAR
  2
AcDbDictionaryVar
  3
ObjectDBX Classes
 90
0
 91
0
280
0
281
0
  0
CLASS
  1
CELLSTYLEMAP
  2
AcDbCellStyleMap
  3
ObjectDBX Classes
 90
1152
 91
0
280
0
281
0
  0
CLASS
  1
MENTALRAYRENDERSETTINGS
  2
AcDbMentalRayRenderSettings
  3
SCENEOE
 90
1024
 91
0
280
0
281
0
  0
CLASS
  1
ACDBDETAILVIEWSTYLE
  2
AcDbDetailViewStyle
  3
ObjectDBX Classes
 90
1025
 91
0
280
0
281
0
  0
CLASS
  1
ACDBSECTIONVIEWSTYLE
  2
AcDbSectionViewStyle
  3
ObjectDBX Classes
 90
1025
 91
0
280
0
281
0
  0
CLASS
  1
RASTERVARIABLES
  2
AcDbRasterVariables
  3
ISM
 90
0
 91
0
280
0
281
0
  0
CLASS
  1
LAYOUT
  2
AcDbLayout
  3
ObjectDBX Classes
 90
0
 91
0
280
0
281
0
  0
CLASS
  1
ACDBPLACEHOLDER
  2
AcDbPlaceHolder
  3
ObjectDBX Classes
 90
0
 91
0
280
0
281
0
  0
ENDSEC
  0
SECTION
  2
TABLES
  0
TABLE
  2
VPORT
  5
8
330
0
100
AcDbSymbolTable
 70
1
  0
VPORT
  5
23
330
8
100
AcDbSymbolTableRecord
100
AcDbViewportTableRecord
  2
*Active
 70
0
 10
0.0
 20
0.0
 11
1.0
 21
1.0
 12
0.0
 22
0.0
 13
0.0
 23
0.0
 14
0.5
 24
0.5
 15
0.5
 25
0.5
 16
0.0
 26
0.0
 36
1.0
 17
0.0
 27
0.0
 37
0.0
 40
1000.0
 41
1.34
 42
50.0
 43
0.0
 44
0.0
 50
0.0
 51
0.0
 71
0
 72
1000
 73
1
 74
3
 75
0
 76
0
 77
0
 78
0
281
0
 65
0
146
0.0
  0
ENDTAB
  0
TABLE
  2
LTYPE
  5
2
330
0
100
AcDbSymbolTable
 70
3
  0
LTYPE
  5
24
330
2
100
AcDbSymbolTableRecord
100
AcDbLinetypeTableRecord
  2
ByBlock
 70
0
  3

 72
65
 73
0
 40
0.0
  0
LTYPE
  5
25
330
2
100
AcDbSymbolTableRecord
100
AcDbLinetypeTableRecord
  2
ByLayer
 70
0
  3

 72
65
 73
0
 40
0.0
  0
LTYPE
  5
26
330
2
100
AcDbSymbolTableRecord
100
AcDbLinetypeTableRecord
  2
Continuous
 70
0
  3

 72
65
 73
0
 40
0.0
  0
ENDTAB
  0
TABLE
  2
LAYER
  5
1
330
0
100
AcDbSymbolTable
 70
2
  0
LAYER
  5
27
330
1
100
AcDbSymbolTableRecord
100
AcDbLayerTableRecord
  2
0
 70
0
 62
7
  6
Continuous
370
-3
390
13
347
21
  0
LAYER
  5
28
330
1
100
AcDbSymbolTableRecord
100
AcDbLayerTableRecord
  2
Defpoints
 70
0
 62
7
  6
Continuous
290
0
370
-3
390
13
347
21
  0
ENDTAB
  0
TABLE
  2
STYLE
  5
5
330
0
100
AcDbSymbolTable
 70
1
  0
STYLE
  5
29
330
5
100
AcDbSymbolTableRecord
100
AcDbTextStyleTableRecord
  2
Standard
 70
0
 40
0.0
 41
1.0
 50
0.0
 71
0
 42
2.5
  3
txt
  4

  0
ENDTAB
  0
TABLE
  2
VIEW
  5
7
330
0
100
AcDbSymbolTable
 70
0
  0
ENDTAB
  0
TABLE
  2
UCS
  5
6
330
0
100
AcDbSymbolTable
 70
0
  0
ENDTAB
  0
TABLE
  2
APPID
  5
3
330
0
100
AcDbSymbolTable
 70
3
  0
APPID
  5
2A
330
3
100
AcDbSymbolTableRecord
100
AcDbRegAppTableRecord
  2
ACAD
 70
0
  0
APPID
  5
30
330
3
100
AcDbSymbolTableRecord
100
AcDbRegAppTableRecord
  2
HATCHBACKGROUNDCOLOR
 70
0
  0
APPID
  5
31
330
3
100
AcDbSymbolTableRecord
100
AcDbRegAppTableRecord
  2
EZDXF
 70
0
  0
ENDTAB
  0
TABLE
  2
DIMSTYLE
  5
4
330
0
100
AcDbSymbolTable
 70
1
100
AcDbDimStyleTable
  0
DIMSTYLE
105
2B
330
4
100
AcDbSymbolTableRecord
100
AcDbDimStyleTableRecord
  2
Standard
 70
0
 40
1.0
 41
2.5
 42
0.625
 43
3.75
 44
1.25
 45
0.0
 46
0.0
 47
0.0
 48
0.0
 49
2.5
140
2.5
141
2.5
142
0.0
143
0.03937007874
144
1.0
145
0.0
146
1.0
147
0.625
148
0.0
 69
0
 70
0
 71
0
 72
0
 73
0
 74
0
 75
0
 76
0
 77
1
 78
8
 79
3
170
0
171
3
172
1
173
0
174
0
175
0
176
0
177
0
178
0
179
2
271
2
272
2
273
2
274
3
275
0
276
0
277
2
278
44
279
0
280
0
281
0
282
0
283
0
284
8
285
0
286
0
288
0
289
3
290
0
371
-2
372
-2
  0
ENDTAB
  0
TABLE
  2
BLOCK_RECORD
  5
9
330
0
100
AcDbSymbolTable
 70
2
  0
BLOCK_RECORD
  5
17
330
9
100
AcDbSymbolTableRecord
100
AcDbBlockTableRecord
  2
*Model_Space
340
1A
 70
0
280
1
281
0
  0
BLOCK_RECORD
  5
1B
330
9
100
AcDbSymbolTableRecord
100
AcDbBlockTableRecord
  2
*Paper_Space
340
1E
 70
0
280
1
281
0
  0
ENDTAB
  0
ENDSEC
  0
SECTION
  2
BLOCKS
  0
BLOCK
  5
18
330
17
100
AcDbEntity
  8
0
100
AcDbBlockBegin
  2
*Model_Space
 70
0
 10
0.0
 20
0.0
 30
0.0
  3
*Model_Space
  1

  0
ENDBLK
  5
19
330
17
100
AcDbEntity
  8
0
100
AcDbBlockEnd
  0
BLOCK
  5
1C
330
1B
100
AcDbEntity
  8
0
100
AcDbBlockBegin
  2
*Paper_Space
 70
0
 10
0.0
 20
0.0
 30
0.0
  3
*Paper_Space
  1

  0
ENDBLK
  5
1D
330
1B
100
AcDbEntity
  8
0
100
AcDbBlockEnd
  0
ENDSEC
  0
SECTION
  2
ENTITIES
  0
LWPOLYLINE
  5
2F
330
17
100
AcDbEntity
  8
0
100
AcDbPolyline
 90
721
 70
1
 10
59.638124209117855
 20
7.277386648290741
 10
59.63636019199804
 20
7.277792671865943
 10
59.631089328815314
 20
7.278832474102871
 10
59.62235392183866
 20
7.280150141340574
 10
59.610043896444765
 20
7.28191202288487
 10
59.5943688501259
 20
7.283874198187662
 10
59.57522928118012
 20
7.28611406040083
 10
59.552546812581184
 20
7.288531268458772
 10
59.52649933364077
 20
7.291148681230013
 10
59.49700846733267
 20
7.293865957648951
 10
59.46396410728304
 20
7.296849714157
 10
59.42756530981331
 20
7.299944719224409
 10
59.38772310380886
 20
7.303139766029912
 10
59.344426905764834
 20
7.30652389977265
 10
59.29769788269099
 20
7.309919030054345
 10
59.24751484641055
 20
7.313503425363672
 10
59.193977330375986
 20
7.317199425413152
 10
59.13699636347269
 20
7.320995823381526
 10
59.07656136219582
 20
7.324981664467931
 10
59.012782422335654
 20
7.328990421276148
 10
58.94554941635139
 20
7.333188888337994
 10
58.874883500669235
 20
7.3373990643003895
 10
58.800941387007654
 20
7.341821987475333
 10
58.72346680902873
 20
7.346334457928704
 10
58.642726584824715
 20
7.35097089753108
 10
58.55854281450043
 20
7.355708536459141
 10
58.471004416252946
 20
7.360559026760145
 10
58.380111379498786
 20
7.365522457479292
 10
58.28585311014954
 20
7.370687962860919
 10
58.18822957645472
 20
7.376055810040622
 10
58.08726193484055
 20
7.381447997665327
 10
57.982929007713764
 20
7.387042705178506
 10
57.87533028619285
 20
7.3927626284734815
 10
57.76436623682531
 20
7.398685427837727
 10
57.65005798428688
 20
7.404633369053766
 10
57.53247331151541
 20
7.4107959274315345
 10
57.41160160325551
 20
7.417262415305769
 10
57.2874745888548
 20
7.4237658751694555
 10
57.15998211960542
 20
7.430473279644802
 10
57.02931266832392
 20
7.437318442401196
 10
56.895277719859706
 20
7.444367905950047
 10
56.75805515294099
 20
7.451644618205078
 10
56.617555985869664
 20
7.459137461390226
 10
56.47386914742629
 20
7.466857998507545
 10
56.32691623941764
 20
7.474706066581842
 10
56.176786190624306
 20
7.4826932286151715
 10
56.02336885233842
 20
7.490986457229745
 10
55.86685268679304
 20
7.499519655140148
 10
55.707148712290056
 20
7.508281704570313
 10
55.54425690766248
 20
7.517272783610643
 10
55.37817721999276
 20
7.526493337487132
 10
55.20898801572364
 20
7.5360437963105795
 10
55.03661087549484
 20
7.545824175196177
 10
54.8611241551656
 20
7.55593499329993
 10
54.68253838532328
 20
7.566287650648694
 10
54.500874722394094
 20
7.576704145889392
 10
54.3162009069819
 20
7.58737431051276
 10
54.12840680096232
 20
7.598465028095806
 10
53.93749235141784
 20
7.609976743864527
 10
53.743578248227166
 20
7.621653796178373
 10
53.546653865551434
 20
7.633585586417279
 10
53.34671918222359
 20
7.645772292671638
 10
53.143742394811525
 20
7.658481495764864
 10
52.937776389089066
 20
7.671268236836863
 10
52.72888892682706
 20
7.684322169287971
 10
52.517069392770125
 20
7.6977326054529245
 10
52.30221821113178
 20
7.711577561799995
 10
52.08452383356155
 20
7.725791030088965
 10
51.86390785128272
 20
7.740272936389833
 10
51.64037024312826
 20
7.755023458792996
 10
51.41397874970201
 20
7.770232428789192
 10
51.18477566268942
 20
7.785544021762658
 10
50.95265084396615
 20
7.801125121290411
 10
50.71777156758852
 20
7.817087898575711
 10
50.480137801805995
 20
7.833432620754154
 10
50.239681731930226
 20
7.849970079651398
 10
49.9963927215388
 20
7.866789765692578
 10
49.75044864935988
 20
7.883914626791414
 10
49.50173935610215
 20
7.901511724615319
 10
49.25029656052968
 20
7.919314190702477
 10
48.99620918083955
 20
7.937333677100145
 10
48.739477185281274
 20
7.955570450943921
 10
48.48007935392755
 20
7.974203047858079
 10
48.218015655027884
 20
7.993231734978212
 10
47.95329664033663
 20
8.012567734240784
 10
47.68611077208682
 20
8.032144948360376
 10
47.416269503377386
 20
8.052030186983997
 10
47.14386176298891
 20
8.072235013113708
 10
46.86900823021659
 20
8.092503854154158
 10
46.59160930810691
 20
8.112914904664011
 10
46.311722174925855
 20
8.133746863242747
 10
46.029435759454024
 20
8.155011292892425
 10
45.74459325472142
 20
8.17650795670784
 10
45.45740431113784
 20
8.197992488914895
 10
45.167826552349815
 20
8.21982142649095
 10
44.87587053011165
 20
8.241905991372453
 10
44.58152561858451
 20
8.26433558493935
 10
44.284901902975164
 20
8.286943768840613
 10
43.98599936211662
 20
8.309730721166646
 10
43.68472898256026
 20
8.332685591276983
 10
43.38125807011291
 20
8.355920283239282
 10
43.07549763249291
 20
8.379423768322678
 10
42.76755776549066
 20
8.403029519130959
 10
42.45743842677206
 20
8.426737891844914
 10
42.14522855570126
 20
8.450560360421411
 10
41.830828555324715
 20
8.474575119419118
 10
41.514306197996824
 20
8.498971733193173
 10
41.195604210200045
 20
8.523472304550893
 10
40.87497891118981
 20
8.548199588200404
 10
40.552294650422375
 20
8.572775345883429
 10
40.22754079147536
 20
8.597289068025098
 10
39.90086350489632
 20
8.622030481955749
 10
39.572252164846404
 20
8.64708898905532
 10
39.24156054786048
 20
8.672175307219465
 10
38.909165684239696
 20
8.697156351425361
 10
38.57481120181109
 20
8.721909812190875
 10
38.23864324995524
 20
8.746725594936748
 10
37.90056224230215
 20
8.771681805176446
 10
37.56075668341892
 20
8.796711989443763
 10
37.219169320955
 20
8.821538072455617
 10
36.87586792726476
 20
8.846349618567142
 10
36.53083129300443
 20
8.87132507435741
 10
36.184112314531355
 20
8.896019391921133
 10
35.835721543599895
 20
8.92034379319477
 10
35.48578398374789
 20
8.944766095906934
 10
35.13413223391702
 20
8.96917519739676
 10
34.78093363166456
 20
8.993682734596305
 10
34.42625165685275
 20
9.017754614401145
 10
34.07007569422618
 20
9.041480149146016
 10
33.71238455560812
 20
9.065037607319589
 10
33.35314643756645
 20
9.088694569745275
 10
32.992581637516814
 20
9.112117091178648
 10
32.63055447316502
 20
9.134927200497028
 10
32.267300139090736
 20
9.15742538662602
 10
31.902587701455897
 20
9.180035085235179
 10
31.53654847597805
 20
9.20241123330402
 10
31.1692247437592
 20
9.224198095261983
 10
30.80077331176931
 20
9.245595908014279
 10
30.43100558018976
 20
9.26667192643391
 10
30.060088918328407
 20
9.287537520317343
 10
29.687944896241483
 20
9.30809279382497
 10
29.31468365205334
 20
9.328170863379782
 10
28.940394156878583
 20
9.34778293580304
 10
28.56498738668507
 20
9.366918249499479
 10
28.18864131545254
 20
9.385598950976025
 10
27.81117792686724
 20
9.403803249906547
 10
27.43275400673216
 20
9.421731561286652
 10
27.05338014913566
 20
9.439294750871998
 10
26.673109229268064
 20
9.456047948847692
 10
26.291920058952638
 20
9.472169423702411
 10
25.909980039247724
 20
9.48777027809702
 10
25.527100570334728
 20
9.502917766904527
 10
25.143480793203093
 20
9.517455946233586
 10
24.7591312807742
 20
9.531295859930255
 10
24.374062605969407
 20
9.5443485518406
 10
23.98825355944494
 20
9.556792468543687
 10
23.601782571144597
 20
9.568727505879126
 10
23.21464960931781
 20
9.580153930982512
 10
22.826975416760824
 20
9.590815636987298
 10
22.4386815635299
 20
9.600612728053877
 10
22.049867614827996
 20
9.609467276759176
 10
21.660590823005634
 20
9.617657358386277
 10
21.270730413516063
 20
9.625439346937325
 10
20.880485559099274
 20
9.632657031385374
 10
20.489851914345586
 20
9.638587199496857
 10
20.098765946475286
 20
9.643764389602197
 10
19.707395109464244
 20
9.648299259136268
 10
19.31567152512306
 20
9.652003134195922
 10
18.92360578754011
 20
9.654786880536824
 10
18.53134414134752
 20
9.65693960217292
 10
18.138808177768546
 20
9.658361225174204
 10
17.746118629015893
 20
9.658795731719328
 10
17.353186481640954
 20
9.658232271167828
 10
16.960179189619605
 20
9.656781500954573
 10
16.567086148279973
 20
9.654532644369098
 10
16.173939118720156
 20
9.651218476768792
 10
15.780727496268291
 20
9.646928221443195
 10
15.38752972145163
 20
9.641761685186706
 10
14.994225030306938
 20
9.635975152956275
 10
14.60105495076068
 20
9.62905605483801
 10
14.20801948281286
 20
9.621004390831908
 10
13.815108053542112
 20
9.611909117091907
 10
13.422310058276553
 20
9.601859456907547
 10
13.029725125720194
 20
9.59077694858456
 10
12.637253648336038
 20
9.57873987572681
 10
12.245084247109707
 20
9.565680805370903
 10
11.853238099634432
 20
9.551421558073354
 10
11.461704622405367
 20
9.536051179033311
 10
11.070473242501127
 20
9.519658624404702
 10
10.679554543426592
 20
9.502154848988397
 10
10.28914776142276
 20
9.483383107486254
 10
9.899142694864272
 20
9.463510817746483
 10
9.509607221940508
 20
9.442726653672226
 10
9.120505236143702
 20
9.420574627672528
 10
8.731993629111868
 20
9.397254264290998
 10
8.344040682080921
 20
9.373032431989458
 10
7.956589100366326
 20
9.347631411665622
 10
7.5698381413760965
 20
9.320894279930952
 10
7.183766648684
 20
9.292999038138523
 10
6.798306754684141
 20
9.263756923339994
 10
6.413615382765059
 20
9.23336719294338
 10
6.029624675904371
 20
9.201640994955136
 10
5.646502130411958
 20
9.168688630629338
 10
5.2640379477089745
 20
9.134755712372863
 10
4.882431385203432
 20
9.09968531679718
 10
4.501724776914808
 20
9.06312126310573
 10
4.121907571088733
 20
9.025152329362056
 10
3.7430370518262537
 20
8.986056323713642
 10
3.3651238449662526
 20
8.945743844780553
 10
2.9881785445970896
 20
8.904125758318449
 10
2.612290206501431
 20
8.861212558787006
 10
2.2373486290538867
 20
8.817171664034426
 10
1.863421732777879
 20
8.77219139178306
 10
1.4906408968920242
 20
8.725926144741226
 10
1.119027309573084
 20
8.67819765442025
 10
0.7485598355618075
 20
8.62918374408281
 10
0.37931791023493944
 20
8.578975850274594
 10
0.011214202921108493
 20
8.52754896416847
 10
-0.35567279293488663
 20
8.475002447332846
 10
-0.7212646156387907
 20
8.421435928471737
 10
-1.0856079763702506
 20
8.366482643283714
 10
-1.4486138299301348
 20
8.310153175273653
 10
-1.8102460486436576
 20
8.252903333942104
 10
-2.170572510700213
 20
8.194544445385931
 10
-2.5294045421966533
 20
8.135008631415733
 10
-2.886920233531256
 20
8.074274725021768
 10
-3.242941494305748
 20
8.012363893213776
 10
-3.5974004463307274
 20
7.949464809894907
 10
-3.9504857635093393
 20
7.885645353254552
 10
-4.302055483118105
 20
7.820470880801897
 10
-4.651995015787957
 20
7.754496830741504
 10
-5.00041457372777
 20
7.6878907099667835
 10
-5.347339701107477
 20
7.620107663778037
 10
-5.692503262329656
 20
7.551179442689873
 10
-6.036026053108056
 20
7.481362598794835
 10
-6.377918656947545
 20
7.410746177292062
 10
-6.71815990683838
 20
7.339152087783279
 10
-7.056582295887162
 20
7.26669054247736
 10
-7.393363914492167
 20
7.193340374364567
 10
-7.72835842276972
 20
7.119389886052055
 10
-8.061544653710092
 20
7.044660987141546
 10
-8.392912023808401
 20
6.969064632433904
 10
-8.722471116569531
 20
6.892689867128263
 10
-9.050154053804071
 20
6.815725365127774
 10
-9.376049880711168
 20
6.738160542927564
 10
-9.699959339882797
 20
6.659838477139098
 10
-10.021882431318968
 20
6.580759167762373
 10
-10.341897616713942
 20
6.500822986093383
 10
-10.659926434373457
 20
6.420129560836136
 10
-10.976000634812117
 20
6.338946027588047
 10
-11.290041756335652
 20
6.25737201505312
 10
-11.60200746492459
 20
6.1750513424348075
 10
-11.911986805778062
 20
6.091973426228237
 10
-12.219702059793795
 20
6.008080971748881
 10
-12.525363067884662
 20
5.9236199475844105
 10
-12.828980413555536
 20
5.8386793989339685
 10
-13.130376006408145
 20
5.753280492807292
 10
-13.429539262937617
 20
5.6673341840052425
 10
-13.72652747782848
 20
5.580562753425537
 10
-14.021293939901076
 20
5.493332965369597
 10
-14.313870399670018
 20
5.405911955434835
 10
-14.604114894411808
 20
5.317865081130433
 10
-14.892116469325591
 20
5.229181758951521
 10
-15.177718201022833
 20
5.140061246306113
 10
-15.461009134702671
 20
5.05049295968934
 10
-15.74199985386997
 20
4.960565944300339
 10
-16.020569562810987
 20
4.870023648046567
 10
-16.29673942853546
 20
4.779044161326298
 10
-16.570509451043396
 20
4.687627484139536
 10
-16.841921964354256
 20
4.596129797282829
 10
-17.110788294564912
 20
4.504483222566781
 10
-17.377254781559024
 20
4.412399457384234
 10
-17.64121121312772
 20
4.319710994841788
 10
-17.902610878091327
 20
4.226784599240861
 10
-18.161563988658735
 20
4.133787777474859
 10
-18.41793916561132
 20
4.0403749322521
 10
-18.671668530759693
 20
3.946734737475732
 10
-18.922940758006987
 20
3.852935071335152
 10
-19.17157775695493
 20
3.7589971008400975
 10
-19.41754777708892
 20
3.6646536903931564
 10
-19.660882568923565
 20
3.5701719755917423
 10
-19.901592715963726
 20
3.4756410016349926
 10
-20.139667634704537
 20
3.380971723323771
 10
-20.375018279946865
 20
3.286174724162946
 10
-20.607634068185835
 20
3.1911609589533785
 10
-20.837614628125458
 20
3.0960088893893394
 10
-21.064781869367454
 20
3.0007396824805648
 10
-21.289156958921563
 20
2.9055314286253324
 10
-21.510896820176328
 20
2.8101848704156285
 10
-21.72973431753433
 20
2.7147317583660584
 10
-21.94574791268983
 20
2.6190724637726177
 10
-22.15897993966232
 20
2.5235631674318566
 10
-22.36943039845179
 20
2.428203869343775
 10
-22.576989076849376
 20
2.332827062614967
 10
-22.78164539135019
 20
2.2373437020462954
 10
-22.983477803648512
 20
2.1416541589337514
 10
-23.182361140870416
 20
2.0462248262827654
 10
-23.378373864710163
 20
1.9509560753893278
 10
-23.571494808158015
 20
1.8556698158551637
 10
-23.761634926014835
 20
1.7603766311851434
 10
-23.948815385290363
 20
1.6652546117775415
 10
-24.133015018974863
 20
1.5701256672340833
 10
-24.3142444105732
 20
1.4750788427539068
 10
-24.49251414359025
 20
1.380203183536147
 10
-24.66771400581712
 20
1.285331182687402
 10
-24.83987574776844
 20
1.1907299758050833
 10
-25.009046080623854
 20
1.0960327985877703
 10
-25.175178293203707
 20
1.0016064153368822
 10
-25.33826180200313
 20
0.9073617808532844
 10
-25.49828602351726
 20
0.813209849937836
 10
-25.655161912546944
 20
0.7191612060954086
 10
-25.808989097796204
 20
0.6252943110202692
 10
-25.959710284580503
 20
0.5318868838147026
 10
-26.1073043058901
 20
0.4387608340804316
 10
-26.251771161725003
 20
0.34591616181745655
 10
-26.39321048078921
 20
0.2534313287200464
 10
-26.531433589179585
 20
0.16123845659880212
 10
-26.666550699105
 20
0.06950505234712978
 10
-26.798493932376058
 20
-0.02158021013182569
 10
-26.927352334191895
 20
-0.11202791434293237
 10
-27.053015692343635
 20
-0.2020055671795977
 10
-27.175583635535283
 20
-0.2914347069475533
 10
-27.294878073368565
 20
-0.3802941666370587
 10
-27.4110982632515
 20
-0.4684270228595788
 10
-27.524076698290674
 20
-0.5557230634062363
 10
-27.63388125667549
 20
-0.6423709621801761
 10
-27.74051193840595
 20
-0.7283707191813982
 10
-27.843968743482055
 20
-0.8137223344099029
 10
-27.944183793714394
 20
-0.8982371339625437
 10
-28.04115708910298
 20
-0.9819151178393224
 10
-28.13494592433234
 20
-1.0650340051425211
 10
-28.225493004717947
 20
-1.1473160767698576
 10
-28.312755996240313
 20
-1.2291175135178816
 10
-28.39677723291892
 20
-1.3100821345900435
 10
-28.477514380734295
 20
-1.3905661207828937
 10
-28.554988606696174
 20
-1.4703913816981573
 10
-28.629199910804555
 20
-1.5495579173358331
 10
-28.700048664355435
 20
-1.6281441893901913
 10
-28.767734124756824
 20
-1.705993274472693
 10
-28.8319574058967
 20
-1.783340557666145
 10
-28.89300681038222
 20
-1.860039699086879
 10
-28.950693664310243
 20
-1.936158576924295
 10
-29.005049718195362
 20
-2.0114300555809774
 10
-29.056142850226987
 20
-2.086042808960074
 10
-29.103894598710845
 20
-2.159897208357575
 10
-29.148347297666422
 20
-2.2326370729769303
 10
-29.189558241778236
 20
-2.3045401219204216
 10
-29.2274595528569
 20
-2.375417681284905
 10
-29.262072397912146
 20
-2.445091660672104
 10
-29.29343911096345
 20
-2.5132058792854663
 10
-29.321559692010815
 20
-2.5797603371249926
 10
-29.346544353263123
 20
-2.6445875272972765
 10
-29.368267921846442
 20
-2.7072210567968886
 10
-29.38686177697938
 20
-2.7673153283321463
 10
-29.402520798909784
 20
-2.8239904734165395
 10
-29.415140981773455
 20
-2.8766020086463646
 10
-29.42498070684745
 20
-2.923735794340283
 10
-29.432298355408815
 20
-2.9639776908169564
 10
-29.43716984117615
 20
-2.995169446287334
 10
-29.43994879697032
 20
-3.0150955142778373
 10
-29.374001476132676
 20
-3.5843844685611113
 10
-29.371769858600707
 20
-3.588724687124626
 10
-29.365085589509672
 20
-3.601656297616033
 10
-29.35399100287905
 20
-3.62282311923878
 10
-29.33821713392691
 20
-3.653728336873343
 10
-29.317719819449284
 20
-3.6962630667113587
 10
-29.292960356500245
 20
-3.7457863748927833
 10
-29.264177788531608
 20
-3.7995272767394694
 10
-29.231687791504953
 20
-3.8563493516723635
 10
-29.1956235738234
 20
-3.914372067004698
 10
-29.15599134183164
 20
-3.972783432439362
 10
-29.113022103452305
 20
-4.031159388990404
 10
-29.06666914750572
 20
-4.089133172356404
 10
-29.016974808011373
 20
-4.146348601740809
 10
-28.963960251979
 20
-4.202627586745344
 10
-28.9076254794086
 20
-4.257970127370008
 10
-28.848070119004188
 20
-4.312297761920534
 10
-28.785226292576358
 20
-4.365421816493775
 10
-28.719083416620233
 20
-4.417431336288869
 10
-28.649741119839838
 20
-4.468247859611549
 10
-28.57708919002628
 20
-4.518038893355219
 10
-28.50113821068444
 20
-4.566715392320744
 10
-28.422087439222334
 20
-4.614120433119585
 10
-28.339637989527926
 20
-4.660489400834549
 10
-28.254067580703506
 20
-4.7057650007811045
 10
-28.165187538845935
 20
-4.750015111148651
 10
-28.073097492659215
 20
-4.793161270242922
 10
-27.977808025648216
 20
-4.835114432864777
 10
-27.879287387298323
 20
-4.876141734611631
 10
-27.777556744619293
 20
-4.916065085085209
 10
-27.672573763591625
 20
-4.955240665082061
 10
-27.56437019472995
 20
-4.993401339004775
 10
-27.453013916223647
 20
-5.030735780756494
 10
-27.338415882873594
 20
-5.067233406832351
 10
-27.220554927670044
 20
-5.103072307630621
 10
-27.099530679317
 20
-5.138174021457035
 10
-26.9753325543096
 20
-5.1726275935107315
 10
-26.84796055264784
 20
-5.2064330237917105
 10
-26.717293878617976
 20
-5.239846864392517
 10
-26.58352120612316
 20
-5.272801237123751
 10
-26.44647502826997
 20
-5.305185929776536
 10
-26.306333435456693
 20
-5.3370221093606105
 10
-26.162986215474447
 20
-5.368477282769382
 10
-26.016522413522374
 20
-5.399562033507719
 10
-25.8668635679062
 20
-5.4301767328716135
 10
-25.714119890834812
 20
-5.460153873967661
 10
-25.558191753604195
 20
-5.489571918490129
 10
-25.399246663107753
 20
-5.5185410786478934
 10
-25.237195574146355
 20
-5.547050770936087
 10
-25.072038486719997
 20
-5.575100995354709
 10
-24.90380715134329
 20
-5.602424616306344
 10
-24.732590613215365
 20
-5.629032217295863
 10
-24.55829982713709
 20
-5.654913214818395
 10
-24.381002671297868
 20
-5.680256282777087
 10
-24.200699145697694
 20
-5.70506142117194
 10
-24.017431584356043
 20
-5.728972449206398
 10
-23.831267865462316
 20
-5.752178040783611
 10
-23.64212952732225
 20
-5.774578567199569
 10
-23.450005986430966
 20
-5.796263073653411
 10
-23.254986287987613
 20
-5.817242143650005
 10
-23.05708101549705
 20
-5.837426731990216
 10
-22.856279585454416
 20
-5.856905883873179
 10
-22.65258199785971
 20
-5.875679599298895
 10
-22.445998836217793
 20
-5.893658833068227
 10
-22.23660856222294
 20
-5.91094321388518
 10
-22.02441117587515
 20
-5.927532741749757
 10
-21.809328215480154
 20
-5.943327787957949
 10
-21.591516604426495
 20
-5.958527609917771
 10
-21.370897881019896
 20
-5.973032578925215
 10
-21.147461461755487
 20
-5.986931740179421
 10
-20.921306975337284
 20
-6.0001466319861185
 10
-20.692466172279893
 20
-6.012410118747894
 10
-20.460907302068698
 20
-6.023989336062163
 10
-20.226520152494828
 20
-6.035051790822329
 10
-19.989582442660566
 20
-6.045540188343866
 10
-19.74993724917738
 20
-6.055255271218756
 10
-19.507595155550124
 20
-6.064107994247862
 10
-19.262713085167352
 20
-6.072297614839201
 10
-19.01519140932505
 20
-6.079902594687037
 10
-18.765051295032954
 20
-6.086744843393099
 10
-18.512381787490202
 20
-6.092834944462253
 10
-18.25719347020167
 20
-6.098083852695363
 10
-17.999454592652746
 20
-6.102758703689843
 10
-17.739186321853165
 20
-6.106681407047415
 10
-17.4763674907932
 20
-6.110030053166358
 10
-17.211207940385716
 20
-6.112558673458994
 10
-16.94351899672759
 20
-6.1143351461147235
 10
-16.673389705017943
 20
-6.115370054638416
 10
-16.400898526951046
 20
-6.1157630277340775
 10
-16.125977584337505
 20
-6.1153253914985655
 10
-15.848694755366717
 20
-6.114245819835024
 10
-15.56914966874269
 20
-6.112445851049184
 10
-15.287185401076888
 20
-6.109726227733033
 10
-15.002980042767588
 20
-6.106108116896306
 10
-14.716501843300176
 20
-6.101858654136418
 10
-14.427750802674655
 20
-6.0969778394533725
 10
-14.136726920891025
 20
-6.091465672847165
 10
-13.843550993663031
 20
-6.085065602225253
 10
-13.548244188000417
 20
-6.077599537189362
 10
-13.250675124684564
 20
-6.069413075031172
 10
-12.951021894113747
 20
-6.060527382760425
 10
-12.649216618098563
 20
-6.05075378647397
 10
-12.345369508847897
 20
-6.039924779278407
 10
-12.039448815847136
 20
-6.028307496771145
 10
-11.731522417285682
 20
-6.016090612855333
 10
-11.421522434974131
 20
-6.003085453627824
 10
-11.1094806194271
 20
-5.989024883491203
 10
-10.795553894033116
 20
-5.974108159853489
 10
-10.479731675287312
 20
-5.958424327913814
 10
-10.16183587279142
 20
-5.941952220662444
 10
-9.842144205647715
 20
-5.9246345434148475
 10
-9.520588795666802
 20
-5.906282622267879
 10
-9.197169642848674
 20
-5.886896457221538
 10
-8.871965208887607
 20
-5.866575676979834
 10
-8.544922576259255
 20
-5.845765507538456
 10
-8.21616254067736
 20
-5.824209396804858
 10
-7.885638390962263
 20
-5.801540580477621
 10
-7.553339543609093
 20
-5.777848103755881
 10
-7.219444089016128
 20
-5.753153133649379
 10
-6.88382064796475
 20
-5.727801267449794
 10
-6.546579432663841
 20
-5.701624998263724
 10
-6.207720443113393
 20
-5.674624326091166
 10
-5.867264846323154
 20
-5.646621160533845
 10
-5.525202058788246
 20
-5.6177045467908995
 10
-5.181689003897213
 20
-5.5880737422703435
 10
-4.836568758261517
 20
-5.557529489564162
 10
-4.490040579289167
 20
-5.525914865283819
 10
-4.142093883475297
 20
-5.493318914628452
 10
-3.7927180873150395
 20
-5.4598306827971985
 10
-3.441834729114122
 20
-5.425350541086051
 10
-3.0897321114797074
 20
-5.389732149611343
 10
-2.736331772717513
 20
-5.352875879669068
 10
-2.381481166599189
 20
-5.315305418949182
 10
-2.025368967027887
 20
-5.2769528892622874
 10
-1.6681477202319563
 20
-5.237294602918424
 10
-1.309607585298513
 20
-5.19657652850527
 10
-0.9498270239218269
 20
-5.154898294726832
 10
-0.5890052935099122
 20
-5.112102978194569
 10
-0.22697488716935976
 20
-5.0680803666996095
 10
0.13608610470155194
 20
-5.022851627251689
 10
0.5003090613214336
 20
-4.976762357142493
 10
0.8655837704814136
 20
-4.929645049478612
 10
1.2317682694580123
 20
-4.8810650617692275
 10
1.5989833539649632
 20
-4.831278946106883
 10
1.9671823128226198
 20
-4.780653466792999
 10
2.336244382067735
 20
-4.728932338870632
 10
2.7062497379223878
 20
-4.67603035895803
 10
3.0771314758795985
 20
-4.622144393116664
 10
3.4488472936704313
 20
-4.566918527685576
 10
3.821397212461882
 20
-4.510352940755166
 10
4.194734521074291
 20
-4.452814396626856
 10
4.5687808001474055
 20
-4.3944028801854484
 10
4.943614521959016
 20
-4.335018851772135
 10
5.319114901378858
 20
-4.274405848339572
 10
5.695303116000189
 20
-4.212742049331232
 10
6.072179208157038
 20
-4.150027810927914
 10
6.449654122066736
 20
-4.0862736275892875
 10
6.827696138965206
 20
-4.021212630853537
 10
7.206326425862185
 20
-3.9550229111189363
 10
7.585409226378883
 20
-3.8880818161917774
 10
7.965112089742704
 20
-3.8202794900439803
 10
8.34522516445728
 20
-3.751369875042671
 10
8.72584810039362
 20
-3.6814316109725147
 10
9.106802807153446
 20
-3.610485864843253
 10
9.488188924024273
 20
-3.5386111873943515
 10
9.869995878084737
 20
-3.4657186224718717
 10
10.252056162441427
 20
-3.391918382284692
 10
10.634479989303228
 20
-3.3173779737262166
 10
11.017256806915782
 20
-3.2420086187329074
 10
11.40019790962543
 20
-3.1657421719797654
 10
11.783402947303175
 20
-3.088657273251459
 10
12.166804041759642
 20
-3.010942596451134
 10
12.550447914757974
 20
-2.9322314663225675
 10
12.934177621742645
 20
-2.8527229621833747
 10
13.31801432972337
 20
-2.7725951744318356
 10
13.701947465778813
 20
-2.691759146914006
 10
14.08595586289921
 20
-2.610036789231615
 10
14.470060698677813
 20
-2.527606280828135
 10
14.854104996808566
 20
-2.4446664338855855
 10
15.238156656647872
 20
-2.3610287525912197
 10
15.622158383511204
 20
-2.276970956047321
 10
16.00607840571694
 20
-2.192225730566076
 10
16.389906150343727
 20
-2.1067041199935486
 10
16.77366278440129
 20
-2.0205842147280135
 10
17.157201904504937
 20
-1.9341537831054278
 10
17.540612587604315
 20
-1.8474025087565207
 10
17.92377401681869
 20
-1.760073661498348
 10
18.306696754485895
 20
-1.6722561084396508
 10
18.689380811189448
 20
-1.5839499386256286
 10
19.07183674926721
 20
-1.4952440191650191
 10
19.453875841898512
 20
-1.4060700266424289
 10
19.83559774953786
 20
-1.3165066898877242
 10
20.216923946989976
 20
-1.2266531033337176
 10
20.597964699381254
 20
-1.1366772190998113
 10
20.978499487042388
 20
-1.0462432219924003
 10
21.358538904061763
 20
-0.955440246255821
 10
21.738224913162863
 20
-0.8647029343808933
 10
22.117315870000677
 20
-0.7735177369565335
 10
22.49580115931981
 20
-0.6817953416480066
 10
22.87383335909913
 20
-0.590059703280868
 10
23.25125546128207
 20
-0.49850936690153924
 10
23.62809303120556
 20
-0.40659965590072183
 10
24.0042675648413
 20
-0.314429842801627
 10
24.379689953489137
 20
-0.2220099768379279
 10
24.754470441108463
 20
-0.1295078320386294
 10
25.128530513087462
 20
-0.03702259188174459
 10
25.501880721180523
 20
0.055356965569189315
 10
25.87441082142823
 20
0.14779861434317207
 10
26.246099604486833
 20
0.24048080101927935
 10
26.616978810287442
 20
0.33313647904529536
 10
26.987048428246535
 20
0.4257657374664182
 10
27.35614083505217
 20
0.5182593435709637
 10
27.724434195187143
 20
0.6106378410522738
 10
28.091718561903534
 20
0.7031480889500177
 10
28.45800449753919
 20
0.7957012201554539
 10
28.823344877284438
 20
0.8878523648536889
 10
29.187729128217935
 20
0.9796904791986635
 10
29.55095785534608
 20
1.0713736441665016
 10
29.91321980665657
 20
1.1628333582514119
 10
30.274326191827683
 20
1.254138479139981
 10
30.634366077225582
 20
1.3452994122466824
 10
30.993271510576342
 20
1.436128106984765
 10
31.350953372596265
 20
1.5266146031657506
 10
31.707521907244775
 20
1.6165911267606388
 10
32.0627671360234
 20
1.7063048039446909
 10
32.41686722341496
 20
1.7957761784112523
 10
32.76963337909777
 20
1.8850741078469142
 10
33.12112905118348
 20
1.973664766282842
 10
33.471265130971965
 20
2.0615381044853627
 10
33.82015628191679
 20
2.149248937342646
 10
34.16752459441262
 20
2.2368561623528116
 10
34.51363290098117
 20
2.3236679616160956
 10
34.85829240071728
 20
2.4097532818642895
 10
35.20146070668393
 20
2.495468749119939
 10
35.5431377977141
 20
2.5808145414734427
 10
35.88333422556217
 20
2.665701880861263
 10
36.222102886585446
 20
2.7496857193781024
 10
36.559244354039876
 20
2.8329244051356897
 10
36.89490507364415
 20
2.915705350289184
 10
37.22890678566392
 20
2.998008812552033
 10
37.561270625358404
 20
3.079656968661558
 10
37.892017738570324
 20
3.16047190630988
 10
38.22112691595595
 20
3.2406320720760737
 10
38.54850900648106
 20
3.320127772907258
 10
38.87427426468859
 20
3.398791145729234
 10
39.19824443084415
 20
3.4766024482554463
 10
39.5204768419663
 20
3.5538390434073825
 10
39.84079321715369
 20
3.6304813669888873
 10
40.159482038933035
 20
3.706381565347907
 10
40.4762079760124
 20
3.7813218854226647
 10
40.79114923520861
 20
3.855322514725708
 10
41.10429519068275
 20
3.9284728546369694
 10
41.41544641569074
 20
4.000931253268172
 10
41.72461344081995
 20
4.0726091106461775
 10
42.03198504580853
 20
4.143437658129591
 10
42.33730444572687
 20
4.213298058999051
 10
42.64068187395084
 20
4.2820226282707505
 10
42.94199642893163
 20
4.349868808489223
 10
43.241326604114064
 20
4.416935961222884
 10
43.53859383196876
 20
4.483125348219711
 10
43.83379807016177
 20
4.548437325660508
 10
44.12688190758996
 20
4.612595153940175
 10
44.41790269185541
 20
4.6758761069350046
 10
44.706692714978104
 20
4.738171664294901
 10
44.99331988689797
 20
4.799670232787413
 10
45.27781593696258
 20
4.860104854905523
 10
45.56010227647566
 20
4.919376970487619
 10
45.840147112588525
 20
4.977754071311902
 10
46.11795041355071
 20
5.03523642451398
 10
46.39351213702816
 20
5.0918243862746415
 10
46.66667516912925
 20
5.147320301999459
 10
46.93763888368057
 20
5.201566268802706
 10
47.20626120154007
 20
5.254997908672394
 10
47.472463544594916
 20
5.3075165724017
 10
47.736334989794784
 20
5.359132576359903
 10
47.99780754253172
 20
5.409658226141045
 10
48.25678145768315
 20
5.459172962936585
 10
48.51342436914452
 20
5.507785930413011
 10
48.76758972536211
 20
5.555210606867153
 10
49.01925632757564
 20
5.601625349832883
 10
49.26843472753946
 20
5.646941381246662
 10
49.51509312182145
 20
5.691426281931899
 10
49.759252645680846
 20
5.7349022286259155
 10
50.00082412691641
 20
5.777359706366231
 10
50.23981811728255
 20
5.818709937089307
 10
50.47631313139101
 20
5.859052104273152
 10
50.71012028366857
 20
5.89845586701115
 10
50.94123952119771
 20
5.936921670529296
 10
51.169770536183464
 20
5.974370518862127
 10
51.39572392271421
 20
6.010713277765307
 10
51.618889850460555
 20
6.046195826781311
 10
51.83935645444023
 20
6.08083640730213
 10
52.05715651176779
 20
6.114359246346041
 10
52.272189885731024
 20
6.146847079776865
 10
52.4844353881532
 20
6.178478176083282
 10
52.694003284160665
 20
6.209084583145884
 10
52.90072584460644
 20
6.23855795870498
 10
53.104671000597456
 20
6.2670865314377195
 10
53.305828136878326
 20
6.294759613678835
 10
53.50410809183134
 20
6.321567601420649
 10
53.69953200071575
 20
6.347332671400485
 10
53.892089227109125
 20
6.372144314043472
 10
54.08175858283475
 20
6.39618079783829
 10
54.26855060906348
 20
6.419353433766594
 10
54.45239732177083
 20
6.44147443837723
 10
54.633298668039295
 20
6.4625442568961935
 10
54.81130143313307
 20
6.482929030308513
 10
54.986327017772325
 20
6.502530287497771
 10
55.15837541137357
 20
6.521348117509165
 10
55.327457144524125
 20
6.539293920369553
 10
55.493483066189796
 20
6.556358003026054
 10
55.65654226390377
 20
6.572550592802746
 10
55.8165244302056
 20
6.588039997999823
 10
55.973450679187536
 20
6.60264857344501
 10
56.127299822672796
 20
6.616554587626979
 10
56.2781821363713
 20
6.629589999381126
 10
56.425898151204926
 20
6.641913512999972
 10
56.570526392368976
 20
6.65362422291633
 10
56.711988281750635
 20
6.664623479923386
 10
56.850383511554924
 20
6.674832288055672
 10
56.985601668486396
 20
6.6844198460653805
 10
57.11775297533743
 20
6.693218558013907
 10
57.246628046285814
 20
6.70147056354536
 10
57.37241487789043
 20
6.709113683363087
 10
57.49493548558802
 20
6.716125860005359
 10
57.61427897807877
 20
6.7225171427058505
 10
57.73044533419567
 20
6.728287709554959
 10
57.843423938683316
 20
6.73352687288742
 10
57.953136234595924
 20
6.738135805406018
 10
58.0595610125897
 20
6.742292953689824
 10
58.16279799662023
 20
6.74591905463778
 10
58.26274742039791
 20
6.749093727531741
 10
58.35941985684413
 20
6.75172801621777
 10
58.452804711870506
 20
6.753911054940203
 10
58.54291253723139
 20
6.7555540656355
 10
58.62973273883842
 20
6.756746182547999
 10
58.71324413909834
 20
6.757665585121172
 10
58.793378732819704
 20
6.7581246679942675
 10
58.87030421739899
 20
6.758232040562573
 10
58.94374255622878
 20
6.758047668866596
 10
59.01397175416599
 20
6.7575118540014305
 10
59.08081350914224
 20
6.756605209861317
 10
59.14424664356429
 20
6.755505915889733
 10
59.204370870804176
 20
6.754134798030816
 10
59.26109702924424
 20
6.752482252276889
 10
59.31440395187471
 20
6.750726369026226
 10
59.36440192498899
 20
6.748699018069025
 10
59.410980641126685
 20
6.746568507705486
 10
59.45415066262565
 20
6.744245970826873
 10
59.49389082247615
 20
6.741909497831458
 10
59.530211704183024
 20
6.739470043520102
 10
59.56319184352511
 20
6.737026613280422
 10
59.59265294901752
 20
6.734559731961459
 10
59.61867358818958
 20
6.7321681378152345
 10
59.64134289090846
 20
6.729861701985019
 10
59.660482565689286
 20
6.727620949319859
 10
59.67616057538952
 20
6.72563384136131
 10
59.6884766757152
 20
6.723820847872708
 10
59.69723136583773
 20
6.7223409402821765
 10
59.70250324503692
 20
6.721292589706129
 10
59.70427111455252
 20
6.720854153678442
  0
ENDSEC
  0
SECTION
  2
OBJECTS
  0
DICTIONARY
  5
A
330
0
100
AcDbDictionary
280
0
281
1
  3
ACAD_COLOR
350
B
  3
ACAD_GROUP
350
C
  3
ACAD_LAYOUT
350
D
  3
ACAD_MATERIAL
350
E
  3
ACAD_MLEADERSTYLE
350
F
  3
ACAD_MLINESTYLE
350
10
  3
ACAD_PLOTSETTINGS
350
11
  3
ACAD_PLOTSTYLENAME
350
12
  3
ACAD_SCALELIST
350
14
  3
ACAD_TABLESTYLE
350
15
  3
ACAD_VISUALSTYLE
350
16
  3
EZDXF_META
350
2D
  0
DICTIONARY
  5
B
330
A
100
AcDbDictionary
280
0
281
1
  0
DICTIONARY
  5
C
330
A
100
AcDbDictionary
280
0
281
1
  0
DICTIONARY
  5
D
330
A
100
AcDbDictionary
280
0
281
1
  3
Model
350
1A
  3
Layout1
350
1E
  0
DICTIONARY
  5
E
330
A
100
AcDbDictionary
280
0
281
1
  3
ByBlock
350
1F
  3
ByLayer
350
20
  3
Global
350
21
  0
DICTIONARY
  5
F
330
A
100
AcDbDictionary
280
0
281
1
  3
Standard
350
2C
  0
DICTIONARY
  5
10
330
A
100
AcDbDictionary
280
0
281
1
  3
Standard
350
22
  0
DICTIONARY
  5
11
330
A
100
AcDbDictionary
280
0
281
1
  0
ACDBDICTIONARYWDFLT
  5
12
330
A
100
AcDbDictionary
280
0
281
1
  3
Normal
350
13
100
AcDbDictionaryWithDefault
340
13
  0
ACDBPLACEHOLDER
  5
13
330
12
  0
DICTIONARY
  5
14
330
A
100
AcDbDictionary
280
0
281
1
  0
DICTIONARY
  5
15
330
A
100
AcDbDictionary
280
0
281
1
  0
DICTIONARY
  5
16
330
A
100
AcDbDictionary
280
0
281
1
  0
LAYOUT
  5
1A
330
D
100
AcDbPlotSettings
  1

  4
A3
  6

 40
7.5
 41
20.0
 42
7.5
 43
20.0
 44
420.0
 45
297.0
 46
0.0
 47
0.0
 48
0.0
 49
0.0
140
0.0
141
0.0
142
1.0
143
1.0
 70
1024
 72
1
 73
0
 74
5
  7

 75
16
 76
0
 77
2
 78
300
147
1.0
148
0.0
149
0.0
100
AcDbLayout
  1
Model
 70
1
 71
0
 10
0.0
 20
0.0
 11
420.0
 21
297.0
 12
0.0
 22
0.0
 32
0.0
 14
1e+20
 24
1e+20
 34
1e+20
 15
-1e+20
 25
-1e+20
 35
-1e+20
146
0.0
 13
0.0
 23
0.0
 33
0.0
 16
1.0
 26
0.0
 36
0.0
 17
0.0
 27
1.0
 37
0.0
 76
1
330
17
  0
LAYOUT
  5
1E
330
D
100
AcDbPlotSettings
  1

  4
A3
  6

 40
7.5
 41
20.0
 42
7.5
 43
20.0
 44
420.0
 45
297.0
 46
0.0
 47
0.0
 48
0.0
 49
0.0
140
0.0
141
0.0
142
1.0
143
1.0
 70
0
 72
1
 73
0
 74
5
  7

 75
16
 76
0
 77
2
 78
300
147
1.0
148
0.0
149
0.0
100
AcDbLayout
  1
Layout1
 70
1
 71
1
 10
0.0
 20
0.0
 11
420.0
 21
297.0
 12
0.0
 22
0.0
 32
0.0
 14
1e+20
 24
1e+20
 34
1e+20
 15
-1e+20
 25
-1e+20
 35
-1e+20
146
0.0
 13
0.0
 23
0.0
 33
0.0
 16
1.0
 26
0.0
 36
0.0
 17
0.0
 27
1.0
 37
0.0
 76
1
330
1B
  0
MATERIAL
  5
1F
102
{ACAD_REACTORS
330
E
102
}
330
E
100
AcDbMaterial
  1
ByBlock
  2

 70
0
 40
1.0
 71
1
 41
1.0
 91
-1023410177
 42
1.0
 72
1
  3

 73
1
 74
1
 75
1
 44
0.5
 73
0
 45
1.0
 46
1.0
 77
1
  4

 78
1
 79
1
170
1
 48
1.0
171
1
  6

172
1
173
1
174
1
140
1.0
141
1.0
175
1
  7

176
1
177
1
178
1
143
1.0
179
1
  8

270
1
271
1
272
1
145
1.0
146
1.0
273
1
  9

274
1
275
1
276
1
 42
1.0
 72
1
  3

 73
1
 74
1
 75
1
 94
63
  0
MATERIAL
  5
20
102
{ACAD_REACTORS
330
E
102
}
330
E
100
AcDbMaterial
  1
ByLayer
  2

 70
0
 40
1.0
 71
1
 41
1.0
 91
-1023410177
 42
1.0
 72
1
  3

 73
1
 74
1
 75
1
 44
0.5
 73
0
 45
1.0
 46
1.0
 77
1
  4

 78
1
 79
1
170
1
 48
1.0
171
1
  6

172
1
173
1
174
1
140
1.0
141
1.0
175
1
  7

176
1
177
1
178
1
143
1.0
179
1
  8

270
1
271
1
272
1
145
1.0
146
1.0
273
1
  9

274
1
275
1
276
1
 42
1.0
 72
1
  3

 73
1
 74
1
 75
1
 94
63
  0
MATERIAL
  5
21
102
{ACAD_REACTORS
330
E
102
}
330
E
100
AcDbMaterial
  1
Global
  2

 70
0
 40
1.0
 71
1
 41
1.0
 91
-1023410177
 42
1.0
 72
1
  3

 73
1
 74
1
 75
1
 44
0.5
 73
0
 45
1.0
 46
1.0
 77
1
  4

 78
1
 79
1
170
1
 48
1.0
171
1
  6

172
1
173
1
174
1
140
1.0
141
1.0
175
1
  7

176
1
177
1
178
1
143
1.0
179
1
  8

270
1
271
1
272
1
145
1.0
146
1.0
273
1
  9

274
1
275
1
276
1
 42
1.0
 72
1
  3

 73
1
 74
1
 75
1
 94
63
  0
MLINESTYLE
  5
22
102
{ACAD_REACTORS
330
10
102
}
330
10
100
AcDbMlineStyle
  2
Standard
 70
0
  3

 62
256
 51
90.0
 52
90.0
 71
2
 49
0.5
 62
256
  6
BYLAYER
 49
-0.5
 62
256
  6
BYLAYER
  0
MLEADERSTYLE
  5
2C
102
{ACAD_REACTORS
330
F
102
}
330
F
100
AcDbMLeaderStyle
179
2
170
2
171
1
172
0
 90
2
 40
0.0
 41
0.0
173
1
 91
-1056964608
 92
-2
290
1
 42
2.0
291
1
 43
8.0
  3
Standard
 44
4.0
300

342
29
174
1
175
1
176
0
178
1
 93
-1056964608
 45
4.0
292
0
297
0
 46
4.0
 94
-1056964608
 47
1.0
 49
1.0
140
1.0
294
1
141
0.0
177
0
142
1.0
295
0
296
0
143
3.75
271
0
272
9
273
9
  0
DICTIONARY
  5
2D
330
A
100
AcDbDictionary
280
1
281
1
  3
CREATED_BY_EZDXF
350
2E
  3
WRITTEN_BY_EZDXF
350
32
  0
DICTIONARYVAR
  5
2E
330
2D
100
DictionaryVariables
280
0
  1
1.3.5 @ 2025-08-20T01:28:29.759661+00:00
  0
DICTIONARYVAR
  5
32
330
2D
100
DictionaryVariables
280
0
  1
1.3.5 @ 2025-08-20T01:28:29.759661+00:00
  0
ENDSEC
  0
EOF
