  0
SECTION
  2
HEADER
  9
$ACADVER
  1
AC1032
  9
$ACADMAINTVER
 90
4
  9
$DWGCODEPAGE
  3
ANSI_1252
  9
$LASTSAVEDBY
  1
ezdxf
  9
$REQUIREDVERSIONS
160
0
  9
$INSBASE
 10
0.0
 20
0.0
 30
0.0
  9
$EXTMIN
 10
1e+20
 20
1e+20
 30
1e+20
  9
$EXTMAX
 10
-1e+20
 20
-1e+20
 30
-1e+20
  9
$LIMMIN
 10
0.0
 20
0.0
  9
$LIMMAX
 10
420.0
 20
297.0
  9
$ORTHOMODE
 70
0
  9
$REGENMODE
 70
1
  9
$FILLMODE
 70
1
  9
$QTEXTMODE
 70
0
  9
$MIRRTEXT
 70
1
  9
$LTSCALE
 40
1.0
  9
$ATTMODE
 70
1
  9
$TEXTSIZE
 40
2.5
  9
$TRACEWID
 40
1.0
  9
$TEXTSTYLE
  7
Standard
  9
$CLAYER
  8
0
  9
$CELTYPE
  6
ByLayer
  9
$CECOLOR
 62
256
  9
$CELTSCALE
 40
1.0
  9
$DISPSILH
 70
0
  9
$DIMSCALE
 40
1.0
  9
$DIMASZ
 40
2.5
  9
$DIMEXO
 40
0.625
  9
$DIMDLI
 40
3.75
  9
$DIMRND
 40
0.0
  9
$DIMDLE
 40
0.0
  9
$DIMEXE
 40
1.25
  9
$DIMTP
 40
0.0
  9
$DIMTM
 40
0.0
  9
$DIMTXT
 40
2.5
  9
$DIMCEN
 40
2.5
  9
$DIMTSZ
 40
0.0
  9
$DIMTOL
 70
0
  9
$DIMLIM
 70
0
  9
$DIMTIH
 70
0
  9
$DIMTOH
 70
0
  9
$DIMSE1
 70
0
  9
$DIMSE2
 70
0
  9
$DIMTAD
 70
1
  9
$DIMZIN
 70
8
  9
$DIMBLK
  1

  9
$DIMASO
 70
1
  9
$DIMSHO
 70
1
  9
$DIMPOST
  1

  9
$DIMAPOST
  1

  9
$DIMALT
 70
0
  9
$DIMALTD
 70
3
  9
$DIMALTF
 40
0.03937007874
  9
$DIMLFAC
 40
1.0
  9
$DIMTOFL
 70
1
  9
$DIMTVP
 40
0.0
  9
$DIMTIX
 70
0
  9
$DIMSOXD
 70
0
  9
$DIMSAH
 70
0
  9
$DIMBLK1
  1

  9
$DIMBLK2
  1

  9
$DIMSTYLE
  2
ISO-25
  9
$DIMCLRD
 70
0
  9
$DIMCLRE
 70
0
  9
$DIMCLRT
 70
0
  9
$DIMTFAC
 40
1.0
  9
$DIMGAP
 40
0.625
  9
$DIMJUST
 70
0
  9
$DIMSD1
 70
0
  9
$DIMSD2
 70
0
  9
$DIMTOLJ
 70
0
  9
$DIMTZIN
 70
8
  9
$DIMALTZ
 70
0
  9
$DIMALTTZ
 70
0
  9
$DIMUPT
 70
0
  9
$DIMDEC
 70
2
  9
$DIMTDEC
 70
2
  9
$DIMALTU
 70
2
  9
$DIMALTTD
 70
3
  9
$DIMTXSTY
  7
Standard
  9
$DIMAUNIT
 70
0
  9
$DIMADEC
 70
0
  9
$DIMALTRND
 40
0.0
  9
$DIMAZIN
 70
0
  9
$DIMDSEP
 70
44
  9
$DIMATFIT
 70
3
  9
$DIMFRAC
 70
0
  9
$DIMLDRBLK
  1

  9
$DIMLUNIT
 70
2
  9
$DIMLWD
 70
-2
  9
$DIMLWE
 70
-2
  9
$DIMTMOVE
 70
0
  9
$DIMFXL
 40
1.0
  9
$DIMFXLON
 70
0
  9
$DIMJOGANG
 40
0.785398163397
  9
$DIMTFILL
 70
0
  9
$DIMTFILLCLR
 70
0
  9
$DIMARCSYM
 70
0
  9
$DIMLTYPE
  6

  9
$DIMLTEX1
  6

  9
$DIMLTEX2
  6

  9
$DIMTXTDIRECTION
 70
0
  9
$LUNITS
 70
2
  9
$LUPREC
 70
4
  9
$SKETCHINC
 40
1.0
  9
$FILLETRAD
 40
10.0
  9
$AUNITS
 70
0
  9
$AUPREC
 70
2
  9
$MENU
  1
.
  9
$ELEVATION
 40
0.0
  9
$PELEVATION
 40
0.0
  9
$THICKNESS
 40
0.0
  9
$LIMCHECK
 70
0
  9
$CHAMFERA
 40
0.0
  9
$CHAMFERB
 40
0.0
  9
$CHAMFERC
 40
0.0
  9
$CHAMFERD
 40
0.0
  9
$SKPOLY
 70
0
  9
$TDCREATE
 40
2460908.103125
  9
$TDUCREATE
 40
2458532.153996898
  9
$TDUPDATE
 40
2460908.103125
  9
$TDUUPDATE
 40
2458532.1544311
  9
$TDINDWG
 40
0.0
  9
$TDUSRTIMER
 40
0.0
  9
$USRTIMER
 70
1
  9
$ANGBASE
 50
0.0
  9
$ANGDIR
 70
0
  9
$PDMODE
 70
0
  9
$PDSIZE
 40
0.0
  9
$PLINEWID
 40
0.0
  9
$SPLFRAME
 70
0
  9
$SPLINETYPE
 70
6
  9
$SPLINESEGS
 70
8
  9
$HANDSEED
  5
33
  9
$SURFTAB1
 70
6
  9
$SURFTAB2
 70
6
  9
$SURFTYPE
 70
6
  9
$SURFU
 70
6
  9
$SURFV
 70
6
  9
$UCSBASE
  2

  9
$UCSNAME
  2

  9
$UCSORG
 10
0.0
 20
0.0
 30
0.0
  9
$UCSXDIR
 10
1.0
 20
0.0
 30
0.0
  9
$UCSYDIR
 10
0.0
 20
1.0
 30
0.0
  9
$UCSORTHOREF
  2

  9
$UCSORTHOVIEW
 70
0
  9
$UCSORGTOP
 10
0.0
 20
0.0
 30
0.0
  9
$UCSORGBOTTOM
 10
0.0
 20
0.0
 30
0.0
  9
$UCSORGLEFT
 10
0.0
 20
0.0
 30
0.0
  9
$UCSORGRIGHT
 10
0.0
 20
0.0
 30
0.0
  9
$UCSORGFRONT
 10
0.0
 20
0.0
 30
0.0
  9
$UCSORGBACK
 10
0.0
 20
0.0
 30
0.0
  9
$PUCSBASE
  2

  9
$PUCSNAME
  2

  9
$PUCSORG
 10
0.0
 20
0.0
 30
0.0
  9
$PUCSXDIR
 10
1.0
 20
0.0
 30
0.0
  9
$PUCSYDIR
 10
0.0
 20
1.0
 30
0.0
  9
$PUCSORTHOREF
  2

  9
$PUCSORTHOVIEW
 70
0
  9
$PUCSORGTOP
 10
0.0
 20
0.0
 30
0.0
  9
$PUCSORGBOTTOM
 10
0.0
 20
0.0
 30
0.0
  9
$PUCSORGLEFT
 10
0.0
 20
0.0
 30
0.0
  9
$PUCSORGRIGHT
 10
0.0
 20
0.0
 30
0.0
  9
$PUCSORGFRONT
 10
0.0
 20
0.0
 30
0.0
  9
$PUCSORGBACK
 10
0.0
 20
0.0
 30
0.0
  9
$USERI1
 70
0
  9
$USERI2
 70
0
  9
$USERI3
 70
0
  9
$USERI4
 70
0
  9
$USERI5
 70
0
  9
$USERR1
 40
0.0
  9
$USERR2
 40
0.0
  9
$USERR3
 40
0.0
  9
$USERR4
 40
0.0
  9
$USERR5
 40
0.0
  9
$WORLDVIEW
 70
1
  9
$SHADEDGE
 70
3
  9
$SHADEDIF
 70
70
  9
$TILEMODE
 70
1
  9
$MAXACTVP
 70
64
  9
$PINSBASE
 10
0.0
 20
0.0
 30
0.0
  9
$PLIMCHECK
 70
0
  9
$PEXTMIN
 10
1e+20
 20
1e+20
 30
1e+20
  9
$PEXTMAX
 10
-1e+20
 20
-1e+20
 30
-1e+20
  9
$PLIMMIN
 10
0.0
 20
0.0
  9
$PLIMMAX
 10
420.0
 20
297.0
  9
$UNITMODE
 70
0
  9
$VISRETAIN
 70
1
  9
$PLINEGEN
 70
0
  9
$PSLTSCALE
 70
1
  9
$TREEDEPTH
 70
3020
  9
$CMLSTYLE
  2
Standard
  9
$CMLJUST
 70
0
  9
$CMLSCALE
 40
20.0
  9
$PROXYGRAPHICS
 70
1
  9
$MEASUREMENT
 70
1
  9
$CELWEIGHT
370
-1
  9
$ENDCAPS
280
0
  9
$JOINSTYLE
280
0
  9
$LWDISPLAY
290
0
  9
$INSUNITS
 70
6
  9
$HYPERLINKBASE
  1

  9
$STYLESHEET
  1

  9
$XEDIT
290
1
  9
$CEPSNTYPE
380
0
  9
$PSTYLEMODE
290
1
  9
$FINGERPRINTGUID
  2
{C20E5D87-A278-46E1-A279-E1A59F29D460}
  9
$VERSIONGUID
  2
{EFBEB5C2-5106-4EC5-924D-0EB3C0A92D55}
  9
$EXTNAMES
290
1
  9
$PSVPSCALE
 40
0.0
  9
$OLESTARTUP
290
0
  9
$SORTENTS
280
127
  9
$INDEXCTL
280
0
  9
$HIDETEXT
280
1
  9
$XCLIPFRAME
280
1
  9
$HALOGAP
280
0
  9
$OBSCOLOR
 70
257
  9
$OBSLTYPE
280
0
  9
$INTERSECTIONDISPLAY
280
0
  9
$INTERSECTIONCOLOR
 70
257
  9
$DIMASSOC
280
2
  9
$PROJECTNAME
  1

  9
$CAMERADISPLAY
290
0
  9
$LENSLENGTH
 40
50.0
  9
$CAMERAHEIGHT
 40
0.0
  9
$STEPSPERSEC
 40
24.0
  9
$STEPSIZE
 40
100.0
  9
$3DDWFPREC
 40
2.0
  9
$PSOLWIDTH
 40
0.005
  9
$PSOLHEIGHT
 40
0.08
  9
$LOFTANG1
 40
1.570796326795
  9
$LOFTANG2
 40
1.570796326795
  9
$LOFTMAG1
 40
0.0
  9
$LOFTMAG2
 40
0.0
  9
$LOFTPARAM
 70
7
  9
$LOFTNORMALS
280
1
  9
$LATITUDE
 40
37.795
  9
$LONGITUDE
 40
-122.394
  9
$NORTHDIRECTION
 40
0.0
  9
$TIMEZONE
 70
-8000
  9
$LIGHTGLYPHDISPLAY
280
1
  9
$TILEMODELIGHTSYNCH
280
1
  9
$CMATERIAL
347
20
  9
$SOLIDHIST
280
0
  9
$SHOWHIST
280
1
  9
$DWFFRAME
280
2
  9
$DGNFRAME
280
2
  9
$REALWORLDSCALE
290
1
  9
$INTERFERECOLOR
 62
256
  9
$CSHADOW
280
0
  9
$SHADOWPLANELOCATION
 40
0.0
  0
ENDSEC
  0
SECTION
  2
CLASSES
  0
CLASS
  1
ACDBDICTIONARYWDFLT
  2
AcDbDictionaryWithDefault
  3
ObjectDBX Classes
 90
0
 91
0
280
0
281
0
  0
CLASS
  1
SUN
  2
AcDbSun
  3
SCENEOE
 90
1153
 91
0
280
0
281
0
  0
CLASS
  1
VISUALSTYLE
  2
AcDbVisualStyle
  3
ObjectDBX Classes
 90
4095
 91
0
280
0
281
0
  0
CLASS
  1
MATERIAL
  2
AcDbMaterial
  3
ObjectDBX Classes
 90
1153
 91
0
280
0
281
0
  0
CLASS
  1
SCALE
  2
AcDbScale
  3
ObjectDBX Classes
 90
1153
 91
0
280
0
281
0
  0
CLASS
  1
TABLESTYLE
  2
AcDbTableStyle
  3
ObjectDBX Classes
 90
4095
 91
0
280
0
281
0
  0
CLASS
  1
MLEADERSTYLE
  2
AcDbMLeaderStyle
  3
ACDB_MLEADERSTYLE_CLASS
 90
4095
 91
0
280
0
281
0
  0
CLASS
  1
DICTIONARYVAR
  2
AcDbDictionaryVar
  3
ObjectDBX Classes
 90
0
 91
0
280
0
281
0
  0
CLASS
  1
CELLSTYLEMAP
  2
AcDbCellStyleMap
  3
ObjectDBX Classes
 90
1152
 91
0
280
0
281
0
  0
CLASS
  1
MENTALRAYRENDERSETTINGS
  2
AcDbMentalRayRenderSettings
  3
SCENEOE
 90
1024
 91
0
280
0
281
0
  0
CLASS
  1
ACDBDETAILVIEWSTYLE
  2
AcDbDetailViewStyle
  3
ObjectDBX Classes
 90
1025
 91
0
280
0
281
0
  0
CLASS
  1
ACDBSECTIONVIEWSTYLE
  2
AcDbSectionViewStyle
  3
ObjectDBX Classes
 90
1025
 91
0
280
0
281
0
  0
CLASS
  1
RASTERVARIABLES
  2
AcDbRasterVariables
  3
ISM
 90
0
 91
0
280
0
281
0
  0
CLASS
  1
LAYOUT
  2
AcDbLayout
  3
ObjectDBX Classes
 90
0
 91
0
280
0
281
0
  0
CLASS
  1
ACDBPLACEHOLDER
  2
AcDbPlaceHolder
  3
ObjectDBX Classes
 90
0
 91
0
280
0
281
0
  0
ENDSEC
  0
SECTION
  2
TABLES
  0
TABLE
  2
VPORT
  5
8
330
0
100
AcDbSymbolTable
 70
1
  0
VPORT
  5
23
330
8
100
AcDbSymbolTableRecord
100
AcDbViewportTableRecord
  2
*Active
 70
0
 10
0.0
 20
0.0
 11
1.0
 21
1.0
 12
0.0
 22
0.0
 13
0.0
 23
0.0
 14
0.5
 24
0.5
 15
0.5
 25
0.5
 16
0.0
 26
0.0
 36
1.0
 17
0.0
 27
0.0
 37
0.0
 40
1000.0
 41
1.34
 42
50.0
 43
0.0
 44
0.0
 50
0.0
 51
0.0
 71
0
 72
1000
 73
1
 74
3
 75
0
 76
0
 77
0
 78
0
281
0
 65
0
146
0.0
  0
ENDTAB
  0
TABLE
  2
LTYPE
  5
2
330
0
100
AcDbSymbolTable
 70
3
  0
LTYPE
  5
24
330
2
100
AcDbSymbolTableRecord
100
AcDbLinetypeTableRecord
  2
ByBlock
 70
0
  3

 72
65
 73
0
 40
0.0
  0
LTYPE
  5
25
330
2
100
AcDbSymbolTableRecord
100
AcDbLinetypeTableRecord
  2
ByLayer
 70
0
  3

 72
65
 73
0
 40
0.0
  0
LTYPE
  5
26
330
2
100
AcDbSymbolTableRecord
100
AcDbLinetypeTableRecord
  2
Continuous
 70
0
  3

 72
65
 73
0
 40
0.0
  0
ENDTAB
  0
TABLE
  2
LAYER
  5
1
330
0
100
AcDbSymbolTable
 70
2
  0
LAYER
  5
27
330
1
100
AcDbSymbolTableRecord
100
AcDbLayerTableRecord
  2
0
 70
0
 62
7
  6
Continuous
370
-3
390
13
347
21
  0
LAYER
  5
28
330
1
100
AcDbSymbolTableRecord
100
AcDbLayerTableRecord
  2
Defpoints
 70
0
 62
7
  6
Continuous
290
0
370
-3
390
13
347
21
  0
ENDTAB
  0
TABLE
  2
STYLE
  5
5
330
0
100
AcDbSymbolTable
 70
1
  0
STYLE
  5
29
330
5
100
AcDbSymbolTableRecord
100
AcDbTextStyleTableRecord
  2
Standard
 70
0
 40
0.0
 41
1.0
 50
0.0
 71
0
 42
2.5
  3
txt
  4

  0
ENDTAB
  0
TABLE
  2
VIEW
  5
7
330
0
100
AcDbSymbolTable
 70
0
  0
ENDTAB
  0
TABLE
  2
UCS
  5
6
330
0
100
AcDbSymbolTable
 70
0
  0
ENDTAB
  0
TABLE
  2
APPID
  5
3
330
0
100
AcDbSymbolTable
 70
3
  0
APPID
  5
2A
330
3
100
AcDbSymbolTableRecord
100
AcDbRegAppTableRecord
  2
ACAD
 70
0
  0
APPID
  5
30
330
3
100
AcDbSymbolTableRecord
100
AcDbRegAppTableRecord
  2
HATCHBACKGROUNDCOLOR
 70
0
  0
APPID
  5
31
330
3
100
AcDbSymbolTableRecord
100
AcDbRegAppTableRecord
  2
EZDXF
 70
0
  0
ENDTAB
  0
TABLE
  2
DIMSTYLE
  5
4
330
0
100
AcDbSymbolTable
 70
1
100
AcDbDimStyleTable
  0
DIMSTYLE
105
2B
330
4
100
AcDbSymbolTableRecord
100
AcDbDimStyleTableRecord
  2
Standard
 70
0
 40
1.0
 41
2.5
 42
0.625
 43
3.75
 44
1.25
 45
0.0
 46
0.0
 47
0.0
 48
0.0
 49
2.5
140
2.5
141
2.5
142
0.0
143
0.03937007874
144
1.0
145
0.0
146
1.0
147
0.625
148
0.0
 69
0
 70
0
 71
0
 72
0
 73
0
 74
0
 75
0
 76
0
 77
1
 78
8
 79
3
170
0
171
3
172
1
173
0
174
0
175
0
176
0
177
0
178
0
179
2
271
2
272
2
273
2
274
3
275
0
276
0
277
2
278
44
279
0
280
0
281
0
282
0
283
0
284
8
285
0
286
0
288
0
289
3
290
0
371
-2
372
-2
  0
ENDTAB
  0
TABLE
  2
BLOCK_RECORD
  5
9
330
0
100
AcDbSymbolTable
 70
2
  0
BLOCK_RECORD
  5
17
330
9
100
AcDbSymbolTableRecord
100
AcDbBlockTableRecord
  2
*Model_Space
340
1A
 70
0
280
1
281
0
  0
BLOCK_RECORD
  5
1B
330
9
100
AcDbSymbolTableRecord
100
AcDbBlockTableRecord
  2
*Paper_Space
340
1E
 70
0
280
1
281
0
  0
ENDTAB
  0
ENDSEC
  0
SECTION
  2
BLOCKS
  0
BLOCK
  5
18
330
17
100
AcDbEntity
  8
0
100
AcDbBlockBegin
  2
*Model_Space
 70
0
 10
0.0
 20
0.0
 30
0.0
  3
*Model_Space
  1

  0
ENDBLK
  5
19
330
17
100
AcDbEntity
  8
0
100
AcDbBlockEnd
  0
BLOCK
  5
1C
330
1B
100
AcDbEntity
  8
0
100
AcDbBlockBegin
  2
*Paper_Space
 70
0
 10
0.0
 20
0.0
 30
0.0
  3
*Paper_Space
  1

  0
ENDBLK
  5
1D
330
1B
100
AcDbEntity
  8
0
100
AcDbBlockEnd
  0
ENDSEC
  0
SECTION
  2
ENTITIES
  0
LWPOLYLINE
  5
2F
330
17
100
AcDbEntity
  8
0
100
AcDbPolyline
 90
721
 70
1
 10
37.7299570527074
 20
1.4378113283456508
 10
37.728873550351466
 20
1.4381578850844632
 10
37.725626987200776
 20
1.4390848036119526
 10
37.720225237299495
 20
1.440366974786894
 10
37.71260806675547
 20
1.442114335516822
 10
37.70289397927446
 20
1.4441631625530442
 10
37.69102470898285
 20
1.4465671295976696
 10
37.67694592210414
 20
1.449267496581007
 10
37.66077022025845
 20
1.4522692735511136
 10
37.64244326966928
 20
1.4555137204382989
 10
37.621904830534476
 20
1.459110943108671
 10
37.59927144445124
 20
1.462953312560388
 10
37.57448680568455
 20
1.4670384645682337
 10
37.547548944245854
 20
1.4714227186571571
 10
37.51846180011225
 20
1.4759934357772602
 10
37.48722142936666
 20
1.4808633676174907
 10
37.4538861037927
 20
1.4859786715171663
 10
37.4183995176553
 20
1.4913369832510697
 10
37.38075970096596
 20
1.4969946223441515
 10
37.34102689155682
 20
1.5028415392498282
 10
37.299140845685756
 20
1.508987952473258
 10
37.25510550135987
 20
1.515321279284066
 10
37.20902951825221
 20
1.5219592250997342
 10
37.160745960966146
 20
1.528838039802514
 10
37.11042372897688
 20
1.5359653229437797
 10
37.0579502186943
 20
1.543336120794998
 10
37.0033817260035
 20
1.5509530791790107
 10
36.94671824893448
 20
1.558816254415342
 10
36.88795781552873
 20
1.5669820223484674
 10
36.82710041987626
 20
1.5754505519369606
 10
36.76414999998418
 20
1.5841092604504483
 10
36.69910261390542
 20
1.593070843258354
 10
36.63201652554361
 20
1.6022816829780948
 10
36.56283346311517
 20
1.6117956222703536
 10
36.4915573587172
 20
1.6215002473633309
 10
36.418240574167704
 20
1.6315106741711927
 10
36.342881133568156
 20
1.6418833911774626
 10
36.26548494294421
 20
1.652449552446343
 10
36.18599175461377
 20
1.6633194891220404
 10
36.104516140185474
 20
1.6744418917276633
 10
36.02094352017073
 20
1.6858682950182036
 10
35.93538649421966
 20
1.6976037653612437
 10
35.84778875462724
 20
1.7096459948510923
 10
35.758206599248545
 20
1.7219975729910648
 10
35.666585690367114
 20
1.7345998723505216
 10
35.572982325838005
 20
1.7474554824327775
 10
35.47733625797912
 20
1.7606747343820408
 10
35.37976205642914
 20
1.774206375040945
 10
35.28020341348304
 20
1.7880480965037973
 10
35.17866032520082
 20
1.802200011409649
 10
35.075132781732584
 20
1.8166624013561241
 10
34.969675114884815
 20
1.8314940627324388
 10
34.862232983001064
 20
1.8466364807470015
 10
34.752860715917826
 20
1.862148508108553
 10
34.64156027377375
 20
1.8779741068897693
 10
34.5283355945759
 20
1.8940006943602756
 10
34.413239032262304
 20
1.9103436117123371
 10
34.29621034112083
 20
1.9271131337706369
 10
34.177249511301554
 20
1.9443095421327994
 10
34.056418752595164
 20
1.9617664114077675
 10
33.93371608713315
 20
1.9795402863985898
 10
33.80914151097555
 20
1.9976312797443168
 10
33.68268910430679
 20
2.016208631617422
 10
33.55436871115962
 20
2.034990913351733
 10
33.42423268941201
 20
2.054093353500464
 10
33.29227906316547
 20
2.073572440547139
 10
33.15844955275646
 20
2.0934822424305435
 10
33.022858725853645
 20
2.113771562312833
 10
32.88545224277056
 20
2.134381829082892
 10
32.74623009956724
 20
2.155313155379771
 10
32.605244650181696
 20
2.176680882395735
 10
32.462503766688144
 20
2.198259957309085
 10
32.31794720337445
 20
2.2201606549445048
 10
32.17168558596225
 20
2.242444473833575
 10
32.023718908541554
 20
2.2651115829348716
 10
31.87399480338446
 20
2.288047035292803
 10
31.722511290652463
 20
2.3113074320299445
 10
31.569380969995667
 20
2.3348978395138786
 10
31.414543591762026
 20
2.358928645208337
 10
31.25800506000718
 20
2.3832310594970467
 10
31.099821670616212
 20
2.4078077282028483
 10
30.93999341767916
 20
2.432658820284317
 10
30.778516351369003
 20
2.4578972563889767
 10
30.615390465775768
 20
2.483523205475402
 10
30.450617724978038
 20
2.5094805169772183
 10
30.284312698614475
 20
2.5357179377370587
 10
30.11636080128651
 20
2.5622871714684896
 10
29.946818330849204
 20
2.589190807674827
 10
29.77574749512328
 20
2.616262477284539
 10
29.603090010505188
 20
2.643556360875458
 10
29.428896264884393
 20
2.6712440065257494
 10
29.253222556115972
 20
2.6993280037387293
 10
29.075960206796978
 20
2.72769115397264
 10
28.897227730483134
 20
2.7561694523811666
 10
28.71701723934034
 20
2.784988402342206
 10
28.535330697447147
 20
2.814091853289384
 10
28.352166126935078
 20
2.84353635002575
 10
28.167583763666304
 20
2.8732118993242457
 10
27.98158360370084
 20
2.9031186138239216
 10
27.794109333423695
 20
2.933254354577661
 10
27.605271584466447
 20
2.9636804511584693
 10
27.41501404715411
 20
2.9943946519801825
 10
27.223396959318826
 20
3.0252869074962168
 10
27.03042031308063
 20
3.0563574429846714
 10
26.8361404082646
 20
3.0876087916293384
 10
26.640498961267213
 20
3.1190951340080497
 10
26.443548331936448
 20
3.1509316423544966
 10
26.245238114652956
 20
3.1829472754662387
 10
26.045735254663292
 20
3.2152055018633994
 10
25.844935012571618
 20
3.2474765402738472
 10
25.64283540853944
 20
3.279816991820157
 10
25.439543140131214
 20
3.31240065616666
 10
25.23505622947846
 20
3.345284078116405
 10
25.029267969166753
 20
3.3782937396026864
 10
24.822407518173346
 20
3.4113265711155196
 10
24.61430792140173
 20
3.444319385732406
 10
24.405075872476356
 20
3.4774460957567266
 10
24.194653089763726
 20
3.510760825446791
 10
23.98315415078245
 20
3.5442120963671297
 10
23.770528653853155
 20
3.5776287546762555
 10
23.55682895882382
 20
3.6111259726078555
 10
23.34205111783741
 20
3.6448166144899306
 10
23.126204976896656
 20
3.6784191953367826
 10
22.90929250008014
 20
3.7118775645820374
 10
22.69141644497522
 20
3.7454781609399244
 10
22.472466162220456
 20
3.7791601617131616
 10
22.252552289357343
 20
3.812984727516181
 10
22.0316866423772
 20
3.846614053838335
 10
21.809867245381486
 20
3.8801046291631485
 10
21.587090154453158
 20
3.91356920517957
 10
21.363349449776642
 20
3.9471770220600737
 10
21.13876562671614
 20
3.9807074175162436
 10
20.91323393996585
 20
4.013930779234524
 10
20.68691740267519
 20
4.047022989506836
 10
20.45969353964148
 20
4.080261311744172
 10
20.231626538523898
 20
4.113422775752423
 10
20.002724269426665
 20
4.1462823850294175
 10
19.773095409752738
 20
4.178957338116911
 10
19.542625364253585
 20
4.211499620326094
 10
19.31142477638071
 20
4.243970223312826
 10
19.079439302507684
 20
4.276310688605041
 10
18.846729188346604
 20
4.308410741378054
 10
18.613350739632516
 20
4.340272745857084
 10
18.379247640780438
 20
4.3718946194145385
 10
18.14453250917039
 20
4.403280921542274
 10
17.909092719542393
 20
4.4344273180265334
 10
17.67303694535943
 20
4.465451120048125
 10
17.436367158580016
 20
4.496295951762572
 10
17.199093201266905
 20
4.526680440823227
 10
16.961211129503052
 20
4.556717338919039
 10
16.7228315926499
 20
4.586467468747293
 10
16.483839995458954
 20
4.6159828156191764
 10
16.244352895287307
 20
4.6451552999766506
 10
16.00437226015353
 20
4.673928658614291
 10
15.763900058076153
 20
4.702246628326672
 10
15.522932341198151
 20
4.7302220734417935
 10
15.281523453145978
 20
4.757913452431721
 10
15.039673388009641
 20
4.785320934255028
 10
14.797444365429786
 20
4.8122778119230345
 10
14.554782041779987
 20
4.838725626963674
 10
14.311744694753779
 20
4.864610367757687
 10
14.068382726030544
 20
4.890103188146565
 10
13.824633910059681
 20
4.915370964077566
 10
13.580614810108267
 20
4.940305447034071
 10
13.336284872469646
 20
4.96445394186937
 10
13.09163227130261
 20
4.9881545346917315
 10
12.846767665818565
 20
5.011467766600818
 10
12.601638676469662
 20
5.034279028558187
 10
12.35624727521441
 20
5.056531944719361
 10
12.1107001734072
 20
5.078399920512001
 10
11.864943031361555
 20
5.099824384824986
 10
11.619038066748132
 20
5.120638686989165
 10
11.372928965951939
 20
5.140840688057415
 10
11.126726388184396
 20
5.160490929129399
 10
10.880428359516976
 20
5.179645842369115
 10
10.634040791885297
 20
5.198136412882187
 10
10.387561711360844
 20
5.2160190728326175
 10
10.141045463540047
 20
5.233352224372945
 10
9.894429824842291
 20
5.2503026871309055
 10
9.647839242428796
 20
5.266536821851029
 10
9.401273716299567
 20
5.28205462853332
 10
9.154731278436044
 20
5.296912370383204
 10
8.908209954909712
 20
5.311166479564677
 10
8.661768035234067
 20
5.3247626065413325
 10
8.415347233835583
 20
5.337754988210528
 10
8.16906214990277
 20
5.350091526622024
 10
7.92291672538269
 20
5.3616595264063935
 10
7.676908990286812
 20
5.372515307088589
 10
7.431036976596573
 20
5.382715131874034
 10
7.185302654300523
 20
5.392202681237778
 10
6.9398225984856605
 20
5.400869368746056
 10
6.694536551619942
 20
5.408825807140701
 10
6.449496893251237
 20
5.416186605460153
 10
6.204657157737282
 20
5.4226680834520735
 10
5.960126038240922
 20
5.4283869891020196
 10
5.715897630706503
 20
5.433512112026263
 10
5.471921525574697
 20
5.437872523661417
 10
5.228314301872489
 20
5.441359524934664
 10
4.985072021592783
 20
5.4440856985763775
 10
4.7421423071577005
 20
5.445936379228592
 10
4.499633857640056
 20
5.447028145918293
 10
4.2574942974319665
 20
5.447246276967985
 10
4.015834293624795
 20
5.446651088199229
 10
3.7745353050829746
 20
5.44540737293169
 10
3.533713910833485
 20
5.443406432092552
 10
3.293377990830495
 20
5.440422987582017
 10
3.053525580995425
 20
5.43651318996646
 10
2.8142070889176187
 20
5.431848024128795
 10
2.5754244924655674
 20
5.426370945265974
 10
2.337179763597799
 20
5.420025577533523
 10
2.0995292238092547
 20
5.412813834600458
 10
1.8624126155678917
 20
5.404846329208611
 10
1.625882326301521
 20
5.396237445118323
 10
1.3900025554892714
 20
5.386763874218338
 10
1.1547772470482003
 20
5.376312864819708
 10
0.9202024669111828
 20
5.364996887013756
 10
0.6863327458535814
 20
5.352869048917676
 10
0.4531120834885815
 20
5.33991825677989
 10
0.22059483526256513
 20
5.326202631155308
 10
-0.011164649288068382
 20
5.311780461557427
 10
-0.24221480973409296
 20
5.296424499897903
 10
-0.47249932655056426
 20
5.28013671616528
 10
-0.7019717301552432
 20
5.263200677972844
 10
-0.930684400095987
 20
5.2455017762821585
 10
-1.1585227273343655
 20
5.226987631545358
 10
-1.3855993509202702
 20
5.207654303785355
 10
-1.6118016318038062
 20
5.187505732979234
 10
-1.8370771904371055
 20
5.166656528165439
 10
-2.061540635858609
 20
5.145159068891831
 10
-2.2851257986006592
 20
5.122733727522209
 10
-2.507731859544609
 20
5.09972236118335
 10
-2.729419078192485
 20
5.076235638936613
 10
-2.9502319541379958
 20
5.05193367364376
 10
-3.170001528806287
 20
5.026822375270415
 10
-3.388790031687933
 20
5.001068732402885
 10
-3.606599432771478
 20
4.974729064566119
 10
-3.823425792079835
 20
4.947690732710219
 10
-4.039158440551649
 20
4.920013996337217
 10
-4.253910017236821
 20
4.8916949154700315
 10
-4.467573793051074
 20
4.862906388660591
 10
-4.680145828017327
 20
4.8335357768590015
 10
-4.891624152147035
 20
4.803526760540309
 10
-5.102010735428742
 20
4.772935659229464
 10
-5.311253198314582
 20
4.741877081964909
 10
-5.519407860329505
 20
4.710349058758102
 10
-5.726358142446525
 20
4.678242890536226
 10
-5.932104044665647
 20
4.6455585772992825
 10
-6.136699916523274
 20
4.612237829533777
 10
-6.340091408483003
 20
4.578338936753206
 10
-6.542284430510454
 20
4.544030857532414
 10
-6.743224633069223
 20
4.509371881384894
 10
-6.942904136205144
 20
4.474136730210847
 10
-7.141379259443161
 20
4.438323434021733
 10
-7.33847907421989
 20
4.401881583258225
 10
-7.534322129550851
 20
4.36497619651809
 10
-7.728910395424588
 20
4.327663593326277
 10
-7.922131232791198
 20
4.289947713659871
 10
-8.113982671662146
 20
4.2517722379939205
 10
-8.304515121596753
 20
4.212966237765036
 10
-8.493680143024234
 20
4.1737569610615575
 10
-8.681483645910214
 20
4.134313366458332
 10
-8.867859460787042
 20
4.094355826319156
 10
-9.05286390717966
 20
4.053882370655486
 10
-9.236388286015254
 20
4.013009578494306
 10
-9.418488916818776
 20
3.9717354798470734
 10
-9.599167769578766
 20
3.930116394238737
 10
-9.778362614804648
 20
3.8879853330829914
 10
-9.956077392473507
 20
3.8454549354297347
 10
-10.132312102585344
 20
3.802525201278967
 10
-10.307074625094323
 20
3.759421408730488
 10
-10.480250350962008
 20
3.7160911782364296
 10
-10.651946009272669
 20
3.6723616112448605
 10
-10.82210134052427
 20
3.6281220386944235
 10
-10.990667905146038
 20
3.583599708673458
 10
-11.15770596264
 20
3.5389052902433225
 10
-11.323151313527037
 20
3.49381547529276
 10
-11.486951578259287
 20
3.4484448728602106
 10
-11.649221365875185
 20
3.4028458624935416
 10
-11.809848037324842
 20
3.3570223841698357
 10
-11.968825682642624
 20
3.310805479314243
 10
-12.126160211794163
 20
3.264364106501615
 10
-12.281853594767995
 20
3.2177545852569
 10
-12.435903861575579
 20
3.1709205960551476
 10
-12.58825469269197
 20
3.1238641088849013
 10
-12.738904118128618
 20
3.076528804221209
 10
-12.887910427399023
 20
3.028969031600482
 10
-13.035160981453284
 20
2.9811887309997998
 10
-13.180659720268478
 20
2.9333005414690643
 10
-13.324515342917433
 20
2.8851878839812923
 10
-13.466558890825285
 20
2.8368566685021084
 10
-13.606844713528451
 20
2.7882486055180227
 10
-13.7453806909811
 20
2.7395889731288317
 10
-13.882166823183226
 20
2.690877771334536
 10
-14.0171428506328
 20
2.6420043310737795
 10
-14.150306803341277
 20
2.5929123328216113
 10
-14.281713030845067
 20
2.54354348706454
 10
-14.41125874403698
 20
2.4941833314043973
 10
-14.538998292453424
 20
2.444773576327692
 10
-14.664927736117312
 20
2.395201582784525
 10
-14.788990755503699
 20
2.345469320763438
 10
-14.911191290589663
 20
2.2956894293143297
 10
-15.031525401398127
 20
2.245749269387302
 10
-15.14999505791763
 20
2.1957051605073037
 10
-15.266602230136712
 20
2.1456134221992835
 10
-15.381286658553343
 20
2.095363385401886
 10
-15.494054253133145
 20
2.0451240086899585
 10
-15.604953453446901
 20
1.9946680439751623
 10
-15.713935819923831
 20
1.9442227393458351
 10
-15.820999382575394
 20
1.8937317752770297
 10
-15.92614217141304
 20
1.843138832243795
 10
-16.02930786691183
 20
1.7924458802346739
 10
-16.13055475858525
 20
1.741707268786073
 10
-16.229832436873977
 20
1.6910939264613838
 10
-16.327136961800928
 20
1.6404932142107072
 10
-16.4224683333661
 20
1.589905132034042
 10
-16.51588484108299
 20
1.5393840294677972
 10
-16.60727187591315
 20
1.4888775269641064
 10
-16.696689697358618
 20
1.438496293584327
 10
-16.784085925871526
 20
1.3883549383668998
 10
-16.869516880976825
 20
1.3384514913232828
 10
-16.95292230317248
 20
1.2886752833921191
 10
-17.03436048197198
 20
1.2390806641098164
 10
-17.11371877832543
 20
1.1896715734534586
 10
-17.19111377125982
 20
1.14055671049586
 10
-17.266434791713777
 20
1.0917963347390551
 10
-17.33973421923518
 20
1.0432758371446023
 10
-17.411012053824013
 20
0.9949952177125019
 10
-17.480268295480293
 20
0.9469544764427538
 10
-17.547450564656156
 20
0.8992682223737989
 10
-17.61255886135158
 20
0.8519364555056371
 10
-17.67564359512591
 20
0.804788247274878
 10
-17.736654356419812
 20
0.757994526244912
 10
-17.795583265279117
 20
0.7113300143159409
 10
-17.852438201658003
 20
0.6650199895877632
 10
-17.907211285602294
 20
0.6188391739605802
 10
-17.959906457089083
 20
0.5729002064842912
 10
-18.010523716118353
 20
0.5272030871588963
 10
-18.05900477317663
 20
0.48169346644798766
 10
-18.105466207290885
 20
0.4364800434243808
 10
-18.149733149920646
 20
0.39139976947885236
 10
-18.19197849961785
 20
0.3465593736956761
 10
-18.232087647344056
 20
0.3019064765269864
 10
-18.270066503064882
 20
0.2576100365476314
 10
-18.3059674463282
 20
0.21355544471917057
 10
-18.339736127597604
 20
0.16980099055509476
 10
-18.371380426827255
 20
0.12657195215520287
 10
-18.400950753576485
 20
0.0836974009561041
 10
-18.428394728297423
 20
0.041291945996239574
 10
-18.45371629096715
 20
-0.0005317736744918875
 10
-18.476923321539836
 20
-0.0415484799562916
 10
-18.498015820015482
 20
-0.08175817284915977
 10
-18.51705404589612
 20
-0.12105018329173903
 10
-18.53393521007456
 20
-0.15913897368219787
 10
-18.54872351202992
 20
-0.1958012359092799
 10
-18.561494971172564
 20
-0.2304757447120309
 10
-18.572150738372383
 20
-0.26276432343872047
 10
-18.580778652971002
 20
-0.291767829678697
 10
-18.58746655431004
 20
-0.31658712102130926
 10
-18.592149083064587
 20
-0.3358665888906836
 10
-18.594931808473152
 20
-0.3482002151516224
 10
-18.583411682676775
 20
-0.7081757288866636
 10
-18.582241142287106
 20
-0.7110105948767986
 10
-18.57873149110663
 20
-0.7194588733222538
 10
-18.57289060908952
 20
-0.7332952861232308
 10
-18.56462868690561
 20
-0.7534752952153307
 10
-18.554016993845437
 20
-0.7811855505995784
 10
-18.541101649788214
 20
-0.8134954669900539
 10
-18.52588740485378
 20
-0.8486571691247786
 10
-18.508512507943085
 20
-0.8859424431564914
 10
-18.488962009290557
 20
-0.9241666090727098
 10
-18.467197319268113
 20
-0.9628208211603452
 10
-18.44334092686837
 20
-1.0016274217717338
 10
-18.417344392520548
 20
-1.0403591628185354
 10
-18.3892155961788
 20
-1.0787907662009515
 10
-18.358958477820227
 20
-1.116809592869083
 10
-18.326573037444813
 20
-1.1544156428229302
 10
-18.292117564566063
 20
-1.191554566526085
 10
-18.2555396796361
 20
-1.2281117549401062
 10
-18.216837412666393
 20
-1.264143527589944
 10
-18.17606905317043
 20
-1.2995955349391906
 10
-18.133174341646168
 20
-1.3345784460492027
 10
-18.08815524808216
 20
-1.3690359413950313
 10
-18.041128351505385
 20
-1.4028593219038603
 10
-17.991918783375365
 20
-1.4362116361849135
 10
-17.940697472255497
 20
-1.4690424746788668
 10
-17.88734980910734
 20
-1.501404216933586
 10
-17.831934083444377
 20
-1.533242513412663
 10
-17.774452265255157
 20
-1.5645010445911487
 10
-17.714898444574054
 20
-1.5953487690438914
 10
-17.653276561378156
 20
-1.6256730477209924
 10
-17.589578735713282
 20
-1.65569915872225
 10
-17.52381087754507
 20
-1.6852581434728149
 10
-17.456025366421386
 20
-1.7144646110111286
 10
-17.38616588281727
 20
-1.7433165913486488
 10
-17.314228486755646
 20
-1.7719267235352754
 10
-17.24027146775001
 20
-1.8002406580346
 10
-17.164292855811812
 20
-1.8283147143715723
 10
-17.08629265094105
 20
-1.856148892546192
 10
-17.006208623647158
 20
-1.8839101811447672
 10
-16.924155382968575
 20
-1.9115462006194304
 10
-16.840022259843934
 20
-1.9389966914681491
 10
-16.75392189332314
 20
-1.9662655936680071
 10
-16.66579402390417
 20
-1.9934635762803616
 10
-16.575694971111965
 20
-2.0205926092937543
 10
-16.483570385410108
 20
-2.0475944031946938
 10
-16.389480526300648
 20
-2.0743582889218226
 10
-16.293367104270082
 20
-2.100938616011549
 10
-16.195340788379777
 20
-2.127395643965906
 10
-16.09534525910477
 20
-2.1537274027963513
 10
-15.993380516445079
 20
-2.179933892502885
 10
-15.889452470366313
 20
-2.205846154510659
 10
-15.783617440393437
 20
-2.2314661588082148
 10
-15.675819107001487
 20
-2.2567919354070107
 10
-15.566109849738337
 20
-2.281938093345487
 10
-15.454489668603983
 20
-2.306904632623645
 10
-15.340966443552595
 20
-2.331466275141684
 10
-15.225592554132039
 20
-2.3557376299380475
 10
-15.108313650805904
 20
-2.379660407499243
 10
-14.989127763585651
 20
-2.40329092735022
 10
-14.86809121199623
 20
-2.4266311594795202
 10
-14.745205966026179
 20
-2.449624784362195
 10
-14.620470055686962
 20
-2.472328121523193
 10
-14.493883480978575
 20
-2.4947411709625142
 10
-14.365448211889564
 20
-2.5168076131552093
 10
-14.235218597956328
 20
-2.538585737614769
 10
-14.103194639178875
 20
-2.5600755443411947
 10
-13.969321986020795
 20
-2.581218743820994
 10
-13.833709337554906
 20
-2.6021319150811504
 10
-13.696302344244792
 20
-2.6227567686081716
 10
-13.55709903610192
 20
-2.6431496239270076
 10
-13.416157702639778
 20
-2.6632561315012504
 10
-13.273484253823991
 20
-2.6829073327560518
 10
-13.129072779688936
 20
-2.7022721862662595
 10
-12.982863020732575
 20
-2.7214613610932323
 10
-12.835025905518304
 20
-2.7404244476776456
 10
-12.685452734973305
 20
-2.7590448669925154
 10
-12.534145479086119
 20
-2.7772662995128936
 10
-12.381212836929564
 20
-2.7952053242657615
 10
-12.226596518990142
 20
-2.8129162907875283
 10
-12.070300465244946
 20
-2.8302865600282945
 10
-11.91238099521892
 20
-2.847318101976601
 10
-11.752840078900606
 20
-2.8639545971074996
 10
-11.59167180632438
 20
-2.8803650039958377
 10
-11.428880117467324
 20
-2.8964366835917166
 10
-11.26446107235236
 20
-2.9122822749450363
 10
-11.098533219995003
 20
-2.9277367594580306
 10
-10.930981951356818
 20
-2.9428525166785655
 10
-10.761863585962756
 20
-2.957631516595183
 10
-10.591232473349217
 20
-2.972132048721375
 10
-10.419036233968347
 20
-2.9862395040187
 10
-10.245327247368003
 20
-3.000068491525599
 10
-10.070163803061678
 20
-3.013564661705664
 10
-9.893437201976559
 20
-3.0266114355319127
 10
-9.715260083162542
 20
-3.039212752981429
 10
-9.535626536654002
 20
-3.0515375726290603
 10
-9.354536562450946
 20
-3.063585894474808
 10
-9.17199016055336
 20
-3.0753577185186716
 10
-8.988049560451833
 20
-3.0866860561743437
 10
-8.802718702123437
 20
-3.0974582683919256
 10
-8.615933386089065
 20
-3.107897663282673
 10
-8.427806251398609
 20
-3.1180081808236713
 10
-8.238284918504206
 20
-3.127675211976478
 10
-8.047429646907892
 20
-3.136788087679736
 10
-7.855234526644038
 20
-3.145515766508294
 10
-7.661751937260508
 20
-3.153972857500593
 10
-7.466929499209444
 20
-3.162044751618193
 10
-7.270773122456462
 20
-3.1695624902862436
 10
-7.0733915060743815
 20
-3.1766426525317297
 10
-6.874782680074661
 20
-3.1833415578795976
 10
-6.674834005407403
 20
-3.189655266352767
 10
-6.473716410635995
 20
-3.1955333683919114
 10
-6.2713775162125724
 20
-3.2008612549585918
 10
-6.067817322137137
 20
-3.205638926052807
 10
-5.863090177946091
 20
-3.2099246711880474
 10
-5.657186233696732
 20
-3.2140000879890627
 10
-5.45016771887963
 20
-3.2176981878695456
 10
-5.2419861939240056
 20
-3.220791722741155
 10
-5.032639688841316
 20
-3.223337012128842
 10
-4.8222408426814605
 20
-3.2253379960096886
 10
-4.610725455965322
 20
-3.227017982494952
 10
-4.398153788194934
 20
-3.228266302523275
 10
-4.184525839370295
 20
-3.2290829560946577
 10
-3.969845549468491
 20
-3.2293553041592
 10
-3.754110948500979
 20
-3.2291396662418532
 10
-3.5374307355405756
 20
-3.228552621369598
 10
-3.319696211514465
 20
-3.227477590515453
 10
-3.101023955449627
 20
-3.2258058746066025
 10
-2.881411997357523
 20
-3.223593793167995
 10
-2.66085836724961
 20
-3.2208976657245816
 10
-2.439308715589479
 20
-3.21765920276287
 10
-2.216935940929069
 20
-3.2137716751985863
 10
-1.9936856937319622
 20
-3.20917679351824
 10
-1.7694898345419645
 20
-3.204210504882986
 10
-1.5444629723975163
 20
-3.198820429744959
 10
-1.3186732467548168
 20
-3.1926706209430016
 10
-1.0920021085983405
 20
-3.1859260970748813
 10
-0.8645039074644979
 20
-3.1786451476540876
 10
-0.6362952223802678
 20
-3.1707190736078057
 10
-0.40726538428429976
 20
-3.162087615434003
 10
-0.17752703222648264
 20
-3.1527547131097617
 10
0.05298403327229163
 20
-3.1429436747463395
 10
0.28420755270999154
 20
-3.132543831282378
 10
0.5160773566189638
 20
-3.1212755550816724
 10
0.7486556744897749
 20
-3.1093058347305282
 10
0.9818940667516507
 20
-3.096861918317287
 10
1.2157303098239733
 20
-3.0837769862142155
 10
1.450219072381303
 20
-3.0700018726708644
 10
1.6853081561147112
 20
-3.0556563681219706
 10
1.920989686980003
 20
-3.0405153634263105
 10
2.157263668917159
 20
-3.0245789712229323
 10
2.394081662355384
 20
-3.008074439600178
 10
2.631389325638234
 20
-2.991060283349639
 10
2.8692410102721038
 20
-2.9734782692773476
 10
3.107574488736404
 20
-2.955161465116523
 10
3.3463937029782076
 20
-2.9362225662365877
 10
3.5856986608774757
 20
-2.916661797915643
 10
3.8254330409392607
 20
-2.896481073822704
 10
4.065590939107907
 20
-2.8755116043414986
 10
4.306176295360496
 20
-2.8538660285219253
 10
4.547084350601299
 20
-2.8317735644408666
 10
4.788425781771624
 20
-2.8091741778743877
 10
5.030082037885963
 20
-2.7859027939051995
 10
5.27211141239778
 20
-2.7620138747087597
 10
5.514401266257176
 20
-2.7375113602621512
 10
5.757009890947631
 20
-2.7124496564213074
 10
5.9999353184505955
 20
-2.686772499980804
 10
6.243066879704708
 20
-2.6605401504426727
 10
6.486464834212005
 20
-2.6338632768682717
 10
6.730127217893907
 20
-2.6066857286912266
 10
6.973939415802008
 20
-2.578954957405096
 10
7.2179597213897795
 20
-2.550725425185338
 10
7.462135755109353
 20
-2.5221117410703937
 10
7.7065159585014955
 20
-2.4928867132914476
 10
7.950991628553422
 20
-2.4631668082364317
 10
8.19556670524221
 20
-2.433064664955247
 10
8.440239220549316
 20
-2.4025240202424665
 10
8.685005234497643
 20
-2.371432235048194
 10
8.92986868903427
 20
-2.339902004741851
 10
9.17472087523644
 20
-2.308049626752797
 10
9.419614176591994
 20
-2.2757606046816394
 10
9.664498183541609
 20
-2.24320586709177
 10
9.909366982179678
 20
-2.2102163427692902
 10
10.154218604487657
 20
-2.176735768508775
 10
10.39905699044262
 20
-2.142876783360124
 10
10.643775399140361
 20
-2.108811947958119
 10
10.888430156015806
 20
-2.0745394612727934
 10
11.132959027638398
 20
-2.03989222207879
 10
11.3773639800567
 20
-2.0049264372620095
 10
11.621645015240697
 20
-1.9696421631419758
 10
11.86580409923896
 20
-1.9340956066045891
 10
12.109726613163105
 20
-1.898234106504358
 10
12.35347085243659
 20
-1.8621121813362664
 10
12.596982455703067
 20
-1.8257877826966546
 10
12.840321692314525
 20
-1.789371861244506
 10
13.083368025536982
 20
-1.7526425719813805
 10
13.326123427328994
 20
-1.715656290751752
 10
13.5686540671582
 20
-1.6786926451918278
 10
13.810835476193512
 20
-1.6414173765313687
 10
14.052665678536426
 20
-1.6037739962868502
 10
14.294212819553103
 20
-1.5660986205780034
 10
14.535368184410821
 20
-1.5285073778756106
 10
14.77617627664326
 20
-1.4906604936804833
 10
15.016582738834046
 20
-1.4526160322280122
 10
15.256531239638322
 20
-1.41437562558959
 10
15.496082044468066
 20
-1.3760501117851485
 10
15.735180793936921
 20
-1.3376974987305548
 10
15.97382945212349
 20
-1.2993739369921828
 10
16.211967753615756
 20
-1.2609685885501014
 10
16.449591750556678
 20
-1.2223685890763107
 10
16.686707350941912
 20
-1.1837428408261343
 10
16.923314552801443
 20
-1.1450912874800487
 10
17.159302665404066
 20
-1.1064735690253107
 10
17.394784341589578
 20
-1.0678861397215131
 10
17.629641012642583
 20
-1.0291634177756401
 10
17.863874644611645
 20
-0.9903616100735918
 10
18.097495079559504
 20
-0.9517620889620162
 10
18.33050034946763
 20
-0.9133085912354884
 10
18.562773849699177
 20
-0.8748916856673692
 10
18.7944302030825
 20
-0.8365641460421983
 10
19.025354778909286
 20
-0.7982729732973363
 10
19.255603900644473
 20
-0.7600163100832905
 10
19.485125174950266
 20
-0.7219083712018273
 10
19.713862268511797
 20
-0.6839507324048137
 10
19.94187544674107
 20
-0.6462542317121825
 10
20.169046135012696
 20
-0.608653118372344
 10
20.39548698616651
 20
-0.5711438466448886
 10
20.621083369494183
 20
-0.5336734174671769
 10
20.845847095077026
 20
-0.4965794663912812
 10
21.069721831570174
 20
-0.45986362548859283
 10
21.292808411882174
 20
-0.4231844318690063
 10
21.51493587198986
 20
-0.38649046222174815
 10
21.736232624641367
 20
-0.3502287270060058
 10
21.956584037158404
 20
-0.31434617083961375
 10
22.17598221973686
 20
-0.2786172340251495
 10
22.394427168436746
 20
-0.2430418039235628
 10
22.611920847336666
 20
-0.20767603110122787
 10
22.82847310243931
 20
-0.17280140054384396
 10
23.043967323197926
 20
-0.13830831206619476
 10
23.258510258396633
 20
-0.10402443031159885
 10
23.471989237465742
 20
-0.06995279414473968
 10
23.684408194472358
 20
-0.03620587365694181
 10
23.895771065453587
 20
-0.0028961952590544136
 10
24.106073902552396
 20
0.030089105376921103
 10
24.315260366543946
 20
0.06274862145769261
 10
24.52339072481022
 20
0.0949714586438032
 10
24.73035230678153
 20
0.12675457807056872
 10
24.936195529897116
 20
0.158268683023279
 10
25.140807719647306
 20
0.1895108472763003
 10
25.344361808073835
 20
0.22037338431343448
 10
25.54663639795433
 20
0.25073746471636377
 10
25.747744150008568
 20
0.2806064089473972
 10
25.94768308636805
 20
0.31003676180958434
 10
26.146336596485963
 20
0.33913812348813943
 10
26.343706640500933
 20
0.36785445605573847
 10
26.539907847151266
 20
0.39613281676926526
 10
26.73477318451092
 20
0.4239122151676944
 10
26.928362916021896
 20
0.45108186955061813
 10
27.120614792493747
 20
0.4778093316995934
 10
27.31158316937283
 20
0.5041527221695361
 10
27.50121367742285
 20
0.5300543146422045
 10
27.689506308763864
 20
0.5555143343956984
 10
27.87641063216668
 20
0.5803624723814024
 10
28.061977067040555
 20
0.6047693755650816
 10
28.24609490689434
 20
0.6286758545156769
 10
28.428816537185874
 20
0.6521963493130546
 10
28.610147863940817
 20
0.6751620140214158
 10
28.790034513982892
 20
0.6975152349615686
 10
28.96847056946651
 20
0.7194251959864616
 10
29.14545602448172
 20
0.7408920660546696
 10
29.32099087114856
 20
0.7619160704442924
 10
29.494966374934418
 20
0.7823816438797961
 10
29.66749913653615
 20
0.8021794677735912
 10
29.838522964816235
 20
0.8215897892766579
 10
30.007983488568378
 20
0.8405549383902792
 10
30.175937033227505
 20
0.8590767161444223
 10
30.342331197575863
 20
0.8770411330154204
 10
30.5071076704301
 20
0.8945031580544562
 10
30.670377144491425
 20
0.9115223749292628
 10
30.8320328512758
 20
0.9279270114784076
 10
30.992070844896173
 20
0.943829875710364
 10
31.15049308943113
 20
0.9591748170587582
 10
31.307293665065092
 20
0.9741310756960626
 10
31.46247650586518
 20
0.9885861815309533
 10
31.615985268666574
 20
1.0025388404091886
 10
31.767821917547874
 20
1.0159329017643925
 10
31.91804081189539
 20
1.0288263735124321
 10
32.066527303270945
 20
1.0412727615916733
 10
32.213281381824586
 20
1.0532723475997396
 10
32.358361348889744
 20
1.064770444083074
 10
32.50176917642494
 20
1.0757106751972025
 10
32.64338631738463
 20
1.0862580032203646
 10
32.78326892187476
 20
1.0964192416202476
 10
32.92142309094984
 20
1.1060199688280836
 10
33.05779044053693
 20
1.1151172377174774
 10
33.192367026718976
 20
1.1238237999773777
 10
33.32521311884794
 20
1.1320287049488027
 10
33.45621800649271
 20
1.1396728758397439
 10
33.58543407905111
 20
1.146870640091016
 10
33.712859360624606
 20
1.1536784861861447
 10
33.838437510018395
 20
1.1600950636513623
 10
33.96217246129959
 20
1.1660079023953447
 10
34.084062234629705
 20
1.1714736035406657
 10
34.204102886091675
 20
1.1766049187762746
 10
34.32229637779409
 20
1.1813457538553218
 10
34.43859031048921
 20
1.1855820629346157
 10
34.55298467432708
 20
1.189314127611781
 10
34.665527922668396
 20
1.192768801738483
 10
34.77616568036691
 20
1.1958885279550548
 10
34.88489794545264
 20
1.1986733625810222
 10
34.991726678064175
 20
1.2010672676890592
 10
35.09659553897667
 20
1.2030688364858737
 10
35.19956085559505
 20
1.2046798136819081
 10
35.30056235068738
 20
1.2060113752142443
 10
35.399603954380794
 20
1.2069511636306078
 10
35.49668172275822
 20
1.2076119306199475
 10
35.591855927141644
 20
1.2078826692037565
 10
35.68500994910431
 20
1.2078732048453493
 10
35.77619815000255
 20
1.2076414891410674
 10
35.86536615863008
 20
1.2071298520921945
 10
35.95257227632033
 20
1.2062836062451723
 10
36.037756206141474
 20
1.2052144907323323
 10
36.12097820956555
 20
1.203811780172793
 10
36.20211982228653
 20
1.2022380714247463
 10
36.28129552726358
 20
1.2004445893899225
 10
36.3583927051467
 20
1.198426830895989
 10
36.43346768728077
 20
1.1961864280143382
 10
36.506520469725814
 20
1.193723493384019
 10
36.57754907658332
 20
1.1910945154885568
 10
36.646499140586975
 20
1.1882417116901844
 10
36.71336671387975
 20
1.1852779463169005
 10
36.778210103705035
 20
1.1821483629565734
 10
36.84097099493949
 20
1.1789080432994348
 10
36.901651355601665
 20
1.1755007241400603
 10
36.960249213733015
 20
1.1719827813229238
 10
37.01676653341214
 20
1.1682980642816514
 10
37.07120134268051
 20
1.1645029488607173
 10
37.12354969959103
 20
1.1607101304295453
 10
37.173759200955985
 20
1.1568056757839944
 10
37.22194055129652
 20
1.1528488306746483
 10
37.267922762949595
 20
1.14889169424658
 10
37.311876817668285
 20
1.1448823363132914
 10
37.35369003700294
 20
1.1408179432881977
 10
37.393358479006466
 20
1.1368112105407235
 10
37.43094044895227
 20
1.132807337978261
 10
37.46637960564553
 20
1.1288049751270435
 10
37.49967200910915
 20
1.1249167610369695
 10
37.53087793263509
 20
1.121031632410007
 10
37.55993709899143
 20
1.117260765183238
 10
37.586851474226734
 20
1.1135479524707634
 10
37.6116171183639
 20
1.1100058333224816
 10
37.63423600139149
 20
1.1065780882134435
 10
37.654762486635825
 20
1.1033226124204654
 10
37.67308389761721
 20
1.100236536037438
 10
37.68925460357197
 20
1.0973775853826035
 10
37.703330939784934
 20
1.0947472798883033
 10
37.715200229776414
 20
1.0923427496484286
 10
37.72491486885422
 20
1.0902781531452208
 10
37.73253317017167
 20
1.0884984650079716
 10
37.73793850939207
 20
1.0871136796585719
 10
37.74118526166168
 20
1.0861813544566874
 10
37.74226948109342
 20
1.0858142974107934
  0
ENDSEC
  0
SECTION
  2
OBJECTS
  0
DICTIONARY
  5
A
330
0
100
AcDbDictionary
280
0
281
1
  3
ACAD_COLOR
350
B
  3
ACAD_GROUP
350
C
  3
ACAD_LAYOUT
350
D
  3
ACAD_MATERIAL
350
E
  3
ACAD_MLEADERSTYLE
350
F
  3
ACAD_MLINESTYLE
350
10
  3
ACAD_PLOTSETTINGS
350
11
  3
ACAD_PLOTSTYLENAME
350
12
  3
ACAD_SCALELIST
350
14
  3
ACAD_TABLESTYLE
350
15
  3
ACAD_VISUALSTYLE
350
16
  3
EZDXF_META
350
2D
  0
DICTIONARY
  5
B
330
A
100
AcDbDictionary
280
0
281
1
  0
DICTIONARY
  5
C
330
A
100
AcDbDictionary
280
0
281
1
  0
DICTIONARY
  5
D
330
A
100
AcDbDictionary
280
0
281
1
  3
Model
350
1A
  3
Layout1
350
1E
  0
DICTIONARY
  5
E
330
A
100
AcDbDictionary
280
0
281
1
  3
ByBlock
350
1F
  3
ByLayer
350
20
  3
Global
350
21
  0
DICTIONARY
  5
F
330
A
100
AcDbDictionary
280
0
281
1
  3
Standard
350
2C
  0
DICTIONARY
  5
10
330
A
100
AcDbDictionary
280
0
281
1
  3
Standard
350
22
  0
DICTIONARY
  5
11
330
A
100
AcDbDictionary
280
0
281
1
  0
ACDBDICTIONARYWDFLT
  5
12
330
A
100
AcDbDictionary
280
0
281
1
  3
Normal
350
13
100
AcDbDictionaryWithDefault
340
13
  0
ACDBPLACEHOLDER
  5
13
330
12
  0
DICTIONARY
  5
14
330
A
100
AcDbDictionary
280
0
281
1
  0
DICTIONARY
  5
15
330
A
100
AcDbDictionary
280
0
281
1
  0
DICTIONARY
  5
16
330
A
100
AcDbDictionary
280
0
281
1
  0
LAYOUT
  5
1A
330
D
100
AcDbPlotSettings
  1

  4
A3
  6

 40
7.5
 41
20.0
 42
7.5
 43
20.0
 44
420.0
 45
297.0
 46
0.0
 47
0.0
 48
0.0
 49
0.0
140
0.0
141
0.0
142
1.0
143
1.0
 70
1024
 72
1
 73
0
 74
5
  7

 75
16
 76
0
 77
2
 78
300
147
1.0
148
0.0
149
0.0
100
AcDbLayout
  1
Model
 70
1
 71
0
 10
0.0
 20
0.0
 11
420.0
 21
297.0
 12
0.0
 22
0.0
 32
0.0
 14
1e+20
 24
1e+20
 34
1e+20
 15
-1e+20
 25
-1e+20
 35
-1e+20
146
0.0
 13
0.0
 23
0.0
 33
0.0
 16
1.0
 26
0.0
 36
0.0
 17
0.0
 27
1.0
 37
0.0
 76
1
330
17
  0
LAYOUT
  5
1E
330
D
100
AcDbPlotSettings
  1

  4
A3
  6

 40
7.5
 41
20.0
 42
7.5
 43
20.0
 44
420.0
 45
297.0
 46
0.0
 47
0.0
 48
0.0
 49
0.0
140
0.0
141
0.0
142
1.0
143
1.0
 70
0
 72
1
 73
0
 74
5
  7

 75
16
 76
0
 77
2
 78
300
147
1.0
148
0.0
149
0.0
100
AcDbLayout
  1
Layout1
 70
1
 71
1
 10
0.0
 20
0.0
 11
420.0
 21
297.0
 12
0.0
 22
0.0
 32
0.0
 14
1e+20
 24
1e+20
 34
1e+20
 15
-1e+20
 25
-1e+20
 35
-1e+20
146
0.0
 13
0.0
 23
0.0
 33
0.0
 16
1.0
 26
0.0
 36
0.0
 17
0.0
 27
1.0
 37
0.0
 76
1
330
1B
  0
MATERIAL
  5
1F
102
{ACAD_REACTORS
330
E
102
}
330
E
100
AcDbMaterial
  1
ByBlock
  2

 70
0
 40
1.0
 71
1
 41
1.0
 91
-1023410177
 42
1.0
 72
1
  3

 73
1
 74
1
 75
1
 44
0.5
 73
0
 45
1.0
 46
1.0
 77
1
  4

 78
1
 79
1
170
1
 48
1.0
171
1
  6

172
1
173
1
174
1
140
1.0
141
1.0
175
1
  7

176
1
177
1
178
1
143
1.0
179
1
  8

270
1
271
1
272
1
145
1.0
146
1.0
273
1
  9

274
1
275
1
276
1
 42
1.0
 72
1
  3

 73
1
 74
1
 75
1
 94
63
  0
MATERIAL
  5
20
102
{ACAD_REACTORS
330
E
102
}
330
E
100
AcDbMaterial
  1
ByLayer
  2

 70
0
 40
1.0
 71
1
 41
1.0
 91
-1023410177
 42
1.0
 72
1
  3

 73
1
 74
1
 75
1
 44
0.5
 73
0
 45
1.0
 46
1.0
 77
1
  4

 78
1
 79
1
170
1
 48
1.0
171
1
  6

172
1
173
1
174
1
140
1.0
141
1.0
175
1
  7

176
1
177
1
178
1
143
1.0
179
1
  8

270
1
271
1
272
1
145
1.0
146
1.0
273
1
  9

274
1
275
1
276
1
 42
1.0
 72
1
  3

 73
1
 74
1
 75
1
 94
63
  0
MATERIAL
  5
21
102
{ACAD_REACTORS
330
E
102
}
330
E
100
AcDbMaterial
  1
Global
  2

 70
0
 40
1.0
 71
1
 41
1.0
 91
-1023410177
 42
1.0
 72
1
  3

 73
1
 74
1
 75
1
 44
0.5
 73
0
 45
1.0
 46
1.0
 77
1
  4

 78
1
 79
1
170
1
 48
1.0
171
1
  6

172
1
173
1
174
1
140
1.0
141
1.0
175
1
  7

176
1
177
1
178
1
143
1.0
179
1
  8

270
1
271
1
272
1
145
1.0
146
1.0
273
1
  9

274
1
275
1
276
1
 42
1.0
 72
1
  3

 73
1
 74
1
 75
1
 94
63
  0
MLINESTYLE
  5
22
102
{ACAD_REACTORS
330
10
102
}
330
10
100
AcDbMlineStyle
  2
Standard
 70
0
  3

 62
256
 51
90.0
 52
90.0
 71
2
 49
0.5
 62
256
  6
BYLAYER
 49
-0.5
 62
256
  6
BYLAYER
  0
MLEADERSTYLE
  5
2C
102
{ACAD_REACTORS
330
F
102
}
330
F
100
AcDbMLeaderStyle
179
2
170
2
171
1
172
0
 90
2
 40
0.0
 41
0.0
173
1
 91
-1056964608
 92
-2
290
1
 42
2.0
291
1
 43
8.0
  3
Standard
 44
4.0
300

342
29
174
1
175
1
176
0
178
1
 93
-1056964608
 45
4.0
292
0
297
0
 46
4.0
 94
-1056964608
 47
1.0
 49
1.0
140
1.0
294
1
141
0.0
177
0
142
1.0
295
0
296
0
143
3.75
271
0
272
9
273
9
  0
DICTIONARY
  5
2D
330
A
100
AcDbDictionary
280
1
281
1
  3
CREATED_BY_EZDXF
350
2E
  3
WRITTEN_BY_EZDXF
350
32
  0
DICTIONARYVAR
  5
2E
330
2D
100
DictionaryVariables
280
0
  1
1.3.5 @ 2025-08-20T01:28:30.371717+00:00
  0
DICTIONARYVAR
  5
32
330
2D
100
DictionaryVariables
280
0
  1
1.3.5 @ 2025-08-20T01:28:30.371717+00:00
  0
ENDSEC
  0
EOF
