  0
SECTION
  2
HEADER
  9
$ACADVER
  1
AC1032
  9
$ACADMAINTVER
 90
4
  9
$DWGCODEPAGE
  3
ANSI_1252
  9
$LASTSAVEDBY
  1
ezdxf
  9
$REQUIREDVERSIONS
160
0
  9
$INSBASE
 10
0.0
 20
0.0
 30
0.0
  9
$EXTMIN
 10
1e+20
 20
1e+20
 30
1e+20
  9
$EXTMAX
 10
-1e+20
 20
-1e+20
 30
-1e+20
  9
$LIMMIN
 10
0.0
 20
0.0
  9
$LIMMAX
 10
420.0
 20
297.0
  9
$ORTHOMODE
 70
0
  9
$REGENMODE
 70
1
  9
$FILLMODE
 70
1
  9
$QTEXTMODE
 70
0
  9
$MIRRTEXT
 70
1
  9
$LTSCALE
 40
1.0
  9
$ATTMODE
 70
1
  9
$TEXTSIZE
 40
2.5
  9
$TRACEWID
 40
1.0
  9
$TEXTSTYLE
  7
Standard
  9
$CLAYER
  8
0
  9
$CELTYPE
  6
ByLayer
  9
$CECOLOR
 62
256
  9
$CELTSCALE
 40
1.0
  9
$DISPSILH
 70
0
  9
$DIMSCALE
 40
1.0
  9
$DIMASZ
 40
2.5
  9
$DIMEXO
 40
0.625
  9
$DIMDLI
 40
3.75
  9
$DIMRND
 40
0.0
  9
$DIMDLE
 40
0.0
  9
$DIMEXE
 40
1.25
  9
$DIMTP
 40
0.0
  9
$DIMTM
 40
0.0
  9
$DIMTXT
 40
2.5
  9
$DIMCEN
 40
2.5
  9
$DIMTSZ
 40
0.0
  9
$DIMTOL
 70
0
  9
$DIMLIM
 70
0
  9
$DIMTIH
 70
0
  9
$DIMTOH
 70
0
  9
$DIMSE1
 70
0
  9
$DIMSE2
 70
0
  9
$DIMTAD
 70
1
  9
$DIMZIN
 70
8
  9
$DIMBLK
  1

  9
$DIMASO
 70
1
  9
$DIMSHO
 70
1
  9
$DIMPOST
  1

  9
$DIMAPOST
  1

  9
$DIMALT
 70
0
  9
$DIMALTD
 70
3
  9
$DIMALTF
 40
0.03937007874
  9
$DIMLFAC
 40
1.0
  9
$DIMTOFL
 70
1
  9
$DIMTVP
 40
0.0
  9
$DIMTIX
 70
0
  9
$DIMSOXD
 70
0
  9
$DIMSAH
 70
0
  9
$DIMBLK1
  1

  9
$DIMBLK2
  1

  9
$DIMSTYLE
  2
ISO-25
  9
$DIMCLRD
 70
0
  9
$DIMCLRE
 70
0
  9
$DIMCLRT
 70
0
  9
$DIMTFAC
 40
1.0
  9
$DIMGAP
 40
0.625
  9
$DIMJUST
 70
0
  9
$DIMSD1
 70
0
  9
$DIMSD2
 70
0
  9
$DIMTOLJ
 70
0
  9
$DIMTZIN
 70
8
  9
$DIMALTZ
 70
0
  9
$DIMALTTZ
 70
0
  9
$DIMUPT
 70
0
  9
$DIMDEC
 70
2
  9
$DIMTDEC
 70
2
  9
$DIMALTU
 70
2
  9
$DIMALTTD
 70
3
  9
$DIMTXSTY
  7
Standard
  9
$DIMAUNIT
 70
0
  9
$DIMADEC
 70
0
  9
$DIMALTRND
 40
0.0
  9
$DIMAZIN
 70
0
  9
$DIMDSEP
 70
44
  9
$DIMATFIT
 70
3
  9
$DIMFRAC
 70
0
  9
$DIMLDRBLK
  1

  9
$DIMLUNIT
 70
2
  9
$DIMLWD
 70
-2
  9
$DIMLWE
 70
-2
  9
$DIMTMOVE
 70
0
  9
$DIMFXL
 40
1.0
  9
$DIMFXLON
 70
0
  9
$DIMJOGANG
 40
0.785398163397
  9
$DIMTFILL
 70
0
  9
$DIMTFILLCLR
 70
0
  9
$DIMARCSYM
 70
0
  9
$DIMLTYPE
  6

  9
$DIMLTEX1
  6

  9
$DIMLTEX2
  6

  9
$DIMTXTDIRECTION
 70
0
  9
$LUNITS
 70
2
  9
$LUPREC
 70
4
  9
$SKETCHINC
 40
1.0
  9
$FILLETRAD
 40
10.0
  9
$AUNITS
 70
0
  9
$AUPREC
 70
2
  9
$MENU
  1
.
  9
$ELEVATION
 40
0.0
  9
$PELEVATION
 40
0.0
  9
$THICKNESS
 40
0.0
  9
$LIMCHECK
 70
0
  9
$CHAMFERA
 40
0.0
  9
$CHAMFERB
 40
0.0
  9
$CHAMFERC
 40
0.0
  9
$CHAMFERD
 40
0.0
  9
$SKPOLY
 70
0
  9
$TDCREATE
 40
2460908.103113426
  9
$TDUCREATE
 40
2458532.153996898
  9
$TDUPDATE
 40
2460908.103113426
  9
$TDUUPDATE
 40
2458532.1544311
  9
$TDINDWG
 40
0.0
  9
$TDUSRTIMER
 40
0.0
  9
$USRTIMER
 70
1
  9
$ANGBASE
 50
0.0
  9
$ANGDIR
 70
0
  9
$PDMODE
 70
0
  9
$PDSIZE
 40
0.0
  9
$PLINEWID
 40
0.0
  9
$SPLFRAME
 70
0
  9
$SPLINETYPE
 70
6
  9
$SPLINESEGS
 70
8
  9
$HANDSEED
  5
33
  9
$SURFTAB1
 70
6
  9
$SURFTAB2
 70
6
  9
$SURFTYPE
 70
6
  9
$SURFU
 70
6
  9
$SURFV
 70
6
  9
$UCSBASE
  2

  9
$UCSNAME
  2

  9
$UCSORG
 10
0.0
 20
0.0
 30
0.0
  9
$UCSXDIR
 10
1.0
 20
0.0
 30
0.0
  9
$UCSYDIR
 10
0.0
 20
1.0
 30
0.0
  9
$UCSORTHOREF
  2

  9
$UCSORTHOVIEW
 70
0
  9
$UCSORGTOP
 10
0.0
 20
0.0
 30
0.0
  9
$UCSORGBOTTOM
 10
0.0
 20
0.0
 30
0.0
  9
$UCSORGLEFT
 10
0.0
 20
0.0
 30
0.0
  9
$UCSORGRIGHT
 10
0.0
 20
0.0
 30
0.0
  9
$UCSORGFRONT
 10
0.0
 20
0.0
 30
0.0
  9
$UCSORGBACK
 10
0.0
 20
0.0
 30
0.0
  9
$PUCSBASE
  2

  9
$PUCSNAME
  2

  9
$PUCSORG
 10
0.0
 20
0.0
 30
0.0
  9
$PUCSXDIR
 10
1.0
 20
0.0
 30
0.0
  9
$PUCSYDIR
 10
0.0
 20
1.0
 30
0.0
  9
$PUCSORTHOREF
  2

  9
$PUCSORTHOVIEW
 70
0
  9
$PUCSORGTOP
 10
0.0
 20
0.0
 30
0.0
  9
$PUCSORGBOTTOM
 10
0.0
 20
0.0
 30
0.0
  9
$PUCSORGLEFT
 10
0.0
 20
0.0
 30
0.0
  9
$PUCSORGRIGHT
 10
0.0
 20
0.0
 30
0.0
  9
$PUCSORGFRONT
 10
0.0
 20
0.0
 30
0.0
  9
$PUCSORGBACK
 10
0.0
 20
0.0
 30
0.0
  9
$USERI1
 70
0
  9
$USERI2
 70
0
  9
$USERI3
 70
0
  9
$USERI4
 70
0
  9
$USERI5
 70
0
  9
$USERR1
 40
0.0
  9
$USERR2
 40
0.0
  9
$USERR3
 40
0.0
  9
$USERR4
 40
0.0
  9
$USERR5
 40
0.0
  9
$WORLDVIEW
 70
1
  9
$SHADEDGE
 70
3
  9
$SHADEDIF
 70
70
  9
$TILEMODE
 70
1
  9
$MAXACTVP
 70
64
  9
$PINSBASE
 10
0.0
 20
0.0
 30
0.0
  9
$PLIMCHECK
 70
0
  9
$PEXTMIN
 10
1e+20
 20
1e+20
 30
1e+20
  9
$PEXTMAX
 10
-1e+20
 20
-1e+20
 30
-1e+20
  9
$PLIMMIN
 10
0.0
 20
0.0
  9
$PLIMMAX
 10
420.0
 20
297.0
  9
$UNITMODE
 70
0
  9
$VISRETAIN
 70
1
  9
$PLINEGEN
 70
0
  9
$PSLTSCALE
 70
1
  9
$TREEDEPTH
 70
3020
  9
$CMLSTYLE
  2
Standard
  9
$CMLJUST
 70
0
  9
$CMLSCALE
 40
20.0
  9
$PROXYGRAPHICS
 70
1
  9
$MEASUREMENT
 70
1
  9
$CELWEIGHT
370
-1
  9
$ENDCAPS
280
0
  9
$JOINSTYLE
280
0
  9
$LWDISPLAY
290
0
  9
$INSUNITS
 70
6
  9
$HYPERLINKBASE
  1

  9
$STYLESHEET
  1

  9
$XEDIT
290
1
  9
$CEPSNTYPE
380
0
  9
$PSTYLEMODE
290
1
  9
$FINGERPRINTGUID
  2
{864D2E44-BC57-4B6C-8BF5-80AD7889E1D1}
  9
$VERSIONGUID
  2
{3F2923C2-7CA2-446C-879C-F59F4C514E62}
  9
$EXTNAMES
290
1
  9
$PSVPSCALE
 40
0.0
  9
$OLESTARTUP
290
0
  9
$SORTENTS
280
127
  9
$INDEXCTL
280
0
  9
$HIDETEXT
280
1
  9
$XCLIPFRAME
280
1
  9
$HALOGAP
280
0
  9
$OBSCOLOR
 70
257
  9
$OBSLTYPE
280
0
  9
$INTERSECTIONDISPLAY
280
0
  9
$INTERSECTIONCOLOR
 70
257
  9
$DIMASSOC
280
2
  9
$PROJECTNAME
  1

  9
$CAMERADISPLAY
290
0
  9
$LENSLENGTH
 40
50.0
  9
$CAMERAHEIGHT
 40
0.0
  9
$STEPSPERSEC
 40
24.0
  9
$STEPSIZE
 40
100.0
  9
$3DDWFPREC
 40
2.0
  9
$PSOLWIDTH
 40
0.005
  9
$PSOLHEIGHT
 40
0.08
  9
$LOFTANG1
 40
1.570796326795
  9
$LOFTANG2
 40
1.570796326795
  9
$LOFTMAG1
 40
0.0
  9
$LOFTMAG2
 40
0.0
  9
$LOFTPARAM
 70
7
  9
$LOFTNORMALS
280
1
  9
$LATITUDE
 40
37.795
  9
$LONGITUDE
 40
-122.394
  9
$NORTHDIRECTION
 40
0.0
  9
$TIMEZONE
 70
-8000
  9
$LIGHTGLYPHDISPLAY
280
1
  9
$TILEMODELIGHTSYNCH
280
1
  9
$CMATERIAL
347
20
  9
$SOLIDHIST
280
0
  9
$SHOWHIST
280
1
  9
$DWFFRAME
280
2
  9
$DGNFRAME
280
2
  9
$REALWORLDSCALE
290
1
  9
$INTERFERECOLOR
 62
256
  9
$CSHADOW
280
0
  9
$SHADOWPLANELOCATION
 40
0.0
  0
ENDSEC
  0
SECTION
  2
CLASSES
  0
CLASS
  1
ACDBDICTIONARYWDFLT
  2
AcDbDictionaryWithDefault
  3
ObjectDBX Classes
 90
0
 91
0
280
0
281
0
  0
CLASS
  1
SUN
  2
AcDbSun
  3
SCENEOE
 90
1153
 91
0
280
0
281
0
  0
CLASS
  1
VISUALSTYLE
  2
AcDbVisualStyle
  3
ObjectDBX Classes
 90
4095
 91
0
280
0
281
0
  0
CLASS
  1
MATERIAL
  2
AcDbMaterial
  3
ObjectDBX Classes
 90
1153
 91
0
280
0
281
0
  0
CLASS
  1
SCALE
  2
AcDbScale
  3
ObjectDBX Classes
 90
1153
 91
0
280
0
281
0
  0
CLASS
  1
TABLESTYLE
  2
AcDbTableStyle
  3
ObjectDBX Classes
 90
4095
 91
0
280
0
281
0
  0
CLASS
  1
MLEADERSTYLE
  2
AcDbMLeaderStyle
  3
ACDB_MLEADERSTYLE_CLASS
 90
4095
 91
0
280
0
281
0
  0
CLASS
  1
DICTIONARYVAR
  2
AcDbDictionaryVar
  3
ObjectDBX Classes
 90
0
 91
0
280
0
281
0
  0
CLASS
  1
CELLSTYLEMAP
  2
AcDbCellStyleMap
  3
ObjectDBX Classes
 90
1152
 91
0
280
0
281
0
  0
CLASS
  1
MENTALRAYRENDERSETTINGS
  2
AcDbMentalRayRenderSettings
  3
SCENEOE
 90
1024
 91
0
280
0
281
0
  0
CLASS
  1
ACDBDETAILVIEWSTYLE
  2
AcDbDetailViewStyle
  3
ObjectDBX Classes
 90
1025
 91
0
280
0
281
0
  0
CLASS
  1
ACDBSECTIONVIEWSTYLE
  2
AcDbSectionViewStyle
  3
ObjectDBX Classes
 90
1025
 91
0
280
0
281
0
  0
CLASS
  1
RASTERVARIABLES
  2
AcDbRasterVariables
  3
ISM
 90
0
 91
0
280
0
281
0
  0
CLASS
  1
LAYOUT
  2
AcDbLayout
  3
ObjectDBX Classes
 90
0
 91
0
280
0
281
0
  0
CLASS
  1
ACDBPLACEHOLDER
  2
AcDbPlaceHolder
  3
ObjectDBX Classes
 90
0
 91
0
280
0
281
0
  0
ENDSEC
  0
SECTION
  2
TABLES
  0
TABLE
  2
VPORT
  5
8
330
0
100
AcDbSymbolTable
 70
1
  0
VPORT
  5
23
330
8
100
AcDbSymbolTableRecord
100
AcDbViewportTableRecord
  2
*Active
 70
0
 10
0.0
 20
0.0
 11
1.0
 21
1.0
 12
0.0
 22
0.0
 13
0.0
 23
0.0
 14
0.5
 24
0.5
 15
0.5
 25
0.5
 16
0.0
 26
0.0
 36
1.0
 17
0.0
 27
0.0
 37
0.0
 40
1000.0
 41
1.34
 42
50.0
 43
0.0
 44
0.0
 50
0.0
 51
0.0
 71
0
 72
1000
 73
1
 74
3
 75
0
 76
0
 77
0
 78
0
281
0
 65
0
146
0.0
  0
ENDTAB
  0
TABLE
  2
LTYPE
  5
2
330
0
100
AcDbSymbolTable
 70
3
  0
LTYPE
  5
24
330
2
100
AcDbSymbolTableRecord
100
AcDbLinetypeTableRecord
  2
ByBlock
 70
0
  3

 72
65
 73
0
 40
0.0
  0
LTYPE
  5
25
330
2
100
AcDbSymbolTableRecord
100
AcDbLinetypeTableRecord
  2
ByLayer
 70
0
  3

 72
65
 73
0
 40
0.0
  0
LTYPE
  5
26
330
2
100
AcDbSymbolTableRecord
100
AcDbLinetypeTableRecord
  2
Continuous
 70
0
  3

 72
65
 73
0
 40
0.0
  0
ENDTAB
  0
TABLE
  2
LAYER
  5
1
330
0
100
AcDbSymbolTable
 70
2
  0
LAYER
  5
27
330
1
100
AcDbSymbolTableRecord
100
AcDbLayerTableRecord
  2
0
 70
0
 62
7
  6
Continuous
370
-3
390
13
347
21
  0
LAYER
  5
28
330
1
100
AcDbSymbolTableRecord
100
AcDbLayerTableRecord
  2
Defpoints
 70
0
 62
7
  6
Continuous
290
0
370
-3
390
13
347
21
  0
ENDTAB
  0
TABLE
  2
STYLE
  5
5
330
0
100
AcDbSymbolTable
 70
1
  0
STYLE
  5
29
330
5
100
AcDbSymbolTableRecord
100
AcDbTextStyleTableRecord
  2
Standard
 70
0
 40
0.0
 41
1.0
 50
0.0
 71
0
 42
2.5
  3
txt
  4

  0
ENDTAB
  0
TABLE
  2
VIEW
  5
7
330
0
100
AcDbSymbolTable
 70
0
  0
ENDTAB
  0
TABLE
  2
UCS
  5
6
330
0
100
AcDbSymbolTable
 70
0
  0
ENDTAB
  0
TABLE
  2
APPID
  5
3
330
0
100
AcDbSymbolTable
 70
3
  0
APPID
  5
2A
330
3
100
AcDbSymbolTableRecord
100
AcDbRegAppTableRecord
  2
ACAD
 70
0
  0
APPID
  5
30
330
3
100
AcDbSymbolTableRecord
100
AcDbRegAppTableRecord
  2
HATCHBACKGROUNDCOLOR
 70
0
  0
APPID
  5
31
330
3
100
AcDbSymbolTableRecord
100
AcDbRegAppTableRecord
  2
EZDXF
 70
0
  0
ENDTAB
  0
TABLE
  2
DIMSTYLE
  5
4
330
0
100
AcDbSymbolTable
 70
1
100
AcDbDimStyleTable
  0
DIMSTYLE
105
2B
330
4
100
AcDbSymbolTableRecord
100
AcDbDimStyleTableRecord
  2
Standard
 70
0
 40
1.0
 41
2.5
 42
0.625
 43
3.75
 44
1.25
 45
0.0
 46
0.0
 47
0.0
 48
0.0
 49
2.5
140
2.5
141
2.5
142
0.0
143
0.03937007874
144
1.0
145
0.0
146
1.0
147
0.625
148
0.0
 69
0
 70
0
 71
0
 72
0
 73
0
 74
0
 75
0
 76
0
 77
1
 78
8
 79
3
170
0
171
3
172
1
173
0
174
0
175
0
176
0
177
0
178
0
179
2
271
2
272
2
273
2
274
3
275
0
276
0
277
2
278
44
279
0
280
0
281
0
282
0
283
0
284
8
285
0
286
0
288
0
289
3
290
0
371
-2
372
-2
  0
ENDTAB
  0
TABLE
  2
BLOCK_RECORD
  5
9
330
0
100
AcDbSymbolTable
 70
2
  0
BLOCK_RECORD
  5
17
330
9
100
AcDbSymbolTableRecord
100
AcDbBlockTableRecord
  2
*Model_Space
340
1A
 70
0
280
1
281
0
  0
BLOCK_RECORD
  5
1B
330
9
100
AcDbSymbolTableRecord
100
AcDbBlockTableRecord
  2
*Paper_Space
340
1E
 70
0
280
1
281
0
  0
ENDTAB
  0
ENDSEC
  0
SECTION
  2
BLOCKS
  0
BLOCK
  5
18
330
17
100
AcDbEntity
  8
0
100
AcDbBlockBegin
  2
*Model_Space
 70
0
 10
0.0
 20
0.0
 30
0.0
  3
*Model_Space
  1

  0
ENDBLK
  5
19
330
17
100
AcDbEntity
  8
0
100
AcDbBlockEnd
  0
BLOCK
  5
1C
330
1B
100
AcDbEntity
  8
0
100
AcDbBlockBegin
  2
*Paper_Space
 70
0
 10
0.0
 20
0.0
 30
0.0
  3
*Paper_Space
  1

  0
ENDBLK
  5
1D
330
1B
100
AcDbEntity
  8
0
100
AcDbBlockEnd
  0
ENDSEC
  0
SECTION
  2
ENTITIES
  0
LWPOLYLINE
  5
2F
330
17
100
AcDbEntity
  8
0
100
AcDbPolyline
 90
721
 70
1
 10
62.587947170930846
 20
8.385060082041162
 10
62.5860882268691
 20
8.385465008379043
 10
62.58053586507839
 20
8.386492694399973
 10
62.571338940786966
 20
8.387769608289798
 10
62.55837971390156
 20
8.38946921827131
 10
62.541881478303296
 20
8.391337760583125
 10
62.52173870465025
 20
8.39345534385775
 10
62.49787026065718
 20
8.39571554445324
 10
62.470462820174205
 20
8.398144583925985
 10
62.4394352509161
 20
8.400636038634039
 10
62.40466977612072
 20
8.403363657159314
 10
62.36637751558675
 20
8.40616675497157
 10
62.3244651018317
 20
8.409032454925221
 10
62.27892031188128
 20
8.412054210063584
 10
62.22976759168406
 20
8.41504511430002
 10
62.17698247084553
 20
8.418192260627253
 10
62.12067051537652
 20
8.421415260053644
 10
62.06073835779453
 20
8.424701235433599
 10
61.997173775125276
 20
8.428143639810441
 10
61.93009453190793
 20
8.431568818055295
 10
61.85938282693439
 20
8.435150705656161
 10
61.785063093930276
 20
8.438702489979448
 10
61.70729754857413
 20
8.442437392121235
 10
61.62581838473062
 20
8.44622276688317
 10
61.54090559484048
 20
8.450098086779418
 10
61.45237249283057
 20
8.454037223706617
 10
61.360312385068546
 20
8.458053522075582
 10
61.26472525933142
 20
8.462147075339352
 10
61.16559888042195
 20
8.466411429994293
 10
61.0629332116712
 20
8.470846866399532
 10
60.95675268680478
 20
8.475266571921473
 10
60.847032847651114
 20
8.479857546099801
 10
60.73387921132917
 20
8.484539773755046
 10
60.61718621182809
 20
8.489393643878847
 10
60.49697824620458
 20
8.494232624196744
 10
60.37332421154658
 20
8.49925668484705
 10
60.24621184821091
 20
8.504559559232211
 10
60.11567780067446
 20
8.509861075128363
 10
59.98160424328322
 20
8.515335354929592
 10
59.84419007286156
 20
8.520915167148976
 10
59.70323634369318
 20
8.526668117085611
 10
59.558929717405235
 20
8.532620519748942
 10
59.41117681429227
 20
8.538759591446418
 10
59.26007095294487
 20
8.545098583135802
 10
59.10553097663185
 20
8.55153125808123
 10
58.947650203943795
 20
8.558070867240463
 10
58.78631080922669
 20
8.564891533007595
 10
58.62171167708196
 20
8.571926117348744
 10
58.45375942780413
 20
8.579161836571368
 10
58.28245403694724
 20
8.586598877581546
 10
58.10779544339643
 20
8.594237707644503
 10
57.92986476721399
 20
8.602184843855232
 10
57.748580827222746
 20
8.610334236383952
 10
57.56402473126198
 20
8.6187924957787
 10
57.37620864119114
 20
8.627466636261383
 10
57.18515699073582
 20
8.636169845198399
 10
56.99093862809209
 20
8.645102466540237
 10
56.79343573982887
 20
8.654438529227944
 10
56.5926482648313
 20
8.66417850052674
 10
56.388706202835806
 20
8.674055178811384
 10
56.181597281976224
 20
8.684162390937372
 10
55.97132147780659
 20
8.69450032381079
 10
55.75784206028919
 20
8.70534980382681
 10
55.541220107626515
 20
8.71624384612797
 10
55.32152449246059
 20
8.727382607758667
 10
55.098742955148204
 20
8.738859822121354
 10
54.872769880786656
 20
8.750756252019844
 10
54.643804141754366
 20
8.763004852873303
 10
54.411764569097194
 20
8.775499481398908
 10
54.176651138369195
 20
8.788240324502747
 10
53.938532697766476
 20
8.801427726135309
 10
53.69745809029422
 20
8.814688247935488
 10
53.45330950252139
 20
8.828195918844331
 10
53.20626134865491
 20
8.842070693820691
 10
52.95631359202586
 20
8.856312853223692
 10
52.70339729887733
 20
8.870722707274151
 10
52.447500185120155
 20
8.885394176280606
 10
52.188808912381496
 20
8.900353575252492
 10
51.927205642784315
 20
8.915775120036947
 10
51.662727008582586
 20
8.931378731863147
 10
51.39546631614391
 20
8.947177755141894
 10
51.12542352879935
 20
8.963172470232319
 10
50.852574139485505
 20
8.979550250486279
 10
50.576918111533416
 20
8.9963113762629
 10
50.298467631248464
 20
9.013362674877998
 10
50.017421583232085
 20
9.030637008297694
 10
49.73358098509903
 20
9.048202262180206
 10
49.44703915543991
 20
9.066071687483307
 10
49.157926081768196
 20
9.083978176034801
 10
48.8661361247352
 20
9.102002677544586
 10
48.57172593400867
 20
9.12043880210039
 10
48.27478882817918
 20
9.13929980065997
 10
47.97516248156143
 20
9.158373293204637
 10
47.67307024915134
 20
9.177405048707794
 10
47.368463190159886
 20
9.19676925315489
 10
47.0613534908924
 20
9.216372733861729
 10
46.751728879482755
 20
9.236309317683812
 10
46.43970710824711
 20
9.256405442945299
 10
46.12528815273953
 20
9.276661296552286
 10
45.80837859658561
 20
9.297064375171349
 10
45.48915289066119
 20
9.31773435340221
 10
45.16751764303782
 20
9.338658541005358
 10
44.84359061825472
 20
9.359663282851928
 10
44.517371767419924
 20
9.38074895275409
 10
44.18895442134704
 20
9.40192870821656
 10
43.858232940687415
 20
9.423283498949248
 10
43.52527621030598
 20
9.4450133885435
 10
43.19002747052831
 20
9.466825607989
 10
42.85275458860456
 20
9.488852335218871
 10
42.513319672575044
 20
9.510694377580839
 10
42.17171043835058
 20
9.532445655383432
 10
41.82807692752734
 20
9.554412468953876
 10
41.482406868239146
 20
9.576688645147662
 10
41.13455015777497
 20
9.598968350902789
 10
40.78490468756742
 20
9.621116375621064
 10
40.43320252925135
 20
9.643001008634569
 10
40.079593699977046
 20
9.664928737176616
 10
39.72397257261878
 20
9.68698041750406
 10
39.36653808066989
 20
9.709088537770858
 10
39.00723348890181
 20
9.730960142060587
 10
38.64612768217956
 20
9.752795293964606
 10
38.283196165662645
 20
9.774781273381725
 10
37.918500029776574
 20
9.796451002001442
 10
37.552051460826696
 20
9.817711307139563
 10
37.18397605446062
 20
9.83905539520995
 10
36.814099249795774
 20
9.86036443269028
 10
36.44259553437687
 20
9.881757813821137
 10
36.06953822160372
 20
9.902675007248694
 10
35.694915051833085
 20
9.923209746375404
 10
35.31870155467046
 20
9.943549124193988
 10
34.94086100007811
 20
9.963973967099617
 10
34.56162903936413
 20
9.984136030304116
 10
34.180867743899846
 20
10.00363640151433
 10
33.79882058387882
 20
10.022793790937857
 10
33.41523962390381
 20
10.042050363671413
 10
33.03026713557741
 20
10.061045091234268
 10
32.64395194968192
 20
10.079404628718367
 10
32.25645639190268
 20
10.097341356142397
 10
31.867581418739576
 20
10.1149236264298
 10
31.47750155440631
 20
10.132270553462032
 10
31.086135605502744
 20
10.149276180862353
 10
30.693601385459992
 20
10.165766479689726
 10
30.29999226176053
 20
10.181754327089733
 10
29.905214805806978
 20
10.197227313182005
 10
29.50945578923327
 20
10.212210911898591
 10
29.11252839151358
 20
10.226680023119611
 10
28.71459491388733
 20
10.240847213769847
 10
28.315667591551748
 20
10.25461893735293
 10
27.915807490486387
 20
10.267528302464441
 10
27.514990140296728
 20
10.279762402097113
 10
27.113390101865374
 20
10.29144006977326
 10
26.710808331692224
 20
10.302629658416333
 10
26.30745604735976
 20
10.313169735871737
 10
25.90334545961932
 20
10.322966942549204
 10
25.498488779222193
 20
10.331927918858456
 10
25.09286151132791
 20
10.340239944698304
 10
24.686544849336602
 20
10.348008976445485
 10
24.27953875657931
 20
10.355235294459122
 10
23.871973293907374
 20
10.361651229848773
 10
23.463767267920677
 20
10.3671508262377
 10
23.055026281298964
 20
10.371653414275126
 10
22.64580706927082
 20
10.375451949877474
 10
22.23597953431599
 20
10.37881438229432
 10
21.8257549306859
 20
10.381578999011953
 10
21.415137625800455
 20
10.382985672350408
 10
21.00405424514501
 20
10.38359540092872
 10
20.592679410717043
 20
10.383526551004005
 10
20.180944115421813
 20
10.382579993515337
 10
19.768860594456562
 20
10.38066218196635
 10
19.356578974978326
 20
10.37807876251297
 10
18.94401808803292
 20
10.374723591872373
 10
18.531307982248688
 20
10.370329094607149
 10
18.11835524125123
 20
10.364882767383879
 10
17.705334487038044
 20
10.35850297645968
 10
17.292233472188865
 20
10.351283361783953
 10
16.879088877849558
 20
10.3429434707737
 10
16.465888456599856
 20
10.33357694337832
 10
16.05271341406288
 20
10.323289642521514
 10
15.639433664941329
 20
10.312349423999818
 10
15.226309379829749
 20
10.300220576220154
 10
14.813340558728132
 20
10.286903099182522
 10
14.400514990885164
 20
10.272490352477199
 10
13.987820428880609
 20
10.257075976053589
 10
13.57536254873207
 20
10.24057873984266
 10
13.163035698867889
 20
10.223079687007356
 10
12.751038947234127
 20
10.204510277718155
 10
12.33939675200233
 20
10.184683512435372
 10
11.928096890198207
 20
10.163692844202329
 10
11.51712715107045
 20
10.141631632609297
 10
11.10649975759334
 20
10.11840642461296
 10
10.696426037356142
 20
10.09385494698134
 10
10.286788103589943
 20
10.068151789373747
 10
9.877654963389485
 20
10.041496080851104
 10
9.468994303028829
 20
10.013408146316445
 10
9.06096854597711
 20
9.984099618164109
 10
8.653541059980405
 20
9.953850575164925
 10
8.246655060918247
 20
9.922368435214647
 10
7.840521900825851
 20
9.889490738175216
 10
7.43511714597761
 20
9.855404296680224
 10
7.030371801501768
 20
9.819909888215705
 10
6.626448327536368
 20
9.783218864816867
 10
6.223277741432637
 20
9.745131910516701
 10
5.821034714079934
 20
9.705767017760147
 10
5.419495719360659
 20
9.665379725916406
 10
5.0188721093100295
 20
9.623807574847419
 10
4.619212775825197
 20
9.580676752379915
 10
4.22050553260078
 20
9.53608043119808
 10
3.8228071515342794
 20
9.4903112868592
 10
3.426129904491882
 20
9.443275492507782
 10
3.0304860266708253
 20
9.394879501647464
 10
2.635968983337429
 20
9.345135443799496
 10
2.2424608877227565
 20
9.294217908623176
 10
1.8500307958134579
 20
9.242325651367262
 10
1.4588210525499916
 20
9.189097082832761
 10
1.0688561283268954
 20
9.134345110026956
 10
0.6801116138645036
 20
9.078256358677354
 10
0.292669863745492
 20
9.020927907121568
 10
-0.09356059495163375
 20
8.962332392992296
 10
-0.47849849548890916
 20
8.902575211948019
 10
-0.8620626077973135
 20
8.841762040006339
 10
-1.2442974930230015
 20
8.779506842019694
 10
-1.625109698122665
 20
8.715821840962374
 10
-2.004466884924429
 20
8.651186525025254
 10
-2.382438060523021
 20
8.585401765147415
 10
-2.7588240958575283
 20
8.518398554234114
 10
-3.1338118970145867
 20
8.450152446336771
 10
-3.5072145579075538
 20
8.380687887403962
 10
-3.8789630714416896
 20
8.310204006496615
 10
-4.249256566677916
 20
8.238769810709472
 10
-4.6179404757014835
 20
8.165930257800225
 10
-4.9849012302714755
 20
8.092270511977361
 10
-5.350256729379779
 20
8.017965256353236
 10
-5.714027088224004
 20
7.942441549693641
 10
-6.075931947674179
 20
7.865736060921447
 10
-6.436101429696493
 20
7.788116926192316
 10
-6.794547757265235
 20
7.70967759854957
 10
-7.151246484431823
 20
7.630231171906571
 10
-7.50602292808391
 20
7.549895545255214
 10
-7.859063994308137
 20
7.468646272646922
 10
-8.210219445940727
 20
7.386788159160225
 10
-8.559464837033106
 20
7.304134298708486
 10
-8.906787944610983
 20
7.220591238248389
 10
-9.252200991648646
 20
7.136252430823251
 10
-9.595634971051357
 20
7.0513170054939955
 10
-9.93718333586243
 20
6.965772739286336
 10
-10.276634734046654
 20
6.879457172062211
 10
-10.61398916560403
 20
6.7923703038216185
 10
-10.949327860603585
 20
6.704406458546956
 10
-11.2825695889763
 20
6.615671312255825
 10
-11.61375101964502
 20
6.5264452240781825
 10
-11.942790922540723
 20
6.436833870031637
 10
-12.269640405766257
 20
6.346463437942913
 10
-12.594392922364948
 20
6.255321704837722
 10
-12.916755890232546
 20
6.16335188659561
 10
-13.236952884378548
 20
6.070809896397954
 10
-13.55499612777725
 20
5.977789187288074
 10
-13.870698714342003
 20
5.884314205214548
 10
-14.184048421098533
 20
5.790291497134054
 10
-14.495102032167287
 20
5.6954284809423505
 10
-14.8038149864021
 20
5.600111191786999
 10
-15.110223952725836
 20
5.504619988797953
 10
-15.414174363223733
 20
5.40849982973291
 10
-15.715759670939113
 20
5.3117384916175805
 10
-16.014817415733912
 20
5.214547326487178
 10
-16.311441050651457
 20
5.116914111367415
 10
-16.605642798666025
 20
5.01893229930161
 10
-16.897292537811442
 20
4.920333754134092
 10
-17.186414714036278
 20
4.821305381951501
 10
-17.47300932734054
 20
4.721847182753836
 10
-17.757125269621366
 20
4.622332968714374
 10
-18.038563411817844
 20
4.522693732738367
 10
-18.317473991093742
 20
4.422624669747285
 10
-18.593739108457168
 20
4.321951096628782
 10
-18.867314202761957
 20
4.221059048530416
 10
-19.13831717299999
 20
4.120123208564537
 10
-19.406605674230814
 20
4.018781987532159
 10
-19.672110699359678
 20
3.917234514494208
 10
-19.93503137744751
 20
3.8155497965454255
 10
-20.195180802407666
 20
3.7137522796343885
 10
-20.452522305317284
 20
3.6115616046311367
 10
-20.707092555099237
 20
3.509258130665632
 10
-20.958903774727805
 20
3.406935310781188
 10
-21.207943741228704
 20
3.3044996919344882
 10
-21.45411900155861
 20
3.2019634970998214
 10
-21.697417332743232
 20
3.099233273233866
 10
-21.937944410800192
 20
2.996390250405656
 10
-22.175513329642843
 20
2.8934588745637635
 10
-22.410148535219754
 20
2.790626051794827
 10
-22.642012487669
 20
2.687680430063635
 10
-22.870824827860613
 20
2.5846586782930494
 10
-23.09666678586363
 20
2.481455120465464
 10
-23.319587253575207
 20
2.3784435687541516
 10
-23.539586230995333
 20
2.275624023159115
 10
-23.756545819132125
 20
2.1728218005680024
 10
-23.970453795011284
 20
2.069943447937497
 10
-24.181391388701847
 20
1.9668832892499917
 10
-24.389232808988623
 20
1.8641330356706538
 10
-24.594059285940627
 20
1.7615870111818777
 10
-24.795846373609294
 20
1.6590583096970255
 10
-24.994500618951303
 20
1.5565591541903858
 10
-25.190046467915227
 20
1.4542764507485955
 10
-25.382459474552494
 20
1.3520232932850187
 10
-25.57175186183739
 20
1.2498931348429712
 10
-25.757935852744204
 20
1.1479794284657725
 10
-25.940893548281043
 20
1.046107491041074
 10
-26.120661617370768
 20
0.9445576816988299
 10
-26.297284621159548
 20
0.842943965291481
 10
-26.470717998501215
 20
0.7416523769665857
 10
-26.640949526421473
 20
0.6405894636808277
 10
-26.807966981946052
 20
0.5396617723908871
 10
-26.97167691203162
 20
0.43888152607105285
 10
-27.132184992695784
 20
0.3383299547903545
 10
-27.28943443981809
 20
0.23829964065303527
 10
-27.44340080744997
 20
0.13860367757245923
 10
-27.594084095591413
 20
0.03924206554862469
 10
-27.74158998026003
 20
-0.059703965349435936
 10
-27.885719332394892
 20
-0.15830342221646612
 10
-28.026590050987906
 20
-0.2563816219401176
 10
-28.16413312894431
 20
-0.35373943545946596
 10
-28.29844201930744
 20
-0.4503890857487975
 10
-28.429398823085386
 20
-0.5465052559204626
 10
-28.557109216295768
 20
-0.6420067159054303
 10
-28.68138629285194
 20
-0.7368690197551246
 10
-28.802441404789118
 20
-0.8309297073314851
 10
-28.920099868994953
 20
-0.9240708796426179
 10
-29.034430692564182
 20
-1.0164916657494463
 10
-29.145433875496813
 20
-1.1081920656519715
 10
-29.253109417792846
 20
-1.1991720793501932
 10
-29.357388312357532
 20
-1.2892325777831872
 10
-29.458270559190872
 20
-1.378373560950953
 10
-29.555812942413326
 20
-1.466887610957734
 10
-29.64995867790443
 20
-1.5544821456992866
 10
-29.74065887376705
 20
-1.6415309773488855
 10
-29.827962421898317
 20
-1.7276602937332566
 10
-29.911820430401093
 20
-1.8132439070256734
 10
-29.992257345223948
 20
-1.8980949111394987
 10
-30.069273166366887
 20
-1.9822133060747333
 10
-30.1427622178123
 20
-2.065680321900408
 10
-30.212935851595393
 20
-2.148333498478461
 10
-30.279477039663362
 20
-2.230416526015984
 10
-30.34269058709473
 20
-2.311779167349204
 10
-30.40237736482857
 20
-2.3924904295728644
 10
-30.458574041787745
 20
-2.4722699535570083
 10
-30.511349625067
 20
-2.5513168683625618
 10
-30.56062288459731
 20
-2.629525497971919
 10
-30.60644271227582
 20
-2.706522030211805
 10
-30.648865892222982
 20
-2.782599047186463
 10
-30.687823417344056
 20
-2.857557419834969
 10
-30.723339733587615
 20
-2.9312102420706863
 10
-30.755463732850817
 20
-3.003183701720341
 10
-30.78419541513365
 20
-3.0734777987839323
 10
-30.809652679428012
 20
-3.1419178501491114
 10
-30.83170973451871
 20
-3.2080121446507115
 10
-30.850508925346205
 20
-3.2713990930897467
 10
-30.86626593469669
 20
-3.331156388007319
 10
-30.878879417303544
 20
-3.3866054121516256
 10
-30.888638393798683
 20
-3.436263139803858
 10
-30.89583188481402
 20
-3.4786465452452107
 10
-30.900566335645827
 20
-3.5114883094874654
 10
-30.903240773694595
 20
-3.532464329421949
 10
-30.82689935284654
 20
-4.129954965781469
 10
-30.824500373334825
 20
-4.134488834479247
 10
-30.817315657773985
 20
-4.147996987529263
 10
-30.80539409806116
 20
-4.170105612758242
 10
-30.78843445059015
 20
-4.202391188928312
 10
-30.766366938987545
 20
-4.246840675897735
 10
-30.739733704872982
 20
-4.2985822924396615
 10
-30.708820207406056
 20
-4.354706771236937
 10
-30.673972251339134
 20
-4.414023668674995
 10
-30.63535306608894
 20
-4.474558247869862
 10
-30.592979205380743
 20
-4.535457208457384
 10
-30.547098690172614
 20
-4.596277731169543
 10
-30.49766695931838
 20
-4.65663378085878
 10
-30.444732904715202
 20
-4.71615154535182
 10
-30.388320972311643
 20
-4.7746441185620245
 10
-30.328431162107712
 20
-4.832111500489398
 10
-30.265169150121007
 20
-4.888472461064905
 10
-30.19846592925679
 20
-4.943527871227623
 10
-30.12830927654078
 20
-4.99737118402087
 10
-30.05480486799057
 20
-5.049921169375617
 10
-29.977834804614268
 20
-5.10135251040421
 10
-29.897411309386168
 20
-5.151571754063334
 10
-29.81374573434148
 20
-5.200416440214925
 10
-29.72652105142739
 20
-5.248130259066076
 10
-29.63602984274813
 20
-5.294656426496331
 10
-29.542072979242782
 20
-5.3400639496004345
 10
-29.444756136928955
 20
-5.384271598309355
 10
-29.344091538780933
 20
-5.427185919579774
 10
-29.240042515875853
 20
-5.469087272541645
 10
-29.13263351416229
 20
-5.509788751108334
 10
-29.021815641743096
 20
-5.549664167453115
 10
-28.907625567541135
 20
-5.588433162446029
 10
-28.790132298651145
 20
-5.626294865148004
 10
-28.66924238202981
 20
-5.66323705258475
 10
-28.544931371728556
 20
-5.699446630842906
 10
-28.41730494376499
 20
-5.73484236985344
 10
-28.286350875164825
 20
-5.769517722659671
 10
-28.152069165928054
 20
-5.803472689261597
 10
-28.014329694088506
 20
-5.836975405814888
 10
-27.8733315887071
 20
-5.8699568652247995
 10
-27.72890016667148
 20
-5.902299168499438
 10
-27.5812223340683
 20
-5.934026761587379
 10
-27.430180191905645
 20
-5.965314327600972
 10
-27.27586719322686
 20
-5.996174089514504
 10
-27.118202107962887
 20
-6.0265003713103695
 10
-26.95730283510564
 20
-6.056118489876219
 10
-26.793063698637493
 20
-6.085109675281084
 10
-26.625659381670815
 20
-6.113591826516855
 10
-26.454996431162282
 20
-6.1415527206092495
 10
-26.28107484711189
 20
-6.1689923575582615
 10
-26.103931298442497
 20
-6.195630378233942
 10
-25.923659238197434
 20
-6.221479005610574
 10
-25.74016521333337
 20
-6.246526016713871
 10
-25.55351823094506
 20
-6.2709705406047584
 10
-25.363718291032498
 20
-6.294812577283237
 10
-25.17081428549283
 20
-6.317678314576029
 10
-24.974875221420803
 20
-6.339766881544063
 10
-24.775819868747394
 20
-6.360972602169731
 10
-24.573636004498304
 20
-6.381388929496351
 10
-24.368417081716856
 20
-6.401028086498212
 10
-24.160175323377338
 20
-6.419796620131996
 10
-23.94889850650546
 20
-6.437787983441021
 10
-23.734586631101227
 20
-6.455002176425284
 10
-23.517251920138918
 20
-6.47134574604147
 10
-23.296975603687578
 20
-6.486924368307184
 10
-23.073757681747185
 20
-6.501738043222424
 10
-22.84751692424873
 20
-6.5156810947695885
 10
-22.618415791330268
 20
-6.528964874983886
 10
-22.386373052922757
 20
-6.54148370784771
 10
-22.15137648605193
 20
-6.553331046404383
 10
-21.913531766735375
 20
-6.5644256605848685
 10
-21.672875563895964
 20
-6.574487191259215
 10
-21.429371208610828
 20
-6.5837959975573765
 10
-21.18290080188808
 20
-6.592526762591703
 10
-20.93375692583196
 20
-6.600622702241738
 10
-20.681777120304407
 20
-6.607872464472271
 10
-20.426973608279702
 20
-6.6141825962399805
 10
-20.16950884989592
 20
-6.619764449580081
 10
-19.909277169135446
 20
-6.6246992545616035
 10
-19.64630301194685
 20
-6.628800105097908
 10
-19.38067983137346
 20
-6.632079224163286
 10
-19.112419850389564
 20
-6.634443158714417
 10
-18.84148640007229
 20
-6.636172267881256
 10
-18.567903926370228
 20
-6.637079645577167
 10
-18.291647983334787
 20
-6.637352197888787
 10
-18.012942145975476
 20
-6.6367340116347355
 10
-17.731587285231367
 20
-6.635294093909755
 10
-17.44767685414578
 20
-6.633044667688135
 10
-17.16129208278774
 20
-6.630091408987478
 10
-16.872363964062515
 20
-6.626235188746863
 10
-16.580961505064842
 20
-6.621675136027213
 10
-16.287190381812323
 20
-6.616330020759498
 10
-15.990888134166905
 20
-6.6099884909085045
 10
-15.69224166821522
 20
-6.602674992422808
 10
-15.391214315034402
 20
-6.594669884432364
 10
-15.087806074624455
 20
-6.585973166937173
 10
-14.782016946985383
 20
-6.576584839937234
 10
-14.473977054083358
 20
-6.56623676727688
 10
-14.163710841866962
 20
-6.554742042869474
 10
-13.851075965395726
 20
-6.542462255914002
 10
-13.536259330756282
 20
-6.5294218523590395
 10
-13.219191930853889
 20
-6.515421703143661
 10
-12.899991664680442
 20
-6.500287125155518
 10
-12.578621863313078
 20
-6.484298477524566
 10
-12.255151533846536
 20
-6.467654889311727
 10
-11.929511669186084
 20
-6.450157231456082
 10
-11.60173893825457
 20
-6.43152514482767
 10
-11.271995801190068
 20
-6.411969981461706
 10
-10.940270035018282
 20
-6.3915851944015065
 10
-10.606374733652578
 20
-6.370346337698497
 10
-10.270602479197201
 20
-6.348196627232224
 10
-9.932884264557407
 20
-6.32493693394176
 10
-9.593220089733194
 20
-6.300567257827107
 10
-9.251691184793588
 20
-6.2751932749058685
 10
-8.908236434867163
 20
-6.249282250394639
 10
-8.562985961920095
 20
-6.222566048137751
 10
-8.215895204806213
 20
-6.194658632987641
 10
-7.866951940551231
 20
-6.16565345798763
 10
-7.516343075241784
 20
-6.1355749690862895
 10
-7.163926263937411
 20
-6.10478475548261
 10
-6.809819405629996
 20
-6.073108134064237
 10
-6.454022500319544
 20
-6.0405451048311765
 10
-6.096559993954628
 20
-6.006908761696787
 10
-5.737419663560964
 20
-5.972292557704391
 10
-5.376763969276611
 20
-5.936907844889194
 10
-5.014430450963507
 20
-5.90054327121599
 10
-4.650630460656862
 20
-5.863036376546714
 10
-4.285351775382393
 20
-5.8244806139246865
 10
-3.9185821721658107
 20
-5.784969436393225
 10
-3.5502404209380796
 20
-5.744397167934721
 10
-3.180631326777742
 20
-5.702613571385406
 10
-2.8096736596157537
 20
-5.659512970727669
 10
-2.437200628563075
 20
-5.615643861247135
 10
-2.0634113626806374
 20
-5.57093723584906
 10
-1.6884726528574767
 20
-5.524844599247822
 10
-1.312160924084096
 20
-5.4776218646248
 10
-0.9345574064295228
 20
-5.4293747079976
 10
-0.555873451928974
 20
-5.37994066922816
 10
-0.17593437747010238
 20
-5.32920184932459
 10
0.20507291086046775
 20
-5.277182694235458
 10
0.5872907580031883
 20
-5.224244793159757
 10
0.9706012649661722
 20
-5.170213462985133
 10
1.3548498638346738
 20
-5.114633661469285
 10
1.7401666765748602
 20
-5.057773524767877
 10
2.1265071420405732
 20
-5.000019088028474
 10
2.5137411749345437
 20
-4.941102495454535
 10
2.9019519854476483
 20
-4.880933210421474
 10
3.2910716909987667
 20
-4.8197189596702
 10
3.6810514363596867
 20
-4.757086211386567
 10
4.071891245976342
 20
-4.693035152476665
 10
4.463546558702574
 20
-4.627951818088053
 10
4.85593619336124
 20
-4.561942258050512
 10
5.249141392244361
 20
-4.494900889799476
 10
5.643032045608705
 20
-4.426559670632324
 10
6.037632611625844
 20
-4.357105600088735
 10
6.4329431391876755
 20
-4.286539051980882
 10
6.8288701630278865
 20
-4.214872155830009
 10
7.225377050892553
 20
-4.141824832865291
 10
7.62248824873025
 20
-4.067583989173365
 10
8.020065742351484
 20
-3.9925478828760803
 10
8.4182842637605
 20
-3.916598988793716
 10
8.816920225724838
 20
-3.8394813002918466
 10
9.216079328708036
 20
-3.7612762343455928
 10
9.61557466662347
 20
-3.6820082369035276
 10
10.015511927711708
 20
-3.6017586314877263
 10
10.41587890122145
 20
-3.5204340585079135
 10
10.816500904040334
 20
-3.438152416955984
 10
11.21749583516027
 20
-3.3550883899442825
 10
11.618851508275878
 20
-3.2711488047886252
 10
12.02036875765731
 20
-3.186264374035138
 10
12.42215328376813
 20
-3.100516514658936
 10
12.824136079513595
 20
-3.0141043557209453
 10
13.226361718262838
 20
-2.926641955526649
 10
13.628667715431854
 20
-2.8383404792051703
 10
14.031078516969222
 20
-2.749386832843147
 10
14.433581912123625
 20
-2.6596876568503034
 10
14.836153454946487
 20
-2.5690560451400035
 10
15.238817603609359
 20
-2.477678997251926
 10
15.641411836859305
 20
-2.385767397956068
 10
16.044005186237023
 20
-2.2931223050975915
 10
16.446540867622048
 20
-2.2000363007807384
 10
16.84898218764557
 20
-2.106228838969466
 10
17.251316935556286
 20
-2.011606560073501
 10
17.65356955730277
 20
-1.9163563701794792
 10
18.05558974238338
 20
-1.8207825136476727
 10
18.45747098051039
 20
-1.7248730478629197
 10
18.85908312527164
 20
-1.6283596497634718
 10
19.260438375195502
 20
-1.5313355854865551
 10
19.661536742504904
 20
-1.433800948485217
 10
20.06239042572824
 20
-1.3358490048966856
 10
20.462800234689677
 20
-1.237410280361003
 10
20.86287188207575
 20
-1.1385662853063312
 10
21.26252406447958
 20
-1.0394221350320147
 10
21.661874742007953
 20
-0.9401529799156189
 10
22.060688006670283
 20
-0.8404086126550573
 10
22.45897609366385
 20
-0.7402825797466901
 10
22.85689357090341
 20
-0.6402299234328209
 10
23.254180133341734
 20
-0.5397139041368986
 10
23.650823521335596
 20
-0.4386407884564754
 10
24.04699056244298
 20
-0.33755935203630344
 10
24.442518698742006
 20
-0.23668019928724918
 10
24.837428069876243
 20
-0.1354305758812
 10
25.231637396884736
 20
-0.033915784023589246
 10
25.62505315338634
 20
0.06785251402955557
 10
26.017793275041875
 20
0.169699354806757
 10
26.409776470667413
 20
0.27151952955562153
 10
26.801014926568353
 20
0.37321986559196557
 10
27.191390707083855
 20
0.47497532638726525
 10
27.580879317373444
 20
0.5769731918403315
 10
27.969517414137034
 20
0.6789331962742532
 10
28.35730498515162
 20
0.7808554331420723
 10
28.74406721285216
 20
0.8826230314353732
 10
29.12999108888609
 20
0.984259782931426
 10
29.51485291601419
 20
1.0860225353420467
 10
29.898664892764785
 20
1.1878180225300012
 10
30.2814880851174
 20
1.2891793530908702
 10
30.663310282320758
 20
1.3901998866149334
 10
31.043919973440957
 20
1.49104329812981
 10
31.423516373099744
 20
1.591639926369457
 10
31.80190021778348
 20
1.6920598064120926
 10
32.179164984981426
 20
1.792314974325918
 10
32.55524158203805
 20
1.8922069552213145
 10
32.930036470349165
 20
1.991724180295294
 10
33.30366758557562
 20
2.09069168607638
 10
33.67591119380923
 20
2.189366600635513
 10
34.04695428669747
 20
2.287772715749968
 10
34.416597600726696
 20
2.385980066497964
 10
34.784914412627735
 20
2.483428401884805
 10
35.15181119601947
 20
2.580106059654468
 10
35.51740160470359
 20
2.6765975498441303
 10
35.88139283656235
 20
2.77296133872903
 10
36.244069667037486
 20
2.868473593739893
 10
36.60523282039238
 20
2.9632044434079794
 10
36.96483334361501
 20
3.057528167171781
 10
37.32287121225944
 20
3.151444951937384
 10
37.679358612631034
 20
3.244861625020602
 10
38.034356635155255
 20
3.337311108110924
 10
38.38765373222934
 20
3.4289573565951126
 10
38.73940026324678
 20
3.5201042410212593
 10
39.089409126553356
 20
3.6107288106894835
 10
39.437704731428724
 20
3.70064443987228
 10
39.78431149937552
 20
3.789664409389097
 10
40.129204935553254
 20
3.8779759991387457
 10
40.472291464688865
 20
3.96556792067737
 10
40.81368903466616
 20
4.05226511708045
 10
41.1532105438309
 20
4.1380446376481
 10
41.49091282519544
 20
4.223198690672394
 10
41.82660875265959
 20
4.307704512359532
 10
42.160603339092475
 20
4.391410276844007
 10
42.492546851580165
 20
4.474082989733332
 10
42.82262633066199
 20
4.555746068992603
 10
43.15082950447179
 20
4.636493341477311
 10
43.47694482540672
 20
4.716488762574214
 10
43.800984455326265
 20
4.795639346505209
 10
44.12314764552102
 20
4.873875151645117
 10
44.443165990929955
 20
4.951068111994717
 10
44.76115741499084
 20
5.027043357535564
 10
45.07699167350781
 20
5.102069958953765
 10
45.3907500332188
 20
5.176253311907796
 10
45.702351141825005
 20
5.249488674910478
 10
46.01179495043457
 20
5.3217764217739925
 10
46.31902454047432
 20
5.392824998377569
 10
46.62409675717956
 20
5.462926519560235
 10
46.92683668520142
 20
5.531964861937917
 10
47.227313368303605
 20
5.600138874212414
 10
47.52556345096299
 20
5.6671683841598535
 10
47.82150555643489
 20
5.732948837199154
 10
48.11510296690451
 20
5.7977609662724365
 10
48.40635564570295
 20
5.86160505173884
 10
48.6952635439383
 20
5.92448146741053
 10
48.98166398145897
 20
5.98618054340708
 10
49.26576844475288
 20
6.046538791606948
 10
49.54742223145257
 20
6.10601228223592
 10
49.826543977036295
 20
6.16449636725986
 10
50.103227171216275
 20
6.22200298929393
 10
50.377402672445065
 20
6.278334047260682
 10
50.648964670252326
 20
6.33357179921262
 10
50.91808799442611
 20
6.38783302270512
 10
51.184622163343164
 20
6.440814781720519
 10
51.44854269438598
 20
6.492704262704582
 10
51.709861773859934
 20
6.543408292973123
 10
51.968542671727285
 20
6.593207698921312
 10
52.22460979726767
 20
6.641915854821641
 10
52.477969550762104
 20
6.689521659136345
 10
52.72863411851594
 20
6.735931939181236
 10
52.976684791713076
 20
6.781251903708698
 10
53.221922196833106
 20
6.825552428874346
 10
53.46434627276116
 20
6.8688339819433955
 10
53.70406276885269
 20
6.911014772128555
 10
53.94108392030496
 20
6.952001252933464
 10
54.17518616433146
 20
6.9920492440864574
 10
54.406461902799656
 20
7.031179005523546
 10
54.634948990260995
 20
7.06910111316958
 10
54.860541163995066
 20
7.105901282839665
 10
55.083213953607356
 20
7.141766607526525
 10
55.30308531920461
 20
7.176521936852591
 10
55.519980320992055
 20
7.2100513343398855
 10
55.73396802717928
 20
7.242553461784113
 10
55.94503617812307
 20
7.27412205258772
 10
56.153091186327394
 20
7.304745911759897
 10
56.358157461071926
 20
7.334238413573139
 10
56.560222718267475
 20
7.362693478335979
 10
56.75926248751955
 20
7.390298199041143
 10
56.95528894291052
 20
7.416959496457482
 10
57.148232955115894
 20
7.442479176054507
 10
57.338094463020816
 20
7.466857705097435
 10
57.52491811333226
 20
7.490480464562522
 10
57.70862251708254
 20
7.513242993321726
 10
57.88920766204869
 20
7.535145384828094
 10
58.06668571009011
 20
7.556094653303519
 10
58.24096308593372
 20
7.5760795103041465
 10
58.41213329151479
 20
7.595111804992095
 10
58.58007831783463
 20
7.6133670615571045
 10
58.74482254972692
 20
7.630658841177748
 10
58.90634151679717
 20
7.647174236846755
 10
59.06475319137509
 20
7.662738004733512
 10
59.21984597696602
 20
7.677514474036953
 10
59.3717011769768
 20
7.691608760056418
 10
59.5202374268857
 20
7.704916214757779
 10
59.66556047604817
 20
7.717355047353748
 10
59.8075521932358
 20
7.729101716564494
 10
59.946330489663474
 20
7.739981445824628
 10
60.08167231590958
 20
7.750246129834665
 10
60.21377601876466
 20
7.759832742494633
 10
60.342454814371855
 20
7.768715903325526
 10
60.467802229112316
 20
7.776907274583372
 10
60.589818238540104
 20
7.784407043174255
 10
60.70849058301198
 20
7.791308942500626
 10
60.82373792245219
 20
7.797508137622267
 10
60.935535762020216
 20
7.803191908437989
 10
61.04398988774047
 20
7.808278183801373
 10
61.14899446469665
 20
7.812849408671009
 10
61.25056170364008
 20
7.816812223456624
 10
61.34867936937351
 20
7.82026017465458
 10
61.443359648202296
 20
7.8231000895806915
 10
61.534590304929175
 20
7.825425514731314
 10
61.6223468813826
 20
7.827423449646135
 10
61.70656022379212
 20
7.828895886700741
 10
61.78740523528364
 20
7.829959042732251
 10
61.8645889670637
 20
7.830672505452422
 10
61.93840433125682
 20
7.830976967508625
 10
62.00866417731691
 20
7.830849852013156
 10
62.075344047072385
 20
7.830478158505688
 10
62.138549714324654
 20
7.829779909292849
 10
62.1981875915777
 20
7.828743909383826
 10
62.25423323288294
 20
7.827557064865258
 10
62.30680462279308
 20
7.82604403845349
 10
62.35578375230947
 20
7.824380354338262
 10
62.401182819960425
 20
7.822472746382344
 10
62.4429773797974
 20
7.820508120672368
 10
62.481179654794666
 20
7.818393024165021
 10
62.515870960582056
 20
7.816232478706602
 10
62.54686415883648
 20
7.814003813956361
 10
62.574240601856665
 20
7.811811771401472
 10
62.598093840469716
 20
7.80966782639187
 10
62.618236736352515
 20
7.807549308586811
 10
62.634738394383575
 20
7.805654599422867
 10
62.64770463725622
 20
7.803901347394491
 10
62.65692383180679
 20
7.802454162059738
 10
62.662477367003035
 20
7.801417504546652
 10
62.66434076022742
 20
7.800978561301001
  0
ENDSEC
  0
SECTION
  2
OBJECTS
  0
DICTIONARY
  5
A
330
0
100
AcDbDictionary
280
0
281
1
  3
ACAD_COLOR
350
B
  3
ACAD_GROUP
350
C
  3
ACAD_LAYOUT
350
D
  3
ACAD_MATERIAL
350
E
  3
ACAD_MLEADERSTYLE
350
F
  3
ACAD_MLINESTYLE
350
10
  3
ACAD_PLOTSETTINGS
350
11
  3
ACAD_PLOTSTYLENAME
350
12
  3
ACAD_SCALELIST
350
14
  3
ACAD_TABLESTYLE
350
15
  3
ACAD_VISUALSTYLE
350
16
  3
EZDXF_META
350
2D
  0
DICTIONARY
  5
B
330
A
100
AcDbDictionary
280
0
281
1
  0
DICTIONARY
  5
C
330
A
100
AcDbDictionary
280
0
281
1
  0
DICTIONARY
  5
D
330
A
100
AcDbDictionary
280
0
281
1
  3
Model
350
1A
  3
Layout1
350
1E
  0
DICTIONARY
  5
E
330
A
100
AcDbDictionary
280
0
281
1
  3
ByBlock
350
1F
  3
ByLayer
350
20
  3
Global
350
21
  0
DICTIONARY
  5
F
330
A
100
AcDbDictionary
280
0
281
1
  3
Standard
350
2C
  0
DICTIONARY
  5
10
330
A
100
AcDbDictionary
280
0
281
1
  3
Standard
350
22
  0
DICTIONARY
  5
11
330
A
100
AcDbDictionary
280
0
281
1
  0
ACDBDICTIONARYWDFLT
  5
12
330
A
100
AcDbDictionary
280
0
281
1
  3
Normal
350
13
100
AcDbDictionaryWithDefault
340
13
  0
ACDBPLACEHOLDER
  5
13
330
12
  0
DICTIONARY
  5
14
330
A
100
AcDbDictionary
280
0
281
1
  0
DICTIONARY
  5
15
330
A
100
AcDbDictionary
280
0
281
1
  0
DICTIONARY
  5
16
330
A
100
AcDbDictionary
280
0
281
1
  0
LAYOUT
  5
1A
330
D
100
AcDbPlotSettings
  1

  4
A3
  6

 40
7.5
 41
20.0
 42
7.5
 43
20.0
 44
420.0
 45
297.0
 46
0.0
 47
0.0
 48
0.0
 49
0.0
140
0.0
141
0.0
142
1.0
143
1.0
 70
1024
 72
1
 73
0
 74
5
  7

 75
16
 76
0
 77
2
 78
300
147
1.0
148
0.0
149
0.0
100
AcDbLayout
  1
Model
 70
1
 71
0
 10
0.0
 20
0.0
 11
420.0
 21
297.0
 12
0.0
 22
0.0
 32
0.0
 14
1e+20
 24
1e+20
 34
1e+20
 15
-1e+20
 25
-1e+20
 35
-1e+20
146
0.0
 13
0.0
 23
0.0
 33
0.0
 16
1.0
 26
0.0
 36
0.0
 17
0.0
 27
1.0
 37
0.0
 76
1
330
17
  0
LAYOUT
  5
1E
330
D
100
AcDbPlotSettings
  1

  4
A3
  6

 40
7.5
 41
20.0
 42
7.5
 43
20.0
 44
420.0
 45
297.0
 46
0.0
 47
0.0
 48
0.0
 49
0.0
140
0.0
141
0.0
142
1.0
143
1.0
 70
0
 72
1
 73
0
 74
5
  7

 75
16
 76
0
 77
2
 78
300
147
1.0
148
0.0
149
0.0
100
AcDbLayout
  1
Layout1
 70
1
 71
1
 10
0.0
 20
0.0
 11
420.0
 21
297.0
 12
0.0
 22
0.0
 32
0.0
 14
1e+20
 24
1e+20
 34
1e+20
 15
-1e+20
 25
-1e+20
 35
-1e+20
146
0.0
 13
0.0
 23
0.0
 33
0.0
 16
1.0
 26
0.0
 36
0.0
 17
0.0
 27
1.0
 37
0.0
 76
1
330
1B
  0
MATERIAL
  5
1F
102
{ACAD_REACTORS
330
E
102
}
330
E
100
AcDbMaterial
  1
ByBlock
  2

 70
0
 40
1.0
 71
1
 41
1.0
 91
-1023410177
 42
1.0
 72
1
  3

 73
1
 74
1
 75
1
 44
0.5
 73
0
 45
1.0
 46
1.0
 77
1
  4

 78
1
 79
1
170
1
 48
1.0
171
1
  6

172
1
173
1
174
1
140
1.0
141
1.0
175
1
  7

176
1
177
1
178
1
143
1.0
179
1
  8

270
1
271
1
272
1
145
1.0
146
1.0
273
1
  9

274
1
275
1
276
1
 42
1.0
 72
1
  3

 73
1
 74
1
 75
1
 94
63
  0
MATERIAL
  5
20
102
{ACAD_REACTORS
330
E
102
}
330
E
100
AcDbMaterial
  1
ByLayer
  2

 70
0
 40
1.0
 71
1
 41
1.0
 91
-1023410177
 42
1.0
 72
1
  3

 73
1
 74
1
 75
1
 44
0.5
 73
0
 45
1.0
 46
1.0
 77
1
  4

 78
1
 79
1
170
1
 48
1.0
171
1
  6

172
1
173
1
174
1
140
1.0
141
1.0
175
1
  7

176
1
177
1
178
1
143
1.0
179
1
  8

270
1
271
1
272
1
145
1.0
146
1.0
273
1
  9

274
1
275
1
276
1
 42
1.0
 72
1
  3

 73
1
 74
1
 75
1
 94
63
  0
MATERIAL
  5
21
102
{ACAD_REACTORS
330
E
102
}
330
E
100
AcDbMaterial
  1
Global
  2

 70
0
 40
1.0
 71
1
 41
1.0
 91
-1023410177
 42
1.0
 72
1
  3

 73
1
 74
1
 75
1
 44
0.5
 73
0
 45
1.0
 46
1.0
 77
1
  4

 78
1
 79
1
170
1
 48
1.0
171
1
  6

172
1
173
1
174
1
140
1.0
141
1.0
175
1
  7

176
1
177
1
178
1
143
1.0
179
1
  8

270
1
271
1
272
1
145
1.0
146
1.0
273
1
  9

274
1
275
1
276
1
 42
1.0
 72
1
  3

 73
1
 74
1
 75
1
 94
63
  0
MLINESTYLE
  5
22
102
{ACAD_REACTORS
330
10
102
}
330
10
100
AcDbMlineStyle
  2
Standard
 70
0
  3

 62
256
 51
90.0
 52
90.0
 71
2
 49
0.5
 62
256
  6
BYLAYER
 49
-0.5
 62
256
  6
BYLAYER
  0
MLEADERSTYLE
  5
2C
102
{ACAD_REACTORS
330
F
102
}
330
F
100
AcDbMLeaderStyle
179
2
170
2
171
1
172
0
 90
2
 40
0.0
 41
0.0
173
1
 91
-1056964608
 92
-2
290
1
 42
2.0
291
1
 43
8.0
  3
Standard
 44
4.0
300

342
29
174
1
175
1
176
0
178
1
 93
-1056964608
 45
4.0
292
0
297
0
 46
4.0
 94
-1056964608
 47
1.0
 49
1.0
140
1.0
294
1
141
0.0
177
0
142
1.0
295
0
296
0
143
3.75
271
0
272
9
273
9
  0
DICTIONARY
  5
2D
330
A
100
AcDbDictionary
280
1
281
1
  3
CREATED_BY_EZDXF
350
2E
  3
WRITTEN_BY_EZDXF
350
32
  0
DICTIONARYVAR
  5
2E
330
2D
100
DictionaryVariables
280
0
  1
1.3.5 @ 2025-08-20T01:28:29.713072+00:00
  0
DICTIONARYVAR
  5
32
330
2D
100
DictionaryVariables
280
0
  1
1.3.5 @ 2025-08-20T01:28:29.718058+00:00
  0
ENDSEC
  0
EOF
