  0
SECTION
  2
HEADER
  9
$ACADVER
  1
AC1032
  9
$ACADMAINTVER
 90
4
  9
$DWGCODEPAGE
  3
ANSI_1252
  9
$LASTSAVEDBY
  1
ezdxf
  9
$REQUIREDVERSIONS
160
0
  9
$INSBASE
 10
0.0
 20
0.0
 30
0.0
  9
$EXTMIN
 10
1e+20
 20
1e+20
 30
1e+20
  9
$EXTMAX
 10
-1e+20
 20
-1e+20
 30
-1e+20
  9
$LIMMIN
 10
0.0
 20
0.0
  9
$LIMMAX
 10
420.0
 20
297.0
  9
$ORTHOMODE
 70
0
  9
$REGENMODE
 70
1
  9
$FILLMODE
 70
1
  9
$QTEXTMODE
 70
0
  9
$MIRRTEXT
 70
1
  9
$LTSCALE
 40
1.0
  9
$ATTMODE
 70
1
  9
$TEXTSIZE
 40
2.5
  9
$TRACEWID
 40
1.0
  9
$TEXTSTYLE
  7
Standard
  9
$CLAYER
  8
0
  9
$CELTYPE
  6
ByLayer
  9
$CECOLOR
 62
256
  9
$CELTSCALE
 40
1.0
  9
$DISPSILH
 70
0
  9
$DIMSCALE
 40
1.0
  9
$DIMASZ
 40
2.5
  9
$DIMEXO
 40
0.625
  9
$DIMDLI
 40
3.75
  9
$DIMRND
 40
0.0
  9
$DIMDLE
 40
0.0
  9
$DIMEXE
 40
1.25
  9
$DIMTP
 40
0.0
  9
$DIMTM
 40
0.0
  9
$DIMTXT
 40
2.5
  9
$DIMCEN
 40
2.5
  9
$DIMTSZ
 40
0.0
  9
$DIMTOL
 70
0
  9
$DIMLIM
 70
0
  9
$DIMTIH
 70
0
  9
$DIMTOH
 70
0
  9
$DIMSE1
 70
0
  9
$DIMSE2
 70
0
  9
$DIMTAD
 70
1
  9
$DIMZIN
 70
8
  9
$DIMBLK
  1

  9
$DIMASO
 70
1
  9
$DIMSHO
 70
1
  9
$DIMPOST
  1

  9
$DIMAPOST
  1

  9
$DIMALT
 70
0
  9
$DIMALTD
 70
3
  9
$DIMALTF
 40
0.03937007874
  9
$DIMLFAC
 40
1.0
  9
$DIMTOFL
 70
1
  9
$DIMTVP
 40
0.0
  9
$DIMTIX
 70
0
  9
$DIMSOXD
 70
0
  9
$DIMSAH
 70
0
  9
$DIMBLK1
  1

  9
$DIMBLK2
  1

  9
$DIMSTYLE
  2
ISO-25
  9
$DIMCLRD
 70
0
  9
$DIMCLRE
 70
0
  9
$DIMCLRT
 70
0
  9
$DIMTFAC
 40
1.0
  9
$DIMGAP
 40
0.625
  9
$DIMJUST
 70
0
  9
$DIMSD1
 70
0
  9
$DIMSD2
 70
0
  9
$DIMTOLJ
 70
0
  9
$DIMTZIN
 70
8
  9
$DIMALTZ
 70
0
  9
$DIMALTTZ
 70
0
  9
$DIMUPT
 70
0
  9
$DIMDEC
 70
2
  9
$DIMTDEC
 70
2
  9
$DIMALTU
 70
2
  9
$DIMALTTD
 70
3
  9
$DIMTXSTY
  7
Standard
  9
$DIMAUNIT
 70
0
  9
$DIMADEC
 70
0
  9
$DIMALTRND
 40
0.0
  9
$DIMAZIN
 70
0
  9
$DIMDSEP
 70
44
  9
$DIMATFIT
 70
3
  9
$DIMFRAC
 70
0
  9
$DIMLDRBLK
  1

  9
$DIMLUNIT
 70
2
  9
$DIMLWD
 70
-2
  9
$DIMLWE
 70
-2
  9
$DIMTMOVE
 70
0
  9
$DIMFXL
 40
1.0
  9
$DIMFXLON
 70
0
  9
$DIMJOGANG
 40
0.785398163397
  9
$DIMTFILL
 70
0
  9
$DIMTFILLCLR
 70
0
  9
$DIMARCSYM
 70
0
  9
$DIMLTYPE
  6

  9
$DIMLTEX1
  6

  9
$DIMLTEX2
  6

  9
$DIMTXTDIRECTION
 70
0
  9
$LUNITS
 70
2
  9
$LUPREC
 70
4
  9
$SKETCHINC
 40
1.0
  9
$FILLETRAD
 40
10.0
  9
$AUNITS
 70
0
  9
$AUPREC
 70
2
  9
$MENU
  1
.
  9
$ELEVATION
 40
0.0
  9
$PELEVATION
 40
0.0
  9
$THICKNESS
 40
0.0
  9
$LIMCHECK
 70
0
  9
$CHAMFERA
 40
0.0
  9
$CHAMFERB
 40
0.0
  9
$CHAMFERC
 40
0.0
  9
$CHAMFERD
 40
0.0
  9
$SKPOLY
 70
0
  9
$TDCREATE
 40
2460908.103125
  9
$TDUCREATE
 40
2458532.153996898
  9
$TDUPDATE
 40
2460908.103125
  9
$TDUUPDATE
 40
2458532.1544311
  9
$TDINDWG
 40
0.0
  9
$TDUSRTIMER
 40
0.0
  9
$USRTIMER
 70
1
  9
$ANGBASE
 50
0.0
  9
$ANGDIR
 70
0
  9
$PDMODE
 70
0
  9
$PDSIZE
 40
0.0
  9
$PLINEWID
 40
0.0
  9
$SPLFRAME
 70
0
  9
$SPLINETYPE
 70
6
  9
$SPLINESEGS
 70
8
  9
$HANDSEED
  5
33
  9
$SURFTAB1
 70
6
  9
$SURFTAB2
 70
6
  9
$SURFTYPE
 70
6
  9
$SURFU
 70
6
  9
$SURFV
 70
6
  9
$UCSBASE
  2

  9
$UCSNAME
  2

  9
$UCSORG
 10
0.0
 20
0.0
 30
0.0
  9
$UCSXDIR
 10
1.0
 20
0.0
 30
0.0
  9
$UCSYDIR
 10
0.0
 20
1.0
 30
0.0
  9
$UCSORTHOREF
  2

  9
$UCSORTHOVIEW
 70
0
  9
$UCSORGTOP
 10
0.0
 20
0.0
 30
0.0
  9
$UCSORGBOTTOM
 10
0.0
 20
0.0
 30
0.0
  9
$UCSORGLEFT
 10
0.0
 20
0.0
 30
0.0
  9
$UCSORGRIGHT
 10
0.0
 20
0.0
 30
0.0
  9
$UCSORGFRONT
 10
0.0
 20
0.0
 30
0.0
  9
$UCSORGBACK
 10
0.0
 20
0.0
 30
0.0
  9
$PUCSBASE
  2

  9
$PUCSNAME
  2

  9
$PUCSORG
 10
0.0
 20
0.0
 30
0.0
  9
$PUCSXDIR
 10
1.0
 20
0.0
 30
0.0
  9
$PUCSYDIR
 10
0.0
 20
1.0
 30
0.0
  9
$PUCSORTHOREF
  2

  9
$PUCSORTHOVIEW
 70
0
  9
$PUCSORGTOP
 10
0.0
 20
0.0
 30
0.0
  9
$PUCSORGBOTTOM
 10
0.0
 20
0.0
 30
0.0
  9
$PUCSORGLEFT
 10
0.0
 20
0.0
 30
0.0
  9
$PUCSORGRIGHT
 10
0.0
 20
0.0
 30
0.0
  9
$PUCSORGFRONT
 10
0.0
 20
0.0
 30
0.0
  9
$PUCSORGBACK
 10
0.0
 20
0.0
 30
0.0
  9
$USERI1
 70
0
  9
$USERI2
 70
0
  9
$USERI3
 70
0
  9
$USERI4
 70
0
  9
$USERI5
 70
0
  9
$USERR1
 40
0.0
  9
$USERR2
 40
0.0
  9
$USERR3
 40
0.0
  9
$USERR4
 40
0.0
  9
$USERR5
 40
0.0
  9
$WORLDVIEW
 70
1
  9
$SHADEDGE
 70
3
  9
$SHADEDIF
 70
70
  9
$TILEMODE
 70
1
  9
$MAXACTVP
 70
64
  9
$PINSBASE
 10
0.0
 20
0.0
 30
0.0
  9
$PLIMCHECK
 70
0
  9
$PEXTMIN
 10
1e+20
 20
1e+20
 30
1e+20
  9
$PEXTMAX
 10
-1e+20
 20
-1e+20
 30
-1e+20
  9
$PLIMMIN
 10
0.0
 20
0.0
  9
$PLIMMAX
 10
420.0
 20
297.0
  9
$UNITMODE
 70
0
  9
$VISRETAIN
 70
1
  9
$PLINEGEN
 70
0
  9
$PSLTSCALE
 70
1
  9
$TREEDEPTH
 70
3020
  9
$CMLSTYLE
  2
Standard
  9
$CMLJUST
 70
0
  9
$CMLSCALE
 40
20.0
  9
$PROXYGRAPHICS
 70
1
  9
$MEASUREMENT
 70
1
  9
$CELWEIGHT
370
-1
  9
$ENDCAPS
280
0
  9
$JOINSTYLE
280
0
  9
$LWDISPLAY
290
0
  9
$INSUNITS
 70
6
  9
$HYPERLINKBASE
  1

  9
$STYLESHEET
  1

  9
$XEDIT
290
1
  9
$CEPSNTYPE
380
0
  9
$PSTYLEMODE
290
1
  9
$FINGERPRINTGUID
  2
{BBB3D9C6-F860-419F-B71C-A508E5979627}
  9
$VERSIONGUID
  2
{0C7D06A3-C6D7-485A-8CE2-D4BC45EA71E6}
  9
$EXTNAMES
290
1
  9
$PSVPSCALE
 40
0.0
  9
$OLESTARTUP
290
0
  9
$SORTENTS
280
127
  9
$INDEXCTL
280
0
  9
$HIDETEXT
280
1
  9
$XCLIPFRAME
280
1
  9
$HALOGAP
280
0
  9
$OBSCOLOR
 70
257
  9
$OBSLTYPE
280
0
  9
$INTERSECTIONDISPLAY
280
0
  9
$INTERSECTIONCOLOR
 70
257
  9
$DIMASSOC
280
2
  9
$PROJECTNAME
  1

  9
$CAMERADISPLAY
290
0
  9
$LENSLENGTH
 40
50.0
  9
$CAMERAHEIGHT
 40
0.0
  9
$STEPSPERSEC
 40
24.0
  9
$STEPSIZE
 40
100.0
  9
$3DDWFPREC
 40
2.0
  9
$PSOLWIDTH
 40
0.005
  9
$PSOLHEIGHT
 40
0.08
  9
$LOFTANG1
 40
1.570796326795
  9
$LOFTANG2
 40
1.570796326795
  9
$LOFTMAG1
 40
0.0
  9
$LOFTMAG2
 40
0.0
  9
$LOFTPARAM
 70
7
  9
$LOFTNORMALS
280
1
  9
$LATITUDE
 40
37.795
  9
$LONGITUDE
 40
-122.394
  9
$NORTHDIRECTION
 40
0.0
  9
$TIMEZONE
 70
-8000
  9
$LIGHTGLYPHDISPLAY
280
1
  9
$TILEMODELIGHTSYNCH
280
1
  9
$CMATERIAL
347
20
  9
$SOLIDHIST
280
0
  9
$SHOWHIST
280
1
  9
$DWFFRAME
280
2
  9
$DGNFRAME
280
2
  9
$REALWORLDSCALE
290
1
  9
$INTERFERECOLOR
 62
256
  9
$CSHADOW
280
0
  9
$SHADOWPLANELOCATION
 40
0.0
  0
ENDSEC
  0
SECTION
  2
CLASSES
  0
CLASS
  1
ACDBDICTIONARYWDFLT
  2
AcDbDictionaryWithDefault
  3
ObjectDBX Classes
 90
0
 91
0
280
0
281
0
  0
CLASS
  1
SUN
  2
AcDbSun
  3
SCENEOE
 90
1153
 91
0
280
0
281
0
  0
CLASS
  1
VISUALSTYLE
  2
AcDbVisualStyle
  3
ObjectDBX Classes
 90
4095
 91
0
280
0
281
0
  0
CLASS
  1
MATERIAL
  2
AcDbMaterial
  3
ObjectDBX Classes
 90
1153
 91
0
280
0
281
0
  0
CLASS
  1
SCALE
  2
AcDbScale
  3
ObjectDBX Classes
 90
1153
 91
0
280
0
281
0
  0
CLASS
  1
TABLESTYLE
  2
AcDbTableStyle
  3
ObjectDBX Classes
 90
4095
 91
0
280
0
281
0
  0
CLASS
  1
MLEADERSTYLE
  2
AcDbMLeaderStyle
  3
ACDB_MLEADERSTYLE_CLASS
 90
4095
 91
0
280
0
281
0
  0
CLASS
  1
DICTIONARYVAR
  2
AcDbDictionaryVar
  3
ObjectDBX Classes
 90
0
 91
0
280
0
281
0
  0
CLASS
  1
CELLSTYLEMAP
  2
AcDbCellStyleMap
  3
ObjectDBX Classes
 90
1152
 91
0
280
0
281
0
  0
CLASS
  1
MENTALRAYRENDERSETTINGS
  2
AcDbMentalRayRenderSettings
  3
SCENEOE
 90
1024
 91
0
280
0
281
0
  0
CLASS
  1
ACDBDETAILVIEWSTYLE
  2
AcDbDetailViewStyle
  3
ObjectDBX Classes
 90
1025
 91
0
280
0
281
0
  0
CLASS
  1
ACDBSECTIONVIEWSTYLE
  2
AcDbSectionViewStyle
  3
ObjectDBX Classes
 90
1025
 91
0
280
0
281
0
  0
CLASS
  1
RASTERVARIABLES
  2
AcDbRasterVariables
  3
ISM
 90
0
 91
0
280
0
281
0
  0
CLASS
  1
LAYOUT
  2
AcDbLayout
  3
ObjectDBX Classes
 90
0
 91
0
280
0
281
0
  0
CLASS
  1
ACDBPLACEHOLDER
  2
AcDbPlaceHolder
  3
ObjectDBX Classes
 90
0
 91
0
280
0
281
0
  0
ENDSEC
  0
SECTION
  2
TABLES
  0
TABLE
  2
VPORT
  5
8
330
0
100
AcDbSymbolTable
 70
1
  0
VPORT
  5
23
330
8
100
AcDbSymbolTableRecord
100
AcDbViewportTableRecord
  2
*Active
 70
0
 10
0.0
 20
0.0
 11
1.0
 21
1.0
 12
0.0
 22
0.0
 13
0.0
 23
0.0
 14
0.5
 24
0.5
 15
0.5
 25
0.5
 16
0.0
 26
0.0
 36
1.0
 17
0.0
 27
0.0
 37
0.0
 40
1000.0
 41
1.34
 42
50.0
 43
0.0
 44
0.0
 50
0.0
 51
0.0
 71
0
 72
1000
 73
1
 74
3
 75
0
 76
0
 77
0
 78
0
281
0
 65
0
146
0.0
  0
ENDTAB
  0
TABLE
  2
LTYPE
  5
2
330
0
100
AcDbSymbolTable
 70
3
  0
LTYPE
  5
24
330
2
100
AcDbSymbolTableRecord
100
AcDbLinetypeTableRecord
  2
ByBlock
 70
0
  3

 72
65
 73
0
 40
0.0
  0
LTYPE
  5
25
330
2
100
AcDbSymbolTableRecord
100
AcDbLinetypeTableRecord
  2
ByLayer
 70
0
  3

 72
65
 73
0
 40
0.0
  0
LTYPE
  5
26
330
2
100
AcDbSymbolTableRecord
100
AcDbLinetypeTableRecord
  2
Continuous
 70
0
  3

 72
65
 73
0
 40
0.0
  0
ENDTAB
  0
TABLE
  2
LAYER
  5
1
330
0
100
AcDbSymbolTable
 70
2
  0
LAYER
  5
27
330
1
100
AcDbSymbolTableRecord
100
AcDbLayerTableRecord
  2
0
 70
0
 62
7
  6
Continuous
370
-3
390
13
347
21
  0
LAYER
  5
28
330
1
100
AcDbSymbolTableRecord
100
AcDbLayerTableRecord
  2
Defpoints
 70
0
 62
7
  6
Continuous
290
0
370
-3
390
13
347
21
  0
ENDTAB
  0
TABLE
  2
STYLE
  5
5
330
0
100
AcDbSymbolTable
 70
1
  0
STYLE
  5
29
330
5
100
AcDbSymbolTableRecord
100
AcDbTextStyleTableRecord
  2
Standard
 70
0
 40
0.0
 41
1.0
 50
0.0
 71
0
 42
2.5
  3
txt
  4

  0
ENDTAB
  0
TABLE
  2
VIEW
  5
7
330
0
100
AcDbSymbolTable
 70
0
  0
ENDTAB
  0
TABLE
  2
UCS
  5
6
330
0
100
AcDbSymbolTable
 70
0
  0
ENDTAB
  0
TABLE
  2
APPID
  5
3
330
0
100
AcDbSymbolTable
 70
3
  0
APPID
  5
2A
330
3
100
AcDbSymbolTableRecord
100
AcDbRegAppTableRecord
  2
ACAD
 70
0
  0
APPID
  5
30
330
3
100
AcDbSymbolTableRecord
100
AcDbRegAppTableRecord
  2
HATCHBACKGROUNDCOLOR
 70
0
  0
APPID
  5
31
330
3
100
AcDbSymbolTableRecord
100
AcDbRegAppTableRecord
  2
EZDXF
 70
0
  0
ENDTAB
  0
TABLE
  2
DIMSTYLE
  5
4
330
0
100
AcDbSymbolTable
 70
1
100
AcDbDimStyleTable
  0
DIMSTYLE
105
2B
330
4
100
AcDbSymbolTableRecord
100
AcDbDimStyleTableRecord
  2
Standard
 70
0
 40
1.0
 41
2.5
 42
0.625
 43
3.75
 44
1.25
 45
0.0
 46
0.0
 47
0.0
 48
0.0
 49
2.5
140
2.5
141
2.5
142
0.0
143
0.03937007874
144
1.0
145
0.0
146
1.0
147
0.625
148
0.0
 69
0
 70
0
 71
0
 72
0
 73
0
 74
0
 75
0
 76
0
 77
1
 78
8
 79
3
170
0
171
3
172
1
173
0
174
0
175
0
176
0
177
0
178
0
179
2
271
2
272
2
273
2
274
3
275
0
276
0
277
2
278
44
279
0
280
0
281
0
282
0
283
0
284
8
285
0
286
0
288
0
289
3
290
0
371
-2
372
-2
  0
ENDTAB
  0
TABLE
  2
BLOCK_RECORD
  5
9
330
0
100
AcDbSymbolTable
 70
2
  0
BLOCK_RECORD
  5
17
330
9
100
AcDbSymbolTableRecord
100
AcDbBlockTableRecord
  2
*Model_Space
340
1A
 70
0
280
1
281
0
  0
BLOCK_RECORD
  5
1B
330
9
100
AcDbSymbolTableRecord
100
AcDbBlockTableRecord
  2
*Paper_Space
340
1E
 70
0
280
1
281
0
  0
ENDTAB
  0
ENDSEC
  0
SECTION
  2
BLOCKS
  0
BLOCK
  5
18
330
17
100
AcDbEntity
  8
0
100
AcDbBlockBegin
  2
*Model_Space
 70
0
 10
0.0
 20
0.0
 30
0.0
  3
*Model_Space
  1

  0
ENDBLK
  5
19
330
17
100
AcDbEntity
  8
0
100
AcDbBlockEnd
  0
BLOCK
  5
1C
330
1B
100
AcDbEntity
  8
0
100
AcDbBlockBegin
  2
*Paper_Space
 70
0
 10
0.0
 20
0.0
 30
0.0
  3
*Paper_Space
  1

  0
ENDBLK
  5
1D
330
1B
100
AcDbEntity
  8
0
100
AcDbBlockEnd
  0
ENDSEC
  0
SECTION
  2
ENTITIES
  0
LWPOLYLINE
  5
2F
330
17
100
AcDbEntity
  8
0
100
AcDbPolyline
 90
721
 70
1
 10
29.79920864807928
 20
0.34183639781662195
 10
29.79836104293575
 20
0.3421325930200151
 10
29.795818970669785
 20
0.34293213449330706
 10
29.791583915012193
 20
0.3440572453058597
 10
29.785610660775646
 20
0.34559593121958987
 10
29.777989268237324
 20
0.34741652486874375
 10
29.768674893049777
 20
0.3495625989019765
 10
29.75762343180298
 20
0.3519889486966012
 10
29.744923832625602
 20
0.35469716174905874
 10
29.7305319921076
 20
0.3576420334366623
 10
29.714402693948017
 20
0.3609117029541013
 10
29.696625628697753
 20
0.3644188026161112
 10
29.67715632136444
 20
0.3681626498684489
 10
29.65599440073697
 20
0.37218772230196695
 10
29.63314060923756
 20
0.3764050647349599
 10
29.608594203701568
 20
0.38090372130431494
 10
29.582400029590058
 20
0.3856399859286043
 10
29.554513611910654
 20
0.3906131760535849
 10
29.52493457945225
 20
0.39586776927010925
 10
29.493708148144588
 20
0.40131567086107867
 10
29.460789100944286
 20
0.4070451089763644
 10
29.426178179902365
 20
0.412967172911852
 10
29.389963590354064
 20
0.41917244982327856
 10
29.35201228076066
 20
0.4256141475915163
 10
29.312457672758367
 20
0.43229471417761284
 10
29.271210817847283
 20
0.43921260656271816
 10
29.22831618916371
 20
0.44636872968902974
 10
29.183773786336456
 20
0.4537631280341387
 10
29.137583237783208
 20
0.46144032366648846
 10
29.089744542390317
 20
0.46940045001885156
 10
29.040258442208792
 20
0.4775545963871135
 10
28.9891241944452
 20
0.48599176243057046
 10
28.936386643075775
 20
0.49466841997815836
 10
28.882000942639444
 20
0.5036282751113046
 10
28.825967834073573
 20
0.5127825505586674
 10
28.768331049205905
 20
0.522220973011377
 10
28.709090215711697
 20
0.5319881534930592
 10
28.648246446481863
 20
0.541950748186337
 10
28.58575452373059
 20
0.5521970741962635
 10
28.521703766797675
 20
0.5626842414284272
 10
28.456004854858477
 20
0.573455317887603
 10
28.388746735670484
 20
0.5845119355478225
 10
28.31988493387011
 20
0.5958534563324339
 10
28.24946392296488
 20
0.6074807407060434
 10
28.17743959880231
 20
0.619348673001146
 10
28.10385643488994
 20
0.6314581136823485
 10
28.02866921344197
 20
0.6438973798547035
 10
27.951967253426982
 20
0.6566236259013906
 10
27.873706079481394
 20
0.669636213745757
 10
27.793885690862798
 20
0.6829352323429846
 10
27.712506085715113
 20
0.6965209040810274
 10
27.6296113670772
 20
0.7104384780601635
 10
27.545157430054157
 20
0.7246429275680691
 10
27.459188377313613
 20
0.739179546182613
 10
27.371704578210622
 20
0.7540040787008968
 10
27.2827067747962
 20
0.7690276144188058
 10
27.19223869741322
 20
0.7843400579378339
 10
27.100255128647103
 20
0.8000296818854432
 10
27.006756066641785
 20
0.816096708649588
 10
26.91178709890934
 20
0.8324085214447263
 10
26.815347852753824
 20
0.849009775772074
 10
26.717438327432788
 20
0.8659005605868126
 10
26.618057407456885
 20
0.8832145310494549
 10
26.517206947768
 20
0.9007294326385096
 10
26.414930679451444
 20
0.9185350810002891
 10
26.311228230182486
 20
0.9366760871584185
 10
26.20605475301523
 20
0.9551963351046892
 10
26.09949956654704
 20
0.9740530236998709
 10
25.991518566254232
 20
0.9932010817540493
 10
25.882111751394376
 20
1.0126405982224058
 10
25.771322852310384
 20
1.032461477706435
 10
25.65915335236183
 20
1.0524859877530888
 10
25.545558034134125
 20
1.0728024009898296
 10
25.430625473431213
 20
1.0934569159367233
 10
25.31435566913948
 20
1.1144496660265433
 10
25.196704888317544
 20
1.1356910580009307
 10
25.07767275789824
 20
1.1572257918386935
 10
24.957348225639052
 20
1.1790554995138625
 10
24.835686073382973
 20
1.2012685426090817
 10
24.71268741364969
 20
1.223731621784566
 10
24.588396719575517
 20
1.2464456419825125
 10
24.46281399004683
 20
1.2694107366356944
 10
24.335938480785355
 20
1.292716083313771
 10
24.20777019067745
 20
1.3163618154495147
 10
24.078309489820608
 20
1.3403035888848456
 10
23.947645697183393
 20
1.3644985580029432
 10
23.815689490827552
 20
1.388989924241354
 10
23.6824853442606
 20
1.413778548064686
 10
23.5480788446234
 20
1.4387318571649874
 10
23.412425144227605
 20
1.4638938244892308
 10
23.275567602947458
 20
1.4893987432745812
 10
23.13755069429045
 20
1.5152474739856456
 10
22.998286209580442
 20
1.5413498297650041
 10
22.857864210950655
 20
1.5675739208589488
 10
22.716283212071804
 20
1.5940978355412543
 10
22.573543583041374
 20
1.6208772296538398
 10
22.429644951163407
 20
1.647956758697922
 10
22.284632531996444
 20
1.675248372433993
 10
22.138506324798055
 20
1.7027521598172344
 10
21.991221853091023
 20
1.730467616203766
 10
21.84286769379294
 20
1.7584408066808819
 10
21.693399371169004
 20
1.78667113764952
 10
21.542862101148955
 20
1.815070514392582
 10
21.391255882247965
 20
1.8436391148204319
 10
21.238625188344763
 20
1.8723777549200842
 10
21.08492517175102
 20
1.9013304076385131
 10
20.930199563923274
 20
1.930586844144439
 10
20.774405001646404
 20
1.9600131714990152
 10
20.617674538315228
 20
1.989655959433415
 10
20.45992070730458
 20
2.019336110386104
 10
20.301143135547285
 20
2.04909832433589
 10
20.14142965865236
 20
2.0790774881189984
 10
19.98077990392385
 20
2.1093182572366467
 10
19.819106033896695
 20
2.1396859672405615
 10
19.656586690220184
 20
2.170094482121194
 10
19.49308881764346
 20
2.200497454535322
 10
19.328700251033094
 20
2.2310298602743566
 10
19.163376143071993
 20
2.2617356278076786
 10
18.997205814213576
 20
2.2925717336081037
 10
18.83014590198516
 20
2.323404195781603
 10
18.662240137843266
 20
2.354322785496898
 10
18.493487777880844
 20
2.3854166358460573
 10
18.323890677411
 20
2.416463447829999
 10
18.15344920653122
 20
2.447418877290643
 10
17.982250458428286
 20
2.4785067662459213
 10
17.810205852843726
 20
2.5096814499068585
 10
17.637403967808734
 20
2.5409888599279746
 10
17.46384702984755
 20
2.572162219719336
 10
17.289534666635426
 20
2.6032461403045675
 10
17.114466135007735
 20
2.634329665820557
 10
16.93864031947508
 20
2.665546451427815
 10
16.762147655609088
 20
2.6967198629162383
 10
16.58490067567094
 20
2.727670936157063
 10
16.407031692118082
 20
2.7585350181528057
 10
16.22844989631175
 20
2.7895334430923793
 10
16.049201248459955
 20
2.8204889386890257
 10
15.869287231551077
 20
2.8512238169672877
 10
15.688796054261275
 20
2.881828264784585
 10
15.507638392796226
 20
2.9123457059664197
 10
15.325902826300773
 20
2.9428219387345402
 10
15.143545249508808
 20
2.973211980854215
 10
14.960610879834922
 20
3.00342755969798
 10
14.777144192271487
 20
3.0334693578200804
 10
14.593100709970075
 20
3.0633369150542253
 10
14.40856938402907
 20
3.0930314630761306
 10
14.223461261865243
 20
3.122551948120445
 10
14.037864551412346
 20
3.1519886459997695
 10
13.851779624252682
 20
3.18129703464566
 10
13.66520833495696
 20
3.2102549040142185
 10
13.478149940360538
 20
3.2389512982423296
 10
13.290693020721895
 20
3.26743188211897
 10
13.102748252246705
 20
3.2957400794696428
 10
12.914405328455564
 20
3.3237881667883564
 10
12.725664620188365
 20
3.351531710961848
 10
12.536526498285014
 20
3.378926278876856
 10
12.346990218838437
 20
3.40606100362545
 10
12.157099887114759
 20
3.432980867442361
 10
11.966855502000339
 20
3.459686003760364
 10
11.776302652863299
 20
3.486043573405961
 10
11.585397234437528
 20
3.5120085941444197
 10
11.394184093297719
 20
3.5375372264615397
 10
11.20270659191656
 20
3.562763452251349
 10
11.010919139812287
 20
3.587820244120119
 10
10.818911431619146
 20
3.612619745129084
 10
10.626641960548769
 20
3.6368056299075437
 10
10.434108498220883
 20
3.660644897433385
 10
10.24139962675003
 20
3.6841829901076313
 10
10.048471610967566
 20
3.7073305815374695
 10
9.855324822455813
 20
3.7300431496544557
 10
9.662047099422255
 20
3.7524552699516804
 10
9.468594337343204
 20
3.774521871239229
 10
9.275012125215563
 20
3.7961101588211976
 10
9.08125598656212
 20
3.8172196280537043
 10
8.88741450349741
 20
3.837895721337772
 10
8.693487304067908
 20
3.8581830052194337
 10
8.499475502278143
 20
3.877948002448542
 10
8.305378726174593
 20
3.8972352795711305
 10
8.111241081394574
 20
3.9160897743443415
 10
7.917016977827551
 20
3.9346444148968525
 10
7.7227975956945984
 20
3.952633344971309
 10
7.528582934995724
 20
3.9700565645677073
 10
7.334372624891025
 20
3.986958506799313
 10
7.1401662934269785
 20
4.003383738212158
 10
6.946008789405541
 20
4.0192881524264985
 10
6.751855264767172
 20
4.034715766866898
 10
6.557795044048637
 20
4.049623068752673
 10
6.363828870043353
 20
4.063921058424525
 10
6.169956371540219
 20
4.07765421347331
 10
5.976177177699333
 20
4.090866967012287
 10
5.782491659731809
 20
4.103514841450606
 10
5.588989514499138
 20
4.115509712983955
 10
5.3956255223594685
 20
4.126940121105345
 10
5.202443418481436
 20
4.137895392207584
 10
5.00940058207215
 20
4.148152678170124
 10
4.816585224777467
 20
4.157801810029654
 10
4.6239962340776914
 20
4.1669760871259625
 10
4.431590246015304
 20
4.175541705475383
 10
4.239456958194219
 20
4.183410452318423
 10
4.047595628563432
 20
4.190671238359201
 10
3.8559625223255156
 20
4.19723469272731
 10
3.6646458522399636
 20
4.203190513026671
 10
3.4736018838805585
 20
4.208449283909291
 10
3.282919200846689
 20
4.2130562698658265
 10
3.092507735808167
 20
4.217143983336258
 10
2.902457186368918
 20
4.220624211561094
 10
2.712769037373372
 20
4.223319044176925
 10
2.5234429187240477
 20
4.225272825341832
 10
2.334522194007276
 20
4.226619403517069
 10
2.1460072359189977
 20
4.227314123201421
 10
1.9578984160415362
 20
4.227312462326445
 10
1.770240212336959
 20
4.226614747625657
 10
1.5829874051634016
 20
4.225309518592065
 10
1.3961837311743515
 20
4.223485923708116
 10
1.2098751528050913
 20
4.220966423821507
 10
1.0240624132202552
 20
4.217661974795355
 10
0.8387447711112632
 20
4.213661398378589
 10
0.6539663670092839
 20
4.209005451434812
 10
0.46968278345966097
 20
4.203686557383197
 10
0.2859381279557775
 20
4.197749431592933
 10
0.10277650687737303
 20
4.1912389228659785
 10
-0.07984507252197137
 20
4.183976749627818
 10
-0.2618821326514036
 20
4.175963283089558
 10
-0.4432920519756086
 20
4.1674212824165675
 10
-0.6241185656632238
 20
4.158261421216035
 10
-0.8042723473214373
 20
4.148439964319325
 10
-0.9838423521319553
 20
4.137956169304217
 10
-1.1627396249130681
 20
4.126810778592931
 10
-1.3409204304961424
 20
4.115093118578278
 10
-1.518474095273989
 20
4.102846924428896
 10
-1.6953542856002197
 20
4.089850179401628
 10
-1.8714742735597725
 20
4.076370491463806
 10
-2.046879279165711
 20
4.062496444586028
 10
-2.221611552742249
 20
4.04796080201207
 10
-2.395537661516828
 20
4.032764677375255
 10
-2.5687031967136202
 20
4.017041132237034
 10
-2.741108529543736
 20
4.0008346441882585
 10
-2.912752917584956
 20
3.984056258047222
 10
-3.083547776866686
 20
3.9667511938269935
 10
-3.2535820625706307
 20
3.9489187091053606
 10
-3.4227679331484064
 20
3.9306929790770924
 10
-3.591104646177799
 20
3.9119850485604846
 10
-3.7585918304476995
 20
3.8927504399646855
 10
-3.9252298571692172
 20
3.8730336308805478
 10
-4.090974991173714
 20
3.8529239477008823
 10
-4.25587171005204
 20
3.8324210192145833
 10
-4.419830316200279
 20
3.8114366326621605
 10
-4.582850809618429
 20
3.7899707880436138
 10
-4.744977296686233
 20
3.7679786365569816
 10
-4.90616567102395
 20
3.7455050270042247
 10
-5.0664170462649
 20
3.7226833921579026
 10
-5.225687316029334
 20
3.699558580819974
 10
-5.383974995472831
 20
3.6759526826270283
 10
-5.541324562186237
 20
3.6518653263679584
 10
-5.697602212185889
 20
3.627253148085234
 10
-5.852898014286813
 20
3.6022488381291975
 10
-6.007212339700119
 20
3.576896874090702
 10
-6.160456233244099
 20
3.5511979983919626
 10
-6.312629323707646
 20
3.525107733442127
 10
-6.463774975048291
 20
3.4984922752575294
 10
-6.61385019451961
 20
3.471529905412688
 10
-6.762856095754928
 20
3.4443540566801594
 10
-6.910746345107854
 20
3.41674271231679
 10
-7.057565420169237
 20
3.3886955011114708
 10
-7.203225108179592
 20
3.3603021206681225
 10
-7.347769886729768
 20
3.3315621997756386
 10
-7.491200127030875
 20
3.3025202160248694
 10
-7.6334702378587345
 20
3.2730431078543667
 10
-7.774580961635565
 20
3.243219830445834
 10
-7.9145322983613635
 20
3.213050383799273
 10
-8.053325732880563
 20
3.1827126782780937
 10
-8.190871938800347
 20
3.1521629787136582
 10
-8.327258757669101
 20
3.1212671099111935
 10
-8.462440969473757
 20
3.089936487900102
 10
-8.596375581467893
 20
3.058349394254902
 10
-8.729107813664573
 20
3.02659441294619
 10
-8.860591703628518
 20
2.994494004821665
 10
-8.990783516191092
 20
2.9621374962741376
 10
-9.119772577745099
 20
2.9295686224722473
 10
-9.247469933108844
 20
2.8967881258382087
 10
-9.373874468649001
 20
2.8636625735994627
 10
-9.498987297998887
 20
2.8303253985285686
 10
-9.62280879236962
 20
2.796821078216378
 10
-9.745338580550081
 20
2.7631051350720393
 10
-9.866532184949422
 20
2.729177940306659
 10
-9.98638923435654
 20
2.6949950163293845
 10
-10.104954577573393
 20
2.660600469519962
 10
-10.222139259418272
 20
2.6259950423006053
 10
-10.337944022313392
 20
2.5912676898530203
 10
-10.452457079018245
 20
2.556328714573287
 10
-10.565544996760277
 20
2.5211792300947264
 10
-10.677251881919227
 20
2.4857743876153804
 10
-10.787579219339525
 20
2.4502920974986586
 10
-10.89652700902118
 20
2.4147323597445602
 10
-11.004050030951111
 20
2.3790065903824895
 10
-11.11014791391822
 20
2.3430703118215916
 10
-11.214864764302252
 20
2.3068786752599073
 10
-11.318113482977031
 20
2.270654811073915
 10
-11.419938176322313
 20
2.234353870461655
 10
-11.520338101915875
 20
2.1978868982414204
 10
-11.619268782166866
 20
2.1612542656243203
 10
-11.716730959497502
 20
2.1245449277920594
 10
-11.812723891485568
 20
2.087669929562932
 10
-11.907247949342173
 20
2.0506737485277915
 10
-12.00030350427842
 20
2.0136008622774897
 10
-12.091845336281247
 20
1.9763626868414295
 10
-12.181874558983973
 20
1.9390926549921685
 10
-12.27043416513302
 20
1.9016124851551885
 10
-12.357481161981967
 20
1.864100458905008
 10
-12.443015178319708
 20
1.8265120986507744
 10
-12.527035842935131
 20
1.788802926801634
 10
-12.609498678237385
 20
1.7509733145686959
 10
-12.690448533028436
 20
1.7130673683317037
 10
-12.769842043350742
 20
1.675218892074324
 10
-12.847678466782103
 20
1.6373389306148516
 10
-12.923957803322502
 20
1.5994274839532854
 10
-12.998724901773912
 20
1.5615286584693717
 10
-13.071890435743516
 20
1.5235987189944722
 10
-13.143499625244381
 20
1.485726249499185
 10
-13.213508735107869
 20
1.4480005763763228
 10
-13.281962242924836
 20
1.4104213284147784
 10
-13.34881492868221
 20
1.3728999216439537
 10
-13.41411164118195
 20
1.3354804624435943
 10
-13.477763425242356
 20
1.2981636932359146
 10
-13.539859978467348
 20
1.2610378267804054
 10
-13.600312716886325
 20
1.2241480830901343
 10
-13.659165375667923
 20
1.1874051357722886
 10
-13.716417954812147
 20
1.1508089848268677
 10
-13.772070454318992
 20
1.114359630253872
 10
-13.826079139019825
 20
1.078146398446115
 10
-13.878444008914643
 20
1.0421692894035957
 10
-13.929208427960978
 20
1.0062944991426486
 10
-13.9783290322013
 20
0.9706558316469398
 10
-14.025804336791174
 20
0.9350753765530581
 10
-14.071635826575035
 20
0.8997310442244145
 10
-14.115822016708455
 20
0.8644449242975982
 10
-14.158363649613642
 20
0.8293059719543144
 10
-14.199260725290603
 20
0.7943141871945631
 10
-14.238468394937373
 20
0.7594254636385991
 10
-14.276076356157875
 20
0.7247280140459132
 10
-14.311950062546225
 20
0.6900895192772692
 10
-14.346223689297204
 20
0.6555978208810502
 10
-14.378807910017988
 20
0.6212091836886188
 10
-14.40970383834191
 20
0.5870570404725326
 10
-14.438955209437598
 20
0.5530520648399793
 10
-14.466517916925314
 20
0.5192391055929186
 10
-14.492393445649485
 20
0.48579607309476164
 10
-14.516625159567642
 20
0.4525891633618427
 10
-14.539169323511146
 20
0.41970770278697483
 10
-14.560026679902215
 20
0.3872406465518634
 10
-14.579198713585274
 20
0.3553659050199195
 10
-14.596685424560327
 20
0.32408347819114286
 10
-14.612532032840436
 20
0.29348195003613176
 10
-14.626651439299442
 20
0.2637844509313646
 10
-14.639089606372618
 20
0.23516852002914512
 10
-14.649894723761896
 20
0.20807856202689312
 10
-14.65898043476332
 20
0.1828266624827926
 10
-14.666397156345464
 20
0.1601240916393801
 10
-14.672195305476897
 20
0.14068211973919198
 10
-14.676294836042493
 20
0.12556895138490876
 10
-14.67874950591079
 20
0.1158961551367416
 10
-14.677222169949497
 20
-0.1683671810141571
 10
-14.676358163956817
 20
-0.17062848513660595
 10
-14.673766517189884
 20
-0.1773679199130996
 10
-14.669448714493127
 20
-0.18840757498022723
 10
-14.663353967686866
 20
-0.20450319817137788
 10
-14.655563436519557
 20
-0.22658956131667402
 10
-14.646051946377925
 20
-0.2523534584806657
 10
-14.634786527215452
 20
-0.2804157131358106
 10
-14.621860959958239
 20
-0.31019885902323796
 10
-14.607238562448684
 20
-0.34076849552393285
 10
-14.590878197995911
 20
-0.37172395310911316
 10
-14.572870677837154
 20
-0.40284358624673
 10
-14.553173009225993
 20
-0.43394911336226505
 10
-14.531786677006858
 20
-0.4648626240923074
 10
-14.508712423601963
 20
-0.49549516325515136
 10
-14.48395024901131
 20
-0.5258467308507971
 10
-14.457545002036854
 20
-0.5558732204994994
 10
-14.429452947509963
 20
-0.5854853058084453
 10
-14.39967371421953
 20
-0.6147274643684872
 10
-14.368252150967507
 20
-0.6435555897998803
 10
-14.335143037740837
 20
-0.6720582660732224
 10
-14.300346745750618
 20
-0.7001910155976605
 10
-14.263952972600777
 20
-0.7278656256137046
 10
-14.22582717188543
 20
-0.7552144152605902
 10
-14.186103147588243
 20
-0.7821940205807867
 10
-14.144691573316406
 20
-0.8088481767429324
 10
-14.101637297871877
 20
-0.8351327773672816
 10
-14.056940692465759
 20
-0.861003344862982
 10
-14.01060064346474
 20
-0.8865933120025915
 10
-13.962617893291027
 20
-0.9118137236044046
 10
-13.91299095710019
 20
-0.9368424900318326
 10
-13.861720948525555
 20
-0.9615461785123167
 10
-13.808851602735757
 20
-0.9860141154386702
 10
-13.754338442139948
 20
-1.0102459295997857
 10
-13.698180724315907
 20
-1.034330576177369
 10
-13.640423298065599
 20
-1.0582239487916738
 10
-13.581065792177913
 20
-1.0819705250335534
 10
-13.520108206652852
 20
-1.105570304903008
 10
-13.45750495026624
 20
-1.1291563499614883
 10
-13.393345349410886
 20
-1.1526849250403561
 10
-13.327540820116202
 20
-1.176110810126544
 10
-13.260180317563881
 20
-1.199434747642267
 10
-13.191218621740862
 20
-1.222745321558123
 10
-13.120700210238
 20
-1.2460429030852196
 10
-13.048580976675545
 20
-1.2692826434215962
 10
-12.974906141066567
 20
-1.2923759585966552
 10
-12.899630854609104
 20
-1.3153669549901417
 10
-12.822843701273758
 20
-1.3383008526151234
 10
-12.74450020346967
 20
-1.3611772802604927
 10
-12.664600361196847
 20
-1.3839962379262494
 10
-12.583145288088604
 20
-1.406624292839836
 10
-12.500179461735803
 20
-1.4290618162123594
 10
-12.41565840454758
 20
-1.4513084368327125
 10
-12.329625851692581
 20
-1.4734534810937077
 10
-12.242081803170805
 20
-1.4954969489953454
 10
-12.153027743826678
 20
-1.5172609301742142
 10
-12.062507408828843
 20
-1.538834751023128
 10
-11.970476691797547
 20
-1.5601735627401254
 10
-11.876935221521693
 20
-1.5813218429160596
 10
-11.781927475592123
 20
-1.6022799627620383
 10
-11.685453825219955
 20
-1.6230034446872088
 10
-11.587513899194075
 20
-1.6435367662824234
 10
-11.488107697514483
 20
-1.6638799275476823
 10
-11.387235591392288
 20
-1.6839884508921328
 10
-11.284941687207233
 20
-1.7039071851177352
 10
-11.181225984959324
 20
-1.7236361302244891
 10
-11.07604437826881
 20
-1.7431304374104348
 10
-10.969485079895183
 20
-1.762479804279492
 10
-10.861503983458697
 20
-1.7816393820297012
 10
-10.752100717748245
 20
-1.800653648251915
 10
-10.64132013156579
 20
-1.819478496566388
 10
-10.529163338544654
 20
-1.8379804942005618
 10
-10.415629225051507
 20
-1.8562930739269943
 10
-10.300672571073292
 20
-1.8745048197162844
 10
-10.184427180593667
 20
-1.8925723676109014
 10
-10.066804840853148
 20
-1.9104060200069246
 10
-9.947805923062834
 20
-1.9279612993135014
 10
-9.82751863998222
 20
-1.9453279031345523
 10
-9.705898142809348
 20
-1.9625499378498226
 10
-9.582945173966435
 20
-1.9795384482776068
 10
-9.458704211044322
 20
-1.9962938056290116
 10
-9.333175625254126
 20
-2.0127715323131854
 10
-9.206358302962526
 20
-2.0291050611026855
 10
-9.078252986591732
 20
-2.0452054368158077
 10
-8.948858933719533
 20
-2.061161614634256
 10
-8.818266213160951
 20
-2.076840904207687
 10
-8.686385498523178
 20
-2.0922870407047403
 10
-8.553261267397064
 20
-2.1075003953365217
 10
-8.418937626162357
 20
-2.1225258169049925
 10
-8.283370839650418
 20
-2.1372739790173383
 10
-8.146604643029887
 20
-2.1518342080663735
 10
-8.008683885102718
 20
-2.1661623976723527
 10
-7.869520353109427
 20
-2.1801688502313548
 10
-7.729203002231715
 20
-2.1938543081655943
 10
-7.587730718836261
 20
-2.20735220424763
 10
-7.445103502923066
 20
-2.2206625384774625
 10
-7.3013213544921305
 20
-2.233785310855091
 10
-7.156429864767627
 20
-2.2465874598190654
 10
-7.0104297761717715
 20
-2.2589800301876792
 10
-6.863275126269285
 20
-2.2711405611132367
 10
-6.715054870241866
 20
-2.283069795017952
 10
-6.565725272920882
 20
-2.2946784055090133
 10
-6.415331554319399
 20
-2.305877808615822
 10
-6.2638726008040955
 20
-2.316801437110936
 10
-6.111392147543608
 20
-2.3275386173871686
 10
-5.957846459369298
 20
-2.3380000230517064
 10
-5.803236649914491
 20
-2.348052221331992
 10
-5.647650931938674
 20
-2.3577849098319454
 10
-5.49108893423074
 20
-2.367242566142419
 10
-5.3334617016089885
 20
-2.3764244478411984
 10
-5.174903038057078
 20
-2.385287190970752
 10
-5.015369208406377
 20
-2.3937414691382686
 10
-4.854860212656881
 20
-2.4017872823437476
 10
-4.693420157188337
 20
-2.409469479389148
 10
-4.531047185945208
 20
-2.4170104482287353
 10
-4.367786890151668
 20
-2.4242771273010577
 10
-4.203596277061294
 20
-2.4310912350315963
 10
-4.038474975462981
 20
-2.4374972490112055
 10
-3.872511940538431
 20
-2.4434959116620987
 10
-3.705661209852364
 20
-2.44926476213658
 10
-3.5379680034178476
 20
-2.454715216464051
 10
-3.3694323212348802
 20
-2.459847274644512
 10
-3.2000549057256777
 20
-2.464571981496257
 10
-3.029835385679132
 20
-2.46893381461014
 10
-2.858861973854735
 20
-2.4730224715900806
 10
-2.687046457492997
 20
-2.4767482548321573
 10
-2.514478534197832
 20
-2.4800229515768812
 10
-2.3411578327581406
 20
-2.482891039415104
 10
-2.1670839819628105
 20
-2.485396995937679
 10
-1.9922128754320985
 20
-2.4874959723426464
 10
-1.816678688360779
 20
-2.4891001270816218
 10
-1.6404373143691016
 20
-2.490164611352646
 10
-1.463442048599572
 20
-2.490955919489728
 10
-1.2857822174450042
 20
-2.491430316324229
 10
-1.1075045257628944
 20
-2.4913213075221403
 10
-0.9285189047382164
 20
-2.490761583433806
 10
-0.7488694607507115
 20
-2.489795992861186
 10
-0.5686458914043037
 20
-2.488336323044789
 10
-0.3877596127283946
 20
-2.4863373539715483
 10
-0.20629957990468842
 20
-2.4837998280636784
 10
-0.02421983049790336
 20
-2.4809012844734823
 10
0.15843441547889364
 20
-2.4775531392303622
 10
0.3416168243793134
 20
-2.473533375591163
 10
0.5253729874275268
 20
-2.4689750551173337
 10
0.7096599118771165
 20
-2.4640564593833933
 10
0.8944320076175364
 20
-2.458644660260665
 10
1.0797334411647341
 20
-2.4527020143169045
 10
1.2655205115014923
 20
-2.4463219398832843
 10
1.4517917348970133
 20
-2.4393266600291663
 10
1.638547112093722
 20
-2.431716263709731
 10
1.8257436503451951
 20
-2.423669032499498
 10
2.013337244756526
 20
-2.4152299931107906
 10
2.201372002078681
 20
-2.4063543412192394
 10
2.3898023314586903
 20
-2.3969090597409837
 10
2.578628975689976
 20
-2.3869831483353217
 10
2.7678519362573946
 20
-2.3765767849126145
 10
2.957426735198869
 20
-2.36569029620638
 10
3.1473522599947175
 20
-2.3541903828768325
 10
3.3376292530671563
 20
-2.3421660001056774
 10
3.5281702440789022
 20
-2.32979580067854
 10
3.7190638184854046
 20
-2.317034742492717
 10
3.910219907100422
 20
-2.303750090720274
 10
4.101683359468338
 20
-2.289986040696137
 10
4.293365220407445
 20
-2.275743334842522
 10
4.485310339090915
 20
-2.2610661240167644
 10
4.67751834467885
 20
-2.2459099751056026
 10
4.86990065320066
 20
-2.230320108122104
 10
5.062502484669403
 20
-2.214385107036868
 10
5.2553234689876085
 20
-2.1980606276918127
 10
5.448274278648832
 20
-2.181302801485528
 10
5.641399763197454
 20
-2.1641558237529406
 10
5.834656187464836
 20
-2.1467090208868647
 10
6.0280865445686125
 20
-2.128784155790372
 10
6.2216026210068724
 20
-2.110470837112201
 10
6.415205159201827
 20
-2.091858020034058
 10
6.608893788313585
 20
-2.0729012714426793
 10
6.802667765919925
 20
-2.0535116361563612
 10
6.996527834814283
 20
-2.033778113834399
 10
7.190385780381101
 20
-2.01379017969276
 10
7.384285338531447
 20
-1.9934585962938112
 10
7.578183145307789
 20
-1.9729171676212196
 10
7.77207808633438
 20
-1.9520323719472448
 10
7.965969790771327
 20
-1.9307597761586248
 10
8.159859001040841
 20
-1.9091883354370658
 10
8.353657873367275
 20
-1.8874519581117946
 10
8.547410886455115
 20
-1.8655504064044768
 10
8.741072448337764
 20
-1.8433505297984805
 10
8.934642929483907
 20
-1.820896716929476
 10
9.128122330264754
 20
-1.7981890122750543
 10
9.321511021148988
 20
-1.7752718044708868
 10
9.514719673887747
 20
-1.7521011359603806
 10
9.70779313839662
 20
-1.7287212465560546
 10
9.900687306068596
 20
-1.705176718194323
 10
10.093447398772796
 20
-1.6815563572337386
 10
10.285982973142188
 20
-1.6576825954347871
 10
10.478294400759088
 20
-1.6335999548659126
 10
10.670428015269888
 20
-1.609530452270271
 10
10.862292632370183
 20
-1.585207742137007
 10
11.053887879735232
 20
-1.5605872134424945
 10
11.245260463336166
 20
-1.535935493953516
 10
11.436322167443798
 20
-1.511341925453264
 10
11.627115243124765
 20
-1.4865393601406969
 10
11.81759558251448
 20
-1.4615724689074112
 10
12.007718705794819
 20
-1.43644135609897
 10
12.197529834092487
 20
-1.4112347391187428
 10
12.386984859171672
 20
-1.385997244380736
 10
12.576084151129868
 20
-1.36077321604303
 10
12.764782488840352
 20
-1.335473936702254
 10
12.953079128396082
 20
-1.3100102732663388
 10
13.140975183059162
 20
-1.284515614030252
 10
13.328470652458378
 20
-1.258989914516403
 10
13.515476948539819
 20
-1.2334779054843596
 10
13.702083029083655
 20
-1.2079791558550435
 10
13.888198821562757
 20
-1.182360530502202
 10
14.07382469644581
 20
-1.1566664180615065
 10
14.258962508303497
 20
-1.1311190285768575
 10
14.443611886295937
 20
-1.1056739289349926
 10
14.627683127993455
 20
-1.0802423281677407
 10
14.811265562387346
 20
-1.0548682727868752
 10
14.994269859001472
 20
-1.0295075383702594
 10
15.176740496169105
 20
-1.0041598426619667
 10
15.358633736123139
 20
-0.9789142007116747
 10
15.539905098674234
 20
-0.9537706723873545
 10
15.720599804949092
 20
-0.9288179750923771
 10
15.90062778130695
 20
-0.9039228402677176
 10
16.080077985527982
 20
-0.8790848368342972
 10
16.258861087136054
 20
-0.8542597403699792
 10
16.43697931154175
 20
-0.829714194031925
 10
16.61438817892697
 20
-0.8054483021656972
 10
16.791174419805234
 20
-0.7811947681471006
 10
16.967204223511082
 20
-0.7569094274219693
 10
17.142569517513564
 20
-0.7329476696380461
 10
17.317180970965314
 20
-0.7092652258956033
 10
17.49103709716587
 20
-0.6856839634432754
 10
17.664137895372793
 20
-0.6622037933258809
 10
17.83648373568357
 20
-0.6388690597014997
 10
18.008076473411297
 20
-0.615902061569214
 10
18.1788264050127
 20
-0.5932138745280794
 10
18.34882137574826
 20
-0.5706707681592313
 10
18.517972424496893
 20
-0.5482727732434312
 10
18.686280292567186
 20
-0.5261087115296117
 10
18.853745721638926
 20
-0.5042674492442967
 10
19.020367967805058
 20
-0.4826598532954174
 10
19.186102549762612
 20
-0.4612858501181726
 10
19.350994689009504
 20
-0.4402342015935237
 10
19.514955424424663
 20
-0.4195049385022319
 10
19.67802812145044
 20
-0.3989644347709952
 10
19.84012381822334
 20
-0.3786126322253929
 10
20.001376696248734
 20
-0.3585381285328527
 10
20.161609576449084
 20
-0.33883002939178414
 10
20.320911418089416
 20
-0.3194880816334719
 10
20.479281848473786
 20
-0.30046762975669983
 10
20.636631164058883
 20
-0.2816797493605236
 10
20.79295973419977
 20
-0.2631686956478415
 10
20.948356889001374
 20
-0.24497864856320017
 10
21.10268955873559
 20
-0.22715422082377584
 10
21.25600296415791
 20
-0.20978408535534826
 10
21.40825151033205
 20
-0.19273473582055803
 10
21.55947930475139
 20
-0.17596145685021758
 10
21.709642237324076
 20
-0.15950865247037857
 10
21.85874030656525
 20
-0.14337614477067756
 10
22.00673014443407
 20
-0.12769724848128083
 10
22.153655116744126
 20
-0.11233838200647697
 10
22.2994266324718
 20
-0.09734392028510741
 10
22.444088427899363
 20
-0.08262467035713181
 10
22.587641615917725
 20
-0.06831397603992662
 10
22.730042085692602
 20
-0.05445615240436175
 10
22.871288722105824
 20
-0.04091758876751567
 10
23.011381524043756
 20
-0.027698151696615773
 10
23.15032049002156
 20
-0.014797663281298614
 10
23.28801740059795
 20
-0.0023050205288490974
 10
23.42456195746015
 20
0.009691074547742495
 10
23.559907822878476
 20
0.021413127945132147
 10
23.694010886389826
 20
0.032816780114858765
 10
23.826915626698714
 20
0.04390226883525756
 10
23.958578304553168
 20
0.05458075696701473
 10
24.088954067067913
 20
0.06489684014337511
 10
24.21813150266807
 20
0.07489520464631594
 10
24.34602276238104
 20
0.0844425648328814
 10
24.472627102670966
 20
0.09362800931754932
 10
24.59794489363534
 20
0.10240719394223965
 10
24.721975019784768
 20
0.11091377386746486
 10
24.844718222427844
 20
0.119058927344292
 10
24.96613001951917
 20
0.12684281689270394
 10
25.086210781156232
 20
0.13422109835462043
 10
25.20500461557481
 20
0.1412383981440473
 10
25.322422188957894
 20
0.14793934098143965
 10
25.438463499449412
 20
0.15432414925475169
 10
25.553173398078606
 20
0.16034844971869305
 10
25.66655225642778
 20
0.16596772030482
 10
25.77851000605312
 20
0.17131460688588515
 10
25.889091092621328
 20
0.17639330574580922
 10
25.998296665773204
 20
0.18106606978572137
 10
26.10608185888865
 20
0.1853791403097278
 10
26.21244592880303
 20
0.1894215614547156
 10
26.31743409738547
 20
0.1931045268621325
 10
26.420957772869937
 20
0.19638375054831894
 10
26.523060692281128
 20
0.1993483365181335
 10
26.623742483294293
 20
0.20204289579520138
 10
26.722958664235257
 20
0.20446754642191461
 10
26.820709976412626
 20
0.20653346664934033
 10
26.9169960467592
 20
0.2082853564562854
 10
27.011816132110372
 20
0.20981225997963718
 10
27.105170602192395
 20
0.21106987753890627
 10
27.19701571812451
 20
0.21196932751718822
 10
27.287351478050677
 20
0.21251083230243736
 10
27.376220877315774
 20
0.21287236212603605
 10
27.463579804714346
 20
0.21300964639470535
 10
27.549428259875157
 20
0.212922729586036
 10
27.633766612153263
 20
0.21256735649712954
 10
27.7165503802457
 20
0.21194360069278706
 10
27.797824043228168
 20
0.21105165547375263
 10
27.877542377746696
 20
0.20998050510894192
 10
27.95570612436745
 20
0.2086414168046038
 10
28.032314539925792
 20
0.2071234346976254
 10
28.10741284666205
 20
0.20533770795186354
 10
28.180911339548082
 20
0.20337333887862594
 10
28.252854127190908
 20
0.20127490941432755
 10
28.32319709912745
 20
0.19899806001050774
 10
28.391985106386937
 20
0.1964984174218759
 10
28.459172921903303
 20
0.19386541069325652
 10
28.52480576606081
 20
0.19101041137646052
 10
28.588793586006517
 20
0.18806419728542462
 10
28.651225684375717
 20
0.18498587981732556
 10
28.712013109698823
 20
0.1817742717740399
 10
28.771200341793964
 20
0.17842947750113006
 10
28.8287873799187
 20
0.1749515859537776
 10
28.884773851748307
 20
0.17138520815560793
 10
28.939115647562122
 20
0.16768589560297853
 10
28.99181202345309
 20
0.16394278138795823
 10
29.042907831564087
 20
0.16011135883248417
 10
29.09235821826739
 20
0.1562363125249826
 10
29.1401635544029
 20
0.15227320935219174
 10
29.186323468388302
 20
0.14826657138255517
 10
29.23083833032107
 20
0.1441720544579927
 10
29.273707768618895
 20
0.14003418064694792
 10
29.314931040488325
 20
0.1359419496087171
 10
29.354464406306207
 20
0.1318065686815777
 10
29.39239645672494
 20
0.12767245728196183
 10
29.428593376624523
 20
0.1235843136951257
 10
29.46318898001131
 20
0.11949757306858559
 10
29.49609430427939
 20
0.11541238253194387
 10
29.52730860663533
 20
0.11141774174449685
 10
29.556876738850775
 20
0.1074691885057723
 10
29.584754219251554
 20
0.10356684085816238
 10
29.610940305415458
 20
0.09979965398337243
 10
29.63548021995403
 20
0.09607873256766837
 10
29.658328739513287
 20
0.09249306087996605
 10
29.679486234561935
 20
0.08899825028459439
 10
29.698951962677747
 20
0.0856832559632588
 10
29.716726295071844
 20
0.08250360032510674
 10
29.732853340722425
 20
0.07950382082896215
 10
29.747244137394794
 20
0.07668402012683653
 10
29.759942795180805
 20
0.07408860224478149
 10
29.770993794640983
 20
0.07171758257317765
 10
29.78030817354064
 20
0.06957106376403634
 10
29.787929670018073
 20
0.06773801638944373
 10
29.793903137329796
 20
0.06617380033856408
 10
29.798138869334025
 20
0.06496765135547775
 10
29.800680977236258
 20
0.06416384003346393
 10
29.80152871750063
 20
0.06385145498700043
  0
ENDSEC
  0
SECTION
  2
OBJECTS
  0
DICTIONARY
  5
A
330
0
100
AcDbDictionary
280
0
281
1
  3
ACAD_COLOR
350
B
  3
ACAD_GROUP
350
C
  3
ACAD_LAYOUT
350
D
  3
ACAD_MATERIAL
350
E
  3
ACAD_MLEADERSTYLE
350
F
  3
ACAD_MLINESTYLE
350
10
  3
ACAD_PLOTSETTINGS
350
11
  3
ACAD_PLOTSTYLENAME
350
12
  3
ACAD_SCALELIST
350
14
  3
ACAD_TABLESTYLE
350
15
  3
ACAD_VISUALSTYLE
350
16
  3
EZDXF_META
350
2D
  0
DICTIONARY
  5
B
330
A
100
AcDbDictionary
280
0
281
1
  0
DICTIONARY
  5
C
330
A
100
AcDbDictionary
280
0
281
1
  0
DICTIONARY
  5
D
330
A
100
AcDbDictionary
280
0
281
1
  3
Model
350
1A
  3
Layout1
350
1E
  0
DICTIONARY
  5
E
330
A
100
AcDbDictionary
280
0
281
1
  3
ByBlock
350
1F
  3
ByLayer
350
20
  3
Global
350
21
  0
DICTIONARY
  5
F
330
A
100
AcDbDictionary
280
0
281
1
  3
Standard
350
2C
  0
DICTIONARY
  5
10
330
A
100
AcDbDictionary
280
0
281
1
  3
Standard
350
22
  0
DICTIONARY
  5
11
330
A
100
AcDbDictionary
280
0
281
1
  0
ACDBDICTIONARYWDFLT
  5
12
330
A
100
AcDbDictionary
280
0
281
1
  3
Normal
350
13
100
AcDbDictionaryWithDefault
340
13
  0
ACDBPLACEHOLDER
  5
13
330
12
  0
DICTIONARY
  5
14
330
A
100
AcDbDictionary
280
0
281
1
  0
DICTIONARY
  5
15
330
A
100
AcDbDictionary
280
0
281
1
  0
DICTIONARY
  5
16
330
A
100
AcDbDictionary
280
0
281
1
  0
LAYOUT
  5
1A
330
D
100
AcDbPlotSettings
  1

  4
A3
  6

 40
7.5
 41
20.0
 42
7.5
 43
20.0
 44
420.0
 45
297.0
 46
0.0
 47
0.0
 48
0.0
 49
0.0
140
0.0
141
0.0
142
1.0
143
1.0
 70
1024
 72
1
 73
0
 74
5
  7

 75
16
 76
0
 77
2
 78
300
147
1.0
148
0.0
149
0.0
100
AcDbLayout
  1
Model
 70
1
 71
0
 10
0.0
 20
0.0
 11
420.0
 21
297.0
 12
0.0
 22
0.0
 32
0.0
 14
1e+20
 24
1e+20
 34
1e+20
 15
-1e+20
 25
-1e+20
 35
-1e+20
146
0.0
 13
0.0
 23
0.0
 33
0.0
 16
1.0
 26
0.0
 36
0.0
 17
0.0
 27
1.0
 37
0.0
 76
1
330
17
  0
LAYOUT
  5
1E
330
D
100
AcDbPlotSettings
  1

  4
A3
  6

 40
7.5
 41
20.0
 42
7.5
 43
20.0
 44
420.0
 45
297.0
 46
0.0
 47
0.0
 48
0.0
 49
0.0
140
0.0
141
0.0
142
1.0
143
1.0
 70
0
 72
1
 73
0
 74
5
  7

 75
16
 76
0
 77
2
 78
300
147
1.0
148
0.0
149
0.0
100
AcDbLayout
  1
Layout1
 70
1
 71
1
 10
0.0
 20
0.0
 11
420.0
 21
297.0
 12
0.0
 22
0.0
 32
0.0
 14
1e+20
 24
1e+20
 34
1e+20
 15
-1e+20
 25
-1e+20
 35
-1e+20
146
0.0
 13
0.0
 23
0.0
 33
0.0
 16
1.0
 26
0.0
 36
0.0
 17
0.0
 27
1.0
 37
0.0
 76
1
330
1B
  0
MATERIAL
  5
1F
102
{ACAD_REACTORS
330
E
102
}
330
E
100
AcDbMaterial
  1
ByBlock
  2

 70
0
 40
1.0
 71
1
 41
1.0
 91
-1023410177
 42
1.0
 72
1
  3

 73
1
 74
1
 75
1
 44
0.5
 73
0
 45
1.0
 46
1.0
 77
1
  4

 78
1
 79
1
170
1
 48
1.0
171
1
  6

172
1
173
1
174
1
140
1.0
141
1.0
175
1
  7

176
1
177
1
178
1
143
1.0
179
1
  8

270
1
271
1
272
1
145
1.0
146
1.0
273
1
  9

274
1
275
1
276
1
 42
1.0
 72
1
  3

 73
1
 74
1
 75
1
 94
63
  0
MATERIAL
  5
20
102
{ACAD_REACTORS
330
E
102
}
330
E
100
AcDbMaterial
  1
ByLayer
  2

 70
0
 40
1.0
 71
1
 41
1.0
 91
-1023410177
 42
1.0
 72
1
  3

 73
1
 74
1
 75
1
 44
0.5
 73
0
 45
1.0
 46
1.0
 77
1
  4

 78
1
 79
1
170
1
 48
1.0
171
1
  6

172
1
173
1
174
1
140
1.0
141
1.0
175
1
  7

176
1
177
1
178
1
143
1.0
179
1
  8

270
1
271
1
272
1
145
1.0
146
1.0
273
1
  9

274
1
275
1
276
1
 42
1.0
 72
1
  3

 73
1
 74
1
 75
1
 94
63
  0
MATERIAL
  5
21
102
{ACAD_REACTORS
330
E
102
}
330
E
100
AcDbMaterial
  1
Global
  2

 70
0
 40
1.0
 71
1
 41
1.0
 91
-1023410177
 42
1.0
 72
1
  3

 73
1
 74
1
 75
1
 44
0.5
 73
0
 45
1.0
 46
1.0
 77
1
  4

 78
1
 79
1
170
1
 48
1.0
171
1
  6

172
1
173
1
174
1
140
1.0
141
1.0
175
1
  7

176
1
177
1
178
1
143
1.0
179
1
  8

270
1
271
1
272
1
145
1.0
146
1.0
273
1
  9

274
1
275
1
276
1
 42
1.0
 72
1
  3

 73
1
 74
1
 75
1
 94
63
  0
MLINESTYLE
  5
22
102
{ACAD_REACTORS
330
10
102
}
330
10
100
AcDbMlineStyle
  2
Standard
 70
0
  3

 62
256
 51
90.0
 52
90.0
 71
2
 49
0.5
 62
256
  6
BYLAYER
 49
-0.5
 62
256
  6
BYLAYER
  0
MLEADERSTYLE
  5
2C
102
{ACAD_REACTORS
330
F
102
}
330
F
100
AcDbMLeaderStyle
179
2
170
2
171
1
172
0
 90
2
 40
0.0
 41
0.0
173
1
 91
-1056964608
 92
-2
290
1
 42
2.0
291
1
 43
8.0
  3
Standard
 44
4.0
300

342
29
174
1
175
1
176
0
178
1
 93
-1056964608
 45
4.0
292
0
297
0
 46
4.0
 94
-1056964608
 47
1.0
 49
1.0
140
1.0
294
1
141
0.0
177
0
142
1.0
295
0
296
0
143
3.75
271
0
272
9
273
9
  0
DICTIONARY
  5
2D
330
A
100
AcDbDictionary
280
1
281
1
  3
CREATED_BY_EZDXF
350
2E
  3
WRITTEN_BY_EZDXF
350
32
  0
DICTIONARYVAR
  5
2E
330
2D
100
DictionaryVariables
280
0
  1
1.3.5 @ 2025-08-20T01:28:30.703447+00:00
  0
DICTIONARYVAR
  5
32
330
2D
100
DictionaryVariables
280
0
  1
1.3.5 @ 2025-08-20T01:28:30.703447+00:00
  0
ENDSEC
  0
EOF
