  0
SECTION
  2
HEADER
  9
$ACADVER
  1
AC1032
  9
$ACADMAINTVER
 90
4
  9
$DWGCODEPAGE
  3
ANSI_1252
  9
$LASTSAVEDBY
  1
ezdxf
  9
$REQUIREDVERSIONS
160
0
  9
$INSBASE
 10
0.0
 20
0.0
 30
0.0
  9
$EXTMIN
 10
1e+20
 20
1e+20
 30
1e+20
  9
$EXTMAX
 10
-1e+20
 20
-1e+20
 30
-1e+20
  9
$LIMMIN
 10
0.0
 20
0.0
  9
$LIMMAX
 10
420.0
 20
297.0
  9
$ORTHOMODE
 70
0
  9
$REGENMODE
 70
1
  9
$FILLMODE
 70
1
  9
$QTEXTMODE
 70
0
  9
$MIRRTEXT
 70
1
  9
$LTSCALE
 40
1.0
  9
$ATTMODE
 70
1
  9
$TEXTSIZE
 40
2.5
  9
$TRACEWID
 40
1.0
  9
$TEXTSTYLE
  7
Standard
  9
$CLAYER
  8
0
  9
$CELTYPE
  6
ByLayer
  9
$CECOLOR
 62
256
  9
$CELTSCALE
 40
1.0
  9
$DISPSILH
 70
0
  9
$DIMSCALE
 40
1.0
  9
$DIMASZ
 40
2.5
  9
$DIMEXO
 40
0.625
  9
$DIMDLI
 40
3.75
  9
$DIMRND
 40
0.0
  9
$DIMDLE
 40
0.0
  9
$DIMEXE
 40
1.25
  9
$DIMTP
 40
0.0
  9
$DIMTM
 40
0.0
  9
$DIMTXT
 40
2.5
  9
$DIMCEN
 40
2.5
  9
$DIMTSZ
 40
0.0
  9
$DIMTOL
 70
0
  9
$DIMLIM
 70
0
  9
$DIMTIH
 70
0
  9
$DIMTOH
 70
0
  9
$DIMSE1
 70
0
  9
$DIMSE2
 70
0
  9
$DIMTAD
 70
1
  9
$DIMZIN
 70
8
  9
$DIMBLK
  1

  9
$DIMASO
 70
1
  9
$DIMSHO
 70
1
  9
$DIMPOST
  1

  9
$DIMAPOST
  1

  9
$DIMALT
 70
0
  9
$DIMALTD
 70
3
  9
$DIMALTF
 40
0.03937007874
  9
$DIMLFAC
 40
1.0
  9
$DIMTOFL
 70
1
  9
$DIMTVP
 40
0.0
  9
$DIMTIX
 70
0
  9
$DIMSOXD
 70
0
  9
$DIMSAH
 70
0
  9
$DIMBLK1
  1

  9
$DIMBLK2
  1

  9
$DIMSTYLE
  2
ISO-25
  9
$DIMCLRD
 70
0
  9
$DIMCLRE
 70
0
  9
$DIMCLRT
 70
0
  9
$DIMTFAC
 40
1.0
  9
$DIMGAP
 40
0.625
  9
$DIMJUST
 70
0
  9
$DIMSD1
 70
0
  9
$DIMSD2
 70
0
  9
$DIMTOLJ
 70
0
  9
$DIMTZIN
 70
8
  9
$DIMALTZ
 70
0
  9
$DIMALTTZ
 70
0
  9
$DIMUPT
 70
0
  9
$DIMDEC
 70
2
  9
$DIMTDEC
 70
2
  9
$DIMALTU
 70
2
  9
$DIMALTTD
 70
3
  9
$DIMTXSTY
  7
Standard
  9
$DIMAUNIT
 70
0
  9
$DIMADEC
 70
0
  9
$DIMALTRND
 40
0.0
  9
$DIMAZIN
 70
0
  9
$DIMDSEP
 70
44
  9
$DIMATFIT
 70
3
  9
$DIMFRAC
 70
0
  9
$DIMLDRBLK
  1

  9
$DIMLUNIT
 70
2
  9
$DIMLWD
 70
-2
  9
$DIMLWE
 70
-2
  9
$DIMTMOVE
 70
0
  9
$DIMFXL
 40
1.0
  9
$DIMFXLON
 70
0
  9
$DIMJOGANG
 40
0.785398163397
  9
$DIMTFILL
 70
0
  9
$DIMTFILLCLR
 70
0
  9
$DIMARCSYM
 70
0
  9
$DIMLTYPE
  6

  9
$DIMLTEX1
  6

  9
$DIMLTEX2
  6

  9
$DIMTXTDIRECTION
 70
0
  9
$LUNITS
 70
2
  9
$LUPREC
 70
4
  9
$SKETCHINC
 40
1.0
  9
$FILLETRAD
 40
10.0
  9
$AUNITS
 70
0
  9
$AUPREC
 70
2
  9
$MENU
  1
.
  9
$ELEVATION
 40
0.0
  9
$PELEVATION
 40
0.0
  9
$THICKNESS
 40
0.0
  9
$LIMCHECK
 70
0
  9
$CHAMFERA
 40
0.0
  9
$CHAMFERB
 40
0.0
  9
$CHAMFERC
 40
0.0
  9
$CHAMFERD
 40
0.0
  9
$SKPOLY
 70
0
  9
$TDCREATE
 40
2460909.7880092594
  9
$TDUCREATE
 40
2458532.153996898
  9
$TDUPDATE
 40
2460909.7880092594
  9
$TDUUPDATE
 40
2458532.1544311
  9
$TDINDWG
 40
0.0
  9
$TDUSRTIMER
 40
0.0
  9
$USRTIMER
 70
1
  9
$ANGBASE
 50
0.0
  9
$ANGDIR
 70
0
  9
$PDMODE
 70
0
  9
$PDSIZE
 40
0.0
  9
$PLINEWID
 40
0.0
  9
$SPLFRAME
 70
0
  9
$SPLINETYPE
 70
6
  9
$SPLINESEGS
 70
8
  9
$HANDSEED
  5
33
  9
$SURFTAB1
 70
6
  9
$SURFTAB2
 70
6
  9
$SURFTYPE
 70
6
  9
$SURFU
 70
6
  9
$SURFV
 70
6
  9
$UCSBASE
  2

  9
$UCSNAME
  2

  9
$UCSORG
 10
0.0
 20
0.0
 30
0.0
  9
$UCSXDIR
 10
1.0
 20
0.0
 30
0.0
  9
$UCSYDIR
 10
0.0
 20
1.0
 30
0.0
  9
$UCSORTHOREF
  2

  9
$UCSORTHOVIEW
 70
0
  9
$UCSORGTOP
 10
0.0
 20
0.0
 30
0.0
  9
$UCSORGBOTTOM
 10
0.0
 20
0.0
 30
0.0
  9
$UCSORGLEFT
 10
0.0
 20
0.0
 30
0.0
  9
$UCSORGRIGHT
 10
0.0
 20
0.0
 30
0.0
  9
$UCSORGFRONT
 10
0.0
 20
0.0
 30
0.0
  9
$UCSORGBACK
 10
0.0
 20
0.0
 30
0.0
  9
$PUCSBASE
  2

  9
$PUCSNAME
  2

  9
$PUCSORG
 10
0.0
 20
0.0
 30
0.0
  9
$PUCSXDIR
 10
1.0
 20
0.0
 30
0.0
  9
$PUCSYDIR
 10
0.0
 20
1.0
 30
0.0
  9
$PUCSORTHOREF
  2

  9
$PUCSORTHOVIEW
 70
0
  9
$PUCSORGTOP
 10
0.0
 20
0.0
 30
0.0
  9
$PUCSORGBOTTOM
 10
0.0
 20
0.0
 30
0.0
  9
$PUCSORGLEFT
 10
0.0
 20
0.0
 30
0.0
  9
$PUCSORGRIGHT
 10
0.0
 20
0.0
 30
0.0
  9
$PUCSORGFRONT
 10
0.0
 20
0.0
 30
0.0
  9
$PUCSORGBACK
 10
0.0
 20
0.0
 30
0.0
  9
$USERI1
 70
0
  9
$USERI2
 70
0
  9
$USERI3
 70
0
  9
$USERI4
 70
0
  9
$USERI5
 70
0
  9
$USERR1
 40
0.0
  9
$USERR2
 40
0.0
  9
$USERR3
 40
0.0
  9
$USERR4
 40
0.0
  9
$USERR5
 40
0.0
  9
$WORLDVIEW
 70
1
  9
$SHADEDGE
 70
3
  9
$SHADEDIF
 70
70
  9
$TILEMODE
 70
1
  9
$MAXACTVP
 70
64
  9
$PINSBASE
 10
0.0
 20
0.0
 30
0.0
  9
$PLIMCHECK
 70
0
  9
$PEXTMIN
 10
1e+20
 20
1e+20
 30
1e+20
  9
$PEXTMAX
 10
-1e+20
 20
-1e+20
 30
-1e+20
  9
$PLIMMIN
 10
0.0
 20
0.0
  9
$PLIMMAX
 10
420.0
 20
297.0
  9
$UNITMODE
 70
0
  9
$VISRETAIN
 70
1
  9
$PLINEGEN
 70
0
  9
$PSLTSCALE
 70
1
  9
$TREEDEPTH
 70
3020
  9
$CMLSTYLE
  2
Standard
  9
$CMLJUST
 70
0
  9
$CMLSCALE
 40
20.0
  9
$PROXYGRAPHICS
 70
1
  9
$MEASUREMENT
 70
1
  9
$CELWEIGHT
370
-1
  9
$ENDCAPS
280
0
  9
$JOINSTYLE
280
0
  9
$LWDISPLAY
290
0
  9
$INSUNITS
 70
6
  9
$HYPERLINKBASE
  1

  9
$STYLESHEET
  1

  9
$XEDIT
290
1
  9
$CEPSNTYPE
380
0
  9
$PSTYLEMODE
290
1
  9
$FINGERPRINTGUID
  2
{E00F6B90-4017-4E96-BBCB-A4722B84BB7E}
  9
$VERSIONGUID
  2
{20DE571B-9F8D-4DCF-AA21-40BCBBAD591F}
  9
$EXTNAMES
290
1
  9
$PSVPSCALE
 40
0.0
  9
$OLESTARTUP
290
0
  9
$SORTENTS
280
127
  9
$INDEXCTL
280
0
  9
$HIDETEXT
280
1
  9
$XCLIPFRAME
280
1
  9
$HALOGAP
280
0
  9
$OBSCOLOR
 70
257
  9
$OBSLTYPE
280
0
  9
$INTERSECTIONDISPLAY
280
0
  9
$INTERSECTIONCOLOR
 70
257
  9
$DIMASSOC
280
2
  9
$PROJECTNAME
  1

  9
$CAMERADISPLAY
290
0
  9
$LENSLENGTH
 40
50.0
  9
$CAMERAHEIGHT
 40
0.0
  9
$STEPSPERSEC
 40
24.0
  9
$STEPSIZE
 40
100.0
  9
$3DDWFPREC
 40
2.0
  9
$PSOLWIDTH
 40
0.005
  9
$PSOLHEIGHT
 40
0.08
  9
$LOFTANG1
 40
1.570796326795
  9
$LOFTANG2
 40
1.570796326795
  9
$LOFTMAG1
 40
0.0
  9
$LOFTMAG2
 40
0.0
  9
$LOFTPARAM
 70
7
  9
$LOFTNORMALS
280
1
  9
$LATITUDE
 40
37.795
  9
$LONGITUDE
 40
-122.394
  9
$NORTHDIRECTION
 40
0.0
  9
$TIMEZONE
 70
-8000
  9
$LIGHTGLYPHDISPLAY
280
1
  9
$TILEMODELIGHTSYNCH
280
1
  9
$CMATERIAL
347
20
  9
$SOLIDHIST
280
0
  9
$SHOWHIST
280
1
  9
$DWFFRAME
280
2
  9
$DGNFRAME
280
2
  9
$REALWORLDSCALE
290
1
  9
$INTERFERECOLOR
 62
256
  9
$CSHADOW
280
0
  9
$SHADOWPLANELOCATION
 40
0.0
  0
ENDSEC
  0
SECTION
  2
CLASSES
  0
CLASS
  1
ACDBDICTIONARYWDFLT
  2
AcDbDictionaryWithDefault
  3
ObjectDBX Classes
 90
0
 91
0
280
0
281
0
  0
CLASS
  1
SUN
  2
AcDbSun
  3
SCENEOE
 90
1153
 91
0
280
0
281
0
  0
CLASS
  1
VISUALSTYLE
  2
AcDbVisualStyle
  3
ObjectDBX Classes
 90
4095
 91
0
280
0
281
0
  0
CLASS
  1
MATERIAL
  2
AcDbMaterial
  3
ObjectDBX Classes
 90
1153
 91
0
280
0
281
0
  0
CLASS
  1
SCALE
  2
AcDbScale
  3
ObjectDBX Classes
 90
1153
 91
0
280
0
281
0
  0
CLASS
  1
TABLESTYLE
  2
AcDbTableStyle
  3
ObjectDBX Classes
 90
4095
 91
0
280
0
281
0
  0
CLASS
  1
MLEADERSTYLE
  2
AcDbMLeaderStyle
  3
ACDB_MLEADERSTYLE_CLASS
 90
4095
 91
0
280
0
281
0
  0
CLASS
  1
DICTIONARYVAR
  2
AcDbDictionaryVar
  3
ObjectDBX Classes
 90
0
 91
0
280
0
281
0
  0
CLASS
  1
CELLSTYLEMAP
  2
AcDbCellStyleMap
  3
ObjectDBX Classes
 90
1152
 91
0
280
0
281
0
  0
CLASS
  1
MENTALRAYRENDERSETTINGS
  2
AcDbMentalRayRenderSettings
  3
SCENEOE
 90
1024
 91
0
280
0
281
0
  0
CLASS
  1
ACDBDETAILVIEWSTYLE
  2
AcDbDetailViewStyle
  3
ObjectDBX Classes
 90
1025
 91
0
280
0
281
0
  0
CLASS
  1
ACDBSECTIONVIEWSTYLE
  2
AcDbSectionViewStyle
  3
ObjectDBX Classes
 90
1025
 91
0
280
0
281
0
  0
CLASS
  1
RASTERVARIABLES
  2
AcDbRasterVariables
  3
ISM
 90
0
 91
0
280
0
281
0
  0
CLASS
  1
LAYOUT
  2
AcDbLayout
  3
ObjectDBX Classes
 90
0
 91
0
280
0
281
0
  0
CLASS
  1
ACDBPLACEHOLDER
  2
AcDbPlaceHolder
  3
ObjectDBX Classes
 90
0
 91
0
280
0
281
0
  0
ENDSEC
  0
SECTION
  2
TABLES
  0
TABLE
  2
VPORT
  5
8
330
0
100
AcDbSymbolTable
 70
1
  0
VPORT
  5
23
330
8
100
AcDbSymbolTableRecord
100
AcDbViewportTableRecord
  2
*Active
 70
0
 10
0.0
 20
0.0
 11
1.0
 21
1.0
 12
0.0
 22
0.0
 13
0.0
 23
0.0
 14
0.5
 24
0.5
 15
0.5
 25
0.5
 16
0.0
 26
0.0
 36
1.0
 17
0.0
 27
0.0
 37
0.0
 40
1000.0
 41
1.34
 42
50.0
 43
0.0
 44
0.0
 50
0.0
 51
0.0
 71
0
 72
1000
 73
1
 74
3
 75
0
 76
0
 77
0
 78
0
281
0
 65
0
146
0.0
  0
ENDTAB
  0
TABLE
  2
LTYPE
  5
2
330
0
100
AcDbSymbolTable
 70
3
  0
LTYPE
  5
24
330
2
100
AcDbSymbolTableRecord
100
AcDbLinetypeTableRecord
  2
ByBlock
 70
0
  3

 72
65
 73
0
 40
0.0
  0
LTYPE
  5
25
330
2
100
AcDbSymbolTableRecord
100
AcDbLinetypeTableRecord
  2
ByLayer
 70
0
  3

 72
65
 73
0
 40
0.0
  0
LTYPE
  5
26
330
2
100
AcDbSymbolTableRecord
100
AcDbLinetypeTableRecord
  2
Continuous
 70
0
  3

 72
65
 73
0
 40
0.0
  0
ENDTAB
  0
TABLE
  2
LAYER
  5
1
330
0
100
AcDbSymbolTable
 70
2
  0
LAYER
  5
27
330
1
100
AcDbSymbolTableRecord
100
AcDbLayerTableRecord
  2
0
 70
0
 62
7
  6
Continuous
370
-3
390
13
347
21
  0
LAYER
  5
28
330
1
100
AcDbSymbolTableRecord
100
AcDbLayerTableRecord
  2
Defpoints
 70
0
 62
7
  6
Continuous
290
0
370
-3
390
13
347
21
  0
ENDTAB
  0
TABLE
  2
STYLE
  5
5
330
0
100
AcDbSymbolTable
 70
1
  0
STYLE
  5
29
330
5
100
AcDbSymbolTableRecord
100
AcDbTextStyleTableRecord
  2
Standard
 70
0
 40
0.0
 41
1.0
 50
0.0
 71
0
 42
2.5
  3
txt
  4

  0
ENDTAB
  0
TABLE
  2
VIEW
  5
7
330
0
100
AcDbSymbolTable
 70
0
  0
ENDTAB
  0
TABLE
  2
UCS
  5
6
330
0
100
AcDbSymbolTable
 70
0
  0
ENDTAB
  0
TABLE
  2
APPID
  5
3
330
0
100
AcDbSymbolTable
 70
3
  0
APPID
  5
2A
330
3
100
AcDbSymbolTableRecord
100
AcDbRegAppTableRecord
  2
ACAD
 70
0
  0
APPID
  5
30
330
3
100
AcDbSymbolTableRecord
100
AcDbRegAppTableRecord
  2
HATCHBACKGROUNDCOLOR
 70
0
  0
APPID
  5
31
330
3
100
AcDbSymbolTableRecord
100
AcDbRegAppTableRecord
  2
EZDXF
 70
0
  0
ENDTAB
  0
TABLE
  2
DIMSTYLE
  5
4
330
0
100
AcDbSymbolTable
 70
1
100
AcDbDimStyleTable
  0
DIMSTYLE
105
2B
330
4
100
AcDbSymbolTableRecord
100
AcDbDimStyleTableRecord
  2
Standard
 70
0
 40
1.0
 41
2.5
 42
0.625
 43
3.75
 44
1.25
 45
0.0
 46
0.0
 47
0.0
 48
0.0
 49
2.5
140
2.5
141
2.5
142
0.0
143
0.03937007874
144
1.0
145
0.0
146
1.0
147
0.625
148
0.0
 69
0
 70
0
 71
0
 72
0
 73
0
 74
0
 75
0
 76
0
 77
1
 78
8
 79
3
170
0
171
3
172
1
173
0
174
0
175
0
176
0
177
0
178
0
179
2
271
2
272
2
273
2
274
3
275
0
276
0
277
2
278
44
279
0
280
0
281
0
282
0
283
0
284
8
285
0
286
0
288
0
289
3
290
0
371
-2
372
-2
  0
ENDTAB
  0
TABLE
  2
BLOCK_RECORD
  5
9
330
0
100
AcDbSymbolTable
 70
2
  0
BLOCK_RECORD
  5
17
330
9
100
AcDbSymbolTableRecord
100
AcDbBlockTableRecord
  2
*Model_Space
340
1A
 70
0
280
1
281
0
  0
BLOCK_RECORD
  5
1B
330
9
100
AcDbSymbolTableRecord
100
AcDbBlockTableRecord
  2
*Paper_Space
340
1E
 70
0
280
1
281
0
  0
ENDTAB
  0
ENDSEC
  0
SECTION
  2
BLOCKS
  0
BLOCK
  5
18
330
17
100
AcDbEntity
  8
0
100
AcDbBlockBegin
  2
*Model_Space
 70
0
 10
0.0
 20
0.0
 30
0.0
  3
*Model_Space
  1

  0
ENDBLK
  5
19
330
17
100
AcDbEntity
  8
0
100
AcDbBlockEnd
  0
BLOCK
  5
1C
330
1B
100
AcDbEntity
  8
0
100
AcDbBlockBegin
  2
*Paper_Space
 70
0
 10
0.0
 20
0.0
 30
0.0
  3
*Paper_Space
  1

  0
ENDBLK
  5
1D
330
1B
100
AcDbEntity
  8
0
100
AcDbBlockEnd
  0
ENDSEC
  0
SECTION
  2
ENTITIES
  0
LWPOLYLINE
  5
2F
330
17
100
AcDbEntity
  8
0
100
AcDbPolyline
 90
722
 70
1
 10
86.4443665137272
 20
43.85890086599682
 10
86.44145464521166
 20
43.85854423631222
 10
86.43284987002454
 20
43.857214475712276
 10
86.41881339143599
 20
43.8543927497464
 10
86.39908555336687
 20
43.85027163304135
 10
86.37412051419508
 20
43.84459539289287
 10
86.34372390232151
 20
43.837426927766536
 10
86.30783178440765
 20
43.828570043417585
 10
86.26670253074093
 20
43.81815790581922
 10
86.22027220798277
 20
43.805994320726676
 10
86.16828096400457
 20
43.79227225218462
 10
86.11111786875358
 20
43.77686525423198
 10
86.04865357371152
 20
43.759707068397105
 10
85.98082272904847
 20
43.7409275006471
 10
85.90775603442427
 20
43.72026693904774
 10
85.82932265947942
 20
43.6979852551452
 10
85.74571717186247
 20
43.67401916105595
 10
85.65681022305512
 20
43.64830239830834
 10
85.56253646322745
 20
43.620964772869456
 10
85.46315567915832
 20
43.59181345050066
 10
85.35840788801934
 20
43.561041654858485
 10
85.24842372412061
 20
43.5283899038147
 10
85.13333079273986
 20
43.494251105082675
 10
85.01280679025108
 20
43.45829589844448
 10
84.88723917406074
 20
43.42072422756885
 10
84.75636950853152
 20
43.38140305628855
 10
84.62032681543259
 20
43.34039929210509
 10
84.47911102941413
 20
43.29771306482445
 10
84.33265673529637
 20
43.253474310219715
 10
84.18096373702986
 20
43.20768341770878
 10
84.02416266892457
 20
43.1600809051634
 10
83.86212276597082
 20
43.11092651432372
 10
83.69503833441794
 20
43.06015747653018
 10
83.52271480661722
 20
43.0078370796662
 10
83.34528262082932
 20
42.953706231021506
 10
83.16274029521298
 20
42.89809106061388
 10
82.97502228388879
 20
42.84112176382836
 10
82.78232450564686
 20
42.78240918237555
 10
82.58438684695923
 20
42.72214679952394
 10
82.38153302794325
 20
42.66033797527963
 10
82.17343906708224
 20
42.5969798688604
 10
81.96036326931383
 20
42.53220577604541
 10
81.74217622076988
 20
42.46594956816896
 10
81.51900700856937
 20
42.39827802292658
 10
81.29079156867411
 20
42.32899520568548
 10
81.05765898820306
 20
42.25816789414117
 10
80.81934915362825
 20
42.185989571562175
 10
80.57618571971723
 20
42.11246372776054
 10
80.32803927260188
 20
42.03752423407059
 10
80.07490968158253
 20
41.96117135010421
 10
79.81679661991005
 20
41.883405724891276
 10
79.55376395557313
 20
41.80442368248249
 10
79.28574749383392
 20
41.72402954785698
 10
79.0128110373313
 20
41.64241977487141
 10
78.73501960914604
 20
41.55946520658854
 10
78.45250384358816
 20
41.47490636088009
 10
78.16526199741715
 20
41.38906988698778
 10
77.87303402245487
 20
41.302149138374155
 10
77.57581959195215
 20
41.21414476406904
 10
77.27394390786759
 20
41.12473399406069
 10
76.96734135897192
 20
41.03404715354008
 10
76.65601181456549
 20
40.94208450211916
 10
76.33975889840941
 20
40.84923610672908
 10
76.01890916360377
 20
40.7548533269522
 10
75.69346099760773
 20
40.65926255241829
 10
75.36334885454185
 20
40.56259397851236
 10
75.02837790535831
 20
40.464911412341785
 10
74.68887173947476
 20
40.36621847352457
 10
74.3447662275032
 20
40.266319357233876
 10
73.99606123874396
 20
40.165214323081614
 10
73.64275502995652
 20
40.063230020309526
 10
73.28510873906122
 20
39.95984774427299
 10
72.9228623178799
 20
39.85526084843457
 10
72.5562085908207
 20
39.7497326941525
 10
72.18514736183405
 20
39.64326367084464
 10
71.8096799167117
 20
39.535528037911085
 10
71.42974057887457
 20
39.42665625034878
 10
71.04558765326023
 20
39.31678160393687
 10
70.65696096099096
 20
39.20609771174985
 10
70.26405635550701
 20
39.09421554530428
 10
69.86700285857748
 20
38.98120201210168
 10
69.46580027415294
 20
38.86705750155995
 10
69.06031757582439
 20
38.75204227464316
 10
68.65055456754233
 20
38.63615672076921
 10
68.23657640308717
 20
38.51927142338886
 10
67.81870673722653
 20
38.401389872314205
 10
67.39662139239414
 20
38.28250961618091
 10
66.970449455709
 20
38.16269743268452
 10
66.54051606377989
 20
38.04163068161925
 10
66.10662625685923
 20
37.91937342970441
 10
65.66871307257627
 20
37.79638187253688
 10
65.22690559804998
 20
37.672722787812226
 10
64.78107563985414
 20
37.54800443607075
 10
64.33167768311571
 20
37.421970435578324
 10
63.878450067115786
 20
37.29514052942731
 10
63.421457945634735
 20
37.16738530106845
 10
62.96063570744335
 20
37.03883507569278
 10
62.49624307397062
 20
36.90929714886756
 10
62.028279914516894
 20
36.778771780204735
 10
61.55661661916449
 20
36.64719323045646
 10
61.081446208371005
 20
36.51482447156309
 10
60.60263920291849
 20
36.38159950466487
 10
60.12045538958573
 20
36.24732549552311
 10
59.63489450697339
 20
36.11200296336168
 10
59.146085707550306
 20
35.97569855607018
 10
58.65383403156895
 20
35.83847634036789
 10
58.15813793183828
 20
35.700662576078635
 10
57.659063782580624
 20
35.561802235859226
 10
57.156934214171095
 20
35.42222403089779
 10
56.651751667493485
 20
35.281276739606376
 10
56.14345046596869
 20
35.139090816981934
 10
55.63209312644394
 20
34.9961884574811
 10
55.117614037689975
 20
34.852699986294866
 10
54.599950356110455
 20
34.70810385799641
 10
54.079750044738766
 20
34.5624057541502
 10
53.55669014645061
 20
34.415277612597926
 10
53.030833047393486
 20
34.26724188740815
 10
52.501983853169726
 20
34.11836251549421
 10
51.97046647994619
 20
33.96864246744432
 10
51.43634743264479
 20
33.81762645630332
 10
50.89962516407456
 20
33.66564074189505
 10
50.360168713176314
 20
33.51294545537759
 10
49.8183046984
 20
33.35889182652732
 10
49.27409827352602
 20
33.203350438795006
 10
48.72748125574176
 20
33.04710309857154
 10
48.178260036441216
 20
32.88988800217031
 10
47.62662783213138
 20
32.73196773211371
 10
47.072976611092145
 20
32.57256371221102
 10
46.51724082744404
 20
32.41180613784722
 10
45.95928965082762
 20
32.249954880568495
 10
45.39892670500398
 20
32.08740000730602
 10
44.83667221702904
 20
31.923754551522784
 10
44.27252843173706
 20
31.758367681048714
 10
43.70668754124268
 20
31.591827199782305
 10
43.13856364191093
 20
31.42465052925754
 10
42.56854754692959
 20
31.256384574271678
 10
41.996900328869145
 20
31.086510759986083
 10
41.4237501811559
 20
30.91542082586047
 10
40.848772599474515
 20
30.74311296956034
 10
40.272160996381515
 20
30.569849384190213
 10
39.693851111789165
 20
30.39543452453516
 10
39.11410299387563
 20
30.219675037132642
 10
38.53304599115922
 20
30.04263718045434
 10
37.95055042837244
 20
29.864255345058396
 10
37.366875198601434
 20
29.684661658470294
 10
36.78176114736076
 20
29.50372451238842
 10
36.19533633737704
 20
29.32183590588442
 10
35.60766618383001
 20
29.138865903185195
 10
35.01907717446992
 20
28.95416599367906
 10
34.429438478937286
 20
28.76799604891216
 10
33.838943705838126
 20
28.580617872571114
 10
33.247268350857105
 20
28.39202966232145
 10
32.654802006740155
 20
28.202103933754394
 10
32.06160995796736
 20
28.01071101070881
 10
31.467757489018798
 20
27.817721217023536
 10
30.87311363883531
 20
27.62339468385667
 10
30.277742667504647
 20
27.427926956423168
 10
29.68164437897728
 20
27.231318424140905
 10
29.085144301960916
 20
27.033245667968288
 10
28.48817817636788
 20
26.833513142690403
 10
27.890940765896193
 20
26.632057171005844
 10
27.29336556562392
 20
26.42933303986974
 10
26.695126850793844
 20
26.22566455774158
 10
26.09661441020141
 20
26.020923850794706
 10
25.498221432568293
 20
25.814006732044383
 10
24.89955562286553
 20
25.605692426711208
 10
24.30081091644826
 20
25.39624208945195
 10
23.70198820700924
 20
25.185330758502477
 10
23.103152909728163
 20
24.97282849808969
 10
22.50436799890109
 20
24.759256594028486
 10
21.90556934513993
 20
24.54441924149198
 10
21.307082411802586
 20
24.32799315124456
 10
20.70877758897144
 20
24.1099125840384
 10
20.110848812001645
 20
23.8904386945303
 10
19.51323060036363
 20
23.669701548299283
 10
18.91611906889697
 20
23.447311597638056
 10
18.319448737072076
 20
23.223398908125656
 10
17.723283930326524
 20
22.99815889517106
 10
17.127298989252907
 20
22.771915237427788
 10
16.532145232665982
 20
22.544020577588785
 10
15.937822660565745
 20
22.314474915654042
 10
15.344265988472113
 20
22.083407927784727
 10
14.751409735855509
 20
21.85094967955987
 10
14.159449058512962
 20
21.617035714842277
 10
13.568188931347098
 20
21.381730230157224
 10
12.977953989372933
 20
21.145034768227248
 10
12.38887499760009
 20
20.906689587312155
 10
11.800886606198693
 20
20.66682449337907
 10
11.213923530688625
 20
20.42556916258912
 10
10.628051120899833
 20
20.182793788975218
 10
10.043659557726679
 20
19.938369719874874
 10
9.460488400892086
 20
19.692491087586454
 10
8.878536756703308
 20
19.44548285387409
 10
8.298001699042487
 20
19.196630379460363
 10
7.7190119441345075
 20
18.946324365357228
 10
7.141371638539144
 20
18.69495384004814
 10
6.565147025779004
 20
18.442064035801828
 10
5.9907284174481585
 20
18.1875260403439
 10
5.417985179236609
 20
17.93159933580262
 10
4.846918270186891
 20
17.67395883060787
 10
4.277656602573413
 20
17.414994836353713
 10
3.710201200788543
 20
17.15438213166407
 10
3.144746261586766
 20
16.892381351971853
 10
2.5808363849434373
 20
16.629250696294708
 10
2.0188618824526023
 20
16.364861252358228
 10
1.4590841534339303
 20
16.09869379629397
 10
0.901438044106989
 20
15.830877744651133
 10
0.34585724559932485
 20
15.561867994966947
 10
-0.20759263085982585
 20
15.291534222050435
 10
-0.7588461700907322
 20
15.019746490128506
 10
-1.3077735007764313
 20
14.746570019225116
 10
-1.8546350631940431
 20
14.47219894163861
 10
-2.3994314896369784
 20
14.196957699909257
 10
-2.9417715748184445
 20
13.92039241999852
 10
-3.4815244883789545
 20
13.642243230360238
 10
-4.01882073392886
 20
13.362769353510734
 10
-4.5535898431465895
 20
13.082154003098061
 10
-5.085951035326839
 20
12.800310800725635
 10
-5.615839658282887
 20
12.51743451277259
 10
-6.1431912558775625
 20
12.233720295035944
 10
-6.667874234758305
 20
11.948583573817327
 10
-7.189758788957997
 20
11.662089698946666
 10
-7.709041861659112
 20
11.37495305008943
 10
-8.225722559168918
 20
11.086848665481485
 10
-8.739475919723288
 20
10.797777438815547
 10
-9.250561555256441
 20
10.507608670431782
 10
-9.75871985383415
 20
10.21647305999003
 10
-10.263951709149131
 20
9.924695569254421
 10
-10.766582082965526
 20
9.632275304532246
 10
-11.266154420166648
 20
9.338628585817847
 10
-11.762801207797757
 20
9.044664948573743
 10
-12.256782951485787
 20
8.75057865490425
 10
-12.747837358218383
 20
8.455525519176758
 10
-13.235575010094193
 20
8.159701590881019
 10
-13.720321762570073
 20
7.863430938088457
 10
-14.202142965475938
 20
7.566843366766189
 10
-14.680907919151956
 20
7.269679264979989
 10
-15.156422361493817
 20
6.972199138356795
 10
-15.628945904435753
 20
6.674272287236781
 10
-16.098414985533275
 20
6.37641882918112
 10
-16.564698905126555
 20
6.078379152255581
 10
-17.02773231338568
 20
5.780023450493053
 10
-17.487580560140557
 20
5.481481529860647
 10
-17.94424453908391
 20
5.183078352122512
 10
-18.397854056182847
 20
4.884748567448728
 10
-18.848018799843317
 20
4.586363263564898
 10
-19.29473877006531
 20
4.287922440471022
 10
-19.73807842298604
 20
3.9892309423700683
 10
-20.177973302468285
 20
3.6904839250590693
 10
-20.614619458001815
 20
3.392070806439367
 10
-21.047952433449407
 20
3.0941867423079947
 10
-21.47771082949142
 20
2.7963125087964884
 10
-21.904024452094955
 20
2.4983827560749376
 10
-22.326438533528766
 20
2.2004637276659693
 10
-22.74540873521682
 20
1.902814141811101
 10
-23.161000406989025
 20
1.6055638044774423
 10
-23.572953936911166
 20
1.30884341532483
 10
-23.981203975153317
 20
1.0125231683861444
 10
-24.385684278192855
 20
0.7161482959301251
 10
-24.786526439382317
 20
0.4203033716551508
 10
-25.18392650821146
 20
0.12537781346256152
 10
-25.577427929563587
 20
-0.16921205865329808
 10
-25.967160509405804
 20
-0.4635315945223449
 10
-26.35299533546373
 20
-0.7571904825505188
 10
-26.73506221370447
 20
-1.0502540725677354
 10
-27.113426493957938
 20
-1.3425925586068825
 10
-27.487762320767274
 20
-1.6345300087393813
 10
-27.858200393792313
 20
-1.9258068110310118
 10
-28.224740713033047
 20
-2.2164229654817698
 10
-28.587644677809145
 20
-2.5058592482231945
 10
-28.946587326356457
 20
-2.7941147655625747
 10
-29.30163222111947
 20
-3.0817096350610815
 10
-29.65251885647124
 20
-3.3688381188230294
 10
-29.999378825764307
 20
-3.6549156431500456
 10
-30.34247263462562
 20
-3.939747945937819
 10
-30.681409077768404
 20
-4.223788901224887
 10
-31.016189048885373
 20
-4.5067135472471085
 10
-31.34713750974067
 20
-4.7885227776972
 10
-31.67399484840007
 20
-5.069085892915325
 10
-31.996565015373825
 20
-5.34879231080284
 10
-32.315044060151685
 20
-5.6272526134583885
 10
-32.62949733256356
 20
-5.904336994914866
 10
-32.939859482779525
 20
-6.180175261139377
 10
-33.2460007048325
 20
-6.454702062302014
 10
-33.54785564889252
 20
-6.72804720436989
 10
-33.84561947075666
 20
-7.000146231205803
 10
-34.13903255849066
 20
-7.270868443149927
 10
-34.42822561175437
 20
-7.539954228268028
 10
-34.71332754282218
 20
-7.80779389815417
 10
-34.993948933792744
 20
-8.074191403318604
 10
-35.270154240803265
 20
-8.339341899558361
 10
-35.542204863173396
 20
-8.602726163004984
 10
-35.81010080090315
 20
-8.864344193658473
 10
-36.073581548365574
 20
-9.124390253623138
 10
-36.33258175573076
 20
-9.382994148866096
 10
-36.5871658791359
 20
-9.640351035184386
 10
-36.83740105579635
 20
-9.89568118308259
 10
-37.083351741849285
 20
-10.14917974835774
 10
-37.324887237634904
 20
-10.401106342944074
 10
-37.56187773718607
 20
-10.651395617011673
 10
-37.79445394016264
 20
-10.899787958626304
 10
-38.022485146904764
 20
-11.1465429797222
 10
-38.246036707242354
 20
-11.391530874332247
 10
-38.46517397100533
 20
-11.634621836489329
 10
-38.679636432566745
 20
-11.876010128297755
 10
-38.88962014141636
 20
-12.11530633185619
 10
-39.0949935042016
 20
-12.353095020863005
 10
-39.29588811427504
 20
-12.588791621619823
 10
-39.492238621806756
 20
-12.822525940093763
 10
-39.683979676966814
 20
-13.054427782251935
 10
-39.87098147378813
 20
-13.284431798264432
 10
-40.05343916806772
 20
-13.512473531994042
 10
-40.231419003328206
 20
-13.738098215709517
 10
-40.40479027990977
 20
-13.96156546134508
 10
-40.57355299781239
 20
-14.182875268900736
 10
-40.737902312833135
 20
-14.401963182239282
 10
-40.897513263207834
 20
-14.618828307668
 10
-41.05264635456343
 20
-14.83327638308258
 10
-41.20330248059265
 20
-15.044982446718883
 10
-41.349611447262596
 20
-15.254011848406813
 10
-41.49131274894633
 20
-15.460558850250687
 10
-41.62860154144089
 20
-15.664558996113312
 10
-41.76121821281203
 20
-15.86588158633485
 10
-41.889553074653826
 20
-16.064397708640907
 10
-42.01341186486194
 20
-16.259846857404533
 10
-42.13279368974369
 20
-16.45255399438988
 10
-42.24769854929906
 20
-16.642519119596944
 10
-42.358126443528036
 20
-16.829742233025723
 10
-42.46407826612335
 20
-17.013898372912074
 10
-42.565554017085006
 20
-17.194987539256
 10
-42.66248745289035
 20
-17.373464499788756
 10
-42.75494481706204
 20
-17.54887448677908
 10
-42.8426647102804
 20
-17.721736724095447
 10
-42.92590853186509
 20
-17.891531987869374
 10
-43.00441488249646
 20
-18.058779501969333
 10
-43.078314461834324
 20
-18.2232196544611
 10
-43.147607269878705
 20
-18.384852445344666
 10
-43.21209815083256
 20
-18.543742330757237
 10
-43.272177416289935
 20
-18.699760398424406
 10
-43.32725959885976
 20
-18.853100016757775
 10
-43.37786481610321
 20
-19.003697623312867
 10
-43.42366810625613
 20
-19.15155232439696
 10
-43.46486551880827
 20
-19.296274702108708
 10
-43.50145616006691
 20
-19.43818971821225
 10
-43.53337557389485
 20
-19.577102216910575
 10
-43.560885159611765
 20
-19.712492974335213
 10
-43.58391867369501
 20
-19.84481675821742
 10
-43.6024770098373
 20
-19.973748606793052
 10
-43.616690867698466
 20
-20.09902890812789
 10
-43.62682164659818
 20
-20.220138438353462
 10
-43.63286934653643
 20
-20.33707719746978
 10
-43.635094473140164
 20
-20.449650923372527
 10
-43.63356416362473
 20
-20.557079886566292
 10
-43.62866962327689
 20
-20.658910213012536
 10
-43.621194156362925
 20
-20.75390919287003
 10
-43.611335599758
 20
-20.84103748470914
 10
-43.60026935670788
 20
-20.91828354288595
 10
-43.58917083045831
 20
-20.983635821756533
 10
-43.57934880499301
 20
-21.03384827845031
 10
-43.572566832027
 20
-21.065741113619342
 10
-43.15738238241554
 20
-21.896572696217305
 10
-43.151583227714696
 20
-21.90195115377177
 10
-43.13425111344208
 20
-21.917956720468037
 10
-43.105647438917366
 20
-21.94407017243766
 10
-43.06453145106486
 20
-21.982432861291663
 10
-43.009790415390604
 20
-22.035901411999284
 10
-42.94469271708304
 20
-22.09766056444065
 10
-42.871134394902434
 20
-22.16362098380529
 10
-42.790224608571904
 20
-22.23222589218055
 10
-42.70320589855254
 20
-22.300684014427105
 10
-42.61053660734647
 20
-22.36776174701101
 10
-42.51280309603751
 20
-22.432940759756512
 10
-42.410136957978175
 20
-22.49563647896525
 10
-42.30279959248816
 20
-22.555329680768757
 10
-42.19092169922728
 20
-22.61176075323281
 10
-42.07450327819552
 20
-22.6649296963574
 10
-41.953739485189935
 20
-22.714772054005344
 10
-41.82863121390322
 20
-22.760962864412473
 10
-41.69911311450548
 20
-22.80363193354593
 10
-41.56538034279373
 20
-22.842714805268493
 10
-41.427172393141035
 20
-22.878405741684485
 10
-41.28455461537728
 20
-22.91057493682679
 10
-41.13791732109657
 20
-22.93909347842101
 10
-40.9866750429078
 20
-22.964154734878747
 10
-40.831282548542205
 20
-22.985824949722627
 10
-40.67141487623567
 20
-23.00410322925993
 10
-40.50726718178521
 20
-23.018925117353465
 10
-40.33890481502075
 20
-23.030160808036115
 10
-40.166131726452534
 20
-23.03819971920922
 10
-39.98907861574039
 20
-23.042782238938553
 10
-39.80748408356467
 20
-23.044427591092585
 10
-39.62154417941512
 20
-23.04274635776995
 10
-39.431258009599006
 20
-23.0380635007348
 10
-39.236495768149226
 20
-23.030313670157227
 10
-39.03712675540596
 20
-23.019756477971455
 10
-38.83334612716622
 20
-23.006327468040286
 10
-38.625088533600106
 20
-22.990156446330833
 10
-38.41235397470761
 20
-22.971243412843098
 10
-38.19481659503187
 20
-22.949912435648507
 10
-37.97280135633702
 20
-22.926164408439778
 10
-37.74611399651877
 20
-22.899738825589964
 10
-37.51501412751134
 20
-22.8707663867589
 10
-37.27924124368779
 20
-22.83944135405089
 10
-37.03892515101521
 20
-22.80582907729586
 10
-36.79400139335644
 20
-22.769734400696777
 10
-36.54473047633838
 20
-22.73096306214933
 10
-36.290917244164035
 20
-22.689579517790705
 10
-36.03275595893771
 20
-22.64584427324786
 10
-35.77011681469229
 20
-22.599691978690878
 10
-35.50299981142776
 20
-22.551122634119753
 10
-35.231600998633894
 20
-22.49974682163315
 10
-34.95605018227778
 20
-22.445629891060975
 10
-34.676217556392324
 20
-22.38870649257332
 10
-34.39210222728478
 20
-22.32930158793432
 10
-34.10370419495519
 20
-22.267415177143988
 10
-33.811284858723184
 20
-22.20252803633386
 10
-33.514843324896056
 20
-22.134965127268075
 10
-33.214315137336605
 20
-22.064531294149614
 10
-32.90963494621492
 20
-21.99135634294558
 10
-32.60093255749811
 20
-21.91550562348589
 10
-32.28827332101609
 20
-21.836849329803435
 10
-31.971591886938953
 20
-21.75551726786533
 10
-31.650888255266693
 20
-21.671509437671567
 10
-31.32622777582921
 20
-21.584696033255042
 10
-30.99767490476373
 20
-21.49527221041278
 10
-30.665229642070248
 20
-21.403237969144772
 10
-30.328827531611545
 20
-21.308398153654
 10
-29.98859748566204
 20
-21.211143075534522
 10
-29.644475048084537
 20
-21.111277578989306
 10
-29.29639486904909
 20
-21.008931469985466
 10
-28.94455210435277
 20
-20.9040402923858
 10
-28.58914280348529
 20
-20.796214628288972
 10
-28.22997091695692
 20
-20.685843895596317
 10
-27.86677593914071
 20
-20.573122356412156
 10
-27.500012637767924
 20
-20.45811625425912
 10
-27.129552100564155
 20
-20.340435277543143
 10
-26.75545967735932
 20
-20.21994962029711
 10
-26.377864280427833
 20
-20.097049594115088
 10
-25.996570753972634
 20
-19.971799655134273
 10
-25.61170979765359
 20
-19.843940191420437
 10
-25.223411217437786
 20
-19.713536552803486
 10
-24.83174036315515
 20
-19.58045893331632
 10
-24.436501185315933
 20
-19.445096750860277
 10
-24.03782438357997
 20
-19.30719039350112
 10
-23.635579258287425
 20
-19.16699947317309
 10
-23.23022147086228
 20
-19.02426527163466
 10
-22.82142605954038
 20
-18.878986895193133
 10
-22.409322830288847
 20
-18.731229693678404
 10
-21.99397623924488
 20
-18.581188822887515
 10
-21.57538718010119
 20
-18.428539321056324
 10
-21.15355475916507
 20
-18.273606149948964
 10
-20.72867413223354
 20
-18.116324853428246
 10
-20.300616387032207
 20
-17.9563051199001
 10
-19.8696411354953
 20
-17.793677649024367
 10
-19.435552328133067
 20
-17.628831858702384
 10
-18.998349964945525
 20
-17.461767748934154
 10
-18.55803404593265
 20
-17.292485319719674
 10
-18.11493042655132
 20
-17.12066050298752
 10
-17.66916980646136
 20
-16.94603368680346
 10
-17.220360980375997
 20
-16.769058745206035
 10
-16.768763560229456
 20
-16.589866377855078
 10
-16.314378439714446
 20
-16.408131622986446
 10
-15.85746612445793
 20
-16.22366021849582
 10
-15.397830564970148
 20
-16.036841582284545
 10
-14.935470867558392
 20
-15.84800067611677
 10
-14.470387925915377
 20
-15.65681253822835
 10
-14.002777789530843
 20
-15.462887750717934
 10
-13.53276937067919
 20
-15.26661662517959
 10
-13.060297319530505
 20
-15.068128967580428
 10
-12.585102024150563
 20
-14.867294078260617
 10
-12.107638252270613
 20
-14.664178200742787
 10
-11.627906897583383
 20
-14.4584563732628
 10
-11.145907960088858
 20
-14.25012859582065
 10
-10.661705895924252
 20
-14.03939002421337
 10
-10.17497395593998
 20
-13.826889688276527
 10
-9.686037995592907
 20
-13.6123035199387
 10
-9.195029608235577
 20
-13.39504694550151
 10
-8.701883444038074
 20
-13.175249770932076
 10
-8.206859114934629
 20
-12.953042695890229
 10
-7.7095654156384645
 20
-12.728879594414504
 10
-7.2102628517765295
 20
-12.502566204400594
 10
-6.7089514233488154
 20
-12.274102525848493
 10
-6.205761830015167
 20
-12.043228946823982
 10
-5.7006287219456535
 20
-11.810075273294167
 10
-5.193681011414687
 20
-11.575031816853109
 10
-4.684789786147863
 20
-11.33770826590675
 10
-4.174345357739235
 20
-11.097975708180691
 10
-3.662282376358892
 20
-10.85596394964204
 10
-3.1485354921769217
 20
-10.611802796257923
 10
-2.6330402490561227
 20
-10.365297092231302
 10
-2.11631676455768
 20
-10.116383275117698
 10
-1.5983005825443708
 20
-9.864866189120079
 10
-1.0784697980696047
 20
-9.611459320211216
 10
-0.5571493728975238
 20
-9.356163562083825
 10
-0.034861211974734095
 20
-9.098265428765133
 10
0.4888503461227392
 20
-8.838023638496658
 10
1.0139208452576984
 20
-8.575633347075424
 10
1.5399599738360839
 20
-8.310965642227037
 10
2.067161993962204
 20
-8.043760018324551
 10
2.5952672937018417
 20
-7.77414717502779
 10
3.124667078341756
 20
-7.502580986375307
 10
3.6551008422550164
 20
-7.228867190262778
 10
4.1861120303249315
 20
-6.952422106684552
 10
4.718026498008344
 20
-6.673569803712059
 10
5.250975838657828
 20
-6.3928948550436635
 10
5.784634392865983
 20
-6.110073582025849
 10
6.319077203442479
 20
-5.824931857428249
 10
6.8543111762643685
 20
-5.537806585163991
 10
7.390075108061491
 20
-5.24817893078251
 10
7.926369129533506
 20
-4.95604915389574
 10
8.463324834032946
 20
-4.662001828202066
 10
9.000878026821942
 20
-4.366232628722374
 10
9.539093229387532
 20
-4.0685465294656025
 10
10.077644651622666
 20
-3.768619592166296
 10
10.616663058537018
 20
-3.4667115585646484
 10
11.156148711529903
 20
-3.1628229478845236
 10
11.695971739284376
 20
-2.8570189801498764
 10
12.235936288360188
 20
-2.5489106268772597
 10
12.776173058417156
 20
-2.2387575000009057
 10
13.316683836840722
 20
-1.9272095230491009
 10
13.857663147134517
 20
-1.614006709618768
 10
14.398655262524736
 20
-1.29889021166243
 10
14.93985546950807
 20
-0.9819247449292166
 10
15.48100415615028
 20
-0.6632410090789619
 10
16.022296543598245
 20
-0.3429035900548278
 10
16.56366734737187
 20
-0.02078281169566682
 10
17.10492230536683
 20
0.30286082037156764
 10
17.646321923210092
 20
0.6278330440425756
 10
18.187801047121205
 20
0.9542632758665552
 10
18.729034519286557
 20
1.282151011568704
 10
19.270217626202815
 20
1.6114315353998787
 10
19.811351261562727
 20
1.941779885595948
 10
20.35230389736354
 20
2.2737805060492997
 10
20.89294649063123
 20
2.607043344777831
 10
21.433409741025596
 20
2.9413087898472923
 10
21.973628364066585
 20
3.276706517418849
 10
22.51347166009433
 20
3.613496139426714
 10
23.05307039411852
 20
3.951417914130701
 10
23.592295327115597
 20
4.290082178966585
 10
24.131145696092503
 20
4.629813636086571
 10
24.669687744571867
 20
4.9701575177594055
 10
25.207725292364294
 20
5.311503501498367
 10
25.745193054989684
 20
5.6539812634645985
 10
26.28222173210788
 20
5.997331191723872
 10
26.818747369175405
 20
6.341033947550817
 10
27.35489996820889
 20
6.685154491357453
 10
27.890353543051788
 20
7.030017150827132
 10
28.42517331283436
 20
7.375492379604685
 10
28.959359342906442
 20
7.721580047884134
 10
29.49297685239829
 20
8.068150609310308
 10
30.025700552796614
 20
8.415203819220327
 10
30.557725795947917
 20
8.762674832059083
 10
31.088987733616015
 20
9.110369270865345
 10
31.61974719817704
 20
9.458092224504979
 10
32.14948259022859
 20
9.806233385440297
 10
32.678259324950446
 20
10.15466281789824
 10
33.206533957459264
 20
10.502796841873131
 10
33.7336544500922
 20
10.851284242537682
 10
34.25955525696985
 20
11.200255215276893
 10
34.784758479088296
 20
11.548995884700098
 10
35.3091346813745
 20
11.897116977660968
 10
35.832421701515756
 20
12.245462420180175
 10
36.354554821975526
 20
12.593837575684557
 10
36.87540384468775
 20
12.942177873180013
 10
37.39522947132883
 20
13.290288661144313
 10
37.91396691901242
 20
13.637975432810256
 10
38.43168134151897
 20
13.985108771628658
 10
38.94811203717201
 20
14.331883329121707
 10
39.46312804491241
 20
14.678559236447507
 10
39.97692534888009
 20
15.024747205510689
 10
40.48950388372521
 20
15.370447366117217
 10
41.00066866849534
 20
15.715400640505784
 10
41.5106797725735
 20
16.05973681969445
 10
42.01908088103744
 20
16.403715919984396
 10
42.525937213017386
 20
16.747208395020447
 10
43.03157525626361
 20
17.08956573419089
 10
43.53592972629603
 20
17.43091761365689
 10
44.03860946197279
 20
17.771394633170402
 10
44.539939882506864
 20
18.110996777782383
 10
45.03959530728594
 20
18.449724581665745
 10
45.53770567297682
 20
18.78764313503847
 10
46.03427141582342
 20
19.124428384778202
 10
46.52916227240978
 20
19.460015889696773
 10
47.02263894441236
 20
19.794210998271975
 10
47.51424492085938
 20
20.12727411622289
 10
48.00424027113391
 20
20.459335034567594
 10
48.49229931462364
 20
20.79039428747899
 10
48.97881382355892
 20
21.119673688184236
 10
49.46365359987369
 20
21.447108665689225
 10
49.94668661397145
 20
21.773607846814695
 10
50.42745692182404
 20
22.099107324545432
 10
50.9067473914538
 20
22.42269844216257
 10
51.38423227689862
 20
22.744381863645007
 10
51.85964985208972
 20
23.064677461891037
 10
52.33299998632739
 20
23.383585496512577
 10
52.80434783339211
 20
23.700976550960444
 10
53.27402001173375
 20
24.016201855010966
 10
53.74162516416101
 20
24.32939239783405
 10
54.20722750661664
 20
24.641066998931176
 10
54.67056638156915
 20
24.951097035537988
 10
55.1317722926289
 20
25.25922328513817
 10
55.59097580875602
 20
25.565186395409416
 10
56.048045968891394
 20
25.869246497509838
 10
56.502852313569576
 20
26.17133953966917
 10
56.95565560981685
 20
26.47127074055925
 10
57.40619520010173
 20
26.768911477415713
 10
57.85440510230084
 20
27.06471599874594
 10
58.30002452818307
 20
27.358555941397526
 10
58.7435747062567
 20
27.650365536224545
 10
59.18466515181818
 20
27.93962766615211
 10
59.623556195649876
 20
28.226471602974417
 10
60.06018222652256
 20
28.51102767188245
 10
60.49415188724487
 20
28.793426862046076
 10
60.92553020089762
 20
29.073540016528035
 10
61.354642782743205
 20
29.351366730961352
 10
61.78116412701396
 20
29.62658400562045
 10
62.20535487003649
 20
29.89899731878908
 10
62.626888502855635
 20
30.168932036598346
 10
63.04582967765808
 20
30.43658292542737
 10
63.46211328480832
 20
30.701756127538793
 10
63.875739062907044
 20
30.964452162156487
 10
64.28677253662876
 20
31.22421768941484
 10
64.6951477892
 20
31.481506828015274
 10
65.10066931686963
 20
31.736061538644186
 10
65.50333642199446
 20
31.98820639364786
 10
65.90334502336458
 20
32.237552234736874
 10
66.30062988064483
 20
32.483905463785796
 10
66.69499468294612
 20
32.72765601791985
 10
67.08643923421899
 20
32.96880428655693
 10
67.47496327306409
 20
33.20735078892089
 10
67.86043671091014
 20
33.44290754992511
 10
68.24325057819924
 20
33.67534422942953
 10
68.62294760096667
 20
33.90524593530546
 10
68.99946260422702
 20
34.13241893962149
 10
69.37292558999694
 20
34.35692820278966
 10
69.743336733121
 20
34.57845019091144
 10
70.11050015895401
 20
34.797050787989676
 10
70.47461091379832
 20
35.01298894197972
 10
70.83560412821278
 20
35.22574713143971
 10
71.19334890648811
 20
35.435585357721806
 10
71.54791040240471
 20
35.642374204276784
 10
71.89909223972371
 20
35.84650373803583
 10
72.24702492205542
 20
36.047714736482604
 10
72.59157785923479
 20
36.2459434074588
 10
72.93281620504226
 20
36.441060334415226
 10
73.2708047423641
 20
36.633260024119025
 10
73.60521720243965
 20
36.82254417899687
 10
73.93605325851975
 20
37.008913448078594
 10
74.26350845850037
 20
37.19230259639117
 10
74.58764821756132
 20
37.37258168816153
 10
74.90801693962838
 20
37.55000931182523
 10
75.22473881058332
 20
37.72466198052533
 10
75.5380162188494
 20
37.89613768518171
 10
75.84765087183776
 20
38.06450711261796
 10
76.1535119391889
 20
38.23003013438028
 10
76.45586025327887
 20
38.392511839334475
 10
76.75450017965701
 20
38.55169444777894
 10
77.04943115137971
 20
38.707902272447974
 10
77.34058762256754
 20
38.861265508726596
 10
77.62783906840532
 20
39.01172023465053
 10
77.91131599250333
 20
39.159007227703455
 10
78.19095271828255
 20
39.30325694288231
 10
78.46661841538346
 20
39.44472925173325
 10
78.73837817223668
 20
39.58329486751306
 10
79.00623222903658
 20
39.718630126517226
 10
79.27018025903406
 20
39.85073567777561
 10
79.53009112632537
 20
39.98019518634481
 10
79.78589952522553
 20
40.10681518390538
 10
80.0376053903847
 20
40.23059580026327
 10
80.2852737448836
 20
40.351407878481204
 10
80.5287741292569
 20
40.469187366788944
 10
80.76823661087096
 20
40.58399909579252
 10
81.00340009595043
 20
40.69603849584999
 10
81.23439495740595
 20
40.80504660405691
 10
81.46109036487806
 20
40.91128329195949
 10
81.68374721609266
 20
41.01455351861759
 10
81.90197389245907
 20
41.114988792424946
 10
82.11583524221349
 20
41.21278349034277
 10
82.32526609037063
 20
41.307743884439724
 10
82.53046198482647
 20
41.39980473974276
 10
82.7311611783073
 20
41.48916278466959
 10
82.92762424178986
 20
41.575623627309916
 10
83.11939832389291
 20
41.65944040424868
 10
83.30680420399143
 20
41.74062231676048
 10
83.48958292364955
 20
41.819037367125816
 10
83.66786468093333
 20
41.89475012633882
 10
83.84164934514311
 20
41.96776085401141
 10
84.01087137039947
 20
42.03819974552859
 10
84.17546571241682
 20
42.10587281334707
 10
84.33530141013588
 20
42.17104018862491
 10
84.49057420750229
 20
42.23363624697124
 10
84.6410880991711
 20
42.29372713200079
 10
84.78690836962248
 20
42.35118316755244
 10
84.92796960367669
 20
42.40613428939929
 10
85.06433695511409
 20
42.45845108099209
 10
85.19594500875498
 20
42.50826347810394
 10
85.3226629995897
 20
42.55583122247504
 10
85.444491037113
 20
42.60083091001284
 10
85.5616245597261
 20
42.64352070983687
 10
85.67360683920293
 20
42.683838272603545
 10
85.78089440772004
 20
42.721846337074346
 10
85.8832263463467
 20
42.75741679970882
 10
85.9804718900732
 20
42.79080940224712
 10
86.07282671749523
 20
42.82195865010436
 10
86.16016030379757
 20
42.85080062131623
 10
86.24234194932033
 20
42.877594927816965
 10
86.31963261713928
 20
42.902146398860474
 10
86.39177121347905
 20
42.9246504648048
 10
86.45882295746985
 20
42.944977579294736
 10
86.52065714945186
 20
42.96338735426454
 10
86.57733913925502
 20
42.97974998374707
 10
86.62893384046528
 20
42.99425971489758
 10
86.67518039950171
 20
43.00678831436965
 10
86.71614392599977
 20
43.017529639900616
 10
86.75195474872524
 20
43.02654800287266
 10
86.7823520140971
 20
43.03371516993933
 10
86.80733535122128
 20
43.039355064417016
 10
86.82710070009277
 20
43.04340167249694
 10
86.84125624607142
 20
43.04598689199072
 10
86.8498672948422
 20
43.04730419121783
 10
86.85280295069583
 20
43.047613571530405
 10
86.4443665137272
 20
43.85890086599682
  0
ENDSEC
  0
SECTION
  2
OBJECTS
  0
DICTIONARY
  5
A
330
0
100
AcDbDictionary
280
0
281
1
  3
ACAD_COLOR
350
B
  3
ACAD_GROUP
350
C
  3
ACAD_LAYOUT
350
D
  3
ACAD_MATERIAL
350
E
  3
ACAD_MLEADERSTYLE
350
F
  3
ACAD_MLINESTYLE
350
10
  3
ACAD_PLOTSETTINGS
350
11
  3
ACAD_PLOTSTYLENAME
350
12
  3
ACAD_SCALELIST
350
14
  3
ACAD_TABLESTYLE
350
15
  3
ACAD_VISUALSTYLE
350
16
  3
EZDXF_META
350
2D
  0
DICTIONARY
  5
B
330
A
100
AcDbDictionary
280
0
281
1
  0
DICTIONARY
  5
C
330
A
100
AcDbDictionary
280
0
281
1
  0
DICTIONARY
  5
D
330
A
100
AcDbDictionary
280
0
281
1
  3
Model
350
1A
  3
Layout1
350
1E
  0
DICTIONARY
  5
E
330
A
100
AcDbDictionary
280
0
281
1
  3
ByBlock
350
1F
  3
ByLayer
350
20
  3
Global
350
21
  0
DICTIONARY
  5
F
330
A
100
AcDbDictionary
280
0
281
1
  3
Standard
350
2C
  0
DICTIONARY
  5
10
330
A
100
AcDbDictionary
280
0
281
1
  3
Standard
350
22
  0
DICTIONARY
  5
11
330
A
100
AcDbDictionary
280
0
281
1
  0
ACDBDICTIONARYWDFLT
  5
12
330
A
100
AcDbDictionary
280
0
281
1
  3
Normal
350
13
100
AcDbDictionaryWithDefault
340
13
  0
ACDBPLACEHOLDER
  5
13
330
12
  0
DICTIONARY
  5
14
330
A
100
AcDbDictionary
280
0
281
1
  0
DICTIONARY
  5
15
330
A
100
AcDbDictionary
280
0
281
1
  0
DICTIONARY
  5
16
330
A
100
AcDbDictionary
280
0
281
1
  0
LAYOUT
  5
1A
330
D
100
AcDbPlotSettings
  1

  4
A3
  6

 40
7.5
 41
20.0
 42
7.5
 43
20.0
 44
420.0
 45
297.0
 46
0.0
 47
0.0
 48
0.0
 49
0.0
140
0.0
141
0.0
142
1.0
143
1.0
 70
1024
 72
1
 73
0
 74
5
  7

 75
16
 76
0
 77
2
 78
300
147
1.0
148
0.0
149
0.0
100
AcDbLayout
  1
Model
 70
1
 71
0
 10
0.0
 20
0.0
 11
420.0
 21
297.0
 12
0.0
 22
0.0
 32
0.0
 14
1e+20
 24
1e+20
 34
1e+20
 15
-1e+20
 25
-1e+20
 35
-1e+20
146
0.0
 13
0.0
 23
0.0
 33
0.0
 16
1.0
 26
0.0
 36
0.0
 17
0.0
 27
1.0
 37
0.0
 76
1
330
17
  0
LAYOUT
  5
1E
330
D
100
AcDbPlotSettings
  1

  4
A3
  6

 40
7.5
 41
20.0
 42
7.5
 43
20.0
 44
420.0
 45
297.0
 46
0.0
 47
0.0
 48
0.0
 49
0.0
140
0.0
141
0.0
142
1.0
143
1.0
 70
0
 72
1
 73
0
 74
5
  7

 75
16
 76
0
 77
2
 78
300
147
1.0
148
0.0
149
0.0
100
AcDbLayout
  1
Layout1
 70
1
 71
1
 10
0.0
 20
0.0
 11
420.0
 21
297.0
 12
0.0
 22
0.0
 32
0.0
 14
1e+20
 24
1e+20
 34
1e+20
 15
-1e+20
 25
-1e+20
 35
-1e+20
146
0.0
 13
0.0
 23
0.0
 33
0.0
 16
1.0
 26
0.0
 36
0.0
 17
0.0
 27
1.0
 37
0.0
 76
1
330
1B
  0
MATERIAL
  5
1F
102
{ACAD_REACTORS
330
E
102
}
330
E
100
AcDbMaterial
  1
ByBlock
  2

 70
0
 40
1.0
 71
1
 41
1.0
 91
-1023410177
 42
1.0
 72
1
  3

 73
1
 74
1
 75
1
 44
0.5
 73
0
 45
1.0
 46
1.0
 77
1
  4

 78
1
 79
1
170
1
 48
1.0
171
1
  6

172
1
173
1
174
1
140
1.0
141
1.0
175
1
  7

176
1
177
1
178
1
143
1.0
179
1
  8

270
1
271
1
272
1
145
1.0
146
1.0
273
1
  9

274
1
275
1
276
1
 42
1.0
 72
1
  3

 73
1
 74
1
 75
1
 94
63
  0
MATERIAL
  5
20
102
{ACAD_REACTORS
330
E
102
}
330
E
100
AcDbMaterial
  1
ByLayer
  2

 70
0
 40
1.0
 71
1
 41
1.0
 91
-1023410177
 42
1.0
 72
1
  3

 73
1
 74
1
 75
1
 44
0.5
 73
0
 45
1.0
 46
1.0
 77
1
  4

 78
1
 79
1
170
1
 48
1.0
171
1
  6

172
1
173
1
174
1
140
1.0
141
1.0
175
1
  7

176
1
177
1
178
1
143
1.0
179
1
  8

270
1
271
1
272
1
145
1.0
146
1.0
273
1
  9

274
1
275
1
276
1
 42
1.0
 72
1
  3

 73
1
 74
1
 75
1
 94
63
  0
MATERIAL
  5
21
102
{ACAD_REACTORS
330
E
102
}
330
E
100
AcDbMaterial
  1
Global
  2

 70
0
 40
1.0
 71
1
 41
1.0
 91
-1023410177
 42
1.0
 72
1
  3

 73
1
 74
1
 75
1
 44
0.5
 73
0
 45
1.0
 46
1.0
 77
1
  4

 78
1
 79
1
170
1
 48
1.0
171
1
  6

172
1
173
1
174
1
140
1.0
141
1.0
175
1
  7

176
1
177
1
178
1
143
1.0
179
1
  8

270
1
271
1
272
1
145
1.0
146
1.0
273
1
  9

274
1
275
1
276
1
 42
1.0
 72
1
  3

 73
1
 74
1
 75
1
 94
63
  0
MLINESTYLE
  5
22
102
{ACAD_REACTORS
330
10
102
}
330
10
100
AcDbMlineStyle
  2
Standard
 70
0
  3

 62
256
 51
90.0
 52
90.0
 71
2
 49
0.5
 62
256
  6
BYLAYER
 49
-0.5
 62
256
  6
BYLAYER
  0
MLEADERSTYLE
  5
2C
102
{ACAD_REACTORS
330
F
102
}
330
F
100
AcDbMLeaderStyle
179
2
170
2
171
1
172
0
 90
2
 40
0.0
 41
0.0
173
1
 91
-1056964608
 92
-2
290
1
 42
2.0
291
1
 43
8.0
  3
Standard
 44
4.0
300

342
29
174
1
175
1
176
0
178
1
 93
-1056964608
 45
4.0
292
0
297
0
 46
4.0
 94
-1056964608
 47
1.0
 49
1.0
140
1.0
294
1
141
0.0
177
0
142
1.0
295
0
296
0
143
3.75
271
0
272
9
273
9
  0
DICTIONARY
  5
2D
330
A
100
AcDbDictionary
280
1
281
1
  3
CREATED_BY_EZDXF
350
2E
  3
WRITTEN_BY_EZDXF
350
32
  0
DICTIONARYVAR
  5
2E
330
2D
100
DictionaryVariables
280
0
  1
1.3.5 @ 2025-08-21T17:54:44.508062+00:00
  0
DICTIONARYVAR
  5
32
330
2D
100
DictionaryVariables
280
0
  1
1.3.5 @ 2025-08-21T17:54:44.515017+00:00
  0
ENDSEC
  0
EOF
