  0
SECTION
  2
HEADER
  9
$ACADVER
  1
AC1032
  9
$ACADMAINTVER
 90
4
  9
$DWGCODEPAGE
  3
ANSI_1252
  9
$LASTSAVEDBY
  1
ezdxf
  9
$REQUIREDVERSIONS
160
0
  9
$INSBASE
 10
0.0
 20
0.0
 30
0.0
  9
$EXTMIN
 10
1e+20
 20
1e+20
 30
1e+20
  9
$EXTMAX
 10
-1e+20
 20
-1e+20
 30
-1e+20
  9
$LIMMIN
 10
0.0
 20
0.0
  9
$LIMMAX
 10
420.0
 20
297.0
  9
$ORTHOMODE
 70
0
  9
$REGENMODE
 70
1
  9
$FILLMODE
 70
1
  9
$QTEXTMODE
 70
0
  9
$MIRRTEXT
 70
1
  9
$LTSCALE
 40
1.0
  9
$ATTMODE
 70
1
  9
$TEXTSIZE
 40
2.5
  9
$TRACEWID
 40
1.0
  9
$TEXTSTYLE
  7
Standard
  9
$CLAYER
  8
0
  9
$CELTYPE
  6
ByLayer
  9
$CECOLOR
 62
256
  9
$CELTSCALE
 40
1.0
  9
$DISPSILH
 70
0
  9
$DIMSCALE
 40
1.0
  9
$DIMASZ
 40
2.5
  9
$DIMEXO
 40
0.625
  9
$DIMDLI
 40
3.75
  9
$DIMRND
 40
0.0
  9
$DIMDLE
 40
0.0
  9
$DIMEXE
 40
1.25
  9
$DIMTP
 40
0.0
  9
$DIMTM
 40
0.0
  9
$DIMTXT
 40
2.5
  9
$DIMCEN
 40
2.5
  9
$DIMTSZ
 40
0.0
  9
$DIMTOL
 70
0
  9
$DIMLIM
 70
0
  9
$DIMTIH
 70
0
  9
$DIMTOH
 70
0
  9
$DIMSE1
 70
0
  9
$DIMSE2
 70
0
  9
$DIMTAD
 70
1
  9
$DIMZIN
 70
8
  9
$DIMBLK
  1

  9
$DIMASO
 70
1
  9
$DIMSHO
 70
1
  9
$DIMPOST
  1

  9
$DIMAPOST
  1

  9
$DIMALT
 70
0
  9
$DIMALTD
 70
3
  9
$DIMALTF
 40
0.03937007874
  9
$DIMLFAC
 40
1.0
  9
$DIMTOFL
 70
1
  9
$DIMTVP
 40
0.0
  9
$DIMTIX
 70
0
  9
$DIMSOXD
 70
0
  9
$DIMSAH
 70
0
  9
$DIMBLK1
  1

  9
$DIMBLK2
  1

  9
$DIMSTYLE
  2
ISO-25
  9
$DIMCLRD
 70
0
  9
$DIMCLRE
 70
0
  9
$DIMCLRT
 70
0
  9
$DIMTFAC
 40
1.0
  9
$DIMGAP
 40
0.625
  9
$DIMJUST
 70
0
  9
$DIMSD1
 70
0
  9
$DIMSD2
 70
0
  9
$DIMTOLJ
 70
0
  9
$DIMTZIN
 70
8
  9
$DIMALTZ
 70
0
  9
$DIMALTTZ
 70
0
  9
$DIMUPT
 70
0
  9
$DIMDEC
 70
2
  9
$DIMTDEC
 70
2
  9
$DIMALTU
 70
2
  9
$DIMALTTD
 70
3
  9
$DIMTXSTY
  7
Standard
  9
$DIMAUNIT
 70
0
  9
$DIMADEC
 70
0
  9
$DIMALTRND
 40
0.0
  9
$DIMAZIN
 70
0
  9
$DIMDSEP
 70
44
  9
$DIMATFIT
 70
3
  9
$DIMFRAC
 70
0
  9
$DIMLDRBLK
  1

  9
$DIMLUNIT
 70
2
  9
$DIMLWD
 70
-2
  9
$DIMLWE
 70
-2
  9
$DIMTMOVE
 70
0
  9
$DIMFXL
 40
1.0
  9
$DIMFXLON
 70
0
  9
$DIMJOGANG
 40
0.785398163397
  9
$DIMTFILL
 70
0
  9
$DIMTFILLCLR
 70
0
  9
$DIMARCSYM
 70
0
  9
$DIMLTYPE
  6

  9
$DIMLTEX1
  6

  9
$DIMLTEX2
  6

  9
$DIMTXTDIRECTION
 70
0
  9
$LUNITS
 70
2
  9
$LUPREC
 70
4
  9
$SKETCHINC
 40
1.0
  9
$FILLETRAD
 40
10.0
  9
$AUNITS
 70
0
  9
$AUPREC
 70
2
  9
$MENU
  1
.
  9
$ELEVATION
 40
0.0
  9
$PELEVATION
 40
0.0
  9
$THICKNESS
 40
0.0
  9
$LIMCHECK
 70
0
  9
$CHAMFERA
 40
0.0
  9
$CHAMFERB
 40
0.0
  9
$CHAMFERC
 40
0.0
  9
$CHAMFERD
 40
0.0
  9
$SKPOLY
 70
0
  9
$TDCREATE
 40
2460909.7880092594
  9
$TDUCREATE
 40
2458532.153996898
  9
$TDUPDATE
 40
2460909.7880092594
  9
$TDUUPDATE
 40
2458532.1544311
  9
$TDINDWG
 40
0.0
  9
$TDUSRTIMER
 40
0.0
  9
$USRTIMER
 70
1
  9
$ANGBASE
 50
0.0
  9
$ANGDIR
 70
0
  9
$PDMODE
 70
0
  9
$PDSIZE
 40
0.0
  9
$PLINEWID
 40
0.0
  9
$SPLFRAME
 70
0
  9
$SPLINETYPE
 70
6
  9
$SPLINESEGS
 70
8
  9
$HANDSEED
  5
33
  9
$SURFTAB1
 70
6
  9
$SURFTAB2
 70
6
  9
$SURFTYPE
 70
6
  9
$SURFU
 70
6
  9
$SURFV
 70
6
  9
$UCSBASE
  2

  9
$UCSNAME
  2

  9
$UCSORG
 10
0.0
 20
0.0
 30
0.0
  9
$UCSXDIR
 10
1.0
 20
0.0
 30
0.0
  9
$UCSYDIR
 10
0.0
 20
1.0
 30
0.0
  9
$UCSORTHOREF
  2

  9
$UCSORTHOVIEW
 70
0
  9
$UCSORGTOP
 10
0.0
 20
0.0
 30
0.0
  9
$UCSORGBOTTOM
 10
0.0
 20
0.0
 30
0.0
  9
$UCSORGLEFT
 10
0.0
 20
0.0
 30
0.0
  9
$UCSORGRIGHT
 10
0.0
 20
0.0
 30
0.0
  9
$UCSORGFRONT
 10
0.0
 20
0.0
 30
0.0
  9
$UCSORGBACK
 10
0.0
 20
0.0
 30
0.0
  9
$PUCSBASE
  2

  9
$PUCSNAME
  2

  9
$PUCSORG
 10
0.0
 20
0.0
 30
0.0
  9
$PUCSXDIR
 10
1.0
 20
0.0
 30
0.0
  9
$PUCSYDIR
 10
0.0
 20
1.0
 30
0.0
  9
$PUCSORTHOREF
  2

  9
$PUCSORTHOVIEW
 70
0
  9
$PUCSORGTOP
 10
0.0
 20
0.0
 30
0.0
  9
$PUCSORGBOTTOM
 10
0.0
 20
0.0
 30
0.0
  9
$PUCSORGLEFT
 10
0.0
 20
0.0
 30
0.0
  9
$PUCSORGRIGHT
 10
0.0
 20
0.0
 30
0.0
  9
$PUCSORGFRONT
 10
0.0
 20
0.0
 30
0.0
  9
$PUCSORGBACK
 10
0.0
 20
0.0
 30
0.0
  9
$USERI1
 70
0
  9
$USERI2
 70
0
  9
$USERI3
 70
0
  9
$USERI4
 70
0
  9
$USERI5
 70
0
  9
$USERR1
 40
0.0
  9
$USERR2
 40
0.0
  9
$USERR3
 40
0.0
  9
$USERR4
 40
0.0
  9
$USERR5
 40
0.0
  9
$WORLDVIEW
 70
1
  9
$SHADEDGE
 70
3
  9
$SHADEDIF
 70
70
  9
$TILEMODE
 70
1
  9
$MAXACTVP
 70
64
  9
$PINSBASE
 10
0.0
 20
0.0
 30
0.0
  9
$PLIMCHECK
 70
0
  9
$PEXTMIN
 10
1e+20
 20
1e+20
 30
1e+20
  9
$PEXTMAX
 10
-1e+20
 20
-1e+20
 30
-1e+20
  9
$PLIMMIN
 10
0.0
 20
0.0
  9
$PLIMMAX
 10
420.0
 20
297.0
  9
$UNITMODE
 70
0
  9
$VISRETAIN
 70
1
  9
$PLINEGEN
 70
0
  9
$PSLTSCALE
 70
1
  9
$TREEDEPTH
 70
3020
  9
$CMLSTYLE
  2
Standard
  9
$CMLJUST
 70
0
  9
$CMLSCALE
 40
20.0
  9
$PROXYGRAPHICS
 70
1
  9
$MEASUREMENT
 70
1
  9
$CELWEIGHT
370
-1
  9
$ENDCAPS
280
0
  9
$JOINSTYLE
280
0
  9
$LWDISPLAY
290
0
  9
$INSUNITS
 70
6
  9
$HYPERLINKBASE
  1

  9
$STYLESHEET
  1

  9
$XEDIT
290
1
  9
$CEPSNTYPE
380
0
  9
$PSTYLEMODE
290
1
  9
$FINGERPRINTGUID
  2
{8292952B-E1DE-44CA-B1F0-D88A0308797A}
  9
$VERSIONGUID
  2
{6A485EC8-B854-4254-80F2-6F953E8603A4}
  9
$EXTNAMES
290
1
  9
$PSVPSCALE
 40
0.0
  9
$OLESTARTUP
290
0
  9
$SORTENTS
280
127
  9
$INDEXCTL
280
0
  9
$HIDETEXT
280
1
  9
$XCLIPFRAME
280
1
  9
$HALOGAP
280
0
  9
$OBSCOLOR
 70
257
  9
$OBSLTYPE
280
0
  9
$INTERSECTIONDISPLAY
280
0
  9
$INTERSECTIONCOLOR
 70
257
  9
$DIMASSOC
280
2
  9
$PROJECTNAME
  1

  9
$CAMERADISPLAY
290
0
  9
$LENSLENGTH
 40
50.0
  9
$CAMERAHEIGHT
 40
0.0
  9
$STEPSPERSEC
 40
24.0
  9
$STEPSIZE
 40
100.0
  9
$3DDWFPREC
 40
2.0
  9
$PSOLWIDTH
 40
0.005
  9
$PSOLHEIGHT
 40
0.08
  9
$LOFTANG1
 40
1.570796326795
  9
$LOFTANG2
 40
1.570796326795
  9
$LOFTMAG1
 40
0.0
  9
$LOFTMAG2
 40
0.0
  9
$LOFTPARAM
 70
7
  9
$LOFTNORMALS
280
1
  9
$LATITUDE
 40
37.795
  9
$LONGITUDE
 40
-122.394
  9
$NORTHDIRECTION
 40
0.0
  9
$TIMEZONE
 70
-8000
  9
$LIGHTGLYPHDISPLAY
280
1
  9
$TILEMODELIGHTSYNCH
280
1
  9
$CMATERIAL
347
20
  9
$SOLIDHIST
280
0
  9
$SHOWHIST
280
1
  9
$DWFFRAME
280
2
  9
$DGNFRAME
280
2
  9
$REALWORLDSCALE
290
1
  9
$INTERFERECOLOR
 62
256
  9
$CSHADOW
280
0
  9
$SHADOWPLANELOCATION
 40
0.0
  0
ENDSEC
  0
SECTION
  2
CLASSES
  0
CLASS
  1
ACDBDICTIONARYWDFLT
  2
AcDbDictionaryWithDefault
  3
ObjectDBX Classes
 90
0
 91
0
280
0
281
0
  0
CLASS
  1
SUN
  2
AcDbSun
  3
SCENEOE
 90
1153
 91
0
280
0
281
0
  0
CLASS
  1
VISUALSTYLE
  2
AcDbVisualStyle
  3
ObjectDBX Classes
 90
4095
 91
0
280
0
281
0
  0
CLASS
  1
MATERIAL
  2
AcDbMaterial
  3
ObjectDBX Classes
 90
1153
 91
0
280
0
281
0
  0
CLASS
  1
SCALE
  2
AcDbScale
  3
ObjectDBX Classes
 90
1153
 91
0
280
0
281
0
  0
CLASS
  1
TABLESTYLE
  2
AcDbTableStyle
  3
ObjectDBX Classes
 90
4095
 91
0
280
0
281
0
  0
CLASS
  1
MLEADERSTYLE
  2
AcDbMLeaderStyle
  3
ACDB_MLEADERSTYLE_CLASS
 90
4095
 91
0
280
0
281
0
  0
CLASS
  1
DICTIONARYVAR
  2
AcDbDictionaryVar
  3
ObjectDBX Classes
 90
0
 91
0
280
0
281
0
  0
CLASS
  1
CELLSTYLEMAP
  2
AcDbCellStyleMap
  3
ObjectDBX Classes
 90
1152
 91
0
280
0
281
0
  0
CLASS
  1
MENTALRAYRENDERSETTINGS
  2
AcDbMentalRayRenderSettings
  3
SCENEOE
 90
1024
 91
0
280
0
281
0
  0
CLASS
  1
ACDBDETAILVIEWSTYLE
  2
AcDbDetailViewStyle
  3
ObjectDBX Classes
 90
1025
 91
0
280
0
281
0
  0
CLASS
  1
ACDBSECTIONVIEWSTYLE
  2
AcDbSectionViewStyle
  3
ObjectDBX Classes
 90
1025
 91
0
280
0
281
0
  0
CLASS
  1
RASTERVARIABLES
  2
AcDbRasterVariables
  3
ISM
 90
0
 91
0
280
0
281
0
  0
CLASS
  1
LAYOUT
  2
AcDbLayout
  3
ObjectDBX Classes
 90
0
 91
0
280
0
281
0
  0
CLASS
  1
ACDBPLACEHOLDER
  2
AcDbPlaceHolder
  3
ObjectDBX Classes
 90
0
 91
0
280
0
281
0
  0
ENDSEC
  0
SECTION
  2
TABLES
  0
TABLE
  2
VPORT
  5
8
330
0
100
AcDbSymbolTable
 70
1
  0
VPORT
  5
23
330
8
100
AcDbSymbolTableRecord
100
AcDbViewportTableRecord
  2
*Active
 70
0
 10
0.0
 20
0.0
 11
1.0
 21
1.0
 12
0.0
 22
0.0
 13
0.0
 23
0.0
 14
0.5
 24
0.5
 15
0.5
 25
0.5
 16
0.0
 26
0.0
 36
1.0
 17
0.0
 27
0.0
 37
0.0
 40
1000.0
 41
1.34
 42
50.0
 43
0.0
 44
0.0
 50
0.0
 51
0.0
 71
0
 72
1000
 73
1
 74
3
 75
0
 76
0
 77
0
 78
0
281
0
 65
0
146
0.0
  0
ENDTAB
  0
TABLE
  2
LTYPE
  5
2
330
0
100
AcDbSymbolTable
 70
3
  0
LTYPE
  5
24
330
2
100
AcDbSymbolTableRecord
100
AcDbLinetypeTableRecord
  2
ByBlock
 70
0
  3

 72
65
 73
0
 40
0.0
  0
LTYPE
  5
25
330
2
100
AcDbSymbolTableRecord
100
AcDbLinetypeTableRecord
  2
ByLayer
 70
0
  3

 72
65
 73
0
 40
0.0
  0
LTYPE
  5
26
330
2
100
AcDbSymbolTableRecord
100
AcDbLinetypeTableRecord
  2
Continuous
 70
0
  3

 72
65
 73
0
 40
0.0
  0
ENDTAB
  0
TABLE
  2
LAYER
  5
1
330
0
100
AcDbSymbolTable
 70
2
  0
LAYER
  5
27
330
1
100
AcDbSymbolTableRecord
100
AcDbLayerTableRecord
  2
0
 70
0
 62
7
  6
Continuous
370
-3
390
13
347
21
  0
LAYER
  5
28
330
1
100
AcDbSymbolTableRecord
100
AcDbLayerTableRecord
  2
Defpoints
 70
0
 62
7
  6
Continuous
290
0
370
-3
390
13
347
21
  0
ENDTAB
  0
TABLE
  2
STYLE
  5
5
330
0
100
AcDbSymbolTable
 70
1
  0
STYLE
  5
29
330
5
100
AcDbSymbolTableRecord
100
AcDbTextStyleTableRecord
  2
Standard
 70
0
 40
0.0
 41
1.0
 50
0.0
 71
0
 42
2.5
  3
txt
  4

  0
ENDTAB
  0
TABLE
  2
VIEW
  5
7
330
0
100
AcDbSymbolTable
 70
0
  0
ENDTAB
  0
TABLE
  2
UCS
  5
6
330
0
100
AcDbSymbolTable
 70
0
  0
ENDTAB
  0
TABLE
  2
APPID
  5
3
330
0
100
AcDbSymbolTable
 70
3
  0
APPID
  5
2A
330
3
100
AcDbSymbolTableRecord
100
AcDbRegAppTableRecord
  2
ACAD
 70
0
  0
APPID
  5
30
330
3
100
AcDbSymbolTableRecord
100
AcDbRegAppTableRecord
  2
HATCHBACKGROUNDCOLOR
 70
0
  0
APPID
  5
31
330
3
100
AcDbSymbolTableRecord
100
AcDbRegAppTableRecord
  2
EZDXF
 70
0
  0
ENDTAB
  0
TABLE
  2
DIMSTYLE
  5
4
330
0
100
AcDbSymbolTable
 70
1
100
AcDbDimStyleTable
  0
DIMSTYLE
105
2B
330
4
100
AcDbSymbolTableRecord
100
AcDbDimStyleTableRecord
  2
Standard
 70
0
 40
1.0
 41
2.5
 42
0.625
 43
3.75
 44
1.25
 45
0.0
 46
0.0
 47
0.0
 48
0.0
 49
2.5
140
2.5
141
2.5
142
0.0
143
0.03937007874
144
1.0
145
0.0
146
1.0
147
0.625
148
0.0
 69
0
 70
0
 71
0
 72
0
 73
0
 74
0
 75
0
 76
0
 77
1
 78
8
 79
3
170
0
171
3
172
1
173
0
174
0
175
0
176
0
177
0
178
0
179
2
271
2
272
2
273
2
274
3
275
0
276
0
277
2
278
44
279
0
280
0
281
0
282
0
283
0
284
8
285
0
286
0
288
0
289
3
290
0
371
-2
372
-2
  0
ENDTAB
  0
TABLE
  2
BLOCK_RECORD
  5
9
330
0
100
AcDbSymbolTable
 70
2
  0
BLOCK_RECORD
  5
17
330
9
100
AcDbSymbolTableRecord
100
AcDbBlockTableRecord
  2
*Model_Space
340
1A
 70
0
280
1
281
0
  0
BLOCK_RECORD
  5
1B
330
9
100
AcDbSymbolTableRecord
100
AcDbBlockTableRecord
  2
*Paper_Space
340
1E
 70
0
280
1
281
0
  0
ENDTAB
  0
ENDSEC
  0
SECTION
  2
BLOCKS
  0
BLOCK
  5
18
330
17
100
AcDbEntity
  8
0
100
AcDbBlockBegin
  2
*Model_Space
 70
0
 10
0.0
 20
0.0
 30
0.0
  3
*Model_Space
  1

  0
ENDBLK
  5
19
330
17
100
AcDbEntity
  8
0
100
AcDbBlockEnd
  0
BLOCK
  5
1C
330
1B
100
AcDbEntity
  8
0
100
AcDbBlockBegin
  2
*Paper_Space
 70
0
 10
0.0
 20
0.0
 30
0.0
  3
*Paper_Space
  1

  0
ENDBLK
  5
1D
330
1B
100
AcDbEntity
  8
0
100
AcDbBlockEnd
  0
ENDSEC
  0
SECTION
  2
ENTITIES
  0
LWPOLYLINE
  5
2F
330
17
100
AcDbEntity
  8
0
100
AcDbPolyline
 90
722
 70
1
 10
68.37047404736313
 20
46.561671120959566
 10
68.36804857725414
 20
46.56105123149932
 10
68.36091127909611
 20
46.55898591446646
 10
68.34933989082067
 20
46.55506459160792
 10
68.33309362095346
 20
46.54942188415395
 10
68.31258477430521
 20
46.54189096308379
 10
68.28764197651276
 20
46.53250383074475
 10
68.25823254846232
 20
46.5210874571617
 10
68.22456061311743
 20
46.50778276724085
 10
68.18659349136433
 20
46.492416731007026
 10
68.14409018326873
 20
46.475124277855244
 10
68.09739378498998
 20
46.45584088948282
 10
68.04640206132979
 20
46.43449636024062
 10
67.99104552569028
 20
46.41119341173313
 10
67.93146315126721
 20
46.38572660075144
 10
67.8675158258916
 20
46.35830157594764
 10
67.79937513238647
 20
46.32888602680961
 10
67.72693883555348
 20
46.297409747688235
 10
67.6501374487948
 20
46.263975460187986
 10
67.56921190255804
 20
46.228448337635456
 10
67.48392105793579
 20
46.19096351486886
 10
67.39440381863716
 20
46.151315651400886
 10
67.30072526494341
 20
46.10985121806826
 10
67.20264859477717
 20
46.066256259989636
 10
67.10047988835386
 20
46.02074231860671
 10
66.99401495322336
 20
45.973168571734895
 10
66.8833556771509
 20
45.9236057386313
 10
66.7685019906499
 20
45.872053922017514
 10
66.64938433763594
 20
45.818615946219644
 10
66.52600250964919
 20
45.76329211940246
 10
66.39849541039877
 20
45.70587710107867
 10
66.26672399720239
 20
45.646576437178794
 10
66.13085957493657
 20
45.5853582280771
 10
65.99073056077839
 20
45.52225478428573
 10
65.84647564997718
 20
45.45706107348219
 10
65.69805796556227
 20
45.39005294996769
 10
65.54540781247601
 20
45.321333443511534
 10
65.38873351153885
 20
45.25059459474354
 10
65.2277937848701
 20
45.177971743945115
 10
65.06286224203126
 20
45.10350309441804
 10
64.89366499551444
 20
45.02715085374695
 10
64.72040609879669
 20
44.949056049559715
 10
64.54298324719306
 20
44.86914857892879
 10
64.36149839795549
 20
44.787499058389706
 10
64.17591873299693
 20
44.70393466341052
 10
63.986346209569305
 20
44.61852601052674
 10
63.79253954979197
 20
44.531408440019796
 10
63.59477229373978
 20
44.442620257913056
 10
63.39294213672785
 20
44.352091361279015
 10
63.18704893978298
 20
44.25982195556089
 10
62.97709235547218
 20
44.165812554366674
 10
62.763104993422694
 20
44.0702362903932
 10
62.545053896574274
 20
43.97292054455165
 10
62.322971605067565
 20
43.87403855226044
 10
62.096927258067446
 20
43.773488105523114
 10
61.86705975928304
 20
43.67106386385237
 10
61.633331953797295
 20
43.56704209243584
 10
61.395502633216225
 20
43.46155802883335
 10
61.15357145010682
 20
43.35461218665292
 10
60.90784889100117
 20
43.24596691489509
 10
60.658265191355035
 20
43.135725346050734
 10
60.40482021219517
 20
43.02388768556306
 10
60.14730514629504
 20
42.91076261185347
 10
59.88606721818414
 20
42.795836825064455
 10
59.62106941191864
 20
42.679386384940486
 10
59.352242032440905
 20
42.56151432125084
 10
59.07941321898155
 20
42.44225335539405
 10
58.80285644212884
 20
42.3216418961151
 10
58.52253881430916
 20
42.199507221603646
 10
58.23846019654931
 20
42.0758495373029
 10
57.95058343393227
 20
41.95094510840051
 10
57.65918619490309
 20
41.82438345936504
 10
57.36402727106774
 20
41.696299827756306
 10
57.06524109033216
 20
41.56693816824981
 10
56.76282744423656
 20
41.43629878901037
 10
56.45682300129177
 20
41.30410614390158
 10
56.14715792746694
 20
41.17046346813589
 10
55.83403627623904
 20
41.03551178934115
 10
55.51721670024088
 20
40.8993865505204
 10
55.19690745080625
 20
40.76177989502503
 10
54.87321041570043
 20
40.622762542112206
 10
54.54612538646363
 20
40.482334799946706
 10
54.215513042467144
 20
40.3407026253455
 10
53.88137317525116
 20
40.19786632647339
 10
53.54377506295377
 20
40.05372348989073
 10
53.202992245649774
 20
39.90831242162087
 10
52.858750627371585
 20
39.76159563741331
 10
52.51115216537109
 20
39.61364375380355
 10
52.16050727669375
 20
39.46421922251372
 10
51.806643961597004
 20
39.31335497038558
 10
51.44945571753921
 20
39.16142977876808
 10
51.0890445017722
 20
39.00851426419669
 10
50.725344608635396
 20
38.85426288032914
 10
50.35876869037252
 20
38.698508284536636
 10
49.98903852264576
 20
38.54166177412346
 10
49.61622338359312
 20
38.38362093564992
 10
49.24025350867042
 20
38.22448890160696
 10
48.86136975883863
 20
38.06413094804273
 10
48.47957199512457
 20
37.90254728040047
 10
48.09475770438356
 20
37.73966810391747
 10
47.7070615229813
 20
37.57573706510442
 10
47.31638107674633
 20
37.41068416375544
 10
46.92295729612627
 20
37.24437457319712
 10
46.52678990317471
 20
37.07680870431587
 10
46.12798092463014
 20
36.908057070925615
 10
45.72635836075002
 20
36.73815259986812
 10
45.321885265077114
 20
36.56737124816623
 10
44.91466751477373
 20
36.39533515896549
 10
44.504942259350265
 20
36.22235777353923
 10
44.09278269685522
 20
36.04788820505787
 10
43.67811899325774
 20
35.872029688733875
 10
43.26094702018758
 20
35.695231006122015
 10
42.84119701310049
 20
35.5175952897132
 10
42.41887275293372
 20
35.33867427156064
 10
41.99452201470291
 20
35.158543536495024
 10
41.56790730146471
 20
34.97689015685101
 10
41.139024345875654
 20
34.79416311962661
 10
40.707701217679855
 20
34.61039524894198
 10
40.274211734898515
 20
34.42562443993409
 10
39.83866191366713
 20
34.23947263030524
 10
39.40101480752849
 20
34.05221577707828
 10
38.96113116534047
 20
33.86405973434855
 10
38.519358281119175
 20
33.67449109953695
 10
38.0757654330027
 20
33.48340745920384
 10
37.63020951942506
 20
33.29146303811292
 10
37.182555278641196
 20
33.09841511424798
 10
36.732937555476575
 20
32.90450702595483
 10
36.28177313054521
 20
32.70912264904996
 10
35.82899230878943
 20
32.51236501330263
 10
35.374455978040324
 20
32.314439767364966
 10
34.91795533107127
 20
32.115655589658374
 10
34.45997292364353
 20
31.91574179962
 10
34.0005817453458
 20
31.714147818585044
 10
33.539880250439104
 20
31.511392120149363
 10
33.07731604913138
 20
31.307848620088294
 10
32.613269392498964
 20
31.10317653491148
 10
32.14801787950033
 20
30.896965491809112
 10
31.6816272157961
 20
30.6895610371235
 10
31.213822957985652
 20
30.480926200212117
 10
30.744740159354283
 20
30.271304011256035
 10
30.274345793355177
 20
30.060521953888102
 10
29.80288106838237
 20
29.84844479054851
 10
29.330448219634114
 20
29.635142726886336
 10
28.85694466447915
 20
29.42054607086052
 10
28.382575081773822
 20
29.20479492560444
 10
27.907134514715388
 20
28.987749598871122
 10
27.430688529991283
 20
28.76975584244609
 10
26.953306683685955
 20
28.55071083200328
 10
26.475336130842337
 20
28.3301013704068
 10
25.996637759291517
 20
28.10813310630878
 10
25.517346830778575
 20
27.885048761725475
 10
25.03718890190288
 20
27.66081136601435
 10
24.55650762471652
 20
27.43535557909988
 10
24.075372416330794
 20
27.208578782099234
 10
23.593852693856928
 20
26.980378356129517
 10
23.111809206152824
 20
26.750960155286094
 10
22.629274979765274
 20
26.520496695936092
 10
22.146249806234486
 20
26.28898828624433
 10
21.66304451952552
 20
26.05619676160331
 10
21.179626093091592
 20
25.8219496056459
 10
20.696166318215433
 20
25.58621419969513
 10
20.212559178761502
 20
25.34936860604866
 10
19.72849363230494
 20
25.111651297478794
 10
19.24431353935764
 20
24.872996625745195
 10
18.760472279557842
 20
24.632513023249487
 10
18.276552724858565
 20
24.39081712778325
 10
17.79269048443786
 20
24.148151147754692
 10
17.30892180988703
 20
23.90424015335705
 10
16.82531625729049
 20
23.658981320264225
 10
16.341870184684225
 20
23.412822710979796
 10
15.858550704494611
 20
23.1655916036934
 10
15.375668581200122
 20
22.917049936519156
 10
14.893121301656087
 20
22.66712791469438
 10
14.411044475040585
 20
22.4160677466273
 10
13.929368475782526
 20
22.163972359365562
 10
13.448301833162144
 20
21.910533485374202
 10
12.967774921608354
 20
21.65585405170088
 10
12.48782083715456
 20
21.400106471991137
 10
12.008128606862485
 20
21.143529116295657
 10
11.529320176608678
 20
20.885645244513064
 10
11.051395546393126
 20
20.626454856643335
 10
10.57428529910456
 20
20.366060571569342
 10
10.097919809171925
 20
20.104565316338743
 10
9.622471284797548
 20
19.84193585594495
 10
9.147767656752293
 20
19.578205219951343
 10
8.674083507409959
 20
19.313410173557223
 10
8.20155787945287
 20
19.04734517083206
 10
7.730121286283178
 20
18.780112933380323
 10
7.259704310789594
 20
18.511816080084856
 10
6.790376439569995
 20
18.2423518893412
 10
6.322481950055834
 20
17.971654096579382
 10
5.855779216933518
 20
17.699858555688856
 10
5.3902319886117755
 20
17.427240196476397
 10
4.926085115448673
 20
17.153215718878638
 10
4.463404858997597
 20
16.87812984746503
 10
4.001982967924752
 20
16.602290438884157
 10
3.541925180419279
 20
16.32531984172477
 10
3.083575912885821
 20
16.04715158597368
 10
2.6267962616152447
 20
15.767991012118195
 10
2.1716225476854265
 20
15.487563087629928
 10
1.7181212411095472
 20
15.206212228913534
 10
1.2663287324520798
 20
14.923663300719017
 10
0.8163809088374759
 20
14.640158100568177
 10
0.3678641452096165
 20
14.355865409192239
 10
-0.07887714202685894
 20
14.070718756578014
 10
-0.5235650064804723
 20
13.784307256307667
 10
-0.9662687262893084
 20
13.496733321820837
 10
-1.4070941091290956
 20
13.208374707250385
 10
-1.8459713904555726
 20
12.919128280105431
 10
-2.282831014184289
 20
12.628891216059902
 10
-2.7175701892241717
 20
12.33773289899007
 10
-3.150430540888828
 20
12.045789182785374
 10
-3.5814480428231326
 20
11.75333458636619
 10
-4.0102420270311585
 20
11.460027709912541
 10
-4.436673381343982
 20
11.165662904772303
 10
-4.860880870497545
 20
10.870445305989573
 10
-5.282824866718233
 20
10.57453767137908
 10
-5.702596834781682
 20
10.277853873443018
 10
-6.12016333122147
 20
9.980565812218918
 10
-6.535491121031032
 20
9.68284569590909
 10
-6.948404979423346
 20
9.384213151497839
 10
-7.358802184793955
 20
9.084737665583033
 10
-7.76692744852774
 20
8.78500233278482
 10
-8.172744519033412
 20
8.484732223296437
 10
-8.575978466504198
 20
8.183963588709142
 10
-8.976834734149016
 20
7.882557455827204
 10
-9.375107878758937
 20
7.580652797846363
 10
-9.770834151925248
 20
7.278524544573396
 10
-10.164288483454715
 20
6.976136444417039
 10
-10.555020718753575
 20
6.673044375952847
 10
-10.94324233420008
 20
6.370003642003318
 10
-11.329195024594425
 20
6.067150199179515
 10
-11.712564591953894
 20
5.763798231256795
 10
-12.093042871465087
 20
5.46015619802877
 10
-12.47094104452607
 20
5.156462777710946
 10
-12.8463285977347
 20
4.8528206919077865
 10
-13.219066557895255
 20
4.54902449741037
 10
-13.58901896839668
 20
4.24531588901889
 10
-13.956391272447888
 20
3.9415558935376165
 10
-14.321186486633568
 20
3.6381916489756536
 10
-14.683265637757982
 20
3.335017712124087
 10
-15.042559239223262
 20
3.0319313613784575
 10
-15.399136777627279
 20
2.7290353183432248
 10
-15.7530345045613
 20
2.4266045128251696
 10
-16.10435514162979
 20
2.1245694582264334
 10
-16.45275427242809
 20
1.8228636845338269
 10
-16.798231896956203
 20
1.5214871917473443
 10
-17.14082125022073
 20
1.220267771664666
 10
-17.48048909721507
 20
0.9193776324881109
 10
-17.817443897732826
 20
0.6191249390310668
 10
-18.151652416767387
 20
0.31968189949585957
 10
-18.482836707927312
 20
0.020637627464641005
 10
-18.811099492817053
 20
-0.27807736366044794
 10
-19.13606312002536
 20
-0.5763573356902707
 10
-19.45814149255475
 20
-0.8740330970071791
 10
-19.7774040970031
 20
-1.1710019260067144
 10
-20.093645490161474
 20
-1.4671248494931448
 10
-20.406796185432018
 20
-1.762504589070929
 10
-20.71675044462559
 20
-2.0575187961513097
 10
-21.023683492529194
 20
-2.3516870977185875
 10
-21.327803788936436
 20
-2.6447013289593824
 10
-21.62866117925351
 20
-2.93700561129812
 10
-21.926358385084885
 20
-3.2286694313326727
 10
-22.220828936417377
 20
-3.5193483726583885
 10
-22.51217555485544
 20
-3.8091119218731335
 10
-22.800467726996942
 20
-4.097857357372449
 10
-23.08539427144382
 20
-4.385823357371841
 10
-23.36709416139182
 20
-4.6728044786624
 10
-23.645567396840924
 20
-4.958800721244115
 10
-23.921091924182605
 20
-5.243401198699156
 10
-24.193392813610078
 20
-5.526569659436246
 10
-24.462467048538667
 20
-5.808753241464498
 10
-24.728072934168175
 20
-6.090087901394968
 10
-24.990385695285607
 20
-6.3700932662119465
 10
-25.24964702669116
 20
-6.64863337930438
 10
-25.505476260388896
 20
-6.926049640492244
 10
-25.75790964797011
 20
-7.2020671199687545
 10
-26.00722211924157
 20
-7.476722069325178
 10
-26.25320823099436
 20
-7.749875515365788
 10
-26.495659523434878
 20
-8.02183562290396
 10
-26.73478445635673
 20
-8.292294227126314
 10
-26.97065251635778
 20
-8.561148606428395
 10
-27.203194216840163
 20
-8.82850148241466
 10
-27.432306836199412
 20
-9.094283368487242
 10
-27.65792088783767
 20
-9.358596986250603
 10
-27.880208579957262
 20
-9.621409100698147
 10
-28.098964469349262
 20
-9.882580738634141
 10
-28.314327529209404
 20
-10.141906456849672
 10
-28.526364229550875
 20
-10.399730671749381
 10
-28.7347664055603
 20
-10.65584492353968
 10
-28.939567292244266
 20
-10.910421420422887
 10
-29.14104483599425
 20
-11.163049275981173
 10
-29.339199036810236
 20
-11.413728490214524
 10
-29.533788199892044
 20
-11.662595019734004
 10
-29.7247428386418
 20
-11.909751586144072
 10
-29.9120961880661
 20
-12.155370397647047
 10
-30.095990237945355
 20
-12.398798873024903
 10
-30.276458223286163
 20
-12.640209220479965
 10
-30.453361170892787
 20
-12.879806883221155
 10
-30.626596359160764
 20
-13.1175223746506
 10
-30.796302761285833
 20
-13.353150251559391
 10
-30.962341404072262
 20
-13.586895957156441
 10
-31.124781774117913
 20
-13.818656769837286
 10
-31.283693358020656
 20
-14.048329967997475
 10
-31.43883446098029
 20
-14.276051508248056
 10
-31.590413542790422
 20
-14.50151322577565
 10
-31.738255378664043
 20
-14.725195493595965
 10
-31.882535193388165
 20
-14.946617938693295
 10
-32.023183500364915
 20
-15.165883282672098
 10
-32.16013081299642
 20
-15.383094247136832
 10
-32.29327440967824
 20
-15.598181345489637
 10
-32.42278649861269
 20
-15.811111342723914
 10
-32.548772817988905
 20
-16.021506587428423
 10
-32.671094394611146
 20
-16.229572522812074
 10
-32.789751228479425
 20
-16.43530914887488
 10
-32.90491552779607
 20
-16.638683230610233
 10
-33.01631236275429
 20
-16.83965851642687
 10
-33.124183428154275
 20
-17.038099049713733
 10
-33.22856497558731
 20
-17.23372990066404
 10
-33.32955972665784
 20
-17.426620555875655
 10
-33.42692598656567
 20
-17.616906971959633
 10
-33.52083596351314
 20
-17.804555913909375
 10
-33.611084214291324
 20
-17.989428408529157
 10
-33.69801515530488
 20
-18.171457985805787
 10
-33.781492829942735
 20
-18.35040295093907
 10
-33.86148098661363
 20
-18.526538233735796
 10
-33.93797962531757
 20
-18.699863834195966
 10
-34.01098874605455
 20
-18.870379752319575
 10
-34.08054460041584
 20
-19.037811058299837
 10
-34.146647188401445
 20
-19.202157752136756
 10
-34.20919077182222
 20
-19.363797485241584
 10
-34.26828108886731
 20
-19.522352606203064
 10
-34.32364019314525
 20
-19.678234001439037
 10
-34.3755460310475
 20
-19.83103078453167
 10
-34.423720656182596
 20
-19.981153841898795
 10
-34.468303041746275
 20
-20.1283977303315
 10
-34.50929318773853
 20
-20.27276244982978
 10
-34.546518885957035
 20
-20.414281235400228
 10
-34.58032455280646
 20
-20.552887617029654
 10
-34.6101935636798
 20
-20.68868129973785
 10
-34.63657305658618
 20
-20.821665300109487
 10
-34.65918810171881
 20
-20.951803366553293
 10
-34.67824715887131
 20
-21.078787334255885
 10
-34.69371397645238
 20
-21.202892133024058
 10
-34.705555319455435
 20
-21.32394555465548
 10
-34.71404913427194
 20
-21.44153671273231
 10
-34.719089682712756
 20
-21.5560432586658
 10
-34.72071321636916
 20
-21.667190262649154
 10
-34.71905870843688
 20
-21.774772281473464
 10
-34.71440410530737
 20
-21.87837842872088
 10
-34.706749406980656
 20
-21.97800870439141
 10
-34.6963363082569
 20
-22.073527151873993
 10
-34.68330679891654
 20
-22.1642811899506
 10
-34.66804154695548
 20
-22.249929418801255
 10
-34.651338139956856
 20
-22.329514108979232
 10
-34.6334775408968
 20
-22.40217723605758
 10
-34.61567425694562
 20
-22.466344740962793
 10
-34.59914279527364
 20
-22.520442564621383
 10
-34.585345391020745
 20
-22.56186641533058
 10
-34.57612193073803
 20
-22.58811773957676
 10
-34.13398479426076
 20
-23.24593175903979
 10
-34.128489267284856
 20
-23.24985031550779
 10
-34.112072172954996
 20
-23.261503263307336
 10
-34.08501145766265
 20
-23.280479716020594
 10
-34.04602312763964
 20
-23.308456454325505
 10
-33.993853407539696
 20
-23.347729605111468
 10
-33.93201287884738
 20
-23.392888158348693
 10
-33.86255290449209
 20
-23.440678257701062
 10
-33.78658225345501
 20
-23.489903495506326
 10
-33.70545742268686
 20
-23.538337231472955
 10
-33.61970106996398
 20
-23.584985484562953
 10
-33.52986607148461
 20
-23.62947361994974
 10
-33.43612765203578
 20
-23.671321264617617
 10
-33.33876375800892
 20
-23.710117532148747
 10
-33.23791336259978
 20
-23.745656979334207
 10
-33.13357646580835
 20
-23.777939606173998
 10
-33.02592527583698
 20
-23.806932177661523
 10
-32.91499604427692
 20
-23.832359763989995
 10
-32.80071928453031
 20
-23.85432508676388
 10
-32.68326720479948
 20
-23.87279491097658
 10
-32.56239811028423
 20
-23.887905193239153
 10
-32.43818148758243
 20
-23.899553211947133
 10
-32.31096175309874
 20
-23.907672497087336
 10
-32.18022228222616
 20
-23.912362753679545
 10
-32.04634072637596
 20
-23.913729719912897
 10
-31.90904215574135
 20
-23.911737144196117
 10
-31.768498778524634
 20
-23.90635179152261
 10
-31.624780081323703
 20
-23.897470940287924
 10
-31.477677604344944
 20
-23.885402755305424
 10
-31.3273303207841
 20
-23.869941793366213
 10
-31.173460284249707
 20
-23.851498940888117
 10
-31.016275954535352
 20
-23.829766033057748
 10
-30.85574108004977
 20
-23.805017999681905
 10
-30.691752939188504
 20
-23.777185354162718
 10
-30.52417255875581
 20
-23.74647353970911
 10
-30.353172146954027
 20
-23.712849321314483
 10
-30.178682217185287
 20
-23.676415420583293
 10
-30.000702769449582
 20
-23.637171837515552
 10
-29.818922622348857
 20
-23.59535725032676
 10
-29.6336167056899
 20
-23.551007910608195
 10
-29.444649062861657
 20
-23.503882123559674
 10
-29.25222513707305
 20
-23.454118862376916
 10
-29.05610323352388
 20
-23.40185408367098
 10
-28.85638607381862
 20
-23.34715727403973
 10
-28.65304042295066
 20
-23.289856225280843
 10
-28.446307975720202
 20
-23.229814980783267
 10
-28.23601652392492
 20
-23.16706677555359
 10
-28.022302024175865
 20
-23.101853304392005
 10
-27.80506175486858
 20
-23.034105080700655
 10
-27.58429571600306
 20
-22.963822104479526
 10
-27.3602123673729
 20
-22.890696210915245
 10
-27.13291443058257
 20
-22.814796886605684
 10
-26.90229918402761
 20
-22.73605464495297
 10
-26.66833037611674
 20
-22.654744415763886
 10
-26.431008006849964
 20
-22.570866199038438
 10
-26.190610022618742
 20
-22.48400910835878
 10
-25.94710017183181
 20
-22.394448073531706
 10
-25.700445219482575
 20
-22.302010886354886
 10
-25.450575678973156
 20
-22.206800268432783
 10
-25.197594271908027
 20
-22.108885706363253
 10
-24.941570484885048
 20
-22.00816447854185
 10
-24.682434831306356
 20
-21.90473930657302
 10
-24.42018731117195
 20
-21.798610190456778
 10
-24.1548974110797
 20
-21.68967440858865
 10
-23.88659836603619
 20
-21.578104169170974
 10
-23.61529017604143
 20
-21.46389947220374
 10
-23.34093960608882
 20
-21.34688810948463
 10
-23.063613126191548
 20
-21.227414497418287
 10
-22.783277501343015
 20
-21.105306427802393
 10
-22.499863244945374
 20
-20.980666622241408
 10
-22.21354256520093
 20
-20.853461845728727
 10
-21.924523921903294
 20
-20.723383933450986
 10
-21.632598855258866
 20
-20.590741050221553
 10
-21.33752567046745
 20
-20.455669152651488
 10
-21.03968201894029
 20
-20.318273978929927
 10
-20.739001430664203
 20
-20.178211112652217
 10
-20.435553392237054
 20
-20.035377832213904
 10
-20.129404373672028
 20
-19.89011855401963
 10
-19.82038216676681
 20
-19.742466513075996
 10
-19.50862574471711
 20
-19.592216266174077
 10
-19.194237829127417
 20
-19.439437299911752
 10
-18.877287906595573
 20
-19.284026892684544
 10
-18.55756751732799
 20
-19.126293209305842
 10
-18.2352156345204
 20
-18.966030806566724
 10
-17.91009328497707
 20
-18.80344512767611
 10
-17.58261437170051
 20
-18.638366981016354
 10
-17.25250396488395
 20
-18.47076011499618
 10
-16.919864786131836
 20
-18.30069401621346
 10
-16.584730070450767
 20
-18.12834089287052
 10
-16.24713606943202
 20
-17.95342581516056
 10
-15.907046531484323
 20
-17.77622371289038
 10
-15.564633664809987
 20
-17.596701351053383
 10
-15.219830999395844
 20
-17.414514313244922
 10
-14.872843978450803
 20
-17.22980157266072
 10
-14.523464142181261
 20
-17.042871294114157
 10
-14.171691490587229
 20
-16.853723477605243
 10
-13.817526023668698
 20
-16.662358123133966
 10
-13.461278922823732
 20
-16.46853655248482
 10
-13.103089161248064
 20
-16.272053322448887
 10
-12.742576070945768
 20
-16.07324983284613
 10
-12.379945095125766
 20
-15.872265056872296
 10
-12.01523248537932
 20
-15.668824064720582
 10
-11.648679936506634
 20
-15.462790899779941
 10
-11.280078988714108
 20
-15.254473726863763
 10
-10.909393390410463
 20
-15.044147475778823
 10
-10.536659393186977
 20
-14.831537216718337
 10
-10.162085456837245
 20
-14.616334784868926
 10
-9.78573805137446
 20
-14.398884596635243
 10
-9.407547690200747
 20
-14.179289373621744
 10
-9.027308930107196
 20
-13.957410142632705
 10
-8.645399422505045
 20
-13.733352641857252
 10
-8.261855418985576
 20
-13.506841941488613
 10
-7.8766769195487765
 20
-13.277878041526778
 10
-7.489897159201245
 20
-13.046633150174072
 10
-7.101168704953655
 20
-12.813620875452806
 10
-6.710802738204063
 20
-12.578602539147456
 10
-6.318974483739474
 20
-12.341097768242319
 10
-5.925614454962019
 20
-12.101209284341856
 10
-5.530928095080618
 20
-11.859076060641796
 10
-5.134534736099349
 20
-11.615039496962115
 10
-4.736676072818405
 20
-11.368963636691761
 10
-4.33735210523778
 20
-11.12084847983073
 10
-3.936701806553212
 20
-10.870488583170106
 10
-3.534655690166839
 20
-10.61798666831435
 10
-3.1312802260918398
 20
-10.363687151668108
 10
-2.726508944315029
 20
-10.10724561682673
 10
-2.320686261241062
 20
-9.848595593777034
 10
-1.9137426902720662
 20
-9.58783980412347
 10
-1.5056087448101818
 20
-9.325080969470507
 10
-1.0962511898488057
 20
-9.060146881615808
 10
-0.6861171633970721
 20
-8.79304055714407
 10
-0.2751734304483624
 20
-8.523589787852949
 10
0.13709965018897535
 20
-8.252341416771342
 10
0.5504271487081379
 20
-7.979331695490533
 10
0.9642894239174897
 20
-7.7040137809816125
 10
1.3791003788195335
 20
-7.426556864862241
 10
1.7948267784076886
 20
-7.147133155334734
 10
2.211124206277295
 20
-6.8656761823859105
 10
2.6281286190394026
 20
-6.581944251215579
 10
3.0456345734851067
 20
-6.296076335019464
 10
3.464022737610312
 20
-6.00841383361755
 10
3.88305141661484
 20
-5.718820790398775
 10
4.302270455904903
 20
-5.426853083938704
 10
4.721991036878538
 20
-5.132749392452864
 10
5.14238838432278
 20
-4.836990088956941
 10
5.563151525299333
 20
-4.539336803400257
 10
5.984324951643673
 20
-4.239633968480388
 10
6.405951307714057
 20
-3.9381659643917413
 10
6.827752855578821
 20
-3.634522212881288
 10
7.249729734211164
 20
-3.3287029193922373
 10
7.672057168398087
 20
-3.0211884569402927
 10
8.09470220107938
 20
-2.712151444614206
 10
8.517698136748253
 20
-2.4014197769332437
 10
8.940733863493223
 20
-2.088754878403508
 10
9.363948423996641
 20
-1.7743622949555153
 10
9.78734209620489
 20
-1.4582424374756837
 10
10.210812089026907
 20
-1.1404646898402813
 10
10.634150151128896
 20
-0.8207211954007334
 10
11.057495255706579
 20
-0.4992173973659686
 10
11.48091990594251
 20
-0.17650315534955194
 10
11.90456033639413
 20
0.14766281456228797
 10
12.328002574572327
 20
0.4734498067088047
 10
12.751418967652615
 20
0.8008243806401936
 10
13.17460407242608
 20
1.1296475631607255
 10
13.597730166581643
 20
1.459886016542197
 10
14.020727833008037
 20
1.7916423596674647
 10
14.44346111509421
 20
2.1246748977363423
 10
14.866171707640358
 20
2.4588476741377763
 10
15.288790332508396
 20
2.794263102311403
 10
15.711041851431753
 20
3.1308852388307695
 10
16.13309861158595
 20
3.468680643246075
 10
16.55499686456226
 20
3.8073743857505318
 10
16.97656145506027
 20
4.147446736638242
 10
17.397725774093608
 20
4.488553484947762
 10
17.81862879485799
 20
4.830489187470168
 10
18.239201100242166
 20
5.173356463088322
 10
18.659303717050392
 20
5.517360755011142
 10
19.079075687965005
 20
5.862296517308104
 10
19.498450195539817
 20
6.20781984718257
 10
19.917391127156765
 20
6.55420546899813
 10
20.33600422100498
 20
6.901075731343531
 10
20.75408087831767
 20
7.2487390044753655
 10
21.171551681983555
 20
7.597297907276479
 10
21.588555605198394
 20
7.946546996537969
 10
22.005095247627253
 20
8.296039750580332
 10
22.421273539334393
 20
8.645845347836627
 10
22.83677915994856
 20
8.99620267196558
 10
23.251681457094442
 20
9.347009206805948
 10
23.665980500258602
 20
9.698264849636105
 10
24.07974563706574
 20
10.049867084294823
 10
24.49270159027607
 20
10.401780172798837
 10
24.905020776551705
 20
10.753970571976742
 10
25.31666954396647
 20
11.106266689955838
 10
25.727889934753563
 20
11.458532056517065
 10
26.138197933933174
 20
11.811039509376934
 10
26.54766309758982
 20
12.163686224209423
 10
26.956735580317257
 20
12.516028079590072
 10
27.36479267188639
 20
12.86854294555794
 10
27.771764677239556
 20
13.221333851882296
 10
28.178171446028227
 20
13.573853647369447
 10
28.5839459523464
 20
13.925758737387554
 10
28.98877413718454
 20
14.277734732718047
 10
29.39262248758967
 20
14.629609836045013
 10
29.79538786503775
 20
14.98131517710022
 10
30.197312172788752
 20
15.33271449110779
 10
30.5983618284031
 20
15.68363608347343
 10
30.998606110018862
 20
16.03397754075749
 10
31.397803114376067
 20
16.383875127735834
 10
31.79581359033256
 20
16.7335346985038
 10
32.19284592819538
 20
17.082648190969625
 10
32.588900058477904
 20
17.431215707854896
 10
32.98383926021649
 20
17.778996684297073
 10
33.37786946302628
 20
18.126129374440662
 10
33.77057606903876
 20
18.472783997119357
 10
34.162028425878596
 20
18.818858036171907
 10
34.55257368858871
 20
19.163838294462423
 10
34.94214244005787
 20
19.507827390873768
 10
35.330389360555635
 20
19.85089313079998
 10
35.71758986629497
 20
20.193071046781103
 10
36.10346826311652
 20
20.534326017163522
 10
36.48812741159793
 20
20.87472732310188
 10
36.871603076924316
 20
21.21400075384064
 10
37.253792051085
 20
21.552077541833146
 10
37.634936237339986
 20
21.888821422303554
 10
38.01462082936096
 20
22.22440292225034
 10
38.393051756763064
 20
22.558960295818036
 10
38.76995332538692
 20
22.892458421353005
 10
39.14574210738672
 20
23.2242814828365
 10
39.52031496423842
 20
23.5543606100003
 10
39.89346090596996
 20
23.883450386615653
 10
40.264801030411284
 20
24.211446923482306
 10
40.63509715996049
 20
24.537666701909085
 10
41.00407353097154
 20
24.862074702963962
 10
41.37145184962004
 20
25.185082326672806
 10
41.73723197693276
 20
25.506689778478812
 10
42.1014831910478
 20
25.826794644942357
 10
42.464552785981255
 20
26.144883523484317
 10
42.82609523354296
 20
26.461024527663593
 10
43.186108212014176
 20
26.775663768273226
 10
43.54438516640043
 20
27.088663915663155
 10
43.90106486143766
 20
27.39981983478928
 10
44.2562861313484
 20
27.70892628788589
 10
44.609909724990544
 20
28.016189129048332
 10
44.9618322258936
 20
28.32153989889475
 10
45.31229560680422
 20
28.62484222992771
 10
45.66109331272789
 20
28.92595879249714
 10
46.008119883421855
 20
29.225266827127868
 10
46.353168624918446
 20
29.522629209613033
 10
46.69668785649891
 20
29.818047210270045
 10
47.038403580343235
 20
30.111040521146645
 10
47.37852200401292
 20
30.401746985500942
 10
47.716973362963685
 20
30.690269735823783
 10
48.053412129005316
 20
30.976676885674035
 10
48.38790744130271
 20
31.26086622705528
 10
48.720734924528614
 20
31.54287298434272
 10
49.05165437176236
 20
31.822388236013605
 10
49.38090761677734
 20
32.09927582001368
 10
49.708182783309525
 20
32.37377544177449
 10
50.033513314825285
 20
32.646059001333555
 10
50.35686528145206
 20
32.915955317704594
 10
50.67823840524346
 20
33.18346480177402
 10
50.99773766003605
 20
33.44821093206825
 10
51.31525765507368
 20
33.710570846390496
 10
51.630661113499905
 20
33.97030480165104
 10
51.94391199218329
 20
34.22768741949187
 10
52.25521861194421
 20
34.48241074054281
 10
52.56454690393693
 20
34.734303789260814
 10
52.871688130421404
 20
34.98367514134562
 10
53.176642082937896
 20
35.230525104962084
 10
53.47940848353996
 20
35.47485409099663
 10
53.77991961145571
 20
35.71631953203346
 10
54.07852064744232
 20
35.95485382812175
 10
54.37476067255348
 20
36.1909022306236
 10
54.668605687429945
 20
36.4242936612743
 10
54.96015862213601
 20
36.6550972985069
 10
55.249454963910374
 20
36.8830393424523
 10
55.53632174019813
 20
37.108154158054724
 10
55.8208957414495
 20
37.330682207455105
 10
56.10317859451721
 20
37.55017840707643
 10
56.38303111774573
 20
37.766848508292426
 10
56.66052258927315
 20
37.98059009766345
 10
56.93544420187287
 20
38.1917118536109
 10
57.207934720280825
 20
38.40000864109068
 10
57.477890589053374
 20
38.605412206164154
 10
57.7453810863286
 20
38.80782013539171
 10
58.010439794546095
 20
39.00740412336762
 10
58.2727903941671
 20
39.20412997293272
 10
58.532432537758616
 20
39.39799819769502
 10
58.78953885044259
 20
39.58897494631831
 10
59.04417888830348
 20
39.77695739447652
 10
59.29593881782532
 20
39.96211463106569
 10
59.54491538476519
 20
40.144524976741664
 10
59.79132378911669
 20
40.323870302695454
 10
60.03498848732079
 20
40.50018877457065
 10
60.27577036720855
 20
40.67368604101939
 10
60.51391147101315
 20
40.84422563182259
 10
60.74927438290499
 20
41.011568009333736
 10
60.9818231987258
 20
41.17598758975162
 10
61.2114882234179
 20
41.33758740284552
 10
61.438165971024254
 20
41.49629909195519
 10
61.661995206280814
 20
41.651917522036534
 10
61.882906095156706
 20
41.80454592830203
 10
62.10075952548301
 20
41.95438995940383
 10
62.31562470591122
 20
42.10134730462387
 10
62.5275371931666
 20
42.24514406137142
 10
62.736496639816174
 20
42.385780743254486
 10
62.94232830747913
 20
42.52373700423756
 10
63.144998057823074
 20
42.658841971499164
 10
63.34450582136146
 20
42.79109574776091
 10
63.54092073725913
 20
42.92039612502636
 10
63.73413938904561
 20
43.04667464391367
 10
63.92426477627183
 20
43.17000038013433
 10
64.11105457875817
 20
43.2905102147938
 10
64.29464742226737
 20
43.407999218291195
 10
64.47490419463051
 20
43.52267303927864
 10
64.65206700756737
 20
43.63439510481546
 10
64.82579005494135
 20
43.74323393934692
 10
64.99610698867862
 20
43.84936113474574
 10
65.16298380942001
 20
43.95260561274722
 10
65.32659314228745
 20
44.05293352201516
 10
65.48669197223535
 20
44.15048277087107
 10
65.64352206355055
 20
44.24511729998234
 10
65.7966725011542
 20
44.33700188393758
 10
65.94641376771084
 20
44.426179348510765
 10
66.09254111487752
 20
44.51250969329011
 10
66.23515768117831
 20
44.59606178854387
 10
66.37426332764
 20
44.676835839715245
 10
66.50978835920489
 20
44.754934876573515
 10
66.64169891548705
 20
44.830187615410786
 10
66.76985574534439
 20
44.902799910322386
 10
66.89443168235853
 20
44.9727376018073
 10
67.01525361500146
 20
45.04003526025297
 10
67.13239096038438
 20
45.10459026677656
 10
67.24577416242283
 20
45.16650544570409
 10
67.35547249925496
 20
45.22567838359596
 10
67.46141641479622
 20
45.282211904778215
 10
67.5634668663643
 20
45.33631155518136
 10
67.66165927171132
 20
45.387703637657914
 10
67.75613083820707
 20
45.43662799801913
 10
67.84650182984241
 20
45.482981979724045
 10
67.93315177416667
 20
45.52686854747846
 10
68.01587383823902
 20
45.56815078251873
 10
68.09452897937709
 20
45.60703423077538
 10
68.16928996167606
 20
45.643484835468996
 10
68.24005329917881
 20
45.677434239939345
 10
68.30668001868966
 20
45.709087887395356
 10
68.36941230141495
 20
45.73830910217473
 10
68.42800782717514
 20
45.76523476538297
 10
68.48253594359488
 20
45.78976236085882
 10
68.53285767747846
 20
45.81209733181124
 10
68.57904251542371
 20
45.832136956635686
 10
68.62112417884346
 20
45.850052724483334
 10
68.65889590428337
 20
45.86570761386889
 10
68.69239162161605
 20
45.87927280577866
 10
68.72171460833876
 20
45.890816965037665
 10
68.7466581009972
 20
45.90020307016066
 10
68.76718640389285
 20
45.907705229181566
 10
68.78347255906723
 20
45.913288974434586
 10
68.795170551924
 20
45.91702313852979
 10
68.8023145207954
 20
45.91907859428862
 10
68.80476528402602
 20
45.91966109308485
 10
68.37047404736313
 20
46.561671120959566
  0
ENDSEC
  0
SECTION
  2
OBJECTS
  0
DICTIONARY
  5
A
330
0
100
AcDbDictionary
280
0
281
1
  3
ACAD_COLOR
350
B
  3
ACAD_GROUP
350
C
  3
ACAD_LAYOUT
350
D
  3
ACAD_MATERIAL
350
E
  3
ACAD_MLEADERSTYLE
350
F
  3
ACAD_MLINESTYLE
350
10
  3
ACAD_PLOTSETTINGS
350
11
  3
ACAD_PLOTSTYLENAME
350
12
  3
ACAD_SCALELIST
350
14
  3
ACAD_TABLESTYLE
350
15
  3
ACAD_VISUALSTYLE
350
16
  3
EZDXF_META
350
2D
  0
DICTIONARY
  5
B
330
A
100
AcDbDictionary
280
0
281
1
  0
DICTIONARY
  5
C
330
A
100
AcDbDictionary
280
0
281
1
  0
DICTIONARY
  5
D
330
A
100
AcDbDictionary
280
0
281
1
  3
Model
350
1A
  3
Layout1
350
1E
  0
DICTIONARY
  5
E
330
A
100
AcDbDictionary
280
0
281
1
  3
ByBlock
350
1F
  3
ByLayer
350
20
  3
Global
350
21
  0
DICTIONARY
  5
F
330
A
100
AcDbDictionary
280
0
281
1
  3
Standard
350
2C
  0
DICTIONARY
  5
10
330
A
100
AcDbDictionary
280
0
281
1
  3
Standard
350
22
  0
DICTIONARY
  5
11
330
A
100
AcDbDictionary
280
0
281
1
  0
ACDBDICTIONARYWDFLT
  5
12
330
A
100
AcDbDictionary
280
0
281
1
  3
Normal
350
13
100
AcDbDictionaryWithDefault
340
13
  0
ACDBPLACEHOLDER
  5
13
330
12
  0
DICTIONARY
  5
14
330
A
100
AcDbDictionary
280
0
281
1
  0
DICTIONARY
  5
15
330
A
100
AcDbDictionary
280
0
281
1
  0
DICTIONARY
  5
16
330
A
100
AcDbDictionary
280
0
281
1
  0
LAYOUT
  5
1A
330
D
100
AcDbPlotSettings
  1

  4
A3
  6

 40
7.5
 41
20.0
 42
7.5
 43
20.0
 44
420.0
 45
297.0
 46
0.0
 47
0.0
 48
0.0
 49
0.0
140
0.0
141
0.0
142
1.0
143
1.0
 70
1024
 72
1
 73
0
 74
5
  7

 75
16
 76
0
 77
2
 78
300
147
1.0
148
0.0
149
0.0
100
AcDbLayout
  1
Model
 70
1
 71
0
 10
0.0
 20
0.0
 11
420.0
 21
297.0
 12
0.0
 22
0.0
 32
0.0
 14
1e+20
 24
1e+20
 34
1e+20
 15
-1e+20
 25
-1e+20
 35
-1e+20
146
0.0
 13
0.0
 23
0.0
 33
0.0
 16
1.0
 26
0.0
 36
0.0
 17
0.0
 27
1.0
 37
0.0
 76
1
330
17
  0
LAYOUT
  5
1E
330
D
100
AcDbPlotSettings
  1

  4
A3
  6

 40
7.5
 41
20.0
 42
7.5
 43
20.0
 44
420.0
 45
297.0
 46
0.0
 47
0.0
 48
0.0
 49
0.0
140
0.0
141
0.0
142
1.0
143
1.0
 70
0
 72
1
 73
0
 74
5
  7

 75
16
 76
0
 77
2
 78
300
147
1.0
148
0.0
149
0.0
100
AcDbLayout
  1
Layout1
 70
1
 71
1
 10
0.0
 20
0.0
 11
420.0
 21
297.0
 12
0.0
 22
0.0
 32
0.0
 14
1e+20
 24
1e+20
 34
1e+20
 15
-1e+20
 25
-1e+20
 35
-1e+20
146
0.0
 13
0.0
 23
0.0
 33
0.0
 16
1.0
 26
0.0
 36
0.0
 17
0.0
 27
1.0
 37
0.0
 76
1
330
1B
  0
MATERIAL
  5
1F
102
{ACAD_REACTORS
330
E
102
}
330
E
100
AcDbMaterial
  1
ByBlock
  2

 70
0
 40
1.0
 71
1
 41
1.0
 91
-1023410177
 42
1.0
 72
1
  3

 73
1
 74
1
 75
1
 44
0.5
 73
0
 45
1.0
 46
1.0
 77
1
  4

 78
1
 79
1
170
1
 48
1.0
171
1
  6

172
1
173
1
174
1
140
1.0
141
1.0
175
1
  7

176
1
177
1
178
1
143
1.0
179
1
  8

270
1
271
1
272
1
145
1.0
146
1.0
273
1
  9

274
1
275
1
276
1
 42
1.0
 72
1
  3

 73
1
 74
1
 75
1
 94
63
  0
MATERIAL
  5
20
102
{ACAD_REACTORS
330
E
102
}
330
E
100
AcDbMaterial
  1
ByLayer
  2

 70
0
 40
1.0
 71
1
 41
1.0
 91
-1023410177
 42
1.0
 72
1
  3

 73
1
 74
1
 75
1
 44
0.5
 73
0
 45
1.0
 46
1.0
 77
1
  4

 78
1
 79
1
170
1
 48
1.0
171
1
  6

172
1
173
1
174
1
140
1.0
141
1.0
175
1
  7

176
1
177
1
178
1
143
1.0
179
1
  8

270
1
271
1
272
1
145
1.0
146
1.0
273
1
  9

274
1
275
1
276
1
 42
1.0
 72
1
  3

 73
1
 74
1
 75
1
 94
63
  0
MATERIAL
  5
21
102
{ACAD_REACTORS
330
E
102
}
330
E
100
AcDbMaterial
  1
Global
  2

 70
0
 40
1.0
 71
1
 41
1.0
 91
-1023410177
 42
1.0
 72
1
  3

 73
1
 74
1
 75
1
 44
0.5
 73
0
 45
1.0
 46
1.0
 77
1
  4

 78
1
 79
1
170
1
 48
1.0
171
1
  6

172
1
173
1
174
1
140
1.0
141
1.0
175
1
  7

176
1
177
1
178
1
143
1.0
179
1
  8

270
1
271
1
272
1
145
1.0
146
1.0
273
1
  9

274
1
275
1
276
1
 42
1.0
 72
1
  3

 73
1
 74
1
 75
1
 94
63
  0
MLINESTYLE
  5
22
102
{ACAD_REACTORS
330
10
102
}
330
10
100
AcDbMlineStyle
  2
Standard
 70
0
  3

 62
256
 51
90.0
 52
90.0
 71
2
 49
0.5
 62
256
  6
BYLAYER
 49
-0.5
 62
256
  6
BYLAYER
  0
MLEADERSTYLE
  5
2C
102
{ACAD_REACTORS
330
F
102
}
330
F
100
AcDbMLeaderStyle
179
2
170
2
171
1
172
0
 90
2
 40
0.0
 41
0.0
173
1
 91
-1056964608
 92
-2
290
1
 42
2.0
291
1
 43
8.0
  3
Standard
 44
4.0
300

342
29
174
1
175
1
176
0
178
1
 93
-1056964608
 45
4.0
292
0
297
0
 46
4.0
 94
-1056964608
 47
1.0
 49
1.0
140
1.0
294
1
141
0.0
177
0
142
1.0
295
0
296
0
143
3.75
271
0
272
9
273
9
  0
DICTIONARY
  5
2D
330
A
100
AcDbDictionary
280
1
281
1
  3
CREATED_BY_EZDXF
350
2E
  3
WRITTEN_BY_EZDXF
350
32
  0
DICTIONARYVAR
  5
2E
330
2D
100
DictionaryVariables
280
0
  1
1.3.5 @ 2025-08-21T17:54:44.472880+00:00
  0
DICTIONARYVAR
  5
32
330
2D
100
DictionaryVariables
280
0
  1
1.3.5 @ 2025-08-21T17:54:44.479829+00:00
  0
ENDSEC
  0
EOF
